<?xml version="1.0" encoding="UTF-8" standalone="no"?>
<!DOCTYPE svg PUBLIC "-//W3C//DTD SVG 1.1//EN"
 "http://www.w3.org/Graphics/SVG/1.1/DTD/svg11.dtd">
<!-- Generated by graphviz version 2.43.0 (0)
 -->
<!-- Title: include/helios/engine/mechanics/combat/components/Aim2DComponent.ixx Pages: 1 -->
<!--zoomable 489 -->

<svg id="main" version="1.1" xmlns="http://www.w3.org/2000/svg" xmlns:xlink="http://www.w3.org/1999/xlink" xml:space="preserve" onload="init(evt)">

<style type="text/css"><![CDATA[
.node, .edge {opacity: 0.7;}
.node.selected, .edge.selected {opacity: 1;}
.edge:hover path { stroke: red; }
.edge:hover polygon { stroke: red; fill: red; }
]]></style>

<defs>
  <circle id="rim" cx="0" cy="0" r="7"/>
  <circle id="rim2" cx="0" cy="0" r="3.5"/>
  <g id="zoomPlus">
    <use xlink:href="#rim" fill="#404040"><set attributeName="fill" to="#808080" begin="zoomplus.mouseover" end="zoomplus.mouseout"/></use>
    <path d="M-4,0h8M0,-4v8" fill="none" stroke="white" stroke-width="1.5" pointer-events="none"/>
  </g>
  <g id="zoomMin">
    <use xlink:href="#rim" fill="#404040"><set attributeName="fill" to="#808080" begin="zoomminus.mouseover" end="zoomminus.mouseout"/></use>
    <path d="M-4,0h8" fill="none" stroke="white" stroke-width="1.5" pointer-events="none"/>
  </g>
  <g id="arrowUp" transform="translate(30 24)">
    <use xlink:href="#rim"/>
    <path pointer-events="none" fill="none" stroke="white" stroke-width="1.5" d="M0,-3.0v7 M-2.5,-0.5L0,-3.0L2.5,-0.5"/>
  </g>
  <g id="arrowRight" transform="rotate(90) translate(36 -43)">
    <use xlink:href="#rim"/>
    <path pointer-events="none" fill="none" stroke="white" stroke-width="1.5" d="M0,-3.0v7 M-2.5,-0.5L0,-3.0L2.5,-0.5"/>
  </g>
  <g id="arrowDown" transform="rotate(180) translate(-30 -48)">
    <use xlink:href="#rim"/>
    <path pointer-events="none" fill="none" stroke="white" stroke-width="1.5" d="M0,-3.0v7 M-2.5,-0.5L0,-3.0L2.5,-0.5"/>
  </g>
  <g id="arrowLeft" transform="rotate(270) translate(-36 17)">
    <use xlink:href="#rim"/>
    <path pointer-events="none" fill="none" stroke="white" stroke-width="1.5" d="M0,-3.0v7 M-2.5,-0.5L0,-3.0L2.5,-0.5"/>
  </g>
  <g id="resetDef">
    <use xlink:href="#rim2" fill="#404040"><set attributeName="fill" to="#808080" begin="reset.mouseover" end="reset.mouseout"/></use>
  </g>
</defs>
<script type="application/ecmascript">
var viewWidth = 1337;
var viewHeight = 489;
var sectionId = 'dynsection-0';
</script>
<script type="application/ecmascript" xlink:href="svg.min.js"/>
<svg id="graph" class="graph">
<g id="viewport">
<title>include/helios/engine/mechanics/combat/components/Aim2DComponent.ixx</title>
<!-- Node1 -->
<g id="Node000001" class="node">
<title>Node1</title>
<g id="a_Node000001"><a xlink:title="Component for handling 2D aiming direction.">
<polygon fill="#999999" stroke="#666666" points="852.5,-481 677.5,-481 677.5,-440 852.5,-440 852.5,-481"/>
<text text-anchor="start" x="685.5" y="-469" font-family="Helvetica,sans-Serif" font-size="10.00">include/helios/engine</text>
<text text-anchor="start" x="685.5" y="-458" font-family="Helvetica,sans-Serif" font-size="10.00">/mechanics/combat/components</text>
<text text-anchor="middle" x="765" y="-447" font-family="Helvetica,sans-Serif" font-size="10.00">/Aim2DComponent.ixx</text>
</a>
</g>
</g>
<!-- Node2 -->
<g id="Node000002" class="node">
<title>Node2</title>
<g id="a_Node000002"><a xlink:href="UpdateContext_8ixx.html" target="_top" xlink:title="Context struct passed to components during per&#45;frame updates.">
<polygon fill="white" stroke="#666666" points="666,-404 510,-404 510,-374 666,-374 666,-404"/>
<text text-anchor="start" x="518" y="-392" font-family="Helvetica,sans-Serif" font-size="10.00">helios.engine.runtime.world.</text>
<text text-anchor="middle" x="588" y="-381" font-family="Helvetica,sans-Serif" font-size="10.00">UpdateContext</text>
</a>
</g>
</g>
<!-- Node1&#45;&gt;Node2 -->
<g id="edge1_Node000001_Node000002" class="edge">
<title>Node1&#45;&gt;Node2</title>
<g id="a_edge1_Node000001_Node000002"><a xlink:title=" ">
<path fill="none" stroke="#63b8ff" d="M715.22,-439.96C689.5,-429.85 658.33,-417.62 633.29,-407.78"/>
<polygon fill="#63b8ff" stroke="#63b8ff" points="634.25,-404.4 623.66,-404 631.69,-410.92 634.25,-404.4"/>
</a>
</g>
</g>
<!-- Node25 -->
<g id="Node000025" class="node">
<title>Node25</title>
<g id="a_Node000025"><a xlink:href="helios_2math_2types_2__module_8ixx.html" target="_top" xlink:title="Module exports for vector and matrix type definitions.">
<polygon fill="white" stroke="#666666" points="1267,-200.5 1163,-200.5 1163,-181.5 1267,-181.5 1267,-200.5"/>
<text text-anchor="middle" x="1215" y="-188.5" font-family="Helvetica,sans-Serif" font-size="10.00">helios.math.types</text>
</a>
</g>
</g>
<!-- Node1&#45;&gt;Node25 -->
<g id="edge52_Node000001_Node000025" class="edge">
<title>Node1&#45;&gt;Node25</title>
<g id="a_edge52_Node000001_Node000025"><a xlink:title=" ">
<path fill="none" stroke="#63b8ff" d="M826.04,-439.96C906.01,-412.16 1047.61,-355.17 1146,-272 1168.46,-253.02 1189.85,-226.44 1202.7,-209.22"/>
<polygon fill="#63b8ff" stroke="#63b8ff" points="1205.83,-210.86 1208.91,-200.72 1200.18,-206.73 1205.83,-210.86"/>
</a>
</g>
</g>
<!-- Node26 -->
<g id="Node000026" class="node">
<title>Node26</title>
<g id="a_Node000026"><a xlink:href="Component_8ixx.html" target="_top" xlink:title="Base class for components attached to GameObjects.">
<polygon fill="white" stroke="#666666" points="845.5,-398.5 684.5,-398.5 684.5,-379.5 845.5,-379.5 845.5,-398.5"/>
<text text-anchor="middle" x="765" y="-386.5" font-family="Helvetica,sans-Serif" font-size="10.00">helios.engine.ecs.Component</text>
</a>
</g>
</g>
<!-- Node1&#45;&gt;Node26 -->
<g id="edge50_Node000001_Node000026" class="edge">
<title>Node1&#45;&gt;Node26</title>
<g id="a_edge50_Node000001_Node000026"><a xlink:title=" ">
<path fill="none" stroke="#63b8ff" d="M765,-439.77C765,-430.08 765,-418.46 765,-408.88"/>
<polygon fill="#63b8ff" stroke="#63b8ff" points="768.5,-408.82 765,-398.82 761.5,-408.82 768.5,-408.82"/>
</a>
</g>
</g>
<!-- Node3 -->
<g id="Node000003" class="node">
<title>Node3</title>
<g id="a_Node000003"><a xlink:title=" ">
<polygon fill="#e0e0e0" stroke="#999999" points="691,-332.5 639,-332.5 639,-313.5 691,-313.5 691,-332.5"/>
<text text-anchor="middle" x="665" y="-320.5" font-family="Helvetica,sans-Serif" font-size="10.00">cassert</text>
</a>
</g>
</g>
<!-- Node2&#45;&gt;Node3 -->
<g id="edge2_Node000002_Node000003" class="edge">
<title>Node2&#45;&gt;Node3</title>
<g id="a_edge2_Node000002_Node000003"><a xlink:title=" ">
<path fill="none" stroke="#63b8ff" d="M605.09,-373.8C617.33,-363.62 633.8,-349.93 646.38,-339.48"/>
<polygon fill="#63b8ff" stroke="#63b8ff" points="648.91,-341.93 654.36,-332.84 644.43,-336.54 648.91,-341.93"/>
</a>
</g>
</g>
<!-- Node4 -->
<g id="Node000004" class="node">
<title>Node4</title>
<g id="a_Node000004"><a xlink:title=" ">
<polygon fill="#e0e0e0" stroke="#999999" points="96,-19 56,-19 56,0 96,0 96,-19"/>
<text text-anchor="middle" x="76" y="-7" font-family="Helvetica,sans-Serif" font-size="10.00">span</text>
</a>
</g>
</g>
<!-- Node2&#45;&gt;Node4 -->
<g id="edge3_Node000002_Node000004" class="edge">
<title>Node2&#45;&gt;Node4</title>
<g id="a_edge3_Node000002_Node000004"><a xlink:title=" ">
<path fill="none" stroke="#63b8ff" d="M509.92,-386.91C349.97,-382.56 0,-361.24 0,-258 0,-258 0,-258 0,-124 0,-83.03 34.62,-45.66 57.13,-25.69"/>
<polygon fill="#63b8ff" stroke="#63b8ff" points="59.46,-28.31 64.79,-19.15 54.91,-22.99 59.46,-28.31"/>
</a>
</g>
</g>
<!-- Node5 -->
<g id="Node000005" class="node">
<title>Node5</title>
<g id="a_Node000005"><a xlink:title=" ">
<polygon fill="#e0e0e0" stroke="#999999" points="620.5,-332.5 555.5,-332.5 555.5,-313.5 620.5,-313.5 620.5,-332.5"/>
<text text-anchor="middle" x="588" y="-320.5" font-family="Helvetica,sans-Serif" font-size="10.00">stdexcept</text>
</a>
</g>
</g>
<!-- Node2&#45;&gt;Node5 -->
<g id="edge4_Node000002_Node000005" class="edge">
<title>Node2&#45;&gt;Node5</title>
<g id="a_edge4_Node000002_Node000005"><a xlink:title=" ">
<path fill="none" stroke="#63b8ff" d="M588,-373.8C588,-364.7 588,-352.79 588,-342.9"/>
<polygon fill="#63b8ff" stroke="#63b8ff" points="591.5,-342.84 588,-332.84 584.5,-342.84 591.5,-342.84"/>
</a>
</g>
</g>
<!-- Node6 -->
<g id="Node000006" class="node">
<title>Node6</title>
<g id="a_Node000006"><a xlink:href="GameLoopEventBus_8ixx.html" target="_top" xlink:title="Type&#45;safe event bus for inter&#45;system communication within the game loop.">
<polygon fill="white" stroke="#666666" points="537.5,-338 324.5,-338 324.5,-308 537.5,-308 537.5,-338"/>
<text text-anchor="start" x="332.5" y="-326" font-family="Helvetica,sans-Serif" font-size="10.00">helios.engine.runtime.messaging.event.</text>
<text text-anchor="middle" x="431" y="-315" font-family="Helvetica,sans-Serif" font-size="10.00">GameLoopEventBus</text>
</a>
</g>
</g>
<!-- Node2&#45;&gt;Node6 -->
<g id="edge5_Node000002_Node000006" class="edge">
<title>Node2&#45;&gt;Node6</title>
<g id="a_edge5_Node000002_Node000006"><a xlink:title=" ">
<path fill="none" stroke="#63b8ff" d="M553.55,-373.95C530.44,-364.53 499.8,-352.04 474.94,-341.91"/>
<polygon fill="#63b8ff" stroke="#63b8ff" points="475.96,-338.55 465.37,-338.01 473.31,-345.03 475.96,-338.55"/>
</a>
</g>
</g>
<!-- Node16 -->
<g id="Node000016" class="node">
<title>Node16</title>
<g id="a_Node000016"><a xlink:href="InputSnapshot_8ixx.html" target="_top" xlink:title="Immutable snapshot of input state at a specific point in time.">
<polygon fill="white" stroke="#666666" points="1028,-332.5 882,-332.5 882,-313.5 1028,-313.5 1028,-332.5"/>
<text text-anchor="middle" x="955" y="-320.5" font-family="Helvetica,sans-Serif" font-size="10.00">helios.input.InputSnapshot</text>
</a>
</g>
</g>
<!-- Node2&#45;&gt;Node16 -->
<g id="edge30_Node000002_Node000016" class="edge">
<title>Node2&#45;&gt;Node16</title>
<g id="a_edge30_Node000002_Node000016"><a xlink:title=" ">
<path fill="none" stroke="#63b8ff" d="M666.28,-374.35C735.08,-362.35 833.68,-345.16 896.01,-334.29"/>
<polygon fill="#63b8ff" stroke="#63b8ff" points="896.82,-337.7 906.07,-332.53 895.62,-330.8 896.82,-337.7"/>
</a>
</g>
</g>
<!-- Node7 -->
<g id="Node000007" class="node">
<title>Node7</title>
<g id="a_Node000007"><a xlink:href="TypeIndexedDoubleBuffer_8ixx.html" target="_top" xlink:title="Double&#45;buffered, type&#45;indexed message system for decoupled inter&#45;system communication.">
<polygon fill="white" stroke="#666666" points="486,-272 322,-272 322,-242 486,-242 486,-272"/>
<text text-anchor="start" x="330" y="-260" font-family="Helvetica,sans-Serif" font-size="10.00">helios.core.buffer.TypeIndexed</text>
<text text-anchor="middle" x="404" y="-249" font-family="Helvetica,sans-Serif" font-size="10.00">DoubleBuffer</text>
</a>
</g>
</g>
<!-- Node6&#45;&gt;Node7 -->
<g id="edge6_Node000006_Node000007" class="edge">
<title>Node6&#45;&gt;Node7</title>
<g id="a_edge6_Node000006_Node000007"><a xlink:title=" ">
<path fill="none" stroke="#63b8ff" d="M425.01,-307.8C421.76,-300.09 417.65,-290.37 413.94,-281.56"/>
<polygon fill="#63b8ff" stroke="#63b8ff" points="417.09,-280.02 409.98,-272.16 410.64,-282.74 417.09,-280.02"/>
</a>
</g>
</g>
<!-- Node14 -->
<g id="Node000014" class="node">
<title>Node14</title>
<g id="a_Node000014"><a xlink:href="TypeIndexer_8ixx.html" target="_top" xlink:title="Utility for generating unique type indices at runtime.">
<polygon fill="white" stroke="#666666" points="714,-200.5 558,-200.5 558,-181.5 714,-181.5 714,-200.5"/>
<text text-anchor="middle" x="636" y="-188.5" font-family="Helvetica,sans-Serif" font-size="10.00">helios.core.data.TypeIndexer</text>
</a>
</g>
</g>
<!-- Node6&#45;&gt;Node14 -->
<g id="edge29_Node000006_Node000014" class="edge">
<title>Node6&#45;&gt;Node14</title>
<g id="a_edge29_Node000006_Node000014"><a xlink:title=" ">
<path fill="none" stroke="#63b8ff" d="M453.33,-307.84C492.81,-282.8 574.5,-231 613.85,-206.04"/>
<polygon fill="#63b8ff" stroke="#63b8ff" points="615.89,-208.9 622.46,-200.59 612.14,-202.99 615.89,-208.9"/>
</a>
</g>
</g>
<!-- Node7&#45;&gt;Node4 -->
<g id="edge8_Node000007_Node000004" class="edge">
<title>Node7&#45;&gt;Node4</title>
<g id="a_edge8_Node000007_Node000004"><a xlink:title=" ">
<path fill="none" stroke="#63b8ff" d="M322,-250.57C277.36,-244.57 222.69,-232.05 180,-206 117.63,-167.94 106.08,-142.99 82,-74 76.98,-59.61 75.62,-42.33 75.44,-29.43"/>
<polygon fill="#63b8ff" stroke="#63b8ff" points="78.94,-29.44 75.52,-19.41 71.94,-29.38 78.94,-29.44"/>
</a>
</g>
</g>
<!-- Node8 -->
<g id="Node000008" class="node">
<title>Node8</title>
<g id="a_Node000008"><a xlink:title=" ">
<polygon fill="#e0e0e0" stroke="#999999" points="718,-74 660,-74 660,-55 718,-55 718,-74"/>
<text text-anchor="middle" x="689" y="-62" font-family="Helvetica,sans-Serif" font-size="10.00">memory</text>
</a>
</g>
</g>
<!-- Node7&#45;&gt;Node8 -->
<g id="edge7_Node000007_Node000008" class="edge">
<title>Node7&#45;&gt;Node8</title>
<g id="a_edge7_Node000007_Node000008"><a xlink:title=" ">
<path fill="none" stroke="#63b8ff" d="M429.68,-241.83C485.6,-210.97 613.48,-140.39 614,-140 637.29,-122.54 660.51,-98.11 674.81,-82.06"/>
<polygon fill="#63b8ff" stroke="#63b8ff" points="677.83,-83.93 681.78,-74.1 672.56,-79.32 677.83,-83.93"/>
</a>
</g>
</g>
<!-- Node9 -->
<g id="Node000009" class="node">
<title>Node9</title>
<g id="a_Node000009"><a xlink:title=" ">
<polygon fill="#e0e0e0" stroke="#999999" points="427.5,-19 380.5,-19 380.5,0 427.5,0 427.5,-19"/>
<text text-anchor="middle" x="404" y="-7" font-family="Helvetica,sans-Serif" font-size="10.00">vector</text>
</a>
</g>
</g>
<!-- Node7&#45;&gt;Node9 -->
<g id="edge9_Node000007_Node000009" class="edge">
<title>Node7&#45;&gt;Node9</title>
<g id="a_edge9_Node000007_Node000009"><a xlink:title=" ">
<path fill="none" stroke="#63b8ff" d="M404,-241.74C404,-199.76 404,-76.63 404,-29.32"/>
<polygon fill="#63b8ff" stroke="#63b8ff" points="407.5,-29.25 404,-19.25 400.5,-29.25 407.5,-29.25"/>
</a>
</g>
</g>
<!-- Node10 -->
<g id="Node000010" class="node">
<title>Node10</title>
<g id="a_Node000010"><a xlink:href="ReadWriteDoubleBuffer_8ixx.html" target="_top" xlink:title="Type&#45;safe double&#45;buffered container for producer&#45;consumer patterns.">
<polygon fill="white" stroke="#666666" points="375.5,-206 220.5,-206 220.5,-176 375.5,-176 375.5,-206"/>
<text text-anchor="start" x="228.5" y="-194" font-family="Helvetica,sans-Serif" font-size="10.00">helios.core.buffer.ReadWrite</text>
<text text-anchor="middle" x="298" y="-183" font-family="Helvetica,sans-Serif" font-size="10.00">DoubleBuffer</text>
</a>
</g>
</g>
<!-- Node7&#45;&gt;Node10 -->
<g id="edge10_Node000007_Node000010" class="edge">
<title>Node7&#45;&gt;Node10</title>
<g id="a_edge10_Node000007_Node000010"><a xlink:title=" ">
<path fill="none" stroke="#63b8ff" d="M380.74,-241.95C365.83,-232.95 346.27,-221.14 329.91,-211.27"/>
<polygon fill="#63b8ff" stroke="#63b8ff" points="331.58,-208.18 321.21,-206.01 327.96,-214.18 331.58,-208.18"/>
</a>
</g>
</g>
<!-- Node11 -->
<g id="Node000011" class="node">
<title>Node11</title>
<g id="a_Node000011"><a xlink:href="ReadBuffer_8ixx.html" target="_top" xlink:title="Read&#45;only buffer for the double&#45;buffering pattern.">
<polygon fill="white" stroke="#666666" points="262,-74 104,-74 104,-55 262,-55 262,-74"/>
<text text-anchor="middle" x="183" y="-62" font-family="Helvetica,sans-Serif" font-size="10.00">helios.core.buffer.ReadBuffer</text>
</a>
</g>
</g>
<!-- Node7&#45;&gt;Node11 -->
<g id="edge24_Node000007_Node000011" class="edge">
<title>Node7&#45;&gt;Node11</title>
<g id="a_edge24_Node000007_Node000011"><a xlink:title=" ">
<path fill="none" stroke="#63b8ff" d="M321.79,-244.07C273.87,-235.54 219.52,-222.64 202,-206 168.76,-174.44 173.83,-114.45 179.06,-84.09"/>
<polygon fill="#63b8ff" stroke="#63b8ff" points="182.54,-84.51 180.99,-74.03 175.67,-83.19 182.54,-84.51"/>
</a>
</g>
</g>
<!-- Node12 -->
<g id="Node000012" class="node">
<title>Node12</title>
<g id="a_Node000012"><a xlink:href="WriteBuffer_8ixx.html" target="_top" xlink:title="Write&#45;only buffer for the double&#45;buffering pattern.">
<polygon fill="white" stroke="#666666" points="338,-140 208,-140 208,-110 338,-110 338,-140"/>
<text text-anchor="start" x="216" y="-128" font-family="Helvetica,sans-Serif" font-size="10.00">helios.core.buffer.Write</text>
<text text-anchor="middle" x="273" y="-117" font-family="Helvetica,sans-Serif" font-size="10.00">Buffer</text>
</a>
</g>
</g>
<!-- Node7&#45;&gt;Node12 -->
<g id="edge26_Node000007_Node000012" class="edge">
<title>Node7&#45;&gt;Node12</title>
<g id="a_edge26_Node000007_Node000012"><a xlink:title=" ">
<path fill="none" stroke="#63b8ff" d="M321.86,-244.89C275.86,-236.79 224.98,-224.07 211,-206 195.17,-185.55 218.04,-162.16 240.34,-145.99"/>
<polygon fill="#63b8ff" stroke="#63b8ff" points="242.54,-148.72 248.78,-140.16 238.56,-142.96 242.54,-148.72"/>
</a>
</g>
</g>
<!-- Node13 -->
<g id="Node000013" class="node">
<title>Node13</title>
<g id="a_Node000013"><a xlink:href="DoubleBuffer_8ixx.html" target="_top" xlink:title="Double&#45;buffered, type&#45;indexed message system for decoupled inter&#45;system communication.">
<polygon fill="white" stroke="#666666" points="570,-140 432,-140 432,-110 570,-110 570,-140"/>
<text text-anchor="start" x="440" y="-128" font-family="Helvetica,sans-Serif" font-size="10.00">helios.core.buffer.Double</text>
<text text-anchor="middle" x="501" y="-117" font-family="Helvetica,sans-Serif" font-size="10.00">Buffer</text>
</a>
</g>
</g>
<!-- Node7&#45;&gt;Node13 -->
<g id="edge25_Node000007_Node000013" class="edge">
<title>Node7&#45;&gt;Node13</title>
<g id="a_edge25_Node000007_Node000013"><a xlink:title=" ">
<path fill="none" stroke="#63b8ff" d="M414.57,-241.84C431.4,-219.28 464.45,-174.98 484.45,-148.18"/>
<polygon fill="#63b8ff" stroke="#63b8ff" points="487.27,-150.25 490.45,-140.14 481.66,-146.06 487.27,-150.25"/>
</a>
</g>
</g>
<!-- Node7&#45;&gt;Node14 -->
<g id="edge27_Node000007_Node000014" class="edge">
<title>Node7&#45;&gt;Node14</title>
<g id="a_edge27_Node000007_Node000014"><a xlink:title=" ">
<path fill="none" stroke="#63b8ff" d="M454.91,-241.95C497.03,-230.34 556.08,-214.05 595.15,-203.27"/>
<polygon fill="#63b8ff" stroke="#63b8ff" points="596.42,-206.55 605.12,-200.52 594.55,-199.8 596.42,-206.55"/>
</a>
</g>
</g>
<!-- Node10&#45;&gt;Node4 -->
<g id="edge12_Node000010_Node000004" class="edge">
<title>Node10&#45;&gt;Node4</title>
<g id="a_edge12_Node000010_Node000004"><a xlink:title=" ">
<path fill="none" stroke="#63b8ff" d="M249.82,-175.97C202.49,-159.54 132.12,-127.54 95,-74 85.68,-60.55 80.85,-42.46 78.4,-29.02"/>
<polygon fill="#63b8ff" stroke="#63b8ff" points="81.84,-28.38 76.85,-19.04 74.92,-29.45 81.84,-28.38"/>
</a>
</g>
</g>
<!-- Node10&#45;&gt;Node8 -->
<g id="edge11_Node000010_Node000008" class="edge">
<title>Node10&#45;&gt;Node8</title>
<g id="a_edge11_Node000010_Node000008"><a xlink:title=" ">
<path fill="none" stroke="#63b8ff" d="M375.65,-185.22C433.53,-179.54 513.53,-167.11 579,-140 600.53,-131.08 602.74,-123.11 622,-110 637.01,-99.78 654.05,-88.47 667.19,-79.8"/>
<polygon fill="#63b8ff" stroke="#63b8ff" points="669.16,-82.7 675.59,-74.28 665.31,-76.85 669.16,-82.7"/>
</a>
</g>
</g>
<!-- Node10&#45;&gt;Node9 -->
<g id="edge13_Node000010_Node000009" class="edge">
<title>Node10&#45;&gt;Node9</title>
<g id="a_edge13_Node000010_Node000009"><a xlink:title=" ">
<path fill="none" stroke="#63b8ff" d="M314.56,-175.95C324.87,-166.55 337.87,-153.49 347,-140 371.58,-103.69 389.59,-55.05 398.25,-28.94"/>
<polygon fill="#63b8ff" stroke="#63b8ff" points="401.64,-29.81 401.38,-19.22 394.98,-27.67 401.64,-29.81"/>
</a>
</g>
</g>
<!-- Node10&#45;&gt;Node11 -->
<g id="edge14_Node000010_Node000011" class="edge">
<title>Node10&#45;&gt;Node11</title>
<g id="a_edge14_Node000010_Node000011"><a xlink:title=" ">
<path fill="none" stroke="#63b8ff" d="M250.24,-175.91C231.68,-168.15 211.82,-156.61 199,-140 186.77,-124.16 183.41,-101.02 182.7,-84.75"/>
<polygon fill="#63b8ff" stroke="#63b8ff" points="186.2,-84.26 182.57,-74.31 179.2,-84.35 186.2,-84.26"/>
</a>
</g>
</g>
<!-- Node10&#45;&gt;Node12 -->
<g id="edge17_Node000010_Node000012" class="edge">
<title>Node10&#45;&gt;Node12</title>
<g id="a_edge17_Node000010_Node000012"><a xlink:title=" ">
<path fill="none" stroke="#63b8ff" d="M292.45,-175.8C289.44,-168.09 285.64,-158.37 282.2,-149.56"/>
<polygon fill="#63b8ff" stroke="#63b8ff" points="285.43,-148.21 278.53,-140.16 278.91,-150.75 285.43,-148.21"/>
</a>
</g>
</g>
<!-- Node10&#45;&gt;Node13 -->
<g id="edge20_Node000010_Node000013" class="edge">
<title>Node10&#45;&gt;Node13</title>
<g id="a_edge20_Node000010_Node000013"><a xlink:title=" ">
<path fill="none" stroke="#63b8ff" d="M342.55,-175.95C373.22,-166.28 414.16,-153.38 446.73,-143.11"/>
<polygon fill="#63b8ff" stroke="#63b8ff" points="448.07,-146.36 456.55,-140.01 445.97,-139.68 448.07,-146.36"/>
</a>
</g>
</g>
<!-- Node11&#45;&gt;Node4 -->
<g id="edge15_Node000011_Node000004" class="edge">
<title>Node11&#45;&gt;Node4</title>
<g id="a_edge15_Node000011_Node000004"><a xlink:title=" ">
<path fill="none" stroke="#63b8ff" d="M165.81,-54.98C148.75,-46.54 122.37,-33.47 102.6,-23.68"/>
<polygon fill="#63b8ff" stroke="#63b8ff" points="104.02,-20.47 93.5,-19.17 100.91,-26.75 104.02,-20.47"/>
</a>
</g>
</g>
<!-- Node11&#45;&gt;Node9 -->
<g id="edge16_Node000011_Node000009" class="edge">
<title>Node11&#45;&gt;Node9</title>
<g id="a_edge16_Node000011_Node000009"><a xlink:title=" ">
<path fill="none" stroke="#63b8ff" d="M218.51,-54.98C260.46,-44.92 329.73,-28.31 370.7,-18.49"/>
<polygon fill="#63b8ff" stroke="#63b8ff" points="371.56,-21.88 380.47,-16.14 369.93,-15.07 371.56,-21.88"/>
</a>
</g>
</g>
<!-- Node12&#45;&gt;Node9 -->
<g id="edge18_Node000012_Node000009" class="edge">
<title>Node12&#45;&gt;Node9</title>
<g id="a_edge18_Node000012_Node000009"><a xlink:title=" ">
<path fill="none" stroke="#63b8ff" d="M289,-109.94C304.93,-95.97 330.1,-73.94 352,-55 363.38,-45.16 376.21,-34.18 386.29,-25.58"/>
<polygon fill="#63b8ff" stroke="#63b8ff" points="388.67,-28.15 394.01,-19 384.13,-22.83 388.67,-28.15"/>
</a>
</g>
</g>
<!-- Node12&#45;&gt;Node11 -->
<g id="edge19_Node000012_Node000011" class="edge">
<title>Node12&#45;&gt;Node11</title>
<g id="a_edge19_Node000012_Node000011"><a xlink:title=" ">
<path fill="none" stroke="#63b8ff" d="M251.21,-109.84C237.13,-100.68 218.87,-88.82 204.79,-79.66"/>
<polygon fill="#63b8ff" stroke="#63b8ff" points="206.51,-76.61 196.22,-74.09 202.7,-82.48 206.51,-76.61"/>
</a>
</g>
</g>
<!-- Node13&#45;&gt;Node4 -->
<g id="edge22_Node000013_Node000004" class="edge">
<title>Node13&#45;&gt;Node4</title>
<g id="a_edge22_Node000013_Node000004"><a xlink:title=" ">
<path fill="none" stroke="#63b8ff" d="M457.16,-109.89C411.06,-95.28 336.3,-72.23 271,-55 212.99,-39.7 144.47,-24.78 106.05,-16.7"/>
<polygon fill="#63b8ff" stroke="#63b8ff" points="106.54,-13.23 96.04,-14.61 105.11,-20.08 106.54,-13.23"/>
</a>
</g>
</g>
<!-- Node13&#45;&gt;Node8 -->
<g id="edge21_Node000013_Node000008" class="edge">
<title>Node13&#45;&gt;Node8</title>
<g id="a_edge21_Node000013_Node000008"><a xlink:title=" ">
<path fill="none" stroke="#63b8ff" d="M546.03,-109.99C578.34,-99.94 621.34,-86.55 651.73,-77.1"/>
<polygon fill="#63b8ff" stroke="#63b8ff" points="653,-80.37 661.51,-74.05 650.92,-73.68 653,-80.37"/>
</a>
</g>
</g>
<!-- Node13&#45;&gt;Node9 -->
<g id="edge23_Node000013_Node000009" class="edge">
<title>Node13&#45;&gt;Node9</title>
<g id="a_edge23_Node000013_Node000009"><a xlink:title=" ">
<path fill="none" stroke="#63b8ff" d="M488.71,-109.63C470.71,-88.56 437.25,-49.4 418.21,-27.13"/>
<polygon fill="#63b8ff" stroke="#63b8ff" points="420.62,-24.56 411.46,-19.23 415.3,-29.11 420.62,-24.56"/>
</a>
</g>
</g>
<!-- Node15 -->
<g id="Node000015" class="node">
<title>Node15</title>
<g id="a_Node000015"><a xlink:title=" ">
<polygon fill="#e0e0e0" stroke="#999999" points="714,-134.5 664,-134.5 664,-115.5 714,-115.5 714,-134.5"/>
<text text-anchor="middle" x="689" y="-122.5" font-family="Helvetica,sans-Serif" font-size="10.00">atomic</text>
</a>
</g>
</g>
<!-- Node14&#45;&gt;Node15 -->
<g id="edge28_Node000014_Node000015" class="edge">
<title>Node14&#45;&gt;Node15</title>
<g id="a_edge28_Node000014_Node000015"><a xlink:title=" ">
<path fill="none" stroke="#63b8ff" d="M643.15,-181.37C651.32,-171.5 664.89,-155.11 675.16,-142.72"/>
<polygon fill="#63b8ff" stroke="#63b8ff" points="677.94,-144.84 681.63,-134.91 672.55,-140.37 677.94,-144.84"/>
</a>
</g>
</g>
<!-- Node17 -->
<g id="Node000017" class="node">
<title>Node17</title>
<g id="a_Node000017"><a xlink:href="GamepadState_8ixx.html" target="_top" xlink:title="Representation of current gamepad input state.">
<polygon fill="white" stroke="#666666" points="1136.5,-272 963.5,-272 963.5,-242 1136.5,-242 1136.5,-272"/>
<text text-anchor="start" x="971.5" y="-260" font-family="Helvetica,sans-Serif" font-size="10.00">helios.input.gamepad.Gamepad</text>
<text text-anchor="middle" x="1050" y="-249" font-family="Helvetica,sans-Serif" font-size="10.00">State</text>
</a>
</g>
</g>
<!-- Node16&#45;&gt;Node17 -->
<g id="edge31_Node000016_Node000017" class="edge">
<title>Node16&#45;&gt;Node17</title>
<g id="a_edge31_Node000016_Node000017"><a xlink:title=" ">
<path fill="none" stroke="#63b8ff" d="M967.81,-313.37C981.3,-304.28 1003.01,-289.66 1020.72,-277.72"/>
<polygon fill="#63b8ff" stroke="#63b8ff" points="1022.71,-280.61 1029.05,-272.12 1018.8,-274.8 1022.71,-280.61"/>
</a>
</g>
</g>
<!-- Node18 -->
<g id="Node000018" class="node">
<title>Node18</title>
<g id="a_Node000018"><a xlink:href="LogManager_8ixx.html" target="_top" xlink:title="Central manager for scoped loggers with configurable sinks.">
<polygon fill="white" stroke="#666666" points="1107,-200.5 961,-200.5 961,-181.5 1107,-181.5 1107,-200.5"/>
<text text-anchor="middle" x="1034" y="-188.5" font-family="Helvetica,sans-Serif" font-size="10.00">helios.util.log.LogManager</text>
</a>
</g>
</g>
<!-- Node17&#45;&gt;Node18 -->
<g id="edge32_Node000017_Node000018" class="edge">
<title>Node17&#45;&gt;Node18</title>
<g id="a_edge32_Node000017_Node000018"><a xlink:title=" ">
<path fill="none" stroke="#63b8ff" d="M1046.45,-241.8C1044.15,-232.6 1041.13,-220.53 1038.64,-210.58"/>
<polygon fill="#63b8ff" stroke="#63b8ff" points="1042.03,-209.7 1036.21,-200.84 1035.24,-211.39 1042.03,-209.7"/>
</a>
</g>
</g>
<!-- Node23 -->
<g id="Node000023" class="node">
<title>Node23</title>
<g id="a_Node000023"><a xlink:href="Logger_8ixx.html" target="_top" xlink:title="Simple synchronous logger with configurable output sinks.">
<polygon fill="white" stroke="#666666" points="1219.5,-134.5 1100.5,-134.5 1100.5,-115.5 1219.5,-115.5 1219.5,-134.5"/>
<text text-anchor="middle" x="1160" y="-122.5" font-family="Helvetica,sans-Serif" font-size="10.00">helios.util.log.Logger</text>
</a>
</g>
</g>
<!-- Node17&#45;&gt;Node23 -->
<g id="edge47_Node000017_Node000023" class="edge">
<title>Node17&#45;&gt;Node23</title>
<g id="a_edge47_Node000017_Node000023"><a xlink:title=" ">
<path fill="none" stroke="#63b8ff" d="M1073.35,-241.86C1086.95,-232.81 1103.78,-220.14 1116,-206 1132.31,-187.13 1145.19,-161.23 1152.7,-144.08"/>
<polygon fill="#63b8ff" stroke="#63b8ff" points="1156.01,-145.24 1156.66,-134.67 1149.55,-142.52 1156.01,-145.24"/>
</a>
</g>
</g>
<!-- Node17&#45;&gt;Node25 -->
<g id="edge48_Node000017_Node000025" class="edge">
<title>Node17&#45;&gt;Node25</title>
<g id="a_edge48_Node000017_Node000025"><a xlink:title=" ">
<path fill="none" stroke="#63b8ff" d="M1086.21,-241.95C1115.27,-230.68 1155.67,-215.01 1183.43,-204.25"/>
<polygon fill="#63b8ff" stroke="#63b8ff" points="1184.98,-207.4 1193.04,-200.52 1182.45,-200.87 1184.98,-207.4"/>
</a>
</g>
</g>
<!-- Node18&#45;&gt;Node8 -->
<g id="edge36_Node000018_Node000008" class="edge">
<title>Node18&#45;&gt;Node8</title>
<g id="a_edge36_Node000018_Node000008"><a xlink:title=" ">
<path fill="none" stroke="#63b8ff" d="M960.88,-181.8C913.58,-174.72 851.46,-162.03 800,-140 778.24,-130.69 775.64,-123.21 756,-110 740.94,-99.86 723.9,-88.55 710.77,-79.86"/>
<polygon fill="#63b8ff" stroke="#63b8ff" points="712.65,-76.91 702.38,-74.32 708.79,-82.75 712.65,-76.91"/>
</a>
</g>
</g>
<!-- Node18&#45;&gt;Node9 -->
<g id="edge38_Node000018_Node000009" class="edge">
<title>Node18&#45;&gt;Node9</title>
<g id="a_edge38_Node000018_Node000009"><a xlink:title=" ">
<path fill="none" stroke="#63b8ff" d="M1034.75,-181.05C1035.59,-164.47 1034.81,-128.94 1015,-110 931.02,-29.68 552.94,-14.06 437.55,-11.14"/>
<polygon fill="#63b8ff" stroke="#63b8ff" points="437.6,-7.64 427.52,-10.9 437.44,-14.64 437.6,-7.64"/>
</a>
</g>
</g>
<!-- Node19 -->
<g id="Node000019" class="node">
<title>Node19</title>
<g id="a_Node000019"><a xlink:title=" ">
<polygon fill="#e0e0e0" stroke="#999999" points="1274,-19 1230,-19 1230,0 1274,0 1274,-19"/>
<text text-anchor="middle" x="1252" y="-7" font-family="Helvetica,sans-Serif" font-size="10.00">string</text>
</a>
</g>
</g>
<!-- Node18&#45;&gt;Node19 -->
<g id="edge33_Node000018_Node000019" class="edge">
<title>Node18&#45;&gt;Node19</title>
<g id="a_edge33_Node000018_Node000019"><a xlink:title=" ">
<path fill="none" stroke="#63b8ff" d="M1107.13,-182.67C1150.83,-176.02 1206.35,-163.49 1251,-140 1294.82,-116.95 1346.97,-98.32 1323,-55 1314.51,-39.65 1298.26,-28.89 1283.45,-21.8"/>
<polygon fill="#63b8ff" stroke="#63b8ff" points="1284.59,-18.47 1274.02,-17.66 1281.77,-24.88 1284.59,-18.47"/>
</a>
</g>
</g>
<!-- Node20 -->
<g id="Node000020" class="node">
<title>Node20</title>
<g id="a_Node000020"><a xlink:title=" ">
<polygon fill="#e0e0e0" stroke="#999999" points="901.5,-134.5 808.5,-134.5 808.5,-115.5 901.5,-115.5 901.5,-134.5"/>
<text text-anchor="middle" x="855" y="-122.5" font-family="Helvetica,sans-Serif" font-size="10.00">unordered_map</text>
</a>
</g>
</g>
<!-- Node18&#45;&gt;Node20 -->
<g id="edge34_Node000018_Node000020" class="edge">
<title>Node18&#45;&gt;Node20</title>
<g id="a_edge34_Node000018_Node000020"><a xlink:title=" ">
<path fill="none" stroke="#63b8ff" d="M1009.86,-181.37C978.68,-170.22 924.23,-150.75 888.9,-138.12"/>
<polygon fill="#63b8ff" stroke="#63b8ff" points="889.64,-134.67 879.04,-134.6 887.28,-141.26 889.64,-134.67"/>
</a>
</g>
</g>
<!-- Node21 -->
<g id="Node000021" class="node">
<title>Node21</title>
<g id="a_Node000021"><a xlink:title=" ">
<polygon fill="#e0e0e0" stroke="#999999" points="1006,-134.5 920,-134.5 920,-115.5 1006,-115.5 1006,-134.5"/>
<text text-anchor="middle" x="963" y="-122.5" font-family="Helvetica,sans-Serif" font-size="10.00">unordered_set</text>
</a>
</g>
</g>
<!-- Node18&#45;&gt;Node21 -->
<g id="edge35_Node000018_Node000021" class="edge">
<title>Node18&#45;&gt;Node21</title>
<g id="a_edge35_Node000018_Node000021"><a xlink:title=" ">
<path fill="none" stroke="#63b8ff" d="M1024.42,-181.37C1013.16,-171.21 994.24,-154.16 980.37,-141.65"/>
<polygon fill="#63b8ff" stroke="#63b8ff" points="982.65,-139 972.88,-134.91 977.96,-144.2 982.65,-139"/>
</a>
</g>
</g>
<!-- Node22 -->
<g id="Node000022" class="node">
<title>Node22</title>
<g id="a_Node000022"><a xlink:title=" ">
<polygon fill="#e0e0e0" stroke="#999999" points="1096,-74 1048,-74 1048,-55 1096,-55 1096,-74"/>
<text text-anchor="middle" x="1072" y="-62" font-family="Helvetica,sans-Serif" font-size="10.00">mutex</text>
</a>
</g>
</g>
<!-- Node18&#45;&gt;Node22 -->
<g id="edge37_Node000018_Node000022" class="edge">
<title>Node18&#45;&gt;Node22</title>
<g id="a_edge37_Node000018_Node000022"><a xlink:title=" ">
<path fill="none" stroke="#63b8ff" d="M1036.61,-181.44C1042.71,-161.45 1058.02,-111.32 1066.36,-83.98"/>
<polygon fill="#63b8ff" stroke="#63b8ff" points="1069.8,-84.7 1069.37,-74.12 1063.1,-82.66 1069.8,-84.7"/>
</a>
</g>
</g>
<!-- Node18&#45;&gt;Node23 -->
<g id="edge39_Node000018_Node000023" class="edge">
<title>Node18&#45;&gt;Node23</title>
<g id="a_edge39_Node000018_Node000023"><a xlink:title=" ">
<path fill="none" stroke="#63b8ff" d="M1050.99,-181.37C1072.22,-170.59 1108.78,-152.02 1133.65,-139.38"/>
<polygon fill="#63b8ff" stroke="#63b8ff" points="1135.54,-142.35 1142.87,-134.7 1132.37,-136.11 1135.54,-142.35"/>
</a>
</g>
</g>
<!-- Node24 -->
<g id="Node000024" class="node">
<title>Node24</title>
<g id="a_Node000024"><a xlink:href="LogSink_8ixx.html" target="_top" xlink:title="Abstract interface for log output destinations.">
<polygon fill="white" stroke="#666666" points="1314,-74 1190,-74 1190,-55 1314,-55 1314,-74"/>
<text text-anchor="middle" x="1252" y="-62" font-family="Helvetica,sans-Serif" font-size="10.00">helios.util.log.LogSink</text>
</a>
</g>
</g>
<!-- Node18&#45;&gt;Node24 -->
<g id="edge46_Node000018_Node000024" class="edge">
<title>Node18&#45;&gt;Node24</title>
<g id="a_edge46_Node000018_Node000024"><a xlink:title=" ">
<path fill="none" stroke="#63b8ff" d="M1092.44,-181.44C1142.47,-172.98 1209.45,-158.62 1229,-140 1244.13,-125.59 1249.38,-101.46 1251.16,-84.59"/>
<polygon fill="#63b8ff" stroke="#63b8ff" points="1254.67,-84.49 1251.92,-74.26 1247.69,-83.98 1254.67,-84.49"/>
</a>
</g>
</g>
<!-- Node23&#45;&gt;Node8 -->
<g id="edge42_Node000023_Node000008" class="edge">
<title>Node23&#45;&gt;Node8</title>
<g id="a_edge42_Node000023_Node000008"><a xlink:title=" ">
<path fill="none" stroke="#63b8ff" d="M1100.35,-116.59C1002.54,-104.44 810.73,-80.62 728.24,-70.37"/>
<polygon fill="#63b8ff" stroke="#63b8ff" points="728.63,-66.9 718.27,-69.14 727.77,-73.84 728.63,-66.9"/>
</a>
</g>
</g>
<!-- Node23&#45;&gt;Node9 -->
<g id="edge41_Node000023_Node000009" class="edge">
<title>Node23&#45;&gt;Node9</title>
<g id="a_edge41_Node000023_Node000009"><a xlink:title=" ">
<path fill="none" stroke="#63b8ff" d="M1156.06,-115.29C1148.6,-99.95 1130.81,-68.46 1105,-55 1045.51,-23.98 570.29,-13.41 438.05,-11.05"/>
<polygon fill="#63b8ff" stroke="#63b8ff" points="437.78,-7.55 427.72,-10.87 437.66,-14.54 437.78,-7.55"/>
</a>
</g>
</g>
<!-- Node23&#45;&gt;Node19 -->
<g id="edge40_Node000023_Node000019" class="edge">
<title>Node23&#45;&gt;Node19</title>
<g id="a_edge40_Node000023_Node000019"><a xlink:title=" ">
<path fill="none" stroke="#63b8ff" d="M1160.68,-115.49C1162.17,-101.54 1166.85,-73.5 1181,-55 1191.34,-41.48 1207.06,-31.03 1221.08,-23.66"/>
<polygon fill="#63b8ff" stroke="#63b8ff" points="1223.01,-26.61 1230.43,-19.05 1219.91,-20.33 1223.01,-26.61"/>
</a>
</g>
</g>
<!-- Node23&#45;&gt;Node22 -->
<g id="edge43_Node000023_Node000022" class="edge">
<title>Node23&#45;&gt;Node22</title>
<g id="a_edge43_Node000023_Node000022"><a xlink:title=" ">
<path fill="none" stroke="#63b8ff" d="M1147.02,-115.37C1132.98,-106.04 1110.37,-91.01 1093.64,-79.88"/>
<polygon fill="#63b8ff" stroke="#63b8ff" points="1095.3,-76.79 1085.04,-74.17 1091.43,-82.62 1095.3,-76.79"/>
</a>
</g>
</g>
<!-- Node23&#45;&gt;Node24 -->
<g id="edge44_Node000023_Node000024" class="edge">
<title>Node23&#45;&gt;Node24</title>
<g id="a_edge44_Node000023_Node000024"><a xlink:title=" ">
<path fill="none" stroke="#63b8ff" d="M1173.57,-115.37C1188.39,-105.95 1212.33,-90.73 1229.86,-79.58"/>
<polygon fill="#63b8ff" stroke="#63b8ff" points="1231.81,-82.49 1238.37,-74.17 1228.05,-76.58 1231.81,-82.49"/>
</a>
</g>
</g>
<!-- Node24&#45;&gt;Node19 -->
<g id="edge45_Node000024_Node000019" class="edge">
<title>Node24&#45;&gt;Node19</title>
<g id="a_edge45_Node000024_Node000019"><a xlink:title=" ">
<path fill="none" stroke="#63b8ff" d="M1252,-54.75C1252,-47.8 1252,-37.85 1252,-29.13"/>
<polygon fill="#63b8ff" stroke="#63b8ff" points="1255.5,-29.09 1252,-19.09 1248.5,-29.09 1255.5,-29.09"/>
</a>
</g>
</g>
<!-- Node25&#45;&gt;Node25 -->
<g id="edge49_Node000025_Node000025" class="edge">
<title>Node25&#45;&gt;Node25</title>
<g id="a_edge49_Node000025_Node000025"><a xlink:title=" ">
<path fill="none" stroke="#63b8ff" d="M1236.86,-200.56C1259.56,-206.37 1285,-203.18 1285,-191 1285,-180.58 1266.39,-176.74 1246.79,-179.48"/>
<polygon fill="#63b8ff" stroke="#63b8ff" points="1246,-176.07 1236.86,-181.44 1247.35,-182.94 1246,-176.07"/>
</a>
</g>
</g>
<!-- Node26&#45;&gt;Node8 -->
<g id="edge51_Node000026_Node000008" class="edge">
<title>Node26&#45;&gt;Node8</title>
<g id="a_edge51_Node000026_Node000008"><a xlink:title=" ">
<path fill="none" stroke="#63b8ff" d="M762.36,-379.27C756.32,-358.47 742,-304.3 742,-258 742,-258 742,-258 742,-190 742,-153.46 738.66,-143.02 723,-110 718.23,-99.94 710.92,-89.97 704.3,-82.02"/>
<polygon fill="#63b8ff" stroke="#63b8ff" points="706.75,-79.52 697.54,-74.29 701.48,-84.12 706.75,-79.52"/>
</a>
</g>
</g>
</g>
</svg>

<g id="navigator" transform="translate(0 0)" fill="#404254">
  <rect fill="#f2f5e9" fill-opacity="0.5" stroke="#606060" stroke-width=".5" x="0" y="0" width="60" height="60"/>
  <use id="zoomplus" xlink:href="#zoomPlus" x="17" y="9" onmousedown="handleZoom(evt,'in')"/>
  <use id="zoomminus" xlink:href="#zoomMin" x="42" y="9" onmousedown="handleZoom(evt,'out')"/>
  <use id="reset" xlink:href="#resetDef" x="30" y="36" onmousedown="handleReset()"/>
   <use id="arrowup" xlink:href="#arrowUp" x="0" y="0" onmousedown="handlePan(0,-1)"/>
  <use id="arrowright" xlink:href="#arrowRight" x="0" y="0" onmousedown="handlePan(1,0)"/>
  <use id="arrowdown" xlink:href="#arrowDown" x="0" y="0" onmousedown="handlePan(0,1)"/>
  <use id="arrowleft" xlink:href="#arrowLeft" x="0" y="0" onmousedown="handlePan(-1,0)"/>
</g>
<svg viewBox="0 0 15 15" width="100%" height="30px" preserveAspectRatio="xMaxYMin meet">
 <g id="arrow_out" transform="scale(0.3 0.3)">
  <a xlink:href="Aim2DComponent_8ixx__incl_org.svg" target="_base">
   <rect id="button" ry="5" rx="5" y="6" x="6" height="38" width="38"
        fill="#f2f5e9" fill-opacity="0.5" stroke="#606060" stroke-width="1.0"/>
   <path id="arrow"
     d="M 11.500037,31.436501 C 11.940474,20.09759 22.043105,11.32322 32.158766,21.979434 L 37.068811,17.246167 C 37.068811,17.246167 37.088388,32 37.088388,32 L 22.160133,31.978069 C 22.160133,31.978069 26.997745,27.140456 26.997745,27.140456 C 18.528582,18.264221 13.291696,25.230495 11.500037,31.436501 z"
     style="fill:#404040;"/>
  </a>
 </g>
</svg>

<style type='text/css'>
<![CDATA[
[data-mouse-over-selected='false'] { opacity: 0.7; }
[data-mouse-over-selected='true']  { opacity: 1.0; }
]]>
</style>
<script type="application/ecmascript"><![CDATA[
document.addEventListener('DOMContentLoaded', (event) => {
  highlightEdges();
  highlightAdjacentNodes();
});
]]></script>
</svg>
