<?xml version="1.0" encoding="UTF-8" standalone="no"?>
<!DOCTYPE svg PUBLIC "-//W3C//DTD SVG 1.1//EN"
 "http://www.w3.org/Graphics/SVG/1.1/DTD/svg11.dtd">
<!-- Generated by graphviz version 2.43.0 (0)
 -->
<!-- Title: include/helios/engine/game/components/gameplay/Aim2DComponent.ixx Pages: 1 -->
<svg width="858pt" height="467pt"
 viewBox="0.00 0.00 857.77 467.00" xmlns="http://www.w3.org/2000/svg" xmlns:xlink="http://www.w3.org/1999/xlink">
<g id="graph0" class="graph" transform="scale(1 1) rotate(0) translate(4 463)">
<title>include/helios/engine/game/components/gameplay/Aim2DComponent.ixx</title>
<!-- Node1 -->
<g id="Node000001" class="node">
<title>Node1</title>
<g id="a_Node000001"><a xlink:title="Component for handling 2D aiming direction.">
<polygon fill="#999999" stroke="#666666" points="703.08,-459 541.08,-459 541.08,-418 703.08,-418 703.08,-459"/>
<text text-anchor="start" x="549.08" y="-447" font-family="Helvetica,sans-Serif" font-size="10.00">include/helios/engine</text>
<text text-anchor="start" x="549.08" y="-436" font-family="Helvetica,sans-Serif" font-size="10.00">/game/components/gameplay</text>
<text text-anchor="middle" x="622.08" y="-425" font-family="Helvetica,sans-Serif" font-size="10.00">/Aim2DComponent.ixx</text>
</a>
</g>
</g>
<!-- Node2 -->
<g id="Node000002" class="node">
<title>Node2</title>
<g id="a_Node000002"><a xlink:href="Component_8ixx.html" target="_top" xlink:title="Base class for components attached to GameObjects.">
<polygon fill="white" stroke="#666666" points="528.08,-376.5 356.08,-376.5 356.08,-357.5 528.08,-357.5 528.08,-376.5"/>
<text text-anchor="middle" x="442.08" y="-364.5" font-family="Helvetica,sans-Serif" font-size="10.00">helios.engine.game.Component</text>
</a>
</g>
</g>
<!-- Node1&#45;&gt;Node2 -->
<g id="edge1_Node000001_Node000002" class="edge">
<title>Node1&#45;&gt;Node2</title>
<g id="a_edge1_Node000001_Node000002"><a xlink:title=" ">
<path fill="none" stroke="#63b8ff" d="M571.46,-417.96C539.97,-405.8 500.47,-390.55 473.45,-380.11"/>
<polygon fill="#63b8ff" stroke="#63b8ff" points="474.69,-376.84 464.1,-376.5 472.17,-383.37 474.69,-376.84"/>
</a>
</g>
</g>
<!-- Node3 -->
<g id="Node000003" class="node">
<title>Node3</title>
<g id="a_Node000003"><a xlink:href="UpdateContext_8ixx.html" target="_top" xlink:title="Context struct passed to components during per&#45;frame updates.">
<polygon fill="white" stroke="#666666" points="697.58,-382 546.58,-382 546.58,-352 697.58,-352 697.58,-382"/>
<text text-anchor="start" x="554.58" y="-370" font-family="Helvetica,sans-Serif" font-size="10.00">helios.engine.game.Update</text>
<text text-anchor="middle" x="622.08" y="-359" font-family="Helvetica,sans-Serif" font-size="10.00">Context</text>
</a>
</g>
</g>
<!-- Node1&#45;&gt;Node3 -->
<g id="edge2_Node000001_Node000003" class="edge">
<title>Node1&#45;&gt;Node3</title>
<g id="a_edge2_Node000001_Node000003"><a xlink:title=" ">
<path fill="none" stroke="#63b8ff" d="M622.08,-417.77C622.08,-409.85 622.08,-400.63 622.08,-392.3"/>
<polygon fill="#63b8ff" stroke="#63b8ff" points="625.58,-392.04 622.08,-382.04 618.58,-392.04 625.58,-392.04"/>
</a>
</g>
</g>
<!-- Node24 -->
<g id="Node000024" class="node">
<title>Node24</title>
<g id="a_Node000024"><a xlink:href="helios_2math_2types_2__module_8ixx.html" target="_top" xlink:title="Module exports for vector and matrix type definitions.">
<polygon fill="white" stroke="#666666" points="802.08,-184 698.08,-184 698.08,-165 802.08,-165 802.08,-184"/>
<text text-anchor="middle" x="750.08" y="-172" font-family="Helvetica,sans-Serif" font-size="10.00">helios.math.types</text>
</a>
</g>
</g>
<!-- Node1&#45;&gt;Node24 -->
<g id="edge39_Node000001_Node000024" class="edge">
<title>Node1&#45;&gt;Node24</title>
<g id="a_edge39_Node000001_Node000024"><a xlink:title=" ">
<path fill="none" stroke="#63b8ff" d="M660.81,-417.98C676.57,-408.67 694.09,-396.39 707.08,-382 755.53,-328.3 754.81,-234.55 751.96,-194.51"/>
<polygon fill="#63b8ff" stroke="#63b8ff" points="755.43,-193.98 751.09,-184.31 748.45,-194.57 755.43,-193.98"/>
</a>
</g>
</g>
<!-- Node4 -->
<g id="Node000004" class="node">
<title>Node4</title>
<g id="a_Node000004"><a xlink:title=" ">
<polygon fill="#e0e0e0" stroke="#999999" points="648.08,-310.5 596.08,-310.5 596.08,-291.5 648.08,-291.5 648.08,-310.5"/>
<text text-anchor="middle" x="622.08" y="-298.5" font-family="Helvetica,sans-Serif" font-size="10.00">cassert</text>
</a>
</g>
</g>
<!-- Node3&#45;&gt;Node4 -->
<g id="edge3_Node000003_Node000004" class="edge">
<title>Node3&#45;&gt;Node4</title>
<g id="a_edge3_Node000003_Node000004"><a xlink:title=" ">
<path fill="none" stroke="#63b8ff" d="M622.08,-351.8C622.08,-342.7 622.08,-330.79 622.08,-320.9"/>
<polygon fill="#63b8ff" stroke="#63b8ff" points="625.58,-320.84 622.08,-310.84 618.58,-320.84 625.58,-320.84"/>
</a>
</g>
</g>
<!-- Node5 -->
<g id="Node000005" class="node">
<title>Node5</title>
<g id="a_Node000005"><a xlink:title=" ">
<polygon fill="#e0e0e0" stroke="#999999" points="731.58,-310.5 666.58,-310.5 666.58,-291.5 731.58,-291.5 731.58,-310.5"/>
<text text-anchor="middle" x="699.08" y="-298.5" font-family="Helvetica,sans-Serif" font-size="10.00">stdexcept</text>
</a>
</g>
</g>
<!-- Node3&#45;&gt;Node5 -->
<g id="edge4_Node000003_Node000005" class="edge">
<title>Node3&#45;&gt;Node5</title>
<g id="a_edge4_Node000003_Node000005"><a xlink:title=" ">
<path fill="none" stroke="#63b8ff" d="M639.17,-351.8C651.41,-341.62 667.88,-327.93 680.45,-317.48"/>
<polygon fill="#63b8ff" stroke="#63b8ff" points="682.98,-319.93 688.44,-310.84 678.51,-314.54 682.98,-319.93"/>
</a>
</g>
</g>
<!-- Node6 -->
<g id="Node000006" class="node">
<title>Node6</title>
<g id="a_Node000006"><a xlink:href="GameLoopEventBus_8ixx.html" target="_top" xlink:title="Type&#45;safe event bus for inter&#45;system communication within the game loop.">
<polygon fill="white" stroke="#666666" points="420.08,-316 274.08,-316 274.08,-286 420.08,-286 420.08,-316"/>
<text text-anchor="start" x="282.08" y="-304" font-family="Helvetica,sans-Serif" font-size="10.00">helios.engine.game.event.</text>
<text text-anchor="middle" x="347.08" y="-293" font-family="Helvetica,sans-Serif" font-size="10.00">GameLoopEventBus</text>
</a>
</g>
</g>
<!-- Node3&#45;&gt;Node6 -->
<g id="edge5_Node000003_Node000006" class="edge">
<title>Node3&#45;&gt;Node6</title>
<g id="a_edge5_Node000003_Node000006"><a xlink:title=" ">
<path fill="none" stroke="#63b8ff" d="M561.73,-351.95C519.1,-342.03 461.85,-328.71 417.19,-318.32"/>
<polygon fill="#63b8ff" stroke="#63b8ff" points="417.82,-314.87 407.29,-316.01 416.23,-321.69 417.82,-314.87"/>
</a>
</g>
</g>
<!-- Node15 -->
<g id="Node000015" class="node">
<title>Node15</title>
<g id="a_Node000015"><a xlink:href="InputSnapshot_8ixx.html" target="_top" xlink:title="Immutable snapshot of input state at a specific point in time.">
<polygon fill="white" stroke="#666666" points="578.08,-316 438.08,-316 438.08,-286 578.08,-286 578.08,-316"/>
<text text-anchor="start" x="446.08" y="-304" font-family="Helvetica,sans-Serif" font-size="10.00">helios.engine.game.Input</text>
<text text-anchor="middle" x="508.08" y="-293" font-family="Helvetica,sans-Serif" font-size="10.00">Snapshot</text>
</a>
</g>
</g>
<!-- Node3&#45;&gt;Node15 -->
<g id="edge19_Node000003_Node000015" class="edge">
<title>Node3&#45;&gt;Node15</title>
<g id="a_edge19_Node000003_Node000015"><a xlink:title=" ">
<path fill="none" stroke="#63b8ff" d="M597.06,-351.95C580.87,-342.87 559.6,-330.93 541.91,-321"/>
<polygon fill="#63b8ff" stroke="#63b8ff" points="543.47,-317.86 533.04,-316.01 540.04,-323.96 543.47,-317.86"/>
</a>
</g>
</g>
<!-- Node7 -->
<g id="Node000007" class="node">
<title>Node7</title>
<g id="a_Node000007"><a xlink:href="TypeIndexedDoubleBuffer_8ixx.html" target="_top" xlink:title="Double&#45;buffered, type&#45;indexed message system for decoupled inter&#45;system communication.">
<polygon fill="white" stroke="#666666" points="311.08,-250 153.08,-250 153.08,-220 311.08,-220 311.08,-250"/>
<text text-anchor="start" x="161.08" y="-238" font-family="Helvetica,sans-Serif" font-size="10.00">helios.core.data.TypeIndexed</text>
<text text-anchor="middle" x="232.08" y="-227" font-family="Helvetica,sans-Serif" font-size="10.00">DoubleBuffer</text>
</a>
</g>
</g>
<!-- Node6&#45;&gt;Node7 -->
<g id="edge6_Node000006_Node000007" class="edge">
<title>Node6&#45;&gt;Node7</title>
<g id="a_edge6_Node000006_Node000007"><a xlink:title=" ">
<path fill="none" stroke="#63b8ff" d="M321.84,-285.95C305.51,-276.87 284.05,-264.93 266.21,-255"/>
<polygon fill="#63b8ff" stroke="#63b8ff" points="267.7,-251.82 257.26,-250.01 264.29,-257.93 267.7,-251.82"/>
</a>
</g>
</g>
<!-- Node13 -->
<g id="Node000013" class="node">
<title>Node13</title>
<g id="a_Node000013"><a xlink:href="TypeIndexer_8ixx.html" target="_top" xlink:title="Utility for generating unique type indices at runtime.">
<polygon fill="white" stroke="#666666" points="454.08,-184 298.08,-184 298.08,-165 454.08,-165 454.08,-184"/>
<text text-anchor="middle" x="376.08" y="-172" font-family="Helvetica,sans-Serif" font-size="10.00">helios.core.data.TypeIndexer</text>
</a>
</g>
</g>
<!-- Node6&#45;&gt;Node13 -->
<g id="edge18_Node000006_Node000013" class="edge">
<title>Node6&#45;&gt;Node13</title>
<g id="a_edge18_Node000006_Node000013"><a xlink:title=" ">
<path fill="none" stroke="#63b8ff" d="M350.41,-285.72C355.67,-263.12 365.92,-219.12 371.75,-194.09"/>
<polygon fill="#63b8ff" stroke="#63b8ff" points="375.22,-194.6 374.08,-184.07 368.4,-193.01 375.22,-194.6"/>
</a>
</g>
</g>
<!-- Node8 -->
<g id="Node000008" class="node">
<title>Node8</title>
<g id="a_Node000008"><a xlink:title=" ">
<polygon fill="#e0e0e0" stroke="#999999" points="443.08,-74 385.08,-74 385.08,-55 443.08,-55 443.08,-74"/>
<text text-anchor="middle" x="414.08" y="-62" font-family="Helvetica,sans-Serif" font-size="10.00">memory</text>
</a>
</g>
</g>
<!-- Node7&#45;&gt;Node8 -->
<g id="edge7_Node000007_Node000008" class="edge">
<title>Node7&#45;&gt;Node8</title>
<g id="a_edge7_Node000007_Node000008"><a xlink:title=" ">
<path fill="none" stroke="#63b8ff" d="M237.02,-219.79C247.39,-190.69 271.86,-125.75 289.08,-110 312.89,-88.22 348.08,-76.95 375.06,-71.21"/>
<polygon fill="#63b8ff" stroke="#63b8ff" points="375.81,-74.63 384.95,-69.27 374.47,-67.76 375.81,-74.63"/>
</a>
</g>
</g>
<!-- Node9 -->
<g id="Node000009" class="node">
<title>Node9</title>
<g id="a_Node000009"><a xlink:title=" ">
<polygon fill="#e0e0e0" stroke="#999999" points="57.08,-74 17.08,-74 17.08,-55 57.08,-55 57.08,-74"/>
<text text-anchor="middle" x="37.08" y="-62" font-family="Helvetica,sans-Serif" font-size="10.00">span</text>
</a>
</g>
</g>
<!-- Node7&#45;&gt;Node9 -->
<g id="edge8_Node000007_Node000009" class="edge">
<title>Node7&#45;&gt;Node9</title>
<g id="a_edge8_Node000007_Node000009"><a xlink:title=" ">
<path fill="none" stroke="#63b8ff" d="M152.7,-229.17C113.29,-223.25 66.97,-210.63 33.08,-184 5.3,-162.18 -7,-143.54 4.08,-110 7.53,-99.54 14.51,-89.53 21.15,-81.66"/>
<polygon fill="#63b8ff" stroke="#63b8ff" points="23.94,-83.8 28.06,-74.04 18.75,-79.1 23.94,-83.8"/>
</a>
</g>
</g>
<!-- Node10 -->
<g id="Node000010" class="node">
<title>Node10</title>
<g id="a_Node000010"><a xlink:title=" ">
<polygon fill="#e0e0e0" stroke="#999999" points="255.58,-74 208.58,-74 208.58,-55 255.58,-55 255.58,-74"/>
<text text-anchor="middle" x="232.08" y="-62" font-family="Helvetica,sans-Serif" font-size="10.00">vector</text>
</a>
</g>
</g>
<!-- Node7&#45;&gt;Node10 -->
<g id="edge9_Node000007_Node000010" class="edge">
<title>Node7&#45;&gt;Node10</title>
<g id="a_edge9_Node000007_Node000010"><a xlink:title=" ">
<path fill="none" stroke="#63b8ff" d="M232.08,-219.92C232.08,-189.65 232.08,-118.35 232.08,-84.27"/>
<polygon fill="#63b8ff" stroke="#63b8ff" points="235.58,-84.25 232.08,-74.25 228.58,-84.25 235.58,-84.25"/>
</a>
</g>
</g>
<!-- Node11 -->
<g id="Node000011" class="node">
<title>Node11</title>
<g id="a_Node000011"><a xlink:href="ReadBuffer_8ixx.html" target="_top" xlink:title="Read&#45;only buffer for the double&#45;buffering pattern.">
<polygon fill="white" stroke="#666666" points="165.08,-129 13.08,-129 13.08,-110 165.08,-110 165.08,-129"/>
<text text-anchor="middle" x="89.08" y="-117" font-family="Helvetica,sans-Serif" font-size="10.00">helios.core.data.ReadBuffer</text>
</a>
</g>
</g>
<!-- Node7&#45;&gt;Node11 -->
<g id="edge10_Node000007_Node000011" class="edge">
<title>Node7&#45;&gt;Node11</title>
<g id="a_edge10_Node000007_Node000011"><a xlink:title=" ">
<path fill="none" stroke="#63b8ff" d="M152.85,-223.14C106.79,-215.03 55.11,-202.18 41.08,-184 28.16,-167.27 47.82,-147.86 65.73,-134.95"/>
<polygon fill="#63b8ff" stroke="#63b8ff" points="67.93,-137.68 74.24,-129.17 64,-131.89 67.93,-137.68"/>
</a>
</g>
</g>
<!-- Node12 -->
<g id="Node000012" class="node">
<title>Node12</title>
<g id="a_Node000012"><a xlink:href="WriteBuffer_8ixx.html" target="_top" xlink:title="Write&#45;only buffer for the double&#45;buffering pattern.">
<polygon fill="white" stroke="#666666" points="203.58,-184 50.58,-184 50.58,-165 203.58,-165 203.58,-184"/>
<text text-anchor="middle" x="127.08" y="-172" font-family="Helvetica,sans-Serif" font-size="10.00">helios.core.data.WriteBuffer</text>
</a>
</g>
</g>
<!-- Node7&#45;&gt;Node12 -->
<g id="edge13_Node000007_Node000012" class="edge">
<title>Node7&#45;&gt;Node12</title>
<g id="a_edge13_Node000007_Node000012"><a xlink:title=" ">
<path fill="none" stroke="#63b8ff" d="M206.93,-219.99C190.19,-210.66 168.31,-198.47 151.69,-189.21"/>
<polygon fill="#63b8ff" stroke="#63b8ff" points="153.02,-185.95 142.58,-184.14 149.62,-192.06 153.02,-185.95"/>
</a>
</g>
</g>
<!-- Node7&#45;&gt;Node13 -->
<g id="edge16_Node000007_Node000013" class="edge">
<title>Node7&#45;&gt;Node13</title>
<g id="a_edge16_Node000007_Node000013"><a xlink:title=" ">
<path fill="none" stroke="#63b8ff" d="M266.57,-219.99C290.6,-210.23 322.35,-197.33 345.48,-187.93"/>
<polygon fill="#63b8ff" stroke="#63b8ff" points="346.87,-191.15 354.81,-184.14 344.23,-184.66 346.87,-191.15"/>
</a>
</g>
</g>
<!-- Node11&#45;&gt;Node9 -->
<g id="edge11_Node000011_Node000009" class="edge">
<title>Node11&#45;&gt;Node9</title>
<g id="a_edge11_Node000011_Node000009"><a xlink:title=" ">
<path fill="none" stroke="#63b8ff" d="M80.49,-109.75C72.92,-102.03 61.7,-90.6 52.56,-81.28"/>
<polygon fill="#63b8ff" stroke="#63b8ff" points="55.01,-78.78 45.51,-74.09 50.01,-83.68 55.01,-78.78"/>
</a>
</g>
</g>
<!-- Node11&#45;&gt;Node10 -->
<g id="edge12_Node000011_Node000010" class="edge">
<title>Node11&#45;&gt;Node10</title>
<g id="a_edge12_Node000011_Node000010"><a xlink:title=" ">
<path fill="none" stroke="#63b8ff" d="M112.05,-109.98C135.58,-101.27 172.37,-87.63 199.02,-77.75"/>
<polygon fill="#63b8ff" stroke="#63b8ff" points="200.52,-80.93 208.69,-74.17 198.09,-74.36 200.52,-80.93"/>
</a>
</g>
</g>
<!-- Node12&#45;&gt;Node10 -->
<g id="edge14_Node000012_Node000010" class="edge">
<title>Node12&#45;&gt;Node10</title>
<g id="a_edge14_Node000012_Node000010"><a xlink:title=" ">
<path fill="none" stroke="#63b8ff" d="M136.63,-164.83C146.27,-156 161.48,-141.83 174.08,-129 189.36,-113.45 206.07,-94.98 217.62,-81.98"/>
<polygon fill="#63b8ff" stroke="#63b8ff" points="220.4,-84.12 224.39,-74.31 215.15,-79.49 220.4,-84.12"/>
</a>
</g>
</g>
<!-- Node12&#45;&gt;Node11 -->
<g id="edge15_Node000012_Node000011" class="edge">
<title>Node12&#45;&gt;Node11</title>
<g id="a_edge15_Node000012_Node000011"><a xlink:title=" ">
<path fill="none" stroke="#63b8ff" d="M120.8,-164.75C115.49,-157.34 107.72,-146.5 101.2,-137.41"/>
<polygon fill="#63b8ff" stroke="#63b8ff" points="103.91,-135.18 95.24,-129.09 98.22,-139.26 103.91,-135.18"/>
</a>
</g>
</g>
<!-- Node14 -->
<g id="Node000014" class="node">
<title>Node14</title>
<g id="a_Node000014"><a xlink:title=" ">
<polygon fill="#e0e0e0" stroke="#999999" points="348.08,-129 298.08,-129 298.08,-110 348.08,-110 348.08,-129"/>
<text text-anchor="middle" x="323.08" y="-117" font-family="Helvetica,sans-Serif" font-size="10.00">atomic</text>
</a>
</g>
</g>
<!-- Node13&#45;&gt;Node14 -->
<g id="edge17_Node000013_Node000014" class="edge">
<title>Node13&#45;&gt;Node14</title>
<g id="a_edge17_Node000013_Node000014"><a xlink:title=" ">
<path fill="none" stroke="#63b8ff" d="M367.33,-164.75C359.61,-157.03 348.17,-145.6 338.86,-136.28"/>
<polygon fill="#63b8ff" stroke="#63b8ff" points="341.21,-133.69 331.67,-129.09 336.26,-138.64 341.21,-133.69"/>
</a>
</g>
</g>
<!-- Node16 -->
<g id="Node000016" class="node">
<title>Node16</title>
<g id="a_Node000016"><a xlink:href="GamepadState_8ixx.html" target="_top" xlink:title="Representation of current gamepad input state.">
<polygon fill="white" stroke="#666666" points="638.58,-250 465.58,-250 465.58,-220 638.58,-220 638.58,-250"/>
<text text-anchor="start" x="473.58" y="-238" font-family="Helvetica,sans-Serif" font-size="10.00">helios.input.gamepad.Gamepad</text>
<text text-anchor="middle" x="552.08" y="-227" font-family="Helvetica,sans-Serif" font-size="10.00">State</text>
</a>
</g>
</g>
<!-- Node15&#45;&gt;Node16 -->
<g id="edge20_Node000015_Node000016" class="edge">
<title>Node15&#45;&gt;Node16</title>
<g id="a_edge20_Node000015_Node000016"><a xlink:title=" ">
<path fill="none" stroke="#63b8ff" d="M517.84,-285.8C523.37,-277.76 530.4,-267.53 536.66,-258.43"/>
<polygon fill="#63b8ff" stroke="#63b8ff" points="539.56,-260.39 542.34,-250.16 533.79,-256.42 539.56,-260.39"/>
</a>
</g>
</g>
<!-- Node17 -->
<g id="Node000017" class="node">
<title>Node17</title>
<g id="a_Node000017"><a xlink:href="LogManager_8ixx.html" target="_top" xlink:title="Central manager for scoped loggers with configurable sinks.">
<polygon fill="white" stroke="#666666" points="676.08,-184 530.08,-184 530.08,-165 676.08,-165 676.08,-184"/>
<text text-anchor="middle" x="603.08" y="-172" font-family="Helvetica,sans-Serif" font-size="10.00">helios.util.log.LogManager</text>
</a>
</g>
</g>
<!-- Node16&#45;&gt;Node17 -->
<g id="edge21_Node000016_Node000017" class="edge">
<title>Node16&#45;&gt;Node17</title>
<g id="a_edge21_Node000016_Node000017"><a xlink:title=" ">
<path fill="none" stroke="#63b8ff" d="M564.42,-219.84C571.75,-211.43 581.07,-200.74 588.73,-191.96"/>
<polygon fill="#63b8ff" stroke="#63b8ff" points="591.5,-194.1 595.44,-184.27 586.23,-189.5 591.5,-194.1"/>
</a>
</g>
</g>
<!-- Node22 -->
<g id="Node000022" class="node">
<title>Node22</title>
<g id="a_Node000022"><a xlink:href="Logger_8ixx.html" target="_top" xlink:title="Simple synchronous logger with configurable output sinks.">
<polygon fill="white" stroke="#666666" points="561.58,-129 442.58,-129 442.58,-110 561.58,-110 561.58,-129"/>
<text text-anchor="middle" x="502.08" y="-117" font-family="Helvetica,sans-Serif" font-size="10.00">helios.util.log.Logger</text>
</a>
</g>
</g>
<!-- Node16&#45;&gt;Node22 -->
<g id="edge36_Node000016_Node000022" class="edge">
<title>Node16&#45;&gt;Node22</title>
<g id="a_edge36_Node000016_Node000022"><a xlink:title=" ">
<path fill="none" stroke="#63b8ff" d="M541.79,-219.69C535.17,-209.99 526.78,-196.67 521.08,-184 514.58,-169.55 509.57,-152.28 506.34,-139.4"/>
<polygon fill="#63b8ff" stroke="#63b8ff" points="509.68,-138.31 503.95,-129.39 502.87,-139.93 509.68,-138.31"/>
</a>
</g>
</g>
<!-- Node16&#45;&gt;Node24 -->
<g id="edge37_Node000016_Node000024" class="edge">
<title>Node16&#45;&gt;Node24</title>
<g id="a_edge37_Node000016_Node000024"><a xlink:title=" ">
<path fill="none" stroke="#63b8ff" d="M599.5,-219.99C633.68,-209.89 679.22,-196.44 711.24,-186.98"/>
<polygon fill="#63b8ff" stroke="#63b8ff" points="712.53,-190.24 721.13,-184.05 710.55,-183.53 712.53,-190.24"/>
</a>
</g>
</g>
<!-- Node17&#45;&gt;Node8 -->
<g id="edge25_Node000017_Node000008" class="edge">
<title>Node17&#45;&gt;Node8</title>
<g id="a_edge25_Node000017_Node000008"><a xlink:title=" ">
<path fill="none" stroke="#63b8ff" d="M529.86,-170.32C496.47,-165.22 458.75,-153.8 433.08,-129 421.06,-117.39 416.56,-98.53 414.92,-84.37"/>
<polygon fill="#63b8ff" stroke="#63b8ff" points="418.4,-83.95 414.13,-74.25 411.42,-84.5 418.4,-83.95"/>
</a>
</g>
</g>
<!-- Node17&#45;&gt;Node10 -->
<g id="edge27_Node000017_Node000010" class="edge">
<title>Node17&#45;&gt;Node10</title>
<g id="a_edge27_Node000017_Node000010"><a xlink:title=" ">
<path fill="none" stroke="#63b8ff" d="M562.74,-164.93C525.07,-156.66 467.41,-143.32 418.08,-129 363.56,-113.18 301.35,-91.1 264.47,-77.58"/>
<polygon fill="#63b8ff" stroke="#63b8ff" points="265.36,-74.18 254.77,-74.01 262.94,-80.75 265.36,-74.18"/>
</a>
</g>
</g>
<!-- Node18 -->
<g id="Node000018" class="node">
<title>Node18</title>
<g id="a_Node000018"><a xlink:title=" ">
<polygon fill="#e0e0e0" stroke="#999999" points="765.08,-19 721.08,-19 721.08,0 765.08,0 765.08,-19"/>
<text text-anchor="middle" x="743.08" y="-7" font-family="Helvetica,sans-Serif" font-size="10.00">string</text>
</a>
</g>
</g>
<!-- Node17&#45;&gt;Node18 -->
<g id="edge22_Node000017_Node000018" class="edge">
<title>Node17&#45;&gt;Node18</title>
<g id="a_edge22_Node000017_Node000018"><a xlink:title=" ">
<path fill="none" stroke="#63b8ff" d="M673.23,-164.96C739.49,-156.17 830.3,-141.98 841.08,-129 872.52,-91.13 807.84,-46.34 769.18,-24.24"/>
<polygon fill="#63b8ff" stroke="#63b8ff" points="770.43,-20.93 759.99,-19.13 767.03,-27.05 770.43,-20.93"/>
</a>
</g>
</g>
<!-- Node19 -->
<g id="Node000019" class="node">
<title>Node19</title>
<g id="a_Node000019"><a xlink:title=" ">
<polygon fill="#e0e0e0" stroke="#999999" points="711.58,-129 618.58,-129 618.58,-110 711.58,-110 711.58,-129"/>
<text text-anchor="middle" x="665.08" y="-117" font-family="Helvetica,sans-Serif" font-size="10.00">unordered_map</text>
</a>
</g>
</g>
<!-- Node17&#45;&gt;Node19 -->
<g id="edge23_Node000017_Node000019" class="edge">
<title>Node17&#45;&gt;Node19</title>
<g id="a_edge23_Node000017_Node000019"><a xlink:title=" ">
<path fill="none" stroke="#63b8ff" d="M613.04,-164.98C622.21,-157.15 636.02,-145.34 647.11,-135.86"/>
<polygon fill="#63b8ff" stroke="#63b8ff" points="649.61,-138.33 654.94,-129.17 645.06,-133.01 649.61,-138.33"/>
</a>
</g>
</g>
<!-- Node20 -->
<g id="Node000020" class="node">
<title>Node20</title>
<g id="a_Node000020"><a xlink:title=" ">
<polygon fill="#e0e0e0" stroke="#999999" points="816.08,-129 730.08,-129 730.08,-110 816.08,-110 816.08,-129"/>
<text text-anchor="middle" x="773.08" y="-117" font-family="Helvetica,sans-Serif" font-size="10.00">unordered_set</text>
</a>
</g>
</g>
<!-- Node17&#45;&gt;Node20 -->
<g id="edge24_Node000017_Node000020" class="edge">
<title>Node17&#45;&gt;Node20</title>
<g id="a_edge24_Node000017_Node000020"><a xlink:title=" ">
<path fill="none" stroke="#63b8ff" d="M630.39,-164.98C658.93,-156.09 703.9,-142.07 735.72,-132.15"/>
<polygon fill="#63b8ff" stroke="#63b8ff" points="737.05,-135.4 745.55,-129.08 734.96,-128.72 737.05,-135.4"/>
</a>
</g>
</g>
<!-- Node21 -->
<g id="Node000021" class="node">
<title>Node21</title>
<g id="a_Node000021"><a xlink:title=" ">
<polygon fill="#e0e0e0" stroke="#999999" points="605.08,-74 557.08,-74 557.08,-55 605.08,-55 605.08,-74"/>
<text text-anchor="middle" x="581.08" y="-62" font-family="Helvetica,sans-Serif" font-size="10.00">mutex</text>
</a>
</g>
</g>
<!-- Node17&#45;&gt;Node21 -->
<g id="edge26_Node000017_Node000021" class="edge">
<title>Node17&#45;&gt;Node21</title>
<g id="a_edge26_Node000017_Node000021"><a xlink:title=" ">
<path fill="none" stroke="#63b8ff" d="M601.28,-164.66C597.72,-147.17 589.7,-107.8 584.9,-84.27"/>
<polygon fill="#63b8ff" stroke="#63b8ff" points="588.27,-83.26 582.84,-74.16 581.41,-84.66 588.27,-83.26"/>
</a>
</g>
</g>
<!-- Node17&#45;&gt;Node22 -->
<g id="edge28_Node000017_Node000022" class="edge">
<title>Node17&#45;&gt;Node22</title>
<g id="a_edge28_Node000017_Node000022"><a xlink:title=" ">
<path fill="none" stroke="#63b8ff" d="M586.85,-164.98C570.9,-156.61 546.3,-143.7 527.7,-133.95"/>
<polygon fill="#63b8ff" stroke="#63b8ff" points="529.08,-130.72 518.6,-129.17 525.83,-136.92 529.08,-130.72"/>
</a>
</g>
</g>
<!-- Node23 -->
<g id="Node000023" class="node">
<title>Node23</title>
<g id="a_Node000023"><a xlink:href="LogSink_8ixx.html" target="_top" xlink:title="Abstract interface for log output destinations.">
<polygon fill="white" stroke="#666666" points="805.08,-74 681.08,-74 681.08,-55 805.08,-55 805.08,-74"/>
<text text-anchor="middle" x="743.08" y="-62" font-family="Helvetica,sans-Serif" font-size="10.00">helios.util.log.LogSink</text>
</a>
</g>
</g>
<!-- Node17&#45;&gt;Node23 -->
<g id="edge35_Node000017_Node000023" class="edge">
<title>Node17&#45;&gt;Node23</title>
<g id="a_edge35_Node000017_Node000023"><a xlink:title=" ">
<path fill="none" stroke="#63b8ff" d="M666.24,-164.97C728.24,-155.95 814.96,-141.35 825.08,-129 842.56,-107.67 809.76,-89.13 780.59,-77.68"/>
<polygon fill="#63b8ff" stroke="#63b8ff" points="781.51,-74.28 770.92,-74.07 779.07,-80.84 781.51,-74.28"/>
</a>
</g>
</g>
<!-- Node22&#45;&gt;Node8 -->
<g id="edge31_Node000022_Node000008" class="edge">
<title>Node22&#45;&gt;Node8</title>
<g id="a_edge31_Node000022_Node000008"><a xlink:title=" ">
<path fill="none" stroke="#63b8ff" d="M487.94,-109.98C474.29,-101.77 453.39,-89.18 437.3,-79.49"/>
<polygon fill="#63b8ff" stroke="#63b8ff" points="438.85,-76.33 428.47,-74.17 435.24,-82.33 438.85,-76.33"/>
</a>
</g>
</g>
<!-- Node22&#45;&gt;Node10 -->
<g id="edge30_Node000022_Node000010" class="edge">
<title>Node22&#45;&gt;Node10</title>
<g id="a_edge30_Node000022_Node000010"><a xlink:title=" ">
<path fill="none" stroke="#63b8ff" d="M458.7,-109.98C404.95,-99.43 314.52,-81.68 265.73,-72.11"/>
<polygon fill="#63b8ff" stroke="#63b8ff" points="266.18,-68.63 255.69,-70.13 264.83,-75.5 266.18,-68.63"/>
</a>
</g>
</g>
<!-- Node22&#45;&gt;Node18 -->
<g id="edge29_Node000022_Node000018" class="edge">
<title>Node22&#45;&gt;Node18</title>
<g id="a_edge29_Node000022_Node000018"><a xlink:title=" ">
<path fill="none" stroke="#63b8ff" d="M505.78,-109.99C512.24,-96.16 526.96,-68.96 548.08,-55 598.2,-21.86 669.66,-13.19 710.71,-11.05"/>
<polygon fill="#63b8ff" stroke="#63b8ff" points="711.1,-14.54 720.95,-10.62 710.81,-7.54 711.1,-14.54"/>
</a>
</g>
</g>
<!-- Node22&#45;&gt;Node21 -->
<g id="edge32_Node000022_Node000021" class="edge">
<title>Node22&#45;&gt;Node21</title>
<g id="a_edge32_Node000022_Node000021"><a xlink:title=" ">
<path fill="none" stroke="#63b8ff" d="M514.77,-109.98C526.91,-101.84 545.44,-89.41 559.82,-79.76"/>
<polygon fill="#63b8ff" stroke="#63b8ff" points="561.8,-82.65 568.15,-74.17 557.9,-76.84 561.8,-82.65"/>
</a>
</g>
</g>
<!-- Node22&#45;&gt;Node23 -->
<g id="edge33_Node000022_Node000023" class="edge">
<title>Node22&#45;&gt;Node23</title>
<g id="a_edge33_Node000022_Node000023"><a xlink:title=" ">
<path fill="none" stroke="#63b8ff" d="M540.8,-109.98C582.49,-100.82 648.9,-86.21 694.17,-76.26"/>
<polygon fill="#63b8ff" stroke="#63b8ff" points="695.04,-79.65 704.05,-74.08 693.54,-72.81 695.04,-79.65"/>
</a>
</g>
</g>
<!-- Node23&#45;&gt;Node18 -->
<g id="edge34_Node000023_Node000018" class="edge">
<title>Node23&#45;&gt;Node18</title>
<g id="a_edge34_Node000023_Node000018"><a xlink:title=" ">
<path fill="none" stroke="#63b8ff" d="M743.08,-54.75C743.08,-47.8 743.08,-37.85 743.08,-29.13"/>
<polygon fill="#63b8ff" stroke="#63b8ff" points="746.58,-29.09 743.08,-19.09 739.58,-29.09 746.58,-29.09"/>
</a>
</g>
</g>
<!-- Node24&#45;&gt;Node24 -->
<g id="edge38_Node000024_Node000024" class="edge">
<title>Node24&#45;&gt;Node24</title>
<g id="a_edge38_Node000024_Node000024"><a xlink:title=" ">
<path fill="none" stroke="#63b8ff" d="M782.84,-184.03C802.08,-186.06 820.08,-182.88 820.08,-174.5 820.08,-167.62 807.96,-164.25 792.99,-164.38"/>
<polygon fill="#63b8ff" stroke="#63b8ff" points="792.62,-160.89 782.84,-164.97 793.03,-167.88 792.62,-160.89"/>
</a>
</g>
</g>
</g>
</svg>
