<?xml version="1.0" encoding="UTF-8" standalone="no"?>
<!DOCTYPE svg PUBLIC "-//W3C//DTD SVG 1.1//EN"
 "http://www.w3.org/Graphics/SVG/1.1/DTD/svg11.dtd">
<!-- Generated by graphviz version 2.43.0 (0)
 -->
<!-- Title: include/helios/engine/game/commands/Aim2DCommand.ixx Pages: 1 -->
<svg width="1150pt" height="577pt"
 viewBox="0.00 0.00 1150.00 577.00" xmlns="http://www.w3.org/2000/svg" xmlns:xlink="http://www.w3.org/1999/xlink">
<g id="graph0" class="graph" transform="scale(1 1) rotate(0) translate(4 573)">
<title>include/helios/engine/game/commands/Aim2DCommand.ixx</title>
<!-- Node1 -->
<g id="Node000001" class="node">
<title>Node1</title>
<g id="a_Node000001"><a xlink:title="Command for applying 2D aiming direction to GameObjects.">
<polygon fill="#999999" stroke="#666666" points="331.5,-569 122.5,-569 122.5,-539 331.5,-539 331.5,-569"/>
<text text-anchor="start" x="130.5" y="-557" font-family="Helvetica,sans-Serif" font-size="10.00">include/helios/engine</text>
<text text-anchor="middle" x="227" y="-546" font-family="Helvetica,sans-Serif" font-size="10.00">/game/commands/Aim2DCommand.ixx</text>
</a>
</g>
</g>
<!-- Node2 -->
<g id="Node000002" class="node">
<title>Node2</title>
<g id="a_Node000002"><a xlink:href="Aim2DComponent_8ixx.html" target="_top" xlink:title="Component for handling 2D aiming direction.">
<polygon fill="white" stroke="#666666" points="305.5,-448 76.5,-448 76.5,-418 305.5,-418 305.5,-448"/>
<text text-anchor="start" x="84.5" y="-436" font-family="Helvetica,sans-Serif" font-size="10.00">helios.engine.game.components.gameplay.</text>
<text text-anchor="middle" x="191" y="-425" font-family="Helvetica,sans-Serif" font-size="10.00">Aim2DComponent</text>
</a>
</g>
</g>
<!-- Node1&#45;&gt;Node2 -->
<g id="edge1_Node000001_Node000002" class="edge">
<title>Node1&#45;&gt;Node2</title>
<g id="a_edge1_Node000001_Node000002"><a xlink:title=" ">
<path fill="none" stroke="#63b8ff" d="M222.73,-538.88C216.69,-518.93 205.59,-482.22 198.25,-457.96"/>
<polygon fill="#63b8ff" stroke="#63b8ff" points="201.51,-456.66 195.27,-448.1 194.81,-458.68 201.51,-456.66"/>
</a>
</g>
</g>
<!-- Node17 -->
<g id="Node000017" class="node">
<title>Node17</title>
<g id="a_Node000017"><a xlink:href="helios_2math_2types_2__module_8ixx.html" target="_top" xlink:title="Module exports for vector and matrix type definitions.">
<polygon fill="white" stroke="#666666" points="104,-184 0,-184 0,-165 104,-165 104,-184"/>
<text text-anchor="middle" x="52" y="-172" font-family="Helvetica,sans-Serif" font-size="10.00">helios.math.types</text>
</a>
</g>
</g>
<!-- Node1&#45;&gt;Node17 -->
<g id="edge26_Node000001_Node000017" class="edge">
<title>Node1&#45;&gt;Node17</title>
<g id="a_edge26_Node000001_Node000017"><a xlink:title=" ">
<path fill="none" stroke="#63b8ff" d="M137.59,-538.93C79.3,-524.08 14,-494.04 14,-434 14,-434 14,-434 14,-300 14,-260.63 31.6,-217.18 42.84,-193.45"/>
<polygon fill="#63b8ff" stroke="#63b8ff" points="46.08,-194.8 47.34,-184.28 39.79,-191.71 46.08,-194.8"/>
</a>
</g>
</g>
<!-- Node18 -->
<g id="Node000018" class="node">
<title>Node18</title>
<g id="a_Node000018"><a xlink:href="GameObject_8ixx.html" target="_top" xlink:title="Base class for interactive game entities with transform capabilities.">
<polygon fill="white" stroke="#666666" points="669,-442.5 493,-442.5 493,-423.5 669,-423.5 669,-442.5"/>
<text text-anchor="middle" x="581" y="-430.5" font-family="Helvetica,sans-Serif" font-size="10.00">helios.engine.game.GameObject</text>
</a>
</g>
</g>
<!-- Node1&#45;&gt;Node18 -->
<g id="edge27_Node000001_Node000018" class="edge">
<title>Node1&#45;&gt;Node18</title>
<g id="a_edge27_Node000001_Node000018"><a xlink:title=" ">
<path fill="none" stroke="#63b8ff" d="M268.65,-539C339.06,-515.33 480.34,-467.84 545.98,-445.77"/>
<polygon fill="#63b8ff" stroke="#63b8ff" points="547.11,-449.08 555.48,-442.58 544.88,-442.45 547.11,-449.08"/>
</a>
</g>
</g>
<!-- Node27 -->
<g id="Node000027" class="node">
<title>Node27</title>
<g id="a_Node000027"><a xlink:href="Command_8ixx.html" target="_top" xlink:title="Abstract base class for game commands following the Command pattern.">
<polygon fill="white" stroke="#666666" points="646,-503 480,-503 480,-484 646,-484 646,-503"/>
<text text-anchor="middle" x="563" y="-491" font-family="Helvetica,sans-Serif" font-size="10.00">helios.engine.game.Command</text>
</a>
</g>
</g>
<!-- Node1&#45;&gt;Node27 -->
<g id="edge41_Node000001_Node000027" class="edge">
<title>Node1&#45;&gt;Node27</title>
<g id="a_edge41_Node000001_Node000027"><a xlink:title=" ">
<path fill="none" stroke="#63b8ff" d="M307.48,-538.99C367.98,-528.45 449.48,-514.26 504.01,-504.77"/>
<polygon fill="#63b8ff" stroke="#63b8ff" points="504.62,-508.22 513.87,-503.05 503.42,-501.32 504.62,-508.22"/>
</a>
</g>
</g>
<!-- Node3 -->
<g id="Node000003" class="node">
<title>Node3</title>
<g id="a_Node000003"><a xlink:href="Component_8ixx.html" target="_top" xlink:title="Base class for components attached to GameObjects.">
<polygon fill="white" stroke="#666666" points="422,-376.5 250,-376.5 250,-357.5 422,-357.5 422,-376.5"/>
<text text-anchor="middle" x="336" y="-364.5" font-family="Helvetica,sans-Serif" font-size="10.00">helios.engine.game.Component</text>
</a>
</g>
</g>
<!-- Node2&#45;&gt;Node3 -->
<g id="edge2_Node000002_Node000003" class="edge">
<title>Node2&#45;&gt;Node3</title>
<g id="a_edge2_Node000002_Node000003"><a xlink:title=" ">
<path fill="none" stroke="#63b8ff" d="M222.82,-417.95C248.03,-406.83 282.93,-391.42 307.29,-380.67"/>
<polygon fill="#63b8ff" stroke="#63b8ff" points="308.97,-383.76 316.7,-376.52 306.14,-377.35 308.97,-383.76"/>
</a>
</g>
</g>
<!-- Node4 -->
<g id="Node000004" class="node">
<title>Node4</title>
<g id="a_Node000004"><a xlink:href="UpdateContext_8ixx.html" target="_top" xlink:title="Context struct passed to components during per&#45;frame updates.">
<polygon fill="white" stroke="#666666" points="231.5,-382 80.5,-382 80.5,-352 231.5,-352 231.5,-382"/>
<text text-anchor="start" x="88.5" y="-370" font-family="Helvetica,sans-Serif" font-size="10.00">helios.engine.game.Update</text>
<text text-anchor="middle" x="156" y="-359" font-family="Helvetica,sans-Serif" font-size="10.00">Context</text>
</a>
</g>
</g>
<!-- Node2&#45;&gt;Node4 -->
<g id="edge3_Node000002_Node000004" class="edge">
<title>Node2&#45;&gt;Node4</title>
<g id="a_edge3_Node000002_Node000004"><a xlink:title=" ">
<path fill="none" stroke="#63b8ff" d="M183.23,-417.8C178.93,-409.92 173.47,-399.95 168.57,-390.99"/>
<polygon fill="#63b8ff" stroke="#63b8ff" points="171.61,-389.26 163.75,-382.16 165.47,-392.62 171.61,-389.26"/>
</a>
</g>
</g>
<!-- Node2&#45;&gt;Node17 -->
<g id="edge25_Node000002_Node000017" class="edge">
<title>Node2&#45;&gt;Node17</title>
<g id="a_edge25_Node000002_Node000017"><a xlink:title=" ">
<path fill="none" stroke="#63b8ff" d="M123.07,-417.93C103.29,-410.5 83.63,-399.18 71,-382 28.89,-324.71 40.44,-232.91 47.93,-193.94"/>
<polygon fill="#63b8ff" stroke="#63b8ff" points="51.38,-194.54 49.97,-184.03 44.52,-193.12 51.38,-194.54"/>
</a>
</g>
</g>
<!-- Node5 -->
<g id="Node000005" class="node">
<title>Node5</title>
<g id="a_Node000005"><a xlink:title=" ">
<polygon fill="#e0e0e0" stroke="#999999" points="188.5,-310.5 123.5,-310.5 123.5,-291.5 188.5,-291.5 188.5,-310.5"/>
<text text-anchor="middle" x="156" y="-298.5" font-family="Helvetica,sans-Serif" font-size="10.00">stdexcept</text>
</a>
</g>
</g>
<!-- Node4&#45;&gt;Node5 -->
<g id="edge4_Node000004_Node000005" class="edge">
<title>Node4&#45;&gt;Node5</title>
<g id="a_edge4_Node000004_Node000005"><a xlink:title=" ">
<path fill="none" stroke="#63b8ff" d="M156,-351.8C156,-342.7 156,-330.79 156,-320.9"/>
<polygon fill="#63b8ff" stroke="#63b8ff" points="159.5,-320.84 156,-310.84 152.5,-320.84 159.5,-320.84"/>
</a>
</g>
</g>
<!-- Node6 -->
<g id="Node000006" class="node">
<title>Node6</title>
<g id="a_Node000006"><a xlink:href="InputSnapshot_8ixx.html" target="_top" xlink:title="Immutable snapshot of input state at a specific point in time.">
<polygon fill="white" stroke="#666666" points="362,-316 222,-316 222,-286 362,-286 362,-316"/>
<text text-anchor="start" x="230" y="-304" font-family="Helvetica,sans-Serif" font-size="10.00">helios.engine.game.Input</text>
<text text-anchor="middle" x="292" y="-293" font-family="Helvetica,sans-Serif" font-size="10.00">Snapshot</text>
</a>
</g>
</g>
<!-- Node4&#45;&gt;Node6 -->
<g id="edge5_Node000004_Node000006" class="edge">
<title>Node4&#45;&gt;Node6</title>
<g id="a_edge5_Node000004_Node000006"><a xlink:title=" ">
<path fill="none" stroke="#63b8ff" d="M185.85,-351.95C205.6,-342.66 231.7,-330.38 253.08,-320.32"/>
<polygon fill="#63b8ff" stroke="#63b8ff" points="254.67,-323.44 262.22,-316.01 251.69,-317.1 254.67,-323.44"/>
</a>
</g>
</g>
<!-- Node7 -->
<g id="Node000007" class="node">
<title>Node7</title>
<g id="a_Node000007"><a xlink:href="GamepadState_8ixx.html" target="_top" xlink:title="Representation of current gamepad input state.">
<polygon fill="white" stroke="#666666" points="392.5,-250 219.5,-250 219.5,-220 392.5,-220 392.5,-250"/>
<text text-anchor="start" x="227.5" y="-238" font-family="Helvetica,sans-Serif" font-size="10.00">helios.input.gamepad.Gamepad</text>
<text text-anchor="middle" x="306" y="-227" font-family="Helvetica,sans-Serif" font-size="10.00">State</text>
</a>
</g>
</g>
<!-- Node6&#45;&gt;Node7 -->
<g id="edge6_Node000006_Node000007" class="edge">
<title>Node6&#45;&gt;Node7</title>
<g id="a_edge6_Node000006_Node000007"><a xlink:title=" ">
<path fill="none" stroke="#63b8ff" d="M295.11,-285.8C296.76,-278.26 298.83,-268.78 300.72,-260.13"/>
<polygon fill="#63b8ff" stroke="#63b8ff" points="304.18,-260.68 302.9,-250.16 297.35,-259.19 304.18,-260.68"/>
</a>
</g>
</g>
<!-- Node8 -->
<g id="Node000008" class="node">
<title>Node8</title>
<g id="a_Node000008"><a xlink:href="LogManager_8ixx.html" target="_top" xlink:title="Central manager for scoped loggers with configurable sinks.">
<polygon fill="white" stroke="#666666" points="775,-184 629,-184 629,-165 775,-165 775,-184"/>
<text text-anchor="middle" x="702" y="-172" font-family="Helvetica,sans-Serif" font-size="10.00">helios.util.log.LogManager</text>
</a>
</g>
</g>
<!-- Node7&#45;&gt;Node8 -->
<g id="edge7_Node000007_Node000008" class="edge">
<title>Node7&#45;&gt;Node8</title>
<g id="a_edge7_Node000007_Node000008"><a xlink:title=" ">
<path fill="none" stroke="#63b8ff" d="M392.9,-221.16C465.56,-210.43 567.72,-195.34 634.38,-185.49"/>
<polygon fill="#63b8ff" stroke="#63b8ff" points="634.98,-188.94 644.36,-184.01 633.96,-182.01 634.98,-188.94"/>
</a>
</g>
</g>
<!-- Node15 -->
<g id="Node000015" class="node">
<title>Node15</title>
<g id="a_Node000015"><a xlink:href="Logger_8ixx.html" target="_top" xlink:title="Simple synchronous logger with configurable output sinks.">
<polygon fill="white" stroke="#666666" points="635.5,-129 516.5,-129 516.5,-110 635.5,-110 635.5,-129"/>
<text text-anchor="middle" x="576" y="-117" font-family="Helvetica,sans-Serif" font-size="10.00">helios.util.log.Logger</text>
</a>
</g>
</g>
<!-- Node7&#45;&gt;Node15 -->
<g id="edge22_Node000007_Node000015" class="edge">
<title>Node7&#45;&gt;Node15</title>
<g id="a_edge22_Node000007_Node000015"><a xlink:title=" ">
<path fill="none" stroke="#63b8ff" d="M339.38,-219.97C392.42,-197.67 495.14,-154.49 545.99,-133.12"/>
<polygon fill="#63b8ff" stroke="#63b8ff" points="547.57,-136.25 555.44,-129.14 544.86,-129.79 547.57,-136.25"/>
</a>
</g>
</g>
<!-- Node7&#45;&gt;Node17 -->
<g id="edge23_Node000007_Node000017" class="edge">
<title>Node7&#45;&gt;Node17</title>
<g id="a_edge23_Node000007_Node000017"><a xlink:title=" ">
<path fill="none" stroke="#63b8ff" d="M245.16,-219.99C200.28,-209.65 140.11,-195.79 98.92,-186.31"/>
<polygon fill="#63b8ff" stroke="#63b8ff" points="99.67,-182.89 89.14,-184.05 98.1,-189.71 99.67,-182.89"/>
</a>
</g>
</g>
<!-- Node9 -->
<g id="Node000009" class="node">
<title>Node9</title>
<g id="a_Node000009"><a xlink:title=" ">
<polygon fill="#e0e0e0" stroke="#999999" points="669,-19 625,-19 625,0 669,0 669,-19"/>
<text text-anchor="middle" x="647" y="-7" font-family="Helvetica,sans-Serif" font-size="10.00">string</text>
</a>
</g>
</g>
<!-- Node8&#45;&gt;Node9 -->
<g id="edge8_Node000008_Node000009" class="edge">
<title>Node8&#45;&gt;Node9</title>
<g id="a_edge8_Node000008_Node000009"><a xlink:title=" ">
<path fill="none" stroke="#63b8ff" d="M765.31,-164.99C800.45,-156.77 835.21,-140.79 825,-110 815.4,-81.06 808.78,-72.77 784,-55 752.51,-32.41 708.94,-20.87 679.46,-15.27"/>
<polygon fill="#63b8ff" stroke="#63b8ff" points="679.74,-11.76 669.28,-13.47 678.52,-18.66 679.74,-11.76"/>
</a>
</g>
</g>
<!-- Node10 -->
<g id="Node000010" class="node">
<title>Node10</title>
<g id="a_Node000010"><a xlink:title=" ">
<polygon fill="#e0e0e0" stroke="#999999" points="1068.5,-129 975.5,-129 975.5,-110 1068.5,-110 1068.5,-129"/>
<text text-anchor="middle" x="1022" y="-117" font-family="Helvetica,sans-Serif" font-size="10.00">unordered_map</text>
</a>
</g>
</g>
<!-- Node8&#45;&gt;Node10 -->
<g id="edge9_Node000008_Node000010" class="edge">
<title>Node8&#45;&gt;Node10</title>
<g id="a_edge9_Node000008_Node000010"><a xlink:title=" ">
<path fill="none" stroke="#63b8ff" d="M753.41,-164.98C811.37,-155.39 905.31,-139.83 965.33,-129.89"/>
<polygon fill="#63b8ff" stroke="#63b8ff" points="966.1,-133.31 975.4,-128.22 964.96,-126.4 966.1,-133.31"/>
</a>
</g>
</g>
<!-- Node11 -->
<g id="Node000011" class="node">
<title>Node11</title>
<g id="a_Node000011"><a xlink:title=" ">
<polygon fill="#e0e0e0" stroke="#999999" points="816,-129 730,-129 730,-110 816,-110 816,-129"/>
<text text-anchor="middle" x="773" y="-117" font-family="Helvetica,sans-Serif" font-size="10.00">unordered_set</text>
</a>
</g>
</g>
<!-- Node8&#45;&gt;Node11 -->
<g id="edge10_Node000008_Node000011" class="edge">
<title>Node8&#45;&gt;Node11</title>
<g id="a_edge10_Node000008_Node000011"><a xlink:title=" ">
<path fill="none" stroke="#63b8ff" d="M713.41,-164.98C724.11,-157 740.34,-144.88 753.16,-135.31"/>
<polygon fill="#63b8ff" stroke="#63b8ff" points="755.47,-137.96 761.39,-129.17 751.28,-132.35 755.47,-137.96"/>
</a>
</g>
</g>
<!-- Node12 -->
<g id="Node000012" class="node">
<title>Node12</title>
<g id="a_Node000012"><a xlink:title=" ">
<polygon fill="#e0e0e0" stroke="#999999" points="930,-74 872,-74 872,-55 930,-55 930,-74"/>
<text text-anchor="middle" x="901" y="-62" font-family="Helvetica,sans-Serif" font-size="10.00">memory</text>
</a>
</g>
</g>
<!-- Node8&#45;&gt;Node12 -->
<g id="edge11_Node000008_Node000012" class="edge">
<title>Node8&#45;&gt;Node12</title>
<g id="a_edge11_Node000008_Node000012"><a xlink:title=" ">
<path fill="none" stroke="#63b8ff" d="M768.74,-165C798.22,-158.71 832,-147.83 858,-129 873.97,-117.44 885.85,-98.01 893.03,-83.68"/>
<polygon fill="#63b8ff" stroke="#63b8ff" points="896.34,-84.87 897.42,-74.33 890,-81.9 896.34,-84.87"/>
</a>
</g>
</g>
<!-- Node13 -->
<g id="Node000013" class="node">
<title>Node13</title>
<g id="a_Node000013"><a xlink:title=" ">
<polygon fill="#e0e0e0" stroke="#999999" points="775,-74 727,-74 727,-55 775,-55 775,-74"/>
<text text-anchor="middle" x="751" y="-62" font-family="Helvetica,sans-Serif" font-size="10.00">mutex</text>
</a>
</g>
</g>
<!-- Node8&#45;&gt;Node13 -->
<g id="edge12_Node000008_Node000013" class="edge">
<title>Node8&#45;&gt;Node13</title>
<g id="a_edge12_Node000008_Node000013"><a xlink:title=" ">
<path fill="none" stroke="#63b8ff" d="M703.69,-164.98C706.35,-152.51 712.14,-128.72 721,-110 725.57,-100.33 732.08,-90.39 737.86,-82.36"/>
<polygon fill="#63b8ff" stroke="#63b8ff" points="740.76,-84.33 743.95,-74.22 735.15,-80.13 740.76,-84.33"/>
</a>
</g>
</g>
<!-- Node14 -->
<g id="Node000014" class="node">
<title>Node14</title>
<g id="a_Node000014"><a xlink:title=" ">
<polygon fill="#e0e0e0" stroke="#999999" points="511.5,-74 464.5,-74 464.5,-55 511.5,-55 511.5,-74"/>
<text text-anchor="middle" x="488" y="-62" font-family="Helvetica,sans-Serif" font-size="10.00">vector</text>
</a>
</g>
</g>
<!-- Node8&#45;&gt;Node14 -->
<g id="edge13_Node000008_Node000014" class="edge">
<title>Node8&#45;&gt;Node14</title>
<g id="a_edge13_Node000008_Node000014"><a xlink:title=" ">
<path fill="none" stroke="#63b8ff" d="M632.83,-164.98C584.76,-157.72 526.18,-145.79 508,-129 495.67,-117.62 490.89,-98.72 489.07,-84.49"/>
<polygon fill="#63b8ff" stroke="#63b8ff" points="492.53,-83.96 488.15,-74.32 485.56,-84.59 492.53,-83.96"/>
</a>
</g>
</g>
<!-- Node8&#45;&gt;Node15 -->
<g id="edge14_Node000008_Node000015" class="edge">
<title>Node8&#45;&gt;Node15</title>
<g id="a_edge14_Node000008_Node000015"><a xlink:title=" ">
<path fill="none" stroke="#63b8ff" d="M681.76,-164.98C661.3,-156.38 629.47,-142.99 606.07,-133.15"/>
<polygon fill="#63b8ff" stroke="#63b8ff" points="607.19,-129.82 596.61,-129.17 604.47,-136.27 607.19,-129.82"/>
</a>
</g>
</g>
<!-- Node16 -->
<g id="Node000016" class="node">
<title>Node16</title>
<g id="a_Node000016"><a xlink:href="LogSink_8ixx.html" target="_top" xlink:title="Abstract interface for log output destinations.">
<polygon fill="white" stroke="#666666" points="709,-74 585,-74 585,-55 709,-55 709,-74"/>
<text text-anchor="middle" x="647" y="-62" font-family="Helvetica,sans-Serif" font-size="10.00">helios.util.log.LogSink</text>
</a>
</g>
</g>
<!-- Node8&#45;&gt;Node16 -->
<g id="edge21_Node000008_Node000016" class="edge">
<title>Node8&#45;&gt;Node16</title>
<g id="a_edge21_Node000008_Node000016"><a xlink:title=" ">
<path fill="none" stroke="#63b8ff" d="M697.5,-164.66C688.47,-146.93 668,-106.73 656.07,-83.32"/>
<polygon fill="#63b8ff" stroke="#63b8ff" points="659.07,-81.48 651.41,-74.16 652.83,-84.66 659.07,-81.48"/>
</a>
</g>
</g>
<!-- Node15&#45;&gt;Node9 -->
<g id="edge15_Node000015_Node000009" class="edge">
<title>Node15&#45;&gt;Node9</title>
<g id="a_edge15_Node000015_Node000009"><a xlink:title=" ">
<path fill="none" stroke="#63b8ff" d="M573.46,-109.62C570.29,-96.7 566.39,-72.36 576,-55 584.49,-39.65 600.74,-28.89 615.55,-21.8"/>
<polygon fill="#63b8ff" stroke="#63b8ff" points="617.23,-24.88 624.98,-17.66 614.41,-18.47 617.23,-24.88"/>
</a>
</g>
</g>
<!-- Node15&#45;&gt;Node12 -->
<g id="edge17_Node000015_Node000012" class="edge">
<title>Node15&#45;&gt;Node12</title>
<g id="a_edge17_Node000015_Node000012"><a xlink:title=" ">
<path fill="none" stroke="#63b8ff" d="M628.22,-109.98C693.39,-99.36 803.36,-81.42 861.78,-71.9"/>
<polygon fill="#63b8ff" stroke="#63b8ff" points="862.42,-75.34 871.73,-70.27 861.29,-68.43 862.42,-75.34"/>
</a>
</g>
</g>
<!-- Node15&#45;&gt;Node13 -->
<g id="edge18_Node000015_Node000013" class="edge">
<title>Node15&#45;&gt;Node13</title>
<g id="a_edge18_Node000015_Node000013"><a xlink:title=" ">
<path fill="none" stroke="#63b8ff" d="M604.12,-109.98C634.94,-100.65 684.37,-85.68 717.26,-75.72"/>
<polygon fill="#63b8ff" stroke="#63b8ff" points="718.34,-79.05 726.9,-72.8 716.31,-72.35 718.34,-79.05"/>
</a>
</g>
</g>
<!-- Node15&#45;&gt;Node14 -->
<g id="edge16_Node000015_Node000014" class="edge">
<title>Node15&#45;&gt;Node14</title>
<g id="a_edge16_Node000015_Node000014"><a xlink:title=" ">
<path fill="none" stroke="#63b8ff" d="M561.86,-109.98C548.21,-101.77 527.31,-89.18 511.22,-79.49"/>
<polygon fill="#63b8ff" stroke="#63b8ff" points="512.77,-76.33 502.4,-74.17 509.16,-82.33 512.77,-76.33"/>
</a>
</g>
</g>
<!-- Node15&#45;&gt;Node16 -->
<g id="edge19_Node000015_Node000016" class="edge">
<title>Node15&#45;&gt;Node16</title>
<g id="a_edge19_Node000015_Node000016"><a xlink:title=" ">
<path fill="none" stroke="#63b8ff" d="M587.41,-109.98C598.11,-102 614.34,-89.88 627.16,-80.31"/>
<polygon fill="#63b8ff" stroke="#63b8ff" points="629.47,-82.96 635.39,-74.17 625.28,-77.35 629.47,-82.96"/>
</a>
</g>
</g>
<!-- Node16&#45;&gt;Node9 -->
<g id="edge20_Node000016_Node000009" class="edge">
<title>Node16&#45;&gt;Node9</title>
<g id="a_edge20_Node000016_Node000009"><a xlink:title=" ">
<path fill="none" stroke="#63b8ff" d="M647,-54.75C647,-47.8 647,-37.85 647,-29.13"/>
<polygon fill="#63b8ff" stroke="#63b8ff" points="650.5,-29.09 647,-19.09 643.5,-29.09 650.5,-29.09"/>
</a>
</g>
</g>
<!-- Node17&#45;&gt;Node17 -->
<g id="edge24_Node000017_Node000017" class="edge">
<title>Node17&#45;&gt;Node17</title>
<g id="a_edge24_Node000017_Node000017"><a xlink:title=" ">
<path fill="none" stroke="#63b8ff" d="M84.77,-184.03C104,-186.06 122,-182.88 122,-174.5 122,-167.62 109.89,-164.25 94.92,-164.38"/>
<polygon fill="#63b8ff" stroke="#63b8ff" points="94.55,-160.89 84.77,-164.97 94.95,-167.88 94.55,-160.89"/>
</a>
</g>
</g>
<!-- Node18&#45;&gt;Node3 -->
<g id="edge36_Node000018_Node000003" class="edge">
<title>Node18&#45;&gt;Node3</title>
<g id="a_edge36_Node000018_Node000003"><a xlink:title=" ">
<path fill="none" stroke="#63b8ff" d="M548.21,-423.44C504.39,-411.99 426.66,-391.68 378.42,-379.08"/>
<polygon fill="#63b8ff" stroke="#63b8ff" points="379.15,-375.66 368.59,-376.51 377.38,-382.43 379.15,-375.66"/>
</a>
</g>
</g>
<!-- Node18&#45;&gt;Node4 -->
<g id="edge35_Node000018_Node000004" class="edge">
<title>Node18&#45;&gt;Node4</title>
<g id="a_edge35_Node000018_Node000004"><a xlink:title=" ">
<path fill="none" stroke="#63b8ff" d="M520.76,-423.46C454.89,-414.05 345.93,-398.28 241.61,-382.08"/>
<polygon fill="#63b8ff" stroke="#63b8ff" points="241.95,-378.59 231.53,-380.51 240.88,-385.51 241.95,-378.59"/>
</a>
</g>
</g>
<!-- Node18&#45;&gt;Node10 -->
<g id="edge33_Node000018_Node000010" class="edge">
<title>Node18&#45;&gt;Node10</title>
<g id="a_edge33_Node000018_Node000010"><a xlink:title=" ">
<path fill="none" stroke="#63b8ff" d="M669.01,-428.76C805.15,-422.94 1054.4,-408.74 1085,-382 1112.52,-357.95 1104,-338.54 1104,-302 1104,-302 1104,-302 1104,-234 1104,-192.03 1066.71,-155.05 1042.42,-135.41"/>
<polygon fill="#63b8ff" stroke="#63b8ff" points="1044.49,-132.6 1034.45,-129.21 1040.19,-138.12 1044.49,-132.6"/>
</a>
</g>
</g>
<!-- Node18&#45;&gt;Node12 -->
<g id="edge30_Node000018_Node000012" class="edge">
<title>Node18&#45;&gt;Node12</title>
<g id="a_edge30_Node000018_Node000012"><a xlink:title=" ">
<path fill="none" stroke="#63b8ff" d="M669.07,-428.53C809.88,-422.26 1073.44,-407.29 1108,-382 1139.18,-359.18 1142,-340.63 1142,-302 1142,-302 1142,-302 1142,-173.5 1142,-86.24 1008.8,-69.03 940.45,-65.95"/>
<polygon fill="#63b8ff" stroke="#63b8ff" points="940.19,-62.44 930.07,-65.57 939.93,-69.43 940.19,-62.44"/>
</a>
</g>
</g>
<!-- Node18&#45;&gt;Node14 -->
<g id="edge34_Node000018_Node000014" class="edge">
<title>Node18&#45;&gt;Node14</title>
<g id="a_edge34_Node000018_Node000014"><a xlink:title=" ">
<path fill="none" stroke="#63b8ff" d="M540.52,-423.49C516.37,-416.35 487,-403.72 469,-382 445.68,-353.86 450,-338.54 450,-302 450,-302 450,-302 450,-173.5 450,-140.02 466.45,-103.84 477.7,-83.01"/>
<polygon fill="#63b8ff" stroke="#63b8ff" points="480.87,-84.53 482.72,-74.1 474.76,-81.1 480.87,-84.53"/>
</a>
</g>
</g>
<!-- Node19 -->
<g id="Node000019" class="node">
<title>Node19</title>
<g id="a_Node000019"><a xlink:title=" ">
<polygon fill="#e0e0e0" stroke="#999999" points="530,-376.5 478,-376.5 478,-357.5 530,-357.5 530,-376.5"/>
<text text-anchor="middle" x="504" y="-364.5" font-family="Helvetica,sans-Serif" font-size="10.00">cassert</text>
</a>
</g>
</g>
<!-- Node18&#45;&gt;Node19 -->
<g id="edge28_Node000018_Node000019" class="edge">
<title>Node18&#45;&gt;Node19</title>
<g id="a_edge28_Node000018_Node000019"><a xlink:title=" ">
<path fill="none" stroke="#63b8ff" d="M570.62,-423.37C558.28,-413.12 537.49,-395.84 522.41,-383.31"/>
<polygon fill="#63b8ff" stroke="#63b8ff" points="524.64,-380.61 514.71,-376.91 520.17,-385.99 524.64,-380.61"/>
</a>
</g>
</g>
<!-- Node20 -->
<g id="Node000020" class="node">
<title>Node20</title>
<g id="a_Node000020"><a xlink:title=" ">
<polygon fill="#e0e0e0" stroke="#999999" points="613.5,-376.5 548.5,-376.5 548.5,-357.5 613.5,-357.5 613.5,-376.5"/>
<text text-anchor="middle" x="581" y="-364.5" font-family="Helvetica,sans-Serif" font-size="10.00">functional</text>
</a>
</g>
</g>
<!-- Node18&#45;&gt;Node20 -->
<g id="edge29_Node000018_Node000020" class="edge">
<title>Node18&#45;&gt;Node20</title>
<g id="a_edge29_Node000018_Node000020"><a xlink:title=" ">
<path fill="none" stroke="#63b8ff" d="M581,-423.37C581,-414.16 581,-399.29 581,-387.27"/>
<polygon fill="#63b8ff" stroke="#63b8ff" points="584.5,-386.91 581,-376.91 577.5,-386.91 584.5,-386.91"/>
</a>
</g>
</g>
<!-- Node21 -->
<g id="Node000021" class="node">
<title>Node21</title>
<g id="a_Node000021"><a xlink:title=" ">
<polygon fill="#e0e0e0" stroke="#999999" points="700.5,-376.5 631.5,-376.5 631.5,-357.5 700.5,-357.5 700.5,-376.5"/>
<text text-anchor="middle" x="666" y="-364.5" font-family="Helvetica,sans-Serif" font-size="10.00">type_traits</text>
</a>
</g>
</g>
<!-- Node18&#45;&gt;Node21 -->
<g id="edge31_Node000018_Node000021" class="edge">
<title>Node18&#45;&gt;Node21</title>
<g id="a_edge31_Node000018_Node000021"><a xlink:title=" ">
<path fill="none" stroke="#63b8ff" d="M592.46,-423.37C606.28,-412.97 629.71,-395.32 646.41,-382.75"/>
<polygon fill="#63b8ff" stroke="#63b8ff" points="648.56,-385.51 654.45,-376.7 644.35,-379.92 648.56,-385.51"/>
</a>
</g>
</g>
<!-- Node22 -->
<g id="Node000022" class="node">
<title>Node22</title>
<g id="a_Node000022"><a xlink:title=" ">
<polygon fill="#e0e0e0" stroke="#999999" points="783.5,-376.5 718.5,-376.5 718.5,-357.5 783.5,-357.5 783.5,-376.5"/>
<text text-anchor="middle" x="751" y="-364.5" font-family="Helvetica,sans-Serif" font-size="10.00">typeindex</text>
</a>
</g>
</g>
<!-- Node18&#45;&gt;Node22 -->
<g id="edge32_Node000018_Node000022" class="edge">
<title>Node18&#45;&gt;Node22</title>
<g id="a_edge32_Node000018_Node000022"><a xlink:title=" ">
<path fill="none" stroke="#63b8ff" d="M603.93,-423.37C633.54,-412.22 685.25,-392.75 718.8,-380.12"/>
<polygon fill="#63b8ff" stroke="#63b8ff" points="720.04,-383.4 728.17,-376.6 717.57,-376.84 720.04,-383.4"/>
</a>
</g>
</g>
<!-- Node23 -->
<g id="Node000023" class="node">
<title>Node23</title>
<g id="a_Node000023"><a xlink:href="Updatable_8ixx.html" target="_top" xlink:title="Interface for components that require per&#45;frame updates.">
<polygon fill="white" stroke="#666666" points="968,-376.5 802,-376.5 802,-357.5 968,-357.5 968,-376.5"/>
<text text-anchor="middle" x="885" y="-364.5" font-family="Helvetica,sans-Serif" font-size="10.00">helios.engine.game.Updatable</text>
</a>
</g>
</g>
<!-- Node18&#45;&gt;Node23 -->
<g id="edge37_Node000018_Node000023" class="edge">
<title>Node18&#45;&gt;Node23</title>
<g id="a_edge37_Node000018_Node000023"><a xlink:title=" ">
<path fill="none" stroke="#63b8ff" d="M621.68,-423.44C676.74,-411.84 774.94,-391.17 834.61,-378.61"/>
<polygon fill="#63b8ff" stroke="#63b8ff" points="835.49,-382 844.56,-376.51 834.05,-375.15 835.49,-382"/>
</a>
</g>
</g>
<!-- Node24 -->
<g id="Node000024" class="node">
<title>Node24</title>
<g id="a_Node000024"><a xlink:href="Guid_8ixx.html" target="_top" xlink:title="Lightweight GUID (globally unique identifier) implementation.">
<polygon fill="white" stroke="#666666" points="1076,-376.5 986,-376.5 986,-357.5 1076,-357.5 1076,-376.5"/>
<text text-anchor="middle" x="1031" y="-364.5" font-family="Helvetica,sans-Serif" font-size="10.00">helios.util.Guid</text>
</a>
</g>
</g>
<!-- Node18&#45;&gt;Node24 -->
<g id="edge38_Node000018_Node000024" class="edge">
<title>Node18&#45;&gt;Node24</title>
<g id="a_edge38_Node000018_Node000024"><a xlink:title=" ">
<path fill="none" stroke="#63b8ff" d="M669.2,-424.13C749.79,-416.17 872.03,-402.15 977,-382 981.51,-381.13 986.2,-380.11 990.85,-379.01"/>
<polygon fill="#63b8ff" stroke="#63b8ff" points="992.01,-382.33 1000.88,-376.54 990.33,-375.54 992.01,-382.33"/>
</a>
</g>
</g>
<!-- Node25 -->
<g id="Node000025" class="node">
<title>Node25</title>
<g id="a_Node000025"><a xlink:title=" ">
<polygon fill="#e0e0e0" stroke="#999999" points="1066,-310.5 1016,-310.5 1016,-291.5 1066,-291.5 1066,-310.5"/>
<text text-anchor="middle" x="1041" y="-298.5" font-family="Helvetica,sans-Serif" font-size="10.00">atomic</text>
</a>
</g>
</g>
<!-- Node24&#45;&gt;Node25 -->
<g id="edge39_Node000024_Node000025" class="edge">
<title>Node24&#45;&gt;Node25</title>
<g id="a_edge39_Node000024_Node000025"><a xlink:title=" ">
<path fill="none" stroke="#63b8ff" d="M1032.35,-357.37C1033.8,-348.07 1036.16,-332.98 1038.05,-320.9"/>
<polygon fill="#63b8ff" stroke="#63b8ff" points="1041.52,-321.33 1039.61,-310.91 1034.61,-320.25 1041.52,-321.33"/>
</a>
</g>
</g>
<!-- Node26 -->
<g id="Node000026" class="node">
<title>Node26</title>
<g id="a_Node000026"><a xlink:title=" ">
<polygon fill="#e0e0e0" stroke="#999999" points="998,-310.5 948,-310.5 948,-291.5 998,-291.5 998,-310.5"/>
<text text-anchor="middle" x="973" y="-298.5" font-family="Helvetica,sans-Serif" font-size="10.00">cstdint</text>
</a>
</g>
</g>
<!-- Node24&#45;&gt;Node26 -->
<g id="edge40_Node000024_Node000026" class="edge">
<title>Node24&#45;&gt;Node26</title>
<g id="a_edge40_Node000024_Node000026"><a xlink:title=" ">
<path fill="none" stroke="#63b8ff" d="M1023.18,-357.37C1014.15,-347.4 999.09,-330.79 987.83,-318.36"/>
<polygon fill="#63b8ff" stroke="#63b8ff" points="990.38,-315.96 981.07,-310.91 985.19,-320.67 990.38,-315.96"/>
</a>
</g>
</g>
<!-- Node27&#45;&gt;Node18 -->
<g id="edge42_Node000027_Node000018" class="edge">
<title>Node27&#45;&gt;Node18</title>
<g id="a_edge42_Node000027_Node000018"><a xlink:title=" ">
<path fill="none" stroke="#63b8ff" d="M565.66,-483.87C568.18,-475.66 572.06,-463.04 575.29,-452.55"/>
<polygon fill="#63b8ff" stroke="#63b8ff" points="578.74,-453.25 578.33,-442.67 572.05,-451.2 578.74,-453.25"/>
</a>
</g>
</g>
</g>
</svg>
