<?xml version="1.0" encoding="UTF-8" standalone="no"?>
<!DOCTYPE svg PUBLIC "-//W3C//DTD SVG 1.1//EN"
 "http://www.w3.org/Graphics/SVG/1.1/DTD/svg11.dtd">
<!-- Generated by graphviz version 2.43.0 (0)
 -->
<!-- Title: include/helios/event/BasicEventManager.ixx Pages: 1 -->
<svg width="568pt" height="313pt"
 viewBox="0.00 0.00 567.81 313.00" xmlns="http://www.w3.org/2000/svg" xmlns:xlink="http://www.w3.org/1999/xlink">
<g id="graph0" class="graph" transform="scale(1 1) rotate(0) translate(4 309)">
<title>include/helios/event/BasicEventManager.ixx</title>
<!-- Node1 -->
<g id="Node000001" class="node">
<title>Node1</title>
<g id="a_Node000001"><a xlink:title="Default implementation of an EventManager.">
<polygon fill="#999999" stroke="#666666" points="264.81,-305 130.81,-305 130.81,-275 264.81,-275 264.81,-305"/>
<text text-anchor="start" x="138.81" y="-293" font-family="Helvetica,sans-Serif" font-size="10.00">include/helios/event</text>
<text text-anchor="middle" x="197.81" y="-282" font-family="Helvetica,sans-Serif" font-size="10.00">/BasicEventManager.ixx</text>
</a>
</g>
</g>
<!-- Node2 -->
<g id="Node000002" class="node">
<title>Node2</title>
<g id="a_Node000002"><a xlink:title=" ">
<polygon fill="#e0e0e0" stroke="#999999" points="222.31,-129 157.31,-129 157.31,-110 222.31,-110 222.31,-129"/>
<text text-anchor="middle" x="189.81" y="-117" font-family="Helvetica,sans-Serif" font-size="10.00">functional</text>
</a>
</g>
</g>
<!-- Node1&#45;&gt;Node2 -->
<g id="edge1_Node000001_Node000002" class="edge">
<title>Node1&#45;&gt;Node2</title>
<g id="a_edge1_Node000001_Node000002"><a xlink:title=" ">
<path fill="none" stroke="#63b8ff" d="M143.28,-274.93C77.98,-255.41 -17.91,-216.61 21.81,-165 37,-145.26 102.5,-132.47 147.08,-125.88"/>
<polygon fill="#63b8ff" stroke="#63b8ff" points="147.68,-129.33 157.09,-124.45 146.69,-122.4 147.68,-129.33"/>
</a>
</g>
</g>
<!-- Node3 -->
<g id="Node000003" class="node">
<title>Node3</title>
<g id="a_Node000003"><a xlink:title=" ">
<polygon fill="#e0e0e0" stroke="#999999" points="326.81,-74 268.81,-74 268.81,-55 326.81,-55 326.81,-74"/>
<text text-anchor="middle" x="297.81" y="-62" font-family="Helvetica,sans-Serif" font-size="10.00">memory</text>
</a>
</g>
</g>
<!-- Node1&#45;&gt;Node3 -->
<g id="edge2_Node000001_Node000003" class="edge">
<title>Node1&#45;&gt;Node3</title>
<g id="a_edge2_Node000001_Node000003"><a xlink:title=" ">
<path fill="none" stroke="#63b8ff" d="M130.67,-285.13C94.8,-279.62 52.45,-267.06 24.81,-239 1.26,-215.09 -8.13,-193.36 9.81,-165 62.85,-81.15 192.76,-66.76 258.44,-65.05"/>
<polygon fill="#63b8ff" stroke="#63b8ff" points="258.84,-68.55 268.78,-64.88 258.72,-61.55 258.84,-68.55"/>
</a>
</g>
</g>
<!-- Node4 -->
<g id="Node000004" class="node">
<title>Node4</title>
<g id="a_Node000004"><a xlink:href="Event_8ixx.html" target="_top" xlink:title="Base class for events in the helios framework.">
<polygon fill="white" stroke="#666666" points="554.31,-129 447.31,-129 447.31,-110 554.31,-110 554.31,-129"/>
<text text-anchor="middle" x="500.81" y="-117" font-family="Helvetica,sans-Serif" font-size="10.00">helios.event.Event</text>
</a>
</g>
</g>
<!-- Node1&#45;&gt;Node4 -->
<g id="edge3_Node000001_Node000004" class="edge">
<title>Node1&#45;&gt;Node4</title>
<g id="a_edge3_Node000001_Node000004"><a xlink:title=" ">
<path fill="none" stroke="#63b8ff" d="M264.84,-284.87C333.19,-276.79 436.65,-253.11 490.81,-184 500.6,-171.51 502.6,-153.31 502.44,-139.59"/>
<polygon fill="#63b8ff" stroke="#63b8ff" points="505.93,-139.15 501.93,-129.34 498.93,-139.51 505.93,-139.15"/>
</a>
</g>
</g>
<!-- Node8 -->
<g id="Node000008" class="node">
<title>Node8</title>
<g id="a_Node000008"><a xlink:href="Dispatcher_8ixx.html" target="_top" xlink:title="Dispatches events to registered callbacks.">
<polygon fill="white" stroke="#666666" points="460.81,-184 328.81,-184 328.81,-165 460.81,-165 460.81,-184"/>
<text text-anchor="middle" x="394.81" y="-172" font-family="Helvetica,sans-Serif" font-size="10.00">helios.event.Dispatcher</text>
</a>
</g>
</g>
<!-- Node1&#45;&gt;Node8 -->
<g id="edge8_Node000001_Node000008" class="edge">
<title>Node1&#45;&gt;Node8</title>
<g id="a_edge8_Node000001_Node000008"><a xlink:title=" ">
<path fill="none" stroke="#63b8ff" d="M253.1,-274.92C278.91,-266.83 309.28,-255.03 333.81,-239 353.31,-226.26 371.21,-206.19 382.5,-192.03"/>
<polygon fill="#63b8ff" stroke="#63b8ff" points="385.29,-194.14 388.64,-184.09 379.75,-189.86 385.29,-194.14"/>
</a>
</g>
</g>
<!-- Node10 -->
<g id="Node000010" class="node">
<title>Node10</title>
<g id="a_Node000010"><a xlink:href="EventQueue_8ixx.html" target="_top" xlink:title="Thread&#45;safe queue for Event objects.">
<polygon fill="white" stroke="#666666" points="170.31,-184 31.31,-184 31.31,-165 170.31,-165 170.31,-184"/>
<text text-anchor="middle" x="100.81" y="-172" font-family="Helvetica,sans-Serif" font-size="10.00">helios.event.EventQueue</text>
</a>
</g>
</g>
<!-- Node1&#45;&gt;Node10 -->
<g id="edge13_Node000001_Node000010" class="edge">
<title>Node1&#45;&gt;Node10</title>
<g id="a_edge13_Node000001_Node000010"><a xlink:title=" ">
<path fill="none" stroke="#63b8ff" d="M185.53,-274.63C167.52,-253.56 134.06,-214.4 115.02,-192.13"/>
<polygon fill="#63b8ff" stroke="#63b8ff" points="117.43,-189.56 108.27,-184.23 112.11,-194.11 117.43,-189.56"/>
</a>
</g>
</g>
<!-- Node11 -->
<g id="Node000011" class="node">
<title>Node11</title>
<g id="a_Node000011"><a xlink:href="EventManager_8ixx.html" target="_top" xlink:title="High&#45;level event manager dispatching events to listeners.">
<polygon fill="white" stroke="#666666" points="324.81,-239 174.81,-239 174.81,-220 324.81,-220 324.81,-239"/>
<text text-anchor="middle" x="249.81" y="-227" font-family="Helvetica,sans-Serif" font-size="10.00">helios.event.EventManager</text>
</a>
</g>
</g>
<!-- Node1&#45;&gt;Node11 -->
<g id="edge17_Node000001_Node000011" class="edge">
<title>Node1&#45;&gt;Node11</title>
<g id="a_edge17_Node000001_Node000011"><a xlink:title=" ">
<path fill="none" stroke="#63b8ff" d="M210.4,-274.84C217.87,-266.43 227.38,-255.74 235.18,-246.96"/>
<polygon fill="#63b8ff" stroke="#63b8ff" points="237.99,-249.07 242.02,-239.27 232.76,-244.41 237.99,-249.07"/>
</a>
</g>
</g>
<!-- Node4&#45;&gt;Node3 -->
<g id="edge4_Node000004_Node000003" class="edge">
<title>Node4&#45;&gt;Node3</title>
<g id="a_edge4_Node000004_Node000003"><a xlink:title=" ">
<path fill="none" stroke="#63b8ff" d="M468.2,-109.98C432.39,-100.64 374.94,-85.64 336.79,-75.68"/>
<polygon fill="#63b8ff" stroke="#63b8ff" points="337.61,-72.27 327.05,-73.13 335.84,-79.05 337.61,-72.27"/>
</a>
</g>
</g>
<!-- Node5 -->
<g id="Node000005" class="node">
<title>Node5</title>
<g id="a_Node000005"><a xlink:href="Guid_8ixx.html" target="_top" xlink:title="Lightweight GUID (globally unique identifier) implementation.">
<polygon fill="white" stroke="#666666" points="545.81,-74 455.81,-74 455.81,-55 545.81,-55 545.81,-74"/>
<text text-anchor="middle" x="500.81" y="-62" font-family="Helvetica,sans-Serif" font-size="10.00">helios.util.Guid</text>
</a>
</g>
</g>
<!-- Node4&#45;&gt;Node5 -->
<g id="edge5_Node000004_Node000005" class="edge">
<title>Node4&#45;&gt;Node5</title>
<g id="a_edge5_Node000004_Node000005"><a xlink:title=" ">
<path fill="none" stroke="#63b8ff" d="M500.81,-109.75C500.81,-102.8 500.81,-92.85 500.81,-84.13"/>
<polygon fill="#63b8ff" stroke="#63b8ff" points="504.31,-84.09 500.81,-74.09 497.31,-84.09 504.31,-84.09"/>
</a>
</g>
</g>
<!-- Node6 -->
<g id="Node000006" class="node">
<title>Node6</title>
<g id="a_Node000006"><a xlink:title=" ">
<polygon fill="#e0e0e0" stroke="#999999" points="491.81,-19 441.81,-19 441.81,0 491.81,0 491.81,-19"/>
<text text-anchor="middle" x="466.81" y="-7" font-family="Helvetica,sans-Serif" font-size="10.00">atomic</text>
</a>
</g>
</g>
<!-- Node5&#45;&gt;Node6 -->
<g id="edge6_Node000005_Node000006" class="edge">
<title>Node5&#45;&gt;Node6</title>
<g id="a_edge6_Node000005_Node000006"><a xlink:title=" ">
<path fill="none" stroke="#63b8ff" d="M495.2,-54.75C490.49,-47.42 483.64,-36.73 477.84,-27.7"/>
<polygon fill="#63b8ff" stroke="#63b8ff" points="480.67,-25.62 472.32,-19.09 474.77,-29.4 480.67,-25.62"/>
</a>
</g>
</g>
<!-- Node7 -->
<g id="Node000007" class="node">
<title>Node7</title>
<g id="a_Node000007"><a xlink:title=" ">
<polygon fill="#e0e0e0" stroke="#999999" points="559.81,-19 509.81,-19 509.81,0 559.81,0 559.81,-19"/>
<text text-anchor="middle" x="534.81" y="-7" font-family="Helvetica,sans-Serif" font-size="10.00">cstdint</text>
</a>
</g>
</g>
<!-- Node5&#45;&gt;Node7 -->
<g id="edge7_Node000005_Node000007" class="edge">
<title>Node5&#45;&gt;Node7</title>
<g id="a_edge7_Node000005_Node000007"><a xlink:title=" ">
<path fill="none" stroke="#63b8ff" d="M506.43,-54.75C511.13,-47.42 517.98,-36.73 523.78,-27.7"/>
<polygon fill="#63b8ff" stroke="#63b8ff" points="526.85,-29.4 529.3,-19.09 520.96,-25.62 526.85,-29.4"/>
</a>
</g>
</g>
<!-- Node8&#45;&gt;Node2 -->
<g id="edge9_Node000008_Node000002" class="edge">
<title>Node8&#45;&gt;Node2</title>
<g id="a_edge9_Node000008_Node000002"><a xlink:title=" ">
<path fill="none" stroke="#63b8ff" d="M361.87,-164.98C326.65,-155.88 270.68,-141.41 232.2,-131.46"/>
<polygon fill="#63b8ff" stroke="#63b8ff" points="232.88,-128.02 222.33,-128.91 231.13,-134.8 232.88,-128.02"/>
</a>
</g>
</g>
<!-- Node8&#45;&gt;Node3 -->
<g id="edge10_Node000008_Node000003" class="edge">
<title>Node8&#45;&gt;Node3</title>
<g id="a_edge10_Node000008_Node000003"><a xlink:title=" ">
<path fill="none" stroke="#63b8ff" d="M387.14,-164.97C379.09,-156.01 366.06,-141.52 354.81,-129 340.36,-112.91 323.85,-94.51 312.33,-81.68"/>
<polygon fill="#63b8ff" stroke="#63b8ff" points="314.84,-79.23 305.55,-74.13 309.63,-83.91 314.84,-79.23"/>
</a>
</g>
</g>
<!-- Node8&#45;&gt;Node4 -->
<g id="edge12_Node000008_Node000004" class="edge">
<title>Node8&#45;&gt;Node4</title>
<g id="a_edge12_Node000008_Node000004"><a xlink:title=" ">
<path fill="none" stroke="#63b8ff" d="M411.84,-164.98C428.74,-156.54 454.88,-143.47 474.45,-133.68"/>
<polygon fill="#63b8ff" stroke="#63b8ff" points="476.09,-136.77 483.47,-129.17 472.96,-130.51 476.09,-136.77"/>
</a>
</g>
</g>
<!-- Node9 -->
<g id="Node000009" class="node">
<title>Node9</title>
<g id="a_Node000009"><a xlink:title=" ">
<polygon fill="#e0e0e0" stroke="#999999" points="429.31,-129 364.31,-129 364.31,-110 429.31,-110 429.31,-129"/>
<text text-anchor="middle" x="396.81" y="-117" font-family="Helvetica,sans-Serif" font-size="10.00">typeindex</text>
</a>
</g>
</g>
<!-- Node8&#45;&gt;Node9 -->
<g id="edge11_Node000008_Node000009" class="edge">
<title>Node8&#45;&gt;Node9</title>
<g id="a_edge11_Node000008_Node000009"><a xlink:title=" ">
<path fill="none" stroke="#63b8ff" d="M395.14,-164.75C395.4,-157.8 395.78,-147.85 396.11,-139.13"/>
<polygon fill="#63b8ff" stroke="#63b8ff" points="399.61,-139.21 396.49,-129.09 392.61,-138.95 399.61,-139.21"/>
</a>
</g>
</g>
<!-- Node10&#45;&gt;Node2 -->
<g id="edge14_Node000010_Node000002" class="edge">
<title>Node10&#45;&gt;Node2</title>
<g id="a_edge14_Node000010_Node000002"><a xlink:title=" ">
<path fill="none" stroke="#63b8ff" d="M115.11,-164.98C128.91,-156.77 150.05,-144.18 166.32,-134.49"/>
<polygon fill="#63b8ff" stroke="#63b8ff" points="168.45,-137.29 175.25,-129.17 164.87,-131.28 168.45,-137.29"/>
</a>
</g>
</g>
<!-- Node10&#45;&gt;Node3 -->
<g id="edge15_Node000010_Node000003" class="edge">
<title>Node10&#45;&gt;Node3</title>
<g id="a_edge15_Node000010_Node000003"><a xlink:title=" ">
<path fill="none" stroke="#63b8ff" d="M104.97,-164.69C111.9,-150.95 127.14,-124.48 147.81,-110 181.04,-86.73 226.54,-75.46 258.69,-70.12"/>
<polygon fill="#63b8ff" stroke="#63b8ff" points="259.28,-73.57 268.63,-68.58 258.21,-66.65 259.28,-73.57"/>
</a>
</g>
</g>
<!-- Node10&#45;&gt;Node4 -->
<g id="edge16_Node000010_Node000004" class="edge">
<title>Node10&#45;&gt;Node4</title>
<g id="a_edge16_Node000010_Node000004"><a xlink:title=" ">
<path fill="none" stroke="#63b8ff" d="M165.74,-164.98C231.42,-156.35 336.17,-142.55 437.13,-129.09"/>
<polygon fill="#63b8ff" stroke="#63b8ff" points="437.75,-132.54 447.2,-127.74 436.82,-125.6 437.75,-132.54"/>
</a>
</g>
</g>
<!-- Node11&#45;&gt;Node2 -->
<g id="edge18_Node000011_Node000002" class="edge">
<title>Node11&#45;&gt;Node2</title>
<g id="a_edge18_Node000011_Node000002"><a xlink:title=" ">
<path fill="none" stroke="#63b8ff" d="M242.87,-220C235.98,-211.3 225.37,-197.22 217.81,-184 209.49,-169.45 201.95,-151.97 196.79,-139.04"/>
<polygon fill="#63b8ff" stroke="#63b8ff" points="199.94,-137.47 193.06,-129.41 193.41,-140 199.94,-137.47"/>
</a>
</g>
</g>
<!-- Node11&#45;&gt;Node3 -->
<g id="edge19_Node000011_Node000003" class="edge">
<title>Node11&#45;&gt;Node3</title>
<g id="a_edge19_Node000011_Node000003"><a xlink:title=" ">
<path fill="none" stroke="#63b8ff" d="M257.84,-219.69C265.09,-211.2 275.42,-197.66 280.81,-184 293.98,-150.6 297.11,-108.32 297.76,-84.35"/>
<polygon fill="#63b8ff" stroke="#63b8ff" points="301.27,-84.23 297.92,-74.18 294.27,-84.12 301.27,-84.23"/>
</a>
</g>
</g>
<!-- Node11&#45;&gt;Node4 -->
<g id="edge23_Node000011_Node000004" class="edge">
<title>Node11&#45;&gt;Node4</title>
<g id="a_edge23_Node000011_Node000004"><a xlink:title=" ">
<path fill="none" stroke="#63b8ff" d="M324.86,-220.48C379.38,-213.34 447.38,-201.34 469.81,-184 484.2,-172.88 492.32,-153.35 496.6,-138.88"/>
<polygon fill="#63b8ff" stroke="#63b8ff" points="500.04,-139.58 499.17,-129.02 493.26,-137.81 500.04,-139.58"/>
</a>
</g>
</g>
<!-- Node11&#45;&gt;Node8 -->
<g id="edge21_Node000011_Node000008" class="edge">
<title>Node11&#45;&gt;Node8</title>
<g id="a_edge21_Node000011_Node000008"><a xlink:title=" ">
<path fill="none" stroke="#63b8ff" d="M273.11,-219.98C297.06,-211.23 334.59,-197.51 361.64,-187.62"/>
<polygon fill="#63b8ff" stroke="#63b8ff" points="362.9,-190.89 371.09,-184.17 360.5,-184.32 362.9,-190.89"/>
</a>
</g>
</g>
<!-- Node11&#45;&gt;Node10 -->
<g id="edge22_Node000011_Node000010" class="edge">
<title>Node11&#45;&gt;Node10</title>
<g id="a_edge22_Node000011_Node000010"><a xlink:title=" ">
<path fill="none" stroke="#63b8ff" d="M225.87,-219.98C201.25,-211.23 162.69,-197.51 134.89,-187.62"/>
<polygon fill="#63b8ff" stroke="#63b8ff" points="135.78,-184.22 125.19,-184.17 133.43,-190.82 135.78,-184.22"/>
</a>
</g>
</g>
<!-- Node12 -->
<g id="Node000012" class="node">
<title>Node12</title>
<g id="a_Node000012"><a xlink:title=" ">
<polygon fill="#e0e0e0" stroke="#999999" points="272.31,-184 227.31,-184 227.31,-165 272.31,-165 272.31,-184"/>
<text text-anchor="middle" x="249.81" y="-172" font-family="Helvetica,sans-Serif" font-size="10.00">utility</text>
</a>
</g>
</g>
<!-- Node11&#45;&gt;Node12 -->
<g id="edge20_Node000011_Node000012" class="edge">
<title>Node11&#45;&gt;Node12</title>
<g id="a_edge20_Node000011_Node000012"><a xlink:title=" ">
<path fill="none" stroke="#63b8ff" d="M249.81,-219.75C249.81,-212.8 249.81,-202.85 249.81,-194.13"/>
<polygon fill="#63b8ff" stroke="#63b8ff" points="253.31,-194.09 249.81,-184.09 246.31,-194.09 253.31,-194.09"/>
</a>
</g>
</g>
</g>
</svg>
