<?xml version="1.0" encoding="UTF-8" standalone="no"?>
<!DOCTYPE svg PUBLIC "-//W3C//DTD SVG 1.1//EN"
 "http://www.w3.org/Graphics/SVG/1.1/DTD/svg11.dtd">
<!-- Generated by graphviz version 2.43.0 (0)
 -->
<!-- Title: Bindings.ixx Pages: 1 -->
<svg width="750pt" height="214pt"
 viewBox="0.00 0.00 749.50 214.00" xmlns="http://www.w3.org/2000/svg" xmlns:xlink="http://www.w3.org/1999/xlink">
<g id="graph0" class="graph" transform="scale(1 1) rotate(0) translate(4 210)">
<title>Bindings.ixx</title>
<!-- Node1 -->
<g id="Node000001" class="node">
<title>Node1</title>
<g id="a_Node000001"><a xlink:title="Compile&#45;time bindings mapping state types to their transition ID types.">
<polygon fill="#999999" stroke="#666666" points="411.5,-206 334.5,-206 334.5,-187 411.5,-187 411.5,-206"/>
<text text-anchor="middle" x="373" y="-194" font-family="Helvetica,sans-Serif" font-size="10.00">Bindings.ixx</text>
</a>
</g>
</g>
<!-- Node2 -->
<g id="Node000002" class="node">
<title>Node2</title>
<g id="a_Node000002"><a xlink:href="MatchStateTransitionId_8ixx.html" target="_top" xlink:title="Identifiers for match state transitions.">
<polygon fill="white" stroke="#666666" points="204,-151 0,-151 0,-121 204,-121 204,-151"/>
<text text-anchor="start" x="8" y="-139" font-family="Helvetica,sans-Serif" font-size="10.00">helios.engine.mechanics.match.types.</text>
<text text-anchor="middle" x="102" y="-128" font-family="Helvetica,sans-Serif" font-size="10.00">MatchStateTransitionId</text>
</a>
</g>
</g>
<!-- Node1&#45;&gt;Node2 -->
<g id="edge1_Node000001_Node000002" class="edge">
<title>Node1&#45;&gt;Node2</title>
<g id="a_edge1_Node000001_Node000002"><a xlink:title=" ">
<path fill="none" stroke="#63b8ff" d="M334.46,-187.18C293.64,-178.37 228.15,-164.23 177.07,-153.21"/>
<polygon fill="#63b8ff" stroke="#63b8ff" points="177.57,-149.73 167.06,-151.04 176.1,-156.58 177.57,-149.73"/>
</a>
</g>
</g>
<!-- Node4 -->
<g id="Node000004" class="node">
<title>Node4</title>
<g id="a_Node000004"><a xlink:href="MatchState_8ixx.html" target="_top" xlink:title="Match state enumeration and bitmask operations.">
<polygon fill="white" stroke="#666666" points="334,-85 130,-85 130,-55 334,-55 334,-85"/>
<text text-anchor="start" x="138" y="-73" font-family="Helvetica,sans-Serif" font-size="10.00">helios.engine.mechanics.match.types.</text>
<text text-anchor="middle" x="232" y="-62" font-family="Helvetica,sans-Serif" font-size="10.00">MatchState</text>
</a>
</g>
</g>
<!-- Node1&#45;&gt;Node4 -->
<g id="edge9_Node000001_Node000004" class="edge">
<title>Node1&#45;&gt;Node4</title>
<g id="a_edge9_Node000001_Node000004"><a xlink:title=" ">
<path fill="none" stroke="#63b8ff" d="M334.34,-191.06C307.24,-185.92 272.21,-174.83 251,-151 237.48,-135.81 233.13,-112.76 231.92,-95.29"/>
<polygon fill="#63b8ff" stroke="#63b8ff" points="235.42,-95.12 231.52,-85.26 228.42,-95.39 235.42,-95.12"/>
</a>
</g>
</g>
<!-- Node5 -->
<g id="Node000005" class="node">
<title>Node5</title>
<g id="a_Node000005"><a xlink:href="GameStateTransitionId_8ixx.html" target="_top" xlink:title="Identifiers for game state transitions.">
<polygon fill="white" stroke="#666666" points="486,-151 260,-151 260,-121 486,-121 486,-151"/>
<text text-anchor="start" x="268" y="-139" font-family="Helvetica,sans-Serif" font-size="10.00">helios.engine.mechanics.gamestate.types.</text>
<text text-anchor="middle" x="373" y="-128" font-family="Helvetica,sans-Serif" font-size="10.00">GameStateTransitionId</text>
</a>
</g>
</g>
<!-- Node1&#45;&gt;Node5 -->
<g id="edge5_Node000001_Node000005" class="edge">
<title>Node1&#45;&gt;Node5</title>
<g id="a_edge5_Node000001_Node000005"><a xlink:title=" ">
<path fill="none" stroke="#63b8ff" d="M373,-186.87C373,-180.11 373,-170.35 373,-161.26"/>
<polygon fill="#63b8ff" stroke="#63b8ff" points="376.5,-161.11 373,-151.11 369.5,-161.11 376.5,-161.11"/>
</a>
</g>
</g>
<!-- Node6 -->
<g id="Node000006" class="node">
<title>Node6</title>
<g id="a_Node000006"><a xlink:href="GameState_8ixx.html" target="_top" xlink:title="Game state enumeration and bitmask operations.">
<polygon fill="white" stroke="#666666" points="616,-85 390,-85 390,-55 616,-55 616,-85"/>
<text text-anchor="start" x="398" y="-73" font-family="Helvetica,sans-Serif" font-size="10.00">helios.engine.mechanics.gamestate.types.</text>
<text text-anchor="middle" x="503" y="-62" font-family="Helvetica,sans-Serif" font-size="10.00">GameState</text>
</a>
</g>
</g>
<!-- Node1&#45;&gt;Node6 -->
<g id="edge10_Node000001_Node000006" class="edge">
<title>Node1&#45;&gt;Node6</title>
<g id="a_edge10_Node000001_Node000006"><a xlink:title=" ">
<path fill="none" stroke="#63b8ff" d="M411.77,-192.03C439.47,-187.36 475.22,-176.46 495,-151 507.08,-135.45 508.27,-112.74 506.91,-95.48"/>
<polygon fill="#63b8ff" stroke="#63b8ff" points="510.34,-94.61 505.74,-85.06 503.38,-95.39 510.34,-94.61"/>
</a>
</g>
</g>
<!-- Node7 -->
<g id="Node000007" class="node">
<title>Node7</title>
<g id="a_Node000007"><a xlink:href="StateTransitionId_8ixx.html" target="_top" xlink:title="Type trait for mapping state types to transition ID types.">
<polygon fill="white" stroke="#666666" points="715.5,-151 572.5,-151 572.5,-121 715.5,-121 715.5,-151"/>
<text text-anchor="start" x="580.5" y="-139" font-family="Helvetica,sans-Serif" font-size="10.00">helios.engine.state.types.</text>
<text text-anchor="middle" x="644" y="-128" font-family="Helvetica,sans-Serif" font-size="10.00">StateTransitionId</text>
</a>
</g>
</g>
<!-- Node1&#45;&gt;Node7 -->
<g id="edge11_Node000001_Node000007" class="edge">
<title>Node1&#45;&gt;Node7</title>
<g id="a_edge11_Node000001_Node000007"><a xlink:title=" ">
<path fill="none" stroke="#63b8ff" d="M411.54,-187.18C452.36,-178.37 517.85,-164.23 568.93,-153.21"/>
<polygon fill="#63b8ff" stroke="#63b8ff" points="569.9,-156.58 578.94,-151.04 568.43,-149.73 569.9,-156.58"/>
</a>
</g>
</g>
<!-- Node3 -->
<g id="Node000003" class="node">
<title>Node3</title>
<g id="a_Node000003"><a xlink:title=" ">
<polygon fill="#e0e0e0" stroke="#999999" points="387,-19 337,-19 337,0 387,0 387,-19"/>
<text text-anchor="middle" x="362" y="-7" font-family="Helvetica,sans-Serif" font-size="10.00">cstdint</text>
</a>
</g>
</g>
<!-- Node2&#45;&gt;Node3 -->
<g id="edge2_Node000002_Node000003" class="edge">
<title>Node2&#45;&gt;Node3</title>
<g id="a_edge2_Node000002_Node000003"><a xlink:title=" ">
<path fill="none" stroke="#63b8ff" d="M101.06,-120.9C100.69,-102.92 103,-72.11 121,-55 150.09,-27.35 267.21,-16.28 326.8,-12.38"/>
<polygon fill="#63b8ff" stroke="#63b8ff" points="327.11,-15.86 336.88,-11.75 326.68,-8.88 327.11,-15.86"/>
</a>
</g>
</g>
<!-- Node2&#45;&gt;Node4 -->
<g id="edge3_Node000002_Node000004" class="edge">
<title>Node2&#45;&gt;Node4</title>
<g id="a_edge3_Node000002_Node000004"><a xlink:title=" ">
<path fill="none" stroke="#63b8ff" d="M130.53,-120.95C149.33,-111.7 174.14,-99.49 194.52,-89.45"/>
<polygon fill="#63b8ff" stroke="#63b8ff" points="196.11,-92.57 203.54,-85.01 193.02,-86.29 196.11,-92.57"/>
</a>
</g>
</g>
<!-- Node4&#45;&gt;Node3 -->
<g id="edge4_Node000004_Node000003" class="edge">
<title>Node4&#45;&gt;Node3</title>
<g id="a_edge4_Node000004_Node000003"><a xlink:title=" ">
<path fill="none" stroke="#63b8ff" d="M263.14,-54.99C284.54,-45.36 312.73,-32.67 333.53,-23.31"/>
<polygon fill="#63b8ff" stroke="#63b8ff" points="335.12,-26.43 342.8,-19.14 332.25,-20.05 335.12,-26.43"/>
</a>
</g>
</g>
<!-- Node5&#45;&gt;Node3 -->
<g id="edge6_Node000005_Node000003" class="edge">
<title>Node5&#45;&gt;Node3</title>
<g id="a_edge6_Node000005_Node000003"><a xlink:title=" ">
<path fill="none" stroke="#63b8ff" d="M371.74,-120.72C369.74,-98.12 365.85,-54.12 363.64,-29.09"/>
<polygon fill="#63b8ff" stroke="#63b8ff" points="367.12,-28.72 362.76,-19.07 360.15,-29.34 367.12,-28.72"/>
</a>
</g>
</g>
<!-- Node5&#45;&gt;Node6 -->
<g id="edge7_Node000005_Node000006" class="edge">
<title>Node5&#45;&gt;Node6</title>
<g id="a_edge7_Node000005_Node000006"><a xlink:title=" ">
<path fill="none" stroke="#63b8ff" d="M401.53,-120.95C420.33,-111.7 445.14,-99.49 465.52,-89.45"/>
<polygon fill="#63b8ff" stroke="#63b8ff" points="467.11,-92.57 474.54,-85.01 464.02,-86.29 467.11,-92.57"/>
</a>
</g>
</g>
<!-- Node6&#45;&gt;Node3 -->
<g id="edge8_Node000006_Node000003" class="edge">
<title>Node6&#45;&gt;Node3</title>
<g id="a_edge8_Node000006_Node000003"><a xlink:title=" ">
<path fill="none" stroke="#63b8ff" d="M469.23,-54.99C445.81,-45.27 414.88,-32.44 392.27,-23.06"/>
<polygon fill="#63b8ff" stroke="#63b8ff" points="393.4,-19.74 382.82,-19.14 390.72,-26.2 393.4,-19.74"/>
</a>
</g>
</g>
<!-- Node7&#45;&gt;Node3 -->
<g id="edge12_Node000007_Node000003" class="edge">
<title>Node7&#45;&gt;Node3</title>
<g id="a_edge12_Node000007_Node000003"><a xlink:title=" ">
<path fill="none" stroke="#63b8ff" d="M644.98,-120.86C645.39,-102.83 643.13,-71.98 625,-55 592.58,-24.64 461.08,-14.79 397.19,-11.76"/>
<polygon fill="#63b8ff" stroke="#63b8ff" points="397.32,-8.27 387.17,-11.32 397.01,-15.26 397.32,-8.27"/>
</a>
</g>
</g>
<!-- Node8 -->
<g id="Node000008" class="node">
<title>Node8</title>
<g id="a_Node000008"><a xlink:title=" ">
<polygon fill="#e0e0e0" stroke="#999999" points="741.5,-79.5 672.5,-79.5 672.5,-60.5 741.5,-60.5 741.5,-79.5"/>
<text text-anchor="middle" x="707" y="-67.5" font-family="Helvetica,sans-Serif" font-size="10.00">type_traits</text>
</a>
</g>
</g>
<!-- Node7&#45;&gt;Node8 -->
<g id="edge13_Node000007_Node000008" class="edge">
<title>Node7&#45;&gt;Node8</title>
<g id="a_edge13_Node000007_Node000008"><a xlink:title=" ">
<path fill="none" stroke="#63b8ff" d="M657.98,-120.8C667.8,-110.82 680.96,-97.46 691.17,-87.09"/>
<polygon fill="#63b8ff" stroke="#63b8ff" points="693.77,-89.43 698.29,-79.84 688.78,-84.52 693.77,-89.43"/>
</a>
</g>
</g>
</g>
</svg>
