<?xml version="1.0" encoding="UTF-8" standalone="no"?>
<!DOCTYPE svg PUBLIC "-//W3C//DTD SVG 1.1//EN"
 "http://www.w3.org/Graphics/SVG/1.1/DTD/svg11.dtd">
<!-- Generated by graphviz version 2.43.0 (0)
 -->
<!-- Title: helios::engine::runtime::world::GameWorld::operator= Pages: 1 -->
<svg width="621pt" height="38pt"
 viewBox="0.00 0.00 621.00 38.00" xmlns="http://www.w3.org/2000/svg" xmlns:xlink="http://www.w3.org/1999/xlink">
<g id="graph0" class="graph" transform="scale(1 1) rotate(0) translate(4 34)">
<title>helios::engine::runtime::world::GameWorld::operator=</title>
<!-- Node1 -->
<g id="Node000001" class="node">
<title>Node1</title>
<g id="a_Node000001"><a xlink:title=" ">
<polygon fill="#999999" stroke="#666666" points="168,-30 0,-30 0,0 168,0 168,-30"/>
<text text-anchor="start" x="8" y="-18" font-family="Helvetica,sans-Serif" font-size="10.00">helios::engine::runtime</text>
<text text-anchor="middle" x="84" y="-7" font-family="Helvetica,sans-Serif" font-size="10.00">::world::GameWorld::operator=</text>
</a>
</g>
</g>
<!-- Node2 -->
<g id="Node000002" class="node">
<title>Node2</title>
<g id="a_Node000002"><a xlink:href="classhelios_1_1engine_1_1runtime_1_1world_1_1GameWorld.html#a8ad38df92f57b70abeb60bc82556f15b" target="_top" xlink:title="Central registry for game entities, managers, pools, and the active level.">
<polygon fill="white" stroke="#666666" points="380,-30 204,-30 204,0 380,0 380,-30"/>
<text text-anchor="start" x="212" y="-18" font-family="Helvetica,sans-Serif" font-size="10.00">helios::engine::runtime</text>
<text text-anchor="middle" x="292" y="-7" font-family="Helvetica,sans-Serif" font-size="10.00">::world::GameWorld::GameWorld</text>
</a>
</g>
</g>
<!-- Node1&#45;&gt;Node2 -->
<g id="edge1_Node000001_Node000002" class="edge">
<title>Node1&#45;&gt;Node2</title>
<g id="a_edge1_Node000001_Node000002"><a xlink:title=" ">
<path fill="none" stroke="#63b8ff" d="M168.19,-15C176.62,-15 185.23,-15 193.79,-15"/>
<polygon fill="#63b8ff" stroke="#63b8ff" points="193.8,-18.5 203.8,-15 193.8,-11.5 193.8,-18.5"/>
</a>
</g>
</g>
<!-- Node3 -->
<g id="Node000003" class="node">
<title>Node3</title>
<g id="a_Node000003"><a xlink:href="classhelios_1_1engine_1_1runtime_1_1world_1_1GameWorld.html#a672057079d4cf81a8d05b07aa87fee3c" target="_top" xlink:title="Creates a new GameObject in the world.">
<polygon fill="white" stroke="#666666" points="613,-30 416,-30 416,0 613,0 613,-30"/>
<text text-anchor="start" x="424" y="-18" font-family="Helvetica,sans-Serif" font-size="10.00">helios::engine::runtime</text>
<text text-anchor="middle" x="514.5" y="-7" font-family="Helvetica,sans-Serif" font-size="10.00">::world::GameWorld::addGameObject</text>
</a>
</g>
</g>
<!-- Node2&#45;&gt;Node3 -->
<g id="edge2_Node000002_Node000003" class="edge">
<title>Node2&#45;&gt;Node3</title>
<g id="a_edge2_Node000002_Node000003"><a xlink:title=" ">
<path fill="none" stroke="#63b8ff" d="M380.15,-15C388.54,-15 397.12,-15 405.68,-15"/>
<polygon fill="#63b8ff" stroke="#63b8ff" points="405.71,-18.5 415.71,-15 405.71,-11.5 405.71,-18.5"/>
</a>
</g>
</g>
</g>
</svg>
