<?xml version="1.0" encoding="UTF-8" standalone="no"?>
<!DOCTYPE svg PUBLIC "-//W3C//DTD SVG 1.1//EN"
 "http://www.w3.org/Graphics/SVG/1.1/DTD/svg11.dtd">
<!-- Generated by graphviz version 2.43.0 (0)
 -->
<!-- Title: helios::engine::runtime::spawn::behavior::initializers::EmitterInitializer::initialize Pages: 1 -->
<svg width="672pt" height="62pt"
 viewBox="0.00 0.00 672.00 61.50" xmlns="http://www.w3.org/2000/svg" xmlns:xlink="http://www.w3.org/1999/xlink">
<g id="graph0" class="graph" transform="scale(1 1) rotate(0) translate(4 57.5)">
<title>helios::engine::runtime::spawn::behavior::initializers::EmitterInitializer::initialize</title>
<!-- Node1 -->
<g id="Node000001" class="node">
<title>Node1</title>
<g id="a_Node000001"><a xlink:title="Initializes entity with emitter&#39;s velocity direction.">
<polygon fill="#999999" stroke="#666666" points="160,-41 0,-41 0,0 160,0 160,-41"/>
<text text-anchor="start" x="8" y="-29" font-family="Helvetica,sans-Serif" font-size="10.00">helios::engine::runtime</text>
<text text-anchor="start" x="8" y="-18" font-family="Helvetica,sans-Serif" font-size="10.00">::spawn::behavior::initializers</text>
<text text-anchor="middle" x="80" y="-7" font-family="Helvetica,sans-Serif" font-size="10.00">::EmitterInitializer::initialize</text>
</a>
</g>
</g>
<!-- Node2 -->
<g id="Node000002" class="node">
<title>Node2</title>
<g id="a_Node000002"><a xlink:href="classhelios_1_1engine_1_1ecs_1_1GameObject.html#a5b1a6365e062590bf79fa725bb5c046c" target="_top" xlink:title="Retrieves a component of type T.">
<polygon fill="white" stroke="#666666" points="303,-35.5 196,-35.5 196,-5.5 303,-5.5 303,-35.5"/>
<text text-anchor="start" x="204" y="-23.5" font-family="Helvetica,sans-Serif" font-size="10.00">helios::engine::ecs</text>
<text text-anchor="middle" x="249.5" y="-12.5" font-family="Helvetica,sans-Serif" font-size="10.00">::GameObject::get</text>
</a>
</g>
</g>
<!-- Node1&#45;&gt;Node2 -->
<g id="edge1_Node000001_Node000002" class="edge">
<title>Node1&#45;&gt;Node2</title>
<g id="a_edge1_Node000001_Node000002"><a xlink:title=" ">
<path fill="none" stroke="#63b8ff" d="M160.34,-20.5C168.78,-20.5 177.28,-20.5 185.5,-20.5"/>
<polygon fill="#63b8ff" stroke="#63b8ff" points="185.73,-24 195.73,-20.5 185.73,-17 185.73,-24"/>
</a>
</g>
</g>
<!-- Node3 -->
<g id="Node000003" class="node">
<title>Node3</title>
<g id="a_Node000003"><a xlink:href="classhelios_1_1engine_1_1core_1_1data_1_1ComponentTypeId.html#ae2b1610edbd9844c96d65f5572fa6db9" target="_top" xlink:title="Gets the ComponentTypeId for a specific component type.">
<polygon fill="white" stroke="#666666" points="492,-35.5 339,-35.5 339,-5.5 492,-5.5 492,-35.5"/>
<text text-anchor="start" x="347" y="-23.5" font-family="Helvetica,sans-Serif" font-size="10.00">helios::engine::core</text>
<text text-anchor="middle" x="415.5" y="-12.5" font-family="Helvetica,sans-Serif" font-size="10.00">::data::ComponentTypeId::id</text>
</a>
</g>
</g>
<!-- Node2&#45;&gt;Node3 -->
<g id="edge2_Node000002_Node000003" class="edge">
<title>Node2&#45;&gt;Node3</title>
<g id="a_edge2_Node000002_Node000003"><a xlink:title=" ">
<path fill="none" stroke="#63b8ff" d="M303.29,-20.5C311.44,-20.5 320.02,-20.5 328.67,-20.5"/>
<polygon fill="#63b8ff" stroke="#63b8ff" points="328.81,-24 338.81,-20.5 328.81,-17 328.81,-24"/>
</a>
</g>
</g>
<!-- Node4 -->
<g id="Node000004" class="node">
<title>Node4</title>
<g id="a_Node000004"><a xlink:href="classhelios_1_1core_1_1data_1_1TypeIndexer.html#a33aff035cb667c63fcd123a69a91b3cc" target="_top" xlink:title="Generates and returns a unique type index for a specific type.">
<polygon fill="white" stroke="#666666" points="664,-35.5 528,-35.5 528,-5.5 664,-5.5 664,-35.5"/>
<text text-anchor="start" x="536" y="-23.5" font-family="Helvetica,sans-Serif" font-size="10.00">helios::core::data</text>
<text text-anchor="middle" x="596" y="-12.5" font-family="Helvetica,sans-Serif" font-size="10.00">::TypeIndexer::typeIndex</text>
</a>
</g>
</g>
<!-- Node3&#45;&gt;Node4 -->
<g id="edge3_Node000003_Node000004" class="edge">
<title>Node3&#45;&gt;Node4</title>
<g id="a_edge3_Node000003_Node000004"><a xlink:title=" ">
<path fill="none" stroke="#63b8ff" d="M492.2,-20.5C500.64,-20.5 509.25,-20.5 517.72,-20.5"/>
<polygon fill="#63b8ff" stroke="#63b8ff" points="517.95,-24 527.95,-20.5 517.95,-17 517.95,-24"/>
</a>
</g>
</g>
<!-- Node4&#45;&gt;Node4 -->
<g id="edge4_Node000004_Node000004" class="edge">
<title>Node4&#45;&gt;Node4</title>
<g id="a_edge4_Node000004_Node000004"><a xlink:title=" ">
<path fill="none" stroke="#63b8ff" d="M564.36,-35.78C557.33,-44.91 567.88,-53.5 596,-53.5 612.7,-53.5 623.2,-50.47 627.51,-46.1"/>
<polygon fill="#63b8ff" stroke="#63b8ff" points="631.01,-45.82 627.64,-35.78 624.01,-45.73 631.01,-45.82"/>
</a>
</g>
</g>
</g>
</svg>
