<?xml version="1.0" encoding="UTF-8" standalone="no"?>
<!DOCTYPE svg PUBLIC "-//W3C//DTD SVG 1.1//EN"
 "http://www.w3.org/Graphics/SVG/1.1/DTD/svg11.dtd">
<!-- Generated by graphviz version 2.43.0 (0)
 -->
<!-- Title: helios::engine::mechanics::timing::TimerManager Pages: 1 -->
<svg width="364pt" height="86pt"
 viewBox="0.00 0.00 364.00 86.00" xmlns="http://www.w3.org/2000/svg" xmlns:xlink="http://www.w3.org/1999/xlink">
<g id="graph0" class="graph" transform="scale(1 1) rotate(0) translate(4 82)">
<title>helios::engine::mechanics::timing::TimerManager</title>
<!-- Node1 -->
<g id="Node000001" class="node">
<title>Node1</title>
<g id="a_Node000001"><a xlink:title="Manager that owns game timers and processes timer control commands.">
<polygon fill="#999999" stroke="#666666" points="356,-54 213,-54 213,-24 356,-24 356,-54"/>
<text text-anchor="start" x="221" y="-42" font-family="Helvetica,sans-Serif" font-size="10.00">helios::engine::mechanics</text>
<text text-anchor="middle" x="284.5" y="-31" font-family="Helvetica,sans-Serif" font-size="10.00">::timing::TimerManager</text>
</a>
</g>
</g>
<!-- Node2 -->
<g id="Node000002" class="node">
<title>Node2</title>
<g id="a_Node000002"><a xlink:href="classhelios_1_1engine_1_1runtime_1_1world_1_1Manager.html" target="_top" xlink:title="Abstract base class for managers that process deferred operations.">
<polygon fill="white" stroke="#666666" points="153,-78 24,-78 24,-48 153,-48 153,-78"/>
<text text-anchor="start" x="32" y="-66" font-family="Helvetica,sans-Serif" font-size="10.00">helios::engine::runtime</text>
<text text-anchor="middle" x="88.5" y="-55" font-family="Helvetica,sans-Serif" font-size="10.00">::world::Manager</text>
</a>
</g>
</g>
<!-- Node2&#45;&gt;Node1 -->
<g id="edge1_Node000001_Node000002" class="edge">
<title>Node2&#45;&gt;Node1</title>
<g id="a_edge1_Node000001_Node000002"><a xlink:title=" ">
<path fill="none" stroke="#63b8ff" d="M163.04,-53.9C179.35,-51.89 196.6,-49.75 212.79,-47.75"/>
<polygon fill="#63b8ff" stroke="#63b8ff" points="162.52,-50.44 153.02,-55.14 163.38,-57.39 162.52,-50.44"/>
</a>
</g>
</g>
<!-- Node3 -->
<g id="Node000003" class="node">
<title>Node3</title>
<g id="a_Node000003"><a xlink:href="classhelios_1_1engine_1_1mechanics_1_1timing_1_1TimerCommandHandler.html" target="_top" xlink:title="Abstract interface for handling TimerControlCommands.">
<polygon fill="white" stroke="#666666" points="177,-30 0,-30 0,0 177,0 177,-30"/>
<text text-anchor="start" x="8" y="-18" font-family="Helvetica,sans-Serif" font-size="10.00">helios::engine::mechanics</text>
<text text-anchor="middle" x="88.5" y="-7" font-family="Helvetica,sans-Serif" font-size="10.00">::timing::TimerCommandHandler</text>
</a>
</g>
</g>
<!-- Node3&#45;&gt;Node1 -->
<g id="edge2_Node000001_Node000003" class="edge">
<title>Node3&#45;&gt;Node1</title>
<g id="a_edge2_Node000001_Node000003"><a xlink:title=" ">
<path fill="none" stroke="#63b8ff" d="M187.25,-27.09C195.87,-28.16 204.49,-29.23 212.82,-30.26"/>
<polygon fill="#63b8ff" stroke="#63b8ff" points="187.49,-23.6 177.14,-25.84 186.63,-30.54 187.49,-23.6"/>
</a>
</g>
</g>
</g>
</svg>
