<?xml version="1.0" encoding="UTF-8" standalone="no"?>
<!DOCTYPE svg PUBLIC "-//W3C//DTD SVG 1.1//EN"
 "http://www.w3.org/Graphics/SVG/1.1/DTD/svg11.dtd">
<!-- Generated by graphviz version 2.43.0 (0)
 -->
<!-- Title: helios::scene::Snapshot::viewMatrix Pages: 1 -->
<svg width="588pt" height="92pt"
 viewBox="0.00 0.00 588.00 91.50" xmlns="http://www.w3.org/2000/svg" xmlns:xlink="http://www.w3.org/1999/xlink">
<g id="graph0" class="graph" transform="scale(1 1) rotate(0) translate(4 87.5)">
<title>helios::scene::Snapshot::viewMatrix</title>
<!-- Node1 -->
<g id="Node000001" class="node">
<title>Node1</title>
<g id="a_Node000001"><a xlink:title="Returns a const reference to the view matrix for this Snapshot.">
<polygon fill="#999999" stroke="#666666" points="580,-54 449,-54 449,-24 580,-24 580,-54"/>
<text text-anchor="start" x="457" y="-42" font-family="Helvetica,sans-Serif" font-size="10.00">helios::scene::Snapshot</text>
<text text-anchor="middle" x="514.5" y="-31" font-family="Helvetica,sans-Serif" font-size="10.00">::viewMatrix</text>
</a>
</g>
</g>
<!-- Node2 -->
<g id="Node000002" class="node">
<title>Node2</title>
<g id="a_Node000002"><a xlink:href="classhelios_1_1rendering_1_1RenderPassFactory.html#ab3de082b56a0e7b2ca11da66453252ef" target="_top" xlink:title="Builds a `RenderPass` from a given `Snapshot`.">
<polygon fill="white" stroke="#666666" points="413,-78 219,-78 219,-48 413,-48 413,-78"/>
<text text-anchor="start" x="227" y="-66" font-family="Helvetica,sans-Serif" font-size="10.00">helios::rendering::</text>
<text text-anchor="middle" x="316" y="-55" font-family="Helvetica,sans-Serif" font-size="10.00">RenderPassFactory::buildRenderPass</text>
</a>
</g>
</g>
<!-- Node1&#45;&gt;Node2 -->
<g id="edge1_Node000001_Node000002" class="edge">
<title>Node1&#45;&gt;Node2</title>
<g id="a_edge1_Node000001_Node000002"><a xlink:title=" ">
<path fill="none" stroke="#63b8ff" d="M438.84,-48.12C430.49,-49.14 421.89,-50.19 413.32,-51.24"/>
<polygon fill="#63b8ff" stroke="#63b8ff" points="439.38,-51.58 448.89,-46.89 438.54,-44.63 439.38,-51.58"/>
</a>
</g>
</g>
<!-- Node4 -->
<g id="Node000004" class="node">
<title>Node4</title>
<g id="a_Node000004"><a xlink:href="classhelios_1_1scene_1_1Snapshot.html#a2e5fc0f5cb6c2f613601268ed6629719" target="_top" xlink:title="Constructs a new immutable Snapshot from the given data.">
<polygon fill="white" stroke="#666666" points="381.5,-30 250.5,-30 250.5,0 381.5,0 381.5,-30"/>
<text text-anchor="start" x="258.5" y="-18" font-family="Helvetica,sans-Serif" font-size="10.00">helios::scene::Snapshot</text>
<text text-anchor="middle" x="316" y="-7" font-family="Helvetica,sans-Serif" font-size="10.00">::Snapshot</text>
</a>
</g>
</g>
<!-- Node1&#45;&gt;Node4 -->
<g id="edge3_Node000001_Node000004" class="edge">
<title>Node1&#45;&gt;Node4</title>
<g id="a_edge3_Node000001_Node000004"><a xlink:title=" ">
<path fill="none" stroke="#63b8ff" d="M438.87,-29.88C420.03,-27.58 399.95,-25.13 381.65,-22.9"/>
<polygon fill="#63b8ff" stroke="#63b8ff" points="438.54,-33.37 448.89,-31.11 439.38,-26.42 438.54,-33.37"/>
</a>
</g>
</g>
<!-- Node3 -->
<g id="Node000003" class="node">
<title>Node3</title>
<g id="a_Node000003"><a xlink:href="classhelios_1_1engine_1_1modules_1_1scene_1_1systems_1_1SceneRenderingSystem.html#ace01514307054d6c9fc26a46ec6e67e3" target="_top" xlink:title="Renders all active viewports for this frame.">
<polygon fill="white" stroke="#666666" points="183,-83.5 0,-83.5 0,-42.5 183,-42.5 183,-83.5"/>
<text text-anchor="start" x="8" y="-71.5" font-family="Helvetica,sans-Serif" font-size="10.00">helios::engine::modules</text>
<text text-anchor="start" x="8" y="-60.5" font-family="Helvetica,sans-Serif" font-size="10.00">::scene::systems::SceneRendering</text>
<text text-anchor="middle" x="91.5" y="-49.5" font-family="Helvetica,sans-Serif" font-size="10.00">System::update</text>
</a>
</g>
</g>
<!-- Node2&#45;&gt;Node3 -->
<g id="edge2_Node000002_Node000003" class="edge">
<title>Node2&#45;&gt;Node3</title>
<g id="a_edge2_Node000002_Node000003"><a xlink:title=" ">
<path fill="none" stroke="#63b8ff" d="M208.47,-63C200.06,-63 191.62,-63 183.33,-63"/>
<polygon fill="#63b8ff" stroke="#63b8ff" points="208.7,-66.5 218.7,-63 208.7,-59.5 208.7,-66.5"/>
</a>
</g>
</g>
</g>
</svg>
