<?xml version="1.0" encoding="UTF-8" standalone="no"?>
<!DOCTYPE svg PUBLIC "-//W3C//DTD SVG 1.1//EN"
 "http://www.w3.org/Graphics/SVG/1.1/DTD/svg11.dtd">
<!-- Generated by graphviz version 2.43.0 (0)
 -->
<!-- Title: helios::engine::modules::physics::motion::components::Move2DComponent::direction Pages: 1 -->
<svg width="806pt" height="108pt"
 viewBox="0.00 0.00 806.00 107.50" xmlns="http://www.w3.org/2000/svg" xmlns:xlink="http://www.w3.org/1999/xlink">
<g id="graph0" class="graph" transform="scale(1 1) rotate(0) translate(4 103.5)">
<title>helios::engine::modules::physics::motion::components::Move2DComponent::direction</title>
<!-- Node1 -->
<g id="Node000001" class="node">
<title>Node1</title>
<g id="a_Node000001"><a xlink:title="Returns the current steering input direction.">
<polygon fill="#999999" stroke="#666666" points="798,-90 630,-90 630,-49 798,-49 798,-90"/>
<text text-anchor="start" x="638" y="-78" font-family="Helvetica,sans-Serif" font-size="10.00">helios::engine::modules</text>
<text text-anchor="start" x="638" y="-67" font-family="Helvetica,sans-Serif" font-size="10.00">::physics::motion::components</text>
<text text-anchor="middle" x="714" y="-56" font-family="Helvetica,sans-Serif" font-size="10.00">::Move2DComponent::direction</text>
</a>
</g>
</g>
<!-- Node2 -->
<g id="Node000002" class="node">
<title>Node2</title>
<g id="a_Node000002"><a xlink:href="classhelios_1_1engine_1_1runtime_1_1spawn_1_1behavior_1_1initializers_1_1RandomDirectionInitializer.html#acc5c6d430c92ca5523aec5dabe4f8207" target="_top" xlink:title="Initializes entity with a random direction.">
<polygon fill="white" stroke="#666666" points="160,-99.5 0,-99.5 0,-47.5 160,-47.5 160,-99.5"/>
<text text-anchor="start" x="8" y="-87.5" font-family="Helvetica,sans-Serif" font-size="10.00">helios::engine::runtime</text>
<text text-anchor="start" x="8" y="-76.5" font-family="Helvetica,sans-Serif" font-size="10.00">::spawn::behavior::initializers</text>
<text text-anchor="start" x="8" y="-65.5" font-family="Helvetica,sans-Serif" font-size="10.00">::RandomDirectionInitializer</text>
<text text-anchor="middle" x="80" y="-54.5" font-family="Helvetica,sans-Serif" font-size="10.00">::initialize</text>
</a>
</g>
</g>
<!-- Node1&#45;&gt;Node2 -->
<g id="edge1_Node000001_Node000002" class="edge">
<title>Node1&#45;&gt;Node2</title>
<g id="a_edge1_Node000001_Node000002"><a xlink:title=" ">
<path fill="none" stroke="#63b8ff" d="M619.53,-78.64C515.92,-87.43 343.89,-98.1 196,-88.5 184.35,-87.74 172.07,-86.56 160.05,-85.18"/>
<polygon fill="#63b8ff" stroke="#63b8ff" points="619.99,-82.11 629.65,-77.76 619.39,-75.13 619.99,-82.11"/>
</a>
</g>
</g>
<!-- Node3 -->
<g id="Node000003" class="node">
<title>Node3</title>
<g id="a_Node000003"><a xlink:href="classhelios_1_1engine_1_1modules_1_1physics_1_1motion_1_1components_1_1Move2DComponent.html#ad0446785c240392406ac661bb3545615" target="_top" xlink:title="Sets the movement direction and throttle.">
<polygon fill="white" stroke="#666666" points="362,-61 196,-61 196,-20 362,-20 362,-61"/>
<text text-anchor="start" x="204" y="-49" font-family="Helvetica,sans-Serif" font-size="10.00">helios::engine::modules</text>
<text text-anchor="start" x="204" y="-38" font-family="Helvetica,sans-Serif" font-size="10.00">::physics::motion::components</text>
<text text-anchor="middle" x="279" y="-27" font-family="Helvetica,sans-Serif" font-size="10.00">::Move2DComponent::move</text>
</a>
</g>
</g>
<!-- Node1&#45;&gt;Node3 -->
<g id="edge2_Node000001_Node000003" class="edge">
<title>Node1&#45;&gt;Node3</title>
<g id="a_edge2_Node000001_Node000003"><a xlink:title=" ">
<path fill="none" stroke="#63b8ff" d="M619.49,-63.88C556.81,-60.03 472.44,-54.7 398,-49.5 386.42,-48.69 374.2,-47.8 362.2,-46.9"/>
<polygon fill="#63b8ff" stroke="#63b8ff" points="619.55,-67.39 629.75,-64.5 619.98,-60.4 619.55,-67.39"/>
</a>
</g>
</g>
<!-- Node4 -->
<g id="Node000004" class="node">
<title>Node4</title>
<g id="a_Node000004"><a xlink:href="classhelios_1_1engine_1_1modules_1_1physics_1_1motion_1_1components_1_1Move2DComponent.html#aa1f4491a3cb463f1af0145b4e70815a7" target="_top" xlink:title="Sets the movement direction and throttle.">
<polygon fill="white" stroke="#666666" points="594,-41 398,-41 398,0 594,0 594,-41"/>
<text text-anchor="start" x="406" y="-29" font-family="Helvetica,sans-Serif" font-size="10.00">helios::engine::modules</text>
<text text-anchor="start" x="406" y="-18" font-family="Helvetica,sans-Serif" font-size="10.00">::physics::motion::components</text>
<text text-anchor="middle" x="496" y="-7" font-family="Helvetica,sans-Serif" font-size="10.00">::Move2DComponent::setMoveIntent</text>
</a>
</g>
</g>
<!-- Node1&#45;&gt;Node4 -->
<g id="edge5_Node000001_Node000004" class="edge">
<title>Node1&#45;&gt;Node4</title>
<g id="a_edge5_Node000001_Node000004"><a xlink:title=" ">
<path fill="none" stroke="#63b8ff" d="M620.02,-48.41C609.3,-45.98 598.38,-43.5 587.7,-41.07"/>
<polygon fill="#63b8ff" stroke="#63b8ff" points="619.27,-51.83 629.8,-50.63 620.82,-45 619.27,-51.83"/>
</a>
</g>
</g>
<!-- Node3&#45;&gt;Node2 -->
<g id="edge3_Node000003_Node000002" class="edge">
<title>Node3&#45;&gt;Node2</title>
<g id="a_edge3_Node000003_Node000002"><a xlink:title=" ">
<path fill="none" stroke="#63b8ff" d="M185.84,-55.94C177.25,-57.38 168.6,-58.83 160.14,-60.24"/>
<polygon fill="#63b8ff" stroke="#63b8ff" points="186.6,-59.36 195.88,-54.26 185.44,-52.46 186.6,-59.36"/>
</a>
</g>
</g>
<!-- Node3&#45;&gt;Node3 -->
<g id="edge4_Node000003_Node000003" class="edge">
<title>Node3&#45;&gt;Node3</title>
<g id="a_edge4_Node000003_Node000003"><a xlink:title=" ">
<path fill="none" stroke="#63b8ff" d="M313.06,-70.96C308,-75.74 296.64,-79 279,-79 250.77,-79 238.64,-70.65 242.61,-61.1"/>
<polygon fill="#63b8ff" stroke="#63b8ff" points="316.5,-71.63 315.39,-61.1 309.69,-70.03 316.5,-71.63"/>
</a>
</g>
</g>
<!-- Node4&#45;&gt;Node3 -->
<g id="edge6_Node000004_Node000003" class="edge">
<title>Node4&#45;&gt;Node3</title>
<g id="a_edge6_Node000004_Node000003"><a xlink:title=" ">
<path fill="none" stroke="#63b8ff" d="M387.8,-30.47C379.21,-31.27 370.61,-32.07 362.23,-32.85"/>
<polygon fill="#63b8ff" stroke="#63b8ff" points="388.25,-33.95 397.88,-29.53 387.6,-26.98 388.25,-33.95"/>
</a>
</g>
</g>
</g>
</svg>
