<?xml version="1.0" encoding="UTF-8" standalone="no"?>
<!DOCTYPE svg PUBLIC "-//W3C//DTD SVG 1.1//EN"
 "http://www.w3.org/Graphics/SVG/1.1/DTD/svg11.dtd">
<!-- Generated by graphviz version 2.43.0 (0)
 -->
<!-- Title: helios::engine::ecs::Cloneable Pages: 1 -->
<!--zoomable 993 -->

<svg id="main" version="1.1" xmlns="http://www.w3.org/2000/svg" xmlns:xlink="http://www.w3.org/1999/xlink" xml:space="preserve" onload="init(evt)">

<style type="text/css"><![CDATA[
.node, .edge {opacity: 0.7;}
.node.selected, .edge.selected {opacity: 1;}
.edge:hover path { stroke: red; }
.edge:hover polygon { stroke: red; fill: red; }
]]></style>

<defs>
  <circle id="rim" cx="0" cy="0" r="7"/>
  <circle id="rim2" cx="0" cy="0" r="3.5"/>
  <g id="zoomPlus">
    <use xlink:href="#rim" fill="#404040"><set attributeName="fill" to="#808080" begin="zoomplus.mouseover" end="zoomplus.mouseout"/></use>
    <path d="M-4,0h8M0,-4v8" fill="none" stroke="white" stroke-width="1.5" pointer-events="none"/>
  </g>
  <g id="zoomMin">
    <use xlink:href="#rim" fill="#404040"><set attributeName="fill" to="#808080" begin="zoomminus.mouseover" end="zoomminus.mouseout"/></use>
    <path d="M-4,0h8" fill="none" stroke="white" stroke-width="1.5" pointer-events="none"/>
  </g>
  <g id="arrowUp" transform="translate(30 24)">
    <use xlink:href="#rim"/>
    <path pointer-events="none" fill="none" stroke="white" stroke-width="1.5" d="M0,-3.0v7 M-2.5,-0.5L0,-3.0L2.5,-0.5"/>
  </g>
  <g id="arrowRight" transform="rotate(90) translate(36 -43)">
    <use xlink:href="#rim"/>
    <path pointer-events="none" fill="none" stroke="white" stroke-width="1.5" d="M0,-3.0v7 M-2.5,-0.5L0,-3.0L2.5,-0.5"/>
  </g>
  <g id="arrowDown" transform="rotate(180) translate(-30 -48)">
    <use xlink:href="#rim"/>
    <path pointer-events="none" fill="none" stroke="white" stroke-width="1.5" d="M0,-3.0v7 M-2.5,-0.5L0,-3.0L2.5,-0.5"/>
  </g>
  <g id="arrowLeft" transform="rotate(270) translate(-36 17)">
    <use xlink:href="#rim"/>
    <path pointer-events="none" fill="none" stroke="white" stroke-width="1.5" d="M0,-3.0v7 M-2.5,-0.5L0,-3.0L2.5,-0.5"/>
  </g>
  <g id="resetDef">
    <use xlink:href="#rim2" fill="#404040"><set attributeName="fill" to="#808080" begin="reset.mouseover" end="reset.mouseout"/></use>
  </g>
</defs>
<script type="application/ecmascript">
var viewWidth = 606;
var viewHeight = 993;
var sectionId = 'dynsection-0';
</script>
<script type="application/ecmascript" xlink:href="svg.min.js"/>
<svg id="graph" class="graph">
<g id="viewport">
<title>helios::engine::ecs::Cloneable</title>
<!-- Node1 -->
<g id="Node000001" class="node">
<title>Node1</title>
<g id="a_Node000001"><a xlink:title="Interface for components that support cloning.">
<polygon fill="#999999" stroke="#666666" points="107,-507.5 0,-507.5 0,-477.5 107,-477.5 107,-507.5"/>
<text text-anchor="start" x="8" y="-495.5" font-family="Helvetica,sans-Serif" font-size="10.00">helios::engine::ecs</text>
<text text-anchor="middle" x="53.5" y="-484.5" font-family="Helvetica,sans-Serif" font-size="10.00">::Cloneable</text>
</a>
</g>
</g>
<!-- Node2 -->
<g id="Node000002" class="node">
<title>Node2</title>
<g id="a_Node000002"><a xlink:href="classhelios_1_1engine_1_1ecs_1_1CloneableComponent.html" target="_top" xlink:title=" ">
<polygon fill="white" stroke="#666666" points="344,-985 143,-985 143,-944 344,-944 344,-985"/>
<text text-anchor="start" x="151" y="-973" font-family="Helvetica,sans-Serif" font-size="10.00">helios::engine::ecs</text>
<text text-anchor="start" x="151" y="-962" font-family="Helvetica,sans-Serif" font-size="10.00">::CloneableComponent</text>
<text text-anchor="middle" x="243.5" y="-951" font-family="Helvetica,sans-Serif" font-size="10.00">&lt; LevelBoundsBehaviorComponent &gt;</text>
</a>
</g>
</g>
<!-- Node1&#45;&gt;Node2 -->
<g id="edge1_Node000001_Node000002" class="edge">
<title>Node1&#45;&gt;Node2</title>
<g id="a_edge1_Node000001_Node000002"><a xlink:title=" ">
<path fill="none" stroke="#63b8ff" d="M56.17,-517.78C62.25,-602.3 85.93,-873.27 143,-935.5 145.8,-938.55 148.89,-941.29 152.22,-943.74"/>
<polygon fill="#63b8ff" stroke="#63b8ff" points="59.64,-517.29 55.46,-507.55 52.66,-517.77 59.64,-517.29"/>
</a>
</g>
</g>
<!-- Node4 -->
<g id="Node000004" class="node">
<title>Node4</title>
<g id="a_Node000004"><a xlink:href="classhelios_1_1engine_1_1ecs_1_1CloneableComponent.html" target="_top" xlink:title=" ">
<polygon fill="white" stroke="#666666" points="322.5,-926 164.5,-926 164.5,-885 322.5,-885 322.5,-926"/>
<text text-anchor="start" x="172.5" y="-914" font-family="Helvetica,sans-Serif" font-size="10.00">helios::engine::ecs</text>
<text text-anchor="start" x="172.5" y="-903" font-family="Helvetica,sans-Serif" font-size="10.00">::CloneableComponent</text>
<text text-anchor="middle" x="243.5" y="-892" font-family="Helvetica,sans-Serif" font-size="10.00">&lt; AabbColliderComponent &gt;</text>
</a>
</g>
</g>
<!-- Node1&#45;&gt;Node4 -->
<g id="edge3_Node000001_Node000004" class="edge">
<title>Node1&#45;&gt;Node4</title>
<g id="a_edge3_Node000001_Node000004"><a xlink:title=" ">
<path fill="none" stroke="#63b8ff" d="M57.02,-517.88C65.17,-594.88 93.19,-823.76 143,-876.5 149.05,-882.91 156.44,-887.93 164.41,-891.85"/>
<polygon fill="#63b8ff" stroke="#63b8ff" points="60.48,-517.25 55.97,-507.66 53.51,-517.97 60.48,-517.25"/>
</a>
</g>
</g>
<!-- Node6 -->
<g id="Node000006" class="node">
<title>Node6</title>
<g id="a_Node000006"><a xlink:href="classhelios_1_1engine_1_1ecs_1_1CloneableComponent.html" target="_top" xlink:title=" ">
<polygon fill="white" stroke="#666666" points="312,-867 175,-867 175,-826 312,-826 312,-867"/>
<text text-anchor="start" x="183" y="-855" font-family="Helvetica,sans-Serif" font-size="10.00">helios::engine::ecs</text>
<text text-anchor="start" x="183" y="-844" font-family="Helvetica,sans-Serif" font-size="10.00">::CloneableComponent</text>
<text text-anchor="middle" x="243.5" y="-833" font-family="Helvetica,sans-Serif" font-size="10.00">&lt; CollisionComponent &gt;</text>
</a>
</g>
</g>
<!-- Node1&#45;&gt;Node6 -->
<g id="edge5_Node000001_Node000006" class="edge">
<title>Node1&#45;&gt;Node6</title>
<g id="a_edge5_Node000001_Node000006"><a xlink:title=" ">
<path fill="none" stroke="#63b8ff" d="M53.61,-517.75C52.91,-578.27 59.86,-732.87 143,-817.5 151.76,-826.42 163.1,-832.63 174.97,-836.96"/>
<polygon fill="#63b8ff" stroke="#63b8ff" points="57.11,-517.65 53.81,-507.58 50.11,-517.51 57.11,-517.65"/>
</a>
</g>
</g>
<!-- Node8 -->
<g id="Node000008" class="node">
<title>Node8</title>
<g id="a_Node000008"><a xlink:href="classhelios_1_1engine_1_1ecs_1_1CloneableComponent.html" target="_top" xlink:title=" ">
<polygon fill="white" stroke="#666666" points="325,-808 162,-808 162,-767 325,-767 325,-808"/>
<text text-anchor="start" x="170" y="-796" font-family="Helvetica,sans-Serif" font-size="10.00">helios::engine::ecs</text>
<text text-anchor="start" x="170" y="-785" font-family="Helvetica,sans-Serif" font-size="10.00">::CloneableComponent</text>
<text text-anchor="middle" x="243.5" y="-774" font-family="Helvetica,sans-Serif" font-size="10.00">&lt; CollisionStateComponent &gt;</text>
</a>
</g>
</g>
<!-- Node1&#45;&gt;Node8 -->
<g id="edge7_Node000001_Node000008" class="edge">
<title>Node1&#45;&gt;Node8</title>
<g id="a_edge7_Node000001_Node000008"><a xlink:title=" ">
<path fill="none" stroke="#63b8ff" d="M55.43,-517.79C58.76,-570.34 73.95,-691.99 143,-758.5 148.44,-763.74 154.78,-768.05 161.57,-771.58"/>
<polygon fill="#63b8ff" stroke="#63b8ff" points="58.92,-517.46 54.89,-507.66 51.93,-517.84 58.92,-517.46"/>
</a>
</g>
</g>
<!-- Node10 -->
<g id="Node000010" class="node">
<title>Node10</title>
<g id="a_Node000010"><a xlink:href="classhelios_1_1engine_1_1ecs_1_1CloneableComponent.html" target="_top" xlink:title=" ">
<polygon fill="white" stroke="#666666" points="313.5,-749 173.5,-749 173.5,-708 313.5,-708 313.5,-749"/>
<text text-anchor="start" x="181.5" y="-737" font-family="Helvetica,sans-Serif" font-size="10.00">helios::engine::ecs</text>
<text text-anchor="start" x="181.5" y="-726" font-family="Helvetica,sans-Serif" font-size="10.00">::CloneableComponent</text>
<text text-anchor="middle" x="243.5" y="-715" font-family="Helvetica,sans-Serif" font-size="10.00">&lt; DirectionComponent &gt;</text>
</a>
</g>
</g>
<!-- Node1&#45;&gt;Node10 -->
<g id="edge9_Node000001_Node000010" class="edge">
<title>Node1&#45;&gt;Node10</title>
<g id="a_edge9_Node000001_Node000010"><a xlink:title=" ">
<path fill="none" stroke="#63b8ff" d="M58.15,-517.56C65.83,-561.04 87.72,-650.51 143,-699.5 151.69,-707.2 162.31,-712.86 173.35,-717.02"/>
<polygon fill="#63b8ff" stroke="#63b8ff" points="61.58,-516.84 56.5,-507.55 54.68,-517.98 61.58,-516.84"/>
</a>
</g>
</g>
<!-- Node12 -->
<g id="Node000012" class="node">
<title>Node12</title>
<g id="a_Node000012"><a xlink:href="classhelios_1_1engine_1_1ecs_1_1CloneableComponent.html" target="_top" xlink:title=" ">
<polygon fill="white" stroke="#666666" points="311.5,-690 175.5,-690 175.5,-649 311.5,-649 311.5,-690"/>
<text text-anchor="start" x="183.5" y="-678" font-family="Helvetica,sans-Serif" font-size="10.00">helios::engine::ecs</text>
<text text-anchor="start" x="183.5" y="-667" font-family="Helvetica,sans-Serif" font-size="10.00">::CloneableComponent</text>
<text text-anchor="middle" x="243.5" y="-656" font-family="Helvetica,sans-Serif" font-size="10.00">&lt; Move2DComponent &gt;</text>
</a>
</g>
</g>
<!-- Node1&#45;&gt;Node12 -->
<g id="edge11_Node000001_Node000012" class="edge">
<title>Node1&#45;&gt;Node12</title>
<g id="a_edge11_Node000001_Node000012"><a xlink:title=" ">
<path fill="none" stroke="#63b8ff" d="M62.82,-517.41C75.12,-550.44 101.31,-608.3 143,-640.5 152.54,-647.87 163.9,-653.37 175.48,-657.47"/>
<polygon fill="#63b8ff" stroke="#63b8ff" points="65.98,-515.86 59.31,-507.63 59.39,-518.22 65.98,-515.86"/>
</a>
</g>
</g>
<!-- Node14 -->
<g id="Node000014" class="node">
<title>Node14</title>
<g id="a_Node000014"><a xlink:href="classhelios_1_1engine_1_1ecs_1_1CloneableComponent.html" target="_top" xlink:title=" ">
<polygon fill="white" stroke="#666666" points="324.5,-631 162.5,-631 162.5,-590 324.5,-590 324.5,-631"/>
<text text-anchor="start" x="170.5" y="-619" font-family="Helvetica,sans-Serif" font-size="10.00">helios::engine::ecs</text>
<text text-anchor="start" x="170.5" y="-608" font-family="Helvetica,sans-Serif" font-size="10.00">::CloneableComponent</text>
<text text-anchor="middle" x="243.5" y="-597" font-family="Helvetica,sans-Serif" font-size="10.00">&lt; RotationStateComponent &gt;</text>
</a>
</g>
</g>
<!-- Node1&#45;&gt;Node14 -->
<g id="edge13_Node000001_Node000014" class="edge">
<title>Node1&#45;&gt;Node14</title>
<g id="a_edge13_Node000001_Node000014"><a xlink:title=" ">
<path fill="none" stroke="#63b8ff" d="M71.99,-515.81C88.28,-535.96 114.31,-564.46 143,-581.5 149.11,-585.13 155.7,-588.33 162.49,-591.14"/>
<polygon fill="#63b8ff" stroke="#63b8ff" points="74.57,-513.43 65.63,-507.74 69.07,-517.76 74.57,-513.43"/>
</a>
</g>
</g>
<!-- Node16 -->
<g id="Node000016" class="node">
<title>Node16</title>
<g id="a_Node000016"><a xlink:href="classhelios_1_1engine_1_1ecs_1_1CloneableComponent.html" target="_top" xlink:title=" ">
<polygon fill="white" stroke="#666666" points="307.5,-572 179.5,-572 179.5,-531 307.5,-531 307.5,-572"/>
<text text-anchor="start" x="187.5" y="-560" font-family="Helvetica,sans-Serif" font-size="10.00">helios::engine::ecs</text>
<text text-anchor="start" x="187.5" y="-549" font-family="Helvetica,sans-Serif" font-size="10.00">::CloneableComponent</text>
<text text-anchor="middle" x="243.5" y="-538" font-family="Helvetica,sans-Serif" font-size="10.00">&lt; SpinComponent &gt;</text>
</a>
</g>
</g>
<!-- Node1&#45;&gt;Node16 -->
<g id="edge15_Node000001_Node000016" class="edge">
<title>Node1&#45;&gt;Node16</title>
<g id="a_edge15_Node000001_Node000016"><a xlink:title=" ">
<path fill="none" stroke="#63b8ff" d="M107.26,-510.8C118.99,-514.75 131.39,-518.84 143,-522.5 154.76,-526.2 167.34,-530 179.48,-533.58"/>
<polygon fill="#63b8ff" stroke="#63b8ff" points="108.18,-507.42 97.59,-507.52 105.94,-514.05 108.18,-507.42"/>
</a>
</g>
</g>
<!-- Node18 -->
<g id="Node000018" class="node">
<title>Node18</title>
<g id="a_Node000018"><a xlink:href="classhelios_1_1engine_1_1ecs_1_1CloneableComponent.html" target="_top" xlink:title=" ">
<polygon fill="white" stroke="#666666" points="311.5,-513 175.5,-513 175.5,-472 311.5,-472 311.5,-513"/>
<text text-anchor="start" x="183.5" y="-501" font-family="Helvetica,sans-Serif" font-size="10.00">helios::engine::ecs</text>
<text text-anchor="start" x="183.5" y="-490" font-family="Helvetica,sans-Serif" font-size="10.00">::CloneableComponent</text>
<text text-anchor="middle" x="243.5" y="-479" font-family="Helvetica,sans-Serif" font-size="10.00">&lt; SteeringComponent &gt;</text>
</a>
</g>
</g>
<!-- Node1&#45;&gt;Node18 -->
<g id="edge17_Node000001_Node000018" class="edge">
<title>Node1&#45;&gt;Node18</title>
<g id="a_edge17_Node000001_Node000018"><a xlink:title=" ">
<path fill="none" stroke="#63b8ff" d="M117.28,-492.5C135.96,-492.5 156.49,-492.5 175.43,-492.5"/>
<polygon fill="#63b8ff" stroke="#63b8ff" points="117.12,-489 107.12,-492.5 117.12,-496 117.12,-489"/>
</a>
</g>
</g>
<!-- Node20 -->
<g id="Node000020" class="node">
<title>Node20</title>
<g id="a_Node000020"><a xlink:href="classhelios_1_1engine_1_1ecs_1_1CloneableComponent.html" target="_top" xlink:title=" ">
<polygon fill="white" stroke="#666666" points="307.5,-454 179.5,-454 179.5,-413 307.5,-413 307.5,-454"/>
<text text-anchor="start" x="187.5" y="-442" font-family="Helvetica,sans-Serif" font-size="10.00">helios::engine::ecs</text>
<text text-anchor="start" x="187.5" y="-431" font-family="Helvetica,sans-Serif" font-size="10.00">::CloneableComponent</text>
<text text-anchor="middle" x="243.5" y="-420" font-family="Helvetica,sans-Serif" font-size="10.00">&lt; PoolIdComponent &gt;</text>
</a>
</g>
</g>
<!-- Node1&#45;&gt;Node20 -->
<g id="edge19_Node000001_Node000020" class="edge">
<title>Node1&#45;&gt;Node20</title>
<g id="a_edge19_Node000001_Node000020"><a xlink:title=" ">
<path fill="none" stroke="#63b8ff" d="M109.49,-474.26C120.57,-470.64 132.14,-466.91 143,-463.5 154.7,-459.82 167.21,-455.98 179.27,-452.32"/>
<polygon fill="#63b8ff" stroke="#63b8ff" points="108.33,-470.95 99.91,-477.39 110.5,-477.61 108.33,-470.95"/>
</a>
</g>
</g>
<!-- Node22 -->
<g id="Node000022" class="node">
<title>Node22</title>
<g id="a_Node000022"><a xlink:href="classhelios_1_1engine_1_1ecs_1_1CloneableComponent.html" target="_top" xlink:title=" ">
<polygon fill="white" stroke="#666666" points="318.5,-395 168.5,-395 168.5,-354 318.5,-354 318.5,-395"/>
<text text-anchor="start" x="176.5" y="-383" font-family="Helvetica,sans-Serif" font-size="10.00">helios::engine::ecs</text>
<text text-anchor="start" x="176.5" y="-372" font-family="Helvetica,sans-Serif" font-size="10.00">::CloneableComponent</text>
<text text-anchor="middle" x="243.5" y="-361" font-family="Helvetica,sans-Serif" font-size="10.00">&lt; ModelAabbComponent &gt;</text>
</a>
</g>
</g>
<!-- Node1&#45;&gt;Node22 -->
<g id="edge21_Node000001_Node000022" class="edge">
<title>Node1&#45;&gt;Node22</title>
<g id="a_edge21_Node000001_Node000022"><a xlink:title=" ">
<path fill="none" stroke="#63b8ff" d="M72.08,-469.52C88.43,-449.64 114.5,-421.49 143,-404.5 150.9,-399.79 159.61,-395.76 168.48,-392.34"/>
<polygon fill="#63b8ff" stroke="#63b8ff" points="69.23,-467.49 65.69,-477.48 74.68,-471.87 69.23,-467.49"/>
</a>
</g>
</g>
<!-- Node24 -->
<g id="Node000024" class="node">
<title>Node24</title>
<g id="a_Node000024"><a xlink:href="classhelios_1_1engine_1_1ecs_1_1CloneableComponent.html" target="_top" xlink:title=" ">
<polygon fill="white" stroke="#666666" points="319,-336 168,-336 168,-295 319,-295 319,-336"/>
<text text-anchor="start" x="176" y="-324" font-family="Helvetica,sans-Serif" font-size="10.00">helios::engine::ecs</text>
<text text-anchor="start" x="176" y="-313" font-family="Helvetica,sans-Serif" font-size="10.00">::CloneableComponent</text>
<text text-anchor="middle" x="243.5" y="-302" font-family="Helvetica,sans-Serif" font-size="10.00">&lt; RenderableComponent &gt;</text>
</a>
</g>
</g>
<!-- Node1&#45;&gt;Node24 -->
<g id="edge23_Node000001_Node000024" class="edge">
<title>Node1&#45;&gt;Node24</title>
<g id="a_edge23_Node000001_Node000024"><a xlink:title=" ">
<path fill="none" stroke="#63b8ff" d="M63.1,-467.3C75.58,-434.48 101.83,-377.51 143,-345.5 150.41,-339.74 158.91,-335.08 167.76,-331.32"/>
<polygon fill="#63b8ff" stroke="#63b8ff" points="59.68,-466.46 59.53,-477.05 66.26,-468.87 59.68,-466.46"/>
</a>
</g>
</g>
<!-- Node26 -->
<g id="Node000026" class="node">
<title>Node26</title>
<g id="a_Node000026"><a xlink:href="classhelios_1_1engine_1_1ecs_1_1CloneableComponent.html" target="_top" xlink:title=" ">
<polygon fill="white" stroke="#666666" points="318.5,-277 168.5,-277 168.5,-236 318.5,-236 318.5,-277"/>
<text text-anchor="start" x="176.5" y="-265" font-family="Helvetica,sans-Serif" font-size="10.00">helios::engine::ecs</text>
<text text-anchor="start" x="176.5" y="-254" font-family="Helvetica,sans-Serif" font-size="10.00">::CloneableComponent</text>
<text text-anchor="middle" x="243.5" y="-243" font-family="Helvetica,sans-Serif" font-size="10.00">&lt; SceneNodeComponent &gt;</text>
</a>
</g>
</g>
<!-- Node1&#45;&gt;Node26 -->
<g id="edge25_Node000001_Node000026" class="edge">
<title>Node1&#45;&gt;Node26</title>
<g id="a_edge25_Node000001_Node000026"><a xlink:title=" ">
<path fill="none" stroke="#63b8ff" d="M58.3,-467.3C66.15,-423.98 88.27,-335.38 143,-286.5 150.4,-279.89 159.22,-274.74 168.49,-270.72"/>
<polygon fill="#63b8ff" stroke="#63b8ff" points="54.82,-466.84 56.6,-477.28 61.73,-468.01 54.82,-466.84"/>
</a>
</g>
</g>
<!-- Node28 -->
<g id="Node000028" class="node">
<title>Node28</title>
<g id="a_Node000028"><a xlink:href="classhelios_1_1engine_1_1ecs_1_1CloneableComponent.html" target="_top" xlink:title=" ">
<polygon fill="white" stroke="#666666" points="307.5,-218 179.5,-218 179.5,-177 307.5,-177 307.5,-218"/>
<text text-anchor="start" x="187.5" y="-206" font-family="Helvetica,sans-Serif" font-size="10.00">helios::engine::ecs</text>
<text text-anchor="start" x="187.5" y="-195" font-family="Helvetica,sans-Serif" font-size="10.00">::CloneableComponent</text>
<text text-anchor="middle" x="243.5" y="-184" font-family="Helvetica,sans-Serif" font-size="10.00">&lt; ScaleComponent &gt;</text>
</a>
</g>
</g>
<!-- Node1&#45;&gt;Node28 -->
<g id="edge27_Node000001_Node000028" class="edge">
<title>Node1&#45;&gt;Node28</title>
<g id="a_edge27_Node000001_Node000028"><a xlink:title=" ">
<path fill="none" stroke="#63b8ff" d="M55.51,-467.36C58.99,-415.09 74.45,-294.06 143,-227.5 153.03,-217.76 166.11,-211.17 179.47,-206.71"/>
<polygon fill="#63b8ff" stroke="#63b8ff" points="52.01,-467.24 54.94,-477.42 59,-467.64 52.01,-467.24"/>
</a>
</g>
</g>
<!-- Node30 -->
<g id="Node000030" class="node">
<title>Node30</title>
<g id="a_Node000030"><a xlink:href="classhelios_1_1engine_1_1ecs_1_1CloneableComponent.html" target="_top" xlink:title=" ">
<polygon fill="white" stroke="#666666" points="315.5,-159 171.5,-159 171.5,-118 315.5,-118 315.5,-159"/>
<text text-anchor="start" x="179.5" y="-147" font-family="Helvetica,sans-Serif" font-size="10.00">helios::engine::ecs</text>
<text text-anchor="start" x="179.5" y="-136" font-family="Helvetica,sans-Serif" font-size="10.00">::CloneableComponent</text>
<text text-anchor="middle" x="243.5" y="-125" font-family="Helvetica,sans-Serif" font-size="10.00">&lt; TransformComponent &gt;</text>
</a>
</g>
</g>
<!-- Node1&#45;&gt;Node30 -->
<g id="edge29_Node000001_Node000030" class="edge">
<title>Node1&#45;&gt;Node30</title>
<g id="a_edge29_Node000001_Node000030"><a xlink:title=" ">
<path fill="none" stroke="#63b8ff" d="M53.69,-467.38C53.16,-407.15 60.45,-253.24 143,-168.5 150.87,-160.42 160.83,-154.5 171.38,-150.16"/>
<polygon fill="#63b8ff" stroke="#63b8ff" points="50.19,-467.56 53.86,-477.5 57.19,-467.44 50.19,-467.56"/>
</a>
</g>
</g>
<!-- Node32 -->
<g id="Node000032" class="node">
<title>Node32</title>
<g id="a_Node000032"><a xlink:href="classhelios_1_1engine_1_1ecs_1_1CloneableComponent.html" target="_top" xlink:title=" ">
<polygon fill="white" stroke="#666666" points="330.5,-100 156.5,-100 156.5,-59 330.5,-59 330.5,-100"/>
<text text-anchor="start" x="164.5" y="-88" font-family="Helvetica,sans-Serif" font-size="10.00">helios::engine::ecs</text>
<text text-anchor="start" x="164.5" y="-77" font-family="Helvetica,sans-Serif" font-size="10.00">::CloneableComponent</text>
<text text-anchor="middle" x="243.5" y="-66" font-family="Helvetica,sans-Serif" font-size="10.00">&lt; TranslationStateComponent &gt;</text>
</a>
</g>
</g>
<!-- Node1&#45;&gt;Node32 -->
<g id="edge31_Node000001_Node000032" class="edge">
<title>Node1&#45;&gt;Node32</title>
<g id="a_edge31_Node000001_Node000032"><a xlink:title=" ">
<path fill="none" stroke="#63b8ff" d="M57.02,-467.12C65.17,-390.12 93.19,-161.24 143,-108.5 146.95,-104.31 151.47,-100.72 156.36,-97.64"/>
<polygon fill="#63b8ff" stroke="#63b8ff" points="53.51,-467.03 55.97,-477.34 60.48,-467.75 53.51,-467.03"/>
</a>
</g>
</g>
<!-- Node34 -->
<g id="Node000034" class="node">
<title>Node34</title>
<g id="a_Node000034"><a xlink:href="classhelios_1_1engine_1_1ecs_1_1CloneableComponent.html" target="_top" xlink:title="CRTP base class for components that support cloning.">
<polygon fill="white" stroke="#666666" points="307.5,-41 179.5,-41 179.5,0 307.5,0 307.5,-41"/>
<text text-anchor="start" x="187.5" y="-29" font-family="Helvetica,sans-Serif" font-size="10.00">helios::engine::ecs</text>
<text text-anchor="start" x="187.5" y="-18" font-family="Helvetica,sans-Serif" font-size="10.00">::CloneableComponent</text>
<text text-anchor="middle" x="243.5" y="-7" font-family="Helvetica,sans-Serif" font-size="10.00">&lt; Derived &gt;</text>
</a>
</g>
</g>
<!-- Node1&#45;&gt;Node34 -->
<g id="edge33_Node000001_Node000034" class="edge">
<title>Node1&#45;&gt;Node34</title>
<g id="a_edge33_Node000001_Node000034"><a xlink:title=" ">
<path fill="none" stroke="#63b8ff" d="M56.17,-467.22C62.25,-382.7 85.93,-111.73 143,-49.5 152.61,-39.02 165.76,-32.25 179.36,-27.9"/>
<polygon fill="#63b8ff" stroke="#63b8ff" points="52.66,-467.23 55.46,-477.45 59.64,-467.71 52.66,-467.23"/>
</a>
</g>
</g>
<!-- Node3 -->
<g id="Node000003" class="node">
<title>Node3</title>
<g id="a_Node000003"><a xlink:href="classhelios_1_1engine_1_1mechanics_1_1bounds_1_1components_1_1LevelBoundsBehaviorComponent.html" target="_top" xlink:title="Component that defines how an entity reacts to level boundaries.">
<polygon fill="white" stroke="#666666" points="585,-985 393,-985 393,-944 585,-944 585,-985"/>
<text text-anchor="start" x="401" y="-973" font-family="Helvetica,sans-Serif" font-size="10.00">helios::engine::mechanics</text>
<text text-anchor="start" x="401" y="-962" font-family="Helvetica,sans-Serif" font-size="10.00">::bounds::components::LevelBounds</text>
<text text-anchor="middle" x="489" y="-951" font-family="Helvetica,sans-Serif" font-size="10.00">BehaviorComponent</text>
</a>
</g>
</g>
<!-- Node2&#45;&gt;Node3 -->
<g id="edge2_Node000002_Node000003" class="edge">
<title>Node2&#45;&gt;Node3</title>
<g id="a_edge2_Node000002_Node000003"><a xlink:title=" ">
<path fill="none" stroke="#63b8ff" d="M354.44,-964.5C367.22,-964.5 380.17,-964.5 392.73,-964.5"/>
<polygon fill="#63b8ff" stroke="#63b8ff" points="354.24,-961 344.24,-964.5 354.24,-968 354.24,-961"/>
</a>
</g>
</g>
<!-- Node5 -->
<g id="Node000005" class="node">
<title>Node5</title>
<g id="a_Node000005"><a xlink:href="classhelios_1_1engine_1_1modules_1_1physics_1_1collision_1_1components_1_1AabbColliderComponent.html" target="_top" xlink:title="Component that defines an Axis&#45;Aligned Bounding Box (AABB) for physics interactions.">
<polygon fill="white" stroke="#666666" points="589.5,-926 388.5,-926 388.5,-885 589.5,-885 589.5,-926"/>
<text text-anchor="start" x="396.5" y="-914" font-family="Helvetica,sans-Serif" font-size="10.00">helios::engine::modules</text>
<text text-anchor="start" x="396.5" y="-903" font-family="Helvetica,sans-Serif" font-size="10.00">::physics::collision::</text>
<text text-anchor="middle" x="489" y="-892" font-family="Helvetica,sans-Serif" font-size="10.00">components::AabbColliderComponent</text>
</a>
</g>
</g>
<!-- Node4&#45;&gt;Node5 -->
<g id="edge4_Node000004_Node000005" class="edge">
<title>Node4&#45;&gt;Node5</title>
<g id="a_edge4_Node000004_Node000005"><a xlink:title=" ">
<path fill="none" stroke="#63b8ff" d="M332.71,-905.5C350.71,-905.5 369.76,-905.5 388.12,-905.5"/>
<polygon fill="#63b8ff" stroke="#63b8ff" points="332.55,-902 322.55,-905.5 332.55,-909 332.55,-902"/>
</a>
</g>
</g>
<!-- Node7 -->
<g id="Node000007" class="node">
<title>Node7</title>
<g id="a_Node000007"><a xlink:href="classhelios_1_1engine_1_1modules_1_1physics_1_1collision_1_1components_1_1CollisionComponent.html" target="_top" xlink:title="Defines collision layer membership and interaction masks for a GameObject.">
<polygon fill="white" stroke="#666666" points="579.5,-867 398.5,-867 398.5,-826 579.5,-826 579.5,-867"/>
<text text-anchor="start" x="406.5" y="-855" font-family="Helvetica,sans-Serif" font-size="10.00">helios::engine::modules</text>
<text text-anchor="start" x="406.5" y="-844" font-family="Helvetica,sans-Serif" font-size="10.00">::physics::collision::</text>
<text text-anchor="middle" x="489" y="-833" font-family="Helvetica,sans-Serif" font-size="10.00">components::CollisionComponent</text>
</a>
</g>
</g>
<!-- Node6&#45;&gt;Node7 -->
<g id="edge6_Node000006_Node000007" class="edge">
<title>Node6&#45;&gt;Node7</title>
<g id="a_edge6_Node000006_Node000007"><a xlink:title=" ">
<path fill="none" stroke="#63b8ff" d="M322.23,-846.5C346.49,-846.5 373.45,-846.5 398.46,-846.5"/>
<polygon fill="#63b8ff" stroke="#63b8ff" points="322,-843 312,-846.5 322,-850 322,-843"/>
</a>
</g>
</g>
<!-- Node9 -->
<g id="Node000009" class="node">
<title>Node9</title>
<g id="a_Node000009"><a xlink:href="classhelios_1_1engine_1_1modules_1_1physics_1_1collision_1_1components_1_1CollisionStateComponent.html" target="_top" xlink:title="Stores per&#45;frame collision state for a GameObject.">
<polygon fill="white" stroke="#666666" points="592,-808 386,-808 386,-767 592,-767 592,-808"/>
<text text-anchor="start" x="394" y="-796" font-family="Helvetica,sans-Serif" font-size="10.00">helios::engine::modules</text>
<text text-anchor="start" x="394" y="-785" font-family="Helvetica,sans-Serif" font-size="10.00">::physics::collision::</text>
<text text-anchor="middle" x="489" y="-774" font-family="Helvetica,sans-Serif" font-size="10.00">components::CollisionStateComponent</text>
</a>
</g>
</g>
<!-- Node8&#45;&gt;Node9 -->
<g id="edge8_Node000008_Node000009" class="edge">
<title>Node8&#45;&gt;Node9</title>
<g id="a_edge8_Node000008_Node000009"><a xlink:title=" ">
<path fill="none" stroke="#63b8ff" d="M335.36,-787.5C351.81,-787.5 369.05,-787.5 385.79,-787.5"/>
<polygon fill="#63b8ff" stroke="#63b8ff" points="335.24,-784 325.24,-787.5 335.24,-791 335.24,-784"/>
</a>
</g>
</g>
<!-- Node11 -->
<g id="Node000011" class="node">
<title>Node11</title>
<g id="a_Node000011"><a xlink:href="classhelios_1_1engine_1_1modules_1_1physics_1_1motion_1_1components_1_1DirectionComponent.html" target="_top" xlink:title="Component that holds a normalized direction vector.">
<polygon fill="white" stroke="#666666" points="572,-749 406,-749 406,-708 572,-708 572,-749"/>
<text text-anchor="start" x="414" y="-737" font-family="Helvetica,sans-Serif" font-size="10.00">helios::engine::modules</text>
<text text-anchor="start" x="414" y="-726" font-family="Helvetica,sans-Serif" font-size="10.00">::physics::motion::components</text>
<text text-anchor="middle" x="489" y="-715" font-family="Helvetica,sans-Serif" font-size="10.00">::DirectionComponent</text>
</a>
</g>
</g>
<!-- Node10&#45;&gt;Node11 -->
<g id="edge10_Node000010_Node000011" class="edge">
<title>Node10&#45;&gt;Node11</title>
<g id="a_edge10_Node000010_Node000011"><a xlink:title=" ">
<path fill="none" stroke="#63b8ff" d="M323.9,-728.5C350.11,-728.5 379.33,-728.5 405.75,-728.5"/>
<polygon fill="#63b8ff" stroke="#63b8ff" points="323.63,-725 313.63,-728.5 323.63,-732 323.63,-725"/>
</a>
</g>
</g>
<!-- Node13 -->
<g id="Node000013" class="node">
<title>Node13</title>
<g id="a_Node000013"><a xlink:href="classhelios_1_1engine_1_1modules_1_1physics_1_1motion_1_1components_1_1Move2DComponent.html" target="_top" xlink:title="Component for 2D physics&#45;based movement.">
<polygon fill="white" stroke="#666666" points="572,-690 406,-690 406,-649 572,-649 572,-690"/>
<text text-anchor="start" x="414" y="-678" font-family="Helvetica,sans-Serif" font-size="10.00">helios::engine::modules</text>
<text text-anchor="start" x="414" y="-667" font-family="Helvetica,sans-Serif" font-size="10.00">::physics::motion::components</text>
<text text-anchor="middle" x="489" y="-656" font-family="Helvetica,sans-Serif" font-size="10.00">::Move2DComponent</text>
</a>
</g>
</g>
<!-- Node12&#45;&gt;Node13 -->
<g id="edge12_Node000012_Node000013" class="edge">
<title>Node12&#45;&gt;Node13</title>
<g id="a_edge12_Node000012_Node000013"><a xlink:title=" ">
<path fill="none" stroke="#63b8ff" d="M321.77,-669.5C348.57,-669.5 378.69,-669.5 405.86,-669.5"/>
<polygon fill="#63b8ff" stroke="#63b8ff" points="321.68,-666 311.68,-669.5 321.68,-673 321.68,-666"/>
</a>
</g>
</g>
<!-- Node15 -->
<g id="Node000015" class="node">
<title>Node15</title>
<g id="a_Node000015"><a xlink:href="classhelios_1_1engine_1_1modules_1_1physics_1_1motion_1_1components_1_1RotationStateComponent.html" target="_top" xlink:title="Component that manages composite rotation from heading and spin rotations.">
<polygon fill="white" stroke="#666666" points="572,-631 406,-631 406,-590 572,-590 572,-631"/>
<text text-anchor="start" x="414" y="-619" font-family="Helvetica,sans-Serif" font-size="10.00">helios::engine::modules</text>
<text text-anchor="start" x="414" y="-608" font-family="Helvetica,sans-Serif" font-size="10.00">::physics::motion::components</text>
<text text-anchor="middle" x="489" y="-597" font-family="Helvetica,sans-Serif" font-size="10.00">::RotationStateComponent</text>
</a>
</g>
</g>
<!-- Node14&#45;&gt;Node15 -->
<g id="edge14_Node000014_Node000015" class="edge">
<title>Node14&#45;&gt;Node15</title>
<g id="a_edge14_Node000014_Node000015"><a xlink:title=" ">
<path fill="none" stroke="#63b8ff" d="M334.78,-610.5C358.05,-610.5 382.96,-610.5 405.8,-610.5"/>
<polygon fill="#63b8ff" stroke="#63b8ff" points="334.57,-607 324.57,-610.5 334.57,-614 334.57,-607"/>
</a>
</g>
</g>
<!-- Node17 -->
<g id="Node000017" class="node">
<title>Node17</title>
<g id="a_Node000017"><a xlink:href="classhelios_1_1engine_1_1modules_1_1physics_1_1motion_1_1components_1_1SpinComponent.html" target="_top" xlink:title="Component that defines spin properties for an entity.">
<polygon fill="white" stroke="#666666" points="572,-572 406,-572 406,-531 572,-531 572,-572"/>
<text text-anchor="start" x="414" y="-560" font-family="Helvetica,sans-Serif" font-size="10.00">helios::engine::modules</text>
<text text-anchor="start" x="414" y="-549" font-family="Helvetica,sans-Serif" font-size="10.00">::physics::motion::components</text>
<text text-anchor="middle" x="489" y="-538" font-family="Helvetica,sans-Serif" font-size="10.00">::SpinComponent</text>
</a>
</g>
</g>
<!-- Node16&#45;&gt;Node17 -->
<g id="edge16_Node000016_Node000017" class="edge">
<title>Node16&#45;&gt;Node17</title>
<g id="a_edge16_Node000016_Node000017"><a xlink:title=" ">
<path fill="none" stroke="#63b8ff" d="M317.58,-551.5C345.42,-551.5 377.33,-551.5 405.95,-551.5"/>
<polygon fill="#63b8ff" stroke="#63b8ff" points="317.52,-548 307.52,-551.5 317.52,-555 317.52,-548"/>
</a>
</g>
</g>
<!-- Node19 -->
<g id="Node000019" class="node">
<title>Node19</title>
<g id="a_Node000019"><a xlink:href="classhelios_1_1engine_1_1modules_1_1physics_1_1motion_1_1components_1_1SteeringComponent.html" target="_top" xlink:title="Component that manages the heading (orientation) of an entity.">
<polygon fill="white" stroke="#666666" points="572,-513 406,-513 406,-472 572,-472 572,-513"/>
<text text-anchor="start" x="414" y="-501" font-family="Helvetica,sans-Serif" font-size="10.00">helios::engine::modules</text>
<text text-anchor="start" x="414" y="-490" font-family="Helvetica,sans-Serif" font-size="10.00">::physics::motion::components</text>
<text text-anchor="middle" x="489" y="-479" font-family="Helvetica,sans-Serif" font-size="10.00">::SteeringComponent</text>
</a>
</g>
</g>
<!-- Node18&#45;&gt;Node19 -->
<g id="edge18_Node000018_Node000019" class="edge">
<title>Node18&#45;&gt;Node19</title>
<g id="a_edge18_Node000018_Node000019"><a xlink:title=" ">
<path fill="none" stroke="#63b8ff" d="M321.77,-492.5C348.57,-492.5 378.69,-492.5 405.86,-492.5"/>
<polygon fill="#63b8ff" stroke="#63b8ff" points="321.68,-489 311.68,-492.5 321.68,-496 321.68,-489"/>
</a>
</g>
</g>
<!-- Node21 -->
<g id="Node000021" class="node">
<title>Node21</title>
<g id="a_Node000021"><a xlink:href="classhelios_1_1engine_1_1modules_1_1pool_1_1components_1_1PoolIdComponent.html" target="_top" xlink:title="Component that identifies which pool a GameObject belongs to.">
<polygon fill="white" stroke="#666666" points="590,-448.5 388,-448.5 388,-418.5 590,-418.5 590,-448.5"/>
<text text-anchor="start" x="396" y="-436.5" font-family="Helvetica,sans-Serif" font-size="10.00">helios::engine::modules</text>
<text text-anchor="middle" x="489" y="-425.5" font-family="Helvetica,sans-Serif" font-size="10.00">::pool::components::PoolIdComponent</text>
</a>
</g>
</g>
<!-- Node20&#45;&gt;Node21 -->
<g id="edge20_Node000020_Node000021" class="edge">
<title>Node20&#45;&gt;Node21</title>
<g id="a_edge20_Node000020_Node000021"><a xlink:title=" ">
<path fill="none" stroke="#63b8ff" d="M317.8,-433.5C339.86,-433.5 364.46,-433.5 387.94,-433.5"/>
<polygon fill="#63b8ff" stroke="#63b8ff" points="317.52,-430 307.52,-433.5 317.52,-437 317.52,-430"/>
</a>
</g>
</g>
<!-- Node23 -->
<g id="Node000023" class="node">
<title>Node23</title>
<g id="a_Node000023"><a xlink:href="classhelios_1_1engine_1_1modules_1_1rendering_1_1model_1_1components_1_1ModelAabbComponent.html" target="_top" xlink:title="Component that stores the canonical Axis&#45;Aligned Bounding Box (AABB) of a model.">
<polygon fill="white" stroke="#666666" points="575,-395 403,-395 403,-354 575,-354 575,-395"/>
<text text-anchor="start" x="411" y="-383" font-family="Helvetica,sans-Serif" font-size="10.00">helios::engine::modules</text>
<text text-anchor="start" x="411" y="-372" font-family="Helvetica,sans-Serif" font-size="10.00">::rendering::model::components</text>
<text text-anchor="middle" x="489" y="-361" font-family="Helvetica,sans-Serif" font-size="10.00">::ModelAabbComponent</text>
</a>
</g>
</g>
<!-- Node22&#45;&gt;Node23 -->
<g id="edge22_Node000022_Node000023" class="edge">
<title>Node22&#45;&gt;Node23</title>
<g id="a_edge22_Node000022_Node000023"><a xlink:title=" ">
<path fill="none" stroke="#63b8ff" d="M328.68,-374.5C352.64,-374.5 378.76,-374.5 402.78,-374.5"/>
<polygon fill="#63b8ff" stroke="#63b8ff" points="328.55,-371 318.55,-374.5 328.55,-378 328.55,-371"/>
</a>
</g>
</g>
<!-- Node25 -->
<g id="Node000025" class="node">
<title>Node25</title>
<g id="a_Node000025"><a xlink:href="classhelios_1_1engine_1_1modules_1_1rendering_1_1renderable_1_1components_1_1RenderableComponent.html" target="_top" xlink:title="Component that holds a shared pointer to a Renderable resource.">
<polygon fill="white" stroke="#666666" points="589,-336 389,-336 389,-295 589,-295 589,-336"/>
<text text-anchor="start" x="397" y="-324" font-family="Helvetica,sans-Serif" font-size="10.00">helios::engine::modules</text>
<text text-anchor="start" x="397" y="-313" font-family="Helvetica,sans-Serif" font-size="10.00">::rendering::renderable</text>
<text text-anchor="middle" x="489" y="-302" font-family="Helvetica,sans-Serif" font-size="10.00">::components::RenderableComponent</text>
</a>
</g>
</g>
<!-- Node24&#45;&gt;Node25 -->
<g id="edge24_Node000024_Node000025" class="edge">
<title>Node24&#45;&gt;Node25</title>
<g id="a_edge24_Node000024_Node000025"><a xlink:title=" ">
<path fill="none" stroke="#63b8ff" d="M329.4,-315.5C348.56,-315.5 369.06,-315.5 388.75,-315.5"/>
<polygon fill="#63b8ff" stroke="#63b8ff" points="329.21,-312 319.21,-315.5 329.21,-319 329.21,-312"/>
</a>
</g>
</g>
<!-- Node27 -->
<g id="Node000027" class="node">
<title>Node27</title>
<g id="a_Node000027"><a xlink:href="classhelios_1_1engine_1_1modules_1_1scene_1_1components_1_1SceneNodeComponent.html" target="_top" xlink:title="Component that links a GameObject to a SceneNode in the scene graph.">
<polygon fill="white" stroke="#666666" points="578,-277 400,-277 400,-236 578,-236 578,-277"/>
<text text-anchor="start" x="408" y="-265" font-family="Helvetica,sans-Serif" font-size="10.00">helios::engine::modules</text>
<text text-anchor="start" x="408" y="-254" font-family="Helvetica,sans-Serif" font-size="10.00">::scene::components::SceneNode</text>
<text text-anchor="middle" x="489" y="-243" font-family="Helvetica,sans-Serif" font-size="10.00">Component</text>
</a>
</g>
</g>
<!-- Node26&#45;&gt;Node27 -->
<g id="edge26_Node000026_Node000027" class="edge">
<title>Node26&#45;&gt;Node27</title>
<g id="a_edge26_Node000026_Node000027"><a xlink:title=" ">
<path fill="none" stroke="#63b8ff" d="M328.61,-256.5C351.58,-256.5 376.54,-256.5 399.74,-256.5"/>
<polygon fill="#63b8ff" stroke="#63b8ff" points="328.55,-253 318.55,-256.5 328.55,-260 328.55,-253"/>
</a>
</g>
</g>
<!-- Node29 -->
<g id="Node000029" class="node">
<title>Node29</title>
<g id="a_Node000029"><a xlink:href="classhelios_1_1engine_1_1modules_1_1spatial_1_1transform_1_1components_1_1ScaleComponent.html" target="_top" xlink:title="Component that defines the physical dimensions (scale) of an entity.">
<polygon fill="white" stroke="#666666" points="571.5,-218 406.5,-218 406.5,-177 571.5,-177 571.5,-218"/>
<text text-anchor="start" x="414.5" y="-206" font-family="Helvetica,sans-Serif" font-size="10.00">helios::engine::modules</text>
<text text-anchor="start" x="414.5" y="-195" font-family="Helvetica,sans-Serif" font-size="10.00">::spatial::transform::</text>
<text text-anchor="middle" x="489" y="-184" font-family="Helvetica,sans-Serif" font-size="10.00">components::ScaleComponent</text>
</a>
</g>
</g>
<!-- Node28&#45;&gt;Node29 -->
<g id="edge28_Node000028_Node000029" class="edge">
<title>Node28&#45;&gt;Node29</title>
<g id="a_edge28_Node000028_Node000029"><a xlink:title=" ">
<path fill="none" stroke="#63b8ff" d="M317.63,-197.5C345.61,-197.5 377.68,-197.5 406.4,-197.5"/>
<polygon fill="#63b8ff" stroke="#63b8ff" points="317.52,-194 307.52,-197.5 317.52,-201 317.52,-194"/>
</a>
</g>
</g>
<!-- Node31 -->
<g id="Node000031" class="node">
<title>Node31</title>
<g id="a_Node000031"><a xlink:href="classhelios_1_1engine_1_1modules_1_1spatial_1_1transform_1_1components_1_1TransformComponent.html" target="_top" xlink:title="Component that holds transformation data (position, rotation, scale).">
<polygon fill="white" stroke="#666666" points="583,-159 395,-159 395,-118 583,-118 583,-159"/>
<text text-anchor="start" x="403" y="-147" font-family="Helvetica,sans-Serif" font-size="10.00">helios::engine::modules</text>
<text text-anchor="start" x="403" y="-136" font-family="Helvetica,sans-Serif" font-size="10.00">::spatial::transform::</text>
<text text-anchor="middle" x="489" y="-125" font-family="Helvetica,sans-Serif" font-size="10.00">components::TransformComponent</text>
</a>
</g>
</g>
<!-- Node30&#45;&gt;Node31 -->
<g id="edge30_Node000030_Node000031" class="edge">
<title>Node30&#45;&gt;Node31</title>
<g id="a_edge30_Node000030_Node000031"><a xlink:title=" ">
<path fill="none" stroke="#63b8ff" d="M325.6,-138.5C347.72,-138.5 371.87,-138.5 394.62,-138.5"/>
<polygon fill="#63b8ff" stroke="#63b8ff" points="325.58,-135 315.58,-138.5 325.58,-142 325.58,-135"/>
</a>
</g>
</g>
<!-- Node33 -->
<g id="Node000033" class="node">
<title>Node33</title>
<g id="a_Node000033"><a xlink:href="classhelios_1_1engine_1_1modules_1_1spatial_1_1transform_1_1components_1_1TranslationStateComponent.html" target="_top" xlink:title="Component that holds the current translation (position) state.">
<polygon fill="white" stroke="#666666" points="598,-100 380,-100 380,-59 598,-59 598,-100"/>
<text text-anchor="start" x="388" y="-88" font-family="Helvetica,sans-Serif" font-size="10.00">helios::engine::modules</text>
<text text-anchor="start" x="388" y="-77" font-family="Helvetica,sans-Serif" font-size="10.00">::spatial::transform::</text>
<text text-anchor="middle" x="489" y="-66" font-family="Helvetica,sans-Serif" font-size="10.00">components::TranslationStateComponent</text>
</a>
</g>
</g>
<!-- Node32&#45;&gt;Node33 -->
<g id="edge32_Node000032_Node000033" class="edge">
<title>Node32&#45;&gt;Node33</title>
<g id="a_edge32_Node000032_Node000033"><a xlink:title=" ">
<path fill="none" stroke="#63b8ff" d="M340.84,-79.5C353.61,-79.5 366.78,-79.5 379.74,-79.5"/>
<polygon fill="#63b8ff" stroke="#63b8ff" points="340.69,-76 330.69,-79.5 340.69,-83 340.69,-76"/>
</a>
</g>
</g>
</g>
</svg>

<g id="navigator" transform="translate(0 0)" fill="#404254">
  <rect fill="#f2f5e9" fill-opacity="0.5" stroke="#606060" stroke-width=".5" x="0" y="0" width="60" height="60"/>
  <use id="zoomplus" xlink:href="#zoomPlus" x="17" y="9" onmousedown="handleZoom(evt,'in')"/>
  <use id="zoomminus" xlink:href="#zoomMin" x="42" y="9" onmousedown="handleZoom(evt,'out')"/>
  <use id="reset" xlink:href="#resetDef" x="30" y="36" onmousedown="handleReset()"/>
   <use id="arrowup" xlink:href="#arrowUp" x="0" y="0" onmousedown="handlePan(0,-1)"/>
  <use id="arrowright" xlink:href="#arrowRight" x="0" y="0" onmousedown="handlePan(1,0)"/>
  <use id="arrowdown" xlink:href="#arrowDown" x="0" y="0" onmousedown="handlePan(0,1)"/>
  <use id="arrowleft" xlink:href="#arrowLeft" x="0" y="0" onmousedown="handlePan(-1,0)"/>
</g>
<svg viewBox="0 0 15 15" width="100%" height="30px" preserveAspectRatio="xMaxYMin meet">
 <g id="arrow_out" transform="scale(0.3 0.3)">
  <a xlink:href="classhelios_1_1engine_1_1ecs_1_1Cloneable__inherit__graph_org.svg" target="_base">
   <rect id="button" ry="5" rx="5" y="6" x="6" height="38" width="38"
        fill="#f2f5e9" fill-opacity="0.5" stroke="#606060" stroke-width="1.0"/>
   <path id="arrow"
     d="M 11.500037,31.436501 C 11.940474,20.09759 22.043105,11.32322 32.158766,21.979434 L 37.068811,17.246167 C 37.068811,17.246167 37.088388,32 37.088388,32 L 22.160133,31.978069 C 22.160133,31.978069 26.997745,27.140456 26.997745,27.140456 C 18.528582,18.264221 13.291696,25.230495 11.500037,31.436501 z"
     style="fill:#404040;"/>
  </a>
 </g>
</svg>

<style type='text/css'>
<![CDATA[
[data-mouse-over-selected='false'] { opacity: 0.7; }
[data-mouse-over-selected='true']  { opacity: 1.0; }
]]>
</style>
<script type="application/ecmascript"><![CDATA[
document.addEventListener('DOMContentLoaded', (event) => {
  highlightEdges();
  highlightAdjacentNodes();
});
]]></script>
</svg>
