<?xml version="1.0" encoding="UTF-8" standalone="no"?>
<!DOCTYPE svg PUBLIC "-//W3C//DTD SVG 1.1//EN"
 "http://www.w3.org/Graphics/SVG/1.1/DTD/svg11.dtd">
<!-- Generated by graphviz version 2.43.0 (0)
 -->
<!-- Title: helios::engine::runtime::world::types::ResourceTypeId::id Pages: 1 -->
<svg width="548pt" height="49pt"
 viewBox="0.00 0.00 548.00 49.00" xmlns="http://www.w3.org/2000/svg" xmlns:xlink="http://www.w3.org/1999/xlink">
<g id="graph0" class="graph" transform="scale(1 1) rotate(0) translate(4 45)">
<title>helios::engine::runtime::world::types::ResourceTypeId::id</title>
<!-- Node1 -->
<g id="Node000001" class="node">
<title>Node1</title>
<g id="a_Node000001"><a xlink:title="Returns the ResourceTypeId for a specific type.">
<polygon fill="#999999" stroke="#666666" points="540,-41 384,-41 384,0 540,0 540,-41"/>
<text text-anchor="start" x="392" y="-29" font-family="Helvetica,sans-Serif" font-size="10.00">helios::engine::runtime</text>
<text text-anchor="start" x="392" y="-18" font-family="Helvetica,sans-Serif" font-size="10.00">::world::types::ResourceType</text>
<text text-anchor="middle" x="462" y="-7" font-family="Helvetica,sans-Serif" font-size="10.00">Id::id</text>
</a>
</g>
</g>
<!-- Node2 -->
<g id="Node000002" class="node">
<title>Node2</title>
<g id="a_Node000002"><a xlink:href="classhelios_1_1engine_1_1runtime_1_1world_1_1types_1_1ResourceTypeId.html#ac05c8074d8927aff76f80e3f9c53ceca" target="_top" xlink:title="Constructs a ResourceTypeId with a specific value.">
<polygon fill="white" stroke="#666666" points="348,-41 192,-41 192,0 348,0 348,-41"/>
<text text-anchor="start" x="200" y="-29" font-family="Helvetica,sans-Serif" font-size="10.00">helios::engine::runtime</text>
<text text-anchor="start" x="200" y="-18" font-family="Helvetica,sans-Serif" font-size="10.00">::world::types::ResourceType</text>
<text text-anchor="middle" x="270" y="-7" font-family="Helvetica,sans-Serif" font-size="10.00">Id::ResourceTypeId</text>
</a>
</g>
</g>
<!-- Node1&#45;&gt;Node2 -->
<g id="edge1_Node000001_Node000002" class="edge">
<title>Node1&#45;&gt;Node2</title>
<g id="a_edge1_Node000001_Node000002"><a xlink:title=" ">
<path fill="none" stroke="#63b8ff" d="M373.94,-13.77C365.32,-13.73 356.62,-13.75 348.12,-13.86"/>
<polygon fill="#63b8ff" stroke="#63b8ff" points="373.96,-17.27 383.99,-13.86 374.02,-10.27 373.96,-17.27"/>
</a>
</g>
</g>
<!-- Node2&#45;&gt;Node1 -->
<g id="edge2_Node000002_Node000001" class="edge">
<title>Node2&#45;&gt;Node1</title>
<g id="a_edge2_Node000002_Node000001"><a xlink:title=" ">
<path fill="none" stroke="#63b8ff" d="M358.17,-27.23C366.79,-27.27 375.49,-27.25 383.99,-27.14"/>
<polygon fill="#63b8ff" stroke="#63b8ff" points="358.15,-23.73 348.12,-27.14 358.09,-30.73 358.15,-23.73"/>
</a>
</g>
</g>
<!-- Node3 -->
<g id="Node000003" class="node">
<title>Node3</title>
<g id="a_Node000003"><a xlink:href="classhelios_1_1engine_1_1runtime_1_1world_1_1types_1_1ResourceTypeId.html#ad86c3405b14df6ade01e67b92c76adf2" target="_top" xlink:title=" ">
<polygon fill="white" stroke="#666666" points="156,-41 0,-41 0,0 156,0 156,-41"/>
<text text-anchor="start" x="8" y="-29" font-family="Helvetica,sans-Serif" font-size="10.00">helios::engine::runtime</text>
<text text-anchor="start" x="8" y="-18" font-family="Helvetica,sans-Serif" font-size="10.00">::world::types::ResourceType</text>
<text text-anchor="middle" x="78" y="-7" font-family="Helvetica,sans-Serif" font-size="10.00">Id::operator==</text>
</a>
</g>
</g>
<!-- Node2&#45;&gt;Node3 -->
<g id="edge3_Node000002_Node000003" class="edge">
<title>Node2&#45;&gt;Node3</title>
<g id="a_edge3_Node000002_Node000003"><a xlink:title=" ">
<path fill="none" stroke="#63b8ff" d="M181.94,-20.5C173.32,-20.5 164.62,-20.5 156.12,-20.5"/>
<polygon fill="#63b8ff" stroke="#63b8ff" points="181.99,-24 191.99,-20.5 181.99,-17 181.99,-24"/>
</a>
</g>
</g>
</g>
</svg>
