<?xml version="1.0" encoding="UTF-8" standalone="no"?>
<!DOCTYPE svg PUBLIC "-//W3C//DTD SVG 1.1//EN"
 "http://www.w3.org/Graphics/SVG/1.1/DTD/svg11.dtd">
<!-- Generated by graphviz version 2.43.0 (0)
 -->
<!-- Title: helios::engine::modules::physics::collision::components::CollisionComponent::isCollisionReporter Pages: 1 -->
<!--zoomable 550 -->

<svg id="main" version="1.1" xmlns="http://www.w3.org/2000/svg" xmlns:xlink="http://www.w3.org/1999/xlink" xml:space="preserve" onload="init(evt)">

<style type="text/css"><![CDATA[
.node, .edge {opacity: 0.7;}
.node.selected, .edge.selected {opacity: 1;}
.edge:hover path { stroke: red; }
.edge:hover polygon { stroke: red; fill: red; }
]]></style>

<defs>
  <circle id="rim" cx="0" cy="0" r="7"/>
  <circle id="rim2" cx="0" cy="0" r="3.5"/>
  <g id="zoomPlus">
    <use xlink:href="#rim" fill="#404040"><set attributeName="fill" to="#808080" begin="zoomplus.mouseover" end="zoomplus.mouseout"/></use>
    <path d="M-4,0h8M0,-4v8" fill="none" stroke="white" stroke-width="1.5" pointer-events="none"/>
  </g>
  <g id="zoomMin">
    <use xlink:href="#rim" fill="#404040"><set attributeName="fill" to="#808080" begin="zoomminus.mouseover" end="zoomminus.mouseout"/></use>
    <path d="M-4,0h8" fill="none" stroke="white" stroke-width="1.5" pointer-events="none"/>
  </g>
  <g id="arrowUp" transform="translate(30 24)">
    <use xlink:href="#rim"/>
    <path pointer-events="none" fill="none" stroke="white" stroke-width="1.5" d="M0,-3.0v7 M-2.5,-0.5L0,-3.0L2.5,-0.5"/>
  </g>
  <g id="arrowRight" transform="rotate(90) translate(36 -43)">
    <use xlink:href="#rim"/>
    <path pointer-events="none" fill="none" stroke="white" stroke-width="1.5" d="M0,-3.0v7 M-2.5,-0.5L0,-3.0L2.5,-0.5"/>
  </g>
  <g id="arrowDown" transform="rotate(180) translate(-30 -48)">
    <use xlink:href="#rim"/>
    <path pointer-events="none" fill="none" stroke="white" stroke-width="1.5" d="M0,-3.0v7 M-2.5,-0.5L0,-3.0L2.5,-0.5"/>
  </g>
  <g id="arrowLeft" transform="rotate(270) translate(-36 17)">
    <use xlink:href="#rim"/>
    <path pointer-events="none" fill="none" stroke="white" stroke-width="1.5" d="M0,-3.0v7 M-2.5,-0.5L0,-3.0L2.5,-0.5"/>
  </g>
  <g id="resetDef">
    <use xlink:href="#rim2" fill="#404040"><set attributeName="fill" to="#808080" begin="reset.mouseover" end="reset.mouseout"/></use>
  </g>
</defs>
<script type="application/ecmascript">
var viewWidth = 623;
var viewHeight = 550;
var sectionId = 'dynsection-7';
</script>
<script type="application/ecmascript" xlink:href="svg.min.js"/>
<svg id="graph" class="graph">
<g id="viewport">
<title>helios::engine::modules::physics::collision::components::CollisionComponent::isCollisionReporter</title>
<!-- Node1 -->
<g id="Node000001" class="node">
<title>Node1</title>
<g id="a_Node000001"><a xlink:title="Returns whether this component can emit collision events.">
<polygon fill="#999999" stroke="#666666" points="615,-253 434,-253 434,-201 615,-201 615,-253"/>
<text text-anchor="start" x="442" y="-241" font-family="Helvetica,sans-Serif" font-size="10.00">helios::engine::modules</text>
<text text-anchor="start" x="442" y="-230" font-family="Helvetica,sans-Serif" font-size="10.00">::physics::collision::</text>
<text text-anchor="start" x="442" y="-219" font-family="Helvetica,sans-Serif" font-size="10.00">components::CollisionComponent</text>
<text text-anchor="middle" x="524.5" y="-208" font-family="Helvetica,sans-Serif" font-size="10.00">::isCollisionReporter</text>
</a>
</g>
</g>
<!-- Node2 -->
<g id="Node000002" class="node">
<title>Node2</title>
<g id="a_Node000002"><a xlink:href="classhelios_1_1engine_1_1modules_1_1physics_1_1collision_1_1components_1_1CollisionComponent.html#ad29df29ac0306ef63b9b2eb0ff005ab3" target="_top" xlink:title="Constructs a CollisionComponent with a layer ID.">
<polygon fill="white" stroke="#666666" points="398,-297 217,-297 217,-245 398,-245 398,-297"/>
<text text-anchor="start" x="225" y="-285" font-family="Helvetica,sans-Serif" font-size="10.00">helios::engine::modules</text>
<text text-anchor="start" x="225" y="-274" font-family="Helvetica,sans-Serif" font-size="10.00">::physics::collision::</text>
<text text-anchor="start" x="225" y="-263" font-family="Helvetica,sans-Serif" font-size="10.00">components::CollisionComponent</text>
<text text-anchor="middle" x="307.5" y="-252" font-family="Helvetica,sans-Serif" font-size="10.00">::CollisionComponent</text>
</a>
</g>
</g>
<!-- Node1&#45;&gt;Node2 -->
<g id="edge1_Node000001_Node000002" class="edge">
<title>Node1&#45;&gt;Node2</title>
<g id="a_edge1_Node000001_Node000002"><a xlink:title=" ">
<path fill="none" stroke="#63b8ff" d="M423.9,-247.38C415.37,-249.13 406.77,-250.89 398.32,-252.62"/>
<polygon fill="#63b8ff" stroke="#63b8ff" points="424.78,-250.78 433.88,-245.34 423.38,-243.92 424.78,-250.78"/>
</a>
</g>
</g>
<!-- Node11 -->
<g id="Node000011" class="node">
<title>Node11</title>
<g id="a_Node000011"><a xlink:href="classhelios_1_1engine_1_1modules_1_1physics_1_1collision_1_1components_1_1CollisionComponent.html#a783ab4ca96694c4469673d580b78e843" target="_top" xlink:title="Sets whether this component should report collision events.">
<polygon fill="white" stroke="#666666" points="398,-209 217,-209 217,-157 398,-157 398,-209"/>
<text text-anchor="start" x="225" y="-197" font-family="Helvetica,sans-Serif" font-size="10.00">helios::engine::modules</text>
<text text-anchor="start" x="225" y="-186" font-family="Helvetica,sans-Serif" font-size="10.00">::physics::collision::</text>
<text text-anchor="start" x="225" y="-175" font-family="Helvetica,sans-Serif" font-size="10.00">components::CollisionComponent</text>
<text text-anchor="middle" x="307.5" y="-164" font-family="Helvetica,sans-Serif" font-size="10.00">::setIsCollisionReporter</text>
</a>
</g>
</g>
<!-- Node1&#45;&gt;Node11 -->
<g id="edge10_Node000001_Node000011" class="edge">
<title>Node1&#45;&gt;Node11</title>
<g id="a_edge10_Node000001_Node000011"><a xlink:title=" ">
<path fill="none" stroke="#63b8ff" d="M423.9,-206.62C415.37,-204.87 406.77,-203.11 398.32,-201.38"/>
<polygon fill="#63b8ff" stroke="#63b8ff" points="423.38,-210.08 433.88,-208.66 424.78,-203.22 423.38,-210.08"/>
</a>
</g>
</g>
<!-- Node3 -->
<g id="Node000003" class="node">
<title>Node3</title>
<g id="a_Node000003"><a xlink:href="classhelios_1_1engine_1_1modules_1_1physics_1_1collision_1_1components_1_1CollisionComponent.html#ad97782993f898ab1899989030a8f1885" target="_top" xlink:title="Adds a solid collision behavior for a specific layer.">
<polygon fill="white" stroke="#666666" points="181,-542 0,-542 0,-490 181,-490 181,-542"/>
<text text-anchor="start" x="8" y="-530" font-family="Helvetica,sans-Serif" font-size="10.00">helios::engine::modules</text>
<text text-anchor="start" x="8" y="-519" font-family="Helvetica,sans-Serif" font-size="10.00">::physics::collision::</text>
<text text-anchor="start" x="8" y="-508" font-family="Helvetica,sans-Serif" font-size="10.00">components::CollisionComponent</text>
<text text-anchor="middle" x="90.5" y="-497" font-family="Helvetica,sans-Serif" font-size="10.00">::addSolidCollisionBehavior</text>
</a>
</g>
</g>
<!-- Node2&#45;&gt;Node3 -->
<g id="edge2_Node000002_Node000003" class="edge">
<title>Node2&#45;&gt;Node3</title>
<g id="a_edge2_Node000002_Node000003"><a xlink:title=" ">
<path fill="none" stroke="#63b8ff" d="M293.7,-306.6C275.41,-352.77 237.63,-433.06 181,-481 177.18,-484.23 173.03,-487.19 168.67,-489.89"/>
<polygon fill="#63b8ff" stroke="#63b8ff" points="297.06,-307.6 297.41,-297.01 290.53,-305.07 297.06,-307.6"/>
</a>
</g>
</g>
<!-- Node4 -->
<g id="Node000004" class="node">
<title>Node4</title>
<g id="a_Node000004"><a xlink:href="classhelios_1_1engine_1_1modules_1_1physics_1_1collision_1_1components_1_1CollisionComponent.html#abd0cbb1d35fa211181dc7420421abcf7" target="_top" xlink:title="Adds a trigger collision behavior for a specific layer.">
<polygon fill="white" stroke="#666666" points="181,-472 0,-472 0,-420 181,-420 181,-472"/>
<text text-anchor="start" x="8" y="-460" font-family="Helvetica,sans-Serif" font-size="10.00">helios::engine::modules</text>
<text text-anchor="start" x="8" y="-449" font-family="Helvetica,sans-Serif" font-size="10.00">::physics::collision::</text>
<text text-anchor="start" x="8" y="-438" font-family="Helvetica,sans-Serif" font-size="10.00">components::CollisionComponent</text>
<text text-anchor="middle" x="90.5" y="-427" font-family="Helvetica,sans-Serif" font-size="10.00">::addTriggerCollisionBehavior</text>
</a>
</g>
</g>
<!-- Node2&#45;&gt;Node4 -->
<g id="edge3_Node000002_Node000004" class="edge">
<title>Node2&#45;&gt;Node4</title>
<g id="a_edge3_Node000002_Node000004"><a xlink:title=" ">
<path fill="none" stroke="#63b8ff" d="M282.9,-305.48C260,-336.7 222.68,-382.09 181,-411 176.34,-414.23 171.34,-417.22 166.17,-419.98"/>
<polygon fill="#63b8ff" stroke="#63b8ff" points="285.95,-307.23 288.96,-297.08 280.27,-303.14 285.95,-307.23"/>
</a>
</g>
</g>
<!-- Node5 -->
<g id="Node000005" class="node">
<title>Node5</title>
<g id="a_Node000005"><a xlink:href="classhelios_1_1engine_1_1modules_1_1physics_1_1collision_1_1components_1_1CollisionComponent.html#a2543c05720e359421e0bf589adcf673a" target="_top" xlink:title=" ">
<polygon fill="white" stroke="#666666" points="181,-402 0,-402 0,-350 181,-350 181,-402"/>
<text text-anchor="start" x="8" y="-390" font-family="Helvetica,sans-Serif" font-size="10.00">helios::engine::modules</text>
<text text-anchor="start" x="8" y="-379" font-family="Helvetica,sans-Serif" font-size="10.00">::physics::collision::</text>
<text text-anchor="start" x="8" y="-368" font-family="Helvetica,sans-Serif" font-size="10.00">components::CollisionComponent</text>
<text text-anchor="middle" x="90.5" y="-357" font-family="Helvetica,sans-Serif" font-size="10.00">::CollisionComponent</text>
</a>
</g>
</g>
<!-- Node2&#45;&gt;Node5 -->
<g id="edge4_Node000002_Node000005" class="edge">
<title>Node2&#45;&gt;Node5</title>
<g id="a_edge4_Node000002_Node000005"><a xlink:title=" ">
<path fill="none" stroke="#63b8ff" d="M254.2,-302.26C231.99,-314.99 205.59,-329.4 181,-341 174.51,-344.06 167.68,-347.08 160.8,-349.99"/>
<polygon fill="#63b8ff" stroke="#63b8ff" points="256.21,-305.14 263.13,-297.11 252.72,-299.08 256.21,-305.14"/>
</a>
</g>
</g>
<!-- Node6 -->
<g id="Node000006" class="node">
<title>Node6</title>
<g id="a_Node000006"><a xlink:href="classhelios_1_1engine_1_1modules_1_1physics_1_1collision_1_1components_1_1CollisionComponent.html#aaa099391612601e7e8a94534b6165a39" target="_top" xlink:title="Copy constructor.">
<polygon fill="white" stroke="#666666" points="181,-332 0,-332 0,-280 181,-280 181,-332"/>
<text text-anchor="start" x="8" y="-320" font-family="Helvetica,sans-Serif" font-size="10.00">helios::engine::modules</text>
<text text-anchor="start" x="8" y="-309" font-family="Helvetica,sans-Serif" font-size="10.00">::physics::collision::</text>
<text text-anchor="start" x="8" y="-298" font-family="Helvetica,sans-Serif" font-size="10.00">components::CollisionComponent</text>
<text text-anchor="middle" x="90.5" y="-287" font-family="Helvetica,sans-Serif" font-size="10.00">::CollisionComponent</text>
</a>
</g>
</g>
<!-- Node2&#45;&gt;Node6 -->
<g id="edge5_Node000002_Node000006" class="edge">
<title>Node2&#45;&gt;Node6</title>
<g id="a_edge5_Node000002_Node000006"><a xlink:title=" ">
<path fill="none" stroke="#63b8ff" d="M206.9,-287.21C198.37,-288.6 189.77,-290 181.32,-291.38"/>
<polygon fill="#63b8ff" stroke="#63b8ff" points="207.57,-290.65 216.88,-285.59 206.45,-283.74 207.57,-290.65"/>
</a>
</g>
</g>
<!-- Node7 -->
<g id="Node000007" class="node">
<title>Node7</title>
<g id="a_Node000007"><a xlink:href="classhelios_1_1engine_1_1modules_1_1physics_1_1collision_1_1components_1_1CollisionComponent.html#aceab2352f328523c0ddcc97a5af0ae39" target="_top" xlink:title=" ">
<polygon fill="white" stroke="#666666" points="181,-262 0,-262 0,-210 181,-210 181,-262"/>
<text text-anchor="start" x="8" y="-250" font-family="Helvetica,sans-Serif" font-size="10.00">helios::engine::modules</text>
<text text-anchor="start" x="8" y="-239" font-family="Helvetica,sans-Serif" font-size="10.00">::physics::collision::</text>
<text text-anchor="start" x="8" y="-228" font-family="Helvetica,sans-Serif" font-size="10.00">components::CollisionComponent</text>
<text text-anchor="middle" x="90.5" y="-217" font-family="Helvetica,sans-Serif" font-size="10.00">::operator=</text>
</a>
</g>
</g>
<!-- Node2&#45;&gt;Node7 -->
<g id="edge6_Node000002_Node000007" class="edge">
<title>Node2&#45;&gt;Node7</title>
<g id="a_edge6_Node000002_Node000007"><a xlink:title=" ">
<path fill="none" stroke="#63b8ff" d="M206.9,-254.79C198.37,-253.4 189.77,-252 181.32,-250.62"/>
<polygon fill="#63b8ff" stroke="#63b8ff" points="206.45,-258.26 216.88,-256.41 207.57,-251.35 206.45,-258.26"/>
</a>
</g>
</g>
<!-- Node8 -->
<g id="Node000008" class="node">
<title>Node8</title>
<g id="a_Node000008"><a xlink:href="classhelios_1_1engine_1_1modules_1_1physics_1_1collision_1_1components_1_1CollisionComponent.html#af47a581908e54d26f06fc95e0ad4bcbb" target="_top" xlink:title=" ">
<polygon fill="white" stroke="#666666" points="181,-192 0,-192 0,-140 181,-140 181,-192"/>
<text text-anchor="start" x="8" y="-180" font-family="Helvetica,sans-Serif" font-size="10.00">helios::engine::modules</text>
<text text-anchor="start" x="8" y="-169" font-family="Helvetica,sans-Serif" font-size="10.00">::physics::collision::</text>
<text text-anchor="start" x="8" y="-158" font-family="Helvetica,sans-Serif" font-size="10.00">components::CollisionComponent</text>
<text text-anchor="middle" x="90.5" y="-147" font-family="Helvetica,sans-Serif" font-size="10.00">::operator=</text>
</a>
</g>
</g>
<!-- Node2&#45;&gt;Node8 -->
<g id="edge7_Node000002_Node000008" class="edge">
<title>Node2&#45;&gt;Node8</title>
<g id="a_edge7_Node000002_Node000008"><a xlink:title=" ">
<path fill="none" stroke="#63b8ff" d="M223.62,-240.03C221.36,-238.73 219.15,-237.38 217,-236 198.24,-223.92 199.76,-213.08 181,-201 176.09,-197.84 170.85,-194.89 165.46,-192.15"/>
<polygon fill="#63b8ff" stroke="#63b8ff" points="222.08,-243.17 232.54,-244.85 225.41,-237.02 222.08,-243.17"/>
</a>
</g>
</g>
<!-- Node9 -->
<g id="Node000009" class="node">
<title>Node9</title>
<g id="a_Node000009"><a xlink:href="classhelios_1_1engine_1_1modules_1_1physics_1_1collision_1_1components_1_1CollisionComponent.html#ac0c93feba62b68c29ea1eefe3ada60f8" target="_top" xlink:title="Sets the solid collision mask.">
<polygon fill="white" stroke="#666666" points="181,-122 0,-122 0,-70 181,-70 181,-122"/>
<text text-anchor="start" x="8" y="-110" font-family="Helvetica,sans-Serif" font-size="10.00">helios::engine::modules</text>
<text text-anchor="start" x="8" y="-99" font-family="Helvetica,sans-Serif" font-size="10.00">::physics::collision::</text>
<text text-anchor="start" x="8" y="-88" font-family="Helvetica,sans-Serif" font-size="10.00">components::CollisionComponent</text>
<text text-anchor="middle" x="90.5" y="-77" font-family="Helvetica,sans-Serif" font-size="10.00">::setSolidCollisionMask</text>
</a>
</g>
</g>
<!-- Node2&#45;&gt;Node9 -->
<g id="edge8_Node000002_Node000009" class="edge">
<title>Node2&#45;&gt;Node9</title>
<g id="a_edge8_Node000002_Node000009"><a xlink:title=" ">
<path fill="none" stroke="#63b8ff" d="M219.4,-238.38C218.58,-237.61 217.78,-236.81 217,-236 182.86,-200.38 215.14,-166.62 181,-131 177.88,-127.75 174.43,-124.79 170.74,-122.11"/>
<polygon fill="#63b8ff" stroke="#63b8ff" points="217.32,-241.21 227.26,-244.89 221.79,-235.82 217.32,-241.21"/>
</a>
</g>
</g>
<!-- Node10 -->
<g id="Node000010" class="node">
<title>Node10</title>
<g id="a_Node000010"><a xlink:href="classhelios_1_1engine_1_1modules_1_1physics_1_1collision_1_1components_1_1CollisionComponent.html#a0b57711a70ed3dc1a6c00b49e7394cd9" target="_top" xlink:title="Sets the trigger collision mask.">
<polygon fill="white" stroke="#666666" points="181,-52 0,-52 0,0 181,0 181,-52"/>
<text text-anchor="start" x="8" y="-40" font-family="Helvetica,sans-Serif" font-size="10.00">helios::engine::modules</text>
<text text-anchor="start" x="8" y="-29" font-family="Helvetica,sans-Serif" font-size="10.00">::physics::collision::</text>
<text text-anchor="start" x="8" y="-18" font-family="Helvetica,sans-Serif" font-size="10.00">components::CollisionComponent</text>
<text text-anchor="middle" x="90.5" y="-7" font-family="Helvetica,sans-Serif" font-size="10.00">::setTriggerCollisionMask</text>
</a>
</g>
</g>
<!-- Node2&#45;&gt;Node10 -->
<g id="edge9_Node000002_Node000010" class="edge">
<title>Node2&#45;&gt;Node10</title>
<g id="a_edge9_Node000002_Node000010"><a xlink:title=" ">
<path fill="none" stroke="#63b8ff" d="M218.55,-237.76C218.02,-237.19 217.5,-236.6 217,-236 165.82,-175.29 232.18,-121.71 181,-61 178.31,-57.81 175.29,-54.91 172.04,-52.27"/>
<polygon fill="#63b8ff" stroke="#63b8ff" points="216.28,-240.43 225.96,-244.73 221.07,-235.33 216.28,-240.43"/>
</a>
</g>
</g>
<!-- Node11&#45;&gt;Node11 -->
<g id="edge11_Node000011_Node000011" class="edge">
<title>Node11&#45;&gt;Node11</title>
<g id="a_edge11_Node000011_Node000011"><a xlink:title=" ">
<path fill="none" stroke="#63b8ff" d="M343.61,-218.76C337.64,-223.7 325.61,-227 307.5,-227 279.23,-227 265.76,-218.96 267.09,-209.2"/>
<polygon fill="#63b8ff" stroke="#63b8ff" points="347,-219.75 347.91,-209.2 340.62,-216.88 347,-219.75"/>
</a>
</g>
</g>
</g>
</svg>

<g id="navigator" transform="translate(0 0)" fill="#404254">
  <rect fill="#f2f5e9" fill-opacity="0.5" stroke="#606060" stroke-width=".5" x="0" y="0" width="60" height="60"/>
  <use id="zoomplus" xlink:href="#zoomPlus" x="17" y="9" onmousedown="handleZoom(evt,'in')"/>
  <use id="zoomminus" xlink:href="#zoomMin" x="42" y="9" onmousedown="handleZoom(evt,'out')"/>
  <use id="reset" xlink:href="#resetDef" x="30" y="36" onmousedown="handleReset()"/>
   <use id="arrowup" xlink:href="#arrowUp" x="0" y="0" onmousedown="handlePan(0,-1)"/>
  <use id="arrowright" xlink:href="#arrowRight" x="0" y="0" onmousedown="handlePan(1,0)"/>
  <use id="arrowdown" xlink:href="#arrowDown" x="0" y="0" onmousedown="handlePan(0,1)"/>
  <use id="arrowleft" xlink:href="#arrowLeft" x="0" y="0" onmousedown="handlePan(-1,0)"/>
</g>
<svg viewBox="0 0 15 15" width="100%" height="30px" preserveAspectRatio="xMaxYMin meet">
 <g id="arrow_out" transform="scale(0.3 0.3)">
  <a xlink:href="classhelios_1_1engine_1_1modules_1_1physics_1_1collision_1_1components_1_1CollisionComponent_af848b7ce354c1cf64fec9113f9d9fcfa_icgraph_org.svg" target="_base">
   <rect id="button" ry="5" rx="5" y="6" x="6" height="38" width="38"
        fill="#f2f5e9" fill-opacity="0.5" stroke="#606060" stroke-width="1.0"/>
   <path id="arrow"
     d="M 11.500037,31.436501 C 11.940474,20.09759 22.043105,11.32322 32.158766,21.979434 L 37.068811,17.246167 C 37.068811,17.246167 37.088388,32 37.088388,32 L 22.160133,31.978069 C 22.160133,31.978069 26.997745,27.140456 26.997745,27.140456 C 18.528582,18.264221 13.291696,25.230495 11.500037,31.436501 z"
     style="fill:#404040;"/>
  </a>
 </g>
</svg>

<style type='text/css'>
<![CDATA[
[data-mouse-over-selected='false'] { opacity: 0.7; }
[data-mouse-over-selected='true']  { opacity: 1.0; }
]]>
</style>
<script type="application/ecmascript"><![CDATA[
document.addEventListener('DOMContentLoaded', (event) => {
  highlightEdges();
  highlightAdjacentNodes();
});
]]></script>
</svg>
