<?xml version="1.0" encoding="UTF-8" standalone="no"?>
<!DOCTYPE svg PUBLIC "-//W3C//DTD SVG 1.1//EN"
 "http://www.w3.org/Graphics/SVG/1.1/DTD/svg11.dtd">
<!-- Generated by graphviz version 2.43.0 (0)
 -->
<!-- Title: helios::engine::modules::scene::components::SceneNodeComponent Pages: 1 -->
<svg width="1049pt" height="156pt"
 viewBox="0.00 0.00 1049.00 156.00" xmlns="http://www.w3.org/2000/svg" xmlns:xlink="http://www.w3.org/1999/xlink">
<g id="graph0" class="graph" transform="scale(1 1) rotate(0) translate(4 152)">
<title>helios::engine::modules::scene::components::SceneNodeComponent</title>
<!-- Node1 -->
<g id="Node000001" class="node">
<title>Node1</title>
<g id="a_Node000001"><a xlink:title="Component that links a GameObject to a SceneNode in the scene graph.">
<polygon fill="#999999" stroke="#666666" points="1041,-76.5 863,-76.5 863,-35.5 1041,-35.5 1041,-76.5"/>
<text text-anchor="start" x="871" y="-64.5" font-family="Helvetica,sans-Serif" font-size="10.00">helios::engine::modules</text>
<text text-anchor="start" x="871" y="-53.5" font-family="Helvetica,sans-Serif" font-size="10.00">::scene::components::SceneNode</text>
<text text-anchor="middle" x="952" y="-42.5" font-family="Helvetica,sans-Serif" font-size="10.00">Component</text>
</a>
</g>
</g>
<!-- Node2 -->
<g id="Node000002" class="node">
<title>Node2</title>
<g id="a_Node000002"><a xlink:href="classhelios_1_1engine_1_1ecs_1_1CloneableComponent.html" target="_top" xlink:title=" ">
<polygon fill="white" stroke="#666666" points="761,-118.5 611,-118.5 611,-77.5 761,-77.5 761,-118.5"/>
<text text-anchor="start" x="619" y="-106.5" font-family="Helvetica,sans-Serif" font-size="10.00">helios::engine::ecs</text>
<text text-anchor="start" x="619" y="-95.5" font-family="Helvetica,sans-Serif" font-size="10.00">::CloneableComponent</text>
<text text-anchor="middle" x="686" y="-84.5" font-family="Helvetica,sans-Serif" font-size="10.00">&lt; SceneNodeComponent &gt;</text>
</a>
</g>
</g>
<!-- Node2&#45;&gt;Node1 -->
<g id="edge1_Node000001_Node000002" class="edge">
<title>Node2&#45;&gt;Node1</title>
<g id="a_edge1_Node000001_Node000002"><a xlink:title=" ">
<path fill="none" stroke="#63b8ff" d="M771.4,-84.57C800.58,-79.93 833.35,-74.72 862.82,-70.03"/>
<polygon fill="#63b8ff" stroke="#63b8ff" points="770.57,-81.16 761.24,-86.19 771.67,-88.07 770.57,-81.16"/>
</a>
</g>
</g>
<!-- Node3 -->
<g id="Node000003" class="node">
<title>Node3</title>
<g id="a_Node000003"><a xlink:href="classhelios_1_1engine_1_1ecs_1_1Component.html" target="_top" xlink:title="Abstract base class for components attached to GameObjects.">
<polygon fill="white" stroke="#666666" points="488.5,-146 381.5,-146 381.5,-116 488.5,-116 488.5,-146"/>
<text text-anchor="start" x="389.5" y="-134" font-family="Helvetica,sans-Serif" font-size="10.00">helios::engine::ecs</text>
<text text-anchor="middle" x="435" y="-123" font-family="Helvetica,sans-Serif" font-size="10.00">::Component</text>
</a>
</g>
</g>
<!-- Node3&#45;&gt;Node2 -->
<g id="edge2_Node000002_Node000003" class="edge">
<title>Node3&#45;&gt;Node2</title>
<g id="a_edge2_Node000002_Node000003"><a xlink:title=" ">
<path fill="none" stroke="#63b8ff" d="M498.79,-122.68C532.86,-118.16 575.17,-112.56 610.85,-107.83"/>
<polygon fill="#63b8ff" stroke="#63b8ff" points="497.96,-119.26 488.5,-124.04 498.88,-126.2 497.96,-119.26"/>
</a>
</g>
</g>
<!-- Node4 -->
<g id="Node000004" class="node">
<title>Node4</title>
<g id="a_Node000004"><a xlink:href="classhelios_1_1engine_1_1ecs_1_1GameObject.html" target="_top" xlink:title="Base class for interactive game entities with component&#45;based composition.">
<polygon fill="white" stroke="#666666" points="272,-146 165,-146 165,-116 272,-116 272,-146"/>
<text text-anchor="start" x="173" y="-134" font-family="Helvetica,sans-Serif" font-size="10.00">helios::engine::ecs</text>
<text text-anchor="middle" x="218.5" y="-123" font-family="Helvetica,sans-Serif" font-size="10.00">::GameObject</text>
</a>
</g>
</g>
<!-- Node4&#45;&gt;Node3 -->
<g id="edge3_Node000003_Node000004" class="edge">
<title>Node4&#45;&gt;Node3</title>
<g id="a_edge3_Node000003_Node000004"><a xlink:title=" ">
<path fill="none" stroke="#9a32cd" stroke-dasharray="5,2" d="M282.65,-131C314.08,-131 351.62,-131 381.46,-131"/>
<polygon fill="#9a32cd" stroke="#9a32cd" points="282.25,-127.5 272.25,-131 282.25,-134.5 282.25,-127.5"/>
</a>
</g>
<text text-anchor="start" x="293.5" y="-136.5" font-family="Helvetica,sans-Serif" font-size="10.00" fill="grey">gameObject_</text>
</g>
<!-- Node5 -->
<g id="Node000005" class="node">
<title>Node5</title>
<g id="a_Node000005"><a xlink:href="classhelios_1_1util_1_1Guid.html" target="_top" xlink:title="Representative of a Globally Unique Identifier.">
<polygon fill="white" stroke="#666666" points="96,-140.5 0,-140.5 0,-121.5 96,-121.5 96,-140.5"/>
<text text-anchor="middle" x="48" y="-128.5" font-family="Helvetica,sans-Serif" font-size="10.00">helios::util::Guid</text>
</a>
</g>
</g>
<!-- Node5&#45;&gt;Node4 -->
<g id="edge4_Node000004_Node000005" class="edge">
<title>Node5&#45;&gt;Node4</title>
<g id="a_edge4_Node000004_Node000005"><a xlink:title=" ">
<path fill="none" stroke="#9a32cd" stroke-dasharray="5,2" d="M106.64,-131C125.51,-131 146.37,-131 164.85,-131"/>
<polygon fill="#9a32cd" stroke="#9a32cd" points="106.39,-127.5 96.39,-131 106.39,-134.5 106.39,-127.5"/>
</a>
</g>
<text text-anchor="start" x="117.5" y="-136.5" font-family="Helvetica,sans-Serif" font-size="10.00" fill="grey">guid_</text>
</g>
<!-- Node6 -->
<g id="Node000006" class="node">
<title>Node6</title>
<g id="a_Node000006"><a xlink:href="classhelios_1_1engine_1_1ecs_1_1Cloneable.html" target="_top" xlink:title="Interface for components that support cloning.">
<polygon fill="white" stroke="#666666" points="488.5,-98 381.5,-98 381.5,-68 488.5,-68 488.5,-98"/>
<text text-anchor="start" x="389.5" y="-86" font-family="Helvetica,sans-Serif" font-size="10.00">helios::engine::ecs</text>
<text text-anchor="middle" x="435" y="-75" font-family="Helvetica,sans-Serif" font-size="10.00">::Cloneable</text>
</a>
</g>
</g>
<!-- Node6&#45;&gt;Node2 -->
<g id="edge5_Node000002_Node000006" class="edge">
<title>Node6&#45;&gt;Node2</title>
<g id="a_edge5_Node000002_Node000006"><a xlink:title=" ">
<path fill="none" stroke="#63b8ff" d="M498.79,-86.78C532.86,-88.83 575.17,-91.38 610.85,-93.53"/>
<polygon fill="#63b8ff" stroke="#63b8ff" points="498.69,-83.27 488.5,-86.16 498.27,-90.26 498.69,-83.27"/>
</a>
</g>
</g>
<!-- Node7 -->
<g id="Node000007" class="node">
<title>Node7</title>
<g id="a_Node000007"><a xlink:href="classhelios_1_1scene_1_1SceneNode.html" target="_top" xlink:title="Represents a SceneNode within a SceneGraph.">
<polygon fill="white" stroke="#666666" points="756.5,-24.5 615.5,-24.5 615.5,-5.5 756.5,-5.5 756.5,-24.5"/>
<text text-anchor="middle" x="686" y="-12.5" font-family="Helvetica,sans-Serif" font-size="10.00">helios::scene::SceneNode</text>
</a>
</g>
</g>
<!-- Node7&#45;&gt;Node1 -->
<g id="edge6_Node000001_Node000007" class="edge">
<title>Node7&#45;&gt;Node1</title>
<g id="a_edge6_Node000001_Node000007"><a xlink:title=" ">
<path fill="none" stroke="#9a32cd" stroke-dasharray="5,2" d="M758.45,-26.1C790.61,-31.09 828.91,-37.04 862.84,-42.31"/>
<polygon fill="#9a32cd" stroke="#9a32cd" points="758.65,-22.59 748.23,-24.51 757.57,-29.5 758.65,-22.59"/>
</a>
</g>
<text text-anchor="start" x="782" y="-45.5" font-family="Helvetica,sans-Serif" font-size="10.00" fill="grey">sceneNode_</text>
</g>
<!-- Node7&#45;&gt;Node7 -->
<g id="edge7_Node000007_Node000007" class="edge">
<title>Node7&#45;&gt;Node7</title>
<g id="a_edge7_Node000007_Node000007"><a xlink:title=" ">
<path fill="none" stroke="#9a32cd" stroke-dasharray="5,2" d="M662.67,-34.05C664.23,-38.88 672,-42.5 686,-42.5 708.39,-42.5 714.87,-33.23 705.42,-24.58"/>
<polygon fill="#9a32cd" stroke="#9a32cd" points="666,-35.16 666.58,-24.58 659.53,-32.49 666,-35.16"/>
</a>
</g>
<text text-anchor="start" x="668" y="-48" font-family="Helvetica,sans-Serif" font-size="10.00" fill="grey">parent_</text>
</g>
<!-- Node8 -->
<g id="Node000008" class="node">
<title>Node8</title>
<g id="a_Node000008"><a xlink:href="classhelios_1_1core_1_1spatial_1_1Transform.html" target="_top" xlink:title="Represents a 3D transformation consisting of translation, rotation and scale.">
<polygon fill="white" stroke="#666666" points="491,-30 379,-30 379,0 491,0 491,-30"/>
<text text-anchor="start" x="387" y="-18" font-family="Helvetica,sans-Serif" font-size="10.00">helios::core::spatial</text>
<text text-anchor="middle" x="435" y="-7" font-family="Helvetica,sans-Serif" font-size="10.00">::Transform</text>
</a>
</g>
</g>
<!-- Node8&#45;&gt;Node7 -->
<g id="edge8_Node000007_Node000008" class="edge">
<title>Node8&#45;&gt;Node7</title>
<g id="a_edge8_Node000007_Node000008"><a xlink:title=" ">
<path fill="none" stroke="#9a32cd" stroke-dasharray="5,2" d="M501.38,-15C536.38,-15 579.52,-15 615.18,-15"/>
<polygon fill="#9a32cd" stroke="#9a32cd" points="501.26,-11.5 491.26,-15 501.26,-18.5 501.26,-11.5"/>
</a>
</g>
<text text-anchor="start" x="512" y="-20.5" font-family="Helvetica,sans-Serif" font-size="10.00" fill="grey">localTransform_</text>
</g>
</g>
</svg>
