<?xml version="1.0" encoding="UTF-8" standalone="no"?>
<!DOCTYPE svg PUBLIC "-//W3C//DTD SVG 1.1//EN"
 "http://www.w3.org/Graphics/SVG/1.1/DTD/svg11.dtd">
<!-- Generated by graphviz version 2.43.0 (0)
 -->
<!-- Title: helios::engine::ecs::EntityManager::clone Pages: 1 -->
<svg width="885pt" height="208pt"
 viewBox="0.00 0.00 885.00 207.50" xmlns="http://www.w3.org/2000/svg" xmlns:xlink="http://www.w3.org/1999/xlink">
<g id="graph0" class="graph" transform="scale(1 1) rotate(0) translate(4 203.5)">
<title>helios::engine::ecs::EntityManager::clone</title>
<!-- Node1 -->
<g id="Node000001" class="node">
<title>Node1</title>
<g id="a_Node000001"><a xlink:title="Clones all components from source entity to target entity.">
<polygon fill="#999999" stroke="#666666" points="126,-113.5 0,-113.5 0,-83.5 126,-83.5 126,-113.5"/>
<text text-anchor="start" x="8" y="-101.5" font-family="Helvetica,sans-Serif" font-size="10.00">helios::engine::ecs</text>
<text text-anchor="middle" x="63" y="-90.5" font-family="Helvetica,sans-Serif" font-size="10.00">::EntityManager::clone</text>
</a>
</g>
</g>
<!-- Node2 -->
<g id="Node000002" class="node">
<title>Node2</title>
<g id="a_Node000002"><a xlink:href="classhelios_1_1engine_1_1ecs_1_1EntityManager.html#a507caffb8716c5e9fee9c56018c22860" target="_top" xlink:title="Returns a generator over all component type IDs attached to an entity.">
<polygon fill="white" stroke="#666666" points="514,-41 359,-41 359,0 514,0 514,-41"/>
<text text-anchor="start" x="367" y="-29" font-family="Helvetica,sans-Serif" font-size="10.00">helios::engine::ecs</text>
<text text-anchor="start" x="367" y="-18" font-family="Helvetica,sans-Serif" font-size="10.00">::EntityManager::component</text>
<text text-anchor="middle" x="436.5" y="-7" font-family="Helvetica,sans-Serif" font-size="10.00">TypeIds</text>
</a>
</g>
</g>
<!-- Node1&#45;&gt;Node2 -->
<g id="edge1_Node000001_Node000002" class="edge">
<title>Node1&#45;&gt;Node2</title>
<g id="a_edge1_Node000001_Node000002"><a xlink:title=" ">
<path fill="none" stroke="#63b8ff" d="M126.18,-85.44C187.21,-72.63 280.81,-52.98 349.07,-38.65"/>
<polygon fill="#63b8ff" stroke="#63b8ff" points="349.88,-42.05 358.95,-36.57 348.44,-35.2 349.88,-42.05"/>
</a>
</g>
</g>
<!-- Node4 -->
<g id="Node000004" class="node">
<title>Node4</title>
<g id="a_Node000004"><a xlink:href="classhelios_1_1engine_1_1ecs_1_1EntityManager.html#ab500472e8088cfef0c39c8e4df787a6e" target="_top" xlink:title="Checks whether an entity has a specific component.">
<polygon fill="white" stroke="#666666" points="495,-127.5 378,-127.5 378,-97.5 495,-97.5 495,-127.5"/>
<text text-anchor="start" x="386" y="-115.5" font-family="Helvetica,sans-Serif" font-size="10.00">helios::engine::ecs</text>
<text text-anchor="middle" x="436.5" y="-104.5" font-family="Helvetica,sans-Serif" font-size="10.00">::EntityManager::has</text>
</a>
</g>
</g>
<!-- Node1&#45;&gt;Node4 -->
<g id="edge3_Node000001_Node000004" class="edge">
<title>Node1&#45;&gt;Node4</title>
<g id="a_edge3_Node000001_Node000004"><a xlink:title=" ">
<path fill="none" stroke="#63b8ff" d="M126.21,-97.04C138.09,-96.81 150.43,-96.62 162,-96.5 233.55,-95.77 251.62,-91.45 323,-96.5 337.55,-97.53 353.08,-99.3 367.81,-101.3"/>
<polygon fill="#63b8ff" stroke="#63b8ff" points="367.47,-104.78 377.86,-102.71 368.44,-97.85 367.47,-104.78"/>
</a>
</g>
</g>
<!-- Node9 -->
<g id="Node000009" class="node">
<title>Node9</title>
<g id="a_Node000009"><a xlink:href="classhelios_1_1engine_1_1ecs_1_1ComponentOpsRegistry.html#a4f41db7b6ae7e83ba8092343d8620e59" target="_top" xlink:title="Retrieves ComponentOps for a component type.">
<polygon fill="white" stroke="#666666" points="323,-199.5 162,-199.5 162,-169.5 323,-169.5 323,-199.5"/>
<text text-anchor="start" x="170" y="-187.5" font-family="Helvetica,sans-Serif" font-size="10.00">helios::engine::ecs</text>
<text text-anchor="middle" x="242.5" y="-176.5" font-family="Helvetica,sans-Serif" font-size="10.00">::ComponentOpsRegistry::ops</text>
</a>
</g>
</g>
<!-- Node1&#45;&gt;Node9 -->
<g id="edge11_Node000001_Node000009" class="edge">
<title>Node1&#45;&gt;Node9</title>
<g id="a_edge11_Node000001_Node000009"><a xlink:title=" ">
<path fill="none" stroke="#63b8ff" d="M95.32,-113.68C124.85,-127.98 169.25,-149.49 201.36,-165.05"/>
<polygon fill="#63b8ff" stroke="#63b8ff" points="199.96,-168.26 210.49,-169.47 203.02,-161.96 199.96,-168.26"/>
</a>
</g>
</g>
<!-- Node10 -->
<g id="Node000010" class="node">
<title>Node10</title>
<g id="a_Node000010"><a xlink:href="classhelios_1_1engine_1_1ecs_1_1EntityManager.html#a1852346799d7912d40fd61e32dfb9654" target="_top" xlink:title="Returns raw void pointer to a component.">
<polygon fill="white" stroke="#666666" points="301.5,-135.5 183.5,-135.5 183.5,-105.5 301.5,-105.5 301.5,-135.5"/>
<text text-anchor="start" x="191.5" y="-123.5" font-family="Helvetica,sans-Serif" font-size="10.00">helios::engine::ecs</text>
<text text-anchor="middle" x="242.5" y="-112.5" font-family="Helvetica,sans-Serif" font-size="10.00">::EntityManager::raw</text>
</a>
</g>
</g>
<!-- Node1&#45;&gt;Node10 -->
<g id="edge13_Node000001_Node000010" class="edge">
<title>Node1&#45;&gt;Node10</title>
<g id="a_edge13_Node000001_Node000010"><a xlink:title=" ">
<path fill="none" stroke="#63b8ff" d="M126.08,-106.19C141.33,-108.09 157.75,-110.12 173.27,-112.04"/>
<polygon fill="#63b8ff" stroke="#63b8ff" points="172.97,-115.53 183.33,-113.29 173.83,-108.59 172.97,-115.53"/>
</a>
</g>
</g>
<!-- Node3 -->
<g id="Node000003" class="node">
<title>Node3</title>
<g id="a_Node000003"><a xlink:href="classhelios_1_1engine_1_1ecs_1_1EntityManager.html#a01ae81037793ce4bebb83a256220c38e" target="_top" xlink:title="Reconstructs an EntityHandle from an EntityId.">
<polygon fill="white" stroke="#666666" points="693,-79.5 560,-79.5 560,-49.5 693,-49.5 693,-79.5"/>
<text text-anchor="start" x="568" y="-67.5" font-family="Helvetica,sans-Serif" font-size="10.00">helios::engine::ecs</text>
<text text-anchor="middle" x="626.5" y="-56.5" font-family="Helvetica,sans-Serif" font-size="10.00">::EntityManager::handle</text>
</a>
</g>
</g>
<!-- Node2&#45;&gt;Node3 -->
<g id="edge2_Node000002_Node000003" class="edge">
<title>Node2&#45;&gt;Node3</title>
<g id="a_edge2_Node000002_Node000003"><a xlink:title=" ">
<path fill="none" stroke="#63b8ff" d="M514.24,-38.46C526.45,-41.32 539.07,-44.27 551.23,-47.12"/>
<polygon fill="#63b8ff" stroke="#63b8ff" points="550.78,-50.61 561.31,-49.48 552.37,-43.79 550.78,-50.61"/>
</a>
</g>
</g>
<!-- Node4&#45;&gt;Node3 -->
<g id="edge4_Node000004_Node000003" class="edge">
<title>Node4&#45;&gt;Node3</title>
<g id="a_edge4_Node000004_Node000003"><a xlink:title=" ">
<path fill="none" stroke="#63b8ff" d="M495.18,-97.77C514.66,-92.8 536.6,-87.2 556.84,-82.03"/>
<polygon fill="#63b8ff" stroke="#63b8ff" points="557.8,-85.4 566.63,-79.53 556.07,-78.61 557.8,-85.4"/>
</a>
</g>
</g>
<!-- Node5 -->
<g id="Node000005" class="node">
<title>Node5</title>
<g id="a_Node000005"><a xlink:href="classhelios_1_1engine_1_1core_1_1data_1_1ComponentTypeId.html#ae2b1610edbd9844c96d65f5572fa6db9" target="_top" xlink:title="Gets the ComponentTypeId for a specific component type.">
<polygon fill="white" stroke="#666666" points="703,-127.5 550,-127.5 550,-97.5 703,-97.5 703,-127.5"/>
<text text-anchor="start" x="558" y="-115.5" font-family="Helvetica,sans-Serif" font-size="10.00">helios::engine::core</text>
<text text-anchor="middle" x="626.5" y="-104.5" font-family="Helvetica,sans-Serif" font-size="10.00">::data::ComponentTypeId::id</text>
</a>
</g>
</g>
<!-- Node4&#45;&gt;Node5 -->
<g id="edge5_Node000004_Node000005" class="edge">
<title>Node4&#45;&gt;Node5</title>
<g id="a_edge5_Node000004_Node000005"><a xlink:title=" ">
<path fill="none" stroke="#63b8ff" d="M495.18,-112.5C509.22,-112.5 524.52,-112.5 539.55,-112.5"/>
<polygon fill="#63b8ff" stroke="#63b8ff" points="539.9,-116 549.9,-112.5 539.9,-109 539.9,-116"/>
</a>
</g>
</g>
<!-- Node8 -->
<g id="Node000008" class="node">
<title>Node8</title>
<g id="a_Node000008"><a xlink:href="classhelios_1_1engine_1_1core_1_1data_1_1ComponentTypeId.html#a324f7ed295515954f0147169dfdff208" target="_top" xlink:title="Returns the underlying ID value.">
<polygon fill="white" stroke="#666666" points="695.5,-187 557.5,-187 557.5,-146 695.5,-146 695.5,-187"/>
<text text-anchor="start" x="565.5" y="-175" font-family="Helvetica,sans-Serif" font-size="10.00">helios::engine::core</text>
<text text-anchor="start" x="565.5" y="-164" font-family="Helvetica,sans-Serif" font-size="10.00">::data::ComponentTypeId</text>
<text text-anchor="middle" x="626.5" y="-153" font-family="Helvetica,sans-Serif" font-size="10.00">::value</text>
</a>
</g>
</g>
<!-- Node4&#45;&gt;Node8 -->
<g id="edge10_Node000004_Node000008" class="edge">
<title>Node4&#45;&gt;Node8</title>
<g id="a_edge10_Node000004_Node000008"><a xlink:title=" ">
<path fill="none" stroke="#63b8ff" d="M489.87,-127.54C507.71,-132.67 528.07,-138.51 547.48,-144.09"/>
<polygon fill="#63b8ff" stroke="#63b8ff" points="546.65,-147.49 557.23,-146.89 548.58,-140.77 546.65,-147.49"/>
</a>
</g>
</g>
<!-- Node6 -->
<g id="Node000006" class="node">
<title>Node6</title>
<g id="a_Node000006"><a xlink:href="classhelios_1_1engine_1_1core_1_1data_1_1ComponentTypeId.html#a7923e00f921bcc8b48133bcc5f77678f" target="_top" xlink:title="Constructs a ComponentTypeId with a specific ID value.">
<polygon fill="white" stroke="#666666" points="877,-133 739,-133 739,-92 877,-92 877,-133"/>
<text text-anchor="start" x="747" y="-121" font-family="Helvetica,sans-Serif" font-size="10.00">helios::engine::core</text>
<text text-anchor="start" x="747" y="-110" font-family="Helvetica,sans-Serif" font-size="10.00">::data::ComponentTypeId</text>
<text text-anchor="middle" x="808" y="-99" font-family="Helvetica,sans-Serif" font-size="10.00">::ComponentTypeId</text>
</a>
</g>
</g>
<!-- Node5&#45;&gt;Node6 -->
<g id="edge6_Node000005_Node000006" class="edge">
<title>Node5&#45;&gt;Node6</title>
<g id="a_edge6_Node000005_Node000006"><a xlink:title=" ">
<path fill="none" stroke="#63b8ff" d="M703.1,-105.83C711.55,-105.73 720.17,-105.73 728.65,-105.8"/>
<polygon fill="#63b8ff" stroke="#63b8ff" points="728.86,-109.3 738.9,-105.93 728.95,-102.3 728.86,-109.3"/>
</a>
</g>
</g>
<!-- Node7 -->
<g id="Node000007" class="node">
<title>Node7</title>
<g id="a_Node000007"><a xlink:href="classhelios_1_1core_1_1data_1_1TypeIndexer.html#a33aff035cb667c63fcd123a69a91b3cc" target="_top" xlink:title="Generates and returns a unique type index for a specific type.">
<polygon fill="white" stroke="#666666" points="876,-55.5 740,-55.5 740,-25.5 876,-25.5 876,-55.5"/>
<text text-anchor="start" x="748" y="-43.5" font-family="Helvetica,sans-Serif" font-size="10.00">helios::core::data</text>
<text text-anchor="middle" x="808" y="-32.5" font-family="Helvetica,sans-Serif" font-size="10.00">::TypeIndexer::typeIndex</text>
</a>
</g>
</g>
<!-- Node5&#45;&gt;Node7 -->
<g id="edge8_Node000005_Node000007" class="edge">
<title>Node5&#45;&gt;Node7</title>
<g id="a_edge8_Node000005_Node000007"><a xlink:title=" ">
<path fill="none" stroke="#63b8ff" d="M677.76,-97.49C686.25,-94.68 694.92,-91.63 703,-88.5 724.83,-80.03 748.57,-69.2 767.86,-59.97"/>
<polygon fill="#63b8ff" stroke="#63b8ff" points="769.46,-63.09 776.94,-55.59 766.41,-56.78 769.46,-63.09"/>
</a>
</g>
</g>
<!-- Node6&#45;&gt;Node5 -->
<g id="edge7_Node000006_Node000005" class="edge">
<title>Node6&#45;&gt;Node5</title>
<g id="a_edge7_Node000006_Node000005"><a xlink:title=" ">
<path fill="none" stroke="#63b8ff" d="M738.9,-119.07C730.49,-119.21 721.82,-119.27 713.19,-119.24"/>
<polygon fill="#63b8ff" stroke="#63b8ff" points="713.13,-115.74 703.1,-119.17 713.08,-122.74 713.13,-115.74"/>
</a>
</g>
</g>
<!-- Node7&#45;&gt;Node7 -->
<g id="edge9_Node000007_Node000007" class="edge">
<title>Node7&#45;&gt;Node7</title>
<g id="a_edge9_Node000007_Node000007"><a xlink:title=" ">
<path fill="none" stroke="#63b8ff" d="M776.36,-55.78C769.33,-64.91 779.88,-73.5 808,-73.5 824.7,-73.5 835.2,-70.47 839.51,-66.1"/>
<polygon fill="#63b8ff" stroke="#63b8ff" points="843.01,-65.82 839.64,-55.78 836.01,-65.73 843.01,-65.82"/>
</a>
</g>
</g>
<!-- Node9&#45;&gt;Node8 -->
<g id="edge12_Node000009_Node000008" class="edge">
<title>Node9&#45;&gt;Node8</title>
<g id="a_edge12_Node000009_Node000008"><a xlink:title=" ">
<path fill="none" stroke="#63b8ff" d="M323.11,-180.75C388.91,-177.65 481.81,-173.27 547.23,-170.19"/>
<polygon fill="#63b8ff" stroke="#63b8ff" points="547.66,-173.67 557.49,-169.7 547.33,-166.68 547.66,-173.67"/>
</a>
</g>
</g>
<!-- Node10&#45;&gt;Node3 -->
<g id="edge14_Node000010_Node000003" class="edge">
<title>Node10&#45;&gt;Node3</title>
<g id="a_edge14_Node000010_Node000003"><a xlink:title=" ">
<path fill="none" stroke="#63b8ff" d="M290.26,-105.48C311.1,-99.32 336.07,-92.67 359,-88.5 422.76,-76.89 496.17,-70.81 549.78,-67.68"/>
<polygon fill="#63b8ff" stroke="#63b8ff" points="550.1,-71.16 559.89,-67.11 549.71,-64.18 550.1,-71.16"/>
</a>
</g>
</g>
<!-- Node10&#45;&gt;Node4 -->
<g id="edge15_Node000010_Node000004" class="edge">
<title>Node10&#45;&gt;Node4</title>
<g id="a_edge15_Node000010_Node000004"><a xlink:title=" ">
<path fill="none" stroke="#63b8ff" d="M301.63,-118.08C322.49,-117.21 346.2,-116.22 367.81,-115.32"/>
<polygon fill="#63b8ff" stroke="#63b8ff" points="368.06,-118.81 377.9,-114.9 367.76,-111.82 368.06,-118.81"/>
</a>
</g>
</g>
<!-- Node10&#45;&gt;Node8 -->
<g id="edge16_Node000010_Node000008" class="edge">
<title>Node10&#45;&gt;Node8</title>
<g id="a_edge16_Node000010_Node000008"><a xlink:title=" ">
<path fill="none" stroke="#63b8ff" d="M301.63,-128.85C319.97,-131.4 340.32,-134.16 359,-136.5 422.26,-144.44 494.09,-152.47 547.22,-158.22"/>
<polygon fill="#63b8ff" stroke="#63b8ff" points="546.94,-161.71 557.25,-159.3 547.69,-154.75 546.94,-161.71"/>
</a>
</g>
</g>
</g>
</svg>
