<?xml version="1.0" encoding="UTF-8" standalone="no"?>
<!DOCTYPE svg PUBLIC "-//W3C//DTD SVG 1.1//EN"
 "http://www.w3.org/Graphics/SVG/1.1/DTD/svg11.dtd">
<!-- Generated by graphviz version 2.43.0 (0)
 -->
<!-- Title: helios::engine::runtime::world::Manager Pages: 1 -->
<svg width="362pt" height="456pt"
 viewBox="0.00 0.00 362.00 455.50" xmlns="http://www.w3.org/2000/svg" xmlns:xlink="http://www.w3.org/1999/xlink">
<g id="graph0" class="graph" transform="scale(1 1) rotate(0) translate(4 451.5)">
<title>helios::engine::runtime::world::Manager</title>
<!-- Node1 -->
<g id="Node000001" class="node">
<title>Node1</title>
<g id="a_Node000001"><a xlink:title="Abstract base class for managers that process deferred operations.">
<polygon fill="#999999" stroke="#666666" points="129,-222 0,-222 0,-192 129,-192 129,-222"/>
<text text-anchor="start" x="8" y="-210" font-family="Helvetica,sans-Serif" font-size="10.00">helios::engine::runtime</text>
<text text-anchor="middle" x="64.5" y="-199" font-family="Helvetica,sans-Serif" font-size="10.00">::world::Manager</text>
</a>
</g>
</g>
<!-- Node2 -->
<g id="Node000002" class="node">
<title>Node2</title>
<g id="a_Node000002"><a xlink:href="classhelios_1_1engine_1_1state_1_1StateManager.html" target="_top" xlink:title=" ">
<polygon fill="white" stroke="#666666" points="324,-447.5 195,-447.5 195,-406.5 324,-406.5 324,-447.5"/>
<text text-anchor="start" x="203" y="-435.5" font-family="Helvetica,sans-Serif" font-size="10.00">helios::engine::state</text>
<text text-anchor="start" x="203" y="-424.5" font-family="Helvetica,sans-Serif" font-size="10.00">::StateManager&lt; types</text>
<text text-anchor="middle" x="259.5" y="-413.5" font-family="Helvetica,sans-Serif" font-size="10.00">::GameState &gt;</text>
</a>
</g>
</g>
<!-- Node1&#45;&gt;Node2 -->
<g id="edge1_Node000001_Node000002" class="edge">
<title>Node1&#45;&gt;Node2</title>
<g id="a_edge1_Node000001_Node000002"><a xlink:title=" ">
<path fill="none" stroke="#63b8ff" d="M71.88,-231.92C83.53,-272.41 112.03,-352.44 165,-397 173.61,-404.24 183.99,-409.75 194.67,-413.92"/>
<polygon fill="#63b8ff" stroke="#63b8ff" points="75.2,-230.77 69.16,-222.07 68.45,-232.64 75.2,-230.77"/>
</a>
</g>
</g>
<!-- Node3 -->
<g id="Node000003" class="node">
<title>Node3</title>
<g id="a_Node000003"><a xlink:href="classhelios_1_1engine_1_1state_1_1StateManager.html" target="_top" xlink:title=" ">
<polygon fill="white" stroke="#666666" points="335,-388 184,-388 184,-336 335,-336 335,-388"/>
<text text-anchor="start" x="192" y="-376" font-family="Helvetica,sans-Serif" font-size="10.00">helios::engine::state</text>
<text text-anchor="start" x="192" y="-365" font-family="Helvetica,sans-Serif" font-size="10.00">::StateManager&lt; helios</text>
<text text-anchor="start" x="192" y="-354" font-family="Helvetica,sans-Serif" font-size="10.00">::engine::mechanics::match</text>
<text text-anchor="middle" x="259.5" y="-343" font-family="Helvetica,sans-Serif" font-size="10.00">::types::MatchState &gt;</text>
</a>
</g>
</g>
<!-- Node1&#45;&gt;Node3 -->
<g id="edge2_Node000001_Node000003" class="edge">
<title>Node1&#45;&gt;Node3</title>
<g id="a_edge2_Node000001_Node000003"><a xlink:title=" ">
<path fill="none" stroke="#63b8ff" d="M79.78,-230.79C96.95,-257.57 128.11,-300.76 165,-327 170.79,-331.12 177.12,-334.82 183.68,-338.12"/>
<polygon fill="#63b8ff" stroke="#63b8ff" points="82.58,-228.67 74.3,-222.06 76.65,-232.39 82.58,-228.67"/>
</a>
</g>
</g>
<!-- Node4 -->
<g id="Node000004" class="node">
<title>Node4</title>
<g id="a_Node000004"><a xlink:href="classhelios_1_1engine_1_1mechanics_1_1lifecycle_1_1WorldLifecycleManager.html" target="_top" xlink:title="Manager that processes deferred world lifecycle commands.">
<polygon fill="white" stroke="#666666" points="351.5,-318 167.5,-318 167.5,-288 351.5,-288 351.5,-318"/>
<text text-anchor="start" x="175.5" y="-306" font-family="Helvetica,sans-Serif" font-size="10.00">helios::engine::mechanics</text>
<text text-anchor="middle" x="259.5" y="-295" font-family="Helvetica,sans-Serif" font-size="10.00">::lifecycle::WorldLifecycleManager</text>
</a>
</g>
</g>
<!-- Node1&#45;&gt;Node4 -->
<g id="edge3_Node000001_Node000004" class="edge">
<title>Node1&#45;&gt;Node4</title>
<g id="a_edge3_Node000001_Node000004"><a xlink:title=" ">
<path fill="none" stroke="#63b8ff" d="M89.86,-228.67C109.05,-244.69 137.13,-265.92 165,-279 172.28,-282.42 180.12,-285.4 188.05,-287.98"/>
<polygon fill="#63b8ff" stroke="#63b8ff" points="92.09,-225.97 82.21,-222.16 87.56,-231.3 92.09,-225.97"/>
</a>
</g>
</g>
<!-- Node5 -->
<g id="Node000005" class="node">
<title>Node5</title>
<g id="a_Node000005"><a xlink:href="classhelios_1_1engine_1_1mechanics_1_1scoring_1_1ScorePoolManager.html" target="_top" xlink:title="Manages score pools and processes score commands.">
<polygon fill="white" stroke="#666666" points="337,-270 182,-270 182,-240 337,-240 337,-270"/>
<text text-anchor="start" x="190" y="-258" font-family="Helvetica,sans-Serif" font-size="10.00">helios::engine::mechanics</text>
<text text-anchor="middle" x="259.5" y="-247" font-family="Helvetica,sans-Serif" font-size="10.00">::scoring::ScorePoolManager</text>
</a>
</g>
</g>
<!-- Node1&#45;&gt;Node5 -->
<g id="edge4_Node000001_Node000005" class="edge">
<title>Node1&#45;&gt;Node5</title>
<g id="a_edge4_Node000001_Node000005"><a xlink:title=" ">
<path fill="none" stroke="#63b8ff" d="M135.91,-224.51C156.33,-229.59 178.43,-235.09 198.18,-240"/>
<polygon fill="#63b8ff" stroke="#63b8ff" points="136.59,-221.07 126.04,-222.06 134.9,-227.87 136.59,-221.07"/>
</a>
</g>
</g>
<!-- Node6 -->
<g id="Node000006" class="node">
<title>Node6</title>
<g id="a_Node000006"><a xlink:href="classhelios_1_1engine_1_1mechanics_1_1timing_1_1TimerManager.html" target="_top" xlink:title="Manager that owns game timers and processes timer control commands.">
<polygon fill="white" stroke="#666666" points="331,-222 188,-222 188,-192 331,-192 331,-222"/>
<text text-anchor="start" x="196" y="-210" font-family="Helvetica,sans-Serif" font-size="10.00">helios::engine::mechanics</text>
<text text-anchor="middle" x="259.5" y="-199" font-family="Helvetica,sans-Serif" font-size="10.00">::timing::TimerManager</text>
</a>
</g>
</g>
<!-- Node1&#45;&gt;Node6 -->
<g id="edge5_Node000001_Node000006" class="edge">
<title>Node1&#45;&gt;Node6</title>
<g id="a_edge5_Node000001_Node000006"><a xlink:title=" ">
<path fill="none" stroke="#63b8ff" d="M139.51,-207C155.38,-207 172.11,-207 187.84,-207"/>
<polygon fill="#63b8ff" stroke="#63b8ff" points="139.23,-203.5 129.23,-207 139.23,-210.5 139.23,-203.5"/>
</a>
</g>
</g>
<!-- Node7 -->
<g id="Node000007" class="node">
<title>Node7</title>
<g id="a_Node000007"><a xlink:href="classhelios_1_1engine_1_1modules_1_1ui_1_1UiActionCommandManager.html" target="_top" xlink:title="Manages and processes UI action commands with policy&#45;based dispatch.">
<polygon fill="white" stroke="#666666" points="345.5,-174 173.5,-174 173.5,-144 345.5,-144 345.5,-174"/>
<text text-anchor="start" x="181.5" y="-162" font-family="Helvetica,sans-Serif" font-size="10.00">helios::engine::modules</text>
<text text-anchor="middle" x="259.5" y="-151" font-family="Helvetica,sans-Serif" font-size="10.00">::ui::UiActionCommandManager</text>
</a>
</g>
</g>
<!-- Node1&#45;&gt;Node7 -->
<g id="edge6_Node000001_Node000007" class="edge">
<title>Node1&#45;&gt;Node7</title>
<g id="a_edge6_Node000001_Node000007"><a xlink:title=" ">
<path fill="none" stroke="#63b8ff" d="M135.91,-189.49C156.33,-184.41 178.43,-178.91 198.18,-174"/>
<polygon fill="#63b8ff" stroke="#63b8ff" points="134.9,-186.13 126.04,-191.94 136.59,-192.93 134.9,-186.13"/>
</a>
</g>
</g>
<!-- Node8 -->
<g id="Node000008" class="node">
<title>Node8</title>
<g id="a_Node000008"><a xlink:href="classhelios_1_1engine_1_1runtime_1_1pooling_1_1GameObjectPoolManager.html" target="_top" xlink:title="High&#45;level manager for GameObject pooling operations.">
<polygon fill="white" stroke="#666666" points="354,-126 165,-126 165,-96 354,-96 354,-126"/>
<text text-anchor="start" x="173" y="-114" font-family="Helvetica,sans-Serif" font-size="10.00">helios::engine::runtime</text>
<text text-anchor="middle" x="259.5" y="-103" font-family="Helvetica,sans-Serif" font-size="10.00">::pooling::GameObjectPoolManager</text>
</a>
</g>
</g>
<!-- Node1&#45;&gt;Node8 -->
<g id="edge7_Node000001_Node000008" class="edge">
<title>Node1&#45;&gt;Node8</title>
<g id="a_edge7_Node000001_Node000008"><a xlink:title=" ">
<path fill="none" stroke="#63b8ff" d="M89.86,-185.33C109.05,-169.31 137.13,-148.08 165,-135 172.28,-131.58 180.12,-128.6 188.05,-126.02"/>
<polygon fill="#63b8ff" stroke="#63b8ff" points="87.56,-182.7 82.21,-191.84 92.09,-188.03 87.56,-182.7"/>
</a>
</g>
</g>
<!-- Node9 -->
<g id="Node000009" class="node">
<title>Node9</title>
<g id="a_Node000009"><a xlink:href="classhelios_1_1engine_1_1runtime_1_1spawn_1_1SpawnManager.html" target="_top" xlink:title="Manager for processing spawn and despawn commands.">
<polygon fill="white" stroke="#666666" points="327,-78 192,-78 192,-48 327,-48 327,-78"/>
<text text-anchor="start" x="200" y="-66" font-family="Helvetica,sans-Serif" font-size="10.00">helios::engine::runtime</text>
<text text-anchor="middle" x="259.5" y="-55" font-family="Helvetica,sans-Serif" font-size="10.00">::spawn::SpawnManager</text>
</a>
</g>
</g>
<!-- Node1&#45;&gt;Node9 -->
<g id="edge8_Node000001_Node000009" class="edge">
<title>Node1&#45;&gt;Node9</title>
<g id="a_edge8_Node000001_Node000009"><a xlink:title=" ">
<path fill="none" stroke="#63b8ff" d="M79.02,-182.92C95.68,-155.5 126.56,-111.36 165,-87 173.21,-81.8 182.5,-77.72 191.96,-74.52"/>
<polygon fill="#63b8ff" stroke="#63b8ff" points="75.81,-181.47 73.74,-191.86 81.84,-185.04 75.81,-181.47"/>
</a>
</g>
</g>
<!-- Node10 -->
<g id="Node000010" class="node">
<title>Node10</title>
<g id="a_Node000010"><a xlink:href="classhelios_1_1engine_1_1state_1_1StateManager.html" target="_top" xlink:title="Manages state transitions using a rule&#45;based system.">
<polygon fill="white" stroke="#666666" points="340,-30 179,-30 179,0 340,0 340,-30"/>
<text text-anchor="start" x="187" y="-18" font-family="Helvetica,sans-Serif" font-size="10.00">helios::engine::state</text>
<text text-anchor="middle" x="259.5" y="-7" font-family="Helvetica,sans-Serif" font-size="10.00">::StateManager&lt; StateType &gt;</text>
</a>
</g>
</g>
<!-- Node1&#45;&gt;Node10 -->
<g id="edge9_Node000001_Node000010" class="edge">
<title>Node1&#45;&gt;Node10</title>
<g id="a_edge9_Node000001_Node000010"><a xlink:title=" ">
<path fill="none" stroke="#63b8ff" d="M73.19,-182.5C86.06,-145.59 115.55,-76.1 165,-39 169.56,-35.58 174.55,-32.65 179.79,-30.13"/>
<polygon fill="#63b8ff" stroke="#63b8ff" points="69.87,-181.4 70,-191.99 76.5,-183.63 69.87,-181.4"/>
</a>
</g>
</g>
</g>
</svg>
