<?xml version="1.0" encoding="UTF-8" standalone="no"?>
<!DOCTYPE svg PUBLIC "-//W3C//DTD SVG 1.1//EN"
 "http://www.w3.org/Graphics/SVG/1.1/DTD/svg11.dtd">
<!-- Generated by graphviz version 2.43.0 (0)
 -->
<!-- Title: helios::engine::modules::scene::types::SceneToViewportMap::updateCache Pages: 1 -->
<svg width="599pt" height="67pt"
 viewBox="0.00 0.00 599.00 67.00" xmlns="http://www.w3.org/2000/svg" xmlns:xlink="http://www.w3.org/1999/xlink">
<g id="graph0" class="graph" transform="scale(1 1) rotate(0) translate(4 63)">
<title>helios::engine::modules::scene::types::SceneToViewportMap::updateCache</title>
<!-- Node1 -->
<g id="Node000001" class="node">
<title>Node1</title>
<g id="a_Node000001"><a xlink:title="Rebuilds the internal cache if modifications were made.">
<polygon fill="#999999" stroke="#666666" points="173,-41 0,-41 0,0 173,0 173,-41"/>
<text text-anchor="start" x="8" y="-29" font-family="Helvetica,sans-Serif" font-size="10.00">helios::engine::modules</text>
<text text-anchor="start" x="8" y="-18" font-family="Helvetica,sans-Serif" font-size="10.00">::scene::types::SceneToViewport</text>
<text text-anchor="middle" x="86.5" y="-7" font-family="Helvetica,sans-Serif" font-size="10.00">Map::updateCache</text>
</a>
</g>
</g>
<!-- Node2 -->
<g id="Node000002" class="node">
<title>Node2</title>
<g id="a_Node000002"><a xlink:href="classhelios_1_1engine_1_1modules_1_1scene_1_1types_1_1SceneToViewportMap.html#acd8a90325af6ff14d38fdf43618643fe" target="_top" xlink:title="Returns a specific viewport for a scene.">
<polygon fill="white" stroke="#666666" points="382,-41 209,-41 209,0 382,0 382,-41"/>
<text text-anchor="start" x="217" y="-29" font-family="Helvetica,sans-Serif" font-size="10.00">helios::engine::modules</text>
<text text-anchor="start" x="217" y="-18" font-family="Helvetica,sans-Serif" font-size="10.00">::scene::types::SceneToViewport</text>
<text text-anchor="middle" x="295.5" y="-7" font-family="Helvetica,sans-Serif" font-size="10.00">Map::viewport</text>
</a>
</g>
</g>
<!-- Node1&#45;&gt;Node2 -->
<g id="edge1_Node000001_Node000002" class="edge">
<title>Node1&#45;&gt;Node2</title>
<g id="a_edge1_Node000001_Node000002"><a xlink:title=" ">
<path fill="none" stroke="#63b8ff" d="M173.19,-13.84C181.66,-13.75 190.3,-13.73 198.87,-13.77"/>
<polygon fill="#63b8ff" stroke="#63b8ff" points="198.85,-17.27 208.88,-13.84 198.9,-10.27 198.85,-17.27"/>
</a>
</g>
</g>
<!-- Node2&#45;&gt;Node1 -->
<g id="edge3_Node000002_Node000001" class="edge">
<title>Node2&#45;&gt;Node1</title>
<g id="a_edge3_Node000002_Node000001"><a xlink:title=" ">
<path fill="none" stroke="#63b8ff" d="M208.88,-27.16C200.4,-27.25 191.76,-27.27 183.2,-27.23"/>
<polygon fill="#63b8ff" stroke="#63b8ff" points="183.21,-23.73 173.19,-27.16 183.16,-30.73 183.21,-23.73"/>
</a>
</g>
</g>
<!-- Node2&#45;&gt;Node2 -->
<g id="edge4_Node000002_Node000002" class="edge">
<title>Node2&#45;&gt;Node2</title>
<g id="a_edge4_Node000002_Node000002"><a xlink:title=" ">
<path fill="none" stroke="#63b8ff" d="M257.27,-41.1C253.1,-50.65 265.84,-59 295.5,-59 314.04,-59 325.96,-55.74 331.29,-50.96"/>
<polygon fill="#63b8ff" stroke="#63b8ff" points="334.72,-51.65 333.73,-41.1 327.93,-49.96 334.72,-51.65"/>
</a>
</g>
</g>
<!-- Node3 -->
<g id="Node000003" class="node">
<title>Node3</title>
<g id="a_Node000003"><a xlink:href="classhelios_1_1engine_1_1modules_1_1scene_1_1types_1_1SceneToViewportMap.html#a9f4ae28ebe7c7e7d30e254cba076b3e4" target="_top" xlink:title="Checks if a scene is registered.">
<polygon fill="white" stroke="#666666" points="591,-41 418,-41 418,0 591,0 591,-41"/>
<text text-anchor="start" x="426" y="-29" font-family="Helvetica,sans-Serif" font-size="10.00">helios::engine::modules</text>
<text text-anchor="start" x="426" y="-18" font-family="Helvetica,sans-Serif" font-size="10.00">::scene::types::SceneToViewport</text>
<text text-anchor="middle" x="504.5" y="-7" font-family="Helvetica,sans-Serif" font-size="10.00">Map::hasScene</text>
</a>
</g>
</g>
<!-- Node2&#45;&gt;Node3 -->
<g id="edge2_Node000002_Node000003" class="edge">
<title>Node2&#45;&gt;Node3</title>
<g id="a_edge2_Node000002_Node000003"><a xlink:title=" ">
<path fill="none" stroke="#63b8ff" d="M382.19,-20.5C390.66,-20.5 399.3,-20.5 407.87,-20.5"/>
<polygon fill="#63b8ff" stroke="#63b8ff" points="407.88,-24 417.88,-20.5 407.88,-17 407.88,-24"/>
</a>
</g>
</g>
</g>
</svg>
