<?xml version="1.0" encoding="UTF-8" standalone="no"?>
<!DOCTYPE svg PUBLIC "-//W3C//DTD SVG 1.1//EN"
 "http://www.w3.org/Graphics/SVG/1.1/DTD/svg11.dtd">
<!-- Generated by graphviz version 2.43.0 (0)
 -->
<!-- Title: helios::engine::state::StateManager&lt; StateType &gt; Pages: 1 -->
<!--zoomable 419 -->

<svg id="main" version="1.1" xmlns="http://www.w3.org/2000/svg" xmlns:xlink="http://www.w3.org/1999/xlink" xml:space="preserve" onload="init(evt)">

<style type="text/css"><![CDATA[
.node, .edge {opacity: 0.7;}
.node.selected, .edge.selected {opacity: 1;}
.edge:hover path { stroke: red; }
.edge:hover polygon { stroke: red; fill: red; }
]]></style>

<defs>
  <circle id="rim" cx="0" cy="0" r="7"/>
  <circle id="rim2" cx="0" cy="0" r="3.5"/>
  <g id="zoomPlus">
    <use xlink:href="#rim" fill="#404040"><set attributeName="fill" to="#808080" begin="zoomplus.mouseover" end="zoomplus.mouseout"/></use>
    <path d="M-4,0h8M0,-4v8" fill="none" stroke="white" stroke-width="1.5" pointer-events="none"/>
  </g>
  <g id="zoomMin">
    <use xlink:href="#rim" fill="#404040"><set attributeName="fill" to="#808080" begin="zoomminus.mouseover" end="zoomminus.mouseout"/></use>
    <path d="M-4,0h8" fill="none" stroke="white" stroke-width="1.5" pointer-events="none"/>
  </g>
  <g id="arrowUp" transform="translate(30 24)">
    <use xlink:href="#rim"/>
    <path pointer-events="none" fill="none" stroke="white" stroke-width="1.5" d="M0,-3.0v7 M-2.5,-0.5L0,-3.0L2.5,-0.5"/>
  </g>
  <g id="arrowRight" transform="rotate(90) translate(36 -43)">
    <use xlink:href="#rim"/>
    <path pointer-events="none" fill="none" stroke="white" stroke-width="1.5" d="M0,-3.0v7 M-2.5,-0.5L0,-3.0L2.5,-0.5"/>
  </g>
  <g id="arrowDown" transform="rotate(180) translate(-30 -48)">
    <use xlink:href="#rim"/>
    <path pointer-events="none" fill="none" stroke="white" stroke-width="1.5" d="M0,-3.0v7 M-2.5,-0.5L0,-3.0L2.5,-0.5"/>
  </g>
  <g id="arrowLeft" transform="rotate(270) translate(-36 17)">
    <use xlink:href="#rim"/>
    <path pointer-events="none" fill="none" stroke="white" stroke-width="1.5" d="M0,-3.0v7 M-2.5,-0.5L0,-3.0L2.5,-0.5"/>
  </g>
  <g id="resetDef">
    <use xlink:href="#rim2" fill="#404040"><set attributeName="fill" to="#808080" begin="reset.mouseover" end="reset.mouseout"/></use>
  </g>
</defs>
<script type="application/ecmascript">
var viewWidth = 1000;
var viewHeight = 419;
var sectionId = 'dynsection-1';
</script>
<script type="application/ecmascript" xlink:href="svg.min.js"/>
<svg id="graph" class="graph">
<g id="viewport">
<title>helios::engine::state::StateManager&lt; StateType &gt;</title>
<!-- Node1 -->
<g id="Node000001" class="node">
<title>Node1</title>
<g id="a_Node000001"><a xlink:title="Manages state transitions using a rule&#45;based system.">
<polygon fill="#999999" stroke="#666666" points="992,-195.81 831,-195.81 831,-165.81 992,-165.81 992,-195.81"/>
<text text-anchor="start" x="839" y="-183.81" font-family="Helvetica,sans-Serif" font-size="10.00">helios::engine::state</text>
<text text-anchor="middle" x="911.5" y="-172.81" font-family="Helvetica,sans-Serif" font-size="10.00">::StateManager&lt; StateType &gt;</text>
</a>
</g>
</g>
<!-- Node2 -->
<g id="Node000002" class="node">
<title>Node2</title>
<g id="a_Node000002"><a xlink:href="classhelios_1_1engine_1_1runtime_1_1world_1_1Manager.html" target="_top" xlink:title="Abstract base class for managers that process deferred operations.">
<polygon fill="white" stroke="#666666" points="776,-223.81 647,-223.81 647,-193.81 776,-193.81 776,-223.81"/>
<text text-anchor="start" x="655" y="-211.81" font-family="Helvetica,sans-Serif" font-size="10.00">helios::engine::runtime</text>
<text text-anchor="middle" x="711.5" y="-200.81" font-family="Helvetica,sans-Serif" font-size="10.00">::world::Manager</text>
</a>
</g>
</g>
<!-- Node2&#45;&gt;Node1 -->
<g id="edge1_Node000001_Node000002" class="edge">
<title>Node2&#45;&gt;Node1</title>
<g id="a_edge1_Node000001_Node000002"><a xlink:title=" ">
<path fill="none" stroke="#63b8ff" d="M786.19,-198.39C800.77,-196.33 816.14,-194.15 830.91,-192.07"/>
<polygon fill="#63b8ff" stroke="#63b8ff" points="785.65,-194.93 776.24,-199.8 786.63,-201.86 785.65,-194.93"/>
</a>
</g>
</g>
<!-- Node3 -->
<g id="Node000003" class="node">
<title>Node3</title>
<g id="a_Node000003"><a xlink:href="classhelios_1_1engine_1_1runtime_1_1world_1_1GameWorld.html" target="_top" xlink:title="Central registry for game entities, managers, pools, and the active level.">
<polygon fill="white" stroke="#666666" points="522,-223.81 393,-223.81 393,-193.81 522,-193.81 522,-223.81"/>
<text text-anchor="start" x="401" y="-211.81" font-family="Helvetica,sans-Serif" font-size="10.00">helios::engine::runtime</text>
<text text-anchor="middle" x="457.5" y="-200.81" font-family="Helvetica,sans-Serif" font-size="10.00">::world::GameWorld</text>
</a>
</g>
</g>
<!-- Node3&#45;&gt;Node2 -->
<g id="edge2_Node000002_Node000003" class="edge">
<title>Node3&#45;&gt;Node2</title>
<g id="a_edge2_Node000002_Node000003"><a xlink:title=" ">
<path fill="none" stroke="#9a32cd" stroke-dasharray="5,2" d="M532.15,-208.81C568.54,-208.81 612.02,-208.81 646.93,-208.81"/>
<polygon fill="#9a32cd" stroke="#9a32cd" points="532.09,-205.31 522.09,-208.81 532.09,-212.31 532.09,-205.31"/>
</a>
</g>
<text text-anchor="start" x="547.5" y="-214.31" font-family="Helvetica,sans-Serif" font-size="10.00" fill="grey">gameWorld_</text>
</g>
<!-- Node4 -->
<g id="Node000004" class="node">
<title>Node4</title>
<g id="a_Node000004"><a xlink:href="classhelios_1_1util_1_1log_1_1Logger.html" target="_top" xlink:title="Logger implementation with configurable output sinks.">
<polygon fill="white" stroke="#666666" points="138,-394.81 43,-394.81 43,-364.81 138,-364.81 138,-394.81"/>
<text text-anchor="start" x="51" y="-382.81" font-family="Helvetica,sans-Serif" font-size="10.00">helios::util::log::</text>
<text text-anchor="middle" x="90.5" y="-371.81" font-family="Helvetica,sans-Serif" font-size="10.00">Logger</text>
</a>
</g>
</g>
<!-- Node4&#45;&gt;Node3 -->
<g id="edge3_Node000003_Node000004" class="edge">
<title>Node4&#45;&gt;Node3</title>
<g id="a_edge3_Node000003_Node000004"><a xlink:title=" ">
<path fill="none" stroke="#9a32cd" stroke-dasharray="5,2" d="M148.22,-389.65C208.34,-396.97 303.73,-399.41 371,-356.81 420.14,-325.69 444.15,-255.47 452.71,-224.26"/>
<polygon fill="#9a32cd" stroke="#9a32cd" points="148.52,-386.16 138.15,-388.34 147.61,-393.1 148.52,-386.16"/>
</a>
</g>
<text text-anchor="start" x="267" y="-399.31" font-family="Helvetica,sans-Serif" font-size="10.00" fill="grey">logger_</text>
</g>
<!-- Node5 -->
<g id="Node000005" class="node">
<title>Node5</title>
<g id="a_Node000005"><a xlink:href="classhelios_1_1engine_1_1mechanics_1_1scoring_1_1ScoreCommandHandler.html" target="_top" xlink:title="Abstract interface for processing score update commands.">
<polygon fill="white" stroke="#666666" points="180,-346.81 1,-346.81 1,-316.81 180,-316.81 180,-346.81"/>
<text text-anchor="start" x="9" y="-334.81" font-family="Helvetica,sans-Serif" font-size="10.00">helios::engine::mechanics</text>
<text text-anchor="middle" x="90.5" y="-323.81" font-family="Helvetica,sans-Serif" font-size="10.00">::scoring::ScoreCommandHandler</text>
</a>
</g>
</g>
<!-- Node5&#45;&gt;Node3 -->
<g id="edge4_Node000003_Node000005" class="edge">
<title>Node5&#45;&gt;Node3</title>
<g id="a_edge4_Node000003_Node000005"><a xlink:title=" ">
<path fill="none" stroke="#9a32cd" stroke-dasharray="5,2" d="M190.5,-336.29C246.2,-334.95 315.48,-326.62 371,-298.81 405.3,-281.63 433.24,-244.83 447.08,-224"/>
<polygon fill="#9a32cd" stroke="#9a32cd" points="190.21,-332.79 180.27,-336.46 190.33,-339.79 190.21,-332.79"/>
</a>
</g>
<text text-anchor="start" x="225" y="-341.31" font-family="Helvetica,sans-Serif" font-size="10.00" fill="grey">scoreCommandHandler_</text>
</g>
<!-- Node6 -->
<g id="Node000006" class="node">
<title>Node6</title>
<g id="a_Node000006"><a xlink:href="classhelios_1_1engine_1_1mechanics_1_1timing_1_1TimerCommandHandler.html" target="_top" xlink:title="Abstract interface for handling TimerControlCommands.">
<polygon fill="white" stroke="#666666" points="179,-298.81 2,-298.81 2,-268.81 179,-268.81 179,-298.81"/>
<text text-anchor="start" x="10" y="-286.81" font-family="Helvetica,sans-Serif" font-size="10.00">helios::engine::mechanics</text>
<text text-anchor="middle" x="90.5" y="-275.81" font-family="Helvetica,sans-Serif" font-size="10.00">::timing::TimerCommandHandler</text>
</a>
</g>
</g>
<!-- Node6&#45;&gt;Node3 -->
<g id="edge5_Node000003_Node000006" class="edge">
<title>Node6&#45;&gt;Node3</title>
<g id="a_edge5_Node000003_Node000006"><a xlink:title=" ">
<path fill="none" stroke="#9a32cd" stroke-dasharray="5,2" d="M189.14,-279.09C243.52,-274.6 311.95,-265.86 371,-248.81 391.63,-242.85 413.53,-232.52 430.01,-223.85"/>
<polygon fill="#9a32cd" stroke="#9a32cd" points="188.85,-275.6 179.16,-279.88 189.41,-282.58 188.85,-275.6"/>
</a>
</g>
<text text-anchor="start" x="225" y="-283.31" font-family="Helvetica,sans-Serif" font-size="10.00" fill="grey">timerCommandHandler_</text>
</g>
<!-- Node7 -->
<g id="Node000007" class="node">
<title>Node7</title>
<g id="a_Node000007"><a xlink:href="classhelios_1_1engine_1_1modules_1_1ui_1_1UiActionCommandHandler.html" target="_top" xlink:title="Abstract interface for handling UI action commands.">
<polygon fill="white" stroke="#666666" points="174,-250.81 7,-250.81 7,-220.81 174,-220.81 174,-250.81"/>
<text text-anchor="start" x="15" y="-238.81" font-family="Helvetica,sans-Serif" font-size="10.00">helios::engine::modules</text>
<text text-anchor="middle" x="90.5" y="-227.81" font-family="Helvetica,sans-Serif" font-size="10.00">::ui::UiActionCommandHandler</text>
</a>
</g>
</g>
<!-- Node7&#45;&gt;Node3 -->
<g id="edge6_Node000003_Node000007" class="edge">
<title>Node7&#45;&gt;Node3</title>
<g id="a_edge6_Node000003_Node000007"><a xlink:title=" ">
<path fill="none" stroke="#9a32cd" stroke-dasharray="5,2" d="M184.61,-228.92C249.8,-224.1 335.2,-217.78 392.75,-213.53"/>
<polygon fill="#9a32cd" stroke="#9a32cd" points="184.04,-225.46 174.32,-229.68 184.56,-232.44 184.04,-225.46"/>
</a>
</g>
<text text-anchor="start" x="218" y="-233.31" font-family="Helvetica,sans-Serif" font-size="10.00" fill="grey">uiActionCommandHandler_</text>
</g>
<!-- Node8 -->
<g id="Node000008" class="node">
<title>Node8</title>
<g id="a_Node000008"><a xlink:href="classhelios_1_1engine_1_1runtime_1_1spawn_1_1SpawnCommandHandlerRegistry.html" target="_top" xlink:title="Registry that maps SpawnProfileIds to their SpawnCommandHandlers.">
<polygon fill="white" stroke="#666666" points="181,-202.31 0,-202.31 0,-161.31 181,-161.31 181,-202.31"/>
<text text-anchor="start" x="8" y="-190.31" font-family="Helvetica,sans-Serif" font-size="10.00">helios::engine::runtime</text>
<text text-anchor="start" x="8" y="-179.31" font-family="Helvetica,sans-Serif" font-size="10.00">::spawn::SpawnCommandHandler</text>
<text text-anchor="middle" x="90.5" y="-168.31" font-family="Helvetica,sans-Serif" font-size="10.00">Registry</text>
</a>
</g>
</g>
<!-- Node8&#45;&gt;Node3 -->
<g id="edge7_Node000003_Node000008" class="edge">
<title>Node8&#45;&gt;Node3</title>
<g id="a_edge7_Node000003_Node000008"><a xlink:title=" ">
<path fill="none" stroke="#9a32cd" stroke-dasharray="5,2" d="M191.25,-182.93C244.69,-184.33 311.58,-187.35 371,-193.81 378.04,-194.58 385.38,-195.57 392.67,-196.67"/>
<polygon fill="#9a32cd" stroke="#9a32cd" points="191.18,-179.43 181.1,-182.68 191.01,-186.43 191.18,-179.43"/>
</a>
</g>
<text text-anchor="start" x="202" y="-199.31" font-family="Helvetica,sans-Serif" font-size="10.00" fill="grey">spawnCommandHandlerRegistry_</text>
</g>
<!-- Node9 -->
<g id="Node000009" class="node">
<title>Node9</title>
<g id="a_Node000009"><a xlink:href="classhelios_1_1engine_1_1ecs_1_1EntityRegistry.html" target="_top" xlink:title="Central registry for creating and managing entity handles.">
<polygon fill="white" stroke="#666666" points="144,-142.81 37,-142.81 37,-112.81 144,-112.81 144,-142.81"/>
<text text-anchor="start" x="45" y="-130.81" font-family="Helvetica,sans-Serif" font-size="10.00">helios::engine::ecs</text>
<text text-anchor="middle" x="90.5" y="-119.81" font-family="Helvetica,sans-Serif" font-size="10.00">::EntityRegistry</text>
</a>
</g>
</g>
<!-- Node9&#45;&gt;Node3 -->
<g id="edge8_Node000003_Node000009" class="edge">
<title>Node9&#45;&gt;Node3</title>
<g id="a_edge8_Node000003_Node000009"><a xlink:title=" ">
<path fill="none" stroke="#9a32cd" stroke-dasharray="5,2" d="M154.39,-124.49C213.14,-123.86 301.92,-129.38 371,-161.81 380.96,-166.49 379.84,-172.71 389,-178.81 397.43,-184.43 407.09,-189.43 416.41,-193.67"/>
<polygon fill="#9a32cd" stroke="#9a32cd" points="154.08,-120.99 144.14,-124.66 154.2,-127.99 154.08,-120.99"/>
</a>
</g>
<text text-anchor="start" x="248" y="-167.31" font-family="Helvetica,sans-Serif" font-size="10.00" fill="grey">entityRegistry_</text>
</g>
<!-- Node10 -->
<g id="Node000010" class="node">
<title>Node10</title>
<g id="a_Node000010"><a xlink:href="classhelios_1_1engine_1_1ecs_1_1EntityManager.html" target="_top" xlink:title="Manages entities and their associated components.">
<polygon fill="white" stroke="#666666" points="144,-94.81 37,-94.81 37,-64.81 144,-64.81 144,-94.81"/>
<text text-anchor="start" x="45" y="-82.81" font-family="Helvetica,sans-Serif" font-size="10.00">helios::engine::ecs</text>
<text text-anchor="middle" x="90.5" y="-71.81" font-family="Helvetica,sans-Serif" font-size="10.00">::EntityManager</text>
</a>
</g>
</g>
<!-- Node10&#45;&gt;Node3 -->
<g id="edge9_Node000003_Node000010" class="edge">
<title>Node10&#45;&gt;Node3</title>
<g id="a_edge9_Node000003_Node000010"><a xlink:title=" ">
<path fill="none" stroke="#9a32cd" stroke-dasharray="5,2" d="M154.36,-66.37C216.85,-56.93 311.71,-53.78 371,-104.81 396.65,-126.89 367.31,-152.83 389,-178.81 394.1,-184.91 400.68,-189.82 407.74,-193.75"/>
<polygon fill="#9a32cd" stroke="#9a32cd" points="153.55,-62.95 144.23,-67.99 154.66,-69.86 153.55,-62.95"/>
</a>
</g>
<text text-anchor="start" x="274" y="-110.31" font-family="Helvetica,sans-Serif" font-size="10.00" fill="grey">em_</text>
</g>
<!-- Node11 -->
<g id="Node000011" class="node">
<title>Node11</title>
<g id="a_Node000011"><a xlink:href="classhelios_1_1engine_1_1runtime_1_1world_1_1Session.html" target="_top" xlink:title="Holds session&#45;level state for the current game instance.">
<polygon fill="white" stroke="#666666" points="155,-46.81 26,-46.81 26,-16.81 155,-16.81 155,-46.81"/>
<text text-anchor="start" x="34" y="-34.81" font-family="Helvetica,sans-Serif" font-size="10.00">helios::engine::runtime</text>
<text text-anchor="middle" x="90.5" y="-23.81" font-family="Helvetica,sans-Serif" font-size="10.00">::world::Session</text>
</a>
</g>
</g>
<!-- Node11&#45;&gt;Node3 -->
<g id="edge10_Node000003_Node000011" class="edge">
<title>Node11&#45;&gt;Node3</title>
<g id="a_edge10_Node000003_Node000011"><a xlink:title=" ">
<path fill="none" stroke="#9a32cd" stroke-dasharray="5,2" d="M147.75,-14.27C210.47,1.43 310.94,14.52 371,-39.81 417.2,-81.6 351.76,-128.87 389,-178.81 393.52,-184.88 399.55,-189.74 406.14,-193.63"/>
<polygon fill="#9a32cd" stroke="#9a32cd" points="146.82,-10.9 138.02,-16.8 148.58,-17.67 146.82,-10.9"/>
</a>
</g>
<text text-anchor="start" x="264" y="-45.31" font-family="Helvetica,sans-Serif" font-size="10.00" fill="grey">session_</text>
</g>
<!-- Node12 -->
<g id="Node000012" class="node">
<title>Node12</title>
<g id="a_Node000012"><a xlink:href="classhelios_1_1engine_1_1state_1_1TypedStateCommandHandler.html" target="_top" xlink:title="Typed interface for handling state commands.">
<polygon fill="white" stroke="#666666" points="794,-175.31 629,-175.31 629,-134.31 794,-134.31 794,-175.31"/>
<text text-anchor="start" x="637" y="-163.31" font-family="Helvetica,sans-Serif" font-size="10.00">helios::engine::state</text>
<text text-anchor="start" x="637" y="-152.31" font-family="Helvetica,sans-Serif" font-size="10.00">::TypedStateCommandHandler</text>
<text text-anchor="middle" x="711.5" y="-141.31" font-family="Helvetica,sans-Serif" font-size="10.00">&lt; StateType &gt;</text>
</a>
</g>
</g>
<!-- Node12&#45;&gt;Node1 -->
<g id="edge11_Node000001_Node000012" class="edge">
<title>Node12&#45;&gt;Node1</title>
<g id="a_edge11_Node000001_Node000012"><a xlink:title=" ">
<path fill="none" stroke="#63b8ff" d="M804.2,-166.85C813.13,-168.02 822.13,-169.21 830.92,-170.36"/>
<polygon fill="#63b8ff" stroke="#63b8ff" points="804.55,-163.37 794.18,-165.54 803.64,-170.31 804.55,-163.37"/>
</a>
</g>
</g>
<!-- Node13 -->
<g id="Node000013" class="node">
<title>Node13</title>
<g id="a_Node000013"><a xlink:href="classhelios_1_1engine_1_1state_1_1StateCommandHandler.html" target="_top" xlink:title="Abstract base for type&#45;erased state command handling.">
<polygon fill="white" stroke="#666666" points="526,-169.81 389,-169.81 389,-139.81 526,-139.81 526,-169.81"/>
<text text-anchor="start" x="397" y="-157.81" font-family="Helvetica,sans-Serif" font-size="10.00">helios::engine::state</text>
<text text-anchor="middle" x="457.5" y="-146.81" font-family="Helvetica,sans-Serif" font-size="10.00">::StateCommandHandler</text>
</a>
</g>
</g>
<!-- Node13&#45;&gt;Node12 -->
<g id="edge12_Node000012_Node000013" class="edge">
<title>Node13&#45;&gt;Node12</title>
<g id="a_edge12_Node000012_Node000013"><a xlink:title=" ">
<path fill="none" stroke="#63b8ff" d="M536.24,-154.81C565.62,-154.81 599.13,-154.81 628.86,-154.81"/>
<polygon fill="#63b8ff" stroke="#63b8ff" points="536.03,-151.31 526.03,-154.81 536.03,-158.31 536.03,-151.31"/>
</a>
</g>
</g>
</g>
</svg>

<g id="navigator" transform="translate(0 0)" fill="#404254">
  <rect fill="#f2f5e9" fill-opacity="0.5" stroke="#606060" stroke-width=".5" x="0" y="0" width="60" height="60"/>
  <use id="zoomplus" xlink:href="#zoomPlus" x="17" y="9" onmousedown="handleZoom(evt,'in')"/>
  <use id="zoomminus" xlink:href="#zoomMin" x="42" y="9" onmousedown="handleZoom(evt,'out')"/>
  <use id="reset" xlink:href="#resetDef" x="30" y="36" onmousedown="handleReset()"/>
   <use id="arrowup" xlink:href="#arrowUp" x="0" y="0" onmousedown="handlePan(0,-1)"/>
  <use id="arrowright" xlink:href="#arrowRight" x="0" y="0" onmousedown="handlePan(1,0)"/>
  <use id="arrowdown" xlink:href="#arrowDown" x="0" y="0" onmousedown="handlePan(0,1)"/>
  <use id="arrowleft" xlink:href="#arrowLeft" x="0" y="0" onmousedown="handlePan(-1,0)"/>
</g>
<svg viewBox="0 0 15 15" width="100%" height="30px" preserveAspectRatio="xMaxYMin meet">
 <g id="arrow_out" transform="scale(0.3 0.3)">
  <a xlink:href="classhelios_1_1engine_1_1state_1_1StateManager__coll__graph_org.svg" target="_base">
   <rect id="button" ry="5" rx="5" y="6" x="6" height="38" width="38"
        fill="#f2f5e9" fill-opacity="0.5" stroke="#606060" stroke-width="1.0"/>
   <path id="arrow"
     d="M 11.500037,31.436501 C 11.940474,20.09759 22.043105,11.32322 32.158766,21.979434 L 37.068811,17.246167 C 37.068811,17.246167 37.088388,32 37.088388,32 L 22.160133,31.978069 C 22.160133,31.978069 26.997745,27.140456 26.997745,27.140456 C 18.528582,18.264221 13.291696,25.230495 11.500037,31.436501 z"
     style="fill:#404040;"/>
  </a>
 </g>
</svg>

<style type='text/css'>
<![CDATA[
[data-mouse-over-selected='false'] { opacity: 0.7; }
[data-mouse-over-selected='true']  { opacity: 1.0; }
]]>
</style>
<script type="application/ecmascript"><![CDATA[
document.addEventListener('DOMContentLoaded', (event) => {
  highlightEdges();
  highlightAdjacentNodes();
});
]]></script>
</svg>
