<?xml version="1.0" encoding="UTF-8" standalone="no"?>
<!DOCTYPE svg PUBLIC "-//W3C//DTD SVG 1.1//EN"
 "http://www.w3.org/Graphics/SVG/1.1/DTD/svg11.dtd">
<!-- Generated by graphviz version 2.43.0 (0)
 -->
<!-- Title: helios::engine::ecs::GameObject::getOrAdd Pages: 1 -->
<svg width="657pt" height="215pt"
 viewBox="0.00 0.00 657.00 214.50" xmlns="http://www.w3.org/2000/svg" xmlns:xlink="http://www.w3.org/1999/xlink">
<g id="graph0" class="graph" transform="scale(1 1) rotate(0) translate(4 210.5)">
<title>helios::engine::ecs::GameObject::getOrAdd</title>
<!-- Node1 -->
<g id="Node000001" class="node">
<title>Node1</title>
<g id="a_Node000001"><a xlink:title="Returns existing component or creates a new one.">
<polygon fill="#999999" stroke="#666666" points="135,-78 0,-78 0,-48 135,-48 135,-78"/>
<text text-anchor="start" x="8" y="-66" font-family="Helvetica,sans-Serif" font-size="10.00">helios::engine::ecs</text>
<text text-anchor="middle" x="67.5" y="-55" font-family="Helvetica,sans-Serif" font-size="10.00">::GameObject::getOrAdd</text>
</a>
</g>
</g>
<!-- Node2 -->
<g id="Node000002" class="node">
<title>Node2</title>
<g id="a_Node000002"><a xlink:href="classhelios_1_1engine_1_1ecs_1_1GameObject.html#a0447ff56cdd329a2db5436096f8353ae" target="_top" xlink:title="Constructs and attaches a component to this entity.">
<polygon fill="white" stroke="#666666" points="278,-78 171,-78 171,-48 278,-48 278,-78"/>
<text text-anchor="start" x="179" y="-66" font-family="Helvetica,sans-Serif" font-size="10.00">helios::engine::ecs</text>
<text text-anchor="middle" x="224.5" y="-55" font-family="Helvetica,sans-Serif" font-size="10.00">::GameObject::add</text>
</a>
</g>
</g>
<!-- Node1&#45;&gt;Node2 -->
<g id="edge1_Node000001_Node000002" class="edge">
<title>Node1&#45;&gt;Node2</title>
<g id="a_edge1_Node000001_Node000002"><a xlink:title=" ">
<path fill="none" stroke="#63b8ff" d="M135.13,-63C143.65,-63 152.35,-63 160.8,-63"/>
<polygon fill="#63b8ff" stroke="#63b8ff" points="160.96,-66.5 170.96,-63 160.96,-59.5 160.96,-66.5"/>
</a>
</g>
</g>
<!-- Node3 -->
<g id="Node000003" class="node">
<title>Node3</title>
<g id="a_Node000003"><a xlink:href="classhelios_1_1engine_1_1core_1_1data_1_1ComponentTypeId.html#ae2b1610edbd9844c96d65f5572fa6db9" target="_top" xlink:title="Gets the ComponentTypeId for a specific component type.">
<polygon fill="white" stroke="#666666" points="471,-165 318,-165 318,-135 471,-135 471,-165"/>
<text text-anchor="start" x="326" y="-153" font-family="Helvetica,sans-Serif" font-size="10.00">helios::engine::core</text>
<text text-anchor="middle" x="394.5" y="-142" font-family="Helvetica,sans-Serif" font-size="10.00">::data::ComponentTypeId::id</text>
</a>
</g>
</g>
<!-- Node2&#45;&gt;Node3 -->
<g id="edge2_Node000002_Node000003" class="edge">
<title>Node2&#45;&gt;Node3</title>
<g id="a_edge2_Node000002_Node000003"><a xlink:title=" ">
<path fill="none" stroke="#63b8ff" d="M254.76,-78.15C282.62,-92.58 324.71,-114.38 355.22,-130.18"/>
<polygon fill="#63b8ff" stroke="#63b8ff" points="353.8,-133.38 364.29,-134.87 357.02,-127.17 353.8,-133.38"/>
</a>
</g>
</g>
<!-- Node6 -->
<g id="Node000006" class="node">
<title>Node6</title>
<g id="a_Node000006"><a xlink:href="classhelios_1_1engine_1_1ecs_1_1ComponentOpsRegistry.html#a4f41db7b6ae7e83ba8092343d8620e59" target="_top" xlink:title="Retrieves ComponentOps for a component type.">
<polygon fill="white" stroke="#666666" points="475,-78 314,-78 314,-48 475,-48 475,-78"/>
<text text-anchor="start" x="322" y="-66" font-family="Helvetica,sans-Serif" font-size="10.00">helios::engine::ecs</text>
<text text-anchor="middle" x="394.5" y="-55" font-family="Helvetica,sans-Serif" font-size="10.00">::ComponentOpsRegistry::ops</text>
</a>
</g>
</g>
<!-- Node2&#45;&gt;Node6 -->
<g id="edge7_Node000002_Node000006" class="edge">
<title>Node2&#45;&gt;Node6</title>
<g id="a_edge7_Node000002_Node000006"><a xlink:title=" ">
<path fill="none" stroke="#63b8ff" d="M278.2,-63C286.36,-63 294.98,-63 303.68,-63"/>
<polygon fill="#63b8ff" stroke="#63b8ff" points="303.92,-66.5 313.92,-63 303.92,-59.5 303.92,-66.5"/>
</a>
</g>
</g>
<!-- Node8 -->
<g id="Node000008" class="node">
<title>Node8</title>
<g id="a_Node000008"><a xlink:href="classhelios_1_1engine_1_1ecs_1_1GameObject.html#ab1c1f6b81c4965b76967c29a6af7f713" target="_top" xlink:title="Returns raw pointer to component by type ID.">
<polygon fill="white" stroke="#666666" points="448,-30 341,-30 341,0 448,0 448,-30"/>
<text text-anchor="start" x="349" y="-18" font-family="Helvetica,sans-Serif" font-size="10.00">helios::engine::ecs</text>
<text text-anchor="middle" x="394.5" y="-7" font-family="Helvetica,sans-Serif" font-size="10.00">::GameObject::raw</text>
</a>
</g>
</g>
<!-- Node2&#45;&gt;Node8 -->
<g id="edge9_Node000002_Node000008" class="edge">
<title>Node2&#45;&gt;Node8</title>
<g id="a_edge9_Node000002_Node000008"><a xlink:title=" ">
<path fill="none" stroke="#63b8ff" d="M278.2,-47.94C294.93,-43.16 313.59,-37.83 330.95,-32.87"/>
<polygon fill="#63b8ff" stroke="#63b8ff" points="332.34,-36.11 340.99,-30 330.41,-29.38 332.34,-36.11"/>
</a>
</g>
</g>
<!-- Node4 -->
<g id="Node000004" class="node">
<title>Node4</title>
<g id="a_Node000004"><a xlink:href="classhelios_1_1engine_1_1core_1_1data_1_1ComponentTypeId.html#a7923e00f921bcc8b48133bcc5f77678f" target="_top" xlink:title="Constructs a ComponentTypeId with a specific ID value.">
<polygon fill="white" stroke="#666666" points="649,-206.5 511,-206.5 511,-165.5 649,-165.5 649,-206.5"/>
<text text-anchor="start" x="519" y="-194.5" font-family="Helvetica,sans-Serif" font-size="10.00">helios::engine::core</text>
<text text-anchor="start" x="519" y="-183.5" font-family="Helvetica,sans-Serif" font-size="10.00">::data::ComponentTypeId</text>
<text text-anchor="middle" x="580" y="-172.5" font-family="Helvetica,sans-Serif" font-size="10.00">::ComponentTypeId</text>
</a>
</g>
</g>
<!-- Node3&#45;&gt;Node4 -->
<g id="edge3_Node000003_Node000004" class="edge">
<title>Node3&#45;&gt;Node4</title>
<g id="a_edge3_Node000003_Node000004"><a xlink:title=" ">
<path fill="none" stroke="#63b8ff" d="M471.2,-158.19C481.04,-160.01 491.15,-161.98 501.03,-164.02"/>
<polygon fill="#63b8ff" stroke="#63b8ff" points="500.32,-167.45 510.82,-166.08 501.76,-160.6 500.32,-167.45"/>
</a>
</g>
</g>
<!-- Node5 -->
<g id="Node000005" class="node">
<title>Node5</title>
<g id="a_Node000005"><a xlink:href="classhelios_1_1core_1_1data_1_1TypeIndexer.html#a33aff035cb667c63fcd123a69a91b3cc" target="_top" xlink:title="Generates and returns a unique type index for a specific type.">
<polygon fill="white" stroke="#666666" points="648,-129 512,-129 512,-99 648,-99 648,-129"/>
<text text-anchor="start" x="520" y="-117" font-family="Helvetica,sans-Serif" font-size="10.00">helios::core::data</text>
<text text-anchor="middle" x="580" y="-106" font-family="Helvetica,sans-Serif" font-size="10.00">::TypeIndexer::typeIndex</text>
</a>
</g>
</g>
<!-- Node3&#45;&gt;Node5 -->
<g id="edge5_Node000003_Node000005" class="edge">
<title>Node3&#45;&gt;Node5</title>
<g id="a_edge5_Node000003_Node000005"><a xlink:title=" ">
<path fill="none" stroke="#63b8ff" d="M471.2,-135.15C481.34,-133.16 491.75,-131.12 501.92,-129.12"/>
<polygon fill="#63b8ff" stroke="#63b8ff" points="502.85,-132.51 511.99,-127.15 501.5,-125.64 502.85,-132.51"/>
</a>
</g>
</g>
<!-- Node4&#45;&gt;Node3 -->
<g id="edge4_Node000004_Node000003" class="edge">
<title>Node4&#45;&gt;Node3</title>
<g id="a_edge4_Node000004_Node000003"><a xlink:title=" ">
<path fill="none" stroke="#63b8ff" d="M510.86,-179.18C491.36,-175.69 470.33,-171.48 451.64,-167.29"/>
<polygon fill="#63b8ff" stroke="#63b8ff" points="452.33,-163.86 441.8,-165.04 450.77,-170.68 452.33,-163.86"/>
</a>
</g>
</g>
<!-- Node5&#45;&gt;Node5 -->
<g id="edge6_Node000005_Node000005" class="edge">
<title>Node5&#45;&gt;Node5</title>
<g id="a_edge6_Node000005_Node000005"><a xlink:title=" ">
<path fill="none" stroke="#63b8ff" d="M547.66,-129.28C540.47,-138.41 551.25,-147 580,-147 597.07,-147 607.81,-143.97 612.21,-139.6"/>
<polygon fill="#63b8ff" stroke="#63b8ff" points="615.71,-139.32 612.34,-129.28 608.71,-139.23 615.71,-139.32"/>
</a>
</g>
</g>
<!-- Node7 -->
<g id="Node000007" class="node">
<title>Node7</title>
<g id="a_Node000007"><a xlink:href="classhelios_1_1engine_1_1core_1_1data_1_1ComponentTypeId.html#a324f7ed295515954f0147169dfdff208" target="_top" xlink:title="Returns the underlying ID value.">
<polygon fill="white" stroke="#666666" points="649,-80.5 511,-80.5 511,-39.5 649,-39.5 649,-80.5"/>
<text text-anchor="start" x="519" y="-68.5" font-family="Helvetica,sans-Serif" font-size="10.00">helios::engine::core</text>
<text text-anchor="start" x="519" y="-57.5" font-family="Helvetica,sans-Serif" font-size="10.00">::data::ComponentTypeId</text>
<text text-anchor="middle" x="580" y="-46.5" font-family="Helvetica,sans-Serif" font-size="10.00">::value</text>
</a>
</g>
</g>
<!-- Node6&#45;&gt;Node7 -->
<g id="edge8_Node000006_Node000007" class="edge">
<title>Node6&#45;&gt;Node7</title>
<g id="a_edge8_Node000006_Node000007"><a xlink:title=" ">
<path fill="none" stroke="#63b8ff" d="M475.19,-61.7C483.64,-61.56 492.24,-61.42 500.68,-61.28"/>
<polygon fill="#63b8ff" stroke="#63b8ff" points="500.94,-64.78 510.88,-61.11 500.83,-57.78 500.94,-64.78"/>
</a>
</g>
</g>
</g>
</svg>
