<?xml version="1.0" encoding="UTF-8" standalone="no"?>
<!DOCTYPE svg PUBLIC "-//W3C//DTD SVG 1.1//EN"
 "http://www.w3.org/Graphics/SVG/1.1/DTD/svg11.dtd">
<!-- Generated by graphviz version 2.43.0 (0)
 -->
<!-- Title: helios::engine::runtime::messaging::command::CommandHandler Pages: 1 -->
<!--zoomable 659 -->

<svg id="main" version="1.1" xmlns="http://www.w3.org/2000/svg" xmlns:xlink="http://www.w3.org/1999/xlink" xml:space="preserve" onload="init(evt)">

<style type="text/css"><![CDATA[
.node, .edge {opacity: 0.7;}
.node.selected, .edge.selected {opacity: 1;}
.edge:hover path { stroke: red; }
.edge:hover polygon { stroke: red; fill: red; }
]]></style>

<defs>
  <circle id="rim" cx="0" cy="0" r="7"/>
  <circle id="rim2" cx="0" cy="0" r="3.5"/>
  <g id="zoomPlus">
    <use xlink:href="#rim" fill="#404040"><set attributeName="fill" to="#808080" begin="zoomplus.mouseover" end="zoomplus.mouseout"/></use>
    <path d="M-4,0h8M0,-4v8" fill="none" stroke="white" stroke-width="1.5" pointer-events="none"/>
  </g>
  <g id="zoomMin">
    <use xlink:href="#rim" fill="#404040"><set attributeName="fill" to="#808080" begin="zoomminus.mouseover" end="zoomminus.mouseout"/></use>
    <path d="M-4,0h8" fill="none" stroke="white" stroke-width="1.5" pointer-events="none"/>
  </g>
  <g id="arrowUp" transform="translate(30 24)">
    <use xlink:href="#rim"/>
    <path pointer-events="none" fill="none" stroke="white" stroke-width="1.5" d="M0,-3.0v7 M-2.5,-0.5L0,-3.0L2.5,-0.5"/>
  </g>
  <g id="arrowRight" transform="rotate(90) translate(36 -43)">
    <use xlink:href="#rim"/>
    <path pointer-events="none" fill="none" stroke="white" stroke-width="1.5" d="M0,-3.0v7 M-2.5,-0.5L0,-3.0L2.5,-0.5"/>
  </g>
  <g id="arrowDown" transform="rotate(180) translate(-30 -48)">
    <use xlink:href="#rim"/>
    <path pointer-events="none" fill="none" stroke="white" stroke-width="1.5" d="M0,-3.0v7 M-2.5,-0.5L0,-3.0L2.5,-0.5"/>
  </g>
  <g id="arrowLeft" transform="rotate(270) translate(-36 17)">
    <use xlink:href="#rim"/>
    <path pointer-events="none" fill="none" stroke="white" stroke-width="1.5" d="M0,-3.0v7 M-2.5,-0.5L0,-3.0L2.5,-0.5"/>
  </g>
  <g id="resetDef">
    <use xlink:href="#rim2" fill="#404040"><set attributeName="fill" to="#808080" begin="reset.mouseover" end="reset.mouseout"/></use>
  </g>
</defs>
<script type="application/ecmascript">
var viewWidth = 652;
var viewHeight = 659;
var sectionId = 'dynsection-0';
</script>
<script type="application/ecmascript" xlink:href="svg.min.js"/>
<svg id="graph" class="graph">
<g id="viewport">
<title>helios::engine::runtime::messaging::command::CommandHandler</title>
<!-- Node1 -->
<g id="Node000001" class="node">
<title>Node1</title>
<g id="a_Node000001"><a xlink:title="Abstract base for type&#45;erased command handler storage.">
<polygon fill="#999999" stroke="#666666" points="137,-332 0,-332 0,-291 137,-291 137,-332"/>
<text text-anchor="start" x="8" y="-320" font-family="Helvetica,sans-Serif" font-size="10.00">helios::engine::runtime</text>
<text text-anchor="start" x="8" y="-309" font-family="Helvetica,sans-Serif" font-size="10.00">::messaging::command::</text>
<text text-anchor="middle" x="68.5" y="-298" font-family="Helvetica,sans-Serif" font-size="10.00">CommandHandler</text>
</a>
</g>
</g>
<!-- Node2 -->
<g id="Node000002" class="node">
<title>Node2</title>
<g id="a_Node000002"><a xlink:href="classhelios_1_1engine_1_1runtime_1_1messaging_1_1command_1_1TypedCommandHandler.html" target="_top" xlink:title=" ">
<polygon fill="white" stroke="#666666" points="405.5,-650.5 191.5,-650.5 191.5,-598.5 405.5,-598.5 405.5,-650.5"/>
<text text-anchor="start" x="199.5" y="-638.5" font-family="Helvetica,sans-Serif" font-size="10.00">helios::engine::runtime</text>
<text text-anchor="start" x="199.5" y="-627.5" font-family="Helvetica,sans-Serif" font-size="10.00">::messaging::command::</text>
<text text-anchor="start" x="199.5" y="-616.5" font-family="Helvetica,sans-Serif" font-size="10.00">TypedCommandHandler&lt; ApplyDamage</text>
<text text-anchor="middle" x="298.5" y="-605.5" font-family="Helvetica,sans-Serif" font-size="10.00">Command &gt;</text>
</a>
</g>
</g>
<!-- Node1&#45;&gt;Node2 -->
<g id="edge1_Node000001_Node000002" class="edge">
<title>Node1&#45;&gt;Node2</title>
<g id="a_edge1_Node000001_Node000002"><a xlink:title=" ">
<path fill="none" stroke="#63b8ff" d="M72.02,-342.27C78.39,-399.48 100.22,-522.48 173,-589.5 178.53,-594.6 184.75,-598.96 191.38,-602.69"/>
<polygon fill="#63b8ff" stroke="#63b8ff" points="75.48,-341.65 70.97,-332.06 68.51,-342.37 75.48,-341.65"/>
</a>
</g>
</g>
<!-- Node4 -->
<g id="Node000004" class="node">
<title>Node4</title>
<g id="a_Node000004"><a xlink:href="classhelios_1_1engine_1_1runtime_1_1messaging_1_1command_1_1TypedCommandHandler.html" target="_top" xlink:title=" ">
<polygon fill="white" stroke="#666666" points="406.5,-580.5 190.5,-580.5 190.5,-528.5 406.5,-528.5 406.5,-580.5"/>
<text text-anchor="start" x="198.5" y="-568.5" font-family="Helvetica,sans-Serif" font-size="10.00">helios::engine::runtime</text>
<text text-anchor="start" x="198.5" y="-557.5" font-family="Helvetica,sans-Serif" font-size="10.00">::messaging::command::</text>
<text text-anchor="start" x="198.5" y="-546.5" font-family="Helvetica,sans-Serif" font-size="10.00">TypedCommandHandler&lt; WorldLifecycle</text>
<text text-anchor="middle" x="298.5" y="-535.5" font-family="Helvetica,sans-Serif" font-size="10.00">Command &gt;</text>
</a>
</g>
</g>
<!-- Node1&#45;&gt;Node4 -->
<g id="edge3_Node000001_Node000004" class="edge">
<title>Node1&#45;&gt;Node4</title>
<g id="a_edge3_Node000001_Node000004"><a xlink:title=" ">
<path fill="none" stroke="#63b8ff" d="M76.3,-341.98C88.05,-387.46 116.51,-472.73 173,-519.5 178.36,-523.94 184.25,-527.82 190.46,-531.2"/>
<polygon fill="#63b8ff" stroke="#63b8ff" points="79.66,-340.98 73.86,-332.11 72.87,-342.66 79.66,-340.98"/>
</a>
</g>
</g>
<!-- Node6 -->
<g id="Node000006" class="node">
<title>Node6</title>
<g id="a_Node000006"><a xlink:href="classhelios_1_1engine_1_1runtime_1_1messaging_1_1command_1_1TypedCommandHandler.html" target="_top" xlink:title=" ">
<polygon fill="white" stroke="#666666" points="402,-510.5 195,-510.5 195,-458.5 402,-458.5 402,-510.5"/>
<text text-anchor="start" x="203" y="-498.5" font-family="Helvetica,sans-Serif" font-size="10.00">helios::engine::runtime</text>
<text text-anchor="start" x="203" y="-487.5" font-family="Helvetica,sans-Serif" font-size="10.00">::messaging::command::</text>
<text text-anchor="start" x="203" y="-476.5" font-family="Helvetica,sans-Serif" font-size="10.00">TypedCommandHandler&lt; UpdateScore</text>
<text text-anchor="middle" x="298.5" y="-465.5" font-family="Helvetica,sans-Serif" font-size="10.00">Command &gt;</text>
</a>
</g>
</g>
<!-- Node1&#45;&gt;Node6 -->
<g id="edge5_Node000001_Node000006" class="edge">
<title>Node1&#45;&gt;Node6</title>
<g id="a_edge5_Node000001_Node000006"><a xlink:title=" ">
<path fill="none" stroke="#63b8ff" d="M84.29,-341.38C101.39,-372.89 132.47,-421.74 173,-449.5 179.76,-454.13 187.12,-458.15 194.78,-461.65"/>
<polygon fill="#63b8ff" stroke="#63b8ff" points="87.2,-339.41 79.43,-332.2 81.01,-342.68 87.2,-339.41"/>
</a>
</g>
</g>
<!-- Node8 -->
<g id="Node000008" class="node">
<title>Node8</title>
<g id="a_Node000008"><a xlink:href="classhelios_1_1engine_1_1runtime_1_1messaging_1_1command_1_1TypedCommandHandler.html" target="_top" xlink:title=" ">
<polygon fill="white" stroke="#666666" points="403,-440.5 194,-440.5 194,-388.5 403,-388.5 403,-440.5"/>
<text text-anchor="start" x="202" y="-428.5" font-family="Helvetica,sans-Serif" font-size="10.00">helios::engine::runtime</text>
<text text-anchor="start" x="202" y="-417.5" font-family="Helvetica,sans-Serif" font-size="10.00">::messaging::command::</text>
<text text-anchor="start" x="202" y="-406.5" font-family="Helvetica,sans-Serif" font-size="10.00">TypedCommandHandler&lt; TimerControl</text>
<text text-anchor="middle" x="298.5" y="-395.5" font-family="Helvetica,sans-Serif" font-size="10.00">Command &gt;</text>
</a>
</g>
</g>
<!-- Node1&#45;&gt;Node8 -->
<g id="edge7_Node000001_Node000008" class="edge">
<title>Node1&#45;&gt;Node8</title>
<g id="a_edge7_Node000001_Node000008"><a xlink:title=" ">
<path fill="none" stroke="#63b8ff" d="M104.06,-338.08C123.47,-351.99 148.63,-368.39 173,-379.5 180.05,-382.71 187.46,-385.7 195,-388.45"/>
<polygon fill="#63b8ff" stroke="#63b8ff" points="105.99,-335.16 95.84,-332.1 101.86,-340.81 105.99,-335.16"/>
</a>
</g>
</g>
<!-- Node10 -->
<g id="Node000010" class="node">
<title>Node10</title>
<g id="a_Node000010"><a xlink:href="classhelios_1_1engine_1_1runtime_1_1messaging_1_1command_1_1TypedCommandHandler.html" target="_top" xlink:title=" ">
<polygon fill="white" stroke="#666666" points="398,-370.5 199,-370.5 199,-318.5 398,-318.5 398,-370.5"/>
<text text-anchor="start" x="207" y="-358.5" font-family="Helvetica,sans-Serif" font-size="10.00">helios::engine::runtime</text>
<text text-anchor="start" x="207" y="-347.5" font-family="Helvetica,sans-Serif" font-size="10.00">::messaging::command::</text>
<text text-anchor="start" x="207" y="-336.5" font-family="Helvetica,sans-Serif" font-size="10.00">TypedCommandHandler&lt; commands</text>
<text text-anchor="middle" x="298.5" y="-325.5" font-family="Helvetica,sans-Serif" font-size="10.00">::UiActionCommand &gt;</text>
</a>
</g>
</g>
<!-- Node1&#45;&gt;Node10 -->
<g id="edge9_Node000001_Node000010" class="edge">
<title>Node1&#45;&gt;Node10</title>
<g id="a_edge9_Node000001_Node000010"><a xlink:title=" ">
<path fill="none" stroke="#63b8ff" d="M147.41,-322.78C163.93,-325.17 181.57,-327.72 198.75,-330.21"/>
<polygon fill="#63b8ff" stroke="#63b8ff" points="147.69,-319.28 137.29,-321.31 146.69,-326.21 147.69,-319.28"/>
</a>
</g>
</g>
<!-- Node12 -->
<g id="Node000012" class="node">
<title>Node12</title>
<g id="a_Node000012"><a xlink:href="classhelios_1_1engine_1_1runtime_1_1messaging_1_1command_1_1TypedCommandHandler.html" target="_top" xlink:title=" ">
<polygon fill="white" stroke="#666666" points="418,-300 179,-300 179,-259 418,-259 418,-300"/>
<text text-anchor="start" x="187" y="-288" font-family="Helvetica,sans-Serif" font-size="10.00">helios::engine::runtime</text>
<text text-anchor="start" x="187" y="-277" font-family="Helvetica,sans-Serif" font-size="10.00">::messaging::command::</text>
<text text-anchor="middle" x="298.5" y="-266" font-family="Helvetica,sans-Serif" font-size="10.00">TypedCommandHandler&lt; SpawnCommand &gt;</text>
</a>
</g>
</g>
<!-- Node1&#45;&gt;Node12 -->
<g id="edge11_Node000001_Node000012" class="edge">
<title>Node1&#45;&gt;Node12</title>
<g id="a_edge11_Node000001_Node000012"><a xlink:title=" ">
<path fill="none" stroke="#63b8ff" d="M147.31,-300.58C157.48,-299.15 168.08,-297.66 178.74,-296.17"/>
<polygon fill="#63b8ff" stroke="#63b8ff" points="146.71,-297.13 137.29,-301.99 147.68,-304.06 146.71,-297.13"/>
</a>
</g>
</g>
<!-- Node14 -->
<g id="Node000014" class="node">
<title>Node14</title>
<g id="a_Node000014"><a xlink:href="classhelios_1_1engine_1_1runtime_1_1messaging_1_1command_1_1TypedCommandHandler.html" target="_top" xlink:title=" ">
<polygon fill="white" stroke="#666666" points="424,-241 173,-241 173,-200 424,-200 424,-241"/>
<text text-anchor="start" x="181" y="-229" font-family="Helvetica,sans-Serif" font-size="10.00">helios::engine::runtime</text>
<text text-anchor="start" x="181" y="-218" font-family="Helvetica,sans-Serif" font-size="10.00">::messaging::command::</text>
<text text-anchor="middle" x="298.5" y="-207" font-family="Helvetica,sans-Serif" font-size="10.00">TypedCommandHandler&lt; DespawnCommand &gt;</text>
</a>
</g>
</g>
<!-- Node1&#45;&gt;Node14 -->
<g id="edge13_Node000001_Node000014" class="edge">
<title>Node1&#45;&gt;Node14</title>
<g id="a_edge13_Node000001_Node000014"><a xlink:title=" ">
<path fill="none" stroke="#63b8ff" d="M107.7,-285.3C126.65,-273.28 150.3,-259.69 173,-250.5 181.55,-247.04 190.6,-243.91 199.77,-241.1"/>
<polygon fill="#63b8ff" stroke="#63b8ff" points="105.57,-282.51 99.07,-290.87 109.37,-288.39 105.57,-282.51"/>
</a>
</g>
</g>
<!-- Node15 -->
<g id="Node000015" class="node">
<title>Node15</title>
<g id="a_Node000015"><a xlink:href="classhelios_1_1engine_1_1runtime_1_1messaging_1_1command_1_1TypedCommandHandler.html" target="_top" xlink:title=" ">
<polygon fill="white" stroke="#666666" points="396,-181.5 201,-181.5 201,-129.5 396,-129.5 396,-181.5"/>
<text text-anchor="start" x="209" y="-169.5" font-family="Helvetica,sans-Serif" font-size="10.00">helios::engine::runtime</text>
<text text-anchor="start" x="209" y="-158.5" font-family="Helvetica,sans-Serif" font-size="10.00">::messaging::command::</text>
<text text-anchor="start" x="209" y="-147.5" font-family="Helvetica,sans-Serif" font-size="10.00">TypedCommandHandler&lt; Scheduled</text>
<text text-anchor="middle" x="298.5" y="-136.5" font-family="Helvetica,sans-Serif" font-size="10.00">SpawnPlanCommand &gt;</text>
</a>
</g>
</g>
<!-- Node1&#45;&gt;Node15 -->
<g id="edge15_Node000001_Node000015" class="edge">
<title>Node1&#45;&gt;Node15</title>
<g id="a_edge15_Node000001_Node000015"><a xlink:title=" ">
<path fill="none" stroke="#63b8ff" d="M87.33,-282.48C105.6,-255.13 136.43,-214.95 173,-191.5 181.62,-185.97 191.1,-181.27 200.88,-177.28"/>
<polygon fill="#63b8ff" stroke="#63b8ff" points="84.39,-280.58 81.86,-290.87 90.25,-284.41 84.39,-280.58"/>
</a>
</g>
</g>
<!-- Node16 -->
<g id="Node000016" class="node">
<title>Node16</title>
<g id="a_Node000016"><a xlink:href="classhelios_1_1engine_1_1runtime_1_1messaging_1_1command_1_1TypedCommandHandler.html" target="_top" xlink:title=" ">
<polygon fill="white" stroke="#666666" points="409,-111.5 188,-111.5 188,-59.5 409,-59.5 409,-111.5"/>
<text text-anchor="start" x="196" y="-99.5" font-family="Helvetica,sans-Serif" font-size="10.00">helios::engine::runtime</text>
<text text-anchor="start" x="196" y="-88.5" font-family="Helvetica,sans-Serif" font-size="10.00">::messaging::command::</text>
<text text-anchor="start" x="196" y="-77.5" font-family="Helvetica,sans-Serif" font-size="10.00">TypedCommandHandler&lt; StateCommand</text>
<text text-anchor="middle" x="298.5" y="-66.5" font-family="Helvetica,sans-Serif" font-size="10.00">&lt; StateType &gt; &gt;</text>
</a>
</g>
</g>
<!-- Node1&#45;&gt;Node16 -->
<g id="edge17_Node000001_Node000016" class="edge">
<title>Node1&#45;&gt;Node16</title>
<g id="a_edge17_Node000001_Node000016"><a xlink:title=" ">
<path fill="none" stroke="#63b8ff" d="M77.8,-281C90.9,-238.63 120.46,-162.48 173,-120.5 177.65,-116.79 182.67,-113.47 187.93,-110.5"/>
<polygon fill="#63b8ff" stroke="#63b8ff" points="74.39,-280.16 74.89,-290.75 81.1,-282.16 74.39,-280.16"/>
</a>
</g>
</g>
<!-- Node18 -->
<g id="Node000018" class="node">
<title>Node18</title>
<g id="a_Node000018"><a xlink:href="classhelios_1_1engine_1_1runtime_1_1messaging_1_1command_1_1TypedCommandHandler.html" target="_top" xlink:title="Type&#45;safe handler for a specific command type.">
<polygon fill="white" stroke="#666666" points="413,-41 184,-41 184,0 413,0 413,-41"/>
<text text-anchor="start" x="192" y="-29" font-family="Helvetica,sans-Serif" font-size="10.00">helios::engine::runtime</text>
<text text-anchor="start" x="192" y="-18" font-family="Helvetica,sans-Serif" font-size="10.00">::messaging::command::</text>
<text text-anchor="middle" x="298.5" y="-7" font-family="Helvetica,sans-Serif" font-size="10.00">TypedCommandHandler&lt; CommandType &gt;</text>
</a>
</g>
</g>
<!-- Node1&#45;&gt;Node18 -->
<g id="edge19_Node000001_Node000018" class="edge">
<title>Node1&#45;&gt;Node18</title>
<g id="a_edge19_Node000001_Node000018"><a xlink:title=" ">
<path fill="none" stroke="#63b8ff" d="M72.61,-280.78C79.85,-225.95 102.94,-111.31 173,-50.5 177.03,-47 181.4,-43.9 186.01,-41.14"/>
<polygon fill="#63b8ff" stroke="#63b8ff" points="69.11,-280.56 71.36,-290.91 76.06,-281.41 69.11,-280.56"/>
</a>
</g>
</g>
<!-- Node3 -->
<g id="Node000003" class="node">
<title>Node3</title>
<g id="a_Node000003"><a xlink:href="classhelios_1_1engine_1_1mechanics_1_1health_1_1HealthManager.html" target="_top" xlink:title="Manager that processes damage commands and updates entity health.">
<polygon fill="white" stroke="#666666" points="623.5,-639.5 480.5,-639.5 480.5,-609.5 623.5,-609.5 623.5,-639.5"/>
<text text-anchor="start" x="488.5" y="-627.5" font-family="Helvetica,sans-Serif" font-size="10.00">helios::engine::mechanics</text>
<text text-anchor="middle" x="552" y="-616.5" font-family="Helvetica,sans-Serif" font-size="10.00">::health::HealthManager</text>
</a>
</g>
</g>
<!-- Node2&#45;&gt;Node3 -->
<g id="edge2_Node000002_Node000003" class="edge">
<title>Node2&#45;&gt;Node3</title>
<g id="a_edge2_Node000002_Node000003"><a xlink:title=" ">
<path fill="none" stroke="#63b8ff" d="M415.88,-624.5C437.92,-624.5 460.35,-624.5 480.43,-624.5"/>
<polygon fill="#63b8ff" stroke="#63b8ff" points="415.79,-621 405.79,-624.5 415.79,-628 415.79,-621"/>
</a>
</g>
</g>
<!-- Node5 -->
<g id="Node000005" class="node">
<title>Node5</title>
<g id="a_Node000005"><a xlink:href="classhelios_1_1engine_1_1mechanics_1_1lifecycle_1_1WorldLifecycleManager.html" target="_top" xlink:title="Manager that processes deferred world lifecycle commands.">
<polygon fill="white" stroke="#666666" points="644,-569.5 460,-569.5 460,-539.5 644,-539.5 644,-569.5"/>
<text text-anchor="start" x="468" y="-557.5" font-family="Helvetica,sans-Serif" font-size="10.00">helios::engine::mechanics</text>
<text text-anchor="middle" x="552" y="-546.5" font-family="Helvetica,sans-Serif" font-size="10.00">::lifecycle::WorldLifecycleManager</text>
</a>
</g>
</g>
<!-- Node4&#45;&gt;Node5 -->
<g id="edge4_Node000004_Node000005" class="edge">
<title>Node4&#45;&gt;Node5</title>
<g id="a_edge4_Node000004_Node000005"><a xlink:title=" ">
<path fill="none" stroke="#63b8ff" d="M416.57,-554.5C431.13,-554.5 445.85,-554.5 459.94,-554.5"/>
<polygon fill="#63b8ff" stroke="#63b8ff" points="416.52,-551 406.52,-554.5 416.52,-558 416.52,-551"/>
</a>
</g>
</g>
<!-- Node7 -->
<g id="Node000007" class="node">
<title>Node7</title>
<g id="a_Node000007"><a xlink:href="classhelios_1_1engine_1_1mechanics_1_1scoring_1_1ScorePoolManager.html" target="_top" xlink:title="Manages score pools and processes score commands.">
<polygon fill="white" stroke="#666666" points="629.5,-499.5 474.5,-499.5 474.5,-469.5 629.5,-469.5 629.5,-499.5"/>
<text text-anchor="start" x="482.5" y="-487.5" font-family="Helvetica,sans-Serif" font-size="10.00">helios::engine::mechanics</text>
<text text-anchor="middle" x="552" y="-476.5" font-family="Helvetica,sans-Serif" font-size="10.00">::scoring::ScorePoolManager</text>
</a>
</g>
</g>
<!-- Node6&#45;&gt;Node7 -->
<g id="edge6_Node000006_Node000007" class="edge">
<title>Node6&#45;&gt;Node7</title>
<g id="a_edge6_Node000006_Node000007"><a xlink:title=" ">
<path fill="none" stroke="#63b8ff" d="M412.42,-484.5C433.42,-484.5 454.9,-484.5 474.48,-484.5"/>
<polygon fill="#63b8ff" stroke="#63b8ff" points="412.16,-481 402.16,-484.5 412.16,-488 412.16,-481"/>
</a>
</g>
</g>
<!-- Node9 -->
<g id="Node000009" class="node">
<title>Node9</title>
<g id="a_Node000009"><a xlink:href="classhelios_1_1engine_1_1mechanics_1_1timing_1_1TimerManager.html" target="_top" xlink:title="Manager that owns game timers and processes timer control commands.">
<polygon fill="white" stroke="#666666" points="623.5,-429.5 480.5,-429.5 480.5,-399.5 623.5,-399.5 623.5,-429.5"/>
<text text-anchor="start" x="488.5" y="-417.5" font-family="Helvetica,sans-Serif" font-size="10.00">helios::engine::mechanics</text>
<text text-anchor="middle" x="552" y="-406.5" font-family="Helvetica,sans-Serif" font-size="10.00">::timing::TimerManager</text>
</a>
</g>
</g>
<!-- Node8&#45;&gt;Node9 -->
<g id="edge8_Node000008_Node000009" class="edge">
<title>Node8&#45;&gt;Node9</title>
<g id="a_edge8_Node000008_Node000009"><a xlink:title=" ">
<path fill="none" stroke="#63b8ff" d="M413.35,-414.5C436.2,-414.5 459.59,-414.5 480.44,-414.5"/>
<polygon fill="#63b8ff" stroke="#63b8ff" points="413.25,-411 403.25,-414.5 413.25,-418 413.25,-411"/>
</a>
</g>
</g>
<!-- Node11 -->
<g id="Node000011" class="node">
<title>Node11</title>
<g id="a_Node000011"><a xlink:href="classhelios_1_1engine_1_1modules_1_1ui_1_1UiActionCommandManager.html" target="_top" xlink:title="Manages and processes UI action commands with policy&#45;based dispatch.">
<polygon fill="white" stroke="#666666" points="638,-359.5 466,-359.5 466,-329.5 638,-329.5 638,-359.5"/>
<text text-anchor="start" x="474" y="-347.5" font-family="Helvetica,sans-Serif" font-size="10.00">helios::engine::modules</text>
<text text-anchor="middle" x="552" y="-336.5" font-family="Helvetica,sans-Serif" font-size="10.00">::ui::UiActionCommandManager</text>
</a>
</g>
</g>
<!-- Node10&#45;&gt;Node11 -->
<g id="edge10_Node000010_Node000011" class="edge">
<title>Node10&#45;&gt;Node11</title>
<g id="a_edge10_Node000010_Node000011"><a xlink:title=" ">
<path fill="none" stroke="#63b8ff" d="M408.44,-344.5C427.59,-344.5 447.26,-344.5 465.65,-344.5"/>
<polygon fill="#63b8ff" stroke="#63b8ff" points="408.18,-341 398.18,-344.5 408.18,-348 408.18,-341"/>
</a>
</g>
</g>
<!-- Node13 -->
<g id="Node000013" class="node">
<title>Node13</title>
<g id="a_Node000013"><a xlink:href="classhelios_1_1engine_1_1runtime_1_1spawn_1_1SpawnManager.html" target="_top" xlink:title="Manager for processing spawn and despawn commands.">
<polygon fill="white" stroke="#666666" points="619.5,-235.5 484.5,-235.5 484.5,-205.5 619.5,-205.5 619.5,-235.5"/>
<text text-anchor="start" x="492.5" y="-223.5" font-family="Helvetica,sans-Serif" font-size="10.00">helios::engine::runtime</text>
<text text-anchor="middle" x="552" y="-212.5" font-family="Helvetica,sans-Serif" font-size="10.00">::spawn::SpawnManager</text>
</a>
</g>
</g>
<!-- Node12&#45;&gt;Node13 -->
<g id="edge12_Node000012_Node000013" class="edge">
<title>Node12&#45;&gt;Node13</title>
<g id="a_edge12_Node000012_Node000013"><a xlink:title=" ">
<path fill="none" stroke="#63b8ff" d="M397.89,-256.61C406.72,-254.55 415.52,-252.49 424,-250.5 444.62,-245.66 467.12,-240.36 487.38,-235.57"/>
<polygon fill="#63b8ff" stroke="#63b8ff" points="396.87,-253.26 387.92,-258.94 398.46,-260.07 396.87,-253.26"/>
</a>
</g>
</g>
<!-- Node14&#45;&gt;Node13 -->
<g id="edge14_Node000014_Node000013" class="edge">
<title>Node14&#45;&gt;Node13</title>
<g id="a_edge14_Node000014_Node000013"><a xlink:title=" ">
<path fill="none" stroke="#63b8ff" d="M434.35,-220.5C451.66,-220.5 468.73,-220.5 484.26,-220.5"/>
<polygon fill="#63b8ff" stroke="#63b8ff" points="434.14,-217 424.14,-220.5 434.14,-224 434.14,-217"/>
</a>
</g>
</g>
<!-- Node15&#45;&gt;Node13 -->
<g id="edge16_Node000015_Node000013" class="edge">
<title>Node15&#45;&gt;Node13</title>
<g id="a_edge16_Node000015_Node000013"><a xlink:title=" ">
<path fill="none" stroke="#63b8ff" d="M406.05,-183.04C435.85,-190.74 467.11,-198.82 492.95,-205.5"/>
<polygon fill="#63b8ff" stroke="#63b8ff" points="406.57,-179.56 396.02,-180.44 404.82,-186.34 406.57,-179.56"/>
</a>
</g>
</g>
<!-- Node17 -->
<g id="Node000017" class="node">
<title>Node17</title>
<g id="a_Node000017"><a xlink:href="classhelios_1_1engine_1_1state_1_1StateManager.html" target="_top" xlink:title="Manages state transitions using a rule&#45;based system.">
<polygon fill="white" stroke="#666666" points="632.5,-100.5 471.5,-100.5 471.5,-70.5 632.5,-70.5 632.5,-100.5"/>
<text text-anchor="start" x="479.5" y="-88.5" font-family="Helvetica,sans-Serif" font-size="10.00">helios::engine::state</text>
<text text-anchor="middle" x="552" y="-77.5" font-family="Helvetica,sans-Serif" font-size="10.00">::StateManager&lt; StateType &gt;</text>
</a>
</g>
</g>
<!-- Node16&#45;&gt;Node17 -->
<g id="edge18_Node000016_Node000017" class="edge">
<title>Node16&#45;&gt;Node17</title>
<g id="a_edge18_Node000016_Node000017"><a xlink:title=" ">
<path fill="none" stroke="#63b8ff" d="M419.41,-85.5C437.01,-85.5 454.76,-85.5 471.28,-85.5"/>
<polygon fill="#63b8ff" stroke="#63b8ff" points="419.08,-82 409.08,-85.5 419.08,-89 419.08,-82"/>
</a>
</g>
</g>
</g>
</svg>

<g id="navigator" transform="translate(0 0)" fill="#404254">
  <rect fill="#f2f5e9" fill-opacity="0.5" stroke="#606060" stroke-width=".5" x="0" y="0" width="60" height="60"/>
  <use id="zoomplus" xlink:href="#zoomPlus" x="17" y="9" onmousedown="handleZoom(evt,'in')"/>
  <use id="zoomminus" xlink:href="#zoomMin" x="42" y="9" onmousedown="handleZoom(evt,'out')"/>
  <use id="reset" xlink:href="#resetDef" x="30" y="36" onmousedown="handleReset()"/>
   <use id="arrowup" xlink:href="#arrowUp" x="0" y="0" onmousedown="handlePan(0,-1)"/>
  <use id="arrowright" xlink:href="#arrowRight" x="0" y="0" onmousedown="handlePan(1,0)"/>
  <use id="arrowdown" xlink:href="#arrowDown" x="0" y="0" onmousedown="handlePan(0,1)"/>
  <use id="arrowleft" xlink:href="#arrowLeft" x="0" y="0" onmousedown="handlePan(-1,0)"/>
</g>
<svg viewBox="0 0 15 15" width="100%" height="30px" preserveAspectRatio="xMaxYMin meet">
 <g id="arrow_out" transform="scale(0.3 0.3)">
  <a xlink:href="classhelios_1_1engine_1_1runtime_1_1messaging_1_1command_1_1CommandHandler__inherit__graph_org.svg" target="_base">
   <rect id="button" ry="5" rx="5" y="6" x="6" height="38" width="38"
        fill="#f2f5e9" fill-opacity="0.5" stroke="#606060" stroke-width="1.0"/>
   <path id="arrow"
     d="M 11.500037,31.436501 C 11.940474,20.09759 22.043105,11.32322 32.158766,21.979434 L 37.068811,17.246167 C 37.068811,17.246167 37.088388,32 37.088388,32 L 22.160133,31.978069 C 22.160133,31.978069 26.997745,27.140456 26.997745,27.140456 C 18.528582,18.264221 13.291696,25.230495 11.500037,31.436501 z"
     style="fill:#404040;"/>
  </a>
 </g>
</svg>

<style type='text/css'>
<![CDATA[
[data-mouse-over-selected='false'] { opacity: 0.7; }
[data-mouse-over-selected='true']  { opacity: 1.0; }
]]>
</style>
<script type="application/ecmascript"><![CDATA[
document.addEventListener('DOMContentLoaded', (event) => {
  highlightEdges();
  highlightAdjacentNodes();
});
]]></script>
</svg>
