<?xml version="1.0" encoding="UTF-8" standalone="no"?>
<!DOCTYPE svg PUBLIC "-//W3C//DTD SVG 1.1//EN"
 "http://www.w3.org/Graphics/SVG/1.1/DTD/svg11.dtd">
<!-- Generated by graphviz version 2.43.0 (0)
 -->
<!-- Title: helios::engine::modules::physics::collision::components::CollisionStateComponent::isTrigger Pages: 1 -->
<svg width="456pt" height="78pt"
 viewBox="0.00 0.00 456.00 78.00" xmlns="http://www.w3.org/2000/svg" xmlns:xlink="http://www.w3.org/1999/xlink">
<g id="graph0" class="graph" transform="scale(1 1) rotate(0) translate(4 74)">
<title>helios::engine::modules::physics::collision::components::CollisionStateComponent::isTrigger</title>
<!-- Node1 -->
<g id="Node000001" class="node">
<title>Node1</title>
<g id="a_Node000001"><a xlink:title="Checks whether this is a trigger (non&#45;physical) collision.">
<polygon fill="#999999" stroke="#666666" points="448,-52 242,-52 242,0 448,0 448,-52"/>
<text text-anchor="start" x="250" y="-40" font-family="Helvetica,sans-Serif" font-size="10.00">helios::engine::modules</text>
<text text-anchor="start" x="250" y="-29" font-family="Helvetica,sans-Serif" font-size="10.00">::physics::collision::</text>
<text text-anchor="start" x="250" y="-18" font-family="Helvetica,sans-Serif" font-size="10.00">components::CollisionStateComponent</text>
<text text-anchor="middle" x="345" y="-7" font-family="Helvetica,sans-Serif" font-size="10.00">::isTrigger</text>
</a>
</g>
</g>
<!-- Node2 -->
<g id="Node000002" class="node">
<title>Node2</title>
<g id="a_Node000002"><a xlink:href="classhelios_1_1engine_1_1modules_1_1physics_1_1collision_1_1components_1_1CollisionStateComponent.html#a35e22cbc72a4f5797dd4dd42d6933f09" target="_top" xlink:title="Sets the collision state for this frame.">
<polygon fill="white" stroke="#666666" points="206,-52 0,-52 0,0 206,0 206,-52"/>
<text text-anchor="start" x="8" y="-40" font-family="Helvetica,sans-Serif" font-size="10.00">helios::engine::modules</text>
<text text-anchor="start" x="8" y="-29" font-family="Helvetica,sans-Serif" font-size="10.00">::physics::collision::</text>
<text text-anchor="start" x="8" y="-18" font-family="Helvetica,sans-Serif" font-size="10.00">components::CollisionStateComponent</text>
<text text-anchor="middle" x="103" y="-7" font-family="Helvetica,sans-Serif" font-size="10.00">::setState</text>
</a>
</g>
</g>
<!-- Node1&#45;&gt;Node2 -->
<g id="edge1_Node000001_Node000002" class="edge">
<title>Node1&#45;&gt;Node2</title>
<g id="a_edge1_Node000001_Node000002"><a xlink:title=" ">
<path fill="none" stroke="#63b8ff" d="M231.81,-26C223.22,-26 214.57,-26 206.04,-26"/>
<polygon fill="#63b8ff" stroke="#63b8ff" points="231.87,-29.5 241.87,-26 231.87,-22.5 231.87,-29.5"/>
</a>
</g>
</g>
<!-- Node2&#45;&gt;Node2 -->
<g id="edge2_Node000002_Node000002" class="edge">
<title>Node2&#45;&gt;Node2</title>
<g id="a_edge2_Node000002_Node000002"><a xlink:title=" ">
<path fill="none" stroke="#63b8ff" d="M143.93,-61.4C137.43,-66.54 123.78,-70 103,-70 71.33,-70 56.24,-61.96 57.72,-52.2"/>
<polygon fill="#63b8ff" stroke="#63b8ff" points="147.17,-62.74 148.28,-52.2 140.84,-59.75 147.17,-62.74"/>
</a>
</g>
</g>
</g>
</svg>
