<?xml version="1.0" encoding="UTF-8" standalone="no"?>
<!DOCTYPE svg PUBLIC "-//W3C//DTD SVG 1.1//EN"
 "http://www.w3.org/Graphics/SVG/1.1/DTD/svg11.dtd">
<!-- Generated by graphviz version 2.43.0 (0)
 -->
<!-- Title: helios::engine::game::systems::physics::GridCollisionDetectionSystem::solveCell Pages: 1 -->
<!--zoomable 254 -->

<svg id="main" version="1.1" xmlns="http://www.w3.org/2000/svg" xmlns:xlink="http://www.w3.org/1999/xlink" xml:space="preserve" onload="init(evt)">

<style type="text/css"><![CDATA[
.node, .edge {opacity: 0.7;}
.node.selected, .edge.selected {opacity: 1;}
.edge:hover path { stroke: red; }
.edge:hover polygon { stroke: red; fill: red; }
]]></style>

<defs>
  <circle id="rim" cx="0" cy="0" r="7"/>
  <circle id="rim2" cx="0" cy="0" r="3.5"/>
  <g id="zoomPlus">
    <use xlink:href="#rim" fill="#404040"><set attributeName="fill" to="#808080" begin="zoomplus.mouseover" end="zoomplus.mouseout"/></use>
    <path d="M-4,0h8M0,-4v8" fill="none" stroke="white" stroke-width="1.5" pointer-events="none"/>
  </g>
  <g id="zoomMin">
    <use xlink:href="#rim" fill="#404040"><set attributeName="fill" to="#808080" begin="zoomminus.mouseover" end="zoomminus.mouseout"/></use>
    <path d="M-4,0h8" fill="none" stroke="white" stroke-width="1.5" pointer-events="none"/>
  </g>
  <g id="arrowUp" transform="translate(30 24)">
    <use xlink:href="#rim"/>
    <path pointer-events="none" fill="none" stroke="white" stroke-width="1.5" d="M0,-3.0v7 M-2.5,-0.5L0,-3.0L2.5,-0.5"/>
  </g>
  <g id="arrowRight" transform="rotate(90) translate(36 -43)">
    <use xlink:href="#rim"/>
    <path pointer-events="none" fill="none" stroke="white" stroke-width="1.5" d="M0,-3.0v7 M-2.5,-0.5L0,-3.0L2.5,-0.5"/>
  </g>
  <g id="arrowDown" transform="rotate(180) translate(-30 -48)">
    <use xlink:href="#rim"/>
    <path pointer-events="none" fill="none" stroke="white" stroke-width="1.5" d="M0,-3.0v7 M-2.5,-0.5L0,-3.0L2.5,-0.5"/>
  </g>
  <g id="arrowLeft" transform="rotate(270) translate(-36 17)">
    <use xlink:href="#rim"/>
    <path pointer-events="none" fill="none" stroke="white" stroke-width="1.5" d="M0,-3.0v7 M-2.5,-0.5L0,-3.0L2.5,-0.5"/>
  </g>
  <g id="resetDef">
    <use xlink:href="#rim2" fill="#404040"><set attributeName="fill" to="#808080" begin="reset.mouseover" end="reset.mouseout"/></use>
  </g>
</defs>
<script type="application/ecmascript">
var viewWidth = 605;
var viewHeight = 254;
var sectionId = 'dynsection-5';
</script>
<script type="application/ecmascript" xlink:href="svg.min.js"/>
<svg id="graph" class="graph">
<g id="viewport">
<title>helios::engine::game::systems::physics::GridCollisionDetectionSystem::solveCell</title>
<!-- Node1 -->
<g id="Node000001" class="node">
<title>Node1</title>
<g id="a_Node000001"><a xlink:title="Performs narrow&#45;phase collision detection for all candidates in a cell.">
<polygon fill="#999999" stroke="#666666" points="175,-121 0,-121 0,-80 175,-80 175,-121"/>
<text text-anchor="start" x="8" y="-109" font-family="Helvetica,sans-Serif" font-size="10.00">helios::engine::game</text>
<text text-anchor="start" x="8" y="-98" font-family="Helvetica,sans-Serif" font-size="10.00">::systems::physics::GridCollision</text>
<text text-anchor="middle" x="87.5" y="-87" font-family="Helvetica,sans-Serif" font-size="10.00">DetectionSystem::solveCell</text>
</a>
</g>
</g>
<!-- Node2 -->
<g id="Node000002" class="node">
<title>Node2</title>
<g id="a_Node000002"><a xlink:href="classhelios_1_1engine_1_1game_1_1components_1_1physics_1_1AabbColliderComponent.html#addf3e0db2c2a332d7d9b27911cc81585" target="_top" xlink:title="Retrieves the bounds of the collider.">
<polygon fill="white" stroke="#666666" points="369,-245.5 228,-245.5 228,-193.5 369,-193.5 369,-245.5"/>
<text text-anchor="start" x="236" y="-233.5" font-family="Helvetica,sans-Serif" font-size="10.00">helios::engine::game</text>
<text text-anchor="start" x="236" y="-222.5" font-family="Helvetica,sans-Serif" font-size="10.00">::components::physics</text>
<text text-anchor="start" x="236" y="-211.5" font-family="Helvetica,sans-Serif" font-size="10.00">::AabbColliderComponent</text>
<text text-anchor="middle" x="298.5" y="-200.5" font-family="Helvetica,sans-Serif" font-size="10.00">::bounds</text>
</a>
</g>
</g>
<!-- Node1&#45;&gt;Node2 -->
<g id="edge1_Node000001_Node000002" class="edge">
<title>Node1&#45;&gt;Node2</title>
<g id="a_edge1_Node000001_Node000002"><a xlink:title=" ">
<path fill="none" stroke="#63b8ff" d="M115.15,-121.29C139.27,-139.48 176.24,-165.84 211,-184.5 213.85,-186.03 216.79,-187.54 219.78,-189.02"/>
<polygon fill="#63b8ff" stroke="#63b8ff" points="218.34,-192.2 228.87,-193.34 221.34,-185.88 218.34,-192.2"/>
</a>
</g>
</g>
<!-- Node3 -->
<g id="Node000003" class="node">
<title>Node3</title>
<g id="a_Node000003"><a xlink:href="classhelios_1_1engine_1_1game_1_1systems_1_1physics_1_1GridCollisionDetectionSystem.html#ac5985971bc1c1f1cfcb0e41fc5863cf8" target="_top" xlink:title="Accesses a grid cell by its 3D coordinates.">
<polygon fill="white" stroke="#666666" points="386,-175 211,-175 211,-134 386,-134 386,-175"/>
<text text-anchor="start" x="219" y="-163" font-family="Helvetica,sans-Serif" font-size="10.00">helios::engine::game</text>
<text text-anchor="start" x="219" y="-152" font-family="Helvetica,sans-Serif" font-size="10.00">::systems::physics::GridCollision</text>
<text text-anchor="middle" x="298.5" y="-141" font-family="Helvetica,sans-Serif" font-size="10.00">DetectionSystem::cell</text>
</a>
</g>
</g>
<!-- Node1&#45;&gt;Node3 -->
<g id="edge2_Node000001_Node000003" class="edge">
<title>Node1&#45;&gt;Node3</title>
<g id="a_edge2_Node000001_Node000003"><a xlink:title=" ">
<path fill="none" stroke="#63b8ff" d="M168.11,-121.07C181.16,-124.44 194.77,-127.96 208.04,-131.39"/>
<polygon fill="#63b8ff" stroke="#63b8ff" points="207.55,-134.88 218.11,-133.99 209.3,-128.1 207.55,-134.88"/>
</a>
</g>
</g>
<!-- Node5 -->
<g id="Node000005" class="node">
<title>Node5</title>
<g id="a_Node000005"><a xlink:href="classhelios_1_1engine_1_1game_1_1GameObject.html#abf3cf53d3aa0c9b62da27d7934928168" target="_top" xlink:title="Returns the unique identifier for this GameObject.">
<polygon fill="white" stroke="#666666" points="358,-115.5 239,-115.5 239,-85.5 358,-85.5 358,-115.5"/>
<text text-anchor="start" x="247" y="-103.5" font-family="Helvetica,sans-Serif" font-size="10.00">helios::engine::game</text>
<text text-anchor="middle" x="298.5" y="-92.5" font-family="Helvetica,sans-Serif" font-size="10.00">::GameObject::guid</text>
</a>
</g>
</g>
<!-- Node1&#45;&gt;Node5 -->
<g id="edge4_Node000001_Node000005" class="edge">
<title>Node1&#45;&gt;Node5</title>
<g id="a_edge4_Node000001_Node000005"><a xlink:title=" ">
<path fill="none" stroke="#63b8ff" d="M175.02,-100.5C192.78,-100.5 211.26,-100.5 228.31,-100.5"/>
<polygon fill="#63b8ff" stroke="#63b8ff" points="228.73,-104 238.73,-100.5 228.73,-97 228.73,-104"/>
</a>
</g>
</g>
<!-- Node6 -->
<g id="Node000006" class="node">
<title>Node6</title>
<g id="a_Node000006"><a xlink:href="structhelios_1_1math_1_1aabb.html#ade126b97a45a33942359c01b5f268c24" target="_top" xlink:title="Checks if this AABB intersects another AABB.">
<polygon fill="white" stroke="#666666" points="352,-67.5 245,-67.5 245,-37.5 352,-37.5 352,-67.5"/>
<text text-anchor="start" x="253" y="-55.5" font-family="Helvetica,sans-Serif" font-size="10.00">helios::math::aabb</text>
<text text-anchor="middle" x="298.5" y="-44.5" font-family="Helvetica,sans-Serif" font-size="10.00">::intersects</text>
</a>
</g>
</g>
<!-- Node1&#45;&gt;Node6 -->
<g id="edge5_Node000001_Node000006" class="edge">
<title>Node1&#45;&gt;Node6</title>
<g id="a_edge5_Node000001_Node000006"><a xlink:title=" ">
<path fill="none" stroke="#63b8ff" d="M175.02,-80.63C195.1,-76.02 216.1,-71.19 234.93,-66.87"/>
<polygon fill="#63b8ff" stroke="#63b8ff" points="235.88,-70.24 244.85,-64.59 234.32,-63.42 235.88,-70.24"/>
</a>
</g>
</g>
<!-- Node7 -->
<g id="Node000007" class="node">
<title>Node7</title>
<g id="a_Node000007"><a xlink:href="namespacehelios_1_1math.html#a83d3fdd630c2f9d9179d0263fa515571" target="_top" xlink:title="Computes the center of intersection of the overlapping region between two axis&#45;aligned bounding boxes...">
<polygon fill="white" stroke="#666666" points="374.5,-19 222.5,-19 222.5,0 374.5,0 374.5,-19"/>
<text text-anchor="middle" x="298.5" y="-7" font-family="Helvetica,sans-Serif" font-size="10.00">helios::math::overlapCenter</text>
</a>
</g>
</g>
<!-- Node1&#45;&gt;Node7 -->
<g id="edge6_Node000001_Node000007" class="edge">
<title>Node1&#45;&gt;Node7</title>
<g id="a_edge6_Node000001_Node000007"><a xlink:title=" ">
<path fill="none" stroke="#63b8ff" d="M117.36,-79.99C141.38,-63.81 177.01,-41.83 211,-28.5 217.69,-25.88 224.82,-23.58 232.01,-21.57"/>
<polygon fill="#63b8ff" stroke="#63b8ff" points="233.02,-24.92 241.81,-19.01 231.26,-18.15 233.02,-24.92"/>
</a>
</g>
</g>
<!-- Node4 -->
<g id="Node000004" class="node">
<title>Node4</title>
<g id="a_Node000004"><a xlink:href="classhelios_1_1engine_1_1game_1_1systems_1_1physics_1_1GridCollisionDetectionSystem.html#a757b591359bd905ec551bf64f72c14ad" target="_top" xlink:title="Computes the 1D index of a cell in a 3D grid based on its x, y, and z coordinates.">
<polygon fill="white" stroke="#666666" points="597,-175 422,-175 422,-134 597,-134 597,-175"/>
<text text-anchor="start" x="430" y="-163" font-family="Helvetica,sans-Serif" font-size="10.00">helios::engine::game</text>
<text text-anchor="start" x="430" y="-152" font-family="Helvetica,sans-Serif" font-size="10.00">::systems::physics::GridCollision</text>
<text text-anchor="middle" x="509.5" y="-141" font-family="Helvetica,sans-Serif" font-size="10.00">DetectionSystem::cellIndex</text>
</a>
</g>
</g>
<!-- Node3&#45;&gt;Node4 -->
<g id="edge3_Node000003_Node000004" class="edge">
<title>Node3&#45;&gt;Node4</title>
<g id="a_edge3_Node000003_Node000004"><a xlink:title=" ">
<path fill="none" stroke="#63b8ff" d="M386.02,-154.5C394.49,-154.5 403.13,-154.5 411.7,-154.5"/>
<polygon fill="#63b8ff" stroke="#63b8ff" points="411.71,-158 421.71,-154.5 411.71,-151 411.71,-158"/>
</a>
</g>
</g>
</g>
</svg>

<g id="navigator" transform="translate(0 0)" fill="#404254">
  <rect fill="#f2f5e9" fill-opacity="0.5" stroke="#606060" stroke-width=".5" x="0" y="0" width="60" height="60"/>
  <use id="zoomplus" xlink:href="#zoomPlus" x="17" y="9" onmousedown="handleZoom(evt,'in')"/>
  <use id="zoomminus" xlink:href="#zoomMin" x="42" y="9" onmousedown="handleZoom(evt,'out')"/>
  <use id="reset" xlink:href="#resetDef" x="30" y="36" onmousedown="handleReset()"/>
   <use id="arrowup" xlink:href="#arrowUp" x="0" y="0" onmousedown="handlePan(0,-1)"/>
  <use id="arrowright" xlink:href="#arrowRight" x="0" y="0" onmousedown="handlePan(1,0)"/>
  <use id="arrowdown" xlink:href="#arrowDown" x="0" y="0" onmousedown="handlePan(0,1)"/>
  <use id="arrowleft" xlink:href="#arrowLeft" x="0" y="0" onmousedown="handlePan(-1,0)"/>
</g>
<svg viewBox="0 0 15 15" width="100%" height="30px" preserveAspectRatio="xMaxYMin meet">
 <g id="arrow_out" transform="scale(0.3 0.3)">
  <a xlink:href="classhelios_1_1engine_1_1game_1_1systems_1_1physics_1_1GridCollisionDetectionSystem_aa1dad076c58ad7ae95262162bd364689_cgraph_org.svg" target="_base">
   <rect id="button" ry="5" rx="5" y="6" x="6" height="38" width="38"
        fill="#f2f5e9" fill-opacity="0.5" stroke="#606060" stroke-width="1.0"/>
   <path id="arrow"
     d="M 11.500037,31.436501 C 11.940474,20.09759 22.043105,11.32322 32.158766,21.979434 L 37.068811,17.246167 C 37.068811,17.246167 37.088388,32 37.088388,32 L 22.160133,31.978069 C 22.160133,31.978069 26.997745,27.140456 26.997745,27.140456 C 18.528582,18.264221 13.291696,25.230495 11.500037,31.436501 z"
     style="fill:#404040;"/>
  </a>
 </g>
</svg>

<style type='text/css'>
<![CDATA[
[data-mouse-over-selected='false'] { opacity: 0.7; }
[data-mouse-over-selected='true']  { opacity: 1.0; }
]]>
</style>
<script type="application/ecmascript"><![CDATA[
document.addEventListener('DOMContentLoaded', (event) => {
  highlightEdges();
  highlightAdjacentNodes();
});
]]></script>
</svg>
