<?xml version="1.0" encoding="UTF-8" standalone="no"?>
<!DOCTYPE svg PUBLIC "-//W3C//DTD SVG 1.1//EN"
 "http://www.w3.org/Graphics/SVG/1.1/DTD/svg11.dtd">
<!-- Generated by graphviz version 2.43.0 (0)
 -->
<!-- Title: helios::engine::builder::gameObject::builders::configs::RenderableConfig::color Pages: 1 -->
<svg width="372pt" height="73pt"
 viewBox="0.00 0.00 372.00 72.50" xmlns="http://www.w3.org/2000/svg" xmlns:xlink="http://www.w3.org/1999/xlink">
<g id="graph0" class="graph" transform="scale(1 1) rotate(0) translate(4 68.5)">
<title>helios::engine::builder::gameObject::builders::configs::RenderableConfig::color</title>
<!-- Node1 -->
<g id="Node000001" class="node">
<title>Node1</title>
<g id="a_Node000001"><a xlink:title="Sets the base color for the material.">
<polygon fill="#999999" stroke="#666666" points="179,-46.5 0,-46.5 0,-5.5 179,-5.5 179,-46.5"/>
<text text-anchor="start" x="8" y="-34.5" font-family="Helvetica,sans-Serif" font-size="10.00">helios::engine::builder</text>
<text text-anchor="start" x="8" y="-23.5" font-family="Helvetica,sans-Serif" font-size="10.00">::gameObject::builders</text>
<text text-anchor="middle" x="89.5" y="-12.5" font-family="Helvetica,sans-Serif" font-size="10.00">::configs::RenderableConfig::color</text>
</a>
</g>
</g>
<!-- Node1&#45;&gt;Node1 -->
<g id="edge1_Node000001_Node000001" class="edge">
<title>Node1&#45;&gt;Node1</title>
<g id="a_edge1_Node000001_Node000001"><a xlink:title=" ">
<path fill="none" stroke="#63b8ff" d="M52.74,-46.6C48.73,-56.15 60.98,-64.5 89.5,-64.5 107.32,-64.5 118.79,-61.24 123.91,-56.46"/>
<polygon fill="#63b8ff" stroke="#63b8ff" points="127.35,-57.14 126.26,-46.6 120.54,-55.51 127.35,-57.14"/>
</a>
</g>
</g>
<!-- Node2 -->
<g id="Node000002" class="node">
<title>Node2</title>
<g id="a_Node000002"><a xlink:href="classhelios_1_1engine_1_1builder_1_1gameObject_1_1builders_1_1configs_1_1RenderableConfig.html#ad11caf33ed1418d17cbd344c65fdc308" target="_top" xlink:title="Constructs a RenderableConfig for the given GameObject.">
<polygon fill="white" stroke="#666666" points="364,-52 215,-52 215,0 364,0 364,-52"/>
<text text-anchor="start" x="223" y="-40" font-family="Helvetica,sans-Serif" font-size="10.00">helios::engine::builder</text>
<text text-anchor="start" x="223" y="-29" font-family="Helvetica,sans-Serif" font-size="10.00">::gameObject::builders</text>
<text text-anchor="start" x="223" y="-18" font-family="Helvetica,sans-Serif" font-size="10.00">::configs::RenderableConfig</text>
<text text-anchor="middle" x="289.5" y="-7" font-family="Helvetica,sans-Serif" font-size="10.00">::RenderableConfig</text>
</a>
</g>
</g>
<!-- Node1&#45;&gt;Node2 -->
<g id="edge2_Node000001_Node000002" class="edge">
<title>Node1&#45;&gt;Node2</title>
<g id="a_edge2_Node000001_Node000002"><a xlink:title=" ">
<path fill="none" stroke="#63b8ff" d="M179.08,-26C187.57,-26 196.16,-26 204.61,-26"/>
<polygon fill="#63b8ff" stroke="#63b8ff" points="204.82,-29.5 214.82,-26 204.82,-22.5 204.82,-29.5"/>
</a>
</g>
</g>
</g>
</svg>
