<?xml version="1.0" encoding="UTF-8" standalone="no"?>
<!DOCTYPE svg PUBLIC "-//W3C//DTD SVG 1.1//EN"
 "http://www.w3.org/Graphics/SVG/1.1/DTD/svg11.dtd">
<!-- Generated by graphviz version 2.43.0 (0)
 -->
<!-- Title: helios::engine::runtime::pooling::GameObjectPool::guid Pages: 1 -->
<!--zoomable 226 -->

<svg id="main" version="1.1" xmlns="http://www.w3.org/2000/svg" xmlns:xlink="http://www.w3.org/1999/xlink" xml:space="preserve" onload="init(evt)">

<style type="text/css"><![CDATA[
.node, .edge {opacity: 0.7;}
.node.selected, .edge.selected {opacity: 1;}
.edge:hover path { stroke: red; }
.edge:hover polygon { stroke: red; fill: red; }
]]></style>

<defs>
  <circle id="rim" cx="0" cy="0" r="7"/>
  <circle id="rim2" cx="0" cy="0" r="3.5"/>
  <g id="zoomPlus">
    <use xlink:href="#rim" fill="#404040"><set attributeName="fill" to="#808080" begin="zoomplus.mouseover" end="zoomplus.mouseout"/></use>
    <path d="M-4,0h8M0,-4v8" fill="none" stroke="white" stroke-width="1.5" pointer-events="none"/>
  </g>
  <g id="zoomMin">
    <use xlink:href="#rim" fill="#404040"><set attributeName="fill" to="#808080" begin="zoomminus.mouseover" end="zoomminus.mouseout"/></use>
    <path d="M-4,0h8" fill="none" stroke="white" stroke-width="1.5" pointer-events="none"/>
  </g>
  <g id="arrowUp" transform="translate(30 24)">
    <use xlink:href="#rim"/>
    <path pointer-events="none" fill="none" stroke="white" stroke-width="1.5" d="M0,-3.0v7 M-2.5,-0.5L0,-3.0L2.5,-0.5"/>
  </g>
  <g id="arrowRight" transform="rotate(90) translate(36 -43)">
    <use xlink:href="#rim"/>
    <path pointer-events="none" fill="none" stroke="white" stroke-width="1.5" d="M0,-3.0v7 M-2.5,-0.5L0,-3.0L2.5,-0.5"/>
  </g>
  <g id="arrowDown" transform="rotate(180) translate(-30 -48)">
    <use xlink:href="#rim"/>
    <path pointer-events="none" fill="none" stroke="white" stroke-width="1.5" d="M0,-3.0v7 M-2.5,-0.5L0,-3.0L2.5,-0.5"/>
  </g>
  <g id="arrowLeft" transform="rotate(270) translate(-36 17)">
    <use xlink:href="#rim"/>
    <path pointer-events="none" fill="none" stroke="white" stroke-width="1.5" d="M0,-3.0v7 M-2.5,-0.5L0,-3.0L2.5,-0.5"/>
  </g>
  <g id="resetDef">
    <use xlink:href="#rim2" fill="#404040"><set attributeName="fill" to="#808080" begin="reset.mouseover" end="reset.mouseout"/></use>
  </g>
</defs>
<script type="application/ecmascript">
var viewWidth = 579;
var viewHeight = 226;
var sectionId = 'dynsection-6';
</script>
<script type="application/ecmascript" xlink:href="svg.min.js"/>
<svg id="graph" class="graph">
<g id="viewport">
<title>helios::engine::runtime::pooling::GameObjectPool::guid</title>
<!-- Node1 -->
<g id="Node000001" class="node">
<title>Node1</title>
<g id="a_Node000001"><a xlink:title="Returns the unique identifier of this pool.">
<polygon fill="#999999" stroke="#666666" points="571,-123.5 398,-123.5 398,-93.5 571,-93.5 571,-123.5"/>
<text text-anchor="start" x="406" y="-111.5" font-family="Helvetica,sans-Serif" font-size="10.00">helios::engine::runtime</text>
<text text-anchor="middle" x="484.5" y="-100.5" font-family="Helvetica,sans-Serif" font-size="10.00">::pooling::GameObjectPool::guid</text>
</a>
</g>
</g>
<!-- Node2 -->
<g id="Node000002" class="node">
<title>Node2</title>
<g id="a_Node000002"><a xlink:href="classhelios_1_1engine_1_1runtime_1_1pooling_1_1GameObjectPool.html#afb2b70dfef45864ea3bfd1e148542007" target="_top" xlink:title="Acquires an inactive GameObject from the pool.">
<polygon fill="white" stroke="#666666" points="362,-218 216,-218 216,-177 362,-177 362,-218"/>
<text text-anchor="start" x="224" y="-206" font-family="Helvetica,sans-Serif" font-size="10.00">helios::engine::runtime</text>
<text text-anchor="start" x="224" y="-195" font-family="Helvetica,sans-Serif" font-size="10.00">::pooling::GameObjectPool</text>
<text text-anchor="middle" x="289" y="-184" font-family="Helvetica,sans-Serif" font-size="10.00">::acquire</text>
</a>
</g>
</g>
<!-- Node1&#45;&gt;Node2 -->
<g id="edge1_Node000001_Node000002" class="edge">
<title>Node1&#45;&gt;Node2</title>
<g id="a_edge1_Node000001_Node000002"><a xlink:title=" ">
<path fill="none" stroke="#63b8ff" d="M445.3,-128.29C421.54,-140.37 390.25,-155.86 362,-168.5 355.73,-171.31 349.1,-174.15 342.5,-176.9"/>
<polygon fill="#63b8ff" stroke="#63b8ff" points="447.02,-131.34 454.33,-123.68 443.84,-125.11 447.02,-131.34"/>
</a>
</g>
</g>
<!-- Node4 -->
<g id="Node000004" class="node">
<title>Node4</title>
<g id="a_Node000004"><a xlink:href="classhelios_1_1engine_1_1runtime_1_1pooling_1_1GameObjectPool.html#a60e9a358d1f385eb9f058013ce441f35" target="_top" xlink:title="Adds a Guid to the inactive list without acquiring it.">
<polygon fill="white" stroke="#666666" points="362,-100 216,-100 216,-59 362,-59 362,-100"/>
<text text-anchor="start" x="224" y="-88" font-family="Helvetica,sans-Serif" font-size="10.00">helios::engine::runtime</text>
<text text-anchor="start" x="224" y="-77" font-family="Helvetica,sans-Serif" font-size="10.00">::pooling::GameObjectPool</text>
<text text-anchor="middle" x="289" y="-66" font-family="Helvetica,sans-Serif" font-size="10.00">::addInactive</text>
</a>
</g>
</g>
<!-- Node1&#45;&gt;Node4 -->
<g id="edge3_Node000001_Node000004" class="edge">
<title>Node1&#45;&gt;Node4</title>
<g id="a_edge3_Node000001_Node000004"><a xlink:title=" ">
<path fill="none" stroke="#63b8ff" d="M387.68,-94.14C379.06,-92.85 370.42,-91.55 362.06,-90.3"/>
<polygon fill="#63b8ff" stroke="#63b8ff" points="387.37,-97.63 397.78,-95.65 388.41,-90.71 387.37,-97.63"/>
</a>
</g>
</g>
<!-- Node6 -->
<g id="Node000006" class="node">
<title>Node6</title>
<g id="a_Node000006"><a xlink:href="classhelios_1_1engine_1_1runtime_1_1pooling_1_1GameObjectPool.html#aaba699ebdbc101329c7324addd9afe38" target="_top" xlink:title="Releases a GameObject back to the pool by its Guid.">
<polygon fill="white" stroke="#666666" points="362,-41 216,-41 216,0 362,0 362,-41"/>
<text text-anchor="start" x="224" y="-29" font-family="Helvetica,sans-Serif" font-size="10.00">helios::engine::runtime</text>
<text text-anchor="start" x="224" y="-18" font-family="Helvetica,sans-Serif" font-size="10.00">::pooling::GameObjectPool</text>
<text text-anchor="middle" x="289" y="-7" font-family="Helvetica,sans-Serif" font-size="10.00">::release</text>
</a>
</g>
</g>
<!-- Node1&#45;&gt;Node6 -->
<g id="edge5_Node000001_Node000006" class="edge">
<title>Node1&#45;&gt;Node6</title>
<g id="a_edge5_Node000001_Node000006"><a xlink:title=" ">
<path fill="none" stroke="#63b8ff" d="M443.97,-89.01C420.32,-77.5 389.6,-62.83 362,-50.5 355.08,-47.41 347.74,-44.23 340.49,-41.16"/>
<polygon fill="#63b8ff" stroke="#63b8ff" points="442.47,-92.17 452.99,-93.41 445.54,-85.88 442.47,-92.17"/>
</a>
</g>
</g>
<!-- Node8 -->
<g id="Node000008" class="node">
<title>Node8</title>
<g id="a_Node000008"><a xlink:href="classhelios_1_1engine_1_1runtime_1_1pooling_1_1GameObjectPool.html#a5fc0afe6ecd0e0d923fd294496f1115e" target="_top" xlink:title="Releases and permanently removes a GameObject from the pool.">
<polygon fill="white" stroke="#666666" points="362,-159 216,-159 216,-118 362,-118 362,-159"/>
<text text-anchor="start" x="224" y="-147" font-family="Helvetica,sans-Serif" font-size="10.00">helios::engine::runtime</text>
<text text-anchor="start" x="224" y="-136" font-family="Helvetica,sans-Serif" font-size="10.00">::pooling::GameObjectPool</text>
<text text-anchor="middle" x="289" y="-125" font-family="Helvetica,sans-Serif" font-size="10.00">::releaseAndRemove</text>
</a>
</g>
</g>
<!-- Node1&#45;&gt;Node8 -->
<g id="edge7_Node000001_Node000008" class="edge">
<title>Node1&#45;&gt;Node8</title>
<g id="a_edge7_Node000001_Node000008"><a xlink:title=" ">
<path fill="none" stroke="#63b8ff" d="M387.68,-123.36C379.06,-124.69 370.42,-126.03 362.06,-127.33"/>
<polygon fill="#63b8ff" stroke="#63b8ff" points="388.44,-126.78 397.78,-121.79 387.36,-119.86 388.44,-126.78"/>
</a>
</g>
</g>
<!-- Node3 -->
<g id="Node000003" class="node">
<title>Node3</title>
<g id="a_Node000003"><a xlink:href="classhelios_1_1engine_1_1runtime_1_1pooling_1_1GameObjectPoolFacade.html#a395eedea23ef36ef472e143aae66a9ab" target="_top" xlink:title="Acquires an available GameObject from the pool.">
<polygon fill="white" stroke="#666666" points="180,-188 0,-188 0,-147 180,-147 180,-188"/>
<text text-anchor="start" x="8" y="-176" font-family="Helvetica,sans-Serif" font-size="10.00">helios::engine::runtime</text>
<text text-anchor="start" x="8" y="-165" font-family="Helvetica,sans-Serif" font-size="10.00">::pooling::GameObjectPoolFacade</text>
<text text-anchor="middle" x="90" y="-154" font-family="Helvetica,sans-Serif" font-size="10.00">::acquire</text>
</a>
</g>
</g>
<!-- Node2&#45;&gt;Node3 -->
<g id="edge2_Node000002_Node000003" class="edge">
<title>Node2&#45;&gt;Node3</title>
<g id="a_edge2_Node000002_Node000003"><a xlink:title=" ">
<path fill="none" stroke="#63b8ff" d="M205.65,-184.96C197.28,-183.69 188.75,-182.39 180.32,-181.1"/>
<polygon fill="#63b8ff" stroke="#63b8ff" points="205.35,-188.45 215.76,-186.5 206.4,-181.53 205.35,-188.45"/>
</a>
</g>
</g>
<!-- Node5 -->
<g id="Node000005" class="node">
<title>Node5</title>
<g id="a_Node000005"><a xlink:href="classhelios_1_1engine_1_1runtime_1_1factory_1_1GameObjectFactory.html#ad334258a72af933b4b834b9592b4f7d3" target="_top" xlink:title="Fills a GameObjectPool with cloned instances of the prefab.">
<polygon fill="white" stroke="#666666" points="169,-100 11,-100 11,-59 169,-59 169,-100"/>
<text text-anchor="start" x="19" y="-88" font-family="Helvetica,sans-Serif" font-size="10.00">helios::engine::runtime</text>
<text text-anchor="start" x="19" y="-77" font-family="Helvetica,sans-Serif" font-size="10.00">::factory::GameObjectFactory</text>
<text text-anchor="middle" x="90" y="-66" font-family="Helvetica,sans-Serif" font-size="10.00">::fillPool</text>
</a>
</g>
</g>
<!-- Node4&#45;&gt;Node5 -->
<g id="edge4_Node000004_Node000005" class="edge">
<title>Node4&#45;&gt;Node5</title>
<g id="a_edge4_Node000004_Node000005"><a xlink:title=" ">
<path fill="none" stroke="#63b8ff" d="M205.71,-79.5C193.62,-79.5 181.2,-79.5 169.2,-79.5"/>
<polygon fill="#63b8ff" stroke="#63b8ff" points="205.76,-83 215.76,-79.5 205.76,-76 205.76,-83"/>
</a>
</g>
</g>
<!-- Node7 -->
<g id="Node000007" class="node">
<title>Node7</title>
<g id="a_Node000007"><a xlink:href="classhelios_1_1engine_1_1runtime_1_1pooling_1_1GameObjectPoolFacade.html#ad6867efdaa4e047d365869e4e367b5c1" target="_top" xlink:title="Releases a GameObject back to the pool and deactivates it.">
<polygon fill="white" stroke="#666666" points="180,-41 0,-41 0,0 180,0 180,-41"/>
<text text-anchor="start" x="8" y="-29" font-family="Helvetica,sans-Serif" font-size="10.00">helios::engine::runtime</text>
<text text-anchor="start" x="8" y="-18" font-family="Helvetica,sans-Serif" font-size="10.00">::pooling::GameObjectPoolFacade</text>
<text text-anchor="middle" x="90" y="-7" font-family="Helvetica,sans-Serif" font-size="10.00">::release</text>
</a>
</g>
</g>
<!-- Node6&#45;&gt;Node7 -->
<g id="edge6_Node000006_Node000007" class="edge">
<title>Node6&#45;&gt;Node7</title>
<g id="a_edge6_Node000006_Node000007"><a xlink:title=" ">
<path fill="none" stroke="#63b8ff" d="M205.65,-20.5C197.28,-20.5 188.75,-20.5 180.32,-20.5"/>
<polygon fill="#63b8ff" stroke="#63b8ff" points="205.76,-24 215.76,-20.5 205.76,-17 205.76,-24"/>
</a>
</g>
</g>
<!-- Node8&#45;&gt;Node3 -->
<g id="edge8_Node000008_Node000003" class="edge">
<title>Node8&#45;&gt;Node3</title>
<g id="a_edge8_Node000008_Node000003"><a xlink:title=" ">
<path fill="none" stroke="#63b8ff" d="M205.65,-150.62C197.28,-151.85 188.75,-153.11 180.32,-154.35"/>
<polygon fill="#63b8ff" stroke="#63b8ff" points="206.38,-154.05 215.76,-149.13 205.36,-147.13 206.38,-154.05"/>
</a>
</g>
</g>
</g>
</svg>

<g id="navigator" transform="translate(0 0)" fill="#404254">
  <rect fill="#f2f5e9" fill-opacity="0.5" stroke="#606060" stroke-width=".5" x="0" y="0" width="60" height="60"/>
  <use id="zoomplus" xlink:href="#zoomPlus" x="17" y="9" onmousedown="handleZoom(evt,'in')"/>
  <use id="zoomminus" xlink:href="#zoomMin" x="42" y="9" onmousedown="handleZoom(evt,'out')"/>
  <use id="reset" xlink:href="#resetDef" x="30" y="36" onmousedown="handleReset()"/>
   <use id="arrowup" xlink:href="#arrowUp" x="0" y="0" onmousedown="handlePan(0,-1)"/>
  <use id="arrowright" xlink:href="#arrowRight" x="0" y="0" onmousedown="handlePan(1,0)"/>
  <use id="arrowdown" xlink:href="#arrowDown" x="0" y="0" onmousedown="handlePan(0,1)"/>
  <use id="arrowleft" xlink:href="#arrowLeft" x="0" y="0" onmousedown="handlePan(-1,0)"/>
</g>
<svg viewBox="0 0 15 15" width="100%" height="30px" preserveAspectRatio="xMaxYMin meet">
 <g id="arrow_out" transform="scale(0.3 0.3)">
  <a xlink:href="classhelios_1_1engine_1_1runtime_1_1pooling_1_1GameObjectPool_a2589e780d738d2a5f2c6d2a47a19abc7_icgraph_org.svg" target="_base">
   <rect id="button" ry="5" rx="5" y="6" x="6" height="38" width="38"
        fill="#f2f5e9" fill-opacity="0.5" stroke="#606060" stroke-width="1.0"/>
   <path id="arrow"
     d="M 11.500037,31.436501 C 11.940474,20.09759 22.043105,11.32322 32.158766,21.979434 L 37.068811,17.246167 C 37.068811,17.246167 37.088388,32 37.088388,32 L 22.160133,31.978069 C 22.160133,31.978069 26.997745,27.140456 26.997745,27.140456 C 18.528582,18.264221 13.291696,25.230495 11.500037,31.436501 z"
     style="fill:#404040;"/>
  </a>
 </g>
</svg>

<style type='text/css'>
<![CDATA[
[data-mouse-over-selected='false'] { opacity: 0.7; }
[data-mouse-over-selected='true']  { opacity: 1.0; }
]]>
</style>
<script type="application/ecmascript"><![CDATA[
document.addEventListener('DOMContentLoaded', (event) => {
  highlightEdges();
  highlightAdjacentNodes();
});
]]></script>
</svg>
