<?xml version="1.0" encoding="UTF-8" standalone="no"?>
<!DOCTYPE svg PUBLIC "-//W3C//DTD SVG 1.1//EN"
 "http://www.w3.org/Graphics/SVG/1.1/DTD/svg11.dtd">
<!-- Generated by graphviz version 2.43.0 (0)
 -->
<!-- Title: helios::input::gamepad::GamepadState::buttonRightBumper Pages: 1 -->
<svg width="609pt" height="59pt"
 viewBox="0.00 0.00 609.00 59.00" xmlns="http://www.w3.org/2000/svg" xmlns:xlink="http://www.w3.org/1999/xlink">
<g id="graph0" class="graph" transform="scale(1 1) rotate(0) translate(4 55)">
<title>helios::input::gamepad::GamepadState::buttonRightBumper</title>
<!-- Node1 -->
<g id="Node000001" class="node">
<title>Node1</title>
<g id="a_Node000001"><a xlink:title="Returns true when the right bumper is pressed.">
<polygon fill="#999999" stroke="#666666" points="601,-51 404,-51 404,-21 601,-21 601,-51"/>
<text text-anchor="start" x="412" y="-39" font-family="Helvetica,sans-Serif" font-size="10.00">helios::input::gamepad</text>
<text text-anchor="middle" x="502.5" y="-28" font-family="Helvetica,sans-Serif" font-size="10.00">::GamepadState::buttonRightBumper</text>
</a>
</g>
</g>
<!-- Node2 -->
<g id="Node000002" class="node">
<title>Node2</title>
<g id="a_Node000002"><a xlink:href="classhelios_1_1input_1_1gamepad_1_1GamepadState.html#a5d43064d7d1137357e7d546cf21bc222" target="_top" xlink:title="Creates a new GamepadState object.">
<polygon fill="white" stroke="#666666" points="174,-51 0,-51 0,-21 174,-21 174,-51"/>
<text text-anchor="start" x="8" y="-39" font-family="Helvetica,sans-Serif" font-size="10.00">helios::input::gamepad</text>
<text text-anchor="middle" x="87" y="-28" font-family="Helvetica,sans-Serif" font-size="10.00">::GamepadState::GamepadState</text>
</a>
</g>
</g>
<!-- Node1&#45;&gt;Node2 -->
<g id="edge1_Node000001_Node000002" class="edge">
<title>Node1&#45;&gt;Node2</title>
<g id="a_edge1_Node000001_Node000002"><a xlink:title=" ">
<path fill="none" stroke="#63b8ff" d="M393.62,-38.63C384.95,-38.78 376.33,-38.91 368,-39 297.78,-39.79 280.22,-39.86 210,-39 198.45,-38.86 186.29,-38.64 174.31,-38.39"/>
<polygon fill="#63b8ff" stroke="#63b8ff" points="393.87,-42.13 403.8,-38.45 393.74,-35.13 393.87,-42.13"/>
</a>
</g>
</g>
<!-- Node3 -->
<g id="Node000003" class="node">
<title>Node3</title>
<g id="a_Node000003"><a xlink:href="classhelios_1_1input_1_1gamepad_1_1GamepadState.html#a7d7e7b45d8f7a735ab51f5481b438825" target="_top" xlink:title="Updates the axes and button states of this GamepadState object.">
<polygon fill="white" stroke="#666666" points="368,-30 210,-30 210,0 368,0 368,-30"/>
<text text-anchor="start" x="218" y="-18" font-family="Helvetica,sans-Serif" font-size="10.00">helios::input::gamepad</text>
<text text-anchor="middle" x="289" y="-7" font-family="Helvetica,sans-Serif" font-size="10.00">::GamepadState::updateAxes</text>
</a>
</g>
</g>
<!-- Node1&#45;&gt;Node3 -->
<g id="edge2_Node000001_Node000003" class="edge">
<title>Node1&#45;&gt;Node3</title>
<g id="a_edge2_Node000001_Node000003"><a xlink:title=" ">
<path fill="none" stroke="#63b8ff" d="M393.73,-25.3C385.16,-24.45 376.6,-23.6 368.28,-22.77"/>
<polygon fill="#63b8ff" stroke="#63b8ff" points="393.5,-28.79 403.8,-26.3 394.19,-21.83 393.5,-28.79"/>
</a>
</g>
</g>
<!-- Node3&#45;&gt;Node2 -->
<g id="edge3_Node000003_Node000002" class="edge">
<title>Node3&#45;&gt;Node2</title>
<g id="a_edge3_Node000003_Node000002"><a xlink:title=" ">
<path fill="none" stroke="#63b8ff" d="M199.84,-24.26C191.28,-25.16 182.61,-26.07 174.07,-26.96"/>
<polygon fill="#63b8ff" stroke="#63b8ff" points="200.24,-27.73 209.82,-23.21 199.5,-20.77 200.24,-27.73"/>
</a>
</g>
</g>
</g>
</svg>
