<?xml version="1.0" encoding="UTF-8" standalone="no"?>
<!DOCTYPE svg PUBLIC "-//W3C//DTD SVG 1.1//EN"
 "http://www.w3.org/Graphics/SVG/1.1/DTD/svg11.dtd">
<!-- Generated by graphviz version 2.43.0 (0)
 -->
<!-- Title: helios::engine::mechanics::damage::components::DamageDealerComponent::damage Pages: 1 -->
<svg width="460pt" height="67pt"
 viewBox="0.00 0.00 460.00 67.00" xmlns="http://www.w3.org/2000/svg" xmlns:xlink="http://www.w3.org/1999/xlink">
<g id="graph0" class="graph" transform="scale(1 1) rotate(0) translate(4 63)">
<title>helios::engine::mechanics::damage::components::DamageDealerComponent::damage</title>
<!-- Node1 -->
<g id="Node000001" class="node">
<title>Node1</title>
<g id="a_Node000001"><a xlink:title="Returns the damage dealt to entities on a specific layer.">
<polygon fill="#999999" stroke="#666666" points="452,-41 244,-41 244,0 452,0 452,-41"/>
<text text-anchor="start" x="252" y="-29" font-family="Helvetica,sans-Serif" font-size="10.00">helios::engine::mechanics</text>
<text text-anchor="start" x="252" y="-18" font-family="Helvetica,sans-Serif" font-size="10.00">::damage::components::DamageDealer</text>
<text text-anchor="middle" x="348" y="-7" font-family="Helvetica,sans-Serif" font-size="10.00">Component::damage</text>
</a>
</g>
</g>
<!-- Node2 -->
<g id="Node000002" class="node">
<title>Node2</title>
<g id="a_Node000002"><a xlink:href="classhelios_1_1engine_1_1mechanics_1_1damage_1_1components_1_1DamageDealerComponent.html#a80ed725da8bf647e468bdd8778f5a9a2" target="_top" xlink:title="Sets the damage dealt to entities on a specific layer.">
<polygon fill="white" stroke="#666666" points="208,-41 0,-41 0,0 208,0 208,-41"/>
<text text-anchor="start" x="8" y="-29" font-family="Helvetica,sans-Serif" font-size="10.00">helios::engine::mechanics</text>
<text text-anchor="start" x="8" y="-18" font-family="Helvetica,sans-Serif" font-size="10.00">::damage::components::DamageDealer</text>
<text text-anchor="middle" x="104" y="-7" font-family="Helvetica,sans-Serif" font-size="10.00">Component::setDamage</text>
</a>
</g>
</g>
<!-- Node1&#45;&gt;Node2 -->
<g id="edge1_Node000001_Node000002" class="edge">
<title>Node1&#45;&gt;Node2</title>
<g id="a_edge1_Node000001_Node000002"><a xlink:title=" ">
<path fill="none" stroke="#63b8ff" d="M233.48,-20.5C225.11,-20.5 216.68,-20.5 208.37,-20.5"/>
<polygon fill="#63b8ff" stroke="#63b8ff" points="233.67,-24 243.67,-20.5 233.67,-17 233.67,-24"/>
</a>
</g>
</g>
<!-- Node2&#45;&gt;Node2 -->
<g id="edge2_Node000002_Node000002" class="edge">
<title>Node2&#45;&gt;Node2</title>
<g id="a_edge2_Node000002_Node000002"><a xlink:title=" ">
<path fill="none" stroke="#63b8ff" d="M145.98,-50.96C139.74,-55.74 125.74,-59 104,-59 69.21,-59 54.26,-50.65 59.15,-41.1"/>
<polygon fill="#63b8ff" stroke="#63b8ff" points="149.42,-51.68 148.85,-41.1 142.69,-49.72 149.42,-51.68"/>
</a>
</g>
</g>
</g>
</svg>
