<?xml version="1.0" encoding="UTF-8" standalone="no"?>
<!DOCTYPE svg PUBLIC "-//W3C//DTD SVG 1.1//EN"
 "http://www.w3.org/Graphics/SVG/1.1/DTD/svg11.dtd">
<!-- Generated by graphviz version 2.43.0 (0)
 -->
<!-- Title: helios::rendering::LegacyRenderPass::LegacyRenderPass Pages: 1 -->
<svg width="452pt" height="212pt"
 viewBox="0.00 0.00 452.00 211.50" xmlns="http://www.w3.org/2000/svg" xmlns:xlink="http://www.w3.org/1999/xlink">
<g id="graph0" class="graph" transform="scale(1 1) rotate(0) translate(4 207.5)">
<title>helios::rendering::LegacyRenderPass::LegacyRenderPass</title>
<!-- Node1 -->
<g id="Node000001" class="node">
<title>Node1</title>
<g id="a_Node000001"><a xlink:title="Creates a new `LegacyRenderPass` with the specified viewport, render queue, and frame uniforms.">
<polygon fill="#999999" stroke="#666666" points="204,-102 0,-102 0,-72 204,-72 204,-102"/>
<text text-anchor="start" x="8" y="-90" font-family="Helvetica,sans-Serif" font-size="10.00">helios::rendering::</text>
<text text-anchor="middle" x="102" y="-79" font-family="Helvetica,sans-Serif" font-size="10.00">LegacyRenderPass::LegacyRenderPass</text>
</a>
</g>
</g>
<!-- Node2 -->
<g id="Node000002" class="node">
<title>Node2</title>
<g id="a_Node000002"><a xlink:href="classhelios_1_1rendering_1_1LegacyRenderPass.html#aece3d26744fd5ca4663a9c6a8e58bcda" target="_top" xlink:title="Returns a const reference to this `LegacyRenderPass`&#39; `UniformValueMap`.">
<polygon fill="white" stroke="#666666" points="433,-203.5 251,-203.5 251,-162.5 433,-162.5 433,-203.5"/>
<text text-anchor="start" x="259" y="-191.5" font-family="Helvetica,sans-Serif" font-size="10.00">helios::rendering::</text>
<text text-anchor="start" x="259" y="-180.5" font-family="Helvetica,sans-Serif" font-size="10.00">LegacyRenderPass::frameUniform</text>
<text text-anchor="middle" x="342" y="-169.5" font-family="Helvetica,sans-Serif" font-size="10.00">Values</text>
</a>
</g>
</g>
<!-- Node1&#45;&gt;Node2 -->
<g id="edge1_Node000001_Node000002" class="edge">
<title>Node1&#45;&gt;Node2</title>
<g id="a_edge1_Node000001_Node000002"><a xlink:title=" ">
<path fill="none" stroke="#63b8ff" d="M131.01,-102.14C158.3,-116.48 201.22,-138.01 240,-153 245.52,-155.13 251.26,-157.21 257.07,-159.2"/>
<polygon fill="#63b8ff" stroke="#63b8ff" points="256.3,-162.64 266.9,-162.48 258.52,-155.99 256.3,-162.64"/>
</a>
</g>
</g>
<!-- Node3 -->
<g id="Node000003" class="node">
<title>Node3</title>
<g id="a_Node000003"><a xlink:href="classhelios_1_1rendering_1_1LegacyRenderPass.html#a0bca4fef5ebdfdf937cb32e6f6f18c36" target="_top" xlink:title="Prevent copying. A LegacyRenderPass is not intended to be copied.">
<polygon fill="white" stroke="#666666" points="444,-126 240,-126 240,-96 444,-96 444,-126"/>
<text text-anchor="start" x="248" y="-114" font-family="Helvetica,sans-Serif" font-size="10.00">helios::rendering::</text>
<text text-anchor="middle" x="342" y="-103" font-family="Helvetica,sans-Serif" font-size="10.00">LegacyRenderPass::LegacyRenderPass</text>
</a>
</g>
</g>
<!-- Node1&#45;&gt;Node3 -->
<g id="edge2_Node000001_Node000003" class="edge">
<title>Node1&#45;&gt;Node3</title>
<g id="a_edge2_Node000001_Node000003"><a xlink:title=" ">
<path fill="none" stroke="#63b8ff" d="M204.28,-97.21C212.74,-98.07 221.31,-98.93 229.84,-99.79"/>
<polygon fill="#63b8ff" stroke="#63b8ff" points="229.51,-103.28 239.81,-100.8 230.21,-96.31 229.51,-103.28"/>
</a>
</g>
</g>
<!-- Node4 -->
<g id="Node000004" class="node">
<title>Node4</title>
<g id="a_Node000004"><a xlink:href="classhelios_1_1rendering_1_1LegacyRenderPass.html#a010e32541b4c29e1ef684eb5bccce45f" target="_top" xlink:title="Returns a const ref to the `RenderQueue` this `LegacyRenderPass` holds.">
<polygon fill="white" stroke="#666666" points="430,-78 254,-78 254,-48 430,-48 430,-78"/>
<text text-anchor="start" x="262" y="-66" font-family="Helvetica,sans-Serif" font-size="10.00">helios::rendering::</text>
<text text-anchor="middle" x="342" y="-55" font-family="Helvetica,sans-Serif" font-size="10.00">LegacyRenderPass::renderQueue</text>
</a>
</g>
</g>
<!-- Node1&#45;&gt;Node4 -->
<g id="edge4_Node000001_Node000004" class="edge">
<title>Node1&#45;&gt;Node4</title>
<g id="a_edge4_Node000001_Node000004"><a xlink:title=" ">
<path fill="none" stroke="#63b8ff" d="M204.28,-76.79C217.26,-75.48 230.52,-74.14 243.44,-72.84"/>
<polygon fill="#63b8ff" stroke="#63b8ff" points="244.11,-76.29 253.71,-71.8 243.41,-69.32 244.11,-76.29"/>
</a>
</g>
</g>
<!-- Node5 -->
<g id="Node000005" class="node">
<title>Node5</title>
<g id="a_Node000005"><a xlink:href="classhelios_1_1rendering_1_1LegacyRenderPass.html#a8ec5f6da52185b13e87a907ef0d0f0c9" target="_top" xlink:title="Returns a const ref to the `Viewport` this `LegacyRenderPass` holds.">
<polygon fill="white" stroke="#666666" points="420,-30 264,-30 264,0 420,0 420,-30"/>
<text text-anchor="start" x="272" y="-18" font-family="Helvetica,sans-Serif" font-size="10.00">helios::rendering::</text>
<text text-anchor="middle" x="342" y="-7" font-family="Helvetica,sans-Serif" font-size="10.00">LegacyRenderPass::viewport</text>
</a>
</g>
</g>
<!-- Node1&#45;&gt;Node5 -->
<g id="edge5_Node000001_Node000005" class="edge">
<title>Node1&#45;&gt;Node5</title>
<g id="a_edge5_Node000001_Node000005"><a xlink:title=" ">
<path fill="none" stroke="#63b8ff" d="M142.51,-71.93C169.69,-61.87 206.75,-48.75 240,-39 247.62,-36.77 255.62,-34.59 263.62,-32.52"/>
<polygon fill="#63b8ff" stroke="#63b8ff" points="264.54,-35.89 273.38,-30.04 262.82,-29.11 264.54,-35.89"/>
</a>
</g>
</g>
<!-- Node3&#45;&gt;Node3 -->
<g id="edge3_Node000003_Node000003" class="edge">
<title>Node3&#45;&gt;Node3</title>
<g id="a_edge3_Node000003_Node000003"><a xlink:title=" ">
<path fill="none" stroke="#63b8ff" d="M300.16,-126.28C290.87,-135.41 304.81,-144 342,-144 364.08,-144 377.97,-140.97 383.66,-136.6"/>
<polygon fill="#63b8ff" stroke="#63b8ff" points="387.16,-136.33 383.84,-126.28 380.16,-136.21 387.16,-136.33"/>
</a>
</g>
</g>
</g>
</svg>
