<?xml version="1.0" encoding="UTF-8" standalone="no"?>
<!DOCTYPE svg PUBLIC "-//W3C//DTD SVG 1.1//EN"
 "http://www.w3.org/Graphics/SVG/1.1/DTD/svg11.dtd">
<!-- Generated by graphviz version 2.43.0 (0)
 -->
<!-- Title: helios::engine::runtime::world::Manager::Manager Pages: 1 -->
<svg width="345pt" height="182pt"
 viewBox="0.00 0.00 345.00 182.00" xmlns="http://www.w3.org/2000/svg" xmlns:xlink="http://www.w3.org/1999/xlink">
<g id="graph0" class="graph" transform="scale(1 1) rotate(0) translate(4 178)">
<title>helios::engine::runtime::world::Manager::Manager</title>
<!-- Node1 -->
<g id="Node000001" class="node">
<title>Node1</title>
<g id="a_Node000001"><a xlink:title="Default constructor creating an empty Manager.">
<polygon fill="#999999" stroke="#666666" points="337,-102 190,-102 190,-72 337,-72 337,-102"/>
<text text-anchor="start" x="198" y="-90" font-family="Helvetica,sans-Serif" font-size="10.00">helios::engine::runtime</text>
<text text-anchor="middle" x="263.5" y="-79" font-family="Helvetica,sans-Serif" font-size="10.00">::world::Manager::Manager</text>
</a>
</g>
</g>
<!-- Node2 -->
<g id="Node000002" class="node">
<title>Node2</title>
<g id="a_Node000002"><a xlink:href="classhelios_1_1engine_1_1runtime_1_1world_1_1Manager.html#ac0e22675fdee078efdbc5b35e314617e" target="_top" xlink:title=" ">
<polygon fill="white" stroke="#666666" points="150.5,-174 3.5,-174 3.5,-144 150.5,-144 150.5,-174"/>
<text text-anchor="start" x="11.5" y="-162" font-family="Helvetica,sans-Serif" font-size="10.00">helios::engine::runtime</text>
<text text-anchor="middle" x="77" y="-151" font-family="Helvetica,sans-Serif" font-size="10.00">::world::Manager::Manager</text>
</a>
</g>
</g>
<!-- Node1&#45;&gt;Node2 -->
<g id="edge1_Node000001_Node000002" class="edge">
<title>Node1&#45;&gt;Node2</title>
<g id="a_edge1_Node000001_Node000002"><a xlink:title=" ">
<path fill="none" stroke="#63b8ff" d="M221.87,-106.26C201.68,-115.49 176.79,-126.39 154,-135 145.85,-138.08 137.1,-141.1 128.55,-143.9"/>
<polygon fill="#63b8ff" stroke="#63b8ff" points="223.46,-109.37 231.07,-102.01 220.53,-103.02 223.46,-109.37"/>
</a>
</g>
</g>
<!-- Node3 -->
<g id="Node000003" class="node">
<title>Node3</title>
<g id="a_Node000003"><a xlink:href="classhelios_1_1engine_1_1runtime_1_1world_1_1Manager.html#a5ce9334ff16b32ef991f606eeb07d39c" target="_top" xlink:title=" ">
<polygon fill="white" stroke="#666666" points="150.5,-126 3.5,-126 3.5,-96 150.5,-96 150.5,-126"/>
<text text-anchor="start" x="11.5" y="-114" font-family="Helvetica,sans-Serif" font-size="10.00">helios::engine::runtime</text>
<text text-anchor="middle" x="77" y="-103" font-family="Helvetica,sans-Serif" font-size="10.00">::world::Manager::Manager</text>
</a>
</g>
</g>
<!-- Node1&#45;&gt;Node3 -->
<g id="edge2_Node000001_Node000003" class="edge">
<title>Node1&#45;&gt;Node3</title>
<g id="a_edge2_Node000001_Node000003"><a xlink:title=" ">
<path fill="none" stroke="#63b8ff" d="M179.77,-97.76C170.04,-99.03 160.17,-100.31 150.59,-101.56"/>
<polygon fill="#63b8ff" stroke="#63b8ff" points="180.38,-101.21 189.85,-96.45 179.48,-94.27 180.38,-101.21"/>
</a>
</g>
</g>
<!-- Node4 -->
<g id="Node000004" class="node">
<title>Node4</title>
<g id="a_Node000004"><a xlink:href="classhelios_1_1engine_1_1runtime_1_1world_1_1Manager.html#a78a88a5fab8dfd1151cfcc7a8db2251e" target="_top" xlink:title=" ">
<polygon fill="white" stroke="#666666" points="154,-78 0,-78 0,-48 154,-48 154,-78"/>
<text text-anchor="start" x="8" y="-66" font-family="Helvetica,sans-Serif" font-size="10.00">helios::engine::runtime</text>
<text text-anchor="middle" x="77" y="-55" font-family="Helvetica,sans-Serif" font-size="10.00">::world::Manager::operator=</text>
</a>
</g>
</g>
<!-- Node1&#45;&gt;Node4 -->
<g id="edge3_Node000001_Node000004" class="edge">
<title>Node1&#45;&gt;Node4</title>
<g id="a_edge3_Node000001_Node000004"><a xlink:title=" ">
<path fill="none" stroke="#63b8ff" d="M179.89,-76.25C171.35,-75.14 162.7,-74.02 154.23,-72.92"/>
<polygon fill="#63b8ff" stroke="#63b8ff" points="179.48,-79.73 189.85,-77.55 180.38,-72.79 179.48,-79.73"/>
</a>
</g>
</g>
<!-- Node5 -->
<g id="Node000005" class="node">
<title>Node5</title>
<g id="a_Node000005"><a xlink:href="classhelios_1_1engine_1_1runtime_1_1world_1_1Manager.html#ad2741764d9418afcc573517700d36cbb" target="_top" xlink:title=" ">
<polygon fill="white" stroke="#666666" points="154,-30 0,-30 0,0 154,0 154,-30"/>
<text text-anchor="start" x="8" y="-18" font-family="Helvetica,sans-Serif" font-size="10.00">helios::engine::runtime</text>
<text text-anchor="middle" x="77" y="-7" font-family="Helvetica,sans-Serif" font-size="10.00">::world::Manager::operator=</text>
</a>
</g>
</g>
<!-- Node1&#45;&gt;Node5 -->
<g id="edge4_Node000001_Node000005" class="edge">
<title>Node1&#45;&gt;Node5</title>
<g id="a_edge4_Node000001_Node000005"><a xlink:title=" ">
<path fill="none" stroke="#63b8ff" d="M221.87,-67.74C201.68,-58.51 176.79,-47.61 154,-39 145.85,-35.92 137.1,-32.9 128.55,-30.1"/>
<polygon fill="#63b8ff" stroke="#63b8ff" points="220.53,-70.98 231.07,-71.99 223.46,-64.63 220.53,-70.98"/>
</a>
</g>
</g>
</g>
</svg>
