<?xml version="1.0" encoding="UTF-8" standalone="no"?>
<!DOCTYPE svg PUBLIC "-//W3C//DTD SVG 1.1//EN"
 "http://www.w3.org/Graphics/SVG/1.1/DTD/svg11.dtd">
<!-- Generated by graphviz version 2.43.0 (0)
 -->
<!-- Title: helios::engine::builder::gameObject::builders::configs::TransformConfig::rotate Pages: 1 -->
<svg width="393pt" height="148pt"
 viewBox="0.00 0.00 393.00 148.00" xmlns="http://www.w3.org/2000/svg" xmlns:xlink="http://www.w3.org/1999/xlink">
<g id="graph0" class="graph" transform="scale(1 1) rotate(0) translate(4 144)">
<title>helios::engine::builder::gameObject::builders::configs::TransformConfig::rotate</title>
<!-- Node1 -->
<g id="Node000001" class="node">
<title>Node1</title>
<g id="a_Node000001"><a xlink:title="Sets the initial heading rotation of the entity.">
<polygon fill="#999999" stroke="#666666" points="143,-87 0,-87 0,-35 143,-35 143,-87"/>
<text text-anchor="start" x="8" y="-75" font-family="Helvetica,sans-Serif" font-size="10.00">helios::engine::builder</text>
<text text-anchor="start" x="8" y="-64" font-family="Helvetica,sans-Serif" font-size="10.00">::gameObject::builders</text>
<text text-anchor="start" x="8" y="-53" font-family="Helvetica,sans-Serif" font-size="10.00">::configs::TransformConfig</text>
<text text-anchor="middle" x="71.5" y="-42" font-family="Helvetica,sans-Serif" font-size="10.00">::rotate</text>
</a>
</g>
</g>
<!-- Node2 -->
<g id="Node000002" class="node">
<title>Node2</title>
<g id="a_Node000002"><a xlink:href="classhelios_1_1engine_1_1modules_1_1spatial_1_1transform_1_1components_1_1RotationStateComponent.html#a33c6574b155bf4eac28fa6e6417ba2a7" target="_top" xlink:title="Sets the heading rotation angle.">
<polygon fill="white" stroke="#666666" points="385,-122 179,-122 179,-70 385,-70 385,-122"/>
<text text-anchor="start" x="187" y="-110" font-family="Helvetica,sans-Serif" font-size="10.00">helios::engine::modules</text>
<text text-anchor="start" x="187" y="-99" font-family="Helvetica,sans-Serif" font-size="10.00">::spatial::transform::</text>
<text text-anchor="start" x="187" y="-88" font-family="Helvetica,sans-Serif" font-size="10.00">components::RotationStateComponent</text>
<text text-anchor="middle" x="282" y="-77" font-family="Helvetica,sans-Serif" font-size="10.00">::setHeadingRotationAngle</text>
</a>
</g>
</g>
<!-- Node1&#45;&gt;Node2 -->
<g id="edge1_Node000001_Node000002" class="edge">
<title>Node1&#45;&gt;Node2</title>
<g id="a_edge1_Node000001_Node000002"><a xlink:title=" ">
<path fill="none" stroke="#63b8ff" d="M143.09,-72.85C151.41,-74.25 160.06,-75.7 168.78,-77.16"/>
<polygon fill="#63b8ff" stroke="#63b8ff" points="168.21,-80.61 178.65,-78.82 169.37,-73.71 168.21,-80.61"/>
</a>
</g>
</g>
<!-- Node3 -->
<g id="Node000003" class="node">
<title>Node3</title>
<g id="a_Node000003"><a xlink:href="classhelios_1_1engine_1_1builder_1_1gameObject_1_1builders_1_1configs_1_1TransformConfig.html#a37d4ee1a21f53c1756a4fcbe22de4d99" target="_top" xlink:title="Constructs a TransformConfig and adds ComposeTransformComponent.">
<polygon fill="white" stroke="#666666" points="353.5,-52 210.5,-52 210.5,0 353.5,0 353.5,-52"/>
<text text-anchor="start" x="218.5" y="-40" font-family="Helvetica,sans-Serif" font-size="10.00">helios::engine::builder</text>
<text text-anchor="start" x="218.5" y="-29" font-family="Helvetica,sans-Serif" font-size="10.00">::gameObject::builders</text>
<text text-anchor="start" x="218.5" y="-18" font-family="Helvetica,sans-Serif" font-size="10.00">::configs::TransformConfig</text>
<text text-anchor="middle" x="282" y="-7" font-family="Helvetica,sans-Serif" font-size="10.00">::TransformConfig</text>
</a>
</g>
</g>
<!-- Node1&#45;&gt;Node3 -->
<g id="edge3_Node000001_Node000003" class="edge">
<title>Node1&#45;&gt;Node3</title>
<g id="a_edge3_Node000001_Node000003"><a xlink:title=" ">
<path fill="none" stroke="#63b8ff" d="M143.09,-49.15C161.51,-46.06 181.51,-42.7 200.41,-39.53"/>
<polygon fill="#63b8ff" stroke="#63b8ff" points="201.2,-42.94 210.48,-37.84 200.04,-36.04 201.2,-42.94"/>
</a>
</g>
</g>
<!-- Node2&#45;&gt;Node2 -->
<g id="edge2_Node000002_Node000002" class="edge">
<title>Node2&#45;&gt;Node2</title>
<g id="a_edge2_Node000002_Node000002"><a xlink:title=" ">
<path fill="none" stroke="#63b8ff" d="M242.71,-122.2C241.42,-131.96 254.52,-140 282,-140 299.6,-140 311.31,-136.7 317.1,-131.76"/>
<polygon fill="#63b8ff" stroke="#63b8ff" points="320.49,-132.76 321.29,-122.2 314.07,-129.96 320.49,-132.76"/>
</a>
</g>
</g>
</g>
</svg>
