<?xml version="1.0" encoding="UTF-8" standalone="no"?>
<!DOCTYPE svg PUBLIC "-//W3C//DTD SVG 1.1//EN"
 "http://www.w3.org/Graphics/SVG/1.1/DTD/svg11.dtd">
<!-- Generated by graphviz version 2.43.0 (0)
 -->
<!-- Title: helios::engine::runtime::spawn::scheduling::SpawnScheduler::evaluate Pages: 1 -->
<svg width="684pt" height="216pt"
 viewBox="0.00 0.00 684.00 216.00" xmlns="http://www.w3.org/2000/svg" xmlns:xlink="http://www.w3.org/1999/xlink">
<g id="graph0" class="graph" transform="scale(1 1) rotate(0) translate(4 212)">
<title>helios::engine::runtime::spawn::scheduling::SpawnScheduler::evaluate</title>
<!-- Node1 -->
<g id="Node000001" class="node">
<title>Node1</title>
<g id="a_Node000001"><a xlink:title="Evaluates all spawn rules against current conditions.">
<polygon fill="#999999" stroke="#666666" points="199,-122 0,-122 0,-81 199,-81 199,-122"/>
<text text-anchor="start" x="8" y="-110" font-family="Helvetica,sans-Serif" font-size="10.00">helios::engine::runtime</text>
<text text-anchor="start" x="8" y="-99" font-family="Helvetica,sans-Serif" font-size="10.00">::spawn::scheduling::SpawnScheduler</text>
<text text-anchor="middle" x="99.5" y="-88" font-family="Helvetica,sans-Serif" font-size="10.00">::evaluate</text>
</a>
</g>
</g>
<!-- Node2 -->
<g id="Node000002" class="node">
<title>Node2</title>
<g id="a_Node000002"><a xlink:href="structhelios_1_1engine_1_1runtime_1_1world_1_1UpdateContext.html#a0197c610dc51fc676bcde9b84545ed7b" target="_top" xlink:title="Returns the time elapsed since the last frame, in seconds.">
<polygon fill="white" stroke="#666666" points="394,-208 265,-208 265,-167 394,-167 394,-208"/>
<text text-anchor="start" x="273" y="-196" font-family="Helvetica,sans-Serif" font-size="10.00">helios::engine::runtime</text>
<text text-anchor="start" x="273" y="-185" font-family="Helvetica,sans-Serif" font-size="10.00">::world::UpdateContext</text>
<text text-anchor="middle" x="329.5" y="-174" font-family="Helvetica,sans-Serif" font-size="10.00">::deltaTime</text>
</a>
</g>
</g>
<!-- Node1&#45;&gt;Node2 -->
<g id="edge1_Node000001_Node000002" class="edge">
<title>Node1&#45;&gt;Node2</title>
<g id="a_edge1_Node000001_Node000002"><a xlink:title=" ">
<path fill="none" stroke="#63b8ff" d="M145.8,-122.04C171.68,-133.43 204.87,-147.48 235,-158.5 241.43,-160.85 248.16,-163.19 254.93,-165.44"/>
<polygon fill="#63b8ff" stroke="#63b8ff" points="254.25,-168.91 264.84,-168.69 256.43,-162.25 254.25,-168.91"/>
</a>
</g>
</g>
<!-- Node3 -->
<g id="Node000003" class="node">
<title>Node3</title>
<g id="a_Node000003"><a xlink:href="structhelios_1_1engine_1_1runtime_1_1world_1_1UpdateContext.html#a459e72fe47399985183cc6ca35531dfa" target="_top" xlink:title="Returns the game world for entity lookups.">
<polygon fill="white" stroke="#666666" points="394,-149 265,-149 265,-108 394,-108 394,-149"/>
<text text-anchor="start" x="273" y="-137" font-family="Helvetica,sans-Serif" font-size="10.00">helios::engine::runtime</text>
<text text-anchor="start" x="273" y="-126" font-family="Helvetica,sans-Serif" font-size="10.00">::world::UpdateContext</text>
<text text-anchor="middle" x="329.5" y="-115" font-family="Helvetica,sans-Serif" font-size="10.00">::gameWorld</text>
</a>
</g>
</g>
<!-- Node1&#45;&gt;Node3 -->
<g id="edge2_Node000001_Node000003" class="edge">
<title>Node1&#45;&gt;Node3</title>
<g id="a_edge2_Node000001_Node000003"><a xlink:title=" ">
<path fill="none" stroke="#63b8ff" d="M199.18,-113.19C217.79,-115.39 236.96,-117.66 254.65,-119.75"/>
<polygon fill="#63b8ff" stroke="#63b8ff" points="254.53,-123.27 264.87,-120.97 255.36,-116.31 254.53,-123.27"/>
</a>
</g>
</g>
<!-- Node4 -->
<g id="Node000004" class="node">
<title>Node4</title>
<g id="a_Node000004"><a xlink:href="classhelios_1_1engine_1_1runtime_1_1world_1_1GameWorld.html#aa5461339dafdae850a4327e59a1ba112" target="_top" xlink:title="Retrieves a registered Manager by type.">
<polygon fill="white" stroke="#666666" points="418,-89.5 241,-89.5 241,-59.5 418,-59.5 418,-89.5"/>
<text text-anchor="start" x="249" y="-77.5" font-family="Helvetica,sans-Serif" font-size="10.00">helios::engine::runtime</text>
<text text-anchor="middle" x="329.5" y="-66.5" font-family="Helvetica,sans-Serif" font-size="10.00">::world::GameWorld::getManager</text>
</a>
</g>
</g>
<!-- Node1&#45;&gt;Node4 -->
<g id="edge3_Node000001_Node000004" class="edge">
<title>Node1&#45;&gt;Node4</title>
<g id="a_edge3_Node000001_Node000004"><a xlink:title=" ">
<path fill="none" stroke="#63b8ff" d="M199.18,-89.81C209.67,-88.57 220.33,-87.31 230.81,-86.07"/>
<polygon fill="#63b8ff" stroke="#63b8ff" points="231.26,-89.54 240.78,-84.89 230.44,-82.59 231.26,-89.54"/>
</a>
</g>
</g>
<!-- Node5 -->
<g id="Node000005" class="node">
<title>Node5</title>
<g id="a_Node000005"><a xlink:href="classhelios_1_1engine_1_1runtime_1_1pooling_1_1GameObjectPoolManager.html#a8dd6b2a3a5252afb190ab22e0ddbc277" target="_top" xlink:title="Returns a snapshot of the pool&#39;s current state.">
<polygon fill="white" stroke="#666666" points="424,-41 235,-41 235,0 424,0 424,-41"/>
<text text-anchor="start" x="243" y="-29" font-family="Helvetica,sans-Serif" font-size="10.00">helios::engine::runtime</text>
<text text-anchor="start" x="243" y="-18" font-family="Helvetica,sans-Serif" font-size="10.00">::pooling::GameObjectPoolManager</text>
<text text-anchor="middle" x="329.5" y="-7" font-family="Helvetica,sans-Serif" font-size="10.00">::poolSnapshot</text>
</a>
</g>
</g>
<!-- Node1&#45;&gt;Node5 -->
<g id="edge4_Node000001_Node000005" class="edge">
<title>Node1&#45;&gt;Node5</title>
<g id="a_edge4_Node000001_Node000005"><a xlink:title=" ">
<path fill="none" stroke="#63b8ff" d="M152.97,-80.88C177.74,-71.33 207.77,-60.02 235,-50.5 240.91,-48.43 247.06,-46.34 253.24,-44.27"/>
<polygon fill="#63b8ff" stroke="#63b8ff" points="254.57,-47.52 262.97,-41.05 252.37,-40.87 254.57,-47.52"/>
</a>
</g>
</g>
<!-- Node6 -->
<g id="Node000006" class="node">
<title>Node6</title>
<g id="a_Node000006"><a xlink:href="classhelios_1_1engine_1_1runtime_1_1pooling_1_1GameObjectPoolManager.html#a9cc0f690e30550d213698d06210f69a6" target="_top" xlink:title="Retrieves a pool by its ID.">
<polygon fill="white" stroke="#666666" points="676,-35.5 460,-35.5 460,-5.5 676,-5.5 676,-35.5"/>
<text text-anchor="start" x="468" y="-23.5" font-family="Helvetica,sans-Serif" font-size="10.00">helios::engine::runtime</text>
<text text-anchor="middle" x="568" y="-12.5" font-family="Helvetica,sans-Serif" font-size="10.00">::pooling::GameObjectPoolManager::pool</text>
</a>
</g>
</g>
<!-- Node5&#45;&gt;Node6 -->
<g id="edge5_Node000005_Node000006" class="edge">
<title>Node5&#45;&gt;Node6</title>
<g id="a_edge5_Node000005_Node000006"><a xlink:title=" ">
<path fill="none" stroke="#63b8ff" d="M424.31,-20.5C432.56,-20.5 440.98,-20.5 449.39,-20.5"/>
<polygon fill="#63b8ff" stroke="#63b8ff" points="449.64,-24 459.64,-20.5 449.64,-17 449.64,-24"/>
</a>
</g>
</g>
</g>
</svg>
