<?xml version="1.0" encoding="UTF-8" standalone="no"?>
<!DOCTYPE svg PUBLIC "-//W3C//DTD SVG 1.1//EN"
 "http://www.w3.org/Graphics/SVG/1.1/DTD/svg11.dtd">
<!-- Generated by graphviz version 2.43.0 (0)
 -->
<!-- Title: helios::engine::game::components::physics::RotationStateComponent Pages: 1 -->
<svg width="154pt" height="271pt"
 viewBox="0.00 0.00 154.00 271.00" xmlns="http://www.w3.org/2000/svg" xmlns:xlink="http://www.w3.org/1999/xlink">
<g id="graph0" class="graph" transform="scale(1 1) rotate(0) translate(4 267)">
<title>helios::engine::game::components::physics::RotationStateComponent</title>
<!-- Node1 -->
<g id="Node000001" class="node">
<title>Node1</title>
<g id="a_Node000001"><a xlink:title="Component that manages composite rotation from heading and spin rotations.">
<polygon fill="#999999" stroke="#666666" points="146,-41 0,-41 0,0 146,0 146,-41"/>
<text text-anchor="start" x="8" y="-29" font-family="Helvetica,sans-Serif" font-size="10.00">helios::engine::game</text>
<text text-anchor="start" x="8" y="-18" font-family="Helvetica,sans-Serif" font-size="10.00">::components::physics</text>
<text text-anchor="middle" x="73" y="-7" font-family="Helvetica,sans-Serif" font-size="10.00">::RotationStateComponent</text>
</a>
</g>
</g>
<!-- Node2 -->
<g id="Node000002" class="node">
<title>Node2</title>
<g id="a_Node000002"><a xlink:href="classhelios_1_1engine_1_1game_1_1Component.html" target="_top" xlink:title="Abstract base class for components attached to GameObjects.">
<polygon fill="white" stroke="#666666" points="132.5,-108 13.5,-108 13.5,-78 132.5,-78 132.5,-108"/>
<text text-anchor="start" x="21.5" y="-96" font-family="Helvetica,sans-Serif" font-size="10.00">helios::engine::game</text>
<text text-anchor="middle" x="73" y="-85" font-family="Helvetica,sans-Serif" font-size="10.00">::Component</text>
</a>
</g>
</g>
<!-- Node2&#45;&gt;Node1 -->
<g id="edge1_Node000001_Node000002" class="edge">
<title>Node2&#45;&gt;Node1</title>
<g id="a_edge1_Node000001_Node000002"><a xlink:title=" ">
<path fill="none" stroke="#63b8ff" d="M73,-67.48C73,-58.85 73,-49.26 73,-41.09"/>
<polygon fill="#63b8ff" stroke="#63b8ff" points="69.5,-67.73 73,-77.73 76.5,-67.73 69.5,-67.73"/>
</a>
</g>
</g>
<!-- Node3 -->
<g id="Node000003" class="node">
<title>Node3</title>
<g id="a_Node000003"><a xlink:href="classhelios_1_1engine_1_1game_1_1GameObject.html" target="_top" xlink:title="Base class for interactive game entities using a component&#45;based architecture.">
<polygon fill="white" stroke="#666666" points="132.5,-191 13.5,-191 13.5,-161 132.5,-161 132.5,-191"/>
<text text-anchor="start" x="21.5" y="-179" font-family="Helvetica,sans-Serif" font-size="10.00">helios::engine::game</text>
<text text-anchor="middle" x="73" y="-168" font-family="Helvetica,sans-Serif" font-size="10.00">::GameObject</text>
</a>
</g>
</g>
<!-- Node3&#45;&gt;Node2 -->
<g id="edge2_Node000002_Node000003" class="edge">
<title>Node3&#45;&gt;Node2</title>
<g id="a_edge2_Node000002_Node000003"><a xlink:title=" ">
<path fill="none" stroke="#9a32cd" stroke-dasharray="5,2" d="M73,-150.59C73,-136.75 73,-119.91 73,-108.22"/>
<polygon fill="#9a32cd" stroke="#9a32cd" points="69.5,-150.89 73,-160.89 76.5,-150.89 69.5,-150.89"/>
</a>
</g>
<text text-anchor="start" x="76.5" y="-131.5" font-family="Helvetica,sans-Serif" font-size="10.00" fill="grey">gameObject_</text>
</g>
<!-- Node4 -->
<g id="Node000004" class="node">
<title>Node4</title>
<g id="a_Node000004"><a xlink:href="classhelios_1_1util_1_1Guid.html" target="_top" xlink:title="Representative of a Globally Unique Identifier.">
<polygon fill="white" stroke="#666666" points="121,-263 25,-263 25,-244 121,-244 121,-263"/>
<text text-anchor="middle" x="73" y="-251" font-family="Helvetica,sans-Serif" font-size="10.00">helios::util::Guid</text>
</a>
</g>
</g>
<!-- Node4&#45;&gt;Node3 -->
<g id="edge3_Node000003_Node000004" class="edge">
<title>Node4&#45;&gt;Node3</title>
<g id="a_edge3_Node000003_Node000004"><a xlink:title=" ">
<path fill="none" stroke="#9a32cd" stroke-dasharray="5,2" d="M73,-233.57C73,-220.43 73,-203.18 73,-191.21"/>
<polygon fill="#9a32cd" stroke="#9a32cd" points="69.5,-233.84 73,-243.84 76.5,-233.84 69.5,-233.84"/>
</a>
</g>
<text text-anchor="start" x="76.5" y="-214.5" font-family="Helvetica,sans-Serif" font-size="10.00" fill="grey">guid_</text>
</g>
</g>
</svg>
