<?xml version="1.0" encoding="UTF-8" standalone="no"?>
<!DOCTYPE svg PUBLIC "-//W3C//DTD SVG 1.1//EN"
 "http://www.w3.org/Graphics/SVG/1.1/DTD/svg11.dtd">
<!-- Generated by graphviz version 2.43.0 (0)
 -->
<!-- Title: helios::engine::mechanics::gamestate::GameStateManager Pages: 1 -->
<!--zoomable 450 -->

<svg id="main" version="1.1" xmlns="http://www.w3.org/2000/svg" xmlns:xlink="http://www.w3.org/1999/xlink" xml:space="preserve" onload="init(evt)">

<style type="text/css"><![CDATA[
.node, .edge {opacity: 0.7;}
.node.selected, .edge.selected {opacity: 1;}
.edge:hover path { stroke: red; }
.edge:hover polygon { stroke: red; fill: red; }
]]></style>

<defs>
  <circle id="rim" cx="0" cy="0" r="7"/>
  <circle id="rim2" cx="0" cy="0" r="3.5"/>
  <g id="zoomPlus">
    <use xlink:href="#rim" fill="#404040"><set attributeName="fill" to="#808080" begin="zoomplus.mouseover" end="zoomplus.mouseout"/></use>
    <path d="M-4,0h8M0,-4v8" fill="none" stroke="white" stroke-width="1.5" pointer-events="none"/>
  </g>
  <g id="zoomMin">
    <use xlink:href="#rim" fill="#404040"><set attributeName="fill" to="#808080" begin="zoomminus.mouseover" end="zoomminus.mouseout"/></use>
    <path d="M-4,0h8" fill="none" stroke="white" stroke-width="1.5" pointer-events="none"/>
  </g>
  <g id="arrowUp" transform="translate(30 24)">
    <use xlink:href="#rim"/>
    <path pointer-events="none" fill="none" stroke="white" stroke-width="1.5" d="M0,-3.0v7 M-2.5,-0.5L0,-3.0L2.5,-0.5"/>
  </g>
  <g id="arrowRight" transform="rotate(90) translate(36 -43)">
    <use xlink:href="#rim"/>
    <path pointer-events="none" fill="none" stroke="white" stroke-width="1.5" d="M0,-3.0v7 M-2.5,-0.5L0,-3.0L2.5,-0.5"/>
  </g>
  <g id="arrowDown" transform="rotate(180) translate(-30 -48)">
    <use xlink:href="#rim"/>
    <path pointer-events="none" fill="none" stroke="white" stroke-width="1.5" d="M0,-3.0v7 M-2.5,-0.5L0,-3.0L2.5,-0.5"/>
  </g>
  <g id="arrowLeft" transform="rotate(270) translate(-36 17)">
    <use xlink:href="#rim"/>
    <path pointer-events="none" fill="none" stroke="white" stroke-width="1.5" d="M0,-3.0v7 M-2.5,-0.5L0,-3.0L2.5,-0.5"/>
  </g>
  <g id="resetDef">
    <use xlink:href="#rim2" fill="#404040"><set attributeName="fill" to="#808080" begin="reset.mouseover" end="reset.mouseout"/></use>
  </g>
</defs>
<script type="application/ecmascript">
var viewWidth = 1017;
var viewHeight = 450;
var sectionId = 'dynsection-1';
</script>
<script type="application/ecmascript" xlink:href="svg.min.js"/>
<svg id="graph" class="graph">
<g id="viewport">
<title>helios::engine::mechanics::gamestate::GameStateManager</title>
<!-- Node1 -->
<g id="Node000001" class="node">
<title>Node1</title>
<g id="a_Node000001"><a xlink:title="Manages game state transitions using a rule&#45;based state machine.">
<polygon fill="#999999" stroke="#666666" points="1009,-426.41 830,-426.41 830,-396.41 1009,-396.41 1009,-426.41"/>
<text text-anchor="start" x="838" y="-414.41" font-family="Helvetica,sans-Serif" font-size="10.00">helios::engine::mechanics</text>
<text text-anchor="middle" x="919.5" y="-403.41" font-family="Helvetica,sans-Serif" font-size="10.00">::gamestate::GameStateManager</text>
</a>
</g>
</g>
<!-- Node2 -->
<g id="Node000002" class="node">
<title>Node2</title>
<g id="a_Node000002"><a xlink:href="classhelios_1_1engine_1_1runtime_1_1world_1_1Manager.html" target="_top" xlink:title="Abstract base class for managers that process deferred operations.">
<polygon fill="white" stroke="#666666" points="793,-366.41 664,-366.41 664,-336.41 793,-336.41 793,-366.41"/>
<text text-anchor="start" x="672" y="-354.41" font-family="Helvetica,sans-Serif" font-size="10.00">helios::engine::runtime</text>
<text text-anchor="middle" x="728.5" y="-343.41" font-family="Helvetica,sans-Serif" font-size="10.00">::world::Manager</text>
</a>
</g>
</g>
<!-- Node2&#45;&gt;Node1 -->
<g id="edge1_Node000001_Node000002" class="edge">
<title>Node2&#45;&gt;Node1</title>
<g id="a_edge1_Node000001_Node000002"><a xlink:title=" ">
<path fill="none" stroke="#63b8ff" d="M786.89,-369.62C813.84,-378.18 845.59,-388.26 871.15,-396.38"/>
<polygon fill="#63b8ff" stroke="#63b8ff" points="787.78,-366.24 777.19,-366.55 785.66,-372.91 787.78,-366.24"/>
</a>
</g>
</g>
<!-- Node3 -->
<g id="Node000003" class="node">
<title>Node3</title>
<g id="a_Node000003"><a xlink:href="classhelios_1_1engine_1_1runtime_1_1world_1_1GameWorld.html" target="_top" xlink:title="Central registry for game entities, managers, pools, and the active level.">
<polygon fill="white" stroke="#666666" points="561,-264.41 432,-264.41 432,-234.41 561,-234.41 561,-264.41"/>
<text text-anchor="start" x="440" y="-252.41" font-family="Helvetica,sans-Serif" font-size="10.00">helios::engine::runtime</text>
<text text-anchor="middle" x="496.5" y="-241.41" font-family="Helvetica,sans-Serif" font-size="10.00">::world::GameWorld</text>
</a>
</g>
</g>
<!-- Node3&#45;&gt;Node2 -->
<g id="edge2_Node000002_Node000003" class="edge">
<title>Node3&#45;&gt;Node2</title>
<g id="a_edge2_Node000002_Node000003"><a xlink:title=" ">
<path fill="none" stroke="#9a32cd" stroke-dasharray="5,2" d="M540.78,-268.6C585.02,-288.22 652.85,-318.3 693.42,-336.29"/>
<polygon fill="#9a32cd" stroke="#9a32cd" points="542,-265.31 531.44,-264.46 539.16,-271.71 542,-265.31"/>
</a>
</g>
<text text-anchor="start" x="582.5" y="-317.91" font-family="Helvetica,sans-Serif" font-size="10.00" fill="grey">gameWorld_</text>
</g>
<!-- Node4 -->
<g id="Node000004" class="node">
<title>Node4</title>
<g id="a_Node000004"><a xlink:href="classhelios_1_1util_1_1log_1_1Logger.html" target="_top" xlink:title="Logger implementation with configurable output sinks.">
<polygon fill="white" stroke="#666666" points="159.5,-388.41 64.5,-388.41 64.5,-358.41 159.5,-358.41 159.5,-388.41"/>
<text text-anchor="start" x="72.5" y="-376.41" font-family="Helvetica,sans-Serif" font-size="10.00">helios::util::log::</text>
<text text-anchor="middle" x="112" y="-365.41" font-family="Helvetica,sans-Serif" font-size="10.00">Logger</text>
</a>
</g>
</g>
<!-- Node4&#45;&gt;Node3 -->
<g id="edge3_Node000003_Node000004" class="edge">
<title>Node4&#45;&gt;Node3</title>
<g id="a_edge3_Node000003_Node000004"><a xlink:title=" ">
<path fill="none" stroke="#9a32cd" stroke-dasharray="5,2" d="M169.7,-368.04C253.9,-359.93 403.29,-344.9 414,-339.41 447.39,-322.29 473.75,-285.47 486.71,-264.61"/>
<polygon fill="#9a32cd" stroke="#9a32cd" points="169.14,-364.58 159.52,-369.02 169.81,-371.55 169.14,-364.58"/>
</a>
</g>
<text text-anchor="start" x="310" y="-364.91" font-family="Helvetica,sans-Serif" font-size="10.00" fill="grey">logger_</text>
</g>
<!-- Node5 -->
<g id="Node000005" class="node">
<title>Node5</title>
<g id="a_Node000005"><a xlink:href="classhelios_1_1engine_1_1mechanics_1_1scoring_1_1ScoreCommandHandler.html" target="_top" xlink:title="Abstract interface for processing score update commands.">
<polygon fill="white" stroke="#666666" points="201.5,-340.41 22.5,-340.41 22.5,-310.41 201.5,-310.41 201.5,-340.41"/>
<text text-anchor="start" x="30.5" y="-328.41" font-family="Helvetica,sans-Serif" font-size="10.00">helios::engine::mechanics</text>
<text text-anchor="middle" x="112" y="-317.41" font-family="Helvetica,sans-Serif" font-size="10.00">::scoring::ScoreCommandHandler</text>
</a>
</g>
</g>
<!-- Node5&#45;&gt;Node3 -->
<g id="edge4_Node000003_Node000005" class="edge">
<title>Node5&#45;&gt;Node3</title>
<g id="a_edge4_Node000003_Node000005"><a xlink:title=" ">
<path fill="none" stroke="#9a32cd" stroke-dasharray="5,2" d="M211.93,-321.32C271.45,-316.88 348.19,-307.64 414,-288.41 433.42,-282.73 453.97,-272.87 469.57,-264.49"/>
<polygon fill="#9a32cd" stroke="#9a32cd" points="211.5,-317.84 201.78,-322.04 212,-324.82 211.5,-317.84"/>
</a>
</g>
<text text-anchor="start" x="268" y="-323.91" font-family="Helvetica,sans-Serif" font-size="10.00" fill="grey">scoreCommandHandler_</text>
</g>
<!-- Node6 -->
<g id="Node000006" class="node">
<title>Node6</title>
<g id="a_Node000006"><a xlink:href="classhelios_1_1engine_1_1mechanics_1_1gamestate_1_1GameStateCommandHandler.html" target="_top" xlink:title="Abstract interface for handling game state commands.">
<polygon fill="white" stroke="#666666" points="224,-442.41 0,-442.41 0,-412.41 224,-412.41 224,-442.41"/>
<text text-anchor="start" x="8" y="-430.41" font-family="Helvetica,sans-Serif" font-size="10.00">helios::engine::mechanics</text>
<text text-anchor="middle" x="112" y="-419.41" font-family="Helvetica,sans-Serif" font-size="10.00">::gamestate::GameStateCommandHandler</text>
</a>
</g>
</g>
<!-- Node6&#45;&gt;Node1 -->
<g id="edge12_Node000001_Node000006" class="edge">
<title>Node6&#45;&gt;Node1</title>
<g id="a_edge12_Node000001_Node000006"><a xlink:title=" ">
<path fill="none" stroke="#63b8ff" d="M234.26,-425C397.77,-421.75 685.08,-416.04 829.84,-413.17"/>
<polygon fill="#63b8ff" stroke="#63b8ff" points="234.08,-421.5 224.16,-425.2 234.22,-428.5 234.08,-421.5"/>
</a>
</g>
</g>
<!-- Node6&#45;&gt;Node3 -->
<g id="edge5_Node000003_Node000006" class="edge">
<title>Node6&#45;&gt;Node3</title>
<g id="a_edge5_Node000003_Node000006"><a xlink:title=" ">
<path fill="none" stroke="#9a32cd" stroke-dasharray="5,2" d="M196.4,-410.5C211.55,-407.64 227.23,-404.82 242,-402.41 318.11,-389.95 349.15,-421.15 414,-379.41 457.01,-351.73 481.35,-292.44 490.83,-264.53"/>
<polygon fill="#9a32cd" stroke="#9a32cd" points="195.71,-407.07 186.54,-412.38 197.02,-413.95 195.71,-407.07"/>
</a>
</g>
<text text-anchor="start" x="254" y="-407.91" font-family="Helvetica,sans-Serif" font-size="10.00" fill="grey">gameStateCommandHandler_</text>
</g>
<!-- Node7 -->
<g id="Node000007" class="node">
<title>Node7</title>
<g id="a_Node000007"><a xlink:href="classhelios_1_1engine_1_1mechanics_1_1match_1_1MatchStateCommandHandler.html" target="_top" xlink:title="Abstract interface for handling match state commands.">
<polygon fill="white" stroke="#666666" points="213.5,-244.41 10.5,-244.41 10.5,-214.41 213.5,-214.41 213.5,-244.41"/>
<text text-anchor="start" x="18.5" y="-232.41" font-family="Helvetica,sans-Serif" font-size="10.00">helios::engine::mechanics</text>
<text text-anchor="middle" x="112" y="-221.41" font-family="Helvetica,sans-Serif" font-size="10.00">::match::MatchStateCommandHandler</text>
</a>
</g>
</g>
<!-- Node7&#45;&gt;Node3 -->
<g id="edge6_Node000003_Node000007" class="edge">
<title>Node7&#45;&gt;Node3</title>
<g id="a_edge6_Node000003_Node000007"><a xlink:title=" ">
<path fill="none" stroke="#9a32cd" stroke-dasharray="5,2" d="M223.92,-229.96C280.83,-230.95 351.21,-233.24 414,-238.41 419.83,-238.89 425.89,-239.49 431.95,-240.18"/>
<polygon fill="#9a32cd" stroke="#9a32cd" points="223.88,-226.46 213.82,-229.8 223.77,-233.46 223.88,-226.46"/>
</a>
</g>
<text text-anchor="start" x="253" y="-243.91" font-family="Helvetica,sans-Serif" font-size="10.00" fill="grey">matchStateCommandHandler_</text>
</g>
<!-- Node8 -->
<g id="Node000008" class="node">
<title>Node8</title>
<g id="a_Node000008"><a xlink:href="classhelios_1_1engine_1_1modules_1_1ui_1_1UiActionCommandHandler.html" target="_top" xlink:title="Abstract interface for handling UI action commands.">
<polygon fill="white" stroke="#666666" points="195.5,-196.41 28.5,-196.41 28.5,-166.41 195.5,-166.41 195.5,-196.41"/>
<text text-anchor="start" x="36.5" y="-184.41" font-family="Helvetica,sans-Serif" font-size="10.00">helios::engine::modules</text>
<text text-anchor="middle" x="112" y="-173.41" font-family="Helvetica,sans-Serif" font-size="10.00">::ui::UiActionCommandHandler</text>
</a>
</g>
</g>
<!-- Node8&#45;&gt;Node3 -->
<g id="edge7_Node000003_Node000008" class="edge">
<title>Node8&#45;&gt;Node3</title>
<g id="a_edge7_Node000003_Node000008"><a xlink:title=" ">
<path fill="none" stroke="#9a32cd" stroke-dasharray="5,2" d="M205.91,-180.79C266.25,-182.57 346.03,-189.03 414,-208.41 434.41,-214.23 455.78,-225.19 471.52,-234.31"/>
<polygon fill="#9a32cd" stroke="#9a32cd" points="205.72,-177.29 195.64,-180.53 205.54,-184.29 205.72,-177.29"/>
</a>
</g>
<text text-anchor="start" x="261" y="-213.91" font-family="Helvetica,sans-Serif" font-size="10.00" fill="grey">uiActionCommandHandler_</text>
</g>
<!-- Node9 -->
<g id="Node000009" class="node">
<title>Node9</title>
<g id="a_Node000009"><a xlink:href="classhelios_1_1engine_1_1runtime_1_1spawn_1_1SpawnCommandHandlerRegistry.html" target="_top" xlink:title="Registry that maps SpawnProfileIds to their SpawnCommandHandlers.">
<polygon fill="white" stroke="#666666" points="202.5,-147.91 21.5,-147.91 21.5,-106.91 202.5,-106.91 202.5,-147.91"/>
<text text-anchor="start" x="29.5" y="-135.91" font-family="Helvetica,sans-Serif" font-size="10.00">helios::engine::runtime</text>
<text text-anchor="start" x="29.5" y="-124.91" font-family="Helvetica,sans-Serif" font-size="10.00">::spawn::SpawnCommandHandler</text>
<text text-anchor="middle" x="112" y="-113.91" font-family="Helvetica,sans-Serif" font-size="10.00">Registry</text>
</a>
</g>
</g>
<!-- Node9&#45;&gt;Node3 -->
<g id="edge8_Node000003_Node000009" class="edge">
<title>Node9&#45;&gt;Node3</title>
<g id="a_edge8_Node000003_Node000009"><a xlink:title=" ">
<path fill="none" stroke="#9a32cd" stroke-dasharray="5,2" d="M212.64,-121.56C273.79,-122.01 351.98,-130.05 414,-161.41 446.89,-178.04 473.26,-213.74 486.4,-234.19"/>
<polygon fill="#9a32cd" stroke="#9a32cd" points="212.6,-118.06 202.6,-121.56 212.59,-125.06 212.6,-118.06"/>
</a>
</g>
<text text-anchor="start" x="245" y="-166.91" font-family="Helvetica,sans-Serif" font-size="10.00" fill="grey">spawnCommandHandlerRegistry_</text>
</g>
<!-- Node10 -->
<g id="Node000010" class="node">
<title>Node10</title>
<g id="a_Node000010"><a xlink:href="classhelios_1_1engine_1_1ecs_1_1EntityRegistry.html" target="_top" xlink:title="Central registry for creating and managing entity handles.">
<polygon fill="white" stroke="#666666" points="165.5,-88.41 58.5,-88.41 58.5,-58.41 165.5,-58.41 165.5,-88.41"/>
<text text-anchor="start" x="66.5" y="-76.41" font-family="Helvetica,sans-Serif" font-size="10.00">helios::engine::ecs</text>
<text text-anchor="middle" x="112" y="-65.41" font-family="Helvetica,sans-Serif" font-size="10.00">::EntityRegistry</text>
</a>
</g>
</g>
<!-- Node10&#45;&gt;Node3 -->
<g id="edge9_Node000003_Node000010" class="edge">
<title>Node10&#45;&gt;Node3</title>
<g id="a_edge9_Node000003_Node000010"><a xlink:title=" ">
<path fill="none" stroke="#9a32cd" stroke-dasharray="5,2" d="M175.8,-63.15C240.84,-55.98 342.75,-54.72 414,-101.41 462.09,-132.92 484.31,-202.93 492.09,-234.02"/>
<polygon fill="#9a32cd" stroke="#9a32cd" points="175.21,-59.7 165.69,-64.35 176.03,-66.65 175.21,-59.7"/>
</a>
</g>
<text text-anchor="start" x="291" y="-106.91" font-family="Helvetica,sans-Serif" font-size="10.00" fill="grey">entityRegistry_</text>
</g>
<!-- Node11 -->
<g id="Node000011" class="node">
<title>Node11</title>
<g id="a_Node000011"><a xlink:href="classhelios_1_1engine_1_1ecs_1_1EntityManager.html" target="_top" xlink:title="Manages entities and their associated components.">
<polygon fill="white" stroke="#666666" points="165.5,-40.41 58.5,-40.41 58.5,-10.41 165.5,-10.41 165.5,-40.41"/>
<text text-anchor="start" x="66.5" y="-28.41" font-family="Helvetica,sans-Serif" font-size="10.00">helios::engine::ecs</text>
<text text-anchor="middle" x="112" y="-17.41" font-family="Helvetica,sans-Serif" font-size="10.00">::EntityManager</text>
</a>
</g>
</g>
<!-- Node11&#45;&gt;Node3 -->
<g id="edge10_Node000003_Node000011" class="edge">
<title>Node11&#45;&gt;Node3</title>
<g id="a_edge10_Node000003_Node000011"><a xlink:title=" ">
<path fill="none" stroke="#9a32cd" stroke-dasharray="5,2" d="M175.46,-9.98C241.22,2.41 344.62,10.49 414,-39.41 479.56,-86.56 492.38,-194.28 494.89,-234.18"/>
<polygon fill="#9a32cd" stroke="#9a32cd" points="174.78,-6.54 165.64,-11.91 176.13,-13.41 174.78,-6.54"/>
</a>
</g>
<text text-anchor="start" x="317" y="-44.91" font-family="Helvetica,sans-Serif" font-size="10.00" fill="grey">em_</text>
</g>
<!-- Node12 -->
<g id="Node000012" class="node">
<title>Node12</title>
<g id="a_Node000012"><a xlink:href="classhelios_1_1engine_1_1runtime_1_1world_1_1Session.html" target="_top" xlink:title="Holds session&#45;level state for the current game instance.">
<polygon fill="white" stroke="#666666" points="176.5,-292.41 47.5,-292.41 47.5,-262.41 176.5,-262.41 176.5,-292.41"/>
<text text-anchor="start" x="55.5" y="-280.41" font-family="Helvetica,sans-Serif" font-size="10.00">helios::engine::runtime</text>
<text text-anchor="middle" x="112" y="-269.41" font-family="Helvetica,sans-Serif" font-size="10.00">::world::Session</text>
</a>
</g>
</g>
<!-- Node12&#45;&gt;Node3 -->
<g id="edge11_Node000003_Node000012" class="edge">
<title>Node12&#45;&gt;Node3</title>
<g id="a_edge11_Node000003_Node000012"><a xlink:title=" ">
<path fill="none" stroke="#9a32cd" stroke-dasharray="5,2" d="M187,-272.01C247.93,-267.56 336.57,-261.09 414,-255.41 419.8,-254.98 425.83,-254.54 431.88,-254.09"/>
<polygon fill="#9a32cd" stroke="#9a32cd" points="186.43,-268.54 176.71,-272.76 186.94,-275.52 186.43,-268.54"/>
</a>
</g>
<text text-anchor="start" x="307" y="-272.91" font-family="Helvetica,sans-Serif" font-size="10.00" fill="grey">session_</text>
</g>
</g>
</svg>

<g id="navigator" transform="translate(0 0)" fill="#404254">
  <rect fill="#f2f5e9" fill-opacity="0.5" stroke="#606060" stroke-width=".5" x="0" y="0" width="60" height="60"/>
  <use id="zoomplus" xlink:href="#zoomPlus" x="17" y="9" onmousedown="handleZoom(evt,'in')"/>
  <use id="zoomminus" xlink:href="#zoomMin" x="42" y="9" onmousedown="handleZoom(evt,'out')"/>
  <use id="reset" xlink:href="#resetDef" x="30" y="36" onmousedown="handleReset()"/>
   <use id="arrowup" xlink:href="#arrowUp" x="0" y="0" onmousedown="handlePan(0,-1)"/>
  <use id="arrowright" xlink:href="#arrowRight" x="0" y="0" onmousedown="handlePan(1,0)"/>
  <use id="arrowdown" xlink:href="#arrowDown" x="0" y="0" onmousedown="handlePan(0,1)"/>
  <use id="arrowleft" xlink:href="#arrowLeft" x="0" y="0" onmousedown="handlePan(-1,0)"/>
</g>
<svg viewBox="0 0 15 15" width="100%" height="30px" preserveAspectRatio="xMaxYMin meet">
 <g id="arrow_out" transform="scale(0.3 0.3)">
  <a xlink:href="classhelios_1_1engine_1_1mechanics_1_1gamestate_1_1GameStateManager__coll__graph_org.svg" target="_base">
   <rect id="button" ry="5" rx="5" y="6" x="6" height="38" width="38"
        fill="#f2f5e9" fill-opacity="0.5" stroke="#606060" stroke-width="1.0"/>
   <path id="arrow"
     d="M 11.500037,31.436501 C 11.940474,20.09759 22.043105,11.32322 32.158766,21.979434 L 37.068811,17.246167 C 37.068811,17.246167 37.088388,32 37.088388,32 L 22.160133,31.978069 C 22.160133,31.978069 26.997745,27.140456 26.997745,27.140456 C 18.528582,18.264221 13.291696,25.230495 11.500037,31.436501 z"
     style="fill:#404040;"/>
  </a>
 </g>
</svg>

<style type='text/css'>
<![CDATA[
[data-mouse-over-selected='false'] { opacity: 0.7; }
[data-mouse-over-selected='true']  { opacity: 1.0; }
]]>
</style>
<script type="application/ecmascript"><![CDATA[
document.addEventListener('DOMContentLoaded', (event) => {
  highlightEdges();
  highlightAdjacentNodes();
});
]]></script>
</svg>
