<?xml version="1.0" encoding="UTF-8" standalone="no"?>
<!DOCTYPE svg PUBLIC "-//W3C//DTD SVG 1.1//EN"
 "http://www.w3.org/Graphics/SVG/1.1/DTD/svg11.dtd">
<!-- Generated by graphviz version 2.43.0 (0)
 -->
<!-- Title: helios::engine::runtime::spawn::SpawnManager Pages: 1 -->
<!--zoomable 403 -->

<svg id="main" version="1.1" xmlns="http://www.w3.org/2000/svg" xmlns:xlink="http://www.w3.org/1999/xlink" xml:space="preserve" onload="init(evt)">

<style type="text/css"><![CDATA[
.node, .edge {opacity: 0.7;}
.node.selected, .edge.selected {opacity: 1;}
.edge:hover path { stroke: red; }
.edge:hover polygon { stroke: red; fill: red; }
]]></style>

<defs>
  <circle id="rim" cx="0" cy="0" r="7"/>
  <circle id="rim2" cx="0" cy="0" r="3.5"/>
  <g id="zoomPlus">
    <use xlink:href="#rim" fill="#404040"><set attributeName="fill" to="#808080" begin="zoomplus.mouseover" end="zoomplus.mouseout"/></use>
    <path d="M-4,0h8M0,-4v8" fill="none" stroke="white" stroke-width="1.5" pointer-events="none"/>
  </g>
  <g id="zoomMin">
    <use xlink:href="#rim" fill="#404040"><set attributeName="fill" to="#808080" begin="zoomminus.mouseover" end="zoomminus.mouseout"/></use>
    <path d="M-4,0h8" fill="none" stroke="white" stroke-width="1.5" pointer-events="none"/>
  </g>
  <g id="arrowUp" transform="translate(30 24)">
    <use xlink:href="#rim"/>
    <path pointer-events="none" fill="none" stroke="white" stroke-width="1.5" d="M0,-3.0v7 M-2.5,-0.5L0,-3.0L2.5,-0.5"/>
  </g>
  <g id="arrowRight" transform="rotate(90) translate(36 -43)">
    <use xlink:href="#rim"/>
    <path pointer-events="none" fill="none" stroke="white" stroke-width="1.5" d="M0,-3.0v7 M-2.5,-0.5L0,-3.0L2.5,-0.5"/>
  </g>
  <g id="arrowDown" transform="rotate(180) translate(-30 -48)">
    <use xlink:href="#rim"/>
    <path pointer-events="none" fill="none" stroke="white" stroke-width="1.5" d="M0,-3.0v7 M-2.5,-0.5L0,-3.0L2.5,-0.5"/>
  </g>
  <g id="arrowLeft" transform="rotate(270) translate(-36 17)">
    <use xlink:href="#rim"/>
    <path pointer-events="none" fill="none" stroke="white" stroke-width="1.5" d="M0,-3.0v7 M-2.5,-0.5L0,-3.0L2.5,-0.5"/>
  </g>
  <g id="resetDef">
    <use xlink:href="#rim2" fill="#404040"><set attributeName="fill" to="#808080" begin="reset.mouseover" end="reset.mouseout"/></use>
  </g>
</defs>
<script type="application/ecmascript">
var viewWidth = 982;
var viewHeight = 403;
var sectionId = 'dynsection-1';
</script>
<script type="application/ecmascript" xlink:href="svg.min.js"/>
<svg id="graph" class="graph">
<g id="viewport">
<title>helios::engine::runtime::spawn::SpawnManager</title>
<!-- Node1 -->
<g id="Node000001" class="node">
<title>Node1</title>
<g id="a_Node000001"><a xlink:title="Manager for processing spawn and despawn commands.">
<polygon fill="#999999" stroke="#666666" points="974,-172.23 839,-172.23 839,-142.23 974,-142.23 974,-172.23"/>
<text text-anchor="start" x="847" y="-160.23" font-family="Helvetica,sans-Serif" font-size="10.00">helios::engine::runtime</text>
<text text-anchor="middle" x="906.5" y="-149.23" font-family="Helvetica,sans-Serif" font-size="10.00">::spawn::SpawnManager</text>
</a>
</g>
</g>
<!-- Node2 -->
<g id="Node000002" class="node">
<title>Node2</title>
<g id="a_Node000002"><a xlink:href="classhelios_1_1engine_1_1runtime_1_1world_1_1Manager.html" target="_top" xlink:title="Abstract base class for managers that process deferred operations.">
<polygon fill="white" stroke="#666666" points="776,-208.23 647,-208.23 647,-178.23 776,-178.23 776,-208.23"/>
<text text-anchor="start" x="655" y="-196.23" font-family="Helvetica,sans-Serif" font-size="10.00">helios::engine::runtime</text>
<text text-anchor="middle" x="711.5" y="-185.23" font-family="Helvetica,sans-Serif" font-size="10.00">::world::Manager</text>
</a>
</g>
</g>
<!-- Node2&#45;&gt;Node1 -->
<g id="edge1_Node000001_Node000002" class="edge">
<title>Node2&#45;&gt;Node1</title>
<g id="a_edge1_Node000001_Node000002"><a xlink:title=" ">
<path fill="none" stroke="#63b8ff" d="M786.28,-179.47C803.57,-176.24 821.9,-172.82 838.86,-169.66"/>
<polygon fill="#63b8ff" stroke="#63b8ff" points="785.42,-176.07 776.23,-181.34 786.7,-182.95 785.42,-176.07"/>
</a>
</g>
</g>
<!-- Node3 -->
<g id="Node000003" class="node">
<title>Node3</title>
<g id="a_Node000003"><a xlink:href="classhelios_1_1engine_1_1runtime_1_1world_1_1GameWorld.html" target="_top" xlink:title="Central registry for game entities, managers, pools, and the active level.">
<polygon fill="white" stroke="#666666" points="518,-208.23 389,-208.23 389,-178.23 518,-178.23 518,-208.23"/>
<text text-anchor="start" x="397" y="-196.23" font-family="Helvetica,sans-Serif" font-size="10.00">helios::engine::runtime</text>
<text text-anchor="middle" x="453.5" y="-185.23" font-family="Helvetica,sans-Serif" font-size="10.00">::world::GameWorld</text>
</a>
</g>
</g>
<!-- Node3&#45;&gt;Node2 -->
<g id="edge2_Node000002_Node000003" class="edge">
<title>Node3&#45;&gt;Node2</title>
<g id="a_edge2_Node000002_Node000003"><a xlink:title=" ">
<path fill="none" stroke="#9a32cd" stroke-dasharray="5,2" d="M528.45,-193.23C565.89,-193.23 610.88,-193.23 646.77,-193.23"/>
<polygon fill="#9a32cd" stroke="#9a32cd" points="528.11,-189.73 518.11,-193.23 528.11,-196.73 528.11,-189.73"/>
</a>
</g>
<text text-anchor="start" x="539.5" y="-198.73" font-family="Helvetica,sans-Serif" font-size="10.00" fill="grey">gameWorld_</text>
</g>
<!-- Node4 -->
<g id="Node000004" class="node">
<title>Node4</title>
<g id="a_Node000004"><a xlink:href="classhelios_1_1util_1_1log_1_1Logger.html" target="_top" xlink:title="Logger implementation with configurable output sinks.">
<polygon fill="white" stroke="#666666" points="138,-379.23 43,-379.23 43,-349.23 138,-349.23 138,-379.23"/>
<text text-anchor="start" x="51" y="-367.23" font-family="Helvetica,sans-Serif" font-size="10.00">helios::util::log::</text>
<text text-anchor="middle" x="90.5" y="-356.23" font-family="Helvetica,sans-Serif" font-size="10.00">Logger</text>
</a>
</g>
</g>
<!-- Node4&#45;&gt;Node3 -->
<g id="edge3_Node000003_Node000004" class="edge">
<title>Node4&#45;&gt;Node3</title>
<g id="a_edge3_Node000003_Node000004"><a xlink:title=" ">
<path fill="none" stroke="#9a32cd" stroke-dasharray="5,2" d="M148.13,-374.3C208.39,-381.88 304.07,-384.58 371,-341.23 419.25,-309.97 441.39,-239.82 449.12,-208.66"/>
<polygon fill="#9a32cd" stroke="#9a32cd" points="148.42,-370.81 138.04,-372.95 147.48,-377.75 148.42,-370.81"/>
</a>
</g>
<text text-anchor="start" x="267" y="-383.73" font-family="Helvetica,sans-Serif" font-size="10.00" fill="grey">logger_</text>
</g>
<!-- Node5 -->
<g id="Node000005" class="node">
<title>Node5</title>
<g id="a_Node000005"><a xlink:href="classhelios_1_1engine_1_1mechanics_1_1scoring_1_1ScoreCommandHandler.html" target="_top" xlink:title="Abstract interface for processing score update commands.">
<polygon fill="white" stroke="#666666" points="180,-331.23 1,-331.23 1,-301.23 180,-301.23 180,-331.23"/>
<text text-anchor="start" x="9" y="-319.23" font-family="Helvetica,sans-Serif" font-size="10.00">helios::engine::mechanics</text>
<text text-anchor="middle" x="90.5" y="-308.23" font-family="Helvetica,sans-Serif" font-size="10.00">::scoring::ScoreCommandHandler</text>
</a>
</g>
</g>
<!-- Node5&#45;&gt;Node3 -->
<g id="edge4_Node000003_Node000005" class="edge">
<title>Node5&#45;&gt;Node3</title>
<g id="a_edge4_Node000003_Node000005"><a xlink:title=" ">
<path fill="none" stroke="#9a32cd" stroke-dasharray="5,2" d="M190.45,-321.22C246.28,-320.06 315.71,-311.75 371,-283.23 404.35,-266.03 430.72,-229.24 443.7,-208.41"/>
<polygon fill="#9a32cd" stroke="#9a32cd" points="190.14,-317.72 180.19,-321.35 190.23,-324.72 190.14,-317.72"/>
</a>
</g>
<text text-anchor="start" x="225" y="-325.73" font-family="Helvetica,sans-Serif" font-size="10.00" fill="grey">scoreCommandHandler_</text>
</g>
<!-- Node6 -->
<g id="Node000006" class="node">
<title>Node6</title>
<g id="a_Node000006"><a xlink:href="classhelios_1_1engine_1_1mechanics_1_1timing_1_1TimerCommandHandler.html" target="_top" xlink:title="Abstract interface for handling TimerControlCommands.">
<polygon fill="white" stroke="#666666" points="179,-283.23 2,-283.23 2,-253.23 179,-253.23 179,-283.23"/>
<text text-anchor="start" x="10" y="-271.23" font-family="Helvetica,sans-Serif" font-size="10.00">helios::engine::mechanics</text>
<text text-anchor="middle" x="90.5" y="-260.23" font-family="Helvetica,sans-Serif" font-size="10.00">::timing::TimerCommandHandler</text>
</a>
</g>
</g>
<!-- Node6&#45;&gt;Node3 -->
<g id="edge5_Node000003_Node000006" class="edge">
<title>Node6&#45;&gt;Node3</title>
<g id="a_edge5_Node000003_Node000006"><a xlink:title=" ">
<path fill="none" stroke="#9a32cd" stroke-dasharray="5,2" d="M189.21,-263.28C243.6,-258.64 312.03,-249.65 371,-232.23 390.41,-226.5 410.95,-216.64 426.56,-208.27"/>
<polygon fill="#9a32cd" stroke="#9a32cd" points="188.9,-259.8 179.22,-264.1 189.47,-266.77 188.9,-259.8"/>
</a>
</g>
<text text-anchor="start" x="225" y="-267.73" font-family="Helvetica,sans-Serif" font-size="10.00" fill="grey">timerCommandHandler_</text>
</g>
<!-- Node7 -->
<g id="Node000007" class="node">
<title>Node7</title>
<g id="a_Node000007"><a xlink:href="classhelios_1_1engine_1_1modules_1_1ui_1_1UiActionCommandHandler.html" target="_top" xlink:title="Abstract interface for handling UI action commands.">
<polygon fill="white" stroke="#666666" points="174,-235.23 7,-235.23 7,-205.23 174,-205.23 174,-235.23"/>
<text text-anchor="start" x="15" y="-223.23" font-family="Helvetica,sans-Serif" font-size="10.00">helios::engine::modules</text>
<text text-anchor="middle" x="90.5" y="-212.23" font-family="Helvetica,sans-Serif" font-size="10.00">::ui::UiActionCommandHandler</text>
</a>
</g>
</g>
<!-- Node7&#45;&gt;Node3 -->
<g id="edge6_Node000003_Node000007" class="edge">
<title>Node7&#45;&gt;Node3</title>
<g id="a_edge6_Node000003_Node000007"><a xlink:title=" ">
<path fill="none" stroke="#9a32cd" stroke-dasharray="5,2" d="M184.44,-213.28C248.61,-208.48 332.25,-202.22 388.91,-197.99"/>
<polygon fill="#9a32cd" stroke="#9a32cd" points="184.03,-209.8 174.32,-214.04 184.55,-216.78 184.03,-209.8"/>
</a>
</g>
<text text-anchor="start" x="218" y="-216.73" font-family="Helvetica,sans-Serif" font-size="10.00" fill="grey">uiActionCommandHandler_</text>
</g>
<!-- Node8 -->
<g id="Node000008" class="node">
<title>Node8</title>
<g id="a_Node000008"><a xlink:href="classhelios_1_1engine_1_1runtime_1_1spawn_1_1SpawnCommandHandlerRegistry.html" target="_top" xlink:title="Registry that maps SpawnProfileIds to their SpawnCommandHandlers.">
<polygon fill="white" stroke="#666666" points="181,-186.73 0,-186.73 0,-145.73 181,-145.73 181,-186.73"/>
<text text-anchor="start" x="8" y="-174.73" font-family="Helvetica,sans-Serif" font-size="10.00">helios::engine::runtime</text>
<text text-anchor="start" x="8" y="-163.73" font-family="Helvetica,sans-Serif" font-size="10.00">::spawn::SpawnCommandHandler</text>
<text text-anchor="middle" x="90.5" y="-152.73" font-family="Helvetica,sans-Serif" font-size="10.00">Registry</text>
</a>
</g>
</g>
<!-- Node8&#45;&gt;Node3 -->
<g id="edge7_Node000003_Node000008" class="edge">
<title>Node8&#45;&gt;Node3</title>
<g id="a_edge7_Node000003_Node000008"><a xlink:title=" ">
<path fill="none" stroke="#9a32cd" stroke-dasharray="5,2" d="M191.28,-167.15C244.72,-168.49 311.6,-171.52 371,-178.23 376.72,-178.88 382.64,-179.69 388.56,-180.59"/>
<polygon fill="#9a32cd" stroke="#9a32cd" points="191.2,-163.65 181.12,-166.91 191.03,-170.65 191.2,-163.65"/>
</a>
</g>
<text text-anchor="start" x="202" y="-183.73" font-family="Helvetica,sans-Serif" font-size="10.00" fill="grey">spawnCommandHandlerRegistry_</text>
</g>
<!-- Node9 -->
<g id="Node000009" class="node">
<title>Node9</title>
<g id="a_Node000009"><a xlink:href="classhelios_1_1engine_1_1ecs_1_1EntityRegistry.html" target="_top" xlink:title="Central registry for creating and managing entity handles.">
<polygon fill="white" stroke="#666666" points="144,-127.23 37,-127.23 37,-97.23 144,-97.23 144,-127.23"/>
<text text-anchor="start" x="45" y="-115.23" font-family="Helvetica,sans-Serif" font-size="10.00">helios::engine::ecs</text>
<text text-anchor="middle" x="90.5" y="-104.23" font-family="Helvetica,sans-Serif" font-size="10.00">::EntityRegistry</text>
</a>
</g>
</g>
<!-- Node9&#45;&gt;Node3 -->
<g id="edge8_Node000003_Node000009" class="edge">
<title>Node9&#45;&gt;Node3</title>
<g id="a_edge8_Node000003_Node000009"><a xlink:title=" ">
<path fill="none" stroke="#9a32cd" stroke-dasharray="5,2" d="M154.14,-113.17C211.81,-115.63 299.05,-123.45 371,-147.23 392.75,-154.42 415.27,-167.64 431.1,-178.07"/>
<polygon fill="#9a32cd" stroke="#9a32cd" points="154.21,-109.67 144.08,-112.78 153.94,-116.66 154.21,-109.67"/>
</a>
</g>
<text text-anchor="start" x="248" y="-152.73" font-family="Helvetica,sans-Serif" font-size="10.00" fill="grey">entityRegistry_</text>
</g>
<!-- Node10 -->
<g id="Node000010" class="node">
<title>Node10</title>
<g id="a_Node000010"><a xlink:href="classhelios_1_1engine_1_1ecs_1_1EntityManager.html" target="_top" xlink:title="Manages entities and their associated components.">
<polygon fill="white" stroke="#666666" points="144,-79.23 37,-79.23 37,-49.23 144,-49.23 144,-79.23"/>
<text text-anchor="start" x="45" y="-67.23" font-family="Helvetica,sans-Serif" font-size="10.00">helios::engine::ecs</text>
<text text-anchor="middle" x="90.5" y="-56.23" font-family="Helvetica,sans-Serif" font-size="10.00">::EntityManager</text>
</a>
</g>
</g>
<!-- Node10&#45;&gt;Node3 -->
<g id="edge9_Node000003_Node000010" class="edge">
<title>Node10&#45;&gt;Node3</title>
<g id="a_edge9_Node000003_Node000010"><a xlink:title=" ">
<path fill="none" stroke="#9a32cd" stroke-dasharray="5,2" d="M154.11,-58.26C213.49,-55.47 303.44,-58.87 371,-95.23 406.46,-114.32 432.7,-155.8 444.9,-178.18"/>
<polygon fill="#9a32cd" stroke="#9a32cd" points="153.91,-54.77 144.12,-58.8 154.29,-61.76 153.91,-54.77"/>
</a>
</g>
<text text-anchor="start" x="274" y="-100.73" font-family="Helvetica,sans-Serif" font-size="10.00" fill="grey">em_</text>
</g>
<!-- Node11 -->
<g id="Node000011" class="node">
<title>Node11</title>
<g id="a_Node000011"><a xlink:href="classhelios_1_1engine_1_1runtime_1_1world_1_1Session.html" target="_top" xlink:title="Holds session&#45;level state for the current game instance.">
<polygon fill="white" stroke="#666666" points="155,-31.23 26,-31.23 26,-1.23 155,-1.23 155,-31.23"/>
<text text-anchor="start" x="34" y="-19.23" font-family="Helvetica,sans-Serif" font-size="10.00">helios::engine::runtime</text>
<text text-anchor="middle" x="90.5" y="-8.23" font-family="Helvetica,sans-Serif" font-size="10.00">::world::Session</text>
</a>
</g>
</g>
<!-- Node11&#45;&gt;Node3 -->
<g id="edge10_Node000003_Node000011" class="edge">
<title>Node11&#45;&gt;Node3</title>
<g id="a_edge10_Node000003_Node000011"><a xlink:title=" ">
<path fill="none" stroke="#9a32cd" stroke-dasharray="5,2" d="M165.28,-3.29C225.55,3.21 310.39,2.67 371,-37.23 421.54,-70.5 442.65,-145.62 449.63,-177.96"/>
<polygon fill="#9a32cd" stroke="#9a32cd" points="164.6,0.15 155.07,-4.48 165.41,-6.8 164.6,0.15"/>
</a>
</g>
<text text-anchor="start" x="264" y="-42.73" font-family="Helvetica,sans-Serif" font-size="10.00" fill="grey">session_</text>
</g>
<!-- Node12 -->
<g id="Node000012" class="node">
<title>Node12</title>
<g id="a_Node000012"><a xlink:href="classhelios_1_1engine_1_1runtime_1_1spawn_1_1SpawnCommandHandler.html" target="_top" xlink:title="Interface for handlers that process spawn and despawn commands.">
<polygon fill="white" stroke="#666666" points="802,-160.23 621,-160.23 621,-130.23 802,-130.23 802,-160.23"/>
<text text-anchor="start" x="629" y="-148.23" font-family="Helvetica,sans-Serif" font-size="10.00">helios::engine::runtime</text>
<text text-anchor="middle" x="711.5" y="-137.23" font-family="Helvetica,sans-Serif" font-size="10.00">::spawn::SpawnCommandHandler</text>
</a>
</g>
</g>
<!-- Node12&#45;&gt;Node1 -->
<g id="edge11_Node000001_Node000012" class="edge">
<title>Node12&#45;&gt;Node1</title>
<g id="a_edge11_Node000001_Node000012"><a xlink:title=" ">
<path fill="none" stroke="#63b8ff" d="M812.33,-151.44C821.29,-151.99 830.2,-152.55 838.77,-153.08"/>
<polygon fill="#63b8ff" stroke="#63b8ff" points="812.42,-147.94 802.22,-150.81 811.98,-154.92 812.42,-147.94"/>
</a>
</g>
</g>
</g>
</svg>

<g id="navigator" transform="translate(0 0)" fill="#404254">
  <rect fill="#f2f5e9" fill-opacity="0.5" stroke="#606060" stroke-width=".5" x="0" y="0" width="60" height="60"/>
  <use id="zoomplus" xlink:href="#zoomPlus" x="17" y="9" onmousedown="handleZoom(evt,'in')"/>
  <use id="zoomminus" xlink:href="#zoomMin" x="42" y="9" onmousedown="handleZoom(evt,'out')"/>
  <use id="reset" xlink:href="#resetDef" x="30" y="36" onmousedown="handleReset()"/>
   <use id="arrowup" xlink:href="#arrowUp" x="0" y="0" onmousedown="handlePan(0,-1)"/>
  <use id="arrowright" xlink:href="#arrowRight" x="0" y="0" onmousedown="handlePan(1,0)"/>
  <use id="arrowdown" xlink:href="#arrowDown" x="0" y="0" onmousedown="handlePan(0,1)"/>
  <use id="arrowleft" xlink:href="#arrowLeft" x="0" y="0" onmousedown="handlePan(-1,0)"/>
</g>
<svg viewBox="0 0 15 15" width="100%" height="30px" preserveAspectRatio="xMaxYMin meet">
 <g id="arrow_out" transform="scale(0.3 0.3)">
  <a xlink:href="classhelios_1_1engine_1_1runtime_1_1spawn_1_1SpawnManager__coll__graph_org.svg" target="_base">
   <rect id="button" ry="5" rx="5" y="6" x="6" height="38" width="38"
        fill="#f2f5e9" fill-opacity="0.5" stroke="#606060" stroke-width="1.0"/>
   <path id="arrow"
     d="M 11.500037,31.436501 C 11.940474,20.09759 22.043105,11.32322 32.158766,21.979434 L 37.068811,17.246167 C 37.068811,17.246167 37.088388,32 37.088388,32 L 22.160133,31.978069 C 22.160133,31.978069 26.997745,27.140456 26.997745,27.140456 C 18.528582,18.264221 13.291696,25.230495 11.500037,31.436501 z"
     style="fill:#404040;"/>
  </a>
 </g>
</svg>

<style type='text/css'>
<![CDATA[
[data-mouse-over-selected='false'] { opacity: 0.7; }
[data-mouse-over-selected='true']  { opacity: 1.0; }
]]>
</style>
<script type="application/ecmascript"><![CDATA[
document.addEventListener('DOMContentLoaded', (event) => {
  highlightEdges();
  highlightAdjacentNodes();
});
]]></script>
</svg>
