<?xml version="1.0" encoding="UTF-8" standalone="no"?>
<!DOCTYPE svg PUBLIC "-//W3C//DTD SVG 1.1//EN"
 "http://www.w3.org/Graphics/SVG/1.1/DTD/svg11.dtd">
<!-- Generated by graphviz version 2.43.0 (0)
 -->
<!-- Title: helios::engine::ecs::GameObject::add Pages: 1 -->
<svg width="491pt" height="215pt"
 viewBox="0.00 0.00 491.00 214.50" xmlns="http://www.w3.org/2000/svg" xmlns:xlink="http://www.w3.org/1999/xlink">
<g id="graph0" class="graph" transform="scale(1 1) rotate(0) translate(4 210.5)">
<title>helios::engine::ecs::GameObject::add</title>
<!-- Node1 -->
<g id="Node000001" class="node">
<title>Node1</title>
<g id="a_Node000001"><a xlink:title="Constructs and attaches a component to this entity.">
<polygon fill="#999999" stroke="#666666" points="107,-78 0,-78 0,-48 107,-48 107,-78"/>
<text text-anchor="start" x="8" y="-66" font-family="Helvetica,sans-Serif" font-size="10.00">helios::engine::ecs</text>
<text text-anchor="middle" x="53.5" y="-55" font-family="Helvetica,sans-Serif" font-size="10.00">::GameObject::add</text>
</a>
</g>
</g>
<!-- Node2 -->
<g id="Node000002" class="node">
<title>Node2</title>
<g id="a_Node000002"><a xlink:href="classhelios_1_1engine_1_1ecs_1_1types_1_1ComponentTypeId.html#a1dbab446eae5a92340c6cf90f44e1205" target="_top" xlink:title="Gets the ComponentTypeId for a specific component type.">
<polygon fill="white" stroke="#666666" points="302.5,-165 144.5,-165 144.5,-135 302.5,-135 302.5,-165"/>
<text text-anchor="start" x="152.5" y="-153" font-family="Helvetica,sans-Serif" font-size="10.00">helios::engine::ecs</text>
<text text-anchor="middle" x="223.5" y="-142" font-family="Helvetica,sans-Serif" font-size="10.00">::types::ComponentTypeId::id</text>
</a>
</g>
</g>
<!-- Node1&#45;&gt;Node2 -->
<g id="edge1_Node000001_Node000002" class="edge">
<title>Node1&#45;&gt;Node2</title>
<g id="a_edge1_Node000001_Node000002"><a xlink:title=" ">
<path fill="none" stroke="#63b8ff" d="M83.76,-78.15C111.62,-92.58 153.71,-114.38 184.22,-130.18"/>
<polygon fill="#63b8ff" stroke="#63b8ff" points="182.8,-133.38 193.29,-134.87 186.02,-127.17 182.8,-133.38"/>
</a>
</g>
</g>
<!-- Node5 -->
<g id="Node000005" class="node">
<title>Node5</title>
<g id="a_Node000005"><a xlink:href="classhelios_1_1engine_1_1ecs_1_1ComponentOpsRegistry.html#acedf93d0fcd9b72ff45b226a5c37782c" target="_top" xlink:title="Retrieves ComponentOps for a component type.">
<polygon fill="white" stroke="#666666" points="304,-78 143,-78 143,-48 304,-48 304,-78"/>
<text text-anchor="start" x="151" y="-66" font-family="Helvetica,sans-Serif" font-size="10.00">helios::engine::ecs</text>
<text text-anchor="middle" x="223.5" y="-55" font-family="Helvetica,sans-Serif" font-size="10.00">::ComponentOpsRegistry::ops</text>
</a>
</g>
</g>
<!-- Node1&#45;&gt;Node5 -->
<g id="edge6_Node000001_Node000005" class="edge">
<title>Node1&#45;&gt;Node5</title>
<g id="a_edge6_Node000001_Node000005"><a xlink:title=" ">
<path fill="none" stroke="#63b8ff" d="M107.2,-63C115.36,-63 123.98,-63 132.68,-63"/>
<polygon fill="#63b8ff" stroke="#63b8ff" points="132.92,-66.5 142.92,-63 132.92,-59.5 132.92,-66.5"/>
</a>
</g>
</g>
<!-- Node7 -->
<g id="Node000007" class="node">
<title>Node7</title>
<g id="a_Node000007"><a xlink:href="classhelios_1_1engine_1_1ecs_1_1GameObject.html#ae1f15c8383705aa5104e726aa9a8dfaa" target="_top" xlink:title="Returns raw pointer to component by type ID.">
<polygon fill="white" stroke="#666666" points="277,-30 170,-30 170,0 277,0 277,-30"/>
<text text-anchor="start" x="178" y="-18" font-family="Helvetica,sans-Serif" font-size="10.00">helios::engine::ecs</text>
<text text-anchor="middle" x="223.5" y="-7" font-family="Helvetica,sans-Serif" font-size="10.00">::GameObject::raw</text>
</a>
</g>
</g>
<!-- Node1&#45;&gt;Node7 -->
<g id="edge8_Node000001_Node000007" class="edge">
<title>Node1&#45;&gt;Node7</title>
<g id="a_edge8_Node000001_Node000007"><a xlink:title=" ">
<path fill="none" stroke="#63b8ff" d="M107.2,-47.94C123.93,-43.16 142.59,-37.83 159.95,-32.87"/>
<polygon fill="#63b8ff" stroke="#63b8ff" points="161.34,-36.11 169.99,-30 159.41,-29.38 161.34,-36.11"/>
</a>
</g>
</g>
<!-- Node3 -->
<g id="Node000003" class="node">
<title>Node3</title>
<g id="a_Node000003"><a xlink:href="classhelios_1_1engine_1_1ecs_1_1types_1_1ComponentTypeId.html#a1170d37d7a7c53debbf7b62fb3832a2e" target="_top" xlink:title="Constructs a ComponentTypeId with a specific ID value.">
<polygon fill="white" stroke="#666666" points="483,-206.5 340,-206.5 340,-165.5 483,-165.5 483,-206.5"/>
<text text-anchor="start" x="348" y="-194.5" font-family="Helvetica,sans-Serif" font-size="10.00">helios::engine::ecs</text>
<text text-anchor="start" x="348" y="-183.5" font-family="Helvetica,sans-Serif" font-size="10.00">::types::ComponentTypeId</text>
<text text-anchor="middle" x="411.5" y="-172.5" font-family="Helvetica,sans-Serif" font-size="10.00">::ComponentTypeId</text>
</a>
</g>
</g>
<!-- Node2&#45;&gt;Node3 -->
<g id="edge2_Node000002_Node000003" class="edge">
<title>Node2&#45;&gt;Node3</title>
<g id="a_edge2_Node000002_Node000003"><a xlink:title=" ">
<path fill="none" stroke="#63b8ff" d="M302.57,-158.44C311.53,-160.08 320.68,-161.84 329.67,-163.66"/>
<polygon fill="#63b8ff" stroke="#63b8ff" points="329.24,-167.14 339.74,-165.73 330.65,-160.28 329.24,-167.14"/>
</a>
</g>
</g>
<!-- Node4 -->
<g id="Node000004" class="node">
<title>Node4</title>
<g id="a_Node000004"><a xlink:href="classhelios_1_1core_1_1data_1_1TypeIndexer.html#a33aff035cb667c63fcd123a69a91b3cc" target="_top" xlink:title="Generates and returns a unique type index for a specific type.">
<polygon fill="white" stroke="#666666" points="479.5,-129 343.5,-129 343.5,-99 479.5,-99 479.5,-129"/>
<text text-anchor="start" x="351.5" y="-117" font-family="Helvetica,sans-Serif" font-size="10.00">helios::core::data</text>
<text text-anchor="middle" x="411.5" y="-106" font-family="Helvetica,sans-Serif" font-size="10.00">::TypeIndexer::typeIndex</text>
</a>
</g>
</g>
<!-- Node2&#45;&gt;Node4 -->
<g id="edge4_Node000002_Node000004" class="edge">
<title>Node2&#45;&gt;Node4</title>
<g id="a_edge4_Node000002_Node000004"><a xlink:title=" ">
<path fill="none" stroke="#63b8ff" d="M302.03,-134.99C312.46,-132.98 323.15,-130.91 333.56,-128.89"/>
<polygon fill="#63b8ff" stroke="#63b8ff" points="334.29,-132.31 343.45,-126.98 332.96,-125.44 334.29,-132.31"/>
</a>
</g>
</g>
<!-- Node3&#45;&gt;Node2 -->
<g id="edge3_Node000003_Node000002" class="edge">
<title>Node3&#45;&gt;Node2</title>
<g id="a_edge3_Node000003_Node000002"><a xlink:title=" ">
<path fill="none" stroke="#63b8ff" d="M339.65,-178.86C320.39,-175.44 299.78,-171.35 281.4,-167.29"/>
<polygon fill="#63b8ff" stroke="#63b8ff" points="281.96,-163.83 271.44,-165.04 280.42,-170.66 281.96,-163.83"/>
</a>
</g>
</g>
<!-- Node4&#45;&gt;Node4 -->
<g id="edge5_Node000004_Node000004" class="edge">
<title>Node4&#45;&gt;Node4</title>
<g id="a_edge5_Node000004_Node000004"><a xlink:title=" ">
<path fill="none" stroke="#63b8ff" d="M378.45,-129.28C371.11,-138.41 382.12,-147 411.5,-147 428.94,-147 439.91,-143.97 444.41,-139.6"/>
<polygon fill="#63b8ff" stroke="#63b8ff" points="447.91,-139.32 444.55,-129.28 440.91,-139.23 447.91,-139.32"/>
</a>
</g>
</g>
<!-- Node6 -->
<g id="Node000006" class="node">
<title>Node6</title>
<g id="a_Node000006"><a xlink:href="classhelios_1_1engine_1_1ecs_1_1types_1_1ComponentTypeId.html#a1af987bd8e91584a8093f8560d56b932" target="_top" xlink:title="Returns the underlying ID value.">
<polygon fill="white" stroke="#666666" points="483,-80.5 340,-80.5 340,-39.5 483,-39.5 483,-80.5"/>
<text text-anchor="start" x="348" y="-68.5" font-family="Helvetica,sans-Serif" font-size="10.00">helios::engine::ecs</text>
<text text-anchor="start" x="348" y="-57.5" font-family="Helvetica,sans-Serif" font-size="10.00">::types::ComponentTypeId</text>
<text text-anchor="middle" x="411.5" y="-46.5" font-family="Helvetica,sans-Serif" font-size="10.00">::value</text>
</a>
</g>
</g>
<!-- Node5&#45;&gt;Node6 -->
<g id="edge7_Node000005_Node000006" class="edge">
<title>Node5&#45;&gt;Node6</title>
<g id="a_edge7_Node000005_Node000006"><a xlink:title=" ">
<path fill="none" stroke="#63b8ff" d="M304.19,-61.71C312.6,-61.58 321.16,-61.44 329.59,-61.31"/>
<polygon fill="#63b8ff" stroke="#63b8ff" points="329.84,-64.8 339.78,-61.14 329.72,-57.8 329.84,-64.8"/>
</a>
</g>
</g>
</g>
</svg>
