<?xml version="1.0" encoding="UTF-8" standalone="no"?>
<!DOCTYPE svg PUBLIC "-//W3C//DTD SVG 1.1//EN"
 "http://www.w3.org/Graphics/SVG/1.1/DTD/svg11.dtd">
<!-- Generated by graphviz version 2.43.0 (0)
 -->
<!-- Title: helios::engine::mechanics::timing::components::GameTimerBindingComponent::GameTimerBindingComponent Pages: 1 -->
<svg width="576pt" height="226pt"
 viewBox="0.00 0.00 576.00 226.00" xmlns="http://www.w3.org/2000/svg" xmlns:xlink="http://www.w3.org/1999/xlink">
<g id="graph0" class="graph" transform="scale(1 1) rotate(0) translate(4 222)">
<title>helios::engine::mechanics::timing::components::GameTimerBindingComponent::GameTimerBindingComponent</title>
<!-- Node1 -->
<g id="Node000001" class="node">
<title>Node1</title>
<g id="a_Node000001"><a xlink:title=" ">
<polygon fill="#999999" stroke="#666666" points="568,-129 302,-129 302,-88 568,-88 568,-129"/>
<text text-anchor="start" x="310" y="-117" font-family="Helvetica,sans-Serif" font-size="10.00">helios::engine::mechanics</text>
<text text-anchor="start" x="310" y="-106" font-family="Helvetica,sans-Serif" font-size="10.00">::timing::components::GameTimer</text>
<text text-anchor="middle" x="435" y="-95" font-family="Helvetica,sans-Serif" font-size="10.00">BindingComponent::GameTimerBindingComponent</text>
</a>
</g>
</g>
<!-- Node2 -->
<g id="Node000002" class="node">
<title>Node2</title>
<g id="a_Node000002"><a xlink:href="classhelios_1_1engine_1_1mechanics_1_1timing_1_1components_1_1GameTimerBindingComponent.html#a228fb0a8311171a5793008c9fa850526" target="_top" xlink:title="Copy constructor.">
<polygon fill="white" stroke="#666666" points="266,-218 0,-218 0,-177 266,-177 266,-218"/>
<text text-anchor="start" x="8" y="-206" font-family="Helvetica,sans-Serif" font-size="10.00">helios::engine::mechanics</text>
<text text-anchor="start" x="8" y="-195" font-family="Helvetica,sans-Serif" font-size="10.00">::timing::components::GameTimer</text>
<text text-anchor="middle" x="133" y="-184" font-family="Helvetica,sans-Serif" font-size="10.00">BindingComponent::GameTimerBindingComponent</text>
</a>
</g>
</g>
<!-- Node1&#45;&gt;Node2 -->
<g id="edge1_Node000001_Node000002" class="edge">
<title>Node1&#45;&gt;Node2</title>
<g id="a_edge1_Node000001_Node000002"><a xlink:title=" ">
<path fill="none" stroke="#63b8ff" d="M372.44,-132.6C340.92,-144.4 301.74,-158.24 266,-168.5 255.63,-171.48 244.72,-174.32 233.8,-176.99"/>
<polygon fill="#63b8ff" stroke="#63b8ff" points="373.84,-135.81 381.97,-129.01 371.37,-129.26 373.84,-135.81"/>
</a>
</g>
</g>
<!-- Node3 -->
<g id="Node000003" class="node">
<title>Node3</title>
<g id="a_Node000003"><a xlink:href="classhelios_1_1engine_1_1mechanics_1_1timing_1_1components_1_1GameTimerBindingComponent.html#aaffabe91933d9a49f5cf1d3988ebed5a" target="_top" xlink:title=" ">
<polygon fill="white" stroke="#666666" points="266,-159 0,-159 0,-118 266,-118 266,-159"/>
<text text-anchor="start" x="8" y="-147" font-family="Helvetica,sans-Serif" font-size="10.00">helios::engine::mechanics</text>
<text text-anchor="start" x="8" y="-136" font-family="Helvetica,sans-Serif" font-size="10.00">::timing::components::GameTimer</text>
<text text-anchor="middle" x="133" y="-125" font-family="Helvetica,sans-Serif" font-size="10.00">BindingComponent::GameTimerBindingComponent</text>
</a>
</g>
</g>
<!-- Node1&#45;&gt;Node3 -->
<g id="edge2_Node000001_Node000003" class="edge">
<title>Node1&#45;&gt;Node3</title>
<g id="a_edge2_Node000001_Node000003"><a xlink:title=" ">
<path fill="none" stroke="#63b8ff" d="M292,-122.7C283.48,-123.55 274.93,-124.41 266.46,-125.25"/>
<polygon fill="#63b8ff" stroke="#63b8ff" points="292.38,-126.18 301.98,-121.7 291.68,-119.21 292.38,-126.18"/>
</a>
</g>
</g>
<!-- Node4 -->
<g id="Node000004" class="node">
<title>Node4</title>
<g id="a_Node000004"><a xlink:href="classhelios_1_1engine_1_1mechanics_1_1timing_1_1components_1_1GameTimerBindingComponent.html#a0ddb70094440a2dfb4d823c5e09168b6" target="_top" xlink:title=" ">
<polygon fill="white" stroke="#666666" points="225,-100 41,-100 41,-59 225,-59 225,-100"/>
<text text-anchor="start" x="49" y="-88" font-family="Helvetica,sans-Serif" font-size="10.00">helios::engine::mechanics</text>
<text text-anchor="start" x="49" y="-77" font-family="Helvetica,sans-Serif" font-size="10.00">::timing::components::GameTimer</text>
<text text-anchor="middle" x="133" y="-66" font-family="Helvetica,sans-Serif" font-size="10.00">BindingComponent::operator=</text>
</a>
</g>
</g>
<!-- Node1&#45;&gt;Node4 -->
<g id="edge3_Node000001_Node000004" class="edge">
<title>Node1&#45;&gt;Node4</title>
<g id="a_edge3_Node000001_Node000004"><a xlink:title=" ">
<path fill="none" stroke="#63b8ff" d="M291.92,-94.77C269.21,-92.57 246.25,-90.35 225.14,-88.31"/>
<polygon fill="#63b8ff" stroke="#63b8ff" points="291.69,-98.26 301.98,-95.74 292.36,-91.29 291.69,-98.26"/>
</a>
</g>
</g>
<!-- Node5 -->
<g id="Node000005" class="node">
<title>Node5</title>
<g id="a_Node000005"><a xlink:href="classhelios_1_1engine_1_1mechanics_1_1timing_1_1components_1_1GameTimerBindingComponent.html#a1774be431f8d0ed5dfde3e933edae7df" target="_top" xlink:title=" ">
<polygon fill="white" stroke="#666666" points="225,-41 41,-41 41,0 225,0 225,-41"/>
<text text-anchor="start" x="49" y="-29" font-family="Helvetica,sans-Serif" font-size="10.00">helios::engine::mechanics</text>
<text text-anchor="start" x="49" y="-18" font-family="Helvetica,sans-Serif" font-size="10.00">::timing::components::GameTimer</text>
<text text-anchor="middle" x="133" y="-7" font-family="Helvetica,sans-Serif" font-size="10.00">BindingComponent::operator=</text>
</a>
</g>
</g>
<!-- Node1&#45;&gt;Node5 -->
<g id="edge4_Node000001_Node000005" class="edge">
<title>Node1&#45;&gt;Node5</title>
<g id="a_edge4_Node000001_Node000005"><a xlink:title=" ">
<path fill="none" stroke="#63b8ff" d="M369.83,-84.51C338.73,-73.35 300.69,-60.4 266,-50.5 252.89,-46.76 238.95,-43.17 225.22,-39.87"/>
<polygon fill="#63b8ff" stroke="#63b8ff" points="368.65,-87.8 379.24,-87.9 371.03,-81.22 368.65,-87.8"/>
</a>
</g>
</g>
</g>
</svg>
