<?xml version="1.0" encoding="UTF-8" standalone="no"?>
<!DOCTYPE svg PUBLIC "-//W3C//DTD SVG 1.1//EN"
 "http://www.w3.org/Graphics/SVG/1.1/DTD/svg11.dtd">
<!-- Generated by graphviz version 2.43.0 (0)
 -->
<!-- Title: helios::engine::ecs::types::ComponentTypeId::ComponentTypeId Pages: 1 -->
<svg width="517pt" height="62pt"
 viewBox="0.00 0.00 517.00 61.50" xmlns="http://www.w3.org/2000/svg" xmlns:xlink="http://www.w3.org/1999/xlink">
<g id="graph0" class="graph" transform="scale(1 1) rotate(0) translate(4 57.5)">
<title>helios::engine::ecs::types::ComponentTypeId::ComponentTypeId</title>
<!-- Node1 -->
<g id="Node000001" class="node">
<title>Node1</title>
<g id="a_Node000001"><a xlink:title="Constructs a ComponentTypeId with a specific ID value.">
<polygon fill="#999999" stroke="#666666" points="143,-41 0,-41 0,0 143,0 143,-41"/>
<text text-anchor="start" x="8" y="-29" font-family="Helvetica,sans-Serif" font-size="10.00">helios::engine::ecs</text>
<text text-anchor="start" x="8" y="-18" font-family="Helvetica,sans-Serif" font-size="10.00">::types::ComponentTypeId</text>
<text text-anchor="middle" x="71.5" y="-7" font-family="Helvetica,sans-Serif" font-size="10.00">::ComponentTypeId</text>
</a>
</g>
</g>
<!-- Node2 -->
<g id="Node000002" class="node">
<title>Node2</title>
<g id="a_Node000002"><a xlink:href="classhelios_1_1engine_1_1ecs_1_1types_1_1ComponentTypeId.html#a1dbab446eae5a92340c6cf90f44e1205" target="_top" xlink:title="Gets the ComponentTypeId for a specific component type.">
<polygon fill="white" stroke="#666666" points="337,-35.5 179,-35.5 179,-5.5 337,-5.5 337,-35.5"/>
<text text-anchor="start" x="187" y="-23.5" font-family="Helvetica,sans-Serif" font-size="10.00">helios::engine::ecs</text>
<text text-anchor="middle" x="258" y="-12.5" font-family="Helvetica,sans-Serif" font-size="10.00">::types::ComponentTypeId::id</text>
</a>
</g>
</g>
<!-- Node1&#45;&gt;Node2 -->
<g id="edge1_Node000001_Node000002" class="edge">
<title>Node1&#45;&gt;Node2</title>
<g id="a_edge1_Node000001_Node000002"><a xlink:title=" ">
<path fill="none" stroke="#63b8ff" d="M143.04,-13.92C151.45,-13.79 160.11,-13.73 168.73,-13.76"/>
<polygon fill="#63b8ff" stroke="#63b8ff" points="168.78,-17.26 178.81,-13.82 168.83,-10.26 168.78,-17.26"/>
</a>
</g>
</g>
<!-- Node2&#45;&gt;Node1 -->
<g id="edge2_Node000002_Node000001" class="edge">
<title>Node2&#45;&gt;Node1</title>
<g id="a_edge2_Node000002_Node000001"><a xlink:title=" ">
<path fill="none" stroke="#63b8ff" d="M178.81,-27.18C170.37,-27.26 161.76,-27.27 153.29,-27.2"/>
<polygon fill="#63b8ff" stroke="#63b8ff" points="153.08,-23.7 143.04,-27.08 153,-30.7 153.08,-23.7"/>
</a>
</g>
</g>
<!-- Node3 -->
<g id="Node000003" class="node">
<title>Node3</title>
<g id="a_Node000003"><a xlink:href="classhelios_1_1core_1_1data_1_1TypeIndexer.html#a33aff035cb667c63fcd123a69a91b3cc" target="_top" xlink:title="Generates and returns a unique type index for a specific type.">
<polygon fill="white" stroke="#666666" points="509,-35.5 373,-35.5 373,-5.5 509,-5.5 509,-35.5"/>
<text text-anchor="start" x="381" y="-23.5" font-family="Helvetica,sans-Serif" font-size="10.00">helios::core::data</text>
<text text-anchor="middle" x="441" y="-12.5" font-family="Helvetica,sans-Serif" font-size="10.00">::TypeIndexer::typeIndex</text>
</a>
</g>
</g>
<!-- Node2&#45;&gt;Node3 -->
<g id="edge3_Node000002_Node000003" class="edge">
<title>Node2&#45;&gt;Node3</title>
<g id="a_edge3_Node000002_Node000003"><a xlink:title=" ">
<path fill="none" stroke="#63b8ff" d="M337.07,-20.5C345.58,-20.5 354.23,-20.5 362.72,-20.5"/>
<polygon fill="#63b8ff" stroke="#63b8ff" points="362.98,-24 372.98,-20.5 362.98,-17 362.98,-24"/>
</a>
</g>
</g>
<!-- Node3&#45;&gt;Node3 -->
<g id="edge4_Node000003_Node000003" class="edge">
<title>Node3&#45;&gt;Node3</title>
<g id="a_edge4_Node000003_Node000003"><a xlink:title=" ">
<path fill="none" stroke="#63b8ff" d="M409.01,-35.78C401.9,-44.91 412.56,-53.5 441,-53.5 457.88,-53.5 468.5,-50.47 472.86,-46.1"/>
<polygon fill="#63b8ff" stroke="#63b8ff" points="476.36,-45.82 472.99,-35.78 469.36,-45.73 476.36,-45.82"/>
</a>
</g>
</g>
</g>
</svg>
