<?xml version="1.0" encoding="UTF-8" standalone="no"?>
<!DOCTYPE svg PUBLIC "-//W3C//DTD SVG 1.1//EN"
 "http://www.w3.org/Graphics/SVG/1.1/DTD/svg11.dtd">
<!-- Generated by graphviz version 2.43.0 (0)
 -->
<!-- Title: helios::engine::ecs::EntityManager::getSparseSet Pages: 1 -->
<svg width="545pt" height="116pt"
 viewBox="0.00 0.00 545.00 115.50" xmlns="http://www.w3.org/2000/svg" xmlns:xlink="http://www.w3.org/1999/xlink">
<g id="graph0" class="graph" transform="scale(1 1) rotate(0) translate(4 111.5)">
<title>helios::engine::ecs::EntityManager::getSparseSet</title>
<!-- Node1 -->
<g id="Node000001" class="node">
<title>Node1</title>
<g id="a_Node000001"><a xlink:title="Returns the SparseSet for a component type.">
<polygon fill="#999999" stroke="#666666" points="164,-75 0,-75 0,-45 164,-45 164,-75"/>
<text text-anchor="start" x="8" y="-63" font-family="Helvetica,sans-Serif" font-size="10.00">helios::engine::ecs</text>
<text text-anchor="middle" x="82" y="-52" font-family="Helvetica,sans-Serif" font-size="10.00">::EntityManager::getSparseSet</text>
</a>
</g>
</g>
<!-- Node2 -->
<g id="Node000002" class="node">
<title>Node2</title>
<g id="a_Node000002"><a xlink:href="classhelios_1_1engine_1_1ecs_1_1types_1_1ComponentTypeId.html#a1dbab446eae5a92340c6cf90f44e1205" target="_top" xlink:title="Gets the ComponentTypeId for a specific component type.">
<polygon fill="white" stroke="#666666" points="358,-102 200,-102 200,-72 358,-72 358,-102"/>
<text text-anchor="start" x="208" y="-90" font-family="Helvetica,sans-Serif" font-size="10.00">helios::engine::ecs</text>
<text text-anchor="middle" x="279" y="-79" font-family="Helvetica,sans-Serif" font-size="10.00">::types::ComponentTypeId::id</text>
</a>
</g>
</g>
<!-- Node1&#45;&gt;Node2 -->
<g id="edge1_Node000001_Node000002" class="edge">
<title>Node1&#45;&gt;Node2</title>
<g id="a_edge1_Node000001_Node000002"><a xlink:title=" ">
<path fill="none" stroke="#63b8ff" d="M164,-71.22C172.5,-72.39 181.17,-73.59 189.75,-74.78"/>
<polygon fill="#63b8ff" stroke="#63b8ff" points="189.37,-78.26 199.75,-76.17 190.33,-71.33 189.37,-78.26"/>
</a>
</g>
</g>
<!-- Node5 -->
<g id="Node000005" class="node">
<title>Node5</title>
<g id="a_Node000005"><a xlink:href="classhelios_1_1engine_1_1ecs_1_1types_1_1ComponentTypeId.html#a1af987bd8e91584a8093f8560d56b932" target="_top" xlink:title="Returns the underlying ID value.">
<polygon fill="white" stroke="#666666" points="350.5,-53.5 207.5,-53.5 207.5,-12.5 350.5,-12.5 350.5,-53.5"/>
<text text-anchor="start" x="215.5" y="-41.5" font-family="Helvetica,sans-Serif" font-size="10.00">helios::engine::ecs</text>
<text text-anchor="start" x="215.5" y="-30.5" font-family="Helvetica,sans-Serif" font-size="10.00">::types::ComponentTypeId</text>
<text text-anchor="middle" x="279" y="-19.5" font-family="Helvetica,sans-Serif" font-size="10.00">::value</text>
</a>
</g>
</g>
<!-- Node1&#45;&gt;Node5 -->
<g id="edge6_Node000001_Node000005" class="edge">
<title>Node1&#45;&gt;Node5</title>
<g id="a_edge6_Node000001_Node000005"><a xlink:title=" ">
<path fill="none" stroke="#63b8ff" d="M164,-48.78C175.06,-47.25 186.41,-45.68 197.45,-44.15"/>
<polygon fill="#63b8ff" stroke="#63b8ff" points="198.07,-47.6 207.5,-42.76 197.11,-40.67 198.07,-47.6"/>
</a>
</g>
</g>
<!-- Node3 -->
<g id="Node000003" class="node">
<title>Node3</title>
<g id="a_Node000003"><a xlink:href="classhelios_1_1engine_1_1ecs_1_1types_1_1ComponentTypeId.html#a1170d37d7a7c53debbf7b62fb3832a2e" target="_top" xlink:title="Constructs a ComponentTypeId with a specific ID value.">
<polygon fill="white" stroke="#666666" points="537,-107.5 394,-107.5 394,-66.5 537,-66.5 537,-107.5"/>
<text text-anchor="start" x="402" y="-95.5" font-family="Helvetica,sans-Serif" font-size="10.00">helios::engine::ecs</text>
<text text-anchor="start" x="402" y="-84.5" font-family="Helvetica,sans-Serif" font-size="10.00">::types::ComponentTypeId</text>
<text text-anchor="middle" x="465.5" y="-73.5" font-family="Helvetica,sans-Serif" font-size="10.00">::ComponentTypeId</text>
</a>
</g>
</g>
<!-- Node2&#45;&gt;Node3 -->
<g id="edge2_Node000002_Node000003" class="edge">
<title>Node2&#45;&gt;Node3</title>
<g id="a_edge2_Node000002_Node000003"><a xlink:title=" ">
<path fill="none" stroke="#63b8ff" d="M358.24,-80.32C366.62,-80.24 375.16,-80.23 383.57,-80.3"/>
<polygon fill="#63b8ff" stroke="#63b8ff" points="383.7,-83.8 393.74,-80.42 383.79,-76.8 383.7,-83.8"/>
</a>
</g>
</g>
<!-- Node4 -->
<g id="Node000004" class="node">
<title>Node4</title>
<g id="a_Node000004"><a xlink:href="classhelios_1_1core_1_1data_1_1TypeIndexer.html#a33aff035cb667c63fcd123a69a91b3cc" target="_top" xlink:title="Generates and returns a unique type index for a specific type.">
<polygon fill="white" stroke="#666666" points="533.5,-30 397.5,-30 397.5,0 533.5,0 533.5,-30"/>
<text text-anchor="start" x="405.5" y="-18" font-family="Helvetica,sans-Serif" font-size="10.00">helios::core::data</text>
<text text-anchor="middle" x="465.5" y="-7" font-family="Helvetica,sans-Serif" font-size="10.00">::TypeIndexer::typeIndex</text>
</a>
</g>
</g>
<!-- Node2&#45;&gt;Node4 -->
<g id="edge4_Node000002_Node000004" class="edge">
<title>Node2&#45;&gt;Node4</title>
<g id="a_edge4_Node000002_Node000004"><a xlink:title=" ">
<path fill="none" stroke="#63b8ff" d="M332.33,-71.89C340.97,-69.11 349.78,-66.1 358,-63 380.34,-54.57 404.66,-43.74 424.41,-34.5"/>
<polygon fill="#63b8ff" stroke="#63b8ff" points="426.16,-37.55 433.71,-30.11 423.17,-31.21 426.16,-37.55"/>
</a>
</g>
</g>
<!-- Node3&#45;&gt;Node2 -->
<g id="edge3_Node000003_Node000002" class="edge">
<title>Node3&#45;&gt;Node2</title>
<g id="a_edge3_Node000003_Node000002"><a xlink:title=" ">
<path fill="none" stroke="#63b8ff" d="M393.74,-93.58C385.4,-93.72 376.8,-93.77 368.25,-93.74"/>
<polygon fill="#63b8ff" stroke="#63b8ff" points="368.27,-90.24 358.24,-93.68 368.22,-97.24 368.27,-90.24"/>
</a>
</g>
</g>
<!-- Node4&#45;&gt;Node4 -->
<g id="edge5_Node000004_Node000004" class="edge">
<title>Node4&#45;&gt;Node4</title>
<g id="a_edge5_Node000004_Node000004"><a xlink:title=" ">
<path fill="none" stroke="#63b8ff" d="M432.8,-30.28C425.54,-39.41 436.44,-48 465.5,-48 482.76,-48 493.61,-44.97 498.06,-40.6"/>
<polygon fill="#63b8ff" stroke="#63b8ff" points="501.56,-40.32 498.2,-30.28 494.56,-40.23 501.56,-40.32"/>
</a>
</g>
</g>
</g>
</svg>
