<?xml version="1.0" encoding="UTF-8" standalone="no"?>
<!DOCTYPE svg PUBLIC "-//W3C//DTD SVG 1.1//EN"
 "http://www.w3.org/Graphics/SVG/1.1/DTD/svg11.dtd">
<!-- Generated by graphviz version 2.43.0 (0)
 -->
<!-- Title: helios::scene::SceneNode::cachedWorldTransform Pages: 1 -->
<svg width="357pt" height="134pt"
 viewBox="0.00 0.00 357.00 134.00" xmlns="http://www.w3.org/2000/svg" xmlns:xlink="http://www.w3.org/1999/xlink">
<g id="graph0" class="graph" transform="scale(1 1) rotate(0) translate(4 130)">
<title>helios::scene::SceneNode::cachedWorldTransform</title>
<!-- Node1 -->
<g id="Node000001" class="node">
<title>Node1</title>
<g id="a_Node000001"><a xlink:title="Returns the current worldTransform matrix of this SceneNode **without triggering any recomputation**....">
<polygon fill="#999999" stroke="#666666" points="349,-78 208,-78 208,-48 349,-48 349,-78"/>
<text text-anchor="start" x="216" y="-66" font-family="Helvetica,sans-Serif" font-size="10.00">helios::scene::SceneNode</text>
<text text-anchor="middle" x="278.5" y="-55" font-family="Helvetica,sans-Serif" font-size="10.00">::cachedWorldTransform</text>
</a>
</g>
</g>
<!-- Node2 -->
<g id="Node000002" class="node">
<title>Node2</title>
<g id="a_Node000002"><a xlink:href="classhelios_1_1scene_1_1Scene.html#a054843594de8ccc99336935ac0cbde11" target="_top" xlink:title="Creates a Snapshot of the Scene and returns it.">
<polygon fill="white" stroke="#666666" points="144,-126 28,-126 28,-96 144,-96 144,-126"/>
<text text-anchor="start" x="36" y="-114" font-family="Helvetica,sans-Serif" font-size="10.00">helios::scene::Scene</text>
<text text-anchor="middle" x="86" y="-103" font-family="Helvetica,sans-Serif" font-size="10.00">::createSnapshot</text>
</a>
</g>
</g>
<!-- Node1&#45;&gt;Node2 -->
<g id="edge1_Node000001_Node000002" class="edge">
<title>Node1&#45;&gt;Node2</title>
<g id="a_edge1_Node000001_Node000002"><a xlink:title=" ">
<path fill="none" stroke="#63b8ff" d="M207.95,-80.52C187.02,-85.8 164.3,-91.52 144.26,-96.57"/>
<polygon fill="#63b8ff" stroke="#63b8ff" points="208.91,-83.89 217.75,-78.06 207.2,-77.11 208.91,-83.89"/>
</a>
</g>
</g>
<!-- Node3 -->
<g id="Node000003" class="node">
<title>Node3</title>
<g id="a_Node000003"><a xlink:href="classhelios_1_1scene_1_1CameraSceneNode.html#ad57acd6f8c8b2e6b02707ba1424377cb" target="_top" xlink:title="Orients this camera node to look at a target position in world space.">
<polygon fill="white" stroke="#666666" points="163,-78 9,-78 9,-48 163,-48 163,-78"/>
<text text-anchor="start" x="17" y="-66" font-family="Helvetica,sans-Serif" font-size="10.00">helios::scene::CameraScene</text>
<text text-anchor="middle" x="86" y="-55" font-family="Helvetica,sans-Serif" font-size="10.00">Node::lookAt</text>
</a>
</g>
</g>
<!-- Node1&#45;&gt;Node3 -->
<g id="edge2_Node000001_Node000003" class="edge">
<title>Node1&#45;&gt;Node3</title>
<g id="a_edge2_Node000001_Node000003"><a xlink:title=" ">
<path fill="none" stroke="#63b8ff" d="M197.9,-63C186.4,-63 174.58,-63 163.14,-63"/>
<polygon fill="#63b8ff" stroke="#63b8ff" points="197.92,-66.5 207.92,-63 197.92,-59.5 197.92,-66.5"/>
</a>
</g>
</g>
<!-- Node4 -->
<g id="Node000004" class="node">
<title>Node4</title>
<g id="a_Node000004"><a xlink:href="classhelios_1_1scene_1_1CameraSceneNode.html#ae9863cf5d6dde842d58d1c86ccec02e0" target="_top" xlink:title="Callback invoked when the world transform of this node changes.">
<polygon fill="white" stroke="#666666" points="172,-30 0,-30 0,0 172,0 172,-30"/>
<text text-anchor="start" x="8" y="-18" font-family="Helvetica,sans-Serif" font-size="10.00">helios::scene::CameraScene</text>
<text text-anchor="middle" x="86" y="-7" font-family="Helvetica,sans-Serif" font-size="10.00">Node::onWorldTransformUpdate</text>
</a>
</g>
</g>
<!-- Node1&#45;&gt;Node4 -->
<g id="edge3_Node000001_Node000004" class="edge">
<title>Node1&#45;&gt;Node4</title>
<g id="a_edge3_Node000001_Node000004"><a xlink:title=" ">
<path fill="none" stroke="#63b8ff" d="M208,-45.49C187.85,-40.41 166.03,-34.91 146.54,-30"/>
<polygon fill="#63b8ff" stroke="#63b8ff" points="207.2,-48.89 217.75,-47.94 208.91,-42.11 207.2,-48.89"/>
</a>
</g>
</g>
</g>
</svg>
