<?xml version="1.0" encoding="UTF-8" standalone="no"?>
<!DOCTYPE svg PUBLIC "-//W3C//DTD SVG 1.1//EN"
 "http://www.w3.org/Graphics/SVG/1.1/DTD/svg11.dtd">
<!-- Generated by graphviz version 2.43.0 (0)
 -->
<!-- Title: helios::core::ecs::ComponentTypeId::value Pages: 1 -->
<svg width="513pt" height="290pt"
 viewBox="0.00 0.00 513.00 289.50" xmlns="http://www.w3.org/2000/svg" xmlns:xlink="http://www.w3.org/1999/xlink">
<g id="graph0" class="graph" transform="scale(1 1) rotate(0) translate(4 285.5)">
<title>helios::core::ecs::ComponentTypeId::value</title>
<!-- Node1 -->
<g id="Node000001" class="node">
<title>Node1</title>
<g id="a_Node000001"><a xlink:title="Returns the underlying ID value.">
<polygon fill="#999999" stroke="#666666" points="505,-158.5 368,-158.5 368,-128.5 505,-128.5 505,-158.5"/>
<text text-anchor="start" x="376" y="-146.5" font-family="Helvetica,sans-Serif" font-size="10.00">helios::core::ecs::</text>
<text text-anchor="middle" x="436.5" y="-135.5" font-family="Helvetica,sans-Serif" font-size="10.00">ComponentTypeId::value</text>
</a>
</g>
</g>
<!-- Node2 -->
<g id="Node000002" class="node">
<title>Node2</title>
<g id="a_Node000002"><a xlink:href="classhelios_1_1core_1_1ecs_1_1EntityManager.html#a5344f37e8e97767977a28bc1a34691d4" target="_top" xlink:title="Checks whether an entity has a component by type ID.">
<polygon fill="white" stroke="#666666" points="321.5,-233.5 210.5,-233.5 210.5,-203.5 321.5,-203.5 321.5,-233.5"/>
<text text-anchor="start" x="218.5" y="-221.5" font-family="Helvetica,sans-Serif" font-size="10.00">helios::core::ecs::</text>
<text text-anchor="middle" x="266" y="-210.5" font-family="Helvetica,sans-Serif" font-size="10.00">EntityManager::has</text>
</a>
</g>
</g>
<!-- Node1&#45;&gt;Node2 -->
<g id="edge1_Node000001_Node000002" class="edge">
<title>Node1&#45;&gt;Node2</title>
<g id="a_edge1_Node000001_Node000002"><a xlink:title=" ">
<path fill="none" stroke="#63b8ff" d="M397.76,-163.28C378.33,-173.15 354.14,-184.99 332,-194.5 324.93,-197.54 317.33,-200.56 309.91,-203.38"/>
<polygon fill="#63b8ff" stroke="#63b8ff" points="399.57,-166.28 406.88,-158.61 396.38,-160.05 399.57,-166.28"/>
</a>
</g>
</g>
<!-- Node3 -->
<g id="Node000003" class="node">
<title>Node3</title>
<g id="a_Node000003"><a xlink:href="classhelios_1_1core_1_1ecs_1_1ComponentOpsRegistry.html#a6bcd5fbc7939a43d62c42f4e1ba7a5c9" target="_top" xlink:title=" ">
<polygon fill="white" stroke="#666666" points="332,-137 200,-137 200,-96 332,-96 332,-137"/>
<text text-anchor="start" x="208" y="-125" font-family="Helvetica,sans-Serif" font-size="10.00">helios::core::ecs::</text>
<text text-anchor="start" x="208" y="-114" font-family="Helvetica,sans-Serif" font-size="10.00">ComponentOpsRegistry</text>
<text text-anchor="middle" x="266" y="-103" font-family="Helvetica,sans-Serif" font-size="10.00">&lt; Handle_type &gt;::ops</text>
</a>
</g>
</g>
<!-- Node1&#45;&gt;Node3 -->
<g id="edge2_Node000001_Node000003" class="edge">
<title>Node1&#45;&gt;Node3</title>
<g id="a_edge2_Node000001_Node000003"><a xlink:title=" ">
<path fill="none" stroke="#63b8ff" d="M357.88,-131.06C349.27,-129.68 340.55,-128.29 332.11,-126.93"/>
<polygon fill="#63b8ff" stroke="#63b8ff" points="357.51,-134.55 367.94,-132.67 358.62,-127.64 357.51,-134.55"/>
</a>
</g>
</g>
<!-- Node8 -->
<g id="Node000008" class="node">
<title>Node8</title>
<g id="a_Node000008"><a xlink:href="classhelios_1_1core_1_1ecs_1_1ComponentOpsRegistry.html#ac63dd3ae8f096af5bc83a8fa4d53101b" target="_top" xlink:title=" ">
<polygon fill="white" stroke="#666666" points="152,-41 12,-41 12,0 152,0 152,-41"/>
<text text-anchor="start" x="20" y="-29" font-family="Helvetica,sans-Serif" font-size="10.00">helios::core::ecs::</text>
<text text-anchor="start" x="20" y="-18" font-family="Helvetica,sans-Serif" font-size="10.00">ComponentOpsRegistry</text>
<text text-anchor="middle" x="82" y="-7" font-family="Helvetica,sans-Serif" font-size="10.00">&lt; Handle_type &gt;::setOps</text>
</a>
</g>
</g>
<!-- Node1&#45;&gt;Node8 -->
<g id="edge14_Node000001_Node000008" class="edge">
<title>Node1&#45;&gt;Node8</title>
<g id="a_edge14_Node000001_Node000008"><a xlink:title=" ">
<path fill="none" stroke="#63b8ff" d="M403.38,-123.14C383.44,-111.18 356.93,-96.49 332,-86.5 273.05,-62.87 202.89,-45.15 152.09,-34.05"/>
<polygon fill="#63b8ff" stroke="#63b8ff" points="401.7,-126.21 412.06,-128.42 405.33,-120.23 401.7,-126.21"/>
</a>
</g>
</g>
<!-- Node9 -->
<g id="Node000009" class="node">
<title>Node9</title>
<g id="a_Node000009"><a xlink:href="classhelios_1_1core_1_1ecs_1_1EntityManager.html#a8aebac892be4f5422361a80329381491" target="_top" xlink:title="Returns raw void pointer to a component.">
<polygon fill="white" stroke="#666666" points="322,-185.5 210,-185.5 210,-155.5 322,-155.5 322,-185.5"/>
<text text-anchor="start" x="218" y="-173.5" font-family="Helvetica,sans-Serif" font-size="10.00">helios::core::ecs::</text>
<text text-anchor="middle" x="266" y="-162.5" font-family="Helvetica,sans-Serif" font-size="10.00">EntityManager::raw</text>
</a>
</g>
</g>
<!-- Node1&#45;&gt;Node9 -->
<g id="edge8_Node000001_Node000009" class="edge">
<title>Node1&#45;&gt;Node9</title>
<g id="a_edge8_Node000001_Node000009"><a xlink:title=" ">
<path fill="none" stroke="#63b8ff" d="M357.87,-155.94C345.82,-157.87 333.58,-159.83 322.16,-161.66"/>
<polygon fill="#63b8ff" stroke="#63b8ff" points="358.62,-159.36 367.94,-154.33 357.51,-152.45 358.62,-159.36"/>
</a>
</g>
</g>
<!-- Node4 -->
<g id="Node000004" class="node">
<title>Node4</title>
<g id="a_Node000004"><a xlink:href="classhelios_1_1core_1_1ecs_1_1EntityManager.html#a6e83aa19650466a38aba7902a50394d7" target="_top" xlink:title="Clones all components from source entity to target entity.">
<polygon fill="white" stroke="#666666" points="142,-233.5 22,-233.5 22,-203.5 142,-203.5 142,-233.5"/>
<text text-anchor="start" x="30" y="-221.5" font-family="Helvetica,sans-Serif" font-size="10.00">helios::core::ecs::</text>
<text text-anchor="middle" x="82" y="-210.5" font-family="Helvetica,sans-Serif" font-size="10.00">EntityManager::clone</text>
</a>
</g>
</g>
<!-- Node3&#45;&gt;Node4 -->
<g id="edge3_Node000003_Node000004" class="edge">
<title>Node3&#45;&gt;Node4</title>
<g id="a_edge3_Node000003_Node000004"><a xlink:title=" ">
<path fill="none" stroke="#63b8ff" d="M205.39,-142.46C203.53,-143.76 201.73,-145.1 200,-146.5 179.26,-163.26 185.89,-179.27 164,-194.5 157.38,-199.11 149.86,-202.84 142.14,-205.87"/>
<polygon fill="#63b8ff" stroke="#63b8ff" points="207.29,-145.39 213.85,-137.07 203.53,-139.49 207.29,-145.39"/>
</a>
</g>
</g>
<!-- Node5 -->
<g id="Node000005" class="node">
<title>Node5</title>
<g id="a_Node000005"><a xlink:href="classhelios_1_1core_1_1ecs_1_1EntityManager.html#ac2c7c999580310808b158d28f3c2f8b5" target="_top" xlink:title="Destroys an entity and invalidates its handle.">
<polygon fill="white" stroke="#666666" points="147.5,-185.5 16.5,-185.5 16.5,-155.5 147.5,-155.5 147.5,-185.5"/>
<text text-anchor="start" x="24.5" y="-173.5" font-family="Helvetica,sans-Serif" font-size="10.00">helios::core::ecs::</text>
<text text-anchor="middle" x="82" y="-162.5" font-family="Helvetica,sans-Serif" font-size="10.00">EntityManager::destroy</text>
</a>
</g>
</g>
<!-- Node3&#45;&gt;Node5 -->
<g id="edge4_Node000003_Node000005" class="edge">
<title>Node3&#45;&gt;Node5</title>
<g id="a_edge4_Node000003_Node000005"><a xlink:title=" ">
<path fill="none" stroke="#63b8ff" d="M189.97,-138.79C181.21,-141.39 172.41,-144.01 164,-146.5 154.3,-149.38 143.94,-152.45 133.99,-155.4"/>
<polygon fill="#63b8ff" stroke="#63b8ff" points="191.21,-142.07 199.8,-135.87 189.22,-135.36 191.21,-142.07"/>
</a>
</g>
</g>
<!-- Node6 -->
<g id="Node000006" class="node">
<title>Node6</title>
<g id="a_Node000006"><a xlink:href="classhelios_1_1core_1_1ecs_1_1EntityManager.html#a5eb69b25051f67b4f2af60a762b92e7c" target="_top" xlink:title="Enables or disables a component by type ID.">
<polygon fill="white" stroke="#666666" points="145.5,-137.5 18.5,-137.5 18.5,-107.5 145.5,-107.5 145.5,-137.5"/>
<text text-anchor="start" x="26.5" y="-125.5" font-family="Helvetica,sans-Serif" font-size="10.00">helios::core::ecs::</text>
<text text-anchor="middle" x="82" y="-114.5" font-family="Helvetica,sans-Serif" font-size="10.00">EntityManager::enable</text>
</a>
</g>
</g>
<!-- Node3&#45;&gt;Node6 -->
<g id="edge5_Node000003_Node000006" class="edge">
<title>Node3&#45;&gt;Node6</title>
<g id="a_edge5_Node000003_Node000006"><a xlink:title=" ">
<path fill="none" stroke="#63b8ff" d="M189.75,-118.98C175.07,-119.46 159.82,-119.97 145.61,-120.44"/>
<polygon fill="#63b8ff" stroke="#63b8ff" points="189.93,-122.48 199.81,-118.65 189.7,-115.48 189.93,-122.48"/>
</a>
</g>
</g>
<!-- Node7 -->
<g id="Node000007" class="node">
<title>Node7</title>
<g id="a_Node000007"><a xlink:href="classhelios_1_1core_1_1ecs_1_1EntityManager.html#a761454da8201f18ad77fc325f3020b57" target="_top" xlink:title="Removes a specific component from an entity.">
<polygon fill="white" stroke="#666666" points="147.5,-89.5 16.5,-89.5 16.5,-59.5 147.5,-59.5 147.5,-89.5"/>
<text text-anchor="start" x="24.5" y="-77.5" font-family="Helvetica,sans-Serif" font-size="10.00">helios::core::ecs::</text>
<text text-anchor="middle" x="82" y="-66.5" font-family="Helvetica,sans-Serif" font-size="10.00">EntityManager::remove</text>
</a>
</g>
</g>
<!-- Node3&#45;&gt;Node7 -->
<g id="edge6_Node000003_Node000007" class="edge">
<title>Node3&#45;&gt;Node7</title>
<g id="a_edge6_Node000003_Node000007"><a xlink:title=" ">
<path fill="none" stroke="#63b8ff" d="M189.76,-99.14C175.81,-95.92 161.34,-92.58 147.74,-89.44"/>
<polygon fill="#63b8ff" stroke="#63b8ff" points="189.28,-102.62 199.81,-101.46 190.85,-95.8 189.28,-102.62"/>
</a>
</g>
</g>
<!-- Node3&#45;&gt;Node8 -->
<g id="edge7_Node000003_Node000008" class="edge">
<title>Node3&#45;&gt;Node8</title>
<g id="a_edge7_Node000003_Node000008"><a xlink:title=" ">
<path fill="none" stroke="#63b8ff" d="M229.03,-90.16C210.25,-77.16 186.55,-61.86 164,-50.5 157.44,-47.19 150.42,-44.05 143.36,-41.14"/>
<polygon fill="#63b8ff" stroke="#63b8ff" points="227.09,-93.08 237.29,-95.95 231.11,-87.35 227.09,-93.08"/>
</a>
</g>
</g>
<!-- Node9&#45;&gt;Node4 -->
<g id="edge9_Node000009_Node000004" class="edge">
<title>Node9&#45;&gt;Node4</title>
<g id="a_edge9_Node000009_Node000004"><a xlink:title=" ">
<path fill="none" stroke="#63b8ff" d="M200.14,-187.61C180.54,-192.78 159.17,-198.41 140.12,-203.44"/>
<polygon fill="#63b8ff" stroke="#63b8ff" points="201.12,-190.97 209.9,-185.03 199.34,-184.2 201.12,-190.97"/>
</a>
</g>
</g>
<!-- Node9&#45;&gt;Node5 -->
<g id="edge10_Node000009_Node000005" class="edge">
<title>Node9&#45;&gt;Node5</title>
<g id="a_edge10_Node000009_Node000005"><a xlink:title=" ">
<path fill="none" stroke="#63b8ff" d="M199.55,-170.5C182.61,-170.5 164.39,-170.5 147.51,-170.5"/>
<polygon fill="#63b8ff" stroke="#63b8ff" points="199.9,-174 209.9,-170.5 199.9,-167 199.9,-174"/>
</a>
</g>
</g>
<!-- Node9&#45;&gt;Node6 -->
<g id="edge12_Node000009_Node000006" class="edge">
<title>Node9&#45;&gt;Node6</title>
<g id="a_edge12_Node000009_Node000006"><a xlink:title=" ">
<path fill="none" stroke="#63b8ff" d="M200.14,-153.39C180.54,-148.22 159.17,-142.59 140.12,-137.56"/>
<polygon fill="#63b8ff" stroke="#63b8ff" points="199.34,-156.8 209.9,-155.97 201.12,-150.03 199.34,-156.8"/>
</a>
</g>
</g>
<!-- Node9&#45;&gt;Node7 -->
<g id="edge13_Node000009_Node000007" class="edge">
<title>Node9&#45;&gt;Node7</title>
<g id="a_edge13_Node000009_Node000007"><a xlink:title=" ">
<path fill="none" stroke="#63b8ff" d="M205.76,-150.41C203.77,-149.17 201.84,-147.87 200,-146.5 178.62,-130.56 185.89,-113.73 164,-98.5 158.94,-94.98 153.36,-91.97 147.57,-89.4"/>
<polygon fill="#63b8ff" stroke="#63b8ff" points="204.38,-153.64 214.83,-155.39 207.75,-147.51 204.38,-153.64"/>
</a>
</g>
</g>
<!-- Node10 -->
<g id="Node000010" class="node">
<title>Node10</title>
<g id="a_Node000010"><a xlink:href="classhelios_1_1core_1_1ecs_1_1EntityManager.html#aea9fba715a5967cec7246f86436bb9bf" target="_top" xlink:title="Returns existing component or creates a new one.">
<polygon fill="white" stroke="#666666" points="164,-281.5 0,-281.5 0,-251.5 164,-251.5 164,-281.5"/>
<text text-anchor="start" x="8" y="-269.5" font-family="Helvetica,sans-Serif" font-size="10.00">helios::core::ecs::</text>
<text text-anchor="middle" x="82" y="-258.5" font-family="Helvetica,sans-Serif" font-size="10.00">EntityManager::emplaceOrGet</text>
</a>
</g>
</g>
<!-- Node9&#45;&gt;Node10 -->
<g id="edge11_Node000009_Node000010" class="edge">
<title>Node9&#45;&gt;Node10</title>
<g id="a_edge11_Node000009_Node000010"><a xlink:title=" ">
<path fill="none" stroke="#63b8ff" d="M205.76,-190.59C203.77,-191.83 201.84,-193.13 200,-194.5 178.62,-210.44 185.89,-227.27 164,-242.5 159.06,-245.93 153.63,-248.88 147.99,-251.41"/>
<polygon fill="#63b8ff" stroke="#63b8ff" points="207.75,-193.49 214.83,-185.61 204.38,-187.36 207.75,-193.49"/>
</a>
</g>
</g>
</g>
</svg>
