<?xml version="1.0" encoding="UTF-8" standalone="no"?>
<!DOCTYPE svg PUBLIC "-//W3C//DTD SVG 1.1//EN"
 "http://www.w3.org/Graphics/SVG/1.1/DTD/svg11.dtd">
<!-- Generated by graphviz version 2.43.0 (0)
 -->
<!-- Title: helios::engine::modules::physics::motion::components::Move2DComponent::direction Pages: 1 -->
<svg width="806pt" height="117pt"
 viewBox="0.00 0.00 806.00 116.50" xmlns="http://www.w3.org/2000/svg" xmlns:xlink="http://www.w3.org/1999/xlink">
<g id="graph0" class="graph" transform="scale(1 1) rotate(0) translate(4 112.5)">
<title>helios::engine::modules::physics::motion::components::Move2DComponent::direction</title>
<!-- Node1 -->
<g id="Node000001" class="node">
<title>Node1</title>
<g id="a_Node000001"><a xlink:title="Returns the current steering input direction.">
<polygon fill="#999999" stroke="#666666" points="798,-90 630,-90 630,-49 798,-49 798,-90"/>
<text text-anchor="start" x="638" y="-78" font-family="Helvetica,sans-Serif" font-size="10.00">helios::engine::modules</text>
<text text-anchor="start" x="638" y="-67" font-family="Helvetica,sans-Serif" font-size="10.00">::physics::motion::components</text>
<text text-anchor="middle" x="714" y="-56" font-family="Helvetica,sans-Serif" font-size="10.00">::Move2DComponent::direction</text>
</a>
</g>
</g>
<!-- Node2 -->
<g id="Node000002" class="node">
<title>Node2</title>
<g id="a_Node000002"><a xlink:href="classhelios_1_1engine_1_1runtime_1_1spawn_1_1behavior_1_1initializers_1_1RandomDirectionInitializer.html#acf5624e44f6f9ecdf519610807902bd2" target="_top" xlink:title="Initializes entity with a random direction.">
<polygon fill="white" stroke="#666666" points="160,-108.5 0,-108.5 0,-56.5 160,-56.5 160,-108.5"/>
<text text-anchor="start" x="8" y="-96.5" font-family="Helvetica,sans-Serif" font-size="10.00">helios::engine::runtime</text>
<text text-anchor="start" x="8" y="-85.5" font-family="Helvetica,sans-Serif" font-size="10.00">::spawn::behavior::initializers</text>
<text text-anchor="start" x="8" y="-74.5" font-family="Helvetica,sans-Serif" font-size="10.00">::RandomDirectionInitializer</text>
<text text-anchor="middle" x="80" y="-63.5" font-family="Helvetica,sans-Serif" font-size="10.00">::initialize</text>
</a>
</g>
</g>
<!-- Node1&#45;&gt;Node2 -->
<g id="edge1_Node000001_Node000002" class="edge">
<title>Node1&#45;&gt;Node2</title>
<g id="a_edge1_Node000001_Node000002"><a xlink:title=" ">
<path fill="none" stroke="#63b8ff" d="M619.64,-76.85C610.97,-77.44 602.32,-78.01 594,-78.5 417.37,-88.98 372.88,-93.11 196,-88.5 184.41,-88.2 172.17,-87.72 160.16,-87.17"/>
<polygon fill="#63b8ff" stroke="#63b8ff" points="620.07,-80.33 629.8,-76.14 619.58,-73.35 620.07,-80.33"/>
</a>
</g>
</g>
<!-- Node3 -->
<g id="Node000003" class="node">
<title>Node3</title>
<g id="a_Node000003"><a xlink:href="classhelios_1_1engine_1_1modules_1_1physics_1_1motion_1_1components_1_1Move2DComponent.html#ad0446785c240392406ac661bb3545615" target="_top" xlink:title="Sets the movement direction and throttle.">
<polygon fill="white" stroke="#666666" points="362,-79 196,-79 196,-38 362,-38 362,-79"/>
<text text-anchor="start" x="204" y="-67" font-family="Helvetica,sans-Serif" font-size="10.00">helios::engine::modules</text>
<text text-anchor="start" x="204" y="-56" font-family="Helvetica,sans-Serif" font-size="10.00">::physics::motion::components</text>
<text text-anchor="middle" x="279" y="-45" font-family="Helvetica,sans-Serif" font-size="10.00">::Move2DComponent::move</text>
</a>
</g>
</g>
<!-- Node1&#45;&gt;Node3 -->
<g id="edge2_Node000001_Node000003" class="edge">
<title>Node1&#45;&gt;Node3</title>
<g id="a_edge2_Node000001_Node000003"><a xlink:title=" ">
<path fill="none" stroke="#63b8ff" d="M619.64,-67.13C543.04,-65.18 435.62,-62.45 362.23,-60.59"/>
<polygon fill="#63b8ff" stroke="#63b8ff" points="619.68,-70.63 629.77,-67.39 619.86,-63.63 619.68,-70.63"/>
</a>
</g>
</g>
<!-- Node4 -->
<g id="Node000004" class="node">
<title>Node4</title>
<g id="a_Node000004"><a xlink:href="classhelios_1_1engine_1_1modules_1_1physics_1_1motion_1_1components_1_1Move2DComponent.html#aa1f4491a3cb463f1af0145b4e70815a7" target="_top" xlink:title="Sets the movement direction and throttle.">
<polygon fill="white" stroke="#666666" points="594,-41 398,-41 398,0 594,0 594,-41"/>
<text text-anchor="start" x="406" y="-29" font-family="Helvetica,sans-Serif" font-size="10.00">helios::engine::modules</text>
<text text-anchor="start" x="406" y="-18" font-family="Helvetica,sans-Serif" font-size="10.00">::physics::motion::components</text>
<text text-anchor="middle" x="496" y="-7" font-family="Helvetica,sans-Serif" font-size="10.00">::Move2DComponent::setMoveIntent</text>
</a>
</g>
</g>
<!-- Node1&#45;&gt;Node4 -->
<g id="edge4_Node000001_Node000004" class="edge">
<title>Node1&#45;&gt;Node4</title>
<g id="a_edge4_Node000001_Node000004"><a xlink:title=" ">
<path fill="none" stroke="#63b8ff" d="M620.02,-48.41C609.3,-45.98 598.38,-43.5 587.7,-41.07"/>
<polygon fill="#63b8ff" stroke="#63b8ff" points="619.27,-51.83 629.8,-50.63 620.82,-45 619.27,-51.83"/>
</a>
</g>
</g>
<!-- Node3&#45;&gt;Node2 -->
<g id="edge3_Node000003_Node000002" class="edge">
<title>Node3&#45;&gt;Node2</title>
<g id="a_edge3_Node000003_Node000002"><a xlink:title=" ">
<path fill="none" stroke="#63b8ff" d="M185.84,-69.73C177.25,-70.77 168.6,-71.83 160.14,-72.86"/>
<polygon fill="#63b8ff" stroke="#63b8ff" points="186.38,-73.19 195.88,-68.5 185.53,-66.24 186.38,-73.19"/>
</a>
</g>
</g>
<!-- Node4&#45;&gt;Node3 -->
<g id="edge5_Node000004_Node000003" class="edge">
<title>Node4&#45;&gt;Node3</title>
<g id="a_edge5_Node000004_Node000003"><a xlink:title=" ">
<path fill="none" stroke="#63b8ff" d="M387.8,-39.45C379.21,-40.97 370.61,-42.48 362.23,-43.97"/>
<polygon fill="#63b8ff" stroke="#63b8ff" points="388.64,-42.85 397.88,-37.67 387.42,-35.96 388.64,-42.85"/>
</a>
</g>
</g>
</g>
</svg>
