<?xml version="1.0" encoding="UTF-8" standalone="no"?>
<!DOCTYPE svg PUBLIC "-//W3C//DTD SVG 1.1//EN"
 "http://www.w3.org/Graphics/SVG/1.1/DTD/svg11.dtd">
<!-- Generated by graphviz version 2.43.0 (0)
 -->
<!-- Title: helios::engine::runtime::world::UpdateContext::session Pages: 1 -->
<svg width="601pt" height="378pt"
 viewBox="0.00 0.00 601.00 378.00" xmlns="http://www.w3.org/2000/svg" xmlns:xlink="http://www.w3.org/1999/xlink">
<g id="graph0" class="graph" transform="scale(1 1) rotate(0) translate(4 374)">
<title>helios::engine::runtime::world::UpdateContext::session</title>
<!-- Node1 -->
<g id="Node000001" class="node">
<title>Node1</title>
<g id="a_Node000001"><a xlink:title="Returns the session for game/match state access.">
<polygon fill="#999999" stroke="#666666" points="593,-200 464,-200 464,-159 593,-159 593,-200"/>
<text text-anchor="start" x="472" y="-188" font-family="Helvetica,sans-Serif" font-size="10.00">helios::engine::runtime</text>
<text text-anchor="start" x="472" y="-177" font-family="Helvetica,sans-Serif" font-size="10.00">::world::UpdateContext</text>
<text text-anchor="middle" x="528.5" y="-166" font-family="Helvetica,sans-Serif" font-size="10.00">::session</text>
</a>
</g>
</g>
<!-- Node2 -->
<g id="Node000002" class="node">
<title>Node2</title>
<g id="a_Node000002"><a xlink:href="classhelios_1_1engine_1_1state_1_1StateManager.html#a9819c7a390fe2e1dc79aa03d3b36268d" target="_top" xlink:title=" ">
<polygon fill="white" stroke="#666666" points="394.5,-370 265.5,-370 265.5,-329 394.5,-329 394.5,-370"/>
<text text-anchor="start" x="273.5" y="-358" font-family="Helvetica,sans-Serif" font-size="10.00">helios::engine::state</text>
<text text-anchor="start" x="273.5" y="-347" font-family="Helvetica,sans-Serif" font-size="10.00">::StateManager&lt; types</text>
<text text-anchor="middle" x="330" y="-336" font-family="Helvetica,sans-Serif" font-size="10.00">::GameState &gt;::flush</text>
</a>
</g>
</g>
<!-- Node1&#45;&gt;Node2 -->
<g id="edge1_Node000001_Node000002" class="edge">
<title>Node1&#45;&gt;Node2</title>
<g id="a_edge1_Node000001_Node000002"><a xlink:title=" ">
<path fill="none" stroke="#63b8ff" d="M513.68,-209.36C497.49,-241.15 467.73,-290.75 428,-319.5 418.08,-326.68 406.39,-332.18 394.63,-336.37"/>
<polygon fill="#63b8ff" stroke="#63b8ff" points="516.96,-210.62 518.26,-200.11 510.69,-207.51 516.96,-210.62"/>
</a>
</g>
</g>
<!-- Node3 -->
<g id="Node000003" class="node">
<title>Node3</title>
<g id="a_Node000003"><a xlink:href="classhelios_1_1engine_1_1mechanics_1_1match_1_1rules_1_1guards_1_1DefaultMatchStateTransitionGuards.html#a109553aa2c80973deac10b12b4c7512a" target="_top" xlink:title="Guard that allows transition only if the player has lives left.">
<polygon fill="white" stroke="#666666" points="428,-310.5 232,-310.5 232,-258.5 428,-258.5 428,-310.5"/>
<text text-anchor="start" x="240" y="-298.5" font-family="Helvetica,sans-Serif" font-size="10.00">helios::engine::mechanics</text>
<text text-anchor="start" x="240" y="-287.5" font-family="Helvetica,sans-Serif" font-size="10.00">::match::rules::guards</text>
<text text-anchor="start" x="240" y="-276.5" font-family="Helvetica,sans-Serif" font-size="10.00">::DefaultMatchStateTransitionGuards</text>
<text text-anchor="middle" x="330" y="-265.5" font-family="Helvetica,sans-Serif" font-size="10.00">::hasLifeLeft</text>
</a>
</g>
</g>
<!-- Node1&#45;&gt;Node3 -->
<g id="edge2_Node000001_Node000003" class="edge">
<title>Node1&#45;&gt;Node3</title>
<g id="a_edge2_Node000001_Node000003"><a xlink:title=" ">
<path fill="none" stroke="#63b8ff" d="M493.95,-206.5C475.31,-220.61 451.24,-237.41 428,-249.5 421.96,-252.64 415.58,-255.62 409.09,-258.41"/>
<polygon fill="#63b8ff" stroke="#63b8ff" points="496.32,-209.1 502.12,-200.23 492.05,-203.54 496.32,-209.1"/>
</a>
</g>
</g>
<!-- Node5 -->
<g id="Node000005" class="node">
<title>Node5</title>
<g id="a_Node000005"><a xlink:href="classhelios_1_1engine_1_1mechanics_1_1match_1_1rules_1_1guards_1_1DefaultMatchStateTransitionGuards.html#a01c761773a5709e9d85b57e050a146dd" target="_top" xlink:title="Guard that allows transition only if the player is active.">
<polygon fill="white" stroke="#666666" points="428,-240.5 232,-240.5 232,-188.5 428,-188.5 428,-240.5"/>
<text text-anchor="start" x="240" y="-228.5" font-family="Helvetica,sans-Serif" font-size="10.00">helios::engine::mechanics</text>
<text text-anchor="start" x="240" y="-217.5" font-family="Helvetica,sans-Serif" font-size="10.00">::match::rules::guards</text>
<text text-anchor="start" x="240" y="-206.5" font-family="Helvetica,sans-Serif" font-size="10.00">::DefaultMatchStateTransitionGuards</text>
<text text-anchor="middle" x="330" y="-195.5" font-family="Helvetica,sans-Serif" font-size="10.00">::isPlayerActive</text>
</a>
</g>
</g>
<!-- Node1&#45;&gt;Node5 -->
<g id="edge4_Node000001_Node000005" class="edge">
<title>Node1&#45;&gt;Node5</title>
<g id="a_edge4_Node000001_Node000005"><a xlink:title=" ">
<path fill="none" stroke="#63b8ff" d="M453.89,-192.61C445.51,-194.1 436.87,-195.64 428.24,-197.18"/>
<polygon fill="#63b8ff" stroke="#63b8ff" points="454.74,-196.01 463.97,-190.82 453.51,-189.12 454.74,-196.01"/>
</a>
</g>
</g>
<!-- Node6 -->
<g id="Node000006" class="node">
<title>Node6</title>
<g id="a_Node000006"><a xlink:href="classhelios_1_1engine_1_1mechanics_1_1match_1_1rules_1_1guards_1_1DefaultMatchStateTransitionGuards.html#acd3a0f438f7415d464e9b40813bed226" target="_top" xlink:title="Guard that allows transition only if the player is inactive.">
<polygon fill="white" stroke="#666666" points="428,-170.5 232,-170.5 232,-118.5 428,-118.5 428,-170.5"/>
<text text-anchor="start" x="240" y="-158.5" font-family="Helvetica,sans-Serif" font-size="10.00">helios::engine::mechanics</text>
<text text-anchor="start" x="240" y="-147.5" font-family="Helvetica,sans-Serif" font-size="10.00">::match::rules::guards</text>
<text text-anchor="start" x="240" y="-136.5" font-family="Helvetica,sans-Serif" font-size="10.00">::DefaultMatchStateTransitionGuards</text>
<text text-anchor="middle" x="330" y="-125.5" font-family="Helvetica,sans-Serif" font-size="10.00">::isPlayerInactive</text>
</a>
</g>
</g>
<!-- Node1&#45;&gt;Node6 -->
<g id="edge5_Node000001_Node000006" class="edge">
<title>Node1&#45;&gt;Node6</title>
<g id="a_edge5_Node000001_Node000006"><a xlink:title=" ">
<path fill="none" stroke="#63b8ff" d="M453.89,-166.39C445.51,-164.9 436.87,-163.36 428.24,-161.82"/>
<polygon fill="#63b8ff" stroke="#63b8ff" points="453.51,-169.88 463.97,-168.18 454.74,-162.99 453.51,-169.88"/>
</a>
</g>
</g>
<!-- Node7 -->
<g id="Node000007" class="node">
<title>Node7</title>
<g id="a_Node000007"><a xlink:href="classhelios_1_1engine_1_1runtime_1_1gameloop_1_1TypedPass.html#a7733ed1cd17abc4a3c85da27684b6c2b" target="_top" xlink:title="Checks if this pass should execute based on current state.">
<polygon fill="white" stroke="#666666" points="394.5,-100 265.5,-100 265.5,-59 394.5,-59 394.5,-100"/>
<text text-anchor="start" x="273.5" y="-88" font-family="Helvetica,sans-Serif" font-size="10.00">helios::engine::runtime</text>
<text text-anchor="start" x="273.5" y="-77" font-family="Helvetica,sans-Serif" font-size="10.00">::gameloop::TypedPass</text>
<text text-anchor="middle" x="330" y="-66" font-family="Helvetica,sans-Serif" font-size="10.00">::shouldRun</text>
</a>
</g>
</g>
<!-- Node1&#45;&gt;Node7 -->
<g id="edge6_Node000001_Node000007" class="edge">
<title>Node1&#45;&gt;Node7</title>
<g id="a_edge6_Node000001_Node000007"><a xlink:title=" ">
<path fill="none" stroke="#63b8ff" d="M494.81,-152.56C476.15,-138.22 451.78,-121.18 428,-109.5 417.56,-104.37 406.05,-99.89 394.73,-96.07"/>
<polygon fill="#63b8ff" stroke="#63b8ff" points="492.67,-155.33 502.71,-158.73 496.98,-149.81 492.67,-155.33"/>
</a>
</g>
</g>
<!-- Node8 -->
<g id="Node000008" class="node">
<title>Node8</title>
<g id="a_Node000008"><a xlink:href="classhelios_1_1engine_1_1runtime_1_1world_1_1UpdateContext.html#a186df1b69195b2e1b62baf532aadf252" target="_top" xlink:title="Constructs an UpdateContext with all per&#45;frame dependencies.">
<polygon fill="white" stroke="#666666" points="394.5,-41 265.5,-41 265.5,0 394.5,0 394.5,-41"/>
<text text-anchor="start" x="273.5" y="-29" font-family="Helvetica,sans-Serif" font-size="10.00">helios::engine::runtime</text>
<text text-anchor="start" x="273.5" y="-18" font-family="Helvetica,sans-Serif" font-size="10.00">::world::UpdateContext</text>
<text text-anchor="middle" x="330" y="-7" font-family="Helvetica,sans-Serif" font-size="10.00">::UpdateContext</text>
</a>
</g>
</g>
<!-- Node1&#45;&gt;Node8 -->
<g id="edge7_Node000001_Node000008" class="edge">
<title>Node1&#45;&gt;Node8</title>
<g id="a_edge7_Node000001_Node000008"><a xlink:title=" ">
<path fill="none" stroke="#63b8ff" d="M511.9,-149.91C494.98,-120.59 465.32,-76.41 428,-50.5 418.01,-43.56 406.36,-38.19 394.67,-34.03"/>
<polygon fill="#63b8ff" stroke="#63b8ff" points="508.98,-151.87 516.94,-158.87 515.08,-148.44 508.98,-151.87"/>
</a>
</g>
</g>
<!-- Node4 -->
<g id="Node000004" class="node">
<title>Node4</title>
<g id="a_Node000004"><a xlink:href="classhelios_1_1engine_1_1mechanics_1_1match_1_1rules_1_1guards_1_1DefaultMatchStateTransitionGuards.html#ad00a2fd69fc2572571fd2aa43753f218" target="_top" xlink:title="Guard that allows transition only if the player has no lives left.">
<polygon fill="white" stroke="#666666" points="196,-310.5 0,-310.5 0,-258.5 196,-258.5 196,-310.5"/>
<text text-anchor="start" x="8" y="-298.5" font-family="Helvetica,sans-Serif" font-size="10.00">helios::engine::mechanics</text>
<text text-anchor="start" x="8" y="-287.5" font-family="Helvetica,sans-Serif" font-size="10.00">::match::rules::guards</text>
<text text-anchor="start" x="8" y="-276.5" font-family="Helvetica,sans-Serif" font-size="10.00">::DefaultMatchStateTransitionGuards</text>
<text text-anchor="middle" x="98" y="-265.5" font-family="Helvetica,sans-Serif" font-size="10.00">::hasNoLifeLeft</text>
</a>
</g>
</g>
<!-- Node3&#45;&gt;Node4 -->
<g id="edge3_Node000003_Node000004" class="edge">
<title>Node3&#45;&gt;Node4</title>
<g id="a_edge3_Node000003_Node000004"><a xlink:title=" ">
<path fill="none" stroke="#63b8ff" d="M221.53,-284.5C213.09,-284.5 204.6,-284.5 196.23,-284.5"/>
<polygon fill="#63b8ff" stroke="#63b8ff" points="221.79,-288 231.79,-284.5 221.79,-281 221.79,-288"/>
</a>
</g>
</g>
</g>
</svg>
