<?xml version="1.0" encoding="UTF-8" standalone="no"?>
<!DOCTYPE svg PUBLIC "-//W3C//DTD SVG 1.1//EN"
 "http://www.w3.org/Graphics/SVG/1.1/DTD/svg11.dtd">
<!-- Generated by graphviz version 2.43.0 (0)
 -->
<!-- Title: helios::engine::runtime::world::Session::viewportIds Pages: 1 -->
<svg width="372pt" height="56pt"
 viewBox="0.00 0.00 372.00 56.00" xmlns="http://www.w3.org/2000/svg" xmlns:xlink="http://www.w3.org/1999/xlink">
<g id="graph0" class="graph" transform="scale(1 1) rotate(0) translate(4 52)">
<title>helios::engine::runtime::world::Session::viewportIds</title>
<!-- Node1 -->
<g id="Node000001" class="node">
<title>Node1</title>
<g id="a_Node000001"><a xlink:title="Returns the currently active viewport IDs.">
<polygon fill="#999999" stroke="#666666" points="364,-30 208,-30 208,0 364,0 364,-30"/>
<text text-anchor="start" x="216" y="-18" font-family="Helvetica,sans-Serif" font-size="10.00">helios::engine::runtime</text>
<text text-anchor="middle" x="286" y="-7" font-family="Helvetica,sans-Serif" font-size="10.00">::world::Session::viewportIds</text>
</a>
</g>
</g>
<!-- Node1&#45;&gt;Node1 -->
<g id="edge3_Node000001_Node000001" class="edge">
<title>Node1&#45;&gt;Node1</title>
<g id="a_edge3_Node000001_Node000001"><a xlink:title=" ">
<path fill="none" stroke="#63b8ff" d="M321.01,-40.6C316.22,-44.97 304.55,-48 286,-48 254.75,-48 243.03,-39.41 250.84,-30.28"/>
<polygon fill="#63b8ff" stroke="#63b8ff" points="324.51,-40.32 321.16,-30.28 317.51,-40.22 324.51,-40.32"/>
</a>
</g>
</g>
<!-- Node2 -->
<g id="Node000002" class="node">
<title>Node2</title>
<g id="a_Node000002"><a xlink:href="classhelios_1_1engine_1_1runtime_1_1world_1_1Session.html#a47209315dab5adb5c3ecd96b7bfcdf0f" target="_top" xlink:title="Replaces the active viewport IDs with the provided list.">
<polygon fill="white" stroke="#666666" points="172,-30 0,-30 0,0 172,0 172,-30"/>
<text text-anchor="start" x="8" y="-18" font-family="Helvetica,sans-Serif" font-size="10.00">helios::engine::runtime</text>
<text text-anchor="middle" x="86" y="-7" font-family="Helvetica,sans-Serif" font-size="10.00">::world::Session::setViewportIds</text>
</a>
</g>
</g>
<!-- Node1&#45;&gt;Node2 -->
<g id="edge1_Node000001_Node000002" class="edge">
<title>Node1&#45;&gt;Node2</title>
<g id="a_edge1_Node000001_Node000002"><a xlink:title=" ">
<path fill="none" stroke="#63b8ff" d="M197.62,-15C189.15,-15 180.56,-15 172.11,-15"/>
<polygon fill="#63b8ff" stroke="#63b8ff" points="197.88,-18.5 207.88,-15 197.88,-11.5 197.88,-18.5"/>
</a>
</g>
</g>
<!-- Node2&#45;&gt;Node2 -->
<g id="edge2_Node000002_Node000002" class="edge">
<title>Node2&#45;&gt;Node2</title>
<g id="a_edge2_Node000002_Node000002"><a xlink:title=" ">
<path fill="none" stroke="#63b8ff" d="M121.01,-40.6C116.22,-44.97 104.55,-48 86,-48 54.75,-48 43.03,-39.41 50.84,-30.28"/>
<polygon fill="#63b8ff" stroke="#63b8ff" points="124.51,-40.32 121.16,-30.28 117.51,-40.22 124.51,-40.32"/>
</a>
</g>
</g>
</g>
</svg>
