<?xml version="1.0" encoding="UTF-8" standalone="no"?>
<!DOCTYPE svg PUBLIC "-//W3C//DTD SVG 1.1//EN"
 "http://www.w3.org/Graphics/SVG/1.1/DTD/svg11.dtd">
<!-- Generated by graphviz version 2.43.0 (0)
 -->
<!-- Title: helios::engine::runtime::messaging::command::types::CommandBufferTypeId::CommandBufferTypeId Pages: 1 -->
<svg width="553pt" height="67pt"
 viewBox="0.00 0.00 553.00 67.00" xmlns="http://www.w3.org/2000/svg" xmlns:xlink="http://www.w3.org/1999/xlink">
<g id="graph0" class="graph" transform="scale(1 1) rotate(0) translate(4 63)">
<title>helios::engine::runtime::messaging::command::types::CommandBufferTypeId::CommandBufferTypeId</title>
<!-- Node1 -->
<g id="Node000001" class="node">
<title>Node1</title>
<g id="a_Node000001"><a xlink:title="Constructs a CommandBufferTypeId with a specific value.">
<polygon fill="#999999" stroke="#666666" points="161,-52 0,-52 0,0 161,0 161,-52"/>
<text text-anchor="start" x="8" y="-40" font-family="Helvetica,sans-Serif" font-size="10.00">helios::engine::runtime</text>
<text text-anchor="start" x="8" y="-29" font-family="Helvetica,sans-Serif" font-size="10.00">::messaging::command::</text>
<text text-anchor="start" x="8" y="-18" font-family="Helvetica,sans-Serif" font-size="10.00">types::CommandBufferTypeId</text>
<text text-anchor="middle" x="80.5" y="-7" font-family="Helvetica,sans-Serif" font-size="10.00">::CommandBufferTypeId</text>
</a>
</g>
</g>
<!-- Node2 -->
<g id="Node000002" class="node">
<title>Node2</title>
<g id="a_Node000002"><a xlink:href="classhelios_1_1engine_1_1runtime_1_1messaging_1_1command_1_1types_1_1CommandBufferTypeId.html#ade31ce20e6ca83b0262b0f9ac3088d7d" target="_top" xlink:title="Returns the CommandBufferTypeId for a specific command type.">
<polygon fill="white" stroke="#666666" points="373,-46.5 197,-46.5 197,-5.5 373,-5.5 373,-46.5"/>
<text text-anchor="start" x="205" y="-34.5" font-family="Helvetica,sans-Serif" font-size="10.00">helios::engine::runtime</text>
<text text-anchor="start" x="205" y="-23.5" font-family="Helvetica,sans-Serif" font-size="10.00">::messaging::command::</text>
<text text-anchor="middle" x="285" y="-12.5" font-family="Helvetica,sans-Serif" font-size="10.00">types::CommandBufferTypeId::id</text>
</a>
</g>
</g>
<!-- Node1&#45;&gt;Node2 -->
<g id="edge1_Node000001_Node000002" class="edge">
<title>Node1&#45;&gt;Node2</title>
<g id="a_edge1_Node000001_Node000002"><a xlink:title=" ">
<path fill="none" stroke="#63b8ff" d="M161.24,-19.39C169.67,-19.28 178.32,-19.23 186.92,-19.26"/>
<polygon fill="#63b8ff" stroke="#63b8ff" points="186.96,-22.76 196.98,-19.31 187,-15.76 186.96,-22.76"/>
</a>
</g>
</g>
<!-- Node2&#45;&gt;Node1 -->
<g id="edge2_Node000002_Node000001" class="edge">
<title>Node2&#45;&gt;Node1</title>
<g id="a_edge2_Node000002_Node000001"><a xlink:title=" ">
<path fill="none" stroke="#63b8ff" d="M196.98,-32.69C188.54,-32.76 179.97,-32.77 171.5,-32.71"/>
<polygon fill="#63b8ff" stroke="#63b8ff" points="171.28,-29.21 161.24,-32.61 171.21,-36.21 171.28,-29.21"/>
</a>
</g>
</g>
<!-- Node3 -->
<g id="Node000003" class="node">
<title>Node3</title>
<g id="a_Node000003"><a xlink:href="classhelios_1_1core_1_1data_1_1TypeIndexer.html#a33aff035cb667c63fcd123a69a91b3cc" target="_top" xlink:title="Generates and returns a unique type index for a specific type.">
<polygon fill="white" stroke="#666666" points="545,-41 409,-41 409,-11 545,-11 545,-41"/>
<text text-anchor="start" x="417" y="-29" font-family="Helvetica,sans-Serif" font-size="10.00">helios::core::data</text>
<text text-anchor="middle" x="477" y="-18" font-family="Helvetica,sans-Serif" font-size="10.00">::TypeIndexer::typeIndex</text>
</a>
</g>
</g>
<!-- Node2&#45;&gt;Node3 -->
<g id="edge3_Node000002_Node000003" class="edge">
<title>Node2&#45;&gt;Node3</title>
<g id="a_edge3_Node000002_Node000003"><a xlink:title=" ">
<path fill="none" stroke="#63b8ff" d="M373.21,-26C381.75,-26 390.36,-26 398.78,-26"/>
<polygon fill="#63b8ff" stroke="#63b8ff" points="398.94,-29.5 408.94,-26 398.94,-22.5 398.94,-29.5"/>
</a>
</g>
</g>
<!-- Node3&#45;&gt;Node3 -->
<g id="edge4_Node000003_Node000003" class="edge">
<title>Node3&#45;&gt;Node3</title>
<g id="a_edge4_Node000003_Node000003"><a xlink:title=" ">
<path fill="none" stroke="#63b8ff" d="M443.25,-41.28C435.75,-50.41 447,-59 477,-59 494.81,-59 506.01,-55.97 510.61,-51.6"/>
<polygon fill="#63b8ff" stroke="#63b8ff" points="514.11,-51.32 510.75,-41.28 507.11,-51.23 514.11,-51.32"/>
</a>
</g>
</g>
</g>
</svg>
