<?xml version="1.0" encoding="UTF-8" standalone="no"?>
<!DOCTYPE svg PUBLIC "-//W3C//DTD SVG 1.1//EN"
 "http://www.w3.org/Graphics/SVG/1.1/DTD/svg11.dtd">
<!-- Generated by graphviz version 2.43.0 (0)
 -->
<!-- Title: helios::engine::mechanics::input::systems::TwinStickInputSystem Pages: 1 -->
<svg width="944pt" height="253pt"
 viewBox="0.00 0.00 944.00 253.00" xmlns="http://www.w3.org/2000/svg" xmlns:xlink="http://www.w3.org/1999/xlink">
<g id="graph0" class="graph" transform="scale(1 1) rotate(0) translate(4 249)">
<title>helios::engine::mechanics::input::systems::TwinStickInputSystem</title>
<!-- Node1 -->
<g id="Node000001" class="node">
<title>Node1</title>
<g id="a_Node000001"><a xlink:title="Input component for twin&#45;stick gamepad control schemes.">
<polygon fill="#999999" stroke="#666666" points="936,-161.5 765,-161.5 765,-120.5 936,-120.5 936,-161.5"/>
<text text-anchor="start" x="773" y="-149.5" font-family="Helvetica,sans-Serif" font-size="10.00">helios::engine::mechanics</text>
<text text-anchor="start" x="773" y="-138.5" font-family="Helvetica,sans-Serif" font-size="10.00">::input::systems::TwinStickInput</text>
<text text-anchor="middle" x="850.5" y="-127.5" font-family="Helvetica,sans-Serif" font-size="10.00">System</text>
</a>
</g>
</g>
<!-- Node2 -->
<g id="Node000002" class="node">
<title>Node2</title>
<g id="a_Node000002"><a xlink:href="classhelios_1_1engine_1_1ecs_1_1System.html" target="_top" xlink:title="Abstract base class for game systems.">
<polygon fill="white" stroke="#666666" points="728,-156 621,-156 621,-126 728,-126 728,-156"/>
<text text-anchor="start" x="629" y="-144" font-family="Helvetica,sans-Serif" font-size="10.00">helios::engine::ecs</text>
<text text-anchor="middle" x="674.5" y="-133" font-family="Helvetica,sans-Serif" font-size="10.00">::System</text>
</a>
</g>
</g>
<!-- Node2&#45;&gt;Node1 -->
<g id="edge1_Node000001_Node000002" class="edge">
<title>Node2&#45;&gt;Node1</title>
<g id="a_edge1_Node000001_Node000002"><a xlink:title=" ">
<path fill="none" stroke="#63b8ff" d="M738.46,-141C747.04,-141 755.97,-141 764.86,-141"/>
<polygon fill="#63b8ff" stroke="#63b8ff" points="738.18,-137.5 728.18,-141 738.18,-144.5 738.18,-137.5"/>
</a>
</g>
</g>
<!-- Node3 -->
<g id="Node000003" class="node">
<title>Node3</title>
<g id="a_Node000003"><a xlink:href="classhelios_1_1engine_1_1ecs_1_1Updatable.html" target="_top" xlink:title="Interface for components that require per&#45;frame updates.">
<polygon fill="white" stroke="#666666" points="507,-180 400,-180 400,-150 507,-150 507,-180"/>
<text text-anchor="start" x="408" y="-168" font-family="Helvetica,sans-Serif" font-size="10.00">helios::engine::ecs</text>
<text text-anchor="middle" x="453.5" y="-157" font-family="Helvetica,sans-Serif" font-size="10.00">::Updatable</text>
</a>
</g>
</g>
<!-- Node3&#45;&gt;Node2 -->
<g id="edge2_Node000002_Node000003" class="edge">
<title>Node3&#45;&gt;Node2</title>
<g id="a_edge2_Node000002_Node000003"><a xlink:title=" ">
<path fill="none" stroke="#63b8ff" d="M517.6,-158.09C550.31,-154.5 589.79,-150.17 620.84,-146.77"/>
<polygon fill="#63b8ff" stroke="#63b8ff" points="516.79,-154.65 507.23,-159.22 517.56,-161.61 516.79,-154.65"/>
</a>
</g>
</g>
<!-- Node4 -->
<g id="Node000004" class="node">
<title>Node4</title>
<g id="a_Node000004"><a xlink:href="classhelios_1_1engine_1_1runtime_1_1world_1_1GameWorld.html" target="_top" xlink:title="Central registry for game entities, managers, pools, and the active level.">
<polygon fill="white" stroke="#666666" points="518,-132 389,-132 389,-102 518,-102 518,-132"/>
<text text-anchor="start" x="397" y="-120" font-family="Helvetica,sans-Serif" font-size="10.00">helios::engine::runtime</text>
<text text-anchor="middle" x="453.5" y="-109" font-family="Helvetica,sans-Serif" font-size="10.00">::world::GameWorld</text>
</a>
</g>
</g>
<!-- Node4&#45;&gt;Node2 -->
<g id="edge3_Node000002_Node000004" class="edge">
<title>Node4&#45;&gt;Node2</title>
<g id="a_edge3_Node000002_Node000004"><a xlink:title=" ">
<path fill="none" stroke="#9a32cd" stroke-dasharray="5,2" d="M528.33,-120.09C552.22,-121.59 578.79,-123.79 603,-127 608.81,-127.77 614.87,-128.73 620.88,-129.78"/>
<polygon fill="#9a32cd" stroke="#9a32cd" points="528.46,-116.59 518.27,-119.49 528.04,-123.58 528.46,-116.59"/>
</a>
</g>
<text text-anchor="start" x="539.5" y="-132.5" font-family="Helvetica,sans-Serif" font-size="10.00" fill="grey">gameWorld_</text>
</g>
<!-- Node5 -->
<g id="Node000005" class="node">
<title>Node5</title>
<g id="a_Node000005"><a xlink:href="classhelios_1_1util_1_1log_1_1Logger.html" target="_top" xlink:title="Logger implementation with configurable output sinks.">
<polygon fill="white" stroke="#666666" points="138,-234 43,-234 43,-204 138,-204 138,-234"/>
<text text-anchor="start" x="51" y="-222" font-family="Helvetica,sans-Serif" font-size="10.00">helios::util::log::</text>
<text text-anchor="middle" x="90.5" y="-211" font-family="Helvetica,sans-Serif" font-size="10.00">Logger</text>
</a>
</g>
</g>
<!-- Node5&#45;&gt;Node4 -->
<g id="edge4_Node000004_Node000005" class="edge">
<title>Node5&#45;&gt;Node4</title>
<g id="a_edge4_Node000004_Node000005"><a xlink:title=" ">
<path fill="none" stroke="#9a32cd" stroke-dasharray="5,2" d="M148.44,-226.74C209.59,-231.85 306.63,-230.36 371,-182 386.91,-170.05 374.56,-154.7 389,-141 392.59,-137.59 396.71,-134.66 401.09,-132.13"/>
<polygon fill="#9a32cd" stroke="#9a32cd" points="148.48,-223.23 138.2,-225.79 147.84,-230.2 148.48,-223.23"/>
</a>
</g>
<text text-anchor="start" x="267" y="-233.5" font-family="Helvetica,sans-Serif" font-size="10.00" fill="grey">logger_</text>
</g>
<!-- Node6 -->
<g id="Node000006" class="node">
<title>Node6</title>
<g id="a_Node000006"><a xlink:href="classhelios_1_1engine_1_1mechanics_1_1scoring_1_1ScoreCommandHandler.html" target="_top" xlink:title="Abstract interface for processing score update commands.">
<polygon fill="white" stroke="#666666" points="180,-186 1,-186 1,-156 180,-156 180,-186"/>
<text text-anchor="start" x="9" y="-174" font-family="Helvetica,sans-Serif" font-size="10.00">helios::engine::mechanics</text>
<text text-anchor="middle" x="90.5" y="-163" font-family="Helvetica,sans-Serif" font-size="10.00">::scoring::ScoreCommandHandler</text>
</a>
</g>
</g>
<!-- Node6&#45;&gt;Node4 -->
<g id="edge5_Node000004_Node000006" class="edge">
<title>Node6&#45;&gt;Node4</title>
<g id="a_edge5_Node000004_Node000006"><a xlink:title=" ">
<path fill="none" stroke="#9a32cd" stroke-dasharray="5,2" d="M190.29,-162.61C244,-157.23 311.44,-149.14 371,-138 379.9,-136.33 389.28,-134.24 398.37,-132.03"/>
<polygon fill="#9a32cd" stroke="#9a32cd" points="189.69,-159.15 180.08,-163.62 190.37,-166.12 189.69,-159.15"/>
</a>
</g>
<text text-anchor="start" x="225" y="-166.5" font-family="Helvetica,sans-Serif" font-size="10.00" fill="grey">scoreCommandHandler_</text>
</g>
<!-- Node7 -->
<g id="Node000007" class="node">
<title>Node7</title>
<g id="a_Node000007"><a xlink:href="classhelios_1_1engine_1_1runtime_1_1spawn_1_1SpawnCommandHandlerRegistry.html" target="_top" xlink:title="Registry that maps SpawnProfileIds to their SpawnCommandHandlers.">
<polygon fill="white" stroke="#666666" points="181,-137.5 0,-137.5 0,-96.5 181,-96.5 181,-137.5"/>
<text text-anchor="start" x="8" y="-125.5" font-family="Helvetica,sans-Serif" font-size="10.00">helios::engine::runtime</text>
<text text-anchor="start" x="8" y="-114.5" font-family="Helvetica,sans-Serif" font-size="10.00">::spawn::SpawnCommandHandler</text>
<text text-anchor="middle" x="90.5" y="-103.5" font-family="Helvetica,sans-Serif" font-size="10.00">Registry</text>
</a>
</g>
</g>
<!-- Node7&#45;&gt;Node4 -->
<g id="edge6_Node000004_Node000007" class="edge">
<title>Node7&#45;&gt;Node4</title>
<g id="a_edge6_Node000004_Node000007"><a xlink:title=" ">
<path fill="none" stroke="#9a32cd" stroke-dasharray="5,2" d="M191.58,-117C254.66,-117 334.22,-117 388.8,-117"/>
<polygon fill="#9a32cd" stroke="#9a32cd" points="191.2,-113.5 181.2,-117 191.2,-120.5 191.2,-113.5"/>
</a>
</g>
<text text-anchor="start" x="202" y="-122.5" font-family="Helvetica,sans-Serif" font-size="10.00" fill="grey">spawnCommandHandlerRegistry_</text>
</g>
<!-- Node8 -->
<g id="Node000008" class="node">
<title>Node8</title>
<g id="a_Node000008"><a xlink:href="classhelios_1_1engine_1_1ecs_1_1EntityRegistry.html" target="_top" xlink:title="Central registry for creating and managing entity handles.">
<polygon fill="white" stroke="#666666" points="144,-78 37,-78 37,-48 144,-48 144,-78"/>
<text text-anchor="start" x="45" y="-66" font-family="Helvetica,sans-Serif" font-size="10.00">helios::engine::ecs</text>
<text text-anchor="middle" x="90.5" y="-55" font-family="Helvetica,sans-Serif" font-size="10.00">::EntityRegistry</text>
</a>
</g>
</g>
<!-- Node8&#45;&gt;Node4 -->
<g id="edge7_Node000004_Node000008" class="edge">
<title>Node8&#45;&gt;Node4</title>
<g id="a_edge7_Node000004_Node000008"><a xlink:title=" ">
<path fill="none" stroke="#9a32cd" stroke-dasharray="5,2" d="M154.38,-67.99C211.27,-73.07 297.19,-82.2 371,-96 379.9,-97.67 389.28,-99.76 398.37,-101.97"/>
<polygon fill="#9a32cd" stroke="#9a32cd" points="154.37,-64.47 144.1,-67.08 153.76,-71.45 154.37,-64.47"/>
</a>
</g>
<text text-anchor="start" x="248" y="-101.5" font-family="Helvetica,sans-Serif" font-size="10.00" fill="grey">entityRegistry_</text>
</g>
<!-- Node9 -->
<g id="Node000009" class="node">
<title>Node9</title>
<g id="a_Node000009"><a xlink:href="classhelios_1_1engine_1_1ecs_1_1EntityManager.html" target="_top" xlink:title="Manages entities and their associated components.">
<polygon fill="white" stroke="#666666" points="144,-30 37,-30 37,0 144,0 144,-30"/>
<text text-anchor="start" x="45" y="-18" font-family="Helvetica,sans-Serif" font-size="10.00">helios::engine::ecs</text>
<text text-anchor="middle" x="90.5" y="-7" font-family="Helvetica,sans-Serif" font-size="10.00">::EntityManager</text>
</a>
</g>
</g>
<!-- Node9&#45;&gt;Node4 -->
<g id="edge8_Node000004_Node000009" class="edge">
<title>Node9&#45;&gt;Node4</title>
<g id="a_edge8_Node000004_Node000009"><a xlink:title=" ">
<path fill="none" stroke="#9a32cd" stroke-dasharray="5,2" d="M154.39,-13.45C212.78,-14.2 300.99,-21.04 371,-51 398.28,-62.68 423.86,-86.24 438.85,-101.82"/>
<polygon fill="#9a32cd" stroke="#9a32cd" points="154.24,-9.94 144.21,-13.37 154.18,-16.94 154.24,-9.94"/>
</a>
</g>
<text text-anchor="start" x="274" y="-56.5" font-family="Helvetica,sans-Serif" font-size="10.00" fill="grey">em_</text>
</g>
</g>
</svg>
