<?xml version="1.0" encoding="UTF-8" standalone="no"?>
<!DOCTYPE svg PUBLIC "-//W3C//DTD SVG 1.1//EN"
 "http://www.w3.org/Graphics/SVG/1.1/DTD/svg11.dtd">
<!-- Generated by graphviz version 2.43.0 (0)
 -->
<!-- Title: helios::engine::mechanics::timing::components::GameTimerBindingComponent::setGameTimerId Pages: 1 -->
<svg width="425pt" height="67pt"
 viewBox="0.00 0.00 425.00 67.00" xmlns="http://www.w3.org/2000/svg" xmlns:xlink="http://www.w3.org/1999/xlink">
<g id="graph0" class="graph" transform="scale(1 1) rotate(0) translate(4 63)">
<title>helios::engine::mechanics::timing::components::GameTimerBindingComponent::setGameTimerId</title>
<!-- Node1 -->
<g id="Node000001" class="node">
<title>Node1</title>
<g id="a_Node000001"><a xlink:title="Sets the id of the game timer to observe.">
<polygon fill="#999999" stroke="#666666" points="197,-41 0,-41 0,0 197,0 197,-41"/>
<text text-anchor="start" x="8" y="-29" font-family="Helvetica,sans-Serif" font-size="10.00">helios::engine::mechanics</text>
<text text-anchor="start" x="8" y="-18" font-family="Helvetica,sans-Serif" font-size="10.00">::timing::components::GameTimer</text>
<text text-anchor="middle" x="98.5" y="-7" font-family="Helvetica,sans-Serif" font-size="10.00">BindingComponent::setGameTimerId</text>
</a>
</g>
</g>
<!-- Node1&#45;&gt;Node1 -->
<g id="edge2_Node000001_Node000001" class="edge">
<title>Node1&#45;&gt;Node1</title>
<g id="a_edge2_Node000001_Node000001"><a xlink:title=" ">
<path fill="none" stroke="#63b8ff" d="M56.96,-41.1C52.43,-50.65 66.28,-59 98.5,-59 118.64,-59 131.6,-55.74 137.38,-50.96"/>
<polygon fill="#63b8ff" stroke="#63b8ff" points="140.82,-51.66 140.04,-41.1 134.06,-49.84 140.82,-51.66"/>
</a>
</g>
</g>
<!-- Node2 -->
<g id="Node000002" class="node">
<title>Node2</title>
<g id="a_Node000002"><a xlink:href="classhelios_1_1engine_1_1mechanics_1_1timing_1_1components_1_1GameTimerBindingComponent.html#a01f797cd7d95a8aa7d6d2ecc7d230db3" target="_top" xlink:title="Returns the observed game timer id.">
<polygon fill="white" stroke="#666666" points="417,-41 233,-41 233,0 417,0 417,-41"/>
<text text-anchor="start" x="241" y="-29" font-family="Helvetica,sans-Serif" font-size="10.00">helios::engine::mechanics</text>
<text text-anchor="start" x="241" y="-18" font-family="Helvetica,sans-Serif" font-size="10.00">::timing::components::GameTimer</text>
<text text-anchor="middle" x="325" y="-7" font-family="Helvetica,sans-Serif" font-size="10.00">BindingComponent::gameTimerId</text>
</a>
</g>
</g>
<!-- Node1&#45;&gt;Node2 -->
<g id="edge1_Node000001_Node000002" class="edge">
<title>Node1&#45;&gt;Node2</title>
<g id="a_edge1_Node000001_Node000002"><a xlink:title=" ">
<path fill="none" stroke="#63b8ff" d="M197.32,-20.5C205.72,-20.5 214.23,-20.5 222.65,-20.5"/>
<polygon fill="#63b8ff" stroke="#63b8ff" points="222.88,-24 232.88,-20.5 222.88,-17 222.88,-24"/>
</a>
</g>
</g>
</g>
</svg>
