<?xml version="1.0" encoding="UTF-8" standalone="no"?>
<!DOCTYPE svg PUBLIC "-//W3C//DTD SVG 1.1//EN"
 "http://www.w3.org/Graphics/SVG/1.1/DTD/svg11.dtd">
<!-- Generated by graphviz version 2.43.0 (0)
 -->
<!-- Title: helios::event::Event::tag Pages: 1 -->
<svg width="341pt" height="205pt"
 viewBox="0.00 0.00 341.00 205.00" xmlns="http://www.w3.org/2000/svg" xmlns:xlink="http://www.w3.org/1999/xlink">
<g id="graph0" class="graph" transform="scale(1 1) rotate(0) translate(4 201)">
<title>helios::event::Event::tag</title>
<!-- Node1 -->
<g id="Node000001" class="node">
<title>Node1</title>
<g id="a_Node000001"><a xlink:title="Returns the tag for this event. Will be 0 if none was specified.">
<polygon fill="#999999" stroke="#666666" points="333,-107.5 198,-107.5 198,-88.5 333,-88.5 333,-107.5"/>
<text text-anchor="middle" x="265.5" y="-95.5" font-family="Helvetica,sans-Serif" font-size="10.00">helios::event::Event::tag</text>
</a>
</g>
</g>
<!-- Node2 -->
<g id="Node000002" class="node">
<title>Node2</title>
<g id="a_Node000002"><a xlink:href="classhelios_1_1event_1_1Event.html#a741350d083ce20aefbb749fd0a83e5f2" target="_top" xlink:title="Constructs a new event with a unique Guid and the specified default tag.">
<polygon fill="white" stroke="#666666" points="137.5,-197 24.5,-197 24.5,-167 137.5,-167 137.5,-197"/>
<text text-anchor="start" x="32.5" y="-185" font-family="Helvetica,sans-Serif" font-size="10.00">helios::event::Event</text>
<text text-anchor="middle" x="81" y="-174" font-family="Helvetica,sans-Serif" font-size="10.00">::Event</text>
</a>
</g>
</g>
<!-- Node1&#45;&gt;Node2 -->
<g id="edge1_Node000001_Node000002" class="edge">
<title>Node1&#45;&gt;Node2</title>
<g id="a_edge1_Node000001_Node000002"><a xlink:title=" ">
<path fill="none" stroke="#63b8ff" d="M241.97,-113.31C221.74,-126.53 190.86,-145.44 162,-158 154.29,-161.36 145.96,-164.42 137.7,-167.16"/>
<polygon fill="#63b8ff" stroke="#63b8ff" points="244.07,-116.11 250.48,-107.67 240.21,-110.28 244.07,-116.11"/>
</a>
</g>
</g>
<!-- Node3 -->
<g id="Node000003" class="node">
<title>Node3</title>
<g id="a_Node000003"><a xlink:href="classhelios_1_1window_1_1event_1_1FrameBufferResizeEvent.html#a48c03ab86ea3ba9358c6c9b95a810a8c" target="_top" xlink:title="Constructs a `FrameBufferResizeEvent`.">
<polygon fill="white" stroke="#666666" points="152.5,-148.5 9.5,-148.5 9.5,-107.5 152.5,-107.5 152.5,-148.5"/>
<text text-anchor="start" x="17.5" y="-136.5" font-family="Helvetica,sans-Serif" font-size="10.00">helios::window::event</text>
<text text-anchor="start" x="17.5" y="-125.5" font-family="Helvetica,sans-Serif" font-size="10.00">::FrameBufferResizeEvent</text>
<text text-anchor="middle" x="81" y="-114.5" font-family="Helvetica,sans-Serif" font-size="10.00">::FrameBufferResizeEvent</text>
</a>
</g>
</g>
<!-- Node1&#45;&gt;Node3 -->
<g id="edge2_Node000001_Node000003" class="edge">
<title>Node1&#45;&gt;Node3</title>
<g id="a_edge2_Node000001_Node000003"><a xlink:title=" ">
<path fill="none" stroke="#63b8ff" d="M196.29,-109.21C182.04,-111.56 166.98,-114.03 152.64,-116.39"/>
<polygon fill="#63b8ff" stroke="#63b8ff" points="197.21,-112.61 206.51,-107.53 196.07,-105.7 197.21,-112.61"/>
</a>
</g>
</g>
<!-- Node4 -->
<g id="Node000004" class="node">
<title>Node4</title>
<g id="a_Node000004"><a xlink:href="classhelios_1_1window_1_1event_1_1FrameBufferResizeEvent.html#a007ff0e741584eb88b5a7a9653af3d06" target="_top" xlink:title=" ">
<polygon fill="white" stroke="#666666" points="152.5,-89.5 9.5,-89.5 9.5,-48.5 152.5,-48.5 152.5,-89.5"/>
<text text-anchor="start" x="17.5" y="-77.5" font-family="Helvetica,sans-Serif" font-size="10.00">helios::window::event</text>
<text text-anchor="start" x="17.5" y="-66.5" font-family="Helvetica,sans-Serif" font-size="10.00">::FrameBufferResizeEvent</text>
<text text-anchor="middle" x="81" y="-55.5" font-family="Helvetica,sans-Serif" font-size="10.00">::toString</text>
</a>
</g>
</g>
<!-- Node1&#45;&gt;Node4 -->
<g id="edge3_Node000001_Node000004" class="edge">
<title>Node1&#45;&gt;Node4</title>
<g id="a_edge3_Node000001_Node000004"><a xlink:title=" ">
<path fill="none" stroke="#63b8ff" d="M194.59,-86.89C180.8,-84.7 166.32,-82.4 152.51,-80.2"/>
<polygon fill="#63b8ff" stroke="#63b8ff" points="194.06,-90.35 204.49,-88.46 195.16,-83.44 194.06,-90.35"/>
</a>
</g>
</g>
<!-- Node5 -->
<g id="Node000005" class="node">
<title>Node5</title>
<g id="a_Node000005"><a xlink:href="classhelios_1_1window_1_1event_1_1WindowEvent.html#ab5286107303e5071ac3d87ac9ba69202" target="_top" xlink:title="Constructs a new WindowEvent with the specific source Guid and the specific tag.">
<polygon fill="white" stroke="#666666" points="162,-30 0,-30 0,0 162,0 162,-30"/>
<text text-anchor="start" x="8" y="-18" font-family="Helvetica,sans-Serif" font-size="10.00">helios::window::event</text>
<text text-anchor="middle" x="81" y="-7" font-family="Helvetica,sans-Serif" font-size="10.00">::WindowEvent::WindowEvent</text>
</a>
</g>
</g>
<!-- Node1&#45;&gt;Node5 -->
<g id="edge4_Node000001_Node000005" class="edge">
<title>Node1&#45;&gt;Node5</title>
<g id="a_edge4_Node000001_Node000005"><a xlink:title=" ">
<path fill="none" stroke="#63b8ff" d="M241.17,-82.9C220.86,-70.22 190.31,-52.27 162,-40 153.72,-36.41 144.76,-33.1 135.93,-30.13"/>
<polygon fill="#63b8ff" stroke="#63b8ff" points="239.41,-85.93 249.74,-88.31 243.15,-80.01 239.41,-85.93"/>
</a>
</g>
</g>
</g>
</svg>
