<?xml version="1.0" encoding="UTF-8" standalone="no"?>
<!DOCTYPE svg PUBLIC "-//W3C//DTD SVG 1.1//EN"
 "http://www.w3.org/Graphics/SVG/1.1/DTD/svg11.dtd">
<!-- Generated by graphviz version 2.43.0 (0)
 -->
<!-- Title: helios::engine::core::data::ResourceTypeId::id Pages: 1 -->
<svg width="518pt" height="452pt"
 viewBox="0.00 0.00 518.00 451.50" xmlns="http://www.w3.org/2000/svg" xmlns:xlink="http://www.w3.org/1999/xlink">
<g id="graph0" class="graph" transform="scale(1 1) rotate(0) translate(4 447.5)">
<title>helios::engine::core::data::ResourceTypeId::id</title>
<!-- Node1 -->
<g id="Node000001" class="node">
<title>Node1</title>
<g id="a_Node000001"><a xlink:title="Returns the ResourceTypeId for a specific type.">
<polygon fill="#999999" stroke="#666666" points="510,-212.5 368,-212.5 368,-182.5 510,-182.5 510,-212.5"/>
<text text-anchor="start" x="376" y="-200.5" font-family="Helvetica,sans-Serif" font-size="10.00">helios::engine::core</text>
<text text-anchor="middle" x="439" y="-189.5" font-family="Helvetica,sans-Serif" font-size="10.00">::data::ResourceTypeId::id</text>
</a>
</g>
</g>
<!-- Node2 -->
<g id="Node000002" class="node">
<title>Node2</title>
<g id="a_Node000002"><a xlink:href="classhelios_1_1engine_1_1runtime_1_1world_1_1ResourceRegistry.html#a4a7fa60f4d0fb1925a0d8c78037c5b93" target="_top" xlink:title="Checks whether a resource of type T is registered.">
<polygon fill="white" stroke="#666666" points="332,-443.5 168,-443.5 168,-413.5 332,-413.5 332,-443.5"/>
<text text-anchor="start" x="176" y="-431.5" font-family="Helvetica,sans-Serif" font-size="10.00">helios::engine::runtime</text>
<text text-anchor="middle" x="250" y="-420.5" font-family="Helvetica,sans-Serif" font-size="10.00">::world::ResourceRegistry::has</text>
</a>
</g>
</g>
<!-- Node1&#45;&gt;Node2 -->
<g id="edge1_Node000001_Node000002" class="edge">
<title>Node1&#45;&gt;Node2</title>
<g id="a_edge1_Node000001_Node000002"><a xlink:title=" ">
<path fill="none" stroke="#63b8ff" d="M432.15,-222.33C420.63,-265.8 390.84,-355.66 332,-404.5 327.82,-407.97 323.16,-410.93 318.25,-413.47"/>
<polygon fill="#63b8ff" stroke="#63b8ff" points="435.56,-223.13 434.64,-212.58 428.78,-221.41 435.56,-223.13"/>
</a>
</g>
</g>
<!-- Node3 -->
<g id="Node000003" class="node">
<title>Node3</title>
<g id="a_Node000003"><a xlink:href="classhelios_1_1engine_1_1runtime_1_1world_1_1ResourceRegistry.html#a71c88e4711c542c493f9c41825f76a85" target="_top" xlink:title="Creates and registers an owning resource.">
<polygon fill="white" stroke="#666666" points="320.5,-395 179.5,-395 179.5,-354 320.5,-354 320.5,-395"/>
<text text-anchor="start" x="187.5" y="-383" font-family="Helvetica,sans-Serif" font-size="10.00">helios::engine::runtime</text>
<text text-anchor="start" x="187.5" y="-372" font-family="Helvetica,sans-Serif" font-size="10.00">::world::ResourceRegistry</text>
<text text-anchor="middle" x="250" y="-361" font-family="Helvetica,sans-Serif" font-size="10.00">::registerResource</text>
</a>
</g>
</g>
<!-- Node1&#45;&gt;Node3 -->
<g id="edge2_Node000001_Node000003" class="edge">
<title>Node1&#45;&gt;Node3</title>
<g id="a_edge2_Node000001_Node000003"><a xlink:title=" ">
<path fill="none" stroke="#63b8ff" d="M426.37,-222.11C409.78,-254.73 376.35,-312.03 332,-345.5 327.95,-348.56 323.54,-351.32 318.95,-353.8"/>
<polygon fill="#63b8ff" stroke="#63b8ff" points="429.66,-223.35 430.97,-212.84 423.39,-220.24 429.66,-223.35"/>
</a>
</g>
</g>
<!-- Node4 -->
<g id="Node000004" class="node">
<title>Node4</title>
<g id="a_Node000004"><a xlink:href="classhelios_1_1engine_1_1runtime_1_1world_1_1ResourceRegistry.html#a9bab978496643ba428b8166184103cd8" target="_top" xlink:title="Registers a non&#45;owning CommandHandler reference.">
<polygon fill="white" stroke="#666666" points="320.5,-336 179.5,-336 179.5,-295 320.5,-295 320.5,-336"/>
<text text-anchor="start" x="187.5" y="-324" font-family="Helvetica,sans-Serif" font-size="10.00">helios::engine::runtime</text>
<text text-anchor="start" x="187.5" y="-313" font-family="Helvetica,sans-Serif" font-size="10.00">::world::ResourceRegistry</text>
<text text-anchor="middle" x="250" y="-302" font-family="Helvetica,sans-Serif" font-size="10.00">::registerResource</text>
</a>
</g>
</g>
<!-- Node1&#45;&gt;Node4 -->
<g id="edge3_Node000001_Node000004" class="edge">
<title>Node1&#45;&gt;Node4</title>
<g id="a_edge3_Node000001_Node000004"><a xlink:title=" ">
<path fill="none" stroke="#63b8ff" d="M416.32,-219.74C396.05,-239.51 364.15,-268.04 332,-286.5 326.69,-289.55 321,-292.36 315.19,-294.94"/>
<polygon fill="#63b8ff" stroke="#63b8ff" points="418.86,-222.16 423.5,-212.64 413.93,-217.19 418.86,-222.16"/>
</a>
</g>
</g>
<!-- Node5 -->
<g id="Node000005" class="node">
<title>Node5</title>
<g id="a_Node000005"><a xlink:href="classhelios_1_1engine_1_1runtime_1_1world_1_1ResourceRegistry.html#ad755b403ab228b91d906e9dc8547caa2" target="_top" xlink:title="Returns a reference to a registered resource.">
<polygon fill="white" stroke="#666666" points="320.5,-277 179.5,-277 179.5,-236 320.5,-236 320.5,-277"/>
<text text-anchor="start" x="187.5" y="-265" font-family="Helvetica,sans-Serif" font-size="10.00">helios::engine::runtime</text>
<text text-anchor="start" x="187.5" y="-254" font-family="Helvetica,sans-Serif" font-size="10.00">::world::ResourceRegistry</text>
<text text-anchor="middle" x="250" y="-243" font-family="Helvetica,sans-Serif" font-size="10.00">::resource</text>
</a>
</g>
</g>
<!-- Node1&#45;&gt;Node5 -->
<g id="edge4_Node000001_Node000005" class="edge">
<title>Node1&#45;&gt;Node5</title>
<g id="a_edge4_Node000001_Node000005"><a xlink:title=" ">
<path fill="none" stroke="#63b8ff" d="M380.57,-215.62C360.22,-222.04 337.18,-229.31 316.22,-235.92"/>
<polygon fill="#63b8ff" stroke="#63b8ff" points="381.84,-218.89 390.33,-212.54 379.74,-212.21 381.84,-218.89"/>
</a>
</g>
</g>
<!-- Node6 -->
<g id="Node000006" class="node">
<title>Node6</title>
<g id="a_Node000006"><a xlink:href="classhelios_1_1engine_1_1runtime_1_1world_1_1ResourceRegistry.html#a11562a65e70f32bf894460020bacf6de" target="_top" xlink:title="Returns a reference to a registered resource.">
<polygon fill="white" stroke="#666666" points="320.5,-218 179.5,-218 179.5,-177 320.5,-177 320.5,-218"/>
<text text-anchor="start" x="187.5" y="-206" font-family="Helvetica,sans-Serif" font-size="10.00">helios::engine::runtime</text>
<text text-anchor="start" x="187.5" y="-195" font-family="Helvetica,sans-Serif" font-size="10.00">::world::ResourceRegistry</text>
<text text-anchor="middle" x="250" y="-184" font-family="Helvetica,sans-Serif" font-size="10.00">::resource</text>
</a>
</g>
</g>
<!-- Node1&#45;&gt;Node6 -->
<g id="edge5_Node000001_Node000006" class="edge">
<title>Node1&#45;&gt;Node6</title>
<g id="a_edge5_Node000001_Node000006"><a xlink:title=" ">
<path fill="none" stroke="#63b8ff" d="M357.59,-197.5C345.29,-197.5 332.67,-197.5 320.62,-197.5"/>
<polygon fill="#63b8ff" stroke="#63b8ff" points="357.84,-201 367.84,-197.5 357.84,-194 357.84,-201"/>
</a>
</g>
</g>
<!-- Node8 -->
<g id="Node000008" class="node">
<title>Node8</title>
<g id="a_Node000008"><a xlink:href="classhelios_1_1engine_1_1core_1_1data_1_1ResourceTypeId.html#ac9309120d56b4f6dcc8538a47b41650b" target="_top" xlink:title="Constructs a ResourceTypeId with a specific value.">
<polygon fill="white" stroke="#666666" points="313.5,-159 186.5,-159 186.5,-118 313.5,-118 313.5,-159"/>
<text text-anchor="start" x="194.5" y="-147" font-family="Helvetica,sans-Serif" font-size="10.00">helios::engine::core</text>
<text text-anchor="start" x="194.5" y="-136" font-family="Helvetica,sans-Serif" font-size="10.00">::data::ResourceTypeId</text>
<text text-anchor="middle" x="250" y="-125" font-family="Helvetica,sans-Serif" font-size="10.00">::ResourceTypeId</text>
</a>
</g>
</g>
<!-- Node1&#45;&gt;Node8 -->
<g id="edge7_Node000001_Node000008" class="edge">
<title>Node1&#45;&gt;Node8</title>
<g id="a_edge7_Node000001_Node000008"><a xlink:title=" ">
<path fill="none" stroke="#63b8ff" d="M397.06,-178.89C372.71,-170.11 341.3,-159.96 313.85,-151.91"/>
<polygon fill="#63b8ff" stroke="#63b8ff" points="396.11,-182.27 406.7,-182.43 398.52,-175.7 396.11,-182.27"/>
</a>
</g>
</g>
<!-- Node10 -->
<g id="Node000010" class="node">
<title>Node10</title>
<g id="a_Node000010"><a xlink:href="classhelios_1_1engine_1_1runtime_1_1world_1_1ResourceRegistry.html#ad4b7717b6f2445c9d234cb9fb0594658" target="_top" xlink:title="Returns a pointer to a registered resource, or nullptr.">
<polygon fill="white" stroke="#666666" points="320.5,-100 179.5,-100 179.5,-59 320.5,-59 320.5,-100"/>
<text text-anchor="start" x="187.5" y="-88" font-family="Helvetica,sans-Serif" font-size="10.00">helios::engine::runtime</text>
<text text-anchor="start" x="187.5" y="-77" font-family="Helvetica,sans-Serif" font-size="10.00">::world::ResourceRegistry</text>
<text text-anchor="middle" x="250" y="-66" font-family="Helvetica,sans-Serif" font-size="10.00">::tryResource</text>
</a>
</g>
</g>
<!-- Node1&#45;&gt;Node10 -->
<g id="edge10_Node000001_Node000010" class="edge">
<title>Node1&#45;&gt;Node10</title>
<g id="a_edge10_Node000001_Node000010"><a xlink:title=" ">
<path fill="none" stroke="#63b8ff" d="M416.32,-175.26C396.05,-155.49 364.15,-126.96 332,-108.5 326.69,-105.45 321,-102.64 315.19,-100.06"/>
<polygon fill="#63b8ff" stroke="#63b8ff" points="413.93,-177.81 423.5,-182.36 418.86,-172.84 413.93,-177.81"/>
</a>
</g>
</g>
<!-- Node11 -->
<g id="Node000011" class="node">
<title>Node11</title>
<g id="a_Node000011"><a xlink:href="classhelios_1_1engine_1_1runtime_1_1world_1_1ResourceRegistry.html#a36c02739412c272a7c6fab30e0a90d98" target="_top" xlink:title="Returns a pointer to a registered resource, or nullptr.">
<polygon fill="white" stroke="#666666" points="320.5,-41 179.5,-41 179.5,0 320.5,0 320.5,-41"/>
<text text-anchor="start" x="187.5" y="-29" font-family="Helvetica,sans-Serif" font-size="10.00">helios::engine::runtime</text>
<text text-anchor="start" x="187.5" y="-18" font-family="Helvetica,sans-Serif" font-size="10.00">::world::ResourceRegistry</text>
<text text-anchor="middle" x="250" y="-7" font-family="Helvetica,sans-Serif" font-size="10.00">::tryResource</text>
</a>
</g>
</g>
<!-- Node1&#45;&gt;Node11 -->
<g id="edge11_Node000001_Node000011" class="edge">
<title>Node1&#45;&gt;Node11</title>
<g id="a_edge11_Node000001_Node000011"><a xlink:title=" ">
<path fill="none" stroke="#63b8ff" d="M426.37,-172.89C409.78,-140.27 376.35,-82.97 332,-49.5 327.95,-46.44 323.54,-43.68 318.95,-41.2"/>
<polygon fill="#63b8ff" stroke="#63b8ff" points="423.39,-174.76 430.97,-182.16 429.66,-171.65 423.39,-174.76"/>
</a>
</g>
</g>
<!-- Node7 -->
<g id="Node000007" class="node">
<title>Node7</title>
<g id="a_Node000007"><a xlink:href="classhelios_1_1engine_1_1runtime_1_1spawn_1_1policy_1_1amount_1_1SpawnAll.html#a496fad85a648d7bc01515f613bf6b3cb" target="_top" xlink:title="Returns the number of inactive objects in the pool.">
<polygon fill="white" stroke="#666666" points="132,-218 0,-218 0,-177 132,-177 132,-218"/>
<text text-anchor="start" x="8" y="-206" font-family="Helvetica,sans-Serif" font-size="10.00">helios::engine::runtime</text>
<text text-anchor="start" x="8" y="-195" font-family="Helvetica,sans-Serif" font-size="10.00">::spawn::policy::amount</text>
<text text-anchor="middle" x="66" y="-184" font-family="Helvetica,sans-Serif" font-size="10.00">::SpawnAll::getAmount</text>
</a>
</g>
</g>
<!-- Node6&#45;&gt;Node7 -->
<g id="edge6_Node000006_Node000007" class="edge">
<title>Node6&#45;&gt;Node7</title>
<g id="a_edge6_Node000006_Node000007"><a xlink:title=" ">
<path fill="none" stroke="#63b8ff" d="M169.1,-197.5C156.72,-197.5 144.06,-197.5 132.06,-197.5"/>
<polygon fill="#63b8ff" stroke="#63b8ff" points="169.41,-201 179.41,-197.5 169.41,-194 169.41,-201"/>
</a>
</g>
</g>
<!-- Node8&#45;&gt;Node1 -->
<g id="edge8_Node000008_Node000001" class="edge">
<title>Node8&#45;&gt;Node1</title>
<g id="a_edge8_Node000008_Node000001"><a xlink:title=" ">
<path fill="none" stroke="#63b8ff" d="M306.71,-162.31C326.49,-169.12 348.98,-176.32 369.69,-182.48"/>
<polygon fill="#63b8ff" stroke="#63b8ff" points="307.83,-158.99 297.23,-159 305.52,-165.6 307.83,-158.99"/>
</a>
</g>
</g>
<!-- Node9 -->
<g id="Node000009" class="node">
<title>Node9</title>
<g id="a_Node000009"><a xlink:href="classhelios_1_1engine_1_1core_1_1data_1_1ResourceTypeId.html#ad86c3405b14df6ade01e67b92c76adf2" target="_top" xlink:title=" ">
<polygon fill="white" stroke="#666666" points="129.5,-159 2.5,-159 2.5,-118 129.5,-118 129.5,-159"/>
<text text-anchor="start" x="10.5" y="-147" font-family="Helvetica,sans-Serif" font-size="10.00">helios::engine::core</text>
<text text-anchor="start" x="10.5" y="-136" font-family="Helvetica,sans-Serif" font-size="10.00">::data::ResourceTypeId</text>
<text text-anchor="middle" x="66" y="-125" font-family="Helvetica,sans-Serif" font-size="10.00">::operator==</text>
</a>
</g>
</g>
<!-- Node8&#45;&gt;Node9 -->
<g id="edge9_Node000008_Node000009" class="edge">
<title>Node8&#45;&gt;Node9</title>
<g id="a_edge9_Node000008_Node000009"><a xlink:title=" ">
<path fill="none" stroke="#63b8ff" d="M176.35,-138.5C160.93,-138.5 144.77,-138.5 129.75,-138.5"/>
<polygon fill="#63b8ff" stroke="#63b8ff" points="176.37,-142 186.37,-138.5 176.37,-135 176.37,-142"/>
</a>
</g>
</g>
</g>
</svg>
