<?xml version="1.0" encoding="UTF-8" standalone="no"?>
<!DOCTYPE svg PUBLIC "-//W3C//DTD SVG 1.1//EN"
 "http://www.w3.org/Graphics/SVG/1.1/DTD/svg11.dtd">
<!-- Generated by graphviz version 2.43.0 (0)
 -->
<!-- Title: helios::engine::ecs::EntityManager::enable Pages: 1 -->
<!--zoomable 233 -->

<svg id="main" version="1.1" xmlns="http://www.w3.org/2000/svg" xmlns:xlink="http://www.w3.org/1999/xlink" xml:space="preserve" onload="init(evt)">

<style type="text/css"><![CDATA[
.node, .edge {opacity: 0.7;}
.node.selected, .edge.selected {opacity: 1;}
.edge:hover path { stroke: red; }
.edge:hover polygon { stroke: red; fill: red; }
]]></style>

<defs>
  <circle id="rim" cx="0" cy="0" r="7"/>
  <circle id="rim2" cx="0" cy="0" r="3.5"/>
  <g id="zoomPlus">
    <use xlink:href="#rim" fill="#404040"><set attributeName="fill" to="#808080" begin="zoomplus.mouseover" end="zoomplus.mouseout"/></use>
    <path d="M-4,0h8M0,-4v8" fill="none" stroke="white" stroke-width="1.5" pointer-events="none"/>
  </g>
  <g id="zoomMin">
    <use xlink:href="#rim" fill="#404040"><set attributeName="fill" to="#808080" begin="zoomminus.mouseover" end="zoomminus.mouseout"/></use>
    <path d="M-4,0h8" fill="none" stroke="white" stroke-width="1.5" pointer-events="none"/>
  </g>
  <g id="arrowUp" transform="translate(30 24)">
    <use xlink:href="#rim"/>
    <path pointer-events="none" fill="none" stroke="white" stroke-width="1.5" d="M0,-3.0v7 M-2.5,-0.5L0,-3.0L2.5,-0.5"/>
  </g>
  <g id="arrowRight" transform="rotate(90) translate(36 -43)">
    <use xlink:href="#rim"/>
    <path pointer-events="none" fill="none" stroke="white" stroke-width="1.5" d="M0,-3.0v7 M-2.5,-0.5L0,-3.0L2.5,-0.5"/>
  </g>
  <g id="arrowDown" transform="rotate(180) translate(-30 -48)">
    <use xlink:href="#rim"/>
    <path pointer-events="none" fill="none" stroke="white" stroke-width="1.5" d="M0,-3.0v7 M-2.5,-0.5L0,-3.0L2.5,-0.5"/>
  </g>
  <g id="arrowLeft" transform="rotate(270) translate(-36 17)">
    <use xlink:href="#rim"/>
    <path pointer-events="none" fill="none" stroke="white" stroke-width="1.5" d="M0,-3.0v7 M-2.5,-0.5L0,-3.0L2.5,-0.5"/>
  </g>
  <g id="resetDef">
    <use xlink:href="#rim2" fill="#404040"><set attributeName="fill" to="#808080" begin="reset.mouseover" end="reset.mouseout"/></use>
  </g>
</defs>
<script type="application/ecmascript">
var viewWidth = 880;
var viewHeight = 233;
var sectionId = 'dynsection-10';
</script>
<script type="application/ecmascript" xlink:href="svg.min.js"/>
<svg id="graph" class="graph">
<g id="viewport">
<title>helios::engine::ecs::EntityManager::enable</title>
<!-- Node1 -->
<g id="Node000001" class="node">
<title>Node1</title>
<g id="a_Node000001"><a xlink:title="Enables or disables a component by type ID.">
<polygon fill="#999999" stroke="#666666" points="133,-140 0,-140 0,-110 133,-110 133,-140"/>
<text text-anchor="start" x="8" y="-128" font-family="Helvetica,sans-Serif" font-size="10.00">helios::engine::ecs</text>
<text text-anchor="middle" x="66.5" y="-117" font-family="Helvetica,sans-Serif" font-size="10.00">::EntityManager::enable</text>
</a>
</g>
</g>
<!-- Node2 -->
<g id="Node000002" class="node">
<title>Node2</title>
<g id="a_Node000002"><a xlink:href="classhelios_1_1engine_1_1ecs_1_1EntityManager.html#a9dff042d29a06c0d9fadf1d8e511ef8d" target="_top" xlink:title="Enables a component by type ID.">
<polygon fill="white" stroke="#666666" points="499,-183 366,-183 366,-153 499,-153 499,-183"/>
<text text-anchor="start" x="374" y="-171" font-family="Helvetica,sans-Serif" font-size="10.00">helios::engine::ecs</text>
<text text-anchor="middle" x="432.5" y="-160" font-family="Helvetica,sans-Serif" font-size="10.00">::EntityManager::enable</text>
</a>
</g>
</g>
<!-- Node1&#45;&gt;Node2 -->
<g id="edge1_Node000001_Node000002" class="edge">
<title>Node1&#45;&gt;Node2</title>
<g id="a_edge1_Node000001_Node000002"><a xlink:title=" ">
<path fill="none" stroke="#63b8ff" d="M123.82,-140.01C138.44,-143.44 154.23,-146.73 169,-149 231.45,-158.58 303.03,-163.35 355.65,-165.72"/>
<polygon fill="#63b8ff" stroke="#63b8ff" points="355.77,-169.23 365.91,-166.16 356.07,-162.23 355.77,-169.23"/>
</a>
</g>
</g>
<!-- Node3 -->
<g id="Node000003" class="node">
<title>Node3</title>
<g id="a_Node000003"><a xlink:href="classhelios_1_1engine_1_1ecs_1_1EntityManager.html#a01ae81037793ce4bebb83a256220c38e" target="_top" xlink:title="Reconstructs an EntityHandle from an EntityId.">
<polygon fill="white" stroke="#666666" points="680.5,-169 547.5,-169 547.5,-139 680.5,-139 680.5,-169"/>
<text text-anchor="start" x="555.5" y="-157" font-family="Helvetica,sans-Serif" font-size="10.00">helios::engine::ecs</text>
<text text-anchor="middle" x="614" y="-146" font-family="Helvetica,sans-Serif" font-size="10.00">::EntityManager::handle</text>
</a>
</g>
</g>
<!-- Node1&#45;&gt;Node3 -->
<g id="edge4_Node000001_Node000003" class="edge">
<title>Node1&#45;&gt;Node3</title>
<g id="a_edge4_Node000001_Node000003"><a xlink:title=" ">
<path fill="none" stroke="#63b8ff" d="M97.04,-140.14C116.94,-149.83 144.03,-162.03 169,-170 309.75,-214.9 355.09,-243.44 499,-210 528.64,-203.11 559.45,-187.38 581.55,-174.34"/>
<polygon fill="#63b8ff" stroke="#63b8ff" points="583.42,-177.3 590.17,-169.13 579.8,-171.31 583.42,-177.3"/>
</a>
</g>
</g>
<!-- Node4 -->
<g id="Node000004" class="node">
<title>Node4</title>
<g id="a_Node000004"><a xlink:href="classhelios_1_1engine_1_1ecs_1_1EntityManager.html#ab500472e8088cfef0c39c8e4df787a6e" target="_top" xlink:title="Checks whether an entity has a specific component.">
<polygon fill="white" stroke="#666666" points="491,-97 374,-97 374,-67 491,-67 491,-97"/>
<text text-anchor="start" x="382" y="-85" font-family="Helvetica,sans-Serif" font-size="10.00">helios::engine::ecs</text>
<text text-anchor="middle" x="432.5" y="-74" font-family="Helvetica,sans-Serif" font-size="10.00">::EntityManager::has</text>
</a>
</g>
</g>
<!-- Node1&#45;&gt;Node4 -->
<g id="edge5_Node000001_Node000004" class="edge">
<title>Node1&#45;&gt;Node4</title>
<g id="a_edge5_Node000001_Node000004"><a xlink:title=" ">
<path fill="none" stroke="#63b8ff" d="M123.82,-109.99C138.44,-106.56 154.23,-103.27 169,-101 234.77,-90.91 310.65,-86.15 363.86,-83.92"/>
<polygon fill="#63b8ff" stroke="#63b8ff" points="364,-87.42 373.85,-83.52 363.72,-80.43 364,-87.42"/>
</a>
</g>
</g>
<!-- Node9 -->
<g id="Node000009" class="node">
<title>Node9</title>
<g id="a_Node000009"><a xlink:href="classhelios_1_1engine_1_1ecs_1_1ComponentOpsRegistry.html#acedf93d0fcd9b72ff45b226a5c37782c" target="_top" xlink:title="Retrieves ComponentOps for a component type.">
<polygon fill="white" stroke="#666666" points="330,-35 169,-35 169,-5 330,-5 330,-35"/>
<text text-anchor="start" x="177" y="-23" font-family="Helvetica,sans-Serif" font-size="10.00">helios::engine::ecs</text>
<text text-anchor="middle" x="249.5" y="-12" font-family="Helvetica,sans-Serif" font-size="10.00">::ComponentOpsRegistry::ops</text>
</a>
</g>
</g>
<!-- Node1&#45;&gt;Node9 -->
<g id="edge13_Node000001_Node000009" class="edge">
<title>Node1&#45;&gt;Node9</title>
<g id="a_edge13_Node000001_Node000009"><a xlink:title=" ">
<path fill="none" stroke="#63b8ff" d="M93.43,-109.96C125.02,-91.63 178.5,-60.61 213.66,-40.21"/>
<polygon fill="#63b8ff" stroke="#63b8ff" points="215.72,-43.06 222.62,-35.02 212.21,-37.01 215.72,-43.06"/>
</a>
</g>
</g>
<!-- Node10 -->
<g id="Node000010" class="node">
<title>Node10</title>
<g id="a_Node000010"><a xlink:href="classhelios_1_1engine_1_1ecs_1_1EntityManager.html#a565e420c4ba6ff7faf687ae12da87536" target="_top" xlink:title="Returns raw void pointer to a component.">
<polygon fill="white" stroke="#666666" points="308.5,-140 190.5,-140 190.5,-110 308.5,-110 308.5,-140"/>
<text text-anchor="start" x="198.5" y="-128" font-family="Helvetica,sans-Serif" font-size="10.00">helios::engine::ecs</text>
<text text-anchor="middle" x="249.5" y="-117" font-family="Helvetica,sans-Serif" font-size="10.00">::EntityManager::raw</text>
</a>
</g>
</g>
<!-- Node1&#45;&gt;Node10 -->
<g id="edge15_Node000001_Node000010" class="edge">
<title>Node1&#45;&gt;Node10</title>
<g id="a_edge15_Node000001_Node000010"><a xlink:title=" ">
<path fill="none" stroke="#63b8ff" d="M133.1,-125C148.45,-125 164.84,-125 180.31,-125"/>
<polygon fill="#63b8ff" stroke="#63b8ff" points="180.32,-128.5 190.32,-125 180.32,-121.5 180.32,-128.5"/>
</a>
</g>
</g>
<!-- Node2&#45;&gt;Node2 -->
<g id="edge2_Node000002_Node000002" class="edge">
<title>Node2&#45;&gt;Node2</title>
<g id="a_edge2_Node000002_Node000002"><a xlink:title=" ">
<path fill="none" stroke="#63b8ff" d="M400.86,-183.28C393.83,-192.41 404.38,-201 432.5,-201 449.2,-201 459.7,-197.97 464.01,-193.6"/>
<polygon fill="#63b8ff" stroke="#63b8ff" points="467.51,-193.32 464.14,-183.28 460.51,-193.23 467.51,-193.32"/>
</a>
</g>
</g>
<!-- Node2&#45;&gt;Node3 -->
<g id="edge3_Node000002_Node000003" class="edge">
<title>Node2&#45;&gt;Node3</title>
<g id="a_edge3_Node000002_Node000003"><a xlink:title=" ">
<path fill="none" stroke="#63b8ff" d="M499.07,-162.89C511.47,-161.92 524.55,-160.9 537.24,-159.91"/>
<polygon fill="#63b8ff" stroke="#63b8ff" points="537.61,-163.39 547.31,-159.12 537.07,-156.41 537.61,-163.39"/>
</a>
</g>
</g>
<!-- Node4&#45;&gt;Node3 -->
<g id="edge6_Node000004_Node000003" class="edge">
<title>Node4&#45;&gt;Node3</title>
<g id="a_edge6_Node000004_Node000003"><a xlink:title=" ">
<path fill="none" stroke="#63b8ff" d="M471.13,-97.09C498.77,-108.18 536.51,-123.32 566.12,-135.19"/>
<polygon fill="#63b8ff" stroke="#63b8ff" points="564.84,-138.45 575.42,-138.93 567.44,-131.96 564.84,-138.45"/>
</a>
</g>
</g>
<!-- Node5 -->
<g id="Node000005" class="node">
<title>Node5</title>
<g id="a_Node000005"><a xlink:href="classhelios_1_1engine_1_1ecs_1_1types_1_1ComponentTypeId.html#a1dbab446eae5a92340c6cf90f44e1205" target="_top" xlink:title="Gets the ComponentTypeId for a specific component type.">
<polygon fill="white" stroke="#666666" points="693,-102 535,-102 535,-72 693,-72 693,-102"/>
<text text-anchor="start" x="543" y="-90" font-family="Helvetica,sans-Serif" font-size="10.00">helios::engine::ecs</text>
<text text-anchor="middle" x="614" y="-79" font-family="Helvetica,sans-Serif" font-size="10.00">::types::ComponentTypeId::id</text>
</a>
</g>
</g>
<!-- Node4&#45;&gt;Node5 -->
<g id="edge7_Node000004_Node000005" class="edge">
<title>Node4&#45;&gt;Node5</title>
<g id="a_edge7_Node000004_Node000005"><a xlink:title=" ">
<path fill="none" stroke="#63b8ff" d="M491.28,-83.61C501.88,-83.9 513.15,-84.22 524.4,-84.53"/>
<polygon fill="#63b8ff" stroke="#63b8ff" points="524.62,-88.04 534.71,-84.82 524.81,-81.04 524.62,-88.04"/>
</a>
</g>
</g>
<!-- Node8 -->
<g id="Node000008" class="node">
<title>Node8</title>
<g id="a_Node000008"><a xlink:href="classhelios_1_1engine_1_1ecs_1_1types_1_1ComponentTypeId.html#a1af987bd8e91584a8093f8560d56b932" target="_top" xlink:title="Returns the underlying ID value.">
<polygon fill="white" stroke="#666666" points="685.5,-53.5 542.5,-53.5 542.5,-12.5 685.5,-12.5 685.5,-53.5"/>
<text text-anchor="start" x="550.5" y="-41.5" font-family="Helvetica,sans-Serif" font-size="10.00">helios::engine::ecs</text>
<text text-anchor="start" x="550.5" y="-30.5" font-family="Helvetica,sans-Serif" font-size="10.00">::types::ComponentTypeId</text>
<text text-anchor="middle" x="614" y="-19.5" font-family="Helvetica,sans-Serif" font-size="10.00">::value</text>
</a>
</g>
</g>
<!-- Node4&#45;&gt;Node8 -->
<g id="edge12_Node000004_Node000008" class="edge">
<title>Node4&#45;&gt;Node8</title>
<g id="a_edge12_Node000004_Node000008"><a xlink:title=" ">
<path fill="none" stroke="#63b8ff" d="M488.82,-66.9C502.68,-63.12 517.83,-58.98 532.63,-54.94"/>
<polygon fill="#63b8ff" stroke="#63b8ff" points="533.57,-58.31 542.29,-52.3 531.73,-51.56 533.57,-58.31"/>
</a>
</g>
</g>
<!-- Node6 -->
<g id="Node000006" class="node">
<title>Node6</title>
<g id="a_Node000006"><a xlink:href="classhelios_1_1engine_1_1ecs_1_1types_1_1ComponentTypeId.html#a1170d37d7a7c53debbf7b62fb3832a2e" target="_top" xlink:title="Constructs a ComponentTypeId with a specific ID value.">
<polygon fill="white" stroke="#666666" points="872,-107.5 729,-107.5 729,-66.5 872,-66.5 872,-107.5"/>
<text text-anchor="start" x="737" y="-95.5" font-family="Helvetica,sans-Serif" font-size="10.00">helios::engine::ecs</text>
<text text-anchor="start" x="737" y="-84.5" font-family="Helvetica,sans-Serif" font-size="10.00">::types::ComponentTypeId</text>
<text text-anchor="middle" x="800.5" y="-73.5" font-family="Helvetica,sans-Serif" font-size="10.00">::ComponentTypeId</text>
</a>
</g>
</g>
<!-- Node5&#45;&gt;Node6 -->
<g id="edge8_Node000005_Node000006" class="edge">
<title>Node5&#45;&gt;Node6</title>
<g id="a_edge8_Node000005_Node000006"><a xlink:title=" ">
<path fill="none" stroke="#63b8ff" d="M693.24,-80.32C701.62,-80.24 710.16,-80.23 718.57,-80.3"/>
<polygon fill="#63b8ff" stroke="#63b8ff" points="718.7,-83.8 728.74,-80.42 718.79,-76.8 718.7,-83.8"/>
</a>
</g>
</g>
<!-- Node7 -->
<g id="Node000007" class="node">
<title>Node7</title>
<g id="a_Node000007"><a xlink:href="classhelios_1_1core_1_1data_1_1TypeIndexer.html#a33aff035cb667c63fcd123a69a91b3cc" target="_top" xlink:title="Generates and returns a unique type index for a specific type.">
<polygon fill="white" stroke="#666666" points="868.5,-30 732.5,-30 732.5,0 868.5,0 868.5,-30"/>
<text text-anchor="start" x="740.5" y="-18" font-family="Helvetica,sans-Serif" font-size="10.00">helios::core::data</text>
<text text-anchor="middle" x="800.5" y="-7" font-family="Helvetica,sans-Serif" font-size="10.00">::TypeIndexer::typeIndex</text>
</a>
</g>
</g>
<!-- Node5&#45;&gt;Node7 -->
<g id="edge10_Node000005_Node000007" class="edge">
<title>Node5&#45;&gt;Node7</title>
<g id="a_edge10_Node000005_Node000007"><a xlink:title=" ">
<path fill="none" stroke="#63b8ff" d="M664.79,-71.91C674.22,-68.81 683.96,-65.43 693,-62 714.92,-53.68 738.84,-43.24 758.46,-34.32"/>
<polygon fill="#63b8ff" stroke="#63b8ff" points="760.08,-37.43 767.71,-30.08 757.16,-31.07 760.08,-37.43"/>
</a>
</g>
</g>
<!-- Node6&#45;&gt;Node5 -->
<g id="edge9_Node000006_Node000005" class="edge">
<title>Node6&#45;&gt;Node5</title>
<g id="a_edge9_Node000006_Node000005"><a xlink:title=" ">
<path fill="none" stroke="#63b8ff" d="M728.74,-93.58C720.4,-93.72 711.8,-93.77 703.25,-93.74"/>
<polygon fill="#63b8ff" stroke="#63b8ff" points="703.27,-90.24 693.24,-93.68 703.22,-97.24 703.27,-90.24"/>
</a>
</g>
</g>
<!-- Node7&#45;&gt;Node7 -->
<g id="edge11_Node000007_Node000007" class="edge">
<title>Node7&#45;&gt;Node7</title>
<g id="a_edge11_Node000007_Node000007"><a xlink:title=" ">
<path fill="none" stroke="#63b8ff" d="M767.8,-30.28C760.54,-39.41 771.44,-48 800.5,-48 817.76,-48 828.61,-44.97 833.06,-40.6"/>
<polygon fill="#63b8ff" stroke="#63b8ff" points="836.56,-40.32 833.2,-30.28 829.56,-40.23 836.56,-40.32"/>
</a>
</g>
</g>
<!-- Node9&#45;&gt;Node8 -->
<g id="edge14_Node000009_Node000008" class="edge">
<title>Node9&#45;&gt;Node8</title>
<g id="a_edge14_Node000009_Node000008"><a xlink:title=" ">
<path fill="none" stroke="#63b8ff" d="M330.27,-20.59C379.03,-21.21 442.64,-22.46 499,-25 509.77,-25.49 521.11,-26.13 532.29,-26.83"/>
<polygon fill="#63b8ff" stroke="#63b8ff" points="532.28,-30.34 542.49,-27.5 532.74,-23.36 532.28,-30.34"/>
</a>
</g>
</g>
<!-- Node10&#45;&gt;Node3 -->
<g id="edge16_Node000010_Node000003" class="edge">
<title>Node10&#45;&gt;Node3</title>
<g id="a_edge16_Node000010_Node000003"><a xlink:title=" ">
<path fill="none" stroke="#63b8ff" d="M308.76,-129.27C359.13,-133 433.88,-138.65 499,-144 511.34,-145.01 524.43,-146.13 537.18,-147.23"/>
<polygon fill="#63b8ff" stroke="#63b8ff" points="537.04,-150.73 547.3,-148.11 537.64,-143.76 537.04,-150.73"/>
</a>
</g>
</g>
<!-- Node10&#45;&gt;Node4 -->
<g id="edge17_Node000010_Node000004" class="edge">
<title>Node10&#45;&gt;Node4</title>
<g id="a_edge17_Node000010_Node000004"><a xlink:title=" ">
<path fill="none" stroke="#63b8ff" d="M308.77,-111.16C326.38,-106.97 345.87,-102.34 364.03,-98.03"/>
<polygon fill="#63b8ff" stroke="#63b8ff" points="365.04,-101.39 373.96,-95.67 363.42,-94.58 365.04,-101.39"/>
</a>
</g>
</g>
<!-- Node10&#45;&gt;Node8 -->
<g id="edge18_Node000010_Node000008" class="edge">
<title>Node10&#45;&gt;Node8</title>
<g id="a_edge18_Node000010_Node000008"><a xlink:title=" ">
<path fill="none" stroke="#63b8ff" d="M270.52,-109.8C292.6,-93.92 329.83,-69.72 366,-58 419.69,-40.61 483.07,-34.47 532.19,-32.62"/>
<polygon fill="#63b8ff" stroke="#63b8ff" points="532.56,-36.11 542.44,-32.29 532.34,-29.11 532.56,-36.11"/>
</a>
</g>
</g>
</g>
</svg>

<g id="navigator" transform="translate(0 0)" fill="#404254">
  <rect fill="#f2f5e9" fill-opacity="0.5" stroke="#606060" stroke-width=".5" x="0" y="0" width="60" height="60"/>
  <use id="zoomplus" xlink:href="#zoomPlus" x="17" y="9" onmousedown="handleZoom(evt,'in')"/>
  <use id="zoomminus" xlink:href="#zoomMin" x="42" y="9" onmousedown="handleZoom(evt,'out')"/>
  <use id="reset" xlink:href="#resetDef" x="30" y="36" onmousedown="handleReset()"/>
   <use id="arrowup" xlink:href="#arrowUp" x="0" y="0" onmousedown="handlePan(0,-1)"/>
  <use id="arrowright" xlink:href="#arrowRight" x="0" y="0" onmousedown="handlePan(1,0)"/>
  <use id="arrowdown" xlink:href="#arrowDown" x="0" y="0" onmousedown="handlePan(0,1)"/>
  <use id="arrowleft" xlink:href="#arrowLeft" x="0" y="0" onmousedown="handlePan(-1,0)"/>
</g>
<svg viewBox="0 0 15 15" width="100%" height="30px" preserveAspectRatio="xMaxYMin meet">
 <g id="arrow_out" transform="scale(0.3 0.3)">
  <a xlink:href="classhelios_1_1engine_1_1ecs_1_1EntityManager_ab9240afd7963c80b11c9025376fa203d_cgraph_org.svg" target="_base">
   <rect id="button" ry="5" rx="5" y="6" x="6" height="38" width="38"
        fill="#f2f5e9" fill-opacity="0.5" stroke="#606060" stroke-width="1.0"/>
   <path id="arrow"
     d="M 11.500037,31.436501 C 11.940474,20.09759 22.043105,11.32322 32.158766,21.979434 L 37.068811,17.246167 C 37.068811,17.246167 37.088388,32 37.088388,32 L 22.160133,31.978069 C 22.160133,31.978069 26.997745,27.140456 26.997745,27.140456 C 18.528582,18.264221 13.291696,25.230495 11.500037,31.436501 z"
     style="fill:#404040;"/>
  </a>
 </g>
</svg>

<style type='text/css'>
<![CDATA[
[data-mouse-over-selected='false'] { opacity: 0.7; }
[data-mouse-over-selected='true']  { opacity: 1.0; }
]]>
</style>
<script type="application/ecmascript"><![CDATA[
document.addEventListener('DOMContentLoaded', (event) => {
  highlightEdges();
  highlightAdjacentNodes();
});
]]></script>
</svg>
