<?xml version="1.0" encoding="UTF-8" standalone="no"?>
<!DOCTYPE svg PUBLIC "-//W3C//DTD SVG 1.1//EN"
 "http://www.w3.org/Graphics/SVG/1.1/DTD/svg11.dtd">
<!-- Generated by graphviz version 2.43.0 (0)
 -->
<!-- Title: helios::rendering::RenderPassFactory::buildRenderPass Pages: 1 -->
<svg width="605pt" height="281pt"
 viewBox="0.00 0.00 605.00 281.00" xmlns="http://www.w3.org/2000/svg" xmlns:xlink="http://www.w3.org/1999/xlink">
<g id="graph0" class="graph" transform="scale(1 1) rotate(0) translate(4 277)">
<title>helios::rendering::RenderPassFactory::buildRenderPass</title>
<!-- Node1 -->
<g id="Node000001" class="node">
<title>Node1</title>
<g id="a_Node000001"><a xlink:title="Builds a `RenderPass` from a given `heliosscene::Snapshot`.">
<polygon fill="#999999" stroke="#666666" points="194,-102 0,-102 0,-72 194,-72 194,-102"/>
<text text-anchor="start" x="8" y="-90" font-family="Helvetica,sans-Serif" font-size="10.00">helios::rendering::</text>
<text text-anchor="middle" x="97" y="-79" font-family="Helvetica,sans-Serif" font-size="10.00">RenderPassFactory::buildRenderPass</text>
</a>
</g>
</g>
<!-- Node2 -->
<g id="Node000002" class="node">
<title>Node2</title>
<g id="a_Node000002"><a xlink:href="classhelios_1_1rendering_1_1RenderPassFactory.html#ab24ad189d343ee9bdc7ed6395ee76bcb" target="_top" xlink:title="Populates an existing `RenderQueue` with `RenderCommand`s based on a `Snapshot`.">
<polygon fill="white" stroke="#666666" points="386,-185.5 230,-185.5 230,-144.5 386,-144.5 386,-185.5"/>
<text text-anchor="start" x="238" y="-173.5" font-family="Helvetica,sans-Serif" font-size="10.00">helios::rendering::</text>
<text text-anchor="start" x="238" y="-162.5" font-family="Helvetica,sans-Serif" font-size="10.00">RenderPassFactory::populate</text>
<text text-anchor="middle" x="308" y="-151.5" font-family="Helvetica,sans-Serif" font-size="10.00">RenderQueue</text>
</a>
</g>
</g>
<!-- Node1&#45;&gt;Node2 -->
<g id="edge1_Node000001_Node000002" class="edge">
<title>Node1&#45;&gt;Node2</title>
<g id="a_edge1_Node000001_Node000002"><a xlink:title=" ">
<path fill="none" stroke="#63b8ff" d="M138.3,-102.04C167.79,-113.05 208.42,-128.21 242.42,-140.9"/>
<polygon fill="#63b8ff" stroke="#63b8ff" points="241.22,-144.19 251.81,-144.4 243.67,-137.63 241.22,-144.19"/>
</a>
</g>
</g>
<!-- Node7 -->
<g id="Node000007" class="node">
<title>Node7</title>
<g id="a_Node000007"><a xlink:href="classhelios_1_1scene_1_1Snapshot.html#aae4b2f152fd9144ce8e264064495e867" target="_top" xlink:title="Returns a const reference to the projection matrix for this Snapshot.">
<polygon fill="white" stroke="#666666" points="373.5,-126 242.5,-126 242.5,-96 373.5,-96 373.5,-126"/>
<text text-anchor="start" x="250.5" y="-114" font-family="Helvetica,sans-Serif" font-size="10.00">helios::scene::Snapshot</text>
<text text-anchor="middle" x="308" y="-103" font-family="Helvetica,sans-Serif" font-size="10.00">::projectionMatrix</text>
</a>
</g>
</g>
<!-- Node1&#45;&gt;Node7 -->
<g id="edge7_Node000001_Node000007" class="edge">
<title>Node1&#45;&gt;Node7</title>
<g id="a_edge7_Node000001_Node000007"><a xlink:title=" ">
<path fill="none" stroke="#63b8ff" d="M194.24,-98.05C206.96,-99.51 219.85,-100.99 232.14,-102.4"/>
<polygon fill="#63b8ff" stroke="#63b8ff" points="231.97,-105.91 242.31,-103.57 232.77,-98.95 231.97,-105.91"/>
</a>
</g>
</g>
<!-- Node8 -->
<g id="Node000008" class="node">
<title>Node8</title>
<g id="a_Node000008"><a xlink:href="classhelios_1_1scene_1_1Snapshot.html#a10d5c7307db942f3717c0ea07597020b" target="_top" xlink:title="Returns a const reference to the view matrix for this Snapshot.">
<polygon fill="white" stroke="#666666" points="373.5,-78 242.5,-78 242.5,-48 373.5,-48 373.5,-78"/>
<text text-anchor="start" x="250.5" y="-66" font-family="Helvetica,sans-Serif" font-size="10.00">helios::scene::Snapshot</text>
<text text-anchor="middle" x="308" y="-55" font-family="Helvetica,sans-Serif" font-size="10.00">::viewMatrix</text>
</a>
</g>
</g>
<!-- Node1&#45;&gt;Node8 -->
<g id="edge8_Node000001_Node000008" class="edge">
<title>Node1&#45;&gt;Node8</title>
<g id="a_edge8_Node000001_Node000008"><a xlink:title=" ">
<path fill="none" stroke="#63b8ff" d="M194.24,-75.95C206.96,-74.49 219.85,-73.01 232.14,-71.6"/>
<polygon fill="#63b8ff" stroke="#63b8ff" points="232.77,-75.05 242.31,-70.43 231.97,-68.09 232.77,-75.05"/>
</a>
</g>
</g>
<!-- Node9 -->
<g id="Node000009" class="node">
<title>Node9</title>
<g id="a_Node000009"><a xlink:href="classhelios_1_1scene_1_1Snapshot.html#acf922e0ea3d04ec30e0fba9cf2592ae5" target="_top" xlink:title="Returns the viewport associated with this Snapshot.">
<polygon fill="white" stroke="#666666" points="373.5,-30 242.5,-30 242.5,0 373.5,0 373.5,-30"/>
<text text-anchor="start" x="250.5" y="-18" font-family="Helvetica,sans-Serif" font-size="10.00">helios::scene::Snapshot</text>
<text text-anchor="middle" x="308" y="-7" font-family="Helvetica,sans-Serif" font-size="10.00">::viewport</text>
</a>
</g>
</g>
<!-- Node1&#45;&gt;Node9 -->
<g id="edge9_Node000001_Node000009" class="edge">
<title>Node1&#45;&gt;Node9</title>
<g id="a_edge9_Node000001_Node000009"><a xlink:title=" ">
<path fill="none" stroke="#63b8ff" d="M137.98,-71.91C164.07,-62.2 198.92,-49.49 230,-39 235.83,-37.03 241.93,-35.03 248.04,-33.07"/>
<polygon fill="#63b8ff" stroke="#63b8ff" points="249.13,-36.39 257.6,-30.02 247.01,-29.72 249.13,-36.39"/>
</a>
</g>
</g>
<!-- Node3 -->
<g id="Node000003" class="node">
<title>Node3</title>
<g id="a_Node000003"><a xlink:href="classhelios_1_1rendering_1_1RenderQueue.html#ace107c45024c29efc237107e3307c2ab" target="_top" xlink:title="Adds a `RenderCommand` to this `RenderQueue`. Ownership of the `RenderCommand` is transferred to this...">
<polygon fill="white" stroke="#666666" points="563,-255 456,-255 456,-225 563,-225 563,-255"/>
<text text-anchor="start" x="464" y="-243" font-family="Helvetica,sans-Serif" font-size="10.00">helios::rendering::</text>
<text text-anchor="middle" x="509.5" y="-232" font-family="Helvetica,sans-Serif" font-size="10.00">RenderQueue::add</text>
</a>
</g>
</g>
<!-- Node2&#45;&gt;Node3 -->
<g id="edge2_Node000002_Node000003" class="edge">
<title>Node2&#45;&gt;Node3</title>
<g id="a_edge2_Node000002_Node000003"><a xlink:title=" ">
<path fill="none" stroke="#63b8ff" d="M350.49,-185.57C371.59,-195.55 397.82,-207.25 422,-216 429.79,-218.82 438.08,-221.51 446.33,-223.99"/>
<polygon fill="#63b8ff" stroke="#63b8ff" points="445.37,-227.36 455.95,-226.81 447.33,-220.64 445.37,-227.36"/>
</a>
</g>
</g>
<!-- Node4 -->
<g id="Node000004" class="node">
<title>Node4</title>
<g id="a_Node000004"><a xlink:href="classhelios_1_1rendering_1_1RenderQueue.html#a2d14f75f8f57728f71608dbfde485d80" target="_top" xlink:title="Clears all `RenderCommand` objects from the queue.">
<polygon fill="white" stroke="#666666" points="566,-207 453,-207 453,-177 566,-177 566,-207"/>
<text text-anchor="start" x="461" y="-195" font-family="Helvetica,sans-Serif" font-size="10.00">helios::rendering::</text>
<text text-anchor="middle" x="509.5" y="-184" font-family="Helvetica,sans-Serif" font-size="10.00">RenderQueue::clear</text>
</a>
</g>
</g>
<!-- Node2&#45;&gt;Node4 -->
<g id="edge4_Node000002_Node000004" class="edge">
<title>Node2&#45;&gt;Node4</title>
<g id="a_edge4_Node000002_Node000004"><a xlink:title=" ">
<path fill="none" stroke="#63b8ff" d="M386.13,-175.44C404.83,-177.97 424.64,-180.65 442.75,-183.1"/>
<polygon fill="#63b8ff" stroke="#63b8ff" points="442.53,-186.6 452.91,-184.48 443.47,-179.67 442.53,-186.6"/>
</a>
</g>
</g>
<!-- Node5 -->
<g id="Node000005" class="node">
<title>Node5</title>
<g id="a_Node000005"><a xlink:href="classhelios_1_1rendering_1_1RenderPassFactory.html#a18d1346e8e3c78358ccb1872da3125a3" target="_top" xlink:title="Creates a single `RenderCommand` from a `heliosscene::SnapshotItem`.">
<polygon fill="white" stroke="#666666" points="597,-158.5 422,-158.5 422,-117.5 597,-117.5 597,-158.5"/>
<text text-anchor="start" x="430" y="-146.5" font-family="Helvetica,sans-Serif" font-size="10.00">helios::rendering::</text>
<text text-anchor="start" x="430" y="-135.5" font-family="Helvetica,sans-Serif" font-size="10.00">RenderPassFactory::makeRender</text>
<text text-anchor="middle" x="509.5" y="-124.5" font-family="Helvetica,sans-Serif" font-size="10.00">Command</text>
</a>
</g>
</g>
<!-- Node2&#45;&gt;Node5 -->
<g id="edge5_Node000002_Node000005" class="edge">
<title>Node2&#45;&gt;Node5</title>
<g id="a_edge5_Node000002_Node000005"><a xlink:title=" ">
<path fill="none" stroke="#63b8ff" d="M386.13,-154.56C394.56,-153.42 403.22,-152.25 411.85,-151.08"/>
<polygon fill="#63b8ff" stroke="#63b8ff" points="412.51,-154.52 421.95,-149.71 411.57,-147.59 412.51,-154.52"/>
</a>
</g>
</g>
<!-- Node6 -->
<g id="Node000006" class="node">
<title>Node6</title>
<g id="a_Node000006"><a xlink:href="classhelios_1_1scene_1_1Snapshot.html#adb178bc5c792fe32d49f76cba70b71c2" target="_top" xlink:title="Returns a const reference to this Snapshot&#39;s SnapshotItems.">
<polygon fill="white" stroke="#666666" points="575,-99 444,-99 444,-69 575,-69 575,-99"/>
<text text-anchor="start" x="452" y="-87" font-family="Helvetica,sans-Serif" font-size="10.00">helios::scene::Snapshot</text>
<text text-anchor="middle" x="509.5" y="-76" font-family="Helvetica,sans-Serif" font-size="10.00">::snapshotItems</text>
</a>
</g>
</g>
<!-- Node2&#45;&gt;Node6 -->
<g id="edge6_Node000002_Node000006" class="edge">
<title>Node2&#45;&gt;Node6</title>
<g id="a_edge6_Node000002_Node000006"><a xlink:title=" ">
<path fill="none" stroke="#63b8ff" d="M366.97,-144.4C373.51,-141.49 379.98,-138.35 386,-135 403.48,-125.28 404.05,-116.83 422,-108 425.96,-106.05 430.11,-104.24 434.34,-102.56"/>
<polygon fill="#63b8ff" stroke="#63b8ff" points="435.57,-105.84 443.74,-99.09 433.14,-99.27 435.57,-105.84"/>
</a>
</g>
</g>
<!-- Node3&#45;&gt;Node3 -->
<g id="edge3_Node000003_Node000003" class="edge">
<title>Node3&#45;&gt;Node3</title>
<g id="a_edge3_Node000003_Node000003"><a xlink:title=" ">
<path fill="none" stroke="#63b8ff" d="M474.34,-255.28C466.53,-264.41 478.25,-273 509.5,-273 528.05,-273 539.72,-269.97 544.51,-265.6"/>
<polygon fill="#63b8ff" stroke="#63b8ff" points="548.01,-265.32 544.66,-255.28 541.01,-265.22 548.01,-265.32"/>
</a>
</g>
</g>
</g>
</svg>
