<?xml version="1.0" encoding="UTF-8" standalone="no"?>
<!DOCTYPE svg PUBLIC "-//W3C//DTD SVG 1.1//EN"
 "http://www.w3.org/Graphics/SVG/1.1/DTD/svg11.dtd">
<!-- Generated by graphviz version 2.43.0 (0)
 -->
<!-- Title: helios::rendering::Renderable::Renderable Pages: 1 -->
<svg width="312pt" height="182pt"
 viewBox="0.00 0.00 312.00 182.00" xmlns="http://www.w3.org/2000/svg" xmlns:xlink="http://www.w3.org/1999/xlink">

<svg id="main" version="1.1" xmlns="http://www.w3.org/2000/svg" xmlns:xlink="http://www.w3.org/1999/xlink" xml:space="preserve">

<style type="text/css"><![CDATA[
.node, .edge {opacity: 0.7;}
.node.selected, .edge.selected {opacity: 1;}
.edge:hover path { stroke: red; }
.edge:hover polygon { stroke: red; fill: red; }
]]></style>
<script type="application/ecmascript" xlink:href="svg.min.js"/>
<svg id="graph" class="graph">
<g id="graph0" class="graph" transform="scale(1 1) rotate(0) translate(4 178)">
<title>helios::rendering::Renderable::Renderable</title>
<!-- Node1 -->
<g id="Node000001" class="node">
<title>Node1</title>
<g id="a_Node000001"><a xlink:title="Default constructor.">
<polygon fill="#999999" stroke="#666666" points="304,-102 170,-102 170,-72 304,-72 304,-102"/>
<text text-anchor="start" x="178" y="-90" font-family="Helvetica,sans-Serif" font-size="10.00">helios::rendering::</text>
<text text-anchor="middle" x="237" y="-79" font-family="Helvetica,sans-Serif" font-size="10.00">Renderable::Renderable</text>
</a>
</g>
</g>
<!-- Node2 -->
<g id="Node000002" class="node">
<title>Node2</title>
<g id="a_Node000002"><a xlink:href="classhelios_1_1rendering_1_1Renderable.html#adc490817c535742ed59dc691a68f440f" target="_top" xlink:title="Deleted copy assignment operator.">
<polygon fill="white" stroke="#666666" points="131,-174 3,-174 3,-144 131,-144 131,-174"/>
<text text-anchor="start" x="11" y="-162" font-family="Helvetica,sans-Serif" font-size="10.00">helios::rendering::</text>
<text text-anchor="middle" x="67" y="-151" font-family="Helvetica,sans-Serif" font-size="10.00">Renderable::operator=</text>
</a>
</g>
</g>
<!-- Node1&#45;&gt;Node2 -->
<g id="edge1_Node000001_Node000002" class="edge">
<title>Node1&#45;&gt;Node2</title>
<g id="a_edge1_Node000001_Node000002"><a xlink:title=" ">
<path fill="none" stroke="#63b8ff" d="M196.82,-106.46C178,-115.54 155.02,-126.25 134,-135 126.68,-138.04 118.83,-141.09 111.18,-143.94"/>
<polygon fill="#63b8ff" stroke="#63b8ff" points="198.51,-109.53 205.97,-102.01 195.45,-103.23 198.51,-109.53"/>
</a>
</g>
</g>
<!-- Node3 -->
<g id="Node000003" class="node">
<title>Node3</title>
<g id="a_Node000003"><a xlink:href="classhelios_1_1rendering_1_1Renderable.html#ac5f1ab331ba24f577a29f072701e595d" target="_top" xlink:title="Move assignment operator.">
<polygon fill="white" stroke="#666666" points="131,-126 3,-126 3,-96 131,-96 131,-126"/>
<text text-anchor="start" x="11" y="-114" font-family="Helvetica,sans-Serif" font-size="10.00">helios::rendering::</text>
<text text-anchor="middle" x="67" y="-103" font-family="Helvetica,sans-Serif" font-size="10.00">Renderable::operator=</text>
</a>
</g>
</g>
<!-- Node1&#45;&gt;Node3 -->
<g id="edge2_Node000001_Node000003" class="edge">
<title>Node1&#45;&gt;Node3</title>
<g id="a_edge2_Node000001_Node000003"><a xlink:title=" ">
<path fill="none" stroke="#63b8ff" d="M159.42,-97.94C149.97,-99.29 140.4,-100.66 131.18,-101.97"/>
<polygon fill="#63b8ff" stroke="#63b8ff" points="160.2,-101.36 169.6,-96.49 159.21,-94.43 160.2,-101.36"/>
</a>
</g>
</g>
<!-- Node4 -->
<g id="Node000004" class="node">
<title>Node4</title>
<g id="a_Node000004"><a xlink:href="classhelios_1_1rendering_1_1Renderable.html#a6a9406c41eca52028f9cd08a1c2c300a" target="_top" xlink:title="Deleted copy constructor.">
<polygon fill="white" stroke="#666666" points="134,-78 0,-78 0,-48 134,-48 134,-78"/>
<text text-anchor="start" x="8" y="-66" font-family="Helvetica,sans-Serif" font-size="10.00">helios::rendering::</text>
<text text-anchor="middle" x="67" y="-55" font-family="Helvetica,sans-Serif" font-size="10.00">Renderable::Renderable</text>
</a>
</g>
</g>
<!-- Node1&#45;&gt;Node4 -->
<g id="edge3_Node000001_Node000004" class="edge">
<title>Node1&#45;&gt;Node4</title>
<g id="a_edge3_Node000001_Node000004"><a xlink:title=" ">
<path fill="none" stroke="#63b8ff" d="M159.68,-76.1C151.17,-74.88 142.56,-73.65 134.19,-72.46"/>
<polygon fill="#63b8ff" stroke="#63b8ff" points="159.21,-79.57 169.6,-77.51 160.2,-72.64 159.21,-79.57"/>
</a>
</g>
</g>
<!-- Node5 -->
<g id="Node000005" class="node">
<title>Node5</title>
<g id="a_Node000005"><a xlink:href="classhelios_1_1rendering_1_1Renderable.html#a6d557b575fc5bd09bcb1370e5ea4b0a9" target="_top" xlink:title="Move constructor.">
<polygon fill="white" stroke="#666666" points="134,-30 0,-30 0,0 134,0 134,-30"/>
<text text-anchor="start" x="8" y="-18" font-family="Helvetica,sans-Serif" font-size="10.00">helios::rendering::</text>
<text text-anchor="middle" x="67" y="-7" font-family="Helvetica,sans-Serif" font-size="10.00">Renderable::Renderable</text>
</a>
</g>
</g>
<!-- Node1&#45;&gt;Node5 -->
<g id="edge4_Node000001_Node000005" class="edge">
<title>Node1&#45;&gt;Node5</title>
<g id="a_edge4_Node000001_Node000005"><a xlink:title=" ">
<path fill="none" stroke="#63b8ff" d="M196.82,-67.54C178,-58.46 155.02,-47.75 134,-39 126.68,-35.96 118.83,-32.91 111.18,-30.06"/>
<polygon fill="#63b8ff" stroke="#63b8ff" points="195.45,-70.77 205.97,-71.99 198.51,-64.47 195.45,-70.77"/>
</a>
</g>
</g>
</g>
</svg>
</svg>

<style type='text/css'>
<![CDATA[
[data-mouse-over-selected='false'] { opacity: 0.7; }
[data-mouse-over-selected='true']  { opacity: 1.0; }
]]>
</style>
<script type="application/ecmascript"><![CDATA[
document.addEventListener('DOMContentLoaded', (event) => {
  highlightEdges();
  highlightAdjacentNodes();
});
]]></script>
</svg>
