<?xml version="1.0" encoding="UTF-8" standalone="no"?>
<!DOCTYPE svg PUBLIC "-//W3C//DTD SVG 1.1//EN"
 "http://www.w3.org/Graphics/SVG/1.1/DTD/svg11.dtd">
<!-- Generated by graphviz version 2.43.0 (0)
 -->
<!-- Title: helios::engine::runtime::world::UpdateContext::UpdateContext Pages: 1 -->
<svg width="302pt" height="462pt"
 viewBox="0.00 0.00 302.00 462.00" xmlns="http://www.w3.org/2000/svg" xmlns:xlink="http://www.w3.org/1999/xlink">
<g id="graph0" class="graph" transform="scale(1 1) rotate(0) translate(4 458)">
<title>helios::engine::runtime::world::UpdateContext::UpdateContext</title>
<!-- Node1 -->
<g id="Node000001" class="node">
<title>Node1</title>
<g id="a_Node000001"><a xlink:title="Constructs an UpdateContext with all per&#45;frame dependencies.">
<polygon fill="#999999" stroke="#666666" points="129,-247 0,-247 0,-206 129,-206 129,-247"/>
<text text-anchor="start" x="8" y="-235" font-family="Helvetica,sans-Serif" font-size="10.00">helios::engine::runtime</text>
<text text-anchor="start" x="8" y="-224" font-family="Helvetica,sans-Serif" font-size="10.00">::world::UpdateContext</text>
<text text-anchor="middle" x="64.5" y="-213" font-family="Helvetica,sans-Serif" font-size="10.00">::UpdateContext</text>
</a>
</g>
</g>
<!-- Node2 -->
<g id="Node000002" class="node">
<title>Node2</title>
<g id="a_Node000002"><a xlink:href="classhelios_1_1engine_1_1runtime_1_1world_1_1UpdateContext.html#a0197c610dc51fc676bcde9b84545ed7b" target="_top" xlink:title="Returns the time elapsed since the last frame, in seconds.">
<polygon fill="white" stroke="#666666" points="294,-454 165,-454 165,-413 294,-413 294,-454"/>
<text text-anchor="start" x="173" y="-442" font-family="Helvetica,sans-Serif" font-size="10.00">helios::engine::runtime</text>
<text text-anchor="start" x="173" y="-431" font-family="Helvetica,sans-Serif" font-size="10.00">::world::UpdateContext</text>
<text text-anchor="middle" x="229.5" y="-420" font-family="Helvetica,sans-Serif" font-size="10.00">::deltaTime</text>
</a>
</g>
</g>
<!-- Node1&#45;&gt;Node2 -->
<g id="edge1_Node000001_Node000002" class="edge">
<title>Node1&#45;&gt;Node2</title>
<g id="a_edge1_Node000001_Node000002"><a xlink:title=" ">
<path fill="none" stroke="#63b8ff" d="M72.17,-247.09C84.85,-283.34 115.67,-359.03 165,-404.5 165.82,-405.26 166.67,-406 167.54,-406.73"/>
<polygon fill="#63b8ff" stroke="#63b8ff" points="165.7,-409.72 175.83,-412.82 169.84,-404.08 165.7,-409.72"/>
</a>
</g>
</g>
<!-- Node3 -->
<g id="Node000003" class="node">
<title>Node3</title>
<g id="a_Node000003"><a xlink:href="classhelios_1_1engine_1_1runtime_1_1world_1_1UpdateContext.html#a3fe9e7e3a39b27014a72342968e0a3b4" target="_top" xlink:title="Returns the EntityResolver for direct handle validation.">
<polygon fill="white" stroke="#666666" points="294,-395 165,-395 165,-354 294,-354 294,-395"/>
<text text-anchor="start" x="173" y="-383" font-family="Helvetica,sans-Serif" font-size="10.00">helios::engine::runtime</text>
<text text-anchor="start" x="173" y="-372" font-family="Helvetica,sans-Serif" font-size="10.00">::world::UpdateContext</text>
<text text-anchor="middle" x="229.5" y="-361" font-family="Helvetica,sans-Serif" font-size="10.00">::entityResolver</text>
</a>
</g>
</g>
<!-- Node1&#45;&gt;Node3 -->
<g id="edge2_Node000001_Node000003" class="edge">
<title>Node1&#45;&gt;Node3</title>
<g id="a_edge2_Node000001_Node000003"><a xlink:title=" ">
<path fill="none" stroke="#63b8ff" d="M78.41,-247.01C95.54,-272.84 127.95,-317.25 165,-345.5 166.36,-346.54 167.76,-347.55 169.19,-348.53"/>
<polygon fill="#63b8ff" stroke="#63b8ff" points="167.39,-351.53 177.73,-353.87 171.11,-345.6 167.39,-351.53"/>
</a>
</g>
</g>
<!-- Node4 -->
<g id="Node000004" class="node">
<title>Node4</title>
<g id="a_Node000004"><a xlink:href="classhelios_1_1engine_1_1runtime_1_1world_1_1UpdateContext.html#a1c9a47461e487485eeeaaf442510dd68" target="_top" xlink:title="Returns the immutable input snapshot for this frame.">
<polygon fill="white" stroke="#666666" points="294,-336 165,-336 165,-295 294,-295 294,-336"/>
<text text-anchor="start" x="173" y="-324" font-family="Helvetica,sans-Serif" font-size="10.00">helios::engine::runtime</text>
<text text-anchor="start" x="173" y="-313" font-family="Helvetica,sans-Serif" font-size="10.00">::world::UpdateContext</text>
<text text-anchor="middle" x="229.5" y="-302" font-family="Helvetica,sans-Serif" font-size="10.00">::inputSnapshot</text>
</a>
</g>
</g>
<!-- Node1&#45;&gt;Node4 -->
<g id="edge3_Node000001_Node000004" class="edge">
<title>Node1&#45;&gt;Node4</title>
<g id="a_edge3_Node000001_Node000004"><a xlink:title=" ">
<path fill="none" stroke="#63b8ff" d="M97.67,-247.18C116.9,-259.22 141.99,-274.36 165,-286.5 167.51,-287.83 170.1,-289.15 172.72,-290.47"/>
<polygon fill="#63b8ff" stroke="#63b8ff" points="171.21,-293.63 181.73,-294.88 174.29,-287.34 171.21,-293.63"/>
</a>
</g>
</g>
<!-- Node5 -->
<g id="Node000005" class="node">
<title>Node5</title>
<g id="a_Node000005"><a xlink:href="classhelios_1_1engine_1_1runtime_1_1world_1_1UpdateContext.html#ac28d2e3d69b43ef90a3a962a5bf3ef3c" target="_top" xlink:title="Returns the active Level.">
<polygon fill="white" stroke="#666666" points="294,-277 165,-277 165,-236 294,-236 294,-277"/>
<text text-anchor="start" x="173" y="-265" font-family="Helvetica,sans-Serif" font-size="10.00">helios::engine::runtime</text>
<text text-anchor="start" x="173" y="-254" font-family="Helvetica,sans-Serif" font-size="10.00">::world::UpdateContext</text>
<text text-anchor="middle" x="229.5" y="-243" font-family="Helvetica,sans-Serif" font-size="10.00">::level</text>
</a>
</g>
</g>
<!-- Node1&#45;&gt;Node5 -->
<g id="edge4_Node000001_Node000005" class="edge">
<title>Node1&#45;&gt;Node5</title>
<g id="a_edge4_Node000001_Node000005"><a xlink:title=" ">
<path fill="none" stroke="#63b8ff" d="M129.45,-238.27C137.85,-239.82 146.51,-241.41 155.05,-242.98"/>
<polygon fill="#63b8ff" stroke="#63b8ff" points="154.53,-246.44 165,-244.81 155.8,-239.56 154.53,-246.44"/>
</a>
</g>
</g>
<!-- Node6 -->
<g id="Node000006" class="node">
<title>Node6</title>
<g id="a_Node000006"><a xlink:href="classhelios_1_1engine_1_1runtime_1_1world_1_1UpdateContext.html#adaeb79c72c7affdd5c3197556c82665e" target="_top" xlink:title="Returns the ResourceRegistry for resource lookup.">
<polygon fill="white" stroke="#666666" points="294,-218 165,-218 165,-177 294,-177 294,-218"/>
<text text-anchor="start" x="173" y="-206" font-family="Helvetica,sans-Serif" font-size="10.00">helios::engine::runtime</text>
<text text-anchor="start" x="173" y="-195" font-family="Helvetica,sans-Serif" font-size="10.00">::world::UpdateContext</text>
<text text-anchor="middle" x="229.5" y="-184" font-family="Helvetica,sans-Serif" font-size="10.00">::resourceRegistry</text>
</a>
</g>
</g>
<!-- Node1&#45;&gt;Node6 -->
<g id="edge5_Node000001_Node000006" class="edge">
<title>Node1&#45;&gt;Node6</title>
<g id="a_edge5_Node000001_Node000006"><a xlink:title=" ">
<path fill="none" stroke="#63b8ff" d="M129.45,-215.12C137.85,-213.63 146.51,-212.09 155.05,-210.57"/>
<polygon fill="#63b8ff" stroke="#63b8ff" points="155.77,-214 165,-208.8 154.54,-207.1 155.77,-214"/>
</a>
</g>
</g>
<!-- Node7 -->
<g id="Node000007" class="node">
<title>Node7</title>
<g id="a_Node000007"><a xlink:href="classhelios_1_1engine_1_1runtime_1_1world_1_1UpdateContext.html#a538cadeb656147150f4a12261d67c7f7" target="_top" xlink:title="Returns the session for game/match state access.">
<polygon fill="white" stroke="#666666" points="294,-159 165,-159 165,-118 294,-118 294,-159"/>
<text text-anchor="start" x="173" y="-147" font-family="Helvetica,sans-Serif" font-size="10.00">helios::engine::runtime</text>
<text text-anchor="start" x="173" y="-136" font-family="Helvetica,sans-Serif" font-size="10.00">::world::UpdateContext</text>
<text text-anchor="middle" x="229.5" y="-125" font-family="Helvetica,sans-Serif" font-size="10.00">::session</text>
</a>
</g>
</g>
<!-- Node1&#45;&gt;Node7 -->
<g id="edge6_Node000001_Node000007" class="edge">
<title>Node1&#45;&gt;Node7</title>
<g id="a_edge6_Node000001_Node000007"><a xlink:title=" ">
<path fill="none" stroke="#63b8ff" d="M99.17,-205.9C118.25,-194.47 142.71,-180.24 165,-168.5 168.06,-166.89 171.22,-165.27 174.42,-163.66"/>
<polygon fill="#63b8ff" stroke="#63b8ff" points="176.1,-166.73 183.51,-159.16 172.99,-160.46 176.1,-166.73"/>
</a>
</g>
</g>
<!-- Node8 -->
<g id="Node000008" class="node">
<title>Node8</title>
<g id="a_Node000008"><a xlink:href="classhelios_1_1engine_1_1runtime_1_1world_1_1UpdateContext.html#ad7f5caca30eb2409b98e21f48c5a0e45" target="_top" xlink:title="Returns the time elapsed since the first frame, in seconds.">
<polygon fill="white" stroke="#666666" points="294,-100 165,-100 165,-59 294,-59 294,-100"/>
<text text-anchor="start" x="173" y="-88" font-family="Helvetica,sans-Serif" font-size="10.00">helios::engine::runtime</text>
<text text-anchor="start" x="173" y="-77" font-family="Helvetica,sans-Serif" font-size="10.00">::world::UpdateContext</text>
<text text-anchor="middle" x="229.5" y="-66" font-family="Helvetica,sans-Serif" font-size="10.00">::totalTime</text>
</a>
</g>
</g>
<!-- Node1&#45;&gt;Node8 -->
<g id="edge7_Node000001_Node000008" class="edge">
<title>Node1&#45;&gt;Node8</title>
<g id="a_edge7_Node000001_Node000008"><a xlink:title=" ">
<path fill="none" stroke="#63b8ff" d="M78.85,-205.98C96.19,-180.62 128.59,-137.39 165,-109.5 166.81,-108.11 168.69,-106.77 170.63,-105.47"/>
<polygon fill="#63b8ff" stroke="#63b8ff" points="172.73,-108.29 179.4,-100.06 169.05,-102.33 172.73,-108.29"/>
</a>
</g>
</g>
<!-- Node9 -->
<g id="Node000009" class="node">
<title>Node9</title>
<g id="a_Node000009"><a xlink:href="classhelios_1_1engine_1_1runtime_1_1world_1_1UpdateContext.html#a47e89a8a5cf18618ffdc6caccd012100" target="_top" xlink:title="Returns the viewport snapshots for this frame.">
<polygon fill="white" stroke="#666666" points="294,-41 165,-41 165,0 294,0 294,-41"/>
<text text-anchor="start" x="173" y="-29" font-family="Helvetica,sans-Serif" font-size="10.00">helios::engine::runtime</text>
<text text-anchor="start" x="173" y="-18" font-family="Helvetica,sans-Serif" font-size="10.00">::world::UpdateContext</text>
<text text-anchor="middle" x="229.5" y="-7" font-family="Helvetica,sans-Serif" font-size="10.00">::viewportSnapshots</text>
</a>
</g>
</g>
<!-- Node1&#45;&gt;Node9 -->
<g id="edge8_Node000001_Node000009" class="edge">
<title>Node1&#45;&gt;Node9</title>
<g id="a_edge8_Node000001_Node000009"><a xlink:title=" ">
<path fill="none" stroke="#63b8ff" d="M72.39,-205.92C85.33,-170.07 116.41,-95.66 165,-50.5 166.29,-49.3 167.64,-48.14 169.03,-47.02"/>
<polygon fill="#63b8ff" stroke="#63b8ff" points="171.32,-49.69 177.43,-41.03 167.26,-43.99 171.32,-49.69"/>
</a>
</g>
</g>
</g>
</svg>
