<?xml version="1.0" encoding="UTF-8" standalone="no"?>
<!DOCTYPE svg PUBLIC "-//W3C//DTD SVG 1.1//EN"
 "http://www.w3.org/Graphics/SVG/1.1/DTD/svg11.dtd">
<!-- Generated by graphviz version 2.43.0 (0)
 -->
<!-- Title: helios::engine::runtime::world::GameWorld::clone Pages: 1 -->
<svg width="936pt" height="104pt"
 viewBox="0.00 0.00 936.00 104.00" xmlns="http://www.w3.org/2000/svg" xmlns:xlink="http://www.w3.org/1999/xlink">
<g id="graph0" class="graph" transform="scale(1 1) rotate(0) translate(4 100)">
<title>helios::engine::runtime::world::GameWorld::clone</title>
<!-- Node1 -->
<g id="Node000001" class="node">
<title>Node1</title>
<g id="a_Node000001"><a xlink:title="Creates a clone of an existing GameObject.">
<polygon fill="#999999" stroke="#666666" points="145,-54 0,-54 0,-24 145,-24 145,-54"/>
<text text-anchor="start" x="8" y="-42" font-family="Helvetica,sans-Serif" font-size="10.00">helios::engine::runtime</text>
<text text-anchor="middle" x="72.5" y="-31" font-family="Helvetica,sans-Serif" font-size="10.00">::world::GameWorld::clone</text>
</a>
</g>
</g>
<!-- Node2 -->
<g id="Node000002" class="node">
<title>Node2</title>
<g id="a_Node000002"><a xlink:href="classhelios_1_1engine_1_1runtime_1_1world_1_1GameWorld.html#a28a53dcdcfb8880867db35145d88d3e2" target="_top" xlink:title="Adds a GameObject to the world and transfers ownership.">
<polygon fill="white" stroke="#666666" points="378,-78 181,-78 181,-48 378,-48 378,-78"/>
<text text-anchor="start" x="189" y="-66" font-family="Helvetica,sans-Serif" font-size="10.00">helios::engine::runtime</text>
<text text-anchor="middle" x="279.5" y="-55" font-family="Helvetica,sans-Serif" font-size="10.00">::world::GameWorld::addGameObject</text>
</a>
</g>
</g>
<!-- Node1&#45;&gt;Node2 -->
<g id="edge1_Node000001_Node000002" class="edge">
<title>Node1&#45;&gt;Node2</title>
<g id="a_edge1_Node000001_Node000002"><a xlink:title=" ">
<path fill="none" stroke="#63b8ff" d="M145.2,-47.39C153.5,-48.37 162.09,-49.37 170.74,-50.38"/>
<polygon fill="#63b8ff" stroke="#63b8ff" points="170.56,-53.89 180.9,-51.57 171.37,-46.93 170.56,-53.89"/>
</a>
</g>
</g>
<!-- Node6 -->
<g id="Node000006" class="node">
<title>Node6</title>
<g id="a_Node000006"><a xlink:href="classhelios_1_1engine_1_1ecs_1_1GameObject.html#abbd2af79a07146f78163fe1483097d94" target="_top" xlink:title="Returns a span over all attached (non&#45;null) components.">
<polygon fill="white" stroke="#666666" points="354,-30 205,-30 205,0 354,0 354,-30"/>
<text text-anchor="start" x="213" y="-18" font-family="Helvetica,sans-Serif" font-size="10.00">helios::engine::ecs</text>
<text text-anchor="middle" x="279.5" y="-7" font-family="Helvetica,sans-Serif" font-size="10.00">::GameObject::components</text>
</a>
</g>
</g>
<!-- Node1&#45;&gt;Node6 -->
<g id="edge6_Node000001_Node000006" class="edge">
<title>Node1&#45;&gt;Node6</title>
<g id="a_edge6_Node000001_Node000006"><a xlink:title=" ">
<path fill="none" stroke="#63b8ff" d="M145.2,-30.61C161.17,-28.74 178.23,-26.74 194.64,-24.82"/>
<polygon fill="#63b8ff" stroke="#63b8ff" points="195.23,-28.27 204.76,-23.63 194.42,-21.32 195.23,-28.27"/>
</a>
</g>
</g>
<!-- Node3 -->
<g id="Node000003" class="node">
<title>Node3</title>
<g id="a_Node000003"><a xlink:href="classhelios_1_1engine_1_1ecs_1_1GameObject.html#a5b1a6365e062590bf79fa725bb5c046c" target="_top" xlink:title="Retrieves a component of type T.">
<polygon fill="white" stroke="#666666" points="544,-78 437,-78 437,-48 544,-48 544,-78"/>
<text text-anchor="start" x="445" y="-66" font-family="Helvetica,sans-Serif" font-size="10.00">helios::engine::ecs</text>
<text text-anchor="middle" x="490.5" y="-55" font-family="Helvetica,sans-Serif" font-size="10.00">::GameObject::get</text>
</a>
</g>
</g>
<!-- Node2&#45;&gt;Node3 -->
<g id="edge2_Node000002_Node000003" class="edge">
<title>Node2&#45;&gt;Node3</title>
<g id="a_edge2_Node000002_Node000003"><a xlink:title=" ">
<path fill="none" stroke="#63b8ff" d="M378.27,-63C394.67,-63 411.29,-63 426.51,-63"/>
<polygon fill="#63b8ff" stroke="#63b8ff" points="426.8,-66.5 436.8,-63 426.8,-59.5 426.8,-66.5"/>
</a>
</g>
</g>
<!-- Node4 -->
<g id="Node000004" class="node">
<title>Node4</title>
<g id="a_Node000004"><a xlink:href="classhelios_1_1engine_1_1core_1_1data_1_1ComponentTypeId.html#ae2b1610edbd9844c96d65f5572fa6db9" target="_top" xlink:title="Gets the ComponentTypeId for a specific component type.">
<polygon fill="white" stroke="#666666" points="756,-78 603,-78 603,-48 756,-48 756,-78"/>
<text text-anchor="start" x="611" y="-66" font-family="Helvetica,sans-Serif" font-size="10.00">helios::engine::core</text>
<text text-anchor="middle" x="679.5" y="-55" font-family="Helvetica,sans-Serif" font-size="10.00">::data::ComponentTypeId::id</text>
</a>
</g>
</g>
<!-- Node3&#45;&gt;Node4 -->
<g id="edge3_Node000003_Node000004" class="edge">
<title>Node3&#45;&gt;Node4</title>
<g id="a_edge3_Node000003_Node000004"><a xlink:title=" ">
<path fill="none" stroke="#63b8ff" d="M544.09,-63C559.21,-63 576.1,-63 592.68,-63"/>
<polygon fill="#63b8ff" stroke="#63b8ff" points="592.93,-66.5 602.93,-63 592.93,-59.5 592.93,-66.5"/>
</a>
</g>
</g>
<!-- Node5 -->
<g id="Node000005" class="node">
<title>Node5</title>
<g id="a_Node000005"><a xlink:href="classhelios_1_1core_1_1data_1_1TypeIndexer.html#a33aff035cb667c63fcd123a69a91b3cc" target="_top" xlink:title="Generates and returns a unique type index for a specific type.">
<polygon fill="white" stroke="#666666" points="928,-78 792,-78 792,-48 928,-48 928,-78"/>
<text text-anchor="start" x="800" y="-66" font-family="Helvetica,sans-Serif" font-size="10.00">helios::core::data</text>
<text text-anchor="middle" x="860" y="-55" font-family="Helvetica,sans-Serif" font-size="10.00">::TypeIndexer::typeIndex</text>
</a>
</g>
</g>
<!-- Node4&#45;&gt;Node5 -->
<g id="edge4_Node000004_Node000005" class="edge">
<title>Node4&#45;&gt;Node5</title>
<g id="a_edge4_Node000004_Node000005"><a xlink:title=" ">
<path fill="none" stroke="#63b8ff" d="M756.2,-63C764.64,-63 773.25,-63 781.72,-63"/>
<polygon fill="#63b8ff" stroke="#63b8ff" points="781.95,-66.5 791.95,-63 781.95,-59.5 781.95,-66.5"/>
</a>
</g>
</g>
<!-- Node5&#45;&gt;Node5 -->
<g id="edge5_Node000005_Node000005" class="edge">
<title>Node5&#45;&gt;Node5</title>
<g id="a_edge5_Node000005_Node000005"><a xlink:title=" ">
<path fill="none" stroke="#63b8ff" d="M828.36,-78.28C821.33,-87.41 831.88,-96 860,-96 876.7,-96 887.2,-92.97 891.51,-88.6"/>
<polygon fill="#63b8ff" stroke="#63b8ff" points="895.01,-88.32 891.64,-78.28 888.01,-88.23 895.01,-88.32"/>
</a>
</g>
</g>
<!-- Node7 -->
<g id="Node000007" class="node">
<title>Node7</title>
<g id="a_Node000007"><a xlink:href="classhelios_1_1engine_1_1ecs_1_1GameObject.html#abe645224202704dffec3bfaebae4321d" target="_top" xlink:title="Rebuilds the component cache if invalidated.">
<polygon fill="white" stroke="#666666" points="567,-30 414,-30 414,0 567,0 567,-30"/>
<text text-anchor="start" x="422" y="-18" font-family="Helvetica,sans-Serif" font-size="10.00">helios::engine::ecs</text>
<text text-anchor="middle" x="490.5" y="-7" font-family="Helvetica,sans-Serif" font-size="10.00">::GameObject::updateCache</text>
</a>
</g>
</g>
<!-- Node6&#45;&gt;Node7 -->
<g id="edge7_Node000006_Node000007" class="edge">
<title>Node6&#45;&gt;Node7</title>
<g id="a_edge7_Node000006_Node000007"><a xlink:title=" ">
<path fill="none" stroke="#63b8ff" d="M354.19,-15C370.15,-15 387.16,-15 403.55,-15"/>
<polygon fill="#63b8ff" stroke="#63b8ff" points="403.65,-18.5 413.65,-15 403.65,-11.5 403.65,-18.5"/>
</a>
</g>
</g>
</g>
</svg>
