<?xml version="1.0" encoding="UTF-8" standalone="no"?>
<!DOCTYPE svg PUBLIC "-//W3C//DTD SVG 1.1//EN"
 "http://www.w3.org/Graphics/SVG/1.1/DTD/svg11.dtd">
<!-- Generated by graphviz version 2.43.0 (0)
 -->
<!-- Title: helios::engine::ecs::ComponentOpsRegistry::setOps Pages: 1 -->
<svg width="517pt" height="66pt"
 viewBox="0.00 0.00 517.00 65.50" xmlns="http://www.w3.org/2000/svg" xmlns:xlink="http://www.w3.org/1999/xlink">
<g id="graph0" class="graph" transform="scale(1 1) rotate(0) translate(4 61.5)">
<title>helios::engine::ecs::ComponentOpsRegistry::setOps</title>
<!-- Node1 -->
<g id="Node000001" class="node">
<title>Node1</title>
<g id="a_Node000001"><a xlink:title="Registers ComponentOps for a component type.">
<polygon fill="#999999" stroke="#666666" points="138,-41 0,-41 0,0 138,0 138,-41"/>
<text text-anchor="start" x="8" y="-29" font-family="Helvetica,sans-Serif" font-size="10.00">helios::engine::ecs</text>
<text text-anchor="start" x="8" y="-18" font-family="Helvetica,sans-Serif" font-size="10.00">::ComponentOpsRegistry</text>
<text text-anchor="middle" x="69" y="-7" font-family="Helvetica,sans-Serif" font-size="10.00">::setOps</text>
</a>
</g>
</g>
<!-- Node2 -->
<g id="Node000002" class="node">
<title>Node2</title>
<g id="a_Node000002"><a xlink:href="classhelios_1_1engine_1_1ecs_1_1ComponentOpsRegistry.html#a4f41db7b6ae7e83ba8092343d8620e59" target="_top" xlink:title="Retrieves ComponentOps for a component type.">
<polygon fill="white" stroke="#666666" points="335,-57.5 174,-57.5 174,-27.5 335,-27.5 335,-57.5"/>
<text text-anchor="start" x="182" y="-45.5" font-family="Helvetica,sans-Serif" font-size="10.00">helios::engine::ecs</text>
<text text-anchor="middle" x="254.5" y="-34.5" font-family="Helvetica,sans-Serif" font-size="10.00">::ComponentOpsRegistry::ops</text>
</a>
</g>
</g>
<!-- Node1&#45;&gt;Node2 -->
<g id="edge1_Node000001_Node000002" class="edge">
<title>Node1&#45;&gt;Node2</title>
<g id="a_edge1_Node000001_Node000002"><a xlink:title=" ">
<path fill="none" stroke="#63b8ff" d="M138.07,-28.66C146.43,-29.66 155.06,-30.7 163.68,-31.73"/>
<polygon fill="#63b8ff" stroke="#63b8ff" points="163.42,-35.23 173.77,-32.94 164.25,-28.28 163.42,-35.23"/>
</a>
</g>
</g>
<!-- Node3 -->
<g id="Node000003" class="node">
<title>Node3</title>
<g id="a_Node000003"><a xlink:href="classhelios_1_1engine_1_1core_1_1data_1_1ComponentTypeId.html#a324f7ed295515954f0147169dfdff208" target="_top" xlink:title="Returns the underlying ID value.">
<polygon fill="white" stroke="#666666" points="509,-41 371,-41 371,0 509,0 509,-41"/>
<text text-anchor="start" x="379" y="-29" font-family="Helvetica,sans-Serif" font-size="10.00">helios::engine::core</text>
<text text-anchor="start" x="379" y="-18" font-family="Helvetica,sans-Serif" font-size="10.00">::data::ComponentTypeId</text>
<text text-anchor="middle" x="440" y="-7" font-family="Helvetica,sans-Serif" font-size="10.00">::value</text>
</a>
</g>
</g>
<!-- Node1&#45;&gt;Node3 -->
<g id="edge3_Node000001_Node000003" class="edge">
<title>Node1&#45;&gt;Node3</title>
<g id="a_edge3_Node000001_Node000003"><a xlink:title=" ">
<path fill="none" stroke="#63b8ff" d="M138.25,-19C150.16,-18.79 162.44,-18.61 174,-18.5 245.55,-17.81 263.45,-17.81 335,-18.5 343.31,-18.58 351.99,-18.7 360.64,-18.83"/>
<polygon fill="#63b8ff" stroke="#63b8ff" points="360.7,-22.33 370.75,-19 360.81,-15.33 360.7,-22.33"/>
</a>
</g>
</g>
<!-- Node2&#45;&gt;Node3 -->
<g id="edge2_Node000002_Node000003" class="edge">
<title>Node2&#45;&gt;Node3</title>
<g id="a_edge2_Node000002_Node000003"><a xlink:title=" ">
<path fill="none" stroke="#63b8ff" d="M335.19,-32.95C343.64,-31.93 352.24,-30.9 360.68,-29.89"/>
<polygon fill="#63b8ff" stroke="#63b8ff" points="361.37,-33.33 370.88,-28.67 360.54,-26.38 361.37,-33.33"/>
</a>
</g>
</g>
</g>
</svg>
