<?xml version="1.0" encoding="UTF-8" standalone="no"?>
<!DOCTYPE svg PUBLIC "-//W3C//DTD SVG 1.1//EN"
 "http://www.w3.org/Graphics/SVG/1.1/DTD/svg11.dtd">
<!-- Generated by graphviz version 2.43.0 (0)
 -->
<!-- Title: helios::engine::modules::ui::UiActionCommandManager Pages: 1 -->
<!--zoomable 454 -->

<svg id="main" version="1.1" xmlns="http://www.w3.org/2000/svg" xmlns:xlink="http://www.w3.org/1999/xlink" xml:space="preserve" onload="init(evt)">

<style type="text/css"><![CDATA[
.node, .edge {opacity: 0.7;}
.node.selected, .edge.selected {opacity: 1;}
.edge:hover path { stroke: red; }
.edge:hover polygon { stroke: red; fill: red; }
]]></style>

<defs>
  <circle id="rim" cx="0" cy="0" r="7"/>
  <circle id="rim2" cx="0" cy="0" r="3.5"/>
  <g id="zoomPlus">
    <use xlink:href="#rim" fill="#404040"><set attributeName="fill" to="#808080" begin="zoomplus.mouseover" end="zoomplus.mouseout"/></use>
    <path d="M-4,0h8M0,-4v8" fill="none" stroke="white" stroke-width="1.5" pointer-events="none"/>
  </g>
  <g id="zoomMin">
    <use xlink:href="#rim" fill="#404040"><set attributeName="fill" to="#808080" begin="zoomminus.mouseover" end="zoomminus.mouseout"/></use>
    <path d="M-4,0h8" fill="none" stroke="white" stroke-width="1.5" pointer-events="none"/>
  </g>
  <g id="arrowUp" transform="translate(30 24)">
    <use xlink:href="#rim"/>
    <path pointer-events="none" fill="none" stroke="white" stroke-width="1.5" d="M0,-3.0v7 M-2.5,-0.5L0,-3.0L2.5,-0.5"/>
  </g>
  <g id="arrowRight" transform="rotate(90) translate(36 -43)">
    <use xlink:href="#rim"/>
    <path pointer-events="none" fill="none" stroke="white" stroke-width="1.5" d="M0,-3.0v7 M-2.5,-0.5L0,-3.0L2.5,-0.5"/>
  </g>
  <g id="arrowDown" transform="rotate(180) translate(-30 -48)">
    <use xlink:href="#rim"/>
    <path pointer-events="none" fill="none" stroke="white" stroke-width="1.5" d="M0,-3.0v7 M-2.5,-0.5L0,-3.0L2.5,-0.5"/>
  </g>
  <g id="arrowLeft" transform="rotate(270) translate(-36 17)">
    <use xlink:href="#rim"/>
    <path pointer-events="none" fill="none" stroke="white" stroke-width="1.5" d="M0,-3.0v7 M-2.5,-0.5L0,-3.0L2.5,-0.5"/>
  </g>
  <g id="resetDef">
    <use xlink:href="#rim2" fill="#404040"><set attributeName="fill" to="#808080" begin="reset.mouseover" end="reset.mouseout"/></use>
  </g>
</defs>
<script type="application/ecmascript">
var viewWidth = 1010;
var viewHeight = 454;
var sectionId = 'dynsection-1';
</script>
<script type="application/ecmascript" xlink:href="svg.min.js"/>
<svg id="graph" class="graph">
<g id="viewport">
<title>helios::engine::modules::ui::UiActionCommandManager</title>
<!-- Node1 -->
<g id="Node000001" class="node">
<title>Node1</title>
<g id="a_Node000001"><a xlink:title="Manages and processes UI action commands with policy&#45;based dispatch.">
<polygon fill="#999999" stroke="#666666" points="1002,-52 830,-52 830,-22 1002,-22 1002,-52"/>
<text text-anchor="start" x="838" y="-40" font-family="Helvetica,sans-Serif" font-size="10.00">helios::engine::modules</text>
<text text-anchor="middle" x="916" y="-29" font-family="Helvetica,sans-Serif" font-size="10.00">::ui::UiActionCommandManager</text>
</a>
</g>
</g>
<!-- Node2 -->
<g id="Node000002" class="node">
<title>Node2</title>
<g id="a_Node000002"><a xlink:href="classhelios_1_1engine_1_1runtime_1_1world_1_1Manager.html" target="_top" xlink:title="Abstract base class for managers that process deferred operations.">
<polygon fill="white" stroke="#666666" points="793,-122 664,-122 664,-92 793,-92 793,-122"/>
<text text-anchor="start" x="672" y="-110" font-family="Helvetica,sans-Serif" font-size="10.00">helios::engine::runtime</text>
<text text-anchor="middle" x="728.5" y="-99" font-family="Helvetica,sans-Serif" font-size="10.00">::world::Manager</text>
</a>
</g>
</g>
<!-- Node2&#45;&gt;Node1 -->
<g id="edge1_Node000001_Node000002" class="edge">
<title>Node2&#45;&gt;Node1</title>
<g id="a_edge1_Node000001_Node000002"><a xlink:title=" ">
<path fill="none" stroke="#63b8ff" d="M778.75,-88.41C808.81,-77.07 846.75,-62.76 874.95,-52.11"/>
<polygon fill="#63b8ff" stroke="#63b8ff" points="777.41,-85.18 769.29,-91.98 779.89,-91.73 777.41,-85.18"/>
</a>
</g>
</g>
<!-- Node3 -->
<g id="Node000003" class="node">
<title>Node3</title>
<g id="a_Node000003"><a xlink:href="classhelios_1_1engine_1_1runtime_1_1world_1_1GameWorld.html" target="_top" xlink:title="Central registry for game entities, managers, pools, and the active level.">
<polygon fill="white" stroke="#666666" points="561,-208 432,-208 432,-178 561,-178 561,-208"/>
<text text-anchor="start" x="440" y="-196" font-family="Helvetica,sans-Serif" font-size="10.00">helios::engine::runtime</text>
<text text-anchor="middle" x="496.5" y="-185" font-family="Helvetica,sans-Serif" font-size="10.00">::world::GameWorld</text>
</a>
</g>
</g>
<!-- Node3&#45;&gt;Node2 -->
<g id="edge2_Node000002_Node000003" class="edge">
<title>Node3&#45;&gt;Node2</title>
<g id="a_edge2_Node000002_Node000003"><a xlink:title=" ">
<path fill="none" stroke="#9a32cd" stroke-dasharray="5,2" d="M547.28,-174.39C589.16,-158.73 648.27,-136.62 687.22,-122.06"/>
<polygon fill="#9a32cd" stroke="#9a32cd" points="545.97,-171.14 537.83,-177.92 548.42,-177.7 545.97,-171.14"/>
</a>
</g>
<text text-anchor="start" x="582.5" y="-165.5" font-family="Helvetica,sans-Serif" font-size="10.00" fill="grey">gameWorld_</text>
</g>
<!-- Node4 -->
<g id="Node000004" class="node">
<title>Node4</title>
<g id="a_Node000004"><a xlink:href="classhelios_1_1util_1_1log_1_1Logger.html" target="_top" xlink:title="Logger implementation with configurable output sinks.">
<polygon fill="white" stroke="#666666" points="159.5,-379 64.5,-379 64.5,-349 159.5,-349 159.5,-379"/>
<text text-anchor="start" x="72.5" y="-367" font-family="Helvetica,sans-Serif" font-size="10.00">helios::util::log::</text>
<text text-anchor="middle" x="112" y="-356" font-family="Helvetica,sans-Serif" font-size="10.00">Logger</text>
</a>
</g>
</g>
<!-- Node4&#45;&gt;Node3 -->
<g id="edge3_Node000003_Node000004" class="edge">
<title>Node4&#45;&gt;Node3</title>
<g id="a_edge3_Node000003_Node000004"><a xlink:title=" ">
<path fill="none" stroke="#9a32cd" stroke-dasharray="5,2" d="M169.94,-365.95C245.79,-367.49 374.96,-366.13 414,-341 462.35,-309.89 484.44,-239.66 492.13,-208.45"/>
<polygon fill="#9a32cd" stroke="#9a32cd" points="169.69,-362.44 159.61,-365.71 169.53,-369.44 169.69,-362.44"/>
</a>
</g>
<text text-anchor="start" x="310" y="-371.5" font-family="Helvetica,sans-Serif" font-size="10.00" fill="grey">logger_</text>
</g>
<!-- Node5 -->
<g id="Node000005" class="node">
<title>Node5</title>
<g id="a_Node000005"><a xlink:href="classhelios_1_1engine_1_1mechanics_1_1scoring_1_1ScoreCommandHandler.html" target="_top" xlink:title="Abstract interface for processing score update commands.">
<polygon fill="white" stroke="#666666" points="201.5,-331 22.5,-331 22.5,-301 201.5,-301 201.5,-331"/>
<text text-anchor="start" x="30.5" y="-319" font-family="Helvetica,sans-Serif" font-size="10.00">helios::engine::mechanics</text>
<text text-anchor="middle" x="112" y="-308" font-family="Helvetica,sans-Serif" font-size="10.00">::scoring::ScoreCommandHandler</text>
</a>
</g>
</g>
<!-- Node5&#45;&gt;Node3 -->
<g id="edge4_Node000003_Node000005" class="edge">
<title>Node5&#45;&gt;Node3</title>
<g id="a_edge4_Node000003_Node000005"><a xlink:title=" ">
<path fill="none" stroke="#9a32cd" stroke-dasharray="5,2" d="M211.68,-321.46C272.98,-320.86 351.68,-312.64 414,-281 446.87,-264.32 473.24,-228.64 486.4,-208.2"/>
<polygon fill="#9a32cd" stroke="#9a32cd" points="211.6,-317.96 201.61,-321.49 211.62,-324.96 211.6,-317.96"/>
</a>
</g>
<text text-anchor="start" x="268" y="-325.5" font-family="Helvetica,sans-Serif" font-size="10.00" fill="grey">scoreCommandHandler_</text>
</g>
<!-- Node6 -->
<g id="Node000006" class="node">
<title>Node6</title>
<g id="a_Node000006"><a xlink:href="classhelios_1_1engine_1_1mechanics_1_1gamestate_1_1GameStateCommandHandler.html" target="_top" xlink:title="Abstract interface for handling game state commands.">
<polygon fill="white" stroke="#666666" points="224,-283 0,-283 0,-253 224,-253 224,-283"/>
<text text-anchor="start" x="8" y="-271" font-family="Helvetica,sans-Serif" font-size="10.00">helios::engine::mechanics</text>
<text text-anchor="middle" x="112" y="-260" font-family="Helvetica,sans-Serif" font-size="10.00">::gamestate::GameStateCommandHandler</text>
</a>
</g>
</g>
<!-- Node6&#45;&gt;Node3 -->
<g id="edge5_Node000003_Node000006" class="edge">
<title>Node6&#45;&gt;Node3</title>
<g id="a_edge5_Node000003_Node000006"><a xlink:title=" ">
<path fill="none" stroke="#9a32cd" stroke-dasharray="5,2" d="M234.28,-261.8C289.86,-256.75 356.11,-247.6 414,-231 433.06,-225.53 453.27,-216.14 468.79,-208.06"/>
<polygon fill="#9a32cd" stroke="#9a32cd" points="233.69,-258.34 224.03,-262.7 234.3,-265.31 233.69,-258.34"/>
</a>
</g>
<text text-anchor="start" x="254" y="-265.5" font-family="Helvetica,sans-Serif" font-size="10.00" fill="grey">gameStateCommandHandler_</text>
</g>
<!-- Node7 -->
<g id="Node000007" class="node">
<title>Node7</title>
<g id="a_Node000007"><a xlink:href="classhelios_1_1engine_1_1mechanics_1_1match_1_1MatchStateCommandHandler.html" target="_top" xlink:title="Abstract interface for handling match state commands.">
<polygon fill="white" stroke="#666666" points="213.5,-235 10.5,-235 10.5,-205 213.5,-205 213.5,-235"/>
<text text-anchor="start" x="18.5" y="-223" font-family="Helvetica,sans-Serif" font-size="10.00">helios::engine::mechanics</text>
<text text-anchor="middle" x="112" y="-212" font-family="Helvetica,sans-Serif" font-size="10.00">::match::MatchStateCommandHandler</text>
</a>
</g>
</g>
<!-- Node7&#45;&gt;Node3 -->
<g id="edge6_Node000003_Node000007" class="edge">
<title>Node7&#45;&gt;Node3</title>
<g id="a_edge6_Node000003_Node000007"><a xlink:title=" ">
<path fill="none" stroke="#9a32cd" stroke-dasharray="5,2" d="M224,-212.16C291.48,-207.4 375.22,-201.49 431.72,-197.5"/>
<polygon fill="#9a32cd" stroke="#9a32cd" points="223.48,-208.69 213.75,-212.89 223.97,-215.68 223.48,-208.69"/>
</a>
</g>
<text text-anchor="start" x="253" y="-215.5" font-family="Helvetica,sans-Serif" font-size="10.00" fill="grey">matchStateCommandHandler_</text>
</g>
<!-- Node8 -->
<g id="Node000008" class="node">
<title>Node8</title>
<g id="a_Node000008"><a xlink:href="classhelios_1_1engine_1_1modules_1_1ui_1_1UiActionCommandHandler.html" target="_top" xlink:title="Abstract interface for handling UI action commands.">
<polygon fill="white" stroke="#666666" points="195.5,-30 28.5,-30 28.5,0 195.5,0 195.5,-30"/>
<text text-anchor="start" x="36.5" y="-18" font-family="Helvetica,sans-Serif" font-size="10.00">helios::engine::modules</text>
<text text-anchor="middle" x="112" y="-7" font-family="Helvetica,sans-Serif" font-size="10.00">::ui::UiActionCommandHandler</text>
</a>
</g>
</g>
<!-- Node8&#45;&gt;Node1 -->
<g id="edge12_Node000001_Node000008" class="edge">
<title>Node8&#45;&gt;Node1</title>
<g id="a_edge12_Node000001_Node000008"><a xlink:title=" ">
<path fill="none" stroke="#63b8ff" d="M205.86,-16.13C265.36,-16.95 344.24,-18.24 414,-20 560.16,-23.69 730.25,-29.86 829.91,-33.66"/>
<polygon fill="#63b8ff" stroke="#63b8ff" points="205.78,-12.63 195.73,-15.99 205.68,-19.63 205.78,-12.63"/>
</a>
</g>
</g>
<!-- Node8&#45;&gt;Node3 -->
<g id="edge7_Node000003_Node000008" class="edge">
<title>Node8&#45;&gt;Node3</title>
<g id="a_edge7_Node000003_Node000008"><a xlink:title=" ">
<path fill="none" stroke="#9a32cd" stroke-dasharray="5,2" d="M205.63,-15.67C281.22,-17.86 380.74,-25.03 414,-47 461.47,-78.36 484.03,-147.28 491.99,-177.87"/>
<polygon fill="#9a32cd" stroke="#9a32cd" points="205.69,-12.17 195.6,-15.4 205.51,-19.16 205.69,-12.17"/>
</a>
</g>
<text text-anchor="start" x="261" y="-52.5" font-family="Helvetica,sans-Serif" font-size="10.00" fill="grey">uiActionCommandHandler_</text>
</g>
<!-- Node9 -->
<g id="Node000009" class="node">
<title>Node9</title>
<g id="a_Node000009"><a xlink:href="classhelios_1_1engine_1_1runtime_1_1spawn_1_1SpawnCommandHandlerRegistry.html" target="_top" xlink:title="Registry that maps SpawnProfileIds to their SpawnCommandHandlers.">
<polygon fill="white" stroke="#666666" points="202.5,-186.5 21.5,-186.5 21.5,-145.5 202.5,-145.5 202.5,-186.5"/>
<text text-anchor="start" x="29.5" y="-174.5" font-family="Helvetica,sans-Serif" font-size="10.00">helios::engine::runtime</text>
<text text-anchor="start" x="29.5" y="-163.5" font-family="Helvetica,sans-Serif" font-size="10.00">::spawn::SpawnCommandHandler</text>
<text text-anchor="middle" x="112" y="-152.5" font-family="Helvetica,sans-Serif" font-size="10.00">Registry</text>
</a>
</g>
</g>
<!-- Node9&#45;&gt;Node3 -->
<g id="edge8_Node000003_Node000009" class="edge">
<title>Node9&#45;&gt;Node3</title>
<g id="a_edge8_Node000003_Node000009"><a xlink:title=" ">
<path fill="none" stroke="#9a32cd" stroke-dasharray="5,2" d="M212.54,-165.71C271.32,-166.52 347.1,-169.26 414,-177 419.73,-177.66 425.66,-178.51 431.58,-179.47"/>
<polygon fill="#9a32cd" stroke="#9a32cd" points="212.55,-162.21 202.51,-165.59 212.47,-169.21 212.55,-162.21"/>
</a>
</g>
<text text-anchor="start" x="245" y="-182.5" font-family="Helvetica,sans-Serif" font-size="10.00" fill="grey">spawnCommandHandlerRegistry_</text>
</g>
<!-- Node10 -->
<g id="Node000010" class="node">
<title>Node10</title>
<g id="a_Node000010"><a xlink:href="classhelios_1_1engine_1_1ecs_1_1EntityRegistry.html" target="_top" xlink:title="Central registry for creating and managing entity handles.">
<polygon fill="white" stroke="#666666" points="165.5,-127 58.5,-127 58.5,-97 165.5,-97 165.5,-127"/>
<text text-anchor="start" x="66.5" y="-115" font-family="Helvetica,sans-Serif" font-size="10.00">helios::engine::ecs</text>
<text text-anchor="middle" x="112" y="-104" font-family="Helvetica,sans-Serif" font-size="10.00">::EntityRegistry</text>
</a>
</g>
</g>
<!-- Node10&#45;&gt;Node3 -->
<g id="edge9_Node000003_Node000010" class="edge">
<title>Node10&#45;&gt;Node3</title>
<g id="a_edge9_Node000003_Node000010"><a xlink:title=" ">
<path fill="none" stroke="#9a32cd" stroke-dasharray="5,2" d="M175.56,-111.27C237.6,-112.29 334.61,-118.63 414,-145 436.6,-152.51 459.74,-166.91 475.56,-177.99"/>
<polygon fill="#9a32cd" stroke="#9a32cd" points="175.58,-107.77 165.54,-111.15 175.49,-114.77 175.58,-107.77"/>
</a>
</g>
<text text-anchor="start" x="291" y="-150.5" font-family="Helvetica,sans-Serif" font-size="10.00" fill="grey">entityRegistry_</text>
</g>
<!-- Node11 -->
<g id="Node000011" class="node">
<title>Node11</title>
<g id="a_Node000011"><a xlink:href="classhelios_1_1engine_1_1ecs_1_1EntityManager.html" target="_top" xlink:title="Manages entities and their associated components.">
<polygon fill="white" stroke="#666666" points="165.5,-79 58.5,-79 58.5,-49 165.5,-49 165.5,-79"/>
<text text-anchor="start" x="66.5" y="-67" font-family="Helvetica,sans-Serif" font-size="10.00">helios::engine::ecs</text>
<text text-anchor="middle" x="112" y="-56" font-family="Helvetica,sans-Serif" font-size="10.00">::EntityManager</text>
</a>
</g>
</g>
<!-- Node11&#45;&gt;Node3 -->
<g id="edge10_Node000003_Node000011" class="edge">
<title>Node11&#45;&gt;Node3</title>
<g id="a_edge10_Node000003_Node000011"><a xlink:title=" ">
<path fill="none" stroke="#9a32cd" stroke-dasharray="5,2" d="M175.9,-64.43C251.78,-65.91 374.16,-71.67 414,-93 450.13,-112.34 476.25,-155.13 488.21,-177.96"/>
<polygon fill="#9a32cd" stroke="#9a32cd" points="175.57,-60.93 165.51,-64.25 175.45,-67.92 175.57,-60.93"/>
</a>
</g>
<text text-anchor="start" x="317" y="-98.5" font-family="Helvetica,sans-Serif" font-size="10.00" fill="grey">em_</text>
</g>
<!-- Node12 -->
<g id="Node000012" class="node">
<title>Node12</title>
<g id="a_Node000012"><a xlink:href="classhelios_1_1engine_1_1runtime_1_1world_1_1Session.html" target="_top" xlink:title="Holds session&#45;level state for the current game instance.">
<polygon fill="white" stroke="#666666" points="176.5,-427 47.5,-427 47.5,-397 176.5,-397 176.5,-427"/>
<text text-anchor="start" x="55.5" y="-415" font-family="Helvetica,sans-Serif" font-size="10.00">helios::engine::runtime</text>
<text text-anchor="middle" x="112" y="-404" font-family="Helvetica,sans-Serif" font-size="10.00">::world::Session</text>
</a>
</g>
</g>
<!-- Node12&#45;&gt;Node3 -->
<g id="edge11_Node000003_Node000012" class="edge">
<title>Node12&#45;&gt;Node3</title>
<g id="a_edge11_Node000003_Node000012"><a xlink:title=" ">
<path fill="none" stroke="#9a32cd" stroke-dasharray="5,2" d="M186.84,-425.81C252.69,-433.85 348.55,-434.52 414,-387 474.46,-343.11 490.33,-245.54 494.27,-208.07"/>
<polygon fill="#9a32cd" stroke="#9a32cd" points="186.9,-422.29 176.53,-424.47 185.99,-429.23 186.9,-422.29"/>
</a>
</g>
<text text-anchor="start" x="307" y="-434.5" font-family="Helvetica,sans-Serif" font-size="10.00" fill="grey">session_</text>
</g>
</g>
</svg>

<g id="navigator" transform="translate(0 0)" fill="#404254">
  <rect fill="#f2f5e9" fill-opacity="0.5" stroke="#606060" stroke-width=".5" x="0" y="0" width="60" height="60"/>
  <use id="zoomplus" xlink:href="#zoomPlus" x="17" y="9" onmousedown="handleZoom(evt,'in')"/>
  <use id="zoomminus" xlink:href="#zoomMin" x="42" y="9" onmousedown="handleZoom(evt,'out')"/>
  <use id="reset" xlink:href="#resetDef" x="30" y="36" onmousedown="handleReset()"/>
   <use id="arrowup" xlink:href="#arrowUp" x="0" y="0" onmousedown="handlePan(0,-1)"/>
  <use id="arrowright" xlink:href="#arrowRight" x="0" y="0" onmousedown="handlePan(1,0)"/>
  <use id="arrowdown" xlink:href="#arrowDown" x="0" y="0" onmousedown="handlePan(0,1)"/>
  <use id="arrowleft" xlink:href="#arrowLeft" x="0" y="0" onmousedown="handlePan(-1,0)"/>
</g>
<svg viewBox="0 0 15 15" width="100%" height="30px" preserveAspectRatio="xMaxYMin meet">
 <g id="arrow_out" transform="scale(0.3 0.3)">
  <a xlink:href="classhelios_1_1engine_1_1modules_1_1ui_1_1UiActionCommandManager__coll__graph_org.svg" target="_base">
   <rect id="button" ry="5" rx="5" y="6" x="6" height="38" width="38"
        fill="#f2f5e9" fill-opacity="0.5" stroke="#606060" stroke-width="1.0"/>
   <path id="arrow"
     d="M 11.500037,31.436501 C 11.940474,20.09759 22.043105,11.32322 32.158766,21.979434 L 37.068811,17.246167 C 37.068811,17.246167 37.088388,32 37.088388,32 L 22.160133,31.978069 C 22.160133,31.978069 26.997745,27.140456 26.997745,27.140456 C 18.528582,18.264221 13.291696,25.230495 11.500037,31.436501 z"
     style="fill:#404040;"/>
  </a>
 </g>
</svg>

<style type='text/css'>
<![CDATA[
[data-mouse-over-selected='false'] { opacity: 0.7; }
[data-mouse-over-selected='true']  { opacity: 1.0; }
]]>
</style>
<script type="application/ecmascript"><![CDATA[
document.addEventListener('DOMContentLoaded', (event) => {
  highlightEdges();
  highlightAdjacentNodes();
});
]]></script>
</svg>
