<?xml version="1.0" encoding="UTF-8" standalone="no"?>
<!DOCTYPE svg PUBLIC "-//W3C//DTD SVG 1.1//EN"
 "http://www.w3.org/Graphics/SVG/1.1/DTD/svg11.dtd">
<!-- Generated by graphviz version 2.43.0 (0)
 -->
<!-- Title: helios::engine::runtime::world::types::SystemTypeId::SystemTypeId Pages: 1 -->
<svg width="545pt" height="62pt"
 viewBox="0.00 0.00 545.00 61.50" xmlns="http://www.w3.org/2000/svg" xmlns:xlink="http://www.w3.org/1999/xlink">
<g id="graph0" class="graph" transform="scale(1 1) rotate(0) translate(4 57.5)">
<title>helios::engine::runtime::world::types::SystemTypeId::SystemTypeId</title>
<!-- Node1 -->
<g id="Node000001" class="node">
<title>Node1</title>
<g id="a_Node000001"><a xlink:title="Constructs a SystemTypeId with a specific value.">
<polygon fill="#999999" stroke="#666666" points="157,-41 0,-41 0,0 157,0 157,-41"/>
<text text-anchor="start" x="8" y="-29" font-family="Helvetica,sans-Serif" font-size="10.00">helios::engine::runtime</text>
<text text-anchor="start" x="8" y="-18" font-family="Helvetica,sans-Serif" font-size="10.00">::world::types::SystemTypeId</text>
<text text-anchor="middle" x="78.5" y="-7" font-family="Helvetica,sans-Serif" font-size="10.00">::SystemTypeId</text>
</a>
</g>
</g>
<!-- Node2 -->
<g id="Node000002" class="node">
<title>Node2</title>
<g id="a_Node000002"><a xlink:href="classhelios_1_1engine_1_1runtime_1_1world_1_1types_1_1SystemTypeId.html#ac53b4dbc675588d40d58e9f60ebdcb83" target="_top" xlink:title="Returns the SystemTypeId for a specific type.">
<polygon fill="white" stroke="#666666" points="365,-35.5 193,-35.5 193,-5.5 365,-5.5 365,-35.5"/>
<text text-anchor="start" x="201" y="-23.5" font-family="Helvetica,sans-Serif" font-size="10.00">helios::engine::runtime</text>
<text text-anchor="middle" x="279" y="-12.5" font-family="Helvetica,sans-Serif" font-size="10.00">::world::types::SystemTypeId::id</text>
</a>
</g>
</g>
<!-- Node1&#45;&gt;Node2 -->
<g id="edge1_Node000001_Node000002" class="edge">
<title>Node1&#45;&gt;Node2</title>
<g id="a_edge1_Node000001_Node000002"><a xlink:title=" ">
<path fill="none" stroke="#63b8ff" d="M157.1,-13.89C165.54,-13.78 174.2,-13.73 182.82,-13.76"/>
<polygon fill="#63b8ff" stroke="#63b8ff" points="182.88,-17.26 192.9,-13.81 182.92,-10.26 182.88,-17.26"/>
</a>
</g>
</g>
<!-- Node2&#45;&gt;Node1 -->
<g id="edge2_Node000002_Node000001" class="edge">
<title>Node2&#45;&gt;Node1</title>
<g id="a_edge2_Node000002_Node000001"><a xlink:title=" ">
<path fill="none" stroke="#63b8ff" d="M192.9,-27.19C184.45,-27.26 175.85,-27.27 167.37,-27.21"/>
<polygon fill="#63b8ff" stroke="#63b8ff" points="167.13,-23.71 157.1,-27.11 167.06,-30.71 167.13,-23.71"/>
</a>
</g>
</g>
<!-- Node3 -->
<g id="Node000003" class="node">
<title>Node3</title>
<g id="a_Node000003"><a xlink:href="classhelios_1_1core_1_1data_1_1TypeIndexer.html#a33aff035cb667c63fcd123a69a91b3cc" target="_top" xlink:title="Generates and returns a unique type index for a specific type.">
<polygon fill="white" stroke="#666666" points="537,-35.5 401,-35.5 401,-5.5 537,-5.5 537,-35.5"/>
<text text-anchor="start" x="409" y="-23.5" font-family="Helvetica,sans-Serif" font-size="10.00">helios::core::data</text>
<text text-anchor="middle" x="469" y="-12.5" font-family="Helvetica,sans-Serif" font-size="10.00">::TypeIndexer::typeIndex</text>
</a>
</g>
</g>
<!-- Node2&#45;&gt;Node3 -->
<g id="edge3_Node000002_Node000003" class="edge">
<title>Node2&#45;&gt;Node3</title>
<g id="a_edge3_Node000002_Node000003"><a xlink:title=" ">
<path fill="none" stroke="#63b8ff" d="M365.2,-20.5C373.69,-20.5 382.29,-20.5 390.7,-20.5"/>
<polygon fill="#63b8ff" stroke="#63b8ff" points="390.84,-24 400.84,-20.5 390.84,-17 390.84,-24"/>
</a>
</g>
</g>
<!-- Node3&#45;&gt;Node3 -->
<g id="edge4_Node000003_Node000003" class="edge">
<title>Node3&#45;&gt;Node3</title>
<g id="a_edge4_Node000003_Node000003"><a xlink:title=" ">
<path fill="none" stroke="#63b8ff" d="M435.6,-35.78C428.18,-44.91 439.31,-53.5 469,-53.5 486.63,-53.5 497.71,-50.47 502.26,-46.1"/>
<polygon fill="#63b8ff" stroke="#63b8ff" points="505.76,-45.82 502.4,-35.78 498.76,-45.73 505.76,-45.82"/>
</a>
</g>
</g>
</g>
</svg>
