<?xml version="1.0" encoding="UTF-8" standalone="no"?>
<!DOCTYPE svg PUBLIC "-//W3C//DTD SVG 1.1//EN"
 "http://www.w3.org/Graphics/SVG/1.1/DTD/svg11.dtd">
<!-- Generated by graphviz version 2.43.0 (0)
 -->
<!-- Title: helios::engine::state::components::StateComponent::state Pages: 1 -->
<svg width="508pt" height="108pt"
 viewBox="0.00 0.00 508.00 108.00" xmlns="http://www.w3.org/2000/svg" xmlns:xlink="http://www.w3.org/1999/xlink">
<g id="graph0" class="graph" transform="scale(1 1) rotate(0) translate(4 104)">
<title>helios::engine::state::components::StateComponent::state</title>
<!-- Node1 -->
<g id="Node000001" class="node">
<title>Node1</title>
<g id="a_Node000001"><a xlink:title="Returns the current state.">
<polygon fill="#999999" stroke="#666666" points="500,-70 330,-70 330,-29 500,-29 500,-70"/>
<text text-anchor="start" x="338" y="-58" font-family="Helvetica,sans-Serif" font-size="10.00">helios::engine::state</text>
<text text-anchor="start" x="338" y="-47" font-family="Helvetica,sans-Serif" font-size="10.00">::components::StateComponent</text>
<text text-anchor="middle" x="415" y="-36" font-family="Helvetica,sans-Serif" font-size="10.00">::state</text>
</a>
</g>
</g>
<!-- Node2 -->
<g id="Node000002" class="node">
<title>Node2</title>
<g id="a_Node000002"><a xlink:href="classhelios_1_1engine_1_1runtime_1_1world_1_1Session.html#a26784a3e90f2a97ca31cfa2ece4f41c9" target="_top" xlink:title="Returns the current state for a given state type.">
<polygon fill="white" stroke="#666666" points="294,-64.5 165,-64.5 165,-34.5 294,-34.5 294,-64.5"/>
<text text-anchor="start" x="173" y="-52.5" font-family="Helvetica,sans-Serif" font-size="10.00">helios::engine::runtime</text>
<text text-anchor="middle" x="229.5" y="-41.5" font-family="Helvetica,sans-Serif" font-size="10.00">::world::Session::state</text>
</a>
</g>
</g>
<!-- Node1&#45;&gt;Node2 -->
<g id="edge1_Node000001_Node000002" class="edge">
<title>Node1&#45;&gt;Node2</title>
<g id="a_edge1_Node000001_Node000002"><a xlink:title=" ">
<path fill="none" stroke="#63b8ff" d="M319.65,-49.5C311.03,-49.5 302.44,-49.5 294.18,-49.5"/>
<polygon fill="#63b8ff" stroke="#63b8ff" points="319.77,-53 329.77,-49.5 319.77,-46 319.77,-53"/>
</a>
</g>
</g>
<!-- Node3 -->
<g id="Node000003" class="node">
<title>Node3</title>
<g id="a_Node000003"><a xlink:href="classhelios_1_1engine_1_1state_1_1StateManager.html#a7b16869a9d0d8b511b76ac568339fea1" target="_top" xlink:title=" ">
<polygon fill="white" stroke="#666666" points="129,-100 0,-100 0,-59 129,-59 129,-100"/>
<text text-anchor="start" x="8" y="-88" font-family="Helvetica,sans-Serif" font-size="10.00">helios::engine::state</text>
<text text-anchor="start" x="8" y="-77" font-family="Helvetica,sans-Serif" font-size="10.00">::StateManager&lt; types</text>
<text text-anchor="middle" x="64.5" y="-66" font-family="Helvetica,sans-Serif" font-size="10.00">::GameState &gt;::flush</text>
</a>
</g>
</g>
<!-- Node2&#45;&gt;Node3 -->
<g id="edge2_Node000002_Node000003" class="edge">
<title>Node2&#45;&gt;Node3</title>
<g id="a_edge2_Node000002_Node000003"><a xlink:title=" ">
<path fill="none" stroke="#63b8ff" d="M154.59,-63.1C146.05,-64.68 137.39,-66.27 129,-67.81"/>
<polygon fill="#63b8ff" stroke="#63b8ff" points="155.34,-66.52 164.55,-61.27 154.08,-59.64 155.34,-66.52"/>
</a>
</g>
</g>
<!-- Node4 -->
<g id="Node000004" class="node">
<title>Node4</title>
<g id="a_Node000004"><a xlink:href="classhelios_1_1engine_1_1runtime_1_1gameloop_1_1TypedPass.html#a7733ed1cd17abc4a3c85da27684b6c2b" target="_top" xlink:title="Checks if this pass should execute based on current state.">
<polygon fill="white" stroke="#666666" points="129,-41 0,-41 0,0 129,0 129,-41"/>
<text text-anchor="start" x="8" y="-29" font-family="Helvetica,sans-Serif" font-size="10.00">helios::engine::runtime</text>
<text text-anchor="start" x="8" y="-18" font-family="Helvetica,sans-Serif" font-size="10.00">::gameloop::TypedPass</text>
<text text-anchor="middle" x="64.5" y="-7" font-family="Helvetica,sans-Serif" font-size="10.00">::shouldRun</text>
</a>
</g>
</g>
<!-- Node2&#45;&gt;Node4 -->
<g id="edge3_Node000002_Node000004" class="edge">
<title>Node2&#45;&gt;Node4</title>
<g id="a_edge3_Node000002_Node000004"><a xlink:title=" ">
<path fill="none" stroke="#63b8ff" d="M154.59,-36.35C146.05,-34.83 137.39,-33.29 129,-31.8"/>
<polygon fill="#63b8ff" stroke="#63b8ff" points="154.09,-39.82 164.55,-38.12 155.31,-32.92 154.09,-39.82"/>
</a>
</g>
</g>
</g>
</svg>
