<?xml version="1.0" encoding="UTF-8" standalone="no"?>
<!DOCTYPE svg PUBLIC "-//W3C//DTD SVG 1.1//EN"
 "http://www.w3.org/Graphics/SVG/1.1/DTD/svg11.dtd">
<!-- Generated by graphviz version 2.43.0 (0)
 -->
<!-- Title: helios::engine::game::GameObject::get Pages: 1 -->
<svg width="336pt" height="275pt"
 viewBox="0.00 0.00 336.00 274.50" xmlns="http://www.w3.org/2000/svg" xmlns:xlink="http://www.w3.org/1999/xlink">

<svg id="main" version="1.1" xmlns="http://www.w3.org/2000/svg" xmlns:xlink="http://www.w3.org/1999/xlink" xml:space="preserve">

<style type="text/css"><![CDATA[
.node, .edge {opacity: 0.7;}
.node.selected, .edge.selected {opacity: 1;}
.edge:hover path { stroke: red; }
.edge:hover polygon { stroke: red; fill: red; }
]]></style>
<script type="application/ecmascript" xlink:href="svg.min.js"/>
<svg id="graph" class="graph">
<g id="graph0" class="graph" transform="scale(1 1) rotate(0) translate(4 270.5)">
<title>helios::engine::game::GameObject::get</title>
<!-- Node1 -->
<g id="Node000001" class="node">
<title>Node1</title>
<g id="a_Node000001"><a xlink:title="Retrieves a component of type T.">
<polygon fill="#999999" stroke="#666666" points="328,-143 209,-143 209,-113 328,-113 328,-143"/>
<text text-anchor="start" x="217" y="-131" font-family="Helvetica,sans-Serif" font-size="10.00">helios::engine::game</text>
<text text-anchor="middle" x="268.5" y="-120" font-family="Helvetica,sans-Serif" font-size="10.00">::GameObject::get</text>
</a>
</g>
</g>
<!-- Node2 -->
<g id="Node000002" class="node">
<title>Node2</title>
<g id="a_Node000002"><a xlink:href="classhelios_1_1engine_1_1game_1_1commands_1_1Aim2DCommand.html#adcf8bbd3975dd917ebc77fa3ea20128a" target="_top" xlink:title="Executes the aim command on a GameObject.">
<polygon fill="white" stroke="#666666" points="169.5,-266.5 3.5,-266.5 3.5,-225.5 169.5,-225.5 169.5,-266.5"/>
<text text-anchor="start" x="11.5" y="-254.5" font-family="Helvetica,sans-Serif" font-size="10.00">helios::engine::game</text>
<text text-anchor="start" x="11.5" y="-243.5" font-family="Helvetica,sans-Serif" font-size="10.00">::commands::Aim2DCommand</text>
<text text-anchor="middle" x="86.5" y="-232.5" font-family="Helvetica,sans-Serif" font-size="10.00">::execute</text>
</a>
</g>
</g>
<!-- Node1&#45;&gt;Node2 -->
<g id="edge1_Node000001_Node000002" class="edge">
<title>Node1&#45;&gt;Node2</title>
<g id="a_edge1_Node000001_Node000002"><a xlink:title=" ">
<path fill="none" stroke="#63b8ff" d="M248.24,-151.03C230.51,-170.94 202.54,-199.24 173,-217 167.9,-220.07 162.42,-222.87 156.8,-225.4"/>
<polygon fill="#63b8ff" stroke="#63b8ff" points="251.03,-153.16 254.97,-143.33 245.76,-148.56 251.03,-153.16"/>
</a>
</g>
</g>
<!-- Node3 -->
<g id="Node000003" class="node">
<title>Node3</title>
<g id="a_Node000003"><a xlink:href="classhelios_1_1engine_1_1game_1_1commands_1_1HeadingCommand.html#a38c19be5c36ce0334636d45fd1909373" target="_top" xlink:title="Executes the heading update on the target GameObject.">
<polygon fill="white" stroke="#666666" points="173,-207.5 0,-207.5 0,-166.5 173,-166.5 173,-207.5"/>
<text text-anchor="start" x="8" y="-195.5" font-family="Helvetica,sans-Serif" font-size="10.00">helios::engine::game</text>
<text text-anchor="start" x="8" y="-184.5" font-family="Helvetica,sans-Serif" font-size="10.00">::commands::HeadingCommand</text>
<text text-anchor="middle" x="86.5" y="-173.5" font-family="Helvetica,sans-Serif" font-size="10.00">::execute</text>
</a>
</g>
</g>
<!-- Node1&#45;&gt;Node3 -->
<g id="edge2_Node000001_Node000003" class="edge">
<title>Node1&#45;&gt;Node3</title>
<g id="a_edge2_Node000001_Node000003"><a xlink:title=" ">
<path fill="none" stroke="#63b8ff" d="M211.96,-146.21C192.43,-152.61 170.36,-159.84 150.28,-166.42"/>
<polygon fill="#63b8ff" stroke="#63b8ff" points="213.2,-149.48 221.61,-143.04 211.02,-142.83 213.2,-149.48"/>
</a>
</g>
</g>
<!-- Node4 -->
<g id="Node000004" class="node">
<title>Node4</title>
<g id="a_Node000004"><a xlink:href="classhelios_1_1engine_1_1game_1_1commands_1_1Move2DCommand.html#aa350d238ae20ca8089a7869b8860f903" target="_top" xlink:title="Executes the movement command on a GameObject.">
<polygon fill="white" stroke="#666666" points="173,-148.5 0,-148.5 0,-107.5 173,-107.5 173,-148.5"/>
<text text-anchor="start" x="8" y="-136.5" font-family="Helvetica,sans-Serif" font-size="10.00">helios::engine::game</text>
<text text-anchor="start" x="8" y="-125.5" font-family="Helvetica,sans-Serif" font-size="10.00">::commands::Move2DCommand</text>
<text text-anchor="middle" x="86.5" y="-114.5" font-family="Helvetica,sans-Serif" font-size="10.00">::execute</text>
</a>
</g>
</g>
<!-- Node1&#45;&gt;Node4 -->
<g id="edge3_Node000001_Node000004" class="edge">
<title>Node1&#45;&gt;Node4</title>
<g id="a_edge3_Node000001_Node000004"><a xlink:title=" ">
<path fill="none" stroke="#63b8ff" d="M198.52,-128C190.17,-128 181.57,-128 173.02,-128"/>
<polygon fill="#63b8ff" stroke="#63b8ff" points="198.56,-131.5 208.56,-128 198.56,-124.5 198.56,-131.5"/>
</a>
</g>
</g>
<!-- Node5 -->
<g id="Node000005" class="node">
<title>Node5</title>
<g id="a_Node000005"><a xlink:href="classhelios_1_1engine_1_1game_1_1commands_1_1ShootCommand.html#a9e012933d5cf99796c46f677dcb7a151" target="_top" xlink:title="Executes the shoot command on a GameObject.">
<polygon fill="white" stroke="#666666" points="167,-89.5 6,-89.5 6,-48.5 167,-48.5 167,-89.5"/>
<text text-anchor="start" x="14" y="-77.5" font-family="Helvetica,sans-Serif" font-size="10.00">helios::engine::game</text>
<text text-anchor="start" x="14" y="-66.5" font-family="Helvetica,sans-Serif" font-size="10.00">::commands::ShootCommand</text>
<text text-anchor="middle" x="86.5" y="-55.5" font-family="Helvetica,sans-Serif" font-size="10.00">::execute</text>
</a>
</g>
</g>
<!-- Node1&#45;&gt;Node5 -->
<g id="edge4_Node000001_Node000005" class="edge">
<title>Node1&#45;&gt;Node5</title>
<g id="a_edge4_Node000001_Node000005"><a xlink:title=" ">
<path fill="none" stroke="#63b8ff" d="M211.96,-109.79C192.43,-103.39 170.36,-96.16 150.28,-89.58"/>
<polygon fill="#63b8ff" stroke="#63b8ff" points="211.02,-113.17 221.61,-112.96 213.2,-106.52 211.02,-113.17"/>
</a>
</g>
</g>
<!-- Node6 -->
<g id="Node000006" class="node">
<title>Node6</title>
<g id="a_Node000006"><a xlink:href="classhelios_1_1engine_1_1game_1_1GameObject.html#ae5dcc52eda581579cb00e9c4fff90a37" target="_top" xlink:title="Retrieves an existing component of type T, or creates and adds it if not present.">
<polygon fill="white" stroke="#666666" points="154,-30 19,-30 19,0 154,0 154,-30"/>
<text text-anchor="start" x="27" y="-18" font-family="Helvetica,sans-Serif" font-size="10.00">helios::engine::game</text>
<text text-anchor="middle" x="86.5" y="-7" font-family="Helvetica,sans-Serif" font-size="10.00">::GameObject::getOrAdd</text>
</a>
</g>
</g>
<!-- Node1&#45;&gt;Node6 -->
<g id="edge5_Node000001_Node000006" class="edge">
<title>Node1&#45;&gt;Node6</title>
<g id="a_edge5_Node000001_Node000006"><a xlink:title=" ">
<path fill="none" stroke="#63b8ff" d="M248.68,-105.28C231.04,-85.38 202.97,-57.05 173,-40 166.28,-36.18 158.92,-32.89 151.43,-30.09"/>
<polygon fill="#63b8ff" stroke="#63b8ff" points="246.15,-107.71 255.35,-112.97 251.44,-103.12 246.15,-107.71"/>
</a>
</g>
</g>
</g>
</svg>
</svg>

<style type='text/css'>
<![CDATA[
[data-mouse-over-selected='false'] { opacity: 0.7; }
[data-mouse-over-selected='true']  { opacity: 1.0; }
]]>
</style>
<script type="application/ecmascript"><![CDATA[
document.addEventListener('DOMContentLoaded', (event) => {
  highlightEdges();
  highlightAdjacentNodes();
});
]]></script>
</svg>
