<?xml version="1.0" encoding="UTF-8" standalone="no"?>
<!DOCTYPE svg PUBLIC "-//W3C//DTD SVG 1.1//EN"
 "http://www.w3.org/Graphics/SVG/1.1/DTD/svg11.dtd">
<!-- Generated by graphviz version 2.43.0 (0)
 -->
<!-- Title: helios::engine::builder::gameObject::builders::configs::UiTransformConfig::pivot Pages: 1 -->
<!--zoomable 105 -->

<svg id="main" version="1.1" xmlns="http://www.w3.org/2000/svg" xmlns:xlink="http://www.w3.org/1999/xlink" xml:space="preserve" onload="init(evt)">

<style type="text/css"><![CDATA[
.node, .edge {opacity: 0.7;}
.node.selected, .edge.selected {opacity: 1;}
.edge:hover path { stroke: red; }
.edge:hover polygon { stroke: red; fill: red; }
]]></style>

<defs>
  <circle id="rim" cx="0" cy="0" r="7"/>
  <circle id="rim2" cx="0" cy="0" r="3.5"/>
  <g id="zoomPlus">
    <use xlink:href="#rim" fill="#404040"><set attributeName="fill" to="#808080" begin="zoomplus.mouseover" end="zoomplus.mouseout"/></use>
    <path d="M-4,0h8M0,-4v8" fill="none" stroke="white" stroke-width="1.5" pointer-events="none"/>
  </g>
  <g id="zoomMin">
    <use xlink:href="#rim" fill="#404040"><set attributeName="fill" to="#808080" begin="zoomminus.mouseover" end="zoomminus.mouseout"/></use>
    <path d="M-4,0h8" fill="none" stroke="white" stroke-width="1.5" pointer-events="none"/>
  </g>
  <g id="arrowUp" transform="translate(30 24)">
    <use xlink:href="#rim"/>
    <path pointer-events="none" fill="none" stroke="white" stroke-width="1.5" d="M0,-3.0v7 M-2.5,-0.5L0,-3.0L2.5,-0.5"/>
  </g>
  <g id="arrowRight" transform="rotate(90) translate(36 -43)">
    <use xlink:href="#rim"/>
    <path pointer-events="none" fill="none" stroke="white" stroke-width="1.5" d="M0,-3.0v7 M-2.5,-0.5L0,-3.0L2.5,-0.5"/>
  </g>
  <g id="arrowDown" transform="rotate(180) translate(-30 -48)">
    <use xlink:href="#rim"/>
    <path pointer-events="none" fill="none" stroke="white" stroke-width="1.5" d="M0,-3.0v7 M-2.5,-0.5L0,-3.0L2.5,-0.5"/>
  </g>
  <g id="arrowLeft" transform="rotate(270) translate(-36 17)">
    <use xlink:href="#rim"/>
    <path pointer-events="none" fill="none" stroke="white" stroke-width="1.5" d="M0,-3.0v7 M-2.5,-0.5L0,-3.0L2.5,-0.5"/>
  </g>
  <g id="resetDef">
    <use xlink:href="#rim2" fill="#404040"><set attributeName="fill" to="#808080" begin="reset.mouseover" end="reset.mouseout"/></use>
  </g>
</defs>
<script type="application/ecmascript">
var viewWidth = 570;
var viewHeight = 105;
var sectionId = 'dynsection-5';
</script>
<script type="application/ecmascript" xlink:href="svg.min.js"/>
<svg id="graph" class="graph">
<g id="viewport">
<title>helios::engine::builder::gameObject::builders::configs::UiTransformConfig::pivot</title>
<!-- Node1 -->
<g id="Node000001" class="node">
<title>Node1</title>
<g id="a_Node000001"><a xlink:title="Sets the pivot point for transformations.">
<polygon fill="#999999" stroke="#666666" points="184,-46.5 0,-46.5 0,-5.5 184,-5.5 184,-46.5"/>
<text text-anchor="start" x="8" y="-34.5" font-family="Helvetica,sans-Serif" font-size="10.00">helios::engine::builder</text>
<text text-anchor="start" x="8" y="-23.5" font-family="Helvetica,sans-Serif" font-size="10.00">::gameObject::builders</text>
<text text-anchor="middle" x="92" y="-12.5" font-family="Helvetica,sans-Serif" font-size="10.00">::configs::UiTransformConfig::pivot</text>
</a>
</g>
</g>
<!-- Node2 -->
<g id="Node000002" class="node">
<title>Node2</title>
<g id="a_Node000002"><a xlink:href="classhelios_1_1engine_1_1builder_1_1gameObject_1_1builders_1_1configs_1_1UiTransformConfig.html#af65af2c02c57fbc3040513c0208ee8b4" target="_top" xlink:title="Sets the anchor point for UI positioning.">
<polygon fill="white" stroke="#666666" points="373,-79 220,-79 220,-27 373,-27 373,-79"/>
<text text-anchor="start" x="228" y="-67" font-family="Helvetica,sans-Serif" font-size="10.00">helios::engine::builder</text>
<text text-anchor="start" x="228" y="-56" font-family="Helvetica,sans-Serif" font-size="10.00">::gameObject::builders</text>
<text text-anchor="start" x="228" y="-45" font-family="Helvetica,sans-Serif" font-size="10.00">::configs::UiTransformConfig</text>
<text text-anchor="middle" x="296.5" y="-34" font-family="Helvetica,sans-Serif" font-size="10.00">::anchor</text>
</a>
</g>
</g>
<!-- Node1&#45;&gt;Node2 -->
<g id="edge1_Node000001_Node000002" class="edge">
<title>Node1&#45;&gt;Node2</title>
<g id="a_edge1_Node000001_Node000002"><a xlink:title=" ">
<path fill="none" stroke="#63b8ff" d="M184.18,-38.16C192.78,-39.3 201.48,-40.46 210.03,-41.6"/>
<polygon fill="#63b8ff" stroke="#63b8ff" points="209.6,-45.08 219.97,-42.93 210.52,-38.14 209.6,-45.08"/>
</a>
</g>
</g>
<!-- Node3 -->
<g id="Node000003" class="node">
<title>Node3</title>
<g id="a_Node000003"><a xlink:href="classhelios_1_1engine_1_1builder_1_1gameObject_1_1builders_1_1configs_1_1UiTransformConfig.html#af4681b2698e0f94cdc058c01291e80b2" target="_top" xlink:title="Constructs a UiTransformConfig and adds ComposeTransformComponent.">
<polygon fill="white" stroke="#666666" points="562,-52 409,-52 409,0 562,0 562,-52"/>
<text text-anchor="start" x="417" y="-40" font-family="Helvetica,sans-Serif" font-size="10.00">helios::engine::builder</text>
<text text-anchor="start" x="417" y="-29" font-family="Helvetica,sans-Serif" font-size="10.00">::gameObject::builders</text>
<text text-anchor="start" x="417" y="-18" font-family="Helvetica,sans-Serif" font-size="10.00">::configs::UiTransformConfig</text>
<text text-anchor="middle" x="485.5" y="-7" font-family="Helvetica,sans-Serif" font-size="10.00">::UiTransformConfig</text>
</a>
</g>
</g>
<!-- Node1&#45;&gt;Node3 -->
<g id="edge4_Node000001_Node000003" class="edge">
<title>Node1&#45;&gt;Node3</title>
<g id="a_edge4_Node000001_Node000003"><a xlink:title=" ">
<path fill="none" stroke="#63b8ff" d="M184.19,-19.56C196.23,-18.92 208.41,-18.36 220,-18 287.97,-15.86 305.04,-15.57 373,-18 381.36,-18.3 390.07,-18.73 398.78,-19.23"/>
<polygon fill="#63b8ff" stroke="#63b8ff" points="398.77,-22.73 408.97,-19.85 399.2,-15.75 398.77,-22.73"/>
</a>
</g>
</g>
<!-- Node2&#45;&gt;Node2 -->
<g id="edge2_Node000002_Node000002" class="edge">
<title>Node2&#45;&gt;Node2</title>
<g id="a_edge2_Node000002_Node000002"><a xlink:title=" ">
<path fill="none" stroke="#63b8ff" d="M261.33,-79.2C260.17,-88.96 271.9,-97 296.5,-97 312.26,-97 322.74,-93.7 327.93,-88.76"/>
<polygon fill="#63b8ff" stroke="#63b8ff" points="331.28,-89.79 331.67,-79.2 324.77,-87.23 331.28,-89.79"/>
</a>
</g>
</g>
<!-- Node2&#45;&gt;Node3 -->
<g id="edge3_Node000002_Node000003" class="edge">
<title>Node2&#45;&gt;Node3</title>
<g id="a_edge3_Node000002_Node000003"><a xlink:title=" ">
<path fill="none" stroke="#63b8ff" d="M373.02,-42.1C381.47,-40.88 390.13,-39.63 398.7,-38.39"/>
<polygon fill="#63b8ff" stroke="#63b8ff" points="399.3,-41.84 408.7,-36.94 398.3,-34.91 399.3,-41.84"/>
</a>
</g>
</g>
</g>
</svg>

<g id="navigator" transform="translate(0 0)" fill="#404254">
  <rect fill="#f2f5e9" fill-opacity="0.5" stroke="#606060" stroke-width=".5" x="0" y="0" width="60" height="60"/>
  <use id="zoomplus" xlink:href="#zoomPlus" x="17" y="9" onmousedown="handleZoom(evt,'in')"/>
  <use id="zoomminus" xlink:href="#zoomMin" x="42" y="9" onmousedown="handleZoom(evt,'out')"/>
  <use id="reset" xlink:href="#resetDef" x="30" y="36" onmousedown="handleReset()"/>
   <use id="arrowup" xlink:href="#arrowUp" x="0" y="0" onmousedown="handlePan(0,-1)"/>
  <use id="arrowright" xlink:href="#arrowRight" x="0" y="0" onmousedown="handlePan(1,0)"/>
  <use id="arrowdown" xlink:href="#arrowDown" x="0" y="0" onmousedown="handlePan(0,1)"/>
  <use id="arrowleft" xlink:href="#arrowLeft" x="0" y="0" onmousedown="handlePan(-1,0)"/>
</g>
<svg viewBox="0 0 15 15" width="100%" height="30px" preserveAspectRatio="xMaxYMin meet">
 <g id="arrow_out" transform="scale(0.3 0.3)">
  <a xlink:href="classhelios_1_1engine_1_1builder_1_1gameObject_1_1builders_1_1configs_1_1UiTransformConfig_a53e3c965ba8e6d31aef832a1aefba86e_cgraph_org.svg" target="_base">
   <rect id="button" ry="5" rx="5" y="6" x="6" height="38" width="38"
        fill="#f2f5e9" fill-opacity="0.5" stroke="#606060" stroke-width="1.0"/>
   <path id="arrow"
     d="M 11.500037,31.436501 C 11.940474,20.09759 22.043105,11.32322 32.158766,21.979434 L 37.068811,17.246167 C 37.068811,17.246167 37.088388,32 37.088388,32 L 22.160133,31.978069 C 22.160133,31.978069 26.997745,27.140456 26.997745,27.140456 C 18.528582,18.264221 13.291696,25.230495 11.500037,31.436501 z"
     style="fill:#404040;"/>
  </a>
 </g>
</svg>

<style type='text/css'>
<![CDATA[
[data-mouse-over-selected='false'] { opacity: 0.7; }
[data-mouse-over-selected='true']  { opacity: 1.0; }
]]>
</style>
<script type="application/ecmascript"><![CDATA[
document.addEventListener('DOMContentLoaded', (event) => {
  highlightEdges();
  highlightAdjacentNodes();
});
]]></script>
</svg>
