<?xml version="1.0" encoding="UTF-8" standalone="no"?>
<!DOCTYPE svg PUBLIC "-//W3C//DTD SVG 1.1//EN"
 "http://www.w3.org/Graphics/SVG/1.1/DTD/svg11.dtd">
<!-- Generated by graphviz version 2.43.0 (0)
 -->
<!-- Title: helios::input::gamepad::DeadzoneStrategy::stickNoiseThreshold Pages: 1 -->
<svg width="380pt" height="167pt"
 viewBox="0.00 0.00 380.00 167.00" xmlns="http://www.w3.org/2000/svg" xmlns:xlink="http://www.w3.org/1999/xlink">
<g id="graph0" class="graph" transform="scale(1 1) rotate(0) translate(4 163)">
<title>helios::input::gamepad::DeadzoneStrategy::stickNoiseThreshold</title>
<!-- Node1 -->
<g id="Node000001" class="node">
<title>Node1</title>
<g id="a_Node000001"><a xlink:title="Retrieves the current noise threshold for stick input.">
<polygon fill="#999999" stroke="#666666" points="372,-100 203,-100 203,-59 372,-59 372,-100"/>
<text text-anchor="start" x="211" y="-88" font-family="Helvetica,sans-Serif" font-size="10.00">helios::input::gamepad</text>
<text text-anchor="start" x="211" y="-77" font-family="Helvetica,sans-Serif" font-size="10.00">::DeadzoneStrategy::stickNoise</text>
<text text-anchor="middle" x="287.5" y="-66" font-family="Helvetica,sans-Serif" font-size="10.00">Threshold</text>
</a>
</g>
</g>
<!-- Node2 -->
<g id="Node000002" class="node">
<title>Node2</title>
<g id="a_Node000002"><a xlink:href="classhelios_1_1input_1_1gamepad_1_1DeadzoneStrategy.html#a52139bff041f7128d0b562684587e32a" target="_top" xlink:title="Interface for applying deadzone handling to gamepad stick input.">
<polygon fill="white" stroke="#666666" points="167,-159 0,-159 0,-118 167,-118 167,-159"/>
<text text-anchor="start" x="8" y="-147" font-family="Helvetica,sans-Serif" font-size="10.00">helios::input::gamepad</text>
<text text-anchor="start" x="8" y="-136" font-family="Helvetica,sans-Serif" font-size="10.00">::DeadzoneStrategy::Deadzone</text>
<text text-anchor="middle" x="83.5" y="-125" font-family="Helvetica,sans-Serif" font-size="10.00">Strategy</text>
</a>
</g>
</g>
<!-- Node1&#45;&gt;Node2 -->
<g id="edge1_Node000001_Node000002" class="edge">
<title>Node1&#45;&gt;Node2</title>
<g id="a_edge1_Node000001_Node000002"><a xlink:title=" ">
<path fill="none" stroke="#63b8ff" d="M206.26,-102.94C189.3,-107.89 171.52,-113.08 154.96,-117.92"/>
<polygon fill="#63b8ff" stroke="#63b8ff" points="207.52,-106.22 216.13,-100.05 205.55,-99.5 207.52,-106.22"/>
</a>
</g>
</g>
<!-- Node3 -->
<g id="Node000003" class="node">
<title>Node3</title>
<g id="a_Node000003"><a xlink:href="classhelios_1_1input_1_1gamepad_1_1RadialDeadzoneStrategy.html#ab2978ad6d7b34ede7dcf4a91c24cab8e" target="_top" xlink:title="Applies radial deadzone normalization to stick input.">
<polygon fill="white" stroke="#666666" points="155,-100 12,-100 12,-59 155,-59 155,-100"/>
<text text-anchor="start" x="20" y="-88" font-family="Helvetica,sans-Serif" font-size="10.00">helios::input::gamepad</text>
<text text-anchor="start" x="20" y="-77" font-family="Helvetica,sans-Serif" font-size="10.00">::RadialDeadzoneStrategy</text>
<text text-anchor="middle" x="83.5" y="-66" font-family="Helvetica,sans-Serif" font-size="10.00">::normalize</text>
</a>
</g>
</g>
<!-- Node1&#45;&gt;Node3 -->
<g id="edge2_Node000001_Node000003" class="edge">
<title>Node1&#45;&gt;Node3</title>
<g id="a_edge2_Node000001_Node000003"><a xlink:title=" ">
<path fill="none" stroke="#63b8ff" d="M192.79,-79.5C180.15,-79.5 167.35,-79.5 155.2,-79.5"/>
<polygon fill="#63b8ff" stroke="#63b8ff" points="192.88,-83 202.88,-79.5 192.88,-76 192.88,-83"/>
</a>
</g>
</g>
<!-- Node4 -->
<g id="Node000004" class="node">
<title>Node4</title>
<g id="a_Node000004"><a xlink:href="classhelios_1_1input_1_1gamepad_1_1RadialDeadzoneStrategy.html#aa1c7ac7f01e8a2936027aa68c96a3acd" target="_top" xlink:title="Interface for applying deadzone handling to gamepad stick input.">
<polygon fill="white" stroke="#666666" points="155,-41 12,-41 12,0 155,0 155,-41"/>
<text text-anchor="start" x="20" y="-29" font-family="Helvetica,sans-Serif" font-size="10.00">helios::input::gamepad</text>
<text text-anchor="start" x="20" y="-18" font-family="Helvetica,sans-Serif" font-size="10.00">::RadialDeadzoneStrategy</text>
<text text-anchor="middle" x="83.5" y="-7" font-family="Helvetica,sans-Serif" font-size="10.00">::RadialDeadzoneStrategy</text>
</a>
</g>
</g>
<!-- Node1&#45;&gt;Node4 -->
<g id="edge3_Node000001_Node000004" class="edge">
<title>Node1&#45;&gt;Node4</title>
<g id="a_edge3_Node000001_Node000004"><a xlink:title=" ">
<path fill="none" stroke="#63b8ff" d="M206.26,-56.06C189.3,-51.11 171.52,-45.92 154.96,-41.08"/>
<polygon fill="#63b8ff" stroke="#63b8ff" points="205.55,-59.5 216.13,-58.95 207.52,-52.78 205.55,-59.5"/>
</a>
</g>
</g>
</g>
</svg>
