<?xml version="1.0" encoding="UTF-8" standalone="no"?>
<!DOCTYPE svg PUBLIC "-//W3C//DTD SVG 1.1//EN"
 "http://www.w3.org/Graphics/SVG/1.1/DTD/svg11.dtd">
<!-- Generated by graphviz version 2.43.0 (0)
 -->
<!-- Title: helios::engine::mechanics::timing::GameTimer::reset Pages: 1 -->
<svg width="542pt" height="60pt"
 viewBox="0.00 0.00 542.00 60.00" xmlns="http://www.w3.org/2000/svg" xmlns:xlink="http://www.w3.org/1999/xlink">
<g id="graph0" class="graph" transform="scale(1 1) rotate(0) translate(4 56)">
<title>helios::engine::mechanics::timing::GameTimer::reset</title>
<!-- Node1 -->
<g id="Node000001" class="node">
<title>Node1</title>
<g id="a_Node000001"><a xlink:title="Resets the elapsed time to zero and sets timer state to Undefined.">
<polygon fill="#999999" stroke="#666666" points="149,-30 0,-30 0,0 149,0 149,-30"/>
<text text-anchor="start" x="8" y="-18" font-family="Helvetica,sans-Serif" font-size="10.00">helios::engine::mechanics</text>
<text text-anchor="middle" x="74.5" y="-7" font-family="Helvetica,sans-Serif" font-size="10.00">::timing::GameTimer::reset</text>
</a>
</g>
</g>
<!-- Node2 -->
<g id="Node000002" class="node">
<title>Node2</title>
<g id="a_Node000002"><a xlink:href="classhelios_1_1engine_1_1mechanics_1_1timing_1_1GameTimer.html#a9e02b98ba6e73fd17cb7d716f3c6d18b" target="_top" xlink:title="Sets the timer state.">
<polygon fill="white" stroke="#666666" points="349,-52 185,-52 185,-22 349,-22 349,-52"/>
<text text-anchor="start" x="193" y="-40" font-family="Helvetica,sans-Serif" font-size="10.00">helios::engine::mechanics</text>
<text text-anchor="middle" x="267" y="-29" font-family="Helvetica,sans-Serif" font-size="10.00">::timing::GameTimer::setState</text>
</a>
</g>
</g>
<!-- Node1&#45;&gt;Node2 -->
<g id="edge1_Node000001_Node000002" class="edge">
<title>Node1&#45;&gt;Node2</title>
<g id="a_edge1_Node000001_Node000002"><a xlink:title=" ">
<path fill="none" stroke="#63b8ff" d="M149.15,-23.51C157.58,-24.48 166.25,-25.48 174.87,-26.48"/>
<polygon fill="#63b8ff" stroke="#63b8ff" points="174.62,-29.97 184.95,-27.64 175.42,-23.02 174.62,-29.97"/>
</a>
</g>
</g>
<!-- Node3 -->
<g id="Node000003" class="node">
<title>Node3</title>
<g id="a_Node000003"><a xlink:href="classhelios_1_1engine_1_1mechanics_1_1timing_1_1GameTimer.html#ad6e0f8c4e930f0e4f9c20f957c10f1ed" target="_top" xlink:title="Returns the current timer state.">
<polygon fill="white" stroke="#666666" points="534,-30 385,-30 385,0 534,0 534,-30"/>
<text text-anchor="start" x="393" y="-18" font-family="Helvetica,sans-Serif" font-size="10.00">helios::engine::mechanics</text>
<text text-anchor="middle" x="459.5" y="-7" font-family="Helvetica,sans-Serif" font-size="10.00">::timing::GameTimer::state</text>
</a>
</g>
</g>
<!-- Node1&#45;&gt;Node3 -->
<g id="edge3_Node000001_Node000003" class="edge">
<title>Node1&#45;&gt;Node3</title>
<g id="a_edge3_Node000001_Node000003"><a xlink:title=" ">
<path fill="none" stroke="#63b8ff" d="M149.12,-13.47C161.11,-13.27 173.4,-13.11 185,-13 257.89,-12.33 276.11,-12.33 349,-13 357.34,-13.08 366.03,-13.18 374.71,-13.31"/>
<polygon fill="#63b8ff" stroke="#63b8ff" points="374.82,-16.81 384.88,-13.47 374.93,-9.82 374.82,-16.81"/>
</a>
</g>
</g>
<!-- Node2&#45;&gt;Node3 -->
<g id="edge2_Node000002_Node000003" class="edge">
<title>Node2&#45;&gt;Node3</title>
<g id="a_edge2_Node000002_Node000003"><a xlink:title=" ">
<path fill="none" stroke="#63b8ff" d="M349.07,-27.64C357.58,-26.65 366.25,-25.65 374.8,-24.67"/>
<polygon fill="#63b8ff" stroke="#63b8ff" points="375.22,-28.14 384.75,-23.52 374.42,-21.19 375.22,-28.14"/>
</a>
</g>
</g>
</g>
</svg>
