<?xml version="1.0" encoding="UTF-8" standalone="no"?>
<!DOCTYPE svg PUBLIC "-//W3C//DTD SVG 1.1//EN"
 "http://www.w3.org/Graphics/SVG/1.1/DTD/svg11.dtd">
<!-- Generated by graphviz version 2.43.0 (0)
 -->
<!-- Title: helios::engine::modules::ui::widgets::systems::MenuNavigationSystem::update Pages: 1 -->
<svg width="364pt" height="371pt"
 viewBox="0.00 0.00 364.00 371.00" xmlns="http://www.w3.org/2000/svg" xmlns:xlink="http://www.w3.org/1999/xlink">

<svg id="main" version="1.1" xmlns="http://www.w3.org/2000/svg" xmlns:xlink="http://www.w3.org/1999/xlink" xml:space="preserve">

<style type="text/css"><![CDATA[
.node, .edge {opacity: 0.7;}
.node.selected, .edge.selected {opacity: 1;}
.edge:hover path { stroke: red; }
.edge:hover polygon { stroke: red; fill: red; }
]]></style>
<script type="application/ecmascript" xlink:href="svg.min.js"/>
<svg id="graph" class="graph">
<g id="graph0" class="graph" transform="scale(1 1) rotate(0) translate(4 367)">
<title>helios::engine::modules::ui::widgets::systems::MenuNavigationSystem::update</title>
<!-- Node1 -->
<g id="Node000001" class="node">
<title>Node1</title>
<g id="a_Node000001"><a xlink:title="Processes menu navigation input.">
<polygon fill="#999999" stroke="#666666" points="140,-213 0,-213 0,-161 140,-161 140,-213"/>
<text text-anchor="start" x="8" y="-201" font-family="Helvetica,sans-Serif" font-size="10.00">helios::engine::modules</text>
<text text-anchor="start" x="8" y="-190" font-family="Helvetica,sans-Serif" font-size="10.00">::ui::widgets::systems</text>
<text text-anchor="start" x="8" y="-179" font-family="Helvetica,sans-Serif" font-size="10.00">::MenuNavigationSystem</text>
<text text-anchor="middle" x="70" y="-168" font-family="Helvetica,sans-Serif" font-size="10.00">::update</text>
</a>
</g>
</g>
<!-- Node2 -->
<g id="Node000002" class="node">
<title>Node2</title>
<g id="a_Node000002"><a xlink:href="classhelios_1_1engine_1_1runtime_1_1world_1_1UpdateContext.html#aba16db6e6b434f908f937e2a225d7337" target="_top" xlink:title="Resolves an EntityHandle to a GameObject.">
<polygon fill="white" stroke="#666666" points="342.5,-363 189.5,-363 189.5,-333 342.5,-333 342.5,-363"/>
<text text-anchor="start" x="197.5" y="-351" font-family="Helvetica,sans-Serif" font-size="10.00">helios::engine::runtime</text>
<text text-anchor="middle" x="266" y="-340" font-family="Helvetica,sans-Serif" font-size="10.00">::world::UpdateContext::find</text>
</a>
</g>
</g>
<!-- Node1&#45;&gt;Node2 -->
<g id="edge1_Node000001_Node000002" class="edge">
<title>Node1&#45;&gt;Node2</title>
<g id="a_edge1_Node000001_Node000002"><a xlink:title=" ">
<path fill="none" stroke="#63b8ff" d="M84.11,-213.12C101.07,-244.24 133.55,-295.57 176,-324 178.43,-325.63 180.97,-327.15 183.58,-328.56"/>
<polygon fill="#63b8ff" stroke="#63b8ff" points="182.22,-331.79 192.75,-332.99 185.26,-325.49 182.22,-331.79"/>
</a>
</g>
</g>
<!-- Node3 -->
<g id="Node000003" class="node">
<title>Node3</title>
<g id="a_Node000003"><a xlink:href="classhelios_1_1input_1_1InputSnapshot.html#a5ff8aba18168b8843329886e68a7ee99" target="_top" xlink:title="Returns the captured gamepad state.">
<polygon fill="white" stroke="#666666" points="342,-315 190,-315 190,-285 342,-285 342,-315"/>
<text text-anchor="start" x="198" y="-303" font-family="Helvetica,sans-Serif" font-size="10.00">helios::input::InputSnapshot</text>
<text text-anchor="middle" x="266" y="-292" font-family="Helvetica,sans-Serif" font-size="10.00">::gamepadState</text>
</a>
</g>
</g>
<!-- Node1&#45;&gt;Node3 -->
<g id="edge2_Node000001_Node000003" class="edge">
<title>Node1&#45;&gt;Node3</title>
<g id="a_edge2_Node000001_Node000003"><a xlink:title=" ">
<path fill="none" stroke="#63b8ff" d="M95.39,-213.2C115.3,-233.12 145.11,-259.79 176,-276 179.56,-277.87 183.29,-279.61 187.11,-281.21"/>
<polygon fill="#63b8ff" stroke="#63b8ff" points="186.16,-284.6 196.75,-284.95 188.69,-278.07 186.16,-284.6"/>
</a>
</g>
</g>
<!-- Node4 -->
<g id="Node000004" class="node">
<title>Node4</title>
<g id="a_Node000004"><a xlink:href="classhelios_1_1engine_1_1runtime_1_1world_1_1UpdateContext.html#a1c9a47461e487485eeeaaf442510dd68" target="_top" xlink:title="Returns the immutable input snapshot for this frame.">
<polygon fill="white" stroke="#666666" points="330.5,-266.5 201.5,-266.5 201.5,-225.5 330.5,-225.5 330.5,-266.5"/>
<text text-anchor="start" x="209.5" y="-254.5" font-family="Helvetica,sans-Serif" font-size="10.00">helios::engine::runtime</text>
<text text-anchor="start" x="209.5" y="-243.5" font-family="Helvetica,sans-Serif" font-size="10.00">::world::UpdateContext</text>
<text text-anchor="middle" x="266" y="-232.5" font-family="Helvetica,sans-Serif" font-size="10.00">::inputSnapshot</text>
</a>
</g>
</g>
<!-- Node1&#45;&gt;Node4 -->
<g id="edge3_Node000001_Node000004" class="edge">
<title>Node1&#45;&gt;Node4</title>
<g id="a_edge3_Node000001_Node000004"><a xlink:title=" ">
<path fill="none" stroke="#63b8ff" d="M140.22,-208.05C156.86,-213.11 174.7,-218.54 191.53,-223.66"/>
<polygon fill="#63b8ff" stroke="#63b8ff" points="190.73,-227.07 201.31,-226.63 192.76,-220.37 190.73,-227.07"/>
</a>
</g>
</g>
<!-- Node5 -->
<g id="Node000005" class="node">
<title>Node5</title>
<g id="a_Node000005"><a xlink:href="classhelios_1_1engine_1_1modules_1_1ui_1_1widgets_1_1components_1_1MenuComponent.html#ac0ba479d7abdf11dd40d8e8e258dd444" target="_top" xlink:title="Returns a span of all menu item handles.">
<polygon fill="white" stroke="#666666" points="349.5,-207.5 182.5,-207.5 182.5,-166.5 349.5,-166.5 349.5,-207.5"/>
<text text-anchor="start" x="190.5" y="-195.5" font-family="Helvetica,sans-Serif" font-size="10.00">helios::engine::modules</text>
<text text-anchor="start" x="190.5" y="-184.5" font-family="Helvetica,sans-Serif" font-size="10.00">::ui::widgets::components</text>
<text text-anchor="middle" x="266" y="-173.5" font-family="Helvetica,sans-Serif" font-size="10.00">::MenuComponent::menuItems</text>
</a>
</g>
</g>
<!-- Node1&#45;&gt;Node5 -->
<g id="edge4_Node000001_Node000005" class="edge">
<title>Node1&#45;&gt;Node5</title>
<g id="a_edge4_Node000001_Node000005"><a xlink:title=" ">
<path fill="none" stroke="#63b8ff" d="M140.22,-187C150.52,-187 161.29,-187 171.99,-187"/>
<polygon fill="#63b8ff" stroke="#63b8ff" points="172.21,-190.5 182.21,-187 172.21,-183.5 172.21,-190.5"/>
</a>
</g>
</g>
<!-- Node6 -->
<g id="Node000006" class="node">
<title>Node6</title>
<g id="a_Node000006"><a xlink:href="classhelios_1_1engine_1_1runtime_1_1world_1_1UpdateContext.html#a6a1c8408558f967c0c5993d6b0eb2fe5" target="_top" xlink:title="Submits a command to the EngineCommandBuffer.">
<polygon fill="white" stroke="#666666" points="330.5,-148.5 201.5,-148.5 201.5,-107.5 330.5,-107.5 330.5,-148.5"/>
<text text-anchor="start" x="209.5" y="-136.5" font-family="Helvetica,sans-Serif" font-size="10.00">helios::engine::runtime</text>
<text text-anchor="start" x="209.5" y="-125.5" font-family="Helvetica,sans-Serif" font-size="10.00">::world::UpdateContext</text>
<text text-anchor="middle" x="266" y="-114.5" font-family="Helvetica,sans-Serif" font-size="10.00">::queueCommand</text>
</a>
</g>
</g>
<!-- Node1&#45;&gt;Node6 -->
<g id="edge5_Node000001_Node000006" class="edge">
<title>Node1&#45;&gt;Node6</title>
<g id="a_edge5_Node000001_Node000006"><a xlink:title=" ">
<path fill="none" stroke="#63b8ff" d="M140.22,-165.95C156.86,-160.89 174.7,-155.46 191.53,-150.34"/>
<polygon fill="#63b8ff" stroke="#63b8ff" points="192.76,-153.63 201.31,-147.37 190.73,-146.93 192.76,-153.63"/>
</a>
</g>
</g>
<!-- Node7 -->
<g id="Node000007" class="node">
<title>Node7</title>
<g id="a_Node000007"><a xlink:href="classhelios_1_1engine_1_1modules_1_1ui_1_1widgets_1_1components_1_1MenuComponent.html#a3145233a81e194fba402c4904a12293f" target="_top" xlink:title="Returns the currently selected item index.">
<polygon fill="white" stroke="#666666" points="356,-89.5 176,-89.5 176,-48.5 356,-48.5 356,-89.5"/>
<text text-anchor="start" x="184" y="-77.5" font-family="Helvetica,sans-Serif" font-size="10.00">helios::engine::modules</text>
<text text-anchor="start" x="184" y="-66.5" font-family="Helvetica,sans-Serif" font-size="10.00">::ui::widgets::components</text>
<text text-anchor="middle" x="266" y="-55.5" font-family="Helvetica,sans-Serif" font-size="10.00">::MenuComponent::selectedIndex</text>
</a>
</g>
</g>
<!-- Node1&#45;&gt;Node7 -->
<g id="edge6_Node000001_Node000007" class="edge">
<title>Node1&#45;&gt;Node7</title>
<g id="a_edge6_Node000001_Node000007"><a xlink:title=" ">
<path fill="none" stroke="#63b8ff" d="M96.56,-160.83C116.64,-141.51 146.13,-115.76 176,-99 179.25,-97.18 182.63,-95.44 186.08,-93.79"/>
<polygon fill="#63b8ff" stroke="#63b8ff" points="187.69,-96.9 195.39,-89.62 184.83,-90.52 187.69,-96.9"/>
</a>
</g>
</g>
<!-- Node8 -->
<g id="Node000008" class="node">
<title>Node8</title>
<g id="a_Node000008"><a xlink:href="classhelios_1_1engine_1_1runtime_1_1world_1_1UpdateContext.html#a5748f227bfab7fe248186fe4d54b6444" target="_top" xlink:title="Creates a View for querying entities with the given component types.">
<polygon fill="white" stroke="#666666" points="345,-30 187,-30 187,0 345,0 345,-30"/>
<text text-anchor="start" x="195" y="-18" font-family="Helvetica,sans-Serif" font-size="10.00">helios::engine::runtime</text>
<text text-anchor="middle" x="266" y="-7" font-family="Helvetica,sans-Serif" font-size="10.00">::world::UpdateContext::view</text>
</a>
</g>
</g>
<!-- Node1&#45;&gt;Node8 -->
<g id="edge7_Node000001_Node000008" class="edge">
<title>Node1&#45;&gt;Node8</title>
<g id="a_edge7_Node000001_Node000008"><a xlink:title=" ">
<path fill="none" stroke="#63b8ff" d="M82.81,-160.78C99.07,-127.68 131.47,-71.27 176,-40 178.84,-38 181.84,-36.16 184.95,-34.47"/>
<polygon fill="#63b8ff" stroke="#63b8ff" points="186.51,-37.61 193.97,-30.08 183.44,-31.32 186.51,-37.61"/>
</a>
</g>
</g>
</g>
</svg>
</svg>

<style type='text/css'>
<![CDATA[
[data-mouse-over-selected='false'] { opacity: 0.7; }
[data-mouse-over-selected='true']  { opacity: 1.0; }
]]>
</style>
<script type="application/ecmascript"><![CDATA[
document.addEventListener('DOMContentLoaded', (event) => {
  highlightEdges();
  highlightAdjacentNodes();
});
]]></script>
</svg>
