<?xml version="1.0" encoding="UTF-8" standalone="no"?>
<!DOCTYPE svg PUBLIC "-//W3C//DTD SVG 1.1//EN"
 "http://www.w3.org/Graphics/SVG/1.1/DTD/svg11.dtd">
<!-- Generated by graphviz version 2.43.0 (0)
 -->
<!-- Title: helios::scene::Scene::Scene Pages: 1 -->
<svg width="276pt" height="104pt"
 viewBox="0.00 0.00 276.00 104.00" xmlns="http://www.w3.org/2000/svg" xmlns:xlink="http://www.w3.org/1999/xlink">
<g id="graph0" class="graph" transform="scale(1 1) rotate(0) translate(4 100)">
<title>helios::scene::Scene::Scene</title>
<!-- Node1 -->
<g id="Node000001" class="node">
<title>Node1</title>
<g id="a_Node000001"><a xlink:title="Constructs a new Scene with a specific scene ID.">
<polygon fill="#999999" stroke="#666666" points="116,-54 0,-54 0,-24 116,-24 116,-54"/>
<text text-anchor="start" x="8" y="-42" font-family="Helvetica,sans-Serif" font-size="10.00">helios::scene::Scene</text>
<text text-anchor="middle" x="58" y="-31" font-family="Helvetica,sans-Serif" font-size="10.00">::Scene</text>
</a>
</g>
</g>
<!-- Node2 -->
<g id="Node000002" class="node">
<title>Node2</title>
<g id="a_Node000002"><a xlink:href="classhelios_1_1scene_1_1Scene.html#af485d366a14aae8f69913d9cb01739f1" target="_top" xlink:title="Prevent copying.">
<polygon fill="white" stroke="#666666" points="268,-78 152,-78 152,-48 268,-48 268,-78"/>
<text text-anchor="start" x="160" y="-66" font-family="Helvetica,sans-Serif" font-size="10.00">helios::scene::Scene</text>
<text text-anchor="middle" x="210" y="-55" font-family="Helvetica,sans-Serif" font-size="10.00">::Scene</text>
</a>
</g>
</g>
<!-- Node1&#45;&gt;Node2 -->
<g id="edge1_Node000001_Node000002" class="edge">
<title>Node1&#45;&gt;Node2</title>
<g id="a_edge1_Node000001_Node000002"><a xlink:title=" ">
<path fill="none" stroke="#63b8ff" d="M116.14,-48.14C124.47,-49.47 133.11,-50.86 141.62,-52.22"/>
<polygon fill="#63b8ff" stroke="#63b8ff" points="141.1,-55.68 151.53,-53.8 142.2,-48.77 141.1,-55.68"/>
</a>
</g>
</g>
<!-- Node3 -->
<g id="Node000003" class="node">
<title>Node3</title>
<g id="a_Node000003"><a xlink:href="classhelios_1_1scene_1_1Scene.html#a0e42bd7671b0cd41ee0c5ef32ec1d556" target="_top" xlink:title="Returns the unique identifier for this scene.">
<polygon fill="white" stroke="#666666" points="268,-30 152,-30 152,0 268,0 268,-30"/>
<text text-anchor="start" x="160" y="-18" font-family="Helvetica,sans-Serif" font-size="10.00">helios::scene::Scene</text>
<text text-anchor="middle" x="210" y="-7" font-family="Helvetica,sans-Serif" font-size="10.00">::sceneId</text>
</a>
</g>
</g>
<!-- Node1&#45;&gt;Node3 -->
<g id="edge3_Node000001_Node000003" class="edge">
<title>Node1&#45;&gt;Node3</title>
<g id="a_edge3_Node000001_Node000003"><a xlink:title=" ">
<path fill="none" stroke="#63b8ff" d="M116.14,-29.86C124.47,-28.53 133.11,-27.14 141.62,-25.78"/>
<polygon fill="#63b8ff" stroke="#63b8ff" points="142.2,-29.23 151.53,-24.2 141.1,-22.32 142.2,-29.23"/>
</a>
</g>
</g>
<!-- Node2&#45;&gt;Node2 -->
<g id="edge2_Node000002_Node000002" class="edge">
<title>Node2&#45;&gt;Node2</title>
<g id="a_edge2_Node000002_Node000002"><a xlink:title=" ">
<path fill="none" stroke="#63b8ff" d="M183.28,-78.28C177.34,-87.41 186.25,-96 210,-96 224.1,-96 232.97,-92.97 236.61,-88.6"/>
<polygon fill="#63b8ff" stroke="#63b8ff" points="240.11,-88.31 236.72,-78.28 233.11,-88.24 240.11,-88.31"/>
</a>
</g>
</g>
</g>
</svg>
