<?xml version="1.0" encoding="UTF-8" standalone="no"?>
<!DOCTYPE svg PUBLIC "-//W3C//DTD SVG 1.1//EN"
 "http://www.w3.org/Graphics/SVG/1.1/DTD/svg11.dtd">
<!-- Generated by graphviz version 2.43.0 (0)
 -->
<!-- Title: helios::engine::mechanics::combat::manager::ProjectilePoolManager Pages: 1 -->
<svg width="962pt" height="134pt"
 viewBox="0.00 0.00 962.00 134.00" xmlns="http://www.w3.org/2000/svg" xmlns:xlink="http://www.w3.org/1999/xlink">
<g id="graph0" class="graph" transform="scale(1 1) rotate(0) translate(4 130)">
<title>helios::engine::mechanics::combat::manager::ProjectilePoolManager</title>
<!-- Node1 -->
<g id="Node000001" class="node">
<title>Node1</title>
<g id="a_Node000001"><a xlink:title="Manager for projectile spawning with rate&#45;limited pooling.">
<polygon fill="#999999" stroke="#666666" points="954,-47.5 772,-47.5 772,-6.5 954,-6.5 954,-47.5"/>
<text text-anchor="start" x="780" y="-35.5" font-family="Helvetica,sans-Serif" font-size="10.00">helios::engine::mechanics</text>
<text text-anchor="start" x="780" y="-24.5" font-family="Helvetica,sans-Serif" font-size="10.00">::combat::manager::ProjectilePool</text>
<text text-anchor="middle" x="863" y="-13.5" font-family="Helvetica,sans-Serif" font-size="10.00">Manager</text>
</a>
</g>
</g>
<!-- Node2 -->
<g id="Node000002" class="node">
<title>Node2</title>
<g id="a_Node000002"><a xlink:href="classhelios_1_1engine_1_1runtime_1_1world_1_1Manager.html" target="_top" xlink:title="Abstract base class for managers that process deferred operations.">
<polygon fill="white" stroke="#666666" points="717.5,-78 588.5,-78 588.5,-48 717.5,-48 717.5,-78"/>
<text text-anchor="start" x="596.5" y="-66" font-family="Helvetica,sans-Serif" font-size="10.00">helios::engine::runtime</text>
<text text-anchor="middle" x="653" y="-55" font-family="Helvetica,sans-Serif" font-size="10.00">::world::Manager</text>
</a>
</g>
</g>
<!-- Node2&#45;&gt;Node1 -->
<g id="edge1_Node000001_Node000002" class="edge">
<title>Node2&#45;&gt;Node1</title>
<g id="a_edge1_Node000001_Node000002"><a xlink:title=" ">
<path fill="none" stroke="#63b8ff" d="M727.73,-50.24C741.95,-47.78 756.99,-45.17 771.67,-42.63"/>
<polygon fill="#63b8ff" stroke="#63b8ff" points="726.79,-46.85 717.54,-52 727.99,-53.75 726.79,-46.85"/>
</a>
</g>
</g>
<!-- Node3 -->
<g id="Node000003" class="node">
<title>Node3</title>
<g id="a_Node000003"><a xlink:href="classhelios_1_1engine_1_1runtime_1_1world_1_1GameWorld.html" target="_top" xlink:title="Central registry for game entities, managers, pools, and the active level.">
<polygon fill="white" stroke="#666666" points="468,-78 339,-78 339,-48 468,-48 468,-78"/>
<text text-anchor="start" x="347" y="-66" font-family="Helvetica,sans-Serif" font-size="10.00">helios::engine::runtime</text>
<text text-anchor="middle" x="403.5" y="-55" font-family="Helvetica,sans-Serif" font-size="10.00">::world::GameWorld</text>
</a>
</g>
</g>
<!-- Node3&#45;&gt;Node2 -->
<g id="edge2_Node000002_Node000003" class="edge">
<title>Node3&#45;&gt;Node2</title>
<g id="a_edge2_Node000002_Node000003"><a xlink:title=" ">
<path fill="none" stroke="#9a32cd" stroke-dasharray="5,2" d="M478.41,-63C513.45,-63 554.88,-63 588.48,-63"/>
<polygon fill="#9a32cd" stroke="#9a32cd" points="478.24,-59.5 468.24,-63 478.24,-66.5 478.24,-59.5"/>
</a>
</g>
<text text-anchor="start" x="489.5" y="-68.5" font-family="Helvetica,sans-Serif" font-size="10.00" fill="grey">gameWorld_</text>
</g>
<!-- Node4 -->
<g id="Node000004" class="node">
<title>Node4</title>
<g id="a_Node000004"><a xlink:href="classhelios_1_1util_1_1log_1_1Logger.html" target="_top" xlink:title="Logger implementation with configurable output sinks.">
<polygon fill="white" stroke="#666666" points="141,-126 46,-126 46,-96 141,-96 141,-126"/>
<text text-anchor="start" x="54" y="-114" font-family="Helvetica,sans-Serif" font-size="10.00">helios::util::log::</text>
<text text-anchor="middle" x="93.5" y="-103" font-family="Helvetica,sans-Serif" font-size="10.00">Logger</text>
</a>
</g>
</g>
<!-- Node4&#45;&gt;Node3 -->
<g id="edge3_Node000003_Node000004" class="edge">
<title>Node4&#45;&gt;Node3</title>
<g id="a_edge3_Node000003_Node000004"><a xlink:title=" ">
<path fill="none" stroke="#9a32cd" stroke-dasharray="5,2" d="M151.27,-106.35C197.27,-102.08 263.65,-94.76 321,-84 329.9,-82.33 339.28,-80.24 348.37,-78.02"/>
<polygon fill="#9a32cd" stroke="#9a32cd" points="150.83,-102.88 141.19,-107.27 151.47,-109.85 150.83,-102.88"/>
</a>
</g>
<text text-anchor="start" x="245" y="-105.5" font-family="Helvetica,sans-Serif" font-size="10.00" fill="grey">logger_</text>
</g>
<!-- Node5 -->
<g id="Node000005" class="node">
<title>Node5</title>
<g id="a_Node000005"><a xlink:href="classhelios_1_1engine_1_1runtime_1_1pooling_1_1GameObjectPoolRegistry.html" target="_top" xlink:title="Central registry for managing multiple named GameObjectPools.">
<polygon fill="white" stroke="#666666" points="187,-78 0,-78 0,-48 187,-48 187,-78"/>
<text text-anchor="start" x="8" y="-66" font-family="Helvetica,sans-Serif" font-size="10.00">helios::engine::runtime</text>
<text text-anchor="middle" x="93.5" y="-55" font-family="Helvetica,sans-Serif" font-size="10.00">::pooling::GameObjectPoolRegistry</text>
</a>
</g>
</g>
<!-- Node5&#45;&gt;Node3 -->
<g id="edge4_Node000003_Node000005" class="edge">
<title>Node5&#45;&gt;Node3</title>
<g id="a_edge4_Node000003_Node000005"><a xlink:title=" ">
<path fill="none" stroke="#9a32cd" stroke-dasharray="5,2" d="M197.48,-63C244.17,-63 297.91,-63 338.66,-63"/>
<polygon fill="#9a32cd" stroke="#9a32cd" points="197.33,-59.5 187.33,-63 197.33,-66.5 197.33,-59.5"/>
</a>
</g>
<text text-anchor="start" x="247" y="-68.5" font-family="Helvetica,sans-Serif" font-size="10.00" fill="grey">pools_</text>
</g>
<!-- Node6 -->
<g id="Node000006" class="node">
<title>Node6</title>
<g id="a_Node000006"><a xlink:href="classhelios_1_1engine_1_1runtime_1_1pooling_1_1PoolManagerRegistry.html" target="_top" xlink:title="Registry that maps GameObjectPoolIds to their PoolRequestHandlers.">
<polygon fill="white" stroke="#666666" points="178,-30 9,-30 9,0 178,0 178,-30"/>
<text text-anchor="start" x="17" y="-18" font-family="Helvetica,sans-Serif" font-size="10.00">helios::engine::runtime</text>
<text text-anchor="middle" x="93.5" y="-7" font-family="Helvetica,sans-Serif" font-size="10.00">::pooling::PoolManagerRegistry</text>
</a>
</g>
</g>
<!-- Node6&#45;&gt;Node3 -->
<g id="edge5_Node000003_Node000006" class="edge">
<title>Node6&#45;&gt;Node3</title>
<g id="a_edge5_Node000003_Node000006"><a xlink:title=" ">
<path fill="none" stroke="#9a32cd" stroke-dasharray="5,2" d="M187.99,-23.31C228.99,-27.68 277.58,-33.86 321,-42 329.9,-43.67 339.28,-45.76 348.37,-47.98"/>
<polygon fill="#9a32cd" stroke="#9a32cd" points="188.32,-19.82 178.01,-22.26 187.59,-26.79 188.32,-19.82"/>
</a>
</g>
<text text-anchor="start" x="208" y="-47.5" font-family="Helvetica,sans-Serif" font-size="10.00" fill="grey">poolManagerRegistry_</text>
</g>
<!-- Node7 -->
<g id="Node000007" class="node">
<title>Node7</title>
<g id="a_Node000007"><a xlink:href="classhelios_1_1engine_1_1runtime_1_1pooling_1_1PoolRequestHandler.html" target="_top" xlink:title="Interface for handlers that process spawn and despawn requests for a pool.">
<polygon fill="white" stroke="#666666" points="735,-30 571,-30 571,0 735,0 735,-30"/>
<text text-anchor="start" x="579" y="-18" font-family="Helvetica,sans-Serif" font-size="10.00">helios::engine::runtime</text>
<text text-anchor="middle" x="653" y="-7" font-family="Helvetica,sans-Serif" font-size="10.00">::pooling::PoolRequestHandler</text>
</a>
</g>
</g>
<!-- Node7&#45;&gt;Node1 -->
<g id="edge6_Node000001_Node000007" class="edge">
<title>Node7&#45;&gt;Node1</title>
<g id="a_edge6_Node000001_Node000007"><a xlink:title=" ">
<path fill="none" stroke="#63b8ff" d="M745.02,-20.25C753.94,-20.77 762.99,-21.29 771.9,-21.8"/>
<polygon fill="#63b8ff" stroke="#63b8ff" points="745.2,-16.76 735.01,-19.67 744.8,-23.74 745.2,-16.76"/>
</a>
</g>
</g>
</g>
</svg>
