<?xml version="1.0" encoding="UTF-8" standalone="no"?>
<!DOCTYPE svg PUBLIC "-//W3C//DTD SVG 1.1//EN"
 "http://www.w3.org/Graphics/SVG/1.1/DTD/svg11.dtd">
<!-- Generated by graphviz version 2.43.0 (0)
 -->
<!-- Title: helios::engine::mechanics::spawn::systems::GameObjectSpawnSystem Pages: 1 -->
<svg width="973pt" height="146pt"
 viewBox="0.00 0.00 973.00 145.50" xmlns="http://www.w3.org/2000/svg" xmlns:xlink="http://www.w3.org/1999/xlink">
<g id="graph0" class="graph" transform="scale(1 1) rotate(0) translate(4 141.5)">
<title>helios::engine::mechanics::spawn::systems::GameObjectSpawnSystem</title>
<!-- Node1 -->
<g id="Node000001" class="node">
<title>Node1</title>
<g id="a_Node000001"><a xlink:title="System that evaluates spawn conditions and enqueues spawn commands.">
<polygon fill="#999999" stroke="#666666" points="965,-119 765,-119 765,-78 965,-78 965,-119"/>
<text text-anchor="start" x="773" y="-107" font-family="Helvetica,sans-Serif" font-size="10.00">helios::engine::mechanics</text>
<text text-anchor="start" x="773" y="-96" font-family="Helvetica,sans-Serif" font-size="10.00">::spawn::systems::GameObjectSpawn</text>
<text text-anchor="middle" x="865" y="-85" font-family="Helvetica,sans-Serif" font-size="10.00">System</text>
</a>
</g>
</g>
<!-- Node2 -->
<g id="Node000002" class="node">
<title>Node2</title>
<g id="a_Node000002"><a xlink:href="classhelios_1_1engine_1_1ecs_1_1System.html" target="_top" xlink:title="Abstract base class for game systems.">
<polygon fill="white" stroke="#666666" points="728,-113.5 621,-113.5 621,-83.5 728,-83.5 728,-113.5"/>
<text text-anchor="start" x="629" y="-101.5" font-family="Helvetica,sans-Serif" font-size="10.00">helios::engine::ecs</text>
<text text-anchor="middle" x="674.5" y="-90.5" font-family="Helvetica,sans-Serif" font-size="10.00">::System</text>
</a>
</g>
</g>
<!-- Node2&#45;&gt;Node1 -->
<g id="edge1_Node000001_Node000002" class="edge">
<title>Node2&#45;&gt;Node1</title>
<g id="a_edge1_Node000001_Node000002"><a xlink:title=" ">
<path fill="none" stroke="#63b8ff" d="M738.26,-98.5C746.85,-98.5 755.83,-98.5 764.86,-98.5"/>
<polygon fill="#63b8ff" stroke="#63b8ff" points="738.01,-95 728.01,-98.5 738.01,-102 738.01,-95"/>
</a>
</g>
</g>
<!-- Node3 -->
<g id="Node000003" class="node">
<title>Node3</title>
<g id="a_Node000003"><a xlink:href="classhelios_1_1engine_1_1ecs_1_1Updatable.html" target="_top" xlink:title="Interface for components that require per&#45;frame updates.">
<polygon fill="white" stroke="#666666" points="507,-137.5 400,-137.5 400,-107.5 507,-107.5 507,-137.5"/>
<text text-anchor="start" x="408" y="-125.5" font-family="Helvetica,sans-Serif" font-size="10.00">helios::engine::ecs</text>
<text text-anchor="middle" x="453.5" y="-114.5" font-family="Helvetica,sans-Serif" font-size="10.00">::Updatable</text>
</a>
</g>
</g>
<!-- Node3&#45;&gt;Node2 -->
<g id="edge2_Node000002_Node000003" class="edge">
<title>Node3&#45;&gt;Node2</title>
<g id="a_edge2_Node000002_Node000003"><a xlink:title=" ">
<path fill="none" stroke="#63b8ff" d="M517.6,-115.59C550.31,-112 589.79,-107.67 620.84,-104.27"/>
<polygon fill="#63b8ff" stroke="#63b8ff" points="516.79,-112.15 507.23,-116.72 517.56,-119.11 516.79,-112.15"/>
</a>
</g>
</g>
<!-- Node4 -->
<g id="Node000004" class="node">
<title>Node4</title>
<g id="a_Node000004"><a xlink:href="classhelios_1_1engine_1_1runtime_1_1world_1_1GameWorld.html" target="_top" xlink:title="Central registry for game entities, managers, pools, and the active level.">
<polygon fill="white" stroke="#666666" points="518,-89.5 389,-89.5 389,-59.5 518,-59.5 518,-89.5"/>
<text text-anchor="start" x="397" y="-77.5" font-family="Helvetica,sans-Serif" font-size="10.00">helios::engine::runtime</text>
<text text-anchor="middle" x="453.5" y="-66.5" font-family="Helvetica,sans-Serif" font-size="10.00">::world::GameWorld</text>
</a>
</g>
</g>
<!-- Node4&#45;&gt;Node2 -->
<g id="edge3_Node000002_Node000004" class="edge">
<title>Node4&#45;&gt;Node2</title>
<g id="a_edge3_Node000002_Node000004"><a xlink:title=" ">
<path fill="none" stroke="#9a32cd" stroke-dasharray="5,2" d="M528.33,-77.59C552.22,-79.09 578.79,-81.29 603,-84.5 608.81,-85.27 614.87,-86.23 620.88,-87.28"/>
<polygon fill="#9a32cd" stroke="#9a32cd" points="528.46,-74.09 518.27,-76.99 528.04,-81.08 528.46,-74.09"/>
</a>
</g>
<text text-anchor="start" x="539.5" y="-90" font-family="Helvetica,sans-Serif" font-size="10.00" fill="grey">gameWorld_</text>
</g>
<!-- Node5 -->
<g id="Node000005" class="node">
<title>Node5</title>
<g id="a_Node000005"><a xlink:href="classhelios_1_1util_1_1log_1_1Logger.html" target="_top" xlink:title="Logger implementation with configurable output sinks.">
<polygon fill="white" stroke="#666666" points="138,-137.5 43,-137.5 43,-107.5 138,-107.5 138,-137.5"/>
<text text-anchor="start" x="51" y="-125.5" font-family="Helvetica,sans-Serif" font-size="10.00">helios::util::log::</text>
<text text-anchor="middle" x="90.5" y="-114.5" font-family="Helvetica,sans-Serif" font-size="10.00">Logger</text>
</a>
</g>
</g>
<!-- Node5&#45;&gt;Node4 -->
<g id="edge4_Node000004_Node000005" class="edge">
<title>Node5&#45;&gt;Node4</title>
<g id="a_edge4_Node000004_Node000005"><a xlink:title=" ">
<path fill="none" stroke="#9a32cd" stroke-dasharray="5,2" d="M148.49,-119.6C205.22,-116.11 294.61,-108.95 371,-95.5 380.07,-93.9 389.61,-91.82 398.84,-89.59"/>
<polygon fill="#9a32cd" stroke="#9a32cd" points="148.06,-116.12 138.29,-120.21 148.48,-123.11 148.06,-116.12"/>
</a>
</g>
<text text-anchor="start" x="267" y="-121" font-family="Helvetica,sans-Serif" font-size="10.00" fill="grey">logger_</text>
</g>
<!-- Node6 -->
<g id="Node000006" class="node">
<title>Node6</title>
<g id="a_Node000006"><a xlink:href="classhelios_1_1engine_1_1mechanics_1_1scoring_1_1ScoreCommandHandler.html" target="_top" xlink:title="Abstract interface for processing score update commands.">
<polygon fill="white" stroke="#666666" points="180,-89.5 1,-89.5 1,-59.5 180,-59.5 180,-89.5"/>
<text text-anchor="start" x="9" y="-77.5" font-family="Helvetica,sans-Serif" font-size="10.00">helios::engine::mechanics</text>
<text text-anchor="middle" x="90.5" y="-66.5" font-family="Helvetica,sans-Serif" font-size="10.00">::scoring::ScoreCommandHandler</text>
</a>
</g>
</g>
<!-- Node6&#45;&gt;Node4 -->
<g id="edge5_Node000004_Node000006" class="edge">
<title>Node6&#45;&gt;Node4</title>
<g id="a_edge5_Node000004_Node000006"><a xlink:title=" ">
<path fill="none" stroke="#9a32cd" stroke-dasharray="5,2" d="M190.28,-74.5C253.55,-74.5 333.8,-74.5 388.76,-74.5"/>
<polygon fill="#9a32cd" stroke="#9a32cd" points="190.27,-71 180.27,-74.5 190.27,-78 190.27,-71"/>
</a>
</g>
<text text-anchor="start" x="225" y="-80" font-family="Helvetica,sans-Serif" font-size="10.00" fill="grey">scoreCommandHandler_</text>
</g>
<!-- Node7 -->
<g id="Node000007" class="node">
<title>Node7</title>
<g id="a_Node000007"><a xlink:href="classhelios_1_1engine_1_1runtime_1_1spawn_1_1SpawnCommandHandlerRegistry.html" target="_top" xlink:title="Registry that maps SpawnProfileIds to their SpawnCommandHandlers.">
<polygon fill="white" stroke="#666666" points="181,-41 0,-41 0,0 181,0 181,-41"/>
<text text-anchor="start" x="8" y="-29" font-family="Helvetica,sans-Serif" font-size="10.00">helios::engine::runtime</text>
<text text-anchor="start" x="8" y="-18" font-family="Helvetica,sans-Serif" font-size="10.00">::spawn::SpawnCommandHandler</text>
<text text-anchor="middle" x="90.5" y="-7" font-family="Helvetica,sans-Serif" font-size="10.00">Registry</text>
</a>
</g>
</g>
<!-- Node7&#45;&gt;Node4 -->
<g id="edge6_Node000004_Node000007" class="edge">
<title>Node7&#45;&gt;Node4</title>
<g id="a_edge6_Node000004_Node000007"><a xlink:title=" ">
<path fill="none" stroke="#9a32cd" stroke-dasharray="5,2" d="M191.2,-28.98C244.76,-34.36 311.78,-42.43 371,-53.5 379.9,-55.17 389.28,-57.26 398.37,-59.47"/>
<polygon fill="#9a32cd" stroke="#9a32cd" points="191.32,-25.48 181.02,-27.97 190.63,-32.44 191.32,-25.48"/>
</a>
</g>
<text text-anchor="start" x="202" y="-59" font-family="Helvetica,sans-Serif" font-size="10.00" fill="grey">spawnCommandHandlerRegistry_</text>
</g>
</g>
</svg>
