<?xml version="1.0" encoding="UTF-8" standalone="no"?>
<!DOCTYPE svg PUBLIC "-//W3C//DTD SVG 1.1//EN"
 "http://www.w3.org/Graphics/SVG/1.1/DTD/svg11.dtd">
<!-- Generated by graphviz version 2.43.0 (0)
 -->
<!-- Title: helios::engine::game::GameObjectPool::guid Pages: 1 -->
<svg width="582pt" height="194pt"
 viewBox="0.00 0.00 582.00 194.00" xmlns="http://www.w3.org/2000/svg" xmlns:xlink="http://www.w3.org/1999/xlink">
<g id="graph0" class="graph" transform="scale(1 1) rotate(0) translate(4 190)">
<title>helios::engine::game::GameObjectPool::guid</title>
<!-- Node1 -->
<g id="Node000001" class="node">
<title>Node1</title>
<g id="a_Node000001"><a xlink:title="Returns the unique identifier of this pool.">
<polygon fill="#999999" stroke="#666666" points="574,-105 443,-105 443,-75 574,-75 574,-105"/>
<text text-anchor="start" x="451" y="-93" font-family="Helvetica,sans-Serif" font-size="10.00">helios::engine::game</text>
<text text-anchor="middle" x="508.5" y="-82" font-family="Helvetica,sans-Serif" font-size="10.00">::GameObjectPool::guid</text>
</a>
</g>
</g>
<!-- Node2 -->
<g id="Node000002" class="node">
<title>Node2</title>
<g id="a_Node000002"><a xlink:href="classhelios_1_1engine_1_1game_1_1GameObjectPool.html#ac53ed0a26e7dca1df6fb96830abda06a" target="_top" xlink:title="Acquires the next available GameObject from the pool.">
<polygon fill="white" stroke="#666666" points="390.5,-186 244.5,-186 244.5,-156 390.5,-156 390.5,-186"/>
<text text-anchor="start" x="252.5" y="-174" font-family="Helvetica,sans-Serif" font-size="10.00">helios::engine::game</text>
<text text-anchor="middle" x="317.5" y="-163" font-family="Helvetica,sans-Serif" font-size="10.00">::GameObjectPool::acquire</text>
</a>
</g>
</g>
<!-- Node1&#45;&gt;Node2 -->
<g id="edge1_Node000001_Node000002" class="edge">
<title>Node1&#45;&gt;Node2</title>
<g id="a_edge1_Node000001_Node000002"><a xlink:title=" ">
<path fill="none" stroke="#63b8ff" d="M476.11,-110.52C456.79,-122.45 431.18,-137.05 407,-147 399.05,-150.27 390.52,-153.23 382,-155.86"/>
<polygon fill="#63b8ff" stroke="#63b8ff" points="478.17,-113.36 484.78,-105.08 474.45,-107.43 478.17,-113.36"/>
</a>
</g>
</g>
<!-- Node3 -->
<g id="Node000003" class="node">
<title>Node3</title>
<g id="a_Node000003"><a xlink:href="classhelios_1_1engine_1_1game_1_1GameObjectPool.html#a3179669f6a21f905e8eb9dca7e99b865" target="_top" xlink:title="Retrieves all currently inactive GameObjects.">
<polygon fill="white" stroke="#666666" points="407,-137.5 228,-137.5 228,-96.5 407,-96.5 407,-137.5"/>
<text text-anchor="start" x="236" y="-125.5" font-family="Helvetica,sans-Serif" font-size="10.00">helios::engine::game</text>
<text text-anchor="start" x="236" y="-114.5" font-family="Helvetica,sans-Serif" font-size="10.00">::GameObjectPool::inactiveGame</text>
<text text-anchor="middle" x="317.5" y="-103.5" font-family="Helvetica,sans-Serif" font-size="10.00">Objects</text>
</a>
</g>
</g>
<!-- Node1&#45;&gt;Node3 -->
<g id="edge2_Node000001_Node000003" class="edge">
<title>Node1&#45;&gt;Node3</title>
<g id="a_edge2_Node000001_Node000003"><a xlink:title=" ">
<path fill="none" stroke="#63b8ff" d="M432.82,-100.67C424.38,-101.87 415.73,-103.11 407.13,-104.34"/>
<polygon fill="#63b8ff" stroke="#63b8ff" points="433.58,-104.1 442.99,-99.22 432.59,-97.17 433.58,-104.1"/>
</a>
</g>
</g>
<!-- Node4 -->
<g id="Node000004" class="node">
<title>Node4</title>
<g id="a_Node000004"><a xlink:href="classhelios_1_1engine_1_1game_1_1GameObjectPool.html#a722d64b5eff08ee053cb45184dd70801" target="_top" xlink:title="Releases a GameObject back to the pool by its Guid.">
<polygon fill="white" stroke="#666666" points="390.5,-78 244.5,-78 244.5,-48 390.5,-48 390.5,-78"/>
<text text-anchor="start" x="252.5" y="-66" font-family="Helvetica,sans-Serif" font-size="10.00">helios::engine::game</text>
<text text-anchor="middle" x="317.5" y="-55" font-family="Helvetica,sans-Serif" font-size="10.00">::GameObjectPool::release</text>
</a>
</g>
</g>
<!-- Node1&#45;&gt;Node4 -->
<g id="edge3_Node000001_Node000004" class="edge">
<title>Node1&#45;&gt;Node4</title>
<g id="a_edge3_Node000001_Node000004"><a xlink:title=" ">
<path fill="none" stroke="#63b8ff" d="M432.94,-79.35C418.97,-77.35 404.4,-75.27 390.51,-73.29"/>
<polygon fill="#63b8ff" stroke="#63b8ff" points="432.59,-82.83 442.99,-80.78 433.58,-75.9 432.59,-82.83"/>
</a>
</g>
</g>
<!-- Node5 -->
<g id="Node000005" class="node">
<title>Node5</title>
<g id="a_Node000005"><a xlink:href="classhelios_1_1engine_1_1game_1_1GameObjectPool.html#a4f50e9ec7c32aa93dab2203baa16bad3" target="_top" xlink:title="Pre&#45;allocates all pooled objects and adds them to the GameWorld.">
<polygon fill="white" stroke="#666666" points="392.5,-30 242.5,-30 242.5,0 392.5,0 392.5,-30"/>
<text text-anchor="start" x="250.5" y="-18" font-family="Helvetica,sans-Serif" font-size="10.00">helios::engine::game</text>
<text text-anchor="middle" x="317.5" y="-7" font-family="Helvetica,sans-Serif" font-size="10.00">::GameObjectPool::warmup</text>
</a>
</g>
</g>
<!-- Node1&#45;&gt;Node5 -->
<g id="edge4_Node000001_Node000005" class="edge">
<title>Node1&#45;&gt;Node5</title>
<g id="a_edge4_Node000001_Node000005"><a xlink:title=" ">
<path fill="none" stroke="#63b8ff" d="M472.44,-69.98C453.5,-59.73 429.44,-47.63 407,-39 398.53,-35.74 389.45,-32.75 380.44,-30.05"/>
<polygon fill="#63b8ff" stroke="#63b8ff" points="470.86,-73.1 481.31,-74.83 474.22,-66.96 470.86,-73.1"/>
</a>
</g>
</g>
<!-- Node6 -->
<g id="Node000006" class="node">
<title>Node6</title>
<g id="a_Node000006"><a xlink:href="classhelios_1_1engine_1_1game_1_1GameObjectPool.html#a74c933b59081808944263a94a62240f9" target="_top" xlink:title="Constructs a new GameObjectPool.">
<polygon fill="white" stroke="#666666" points="192,-30 0,-30 0,0 192,0 192,-30"/>
<text text-anchor="start" x="8" y="-18" font-family="Helvetica,sans-Serif" font-size="10.00">helios::engine::game</text>
<text text-anchor="middle" x="96" y="-7" font-family="Helvetica,sans-Serif" font-size="10.00">::GameObjectPool::GameObjectPool</text>
</a>
</g>
</g>
<!-- Node5&#45;&gt;Node6 -->
<g id="edge5_Node000005_Node000006" class="edge">
<title>Node5&#45;&gt;Node6</title>
<g id="a_edge5_Node000005_Node000006"><a xlink:title=" ">
<path fill="none" stroke="#63b8ff" d="M232.11,-15C219.02,-15 205.41,-15 192.1,-15"/>
<polygon fill="#63b8ff" stroke="#63b8ff" points="232.49,-18.5 242.49,-15 232.49,-11.5 232.49,-18.5"/>
</a>
</g>
</g>
</g>
</svg>
