<?xml version="1.0" encoding="UTF-8" standalone="no"?>
<!DOCTYPE svg PUBLIC "-//W3C//DTD SVG 1.1//EN"
 "http://www.w3.org/Graphics/SVG/1.1/DTD/svg11.dtd">
<!-- Generated by graphviz version 2.43.0 (0)
 -->
<!-- Title: helios::engine::runtime::gameloop::Pass::addSystem Pages: 1 -->
<svg width="503pt" height="38pt"
 viewBox="0.00 0.00 503.00 38.00" xmlns="http://www.w3.org/2000/svg" xmlns:xlink="http://www.w3.org/1999/xlink">
<g id="graph0" class="graph" transform="scale(1 1) rotate(0) translate(4 34)">
<title>helios::engine::runtime::gameloop::Pass::addSystem</title>
<!-- Node1 -->
<g id="Node000001" class="node">
<title>Node1</title>
<g id="a_Node000001"><a xlink:title="Adds a system of type T to this pass.">
<polygon fill="#999999" stroke="#666666" points="160,-30 0,-30 0,0 160,0 160,-30"/>
<text text-anchor="start" x="8" y="-18" font-family="Helvetica,sans-Serif" font-size="10.00">helios::engine::runtime</text>
<text text-anchor="middle" x="80" y="-7" font-family="Helvetica,sans-Serif" font-size="10.00">::gameloop::Pass::addSystem</text>
</a>
</g>
</g>
<!-- Node2 -->
<g id="Node000002" class="node">
<title>Node2</title>
<g id="a_Node000002"><a xlink:href="classhelios_1_1engine_1_1runtime_1_1gameloop_1_1Pass.html#affec1ededbb34e40cd15db909e51283e" target="_top" xlink:title="Constructs a Pass with a reference to its owning Phase.">
<polygon fill="white" stroke="#666666" points="325,-30 196,-30 196,0 325,0 325,-30"/>
<text text-anchor="start" x="204" y="-18" font-family="Helvetica,sans-Serif" font-size="10.00">helios::engine::runtime</text>
<text text-anchor="middle" x="260.5" y="-7" font-family="Helvetica,sans-Serif" font-size="10.00">::gameloop::Pass::Pass</text>
</a>
</g>
</g>
<!-- Node1&#45;&gt;Node2 -->
<g id="edge1_Node000001_Node000002" class="edge">
<title>Node1&#45;&gt;Node2</title>
<g id="a_edge1_Node000001_Node000002"><a xlink:title=" ">
<path fill="none" stroke="#63b8ff" d="M160.07,-15C168.56,-15 177.17,-15 185.59,-15"/>
<polygon fill="#63b8ff" stroke="#63b8ff" points="185.75,-18.5 195.75,-15 185.75,-11.5 185.75,-18.5"/>
</a>
</g>
</g>
<!-- Node3 -->
<g id="Node000003" class="node">
<title>Node3</title>
<g id="a_Node000003"><a xlink:href="classhelios_1_1engine_1_1runtime_1_1gameloop_1_1Pass.html#af8f0775327faeea59ae852fc781d44bf" target="_top" xlink:title=" ">
<polygon fill="white" stroke="#666666" points="495,-30 361,-30 361,0 495,0 495,-30"/>
<text text-anchor="start" x="369" y="-18" font-family="Helvetica,sans-Serif" font-size="10.00">helios::engine::runtime</text>
<text text-anchor="middle" x="428" y="-7" font-family="Helvetica,sans-Serif" font-size="10.00">::gameloop::Pass::Phase</text>
</a>
</g>
</g>
<!-- Node2&#45;&gt;Node3 -->
<g id="edge2_Node000002_Node000003" class="edge">
<title>Node2&#45;&gt;Node3</title>
<g id="a_edge2_Node000002_Node000003"><a xlink:title=" ">
<path fill="none" stroke="#63b8ff" d="M325.01,-15C333.47,-15 342.2,-15 350.84,-15"/>
<polygon fill="#63b8ff" stroke="#63b8ff" points="350.91,-18.5 360.91,-15 350.91,-11.5 350.91,-18.5"/>
</a>
</g>
</g>
</g>
</svg>
