<?xml version="1.0" encoding="UTF-8" standalone="no"?>
<!DOCTYPE svg PUBLIC "-//W3C//DTD SVG 1.1//EN"
 "http://www.w3.org/Graphics/SVG/1.1/DTD/svg11.dtd">
<!-- Generated by graphviz version 2.43.0 (0)
 -->
<!-- Title: helios::engine::runtime::pooling::GameObjectPoolManager::pool Pages: 1 -->
<!--zoomable 216 -->

<svg id="main" version="1.1" xmlns="http://www.w3.org/2000/svg" xmlns:xlink="http://www.w3.org/1999/xlink" xml:space="preserve" onload="init(evt)">

<style type="text/css"><![CDATA[
.node, .edge {opacity: 0.7;}
.node.selected, .edge.selected {opacity: 1;}
.edge:hover path { stroke: red; }
.edge:hover polygon { stroke: red; fill: red; }
]]></style>

<defs>
  <circle id="rim" cx="0" cy="0" r="7"/>
  <circle id="rim2" cx="0" cy="0" r="3.5"/>
  <g id="zoomPlus">
    <use xlink:href="#rim" fill="#404040"><set attributeName="fill" to="#808080" begin="zoomplus.mouseover" end="zoomplus.mouseout"/></use>
    <path d="M-4,0h8M0,-4v8" fill="none" stroke="white" stroke-width="1.5" pointer-events="none"/>
  </g>
  <g id="zoomMin">
    <use xlink:href="#rim" fill="#404040"><set attributeName="fill" to="#808080" begin="zoomminus.mouseover" end="zoomminus.mouseout"/></use>
    <path d="M-4,0h8" fill="none" stroke="white" stroke-width="1.5" pointer-events="none"/>
  </g>
  <g id="arrowUp" transform="translate(30 24)">
    <use xlink:href="#rim"/>
    <path pointer-events="none" fill="none" stroke="white" stroke-width="1.5" d="M0,-3.0v7 M-2.5,-0.5L0,-3.0L2.5,-0.5"/>
  </g>
  <g id="arrowRight" transform="rotate(90) translate(36 -43)">
    <use xlink:href="#rim"/>
    <path pointer-events="none" fill="none" stroke="white" stroke-width="1.5" d="M0,-3.0v7 M-2.5,-0.5L0,-3.0L2.5,-0.5"/>
  </g>
  <g id="arrowDown" transform="rotate(180) translate(-30 -48)">
    <use xlink:href="#rim"/>
    <path pointer-events="none" fill="none" stroke="white" stroke-width="1.5" d="M0,-3.0v7 M-2.5,-0.5L0,-3.0L2.5,-0.5"/>
  </g>
  <g id="arrowLeft" transform="rotate(270) translate(-36 17)">
    <use xlink:href="#rim"/>
    <path pointer-events="none" fill="none" stroke="white" stroke-width="1.5" d="M0,-3.0v7 M-2.5,-0.5L0,-3.0L2.5,-0.5"/>
  </g>
  <g id="resetDef">
    <use xlink:href="#rim2" fill="#404040"><set attributeName="fill" to="#808080" begin="reset.mouseover" end="reset.mouseout"/></use>
  </g>
</defs>
<script type="application/ecmascript">
var viewWidth = 696;
var viewHeight = 216;
var sectionId = 'dynsection-4';
</script>
<script type="application/ecmascript" xlink:href="svg.min.js"/>
<svg id="graph" class="graph">
<g id="viewport">
<title>helios::engine::runtime::pooling::GameObjectPoolManager::pool</title>
<!-- Node1 -->
<g id="Node000001" class="node">
<title>Node1</title>
<g id="a_Node000001"><a xlink:title="Retrieves a pool by its ID.">
<polygon fill="#999999" stroke="#666666" points="688,-121.5 472,-121.5 472,-91.5 688,-91.5 688,-121.5"/>
<text text-anchor="start" x="480" y="-109.5" font-family="Helvetica,sans-Serif" font-size="10.00">helios::engine::runtime</text>
<text text-anchor="middle" x="580" y="-98.5" font-family="Helvetica,sans-Serif" font-size="10.00">::pooling::GameObjectPoolManager::pool</text>
</a>
</g>
</g>
<!-- Node2 -->
<g id="Node000002" class="node">
<title>Node2</title>
<g id="a_Node000002"><a xlink:href="classhelios_1_1engine_1_1runtime_1_1pooling_1_1GameObjectPoolManager.html#a965ef591bc25269837e5e95118cb52d2" target="_top" xlink:title="Acquires an inactive GameObject from the pool.">
<polygon fill="white" stroke="#666666" points="425,-208 236,-208 236,-167 425,-167 425,-208"/>
<text text-anchor="start" x="244" y="-196" font-family="Helvetica,sans-Serif" font-size="10.00">helios::engine::runtime</text>
<text text-anchor="start" x="244" y="-185" font-family="Helvetica,sans-Serif" font-size="10.00">::pooling::GameObjectPoolManager</text>
<text text-anchor="middle" x="330.5" y="-174" font-family="Helvetica,sans-Serif" font-size="10.00">::acquire</text>
</a>
</g>
</g>
<!-- Node1&#45;&gt;Node2 -->
<g id="edge1_Node000001_Node000002" class="edge">
<title>Node1&#45;&gt;Node2</title>
<g id="a_edge1_Node000001_Node000002"><a xlink:title=" ">
<path fill="none" stroke="#63b8ff" d="M529.13,-125.16C501.77,-135.17 467.18,-147.48 436,-157.5 426.12,-160.68 415.66,-163.87 405.32,-166.94"/>
<polygon fill="#63b8ff" stroke="#63b8ff" points="530.68,-128.32 538.86,-121.58 528.26,-121.75 530.68,-128.32"/>
</a>
</g>
</g>
<!-- Node3 -->
<g id="Node000003" class="node">
<title>Node3</title>
<g id="a_Node000003"><a xlink:href="classhelios_1_1engine_1_1runtime_1_1pooling_1_1GameObjectPoolManager.html#a7f5ef214b56eba5241a20de5d964eff2" target="_top" xlink:title="Initializes all registered pools.">
<polygon fill="white" stroke="#666666" points="436,-148.5 225,-148.5 225,-118.5 436,-118.5 436,-148.5"/>
<text text-anchor="start" x="233" y="-136.5" font-family="Helvetica,sans-Serif" font-size="10.00">helios::engine::runtime</text>
<text text-anchor="middle" x="330.5" y="-125.5" font-family="Helvetica,sans-Serif" font-size="10.00">::pooling::GameObjectPoolManager::init</text>
</a>
</g>
</g>
<!-- Node1&#45;&gt;Node3 -->
<g id="edge2_Node000001_Node000003" class="edge">
<title>Node1&#45;&gt;Node3</title>
<g id="a_edge2_Node000001_Node000003"><a xlink:title=" ">
<path fill="none" stroke="#63b8ff" d="M461.81,-119.28C453.21,-120.22 444.56,-121.17 436.04,-122.1"/>
<polygon fill="#63b8ff" stroke="#63b8ff" points="462.32,-122.75 471.88,-118.19 461.56,-115.79 462.32,-122.75"/>
</a>
</g>
</g>
<!-- Node4 -->
<g id="Node000004" class="node">
<title>Node4</title>
<g id="a_Node000004"><a xlink:href="classhelios_1_1engine_1_1runtime_1_1pooling_1_1GameObjectPoolManager.html#a8dd6b2a3a5252afb190ab22e0ddbc277" target="_top" xlink:title="Returns a snapshot of the pool&#39;s current state.">
<polygon fill="white" stroke="#666666" points="425,-100 236,-100 236,-59 425,-59 425,-100"/>
<text text-anchor="start" x="244" y="-88" font-family="Helvetica,sans-Serif" font-size="10.00">helios::engine::runtime</text>
<text text-anchor="start" x="244" y="-77" font-family="Helvetica,sans-Serif" font-size="10.00">::pooling::GameObjectPoolManager</text>
<text text-anchor="middle" x="330.5" y="-66" font-family="Helvetica,sans-Serif" font-size="10.00">::poolSnapshot</text>
</a>
</g>
</g>
<!-- Node1&#45;&gt;Node4 -->
<g id="edge3_Node000001_Node000004" class="edge">
<title>Node1&#45;&gt;Node4</title>
<g id="a_edge3_Node000001_Node000004"><a xlink:title=" ">
<path fill="none" stroke="#63b8ff" d="M461.64,-93.7C449.41,-92.36 437.1,-91.02 425.18,-89.72"/>
<polygon fill="#63b8ff" stroke="#63b8ff" points="461.56,-97.21 471.88,-94.81 462.32,-90.25 461.56,-97.21"/>
</a>
</g>
</g>
<!-- Node6 -->
<g id="Node000006" class="node">
<title>Node6</title>
<g id="a_Node000006"><a xlink:href="classhelios_1_1engine_1_1runtime_1_1pooling_1_1GameObjectPoolManager.html#a85c5d5ed93c6e22f4d09750273e77c73" target="_top" xlink:title="Releases a GameObject back to its pool.">
<polygon fill="white" stroke="#666666" points="425,-41 236,-41 236,0 425,0 425,-41"/>
<text text-anchor="start" x="244" y="-29" font-family="Helvetica,sans-Serif" font-size="10.00">helios::engine::runtime</text>
<text text-anchor="start" x="244" y="-18" font-family="Helvetica,sans-Serif" font-size="10.00">::pooling::GameObjectPoolManager</text>
<text text-anchor="middle" x="330.5" y="-7" font-family="Helvetica,sans-Serif" font-size="10.00">::release</text>
</a>
</g>
</g>
<!-- Node1&#45;&gt;Node6 -->
<g id="edge5_Node000001_Node000006" class="edge">
<title>Node1&#45;&gt;Node6</title>
<g id="a_edge5_Node000001_Node000006"><a xlink:title=" ">
<path fill="none" stroke="#63b8ff" d="M534.91,-87.49C506.88,-75.76 469.64,-60.84 436,-49.5 427.35,-46.58 418.22,-43.73 409.11,-41.02"/>
<polygon fill="#63b8ff" stroke="#63b8ff" points="533.85,-90.84 544.43,-91.49 536.57,-84.39 533.85,-90.84"/>
</a>
</g>
</g>
<!-- Node5 -->
<g id="Node000005" class="node">
<title>Node5</title>
<g id="a_Node000005"><a xlink:href="classhelios_1_1engine_1_1runtime_1_1spawn_1_1policy_1_1amount_1_1SpawnAll.html#a496fad85a648d7bc01515f613bf6b3cb" target="_top" xlink:title="Returns the number of inactive objects in the pool.">
<polygon fill="white" stroke="#666666" points="160.5,-100 28.5,-100 28.5,-59 160.5,-59 160.5,-100"/>
<text text-anchor="start" x="36.5" y="-88" font-family="Helvetica,sans-Serif" font-size="10.00">helios::engine::runtime</text>
<text text-anchor="start" x="36.5" y="-77" font-family="Helvetica,sans-Serif" font-size="10.00">::spawn::policy::amount</text>
<text text-anchor="middle" x="94.5" y="-66" font-family="Helvetica,sans-Serif" font-size="10.00">::SpawnAll::getAmount</text>
</a>
</g>
</g>
<!-- Node4&#45;&gt;Node5 -->
<g id="edge4_Node000004_Node000005" class="edge">
<title>Node4&#45;&gt;Node5</title>
<g id="a_edge4_Node000004_Node000005"><a xlink:title=" ">
<path fill="none" stroke="#63b8ff" d="M225.57,-79.5C203.47,-79.5 180.74,-79.5 160.59,-79.5"/>
<polygon fill="#63b8ff" stroke="#63b8ff" points="225.67,-83 235.67,-79.5 225.67,-76 225.67,-83"/>
</a>
</g>
</g>
<!-- Node7 -->
<g id="Node000007" class="node">
<title>Node7</title>
<g id="a_Node000007"><a xlink:href="classhelios_1_1engine_1_1runtime_1_1pooling_1_1GameObjectPoolManager.html#a1f3ad93fd926408196bca49a9707757e" target="_top" xlink:title="Resets all pools by releasing all active GameObjects.">
<polygon fill="white" stroke="#666666" points="189,-41 0,-41 0,0 189,0 189,-41"/>
<text text-anchor="start" x="8" y="-29" font-family="Helvetica,sans-Serif" font-size="10.00">helios::engine::runtime</text>
<text text-anchor="start" x="8" y="-18" font-family="Helvetica,sans-Serif" font-size="10.00">::pooling::GameObjectPoolManager</text>
<text text-anchor="middle" x="94.5" y="-7" font-family="Helvetica,sans-Serif" font-size="10.00">::reset</text>
</a>
</g>
</g>
<!-- Node6&#45;&gt;Node7 -->
<g id="edge6_Node000006_Node000007" class="edge">
<title>Node6&#45;&gt;Node7</title>
<g id="a_edge6_Node000006_Node000007"><a xlink:title=" ">
<path fill="none" stroke="#63b8ff" d="M225.59,-20.5C213.52,-20.5 201.27,-20.5 189.35,-20.5"/>
<polygon fill="#63b8ff" stroke="#63b8ff" points="225.67,-24 235.67,-20.5 225.67,-17 225.67,-24"/>
</a>
</g>
</g>
</g>
</svg>

<g id="navigator" transform="translate(0 0)" fill="#404254">
  <rect fill="#f2f5e9" fill-opacity="0.5" stroke="#606060" stroke-width=".5" x="0" y="0" width="60" height="60"/>
  <use id="zoomplus" xlink:href="#zoomPlus" x="17" y="9" onmousedown="handleZoom(evt,'in')"/>
  <use id="zoomminus" xlink:href="#zoomMin" x="42" y="9" onmousedown="handleZoom(evt,'out')"/>
  <use id="reset" xlink:href="#resetDef" x="30" y="36" onmousedown="handleReset()"/>
   <use id="arrowup" xlink:href="#arrowUp" x="0" y="0" onmousedown="handlePan(0,-1)"/>
  <use id="arrowright" xlink:href="#arrowRight" x="0" y="0" onmousedown="handlePan(1,0)"/>
  <use id="arrowdown" xlink:href="#arrowDown" x="0" y="0" onmousedown="handlePan(0,1)"/>
  <use id="arrowleft" xlink:href="#arrowLeft" x="0" y="0" onmousedown="handlePan(-1,0)"/>
</g>
<svg viewBox="0 0 15 15" width="100%" height="30px" preserveAspectRatio="xMaxYMin meet">
 <g id="arrow_out" transform="scale(0.3 0.3)">
  <a xlink:href="classhelios_1_1engine_1_1runtime_1_1pooling_1_1GameObjectPoolManager_a9cc0f690e30550d213698d06210f69a6_icgraph_org.svg" target="_base">
   <rect id="button" ry="5" rx="5" y="6" x="6" height="38" width="38"
        fill="#f2f5e9" fill-opacity="0.5" stroke="#606060" stroke-width="1.0"/>
   <path id="arrow"
     d="M 11.500037,31.436501 C 11.940474,20.09759 22.043105,11.32322 32.158766,21.979434 L 37.068811,17.246167 C 37.068811,17.246167 37.088388,32 37.088388,32 L 22.160133,31.978069 C 22.160133,31.978069 26.997745,27.140456 26.997745,27.140456 C 18.528582,18.264221 13.291696,25.230495 11.500037,31.436501 z"
     style="fill:#404040;"/>
  </a>
 </g>
</svg>

<style type='text/css'>
<![CDATA[
[data-mouse-over-selected='false'] { opacity: 0.7; }
[data-mouse-over-selected='true']  { opacity: 1.0; }
]]>
</style>
<script type="application/ecmascript"><![CDATA[
document.addEventListener('DOMContentLoaded', (event) => {
  highlightEdges();
  highlightAdjacentNodes();
});
]]></script>
</svg>
