<?xml version="1.0" encoding="UTF-8" standalone="no"?>
<!DOCTYPE svg PUBLIC "-//W3C//DTD SVG 1.1//EN"
 "http://www.w3.org/Graphics/SVG/1.1/DTD/svg11.dtd">
<!-- Generated by graphviz version 2.43.0 (0)
 -->
<!-- Title: helios::engine::runtime::gameloop::GameLoop Pages: 1 -->
<svg width="443pt" height="237pt"
 viewBox="0.00 0.00 443.00 237.00" xmlns="http://www.w3.org/2000/svg" xmlns:xlink="http://www.w3.org/1999/xlink">

<svg id="main" version="1.1" xmlns="http://www.w3.org/2000/svg" xmlns:xlink="http://www.w3.org/1999/xlink" xml:space="preserve">

<style type="text/css"><![CDATA[
.node, .edge {opacity: 0.7;}
.node.selected, .edge.selected {opacity: 1;}
.edge:hover path { stroke: red; }
.edge:hover polygon { stroke: red; fill: red; }
]]></style>
<script type="application/ecmascript" xlink:href="svg.min.js"/>
<svg id="graph" class="graph">
<g id="graph0" class="graph" transform="scale(1 1) rotate(0) translate(4 233)">
<title>helios::engine::runtime::gameloop::GameLoop</title>
<!-- Node1 -->
<g id="Node000001" class="node">
<title>Node1</title>
<g id="a_Node000001"><a xlink:title="Central orchestrator for the game update cycle.">
<polygon fill="#999999" stroke="#666666" points="435,-146 305,-146 305,-116 435,-116 435,-146"/>
<text text-anchor="start" x="313" y="-134" font-family="Helvetica,sans-Serif" font-size="10.00">helios::engine::runtime</text>
<text text-anchor="middle" x="370" y="-123" font-family="Helvetica,sans-Serif" font-size="10.00">::gameloop::GameLoop</text>
</a>
</g>
</g>
<!-- Node2 -->
<g id="Node000002" class="node">
<title>Node2</title>
<g id="a_Node000002"><a xlink:href="classhelios_1_1engine_1_1runtime_1_1gameloop_1_1PassCommitListener.html" target="_top" xlink:title="Interface for receiving notifications when a pass reaches its commit point.">
<polygon fill="white" stroke="#666666" points="179.5,-229 2.5,-229 2.5,-199 179.5,-199 179.5,-229"/>
<text text-anchor="start" x="10.5" y="-217" font-family="Helvetica,sans-Serif" font-size="10.00">helios::engine::runtime</text>
<text text-anchor="middle" x="91" y="-206" font-family="Helvetica,sans-Serif" font-size="10.00">::gameloop::PassCommitListener</text>
</a>
</g>
</g>
<!-- Node2&#45;&gt;Node1 -->
<g id="edge1_Node000001_Node000002" class="edge">
<title>Node2&#45;&gt;Node1</title>
<g id="a_edge1_Node000001_Node000002"><a xlink:title=" ">
<path fill="none" stroke="#63b8ff" d="M190,-200.24C221.51,-194.28 256.22,-186.06 287,-175 307.68,-167.57 329.53,-155.62 345.47,-146.04"/>
<polygon fill="#63b8ff" stroke="#63b8ff" points="189.09,-196.85 179.89,-202.09 190.36,-203.73 189.09,-196.85"/>
</a>
</g>
</g>
<!-- Node3 -->
<g id="Node000003" class="node">
<title>Node3</title>
<g id="a_Node000003"><a xlink:href="classhelios_1_1util_1_1log_1_1Logger.html" target="_top" xlink:title="Logger implementation with configurable output sinks.">
<polygon fill="white" stroke="#666666" points="138.5,-181 43.5,-181 43.5,-151 138.5,-151 138.5,-181"/>
<text text-anchor="start" x="51.5" y="-169" font-family="Helvetica,sans-Serif" font-size="10.00">helios::util::log::</text>
<text text-anchor="middle" x="91" y="-158" font-family="Helvetica,sans-Serif" font-size="10.00">Logger</text>
</a>
</g>
</g>
<!-- Node3&#45;&gt;Node1 -->
<g id="edge2_Node000001_Node000003" class="edge">
<title>Node3&#45;&gt;Node1</title>
<g id="a_edge2_Node000001_Node000003"><a xlink:title=" ">
<path fill="none" stroke="#9a32cd" stroke-dasharray="5,2" d="M148.66,-160.29C187.62,-156.19 240.51,-150.3 287,-144 292.71,-143.23 298.64,-142.38 304.58,-141.49"/>
<polygon fill="#9a32cd" stroke="#9a32cd" points="148.15,-156.82 138.56,-161.34 148.87,-163.78 148.15,-156.82"/>
</a>
</g>
<text text-anchor="start" x="225.5" y="-159.5" font-family="Helvetica,sans-Serif" font-size="10.00" fill="grey">logger_</text>
</g>
<!-- Node4 -->
<g id="Node000004" class="node">
<title>Node4</title>
<g id="a_Node000004"><a xlink:href="classhelios_1_1engine_1_1runtime_1_1gameloop_1_1Phase.html" target="_top" xlink:title="Represents a phase in the game loop containing multiple passes.">
<polygon fill="white" stroke="#666666" points="155.5,-111 26.5,-111 26.5,-81 155.5,-81 155.5,-111"/>
<text text-anchor="start" x="34.5" y="-99" font-family="Helvetica,sans-Serif" font-size="10.00">helios::engine::runtime</text>
<text text-anchor="middle" x="91" y="-88" font-family="Helvetica,sans-Serif" font-size="10.00">::gameloop::Phase</text>
</a>
</g>
</g>
<!-- Node4&#45;&gt;Node1 -->
<g id="edge3_Node000001_Node000004" class="edge">
<title>Node4&#45;&gt;Node1</title>
<g id="a_edge3_Node000001_Node000004"><a xlink:title=" ">
<path fill="none" stroke="#9a32cd" stroke-dasharray="5,2" d="M165.7,-86.91C202.54,-84.36 247.56,-84.31 287,-93 307.07,-97.42 328.07,-107.27 343.8,-115.83"/>
<polygon fill="#9a32cd" stroke="#9a32cd" points="165.24,-83.43 155.53,-87.69 165.77,-90.41 165.24,-83.43"/>
</a>
</g>
<text text-anchor="start" x="213.5" y="-128.5" font-family="Helvetica,sans-Serif" font-size="10.00" fill="grey">mainPhase_</text>
<text text-anchor="start" x="213.5" y="-113.5" font-family="Helvetica,sans-Serif" font-size="10.00" fill="grey">postPhase_</text>
<text text-anchor="start" x="213.5" y="-98.5" font-family="Helvetica,sans-Serif" font-size="10.00" fill="grey">prePhase_</text>
</g>
<!-- Node5 -->
<g id="Node000005" class="node">
<title>Node5</title>
<g id="a_Node000005"><a xlink:href="classhelios_1_1core_1_1container_1_1buffer_1_1TypeIndexedDoubleBuffer.html" target="_top" xlink:title=" ">
<polygon fill="white" stroke="#666666" points="182,-52 0,-52 0,0 182,0 182,-52"/>
<text text-anchor="start" x="8" y="-40" font-family="Helvetica,sans-Serif" font-size="10.00">helios::core::container</text>
<text text-anchor="start" x="8" y="-29" font-family="Helvetica,sans-Serif" font-size="10.00">::buffer::TypeIndexedDoubleBuffer</text>
<text text-anchor="start" x="8" y="-18" font-family="Helvetica,sans-Serif" font-size="10.00">&lt; helios::core::data::TypeIndexer</text>
<text text-anchor="middle" x="91" y="-7" font-family="Helvetica,sans-Serif" font-size="10.00">&lt; GameLoopEventBusGroup &gt; &gt;</text>
</a>
</g>
</g>
<!-- Node5&#45;&gt;Node1 -->
<g id="edge4_Node000001_Node000005" class="edge">
<title>Node5&#45;&gt;Node1</title>
<g id="a_edge4_Node000001_Node000005"><a xlink:title=" ">
<path fill="none" stroke="#9a32cd" stroke-dasharray="5,2" d="M192.32,-14.73C223.96,-15.13 258.16,-19.89 287,-34 323.05,-51.64 349.29,-93.22 361.44,-115.79"/>
<polygon fill="#9a32cd" stroke="#9a32cd" points="192.14,-11.23 182.14,-14.75 192.15,-18.23 192.14,-11.23"/>
</a>
</g>
<text text-anchor="start" x="203.5" y="-69.5" font-family="Helvetica,sans-Serif" font-size="10.00" fill="grey">frameEventBus_</text>
<text text-anchor="start" x="203.5" y="-54.5" font-family="Helvetica,sans-Serif" font-size="10.00" fill="grey">passEventBus_</text>
<text text-anchor="start" x="203.5" y="-39.5" font-family="Helvetica,sans-Serif" font-size="10.00" fill="grey">phaseEventBus_</text>
</g>
</g>
</svg>
</svg>

<style type='text/css'>
<![CDATA[
[data-mouse-over-selected='false'] { opacity: 0.7; }
[data-mouse-over-selected='true']  { opacity: 1.0; }
]]>
</style>
<script type="application/ecmascript"><![CDATA[
document.addEventListener('DOMContentLoaded', (event) => {
  highlightEdges();
  highlightAdjacentNodes();
});
]]></script>
</svg>
