<?xml version="1.0" encoding="UTF-8" standalone="no"?>
<!DOCTYPE svg PUBLIC "-//W3C//DTD SVG 1.1//EN"
 "http://www.w3.org/Graphics/SVG/1.1/DTD/svg11.dtd">
<!-- Generated by graphviz version 2.43.0 (0)
 -->
<!-- Title: helios::engine::ecs::System Pages: 1 -->
<svg width="358pt" height="204pt"
 viewBox="0.00 0.00 357.50 204.00" xmlns="http://www.w3.org/2000/svg" xmlns:xlink="http://www.w3.org/1999/xlink">
<g id="graph0" class="graph" transform="scale(1 1) rotate(0) translate(4 200)">
<title>helios::engine::ecs::System</title>
<!-- Node1 -->
<g id="Node000001" class="node">
<title>Node1</title>
<g id="a_Node000001"><a xlink:title="Abstract base class for game systems.">
<polygon fill="#999999" stroke="#666666" points="149,-30 42,-30 42,0 149,0 149,-30"/>
<text text-anchor="start" x="50" y="-18" font-family="Helvetica,sans-Serif" font-size="10.00">helios::engine::ecs</text>
<text text-anchor="middle" x="95.5" y="-7" font-family="Helvetica,sans-Serif" font-size="10.00">::System</text>
</a>
</g>
</g>
<!-- Node2 -->
<g id="Node000002" class="node">
<title>Node2</title>
<g id="a_Node000002"><a xlink:href="classhelios_1_1engine_1_1ecs_1_1Updatable.html" target="_top" xlink:title="Interface for components that require per&#45;frame updates.">
<polygon fill="white" stroke="#666666" points="107,-113 0,-113 0,-83 107,-83 107,-113"/>
<text text-anchor="start" x="8" y="-101" font-family="Helvetica,sans-Serif" font-size="10.00">helios::engine::ecs</text>
<text text-anchor="middle" x="53.5" y="-90" font-family="Helvetica,sans-Serif" font-size="10.00">::Updatable</text>
</a>
</g>
</g>
<!-- Node2&#45;&gt;Node1 -->
<g id="edge1_Node000001_Node000002" class="edge">
<title>Node2&#45;&gt;Node1</title>
<g id="a_edge1_Node000001_Node000002"><a xlink:title=" ">
<path fill="none" stroke="#63b8ff" d="M65.52,-73.81C72.81,-59.75 81.88,-42.26 88.13,-30.22"/>
<polygon fill="#63b8ff" stroke="#63b8ff" points="62.31,-72.4 60.82,-82.89 68.53,-75.62 62.31,-72.4"/>
</a>
</g>
</g>
<!-- Node3 -->
<g id="Node000003" class="node">
<title>Node3</title>
<g id="a_Node000003"><a xlink:href="classhelios_1_1engine_1_1runtime_1_1world_1_1GameWorld.html" target="_top" xlink:title="Central registry for game entities, managers, pools, and the active level.">
<polygon fill="white" stroke="#666666" points="254,-113 125,-113 125,-83 254,-83 254,-113"/>
<text text-anchor="start" x="133" y="-101" font-family="Helvetica,sans-Serif" font-size="10.00">helios::engine::runtime</text>
<text text-anchor="middle" x="189.5" y="-90" font-family="Helvetica,sans-Serif" font-size="10.00">::world::GameWorld</text>
</a>
</g>
</g>
<!-- Node3&#45;&gt;Node1 -->
<g id="edge2_Node000001_Node000003" class="edge">
<title>Node3&#45;&gt;Node1</title>
<g id="a_edge2_Node000001_Node000003"><a xlink:title=" ">
<path fill="none" stroke="#9a32cd" stroke-dasharray="5,2" d="M165.37,-76.21C148.64,-61.79 126.78,-42.95 112,-30.22"/>
<polygon fill="#9a32cd" stroke="#9a32cd" points="163.27,-79.01 173.13,-82.89 167.84,-73.71 163.27,-79.01"/>
</a>
</g>
<text text-anchor="start" x="154" y="-53.5" font-family="Helvetica,sans-Serif" font-size="10.00" fill="grey">gameWorld_</text>
</g>
<!-- Node4 -->
<g id="Node000004" class="node">
<title>Node4</title>
<g id="a_Node000004"><a xlink:href="classhelios_1_1util_1_1log_1_1Logger.html" target="_top" xlink:title="Logger implementation with configurable output sinks.">
<polygon fill="white" stroke="#666666" points="162,-196 67,-196 67,-166 162,-166 162,-196"/>
<text text-anchor="start" x="75" y="-184" font-family="Helvetica,sans-Serif" font-size="10.00">helios::util::log::</text>
<text text-anchor="middle" x="114.5" y="-173" font-family="Helvetica,sans-Serif" font-size="10.00">Logger</text>
</a>
</g>
</g>
<!-- Node4&#45;&gt;Node3 -->
<g id="edge3_Node000003_Node000004" class="edge">
<title>Node4&#45;&gt;Node3</title>
<g id="a_edge3_Node000003_Node000004"><a xlink:title=" ">
<path fill="none" stroke="#9a32cd" stroke-dasharray="5,2" d="M134.48,-158.42C147.74,-144.1 164.76,-125.72 176.33,-113.22"/>
<polygon fill="#9a32cd" stroke="#9a32cd" points="131.79,-156.18 127.56,-165.89 136.93,-160.93 131.79,-156.18"/>
</a>
</g>
<text text-anchor="start" x="162" y="-136.5" font-family="Helvetica,sans-Serif" font-size="10.00" fill="grey">logger_</text>
</g>
<!-- Node5 -->
<g id="Node000005" class="node">
<title>Node5</title>
<g id="a_Node000005"><a xlink:href="classhelios_1_1engine_1_1runtime_1_1pooling_1_1PoolManagerRegistry.html" target="_top" xlink:title="Registry that maps SpawnProfileIds to their SpawnRequestHandlers.">
<polygon fill="white" stroke="#666666" points="349,-196 180,-196 180,-166 349,-166 349,-196"/>
<text text-anchor="start" x="188" y="-184" font-family="Helvetica,sans-Serif" font-size="10.00">helios::engine::runtime</text>
<text text-anchor="middle" x="264.5" y="-173" font-family="Helvetica,sans-Serif" font-size="10.00">::pooling::PoolManagerRegistry</text>
</a>
</g>
</g>
<!-- Node5&#45;&gt;Node3 -->
<g id="edge4_Node000003_Node000005" class="edge">
<title>Node5&#45;&gt;Node3</title>
<g id="a_edge4_Node000003_Node000005"><a xlink:title=" ">
<path fill="none" stroke="#9a32cd" stroke-dasharray="5,2" d="M244.52,-158.42C231.26,-144.1 214.24,-125.72 202.67,-113.22"/>
<polygon fill="#9a32cd" stroke="#9a32cd" points="242.07,-160.93 251.44,-165.89 247.21,-156.18 242.07,-160.93"/>
</a>
</g>
<text text-anchor="start" x="236.5" y="-136.5" font-family="Helvetica,sans-Serif" font-size="10.00" fill="grey">poolManagerRegistry_</text>
</g>
</g>
</svg>
