<?xml version="1.0" encoding="UTF-8" standalone="no"?>
<!DOCTYPE svg PUBLIC "-//W3C//DTD SVG 1.1//EN"
 "http://www.w3.org/Graphics/SVG/1.1/DTD/svg11.dtd">
<!-- Generated by graphviz version 2.43.0 (0)
 -->
<!-- Title: helios::scene::SceneNode::SceneNode Pages: 1 -->
<svg width="565pt" height="674pt"
 viewBox="0.00 0.00 565.00 674.00" xmlns="http://www.w3.org/2000/svg" xmlns:xlink="http://www.w3.org/1999/xlink">
<g id="graph0" class="graph" transform="scale(1 1) rotate(0) translate(4 670)">
<title>helios::scene::SceneNode::SceneNode</title>
<!-- Node1 -->
<g id="Node000001" class="node">
<title>Node1</title>
<g id="a_Node000001"><a xlink:title="Delete copy constructor. A SceneNode is not copyable.">
<polygon fill="#999999" stroke="#666666" points="557,-348 416,-348 416,-318 557,-318 557,-348"/>
<text text-anchor="start" x="424" y="-336" font-family="Helvetica,sans-Serif" font-size="10.00">helios::scene::SceneNode</text>
<text text-anchor="middle" x="486.5" y="-325" font-family="Helvetica,sans-Serif" font-size="10.00">::SceneNode</text>
</a>
</g>
</g>
<!-- Node1&#45;&gt;Node1 -->
<g id="edge10_Node000001_Node000001" class="edge">
<title>Node1&#45;&gt;Node1</title>
<g id="a_edge10_Node000001_Node000001"><a xlink:title=" ">
<path fill="none" stroke="#63b8ff" d="M518.36,-358.6C514,-362.97 503.38,-366 486.5,-366 458.06,-366 447.4,-357.41 454.51,-348.28"/>
<polygon fill="#63b8ff" stroke="#63b8ff" points="521.86,-358.32 518.49,-348.28 514.86,-358.23 521.86,-358.32"/>
</a>
</g>
</g>
<!-- Node2 -->
<g id="Node000002" class="node">
<title>Node2</title>
<g id="a_Node000002"><a xlink:href="classhelios_1_1scene_1_1CameraSceneNode.html#a58b5b9c583ddf40dcc81793c19fc0c79" target="_top" xlink:title="Prevents adding child nodes to a camera scene node.">
<polygon fill="white" stroke="#666666" points="380,-666 226,-666 226,-636 380,-636 380,-666"/>
<text text-anchor="start" x="234" y="-654" font-family="Helvetica,sans-Serif" font-size="10.00">helios::scene::CameraScene</text>
<text text-anchor="middle" x="303" y="-643" font-family="Helvetica,sans-Serif" font-size="10.00">Node::addNode</text>
</a>
</g>
</g>
<!-- Node1&#45;&gt;Node2 -->
<g id="edge1_Node000001_Node000002" class="edge">
<title>Node1&#45;&gt;Node2</title>
<g id="a_edge1_Node000001_Node000002"><a xlink:title=" ">
<path fill="none" stroke="#63b8ff" d="M483.76,-358.52C478.52,-415.09 458.04,-551.92 380,-627 376.41,-630.45 372.33,-633.41 367.96,-635.94"/>
<polygon fill="#63b8ff" stroke="#63b8ff" points="487.27,-358.58 484.62,-348.32 480.29,-357.99 487.27,-358.58"/>
</a>
</g>
</g>
<!-- Node3 -->
<g id="Node000003" class="node">
<title>Node3</title>
<g id="a_Node000003"><a xlink:href="classhelios_1_1scene_1_1SceneNode.html#a639af371377e5279a7e644da2af05e5a" target="_top" xlink:title="Adds a new child node to this SceneNode. The node&#39;s parent is automatically set to **this** node.">
<polygon fill="white" stroke="#666666" points="373.5,-600 232.5,-600 232.5,-570 373.5,-570 373.5,-600"/>
<text text-anchor="start" x="240.5" y="-588" font-family="Helvetica,sans-Serif" font-size="10.00">helios::scene::SceneNode</text>
<text text-anchor="middle" x="303" y="-577" font-family="Helvetica,sans-Serif" font-size="10.00">::addNode</text>
</a>
</g>
</g>
<!-- Node1&#45;&gt;Node3 -->
<g id="edge2_Node000001_Node000003" class="edge">
<title>Node1&#45;&gt;Node3</title>
<g id="a_edge2_Node000001_Node000003"><a xlink:title=" ">
<path fill="none" stroke="#63b8ff" d="M480.88,-357.88C470.92,-404.56 443.03,-505.53 380,-561 376.05,-564.47 371.6,-567.44 366.89,-569.99"/>
<polygon fill="#63b8ff" stroke="#63b8ff" points="484.33,-358.51 482.89,-348.01 477.47,-357.11 484.33,-358.51"/>
</a>
</g>
</g>
<!-- Node4 -->
<g id="Node000004" class="node">
<title>Node4</title>
<g id="a_Node000004"><a xlink:href="classhelios_1_1scene_1_1SceneNode.html#a345af64a75ad370d482051006658c81e" target="_top" xlink:title="Returns a const ref to the list of this node&#39;s children.">
<polygon fill="white" stroke="#666666" points="373.5,-534 232.5,-534 232.5,-504 373.5,-504 373.5,-534"/>
<text text-anchor="start" x="240.5" y="-522" font-family="Helvetica,sans-Serif" font-size="10.00">helios::scene::SceneNode</text>
<text text-anchor="middle" x="303" y="-511" font-family="Helvetica,sans-Serif" font-size="10.00">::children</text>
</a>
</g>
</g>
<!-- Node1&#45;&gt;Node4 -->
<g id="edge4_Node000001_Node000004" class="edge">
<title>Node1&#45;&gt;Node4</title>
<g id="a_edge4_Node000001_Node000004"><a xlink:title=" ">
<path fill="none" stroke="#63b8ff" d="M475.67,-358.11C460.47,-393.72 427.92,-458.59 380,-495 375.48,-498.43 370.46,-501.38 365.22,-503.91"/>
<polygon fill="#63b8ff" stroke="#63b8ff" points="479.07,-359.05 479.66,-348.47 472.6,-356.37 479.07,-359.05"/>
</a>
</g>
</g>
<!-- Node5 -->
<g id="Node000005" class="node">
<title>Node5</title>
<g id="a_Node000005"><a xlink:href="classhelios_1_1scene_1_1SceneNode.html#a7cc7b1c8b3b57927c9d33abd8f652964" target="_top" xlink:title="Delete copy assignment operator.">
<polygon fill="white" stroke="#666666" points="373.5,-486 232.5,-486 232.5,-456 373.5,-456 373.5,-486"/>
<text text-anchor="start" x="240.5" y="-474" font-family="Helvetica,sans-Serif" font-size="10.00">helios::scene::SceneNode</text>
<text text-anchor="middle" x="303" y="-463" font-family="Helvetica,sans-Serif" font-size="10.00">::operator=</text>
</a>
</g>
</g>
<!-- Node1&#45;&gt;Node5 -->
<g id="edge6_Node000001_Node000005" class="edge">
<title>Node1&#45;&gt;Node5</title>
<g id="a_edge6_Node000001_Node000005"><a xlink:title=" ">
<path fill="none" stroke="#63b8ff" d="M469.4,-356.71C450.74,-382.47 417.69,-423.11 380,-447 374.62,-450.41 368.73,-453.37 362.67,-455.93"/>
<polygon fill="#63b8ff" stroke="#63b8ff" points="472.45,-358.46 475.38,-348.28 466.74,-354.41 472.45,-358.46"/>
</a>
</g>
</g>
<!-- Node6 -->
<g id="Node000006" class="node">
<title>Node6</title>
<g id="a_Node000006"><a xlink:href="classhelios_1_1scene_1_1SceneNode.html#a4e31b52717a76a9bae9a80a1db0b808b" target="_top" xlink:title="Returns a pointer to this node&#39;s parent node.">
<polygon fill="white" stroke="#666666" points="373.5,-420 232.5,-420 232.5,-390 373.5,-390 373.5,-420"/>
<text text-anchor="start" x="240.5" y="-408" font-family="Helvetica,sans-Serif" font-size="10.00">helios::scene::SceneNode</text>
<text text-anchor="middle" x="303" y="-397" font-family="Helvetica,sans-Serif" font-size="10.00">::parent</text>
</a>
</g>
</g>
<!-- Node1&#45;&gt;Node6 -->
<g id="edge7_Node000001_Node000006" class="edge">
<title>Node1&#45;&gt;Node6</title>
<g id="a_edge7_Node000001_Node000006"><a xlink:title=" ">
<path fill="none" stroke="#63b8ff" d="M445.77,-352.45C426.21,-361.68 402.12,-372.51 380,-381 371.86,-384.12 363.13,-387.16 354.58,-389.97"/>
<polygon fill="#63b8ff" stroke="#63b8ff" points="447.46,-355.53 454.99,-348.07 444.45,-349.2 447.46,-355.53"/>
</a>
</g>
</g>
<!-- Node8 -->
<g id="Node000008" class="node">
<title>Node8</title>
<g id="a_Node000008"><a xlink:href="classhelios_1_1scene_1_1SceneNode.html#a1a7a726c994dd5b29a0719f45845ccb0" target="_top" xlink:title="Constructs a new SceneNode that represents no renderable object. Nodes constructed in this way should...">
<polygon fill="white" stroke="#666666" points="373.5,-372 232.5,-372 232.5,-342 373.5,-342 373.5,-372"/>
<text text-anchor="start" x="240.5" y="-360" font-family="Helvetica,sans-Serif" font-size="10.00">helios::scene::SceneNode</text>
<text text-anchor="middle" x="303" y="-349" font-family="Helvetica,sans-Serif" font-size="10.00">::SceneNode</text>
</a>
</g>
</g>
<!-- Node1&#45;&gt;Node8 -->
<g id="edge11_Node000001_Node000008" class="edge">
<title>Node1&#45;&gt;Node8</title>
<g id="a_edge11_Node000001_Node000008"><a xlink:title=" ">
<path fill="none" stroke="#63b8ff" d="M405.72,-343.55C395.08,-344.96 384.22,-346.39 373.77,-347.77"/>
<polygon fill="#63b8ff" stroke="#63b8ff" points="406.39,-346.99 415.85,-342.21 405.47,-340.05 406.39,-346.99"/>
</a>
</g>
</g>
<!-- Node9 -->
<g id="Node000009" class="node">
<title>Node9</title>
<g id="a_Node000009"><a xlink:href="classhelios_1_1scene_1_1SceneNode.html#af2af3ad7c17ecf2a693724deed12ce02" target="_top" xlink:title="Constructs a new SceneNode representing a renderable object.">
<polygon fill="white" stroke="#666666" points="373.5,-324 232.5,-324 232.5,-294 373.5,-294 373.5,-324"/>
<text text-anchor="start" x="240.5" y="-312" font-family="Helvetica,sans-Serif" font-size="10.00">helios::scene::SceneNode</text>
<text text-anchor="middle" x="303" y="-301" font-family="Helvetica,sans-Serif" font-size="10.00">::SceneNode</text>
</a>
</g>
</g>
<!-- Node1&#45;&gt;Node9 -->
<g id="edge12_Node000001_Node000009" class="edge">
<title>Node1&#45;&gt;Node9</title>
<g id="a_edge12_Node000001_Node000009"><a xlink:title=" ">
<path fill="none" stroke="#63b8ff" d="M405.72,-322.45C395.08,-321.04 384.22,-319.61 373.77,-318.23"/>
<polygon fill="#63b8ff" stroke="#63b8ff" points="405.47,-325.95 415.85,-323.79 406.39,-319.01 405.47,-325.95"/>
</a>
</g>
</g>
<!-- Node10 -->
<g id="Node000010" class="node">
<title>Node10</title>
<g id="a_Node000010"><a xlink:href="classhelios_1_1scene_1_1SceneNode.html#ac391d6973219428d9048caffe721cfb1" target="_top" xlink:title="Constructs a new SceneNode representing a renderable object.">
<polygon fill="white" stroke="#666666" points="373.5,-276 232.5,-276 232.5,-246 373.5,-246 373.5,-276"/>
<text text-anchor="start" x="240.5" y="-264" font-family="Helvetica,sans-Serif" font-size="10.00">helios::scene::SceneNode</text>
<text text-anchor="middle" x="303" y="-253" font-family="Helvetica,sans-Serif" font-size="10.00">::SceneNode</text>
</a>
</g>
</g>
<!-- Node1&#45;&gt;Node10 -->
<g id="edge13_Node000001_Node000010" class="edge">
<title>Node1&#45;&gt;Node10</title>
<g id="a_edge13_Node000001_Node000010"><a xlink:title=" ">
<path fill="none" stroke="#63b8ff" d="M445.77,-313.55C426.21,-304.32 402.12,-293.49 380,-285 371.86,-281.88 363.13,-278.84 354.58,-276.03"/>
<polygon fill="#63b8ff" stroke="#63b8ff" points="444.45,-316.8 454.99,-317.93 447.46,-310.47 444.45,-316.8"/>
</a>
</g>
</g>
<!-- Node11 -->
<g id="Node000011" class="node">
<title>Node11</title>
<g id="a_Node000011"><a xlink:href="classhelios_1_1scene_1_1SceneNode.html#a8e150f0c631aa964846dc20cd627b538" target="_top" xlink:title="Sets the parent of this SceneNode. Internally used once a child was added to this SceneNode.">
<polygon fill="white" stroke="#666666" points="373.5,-228 232.5,-228 232.5,-198 373.5,-198 373.5,-228"/>
<text text-anchor="start" x="240.5" y="-216" font-family="Helvetica,sans-Serif" font-size="10.00">helios::scene::SceneNode</text>
<text text-anchor="middle" x="303" y="-205" font-family="Helvetica,sans-Serif" font-size="10.00">::setParent</text>
</a>
</g>
</g>
<!-- Node1&#45;&gt;Node11 -->
<g id="edge14_Node000001_Node000011" class="edge">
<title>Node1&#45;&gt;Node11</title>
<g id="a_edge14_Node000001_Node000011"><a xlink:title=" ">
<path fill="none" stroke="#63b8ff" d="M465.8,-310.08C446.09,-288.44 413.88,-256.49 380,-237 374.12,-233.62 367.71,-230.65 361.19,-228.07"/>
<polygon fill="#63b8ff" stroke="#63b8ff" points="463.45,-312.7 472.73,-317.82 468.67,-308.03 463.45,-312.7"/>
</a>
</g>
</g>
<!-- Node12 -->
<g id="Node000012" class="node">
<title>Node12</title>
<g id="a_Node000012"><a xlink:href="classhelios_1_1scene_1_1SceneNode.html#acac79a13bb5bb933c3f9c230a98d3daf" target="_top" xlink:title="Applies rotation to this node&#39;s **local** transform. Marks the node dirty. Implementing APIs should c...">
<polygon fill="white" stroke="#666666" points="373.5,-162 232.5,-162 232.5,-132 373.5,-132 373.5,-162"/>
<text text-anchor="start" x="240.5" y="-150" font-family="Helvetica,sans-Serif" font-size="10.00">helios::scene::SceneNode</text>
<text text-anchor="middle" x="303" y="-139" font-family="Helvetica,sans-Serif" font-size="10.00">::setRotation</text>
</a>
</g>
</g>
<!-- Node1&#45;&gt;Node12 -->
<g id="edge15_Node000001_Node000012" class="edge">
<title>Node1&#45;&gt;Node12</title>
<g id="a_edge15_Node000001_Node000012"><a xlink:title=" ">
<path fill="none" stroke="#63b8ff" d="M472.42,-309.11C454.67,-278.35 420.48,-224.63 380,-189 367.78,-178.24 352.34,-169.09 338.58,-162.1"/>
<polygon fill="#63b8ff" stroke="#63b8ff" points="469.41,-310.9 477.39,-317.87 475.5,-307.45 469.41,-310.9"/>
</a>
</g>
</g>
<!-- Node13 -->
<g id="Node000013" class="node">
<title>Node13</title>
<g id="a_Node000013"><a xlink:href="classhelios_1_1scene_1_1SceneNode.html#aa61104006dc48bc2a57dbe6fc6cbcb5b" target="_top" xlink:title="Applies a scaling transformation to this node&#39;s **local** transform. Marks the node dirty....">
<polygon fill="white" stroke="#666666" points="373.5,-96 232.5,-96 232.5,-66 373.5,-66 373.5,-96"/>
<text text-anchor="start" x="240.5" y="-84" font-family="Helvetica,sans-Serif" font-size="10.00">helios::scene::SceneNode</text>
<text text-anchor="middle" x="303" y="-73" font-family="Helvetica,sans-Serif" font-size="10.00">::setScale</text>
</a>
</g>
</g>
<!-- Node1&#45;&gt;Node13 -->
<g id="edge17_Node000001_Node000013" class="edge">
<title>Node1&#45;&gt;Node13</title>
<g id="a_edge17_Node000001_Node000013"><a xlink:title=" ">
<path fill="none" stroke="#63b8ff" d="M478.39,-308.17C465.16,-265.69 433.18,-178.31 380,-123 369.24,-111.81 354.83,-102.82 341.46,-96.08"/>
<polygon fill="#63b8ff" stroke="#63b8ff" points="475.1,-309.4 481.35,-317.95 481.8,-307.37 475.1,-309.4"/>
</a>
</g>
</g>
<!-- Node14 -->
<g id="Node000014" class="node">
<title>Node14</title>
<g id="a_Node000014"><a xlink:href="classhelios_1_1scene_1_1SceneNode.html#a1f08f342381c9ad0f2d5d8b88c450229" target="_top" xlink:title="Applies translation to this node&#39;s **local** transform. Marks the node dirty. Implementing APIs shoul...">
<polygon fill="white" stroke="#666666" points="373.5,-30 232.5,-30 232.5,0 373.5,0 373.5,-30"/>
<text text-anchor="start" x="240.5" y="-18" font-family="Helvetica,sans-Serif" font-size="10.00">helios::scene::SceneNode</text>
<text text-anchor="middle" x="303" y="-7" font-family="Helvetica,sans-Serif" font-size="10.00">::setTranslation</text>
</a>
</g>
</g>
<!-- Node1&#45;&gt;Node14 -->
<g id="edge19_Node000001_Node000014" class="edge">
<title>Node1&#45;&gt;Node14</title>
<g id="a_edge19_Node000001_Node000014"><a xlink:title=" ">
<path fill="none" stroke="#63b8ff" d="M481.83,-307.92C473.03,-255.58 446.29,-133.27 380,-57 370.11,-45.62 356.35,-36.72 343.25,-30.11"/>
<polygon fill="#63b8ff" stroke="#63b8ff" points="478.41,-308.67 483.45,-317.99 485.32,-307.56 478.41,-308.67"/>
</a>
</g>
</g>
<!-- Node3&#45;&gt;Node3 -->
<g id="edge3_Node000003_Node000003" class="edge">
<title>Node3&#45;&gt;Node3</title>
<g id="a_edge3_Node000003_Node000003"><a xlink:title=" ">
<path fill="none" stroke="#63b8ff" d="M334.86,-610.6C330.5,-614.97 319.88,-618 303,-618 274.56,-618 263.9,-609.41 271.01,-600.28"/>
<polygon fill="#63b8ff" stroke="#63b8ff" points="338.36,-610.32 334.99,-600.28 331.36,-610.23 338.36,-610.32"/>
</a>
</g>
</g>
<!-- Node4&#45;&gt;Node4 -->
<g id="edge5_Node000004_Node000004" class="edge">
<title>Node4&#45;&gt;Node4</title>
<g id="a_edge5_Node000004_Node000004"><a xlink:title=" ">
<path fill="none" stroke="#63b8ff" d="M334.86,-544.6C330.5,-548.97 319.88,-552 303,-552 274.56,-552 263.9,-543.41 271.01,-534.28"/>
<polygon fill="#63b8ff" stroke="#63b8ff" points="338.36,-544.32 334.99,-534.28 331.36,-544.23 338.36,-544.32"/>
</a>
</g>
</g>
<!-- Node6&#45;&gt;Node6 -->
<g id="edge8_Node000006_Node000006" class="edge">
<title>Node6&#45;&gt;Node6</title>
<g id="a_edge8_Node000006_Node000006"><a xlink:title=" ">
<path fill="none" stroke="#63b8ff" d="M334.86,-430.6C330.5,-434.97 319.88,-438 303,-438 274.56,-438 263.9,-429.41 271.01,-420.28"/>
<polygon fill="#63b8ff" stroke="#63b8ff" points="338.36,-430.32 334.99,-420.28 331.36,-430.23 338.36,-430.32"/>
</a>
</g>
</g>
<!-- Node7 -->
<g id="Node000007" class="node">
<title>Node7</title>
<g id="a_Node000007"><a xlink:href="classhelios_1_1engine_1_1modules_1_1scene_1_1components_1_1SceneNodeComponent.html#aa700d35d1fbf5bb920fada8003a4184a" target="_top" xlink:title=" ">
<polygon fill="white" stroke="#666666" points="190,-425.5 0,-425.5 0,-384.5 190,-384.5 190,-425.5"/>
<text text-anchor="start" x="8" y="-413.5" font-family="Helvetica,sans-Serif" font-size="10.00">helios::engine::modules</text>
<text text-anchor="start" x="8" y="-402.5" font-family="Helvetica,sans-Serif" font-size="10.00">::scene::components::SceneNode</text>
<text text-anchor="middle" x="95" y="-391.5" font-family="Helvetica,sans-Serif" font-size="10.00">Component::SceneNodeComponent</text>
</a>
</g>
</g>
<!-- Node6&#45;&gt;Node7 -->
<g id="edge9_Node000006_Node000007" class="edge">
<title>Node6&#45;&gt;Node7</title>
<g id="a_edge9_Node000006_Node000007"><a xlink:title=" ">
<path fill="none" stroke="#63b8ff" d="M221.96,-405C211.53,-405 200.78,-405 190.15,-405"/>
<polygon fill="#63b8ff" stroke="#63b8ff" points="222.26,-408.5 232.26,-405 222.26,-401.5 222.26,-408.5"/>
</a>
</g>
</g>
<!-- Node12&#45;&gt;Node12 -->
<g id="edge16_Node000012_Node000012" class="edge">
<title>Node12&#45;&gt;Node12</title>
<g id="a_edge16_Node000012_Node000012"><a xlink:title=" ">
<path fill="none" stroke="#63b8ff" d="M334.86,-172.6C330.5,-176.97 319.88,-180 303,-180 274.56,-180 263.9,-171.41 271.01,-162.28"/>
<polygon fill="#63b8ff" stroke="#63b8ff" points="338.36,-172.32 334.99,-162.28 331.36,-172.23 338.36,-172.32"/>
</a>
</g>
</g>
<!-- Node13&#45;&gt;Node13 -->
<g id="edge18_Node000013_Node000013" class="edge">
<title>Node13&#45;&gt;Node13</title>
<g id="a_edge18_Node000013_Node000013"><a xlink:title=" ">
<path fill="none" stroke="#63b8ff" d="M334.86,-106.6C330.5,-110.97 319.88,-114 303,-114 274.56,-114 263.9,-105.41 271.01,-96.28"/>
<polygon fill="#63b8ff" stroke="#63b8ff" points="338.36,-106.32 334.99,-96.28 331.36,-106.23 338.36,-106.32"/>
</a>
</g>
</g>
<!-- Node14&#45;&gt;Node14 -->
<g id="edge20_Node000014_Node000014" class="edge">
<title>Node14&#45;&gt;Node14</title>
<g id="a_edge20_Node000014_Node000014"><a xlink:title=" ">
<path fill="none" stroke="#63b8ff" d="M334.86,-40.6C330.5,-44.97 319.88,-48 303,-48 274.56,-48 263.9,-39.41 271.01,-30.28"/>
<polygon fill="#63b8ff" stroke="#63b8ff" points="338.36,-40.32 334.99,-30.28 331.36,-40.23 338.36,-40.32"/>
</a>
</g>
</g>
</g>
</svg>
