<?xml version="1.0" encoding="UTF-8" standalone="no"?>
<!DOCTYPE svg PUBLIC "-//W3C//DTD SVG 1.1//EN"
 "http://www.w3.org/Graphics/SVG/1.1/DTD/svg11.dtd">
<!-- Generated by graphviz version 2.43.0 (0)
 -->
<!-- Title: helios::rendering::Renderable Pages: 1 -->
<svg width="276pt" height="104pt"
 viewBox="0.00 0.00 275.50 104.00" xmlns="http://www.w3.org/2000/svg" xmlns:xlink="http://www.w3.org/1999/xlink">
<g id="graph0" class="graph" transform="scale(1 1) rotate(0) translate(4 100)">
<title>helios::rendering::Renderable</title>
<!-- Node1 -->
<g id="Node000001" class="node">
<title>Node1</title>
<g id="a_Node000001"><a xlink:title="Abstract base class for objects that can be rendered by the rendering system.">
<polygon fill="#999999" stroke="#666666" points="188.5,-96 84.5,-96 84.5,-66 188.5,-66 188.5,-96"/>
<text text-anchor="start" x="92.5" y="-84" font-family="Helvetica,sans-Serif" font-size="10.00">helios::rendering::</text>
<text text-anchor="middle" x="136.5" y="-73" font-family="Helvetica,sans-Serif" font-size="10.00">Renderable</text>
</a>
</g>
</g>
<!-- Node2 -->
<g id="Node000002" class="node">
<title>Node2</title>
<g id="a_Node000002"><a xlink:href="classhelios_1_1rendering_1_1mesh_1_1MeshRenderable.html" target="_top" xlink:title="Represents a renderable object that combines a shared prototype with instance&#45;specific overrides.">
<polygon fill="white" stroke="#666666" points="131,-30 0,-30 0,0 131,0 131,-30"/>
<text text-anchor="start" x="8" y="-18" font-family="Helvetica,sans-Serif" font-size="10.00">helios::rendering::</text>
<text text-anchor="middle" x="65.5" y="-7" font-family="Helvetica,sans-Serif" font-size="10.00">mesh::MeshRenderable</text>
</a>
</g>
</g>
<!-- Node1&#45;&gt;Node2 -->
<g id="edge1_Node000001_Node000002" class="edge">
<title>Node1&#45;&gt;Node2</title>
<g id="a_edge1_Node000001_Node000002"><a xlink:title=" ">
<path fill="none" stroke="#63b8ff" d="M113.12,-58.92C102.65,-49.49 90.58,-38.61 81.21,-30.16"/>
<polygon fill="#63b8ff" stroke="#63b8ff" points="110.97,-61.7 120.74,-65.8 115.66,-56.5 110.97,-61.7"/>
</a>
</g>
</g>
<!-- Node3 -->
<g id="Node000003" class="node">
<title>Node3</title>
<g id="a_Node000003"><a xlink:href="classhelios_1_1rendering_1_1text_1_1TextRenderable.html" target="_top" xlink:title="High&#45;level text component that can be attached to game objects.">
<polygon fill="white" stroke="#666666" points="267.5,-30 149.5,-30 149.5,0 267.5,0 267.5,-30"/>
<text text-anchor="start" x="157.5" y="-18" font-family="Helvetica,sans-Serif" font-size="10.00">helios::rendering::</text>
<text text-anchor="middle" x="208.5" y="-7" font-family="Helvetica,sans-Serif" font-size="10.00">text::TextRenderable</text>
</a>
</g>
</g>
<!-- Node1&#45;&gt;Node3 -->
<g id="edge2_Node000001_Node000003" class="edge">
<title>Node1&#45;&gt;Node3</title>
<g id="a_edge2_Node000001_Node000003"><a xlink:title=" ">
<path fill="none" stroke="#63b8ff" d="M160.21,-58.92C170.83,-49.49 183.07,-38.61 192.57,-30.16"/>
<polygon fill="#63b8ff" stroke="#63b8ff" points="157.63,-56.54 152.48,-65.8 162.28,-61.77 157.63,-56.54"/>
</a>
</g>
</g>
</g>
</svg>
