<?xml version="1.0" encoding="UTF-8" standalone="no"?>
<!DOCTYPE svg PUBLIC "-//W3C//DTD SVG 1.1//EN"
 "http://www.w3.org/Graphics/SVG/1.1/DTD/svg11.dtd">
<!-- Generated by graphviz version 2.43.0 (0)
 -->
<!-- Title: helios::engine::mechanics::combat::components::ShootComponent Pages: 1 -->
<svg width="1487pt" height="135pt"
 viewBox="0.00 0.00 1487.00 134.50" xmlns="http://www.w3.org/2000/svg" xmlns:xlink="http://www.w3.org/1999/xlink">
<g id="graph0" class="graph" transform="scale(1 1) rotate(0) translate(4 130.5)">
<title>helios::engine::mechanics::combat::components::ShootComponent</title>
<!-- Node1 -->
<g id="Node000001" class="node">
<title>Node1</title>
<g id="a_Node000001"><a xlink:title="Component for handling projectile shooting with rate limiting.">
<polygon fill="#999999" stroke="#666666" points="1479,-72 1264,-72 1264,-42 1479,-42 1479,-72"/>
<text text-anchor="start" x="1272" y="-60" font-family="Helvetica,sans-Serif" font-size="10.00">helios::engine::mechanics</text>
<text text-anchor="middle" x="1371.5" y="-49" font-family="Helvetica,sans-Serif" font-size="10.00">::combat::components::ShootComponent</text>
</a>
</g>
</g>
<!-- Node2 -->
<g id="Node000002" class="node">
<title>Node2</title>
<g id="a_Node000002"><a xlink:href="classhelios_1_1engine_1_1ecs_1_1Component.html" target="_top" xlink:title="Abstract base class for components attached to GameObjects.">
<polygon fill="white" stroke="#666666" points="486,-72 379,-72 379,-42 486,-42 486,-72"/>
<text text-anchor="start" x="387" y="-60" font-family="Helvetica,sans-Serif" font-size="10.00">helios::engine::ecs</text>
<text text-anchor="middle" x="432.5" y="-49" font-family="Helvetica,sans-Serif" font-size="10.00">::Component</text>
</a>
</g>
</g>
<!-- Node2&#45;&gt;Node1 -->
<g id="edge1_Node000001_Node000002" class="edge">
<title>Node2&#45;&gt;Node1</title>
<g id="a_edge1_Node000001_Node000002"><a xlink:title=" ">
<path fill="none" stroke="#63b8ff" d="M496.69,-57C654.5,-57 1067.28,-57 1263.68,-57"/>
<polygon fill="#63b8ff" stroke="#63b8ff" points="496.22,-53.5 486.22,-57 496.22,-60.5 496.22,-53.5"/>
</a>
</g>
</g>
<!-- Node5 -->
<g id="Node000005" class="node">
<title>Node5</title>
<g id="a_Node000005"><a xlink:href="classhelios_1_1engine_1_1mechanics_1_1combat_1_1components_1_1Aim2DComponent.html" target="_top" xlink:title="Component for handling 2D aiming direction and fire frequency.">
<polygon fill="white" stroke="#666666" points="906,-30 685,-30 685,0 906,0 906,-30"/>
<text text-anchor="start" x="693" y="-18" font-family="Helvetica,sans-Serif" font-size="10.00">helios::engine::mechanics</text>
<text text-anchor="middle" x="795.5" y="-7" font-family="Helvetica,sans-Serif" font-size="10.00">::combat::components::Aim2DComponent</text>
</a>
</g>
</g>
<!-- Node2&#45;&gt;Node5 -->
<g id="edge5_Node000005_Node000002" class="edge">
<title>Node2&#45;&gt;Node5</title>
<g id="a_edge5_Node000005_Node000002"><a xlink:title=" ">
<path fill="none" stroke="#63b8ff" d="M496.27,-44.2C498.88,-43.78 501.46,-43.37 504,-43 563.53,-34.24 630.34,-27.59 684.86,-22.96"/>
<polygon fill="#63b8ff" stroke="#63b8ff" points="495.4,-40.8 486.14,-45.95 496.59,-47.7 495.4,-40.8"/>
</a>
</g>
</g>
<!-- Node7 -->
<g id="Node000007" class="node">
<title>Node7</title>
<g id="a_Node000007"><a xlink:href="classhelios_1_1engine_1_1ecs_1_1CloneableComponent.html" target="_top" xlink:title=" ">
<polygon fill="white" stroke="#666666" points="667,-126.5 523,-126.5 523,-85.5 667,-85.5 667,-126.5"/>
<text text-anchor="start" x="531" y="-114.5" font-family="Helvetica,sans-Serif" font-size="10.00">helios::engine::ecs</text>
<text text-anchor="start" x="531" y="-103.5" font-family="Helvetica,sans-Serif" font-size="10.00">::CloneableComponent</text>
<text text-anchor="middle" x="595" y="-92.5" font-family="Helvetica,sans-Serif" font-size="10.00">&lt; TransformComponent &gt;</text>
</a>
</g>
</g>
<!-- Node2&#45;&gt;Node7 -->
<g id="edge8_Node000007_Node000002" class="edge">
<title>Node2&#45;&gt;Node7</title>
<g id="a_edge8_Node000007_Node000002"><a xlink:title=" ">
<path fill="none" stroke="#63b8ff" d="M492.55,-75.03C503.66,-78.42 515.35,-81.99 526.69,-85.45"/>
<polygon fill="#63b8ff" stroke="#63b8ff" points="493.55,-71.67 482.96,-72.1 491.51,-78.37 493.55,-71.67"/>
</a>
</g>
</g>
<!-- Node3 -->
<g id="Node000003" class="node">
<title>Node3</title>
<g id="a_Node000003"><a xlink:href="classhelios_1_1engine_1_1ecs_1_1GameObject.html" target="_top" xlink:title="Container for components that represents an entity in the game world.">
<polygon fill="white" stroke="#666666" points="272,-72 165,-72 165,-42 272,-42 272,-72"/>
<text text-anchor="start" x="173" y="-60" font-family="Helvetica,sans-Serif" font-size="10.00">helios::engine::ecs</text>
<text text-anchor="middle" x="218.5" y="-49" font-family="Helvetica,sans-Serif" font-size="10.00">::GameObject</text>
</a>
</g>
</g>
<!-- Node3&#45;&gt;Node2 -->
<g id="edge2_Node000002_Node000003" class="edge">
<title>Node3&#45;&gt;Node2</title>
<g id="a_edge2_Node000002_Node000003"><a xlink:title=" ">
<path fill="none" stroke="#9a32cd" stroke-dasharray="5,2" d="M282.34,-57C313.02,-57 349.51,-57 378.73,-57"/>
<polygon fill="#9a32cd" stroke="#9a32cd" points="282.18,-53.5 272.18,-57 282.18,-60.5 282.18,-53.5"/>
</a>
</g>
<text text-anchor="start" x="293.5" y="-62.5" font-family="Helvetica,sans-Serif" font-size="10.00" fill="grey">gameObject_</text>
</g>
<!-- Node4 -->
<g id="Node000004" class="node">
<title>Node4</title>
<g id="a_Node000004"><a xlink:href="classhelios_1_1util_1_1Guid.html" target="_top" xlink:title="Representative of a Globally Unique Identifier.">
<polygon fill="white" stroke="#666666" points="96,-66.5 0,-66.5 0,-47.5 96,-47.5 96,-66.5"/>
<text text-anchor="middle" x="48" y="-54.5" font-family="Helvetica,sans-Serif" font-size="10.00">helios::util::Guid</text>
</a>
</g>
</g>
<!-- Node4&#45;&gt;Node3 -->
<g id="edge3_Node000003_Node000004" class="edge">
<title>Node4&#45;&gt;Node3</title>
<g id="a_edge3_Node000003_Node000004"><a xlink:title=" ">
<path fill="none" stroke="#9a32cd" stroke-dasharray="5,2" d="M106.64,-57C125.51,-57 146.37,-57 164.85,-57"/>
<polygon fill="#9a32cd" stroke="#9a32cd" points="106.39,-53.5 96.39,-57 106.39,-60.5 106.39,-53.5"/>
</a>
</g>
<text text-anchor="start" x="117.5" y="-62.5" font-family="Helvetica,sans-Serif" font-size="10.00" fill="grey">guid_</text>
</g>
<!-- Node5&#45;&gt;Node1 -->
<g id="edge4_Node000001_Node000005" class="edge">
<title>Node5&#45;&gt;Node1</title>
<g id="a_edge4_Node000001_Node000005"><a xlink:title=" ">
<path fill="none" stroke="#9a32cd" stroke-dasharray="5,2" d="M916.24,-16.79C975.25,-18.28 1047.43,-21.01 1112,-26 1162.02,-29.86 1217.27,-36.21 1263.8,-42.15"/>
<polygon fill="#9a32cd" stroke="#9a32cd" points="916.22,-13.29 906.14,-16.55 916.05,-20.29 916.22,-13.29"/>
</a>
</g>
<text text-anchor="start" x="978" y="-31.5" font-family="Helvetica,sans-Serif" font-size="10.00" fill="grey">aimComponent_</text>
</g>
<!-- Node6 -->
<g id="Node000006" class="node">
<title>Node6</title>
<g id="a_Node000006"><a xlink:href="classhelios_1_1engine_1_1modules_1_1spatial_1_1transform_1_1components_1_1TransformComponent.html" target="_top" xlink:title="Component that holds transformation data (position, rotation, scale).">
<polygon fill="white" stroke="#666666" points="1112,-126.5 924,-126.5 924,-85.5 1112,-85.5 1112,-126.5"/>
<text text-anchor="start" x="932" y="-114.5" font-family="Helvetica,sans-Serif" font-size="10.00">helios::engine::modules</text>
<text text-anchor="start" x="932" y="-103.5" font-family="Helvetica,sans-Serif" font-size="10.00">::spatial::transform::</text>
<text text-anchor="middle" x="1018" y="-92.5" font-family="Helvetica,sans-Serif" font-size="10.00">components::TransformComponent</text>
</a>
</g>
</g>
<!-- Node6&#45;&gt;Node1 -->
<g id="edge6_Node000001_Node000006" class="edge">
<title>Node6&#45;&gt;Node1</title>
<g id="a_edge6_Node000001_Node000006"><a xlink:title=" ">
<path fill="none" stroke="#9a32cd" stroke-dasharray="5,2" d="M1122.24,-91.61C1166.76,-85.4 1218.81,-78.15 1263.72,-71.88"/>
<polygon fill="#9a32cd" stroke="#9a32cd" points="1121.69,-88.15 1112.27,-93 1122.66,-95.08 1121.69,-88.15"/>
</a>
</g>
<text text-anchor="start" x="1133" y="-96.5" font-family="Helvetica,sans-Serif" font-size="10.00" fill="grey">transformComponent_</text>
</g>
<!-- Node7&#45;&gt;Node6 -->
<g id="edge7_Node000006_Node000007" class="edge">
<title>Node7&#45;&gt;Node6</title>
<g id="a_edge7_Node000006_Node000007"><a xlink:title=" ">
<path fill="none" stroke="#63b8ff" d="M677.59,-106C748.13,-106 850.07,-106 923.8,-106"/>
<polygon fill="#63b8ff" stroke="#63b8ff" points="677.42,-102.5 667.42,-106 677.42,-109.5 677.42,-102.5"/>
</a>
</g>
</g>
<!-- Node8 -->
<g id="Node000008" class="node">
<title>Node8</title>
<g id="a_Node000008"><a xlink:href="classhelios_1_1engine_1_1ecs_1_1Cloneable.html" target="_top" xlink:title="Interface for components that support cloning.">
<polygon fill="white" stroke="#666666" points="486,-122 379,-122 379,-92 486,-92 486,-122"/>
<text text-anchor="start" x="387" y="-110" font-family="Helvetica,sans-Serif" font-size="10.00">helios::engine::ecs</text>
<text text-anchor="middle" x="432.5" y="-99" font-family="Helvetica,sans-Serif" font-size="10.00">::Cloneable</text>
</a>
</g>
</g>
<!-- Node8&#45;&gt;Node7 -->
<g id="edge9_Node000007_Node000008" class="edge">
<title>Node8&#45;&gt;Node7</title>
<g id="a_edge9_Node000007_Node000008"><a xlink:title=" ">
<path fill="none" stroke="#63b8ff" d="M496.19,-106.61C504.97,-106.55 514.04,-106.5 522.96,-106.44"/>
<polygon fill="#63b8ff" stroke="#63b8ff" points="496.03,-103.11 486.05,-106.67 496.08,-110.11 496.03,-103.11"/>
</a>
</g>
</g>
</g>
</svg>
