<?xml version="1.0" encoding="UTF-8" standalone="no"?>
<!DOCTYPE svg PUBLIC "-//W3C//DTD SVG 1.1//EN"
 "http://www.w3.org/Graphics/SVG/1.1/DTD/svg11.dtd">
<!-- Generated by graphviz version 2.43.0 (0)
 -->
<!-- Title: helios::scene::Camera::setPerspective Pages: 1 -->
<svg width="294pt" height="230pt"
 viewBox="0.00 0.00 294.00 230.00" xmlns="http://www.w3.org/2000/svg" xmlns:xlink="http://www.w3.org/1999/xlink">
<g id="graph0" class="graph" transform="scale(1 1) rotate(0) translate(4 226)">
<title>helios::scene::Camera::setPerspective</title>
<!-- Node1 -->
<g id="Node000001" class="node">
<title>Node1</title>
<g id="a_Node000001"><a xlink:title="Sets the perspective projection parameters.">
<polygon fill="#999999" stroke="#666666" points="125,-126 0,-126 0,-96 125,-96 125,-126"/>
<text text-anchor="start" x="8" y="-114" font-family="Helvetica,sans-Serif" font-size="10.00">helios::scene::Camera</text>
<text text-anchor="middle" x="62.5" y="-103" font-family="Helvetica,sans-Serif" font-size="10.00">::setPerspective</text>
</a>
</g>
</g>
<!-- Node2 -->
<g id="Node000002" class="node">
<title>Node2</title>
<g id="a_Node000002"><a xlink:href="classhelios_1_1scene_1_1Camera.html#a949e8c04f22ca2a1ace596e6e859bee3" target="_top" xlink:title="Gets the current aspect ratio.">
<polygon fill="white" stroke="#666666" points="286,-222 161,-222 161,-192 286,-192 286,-222"/>
<text text-anchor="start" x="169" y="-210" font-family="Helvetica,sans-Serif" font-size="10.00">helios::scene::Camera</text>
<text text-anchor="middle" x="223.5" y="-199" font-family="Helvetica,sans-Serif" font-size="10.00">::aspectRatio</text>
</a>
</g>
</g>
<!-- Node1&#45;&gt;Node2 -->
<g id="edge1_Node000001_Node000002" class="edge">
<title>Node1&#45;&gt;Node2</title>
<g id="a_edge1_Node000001_Node000002"><a xlink:title=" ">
<path fill="none" stroke="#63b8ff" d="M80.86,-126.04C99.65,-141.77 130.97,-166.43 161,-183 164,-184.66 167.14,-186.25 170.34,-187.78"/>
<polygon fill="#63b8ff" stroke="#63b8ff" points="168.93,-190.98 179.49,-191.9 171.81,-184.6 168.93,-190.98"/>
</a>
</g>
</g>
<!-- Node3 -->
<g id="Node000003" class="node">
<title>Node3</title>
<g id="a_Node000003"><a xlink:href="classhelios_1_1scene_1_1Camera.html#a6d1911bccc03c847625153d58cc49e99" target="_top" xlink:title="Constructs a camera with identity projection and view matrices.">
<polygon fill="white" stroke="#666666" points="286,-174 161,-174 161,-144 286,-144 286,-174"/>
<text text-anchor="start" x="169" y="-162" font-family="Helvetica,sans-Serif" font-size="10.00">helios::scene::Camera</text>
<text text-anchor="middle" x="223.5" y="-151" font-family="Helvetica,sans-Serif" font-size="10.00">::Camera</text>
</a>
</g>
</g>
<!-- Node1&#45;&gt;Node3 -->
<g id="edge2_Node000001_Node000003" class="edge">
<title>Node1&#45;&gt;Node3</title>
<g id="a_edge2_Node000001_Node000003"><a xlink:title=" ">
<path fill="none" stroke="#63b8ff" d="M113.37,-126.06C129.06,-130.79 146.54,-136.07 162.84,-140.99"/>
<polygon fill="#63b8ff" stroke="#63b8ff" points="162.22,-144.46 172.8,-144 164.24,-137.76 162.22,-144.46"/>
</a>
</g>
</g>
<!-- Node4 -->
<g id="Node000004" class="node">
<title>Node4</title>
<g id="a_Node000004"><a xlink:href="classhelios_1_1scene_1_1Camera.html#a70b386e4c1f91bd4cca152d5efb4ed76" target="_top" xlink:title="Gets the current vertical field of view.">
<polygon fill="white" stroke="#666666" points="286,-126 161,-126 161,-96 286,-96 286,-126"/>
<text text-anchor="start" x="169" y="-114" font-family="Helvetica,sans-Serif" font-size="10.00">helios::scene::Camera</text>
<text text-anchor="middle" x="223.5" y="-103" font-family="Helvetica,sans-Serif" font-size="10.00">::fovY</text>
</a>
</g>
</g>
<!-- Node1&#45;&gt;Node4 -->
<g id="edge3_Node000001_Node000004" class="edge">
<title>Node1&#45;&gt;Node4</title>
<g id="a_edge3_Node000001_Node000004"><a xlink:title=" ">
<path fill="none" stroke="#63b8ff" d="M125.43,-111C133.67,-111 142.18,-111 150.58,-111"/>
<polygon fill="#63b8ff" stroke="#63b8ff" points="150.74,-114.5 160.74,-111 150.74,-107.5 150.74,-114.5"/>
</a>
</g>
</g>
<!-- Node5 -->
<g id="Node000005" class="node">
<title>Node5</title>
<g id="a_Node000005"><a xlink:href="classhelios_1_1scene_1_1Camera.html#ab6f32b1cf60371dfa764adfb13d4141e" target="_top" xlink:title="Gets the current far clipping plane distance.">
<polygon fill="white" stroke="#666666" points="286,-78 161,-78 161,-48 286,-48 286,-78"/>
<text text-anchor="start" x="169" y="-66" font-family="Helvetica,sans-Serif" font-size="10.00">helios::scene::Camera</text>
<text text-anchor="middle" x="223.5" y="-55" font-family="Helvetica,sans-Serif" font-size="10.00">::zFar</text>
</a>
</g>
</g>
<!-- Node1&#45;&gt;Node5 -->
<g id="edge4_Node000001_Node000005" class="edge">
<title>Node1&#45;&gt;Node5</title>
<g id="a_edge4_Node000001_Node000005"><a xlink:title=" ">
<path fill="none" stroke="#63b8ff" d="M113.37,-95.94C129.06,-91.21 146.54,-85.93 162.84,-81.01"/>
<polygon fill="#63b8ff" stroke="#63b8ff" points="164.24,-84.24 172.8,-78 162.22,-77.54 164.24,-84.24"/>
</a>
</g>
</g>
<!-- Node6 -->
<g id="Node000006" class="node">
<title>Node6</title>
<g id="a_Node000006"><a xlink:href="classhelios_1_1scene_1_1Camera.html#a11e3916a50eb417e8924ccea8fee56cd" target="_top" xlink:title="Gets the current near clipping plane distance.">
<polygon fill="white" stroke="#666666" points="286,-30 161,-30 161,0 286,0 286,-30"/>
<text text-anchor="start" x="169" y="-18" font-family="Helvetica,sans-Serif" font-size="10.00">helios::scene::Camera</text>
<text text-anchor="middle" x="223.5" y="-7" font-family="Helvetica,sans-Serif" font-size="10.00">::zNear</text>
</a>
</g>
</g>
<!-- Node1&#45;&gt;Node6 -->
<g id="edge5_Node000001_Node000006" class="edge">
<title>Node1&#45;&gt;Node6</title>
<g id="a_edge5_Node000001_Node000006"><a xlink:title=" ">
<path fill="none" stroke="#63b8ff" d="M80.86,-95.96C99.65,-80.23 130.97,-55.57 161,-39 164,-37.34 167.14,-35.75 170.34,-34.22"/>
<polygon fill="#63b8ff" stroke="#63b8ff" points="171.81,-37.4 179.49,-30.1 168.93,-31.02 171.81,-37.4"/>
</a>
</g>
</g>
</g>
</svg>
