<?xml version="1.0" encoding="UTF-8" standalone="no"?>
<!DOCTYPE svg PUBLIC "-//W3C//DTD SVG 1.1//EN"
 "http://www.w3.org/Graphics/SVG/1.1/DTD/svg11.dtd">
<!-- Generated by graphviz version 2.43.0 (0)
 -->
<!-- Title: helios::engine::builder::gameObject::builders::configs::CollisionConfig::CollisionConfig Pages: 1 -->
<!--zoomable 464 -->

<svg id="main" version="1.1" xmlns="http://www.w3.org/2000/svg" xmlns:xlink="http://www.w3.org/1999/xlink" xml:space="preserve" onload="init(evt)">

<style type="text/css"><![CDATA[
.node, .edge {opacity: 0.7;}
.node.selected, .edge.selected {opacity: 1;}
.edge:hover path { stroke: red; }
.edge:hover polygon { stroke: red; fill: red; }
]]></style>

<defs>
  <circle id="rim" cx="0" cy="0" r="7"/>
  <circle id="rim2" cx="0" cy="0" r="3.5"/>
  <g id="zoomPlus">
    <use xlink:href="#rim" fill="#404040"><set attributeName="fill" to="#808080" begin="zoomplus.mouseover" end="zoomplus.mouseout"/></use>
    <path d="M-4,0h8M0,-4v8" fill="none" stroke="white" stroke-width="1.5" pointer-events="none"/>
  </g>
  <g id="zoomMin">
    <use xlink:href="#rim" fill="#404040"><set attributeName="fill" to="#808080" begin="zoomminus.mouseover" end="zoomminus.mouseout"/></use>
    <path d="M-4,0h8" fill="none" stroke="white" stroke-width="1.5" pointer-events="none"/>
  </g>
  <g id="arrowUp" transform="translate(30 24)">
    <use xlink:href="#rim"/>
    <path pointer-events="none" fill="none" stroke="white" stroke-width="1.5" d="M0,-3.0v7 M-2.5,-0.5L0,-3.0L2.5,-0.5"/>
  </g>
  <g id="arrowRight" transform="rotate(90) translate(36 -43)">
    <use xlink:href="#rim"/>
    <path pointer-events="none" fill="none" stroke="white" stroke-width="1.5" d="M0,-3.0v7 M-2.5,-0.5L0,-3.0L2.5,-0.5"/>
  </g>
  <g id="arrowDown" transform="rotate(180) translate(-30 -48)">
    <use xlink:href="#rim"/>
    <path pointer-events="none" fill="none" stroke="white" stroke-width="1.5" d="M0,-3.0v7 M-2.5,-0.5L0,-3.0L2.5,-0.5"/>
  </g>
  <g id="arrowLeft" transform="rotate(270) translate(-36 17)">
    <use xlink:href="#rim"/>
    <path pointer-events="none" fill="none" stroke="white" stroke-width="1.5" d="M0,-3.0v7 M-2.5,-0.5L0,-3.0L2.5,-0.5"/>
  </g>
  <g id="resetDef">
    <use xlink:href="#rim2" fill="#404040"><set attributeName="fill" to="#808080" begin="reset.mouseover" end="reset.mouseout"/></use>
  </g>
</defs>
<script type="application/ecmascript">
var viewWidth = 316;
var viewHeight = 464;
var sectionId = 'dynsection-0';
</script>
<script type="application/ecmascript" xlink:href="svg.min.js"/>
<svg id="graph" class="graph">
<g id="viewport">
<title>helios::engine::builder::gameObject::builders::configs::CollisionConfig::CollisionConfig</title>
<!-- Node1 -->
<g id="Node000001" class="node">
<title>Node1</title>
<g id="a_Node000001"><a xlink:title="Constructs a CollisionConfig and adds CollisionStateComponent.">
<polygon fill="#999999" stroke="#666666" points="308,-245 172,-245 172,-193 308,-193 308,-245"/>
<text text-anchor="start" x="180" y="-233" font-family="Helvetica,sans-Serif" font-size="10.00">helios::engine::builder</text>
<text text-anchor="start" x="180" y="-222" font-family="Helvetica,sans-Serif" font-size="10.00">::gameObject::builders</text>
<text text-anchor="start" x="180" y="-211" font-family="Helvetica,sans-Serif" font-size="10.00">::configs::CollisionConfig</text>
<text text-anchor="middle" x="240" y="-200" font-family="Helvetica,sans-Serif" font-size="10.00">::CollisionConfig</text>
</a>
</g>
</g>
<!-- Node2 -->
<g id="Node000002" class="node">
<title>Node2</title>
<g id="a_Node000002"><a xlink:href="classhelios_1_1engine_1_1builder_1_1gameObject_1_1builders_1_1configs_1_1CollisionConfig.html#a3c21ee3846aa87b4f7dfc0972de03f47" target="_top" xlink:title="Sets the hit policy for collision detection.">
<polygon fill="white" stroke="#666666" points="136,-438 0,-438 0,-386 136,-386 136,-438"/>
<text text-anchor="start" x="8" y="-426" font-family="Helvetica,sans-Serif" font-size="10.00">helios::engine::builder</text>
<text text-anchor="start" x="8" y="-415" font-family="Helvetica,sans-Serif" font-size="10.00">::gameObject::builders</text>
<text text-anchor="start" x="8" y="-404" font-family="Helvetica,sans-Serif" font-size="10.00">::configs::CollisionConfig</text>
<text text-anchor="middle" x="68" y="-393" font-family="Helvetica,sans-Serif" font-size="10.00">::hitPolicy</text>
</a>
</g>
</g>
<!-- Node1&#45;&gt;Node2 -->
<g id="edge1_Node000001_Node000002" class="edge">
<title>Node1&#45;&gt;Node2</title>
<g id="a_edge1_Node000001_Node000002"><a xlink:title=" ">
<path fill="none" stroke="#63b8ff" d="M222.61,-254.46C205.13,-289.19 174.67,-341.89 136,-377 132.5,-380.18 128.66,-383.15 124.65,-385.92"/>
<polygon fill="#63b8ff" stroke="#63b8ff" points="225.91,-255.68 227.19,-245.17 219.63,-252.59 225.91,-255.68"/>
</a>
</g>
</g>
<!-- Node3 -->
<g id="Node000003" class="node">
<title>Node3</title>
<g id="a_Node000003"><a xlink:href="classhelios_1_1engine_1_1builder_1_1gameObject_1_1builders_1_1configs_1_1CollisionConfig.html#a4023b551aeb2a9de1c74d16ee3a2cc13" target="_top" xlink:title="Sets the collision layer ID.">
<polygon fill="white" stroke="#666666" points="136,-350 0,-350 0,-298 136,-298 136,-350"/>
<text text-anchor="start" x="8" y="-338" font-family="Helvetica,sans-Serif" font-size="10.00">helios::engine::builder</text>
<text text-anchor="start" x="8" y="-327" font-family="Helvetica,sans-Serif" font-size="10.00">::gameObject::builders</text>
<text text-anchor="start" x="8" y="-316" font-family="Helvetica,sans-Serif" font-size="10.00">::configs::CollisionConfig</text>
<text text-anchor="middle" x="68" y="-305" font-family="Helvetica,sans-Serif" font-size="10.00">::layerId</text>
</a>
</g>
</g>
<!-- Node1&#45;&gt;Node3 -->
<g id="edge3_Node000001_Node000003" class="edge">
<title>Node1&#45;&gt;Node3</title>
<g id="a_edge3_Node000001_Node000003"><a xlink:title=" ">
<path fill="none" stroke="#63b8ff" d="M194.02,-251.22C176.25,-263.52 155.45,-277.36 136,-289 131.04,-291.96 125.81,-294.94 120.55,-297.85"/>
<polygon fill="#63b8ff" stroke="#63b8ff" points="196.28,-253.91 202.49,-245.33 192.28,-248.17 196.28,-253.91"/>
</a>
</g>
</g>
<!-- Node4 -->
<g id="Node000004" class="node">
<title>Node4</title>
<g id="a_Node000004"><a xlink:href="classhelios_1_1engine_1_1builder_1_1gameObject_1_1builders_1_1configs_1_1CollisionConfig.html#a21a4c3525c31d20cad956b6206c46a07" target="_top" xlink:title="Adds a collision behavior for a specific layer.">
<polygon fill="white" stroke="#666666" points="136,-280 0,-280 0,-228 136,-228 136,-280"/>
<text text-anchor="start" x="8" y="-268" font-family="Helvetica,sans-Serif" font-size="10.00">helios::engine::builder</text>
<text text-anchor="start" x="8" y="-257" font-family="Helvetica,sans-Serif" font-size="10.00">::gameObject::builders</text>
<text text-anchor="start" x="8" y="-246" font-family="Helvetica,sans-Serif" font-size="10.00">::configs::CollisionConfig</text>
<text text-anchor="middle" x="68" y="-235" font-family="Helvetica,sans-Serif" font-size="10.00">::onSolidCollision</text>
</a>
</g>
</g>
<!-- Node1&#45;&gt;Node4 -->
<g id="edge5_Node000001_Node000004" class="edge">
<title>Node1&#45;&gt;Node4</title>
<g id="a_edge5_Node000001_Node000004"><a xlink:title=" ">
<path fill="none" stroke="#63b8ff" d="M161.85,-234.88C153.31,-236.64 144.66,-238.42 136.26,-240.15"/>
<polygon fill="#63b8ff" stroke="#63b8ff" points="162.72,-238.28 171.81,-232.83 161.31,-231.42 162.72,-238.28"/>
</a>
</g>
</g>
<!-- Node5 -->
<g id="Node000005" class="node">
<title>Node5</title>
<g id="a_Node000005"><a xlink:href="classhelios_1_1engine_1_1builder_1_1gameObject_1_1builders_1_1configs_1_1CollisionConfig.html#a646bc540a8bca5796172fa397162d946" target="_top" xlink:title="Sets whether this entity reports collisions.">
<polygon fill="white" stroke="#666666" points="136,-210 0,-210 0,-158 136,-158 136,-210"/>
<text text-anchor="start" x="8" y="-198" font-family="Helvetica,sans-Serif" font-size="10.00">helios::engine::builder</text>
<text text-anchor="start" x="8" y="-187" font-family="Helvetica,sans-Serif" font-size="10.00">::gameObject::builders</text>
<text text-anchor="start" x="8" y="-176" font-family="Helvetica,sans-Serif" font-size="10.00">::configs::CollisionConfig</text>
<text text-anchor="middle" x="68" y="-165" font-family="Helvetica,sans-Serif" font-size="10.00">::reportCollisions</text>
</a>
</g>
</g>
<!-- Node1&#45;&gt;Node5 -->
<g id="edge6_Node000001_Node000005" class="edge">
<title>Node1&#45;&gt;Node5</title>
<g id="a_edge6_Node000001_Node000005"><a xlink:title=" ">
<path fill="none" stroke="#63b8ff" d="M161.85,-203.12C153.31,-201.36 144.66,-199.58 136.26,-197.85"/>
<polygon fill="#63b8ff" stroke="#63b8ff" points="161.31,-206.58 171.81,-205.17 162.72,-199.72 161.31,-206.58"/>
</a>
</g>
</g>
<!-- Node6 -->
<g id="Node000006" class="node">
<title>Node6</title>
<g id="a_Node000006"><a xlink:href="classhelios_1_1engine_1_1builder_1_1gameObject_1_1builders_1_1configs_1_1CollisionConfig.html#a1b5b0c7cbcfa16252dcf7d23ca640052" target="_top" xlink:title="Sets the solid collision mask.">
<polygon fill="white" stroke="#666666" points="136,-122 0,-122 0,-70 136,-70 136,-122"/>
<text text-anchor="start" x="8" y="-110" font-family="Helvetica,sans-Serif" font-size="10.00">helios::engine::builder</text>
<text text-anchor="start" x="8" y="-99" font-family="Helvetica,sans-Serif" font-size="10.00">::gameObject::builders</text>
<text text-anchor="start" x="8" y="-88" font-family="Helvetica,sans-Serif" font-size="10.00">::configs::CollisionConfig</text>
<text text-anchor="middle" x="68" y="-77" font-family="Helvetica,sans-Serif" font-size="10.00">::solidCollisionMask</text>
</a>
</g>
</g>
<!-- Node1&#45;&gt;Node6 -->
<g id="edge7_Node000001_Node000006" class="edge">
<title>Node1&#45;&gt;Node6</title>
<g id="a_edge7_Node000001_Node000006"><a xlink:title=" ">
<path fill="none" stroke="#63b8ff" d="M194.55,-186.84C166.65,-166.65 131.13,-140.96 105,-122.05"/>
<polygon fill="#63b8ff" stroke="#63b8ff" points="192.79,-189.89 202.95,-192.91 196.9,-184.22 192.79,-189.89"/>
</a>
</g>
</g>
<!-- Node7 -->
<g id="Node000007" class="node">
<title>Node7</title>
<g id="a_Node000007"><a xlink:href="classhelios_1_1engine_1_1builder_1_1gameObject_1_1builders_1_1configs_1_1CollisionConfig.html#a1e6b01a0392b60587a80b73e44a7667a" target="_top" xlink:title="Adds AABB collider for bounding box collision.">
<polygon fill="white" stroke="#666666" points="136,-52 0,-52 0,0 136,0 136,-52"/>
<text text-anchor="start" x="8" y="-40" font-family="Helvetica,sans-Serif" font-size="10.00">helios::engine::builder</text>
<text text-anchor="start" x="8" y="-29" font-family="Helvetica,sans-Serif" font-size="10.00">::gameObject::builders</text>
<text text-anchor="start" x="8" y="-18" font-family="Helvetica,sans-Serif" font-size="10.00">::configs::CollisionConfig</text>
<text text-anchor="middle" x="68" y="-7" font-family="Helvetica,sans-Serif" font-size="10.00">::useBoundingBox</text>
</a>
</g>
</g>
<!-- Node1&#45;&gt;Node7 -->
<g id="edge9_Node000001_Node000007" class="edge">
<title>Node1&#45;&gt;Node7</title>
<g id="a_edge9_Node000001_Node000007"><a xlink:title=" ">
<path fill="none" stroke="#63b8ff" d="M222.61,-183.54C205.13,-148.81 174.67,-96.11 136,-61 132.5,-57.82 128.66,-54.85 124.65,-52.08"/>
<polygon fill="#63b8ff" stroke="#63b8ff" points="219.63,-185.41 227.19,-192.83 225.91,-182.32 219.63,-185.41"/>
</a>
</g>
</g>
<!-- Node2&#45;&gt;Node2 -->
<g id="edge2_Node000002_Node000002" class="edge">
<title>Node2&#45;&gt;Node2</title>
<g id="a_edge2_Node000002_Node000002"><a xlink:title=" ">
<path fill="none" stroke="#63b8ff" d="M96.75,-447.76C92,-452.7 82.42,-456 68,-456 45.49,-456 34.77,-447.96 35.82,-438.2"/>
<polygon fill="#63b8ff" stroke="#63b8ff" points="100.1,-448.79 100.18,-438.2 93.51,-446.43 100.1,-448.79"/>
</a>
</g>
</g>
<!-- Node3&#45;&gt;Node3 -->
<g id="edge4_Node000003_Node000003" class="edge">
<title>Node3&#45;&gt;Node3</title>
<g id="a_edge4_Node000003_Node000003"><a xlink:title=" ">
<path fill="none" stroke="#63b8ff" d="M96.75,-359.76C92,-364.7 82.42,-368 68,-368 45.49,-368 34.77,-359.96 35.82,-350.2"/>
<polygon fill="#63b8ff" stroke="#63b8ff" points="100.1,-360.79 100.18,-350.2 93.51,-358.43 100.1,-360.79"/>
</a>
</g>
</g>
<!-- Node6&#45;&gt;Node6 -->
<g id="edge8_Node000006_Node000006" class="edge">
<title>Node6&#45;&gt;Node6</title>
<g id="a_edge8_Node000006_Node000006"><a xlink:title=" ">
<path fill="none" stroke="#63b8ff" d="M96.75,-131.76C92,-136.7 82.42,-140 68,-140 45.49,-140 34.77,-131.96 35.82,-122.2"/>
<polygon fill="#63b8ff" stroke="#63b8ff" points="100.1,-132.79 100.18,-122.2 93.51,-130.43 100.1,-132.79"/>
</a>
</g>
</g>
</g>
</svg>

<g id="navigator" transform="translate(0 0)" fill="#404254">
  <rect fill="#f2f5e9" fill-opacity="0.5" stroke="#606060" stroke-width=".5" x="0" y="0" width="60" height="60"/>
  <use id="zoomplus" xlink:href="#zoomPlus" x="17" y="9" onmousedown="handleZoom(evt,'in')"/>
  <use id="zoomminus" xlink:href="#zoomMin" x="42" y="9" onmousedown="handleZoom(evt,'out')"/>
  <use id="reset" xlink:href="#resetDef" x="30" y="36" onmousedown="handleReset()"/>
   <use id="arrowup" xlink:href="#arrowUp" x="0" y="0" onmousedown="handlePan(0,-1)"/>
  <use id="arrowright" xlink:href="#arrowRight" x="0" y="0" onmousedown="handlePan(1,0)"/>
  <use id="arrowdown" xlink:href="#arrowDown" x="0" y="0" onmousedown="handlePan(0,1)"/>
  <use id="arrowleft" xlink:href="#arrowLeft" x="0" y="0" onmousedown="handlePan(-1,0)"/>
</g>
<svg viewBox="0 0 15 15" width="100%" height="30px" preserveAspectRatio="xMaxYMin meet">
 <g id="arrow_out" transform="scale(0.3 0.3)">
  <a xlink:href="classhelios_1_1engine_1_1builder_1_1gameObject_1_1builders_1_1configs_1_1CollisionConfig_a1885a07295a3708ca07787fd83e2456a_icgraph_org.svg" target="_base">
   <rect id="button" ry="5" rx="5" y="6" x="6" height="38" width="38"
        fill="#f2f5e9" fill-opacity="0.5" stroke="#606060" stroke-width="1.0"/>
   <path id="arrow"
     d="M 11.500037,31.436501 C 11.940474,20.09759 22.043105,11.32322 32.158766,21.979434 L 37.068811,17.246167 C 37.068811,17.246167 37.088388,32 37.088388,32 L 22.160133,31.978069 C 22.160133,31.978069 26.997745,27.140456 26.997745,27.140456 C 18.528582,18.264221 13.291696,25.230495 11.500037,31.436501 z"
     style="fill:#404040;"/>
  </a>
 </g>
</svg>

<style type='text/css'>
<![CDATA[
[data-mouse-over-selected='false'] { opacity: 0.7; }
[data-mouse-over-selected='true']  { opacity: 1.0; }
]]>
</style>
<script type="application/ecmascript"><![CDATA[
document.addEventListener('DOMContentLoaded', (event) => {
  highlightEdges();
  highlightAdjacentNodes();
});
]]></script>
</svg>
