<?xml version="1.0" encoding="UTF-8" standalone="no"?>
<!DOCTYPE svg PUBLIC "-//W3C//DTD SVG 1.1//EN"
 "http://www.w3.org/Graphics/SVG/1.1/DTD/svg11.dtd">
<!-- Generated by graphviz version 2.43.0 (0)
 -->
<!-- Title: helios::engine::modules::spatial::transform::components::ComposeTransformComponent::ComposeTransformComponent Pages: 1 -->
<svg width="510pt" height="550pt"
 viewBox="0.00 0.00 510.00 550.00" xmlns="http://www.w3.org/2000/svg" xmlns:xlink="http://www.w3.org/1999/xlink">
<g id="graph0" class="graph" transform="scale(1 1) rotate(0) translate(4 546)">
<title>helios::engine::modules::spatial::transform::components::ComposeTransformComponent::ComposeTransformComponent</title>
<!-- Node1 -->
<g id="Node000001" class="node">
<title>Node1</title>
<g id="a_Node000001"><a xlink:title="Default constructor.">
<polygon fill="#999999" stroke="#666666" points="502,-297 269,-297 269,-245 502,-245 502,-297"/>
<text text-anchor="start" x="277" y="-285" font-family="Helvetica,sans-Serif" font-size="10.00">helios::engine::modules</text>
<text text-anchor="start" x="277" y="-274" font-family="Helvetica,sans-Serif" font-size="10.00">::spatial::transform::</text>
<text text-anchor="start" x="277" y="-263" font-family="Helvetica,sans-Serif" font-size="10.00">components::ComposeTransformComponent</text>
<text text-anchor="middle" x="385.5" y="-252" font-family="Helvetica,sans-Serif" font-size="10.00">::ComposeTransformComponent</text>
</a>
</g>
</g>
<!-- Node2 -->
<g id="Node000002" class="node">
<title>Node2</title>
<g id="a_Node000002"><a xlink:href="classhelios_1_1engine_1_1modules_1_1spatial_1_1transform_1_1components_1_1ComposeTransformComponent.html#a8dae22ef52cb152345d0a78863aa272d" target="_top" xlink:title=" ">
<polygon fill="white" stroke="#666666" points="233,-542 0,-542 0,-490 233,-490 233,-542"/>
<text text-anchor="start" x="8" y="-530" font-family="Helvetica,sans-Serif" font-size="10.00">helios::engine::modules</text>
<text text-anchor="start" x="8" y="-519" font-family="Helvetica,sans-Serif" font-size="10.00">::spatial::transform::</text>
<text text-anchor="start" x="8" y="-508" font-family="Helvetica,sans-Serif" font-size="10.00">components::ComposeTransformComponent</text>
<text text-anchor="middle" x="116.5" y="-497" font-family="Helvetica,sans-Serif" font-size="10.00">::ComposeTransformComponent</text>
</a>
</g>
</g>
<!-- Node1&#45;&gt;Node2 -->
<g id="edge1_Node000001_Node000002" class="edge">
<title>Node1&#45;&gt;Node2</title>
<g id="a_edge1_Node000001_Node000002"><a xlink:title=" ">
<path fill="none" stroke="#63b8ff" d="M368.18,-306.33C344.79,-353.12 297.35,-435.06 233,-481 228.4,-484.29 223.48,-487.27 218.36,-489.98"/>
<polygon fill="#63b8ff" stroke="#63b8ff" points="371.41,-307.7 372.67,-297.18 365.12,-304.62 371.41,-307.7"/>
</a>
</g>
</g>
<!-- Node3 -->
<g id="Node000003" class="node">
<title>Node3</title>
<g id="a_Node000003"><a xlink:href="classhelios_1_1engine_1_1modules_1_1spatial_1_1transform_1_1components_1_1ComposeTransformComponent.html#a31c43645719ecaffd157192326097d24" target="_top" xlink:title="Copy constructor.">
<polygon fill="white" stroke="#666666" points="233,-472 0,-472 0,-420 233,-420 233,-472"/>
<text text-anchor="start" x="8" y="-460" font-family="Helvetica,sans-Serif" font-size="10.00">helios::engine::modules</text>
<text text-anchor="start" x="8" y="-449" font-family="Helvetica,sans-Serif" font-size="10.00">::spatial::transform::</text>
<text text-anchor="start" x="8" y="-438" font-family="Helvetica,sans-Serif" font-size="10.00">components::ComposeTransformComponent</text>
<text text-anchor="middle" x="116.5" y="-427" font-family="Helvetica,sans-Serif" font-size="10.00">::ComposeTransformComponent</text>
</a>
</g>
</g>
<!-- Node1&#45;&gt;Node3 -->
<g id="edge2_Node000001_Node000003" class="edge">
<title>Node1&#45;&gt;Node3</title>
<g id="a_edge2_Node000001_Node000003"><a xlink:title=" ">
<path fill="none" stroke="#63b8ff" d="M356.04,-304.97C327.82,-336.63 281.85,-383.03 233,-411 227.36,-414.23 221.4,-417.19 215.27,-419.9"/>
<polygon fill="#63b8ff" stroke="#63b8ff" points="358.84,-307.08 362.82,-297.26 353.59,-302.46 358.84,-307.08"/>
</a>
</g>
</g>
<!-- Node4 -->
<g id="Node000004" class="node">
<title>Node4</title>
<g id="a_Node000004"><a xlink:href="classhelios_1_1engine_1_1modules_1_1spatial_1_1transform_1_1components_1_1ComposeTransformComponent.html#a428011525a076e605a0cb52245100f98" target="_top" xlink:title=" ">
<polygon fill="white" stroke="#666666" points="233,-402 0,-402 0,-350 233,-350 233,-402"/>
<text text-anchor="start" x="8" y="-390" font-family="Helvetica,sans-Serif" font-size="10.00">helios::engine::modules</text>
<text text-anchor="start" x="8" y="-379" font-family="Helvetica,sans-Serif" font-size="10.00">::spatial::transform::</text>
<text text-anchor="start" x="8" y="-368" font-family="Helvetica,sans-Serif" font-size="10.00">components::ComposeTransformComponent</text>
<text text-anchor="middle" x="116.5" y="-357" font-family="Helvetica,sans-Serif" font-size="10.00">::operator=</text>
</a>
</g>
</g>
<!-- Node1&#45;&gt;Node4 -->
<g id="edge3_Node000001_Node000004" class="edge">
<title>Node1&#45;&gt;Node4</title>
<g id="a_edge3_Node000001_Node000004"><a xlink:title=" ">
<path fill="none" stroke="#63b8ff" d="M323.63,-301.47C296.3,-314.54 263.41,-329.43 233,-341 224.87,-344.09 216.35,-347.1 207.76,-349.97"/>
<polygon fill="#63b8ff" stroke="#63b8ff" points="325.19,-304.61 332.68,-297.11 322.15,-298.3 325.19,-304.61"/>
</a>
</g>
</g>
<!-- Node5 -->
<g id="Node000005" class="node">
<title>Node5</title>
<g id="a_Node000005"><a xlink:href="classhelios_1_1engine_1_1modules_1_1spatial_1_1transform_1_1components_1_1ComposeTransformComponent.html#a51bdab454a43039ab6af65d5c9e8f4cc" target="_top" xlink:title=" ">
<polygon fill="white" stroke="#666666" points="233,-332 0,-332 0,-280 233,-280 233,-332"/>
<text text-anchor="start" x="8" y="-320" font-family="Helvetica,sans-Serif" font-size="10.00">helios::engine::modules</text>
<text text-anchor="start" x="8" y="-309" font-family="Helvetica,sans-Serif" font-size="10.00">::spatial::transform::</text>
<text text-anchor="start" x="8" y="-298" font-family="Helvetica,sans-Serif" font-size="10.00">components::ComposeTransformComponent</text>
<text text-anchor="middle" x="116.5" y="-287" font-family="Helvetica,sans-Serif" font-size="10.00">::operator=</text>
</a>
</g>
</g>
<!-- Node1&#45;&gt;Node5 -->
<g id="edge4_Node000001_Node000005" class="edge">
<title>Node1&#45;&gt;Node5</title>
<g id="a_edge4_Node000001_Node000005"><a xlink:title=" ">
<path fill="none" stroke="#63b8ff" d="M258.92,-287.46C250.35,-288.58 241.74,-289.71 233.23,-290.83"/>
<polygon fill="#63b8ff" stroke="#63b8ff" points="259.48,-290.92 268.94,-286.15 258.57,-283.98 259.48,-290.92"/>
</a>
</g>
</g>
<!-- Node6 -->
<g id="Node000006" class="node">
<title>Node6</title>
<g id="a_Node000006"><a xlink:href="classhelios_1_1engine_1_1modules_1_1spatial_1_1transform_1_1components_1_1ComposeTransformComponent.html#a1ed01445266ae39c49cefc46ad692a78" target="_top" xlink:title="Sets the local rotation matrix.">
<polygon fill="white" stroke="#666666" points="233,-262 0,-262 0,-210 233,-210 233,-262"/>
<text text-anchor="start" x="8" y="-250" font-family="Helvetica,sans-Serif" font-size="10.00">helios::engine::modules</text>
<text text-anchor="start" x="8" y="-239" font-family="Helvetica,sans-Serif" font-size="10.00">::spatial::transform::</text>
<text text-anchor="start" x="8" y="-228" font-family="Helvetica,sans-Serif" font-size="10.00">components::ComposeTransformComponent</text>
<text text-anchor="middle" x="116.5" y="-217" font-family="Helvetica,sans-Serif" font-size="10.00">::setLocalRotation</text>
</a>
</g>
</g>
<!-- Node1&#45;&gt;Node6 -->
<g id="edge5_Node000001_Node000006" class="edge">
<title>Node1&#45;&gt;Node6</title>
<g id="a_edge5_Node000001_Node000006"><a xlink:title=" ">
<path fill="none" stroke="#63b8ff" d="M258.92,-254.54C250.35,-253.42 241.74,-252.29 233.23,-251.17"/>
<polygon fill="#63b8ff" stroke="#63b8ff" points="258.57,-258.02 268.94,-255.85 259.48,-251.08 258.57,-258.02"/>
</a>
</g>
</g>
<!-- Node7 -->
<g id="Node000007" class="node">
<title>Node7</title>
<g id="a_Node000007"><a xlink:href="classhelios_1_1engine_1_1modules_1_1spatial_1_1transform_1_1components_1_1ComposeTransformComponent.html#a30b0a87b82cd186ad903e7279c597418" target="_top" xlink:title="Sets the local scale.">
<polygon fill="white" stroke="#666666" points="233,-192 0,-192 0,-140 233,-140 233,-192"/>
<text text-anchor="start" x="8" y="-180" font-family="Helvetica,sans-Serif" font-size="10.00">helios::engine::modules</text>
<text text-anchor="start" x="8" y="-169" font-family="Helvetica,sans-Serif" font-size="10.00">::spatial::transform::</text>
<text text-anchor="start" x="8" y="-158" font-family="Helvetica,sans-Serif" font-size="10.00">components::ComposeTransformComponent</text>
<text text-anchor="middle" x="116.5" y="-147" font-family="Helvetica,sans-Serif" font-size="10.00">::setLocalScale</text>
</a>
</g>
</g>
<!-- Node1&#45;&gt;Node7 -->
<g id="edge6_Node000001_Node000007" class="edge">
<title>Node1&#45;&gt;Node7</title>
<g id="a_edge6_Node000001_Node000007"><a xlink:title=" ">
<path fill="none" stroke="#63b8ff" d="M323.63,-240.53C296.3,-227.46 263.41,-212.57 233,-201 224.87,-197.91 216.35,-194.9 207.76,-192.03"/>
<polygon fill="#63b8ff" stroke="#63b8ff" points="322.15,-243.7 332.68,-244.89 325.19,-237.39 322.15,-243.7"/>
</a>
</g>
</g>
<!-- Node8 -->
<g id="Node000008" class="node">
<title>Node8</title>
<g id="a_Node000008"><a xlink:href="classhelios_1_1engine_1_1modules_1_1spatial_1_1transform_1_1components_1_1ComposeTransformComponent.html#a0d9d0f56bc9fd5901338b32b26246bd3" target="_top" xlink:title="Sets the local translation (position).">
<polygon fill="white" stroke="#666666" points="233,-122 0,-122 0,-70 233,-70 233,-122"/>
<text text-anchor="start" x="8" y="-110" font-family="Helvetica,sans-Serif" font-size="10.00">helios::engine::modules</text>
<text text-anchor="start" x="8" y="-99" font-family="Helvetica,sans-Serif" font-size="10.00">::spatial::transform::</text>
<text text-anchor="start" x="8" y="-88" font-family="Helvetica,sans-Serif" font-size="10.00">components::ComposeTransformComponent</text>
<text text-anchor="middle" x="116.5" y="-77" font-family="Helvetica,sans-Serif" font-size="10.00">::setLocalTranslation</text>
</a>
</g>
</g>
<!-- Node1&#45;&gt;Node8 -->
<g id="edge7_Node000001_Node000008" class="edge">
<title>Node1&#45;&gt;Node8</title>
<g id="a_edge7_Node000001_Node000008"><a xlink:title=" ">
<path fill="none" stroke="#63b8ff" d="M356.04,-237.03C327.82,-205.37 281.85,-158.97 233,-131 227.36,-127.77 221.4,-124.81 215.27,-122.1"/>
<polygon fill="#63b8ff" stroke="#63b8ff" points="353.59,-239.54 362.82,-244.74 358.84,-234.92 353.59,-239.54"/>
</a>
</g>
</g>
<!-- Node9 -->
<g id="Node000009" class="node">
<title>Node9</title>
<g id="a_Node000009"><a xlink:href="classhelios_1_1engine_1_1modules_1_1spatial_1_1transform_1_1components_1_1ComposeTransformComponent.html#a07d4f4ad5e656f0fcce8bbb1757f5b4a" target="_top" xlink:title="Translates the component locally by a delta vector.">
<polygon fill="white" stroke="#666666" points="233,-52 0,-52 0,0 233,0 233,-52"/>
<text text-anchor="start" x="8" y="-40" font-family="Helvetica,sans-Serif" font-size="10.00">helios::engine::modules</text>
<text text-anchor="start" x="8" y="-29" font-family="Helvetica,sans-Serif" font-size="10.00">::spatial::transform::</text>
<text text-anchor="start" x="8" y="-18" font-family="Helvetica,sans-Serif" font-size="10.00">components::ComposeTransformComponent</text>
<text text-anchor="middle" x="116.5" y="-7" font-family="Helvetica,sans-Serif" font-size="10.00">::translateLocalBy</text>
</a>
</g>
</g>
<!-- Node1&#45;&gt;Node9 -->
<g id="edge8_Node000001_Node000009" class="edge">
<title>Node1&#45;&gt;Node9</title>
<g id="a_edge8_Node000001_Node000009"><a xlink:title=" ">
<path fill="none" stroke="#63b8ff" d="M368.18,-235.67C344.79,-188.88 297.35,-106.94 233,-61 228.4,-57.71 223.48,-54.73 218.36,-52.02"/>
<polygon fill="#63b8ff" stroke="#63b8ff" points="365.12,-237.38 372.67,-244.82 371.41,-234.3 365.12,-237.38"/>
</a>
</g>
</g>
</g>
</svg>
