<?xml version="1.0" encoding="UTF-8" standalone="no"?>
<!DOCTYPE svg PUBLIC "-//W3C//DTD SVG 1.1//EN"
 "http://www.w3.org/Graphics/SVG/1.1/DTD/svg11.dtd">
<!-- Generated by graphviz version 2.43.0 (0)
 -->
<!-- Title: helios::core::ecs::Entity::componentTypeIds Pages: 1 -->
<svg width="372pt" height="200pt"
 viewBox="0.00 0.00 372.00 200.00" xmlns="http://www.w3.org/2000/svg" xmlns:xlink="http://www.w3.org/1999/xlink">
<g id="graph0" class="graph" transform="scale(1 1) rotate(0) translate(4 196)">
<title>helios::core::ecs::Entity::componentTypeIds</title>
<!-- Node1 -->
<g id="Node000001" class="node">
<title>Node1</title>
<g id="a_Node000001"><a xlink:title="Returns a generator over all component type IDs attached to this entity.">
<polygon fill="#999999" stroke="#666666" points="364,-111 222,-111 222,-81 364,-81 364,-111"/>
<text text-anchor="start" x="230" y="-99" font-family="Helvetica,sans-Serif" font-size="10.00">helios::core::ecs::</text>
<text text-anchor="middle" x="293" y="-88" font-family="Helvetica,sans-Serif" font-size="10.00">Entity::componentTypeIds</text>
</a>
</g>
</g>
<!-- Node2 -->
<g id="Node000002" class="node">
<title>Node2</title>
<g id="a_Node000002"><a xlink:href="classhelios_1_1core_1_1ecs_1_1Entity.html#a4edf9b9901e09d392267345e2c7f50c7" target="_top" xlink:title=" ">
<polygon fill="white" stroke="#666666" points="186,-192 0,-192 0,-140 186,-140 186,-192"/>
<text text-anchor="start" x="8" y="-180" font-family="Helvetica,sans-Serif" font-size="10.00">helios::core::ecs::</text>
<text text-anchor="start" x="8" y="-169" font-family="Helvetica,sans-Serif" font-size="10.00">Entity&lt; typename TEntityManager</text>
<text text-anchor="start" x="8" y="-158" font-family="Helvetica,sans-Serif" font-size="10.00">::Handle_type, TEntityManager</text>
<text text-anchor="middle" x="93" y="-147" font-family="Helvetica,sans-Serif" font-size="10.00"> &gt;::onAcquire</text>
</a>
</g>
</g>
<!-- Node1&#45;&gt;Node2 -->
<g id="edge1_Node000001_Node000002" class="edge">
<title>Node1&#45;&gt;Node2</title>
<g id="a_edge1_Node000001_Node000002"><a xlink:title=" ">
<path fill="none" stroke="#63b8ff" d="M239.99,-114.39C217.86,-122.21 191.65,-131.48 167.59,-139.98"/>
<polygon fill="#63b8ff" stroke="#63b8ff" points="241.26,-117.65 249.52,-111.02 238.93,-111.05 241.26,-117.65"/>
</a>
</g>
</g>
<!-- Node3 -->
<g id="Node000003" class="node">
<title>Node3</title>
<g id="a_Node000003"><a xlink:href="classhelios_1_1core_1_1ecs_1_1Entity.html#ab705835e212e2d86cbf596a1fc744859" target="_top" xlink:title=" ">
<polygon fill="white" stroke="#666666" points="186,-122 0,-122 0,-70 186,-70 186,-122"/>
<text text-anchor="start" x="8" y="-110" font-family="Helvetica,sans-Serif" font-size="10.00">helios::core::ecs::</text>
<text text-anchor="start" x="8" y="-99" font-family="Helvetica,sans-Serif" font-size="10.00">Entity&lt; typename TEntityManager</text>
<text text-anchor="start" x="8" y="-88" font-family="Helvetica,sans-Serif" font-size="10.00">::Handle_type, TEntityManager</text>
<text text-anchor="middle" x="93" y="-77" font-family="Helvetica,sans-Serif" font-size="10.00"> &gt;::onRelease</text>
</a>
</g>
</g>
<!-- Node1&#45;&gt;Node3 -->
<g id="edge2_Node000001_Node000003" class="edge">
<title>Node1&#45;&gt;Node3</title>
<g id="a_edge2_Node000001_Node000003"><a xlink:title=" ">
<path fill="none" stroke="#63b8ff" d="M211.75,-96C203.33,-96 194.72,-96 186.18,-96"/>
<polygon fill="#63b8ff" stroke="#63b8ff" points="211.91,-99.5 221.91,-96 211.91,-92.5 211.91,-99.5"/>
</a>
</g>
</g>
<!-- Node4 -->
<g id="Node000004" class="node">
<title>Node4</title>
<g id="a_Node000004"><a xlink:href="classhelios_1_1core_1_1ecs_1_1Entity.html#a8481b5943825c17dcbe463e317efc0eb" target="_top" xlink:title=" ">
<polygon fill="white" stroke="#666666" points="186,-52 0,-52 0,0 186,0 186,-52"/>
<text text-anchor="start" x="8" y="-40" font-family="Helvetica,sans-Serif" font-size="10.00">helios::core::ecs::</text>
<text text-anchor="start" x="8" y="-29" font-family="Helvetica,sans-Serif" font-size="10.00">Entity&lt; typename TEntityManager</text>
<text text-anchor="start" x="8" y="-18" font-family="Helvetica,sans-Serif" font-size="10.00">::Handle_type, TEntityManager</text>
<text text-anchor="middle" x="93" y="-7" font-family="Helvetica,sans-Serif" font-size="10.00"> &gt;::setActive</text>
</a>
</g>
</g>
<!-- Node1&#45;&gt;Node4 -->
<g id="edge3_Node000001_Node000004" class="edge">
<title>Node1&#45;&gt;Node4</title>
<g id="a_edge3_Node000001_Node000004"><a xlink:title=" ">
<path fill="none" stroke="#63b8ff" d="M239.99,-77.61C217.86,-69.79 191.65,-60.52 167.59,-52.02"/>
<polygon fill="#63b8ff" stroke="#63b8ff" points="238.93,-80.95 249.52,-80.98 241.26,-74.35 238.93,-80.95"/>
</a>
</g>
</g>
</g>
</svg>
