<?xml version="1.0" encoding="UTF-8" standalone="no"?>
<!DOCTYPE svg PUBLIC "-//W3C//DTD SVG 1.1//EN"
 "http://www.w3.org/Graphics/SVG/1.1/DTD/svg11.dtd">
<!-- Generated by graphviz version 2.43.0 (0)
 -->
<!-- Title: helios::engine::mechanics::timing::GameTimer::restart Pages: 1 -->
<svg width="734pt" height="60pt"
 viewBox="0.00 0.00 734.00 60.00" xmlns="http://www.w3.org/2000/svg" xmlns:xlink="http://www.w3.org/1999/xlink">
<g id="graph0" class="graph" transform="scale(1 1) rotate(0) translate(4 56)">
<title>helios::engine::mechanics::timing::GameTimer::restart</title>
<!-- Node1 -->
<g id="Node000001" class="node">
<title>Node1</title>
<g id="a_Node000001"><a xlink:title="Resets timer by resetting its internal counter and setting its state to TimerState::Running.">
<polygon fill="#999999" stroke="#666666" points="156,-30 0,-30 0,0 156,0 156,-30"/>
<text text-anchor="start" x="8" y="-18" font-family="Helvetica,sans-Serif" font-size="10.00">helios::engine::mechanics</text>
<text text-anchor="middle" x="78" y="-7" font-family="Helvetica,sans-Serif" font-size="10.00">::timing::GameTimer::restart</text>
</a>
</g>
</g>
<!-- Node2 -->
<g id="Node000002" class="node">
<title>Node2</title>
<g id="a_Node000002"><a xlink:href="classhelios_1_1engine_1_1mechanics_1_1timing_1_1GameTimer.html#ac67b9232d05fe125567cab91eb6001cb" target="_top" xlink:title="Resets the elapsed time to zero and sets timer state to Undefined.">
<polygon fill="white" stroke="#666666" points="341,-30 192,-30 192,0 341,0 341,-30"/>
<text text-anchor="start" x="200" y="-18" font-family="Helvetica,sans-Serif" font-size="10.00">helios::engine::mechanics</text>
<text text-anchor="middle" x="266.5" y="-7" font-family="Helvetica,sans-Serif" font-size="10.00">::timing::GameTimer::reset</text>
</a>
</g>
</g>
<!-- Node1&#45;&gt;Node2 -->
<g id="edge1_Node000001_Node000002" class="edge">
<title>Node1&#45;&gt;Node2</title>
<g id="a_edge1_Node000001_Node000002"><a xlink:title=" ">
<path fill="none" stroke="#63b8ff" d="M156.2,-15C164.61,-15 173.2,-15 181.68,-15"/>
<polygon fill="#63b8ff" stroke="#63b8ff" points="181.95,-18.5 191.95,-15 181.95,-11.5 181.95,-18.5"/>
</a>
</g>
</g>
<!-- Node3 -->
<g id="Node000003" class="node">
<title>Node3</title>
<g id="a_Node000003"><a xlink:href="classhelios_1_1engine_1_1mechanics_1_1timing_1_1GameTimer.html#a9e02b98ba6e73fd17cb7d716f3c6d18b" target="_top" xlink:title="Sets the timer state.">
<polygon fill="white" stroke="#666666" points="541,-52 377,-52 377,-22 541,-22 541,-52"/>
<text text-anchor="start" x="385" y="-40" font-family="Helvetica,sans-Serif" font-size="10.00">helios::engine::mechanics</text>
<text text-anchor="middle" x="459" y="-29" font-family="Helvetica,sans-Serif" font-size="10.00">::timing::GameTimer::setState</text>
</a>
</g>
</g>
<!-- Node2&#45;&gt;Node3 -->
<g id="edge2_Node000002_Node000003" class="edge">
<title>Node2&#45;&gt;Node3</title>
<g id="a_edge2_Node000002_Node000003"><a xlink:title=" ">
<path fill="none" stroke="#63b8ff" d="M341.15,-23.51C349.58,-24.48 358.25,-25.48 366.87,-26.48"/>
<polygon fill="#63b8ff" stroke="#63b8ff" points="366.62,-29.97 376.95,-27.64 367.42,-23.02 366.62,-29.97"/>
</a>
</g>
</g>
<!-- Node4 -->
<g id="Node000004" class="node">
<title>Node4</title>
<g id="a_Node000004"><a xlink:href="classhelios_1_1engine_1_1mechanics_1_1timing_1_1GameTimer.html#ad6e0f8c4e930f0e4f9c20f957c10f1ed" target="_top" xlink:title="Returns the current timer state.">
<polygon fill="white" stroke="#666666" points="726,-30 577,-30 577,0 726,0 726,-30"/>
<text text-anchor="start" x="585" y="-18" font-family="Helvetica,sans-Serif" font-size="10.00">helios::engine::mechanics</text>
<text text-anchor="middle" x="651.5" y="-7" font-family="Helvetica,sans-Serif" font-size="10.00">::timing::GameTimer::state</text>
</a>
</g>
</g>
<!-- Node2&#45;&gt;Node4 -->
<g id="edge4_Node000002_Node000004" class="edge">
<title>Node2&#45;&gt;Node4</title>
<g id="a_edge4_Node000002_Node000004"><a xlink:title=" ">
<path fill="none" stroke="#63b8ff" d="M341.12,-13.47C353.11,-13.27 365.4,-13.11 377,-13 449.89,-12.33 468.11,-12.33 541,-13 549.34,-13.08 558.03,-13.18 566.71,-13.31"/>
<polygon fill="#63b8ff" stroke="#63b8ff" points="566.82,-16.81 576.88,-13.47 566.93,-9.82 566.82,-16.81"/>
</a>
</g>
</g>
<!-- Node3&#45;&gt;Node4 -->
<g id="edge3_Node000003_Node000004" class="edge">
<title>Node3&#45;&gt;Node4</title>
<g id="a_edge3_Node000003_Node000004"><a xlink:title=" ">
<path fill="none" stroke="#63b8ff" d="M541.07,-27.64C549.58,-26.65 558.25,-25.65 566.8,-24.67"/>
<polygon fill="#63b8ff" stroke="#63b8ff" points="567.22,-28.14 576.75,-23.52 566.42,-21.19 567.22,-28.14"/>
</a>
</g>
</g>
</g>
</svg>
