<?xml version="1.0" encoding="UTF-8" standalone="no"?>
<!DOCTYPE svg PUBLIC "-//W3C//DTD SVG 1.1//EN"
 "http://www.w3.org/Graphics/SVG/1.1/DTD/svg11.dtd">
<!-- Generated by graphviz version 2.43.0 (0)
 -->
<!-- Title: helios::engine::ecs::GameObject::setActive Pages: 1 -->
<svg width="534pt" height="134pt"
 viewBox="0.00 0.00 534.00 134.00" xmlns="http://www.w3.org/2000/svg" xmlns:xlink="http://www.w3.org/1999/xlink">
<g id="graph0" class="graph" transform="scale(1 1) rotate(0) translate(4 130)">
<title>helios::engine::ecs::GameObject::setActive</title>
<!-- Node1 -->
<g id="Node000001" class="node">
<title>Node1</title>
<g id="a_Node000001"><a xlink:title="Sets the activation state of this GameObject.">
<polygon fill="#999999" stroke="#666666" points="135,-78 0,-78 0,-48 135,-48 135,-78"/>
<text text-anchor="start" x="8" y="-66" font-family="Helvetica,sans-Serif" font-size="10.00">helios::engine::ecs</text>
<text text-anchor="middle" x="67.5" y="-55" font-family="Helvetica,sans-Serif" font-size="10.00">::GameObject::setActive</text>
</a>
</g>
</g>
<!-- Node2 -->
<g id="Node000002" class="node">
<title>Node2</title>
<g id="a_Node000002"><a xlink:href="classhelios_1_1engine_1_1ecs_1_1GameObject.html#a4f04eb1029e742649a0018361b0ff7b2" target="_top" xlink:title="Returns a generator over all component type IDs attached to this entity.">
<polygon fill="white" stroke="#666666" points="352,-126 171,-126 171,-96 352,-96 352,-126"/>
<text text-anchor="start" x="179" y="-114" font-family="Helvetica,sans-Serif" font-size="10.00">helios::engine::ecs</text>
<text text-anchor="middle" x="261.5" y="-103" font-family="Helvetica,sans-Serif" font-size="10.00">::GameObject::componentTypeIds</text>
</a>
</g>
</g>
<!-- Node1&#45;&gt;Node2 -->
<g id="edge1_Node000001_Node000002" class="edge">
<title>Node1&#45;&gt;Node2</title>
<g id="a_edge1_Node000001_Node000002"><a xlink:title=" ">
<path fill="none" stroke="#63b8ff" d="M128.72,-78.06C148.38,-82.97 170.37,-88.47 190.68,-93.54"/>
<polygon fill="#63b8ff" stroke="#63b8ff" points="189.94,-96.97 200.49,-96 191.64,-90.18 189.94,-96.97"/>
</a>
</g>
</g>
<!-- Node3 -->
<g id="Node000003" class="node">
<title>Node3</title>
<g id="a_Node000003"><a xlink:href="classhelios_1_1engine_1_1ecs_1_1ComponentOpsRegistry.html#a4f41db7b6ae7e83ba8092343d8620e59" target="_top" xlink:title="Retrieves ComponentOps for a component type.">
<polygon fill="white" stroke="#666666" points="342,-78 181,-78 181,-48 342,-48 342,-78"/>
<text text-anchor="start" x="189" y="-66" font-family="Helvetica,sans-Serif" font-size="10.00">helios::engine::ecs</text>
<text text-anchor="middle" x="261.5" y="-55" font-family="Helvetica,sans-Serif" font-size="10.00">::ComponentOpsRegistry::ops</text>
</a>
</g>
</g>
<!-- Node1&#45;&gt;Node3 -->
<g id="edge2_Node000001_Node000003" class="edge">
<title>Node1&#45;&gt;Node3</title>
<g id="a_edge2_Node000001_Node000003"><a xlink:title=" ">
<path fill="none" stroke="#63b8ff" d="M135.11,-63C146.62,-63 158.75,-63 170.75,-63"/>
<polygon fill="#63b8ff" stroke="#63b8ff" points="170.79,-66.5 180.79,-63 170.79,-59.5 170.79,-66.5"/>
</a>
</g>
</g>
<!-- Node5 -->
<g id="Node000005" class="node">
<title>Node5</title>
<g id="a_Node000005"><a xlink:href="classhelios_1_1engine_1_1ecs_1_1GameObject.html#ab1c1f6b81c4965b76967c29a6af7f713" target="_top" xlink:title="Returns raw pointer to component by type ID.">
<polygon fill="white" stroke="#666666" points="315,-30 208,-30 208,0 315,0 315,-30"/>
<text text-anchor="start" x="216" y="-18" font-family="Helvetica,sans-Serif" font-size="10.00">helios::engine::ecs</text>
<text text-anchor="middle" x="261.5" y="-7" font-family="Helvetica,sans-Serif" font-size="10.00">::GameObject::raw</text>
</a>
</g>
</g>
<!-- Node1&#45;&gt;Node5 -->
<g id="edge4_Node000001_Node000005" class="edge">
<title>Node1&#45;&gt;Node5</title>
<g id="a_edge4_Node000001_Node000005"><a xlink:title=" ">
<path fill="none" stroke="#63b8ff" d="M128.72,-47.94C150.75,-42.44 175.72,-36.2 197.95,-30.64"/>
<polygon fill="#63b8ff" stroke="#63b8ff" points="199.09,-33.96 207.95,-28.14 197.4,-27.17 199.09,-33.96"/>
</a>
</g>
</g>
<!-- Node4 -->
<g id="Node000004" class="node">
<title>Node4</title>
<g id="a_Node000004"><a xlink:href="classhelios_1_1engine_1_1core_1_1data_1_1ComponentTypeId.html#a324f7ed295515954f0147169dfdff208" target="_top" xlink:title="Returns the underlying ID value.">
<polygon fill="white" stroke="#666666" points="526,-83.5 388,-83.5 388,-42.5 526,-42.5 526,-83.5"/>
<text text-anchor="start" x="396" y="-71.5" font-family="Helvetica,sans-Serif" font-size="10.00">helios::engine::core</text>
<text text-anchor="start" x="396" y="-60.5" font-family="Helvetica,sans-Serif" font-size="10.00">::data::ComponentTypeId</text>
<text text-anchor="middle" x="457" y="-49.5" font-family="Helvetica,sans-Serif" font-size="10.00">::value</text>
</a>
</g>
</g>
<!-- Node3&#45;&gt;Node4 -->
<g id="edge3_Node000003_Node000004" class="edge">
<title>Node3&#45;&gt;Node4</title>
<g id="a_edge3_Node000003_Node000004"><a xlink:title=" ">
<path fill="none" stroke="#63b8ff" d="M342.04,-63C353.81,-63 365.93,-63 377.68,-63"/>
<polygon fill="#63b8ff" stroke="#63b8ff" points="377.89,-66.5 387.89,-63 377.89,-59.5 377.89,-66.5"/>
</a>
</g>
</g>
</g>
</svg>
