<?xml version="1.0" encoding="UTF-8" standalone="no"?>
<!DOCTYPE svg PUBLIC "-//W3C//DTD SVG 1.1//EN"
 "http://www.w3.org/Graphics/SVG/1.1/DTD/svg11.dtd">
<!-- Generated by graphviz version 2.43.0 (0)
 -->
<!-- Title: helios::engine::runtime::world::UpdateContext::UpdateContext Pages: 1 -->
<!--zoomable 462 -->

<svg id="main" version="1.1" xmlns="http://www.w3.org/2000/svg" xmlns:xlink="http://www.w3.org/1999/xlink" xml:space="preserve" onload="init(evt)">

<style type="text/css"><![CDATA[
.node, .edge {opacity: 0.7;}
.node.selected, .edge.selected {opacity: 1;}
.edge:hover path { stroke: red; }
.edge:hover polygon { stroke: red; fill: red; }
]]></style>

<defs>
  <circle id="rim" cx="0" cy="0" r="7"/>
  <circle id="rim2" cx="0" cy="0" r="3.5"/>
  <g id="zoomPlus">
    <use xlink:href="#rim" fill="#404040"><set attributeName="fill" to="#808080" begin="zoomplus.mouseover" end="zoomplus.mouseout"/></use>
    <path d="M-4,0h8M0,-4v8" fill="none" stroke="white" stroke-width="1.5" pointer-events="none"/>
  </g>
  <g id="zoomMin">
    <use xlink:href="#rim" fill="#404040"><set attributeName="fill" to="#808080" begin="zoomminus.mouseover" end="zoomminus.mouseout"/></use>
    <path d="M-4,0h8" fill="none" stroke="white" stroke-width="1.5" pointer-events="none"/>
  </g>
  <g id="arrowUp" transform="translate(30 24)">
    <use xlink:href="#rim"/>
    <path pointer-events="none" fill="none" stroke="white" stroke-width="1.5" d="M0,-3.0v7 M-2.5,-0.5L0,-3.0L2.5,-0.5"/>
  </g>
  <g id="arrowRight" transform="rotate(90) translate(36 -43)">
    <use xlink:href="#rim"/>
    <path pointer-events="none" fill="none" stroke="white" stroke-width="1.5" d="M0,-3.0v7 M-2.5,-0.5L0,-3.0L2.5,-0.5"/>
  </g>
  <g id="arrowDown" transform="rotate(180) translate(-30 -48)">
    <use xlink:href="#rim"/>
    <path pointer-events="none" fill="none" stroke="white" stroke-width="1.5" d="M0,-3.0v7 M-2.5,-0.5L0,-3.0L2.5,-0.5"/>
  </g>
  <g id="arrowLeft" transform="rotate(270) translate(-36 17)">
    <use xlink:href="#rim"/>
    <path pointer-events="none" fill="none" stroke="white" stroke-width="1.5" d="M0,-3.0v7 M-2.5,-0.5L0,-3.0L2.5,-0.5"/>
  </g>
  <g id="resetDef">
    <use xlink:href="#rim2" fill="#404040"><set attributeName="fill" to="#808080" begin="reset.mouseover" end="reset.mouseout"/></use>
  </g>
</defs>
<script type="application/ecmascript">
var viewWidth = 302;
var viewHeight = 462;
var sectionId = 'dynsection-0';
</script>
<script type="application/ecmascript" xlink:href="svg.min.js"/>
<svg id="graph" class="graph">
<g id="viewport">
<title>helios::engine::runtime::world::UpdateContext::UpdateContext</title>
<!-- Node1 -->
<g id="Node000001" class="node">
<title>Node1</title>
<g id="a_Node000001"><a xlink:title="Constructs an UpdateContext with all per&#45;frame dependencies.">
<polygon fill="#999999" stroke="#666666" points="129,-247 0,-247 0,-206 129,-206 129,-247"/>
<text text-anchor="start" x="8" y="-235" font-family="Helvetica,sans-Serif" font-size="10.00">helios::engine::runtime</text>
<text text-anchor="start" x="8" y="-224" font-family="Helvetica,sans-Serif" font-size="10.00">::world::UpdateContext</text>
<text text-anchor="middle" x="64.5" y="-213" font-family="Helvetica,sans-Serif" font-size="10.00">::UpdateContext</text>
</a>
</g>
</g>
<!-- Node2 -->
<g id="Node000002" class="node">
<title>Node2</title>
<g id="a_Node000002"><a xlink:href="classhelios_1_1engine_1_1runtime_1_1world_1_1UpdateContext.html#a0197c610dc51fc676bcde9b84545ed7b" target="_top" xlink:title="Returns the time elapsed since the last frame, in seconds.">
<polygon fill="white" stroke="#666666" points="294,-454 165,-454 165,-413 294,-413 294,-454"/>
<text text-anchor="start" x="173" y="-442" font-family="Helvetica,sans-Serif" font-size="10.00">helios::engine::runtime</text>
<text text-anchor="start" x="173" y="-431" font-family="Helvetica,sans-Serif" font-size="10.00">::world::UpdateContext</text>
<text text-anchor="middle" x="229.5" y="-420" font-family="Helvetica,sans-Serif" font-size="10.00">::deltaTime</text>
</a>
</g>
</g>
<!-- Node1&#45;&gt;Node2 -->
<g id="edge1_Node000001_Node000002" class="edge">
<title>Node1&#45;&gt;Node2</title>
<g id="a_edge1_Node000001_Node000002"><a xlink:title=" ">
<path fill="none" stroke="#63b8ff" d="M72.17,-247.09C84.85,-283.34 115.67,-359.03 165,-404.5 165.82,-405.26 166.67,-406 167.54,-406.73"/>
<polygon fill="#63b8ff" stroke="#63b8ff" points="165.7,-409.72 175.83,-412.82 169.84,-404.08 165.7,-409.72"/>
</a>
</g>
</g>
<!-- Node3 -->
<g id="Node000003" class="node">
<title>Node3</title>
<g id="a_Node000003"><a xlink:href="classhelios_1_1engine_1_1runtime_1_1world_1_1UpdateContext.html#a3fe9e7e3a39b27014a72342968e0a3b4" target="_top" xlink:title="Returns the EntityResolver for direct handle validation.">
<polygon fill="white" stroke="#666666" points="294,-395 165,-395 165,-354 294,-354 294,-395"/>
<text text-anchor="start" x="173" y="-383" font-family="Helvetica,sans-Serif" font-size="10.00">helios::engine::runtime</text>
<text text-anchor="start" x="173" y="-372" font-family="Helvetica,sans-Serif" font-size="10.00">::world::UpdateContext</text>
<text text-anchor="middle" x="229.5" y="-361" font-family="Helvetica,sans-Serif" font-size="10.00">::entityResolver</text>
</a>
</g>
</g>
<!-- Node1&#45;&gt;Node3 -->
<g id="edge2_Node000001_Node000003" class="edge">
<title>Node1&#45;&gt;Node3</title>
<g id="a_edge2_Node000001_Node000003"><a xlink:title=" ">
<path fill="none" stroke="#63b8ff" d="M78.41,-247.01C95.54,-272.84 127.95,-317.25 165,-345.5 166.36,-346.54 167.76,-347.55 169.19,-348.53"/>
<polygon fill="#63b8ff" stroke="#63b8ff" points="167.39,-351.53 177.73,-353.87 171.11,-345.6 167.39,-351.53"/>
</a>
</g>
</g>
<!-- Node4 -->
<g id="Node000004" class="node">
<title>Node4</title>
<g id="a_Node000004"><a xlink:href="classhelios_1_1engine_1_1runtime_1_1world_1_1UpdateContext.html#a1c9a47461e487485eeeaaf442510dd68" target="_top" xlink:title="Returns the immutable input snapshot for this frame.">
<polygon fill="white" stroke="#666666" points="294,-336 165,-336 165,-295 294,-295 294,-336"/>
<text text-anchor="start" x="173" y="-324" font-family="Helvetica,sans-Serif" font-size="10.00">helios::engine::runtime</text>
<text text-anchor="start" x="173" y="-313" font-family="Helvetica,sans-Serif" font-size="10.00">::world::UpdateContext</text>
<text text-anchor="middle" x="229.5" y="-302" font-family="Helvetica,sans-Serif" font-size="10.00">::inputSnapshot</text>
</a>
</g>
</g>
<!-- Node1&#45;&gt;Node4 -->
<g id="edge3_Node000001_Node000004" class="edge">
<title>Node1&#45;&gt;Node4</title>
<g id="a_edge3_Node000001_Node000004"><a xlink:title=" ">
<path fill="none" stroke="#63b8ff" d="M97.67,-247.18C116.9,-259.22 141.99,-274.36 165,-286.5 167.51,-287.83 170.1,-289.15 172.72,-290.47"/>
<polygon fill="#63b8ff" stroke="#63b8ff" points="171.21,-293.63 181.73,-294.88 174.29,-287.34 171.21,-293.63"/>
</a>
</g>
</g>
<!-- Node5 -->
<g id="Node000005" class="node">
<title>Node5</title>
<g id="a_Node000005"><a xlink:href="classhelios_1_1engine_1_1runtime_1_1world_1_1UpdateContext.html#ac28d2e3d69b43ef90a3a962a5bf3ef3c" target="_top" xlink:title="Returns the active Level.">
<polygon fill="white" stroke="#666666" points="294,-277 165,-277 165,-236 294,-236 294,-277"/>
<text text-anchor="start" x="173" y="-265" font-family="Helvetica,sans-Serif" font-size="10.00">helios::engine::runtime</text>
<text text-anchor="start" x="173" y="-254" font-family="Helvetica,sans-Serif" font-size="10.00">::world::UpdateContext</text>
<text text-anchor="middle" x="229.5" y="-243" font-family="Helvetica,sans-Serif" font-size="10.00">::level</text>
</a>
</g>
</g>
<!-- Node1&#45;&gt;Node5 -->
<g id="edge4_Node000001_Node000005" class="edge">
<title>Node1&#45;&gt;Node5</title>
<g id="a_edge4_Node000001_Node000005"><a xlink:title=" ">
<path fill="none" stroke="#63b8ff" d="M129.45,-238.27C137.85,-239.82 146.51,-241.41 155.05,-242.98"/>
<polygon fill="#63b8ff" stroke="#63b8ff" points="154.53,-246.44 165,-244.81 155.8,-239.56 154.53,-246.44"/>
</a>
</g>
</g>
<!-- Node6 -->
<g id="Node000006" class="node">
<title>Node6</title>
<g id="a_Node000006"><a xlink:href="classhelios_1_1engine_1_1runtime_1_1world_1_1UpdateContext.html#adaeb79c72c7affdd5c3197556c82665e" target="_top" xlink:title="Returns the ResourceRegistry for resource lookup.">
<polygon fill="white" stroke="#666666" points="294,-218 165,-218 165,-177 294,-177 294,-218"/>
<text text-anchor="start" x="173" y="-206" font-family="Helvetica,sans-Serif" font-size="10.00">helios::engine::runtime</text>
<text text-anchor="start" x="173" y="-195" font-family="Helvetica,sans-Serif" font-size="10.00">::world::UpdateContext</text>
<text text-anchor="middle" x="229.5" y="-184" font-family="Helvetica,sans-Serif" font-size="10.00">::resourceRegistry</text>
</a>
</g>
</g>
<!-- Node1&#45;&gt;Node6 -->
<g id="edge5_Node000001_Node000006" class="edge">
<title>Node1&#45;&gt;Node6</title>
<g id="a_edge5_Node000001_Node000006"><a xlink:title=" ">
<path fill="none" stroke="#63b8ff" d="M129.45,-215.12C137.85,-213.63 146.51,-212.09 155.05,-210.57"/>
<polygon fill="#63b8ff" stroke="#63b8ff" points="155.77,-214 165,-208.8 154.54,-207.1 155.77,-214"/>
</a>
</g>
</g>
<!-- Node7 -->
<g id="Node000007" class="node">
<title>Node7</title>
<g id="a_Node000007"><a xlink:href="classhelios_1_1engine_1_1runtime_1_1world_1_1UpdateContext.html#a538cadeb656147150f4a12261d67c7f7" target="_top" xlink:title="Returns the session for game/match state access.">
<polygon fill="white" stroke="#666666" points="294,-159 165,-159 165,-118 294,-118 294,-159"/>
<text text-anchor="start" x="173" y="-147" font-family="Helvetica,sans-Serif" font-size="10.00">helios::engine::runtime</text>
<text text-anchor="start" x="173" y="-136" font-family="Helvetica,sans-Serif" font-size="10.00">::world::UpdateContext</text>
<text text-anchor="middle" x="229.5" y="-125" font-family="Helvetica,sans-Serif" font-size="10.00">::session</text>
</a>
</g>
</g>
<!-- Node1&#45;&gt;Node7 -->
<g id="edge6_Node000001_Node000007" class="edge">
<title>Node1&#45;&gt;Node7</title>
<g id="a_edge6_Node000001_Node000007"><a xlink:title=" ">
<path fill="none" stroke="#63b8ff" d="M99.17,-205.9C118.25,-194.47 142.71,-180.24 165,-168.5 168.06,-166.89 171.22,-165.27 174.42,-163.66"/>
<polygon fill="#63b8ff" stroke="#63b8ff" points="176.1,-166.73 183.51,-159.16 172.99,-160.46 176.1,-166.73"/>
</a>
</g>
</g>
<!-- Node8 -->
<g id="Node000008" class="node">
<title>Node8</title>
<g id="a_Node000008"><a xlink:href="classhelios_1_1engine_1_1runtime_1_1world_1_1UpdateContext.html#ad7f5caca30eb2409b98e21f48c5a0e45" target="_top" xlink:title="Returns the time elapsed since the first frame, in seconds.">
<polygon fill="white" stroke="#666666" points="294,-100 165,-100 165,-59 294,-59 294,-100"/>
<text text-anchor="start" x="173" y="-88" font-family="Helvetica,sans-Serif" font-size="10.00">helios::engine::runtime</text>
<text text-anchor="start" x="173" y="-77" font-family="Helvetica,sans-Serif" font-size="10.00">::world::UpdateContext</text>
<text text-anchor="middle" x="229.5" y="-66" font-family="Helvetica,sans-Serif" font-size="10.00">::totalTime</text>
</a>
</g>
</g>
<!-- Node1&#45;&gt;Node8 -->
<g id="edge7_Node000001_Node000008" class="edge">
<title>Node1&#45;&gt;Node8</title>
<g id="a_edge7_Node000001_Node000008"><a xlink:title=" ">
<path fill="none" stroke="#63b8ff" d="M78.85,-205.98C96.19,-180.62 128.59,-137.39 165,-109.5 166.81,-108.11 168.69,-106.77 170.63,-105.47"/>
<polygon fill="#63b8ff" stroke="#63b8ff" points="172.73,-108.29 179.4,-100.06 169.05,-102.33 172.73,-108.29"/>
</a>
</g>
</g>
<!-- Node9 -->
<g id="Node000009" class="node">
<title>Node9</title>
<g id="a_Node000009"><a xlink:href="classhelios_1_1engine_1_1runtime_1_1world_1_1UpdateContext.html#a47e89a8a5cf18618ffdc6caccd012100" target="_top" xlink:title="Returns the viewport snapshots for this frame.">
<polygon fill="white" stroke="#666666" points="294,-41 165,-41 165,0 294,0 294,-41"/>
<text text-anchor="start" x="173" y="-29" font-family="Helvetica,sans-Serif" font-size="10.00">helios::engine::runtime</text>
<text text-anchor="start" x="173" y="-18" font-family="Helvetica,sans-Serif" font-size="10.00">::world::UpdateContext</text>
<text text-anchor="middle" x="229.5" y="-7" font-family="Helvetica,sans-Serif" font-size="10.00">::viewportSnapshots</text>
</a>
</g>
</g>
<!-- Node1&#45;&gt;Node9 -->
<g id="edge8_Node000001_Node000009" class="edge">
<title>Node1&#45;&gt;Node9</title>
<g id="a_edge8_Node000001_Node000009"><a xlink:title=" ">
<path fill="none" stroke="#63b8ff" d="M72.39,-205.92C85.33,-170.07 116.41,-95.66 165,-50.5 166.29,-49.3 167.64,-48.14 169.03,-47.02"/>
<polygon fill="#63b8ff" stroke="#63b8ff" points="171.32,-49.69 177.43,-41.03 167.26,-43.99 171.32,-49.69"/>
</a>
</g>
</g>
</g>
</svg>

<g id="navigator" transform="translate(0 0)" fill="#404254">
  <rect fill="#f2f5e9" fill-opacity="0.5" stroke="#606060" stroke-width=".5" x="0" y="0" width="60" height="60"/>
  <use id="zoomplus" xlink:href="#zoomPlus" x="17" y="9" onmousedown="handleZoom(evt,'in')"/>
  <use id="zoomminus" xlink:href="#zoomMin" x="42" y="9" onmousedown="handleZoom(evt,'out')"/>
  <use id="reset" xlink:href="#resetDef" x="30" y="36" onmousedown="handleReset()"/>
   <use id="arrowup" xlink:href="#arrowUp" x="0" y="0" onmousedown="handlePan(0,-1)"/>
  <use id="arrowright" xlink:href="#arrowRight" x="0" y="0" onmousedown="handlePan(1,0)"/>
  <use id="arrowdown" xlink:href="#arrowDown" x="0" y="0" onmousedown="handlePan(0,1)"/>
  <use id="arrowleft" xlink:href="#arrowLeft" x="0" y="0" onmousedown="handlePan(-1,0)"/>
</g>
<svg viewBox="0 0 15 15" width="100%" height="30px" preserveAspectRatio="xMaxYMin meet">
 <g id="arrow_out" transform="scale(0.3 0.3)">
  <a xlink:href="classhelios_1_1engine_1_1runtime_1_1world_1_1UpdateContext_a186df1b69195b2e1b62baf532aadf252_cgraph_org.svg" target="_base">
   <rect id="button" ry="5" rx="5" y="6" x="6" height="38" width="38"
        fill="#f2f5e9" fill-opacity="0.5" stroke="#606060" stroke-width="1.0"/>
   <path id="arrow"
     d="M 11.500037,31.436501 C 11.940474,20.09759 22.043105,11.32322 32.158766,21.979434 L 37.068811,17.246167 C 37.068811,17.246167 37.088388,32 37.088388,32 L 22.160133,31.978069 C 22.160133,31.978069 26.997745,27.140456 26.997745,27.140456 C 18.528582,18.264221 13.291696,25.230495 11.500037,31.436501 z"
     style="fill:#404040;"/>
  </a>
 </g>
</svg>

<style type='text/css'>
<![CDATA[
[data-mouse-over-selected='false'] { opacity: 0.7; }
[data-mouse-over-selected='true']  { opacity: 1.0; }
]]>
</style>
<script type="application/ecmascript"><![CDATA[
document.addEventListener('DOMContentLoaded', (event) => {
  highlightEdges();
  highlightAdjacentNodes();
});
]]></script>
</svg>
