<?xml version="1.0" encoding="UTF-8" standalone="no"?>
<!DOCTYPE svg PUBLIC "-//W3C//DTD SVG 1.1//EN"
 "http://www.w3.org/Graphics/SVG/1.1/DTD/svg11.dtd">
<!-- Generated by graphviz version 2.43.0 (0)
 -->
<!-- Title: helios::engine::modules::scene::types::SceneToViewportMap::add Pages: 1 -->
<!--zoomable 123 -->

<svg id="main" version="1.1" xmlns="http://www.w3.org/2000/svg" xmlns:xlink="http://www.w3.org/1999/xlink" xml:space="preserve" onload="init(evt)">

<style type="text/css"><![CDATA[
.node, .edge {opacity: 0.7;}
.node.selected, .edge.selected {opacity: 1;}
.edge:hover path { stroke: red; }
.edge:hover polygon { stroke: red; fill: red; }
]]></style>

<defs>
  <circle id="rim" cx="0" cy="0" r="7"/>
  <circle id="rim2" cx="0" cy="0" r="3.5"/>
  <g id="zoomPlus">
    <use xlink:href="#rim" fill="#404040"><set attributeName="fill" to="#808080" begin="zoomplus.mouseover" end="zoomplus.mouseout"/></use>
    <path d="M-4,0h8M0,-4v8" fill="none" stroke="white" stroke-width="1.5" pointer-events="none"/>
  </g>
  <g id="zoomMin">
    <use xlink:href="#rim" fill="#404040"><set attributeName="fill" to="#808080" begin="zoomminus.mouseover" end="zoomminus.mouseout"/></use>
    <path d="M-4,0h8" fill="none" stroke="white" stroke-width="1.5" pointer-events="none"/>
  </g>
  <g id="arrowUp" transform="translate(30 24)">
    <use xlink:href="#rim"/>
    <path pointer-events="none" fill="none" stroke="white" stroke-width="1.5" d="M0,-3.0v7 M-2.5,-0.5L0,-3.0L2.5,-0.5"/>
  </g>
  <g id="arrowRight" transform="rotate(90) translate(36 -43)">
    <use xlink:href="#rim"/>
    <path pointer-events="none" fill="none" stroke="white" stroke-width="1.5" d="M0,-3.0v7 M-2.5,-0.5L0,-3.0L2.5,-0.5"/>
  </g>
  <g id="arrowDown" transform="rotate(180) translate(-30 -48)">
    <use xlink:href="#rim"/>
    <path pointer-events="none" fill="none" stroke="white" stroke-width="1.5" d="M0,-3.0v7 M-2.5,-0.5L0,-3.0L2.5,-0.5"/>
  </g>
  <g id="arrowLeft" transform="rotate(270) translate(-36 17)">
    <use xlink:href="#rim"/>
    <path pointer-events="none" fill="none" stroke="white" stroke-width="1.5" d="M0,-3.0v7 M-2.5,-0.5L0,-3.0L2.5,-0.5"/>
  </g>
  <g id="resetDef">
    <use xlink:href="#rim2" fill="#404040"><set attributeName="fill" to="#808080" begin="reset.mouseover" end="reset.mouseout"/></use>
  </g>
</defs>
<script type="application/ecmascript">
var viewWidth = 1017;
var viewHeight = 123;
var sectionId = 'dynsection-0';
</script>
<script type="application/ecmascript" xlink:href="svg.min.js"/>
<svg id="graph" class="graph">
<g id="viewport">
<title>helios::engine::modules::scene::types::SceneToViewportMap::add</title>
<!-- Node1 -->
<g id="Node000001" class="node">
<title>Node1</title>
<g id="a_Node000001"><a xlink:title="Registers a scene&#45;viewport association.">
<polygon fill="#999999" stroke="#666666" points="173,-64.38 0,-64.38 0,-23.38 173,-23.38 173,-64.38"/>
<text text-anchor="start" x="8" y="-52.38" font-family="Helvetica,sans-Serif" font-size="10.00">helios::engine::modules</text>
<text text-anchor="start" x="8" y="-41.38" font-family="Helvetica,sans-Serif" font-size="10.00">::scene::types::SceneToViewport</text>
<text text-anchor="middle" x="86.5" y="-30.38" font-family="Helvetica,sans-Serif" font-size="10.00">Map::add</text>
</a>
</g>
</g>
<!-- Node2 -->
<g id="Node000002" class="node">
<title>Node2</title>
<g id="a_Node000002"><a xlink:href="classhelios_1_1engine_1_1modules_1_1scene_1_1types_1_1SceneToViewportMap.html#a9f4ae28ebe7c7e7d30e254cba076b3e4" target="_top" xlink:title="Checks if a scene is registered.">
<polygon fill="white" stroke="#666666" points="1009,-97.38 836,-97.38 836,-56.38 1009,-56.38 1009,-97.38"/>
<text text-anchor="start" x="844" y="-85.38" font-family="Helvetica,sans-Serif" font-size="10.00">helios::engine::modules</text>
<text text-anchor="start" x="844" y="-74.38" font-family="Helvetica,sans-Serif" font-size="10.00">::scene::types::SceneToViewport</text>
<text text-anchor="middle" x="922.5" y="-63.38" font-family="Helvetica,sans-Serif" font-size="10.00">Map::hasScene</text>
</a>
</g>
</g>
<!-- Node1&#45;&gt;Node2 -->
<g id="edge1_Node000001_Node000002" class="edge">
<title>Node1&#45;&gt;Node2</title>
<g id="a_edge1_Node000001_Node000002"><a xlink:title=" ">
<path fill="none" stroke="#63b8ff" d="M128.23,-64.44C151.29,-74.92 181.04,-86.56 209,-91.88 426.44,-133.28 687.92,-109.49 825.71,-91.41"/>
<polygon fill="#63b8ff" stroke="#63b8ff" points="826.37,-94.85 835.82,-90.06 825.45,-87.91 826.37,-94.85"/>
</a>
</g>
</g>
<!-- Node3 -->
<g id="Node000003" class="node">
<title>Node3</title>
<g id="a_Node000003"><a xlink:href="classhelios_1_1engine_1_1modules_1_1scene_1_1types_1_1SceneToViewportMap.html#a075a79e7901703977b9527c513192fa1" target="_top" xlink:title="Returns the scene associated with a viewport ID.">
<polygon fill="white" stroke="#666666" points="382,-64.38 209,-64.38 209,-23.38 382,-23.38 382,-64.38"/>
<text text-anchor="start" x="217" y="-52.38" font-family="Helvetica,sans-Serif" font-size="10.00">helios::engine::modules</text>
<text text-anchor="start" x="217" y="-41.38" font-family="Helvetica,sans-Serif" font-size="10.00">::scene::types::SceneToViewport</text>
<text text-anchor="middle" x="295.5" y="-30.38" font-family="Helvetica,sans-Serif" font-size="10.00">Map::scene</text>
</a>
</g>
</g>
<!-- Node1&#45;&gt;Node3 -->
<g id="edge2_Node000001_Node000003" class="edge">
<title>Node1&#45;&gt;Node3</title>
<g id="a_edge2_Node000001_Node000003"><a xlink:title=" ">
<path fill="none" stroke="#63b8ff" d="M173.19,-43.88C181.66,-43.88 190.3,-43.88 198.87,-43.88"/>
<polygon fill="#63b8ff" stroke="#63b8ff" points="198.88,-47.38 208.88,-43.88 198.88,-40.38 198.88,-47.38"/>
</a>
</g>
</g>
<!-- Node5 -->
<g id="Node000005" class="node">
<title>Node5</title>
<g id="a_Node000005"><a xlink:href="classhelios_1_1engine_1_1modules_1_1scene_1_1types_1_1SceneToViewportMap.html#acd8a90325af6ff14d38fdf43618643fe" target="_top" xlink:title="Returns a specific viewport for a scene.">
<polygon fill="white" stroke="#666666" points="800,-64.38 627,-64.38 627,-23.38 800,-23.38 800,-64.38"/>
<text text-anchor="start" x="635" y="-52.38" font-family="Helvetica,sans-Serif" font-size="10.00">helios::engine::modules</text>
<text text-anchor="start" x="635" y="-41.38" font-family="Helvetica,sans-Serif" font-size="10.00">::scene::types::SceneToViewport</text>
<text text-anchor="middle" x="713.5" y="-30.38" font-family="Helvetica,sans-Serif" font-size="10.00">Map::viewport</text>
</a>
</g>
</g>
<!-- Node1&#45;&gt;Node5 -->
<g id="edge9_Node000001_Node000005" class="edge">
<title>Node1&#45;&gt;Node5</title>
<g id="a_edge9_Node000001_Node000005"><a xlink:title=" ">
<path fill="none" stroke="#63b8ff" d="M161.22,-23.38C176.87,-19.84 193.39,-16.72 209,-14.88 377.61,4.96 422.39,4.96 591,-14.88 603.32,-16.33 616.2,-18.58 628.78,-21.2"/>
<polygon fill="#63b8ff" stroke="#63b8ff" points="628.27,-24.67 638.78,-23.38 629.75,-17.83 628.27,-24.67"/>
</a>
</g>
</g>
<!-- Node3&#45;&gt;Node3 -->
<g id="edge3_Node000003_Node000003" class="edge">
<title>Node3&#45;&gt;Node3</title>
<g id="a_edge3_Node000003_Node000003"><a xlink:title=" ">
<path fill="none" stroke="#63b8ff" d="M257.27,-64.48C253.1,-74.03 265.84,-82.38 295.5,-82.38 314.04,-82.38 325.96,-79.12 331.29,-74.34"/>
<polygon fill="#63b8ff" stroke="#63b8ff" points="334.72,-75.03 333.73,-64.48 327.93,-73.34 334.72,-75.03"/>
</a>
</g>
</g>
<!-- Node4 -->
<g id="Node000004" class="node">
<title>Node4</title>
<g id="a_Node000004"><a xlink:href="classhelios_1_1engine_1_1modules_1_1scene_1_1types_1_1SceneToViewportMap.html#a1604635a2b96d41229ec4838f8c1af86" target="_top" xlink:title="Rebuilds the internal cache if modifications were made.">
<polygon fill="white" stroke="#666666" points="591,-64.38 418,-64.38 418,-23.38 591,-23.38 591,-64.38"/>
<text text-anchor="start" x="426" y="-52.38" font-family="Helvetica,sans-Serif" font-size="10.00">helios::engine::modules</text>
<text text-anchor="start" x="426" y="-41.38" font-family="Helvetica,sans-Serif" font-size="10.00">::scene::types::SceneToViewport</text>
<text text-anchor="middle" x="504.5" y="-30.38" font-family="Helvetica,sans-Serif" font-size="10.00">Map::updateCache</text>
</a>
</g>
</g>
<!-- Node3&#45;&gt;Node4 -->
<g id="edge4_Node000003_Node000004" class="edge">
<title>Node3&#45;&gt;Node4</title>
<g id="a_edge4_Node000003_Node000004"><a xlink:title=" ">
<path fill="none" stroke="#63b8ff" d="M382.19,-43.88C390.66,-43.88 399.3,-43.88 407.87,-43.88"/>
<polygon fill="#63b8ff" stroke="#63b8ff" points="407.88,-47.38 417.88,-43.88 407.88,-40.38 407.88,-47.38"/>
</a>
</g>
</g>
<!-- Node4&#45;&gt;Node5 -->
<g id="edge5_Node000004_Node000005" class="edge">
<title>Node4&#45;&gt;Node5</title>
<g id="a_edge5_Node000004_Node000005"><a xlink:title=" ">
<path fill="none" stroke="#63b8ff" d="M591.19,-37.22C599.66,-37.14 608.3,-37.11 616.87,-37.15"/>
<polygon fill="#63b8ff" stroke="#63b8ff" points="616.85,-40.65 626.88,-37.22 616.9,-33.65 616.85,-40.65"/>
</a>
</g>
</g>
<!-- Node5&#45;&gt;Node2 -->
<g id="edge6_Node000005_Node000002" class="edge">
<title>Node5&#45;&gt;Node2</title>
<g id="a_edge6_Node000005_Node000002"><a xlink:title=" ">
<path fill="none" stroke="#63b8ff" d="M800.19,-57.54C808.66,-58.89 817.3,-60.27 825.87,-61.64"/>
<polygon fill="#63b8ff" stroke="#63b8ff" points="825.45,-65.11 835.88,-63.23 826.55,-58.2 825.45,-65.11"/>
</a>
</g>
</g>
<!-- Node5&#45;&gt;Node4 -->
<g id="edge7_Node000005_Node000004" class="edge">
<title>Node5&#45;&gt;Node4</title>
<g id="a_edge7_Node000005_Node000004"><a xlink:title=" ">
<path fill="none" stroke="#63b8ff" d="M626.88,-50.54C618.4,-50.63 609.76,-50.65 601.2,-50.62"/>
<polygon fill="#63b8ff" stroke="#63b8ff" points="601.21,-47.12 591.19,-50.54 601.16,-54.12 601.21,-47.12"/>
</a>
</g>
</g>
<!-- Node5&#45;&gt;Node5 -->
<g id="edge8_Node000005_Node000005" class="edge">
<title>Node5&#45;&gt;Node5</title>
<g id="a_edge8_Node000005_Node000005"><a xlink:title=" ">
<path fill="none" stroke="#63b8ff" d="M675.27,-64.48C671.1,-74.03 683.84,-82.38 713.5,-82.38 732.04,-82.38 743.96,-79.12 749.29,-74.34"/>
<polygon fill="#63b8ff" stroke="#63b8ff" points="752.72,-75.03 751.73,-64.48 745.93,-73.34 752.72,-75.03"/>
</a>
</g>
</g>
</g>
</svg>

<g id="navigator" transform="translate(0 0)" fill="#404254">
  <rect fill="#f2f5e9" fill-opacity="0.5" stroke="#606060" stroke-width=".5" x="0" y="0" width="60" height="60"/>
  <use id="zoomplus" xlink:href="#zoomPlus" x="17" y="9" onmousedown="handleZoom(evt,'in')"/>
  <use id="zoomminus" xlink:href="#zoomMin" x="42" y="9" onmousedown="handleZoom(evt,'out')"/>
  <use id="reset" xlink:href="#resetDef" x="30" y="36" onmousedown="handleReset()"/>
   <use id="arrowup" xlink:href="#arrowUp" x="0" y="0" onmousedown="handlePan(0,-1)"/>
  <use id="arrowright" xlink:href="#arrowRight" x="0" y="0" onmousedown="handlePan(1,0)"/>
  <use id="arrowdown" xlink:href="#arrowDown" x="0" y="0" onmousedown="handlePan(0,1)"/>
  <use id="arrowleft" xlink:href="#arrowLeft" x="0" y="0" onmousedown="handlePan(-1,0)"/>
</g>
<svg viewBox="0 0 15 15" width="100%" height="30px" preserveAspectRatio="xMaxYMin meet">
 <g id="arrow_out" transform="scale(0.3 0.3)">
  <a xlink:href="classhelios_1_1engine_1_1modules_1_1scene_1_1types_1_1SceneToViewportMap_a6cde3b0562ff3e4afe3a8b099f3d039f_cgraph_org.svg" target="_base">
   <rect id="button" ry="5" rx="5" y="6" x="6" height="38" width="38"
        fill="#f2f5e9" fill-opacity="0.5" stroke="#606060" stroke-width="1.0"/>
   <path id="arrow"
     d="M 11.500037,31.436501 C 11.940474,20.09759 22.043105,11.32322 32.158766,21.979434 L 37.068811,17.246167 C 37.068811,17.246167 37.088388,32 37.088388,32 L 22.160133,31.978069 C 22.160133,31.978069 26.997745,27.140456 26.997745,27.140456 C 18.528582,18.264221 13.291696,25.230495 11.500037,31.436501 z"
     style="fill:#404040;"/>
  </a>
 </g>
</svg>

<style type='text/css'>
<![CDATA[
[data-mouse-over-selected='false'] { opacity: 0.7; }
[data-mouse-over-selected='true']  { opacity: 1.0; }
]]>
</style>
<script type="application/ecmascript"><![CDATA[
document.addEventListener('DOMContentLoaded', (event) => {
  highlightEdges();
  highlightAdjacentNodes();
});
]]></script>
</svg>
