<?xml version="1.0" encoding="UTF-8" standalone="no"?>
<!DOCTYPE svg PUBLIC "-//W3C//DTD SVG 1.1//EN"
 "http://www.w3.org/Graphics/SVG/1.1/DTD/svg11.dtd">
<!-- Generated by graphviz version 2.43.0 (0)
 -->
<!-- Title: helios::engine::mechanics::timing::GameTimer::cancel Pages: 1 -->
<svg width="733pt" height="60pt"
 viewBox="0.00 0.00 733.00 60.00" xmlns="http://www.w3.org/2000/svg" xmlns:xlink="http://www.w3.org/1999/xlink">
<g id="graph0" class="graph" transform="scale(1 1) rotate(0) translate(4 56)">
<title>helios::engine::mechanics::timing::GameTimer::cancel</title>
<!-- Node1 -->
<g id="Node000001" class="node">
<title>Node1</title>
<g id="a_Node000001"><a xlink:title="Cancels this timer by setting its state to TimerState::Cancelled.">
<polygon fill="#999999" stroke="#666666" points="155,-30 0,-30 0,0 155,0 155,-30"/>
<text text-anchor="start" x="8" y="-18" font-family="Helvetica,sans-Serif" font-size="10.00">helios::engine::mechanics</text>
<text text-anchor="middle" x="77.5" y="-7" font-family="Helvetica,sans-Serif" font-size="10.00">::timing::GameTimer::cancel</text>
</a>
</g>
</g>
<!-- Node2 -->
<g id="Node000002" class="node">
<title>Node2</title>
<g id="a_Node000002"><a xlink:href="classhelios_1_1engine_1_1mechanics_1_1timing_1_1GameTimer.html#ac67b9232d05fe125567cab91eb6001cb" target="_top" xlink:title="Resets the elapsed time to zero and sets timer state to Undefined.">
<polygon fill="white" stroke="#666666" points="340,-30 191,-30 191,0 340,0 340,-30"/>
<text text-anchor="start" x="199" y="-18" font-family="Helvetica,sans-Serif" font-size="10.00">helios::engine::mechanics</text>
<text text-anchor="middle" x="265.5" y="-7" font-family="Helvetica,sans-Serif" font-size="10.00">::timing::GameTimer::reset</text>
</a>
</g>
</g>
<!-- Node1&#45;&gt;Node2 -->
<g id="edge1_Node000001_Node000002" class="edge">
<title>Node1&#45;&gt;Node2</title>
<g id="a_edge1_Node000001_Node000002"><a xlink:title=" ">
<path fill="none" stroke="#63b8ff" d="M155.23,-15C163.62,-15 172.2,-15 180.67,-15"/>
<polygon fill="#63b8ff" stroke="#63b8ff" points="180.94,-18.5 190.94,-15 180.94,-11.5 180.94,-18.5"/>
</a>
</g>
</g>
<!-- Node3 -->
<g id="Node000003" class="node">
<title>Node3</title>
<g id="a_Node000003"><a xlink:href="classhelios_1_1engine_1_1mechanics_1_1timing_1_1GameTimer.html#a9e02b98ba6e73fd17cb7d716f3c6d18b" target="_top" xlink:title="Sets the timer state.">
<polygon fill="white" stroke="#666666" points="540,-52 376,-52 376,-22 540,-22 540,-52"/>
<text text-anchor="start" x="384" y="-40" font-family="Helvetica,sans-Serif" font-size="10.00">helios::engine::mechanics</text>
<text text-anchor="middle" x="458" y="-29" font-family="Helvetica,sans-Serif" font-size="10.00">::timing::GameTimer::setState</text>
</a>
</g>
</g>
<!-- Node2&#45;&gt;Node3 -->
<g id="edge2_Node000002_Node000003" class="edge">
<title>Node2&#45;&gt;Node3</title>
<g id="a_edge2_Node000002_Node000003"><a xlink:title=" ">
<path fill="none" stroke="#63b8ff" d="M340.15,-23.51C348.58,-24.48 357.25,-25.48 365.87,-26.48"/>
<polygon fill="#63b8ff" stroke="#63b8ff" points="365.62,-29.97 375.95,-27.64 366.42,-23.02 365.62,-29.97"/>
</a>
</g>
</g>
<!-- Node4 -->
<g id="Node000004" class="node">
<title>Node4</title>
<g id="a_Node000004"><a xlink:href="classhelios_1_1engine_1_1mechanics_1_1timing_1_1GameTimer.html#ad6e0f8c4e930f0e4f9c20f957c10f1ed" target="_top" xlink:title="Returns the current timer state.">
<polygon fill="white" stroke="#666666" points="725,-30 576,-30 576,0 725,0 725,-30"/>
<text text-anchor="start" x="584" y="-18" font-family="Helvetica,sans-Serif" font-size="10.00">helios::engine::mechanics</text>
<text text-anchor="middle" x="650.5" y="-7" font-family="Helvetica,sans-Serif" font-size="10.00">::timing::GameTimer::state</text>
</a>
</g>
</g>
<!-- Node2&#45;&gt;Node4 -->
<g id="edge4_Node000002_Node000004" class="edge">
<title>Node2&#45;&gt;Node4</title>
<g id="a_edge4_Node000002_Node000004"><a xlink:title=" ">
<path fill="none" stroke="#63b8ff" d="M340.12,-13.47C352.11,-13.27 364.4,-13.11 376,-13 448.89,-12.33 467.11,-12.33 540,-13 548.34,-13.08 557.03,-13.18 565.71,-13.31"/>
<polygon fill="#63b8ff" stroke="#63b8ff" points="565.82,-16.81 575.88,-13.47 565.93,-9.82 565.82,-16.81"/>
</a>
</g>
</g>
<!-- Node3&#45;&gt;Node4 -->
<g id="edge3_Node000003_Node000004" class="edge">
<title>Node3&#45;&gt;Node4</title>
<g id="a_edge3_Node000003_Node000004"><a xlink:title=" ">
<path fill="none" stroke="#63b8ff" d="M540.07,-27.64C548.58,-26.65 557.25,-25.65 565.8,-24.67"/>
<polygon fill="#63b8ff" stroke="#63b8ff" points="566.22,-28.14 575.75,-23.52 565.42,-21.19 566.22,-28.14"/>
</a>
</g>
</g>
</g>
</svg>
