<?xml version="1.0" encoding="UTF-8" standalone="no"?>
<!DOCTYPE svg PUBLIC "-//W3C//DTD SVG 1.1//EN"
 "http://www.w3.org/Graphics/SVG/1.1/DTD/svg11.dtd">
<!-- Generated by graphviz version 2.43.0 (0)
 -->
<!-- Title: helios::engine::runtime::world::types::ManagerTypeId::id Pages: 1 -->
<svg width="584pt" height="49pt"
 viewBox="0.00 0.00 584.00 49.00" xmlns="http://www.w3.org/2000/svg" xmlns:xlink="http://www.w3.org/1999/xlink">
<g id="graph0" class="graph" transform="scale(1 1) rotate(0) translate(4 45)">
<title>helios::engine::runtime::world::types::ManagerTypeId::id</title>
<!-- Node1 -->
<g id="Node000001" class="node">
<title>Node1</title>
<g id="a_Node000001"><a xlink:title="Returns the ManagerTypeId for a specific type.">
<polygon fill="#999999" stroke="#666666" points="576,-35.5 398,-35.5 398,-5.5 576,-5.5 576,-35.5"/>
<text text-anchor="start" x="406" y="-23.5" font-family="Helvetica,sans-Serif" font-size="10.00">helios::engine::runtime</text>
<text text-anchor="middle" x="487" y="-12.5" font-family="Helvetica,sans-Serif" font-size="10.00">::world::types::ManagerTypeId::id</text>
</a>
</g>
</g>
<!-- Node2 -->
<g id="Node000002" class="node">
<title>Node2</title>
<g id="a_Node000002"><a xlink:href="classhelios_1_1engine_1_1runtime_1_1world_1_1types_1_1ManagerTypeId.html#a48f2bb2810d3ae1c6b9f9fb3d6c08722" target="_top" xlink:title="Constructs a ManagerTypeId with a specific value.">
<polygon fill="white" stroke="#666666" points="362,-41 199,-41 199,0 362,0 362,-41"/>
<text text-anchor="start" x="207" y="-29" font-family="Helvetica,sans-Serif" font-size="10.00">helios::engine::runtime</text>
<text text-anchor="start" x="207" y="-18" font-family="Helvetica,sans-Serif" font-size="10.00">::world::types::ManagerTypeId</text>
<text text-anchor="middle" x="280.5" y="-7" font-family="Helvetica,sans-Serif" font-size="10.00">::ManagerTypeId</text>
</a>
</g>
</g>
<!-- Node1&#45;&gt;Node2 -->
<g id="edge1_Node000001_Node000002" class="edge">
<title>Node1&#45;&gt;Node2</title>
<g id="a_edge1_Node000001_Node000002"><a xlink:title=" ">
<path fill="none" stroke="#63b8ff" d="M387.71,-13.75C379.1,-13.73 370.45,-13.78 362,-13.89"/>
<polygon fill="#63b8ff" stroke="#63b8ff" points="387.77,-17.25 397.79,-13.81 387.81,-10.25 387.77,-17.25"/>
</a>
</g>
</g>
<!-- Node2&#45;&gt;Node1 -->
<g id="edge2_Node000002_Node000001" class="edge">
<title>Node2&#45;&gt;Node1</title>
<g id="a_edge2_Node000002_Node000001"><a xlink:title=" ">
<path fill="none" stroke="#63b8ff" d="M372.27,-27.21C380.75,-27.27 389.34,-27.26 397.79,-27.19"/>
<polygon fill="#63b8ff" stroke="#63b8ff" points="372.04,-23.71 362,-27.11 371.97,-30.71 372.04,-23.71"/>
</a>
</g>
</g>
<!-- Node3 -->
<g id="Node000003" class="node">
<title>Node3</title>
<g id="a_Node000003"><a xlink:href="classhelios_1_1engine_1_1runtime_1_1world_1_1types_1_1ManagerTypeId.html#a6c1b10e365cdc7e99e25d7c47b6d45a7" target="_top" xlink:title=" ">
<polygon fill="white" stroke="#666666" points="163,-41 0,-41 0,0 163,0 163,-41"/>
<text text-anchor="start" x="8" y="-29" font-family="Helvetica,sans-Serif" font-size="10.00">helios::engine::runtime</text>
<text text-anchor="start" x="8" y="-18" font-family="Helvetica,sans-Serif" font-size="10.00">::world::types::ManagerTypeId</text>
<text text-anchor="middle" x="81.5" y="-7" font-family="Helvetica,sans-Serif" font-size="10.00">::operator==</text>
</a>
</g>
</g>
<!-- Node2&#45;&gt;Node3 -->
<g id="edge3_Node000002_Node000003" class="edge">
<title>Node2&#45;&gt;Node3</title>
<g id="a_edge3_Node000002_Node000003"><a xlink:title=" ">
<path fill="none" stroke="#63b8ff" d="M188.78,-20.5C180.2,-20.5 171.55,-20.5 163.07,-20.5"/>
<polygon fill="#63b8ff" stroke="#63b8ff" points="188.8,-24 198.8,-20.5 188.8,-17 188.8,-24"/>
</a>
</g>
</g>
</g>
</svg>
