<?xml version="1.0" encoding="UTF-8" standalone="no"?>
<!DOCTYPE svg PUBLIC "-//W3C//DTD SVG 1.1//EN"
 "http://www.w3.org/Graphics/SVG/1.1/DTD/svg11.dtd">
<!-- Generated by graphviz version 2.43.0 (0)
 -->
<!-- Title: helios::engine::runtime::world::Manager Pages: 1 -->
<svg width="358pt" height="98pt"
 viewBox="0.00 0.00 358.00 97.50" xmlns="http://www.w3.org/2000/svg" xmlns:xlink="http://www.w3.org/1999/xlink">
<g id="graph0" class="graph" transform="scale(1 1) rotate(0) translate(4 93.5)">
<title>helios::engine::runtime::world::Manager</title>
<!-- Node1 -->
<g id="Node000001" class="node">
<title>Node1</title>
<g id="a_Node000001"><a xlink:title="Abstract base class for managers that process deferred operations.">
<polygon fill="#999999" stroke="#666666" points="129,-57 0,-57 0,-27 129,-27 129,-57"/>
<text text-anchor="start" x="8" y="-45" font-family="Helvetica,sans-Serif" font-size="10.00">helios::engine::runtime</text>
<text text-anchor="middle" x="64.5" y="-34" font-family="Helvetica,sans-Serif" font-size="10.00">::world::Manager</text>
</a>
</g>
</g>
<!-- Node2 -->
<g id="Node000002" class="node">
<title>Node2</title>
<g id="a_Node000002"><a xlink:href="classhelios_1_1engine_1_1mechanics_1_1combat_1_1manager_1_1ProjectilePoolManager.html" target="_top" xlink:title="Manager for projectile spawning with rate&#45;limited pooling.">
<polygon fill="white" stroke="#666666" points="348.5,-89.5 166.5,-89.5 166.5,-48.5 348.5,-48.5 348.5,-89.5"/>
<text text-anchor="start" x="174.5" y="-77.5" font-family="Helvetica,sans-Serif" font-size="10.00">helios::engine::mechanics</text>
<text text-anchor="start" x="174.5" y="-66.5" font-family="Helvetica,sans-Serif" font-size="10.00">::combat::manager::ProjectilePool</text>
<text text-anchor="middle" x="257.5" y="-55.5" font-family="Helvetica,sans-Serif" font-size="10.00">Manager</text>
</a>
</g>
</g>
<!-- Node1&#45;&gt;Node2 -->
<g id="edge1_Node000001_Node000002" class="edge">
<title>Node1&#45;&gt;Node2</title>
<g id="a_edge1_Node000001_Node000002"><a xlink:title=" ">
<path fill="none" stroke="#63b8ff" d="M139.04,-52.4C147.97,-53.66 157.16,-54.96 166.29,-56.25"/>
<polygon fill="#63b8ff" stroke="#63b8ff" points="139.49,-48.92 129.1,-50.99 138.51,-55.86 139.49,-48.92"/>
</a>
</g>
</g>
<!-- Node3 -->
<g id="Node000003" class="node">
<title>Node3</title>
<g id="a_Node000003"><a xlink:href="classhelios_1_1engine_1_1mechanics_1_1spawn_1_1manager_1_1SpawnManager.html" target="_top" xlink:title="Manager for processing spawn and despawn requests.">
<polygon fill="white" stroke="#666666" points="350,-30 165,-30 165,0 350,0 350,-30"/>
<text text-anchor="start" x="173" y="-18" font-family="Helvetica,sans-Serif" font-size="10.00">helios::engine::mechanics</text>
<text text-anchor="middle" x="257.5" y="-7" font-family="Helvetica,sans-Serif" font-size="10.00">::spawn::manager::SpawnManager</text>
</a>
</g>
</g>
<!-- Node1&#45;&gt;Node3 -->
<g id="edge2_Node000001_Node000003" class="edge">
<title>Node1&#45;&gt;Node3</title>
<g id="a_edge2_Node000001_Node000003"><a xlink:title=" ">
<path fill="none" stroke="#63b8ff" d="M139.23,-31.58C147.65,-30.39 156.31,-29.16 164.92,-27.95"/>
<polygon fill="#63b8ff" stroke="#63b8ff" points="138.51,-28.14 129.1,-33.01 139.49,-35.08 138.51,-28.14"/>
</a>
</g>
</g>
</g>
</svg>
