<?xml version="1.0" encoding="UTF-8" standalone="no"?>
<!DOCTYPE svg PUBLIC "-//W3C//DTD SVG 1.1//EN"
 "http://www.w3.org/Graphics/SVG/1.1/DTD/svg11.dtd">
<!-- Generated by graphviz version 2.43.0 (0)
 -->
<!-- Title: helios::engine::modules::scene::components::SceneNodeComponent::SceneNodeComponent Pages: 1 -->
<svg width="638pt" height="220pt"
 viewBox="0.00 0.00 638.00 219.50" xmlns="http://www.w3.org/2000/svg" xmlns:xlink="http://www.w3.org/1999/xlink">
<g id="graph0" class="graph" transform="scale(1 1) rotate(0) translate(4 215.5)">
<title>helios::engine::modules::scene::components::SceneNodeComponent::SceneNodeComponent</title>
<!-- Node1 -->
<g id="Node000001" class="node">
<title>Node1</title>
<g id="a_Node000001"><a xlink:title=" ">
<polygon fill="#999999" stroke="#666666" points="190,-111 0,-111 0,-70 190,-70 190,-111"/>
<text text-anchor="start" x="8" y="-99" font-family="Helvetica,sans-Serif" font-size="10.00">helios::engine::modules</text>
<text text-anchor="start" x="8" y="-88" font-family="Helvetica,sans-Serif" font-size="10.00">::scene::components::SceneNode</text>
<text text-anchor="middle" x="95" y="-77" font-family="Helvetica,sans-Serif" font-size="10.00">Component::SceneNodeComponent</text>
</a>
</g>
</g>
<!-- Node2 -->
<g id="Node000002" class="node">
<title>Node2</title>
<g id="a_Node000002"><a xlink:href="classhelios_1_1scene_1_1SceneNode.html#a4e31b52717a76a9bae9a80a1db0b808b" target="_top" xlink:title="Returns a pointer to this node&#39;s parent node.">
<polygon fill="white" stroke="#666666" points="391.5,-193.5 250.5,-193.5 250.5,-163.5 391.5,-163.5 391.5,-193.5"/>
<text text-anchor="start" x="258.5" y="-181.5" font-family="Helvetica,sans-Serif" font-size="10.00">helios::scene::SceneNode</text>
<text text-anchor="middle" x="321" y="-170.5" font-family="Helvetica,sans-Serif" font-size="10.00">::parent</text>
</a>
</g>
</g>
<!-- Node1&#45;&gt;Node2 -->
<g id="edge1_Node000001_Node000002" class="edge">
<title>Node1&#45;&gt;Node2</title>
<g id="a_edge1_Node000001_Node000002"><a xlink:title=" ">
<path fill="none" stroke="#63b8ff" d="M132.64,-111.09C158.2,-124.82 193.43,-142.47 226,-154.5 231.86,-156.66 237.99,-158.7 244.2,-160.61"/>
<polygon fill="#63b8ff" stroke="#63b8ff" points="243.4,-164.02 253.98,-163.5 245.38,-157.31 243.4,-164.02"/>
</a>
</g>
</g>
<!-- Node4 -->
<g id="Node000004" class="node">
<title>Node4</title>
<g id="a_Node000004"><a xlink:href="classhelios_1_1scene_1_1SceneNode.html#a2f4bba61e70c28e98747ee84af651812" target="_top" xlink:title="Returns a shared pointer to the Renderable of this SceneNode.">
<polygon fill="white" stroke="#666666" points="391.5,-127.5 250.5,-127.5 250.5,-97.5 391.5,-97.5 391.5,-127.5"/>
<text text-anchor="start" x="258.5" y="-115.5" font-family="Helvetica,sans-Serif" font-size="10.00">helios::scene::SceneNode</text>
<text text-anchor="middle" x="321" y="-104.5" font-family="Helvetica,sans-Serif" font-size="10.00">::renderable</text>
</a>
</g>
</g>
<!-- Node1&#45;&gt;Node4 -->
<g id="edge5_Node000001_Node000004" class="edge">
<title>Node1&#45;&gt;Node4</title>
<g id="a_edge5_Node000001_Node000004"><a xlink:title=" ">
<path fill="none" stroke="#63b8ff" d="M190.02,-99.73C206.78,-101.38 224.09,-103.08 240.39,-104.68"/>
<polygon fill="#63b8ff" stroke="#63b8ff" points="240.11,-108.17 250.4,-105.66 240.79,-101.2 240.11,-108.17"/>
</a>
</g>
</g>
<!-- Node5 -->
<g id="Node000005" class="node">
<title>Node5</title>
<g id="a_Node000005"><a xlink:href="classhelios_1_1engine_1_1modules_1_1scene_1_1components_1_1SceneNodeComponent.html#a2d3a7cf3e112c9fab02b13bc099183f1" target="_top" xlink:title="Returns the underlying SceneNode.">
<polygon fill="white" stroke="#666666" points="630,-66 452,-66 452,-25 630,-25 630,-66"/>
<text text-anchor="start" x="460" y="-54" font-family="Helvetica,sans-Serif" font-size="10.00">helios::engine::modules</text>
<text text-anchor="start" x="460" y="-43" font-family="Helvetica,sans-Serif" font-size="10.00">::scene::components::SceneNode</text>
<text text-anchor="middle" x="541" y="-32" font-family="Helvetica,sans-Serif" font-size="10.00">Component::sceneNode</text>
</a>
</g>
</g>
<!-- Node1&#45;&gt;Node5 -->
<g id="edge7_Node000001_Node000005" class="edge">
<title>Node1&#45;&gt;Node5</title>
<g id="a_edge7_Node000001_Node000005"><a xlink:title=" ">
<path fill="none" stroke="#63b8ff" d="M190.16,-80.96C263.95,-73.48 366.32,-63.1 441.25,-55.51"/>
<polygon fill="#63b8ff" stroke="#63b8ff" points="442.04,-58.95 451.64,-54.46 441.34,-51.98 442.04,-58.95"/>
</a>
</g>
</g>
<!-- Node6 -->
<g id="Node000006" class="node">
<title>Node6</title>
<g id="a_Node000006"><a xlink:href="classhelios_1_1engine_1_1modules_1_1scene_1_1components_1_1SceneNodeComponent.html#a661dd175ad9614ef413c2366508d31fd" target="_top" xlink:title="Constructs a SceneNodeComponent linked to a SceneNode.">
<polygon fill="white" stroke="#666666" points="416,-41 226,-41 226,0 416,0 416,-41"/>
<text text-anchor="start" x="234" y="-29" font-family="Helvetica,sans-Serif" font-size="10.00">helios::engine::modules</text>
<text text-anchor="start" x="234" y="-18" font-family="Helvetica,sans-Serif" font-size="10.00">::scene::components::SceneNode</text>
<text text-anchor="middle" x="321" y="-7" font-family="Helvetica,sans-Serif" font-size="10.00">Component::SceneNodeComponent</text>
</a>
</g>
</g>
<!-- Node1&#45;&gt;Node6 -->
<g id="edge8_Node000001_Node000006" class="edge">
<title>Node1&#45;&gt;Node6</title>
<g id="a_edge8_Node000001_Node000006"><a xlink:title=" ">
<path fill="none" stroke="#63b8ff" d="M161.69,-69.97C187.68,-61.85 217.7,-52.47 244.56,-44.07"/>
<polygon fill="#63b8ff" stroke="#63b8ff" points="245.81,-47.35 254.31,-41.03 243.72,-40.67 245.81,-47.35"/>
</a>
</g>
</g>
<!-- Node2&#45;&gt;Node2 -->
<g id="edge2_Node000002_Node000002" class="edge">
<title>Node2&#45;&gt;Node2</title>
<g id="a_edge2_Node000002_Node000002"><a xlink:title=" ">
<path fill="none" stroke="#63b8ff" d="M282.33,-193.78C273.73,-202.91 286.62,-211.5 321,-211.5 341.41,-211.5 354.25,-208.47 359.51,-204.1"/>
<polygon fill="#63b8ff" stroke="#63b8ff" points="363.01,-203.83 359.67,-193.78 356.01,-203.72 363.01,-203.83"/>
</a>
</g>
</g>
<!-- Node3 -->
<g id="Node000003" class="node">
<title>Node3</title>
<g id="a_Node000003"><a xlink:href="classhelios_1_1scene_1_1SceneNode.html#a30ad1d7f49d6114a261cbac2706546ab" target="_top" xlink:title="Delete copy constructor. A SceneNode is not copyable.">
<polygon fill="white" stroke="#666666" points="611.5,-193.5 470.5,-193.5 470.5,-163.5 611.5,-163.5 611.5,-193.5"/>
<text text-anchor="start" x="478.5" y="-181.5" font-family="Helvetica,sans-Serif" font-size="10.00">helios::scene::SceneNode</text>
<text text-anchor="middle" x="541" y="-170.5" font-family="Helvetica,sans-Serif" font-size="10.00">::SceneNode</text>
</a>
</g>
</g>
<!-- Node2&#45;&gt;Node3 -->
<g id="edge3_Node000002_Node000003" class="edge">
<title>Node2&#45;&gt;Node3</title>
<g id="a_edge3_Node000002_Node000003"><a xlink:title=" ">
<path fill="none" stroke="#63b8ff" d="M391.58,-178.5C413.4,-178.5 437.67,-178.5 460.15,-178.5"/>
<polygon fill="#63b8ff" stroke="#63b8ff" points="460.34,-182 470.34,-178.5 460.34,-175 460.34,-182"/>
</a>
</g>
</g>
<!-- Node3&#45;&gt;Node3 -->
<g id="edge4_Node000003_Node000003" class="edge">
<title>Node3&#45;&gt;Node3</title>
<g id="a_edge4_Node000003_Node000003"><a xlink:title=" ">
<path fill="none" stroke="#63b8ff" d="M502.33,-193.78C493.73,-202.91 506.62,-211.5 541,-211.5 561.41,-211.5 574.25,-208.47 579.51,-204.1"/>
<polygon fill="#63b8ff" stroke="#63b8ff" points="583.01,-203.83 579.67,-193.78 576.01,-203.72 583.01,-203.83"/>
</a>
</g>
</g>
<!-- Node4&#45;&gt;Node4 -->
<g id="edge6_Node000004_Node000004" class="edge">
<title>Node4&#45;&gt;Node4</title>
<g id="a_edge6_Node000004_Node000004"><a xlink:title=" ">
<path fill="none" stroke="#63b8ff" d="M282.33,-127.78C273.73,-136.91 286.62,-145.5 321,-145.5 341.41,-145.5 354.25,-142.47 359.51,-138.1"/>
<polygon fill="#63b8ff" stroke="#63b8ff" points="363.01,-137.83 359.67,-127.78 356.01,-137.72 363.01,-137.83"/>
</a>
</g>
</g>
<!-- Node6&#45;&gt;Node5 -->
<g id="edge9_Node000006_Node000005" class="edge">
<title>Node6&#45;&gt;Node5</title>
<g id="a_edge9_Node000006_Node000005"><a xlink:title=" ">
<path fill="none" stroke="#63b8ff" d="M416.03,-31.28C424.56,-32.26 433.22,-33.25 441.79,-34.24"/>
<polygon fill="#63b8ff" stroke="#63b8ff" points="441.45,-37.72 451.79,-35.38 442.25,-30.77 441.45,-37.72"/>
</a>
</g>
</g>
</g>
</svg>
