<?xml version="1.0" encoding="UTF-8" standalone="no"?>
<!DOCTYPE svg PUBLIC "-//W3C//DTD SVG 1.1//EN"
 "http://www.w3.org/Graphics/SVG/1.1/DTD/svg11.dtd">
<!-- Generated by graphviz version 2.43.0 (0)
 -->
<!-- Title: helios::ext::imgui::ImGuiWidget Pages: 1 -->
<svg width="297pt" height="182pt"
 viewBox="0.00 0.00 297.00 182.00" xmlns="http://www.w3.org/2000/svg" xmlns:xlink="http://www.w3.org/1999/xlink">

<svg id="main" version="1.1" xmlns="http://www.w3.org/2000/svg" xmlns:xlink="http://www.w3.org/1999/xlink" xml:space="preserve">

<style type="text/css"><![CDATA[
.node, .edge {opacity: 0.7;}
.node.selected, .edge.selected {opacity: 1;}
.edge:hover path { stroke: red; }
.edge:hover polygon { stroke: red; fill: red; }
]]></style>
<script type="application/ecmascript" xlink:href="svg.min.js"/>
<svg id="graph" class="graph">
<g id="graph0" class="graph" transform="scale(1 1) rotate(0) translate(4 178)">
<title>helios::ext::imgui::ImGuiWidget</title>
<!-- Node1 -->
<g id="Node000001" class="node">
<title>Node1</title>
<g id="a_Node000001"><a xlink:title="Abstract base class for ImGui widgets rendered in debug overlays.">
<polygon fill="#999999" stroke="#666666" points="101,-102 0,-102 0,-72 101,-72 101,-102"/>
<text text-anchor="start" x="8" y="-90" font-family="Helvetica,sans-Serif" font-size="10.00">helios::ext::imgui</text>
<text text-anchor="middle" x="50.5" y="-79" font-family="Helvetica,sans-Serif" font-size="10.00">::ImGuiWidget</text>
</a>
</g>
</g>
<!-- Node2 -->
<g id="Node000002" class="node">
<title>Node2</title>
<g id="a_Node000002"><a xlink:href="classhelios_1_1ext_1_1imgui_1_1widgets_1_1FpsWidget.html" target="_top" xlink:title="Debug widget for real&#45;time FPS metrics and frame pacing configuration.">
<polygon fill="white" stroke="#666666" points="272.5,-174 153.5,-174 153.5,-144 272.5,-144 272.5,-174"/>
<text text-anchor="start" x="161.5" y="-162" font-family="Helvetica,sans-Serif" font-size="10.00">helios::ext::imgui</text>
<text text-anchor="middle" x="213" y="-151" font-family="Helvetica,sans-Serif" font-size="10.00">::widgets::FpsWidget</text>
</a>
</g>
</g>
<!-- Node1&#45;&gt;Node2 -->
<g id="edge1_Node000001_Node000002" class="edge">
<title>Node1&#45;&gt;Node2</title>
<g id="a_edge1_Node000001_Node000002"><a xlink:title=" ">
<path fill="none" stroke="#63b8ff" d="M84.26,-107.45C99.86,-116.64 118.99,-127.16 137,-135 144.4,-138.22 152.37,-141.23 160.25,-143.96"/>
<polygon fill="#63b8ff" stroke="#63b8ff" points="85.9,-104.35 75.52,-102.22 82.3,-110.35 85.9,-104.35"/>
</a>
</g>
</g>
<!-- Node3 -->
<g id="Node000003" class="node">
<title>Node3</title>
<g id="a_Node000003"><a xlink:href="classhelios_1_1ext_1_1imgui_1_1widgets_1_1GamepadWidget.html" target="_top" xlink:title="A debug widget to visualize the state of a specific gamepad.">
<polygon fill="white" stroke="#666666" points="287.5,-126 138.5,-126 138.5,-96 287.5,-96 287.5,-126"/>
<text text-anchor="start" x="146.5" y="-114" font-family="Helvetica,sans-Serif" font-size="10.00">helios::ext::imgui</text>
<text text-anchor="middle" x="213" y="-103" font-family="Helvetica,sans-Serif" font-size="10.00">::widgets::GamepadWidget</text>
</a>
</g>
</g>
<!-- Node1&#45;&gt;Node3 -->
<g id="edge2_Node000001_Node000003" class="edge">
<title>Node1&#45;&gt;Node3</title>
<g id="a_edge2_Node000001_Node000003"><a xlink:title=" ">
<path fill="none" stroke="#63b8ff" d="M111.48,-95.97C120.21,-97.27 129.29,-98.63 138.27,-99.97"/>
<polygon fill="#63b8ff" stroke="#63b8ff" points="111.81,-92.48 101.4,-94.46 110.78,-99.4 111.81,-92.48"/>
</a>
</g>
</g>
<!-- Node4 -->
<g id="Node000004" class="node">
<title>Node4</title>
<g id="a_Node000004"><a xlink:href="classhelios_1_1ext_1_1imgui_1_1widgets_1_1LogWidget.html" target="_top" xlink:title="Debug widget for displaying log output in a scrollable ImGui panel.">
<polygon fill="white" stroke="#666666" points="272.5,-78 153.5,-78 153.5,-48 272.5,-48 272.5,-78"/>
<text text-anchor="start" x="161.5" y="-66" font-family="Helvetica,sans-Serif" font-size="10.00">helios::ext::imgui</text>
<text text-anchor="middle" x="213" y="-55" font-family="Helvetica,sans-Serif" font-size="10.00">::widgets::LogWidget</text>
</a>
</g>
</g>
<!-- Node1&#45;&gt;Node4 -->
<g id="edge3_Node000001_Node000004" class="edge">
<title>Node1&#45;&gt;Node4</title>
<g id="a_edge3_Node000001_Node000004"><a xlink:title=" ">
<path fill="none" stroke="#63b8ff" d="M111.66,-78C125.32,-75.96 139.81,-73.79 153.41,-71.76"/>
<polygon fill="#63b8ff" stroke="#63b8ff" points="110.78,-74.6 101.4,-79.54 111.81,-81.52 110.78,-74.6"/>
</a>
</g>
</g>
<!-- Node5 -->
<g id="Node000005" class="node">
<title>Node5</title>
<g id="a_Node000005"><a xlink:href="classhelios_1_1ext_1_1imgui_1_1widgets_1_1MainMenuWidget.html" target="_top" xlink:title="Main menu bar providing access to application settings.">
<polygon fill="white" stroke="#666666" points="289,-30 137,-30 137,0 289,0 289,-30"/>
<text text-anchor="start" x="145" y="-18" font-family="Helvetica,sans-Serif" font-size="10.00">helios::ext::imgui</text>
<text text-anchor="middle" x="213" y="-7" font-family="Helvetica,sans-Serif" font-size="10.00">::widgets::MainMenuWidget</text>
</a>
</g>
</g>
<!-- Node1&#45;&gt;Node5 -->
<g id="edge4_Node000001_Node000005" class="edge">
<title>Node1&#45;&gt;Node5</title>
<g id="a_edge4_Node000001_Node000005"><a xlink:title=" ">
<path fill="none" stroke="#63b8ff" d="M84.26,-66.55C99.86,-57.36 118.99,-46.84 137,-39 144.4,-35.78 152.37,-32.77 160.25,-30.04"/>
<polygon fill="#63b8ff" stroke="#63b8ff" points="82.3,-63.65 75.52,-71.78 85.9,-69.65 82.3,-63.65"/>
</a>
</g>
</g>
</g>
</svg>
</svg>

<style type='text/css'>
<![CDATA[
[data-mouse-over-selected='false'] { opacity: 0.7; }
[data-mouse-over-selected='true']  { opacity: 1.0; }
]]>
</style>
<script type="application/ecmascript"><![CDATA[
document.addEventListener('DOMContentLoaded', (event) => {
  highlightEdges();
  highlightAdjacentNodes();
});
]]></script>
</svg>
