<?xml version="1.0" encoding="UTF-8" standalone="no"?>
<!DOCTYPE svg PUBLIC "-//W3C//DTD SVG 1.1//EN"
 "http://www.w3.org/Graphics/SVG/1.1/DTD/svg11.dtd">
<!-- Generated by graphviz version 2.43.0 (0)
 -->
<!-- Title: helios::engine::builder::gameObject::builders::configs::TextRenderableConfig::TextRenderableConfig Pages: 1 -->
<svg width="620pt" height="959pt"
 viewBox="0.00 0.00 620.00 959.00" xmlns="http://www.w3.org/2000/svg" xmlns:xlink="http://www.w3.org/1999/xlink">
<g id="graph0" class="graph" transform="scale(1 1) rotate(0) translate(4 955)">
<title>helios::engine::builder::gameObject::builders::configs::TextRenderableConfig::TextRenderableConfig</title>
<!-- Node1 -->
<g id="Node000001" class="node">
<title>Node1</title>
<g id="a_Node000001"><a xlink:title="Constructs a TextRenderableConfig for the given GameObject.">
<polygon fill="#999999" stroke="#666666" points="612,-498 442,-498 442,-446 612,-446 612,-498"/>
<text text-anchor="start" x="450" y="-486" font-family="Helvetica,sans-Serif" font-size="10.00">helios::engine::builder</text>
<text text-anchor="start" x="450" y="-475" font-family="Helvetica,sans-Serif" font-size="10.00">::gameObject::builders</text>
<text text-anchor="start" x="450" y="-464" font-family="Helvetica,sans-Serif" font-size="10.00">::configs::TextRenderableConfig</text>
<text text-anchor="middle" x="527" y="-453" font-family="Helvetica,sans-Serif" font-size="10.00">::TextRenderableConfig</text>
</a>
</g>
</g>
<!-- Node2 -->
<g id="Node000002" class="node">
<title>Node2</title>
<g id="a_Node000002"><a xlink:href="classhelios_1_1engine_1_1builder_1_1gameObject_1_1builders_1_1configs_1_1TextRenderableConfig.html#a9926d2dc9bf427d311356be1688e5837" target="_top" xlink:title="Configures this text as a UI text component.">
<polygon fill="white" stroke="#666666" points="391,-951 221,-951 221,-899 391,-899 391,-951"/>
<text text-anchor="start" x="229" y="-939" font-family="Helvetica,sans-Serif" font-size="10.00">helios::engine::builder</text>
<text text-anchor="start" x="229" y="-928" font-family="Helvetica,sans-Serif" font-size="10.00">::gameObject::builders</text>
<text text-anchor="start" x="229" y="-917" font-family="Helvetica,sans-Serif" font-size="10.00">::configs::TextRenderableConfig</text>
<text text-anchor="middle" x="306" y="-906" font-family="Helvetica,sans-Serif" font-size="10.00">::asUiText</text>
</a>
</g>
</g>
<!-- Node1&#45;&gt;Node2 -->
<g id="edge1_Node000001_Node000002" class="edge">
<title>Node1&#45;&gt;Node2</title>
<g id="a_edge1_Node000001_Node000002"><a xlink:title=" ">
<path fill="none" stroke="#63b8ff" d="M526.03,-508.15C524.12,-587.65 508.46,-779.26 406,-889 401.63,-893.68 396.61,-897.75 391.19,-901.3"/>
<polygon fill="#63b8ff" stroke="#63b8ff" points="529.53,-508.2 526.21,-498.14 522.53,-508.08 529.53,-508.2"/>
</a>
</g>
</g>
<!-- Node3 -->
<g id="Node000003" class="node">
<title>Node3</title>
<g id="a_Node000003"><a xlink:href="classhelios_1_1engine_1_1builder_1_1gameObject_1_1builders_1_1configs_1_1TextRenderableConfig.html#af754e46bbeade85f3deea30c21af678c" target="_top" xlink:title="Builds the text renderable and adds components to the GameObject.">
<polygon fill="white" stroke="#666666" points="406,-880.5 206,-880.5 206,-839.5 406,-839.5 406,-880.5"/>
<text text-anchor="start" x="214" y="-868.5" font-family="Helvetica,sans-Serif" font-size="10.00">helios::engine::builder</text>
<text text-anchor="start" x="214" y="-857.5" font-family="Helvetica,sans-Serif" font-size="10.00">::gameObject::builders</text>
<text text-anchor="middle" x="306" y="-846.5" font-family="Helvetica,sans-Serif" font-size="10.00">::configs::TextRenderableConfig::build</text>
</a>
</g>
</g>
<!-- Node1&#45;&gt;Node3 -->
<g id="edge2_Node000001_Node000003" class="edge">
<title>Node1&#45;&gt;Node3</title>
<g id="a_edge2_Node000001_Node000003"><a xlink:title=" ">
<path fill="none" stroke="#63b8ff" d="M524.39,-508.66C519.22,-580.64 497.47,-741.16 406,-830 402.39,-833.5 398.39,-836.6 394.12,-839.34"/>
<polygon fill="#63b8ff" stroke="#63b8ff" points="527.9,-508.5 525.06,-498.3 520.92,-508.05 527.9,-508.5"/>
</a>
</g>
</g>
<!-- Node6 -->
<g id="Node000006" class="node">
<title>Node6</title>
<g id="a_Node000006"><a xlink:href="classhelios_1_1engine_1_1builder_1_1gameObject_1_1builders_1_1configs_1_1TextRenderableConfig.html#a034f1916e01b6ed864829a719cd5b907" target="_top" xlink:title="Sets the text color.">
<polygon fill="white" stroke="#666666" points="406,-803.5 206,-803.5 206,-762.5 406,-762.5 406,-803.5"/>
<text text-anchor="start" x="214" y="-791.5" font-family="Helvetica,sans-Serif" font-size="10.00">helios::engine::builder</text>
<text text-anchor="start" x="214" y="-780.5" font-family="Helvetica,sans-Serif" font-size="10.00">::gameObject::builders</text>
<text text-anchor="middle" x="306" y="-769.5" font-family="Helvetica,sans-Serif" font-size="10.00">::configs::TextRenderableConfig::color</text>
</a>
</g>
</g>
<!-- Node1&#45;&gt;Node6 -->
<g id="edge5_Node000001_Node000006" class="edge">
<title>Node1&#45;&gt;Node6</title>
<g id="a_edge5_Node000001_Node000006"><a xlink:title=" ">
<path fill="none" stroke="#63b8ff" d="M520.53,-508.47C509.63,-568.25 479.6,-687.04 406,-753 402.12,-756.48 397.85,-759.55 393.33,-762.27"/>
<polygon fill="#63b8ff" stroke="#63b8ff" points="524.02,-508.81 522.29,-498.36 517.12,-507.61 524.02,-508.81"/>
</a>
</g>
</g>
<!-- Node7 -->
<g id="Node000007" class="node">
<title>Node7</title>
<g id="a_Node000007"><a xlink:href="classhelios_1_1engine_1_1builder_1_1gameObject_1_1builders_1_1configs_1_1TextRenderableConfig.html#a4a47ca4b0c2c05ba252fc13b9dee8183" target="_top" xlink:title="Switches the time formatter to display remaining time.">
<polygon fill="white" stroke="#666666" points="391,-744 221,-744 221,-692 391,-692 391,-744"/>
<text text-anchor="start" x="229" y="-732" font-family="Helvetica,sans-Serif" font-size="10.00">helios::engine::builder</text>
<text text-anchor="start" x="229" y="-721" font-family="Helvetica,sans-Serif" font-size="10.00">::gameObject::builders</text>
<text text-anchor="start" x="229" y="-710" font-family="Helvetica,sans-Serif" font-size="10.00">::configs::TextRenderableConfig</text>
<text text-anchor="middle" x="306" y="-699" font-family="Helvetica,sans-Serif" font-size="10.00">::displayRemaining</text>
</a>
</g>
</g>
<!-- Node1&#45;&gt;Node7 -->
<g id="edge7_Node000001_Node000007" class="edge">
<title>Node1&#45;&gt;Node7</title>
<g id="a_edge7_Node000001_Node000007"><a xlink:title=" ">
<path fill="none" stroke="#63b8ff" d="M514.46,-508.04C497.74,-554.75 462.46,-635.76 406,-683 401.53,-686.74 396.62,-690.1 391.47,-693.1"/>
<polygon fill="#63b8ff" stroke="#63b8ff" points="517.85,-508.94 517.84,-498.35 511.24,-506.64 517.85,-508.94"/>
</a>
</g>
</g>
<!-- Node8 -->
<g id="Node000008" class="node">
<title>Node8</title>
<g id="a_Node000008"><a xlink:href="classhelios_1_1engine_1_1builder_1_1gameObject_1_1builders_1_1configs_1_1TextRenderableConfig.html#a1b8245c901285d30dd2bea44b3da153e" target="_top" xlink:title="Sets the font identifier.">
<polygon fill="white" stroke="#666666" points="391,-656 221,-656 221,-604 391,-604 391,-656"/>
<text text-anchor="start" x="229" y="-644" font-family="Helvetica,sans-Serif" font-size="10.00">helios::engine::builder</text>
<text text-anchor="start" x="229" y="-633" font-family="Helvetica,sans-Serif" font-size="10.00">::gameObject::builders</text>
<text text-anchor="start" x="229" y="-622" font-family="Helvetica,sans-Serif" font-size="10.00">::configs::TextRenderableConfig</text>
<text text-anchor="middle" x="306" y="-611" font-family="Helvetica,sans-Serif" font-size="10.00">::fontId</text>
</a>
</g>
</g>
<!-- Node1&#45;&gt;Node8 -->
<g id="edge8_Node000001_Node000008" class="edge">
<title>Node1&#45;&gt;Node8</title>
<g id="a_edge8_Node000001_Node000008"><a xlink:title=" ">
<path fill="none" stroke="#63b8ff" d="M500.09,-506.16C477.79,-533.51 443.36,-571.12 406,-595 400.93,-598.24 395.52,-601.23 389.95,-603.97"/>
<polygon fill="#63b8ff" stroke="#63b8ff" points="503.09,-508.02 506.62,-498.03 497.63,-503.64 503.09,-508.02"/>
</a>
</g>
</g>
<!-- Node9 -->
<g id="Node000009" class="node">
<title>Node9</title>
<g id="a_Node000009"><a xlink:href="classhelios_1_1engine_1_1builder_1_1gameObject_1_1builders_1_1configs_1_1TextRenderableConfig.html#a45dc66e91f81af6b4121975c3f9f0237" target="_top" xlink:title="Sets the font resource provider.">
<polygon fill="white" stroke="#666666" points="391,-586 221,-586 221,-534 391,-534 391,-586"/>
<text text-anchor="start" x="229" y="-574" font-family="Helvetica,sans-Serif" font-size="10.00">helios::engine::builder</text>
<text text-anchor="start" x="229" y="-563" font-family="Helvetica,sans-Serif" font-size="10.00">::gameObject::builders</text>
<text text-anchor="start" x="229" y="-552" font-family="Helvetica,sans-Serif" font-size="10.00">::configs::TextRenderableConfig</text>
<text text-anchor="middle" x="306" y="-541" font-family="Helvetica,sans-Serif" font-size="10.00">::fontResourceProvider</text>
</a>
</g>
</g>
<!-- Node1&#45;&gt;Node9 -->
<g id="edge10_Node000001_Node000009" class="edge">
<title>Node1&#45;&gt;Node9</title>
<g id="a_edge10_Node000001_Node000009"><a xlink:title=" ">
<path fill="none" stroke="#63b8ff" d="M459.8,-502.31C442.41,-509.98 423.59,-518.02 406,-525 398.46,-527.99 390.55,-531 382.63,-533.93"/>
<polygon fill="#63b8ff" stroke="#63b8ff" points="461.58,-505.35 469.3,-498.1 458.74,-498.96 461.58,-505.35"/>
</a>
</g>
</g>
<!-- Node10 -->
<g id="Node000010" class="node">
<title>Node10</title>
<g id="a_Node000010"><a xlink:href="classhelios_1_1engine_1_1builder_1_1gameObject_1_1builders_1_1configs_1_1TextRenderableConfig.html#a1c5c0b06cc239ee1a78e4be3755ed8f7" target="_top" xlink:title="Sets the font scale factor.">
<polygon fill="white" stroke="#666666" points="391,-498 221,-498 221,-446 391,-446 391,-498"/>
<text text-anchor="start" x="229" y="-486" font-family="Helvetica,sans-Serif" font-size="10.00">helios::engine::builder</text>
<text text-anchor="start" x="229" y="-475" font-family="Helvetica,sans-Serif" font-size="10.00">::gameObject::builders</text>
<text text-anchor="start" x="229" y="-464" font-family="Helvetica,sans-Serif" font-size="10.00">::configs::TextRenderableConfig</text>
<text text-anchor="middle" x="306" y="-453" font-family="Helvetica,sans-Serif" font-size="10.00">::fontScale</text>
</a>
</g>
</g>
<!-- Node1&#45;&gt;Node10 -->
<g id="edge11_Node000001_Node000010" class="edge">
<title>Node1&#45;&gt;Node10</title>
<g id="a_edge11_Node000001_Node000010"><a xlink:title=" ">
<path fill="none" stroke="#63b8ff" d="M431.72,-472C418.24,-472 404.45,-472 391.18,-472"/>
<polygon fill="#63b8ff" stroke="#63b8ff" points="431.96,-475.5 441.96,-472 431.96,-468.5 431.96,-475.5"/>
</a>
</g>
</g>
<!-- Node11 -->
<g id="Node000011" class="node">
<title>Node11</title>
<g id="a_Node000011"><a xlink:href="classhelios_1_1engine_1_1builder_1_1gameObject_1_1builders_1_1configs_1_1TextRenderableConfig.html#a885e4403a6f954cbf7210e11137ecf68" target="_top" xlink:title="Attaches a NumberFormatterComponent with the given format.">
<polygon fill="white" stroke="#666666" points="391,-428 221,-428 221,-376 391,-376 391,-428"/>
<text text-anchor="start" x="229" y="-416" font-family="Helvetica,sans-Serif" font-size="10.00">helios::engine::builder</text>
<text text-anchor="start" x="229" y="-405" font-family="Helvetica,sans-Serif" font-size="10.00">::gameObject::builders</text>
<text text-anchor="start" x="229" y="-394" font-family="Helvetica,sans-Serif" font-size="10.00">::configs::TextRenderableConfig</text>
<text text-anchor="middle" x="306" y="-383" font-family="Helvetica,sans-Serif" font-size="10.00">::formattedAsNumber</text>
</a>
</g>
</g>
<!-- Node1&#45;&gt;Node11 -->
<g id="edge13_Node000001_Node000011" class="edge">
<title>Node1&#45;&gt;Node11</title>
<g id="a_edge13_Node000001_Node000011"><a xlink:title=" ">
<path fill="none" stroke="#63b8ff" d="M434.52,-442.76C419.29,-437.89 403.58,-432.87 388.62,-428.09"/>
<polygon fill="#63b8ff" stroke="#63b8ff" points="433.86,-446.22 444.45,-445.93 435.99,-439.56 433.86,-446.22"/>
</a>
</g>
</g>
<!-- Node12 -->
<g id="Node000012" class="node">
<title>Node12</title>
<g id="a_Node000012"><a xlink:href="classhelios_1_1engine_1_1builder_1_1gameObject_1_1builders_1_1configs_1_1TextRenderableConfig.html#ac3a3564522f6184f32d7f18a99293885" target="_top" xlink:title="Attaches a TimeFormatterComponent with the given format.">
<polygon fill="white" stroke="#666666" points="391,-358 221,-358 221,-306 391,-306 391,-358"/>
<text text-anchor="start" x="229" y="-346" font-family="Helvetica,sans-Serif" font-size="10.00">helios::engine::builder</text>
<text text-anchor="start" x="229" y="-335" font-family="Helvetica,sans-Serif" font-size="10.00">::gameObject::builders</text>
<text text-anchor="start" x="229" y="-324" font-family="Helvetica,sans-Serif" font-size="10.00">::configs::TextRenderableConfig</text>
<text text-anchor="middle" x="306" y="-313" font-family="Helvetica,sans-Serif" font-size="10.00">::formattedAsTimestamp</text>
</a>
</g>
</g>
<!-- Node1&#45;&gt;Node12 -->
<g id="edge14_Node000001_Node000012" class="edge">
<title>Node1&#45;&gt;Node12</title>
<g id="a_edge14_Node000001_Node000012"><a xlink:title=" ">
<path fill="none" stroke="#63b8ff" d="M494.95,-438.85C472.14,-416.08 439.42,-386.55 406,-367 400.49,-363.78 394.64,-360.78 388.64,-358.01"/>
<polygon fill="#63b8ff" stroke="#63b8ff" points="492.48,-441.33 502,-445.98 497.46,-436.41 492.48,-441.33"/>
</a>
</g>
</g>
<!-- Node13 -->
<g id="Node000013" class="node">
<title>Node13</title>
<g id="a_Node000013"><a xlink:href="classhelios_1_1engine_1_1builder_1_1gameObject_1_1builders_1_1configs_1_1TextRenderableConfig.html#aceca0762c971984dd42e5d5f7896a029" target="_top" xlink:title="Hides the time output when remaining time reaches zero.">
<polygon fill="white" stroke="#666666" points="391,-288 221,-288 221,-236 391,-236 391,-288"/>
<text text-anchor="start" x="229" y="-276" font-family="Helvetica,sans-Serif" font-size="10.00">helios::engine::builder</text>
<text text-anchor="start" x="229" y="-265" font-family="Helvetica,sans-Serif" font-size="10.00">::gameObject::builders</text>
<text text-anchor="start" x="229" y="-254" font-family="Helvetica,sans-Serif" font-size="10.00">::configs::TextRenderableConfig</text>
<text text-anchor="middle" x="306" y="-243" font-family="Helvetica,sans-Serif" font-size="10.00">::hideWhenZero</text>
</a>
</g>
</g>
<!-- Node1&#45;&gt;Node13 -->
<g id="edge15_Node000001_Node000013" class="edge">
<title>Node1&#45;&gt;Node13</title>
<g id="a_edge15_Node000001_Node000013"><a xlink:title=" ">
<path fill="none" stroke="#63b8ff" d="M510.06,-436.41C490.73,-397.07 454.62,-334.33 406,-297 401.37,-293.45 396.36,-290.24 391.12,-287.34"/>
<polygon fill="#63b8ff" stroke="#63b8ff" points="507.12,-438.38 514.61,-445.88 513.43,-435.35 507.12,-438.38"/>
</a>
</g>
</g>
<!-- Node14 -->
<g id="Node000014" class="node">
<title>Node14</title>
<g id="a_Node000014"><a xlink:href="classhelios_1_1engine_1_1builder_1_1gameObject_1_1builders_1_1configs_1_1TextRenderableConfig.html#a66d6104e4b12ead26571a68ac3b81d32" target="_top" xlink:title="Sets the shader for text rendering.">
<polygon fill="white" stroke="#666666" points="391,-200 221,-200 221,-148 391,-148 391,-200"/>
<text text-anchor="start" x="229" y="-188" font-family="Helvetica,sans-Serif" font-size="10.00">helios::engine::builder</text>
<text text-anchor="start" x="229" y="-177" font-family="Helvetica,sans-Serif" font-size="10.00">::gameObject::builders</text>
<text text-anchor="start" x="229" y="-166" font-family="Helvetica,sans-Serif" font-size="10.00">::configs::TextRenderableConfig</text>
<text text-anchor="middle" x="306" y="-155" font-family="Helvetica,sans-Serif" font-size="10.00">::shader</text>
</a>
</g>
</g>
<!-- Node1&#45;&gt;Node14 -->
<g id="edge16_Node000001_Node000014" class="edge">
<title>Node1&#45;&gt;Node14</title>
<g id="a_edge16_Node000001_Node000014"><a xlink:title=" ">
<path fill="none" stroke="#63b8ff" d="M516.2,-436.27C500.47,-384.56 465.19,-288.36 406,-227 395.78,-216.41 382.98,-207.45 370.01,-200.09"/>
<polygon fill="#63b8ff" stroke="#63b8ff" points="512.89,-437.4 519.09,-445.99 519.6,-435.41 512.89,-437.4"/>
</a>
</g>
</g>
<!-- Node15 -->
<g id="Node000015" class="node">
<title>Node15</title>
<g id="a_Node000015"><a xlink:href="classhelios_1_1engine_1_1builder_1_1gameObject_1_1builders_1_1configs_1_1TextRenderableConfig.html#a89c15f75356c5b16e99202aabbb1ae71" target="_top" xlink:title="Sets the text content.">
<polygon fill="white" stroke="#666666" points="403.5,-111.5 208.5,-111.5 208.5,-70.5 403.5,-70.5 403.5,-111.5"/>
<text text-anchor="start" x="216.5" y="-99.5" font-family="Helvetica,sans-Serif" font-size="10.00">helios::engine::builder</text>
<text text-anchor="start" x="216.5" y="-88.5" font-family="Helvetica,sans-Serif" font-size="10.00">::gameObject::builders</text>
<text text-anchor="middle" x="306" y="-77.5" font-family="Helvetica,sans-Serif" font-size="10.00">::configs::TextRenderableConfig::text</text>
</a>
</g>
</g>
<!-- Node1&#45;&gt;Node15 -->
<g id="edge18_Node000001_Node000015" class="edge">
<title>Node1&#45;&gt;Node15</title>
<g id="a_edge18_Node000001_Node000015"><a xlink:title=" ">
<path fill="none" stroke="#63b8ff" d="M521.94,-435.65C512.74,-369.08 484.61,-226.38 406,-139 395.72,-127.57 382.11,-118.58 368.29,-111.63"/>
<polygon fill="#63b8ff" stroke="#63b8ff" points="518.48,-436.21 523.26,-445.67 525.42,-435.29 518.48,-436.21"/>
</a>
</g>
</g>
<!-- Node16 -->
<g id="Node000016" class="node">
<title>Node16</title>
<g id="a_Node000016"><a xlink:href="classhelios_1_1engine_1_1builder_1_1gameObject_1_1builders_1_1configs_1_1TextRenderableConfig.html#a3b0d0bce6313592bb883ca91f4ed6e18" target="_top" xlink:title="Sets the label shown instead of &quot;00:00&quot; when remaining time reaches zero.">
<polygon fill="white" stroke="#666666" points="391,-52 221,-52 221,0 391,0 391,-52"/>
<text text-anchor="start" x="229" y="-40" font-family="Helvetica,sans-Serif" font-size="10.00">helios::engine::builder</text>
<text text-anchor="start" x="229" y="-29" font-family="Helvetica,sans-Serif" font-size="10.00">::gameObject::builders</text>
<text text-anchor="start" x="229" y="-18" font-family="Helvetica,sans-Serif" font-size="10.00">::configs::TextRenderableConfig</text>
<text text-anchor="middle" x="306" y="-7" font-family="Helvetica,sans-Serif" font-size="10.00">::useElapsedLabel</text>
</a>
</g>
</g>
<!-- Node1&#45;&gt;Node16 -->
<g id="edge20_Node000001_Node000016" class="edge">
<title>Node1&#45;&gt;Node16</title>
<g id="a_edge20_Node000001_Node000016"><a xlink:title=" ">
<path fill="none" stroke="#63b8ff" d="M525.91,-435.52C523.72,-356.56 507.47,-168.29 406,-61 401.62,-56.36 396.58,-52.34 391.15,-48.85"/>
<polygon fill="#63b8ff" stroke="#63b8ff" points="522.42,-436 526.13,-445.92 529.42,-435.85 522.42,-436"/>
</a>
</g>
</g>
<!-- Node4 -->
<g id="Node000004" class="node">
<title>Node4</title>
<g id="a_Node000004"><a xlink:href="classhelios_1_1engine_1_1builder_1_1gameObject_1_1builders_1_1configs_1_1TextRenderableConfig.html#a112110ac2b4a2b9c14191fb506dea569" target="_top" xlink:title="Builds the text renderable and attaches to a parent GameObject.">
<polygon fill="white" stroke="#666666" points="170,-921 0,-921 0,-869 170,-869 170,-921"/>
<text text-anchor="start" x="8" y="-909" font-family="Helvetica,sans-Serif" font-size="10.00">helios::engine::builder</text>
<text text-anchor="start" x="8" y="-898" font-family="Helvetica,sans-Serif" font-size="10.00">::gameObject::builders</text>
<text text-anchor="start" x="8" y="-887" font-family="Helvetica,sans-Serif" font-size="10.00">::configs::TextRenderableConfig</text>
<text text-anchor="middle" x="85" y="-876" font-family="Helvetica,sans-Serif" font-size="10.00">::attachTo</text>
</a>
</g>
</g>
<!-- Node3&#45;&gt;Node4 -->
<g id="edge3_Node000003_Node000004" class="edge">
<title>Node3&#45;&gt;Node4</title>
<g id="a_edge3_Node000003_Node000004"><a xlink:title=" ">
<path fill="none" stroke="#63b8ff" d="M195.7,-877.47C187.13,-878.84 178.55,-880.21 170.18,-881.55"/>
<polygon fill="#63b8ff" stroke="#63b8ff" points="196.43,-880.9 205.75,-875.86 195.33,-873.98 196.43,-880.9"/>
</a>
</g>
</g>
<!-- Node5 -->
<g id="Node000005" class="node">
<title>Node5</title>
<g id="a_Node000005"><a xlink:href="classhelios_1_1engine_1_1builder_1_1gameObject_1_1builders_1_1configs_1_1TextRenderableConfig.html#a6909a5296ac57c09bdee00fdc703a787" target="_top" xlink:title="Builds the text renderable and attaches to a parent SceneNode.">
<polygon fill="white" stroke="#666666" points="170,-851 0,-851 0,-799 170,-799 170,-851"/>
<text text-anchor="start" x="8" y="-839" font-family="Helvetica,sans-Serif" font-size="10.00">helios::engine::builder</text>
<text text-anchor="start" x="8" y="-828" font-family="Helvetica,sans-Serif" font-size="10.00">::gameObject::builders</text>
<text text-anchor="start" x="8" y="-817" font-family="Helvetica,sans-Serif" font-size="10.00">::configs::TextRenderableConfig</text>
<text text-anchor="middle" x="85" y="-806" font-family="Helvetica,sans-Serif" font-size="10.00">::attachTo</text>
</a>
</g>
</g>
<!-- Node3&#45;&gt;Node5 -->
<g id="edge4_Node000003_Node000005" class="edge">
<title>Node3&#45;&gt;Node5</title>
<g id="a_edge4_Node000003_Node000005"><a xlink:title=" ">
<path fill="none" stroke="#63b8ff" d="M195.7,-842.53C187.13,-841.16 178.55,-839.79 170.18,-838.45"/>
<polygon fill="#63b8ff" stroke="#63b8ff" points="195.33,-846.02 205.75,-844.14 196.43,-839.1 195.33,-846.02"/>
</a>
</g>
</g>
<!-- Node6&#45;&gt;Node6 -->
<g id="edge6_Node000006_Node000006" class="edge">
<title>Node6&#45;&gt;Node6</title>
<g id="a_edge6_Node000006_Node000006"><a xlink:title=" ">
<path fill="none" stroke="#63b8ff" d="M343.85,-813.46C338.22,-818.24 325.6,-821.5 306,-821.5 274.63,-821.5 261.15,-813.15 265.57,-803.6"/>
<polygon fill="#63b8ff" stroke="#63b8ff" points="347.29,-814.16 346.43,-803.6 340.51,-812.38 347.29,-814.16"/>
</a>
</g>
</g>
<!-- Node8&#45;&gt;Node8 -->
<g id="edge9_Node000008_Node000008" class="edge">
<title>Node8&#45;&gt;Node8</title>
<g id="a_edge9_Node000008_Node000008"><a xlink:title=" ">
<path fill="none" stroke="#63b8ff" d="M343.21,-665.4C337.3,-670.54 324.89,-674 306,-674 277.21,-674 263.49,-665.96 264.84,-656.2"/>
<polygon fill="#63b8ff" stroke="#63b8ff" points="346.43,-666.77 347.16,-656.2 340,-664.01 346.43,-666.77"/>
</a>
</g>
</g>
<!-- Node10&#45;&gt;Node10 -->
<g id="edge12_Node000010_Node000010" class="edge">
<title>Node10&#45;&gt;Node10</title>
<g id="a_edge12_Node000010_Node000010"><a xlink:title=" ">
<path fill="none" stroke="#63b8ff" d="M343.21,-507.4C337.3,-512.54 324.89,-516 306,-516 277.21,-516 263.49,-507.96 264.84,-498.2"/>
<polygon fill="#63b8ff" stroke="#63b8ff" points="346.43,-508.77 347.16,-498.2 340,-506.01 346.43,-508.77"/>
</a>
</g>
</g>
<!-- Node14&#45;&gt;Node14 -->
<g id="edge17_Node000014_Node000014" class="edge">
<title>Node14&#45;&gt;Node14</title>
<g id="a_edge17_Node000014_Node000014"><a xlink:title=" ">
<path fill="none" stroke="#63b8ff" d="M343.21,-209.4C337.3,-214.54 324.89,-218 306,-218 277.21,-218 263.49,-209.96 264.84,-200.2"/>
<polygon fill="#63b8ff" stroke="#63b8ff" points="346.43,-210.77 347.16,-200.2 340,-208.01 346.43,-210.77"/>
</a>
</g>
</g>
<!-- Node15&#45;&gt;Node15 -->
<g id="edge19_Node000015_Node000015" class="edge">
<title>Node15&#45;&gt;Node15</title>
<g id="a_edge19_Node000015_Node000015"><a xlink:title=" ">
<path fill="none" stroke="#63b8ff" d="M343.85,-121.46C338.22,-126.24 325.6,-129.5 306,-129.5 274.63,-129.5 261.15,-121.15 265.57,-111.6"/>
<polygon fill="#63b8ff" stroke="#63b8ff" points="347.29,-122.16 346.43,-111.6 340.51,-120.38 347.29,-122.16"/>
</a>
</g>
</g>
</g>
</svg>
