<?xml version="1.0" encoding="UTF-8" standalone="no"?>
<!DOCTYPE svg PUBLIC "-//W3C//DTD SVG 1.1//EN"
 "http://www.w3.org/Graphics/SVG/1.1/DTD/svg11.dtd">
<!-- Generated by graphviz version 2.43.0 (0)
 -->
<!-- Title: helios::ecs::EntityManager::enable Pages: 1 -->
<!--zoomable 218 -->

<svg id="main" version="1.1" xmlns="http://www.w3.org/2000/svg" xmlns:xlink="http://www.w3.org/1999/xlink" xml:space="preserve" onload="init(evt)">

<style type="text/css"><![CDATA[
.node, .edge {opacity: 0.7;}
.node.selected, .edge.selected {opacity: 1;}
.edge:hover path { stroke: red; }
.edge:hover polygon { stroke: red; fill: red; }
]]></style>

<defs>
  <circle id="rim" cx="0" cy="0" r="7"/>
  <circle id="rim2" cx="0" cy="0" r="3.5"/>
  <g id="zoomPlus">
    <use xlink:href="#rim" fill="#404040"><set attributeName="fill" to="#808080" begin="zoomplus.mouseover" end="zoomplus.mouseout"/></use>
    <path d="M-4,0h8M0,-4v8" fill="none" stroke="white" stroke-width="1.5" pointer-events="none"/>
  </g>
  <g id="zoomMin">
    <use xlink:href="#rim" fill="#404040"><set attributeName="fill" to="#808080" begin="zoomminus.mouseover" end="zoomminus.mouseout"/></use>
    <path d="M-4,0h8" fill="none" stroke="white" stroke-width="1.5" pointer-events="none"/>
  </g>
  <g id="arrowUp" transform="translate(30 24)">
    <use xlink:href="#rim"/>
    <path pointer-events="none" fill="none" stroke="white" stroke-width="1.5" d="M0,-3.0v7 M-2.5,-0.5L0,-3.0L2.5,-0.5"/>
  </g>
  <g id="arrowRight" transform="rotate(90) translate(36 -43)">
    <use xlink:href="#rim"/>
    <path pointer-events="none" fill="none" stroke="white" stroke-width="1.5" d="M0,-3.0v7 M-2.5,-0.5L0,-3.0L2.5,-0.5"/>
  </g>
  <g id="arrowDown" transform="rotate(180) translate(-30 -48)">
    <use xlink:href="#rim"/>
    <path pointer-events="none" fill="none" stroke="white" stroke-width="1.5" d="M0,-3.0v7 M-2.5,-0.5L0,-3.0L2.5,-0.5"/>
  </g>
  <g id="arrowLeft" transform="rotate(270) translate(-36 17)">
    <use xlink:href="#rim"/>
    <path pointer-events="none" fill="none" stroke="white" stroke-width="1.5" d="M0,-3.0v7 M-2.5,-0.5L0,-3.0L2.5,-0.5"/>
  </g>
  <g id="resetDef">
    <use xlink:href="#rim2" fill="#404040"><set attributeName="fill" to="#808080" begin="reset.mouseover" end="reset.mouseout"/></use>
  </g>
</defs>
<script type="application/ecmascript">
var viewWidth = 747;
var viewHeight = 218;
var sectionId = 'dynsection-10';
</script>
<script type="application/ecmascript" xlink:href="svg.min.js"/>
<svg id="graph" class="graph">
<g id="viewport">
<title>helios::ecs::EntityManager::enable</title>
<!-- Node1 -->
<g id="Node000001" class="node">
<title>Node1</title>
<g id="a_Node000001"><a xlink:title="Enables or disables a component by type ID.">
<polygon fill="#999999" stroke="#666666" points="146,-105.5 0,-105.5 0,-75.5 146,-75.5 146,-105.5"/>
<text text-anchor="start" x="8" y="-93.5" font-family="Helvetica,sans-Serif" font-size="10.00">helios::ecs::EntityManager</text>
<text text-anchor="middle" x="73" y="-82.5" font-family="Helvetica,sans-Serif" font-size="10.00">::enable</text>
</a>
</g>
</g>
<!-- Node2 -->
<g id="Node000002" class="node">
<title>Node2</title>
<g id="a_Node000002"><a xlink:href="classhelios_1_1ecs_1_1EntityManager.html#a52a0b108672f8acabda898936e0a3d94" target="_top" xlink:title="Enables a component by type ID.">
<polygon fill="white" stroke="#666666" points="545.5,-191.5 399.5,-191.5 399.5,-161.5 545.5,-161.5 545.5,-191.5"/>
<text text-anchor="start" x="407.5" y="-179.5" font-family="Helvetica,sans-Serif" font-size="10.00">helios::ecs::EntityManager</text>
<text text-anchor="middle" x="472.5" y="-168.5" font-family="Helvetica,sans-Serif" font-size="10.00">::enable</text>
</a>
</g>
</g>
<!-- Node1&#45;&gt;Node2 -->
<g id="edge1_Node000001_Node000002" class="edge">
<title>Node1&#45;&gt;Node2</title>
<g id="a_edge1_Node000001_Node000002"><a xlink:title=" ">
<path fill="none" stroke="#63b8ff" d="M96.47,-105.69C117.58,-119.12 150.54,-138.02 182,-147.5 249.75,-167.92 330.04,-174.68 388.86,-176.61"/>
<polygon fill="#63b8ff" stroke="#63b8ff" points="389.12,-180.12 399.22,-176.9 389.32,-173.12 389.12,-180.12"/>
</a>
</g>
</g>
<!-- Node3 -->
<g id="Node000003" class="node">
<title>Node3</title>
<g id="a_Node000003"><a xlink:href="classhelios_1_1ecs_1_1EntityManager.html#ac58244a94efee6f2bfcf25694f1763ba" target="_top" xlink:title="Reconstructs an EntityHandle from an EntityId.">
<polygon fill="white" stroke="#666666" points="739,-105.5 593,-105.5 593,-75.5 739,-75.5 739,-105.5"/>
<text text-anchor="start" x="601" y="-93.5" font-family="Helvetica,sans-Serif" font-size="10.00">helios::ecs::EntityManager</text>
<text text-anchor="middle" x="666" y="-82.5" font-family="Helvetica,sans-Serif" font-size="10.00">::handle</text>
</a>
</g>
</g>
<!-- Node1&#45;&gt;Node3 -->
<g id="edge4_Node000001_Node000003" class="edge">
<title>Node1&#45;&gt;Node3</title>
<g id="a_edge4_Node000001_Node000003"><a xlink:title=" ">
<path fill="none" stroke="#63b8ff" d="M130.78,-105.56C147.19,-109.24 165.2,-112.66 182,-114.5 347.67,-132.69 391.33,-132.69 557,-114.5 570.52,-113.02 584.82,-110.52 598.44,-107.68"/>
<polygon fill="#63b8ff" stroke="#63b8ff" points="599.19,-111.1 608.22,-105.56 597.7,-104.26 599.19,-111.1"/>
</a>
</g>
</g>
<!-- Node4 -->
<g id="Node000004" class="node">
<title>Node4</title>
<g id="a_Node000004"><a xlink:href="classhelios_1_1ecs_1_1EntityManager.html#ad7ef4086ab7319263e3b9ce056a4b5f6" target="_top" xlink:title="Checks whether an entity has a specific component.">
<polygon fill="white" stroke="#666666" points="557,-19 388,-19 388,0 557,0 557,-19"/>
<text text-anchor="middle" x="472.5" y="-7" font-family="Helvetica,sans-Serif" font-size="10.00">helios::ecs::EntityManager::has</text>
</a>
</g>
</g>
<!-- Node1&#45;&gt;Node4 -->
<g id="edge5_Node000001_Node000004" class="edge">
<title>Node1&#45;&gt;Node4</title>
<g id="a_edge5_Node000001_Node000004"><a xlink:title=" ">
<path fill="none" stroke="#63b8ff" d="M94.25,-75.38C115.06,-60.76 149,-39.4 182,-29.5 245.39,-10.48 319.95,-5.71 377.53,-5.58"/>
<polygon fill="#63b8ff" stroke="#63b8ff" points="377.7,-9.08 387.71,-5.6 377.72,-2.08 377.7,-9.08"/>
</a>
</g>
</g>
<!-- Node5 -->
<g id="Node000005" class="node">
<title>Node5</title>
<g id="a_Node000005"><a xlink:href="classhelios_1_1ecs_1_1ComponentOpsRegistry.html#acd1d3c50c6c9fccee4452bf55eb80f87" target="_top" xlink:title=" ">
<polygon fill="white" stroke="#666666" points="349,-105.5 185,-105.5 185,-75.5 349,-75.5 349,-105.5"/>
<text text-anchor="start" x="193" y="-93.5" font-family="Helvetica,sans-Serif" font-size="10.00">helios::ecs::ComponentOps</text>
<text text-anchor="middle" x="267" y="-82.5" font-family="Helvetica,sans-Serif" font-size="10.00">Registry&lt; Handle_type &gt;::ops</text>
</a>
</g>
</g>
<!-- Node1&#45;&gt;Node5 -->
<g id="edge7_Node000001_Node000005" class="edge">
<title>Node1&#45;&gt;Node5</title>
<g id="a_edge7_Node000001_Node000005"><a xlink:title=" ">
<path fill="none" stroke="#63b8ff" d="M146.04,-90.5C155.44,-90.5 165.16,-90.5 174.82,-90.5"/>
<polygon fill="#63b8ff" stroke="#63b8ff" points="174.85,-94 184.85,-90.5 174.85,-87 174.85,-94"/>
</a>
</g>
</g>
<!-- Node7 -->
<g id="Node000007" class="node">
<title>Node7</title>
<g id="a_Node000007"><a xlink:href="classhelios_1_1ecs_1_1EntityManager.html#ad915f7e873129d85c2ee46c7913e18e4" target="_top" xlink:title="Returns raw void pointer to a component.">
<polygon fill="white" stroke="#666666" points="352,-57 182,-57 182,-38 352,-38 352,-57"/>
<text text-anchor="middle" x="267" y="-45" font-family="Helvetica,sans-Serif" font-size="10.00">helios::ecs::EntityManager::raw</text>
</a>
</g>
</g>
<!-- Node1&#45;&gt;Node7 -->
<g id="edge9_Node000001_Node000007" class="edge">
<title>Node1&#45;&gt;Node7</title>
<g id="a_edge9_Node000001_Node000007"><a xlink:title=" ">
<path fill="none" stroke="#63b8ff" d="M141.15,-75.46C164.88,-70.15 191.19,-64.25 213.53,-59.25"/>
<polygon fill="#63b8ff" stroke="#63b8ff" points="214.49,-62.62 223.48,-57.02 212.96,-55.79 214.49,-62.62"/>
</a>
</g>
</g>
<!-- Node2&#45;&gt;Node2 -->
<g id="edge2_Node000002_Node000002" class="edge">
<title>Node2&#45;&gt;Node2</title>
<g id="a_edge2_Node000002_Node000002"><a xlink:title=" ">
<path fill="none" stroke="#63b8ff" d="M438.75,-191.78C431.25,-200.91 442.5,-209.5 472.5,-209.5 490.31,-209.5 501.51,-206.47 506.11,-202.1"/>
<polygon fill="#63b8ff" stroke="#63b8ff" points="509.61,-201.82 506.25,-191.78 502.61,-201.73 509.61,-201.82"/>
</a>
</g>
</g>
<!-- Node2&#45;&gt;Node3 -->
<g id="edge3_Node000002_Node000003" class="edge">
<title>Node2&#45;&gt;Node3</title>
<g id="a_edge3_Node000002_Node000003"><a xlink:title=" ">
<path fill="none" stroke="#63b8ff" d="M520.79,-161.47C532.74,-157.29 545.46,-152.52 557,-147.5 582.07,-136.61 609.28,-122.23 630.11,-110.64"/>
<polygon fill="#63b8ff" stroke="#63b8ff" points="631.91,-113.64 638.92,-105.7 628.49,-107.54 631.91,-113.64"/>
</a>
</g>
</g>
<!-- Node4&#45;&gt;Node3 -->
<g id="edge6_Node000004_Node000003" class="edge">
<title>Node4&#45;&gt;Node3</title>
<g id="a_edge6_Node000004_Node000003"><a xlink:title=" ">
<path fill="none" stroke="#63b8ff" d="M513.14,-19.1C527.21,-22.97 543.01,-27.87 557,-33.5 582.7,-43.85 610.3,-58.48 631.17,-70.33"/>
<polygon fill="#63b8ff" stroke="#63b8ff" points="629.54,-73.43 639.96,-75.38 633.03,-67.37 629.54,-73.43"/>
</a>
</g>
</g>
<!-- Node6 -->
<g id="Node000006" class="node">
<title>Node6</title>
<g id="a_Node000006"><a xlink:href="classhelios_1_1ecs_1_1types_1_1ComponentTypeId.html#a87e08e9b04247f216b9db19142a0a4f6" target="_top" xlink:title="Returns the underlying ID value.">
<polygon fill="white" stroke="#666666" points="544,-105.5 401,-105.5 401,-75.5 544,-75.5 544,-105.5"/>
<text text-anchor="start" x="409" y="-93.5" font-family="Helvetica,sans-Serif" font-size="10.00">helios::ecs::types</text>
<text text-anchor="middle" x="472.5" y="-82.5" font-family="Helvetica,sans-Serif" font-size="10.00">::ComponentTypeId::value</text>
</a>
</g>
</g>
<!-- Node5&#45;&gt;Node6 -->
<g id="edge8_Node000005_Node000006" class="edge">
<title>Node5&#45;&gt;Node6</title>
<g id="a_edge8_Node000005_Node000006"><a xlink:title=" ">
<path fill="none" stroke="#63b8ff" d="M349.01,-90.5C362.7,-90.5 376.92,-90.5 390.6,-90.5"/>
<polygon fill="#63b8ff" stroke="#63b8ff" points="390.95,-94 400.95,-90.5 390.95,-87 390.95,-94"/>
</a>
</g>
</g>
<!-- Node7&#45;&gt;Node3 -->
<g id="edge10_Node000007_Node000003" class="edge">
<title>Node7&#45;&gt;Node3</title>
<g id="a_edge10_Node000007_Node000003"><a xlink:title=" ">
<path fill="none" stroke="#63b8ff" d="M352.13,-49.64C409.98,-51.93 488.44,-56.69 557,-66.5 569.38,-68.27 582.44,-70.69 595.05,-73.32"/>
<polygon fill="#63b8ff" stroke="#63b8ff" points="594.52,-76.79 605.03,-75.46 595.99,-69.94 594.52,-76.79"/>
</a>
</g>
</g>
<!-- Node7&#45;&gt;Node4 -->
<g id="edge11_Node000007_Node000004" class="edge">
<title>Node7&#45;&gt;Node4</title>
<g id="a_edge11_Node000007_Node000004"><a xlink:title=" ">
<path fill="none" stroke="#63b8ff" d="M319.09,-37.96C346.79,-32.79 381.21,-26.36 410.33,-20.92"/>
<polygon fill="#63b8ff" stroke="#63b8ff" points="411.2,-24.32 420.39,-19.04 409.92,-17.44 411.2,-24.32"/>
</a>
</g>
</g>
<!-- Node7&#45;&gt;Node6 -->
<g id="edge12_Node000007_Node000006" class="edge">
<title>Node7&#45;&gt;Node6</title>
<g id="a_edge12_Node000007_Node000006"><a xlink:title=" ">
<path fill="none" stroke="#63b8ff" d="M313.16,-57.04C336.01,-61.87 364.43,-67.88 390.86,-73.46"/>
<polygon fill="#63b8ff" stroke="#63b8ff" points="390.37,-76.93 400.88,-75.58 391.82,-70.09 390.37,-76.93"/>
</a>
</g>
</g>
</g>
</svg>

<g id="navigator" transform="translate(0 0)" fill="#404254">
  <rect fill="#f2f5e9" fill-opacity="0.5" stroke="#606060" stroke-width=".5" x="0" y="0" width="60" height="60"/>
  <use id="zoomplus" xlink:href="#zoomPlus" x="17" y="9" onmousedown="handleZoom(evt,'in')"/>
  <use id="zoomminus" xlink:href="#zoomMin" x="42" y="9" onmousedown="handleZoom(evt,'out')"/>
  <use id="reset" xlink:href="#resetDef" x="30" y="36" onmousedown="handleReset()"/>
   <use id="arrowup" xlink:href="#arrowUp" x="0" y="0" onmousedown="handlePan(0,-1)"/>
  <use id="arrowright" xlink:href="#arrowRight" x="0" y="0" onmousedown="handlePan(1,0)"/>
  <use id="arrowdown" xlink:href="#arrowDown" x="0" y="0" onmousedown="handlePan(0,1)"/>
  <use id="arrowleft" xlink:href="#arrowLeft" x="0" y="0" onmousedown="handlePan(-1,0)"/>
</g>
<svg viewBox="0 0 15 15" width="100%" height="30px" preserveAspectRatio="xMaxYMin meet">
 <g id="arrow_out" transform="scale(0.3 0.3)">
  <a xlink:href="classhelios_1_1ecs_1_1EntityManager_ad84cd57bbeb9d74a6c7a4d555bd70380_cgraph_org.svg" target="_base">
   <rect id="button" ry="5" rx="5" y="6" x="6" height="38" width="38"
        fill="#f2f5e9" fill-opacity="0.5" stroke="#606060" stroke-width="1.0"/>
   <path id="arrow"
     d="M 11.500037,31.436501 C 11.940474,20.09759 22.043105,11.32322 32.158766,21.979434 L 37.068811,17.246167 C 37.068811,17.246167 37.088388,32 37.088388,32 L 22.160133,31.978069 C 22.160133,31.978069 26.997745,27.140456 26.997745,27.140456 C 18.528582,18.264221 13.291696,25.230495 11.500037,31.436501 z"
     style="fill:#404040;"/>
  </a>
 </g>
</svg>

<style type='text/css'>
<![CDATA[
[data-mouse-over-selected='false'] { opacity: 0.7; }
[data-mouse-over-selected='true']  { opacity: 1.0; }
]]>
</style>
<script type="application/ecmascript"><![CDATA[
document.addEventListener('DOMContentLoaded', (event) => {
  highlightEdges();
  highlightAdjacentNodes();
});
]]></script>
</svg>
