<?xml version="1.0" encoding="UTF-8" standalone="no"?>
<!DOCTYPE svg PUBLIC "-//W3C//DTD SVG 1.1//EN"
 "http://www.w3.org/Graphics/SVG/1.1/DTD/svg11.dtd">
<!-- Generated by graphviz version 2.43.0 (0)
 -->
<!-- Title: helios::engine::modules::physics::collision::systems::GridCollisionDetectionSystem::cellIndex Pages: 1 -->
<svg width="820pt" height="130pt"
 viewBox="0.00 0.00 820.00 130.00" xmlns="http://www.w3.org/2000/svg" xmlns:xlink="http://www.w3.org/1999/xlink">
<g id="graph0" class="graph" transform="scale(1 1) rotate(0) translate(4 126)">
<title>helios::engine::modules::physics::collision::systems::GridCollisionDetectionSystem::cellIndex</title>
<!-- Node1 -->
<g id="Node000001" class="node">
<title>Node1</title>
<g id="a_Node000001"><a xlink:title="Computes the 1D index of a cell in a 3D grid based on its x, y, and z coordinates.">
<polygon fill="#999999" stroke="#666666" points="812,-79 639,-79 639,-27 812,-27 812,-79"/>
<text text-anchor="start" x="647" y="-67" font-family="Helvetica,sans-Serif" font-size="10.00">helios::engine::modules</text>
<text text-anchor="start" x="647" y="-56" font-family="Helvetica,sans-Serif" font-size="10.00">::physics::collision::</text>
<text text-anchor="start" x="647" y="-45" font-family="Helvetica,sans-Serif" font-size="10.00">systems::GridCollisionDetection</text>
<text text-anchor="middle" x="725.5" y="-34" font-family="Helvetica,sans-Serif" font-size="10.00">System::cellIndex</text>
</a>
</g>
</g>
<!-- Node2 -->
<g id="Node000002" class="node">
<title>Node2</title>
<g id="a_Node000002"><a xlink:href="classhelios_1_1engine_1_1modules_1_1physics_1_1collision_1_1systems_1_1GridCollisionDetectionSystem.html#a7117db53bda939cdfe169476e3314e46" target="_top" xlink:title="Accesses a grid cell by its 3D coordinates.">
<polygon fill="white" stroke="#666666" points="603,-106 430,-106 430,-54 603,-54 603,-106"/>
<text text-anchor="start" x="438" y="-94" font-family="Helvetica,sans-Serif" font-size="10.00">helios::engine::modules</text>
<text text-anchor="start" x="438" y="-83" font-family="Helvetica,sans-Serif" font-size="10.00">::physics::collision::</text>
<text text-anchor="start" x="438" y="-72" font-family="Helvetica,sans-Serif" font-size="10.00">systems::GridCollisionDetection</text>
<text text-anchor="middle" x="516.5" y="-61" font-family="Helvetica,sans-Serif" font-size="10.00">System::cell</text>
</a>
</g>
</g>
<!-- Node1&#45;&gt;Node2 -->
<g id="edge1_Node000001_Node000002" class="edge">
<title>Node1&#45;&gt;Node2</title>
<g id="a_edge1_Node000001_Node000002"><a xlink:title=" ">
<path fill="none" stroke="#63b8ff" d="M628.8,-65.48C620.24,-66.6 611.6,-67.73 603.12,-68.83"/>
<polygon fill="#63b8ff" stroke="#63b8ff" points="629.35,-68.94 638.81,-64.18 628.44,-62 629.35,-68.94"/>
</a>
</g>
</g>
<!-- Node5 -->
<g id="Node000005" class="node">
<title>Node5</title>
<g id="a_Node000005"><a xlink:href="classhelios_1_1engine_1_1modules_1_1physics_1_1collision_1_1systems_1_1GridCollisionDetectionSystem.html#a607ead6b651ce013f48ad991eecf4cdf" target="_top" xlink:title="Inserts a collision candidate into all grid cells it overlaps.">
<polygon fill="white" stroke="#666666" points="394,-52 209,-52 209,0 394,0 394,-52"/>
<text text-anchor="start" x="217" y="-40" font-family="Helvetica,sans-Serif" font-size="10.00">helios::engine::modules</text>
<text text-anchor="start" x="217" y="-29" font-family="Helvetica,sans-Serif" font-size="10.00">::physics::collision::</text>
<text text-anchor="start" x="217" y="-18" font-family="Helvetica,sans-Serif" font-size="10.00">systems::GridCollisionDetection</text>
<text text-anchor="middle" x="301.5" y="-7" font-family="Helvetica,sans-Serif" font-size="10.00">System::updateCollisionCandidate</text>
</a>
</g>
</g>
<!-- Node1&#45;&gt;Node5 -->
<g id="edge6_Node000001_Node000005" class="edge">
<title>Node1&#45;&gt;Node5</title>
<g id="a_edge6_Node000001_Node000005"><a xlink:title=" ">
<path fill="none" stroke="#63b8ff" d="M628.68,-46.67C620,-46.1 611.34,-45.54 603,-45 532.97,-40.48 453.75,-35.48 394.23,-31.74"/>
<polygon fill="#63b8ff" stroke="#63b8ff" points="628.67,-50.17 638.87,-47.33 629.12,-43.19 628.67,-50.17"/>
</a>
</g>
</g>
<!-- Node3 -->
<g id="Node000003" class="node">
<title>Node3</title>
<g id="a_Node000003"><a xlink:href="classhelios_1_1engine_1_1modules_1_1physics_1_1collision_1_1systems_1_1GridCollisionDetectionSystem.html#aeb615f2b8547602d0ee61d776fefa9e8" target="_top" xlink:title="Performs narrow&#45;phase collision detection for all candidates in a cell.">
<polygon fill="white" stroke="#666666" points="388,-122 215,-122 215,-70 388,-70 388,-122"/>
<text text-anchor="start" x="223" y="-110" font-family="Helvetica,sans-Serif" font-size="10.00">helios::engine::modules</text>
<text text-anchor="start" x="223" y="-99" font-family="Helvetica,sans-Serif" font-size="10.00">::physics::collision::</text>
<text text-anchor="start" x="223" y="-88" font-family="Helvetica,sans-Serif" font-size="10.00">systems::GridCollisionDetection</text>
<text text-anchor="middle" x="301.5" y="-77" font-family="Helvetica,sans-Serif" font-size="10.00">System::solveCell</text>
</a>
</g>
</g>
<!-- Node2&#45;&gt;Node3 -->
<g id="edge2_Node000002_Node000003" class="edge">
<title>Node2&#45;&gt;Node3</title>
<g id="a_edge2_Node000002_Node000003"><a xlink:title=" ">
<path fill="none" stroke="#63b8ff" d="M419.72,-87.19C409.16,-87.99 398.46,-88.79 388.04,-89.57"/>
<polygon fill="#63b8ff" stroke="#63b8ff" points="420.08,-90.68 429.79,-86.44 419.55,-83.7 420.08,-90.68"/>
</a>
</g>
</g>
<!-- Node2&#45;&gt;Node5 -->
<g id="edge4_Node000002_Node000005" class="edge">
<title>Node2&#45;&gt;Node5</title>
<g id="a_edge4_Node000002_Node000005"><a xlink:title=" ">
<path fill="none" stroke="#63b8ff" d="M419.87,-55.75C411.37,-53.6 402.77,-51.42 394.31,-49.28"/>
<polygon fill="#63b8ff" stroke="#63b8ff" points="419.23,-59.2 429.79,-58.27 420.95,-52.42 419.23,-59.2"/>
</a>
</g>
</g>
<!-- Node4 -->
<g id="Node000004" class="node">
<title>Node4</title>
<g id="a_Node000004"><a xlink:href="classhelios_1_1engine_1_1modules_1_1physics_1_1collision_1_1systems_1_1GridCollisionDetectionSystem.html#a398512331f26b4a44dda02476249f610" target="_top" xlink:title="Performs collision detection for all active entities.">
<polygon fill="white" stroke="#666666" points="173,-87 0,-87 0,-35 173,-35 173,-87"/>
<text text-anchor="start" x="8" y="-75" font-family="Helvetica,sans-Serif" font-size="10.00">helios::engine::modules</text>
<text text-anchor="start" x="8" y="-64" font-family="Helvetica,sans-Serif" font-size="10.00">::physics::collision::</text>
<text text-anchor="start" x="8" y="-53" font-family="Helvetica,sans-Serif" font-size="10.00">systems::GridCollisionDetection</text>
<text text-anchor="middle" x="86.5" y="-42" font-family="Helvetica,sans-Serif" font-size="10.00">System::update</text>
</a>
</g>
</g>
<!-- Node3&#45;&gt;Node4 -->
<g id="edge3_Node000003_Node000004" class="edge">
<title>Node3&#45;&gt;Node4</title>
<g id="a_edge3_Node000003_Node000004"><a xlink:title=" ">
<path fill="none" stroke="#63b8ff" d="M204.72,-80.26C194.16,-78.53 183.46,-76.77 173.04,-75.06"/>
<polygon fill="#63b8ff" stroke="#63b8ff" points="204.35,-83.75 214.79,-81.92 205.49,-76.84 204.35,-83.75"/>
</a>
</g>
</g>
<!-- Node5&#45;&gt;Node4 -->
<g id="edge5_Node000005_Node000004" class="edge">
<title>Node5&#45;&gt;Node4</title>
<g id="a_edge5_Node000005_Node000004"><a xlink:title=" ">
<path fill="none" stroke="#63b8ff" d="M198.9,-42.7C190.32,-44.1 181.7,-45.52 173.26,-46.91"/>
<polygon fill="#63b8ff" stroke="#63b8ff" points="199.63,-46.12 208.93,-41.05 198.5,-39.21 199.63,-46.12"/>
</a>
</g>
</g>
</g>
</svg>
