<?xml version="1.0" encoding="UTF-8" standalone="no"?>
<!DOCTYPE svg PUBLIC "-//W3C//DTD SVG 1.1//EN"
 "http://www.w3.org/Graphics/SVG/1.1/DTD/svg11.dtd">
<!-- Generated by graphviz version 2.43.0 (0)
 -->
<!-- Title: helios::engine::runtime::world::types::ResourceTypeId::ResourceTypeId Pages: 1 -->
<svg width="528pt" height="62pt"
 viewBox="0.00 0.00 528.00 61.50" xmlns="http://www.w3.org/2000/svg" xmlns:xlink="http://www.w3.org/1999/xlink">
<g id="graph0" class="graph" transform="scale(1 1) rotate(0) translate(4 57.5)">
<title>helios::engine::runtime::world::types::ResourceTypeId::ResourceTypeId</title>
<!-- Node1 -->
<g id="Node000001" class="node">
<title>Node1</title>
<g id="a_Node000001"><a xlink:title="Constructs a ResourceTypeId with a specific value.">
<polygon fill="#999999" stroke="#666666" points="156,-41 0,-41 0,0 156,0 156,-41"/>
<text text-anchor="start" x="8" y="-29" font-family="Helvetica,sans-Serif" font-size="10.00">helios::engine::runtime</text>
<text text-anchor="start" x="8" y="-18" font-family="Helvetica,sans-Serif" font-size="10.00">::world::types::ResourceType</text>
<text text-anchor="middle" x="78" y="-7" font-family="Helvetica,sans-Serif" font-size="10.00">Id::ResourceTypeId</text>
</a>
</g>
</g>
<!-- Node2 -->
<g id="Node000002" class="node">
<title>Node2</title>
<g id="a_Node000002"><a xlink:href="classhelios_1_1engine_1_1runtime_1_1world_1_1types_1_1ResourceTypeId.html#a37f9dd904ff6a2a737cf569545d71e8b" target="_top" xlink:title="Returns the ResourceTypeId for a specific type.">
<polygon fill="white" stroke="#666666" points="348,-41 192,-41 192,0 348,0 348,-41"/>
<text text-anchor="start" x="200" y="-29" font-family="Helvetica,sans-Serif" font-size="10.00">helios::engine::runtime</text>
<text text-anchor="start" x="200" y="-18" font-family="Helvetica,sans-Serif" font-size="10.00">::world::types::ResourceType</text>
<text text-anchor="middle" x="270" y="-7" font-family="Helvetica,sans-Serif" font-size="10.00">Id::id</text>
</a>
</g>
</g>
<!-- Node1&#45;&gt;Node2 -->
<g id="edge1_Node000001_Node000002" class="edge">
<title>Node1&#45;&gt;Node2</title>
<g id="a_edge1_Node000001_Node000002"><a xlink:title=" ">
<path fill="none" stroke="#63b8ff" d="M156.01,-13.86C164.51,-13.75 173.21,-13.73 181.83,-13.77"/>
<polygon fill="#63b8ff" stroke="#63b8ff" points="181.85,-17.27 191.88,-13.86 181.91,-10.27 181.85,-17.27"/>
</a>
</g>
</g>
<!-- Node2&#45;&gt;Node1 -->
<g id="edge2_Node000002_Node000001" class="edge">
<title>Node2&#45;&gt;Node1</title>
<g id="a_edge2_Node000002_Node000001"><a xlink:title=" ">
<path fill="none" stroke="#63b8ff" d="M191.88,-27.14C183.38,-27.25 174.68,-27.27 166.06,-27.23"/>
<polygon fill="#63b8ff" stroke="#63b8ff" points="166.04,-23.73 156.01,-27.14 165.98,-30.73 166.04,-23.73"/>
</a>
</g>
</g>
<!-- Node3 -->
<g id="Node000003" class="node">
<title>Node3</title>
<g id="a_Node000003"><a xlink:href="classhelios_1_1core_1_1data_1_1TypeIndexer.html#a33aff035cb667c63fcd123a69a91b3cc" target="_top" xlink:title="Generates and returns a unique type index for a specific type.">
<polygon fill="white" stroke="#666666" points="520,-35.5 384,-35.5 384,-5.5 520,-5.5 520,-35.5"/>
<text text-anchor="start" x="392" y="-23.5" font-family="Helvetica,sans-Serif" font-size="10.00">helios::core::data</text>
<text text-anchor="middle" x="452" y="-12.5" font-family="Helvetica,sans-Serif" font-size="10.00">::TypeIndexer::typeIndex</text>
</a>
</g>
</g>
<!-- Node2&#45;&gt;Node3 -->
<g id="edge3_Node000002_Node000003" class="edge">
<title>Node2&#45;&gt;Node3</title>
<g id="a_edge3_Node000002_Node000003"><a xlink:title=" ">
<path fill="none" stroke="#63b8ff" d="M348.12,-20.5C356.6,-20.5 365.23,-20.5 373.72,-20.5"/>
<polygon fill="#63b8ff" stroke="#63b8ff" points="373.97,-24 383.97,-20.5 373.97,-17 373.97,-24"/>
</a>
</g>
</g>
<!-- Node3&#45;&gt;Node3 -->
<g id="edge4_Node000003_Node000003" class="edge">
<title>Node3&#45;&gt;Node3</title>
<g id="a_edge4_Node000003_Node000003"><a xlink:title=" ">
<path fill="none" stroke="#63b8ff" d="M420.01,-35.78C412.9,-44.91 423.56,-53.5 452,-53.5 468.88,-53.5 479.5,-50.47 483.86,-46.1"/>
<polygon fill="#63b8ff" stroke="#63b8ff" points="487.36,-45.82 483.99,-35.78 480.36,-45.73 487.36,-45.82"/>
</a>
</g>
</g>
</g>
</svg>
