<?xml version="1.0" encoding="UTF-8" standalone="no"?>
<!DOCTYPE svg PUBLIC "-//W3C//DTD SVG 1.1//EN"
 "http://www.w3.org/Graphics/SVG/1.1/DTD/svg11.dtd">
<!-- Generated by graphviz version 2.43.0 (0)
 -->
<!-- Title: helios::engine::ecs::ComponentOpsRegistry::ops Pages: 1 -->
<!--zoomable 493 -->

<svg id="main" version="1.1" xmlns="http://www.w3.org/2000/svg" xmlns:xlink="http://www.w3.org/1999/xlink" xml:space="preserve" onload="init(evt)">

<style type="text/css"><![CDATA[
.node, .edge {opacity: 0.7;}
.node.selected, .edge.selected {opacity: 1;}
.edge:hover path { stroke: red; }
.edge:hover polygon { stroke: red; fill: red; }
]]></style>

<defs>
  <circle id="rim" cx="0" cy="0" r="7"/>
  <circle id="rim2" cx="0" cy="0" r="3.5"/>
  <g id="zoomPlus">
    <use xlink:href="#rim" fill="#404040"><set attributeName="fill" to="#808080" begin="zoomplus.mouseover" end="zoomplus.mouseout"/></use>
    <path d="M-4,0h8M0,-4v8" fill="none" stroke="white" stroke-width="1.5" pointer-events="none"/>
  </g>
  <g id="zoomMin">
    <use xlink:href="#rim" fill="#404040"><set attributeName="fill" to="#808080" begin="zoomminus.mouseover" end="zoomminus.mouseout"/></use>
    <path d="M-4,0h8" fill="none" stroke="white" stroke-width="1.5" pointer-events="none"/>
  </g>
  <g id="arrowUp" transform="translate(30 24)">
    <use xlink:href="#rim"/>
    <path pointer-events="none" fill="none" stroke="white" stroke-width="1.5" d="M0,-3.0v7 M-2.5,-0.5L0,-3.0L2.5,-0.5"/>
  </g>
  <g id="arrowRight" transform="rotate(90) translate(36 -43)">
    <use xlink:href="#rim"/>
    <path pointer-events="none" fill="none" stroke="white" stroke-width="1.5" d="M0,-3.0v7 M-2.5,-0.5L0,-3.0L2.5,-0.5"/>
  </g>
  <g id="arrowDown" transform="rotate(180) translate(-30 -48)">
    <use xlink:href="#rim"/>
    <path pointer-events="none" fill="none" stroke="white" stroke-width="1.5" d="M0,-3.0v7 M-2.5,-0.5L0,-3.0L2.5,-0.5"/>
  </g>
  <g id="arrowLeft" transform="rotate(270) translate(-36 17)">
    <use xlink:href="#rim"/>
    <path pointer-events="none" fill="none" stroke="white" stroke-width="1.5" d="M0,-3.0v7 M-2.5,-0.5L0,-3.0L2.5,-0.5"/>
  </g>
  <g id="resetDef">
    <use xlink:href="#rim2" fill="#404040"><set attributeName="fill" to="#808080" begin="reset.mouseover" end="reset.mouseout"/></use>
  </g>
</defs>
<script type="application/ecmascript">
var viewWidth = 590;
var viewHeight = 493;
var sectionId = 'dynsection-1';
</script>
<script type="application/ecmascript" xlink:href="svg.min.js"/>
<svg id="graph" class="graph">
<g id="viewport">
<title>helios::engine::ecs::ComponentOpsRegistry::ops</title>
<!-- Node1 -->
<g id="Node000001" class="node">
<title>Node1</title>
<g id="a_Node000001"><a xlink:title="Retrieves ComponentOps for a component type.">
<polygon fill="#999999" stroke="#666666" points="582,-268.5 421,-268.5 421,-238.5 582,-238.5 582,-268.5"/>
<text text-anchor="start" x="429" y="-256.5" font-family="Helvetica,sans-Serif" font-size="10.00">helios::engine::ecs</text>
<text text-anchor="middle" x="501.5" y="-245.5" font-family="Helvetica,sans-Serif" font-size="10.00">::ComponentOpsRegistry::ops</text>
</a>
</g>
</g>
<!-- Node2 -->
<g id="Node000002" class="node">
<title>Node2</title>
<g id="a_Node000002"><a xlink:href="classhelios_1_1engine_1_1ecs_1_1GameObject.html#a0447ff56cdd329a2db5436096f8353ae" target="_top" xlink:title="Constructs and attaches a component to this entity.">
<polygon fill="white" stroke="#666666" points="331.5,-484.5 224.5,-484.5 224.5,-454.5 331.5,-454.5 331.5,-484.5"/>
<text text-anchor="start" x="232.5" y="-472.5" font-family="Helvetica,sans-Serif" font-size="10.00">helios::engine::ecs</text>
<text text-anchor="middle" x="278" y="-461.5" font-family="Helvetica,sans-Serif" font-size="10.00">::GameObject::add</text>
</a>
</g>
</g>
<!-- Node1&#45;&gt;Node2 -->
<g id="edge1_Node000001_Node000002" class="edge">
<title>Node1&#45;&gt;Node2</title>
<g id="a_edge1_Node000001_Node000002"><a xlink:title=" ">
<path fill="none" stroke="#63b8ff" d="M492.84,-278.14C478.63,-319.55 444.14,-402.75 385,-445.5 369.56,-456.66 349.8,-462.76 331.54,-466.04"/>
<polygon fill="#63b8ff" stroke="#63b8ff" points="496.19,-279.15 496.01,-268.56 489.54,-276.95 496.19,-279.15"/>
</a>
</g>
</g>
<!-- Node4 -->
<g id="Node000004" class="node">
<title>Node4</title>
<g id="a_Node000004"><a xlink:href="classhelios_1_1engine_1_1ecs_1_1EntityManager.html#ac5e13477c8dfc73875e797a5ec74baef" target="_top" xlink:title="Clones all components from source entity to target entity.">
<polygon fill="white" stroke="#666666" points="341,-436.5 215,-436.5 215,-406.5 341,-406.5 341,-436.5"/>
<text text-anchor="start" x="223" y="-424.5" font-family="Helvetica,sans-Serif" font-size="10.00">helios::engine::ecs</text>
<text text-anchor="middle" x="278" y="-413.5" font-family="Helvetica,sans-Serif" font-size="10.00">::EntityManager::clone</text>
</a>
</g>
</g>
<!-- Node1&#45;&gt;Node4 -->
<g id="edge3_Node000001_Node000004" class="edge">
<title>Node1&#45;&gt;Node4</title>
<g id="a_edge3_Node000001_Node000004"><a xlink:title=" ">
<path fill="none" stroke="#63b8ff" d="M487.9,-277.82C469.72,-310.38 432.98,-367.5 385,-397.5 371.88,-405.7 356.29,-411.11 341.16,-414.68"/>
<polygon fill="#63b8ff" stroke="#63b8ff" points="491.02,-279.4 492.73,-268.95 484.88,-276.06 491.02,-279.4"/>
</a>
</g>
</g>
<!-- Node5 -->
<g id="Node000005" class="node">
<title>Node5</title>
<g id="a_Node000005"><a xlink:href="classhelios_1_1engine_1_1ecs_1_1EntityManager.html#a407554a390eb1986ae7b469caa406fad" target="_top" xlink:title="Destroys an entity and invalidates its handle.">
<polygon fill="white" stroke="#666666" points="346.5,-388.5 209.5,-388.5 209.5,-358.5 346.5,-358.5 346.5,-388.5"/>
<text text-anchor="start" x="217.5" y="-376.5" font-family="Helvetica,sans-Serif" font-size="10.00">helios::engine::ecs</text>
<text text-anchor="middle" x="278" y="-365.5" font-family="Helvetica,sans-Serif" font-size="10.00">::EntityManager::destroy</text>
</a>
</g>
</g>
<!-- Node1&#45;&gt;Node5 -->
<g id="edge4_Node000001_Node000005" class="edge">
<title>Node1&#45;&gt;Node5</title>
<g id="a_edge4_Node000001_Node000005"><a xlink:title=" ">
<path fill="none" stroke="#63b8ff" d="M479.79,-276.04C458.23,-298.11 422.45,-331.04 385,-349.5 373.07,-355.38 359.67,-359.85 346.52,-363.22"/>
<polygon fill="#63b8ff" stroke="#63b8ff" points="482.41,-278.37 486.8,-268.73 477.35,-273.53 482.41,-278.37"/>
</a>
</g>
</g>
<!-- Node6 -->
<g id="Node000006" class="node">
<title>Node6</title>
<g id="a_Node000006"><a xlink:href="classhelios_1_1engine_1_1ecs_1_1EntityManager.html#a935c5347e407e1f7c7c37b45991eb0d3" target="_top" xlink:title="Enables or disables a component by type ID.">
<polygon fill="white" stroke="#666666" points="344.5,-340.5 211.5,-340.5 211.5,-310.5 344.5,-310.5 344.5,-340.5"/>
<text text-anchor="start" x="219.5" y="-328.5" font-family="Helvetica,sans-Serif" font-size="10.00">helios::engine::ecs</text>
<text text-anchor="middle" x="278" y="-317.5" font-family="Helvetica,sans-Serif" font-size="10.00">::EntityManager::enable</text>
</a>
</g>
</g>
<!-- Node1&#45;&gt;Node6 -->
<g id="edge5_Node000001_Node000006" class="edge">
<title>Node1&#45;&gt;Node6</title>
<g id="a_edge5_Node000001_Node000006"><a xlink:title=" ">
<path fill="none" stroke="#63b8ff" d="M458.95,-272.8C437.25,-282.35 410.05,-293.52 385,-301.5 372.14,-305.59 358.2,-309.27 344.78,-312.45"/>
<polygon fill="#63b8ff" stroke="#63b8ff" points="460.49,-275.94 468.2,-268.68 457.64,-269.55 460.49,-275.94"/>
</a>
</g>
</g>
<!-- Node7 -->
<g id="Node000007" class="node">
<title>Node7</title>
<g id="a_Node000007"><a xlink:href="classhelios_1_1engine_1_1ecs_1_1GameObject.html#ad1a7a9e6853925618d4aa9170409f072" target="_top" xlink:title="Notifies all components that the entity is being acquired from a pool.">
<polygon fill="white" stroke="#666666" points="347,-292.5 209,-292.5 209,-262.5 347,-262.5 347,-292.5"/>
<text text-anchor="start" x="217" y="-280.5" font-family="Helvetica,sans-Serif" font-size="10.00">helios::engine::ecs</text>
<text text-anchor="middle" x="278" y="-269.5" font-family="Helvetica,sans-Serif" font-size="10.00">::GameObject::onAcquire</text>
</a>
</g>
</g>
<!-- Node1&#45;&gt;Node7 -->
<g id="edge6_Node000001_Node000007" class="edge">
<title>Node1&#45;&gt;Node7</title>
<g id="a_edge6_Node000001_Node000007"><a xlink:title=" ">
<path fill="none" stroke="#63b8ff" d="M410.87,-263.21C389.68,-265.51 367.41,-267.92 347.34,-270.1"/>
<polygon fill="#63b8ff" stroke="#63b8ff" points="411.28,-266.69 420.85,-262.13 410.53,-259.73 411.28,-266.69"/>
</a>
</g>
</g>
<!-- Node8 -->
<g id="Node000008" class="node">
<title>Node8</title>
<g id="a_Node000008"><a xlink:href="classhelios_1_1engine_1_1ecs_1_1GameObject.html#a2a7b9dc93c0a360e83ed33534742b7ae" target="_top" xlink:title="Notifies all components that the entity is being released to a pool.">
<polygon fill="white" stroke="#666666" points="348,-244.5 208,-244.5 208,-214.5 348,-214.5 348,-244.5"/>
<text text-anchor="start" x="216" y="-232.5" font-family="Helvetica,sans-Serif" font-size="10.00">helios::engine::ecs</text>
<text text-anchor="middle" x="278" y="-221.5" font-family="Helvetica,sans-Serif" font-size="10.00">::GameObject::onRelease</text>
</a>
</g>
</g>
<!-- Node1&#45;&gt;Node8 -->
<g id="edge7_Node000001_Node000008" class="edge">
<title>Node1&#45;&gt;Node8</title>
<g id="a_edge7_Node000001_Node000008"><a xlink:title=" ">
<path fill="none" stroke="#63b8ff" d="M410.69,-243.77C389.8,-241.51 367.89,-239.13 348.06,-236.98"/>
<polygon fill="#63b8ff" stroke="#63b8ff" points="410.53,-247.27 420.85,-244.87 411.28,-240.31 410.53,-247.27"/>
</a>
</g>
</g>
<!-- Node9 -->
<g id="Node000009" class="node">
<title>Node9</title>
<g id="a_Node000009"><a xlink:href="classhelios_1_1engine_1_1ecs_1_1EntityManager.html#a15f4a7849d69f466ffbf51f3cec11582" target="_top" xlink:title="Removes a specific component from an entity.">
<polygon fill="white" stroke="#666666" points="346.5,-196.5 209.5,-196.5 209.5,-166.5 346.5,-166.5 346.5,-196.5"/>
<text text-anchor="start" x="217.5" y="-184.5" font-family="Helvetica,sans-Serif" font-size="10.00">helios::engine::ecs</text>
<text text-anchor="middle" x="278" y="-173.5" font-family="Helvetica,sans-Serif" font-size="10.00">::EntityManager::remove</text>
</a>
</g>
</g>
<!-- Node1&#45;&gt;Node9 -->
<g id="edge8_Node000001_Node000009" class="edge">
<title>Node1&#45;&gt;Node9</title>
<g id="a_edge8_Node000001_Node000009"><a xlink:title=" ">
<path fill="none" stroke="#63b8ff" d="M458.95,-234.2C437.25,-224.65 410.05,-213.48 385,-205.5 372.77,-201.61 359.56,-198.09 346.76,-195.02"/>
<polygon fill="#63b8ff" stroke="#63b8ff" points="457.64,-237.45 468.2,-238.32 460.49,-231.06 457.64,-237.45"/>
</a>
</g>
</g>
<!-- Node10 -->
<g id="Node000010" class="node">
<title>Node10</title>
<g id="a_Node000010"><a xlink:href="classhelios_1_1engine_1_1ecs_1_1GameObject.html#a5b86c188307f1f2e8500509708d60d93" target="_top" xlink:title="Sets the activation state of this GameObject.">
<polygon fill="white" stroke="#666666" points="345.5,-148.5 210.5,-148.5 210.5,-118.5 345.5,-118.5 345.5,-148.5"/>
<text text-anchor="start" x="218.5" y="-136.5" font-family="Helvetica,sans-Serif" font-size="10.00">helios::engine::ecs</text>
<text text-anchor="middle" x="278" y="-125.5" font-family="Helvetica,sans-Serif" font-size="10.00">::GameObject::setActive</text>
</a>
</g>
</g>
<!-- Node1&#45;&gt;Node10 -->
<g id="edge9_Node000001_Node000010" class="edge">
<title>Node1&#45;&gt;Node10</title>
<g id="a_edge9_Node000001_Node000010"><a xlink:title=" ">
<path fill="none" stroke="#63b8ff" d="M479.79,-230.96C458.23,-208.89 422.45,-175.96 385,-157.5 372.82,-151.49 359.1,-146.97 345.68,-143.56"/>
<polygon fill="#63b8ff" stroke="#63b8ff" points="477.35,-233.47 486.8,-238.27 482.41,-228.63 477.35,-233.47"/>
</a>
</g>
</g>
<!-- Node11 -->
<g id="Node000011" class="node">
<title>Node11</title>
<g id="a_Node000011"><a xlink:href="classhelios_1_1engine_1_1ecs_1_1ComponentOpsRegistry.html#ade4bd74049b3f12d429df09067607924" target="_top" xlink:title="Registers ComponentOps for a component type.">
<polygon fill="white" stroke="#666666" points="347,-100 209,-100 209,-59 347,-59 347,-100"/>
<text text-anchor="start" x="217" y="-88" font-family="Helvetica,sans-Serif" font-size="10.00">helios::engine::ecs</text>
<text text-anchor="start" x="217" y="-77" font-family="Helvetica,sans-Serif" font-size="10.00">::ComponentOpsRegistry</text>
<text text-anchor="middle" x="278" y="-66" font-family="Helvetica,sans-Serif" font-size="10.00">::setOps</text>
</a>
</g>
</g>
<!-- Node1&#45;&gt;Node11 -->
<g id="edge10_Node000001_Node000011" class="edge">
<title>Node1&#45;&gt;Node11</title>
<g id="a_edge10_Node000001_Node000011"><a xlink:title=" ">
<path fill="none" stroke="#63b8ff" d="M487.67,-229.54C469.22,-197.4 432.17,-140.76 385,-109.5 373.6,-101.95 360.3,-96.27 347.05,-92.01"/>
<polygon fill="#63b8ff" stroke="#63b8ff" points="484.63,-231.29 492.58,-238.3 490.74,-227.86 484.63,-231.29"/>
</a>
</g>
</g>
<!-- Node13 -->
<g id="Node000013" class="node">
<title>Node13</title>
<g id="a_Node000013"><a xlink:href="classhelios_1_1engine_1_1mechanics_1_1lifecycle_1_1systems_1_1DelayedComponentEnablerSystem.html#ae7c5a33ae0ce9c8bfdf69a5b3a758bf6" target="_top" xlink:title="Processes all deferred components and activates expired ones.">
<polygon fill="white" stroke="#666666" points="385,-41 171,-41 171,0 385,0 385,-41"/>
<text text-anchor="start" x="179" y="-29" font-family="Helvetica,sans-Serif" font-size="10.00">helios::engine::mechanics</text>
<text text-anchor="start" x="179" y="-18" font-family="Helvetica,sans-Serif" font-size="10.00">::lifecycle::systems::DelayedComponent</text>
<text text-anchor="middle" x="278" y="-7" font-family="Helvetica,sans-Serif" font-size="10.00">EnablerSystem::update</text>
</a>
</g>
</g>
<!-- Node1&#45;&gt;Node13 -->
<g id="edge12_Node000001_Node000013" class="edge">
<title>Node1&#45;&gt;Node13</title>
<g id="a_edge12_Node000001_Node000013"><a xlink:title=" ">
<path fill="none" stroke="#63b8ff" d="M493.36,-228.55C479.7,-185.35 445.68,-96.72 385,-49.5 380.93,-46.34 376.55,-43.52 371.95,-41.01"/>
<polygon fill="#63b8ff" stroke="#63b8ff" points="490.06,-229.72 496.33,-238.26 496.76,-227.67 490.06,-229.72"/>
</a>
</g>
</g>
<!-- Node3 -->
<g id="Node000003" class="node">
<title>Node3</title>
<g id="a_Node000003"><a xlink:href="classhelios_1_1engine_1_1ecs_1_1GameObject.html#ad6fbab6897f2899f0e6f98c37ba294e8" target="_top" xlink:title="Returns existing component or creates a new one.">
<polygon fill="white" stroke="#666666" points="135,-484.5 0,-484.5 0,-454.5 135,-454.5 135,-484.5"/>
<text text-anchor="start" x="8" y="-472.5" font-family="Helvetica,sans-Serif" font-size="10.00">helios::engine::ecs</text>
<text text-anchor="middle" x="67.5" y="-461.5" font-family="Helvetica,sans-Serif" font-size="10.00">::GameObject::getOrAdd</text>
</a>
</g>
</g>
<!-- Node2&#45;&gt;Node3 -->
<g id="edge2_Node000002_Node000003" class="edge">
<title>Node2&#45;&gt;Node3</title>
<g id="a_edge2_Node000002_Node000003"><a xlink:title=" ">
<path fill="none" stroke="#63b8ff" d="M214.32,-469.5C189.38,-469.5 160.66,-469.5 135.33,-469.5"/>
<polygon fill="#63b8ff" stroke="#63b8ff" points="214.39,-473 224.39,-469.5 214.39,-466 214.39,-473"/>
</a>
</g>
</g>
<!-- Node12 -->
<g id="Node000012" class="node">
<title>Node12</title>
<g id="a_Node000012"><a xlink:href="classhelios_1_1engine_1_1ecs_1_1ComponentReflector.html#a766a63ff1fca4a9ff2a95406af08f393" target="_top" xlink:title="Registers a component type with the reflection system.">
<polygon fill="white" stroke="#666666" points="128.5,-100 6.5,-100 6.5,-59 128.5,-59 128.5,-100"/>
<text text-anchor="start" x="14.5" y="-88" font-family="Helvetica,sans-Serif" font-size="10.00">helios::engine::ecs</text>
<text text-anchor="start" x="14.5" y="-77" font-family="Helvetica,sans-Serif" font-size="10.00">::ComponentReflector</text>
<text text-anchor="middle" x="67.5" y="-66" font-family="Helvetica,sans-Serif" font-size="10.00">::registerType</text>
</a>
</g>
</g>
<!-- Node11&#45;&gt;Node12 -->
<g id="edge11_Node000011_Node000012" class="edge">
<title>Node11&#45;&gt;Node12</title>
<g id="a_edge11_Node000011_Node000012"><a xlink:title=" ">
<path fill="none" stroke="#63b8ff" d="M198.56,-79.5C175.36,-79.5 150.34,-79.5 128.5,-79.5"/>
<polygon fill="#63b8ff" stroke="#63b8ff" points="198.73,-83 208.73,-79.5 198.73,-76 198.73,-83"/>
</a>
</g>
</g>
</g>
</svg>

<g id="navigator" transform="translate(0 0)" fill="#404254">
  <rect fill="#f2f5e9" fill-opacity="0.5" stroke="#606060" stroke-width=".5" x="0" y="0" width="60" height="60"/>
  <use id="zoomplus" xlink:href="#zoomPlus" x="17" y="9" onmousedown="handleZoom(evt,'in')"/>
  <use id="zoomminus" xlink:href="#zoomMin" x="42" y="9" onmousedown="handleZoom(evt,'out')"/>
  <use id="reset" xlink:href="#resetDef" x="30" y="36" onmousedown="handleReset()"/>
   <use id="arrowup" xlink:href="#arrowUp" x="0" y="0" onmousedown="handlePan(0,-1)"/>
  <use id="arrowright" xlink:href="#arrowRight" x="0" y="0" onmousedown="handlePan(1,0)"/>
  <use id="arrowdown" xlink:href="#arrowDown" x="0" y="0" onmousedown="handlePan(0,1)"/>
  <use id="arrowleft" xlink:href="#arrowLeft" x="0" y="0" onmousedown="handlePan(-1,0)"/>
</g>
<svg viewBox="0 0 15 15" width="100%" height="30px" preserveAspectRatio="xMaxYMin meet">
 <g id="arrow_out" transform="scale(0.3 0.3)">
  <a xlink:href="classhelios_1_1engine_1_1ecs_1_1ComponentOpsRegistry_a4f41db7b6ae7e83ba8092343d8620e59_icgraph_org.svg" target="_base">
   <rect id="button" ry="5" rx="5" y="6" x="6" height="38" width="38"
        fill="#f2f5e9" fill-opacity="0.5" stroke="#606060" stroke-width="1.0"/>
   <path id="arrow"
     d="M 11.500037,31.436501 C 11.940474,20.09759 22.043105,11.32322 32.158766,21.979434 L 37.068811,17.246167 C 37.068811,17.246167 37.088388,32 37.088388,32 L 22.160133,31.978069 C 22.160133,31.978069 26.997745,27.140456 26.997745,27.140456 C 18.528582,18.264221 13.291696,25.230495 11.500037,31.436501 z"
     style="fill:#404040;"/>
  </a>
 </g>
</svg>

<style type='text/css'>
<![CDATA[
[data-mouse-over-selected='false'] { opacity: 0.7; }
[data-mouse-over-selected='true']  { opacity: 1.0; }
]]>
</style>
<script type="application/ecmascript"><![CDATA[
document.addEventListener('DOMContentLoaded', (event) => {
  highlightEdges();
  highlightAdjacentNodes();
});
]]></script>
</svg>
