<?xml version="1.0" encoding="UTF-8" standalone="no"?>
<!DOCTYPE svg PUBLIC "-//W3C//DTD SVG 1.1//EN"
 "http://www.w3.org/Graphics/SVG/1.1/DTD/svg11.dtd">
<!-- Generated by graphviz version 2.43.0 (0)
 -->
<!-- Title: helios::engine::ecs::EntityManager::handle Pages: 1 -->
<svg width="707pt" height="687pt"
 viewBox="0.00 0.00 707.00 686.50" xmlns="http://www.w3.org/2000/svg" xmlns:xlink="http://www.w3.org/1999/xlink">
<g id="graph0" class="graph" transform="scale(1 1) rotate(0) translate(4 682.5)">
<title>helios::engine::ecs::EntityManager::handle</title>
<!-- Node1 -->
<g id="Node000001" class="node">
<title>Node1</title>
<g id="a_Node000001"><a xlink:title="Reconstructs an EntityHandle from an EntityId.">
<polygon fill="#999999" stroke="#666666" points="699,-306 566,-306 566,-276 699,-276 699,-306"/>
<text text-anchor="start" x="574" y="-294" font-family="Helvetica,sans-Serif" font-size="10.00">helios::engine::ecs</text>
<text text-anchor="middle" x="632.5" y="-283" font-family="Helvetica,sans-Serif" font-size="10.00">::EntityManager::handle</text>
</a>
</g>
</g>
<!-- Node2 -->
<g id="Node000002" class="node">
<title>Node2</title>
<g id="a_Node000002"><a xlink:href="classhelios_1_1engine_1_1ecs_1_1EntityManager.html#a507caffb8716c5e9fee9c56018c22860" target="_top" xlink:title="Returns a generator over all component type IDs attached to an entity.">
<polygon fill="white" stroke="#666666" points="361,-678.5 206,-678.5 206,-637.5 361,-637.5 361,-678.5"/>
<text text-anchor="start" x="214" y="-666.5" font-family="Helvetica,sans-Serif" font-size="10.00">helios::engine::ecs</text>
<text text-anchor="start" x="214" y="-655.5" font-family="Helvetica,sans-Serif" font-size="10.00">::EntityManager::component</text>
<text text-anchor="middle" x="283.5" y="-644.5" font-family="Helvetica,sans-Serif" font-size="10.00">TypeIds</text>
</a>
</g>
</g>
<!-- Node1&#45;&gt;Node2 -->
<g id="edge1_Node000001_Node000002" class="edge">
<title>Node1&#45;&gt;Node2</title>
<g id="a_edge1_Node000001_Node000002"><a xlink:title=" ">
<path fill="none" stroke="#63b8ff" d="M630.26,-316.2C626.11,-372.67 608.06,-510.25 530,-585 484.72,-628.36 414.84,-646.1 361.2,-653.29"/>
<polygon fill="#63b8ff" stroke="#63b8ff" points="633.77,-316.23 630.92,-306.03 626.78,-315.78 633.77,-316.23"/>
</a>
</g>
</g>
<!-- Node4 -->
<g id="Node000004" class="node">
<title>Node4</title>
<g id="a_Node000004"><a xlink:href="classhelios_1_1engine_1_1ecs_1_1EntityManager.html#a407554a390eb1986ae7b469caa406fad" target="_top" xlink:title="Destroys an entity and invalidates its handle.">
<polygon fill="white" stroke="#666666" points="153.5,-367 16.5,-367 16.5,-337 153.5,-337 153.5,-367"/>
<text text-anchor="start" x="24.5" y="-355" font-family="Helvetica,sans-Serif" font-size="10.00">helios::engine::ecs</text>
<text text-anchor="middle" x="85" y="-344" font-family="Helvetica,sans-Serif" font-size="10.00">::EntityManager::destroy</text>
</a>
</g>
</g>
<!-- Node1&#45;&gt;Node4 -->
<g id="edge3_Node000001_Node000004" class="edge">
<title>Node1&#45;&gt;Node4</title>
<g id="a_edge3_Node000001_Node000004"><a xlink:title=" ">
<path fill="none" stroke="#63b8ff" d="M578.09,-272.96C495.68,-248.11 333.7,-211.21 206,-256 159.93,-272.16 118.4,-314.27 98.47,-336.98"/>
<polygon fill="#63b8ff" stroke="#63b8ff" points="577.15,-276.33 587.74,-275.93 579.21,-269.64 577.15,-276.33"/>
</a>
</g>
</g>
<!-- Node5 -->
<g id="Node000005" class="node">
<title>Node5</title>
<g id="a_Node000005"><a xlink:href="classhelios_1_1engine_1_1ecs_1_1EntityManager.html#a06c03480f8768b5163d0a59616de36bf" target="_top" xlink:title="Disables a component by type ID.">
<polygon fill="white" stroke="#666666" points="351,-295 216,-295 216,-265 351,-265 351,-295"/>
<text text-anchor="start" x="224" y="-283" font-family="Helvetica,sans-Serif" font-size="10.00">helios::engine::ecs</text>
<text text-anchor="middle" x="283.5" y="-272" font-family="Helvetica,sans-Serif" font-size="10.00">::EntityManager::disable</text>
</a>
</g>
</g>
<!-- Node1&#45;&gt;Node5 -->
<g id="edge4_Node000001_Node000005" class="edge">
<title>Node1&#45;&gt;Node5</title>
<g id="a_edge4_Node000001_Node000005"><a xlink:title=" ">
<path fill="none" stroke="#63b8ff" d="M555.48,-288.59C494.41,-286.65 409.5,-283.96 351.09,-282.11"/>
<polygon fill="#63b8ff" stroke="#63b8ff" points="555.72,-292.1 565.82,-288.92 555.94,-285.1 555.72,-292.1"/>
</a>
</g>
</g>
<!-- Node6 -->
<g id="Node000006" class="node">
<title>Node6</title>
<g id="a_Node000006"><a xlink:href="classhelios_1_1engine_1_1ecs_1_1EntityManager.html#af0e75c4b42a3efb8f308ca9430075464" target="_top" xlink:title="Constructs and attaches a component to an entity.">
<polygon fill="white" stroke="#666666" points="354.5,-209 212.5,-209 212.5,-179 354.5,-179 354.5,-209"/>
<text text-anchor="start" x="220.5" y="-197" font-family="Helvetica,sans-Serif" font-size="10.00">helios::engine::ecs</text>
<text text-anchor="middle" x="283.5" y="-186" font-family="Helvetica,sans-Serif" font-size="10.00">::EntityManager::emplace</text>
</a>
</g>
</g>
<!-- Node1&#45;&gt;Node6 -->
<g id="edge5_Node000001_Node000006" class="edge">
<title>Node1&#45;&gt;Node6</title>
<g id="a_edge5_Node000001_Node000006"><a xlink:title=" ">
<path fill="none" stroke="#63b8ff" d="M608.55,-268.99C589.24,-251.92 560.03,-229.32 530,-218 473.6,-196.74 405.01,-191.6 354.68,-191.29"/>
<polygon fill="#63b8ff" stroke="#63b8ff" points="606.43,-271.8 616.19,-275.92 611.13,-266.61 606.43,-271.8"/>
</a>
</g>
</g>
<!-- Node7 -->
<g id="Node000007" class="node">
<title>Node7</title>
<g id="a_Node000007"><a xlink:href="classhelios_1_1engine_1_1ecs_1_1EntityManager.html#aabc010881d9c613de7cd9102c20d198d" target="_top" xlink:title="Returns existing component or creates a new one.">
<polygon fill="white" stroke="#666666" points="170,-260 0,-260 0,-230 170,-230 170,-260"/>
<text text-anchor="start" x="8" y="-248" font-family="Helvetica,sans-Serif" font-size="10.00">helios::engine::ecs</text>
<text text-anchor="middle" x="85" y="-237" font-family="Helvetica,sans-Serif" font-size="10.00">::EntityManager::emplaceOrGet</text>
</a>
</g>
</g>
<!-- Node1&#45;&gt;Node7 -->
<g id="edge7_Node000001_Node000007" class="edge">
<title>Node1&#45;&gt;Node7</title>
<g id="a_edge7_Node000001_Node000007"><a xlink:title=" ">
<path fill="none" stroke="#63b8ff" d="M615.56,-267.4C597.79,-243.21 566.67,-206.71 530,-189 400.11,-126.27 344.66,-130.23 206,-170 165.38,-181.65 125.17,-211.5 103.16,-229.84"/>
<polygon fill="#63b8ff" stroke="#63b8ff" points="612.83,-269.6 621.49,-275.7 618.52,-265.53 612.83,-269.6"/>
</a>
</g>
</g>
<!-- Node8 -->
<g id="Node000008" class="node">
<title>Node8</title>
<g id="a_Node000008"><a xlink:href="classhelios_1_1engine_1_1ecs_1_1EntityManager.html#af0925a35a775f6781d54f1e22fbd3b1a" target="_top" xlink:title="Enables a component by type ID.">
<polygon fill="white" stroke="#666666" points="530,-328 397,-328 397,-298 530,-298 530,-328"/>
<text text-anchor="start" x="405" y="-316" font-family="Helvetica,sans-Serif" font-size="10.00">helios::engine::ecs</text>
<text text-anchor="middle" x="463.5" y="-305" font-family="Helvetica,sans-Serif" font-size="10.00">::EntityManager::enable</text>
</a>
</g>
</g>
<!-- Node1&#45;&gt;Node8 -->
<g id="edge8_Node000001_Node000008" class="edge">
<title>Node1&#45;&gt;Node8</title>
<g id="a_edge8_Node000001_Node000008"><a xlink:title=" ">
<path fill="none" stroke="#63b8ff" d="M555.93,-300.95C547.32,-302.09 538.58,-303.24 530.11,-304.36"/>
<polygon fill="#63b8ff" stroke="#63b8ff" points="556.52,-304.41 565.98,-299.63 555.6,-297.47 556.52,-304.41"/>
</a>
</g>
</g>
<!-- Node9 -->
<g id="Node000009" class="node">
<title>Node9</title>
<g id="a_Node000009"><a xlink:href="classhelios_1_1engine_1_1ecs_1_1EntityManager.html#a935c5347e407e1f7c7c37b45991eb0d3" target="_top" xlink:title="Enables or disables a component by type ID.">
<polygon fill="white" stroke="#666666" points="151.5,-445 18.5,-445 18.5,-415 151.5,-415 151.5,-445"/>
<text text-anchor="start" x="26.5" y="-433" font-family="Helvetica,sans-Serif" font-size="10.00">helios::engine::ecs</text>
<text text-anchor="middle" x="85" y="-422" font-family="Helvetica,sans-Serif" font-size="10.00">::EntityManager::enable</text>
</a>
</g>
</g>
<!-- Node1&#45;&gt;Node9 -->
<g id="edge12_Node000001_Node000009" class="edge">
<title>Node1&#45;&gt;Node9</title>
<g id="a_edge12_Node000001_Node000009"><a xlink:title=" ">
<path fill="none" stroke="#63b8ff" d="M612.03,-313.77C593.25,-334.05 562.9,-362.67 530,-377 463.63,-405.91 258.32,-420.83 151.73,-426.8"/>
<polygon fill="#63b8ff" stroke="#63b8ff" points="614.77,-315.96 618.88,-306.19 609.58,-311.27 614.77,-315.96"/>
</a>
</g>
</g>
<!-- Node10 -->
<g id="Node000010" class="node">
<title>Node10</title>
<g id="a_Node000010"><a xlink:href="classhelios_1_1engine_1_1ecs_1_1EntityManager.html#afc62dc2277d76ec4a52e2bb04a49715f" target="_top" xlink:title="Retrieves a component for the given entity.">
<polygon fill="white" stroke="#666666" points="341.5,-381 225.5,-381 225.5,-351 341.5,-351 341.5,-381"/>
<text text-anchor="start" x="233.5" y="-369" font-family="Helvetica,sans-Serif" font-size="10.00">helios::engine::ecs</text>
<text text-anchor="middle" x="283.5" y="-358" font-family="Helvetica,sans-Serif" font-size="10.00">::EntityManager::get</text>
</a>
</g>
</g>
<!-- Node1&#45;&gt;Node10 -->
<g id="edge13_Node000001_Node000010" class="edge">
<title>Node1&#45;&gt;Node10</title>
<g id="a_edge13_Node000001_Node000010"><a xlink:title=" ">
<path fill="none" stroke="#63b8ff" d="M605.83,-312.51C586.37,-327.43 558.23,-346.15 530,-355 467.91,-374.46 392.68,-374.64 341.99,-371.6"/>
<polygon fill="#63b8ff" stroke="#63b8ff" points="608.18,-315.12 613.88,-306.18 603.85,-309.62 608.18,-315.12"/>
</a>
</g>
</g>
<!-- Node11 -->
<g id="Node000011" class="node">
<title>Node11</title>
<g id="a_Node000011"><a xlink:href="classhelios_1_1engine_1_1ecs_1_1EntityManager.html#ab500472e8088cfef0c39c8e4df787a6e" target="_top" xlink:title="Checks whether an entity has a specific component.">
<polygon fill="white" stroke="#666666" points="522,-510 405,-510 405,-480 522,-480 522,-510"/>
<text text-anchor="start" x="413" y="-498" font-family="Helvetica,sans-Serif" font-size="10.00">helios::engine::ecs</text>
<text text-anchor="middle" x="463.5" y="-487" font-family="Helvetica,sans-Serif" font-size="10.00">::EntityManager::has</text>
</a>
</g>
</g>
<!-- Node1&#45;&gt;Node11 -->
<g id="edge15_Node000001_Node000011" class="edge">
<title>Node1&#45;&gt;Node11</title>
<g id="a_edge15_Node000001_Node000011"><a xlink:title=" ">
<path fill="none" stroke="#63b8ff" d="M622.76,-315.56C608.54,-352.43 577.14,-422.29 530,-465 523.42,-470.96 515.45,-475.93 507.37,-479.98"/>
<polygon fill="#63b8ff" stroke="#63b8ff" points="626.08,-316.68 626.32,-306.09 619.52,-314.22 626.08,-316.68"/>
</a>
</g>
</g>
<!-- Node12 -->
<g id="Node000012" class="node">
<title>Node12</title>
<g id="a_Node000012"><a xlink:href="classhelios_1_1engine_1_1ecs_1_1EntityManager.html#a1852346799d7912d40fd61e32dfb9654" target="_top" xlink:title="Returns raw void pointer to a component.">
<polygon fill="white" stroke="#666666" points="342.5,-467 224.5,-467 224.5,-437 342.5,-437 342.5,-467"/>
<text text-anchor="start" x="232.5" y="-455" font-family="Helvetica,sans-Serif" font-size="10.00">helios::engine::ecs</text>
<text text-anchor="middle" x="283.5" y="-444" font-family="Helvetica,sans-Serif" font-size="10.00">::EntityManager::raw</text>
</a>
</g>
</g>
<!-- Node1&#45;&gt;Node12 -->
<g id="edge29_Node000001_Node000012" class="edge">
<title>Node1&#45;&gt;Node12</title>
<g id="a_edge29_Node000001_Node000012"><a xlink:title=" ">
<path fill="none" stroke="#63b8ff" d="M620.63,-315.85C605.38,-347.42 574.42,-400.81 530,-426 472.4,-458.66 394.9,-461.37 342.51,-458.38"/>
<polygon fill="#63b8ff" stroke="#63b8ff" points="623.97,-316.97 625.03,-306.43 617.63,-314.01 623.97,-316.97"/>
</a>
</g>
</g>
<!-- Node13 -->
<g id="Node000013" class="node">
<title>Node13</title>
<g id="a_Node000013"><a xlink:href="classhelios_1_1engine_1_1ecs_1_1EntityManager.html#a15f4a7849d69f466ffbf51f3cec11582" target="_top" xlink:title="Removes a specific component from an entity.">
<polygon fill="white" stroke="#666666" points="153.5,-548 16.5,-548 16.5,-518 153.5,-518 153.5,-548"/>
<text text-anchor="start" x="24.5" y="-536" font-family="Helvetica,sans-Serif" font-size="10.00">helios::engine::ecs</text>
<text text-anchor="middle" x="85" y="-525" font-family="Helvetica,sans-Serif" font-size="10.00">::EntityManager::remove</text>
</a>
</g>
</g>
<!-- Node1&#45;&gt;Node13 -->
<g id="edge30_Node000001_Node000013" class="edge">
<title>Node1&#45;&gt;Node13</title>
<g id="a_edge30_Node000001_Node000013"><a xlink:title=" ">
<path fill="none" stroke="#63b8ff" d="M628.64,-316.31C621.66,-364.97 598.91,-470.99 530,-519 410.88,-601.99 226.86,-570.5 137.8,-548.01"/>
<polygon fill="#63b8ff" stroke="#63b8ff" points="632.12,-316.68 629.97,-306.3 625.18,-315.76 632.12,-316.68"/>
</a>
</g>
</g>
<!-- Node14 -->
<g id="Node000014" class="node">
<title>Node14</title>
<g id="a_Node000014"><a xlink:href="classhelios_1_1engine_1_1ecs_1_1EntityManager.html#ab78084139db82bc0bb0545643d25f476" target="_top" xlink:title="Checks whether an entity has a component by type ID.">
<polygon fill="white" stroke="#666666" points="522,-126 405,-126 405,-96 522,-96 522,-126"/>
<text text-anchor="start" x="413" y="-114" font-family="Helvetica,sans-Serif" font-size="10.00">helios::engine::ecs</text>
<text text-anchor="middle" x="463.5" y="-103" font-family="Helvetica,sans-Serif" font-size="10.00">::EntityManager::has</text>
</a>
</g>
</g>
<!-- Node1&#45;&gt;Node14 -->
<g id="edge26_Node000001_Node000014" class="edge">
<title>Node1&#45;&gt;Node14</title>
<g id="a_edge26_Node000001_Node000014"><a xlink:title=" ">
<path fill="none" stroke="#63b8ff" d="M620.39,-266.34C604.53,-233.58 572.55,-175.69 530,-140 523.52,-134.57 515.86,-129.97 508.11,-126.16"/>
<polygon fill="#63b8ff" stroke="#63b8ff" points="617.35,-268.1 624.79,-275.65 623.68,-265.11 617.35,-268.1"/>
</a>
</g>
</g>
<!-- Node15 -->
<g id="Node000015" class="node">
<title>Node15</title>
<g id="a_Node000015"><a xlink:href="classhelios_1_1engine_1_1ecs_1_1EntityManager.html#a25b75ef19285ac096849471b41b8a33d" target="_top" xlink:title="Checks if an entity handle is valid.">
<polygon fill="white" stroke="#666666" points="529.5,-78 397.5,-78 397.5,-48 529.5,-48 529.5,-78"/>
<text text-anchor="start" x="405.5" y="-66" font-family="Helvetica,sans-Serif" font-size="10.00">helios::engine::ecs</text>
<text text-anchor="middle" x="463.5" y="-55" font-family="Helvetica,sans-Serif" font-size="10.00">::EntityManager::isValid</text>
</a>
</g>
</g>
<!-- Node1&#45;&gt;Node15 -->
<g id="edge27_Node000001_Node000015" class="edge">
<title>Node1&#45;&gt;Node15</title>
<g id="a_edge27_Node000001_Node000015"><a xlink:title=" ">
<path fill="none" stroke="#63b8ff" d="M625.56,-266.01C614.2,-223.43 585.43,-136.62 530,-87 526.21,-83.61 521.9,-80.68 517.34,-78.16"/>
<polygon fill="#63b8ff" stroke="#63b8ff" points="622.2,-267.01 628.08,-275.83 628.99,-265.27 622.2,-267.01"/>
</a>
</g>
</g>
<!-- Node16 -->
<g id="Node000016" class="node">
<title>Node16</title>
<g id="a_Node000016"><a xlink:href="classhelios_1_1engine_1_1ecs_1_1EntityManager.html#aa803ffb4157df506b30b1b85832f8b87" target="_top" xlink:title="Checks if an entity ID is valid.">
<polygon fill="white" stroke="#666666" points="529.5,-30 397.5,-30 397.5,0 529.5,0 529.5,-30"/>
<text text-anchor="start" x="405.5" y="-18" font-family="Helvetica,sans-Serif" font-size="10.00">helios::engine::ecs</text>
<text text-anchor="middle" x="463.5" y="-7" font-family="Helvetica,sans-Serif" font-size="10.00">::EntityManager::isValid</text>
</a>
</g>
</g>
<!-- Node1&#45;&gt;Node16 -->
<g id="edge28_Node000001_Node000016" class="edge">
<title>Node1&#45;&gt;Node16</title>
<g id="a_edge28_Node000001_Node000016"><a xlink:title=" ">
<path fill="none" stroke="#63b8ff" d="M628.23,-265.93C620.42,-215.92 596.12,-103.05 530,-39 526.43,-35.54 522.33,-32.58 517.95,-30.04"/>
<polygon fill="#63b8ff" stroke="#63b8ff" points="624.78,-266.5 629.69,-275.88 631.7,-265.48 624.78,-266.5"/>
</a>
</g>
</g>
<!-- Node3 -->
<g id="Node000003" class="node">
<title>Node3</title>
<g id="a_Node000003"><a xlink:href="classhelios_1_1engine_1_1ecs_1_1EntityManager.html#ac5e13477c8dfc73875e797a5ec74baef" target="_top" xlink:title="Clones all components from source entity to target entity.">
<polygon fill="white" stroke="#666666" points="148,-624 22,-624 22,-594 148,-594 148,-624"/>
<text text-anchor="start" x="30" y="-612" font-family="Helvetica,sans-Serif" font-size="10.00">helios::engine::ecs</text>
<text text-anchor="middle" x="85" y="-601" font-family="Helvetica,sans-Serif" font-size="10.00">::EntityManager::clone</text>
</a>
</g>
</g>
<!-- Node2&#45;&gt;Node3 -->
<g id="edge2_Node000002_Node000003" class="edge">
<title>Node2&#45;&gt;Node3</title>
<g id="a_edge2_Node000002_Node000003"><a xlink:title=" ">
<path fill="none" stroke="#63b8ff" d="M196.12,-636.46C179.28,-632.26 161.97,-627.94 146.21,-624.01"/>
<polygon fill="#63b8ff" stroke="#63b8ff" points="195.42,-639.89 205.97,-638.92 197.11,-633.1 195.42,-639.89"/>
</a>
</g>
</g>
<!-- Node6&#45;&gt;Node7 -->
<g id="edge6_Node000006_Node000007" class="edge">
<title>Node6&#45;&gt;Node7</title>
<g id="a_edge6_Node000006_Node000007"><a xlink:title=" ">
<path fill="none" stroke="#63b8ff" d="M214.87,-211.55C191.74,-217.56 166.1,-224.21 143.82,-229.99"/>
<polygon fill="#63b8ff" stroke="#63b8ff" points="215.81,-214.93 224.61,-209.03 214.05,-208.15 215.81,-214.93"/>
</a>
</g>
</g>
<!-- Node8&#45;&gt;Node5 -->
<g id="edge9_Node000008_Node000005" class="edge">
<title>Node8&#45;&gt;Node5</title>
<g id="a_edge9_Node000008_Node000005"><a xlink:title=" ">
<path fill="none" stroke="#63b8ff" d="M387.04,-299.01C375.09,-296.79 362.8,-294.52 351.07,-292.34"/>
<polygon fill="#63b8ff" stroke="#63b8ff" points="386.51,-302.47 396.98,-300.85 387.78,-295.59 386.51,-302.47"/>
</a>
</g>
</g>
<!-- Node8&#45;&gt;Node8 -->
<g id="edge10_Node000008_Node000008" class="edge">
<title>Node8&#45;&gt;Node8</title>
<g id="a_edge10_Node000008_Node000008"><a xlink:title=" ">
<path fill="none" stroke="#63b8ff" d="M492.91,-338.6C488.89,-342.97 479.09,-346 463.5,-346 437.25,-346 427.41,-337.41 433.97,-328.28"/>
<polygon fill="#63b8ff" stroke="#63b8ff" points="496.41,-338.32 493.03,-328.28 489.41,-338.23 496.41,-338.32"/>
</a>
</g>
</g>
<!-- Node8&#45;&gt;Node9 -->
<g id="edge11_Node000008_Node000009" class="edge">
<title>Node8&#45;&gt;Node9</title>
<g id="a_edge11_Node000008_Node000009"><a xlink:title=" ">
<path fill="none" stroke="#63b8ff" d="M386.99,-309.19C334.02,-309.4 262.8,-315.63 206,-342 186.04,-351.27 187.33,-362.44 170,-376 151.57,-390.43 129.22,-404.65 112.21,-414.88"/>
<polygon fill="#63b8ff" stroke="#63b8ff" points="386.99,-312.69 397,-309.22 387.01,-305.69 386.99,-312.69"/>
</a>
</g>
</g>
<!-- Node10&#45;&gt;Node7 -->
<g id="edge14_Node000010_Node000007" class="edge">
<title>Node10&#45;&gt;Node7</title>
<g id="a_edge14_Node000010_Node000007"><a xlink:title=" ">
<path fill="none" stroke="#63b8ff" d="M249.07,-345.41C209.75,-321.2 145.44,-281.6 110.49,-260.08"/>
<polygon fill="#63b8ff" stroke="#63b8ff" points="247.66,-348.66 258.01,-350.92 251.33,-342.7 247.66,-348.66"/>
</a>
</g>
</g>
<!-- Node11&#45;&gt;Node3 -->
<g id="edge16_Node000011_Node000003" class="edge">
<title>Node11&#45;&gt;Node3</title>
<g id="a_edge16_Node000011_Node000003"><a xlink:title=" ">
<path fill="none" stroke="#63b8ff" d="M410.56,-513.49C394.71,-518.98 377.19,-524.89 361,-530 285.45,-553.86 197.29,-578.66 141.56,-593.96"/>
<polygon fill="#63b8ff" stroke="#63b8ff" points="411.9,-516.73 420.19,-510.14 409.6,-510.12 411.9,-516.73"/>
</a>
</g>
</g>
<!-- Node11&#45;&gt;Node9 -->
<g id="edge17_Node000011_Node000009" class="edge">
<title>Node11&#45;&gt;Node9</title>
<g id="a_edge17_Node000011_Node000009"><a xlink:title=" ">
<path fill="none" stroke="#63b8ff" d="M394.61,-495.34C342.45,-494.31 268.91,-490.07 206,-476 174.97,-469.06 141.31,-455.59 117.55,-445.02"/>
<polygon fill="#63b8ff" stroke="#63b8ff" points="394.69,-498.84 404.75,-495.5 394.81,-491.84 394.69,-498.84"/>
</a>
</g>
</g>
<!-- Node11&#45;&gt;Node10 -->
<g id="edge18_Node000011_Node000010" class="edge">
<title>Node11&#45;&gt;Node10</title>
<g id="a_edge18_Node000011_Node000010"><a xlink:title=" ">
<path fill="none" stroke="#63b8ff" d="M433.59,-474.05C397.64,-448 337.16,-404.17 305.41,-381.15"/>
<polygon fill="#63b8ff" stroke="#63b8ff" points="431.58,-476.92 441.73,-479.95 435.69,-471.25 431.58,-476.92"/>
</a>
</g>
</g>
<!-- Node11&#45;&gt;Node12 -->
<g id="edge19_Node000011_Node000012" class="edge">
<title>Node11&#45;&gt;Node12</title>
<g id="a_edge19_Node000011_Node000012"><a xlink:title=" ">
<path fill="none" stroke="#63b8ff" d="M394.74,-478.63C377.56,-474.48 359.26,-470.06 342.61,-466.04"/>
<polygon fill="#63b8ff" stroke="#63b8ff" points="394.17,-482.09 404.71,-481.04 395.81,-475.29 394.17,-482.09"/>
</a>
</g>
</g>
<!-- Node11&#45;&gt;Node13 -->
<g id="edge25_Node000011_Node000013" class="edge">
<title>Node11&#45;&gt;Node13</title>
<g id="a_edge25_Node000011_Node000013"><a xlink:title=" ">
<path fill="none" stroke="#63b8ff" d="M394.66,-504.84C383.43,-506.33 371.89,-507.77 361,-509 290.4,-516.94 209.34,-523.74 153.62,-528.05"/>
<polygon fill="#63b8ff" stroke="#63b8ff" points="395.42,-508.27 404.86,-503.46 394.48,-501.33 395.42,-508.27"/>
</a>
</g>
</g>
<!-- Node12&#45;&gt;Node3 -->
<g id="edge20_Node000012_Node000003" class="edge">
<title>Node12&#45;&gt;Node3</title>
<g id="a_edge20_Node000012_Node000003"><a xlink:title=" ">
<path fill="none" stroke="#63b8ff" d="M260.91,-474.59C239.07,-496.85 203.8,-531.17 170,-557 152.01,-570.75 130.24,-584.14 113.37,-593.9"/>
<polygon fill="#63b8ff" stroke="#63b8ff" points="263.59,-476.87 268.06,-467.26 258.57,-471.98 263.59,-476.87"/>
</a>
</g>
</g>
<!-- Node12&#45;&gt;Node4 -->
<g id="edge21_Node000012_Node000004" class="edge">
<title>Node12&#45;&gt;Node4</title>
<g id="a_edge21_Node000012_Node000004"><a xlink:title=" ">
<path fill="none" stroke="#63b8ff" d="M243.5,-432.15C205.82,-412.97 149.57,-384.35 115.48,-367"/>
<polygon fill="#63b8ff" stroke="#63b8ff" points="242.16,-435.4 252.66,-436.81 245.33,-429.16 242.16,-435.4"/>
</a>
</g>
</g>
<!-- Node12&#45;&gt;Node7 -->
<g id="edge22_Node000012_Node000007" class="edge">
<title>Node12&#45;&gt;Node7</title>
<g id="a_edge22_Node000012_Node000007"><a xlink:title=" ">
<path fill="none" stroke="#63b8ff" d="M251.16,-430.7C236.36,-419.66 219.1,-405.31 206,-390 185.28,-365.79 189.5,-353.2 170,-328 149.8,-301.9 121.78,-275.8 103.77,-260.02"/>
<polygon fill="#63b8ff" stroke="#63b8ff" points="249.4,-433.74 259.55,-436.79 253.52,-428.08 249.4,-433.74"/>
</a>
</g>
</g>
<!-- Node12&#45;&gt;Node9 -->
<g id="edge23_Node000012_Node000009" class="edge">
<title>Node12&#45;&gt;Node9</title>
<g id="a_edge23_Node000012_Node000009"><a xlink:title=" ">
<path fill="none" stroke="#63b8ff" d="M214.23,-444.36C193.92,-442.08 171.72,-439.6 151.59,-437.34"/>
<polygon fill="#63b8ff" stroke="#63b8ff" points="214.01,-447.85 224.34,-445.49 214.79,-440.9 214.01,-447.85"/>
</a>
</g>
</g>
<!-- Node12&#45;&gt;Node13 -->
<g id="edge24_Node000012_Node000013" class="edge">
<title>Node12&#45;&gt;Node13</title>
<g id="a_edge24_Node000012_Node000013"><a xlink:title=" ">
<path fill="none" stroke="#63b8ff" d="M236.56,-470.94C201.85,-485.25 154.84,-504.62 122.64,-517.9"/>
<polygon fill="#63b8ff" stroke="#63b8ff" points="238.09,-474.09 246,-467.05 235.42,-467.62 238.09,-474.09"/>
</a>
</g>
</g>
</g>
</svg>
