<?xml version="1.0" encoding="UTF-8" standalone="no"?>
<!DOCTYPE svg PUBLIC "-//W3C//DTD SVG 1.1//EN"
 "http://www.w3.org/Graphics/SVG/1.1/DTD/svg11.dtd">
<!-- Generated by graphviz version 2.43.0 (0)
 -->
<!-- Title: helios::engine::runtime::pooling::GameObjectPool::guid Pages: 1 -->
<svg width="363pt" height="226pt"
 viewBox="0.00 0.00 363.00 226.00" xmlns="http://www.w3.org/2000/svg" xmlns:xlink="http://www.w3.org/1999/xlink">
<g id="graph0" class="graph" transform="scale(1 1) rotate(0) translate(4 222)">
<title>helios::engine::runtime::pooling::GameObjectPool::guid</title>
<!-- Node1 -->
<g id="Node000001" class="node">
<title>Node1</title>
<g id="a_Node000001"><a xlink:title="Returns the unique identifier of this pool.">
<polygon fill="#999999" stroke="#666666" points="355,-123.5 182,-123.5 182,-93.5 355,-93.5 355,-123.5"/>
<text text-anchor="start" x="190" y="-111.5" font-family="Helvetica,sans-Serif" font-size="10.00">helios::engine::runtime</text>
<text text-anchor="middle" x="268.5" y="-100.5" font-family="Helvetica,sans-Serif" font-size="10.00">::pooling::GameObjectPool::guid</text>
</a>
</g>
</g>
<!-- Node2 -->
<g id="Node000002" class="node">
<title>Node2</title>
<g id="a_Node000002"><a xlink:href="classhelios_1_1engine_1_1runtime_1_1pooling_1_1GameObjectPool.html#afb2b70dfef45864ea3bfd1e148542007" target="_top" xlink:title="Acquires an inactive GameObject from the pool.">
<polygon fill="white" stroke="#666666" points="146,-218 0,-218 0,-177 146,-177 146,-218"/>
<text text-anchor="start" x="8" y="-206" font-family="Helvetica,sans-Serif" font-size="10.00">helios::engine::runtime</text>
<text text-anchor="start" x="8" y="-195" font-family="Helvetica,sans-Serif" font-size="10.00">::pooling::GameObjectPool</text>
<text text-anchor="middle" x="73" y="-184" font-family="Helvetica,sans-Serif" font-size="10.00">::acquire</text>
</a>
</g>
</g>
<!-- Node1&#45;&gt;Node2 -->
<g id="edge1_Node000001_Node000002" class="edge">
<title>Node1&#45;&gt;Node2</title>
<g id="a_edge1_Node000001_Node000002"><a xlink:title=" ">
<path fill="none" stroke="#63b8ff" d="M229.3,-128.29C205.54,-140.37 174.25,-155.86 146,-168.5 139.73,-171.31 133.1,-174.15 126.5,-176.9"/>
<polygon fill="#63b8ff" stroke="#63b8ff" points="231.02,-131.34 238.33,-123.68 227.84,-125.11 231.02,-131.34"/>
</a>
</g>
</g>
<!-- Node3 -->
<g id="Node000003" class="node">
<title>Node3</title>
<g id="a_Node000003"><a xlink:href="classhelios_1_1engine_1_1runtime_1_1pooling_1_1GameObjectPool.html#a60e9a358d1f385eb9f058013ce441f35" target="_top" xlink:title="Adds a Guid to the inactive list without acquiring it.">
<polygon fill="white" stroke="#666666" points="146,-159 0,-159 0,-118 146,-118 146,-159"/>
<text text-anchor="start" x="8" y="-147" font-family="Helvetica,sans-Serif" font-size="10.00">helios::engine::runtime</text>
<text text-anchor="start" x="8" y="-136" font-family="Helvetica,sans-Serif" font-size="10.00">::pooling::GameObjectPool</text>
<text text-anchor="middle" x="73" y="-125" font-family="Helvetica,sans-Serif" font-size="10.00">::addInactive</text>
</a>
</g>
</g>
<!-- Node1&#45;&gt;Node3 -->
<g id="edge2_Node000001_Node000003" class="edge">
<title>Node1&#45;&gt;Node3</title>
<g id="a_edge2_Node000001_Node000003"><a xlink:title=" ">
<path fill="none" stroke="#63b8ff" d="M171.68,-123.36C163.06,-124.69 154.42,-126.03 146.06,-127.33"/>
<polygon fill="#63b8ff" stroke="#63b8ff" points="172.44,-126.78 181.78,-121.79 171.36,-119.86 172.44,-126.78"/>
</a>
</g>
</g>
<!-- Node4 -->
<g id="Node000004" class="node">
<title>Node4</title>
<g id="a_Node000004"><a xlink:href="classhelios_1_1engine_1_1runtime_1_1pooling_1_1GameObjectPool.html#aaba699ebdbc101329c7324addd9afe38" target="_top" xlink:title="Releases a GameObject back to the pool by its Guid.">
<polygon fill="white" stroke="#666666" points="146,-100 0,-100 0,-59 146,-59 146,-100"/>
<text text-anchor="start" x="8" y="-88" font-family="Helvetica,sans-Serif" font-size="10.00">helios::engine::runtime</text>
<text text-anchor="start" x="8" y="-77" font-family="Helvetica,sans-Serif" font-size="10.00">::pooling::GameObjectPool</text>
<text text-anchor="middle" x="73" y="-66" font-family="Helvetica,sans-Serif" font-size="10.00">::release</text>
</a>
</g>
</g>
<!-- Node1&#45;&gt;Node4 -->
<g id="edge3_Node000001_Node000004" class="edge">
<title>Node1&#45;&gt;Node4</title>
<g id="a_edge3_Node000001_Node000004"><a xlink:title=" ">
<path fill="none" stroke="#63b8ff" d="M171.68,-94.14C163.06,-92.85 154.42,-91.55 146.06,-90.3"/>
<polygon fill="#63b8ff" stroke="#63b8ff" points="171.37,-97.63 181.78,-95.65 172.41,-90.71 171.37,-97.63"/>
</a>
</g>
</g>
<!-- Node5 -->
<g id="Node000005" class="node">
<title>Node5</title>
<g id="a_Node000005"><a xlink:href="classhelios_1_1engine_1_1runtime_1_1pooling_1_1GameObjectPool.html#a5fc0afe6ecd0e0d923fd294496f1115e" target="_top" xlink:title="Releases and permanently removes a GameObject from the pool.">
<polygon fill="white" stroke="#666666" points="146,-41 0,-41 0,0 146,0 146,-41"/>
<text text-anchor="start" x="8" y="-29" font-family="Helvetica,sans-Serif" font-size="10.00">helios::engine::runtime</text>
<text text-anchor="start" x="8" y="-18" font-family="Helvetica,sans-Serif" font-size="10.00">::pooling::GameObjectPool</text>
<text text-anchor="middle" x="73" y="-7" font-family="Helvetica,sans-Serif" font-size="10.00">::releaseAndRemove</text>
</a>
</g>
</g>
<!-- Node1&#45;&gt;Node5 -->
<g id="edge4_Node000001_Node000005" class="edge">
<title>Node1&#45;&gt;Node5</title>
<g id="a_edge4_Node000001_Node000005"><a xlink:title=" ">
<path fill="none" stroke="#63b8ff" d="M227.97,-89.01C204.32,-77.5 173.6,-62.83 146,-50.5 139.08,-47.41 131.74,-44.23 124.49,-41.16"/>
<polygon fill="#63b8ff" stroke="#63b8ff" points="226.47,-92.17 236.99,-93.41 229.54,-85.88 226.47,-92.17"/>
</a>
</g>
</g>
</g>
</svg>
