<?xml version="1.0" encoding="UTF-8" standalone="no"?>
<!DOCTYPE svg PUBLIC "-//W3C//DTD SVG 1.1//EN"
 "http://www.w3.org/Graphics/SVG/1.1/DTD/svg11.dtd">
<!-- Generated by graphviz version 2.43.0 (0)
 -->
<!-- Title: helios::ecs::EntityManager::has Pages: 1 -->
<svg width="359pt" height="86pt"
 viewBox="0.00 0.00 359.00 86.00" xmlns="http://www.w3.org/2000/svg" xmlns:xlink="http://www.w3.org/1999/xlink">
<g id="graph0" class="graph" transform="scale(1 1) rotate(0) translate(4 82)">
<title>helios::ecs::EntityManager::has</title>
<!-- Node1 -->
<g id="Node000001" class="node">
<title>Node1</title>
<g id="a_Node000001"><a xlink:title="Checks whether an entity has a component by type ID.">
<polygon fill="#999999" stroke="#666666" points="169,-48.5 0,-48.5 0,-29.5 169,-29.5 169,-48.5"/>
<text text-anchor="middle" x="84.5" y="-36.5" font-family="Helvetica,sans-Serif" font-size="10.00">helios::ecs::EntityManager::has</text>
</a>
</g>
</g>
<!-- Node2 -->
<g id="Node000002" class="node">
<title>Node2</title>
<g id="a_Node000002"><a xlink:href="classhelios_1_1ecs_1_1EntityManager.html#ac58244a94efee6f2bfcf25694f1763ba" target="_top" xlink:title="Reconstructs an EntityHandle from an EntityId.">
<polygon fill="white" stroke="#666666" points="351,-78 205,-78 205,-48 351,-48 351,-78"/>
<text text-anchor="start" x="213" y="-66" font-family="Helvetica,sans-Serif" font-size="10.00">helios::ecs::EntityManager</text>
<text text-anchor="middle" x="278" y="-55" font-family="Helvetica,sans-Serif" font-size="10.00">::handle</text>
</a>
</g>
</g>
<!-- Node1&#45;&gt;Node2 -->
<g id="edge1_Node000001_Node000002" class="edge">
<title>Node1&#45;&gt;Node2</title>
<g id="a_edge1_Node000001_Node000002"><a xlink:title=" ">
<path fill="none" stroke="#63b8ff" d="M161.46,-48.52C172.41,-49.89 183.73,-51.31 194.8,-52.7"/>
<polygon fill="#63b8ff" stroke="#63b8ff" points="194.52,-56.19 204.87,-53.96 195.39,-49.24 194.52,-56.19"/>
</a>
</g>
</g>
<!-- Node3 -->
<g id="Node000003" class="node">
<title>Node3</title>
<g id="a_Node000003"><a xlink:href="classhelios_1_1ecs_1_1types_1_1ComponentTypeId.html#a87e08e9b04247f216b9db19142a0a4f6" target="_top" xlink:title="Returns the underlying ID value.">
<polygon fill="white" stroke="#666666" points="349.5,-30 206.5,-30 206.5,0 349.5,0 349.5,-30"/>
<text text-anchor="start" x="214.5" y="-18" font-family="Helvetica,sans-Serif" font-size="10.00">helios::ecs::types</text>
<text text-anchor="middle" x="278" y="-7" font-family="Helvetica,sans-Serif" font-size="10.00">::ComponentTypeId::value</text>
</a>
</g>
</g>
<!-- Node1&#45;&gt;Node3 -->
<g id="edge2_Node000001_Node000003" class="edge">
<title>Node1&#45;&gt;Node3</title>
<g id="a_edge2_Node000001_Node000003"><a xlink:title=" ">
<path fill="none" stroke="#63b8ff" d="M161.46,-29.48C172.93,-28.04 184.79,-26.56 196.36,-25.11"/>
<polygon fill="#63b8ff" stroke="#63b8ff" points="196.94,-28.56 206.42,-23.84 196.07,-21.62 196.94,-28.56"/>
</a>
</g>
</g>
</g>
</svg>
