<?xml version="1.0" encoding="UTF-8" standalone="no"?>
<!DOCTYPE svg PUBLIC "-//W3C//DTD SVG 1.1//EN"
 "http://www.w3.org/Graphics/SVG/1.1/DTD/svg11.dtd">
<!-- Generated by graphviz version 2.43.0 (0)
 -->
<!-- Title: helios::engine::runtime::world::GameWorld::addGameObject Pages: 1 -->
<svg width="580pt" height="49pt"
 viewBox="0.00 0.00 580.00 49.00" xmlns="http://www.w3.org/2000/svg" xmlns:xlink="http://www.w3.org/1999/xlink">
<g id="graph0" class="graph" transform="scale(1 1) rotate(0) translate(4 45)">
<title>helios::engine::runtime::world::GameWorld::addGameObject</title>
<!-- Node1 -->
<g id="Node000001" class="node">
<title>Node1</title>
<g id="a_Node000001"><a xlink:title="Adds a GameObject to the world and transfers ownership.">
<polygon fill="#999999" stroke="#666666" points="572,-35.5 375,-35.5 375,-5.5 572,-5.5 572,-35.5"/>
<text text-anchor="start" x="383" y="-23.5" font-family="Helvetica,sans-Serif" font-size="10.00">helios::engine::runtime</text>
<text text-anchor="middle" x="473.5" y="-12.5" font-family="Helvetica,sans-Serif" font-size="10.00">::world::GameWorld::addGameObject</text>
</a>
</g>
</g>
<!-- Node2 -->
<g id="Node000002" class="node">
<title>Node2</title>
<g id="a_Node000002"><a xlink:href="classhelios_1_1engine_1_1runtime_1_1world_1_1GameWorld.html#a0893b5b23f23de4e093c69f10b5ca2e3" target="_top" xlink:title="Creates a clone of an existing GameObject.">
<polygon fill="white" stroke="#666666" points="339,-35.5 194,-35.5 194,-5.5 339,-5.5 339,-35.5"/>
<text text-anchor="start" x="202" y="-23.5" font-family="Helvetica,sans-Serif" font-size="10.00">helios::engine::runtime</text>
<text text-anchor="middle" x="266.5" y="-12.5" font-family="Helvetica,sans-Serif" font-size="10.00">::world::GameWorld::clone</text>
</a>
</g>
</g>
<!-- Node1&#45;&gt;Node2 -->
<g id="edge1_Node000001_Node000002" class="edge">
<title>Node1&#45;&gt;Node2</title>
<g id="a_edge1_Node000001_Node000002"><a xlink:title=" ">
<path fill="none" stroke="#63b8ff" d="M364.62,-20.5C355.95,-20.5 347.33,-20.5 339.01,-20.5"/>
<polygon fill="#63b8ff" stroke="#63b8ff" points="364.8,-24 374.8,-20.5 364.8,-17 364.8,-24"/>
</a>
</g>
</g>
<!-- Node3 -->
<g id="Node000003" class="node">
<title>Node3</title>
<g id="a_Node000003"><a xlink:href="classhelios_1_1engine_1_1runtime_1_1factory_1_1GameObjectFactory.html#ad334258a72af933b4b834b9592b4f7d3" target="_top" xlink:title="Fills a GameObjectPool with cloned instances of the prefab.">
<polygon fill="white" stroke="#666666" points="158,-41 0,-41 0,0 158,0 158,-41"/>
<text text-anchor="start" x="8" y="-29" font-family="Helvetica,sans-Serif" font-size="10.00">helios::engine::runtime</text>
<text text-anchor="start" x="8" y="-18" font-family="Helvetica,sans-Serif" font-size="10.00">::factory::GameObjectFactory</text>
<text text-anchor="middle" x="79" y="-7" font-family="Helvetica,sans-Serif" font-size="10.00">::fillPool</text>
</a>
</g>
</g>
<!-- Node2&#45;&gt;Node3 -->
<g id="edge2_Node000002_Node000003" class="edge">
<title>Node2&#45;&gt;Node3</title>
<g id="a_edge2_Node000002_Node000003"><a xlink:title=" ">
<path fill="none" stroke="#63b8ff" d="M183.6,-20.5C175.2,-20.5 166.67,-20.5 158.3,-20.5"/>
<polygon fill="#63b8ff" stroke="#63b8ff" points="183.78,-24 193.78,-20.5 183.78,-17 183.78,-24"/>
</a>
</g>
</g>
</g>
</svg>
