<?xml version="1.0" encoding="UTF-8" standalone="no"?>
<!DOCTYPE svg PUBLIC "-//W3C//DTD SVG 1.1//EN"
 "http://www.w3.org/Graphics/SVG/1.1/DTD/svg11.dtd">
<!-- Generated by graphviz version 2.43.0 (0)
 -->
<!-- Title: helios::engine::ecs::EntityManager::has Pages: 1 -->
<svg width="304pt" height="98pt"
 viewBox="0.00 0.00 304.00 97.50" xmlns="http://www.w3.org/2000/svg" xmlns:xlink="http://www.w3.org/1999/xlink">
<g id="graph0" class="graph" transform="scale(1 1) rotate(0) translate(4 93.5)">
<title>helios::engine::ecs::EntityManager::has</title>
<!-- Node1 -->
<g id="Node000001" class="node">
<title>Node1</title>
<g id="a_Node000001"><a xlink:title="Checks whether an entity has a component by type ID.">
<polygon fill="#999999" stroke="#666666" points="117,-62.5 0,-62.5 0,-32.5 117,-32.5 117,-62.5"/>
<text text-anchor="start" x="8" y="-50.5" font-family="Helvetica,sans-Serif" font-size="10.00">helios::engine::ecs</text>
<text text-anchor="middle" x="58.5" y="-39.5" font-family="Helvetica,sans-Serif" font-size="10.00">::EntityManager::has</text>
</a>
</g>
</g>
<!-- Node2 -->
<g id="Node000002" class="node">
<title>Node2</title>
<g id="a_Node000002"><a xlink:href="classhelios_1_1engine_1_1ecs_1_1EntityManager.html#a01ae81037793ce4bebb83a256220c38e" target="_top" xlink:title="Reconstructs an EntityHandle from an EntityId.">
<polygon fill="white" stroke="#666666" points="291,-89.5 158,-89.5 158,-59.5 291,-59.5 291,-89.5"/>
<text text-anchor="start" x="166" y="-77.5" font-family="Helvetica,sans-Serif" font-size="10.00">helios::engine::ecs</text>
<text text-anchor="middle" x="224.5" y="-66.5" font-family="Helvetica,sans-Serif" font-size="10.00">::EntityManager::handle</text>
</a>
</g>
</g>
<!-- Node1&#45;&gt;Node2 -->
<g id="edge1_Node000001_Node000002" class="edge">
<title>Node1&#45;&gt;Node2</title>
<g id="a_edge1_Node000001_Node000002"><a xlink:title=" ">
<path fill="none" stroke="#63b8ff" d="M117.32,-57.02C127.14,-58.64 137.47,-60.34 147.67,-62.02"/>
<polygon fill="#63b8ff" stroke="#63b8ff" points="147.37,-65.51 157.81,-63.68 148.51,-58.61 147.37,-65.51"/>
</a>
</g>
</g>
<!-- Node3 -->
<g id="Node000003" class="node">
<title>Node3</title>
<g id="a_Node000003"><a xlink:href="classhelios_1_1engine_1_1ecs_1_1types_1_1ComponentTypeId.html#a1af987bd8e91584a8093f8560d56b932" target="_top" xlink:title="Returns the underlying ID value.">
<polygon fill="white" stroke="#666666" points="296,-41 153,-41 153,0 296,0 296,-41"/>
<text text-anchor="start" x="161" y="-29" font-family="Helvetica,sans-Serif" font-size="10.00">helios::engine::ecs</text>
<text text-anchor="start" x="161" y="-18" font-family="Helvetica,sans-Serif" font-size="10.00">::types::ComponentTypeId</text>
<text text-anchor="middle" x="224.5" y="-7" font-family="Helvetica,sans-Serif" font-size="10.00">::value</text>
</a>
</g>
</g>
<!-- Node1&#45;&gt;Node3 -->
<g id="edge2_Node000001_Node000003" class="edge">
<title>Node1&#45;&gt;Node3</title>
<g id="a_edge2_Node000001_Node000003"><a xlink:title=" ">
<path fill="none" stroke="#63b8ff" d="M117.32,-37.98C125.61,-36.62 134.25,-35.19 142.88,-33.77"/>
<polygon fill="#63b8ff" stroke="#63b8ff" points="143.68,-37.19 152.97,-32.11 142.54,-30.28 143.68,-37.19"/>
</a>
</g>
</g>
</g>
</svg>
