<?xml version="1.0" encoding="UTF-8" standalone="no"?>
<!DOCTYPE svg PUBLIC "-//W3C//DTD SVG 1.1//EN"
 "http://www.w3.org/Graphics/SVG/1.1/DTD/svg11.dtd">
<!-- Generated by graphviz version 2.43.0 (0)
 -->
<!-- Title: helios::engine::modules::physics::collision::components::CollisionComponent::CollisionComponent Pages: 1 -->
<svg width="406pt" height="270pt"
 viewBox="0.00 0.00 406.00 270.00" xmlns="http://www.w3.org/2000/svg" xmlns:xlink="http://www.w3.org/1999/xlink">
<g id="graph0" class="graph" transform="scale(1 1) rotate(0) translate(4 266)">
<title>helios::engine::modules::physics::collision::components::CollisionComponent::CollisionComponent</title>
<!-- Node1 -->
<g id="Node000001" class="node">
<title>Node1</title>
<g id="a_Node000001"><a xlink:title="Constructs a CollisionComponent with a layer ID.">
<polygon fill="#999999" stroke="#666666" points="181,-157 0,-157 0,-105 181,-105 181,-157"/>
<text text-anchor="start" x="8" y="-145" font-family="Helvetica,sans-Serif" font-size="10.00">helios::engine::modules</text>
<text text-anchor="start" x="8" y="-134" font-family="Helvetica,sans-Serif" font-size="10.00">::physics::collision::</text>
<text text-anchor="start" x="8" y="-123" font-family="Helvetica,sans-Serif" font-size="10.00">components::CollisionComponent</text>
<text text-anchor="middle" x="90.5" y="-112" font-family="Helvetica,sans-Serif" font-size="10.00">::CollisionComponent</text>
</a>
</g>
</g>
<!-- Node2 -->
<g id="Node000002" class="node">
<title>Node2</title>
<g id="a_Node000002"><a xlink:href="classhelios_1_1engine_1_1modules_1_1physics_1_1collision_1_1components_1_1CollisionComponent.html#af848b7ce354c1cf64fec9113f9d9fcfa" target="_top" xlink:title="Returns whether this component can emit collision events.">
<polygon fill="white" stroke="#666666" points="398,-262 217,-262 217,-210 398,-210 398,-262"/>
<text text-anchor="start" x="225" y="-250" font-family="Helvetica,sans-Serif" font-size="10.00">helios::engine::modules</text>
<text text-anchor="start" x="225" y="-239" font-family="Helvetica,sans-Serif" font-size="10.00">::physics::collision::</text>
<text text-anchor="start" x="225" y="-228" font-family="Helvetica,sans-Serif" font-size="10.00">components::CollisionComponent</text>
<text text-anchor="middle" x="307.5" y="-217" font-family="Helvetica,sans-Serif" font-size="10.00">::isCollisionReporter</text>
</a>
</g>
</g>
<!-- Node1&#45;&gt;Node2 -->
<g id="edge1_Node000001_Node000002" class="edge">
<title>Node1&#45;&gt;Node2</title>
<g id="a_edge1_Node000001_Node000002"><a xlink:title=" ">
<path fill="none" stroke="#63b8ff" d="M134.87,-157.11C158.7,-170.97 189.02,-187.8 217,-201 220.55,-202.67 224.2,-204.34 227.91,-205.97"/>
<polygon fill="#63b8ff" stroke="#63b8ff" points="226.63,-209.24 237.2,-209.99 229.41,-202.81 226.63,-209.24"/>
</a>
</g>
</g>
<!-- Node3 -->
<g id="Node000003" class="node">
<title>Node3</title>
<g id="a_Node000003"><a xlink:href="classhelios_1_1engine_1_1modules_1_1physics_1_1collision_1_1components_1_1CollisionComponent.html#a65697e9fbaa7e25f76954b97467c50f6" target="_top" xlink:title="Returns the collision layer ID.">
<polygon fill="white" stroke="#666666" points="398,-192 217,-192 217,-140 398,-140 398,-192"/>
<text text-anchor="start" x="225" y="-180" font-family="Helvetica,sans-Serif" font-size="10.00">helios::engine::modules</text>
<text text-anchor="start" x="225" y="-169" font-family="Helvetica,sans-Serif" font-size="10.00">::physics::collision::</text>
<text text-anchor="start" x="225" y="-158" font-family="Helvetica,sans-Serif" font-size="10.00">components::CollisionComponent</text>
<text text-anchor="middle" x="307.5" y="-147" font-family="Helvetica,sans-Serif" font-size="10.00">::layerId</text>
</a>
</g>
</g>
<!-- Node1&#45;&gt;Node3 -->
<g id="edge2_Node000001_Node000003" class="edge">
<title>Node1&#45;&gt;Node3</title>
<g id="a_edge2_Node000001_Node000003"><a xlink:title=" ">
<path fill="none" stroke="#63b8ff" d="M181.12,-145.59C189.57,-146.96 198.17,-148.36 206.7,-149.75"/>
<polygon fill="#63b8ff" stroke="#63b8ff" points="206.24,-153.23 216.68,-151.38 207.37,-146.32 206.24,-153.23"/>
</a>
</g>
</g>
<!-- Node4 -->
<g id="Node000004" class="node">
<title>Node4</title>
<g id="a_Node000004"><a xlink:href="classhelios_1_1engine_1_1modules_1_1physics_1_1collision_1_1components_1_1CollisionComponent.html#a7fc0511ebc7fc2b50ff37f839c32da41" target="_top" xlink:title="Returns the solid collision mask.">
<polygon fill="white" stroke="#666666" points="398,-122 217,-122 217,-70 398,-70 398,-122"/>
<text text-anchor="start" x="225" y="-110" font-family="Helvetica,sans-Serif" font-size="10.00">helios::engine::modules</text>
<text text-anchor="start" x="225" y="-99" font-family="Helvetica,sans-Serif" font-size="10.00">::physics::collision::</text>
<text text-anchor="start" x="225" y="-88" font-family="Helvetica,sans-Serif" font-size="10.00">components::CollisionComponent</text>
<text text-anchor="middle" x="307.5" y="-77" font-family="Helvetica,sans-Serif" font-size="10.00">::solidCollisionMask</text>
</a>
</g>
</g>
<!-- Node1&#45;&gt;Node4 -->
<g id="edge3_Node000001_Node000004" class="edge">
<title>Node1&#45;&gt;Node4</title>
<g id="a_edge3_Node000001_Node000004"><a xlink:title=" ">
<path fill="none" stroke="#63b8ff" d="M181.12,-116.41C189.57,-115.04 198.17,-113.64 206.7,-112.25"/>
<polygon fill="#63b8ff" stroke="#63b8ff" points="207.37,-115.68 216.68,-110.62 206.24,-108.77 207.37,-115.68"/>
</a>
</g>
</g>
<!-- Node5 -->
<g id="Node000005" class="node">
<title>Node5</title>
<g id="a_Node000005"><a xlink:href="classhelios_1_1engine_1_1modules_1_1physics_1_1collision_1_1components_1_1CollisionComponent.html#adcafd16782f7bf52d4211003b483ec4e" target="_top" xlink:title="Returns the trigger collision mask.">
<polygon fill="white" stroke="#666666" points="398,-52 217,-52 217,0 398,0 398,-52"/>
<text text-anchor="start" x="225" y="-40" font-family="Helvetica,sans-Serif" font-size="10.00">helios::engine::modules</text>
<text text-anchor="start" x="225" y="-29" font-family="Helvetica,sans-Serif" font-size="10.00">::physics::collision::</text>
<text text-anchor="start" x="225" y="-18" font-family="Helvetica,sans-Serif" font-size="10.00">components::CollisionComponent</text>
<text text-anchor="middle" x="307.5" y="-7" font-family="Helvetica,sans-Serif" font-size="10.00">::triggerCollisionMask</text>
</a>
</g>
</g>
<!-- Node1&#45;&gt;Node5 -->
<g id="edge4_Node000001_Node000005" class="edge">
<title>Node1&#45;&gt;Node5</title>
<g id="a_edge4_Node000001_Node000005"><a xlink:title=" ">
<path fill="none" stroke="#63b8ff" d="M134.87,-104.89C158.7,-91.03 189.02,-74.2 217,-61 220.55,-59.33 224.2,-57.66 227.91,-56.03"/>
<polygon fill="#63b8ff" stroke="#63b8ff" points="229.41,-59.19 237.2,-52.01 226.63,-52.76 229.41,-59.19"/>
</a>
</g>
</g>
</g>
</svg>
