<?xml version="1.0" encoding="UTF-8" standalone="no"?>
<!DOCTYPE svg PUBLIC "-//W3C//DTD SVG 1.1//EN"
 "http://www.w3.org/Graphics/SVG/1.1/DTD/svg11.dtd">
<!-- Generated by graphviz version 2.43.0 (0)
 -->
<!-- Title: helios::engine::builder::gameObject::builders::configs::ObserverConfig::ObserverConfig Pages: 1 -->
<!--zoomable 228 -->

<svg id="main" version="1.1" xmlns="http://www.w3.org/2000/svg" xmlns:xlink="http://www.w3.org/1999/xlink" xml:space="preserve" onload="init(evt)">

<style type="text/css"><![CDATA[
.node, .edge {opacity: 0.7;}
.node.selected, .edge.selected {opacity: 1;}
.edge:hover path { stroke: red; }
.edge:hover polygon { stroke: red; fill: red; }
]]></style>

<defs>
  <circle id="rim" cx="0" cy="0" r="7"/>
  <circle id="rim2" cx="0" cy="0" r="3.5"/>
  <g id="zoomPlus">
    <use xlink:href="#rim" fill="#404040"><set attributeName="fill" to="#808080" begin="zoomplus.mouseover" end="zoomplus.mouseout"/></use>
    <path d="M-4,0h8M0,-4v8" fill="none" stroke="white" stroke-width="1.5" pointer-events="none"/>
  </g>
  <g id="zoomMin">
    <use xlink:href="#rim" fill="#404040"><set attributeName="fill" to="#808080" begin="zoomminus.mouseover" end="zoomminus.mouseout"/></use>
    <path d="M-4,0h8" fill="none" stroke="white" stroke-width="1.5" pointer-events="none"/>
  </g>
  <g id="arrowUp" transform="translate(30 24)">
    <use xlink:href="#rim"/>
    <path pointer-events="none" fill="none" stroke="white" stroke-width="1.5" d="M0,-3.0v7 M-2.5,-0.5L0,-3.0L2.5,-0.5"/>
  </g>
  <g id="arrowRight" transform="rotate(90) translate(36 -43)">
    <use xlink:href="#rim"/>
    <path pointer-events="none" fill="none" stroke="white" stroke-width="1.5" d="M0,-3.0v7 M-2.5,-0.5L0,-3.0L2.5,-0.5"/>
  </g>
  <g id="arrowDown" transform="rotate(180) translate(-30 -48)">
    <use xlink:href="#rim"/>
    <path pointer-events="none" fill="none" stroke="white" stroke-width="1.5" d="M0,-3.0v7 M-2.5,-0.5L0,-3.0L2.5,-0.5"/>
  </g>
  <g id="arrowLeft" transform="rotate(270) translate(-36 17)">
    <use xlink:href="#rim"/>
    <path pointer-events="none" fill="none" stroke="white" stroke-width="1.5" d="M0,-3.0v7 M-2.5,-0.5L0,-3.0L2.5,-0.5"/>
  </g>
  <g id="resetDef">
    <use xlink:href="#rim2" fill="#404040"><set attributeName="fill" to="#808080" begin="reset.mouseover" end="reset.mouseout"/></use>
  </g>
</defs>
<script type="application/ecmascript">
var viewWidth = 523;
var viewHeight = 228;
var sectionId = 'dynsection-0';
</script>
<script type="application/ecmascript" xlink:href="svg.min.js"/>
<svg id="graph" class="graph">
<g id="viewport">
<title>helios::engine::builder::gameObject::builders::configs::ObserverConfig::ObserverConfig</title>
<!-- Node1 -->
<g id="Node000001" class="node">
<title>Node1</title>
<g id="a_Node000001"><a xlink:title="Constructs an ObserverConfig.">
<polygon fill="#999999" stroke="#666666" points="515,-122.5 377,-122.5 377,-70.5 515,-70.5 515,-122.5"/>
<text text-anchor="start" x="385" y="-110.5" font-family="Helvetica,sans-Serif" font-size="10.00">helios::engine::builder</text>
<text text-anchor="start" x="385" y="-99.5" font-family="Helvetica,sans-Serif" font-size="10.00">::gameObject::builders</text>
<text text-anchor="start" x="385" y="-88.5" font-family="Helvetica,sans-Serif" font-size="10.00">::configs::ObserverConfig</text>
<text text-anchor="middle" x="446" y="-77.5" font-family="Helvetica,sans-Serif" font-size="10.00">::ObserverConfig</text>
</a>
</g>
</g>
<!-- Node2 -->
<g id="Node000002" class="node">
<title>Node2</title>
<g id="a_Node000002"><a xlink:href="classhelios_1_1engine_1_1builder_1_1gameObject_1_1builders_1_1configs_1_1ObserverConfig.html#af09cb508af8eb3854e7d6f0dd5d796d3" target="_top" xlink:title="Adds a MaxScoreObserverComponent bound to the specified pool.">
<polygon fill="white" stroke="#666666" points="326.5,-219.5 188.5,-219.5 188.5,-167.5 326.5,-167.5 326.5,-219.5"/>
<text text-anchor="start" x="196.5" y="-207.5" font-family="Helvetica,sans-Serif" font-size="10.00">helios::engine::builder</text>
<text text-anchor="start" x="196.5" y="-196.5" font-family="Helvetica,sans-Serif" font-size="10.00">::gameObject::builders</text>
<text text-anchor="start" x="196.5" y="-185.5" font-family="Helvetica,sans-Serif" font-size="10.00">::configs::ObserverConfig</text>
<text text-anchor="middle" x="257.5" y="-174.5" font-family="Helvetica,sans-Serif" font-size="10.00">::maxScore</text>
</a>
</g>
</g>
<!-- Node1&#45;&gt;Node2 -->
<g id="edge1_Node000001_Node000002" class="edge">
<title>Node1&#45;&gt;Node2</title>
<g id="a_edge1_Node000001_Node000002"><a xlink:title=" ">
<path fill="none" stroke="#63b8ff" d="M395.56,-127.84C378.55,-138.12 359.2,-149.27 341,-158.5 335.03,-161.53 328.74,-164.52 322.41,-167.42"/>
<polygon fill="#63b8ff" stroke="#63b8ff" points="397.51,-130.75 404.23,-122.56 393.87,-124.78 397.51,-130.75"/>
</a>
</g>
</g>
<!-- Node3 -->
<g id="Node000003" class="node">
<title>Node3</title>
<g id="a_Node000003"><a xlink:href="classhelios_1_1engine_1_1builder_1_1gameObject_1_1builders_1_1configs_1_1ObserverConfig.html#a0204797c55a823da9234eaecd0f517fd" target="_top" xlink:title="Adds a ScoreObserverComponent bound to the specified pool.">
<polygon fill="white" stroke="#666666" points="326.5,-149.5 188.5,-149.5 188.5,-97.5 326.5,-97.5 326.5,-149.5"/>
<text text-anchor="start" x="196.5" y="-137.5" font-family="Helvetica,sans-Serif" font-size="10.00">helios::engine::builder</text>
<text text-anchor="start" x="196.5" y="-126.5" font-family="Helvetica,sans-Serif" font-size="10.00">::gameObject::builders</text>
<text text-anchor="start" x="196.5" y="-115.5" font-family="Helvetica,sans-Serif" font-size="10.00">::configs::ObserverConfig</text>
<text text-anchor="middle" x="257.5" y="-104.5" font-family="Helvetica,sans-Serif" font-size="10.00">::runningScore</text>
</a>
</g>
</g>
<!-- Node1&#45;&gt;Node3 -->
<g id="edge2_Node000001_Node000003" class="edge">
<title>Node1&#45;&gt;Node3</title>
<g id="a_edge2_Node000001_Node000003"><a xlink:title=" ">
<path fill="none" stroke="#63b8ff" d="M366.8,-107.82C353.5,-109.75 339.77,-111.73 326.75,-113.62"/>
<polygon fill="#63b8ff" stroke="#63b8ff" points="367.48,-111.26 376.88,-106.36 366.48,-104.33 367.48,-111.26"/>
</a>
</g>
</g>
<!-- Node4 -->
<g id="Node000004" class="node">
<title>Node4</title>
<g id="a_Node000004"><a xlink:href="classhelios_1_1engine_1_1builder_1_1gameObject_1_1builders_1_1configs_1_1ObserverConfig.html#abbbfa6a2b22c1849a00ef3a168a722dd" target="_top" xlink:title="Adds a ScoreObserverComponent bound to the specified pool.">
<polygon fill="white" stroke="#666666" points="138,-122.5 0,-122.5 0,-70.5 138,-70.5 138,-122.5"/>
<text text-anchor="start" x="8" y="-110.5" font-family="Helvetica,sans-Serif" font-size="10.00">helios::engine::builder</text>
<text text-anchor="start" x="8" y="-99.5" font-family="Helvetica,sans-Serif" font-size="10.00">::gameObject::builders</text>
<text text-anchor="start" x="8" y="-88.5" font-family="Helvetica,sans-Serif" font-size="10.00">::configs::ObserverConfig</text>
<text text-anchor="middle" x="69" y="-77.5" font-family="Helvetica,sans-Serif" font-size="10.00">::scorePool</text>
</a>
</g>
</g>
<!-- Node1&#45;&gt;Node4 -->
<g id="edge4_Node000001_Node000004" class="edge">
<title>Node1&#45;&gt;Node4</title>
<g id="a_edge4_Node000001_Node000004"><a xlink:title=" ">
<path fill="none" stroke="#63b8ff" d="M366.67,-89.83C358.01,-89.28 349.32,-88.82 341,-88.5 266.83,-85.65 248.17,-85.65 174,-88.5 162.42,-88.94 150.13,-89.67 138.21,-90.5"/>
<polygon fill="#63b8ff" stroke="#63b8ff" points="366.58,-93.33 376.79,-90.5 367.05,-86.34 366.58,-93.33"/>
</a>
</g>
</g>
<!-- Node5 -->
<g id="Node000005" class="node">
<title>Node5</title>
<g id="a_Node000005"><a xlink:href="classhelios_1_1engine_1_1builder_1_1gameObject_1_1builders_1_1configs_1_1ObserverConfig.html#a5b05eb774f75b54386708137a946f1c6" target="_top" xlink:title="Adds a GameTimerBindingComponent bound to the specified timer.">
<polygon fill="white" stroke="#666666" points="341,-41 174,-41 174,0 341,0 341,-41"/>
<text text-anchor="start" x="182" y="-29" font-family="Helvetica,sans-Serif" font-size="10.00">helios::engine::builder</text>
<text text-anchor="start" x="182" y="-18" font-family="Helvetica,sans-Serif" font-size="10.00">::gameObject::builders</text>
<text text-anchor="middle" x="257.5" y="-7" font-family="Helvetica,sans-Serif" font-size="10.00">::configs::ObserverConfig::time</text>
</a>
</g>
</g>
<!-- Node1&#45;&gt;Node5 -->
<g id="edge5_Node000001_Node000005" class="edge">
<title>Node1&#45;&gt;Node5</title>
<g id="a_edge5_Node000001_Node000005"><a xlink:title=" ">
<path fill="none" stroke="#63b8ff" d="M371.58,-66.58C350.65,-58.05 328.33,-48.96 309.1,-41.12"/>
<polygon fill="#63b8ff" stroke="#63b8ff" points="370.5,-69.92 381.08,-70.45 373.14,-63.44 370.5,-69.92"/>
</a>
</g>
</g>
<!-- Node3&#45;&gt;Node4 -->
<g id="edge3_Node000003_Node000004" class="edge">
<title>Node3&#45;&gt;Node4</title>
<g id="a_edge3_Node000003_Node000004"><a xlink:title=" ">
<path fill="none" stroke="#63b8ff" d="M178.3,-112.18C165,-110.25 151.27,-108.27 138.25,-106.38"/>
<polygon fill="#63b8ff" stroke="#63b8ff" points="177.98,-115.67 188.38,-113.64 178.98,-108.74 177.98,-115.67"/>
</a>
</g>
</g>
</g>
</svg>

<g id="navigator" transform="translate(0 0)" fill="#404254">
  <rect fill="#f2f5e9" fill-opacity="0.5" stroke="#606060" stroke-width=".5" x="0" y="0" width="60" height="60"/>
  <use id="zoomplus" xlink:href="#zoomPlus" x="17" y="9" onmousedown="handleZoom(evt,'in')"/>
  <use id="zoomminus" xlink:href="#zoomMin" x="42" y="9" onmousedown="handleZoom(evt,'out')"/>
  <use id="reset" xlink:href="#resetDef" x="30" y="36" onmousedown="handleReset()"/>
   <use id="arrowup" xlink:href="#arrowUp" x="0" y="0" onmousedown="handlePan(0,-1)"/>
  <use id="arrowright" xlink:href="#arrowRight" x="0" y="0" onmousedown="handlePan(1,0)"/>
  <use id="arrowdown" xlink:href="#arrowDown" x="0" y="0" onmousedown="handlePan(0,1)"/>
  <use id="arrowleft" xlink:href="#arrowLeft" x="0" y="0" onmousedown="handlePan(-1,0)"/>
</g>
<svg viewBox="0 0 15 15" width="100%" height="30px" preserveAspectRatio="xMaxYMin meet">
 <g id="arrow_out" transform="scale(0.3 0.3)">
  <a xlink:href="classhelios_1_1engine_1_1builder_1_1gameObject_1_1builders_1_1configs_1_1ObserverConfig_a8ef24734f3bfeb1778d168a9bad421aa_icgraph_org.svg" target="_base">
   <rect id="button" ry="5" rx="5" y="6" x="6" height="38" width="38"
        fill="#f2f5e9" fill-opacity="0.5" stroke="#606060" stroke-width="1.0"/>
   <path id="arrow"
     d="M 11.500037,31.436501 C 11.940474,20.09759 22.043105,11.32322 32.158766,21.979434 L 37.068811,17.246167 C 37.068811,17.246167 37.088388,32 37.088388,32 L 22.160133,31.978069 C 22.160133,31.978069 26.997745,27.140456 26.997745,27.140456 C 18.528582,18.264221 13.291696,25.230495 11.500037,31.436501 z"
     style="fill:#404040;"/>
  </a>
 </g>
</svg>

<style type='text/css'>
<![CDATA[
[data-mouse-over-selected='false'] { opacity: 0.7; }
[data-mouse-over-selected='true']  { opacity: 1.0; }
]]>
</style>
<script type="application/ecmascript"><![CDATA[
document.addEventListener('DOMContentLoaded', (event) => {
  highlightEdges();
  highlightAdjacentNodes();
});
]]></script>
</svg>
