<?xml version="1.0" encoding="UTF-8" standalone="no"?>
<!DOCTYPE svg PUBLIC "-//W3C//DTD SVG 1.1//EN"
 "http://www.w3.org/Graphics/SVG/1.1/DTD/svg11.dtd">
<!-- Generated by graphviz version 2.43.0 (0)
 -->
<!-- Title: helios::engine::ecs::GameObject::onAcquire Pages: 1 -->
<svg width="537pt" height="134pt"
 viewBox="0.00 0.00 537.00 134.00" xmlns="http://www.w3.org/2000/svg" xmlns:xlink="http://www.w3.org/1999/xlink">
<g id="graph0" class="graph" transform="scale(1 1) rotate(0) translate(4 130)">
<title>helios::engine::ecs::GameObject::onAcquire</title>
<!-- Node1 -->
<g id="Node000001" class="node">
<title>Node1</title>
<g id="a_Node000001"><a xlink:title="Notifies all components that the entity is being acquired from a pool.">
<polygon fill="#999999" stroke="#666666" points="138,-78 0,-78 0,-48 138,-48 138,-78"/>
<text text-anchor="start" x="8" y="-66" font-family="Helvetica,sans-Serif" font-size="10.00">helios::engine::ecs</text>
<text text-anchor="middle" x="69" y="-55" font-family="Helvetica,sans-Serif" font-size="10.00">::GameObject::onAcquire</text>
</a>
</g>
</g>
<!-- Node2 -->
<g id="Node000002" class="node">
<title>Node2</title>
<g id="a_Node000002"><a xlink:href="classhelios_1_1engine_1_1ecs_1_1GameObject.html#a4f04eb1029e742649a0018361b0ff7b2" target="_top" xlink:title="Returns a generator over all component type IDs attached to this entity.">
<polygon fill="white" stroke="#666666" points="355,-126 174,-126 174,-96 355,-96 355,-126"/>
<text text-anchor="start" x="182" y="-114" font-family="Helvetica,sans-Serif" font-size="10.00">helios::engine::ecs</text>
<text text-anchor="middle" x="264.5" y="-103" font-family="Helvetica,sans-Serif" font-size="10.00">::GameObject::componentTypeIds</text>
</a>
</g>
</g>
<!-- Node1&#45;&gt;Node2 -->
<g id="edge1_Node000001_Node000002" class="edge">
<title>Node1&#45;&gt;Node2</title>
<g id="a_edge1_Node000001_Node000002"><a xlink:title=" ">
<path fill="none" stroke="#63b8ff" d="M130.69,-78.06C150.51,-82.97 172.67,-88.47 193.13,-93.54"/>
<polygon fill="#63b8ff" stroke="#63b8ff" points="192.47,-96.99 203.02,-96 194.16,-90.19 192.47,-96.99"/>
</a>
</g>
</g>
<!-- Node3 -->
<g id="Node000003" class="node">
<title>Node3</title>
<g id="a_Node000003"><a xlink:href="classhelios_1_1engine_1_1ecs_1_1ComponentOpsRegistry.html#a4f41db7b6ae7e83ba8092343d8620e59" target="_top" xlink:title="Retrieves ComponentOps for a component type.">
<polygon fill="white" stroke="#666666" points="345,-78 184,-78 184,-48 345,-48 345,-78"/>
<text text-anchor="start" x="192" y="-66" font-family="Helvetica,sans-Serif" font-size="10.00">helios::engine::ecs</text>
<text text-anchor="middle" x="264.5" y="-55" font-family="Helvetica,sans-Serif" font-size="10.00">::ComponentOpsRegistry::ops</text>
</a>
</g>
</g>
<!-- Node1&#45;&gt;Node3 -->
<g id="edge2_Node000001_Node000003" class="edge">
<title>Node1&#45;&gt;Node3</title>
<g id="a_edge2_Node000001_Node000003"><a xlink:title=" ">
<path fill="none" stroke="#63b8ff" d="M138.22,-63C149.78,-63 161.94,-63 173.95,-63"/>
<polygon fill="#63b8ff" stroke="#63b8ff" points="173.98,-66.5 183.98,-63 173.98,-59.5 173.98,-66.5"/>
</a>
</g>
</g>
<!-- Node5 -->
<g id="Node000005" class="node">
<title>Node5</title>
<g id="a_Node000005"><a xlink:href="classhelios_1_1engine_1_1ecs_1_1GameObject.html#ab1c1f6b81c4965b76967c29a6af7f713" target="_top" xlink:title="Returns raw pointer to component by type ID.">
<polygon fill="white" stroke="#666666" points="318,-30 211,-30 211,0 318,0 318,-30"/>
<text text-anchor="start" x="219" y="-18" font-family="Helvetica,sans-Serif" font-size="10.00">helios::engine::ecs</text>
<text text-anchor="middle" x="264.5" y="-7" font-family="Helvetica,sans-Serif" font-size="10.00">::GameObject::raw</text>
</a>
</g>
</g>
<!-- Node1&#45;&gt;Node5 -->
<g id="edge4_Node000001_Node000005" class="edge">
<title>Node1&#45;&gt;Node5</title>
<g id="a_edge4_Node000001_Node000005"><a xlink:title=" ">
<path fill="none" stroke="#63b8ff" d="M130.69,-47.94C153.09,-42.39 178.5,-36.09 201.05,-30.49"/>
<polygon fill="#63b8ff" stroke="#63b8ff" points="201.99,-33.86 210.86,-28.06 200.31,-27.07 201.99,-33.86"/>
</a>
</g>
</g>
<!-- Node4 -->
<g id="Node000004" class="node">
<title>Node4</title>
<g id="a_Node000004"><a xlink:href="classhelios_1_1engine_1_1core_1_1data_1_1ComponentTypeId.html#a324f7ed295515954f0147169dfdff208" target="_top" xlink:title="Returns the underlying ID value.">
<polygon fill="white" stroke="#666666" points="529,-83.5 391,-83.5 391,-42.5 529,-42.5 529,-83.5"/>
<text text-anchor="start" x="399" y="-71.5" font-family="Helvetica,sans-Serif" font-size="10.00">helios::engine::core</text>
<text text-anchor="start" x="399" y="-60.5" font-family="Helvetica,sans-Serif" font-size="10.00">::data::ComponentTypeId</text>
<text text-anchor="middle" x="460" y="-49.5" font-family="Helvetica,sans-Serif" font-size="10.00">::value</text>
</a>
</g>
</g>
<!-- Node3&#45;&gt;Node4 -->
<g id="edge3_Node000003_Node000004" class="edge">
<title>Node3&#45;&gt;Node4</title>
<g id="a_edge3_Node000003_Node000004"><a xlink:title=" ">
<path fill="none" stroke="#63b8ff" d="M345.04,-63C356.81,-63 368.93,-63 380.68,-63"/>
<polygon fill="#63b8ff" stroke="#63b8ff" points="380.89,-66.5 390.89,-63 380.89,-59.5 380.89,-66.5"/>
</a>
</g>
</g>
</g>
</svg>
