<?xml version="1.0" encoding="UTF-8" standalone="no"?>
<!DOCTYPE svg PUBLIC "-//W3C//DTD SVG 1.1//EN"
 "http://www.w3.org/Graphics/SVG/1.1/DTD/svg11.dtd">
<!-- Generated by graphviz version 2.43.0 (0)
 -->
<!-- Title: helios::rendering::text::TextMesh::TextMesh Pages: 1 -->
<svg width="308pt" height="86pt"
 viewBox="0.00 0.00 308.00 86.00" xmlns="http://www.w3.org/2000/svg" xmlns:xlink="http://www.w3.org/1999/xlink">
<g id="graph0" class="graph" transform="scale(1 1) rotate(0) translate(4 82)">
<title>helios::rendering::text::TextMesh::TextMesh</title>
<!-- Node1 -->
<g id="Node000001" class="node">
<title>Node1</title>
<g id="a_Node000001"><a xlink:title="Constructs a TextMesh with the given text and font.">
<polygon fill="#999999" stroke="#666666" points="141,-54 0,-54 0,-24 141,-24 141,-54"/>
<text text-anchor="start" x="8" y="-42" font-family="Helvetica,sans-Serif" font-size="10.00">helios::rendering::</text>
<text text-anchor="middle" x="70.5" y="-31" font-family="Helvetica,sans-Serif" font-size="10.00">text::TextMesh::TextMesh</text>
</a>
</g>
</g>
<!-- Node2 -->
<g id="Node000002" class="node">
<title>Node2</title>
<g id="a_Node000002"><a xlink:href="classhelios_1_1rendering_1_1text_1_1TextMesh.html#ab88efd9db53ef6bec25a8154fd6115a3" target="_top" xlink:title="Returns the font identifier.">
<polygon fill="white" stroke="#666666" points="300,-78 177,-78 177,-48 300,-48 300,-78"/>
<text text-anchor="start" x="185" y="-66" font-family="Helvetica,sans-Serif" font-size="10.00">helios::rendering::</text>
<text text-anchor="middle" x="238.5" y="-55" font-family="Helvetica,sans-Serif" font-size="10.00">text::TextMesh::fontId</text>
</a>
</g>
</g>
<!-- Node1&#45;&gt;Node2 -->
<g id="edge1_Node000001_Node000002" class="edge">
<title>Node1&#45;&gt;Node2</title>
<g id="a_edge1_Node000001_Node000002"><a xlink:title=" ">
<path fill="none" stroke="#63b8ff" d="M141.42,-49.11C149.8,-50.32 158.36,-51.56 166.75,-52.77"/>
<polygon fill="#63b8ff" stroke="#63b8ff" points="166.47,-56.27 176.87,-54.23 167.48,-49.34 166.47,-56.27"/>
</a>
</g>
</g>
<!-- Node3 -->
<g id="Node000003" class="node">
<title>Node3</title>
<g id="a_Node000003"><a xlink:href="classhelios_1_1rendering_1_1text_1_1TextMesh.html#a4ca16d4d6a4709796c58a929355940c4" target="_top" xlink:title="Returns the current text string.">
<polygon fill="white" stroke="#666666" points="295.5,-30 181.5,-30 181.5,0 295.5,0 295.5,-30"/>
<text text-anchor="start" x="189.5" y="-18" font-family="Helvetica,sans-Serif" font-size="10.00">helios::rendering::</text>
<text text-anchor="middle" x="238.5" y="-7" font-family="Helvetica,sans-Serif" font-size="10.00">text::TextMesh::text</text>
</a>
</g>
</g>
<!-- Node1&#45;&gt;Node3 -->
<g id="edge2_Node000001_Node000003" class="edge">
<title>Node1&#45;&gt;Node3</title>
<g id="a_edge2_Node000001_Node000003"><a xlink:title=" ">
<path fill="none" stroke="#63b8ff" d="M141.42,-28.89C151.28,-27.47 161.4,-26 171.19,-24.59"/>
<polygon fill="#63b8ff" stroke="#63b8ff" points="171.86,-28.03 181.26,-23.13 170.86,-21.1 171.86,-28.03"/>
</a>
</g>
</g>
</g>
</svg>
