<?xml version="1.0" encoding="UTF-8" standalone="no"?>
<!DOCTYPE svg PUBLIC "-//W3C//DTD SVG 1.1//EN"
 "http://www.w3.org/Graphics/SVG/1.1/DTD/svg11.dtd">
<!-- Generated by graphviz version 2.43.0 (0)
 -->
<!-- Title: helios::engine::ecs::types::ComponentTypeId::ComponentTypeId Pages: 1 -->
<svg width="929pt" height="474pt"
 viewBox="0.00 0.00 929.00 473.50" xmlns="http://www.w3.org/2000/svg" xmlns:xlink="http://www.w3.org/1999/xlink">
<g id="graph0" class="graph" transform="scale(1 1) rotate(0) translate(4 469.5)">
<title>helios::engine::ecs::types::ComponentTypeId::ComponentTypeId</title>
<!-- Node1 -->
<g id="Node000001" class="node">
<title>Node1</title>
<g id="a_Node000001"><a xlink:title="Constructs a ComponentTypeId with a specific ID value.">
<polygon fill="#999999" stroke="#666666" points="921,-224 778,-224 778,-183 921,-183 921,-224"/>
<text text-anchor="start" x="786" y="-212" font-family="Helvetica,sans-Serif" font-size="10.00">helios::engine::ecs</text>
<text text-anchor="start" x="786" y="-201" font-family="Helvetica,sans-Serif" font-size="10.00">::types::ComponentTypeId</text>
<text text-anchor="middle" x="849.5" y="-190" font-family="Helvetica,sans-Serif" font-size="10.00">::ComponentTypeId</text>
</a>
</g>
</g>
<!-- Node2 -->
<g id="Node000002" class="node">
<title>Node2</title>
<g id="a_Node000002"><a xlink:href="classhelios_1_1engine_1_1ecs_1_1types_1_1ComponentTypeId.html#a1dbab446eae5a92340c6cf90f44e1205" target="_top" xlink:title="Gets the ComponentTypeId for a specific component type.">
<polygon fill="white" stroke="#666666" points="742,-218.5 584,-218.5 584,-188.5 742,-188.5 742,-218.5"/>
<text text-anchor="start" x="592" y="-206.5" font-family="Helvetica,sans-Serif" font-size="10.00">helios::engine::ecs</text>
<text text-anchor="middle" x="663" y="-195.5" font-family="Helvetica,sans-Serif" font-size="10.00">::types::ComponentTypeId::id</text>
</a>
</g>
</g>
<!-- Node1&#45;&gt;Node2 -->
<g id="edge1_Node000001_Node000002" class="edge">
<title>Node1&#45;&gt;Node2</title>
<g id="a_edge1_Node000001_Node000002"><a xlink:title=" ">
<path fill="none" stroke="#63b8ff" d="M767.71,-196.8C759.24,-196.73 750.63,-196.74 742.19,-196.82"/>
<polygon fill="#63b8ff" stroke="#63b8ff" points="767.92,-200.3 777.96,-196.92 768,-193.3 767.92,-200.3"/>
</a>
</g>
</g>
<!-- Node17 -->
<g id="Node000017" class="node">
<title>Node17</title>
<g id="a_Node000017"><a xlink:href="classhelios_1_1engine_1_1ecs_1_1types_1_1ComponentTypeId.html#a0d3961b62506323fd47f26889cb0c206" target="_top" xlink:title=" ">
<polygon fill="white" stroke="#666666" points="734.5,-170 591.5,-170 591.5,-129 734.5,-129 734.5,-170"/>
<text text-anchor="start" x="599.5" y="-158" font-family="Helvetica,sans-Serif" font-size="10.00">helios::engine::ecs</text>
<text text-anchor="start" x="599.5" y="-147" font-family="Helvetica,sans-Serif" font-size="10.00">::types::ComponentTypeId</text>
<text text-anchor="middle" x="663" y="-136" font-family="Helvetica,sans-Serif" font-size="10.00">::operator==</text>
</a>
</g>
</g>
<!-- Node1&#45;&gt;Node17 -->
<g id="edge24_Node000001_Node000017" class="edge">
<title>Node1&#45;&gt;Node17</title>
<g id="a_edge24_Node000001_Node000017"><a xlink:title=" ">
<path fill="none" stroke="#63b8ff" d="M768.29,-180.02C756.9,-176.69 745.26,-173.28 734.08,-170.01"/>
<polygon fill="#63b8ff" stroke="#63b8ff" points="767.64,-183.48 778.22,-182.93 769.61,-176.76 767.64,-183.48"/>
</a>
</g>
</g>
<!-- Node2&#45;&gt;Node1 -->
<g id="edge4_Node000002_Node000001" class="edge">
<title>Node2&#45;&gt;Node1</title>
<g id="a_edge4_Node000002_Node000001"><a xlink:title=" ">
<path fill="none" stroke="#63b8ff" d="M752.27,-210.24C760.89,-210.27 769.55,-210.21 777.96,-210.08"/>
<polygon fill="#63b8ff" stroke="#63b8ff" points="752.22,-206.74 742.19,-210.18 752.17,-213.74 752.22,-206.74"/>
</a>
</g>
</g>
<!-- Node3 -->
<g id="Node000003" class="node">
<title>Node3</title>
<g id="a_Node000003"><a xlink:href="classhelios_1_1engine_1_1ecs_1_1GameObject.html#a0447ff56cdd329a2db5436096f8353ae" target="_top" xlink:title="Constructs and attaches a component to this entity.">
<polygon fill="white" stroke="#666666" points="519.5,-457.5 412.5,-457.5 412.5,-427.5 519.5,-427.5 519.5,-457.5"/>
<text text-anchor="start" x="420.5" y="-445.5" font-family="Helvetica,sans-Serif" font-size="10.00">helios::engine::ecs</text>
<text text-anchor="middle" x="466" y="-434.5" font-family="Helvetica,sans-Serif" font-size="10.00">::GameObject::add</text>
</a>
</g>
</g>
<!-- Node2&#45;&gt;Node3 -->
<g id="edge2_Node000002_Node000003" class="edge">
<title>Node2&#45;&gt;Node3</title>
<g id="a_edge2_Node000002_Node000003"><a xlink:title=" ">
<path fill="none" stroke="#63b8ff" d="M652.59,-228.11C636.36,-267.87 599.82,-346.92 548,-397.5 535.34,-409.86 518.6,-419.91 503.63,-427.35"/>
<polygon fill="#63b8ff" stroke="#63b8ff" points="655.9,-229.24 656.36,-218.66 649.4,-226.65 655.9,-229.24"/>
</a>
</g>
</g>
<!-- Node5 -->
<g id="Node000005" class="node">
<title>Node5</title>
<g id="a_Node000005"><a xlink:href="classhelios_1_1engine_1_1ecs_1_1EntityManager.html#af0e75c4b42a3efb8f308ca9430075464" target="_top" xlink:title="Constructs and attaches a component to an entity.">
<polygon fill="white" stroke="#666666" points="348,-417.5 206,-417.5 206,-387.5 348,-387.5 348,-417.5"/>
<text text-anchor="start" x="214" y="-405.5" font-family="Helvetica,sans-Serif" font-size="10.00">helios::engine::ecs</text>
<text text-anchor="middle" x="277" y="-394.5" font-family="Helvetica,sans-Serif" font-size="10.00">::EntityManager::emplace</text>
</a>
</g>
</g>
<!-- Node2&#45;&gt;Node5 -->
<g id="edge5_Node000002_Node000005" class="edge">
<title>Node2&#45;&gt;Node5</title>
<g id="a_edge5_Node000002_Node000005"><a xlink:title=" ">
<path fill="none" stroke="#63b8ff" d="M640.74,-225.78C619.07,-247.47 583.67,-280.18 548,-301.5 479.81,-342.27 392.36,-371.31 335.76,-387.5"/>
<polygon fill="#63b8ff" stroke="#63b8ff" points="643.28,-228.19 647.81,-218.61 638.29,-223.28 643.28,-228.19"/>
</a>
</g>
</g>
<!-- Node7 -->
<g id="Node000007" class="node">
<title>Node7</title>
<g id="a_Node000007"><a xlink:href="classhelios_1_1engine_1_1ecs_1_1EntityManager.html#afc62dc2277d76ec4a52e2bb04a49715f" target="_top" xlink:title="Retrieves a component for the given entity.">
<polygon fill="white" stroke="#666666" points="335,-369.5 219,-369.5 219,-339.5 335,-339.5 335,-369.5"/>
<text text-anchor="start" x="227" y="-357.5" font-family="Helvetica,sans-Serif" font-size="10.00">helios::engine::ecs</text>
<text text-anchor="middle" x="277" y="-346.5" font-family="Helvetica,sans-Serif" font-size="10.00">::EntityManager::get</text>
</a>
</g>
</g>
<!-- Node2&#45;&gt;Node7 -->
<g id="edge7_Node000002_Node000007" class="edge">
<title>Node2&#45;&gt;Node7</title>
<g id="a_edge7_Node000002_Node000007"><a xlink:title=" ">
<path fill="none" stroke="#63b8ff" d="M623.38,-222.95C601.5,-233.67 573.48,-246.92 548,-257.5 470.72,-289.59 378.59,-321.34 324.38,-339.37"/>
<polygon fill="#63b8ff" stroke="#63b8ff" points="624.93,-226.08 632.36,-218.52 621.84,-219.8 624.93,-226.08"/>
</a>
</g>
</g>
<!-- Node8 -->
<g id="Node000008" class="node">
<title>Node8</title>
<g id="a_Node000008"><a xlink:href="classhelios_1_1engine_1_1ecs_1_1EntityManager.html#ab5c96f1027c20943e58595197575d57d" target="_top" xlink:title="Returns the SparseSet for a component type.">
<polygon fill="white" stroke="#666666" points="548,-137.5 384,-137.5 384,-107.5 548,-107.5 548,-137.5"/>
<text text-anchor="start" x="392" y="-125.5" font-family="Helvetica,sans-Serif" font-size="10.00">helios::engine::ecs</text>
<text text-anchor="middle" x="466" y="-114.5" font-family="Helvetica,sans-Serif" font-size="10.00">::EntityManager::getSparseSet</text>
</a>
</g>
</g>
<!-- Node2&#45;&gt;Node8 -->
<g id="edge9_Node000002_Node000008" class="edge">
<title>Node2&#45;&gt;Node8</title>
<g id="a_edge9_Node000002_Node000008"><a xlink:title=" ">
<path fill="none" stroke="#63b8ff" d="M597.39,-184.69C592.78,-182.77 588.28,-180.71 584,-178.5 566.23,-169.32 565.61,-160.98 548,-151.5 538.14,-146.19 527.1,-141.5 516.42,-137.53"/>
<polygon fill="#63b8ff" stroke="#63b8ff" points="596.35,-188.04 606.93,-188.41 598.89,-181.51 596.35,-188.04"/>
</a>
</g>
</g>
<!-- Node9 -->
<g id="Node000009" class="node">
<title>Node9</title>
<g id="a_Node000009"><a xlink:href="classhelios_1_1engine_1_1ecs_1_1EntityManager.html#a9747785b45dce1e2e0c4320116f66156" target="_top" xlink:title="Returns the SparseSet for a component type (const).">
<polygon fill="white" stroke="#666666" points="548,-89.5 384,-89.5 384,-59.5 548,-59.5 548,-89.5"/>
<text text-anchor="start" x="392" y="-77.5" font-family="Helvetica,sans-Serif" font-size="10.00">helios::engine::ecs</text>
<text text-anchor="middle" x="466" y="-66.5" font-family="Helvetica,sans-Serif" font-size="10.00">::EntityManager::getSparseSet</text>
</a>
</g>
</g>
<!-- Node2&#45;&gt;Node9 -->
<g id="edge10_Node000002_Node000009" class="edge">
<title>Node2&#45;&gt;Node9</title>
<g id="a_edge10_Node000002_Node000009"><a xlink:title=" ">
<path fill="none" stroke="#63b8ff" d="M589.58,-182.94C587.63,-181.56 585.77,-180.08 584,-178.5 554.92,-152.53 577.36,-124.15 548,-98.5 544.02,-95.03 539.56,-92.06 534.83,-89.51"/>
<polygon fill="#63b8ff" stroke="#63b8ff" points="588.21,-186.2 598.56,-188.44 591.86,-180.23 588.21,-186.2"/>
</a>
</g>
</g>
<!-- Node10 -->
<g id="Node000010" class="node">
<title>Node10</title>
<g id="a_Node000010"><a xlink:href="classhelios_1_1engine_1_1ecs_1_1EntityManager.html#ab500472e8088cfef0c39c8e4df787a6e" target="_top" xlink:title="Checks whether an entity has a specific component.">
<polygon fill="white" stroke="#666666" points="524.5,-248.5 407.5,-248.5 407.5,-218.5 524.5,-218.5 524.5,-248.5"/>
<text text-anchor="start" x="415.5" y="-236.5" font-family="Helvetica,sans-Serif" font-size="10.00">helios::engine::ecs</text>
<text text-anchor="middle" x="466" y="-225.5" font-family="Helvetica,sans-Serif" font-size="10.00">::EntityManager::has</text>
</a>
</g>
</g>
<!-- Node2&#45;&gt;Node10 -->
<g id="edge11_Node000002_Node000010" class="edge">
<title>Node2&#45;&gt;Node10</title>
<g id="a_edge11_Node000002_Node000010"><a xlink:title=" ">
<path fill="none" stroke="#63b8ff" d="M573.57,-217.1C557.02,-219.65 540.12,-222.25 524.79,-224.61"/>
<polygon fill="#63b8ff" stroke="#63b8ff" points="574.46,-220.51 583.81,-215.53 573.39,-213.59 574.46,-220.51"/>
</a>
</g>
</g>
<!-- Node15 -->
<g id="Node000015" class="node">
<title>Node15</title>
<g id="a_Node000015"><a xlink:href="classhelios_1_1engine_1_1ecs_1_1EntityManager.html#a15f4a7849d69f466ffbf51f3cec11582" target="_top" xlink:title="Removes a specific component from an entity.">
<polygon fill="white" stroke="#666666" points="153.5,-187.5 16.5,-187.5 16.5,-157.5 153.5,-157.5 153.5,-187.5"/>
<text text-anchor="start" x="24.5" y="-175.5" font-family="Helvetica,sans-Serif" font-size="10.00">helios::engine::ecs</text>
<text text-anchor="middle" x="85" y="-164.5" font-family="Helvetica,sans-Serif" font-size="10.00">::EntityManager::remove</text>
</a>
</g>
</g>
<!-- Node2&#45;&gt;Node15 -->
<g id="edge23_Node000002_Node000015" class="edge">
<title>Node2&#45;&gt;Node15</title>
<g id="a_edge23_Node000002_Node000015"><a xlink:title=" ">
<path fill="none" stroke="#63b8ff" d="M573.49,-198.74C457.91,-192.52 258.08,-181.76 153.79,-176.15"/>
<polygon fill="#63b8ff" stroke="#63b8ff" points="573.54,-202.24 583.72,-199.29 573.92,-195.25 573.54,-202.24"/>
</a>
</g>
</g>
<!-- Node16 -->
<g id="Node000016" class="node">
<title>Node16</title>
<g id="a_Node000016"><a xlink:href="classhelios_1_1engine_1_1ecs_1_1ComponentReflector.html#a766a63ff1fca4a9ff2a95406af08f393" target="_top" xlink:title="Registers a component type with the reflection system.">
<polygon fill="white" stroke="#666666" points="527,-41 405,-41 405,0 527,0 527,-41"/>
<text text-anchor="start" x="413" y="-29" font-family="Helvetica,sans-Serif" font-size="10.00">helios::engine::ecs</text>
<text text-anchor="start" x="413" y="-18" font-family="Helvetica,sans-Serif" font-size="10.00">::ComponentReflector</text>
<text text-anchor="middle" x="466" y="-7" font-family="Helvetica,sans-Serif" font-size="10.00">::registerType</text>
</a>
</g>
</g>
<!-- Node2&#45;&gt;Node16 -->
<g id="edge22_Node000002_Node000016" class="edge">
<title>Node2&#45;&gt;Node16</title>
<g id="a_edge22_Node000002_Node000016"><a xlink:title=" ">
<path fill="none" stroke="#63b8ff" d="M588.46,-182.63C586.9,-181.33 585.41,-179.96 584,-178.5 542.97,-135.97 588.07,-93.94 548,-50.5 542.2,-44.22 534.97,-39.25 527.23,-35.31"/>
<polygon fill="#63b8ff" stroke="#63b8ff" points="586.6,-185.6 596.81,-188.45 590.61,-179.86 586.6,-185.6"/>
</a>
</g>
</g>
<!-- Node4 -->
<g id="Node000004" class="node">
<title>Node4</title>
<g id="a_Node000004"><a xlink:href="classhelios_1_1engine_1_1ecs_1_1GameObject.html#ad6fbab6897f2899f0e6f98c37ba294e8" target="_top" xlink:title="Returns existing component or creates a new one.">
<polygon fill="white" stroke="#666666" points="344.5,-465.5 209.5,-465.5 209.5,-435.5 344.5,-435.5 344.5,-465.5"/>
<text text-anchor="start" x="217.5" y="-453.5" font-family="Helvetica,sans-Serif" font-size="10.00">helios::engine::ecs</text>
<text text-anchor="middle" x="277" y="-442.5" font-family="Helvetica,sans-Serif" font-size="10.00">::GameObject::getOrAdd</text>
</a>
</g>
</g>
<!-- Node3&#45;&gt;Node4 -->
<g id="edge3_Node000003_Node000004" class="edge">
<title>Node3&#45;&gt;Node4</title>
<g id="a_edge3_Node000003_Node000004"><a xlink:title=" ">
<path fill="none" stroke="#63b8ff" d="M402.31,-445.18C383.74,-445.98 363.35,-446.85 344.55,-447.65"/>
<polygon fill="#63b8ff" stroke="#63b8ff" points="402.57,-448.67 412.41,-444.75 402.27,-441.68 402.57,-448.67"/>
</a>
</g>
</g>
<!-- Node6 -->
<g id="Node000006" class="node">
<title>Node6</title>
<g id="a_Node000006"><a xlink:href="classhelios_1_1engine_1_1ecs_1_1EntityManager.html#aabc010881d9c613de7cd9102c20d198d" target="_top" xlink:title="Returns existing component or creates a new one.">
<polygon fill="white" stroke="#666666" points="170,-379.5 0,-379.5 0,-349.5 170,-349.5 170,-379.5"/>
<text text-anchor="start" x="8" y="-367.5" font-family="Helvetica,sans-Serif" font-size="10.00">helios::engine::ecs</text>
<text text-anchor="middle" x="85" y="-356.5" font-family="Helvetica,sans-Serif" font-size="10.00">::EntityManager::emplaceOrGet</text>
</a>
</g>
</g>
<!-- Node5&#45;&gt;Node6 -->
<g id="edge6_Node000005_Node000006" class="edge">
<title>Node5&#45;&gt;Node6</title>
<g id="a_edge6_Node000005_Node000006"><a xlink:title=" ">
<path fill="none" stroke="#63b8ff" d="M195.76,-386.45C184.25,-384.15 172.43,-381.79 161.02,-379.5"/>
<polygon fill="#63b8ff" stroke="#63b8ff" points="195.3,-389.93 205.79,-388.46 196.67,-383.06 195.3,-389.93"/>
</a>
</g>
</g>
<!-- Node7&#45;&gt;Node6 -->
<g id="edge8_Node000007_Node000006" class="edge">
<title>Node7&#45;&gt;Node6</title>
<g id="a_edge8_Node000007_Node000006"><a xlink:title=" ">
<path fill="none" stroke="#63b8ff" d="M208.67,-358.04C196.16,-358.7 182.95,-359.4 170.01,-360.08"/>
<polygon fill="#63b8ff" stroke="#63b8ff" points="209.19,-361.52 218.99,-357.5 208.82,-354.53 209.19,-361.52"/>
</a>
</g>
</g>
<!-- Node10&#45;&gt;Node7 -->
<g id="edge14_Node000010_Node000007" class="edge">
<title>Node10&#45;&gt;Node7</title>
<g id="a_edge14_Node000010_Node000007"><a xlink:title=" ">
<path fill="none" stroke="#63b8ff" d="M441.16,-255.46C418.46,-275.56 382.71,-305.18 348,-325.5 339.14,-330.68 329.19,-335.4 319.62,-339.45"/>
<polygon fill="#63b8ff" stroke="#63b8ff" points="443.51,-258.06 448.62,-248.78 438.84,-252.84 443.51,-258.06"/>
</a>
</g>
</g>
<!-- Node11 -->
<g id="Node000011" class="node">
<title>Node11</title>
<g id="a_Node000011"><a xlink:href="classhelios_1_1engine_1_1ecs_1_1EntityManager.html#ac5e13477c8dfc73875e797a5ec74baef" target="_top" xlink:title="Clones all components from source entity to target entity.">
<polygon fill="white" stroke="#666666" points="148,-331.5 22,-331.5 22,-301.5 148,-301.5 148,-331.5"/>
<text text-anchor="start" x="30" y="-319.5" font-family="Helvetica,sans-Serif" font-size="10.00">helios::engine::ecs</text>
<text text-anchor="middle" x="85" y="-308.5" font-family="Helvetica,sans-Serif" font-size="10.00">::EntityManager::clone</text>
</a>
</g>
</g>
<!-- Node10&#45;&gt;Node11 -->
<g id="edge12_Node000010_Node000011" class="edge">
<title>Node10&#45;&gt;Node11</title>
<g id="a_edge12_Node000010_Node000011"><a xlink:title=" ">
<path fill="none" stroke="#63b8ff" d="M432.57,-254.04C409.81,-267.38 378.18,-283.85 348,-292.5 281.48,-311.57 201.93,-316.47 148.08,-317.3"/>
<polygon fill="#63b8ff" stroke="#63b8ff" points="434.66,-256.87 441.44,-248.73 431.07,-250.86 434.66,-256.87"/>
</a>
</g>
</g>
<!-- Node12 -->
<g id="Node000012" class="node">
<title>Node12</title>
<g id="a_Node000012"><a xlink:href="classhelios_1_1engine_1_1ecs_1_1EntityManager.html#ab9240afd7963c80b11c9025376fa203d" target="_top" xlink:title="Enables or disables a component by type ID.">
<polygon fill="white" stroke="#666666" points="151.5,-235.5 18.5,-235.5 18.5,-205.5 151.5,-205.5 151.5,-235.5"/>
<text text-anchor="start" x="26.5" y="-223.5" font-family="Helvetica,sans-Serif" font-size="10.00">helios::engine::ecs</text>
<text text-anchor="middle" x="85" y="-212.5" font-family="Helvetica,sans-Serif" font-size="10.00">::EntityManager::enable</text>
</a>
</g>
</g>
<!-- Node10&#45;&gt;Node12 -->
<g id="edge13_Node000010_Node000012" class="edge">
<title>Node10&#45;&gt;Node12</title>
<g id="a_edge13_Node000010_Node000012"><a xlink:title=" ">
<path fill="none" stroke="#63b8ff" d="M397.05,-231.17C327.58,-228.79 220.42,-225.11 151.76,-222.76"/>
<polygon fill="#63b8ff" stroke="#63b8ff" points="397.32,-234.68 407.44,-231.53 397.56,-227.68 397.32,-234.68"/>
</a>
</g>
</g>
<!-- Node13 -->
<g id="Node000013" class="node">
<title>Node13</title>
<g id="a_Node000013"><a xlink:href="classhelios_1_1engine_1_1ecs_1_1EntityManager.html#a565e420c4ba6ff7faf687ae12da87536" target="_top" xlink:title="Returns raw void pointer to a component.">
<polygon fill="white" stroke="#666666" points="336,-283.5 218,-283.5 218,-253.5 336,-253.5 336,-283.5"/>
<text text-anchor="start" x="226" y="-271.5" font-family="Helvetica,sans-Serif" font-size="10.00">helios::engine::ecs</text>
<text text-anchor="middle" x="277" y="-260.5" font-family="Helvetica,sans-Serif" font-size="10.00">::EntityManager::raw</text>
</a>
</g>
</g>
<!-- Node10&#45;&gt;Node13 -->
<g id="edge15_Node000010_Node000013" class="edge">
<title>Node10&#45;&gt;Node13</title>
<g id="a_edge15_Node000010_Node000013"><a xlink:title=" ">
<path fill="none" stroke="#63b8ff" d="M397.36,-246.16C377.29,-249.92 355.49,-254 336.09,-257.63"/>
<polygon fill="#63b8ff" stroke="#63b8ff" points="398.18,-249.57 407.37,-244.29 396.89,-242.69 398.18,-249.57"/>
</a>
</g>
</g>
<!-- Node10&#45;&gt;Node15 -->
<g id="edge21_Node000010_Node000015" class="edge">
<title>Node10&#45;&gt;Node15</title>
<g id="a_edge21_Node000010_Node000015"><a xlink:title=" ">
<path fill="none" stroke="#63b8ff" d="M397.15,-222.58C328.34,-211.51 222.48,-194.47 153.73,-183.4"/>
<polygon fill="#63b8ff" stroke="#63b8ff" points="397.01,-226.1 407.44,-224.24 398.12,-219.19 397.01,-226.1"/>
</a>
</g>
</g>
<!-- Node13&#45;&gt;Node6 -->
<g id="edge18_Node000013_Node000006" class="edge">
<title>Node13&#45;&gt;Node6</title>
<g id="a_edge18_Node000013_Node000006"><a xlink:title=" ">
<path fill="none" stroke="#63b8ff" d="M249.61,-289.95C228.99,-305.8 199.05,-326.91 170,-340.5 162.86,-343.84 155.15,-346.82 147.4,-349.43"/>
<polygon fill="#63b8ff" stroke="#63b8ff" points="251.85,-292.64 257.57,-283.72 247.54,-287.12 251.85,-292.64"/>
</a>
</g>
</g>
<!-- Node13&#45;&gt;Node11 -->
<g id="edge16_Node000013_Node000011" class="edge">
<title>Node13&#45;&gt;Node11</title>
<g id="a_edge16_Node000013_Node000011"><a xlink:title=" ">
<path fill="none" stroke="#63b8ff" d="M208.11,-285.65C187.71,-290.81 165.48,-296.42 145.65,-301.43"/>
<polygon fill="#63b8ff" stroke="#63b8ff" points="209.12,-289.01 217.96,-283.16 207.41,-282.22 209.12,-289.01"/>
</a>
</g>
</g>
<!-- Node13&#45;&gt;Node12 -->
<g id="edge19_Node000013_Node000012" class="edge">
<title>Node13&#45;&gt;Node12</title>
<g id="a_edge19_Node000013_Node000012"><a xlink:title=" ">
<path fill="none" stroke="#63b8ff" d="M208.11,-251.35C187.71,-246.19 165.48,-240.58 145.65,-235.57"/>
<polygon fill="#63b8ff" stroke="#63b8ff" points="207.41,-254.78 217.96,-253.84 209.12,-247.99 207.41,-254.78"/>
</a>
</g>
</g>
<!-- Node14 -->
<g id="Node000014" class="node">
<title>Node14</title>
<g id="a_Node000014"><a xlink:href="classhelios_1_1engine_1_1ecs_1_1EntityManager.html#a4201c46757d1135eba61a168a9c0cf0a" target="_top" xlink:title="Destroys an entity and invalidates its handle.">
<polygon fill="white" stroke="#666666" points="153.5,-283.5 16.5,-283.5 16.5,-253.5 153.5,-253.5 153.5,-283.5"/>
<text text-anchor="start" x="24.5" y="-271.5" font-family="Helvetica,sans-Serif" font-size="10.00">helios::engine::ecs</text>
<text text-anchor="middle" x="85" y="-260.5" font-family="Helvetica,sans-Serif" font-size="10.00">::EntityManager::destroy</text>
</a>
</g>
</g>
<!-- Node13&#45;&gt;Node14 -->
<g id="edge17_Node000013_Node000014" class="edge">
<title>Node13&#45;&gt;Node14</title>
<g id="a_edge17_Node000013_Node000014"><a xlink:title=" ">
<path fill="none" stroke="#63b8ff" d="M207.78,-268.5C190.18,-268.5 171.25,-268.5 153.68,-268.5"/>
<polygon fill="#63b8ff" stroke="#63b8ff" points="207.96,-272 217.96,-268.5 207.96,-265 207.96,-272"/>
</a>
</g>
</g>
<!-- Node13&#45;&gt;Node15 -->
<g id="edge20_Node000013_Node000015" class="edge">
<title>Node13&#45;&gt;Node15</title>
<g id="a_edge20_Node000013_Node000015"><a xlink:title=" ">
<path fill="none" stroke="#63b8ff" d="M249.61,-247.05C228.99,-231.2 199.05,-210.09 170,-196.5 162.86,-193.16 155.15,-190.18 147.4,-187.57"/>
<polygon fill="#63b8ff" stroke="#63b8ff" points="247.54,-249.88 257.57,-253.28 251.85,-244.36 247.54,-249.88"/>
</a>
</g>
</g>
</g>
</svg>
