<?xml version="1.0" encoding="UTF-8" standalone="no"?>
<!DOCTYPE svg PUBLIC "-//W3C//DTD SVG 1.1//EN"
 "http://www.w3.org/Graphics/SVG/1.1/DTD/svg11.dtd">
<!-- Generated by graphviz version 2.43.0 (0)
 -->
<!-- Title: helios::engine::runtime::messaging::command::types::CommandBufferTypeId::id Pages: 1 -->
<svg width="578pt" height="60pt"
 viewBox="0.00 0.00 578.00 60.00" xmlns="http://www.w3.org/2000/svg" xmlns:xlink="http://www.w3.org/1999/xlink">
<g id="graph0" class="graph" transform="scale(1 1) rotate(0) translate(4 56)">
<title>helios::engine::runtime::messaging::command::types::CommandBufferTypeId::id</title>
<!-- Node1 -->
<g id="Node000001" class="node">
<title>Node1</title>
<g id="a_Node000001"><a xlink:title="Returns the CommandBufferTypeId for a specific command type.">
<polygon fill="#999999" stroke="#666666" points="570,-46.5 394,-46.5 394,-5.5 570,-5.5 570,-46.5"/>
<text text-anchor="start" x="402" y="-34.5" font-family="Helvetica,sans-Serif" font-size="10.00">helios::engine::runtime</text>
<text text-anchor="start" x="402" y="-23.5" font-family="Helvetica,sans-Serif" font-size="10.00">::messaging::command::</text>
<text text-anchor="middle" x="482" y="-12.5" font-family="Helvetica,sans-Serif" font-size="10.00">types::CommandBufferTypeId::id</text>
</a>
</g>
</g>
<!-- Node2 -->
<g id="Node000002" class="node">
<title>Node2</title>
<g id="a_Node000002"><a xlink:href="classhelios_1_1engine_1_1runtime_1_1messaging_1_1command_1_1types_1_1CommandBufferTypeId.html#ab1243487181b088e0d9933168ccd3dc6" target="_top" xlink:title="Constructs a CommandBufferTypeId with a specific value.">
<polygon fill="white" stroke="#666666" points="358,-52 197,-52 197,0 358,0 358,-52"/>
<text text-anchor="start" x="205" y="-40" font-family="Helvetica,sans-Serif" font-size="10.00">helios::engine::runtime</text>
<text text-anchor="start" x="205" y="-29" font-family="Helvetica,sans-Serif" font-size="10.00">::messaging::command::</text>
<text text-anchor="start" x="205" y="-18" font-family="Helvetica,sans-Serif" font-size="10.00">types::CommandBufferTypeId</text>
<text text-anchor="middle" x="277.5" y="-7" font-family="Helvetica,sans-Serif" font-size="10.00">::CommandBufferTypeId</text>
</a>
</g>
</g>
<!-- Node1&#45;&gt;Node2 -->
<g id="edge1_Node000001_Node000002" class="edge">
<title>Node1&#45;&gt;Node2</title>
<g id="a_edge1_Node000001_Node000002"><a xlink:title=" ">
<path fill="none" stroke="#63b8ff" d="M383.86,-19.25C375.24,-19.23 366.58,-19.28 358.12,-19.39"/>
<polygon fill="#63b8ff" stroke="#63b8ff" points="383.93,-22.76 393.95,-19.31 383.97,-15.76 383.93,-22.76"/>
</a>
</g>
</g>
<!-- Node2&#45;&gt;Node1 -->
<g id="edge2_Node000002_Node000001" class="edge">
<title>Node2&#45;&gt;Node1</title>
<g id="a_edge2_Node000002_Node000001"><a xlink:title=" ">
<path fill="none" stroke="#63b8ff" d="M368.13,-32.71C376.7,-32.77 385.39,-32.76 393.95,-32.69"/>
<polygon fill="#63b8ff" stroke="#63b8ff" points="368.16,-29.21 358.12,-32.61 368.09,-36.21 368.16,-29.21"/>
</a>
</g>
</g>
<!-- Node3 -->
<g id="Node000003" class="node">
<title>Node3</title>
<g id="a_Node000003"><a xlink:href="classhelios_1_1engine_1_1runtime_1_1messaging_1_1command_1_1types_1_1CommandBufferTypeId.html#a561e93f557e082388191a1298f61ee9e" target="_top" xlink:title=" ">
<polygon fill="white" stroke="#666666" points="161,-52 0,-52 0,0 161,0 161,-52"/>
<text text-anchor="start" x="8" y="-40" font-family="Helvetica,sans-Serif" font-size="10.00">helios::engine::runtime</text>
<text text-anchor="start" x="8" y="-29" font-family="Helvetica,sans-Serif" font-size="10.00">::messaging::command::</text>
<text text-anchor="start" x="8" y="-18" font-family="Helvetica,sans-Serif" font-size="10.00">types::CommandBufferTypeId</text>
<text text-anchor="middle" x="80.5" y="-7" font-family="Helvetica,sans-Serif" font-size="10.00">::operator==</text>
</a>
</g>
</g>
<!-- Node2&#45;&gt;Node3 -->
<g id="edge3_Node000002_Node000003" class="edge">
<title>Node2&#45;&gt;Node3</title>
<g id="a_edge3_Node000002_Node000003"><a xlink:title=" ">
<path fill="none" stroke="#63b8ff" d="M186.88,-26C178.3,-26 169.64,-26 161.16,-26"/>
<polygon fill="#63b8ff" stroke="#63b8ff" points="186.9,-29.5 196.9,-26 186.9,-22.5 186.9,-29.5"/>
</a>
</g>
</g>
</g>
</svg>
