<?xml version="1.0" encoding="UTF-8" standalone="no"?>
<!DOCTYPE svg PUBLIC "-//W3C//DTD SVG 1.1//EN"
 "http://www.w3.org/Graphics/SVG/1.1/DTD/svg11.dtd">
<!-- Generated by graphviz version 2.43.0 (0)
 -->
<!-- Title: helios::scene::Scene::createSnapshot Pages: 1 -->
<svg width="478pt" height="220pt"
 viewBox="0.00 0.00 478.00 220.00" xmlns="http://www.w3.org/2000/svg" xmlns:xlink="http://www.w3.org/1999/xlink">

<svg id="main" version="1.1" xmlns="http://www.w3.org/2000/svg" xmlns:xlink="http://www.w3.org/1999/xlink" xml:space="preserve">

<style type="text/css"><![CDATA[
.node, .edge {opacity: 0.7;}
.node.selected, .edge.selected {opacity: 1;}
.edge:hover path { stroke: red; }
.edge:hover polygon { stroke: red; fill: red; }
]]></style>
<script type="application/ecmascript" xlink:href="svg.min.js"/>
<svg id="graph" class="graph">
<g id="graph0" class="graph" transform="scale(1 1) rotate(0) translate(4 216)">
<title>helios::scene::Scene::createSnapshot</title>
<!-- Node1 -->
<g id="Node000001" class="node">
<title>Node1</title>
<g id="a_Node000001"><a xlink:title="Creates a Snapshot of the Scene and returns it.">
<polygon fill="#999999" stroke="#666666" points="116,-116 0,-116 0,-86 116,-86 116,-116"/>
<text text-anchor="start" x="8" y="-104" font-family="Helvetica,sans-Serif" font-size="10.00">helios::scene::Scene</text>
<text text-anchor="middle" x="58" y="-93" font-family="Helvetica,sans-Serif" font-size="10.00">::createSnapshot</text>
</a>
</g>
</g>
<!-- Node2 -->
<g id="Node000002" class="node">
<title>Node2</title>
<g id="a_Node000002"><a xlink:href="classhelios_1_1scene_1_1SceneNode.html#ab908b6a16d34640eca0d92f2573e6cc3" target="_top" xlink:title="Returns the current worldTransform matrix of this SceneNode **without triggering any recomputation**....">
<polygon fill="white" stroke="#666666" points="293,-212 152,-212 152,-182 293,-182 293,-212"/>
<text text-anchor="start" x="160" y="-200" font-family="Helvetica,sans-Serif" font-size="10.00">helios::scene::SceneNode</text>
<text text-anchor="middle" x="222.5" y="-189" font-family="Helvetica,sans-Serif" font-size="10.00">::cachedWorldTransform</text>
</a>
</g>
</g>
<!-- Node1&#45;&gt;Node2 -->
<g id="edge1_Node000001_Node000002" class="edge">
<title>Node1&#45;&gt;Node2</title>
<g id="a_edge1_Node000001_Node000002"><a xlink:title=" ">
<path fill="none" stroke="#63b8ff" d="M74.99,-116.04C92.66,-132 122.54,-157.07 152,-173 155.22,-174.74 158.59,-176.39 162.04,-177.96"/>
<polygon fill="#63b8ff" stroke="#63b8ff" points="160.73,-181.2 171.3,-181.88 163.46,-174.75 160.73,-181.2"/>
</a>
</g>
</g>
<!-- Node3 -->
<g id="Node000003" class="node">
<title>Node3</title>
<g id="a_Node000003"><a xlink:href="classhelios_1_1scene_1_1Scene.html#a3daf47f04c82372f22c8a6f85b277160" target="_top" xlink:title="Applies this Scene&#39;s frustumCullingStrategy and returns all nodes visible for the specified CameraSce...">
<polygon fill="white" stroke="#666666" points="280.5,-164 164.5,-164 164.5,-134 280.5,-134 280.5,-164"/>
<text text-anchor="start" x="172.5" y="-152" font-family="Helvetica,sans-Serif" font-size="10.00">helios::scene::Scene</text>
<text text-anchor="middle" x="222.5" y="-141" font-family="Helvetica,sans-Serif" font-size="10.00">::findVisibleNodes</text>
</a>
</g>
</g>
<!-- Node1&#45;&gt;Node3 -->
<g id="edge2_Node000001_Node000003" class="edge">
<title>Node1&#45;&gt;Node3</title>
<g id="a_edge2_Node000001_Node000003"><a xlink:title=" ">
<path fill="none" stroke="#63b8ff" d="M109.97,-116.06C126.15,-120.84 144.21,-126.17 161,-131.13"/>
<polygon fill="#63b8ff" stroke="#63b8ff" points="160.13,-134.52 170.71,-134 162.11,-127.81 160.13,-134.52"/>
</a>
</g>
</g>
<!-- Node5 -->
<g id="Node000005" class="node">
<title>Node5</title>
<g id="a_Node000005"><a xlink:href="classhelios_1_1scene_1_1SceneNode.html#a3a41a256979415a6678bb391660b0ced" target="_top" xlink:title="Returns true if this SceneNode was configured with a Renderable.">
<polygon fill="white" stroke="#666666" points="293,-116 152,-116 152,-86 293,-86 293,-116"/>
<text text-anchor="start" x="160" y="-104" font-family="Helvetica,sans-Serif" font-size="10.00">helios::scene::SceneNode</text>
<text text-anchor="middle" x="222.5" y="-93" font-family="Helvetica,sans-Serif" font-size="10.00">::hasRenderable</text>
</a>
</g>
</g>
<!-- Node1&#45;&gt;Node5 -->
<g id="edge5_Node000001_Node000005" class="edge">
<title>Node1&#45;&gt;Node5</title>
<g id="a_edge5_Node000001_Node000005"><a xlink:title=" ">
<path fill="none" stroke="#63b8ff" d="M116.29,-101C124.57,-101 133.21,-101 141.82,-101"/>
<polygon fill="#63b8ff" stroke="#63b8ff" points="141.9,-104.5 151.9,-101 141.9,-97.5 141.9,-104.5"/>
</a>
</g>
</g>
<!-- Node6 -->
<g id="Node000006" class="node">
<title>Node6</title>
<g id="a_Node000006"><a xlink:href="classhelios_1_1scene_1_1SceneNode.html#a2f4bba61e70c28e98747ee84af651812" target="_top" xlink:title="Returns a shared pointer to the Renderable of this SceneNode.">
<polygon fill="white" stroke="#666666" points="470,-95 329,-95 329,-65 470,-65 470,-95"/>
<text text-anchor="start" x="337" y="-83" font-family="Helvetica,sans-Serif" font-size="10.00">helios::scene::SceneNode</text>
<text text-anchor="middle" x="399.5" y="-72" font-family="Helvetica,sans-Serif" font-size="10.00">::renderable</text>
</a>
</g>
</g>
<!-- Node1&#45;&gt;Node6 -->
<g id="edge8_Node000001_Node000006" class="edge">
<title>Node1&#45;&gt;Node6</title>
<g id="a_edge8_Node000001_Node000006"><a xlink:title=" ">
<path fill="none" stroke="#63b8ff" d="M107.78,-85.95C121.9,-82.26 137.44,-78.85 152,-77 207.39,-69.97 270.35,-70.88 318.77,-73.47"/>
<polygon fill="#63b8ff" stroke="#63b8ff" points="318.7,-76.97 328.88,-74.05 319.09,-69.98 318.7,-76.97"/>
</a>
</g>
</g>
<!-- Node7 -->
<g id="Node000007" class="node">
<title>Node7</title>
<g id="a_Node000007"><a xlink:href="classhelios_1_1scene_1_1SceneNode.html#af9530fc7b8962c228dd883bf0f509a4a" target="_top" xlink:title="Returns whether this SceneNode and its child nodes should be considered for rendering.">
<polygon fill="white" stroke="#666666" points="293,-30 152,-30 152,0 293,0 293,-30"/>
<text text-anchor="start" x="160" y="-18" font-family="Helvetica,sans-Serif" font-size="10.00">helios::scene::SceneNode</text>
<text text-anchor="middle" x="222.5" y="-7" font-family="Helvetica,sans-Serif" font-size="10.00">::isActive</text>
</a>
</g>
</g>
<!-- Node1&#45;&gt;Node7 -->
<g id="edge7_Node000001_Node000007" class="edge">
<title>Node1&#45;&gt;Node7</title>
<g id="a_edge7_Node000001_Node000007"><a xlink:title=" ">
<path fill="none" stroke="#63b8ff" d="M81.37,-85.94C99.86,-73.82 127.04,-56.76 152,-44 158.64,-40.6 165.78,-37.28 172.85,-34.17"/>
<polygon fill="#63b8ff" stroke="#63b8ff" points="174.61,-37.22 182.42,-30.06 171.85,-30.79 174.61,-37.22"/>
</a>
</g>
</g>
<!-- Node4 -->
<g id="Node000004" class="node">
<title>Node4</title>
<g id="a_Node000004"><a xlink:href="classhelios_1_1scene_1_1Scene.html#a411492ac5cc05ac601ee0aef03dced51" target="_top" xlink:title="Updates the world transformations of SceneNodes in the graph.">
<polygon fill="white" stroke="#666666" points="457.5,-164 341.5,-164 341.5,-134 457.5,-134 457.5,-164"/>
<text text-anchor="start" x="349.5" y="-152" font-family="Helvetica,sans-Serif" font-size="10.00">helios::scene::Scene</text>
<text text-anchor="middle" x="399.5" y="-141" font-family="Helvetica,sans-Serif" font-size="10.00">::updateNodes</text>
</a>
</g>
</g>
<!-- Node3&#45;&gt;Node4 -->
<g id="edge3_Node000003_Node000004" class="edge">
<title>Node3&#45;&gt;Node4</title>
<g id="a_edge3_Node000003_Node000004"><a xlink:title=" ">
<path fill="none" stroke="#63b8ff" d="M280.8,-149C296.9,-149 314.55,-149 331.17,-149"/>
<polygon fill="#63b8ff" stroke="#63b8ff" points="331.37,-152.5 341.37,-149 331.37,-145.5 331.37,-152.5"/>
</a>
</g>
</g>
<!-- Node4&#45;&gt;Node4 -->
<g id="edge4_Node000004_Node000004" class="edge">
<title>Node4&#45;&gt;Node4</title>
<g id="a_edge4_Node000004_Node000004"><a xlink:title=" ">
<path fill="none" stroke="#63b8ff" d="M368.56,-164.28C361.69,-173.41 372,-182 399.5,-182 415.83,-182 426.1,-178.97 430.31,-174.6"/>
<polygon fill="#63b8ff" stroke="#63b8ff" points="433.81,-174.32 430.44,-164.28 426.81,-174.23 433.81,-174.32"/>
</a>
</g>
</g>
<!-- Node5&#45;&gt;Node6 -->
<g id="edge6_Node000005_Node000006" class="edge">
<title>Node5&#45;&gt;Node6</title>
<g id="a_edge6_Node000005_Node000006"><a xlink:title=" ">
<path fill="none" stroke="#63b8ff" d="M293.17,-92.64C301.59,-91.63 310.25,-90.59 318.81,-89.56"/>
<polygon fill="#63b8ff" stroke="#63b8ff" points="319.27,-93.03 328.79,-88.37 318.44,-86.08 319.27,-93.03"/>
</a>
</g>
</g>
</g>
</svg>
</svg>

<style type='text/css'>
<![CDATA[
[data-mouse-over-selected='false'] { opacity: 0.7; }
[data-mouse-over-selected='true']  { opacity: 1.0; }
]]>
</style>
<script type="application/ecmascript"><![CDATA[
document.addEventListener('DOMContentLoaded', (event) => {
  highlightEdges();
  highlightAdjacentNodes();
});
]]></script>
</svg>
