<?xml version="1.0" encoding="UTF-8" standalone="no"?>
<!DOCTYPE svg PUBLIC "-//W3C//DTD SVG 1.1//EN"
 "http://www.w3.org/Graphics/SVG/1.1/DTD/svg11.dtd">
<!-- Generated by graphviz version 2.43.0 (0)
 -->
<!-- Title: helios::core::ecs::TypedHandleWorld::entityManager Pages: 1 -->
<svg width="389pt" height="134pt"
 viewBox="0.00 0.00 389.00 134.00" xmlns="http://www.w3.org/2000/svg" xmlns:xlink="http://www.w3.org/1999/xlink">
<g id="graph0" class="graph" transform="scale(1 1) rotate(0) translate(4 130)">
<title>helios::core::ecs::TypedHandleWorld::entityManager</title>
<!-- Node1 -->
<g id="Node000001" class="node">
<title>Node1</title>
<g id="a_Node000001"><a xlink:title="Returns a reference to the EntityManager that owns handles of type `THandle`.">
<polygon fill="#999999" stroke="#666666" points="381,-78 196,-78 196,-48 381,-48 381,-78"/>
<text text-anchor="start" x="204" y="-66" font-family="Helvetica,sans-Serif" font-size="10.00">helios::core::ecs::</text>
<text text-anchor="middle" x="288.5" y="-55" font-family="Helvetica,sans-Serif" font-size="10.00">TypedHandleWorld::entityManager</text>
</a>
</g>
</g>
<!-- Node2 -->
<g id="Node000002" class="node">
<title>Node2</title>
<g id="a_Node000002"><a xlink:href="classhelios_1_1core_1_1ecs_1_1TypedHandleWorld.html#a284afbf6b7beac39dd1128b42942c93f" target="_top" xlink:title="Creates a new entity in the domain identified by `THandle`.">
<polygon fill="white" stroke="#666666" points="160,-126 0,-126 0,-96 160,-96 160,-126"/>
<text text-anchor="start" x="8" y="-114" font-family="Helvetica,sans-Serif" font-size="10.00">helios::core::ecs::</text>
<text text-anchor="middle" x="80" y="-103" font-family="Helvetica,sans-Serif" font-size="10.00">TypedHandleWorld::addEntity</text>
</a>
</g>
</g>
<!-- Node1&#45;&gt;Node2 -->
<g id="edge1_Node000001_Node000002" class="edge">
<title>Node1&#45;&gt;Node2</title>
<g id="a_edge1_Node000001_Node000002"><a xlink:title=" ">
<path fill="none" stroke="#63b8ff" d="M212.76,-80.37C190.75,-85.49 166.86,-91.04 145.54,-96"/>
<polygon fill="#63b8ff" stroke="#63b8ff" points="213.78,-83.73 222.73,-78.06 212.2,-76.91 213.78,-83.73"/>
</a>
</g>
</g>
<!-- Node3 -->
<g id="Node000003" class="node">
<title>Node3</title>
<g id="a_Node000003"><a xlink:href="classhelios_1_1core_1_1ecs_1_1TypedHandleWorld.html#a87d73dd5775c92bd5e266e438dc0fab1" target="_top" xlink:title="Looks up an existing entity by its handle.">
<polygon fill="white" stroke="#666666" points="160,-78 0,-78 0,-48 160,-48 160,-78"/>
<text text-anchor="start" x="8" y="-66" font-family="Helvetica,sans-Serif" font-size="10.00">helios::core::ecs::</text>
<text text-anchor="middle" x="80" y="-55" font-family="Helvetica,sans-Serif" font-size="10.00">TypedHandleWorld::findEntity</text>
</a>
</g>
</g>
<!-- Node1&#45;&gt;Node3 -->
<g id="edge2_Node000001_Node000003" class="edge">
<title>Node1&#45;&gt;Node3</title>
<g id="a_edge2_Node000001_Node000003"><a xlink:title=" ">
<path fill="none" stroke="#63b8ff" d="M185.69,-63C177.13,-63 168.55,-63 160.2,-63"/>
<polygon fill="#63b8ff" stroke="#63b8ff" points="185.72,-66.5 195.72,-63 185.72,-59.5 185.72,-66.5"/>
</a>
</g>
</g>
<!-- Node4 -->
<g id="Node000004" class="node">
<title>Node4</title>
<g id="a_Node000004"><a xlink:href="classhelios_1_1core_1_1ecs_1_1TypedHandleWorld.html#abc265f473afcc16da88add28a3379a63" target="_top" xlink:title="Creates a `View` for iterating entities with specific components.">
<polygon fill="white" stroke="#666666" points="148.5,-30 11.5,-30 11.5,0 148.5,0 148.5,-30"/>
<text text-anchor="start" x="19.5" y="-18" font-family="Helvetica,sans-Serif" font-size="10.00">helios::core::ecs::</text>
<text text-anchor="middle" x="80" y="-7" font-family="Helvetica,sans-Serif" font-size="10.00">TypedHandleWorld::view</text>
</a>
</g>
</g>
<!-- Node1&#45;&gt;Node4 -->
<g id="edge3_Node000001_Node000004" class="edge">
<title>Node1&#45;&gt;Node4</title>
<g id="a_edge3_Node000001_Node000004"><a xlink:title=" ">
<path fill="none" stroke="#63b8ff" d="M212.76,-45.63C190.75,-40.51 166.86,-34.96 145.54,-30"/>
<polygon fill="#63b8ff" stroke="#63b8ff" points="212.2,-49.09 222.73,-47.94 213.78,-42.27 212.2,-49.09"/>
</a>
</g>
</g>
</g>
</svg>
