<?xml version="1.0" encoding="UTF-8" standalone="no"?>
<!DOCTYPE svg PUBLIC "-//W3C//DTD SVG 1.1//EN"
 "http://www.w3.org/Graphics/SVG/1.1/DTD/svg11.dtd">
<!-- Generated by graphviz version 2.43.0 (0)
 -->
<!-- Title: helios::engine::runtime::spawn::SpawnManager Pages: 1 -->
<svg width="982pt" height="113pt"
 viewBox="0.00 0.00 982.00 113.00" xmlns="http://www.w3.org/2000/svg" xmlns:xlink="http://www.w3.org/1999/xlink">
<g id="graph0" class="graph" transform="scale(1 1) rotate(0) translate(4 109)">
<title>helios::engine::runtime::spawn::SpawnManager</title>
<!-- Node1 -->
<g id="Node000001" class="node">
<title>Node1</title>
<g id="a_Node000001"><a xlink:title="Manager for processing spawn and despawn commands.">
<polygon fill="#999999" stroke="#666666" points="974,-42 839,-42 839,-12 974,-12 974,-42"/>
<text text-anchor="start" x="847" y="-30" font-family="Helvetica,sans-Serif" font-size="10.00">helios::engine::runtime</text>
<text text-anchor="middle" x="906.5" y="-19" font-family="Helvetica,sans-Serif" font-size="10.00">::spawn::SpawnManager</text>
</a>
</g>
</g>
<!-- Node2 -->
<g id="Node000002" class="node">
<title>Node2</title>
<g id="a_Node000002"><a xlink:href="classhelios_1_1engine_1_1runtime_1_1world_1_1Manager.html" target="_top" xlink:title="Abstract base class for managers that process deferred operations.">
<polygon fill="white" stroke="#666666" points="776,-78 647,-78 647,-48 776,-48 776,-78"/>
<text text-anchor="start" x="655" y="-66" font-family="Helvetica,sans-Serif" font-size="10.00">helios::engine::runtime</text>
<text text-anchor="middle" x="711.5" y="-55" font-family="Helvetica,sans-Serif" font-size="10.00">::world::Manager</text>
</a>
</g>
</g>
<!-- Node2&#45;&gt;Node1 -->
<g id="edge1_Node000001_Node000002" class="edge">
<title>Node2&#45;&gt;Node1</title>
<g id="a_edge1_Node000001_Node000002"><a xlink:title=" ">
<path fill="none" stroke="#63b8ff" d="M786.28,-49.24C803.57,-46.01 821.9,-42.59 838.86,-39.43"/>
<polygon fill="#63b8ff" stroke="#63b8ff" points="785.42,-45.84 776.23,-51.11 786.7,-52.72 785.42,-45.84"/>
</a>
</g>
</g>
<!-- Node3 -->
<g id="Node000003" class="node">
<title>Node3</title>
<g id="a_Node000003"><a xlink:href="classhelios_1_1engine_1_1runtime_1_1world_1_1GameWorld.html" target="_top" xlink:title="Central registry for game entities, managers, pools, and the active level.">
<polygon fill="white" stroke="#666666" points="518,-78 389,-78 389,-48 518,-48 518,-78"/>
<text text-anchor="start" x="397" y="-66" font-family="Helvetica,sans-Serif" font-size="10.00">helios::engine::runtime</text>
<text text-anchor="middle" x="453.5" y="-55" font-family="Helvetica,sans-Serif" font-size="10.00">::world::GameWorld</text>
</a>
</g>
</g>
<!-- Node3&#45;&gt;Node2 -->
<g id="edge2_Node000002_Node000003" class="edge">
<title>Node3&#45;&gt;Node2</title>
<g id="a_edge2_Node000002_Node000003"><a xlink:title=" ">
<path fill="none" stroke="#9a32cd" stroke-dasharray="5,2" d="M528.45,-63C565.89,-63 610.88,-63 646.77,-63"/>
<polygon fill="#9a32cd" stroke="#9a32cd" points="528.11,-59.5 518.11,-63 528.11,-66.5 528.11,-59.5"/>
</a>
</g>
<text text-anchor="start" x="539.5" y="-68.5" font-family="Helvetica,sans-Serif" font-size="10.00" fill="grey">gameWorld_</text>
</g>
<!-- Node4 -->
<g id="Node000004" class="node">
<title>Node4</title>
<g id="a_Node000004"><a xlink:href="classhelios_1_1util_1_1log_1_1Logger.html" target="_top" xlink:title="Logger implementation with configurable output sinks.">
<polygon fill="white" stroke="#666666" points="138,-105 43,-105 43,-75 138,-75 138,-105"/>
<text text-anchor="start" x="51" y="-93" font-family="Helvetica,sans-Serif" font-size="10.00">helios::util::log::</text>
<text text-anchor="middle" x="90.5" y="-82" font-family="Helvetica,sans-Serif" font-size="10.00">Logger</text>
</a>
</g>
</g>
<!-- Node4&#45;&gt;Node3 -->
<g id="edge3_Node000003_Node000004" class="edge">
<title>Node4&#45;&gt;Node3</title>
<g id="a_edge3_Node000003_Node000004"><a xlink:title=" ">
<path fill="none" stroke="#9a32cd" stroke-dasharray="5,2" d="M148.44,-85.74C213.78,-80.85 320.65,-72.86 388.73,-67.77"/>
<polygon fill="#9a32cd" stroke="#9a32cd" points="148.04,-82.26 138.32,-86.5 148.56,-89.24 148.04,-82.26"/>
</a>
</g>
<text text-anchor="start" x="267" y="-86.5" font-family="Helvetica,sans-Serif" font-size="10.00" fill="grey">logger_</text>
</g>
<!-- Node5 -->
<g id="Node000005" class="node">
<title>Node5</title>
<g id="a_Node000005"><a xlink:href="classhelios_1_1engine_1_1runtime_1_1spawn_1_1SpawnCommandHandlerRegistry.html" target="_top" xlink:title="Registry that maps SpawnProfileIds to their SpawnCommandHandlers.">
<polygon fill="white" stroke="#666666" points="181,-56.5 0,-56.5 0,-15.5 181,-15.5 181,-56.5"/>
<text text-anchor="start" x="8" y="-44.5" font-family="Helvetica,sans-Serif" font-size="10.00">helios::engine::runtime</text>
<text text-anchor="start" x="8" y="-33.5" font-family="Helvetica,sans-Serif" font-size="10.00">::spawn::SpawnCommandHandler</text>
<text text-anchor="middle" x="90.5" y="-22.5" font-family="Helvetica,sans-Serif" font-size="10.00">Registry</text>
</a>
</g>
</g>
<!-- Node5&#45;&gt;Node3 -->
<g id="edge4_Node000003_Node000005" class="edge">
<title>Node5&#45;&gt;Node3</title>
<g id="a_edge4_Node000003_Node000005"><a xlink:title=" ">
<path fill="none" stroke="#9a32cd" stroke-dasharray="5,2" d="M191.28,-36.92C244.72,-38.26 311.6,-41.29 371,-48 376.72,-48.65 382.64,-49.46 388.56,-50.36"/>
<polygon fill="#9a32cd" stroke="#9a32cd" points="191.2,-33.42 181.12,-36.68 191.03,-40.42 191.2,-33.42"/>
</a>
</g>
<text text-anchor="start" x="202" y="-53.5" font-family="Helvetica,sans-Serif" font-size="10.00" fill="grey">spawnCommandHandlerRegistry_</text>
</g>
<!-- Node6 -->
<g id="Node000006" class="node">
<title>Node6</title>
<g id="a_Node000006"><a xlink:href="classhelios_1_1engine_1_1runtime_1_1spawn_1_1SpawnCommandHandler.html" target="_top" xlink:title="Interface for handlers that process spawn and despawn commands.">
<polygon fill="white" stroke="#666666" points="802,-30 621,-30 621,0 802,0 802,-30"/>
<text text-anchor="start" x="629" y="-18" font-family="Helvetica,sans-Serif" font-size="10.00">helios::engine::runtime</text>
<text text-anchor="middle" x="711.5" y="-7" font-family="Helvetica,sans-Serif" font-size="10.00">::spawn::SpawnCommandHandler</text>
</a>
</g>
</g>
<!-- Node6&#45;&gt;Node1 -->
<g id="edge5_Node000001_Node000006" class="edge">
<title>Node6&#45;&gt;Node1</title>
<g id="a_edge5_Node000001_Node000006"><a xlink:title=" ">
<path fill="none" stroke="#63b8ff" d="M812.33,-21.21C821.29,-21.76 830.2,-22.32 838.77,-22.85"/>
<polygon fill="#63b8ff" stroke="#63b8ff" points="812.42,-17.71 802.22,-20.58 811.98,-24.69 812.42,-17.71"/>
</a>
</g>
</g>
</g>
</svg>
