<?xml version="1.0" encoding="UTF-8" standalone="no"?>
<!DOCTYPE svg PUBLIC "-//W3C//DTD SVG 1.1//EN"
 "http://www.w3.org/Graphics/SVG/1.1/DTD/svg11.dtd">
<!-- Generated by graphviz version 2.43.0 (0)
 -->
<!-- Title: CloneableComponent.ixx Pages: 1 -->
<svg width="409pt" height="258pt"
 viewBox="0.00 0.00 408.84 258.00" xmlns="http://www.w3.org/2000/svg" xmlns:xlink="http://www.w3.org/1999/xlink">
<g id="graph0" class="graph" transform="scale(1 1) rotate(0) translate(4 254)">
<title>CloneableComponent.ixx</title>
<!-- Node1 -->
<g id="Node000001" class="node">
<title>Node1</title>
<g id="a_Node000001"><a xlink:title="Base class for cloneable components attached to GameObjects.">
<polygon fill="#999999" stroke="#666666" points="163.84,-250 23.84,-250 23.84,-231 163.84,-231 163.84,-250"/>
<text text-anchor="middle" x="93.84" y="-238" font-family="Helvetica,sans-Serif" font-size="10.00">CloneableComponent.ixx</text>
</a>
</g>
</g>
<!-- Node2 -->
<g id="Node000002" class="node">
<title>Node2</title>
<g id="a_Node000002"><a xlink:title=" ">
<polygon fill="#e0e0e0" stroke="#999999" points="65.84,-134.5 7.84,-134.5 7.84,-115.5 65.84,-115.5 65.84,-134.5"/>
<text text-anchor="middle" x="36.84" y="-122.5" font-family="Helvetica,sans-Serif" font-size="10.00">memory</text>
</a>
</g>
</g>
<!-- Node1&#45;&gt;Node2 -->
<g id="edge1_Node000001_Node000002" class="edge">
<title>Node1&#45;&gt;Node2</title>
<g id="a_edge1_Node000001_Node000002"><a xlink:title=" ">
<path fill="none" stroke="#63b8ff" d="M55.83,-230.85C36.72,-224.37 15.25,-213.36 3.84,-195 -6.82,-177.84 6.85,-156.7 19.69,-142.38"/>
<polygon fill="#63b8ff" stroke="#63b8ff" points="22.56,-144.45 26.97,-134.82 17.51,-139.6 22.56,-144.45"/>
</a>
</g>
</g>
<!-- Node3 -->
<g id="Node000003" class="node">
<title>Node3</title>
<g id="a_Node000003"><a xlink:href="ComponentTypeId_8ixx.html" target="_top" xlink:title="Compile&#45;time type identifier for component types.">
<polygon fill="white" stroke="#666666" points="243.84,-140 109.84,-140 109.84,-110 243.84,-110 243.84,-140"/>
<text text-anchor="start" x="117.84" y="-128" font-family="Helvetica,sans-Serif" font-size="10.00">helios.engine.core.data.</text>
<text text-anchor="middle" x="176.84" y="-117" font-family="Helvetica,sans-Serif" font-size="10.00">ComponentTypeId</text>
</a>
</g>
</g>
<!-- Node1&#45;&gt;Node3 -->
<g id="edge2_Node000001_Node000003" class="edge">
<title>Node1&#45;&gt;Node3</title>
<g id="a_edge2_Node000001_Node000003"><a xlink:title=" ">
<path fill="none" stroke="#63b8ff" d="M131.86,-230.85C150.97,-224.37 172.44,-213.36 183.84,-195 192.18,-181.58 190.13,-163.8 186.16,-149.65"/>
<polygon fill="#63b8ff" stroke="#63b8ff" points="189.47,-148.52 183.04,-140.1 182.82,-150.69 189.47,-148.52"/>
</a>
</g>
</g>
<!-- Node8 -->
<g id="Node000008" class="node">
<title>Node8</title>
<g id="a_Node000008"><a xlink:href="Component_8ixx.html" target="_top" xlink:title="Base class for components attached to GameObjects.">
<polygon fill="white" stroke="#666666" points="174.34,-195 13.34,-195 13.34,-176 174.34,-176 174.34,-195"/>
<text text-anchor="middle" x="93.84" y="-183" font-family="Helvetica,sans-Serif" font-size="10.00">helios.engine.ecs.Component</text>
</a>
</g>
</g>
<!-- Node1&#45;&gt;Node8 -->
<g id="edge7_Node000001_Node000008" class="edge">
<title>Node1&#45;&gt;Node8</title>
<g id="a_edge7_Node000001_Node000008"><a xlink:title=" ">
<path fill="none" stroke="#63b8ff" d="M93.84,-230.75C93.84,-223.8 93.84,-213.85 93.84,-205.13"/>
<polygon fill="#63b8ff" stroke="#63b8ff" points="97.34,-205.09 93.84,-195.09 90.34,-205.09 97.34,-205.09"/>
</a>
</g>
</g>
<!-- Node4 -->
<g id="Node000004" class="node">
<title>Node4</title>
<g id="a_Node000004"><a xlink:title=" ">
<polygon fill="#e0e0e0" stroke="#999999" points="108.34,-74 43.34,-74 43.34,-55 108.34,-55 108.34,-74"/>
<text text-anchor="middle" x="75.84" y="-62" font-family="Helvetica,sans-Serif" font-size="10.00">functional</text>
</a>
</g>
</g>
<!-- Node3&#45;&gt;Node4 -->
<g id="edge3_Node000003_Node000004" class="edge">
<title>Node3&#45;&gt;Node4</title>
<g id="a_edge3_Node000003_Node000004"><a xlink:title=" ">
<path fill="none" stroke="#63b8ff" d="M152.65,-109.99C136.55,-100.66 115.5,-88.47 99.51,-79.21"/>
<polygon fill="#63b8ff" stroke="#63b8ff" points="101.17,-76.12 90.76,-74.14 97.66,-82.18 101.17,-76.12"/>
</a>
</g>
</g>
<!-- Node5 -->
<g id="Node000005" class="node">
<title>Node5</title>
<g id="a_Node000005"><a xlink:href="types_8ixx.html" target="_top" xlink:title="Core type definitions and tag types for the helios engine.">
<polygon fill="white" stroke="#666666" points="226.84,-74 126.84,-74 126.84,-55 226.84,-55 226.84,-74"/>
<text text-anchor="middle" x="176.84" y="-62" font-family="Helvetica,sans-Serif" font-size="10.00">helios.core.types</text>
</a>
</g>
</g>
<!-- Node3&#45;&gt;Node5 -->
<g id="edge4_Node000003_Node000005" class="edge">
<title>Node3&#45;&gt;Node5</title>
<g id="a_edge4_Node000003_Node000005"><a xlink:title=" ">
<path fill="none" stroke="#63b8ff" d="M176.84,-109.84C176.84,-102.21 176.84,-92.7 176.84,-84.45"/>
<polygon fill="#63b8ff" stroke="#63b8ff" points="180.34,-84.27 176.84,-74.27 173.34,-84.27 180.34,-84.27"/>
</a>
</g>
</g>
<!-- Node6 -->
<g id="Node000006" class="node">
<title>Node6</title>
<g id="a_Node000006"><a xlink:href="TypeIndexer_8ixx.html" target="_top" xlink:title="Utility for generating unique type indices at runtime.">
<polygon fill="white" stroke="#666666" points="400.84,-74 244.84,-74 244.84,-55 400.84,-55 400.84,-74"/>
<text text-anchor="middle" x="322.84" y="-62" font-family="Helvetica,sans-Serif" font-size="10.00">helios.core.data.TypeIndexer</text>
</a>
</g>
</g>
<!-- Node3&#45;&gt;Node6 -->
<g id="edge5_Node000003_Node000006" class="edge">
<title>Node3&#45;&gt;Node6</title>
<g id="a_edge5_Node000003_Node000006"><a xlink:title=" ">
<path fill="none" stroke="#63b8ff" d="M211.81,-109.99C236.17,-100.23 268.37,-87.33 291.82,-77.93"/>
<polygon fill="#63b8ff" stroke="#63b8ff" points="293.3,-81.11 301.28,-74.14 290.7,-74.61 293.3,-81.11"/>
</a>
</g>
</g>
<!-- Node7 -->
<g id="Node000007" class="node">
<title>Node7</title>
<g id="a_Node000007"><a xlink:title=" ">
<polygon fill="#e0e0e0" stroke="#999999" points="347.84,-19 297.84,-19 297.84,0 347.84,0 347.84,-19"/>
<text text-anchor="middle" x="322.84" y="-7" font-family="Helvetica,sans-Serif" font-size="10.00">atomic</text>
</a>
</g>
</g>
<!-- Node6&#45;&gt;Node7 -->
<g id="edge6_Node000006_Node000007" class="edge">
<title>Node6&#45;&gt;Node7</title>
<g id="a_edge6_Node000006_Node000007"><a xlink:title=" ">
<path fill="none" stroke="#63b8ff" d="M322.84,-54.75C322.84,-47.8 322.84,-37.85 322.84,-29.13"/>
<polygon fill="#63b8ff" stroke="#63b8ff" points="326.34,-29.09 322.84,-19.09 319.34,-29.09 326.34,-29.09"/>
</a>
</g>
</g>
<!-- Node8&#45;&gt;Node2 -->
<g id="edge8_Node000008_Node000002" class="edge">
<title>Node8&#45;&gt;Node2</title>
<g id="a_edge8_Node000008_Node000002"><a xlink:title=" ">
<path fill="none" stroke="#63b8ff" d="M85.43,-175.87C76.76,-166.97 63.04,-152.89 52.39,-141.95"/>
<polygon fill="#63b8ff" stroke="#63b8ff" points="54.77,-139.39 45.29,-134.67 49.76,-144.27 54.77,-139.39"/>
</a>
</g>
</g>
<!-- Node8&#45;&gt;Node3 -->
<g id="edge9_Node000008_Node000003" class="edge">
<title>Node8&#45;&gt;Node3</title>
<g id="a_edge9_Node000008_Node000003"><a xlink:title=" ">
<path fill="none" stroke="#63b8ff" d="M106.09,-175.87C117.25,-168 134.15,-156.09 148.63,-145.89"/>
<polygon fill="#63b8ff" stroke="#63b8ff" points="150.66,-148.74 156.82,-140.11 146.63,-143.01 150.66,-148.74"/>
</a>
</g>
</g>
</g>
</svg>
