<?xml version="1.0" encoding="UTF-8" standalone="no"?>
<!DOCTYPE svg PUBLIC "-//W3C//DTD SVG 1.1//EN"
 "http://www.w3.org/Graphics/SVG/1.1/DTD/svg11.dtd">
<!-- Generated by graphviz version 2.43.0 (0)
 -->
<!-- Title: ComponentOpsRegistry.ixx Pages: 1 -->
<!--zoomable 390 -->

<svg id="main" version="1.1" xmlns="http://www.w3.org/2000/svg" xmlns:xlink="http://www.w3.org/1999/xlink" xml:space="preserve" onload="init(evt)">

<style type="text/css"><![CDATA[
.node, .edge {opacity: 0.7;}
.node.selected, .edge.selected {opacity: 1;}
.edge:hover path { stroke: red; }
.edge:hover polygon { stroke: red; fill: red; }
]]></style>

<defs>
  <circle id="rim" cx="0" cy="0" r="7"/>
  <circle id="rim2" cx="0" cy="0" r="3.5"/>
  <g id="zoomPlus">
    <use xlink:href="#rim" fill="#404040"><set attributeName="fill" to="#808080" begin="zoomplus.mouseover" end="zoomplus.mouseout"/></use>
    <path d="M-4,0h8M0,-4v8" fill="none" stroke="white" stroke-width="1.5" pointer-events="none"/>
  </g>
  <g id="zoomMin">
    <use xlink:href="#rim" fill="#404040"><set attributeName="fill" to="#808080" begin="zoomminus.mouseover" end="zoomminus.mouseout"/></use>
    <path d="M-4,0h8" fill="none" stroke="white" stroke-width="1.5" pointer-events="none"/>
  </g>
  <g id="arrowUp" transform="translate(30 24)">
    <use xlink:href="#rim"/>
    <path pointer-events="none" fill="none" stroke="white" stroke-width="1.5" d="M0,-3.0v7 M-2.5,-0.5L0,-3.0L2.5,-0.5"/>
  </g>
  <g id="arrowRight" transform="rotate(90) translate(36 -43)">
    <use xlink:href="#rim"/>
    <path pointer-events="none" fill="none" stroke="white" stroke-width="1.5" d="M0,-3.0v7 M-2.5,-0.5L0,-3.0L2.5,-0.5"/>
  </g>
  <g id="arrowDown" transform="rotate(180) translate(-30 -48)">
    <use xlink:href="#rim"/>
    <path pointer-events="none" fill="none" stroke="white" stroke-width="1.5" d="M0,-3.0v7 M-2.5,-0.5L0,-3.0L2.5,-0.5"/>
  </g>
  <g id="arrowLeft" transform="rotate(270) translate(-36 17)">
    <use xlink:href="#rim"/>
    <path pointer-events="none" fill="none" stroke="white" stroke-width="1.5" d="M0,-3.0v7 M-2.5,-0.5L0,-3.0L2.5,-0.5"/>
  </g>
  <g id="resetDef">
    <use xlink:href="#rim2" fill="#404040"><set attributeName="fill" to="#808080" begin="reset.mouseover" end="reset.mouseout"/></use>
  </g>
</defs>
<script type="application/ecmascript">
var viewWidth = 2032;
var viewHeight = 390;
var sectionId = 'dynsection-0';
</script>
<script type="application/ecmascript" xlink:href="svg.min.js"/>
<svg id="graph" class="graph">
<g id="viewport">
<title>ComponentOpsRegistry.ixx</title>
<!-- Node1 -->
<g id="Node000001" class="node">
<title>Node1</title>
<g id="a_Node000001"><a xlink:title="Global registry mapping ComponentTypeId to ComponentOps.">
<polygon fill="#999999" stroke="#666666" points="268,-382 119,-382 119,-363 268,-363 268,-382"/>
<text text-anchor="middle" x="193.5" y="-370" font-family="Helvetica,sans-Serif" font-size="10.00">ComponentOpsRegistry.ixx</text>
</a>
</g>
</g>
<!-- Node2 -->
<g id="Node000002" class="node">
<title>Node2</title>
<g id="a_Node000002"><a xlink:title=" ">
<polygon fill="#e0e0e0" stroke="#999999" points="47,-327 0,-327 0,-308 47,-308 47,-327"/>
<text text-anchor="middle" x="23.5" y="-315" font-family="Helvetica,sans-Serif" font-size="10.00">vector</text>
</a>
</g>
</g>
<!-- Node1&#45;&gt;Node2 -->
<g id="edge1_Node000001_Node000002" class="edge">
<title>Node1&#45;&gt;Node2</title>
<g id="a_edge1_Node000001_Node000002"><a xlink:title=" ">
<path fill="none" stroke="#63b8ff" d="M166.19,-362.98C136.46,-353.72 88.91,-338.89 56.96,-328.93"/>
<polygon fill="#63b8ff" stroke="#63b8ff" points="57.77,-325.52 47.18,-325.88 55.69,-332.2 57.77,-325.52"/>
</a>
</g>
</g>
<!-- Node3 -->
<g id="Node000003" class="node">
<title>Node3</title>
<g id="a_Node000003"><a xlink:href="ComponentTypeId_8ixx.html" target="_top" xlink:title="Compile&#45;time type identifier for component types.">
<polygon fill="white" stroke="#666666" points="275.5,-151 141.5,-151 141.5,-121 275.5,-121 275.5,-151"/>
<text text-anchor="start" x="149.5" y="-139" font-family="Helvetica,sans-Serif" font-size="10.00">helios.engine.core.data.</text>
<text text-anchor="middle" x="208.5" y="-128" font-family="Helvetica,sans-Serif" font-size="10.00">ComponentTypeId</text>
</a>
</g>
</g>
<!-- Node1&#45;&gt;Node3 -->
<g id="edge2_Node000001_Node000003" class="edge">
<title>Node1&#45;&gt;Node3</title>
<g id="a_edge2_Node000001_Node000003"><a xlink:title=" ">
<path fill="none" stroke="#63b8ff" d="M148.74,-362.92C128.55,-356.58 106.58,-345.67 94.5,-327 89.91,-319.91 92.05,-316.08 94.5,-308 112.72,-247.81 159.89,-189.45 187.51,-158.92"/>
<polygon fill="#63b8ff" stroke="#63b8ff" points="190.21,-161.15 194.41,-151.43 185.06,-156.41 190.21,-161.15"/>
</a>
</g>
</g>
<!-- Node8 -->
<g id="Node000008" class="node">
<title>Node8</title>
<g id="a_Node000008"><a xlink:href="Traits_8ixx.html" target="_top" xlink:title="Compile&#45;time traits for ECS component lifecycle hooks.">
<polygon fill="white" stroke="#666666" points="471,-327 340,-327 340,-308 471,-308 471,-327"/>
<text text-anchor="middle" x="405.5" y="-315" font-family="Helvetica,sans-Serif" font-size="10.00">helios.engine.ecs.Traits</text>
</a>
</g>
</g>
<!-- Node1&#45;&gt;Node8 -->
<g id="edge7_Node000001_Node000008" class="edge">
<title>Node1&#45;&gt;Node8</title>
<g id="a_edge7_Node000001_Node000008"><a xlink:title=" ">
<path fill="none" stroke="#63b8ff" d="M227.56,-362.98C263.92,-353.89 321.67,-339.46 361.47,-329.51"/>
<polygon fill="#63b8ff" stroke="#63b8ff" points="362.32,-332.9 371.17,-327.08 360.62,-326.11 362.32,-332.9"/>
</a>
</g>
</g>
<!-- Node10 -->
<g id="Node000010" class="node">
<title>Node10</title>
<g id="a_Node000010"><a xlink:href="ComponentOps_8ixx.html" target="_top" xlink:title="Function pointer structure for type&#45;erased component lifecycle callbacks.">
<polygon fill="white" stroke="#666666" points="283,-327 104,-327 104,-308 283,-308 283,-327"/>
<text text-anchor="middle" x="193.5" y="-315" font-family="Helvetica,sans-Serif" font-size="10.00">helios.engine.ecs.ComponentOps</text>
</a>
</g>
</g>
<!-- Node1&#45;&gt;Node10 -->
<g id="edge9_Node000001_Node000010" class="edge">
<title>Node1&#45;&gt;Node10</title>
<g id="a_edge9_Node000001_Node000010"><a xlink:title=" ">
<path fill="none" stroke="#63b8ff" d="M193.5,-362.75C193.5,-355.8 193.5,-345.85 193.5,-337.13"/>
<polygon fill="#63b8ff" stroke="#63b8ff" points="197,-337.09 193.5,-327.09 190,-337.09 197,-337.09"/>
</a>
</g>
</g>
<!-- Node11 -->
<g id="Node000011" class="node">
<title>Node11</title>
<g id="a_Node000011"><a xlink:href="EntityHandle_8ixx.html" target="_top" xlink:title="Versioned handle for referencing entities in an EntityPool.">
<polygon fill="white" stroke="#666666" points="308,-272 175,-272 175,-242 308,-242 308,-272"/>
<text text-anchor="start" x="183" y="-260" font-family="Helvetica,sans-Serif" font-size="10.00">helios.engine.ecs.Entity</text>
<text text-anchor="middle" x="241.5" y="-249" font-family="Helvetica,sans-Serif" font-size="10.00">Handle</text>
</a>
</g>
</g>
<!-- Node1&#45;&gt;Node11 -->
<g id="edge69_Node000001_Node000011" class="edge">
<title>Node1&#45;&gt;Node11</title>
<g id="a_edge69_Node000001_Node000011"><a xlink:title=" ">
<path fill="none" stroke="#63b8ff" d="M238.26,-362.92C258.45,-356.58 280.42,-345.67 292.5,-327 303.42,-310.12 288.66,-291.87 272.26,-278.38"/>
<polygon fill="#63b8ff" stroke="#63b8ff" points="274.24,-275.49 264.18,-272.17 269.97,-281.04 274.24,-275.49"/>
</a>
</g>
</g>
<!-- Node4 -->
<g id="Node000004" class="node">
<title>Node4</title>
<g id="a_Node000004"><a xlink:title=" ">
<polygon fill="#e0e0e0" stroke="#999999" points="241,-79.5 176,-79.5 176,-60.5 241,-60.5 241,-79.5"/>
<text text-anchor="middle" x="208.5" y="-67.5" font-family="Helvetica,sans-Serif" font-size="10.00">functional</text>
</a>
</g>
</g>
<!-- Node3&#45;&gt;Node4 -->
<g id="edge3_Node000003_Node000004" class="edge">
<title>Node3&#45;&gt;Node4</title>
<g id="a_edge3_Node000003_Node000004"><a xlink:title=" ">
<path fill="none" stroke="#63b8ff" d="M208.5,-120.8C208.5,-111.7 208.5,-99.79 208.5,-89.9"/>
<polygon fill="#63b8ff" stroke="#63b8ff" points="212,-89.84 208.5,-79.84 205,-89.84 212,-89.84"/>
</a>
</g>
</g>
<!-- Node5 -->
<g id="Node000005" class="node">
<title>Node5</title>
<g id="a_Node000005"><a xlink:href="types_8ixx.html" target="_top" xlink:title="Core type definitions and tag types for the helios engine.">
<polygon fill="white" stroke="#666666" points="896.5,-79.5 796.5,-79.5 796.5,-60.5 896.5,-60.5 896.5,-79.5"/>
<text text-anchor="middle" x="846.5" y="-67.5" font-family="Helvetica,sans-Serif" font-size="10.00">helios.core.types</text>
</a>
</g>
</g>
<!-- Node3&#45;&gt;Node5 -->
<g id="edge4_Node000003_Node000005" class="edge">
<title>Node3&#45;&gt;Node5</title>
<g id="a_edge4_Node000003_Node000005"><a xlink:title=" ">
<path fill="none" stroke="#63b8ff" d="M275.58,-122.29C278.59,-121.83 281.58,-121.4 284.5,-121 466.31,-96.22 682.95,-80.93 786.11,-74.52"/>
<polygon fill="#63b8ff" stroke="#63b8ff" points="786.56,-77.99 796.33,-73.89 786.13,-71.01 786.56,-77.99"/>
</a>
</g>
</g>
<!-- Node6 -->
<g id="Node000006" class="node">
<title>Node6</title>
<g id="a_Node000006"><a xlink:href="TypeIndexer_8ixx.html" target="_top" xlink:title="Utility for generating unique type indices at runtime.">
<polygon fill="white" stroke="#666666" points="427.5,-79.5 271.5,-79.5 271.5,-60.5 427.5,-60.5 427.5,-79.5"/>
<text text-anchor="middle" x="349.5" y="-67.5" font-family="Helvetica,sans-Serif" font-size="10.00">helios.core.data.TypeIndexer</text>
</a>
</g>
</g>
<!-- Node3&#45;&gt;Node6 -->
<g id="edge5_Node000003_Node000006" class="edge">
<title>Node3&#45;&gt;Node6</title>
<g id="a_edge5_Node000003_Node000006"><a xlink:title=" ">
<path fill="none" stroke="#63b8ff" d="M239.44,-120.95C263.95,-109.83 297.89,-94.42 321.58,-83.67"/>
<polygon fill="#63b8ff" stroke="#63b8ff" points="323.08,-86.84 330.74,-79.52 320.18,-80.46 323.08,-86.84"/>
</a>
</g>
</g>
<!-- Node7 -->
<g id="Node000007" class="node">
<title>Node7</title>
<g id="a_Node000007"><a xlink:title=" ">
<polygon fill="#e0e0e0" stroke="#999999" points="374.5,-19 324.5,-19 324.5,0 374.5,0 374.5,-19"/>
<text text-anchor="middle" x="349.5" y="-7" font-family="Helvetica,sans-Serif" font-size="10.00">atomic</text>
</a>
</g>
</g>
<!-- Node6&#45;&gt;Node7 -->
<g id="edge6_Node000006_Node000007" class="edge">
<title>Node6&#45;&gt;Node7</title>
<g id="a_edge6_Node000006_Node000007"><a xlink:title=" ">
<path fill="none" stroke="#63b8ff" d="M349.5,-60.37C349.5,-52.25 349.5,-39.81 349.5,-29.39"/>
<polygon fill="#63b8ff" stroke="#63b8ff" points="353,-29.17 349.5,-19.17 346,-29.17 353,-29.17"/>
</a>
</g>
</g>
<!-- Node9 -->
<g id="Node000009" class="node">
<title>Node9</title>
<g id="a_Node000009"><a xlink:title=" ">
<polygon fill="#e0e0e0" stroke="#999999" points="435.5,-266.5 375.5,-266.5 375.5,-247.5 435.5,-247.5 435.5,-266.5"/>
<text text-anchor="middle" x="405.5" y="-254.5" font-family="Helvetica,sans-Serif" font-size="10.00">concepts</text>
</a>
</g>
</g>
<!-- Node8&#45;&gt;Node9 -->
<g id="edge8_Node000008_Node000009" class="edge">
<title>Node8&#45;&gt;Node9</title>
<g id="a_edge8_Node000008_Node000009"><a xlink:title=" ">
<path fill="none" stroke="#63b8ff" d="M405.5,-307.87C405.5,-299.75 405.5,-287.31 405.5,-276.89"/>
<polygon fill="#63b8ff" stroke="#63b8ff" points="409,-276.67 405.5,-266.67 402,-276.67 409,-276.67"/>
</a>
</g>
</g>
<!-- Node10&#45;&gt;Node11 -->
<g id="edge10_Node000010_Node000011" class="edge">
<title>Node10&#45;&gt;Node11</title>
<g id="a_edge10_Node000010_Node000011"><a xlink:title=" ">
<path fill="none" stroke="#63b8ff" d="M200.58,-307.87C206.61,-300.52 215.54,-289.63 223.52,-279.91"/>
<polygon fill="#63b8ff" stroke="#63b8ff" points="226.28,-282.07 229.92,-272.11 220.87,-277.63 226.28,-282.07"/>
</a>
</g>
</g>
<!-- Node11&#45;&gt;Node4 -->
<g id="edge11_Node000011_Node000004" class="edge">
<title>Node11&#45;&gt;Node4</title>
<g id="a_edge11_Node000011_Node000004"><a xlink:title=" ">
<path fill="none" stroke="#63b8ff" d="M217.84,-241.71C191.32,-224.15 149.77,-191.62 132.5,-151 127.28,-138.73 126.17,-132.74 132.5,-121 141.65,-104.03 159.35,-91.88 175.36,-83.81"/>
<polygon fill="#63b8ff" stroke="#63b8ff" points="176.95,-86.93 184.52,-79.52 173.98,-80.59 176.95,-86.93"/>
</a>
</g>
</g>
<!-- Node12 -->
<g id="Node000012" class="node">
<title>Node12</title>
<g id="a_Node000012"><a xlink:href="helios_2engine_2core_2data_2__module_8ixx.html" target="_top" xlink:title="Aggregate module for helios::engine::core::data namespace.">
<polygon fill="white" stroke="#666666" points="1072,-206 941,-206 941,-187 1072,-187 1072,-206"/>
<text text-anchor="middle" x="1006.5" y="-194" font-family="Helvetica,sans-Serif" font-size="10.00">helios.engine.core.data</text>
</a>
</g>
</g>
<!-- Node11&#45;&gt;Node12 -->
<g id="edge12_Node000011_Node000012" class="edge">
<title>Node11&#45;&gt;Node12</title>
<g id="a_edge12_Node000011_Node000012"><a xlink:title=" ">
<path fill="none" stroke="#63b8ff" d="M308.27,-248C327.08,-245.88 347.58,-243.72 366.5,-242 569.94,-223.54 810.37,-208.69 930.37,-201.75"/>
<polygon fill="#63b8ff" stroke="#63b8ff" points="930.77,-205.24 940.55,-201.17 930.37,-198.25 930.77,-205.24"/>
</a>
</g>
</g>
<!-- Node12&#45;&gt;Node3 -->
<g id="edge13_Node000012_Node000003" class="edge">
<title>Node12&#45;&gt;Node3</title>
<g id="a_edge13_Node000012_Node000003"><a xlink:title=" ">
<path fill="none" stroke="#63b8ff" d="M940.55,-194.09C815.02,-190.84 532.93,-180.75 285.82,-151.05"/>
<polygon fill="#63b8ff" stroke="#63b8ff" points="285.92,-147.54 275.57,-149.81 285.07,-154.49 285.92,-147.54"/>
</a>
</g>
</g>
<!-- Node13 -->
<g id="Node000013" class="node">
<title>Node13</title>
<g id="a_Node000013"><a xlink:href="GameObjectPoolId_8ixx.html" target="_top" xlink:title="Strongly&#45;typed identifier for GameObjectPool instances.">
<polygon fill="white" stroke="#666666" points="1681.5,-151 1547.5,-151 1547.5,-121 1681.5,-121 1681.5,-151"/>
<text text-anchor="start" x="1555.5" y="-139" font-family="Helvetica,sans-Serif" font-size="10.00">helios.engine.core.data.</text>
<text text-anchor="middle" x="1614.5" y="-128" font-family="Helvetica,sans-Serif" font-size="10.00">GameObjectPoolId</text>
</a>
</g>
</g>
<!-- Node12&#45;&gt;Node13 -->
<g id="edge14_Node000012_Node000013" class="edge">
<title>Node12&#45;&gt;Node13</title>
<g id="a_edge14_Node000012_Node000013"><a xlink:title=" ">
<path fill="none" stroke="#63b8ff" d="M1072.25,-192.09C1171.03,-186.51 1363.78,-173.83 1537.34,-151.07"/>
<polygon fill="#63b8ff" stroke="#63b8ff" points="1537.97,-154.51 1547.42,-149.73 1537.05,-147.57 1537.97,-154.51"/>
</a>
</g>
</g>
<!-- Node20 -->
<g id="Node000020" class="node">
<title>Node20</title>
<g id="a_Node000020"><a xlink:href="SpawnRuleId_8ixx.html" target="_top" xlink:title="Strongly&#45;typed identifier for SpawnRule instances.">
<polygon fill="white" stroke="#666666" points="1529.5,-151 1395.5,-151 1395.5,-121 1529.5,-121 1529.5,-151"/>
<text text-anchor="start" x="1403.5" y="-139" font-family="Helvetica,sans-Serif" font-size="10.00">helios.engine.core.data.</text>
<text text-anchor="middle" x="1462.5" y="-128" font-family="Helvetica,sans-Serif" font-size="10.00">SpawnRuleId</text>
</a>
</g>
</g>
<!-- Node12&#45;&gt;Node20 -->
<g id="edge22_Node000012_Node000020" class="edge">
<title>Node12&#45;&gt;Node20</title>
<g id="a_edge22_Node000012_Node000020"><a xlink:title=" ">
<path fill="none" stroke="#63b8ff" d="M1072.24,-189.12C1145.99,-181.67 1269.41,-168.32 1385.29,-151.12"/>
<polygon fill="#63b8ff" stroke="#63b8ff" points="1386.03,-154.55 1395.4,-149.61 1385,-147.63 1386.03,-154.55"/>
</a>
</g>
</g>
<!-- Node21 -->
<g id="Node000021" class="node">
<title>Node21</title>
<g id="a_Node000021"><a xlink:href="SpawnProfileId_8ixx.html" target="_top" xlink:title="Strongly&#45;typed identifier for SpawnProfile instances.">
<polygon fill="white" stroke="#666666" points="1377.5,-151 1243.5,-151 1243.5,-121 1377.5,-121 1377.5,-151"/>
<text text-anchor="start" x="1251.5" y="-139" font-family="Helvetica,sans-Serif" font-size="10.00">helios.engine.core.data.</text>
<text text-anchor="middle" x="1310.5" y="-128" font-family="Helvetica,sans-Serif" font-size="10.00">SpawnProfileId</text>
</a>
</g>
</g>
<!-- Node12&#45;&gt;Node21 -->
<g id="edge26_Node000012_Node000021" class="edge">
<title>Node12&#45;&gt;Node21</title>
<g id="a_edge26_Node000012_Node000021"><a xlink:title=" ">
<path fill="none" stroke="#63b8ff" d="M1050.7,-186.99C1098.49,-177.8 1175.58,-162.96 1233.39,-151.84"/>
<polygon fill="#63b8ff" stroke="#63b8ff" points="1234.06,-155.27 1243.22,-149.95 1232.74,-148.4 1234.06,-155.27"/>
</a>
</g>
</g>
<!-- Node22 -->
<g id="Node000022" class="node">
<title>Node22</title>
<g id="a_Node000022"><a xlink:href="MenuId_8ixx.html" target="_top" xlink:title="Strongly&#45;typed identifier for UI menus.">
<polygon fill="white" stroke="#666666" points="617.5,-151 483.5,-151 483.5,-121 617.5,-121 617.5,-151"/>
<text text-anchor="start" x="491.5" y="-139" font-family="Helvetica,sans-Serif" font-size="10.00">helios.engine.core.data.</text>
<text text-anchor="middle" x="550.5" y="-128" font-family="Helvetica,sans-Serif" font-size="10.00">MenuId</text>
</a>
</g>
</g>
<!-- Node12&#45;&gt;Node22 -->
<g id="edge31_Node000012_Node000022" class="edge">
<title>Node12&#45;&gt;Node22</title>
<g id="a_edge31_Node000012_Node000022"><a xlink:title=" ">
<path fill="none" stroke="#63b8ff" d="M940.76,-189.12C867.01,-181.67 743.59,-168.32 627.71,-151.12"/>
<polygon fill="#63b8ff" stroke="#63b8ff" points="628,-147.63 617.6,-149.61 626.97,-154.55 628,-147.63"/>
</a>
</g>
</g>
<!-- Node23 -->
<g id="Node000023" class="node">
<title>Node23</title>
<g id="a_Node000023"><a xlink:href="FontId_8ixx.html" target="_top" xlink:title="Strongly&#45;typed identifier for font families.">
<polygon fill="white" stroke="#666666" points="769.5,-151 635.5,-151 635.5,-121 769.5,-121 769.5,-151"/>
<text text-anchor="start" x="643.5" y="-139" font-family="Helvetica,sans-Serif" font-size="10.00">helios.engine.core.data.</text>
<text text-anchor="middle" x="702.5" y="-128" font-family="Helvetica,sans-Serif" font-size="10.00">FontId</text>
</a>
</g>
</g>
<!-- Node12&#45;&gt;Node23 -->
<g id="edge36_Node000012_Node000023" class="edge">
<title>Node12&#45;&gt;Node23</title>
<g id="a_edge36_Node000012_Node000023"><a xlink:title=" ">
<path fill="none" stroke="#63b8ff" d="M962.3,-186.99C914.51,-177.8 837.42,-162.96 779.61,-151.84"/>
<polygon fill="#63b8ff" stroke="#63b8ff" points="780.26,-148.4 769.78,-149.95 778.94,-155.27 780.26,-148.4"/>
</a>
</g>
</g>
<!-- Node24 -->
<g id="Node000024" class="node">
<title>Node24</title>
<g id="a_Node000024"><a xlink:href="ViewportId_8ixx.html" target="_top" xlink:title="Strongly&#45;typed identifier for viewports.">
<polygon fill="white" stroke="#666666" points="921.5,-151 787.5,-151 787.5,-121 921.5,-121 921.5,-151"/>
<text text-anchor="start" x="795.5" y="-139" font-family="Helvetica,sans-Serif" font-size="10.00">helios.engine.core.data.</text>
<text text-anchor="middle" x="854.5" y="-128" font-family="Helvetica,sans-Serif" font-size="10.00">ViewportId</text>
</a>
</g>
</g>
<!-- Node12&#45;&gt;Node24 -->
<g id="edge41_Node000012_Node000024" class="edge">
<title>Node12&#45;&gt;Node24</title>
<g id="a_edge41_Node000012_Node000024"><a xlink:title=" ">
<path fill="none" stroke="#63b8ff" d="M984.4,-186.99C962.52,-178.57 928.37,-165.43 900.58,-154.73"/>
<polygon fill="#63b8ff" stroke="#63b8ff" points="901.63,-151.39 891.04,-151.06 899.12,-157.92 901.63,-151.39"/>
</a>
</g>
</g>
<!-- Node25 -->
<g id="Node000025" class="node">
<title>Node25</title>
<g id="a_Node000025"><a xlink:href="VersionId_8ixx.html" target="_top" xlink:title="Type alias for entity version numbers used in handle validation.">
<polygon fill="white" stroke="#666666" points="1776.5,-85 1642.5,-85 1642.5,-55 1776.5,-55 1776.5,-85"/>
<text text-anchor="start" x="1650.5" y="-73" font-family="Helvetica,sans-Serif" font-size="10.00">helios.engine.core.data.</text>
<text text-anchor="middle" x="1709.5" y="-62" font-family="Helvetica,sans-Serif" font-size="10.00">VersionId</text>
</a>
</g>
</g>
<!-- Node12&#45;&gt;Node25 -->
<g id="edge46_Node000012_Node000025" class="edge">
<title>Node12&#45;&gt;Node25</title>
<g id="a_edge46_Node000012_Node000025"><a xlink:title=" ">
<path fill="none" stroke="#63b8ff" d="M1072.17,-195.59C1234.32,-195.2 1643.96,-190.3 1690.5,-151 1706.38,-137.59 1710.34,-113.55 1710.81,-95.32"/>
<polygon fill="#63b8ff" stroke="#63b8ff" points="1714.31,-95.09 1710.73,-85.12 1707.31,-95.14 1714.31,-95.09"/>
</a>
</g>
</g>
<!-- Node26 -->
<g id="Node000026" class="node">
<title>Node26</title>
<g id="a_Node000026"><a xlink:href="ScorePoolId_8ixx.html" target="_top" xlink:title="Strongly&#45;typed identifier for score pools.">
<polygon fill="white" stroke="#666666" points="1225.5,-151 1091.5,-151 1091.5,-121 1225.5,-121 1225.5,-151"/>
<text text-anchor="start" x="1099.5" y="-139" font-family="Helvetica,sans-Serif" font-size="10.00">helios.engine.core.data.</text>
<text text-anchor="middle" x="1158.5" y="-128" font-family="Helvetica,sans-Serif" font-size="10.00">ScorePoolId</text>
</a>
</g>
</g>
<!-- Node12&#45;&gt;Node26 -->
<g id="edge48_Node000012_Node000026" class="edge">
<title>Node12&#45;&gt;Node26</title>
<g id="a_edge48_Node000012_Node000026"><a xlink:title=" ">
<path fill="none" stroke="#63b8ff" d="M1028.6,-186.99C1050.48,-178.57 1084.63,-165.43 1112.42,-154.73"/>
<polygon fill="#63b8ff" stroke="#63b8ff" points="1113.88,-157.92 1121.96,-151.06 1111.37,-151.39 1113.88,-157.92"/>
</a>
</g>
</g>
<!-- Node27 -->
<g id="Node000027" class="node">
<title>Node27</title>
<g id="a_Node000027"><a xlink:href="ScoreTypeId_8ixx.html" target="_top" xlink:title="Strongly&#45;typed identifier for score types.">
<polygon fill="white" stroke="#666666" points="427.5,-151 293.5,-151 293.5,-121 427.5,-121 427.5,-151"/>
<text text-anchor="start" x="301.5" y="-139" font-family="Helvetica,sans-Serif" font-size="10.00">helios.engine.core.data.</text>
<text text-anchor="middle" x="360.5" y="-128" font-family="Helvetica,sans-Serif" font-size="10.00">ScoreTypeId</text>
</a>
</g>
</g>
<!-- Node12&#45;&gt;Node27 -->
<g id="edge53_Node000012_Node000027" class="edge">
<title>Node12&#45;&gt;Node27</title>
<g id="a_edge53_Node000012_Node000027"><a xlink:title=" ">
<path fill="none" stroke="#63b8ff" d="M940.62,-192.29C835,-186.71 621.38,-173.58 441.5,-151 440.23,-150.84 438.94,-150.67 437.65,-150.5"/>
<polygon fill="#63b8ff" stroke="#63b8ff" points="438,-147.02 427.61,-149.09 437.03,-153.95 438,-147.02"/>
</a>
</g>
</g>
<!-- Node28 -->
<g id="Node000028" class="node">
<title>Node28</title>
<g id="a_Node000028"><a xlink:href="ActionId_8ixx.html" target="_top" xlink:title="Strongly&#45;typed identifier for UI actions.">
<polygon fill="white" stroke="#666666" points="1073.5,-151 939.5,-151 939.5,-121 1073.5,-121 1073.5,-151"/>
<text text-anchor="start" x="947.5" y="-139" font-family="Helvetica,sans-Serif" font-size="10.00">helios.engine.core.data.</text>
<text text-anchor="middle" x="1006.5" y="-128" font-family="Helvetica,sans-Serif" font-size="10.00">ActionId</text>
</a>
</g>
</g>
<!-- Node12&#45;&gt;Node28 -->
<g id="edge57_Node000012_Node000028" class="edge">
<title>Node12&#45;&gt;Node28</title>
<g id="a_edge57_Node000012_Node000028"><a xlink:title=" ">
<path fill="none" stroke="#63b8ff" d="M1006.5,-186.87C1006.5,-180.11 1006.5,-170.35 1006.5,-161.26"/>
<polygon fill="#63b8ff" stroke="#63b8ff" points="1010,-161.11 1006.5,-151.11 1003,-161.11 1010,-161.11"/>
</a>
</g>
</g>
<!-- Node29 -->
<g id="Node000029" class="node">
<title>Node29</title>
<g id="a_Node000029"><a xlink:href="EntityId_8ixx.html" target="_top" xlink:title="Type alias for entity identifiers within an EntityPool.">
<polygon fill="white" stroke="#666666" points="588.5,-85 454.5,-85 454.5,-55 588.5,-55 588.5,-85"/>
<text text-anchor="start" x="462.5" y="-73" font-family="Helvetica,sans-Serif" font-size="10.00">helios.engine.core.data.</text>
<text text-anchor="middle" x="521.5" y="-62" font-family="Helvetica,sans-Serif" font-size="10.00">EntityId</text>
</a>
</g>
</g>
<!-- Node12&#45;&gt;Node29 -->
<g id="edge62_Node000012_Node000029" class="edge">
<title>Node12&#45;&gt;Node29</title>
<g id="a_edge62_Node000012_Node000029"><a xlink:title=" ">
<path fill="none" stroke="#63b8ff" d="M940.96,-194.87C805.68,-192.89 505.5,-184.7 474.5,-151 458.28,-133.36 476.78,-109.21 495.12,-92.07"/>
<polygon fill="#63b8ff" stroke="#63b8ff" points="497.72,-94.45 502.87,-85.2 493.07,-89.21 497.72,-94.45"/>
</a>
</g>
</g>
<!-- Node30 -->
<g id="Node000030" class="node">
<title>Node30</title>
<g id="a_Node000030"><a xlink:href="CollisionLayer_8ixx.html" target="_top" xlink:title="Type definitions for collision layer identifiers.">
<polygon fill="white" stroke="#666666" points="1871.5,-151 1737.5,-151 1737.5,-121 1871.5,-121 1871.5,-151"/>
<text text-anchor="start" x="1745.5" y="-139" font-family="Helvetica,sans-Serif" font-size="10.00">helios.engine.core.data.</text>
<text text-anchor="middle" x="1804.5" y="-128" font-family="Helvetica,sans-Serif" font-size="10.00">CollisionLayer</text>
</a>
</g>
</g>
<!-- Node12&#45;&gt;Node30 -->
<g id="edge64_Node000012_Node000030" class="edge">
<title>Node12&#45;&gt;Node30</title>
<g id="a_edge64_Node000012_Node000030"><a xlink:title=" ">
<path fill="none" stroke="#63b8ff" d="M1072.45,-193.81C1199.05,-190.04 1484.74,-178.96 1723.5,-151 1724.78,-150.85 1726.06,-150.69 1727.36,-150.53"/>
<polygon fill="#63b8ff" stroke="#63b8ff" points="1727.96,-153.98 1737.4,-149.18 1727.02,-147.05 1727.96,-153.98"/>
</a>
</g>
</g>
<!-- Node32 -->
<g id="Node000032" class="node">
<title>Node32</title>
<g id="a_Node000032"><a xlink:href="EntityTombstone_8ixx.html" target="_top" xlink:title="Sentinel value for invalid sparse array indices.">
<polygon fill="white" stroke="#666666" points="2023.5,-151 1889.5,-151 1889.5,-121 2023.5,-121 2023.5,-151"/>
<text text-anchor="start" x="1897.5" y="-139" font-family="Helvetica,sans-Serif" font-size="10.00">helios.engine.core.data.</text>
<text text-anchor="middle" x="1956.5" y="-128" font-family="Helvetica,sans-Serif" font-size="10.00">EntityTombstone</text>
</a>
</g>
</g>
<!-- Node12&#45;&gt;Node32 -->
<g id="edge67_Node000012_Node000032" class="edge">
<title>Node12&#45;&gt;Node32</title>
<g id="a_edge67_Node000012_Node000032"><a xlink:title=" ">
<path fill="none" stroke="#63b8ff" d="M1072.26,-195.09C1216.63,-193.57 1572.27,-186.33 1879.45,-151.01"/>
<polygon fill="#63b8ff" stroke="#63b8ff" points="1879.91,-154.48 1889.44,-149.85 1879.1,-147.53 1879.91,-154.48"/>
</a>
</g>
</g>
<!-- Node14 -->
<g id="Node000014" class="node">
<title>Node14</title>
<g id="a_Node000014"><a xlink:title=" ">
<polygon fill="#e0e0e0" stroke="#999999" points="1260.5,-19 1210.5,-19 1210.5,0 1260.5,0 1260.5,-19"/>
<text text-anchor="middle" x="1235.5" y="-7" font-family="Helvetica,sans-Serif" font-size="10.00">cstdint</text>
</a>
</g>
</g>
<!-- Node13&#45;&gt;Node14 -->
<g id="edge15_Node000013_Node000014" class="edge">
<title>Node13&#45;&gt;Node14</title>
<g id="a_edge15_Node000013_Node000014"><a xlink:title=" ">
<path fill="none" stroke="#63b8ff" d="M1547.48,-122.02C1484.17,-109.54 1396.7,-91.61 1381.5,-85 1360.13,-75.71 1358.85,-66.35 1338.5,-55 1315.98,-42.45 1289.22,-30.98 1268.62,-22.83"/>
<polygon fill="#63b8ff" stroke="#63b8ff" points="1269.63,-19.47 1259.05,-19.11 1267.1,-26 1269.63,-19.47"/>
</a>
</g>
</g>
<!-- Node15 -->
<g id="Node000015" class="node">
<title>Node15</title>
<g id="a_Node000015"><a xlink:title=" ">
<polygon fill="#e0e0e0" stroke="#999999" points="1512.5,-79.5 1390.5,-79.5 1390.5,-60.5 1512.5,-60.5 1512.5,-79.5"/>
<text text-anchor="middle" x="1451.5" y="-67.5" font-family="Helvetica,sans-Serif" font-size="10.00">helios/helios_config.h</text>
</a>
</g>
</g>
<!-- Node13&#45;&gt;Node15 -->
<g id="edge16_Node000013_Node000015" class="edge">
<title>Node13&#45;&gt;Node15</title>
<g id="a_edge16_Node000013_Node000015"><a xlink:title=" ">
<path fill="none" stroke="#63b8ff" d="M1578.73,-120.95C1550.02,-109.68 1510.11,-94.01 1482.69,-83.25"/>
<polygon fill="#63b8ff" stroke="#63b8ff" points="1483.78,-79.91 1473.19,-79.52 1481.22,-86.43 1483.78,-79.91"/>
</a>
</g>
</g>
<!-- Node16 -->
<g id="Node000016" class="node">
<title>Node16</title>
<g id="a_Node000016"><a xlink:title=" ">
<polygon fill="#e0e0e0" stroke="#999999" points="1077,-79.5 1004,-79.5 1004,-60.5 1077,-60.5 1077,-79.5"/>
<text text-anchor="middle" x="1040.5" y="-67.5" font-family="Helvetica,sans-Serif" font-size="10.00">string_view</text>
</a>
</g>
</g>
<!-- Node13&#45;&gt;Node16 -->
<g id="edge17_Node000013_Node000016" class="edge">
<title>Node13&#45;&gt;Node16</title>
<g id="a_edge17_Node000013_Node000016"><a xlink:title=" ">
<path fill="none" stroke="#63b8ff" d="M1547.42,-122.26C1544.41,-121.81 1541.43,-121.39 1538.5,-121 1338.7,-94.71 1284.49,-122.56 1086.5,-85 1082.64,-84.27 1078.65,-83.33 1074.7,-82.29"/>
<polygon fill="#63b8ff" stroke="#63b8ff" points="1075.66,-78.93 1065.08,-79.55 1073.74,-85.66 1075.66,-78.93"/>
</a>
</g>
</g>
<!-- Node17 -->
<g id="Node000017" class="node">
<title>Node17</title>
<g id="a_Node000017"><a xlink:title=" ">
<polygon fill="#e0e0e0" stroke="#999999" points="1624,-79.5 1531,-79.5 1531,-60.5 1624,-60.5 1624,-79.5"/>
<text text-anchor="middle" x="1577.5" y="-67.5" font-family="Helvetica,sans-Serif" font-size="10.00">unordered_map</text>
</a>
</g>
</g>
<!-- Node13&#45;&gt;Node17 -->
<g id="edge18_Node000013_Node000017" class="edge">
<title>Node13&#45;&gt;Node17</title>
<g id="a_edge18_Node000013_Node000017"><a xlink:title=" ">
<path fill="none" stroke="#63b8ff" d="M1606.29,-120.8C1600.8,-111.31 1593.55,-98.76 1587.69,-88.63"/>
<polygon fill="#63b8ff" stroke="#63b8ff" points="1590.65,-86.75 1582.61,-79.84 1584.59,-90.25 1590.65,-86.75"/>
</a>
</g>
</g>
<!-- Node18 -->
<g id="Node000018" class="node">
<title>Node18</title>
<g id="a_Node000018"><a xlink:href="algorithms_8ixx.html" target="_top" xlink:title="Core algorithms and hash functions for the helios engine.">
<polygon fill="white" stroke="#666666" points="1220,-79.5 1095,-79.5 1095,-60.5 1220,-60.5 1220,-79.5"/>
<text text-anchor="middle" x="1157.5" y="-67.5" font-family="Helvetica,sans-Serif" font-size="10.00">helios.core.algorithms</text>
</a>
</g>
</g>
<!-- Node13&#45;&gt;Node18 -->
<g id="edge19_Node000013_Node000018" class="edge">
<title>Node13&#45;&gt;Node18</title>
<g id="a_edge19_Node000013_Node000018"><a xlink:title=" ">
<path fill="none" stroke="#63b8ff" d="M1547.4,-122.44C1544.39,-121.94 1541.42,-121.46 1538.5,-121 1431.44,-104.13 1306.83,-88.53 1230.05,-79.39"/>
<polygon fill="#63b8ff" stroke="#63b8ff" points="1230.35,-75.9 1220.01,-78.2 1229.53,-82.85 1230.35,-75.9"/>
</a>
</g>
</g>
<!-- Node18&#45;&gt;Node14 -->
<g id="edge20_Node000018_Node000014" class="edge">
<title>Node18&#45;&gt;Node14</title>
<g id="a_edge20_Node000018_Node000014"><a xlink:title=" ">
<path fill="none" stroke="#63b8ff" d="M1169.01,-60.37C1181.34,-51.12 1201.12,-36.28 1215.91,-25.19"/>
<polygon fill="#63b8ff" stroke="#63b8ff" points="1218.04,-27.97 1223.94,-19.17 1213.84,-22.37 1218.04,-27.97"/>
</a>
</g>
</g>
<!-- Node19 -->
<g id="Node000019" class="node">
<title>Node19</title>
<g id="a_Node000019"><a xlink:title=" ">
<polygon fill="#e0e0e0" stroke="#999999" points="1179.5,-19 1135.5,-19 1135.5,0 1179.5,0 1179.5,-19"/>
<text text-anchor="middle" x="1157.5" y="-7" font-family="Helvetica,sans-Serif" font-size="10.00">string</text>
</a>
</g>
</g>
<!-- Node18&#45;&gt;Node19 -->
<g id="edge21_Node000018_Node000019" class="edge">
<title>Node18&#45;&gt;Node19</title>
<g id="a_edge21_Node000018_Node000019"><a xlink:title=" ">
<path fill="none" stroke="#63b8ff" d="M1157.5,-60.37C1157.5,-52.25 1157.5,-39.81 1157.5,-29.39"/>
<polygon fill="#63b8ff" stroke="#63b8ff" points="1161,-29.17 1157.5,-19.17 1154,-29.17 1161,-29.17"/>
</a>
</g>
</g>
<!-- Node20&#45;&gt;Node14 -->
<g id="edge23_Node000020_Node000014" class="edge">
<title>Node20&#45;&gt;Node14</title>
<g id="a_edge23_Node000020_Node000014"><a xlink:title=" ">
<path fill="none" stroke="#63b8ff" d="M1426.33,-120.97C1403.53,-111.69 1373.75,-98.73 1348.5,-85 1314.39,-66.45 1277.24,-40.81 1255.18,-24.96"/>
<polygon fill="#63b8ff" stroke="#63b8ff" points="1257.12,-22.04 1246.97,-19.01 1253.01,-27.71 1257.12,-22.04"/>
</a>
</g>
</g>
<!-- Node20&#45;&gt;Node16 -->
<g id="edge24_Node000020_Node000016" class="edge">
<title>Node20&#45;&gt;Node16</title>
<g id="a_edge24_Node000020_Node000016"><a xlink:title=" ">
<path fill="none" stroke="#63b8ff" d="M1395.4,-122.4C1392.4,-121.91 1389.42,-121.44 1386.5,-121 1253.73,-100.83 1217.91,-112.66 1086.5,-85 1082.85,-84.23 1079.08,-83.31 1075.34,-82.3"/>
<polygon fill="#63b8ff" stroke="#63b8ff" points="1076.18,-78.9 1065.6,-79.51 1074.25,-85.63 1076.18,-78.9"/>
</a>
</g>
</g>
<!-- Node20&#45;&gt;Node18 -->
<g id="edge25_Node000020_Node000018" class="edge">
<title>Node20&#45;&gt;Node18</title>
<g id="a_edge25_Node000020_Node000018"><a xlink:title=" ">
<path fill="none" stroke="#63b8ff" d="M1395.57,-120.95C1339.01,-109.09 1259.25,-92.35 1207.95,-81.59"/>
<polygon fill="#63b8ff" stroke="#63b8ff" points="1208.6,-78.15 1198.09,-79.52 1207.16,-85 1208.6,-78.15"/>
</a>
</g>
</g>
<!-- Node21&#45;&gt;Node5 -->
<g id="edge30_Node000021_Node000005" class="edge">
<title>Node21&#45;&gt;Node5</title>
<g id="a_edge30_Node000021_Node000005"><a xlink:title=" ">
<path fill="none" stroke="#63b8ff" d="M1243.4,-122.44C1240.39,-121.94 1237.42,-121.46 1234.5,-121 1118.98,-102.93 983.37,-86.55 906.93,-77.76"/>
<polygon fill="#63b8ff" stroke="#63b8ff" points="906.87,-74.23 896.54,-76.57 906.08,-81.19 906.87,-74.23"/>
</a>
</g>
</g>
<!-- Node21&#45;&gt;Node14 -->
<g id="edge27_Node000021_Node000014" class="edge">
<title>Node21&#45;&gt;Node14</title>
<g id="a_edge27_Node000021_Node000014"><a xlink:title=" ">
<path fill="none" stroke="#63b8ff" d="M1302.02,-120.83C1292.45,-104.82 1276.39,-78.02 1262.5,-55 1257.06,-45.99 1250.99,-35.97 1245.98,-27.72"/>
<polygon fill="#63b8ff" stroke="#63b8ff" points="1248.87,-25.75 1240.69,-19.02 1242.89,-29.39 1248.87,-25.75"/>
</a>
</g>
</g>
<!-- Node21&#45;&gt;Node16 -->
<g id="edge28_Node000021_Node000016" class="edge">
<title>Node21&#45;&gt;Node16</title>
<g id="a_edge28_Node000021_Node000016"><a xlink:title=" ">
<path fill="none" stroke="#63b8ff" d="M1243.04,-121.33C1198.41,-111.95 1138.71,-98.75 1086.5,-85 1083.53,-84.22 1080.46,-83.37 1077.38,-82.49"/>
<polygon fill="#63b8ff" stroke="#63b8ff" points="1078.23,-79.09 1067.65,-79.63 1076.25,-85.81 1078.23,-79.09"/>
</a>
</g>
</g>
<!-- Node21&#45;&gt;Node18 -->
<g id="edge29_Node000021_Node000018" class="edge">
<title>Node21&#45;&gt;Node18</title>
<g id="a_edge29_Node000021_Node000018"><a xlink:title=" ">
<path fill="none" stroke="#63b8ff" d="M1276.92,-120.95C1250.09,-109.73 1212.84,-94.15 1187.11,-83.39"/>
<polygon fill="#63b8ff" stroke="#63b8ff" points="1188.44,-80.15 1177.86,-79.52 1185.74,-86.61 1188.44,-80.15"/>
</a>
</g>
</g>
<!-- Node22&#45;&gt;Node5 -->
<g id="edge34_Node000022_Node000005" class="edge">
<title>Node22&#45;&gt;Node5</title>
<g id="a_edge34_Node000022_Node000005"><a xlink:title=" ">
<path fill="none" stroke="#63b8ff" d="M615.46,-120.95C670.23,-109.11 747.43,-92.42 797.22,-81.65"/>
<polygon fill="#63b8ff" stroke="#63b8ff" points="798.07,-85.05 807.11,-79.52 796.59,-78.21 798.07,-85.05"/>
</a>
</g>
</g>
<!-- Node22&#45;&gt;Node14 -->
<g id="edge32_Node000022_Node000014" class="edge">
<title>Node22&#45;&gt;Node14</title>
<g id="a_edge32_Node000022_Node000014"><a xlink:title=" ">
<path fill="none" stroke="#63b8ff" d="M576.48,-120.98C612.41,-102.34 679.84,-69.99 741.5,-55 935.17,-7.91 990.86,-44.77 1188.5,-19 1192.26,-18.51 1196.17,-17.92 1200.06,-17.29"/>
<polygon fill="#63b8ff" stroke="#63b8ff" points="1200.94,-20.69 1210.2,-15.55 1199.75,-13.79 1200.94,-20.69"/>
</a>
</g>
</g>
<!-- Node22&#45;&gt;Node16 -->
<g id="edge33_Node000022_Node000016" class="edge">
<title>Node22&#45;&gt;Node16</title>
<g id="a_edge33_Node000022_Node000016"><a xlink:title=" ">
<path fill="none" stroke="#63b8ff" d="M617.6,-122.41C620.6,-121.92 623.58,-121.44 626.5,-121 759.11,-100.8 916.63,-83.65 993.54,-75.71"/>
<polygon fill="#63b8ff" stroke="#63b8ff" points="994.25,-79.16 1003.85,-74.66 993.54,-72.19 994.25,-79.16"/>
</a>
</g>
</g>
<!-- Node22&#45;&gt;Node18 -->
<g id="edge35_Node000022_Node000018" class="edge">
<title>Node22&#45;&gt;Node18</title>
<g id="a_edge35_Node000022_Node000018"><a xlink:title=" ">
<path fill="none" stroke="#63b8ff" d="M617.58,-122.25C620.59,-121.8 623.57,-121.38 626.5,-121 829.84,-94.39 883.33,-112.88 1086.5,-85 1093.69,-84.01 1101.25,-82.76 1108.64,-81.41"/>
<polygon fill="#63b8ff" stroke="#63b8ff" points="1109.4,-84.83 1118.58,-79.52 1108.1,-77.95 1109.4,-84.83"/>
</a>
</g>
</g>
<!-- Node23&#45;&gt;Node5 -->
<g id="edge39_Node000023_Node000005" class="edge">
<title>Node23&#45;&gt;Node5</title>
<g id="a_edge39_Node000023_Node000005"><a xlink:title=" ">
<path fill="none" stroke="#63b8ff" d="M734.1,-120.95C759.13,-109.83 793.8,-94.42 817.99,-83.67"/>
<polygon fill="#63b8ff" stroke="#63b8ff" points="819.62,-86.78 827.34,-79.52 816.78,-80.38 819.62,-86.78"/>
</a>
</g>
</g>
<!-- Node23&#45;&gt;Node14 -->
<g id="edge37_Node000023_Node000014" class="edge">
<title>Node23&#45;&gt;Node14</title>
<g id="a_edge37_Node000023_Node000014"><a xlink:title=" ">
<path fill="none" stroke="#63b8ff" d="M712.68,-120.73C726.99,-101.95 754.97,-69.62 787.5,-55 869.11,-18.33 1099.84,-30.97 1188.5,-19 1192.25,-18.49 1196.17,-17.9 1200.06,-17.26"/>
<polygon fill="#63b8ff" stroke="#63b8ff" points="1200.94,-20.66 1210.2,-15.5 1199.75,-13.76 1200.94,-20.66"/>
</a>
</g>
</g>
<!-- Node23&#45;&gt;Node16 -->
<g id="edge38_Node000023_Node000016" class="edge">
<title>Node23&#45;&gt;Node16</title>
<g id="a_edge38_Node000023_Node000016"><a xlink:title=" ">
<path fill="none" stroke="#63b8ff" d="M769.68,-122.28C835.97,-109.73 935.58,-90.87 993.72,-79.86"/>
<polygon fill="#63b8ff" stroke="#63b8ff" points="994.55,-83.26 1003.72,-77.96 993.25,-76.39 994.55,-83.26"/>
</a>
</g>
</g>
<!-- Node23&#45;&gt;Node18 -->
<g id="edge40_Node000023_Node000018" class="edge">
<title>Node23&#45;&gt;Node18</title>
<g id="a_edge40_Node000023_Node000018"><a xlink:title=" ">
<path fill="none" stroke="#63b8ff" d="M769.6,-122.39C772.6,-121.91 775.58,-121.44 778.5,-121 914.79,-100.5 950.34,-106.35 1086.5,-85 1093.17,-83.95 1100.17,-82.73 1107.07,-81.45"/>
<polygon fill="#63b8ff" stroke="#63b8ff" points="1107.88,-84.86 1117.05,-79.55 1106.57,-77.98 1107.88,-84.86"/>
</a>
</g>
</g>
<!-- Node24&#45;&gt;Node5 -->
<g id="edge44_Node000024_Node000005" class="edge">
<title>Node24&#45;&gt;Node5</title>
<g id="a_edge44_Node000024_Node000005"><a xlink:title=" ">
<path fill="none" stroke="#63b8ff" d="M852.72,-120.8C851.59,-111.7 850.1,-99.79 848.86,-89.9"/>
<polygon fill="#63b8ff" stroke="#63b8ff" points="852.32,-89.33 847.61,-79.84 845.37,-90.2 852.32,-89.33"/>
</a>
</g>
</g>
<!-- Node24&#45;&gt;Node14 -->
<g id="edge42_Node000024_Node000014" class="edge">
<title>Node24&#45;&gt;Node14</title>
<g id="a_edge42_Node000024_Node000014"><a xlink:title=" ">
<path fill="none" stroke="#63b8ff" d="M872.13,-120.98C895.95,-102.79 940.41,-71.44 983.5,-55 1069.93,-22.03 1097.43,-35.23 1188.5,-19 1192.23,-18.34 1196.13,-17.64 1200.01,-16.94"/>
<polygon fill="#63b8ff" stroke="#63b8ff" points="1200.92,-20.33 1210.14,-15.11 1199.67,-13.44 1200.92,-20.33"/>
</a>
</g>
</g>
<!-- Node24&#45;&gt;Node16 -->
<g id="edge43_Node000024_Node000016" class="edge">
<title>Node24&#45;&gt;Node16</title>
<g id="a_edge43_Node000024_Node000016"><a xlink:title=" ">
<path fill="none" stroke="#63b8ff" d="M895.32,-120.95C928.51,-109.53 974.82,-93.6 1006.14,-82.82"/>
<polygon fill="#63b8ff" stroke="#63b8ff" points="1007.43,-86.08 1015.75,-79.52 1005.15,-79.46 1007.43,-86.08"/>
</a>
</g>
</g>
<!-- Node24&#45;&gt;Node18 -->
<g id="edge45_Node000024_Node000018" class="edge">
<title>Node24&#45;&gt;Node18</title>
<g id="a_edge45_Node000024_Node000018"><a xlink:title=" ">
<path fill="none" stroke="#63b8ff" d="M920.99,-120.95C977.18,-109.09 1056.42,-92.35 1107.38,-81.59"/>
<polygon fill="#63b8ff" stroke="#63b8ff" points="1108.12,-85.01 1117.18,-79.52 1106.67,-78.16 1108.12,-85.01"/>
</a>
</g>
</g>
<!-- Node25&#45;&gt;Node14 -->
<g id="edge47_Node000025_Node000014" class="edge">
<title>Node25&#45;&gt;Node14</title>
<g id="a_edge47_Node000025_Node000014"><a xlink:title=" ">
<path fill="none" stroke="#63b8ff" d="M1642.41,-56.37C1639.4,-55.89 1636.42,-55.43 1633.5,-55 1500.04,-35.27 1340.24,-19.88 1270.7,-13.59"/>
<polygon fill="#63b8ff" stroke="#63b8ff" points="1271,-10.1 1260.73,-12.69 1270.37,-17.08 1271,-10.1"/>
</a>
</g>
</g>
<!-- Node26&#45;&gt;Node5 -->
<g id="edge51_Node000026_Node000005" class="edge">
<title>Node26&#45;&gt;Node5</title>
<g id="a_edge51_Node000026_Node000005"><a xlink:title=" ">
<path fill="none" stroke="#63b8ff" d="M1091.18,-121.19C1033.29,-109.32 951,-92.44 898.17,-81.6"/>
<polygon fill="#63b8ff" stroke="#63b8ff" points="898.84,-78.16 888.34,-79.58 897.43,-85.02 898.84,-78.16"/>
</a>
</g>
</g>
<!-- Node26&#45;&gt;Node14 -->
<g id="edge49_Node000026_Node000014" class="edge">
<title>Node26&#45;&gt;Node14</title>
<g id="a_edge49_Node000026_Node000014"><a xlink:title=" ">
<path fill="none" stroke="#63b8ff" d="M1189.73,-120.96C1204.37,-112.68 1220.53,-100.71 1229.5,-85 1239.13,-68.13 1239.55,-45.52 1238.24,-29.65"/>
<polygon fill="#63b8ff" stroke="#63b8ff" points="1241.69,-29.01 1237.08,-19.46 1234.73,-29.79 1241.69,-29.01"/>
</a>
</g>
</g>
<!-- Node26&#45;&gt;Node16 -->
<g id="edge50_Node000026_Node000016" class="edge">
<title>Node26&#45;&gt;Node16</title>
<g id="a_edge50_Node000026_Node000016"><a xlink:title=" ">
<path fill="none" stroke="#63b8ff" d="M1132.6,-120.95C1112.55,-110.08 1084.95,-95.11 1065.2,-84.4"/>
<polygon fill="#63b8ff" stroke="#63b8ff" points="1066.66,-81.21 1056.2,-79.52 1063.33,-87.36 1066.66,-81.21"/>
</a>
</g>
</g>
<!-- Node26&#45;&gt;Node18 -->
<g id="edge52_Node000026_Node000018" class="edge">
<title>Node26&#45;&gt;Node18</title>
<g id="a_edge52_Node000026_Node000018"><a xlink:title=" ">
<path fill="none" stroke="#63b8ff" d="M1158.28,-120.8C1158.14,-111.7 1157.95,-99.79 1157.8,-89.9"/>
<polygon fill="#63b8ff" stroke="#63b8ff" points="1161.29,-89.79 1157.64,-79.84 1154.29,-89.9 1161.29,-89.79"/>
</a>
</g>
</g>
<!-- Node27&#45;&gt;Node4 -->
<g id="edge54_Node000027_Node000004" class="edge">
<title>Node27&#45;&gt;Node4</title>
<g id="a_edge54_Node000027_Node000004"><a xlink:title=" ">
<path fill="none" stroke="#63b8ff" d="M327.14,-120.95C300.6,-109.78 263.81,-94.29 238.26,-83.53"/>
<polygon fill="#63b8ff" stroke="#63b8ff" points="239.3,-80.17 228.73,-79.52 236.59,-86.62 239.3,-80.17"/>
</a>
</g>
</g>
<!-- Node27&#45;&gt;Node5 -->
<g id="edge55_Node000027_Node000005" class="edge">
<title>Node27&#45;&gt;Node5</title>
<g id="a_edge55_Node000027_Node000005"><a xlink:title=" ">
<path fill="none" stroke="#63b8ff" d="M427.57,-126.17C522.59,-113.65 694.99,-90.95 786.19,-78.94"/>
<polygon fill="#63b8ff" stroke="#63b8ff" points="786.9,-82.38 796.36,-77.6 785.99,-75.44 786.9,-82.38"/>
</a>
</g>
</g>
<!-- Node27&#45;&gt;Node6 -->
<g id="edge56_Node000027_Node000006" class="edge">
<title>Node27&#45;&gt;Node6</title>
<g id="a_edge56_Node000027_Node000006"><a xlink:title=" ">
<path fill="none" stroke="#63b8ff" d="M358.06,-120.8C356.5,-111.7 354.45,-99.79 352.75,-89.9"/>
<polygon fill="#63b8ff" stroke="#63b8ff" points="356.16,-89.11 351.02,-79.84 349.26,-90.29 356.16,-89.11"/>
</a>
</g>
</g>
<!-- Node28&#45;&gt;Node5 -->
<g id="edge60_Node000028_Node000005" class="edge">
<title>Node28&#45;&gt;Node5</title>
<g id="a_edge60_Node000028_Node000005"><a xlink:title=" ">
<path fill="none" stroke="#63b8ff" d="M971.39,-120.95C943.2,-109.68 904.03,-94.01 877.11,-83.25"/>
<polygon fill="#63b8ff" stroke="#63b8ff" points="878.38,-79.98 867.79,-79.52 875.78,-86.48 878.38,-79.98"/>
</a>
</g>
</g>
<!-- Node28&#45;&gt;Node14 -->
<g id="edge58_Node000028_Node000014" class="edge">
<title>Node28&#45;&gt;Node14</title>
<g id="a_edge58_Node000028_Node000014"><a xlink:title=" ">
<path fill="none" stroke="#63b8ff" d="M998.74,-120.8C990.35,-103.28 980.08,-73.54 995.5,-55 996.32,-54.01 1133.89,-28.94 1200.35,-16.87"/>
<polygon fill="#63b8ff" stroke="#63b8ff" points="1201.16,-20.28 1210.37,-15.05 1199.91,-13.39 1201.16,-20.28"/>
</a>
</g>
</g>
<!-- Node28&#45;&gt;Node16 -->
<g id="edge59_Node000028_Node000016" class="edge">
<title>Node28&#45;&gt;Node16</title>
<g id="a_edge59_Node000028_Node000016"><a xlink:title=" ">
<path fill="none" stroke="#63b8ff" d="M1014.05,-120.8C1019.03,-111.41 1025.62,-99.02 1030.97,-88.95"/>
<polygon fill="#63b8ff" stroke="#63b8ff" points="1034.2,-90.32 1035.8,-79.84 1028.02,-87.03 1034.2,-90.32"/>
</a>
</g>
</g>
<!-- Node28&#45;&gt;Node18 -->
<g id="edge61_Node000028_Node000018" class="edge">
<title>Node28&#45;&gt;Node18</title>
<g id="a_edge61_Node000028_Node000018"><a xlink:title=" ">
<path fill="none" stroke="#63b8ff" d="M1039.64,-120.95C1066,-109.78 1102.56,-94.29 1127.94,-83.53"/>
<polygon fill="#63b8ff" stroke="#63b8ff" points="1129.56,-86.64 1137.4,-79.52 1126.83,-80.2 1129.56,-86.64"/>
</a>
</g>
</g>
<!-- Node29&#45;&gt;Node14 -->
<g id="edge63_Node000029_Node000014" class="edge">
<title>Node29&#45;&gt;Node14</title>
<g id="a_edge63_Node000029_Node000014"><a xlink:title=" ">
<path fill="none" stroke="#63b8ff" d="M588.7,-62.18C613.46,-59.77 641.74,-57.12 667.5,-55 898.82,-35.92 958.17,-47.7 1188.5,-19 1192.26,-18.53 1196.17,-17.96 1200.07,-17.34"/>
<polygon fill="#63b8ff" stroke="#63b8ff" points="1200.94,-20.74 1210.21,-15.6 1199.76,-13.84 1200.94,-20.74"/>
</a>
</g>
</g>
<!-- Node30&#45;&gt;Node14 -->
<g id="edge65_Node000030_Node000014" class="edge">
<title>Node30&#45;&gt;Node14</title>
<g id="a_edge65_Node000030_Node000014"><a xlink:title=" ">
<path fill="none" stroke="#63b8ff" d="M1805.69,-120.93C1806.38,-102.68 1804.46,-71.27 1785.5,-55 1746.46,-21.5 1385.74,-12.89 1270.63,-10.98"/>
<polygon fill="#63b8ff" stroke="#63b8ff" points="1270.64,-7.48 1260.58,-10.82 1270.52,-14.48 1270.64,-7.48"/>
</a>
</g>
</g>
<!-- Node31 -->
<g id="Node000031" class="node">
<title>Node31</title>
<g id="a_Node000031"><a xlink:title=" ">
<polygon fill="#e0e0e0" stroke="#999999" points="1927.5,-79.5 1883.5,-79.5 1883.5,-60.5 1927.5,-60.5 1927.5,-79.5"/>
<text text-anchor="middle" x="1905.5" y="-67.5" font-family="Helvetica,sans-Serif" font-size="10.00">limits</text>
</a>
</g>
</g>
<!-- Node30&#45;&gt;Node31 -->
<g id="edge66_Node000030_Node000031" class="edge">
<title>Node30&#45;&gt;Node31</title>
<g id="a_edge66_Node000030_Node000031"><a xlink:title=" ">
<path fill="none" stroke="#63b8ff" d="M1826.92,-120.8C1843.69,-110.17 1866.51,-95.7 1883.25,-85.1"/>
<polygon fill="#63b8ff" stroke="#63b8ff" points="1885.26,-87.97 1891.84,-79.66 1881.52,-82.05 1885.26,-87.97"/>
</a>
</g>
</g>
<!-- Node32&#45;&gt;Node31 -->
<g id="edge68_Node000032_Node000031" class="edge">
<title>Node32&#45;&gt;Node31</title>
<g id="a_edge68_Node000032_Node000031"><a xlink:title=" ">
<path fill="none" stroke="#63b8ff" d="M1945.18,-120.8C1937.39,-111.01 1927,-97.98 1918.81,-87.7"/>
<polygon fill="#63b8ff" stroke="#63b8ff" points="1921.52,-85.48 1912.55,-79.84 1916.04,-89.85 1921.52,-85.48"/>
</a>
</g>
</g>
</g>
</svg>

<g id="navigator" transform="translate(0 0)" fill="#404254">
  <rect fill="#f2f5e9" fill-opacity="0.5" stroke="#606060" stroke-width=".5" x="0" y="0" width="60" height="60"/>
  <use id="zoomplus" xlink:href="#zoomPlus" x="17" y="9" onmousedown="handleZoom(evt,'in')"/>
  <use id="zoomminus" xlink:href="#zoomMin" x="42" y="9" onmousedown="handleZoom(evt,'out')"/>
  <use id="reset" xlink:href="#resetDef" x="30" y="36" onmousedown="handleReset()"/>
   <use id="arrowup" xlink:href="#arrowUp" x="0" y="0" onmousedown="handlePan(0,-1)"/>
  <use id="arrowright" xlink:href="#arrowRight" x="0" y="0" onmousedown="handlePan(1,0)"/>
  <use id="arrowdown" xlink:href="#arrowDown" x="0" y="0" onmousedown="handlePan(0,1)"/>
  <use id="arrowleft" xlink:href="#arrowLeft" x="0" y="0" onmousedown="handlePan(-1,0)"/>
</g>
<svg viewBox="0 0 15 15" width="100%" height="30px" preserveAspectRatio="xMaxYMin meet">
 <g id="arrow_out" transform="scale(0.3 0.3)">
  <a xlink:href="ComponentOpsRegistry_8ixx__incl_org.svg" target="_base">
   <rect id="button" ry="5" rx="5" y="6" x="6" height="38" width="38"
        fill="#f2f5e9" fill-opacity="0.5" stroke="#606060" stroke-width="1.0"/>
   <path id="arrow"
     d="M 11.500037,31.436501 C 11.940474,20.09759 22.043105,11.32322 32.158766,21.979434 L 37.068811,17.246167 C 37.068811,17.246167 37.088388,32 37.088388,32 L 22.160133,31.978069 C 22.160133,31.978069 26.997745,27.140456 26.997745,27.140456 C 18.528582,18.264221 13.291696,25.230495 11.500037,31.436501 z"
     style="fill:#404040;"/>
  </a>
 </g>
</svg>

<style type='text/css'>
<![CDATA[
[data-mouse-over-selected='false'] { opacity: 0.7; }
[data-mouse-over-selected='true']  { opacity: 1.0; }
]]>
</style>
<script type="application/ecmascript"><![CDATA[
document.addEventListener('DOMContentLoaded', (event) => {
  highlightEdges();
  highlightAdjacentNodes();
});
]]></script>
</svg>
