<?xml version="1.0" encoding="UTF-8" standalone="no"?>
<!DOCTYPE svg PUBLIC "-//W3C//DTD SVG 1.1//EN"
 "http://www.w3.org/Graphics/SVG/1.1/DTD/svg11.dtd">
<!-- Generated by graphviz version 2.43.0 (0)
 -->
<!-- Title: ConceptModelRegistry.ixx Pages: 1 -->
<!--zoomable 280 -->

<svg id="main" version="1.1" xmlns="http://www.w3.org/2000/svg" xmlns:xlink="http://www.w3.org/1999/xlink" xml:space="preserve" onload="init(evt)">

<style type="text/css"><![CDATA[
.node, .edge {opacity: 0.7;}
.node.selected, .edge.selected {opacity: 1;}
.edge:hover path { stroke: red; }
.edge:hover polygon { stroke: red; fill: red; }
]]></style>

<defs>
  <circle id="rim" cx="0" cy="0" r="7"/>
  <circle id="rim2" cx="0" cy="0" r="3.5"/>
  <g id="zoomPlus">
    <use xlink:href="#rim" fill="#404040"><set attributeName="fill" to="#808080" begin="zoomplus.mouseover" end="zoomplus.mouseout"/></use>
    <path d="M-4,0h8M0,-4v8" fill="none" stroke="white" stroke-width="1.5" pointer-events="none"/>
  </g>
  <g id="zoomMin">
    <use xlink:href="#rim" fill="#404040"><set attributeName="fill" to="#808080" begin="zoomminus.mouseover" end="zoomminus.mouseout"/></use>
    <path d="M-4,0h8" fill="none" stroke="white" stroke-width="1.5" pointer-events="none"/>
  </g>
  <g id="arrowUp" transform="translate(30 24)">
    <use xlink:href="#rim"/>
    <path pointer-events="none" fill="none" stroke="white" stroke-width="1.5" d="M0,-3.0v7 M-2.5,-0.5L0,-3.0L2.5,-0.5"/>
  </g>
  <g id="arrowRight" transform="rotate(90) translate(36 -43)">
    <use xlink:href="#rim"/>
    <path pointer-events="none" fill="none" stroke="white" stroke-width="1.5" d="M0,-3.0v7 M-2.5,-0.5L0,-3.0L2.5,-0.5"/>
  </g>
  <g id="arrowDown" transform="rotate(180) translate(-30 -48)">
    <use xlink:href="#rim"/>
    <path pointer-events="none" fill="none" stroke="white" stroke-width="1.5" d="M0,-3.0v7 M-2.5,-0.5L0,-3.0L2.5,-0.5"/>
  </g>
  <g id="arrowLeft" transform="rotate(270) translate(-36 17)">
    <use xlink:href="#rim"/>
    <path pointer-events="none" fill="none" stroke="white" stroke-width="1.5" d="M0,-3.0v7 M-2.5,-0.5L0,-3.0L2.5,-0.5"/>
  </g>
  <g id="resetDef">
    <use xlink:href="#rim2" fill="#404040"><set attributeName="fill" to="#808080" begin="reset.mouseover" end="reset.mouseout"/></use>
  </g>
</defs>
<script type="application/ecmascript">
var viewWidth = 1968;
var viewHeight = 280;
var sectionId = 'dynsection-0';
</script>
<script type="application/ecmascript" xlink:href="svg.min.js"/>
<svg id="graph" class="graph">
<g id="viewport">
<title>ConceptModelRegistry.ixx</title>
<!-- Node1 -->
<g id="Node000001" class="node">
<title>Node1</title>
<g id="a_Node000001"><a xlink:title="Generic type&#45;indexed registry for type&#45;erased wrappers.">
<polygon fill="#999999" stroke="#666666" points="1013.5,-272 870.5,-272 870.5,-253 1013.5,-253 1013.5,-272"/>
<text text-anchor="middle" x="942" y="-260" font-family="Helvetica,sans-Serif" font-size="10.00">ConceptModelRegistry.ixx</text>
</a>
</g>
</g>
<!-- Node2 -->
<g id="Node000002" class="node">
<title>Node2</title>
<g id="a_Node000002"><a xlink:title=" ">
<polygon fill="#e0e0e0" stroke="#999999" points="828,-217 776,-217 776,-198 828,-198 828,-217"/>
<text text-anchor="middle" x="802" y="-205" font-family="Helvetica,sans-Serif" font-size="10.00">cassert</text>
</a>
</g>
</g>
<!-- Node1&#45;&gt;Node2 -->
<g id="edge1_Node000001_Node000002" class="edge">
<title>Node1&#45;&gt;Node2</title>
<g id="a_edge1_Node000001_Node000002"><a xlink:title=" ">
<path fill="none" stroke="#63b8ff" d="M919.51,-252.98C896.48,-244.27 860.46,-230.63 834.37,-220.75"/>
<polygon fill="#63b8ff" stroke="#63b8ff" points="835.49,-217.44 824.9,-217.17 833.02,-223.98 835.49,-217.44"/>
</a>
</g>
</g>
<!-- Node3 -->
<g id="Node000003" class="node">
<title>Node3</title>
<g id="a_Node000003"><a xlink:title=" ">
<polygon fill="#e0e0e0" stroke="#999999" points="904,-217 846,-217 846,-198 904,-198 904,-217"/>
<text text-anchor="middle" x="875" y="-205" font-family="Helvetica,sans-Serif" font-size="10.00">memory</text>
</a>
</g>
</g>
<!-- Node1&#45;&gt;Node3 -->
<g id="edge2_Node000001_Node000003" class="edge">
<title>Node1&#45;&gt;Node3</title>
<g id="a_edge2_Node000001_Node000003"><a xlink:title=" ">
<path fill="none" stroke="#63b8ff" d="M931.24,-252.98C921.23,-245.07 906.11,-233.11 894.07,-223.58"/>
<polygon fill="#63b8ff" stroke="#63b8ff" points="895.97,-220.63 885.96,-217.17 891.63,-226.12 895.97,-220.63"/>
</a>
</g>
</g>
<!-- Node4 -->
<g id="Node000004" class="node">
<title>Node4</title>
<g id="a_Node000004"><a xlink:title=" ">
<polygon fill="#e0e0e0" stroke="#999999" points="962,-217 922,-217 922,-198 962,-198 962,-217"/>
<text text-anchor="middle" x="942" y="-205" font-family="Helvetica,sans-Serif" font-size="10.00">span</text>
</a>
</g>
</g>
<!-- Node1&#45;&gt;Node4 -->
<g id="edge3_Node000001_Node000004" class="edge">
<title>Node1&#45;&gt;Node4</title>
<g id="a_edge3_Node000001_Node000004"><a xlink:title=" ">
<path fill="none" stroke="#63b8ff" d="M942,-252.75C942,-245.8 942,-235.85 942,-227.13"/>
<polygon fill="#63b8ff" stroke="#63b8ff" points="945.5,-227.09 942,-217.09 938.5,-227.09 945.5,-227.09"/>
</a>
</g>
</g>
<!-- Node5 -->
<g id="Node000005" class="node">
<title>Node5</title>
<g id="a_Node000005"><a xlink:title=" ">
<polygon fill="#e0e0e0" stroke="#999999" points="1027.5,-217 980.5,-217 980.5,-198 1027.5,-198 1027.5,-217"/>
<text text-anchor="middle" x="1004" y="-205" font-family="Helvetica,sans-Serif" font-size="10.00">vector</text>
</a>
</g>
</g>
<!-- Node1&#45;&gt;Node5 -->
<g id="edge4_Node000001_Node000005" class="edge">
<title>Node1&#45;&gt;Node5</title>
<g id="a_edge4_Node000001_Node000005"><a xlink:title=" ">
<path fill="none" stroke="#63b8ff" d="M951.96,-252.98C961.13,-245.15 974.94,-233.34 986.03,-223.86"/>
<polygon fill="#63b8ff" stroke="#63b8ff" points="988.53,-226.33 993.86,-217.17 983.98,-221.01 988.53,-226.33"/>
</a>
</g>
</g>
<!-- Node6 -->
<g id="Node000006" class="node">
<title>Node6</title>
<g id="a_Node000006"><a xlink:href="helios_2engine_2common_2concepts_2__module_8ixx.html" target="_top" xlink:title="Aggregate module re&#45;exporting all engine role concepts.">
<polygon fill="white" stroke="#666666" points="1220,-217 1046,-217 1046,-198 1220,-198 1220,-217"/>
<text text-anchor="middle" x="1133" y="-205" font-family="Helvetica,sans-Serif" font-size="10.00">helios.engine.common.concepts</text>
</a>
</g>
</g>
<!-- Node1&#45;&gt;Node6 -->
<g id="edge5_Node000001_Node000006" class="edge">
<title>Node1&#45;&gt;Node6</title>
<g id="a_edge5_Node000001_Node000006"><a xlink:title=" ">
<path fill="none" stroke="#63b8ff" d="M972.69,-252.98C1005.17,-243.97 1056.6,-229.7 1092.41,-219.76"/>
<polygon fill="#63b8ff" stroke="#63b8ff" points="1093.37,-223.13 1102.07,-217.08 1091.5,-216.38 1093.37,-223.13"/>
</a>
</g>
</g>
<!-- Node7 -->
<g id="Node000007" class="node">
<title>Node7</title>
<g id="a_Node000007"><a xlink:href="IsShaderLike_8ixx.html" target="_top" xlink:title="Concept constraining types usable as shader abstractions.">
<polygon fill="white" stroke="#666666" points="379.5,-162 202.5,-162 202.5,-132 379.5,-132 379.5,-162"/>
<text text-anchor="start" x="210.5" y="-150" font-family="Helvetica,sans-Serif" font-size="10.00">helios.engine.common.concepts.</text>
<text text-anchor="middle" x="291" y="-139" font-family="Helvetica,sans-Serif" font-size="10.00">IsShaderLike</text>
</a>
</g>
</g>
<!-- Node6&#45;&gt;Node7 -->
<g id="edge6_Node000006_Node000007" class="edge">
<title>Node6&#45;&gt;Node7</title>
<g id="a_edge6_Node000006_Node000007"><a xlink:title=" ">
<path fill="none" stroke="#63b8ff" d="M1045.76,-198.76C1042.46,-198.5 1039.2,-198.24 1036,-198 789.53,-179.21 727.59,-179.08 481,-162 451.48,-159.96 419.4,-157.63 390.14,-155.47"/>
<polygon fill="#63b8ff" stroke="#63b8ff" points="390.15,-151.96 379.92,-154.71 389.63,-158.94 390.15,-151.96"/>
</a>
</g>
</g>
<!-- Node15 -->
<g id="Node000015" class="node">
<title>Node15</title>
<g id="a_Node000015"><a xlink:href="IsCommandHandlerLike_8ixx.html" target="_top" xlink:title="Concept constraining types that can handle specific commands.">
<polygon fill="white" stroke="#666666" points="495.5,-96 318.5,-96 318.5,-66 495.5,-66 495.5,-96"/>
<text text-anchor="start" x="326.5" y="-84" font-family="Helvetica,sans-Serif" font-size="10.00">helios.engine.common.concepts.</text>
<text text-anchor="middle" x="407" y="-73" font-family="Helvetica,sans-Serif" font-size="10.00">IsCommandHandlerLike</text>
</a>
</g>
</g>
<!-- Node6&#45;&gt;Node15 -->
<g id="edge15_Node000006_Node000015" class="edge">
<title>Node6&#45;&gt;Node15</title>
<g id="a_edge15_Node000006_Node000015"><a xlink:title=" ">
<path fill="none" stroke="#63b8ff" d="M1045.75,-198.83C1042.46,-198.55 1039.2,-198.27 1036,-198 842.26,-181.51 788.97,-207.78 600,-162 542.8,-148.14 480.58,-119.72 442.68,-100.75"/>
<polygon fill="#63b8ff" stroke="#63b8ff" points="444.09,-97.54 433.59,-96.15 440.93,-103.79 444.09,-97.54"/>
</a>
</g>
</g>
<!-- Node16 -->
<g id="Node000016" class="node">
<title>Node16</title>
<g id="a_Node000016"><a xlink:href="IsSystemLike_8ixx.html" target="_top" xlink:title="Concept constraining types eligible for system registration.">
<polygon fill="white" stroke="#666666" points="786.5,-162 609.5,-162 609.5,-132 786.5,-132 786.5,-162"/>
<text text-anchor="start" x="617.5" y="-150" font-family="Helvetica,sans-Serif" font-size="10.00">helios.engine.common.concepts.</text>
<text text-anchor="middle" x="698" y="-139" font-family="Helvetica,sans-Serif" font-size="10.00">IsSystemLike</text>
</a>
</g>
</g>
<!-- Node6&#45;&gt;Node16 -->
<g id="edge17_Node000006_Node000016" class="edge">
<title>Node6&#45;&gt;Node16</title>
<g id="a_edge17_Node000006_Node000016"><a xlink:title=" ">
<path fill="none" stroke="#63b8ff" d="M1069.75,-197.99C998.08,-188.36 880.38,-172.53 796.63,-161.26"/>
<polygon fill="#63b8ff" stroke="#63b8ff" points="796.97,-157.78 786.59,-159.91 796.03,-164.72 796.97,-157.78"/>
</a>
</g>
</g>
<!-- Node18 -->
<g id="Node000018" class="node">
<title>Node18</title>
<g id="a_Node000018"><a xlink:href="HasTag_8ixx.html" target="_top" xlink:title="Concept for detecting a compile&#45;time engine role tag on a type.">
<polygon fill="white" stroke="#666666" points="901.5,-96 724.5,-96 724.5,-66 901.5,-66 901.5,-96"/>
<text text-anchor="start" x="732.5" y="-84" font-family="Helvetica,sans-Serif" font-size="10.00">helios.engine.common.concepts.</text>
<text text-anchor="middle" x="813" y="-73" font-family="Helvetica,sans-Serif" font-size="10.00">HasTag</text>
</a>
</g>
</g>
<!-- Node6&#45;&gt;Node18 -->
<g id="edge41_Node000006_Node000018" class="edge">
<title>Node6&#45;&gt;Node18</title>
<g id="a_edge41_Node000006_Node000018"><a xlink:title=" ">
<path fill="none" stroke="#63b8ff" d="M1050.33,-197.97C1009.47,-191.62 960.21,-180.69 919,-162 886.75,-147.37 855.03,-121.5 834.83,-103.14"/>
<polygon fill="#63b8ff" stroke="#63b8ff" points="837.13,-100.5 827.41,-96.27 832.37,-105.63 837.13,-100.5"/>
</a>
</g>
</g>
<!-- Node19 -->
<g id="Node000019" class="node">
<title>Node19</title>
<g id="a_Node000019"><a xlink:href="IsCommandBufferLike_8ixx.html" target="_top" xlink:title="Concept constraining types usable as command buffers.">
<polygon fill="white" stroke="#666666" points="1105.5,-162 928.5,-162 928.5,-132 1105.5,-132 1105.5,-162"/>
<text text-anchor="start" x="936.5" y="-150" font-family="Helvetica,sans-Serif" font-size="10.00">helios.engine.common.concepts.</text>
<text text-anchor="middle" x="1017" y="-139" font-family="Helvetica,sans-Serif" font-size="10.00">IsCommandBufferLike</text>
</a>
</g>
</g>
<!-- Node6&#45;&gt;Node19 -->
<g id="edge22_Node000006_Node000019" class="edge">
<title>Node6&#45;&gt;Node19</title>
<g id="a_edge22_Node000006_Node000019"><a xlink:title=" ">
<path fill="none" stroke="#63b8ff" d="M1115.88,-197.87C1099.71,-189.71 1074.9,-177.2 1054.18,-166.75"/>
<polygon fill="#63b8ff" stroke="#63b8ff" points="1055.49,-163.49 1044.99,-162.11 1052.34,-169.74 1055.49,-163.49"/>
</a>
</g>
</g>
<!-- Node21 -->
<g id="Node000021" class="node">
<title>Node21</title>
<g id="a_Node000021"><a xlink:href="HasClear_8ixx.html" target="_top" xlink:title="Concept detecting an optional clear() method.">
<polygon fill="white" stroke="#666666" points="1307.5,-96 1130.5,-96 1130.5,-66 1307.5,-66 1307.5,-96"/>
<text text-anchor="start" x="1138.5" y="-84" font-family="Helvetica,sans-Serif" font-size="10.00">helios.engine.common.concepts.</text>
<text text-anchor="middle" x="1219" y="-73" font-family="Helvetica,sans-Serif" font-size="10.00">HasClear</text>
</a>
</g>
</g>
<!-- Node6&#45;&gt;Node21 -->
<g id="edge34_Node000006_Node000021" class="edge">
<title>Node6&#45;&gt;Node21</title>
<g id="a_edge34_Node000006_Node000021"><a xlink:title=" ">
<path fill="none" stroke="#63b8ff" d="M1133.2,-197.93C1133.93,-183.24 1137.15,-152.83 1151,-132 1159.1,-119.83 1171.21,-109.55 1182.98,-101.53"/>
<polygon fill="#63b8ff" stroke="#63b8ff" points="1184.91,-104.45 1191.43,-96.1 1181.13,-98.57 1184.91,-104.45"/>
</a>
</g>
</g>
<!-- Node22 -->
<g id="Node000022" class="node">
<title>Node22</title>
<g id="a_Node000022"><a xlink:href="IsManagerLike_8ixx.html" target="_top" xlink:title="Concept constraining types eligible for manager registration.">
<polygon fill="white" stroke="#666666" points="1337.5,-162 1160.5,-162 1160.5,-132 1337.5,-132 1337.5,-162"/>
<text text-anchor="start" x="1168.5" y="-150" font-family="Helvetica,sans-Serif" font-size="10.00">helios.engine.common.concepts.</text>
<text text-anchor="middle" x="1249" y="-139" font-family="Helvetica,sans-Serif" font-size="10.00">IsManagerLike</text>
</a>
</g>
</g>
<!-- Node6&#45;&gt;Node22 -->
<g id="edge28_Node000006_Node000022" class="edge">
<title>Node6&#45;&gt;Node22</title>
<g id="a_edge28_Node000006_Node000022"><a xlink:title=" ">
<path fill="none" stroke="#63b8ff" d="M1150.12,-197.87C1166.29,-189.71 1191.1,-177.2 1211.82,-166.75"/>
<polygon fill="#63b8ff" stroke="#63b8ff" points="1213.66,-169.74 1221.01,-162.11 1210.51,-163.49 1213.66,-169.74"/>
</a>
</g>
</g>
<!-- Node24 -->
<g id="Node000024" class="node">
<title>Node24</title>
<g id="a_Node000024"><a xlink:href="HasSubmit_8ixx.html" target="_top" xlink:title="Concept for types that can accept commands via submit().">
<polygon fill="white" stroke="#666666" points="1713.5,-96 1536.5,-96 1536.5,-66 1713.5,-66 1713.5,-96"/>
<text text-anchor="start" x="1544.5" y="-84" font-family="Helvetica,sans-Serif" font-size="10.00">helios.engine.common.concepts.</text>
<text text-anchor="middle" x="1625" y="-73" font-family="Helvetica,sans-Serif" font-size="10.00">HasSubmit</text>
</a>
</g>
</g>
<!-- Node6&#45;&gt;Node24 -->
<g id="edge32_Node000006_Node000024" class="edge">
<title>Node6&#45;&gt;Node24</title>
<g id="a_edge32_Node000006_Node000024"><a xlink:title=" ">
<path fill="none" stroke="#63b8ff" d="M1219.18,-197.97C1259.18,-191.66 1306.51,-180.77 1346,-162 1365.12,-152.91 1363.87,-141.07 1383,-132 1408.42,-119.96 1471.29,-107.13 1526.58,-97.49"/>
<polygon fill="#63b8ff" stroke="#63b8ff" points="1527.18,-100.93 1536.44,-95.78 1525.99,-94.04 1527.18,-100.93"/>
</a>
</g>
</g>
<!-- Node25 -->
<g id="Node000025" class="node">
<title>Node25</title>
<g id="a_Node000025"><a xlink:href="HasUpdate_8ixx.html" target="_top" xlink:title="Concept requiring a per&#45;frame update(UpdateContext&amp;) method.">
<polygon fill="white" stroke="#666666" points="1569.5,-162 1392.5,-162 1392.5,-132 1569.5,-132 1569.5,-162"/>
<text text-anchor="start" x="1400.5" y="-150" font-family="Helvetica,sans-Serif" font-size="10.00">helios.engine.common.concepts.</text>
<text text-anchor="middle" x="1481" y="-139" font-family="Helvetica,sans-Serif" font-size="10.00">HasUpdate</text>
</a>
</g>
</g>
<!-- Node6&#45;&gt;Node25 -->
<g id="edge35_Node000006_Node000025" class="edge">
<title>Node6&#45;&gt;Node25</title>
<g id="a_edge35_Node000006_Node000025"><a xlink:title=" ">
<path fill="none" stroke="#63b8ff" d="M1183.6,-197.99C1236.95,-189.03 1322.17,-174.7 1387.74,-163.68"/>
<polygon fill="#63b8ff" stroke="#63b8ff" points="1388.39,-167.12 1397.67,-162.01 1387.23,-160.21 1388.39,-167.12"/>
</a>
</g>
</g>
<!-- Node26 -->
<g id="Node000026" class="node">
<title>Node26</title>
<g id="a_Node000026"><a xlink:href="HasReset_8ixx.html" target="_top" xlink:title="Concept detecting an optional reset() method.">
<polygon fill="white" stroke="#666666" points="1764.5,-162 1587.5,-162 1587.5,-132 1764.5,-132 1764.5,-162"/>
<text text-anchor="start" x="1595.5" y="-150" font-family="Helvetica,sans-Serif" font-size="10.00">helios.engine.common.concepts.</text>
<text text-anchor="middle" x="1676" y="-139" font-family="Helvetica,sans-Serif" font-size="10.00">HasReset</text>
</a>
</g>
</g>
<!-- Node6&#45;&gt;Node26 -->
<g id="edge37_Node000006_Node000026" class="edge">
<title>Node6&#45;&gt;Node26</title>
<g id="a_edge37_Node000006_Node000026"><a xlink:title=" ">
<path fill="none" stroke="#63b8ff" d="M1220.09,-198.89C1307.61,-190.99 1446.63,-177.75 1577.16,-162.07"/>
<polygon fill="#63b8ff" stroke="#63b8ff" points="1577.84,-165.51 1587.35,-160.84 1577,-158.56 1577.84,-165.51"/>
</a>
</g>
</g>
<!-- Node27 -->
<g id="Node000027" class="node">
<title>Node27</title>
<g id="a_Node000027"><a xlink:href="HasInit_8ixx.html" target="_top" xlink:title="Concept detecting an optional init(GameWorld&amp;) method.">
<polygon fill="white" stroke="#666666" points="1959.5,-162 1782.5,-162 1782.5,-132 1959.5,-132 1959.5,-162"/>
<text text-anchor="start" x="1790.5" y="-150" font-family="Helvetica,sans-Serif" font-size="10.00">helios.engine.common.concepts.</text>
<text text-anchor="middle" x="1871" y="-139" font-family="Helvetica,sans-Serif" font-size="10.00">HasInit</text>
</a>
</g>
</g>
<!-- Node6&#45;&gt;Node27 -->
<g id="edge39_Node000006_Node000027" class="edge">
<title>Node6&#45;&gt;Node27</title>
<g id="a_edge39_Node000006_Node000027"><a xlink:title=" ">
<path fill="none" stroke="#63b8ff" d="M1220.01,-202.51C1341.47,-196.47 1568.94,-183.51 1772.51,-162.11"/>
<polygon fill="#63b8ff" stroke="#63b8ff" points="1772.91,-165.59 1782.49,-161.05 1772.17,-158.62 1772.91,-165.59"/>
</a>
</g>
</g>
<!-- Node8 -->
<g id="Node000008" class="node">
<title>Node8</title>
<g id="a_Node000008"><a xlink:title=" ">
<polygon fill="#e0e0e0" stroke="#999999" points="1249,-24.5 1189,-24.5 1189,-5.5 1249,-5.5 1249,-24.5"/>
<text text-anchor="middle" x="1219" y="-12.5" font-family="Helvetica,sans-Serif" font-size="10.00">concepts</text>
</a>
</g>
</g>
<!-- Node7&#45;&gt;Node8 -->
<g id="edge7_Node000007_Node000008" class="edge">
<title>Node7&#45;&gt;Node8</title>
<g id="a_edge7_Node000007_Node000008"><a xlink:title=" ">
<path fill="none" stroke="#63b8ff" d="M289.55,-131.87C288.55,-113.57 289.98,-82.09 309,-66 342.65,-37.53 1007.21,-20.74 1178.83,-16.87"/>
<polygon fill="#63b8ff" stroke="#63b8ff" points="1179.03,-20.36 1188.95,-16.64 1178.88,-13.37 1179.03,-20.36"/>
</a>
</g>
</g>
<!-- Node9 -->
<g id="Node000009" class="node">
<title>Node9</title>
<g id="a_Node000009"><a xlink:href="UniformValueMap_8ixx.html" target="_top" xlink:title="Mapping of uniform names to values used by shader programs.">
<polygon fill="white" stroke="#666666" points="263,-96 129,-96 129,-66 263,-66 263,-96"/>
<text text-anchor="start" x="137" y="-84" font-family="Helvetica,sans-Serif" font-size="10.00">helios.rendering.shader.</text>
<text text-anchor="middle" x="196" y="-73" font-family="Helvetica,sans-Serif" font-size="10.00">UniformValueMap</text>
</a>
</g>
</g>
<!-- Node7&#45;&gt;Node9 -->
<g id="edge8_Node000007_Node000009" class="edge">
<title>Node7&#45;&gt;Node9</title>
<g id="a_edge8_Node000007_Node000009"><a xlink:title=" ">
<path fill="none" stroke="#63b8ff" d="M269.92,-131.8C256.88,-123.01 239.95,-111.61 225.58,-101.93"/>
<polygon fill="#63b8ff" stroke="#63b8ff" points="227.27,-98.85 217.02,-96.16 223.36,-104.65 227.27,-98.85"/>
</a>
</g>
</g>
<!-- Node10 -->
<g id="Node000010" class="node">
<title>Node10</title>
<g id="a_Node000010"><a xlink:title=" ">
<polygon fill="#e0e0e0" stroke="#999999" points="478,-24.5 436,-24.5 436,-5.5 478,-5.5 478,-24.5"/>
<text text-anchor="middle" x="457" y="-12.5" font-family="Helvetica,sans-Serif" font-size="10.00">array</text>
</a>
</g>
</g>
<!-- Node9&#45;&gt;Node10 -->
<g id="edge9_Node000009_Node000010" class="edge">
<title>Node9&#45;&gt;Node10</title>
<g id="a_edge9_Node000009_Node000010"><a xlink:title=" ">
<path fill="none" stroke="#63b8ff" d="M263.09,-67.21C320.05,-56.03 397.15,-40.05 427,-30 428.4,-29.53 429.81,-29.01 431.23,-28.47"/>
<polygon fill="#63b8ff" stroke="#63b8ff" points="432.63,-31.67 440.45,-24.53 429.88,-25.24 432.63,-31.67"/>
</a>
</g>
</g>
<!-- Node11 -->
<g id="Node000011" class="node">
<title>Node11</title>
<g id="a_Node000011"><a xlink:title=" ">
<polygon fill="#e0e0e0" stroke="#999999" points="56,-24.5 0,-24.5 0,-5.5 56,-5.5 56,-24.5"/>
<text text-anchor="middle" x="28" y="-12.5" font-family="Helvetica,sans-Serif" font-size="10.00">optional</text>
</a>
</g>
</g>
<!-- Node9&#45;&gt;Node11 -->
<g id="edge10_Node000009_Node000011" class="edge">
<title>Node9&#45;&gt;Node11</title>
<g id="a_edge10_Node000009_Node000011"><a xlink:title=" ">
<path fill="none" stroke="#63b8ff" d="M159.13,-65.95C129.41,-54.63 88.05,-38.88 59.77,-28.1"/>
<polygon fill="#63b8ff" stroke="#63b8ff" points="60.95,-24.81 50.36,-24.52 58.46,-31.35 60.95,-24.81"/>
</a>
</g>
</g>
<!-- Node12 -->
<g id="Node000012" class="node">
<title>Node12</title>
<g id="a_Node000012"><a xlink:title=" ">
<polygon fill="#e0e0e0" stroke="#999999" points="125.5,-24.5 74.5,-24.5 74.5,-5.5 125.5,-5.5 125.5,-24.5"/>
<text text-anchor="middle" x="100" y="-12.5" font-family="Helvetica,sans-Serif" font-size="10.00">variant</text>
</a>
</g>
</g>
<!-- Node9&#45;&gt;Node12 -->
<g id="edge11_Node000009_Node000012" class="edge">
<title>Node9&#45;&gt;Node12</title>
<g id="a_edge11_Node000009_Node000012"><a xlink:title=" ">
<path fill="none" stroke="#63b8ff" d="M174.69,-65.8C158.9,-55.27 137.46,-40.97 121.6,-30.4"/>
<polygon fill="#63b8ff" stroke="#63b8ff" points="123.25,-27.29 112.99,-24.66 119.37,-33.12 123.25,-27.29"/>
</a>
</g>
</g>
<!-- Node13 -->
<g id="Node000013" class="node">
<title>Node13</title>
<g id="a_Node000013"><a xlink:href="helios_2math_2types_2__module_8ixx.html" target="_top" xlink:title="Module exports for vector and matrix type definitions.">
<polygon fill="white" stroke="#666666" points="248,-24.5 144,-24.5 144,-5.5 248,-5.5 248,-24.5"/>
<text text-anchor="middle" x="196" y="-12.5" font-family="Helvetica,sans-Serif" font-size="10.00">helios.math.types</text>
</a>
</g>
</g>
<!-- Node9&#45;&gt;Node13 -->
<g id="edge12_Node000009_Node000013" class="edge">
<title>Node9&#45;&gt;Node13</title>
<g id="a_edge12_Node000009_Node000013"><a xlink:title=" ">
<path fill="none" stroke="#63b8ff" d="M196,-65.8C196,-56.7 196,-44.79 196,-34.9"/>
<polygon fill="#63b8ff" stroke="#63b8ff" points="199.5,-34.84 196,-24.84 192.5,-34.84 199.5,-34.84"/>
</a>
</g>
</g>
<!-- Node14 -->
<g id="Node000014" class="node">
<title>Node14</title>
<g id="a_Node000014"><a xlink:href="UniformSemantics_8ixx.html" target="_top" xlink:title="Definitions of uniform semantics used by shaders.">
<polygon fill="white" stroke="#666666" points="418,-30 284,-30 284,0 418,0 418,-30"/>
<text text-anchor="start" x="292" y="-18" font-family="Helvetica,sans-Serif" font-size="10.00">helios.rendering.shader.</text>
<text text-anchor="middle" x="351" y="-7" font-family="Helvetica,sans-Serif" font-size="10.00">UniformSemantics</text>
</a>
</g>
</g>
<!-- Node9&#45;&gt;Node14 -->
<g id="edge14_Node000009_Node000014" class="edge">
<title>Node9&#45;&gt;Node14</title>
<g id="a_edge14_Node000009_Node000014"><a xlink:title=" ">
<path fill="none" stroke="#63b8ff" d="M230.02,-65.95C252.83,-56.53 283.08,-44.04 307.62,-33.91"/>
<polygon fill="#63b8ff" stroke="#63b8ff" points="309.16,-37.06 317.06,-30.01 306.49,-30.59 309.16,-37.06"/>
</a>
</g>
</g>
<!-- Node13&#45;&gt;Node13 -->
<g id="edge13_Node000013_Node000013" class="edge">
<title>Node13&#45;&gt;Node13</title>
<g id="a_edge13_Node000013_Node000013"><a xlink:title=" ">
<path fill="none" stroke="#63b8ff" d="M217.86,-24.56C240.56,-30.37 266,-27.18 266,-15 266,-4.58 247.39,-0.74 227.79,-3.48"/>
<polygon fill="#63b8ff" stroke="#63b8ff" points="227,-0.07 217.86,-5.44 228.35,-6.94 227,-0.07"/>
</a>
</g>
</g>
<!-- Node15&#45;&gt;Node8 -->
<g id="edge16_Node000015_Node000008" class="edge">
<title>Node15&#45;&gt;Node8</title>
<g id="a_edge16_Node000015_Node000008"><a xlink:title=" ">
<path fill="none" stroke="#63b8ff" d="M495.69,-67.47C500.19,-66.95 504.64,-66.45 509,-66 763.25,-39.63 1070.2,-23.23 1178.67,-17.9"/>
<polygon fill="#63b8ff" stroke="#63b8ff" points="1179.02,-21.39 1188.83,-17.41 1178.68,-14.4 1179.02,-21.39"/>
</a>
</g>
</g>
<!-- Node16&#45;&gt;Node8 -->
<g id="edge18_Node000016_Node000008" class="edge">
<title>Node16&#45;&gt;Node8</title>
<g id="a_edge18_Node000016_Node000008"><a xlink:title=" ">
<path fill="none" stroke="#63b8ff" d="M617.69,-131.97C565.44,-119.49 512.12,-98.17 542,-66 585.39,-19.29 1039.02,-15.82 1178.46,-15.87"/>
<polygon fill="#63b8ff" stroke="#63b8ff" points="1178.7,-19.37 1188.7,-15.88 1178.71,-12.37 1178.7,-19.37"/>
</a>
</g>
</g>
<!-- Node17 -->
<g id="Node000017" class="node">
<title>Node17</title>
<g id="a_Node000017"><a xlink:href="SystemRole_8ixx.html" target="_top" xlink:title="Tag type for identifying System&#45;role classes at compile time.">
<polygon fill="white" stroke="#666666" points="706.5,-96 551.5,-96 551.5,-66 706.5,-66 706.5,-96"/>
<text text-anchor="start" x="559.5" y="-84" font-family="Helvetica,sans-Serif" font-size="10.00">helios.engine.common.tags.</text>
<text text-anchor="middle" x="629" y="-73" font-family="Helvetica,sans-Serif" font-size="10.00">SystemRole</text>
</a>
</g>
</g>
<!-- Node16&#45;&gt;Node17 -->
<g id="edge19_Node000016_Node000017" class="edge">
<title>Node16&#45;&gt;Node17</title>
<g id="a_edge19_Node000016_Node000017"><a xlink:title=" ">
<path fill="none" stroke="#63b8ff" d="M682.69,-131.8C673.57,-123.34 661.84,-112.46 651.67,-103.03"/>
<polygon fill="#63b8ff" stroke="#63b8ff" points="653.98,-100.4 644.27,-96.16 649.22,-105.53 653.98,-100.4"/>
</a>
</g>
</g>
<!-- Node16&#45;&gt;Node18 -->
<g id="edge20_Node000016_Node000018" class="edge">
<title>Node16&#45;&gt;Node18</title>
<g id="a_edge20_Node000016_Node000018"><a xlink:title=" ">
<path fill="none" stroke="#63b8ff" d="M723.24,-131.95C739.57,-122.87 761.02,-110.93 778.87,-101"/>
<polygon fill="#63b8ff" stroke="#63b8ff" points="780.79,-103.93 787.82,-96.01 777.38,-97.82 780.79,-103.93"/>
</a>
</g>
</g>
<!-- Node18&#45;&gt;Node8 -->
<g id="edge21_Node000018_Node000008" class="edge">
<title>Node18&#45;&gt;Node8</title>
<g id="a_edge21_Node000018_Node000008"><a xlink:title=" ">
<path fill="none" stroke="#63b8ff" d="M901.6,-66.03C987.57,-52.48 1114.2,-32.52 1178.43,-22.39"/>
<polygon fill="#63b8ff" stroke="#63b8ff" points="1179.23,-25.81 1188.56,-20.8 1178.14,-18.9 1179.23,-25.81"/>
</a>
</g>
</g>
<!-- Node19&#45;&gt;Node8 -->
<g id="edge23_Node000019_Node000008" class="edge">
<title>Node19&#45;&gt;Node8</title>
<g id="a_edge23_Node000019_Node000008"><a xlink:title=" ">
<path fill="none" stroke="#63b8ff" d="M990.19,-131.97C963.32,-116.09 928.52,-89.4 948,-66 976.84,-31.36 1110.03,-20.62 1178.34,-17.37"/>
<polygon fill="#63b8ff" stroke="#63b8ff" points="1178.89,-20.85 1188.72,-16.91 1178.58,-13.86 1178.89,-20.85"/>
</a>
</g>
</g>
<!-- Node19&#45;&gt;Node18 -->
<g id="edge27_Node000019_Node000018" class="edge">
<title>Node19&#45;&gt;Node18</title>
<g id="a_edge27_Node000019_Node000018"><a xlink:title=" ">
<path fill="none" stroke="#63b8ff" d="M972.23,-131.95C941.41,-122.28 900.27,-109.38 867.53,-99.11"/>
<polygon fill="#63b8ff" stroke="#63b8ff" points="868.25,-95.67 857.66,-96.01 866.16,-102.35 868.25,-95.67"/>
</a>
</g>
</g>
<!-- Node20 -->
<g id="Node000020" class="node">
<title>Node20</title>
<g id="a_Node000020"><a xlink:href="CommandBufferRole_8ixx.html" target="_top" xlink:title="Tag type for identifying CommandBuffer&#45;role classes at compile time.">
<polygon fill="white" stroke="#666666" points="1112.5,-96 957.5,-96 957.5,-66 1112.5,-66 1112.5,-96"/>
<text text-anchor="start" x="965.5" y="-84" font-family="Helvetica,sans-Serif" font-size="10.00">helios.engine.common.tags.</text>
<text text-anchor="middle" x="1035" y="-73" font-family="Helvetica,sans-Serif" font-size="10.00">CommandBufferRole</text>
</a>
</g>
</g>
<!-- Node19&#45;&gt;Node20 -->
<g id="edge24_Node000019_Node000020" class="edge">
<title>Node19&#45;&gt;Node20</title>
<g id="a_edge24_Node000019_Node000020"><a xlink:title=" ">
<path fill="none" stroke="#63b8ff" d="M1020.99,-131.8C1023.14,-124.17 1025.84,-114.57 1028.29,-105.84"/>
<polygon fill="#63b8ff" stroke="#63b8ff" points="1031.68,-106.74 1031.02,-96.16 1024.94,-104.84 1031.68,-106.74"/>
</a>
</g>
</g>
<!-- Node19&#45;&gt;Node21 -->
<g id="edge25_Node000019_Node000021" class="edge">
<title>Node19&#45;&gt;Node21</title>
<g id="a_edge25_Node000019_Node000021"><a xlink:title=" ">
<path fill="none" stroke="#63b8ff" d="M1061.33,-131.95C1091.85,-122.28 1132.58,-109.38 1165,-99.11"/>
<polygon fill="#63b8ff" stroke="#63b8ff" points="1166.3,-102.37 1174.77,-96.01 1164.18,-95.7 1166.3,-102.37"/>
</a>
</g>
</g>
<!-- Node21&#45;&gt;Node8 -->
<g id="edge26_Node000021_Node000008" class="edge">
<title>Node21&#45;&gt;Node8</title>
<g id="a_edge26_Node000021_Node000008"><a xlink:title=" ">
<path fill="none" stroke="#63b8ff" d="M1219,-65.8C1219,-56.7 1219,-44.79 1219,-34.9"/>
<polygon fill="#63b8ff" stroke="#63b8ff" points="1222.5,-34.84 1219,-24.84 1215.5,-34.84 1222.5,-34.84"/>
</a>
</g>
</g>
<!-- Node22&#45;&gt;Node8 -->
<g id="edge29_Node000022_Node000008" class="edge">
<title>Node22&#45;&gt;Node8</title>
<g id="a_edge29_Node000022_Node000008"><a xlink:title=" ">
<path fill="none" stroke="#63b8ff" d="M1279.03,-131.84C1292.98,-123.53 1308.19,-111.57 1316,-96 1321.98,-84.08 1322.94,-77.38 1316,-66 1303.57,-45.61 1279.87,-33.18 1259,-25.81"/>
<polygon fill="#63b8ff" stroke="#63b8ff" points="1259.95,-22.44 1249.36,-22.68 1257.79,-29.1 1259.95,-22.44"/>
</a>
</g>
</g>
<!-- Node22&#45;&gt;Node18 -->
<g id="edge31_Node000022_Node000018" class="edge">
<title>Node22&#45;&gt;Node18</title>
<g id="a_edge31_Node000022_Node000018"><a xlink:title=" ">
<path fill="none" stroke="#63b8ff" d="M1160.24,-132.97C1088.04,-122.37 986.24,-107.43 911.53,-96.46"/>
<polygon fill="#63b8ff" stroke="#63b8ff" points="912.03,-93 901.63,-95.01 911.02,-99.93 912.03,-93"/>
</a>
</g>
</g>
<!-- Node23 -->
<g id="Node000023" class="node">
<title>Node23</title>
<g id="a_Node000023"><a xlink:href="ManagerRole_8ixx.html" target="_top" xlink:title="Tag type for identifying Manager&#45;role classes at compile time.">
<polygon fill="white" stroke="#666666" points="1518.5,-96 1363.5,-96 1363.5,-66 1518.5,-66 1518.5,-96"/>
<text text-anchor="start" x="1371.5" y="-84" font-family="Helvetica,sans-Serif" font-size="10.00">helios.engine.common.tags.</text>
<text text-anchor="middle" x="1441" y="-73" font-family="Helvetica,sans-Serif" font-size="10.00">ManagerRole</text>
</a>
</g>
</g>
<!-- Node22&#45;&gt;Node23 -->
<g id="edge30_Node000022_Node000023" class="edge">
<title>Node22&#45;&gt;Node23</title>
<g id="a_edge30_Node000022_Node000023"><a xlink:title=" ">
<path fill="none" stroke="#63b8ff" d="M1291.14,-131.95C1320.02,-122.33 1358.53,-109.49 1389.27,-99.24"/>
<polygon fill="#63b8ff" stroke="#63b8ff" points="1390.58,-102.5 1398.96,-96.01 1388.37,-95.85 1390.58,-102.5"/>
</a>
</g>
</g>
<!-- Node24&#45;&gt;Node8 -->
<g id="edge33_Node000024_Node000008" class="edge">
<title>Node24&#45;&gt;Node8</title>
<g id="a_edge33_Node000024_Node000008"><a xlink:title=" ">
<path fill="none" stroke="#63b8ff" d="M1536.4,-66.03C1450.43,-52.48 1323.8,-32.52 1259.57,-22.39"/>
<polygon fill="#63b8ff" stroke="#63b8ff" points="1259.86,-18.9 1249.44,-20.8 1258.77,-25.81 1259.86,-18.9"/>
</a>
</g>
</g>
<!-- Node25&#45;&gt;Node8 -->
<g id="edge36_Node000025_Node000008" class="edge">
<title>Node25&#45;&gt;Node8</title>
<g id="a_edge36_Node000025_Node000008"><a xlink:title=" ">
<path fill="none" stroke="#63b8ff" d="M1569.51,-133.23C1634.46,-122.95 1713.03,-108.25 1723,-96 1731.42,-85.66 1731.95,-75.88 1723,-66 1692.02,-31.79 1372.88,-20.06 1259.06,-16.95"/>
<polygon fill="#63b8ff" stroke="#63b8ff" points="1259.1,-13.45 1249.01,-16.68 1258.92,-20.45 1259.1,-13.45"/>
</a>
</g>
</g>
<!-- Node26&#45;&gt;Node8 -->
<g id="edge38_Node000026_Node000008" class="edge">
<title>Node26&#45;&gt;Node8</title>
<g id="a_edge38_Node000026_Node000008"><a xlink:title=" ">
<path fill="none" stroke="#63b8ff" d="M1700.61,-131.98C1726.25,-115.66 1760.09,-88.12 1740,-66 1707.85,-30.62 1376.53,-19.62 1259.59,-16.83"/>
<polygon fill="#63b8ff" stroke="#63b8ff" points="1259.36,-13.32 1249.28,-16.59 1259.2,-20.32 1259.36,-13.32"/>
</a>
</g>
</g>
<!-- Node27&#45;&gt;Node8 -->
<g id="edge40_Node000027_Node000008" class="edge">
<title>Node27&#45;&gt;Node8</title>
<g id="a_edge40_Node000027_Node000008"><a xlink:title=" ">
<path fill="none" stroke="#63b8ff" d="M1856.26,-131.75C1835.85,-112.99 1796.94,-80.68 1757,-66 1665.51,-32.37 1367.99,-20.39 1259.26,-17.07"/>
<polygon fill="#63b8ff" stroke="#63b8ff" points="1259.14,-13.57 1249.04,-16.77 1258.93,-20.56 1259.14,-13.57"/>
</a>
</g>
</g>
</g>
</svg>

<g id="navigator" transform="translate(0 0)" fill="#404254">
  <rect fill="#f2f5e9" fill-opacity="0.5" stroke="#606060" stroke-width=".5" x="0" y="0" width="60" height="60"/>
  <use id="zoomplus" xlink:href="#zoomPlus" x="17" y="9" onmousedown="handleZoom(evt,'in')"/>
  <use id="zoomminus" xlink:href="#zoomMin" x="42" y="9" onmousedown="handleZoom(evt,'out')"/>
  <use id="reset" xlink:href="#resetDef" x="30" y="36" onmousedown="handleReset()"/>
   <use id="arrowup" xlink:href="#arrowUp" x="0" y="0" onmousedown="handlePan(0,-1)"/>
  <use id="arrowright" xlink:href="#arrowRight" x="0" y="0" onmousedown="handlePan(1,0)"/>
  <use id="arrowdown" xlink:href="#arrowDown" x="0" y="0" onmousedown="handlePan(0,1)"/>
  <use id="arrowleft" xlink:href="#arrowLeft" x="0" y="0" onmousedown="handlePan(-1,0)"/>
</g>
<svg viewBox="0 0 15 15" width="100%" height="30px" preserveAspectRatio="xMaxYMin meet">
 <g id="arrow_out" transform="scale(0.3 0.3)">
  <a xlink:href="ConceptModelRegistry_8ixx__incl_org.svg" target="_base">
   <rect id="button" ry="5" rx="5" y="6" x="6" height="38" width="38"
        fill="#f2f5e9" fill-opacity="0.5" stroke="#606060" stroke-width="1.0"/>
   <path id="arrow"
     d="M 11.500037,31.436501 C 11.940474,20.09759 22.043105,11.32322 32.158766,21.979434 L 37.068811,17.246167 C 37.068811,17.246167 37.088388,32 37.088388,32 L 22.160133,31.978069 C 22.160133,31.978069 26.997745,27.140456 26.997745,27.140456 C 18.528582,18.264221 13.291696,25.230495 11.500037,31.436501 z"
     style="fill:#404040;"/>
  </a>
 </g>
</svg>

<style type='text/css'>
<![CDATA[
[data-mouse-over-selected='false'] { opacity: 0.7; }
[data-mouse-over-selected='true']  { opacity: 1.0; }
]]>
</style>
<script type="application/ecmascript"><![CDATA[
document.addEventListener('DOMContentLoaded', (event) => {
  highlightEdges();
  highlightAdjacentNodes();
});
]]></script>
</svg>
