<?xml version="1.0" encoding="UTF-8" standalone="no"?>
<!DOCTYPE svg PUBLIC "-//W3C//DTD SVG 1.1//EN"
 "http://www.w3.org/Graphics/SVG/1.1/DTD/svg11.dtd">
<!-- Generated by graphviz version 2.43.0 (0)
 -->
<!-- Title: Controller.ixx Pages: 1 -->
<svg width="371pt" height="302pt"
 viewBox="0.00 0.00 370.50 302.00" xmlns="http://www.w3.org/2000/svg" xmlns:xlink="http://www.w3.org/1999/xlink">
<g id="graph0" class="graph" transform="scale(1 1) rotate(0) translate(4 298)">
<title>Controller.ixx</title>
<!-- Node1 -->
<g id="Node000001" class="node">
<title>Node1</title>
<g id="a_Node000001"><a xlink:title="Base class for application controllers that integrate subsystems.">
<polygon fill="#999999" stroke="#666666" points="156,-294 74,-294 74,-275 156,-275 156,-294"/>
<text text-anchor="middle" x="115" y="-282" font-family="Helvetica,sans-Serif" font-size="10.00">Controller.ixx</text>
</a>
</g>
</g>
<!-- Node2 -->
<g id="Node000002" class="node">
<title>Node2</title>
<g id="a_Node000002"><a xlink:title=" ">
<polygon fill="#e0e0e0" stroke="#999999" points="44,-129 0,-129 0,-110 44,-110 44,-129"/>
<text text-anchor="middle" x="22" y="-117" font-family="Helvetica,sans-Serif" font-size="10.00">string</text>
</a>
</g>
</g>
<!-- Node1&#45;&gt;Node2 -->
<g id="edge1_Node000001_Node000002" class="edge">
<title>Node1&#45;&gt;Node2</title>
<g id="a_edge1_Node000001_Node000002"><a xlink:title=" ">
<path fill="none" stroke="#63b8ff" d="M106.91,-274.88C91.89,-258.44 59.54,-220.94 41,-184 33.81,-169.68 28.83,-152.16 25.77,-139.15"/>
<polygon fill="#63b8ff" stroke="#63b8ff" points="29.12,-138.1 23.57,-129.07 22.28,-139.59 29.12,-138.1"/>
</a>
</g>
</g>
<!-- Node3 -->
<g id="Node000003" class="node">
<title>Node3</title>
<g id="a_Node000003"><a xlink:href="Dispatcher_8ixx.html" target="_top" xlink:title="Dispatches events to registered callbacks.">
<polygon fill="white" stroke="#666666" points="274,-239 142,-239 142,-220 274,-220 274,-239"/>
<text text-anchor="middle" x="208" y="-227" font-family="Helvetica,sans-Serif" font-size="10.00">helios.event.Dispatcher</text>
</a>
</g>
</g>
<!-- Node1&#45;&gt;Node3 -->
<g id="edge2_Node000001_Node000003" class="edge">
<title>Node1&#45;&gt;Node3</title>
<g id="a_edge2_Node000001_Node000003"><a xlink:title=" ">
<path fill="none" stroke="#63b8ff" d="M129.94,-274.98C144.5,-266.69 166.87,-253.94 183.93,-244.22"/>
<polygon fill="#63b8ff" stroke="#63b8ff" points="185.83,-247.16 192.79,-239.17 182.36,-241.08 185.83,-247.16"/>
</a>
</g>
</g>
<!-- Node4 -->
<g id="Node000004" class="node">
<title>Node4</title>
<g id="a_Node000004"><a xlink:title=" ">
<polygon fill="#e0e0e0" stroke="#999999" points="362.5,-184 297.5,-184 297.5,-165 362.5,-165 362.5,-184"/>
<text text-anchor="middle" x="330" y="-172" font-family="Helvetica,sans-Serif" font-size="10.00">functional</text>
</a>
</g>
</g>
<!-- Node3&#45;&gt;Node4 -->
<g id="edge3_Node000003_Node000004" class="edge">
<title>Node3&#45;&gt;Node4</title>
<g id="a_edge3_Node000003_Node000004"><a xlink:title=" ">
<path fill="none" stroke="#63b8ff" d="M227.6,-219.98C247.32,-211.42 277.95,-198.11 300.58,-188.28"/>
<polygon fill="#63b8ff" stroke="#63b8ff" points="302.26,-191.37 310.04,-184.17 299.48,-184.94 302.26,-191.37"/>
</a>
</g>
</g>
<!-- Node5 -->
<g id="Node000005" class="node">
<title>Node5</title>
<g id="a_Node000005"><a xlink:title=" ">
<polygon fill="#e0e0e0" stroke="#999999" points="263,-129 205,-129 205,-110 263,-110 263,-129"/>
<text text-anchor="middle" x="234" y="-117" font-family="Helvetica,sans-Serif" font-size="10.00">memory</text>
</a>
</g>
</g>
<!-- Node3&#45;&gt;Node5 -->
<g id="edge4_Node000003_Node000005" class="edge">
<title>Node3&#45;&gt;Node5</title>
<g id="a_edge4_Node000003_Node000005"><a xlink:title=" ">
<path fill="none" stroke="#63b8ff" d="M220.21,-219.86C230.35,-211.88 244.04,-199.01 250,-184 255.9,-169.16 250.51,-151.49 244.44,-138.56"/>
<polygon fill="#63b8ff" stroke="#63b8ff" points="247.36,-136.6 239.63,-129.36 241.16,-139.84 247.36,-136.6"/>
</a>
</g>
</g>
<!-- Node6 -->
<g id="Node000006" class="node">
<title>Node6</title>
<g id="a_Node000006"><a xlink:title=" ">
<polygon fill="#e0e0e0" stroke="#999999" points="240.5,-184 175.5,-184 175.5,-165 240.5,-165 240.5,-184"/>
<text text-anchor="middle" x="208" y="-172" font-family="Helvetica,sans-Serif" font-size="10.00">typeindex</text>
</a>
</g>
</g>
<!-- Node3&#45;&gt;Node6 -->
<g id="edge5_Node000003_Node000006" class="edge">
<title>Node3&#45;&gt;Node6</title>
<g id="a_edge5_Node000003_Node000006"><a xlink:title=" ">
<path fill="none" stroke="#63b8ff" d="M208,-219.75C208,-212.8 208,-202.85 208,-194.13"/>
<polygon fill="#63b8ff" stroke="#63b8ff" points="211.5,-194.09 208,-184.09 204.5,-194.09 211.5,-194.09"/>
</a>
</g>
</g>
<!-- Node7 -->
<g id="Node000007" class="node">
<title>Node7</title>
<g id="a_Node000007"><a xlink:href="Event_8ixx.html" target="_top" xlink:title="Base class for events in the helios framework.">
<polygon fill="white" stroke="#666666" points="157.5,-184 50.5,-184 50.5,-165 157.5,-165 157.5,-184"/>
<text text-anchor="middle" x="104" y="-172" font-family="Helvetica,sans-Serif" font-size="10.00">helios.event.Event</text>
</a>
</g>
</g>
<!-- Node3&#45;&gt;Node7 -->
<g id="edge6_Node000003_Node000007" class="edge">
<title>Node3&#45;&gt;Node7</title>
<g id="a_edge6_Node000003_Node000007"><a xlink:title=" ">
<path fill="none" stroke="#63b8ff" d="M191.29,-219.98C174.79,-211.57 149.3,-198.59 130.12,-188.81"/>
<polygon fill="#63b8ff" stroke="#63b8ff" points="131.51,-185.59 121.01,-184.17 128.33,-191.83 131.51,-185.59"/>
</a>
</g>
</g>
<!-- Node7&#45;&gt;Node2 -->
<g id="edge8_Node000007_Node000002" class="edge">
<title>Node7&#45;&gt;Node2</title>
<g id="a_edge8_Node000007_Node000002"><a xlink:title=" ">
<path fill="none" stroke="#63b8ff" d="M90.83,-164.98C78.23,-156.84 59,-144.41 44.06,-134.76"/>
<polygon fill="#63b8ff" stroke="#63b8ff" points="45.71,-131.66 35.41,-129.17 41.91,-137.54 45.71,-131.66"/>
</a>
</g>
</g>
<!-- Node7&#45;&gt;Node5 -->
<g id="edge7_Node000007_Node000005" class="edge">
<title>Node7&#45;&gt;Node5</title>
<g id="a_edge7_Node000007_Node000005"><a xlink:title=" ">
<path fill="none" stroke="#63b8ff" d="M124.89,-164.98C146.08,-156.34 179.13,-142.87 203.3,-133.02"/>
<polygon fill="#63b8ff" stroke="#63b8ff" points="204.79,-136.19 212.73,-129.17 202.15,-129.7 204.79,-136.19"/>
</a>
</g>
</g>
<!-- Node8 -->
<g id="Node000008" class="node">
<title>Node8</title>
<g id="a_Node000008"><a xlink:href="Guid_8ixx.html" target="_top" xlink:title="Lightweight GUID (globally unique identifier) implementation.">
<polygon fill="white" stroke="#666666" points="152,-129 62,-129 62,-110 152,-110 152,-129"/>
<text text-anchor="middle" x="107" y="-117" font-family="Helvetica,sans-Serif" font-size="10.00">helios.util.Guid</text>
</a>
</g>
</g>
<!-- Node7&#45;&gt;Node8 -->
<g id="edge9_Node000007_Node000008" class="edge">
<title>Node7&#45;&gt;Node8</title>
<g id="a_edge9_Node000007_Node000008"><a xlink:title=" ">
<path fill="none" stroke="#63b8ff" d="M104.5,-164.75C104.89,-157.8 105.45,-147.85 105.95,-139.13"/>
<polygon fill="#63b8ff" stroke="#63b8ff" points="109.44,-139.27 106.51,-129.09 102.45,-138.88 109.44,-139.27"/>
</a>
</g>
</g>
<!-- Node9 -->
<g id="Node000009" class="node">
<title>Node9</title>
<g id="a_Node000009"><a xlink:title=" ">
<polygon fill="#e0e0e0" stroke="#999999" points="79,-74 29,-74 29,-55 79,-55 79,-74"/>
<text text-anchor="middle" x="54" y="-62" font-family="Helvetica,sans-Serif" font-size="10.00">atomic</text>
</a>
</g>
</g>
<!-- Node8&#45;&gt;Node9 -->
<g id="edge10_Node000008_Node000009" class="edge">
<title>Node8&#45;&gt;Node9</title>
<g id="a_edge10_Node000008_Node000009"><a xlink:title=" ">
<path fill="none" stroke="#63b8ff" d="M98.25,-109.75C90.53,-102.03 79.1,-90.6 69.78,-81.28"/>
<polygon fill="#63b8ff" stroke="#63b8ff" points="72.14,-78.69 62.59,-74.09 67.19,-83.64 72.14,-78.69"/>
</a>
</g>
</g>
<!-- Node10 -->
<g id="Node000010" class="node">
<title>Node10</title>
<g id="a_Node000010"><a xlink:title=" ">
<polygon fill="#e0e0e0" stroke="#999999" points="139,-19 89,-19 89,0 139,0 139,-19"/>
<text text-anchor="middle" x="114" y="-7" font-family="Helvetica,sans-Serif" font-size="10.00">cstdint</text>
</a>
</g>
</g>
<!-- Node8&#45;&gt;Node10 -->
<g id="edge11_Node000008_Node000010" class="edge">
<title>Node8&#45;&gt;Node10</title>
<g id="a_edge11_Node000008_Node000010"><a xlink:title=" ">
<path fill="none" stroke="#63b8ff" d="M107.57,-109.66C108.71,-92.17 111.26,-52.8 112.78,-29.27"/>
<polygon fill="#63b8ff" stroke="#63b8ff" points="116.28,-29.36 113.44,-19.16 109.3,-28.91 116.28,-29.36"/>
</a>
</g>
</g>
<!-- Node11 -->
<g id="Node000011" class="node">
<title>Node11</title>
<g id="a_Node000011"><a xlink:href="types_8ixx.html" target="_top" xlink:title="Core type definitions and tag types for the helios engine.">
<polygon fill="white" stroke="#666666" points="235,-74 135,-74 135,-55 235,-55 235,-74"/>
<text text-anchor="middle" x="185" y="-62" font-family="Helvetica,sans-Serif" font-size="10.00">helios.core.types</text>
</a>
</g>
</g>
<!-- Node8&#45;&gt;Node11 -->
<g id="edge12_Node000008_Node000011" class="edge">
<title>Node8&#45;&gt;Node11</title>
<g id="a_edge12_Node000008_Node000011"><a xlink:title=" ">
<path fill="none" stroke="#63b8ff" d="M119.53,-109.98C131.4,-101.92 149.46,-89.65 163.61,-80.03"/>
<polygon fill="#63b8ff" stroke="#63b8ff" points="165.94,-82.69 172.24,-74.17 162,-76.9 165.94,-82.69"/>
</a>
</g>
</g>
<!-- Node11&#45;&gt;Node10 -->
<g id="edge13_Node000011_Node000010" class="edge">
<title>Node11&#45;&gt;Node10</title>
<g id="a_edge13_Node000011_Node000010"><a xlink:title=" ">
<path fill="none" stroke="#63b8ff" d="M173.59,-54.98C162.89,-47 146.66,-34.88 133.84,-25.31"/>
<polygon fill="#63b8ff" stroke="#63b8ff" points="135.72,-22.35 125.61,-19.17 131.53,-27.96 135.72,-22.35"/>
</a>
</g>
</g>
<!-- Node12 -->
<g id="Node000012" class="node">
<title>Node12</title>
<g id="a_Node000012"><a xlink:title=" ">
<polygon fill="#e0e0e0" stroke="#999999" points="207,-19 163,-19 163,0 207,0 207,-19"/>
<text text-anchor="middle" x="185" y="-7" font-family="Helvetica,sans-Serif" font-size="10.00">limits</text>
</a>
</g>
</g>
<!-- Node11&#45;&gt;Node12 -->
<g id="edge14_Node000011_Node000012" class="edge">
<title>Node11&#45;&gt;Node12</title>
<g id="a_edge14_Node000011_Node000012"><a xlink:title=" ">
<path fill="none" stroke="#63b8ff" d="M185,-54.75C185,-47.8 185,-37.85 185,-29.13"/>
<polygon fill="#63b8ff" stroke="#63b8ff" points="188.5,-29.09 185,-19.09 181.5,-29.09 188.5,-29.09"/>
</a>
</g>
</g>
</g>
</svg>
