<?xml version="1.0" encoding="UTF-8" standalone="no"?>
<!DOCTYPE svg PUBLIC "-//W3C//DTD SVG 1.1//EN"
 "http://www.w3.org/Graphics/SVG/1.1/DTD/svg11.dtd">
<!-- Generated by graphviz version 2.43.0 (0)
 -->
<!-- Title: SparseSet.ixx Pages: 1 -->
<svg width="367pt" height="192pt"
 viewBox="0.00 0.00 367.00 192.00" xmlns="http://www.w3.org/2000/svg" xmlns:xlink="http://www.w3.org/1999/xlink">
<g id="graph0" class="graph" transform="scale(1 1) rotate(0) translate(4 188)">
<title>SparseSet.ixx</title>
<!-- Node1 -->
<g id="Node000001" class="node">
<title>Node1</title>
<g id="a_Node000001"><a xlink:title="Generic sparse set data structure for efficient entity&#45;keyed storage.">
<polygon fill="#999999" stroke="#666666" points="173.5,-184 90.5,-184 90.5,-165 173.5,-165 173.5,-184"/>
<text text-anchor="middle" x="132" y="-172" font-family="Helvetica,sans-Serif" font-size="10.00">SparseSet.ixx</text>
</a>
</g>
</g>
<!-- Node2 -->
<g id="Node000002" class="node">
<title>Node2</title>
<g id="a_Node000002"><a xlink:title=" ">
<polygon fill="#e0e0e0" stroke="#999999" points="52,-129 0,-129 0,-110 52,-110 52,-129"/>
<text text-anchor="middle" x="26" y="-117" font-family="Helvetica,sans-Serif" font-size="10.00">cassert</text>
</a>
</g>
</g>
<!-- Node1&#45;&gt;Node2 -->
<g id="edge1_Node000001_Node000002" class="edge">
<title>Node1&#45;&gt;Node2</title>
<g id="a_edge1_Node000001_Node000002"><a xlink:title=" ">
<path fill="none" stroke="#63b8ff" d="M114.97,-164.98C98.07,-156.54 71.94,-143.47 52.36,-133.68"/>
<polygon fill="#63b8ff" stroke="#63b8ff" points="53.85,-130.51 43.34,-129.17 50.72,-136.77 53.85,-130.51"/>
</a>
</g>
</g>
<!-- Node3 -->
<g id="Node000003" class="node">
<title>Node3</title>
<g id="a_Node000003"><a xlink:title=" ">
<polygon fill="#e0e0e0" stroke="#999999" points="200.5,-74 135.5,-74 135.5,-55 200.5,-55 200.5,-74"/>
<text text-anchor="middle" x="168" y="-62" font-family="Helvetica,sans-Serif" font-size="10.00">functional</text>
</a>
</g>
</g>
<!-- Node1&#45;&gt;Node3 -->
<g id="edge2_Node000001_Node000003" class="edge">
<title>Node1&#45;&gt;Node3</title>
<g id="a_edge2_Node000001_Node000003"><a xlink:title=" ">
<path fill="none" stroke="#63b8ff" d="M121.73,-164.82C108.51,-152.53 88.42,-129.42 99,-110 106.65,-95.97 120.83,-85.69 134.36,-78.57"/>
<polygon fill="#63b8ff" stroke="#63b8ff" points="136.05,-81.64 143.53,-74.14 133.01,-75.34 136.05,-81.64"/>
</a>
</g>
</g>
<!-- Node4 -->
<g id="Node000004" class="node">
<title>Node4</title>
<g id="a_Node000004"><a xlink:title=" ">
<polygon fill="#e0e0e0" stroke="#999999" points="155.5,-129 108.5,-129 108.5,-110 155.5,-110 155.5,-129"/>
<text text-anchor="middle" x="132" y="-117" font-family="Helvetica,sans-Serif" font-size="10.00">vector</text>
</a>
</g>
</g>
<!-- Node1&#45;&gt;Node4 -->
<g id="edge3_Node000001_Node000004" class="edge">
<title>Node1&#45;&gt;Node4</title>
<g id="a_edge3_Node000001_Node000004"><a xlink:title=" ">
<path fill="none" stroke="#63b8ff" d="M132,-164.75C132,-157.8 132,-147.85 132,-139.13"/>
<polygon fill="#63b8ff" stroke="#63b8ff" points="135.5,-139.09 132,-129.09 128.5,-139.09 135.5,-139.09"/>
</a>
</g>
</g>
<!-- Node5 -->
<g id="Node000005" class="node">
<title>Node5</title>
<g id="a_Node000005"><a xlink:href="types_8ixx.html" target="_top" xlink:title="Core type definitions and tag types for the helios engine.">
<polygon fill="white" stroke="#666666" points="354,-74 254,-74 254,-55 354,-55 354,-74"/>
<text text-anchor="middle" x="304" y="-62" font-family="Helvetica,sans-Serif" font-size="10.00">helios.core.types</text>
</a>
</g>
</g>
<!-- Node1&#45;&gt;Node5 -->
<g id="edge4_Node000001_Node000005" class="edge">
<title>Node1&#45;&gt;Node5</title>
<g id="a_edge4_Node000001_Node000005"><a xlink:title=" ">
<path fill="none" stroke="#63b8ff" d="M173.85,-170.52C227.99,-165.69 317.78,-154.06 338,-129 349.82,-114.36 336,-94.99 322.59,-81.51"/>
<polygon fill="#63b8ff" stroke="#63b8ff" points="324.64,-78.63 314.95,-74.34 319.84,-83.73 324.64,-78.63"/>
</a>
</g>
</g>
<!-- Node8 -->
<g id="Node000008" class="node">
<title>Node8</title>
<g id="a_Node000008"><a xlink:href="core_2ecs_2EntityHandle_8ixx.html" target="_top" xlink:title="Versioned, strongly&#45;typed handle for referencing entities.">
<polygon fill="white" stroke="#666666" points="328.5,-129 173.5,-129 173.5,-110 328.5,-110 328.5,-129"/>
<text text-anchor="middle" x="251" y="-117" font-family="Helvetica,sans-Serif" font-size="10.00">helios.core.ecs.EntityHandle</text>
</a>
</g>
</g>
<!-- Node1&#45;&gt;Node8 -->
<g id="edge7_Node000001_Node000008" class="edge">
<title>Node1&#45;&gt;Node8</title>
<g id="a_edge7_Node000001_Node000008"><a xlink:title=" ">
<path fill="none" stroke="#63b8ff" d="M151.12,-164.98C170.35,-156.42 200.23,-143.11 222.31,-133.28"/>
<polygon fill="#63b8ff" stroke="#63b8ff" points="223.82,-136.44 231.53,-129.17 220.97,-130.04 223.82,-136.44"/>
</a>
</g>
</g>
<!-- Node6 -->
<g id="Node000006" class="node">
<title>Node6</title>
<g id="a_Node000006"><a xlink:title=" ">
<polygon fill="#e0e0e0" stroke="#999999" points="297,-19 247,-19 247,0 297,0 297,-19"/>
<text text-anchor="middle" x="272" y="-7" font-family="Helvetica,sans-Serif" font-size="10.00">cstdint</text>
</a>
</g>
</g>
<!-- Node5&#45;&gt;Node6 -->
<g id="edge5_Node000005_Node000006" class="edge">
<title>Node5&#45;&gt;Node6</title>
<g id="a_edge5_Node000005_Node000006"><a xlink:title=" ">
<path fill="none" stroke="#63b8ff" d="M298.72,-54.75C294.29,-47.42 287.84,-36.73 282.38,-27.7"/>
<polygon fill="#63b8ff" stroke="#63b8ff" points="285.35,-25.84 277.19,-19.09 279.36,-29.46 285.35,-25.84"/>
</a>
</g>
</g>
<!-- Node7 -->
<g id="Node000007" class="node">
<title>Node7</title>
<g id="a_Node000007"><a xlink:title=" ">
<polygon fill="#e0e0e0" stroke="#999999" points="359,-19 315,-19 315,0 359,0 359,-19"/>
<text text-anchor="middle" x="337" y="-7" font-family="Helvetica,sans-Serif" font-size="10.00">limits</text>
</a>
</g>
</g>
<!-- Node5&#45;&gt;Node7 -->
<g id="edge6_Node000005_Node000007" class="edge">
<title>Node5&#45;&gt;Node7</title>
<g id="a_edge6_Node000005_Node000007"><a xlink:title=" ">
<path fill="none" stroke="#63b8ff" d="M309.45,-54.75C314.01,-47.42 320.67,-36.73 326.29,-27.7"/>
<polygon fill="#63b8ff" stroke="#63b8ff" points="329.34,-29.43 331.65,-19.09 323.4,-25.73 329.34,-29.43"/>
</a>
</g>
</g>
<!-- Node8&#45;&gt;Node3 -->
<g id="edge8_Node000008_Node000003" class="edge">
<title>Node8&#45;&gt;Node3</title>
<g id="a_edge8_Node000008_Node000003"><a xlink:title=" ">
<path fill="none" stroke="#63b8ff" d="M237.66,-109.98C224.91,-101.84 205.45,-89.41 190.33,-79.76"/>
<polygon fill="#63b8ff" stroke="#63b8ff" points="191.89,-76.6 181.58,-74.17 188.12,-82.5 191.89,-76.6"/>
</a>
</g>
</g>
<!-- Node8&#45;&gt;Node5 -->
<g id="edge9_Node000008_Node000005" class="edge">
<title>Node8&#45;&gt;Node5</title>
<g id="a_edge9_Node000008_Node000005"><a xlink:title=" ">
<path fill="none" stroke="#63b8ff" d="M259.75,-109.75C267.47,-102.03 278.9,-90.6 288.22,-81.28"/>
<polygon fill="#63b8ff" stroke="#63b8ff" points="290.81,-83.64 295.41,-74.09 285.86,-78.69 290.81,-83.64"/>
</a>
</g>
</g>
</g>
</svg>
