<?xml version="1.0" encoding="UTF-8" standalone="no"?>
<!DOCTYPE svg PUBLIC "-//W3C//DTD SVG 1.1//EN"
 "http://www.w3.org/Graphics/SVG/1.1/DTD/svg11.dtd">
<!-- Generated by graphviz version 2.43.0 (0)
 -->
<!-- Title: DamageDealerComponent.ixx Pages: 1 -->
<svg width="542pt" height="148pt"
 viewBox="0.00 0.00 542.00 148.00" xmlns="http://www.w3.org/2000/svg" xmlns:xlink="http://www.w3.org/1999/xlink">
<g id="graph0" class="graph" transform="scale(1 1) rotate(0) translate(4 144)">
<title>DamageDealerComponent.ixx</title>
<!-- Node1 -->
<g id="Node000001" class="node">
<title>Node1</title>
<g id="a_Node000001"><a xlink:title="Component for defining layer&#45;based damage values.">
<polygon fill="#999999" stroke="#666666" points="268,-140 104,-140 104,-121 268,-121 268,-140"/>
<text text-anchor="middle" x="186" y="-128" font-family="Helvetica,sans-Serif" font-size="10.00">DamageDealerComponent.ixx</text>
</a>
</g>
</g>
<!-- Node2 -->
<g id="Node000002" class="node">
<title>Node2</title>
<g id="a_Node000002"><a xlink:title=" ">
<polygon fill="#e0e0e0" stroke="#999999" points="64,-79.5 0,-79.5 0,-60.5 64,-60.5 64,-79.5"/>
<text text-anchor="middle" x="32" y="-67.5" font-family="Helvetica,sans-Serif" font-size="10.00">algorithm</text>
</a>
</g>
</g>
<!-- Node1&#45;&gt;Node2 -->
<g id="edge1_Node000001_Node000002" class="edge">
<title>Node1&#45;&gt;Node2</title>
<g id="a_edge1_Node000001_Node000002"><a xlink:title=" ">
<path fill="none" stroke="#63b8ff" d="M163.61,-120.99C137.38,-111.03 93.72,-94.45 63.94,-83.13"/>
<polygon fill="#63b8ff" stroke="#63b8ff" points="65.01,-79.8 54.42,-79.52 62.53,-86.34 65.01,-79.8"/>
</a>
</g>
</g>
<!-- Node3 -->
<g id="Node000003" class="node">
<title>Node3</title>
<g id="a_Node000003"><a xlink:title=" ">
<polygon fill="#e0e0e0" stroke="#999999" points="124,-79.5 82,-79.5 82,-60.5 124,-60.5 124,-79.5"/>
<text text-anchor="middle" x="103" y="-67.5" font-family="Helvetica,sans-Serif" font-size="10.00">array</text>
</a>
</g>
</g>
<!-- Node1&#45;&gt;Node3 -->
<g id="edge2_Node000001_Node000003" class="edge">
<title>Node1&#45;&gt;Node3</title>
<g id="a_edge2_Node000001_Node000003"><a xlink:title=" ">
<path fill="none" stroke="#63b8ff" d="M173.75,-120.87C160.64,-111.62 139.58,-96.78 123.85,-85.69"/>
<polygon fill="#63b8ff" stroke="#63b8ff" points="125.49,-82.57 115.3,-79.67 121.45,-88.29 125.49,-82.57"/>
</a>
</g>
</g>
<!-- Node4 -->
<g id="Node000004" class="node">
<title>Node4</title>
<g id="a_Node000004"><a xlink:title=" ">
<polygon fill="#e0e0e0" stroke="#999999" points="171.5,-79.5 142.5,-79.5 142.5,-60.5 171.5,-60.5 171.5,-79.5"/>
<text text-anchor="middle" x="157" y="-67.5" font-family="Helvetica,sans-Serif" font-size="10.00">bit</text>
</a>
</g>
</g>
<!-- Node1&#45;&gt;Node4 -->
<g id="edge3_Node000001_Node000004" class="edge">
<title>Node1&#45;&gt;Node4</title>
<g id="a_edge3_Node000001_Node000004"><a xlink:title=" ">
<path fill="none" stroke="#63b8ff" d="M181.72,-120.87C177.57,-112.49 171.13,-99.51 165.87,-88.89"/>
<polygon fill="#63b8ff" stroke="#63b8ff" points="168.87,-87.07 161.3,-79.67 162.6,-90.18 168.87,-87.07"/>
</a>
</g>
</g>
<!-- Node5 -->
<g id="Node000005" class="node">
<title>Node5</title>
<g id="a_Node000005"><a xlink:title=" ">
<polygon fill="#e0e0e0" stroke="#999999" points="242,-79.5 190,-79.5 190,-60.5 242,-60.5 242,-79.5"/>
<text text-anchor="middle" x="216" y="-67.5" font-family="Helvetica,sans-Serif" font-size="10.00">cassert</text>
</a>
</g>
</g>
<!-- Node1&#45;&gt;Node5 -->
<g id="edge4_Node000001_Node000005" class="edge">
<title>Node1&#45;&gt;Node5</title>
<g id="a_edge4_Node000001_Node000005"><a xlink:title=" ">
<path fill="none" stroke="#63b8ff" d="M190.43,-120.87C194.77,-112.4 201.52,-99.24 206.99,-88.57"/>
<polygon fill="#63b8ff" stroke="#63b8ff" points="210.11,-90.16 211.56,-79.67 203.88,-86.97 210.11,-90.16"/>
</a>
</g>
</g>
<!-- Node6 -->
<g id="Node000006" class="node">
<title>Node6</title>
<g id="a_Node000006"><a xlink:title=" ">
<polygon fill="#e0e0e0" stroke="#999999" points="382,-79.5 260,-79.5 260,-60.5 382,-60.5 382,-79.5"/>
<text text-anchor="middle" x="321" y="-67.5" font-family="Helvetica,sans-Serif" font-size="10.00">helios/helios_config.h</text>
</a>
</g>
</g>
<!-- Node1&#45;&gt;Node6 -->
<g id="edge5_Node000001_Node000006" class="edge">
<title>Node1&#45;&gt;Node6</title>
<g id="a_edge5_Node000001_Node000006"><a xlink:title=" ">
<path fill="none" stroke="#63b8ff" d="M205.63,-120.99C228.33,-111.16 265.9,-94.88 291.97,-83.58"/>
<polygon fill="#63b8ff" stroke="#63b8ff" points="293.56,-86.7 301.35,-79.52 290.78,-80.28 293.56,-86.7"/>
</a>
</g>
</g>
<!-- Node7 -->
<g id="Node000007" class="node">
<title>Node7</title>
<g id="a_Node000007"><a xlink:href="CollisionLayer_8ixx.html" target="_top" xlink:title="Type definitions for collision layer identifiers.">
<polygon fill="white" stroke="#666666" points="534,-85 400,-85 400,-55 534,-55 534,-85"/>
<text text-anchor="start" x="408" y="-73" font-family="Helvetica,sans-Serif" font-size="10.00">helios.engine.core.data.</text>
<text text-anchor="middle" x="467" y="-62" font-family="Helvetica,sans-Serif" font-size="10.00">CollisionLayer</text>
</a>
</g>
</g>
<!-- Node1&#45;&gt;Node7 -->
<g id="edge6_Node000001_Node000007" class="edge">
<title>Node1&#45;&gt;Node7</title>
<g id="a_edge6_Node000001_Node000007"><a xlink:title=" ">
<path fill="none" stroke="#63b8ff" d="M226.86,-120.99C269.47,-112.12 337.28,-98.01 389.99,-87.03"/>
<polygon fill="#63b8ff" stroke="#63b8ff" points="390.91,-90.42 399.99,-84.95 389.48,-83.56 390.91,-90.42"/>
</a>
</g>
</g>
<!-- Node8 -->
<g id="Node000008" class="node">
<title>Node8</title>
<g id="a_Node000008"><a xlink:title=" ">
<polygon fill="#e0e0e0" stroke="#999999" points="459,-19 409,-19 409,0 459,0 459,-19"/>
<text text-anchor="middle" x="434" y="-7" font-family="Helvetica,sans-Serif" font-size="10.00">cstdint</text>
</a>
</g>
</g>
<!-- Node7&#45;&gt;Node8 -->
<g id="edge7_Node000007_Node000008" class="edge">
<title>Node7&#45;&gt;Node8</title>
<g id="a_edge7_Node000007_Node000008"><a xlink:title=" ">
<path fill="none" stroke="#63b8ff" d="M459.01,-54.84C454.47,-46.78 448.73,-36.62 443.9,-28.06"/>
<polygon fill="#63b8ff" stroke="#63b8ff" points="446.91,-26.26 438.94,-19.27 440.81,-29.7 446.91,-26.26"/>
</a>
</g>
</g>
<!-- Node9 -->
<g id="Node000009" class="node">
<title>Node9</title>
<g id="a_Node000009"><a xlink:title=" ">
<polygon fill="#e0e0e0" stroke="#999999" points="521,-19 477,-19 477,0 521,0 521,-19"/>
<text text-anchor="middle" x="499" y="-7" font-family="Helvetica,sans-Serif" font-size="10.00">limits</text>
</a>
</g>
</g>
<!-- Node7&#45;&gt;Node9 -->
<g id="edge8_Node000007_Node000009" class="edge">
<title>Node7&#45;&gt;Node9</title>
<g id="a_edge8_Node000007_Node000009"><a xlink:title=" ">
<path fill="none" stroke="#63b8ff" d="M474.75,-54.84C479.15,-46.78 484.71,-36.62 489.4,-28.06"/>
<polygon fill="#63b8ff" stroke="#63b8ff" points="492.48,-29.72 494.2,-19.27 486.34,-26.36 492.48,-29.72"/>
</a>
</g>
</g>
</g>
</svg>
