<?xml version="1.0" encoding="UTF-8" standalone="no"?>
<!DOCTYPE svg PUBLIC "-//W3C//DTD SVG 1.1//EN"
 "http://www.w3.org/Graphics/SVG/1.1/DTD/svg11.dtd">
<!-- Generated by graphviz version 2.43.0 (0)
 -->
<!-- Title: DenseRuntimeHandleRegistry.ixx Pages: 1 -->
<svg width="779pt" height="258pt"
 viewBox="0.00 0.00 778.55 258.00" xmlns="http://www.w3.org/2000/svg" xmlns:xlink="http://www.w3.org/1999/xlink">
<g id="graph0" class="graph" transform="scale(1 1) rotate(0) translate(4 254)">
<title>DenseRuntimeHandleRegistry.ixx</title>
<!-- Node1 -->
<g id="Node000001" class="node">
<title>Node1</title>
<g id="a_Node000001"><a xlink:title="Dense registry mapping strong identifiers to contiguous runtime indices.">
<polygon fill="#999999" stroke="#666666" points="449.5,-250 269.5,-250 269.5,-231 449.5,-231 449.5,-250"/>
<text text-anchor="middle" x="359.5" y="-238" font-family="Helvetica,sans-Serif" font-size="10.00">DenseRuntimeHandleRegistry.ixx</text>
</a>
</g>
</g>
<!-- Node2 -->
<g id="Node000002" class="node">
<title>Node2</title>
<g id="a_Node000002"><a xlink:title=" ">
<polygon fill="#e0e0e0" stroke="#999999" points="47,-189.5 0,-189.5 0,-170.5 47,-170.5 47,-189.5"/>
<text text-anchor="middle" x="23.5" y="-177.5" font-family="Helvetica,sans-Serif" font-size="10.00">vector</text>
</a>
</g>
</g>
<!-- Node1&#45;&gt;Node2 -->
<g id="edge1_Node000001_Node000002" class="edge">
<title>Node1&#45;&gt;Node2</title>
<g id="a_edge1_Node000001_Node000002"><a xlink:title=" ">
<path fill="none" stroke="#63b8ff" d="M269.42,-232.35C208.48,-226.04 126.63,-214.68 56.5,-195 54.61,-194.47 52.69,-193.86 50.77,-193.19"/>
<polygon fill="#63b8ff" stroke="#63b8ff" points="51.95,-189.9 41.36,-189.55 49.42,-196.43 51.95,-189.9"/>
</a>
</g>
</g>
<!-- Node3 -->
<g id="Node000003" class="node">
<title>Node3</title>
<g id="a_Node000003"><a xlink:title=" ">
<polygon fill="#e0e0e0" stroke="#999999" points="187.5,-189.5 65.5,-189.5 65.5,-170.5 187.5,-170.5 187.5,-189.5"/>
<text text-anchor="middle" x="126.5" y="-177.5" font-family="Helvetica,sans-Serif" font-size="10.00">helios/helios_config.h</text>
</a>
</g>
</g>
<!-- Node1&#45;&gt;Node3 -->
<g id="edge2_Node000001_Node000003" class="edge">
<title>Node1&#45;&gt;Node3</title>
<g id="a_edge2_Node000001_Node000003"><a xlink:title=" ">
<path fill="none" stroke="#63b8ff" d="M325.62,-230.99C284.55,-220.68 215.26,-203.28 170.2,-191.97"/>
<polygon fill="#63b8ff" stroke="#63b8ff" points="170.97,-188.56 160.42,-189.52 169.27,-195.35 170.97,-188.56"/>
</a>
</g>
</g>
<!-- Node4 -->
<g id="Node000004" class="node">
<title>Node4</title>
<g id="a_Node000004"><a xlink:title=" ">
<polygon fill="#e0e0e0" stroke="#999999" points="257.5,-189.5 205.5,-189.5 205.5,-170.5 257.5,-170.5 257.5,-189.5"/>
<text text-anchor="middle" x="231.5" y="-177.5" font-family="Helvetica,sans-Serif" font-size="10.00">cassert</text>
</a>
</g>
</g>
<!-- Node1&#45;&gt;Node4 -->
<g id="edge3_Node000001_Node000004" class="edge">
<title>Node1&#45;&gt;Node4</title>
<g id="a_edge3_Node000001_Node000004"><a xlink:title=" ">
<path fill="none" stroke="#63b8ff" d="M340.89,-230.99C319.46,-221.2 284.06,-205.02 259.35,-193.73"/>
<polygon fill="#63b8ff" stroke="#63b8ff" points="260.68,-190.49 250.13,-189.52 257.78,-196.86 260.68,-190.49"/>
</a>
</g>
</g>
<!-- Node5 -->
<g id="Node000005" class="node">
<title>Node5</title>
<g id="a_Node000005"><a xlink:title=" ">
<polygon fill="#e0e0e0" stroke="#999999" points="331.5,-189.5 275.5,-189.5 275.5,-170.5 331.5,-170.5 331.5,-189.5"/>
<text text-anchor="middle" x="303.5" y="-177.5" font-family="Helvetica,sans-Serif" font-size="10.00">optional</text>
</a>
</g>
</g>
<!-- Node1&#45;&gt;Node5 -->
<g id="edge4_Node000001_Node000005" class="edge">
<title>Node1&#45;&gt;Node5</title>
<g id="a_edge4_Node000001_Node000005"><a xlink:title=" ">
<path fill="none" stroke="#63b8ff" d="M351.24,-230.87C342.72,-221.97 329.24,-207.89 318.77,-196.95"/>
<polygon fill="#63b8ff" stroke="#63b8ff" points="321.24,-194.47 311.8,-189.67 316.18,-199.31 321.24,-194.47"/>
</a>
</g>
</g>
<!-- Node6 -->
<g id="Node000006" class="node">
<title>Node6</title>
<g id="a_Node000006"><a xlink:title=" ">
<polygon fill="#e0e0e0" stroke="#999999" points="384.5,-19 340.5,-19 340.5,0 384.5,0 384.5,-19"/>
<text text-anchor="middle" x="362.5" y="-7" font-family="Helvetica,sans-Serif" font-size="10.00">string</text>
</a>
</g>
</g>
<!-- Node1&#45;&gt;Node6 -->
<g id="edge5_Node000001_Node000006" class="edge">
<title>Node1&#45;&gt;Node6</title>
<g id="a_edge5_Node000001_Node000006"><a xlink:title=" ">
<path fill="none" stroke="#63b8ff" d="M359.61,-230.8C360.05,-197.36 361.63,-76.59 362.25,-29.49"/>
<polygon fill="#63b8ff" stroke="#63b8ff" points="365.75,-29.25 362.39,-19.21 358.76,-29.16 365.75,-29.25"/>
</a>
</g>
</g>
<!-- Node7 -->
<g id="Node000007" class="node">
<title>Node7</title>
<g id="a_Node000007"><a xlink:title=" ">
<polygon fill="#e0e0e0" stroke="#999999" points="710.5,-189.5 646.5,-189.5 646.5,-170.5 710.5,-170.5 710.5,-189.5"/>
<text text-anchor="middle" x="678.5" y="-177.5" font-family="Helvetica,sans-Serif" font-size="10.00">algorithm</text>
</a>
</g>
</g>
<!-- Node1&#45;&gt;Node7 -->
<g id="edge6_Node000001_Node000007" class="edge">
<title>Node1&#45;&gt;Node7</title>
<g id="a_edge6_Node000001_Node000007"><a xlink:title=" ">
<path fill="none" stroke="#63b8ff" d="M434.83,-230.97C491.15,-223.74 569.79,-211.85 637.5,-195 640.31,-194.3 643.19,-193.5 646.07,-192.64"/>
<polygon fill="#63b8ff" stroke="#63b8ff" points="647.26,-195.93 655.72,-189.55 645.13,-189.26 647.26,-195.93"/>
</a>
</g>
</g>
<!-- Node8 -->
<g id="Node000008" class="node">
<title>Node8</title>
<g id="a_Node000008"><a xlink:href="types_8ixx.html" target="_top" xlink:title="Core type definitions and tag types for the helios engine.">
<polygon fill="white" stroke="#666666" points="482.5,-74 382.5,-74 382.5,-55 482.5,-55 482.5,-74"/>
<text text-anchor="middle" x="432.5" y="-62" font-family="Helvetica,sans-Serif" font-size="10.00">helios.core.types</text>
</a>
</g>
</g>
<!-- Node1&#45;&gt;Node8 -->
<g id="edge7_Node000001_Node000008" class="edge">
<title>Node1&#45;&gt;Node8</title>
<g id="a_edge7_Node000001_Node000008"><a xlink:title=" ">
<path fill="none" stroke="#63b8ff" d="M363.22,-230.63C374.64,-203.4 409.38,-120.61 424.88,-83.65"/>
<polygon fill="#63b8ff" stroke="#63b8ff" points="428.23,-84.72 428.87,-74.14 421.78,-82.01 428.23,-84.72"/>
</a>
</g>
</g>
<!-- Node11 -->
<g id="Node000011" class="node">
<title>Node11</title>
<g id="a_Node000011"><a xlink:href="RuntimeHandle_8ixx.html" target="_top" xlink:title="Lightweight handle pairing a strong identifier with a runtime index.">
<polygon fill="white" stroke="#666666" points="628,-195 489,-195 489,-165 628,-165 628,-195"/>
<text text-anchor="start" x="497" y="-183" font-family="Helvetica,sans-Serif" font-size="10.00">helios.core.data.Runtime</text>
<text text-anchor="middle" x="558.5" y="-172" font-family="Helvetica,sans-Serif" font-size="10.00">Handle</text>
</a>
</g>
</g>
<!-- Node1&#45;&gt;Node11 -->
<g id="edge10_Node000001_Node000011" class="edge">
<title>Node1&#45;&gt;Node11</title>
<g id="a_edge10_Node000001_Node000011"><a xlink:title=" ">
<path fill="none" stroke="#63b8ff" d="M388.44,-230.99C417.83,-222.35 464.14,-208.74 501.02,-197.9"/>
<polygon fill="#63b8ff" stroke="#63b8ff" points="502.05,-201.24 510.66,-195.06 500.08,-194.53 502.05,-201.24"/>
</a>
</g>
</g>
<!-- Node13 -->
<g id="Node000013" class="node">
<title>Node13</title>
<g id="a_Node000013"><a xlink:href="StrongId_8ixx.html" target="_top" xlink:title="Strongly&#45;typed identifier template.">
<polygon fill="white" stroke="#666666" points="629.5,-129 491.5,-129 491.5,-110 629.5,-110 629.5,-129"/>
<text text-anchor="middle" x="560.5" y="-117" font-family="Helvetica,sans-Serif" font-size="10.00">helios.core.data.StrongId</text>
</a>
</g>
</g>
<!-- Node1&#45;&gt;Node13 -->
<g id="edge21_Node000001_Node000013" class="edge">
<title>Node1&#45;&gt;Node13</title>
<g id="a_edge21_Node000001_Node000013"><a xlink:title=" ">
<path fill="none" stroke="#63b8ff" d="M373.17,-230.81C395.46,-216.7 441.12,-188.06 480.5,-165 498.67,-154.36 519.46,-142.81 535.3,-134.15"/>
<polygon fill="#63b8ff" stroke="#63b8ff" points="537.34,-137.02 544.44,-129.16 533.99,-130.87 537.34,-137.02"/>
</a>
</g>
</g>
<!-- Node9 -->
<g id="Node000009" class="node">
<title>Node9</title>
<g id="a_Node000009"><a xlink:title=" ">
<polygon fill="#e0e0e0" stroke="#999999" points="633.5,-19 583.5,-19 583.5,0 633.5,0 633.5,-19"/>
<text text-anchor="middle" x="608.5" y="-7" font-family="Helvetica,sans-Serif" font-size="10.00">cstdint</text>
</a>
</g>
</g>
<!-- Node8&#45;&gt;Node9 -->
<g id="edge8_Node000008_Node000009" class="edge">
<title>Node8&#45;&gt;Node9</title>
<g id="a_edge8_Node000008_Node000009"><a xlink:title=" ">
<path fill="none" stroke="#63b8ff" d="M460.78,-54.98C491.51,-45.73 540.64,-30.93 573.72,-20.97"/>
<polygon fill="#63b8ff" stroke="#63b8ff" points="574.86,-24.28 583.43,-18.05 572.84,-17.58 574.86,-24.28"/>
</a>
</g>
</g>
<!-- Node10 -->
<g id="Node000010" class="node">
<title>Node10</title>
<g id="a_Node000010"><a xlink:title=" ">
<polygon fill="#e0e0e0" stroke="#999999" points="454.5,-19 410.5,-19 410.5,0 454.5,0 454.5,-19"/>
<text text-anchor="middle" x="432.5" y="-7" font-family="Helvetica,sans-Serif" font-size="10.00">limits</text>
</a>
</g>
</g>
<!-- Node8&#45;&gt;Node10 -->
<g id="edge9_Node000008_Node000010" class="edge">
<title>Node8&#45;&gt;Node10</title>
<g id="a_edge9_Node000008_Node000010"><a xlink:title=" ">
<path fill="none" stroke="#63b8ff" d="M432.5,-54.75C432.5,-47.8 432.5,-37.85 432.5,-29.13"/>
<polygon fill="#63b8ff" stroke="#63b8ff" points="436,-29.09 432.5,-19.09 429,-29.09 436,-29.09"/>
</a>
</g>
</g>
<!-- Node11&#45;&gt;Node8 -->
<g id="edge13_Node000011_Node000008" class="edge">
<title>Node11&#45;&gt;Node8</title>
<g id="a_edge13_Node000011_Node000008"><a xlink:title=" ">
<path fill="none" stroke="#63b8ff" d="M532.74,-164.89C517.28,-155.76 497.74,-142.99 482.5,-129 467.22,-114.97 452.91,-95.96 443.55,-82.4"/>
<polygon fill="#63b8ff" stroke="#63b8ff" points="446.39,-80.36 437.9,-74.02 440.58,-84.27 446.39,-80.36"/>
</a>
</g>
</g>
<!-- Node11&#45;&gt;Node9 -->
<g id="edge11_Node000011_Node000009" class="edge">
<title>Node11&#45;&gt;Node9</title>
<g id="a_edge11_Node000011_Node000009"><a xlink:title=" ">
<path fill="none" stroke="#63b8ff" d="M625.68,-164.94C674.07,-150.87 735.86,-123.89 765.5,-74 793.38,-27.08 698.28,-14.82 643.89,-11.62"/>
<polygon fill="#63b8ff" stroke="#63b8ff" points="643.77,-8.11 633.6,-11.09 643.41,-15.1 643.77,-8.11"/>
</a>
</g>
</g>
<!-- Node12 -->
<g id="Node000012" class="node">
<title>Node12</title>
<g id="a_Node000012"><a xlink:title=" ">
<polygon fill="#e0e0e0" stroke="#999999" points="756,-74 683,-74 683,-55 756,-55 756,-74"/>
<text text-anchor="middle" x="719.5" y="-62" font-family="Helvetica,sans-Serif" font-size="10.00">string_view</text>
</a>
</g>
</g>
<!-- Node11&#45;&gt;Node12 -->
<g id="edge12_Node000011_Node000012" class="edge">
<title>Node11&#45;&gt;Node12</title>
<g id="a_edge12_Node000011_Node000012"><a xlink:title=" ">
<path fill="none" stroke="#63b8ff" d="M582.38,-164.99C598.51,-155.3 620.13,-141.89 638.5,-129 660.72,-113.41 685.08,-93.97 701.23,-80.73"/>
<polygon fill="#63b8ff" stroke="#63b8ff" points="703.8,-83.15 709.28,-74.08 699.34,-77.75 703.8,-83.15"/>
</a>
</g>
</g>
<!-- Node11&#45;&gt;Node13 -->
<g id="edge14_Node000011_Node000013" class="edge">
<title>Node11&#45;&gt;Node13</title>
<g id="a_edge14_Node000011_Node000013"><a xlink:title=" ">
<path fill="none" stroke="#63b8ff" d="M558.98,-164.84C559.24,-157.21 559.57,-147.7 559.85,-139.45"/>
<polygon fill="#63b8ff" stroke="#63b8ff" points="563.36,-139.38 560.2,-129.27 556.36,-139.14 563.36,-139.38"/>
</a>
</g>
</g>
<!-- Node13&#45;&gt;Node8 -->
<g id="edge17_Node000013_Node000008" class="edge">
<title>Node13&#45;&gt;Node8</title>
<g id="a_edge17_Node000013_Node000008"><a xlink:title=" ">
<path fill="none" stroke="#63b8ff" d="M539.93,-109.98C519.07,-101.34 486.53,-87.87 462.73,-78.02"/>
<polygon fill="#63b8ff" stroke="#63b8ff" points="464.02,-74.76 453.44,-74.17 461.34,-81.23 464.02,-74.76"/>
</a>
</g>
</g>
<!-- Node13&#45;&gt;Node9 -->
<g id="edge15_Node000013_Node000009" class="edge">
<title>Node13&#45;&gt;Node9</title>
<g id="a_edge15_Node000013_Node000009"><a xlink:title=" ">
<path fill="none" stroke="#63b8ff" d="M588.15,-109.98C605.08,-103.17 625.39,-91.76 635.5,-74 644.25,-58.63 633.93,-39.86 623.62,-26.73"/>
<polygon fill="#63b8ff" stroke="#63b8ff" points="626.19,-24.36 617.05,-19.01 620.86,-28.9 626.19,-24.36"/>
</a>
</g>
</g>
<!-- Node13&#45;&gt;Node12 -->
<g id="edge16_Node000013_Node000012" class="edge">
<title>Node13&#45;&gt;Node12</title>
<g id="a_edge16_Node000013_Node000012"><a xlink:title=" ">
<path fill="none" stroke="#63b8ff" d="M586.05,-109.98C612.62,-101.13 654.44,-87.19 684.17,-77.28"/>
<polygon fill="#63b8ff" stroke="#63b8ff" points="685.37,-80.56 693.75,-74.08 683.16,-73.92 685.37,-80.56"/>
</a>
</g>
</g>
<!-- Node14 -->
<g id="Node000014" class="node">
<title>Node14</title>
<g id="a_Node000014"><a xlink:href="algorithms_8ixx.html" target="_top" xlink:title="Core algorithms and hash functions for the helios engine.">
<polygon fill="white" stroke="#666666" points="626,-74 501,-74 501,-55 626,-55 626,-74"/>
<text text-anchor="middle" x="563.5" y="-62" font-family="Helvetica,sans-Serif" font-size="10.00">helios.core.algorithms</text>
</a>
</g>
</g>
<!-- Node13&#45;&gt;Node14 -->
<g id="edge18_Node000013_Node000014" class="edge">
<title>Node13&#45;&gt;Node14</title>
<g id="a_edge18_Node000013_Node000014"><a xlink:title=" ">
<path fill="none" stroke="#63b8ff" d="M561,-109.75C561.39,-102.8 561.95,-92.85 562.45,-84.13"/>
<polygon fill="#63b8ff" stroke="#63b8ff" points="565.94,-84.27 563.01,-74.09 558.95,-83.88 565.94,-84.27"/>
</a>
</g>
</g>
<!-- Node14&#45;&gt;Node6 -->
<g id="edge20_Node000014_Node000006" class="edge">
<title>Node14&#45;&gt;Node6</title>
<g id="a_edge20_Node000014_Node000006"><a xlink:title=" ">
<path fill="none" stroke="#63b8ff" d="M531.21,-54.98C493.67,-45.09 432.11,-28.86 394.65,-18.98"/>
<polygon fill="#63b8ff" stroke="#63b8ff" points="395.32,-15.53 384.76,-16.37 393.53,-22.3 395.32,-15.53"/>
</a>
</g>
</g>
<!-- Node14&#45;&gt;Node9 -->
<g id="edge19_Node000014_Node000009" class="edge">
<title>Node14&#45;&gt;Node9</title>
<g id="a_edge19_Node000014_Node000009"><a xlink:title=" ">
<path fill="none" stroke="#63b8ff" d="M570.93,-54.75C577.35,-47.18 586.81,-36.05 594.62,-26.84"/>
<polygon fill="#63b8ff" stroke="#63b8ff" points="597.4,-28.98 601.21,-19.09 592.07,-24.45 597.4,-28.98"/>
</a>
</g>
</g>
</g>
</svg>
