<?xml version="1.0" encoding="UTF-8" standalone="no"?>
<!DOCTYPE svg PUBLIC "-//W3C//DTD SVG 1.1//EN"
 "http://www.w3.org/Graphics/SVG/1.1/DTD/svg11.dtd">
<!-- Generated by graphviz version 2.43.0 (0)
 -->
<!-- Title: helios Pages: 1 -->
<svg width="382pt" height="424pt"
 viewBox="0.00 0.00 382.00 424.00" xmlns="http://www.w3.org/2000/svg" xmlns:xlink="http://www.w3.org/1999/xlink">
<g id="graph0" class="graph" transform="scale(1 1) rotate(0) translate(4 420)">
<title>helios</title>
<g id="clust1" class="cluster">
<title>clusterdir_b3f59628e993ded3576abd1cf1101eb8</title>
<g id="a_clust1"><a xlink:href="dir_b3f59628e993ded3576abd1cf1101eb8.html" target="_top" xlink:title="include">
<polygon fill="#edf0f7" stroke="#7f7f7f" stroke-dasharray="5,2" points="8,-8 8,-408 366,-408 366,-8 8,-8"/>
<text text-anchor="middle" x="187" y="-396" font-family="Helvetica,sans-Serif" font-size="10.00">include</text>
</a>
</g>
</g>
<g id="clust2" class="cluster">
<title>clusterdir_1ac1243035b4576c146b8d2c8a6274f6</title>
<g id="a_clust2"><a xlink:href="dir_1ac1243035b4576c146b8d2c8a6274f6.html" target="_top">
<polygon fill="#edf0f7" stroke="#404040" stroke-width="2" points="16,-16 16,-381 316,-381 316,-16 16,-16"/>
</a>
</g>
</g>
<!-- dir_c65593c1e2ce5122a06a0735d96badb1 -->
<g id="node1" class="node">
<title>dir_c65593c1e2ce5122a06a0735d96badb1</title>
<g id="a_node1"><a xlink:href="dir_c65593c1e2ce5122a06a0735d96badb1.html" target="_top" xlink:title="ext">
<polygon fill="#a2b4d6" stroke="red" points="358,-208 326,-208 326,-189 358,-189 358,-208"/>
<text text-anchor="middle" x="342" y="-196" font-family="Helvetica,sans-Serif" font-size="10.00">ext</text>
</a>
</g>
</g>
<!-- dir_1ac1243035b4576c146b8d2c8a6274f6 -->
<g id="node2" class="node">
<title>dir_1ac1243035b4576c146b8d2c8a6274f6</title>
<text text-anchor="middle" x="156" y="-361" font-family="Helvetica,sans-Serif" font-size="10.00">helios</text>
</g>
<!-- dir_4e12247f2bbe360a59cd98a83515e8f1 -->
<g id="node3" class="node">
<title>dir_4e12247f2bbe360a59cd98a83515e8f1</title>
<g id="a_node3"><a xlink:href="dir_4e12247f2bbe360a59cd98a83515e8f1.html" target="_top" xlink:title="core">
<polygon fill="#a2b4d6" stroke="#404040" points="239,-318 201,-318 201,-299 239,-299 239,-318"/>
<text text-anchor="middle" x="220" y="-306" font-family="Helvetica,sans-Serif" font-size="10.00">core</text>
</a>
</g>
</g>
<!-- dir_1ac1243035b4576c146b8d2c8a6274f6&#45;&gt;dir_4e12247f2bbe360a59cd98a83515e8f1 -->
<g id="edge4" class="edge">
<title>dir_1ac1243035b4576c146b8d2c8a6274f6&#45;&gt;dir_4e12247f2bbe360a59cd98a83515e8f1</title>
<g id="a_edge4"><a xlink:href="dir_000084_000059.html" target="_top">
<path fill="none" stroke="#63b8ff" d="M166.28,-353.98C175.84,-346.07 190.28,-334.11 201.78,-324.58"/>
<polygon fill="#63b8ff" stroke="#63b8ff" points="204.06,-327.24 209.53,-318.17 199.6,-321.85 204.06,-327.24"/>
</a>
</g>
<g id="a_edge4&#45;headlabel"><a xlink:href="dir_000084_000059.html" target="_top" xlink:title="100">
<text text-anchor="middle" x="203.1" y="-329.22" font-family="Helvetica,sans-Serif" font-size="10.00" fill="#63b8ff">100</text>
</a>
</g>
</g>
<!-- dir_1e46d961eb277b2583ee5b095f5b4c8e -->
<g id="node5" class="node">
<title>dir_1e46d961eb277b2583ee5b095f5b4c8e</title>
<g id="a_node5"><a xlink:href="dir_1e46d961eb277b2583ee5b095f5b4c8e.html" target="_top" xlink:title="engine">
<polygon fill="#a2b4d6" stroke="#404040" points="245,-263 195,-263 195,-244 245,-244 245,-263"/>
<text text-anchor="middle" x="220" y="-251" font-family="Helvetica,sans-Serif" font-size="10.00">engine</text>
</a>
</g>
</g>
<!-- dir_1ac1243035b4576c146b8d2c8a6274f6&#45;&gt;dir_1e46d961eb277b2583ee5b095f5b4c8e -->
<g id="edge1" class="edge">
<title>dir_1ac1243035b4576c146b8d2c8a6274f6&#45;&gt;dir_1e46d961eb277b2583ee5b095f5b4c8e</title>
<g id="a_edge1"><a xlink:href="dir_000084_000068.html" target="_top">
<path fill="none" stroke="#63b8ff" d="M160.77,-353.8C167.54,-341.5 180.43,-318.36 192,-299 197.39,-289.99 203.58,-280.09 208.78,-271.93"/>
<polygon fill="#63b8ff" stroke="#63b8ff" points="211.86,-273.6 214.3,-263.29 205.96,-269.83 211.86,-273.6"/>
</a>
</g>
<g id="a_edge1&#45;headlabel"><a xlink:href="dir_000084_000068.html" target="_top" xlink:title="1216">
<text text-anchor="middle" x="212.31" y="-275.66" font-family="Helvetica,sans-Serif" font-size="10.00" fill="#63b8ff">1216</text>
</a>
</g>
</g>
<!-- dir_e838ebfdcf77e050c9d833b3366569df -->
<g id="node6" class="node">
<title>dir_e838ebfdcf77e050c9d833b3366569df</title>
<g id="a_node6"><a xlink:href="dir_e838ebfdcf77e050c9d833b3366569df.html" target="_top" xlink:title="input">
<polygon fill="#a2b4d6" stroke="#404040" points="85.5,-153 44.5,-153 44.5,-134 85.5,-134 85.5,-153"/>
<text text-anchor="middle" x="65" y="-141" font-family="Helvetica,sans-Serif" font-size="10.00">input</text>
</a>
</g>
</g>
<!-- dir_1ac1243035b4576c146b8d2c8a6274f6&#45;&gt;dir_e838ebfdcf77e050c9d833b3366569df -->
<g id="edge7" class="edge">
<title>dir_1ac1243035b4576c146b8d2c8a6274f6&#45;&gt;dir_e838ebfdcf77e050c9d833b3366569df</title>
<g id="a_edge7"><a xlink:href="dir_000084_000090.html" target="_top">
<path fill="none" stroke="#63b8ff" d="M132.93,-355.5C115.29,-348.85 92.01,-337 80,-318 49.23,-269.32 55.94,-197.04 61.4,-163.22"/>
<polygon fill="#63b8ff" stroke="#63b8ff" points="64.85,-163.77 63.14,-153.31 57.96,-162.55 64.85,-163.77"/>
</a>
</g>
<g id="a_edge7&#45;headlabel"><a xlink:href="dir_000084_000090.html" target="_top" xlink:title="19">
<text text-anchor="middle" x="67.03" y="-165.3" font-family="Helvetica,sans-Serif" font-size="10.00" fill="#63b8ff">19</text>
</a>
</g>
</g>
<!-- dir_268add6b94670641c68bb834cdcb4292 -->
<g id="node7" class="node">
<title>dir_268add6b94670641c68bb834cdcb4292</title>
<g id="a_node7"><a xlink:href="dir_268add6b94670641c68bb834cdcb4292.html" target="_top" xlink:title="math">
<polygon fill="#a2b4d6" stroke="#404040" points="206,-43 164,-43 164,-24 206,-24 206,-43"/>
<text text-anchor="middle" x="185" y="-31" font-family="Helvetica,sans-Serif" font-size="10.00">math</text>
</a>
</g>
</g>
<!-- dir_1ac1243035b4576c146b8d2c8a6274f6&#45;&gt;dir_268add6b94670641c68bb834cdcb4292 -->
<g id="edge2" class="edge">
<title>dir_1ac1243035b4576c146b8d2c8a6274f6&#45;&gt;dir_268add6b94670641c68bb834cdcb4292</title>
<g id="a_edge2"><a xlink:href="dir_000084_000098.html" target="_top">
<path fill="none" stroke="#63b8ff" d="M132.88,-355.31C95.27,-342.01 25,-309.77 25,-254.5 25,-254.5 25,-254.5 25,-142.5 25,-80.96 107.31,-52.14 153.86,-40.76"/>
<polygon fill="#63b8ff" stroke="#63b8ff" points="154.8,-44.14 163.75,-38.47 153.22,-37.32 154.8,-44.14"/>
</a>
</g>
<g id="a_edge2&#45;headlabel"><a xlink:href="dir_000084_000098.html" target="_top" xlink:title="115">
<text text-anchor="middle" x="151.94" y="-45.21" font-family="Helvetica,sans-Serif" font-size="10.00" fill="#63b8ff">115</text>
</a>
</g>
</g>
<!-- dir_614bfcfaacae36fbea464e65a5a85120 -->
<g id="node8" class="node">
<title>dir_614bfcfaacae36fbea464e65a5a85120</title>
<g id="a_node8"><a xlink:href="dir_614bfcfaacae36fbea464e65a5a85120.html" target="_top" xlink:title="rendering">
<polygon fill="#a2b4d6" stroke="#404040" points="207.5,-208 144.5,-208 144.5,-189 207.5,-189 207.5,-208"/>
<text text-anchor="middle" x="176" y="-196" font-family="Helvetica,sans-Serif" font-size="10.00">rendering</text>
</a>
</g>
</g>
<!-- dir_1ac1243035b4576c146b8d2c8a6274f6&#45;&gt;dir_614bfcfaacae36fbea464e65a5a85120 -->
<g id="edge5" class="edge">
<title>dir_1ac1243035b4576c146b8d2c8a6274f6&#45;&gt;dir_614bfcfaacae36fbea464e65a5a85120</title>
<g id="a_edge5"><a xlink:href="dir_000084_000115.html" target="_top">
<path fill="none" stroke="#63b8ff" d="M157.08,-353.74C160.2,-328.31 169.3,-254.08 173.65,-218.69"/>
<polygon fill="#63b8ff" stroke="#63b8ff" points="177.18,-218.66 174.92,-208.31 170.23,-217.81 177.18,-218.66"/>
</a>
</g>
<g id="a_edge5&#45;headlabel"><a xlink:href="dir_000084_000115.html" target="_top" xlink:title="66">
<text text-anchor="middle" x="179.56" y="-220.07" font-family="Helvetica,sans-Serif" font-size="10.00" fill="#63b8ff">66</text>
</a>
</g>
</g>
<!-- dir_dde1b4dbeafc450b8ae5525133d75a82 -->
<g id="node9" class="node">
<title>dir_dde1b4dbeafc450b8ae5525133d75a82</title>
<g id="a_node9"><a xlink:href="dir_dde1b4dbeafc450b8ae5525133d75a82.html" target="_top" xlink:title="scene">
<polygon fill="#a2b4d6" stroke="#404040" points="249.5,-153 204.5,-153 204.5,-134 249.5,-134 249.5,-153"/>
<text text-anchor="middle" x="227" y="-141" font-family="Helvetica,sans-Serif" font-size="10.00">scene</text>
</a>
</g>
</g>
<!-- dir_1ac1243035b4576c146b8d2c8a6274f6&#45;&gt;dir_dde1b4dbeafc450b8ae5525133d75a82 -->
<g id="edge6" class="edge">
<title>dir_1ac1243035b4576c146b8d2c8a6274f6&#45;&gt;dir_dde1b4dbeafc450b8ae5525133d75a82</title>
<g id="a_edge6"><a xlink:href="dir_000084_000120.html" target="_top">
<path fill="none" stroke="#63b8ff" d="M179.3,-357.38C200.45,-351.51 230.87,-339.74 248,-318 283.56,-272.89 274.35,-243.43 256,-189 252.62,-178.97 246.44,-168.99 240.65,-161.02"/>
<polygon fill="#63b8ff" stroke="#63b8ff" points="243.33,-158.77 234.45,-153 237.79,-163.05 243.33,-158.77"/>
</a>
</g>
<g id="a_edge6&#45;headlabel"><a xlink:href="dir_000084_000120.html" target="_top" xlink:title="14">
<text text-anchor="middle" x="247.78" y="-157.38" font-family="Helvetica,sans-Serif" font-size="10.00" fill="#63b8ff">14</text>
</a>
</g>
</g>
<!-- dir_3e2f71566425d27b6ac8140f1223a941 -->
<g id="node10" class="node">
<title>dir_3e2f71566425d27b6ac8140f1223a941</title>
<g id="a_node10"><a xlink:href="dir_3e2f71566425d27b6ac8140f1223a941.html" target="_top" xlink:title="util">
<polygon fill="#a2b4d6" stroke="#404040" points="161,-98 129,-98 129,-79 161,-79 161,-98"/>
<text text-anchor="middle" x="145" y="-86" font-family="Helvetica,sans-Serif" font-size="10.00">util</text>
</a>
</g>
</g>
<!-- dir_1ac1243035b4576c146b8d2c8a6274f6&#45;&gt;dir_3e2f71566425d27b6ac8140f1223a941 -->
<g id="edge3" class="edge">
<title>dir_1ac1243035b4576c146b8d2c8a6274f6&#45;&gt;dir_3e2f71566425d27b6ac8140f1223a941</title>
<g id="a_edge3"><a xlink:href="dir_000084_000188.html" target="_top">
<path fill="none" stroke="#63b8ff" d="M153.68,-353.87C147.53,-330.57 130.8,-264.29 124,-208 121.06,-183.72 122.44,-177.46 122,-153 121.85,-144.56 120,-142.21 122,-134 124.31,-124.51 129.02,-114.78 133.58,-106.85"/>
<polygon fill="#63b8ff" stroke="#63b8ff" points="136.64,-108.55 138.9,-98.2 130.68,-104.89 136.64,-108.55"/>
</a>
</g>
<g id="a_edge3&#45;headlabel"><a xlink:href="dir_000084_000188.html" target="_top" xlink:title="73">
<text text-anchor="middle" x="137.17" y="-110.6" font-family="Helvetica,sans-Serif" font-size="10.00" fill="#63b8ff">73</text>
</a>
</g>
</g>
<!-- dir_4e12247f2bbe360a59cd98a83515e8f1&#45;&gt;dir_1e46d961eb277b2583ee5b095f5b4c8e -->
<g id="edge8" class="edge">
<title>dir_4e12247f2bbe360a59cd98a83515e8f1&#45;&gt;dir_1e46d961eb277b2583ee5b095f5b4c8e</title>
<g id="a_edge8"><a xlink:href="dir_000059_000068.html" target="_top">
<path fill="none" stroke="#63b8ff" d="M214.83,-298.75C213.34,-291.8 212.9,-281.85 213.52,-273.13"/>
<polygon fill="#63b8ff" stroke="#63b8ff" points="217.01,-273.47 214.87,-263.09 210.07,-272.53 217.01,-273.47"/>
</a>
</g>
<g id="a_edge8&#45;headlabel"><a xlink:href="dir_000059_000068.html" target="_top" xlink:title="1">
<text text-anchor="middle" x="219.34" y="-274.91" font-family="Helvetica,sans-Serif" font-size="10.00" fill="#63b8ff">1</text>
</a>
</g>
</g>
<!-- dir_4e12247f2bbe360a59cd98a83515e8f1&#45;&gt;dir_268add6b94670641c68bb834cdcb4292 -->
<g id="edge9" class="edge">
<title>dir_4e12247f2bbe360a59cd98a83515e8f1&#45;&gt;dir_268add6b94670641c68bb834cdcb4292</title>
<g id="a_edge9"><a xlink:href="dir_000059_000098.html" target="_top">
<path fill="none" stroke="#63b8ff" d="M231.1,-298.99C240.69,-290.9 253.94,-277.8 260,-263 281.75,-209.91 277.57,-189.98 265,-134 259.08,-107.62 255.61,-100.33 239,-79 230.02,-67.47 217.55,-56.95 206.86,-49.03"/>
<polygon fill="#63b8ff" stroke="#63b8ff" points="208.59,-45.97 198.41,-43.03 204.54,-51.68 208.59,-45.97"/>
</a>
</g>
<g id="a_edge9&#45;headlabel"><a xlink:href="dir_000059_000098.html" target="_top" xlink:title="2">
<text text-anchor="middle" x="213.17" y="-43.24" font-family="Helvetica,sans-Serif" font-size="10.00" fill="#63b8ff">2</text>
</a>
</g>
</g>
<!-- dir_cd6c3d957c65ac83604a28625a3bf9a1 -->
<g id="node4" class="node">
<title>dir_cd6c3d957c65ac83604a28625a3bf9a1</title>
<g id="a_node4"><a xlink:href="dir_cd6c3d957c65ac83604a28625a3bf9a1.html" target="_top" xlink:title="ecs">
<polygon fill="#a2b4d6" stroke="#404040" points="236.5,-373 203.5,-373 203.5,-354 236.5,-354 236.5,-373"/>
<text text-anchor="middle" x="220" y="-361" font-family="Helvetica,sans-Serif" font-size="10.00">ecs</text>
</a>
</g>
</g>
<!-- dir_cd6c3d957c65ac83604a28625a3bf9a1&#45;&gt;dir_4e12247f2bbe360a59cd98a83515e8f1 -->
<g id="edge10" class="edge">
<title>dir_cd6c3d957c65ac83604a28625a3bf9a1&#45;&gt;dir_4e12247f2bbe360a59cd98a83515e8f1</title>
<g id="a_edge10"><a xlink:href="dir_000065_000059.html" target="_top">
<path fill="none" stroke="#63b8ff" d="M220,-353.75C220,-346.8 220,-336.85 220,-328.13"/>
<polygon fill="#63b8ff" stroke="#63b8ff" points="223.5,-328.09 220,-318.09 216.5,-328.09 223.5,-328.09"/>
</a>
</g>
<g id="a_edge10&#45;headlabel"><a xlink:href="dir_000065_000059.html" target="_top" xlink:title="1">
<text text-anchor="middle" x="226.34" y="-329.18" font-family="Helvetica,sans-Serif" font-size="10.00" fill="#63b8ff">1</text>
</a>
</g>
</g>
<!-- dir_1e46d961eb277b2583ee5b095f5b4c8e&#45;&gt;dir_c65593c1e2ce5122a06a0735d96badb1 -->
<g id="edge15" class="edge">
<title>dir_1e46d961eb277b2583ee5b095f5b4c8e&#45;&gt;dir_c65593c1e2ce5122a06a0735d96badb1</title>
<g id="a_edge15"><a xlink:href="dir_000068_000074.html" target="_top">
<path fill="none" stroke="#63b8ff" d="M239.6,-243.98C260.49,-234.91 293.64,-220.51 316.53,-210.56"/>
<polygon fill="#63b8ff" stroke="#63b8ff" points="318.18,-213.67 325.95,-206.47 315.39,-207.25 318.18,-213.67"/>
</a>
</g>
<g id="a_edge15&#45;headlabel"><a xlink:href="dir_000068_000074.html" target="_top" xlink:title="2">
<text text-anchor="middle" x="316.01" y="-215.2" font-family="Helvetica,sans-Serif" font-size="10.00" fill="#63b8ff">2</text>
</a>
</g>
</g>
<!-- dir_1e46d961eb277b2583ee5b095f5b4c8e&#45;&gt;dir_4e12247f2bbe360a59cd98a83515e8f1 -->
<g id="edge13" class="edge">
<title>dir_1e46d961eb277b2583ee5b095f5b4c8e&#45;&gt;dir_4e12247f2bbe360a59cd98a83515e8f1</title>
<g id="a_edge13"><a xlink:href="dir_000068_000059.html" target="_top">
<path fill="none" stroke="#63b8ff" d="M225.13,-263.09C226.64,-269.99 227.09,-279.93 226.49,-288.66"/>
<polygon fill="#63b8ff" stroke="#63b8ff" points="223,-288.38 225.17,-298.75 229.94,-289.29 223,-288.38"/>
</a>
</g>
<g id="a_edge13&#45;headlabel"><a xlink:href="dir_000068_000059.html" target="_top" xlink:title="84">
<text text-anchor="middle" x="220.65" y="-281.94" font-family="Helvetica,sans-Serif" font-size="10.00" fill="#63b8ff">84</text>
</a>
</g>
</g>
<!-- dir_1e46d961eb277b2583ee5b095f5b4c8e&#45;&gt;dir_e838ebfdcf77e050c9d833b3366569df -->
<g id="edge17" class="edge">
<title>dir_1e46d961eb277b2583ee5b095f5b4c8e&#45;&gt;dir_e838ebfdcf77e050c9d833b3366569df</title>
<g id="a_edge17"><a xlink:href="dir_000068_000090.html" target="_top">
<path fill="none" stroke="#63b8ff" d="M194.86,-248.51C168.59,-243.22 127.44,-231.64 100,-208 86.02,-195.95 76.57,-176.88 71.05,-162.77"/>
<polygon fill="#63b8ff" stroke="#63b8ff" points="74.27,-161.38 67.58,-153.16 67.68,-163.75 74.27,-161.38"/>
</a>
</g>
<g id="a_edge17&#45;headlabel"><a xlink:href="dir_000068_000090.html" target="_top" xlink:title="6">
<text text-anchor="middle" x="78.16" y="-161.3" font-family="Helvetica,sans-Serif" font-size="10.00" fill="#63b8ff">6</text>
</a>
</g>
</g>
<!-- dir_1e46d961eb277b2583ee5b095f5b4c8e&#45;&gt;dir_268add6b94670641c68bb834cdcb4292 -->
<g id="edge11" class="edge">
<title>dir_1e46d961eb277b2583ee5b095f5b4c8e&#45;&gt;dir_268add6b94670641c68bb834cdcb4292</title>
<g id="a_edge11"><a xlink:href="dir_000068_000098.html" target="_top">
<path fill="none" stroke="#63b8ff" d="M226.74,-243.87C241.15,-224.32 272.62,-175.12 259,-134 247.85,-100.33 220.4,-68.78 202.25,-50.57"/>
<polygon fill="#63b8ff" stroke="#63b8ff" points="204.26,-47.65 194.66,-43.19 199.38,-52.67 204.26,-47.65"/>
</a>
</g>
<g id="a_edge11&#45;headlabel"><a xlink:href="dir_000068_000098.html" target="_top" xlink:title="68">
<text text-anchor="middle" x="208.82" y="-45.62" font-family="Helvetica,sans-Serif" font-size="10.00" fill="#63b8ff">68</text>
</a>
</g>
</g>
<!-- dir_1e46d961eb277b2583ee5b095f5b4c8e&#45;&gt;dir_614bfcfaacae36fbea464e65a5a85120 -->
<g id="edge14" class="edge">
<title>dir_1e46d961eb277b2583ee5b095f5b4c8e&#45;&gt;dir_614bfcfaacae36fbea464e65a5a85120</title>
<g id="a_edge14"><a xlink:href="dir_000068_000115.html" target="_top">
<path fill="none" stroke="#63b8ff" d="M207.57,-243.75C199.82,-236.34 190.44,-225.5 183.7,-216.41"/>
<polygon fill="#63b8ff" stroke="#63b8ff" points="186.54,-214.36 178,-208.09 180.76,-218.32 186.54,-214.36"/>
</a>
</g>
<g id="a_edge14&#45;headlabel"><a xlink:href="dir_000068_000115.html" target="_top" xlink:title="11">
<text text-anchor="middle" x="190.91" y="-213.22" font-family="Helvetica,sans-Serif" font-size="10.00" fill="#63b8ff">11</text>
</a>
</g>
</g>
<!-- dir_1e46d961eb277b2583ee5b095f5b4c8e&#45;&gt;dir_dde1b4dbeafc450b8ae5525133d75a82 -->
<g id="edge16" class="edge">
<title>dir_1e46d961eb277b2583ee5b095f5b4c8e&#45;&gt;dir_dde1b4dbeafc450b8ae5525133d75a82</title>
<g id="a_edge16"><a xlink:href="dir_000068_000120.html" target="_top">
<path fill="none" stroke="#63b8ff" d="M216.66,-243.66C214.53,-226.17 216.63,-186.8 220.52,-163.27"/>
<polygon fill="#63b8ff" stroke="#63b8ff" points="224.01,-163.65 222.56,-153.16 217.15,-162.27 224.01,-163.65"/>
</a>
</g>
<g id="a_edge16&#45;headlabel"><a xlink:href="dir_000068_000120.html" target="_top" xlink:title="10">
<text text-anchor="middle" x="226.09" y="-165.24" font-family="Helvetica,sans-Serif" font-size="10.00" fill="#63b8ff">10</text>
</a>
</g>
</g>
<!-- dir_1e46d961eb277b2583ee5b095f5b4c8e&#45;&gt;dir_3e2f71566425d27b6ac8140f1223a941 -->
<g id="edge12" class="edge">
<title>dir_1e46d961eb277b2583ee5b095f5b4c8e&#45;&gt;dir_3e2f71566425d27b6ac8140f1223a941</title>
<g id="a_edge12"><a xlink:href="dir_000068_000188.html" target="_top">
<path fill="none" stroke="#63b8ff" d="M194.89,-246.72C175.06,-240.69 148.68,-229.07 136,-208 117.19,-176.74 128.66,-132.13 137.55,-107.52"/>
<polygon fill="#63b8ff" stroke="#63b8ff" points="140.88,-108.61 141.23,-98.02 134.35,-106.09 140.88,-108.61"/>
</a>
</g>
<g id="a_edge12&#45;headlabel"><a xlink:href="dir_000068_000188.html" target="_top" xlink:title="37">
<text text-anchor="middle" x="142.24" y="-110.49" font-family="Helvetica,sans-Serif" font-size="10.00" fill="#63b8ff">37</text>
</a>
</g>
</g>
<!-- dir_e838ebfdcf77e050c9d833b3366569df&#45;&gt;dir_268add6b94670641c68bb834cdcb4292 -->
<g id="edge18" class="edge">
<title>dir_e838ebfdcf77e050c9d833b3366569df&#45;&gt;dir_268add6b94670641c68bb834cdcb4292</title>
<g id="a_edge18"><a xlink:href="dir_000090_000098.html" target="_top">
<path fill="none" stroke="#63b8ff" d="M71.49,-133.66C81.18,-120.77 100.41,-96.48 120,-79 132.81,-67.57 148.68,-56.65 161.54,-48.49"/>
<polygon fill="#63b8ff" stroke="#63b8ff" points="163.63,-51.31 170.28,-43.06 159.94,-45.36 163.63,-51.31"/>
</a>
</g>
<g id="a_edge18&#45;headlabel"><a xlink:href="dir_000090_000098.html" target="_top" xlink:title="2">
<text text-anchor="middle" x="162.07" y="-53.12" font-family="Helvetica,sans-Serif" font-size="10.00" fill="#63b8ff">2</text>
</a>
</g>
</g>
<!-- dir_e838ebfdcf77e050c9d833b3366569df&#45;&gt;dir_3e2f71566425d27b6ac8140f1223a941 -->
<g id="edge19" class="edge">
<title>dir_e838ebfdcf77e050c9d833b3366569df&#45;&gt;dir_3e2f71566425d27b6ac8140f1223a941</title>
<g id="a_edge19"><a xlink:href="dir_000090_000188.html" target="_top">
<path fill="none" stroke="#63b8ff" d="M77.85,-133.98C90.14,-125.84 108.91,-113.41 123.48,-103.76"/>
<polygon fill="#63b8ff" stroke="#63b8ff" points="125.51,-106.61 131.91,-98.17 121.64,-100.78 125.51,-106.61"/>
</a>
</g>
<g id="a_edge19&#45;headlabel"><a xlink:href="dir_000090_000188.html" target="_top" xlink:title="6">
<text text-anchor="middle" x="124.08" y="-108.46" font-family="Helvetica,sans-Serif" font-size="10.00" fill="#63b8ff">6</text>
</a>
</g>
</g>
<!-- dir_614bfcfaacae36fbea464e65a5a85120&#45;&gt;dir_4e12247f2bbe360a59cd98a83515e8f1 -->
<g id="edge23" class="edge">
<title>dir_614bfcfaacae36fbea464e65a5a85120&#45;&gt;dir_4e12247f2bbe360a59cd98a83515e8f1</title>
<g id="a_edge23"><a xlink:href="dir_000115_000059.html" target="_top">
<path fill="none" stroke="#63b8ff" d="M176.03,-208.08C176.36,-220.64 178.1,-244.53 186,-263 190.38,-273.24 197.65,-283.23 204.35,-291.14"/>
<polygon fill="#63b8ff" stroke="#63b8ff" points="201.94,-293.7 211.22,-298.82 207.16,-289.03 201.94,-293.7"/>
</a>
</g>
<g id="a_edge23&#45;headlabel"><a xlink:href="dir_000115_000059.html" target="_top" xlink:title="2">
<text text-anchor="middle" x="197.43" y="-290.42" font-family="Helvetica,sans-Serif" font-size="10.00" fill="#63b8ff">2</text>
</a>
</g>
</g>
<!-- dir_614bfcfaacae36fbea464e65a5a85120&#45;&gt;dir_1e46d961eb277b2583ee5b095f5b4c8e -->
<g id="edge20" class="edge">
<title>dir_614bfcfaacae36fbea464e65a5a85120&#45;&gt;dir_1e46d961eb277b2583ee5b095f5b4c8e</title>
<g id="a_edge20"><a xlink:href="dir_000115_000068.html" target="_top">
<path fill="none" stroke="#63b8ff" d="M188.26,-208.09C195.98,-215.45 205.37,-226.27 212.15,-235.39"/>
<polygon fill="#63b8ff" stroke="#63b8ff" points="209.35,-237.49 217.9,-243.75 215.12,-233.52 209.35,-237.49"/>
</a>
</g>
<g id="a_edge20&#45;headlabel"><a xlink:href="dir_000115_000068.html" target="_top" xlink:title="9">
<text text-anchor="middle" x="204.97" y="-233.64" font-family="Helvetica,sans-Serif" font-size="10.00" fill="#63b8ff">9</text>
</a>
</g>
</g>
<!-- dir_614bfcfaacae36fbea464e65a5a85120&#45;&gt;dir_268add6b94670641c68bb834cdcb4292 -->
<g id="edge21" class="edge">
<title>dir_614bfcfaacae36fbea464e65a5a85120&#45;&gt;dir_268add6b94670641c68bb834cdcb4292</title>
<g id="a_edge21"><a xlink:href="dir_000115_000098.html" target="_top">
<path fill="none" stroke="#63b8ff" d="M176.48,-188.74C177.89,-163.31 181.99,-89.08 183.94,-53.69"/>
<polygon fill="#63b8ff" stroke="#63b8ff" points="187.46,-53.48 184.51,-43.31 180.47,-53.1 187.46,-53.48"/>
</a>
</g>
<g id="a_edge21&#45;headlabel"><a xlink:href="dir_000115_000098.html" target="_top" xlink:title="17">
<text text-anchor="middle" x="190.09" y="-54.73" font-family="Helvetica,sans-Serif" font-size="10.00" fill="#63b8ff">17</text>
</a>
</g>
</g>
<!-- dir_614bfcfaacae36fbea464e65a5a85120&#45;&gt;dir_dde1b4dbeafc450b8ae5525133d75a82 -->
<g id="edge24" class="edge">
<title>dir_614bfcfaacae36fbea464e65a5a85120&#45;&gt;dir_dde1b4dbeafc450b8ae5525133d75a82</title>
<g id="a_edge24"><a xlink:href="dir_000115_000120.html" target="_top">
<path fill="none" stroke="#63b8ff" d="M179.26,-188.75C185.08,-180.95 195.88,-169.37 205.88,-160"/>
<polygon fill="#63b8ff" stroke="#63b8ff" points="208.49,-162.37 213.6,-153.09 203.82,-157.15 208.49,-162.37"/>
</a>
</g>
<g id="a_edge24&#45;headlabel"><a xlink:href="dir_000115_000120.html" target="_top" xlink:title="3">
<text text-anchor="middle" x="207.7" y="-164.38" font-family="Helvetica,sans-Serif" font-size="10.00" fill="#63b8ff">3</text>
</a>
</g>
</g>
<!-- dir_614bfcfaacae36fbea464e65a5a85120&#45;&gt;dir_3e2f71566425d27b6ac8140f1223a941 -->
<g id="edge22" class="edge">
<title>dir_614bfcfaacae36fbea464e65a5a85120&#45;&gt;dir_3e2f71566425d27b6ac8140f1223a941</title>
<g id="a_edge22"><a xlink:href="dir_000115_000188.html" target="_top">
<path fill="none" stroke="#63b8ff" d="M173.46,-188.66C168.42,-171.09 157.04,-131.45 150.3,-107.95"/>
<polygon fill="#63b8ff" stroke="#63b8ff" points="153.61,-106.8 147.49,-98.16 146.88,-108.74 153.61,-106.8"/>
</a>
</g>
<g id="a_edge22&#45;headlabel"><a xlink:href="dir_000115_000188.html" target="_top" xlink:title="21">
<text text-anchor="middle" x="157.33" y="-106.98" font-family="Helvetica,sans-Serif" font-size="10.00" fill="#63b8ff">21</text>
</a>
</g>
</g>
<!-- dir_dde1b4dbeafc450b8ae5525133d75a82&#45;&gt;dir_4e12247f2bbe360a59cd98a83515e8f1 -->
<g id="edge28" class="edge">
<title>dir_dde1b4dbeafc450b8ae5525133d75a82&#45;&gt;dir_4e12247f2bbe360a59cd98a83515e8f1</title>
<g id="a_edge28"><a xlink:href="dir_000120_000059.html" target="_top">
<path fill="none" stroke="#63b8ff" d="M232.25,-153.29C243.44,-173.18 267.52,-223.03 254,-263 250.44,-273.53 243.28,-283.52 236.45,-291.37"/>
<polygon fill="#63b8ff" stroke="#63b8ff" points="233.87,-288.99 229.61,-298.69 238.99,-293.77 233.87,-288.99"/>
</a>
</g>
<g id="a_edge28&#45;headlabel"><a xlink:href="dir_000120_000059.html" target="_top" xlink:title="2">
<text text-anchor="middle" x="234.25" y="-281.93" font-family="Helvetica,sans-Serif" font-size="10.00" fill="#63b8ff">2</text>
</a>
</g>
</g>
<!-- dir_dde1b4dbeafc450b8ae5525133d75a82&#45;&gt;dir_1e46d961eb277b2583ee5b095f5b4c8e -->
<g id="edge25" class="edge">
<title>dir_dde1b4dbeafc450b8ae5525133d75a82&#45;&gt;dir_1e46d961eb277b2583ee5b095f5b4c8e</title>
<g id="a_edge25"><a xlink:href="dir_000120_000068.html" target="_top">
<path fill="none" stroke="#63b8ff" d="M230.32,-153.16C232.48,-170.58 230.37,-210.2 226.47,-233.8"/>
<polygon fill="#63b8ff" stroke="#63b8ff" points="223.02,-233.17 224.48,-243.66 229.89,-234.55 223.02,-233.17"/>
</a>
</g>
<g id="a_edge25&#45;headlabel"><a xlink:href="dir_000120_000068.html" target="_top" xlink:title="1">
<text text-anchor="middle" x="220.95" y="-226.58" font-family="Helvetica,sans-Serif" font-size="10.00" fill="#63b8ff">1</text>
</a>
</g>
</g>
<!-- dir_dde1b4dbeafc450b8ae5525133d75a82&#45;&gt;dir_268add6b94670641c68bb834cdcb4292 -->
<g id="edge26" class="edge">
<title>dir_dde1b4dbeafc450b8ae5525133d75a82&#45;&gt;dir_268add6b94670641c68bb834cdcb4292</title>
<g id="a_edge26"><a xlink:href="dir_000120_000098.html" target="_top">
<path fill="none" stroke="#63b8ff" d="M223.56,-133.66C216.7,-116.01 201.17,-76.09 192.05,-52.64"/>
<polygon fill="#63b8ff" stroke="#63b8ff" points="195.25,-51.21 188.37,-43.16 188.73,-53.75 195.25,-51.21"/>
</a>
</g>
<g id="a_edge26&#45;headlabel"><a xlink:href="dir_000120_000098.html" target="_top" xlink:title="11">
<text text-anchor="middle" x="199.2" y="-51.03" font-family="Helvetica,sans-Serif" font-size="10.00" fill="#63b8ff">11</text>
</a>
</g>
</g>
<!-- dir_dde1b4dbeafc450b8ae5525133d75a82&#45;&gt;dir_614bfcfaacae36fbea464e65a5a85120 -->
<g id="edge29" class="edge">
<title>dir_dde1b4dbeafc450b8ae5525133d75a82&#45;&gt;dir_614bfcfaacae36fbea464e65a5a85120</title>
<g id="a_edge29"><a xlink:href="dir_000120_000115.html" target="_top">
<path fill="none" stroke="#63b8ff" d="M223.81,-153.17C217.93,-161.06 206.9,-172.87 196.77,-182.32"/>
<polygon fill="#63b8ff" stroke="#63b8ff" points="194.44,-179.71 189.31,-188.98 199.1,-184.94 194.44,-179.71"/>
</a>
</g>
<g id="a_edge29&#45;headlabel"><a xlink:href="dir_000120_000115.html" target="_top" xlink:title="4">
<text text-anchor="middle" x="195.23" y="-172.7" font-family="Helvetica,sans-Serif" font-size="10.00" fill="#63b8ff">4</text>
</a>
</g>
</g>
<!-- dir_dde1b4dbeafc450b8ae5525133d75a82&#45;&gt;dir_3e2f71566425d27b6ac8140f1223a941 -->
<g id="edge27" class="edge">
<title>dir_dde1b4dbeafc450b8ae5525133d75a82&#45;&gt;dir_3e2f71566425d27b6ac8140f1223a941</title>
<g id="a_edge27"><a xlink:href="dir_000120_000188.html" target="_top">
<path fill="none" stroke="#63b8ff" d="M213.83,-133.98C201.23,-125.84 182,-113.41 167.06,-103.76"/>
<polygon fill="#63b8ff" stroke="#63b8ff" points="168.71,-100.66 158.41,-98.17 164.91,-106.54 168.71,-100.66"/>
</a>
</g>
<g id="a_edge27&#45;headlabel"><a xlink:href="dir_000120_000188.html" target="_top" xlink:title="3">
<text text-anchor="middle" x="173.27" y="-97.73" font-family="Helvetica,sans-Serif" font-size="10.00" fill="#63b8ff">3</text>
</a>
</g>
</g>
<!-- dir_3e2f71566425d27b6ac8140f1223a941&#45;&gt;dir_4e12247f2bbe360a59cd98a83515e8f1 -->
<g id="edge31" class="edge">
<title>dir_3e2f71566425d27b6ac8140f1223a941&#45;&gt;dir_4e12247f2bbe360a59cd98a83515e8f1</title>
<g id="a_edge31"><a xlink:href="dir_000188_000059.html" target="_top">
<path fill="none" stroke="#63b8ff" d="M142.16,-98.1C136.04,-118 123.18,-168.56 136,-208 147.61,-243.71 179.52,-274.97 200.5,-292.52"/>
<polygon fill="#63b8ff" stroke="#63b8ff" points="198.49,-295.4 208.47,-298.97 202.9,-289.96 198.49,-295.4"/>
</a>
</g>
<g id="a_edge31&#45;headlabel"><a xlink:href="dir_000188_000059.html" target="_top" xlink:title="1">
<text text-anchor="middle" x="193.91" y="-292.84" font-family="Helvetica,sans-Serif" font-size="10.00" fill="#63b8ff">1</text>
</a>
</g>
</g>
<!-- dir_3e2f71566425d27b6ac8140f1223a941&#45;&gt;dir_268add6b94670641c68bb834cdcb4292 -->
<g id="edge30" class="edge">
<title>dir_3e2f71566425d27b6ac8140f1223a941&#45;&gt;dir_268add6b94670641c68bb834cdcb4292</title>
<g id="a_edge30"><a xlink:href="dir_000188_000098.html" target="_top">
<path fill="none" stroke="#63b8ff" d="M151.61,-78.75C157.26,-71.26 165.54,-60.28 172.45,-51.13"/>
<polygon fill="#63b8ff" stroke="#63b8ff" points="175.29,-53.18 178.52,-43.09 169.7,-48.96 175.29,-53.18"/>
</a>
</g>
<g id="a_edge30&#45;headlabel"><a xlink:href="dir_000188_000098.html" target="_top" xlink:title="1">
<text text-anchor="middle" x="175.39" y="-55.26" font-family="Helvetica,sans-Serif" font-size="10.00" fill="#63b8ff">1</text>
</a>
</g>
</g>
</g>
</svg>
