<?xml version="1.0" encoding="UTF-8" standalone="no"?>
<!DOCTYPE svg PUBLIC "-//W3C//DTD SVG 1.1//EN"
 "http://www.w3.org/Graphics/SVG/1.1/DTD/svg11.dtd">
<!-- Generated by graphviz version 2.43.0 (0)
 -->
<!-- Title: core Pages: 1 -->
<svg width="502pt" height="204pt"
 viewBox="0.00 0.00 502.00 204.00" xmlns="http://www.w3.org/2000/svg" xmlns:xlink="http://www.w3.org/1999/xlink">
<g id="graph0" class="graph" transform="scale(1 1) rotate(0) translate(4 200)">
<title>core</title>
<g id="clust1" class="cluster">
<title>clusterdir_1ac1243035b4576c146b8d2c8a6274f6</title>
<g id="a_clust1"><a xlink:href="dir_1ac1243035b4576c146b8d2c8a6274f6.html" target="_top" xlink:title="helios">
<polygon fill="#edf0f7" stroke="#7f7f7f" stroke-dasharray="5,2" points="8,-8 8,-188 486,-188 486,-8 8,-8"/>
<text text-anchor="middle" x="247" y="-176" font-family="Helvetica,sans-Serif" font-size="10.00">helios</text>
</a>
</g>
</g>
<g id="clust2" class="cluster">
<title>clusterdir_4e12247f2bbe360a59cd98a83515e8f1</title>
<g id="a_clust2"><a xlink:href="dir_4e12247f2bbe360a59cd98a83515e8f1.html" target="_top">
<polygon fill="#edf0f7" stroke="#404040" stroke-width="2" points="16,-16 16,-161 310,-161 310,-16 16,-16"/>
</a>
</g>
</g>
<!-- dir_1e46d961eb277b2583ee5b095f5b4c8e -->
<g id="node1" class="node">
<title>dir_1e46d961eb277b2583ee5b095f5b4c8e</title>
<g id="a_node1"><a xlink:href="dir_1e46d961eb277b2583ee5b095f5b4c8e.html" target="_top" xlink:title="engine">
<polygon fill="#a2b4d6" stroke="red" points="368,-43 318,-43 318,-24 368,-24 368,-43"/>
<text text-anchor="middle" x="343" y="-31" font-family="Helvetica,sans-Serif" font-size="10.00">engine</text>
</a>
</g>
</g>
<!-- dir_3e2f71566425d27b6ac8140f1223a941 -->
<g id="node2" class="node">
<title>dir_3e2f71566425d27b6ac8140f1223a941</title>
<g id="a_node2"><a xlink:href="dir_3e2f71566425d27b6ac8140f1223a941.html" target="_top" xlink:title="util">
<polygon fill="#a2b4d6" stroke="red" points="418,-43 386,-43 386,-24 418,-24 418,-43"/>
<text text-anchor="middle" x="402" y="-31" font-family="Helvetica,sans-Serif" font-size="10.00">util</text>
</a>
</g>
</g>
<!-- dir_268add6b94670641c68bb834cdcb4292 -->
<g id="node3" class="node">
<title>dir_268add6b94670641c68bb834cdcb4292</title>
<g id="a_node3"><a xlink:href="dir_268add6b94670641c68bb834cdcb4292.html" target="_top" xlink:title="math">
<polygon fill="#a2b4d6" stroke="red" points="478,-43 436,-43 436,-24 478,-24 478,-43"/>
<text text-anchor="middle" x="457" y="-31" font-family="Helvetica,sans-Serif" font-size="10.00">math</text>
</a>
</g>
</g>
<!-- dir_4e12247f2bbe360a59cd98a83515e8f1 -->
<g id="node4" class="node">
<title>dir_4e12247f2bbe360a59cd98a83515e8f1</title>
<text text-anchor="middle" x="141" y="-141" font-family="Helvetica,sans-Serif" font-size="10.00">core</text>
</g>
<!-- dir_10dcbb583c8971a85dc04afc9aedf6b7 -->
<g id="node5" class="node">
<title>dir_10dcbb583c8971a85dc04afc9aedf6b7</title>
<g id="a_node5"><a xlink:href="dir_10dcbb583c8971a85dc04afc9aedf6b7.html" target="_top" xlink:title="container">
<polygon fill="#a2b4d6" stroke="#404040" points="106,-98 44,-98 44,-79 106,-79 106,-98"/>
<text text-anchor="middle" x="75" y="-86" font-family="Helvetica,sans-Serif" font-size="10.00">container</text>
</a>
</g>
</g>
<!-- dir_4e12247f2bbe360a59cd98a83515e8f1&#45;&gt;dir_10dcbb583c8971a85dc04afc9aedf6b7 -->
<g id="edge2" class="edge">
<title>dir_4e12247f2bbe360a59cd98a83515e8f1&#45;&gt;dir_10dcbb583c8971a85dc04afc9aedf6b7</title>
<g id="a_edge2"><a xlink:href="dir_000059_000057.html" target="_top">
<path fill="none" stroke="#63b8ff" d="M130.4,-133.98C120.54,-126.07 105.65,-114.11 93.78,-104.58"/>
<polygon fill="#63b8ff" stroke="#63b8ff" points="95.79,-101.7 85.8,-98.17 91.4,-107.16 95.79,-101.7"/>
</a>
</g>
<g id="a_edge2&#45;headlabel"><a xlink:href="dir_000059_000057.html" target="_top" xlink:title="2">
<text text-anchor="middle" x="100.37" y="-99.24" font-family="Helvetica,sans-Serif" font-size="10.00" fill="#63b8ff">2</text>
</a>
</g>
</g>
<!-- dir_10cf350f37124dbdd00ea56cff4fe733 -->
<g id="node6" class="node">
<title>dir_10cf350f37124dbdd00ea56cff4fe733</title>
<g id="a_node6"><a xlink:href="dir_10cf350f37124dbdd00ea56cff4fe733.html" target="_top" xlink:title="data">
<polygon fill="#a2b4d6" stroke="#404040" points="94,-43 56,-43 56,-24 94,-24 94,-43"/>
<text text-anchor="middle" x="75" y="-31" font-family="Helvetica,sans-Serif" font-size="10.00">data</text>
</a>
</g>
</g>
<!-- dir_4e12247f2bbe360a59cd98a83515e8f1&#45;&gt;dir_10cf350f37124dbdd00ea56cff4fe733 -->
<g id="edge1" class="edge">
<title>dir_4e12247f2bbe360a59cd98a83515e8f1&#45;&gt;dir_10cf350f37124dbdd00ea56cff4fe733</title>
<g id="a_edge1"><a xlink:href="dir_000059_000062.html" target="_top">
<path fill="none" stroke="#63b8ff" d="M121.69,-140.69C96.77,-137.2 54.34,-127.09 35,-98 24.11,-81.61 39.99,-62.46 54.85,-49.51"/>
<polygon fill="#63b8ff" stroke="#63b8ff" points="57.28,-52.04 62.82,-43.01 52.85,-46.61 57.28,-52.04"/>
</a>
</g>
<g id="a_edge1&#45;headlabel"><a xlink:href="dir_000059_000062.html" target="_top" xlink:title="7">
<text text-anchor="middle" x="56.29" y="-54.01" font-family="Helvetica,sans-Serif" font-size="10.00" fill="#63b8ff">7</text>
</a>
</g>
</g>
<!-- dir_9de402874d436ac6a8c87d3a6b21e6e9 -->
<g id="node7" class="node">
<title>dir_9de402874d436ac6a8c87d3a6b21e6e9</title>
<g id="a_node7"><a xlink:href="dir_9de402874d436ac6a8c87d3a6b21e6e9.html" target="_top" xlink:title="ecs">
<polygon fill="#a2b4d6" stroke="#404040" points="157.5,-98 124.5,-98 124.5,-79 157.5,-79 157.5,-98"/>
<text text-anchor="middle" x="141" y="-86" font-family="Helvetica,sans-Serif" font-size="10.00">ecs</text>
</a>
</g>
</g>
<!-- dir_4e12247f2bbe360a59cd98a83515e8f1&#45;&gt;dir_9de402874d436ac6a8c87d3a6b21e6e9 -->
<g id="edge4" class="edge">
<title>dir_4e12247f2bbe360a59cd98a83515e8f1&#45;&gt;dir_9de402874d436ac6a8c87d3a6b21e6e9</title>
<g id="a_edge4"><a xlink:href="dir_000059_000064.html" target="_top">
<path fill="none" stroke="#63b8ff" d="M141,-133.75C141,-126.8 141,-116.85 141,-108.13"/>
<polygon fill="#63b8ff" stroke="#63b8ff" points="144.5,-108.09 141,-98.09 137.5,-108.09 144.5,-108.09"/>
</a>
</g>
<g id="a_edge4&#45;headlabel"><a xlink:href="dir_000059_000064.html" target="_top" xlink:title="3">
<text text-anchor="middle" x="147.34" y="-109.18" font-family="Helvetica,sans-Serif" font-size="10.00" fill="#63b8ff">3</text>
</a>
</g>
</g>
<!-- dir_7ac130d819a67a0b4cf4e0f9c1cae22c -->
<g id="node8" class="node">
<title>dir_7ac130d819a67a0b4cf4e0f9c1cae22c</title>
<g id="a_node8"><a xlink:href="dir_7ac130d819a67a0b4cf4e0f9c1cae22c.html" target="_top" xlink:title="memory">
<polygon fill="#a2b4d6" stroke="#404040" points="234,-98 176,-98 176,-79 234,-79 234,-98"/>
<text text-anchor="middle" x="205" y="-86" font-family="Helvetica,sans-Serif" font-size="10.00">memory</text>
</a>
</g>
</g>
<!-- dir_4e12247f2bbe360a59cd98a83515e8f1&#45;&gt;dir_7ac130d819a67a0b4cf4e0f9c1cae22c -->
<g id="edge3" class="edge">
<title>dir_4e12247f2bbe360a59cd98a83515e8f1&#45;&gt;dir_7ac130d819a67a0b4cf4e0f9c1cae22c</title>
<g id="a_edge3"><a xlink:href="dir_000059_000101.html" target="_top">
<path fill="none" stroke="#63b8ff" d="M151.28,-133.98C160.84,-126.07 175.28,-114.11 186.78,-104.58"/>
<polygon fill="#63b8ff" stroke="#63b8ff" points="189.06,-107.24 194.53,-98.17 184.6,-101.85 189.06,-107.24"/>
</a>
</g>
<g id="a_edge3&#45;headlabel"><a xlink:href="dir_000059_000101.html" target="_top" xlink:title="1">
<text text-anchor="middle" x="188.1" y="-109.22" font-family="Helvetica,sans-Serif" font-size="10.00" fill="#63b8ff">1</text>
</a>
</g>
</g>
<!-- dir_c895596e1264bd44bfc4ab7e30749e4b -->
<g id="node9" class="node">
<title>dir_c895596e1264bd44bfc4ab7e30749e4b</title>
<g id="a_node9"><a xlink:href="dir_c895596e1264bd44bfc4ab7e30749e4b.html" target="_top" xlink:title="spatial">
<polygon fill="#a2b4d6" stroke="#404040" points="302,-98 252,-98 252,-79 302,-79 302,-98"/>
<text text-anchor="middle" x="277" y="-86" font-family="Helvetica,sans-Serif" font-size="10.00">spatial</text>
</a>
</g>
</g>
<!-- dir_4e12247f2bbe360a59cd98a83515e8f1&#45;&gt;dir_c895596e1264bd44bfc4ab7e30749e4b -->
<g id="edge5" class="edge">
<title>dir_4e12247f2bbe360a59cd98a83515e8f1&#45;&gt;dir_c895596e1264bd44bfc4ab7e30749e4b</title>
<g id="a_edge5"><a xlink:href="dir_000059_000127.html" target="_top">
<path fill="none" stroke="#63b8ff" d="M160.2,-135.02C182.27,-126.42 218.85,-112.16 245.19,-101.89"/>
<polygon fill="#63b8ff" stroke="#63b8ff" points="246.69,-105.07 254.74,-98.17 244.15,-98.54 246.69,-105.07"/>
</a>
</g>
<g id="a_edge5&#45;headlabel"><a xlink:href="dir_000059_000127.html" target="_top" xlink:title="1">
<text text-anchor="middle" x="244.37" y="-106.52" font-family="Helvetica,sans-Serif" font-size="10.00" fill="#63b8ff">1</text>
</a>
</g>
</g>
<!-- dir_10dcbb583c8971a85dc04afc9aedf6b7&#45;&gt;dir_1e46d961eb277b2583ee5b095f5b4c8e -->
<g id="edge7" class="edge">
<title>dir_10dcbb583c8971a85dc04afc9aedf6b7&#45;&gt;dir_1e46d961eb277b2583ee5b095f5b4c8e</title>
<g id="a_edge7"><a xlink:href="dir_000057_000067.html" target="_top">
<path fill="none" stroke="#63b8ff" d="M106.32,-80.92C109.59,-80.26 112.86,-79.61 116,-79 200.54,-62.55 225.16,-63.51 307.9,-44.38"/>
<polygon fill="#63b8ff" stroke="#63b8ff" points="308.8,-47.76 317.74,-42.08 307.2,-40.95 308.8,-47.76"/>
</a>
</g>
<g id="a_edge7&#45;headlabel"><a xlink:href="dir_000057_000067.html" target="_top" xlink:title="1">
<text text-anchor="middle" x="305.95" y="-48.85" font-family="Helvetica,sans-Serif" font-size="10.00" fill="#63b8ff">1</text>
</a>
</g>
</g>
<!-- dir_10dcbb583c8971a85dc04afc9aedf6b7&#45;&gt;dir_10cf350f37124dbdd00ea56cff4fe733 -->
<g id="edge6" class="edge">
<title>dir_10dcbb583c8971a85dc04afc9aedf6b7&#45;&gt;dir_10cf350f37124dbdd00ea56cff4fe733</title>
<g id="a_edge6"><a xlink:href="dir_000057_000062.html" target="_top">
<path fill="none" stroke="#63b8ff" d="M75,-78.75C75,-71.8 75,-61.85 75,-53.13"/>
<polygon fill="#63b8ff" stroke="#63b8ff" points="78.5,-53.09 75,-43.09 71.5,-53.09 78.5,-53.09"/>
</a>
</g>
<g id="a_edge6&#45;headlabel"><a xlink:href="dir_000057_000062.html" target="_top" xlink:title="4">
<text text-anchor="middle" x="81.34" y="-54.18" font-family="Helvetica,sans-Serif" font-size="10.00" fill="#63b8ff">4</text>
</a>
</g>
</g>
<!-- dir_9de402874d436ac6a8c87d3a6b21e6e9&#45;&gt;dir_3e2f71566425d27b6ac8140f1223a941 -->
<g id="edge9" class="edge">
<title>dir_9de402874d436ac6a8c87d3a6b21e6e9&#45;&gt;dir_3e2f71566425d27b6ac8140f1223a941</title>
<g id="a_edge9"><a xlink:href="dir_000064_000186.html" target="_top">
<path fill="none" stroke="#63b8ff" d="M157.68,-81.65C160.76,-80.68 163.96,-79.75 167,-79 255.86,-56.98 283.4,-65.68 376.18,-42.83"/>
<polygon fill="#63b8ff" stroke="#63b8ff" points="377.13,-46.2 385.97,-40.37 375.42,-39.41 377.13,-46.2"/>
</a>
</g>
<g id="a_edge9&#45;headlabel"><a xlink:href="dir_000064_000186.html" target="_top" xlink:title="1">
<text text-anchor="middle" x="374.34" y="-47.33" font-family="Helvetica,sans-Serif" font-size="10.00" fill="#63b8ff">1</text>
</a>
</g>
</g>
<!-- dir_9de402874d436ac6a8c87d3a6b21e6e9&#45;&gt;dir_10cf350f37124dbdd00ea56cff4fe733 -->
<g id="edge8" class="edge">
<title>dir_9de402874d436ac6a8c87d3a6b21e6e9&#45;&gt;dir_10cf350f37124dbdd00ea56cff4fe733</title>
<g id="a_edge8"><a xlink:href="dir_000064_000062.html" target="_top">
<path fill="none" stroke="#63b8ff" d="M130.4,-78.98C120.54,-71.07 105.65,-59.11 93.78,-49.58"/>
<polygon fill="#63b8ff" stroke="#63b8ff" points="95.79,-46.7 85.8,-43.17 91.4,-52.16 95.79,-46.7"/>
</a>
</g>
<g id="a_edge8&#45;headlabel"><a xlink:href="dir_000064_000062.html" target="_top" xlink:title="2">
<text text-anchor="middle" x="100.37" y="-44.24" font-family="Helvetica,sans-Serif" font-size="10.00" fill="#63b8ff">2</text>
</a>
</g>
</g>
<!-- dir_c895596e1264bd44bfc4ab7e30749e4b&#45;&gt;dir_268add6b94670641c68bb834cdcb4292 -->
<g id="edge10" class="edge">
<title>dir_c895596e1264bd44bfc4ab7e30749e4b&#45;&gt;dir_268add6b94670641c68bb834cdcb4292</title>
<g id="a_edge10"><a xlink:href="dir_000127_000099.html" target="_top">
<path fill="none" stroke="#63b8ff" d="M302.03,-80.13C334.47,-70.58 391.03,-53.92 426.11,-43.59"/>
<polygon fill="#63b8ff" stroke="#63b8ff" points="427.22,-46.92 435.83,-40.73 425.25,-40.2 427.22,-46.92"/>
</a>
</g>
<g id="a_edge10&#45;headlabel"><a xlink:href="dir_000127_000099.html" target="_top" xlink:title="2">
<text text-anchor="middle" x="424.58" y="-48.16" font-family="Helvetica,sans-Serif" font-size="10.00" fill="#63b8ff">2</text>
</a>
</g>
</g>
</g>
</svg>
