<?xml version="1.0" encoding="UTF-8" standalone="no"?>
<!DOCTYPE svg PUBLIC "-//W3C//DTD SVG 1.1//EN"
 "http://www.w3.org/Graphics/SVG/1.1/DTD/svg11.dtd">
<!-- Generated by graphviz version 2.43.0 (0)
 -->
<!-- Title: world Pages: 1 -->
<!--zoomable 181 -->

<svg id="main" version="1.1" xmlns="http://www.w3.org/2000/svg" xmlns:xlink="http://www.w3.org/1999/xlink" xml:space="preserve" onload="init(evt)">

<style type="text/css"><![CDATA[
.node, .edge {opacity: 0.7;}
.node.selected, .edge.selected {opacity: 1;}
.edge:hover path { stroke: red; }
.edge:hover polygon { stroke: red; fill: red; }
]]></style>

<defs>
  <circle id="rim" cx="0" cy="0" r="7"/>
  <circle id="rim2" cx="0" cy="0" r="3.5"/>
  <g id="zoomPlus">
    <use xlink:href="#rim" fill="#404040"><set attributeName="fill" to="#808080" begin="zoomplus.mouseover" end="zoomplus.mouseout"/></use>
    <path d="M-4,0h8M0,-4v8" fill="none" stroke="white" stroke-width="1.5" pointer-events="none"/>
  </g>
  <g id="zoomMin">
    <use xlink:href="#rim" fill="#404040"><set attributeName="fill" to="#808080" begin="zoomminus.mouseover" end="zoomminus.mouseout"/></use>
    <path d="M-4,0h8" fill="none" stroke="white" stroke-width="1.5" pointer-events="none"/>
  </g>
  <g id="arrowUp" transform="translate(30 24)">
    <use xlink:href="#rim"/>
    <path pointer-events="none" fill="none" stroke="white" stroke-width="1.5" d="M0,-3.0v7 M-2.5,-0.5L0,-3.0L2.5,-0.5"/>
  </g>
  <g id="arrowRight" transform="rotate(90) translate(36 -43)">
    <use xlink:href="#rim"/>
    <path pointer-events="none" fill="none" stroke="white" stroke-width="1.5" d="M0,-3.0v7 M-2.5,-0.5L0,-3.0L2.5,-0.5"/>
  </g>
  <g id="arrowDown" transform="rotate(180) translate(-30 -48)">
    <use xlink:href="#rim"/>
    <path pointer-events="none" fill="none" stroke="white" stroke-width="1.5" d="M0,-3.0v7 M-2.5,-0.5L0,-3.0L2.5,-0.5"/>
  </g>
  <g id="arrowLeft" transform="rotate(270) translate(-36 17)">
    <use xlink:href="#rim"/>
    <path pointer-events="none" fill="none" stroke="white" stroke-width="1.5" d="M0,-3.0v7 M-2.5,-0.5L0,-3.0L2.5,-0.5"/>
  </g>
  <g id="resetDef">
    <use xlink:href="#rim2" fill="#404040"><set attributeName="fill" to="#808080" begin="reset.mouseover" end="reset.mouseout"/></use>
  </g>
</defs>
<script type="application/ecmascript">
var viewWidth = 924;
var viewHeight = 181;
var sectionId = 'dynsection-0';
</script>
<script type="application/ecmascript" xlink:href="svg.min.js"/>
<svg id="graph" class="graph">
<g id="viewport">
<title>world</title>
<g id="clust1" class="cluster">
<title>clusterdir_fff8ef54a646d9df8d7b15d27474569f</title>
<g id="a_clust1"><a xlink:href="dir_fff8ef54a646d9df8d7b15d27474569f.html" target="_top" xlink:title="runtime">
<polygon fill="#edf0f7" stroke="#7f7f7f" stroke-dasharray="5,2" points="8,-39.7 8,-164.7 164,-164.7 164,-39.7 8,-39.7"/>
<text text-anchor="middle" x="86" y="-152.7" font-family="Helvetica,sans-Serif" font-size="10.00">runtime</text>
</a>
</g>
</g>
<g id="clust2" class="cluster">
<title>clusterdir_271ebd1cecf9fce13500c2bd2d622746</title>
<g id="a_clust2"><a xlink:href="dir_271ebd1cecf9fce13500c2bd2d622746.html" target="_top">
<polygon fill="#edf0f7" stroke="#404040" stroke-width="2" points="16,-47.7 16,-137.7 76,-137.7 76,-47.7 16,-47.7"/>
</a>
</g>
</g>
<!-- dir_3c2debfdd2bfc5d375ae885ec56c77d2 -->
<g id="node1" class="node">
<title>dir_3c2debfdd2bfc5d375ae885ec56c77d2</title>
<g id="a_node1"><a xlink:href="dir_3c2debfdd2bfc5d375ae885ec56c77d2.html" target="_top" xlink:title="messaging">
<polygon fill="#a2b4d6" stroke="red" points="156,-74.7 86,-74.7 86,-55.7 156,-55.7 156,-74.7"/>
<text text-anchor="middle" x="121" y="-62.7" font-family="Helvetica,sans-Serif" font-size="10.00">messaging</text>
</a>
</g>
</g>
<!-- dir_271ebd1cecf9fce13500c2bd2d622746 -->
<g id="node2" class="node">
<title>dir_271ebd1cecf9fce13500c2bd2d622746</title>
<text text-anchor="middle" x="46" y="-117.7" font-family="Helvetica,sans-Serif" font-size="10.00">world</text>
</g>
<!-- dir_271ebd1cecf9fce13500c2bd2d622746&#45;&gt;dir_3c2debfdd2bfc5d375ae885ec56c77d2 -->
<g id="edge4" class="edge">
<title>dir_271ebd1cecf9fce13500c2bd2d622746&#45;&gt;dir_3c2debfdd2bfc5d375ae885ec56c77d2</title>
<g id="a_edge4"><a xlink:href="dir_000193_000102.html" target="_top">
<path fill="none" stroke="#63b8ff" d="M58.05,-110.69C69.46,-102.62 86.83,-90.35 100.43,-80.73"/>
<polygon fill="#63b8ff" stroke="#63b8ff" points="102.58,-83.5 108.73,-74.87 98.54,-77.78 102.58,-83.5"/>
</a>
</g>
<g id="a_edge4&#45;headlabel"><a xlink:href="dir_000193_000102.html" target="_top" xlink:title="5">
<text text-anchor="middle" x="101.29" y="-85.39" font-family="Helvetica,sans-Serif" font-size="10.00" fill="#63b8ff">5</text>
</a>
</g>
</g>
<!-- dir_df38970a8efac170832e6f74abc919d4 -->
<g id="node3" class="node">
<title>dir_df38970a8efac170832e6f74abc919d4</title>
<g id="a_node3"><a xlink:href="dir_df38970a8efac170832e6f74abc919d4.html" target="_top" xlink:title="types">
<polygon fill="#a2b4d6" stroke="#404040" points="68,-74.7 24,-74.7 24,-55.7 68,-55.7 68,-74.7"/>
<text text-anchor="middle" x="46" y="-62.7" font-family="Helvetica,sans-Serif" font-size="10.00">types</text>
</a>
</g>
</g>
<!-- dir_271ebd1cecf9fce13500c2bd2d622746&#45;&gt;dir_df38970a8efac170832e6f74abc919d4 -->
<g id="edge12" class="edge">
<title>dir_271ebd1cecf9fce13500c2bd2d622746&#45;&gt;dir_df38970a8efac170832e6f74abc919d4</title>
<g id="a_edge12"><a xlink:href="dir_000193_000182.html" target="_top">
<path fill="none" stroke="#63b8ff" d="M46,-110.45C46,-103.5 46,-93.55 46,-84.84"/>
<polygon fill="#63b8ff" stroke="#63b8ff" points="49.5,-84.79 46,-74.79 42.5,-84.79 49.5,-84.79"/>
</a>
</g>
<g id="a_edge12&#45;headlabel"><a xlink:href="dir_000193_000182.html" target="_top" xlink:title="4">
<text text-anchor="middle" x="52.34" y="-85.88" font-family="Helvetica,sans-Serif" font-size="10.00" fill="#63b8ff">4</text>
</a>
</g>
</g>
<!-- dir_1a83b528599da40ca3e2005a9bc9336b -->
<g id="node4" class="node">
<title>dir_1a83b528599da40ca3e2005a9bc9336b</title>
<g id="a_node4"><a xlink:href="dir_1a83b528599da40ca3e2005a9bc9336b.html" target="_top" xlink:title="common">
<polygon fill="#edf0f7" stroke="red" stroke-dasharray="5,2" points="233.5,-74.7 174.5,-74.7 174.5,-55.7 233.5,-55.7 233.5,-74.7"/>
<text text-anchor="middle" x="204" y="-62.7" font-family="Helvetica,sans-Serif" font-size="10.00">common</text>
</a>
</g>
</g>
<!-- dir_271ebd1cecf9fce13500c2bd2d622746&#45;&gt;dir_1a83b528599da40ca3e2005a9bc9336b -->
<g id="edge1" class="edge">
<title>dir_271ebd1cecf9fce13500c2bd2d622746&#45;&gt;dir_1a83b528599da40ca3e2005a9bc9336b</title>
<g id="a_edge1"><a xlink:href="dir_000193_000024.html" target="_top">
<path fill="none" stroke="#63b8ff" d="M68.3,-111.72C94.36,-102.98 137.82,-88.4 168.53,-78.1"/>
<polygon fill="#63b8ff" stroke="#63b8ff" points="170.04,-81.28 178.41,-74.79 167.81,-74.65 170.04,-81.28"/>
</a>
</g>
<g id="a_edge1&#45;headlabel"><a xlink:href="dir_000193_000024.html" target="_top" xlink:title="6">
<text text-anchor="middle" x="167.54" y="-82.62" font-family="Helvetica,sans-Serif" font-size="10.00" fill="#63b8ff">6</text>
</a>
</g>
</g>
<!-- dir_1ca916e0b9fbc882dbfbd9e6594e5e22 -->
<g id="node5" class="node">
<title>dir_1ca916e0b9fbc882dbfbd9e6594e5e22</title>
<g id="a_node5"><a xlink:href="dir_1ca916e0b9fbc882dbfbd9e6594e5e22.html" target="_top" xlink:title="ecs">
<polygon fill="#edf0f7" stroke="red" stroke-dasharray="5,2" points="284.5,-74.7 251.5,-74.7 251.5,-55.7 284.5,-55.7 284.5,-74.7"/>
<text text-anchor="middle" x="268" y="-62.7" font-family="Helvetica,sans-Serif" font-size="10.00">ecs</text>
</a>
</g>
</g>
<!-- dir_271ebd1cecf9fce13500c2bd2d622746&#45;&gt;dir_1ca916e0b9fbc882dbfbd9e6594e5e22 -->
<g id="edge2" class="edge">
<title>dir_271ebd1cecf9fce13500c2bd2d622746&#45;&gt;dir_1ca916e0b9fbc882dbfbd9e6594e5e22</title>
<g id="a_edge2"><a xlink:href="dir_000193_000066.html" target="_top">
<path fill="none" stroke="#63b8ff" d="M68.05,-115.01C102.96,-108.21 173.23,-93.84 241.37,-74.94"/>
<polygon fill="#63b8ff" stroke="#63b8ff" points="242.72,-78.19 251.4,-72.12 240.83,-71.45 242.72,-78.19"/>
</a>
</g>
<g id="a_edge2&#45;headlabel"><a xlink:href="dir_000193_000066.html" target="_top" xlink:title="11">
<text text-anchor="middle" x="240.03" y="-79.4" font-family="Helvetica,sans-Serif" font-size="10.00" fill="#63b8ff">11</text>
</a>
</g>
</g>
<!-- dir_268add6b94670641c68bb834cdcb4292 -->
<g id="node6" class="node">
<title>dir_268add6b94670641c68bb834cdcb4292</title>
<g id="a_node6"><a xlink:href="dir_268add6b94670641c68bb834cdcb4292.html" target="_top" xlink:title="math">
<polygon fill="#edf0f7" stroke="red" stroke-dasharray="5,2" points="345,-74.7 303,-74.7 303,-55.7 345,-55.7 345,-74.7"/>
<text text-anchor="middle" x="324" y="-62.7" font-family="Helvetica,sans-Serif" font-size="10.00">math</text>
</a>
</g>
</g>
<!-- dir_271ebd1cecf9fce13500c2bd2d622746&#45;&gt;dir_268add6b94670641c68bb834cdcb4292 -->
<g id="edge3" class="edge">
<title>dir_271ebd1cecf9fce13500c2bd2d622746&#45;&gt;dir_268add6b94670641c68bb834cdcb4292</title>
<g id="a_edge3"><a xlink:href="dir_000193_000098.html" target="_top">
<path fill="none" stroke="#63b8ff" d="M68.04,-115.99C109.96,-109.73 204.17,-94.91 292.82,-74.78"/>
<polygon fill="#63b8ff" stroke="#63b8ff" points="293.8,-78.15 302.76,-72.5 292.23,-71.33 293.8,-78.15"/>
</a>
</g>
<g id="a_edge3&#45;headlabel"><a xlink:href="dir_000193_000098.html" target="_top" xlink:title="1">
<text text-anchor="middle" x="290.93" y="-79.22" font-family="Helvetica,sans-Serif" font-size="10.00" fill="#63b8ff">1</text>
</a>
</g>
</g>
<!-- dir_3e2f71566425d27b6ac8140f1223a941 -->
<g id="node7" class="node">
<title>dir_3e2f71566425d27b6ac8140f1223a941</title>
<g id="a_node7"><a xlink:href="dir_3e2f71566425d27b6ac8140f1223a941.html" target="_top" xlink:title="util">
<polygon fill="#edf0f7" stroke="red" stroke-dasharray="5,2" points="395,-74.7 363,-74.7 363,-55.7 395,-55.7 395,-74.7"/>
<text text-anchor="middle" x="379" y="-62.7" font-family="Helvetica,sans-Serif" font-size="10.00">util</text>
</a>
</g>
</g>
<!-- dir_271ebd1cecf9fce13500c2bd2d622746&#45;&gt;dir_3e2f71566425d27b6ac8140f1223a941 -->
<g id="edge5" class="edge">
<title>dir_271ebd1cecf9fce13500c2bd2d622746&#45;&gt;dir_3e2f71566425d27b6ac8140f1223a941</title>
<g id="a_edge5"><a xlink:href="dir_000193_000188.html" target="_top">
<path fill="none" stroke="#63b8ff" d="M68.3,-117.4C117.95,-113.09 241.41,-100.72 353.24,-74.46"/>
<polygon fill="#63b8ff" stroke="#63b8ff" points="354.08,-77.86 362.99,-72.13 352.45,-71.05 354.08,-77.86"/>
</a>
</g>
<g id="a_edge5&#45;headlabel"><a xlink:href="dir_000193_000188.html" target="_top" xlink:title="3">
<text text-anchor="middle" x="351.24" y="-78.96" font-family="Helvetica,sans-Serif" font-size="10.00" fill="#63b8ff">3</text>
</a>
</g>
</g>
<!-- dir_4e12247f2bbe360a59cd98a83515e8f1 -->
<g id="node8" class="node">
<title>dir_4e12247f2bbe360a59cd98a83515e8f1</title>
<g id="a_node8"><a xlink:href="dir_4e12247f2bbe360a59cd98a83515e8f1.html" target="_top" xlink:title="core">
<polygon fill="#edf0f7" stroke="red" stroke-dasharray="5,2" points="253,-19.7 215,-19.7 215,-0.7 253,-0.7 253,-19.7"/>
<text text-anchor="middle" x="234" y="-7.7" font-family="Helvetica,sans-Serif" font-size="10.00">core</text>
</a>
</g>
</g>
<!-- dir_271ebd1cecf9fce13500c2bd2d622746&#45;&gt;dir_4e12247f2bbe360a59cd98a83515e8f1 -->
<g id="edge6" class="edge">
<title>dir_271ebd1cecf9fce13500c2bd2d622746&#45;&gt;dir_4e12247f2bbe360a59cd98a83515e8f1</title>
<g id="a_edge6"><a xlink:href="dir_000193_000059.html" target="_top">
<path fill="none" stroke="#63b8ff" d="M68.11,-118.12C142.69,-114.27 381.63,-100.02 404,-74.7 414.3,-63.04 414.05,-51.57 404,-39.7 386.32,-18.81 307.11,-13.22 263.33,-11.73"/>
<polygon fill="#63b8ff" stroke="#63b8ff" points="263.37,-8.23 253.28,-11.44 263.17,-15.23 263.37,-8.23"/>
</a>
</g>
<g id="a_edge6&#45;headlabel"><a xlink:href="dir_000193_000059.html" target="_top" xlink:title="9">
<text text-anchor="middle" x="267.05" y="-3" font-family="Helvetica,sans-Serif" font-size="10.00" fill="#63b8ff">9</text>
</a>
</g>
</g>
<!-- dir_5a58a2ffe8660a7fc51fed7e0c7c898d -->
<g id="node9" class="node">
<title>dir_5a58a2ffe8660a7fc51fed7e0c7c898d</title>
<g id="a_node9"><a xlink:href="dir_5a58a2ffe8660a7fc51fed7e0c7c898d.html" target="_top" xlink:title="core">
<polygon fill="#edf0f7" stroke="red" stroke-dasharray="5,2" points="489,-74.7 451,-74.7 451,-55.7 489,-55.7 489,-74.7"/>
<text text-anchor="middle" x="470" y="-62.7" font-family="Helvetica,sans-Serif" font-size="10.00">core</text>
</a>
</g>
</g>
<!-- dir_271ebd1cecf9fce13500c2bd2d622746&#45;&gt;dir_5a58a2ffe8660a7fc51fed7e0c7c898d -->
<g id="edge7" class="edge">
<title>dir_271ebd1cecf9fce13500c2bd2d622746&#45;&gt;dir_5a58a2ffe8660a7fc51fed7e0c7c898d</title>
<g id="a_edge7"><a xlink:href="dir_000193_000060.html" target="_top">
<path fill="none" stroke="#63b8ff" d="M68.21,-117.76C128.12,-113.63 297.93,-100.4 437,-74.7 438.28,-74.46 439.58,-74.21 440.89,-73.93"/>
<polygon fill="#63b8ff" stroke="#63b8ff" points="441.96,-77.28 450.91,-71.6 440.37,-70.46 441.96,-77.28"/>
</a>
</g>
<g id="a_edge7&#45;headlabel"><a xlink:href="dir_000193_000060.html" target="_top" xlink:title="1">
<text text-anchor="middle" x="439.1" y="-78.36" font-family="Helvetica,sans-Serif" font-size="10.00" fill="#63b8ff">1</text>
</a>
</g>
</g>
<!-- dir_614bfcfaacae36fbea464e65a5a85120 -->
<g id="node10" class="node">
<title>dir_614bfcfaacae36fbea464e65a5a85120</title>
<g id="a_node10"><a xlink:href="dir_614bfcfaacae36fbea464e65a5a85120.html" target="_top" xlink:title="rendering">
<polygon fill="#edf0f7" stroke="red" stroke-dasharray="5,2" points="570.5,-74.7 507.5,-74.7 507.5,-55.7 570.5,-55.7 570.5,-74.7"/>
<text text-anchor="middle" x="539" y="-62.7" font-family="Helvetica,sans-Serif" font-size="10.00">rendering</text>
</a>
</g>
</g>
<!-- dir_271ebd1cecf9fce13500c2bd2d622746&#45;&gt;dir_614bfcfaacae36fbea464e65a5a85120 -->
<g id="edge8" class="edge">
<title>dir_271ebd1cecf9fce13500c2bd2d622746&#45;&gt;dir_614bfcfaacae36fbea464e65a5a85120</title>
<g id="a_edge8"><a xlink:href="dir_000193_000115.html" target="_top">
<path fill="none" stroke="#63b8ff" d="M68.21,-117.85C132.81,-113.76 326.35,-100.24 497.34,-74.63"/>
<polygon fill="#63b8ff" stroke="#63b8ff" points="497.91,-78.08 507.28,-73.12 496.86,-71.16 497.91,-78.08"/>
</a>
</g>
<g id="a_edge8&#45;headlabel"><a xlink:href="dir_000193_000115.html" target="_top" xlink:title="1">
<text text-anchor="middle" x="494.78" y="-78.93" font-family="Helvetica,sans-Serif" font-size="10.00" fill="#63b8ff">1</text>
</a>
</g>
</g>
<!-- dir_87b9f5c33f5a8f4d48db11d48f10a572 -->
<g id="node11" class="node">
<title>dir_87b9f5c33f5a8f4d48db11d48f10a572</title>
<g id="a_node11"><a xlink:href="dir_87b9f5c33f5a8f4d48db11d48f10a572.html" target="_top" xlink:title="modules">
<polygon fill="#edf0f7" stroke="red" stroke-dasharray="5,2" points="647.5,-74.7 588.5,-74.7 588.5,-55.7 647.5,-55.7 647.5,-74.7"/>
<text text-anchor="middle" x="618" y="-62.7" font-family="Helvetica,sans-Serif" font-size="10.00">modules</text>
</a>
</g>
</g>
<!-- dir_271ebd1cecf9fce13500c2bd2d622746&#45;&gt;dir_87b9f5c33f5a8f4d48db11d48f10a572 -->
<g id="edge9" class="edge">
<title>dir_271ebd1cecf9fce13500c2bd2d622746&#45;&gt;dir_87b9f5c33f5a8f4d48db11d48f10a572</title>
<g id="a_edge9"><a xlink:href="dir_000193_000105.html" target="_top">
<path fill="none" stroke="#63b8ff" d="M68.25,-118.44C140.52,-115.73 375.24,-105.15 578.25,-74.78"/>
<polygon fill="#63b8ff" stroke="#63b8ff" points="578.84,-78.23 588.2,-73.27 577.79,-71.31 578.84,-78.23"/>
</a>
</g>
<g id="a_edge9&#45;headlabel"><a xlink:href="dir_000193_000105.html" target="_top" xlink:title="1">
<text text-anchor="middle" x="575.71" y="-79.08" font-family="Helvetica,sans-Serif" font-size="10.00" fill="#63b8ff">1</text>
</a>
</g>
</g>
<!-- dir_94b0c4fb82528c4245604725780b49de -->
<g id="node12" class="node">
<title>dir_94b0c4fb82528c4245604725780b49de</title>
<g id="a_node12"><a xlink:href="dir_94b0c4fb82528c4245604725780b49de.html" target="_top" xlink:title="state">
<polygon fill="#edf0f7" stroke="red" stroke-dasharray="5,2" points="706.5,-74.7 665.5,-74.7 665.5,-55.7 706.5,-55.7 706.5,-74.7"/>
<text text-anchor="middle" x="686" y="-62.7" font-family="Helvetica,sans-Serif" font-size="10.00">state</text>
</a>
</g>
</g>
<!-- dir_271ebd1cecf9fce13500c2bd2d622746&#45;&gt;dir_94b0c4fb82528c4245604725780b49de -->
<g id="edge10" class="edge">
<title>dir_271ebd1cecf9fce13500c2bd2d622746&#45;&gt;dir_94b0c4fb82528c4245604725780b49de</title>
<g id="a_edge10"><a xlink:href="dir_000193_000131.html" target="_top">
<path fill="none" stroke="#63b8ff" d="M68.13,-119.28C147,-119.2 421.7,-115.91 655.18,-74.67"/>
<polygon fill="#63b8ff" stroke="#63b8ff" points="655.99,-78.08 665.22,-72.87 654.76,-71.19 655.99,-78.08"/>
</a>
</g>
<g id="a_edge10&#45;headlabel"><a xlink:href="dir_000193_000131.html" target="_top" xlink:title="3">
<text text-anchor="middle" x="652.96" y="-79.01" font-family="Helvetica,sans-Serif" font-size="10.00" fill="#63b8ff">3</text>
</a>
</g>
</g>
<!-- dir_dde1b4dbeafc450b8ae5525133d75a82 -->
<g id="node13" class="node">
<title>dir_dde1b4dbeafc450b8ae5525133d75a82</title>
<g id="a_node13"><a xlink:href="dir_dde1b4dbeafc450b8ae5525133d75a82.html" target="_top" xlink:title="scene">
<polygon fill="#edf0f7" stroke="#7f7f7f" points="769.5,-74.7 724.5,-74.7 724.5,-55.7 769.5,-55.7 769.5,-74.7"/>
<text text-anchor="middle" x="747" y="-62.7" font-family="Helvetica,sans-Serif" font-size="10.00">scene</text>
</a>
</g>
</g>
<!-- dir_271ebd1cecf9fce13500c2bd2d622746&#45;&gt;dir_dde1b4dbeafc450b8ae5525133d75a82 -->
<g id="edge11" class="edge">
<title>dir_271ebd1cecf9fce13500c2bd2d622746&#45;&gt;dir_dde1b4dbeafc450b8ae5525133d75a82</title>
<g id="a_edge11"><a xlink:href="dir_000193_000120.html" target="_top">
<path fill="none" stroke="#63b8ff" d="M68.17,-119.34C151.83,-119.53 456.38,-117.19 714.5,-74.62"/>
<polygon fill="#63b8ff" stroke="#63b8ff" points="715.15,-78.06 724.43,-72.95 713.99,-71.15 715.15,-78.06"/>
</a>
</g>
<g id="a_edge11&#45;headlabel"><a xlink:href="dir_000193_000120.html" target="_top" xlink:title="1">
<text text-anchor="middle" x="712.07" y="-78.95" font-family="Helvetica,sans-Serif" font-size="10.00" fill="#63b8ff">1</text>
</a>
</g>
</g>
<!-- dir_e1a38fd6dc0543c7f97fb1ccf1615de7 -->
<g id="node14" class="node">
<title>dir_e1a38fd6dc0543c7f97fb1ccf1615de7</title>
<g id="a_node14"><a xlink:href="dir_e1a38fd6dc0543c7f97fb1ccf1615de7.html" target="_top" xlink:title="mechanics">
<polygon fill="#edf0f7" stroke="red" stroke-dasharray="5,2" points="856.5,-74.7 787.5,-74.7 787.5,-55.7 856.5,-55.7 856.5,-74.7"/>
<text text-anchor="middle" x="822" y="-62.7" font-family="Helvetica,sans-Serif" font-size="10.00">mechanics</text>
</a>
</g>
</g>
<!-- dir_271ebd1cecf9fce13500c2bd2d622746&#45;&gt;dir_e1a38fd6dc0543c7f97fb1ccf1615de7 -->
<g id="edge13" class="edge">
<title>dir_271ebd1cecf9fce13500c2bd2d622746&#45;&gt;dir_e1a38fd6dc0543c7f97fb1ccf1615de7</title>
<g id="a_edge13"><a xlink:href="dir_000193_000099.html" target="_top">
<path fill="none" stroke="#63b8ff" d="M68.29,-118.94C156.82,-117.67 492.19,-110.72 777.21,-74.76"/>
<polygon fill="#63b8ff" stroke="#63b8ff" points="777.86,-78.21 787.33,-73.47 776.97,-71.26 777.86,-78.21"/>
</a>
</g>
<g id="a_edge13&#45;headlabel"><a xlink:href="dir_000193_000099.html" target="_top" xlink:title="2">
<text text-anchor="middle" x="774.65" y="-78.98" font-family="Helvetica,sans-Serif" font-size="10.00" fill="#63b8ff">2</text>
</a>
</g>
</g>
<!-- dir_e838ebfdcf77e050c9d833b3366569df -->
<g id="node15" class="node">
<title>dir_e838ebfdcf77e050c9d833b3366569df</title>
<g id="a_node15"><a xlink:href="dir_e838ebfdcf77e050c9d833b3366569df.html" target="_top" xlink:title="input">
<polygon fill="#edf0f7" stroke="red" stroke-dasharray="5,2" points="915.5,-74.7 874.5,-74.7 874.5,-55.7 915.5,-55.7 915.5,-74.7"/>
<text text-anchor="middle" x="895" y="-62.7" font-family="Helvetica,sans-Serif" font-size="10.00">input</text>
</a>
</g>
</g>
<!-- dir_271ebd1cecf9fce13500c2bd2d622746&#45;&gt;dir_e838ebfdcf77e050c9d833b3366569df -->
<g id="edge14" class="edge">
<title>dir_271ebd1cecf9fce13500c2bd2d622746&#45;&gt;dir_e838ebfdcf77e050c9d833b3366569df</title>
<g id="a_edge14"><a xlink:href="dir_000193_000090.html" target="_top">
<path fill="none" stroke="#63b8ff" d="M68.28,-118.69C180.64,-115.99 686.37,-102.61 864.24,-74.56"/>
<polygon fill="#63b8ff" stroke="#63b8ff" points="864.93,-78 874.23,-72.91 863.79,-71.09 864.93,-78"/>
</a>
</g>
<g id="a_edge14&#45;headlabel"><a xlink:href="dir_000193_000090.html" target="_top" xlink:title="1">
<text text-anchor="middle" x="861.85" y="-78.88" font-family="Helvetica,sans-Serif" font-size="10.00" fill="#63b8ff">1</text>
</a>
</g>
</g>
<!-- dir_df38970a8efac170832e6f74abc919d4&#45;&gt;dir_4e12247f2bbe360a59cd98a83515e8f1 -->
<g id="edge15" class="edge">
<title>dir_df38970a8efac170832e6f74abc919d4&#45;&gt;dir_4e12247f2bbe360a59cd98a83515e8f1</title>
<g id="a_edge15"><a xlink:href="dir_000182_000059.html" target="_top">
<path fill="none" stroke="#63b8ff" d="M52.81,-55.59C57.59,-50.16 64.46,-43.48 72,-39.7 114.84,-18.21 171.14,-12.65 204.84,-11.37"/>
<polygon fill="#63b8ff" stroke="#63b8ff" points="205.04,-14.86 214.94,-11.09 204.84,-7.87 205.04,-14.86"/>
</a>
</g>
<g id="a_edge15&#45;headlabel"><a xlink:href="dir_000182_000059.html" target="_top" xlink:title="6">
<text text-anchor="middle" x="201.52" y="-15.3" font-family="Helvetica,sans-Serif" font-size="10.00" fill="#63b8ff">6</text>
</a>
</g>
</g>
</g>
</svg>

<g id="navigator" transform="translate(0 0)" fill="#404254">
  <rect fill="#f2f5e9" fill-opacity="0.5" stroke="#606060" stroke-width=".5" x="0" y="0" width="60" height="60"/>
  <use id="zoomplus" xlink:href="#zoomPlus" x="17" y="9" onmousedown="handleZoom(evt,'in')"/>
  <use id="zoomminus" xlink:href="#zoomMin" x="42" y="9" onmousedown="handleZoom(evt,'out')"/>
  <use id="reset" xlink:href="#resetDef" x="30" y="36" onmousedown="handleReset()"/>
   <use id="arrowup" xlink:href="#arrowUp" x="0" y="0" onmousedown="handlePan(0,-1)"/>
  <use id="arrowright" xlink:href="#arrowRight" x="0" y="0" onmousedown="handlePan(1,0)"/>
  <use id="arrowdown" xlink:href="#arrowDown" x="0" y="0" onmousedown="handlePan(0,1)"/>
  <use id="arrowleft" xlink:href="#arrowLeft" x="0" y="0" onmousedown="handlePan(-1,0)"/>
</g>
<svg viewBox="0 0 15 15" width="100%" height="30px" preserveAspectRatio="xMaxYMin meet">
 <g id="arrow_out" transform="scale(0.3 0.3)">
  <a xlink:href="dir_271ebd1cecf9fce13500c2bd2d622746_dep_org.svg" target="_base">
   <rect id="button" ry="5" rx="5" y="6" x="6" height="38" width="38"
        fill="#f2f5e9" fill-opacity="0.5" stroke="#606060" stroke-width="1.0"/>
   <path id="arrow"
     d="M 11.500037,31.436501 C 11.940474,20.09759 22.043105,11.32322 32.158766,21.979434 L 37.068811,17.246167 C 37.068811,17.246167 37.088388,32 37.088388,32 L 22.160133,31.978069 C 22.160133,31.978069 26.997745,27.140456 26.997745,27.140456 C 18.528582,18.264221 13.291696,25.230495 11.500037,31.436501 z"
     style="fill:#404040;"/>
  </a>
 </g>
</svg>

<style type='text/css'>
<![CDATA[
[data-mouse-over-selected='false'] { opacity: 0.7; }
[data-mouse-over-selected='true']  { opacity: 1.0; }
]]>
</style>
<script type="application/ecmascript"><![CDATA[
document.addEventListener('DOMContentLoaded', (event) => {
  highlightEdges();
  highlightAdjacentNodes();
});
]]></script>
</svg>
