<?xml version="1.0" encoding="UTF-8" standalone="no"?>
<!DOCTYPE svg PUBLIC "-//W3C//DTD SVG 1.1//EN"
 "http://www.w3.org/Graphics/SVG/1.1/DTD/svg11.dtd">
<!-- Generated by graphviz version 2.43.0 (0)
 -->
<!-- Title: transform Pages: 1 -->
<!--zoomable 251 -->

<svg id="main" version="1.1" xmlns="http://www.w3.org/2000/svg" xmlns:xlink="http://www.w3.org/1999/xlink" xml:space="preserve" onload="init(evt)">

<style type="text/css"><![CDATA[
.node, .edge {opacity: 0.7;}
.node.selected, .edge.selected {opacity: 1;}
.edge:hover path { stroke: red; }
.edge:hover polygon { stroke: red; fill: red; }
]]></style>

<defs>
  <circle id="rim" cx="0" cy="0" r="7"/>
  <circle id="rim2" cx="0" cy="0" r="3.5"/>
  <g id="zoomPlus">
    <use xlink:href="#rim" fill="#404040"><set attributeName="fill" to="#808080" begin="zoomplus.mouseover" end="zoomplus.mouseout"/></use>
    <path d="M-4,0h8M0,-4v8" fill="none" stroke="white" stroke-width="1.5" pointer-events="none"/>
  </g>
  <g id="zoomMin">
    <use xlink:href="#rim" fill="#404040"><set attributeName="fill" to="#808080" begin="zoomminus.mouseover" end="zoomminus.mouseout"/></use>
    <path d="M-4,0h8" fill="none" stroke="white" stroke-width="1.5" pointer-events="none"/>
  </g>
  <g id="arrowUp" transform="translate(30 24)">
    <use xlink:href="#rim"/>
    <path pointer-events="none" fill="none" stroke="white" stroke-width="1.5" d="M0,-3.0v7 M-2.5,-0.5L0,-3.0L2.5,-0.5"/>
  </g>
  <g id="arrowRight" transform="rotate(90) translate(36 -43)">
    <use xlink:href="#rim"/>
    <path pointer-events="none" fill="none" stroke="white" stroke-width="1.5" d="M0,-3.0v7 M-2.5,-0.5L0,-3.0L2.5,-0.5"/>
  </g>
  <g id="arrowDown" transform="rotate(180) translate(-30 -48)">
    <use xlink:href="#rim"/>
    <path pointer-events="none" fill="none" stroke="white" stroke-width="1.5" d="M0,-3.0v7 M-2.5,-0.5L0,-3.0L2.5,-0.5"/>
  </g>
  <g id="arrowLeft" transform="rotate(270) translate(-36 17)">
    <use xlink:href="#rim"/>
    <path pointer-events="none" fill="none" stroke="white" stroke-width="1.5" d="M0,-3.0v7 M-2.5,-0.5L0,-3.0L2.5,-0.5"/>
  </g>
  <g id="resetDef">
    <use xlink:href="#rim2" fill="#404040"><set attributeName="fill" to="#808080" begin="reset.mouseover" end="reset.mouseout"/></use>
  </g>
</defs>
<script type="application/ecmascript">
var viewWidth = 585;
var viewHeight = 251;
var sectionId = 'dynsection-0';
</script>
<script type="application/ecmascript" xlink:href="svg.min.js"/>
<svg id="graph" class="graph">
<g id="viewport">
<title>transform</title>
<g id="clust1" class="cluster">
<title>clusterdir_bf15dcce3b0eb2b2bde353446d930b9c</title>
<g id="a_clust1"><a xlink:href="dir_bf15dcce3b0eb2b2bde353446d930b9c.html" target="_top" xlink:title="ui">
<polygon fill="#edf0f7" stroke="#7f7f7f" stroke-dasharray="5,2" points="8,-8 8,-235 130,-235 130,-8 8,-8"/>
<text text-anchor="middle" x="69" y="-223" font-family="Helvetica,sans-Serif" font-size="10.00">ui</text>
</a>
</g>
</g>
<g id="clust2" class="cluster">
<title>clusterdir_7742e0808b30ee69050dd8321a97f607</title>
<g id="a_clust2"><a xlink:href="dir_7742e0808b30ee69050dd8321a97f607.html" target="_top">
<polygon fill="#edf0f7" stroke="#404040" stroke-width="2" points="28,-63 28,-208 122,-208 122,-63 28,-63"/>
</a>
</g>
</g>
<!-- dir_e9d9767dc5aa2ecbd422c595afa60315 -->
<g id="node1" class="node">
<title>dir_e9d9767dc5aa2ecbd422c595afa60315</title>
<g id="a_node1"><a xlink:href="dir_e9d9767dc5aa2ecbd422c595afa60315.html" target="_top" xlink:title="layout">
<polygon fill="#a2b4d6" stroke="#404040" points="80.5,-35 33.5,-35 33.5,-16 80.5,-16 80.5,-35"/>
<text text-anchor="middle" x="57" y="-23" font-family="Helvetica,sans-Serif" font-size="10.00">layout</text>
</a>
</g>
</g>
<!-- dir_7742e0808b30ee69050dd8321a97f607 -->
<g id="node2" class="node">
<title>dir_7742e0808b30ee69050dd8321a97f607</title>
<text text-anchor="middle" x="81" y="-188" font-family="Helvetica,sans-Serif" font-size="10.00">transform</text>
</g>
<!-- dir_aa15d6c7a795d9346bc7c62c01a92b25 -->
<g id="node3" class="node">
<title>dir_aa15d6c7a795d9346bc7c62c01a92b25</title>
<g id="a_node3"><a xlink:href="dir_aa15d6c7a795d9346bc7c62c01a92b25.html" target="_top" xlink:title="components">
<polygon fill="#a2b4d6" stroke="#404040" points="113.5,-90 36.5,-90 36.5,-71 113.5,-71 113.5,-90"/>
<text text-anchor="middle" x="75" y="-78" font-family="Helvetica,sans-Serif" font-size="10.00">components</text>
</a>
</g>
</g>
<!-- dir_7742e0808b30ee69050dd8321a97f607&#45;&gt;dir_aa15d6c7a795d9346bc7c62c01a92b25 -->
<g id="edge2" class="edge">
<title>dir_7742e0808b30ee69050dd8321a97f607&#45;&gt;dir_aa15d6c7a795d9346bc7c62c01a92b25</title>
<g id="a_edge2"><a xlink:href="dir_000143_000039.html" target="_top">
<path fill="none" stroke="#63b8ff" d="M71.39,-180.69C63.13,-172.41 51.8,-159.18 47,-145 41.48,-128.68 50.86,-110.78 60.22,-98.15"/>
<polygon fill="#63b8ff" stroke="#63b8ff" points="62.97,-100.33 66.52,-90.34 57.52,-95.93 62.97,-100.33"/>
</a>
</g>
<g id="a_edge2&#45;headlabel"><a xlink:href="dir_000143_000039.html" target="_top" xlink:title="3">
<text text-anchor="middle" x="62.92" y="-102.41" font-family="Helvetica,sans-Serif" font-size="10.00" fill="#63b8ff">3</text>
</a>
</g>
</g>
<!-- dir_b16e9276188cf3c1abc3c3f6af8d1c98 -->
<g id="node4" class="node">
<title>dir_b16e9276188cf3c1abc3c3f6af8d1c98</title>
<g id="a_node4"><a xlink:href="dir_b16e9276188cf3c1abc3c3f6af8d1c98.html" target="_top" xlink:title="systems">
<polygon fill="#a2b4d6" stroke="#404040" points="114,-145 56,-145 56,-126 114,-126 114,-145"/>
<text text-anchor="middle" x="85" y="-133" font-family="Helvetica,sans-Serif" font-size="10.00">systems</text>
</a>
</g>
</g>
<!-- dir_7742e0808b30ee69050dd8321a97f607&#45;&gt;dir_b16e9276188cf3c1abc3c3f6af8d1c98 -->
<g id="edge3" class="edge">
<title>dir_7742e0808b30ee69050dd8321a97f607&#45;&gt;dir_b16e9276188cf3c1abc3c3f6af8d1c98</title>
<g id="a_edge3"><a xlink:href="dir_000143_000135.html" target="_top">
<path fill="none" stroke="#63b8ff" d="M81.66,-180.75C82.18,-173.8 82.94,-163.85 83.59,-155.13"/>
<polygon fill="#63b8ff" stroke="#63b8ff" points="87.09,-155.32 84.35,-145.09 80.11,-154.8 87.09,-155.32"/>
</a>
</g>
<g id="a_edge3&#45;headlabel"><a xlink:href="dir_000143_000135.html" target="_top" xlink:title="1">
<text text-anchor="middle" x="89.65" y="-156.62" font-family="Helvetica,sans-Serif" font-size="10.00" fill="#63b8ff">1</text>
</a>
</g>
</g>
<!-- dir_1ca916e0b9fbc882dbfbd9e6594e5e22 -->
<g id="node5" class="node">
<title>dir_1ca916e0b9fbc882dbfbd9e6594e5e22</title>
<g id="a_node5"><a xlink:href="dir_1ca916e0b9fbc882dbfbd9e6594e5e22.html" target="_top" xlink:title="ecs">
<polygon fill="#edf0f7" stroke="#7f7f7f" points="576.5,-90 543.5,-90 543.5,-71 576.5,-71 576.5,-90"/>
<text text-anchor="middle" x="560" y="-78" font-family="Helvetica,sans-Serif" font-size="10.00">ecs</text>
</a>
</g>
</g>
<!-- dir_7742e0808b30ee69050dd8321a97f607&#45;&gt;dir_1ca916e0b9fbc882dbfbd9e6594e5e22 -->
<g id="edge1" class="edge">
<title>dir_7742e0808b30ee69050dd8321a97f607&#45;&gt;dir_1ca916e0b9fbc882dbfbd9e6594e5e22</title>
<g id="a_edge1"><a xlink:href="dir_000143_000054.html" target="_top">
<path fill="none" stroke="#63b8ff" d="M113.51,-183.67C187,-170.22 371.56,-134.9 533.74,-90.12"/>
<polygon fill="#63b8ff" stroke="#63b8ff" points="534.71,-93.48 543.41,-87.43 532.83,-86.74 534.71,-93.48"/>
</a>
</g>
<g id="a_edge1&#45;headlabel"><a xlink:href="dir_000143_000054.html" target="_top" xlink:title="2">
<text text-anchor="middle" x="532.01" y="-94.68" font-family="Helvetica,sans-Serif" font-size="10.00" fill="#63b8ff">2</text>
</a>
</g>
</g>
<!-- dir_aa15d6c7a795d9346bc7c62c01a92b25&#45;&gt;dir_e9d9767dc5aa2ecbd422c595afa60315 -->
<g id="edge7" class="edge">
<title>dir_aa15d6c7a795d9346bc7c62c01a92b25&#45;&gt;dir_e9d9767dc5aa2ecbd422c595afa60315</title>
<g id="a_edge7"><a xlink:href="dir_000039_000080.html" target="_top">
<path fill="none" stroke="#63b8ff" d="M72.03,-70.75C69.64,-63.72 66.21,-53.62 63.23,-44.84"/>
<polygon fill="#63b8ff" stroke="#63b8ff" points="66.45,-43.43 59.92,-35.09 59.82,-45.68 66.45,-43.43"/>
</a>
</g>
<g id="a_edge7&#45;headlabel"><a xlink:href="dir_000039_000080.html" target="_top" xlink:title="1">
<text text-anchor="middle" x="70.29" y="-43.42" font-family="Helvetica,sans-Serif" font-size="10.00" fill="#63b8ff">1</text>
</a>
</g>
</g>
<!-- dir_268add6b94670641c68bb834cdcb4292 -->
<g id="node6" class="node">
<title>dir_268add6b94670641c68bb834cdcb4292</title>
<g id="a_node6"><a xlink:href="dir_268add6b94670641c68bb834cdcb4292.html" target="_top" xlink:title="math">
<polygon fill="#edf0f7" stroke="red" stroke-dasharray="5,2" points="292,-35 250,-35 250,-16 292,-16 292,-35"/>
<text text-anchor="middle" x="271" y="-23" font-family="Helvetica,sans-Serif" font-size="10.00">math</text>
</a>
</g>
</g>
<!-- dir_aa15d6c7a795d9346bc7c62c01a92b25&#45;&gt;dir_268add6b94670641c68bb834cdcb4292 -->
<g id="edge4" class="edge">
<title>dir_aa15d6c7a795d9346bc7c62c01a92b25&#45;&gt;dir_268add6b94670641c68bb834cdcb4292</title>
<g id="a_edge4"><a xlink:href="dir_000039_000087.html" target="_top">
<path fill="none" stroke="#63b8ff" d="M101.33,-70.97C109.81,-68.31 119.28,-65.44 128,-63 174.91,-49.9 189.32,-48.42 239.85,-35.23"/>
<polygon fill="#63b8ff" stroke="#63b8ff" points="240.94,-38.56 249.72,-32.62 239.16,-31.79 240.94,-38.56"/>
</a>
</g>
<g id="a_edge4&#45;headlabel"><a xlink:href="dir_000039_000087.html" target="_top" xlink:title="1">
<text text-anchor="middle" x="238.19" y="-39.72" font-family="Helvetica,sans-Serif" font-size="10.00" fill="#63b8ff">1</text>
</a>
</g>
</g>
<!-- dir_4e12247f2bbe360a59cd98a83515e8f1 -->
<g id="node7" class="node">
<title>dir_4e12247f2bbe360a59cd98a83515e8f1</title>
<g id="a_node7"><a xlink:href="dir_4e12247f2bbe360a59cd98a83515e8f1.html" target="_top" xlink:title="core">
<polygon fill="#edf0f7" stroke="red" stroke-dasharray="5,2" points="176,-35 138,-35 138,-16 176,-16 176,-35"/>
<text text-anchor="middle" x="157" y="-23" font-family="Helvetica,sans-Serif" font-size="10.00">core</text>
</a>
</g>
</g>
<!-- dir_aa15d6c7a795d9346bc7c62c01a92b25&#45;&gt;dir_4e12247f2bbe360a59cd98a83515e8f1 -->
<g id="edge5" class="edge">
<title>dir_aa15d6c7a795d9346bc7c62c01a92b25&#45;&gt;dir_4e12247f2bbe360a59cd98a83515e8f1</title>
<g id="a_edge5"><a xlink:href="dir_000039_000045.html" target="_top">
<path fill="none" stroke="#63b8ff" d="M88.17,-70.98C100.77,-62.84 120,-50.41 134.94,-40.76"/>
<polygon fill="#63b8ff" stroke="#63b8ff" points="137.09,-43.54 143.59,-35.17 133.29,-37.66 137.09,-43.54"/>
</a>
</g>
<g id="a_edge5&#45;headlabel"><a xlink:href="dir_000039_000045.html" target="_top" xlink:title="1">
<text text-anchor="middle" x="135.61" y="-45.37" font-family="Helvetica,sans-Serif" font-size="10.00" fill="#63b8ff">1</text>
</a>
</g>
</g>
<!-- dir_5a58a2ffe8660a7fc51fed7e0c7c898d -->
<g id="node8" class="node">
<title>dir_5a58a2ffe8660a7fc51fed7e0c7c898d</title>
<g id="a_node8"><a xlink:href="dir_5a58a2ffe8660a7fc51fed7e0c7c898d.html" target="_top" xlink:title="core">
<polygon fill="#edf0f7" stroke="red" stroke-dasharray="5,2" points="232,-35 194,-35 194,-16 232,-16 232,-35"/>
<text text-anchor="middle" x="213" y="-23" font-family="Helvetica,sans-Serif" font-size="10.00">core</text>
</a>
</g>
</g>
<!-- dir_aa15d6c7a795d9346bc7c62c01a92b25&#45;&gt;dir_5a58a2ffe8660a7fc51fed7e0c7c898d -->
<g id="edge6" class="edge">
<title>dir_aa15d6c7a795d9346bc7c62c01a92b25&#45;&gt;dir_5a58a2ffe8660a7fc51fed7e0c7c898d</title>
<g id="a_edge6"><a xlink:href="dir_000039_000046.html" target="_top">
<path fill="none" stroke="#63b8ff" d="M97.17,-70.98C120.85,-61.89 158.45,-47.45 184.36,-37.5"/>
<polygon fill="#63b8ff" stroke="#63b8ff" points="185.91,-40.65 193.99,-33.8 183.4,-34.12 185.91,-40.65"/>
</a>
</g>
<g id="a_edge6&#45;headlabel"><a xlink:href="dir_000039_000046.html" target="_top" xlink:title="2">
<text text-anchor="middle" x="183.57" y="-42.09" font-family="Helvetica,sans-Serif" font-size="10.00" fill="#63b8ff">2</text>
</a>
</g>
</g>
<!-- dir_b16e9276188cf3c1abc3c3f6af8d1c98&#45;&gt;dir_e9d9767dc5aa2ecbd422c595afa60315 -->
<g id="edge15" class="edge">
<title>dir_b16e9276188cf3c1abc3c3f6af8d1c98&#45;&gt;dir_e9d9767dc5aa2ecbd422c595afa60315</title>
<g id="a_edge15"><a xlink:href="dir_000135_000080.html" target="_top">
<path fill="none" stroke="#63b8ff" d="M66.33,-125.97C52.67,-118.59 35.14,-106.5 27,-90 21.69,-79.24 22.95,-74.3 27,-63 29.7,-55.46 34.7,-48.36 39.86,-42.47"/>
<polygon fill="#63b8ff" stroke="#63b8ff" points="42.39,-44.88 46.79,-35.24 37.34,-40.04 42.39,-44.88"/>
</a>
</g>
<g id="a_edge15&#45;headlabel"><a xlink:href="dir_000135_000080.html" target="_top" xlink:title="1">
<text text-anchor="middle" x="41.96" y="-46.94" font-family="Helvetica,sans-Serif" font-size="10.00" fill="#63b8ff">1</text>
</a>
</g>
</g>
<!-- dir_b16e9276188cf3c1abc3c3f6af8d1c98&#45;&gt;dir_aa15d6c7a795d9346bc7c62c01a92b25 -->
<g id="edge12" class="edge">
<title>dir_b16e9276188cf3c1abc3c3f6af8d1c98&#45;&gt;dir_aa15d6c7a795d9346bc7c62c01a92b25</title>
<g id="a_edge12"><a xlink:href="dir_000135_000039.html" target="_top">
<path fill="none" stroke="#63b8ff" d="M83.35,-125.75C82.04,-118.8 80.16,-108.85 78.52,-100.13"/>
<polygon fill="#63b8ff" stroke="#63b8ff" points="81.91,-99.27 76.62,-90.09 75.04,-100.56 81.91,-99.27"/>
</a>
</g>
<g id="a_edge12&#45;headlabel"><a xlink:href="dir_000135_000039.html" target="_top" xlink:title="1">
<text text-anchor="middle" x="85.37" y="-99.77" font-family="Helvetica,sans-Serif" font-size="10.00" fill="#63b8ff">1</text>
</a>
</g>
</g>
<!-- dir_b16e9276188cf3c1abc3c3f6af8d1c98&#45;&gt;dir_1ca916e0b9fbc882dbfbd9e6594e5e22 -->
<g id="edge8" class="edge">
<title>dir_b16e9276188cf3c1abc3c3f6af8d1c98&#45;&gt;dir_1ca916e0b9fbc882dbfbd9e6594e5e22</title>
<g id="a_edge8"><a xlink:href="dir_000135_000054.html" target="_top">
<path fill="none" stroke="#63b8ff" d="M114.05,-133.92C184.65,-132.04 370.82,-124.17 533.3,-89.9"/>
<polygon fill="#63b8ff" stroke="#63b8ff" points="534.43,-93.23 543.47,-87.71 532.96,-86.39 534.43,-93.23"/>
</a>
</g>
<g id="a_edge8&#45;headlabel"><a xlink:href="dir_000135_000054.html" target="_top" xlink:title="1">
<text text-anchor="middle" x="531.52" y="-94.27" font-family="Helvetica,sans-Serif" font-size="10.00" fill="#63b8ff">1</text>
</a>
</g>
</g>
<!-- dir_b16e9276188cf3c1abc3c3f6af8d1c98&#45;&gt;dir_268add6b94670641c68bb834cdcb4292 -->
<g id="edge9" class="edge">
<title>dir_b16e9276188cf3c1abc3c3f6af8d1c98&#45;&gt;dir_268add6b94670641c68bb834cdcb4292</title>
<g id="a_edge9"><a xlink:href="dir_000135_000087.html" target="_top">
<path fill="none" stroke="#63b8ff" d="M92.17,-125.75C104.81,-110.86 132.51,-80.51 162,-63 175.31,-55.1 212.54,-43.36 239.79,-35.35"/>
<polygon fill="#63b8ff" stroke="#63b8ff" points="241.05,-38.63 249.68,-32.47 239.1,-31.9 241.05,-38.63"/>
</a>
</g>
<g id="a_edge9&#45;headlabel"><a xlink:href="dir_000135_000087.html" target="_top" xlink:title="1">
<text text-anchor="middle" x="238.39" y="-39.86" font-family="Helvetica,sans-Serif" font-size="10.00" fill="#63b8ff">1</text>
</a>
</g>
</g>
<!-- dir_656b8020a7b0aa8521ec0615ad91cdfe -->
<g id="node9" class="node">
<title>dir_656b8020a7b0aa8521ec0615ad91cdfe</title>
<g id="a_node9"><a xlink:href="dir_656b8020a7b0aa8521ec0615ad91cdfe.html" target="_top" xlink:title="scene">
<polygon fill="#edf0f7" stroke="red" stroke-dasharray="5,2" points="215.5,-90 170.5,-90 170.5,-71 215.5,-71 215.5,-90"/>
<text text-anchor="middle" x="193" y="-78" font-family="Helvetica,sans-Serif" font-size="10.00">scene</text>
</a>
</g>
</g>
<!-- dir_b16e9276188cf3c1abc3c3f6af8d1c98&#45;&gt;dir_656b8020a7b0aa8521ec0615ad91cdfe -->
<g id="edge10" class="edge">
<title>dir_b16e9276188cf3c1abc3c3f6af8d1c98&#45;&gt;dir_656b8020a7b0aa8521ec0615ad91cdfe</title>
<g id="a_edge10"><a xlink:href="dir_000135_000107.html" target="_top">
<path fill="none" stroke="#63b8ff" d="M102.35,-125.98C119.57,-117.54 146.2,-104.47 166.15,-94.68"/>
<polygon fill="#63b8ff" stroke="#63b8ff" points="167.9,-97.72 175.33,-90.17 164.81,-91.43 167.9,-97.72"/>
</a>
</g>
<g id="a_edge10&#45;headlabel"><a xlink:href="dir_000135_000107.html" target="_top" xlink:title="1">
<text text-anchor="middle" x="165.92" y="-99.35" font-family="Helvetica,sans-Serif" font-size="10.00" fill="#63b8ff">1</text>
</a>
</g>
</g>
<!-- dir_7002044952ee345c222d895bec1a9397 -->
<g id="node10" class="node">
<title>dir_7002044952ee345c222d895bec1a9397</title>
<g id="a_node10"><a xlink:href="dir_7002044952ee345c222d895bec1a9397.html" target="_top" xlink:title="Spatial data management for game entities.">
<polygon fill="#edf0f7" stroke="red" stroke-dasharray="5,2" points="284,-90 234,-90 234,-71 284,-71 284,-90"/>
<text text-anchor="middle" x="259" y="-78" font-family="Helvetica,sans-Serif" font-size="10.00">spatial</text>
</a>
</g>
</g>
<!-- dir_b16e9276188cf3c1abc3c3f6af8d1c98&#45;&gt;dir_7002044952ee345c222d895bec1a9397 -->
<g id="edge11" class="edge">
<title>dir_b16e9276188cf3c1abc3c3f6af8d1c98&#45;&gt;dir_7002044952ee345c222d895bec1a9397</title>
<g id="a_edge11"><a xlink:href="dir_000135_000115.html" target="_top">
<path fill="none" stroke="#63b8ff" d="M112.96,-125.98C143.25,-116.76 191.64,-102.02 224.33,-92.06"/>
<polygon fill="#63b8ff" stroke="#63b8ff" points="225.39,-95.4 233.94,-89.13 223.35,-88.7 225.39,-95.4"/>
</a>
</g>
<g id="a_edge11&#45;headlabel"><a xlink:href="dir_000135_000115.html" target="_top" xlink:title="2">
<text text-anchor="middle" x="222.78" y="-96.66" font-family="Helvetica,sans-Serif" font-size="10.00" fill="#63b8ff">2</text>
</a>
</g>
</g>
<!-- dir_bb685b75eb98702a3ab447756cde824e -->
<g id="node11" class="node">
<title>dir_bb685b75eb98702a3ab447756cde824e</title>
<g id="a_node11"><a xlink:href="dir_bb685b75eb98702a3ab447756cde824e.html" target="_top" xlink:title="rendering">
<polygon fill="#edf0f7" stroke="red" stroke-dasharray="5,2" points="365.5,-90 302.5,-90 302.5,-71 365.5,-71 365.5,-90"/>
<text text-anchor="middle" x="334" y="-78" font-family="Helvetica,sans-Serif" font-size="10.00">rendering</text>
</a>
</g>
</g>
<!-- dir_b16e9276188cf3c1abc3c3f6af8d1c98&#45;&gt;dir_bb685b75eb98702a3ab447756cde824e -->
<g id="edge13" class="edge">
<title>dir_b16e9276188cf3c1abc3c3f6af8d1c98&#45;&gt;dir_bb685b75eb98702a3ab447756cde824e</title>
<g id="a_edge13"><a xlink:href="dir_000135_000102.html" target="_top">
<path fill="none" stroke="#63b8ff" d="M114.05,-128.32C158.1,-118.94 241.98,-101.09 292.46,-90.34"/>
<polygon fill="#63b8ff" stroke="#63b8ff" points="293.35,-93.73 302.4,-88.23 291.89,-86.89 293.35,-93.73"/>
</a>
</g>
<g id="a_edge13&#45;headlabel"><a xlink:href="dir_000135_000102.html" target="_top" xlink:title="1">
<text text-anchor="middle" x="290.42" y="-94.76" font-family="Helvetica,sans-Serif" font-size="10.00" fill="#63b8ff">1</text>
</a>
</g>
</g>
<!-- dir_e1a38fd6dc0543c7f97fb1ccf1615de7 -->
<g id="node12" class="node">
<title>dir_e1a38fd6dc0543c7f97fb1ccf1615de7</title>
<g id="a_node12"><a xlink:href="dir_e1a38fd6dc0543c7f97fb1ccf1615de7.html" target="_top" xlink:title="mechanics">
<polygon fill="#edf0f7" stroke="red" stroke-dasharray="5,2" points="452.5,-90 383.5,-90 383.5,-71 452.5,-71 452.5,-90"/>
<text text-anchor="middle" x="418" y="-78" font-family="Helvetica,sans-Serif" font-size="10.00">mechanics</text>
</a>
</g>
</g>
<!-- dir_b16e9276188cf3c1abc3c3f6af8d1c98&#45;&gt;dir_e1a38fd6dc0543c7f97fb1ccf1615de7 -->
<g id="edge14" class="edge">
<title>dir_b16e9276188cf3c1abc3c3f6af8d1c98&#45;&gt;dir_e1a38fd6dc0543c7f97fb1ccf1615de7</title>
<g id="a_edge14"><a xlink:href="dir_000135_000088.html" target="_top">
<path fill="none" stroke="#63b8ff" d="M114.29,-130.43C165.01,-123.29 272.69,-107.73 373.27,-90.25"/>
<polygon fill="#63b8ff" stroke="#63b8ff" points="374.04,-93.66 383.29,-88.49 372.84,-86.77 374.04,-93.66"/>
</a>
</g>
<g id="a_edge14&#45;headlabel"><a xlink:href="dir_000135_000088.html" target="_top" xlink:title="1">
<text text-anchor="middle" x="370.99" y="-94.58" font-family="Helvetica,sans-Serif" font-size="10.00" fill="#63b8ff">1</text>
</a>
</g>
</g>
<!-- dir_fff8ef54a646d9df8d7b15d27474569f -->
<g id="node13" class="node">
<title>dir_fff8ef54a646d9df8d7b15d27474569f</title>
<g id="a_node13"><a xlink:href="dir_fff8ef54a646d9df8d7b15d27474569f.html" target="_top" xlink:title="runtime">
<polygon fill="#edf0f7" stroke="red" stroke-dasharray="5,2" points="525.5,-90 470.5,-90 470.5,-71 525.5,-71 525.5,-90"/>
<text text-anchor="middle" x="498" y="-78" font-family="Helvetica,sans-Serif" font-size="10.00">runtime</text>
</a>
</g>
</g>
<!-- dir_b16e9276188cf3c1abc3c3f6af8d1c98&#45;&gt;dir_fff8ef54a646d9df8d7b15d27474569f -->
<g id="edge16" class="edge">
<title>dir_b16e9276188cf3c1abc3c3f6af8d1c98&#45;&gt;dir_fff8ef54a646d9df8d7b15d27474569f</title>
<g id="a_edge16"><a xlink:href="dir_000135_000106.html" target="_top">
<path fill="none" stroke="#63b8ff" d="M114.02,-132.21C175.91,-127.1 325.62,-113.43 460.09,-90.17"/>
<polygon fill="#63b8ff" stroke="#63b8ff" points="460.91,-93.58 470.16,-88.41 459.7,-86.68 460.91,-93.58"/>
</a>
</g>
<g id="a_edge16&#45;headlabel"><a xlink:href="dir_000135_000106.html" target="_top" xlink:title="2">
<text text-anchor="middle" x="457.86" y="-94.5" font-family="Helvetica,sans-Serif" font-size="10.00" fill="#63b8ff">2</text>
</a>
</g>
</g>
</g>
</svg>

<g id="navigator" transform="translate(0 0)" fill="#404254">
  <rect fill="#f2f5e9" fill-opacity="0.5" stroke="#606060" stroke-width=".5" x="0" y="0" width="60" height="60"/>
  <use id="zoomplus" xlink:href="#zoomPlus" x="17" y="9" onmousedown="handleZoom(evt,'in')"/>
  <use id="zoomminus" xlink:href="#zoomMin" x="42" y="9" onmousedown="handleZoom(evt,'out')"/>
  <use id="reset" xlink:href="#resetDef" x="30" y="36" onmousedown="handleReset()"/>
   <use id="arrowup" xlink:href="#arrowUp" x="0" y="0" onmousedown="handlePan(0,-1)"/>
  <use id="arrowright" xlink:href="#arrowRight" x="0" y="0" onmousedown="handlePan(1,0)"/>
  <use id="arrowdown" xlink:href="#arrowDown" x="0" y="0" onmousedown="handlePan(0,1)"/>
  <use id="arrowleft" xlink:href="#arrowLeft" x="0" y="0" onmousedown="handlePan(-1,0)"/>
</g>
<svg viewBox="0 0 15 15" width="100%" height="30px" preserveAspectRatio="xMaxYMin meet">
 <g id="arrow_out" transform="scale(0.3 0.3)">
  <a xlink:href="dir_7742e0808b30ee69050dd8321a97f607_dep_org.svg" target="_base">
   <rect id="button" ry="5" rx="5" y="6" x="6" height="38" width="38"
        fill="#f2f5e9" fill-opacity="0.5" stroke="#606060" stroke-width="1.0"/>
   <path id="arrow"
     d="M 11.500037,31.436501 C 11.940474,20.09759 22.043105,11.32322 32.158766,21.979434 L 37.068811,17.246167 C 37.068811,17.246167 37.088388,32 37.088388,32 L 22.160133,31.978069 C 22.160133,31.978069 26.997745,27.140456 26.997745,27.140456 C 18.528582,18.264221 13.291696,25.230495 11.500037,31.436501 z"
     style="fill:#404040;"/>
  </a>
 </g>
</svg>

<style type='text/css'>
<![CDATA[
[data-mouse-over-selected='false'] { opacity: 0.7; }
[data-mouse-over-selected='true']  { opacity: 1.0; }
]]>
</style>
<script type="application/ecmascript"><![CDATA[
document.addEventListener('DOMContentLoaded', (event) => {
  highlightEdges();
  highlightAdjacentNodes();
});
]]></script>
</svg>
