<?xml version="1.0" encoding="UTF-8" standalone="no"?>
<!DOCTYPE svg PUBLIC "-//W3C//DTD SVG 1.1//EN"
 "http://www.w3.org/Graphics/SVG/1.1/DTD/svg11.dtd">
<!-- Generated by graphviz version 2.43.0 (0)
 -->
<!-- Title: runtime Pages: 1 -->
<svg width="770pt" height="416pt"
 viewBox="0.00 0.00 770.00 416.00" xmlns="http://www.w3.org/2000/svg" xmlns:xlink="http://www.w3.org/1999/xlink">
<g id="graph0" class="graph" transform="scale(1 1) rotate(0) translate(4 412)">
<title>runtime</title>
<g id="clust1" class="cluster">
<title>clusterdir_1e46d961eb277b2583ee5b095f5b4c8e</title>
<g id="a_clust1"><a xlink:href="dir_1e46d961eb277b2583ee5b095f5b4c8e.html" target="_top" xlink:title="engine">
<polygon fill="#edf0f7" stroke="#7f7f7f" stroke-dasharray="5,2" points="171,-8 171,-400 581,-400 581,-8 171,-8"/>
<text text-anchor="middle" x="376" y="-388" font-family="Helvetica,sans-Serif" font-size="10.00">engine</text>
</a>
</g>
</g>
<g id="clust2" class="cluster">
<title>clusterdir_fff8ef54a646d9df8d7b15d27474569f</title>
<g id="a_clust2"><a xlink:href="dir_fff8ef54a646d9df8d7b15d27474569f.html" target="_top">
<polygon fill="#edf0f7" stroke="#404040" stroke-width="2" points="309,-63 309,-373 475,-373 475,-63 309,-63"/>
</a>
</g>
</g>
<!-- dir_1a83b528599da40ca3e2005a9bc9336b -->
<g id="node1" class="node">
<title>dir_1a83b528599da40ca3e2005a9bc9336b</title>
<g id="a_node1"><a xlink:href="dir_1a83b528599da40ca3e2005a9bc9336b.html" target="_top" xlink:title="common">
<polygon fill="#a2b4d6" stroke="red" points="518.5,-35 459.5,-35 459.5,-16 518.5,-16 518.5,-35"/>
<text text-anchor="middle" x="489" y="-23" font-family="Helvetica,sans-Serif" font-size="10.00">common</text>
</a>
</g>
</g>
<!-- dir_1ca916e0b9fbc882dbfbd9e6594e5e22 -->
<g id="node2" class="node">
<title>dir_1ca916e0b9fbc882dbfbd9e6594e5e22</title>
<g id="a_node2"><a xlink:href="dir_1ca916e0b9fbc882dbfbd9e6594e5e22.html" target="_top" xlink:title="ecs">
<polygon fill="#a2b4d6" stroke="red" points="569.5,-35 536.5,-35 536.5,-16 569.5,-16 569.5,-35"/>
<text text-anchor="middle" x="553" y="-23" font-family="Helvetica,sans-Serif" font-size="10.00">ecs</text>
</a>
</g>
</g>
<!-- dir_87b9f5c33f5a8f4d48db11d48f10a572 -->
<g id="node3" class="node">
<title>dir_87b9f5c33f5a8f4d48db11d48f10a572</title>
<g id="a_node3"><a xlink:href="dir_87b9f5c33f5a8f4d48db11d48f10a572.html" target="_top" xlink:title="modules">
<polygon fill="#a2b4d6" stroke="red" points="384.5,-35 325.5,-35 325.5,-16 384.5,-16 384.5,-35"/>
<text text-anchor="middle" x="355" y="-23" font-family="Helvetica,sans-Serif" font-size="10.00">modules</text>
</a>
</g>
</g>
<!-- dir_94b0c4fb82528c4245604725780b49de -->
<g id="node4" class="node">
<title>dir_94b0c4fb82528c4245604725780b49de</title>
<g id="a_node4"><a xlink:href="dir_94b0c4fb82528c4245604725780b49de.html" target="_top" xlink:title="state">
<polygon fill="#a2b4d6" stroke="red" points="220.5,-35 179.5,-35 179.5,-16 220.5,-16 220.5,-35"/>
<text text-anchor="middle" x="200" y="-23" font-family="Helvetica,sans-Serif" font-size="10.00">state</text>
</a>
</g>
</g>
<!-- dir_e1a38fd6dc0543c7f97fb1ccf1615de7 -->
<g id="node5" class="node">
<title>dir_e1a38fd6dc0543c7f97fb1ccf1615de7</title>
<g id="a_node5"><a xlink:href="dir_e1a38fd6dc0543c7f97fb1ccf1615de7.html" target="_top" xlink:title="mechanics">
<polygon fill="#a2b4d6" stroke="red" points="307.5,-35 238.5,-35 238.5,-16 307.5,-16 307.5,-35"/>
<text text-anchor="middle" x="273" y="-23" font-family="Helvetica,sans-Serif" font-size="10.00">mechanics</text>
</a>
</g>
</g>
<!-- dir_5a58a2ffe8660a7fc51fed7e0c7c898d -->
<g id="node6" class="node">
<title>dir_5a58a2ffe8660a7fc51fed7e0c7c898d</title>
<g id="a_node6"><a xlink:href="dir_5a58a2ffe8660a7fc51fed7e0c7c898d.html" target="_top" xlink:title="core">
<polygon fill="#a2b4d6" stroke="red" points="441,-35 403,-35 403,-16 441,-16 441,-35"/>
<text text-anchor="middle" x="422" y="-23" font-family="Helvetica,sans-Serif" font-size="10.00">core</text>
</a>
</g>
</g>
<!-- dir_fff8ef54a646d9df8d7b15d27474569f -->
<g id="node7" class="node">
<title>dir_fff8ef54a646d9df8d7b15d27474569f</title>
<text text-anchor="middle" x="362" y="-353" font-family="Helvetica,sans-Serif" font-size="10.00">runtime</text>
</g>
<!-- dir_446c3279719b350ae96e237b7ddd8259 -->
<g id="node8" class="node">
<title>dir_446c3279719b350ae96e237b7ddd8259</title>
<g id="a_node8"><a xlink:href="dir_446c3279719b350ae96e237b7ddd8259.html" target="_top" xlink:title="gameloop">
<polygon fill="#a2b4d6" stroke="#404040" points="466.5,-310 401.5,-310 401.5,-291 466.5,-291 466.5,-310"/>
<text text-anchor="middle" x="434" y="-298" font-family="Helvetica,sans-Serif" font-size="10.00">gameloop</text>
</a>
</g>
</g>
<!-- dir_fff8ef54a646d9df8d7b15d27474569f&#45;&gt;dir_446c3279719b350ae96e237b7ddd8259 -->
<g id="edge3" class="edge">
<title>dir_fff8ef54a646d9df8d7b15d27474569f&#45;&gt;dir_446c3279719b350ae96e237b7ddd8259</title>
<g id="a_edge3"><a xlink:href="dir_000116_000073.html" target="_top">
<path fill="none" stroke="#63b8ff" d="M373.57,-345.98C384.42,-338 400.88,-325.88 413.88,-316.31"/>
<polygon fill="#63b8ff" stroke="#63b8ff" points="416.24,-318.92 422.22,-310.17 412.09,-313.28 416.24,-318.92"/>
</a>
</g>
<g id="a_edge3&#45;headlabel"><a xlink:href="dir_000116_000073.html" target="_top" xlink:title="1">
<text text-anchor="middle" x="415.03" y="-320.83" font-family="Helvetica,sans-Serif" font-size="10.00" fill="#63b8ff">1</text>
</a>
</g>
</g>
<!-- dir_3c2debfdd2bfc5d375ae885ec56c77d2 -->
<g id="node9" class="node">
<title>dir_3c2debfdd2bfc5d375ae885ec56c77d2</title>
<g id="a_node9"><a xlink:href="dir_3c2debfdd2bfc5d375ae885ec56c77d2.html" target="_top" xlink:title="messaging">
<polygon fill="#a2b4d6" stroke="#404040" points="407,-255 337,-255 337,-236 407,-236 407,-255"/>
<text text-anchor="middle" x="372" y="-243" font-family="Helvetica,sans-Serif" font-size="10.00">messaging</text>
</a>
</g>
</g>
<!-- dir_fff8ef54a646d9df8d7b15d27474569f&#45;&gt;dir_3c2debfdd2bfc5d375ae885ec56c77d2 -->
<g id="edge2" class="edge">
<title>dir_fff8ef54a646d9df8d7b15d27474569f&#45;&gt;dir_3c2debfdd2bfc5d375ae885ec56c77d2</title>
<g id="a_edge2"><a xlink:href="dir_000116_000100.html" target="_top">
<path fill="none" stroke="#63b8ff" d="M360,-345.82C357.48,-333.54 353.81,-310.42 357,-291 358.47,-282.05 361.49,-272.47 364.44,-264.51"/>
<polygon fill="#63b8ff" stroke="#63b8ff" points="367.72,-265.74 368.14,-255.15 361.21,-263.16 367.72,-265.74"/>
</a>
</g>
<g id="a_edge2&#45;headlabel"><a xlink:href="dir_000116_000100.html" target="_top" xlink:title="13">
<text text-anchor="middle" x="369.04" y="-267.62" font-family="Helvetica,sans-Serif" font-size="10.00" fill="#63b8ff">13</text>
</a>
</g>
</g>
<!-- dir_50a13eed33dcd9f476e4986821866285 -->
<g id="node10" class="node">
<title>dir_50a13eed33dcd9f476e4986821866285</title>
<g id="a_node10"><a xlink:href="dir_50a13eed33dcd9f476e4986821866285.html" target="_top" xlink:title="pooling">
<polygon fill="#a2b4d6" stroke="#404040" points="452.5,-145 399.5,-145 399.5,-126 452.5,-126 452.5,-145"/>
<text text-anchor="middle" x="426" y="-133" font-family="Helvetica,sans-Serif" font-size="10.00">pooling</text>
</a>
</g>
</g>
<!-- dir_fff8ef54a646d9df8d7b15d27474569f&#45;&gt;dir_50a13eed33dcd9f476e4986821866285 -->
<g id="edge4" class="edge">
<title>dir_fff8ef54a646d9df8d7b15d27474569f&#45;&gt;dir_50a13eed33dcd9f476e4986821866285</title>
<g id="a_edge4"><a xlink:href="dir_000116_000109.html" target="_top">
<path fill="none" stroke="#63b8ff" d="M365.44,-345.96C370.64,-333.46 381.16,-309.64 393,-291 404.02,-273.66 414.84,-274.26 422,-255 434.39,-221.67 431.88,-179.37 428.94,-155.38"/>
<polygon fill="#63b8ff" stroke="#63b8ff" points="432.37,-154.61 427.52,-145.19 425.43,-155.58 432.37,-154.61"/>
</a>
</g>
<g id="a_edge4&#45;headlabel"><a xlink:href="dir_000116_000109.html" target="_top" xlink:title="25">
<text text-anchor="middle" x="435.67" y="-155.28" font-family="Helvetica,sans-Serif" font-size="10.00" fill="#63b8ff">25</text>
</a>
</g>
</g>
<!-- dir_920d0445133e8943cdb9dc7f8f55cbd5 -->
<g id="node11" class="node">
<title>dir_920d0445133e8943cdb9dc7f8f55cbd5</title>
<g id="a_node11"><a xlink:href="dir_920d0445133e8943cdb9dc7f8f55cbd5.html" target="_top" xlink:title="spawn">
<polygon fill="#a2b4d6" stroke="#404040" points="407,-200 359,-200 359,-181 407,-181 407,-200"/>
<text text-anchor="middle" x="383" y="-188" font-family="Helvetica,sans-Serif" font-size="10.00">spawn</text>
</a>
</g>
</g>
<!-- dir_fff8ef54a646d9df8d7b15d27474569f&#45;&gt;dir_920d0445133e8943cdb9dc7f8f55cbd5 -->
<g id="edge5" class="edge">
<title>dir_fff8ef54a646d9df8d7b15d27474569f&#45;&gt;dir_920d0445133e8943cdb9dc7f8f55cbd5</title>
<g id="a_edge5"><a xlink:href="dir_000116_000127.html" target="_top">
<path fill="none" stroke="#63b8ff" d="M362.46,-345.69C363.48,-332.85 366.72,-308.61 377,-291 388.9,-270.63 406.54,-276.61 416,-255 423.19,-238.57 411.78,-220.47 400.45,-207.82"/>
<polygon fill="#63b8ff" stroke="#63b8ff" points="402.7,-205.1 393.22,-200.36 397.67,-209.98 402.7,-205.1"/>
</a>
</g>
<g id="a_edge5&#45;headlabel"><a xlink:href="dir_000116_000127.html" target="_top" xlink:title="84">
<text text-anchor="middle" x="407.24" y="-203.21" font-family="Helvetica,sans-Serif" font-size="10.00" fill="#63b8ff">84</text>
</a>
</g>
</g>
<!-- dir_271ebd1cecf9fce13500c2bd2d622746 -->
<g id="node12" class="node">
<title>dir_271ebd1cecf9fce13500c2bd2d622746</title>
<g id="a_node12"><a xlink:href="dir_271ebd1cecf9fce13500c2bd2d622746.html" target="_top" xlink:title="world">
<polygon fill="#a2b4d6" stroke="#404040" points="379,-90 335,-90 335,-71 379,-71 379,-90"/>
<text text-anchor="middle" x="357" y="-78" font-family="Helvetica,sans-Serif" font-size="10.00">world</text>
</a>
</g>
</g>
<!-- dir_fff8ef54a646d9df8d7b15d27474569f&#45;&gt;dir_271ebd1cecf9fce13500c2bd2d622746 -->
<g id="edge1" class="edge">
<title>dir_fff8ef54a646d9df8d7b15d27474569f&#45;&gt;dir_271ebd1cecf9fce13500c2bd2d622746</title>
<g id="a_edge1"><a xlink:href="dir_000116_000189.html" target="_top">
<path fill="none" stroke="#63b8ff" d="M358,-345.97C350.34,-329.06 333.8,-289.94 328,-255 318.6,-198.41 338.61,-131.45 349.93,-99.81"/>
<polygon fill="#63b8ff" stroke="#63b8ff" points="353.31,-100.76 353.51,-90.16 346.75,-98.32 353.31,-100.76"/>
</a>
</g>
<g id="a_edge1&#45;headlabel"><a xlink:href="dir_000116_000189.html" target="_top" xlink:title="50">
<text text-anchor="middle" x="354.72" y="-102.62" font-family="Helvetica,sans-Serif" font-size="10.00" fill="#63b8ff">50</text>
</a>
</g>
</g>
<!-- dir_446c3279719b350ae96e237b7ddd8259&#45;&gt;dir_1a83b528599da40ca3e2005a9bc9336b -->
<g id="edge6" class="edge">
<title>dir_446c3279719b350ae96e237b7ddd8259&#45;&gt;dir_1a83b528599da40ca3e2005a9bc9336b</title>
<g id="a_edge6"><a xlink:href="dir_000073_000025.html" target="_top">
<path fill="none" stroke="#63b8ff" d="M437.5,-290.92C448.77,-262.76 483.94,-170.34 494,-90 495.87,-75.05 494.34,-58.02 492.49,-45.36"/>
<polygon fill="#63b8ff" stroke="#63b8ff" points="495.88,-44.44 490.79,-35.15 488.98,-45.59 495.88,-44.44"/>
</a>
</g>
<g id="a_edge6&#45;headlabel"><a xlink:href="dir_000073_000025.html" target="_top" xlink:title="1">
<text text-anchor="middle" x="499.27" y="-45.03" font-family="Helvetica,sans-Serif" font-size="10.00" fill="#63b8ff">1</text>
</a>
</g>
</g>
<!-- dir_446c3279719b350ae96e237b7ddd8259&#45;&gt;dir_1ca916e0b9fbc882dbfbd9e6594e5e22 -->
<g id="edge7" class="edge">
<title>dir_446c3279719b350ae96e237b7ddd8259&#45;&gt;dir_1ca916e0b9fbc882dbfbd9e6594e5e22</title>
<g id="a_edge7"><a xlink:href="dir_000073_000062.html" target="_top">
<path fill="none" stroke="#63b8ff" d="M463.6,-290.96C504.15,-277.24 572,-246.11 572,-191.5 572,-191.5 572,-191.5 572,-134.5 572,-102.56 563.84,-66.1 558.22,-44.77"/>
<polygon fill="#63b8ff" stroke="#63b8ff" points="561.58,-43.81 555.56,-35.09 554.83,-45.66 561.58,-43.81"/>
</a>
</g>
<g id="a_edge7&#45;headlabel"><a xlink:href="dir_000073_000062.html" target="_top" xlink:title="1">
<text text-anchor="middle" x="565.27" y="-44.02" font-family="Helvetica,sans-Serif" font-size="10.00" fill="#63b8ff">1</text>
</a>
</g>
</g>
<!-- dir_446c3279719b350ae96e237b7ddd8259&#45;&gt;dir_94b0c4fb82528c4245604725780b49de -->
<g id="edge12" class="edge">
<title>dir_446c3279719b350ae96e237b7ddd8259&#45;&gt;dir_94b0c4fb82528c4245604725780b49de</title>
<g id="a_edge12"><a xlink:href="dir_000073_000129.html" target="_top">
<path fill="none" stroke="#63b8ff" d="M401.31,-300C332.71,-299.16 180,-286.62 180,-191.5 180,-191.5 180,-191.5 180,-134.5 180,-102.51 188.59,-66.07 194.51,-44.75"/>
<polygon fill="#63b8ff" stroke="#63b8ff" points="197.89,-45.66 197.3,-35.08 191.16,-43.71 197.89,-45.66"/>
</a>
</g>
<g id="a_edge12&#45;headlabel"><a xlink:href="dir_000073_000129.html" target="_top" xlink:title="1">
<text text-anchor="middle" x="199.62" y="-47.4" font-family="Helvetica,sans-Serif" font-size="10.00" fill="#63b8ff">1</text>
</a>
</g>
</g>
<!-- dir_446c3279719b350ae96e237b7ddd8259&#45;&gt;dir_e1a38fd6dc0543c7f97fb1ccf1615de7 -->
<g id="edge13" class="edge">
<title>dir_446c3279719b350ae96e237b7ddd8259&#45;&gt;dir_e1a38fd6dc0543c7f97fb1ccf1615de7</title>
<g id="a_edge13"><a xlink:href="dir_000073_000097.html" target="_top">
<path fill="none" stroke="#63b8ff" d="M401.14,-293.24C377.8,-287.18 347.3,-275.76 328,-255 272.27,-195.05 270.11,-88.74 271.78,-45.54"/>
<polygon fill="#63b8ff" stroke="#63b8ff" points="275.29,-45.5 272.3,-35.34 268.3,-45.15 275.29,-45.5"/>
</a>
</g>
<g id="a_edge13&#45;headlabel"><a xlink:href="dir_000073_000097.html" target="_top" xlink:title="5">
<text text-anchor="middle" x="277.94" y="-46.74" font-family="Helvetica,sans-Serif" font-size="10.00" fill="#63b8ff">5</text>
</a>
</g>
</g>
<!-- dir_446c3279719b350ae96e237b7ddd8259&#45;&gt;dir_3c2debfdd2bfc5d375ae885ec56c77d2 -->
<g id="edge9" class="edge">
<title>dir_446c3279719b350ae96e237b7ddd8259&#45;&gt;dir_3c2debfdd2bfc5d375ae885ec56c77d2</title>
<g id="a_edge9"><a xlink:href="dir_000073_000100.html" target="_top">
<path fill="none" stroke="#63b8ff" d="M424.04,-290.98C414.87,-283.15 401.06,-271.34 389.97,-261.86"/>
<polygon fill="#63b8ff" stroke="#63b8ff" points="392.02,-259.01 382.14,-255.17 387.47,-264.33 392.02,-259.01"/>
</a>
</g>
<g id="a_edge9&#45;headlabel"><a xlink:href="dir_000073_000100.html" target="_top" xlink:title="2">
<text text-anchor="middle" x="396.6" y="-256.69" font-family="Helvetica,sans-Serif" font-size="10.00" fill="#63b8ff">2</text>
</a>
</g>
</g>
<!-- dir_446c3279719b350ae96e237b7ddd8259&#45;&gt;dir_271ebd1cecf9fce13500c2bd2d622746 -->
<g id="edge8" class="edge">
<title>dir_446c3279719b350ae96e237b7ddd8259&#45;&gt;dir_271ebd1cecf9fce13500c2bd2d622746</title>
<g id="a_edge8"><a xlink:href="dir_000073_000189.html" target="_top">
<path fill="none" stroke="#63b8ff" d="M434.01,-290.82C433.74,-270.75 431.47,-219.86 416,-181 408.8,-162.9 401.17,-161.61 391,-145 381.83,-130.02 372.49,-112.36 365.92,-99.48"/>
<polygon fill="#63b8ff" stroke="#63b8ff" points="368.93,-97.67 361.31,-90.31 362.68,-100.81 368.93,-97.67"/>
</a>
</g>
<g id="a_edge8&#45;headlabel"><a xlink:href="dir_000073_000189.html" target="_top" xlink:title="13">
<text text-anchor="middle" x="373.08" y="-97.1" font-family="Helvetica,sans-Serif" font-size="10.00" fill="#63b8ff">13</text>
</a>
</g>
</g>
<!-- dir_3e2f71566425d27b6ac8140f1223a941 -->
<g id="node14" class="node">
<title>dir_3e2f71566425d27b6ac8140f1223a941</title>
<g id="a_node14"><a xlink:href="dir_3e2f71566425d27b6ac8140f1223a941.html" target="_top" xlink:title="util">
<polygon fill="#edf0f7" stroke="red" stroke-dasharray="5,2" points="762,-35 730,-35 730,-16 762,-16 762,-35"/>
<text text-anchor="middle" x="746" y="-23" font-family="Helvetica,sans-Serif" font-size="10.00">util</text>
</a>
</g>
</g>
<!-- dir_446c3279719b350ae96e237b7ddd8259&#45;&gt;dir_3e2f71566425d27b6ac8140f1223a941 -->
<g id="edge10" class="edge">
<title>dir_446c3279719b350ae96e237b7ddd8259&#45;&gt;dir_3e2f71566425d27b6ac8140f1223a941</title>
<g id="a_edge10"><a xlink:href="dir_000073_000183.html" target="_top">
<path fill="none" stroke="#63b8ff" d="M466.62,-297.83C512.94,-294.47 599.65,-284.46 667,-255 710.53,-235.96 753,-239.01 753,-191.5 753,-191.5 753,-191.5 753,-134.5 753,-103.12 750.02,-66.73 747.95,-45.21"/>
<polygon fill="#63b8ff" stroke="#63b8ff" points="751.42,-44.77 746.94,-35.17 744.46,-45.47 751.42,-44.77"/>
</a>
</g>
<g id="a_edge10&#45;headlabel"><a xlink:href="dir_000073_000183.html" target="_top" xlink:title="2">
<text text-anchor="middle" x="754.61" y="-45.56" font-family="Helvetica,sans-Serif" font-size="10.00" fill="#63b8ff">2</text>
</a>
</g>
</g>
<!-- dir_614bfcfaacae36fbea464e65a5a85120 -->
<g id="node16" class="node">
<title>dir_614bfcfaacae36fbea464e65a5a85120</title>
<g id="a_node16"><a xlink:href="dir_614bfcfaacae36fbea464e65a5a85120.html" target="_top" xlink:title="rendering">
<polygon fill="#edf0f7" stroke="red" stroke-dasharray="5,2" points="652.5,-35 589.5,-35 589.5,-16 652.5,-16 652.5,-35"/>
<text text-anchor="middle" x="621" y="-23" font-family="Helvetica,sans-Serif" font-size="10.00">rendering</text>
</a>
</g>
</g>
<!-- dir_446c3279719b350ae96e237b7ddd8259&#45;&gt;dir_614bfcfaacae36fbea464e65a5a85120 -->
<g id="edge11" class="edge">
<title>dir_446c3279719b350ae96e237b7ddd8259&#45;&gt;dir_614bfcfaacae36fbea464e65a5a85120</title>
<g id="a_edge11"><a xlink:href="dir_000073_000113.html" target="_top">
<path fill="none" stroke="#63b8ff" d="M466.94,-297.01C524.89,-290.64 639,-268.33 639,-191.5 639,-191.5 639,-191.5 639,-134.5 639,-102.61 631.27,-66.14 625.94,-44.78"/>
<polygon fill="#63b8ff" stroke="#63b8ff" points="629.33,-43.9 623.43,-35.1 622.55,-45.66 629.33,-43.9"/>
</a>
</g>
<g id="a_edge11&#45;headlabel"><a xlink:href="dir_000073_000113.html" target="_top" xlink:title="1">
<text text-anchor="middle" x="632.98" y="-44.16" font-family="Helvetica,sans-Serif" font-size="10.00" fill="#63b8ff">1</text>
</a>
</g>
</g>
<!-- dir_e838ebfdcf77e050c9d833b3366569df -->
<g id="node17" class="node">
<title>dir_e838ebfdcf77e050c9d833b3366569df</title>
<g id="a_node17"><a xlink:href="dir_e838ebfdcf77e050c9d833b3366569df.html" target="_top" xlink:title="input">
<polygon fill="#edf0f7" stroke="red" stroke-dasharray="5,2" points="711.5,-35 670.5,-35 670.5,-16 711.5,-16 711.5,-35"/>
<text text-anchor="middle" x="691" y="-23" font-family="Helvetica,sans-Serif" font-size="10.00">input</text>
</a>
</g>
</g>
<!-- dir_446c3279719b350ae96e237b7ddd8259&#45;&gt;dir_e838ebfdcf77e050c9d833b3366569df -->
<g id="edge14" class="edge">
<title>dir_446c3279719b350ae96e237b7ddd8259&#45;&gt;dir_e838ebfdcf77e050c9d833b3366569df</title>
<g id="a_edge14"><a xlink:href="dir_000073_000088.html" target="_top">
<path fill="none" stroke="#63b8ff" d="M466.52,-299.43C532.74,-297.41 677,-282.56 677,-191.5 677,-191.5 677,-191.5 677,-134.5 677,-102.93 682.96,-66.59 687.1,-45.14"/>
<polygon fill="#63b8ff" stroke="#63b8ff" points="690.57,-45.62 689.11,-35.13 683.71,-44.24 690.57,-45.62"/>
</a>
</g>
<g id="a_edge14&#45;headlabel"><a xlink:href="dir_000073_000088.html" target="_top" xlink:title="1">
<text text-anchor="middle" x="692.65" y="-47.21" font-family="Helvetica,sans-Serif" font-size="10.00" fill="#63b8ff">1</text>
</a>
</g>
</g>
<!-- dir_3c2debfdd2bfc5d375ae885ec56c77d2&#45;&gt;dir_1a83b528599da40ca3e2005a9bc9336b -->
<g id="edge15" class="edge">
<title>dir_3c2debfdd2bfc5d375ae885ec56c77d2&#45;&gt;dir_1a83b528599da40ca3e2005a9bc9336b</title>
<g id="a_edge15"><a xlink:href="dir_000100_000025.html" target="_top">
<path fill="none" stroke="#63b8ff" d="M384.05,-235.81C404.97,-220.1 447.93,-184.86 471,-145 489.17,-113.59 490.94,-69.99 490.22,-45.38"/>
<polygon fill="#63b8ff" stroke="#63b8ff" points="493.71,-45.06 489.75,-35.24 486.72,-45.39 493.71,-45.06"/>
</a>
</g>
<g id="a_edge15&#45;headlabel"><a xlink:href="dir_000100_000025.html" target="_top" xlink:title="3">
<text text-anchor="middle" x="496.71" y="-46.02" font-family="Helvetica,sans-Serif" font-size="10.00" fill="#63b8ff">3</text>
</a>
</g>
</g>
<!-- dir_3c2debfdd2bfc5d375ae885ec56c77d2&#45;&gt;dir_1ca916e0b9fbc882dbfbd9e6594e5e22 -->
<g id="edge16" class="edge">
<title>dir_3c2debfdd2bfc5d375ae885ec56c77d2&#45;&gt;dir_1ca916e0b9fbc882dbfbd9e6594e5e22</title>
<g id="a_edge16"><a xlink:href="dir_000100_000062.html" target="_top">
<path fill="none" stroke="#63b8ff" d="M388.09,-235.85C402.52,-227.68 423.84,-214.53 440,-200 486.98,-157.77 498.8,-144.92 530,-90 538.14,-75.66 544.28,-57.92 548.16,-44.83"/>
<polygon fill="#63b8ff" stroke="#63b8ff" points="551.55,-45.69 550.88,-35.11 544.81,-43.8 551.55,-45.69"/>
</a>
</g>
<g id="a_edge16&#45;headlabel"><a xlink:href="dir_000100_000062.html" target="_top" xlink:title="1">
<text text-anchor="middle" x="553.32" y="-47.41" font-family="Helvetica,sans-Serif" font-size="10.00" fill="#63b8ff">1</text>
</a>
</g>
</g>
<!-- dir_3c2debfdd2bfc5d375ae885ec56c77d2&#45;&gt;dir_87b9f5c33f5a8f4d48db11d48f10a572 -->
<g id="edge19" class="edge">
<title>dir_3c2debfdd2bfc5d375ae885ec56c77d2&#45;&gt;dir_87b9f5c33f5a8f4d48db11d48f10a572</title>
<g id="a_edge19"><a xlink:href="dir_000100_000103.html" target="_top">
<path fill="none" stroke="#63b8ff" d="M364.98,-235.84C358.35,-227.24 348.62,-213.44 343,-200 323.69,-153.84 324.36,-139.75 319,-90 317.71,-78.07 314.45,-74.1 319,-63 322.32,-54.89 328.42,-47.63 334.65,-41.75"/>
<polygon fill="#63b8ff" stroke="#63b8ff" points="337.11,-44.25 342.44,-35.09 332.56,-38.93 337.11,-44.25"/>
</a>
</g>
<g id="a_edge19&#45;headlabel"><a xlink:href="dir_000100_000103.html" target="_top" xlink:title="2">
<text text-anchor="middle" x="336.23" y="-46.24" font-family="Helvetica,sans-Serif" font-size="10.00" fill="#63b8ff">2</text>
</a>
</g>
</g>
<!-- dir_3c2debfdd2bfc5d375ae885ec56c77d2&#45;&gt;dir_94b0c4fb82528c4245604725780b49de -->
<g id="edge21" class="edge">
<title>dir_3c2debfdd2bfc5d375ae885ec56c77d2&#45;&gt;dir_94b0c4fb82528c4245604725780b49de</title>
<g id="a_edge21"><a xlink:href="dir_000100_000129.html" target="_top">
<path fill="none" stroke="#63b8ff" d="M358.32,-235.69C346.09,-227.41 328.13,-214.19 315,-200 267.85,-149.04 226.7,-76.85 209.1,-44"/>
<polygon fill="#63b8ff" stroke="#63b8ff" points="212.18,-42.34 204.41,-35.13 205.99,-45.61 212.18,-42.34"/>
</a>
</g>
<g id="a_edge21&#45;headlabel"><a xlink:href="dir_000100_000129.html" target="_top" xlink:title="4">
<text text-anchor="middle" x="216.37" y="-41.69" font-family="Helvetica,sans-Serif" font-size="10.00" fill="#63b8ff">4</text>
</a>
</g>
</g>
<!-- dir_3c2debfdd2bfc5d375ae885ec56c77d2&#45;&gt;dir_e1a38fd6dc0543c7f97fb1ccf1615de7 -->
<g id="edge22" class="edge">
<title>dir_3c2debfdd2bfc5d375ae885ec56c77d2&#45;&gt;dir_e1a38fd6dc0543c7f97fb1ccf1615de7</title>
<g id="a_edge22"><a xlink:href="dir_000100_000097.html" target="_top">
<path fill="none" stroke="#63b8ff" d="M362.17,-235.75C353.14,-227.3 339.85,-213.79 331,-200 302.39,-155.39 300.23,-140.76 285,-90 280.56,-75.21 277.43,-57.96 275.48,-45.18"/>
<polygon fill="#63b8ff" stroke="#63b8ff" points="278.94,-44.67 274.07,-35.27 272.01,-45.66 278.94,-44.67"/>
</a>
</g>
<g id="a_edge22&#45;headlabel"><a xlink:href="dir_000100_000097.html" target="_top" xlink:title="9">
<text text-anchor="middle" x="282.26" y="-45.33" font-family="Helvetica,sans-Serif" font-size="10.00" fill="#63b8ff">9</text>
</a>
</g>
</g>
<!-- dir_3c2debfdd2bfc5d375ae885ec56c77d2&#45;&gt;dir_920d0445133e8943cdb9dc7f8f55cbd5 -->
<g id="edge20" class="edge">
<title>dir_3c2debfdd2bfc5d375ae885ec56c77d2&#45;&gt;dir_920d0445133e8943cdb9dc7f8f55cbd5</title>
<g id="a_edge20"><a xlink:href="dir_000100_000127.html" target="_top">
<path fill="none" stroke="#63b8ff" d="M373.82,-235.75C375.26,-228.8 377.32,-218.85 379.13,-210.13"/>
<polygon fill="#63b8ff" stroke="#63b8ff" points="382.61,-210.59 381.22,-200.09 375.76,-209.17 382.61,-210.59"/>
</a>
</g>
<g id="a_edge20&#45;headlabel"><a xlink:href="dir_000100_000127.html" target="_top" xlink:title="1">
<text text-anchor="middle" x="384.66" y="-212.19" font-family="Helvetica,sans-Serif" font-size="10.00" fill="#63b8ff">1</text>
</a>
</g>
</g>
<!-- dir_3c2debfdd2bfc5d375ae885ec56c77d2&#45;&gt;dir_271ebd1cecf9fce13500c2bd2d622746 -->
<g id="edge17" class="edge">
<title>dir_3c2debfdd2bfc5d375ae885ec56c77d2&#45;&gt;dir_271ebd1cecf9fce13500c2bd2d622746</title>
<g id="a_edge17"><a xlink:href="dir_000100_000189.html" target="_top">
<path fill="none" stroke="#63b8ff" d="M359.27,-235.76C351.75,-227.1 344.1,-213.26 341,-200 332.87,-165.19 338.97,-123.16 346.55,-99.67"/>
<polygon fill="#63b8ff" stroke="#63b8ff" points="349.84,-100.86 350.09,-90.27 343.29,-98.39 349.84,-100.86"/>
</a>
</g>
<g id="a_edge17&#45;headlabel"><a xlink:href="dir_000100_000189.html" target="_top" xlink:title="3">
<text text-anchor="middle" x="351.23" y="-102.73" font-family="Helvetica,sans-Serif" font-size="10.00" fill="#63b8ff">3</text>
</a>
</g>
</g>
<!-- dir_4e12247f2bbe360a59cd98a83515e8f1 -->
<g id="node15" class="node">
<title>dir_4e12247f2bbe360a59cd98a83515e8f1</title>
<g id="a_node15"><a xlink:href="dir_4e12247f2bbe360a59cd98a83515e8f1.html" target="_top" xlink:title="core">
<polygon fill="#edf0f7" stroke="red" stroke-dasharray="5,2" points="38,-35 0,-35 0,-16 38,-16 38,-35"/>
<text text-anchor="middle" x="19" y="-23" font-family="Helvetica,sans-Serif" font-size="10.00">core</text>
</a>
</g>
</g>
<!-- dir_3c2debfdd2bfc5d375ae885ec56c77d2&#45;&gt;dir_4e12247f2bbe360a59cd98a83515e8f1 -->
<g id="edge18" class="edge">
<title>dir_3c2debfdd2bfc5d375ae885ec56c77d2&#45;&gt;dir_4e12247f2bbe360a59cd98a83515e8f1</title>
<g id="a_edge18"><a xlink:href="dir_000100_000057.html" target="_top">
<path fill="none" stroke="#63b8ff" d="M336.81,-242.33C294.46,-238.53 222.15,-228.13 167,-200 101.67,-166.67 85.9,-150.19 44,-90 34.48,-76.33 27.88,-58.51 23.86,-45.24"/>
<polygon fill="#63b8ff" stroke="#63b8ff" points="27.15,-44.02 21.08,-35.34 20.41,-45.91 27.15,-44.02"/>
</a>
</g>
<g id="a_edge18&#45;headlabel"><a xlink:href="dir_000100_000057.html" target="_top" xlink:title="7">
<text text-anchor="middle" x="30.86" y="-44.22" font-family="Helvetica,sans-Serif" font-size="10.00" fill="#63b8ff">7</text>
</a>
</g>
</g>
<!-- dir_50a13eed33dcd9f476e4986821866285&#45;&gt;dir_1a83b528599da40ca3e2005a9bc9336b -->
<g id="edge23" class="edge">
<title>dir_50a13eed33dcd9f476e4986821866285&#45;&gt;dir_1a83b528599da40ca3e2005a9bc9336b</title>
<g id="a_edge23"><a xlink:href="dir_000109_000025.html" target="_top">
<path fill="none" stroke="#63b8ff" d="M426.43,-125.89C427.49,-111.72 431.19,-83.07 444,-63 449.48,-54.41 457.68,-46.9 465.58,-40.96"/>
<polygon fill="#63b8ff" stroke="#63b8ff" points="467.69,-43.75 473.89,-35.16 463.69,-38.01 467.69,-43.75"/>
</a>
</g>
<g id="a_edge23&#45;headlabel"><a xlink:href="dir_000109_000025.html" target="_top" xlink:title="4">
<text text-anchor="middle" x="466.37" y="-45.64" font-family="Helvetica,sans-Serif" font-size="10.00" fill="#63b8ff">4</text>
</a>
</g>
</g>
<!-- dir_50a13eed33dcd9f476e4986821866285&#45;&gt;dir_1ca916e0b9fbc882dbfbd9e6594e5e22 -->
<g id="edge24" class="edge">
<title>dir_50a13eed33dcd9f476e4986821866285&#45;&gt;dir_1ca916e0b9fbc882dbfbd9e6594e5e22</title>
<g id="a_edge24"><a xlink:href="dir_000109_000062.html" target="_top">
<path fill="none" stroke="#63b8ff" d="M436.39,-125.66C457.99,-107.3 507.95,-64.81 534.93,-41.87"/>
<polygon fill="#63b8ff" stroke="#63b8ff" points="537.47,-44.3 542.82,-35.16 532.93,-38.97 537.47,-44.3"/>
</a>
</g>
<g id="a_edge24&#45;headlabel"><a xlink:href="dir_000109_000062.html" target="_top" xlink:title="5">
<text text-anchor="middle" x="536.57" y="-46.29" font-family="Helvetica,sans-Serif" font-size="10.00" fill="#63b8ff">5</text>
</a>
</g>
</g>
<!-- dir_50a13eed33dcd9f476e4986821866285&#45;&gt;dir_271ebd1cecf9fce13500c2bd2d622746 -->
<g id="edge25" class="edge">
<title>dir_50a13eed33dcd9f476e4986821866285&#45;&gt;dir_271ebd1cecf9fce13500c2bd2d622746</title>
<g id="a_edge25"><a xlink:href="dir_000109_000189.html" target="_top">
<path fill="none" stroke="#63b8ff" d="M414.91,-125.98C404.51,-118 388.74,-105.88 376.28,-96.31"/>
<polygon fill="#63b8ff" stroke="#63b8ff" points="378.35,-93.49 368.29,-90.17 374.09,-99.04 378.35,-93.49"/>
</a>
</g>
<g id="a_edge25&#45;headlabel"><a xlink:href="dir_000109_000189.html" target="_top" xlink:title="2">
<text text-anchor="middle" x="382.93" y="-90.92" font-family="Helvetica,sans-Serif" font-size="10.00" fill="#63b8ff">2</text>
</a>
</g>
</g>
<!-- dir_50a13eed33dcd9f476e4986821866285&#45;&gt;dir_3e2f71566425d27b6ac8140f1223a941 -->
<g id="edge26" class="edge">
<title>dir_50a13eed33dcd9f476e4986821866285&#45;&gt;dir_3e2f71566425d27b6ac8140f1223a941</title>
<g id="a_edge26"><a xlink:href="dir_000109_000183.html" target="_top">
<path fill="none" stroke="#63b8ff" d="M452.7,-127.92C484.5,-119.88 539.08,-105.44 585,-90 633.57,-73.67 688.88,-50.92 720.39,-37.55"/>
<polygon fill="#63b8ff" stroke="#63b8ff" points="721.93,-40.7 729.75,-33.55 719.18,-34.26 721.93,-40.7"/>
</a>
</g>
<g id="a_edge26&#45;headlabel"><a xlink:href="dir_000109_000183.html" target="_top" xlink:title="1">
<text text-anchor="middle" x="719.73" y="-42.22" font-family="Helvetica,sans-Serif" font-size="10.00" fill="#63b8ff">1</text>
</a>
</g>
</g>
<!-- dir_50a13eed33dcd9f476e4986821866285&#45;&gt;dir_4e12247f2bbe360a59cd98a83515e8f1 -->
<g id="edge27" class="edge">
<title>dir_50a13eed33dcd9f476e4986821866285&#45;&gt;dir_4e12247f2bbe360a59cd98a83515e8f1</title>
<g id="a_edge27"><a xlink:href="dir_000109_000057.html" target="_top">
<path fill="none" stroke="#63b8ff" d="M399.25,-127.85C338.63,-112.7 185.95,-74.09 48.15,-35.25"/>
<polygon fill="#63b8ff" stroke="#63b8ff" points="48.83,-31.8 38.25,-32.45 46.92,-38.54 48.83,-31.8"/>
</a>
</g>
<g id="a_edge27&#45;headlabel"><a xlink:href="dir_000109_000057.html" target="_top" xlink:title="5">
<text text-anchor="middle" x="53.06" y="-27.55" font-family="Helvetica,sans-Serif" font-size="10.00" fill="#63b8ff">5</text>
</a>
</g>
</g>
<!-- dir_920d0445133e8943cdb9dc7f8f55cbd5&#45;&gt;dir_1a83b528599da40ca3e2005a9bc9336b -->
<g id="edge28" class="edge">
<title>dir_920d0445133e8943cdb9dc7f8f55cbd5&#45;&gt;dir_1a83b528599da40ca3e2005a9bc9336b</title>
<g id="a_edge28"><a xlink:href="dir_000127_000025.html" target="_top">
<path fill="none" stroke="#63b8ff" d="M407.35,-181.83C425.14,-174.98 448.45,-163.17 462,-145 473.64,-129.4 482.53,-74.73 486.58,-45.41"/>
<polygon fill="#63b8ff" stroke="#63b8ff" points="490.09,-45.6 487.94,-35.23 483.15,-44.68 490.09,-45.6"/>
</a>
</g>
<g id="a_edge28&#45;headlabel"><a xlink:href="dir_000127_000025.html" target="_top" xlink:title="1">
<text text-anchor="middle" x="492.43" y="-47.04" font-family="Helvetica,sans-Serif" font-size="10.00" fill="#63b8ff">1</text>
</a>
</g>
</g>
<!-- dir_920d0445133e8943cdb9dc7f8f55cbd5&#45;&gt;dir_1ca916e0b9fbc882dbfbd9e6594e5e22 -->
<g id="edge29" class="edge">
<title>dir_920d0445133e8943cdb9dc7f8f55cbd5&#45;&gt;dir_1ca916e0b9fbc882dbfbd9e6594e5e22</title>
<g id="a_edge29"><a xlink:href="dir_000127_000062.html" target="_top">
<path fill="none" stroke="#63b8ff" d="M407.34,-181.01C426.18,-173.59 452.16,-161.42 471,-145 504.82,-115.53 531.49,-69.21 544.43,-44.1"/>
<polygon fill="#63b8ff" stroke="#63b8ff" points="547.63,-45.54 548.99,-35.03 541.37,-42.4 547.63,-45.54"/>
</a>
</g>
<g id="a_edge29&#45;headlabel"><a xlink:href="dir_000127_000062.html" target="_top" xlink:title="16">
<text text-anchor="middle" x="548.56" y="-47.52" font-family="Helvetica,sans-Serif" font-size="10.00" fill="#63b8ff">16</text>
</a>
</g>
</g>
<!-- dir_920d0445133e8943cdb9dc7f8f55cbd5&#45;&gt;dir_87b9f5c33f5a8f4d48db11d48f10a572 -->
<g id="edge35" class="edge">
<title>dir_920d0445133e8943cdb9dc7f8f55cbd5&#45;&gt;dir_87b9f5c33f5a8f4d48db11d48f10a572</title>
<g id="a_edge35"><a xlink:href="dir_000127_000103.html" target="_top">
<path fill="none" stroke="#63b8ff" d="M375.94,-180.88C362.98,-164.44 335.83,-126.94 326,-90 322.91,-78.4 322.05,-74.33 326,-63 328.58,-55.61 333.35,-48.59 338.29,-42.72"/>
<polygon fill="#63b8ff" stroke="#63b8ff" points="341.18,-44.74 345.41,-35.03 336.05,-39.99 341.18,-44.74"/>
</a>
</g>
<g id="a_edge35&#45;headlabel"><a xlink:href="dir_000127_000103.html" target="_top" xlink:title="17">
<text text-anchor="middle" x="340.83" y="-46.81" font-family="Helvetica,sans-Serif" font-size="10.00" fill="#63b8ff">17</text>
</a>
</g>
</g>
<!-- dir_920d0445133e8943cdb9dc7f8f55cbd5&#45;&gt;dir_e1a38fd6dc0543c7f97fb1ccf1615de7 -->
<g id="edge36" class="edge">
<title>dir_920d0445133e8943cdb9dc7f8f55cbd5&#45;&gt;dir_e1a38fd6dc0543c7f97fb1ccf1615de7</title>
<g id="a_edge36"><a xlink:href="dir_000127_000097.html" target="_top">
<path fill="none" stroke="#63b8ff" d="M371.95,-180.82C361.75,-172.42 346.62,-158.95 336,-145 311.17,-112.38 290.71,-68.62 280.34,-44.44"/>
<polygon fill="#63b8ff" stroke="#63b8ff" points="283.52,-42.96 276.42,-35.09 277.06,-45.67 283.52,-42.96"/>
</a>
</g>
<g id="a_edge36&#45;headlabel"><a xlink:href="dir_000127_000097.html" target="_top" xlink:title="3">
<text text-anchor="middle" x="287.53" y="-42.68" font-family="Helvetica,sans-Serif" font-size="10.00" fill="#63b8ff">3</text>
</a>
</g>
</g>
<!-- dir_920d0445133e8943cdb9dc7f8f55cbd5&#45;&gt;dir_50a13eed33dcd9f476e4986821866285 -->
<g id="edge34" class="edge">
<title>dir_920d0445133e8943cdb9dc7f8f55cbd5&#45;&gt;dir_50a13eed33dcd9f476e4986821866285</title>
<g id="a_edge34"><a xlink:href="dir_000127_000109.html" target="_top">
<path fill="none" stroke="#63b8ff" d="M390.1,-180.75C396.17,-173.26 405.09,-162.28 412.51,-153.13"/>
<polygon fill="#63b8ff" stroke="#63b8ff" points="415.45,-155.06 419.03,-145.09 410.01,-150.65 415.45,-155.06"/>
</a>
</g>
<g id="a_edge34&#45;headlabel"><a xlink:href="dir_000127_000109.html" target="_top" xlink:title="18">
<text text-anchor="middle" x="415.39" y="-157.14" font-family="Helvetica,sans-Serif" font-size="10.00" fill="#63b8ff">18</text>
</a>
</g>
</g>
<!-- dir_920d0445133e8943cdb9dc7f8f55cbd5&#45;&gt;dir_271ebd1cecf9fce13500c2bd2d622746 -->
<g id="edge31" class="edge">
<title>dir_920d0445133e8943cdb9dc7f8f55cbd5&#45;&gt;dir_271ebd1cecf9fce13500c2bd2d622746</title>
<g id="a_edge31"><a xlink:href="dir_000127_000189.html" target="_top">
<path fill="none" stroke="#63b8ff" d="M380.87,-180.66C376.64,-163.09 367.1,-123.45 361.44,-99.95"/>
<polygon fill="#63b8ff" stroke="#63b8ff" points="364.83,-99.06 359.08,-90.16 358.02,-100.7 364.83,-99.06"/>
</a>
</g>
<g id="a_edge31&#45;headlabel"><a xlink:href="dir_000127_000189.html" target="_top" xlink:title="27">
<text text-anchor="middle" x="368.43" y="-99.39" font-family="Helvetica,sans-Serif" font-size="10.00" fill="#63b8ff">27</text>
</a>
</g>
</g>
<!-- dir_268add6b94670641c68bb834cdcb4292 -->
<g id="node13" class="node">
<title>dir_268add6b94670641c68bb834cdcb4292</title>
<g id="a_node13"><a xlink:href="dir_268add6b94670641c68bb834cdcb4292.html" target="_top" xlink:title="math">
<polygon fill="#edf0f7" stroke="red" stroke-dasharray="5,2" points="98,-35 56,-35 56,-16 98,-16 98,-35"/>
<text text-anchor="middle" x="77" y="-23" font-family="Helvetica,sans-Serif" font-size="10.00">math</text>
</a>
</g>
</g>
<!-- dir_920d0445133e8943cdb9dc7f8f55cbd5&#45;&gt;dir_268add6b94670641c68bb834cdcb4292 -->
<g id="edge30" class="edge">
<title>dir_920d0445133e8943cdb9dc7f8f55cbd5&#45;&gt;dir_268add6b94670641c68bb834cdcb4292</title>
<g id="a_edge30"><a xlink:href="dir_000127_000096.html" target="_top">
<path fill="none" stroke="#63b8ff" d="M358.94,-189.88C316.78,-189.45 228.23,-183.57 167,-145 127.25,-119.96 98.56,-70.69 85.27,-44.26"/>
<polygon fill="#63b8ff" stroke="#63b8ff" points="88.32,-42.52 80.81,-35.05 82.02,-45.57 88.32,-42.52"/>
</a>
</g>
<g id="a_edge30&#45;headlabel"><a xlink:href="dir_000127_000096.html" target="_top" xlink:title="11">
<text text-anchor="middle" x="92.44" y="-42.02" font-family="Helvetica,sans-Serif" font-size="10.00" fill="#63b8ff">11</text>
</a>
</g>
</g>
<!-- dir_920d0445133e8943cdb9dc7f8f55cbd5&#45;&gt;dir_3e2f71566425d27b6ac8140f1223a941 -->
<g id="edge32" class="edge">
<title>dir_920d0445133e8943cdb9dc7f8f55cbd5&#45;&gt;dir_3e2f71566425d27b6ac8140f1223a941</title>
<g id="a_edge32"><a xlink:href="dir_000127_000183.html" target="_top">
<path fill="none" stroke="#63b8ff" d="M407.03,-187.46C445.95,-183.46 524.49,-172.43 585,-145 643.72,-118.38 702.01,-67.99 729.56,-42.35"/>
<polygon fill="#63b8ff" stroke="#63b8ff" points="732.22,-44.65 737.09,-35.24 727.42,-39.56 732.22,-44.65"/>
</a>
</g>
<g id="a_edge32&#45;headlabel"><a xlink:href="dir_000127_000183.html" target="_top" xlink:title="7">
<text text-anchor="middle" x="731.56" y="-46.68" font-family="Helvetica,sans-Serif" font-size="10.00" fill="#63b8ff">7</text>
</a>
</g>
</g>
<!-- dir_920d0445133e8943cdb9dc7f8f55cbd5&#45;&gt;dir_4e12247f2bbe360a59cd98a83515e8f1 -->
<g id="edge33" class="edge">
<title>dir_920d0445133e8943cdb9dc7f8f55cbd5&#45;&gt;dir_4e12247f2bbe360a59cd98a83515e8f1</title>
<g id="a_edge33"><a xlink:href="dir_000127_000057.html" target="_top">
<path fill="none" stroke="#63b8ff" d="M358.85,-189.6C313.57,-188.84 213.89,-182.61 141,-145 92.65,-120.05 50.69,-69.62 30.98,-43.32"/>
<polygon fill="#63b8ff" stroke="#63b8ff" points="33.69,-41.1 24.96,-35.1 28.05,-45.24 33.69,-41.1"/>
</a>
</g>
<g id="a_edge33&#45;headlabel"><a xlink:href="dir_000127_000057.html" target="_top" xlink:title="7">
<text text-anchor="middle" x="38.11" y="-39.82" font-family="Helvetica,sans-Serif" font-size="10.00" fill="#63b8ff">7</text>
</a>
</g>
</g>
<!-- dir_271ebd1cecf9fce13500c2bd2d622746&#45;&gt;dir_1a83b528599da40ca3e2005a9bc9336b -->
<g id="edge37" class="edge">
<title>dir_271ebd1cecf9fce13500c2bd2d622746&#45;&gt;dir_1a83b528599da40ca3e2005a9bc9336b</title>
<g id="a_edge37"><a xlink:href="dir_000189_000025.html" target="_top">
<path fill="none" stroke="#63b8ff" d="M369.09,-71C373.36,-68.22 378.28,-65.27 383,-63 404.4,-52.7 429.49,-43.93 449.88,-37.56"/>
<polygon fill="#63b8ff" stroke="#63b8ff" points="450.93,-40.9 459.48,-34.64 448.89,-34.21 450.93,-40.9"/>
</a>
</g>
<g id="a_edge37&#45;headlabel"><a xlink:href="dir_000189_000025.html" target="_top" xlink:title="6">
<text text-anchor="middle" x="448.32" y="-42.17" font-family="Helvetica,sans-Serif" font-size="10.00" fill="#63b8ff">6</text>
</a>
</g>
</g>
<!-- dir_271ebd1cecf9fce13500c2bd2d622746&#45;&gt;dir_1ca916e0b9fbc882dbfbd9e6594e5e22 -->
<g id="edge38" class="edge">
<title>dir_271ebd1cecf9fce13500c2bd2d622746&#45;&gt;dir_1ca916e0b9fbc882dbfbd9e6594e5e22</title>
<g id="a_edge38"><a xlink:href="dir_000189_000062.html" target="_top">
<path fill="none" stroke="#63b8ff" d="M368.4,-70.96C372.78,-68.04 377.93,-65.01 383,-63 441.14,-39.91 462.54,-50.68 526.64,-35"/>
<polygon fill="#63b8ff" stroke="#63b8ff" points="527.61,-38.37 536.42,-32.49 525.87,-31.59 527.61,-38.37"/>
</a>
</g>
<g id="a_edge38&#45;headlabel"><a xlink:href="dir_000189_000062.html" target="_top" xlink:title="11">
<text text-anchor="middle" x="524.83" y="-39.51" font-family="Helvetica,sans-Serif" font-size="10.00" fill="#63b8ff">11</text>
</a>
</g>
</g>
<!-- dir_271ebd1cecf9fce13500c2bd2d622746&#45;&gt;dir_87b9f5c33f5a8f4d48db11d48f10a572 -->
<g id="edge45" class="edge">
<title>dir_271ebd1cecf9fce13500c2bd2d622746&#45;&gt;dir_87b9f5c33f5a8f4d48db11d48f10a572</title>
<g id="a_edge45"><a xlink:href="dir_000189_000103.html" target="_top">
<path fill="none" stroke="#63b8ff" d="M356.67,-70.75C356.41,-63.8 356.03,-53.85 355.7,-45.13"/>
<polygon fill="#63b8ff" stroke="#63b8ff" points="359.2,-44.95 355.32,-35.09 352.2,-45.21 359.2,-44.95"/>
</a>
</g>
<g id="a_edge45&#45;headlabel"><a xlink:href="dir_000189_000103.html" target="_top" xlink:title="1">
<text text-anchor="middle" x="362.17" y="-45.93" font-family="Helvetica,sans-Serif" font-size="10.00" fill="#63b8ff">1</text>
</a>
</g>
</g>
<!-- dir_271ebd1cecf9fce13500c2bd2d622746&#45;&gt;dir_94b0c4fb82528c4245604725780b49de -->
<g id="edge46" class="edge">
<title>dir_271ebd1cecf9fce13500c2bd2d622746&#45;&gt;dir_94b0c4fb82528c4245604725780b49de</title>
<g id="a_edge46"><a xlink:href="dir_000189_000129.html" target="_top">
<path fill="none" stroke="#63b8ff" d="M344.99,-70.83C340.72,-68.04 335.79,-65.13 331,-63 291.09,-45.27 276.66,-47.22 230.36,-35.01"/>
<polygon fill="#63b8ff" stroke="#63b8ff" points="231.22,-31.62 220.65,-32.37 229.38,-38.37 231.22,-31.62"/>
</a>
</g>
<g id="a_edge46&#45;headlabel"><a xlink:href="dir_000189_000129.html" target="_top" xlink:title="3">
<text text-anchor="middle" x="235.43" y="-27.32" font-family="Helvetica,sans-Serif" font-size="10.00" fill="#63b8ff">3</text>
</a>
</g>
</g>
<!-- dir_271ebd1cecf9fce13500c2bd2d622746&#45;&gt;dir_e1a38fd6dc0543c7f97fb1ccf1615de7 -->
<g id="edge48" class="edge">
<title>dir_271ebd1cecf9fce13500c2bd2d622746&#45;&gt;dir_e1a38fd6dc0543c7f97fb1ccf1615de7</title>
<g id="a_edge48"><a xlink:href="dir_000189_000097.html" target="_top">
<path fill="none" stroke="#63b8ff" d="M343.51,-70.93C339.49,-68.37 335.07,-65.57 331,-63 319.33,-55.63 306.33,-47.44 295.59,-40.69"/>
<polygon fill="#63b8ff" stroke="#63b8ff" points="297.17,-37.55 286.84,-35.19 293.44,-43.47 297.17,-37.55"/>
</a>
</g>
<g id="a_edge48&#45;headlabel"><a xlink:href="dir_000189_000097.html" target="_top" xlink:title="2">
<text text-anchor="middle" x="301.72" y="-34.55" font-family="Helvetica,sans-Serif" font-size="10.00" fill="#63b8ff">2</text>
</a>
</g>
</g>
<!-- dir_271ebd1cecf9fce13500c2bd2d622746&#45;&gt;dir_5a58a2ffe8660a7fc51fed7e0c7c898d -->
<g id="edge43" class="edge">
<title>dir_271ebd1cecf9fce13500c2bd2d622746&#45;&gt;dir_5a58a2ffe8660a7fc51fed7e0c7c898d</title>
<g id="a_edge43"><a xlink:href="dir_000189_000058.html" target="_top">
<path fill="none" stroke="#63b8ff" d="M367.44,-70.98C377.15,-63.07 391.82,-51.11 403.5,-41.58"/>
<polygon fill="#63b8ff" stroke="#63b8ff" points="405.83,-44.2 411.37,-35.17 401.4,-38.78 405.83,-44.2"/>
</a>
</g>
<g id="a_edge43&#45;headlabel"><a xlink:href="dir_000189_000058.html" target="_top" xlink:title="1">
<text text-anchor="middle" x="404.84" y="-46.17" font-family="Helvetica,sans-Serif" font-size="10.00" fill="#63b8ff">1</text>
</a>
</g>
</g>
<!-- dir_271ebd1cecf9fce13500c2bd2d622746&#45;&gt;dir_3c2debfdd2bfc5d375ae885ec56c77d2 -->
<g id="edge40" class="edge">
<title>dir_271ebd1cecf9fce13500c2bd2d622746&#45;&gt;dir_3c2debfdd2bfc5d375ae885ec56c77d2</title>
<g id="a_edge40"><a xlink:href="dir_000189_000100.html" target="_top">
<path fill="none" stroke="#63b8ff" d="M359.5,-90.27C359.17,-110.11 349.62,-159.86 359,-200 361.15,-209.22 365.51,-218.72 369.07,-226.57"/>
<polygon fill="#63b8ff" stroke="#63b8ff" points="365.86,-227.97 373.04,-235.76 372.29,-225.19 365.86,-227.97"/>
</a>
</g>
<g id="a_edge40&#45;headlabel"><a xlink:href="dir_000189_000100.html" target="_top" xlink:title="5">
<text text-anchor="middle" x="361.83" y="-223.29" font-family="Helvetica,sans-Serif" font-size="10.00" fill="#63b8ff">5</text>
</a>
</g>
</g>
<!-- dir_271ebd1cecf9fce13500c2bd2d622746&#45;&gt;dir_268add6b94670641c68bb834cdcb4292 -->
<g id="edge39" class="edge">
<title>dir_271ebd1cecf9fce13500c2bd2d622746&#45;&gt;dir_268add6b94670641c68bb834cdcb4292</title>
<g id="a_edge39"><a xlink:href="dir_000189_000096.html" target="_top">
<path fill="none" stroke="#63b8ff" d="M334.78,-76.31C292.53,-70.08 197.54,-55.3 108.25,-35.1"/>
<polygon fill="#63b8ff" stroke="#63b8ff" points="108.77,-31.62 98.24,-32.8 107.2,-38.45 108.77,-31.62"/>
</a>
</g>
<g id="a_edge39&#45;headlabel"><a xlink:href="dir_000189_000096.html" target="_top" xlink:title="1">
<text text-anchor="middle" x="112.9" y="-27.16" font-family="Helvetica,sans-Serif" font-size="10.00" fill="#63b8ff">1</text>
</a>
</g>
</g>
<!-- dir_271ebd1cecf9fce13500c2bd2d622746&#45;&gt;dir_3e2f71566425d27b6ac8140f1223a941 -->
<g id="edge41" class="edge">
<title>dir_271ebd1cecf9fce13500c2bd2d622746&#45;&gt;dir_3e2f71566425d27b6ac8140f1223a941</title>
<g id="a_edge41"><a xlink:href="dir_000189_000183.html" target="_top">
<path fill="none" stroke="#63b8ff" d="M379.02,-78.39C434.73,-75.25 585.83,-64.68 719.72,-34.85"/>
<polygon fill="#63b8ff" stroke="#63b8ff" points="720.76,-38.2 729.73,-32.57 719.21,-31.37 720.76,-38.2"/>
</a>
</g>
<g id="a_edge41&#45;headlabel"><a xlink:href="dir_000189_000183.html" target="_top" xlink:title="3">
<text text-anchor="middle" x="717.88" y="-39.26" font-family="Helvetica,sans-Serif" font-size="10.00" fill="#63b8ff">3</text>
</a>
</g>
</g>
<!-- dir_271ebd1cecf9fce13500c2bd2d622746&#45;&gt;dir_4e12247f2bbe360a59cd98a83515e8f1 -->
<g id="edge42" class="edge">
<title>dir_271ebd1cecf9fce13500c2bd2d622746&#45;&gt;dir_4e12247f2bbe360a59cd98a83515e8f1</title>
<g id="a_edge42"><a xlink:href="dir_000189_000057.html" target="_top">
<path fill="none" stroke="#63b8ff" d="M334.99,-77.5C285.39,-72.76 161,-59.49 48.02,-34.92"/>
<polygon fill="#63b8ff" stroke="#63b8ff" points="48.7,-31.48 38.18,-32.74 47.19,-38.32 48.7,-31.48"/>
</a>
</g>
<g id="a_edge42&#45;headlabel"><a xlink:href="dir_000189_000057.html" target="_top" xlink:title="9">
<text text-anchor="middle" x="52.82" y="-26.99" font-family="Helvetica,sans-Serif" font-size="10.00" fill="#63b8ff">9</text>
</a>
</g>
</g>
<!-- dir_271ebd1cecf9fce13500c2bd2d622746&#45;&gt;dir_614bfcfaacae36fbea464e65a5a85120 -->
<g id="edge44" class="edge">
<title>dir_271ebd1cecf9fce13500c2bd2d622746&#45;&gt;dir_614bfcfaacae36fbea464e65a5a85120</title>
<g id="a_edge44"><a xlink:href="dir_000189_000113.html" target="_top">
<path fill="none" stroke="#63b8ff" d="M379.07,-75.49C418.17,-68.32 502.41,-52.59 579.38,-36.18"/>
<polygon fill="#63b8ff" stroke="#63b8ff" points="580.17,-39.6 589.21,-34.08 578.7,-32.75 580.17,-39.6"/>
</a>
</g>
<g id="a_edge44&#45;headlabel"><a xlink:href="dir_000189_000113.html" target="_top" xlink:title="1">
<text text-anchor="middle" x="577.25" y="-40.63" font-family="Helvetica,sans-Serif" font-size="10.00" fill="#63b8ff">1</text>
</a>
</g>
</g>
<!-- dir_271ebd1cecf9fce13500c2bd2d622746&#45;&gt;dir_e838ebfdcf77e050c9d833b3366569df -->
<g id="edge49" class="edge">
<title>dir_271ebd1cecf9fce13500c2bd2d622746&#45;&gt;dir_e838ebfdcf77e050c9d833b3366569df</title>
<g id="a_edge49"><a xlink:href="dir_000189_000088.html" target="_top">
<path fill="none" stroke="#63b8ff" d="M379.01,-77.36C427.98,-72.37 549.76,-58.72 660.5,-35.07"/>
<polygon fill="#63b8ff" stroke="#63b8ff" points="661.47,-38.44 670.5,-32.9 659.98,-31.6 661.47,-38.44"/>
</a>
</g>
<g id="a_edge49&#45;headlabel"><a xlink:href="dir_000189_000088.html" target="_top" xlink:title="1">
<text text-anchor="middle" x="658.56" y="-39.47" font-family="Helvetica,sans-Serif" font-size="10.00" fill="#63b8ff">1</text>
</a>
</g>
</g>
<!-- dir_dde1b4dbeafc450b8ae5525133d75a82 -->
<g id="node18" class="node">
<title>dir_dde1b4dbeafc450b8ae5525133d75a82</title>
<g id="a_node18"><a xlink:href="dir_dde1b4dbeafc450b8ae5525133d75a82.html" target="_top" xlink:title="scene">
<polygon fill="#edf0f7" stroke="#7f7f7f" points="161.5,-35 116.5,-35 116.5,-16 161.5,-16 161.5,-35"/>
<text text-anchor="middle" x="139" y="-23" font-family="Helvetica,sans-Serif" font-size="10.00">scene</text>
</a>
</g>
</g>
<!-- dir_271ebd1cecf9fce13500c2bd2d622746&#45;&gt;dir_dde1b4dbeafc450b8ae5525133d75a82 -->
<g id="edge47" class="edge">
<title>dir_271ebd1cecf9fce13500c2bd2d622746&#45;&gt;dir_dde1b4dbeafc450b8ae5525133d75a82</title>
<g id="a_edge47"><a xlink:href="dir_000189_000118.html" target="_top">
<path fill="none" stroke="#63b8ff" d="M334.94,-74.82C301.14,-67.54 234.32,-52.75 171.26,-36.07"/>
<polygon fill="#63b8ff" stroke="#63b8ff" points="172.15,-32.69 161.58,-33.49 170.34,-39.45 172.15,-32.69"/>
</a>
</g>
<g id="a_edge47&#45;headlabel"><a xlink:href="dir_000189_000118.html" target="_top" xlink:title="1">
<text text-anchor="middle" x="176.35" y="-28.37" font-family="Helvetica,sans-Serif" font-size="10.00" fill="#63b8ff">1</text>
</a>
</g>
</g>
</g>
</svg>
