<?xml version="1.0" encoding="UTF-8" standalone="no"?>
<!DOCTYPE svg PUBLIC "-//W3C//DTD SVG 1.1//EN"
 "http://www.w3.org/Graphics/SVG/1.1/DTD/svg11.dtd">
<!-- Generated by graphviz version 2.43.0 (0)
 -->
<!-- Title: engine Pages: 1 -->
<svg width="684pt" height="471pt"
 viewBox="0.00 0.00 684.00 471.00" xmlns="http://www.w3.org/2000/svg" xmlns:xlink="http://www.w3.org/1999/xlink">
<g id="graph0" class="graph" transform="scale(1 1) rotate(0) translate(4 467)">
<title>engine</title>
<g id="clust1" class="cluster">
<title>clusterdir_1ac1243035b4576c146b8d2c8a6274f6</title>
<g id="a_clust1"><a xlink:href="dir_1ac1243035b4576c146b8d2c8a6274f6.html" target="_top" xlink:title="helios">
<polygon fill="#edf0f7" stroke="#7f7f7f" stroke-dasharray="5,2" points="8,-8 8,-455 634,-455 634,-8 8,-8"/>
<text text-anchor="middle" x="321" y="-443" font-family="Helvetica,sans-Serif" font-size="10.00">helios</text>
</a>
</g>
</g>
<g id="clust2" class="cluster">
<title>clusterdir_1e46d961eb277b2583ee5b095f5b4c8e</title>
<g id="a_clust2"><a xlink:href="dir_1e46d961eb277b2583ee5b095f5b4c8e.html" target="_top">
<polygon fill="#edf0f7" stroke="#404040" stroke-width="2" points="130,-63 130,-428 396,-428 396,-63 130,-63"/>
</a>
</g>
</g>
<!-- dir_268add6b94670641c68bb834cdcb4292 -->
<g id="node1" class="node">
<title>dir_268add6b94670641c68bb834cdcb4292</title>
<g id="a_node1"><a xlink:href="dir_268add6b94670641c68bb834cdcb4292.html" target="_top" xlink:title="math">
<polygon fill="#a2b4d6" stroke="red" points="379,-35 337,-35 337,-16 379,-16 379,-35"/>
<text text-anchor="middle" x="358" y="-23" font-family="Helvetica,sans-Serif" font-size="10.00">math</text>
</a>
</g>
</g>
<!-- dir_3e2f71566425d27b6ac8140f1223a941 -->
<g id="node2" class="node">
<title>dir_3e2f71566425d27b6ac8140f1223a941</title>
<g id="a_node2"><a xlink:href="dir_3e2f71566425d27b6ac8140f1223a941.html" target="_top" xlink:title="util">
<polygon fill="#a2b4d6" stroke="red" points="551,-90 519,-90 519,-71 551,-71 551,-90"/>
<text text-anchor="middle" x="535" y="-78" font-family="Helvetica,sans-Serif" font-size="10.00">util</text>
</a>
</g>
</g>
<!-- dir_4e12247f2bbe360a59cd98a83515e8f1 -->
<g id="node3" class="node">
<title>dir_4e12247f2bbe360a59cd98a83515e8f1</title>
<g id="a_node3"><a xlink:href="dir_4e12247f2bbe360a59cd98a83515e8f1.html" target="_top" xlink:title="core">
<polygon fill="#a2b4d6" stroke="red" points="118,-35 80,-35 80,-16 118,-16 118,-35"/>
<text text-anchor="middle" x="99" y="-23" font-family="Helvetica,sans-Serif" font-size="10.00">core</text>
</a>
</g>
</g>
<!-- dir_614bfcfaacae36fbea464e65a5a85120 -->
<g id="node4" class="node">
<title>dir_614bfcfaacae36fbea464e65a5a85120</title>
<g id="a_node4"><a xlink:href="dir_614bfcfaacae36fbea464e65a5a85120.html" target="_top" xlink:title="rendering">
<polygon fill="#a2b4d6" stroke="red" points="467.5,-90 404.5,-90 404.5,-71 467.5,-71 467.5,-90"/>
<text text-anchor="middle" x="436" y="-78" font-family="Helvetica,sans-Serif" font-size="10.00">rendering</text>
</a>
</g>
</g>
<!-- dir_dde1b4dbeafc450b8ae5525133d75a82 -->
<g id="node5" class="node">
<title>dir_dde1b4dbeafc450b8ae5525133d75a82</title>
<g id="a_node5"><a xlink:href="dir_dde1b4dbeafc450b8ae5525133d75a82.html" target="_top" xlink:title="scene">
<polygon fill="#a2b4d6" stroke="#404040" points="121.5,-90 76.5,-90 76.5,-71 121.5,-71 121.5,-90"/>
<text text-anchor="middle" x="99" y="-78" font-family="Helvetica,sans-Serif" font-size="10.00">scene</text>
</a>
</g>
</g>
<!-- dir_e838ebfdcf77e050c9d833b3366569df -->
<g id="node6" class="node">
<title>dir_e838ebfdcf77e050c9d833b3366569df</title>
<g id="a_node6"><a xlink:href="dir_e838ebfdcf77e050c9d833b3366569df.html" target="_top" xlink:title="input">
<polygon fill="#a2b4d6" stroke="red" points="445.5,-145 404.5,-145 404.5,-126 445.5,-126 445.5,-145"/>
<text text-anchor="middle" x="425" y="-133" font-family="Helvetica,sans-Serif" font-size="10.00">input</text>
</a>
</g>
</g>
<!-- dir_1e46d961eb277b2583ee5b095f5b4c8e -->
<g id="node7" class="node">
<title>dir_1e46d961eb277b2583ee5b095f5b4c8e</title>
<text text-anchor="middle" x="255" y="-408" font-family="Helvetica,sans-Serif" font-size="10.00">engine</text>
</g>
<!-- dir_a8f8c4b70d3587fcf7159bd2d30de216 -->
<g id="node8" class="node">
<title>dir_a8f8c4b70d3587fcf7159bd2d30de216</title>
<g id="a_node8"><a xlink:href="dir_a8f8c4b70d3587fcf7159bd2d30de216.html" target="_top" xlink:title="builder">
<polygon fill="#a2b4d6" stroke="#404040" points="280,-365 230,-365 230,-346 280,-346 280,-365"/>
<text text-anchor="middle" x="255" y="-353" font-family="Helvetica,sans-Serif" font-size="10.00">builder</text>
</a>
</g>
</g>
<!-- dir_1e46d961eb277b2583ee5b095f5b4c8e&#45;&gt;dir_a8f8c4b70d3587fcf7159bd2d30de216 -->
<g id="edge5" class="edge">
<title>dir_1e46d961eb277b2583ee5b095f5b4c8e&#45;&gt;dir_a8f8c4b70d3587fcf7159bd2d30de216</title>
<g id="a_edge5"><a xlink:href="dir_000049_000010.html" target="_top">
<path fill="none" stroke="#63b8ff" d="M255,-400.75C255,-393.8 255,-383.85 255,-375.13"/>
<polygon fill="#63b8ff" stroke="#63b8ff" points="258.5,-375.09 255,-365.09 251.5,-375.09 258.5,-375.09"/>
</a>
</g>
<g id="a_edge5&#45;headlabel"><a xlink:href="dir_000049_000010.html" target="_top" xlink:title="25">
<text text-anchor="middle" x="261.34" y="-376.18" font-family="Helvetica,sans-Serif" font-size="10.00" fill="#63b8ff">25</text>
</a>
</g>
</g>
<!-- dir_5a58a2ffe8660a7fc51fed7e0c7c898d -->
<g id="node9" class="node">
<title>dir_5a58a2ffe8660a7fc51fed7e0c7c898d</title>
<g id="a_node9"><a xlink:href="dir_5a58a2ffe8660a7fc51fed7e0c7c898d.html" target="_top" xlink:title="core">
<polygon fill="#a2b4d6" stroke="#404040" points="238,-90 200,-90 200,-71 238,-71 238,-90"/>
<text text-anchor="middle" x="219" y="-78" font-family="Helvetica,sans-Serif" font-size="10.00">core</text>
</a>
</g>
</g>
<!-- dir_1e46d961eb277b2583ee5b095f5b4c8e&#45;&gt;dir_5a58a2ffe8660a7fc51fed7e0c7c898d -->
<g id="edge3" class="edge">
<title>dir_1e46d961eb277b2583ee5b095f5b4c8e&#45;&gt;dir_5a58a2ffe8660a7fc51fed7e0c7c898d</title>
<g id="a_edge3"><a xlink:href="dir_000049_000041.html" target="_top">
<path fill="none" stroke="#63b8ff" d="M242.06,-400.87C231.18,-392.89 216.13,-380.02 208,-365 196.17,-343.15 202.01,-334.52 198,-310 184.78,-229.2 163.65,-203.85 189,-126 192.27,-115.96 198.52,-106.09 204.48,-98.2"/>
<polygon fill="#63b8ff" stroke="#63b8ff" points="207.35,-100.22 210.9,-90.24 201.9,-95.82 207.35,-100.22"/>
</a>
</g>
<g id="a_edge3&#45;headlabel"><a xlink:href="dir_000049_000041.html" target="_top" xlink:title="77">
<text text-anchor="middle" x="207.3" y="-102.3" font-family="Helvetica,sans-Serif" font-size="10.00" fill="#63b8ff">77</text>
</a>
</g>
</g>
<!-- dir_1ca916e0b9fbc882dbfbd9e6594e5e22 -->
<g id="node10" class="node">
<title>dir_1ca916e0b9fbc882dbfbd9e6594e5e22</title>
<g id="a_node10"><a xlink:href="dir_1ca916e0b9fbc882dbfbd9e6594e5e22.html" target="_top" xlink:title="ecs">
<polygon fill="#a2b4d6" stroke="#404040" points="288.5,-310 255.5,-310 255.5,-291 288.5,-291 288.5,-310"/>
<text text-anchor="middle" x="272" y="-298" font-family="Helvetica,sans-Serif" font-size="10.00">ecs</text>
</a>
</g>
</g>
<!-- dir_1e46d961eb277b2583ee5b095f5b4c8e&#45;&gt;dir_1ca916e0b9fbc882dbfbd9e6594e5e22 -->
<g id="edge1" class="edge">
<title>dir_1e46d961eb277b2583ee5b095f5b4c8e&#45;&gt;dir_1ca916e0b9fbc882dbfbd9e6594e5e22</title>
<g id="a_edge1"><a xlink:href="dir_000049_000047.html" target="_top">
<path fill="none" stroke="#63b8ff" d="M244.45,-400.64C231.38,-388.54 211.89,-366.04 221,-346 226.62,-333.63 237.57,-323.36 247.89,-315.81"/>
<polygon fill="#63b8ff" stroke="#63b8ff" points="249.96,-318.63 256.27,-310.12 246.03,-312.84 249.96,-318.63"/>
</a>
</g>
<g id="a_edge1&#45;headlabel"><a xlink:href="dir_000049_000047.html" target="_top" xlink:title="144">
<text text-anchor="middle" x="248.58" y="-320.5" font-family="Helvetica,sans-Serif" font-size="10.00" fill="#63b8ff">144</text>
</a>
</g>
</g>
<!-- dir_e1a38fd6dc0543c7f97fb1ccf1615de7 -->
<g id="node11" class="node">
<title>dir_e1a38fd6dc0543c7f97fb1ccf1615de7</title>
<g id="a_node11"><a xlink:href="dir_e1a38fd6dc0543c7f97fb1ccf1615de7.html" target="_top" xlink:title="mechanics">
<polygon fill="#a2b4d6" stroke="#404040" points="287.5,-255 218.5,-255 218.5,-236 287.5,-236 287.5,-255"/>
<text text-anchor="middle" x="253" y="-243" font-family="Helvetica,sans-Serif" font-size="10.00">mechanics</text>
</a>
</g>
</g>
<!-- dir_1e46d961eb277b2583ee5b095f5b4c8e&#45;&gt;dir_e1a38fd6dc0543c7f97fb1ccf1615de7 -->
<g id="edge6" class="edge">
<title>dir_1e46d961eb277b2583ee5b095f5b4c8e&#45;&gt;dir_e1a38fd6dc0543c7f97fb1ccf1615de7</title>
<g id="a_edge6"><a xlink:href="dir_000049_000077.html" target="_top">
<path fill="none" stroke="#63b8ff" d="M243.36,-400.73C233.69,-392.67 220.65,-379.74 215,-365 201.41,-329.54 224.4,-286.91 240.14,-263.67"/>
<polygon fill="#63b8ff" stroke="#63b8ff" points="243.19,-265.42 246.12,-255.24 237.48,-261.37 243.19,-265.42"/>
</a>
</g>
<g id="a_edge6&#45;headlabel"><a xlink:href="dir_000049_000077.html" target="_top" xlink:title="127">
<text text-anchor="middle" x="243.43" y="-267.49" font-family="Helvetica,sans-Serif" font-size="10.00" fill="#63b8ff">127</text>
</a>
</g>
</g>
<!-- dir_87b9f5c33f5a8f4d48db11d48f10a572 -->
<g id="node12" class="node">
<title>dir_87b9f5c33f5a8f4d48db11d48f10a572</title>
<g id="a_node12"><a xlink:href="dir_87b9f5c33f5a8f4d48db11d48f10a572.html" target="_top" xlink:title="modules">
<polygon fill="#a2b4d6" stroke="#404040" points="318.5,-145 259.5,-145 259.5,-126 318.5,-126 318.5,-145"/>
<text text-anchor="middle" x="289" y="-133" font-family="Helvetica,sans-Serif" font-size="10.00">modules</text>
</a>
</g>
</g>
<!-- dir_1e46d961eb277b2583ee5b095f5b4c8e&#45;&gt;dir_87b9f5c33f5a8f4d48db11d48f10a572 -->
<g id="edge4" class="edge">
<title>dir_1e46d961eb277b2583ee5b095f5b4c8e&#45;&gt;dir_87b9f5c33f5a8f4d48db11d48f10a572</title>
<g id="a_edge4"><a xlink:href="dir_000049_000082.html" target="_top">
<path fill="none" stroke="#63b8ff" d="M265.48,-400.81C275.12,-392.41 289.35,-378.93 299,-365 344.97,-298.62 357.71,-278.87 375,-200 376.81,-191.75 379.39,-188.21 375,-181 368.76,-170.74 342.7,-158.07 320.89,-148.88"/>
<polygon fill="#63b8ff" stroke="#63b8ff" points="322.14,-145.61 311.56,-145.05 319.48,-152.09 322.14,-145.61"/>
</a>
</g>
<g id="a_edge4&#45;headlabel"><a xlink:href="dir_000049_000082.html" target="_top" xlink:title="201">
<text text-anchor="middle" x="326.55" y="-141.85" font-family="Helvetica,sans-Serif" font-size="10.00" fill="#63b8ff">201</text>
</a>
</g>
</g>
<!-- dir_fff8ef54a646d9df8d7b15d27474569f -->
<g id="node13" class="node">
<title>dir_fff8ef54a646d9df8d7b15d27474569f</title>
<g id="a_node13"><a xlink:href="dir_fff8ef54a646d9df8d7b15d27474569f.html" target="_top" xlink:title="runtime">
<polygon fill="#a2b4d6" stroke="#404040" points="366.5,-200 311.5,-200 311.5,-181 366.5,-181 366.5,-200"/>
<text text-anchor="middle" x="339" y="-188" font-family="Helvetica,sans-Serif" font-size="10.00">runtime</text>
</a>
</g>
</g>
<!-- dir_1e46d961eb277b2583ee5b095f5b4c8e&#45;&gt;dir_fff8ef54a646d9df8d7b15d27474569f -->
<g id="edge7" class="edge">
<title>dir_1e46d961eb277b2583ee5b095f5b4c8e&#45;&gt;dir_fff8ef54a646d9df8d7b15d27474569f</title>
<g id="a_edge7"><a xlink:href="dir_000049_000093.html" target="_top">
<path fill="none" stroke="#63b8ff" d="M262.84,-400.83C270.32,-392.22 281.52,-378.42 289,-365 314.48,-319.29 318.31,-305.77 331,-255 334.67,-240.31 336.7,-223.26 337.8,-210.53"/>
<polygon fill="#63b8ff" stroke="#63b8ff" points="341.31,-210.48 338.56,-200.25 334.33,-209.96 341.31,-210.48"/>
</a>
</g>
<g id="a_edge7&#45;headlabel"><a xlink:href="dir_000049_000093.html" target="_top" xlink:title="196">
<text text-anchor="middle" x="343.88" y="-211.78" font-family="Helvetica,sans-Serif" font-size="10.00" fill="#63b8ff">196</text>
</a>
</g>
</g>
<!-- dir_417701c4e551058911a40fafc2072bfe -->
<g id="node14" class="node">
<title>dir_417701c4e551058911a40fafc2072bfe</title>
<g id="a_node14"><a xlink:href="dir_417701c4e551058911a40fafc2072bfe.html" target="_top" xlink:title="tooling">
<polygon fill="#a2b4d6" stroke="#404040" points="388,-365 338,-365 338,-346 388,-346 388,-365"/>
<text text-anchor="middle" x="363" y="-353" font-family="Helvetica,sans-Serif" font-size="10.00">tooling</text>
</a>
</g>
</g>
<!-- dir_1e46d961eb277b2583ee5b095f5b4c8e&#45;&gt;dir_417701c4e551058911a40fafc2072bfe -->
<g id="edge2" class="edge">
<title>dir_1e46d961eb277b2583ee5b095f5b4c8e&#45;&gt;dir_417701c4e551058911a40fafc2072bfe</title>
<g id="a_edge2"><a xlink:href="dir_000049_000125.html" target="_top">
<path fill="none" stroke="#63b8ff" d="M272.35,-400.98C289.57,-392.54 316.2,-379.47 336.15,-369.68"/>
<polygon fill="#63b8ff" stroke="#63b8ff" points="337.9,-372.72 345.33,-365.17 334.81,-366.43 337.9,-372.72"/>
</a>
</g>
<g id="a_edge2&#45;headlabel"><a xlink:href="dir_000049_000125.html" target="_top" xlink:title="1">
<text text-anchor="middle" x="335.92" y="-374.35" font-family="Helvetica,sans-Serif" font-size="10.00" fill="#63b8ff">1</text>
</a>
</g>
</g>
<!-- dir_a8f8c4b70d3587fcf7159bd2d30de216&#45;&gt;dir_268add6b94670641c68bb834cdcb4292 -->
<g id="edge12" class="edge">
<title>dir_a8f8c4b70d3587fcf7159bd2d30de216&#45;&gt;dir_268add6b94670641c68bb834cdcb4292</title>
<g id="a_edge12"><a xlink:href="dir_000010_000076.html" target="_top">
<path fill="none" stroke="#63b8ff" d="M280.09,-351.15C344.19,-342.51 510.58,-319.46 534,-310 579.73,-291.54 625,-295.82 625,-246.5 625,-246.5 625,-246.5 625,-134.5 625,-91.55 597.57,-83.81 560,-63 505.37,-32.74 430.87,-26.8 389.31,-26.07"/>
<polygon fill="#63b8ff" stroke="#63b8ff" points="389.27,-22.57 379.24,-25.98 389.21,-29.57 389.27,-22.57"/>
</a>
</g>
<g id="a_edge12&#45;headlabel"><a xlink:href="dir_000010_000076.html" target="_top" xlink:title="7">
<text text-anchor="middle" x="392.89" y="-17.26" font-family="Helvetica,sans-Serif" font-size="10.00" fill="#63b8ff">7</text>
</a>
</g>
</g>
<!-- dir_a8f8c4b70d3587fcf7159bd2d30de216&#45;&gt;dir_3e2f71566425d27b6ac8140f1223a941 -->
<g id="edge10" class="edge">
<title>dir_a8f8c4b70d3587fcf7159bd2d30de216&#45;&gt;dir_3e2f71566425d27b6ac8140f1223a941</title>
<g id="a_edge10"><a xlink:href="dir_000010_000137.html" target="_top">
<path fill="none" stroke="#63b8ff" d="M280.3,-351.6C335.48,-345 464.91,-328.07 505,-310 546.38,-291.34 585,-291.89 585,-246.5 585,-246.5 585,-246.5 585,-189.5 585,-154.56 563.18,-118.66 548.37,-98.31"/>
<polygon fill="#63b8ff" stroke="#63b8ff" points="550.99,-95.97 542.16,-90.11 545.41,-100.2 550.99,-95.97"/>
</a>
</g>
<g id="a_edge10&#45;headlabel"><a xlink:href="dir_000010_000137.html" target="_top" xlink:title="2">
<text text-anchor="middle" x="555.43" y="-94.62" font-family="Helvetica,sans-Serif" font-size="10.00" fill="#63b8ff">2</text>
</a>
</g>
</g>
<!-- dir_a8f8c4b70d3587fcf7159bd2d30de216&#45;&gt;dir_4e12247f2bbe360a59cd98a83515e8f1 -->
<g id="edge17" class="edge">
<title>dir_a8f8c4b70d3587fcf7159bd2d30de216&#45;&gt;dir_4e12247f2bbe360a59cd98a83515e8f1</title>
<g id="a_edge17"><a xlink:href="dir_000010_000040.html" target="_top">
<path fill="none" stroke="#63b8ff" d="M229.98,-354.41C168.87,-352.75 17,-339.29 17,-246.5 17,-246.5 17,-246.5 17,-134.5 17,-99.31 28.81,-90.31 51,-63 57.86,-54.56 67.06,-46.95 75.57,-40.9"/>
<polygon fill="#63b8ff" stroke="#63b8ff" points="77.72,-43.67 84.06,-35.18 73.81,-37.87 77.72,-43.67"/>
</a>
</g>
<g id="a_edge17&#45;headlabel"><a xlink:href="dir_000010_000040.html" target="_top" xlink:title="2">
<text text-anchor="middle" x="76.32" y="-45.54" font-family="Helvetica,sans-Serif" font-size="10.00" fill="#63b8ff">2</text>
</a>
</g>
</g>
<!-- dir_a8f8c4b70d3587fcf7159bd2d30de216&#45;&gt;dir_614bfcfaacae36fbea464e65a5a85120 -->
<g id="edge14" class="edge">
<title>dir_a8f8c4b70d3587fcf7159bd2d30de216&#45;&gt;dir_614bfcfaacae36fbea464e65a5a85120</title>
<g id="a_edge14"><a xlink:href="dir_000010_000092.html" target="_top">
<path fill="none" stroke="#63b8ff" d="M280.11,-351.27C353.91,-341.09 565,-306.7 565,-246.5 565,-246.5 565,-246.5 565,-189.5 565,-140.7 510.06,-109.6 471.89,-93.88"/>
<polygon fill="#63b8ff" stroke="#63b8ff" points="472.69,-90.43 462.11,-90.03 470.13,-96.95 472.69,-90.43"/>
</a>
</g>
<g id="a_edge14&#45;headlabel"><a xlink:href="dir_000010_000092.html" target="_top" xlink:title="3">
<text text-anchor="middle" x="477.08" y="-86.61" font-family="Helvetica,sans-Serif" font-size="10.00" fill="#63b8ff">3</text>
</a>
</g>
</g>
<!-- dir_a8f8c4b70d3587fcf7159bd2d30de216&#45;&gt;dir_dde1b4dbeafc450b8ae5525133d75a82 -->
<g id="edge13" class="edge">
<title>dir_a8f8c4b70d3587fcf7159bd2d30de216&#45;&gt;dir_dde1b4dbeafc450b8ae5525133d75a82</title>
<g id="a_edge13"><a xlink:href="dir_000010_000095.html" target="_top">
<path fill="none" stroke="#63b8ff" d="M229.92,-352.41C176.64,-346.46 57,-324.42 57,-246.5 57,-246.5 57,-246.5 57,-189.5 57,-155.46 75.35,-119.24 87.79,-98.59"/>
<polygon fill="#63b8ff" stroke="#63b8ff" points="90.81,-100.35 93.16,-90.02 84.88,-96.63 90.81,-100.35"/>
</a>
</g>
<g id="a_edge13&#45;headlabel"><a xlink:href="dir_000010_000095.html" target="_top" xlink:title="3">
<text text-anchor="middle" x="91.31" y="-102.4" font-family="Helvetica,sans-Serif" font-size="10.00" fill="#63b8ff">3</text>
</a>
</g>
</g>
<!-- dir_a8f8c4b70d3587fcf7159bd2d30de216&#45;&gt;dir_5a58a2ffe8660a7fc51fed7e0c7c898d -->
<g id="edge16" class="edge">
<title>dir_a8f8c4b70d3587fcf7159bd2d30de216&#45;&gt;dir_5a58a2ffe8660a7fc51fed7e0c7c898d</title>
<g id="a_edge16"><a xlink:href="dir_000010_000041.html" target="_top">
<path fill="none" stroke="#63b8ff" d="M242.55,-345.78C232.09,-337.75 217.66,-324.84 210,-310 187.27,-265.98 196.01,-249.38 192,-200 189.33,-167.14 188.05,-157.73 197,-126 199.63,-116.68 204.19,-106.97 208.47,-99.01"/>
<polygon fill="#63b8ff" stroke="#63b8ff" points="211.52,-100.73 213.42,-90.31 205.44,-97.27 211.52,-100.73"/>
</a>
</g>
<g id="a_edge16&#45;headlabel"><a xlink:href="dir_000010_000041.html" target="_top" xlink:title="6">
<text text-anchor="middle" x="212.21" y="-102.76" font-family="Helvetica,sans-Serif" font-size="10.00" fill="#63b8ff">6</text>
</a>
</g>
</g>
<!-- dir_a8f8c4b70d3587fcf7159bd2d30de216&#45;&gt;dir_1ca916e0b9fbc882dbfbd9e6594e5e22 -->
<g id="edge8" class="edge">
<title>dir_a8f8c4b70d3587fcf7159bd2d30de216&#45;&gt;dir_1ca916e0b9fbc882dbfbd9e6594e5e22</title>
<g id="a_edge8"><a xlink:href="dir_000010_000047.html" target="_top">
<path fill="none" stroke="#63b8ff" d="M257.81,-345.75C260.06,-338.72 263.3,-328.62 266.12,-319.84"/>
<polygon fill="#63b8ff" stroke="#63b8ff" points="269.52,-320.68 269.25,-310.09 262.86,-318.54 269.52,-320.68"/>
</a>
</g>
<g id="a_edge8&#45;headlabel"><a xlink:href="dir_000010_000047.html" target="_top" xlink:title="35">
<text text-anchor="middle" x="271.13" y="-322.47" font-family="Helvetica,sans-Serif" font-size="10.00" fill="#63b8ff">35</text>
</a>
</g>
</g>
<!-- dir_a8f8c4b70d3587fcf7159bd2d30de216&#45;&gt;dir_e1a38fd6dc0543c7f97fb1ccf1615de7 -->
<g id="edge11" class="edge">
<title>dir_a8f8c4b70d3587fcf7159bd2d30de216&#45;&gt;dir_e1a38fd6dc0543c7f97fb1ccf1615de7</title>
<g id="a_edge11"><a xlink:href="dir_000010_000077.html" target="_top">
<path fill="none" stroke="#63b8ff" d="M252.68,-345.71C250.46,-336.79 247.26,-322.55 246,-310 244.49,-294.96 246.58,-277.94 248.85,-265.31"/>
<polygon fill="#63b8ff" stroke="#63b8ff" points="252.36,-265.62 250.9,-255.12 245.5,-264.24 252.36,-265.62"/>
</a>
</g>
<g id="a_edge11&#45;headlabel"><a xlink:href="dir_000010_000077.html" target="_top" xlink:title="11">
<text text-anchor="middle" x="254.43" y="-267.2" font-family="Helvetica,sans-Serif" font-size="10.00" fill="#63b8ff">11</text>
</a>
</g>
</g>
<!-- dir_a8f8c4b70d3587fcf7159bd2d30de216&#45;&gt;dir_87b9f5c33f5a8f4d48db11d48f10a572 -->
<g id="edge9" class="edge">
<title>dir_a8f8c4b70d3587fcf7159bd2d30de216&#45;&gt;dir_87b9f5c33f5a8f4d48db11d48f10a572</title>
<g id="a_edge9"><a xlink:href="dir_000010_000082.html" target="_top">
<path fill="none" stroke="#63b8ff" d="M247.25,-345.95C230.66,-326.54 194.34,-277.63 209,-236 221.24,-201.24 251.32,-169.67 270.91,-151.8"/>
<polygon fill="#63b8ff" stroke="#63b8ff" points="273.41,-154.26 278.58,-145.01 268.77,-149.02 273.41,-154.26"/>
</a>
</g>
<g id="a_edge9&#45;headlabel"><a xlink:href="dir_000010_000082.html" target="_top" xlink:title="22">
<text text-anchor="middle" x="272.6" y="-156.27" font-family="Helvetica,sans-Serif" font-size="10.00" fill="#63b8ff">22</text>
</a>
</g>
</g>
<!-- dir_a8f8c4b70d3587fcf7159bd2d30de216&#45;&gt;dir_fff8ef54a646d9df8d7b15d27474569f -->
<g id="edge18" class="edge">
<title>dir_a8f8c4b70d3587fcf7159bd2d30de216&#45;&gt;dir_fff8ef54a646d9df8d7b15d27474569f</title>
<g id="a_edge18"><a xlink:href="dir_000010_000093.html" target="_top">
<path fill="none" stroke="#63b8ff" d="M264.99,-345.73C274.18,-337.27 287.76,-323.76 297,-310 318.23,-278.41 330.02,-234.87 335.39,-210.32"/>
<polygon fill="#63b8ff" stroke="#63b8ff" points="338.88,-210.71 337.46,-200.21 332.02,-209.3 338.88,-210.71"/>
</a>
</g>
<g id="a_edge18&#45;headlabel"><a xlink:href="dir_000010_000093.html" target="_top" xlink:title="1">
<text text-anchor="middle" x="340.94" y="-212.3" font-family="Helvetica,sans-Serif" font-size="10.00" fill="#63b8ff">1</text>
</a>
</g>
</g>
<!-- dir_c65593c1e2ce5122a06a0735d96badb1 -->
<g id="node15" class="node">
<title>dir_c65593c1e2ce5122a06a0735d96badb1</title>
<g id="a_node15"><a xlink:href="dir_c65593c1e2ce5122a06a0735d96badb1.html" target="_top" xlink:title="ext">
<polygon fill="#edf0f7" stroke="red" stroke-dasharray="5,2" points="676,-310 644,-310 644,-291 676,-291 676,-310"/>
<text text-anchor="middle" x="660" y="-298" font-family="Helvetica,sans-Serif" font-size="10.00">ext</text>
</a>
</g>
</g>
<!-- dir_a8f8c4b70d3587fcf7159bd2d30de216&#45;&gt;dir_c65593c1e2ce5122a06a0735d96badb1 -->
<g id="edge15" class="edge">
<title>dir_a8f8c4b70d3587fcf7159bd2d30de216&#45;&gt;dir_c65593c1e2ce5122a06a0735d96badb1</title>
<g id="a_edge15"><a xlink:href="dir_000010_000056.html" target="_top">
<path fill="none" stroke="#63b8ff" d="M280.26,-351.59C356.64,-342.77 582.77,-316.66 633.72,-309.81"/>
<polygon fill="#63b8ff" stroke="#63b8ff" points="634.45,-313.24 643.81,-308.28 633.4,-306.32 634.45,-313.24"/>
</a>
</g>
<g id="a_edge15&#45;headlabel"><a xlink:href="dir_000010_000056.html" target="_top" xlink:title="2">
<text text-anchor="middle" x="631.32" y="-314.09" font-family="Helvetica,sans-Serif" font-size="10.00" fill="#63b8ff">2</text>
</a>
</g>
</g>
<!-- dir_5a58a2ffe8660a7fc51fed7e0c7c898d&#45;&gt;dir_268add6b94670641c68bb834cdcb4292 -->
<g id="edge20" class="edge">
<title>dir_5a58a2ffe8660a7fc51fed7e0c7c898d&#45;&gt;dir_268add6b94670641c68bb834cdcb4292</title>
<g id="a_edge20"><a xlink:href="dir_000041_000076.html" target="_top">
<path fill="none" stroke="#63b8ff" d="M229.78,-70.69C233.49,-67.96 237.78,-65.11 242,-63 269.31,-49.35 302.78,-39.47 326.73,-33.46"/>
<polygon fill="#63b8ff" stroke="#63b8ff" points="327.8,-36.81 336.69,-31.05 326.15,-30 327.8,-36.81"/>
</a>
</g>
<g id="a_edge20&#45;headlabel"><a xlink:href="dir_000041_000076.html" target="_top" xlink:title="1">
<text text-anchor="middle" x="324.97" y="-37.91" font-family="Helvetica,sans-Serif" font-size="10.00" fill="#63b8ff">1</text>
</a>
</g>
</g>
<!-- dir_5a58a2ffe8660a7fc51fed7e0c7c898d&#45;&gt;dir_4e12247f2bbe360a59cd98a83515e8f1 -->
<g id="edge19" class="edge">
<title>dir_5a58a2ffe8660a7fc51fed7e0c7c898d&#45;&gt;dir_4e12247f2bbe360a59cd98a83515e8f1</title>
<g id="a_edge19"><a xlink:href="dir_000041_000040.html" target="_top">
<path fill="none" stroke="#63b8ff" d="M208.15,-70.83C204.43,-68.1 200.16,-65.22 196,-63 174.11,-51.29 147.65,-41.6 127.89,-35.16"/>
<polygon fill="#63b8ff" stroke="#63b8ff" points="128.82,-31.78 118.23,-32.09 126.7,-38.45 128.82,-31.78"/>
</a>
</g>
<g id="a_edge19&#45;headlabel"><a xlink:href="dir_000041_000040.html" target="_top" xlink:title="14">
<text text-anchor="middle" x="133.11" y="-27.66" font-family="Helvetica,sans-Serif" font-size="10.00" fill="#63b8ff">14</text>
</a>
</g>
</g>
<!-- dir_1ca916e0b9fbc882dbfbd9e6594e5e22&#45;&gt;dir_3e2f71566425d27b6ac8140f1223a941 -->
<g id="edge21" class="edge">
<title>dir_1ca916e0b9fbc882dbfbd9e6594e5e22&#45;&gt;dir_3e2f71566425d27b6ac8140f1223a941</title>
<g id="a_edge21"><a xlink:href="dir_000047_000137.html" target="_top">
<path fill="none" stroke="#63b8ff" d="M288.81,-292.35C341.63,-269.87 500.87,-201.99 503,-200 523.01,-181.24 523.77,-171.46 531,-145 534.97,-130.48 535.85,-113.42 535.8,-100.65"/>
<polygon fill="#63b8ff" stroke="#63b8ff" points="539.29,-100.23 535.56,-90.31 532.29,-100.39 539.29,-100.23"/>
</a>
</g>
<g id="a_edge21&#45;headlabel"><a xlink:href="dir_000047_000137.html" target="_top" xlink:title="1">
<text text-anchor="middle" x="542.21" y="-101.25" font-family="Helvetica,sans-Serif" font-size="10.00" fill="#63b8ff">1</text>
</a>
</g>
</g>
<!-- dir_1ca916e0b9fbc882dbfbd9e6594e5e22&#45;&gt;dir_4e12247f2bbe360a59cd98a83515e8f1 -->
<g id="edge22" class="edge">
<title>dir_1ca916e0b9fbc882dbfbd9e6594e5e22&#45;&gt;dir_4e12247f2bbe360a59cd98a83515e8f1</title>
<g id="a_edge22"><a xlink:href="dir_000047_000040.html" target="_top">
<path fill="none" stroke="#63b8ff" d="M255.23,-292.54C215.2,-274.89 114.53,-224.07 76,-145 59.77,-111.69 46.48,-97.08 61,-63 64.48,-54.83 70.78,-47.61 77.26,-41.8"/>
<polygon fill="#63b8ff" stroke="#63b8ff" points="79.82,-44.23 85.38,-35.21 75.41,-38.8 79.82,-44.23"/>
</a>
</g>
<g id="a_edge22&#45;headlabel"><a xlink:href="dir_000047_000040.html" target="_top" xlink:title="2">
<text text-anchor="middle" x="78.82" y="-46.2" font-family="Helvetica,sans-Serif" font-size="10.00" fill="#63b8ff">2</text>
</a>
</g>
</g>
<!-- dir_1ca916e0b9fbc882dbfbd9e6594e5e22&#45;&gt;dir_5a58a2ffe8660a7fc51fed7e0c7c898d -->
<g id="edge23" class="edge">
<title>dir_1ca916e0b9fbc882dbfbd9e6594e5e22&#45;&gt;dir_5a58a2ffe8660a7fc51fed7e0c7c898d</title>
<g id="a_edge23"><a xlink:href="dir_000047_000041.html" target="_top">
<path fill="none" stroke="#63b8ff" d="M255.36,-293.06C240.17,-286.18 218.67,-273.67 209,-255 182.57,-203.97 201,-132.83 212.17,-99.75"/>
<polygon fill="#63b8ff" stroke="#63b8ff" points="215.56,-100.68 215.61,-90.08 208.96,-98.33 215.56,-100.68"/>
</a>
</g>
<g id="a_edge23&#45;headlabel"><a xlink:href="dir_000047_000041.html" target="_top" xlink:title="8">
<text text-anchor="middle" x="217.03" y="-102.51" font-family="Helvetica,sans-Serif" font-size="10.00" fill="#63b8ff">8</text>
</a>
</g>
</g>
<!-- dir_1ca916e0b9fbc882dbfbd9e6594e5e22&#45;&gt;dir_e1a38fd6dc0543c7f97fb1ccf1615de7 -->
<g id="edge24" class="edge">
<title>dir_1ca916e0b9fbc882dbfbd9e6594e5e22&#45;&gt;dir_e1a38fd6dc0543c7f97fb1ccf1615de7</title>
<g id="a_edge24"><a xlink:href="dir_000047_000077.html" target="_top">
<path fill="none" stroke="#63b8ff" d="M263.7,-290.75C259.71,-283.8 255.71,-273.85 253.2,-265.13"/>
<polygon fill="#63b8ff" stroke="#63b8ff" points="256.55,-264.08 250.95,-255.09 249.72,-265.61 256.55,-264.08"/>
</a>
</g>
<g id="a_edge24&#45;headlabel"><a xlink:href="dir_000047_000077.html" target="_top" xlink:title="2">
<text text-anchor="middle" x="260.11" y="-264.47" font-family="Helvetica,sans-Serif" font-size="10.00" fill="#63b8ff">2</text>
</a>
</g>
</g>
<!-- dir_1ca916e0b9fbc882dbfbd9e6594e5e22&#45;&gt;dir_fff8ef54a646d9df8d7b15d27474569f -->
<g id="edge25" class="edge">
<title>dir_1ca916e0b9fbc882dbfbd9e6594e5e22&#45;&gt;dir_fff8ef54a646d9df8d7b15d27474569f</title>
<g id="a_edge25"><a xlink:href="dir_000047_000093.html" target="_top">
<path fill="none" stroke="#63b8ff" d="M274.59,-290.69C281.35,-282.2 294.29,-268.67 303,-255 312.23,-240.51 319.59,-222.32 325.87,-209.13"/>
<polygon fill="#63b8ff" stroke="#63b8ff" points="329.02,-210.65 330.47,-200.16 322.79,-207.46 329.02,-210.65"/>
</a>
</g>
<g id="a_edge25&#45;headlabel"><a xlink:href="dir_000047_000093.html" target="_top" xlink:title="2">
<text text-anchor="middle" x="329.91" y="-212.65" font-family="Helvetica,sans-Serif" font-size="10.00" fill="#63b8ff">2</text>
</a>
</g>
</g>
<!-- dir_e1a38fd6dc0543c7f97fb1ccf1615de7&#45;&gt;dir_268add6b94670641c68bb834cdcb4292 -->
<g id="edge27" class="edge">
<title>dir_e1a38fd6dc0543c7f97fb1ccf1615de7&#45;&gt;dir_268add6b94670641c68bb834cdcb4292</title>
<g id="a_edge27"><a xlink:href="dir_000077_000076.html" target="_top">
<path fill="none" stroke="#63b8ff" d="M281.82,-235.92C307,-227.97 344.24,-215.11 375,-200 416.06,-179.82 434.8,-181.78 462,-145 484.03,-115.21 499.02,-92.79 477,-63 457.07,-36.04 417.57,-28.35 389.56,-26.48"/>
<polygon fill="#63b8ff" stroke="#63b8ff" points="389.6,-22.98 379.45,-26.02 389.28,-29.97 389.6,-22.98"/>
</a>
</g>
<g id="a_edge27&#45;headlabel"><a xlink:href="dir_000077_000076.html" target="_top" xlink:title="12">
<text text-anchor="middle" x="393.32" y="-17.8" font-family="Helvetica,sans-Serif" font-size="10.00" fill="#63b8ff">12</text>
</a>
</g>
</g>
<!-- dir_e1a38fd6dc0543c7f97fb1ccf1615de7&#45;&gt;dir_3e2f71566425d27b6ac8140f1223a941 -->
<g id="edge28" class="edge">
<title>dir_e1a38fd6dc0543c7f97fb1ccf1615de7&#45;&gt;dir_3e2f71566425d27b6ac8140f1223a941</title>
<g id="a_edge28"><a xlink:href="dir_000077_000137.html" target="_top">
<path fill="none" stroke="#63b8ff" d="M287.78,-236.66C288.86,-236.44 289.94,-236.21 291,-236 379.1,-218.19 420.88,-257.45 490,-200 520.22,-174.88 530.18,-127.15 533.43,-100.57"/>
<polygon fill="#63b8ff" stroke="#63b8ff" points="536.95,-100.61 534.48,-90.3 529.99,-99.89 536.95,-100.61"/>
</a>
</g>
<g id="a_edge28&#45;headlabel"><a xlink:href="dir_000077_000137.html" target="_top" xlink:title="8">
<text text-anchor="middle" x="539.41" y="-101.97" font-family="Helvetica,sans-Serif" font-size="10.00" fill="#63b8ff">8</text>
</a>
</g>
</g>
<!-- dir_e1a38fd6dc0543c7f97fb1ccf1615de7&#45;&gt;dir_4e12247f2bbe360a59cd98a83515e8f1 -->
<g id="edge29" class="edge">
<title>dir_e1a38fd6dc0543c7f97fb1ccf1615de7&#45;&gt;dir_4e12247f2bbe360a59cd98a83515e8f1</title>
<g id="a_edge29"><a xlink:href="dir_000077_000040.html" target="_top">
<path fill="none" stroke="#63b8ff" d="M219.65,-235.93C196.76,-228.9 166.56,-217.26 144,-200 96.61,-163.74 83.68,-147.3 67,-90 63.64,-78.48 62.77,-74.23 67,-63 69.9,-55.3 75.24,-48.16 80.74,-42.28"/>
<polygon fill="#63b8ff" stroke="#63b8ff" points="83.39,-44.59 88.12,-35.1 78.51,-39.57 83.39,-44.59"/>
</a>
</g>
<g id="a_edge29&#45;headlabel"><a xlink:href="dir_000077_000040.html" target="_top" xlink:title="11">
<text text-anchor="middle" x="82.79" y="-46.63" font-family="Helvetica,sans-Serif" font-size="10.00" fill="#63b8ff">11</text>
</a>
</g>
</g>
<!-- dir_e1a38fd6dc0543c7f97fb1ccf1615de7&#45;&gt;dir_dde1b4dbeafc450b8ae5525133d75a82 -->
<g id="edge33" class="edge">
<title>dir_e1a38fd6dc0543c7f97fb1ccf1615de7&#45;&gt;dir_dde1b4dbeafc450b8ae5525133d75a82</title>
<g id="a_edge33"><a xlink:href="dir_000077_000095.html" target="_top">
<path fill="none" stroke="#63b8ff" d="M233.17,-235.96C202.6,-221.74 144.33,-190.23 114,-145 105.03,-131.62 101.4,-113.52 99.94,-100.06"/>
<polygon fill="#63b8ff" stroke="#63b8ff" points="103.43,-99.75 99.16,-90.06 96.45,-100.3 103.43,-99.75"/>
</a>
</g>
<g id="a_edge33&#45;headlabel"><a xlink:href="dir_000077_000095.html" target="_top" xlink:title="1">
<text text-anchor="middle" x="106.54" y="-100.62" font-family="Helvetica,sans-Serif" font-size="10.00" fill="#63b8ff">1</text>
</a>
</g>
</g>
<!-- dir_e1a38fd6dc0543c7f97fb1ccf1615de7&#45;&gt;dir_5a58a2ffe8660a7fc51fed7e0c7c898d -->
<g id="edge30" class="edge">
<title>dir_e1a38fd6dc0543c7f97fb1ccf1615de7&#45;&gt;dir_5a58a2ffe8660a7fc51fed7e0c7c898d</title>
<g id="a_edge30"><a xlink:href="dir_000077_000041.html" target="_top">
<path fill="none" stroke="#63b8ff" d="M251.17,-235.74C245.85,-210.2 230.25,-135.43 222.91,-100.23"/>
<polygon fill="#63b8ff" stroke="#63b8ff" points="226.31,-99.38 220.84,-90.31 219.45,-100.81 226.31,-99.38"/>
</a>
</g>
<g id="a_edge30&#45;headlabel"><a xlink:href="dir_000077_000041.html" target="_top" xlink:title="17">
<text text-anchor="middle" x="229.82" y="-99.82" font-family="Helvetica,sans-Serif" font-size="10.00" fill="#63b8ff">17</text>
</a>
</g>
</g>
<!-- dir_e1a38fd6dc0543c7f97fb1ccf1615de7&#45;&gt;dir_1ca916e0b9fbc882dbfbd9e6594e5e22 -->
<g id="edge26" class="edge">
<title>dir_e1a38fd6dc0543c7f97fb1ccf1615de7&#45;&gt;dir_1ca916e0b9fbc882dbfbd9e6594e5e22</title>
<g id="a_edge26"><a xlink:href="dir_000077_000047.html" target="_top">
<path fill="none" stroke="#63b8ff" d="M261.21,-255.09C265.24,-262.06 269.3,-272.15 271.82,-280.95"/>
<polygon fill="#63b8ff" stroke="#63b8ff" points="268.42,-281.76 274.03,-290.75 275.25,-280.22 268.42,-281.76"/>
</a>
</g>
<g id="a_edge26&#45;headlabel"><a xlink:href="dir_000077_000047.html" target="_top" xlink:title="30">
<text text-anchor="middle" x="264.86" y="-276.38" font-family="Helvetica,sans-Serif" font-size="10.00" fill="#63b8ff">30</text>
</a>
</g>
</g>
<!-- dir_e1a38fd6dc0543c7f97fb1ccf1615de7&#45;&gt;dir_87b9f5c33f5a8f4d48db11d48f10a572 -->
<g id="edge31" class="edge">
<title>dir_e1a38fd6dc0543c7f97fb1ccf1615de7&#45;&gt;dir_87b9f5c33f5a8f4d48db11d48f10a572</title>
<g id="a_edge31"><a xlink:href="dir_000077_000082.html" target="_top">
<path fill="none" stroke="#63b8ff" d="M252.03,-235.66C254.64,-217.93 267.62,-177.73 277.9,-154.32"/>
<polygon fill="#63b8ff" stroke="#63b8ff" points="281.12,-155.69 282.24,-145.16 274.79,-152.7 281.12,-155.69"/>
</a>
</g>
<g id="a_edge31&#45;headlabel"><a xlink:href="dir_000077_000082.html" target="_top" xlink:title="23">
<text text-anchor="middle" x="282.14" y="-157.66" font-family="Helvetica,sans-Serif" font-size="10.00" fill="#63b8ff">23</text>
</a>
</g>
</g>
<!-- dir_e1a38fd6dc0543c7f97fb1ccf1615de7&#45;&gt;dir_fff8ef54a646d9df8d7b15d27474569f -->
<g id="edge32" class="edge">
<title>dir_e1a38fd6dc0543c7f97fb1ccf1615de7&#45;&gt;dir_fff8ef54a646d9df8d7b15d27474569f</title>
<g id="a_edge32"><a xlink:href="dir_000077_000093.html" target="_top">
<path fill="none" stroke="#63b8ff" d="M261.7,-235.98C273.33,-227.69 293.72,-214.94 310.75,-205.22"/>
<polygon fill="#63b8ff" stroke="#63b8ff" points="312.76,-208.1 319.78,-200.17 309.35,-201.99 312.76,-208.1"/>
</a>
</g>
<g id="a_edge32&#45;headlabel"><a xlink:href="dir_000077_000093.html" target="_top" xlink:title="47">
<text text-anchor="middle" x="311" y="-209.83" font-family="Helvetica,sans-Serif" font-size="10.00" fill="#63b8ff">47</text>
</a>
</g>
</g>
<!-- dir_87b9f5c33f5a8f4d48db11d48f10a572&#45;&gt;dir_268add6b94670641c68bb834cdcb4292 -->
<g id="edge35" class="edge">
<title>dir_87b9f5c33f5a8f4d48db11d48f10a572&#45;&gt;dir_268add6b94670641c68bb834cdcb4292</title>
<g id="a_edge35"><a xlink:href="dir_000082_000076.html" target="_top">
<path fill="none" stroke="#63b8ff" d="M294.65,-125.66C306.08,-107.77 332.12,-67 347.02,-43.69"/>
<polygon fill="#63b8ff" stroke="#63b8ff" points="350.03,-45.47 352.47,-35.16 344.13,-41.7 350.03,-45.47"/>
</a>
</g>
<g id="a_edge35&#45;headlabel"><a xlink:href="dir_000082_000076.html" target="_top" xlink:title="30">
<text text-anchor="middle" x="350.49" y="-47.53" font-family="Helvetica,sans-Serif" font-size="10.00" fill="#63b8ff">30</text>
</a>
</g>
</g>
<!-- dir_87b9f5c33f5a8f4d48db11d48f10a572&#45;&gt;dir_3e2f71566425d27b6ac8140f1223a941 -->
<g id="edge36" class="edge">
<title>dir_87b9f5c33f5a8f4d48db11d48f10a572&#45;&gt;dir_3e2f71566425d27b6ac8140f1223a941</title>
<g id="a_edge36"><a xlink:href="dir_000082_000137.html" target="_top">
<path fill="none" stroke="#63b8ff" d="M318.84,-126.75C319.91,-126.49 320.96,-126.24 322,-126 389.07,-110.37 468.62,-94.43 508.87,-86.56"/>
<polygon fill="#63b8ff" stroke="#63b8ff" points="509.77,-89.95 518.91,-84.6 508.43,-83.08 509.77,-89.95"/>
</a>
</g>
<g id="a_edge36&#45;headlabel"><a xlink:href="dir_000082_000137.html" target="_top" xlink:title="7">
<text text-anchor="middle" x="506.78" y="-90.92" font-family="Helvetica,sans-Serif" font-size="10.00" fill="#63b8ff">7</text>
</a>
</g>
</g>
<!-- dir_87b9f5c33f5a8f4d48db11d48f10a572&#45;&gt;dir_4e12247f2bbe360a59cd98a83515e8f1 -->
<g id="edge37" class="edge">
<title>dir_87b9f5c33f5a8f4d48db11d48f10a572&#45;&gt;dir_4e12247f2bbe360a59cd98a83515e8f1</title>
<g id="a_edge37"><a xlink:href="dir_000082_000040.html" target="_top">
<path fill="none" stroke="#63b8ff" d="M267.04,-125.85C246.81,-117.57 216.2,-104.27 191,-90 164.73,-75.13 136.42,-54.88 118.25,-41.29"/>
<polygon fill="#63b8ff" stroke="#63b8ff" points="120.28,-38.44 110.19,-35.2 116.06,-44.02 120.28,-38.44"/>
</a>
</g>
<g id="a_edge37&#45;headlabel"><a xlink:href="dir_000082_000040.html" target="_top" xlink:title="10">
<text text-anchor="middle" x="124.86" y="-35.84" font-family="Helvetica,sans-Serif" font-size="10.00" fill="#63b8ff">10</text>
</a>
</g>
</g>
<!-- dir_87b9f5c33f5a8f4d48db11d48f10a572&#45;&gt;dir_614bfcfaacae36fbea464e65a5a85120 -->
<g id="edge39" class="edge">
<title>dir_87b9f5c33f5a8f4d48db11d48f10a572&#45;&gt;dir_614bfcfaacae36fbea464e65a5a85120</title>
<g id="a_edge39"><a xlink:href="dir_000082_000092.html" target="_top">
<path fill="none" stroke="#63b8ff" d="M312.62,-125.98C336.9,-117.23 374.95,-103.51 402.37,-93.62"/>
<polygon fill="#63b8ff" stroke="#63b8ff" points="403.73,-96.85 411.95,-90.17 401.36,-90.27 403.73,-96.85"/>
</a>
</g>
<g id="a_edge39&#45;headlabel"><a xlink:href="dir_000082_000092.html" target="_top" xlink:title="2">
<text text-anchor="middle" x="401.31" y="-98.24" font-family="Helvetica,sans-Serif" font-size="10.00" fill="#63b8ff">2</text>
</a>
</g>
</g>
<!-- dir_87b9f5c33f5a8f4d48db11d48f10a572&#45;&gt;dir_dde1b4dbeafc450b8ae5525133d75a82 -->
<g id="edge40" class="edge">
<title>dir_87b9f5c33f5a8f4d48db11d48f10a572&#45;&gt;dir_dde1b4dbeafc450b8ae5525133d75a82</title>
<g id="a_edge40"><a xlink:href="dir_000082_000095.html" target="_top">
<path fill="none" stroke="#63b8ff" d="M259.46,-126.8C228.84,-118.74 179.35,-105.49 131.52,-91.59"/>
<polygon fill="#63b8ff" stroke="#63b8ff" points="132.25,-88.15 121.67,-88.71 130.28,-94.87 132.25,-88.15"/>
</a>
</g>
<g id="a_edge40&#45;headlabel"><a xlink:href="dir_000082_000095.html" target="_top" xlink:title="4">
<text text-anchor="middle" x="136.49" y="-83.94" font-family="Helvetica,sans-Serif" font-size="10.00" fill="#63b8ff">4</text>
</a>
</g>
</g>
<!-- dir_87b9f5c33f5a8f4d48db11d48f10a572&#45;&gt;dir_5a58a2ffe8660a7fc51fed7e0c7c898d -->
<g id="edge38" class="edge">
<title>dir_87b9f5c33f5a8f4d48db11d48f10a572&#45;&gt;dir_5a58a2ffe8660a7fc51fed7e0c7c898d</title>
<g id="a_edge38"><a xlink:href="dir_000082_000041.html" target="_top">
<path fill="none" stroke="#63b8ff" d="M277.75,-125.98C267.2,-118 251.2,-105.88 238.56,-96.31"/>
<polygon fill="#63b8ff" stroke="#63b8ff" points="240.54,-93.42 230.45,-90.17 236.31,-99 240.54,-93.42"/>
</a>
</g>
<g id="a_edge38&#45;headlabel"><a xlink:href="dir_000082_000041.html" target="_top" xlink:title="11">
<text text-anchor="middle" x="245.12" y="-90.82" font-family="Helvetica,sans-Serif" font-size="10.00" fill="#63b8ff">11</text>
</a>
</g>
</g>
<!-- dir_87b9f5c33f5a8f4d48db11d48f10a572&#45;&gt;dir_1ca916e0b9fbc882dbfbd9e6594e5e22 -->
<g id="edge34" class="edge">
<title>dir_87b9f5c33f5a8f4d48db11d48f10a572&#45;&gt;dir_1ca916e0b9fbc882dbfbd9e6594e5e22</title>
<g id="a_edge34"><a xlink:href="dir_000082_000047.html" target="_top">
<path fill="none" stroke="#63b8ff" d="M291.31,-145.29C296.14,-165.19 306.09,-215.04 296,-255 293.59,-264.56 288.67,-274.3 283.91,-282.22"/>
<polygon fill="#63b8ff" stroke="#63b8ff" points="280.83,-280.54 278.37,-290.84 286.72,-284.32 280.83,-280.54"/>
</a>
</g>
<g id="a_edge34&#45;headlabel"><a xlink:href="dir_000082_000047.html" target="_top" xlink:title="47">
<text text-anchor="middle" x="280.39" y="-273.48" font-family="Helvetica,sans-Serif" font-size="10.00" fill="#63b8ff">47</text>
</a>
</g>
</g>
<!-- dir_87b9f5c33f5a8f4d48db11d48f10a572&#45;&gt;dir_e1a38fd6dc0543c7f97fb1ccf1615de7 -->
<g id="edge42" class="edge">
<title>dir_87b9f5c33f5a8f4d48db11d48f10a572&#45;&gt;dir_e1a38fd6dc0543c7f97fb1ccf1615de7</title>
<g id="a_edge42"><a xlink:href="dir_000082_000077.html" target="_top">
<path fill="none" stroke="#63b8ff" d="M289.99,-145.16C287.46,-162.73 274.5,-202.92 264.21,-226.44"/>
<polygon fill="#63b8ff" stroke="#63b8ff" points="260.96,-225.12 259.86,-235.66 267.29,-228.11 260.96,-225.12"/>
</a>
</g>
<g id="a_edge42&#45;headlabel"><a xlink:href="dir_000082_000077.html" target="_top" xlink:title="17">
<text text-anchor="middle" x="259.93" y="-218.16" font-family="Helvetica,sans-Serif" font-size="10.00" fill="#63b8ff">17</text>
</a>
</g>
</g>
<!-- dir_87b9f5c33f5a8f4d48db11d48f10a572&#45;&gt;dir_fff8ef54a646d9df8d7b15d27474569f -->
<g id="edge41" class="edge">
<title>dir_87b9f5c33f5a8f4d48db11d48f10a572&#45;&gt;dir_fff8ef54a646d9df8d7b15d27474569f</title>
<g id="a_edge41"><a xlink:href="dir_000082_000093.html" target="_top">
<path fill="none" stroke="#63b8ff" d="M302.23,-145.09C310.88,-152.52 321.63,-163.5 329.46,-172.67"/>
<polygon fill="#63b8ff" stroke="#63b8ff" points="326.93,-175.12 335.91,-180.75 332.4,-170.75 326.93,-175.12"/>
</a>
</g>
<g id="a_edge41&#45;headlabel"><a xlink:href="dir_000082_000093.html" target="_top" xlink:title="38">
<text text-anchor="middle" x="322.47" y="-171.58" font-family="Helvetica,sans-Serif" font-size="10.00" fill="#63b8ff">38</text>
</a>
</g>
</g>
<!-- dir_fff8ef54a646d9df8d7b15d27474569f&#45;&gt;dir_268add6b94670641c68bb834cdcb4292 -->
<g id="edge44" class="edge">
<title>dir_fff8ef54a646d9df8d7b15d27474569f&#45;&gt;dir_268add6b94670641c68bb834cdcb4292</title>
<g id="a_edge44"><a xlink:href="dir_000093_000076.html" target="_top">
<path fill="none" stroke="#63b8ff" d="M340.02,-180.74C342.99,-155.31 351.64,-81.08 355.76,-45.69"/>
<polygon fill="#63b8ff" stroke="#63b8ff" points="359.29,-45.64 356.97,-35.31 352.34,-44.83 359.29,-45.64"/>
</a>
</g>
<g id="a_edge44&#45;headlabel"><a xlink:href="dir_000093_000076.html" target="_top" xlink:title="12">
<text text-anchor="middle" x="361.7" y="-47.04" font-family="Helvetica,sans-Serif" font-size="10.00" fill="#63b8ff">12</text>
</a>
</g>
</g>
<!-- dir_fff8ef54a646d9df8d7b15d27474569f&#45;&gt;dir_3e2f71566425d27b6ac8140f1223a941 -->
<g id="edge45" class="edge">
<title>dir_fff8ef54a646d9df8d7b15d27474569f&#45;&gt;dir_3e2f71566425d27b6ac8140f1223a941</title>
<g id="a_edge45"><a xlink:href="dir_000093_000137.html" target="_top">
<path fill="none" stroke="#63b8ff" d="M366.23,-180.94C397.15,-171 445.46,-154.73 462,-145 484.27,-131.9 506.13,-111.62 520.04,-97.52"/>
<polygon fill="#63b8ff" stroke="#63b8ff" points="522.83,-99.66 527.25,-90.03 517.79,-94.8 522.83,-99.66"/>
</a>
</g>
<g id="a_edge45&#45;headlabel"><a xlink:href="dir_000093_000137.html" target="_top" xlink:title="16">
<text text-anchor="middle" x="522.39" y="-101.72" font-family="Helvetica,sans-Serif" font-size="10.00" fill="#63b8ff">16</text>
</a>
</g>
</g>
<!-- dir_fff8ef54a646d9df8d7b15d27474569f&#45;&gt;dir_4e12247f2bbe360a59cd98a83515e8f1 -->
<g id="edge46" class="edge">
<title>dir_fff8ef54a646d9df8d7b15d27474569f&#45;&gt;dir_4e12247f2bbe360a59cd98a83515e8f1</title>
<g id="a_edge46"><a xlink:href="dir_000093_000040.html" target="_top">
<path fill="none" stroke="#63b8ff" d="M311.4,-180.89C271.01,-167.15 195.27,-136.93 146,-90 135.9,-80.38 138.1,-74.36 130,-63 125.09,-56.11 119.18,-48.93 113.85,-42.78"/>
<polygon fill="#63b8ff" stroke="#63b8ff" points="116.34,-40.31 107.08,-35.16 111.1,-44.96 116.34,-40.31"/>
</a>
</g>
<g id="a_edge46&#45;headlabel"><a xlink:href="dir_000093_000040.html" target="_top" xlink:title="4">
<text text-anchor="middle" x="120.85" y="-38.62" font-family="Helvetica,sans-Serif" font-size="10.00" fill="#63b8ff">4</text>
</a>
</g>
</g>
<!-- dir_fff8ef54a646d9df8d7b15d27474569f&#45;&gt;dir_614bfcfaacae36fbea464e65a5a85120 -->
<g id="edge48" class="edge">
<title>dir_fff8ef54a646d9df8d7b15d27474569f&#45;&gt;dir_614bfcfaacae36fbea464e65a5a85120</title>
<g id="a_edge48"><a xlink:href="dir_000093_000092.html" target="_top">
<path fill="none" stroke="#63b8ff" d="M366.01,-180.92C398.6,-170.31 449.72,-152.69 455,-145 464.64,-130.98 456.8,-111.97 448.46,-98.41"/>
<polygon fill="#63b8ff" stroke="#63b8ff" points="451.31,-96.37 442.82,-90.02 445.5,-100.27 451.31,-96.37"/>
</a>
</g>
<g id="a_edge48&#45;headlabel"><a xlink:href="dir_000093_000092.html" target="_top" xlink:title="2">
<text text-anchor="middle" x="455.67" y="-95.26" font-family="Helvetica,sans-Serif" font-size="10.00" fill="#63b8ff">2</text>
</a>
</g>
</g>
<!-- dir_fff8ef54a646d9df8d7b15d27474569f&#45;&gt;dir_dde1b4dbeafc450b8ae5525133d75a82 -->
<g id="edge52" class="edge">
<title>dir_fff8ef54a646d9df8d7b15d27474569f&#45;&gt;dir_dde1b4dbeafc450b8ae5525133d75a82</title>
<g id="a_edge52"><a xlink:href="dir_000093_000095.html" target="_top">
<path fill="none" stroke="#63b8ff" d="M311.45,-182.08C309.94,-181.71 308.45,-181.34 307,-181 230.58,-162.91 197.18,-191.66 134,-145 118.99,-133.92 109.63,-114.38 104.41,-99.9"/>
<polygon fill="#63b8ff" stroke="#63b8ff" points="107.62,-98.45 101.19,-90.03 100.96,-100.62 107.62,-98.45"/>
</a>
</g>
<g id="a_edge52&#45;headlabel"><a xlink:href="dir_000093_000095.html" target="_top" xlink:title="1">
<text text-anchor="middle" x="111.43" y="-98.49" font-family="Helvetica,sans-Serif" font-size="10.00" fill="#63b8ff">1</text>
</a>
</g>
</g>
<!-- dir_fff8ef54a646d9df8d7b15d27474569f&#45;&gt;dir_e838ebfdcf77e050c9d833b3366569df -->
<g id="edge51" class="edge">
<title>dir_fff8ef54a646d9df8d7b15d27474569f&#45;&gt;dir_e838ebfdcf77e050c9d833b3366569df</title>
<g id="a_edge51"><a xlink:href="dir_000093_000070.html" target="_top">
<path fill="none" stroke="#63b8ff" d="M352.82,-180.98C366.15,-172.77 386.58,-160.18 402.31,-150.49"/>
<polygon fill="#63b8ff" stroke="#63b8ff" points="404.25,-153.4 410.93,-145.17 400.58,-147.44 404.25,-153.4"/>
</a>
</g>
<g id="a_edge51&#45;headlabel"><a xlink:href="dir_000093_000070.html" target="_top" xlink:title="2">
<text text-anchor="middle" x="402.68" y="-155.2" font-family="Helvetica,sans-Serif" font-size="10.00" fill="#63b8ff">2</text>
</a>
</g>
</g>
<!-- dir_fff8ef54a646d9df8d7b15d27474569f&#45;&gt;dir_5a58a2ffe8660a7fc51fed7e0c7c898d -->
<g id="edge47" class="edge">
<title>dir_fff8ef54a646d9df8d7b15d27474569f&#45;&gt;dir_5a58a2ffe8660a7fc51fed7e0c7c898d</title>
<g id="a_edge47"><a xlink:href="dir_000093_000041.html" target="_top">
<path fill="none" stroke="#63b8ff" d="M339.8,-180.62C340.52,-167.25 339.89,-141.83 327,-126 324.31,-122.7 278.73,-104.6 247.65,-92.52"/>
<polygon fill="#63b8ff" stroke="#63b8ff" points="248.73,-89.19 238.14,-88.84 246.2,-95.72 248.73,-89.19"/>
</a>
</g>
<g id="a_edge47&#45;headlabel"><a xlink:href="dir_000093_000041.html" target="_top" xlink:title="32">
<text text-anchor="middle" x="253.11" y="-85.34" font-family="Helvetica,sans-Serif" font-size="10.00" fill="#63b8ff">32</text>
</a>
</g>
</g>
<!-- dir_fff8ef54a646d9df8d7b15d27474569f&#45;&gt;dir_1ca916e0b9fbc882dbfbd9e6594e5e22 -->
<g id="edge43" class="edge">
<title>dir_fff8ef54a646d9df8d7b15d27474569f&#45;&gt;dir_1ca916e0b9fbc882dbfbd9e6594e5e22</title>
<g id="a_edge43"><a xlink:href="dir_000093_000047.html" target="_top">
<path fill="none" stroke="#63b8ff" d="M342.21,-200.16C341.23,-212.81 332.58,-236.81 321,-255 314.27,-265.57 305,-276.06 296.13,-284.2"/>
<polygon fill="#63b8ff" stroke="#63b8ff" points="293.86,-281.54 288.52,-290.69 298.4,-286.87 293.86,-281.54"/>
</a>
</g>
<g id="a_edge43&#45;headlabel"><a xlink:href="dir_000093_000047.html" target="_top" xlink:title="31">
<text text-anchor="middle" x="294.75" y="-274.55" font-family="Helvetica,sans-Serif" font-size="10.00" fill="#63b8ff">31</text>
</a>
</g>
</g>
<!-- dir_fff8ef54a646d9df8d7b15d27474569f&#45;&gt;dir_e1a38fd6dc0543c7f97fb1ccf1615de7 -->
<g id="edge50" class="edge">
<title>dir_fff8ef54a646d9df8d7b15d27474569f&#45;&gt;dir_e1a38fd6dc0543c7f97fb1ccf1615de7</title>
<g id="a_edge50"><a xlink:href="dir_000093_000077.html" target="_top">
<path fill="none" stroke="#63b8ff" d="M330.08,-200.17C318.34,-208.52 297.92,-221.28 280.94,-230.97"/>
<polygon fill="#63b8ff" stroke="#63b8ff" points="278.96,-228.06 271.93,-235.98 282.37,-234.17 278.96,-228.06"/>
</a>
</g>
<g id="a_edge50&#45;headlabel"><a xlink:href="dir_000093_000077.html" target="_top" xlink:title="4">
<text text-anchor="middle" x="280.72" y="-221.33" font-family="Helvetica,sans-Serif" font-size="10.00" fill="#63b8ff">4</text>
</a>
</g>
</g>
<!-- dir_fff8ef54a646d9df8d7b15d27474569f&#45;&gt;dir_87b9f5c33f5a8f4d48db11d48f10a572 -->
<g id="edge49" class="edge">
<title>dir_fff8ef54a646d9df8d7b15d27474569f&#45;&gt;dir_87b9f5c33f5a8f4d48db11d48f10a572</title>
<g id="a_edge49"><a xlink:href="dir_000093_000082.html" target="_top">
<path fill="none" stroke="#63b8ff" d="M325.85,-180.98C317.18,-173.53 306.36,-162.49 298.5,-153.27"/>
<polygon fill="#63b8ff" stroke="#63b8ff" points="301,-150.8 292.03,-145.17 295.53,-155.17 301,-150.8"/>
</a>
</g>
<g id="a_edge49&#45;headlabel"><a xlink:href="dir_000093_000082.html" target="_top" xlink:title="17">
<text text-anchor="middle" x="305.46" y="-149.34" font-family="Helvetica,sans-Serif" font-size="10.00" fill="#63b8ff">17</text>
</a>
</g>
</g>
<!-- dir_417701c4e551058911a40fafc2072bfe&#45;&gt;dir_3e2f71566425d27b6ac8140f1223a941 -->
<g id="edge53" class="edge">
<title>dir_417701c4e551058911a40fafc2072bfe&#45;&gt;dir_3e2f71566425d27b6ac8140f1223a941</title>
<g id="a_edge53"><a xlink:href="dir_000125_000137.html" target="_top">
<path fill="none" stroke="#63b8ff" d="M388.26,-352.93C441.23,-349.11 561.35,-337.57 590,-310 610.9,-289.89 605,-275.5 605,-246.5 605,-246.5 605,-246.5 605,-189.5 605,-160.5 605.43,-150.55 590,-126 582.26,-113.69 569.92,-103.25 558.89,-95.59"/>
<polygon fill="#63b8ff" stroke="#63b8ff" points="560.72,-92.6 550.44,-90.05 556.88,-98.46 560.72,-92.6"/>
</a>
</g>
<g id="a_edge53&#45;headlabel"><a xlink:href="dir_000125_000137.html" target="_top" xlink:title="1">
<text text-anchor="middle" x="565.28" y="-89.69" font-family="Helvetica,sans-Serif" font-size="10.00" fill="#63b8ff">1</text>
</a>
</g>
</g>
</g>
</svg>
