<?xml version="1.0" encoding="UTF-8" standalone="no"?>
<!DOCTYPE svg PUBLIC "-//W3C//DTD SVG 1.1//EN"
 "http://www.w3.org/Graphics/SVG/1.1/DTD/svg11.dtd">
<!-- Generated by graphviz version 2.43.0 (0)
 -->
<!-- Title: gamestate Pages: 1 -->
<!--zoomable 290 -->

<svg id="main" version="1.1" xmlns="http://www.w3.org/2000/svg" xmlns:xlink="http://www.w3.org/1999/xlink" xml:space="preserve" onload="init(evt)">

<style type="text/css"><![CDATA[
.node, .edge {opacity: 0.7;}
.node.selected, .edge.selected {opacity: 1;}
.edge:hover path { stroke: red; }
.edge:hover polygon { stroke: red; fill: red; }
]]></style>

<defs>
  <circle id="rim" cx="0" cy="0" r="7"/>
  <circle id="rim2" cx="0" cy="0" r="3.5"/>
  <g id="zoomPlus">
    <use xlink:href="#rim" fill="#404040"><set attributeName="fill" to="#808080" begin="zoomplus.mouseover" end="zoomplus.mouseout"/></use>
    <path d="M-4,0h8M0,-4v8" fill="none" stroke="white" stroke-width="1.5" pointer-events="none"/>
  </g>
  <g id="zoomMin">
    <use xlink:href="#rim" fill="#404040"><set attributeName="fill" to="#808080" begin="zoomminus.mouseover" end="zoomminus.mouseout"/></use>
    <path d="M-4,0h8" fill="none" stroke="white" stroke-width="1.5" pointer-events="none"/>
  </g>
  <g id="arrowUp" transform="translate(30 24)">
    <use xlink:href="#rim"/>
    <path pointer-events="none" fill="none" stroke="white" stroke-width="1.5" d="M0,-3.0v7 M-2.5,-0.5L0,-3.0L2.5,-0.5"/>
  </g>
  <g id="arrowRight" transform="rotate(90) translate(36 -43)">
    <use xlink:href="#rim"/>
    <path pointer-events="none" fill="none" stroke="white" stroke-width="1.5" d="M0,-3.0v7 M-2.5,-0.5L0,-3.0L2.5,-0.5"/>
  </g>
  <g id="arrowDown" transform="rotate(180) translate(-30 -48)">
    <use xlink:href="#rim"/>
    <path pointer-events="none" fill="none" stroke="white" stroke-width="1.5" d="M0,-3.0v7 M-2.5,-0.5L0,-3.0L2.5,-0.5"/>
  </g>
  <g id="arrowLeft" transform="rotate(270) translate(-36 17)">
    <use xlink:href="#rim"/>
    <path pointer-events="none" fill="none" stroke="white" stroke-width="1.5" d="M0,-3.0v7 M-2.5,-0.5L0,-3.0L2.5,-0.5"/>
  </g>
  <g id="resetDef">
    <use xlink:href="#rim2" fill="#404040"><set attributeName="fill" to="#808080" begin="reset.mouseover" end="reset.mouseout"/></use>
  </g>
</defs>
<script type="application/ecmascript">
var viewWidth = 614;
var viewHeight = 290;
var sectionId = 'dynsection-0';
</script>
<script type="application/ecmascript" xlink:href="svg.min.js"/>
<svg id="graph" class="graph">
<g id="viewport">
<title>gamestate</title>
<g id="clust1" class="cluster">
<title>clusterdir_e1a38fd6dc0543c7f97fb1ccf1615de7</title>
<g id="a_clust1"><a xlink:href="dir_e1a38fd6dc0543c7f97fb1ccf1615de7.html" target="_top" xlink:title="mechanics">
<polygon fill="#edf0f7" stroke="#7f7f7f" stroke-dasharray="5,2" points="109.5,-39.28 109.5,-274.28 467.5,-274.28 467.5,-39.28 109.5,-39.28"/>
<text text-anchor="middle" x="288.5" y="-262.28" font-family="Helvetica,sans-Serif" font-size="10.00">mechanics</text>
</a>
</g>
</g>
<g id="clust2" class="cluster">
<title>clusterdir_014d03f1fa745a752e3155249a7cef2e</title>
<g id="a_clust2"><a xlink:href="dir_014d03f1fa745a752e3155249a7cef2e.html" target="_top">
<polygon fill="#edf0f7" stroke="#404040" stroke-width="2" points="117.5,-47.28 117.5,-247.28 459.5,-247.28 459.5,-47.28 117.5,-47.28"/>
</a>
</g>
</g>
<!-- dir_014d03f1fa745a752e3155249a7cef2e -->
<g id="node1" class="node">
<title>dir_014d03f1fa745a752e3155249a7cef2e</title>
<text text-anchor="middle" x="388.5" y="-227.28" font-family="Helvetica,sans-Serif" font-size="10.00">gamestate</text>
</g>
<!-- dir_9ed579b54552e16b14ed01281ebc7fc1 -->
<g id="node2" class="node">
<title>dir_9ed579b54552e16b14ed01281ebc7fc1</title>
<g id="a_node2"><a xlink:href="dir_9ed579b54552e16b14ed01281ebc7fc1.html" target="_top" xlink:title="commands">
<polygon fill="#a2b4d6" stroke="#404040" points="217,-129.28 146,-129.28 146,-110.28 217,-110.28 217,-129.28"/>
<text text-anchor="middle" x="181.5" y="-117.28" font-family="Helvetica,sans-Serif" font-size="10.00">commands</text>
</a>
</g>
</g>
<!-- dir_014d03f1fa745a752e3155249a7cef2e&#45;&gt;dir_9ed579b54552e16b14ed01281ebc7fc1 -->
<g id="edge7" class="edge">
<title>dir_014d03f1fa745a752e3155249a7cef2e&#45;&gt;dir_9ed579b54552e16b14ed01281ebc7fc1</title>
<g id="a_edge7"><a xlink:href="dir_000069_000016.html" target="_top">
<path fill="none" stroke="#63b8ff" d="M353.93,-226.74C318.01,-223.07 261.69,-212.84 222.5,-184.28 206.8,-172.84 195.54,-153.39 188.85,-139.03"/>
<polygon fill="#63b8ff" stroke="#63b8ff" points="191.97,-137.43 184.77,-129.65 185.55,-140.22 191.97,-137.43"/>
</a>
</g>
<g id="a_edge7&#45;headlabel"><a xlink:href="dir_000069_000016.html" target="_top" xlink:title="5">
<text text-anchor="middle" x="196" y="-137.1" font-family="Helvetica,sans-Serif" font-size="10.00" fill="#63b8ff">5</text>
</a>
</g>
</g>
<!-- dir_62cf329d4ce586358d86df60cebb9b6f -->
<g id="node3" class="node">
<title>dir_62cf329d4ce586358d86df60cebb9b6f</title>
<g id="a_node3"><a xlink:href="dir_62cf329d4ce586358d86df60cebb9b6f.html" target="_top" xlink:title="components">
<polygon fill="#a2b4d6" stroke="#404040" points="333,-129.28 256,-129.28 256,-110.28 333,-110.28 333,-129.28"/>
<text text-anchor="middle" x="294.5" y="-117.28" font-family="Helvetica,sans-Serif" font-size="10.00">components</text>
</a>
</g>
</g>
<!-- dir_014d03f1fa745a752e3155249a7cef2e&#45;&gt;dir_62cf329d4ce586358d86df60cebb9b6f -->
<g id="edge5" class="edge">
<title>dir_014d03f1fa745a752e3155249a7cef2e&#45;&gt;dir_62cf329d4ce586358d86df60cebb9b6f</title>
<g id="a_edge5"><a xlink:href="dir_000069_000026.html" target="_top">
<path fill="none" stroke="#63b8ff" d="M368.85,-220.26C353.56,-212.76 332.78,-200.49 319.5,-184.28 308.82,-171.25 302.29,-153.11 298.6,-139.55"/>
<polygon fill="#63b8ff" stroke="#63b8ff" points="301.91,-138.34 296.13,-129.45 295.11,-140 301.91,-138.34"/>
</a>
</g>
<g id="a_edge5&#45;headlabel"><a xlink:href="dir_000069_000026.html" target="_top" xlink:title="3">
<text text-anchor="middle" x="305.52" y="-138.65" font-family="Helvetica,sans-Serif" font-size="10.00" fill="#63b8ff">3</text>
</a>
</g>
</g>
<!-- dir_1e2b4d8616b5a94ef0f3093c433613bf -->
<g id="node4" class="node">
<title>dir_1e2b4d8616b5a94ef0f3093c433613bf</title>
<g id="a_node4"><a xlink:href="dir_1e2b4d8616b5a94ef0f3093c433613bf.html" target="_top" xlink:title="dispatcher">
<polygon fill="#a2b4d6" stroke="#404040" points="193.5,-184.28 125.5,-184.28 125.5,-165.28 193.5,-165.28 193.5,-184.28"/>
<text text-anchor="middle" x="159.5" y="-172.28" font-family="Helvetica,sans-Serif" font-size="10.00">dispatcher</text>
</a>
</g>
</g>
<!-- dir_014d03f1fa745a752e3155249a7cef2e&#45;&gt;dir_1e2b4d8616b5a94ef0f3093c433613bf -->
<g id="edge2" class="edge">
<title>dir_014d03f1fa745a752e3155249a7cef2e&#45;&gt;dir_1e2b4d8616b5a94ef0f3093c433613bf</title>
<g id="a_edge2"><a xlink:href="dir_000069_000052.html" target="_top">
<path fill="none" stroke="#63b8ff" d="M353.72,-220.73C313.56,-211.44 247.41,-196.13 203.65,-186"/>
<polygon fill="#63b8ff" stroke="#63b8ff" points="204.39,-182.58 193.86,-183.73 202.81,-189.4 204.39,-182.58"/>
</a>
</g>
<g id="a_edge2&#45;headlabel"><a xlink:href="dir_000069_000052.html" target="_top" xlink:title="1">
<text text-anchor="middle" x="208.53" y="-178.12" font-family="Helvetica,sans-Serif" font-size="10.00" fill="#63b8ff">1</text>
</a>
</g>
</g>
<!-- dir_b9cfb45c1b77dbd8e10a3c02853a7bae -->
<g id="node5" class="node">
<title>dir_b9cfb45c1b77dbd8e10a3c02853a7bae</title>
<g id="a_node5"><a xlink:href="dir_b9cfb45c1b77dbd8e10a3c02853a7bae.html" target="_top" xlink:title="listeners">
<polygon fill="#a2b4d6" stroke="#404040" points="451,-129.28 392,-129.28 392,-110.28 451,-110.28 451,-129.28"/>
<text text-anchor="middle" x="421.5" y="-117.28" font-family="Helvetica,sans-Serif" font-size="10.00">listeners</text>
</a>
</g>
</g>
<!-- dir_014d03f1fa745a752e3155249a7cef2e&#45;&gt;dir_b9cfb45c1b77dbd8e10a3c02853a7bae -->
<g id="edge8" class="edge">
<title>dir_014d03f1fa745a752e3155249a7cef2e&#45;&gt;dir_b9cfb45c1b77dbd8e10a3c02853a7bae</title>
<g id="a_edge8"><a xlink:href="dir_000069_000085.html" target="_top">
<path fill="none" stroke="#63b8ff" d="M391.2,-219.94C396.57,-202.37 408.68,-162.73 415.86,-139.24"/>
<polygon fill="#63b8ff" stroke="#63b8ff" points="419.28,-140.03 418.85,-129.44 412.59,-137.98 419.28,-140.03"/>
</a>
</g>
<g id="a_edge8&#45;headlabel"><a xlink:href="dir_000069_000085.html" target="_top" xlink:title="1">
<text text-anchor="middle" x="420.94" y="-141.79" font-family="Helvetica,sans-Serif" font-size="10.00" fill="#63b8ff">1</text>
</a>
</g>
</g>
<!-- dir_f37f1451bcfc86b6b712fff4e15caf0b -->
<g id="node6" class="node">
<title>dir_f37f1451bcfc86b6b712fff4e15caf0b</title>
<g id="a_node6"><a xlink:href="dir_f37f1451bcfc86b6b712fff4e15caf0b.html" target="_top" xlink:title="rules">
<polygon fill="#a2b4d6" stroke="#404040" points="369,-184.28 328,-184.28 328,-165.28 369,-165.28 369,-184.28"/>
<text text-anchor="middle" x="348.5" y="-172.28" font-family="Helvetica,sans-Serif" font-size="10.00">rules</text>
</a>
</g>
</g>
<!-- dir_014d03f1fa745a752e3155249a7cef2e&#45;&gt;dir_f37f1451bcfc86b6b712fff4e15caf0b -->
<g id="edge10" class="edge">
<title>dir_014d03f1fa745a752e3155249a7cef2e&#45;&gt;dir_f37f1451bcfc86b6b712fff4e15caf0b</title>
<g id="a_edge10"><a xlink:href="dir_000069_000107.html" target="_top">
<path fill="none" stroke="#63b8ff" d="M381.89,-220.03C376.24,-212.54 367.96,-201.56 361.05,-192.41"/>
<polygon fill="#63b8ff" stroke="#63b8ff" points="363.8,-190.25 354.98,-184.37 358.21,-194.46 363.8,-190.25"/>
</a>
</g>
<g id="a_edge10&#45;headlabel"><a xlink:href="dir_000069_000107.html" target="_top" xlink:title="2">
<text text-anchor="middle" x="368.23" y="-188.9" font-family="Helvetica,sans-Serif" font-size="10.00" fill="#63b8ff">2</text>
</a>
</g>
</g>
<!-- dir_8d252ebd3a650eb75bc4449c8c9c4277 -->
<g id="node7" class="node">
<title>dir_8d252ebd3a650eb75bc4449c8c9c4277</title>
<g id="a_node7"><a xlink:href="dir_8d252ebd3a650eb75bc4449c8c9c4277.html" target="_top" xlink:title="systems">
<polygon fill="#a2b4d6" stroke="#404040" points="289.5,-184.28 231.5,-184.28 231.5,-165.28 289.5,-165.28 289.5,-184.28"/>
<text text-anchor="middle" x="260.5" y="-172.28" font-family="Helvetica,sans-Serif" font-size="10.00">systems</text>
</a>
</g>
</g>
<!-- dir_014d03f1fa745a752e3155249a7cef2e&#45;&gt;dir_8d252ebd3a650eb75bc4449c8c9c4277 -->
<g id="edge6" class="edge">
<title>dir_014d03f1fa745a752e3155249a7cef2e&#45;&gt;dir_8d252ebd3a650eb75bc4449c8c9c4277</title>
<g id="a_edge6"><a xlink:href="dir_000069_000125.html" target="_top">
<path fill="none" stroke="#63b8ff" d="M367.93,-220.27C347.07,-211.63 314.53,-198.15 290.73,-188.3"/>
<polygon fill="#63b8ff" stroke="#63b8ff" points="292.02,-185.05 281.44,-184.45 289.34,-191.51 292.02,-185.05"/>
</a>
</g>
<g id="a_edge6&#45;headlabel"><a xlink:href="dir_000069_000125.html" target="_top" xlink:title="1">
<text text-anchor="middle" x="296.43" y="-181.3" font-family="Helvetica,sans-Serif" font-size="10.00" fill="#63b8ff">1</text>
</a>
</g>
</g>
<!-- dir_c06739a7e81ea970219d6849a6b58298 -->
<g id="node8" class="node">
<title>dir_c06739a7e81ea970219d6849a6b58298</title>
<g id="a_node8"><a xlink:href="dir_c06739a7e81ea970219d6849a6b58298.html" target="_top" xlink:title="types">
<polygon fill="#a2b4d6" stroke="#404040" points="282.5,-74.28 238.5,-74.28 238.5,-55.28 282.5,-55.28 282.5,-74.28"/>
<text text-anchor="middle" x="260.5" y="-62.28" font-family="Helvetica,sans-Serif" font-size="10.00">types</text>
</a>
</g>
</g>
<!-- dir_014d03f1fa745a752e3155249a7cef2e&#45;&gt;dir_c06739a7e81ea970219d6849a6b58298 -->
<g id="edge9" class="edge">
<title>dir_014d03f1fa745a752e3155249a7cef2e&#45;&gt;dir_c06739a7e81ea970219d6849a6b58298</title>
<g id="a_edge9"><a xlink:href="dir_000069_000151.html" target="_top">
<path fill="none" stroke="#63b8ff" d="M388.33,-220.25C387.42,-198.68 382,-141.42 350.5,-110.28 334.32,-94.29 311.24,-83.03 292.5,-75.85"/>
<polygon fill="#63b8ff" stroke="#63b8ff" points="293.48,-72.48 282.89,-72.36 291.09,-79.06 293.48,-72.48"/>
</a>
</g>
<g id="a_edge9&#45;headlabel"><a xlink:href="dir_000069_000151.html" target="_top" xlink:title="11">
<text text-anchor="middle" x="297.83" y="-68.53" font-family="Helvetica,sans-Serif" font-size="10.00" fill="#63b8ff">11</text>
</a>
</g>
</g>
<!-- dir_1ca916e0b9fbc882dbfbd9e6594e5e22 -->
<g id="node9" class="node">
<title>dir_1ca916e0b9fbc882dbfbd9e6594e5e22</title>
<g id="a_node9"><a xlink:href="dir_1ca916e0b9fbc882dbfbd9e6594e5e22.html" target="_top" xlink:title="ecs">
<polygon fill="#edf0f7" stroke="red" stroke-dasharray="5,2" points="565,-74.28 532,-74.28 532,-55.28 565,-55.28 565,-74.28"/>
<text text-anchor="middle" x="548.5" y="-62.28" font-family="Helvetica,sans-Serif" font-size="10.00">ecs</text>
</a>
</g>
</g>
<!-- dir_014d03f1fa745a752e3155249a7cef2e&#45;&gt;dir_1ca916e0b9fbc882dbfbd9e6594e5e22 -->
<g id="edge1" class="edge">
<title>dir_014d03f1fa745a752e3155249a7cef2e&#45;&gt;dir_1ca916e0b9fbc882dbfbd9e6594e5e22</title>
<g id="a_edge1"><a xlink:href="dir_000069_000056.html" target="_top">
<path fill="none" stroke="#63b8ff" d="M397.55,-220.13C415.38,-203.02 456.23,-163.54 489.5,-129.28 504.81,-113.52 521.85,-95.08 533.66,-82.15"/>
<polygon fill="#63b8ff" stroke="#63b8ff" points="536.46,-84.27 540.6,-74.52 531.28,-79.56 536.46,-84.27"/>
</a>
</g>
<g id="a_edge1&#45;headlabel"><a xlink:href="dir_000069_000056.html" target="_top" xlink:title="3">
<text text-anchor="middle" x="536.14" y="-86.34" font-family="Helvetica,sans-Serif" font-size="10.00" fill="#63b8ff">3</text>
</a>
</g>
</g>
<!-- dir_3e2f71566425d27b6ac8140f1223a941 -->
<g id="node10" class="node">
<title>dir_3e2f71566425d27b6ac8140f1223a941</title>
<g id="a_node10"><a xlink:href="dir_3e2f71566425d27b6ac8140f1223a941.html" target="_top" xlink:title="util">
<polygon fill="#edf0f7" stroke="red" stroke-dasharray="5,2" points="509.5,-184.28 477.5,-184.28 477.5,-165.28 509.5,-165.28 509.5,-184.28"/>
<text text-anchor="middle" x="493.5" y="-172.28" font-family="Helvetica,sans-Serif" font-size="10.00">util</text>
</a>
</g>
</g>
<!-- dir_014d03f1fa745a752e3155249a7cef2e&#45;&gt;dir_3e2f71566425d27b6ac8140f1223a941 -->
<g id="edge3" class="edge">
<title>dir_014d03f1fa745a752e3155249a7cef2e&#45;&gt;dir_3e2f71566425d27b6ac8140f1223a941</title>
<g id="a_edge3"><a xlink:href="dir_000069_000161.html" target="_top">
<path fill="none" stroke="#63b8ff" d="M405.37,-220.27C422.41,-211.67 448.93,-198.28 468.43,-188.44"/>
<polygon fill="#63b8ff" stroke="#63b8ff" points="470.01,-191.56 477.36,-183.93 466.86,-185.31 470.01,-191.56"/>
</a>
</g>
<g id="a_edge3&#45;headlabel"><a xlink:href="dir_000069_000161.html" target="_top" xlink:title="1">
<text text-anchor="middle" x="468.08" y="-193.21" font-family="Helvetica,sans-Serif" font-size="10.00" fill="#63b8ff">1</text>
</a>
</g>
</g>
<!-- dir_4e12247f2bbe360a59cd98a83515e8f1 -->
<g id="node11" class="node">
<title>dir_4e12247f2bbe360a59cd98a83515e8f1</title>
<g id="a_node11"><a xlink:href="dir_4e12247f2bbe360a59cd98a83515e8f1.html" target="_top" xlink:title="core">
<polygon fill="#edf0f7" stroke="red" stroke-dasharray="5,2" points="565.5,-184.28 527.5,-184.28 527.5,-165.28 565.5,-165.28 565.5,-184.28"/>
<text text-anchor="middle" x="546.5" y="-172.28" font-family="Helvetica,sans-Serif" font-size="10.00">core</text>
</a>
</g>
</g>
<!-- dir_014d03f1fa745a752e3155249a7cef2e&#45;&gt;dir_4e12247f2bbe360a59cd98a83515e8f1 -->
<g id="edge4" class="edge">
<title>dir_014d03f1fa745a752e3155249a7cef2e&#45;&gt;dir_4e12247f2bbe360a59cd98a83515e8f1</title>
<g id="a_edge4"><a xlink:href="dir_000069_000047.html" target="_top">
<path fill="none" stroke="#63b8ff" d="M413.89,-220.27C442.13,-210.79 487.7,-195.51 517.37,-185.55"/>
<polygon fill="#63b8ff" stroke="#63b8ff" points="518.79,-188.77 527.15,-182.27 516.56,-182.13 518.79,-188.77"/>
</a>
</g>
<g id="a_edge4&#45;headlabel"><a xlink:href="dir_000069_000047.html" target="_top" xlink:title="1">
<text text-anchor="middle" x="516.28" y="-190.11" font-family="Helvetica,sans-Serif" font-size="10.00" fill="#63b8ff">1</text>
</a>
</g>
</g>
<!-- dir_fff8ef54a646d9df8d7b15d27474569f -->
<g id="node12" class="node">
<title>dir_fff8ef54a646d9df8d7b15d27474569f</title>
<g id="a_node12"><a xlink:href="dir_fff8ef54a646d9df8d7b15d27474569f.html" target="_top" xlink:title="runtime">
<polygon fill="#edf0f7" stroke="red" stroke-dasharray="5,2" points="313,-19.28 258,-19.28 258,-0.28 313,-0.28 313,-19.28"/>
<text text-anchor="middle" x="285.5" y="-7.28" font-family="Helvetica,sans-Serif" font-size="10.00">runtime</text>
</a>
</g>
</g>
<!-- dir_014d03f1fa745a752e3155249a7cef2e&#45;&gt;dir_fff8ef54a646d9df8d7b15d27474569f -->
<g id="edge11" class="edge">
<title>dir_014d03f1fa745a752e3155249a7cef2e&#45;&gt;dir_fff8ef54a646d9df8d7b15d27474569f</title>
<g id="a_edge11"><a xlink:href="dir_000069_000109.html" target="_top">
<path fill="none" stroke="#63b8ff" d="M423.05,-225.55C471.55,-220.21 555.99,-207.74 574.5,-184.28 614.42,-133.69 617.78,-87.04 574.5,-39.28 557.94,-21.01 397.93,-14.02 323.37,-11.74"/>
<polygon fill="#63b8ff" stroke="#63b8ff" points="323.12,-8.23 313.02,-11.44 322.92,-15.23 323.12,-8.23"/>
</a>
</g>
<g id="a_edge11&#45;headlabel"><a xlink:href="dir_000069_000109.html" target="_top" xlink:title="16">
<text text-anchor="middle" x="326.8" y="-3" font-family="Helvetica,sans-Serif" font-size="10.00" fill="#63b8ff">16</text>
</a>
</g>
</g>
<!-- dir_9ed579b54552e16b14ed01281ebc7fc1&#45;&gt;dir_c06739a7e81ea970219d6849a6b58298 -->
<g id="edge12" class="edge">
<title>dir_9ed579b54552e16b14ed01281ebc7fc1&#45;&gt;dir_c06739a7e81ea970219d6849a6b58298</title>
<g id="a_edge12"><a xlink:href="dir_000016_000151.html" target="_top">
<path fill="none" stroke="#63b8ff" d="M194.19,-110.27C206.33,-102.13 224.86,-89.69 239.25,-80.04"/>
<polygon fill="#63b8ff" stroke="#63b8ff" points="241.22,-82.93 247.58,-74.45 237.32,-77.12 241.22,-82.93"/>
</a>
</g>
<g id="a_edge12&#45;headlabel"><a xlink:href="dir_000016_000151.html" target="_top" xlink:title="1">
<text text-anchor="middle" x="239.82" y="-84.79" font-family="Helvetica,sans-Serif" font-size="10.00" fill="#63b8ff">1</text>
</a>
</g>
</g>
<!-- dir_9ed579b54552e16b14ed01281ebc7fc1&#45;&gt;dir_fff8ef54a646d9df8d7b15d27474569f -->
<g id="edge13" class="edge">
<title>dir_9ed579b54552e16b14ed01281ebc7fc1&#45;&gt;dir_fff8ef54a646d9df8d7b15d27474569f</title>
<g id="a_edge13"><a xlink:href="dir_000016_000109.html" target="_top">
<path fill="none" stroke="#63b8ff" d="M217.25,-114.7C242.64,-109.73 275.03,-98.71 291.5,-74.28 300.39,-61.1 297.42,-42.72 293.09,-29.13"/>
<polygon fill="#63b8ff" stroke="#63b8ff" points="296.27,-27.63 289.54,-19.44 289.7,-30.04 296.27,-27.63"/>
</a>
</g>
<g id="a_edge13&#45;headlabel"><a xlink:href="dir_000016_000109.html" target="_top" xlink:title="2">
<text text-anchor="middle" x="300.17" y="-27.52" font-family="Helvetica,sans-Serif" font-size="10.00" fill="#63b8ff">2</text>
</a>
</g>
</g>
<!-- dir_62cf329d4ce586358d86df60cebb9b6f&#45;&gt;dir_c06739a7e81ea970219d6849a6b58298 -->
<g id="edge14" class="edge">
<title>dir_62cf329d4ce586358d86df60cebb9b6f&#45;&gt;dir_c06739a7e81ea970219d6849a6b58298</title>
<g id="a_edge14"><a xlink:href="dir_000026_000151.html" target="_top">
<path fill="none" stroke="#63b8ff" d="M288.89,-110.03C284.18,-102.7 277.33,-92.01 271.53,-82.98"/>
<polygon fill="#63b8ff" stroke="#63b8ff" points="274.36,-80.9 266.01,-74.37 268.46,-84.68 274.36,-80.9"/>
</a>
</g>
<g id="a_edge14&#45;headlabel"><a xlink:href="dir_000026_000151.html" target="_top" xlink:title="1">
<text text-anchor="middle" x="278.69" y="-79.89" font-family="Helvetica,sans-Serif" font-size="10.00" fill="#63b8ff">1</text>
</a>
</g>
</g>
<!-- dir_1e2b4d8616b5a94ef0f3093c433613bf&#45;&gt;dir_9ed579b54552e16b14ed01281ebc7fc1 -->
<g id="edge15" class="edge">
<title>dir_1e2b4d8616b5a94ef0f3093c433613bf&#45;&gt;dir_9ed579b54552e16b14ed01281ebc7fc1</title>
<g id="a_edge15"><a xlink:href="dir_000052_000016.html" target="_top">
<path fill="none" stroke="#63b8ff" d="M163.13,-165.03C166.08,-157.93 170.33,-147.68 174.01,-138.84"/>
<polygon fill="#63b8ff" stroke="#63b8ff" points="177.33,-139.95 177.93,-129.37 170.87,-137.27 177.33,-139.95"/>
</a>
</g>
<g id="a_edge15&#45;headlabel"><a xlink:href="dir_000052_000016.html" target="_top" xlink:title="1">
<text text-anchor="middle" x="178.58" y="-141.86" font-family="Helvetica,sans-Serif" font-size="10.00" fill="#63b8ff">1</text>
</a>
</g>
</g>
<!-- dir_1e2b4d8616b5a94ef0f3093c433613bf&#45;&gt;dir_c06739a7e81ea970219d6849a6b58298 -->
<g id="edge16" class="edge">
<title>dir_1e2b4d8616b5a94ef0f3093c433613bf&#45;&gt;dir_c06739a7e81ea970219d6849a6b58298</title>
<g id="a_edge16"><a xlink:href="dir_000052_000151.html" target="_top">
<path fill="none" stroke="#63b8ff" d="M151.65,-164.86C141.21,-151.88 125.44,-127.47 137.5,-110.28 157.83,-81.31 199,-71.12 228.09,-67.58"/>
<polygon fill="#63b8ff" stroke="#63b8ff" points="228.61,-71.05 238.21,-66.56 227.9,-64.08 228.61,-71.05"/>
</a>
</g>
<g id="a_edge16&#45;headlabel"><a xlink:href="dir_000052_000151.html" target="_top" xlink:title="1">
<text text-anchor="middle" x="225.32" y="-71.74" font-family="Helvetica,sans-Serif" font-size="10.00" fill="#63b8ff">1</text>
</a>
</g>
</g>
<!-- dir_1e2b4d8616b5a94ef0f3093c433613bf&#45;&gt;dir_fff8ef54a646d9df8d7b15d27474569f -->
<g id="edge17" class="edge">
<title>dir_1e2b4d8616b5a94ef0f3093c433613bf&#45;&gt;dir_fff8ef54a646d9df8d7b15d27474569f</title>
<g id="a_edge17"><a xlink:href="dir_000052_000109.html" target="_top">
<path fill="none" stroke="#63b8ff" d="M125.43,-170.89C96.03,-166.59 54.48,-155.9 29.5,-129.28 1.75,-99.71 -12.63,-69.42 14.5,-39.28 29.78,-22.31 176.18,-14.73 247.21,-12.03"/>
<polygon fill="#63b8ff" stroke="#63b8ff" points="247.66,-15.51 257.53,-11.65 247.41,-8.52 247.66,-15.51"/>
</a>
</g>
<g id="a_edge17&#45;headlabel"><a xlink:href="dir_000052_000109.html" target="_top" xlink:title="2">
<text text-anchor="middle" x="244.18" y="-15.98" font-family="Helvetica,sans-Serif" font-size="10.00" fill="#63b8ff">2</text>
</a>
</g>
</g>
<!-- dir_b9cfb45c1b77dbd8e10a3c02853a7bae&#45;&gt;dir_c06739a7e81ea970219d6849a6b58298 -->
<g id="edge21" class="edge">
<title>dir_b9cfb45c1b77dbd8e10a3c02853a7bae&#45;&gt;dir_c06739a7e81ea970219d6849a6b58298</title>
<g id="a_edge21"><a xlink:href="dir_000085_000151.html" target="_top">
<path fill="none" stroke="#63b8ff" d="M395.63,-110.27C367.52,-101.01 322.58,-86.22 292.33,-76.26"/>
<polygon fill="#63b8ff" stroke="#63b8ff" points="293.27,-72.89 282.68,-73.08 291.08,-79.53 293.27,-72.89"/>
</a>
</g>
<g id="a_edge21&#45;headlabel"><a xlink:href="dir_000085_000151.html" target="_top" xlink:title="3">
<text text-anchor="middle" x="297.57" y="-68.81" font-family="Helvetica,sans-Serif" font-size="10.00" fill="#63b8ff">3</text>
</a>
</g>
</g>
<!-- dir_b9cfb45c1b77dbd8e10a3c02853a7bae&#45;&gt;dir_1ca916e0b9fbc882dbfbd9e6594e5e22 -->
<g id="edge18" class="edge">
<title>dir_b9cfb45c1b77dbd8e10a3c02853a7bae&#45;&gt;dir_1ca916e0b9fbc882dbfbd9e6594e5e22</title>
<g id="a_edge18"><a xlink:href="dir_000085_000056.html" target="_top">
<path fill="none" stroke="#63b8ff" d="M441.9,-110.27C463.75,-101.15 498.47,-86.66 522.31,-76.71"/>
<polygon fill="#63b8ff" stroke="#63b8ff" points="523.91,-79.84 531.8,-72.75 521.22,-73.38 523.91,-79.84"/>
</a>
</g>
<g id="a_edge18&#45;headlabel"><a xlink:href="dir_000085_000056.html" target="_top" xlink:title="1">
<text text-anchor="middle" x="521.69" y="-81.34" font-family="Helvetica,sans-Serif" font-size="10.00" fill="#63b8ff">1</text>
</a>
</g>
</g>
<!-- dir_b9cfb45c1b77dbd8e10a3c02853a7bae&#45;&gt;dir_fff8ef54a646d9df8d7b15d27474569f -->
<g id="edge22" class="edge">
<title>dir_b9cfb45c1b77dbd8e10a3c02853a7bae&#45;&gt;dir_fff8ef54a646d9df8d7b15d27474569f</title>
<g id="a_edge22"><a xlink:href="dir_000085_000109.html" target="_top">
<path fill="none" stroke="#63b8ff" d="M410.37,-109.94C387.14,-91.5 333.28,-48.73 304.48,-25.85"/>
<polygon fill="#63b8ff" stroke="#63b8ff" points="306.41,-22.92 296.4,-19.44 302.06,-28.4 306.41,-22.92"/>
</a>
</g>
<g id="a_edge22&#45;headlabel"><a xlink:href="dir_000085_000109.html" target="_top" xlink:title="5">
<text text-anchor="middle" x="310.99" y="-20.43" font-family="Helvetica,sans-Serif" font-size="10.00" fill="#63b8ff">5</text>
</a>
</g>
</g>
<!-- dir_5a58a2ffe8660a7fc51fed7e0c7c898d -->
<g id="node13" class="node">
<title>dir_5a58a2ffe8660a7fc51fed7e0c7c898d</title>
<g id="a_node13"><a xlink:href="dir_5a58a2ffe8660a7fc51fed7e0c7c898d.html" target="_top" xlink:title="core">
<polygon fill="#edf0f7" stroke="red" stroke-dasharray="5,2" points="513.5,-74.28 475.5,-74.28 475.5,-55.28 513.5,-55.28 513.5,-74.28"/>
<text text-anchor="middle" x="494.5" y="-62.28" font-family="Helvetica,sans-Serif" font-size="10.00">core</text>
</a>
</g>
</g>
<!-- dir_b9cfb45c1b77dbd8e10a3c02853a7bae&#45;&gt;dir_5a58a2ffe8660a7fc51fed7e0c7c898d -->
<g id="edge19" class="edge">
<title>dir_b9cfb45c1b77dbd8e10a3c02853a7bae&#45;&gt;dir_5a58a2ffe8660a7fc51fed7e0c7c898d</title>
<g id="a_edge19"><a xlink:href="dir_000085_000048.html" target="_top">
<path fill="none" stroke="#63b8ff" d="M433.23,-110.27C444.23,-102.28 460.92,-90.16 474.1,-80.59"/>
<polygon fill="#63b8ff" stroke="#63b8ff" points="476.52,-83.16 482.56,-74.45 472.41,-77.5 476.52,-83.16"/>
</a>
</g>
<g id="a_edge19&#45;headlabel"><a xlink:href="dir_000085_000048.html" target="_top" xlink:title="2">
<text text-anchor="middle" x="475.28" y="-85.07" font-family="Helvetica,sans-Serif" font-size="10.00" fill="#63b8ff">2</text>
</a>
</g>
</g>
<!-- dir_87b9f5c33f5a8f4d48db11d48f10a572 -->
<g id="node14" class="node">
<title>dir_87b9f5c33f5a8f4d48db11d48f10a572</title>
<g id="a_node14"><a xlink:href="dir_87b9f5c33f5a8f4d48db11d48f10a572.html" target="_top" xlink:title="modules">
<polygon fill="#edf0f7" stroke="red" stroke-dasharray="5,2" points="101,-74.28 42,-74.28 42,-55.28 101,-55.28 101,-74.28"/>
<text text-anchor="middle" x="71.5" y="-62.28" font-family="Helvetica,sans-Serif" font-size="10.00">modules</text>
</a>
</g>
</g>
<!-- dir_b9cfb45c1b77dbd8e10a3c02853a7bae&#45;&gt;dir_87b9f5c33f5a8f4d48db11d48f10a572 -->
<g id="edge20" class="edge">
<title>dir_b9cfb45c1b77dbd8e10a3c02853a7bae&#45;&gt;dir_87b9f5c33f5a8f4d48db11d48f10a572</title>
<g id="a_edge20"><a xlink:href="dir_000085_000096.html" target="_top">
<path fill="none" stroke="#63b8ff" d="M391.68,-115.04C336.58,-108 215.18,-91.9 113.5,-74.28 112.76,-74.15 112.01,-74.02 111.25,-73.89"/>
<polygon fill="#63b8ff" stroke="#63b8ff" points="111.76,-70.42 101.29,-72.03 110.48,-77.3 111.76,-70.42"/>
</a>
</g>
<g id="a_edge20&#45;headlabel"><a xlink:href="dir_000085_000096.html" target="_top" xlink:title="1">
<text text-anchor="middle" x="115.82" y="-65.79" font-family="Helvetica,sans-Serif" font-size="10.00" fill="#63b8ff">1</text>
</a>
</g>
</g>
<!-- dir_f37f1451bcfc86b6b712fff4e15caf0b&#45;&gt;dir_c06739a7e81ea970219d6849a6b58298 -->
<g id="edge23" class="edge">
<title>dir_f37f1451bcfc86b6b712fff4e15caf0b&#45;&gt;dir_c06739a7e81ea970219d6849a6b58298</title>
<g id="a_edge23"><a xlink:href="dir_000107_000151.html" target="_top">
<path fill="none" stroke="#63b8ff" d="M350.07,-165.15C351.96,-152.1 353.61,-127.1 342.5,-110.28 330.9,-92.72 309.95,-81.52 292.13,-74.75"/>
<polygon fill="#63b8ff" stroke="#63b8ff" points="293.23,-71.43 282.63,-71.44 290.92,-78.04 293.23,-71.43"/>
</a>
</g>
<g id="a_edge23&#45;headlabel"><a xlink:href="dir_000107_000151.html" target="_top" xlink:title="1">
<text text-anchor="middle" x="297.56" y="-67.43" font-family="Helvetica,sans-Serif" font-size="10.00" fill="#63b8ff">1</text>
</a>
</g>
</g>
<!-- dir_8d252ebd3a650eb75bc4449c8c9c4277&#45;&gt;dir_9ed579b54552e16b14ed01281ebc7fc1 -->
<g id="edge26" class="edge">
<title>dir_8d252ebd3a650eb75bc4449c8c9c4277&#45;&gt;dir_9ed579b54552e16b14ed01281ebc7fc1</title>
<g id="a_edge26"><a xlink:href="dir_000125_000016.html" target="_top">
<path fill="none" stroke="#63b8ff" d="M247.81,-165.27C235.67,-157.13 217.14,-144.69 202.75,-135.04"/>
<polygon fill="#63b8ff" stroke="#63b8ff" points="204.68,-132.12 194.42,-129.45 200.78,-137.93 204.68,-132.12"/>
</a>
</g>
<g id="a_edge26&#45;headlabel"><a xlink:href="dir_000125_000016.html" target="_top" xlink:title="1">
<text text-anchor="middle" x="209.24" y="-129.26" font-family="Helvetica,sans-Serif" font-size="10.00" fill="#63b8ff">1</text>
</a>
</g>
</g>
<!-- dir_8d252ebd3a650eb75bc4449c8c9c4277&#45;&gt;dir_62cf329d4ce586358d86df60cebb9b6f -->
<g id="edge25" class="edge">
<title>dir_8d252ebd3a650eb75bc4449c8c9c4277&#45;&gt;dir_62cf329d4ce586358d86df60cebb9b6f</title>
<g id="a_edge25"><a xlink:href="dir_000125_000026.html" target="_top">
<path fill="none" stroke="#63b8ff" d="M266.11,-165.03C270.82,-157.7 277.67,-147.01 283.47,-137.98"/>
<polygon fill="#63b8ff" stroke="#63b8ff" points="286.54,-139.68 288.99,-129.37 280.64,-135.9 286.54,-139.68"/>
</a>
</g>
<g id="a_edge25&#45;headlabel"><a xlink:href="dir_000125_000026.html" target="_top" xlink:title="1">
<text text-anchor="middle" x="286.99" y="-141.74" font-family="Helvetica,sans-Serif" font-size="10.00" fill="#63b8ff">1</text>
</a>
</g>
</g>
<!-- dir_8d252ebd3a650eb75bc4449c8c9c4277&#45;&gt;dir_c06739a7e81ea970219d6849a6b58298 -->
<g id="edge27" class="edge">
<title>dir_8d252ebd3a650eb75bc4449c8c9c4277&#45;&gt;dir_c06739a7e81ea970219d6849a6b58298</title>
<g id="a_edge27"><a xlink:href="dir_000125_000151.html" target="_top">
<path fill="none" stroke="#63b8ff" d="M256.82,-165.21C252.06,-153.07 244.66,-130.11 247.5,-110.28 248.75,-101.52 251.33,-92.07 253.86,-84.14"/>
<polygon fill="#63b8ff" stroke="#63b8ff" points="257.24,-85.08 257.16,-74.48 250.62,-82.82 257.24,-85.08"/>
</a>
</g>
<g id="a_edge27&#45;headlabel"><a xlink:href="dir_000125_000151.html" target="_top" xlink:title="1">
<text text-anchor="middle" x="258.77" y="-86.9" font-family="Helvetica,sans-Serif" font-size="10.00" fill="#63b8ff">1</text>
</a>
</g>
</g>
<!-- dir_8d252ebd3a650eb75bc4449c8c9c4277&#45;&gt;dir_1ca916e0b9fbc882dbfbd9e6594e5e22 -->
<g id="edge24" class="edge">
<title>dir_8d252ebd3a650eb75bc4449c8c9c4277&#45;&gt;dir_1ca916e0b9fbc882dbfbd9e6594e5e22</title>
<g id="a_edge24"><a xlink:href="dir_000125_000056.html" target="_top">
<path fill="none" stroke="#63b8ff" d="M289.64,-168.8C337.43,-160.37 430.16,-142.91 460.5,-129.28 487.43,-117.19 514.36,-96.11 531.2,-81.58"/>
<polygon fill="#63b8ff" stroke="#63b8ff" points="533.86,-83.9 539.04,-74.66 529.23,-78.66 533.86,-83.9"/>
</a>
</g>
<g id="a_edge24&#45;headlabel"><a xlink:href="dir_000125_000056.html" target="_top" xlink:title="1">
<text text-anchor="middle" x="533.05" y="-85.91" font-family="Helvetica,sans-Serif" font-size="10.00" fill="#63b8ff">1</text>
</a>
</g>
</g>
<!-- dir_8d252ebd3a650eb75bc4449c8c9c4277&#45;&gt;dir_fff8ef54a646d9df8d7b15d27474569f -->
<g id="edge29" class="edge">
<title>dir_8d252ebd3a650eb75bc4449c8c9c4277&#45;&gt;dir_fff8ef54a646d9df8d7b15d27474569f</title>
<g id="a_edge29"><a xlink:href="dir_000125_000109.html" target="_top">
<path fill="none" stroke="#63b8ff" d="M231.46,-169.27C177.03,-160.59 63.91,-141.33 50.5,-129.28 20.15,-102.03 5.32,-69.7 32.5,-39.28 46.58,-23.52 180.85,-15.4 247.85,-12.31"/>
<polygon fill="#63b8ff" stroke="#63b8ff" points="248.17,-15.79 258,-11.85 247.85,-8.8 248.17,-15.79"/>
</a>
</g>
<g id="a_edge29&#45;headlabel"><a xlink:href="dir_000125_000109.html" target="_top" xlink:title="1">
<text text-anchor="middle" x="244.7" y="-16.29" font-family="Helvetica,sans-Serif" font-size="10.00" fill="#63b8ff">1</text>
</a>
</g>
</g>
<!-- dir_e838ebfdcf77e050c9d833b3366569df -->
<g id="node15" class="node">
<title>dir_e838ebfdcf77e050c9d833b3366569df</title>
<g id="a_node15"><a xlink:href="dir_e838ebfdcf77e050c9d833b3366569df.html" target="_top" xlink:title="input">
<polygon fill="#edf0f7" stroke="red" stroke-dasharray="5,2" points="101,-129.28 60,-129.28 60,-110.28 101,-110.28 101,-129.28"/>
<text text-anchor="middle" x="80.5" y="-117.28" font-family="Helvetica,sans-Serif" font-size="10.00">input</text>
</a>
</g>
</g>
<!-- dir_8d252ebd3a650eb75bc4449c8c9c4277&#45;&gt;dir_e838ebfdcf77e050c9d833b3366569df -->
<g id="edge28" class="edge">
<title>dir_8d252ebd3a650eb75bc4449c8c9c4277&#45;&gt;dir_e838ebfdcf77e050c9d833b3366569df</title>
<g id="a_edge28"><a xlink:href="dir_000125_000081.html" target="_top">
<path fill="none" stroke="#63b8ff" d="M231.58,-165.27C198.53,-155.54 144.66,-139.68 110.98,-129.76"/>
<polygon fill="#63b8ff" stroke="#63b8ff" points="111.79,-126.35 101.21,-126.88 109.82,-133.06 111.79,-126.35"/>
</a>
</g>
<g id="a_edge28&#45;headlabel"><a xlink:href="dir_000125_000081.html" target="_top" xlink:title="1">
<text text-anchor="middle" x="116.04" y="-122.14" font-family="Helvetica,sans-Serif" font-size="10.00" fill="#63b8ff">1</text>
</a>
</g>
</g>
<!-- dir_c06739a7e81ea970219d6849a6b58298&#45;&gt;dir_fff8ef54a646d9df8d7b15d27474569f -->
<g id="edge30" class="edge">
<title>dir_c06739a7e81ea970219d6849a6b58298&#45;&gt;dir_fff8ef54a646d9df8d7b15d27474569f</title>
<g id="a_edge30"><a xlink:href="dir_000151_000109.html" target="_top">
<path fill="none" stroke="#63b8ff" d="M264.63,-55.03C268.01,-47.85 272.92,-37.46 277.12,-28.55"/>
<polygon fill="#63b8ff" stroke="#63b8ff" points="280.35,-29.91 281.45,-19.37 274.02,-26.92 280.35,-29.91"/>
</a>
</g>
<g id="a_edge30&#45;headlabel"><a xlink:href="dir_000151_000109.html" target="_top" xlink:title="1">
<text text-anchor="middle" x="281.38" y="-31.87" font-family="Helvetica,sans-Serif" font-size="10.00" fill="#63b8ff">1</text>
</a>
</g>
</g>
</g>
</svg>

<g id="navigator" transform="translate(0 0)" fill="#404254">
  <rect fill="#f2f5e9" fill-opacity="0.5" stroke="#606060" stroke-width=".5" x="0" y="0" width="60" height="60"/>
  <use id="zoomplus" xlink:href="#zoomPlus" x="17" y="9" onmousedown="handleZoom(evt,'in')"/>
  <use id="zoomminus" xlink:href="#zoomMin" x="42" y="9" onmousedown="handleZoom(evt,'out')"/>
  <use id="reset" xlink:href="#resetDef" x="30" y="36" onmousedown="handleReset()"/>
   <use id="arrowup" xlink:href="#arrowUp" x="0" y="0" onmousedown="handlePan(0,-1)"/>
  <use id="arrowright" xlink:href="#arrowRight" x="0" y="0" onmousedown="handlePan(1,0)"/>
  <use id="arrowdown" xlink:href="#arrowDown" x="0" y="0" onmousedown="handlePan(0,1)"/>
  <use id="arrowleft" xlink:href="#arrowLeft" x="0" y="0" onmousedown="handlePan(-1,0)"/>
</g>
<svg viewBox="0 0 15 15" width="100%" height="30px" preserveAspectRatio="xMaxYMin meet">
 <g id="arrow_out" transform="scale(0.3 0.3)">
  <a xlink:href="dir_014d03f1fa745a752e3155249a7cef2e_dep_org.svg" target="_base">
   <rect id="button" ry="5" rx="5" y="6" x="6" height="38" width="38"
        fill="#f2f5e9" fill-opacity="0.5" stroke="#606060" stroke-width="1.0"/>
   <path id="arrow"
     d="M 11.500037,31.436501 C 11.940474,20.09759 22.043105,11.32322 32.158766,21.979434 L 37.068811,17.246167 C 37.068811,17.246167 37.088388,32 37.088388,32 L 22.160133,31.978069 C 22.160133,31.978069 26.997745,27.140456 26.997745,27.140456 C 18.528582,18.264221 13.291696,25.230495 11.500037,31.436501 z"
     style="fill:#404040;"/>
  </a>
 </g>
</svg>

<style type='text/css'>
<![CDATA[
[data-mouse-over-selected='false'] { opacity: 0.7; }
[data-mouse-over-selected='true']  { opacity: 1.0; }
]]>
</style>
<script type="application/ecmascript"><![CDATA[
document.addEventListener('DOMContentLoaded', (event) => {
  highlightEdges();
  highlightAdjacentNodes();
});
]]></script>
</svg>
