<?xml version="1.0" encoding="UTF-8" standalone="no"?>
<!DOCTYPE svg PUBLIC "-//W3C//DTD SVG 1.1//EN"
 "http://www.w3.org/Graphics/SVG/1.1/DTD/svg11.dtd">
<!-- Generated by graphviz version 2.43.0 (0)
 -->
<!-- Title: scene Pages: 1 -->
<svg width="572pt" height="251pt"
 viewBox="0.00 0.00 572.00 251.00" xmlns="http://www.w3.org/2000/svg" xmlns:xlink="http://www.w3.org/1999/xlink">
<g id="graph0" class="graph" transform="scale(1 1) rotate(0) translate(4 247)">
<title>scene</title>
<g id="clust1" class="cluster">
<title>clusterdir_87b9f5c33f5a8f4d48db11d48f10a572</title>
<g id="a_clust1"><a xlink:href="dir_87b9f5c33f5a8f4d48db11d48f10a572.html" target="_top" xlink:title="modules">
<polygon fill="#edf0f7" stroke="#7f7f7f" stroke-dasharray="5,2" points="160.5,-8 160.5,-235 392.5,-235 392.5,-8 160.5,-8"/>
<text text-anchor="middle" x="276.5" y="-223" font-family="Helvetica,sans-Serif" font-size="10.00">modules</text>
</a>
</g>
</g>
<g id="clust2" class="cluster">
<title>clusterdir_656b8020a7b0aa8521ec0615ad91cdfe</title>
<g id="a_clust2"><a xlink:href="dir_656b8020a7b0aa8521ec0615ad91cdfe.html" target="_top">
<polygon fill="#edf0f7" stroke="#404040" stroke-width="2" points="168.5,-63 168.5,-208 324.5,-208 324.5,-63 168.5,-63"/>
</a>
</g>
</g>
<!-- dir_bb685b75eb98702a3ab447756cde824e -->
<g id="node1" class="node">
<title>dir_bb685b75eb98702a3ab447756cde824e</title>
<g id="a_node1"><a xlink:href="dir_bb685b75eb98702a3ab447756cde824e.html" target="_top" xlink:title="rendering">
<polygon fill="#a2b4d6" stroke="red" points="247,-35 184,-35 184,-16 247,-16 247,-35"/>
<text text-anchor="middle" x="215.5" y="-23" font-family="Helvetica,sans-Serif" font-size="10.00">rendering</text>
</a>
</g>
</g>
<!-- dir_7002044952ee345c222d895bec1a9397 -->
<g id="node2" class="node">
<title>dir_7002044952ee345c222d895bec1a9397</title>
<g id="a_node2"><a xlink:href="dir_7002044952ee345c222d895bec1a9397.html" target="_top" xlink:title="Spatial data management for game entities.">
<polygon fill="#a2b4d6" stroke="red" points="384.5,-90 334.5,-90 334.5,-71 384.5,-71 384.5,-90"/>
<text text-anchor="middle" x="359.5" y="-78" font-family="Helvetica,sans-Serif" font-size="10.00">spatial</text>
</a>
</g>
</g>
<!-- dir_656b8020a7b0aa8521ec0615ad91cdfe -->
<g id="node3" class="node">
<title>dir_656b8020a7b0aa8521ec0615ad91cdfe</title>
<text text-anchor="middle" x="227.5" y="-188" font-family="Helvetica,sans-Serif" font-size="10.00">scene</text>
</g>
<!-- dir_fd2aad167166b7c05ae381ec9356c22e -->
<g id="node4" class="node">
<title>dir_fd2aad167166b7c05ae381ec9356c22e</title>
<g id="a_node4"><a xlink:href="dir_fd2aad167166b7c05ae381ec9356c22e.html" target="_top" xlink:title="components">
<polygon fill="#a2b4d6" stroke="#404040" points="254,-90 177,-90 177,-71 254,-71 254,-90"/>
<text text-anchor="middle" x="215.5" y="-78" font-family="Helvetica,sans-Serif" font-size="10.00">components</text>
</a>
</g>
</g>
<!-- dir_656b8020a7b0aa8521ec0615ad91cdfe&#45;&gt;dir_fd2aad167166b7c05ae381ec9356c22e -->
<g id="edge4" class="edge">
<title>dir_656b8020a7b0aa8521ec0615ad91cdfe&#45;&gt;dir_fd2aad167166b7c05ae381ec9356c22e</title>
<g id="a_edge4"><a xlink:href="dir_000109_000037.html" target="_top">
<path fill="none" stroke="#63b8ff" d="M226.52,-180.66C224.57,-163.17 220.2,-123.8 217.59,-100.27"/>
<polygon fill="#63b8ff" stroke="#63b8ff" points="221.05,-99.71 216.46,-90.16 214.09,-100.48 221.05,-99.71"/>
</a>
</g>
<g id="a_edge4&#45;headlabel"><a xlink:href="dir_000109_000037.html" target="_top" xlink:title="4">
<text text-anchor="middle" x="224.26" y="-100.47" font-family="Helvetica,sans-Serif" font-size="10.00" fill="#63b8ff">4</text>
</a>
</g>
</g>
<!-- dir_ecc8c78a9a3196411b3443247737022f -->
<g id="node5" class="node">
<title>dir_ecc8c78a9a3196411b3443247737022f</title>
<g id="a_node5"><a xlink:href="dir_ecc8c78a9a3196411b3443247737022f.html" target="_top" xlink:title="systems">
<polygon fill="#a2b4d6" stroke="#404040" points="316.5,-145 258.5,-145 258.5,-126 316.5,-126 316.5,-145"/>
<text text-anchor="middle" x="287.5" y="-133" font-family="Helvetica,sans-Serif" font-size="10.00">systems</text>
</a>
</g>
</g>
<!-- dir_656b8020a7b0aa8521ec0615ad91cdfe&#45;&gt;dir_ecc8c78a9a3196411b3443247737022f -->
<g id="edge3" class="edge">
<title>dir_656b8020a7b0aa8521ec0615ad91cdfe&#45;&gt;dir_ecc8c78a9a3196411b3443247737022f</title>
<g id="a_edge3"><a xlink:href="dir_000109_000138.html" target="_top">
<path fill="none" stroke="#63b8ff" d="M237.14,-180.98C246.01,-173.15 259.37,-161.34 270.11,-151.86"/>
<polygon fill="#63b8ff" stroke="#63b8ff" points="272.51,-154.41 277.68,-145.17 267.87,-149.17 272.51,-154.41"/>
</a>
</g>
<g id="a_edge3&#45;headlabel"><a xlink:href="dir_000109_000138.html" target="_top" xlink:title="1">
<text text-anchor="middle" x="271.69" y="-156.42" font-family="Helvetica,sans-Serif" font-size="10.00" fill="#63b8ff">1</text>
</a>
</g>
</g>
<!-- dir_aff2aa077c6219aca897b0a4c890747b -->
<g id="node6" class="node">
<title>dir_aff2aa077c6219aca897b0a4c890747b</title>
<g id="a_node6"><a xlink:href="dir_aff2aa077c6219aca897b0a4c890747b.html" target="_top" xlink:title="types">
<polygon fill="#a2b4d6" stroke="#404040" points="316.5,-90 272.5,-90 272.5,-71 316.5,-71 316.5,-90"/>
<text text-anchor="middle" x="294.5" y="-78" font-family="Helvetica,sans-Serif" font-size="10.00">types</text>
</a>
</g>
</g>
<!-- dir_656b8020a7b0aa8521ec0615ad91cdfe&#45;&gt;dir_aff2aa077c6219aca897b0a4c890747b -->
<g id="edge2" class="edge">
<title>dir_656b8020a7b0aa8521ec0615ad91cdfe&#45;&gt;dir_aff2aa077c6219aca897b0a4c890747b</title>
<g id="a_edge2"><a xlink:href="dir_000109_000156.html" target="_top">
<path fill="none" stroke="#63b8ff" d="M229.21,-180.73C231.98,-167.94 238.3,-143.77 249.5,-126 256.41,-115.04 266.5,-104.74 275.37,-96.81"/>
<polygon fill="#63b8ff" stroke="#63b8ff" points="277.73,-99.4 283.06,-90.25 273.18,-94.08 277.73,-99.4"/>
</a>
</g>
<g id="a_edge2&#45;headlabel"><a xlink:href="dir_000109_000156.html" target="_top" xlink:title="3">
<text text-anchor="middle" x="276.84" y="-101.4" font-family="Helvetica,sans-Serif" font-size="10.00" fill="#63b8ff">3</text>
</a>
</g>
</g>
<!-- dir_1ca916e0b9fbc882dbfbd9e6594e5e22 -->
<g id="node7" class="node">
<title>dir_1ca916e0b9fbc882dbfbd9e6594e5e22</title>
<g id="a_node7"><a xlink:href="dir_1ca916e0b9fbc882dbfbd9e6594e5e22.html" target="_top" xlink:title="ecs">
<polygon fill="#edf0f7" stroke="red" stroke-dasharray="5,2" points="33,-35 0,-35 0,-16 33,-16 33,-35"/>
<text text-anchor="middle" x="16.5" y="-23" font-family="Helvetica,sans-Serif" font-size="10.00">ecs</text>
</a>
</g>
</g>
<!-- dir_656b8020a7b0aa8521ec0615ad91cdfe&#45;&gt;dir_1ca916e0b9fbc882dbfbd9e6594e5e22 -->
<g id="edge1" class="edge">
<title>dir_656b8020a7b0aa8521ec0615ad91cdfe&#45;&gt;dir_1ca916e0b9fbc882dbfbd9e6594e5e22</title>
<g id="a_edge1"><a xlink:href="dir_000109_000056.html" target="_top">
<path fill="none" stroke="#63b8ff" d="M209.37,-180.8C178.24,-165.33 113.52,-130.79 67.5,-90 51.85,-76.13 37.27,-57.1 27.73,-43.49"/>
<polygon fill="#63b8ff" stroke="#63b8ff" points="30.52,-41.36 21.99,-35.07 24.73,-45.31 30.52,-41.36"/>
</a>
</g>
<g id="a_edge1&#45;headlabel"><a xlink:href="dir_000109_000056.html" target="_top" xlink:title="4">
<text text-anchor="middle" x="34.89" y="-40.23" font-family="Helvetica,sans-Serif" font-size="10.00" fill="#63b8ff">4</text>
</a>
</g>
</g>
<!-- dir_fd2aad167166b7c05ae381ec9356c22e&#45;&gt;dir_bb685b75eb98702a3ab447756cde824e -->
<g id="edge8" class="edge">
<title>dir_fd2aad167166b7c05ae381ec9356c22e&#45;&gt;dir_bb685b75eb98702a3ab447756cde824e</title>
<g id="a_edge8"><a xlink:href="dir_000037_000104.html" target="_top">
<path fill="none" stroke="#63b8ff" d="M215.5,-70.75C215.5,-63.8 215.5,-53.85 215.5,-45.13"/>
<polygon fill="#63b8ff" stroke="#63b8ff" points="219,-45.09 215.5,-35.09 212,-45.09 219,-45.09"/>
</a>
</g>
<g id="a_edge8&#45;headlabel"><a xlink:href="dir_000037_000104.html" target="_top" xlink:title="1">
<text text-anchor="middle" x="221.84" y="-46.18" font-family="Helvetica,sans-Serif" font-size="10.00" fill="#63b8ff">1</text>
</a>
</g>
</g>
<!-- dir_fd2aad167166b7c05ae381ec9356c22e&#45;&gt;dir_1ca916e0b9fbc882dbfbd9e6594e5e22 -->
<g id="edge5" class="edge">
<title>dir_fd2aad167166b7c05ae381ec9356c22e&#45;&gt;dir_1ca916e0b9fbc882dbfbd9e6594e5e22</title>
<g id="a_edge5"><a xlink:href="dir_000037_000056.html" target="_top">
<path fill="none" stroke="#63b8ff" d="M178.61,-70.94C145.31,-63.02 94.78,-50.53 42.83,-35.24"/>
<polygon fill="#63b8ff" stroke="#63b8ff" points="43.7,-31.84 33.12,-32.35 41.71,-38.55 43.7,-31.84"/>
</a>
</g>
<g id="a_edge5&#45;headlabel"><a xlink:href="dir_000037_000056.html" target="_top" xlink:title="1">
<text text-anchor="middle" x="47.95" y="-27.65" font-family="Helvetica,sans-Serif" font-size="10.00" fill="#63b8ff">1</text>
</a>
</g>
</g>
<!-- dir_268add6b94670641c68bb834cdcb4292 -->
<g id="node8" class="node">
<title>dir_268add6b94670641c68bb834cdcb4292</title>
<g id="a_node8"><a xlink:href="dir_268add6b94670641c68bb834cdcb4292.html" target="_top" xlink:title="math">
<polygon fill="#edf0f7" stroke="red" stroke-dasharray="5,2" points="442.5,-35 400.5,-35 400.5,-16 442.5,-16 442.5,-35"/>
<text text-anchor="middle" x="421.5" y="-23" font-family="Helvetica,sans-Serif" font-size="10.00">math</text>
</a>
</g>
</g>
<!-- dir_fd2aad167166b7c05ae381ec9356c22e&#45;&gt;dir_268add6b94670641c68bb834cdcb4292 -->
<g id="edge6" class="edge">
<title>dir_fd2aad167166b7c05ae381ec9356c22e&#45;&gt;dir_268add6b94670641c68bb834cdcb4292</title>
<g id="a_edge6"><a xlink:href="dir_000037_000089.html" target="_top">
<path fill="none" stroke="#63b8ff" d="M238.76,-70.86C246.56,-68.13 255.35,-65.25 263.5,-63 318.55,-47.81 336.31,-50.59 390.49,-36.53"/>
<polygon fill="#63b8ff" stroke="#63b8ff" points="391.52,-39.87 400.28,-33.91 389.71,-33.11 391.52,-39.87"/>
</a>
</g>
<g id="a_edge6&#45;headlabel"><a xlink:href="dir_000037_000089.html" target="_top" xlink:title="1">
<text text-anchor="middle" x="388.78" y="-41.05" font-family="Helvetica,sans-Serif" font-size="10.00" fill="#63b8ff">1</text>
</a>
</g>
</g>
<!-- dir_5a58a2ffe8660a7fc51fed7e0c7c898d -->
<g id="node9" class="node">
<title>dir_5a58a2ffe8660a7fc51fed7e0c7c898d</title>
<g id="a_node9"><a xlink:href="dir_5a58a2ffe8660a7fc51fed7e0c7c898d.html" target="_top" xlink:title="core">
<polygon fill="#edf0f7" stroke="red" stroke-dasharray="5,2" points="152.5,-35 114.5,-35 114.5,-16 152.5,-16 152.5,-35"/>
<text text-anchor="middle" x="133.5" y="-23" font-family="Helvetica,sans-Serif" font-size="10.00">core</text>
</a>
</g>
</g>
<!-- dir_fd2aad167166b7c05ae381ec9356c22e&#45;&gt;dir_5a58a2ffe8660a7fc51fed7e0c7c898d -->
<g id="edge7" class="edge">
<title>dir_fd2aad167166b7c05ae381ec9356c22e&#45;&gt;dir_5a58a2ffe8660a7fc51fed7e0c7c898d</title>
<g id="a_edge7"><a xlink:href="dir_000037_000049.html" target="_top">
<path fill="none" stroke="#63b8ff" d="M202.33,-70.98C189.73,-62.84 170.5,-50.41 155.56,-40.76"/>
<polygon fill="#63b8ff" stroke="#63b8ff" points="157.21,-37.66 146.91,-35.17 153.41,-43.54 157.21,-37.66"/>
</a>
</g>
<g id="a_edge7&#45;headlabel"><a xlink:href="dir_000037_000049.html" target="_top" xlink:title="1">
<text text-anchor="middle" x="161.77" y="-34.73" font-family="Helvetica,sans-Serif" font-size="10.00" fill="#63b8ff">1</text>
</a>
</g>
</g>
<!-- dir_dde1b4dbeafc450b8ae5525133d75a82 -->
<g id="node10" class="node">
<title>dir_dde1b4dbeafc450b8ae5525133d75a82</title>
<g id="a_node10"><a xlink:href="dir_dde1b4dbeafc450b8ae5525133d75a82.html" target="_top" xlink:title="scene">
<polygon fill="#edf0f7" stroke="#7f7f7f" points="96,-35 51,-35 51,-16 96,-16 96,-35"/>
<text text-anchor="middle" x="73.5" y="-23" font-family="Helvetica,sans-Serif" font-size="10.00">scene</text>
</a>
</g>
</g>
<!-- dir_fd2aad167166b7c05ae381ec9356c22e&#45;&gt;dir_dde1b4dbeafc450b8ae5525133d75a82 -->
<g id="edge9" class="edge">
<title>dir_fd2aad167166b7c05ae381ec9356c22e&#45;&gt;dir_dde1b4dbeafc450b8ae5525133d75a82</title>
<g id="a_edge9"><a xlink:href="dir_000037_000110.html" target="_top">
<path fill="none" stroke="#63b8ff" d="M192.69,-70.98C169.19,-62.21 132.36,-48.47 105.86,-38.58"/>
<polygon fill="#63b8ff" stroke="#63b8ff" points="106.85,-35.21 96.26,-34.99 104.4,-41.77 106.85,-35.21"/>
</a>
</g>
<g id="a_edge9&#45;headlabel"><a xlink:href="dir_000037_000110.html" target="_top" xlink:title="1">
<text text-anchor="middle" x="111.21" y="-31.31" font-family="Helvetica,sans-Serif" font-size="10.00" fill="#63b8ff">1</text>
</a>
</g>
</g>
<!-- dir_ecc8c78a9a3196411b3443247737022f&#45;&gt;dir_7002044952ee345c222d895bec1a9397 -->
<g id="edge12" class="edge">
<title>dir_ecc8c78a9a3196411b3443247737022f&#45;&gt;dir_7002044952ee345c222d895bec1a9397</title>
<g id="a_edge12"><a xlink:href="dir_000138_000117.html" target="_top">
<path fill="none" stroke="#63b8ff" d="M299.07,-125.98C309.92,-118 326.38,-105.88 339.38,-96.31"/>
<polygon fill="#63b8ff" stroke="#63b8ff" points="341.74,-98.92 347.72,-90.17 337.59,-93.28 341.74,-98.92"/>
</a>
</g>
<g id="a_edge12&#45;headlabel"><a xlink:href="dir_000138_000117.html" target="_top" xlink:title="2">
<text text-anchor="middle" x="340.53" y="-100.83" font-family="Helvetica,sans-Serif" font-size="10.00" fill="#63b8ff">2</text>
</a>
</g>
</g>
<!-- dir_ecc8c78a9a3196411b3443247737022f&#45;&gt;dir_fd2aad167166b7c05ae381ec9356c22e -->
<g id="edge16" class="edge">
<title>dir_ecc8c78a9a3196411b3443247737022f&#45;&gt;dir_fd2aad167166b7c05ae381ec9356c22e</title>
<g id="a_edge16"><a xlink:href="dir_000138_000037.html" target="_top">
<path fill="none" stroke="#63b8ff" d="M275.93,-125.98C265.08,-118 248.62,-105.88 235.62,-96.31"/>
<polygon fill="#63b8ff" stroke="#63b8ff" points="237.41,-93.28 227.28,-90.17 233.26,-98.92 237.41,-93.28"/>
</a>
</g>
<g id="a_edge16&#45;headlabel"><a xlink:href="dir_000138_000037.html" target="_top" xlink:title="2">
<text text-anchor="middle" x="241.98" y="-90.62" font-family="Helvetica,sans-Serif" font-size="10.00" fill="#63b8ff">2</text>
</a>
</g>
</g>
<!-- dir_ecc8c78a9a3196411b3443247737022f&#45;&gt;dir_aff2aa077c6219aca897b0a4c890747b -->
<g id="edge13" class="edge">
<title>dir_ecc8c78a9a3196411b3443247737022f&#45;&gt;dir_aff2aa077c6219aca897b0a4c890747b</title>
<g id="a_edge13"><a xlink:href="dir_000138_000156.html" target="_top">
<path fill="none" stroke="#63b8ff" d="M288.66,-125.75C289.57,-118.8 290.89,-108.85 292.04,-100.13"/>
<polygon fill="#63b8ff" stroke="#63b8ff" points="295.53,-100.46 293.37,-90.09 288.59,-99.54 295.53,-100.46"/>
</a>
</g>
<g id="a_edge13&#45;headlabel"><a xlink:href="dir_000138_000156.html" target="_top" xlink:title="2">
<text text-anchor="middle" x="297.87" y="-101.9" font-family="Helvetica,sans-Serif" font-size="10.00" fill="#63b8ff">2</text>
</a>
</g>
</g>
<!-- dir_ecc8c78a9a3196411b3443247737022f&#45;&gt;dir_1ca916e0b9fbc882dbfbd9e6594e5e22 -->
<g id="edge10" class="edge">
<title>dir_ecc8c78a9a3196411b3443247737022f&#45;&gt;dir_1ca916e0b9fbc882dbfbd9e6594e5e22</title>
<g id="a_edge10"><a xlink:href="dir_000138_000056.html" target="_top">
<path fill="none" stroke="#63b8ff" d="M258.49,-129.31C224.69,-122.68 167.61,-109.65 121.5,-90 90.09,-76.61 56.85,-55.1 36.39,-40.88"/>
<polygon fill="#63b8ff" stroke="#63b8ff" points="38.38,-38 28.19,-35.1 34.34,-43.72 38.38,-38"/>
</a>
</g>
<g id="a_edge10&#45;headlabel"><a xlink:href="dir_000138_000056.html" target="_top" xlink:title="2">
<text text-anchor="middle" x="42.95" y="-35.25" font-family="Helvetica,sans-Serif" font-size="10.00" fill="#63b8ff">2</text>
</a>
</g>
</g>
<!-- dir_ecc8c78a9a3196411b3443247737022f&#45;&gt;dir_dde1b4dbeafc450b8ae5525133d75a82 -->
<g id="edge14" class="edge">
<title>dir_ecc8c78a9a3196411b3443247737022f&#45;&gt;dir_dde1b4dbeafc450b8ae5525133d75a82</title>
<g id="a_edge14"><a xlink:href="dir_000138_000110.html" target="_top">
<path fill="none" stroke="#63b8ff" d="M258.82,-125.85C234.22,-117.94 198.14,-105.19 168.5,-90 140.73,-75.77 111.23,-55.06 92.6,-41.2"/>
<polygon fill="#63b8ff" stroke="#63b8ff" points="94.48,-38.23 84.39,-35.01 90.26,-43.82 94.48,-38.23"/>
</a>
</g>
<g id="a_edge14&#45;headlabel"><a xlink:href="dir_000138_000110.html" target="_top" xlink:title="2">
<text text-anchor="middle" x="99.06" y="-35.63" font-family="Helvetica,sans-Serif" font-size="10.00" fill="#63b8ff">2</text>
</a>
</g>
</g>
<!-- dir_614bfcfaacae36fbea464e65a5a85120 -->
<g id="node11" class="node">
<title>dir_614bfcfaacae36fbea464e65a5a85120</title>
<g id="a_node11"><a xlink:href="dir_614bfcfaacae36fbea464e65a5a85120.html" target="_top" xlink:title="rendering">
<polygon fill="#edf0f7" stroke="red" stroke-dasharray="5,2" points="564,-35 501,-35 501,-16 564,-16 564,-35"/>
<text text-anchor="middle" x="532.5" y="-23" font-family="Helvetica,sans-Serif" font-size="10.00">rendering</text>
</a>
</g>
</g>
<!-- dir_ecc8c78a9a3196411b3443247737022f&#45;&gt;dir_614bfcfaacae36fbea464e65a5a85120 -->
<g id="edge11" class="edge">
<title>dir_ecc8c78a9a3196411b3443247737022f&#45;&gt;dir_614bfcfaacae36fbea464e65a5a85120</title>
<g id="a_edge11"><a xlink:href="dir_000138_000105.html" target="_top">
<path fill="none" stroke="#63b8ff" d="M316.82,-134.17C379.7,-132.78 524.28,-125.68 554.5,-90 565.76,-76.71 556.4,-57.32 546.65,-43.47"/>
<polygon fill="#63b8ff" stroke="#63b8ff" points="549.25,-41.11 540.39,-35.29 543.69,-45.36 549.25,-41.11"/>
</a>
</g>
<g id="a_edge11&#45;headlabel"><a xlink:href="dir_000138_000105.html" target="_top" xlink:title="2">
<text text-anchor="middle" x="553.69" y="-39.74" font-family="Helvetica,sans-Serif" font-size="10.00" fill="#63b8ff">2</text>
</a>
</g>
</g>
<!-- dir_fff8ef54a646d9df8d7b15d27474569f -->
<g id="node12" class="node">
<title>dir_fff8ef54a646d9df8d7b15d27474569f</title>
<g id="a_node12"><a xlink:href="dir_fff8ef54a646d9df8d7b15d27474569f.html" target="_top" xlink:title="runtime">
<polygon fill="#edf0f7" stroke="red" stroke-dasharray="5,2" points="458,-90 403,-90 403,-71 458,-71 458,-90"/>
<text text-anchor="middle" x="430.5" y="-78" font-family="Helvetica,sans-Serif" font-size="10.00">runtime</text>
</a>
</g>
</g>
<!-- dir_ecc8c78a9a3196411b3443247737022f&#45;&gt;dir_fff8ef54a646d9df8d7b15d27474569f -->
<g id="edge17" class="edge">
<title>dir_ecc8c78a9a3196411b3443247737022f&#45;&gt;dir_fff8ef54a646d9df8d7b15d27474569f</title>
<g id="a_edge17"><a xlink:href="dir_000138_000108.html" target="_top">
<path fill="none" stroke="#63b8ff" d="M310.48,-125.98C334,-117.27 370.79,-103.63 397.44,-93.75"/>
<polygon fill="#63b8ff" stroke="#63b8ff" points="398.95,-96.93 407.11,-90.17 396.51,-90.36 398.95,-96.93"/>
</a>
</g>
<g id="a_edge17&#45;headlabel"><a xlink:href="dir_000138_000108.html" target="_top" xlink:title="5">
<text text-anchor="middle" x="396.56" y="-98.34" font-family="Helvetica,sans-Serif" font-size="10.00" fill="#63b8ff">5</text>
</a>
</g>
</g>
<!-- dir_e1a38fd6dc0543c7f97fb1ccf1615de7 -->
<g id="node13" class="node">
<title>dir_e1a38fd6dc0543c7f97fb1ccf1615de7</title>
<g id="a_node13"><a xlink:href="dir_e1a38fd6dc0543c7f97fb1ccf1615de7.html" target="_top" xlink:title="mechanics">
<polygon fill="#edf0f7" stroke="red" stroke-dasharray="5,2" points="545,-90 476,-90 476,-71 545,-71 545,-90"/>
<text text-anchor="middle" x="510.5" y="-78" font-family="Helvetica,sans-Serif" font-size="10.00">mechanics</text>
</a>
</g>
</g>
<!-- dir_ecc8c78a9a3196411b3443247737022f&#45;&gt;dir_e1a38fd6dc0543c7f97fb1ccf1615de7 -->
<g id="edge15" class="edge">
<title>dir_ecc8c78a9a3196411b3443247737022f&#45;&gt;dir_e1a38fd6dc0543c7f97fb1ccf1615de7</title>
<g id="a_edge15"><a xlink:href="dir_000138_000090.html" target="_top">
<path fill="none" stroke="#63b8ff" d="M316.65,-127.57C354.66,-118.54 421.51,-102.65 465.9,-92.1"/>
<polygon fill="#63b8ff" stroke="#63b8ff" points="466.92,-95.45 475.84,-89.74 465.31,-88.64 466.92,-95.45"/>
</a>
</g>
<g id="a_edge15&#45;headlabel"><a xlink:href="dir_000138_000090.html" target="_top" xlink:title="2">
<text text-anchor="middle" x="464.08" y="-96.55" font-family="Helvetica,sans-Serif" font-size="10.00" fill="#63b8ff">2</text>
</a>
</g>
</g>
<!-- dir_aff2aa077c6219aca897b0a4c890747b&#45;&gt;dir_5a58a2ffe8660a7fc51fed7e0c7c898d -->
<g id="edge18" class="edge">
<title>dir_aff2aa077c6219aca897b0a4c890747b&#45;&gt;dir_5a58a2ffe8660a7fc51fed7e0c7c898d</title>
<g id="a_edge18"><a xlink:href="dir_000156_000049.html" target="_top">
<path fill="none" stroke="#63b8ff" d="M280.01,-70.89C274.91,-68.1 269.07,-65.17 263.5,-63 220.76,-46.3 205.43,-49.24 162.2,-36.63"/>
<polygon fill="#63b8ff" stroke="#63b8ff" points="163.11,-33.25 152.53,-33.7 161.08,-39.95 163.11,-33.25"/>
</a>
</g>
<g id="a_edge18&#45;headlabel"><a xlink:href="dir_000156_000049.html" target="_top" xlink:title="1">
<text text-anchor="middle" x="167.38" y="-29.08" font-family="Helvetica,sans-Serif" font-size="10.00" fill="#63b8ff">1</text>
</a>
</g>
</g>
<!-- dir_aff2aa077c6219aca897b0a4c890747b&#45;&gt;dir_dde1b4dbeafc450b8ae5525133d75a82 -->
<g id="edge20" class="edge">
<title>dir_aff2aa077c6219aca897b0a4c890747b&#45;&gt;dir_dde1b4dbeafc450b8ae5525133d75a82</title>
<g id="a_edge20"><a xlink:href="dir_000156_000110.html" target="_top">
<path fill="none" stroke="#63b8ff" d="M280.72,-70.97C275.49,-68.06 269.38,-65.03 263.5,-63 198.98,-40.74 177.02,-49.54 106.03,-34.89"/>
<polygon fill="#63b8ff" stroke="#63b8ff" points="106.68,-31.45 96.17,-32.77 105.21,-38.3 106.68,-31.45"/>
</a>
</g>
<g id="a_edge20&#45;headlabel"><a xlink:href="dir_000156_000110.html" target="_top" xlink:title="1">
<text text-anchor="middle" x="110.79" y="-26.93" font-family="Helvetica,sans-Serif" font-size="10.00" fill="#63b8ff">1</text>
</a>
</g>
</g>
<!-- dir_aff2aa077c6219aca897b0a4c890747b&#45;&gt;dir_614bfcfaacae36fbea464e65a5a85120 -->
<g id="edge19" class="edge">
<title>dir_aff2aa077c6219aca897b0a4c890747b&#45;&gt;dir_614bfcfaacae36fbea464e65a5a85120</title>
<g id="a_edge19"><a xlink:href="dir_000156_000105.html" target="_top">
<path fill="none" stroke="#63b8ff" d="M305.88,-70.9C310.25,-67.98 315.41,-64.96 320.5,-63 350.88,-51.29 438.24,-38.6 490.85,-31.69"/>
<polygon fill="#63b8ff" stroke="#63b8ff" points="491.42,-35.15 500.89,-30.39 490.52,-28.21 491.42,-35.15"/>
</a>
</g>
<g id="a_edge19&#45;headlabel"><a xlink:href="dir_000156_000105.html" target="_top" xlink:title="1">
<text text-anchor="middle" x="488.22" y="-35.93" font-family="Helvetica,sans-Serif" font-size="10.00" fill="#63b8ff">1</text>
</a>
</g>
</g>
</g>
</svg>
