<?xml version="1.0" encoding="UTF-8" standalone="no"?>
<!DOCTYPE svg PUBLIC "-//W3C//DTD SVG 1.1//EN"
 "http://www.w3.org/Graphics/SVG/1.1/DTD/svg11.dtd">
<!-- Generated by graphviz version 2.43.0 (0)
 -->
<!-- Title: ui Pages: 1 -->
<svg width="943pt" height="291pt"
 viewBox="0.00 0.00 943.09 291.17" xmlns="http://www.w3.org/2000/svg" xmlns:xlink="http://www.w3.org/1999/xlink">
<g id="graph0" class="graph" transform="scale(1 1) rotate(0) translate(4 287.17)">
<title>ui</title>
<g id="clust1" class="cluster">
<title>clusterdir_87b9f5c33f5a8f4d48db11d48f10a572</title>
<g id="a_clust1"><a xlink:href="dir_87b9f5c33f5a8f4d48db11d48f10a572.html" target="_top" xlink:title="modules">
<polygon fill="#edf0f7" stroke="#7f7f7f" stroke-dasharray="5,2" points="203.15,-40.17 203.15,-275.17 575.15,-275.17 575.15,-40.17 203.15,-40.17"/>
<text text-anchor="middle" x="389.15" y="-263.17" font-family="Helvetica,sans-Serif" font-size="10.00">modules</text>
</a>
</g>
</g>
<g id="clust2" class="cluster">
<title>clusterdir_bf15dcce3b0eb2b2bde353446d930b9c</title>
<g id="a_clust2"><a xlink:href="dir_bf15dcce3b0eb2b2bde353446d930b9c.html" target="_top">
<polygon fill="#edf0f7" stroke="#404040" stroke-width="2" points="353.15,-48.17 353.15,-248.17 567.15,-248.17 567.15,-48.17 353.15,-48.17"/>
</a>
</g>
</g>
<!-- dir_656b8020a7b0aa8521ec0615ad91cdfe -->
<g id="node1" class="node">
<title>dir_656b8020a7b0aa8521ec0615ad91cdfe</title>
<g id="a_node1"><a xlink:href="dir_656b8020a7b0aa8521ec0615ad91cdfe.html" target="_top" xlink:title="scene">
<polygon fill="#a2b4d6" stroke="red" points="276.65,-130.17 231.65,-130.17 231.65,-111.17 276.65,-111.17 276.65,-130.17"/>
<text text-anchor="middle" x="254.15" y="-118.17" font-family="Helvetica,sans-Serif" font-size="10.00">scene</text>
</a>
</g>
</g>
<!-- dir_7002044952ee345c222d895bec1a9397 -->
<g id="node2" class="node">
<title>dir_7002044952ee345c222d895bec1a9397</title>
<g id="a_node2"><a xlink:href="dir_7002044952ee345c222d895bec1a9397.html" target="_top" xlink:title="Spatial data management for game entities.">
<polygon fill="#a2b4d6" stroke="red" points="345.15,-130.17 295.15,-130.17 295.15,-111.17 345.15,-111.17 345.15,-130.17"/>
<text text-anchor="middle" x="320.15" y="-118.17" font-family="Helvetica,sans-Serif" font-size="10.00">spatial</text>
</a>
</g>
</g>
<!-- dir_bb685b75eb98702a3ab447756cde824e -->
<g id="node3" class="node">
<title>dir_bb685b75eb98702a3ab447756cde824e</title>
<g id="a_node3"><a xlink:href="dir_bb685b75eb98702a3ab447756cde824e.html" target="_top" xlink:title="rendering">
<polygon fill="#a2b4d6" stroke="red" points="309.65,-75.17 246.65,-75.17 246.65,-56.17 309.65,-56.17 309.65,-75.17"/>
<text text-anchor="middle" x="278.15" y="-63.17" font-family="Helvetica,sans-Serif" font-size="10.00">rendering</text>
</a>
</g>
</g>
<!-- dir_bf15dcce3b0eb2b2bde353446d930b9c -->
<g id="node4" class="node">
<title>dir_bf15dcce3b0eb2b2bde353446d930b9c</title>
<text text-anchor="middle" x="515.15" y="-228.17" font-family="Helvetica,sans-Serif" font-size="10.00">ui</text>
</g>
<!-- dir_40beb99ff63ba99bafdb722dd2fc39d6 -->
<g id="node5" class="node">
<title>dir_40beb99ff63ba99bafdb722dd2fc39d6</title>
<g id="a_node5"><a xlink:href="dir_40beb99ff63ba99bafdb722dd2fc39d6.html" target="_top" xlink:title="binding">
<polygon fill="#a2b4d6" stroke="#404040" points="518.65,-185.17 465.65,-185.17 465.65,-166.17 518.65,-166.17 518.65,-185.17"/>
<text text-anchor="middle" x="492.15" y="-173.17" font-family="Helvetica,sans-Serif" font-size="10.00">binding</text>
</a>
</g>
</g>
<!-- dir_bf15dcce3b0eb2b2bde353446d930b9c&#45;&gt;dir_40beb99ff63ba99bafdb722dd2fc39d6 -->
<g id="edge2" class="edge">
<title>dir_bf15dcce3b0eb2b2bde353446d930b9c&#45;&gt;dir_40beb99ff63ba99bafdb722dd2fc39d6</title>
<g id="a_edge2"><a xlink:href="dir_000173_000007.html" target="_top">
<path fill="none" stroke="#63b8ff" d="M511.35,-220.92C508.24,-213.74 503.73,-203.35 499.86,-194.44"/>
<polygon fill="#63b8ff" stroke="#63b8ff" points="503.07,-193.04 495.88,-185.26 496.65,-195.83 503.07,-193.04"/>
</a>
</g>
<g id="a_edge2&#45;headlabel"><a xlink:href="dir_000173_000007.html" target="_top" xlink:title="2">
<text text-anchor="middle" x="507.1" y="-192.71" font-family="Helvetica,sans-Serif" font-size="10.00" fill="#63b8ff">2</text>
</a>
</g>
</g>
<!-- dir_6f2112188f0c1ce958d999c9b794ddfc -->
<g id="node6" class="node">
<title>dir_6f2112188f0c1ce958d999c9b794ddfc</title>
<g id="a_node6"><a xlink:href="dir_6f2112188f0c1ce958d999c9b794ddfc.html" target="_top" xlink:title="commands">
<polygon fill="#a2b4d6" stroke="#404040" points="552.65,-75.17 481.65,-75.17 481.65,-56.17 552.65,-56.17 552.65,-75.17"/>
<text text-anchor="middle" x="517.15" y="-63.17" font-family="Helvetica,sans-Serif" font-size="10.00">commands</text>
</a>
</g>
</g>
<!-- dir_bf15dcce3b0eb2b2bde353446d930b9c&#45;&gt;dir_6f2112188f0c1ce958d999c9b794ddfc -->
<g id="edge5" class="edge">
<title>dir_bf15dcce3b0eb2b2bde353446d930b9c&#45;&gt;dir_6f2112188f0c1ce958d999c9b794ddfc</title>
<g id="a_edge5"><a xlink:href="dir_000173_000022.html" target="_top">
<path fill="none" stroke="#63b8ff" d="M521.03,-220.99C533.61,-201.33 560.94,-151.92 548.15,-111.17 544.92,-100.88 538.37,-90.89 532.12,-82.99"/>
<polygon fill="#63b8ff" stroke="#63b8ff" points="534.76,-80.69 525.63,-75.32 529.42,-85.22 534.76,-80.69"/>
</a>
</g>
<g id="a_edge5&#45;headlabel"><a xlink:href="dir_000173_000022.html" target="_top" xlink:title="4">
<text text-anchor="middle" x="539.25" y="-79.1" font-family="Helvetica,sans-Serif" font-size="10.00" fill="#63b8ff">4</text>
</a>
</g>
</g>
<!-- dir_e9d9767dc5aa2ecbd422c595afa60315 -->
<g id="node7" class="node">
<title>dir_e9d9767dc5aa2ecbd422c595afa60315</title>
<g id="a_node7"><a xlink:href="dir_e9d9767dc5aa2ecbd422c595afa60315.html" target="_top" xlink:title="layout">
<polygon fill="#a2b4d6" stroke="#404040" points="465.65,-130.17 418.65,-130.17 418.65,-111.17 465.65,-111.17 465.65,-130.17"/>
<text text-anchor="middle" x="442.15" y="-118.17" font-family="Helvetica,sans-Serif" font-size="10.00">layout</text>
</a>
</g>
</g>
<!-- dir_bf15dcce3b0eb2b2bde353446d930b9c&#45;&gt;dir_e9d9767dc5aa2ecbd422c595afa60315 -->
<g id="edge7" class="edge">
<title>dir_bf15dcce3b0eb2b2bde353446d930b9c&#45;&gt;dir_e9d9767dc5aa2ecbd422c595afa60315</title>
<g id="a_edge7"><a xlink:href="dir_000173_000089.html" target="_top">
<path fill="none" stroke="#63b8ff" d="M500.44,-222.22C487.09,-214.69 467.9,-201.8 457.15,-185.17 448.49,-171.79 444.82,-153.92 443.27,-140.55"/>
<polygon fill="#63b8ff" stroke="#63b8ff" points="446.72,-139.85 442.38,-130.18 439.74,-140.45 446.72,-139.85"/>
</a>
</g>
<g id="a_edge7&#45;headlabel"><a xlink:href="dir_000173_000089.html" target="_top" xlink:title="10">
<text text-anchor="middle" x="449.86" y="-140.69" font-family="Helvetica,sans-Serif" font-size="10.00" fill="#63b8ff">10</text>
</a>
</g>
</g>
<!-- dir_7742e0808b30ee69050dd8321a97f607 -->
<g id="node8" class="node">
<title>dir_7742e0808b30ee69050dd8321a97f607</title>
<g id="a_node8"><a xlink:href="dir_7742e0808b30ee69050dd8321a97f607.html" target="_top" xlink:title="transform">
<polygon fill="#a2b4d6" stroke="#404040" points="426.65,-185.17 361.65,-185.17 361.65,-166.17 426.65,-166.17 426.65,-185.17"/>
<text text-anchor="middle" x="394.15" y="-173.17" font-family="Helvetica,sans-Serif" font-size="10.00">transform</text>
</a>
</g>
</g>
<!-- dir_bf15dcce3b0eb2b2bde353446d930b9c&#45;&gt;dir_7742e0808b30ee69050dd8321a97f607 -->
<g id="edge6" class="edge">
<title>dir_bf15dcce3b0eb2b2bde353446d930b9c&#45;&gt;dir_7742e0808b30ee69050dd8321a97f607</title>
<g id="a_edge6"><a xlink:href="dir_000173_000158.html" target="_top">
<path fill="none" stroke="#63b8ff" d="M500.31,-223.18C481.23,-214.82 447.67,-200.12 423.38,-189.48"/>
<polygon fill="#63b8ff" stroke="#63b8ff" points="424.49,-186.14 413.93,-185.34 421.68,-192.56 424.49,-186.14"/>
</a>
</g>
<g id="a_edge6&#45;headlabel"><a xlink:href="dir_000173_000158.html" target="_top" xlink:title="6">
<text text-anchor="middle" x="428.92" y="-182.48" font-family="Helvetica,sans-Serif" font-size="10.00" fill="#63b8ff">6</text>
</a>
</g>
</g>
<!-- dir_6b8d22b47901fb001c79b00cc142bfba -->
<g id="node9" class="node">
<title>dir_6b8d22b47901fb001c79b00cc142bfba</title>
<g id="a_node9"><a xlink:href="dir_6b8d22b47901fb001c79b00cc142bfba.html" target="_top" xlink:title="widgets">
<polygon fill="#a2b4d6" stroke="#404040" points="538.65,-130.17 483.65,-130.17 483.65,-111.17 538.65,-111.17 538.65,-130.17"/>
<text text-anchor="middle" x="511.15" y="-118.17" font-family="Helvetica,sans-Serif" font-size="10.00">widgets</text>
</a>
</g>
</g>
<!-- dir_bf15dcce3b0eb2b2bde353446d930b9c&#45;&gt;dir_6b8d22b47901fb001c79b00cc142bfba -->
<g id="edge4" class="edge">
<title>dir_bf15dcce3b0eb2b2bde353446d930b9c&#45;&gt;dir_6b8d22b47901fb001c79b00cc142bfba</title>
<g id="a_edge4"><a xlink:href="dir_000173_000178.html" target="_top">
<path fill="none" stroke="#63b8ff" d="M519.05,-221.07C524.08,-208.88 531.78,-185.87 528.15,-166.17 526.48,-157.13 523.05,-147.54 519.71,-139.59"/>
<polygon fill="#63b8ff" stroke="#63b8ff" points="522.81,-137.95 515.52,-130.26 516.42,-140.82 522.81,-137.95"/>
</a>
</g>
<g id="a_edge4&#45;headlabel"><a xlink:href="dir_000173_000178.html" target="_top" xlink:title="19">
<text text-anchor="middle" x="526.87" y="-137.56" font-family="Helvetica,sans-Serif" font-size="10.00" fill="#63b8ff">19</text>
</a>
</g>
</g>
<!-- dir_1ca916e0b9fbc882dbfbd9e6594e5e22 -->
<g id="node10" class="node">
<title>dir_1ca916e0b9fbc882dbfbd9e6594e5e22</title>
<g id="a_node10"><a xlink:href="dir_1ca916e0b9fbc882dbfbd9e6594e5e22.html" target="_top" xlink:title="ecs">
<polygon fill="#edf0f7" stroke="red" stroke-dasharray="5,2" points="78.65,-20.17 45.65,-20.17 45.65,-1.17 78.65,-1.17 78.65,-20.17"/>
<text text-anchor="middle" x="62.15" y="-8.17" font-family="Helvetica,sans-Serif" font-size="10.00">ecs</text>
</a>
</g>
</g>
<!-- dir_bf15dcce3b0eb2b2bde353446d930b9c&#45;&gt;dir_1ca916e0b9fbc882dbfbd9e6594e5e22 -->
<g id="edge1" class="edge">
<title>dir_bf15dcce3b0eb2b2bde353446d930b9c&#45;&gt;dir_1ca916e0b9fbc882dbfbd9e6594e5e22</title>
<g id="a_edge1"><a xlink:href="dir_000173_000061.html" target="_top">
<path fill="none" stroke="#63b8ff" d="M500.41,-228.14C429.15,-220.47 120.58,-184.57 43.15,-130.17 8.16,-105.59 -12.79,-76.88 9.15,-40.17 15.08,-30.25 25.78,-23.58 36.03,-19.21"/>
<polygon fill="#63b8ff" stroke="#63b8ff" points="37.38,-22.44 45.54,-15.69 34.94,-15.88 37.38,-22.44"/>
</a>
</g>
<g id="a_edge1&#45;headlabel"><a xlink:href="dir_000173_000061.html" target="_top" xlink:title="12">
<text text-anchor="middle" x="34.99" y="-23.85" font-family="Helvetica,sans-Serif" font-size="10.00" fill="#63b8ff">12</text>
</a>
</g>
</g>
<!-- dir_5a58a2ffe8660a7fc51fed7e0c7c898d -->
<g id="node13" class="node">
<title>dir_5a58a2ffe8660a7fc51fed7e0c7c898d</title>
<g id="a_node13"><a xlink:href="dir_5a58a2ffe8660a7fc51fed7e0c7c898d.html" target="_top" xlink:title="core">
<polygon fill="#edf0f7" stroke="red" stroke-dasharray="5,2" points="802.15,-20.17 764.15,-20.17 764.15,-1.17 802.15,-1.17 802.15,-20.17"/>
<text text-anchor="middle" x="783.15" y="-8.17" font-family="Helvetica,sans-Serif" font-size="10.00">core</text>
</a>
</g>
</g>
<!-- dir_bf15dcce3b0eb2b2bde353446d930b9c&#45;&gt;dir_5a58a2ffe8660a7fc51fed7e0c7c898d -->
<g id="edge3" class="edge">
<title>dir_bf15dcce3b0eb2b2bde353446d930b9c&#45;&gt;dir_5a58a2ffe8660a7fc51fed7e0c7c898d</title>
<g id="a_edge3"><a xlink:href="dir_000173_000056.html" target="_top">
<path fill="none" stroke="#63b8ff" d="M529.83,-230C574.47,-230.46 711.77,-228.06 814.15,-185.17 851.62,-169.48 859.02,-159.48 887.15,-130.17 917.21,-98.85 952.67,-73.76 925.15,-40.17 911.19,-23.13 849.83,-16.07 812.48,-13.31"/>
<polygon fill="#63b8ff" stroke="#63b8ff" points="812.41,-9.79 802.19,-12.61 811.93,-16.78 812.41,-9.79"/>
</a>
</g>
<g id="a_edge3&#45;headlabel"><a xlink:href="dir_000173_000056.html" target="_top" xlink:title="9">
<text text-anchor="middle" x="816.19" y="-4.7" font-family="Helvetica,sans-Serif" font-size="10.00" fill="#63b8ff">9</text>
</a>
</g>
</g>
<!-- dir_fff8ef54a646d9df8d7b15d27474569f -->
<g id="node18" class="node">
<title>dir_fff8ef54a646d9df8d7b15d27474569f</title>
<g id="a_node18"><a xlink:href="dir_fff8ef54a646d9df8d7b15d27474569f.html" target="_top" xlink:title="runtime">
<polygon fill="#edf0f7" stroke="red" stroke-dasharray="5,2" points="915.65,-75.17 860.65,-75.17 860.65,-56.17 915.65,-56.17 915.65,-75.17"/>
<text text-anchor="middle" x="888.15" y="-63.17" font-family="Helvetica,sans-Serif" font-size="10.00">runtime</text>
</a>
</g>
</g>
<!-- dir_bf15dcce3b0eb2b2bde353446d930b9c&#45;&gt;dir_fff8ef54a646d9df8d7b15d27474569f -->
<g id="edge8" class="edge">
<title>dir_bf15dcce3b0eb2b2bde353446d930b9c&#45;&gt;dir_fff8ef54a646d9df8d7b15d27474569f</title>
<g id="a_edge8"><a xlink:href="dir_000173_000115.html" target="_top">
<path fill="none" stroke="#63b8ff" d="M529.87,-230.08C583.05,-230.72 767.36,-225.68 867.15,-130.17 879.33,-118.52 884.45,-99.66 886.6,-85.52"/>
<polygon fill="#63b8ff" stroke="#63b8ff" points="890.09,-85.75 887.76,-75.41 883.14,-84.94 890.09,-85.75"/>
</a>
</g>
<g id="a_edge8&#45;headlabel"><a xlink:href="dir_000173_000115.html" target="_top" xlink:title="22">
<text text-anchor="middle" x="892.5" y="-87.14" font-family="Helvetica,sans-Serif" font-size="10.00" fill="#63b8ff">22</text>
</a>
</g>
</g>
<!-- dir_40beb99ff63ba99bafdb722dd2fc39d6&#45;&gt;dir_e9d9767dc5aa2ecbd422c595afa60315 -->
<g id="edge10" class="edge">
<title>dir_40beb99ff63ba99bafdb722dd2fc39d6&#45;&gt;dir_e9d9767dc5aa2ecbd422c595afa60315</title>
<g id="a_edge10"><a xlink:href="dir_000007_000089.html" target="_top">
<path fill="none" stroke="#63b8ff" d="M483.89,-165.92C476.68,-158.28 466.04,-147 457.3,-137.74"/>
<polygon fill="#63b8ff" stroke="#63b8ff" points="459.66,-135.14 450.25,-130.26 454.57,-139.94 459.66,-135.14"/>
</a>
</g>
<g id="a_edge10&#45;headlabel"><a xlink:href="dir_000007_000089.html" target="_top" xlink:title="4">
<text text-anchor="middle" x="464.19" y="-133.3" font-family="Helvetica,sans-Serif" font-size="10.00" fill="#63b8ff">4</text>
</a>
</g>
</g>
<!-- dir_40beb99ff63ba99bafdb722dd2fc39d6&#45;&gt;dir_6b8d22b47901fb001c79b00cc142bfba -->
<g id="edge11" class="edge">
<title>dir_40beb99ff63ba99bafdb722dd2fc39d6&#45;&gt;dir_6b8d22b47901fb001c79b00cc142bfba</title>
<g id="a_edge11"><a xlink:href="dir_000007_000178.html" target="_top">
<path fill="none" stroke="#63b8ff" d="M495.29,-165.92C497.83,-158.82 501.51,-148.58 504.68,-139.73"/>
<polygon fill="#63b8ff" stroke="#63b8ff" points="507.99,-140.86 508.07,-130.26 501.4,-138.5 507.99,-140.86"/>
</a>
</g>
<g id="a_edge11&#45;headlabel"><a xlink:href="dir_000007_000178.html" target="_top" xlink:title="4">
<text text-anchor="middle" x="509.45" y="-142.7" font-family="Helvetica,sans-Serif" font-size="10.00" fill="#63b8ff">4</text>
</a>
</g>
</g>
<!-- dir_e1a38fd6dc0543c7f97fb1ccf1615de7 -->
<g id="node16" class="node">
<title>dir_e1a38fd6dc0543c7f97fb1ccf1615de7</title>
<g id="a_node16"><a xlink:href="dir_e1a38fd6dc0543c7f97fb1ccf1615de7.html" target="_top" xlink:title="mechanics">
<polygon fill="#edf0f7" stroke="red" stroke-dasharray="5,2" points="96.65,-75.17 27.65,-75.17 27.65,-56.17 96.65,-56.17 96.65,-75.17"/>
<text text-anchor="middle" x="62.15" y="-63.17" font-family="Helvetica,sans-Serif" font-size="10.00">mechanics</text>
</a>
</g>
</g>
<!-- dir_40beb99ff63ba99bafdb722dd2fc39d6&#45;&gt;dir_e1a38fd6dc0543c7f97fb1ccf1615de7 -->
<g id="edge9" class="edge">
<title>dir_40beb99ff63ba99bafdb722dd2fc39d6&#45;&gt;dir_e1a38fd6dc0543c7f97fb1ccf1615de7</title>
<g id="a_edge9"><a xlink:href="dir_000007_000096.html" target="_top">
<path fill="none" stroke="#63b8ff" d="M465.39,-170.61C393.11,-159.65 199.35,-130.24 199.15,-130.17 182.37,-124.54 180.05,-118.94 164.15,-111.17 140.43,-99.59 112.97,-87.69 92.52,-79.12"/>
<polygon fill="#63b8ff" stroke="#63b8ff" points="93.67,-75.81 83.1,-75.19 90.98,-82.27 93.67,-75.81"/>
</a>
</g>
<g id="a_edge9&#45;headlabel"><a xlink:href="dir_000007_000096.html" target="_top" xlink:title="10">
<text text-anchor="middle" x="98.08" y="-72.07" font-family="Helvetica,sans-Serif" font-size="10.00" fill="#63b8ff">10</text>
</a>
</g>
</g>
<!-- dir_40beb99ff63ba99bafdb722dd2fc39d6&#45;&gt;dir_fff8ef54a646d9df8d7b15d27474569f -->
<g id="edge12" class="edge">
<title>dir_40beb99ff63ba99bafdb722dd2fc39d6&#45;&gt;dir_fff8ef54a646d9df8d7b15d27474569f</title>
<g id="a_edge12"><a xlink:href="dir_000007_000115.html" target="_top">
<path fill="none" stroke="#63b8ff" d="M518.86,-174.07C591.24,-172.01 789.38,-163.4 844.15,-130.17 861.48,-119.66 873.68,-99.43 880.77,-84.62"/>
<polygon fill="#63b8ff" stroke="#63b8ff" points="884,-85.98 884.86,-75.42 877.6,-83.13 884,-85.98"/>
</a>
</g>
<g id="a_edge12&#45;headlabel"><a xlink:href="dir_000007_000115.html" target="_top" xlink:title="8">
<text text-anchor="middle" x="885.13" y="-87.92" font-family="Helvetica,sans-Serif" font-size="10.00" fill="#63b8ff">8</text>
</a>
</g>
</g>
<!-- dir_6f2112188f0c1ce958d999c9b794ddfc&#45;&gt;dir_1ca916e0b9fbc882dbfbd9e6594e5e22 -->
<g id="edge13" class="edge">
<title>dir_6f2112188f0c1ce958d999c9b794ddfc&#45;&gt;dir_1ca916e0b9fbc882dbfbd9e6594e5e22</title>
<g id="a_edge13"><a xlink:href="dir_000022_000061.html" target="_top">
<path fill="none" stroke="#63b8ff" d="M506.62,-56.03C499.16,-50.44 488.64,-43.59 478.15,-40.17 405.5,-16.53 169.85,-12.5 89.38,-11.81"/>
<polygon fill="#63b8ff" stroke="#63b8ff" points="89.11,-8.31 79.09,-11.74 89.06,-15.31 89.11,-8.31"/>
</a>
</g>
<g id="a_edge13&#45;headlabel"><a xlink:href="dir_000022_000061.html" target="_top" xlink:title="1">
<text text-anchor="middle" x="92.73" y="-3" font-family="Helvetica,sans-Serif" font-size="10.00" fill="#63b8ff">1</text>
</a>
</g>
</g>
<!-- dir_6f2112188f0c1ce958d999c9b794ddfc&#45;&gt;dir_5a58a2ffe8660a7fc51fed7e0c7c898d -->
<g id="edge14" class="edge">
<title>dir_6f2112188f0c1ce958d999c9b794ddfc&#45;&gt;dir_5a58a2ffe8660a7fc51fed7e0c7c898d</title>
<g id="a_edge14"><a xlink:href="dir_000022_000056.html" target="_top">
<path fill="none" stroke="#63b8ff" d="M533.98,-56.17C545.34,-50.78 560.81,-44.11 575.15,-40.17 637.42,-23.08 713.12,-16 753.84,-13.25"/>
<polygon fill="#63b8ff" stroke="#63b8ff" points="754.12,-16.74 763.88,-12.62 753.68,-9.76 754.12,-16.74"/>
</a>
</g>
<g id="a_edge14&#45;headlabel"><a xlink:href="dir_000022_000056.html" target="_top" xlink:title="1">
<text text-anchor="middle" x="750.72" y="-17.3" font-family="Helvetica,sans-Serif" font-size="10.00" fill="#63b8ff">1</text>
</a>
</g>
</g>
<!-- dir_7742e0808b30ee69050dd8321a97f607&#45;&gt;dir_656b8020a7b0aa8521ec0615ad91cdfe -->
<g id="edge19" class="edge">
<title>dir_7742e0808b30ee69050dd8321a97f607&#45;&gt;dir_656b8020a7b0aa8521ec0615ad91cdfe</title>
<g id="a_edge19"><a xlink:href="dir_000158_000116.html" target="_top">
<path fill="none" stroke="#63b8ff" d="M371.66,-166.16C348.63,-157.44 312.61,-143.81 286.52,-133.93"/>
<polygon fill="#63b8ff" stroke="#63b8ff" points="287.64,-130.61 277.05,-130.34 285.17,-137.16 287.64,-130.61"/>
</a>
</g>
<g id="a_edge19&#45;headlabel"><a xlink:href="dir_000158_000116.html" target="_top" xlink:title="1">
<text text-anchor="middle" x="292.01" y="-126.73" font-family="Helvetica,sans-Serif" font-size="10.00" fill="#63b8ff">1</text>
</a>
</g>
</g>
<!-- dir_7742e0808b30ee69050dd8321a97f607&#45;&gt;dir_7002044952ee345c222d895bec1a9397 -->
<g id="edge20" class="edge">
<title>dir_7742e0808b30ee69050dd8321a97f607&#45;&gt;dir_7002044952ee345c222d895bec1a9397</title>
<g id="a_edge20"><a xlink:href="dir_000158_000124.html" target="_top">
<path fill="none" stroke="#63b8ff" d="M382.26,-166.16C371,-158.09 353.86,-145.82 340.44,-136.21"/>
<polygon fill="#63b8ff" stroke="#63b8ff" points="342.42,-133.32 332.25,-130.34 338.35,-139.01 342.42,-133.32"/>
</a>
</g>
<g id="a_edge20&#45;headlabel"><a xlink:href="dir_000158_000124.html" target="_top" xlink:title="2">
<text text-anchor="middle" x="347" y="-130.61" font-family="Helvetica,sans-Serif" font-size="10.00" fill="#63b8ff">2</text>
</a>
</g>
</g>
<!-- dir_7742e0808b30ee69050dd8321a97f607&#45;&gt;dir_bb685b75eb98702a3ab447756cde824e -->
<g id="edge21" class="edge">
<title>dir_7742e0808b30ee69050dd8321a97f607&#45;&gt;dir_bb685b75eb98702a3ab447756cde824e</title>
<g id="a_edge21"><a xlink:href="dir_000158_000111.html" target="_top">
<path fill="none" stroke="#63b8ff" d="M361.6,-170.91C316.85,-165 239.94,-151.9 223.15,-130.17 209.4,-112.38 232.16,-92.99 252.44,-80.38"/>
<polygon fill="#63b8ff" stroke="#63b8ff" points="254.31,-83.34 261.16,-75.25 250.76,-77.3 254.31,-83.34"/>
</a>
</g>
<g id="a_edge21&#45;headlabel"><a xlink:href="dir_000158_000111.html" target="_top" xlink:title="1">
<text text-anchor="middle" x="252.65" y="-85.11" font-family="Helvetica,sans-Serif" font-size="10.00" fill="#63b8ff">1</text>
</a>
</g>
</g>
<!-- dir_7742e0808b30ee69050dd8321a97f607&#45;&gt;dir_e9d9767dc5aa2ecbd422c595afa60315 -->
<g id="edge23" class="edge">
<title>dir_7742e0808b30ee69050dd8321a97f607&#45;&gt;dir_e9d9767dc5aa2ecbd422c595afa60315</title>
<g id="a_edge23"><a xlink:href="dir_000158_000089.html" target="_top">
<path fill="none" stroke="#63b8ff" d="M402.08,-165.92C409,-158.28 419.21,-147 427.6,-137.74"/>
<polygon fill="#63b8ff" stroke="#63b8ff" points="430.25,-140.02 434.37,-130.26 425.06,-135.33 430.25,-140.02"/>
</a>
</g>
<g id="a_edge23&#45;headlabel"><a xlink:href="dir_000158_000089.html" target="_top" xlink:title="2">
<text text-anchor="middle" x="429.94" y="-142.09" font-family="Helvetica,sans-Serif" font-size="10.00" fill="#63b8ff">2</text>
</a>
</g>
</g>
<!-- dir_7742e0808b30ee69050dd8321a97f607&#45;&gt;dir_1ca916e0b9fbc882dbfbd9e6594e5e22 -->
<g id="edge15" class="edge">
<title>dir_7742e0808b30ee69050dd8321a97f607&#45;&gt;dir_1ca916e0b9fbc882dbfbd9e6594e5e22</title>
<g id="a_edge15"><a xlink:href="dir_000158_000061.html" target="_top">
<path fill="none" stroke="#63b8ff" d="M361.46,-172.25C292.28,-166.75 133.39,-152.08 84.15,-130.17 49.26,-114.65 34.34,-109.75 18.15,-75.17 11.55,-61.09 10.72,-53.84 18.15,-40.17 22.18,-32.75 29.08,-26.97 36.22,-22.61"/>
<polygon fill="#63b8ff" stroke="#63b8ff" points="38.03,-25.61 45.22,-17.83 34.75,-19.43 38.03,-25.61"/>
</a>
</g>
<g id="a_edge15&#45;headlabel"><a xlink:href="dir_000158_000061.html" target="_top" xlink:title="2">
<text text-anchor="middle" x="36.19" y="-27.3" font-family="Helvetica,sans-Serif" font-size="10.00" fill="#63b8ff">2</text>
</a>
</g>
</g>
<!-- dir_268add6b94670641c68bb834cdcb4292 -->
<g id="node11" class="node">
<title>dir_268add6b94670641c68bb834cdcb4292</title>
<g id="a_node11"><a xlink:href="dir_268add6b94670641c68bb834cdcb4292.html" target="_top" xlink:title="math">
<polygon fill="#edf0f7" stroke="red" stroke-dasharray="5,2" points="804.15,-75.17 762.15,-75.17 762.15,-56.17 804.15,-56.17 804.15,-75.17"/>
<text text-anchor="middle" x="783.15" y="-63.17" font-family="Helvetica,sans-Serif" font-size="10.00">math</text>
</a>
</g>
</g>
<!-- dir_7742e0808b30ee69050dd8321a97f607&#45;&gt;dir_268add6b94670641c68bb834cdcb4292 -->
<g id="edge16" class="edge">
<title>dir_7742e0808b30ee69050dd8321a97f607&#45;&gt;dir_268add6b94670641c68bb834cdcb4292</title>
<g id="a_edge16"><a xlink:href="dir_000158_000095.html" target="_top">
<path fill="none" stroke="#63b8ff" d="M425,-166.11C497.62,-145.95 678.73,-95.66 751.82,-75.37"/>
<polygon fill="#63b8ff" stroke="#63b8ff" points="753.1,-78.65 761.8,-72.6 751.23,-71.9 753.1,-78.65"/>
</a>
</g>
<g id="a_edge16&#45;headlabel"><a xlink:href="dir_000158_000095.html" target="_top" xlink:title="2">
<text text-anchor="middle" x="750.39" y="-79.85" font-family="Helvetica,sans-Serif" font-size="10.00" fill="#63b8ff">2</text>
</a>
</g>
</g>
<!-- dir_4e12247f2bbe360a59cd98a83515e8f1 -->
<g id="node12" class="node">
<title>dir_4e12247f2bbe360a59cd98a83515e8f1</title>
<g id="a_node12"><a xlink:href="dir_4e12247f2bbe360a59cd98a83515e8f1.html" target="_top" xlink:title="core">
<polygon fill="#edf0f7" stroke="red" stroke-dasharray="5,2" points="155.15,-130.17 117.15,-130.17 117.15,-111.17 155.15,-111.17 155.15,-130.17"/>
<text text-anchor="middle" x="136.15" y="-118.17" font-family="Helvetica,sans-Serif" font-size="10.00">core</text>
</a>
</g>
</g>
<!-- dir_7742e0808b30ee69050dd8321a97f607&#45;&gt;dir_4e12247f2bbe360a59cd98a83515e8f1 -->
<g id="edge17" class="edge">
<title>dir_7742e0808b30ee69050dd8321a97f607&#45;&gt;dir_4e12247f2bbe360a59cd98a83515e8f1</title>
<g id="a_edge17"><a xlink:href="dir_000158_000055.html" target="_top">
<path fill="none" stroke="#63b8ff" d="M361.61,-168.84C317.75,-160.84 237.29,-145.68 169.15,-130.17 167.88,-129.89 166.59,-129.59 165.29,-129.28"/>
<polygon fill="#63b8ff" stroke="#63b8ff" points="165.85,-125.81 155.3,-126.8 164.17,-132.6 165.85,-125.81"/>
</a>
</g>
<g id="a_edge17&#45;headlabel"><a xlink:href="dir_000158_000055.html" target="_top" xlink:title="1">
<text text-anchor="middle" x="170.02" y="-121.42" font-family="Helvetica,sans-Serif" font-size="10.00" fill="#63b8ff">1</text>
</a>
</g>
</g>
<!-- dir_7742e0808b30ee69050dd8321a97f607&#45;&gt;dir_5a58a2ffe8660a7fc51fed7e0c7c898d -->
<g id="edge18" class="edge">
<title>dir_7742e0808b30ee69050dd8321a97f607&#45;&gt;dir_5a58a2ffe8660a7fc51fed7e0c7c898d</title>
<g id="a_edge18"><a xlink:href="dir_000158_000056.html" target="_top">
<path fill="none" stroke="#63b8ff" d="M426.87,-169.31C521.3,-153.51 789.09,-106.31 813.15,-75.17 822.66,-62.87 819.29,-54.47 813.15,-40.17 811.04,-35.27 807.63,-30.81 803.85,-26.95"/>
<polygon fill="#63b8ff" stroke="#63b8ff" points="806.16,-24.32 796.36,-20.31 801.52,-29.56 806.16,-24.32"/>
</a>
</g>
<g id="a_edge18&#45;headlabel"><a xlink:href="dir_000158_000056.html" target="_top" xlink:title="2">
<text text-anchor="middle" x="810.74" y="-22.09" font-family="Helvetica,sans-Serif" font-size="10.00" fill="#63b8ff">2</text>
</a>
</g>
</g>
<!-- dir_7742e0808b30ee69050dd8321a97f607&#45;&gt;dir_e1a38fd6dc0543c7f97fb1ccf1615de7 -->
<g id="edge22" class="edge">
<title>dir_7742e0808b30ee69050dd8321a97f607&#45;&gt;dir_e1a38fd6dc0543c7f97fb1ccf1615de7</title>
<g id="a_edge22"><a xlink:href="dir_000158_000096.html" target="_top">
<path fill="none" stroke="#63b8ff" d="M361.3,-172.72C295.49,-168.31 150.15,-155.88 108.15,-130.17 90.6,-119.44 77.74,-99.25 70.15,-84.51"/>
<polygon fill="#63b8ff" stroke="#63b8ff" points="73.23,-82.85 65.74,-75.36 66.93,-85.88 73.23,-82.85"/>
</a>
</g>
<g id="a_edge22&#45;headlabel"><a xlink:href="dir_000158_000096.html" target="_top" xlink:title="1">
<text text-anchor="middle" x="77.35" y="-82.35" font-family="Helvetica,sans-Serif" font-size="10.00" fill="#63b8ff">1</text>
</a>
</g>
</g>
<!-- dir_7742e0808b30ee69050dd8321a97f607&#45;&gt;dir_fff8ef54a646d9df8d7b15d27474569f -->
<g id="edge24" class="edge">
<title>dir_7742e0808b30ee69050dd8321a97f607&#45;&gt;dir_fff8ef54a646d9df8d7b15d27474569f</title>
<g id="a_edge24"><a xlink:href="dir_000158_000115.html" target="_top">
<path fill="none" stroke="#63b8ff" d="M426.82,-170.07C436.57,-168.75 447.29,-167.35 457.15,-166.17 611.99,-147.75 661.39,-188.14 806.15,-130.17 832.62,-119.57 857.73,-97.78 873.02,-82.71"/>
<polygon fill="#63b8ff" stroke="#63b8ff" points="875.57,-85.11 880.08,-75.53 870.58,-80.2 875.57,-85.11"/>
</a>
</g>
<g id="a_edge24&#45;headlabel"><a xlink:href="dir_000158_000115.html" target="_top" xlink:title="2">
<text text-anchor="middle" x="875.07" y="-87.17" font-family="Helvetica,sans-Serif" font-size="10.00" fill="#63b8ff">2</text>
</a>
</g>
</g>
<!-- dir_6b8d22b47901fb001c79b00cc142bfba&#45;&gt;dir_bb685b75eb98702a3ab447756cde824e -->
<g id="edge31" class="edge">
<title>dir_6b8d22b47901fb001c79b00cc142bfba&#45;&gt;dir_bb685b75eb98702a3ab447756cde824e</title>
<g id="a_edge31"><a xlink:href="dir_000178_000111.html" target="_top">
<path fill="none" stroke="#63b8ff" d="M483.64,-113.15C480.77,-112.48 477.9,-111.81 475.15,-111.17 421.56,-98.8 359.69,-84.88 319.8,-75.96"/>
<polygon fill="#63b8ff" stroke="#63b8ff" points="320.42,-72.51 309.9,-73.75 318.9,-79.34 320.42,-72.51"/>
</a>
</g>
<g id="a_edge31&#45;headlabel"><a xlink:href="dir_000178_000111.html" target="_top" xlink:title="4">
<text text-anchor="middle" x="324.55" y="-68.03" font-family="Helvetica,sans-Serif" font-size="10.00" fill="#63b8ff">4</text>
</a>
</g>
</g>
<!-- dir_6b8d22b47901fb001c79b00cc142bfba&#45;&gt;dir_6f2112188f0c1ce958d999c9b794ddfc -->
<g id="edge29" class="edge">
<title>dir_6b8d22b47901fb001c79b00cc142bfba&#45;&gt;dir_6f2112188f0c1ce958d999c9b794ddfc</title>
<g id="a_edge29"><a xlink:href="dir_000178_000022.html" target="_top">
<path fill="none" stroke="#63b8ff" d="M512.14,-110.92C512.93,-103.98 514.05,-94.02 515.04,-85.31"/>
<polygon fill="#63b8ff" stroke="#63b8ff" points="518.53,-85.59 516.18,-75.26 511.57,-84.81 518.53,-85.59"/>
</a>
</g>
<g id="a_edge29&#45;headlabel"><a xlink:href="dir_000178_000022.html" target="_top" xlink:title="1">
<text text-anchor="middle" x="520.95" y="-86.98" font-family="Helvetica,sans-Serif" font-size="10.00" fill="#63b8ff">1</text>
</a>
</g>
</g>
<!-- dir_6b8d22b47901fb001c79b00cc142bfba&#45;&gt;dir_1ca916e0b9fbc882dbfbd9e6594e5e22 -->
<g id="edge25" class="edge">
<title>dir_6b8d22b47901fb001c79b00cc142bfba&#45;&gt;dir_1ca916e0b9fbc882dbfbd9e6594e5e22</title>
<g id="a_edge25"><a xlink:href="dir_000178_000061.html" target="_top">
<path fill="none" stroke="#63b8ff" d="M483.31,-112.74C480.56,-112.17 477.81,-111.63 475.15,-111.17 329.31,-86.12 279.27,-135.5 144.15,-75.17 122.88,-65.68 123.57,-54.42 105.15,-40.17 98.82,-35.28 91.67,-30.33 85.04,-25.95"/>
<polygon fill="#63b8ff" stroke="#63b8ff" points="86.75,-22.89 76.45,-20.41 82.96,-28.78 86.75,-22.89"/>
</a>
</g>
<g id="a_edge25&#45;headlabel"><a xlink:href="dir_000178_000061.html" target="_top" xlink:title="8">
<text text-anchor="middle" x="91.31" y="-19.96" font-family="Helvetica,sans-Serif" font-size="10.00" fill="#63b8ff">8</text>
</a>
</g>
</g>
<!-- dir_6b8d22b47901fb001c79b00cc142bfba&#45;&gt;dir_268add6b94670641c68bb834cdcb4292 -->
<g id="edge26" class="edge">
<title>dir_6b8d22b47901fb001c79b00cc142bfba&#45;&gt;dir_268add6b94670641c68bb834cdcb4292</title>
<g id="a_edge26"><a xlink:href="dir_000178_000095.html" target="_top">
<path fill="none" stroke="#63b8ff" d="M538.97,-114.94C583.35,-107.28 672.84,-91.38 748.15,-75.17 749.42,-74.9 750.72,-74.61 752.03,-74.32"/>
<polygon fill="#63b8ff" stroke="#63b8ff" points="753.15,-77.65 762.09,-71.98 751.56,-70.84 753.15,-77.65"/>
</a>
</g>
<g id="a_edge26&#45;headlabel"><a xlink:href="dir_000178_000095.html" target="_top" xlink:title="3">
<text text-anchor="middle" x="750.29" y="-78.74" font-family="Helvetica,sans-Serif" font-size="10.00" fill="#63b8ff">3</text>
</a>
</g>
</g>
<!-- dir_6b8d22b47901fb001c79b00cc142bfba&#45;&gt;dir_5a58a2ffe8660a7fc51fed7e0c7c898d -->
<g id="edge27" class="edge">
<title>dir_6b8d22b47901fb001c79b00cc142bfba&#45;&gt;dir_5a58a2ffe8660a7fc51fed7e0c7c898d</title>
<g id="a_edge27"><a xlink:href="dir_000178_000056.html" target="_top">
<path fill="none" stroke="#63b8ff" d="M538.79,-118.27C579.55,-115.22 657.2,-105.56 715.15,-75.17 716.69,-74.37 746.95,-45.89 766.58,-27.35"/>
<polygon fill="#63b8ff" stroke="#63b8ff" points="769.12,-29.76 773.98,-20.35 764.31,-24.68 769.12,-29.76"/>
</a>
</g>
<g id="a_edge27&#45;headlabel"><a xlink:href="dir_000178_000056.html" target="_top" xlink:title="5">
<text text-anchor="middle" x="768.46" y="-31.8" font-family="Helvetica,sans-Serif" font-size="10.00" fill="#63b8ff">5</text>
</a>
</g>
</g>
<!-- dir_614bfcfaacae36fbea464e65a5a85120 -->
<g id="node14" class="node">
<title>dir_614bfcfaacae36fbea464e65a5a85120</title>
<g id="a_node14"><a xlink:href="dir_614bfcfaacae36fbea464e65a5a85120.html" target="_top" xlink:title="rendering">
<polygon fill="#edf0f7" stroke="red" stroke-dasharray="5,2" points="646.65,-75.17 583.65,-75.17 583.65,-56.17 646.65,-56.17 646.65,-75.17"/>
<text text-anchor="middle" x="615.15" y="-63.17" font-family="Helvetica,sans-Serif" font-size="10.00">rendering</text>
</a>
</g>
</g>
<!-- dir_6b8d22b47901fb001c79b00cc142bfba&#45;&gt;dir_614bfcfaacae36fbea464e65a5a85120 -->
<g id="edge28" class="edge">
<title>dir_6b8d22b47901fb001c79b00cc142bfba&#45;&gt;dir_614bfcfaacae36fbea464e65a5a85120</title>
<g id="a_edge28"><a xlink:href="dir_000178_000112.html" target="_top">
<path fill="none" stroke="#63b8ff" d="M527.86,-111.16C544.36,-102.75 569.85,-89.76 589.03,-79.99"/>
<polygon fill="#63b8ff" stroke="#63b8ff" points="590.82,-83 598.14,-75.34 587.64,-76.77 590.82,-83"/>
</a>
</g>
<g id="a_edge28&#45;headlabel"><a xlink:href="dir_000178_000112.html" target="_top" xlink:title="2">
<text text-anchor="middle" x="588.9" y="-84.67" font-family="Helvetica,sans-Serif" font-size="10.00" fill="#63b8ff">2</text>
</a>
</g>
</g>
<!-- dir_94b0c4fb82528c4245604725780b49de -->
<g id="node15" class="node">
<title>dir_94b0c4fb82528c4245604725780b49de</title>
<g id="a_node15"><a xlink:href="dir_94b0c4fb82528c4245604725780b49de.html" target="_top" xlink:title="state">
<polygon fill="#edf0f7" stroke="red" stroke-dasharray="5,2" points="705.65,-75.17 664.65,-75.17 664.65,-56.17 705.65,-56.17 705.65,-75.17"/>
<text text-anchor="middle" x="685.15" y="-63.17" font-family="Helvetica,sans-Serif" font-size="10.00">state</text>
</a>
</g>
</g>
<!-- dir_6b8d22b47901fb001c79b00cc142bfba&#45;&gt;dir_94b0c4fb82528c4245604725780b49de -->
<g id="edge30" class="edge">
<title>dir_6b8d22b47901fb001c79b00cc142bfba&#45;&gt;dir_94b0c4fb82528c4245604725780b49de</title>
<g id="a_edge30"><a xlink:href="dir_000178_000128.html" target="_top">
<path fill="none" stroke="#63b8ff" d="M538.72,-111.28C570.28,-101.66 621.83,-85.96 654.59,-75.98"/>
<polygon fill="#63b8ff" stroke="#63b8ff" points="655.97,-79.22 664.52,-72.96 653.93,-72.52 655.97,-79.22"/>
</a>
</g>
<g id="a_edge30&#45;headlabel"><a xlink:href="dir_000178_000128.html" target="_top" xlink:title="2">
<text text-anchor="middle" x="653.36" y="-80.48" font-family="Helvetica,sans-Serif" font-size="10.00" fill="#63b8ff">2</text>
</a>
</g>
</g>
<!-- dir_6b8d22b47901fb001c79b00cc142bfba&#45;&gt;dir_e1a38fd6dc0543c7f97fb1ccf1615de7 -->
<g id="edge32" class="edge">
<title>dir_6b8d22b47901fb001c79b00cc142bfba&#45;&gt;dir_e1a38fd6dc0543c7f97fb1ccf1615de7</title>
<g id="a_edge32"><a xlink:href="dir_000178_000096.html" target="_top">
<path fill="none" stroke="#63b8ff" d="M483.32,-112.72C480.57,-112.14 477.81,-111.62 475.15,-111.17 314.8,-84.44 272.23,-97.08 111.15,-75.17 109.85,-75 108.53,-74.81 107.2,-74.62"/>
<polygon fill="#63b8ff" stroke="#63b8ff" points="107.32,-71.09 96.9,-73.03 106.25,-78.01 107.32,-71.09"/>
</a>
</g>
<g id="a_edge32&#45;headlabel"><a xlink:href="dir_000178_000096.html" target="_top" xlink:title="5">
<text text-anchor="middle" x="111.3" y="-66.34" font-family="Helvetica,sans-Serif" font-size="10.00" fill="#63b8ff">5</text>
</a>
</g>
</g>
<!-- dir_e838ebfdcf77e050c9d833b3366569df -->
<g id="node17" class="node">
<title>dir_e838ebfdcf77e050c9d833b3366569df</title>
<g id="a_node17"><a xlink:href="dir_e838ebfdcf77e050c9d833b3366569df.html" target="_top" xlink:title="input">
<polygon fill="#edf0f7" stroke="red" stroke-dasharray="5,2" points="194.65,-75.17 153.65,-75.17 153.65,-56.17 194.65,-56.17 194.65,-75.17"/>
<text text-anchor="middle" x="174.15" y="-63.17" font-family="Helvetica,sans-Serif" font-size="10.00">input</text>
</a>
</g>
</g>
<!-- dir_6b8d22b47901fb001c79b00cc142bfba&#45;&gt;dir_e838ebfdcf77e050c9d833b3366569df -->
<g id="edge33" class="edge">
<title>dir_6b8d22b47901fb001c79b00cc142bfba&#45;&gt;dir_e838ebfdcf77e050c9d833b3366569df</title>
<g id="a_edge33"><a xlink:href="dir_000178_000087.html" target="_top">
<path fill="none" stroke="#63b8ff" d="M483.3,-112.8C480.55,-112.21 477.8,-111.66 475.15,-111.17 356.79,-89.54 321.55,-102.47 204.83,-76.34"/>
<polygon fill="#63b8ff" stroke="#63b8ff" points="205.32,-72.86 194.79,-74.04 203.76,-79.69 205.32,-72.86"/>
</a>
</g>
<g id="a_edge33&#45;headlabel"><a xlink:href="dir_000178_000087.html" target="_top" xlink:title="2">
<text text-anchor="middle" x="209.46" y="-68.4" font-family="Helvetica,sans-Serif" font-size="10.00" fill="#63b8ff">2</text>
</a>
</g>
</g>
<!-- dir_6b8d22b47901fb001c79b00cc142bfba&#45;&gt;dir_fff8ef54a646d9df8d7b15d27474569f -->
<g id="edge34" class="edge">
<title>dir_6b8d22b47901fb001c79b00cc142bfba&#45;&gt;dir_fff8ef54a646d9df8d7b15d27474569f</title>
<g id="a_edge34"><a xlink:href="dir_000178_000115.html" target="_top">
<path fill="none" stroke="#63b8ff" d="M538.87,-115.78C605.54,-106.4 774.91,-82.59 850.6,-71.95"/>
<polygon fill="#63b8ff" stroke="#63b8ff" points="851.23,-75.4 860.64,-70.54 850.25,-68.47 851.23,-75.4"/>
</a>
</g>
<g id="a_edge34&#45;headlabel"><a xlink:href="dir_000178_000115.html" target="_top" xlink:title="7">
<text text-anchor="middle" x="848.06" y="-76.21" font-family="Helvetica,sans-Serif" font-size="10.00" fill="#63b8ff">7</text>
</a>
</g>
</g>
</g>
</svg>
