<?xml version="1.0" encoding="UTF-8" standalone="no"?>
<!DOCTYPE svg PUBLIC "-//W3C//DTD SVG 1.1//EN"
 "http://www.w3.org/Graphics/SVG/1.1/DTD/svg11.dtd">
<!-- Generated by graphviz version 2.43.0 (0)
 -->
<!-- Title: builders Pages: 1 -->
<!--zoomable 180 -->

<svg id="main" version="1.1" xmlns="http://www.w3.org/2000/svg" xmlns:xlink="http://www.w3.org/1999/xlink" xml:space="preserve" onload="init(evt)">

<style type="text/css"><![CDATA[
.node, .edge {opacity: 0.7;}
.node.selected, .edge.selected {opacity: 1;}
.edge:hover path { stroke: red; }
.edge:hover polygon { stroke: red; fill: red; }
]]></style>

<defs>
  <circle id="rim" cx="0" cy="0" r="7"/>
  <circle id="rim2" cx="0" cy="0" r="3.5"/>
  <g id="zoomPlus">
    <use xlink:href="#rim" fill="#404040"><set attributeName="fill" to="#808080" begin="zoomplus.mouseover" end="zoomplus.mouseout"/></use>
    <path d="M-4,0h8M0,-4v8" fill="none" stroke="white" stroke-width="1.5" pointer-events="none"/>
  </g>
  <g id="zoomMin">
    <use xlink:href="#rim" fill="#404040"><set attributeName="fill" to="#808080" begin="zoomminus.mouseover" end="zoomminus.mouseout"/></use>
    <path d="M-4,0h8" fill="none" stroke="white" stroke-width="1.5" pointer-events="none"/>
  </g>
  <g id="arrowUp" transform="translate(30 24)">
    <use xlink:href="#rim"/>
    <path pointer-events="none" fill="none" stroke="white" stroke-width="1.5" d="M0,-3.0v7 M-2.5,-0.5L0,-3.0L2.5,-0.5"/>
  </g>
  <g id="arrowRight" transform="rotate(90) translate(36 -43)">
    <use xlink:href="#rim"/>
    <path pointer-events="none" fill="none" stroke="white" stroke-width="1.5" d="M0,-3.0v7 M-2.5,-0.5L0,-3.0L2.5,-0.5"/>
  </g>
  <g id="arrowDown" transform="rotate(180) translate(-30 -48)">
    <use xlink:href="#rim"/>
    <path pointer-events="none" fill="none" stroke="white" stroke-width="1.5" d="M0,-3.0v7 M-2.5,-0.5L0,-3.0L2.5,-0.5"/>
  </g>
  <g id="arrowLeft" transform="rotate(270) translate(-36 17)">
    <use xlink:href="#rim"/>
    <path pointer-events="none" fill="none" stroke="white" stroke-width="1.5" d="M0,-3.0v7 M-2.5,-0.5L0,-3.0L2.5,-0.5"/>
  </g>
  <g id="resetDef">
    <use xlink:href="#rim2" fill="#404040"><set attributeName="fill" to="#808080" begin="reset.mouseover" end="reset.mouseout"/></use>
  </g>
</defs>
<script type="application/ecmascript">
var viewWidth = 701;
var viewHeight = 180;
var sectionId = 'dynsection-0';
</script>
<script type="application/ecmascript" xlink:href="svg.min.js"/>
<svg id="graph" class="graph">
<g id="viewport">
<title>builders</title>
<g id="clust1" class="cluster">
<title>clusterdir_a108d9e19c5aa79c49bc6bd27980ebb3</title>
<g id="a_clust1"><a xlink:href="dir_a108d9e19c5aa79c49bc6bd27980ebb3.html" target="_top" xlink:title="gameObject">
<polygon fill="#edf0f7" stroke="#7f7f7f" stroke-dasharray="5,2" points="273.5,-39 273.5,-164 361.5,-164 361.5,-39 273.5,-39"/>
<text text-anchor="middle" x="317.5" y="-152" font-family="Helvetica,sans-Serif" font-size="10.00">gameObject</text>
</a>
</g>
</g>
<g id="clust2" class="cluster">
<title>clusterdir_918a2537f64cade110d64935620958ab</title>
<g id="a_clust2"><a xlink:href="dir_918a2537f64cade110d64935620958ab.html" target="_top">
<polygon fill="#edf0f7" stroke="#404040" stroke-width="2" points="281.5,-47 281.5,-137 353.5,-137 353.5,-47 281.5,-47"/>
</a>
</g>
</g>
<!-- dir_918a2537f64cade110d64935620958ab -->
<g id="node1" class="node">
<title>dir_918a2537f64cade110d64935620958ab</title>
<text text-anchor="middle" x="317.5" y="-117" font-family="Helvetica,sans-Serif" font-size="10.00">builders</text>
</g>
<!-- dir_c01646dfa756089b07ac7b4e7ae63e35 -->
<g id="node2" class="node">
<title>dir_c01646dfa756089b07ac7b4e7ae63e35</title>
<g id="a_node2"><a xlink:href="dir_c01646dfa756089b07ac7b4e7ae63e35.html" target="_top" xlink:title="configs">
<polygon fill="#a2b4d6" stroke="#404040" points="344,-74 293,-74 293,-55 344,-55 344,-74"/>
<text text-anchor="middle" x="318.5" y="-62" font-family="Helvetica,sans-Serif" font-size="10.00">configs</text>
</a>
</g>
</g>
<!-- dir_918a2537f64cade110d64935620958ab&#45;&gt;dir_c01646dfa756089b07ac7b4e7ae63e35 -->
<g id="edge2" class="edge">
<title>dir_918a2537f64cade110d64935620958ab&#45;&gt;dir_c01646dfa756089b07ac7b4e7ae63e35</title>
<g id="a_edge2"><a xlink:href="dir_000011_000053.html" target="_top">
<path fill="none" stroke="#63b8ff" d="M317.67,-109.75C317.8,-102.8 317.98,-92.85 318.15,-84.13"/>
<polygon fill="#63b8ff" stroke="#63b8ff" points="321.65,-84.15 318.34,-74.09 314.65,-84.02 321.65,-84.15"/>
</a>
</g>
<g id="a_edge2&#45;headlabel"><a xlink:href="dir_000011_000053.html" target="_top" xlink:title="23">
<text text-anchor="middle" x="324.42" y="-85.3" font-family="Helvetica,sans-Serif" font-size="10.00" fill="#63b8ff">23</text>
</a>
</g>
</g>
<!-- dir_1ca916e0b9fbc882dbfbd9e6594e5e22 -->
<g id="node3" class="node">
<title>dir_1ca916e0b9fbc882dbfbd9e6594e5e22</title>
<g id="a_node3"><a xlink:href="dir_1ca916e0b9fbc882dbfbd9e6594e5e22.html" target="_top" xlink:title="ecs">
<polygon fill="#edf0f7" stroke="red" stroke-dasharray="5,2" points="33,-19 0,-19 0,0 33,0 33,-19"/>
<text text-anchor="middle" x="16.5" y="-7" font-family="Helvetica,sans-Serif" font-size="10.00">ecs</text>
</a>
</g>
</g>
<!-- dir_918a2537f64cade110d64935620958ab&#45;&gt;dir_1ca916e0b9fbc882dbfbd9e6594e5e22 -->
<g id="edge1" class="edge">
<title>dir_918a2537f64cade110d64935620958ab&#45;&gt;dir_1ca916e0b9fbc882dbfbd9e6594e5e22</title>
<g id="a_edge1"><a xlink:href="dir_000011_000062.html" target="_top">
<path fill="none" stroke="#63b8ff" d="M293.63,-109.94C238.01,-89.98 100.16,-40.52 42.5,-19.83"/>
<polygon fill="#63b8ff" stroke="#63b8ff" points="43.62,-16.51 33.02,-16.43 41.25,-23.1 43.62,-16.51"/>
</a>
</g>
<g id="a_edge1&#45;headlabel"><a xlink:href="dir_000011_000062.html" target="_top" xlink:title="38">
<text text-anchor="middle" x="47.96" y="-12.55" font-family="Helvetica,sans-Serif" font-size="10.00" fill="#63b8ff">38</text>
</a>
</g>
</g>
<!-- dir_c01646dfa756089b07ac7b4e7ae63e35&#45;&gt;dir_1ca916e0b9fbc882dbfbd9e6594e5e22 -->
<g id="edge4" class="edge">
<title>dir_c01646dfa756089b07ac7b4e7ae63e35&#45;&gt;dir_1ca916e0b9fbc882dbfbd9e6594e5e22</title>
<g id="a_edge4"><a xlink:href="dir_000053_000062.html" target="_top">
<path fill="none" stroke="#63b8ff" d="M292.66,-59.92C236.63,-52.06 104.65,-33.07 43.02,-18.96"/>
<polygon fill="#63b8ff" stroke="#63b8ff" points="43.6,-15.5 33.06,-16.57 41.96,-22.31 43.6,-15.5"/>
</a>
</g>
<g id="a_edge4&#45;headlabel"><a xlink:href="dir_000053_000062.html" target="_top" xlink:title="23">
<text text-anchor="middle" x="47.76" y="-11.08" font-family="Helvetica,sans-Serif" font-size="10.00" fill="#63b8ff">23</text>
</a>
</g>
</g>
<!-- dir_87b9f5c33f5a8f4d48db11d48f10a572 -->
<g id="node4" class="node">
<title>dir_87b9f5c33f5a8f4d48db11d48f10a572</title>
<g id="a_node4"><a xlink:href="dir_87b9f5c33f5a8f4d48db11d48f10a572.html" target="_top" xlink:title="modules">
<polygon fill="#edf0f7" stroke="red" stroke-dasharray="5,2" points="110,-19 51,-19 51,0 110,0 110,-19"/>
<text text-anchor="middle" x="80.5" y="-7" font-family="Helvetica,sans-Serif" font-size="10.00">modules</text>
</a>
</g>
</g>
<!-- dir_c01646dfa756089b07ac7b4e7ae63e35&#45;&gt;dir_87b9f5c33f5a8f4d48db11d48f10a572 -->
<g id="edge10" class="edge">
<title>dir_c01646dfa756089b07ac7b4e7ae63e35&#45;&gt;dir_87b9f5c33f5a8f4d48db11d48f10a572</title>
<g id="a_edge10"><a xlink:href="dir_000053_000103.html" target="_top">
<path fill="none" stroke="#63b8ff" d="M292.58,-57.73C250.96,-48.46 168.97,-30.2 120.02,-19.3"/>
<polygon fill="#63b8ff" stroke="#63b8ff" points="120.63,-15.85 110.1,-17.09 119.1,-22.68 120.63,-15.85"/>
</a>
</g>
<g id="a_edge10&#45;headlabel"><a xlink:href="dir_000053_000103.html" target="_top" xlink:title="29">
<text text-anchor="middle" x="124.75" y="-11.36" font-family="Helvetica,sans-Serif" font-size="10.00" fill="#63b8ff">29</text>
</a>
</g>
</g>
<!-- dir_3e2f71566425d27b6ac8140f1223a941 -->
<g id="node5" class="node">
<title>dir_3e2f71566425d27b6ac8140f1223a941</title>
<g id="a_node5"><a xlink:href="dir_3e2f71566425d27b6ac8140f1223a941.html" target="_top" xlink:title="util">
<polygon fill="#edf0f7" stroke="red" stroke-dasharray="5,2" points="160.5,-19 128.5,-19 128.5,0 160.5,0 160.5,-19"/>
<text text-anchor="middle" x="144.5" y="-7" font-family="Helvetica,sans-Serif" font-size="10.00">util</text>
</a>
</g>
</g>
<!-- dir_c01646dfa756089b07ac7b4e7ae63e35&#45;&gt;dir_3e2f71566425d27b6ac8140f1223a941 -->
<g id="edge6" class="edge">
<title>dir_c01646dfa756089b07ac7b4e7ae63e35&#45;&gt;dir_3e2f71566425d27b6ac8140f1223a941</title>
<g id="a_edge6"><a xlink:href="dir_000053_000183.html" target="_top">
<path fill="none" stroke="#63b8ff" d="M292.84,-56.15C264.93,-48.1 218.81,-34.58 170.33,-19.18"/>
<polygon fill="#63b8ff" stroke="#63b8ff" points="171.2,-15.78 160.61,-16.08 169.07,-22.45 171.2,-15.78"/>
</a>
</g>
<g id="a_edge6&#45;headlabel"><a xlink:href="dir_000053_000183.html" target="_top" xlink:title="1">
<text text-anchor="middle" x="175.49" y="-11.67" font-family="Helvetica,sans-Serif" font-size="10.00" fill="#63b8ff">1</text>
</a>
</g>
</g>
<!-- dir_e1a38fd6dc0543c7f97fb1ccf1615de7 -->
<g id="node6" class="node">
<title>dir_e1a38fd6dc0543c7f97fb1ccf1615de7</title>
<g id="a_node6"><a xlink:href="dir_e1a38fd6dc0543c7f97fb1ccf1615de7.html" target="_top" xlink:title="mechanics">
<polygon fill="#edf0f7" stroke="red" stroke-dasharray="5,2" points="248,-19 179,-19 179,0 248,0 248,-19"/>
<text text-anchor="middle" x="213.5" y="-7" font-family="Helvetica,sans-Serif" font-size="10.00">mechanics</text>
</a>
</g>
</g>
<!-- dir_c01646dfa756089b07ac7b4e7ae63e35&#45;&gt;dir_e1a38fd6dc0543c7f97fb1ccf1615de7 -->
<g id="edge13" class="edge">
<title>dir_c01646dfa756089b07ac7b4e7ae63e35&#45;&gt;dir_e1a38fd6dc0543c7f97fb1ccf1615de7</title>
<g id="a_edge13"><a xlink:href="dir_000053_000097.html" target="_top">
<path fill="none" stroke="#63b8ff" d="M301.63,-54.98C284.89,-46.54 259,-33.47 239.61,-23.68"/>
<polygon fill="#63b8ff" stroke="#63b8ff" points="241.18,-20.55 230.68,-19.17 238.03,-26.8 241.18,-20.55"/>
</a>
</g>
<g id="a_edge13&#45;headlabel"><a xlink:href="dir_000053_000097.html" target="_top" xlink:title="15">
<text text-anchor="middle" x="245.67" y="-17.14" font-family="Helvetica,sans-Serif" font-size="10.00" fill="#63b8ff">15</text>
</a>
</g>
</g>
<!-- dir_268add6b94670641c68bb834cdcb4292 -->
<g id="node7" class="node">
<title>dir_268add6b94670641c68bb834cdcb4292</title>
<g id="a_node7"><a xlink:href="dir_268add6b94670641c68bb834cdcb4292.html" target="_top" xlink:title="math">
<polygon fill="#edf0f7" stroke="red" stroke-dasharray="5,2" points="308.5,-19 266.5,-19 266.5,0 308.5,0 308.5,-19"/>
<text text-anchor="middle" x="287.5" y="-7" font-family="Helvetica,sans-Serif" font-size="10.00">math</text>
</a>
</g>
</g>
<!-- dir_c01646dfa756089b07ac7b4e7ae63e35&#45;&gt;dir_268add6b94670641c68bb834cdcb4292 -->
<g id="edge5" class="edge">
<title>dir_c01646dfa756089b07ac7b4e7ae63e35&#45;&gt;dir_268add6b94670641c68bb834cdcb4292</title>
<g id="a_edge5"><a xlink:href="dir_000053_000096.html" target="_top">
<path fill="none" stroke="#63b8ff" d="M313.38,-54.75C309.14,-47.49 302.97,-36.95 297.72,-27.98"/>
<polygon fill="#63b8ff" stroke="#63b8ff" points="300.59,-25.95 292.52,-19.09 294.55,-29.49 300.59,-25.95"/>
</a>
</g>
<g id="a_edge5&#45;headlabel"><a xlink:href="dir_000053_000096.html" target="_top" xlink:title="7">
<text text-anchor="middle" x="304.86" y="-25.12" font-family="Helvetica,sans-Serif" font-size="10.00" fill="#63b8ff">7</text>
</a>
</g>
</g>
<!-- dir_dde1b4dbeafc450b8ae5525133d75a82 -->
<g id="node8" class="node">
<title>dir_dde1b4dbeafc450b8ae5525133d75a82</title>
<g id="a_node8"><a xlink:href="dir_dde1b4dbeafc450b8ae5525133d75a82.html" target="_top" xlink:title="scene">
<polygon fill="#edf0f7" stroke="#7f7f7f" points="372,-19 327,-19 327,0 372,0 372,-19"/>
<text text-anchor="middle" x="349.5" y="-7" font-family="Helvetica,sans-Serif" font-size="10.00">scene</text>
</a>
</g>
</g>
<!-- dir_c01646dfa756089b07ac7b4e7ae63e35&#45;&gt;dir_dde1b4dbeafc450b8ae5525133d75a82 -->
<g id="edge12" class="edge">
<title>dir_c01646dfa756089b07ac7b4e7ae63e35&#45;&gt;dir_dde1b4dbeafc450b8ae5525133d75a82</title>
<g id="a_edge12"><a xlink:href="dir_000053_000118.html" target="_top">
<path fill="none" stroke="#63b8ff" d="M323.62,-54.75C327.86,-47.49 334.03,-36.95 339.28,-27.98"/>
<polygon fill="#63b8ff" stroke="#63b8ff" points="342.45,-29.49 344.48,-19.09 336.41,-25.95 342.45,-29.49"/>
</a>
</g>
<g id="a_edge12&#45;headlabel"><a xlink:href="dir_000053_000118.html" target="_top" xlink:title="3">
<text text-anchor="middle" x="343.08" y="-31.52" font-family="Helvetica,sans-Serif" font-size="10.00" fill="#63b8ff">3</text>
</a>
</g>
</g>
<!-- dir_614bfcfaacae36fbea464e65a5a85120 -->
<g id="node9" class="node">
<title>dir_614bfcfaacae36fbea464e65a5a85120</title>
<g id="a_node9"><a xlink:href="dir_614bfcfaacae36fbea464e65a5a85120.html" target="_top" xlink:title="rendering">
<polygon fill="#edf0f7" stroke="red" stroke-dasharray="5,2" points="453,-19 390,-19 390,0 453,0 453,-19"/>
<text text-anchor="middle" x="421.5" y="-7" font-family="Helvetica,sans-Serif" font-size="10.00">rendering</text>
</a>
</g>
</g>
<!-- dir_c01646dfa756089b07ac7b4e7ae63e35&#45;&gt;dir_614bfcfaacae36fbea464e65a5a85120 -->
<g id="edge9" class="edge">
<title>dir_c01646dfa756089b07ac7b4e7ae63e35&#45;&gt;dir_614bfcfaacae36fbea464e65a5a85120</title>
<g id="a_edge9"><a xlink:href="dir_000053_000113.html" target="_top">
<path fill="none" stroke="#63b8ff" d="M335.05,-54.98C351.39,-46.57 376.63,-33.59 395.63,-23.81"/>
<polygon fill="#63b8ff" stroke="#63b8ff" points="397.36,-26.86 404.65,-19.17 394.16,-20.63 397.36,-26.86"/>
</a>
</g>
<g id="a_edge9&#45;headlabel"><a xlink:href="dir_000053_000113.html" target="_top" xlink:title="3">
<text text-anchor="middle" x="395.46" y="-28.53" font-family="Helvetica,sans-Serif" font-size="10.00" fill="#63b8ff">3</text>
</a>
</g>
</g>
<!-- dir_c65593c1e2ce5122a06a0735d96badb1 -->
<g id="node10" class="node">
<title>dir_c65593c1e2ce5122a06a0735d96badb1</title>
<g id="a_node10"><a xlink:href="dir_c65593c1e2ce5122a06a0735d96badb1.html" target="_top" xlink:title="ext">
<polygon fill="#edf0f7" stroke="red" stroke-dasharray="5,2" points="503.5,-19 471.5,-19 471.5,0 503.5,0 503.5,-19"/>
<text text-anchor="middle" x="487.5" y="-7" font-family="Helvetica,sans-Serif" font-size="10.00">ext</text>
</a>
</g>
</g>
<!-- dir_c01646dfa756089b07ac7b4e7ae63e35&#45;&gt;dir_c65593c1e2ce5122a06a0735d96badb1 -->
<g id="edge11" class="edge">
<title>dir_c01646dfa756089b07ac7b4e7ae63e35&#45;&gt;dir_c65593c1e2ce5122a06a0735d96badb1</title>
<g id="a_edge11"><a xlink:href="dir_000053_000072.html" target="_top">
<path fill="none" stroke="#63b8ff" d="M344.06,-55.84C371.04,-47.7 415.04,-34.28 461.71,-19.19"/>
<polygon fill="#63b8ff" stroke="#63b8ff" points="462.95,-22.47 471.38,-16.05 460.79,-15.81 462.95,-22.47"/>
</a>
</g>
<g id="a_edge11&#45;headlabel"><a xlink:href="dir_000053_000072.html" target="_top" xlink:title="2">
<text text-anchor="middle" x="460.41" y="-23.78" font-family="Helvetica,sans-Serif" font-size="10.00" fill="#63b8ff">2</text>
</a>
</g>
</g>
<!-- dir_4e12247f2bbe360a59cd98a83515e8f1 -->
<g id="node11" class="node">
<title>dir_4e12247f2bbe360a59cd98a83515e8f1</title>
<g id="a_node11"><a xlink:href="dir_4e12247f2bbe360a59cd98a83515e8f1.html" target="_top" xlink:title="core">
<polygon fill="#edf0f7" stroke="red" stroke-dasharray="5,2" points="559.5,-19 521.5,-19 521.5,0 559.5,0 559.5,-19"/>
<text text-anchor="middle" x="540.5" y="-7" font-family="Helvetica,sans-Serif" font-size="10.00">core</text>
</a>
</g>
</g>
<!-- dir_c01646dfa756089b07ac7b4e7ae63e35&#45;&gt;dir_4e12247f2bbe360a59cd98a83515e8f1 -->
<g id="edge7" class="edge">
<title>dir_c01646dfa756089b07ac7b4e7ae63e35&#45;&gt;dir_4e12247f2bbe360a59cd98a83515e8f1</title>
<g id="a_edge7"><a xlink:href="dir_000053_000057.html" target="_top">
<path fill="none" stroke="#63b8ff" d="M344.06,-58.23C379.55,-50.78 445.95,-36.38 511.59,-19.1"/>
<polygon fill="#63b8ff" stroke="#63b8ff" points="512.5,-22.48 521.27,-16.53 510.71,-15.71 512.5,-22.48"/>
</a>
</g>
<g id="a_edge7&#45;headlabel"><a xlink:href="dir_000053_000057.html" target="_top" xlink:title="2">
<text text-anchor="middle" x="509.76" y="-23.65" font-family="Helvetica,sans-Serif" font-size="10.00" fill="#63b8ff">2</text>
</a>
</g>
</g>
<!-- dir_5a58a2ffe8660a7fc51fed7e0c7c898d -->
<g id="node12" class="node">
<title>dir_5a58a2ffe8660a7fc51fed7e0c7c898d</title>
<g id="a_node12"><a xlink:href="dir_5a58a2ffe8660a7fc51fed7e0c7c898d.html" target="_top" xlink:title="core">
<polygon fill="#edf0f7" stroke="red" stroke-dasharray="5,2" points="615.5,-19 577.5,-19 577.5,0 615.5,0 615.5,-19"/>
<text text-anchor="middle" x="596.5" y="-7" font-family="Helvetica,sans-Serif" font-size="10.00">core</text>
</a>
</g>
</g>
<!-- dir_c01646dfa756089b07ac7b4e7ae63e35&#45;&gt;dir_5a58a2ffe8660a7fc51fed7e0c7c898d -->
<g id="edge8" class="edge">
<title>dir_c01646dfa756089b07ac7b4e7ae63e35&#45;&gt;dir_5a58a2ffe8660a7fc51fed7e0c7c898d</title>
<g id="a_edge8"><a xlink:href="dir_000053_000058.html" target="_top">
<path fill="none" stroke="#63b8ff" d="M344.26,-59.95C388.18,-53.66 480.49,-39.51 567.54,-18.99"/>
<polygon fill="#63b8ff" stroke="#63b8ff" points="568.39,-22.38 577.3,-16.66 566.76,-15.58 568.39,-22.38"/>
</a>
</g>
<g id="a_edge8&#45;headlabel"><a xlink:href="dir_000053_000058.html" target="_top" xlink:title="2">
<text text-anchor="middle" x="565.55" y="-23.48" font-family="Helvetica,sans-Serif" font-size="10.00" fill="#63b8ff">2</text>
</a>
</g>
</g>
<!-- dir_1a83b528599da40ca3e2005a9bc9336b -->
<g id="node13" class="node">
<title>dir_1a83b528599da40ca3e2005a9bc9336b</title>
<g id="a_node13"><a xlink:href="dir_1a83b528599da40ca3e2005a9bc9336b.html" target="_top" xlink:title="common">
<polygon fill="#edf0f7" stroke="red" stroke-dasharray="5,2" points="693,-19 634,-19 634,0 693,0 693,-19"/>
<text text-anchor="middle" x="663.5" y="-7" font-family="Helvetica,sans-Serif" font-size="10.00">common</text>
</a>
</g>
</g>
<!-- dir_c01646dfa756089b07ac7b4e7ae63e35&#45;&gt;dir_1a83b528599da40ca3e2005a9bc9336b -->
<g id="edge3" class="edge">
<title>dir_c01646dfa756089b07ac7b4e7ae63e35&#45;&gt;dir_1a83b528599da40ca3e2005a9bc9336b</title>
<g id="a_edge3"><a xlink:href="dir_000053_000025.html" target="_top">
<path fill="none" stroke="#63b8ff" d="M344.39,-60.36C395.69,-54 514.03,-38.67 623.82,-19.01"/>
<polygon fill="#63b8ff" stroke="#63b8ff" points="624.51,-22.44 633.73,-17.21 623.27,-15.55 624.51,-22.44"/>
</a>
</g>
<g id="a_edge3&#45;headlabel"><a xlink:href="dir_000053_000025.html" target="_top" xlink:title="1">
<text text-anchor="middle" x="621.48" y="-23.37" font-family="Helvetica,sans-Serif" font-size="10.00" fill="#63b8ff">1</text>
</a>
</g>
</g>
</g>
</svg>

<g id="navigator" transform="translate(0 0)" fill="#404254">
  <rect fill="#f2f5e9" fill-opacity="0.5" stroke="#606060" stroke-width=".5" x="0" y="0" width="60" height="60"/>
  <use id="zoomplus" xlink:href="#zoomPlus" x="17" y="9" onmousedown="handleZoom(evt,'in')"/>
  <use id="zoomminus" xlink:href="#zoomMin" x="42" y="9" onmousedown="handleZoom(evt,'out')"/>
  <use id="reset" xlink:href="#resetDef" x="30" y="36" onmousedown="handleReset()"/>
   <use id="arrowup" xlink:href="#arrowUp" x="0" y="0" onmousedown="handlePan(0,-1)"/>
  <use id="arrowright" xlink:href="#arrowRight" x="0" y="0" onmousedown="handlePan(1,0)"/>
  <use id="arrowdown" xlink:href="#arrowDown" x="0" y="0" onmousedown="handlePan(0,1)"/>
  <use id="arrowleft" xlink:href="#arrowLeft" x="0" y="0" onmousedown="handlePan(-1,0)"/>
</g>
<svg viewBox="0 0 15 15" width="100%" height="30px" preserveAspectRatio="xMaxYMin meet">
 <g id="arrow_out" transform="scale(0.3 0.3)">
  <a xlink:href="dir_918a2537f64cade110d64935620958ab_dep_org.svg" target="_base">
   <rect id="button" ry="5" rx="5" y="6" x="6" height="38" width="38"
        fill="#f2f5e9" fill-opacity="0.5" stroke="#606060" stroke-width="1.0"/>
   <path id="arrow"
     d="M 11.500037,31.436501 C 11.940474,20.09759 22.043105,11.32322 32.158766,21.979434 L 37.068811,17.246167 C 37.068811,17.246167 37.088388,32 37.088388,32 L 22.160133,31.978069 C 22.160133,31.978069 26.997745,27.140456 26.997745,27.140456 C 18.528582,18.264221 13.291696,25.230495 11.500037,31.436501 z"
     style="fill:#404040;"/>
  </a>
 </g>
</svg>

<style type='text/css'>
<![CDATA[
[data-mouse-over-selected='false'] { opacity: 0.7; }
[data-mouse-over-selected='true']  { opacity: 1.0; }
]]>
</style>
<script type="application/ecmascript"><![CDATA[
document.addEventListener('DOMContentLoaded', (event) => {
  highlightEdges();
  highlightAdjacentNodes();
});
]]></script>
</svg>
