<?xml version="1.0" encoding="UTF-8" standalone="no"?>
<!DOCTYPE svg PUBLIC "-//W3C//DTD SVG 1.1//EN"
 "http://www.w3.org/Graphics/SVG/1.1/DTD/svg11.dtd">
<!-- Generated by graphviz version 2.43.0 (0)
 -->
<!-- Title: state Pages: 1 -->
<!--zoomable 251 -->

<svg id="main" version="1.1" xmlns="http://www.w3.org/2000/svg" xmlns:xlink="http://www.w3.org/1999/xlink" xml:space="preserve" onload="init(evt)">

<style type="text/css"><![CDATA[
.node, .edge {opacity: 0.7;}
.node.selected, .edge.selected {opacity: 1;}
.edge:hover path { stroke: red; }
.edge:hover polygon { stroke: red; fill: red; }
]]></style>

<defs>
  <circle id="rim" cx="0" cy="0" r="7"/>
  <circle id="rim2" cx="0" cy="0" r="3.5"/>
  <g id="zoomPlus">
    <use xlink:href="#rim" fill="#404040"><set attributeName="fill" to="#808080" begin="zoomplus.mouseover" end="zoomplus.mouseout"/></use>
    <path d="M-4,0h8M0,-4v8" fill="none" stroke="white" stroke-width="1.5" pointer-events="none"/>
  </g>
  <g id="zoomMin">
    <use xlink:href="#rim" fill="#404040"><set attributeName="fill" to="#808080" begin="zoomminus.mouseover" end="zoomminus.mouseout"/></use>
    <path d="M-4,0h8" fill="none" stroke="white" stroke-width="1.5" pointer-events="none"/>
  </g>
  <g id="arrowUp" transform="translate(30 24)">
    <use xlink:href="#rim"/>
    <path pointer-events="none" fill="none" stroke="white" stroke-width="1.5" d="M0,-3.0v7 M-2.5,-0.5L0,-3.0L2.5,-0.5"/>
  </g>
  <g id="arrowRight" transform="rotate(90) translate(36 -43)">
    <use xlink:href="#rim"/>
    <path pointer-events="none" fill="none" stroke="white" stroke-width="1.5" d="M0,-3.0v7 M-2.5,-0.5L0,-3.0L2.5,-0.5"/>
  </g>
  <g id="arrowDown" transform="rotate(180) translate(-30 -48)">
    <use xlink:href="#rim"/>
    <path pointer-events="none" fill="none" stroke="white" stroke-width="1.5" d="M0,-3.0v7 M-2.5,-0.5L0,-3.0L2.5,-0.5"/>
  </g>
  <g id="arrowLeft" transform="rotate(270) translate(-36 17)">
    <use xlink:href="#rim"/>
    <path pointer-events="none" fill="none" stroke="white" stroke-width="1.5" d="M0,-3.0v7 M-2.5,-0.5L0,-3.0L2.5,-0.5"/>
  </g>
  <g id="resetDef">
    <use xlink:href="#rim2" fill="#404040"><set attributeName="fill" to="#808080" begin="reset.mouseover" end="reset.mouseout"/></use>
  </g>
</defs>
<script type="application/ecmascript">
var viewWidth = 528;
var viewHeight = 251;
var sectionId = 'dynsection-0';
</script>
<script type="application/ecmascript" xlink:href="svg.min.js"/>
<svg id="graph" class="graph">
<g id="viewport">
<title>state</title>
<g id="clust1" class="cluster">
<title>clusterdir_1e46d961eb277b2583ee5b095f5b4c8e</title>
<g id="a_clust1"><a xlink:href="dir_1e46d961eb277b2583ee5b095f5b4c8e.html" target="_top" xlink:title="engine">
<polygon fill="#edf0f7" stroke="#7f7f7f" stroke-dasharray="5,2" points="8,-8 8,-235 453,-235 453,-8 8,-8"/>
<text text-anchor="middle" x="230.5" y="-223" font-family="Helvetica,sans-Serif" font-size="10.00">engine</text>
</a>
</g>
</g>
<g id="clust2" class="cluster">
<title>clusterdir_94b0c4fb82528c4245604725780b49de</title>
<g id="a_clust2"><a xlink:href="dir_94b0c4fb82528c4245604725780b49de.html" target="_top">
<polygon fill="#edf0f7" stroke="#404040" stroke-width="2" points="165,-63 165,-208 445,-208 445,-63 165,-63"/>
</a>
</g>
</g>
<!-- dir_1a83b528599da40ca3e2005a9bc9336b -->
<g id="node1" class="node">
<title>dir_1a83b528599da40ca3e2005a9bc9336b</title>
<g id="a_node1"><a xlink:href="dir_1a83b528599da40ca3e2005a9bc9336b.html" target="_top" xlink:title="common">
<polygon fill="#a2b4d6" stroke="red" points="155.5,-145 96.5,-145 96.5,-126 155.5,-126 155.5,-145"/>
<text text-anchor="middle" x="126" y="-133" font-family="Helvetica,sans-Serif" font-size="10.00">common</text>
</a>
</g>
</g>
<!-- dir_1ca916e0b9fbc882dbfbd9e6594e5e22 -->
<g id="node2" class="node">
<title>dir_1ca916e0b9fbc882dbfbd9e6594e5e22</title>
<g id="a_node2"><a xlink:href="dir_1ca916e0b9fbc882dbfbd9e6594e5e22.html" target="_top" xlink:title="ecs">
<polygon fill="#a2b4d6" stroke="red" points="69.5,-90 36.5,-90 36.5,-71 69.5,-71 69.5,-90"/>
<text text-anchor="middle" x="53" y="-78" font-family="Helvetica,sans-Serif" font-size="10.00">ecs</text>
</a>
</g>
</g>
<!-- dir_e1a38fd6dc0543c7f97fb1ccf1615de7 -->
<g id="node3" class="node">
<title>dir_e1a38fd6dc0543c7f97fb1ccf1615de7</title>
<g id="a_node3"><a xlink:href="dir_e1a38fd6dc0543c7f97fb1ccf1615de7.html" target="_top" xlink:title="mechanics">
<polygon fill="#a2b4d6" stroke="red" points="156.5,-90 87.5,-90 87.5,-71 156.5,-71 156.5,-90"/>
<text text-anchor="middle" x="122" y="-78" font-family="Helvetica,sans-Serif" font-size="10.00">mechanics</text>
</a>
</g>
</g>
<!-- dir_fff8ef54a646d9df8d7b15d27474569f -->
<g id="node4" class="node">
<title>dir_fff8ef54a646d9df8d7b15d27474569f</title>
<g id="a_node4"><a xlink:href="dir_fff8ef54a646d9df8d7b15d27474569f.html" target="_top" xlink:title="runtime">
<polygon fill="#a2b4d6" stroke="red" points="230.5,-35 175.5,-35 175.5,-16 230.5,-16 230.5,-35"/>
<text text-anchor="middle" x="203" y="-23" font-family="Helvetica,sans-Serif" font-size="10.00">runtime</text>
</a>
</g>
</g>
<!-- dir_94b0c4fb82528c4245604725780b49de -->
<g id="node5" class="node">
<title>dir_94b0c4fb82528c4245604725780b49de</title>
<text text-anchor="middle" x="244" y="-188" font-family="Helvetica,sans-Serif" font-size="10.00">state</text>
</g>
<!-- dir_94b0c4fb82528c4245604725780b49de&#45;&gt;dir_1a83b528599da40ca3e2005a9bc9336b -->
<g id="edge1" class="edge">
<title>dir_94b0c4fb82528c4245604725780b49de&#45;&gt;dir_1a83b528599da40ca3e2005a9bc9336b</title>
<g id="a_edge1"><a xlink:href="dir_000130_000025.html" target="_top">
<path fill="none" stroke="#63b8ff" d="M225.04,-180.98C205.97,-172.42 176.34,-159.11 154.45,-149.28"/>
<polygon fill="#63b8ff" stroke="#63b8ff" points="155.86,-146.07 145.3,-145.17 152.99,-152.46 155.86,-146.07"/>
</a>
</g>
<g id="a_edge1&#45;headlabel"><a xlink:href="dir_000130_000025.html" target="_top" xlink:title="4">
<text text-anchor="middle" x="160.3" y="-142.46" font-family="Helvetica,sans-Serif" font-size="10.00" fill="#63b8ff">4</text>
</a>
</g>
</g>
<!-- dir_94b0c4fb82528c4245604725780b49de&#45;&gt;dir_1ca916e0b9fbc882dbfbd9e6594e5e22 -->
<g id="edge2" class="edge">
<title>dir_94b0c4fb82528c4245604725780b49de&#45;&gt;dir_1ca916e0b9fbc882dbfbd9e6594e5e22</title>
<g id="a_edge2"><a xlink:href="dir_000130_000063.html" target="_top">
<path fill="none" stroke="#63b8ff" d="M223.3,-189.53C189.1,-188.49 120.5,-181.6 79,-145 66.03,-133.56 59.41,-114.67 56.11,-100.46"/>
<polygon fill="#63b8ff" stroke="#63b8ff" points="59.47,-99.44 54.11,-90.3 52.6,-100.79 59.47,-99.44"/>
</a>
</g>
<g id="a_edge2&#45;headlabel"><a xlink:href="dir_000130_000063.html" target="_top" xlink:title="2">
<text text-anchor="middle" x="62.95" y="-99.92" font-family="Helvetica,sans-Serif" font-size="10.00" fill="#63b8ff">2</text>
</a>
</g>
</g>
<!-- dir_94b0c4fb82528c4245604725780b49de&#45;&gt;dir_e1a38fd6dc0543c7f97fb1ccf1615de7 -->
<g id="edge8" class="edge">
<title>dir_94b0c4fb82528c4245604725780b49de&#45;&gt;dir_e1a38fd6dc0543c7f97fb1ccf1615de7</title>
<g id="a_edge8"><a xlink:href="dir_000130_000098.html" target="_top">
<path fill="none" stroke="#63b8ff" d="M223.45,-186.75C184.77,-181.1 103.53,-166.87 87,-145 75.58,-129.89 89.67,-110.61 103.24,-97.27"/>
<polygon fill="#63b8ff" stroke="#63b8ff" points="105.96,-99.53 110.96,-90.19 101.23,-94.37 105.96,-99.53"/>
</a>
</g>
<g id="a_edge8&#45;headlabel"><a xlink:href="dir_000130_000098.html" target="_top" xlink:title="8">
<text text-anchor="middle" x="105.23" y="-101.55" font-family="Helvetica,sans-Serif" font-size="10.00" fill="#63b8ff">8</text>
</a>
</g>
</g>
<!-- dir_94b0c4fb82528c4245604725780b49de&#45;&gt;dir_fff8ef54a646d9df8d7b15d27474569f -->
<g id="edge10" class="edge">
<title>dir_94b0c4fb82528c4245604725780b49de&#45;&gt;dir_fff8ef54a646d9df8d7b15d27474569f</title>
<g id="a_edge10"><a xlink:href="dir_000130_000117.html" target="_top">
<path fill="none" stroke="#63b8ff" d="M223.39,-189.31C187.36,-188 111.97,-180.82 62,-145 38.45,-128.12 35.1,-117.82 27,-90 23.64,-78.48 19.43,-72.31 27,-63 44.08,-42.02 118.76,-32.71 165.18,-28.89"/>
<polygon fill="#63b8ff" stroke="#63b8ff" points="165.49,-32.38 175.19,-28.12 164.95,-25.4 165.49,-32.38"/>
</a>
</g>
<g id="a_edge10&#45;headlabel"><a xlink:href="dir_000130_000117.html" target="_top" xlink:title="7">
<text text-anchor="middle" x="162.12" y="-32.99" font-family="Helvetica,sans-Serif" font-size="10.00" fill="#63b8ff">7</text>
</a>
</g>
</g>
<!-- dir_c533d1b00932fdf129a636cbef0bfb01 -->
<g id="node6" class="node">
<title>dir_c533d1b00932fdf129a636cbef0bfb01</title>
<g id="a_node6"><a xlink:href="dir_c533d1b00932fdf129a636cbef0bfb01.html" target="_top" xlink:title="commands">
<polygon fill="#a2b4d6" stroke="#404040" points="321.5,-145 250.5,-145 250.5,-126 321.5,-126 321.5,-145"/>
<text text-anchor="middle" x="286" y="-133" font-family="Helvetica,sans-Serif" font-size="10.00">commands</text>
</a>
</g>
</g>
<!-- dir_94b0c4fb82528c4245604725780b49de&#45;&gt;dir_c533d1b00932fdf129a636cbef0bfb01 -->
<g id="edge7" class="edge">
<title>dir_94b0c4fb82528c4245604725780b49de&#45;&gt;dir_c533d1b00932fdf129a636cbef0bfb01</title>
<g id="a_edge7"><a xlink:href="dir_000130_000024.html" target="_top">
<path fill="none" stroke="#63b8ff" d="M250.94,-180.75C256.87,-173.26 265.57,-162.28 272.82,-153.13"/>
<polygon fill="#63b8ff" stroke="#63b8ff" points="275.73,-155.1 279.19,-145.09 270.24,-150.75 275.73,-155.1"/>
</a>
</g>
<g id="a_edge7&#45;headlabel"><a xlink:href="dir_000130_000024.html" target="_top" xlink:title="4">
<text text-anchor="middle" x="275.72" y="-157.18" font-family="Helvetica,sans-Serif" font-size="10.00" fill="#63b8ff">4</text>
</a>
</g>
</g>
<!-- dir_7a23a44b7b02552993267eb30c5e34a1 -->
<g id="node7" class="node">
<title>dir_7a23a44b7b02552993267eb30c5e34a1</title>
<g id="a_node7"><a xlink:href="dir_7a23a44b7b02552993267eb30c5e34a1.html" target="_top" xlink:title="components">
<polygon fill="#a2b4d6" stroke="#404040" points="416.5,-145 339.5,-145 339.5,-126 416.5,-126 416.5,-145"/>
<text text-anchor="middle" x="378" y="-133" font-family="Helvetica,sans-Serif" font-size="10.00">components</text>
</a>
</g>
</g>
<!-- dir_94b0c4fb82528c4245604725780b49de&#45;&gt;dir_7a23a44b7b02552993267eb30c5e34a1 -->
<g id="edge6" class="edge">
<title>dir_94b0c4fb82528c4245604725780b49de&#45;&gt;dir_7a23a44b7b02552993267eb30c5e34a1</title>
<g id="a_edge6"><a xlink:href="dir_000130_000049.html" target="_top">
<path fill="none" stroke="#63b8ff" d="M264.64,-181.33C286.55,-172.67 321.42,-158.88 346.71,-148.88"/>
<polygon fill="#63b8ff" stroke="#63b8ff" points="348.21,-152.05 356.22,-145.11 345.63,-145.54 348.21,-152.05"/>
</a>
</g>
<g id="a_edge6&#45;headlabel"><a xlink:href="dir_000130_000049.html" target="_top" xlink:title="2">
<text text-anchor="middle" x="345.91" y="-153.51" font-family="Helvetica,sans-Serif" font-size="10.00" fill="#63b8ff">2</text>
</a>
</g>
</g>
<!-- dir_24f556f2b844507e90167b0c5b1b7e80 -->
<g id="node8" class="node">
<title>dir_24f556f2b844507e90167b0c5b1b7e80</title>
<g id="a_node8"><a xlink:href="dir_24f556f2b844507e90167b0c5b1b7e80.html" target="_top" xlink:title="listeners">
<polygon fill="#a2b4d6" stroke="#404040" points="232.5,-145 173.5,-145 173.5,-126 232.5,-126 232.5,-145"/>
<text text-anchor="middle" x="203" y="-133" font-family="Helvetica,sans-Serif" font-size="10.00">listeners</text>
</a>
</g>
</g>
<!-- dir_94b0c4fb82528c4245604725780b49de&#45;&gt;dir_24f556f2b844507e90167b0c5b1b7e80 -->
<g id="edge3" class="edge">
<title>dir_94b0c4fb82528c4245604725780b49de&#45;&gt;dir_24f556f2b844507e90167b0c5b1b7e80</title>
<g id="a_edge3"><a xlink:href="dir_000130_000093.html" target="_top">
<path fill="none" stroke="#63b8ff" d="M237.23,-180.75C231.44,-173.26 222.94,-162.28 215.86,-153.13"/>
<polygon fill="#63b8ff" stroke="#63b8ff" points="218.53,-150.86 209.64,-145.09 212.99,-155.14 218.53,-150.86"/>
</a>
</g>
<g id="a_edge3&#45;headlabel"><a xlink:href="dir_000130_000093.html" target="_top" xlink:title="1">
<text text-anchor="middle" x="222.98" y="-149.46" font-family="Helvetica,sans-Serif" font-size="10.00" fill="#63b8ff">1</text>
</a>
</g>
</g>
<!-- dir_eb8c49aae6ff5f1b4e001fb64cc65036 -->
<g id="node9" class="node">
<title>dir_eb8c49aae6ff5f1b4e001fb64cc65036</title>
<g id="a_node9"><a xlink:href="dir_eb8c49aae6ff5f1b4e001fb64cc65036.html" target="_top" xlink:title="types">
<polygon fill="#a2b4d6" stroke="#404040" points="354,-90 310,-90 310,-71 354,-71 354,-90"/>
<text text-anchor="middle" x="332" y="-78" font-family="Helvetica,sans-Serif" font-size="10.00">types</text>
</a>
</g>
</g>
<!-- dir_94b0c4fb82528c4245604725780b49de&#45;&gt;dir_eb8c49aae6ff5f1b4e001fb64cc65036 -->
<g id="edge9" class="edge">
<title>dir_94b0c4fb82528c4245604725780b49de&#45;&gt;dir_eb8c49aae6ff5f1b4e001fb64cc65036</title>
<g id="a_edge9"><a xlink:href="dir_000130_000179.html" target="_top">
<path fill="none" stroke="#63b8ff" d="M264.73,-187.58C308.12,-183.1 406.12,-170.33 426,-145 446.64,-118.7 398.58,-99.36 363.85,-89.31"/>
<polygon fill="#63b8ff" stroke="#63b8ff" points="364.61,-85.89 354.04,-86.61 362.75,-92.64 364.61,-85.89"/>
</a>
</g>
<g id="a_edge9&#45;headlabel"><a xlink:href="dir_000130_000179.html" target="_top" xlink:title="13">
<text text-anchor="middle" x="368.83" y="-81.61" font-family="Helvetica,sans-Serif" font-size="10.00" fill="#63b8ff">13</text>
</a>
</g>
</g>
<!-- dir_3e2f71566425d27b6ac8140f1223a941 -->
<g id="node10" class="node">
<title>dir_3e2f71566425d27b6ac8140f1223a941</title>
<g id="a_node10"><a xlink:href="dir_3e2f71566425d27b6ac8140f1223a941.html" target="_top" xlink:title="util">
<polygon fill="#edf0f7" stroke="red" stroke-dasharray="5,2" points="493,-145 461,-145 461,-126 493,-126 493,-145"/>
<text text-anchor="middle" x="477" y="-133" font-family="Helvetica,sans-Serif" font-size="10.00">util</text>
</a>
</g>
</g>
<!-- dir_94b0c4fb82528c4245604725780b49de&#45;&gt;dir_3e2f71566425d27b6ac8140f1223a941 -->
<g id="edge4" class="edge">
<title>dir_94b0c4fb82528c4245604725780b49de&#45;&gt;dir_3e2f71566425d27b6ac8140f1223a941</title>
<g id="a_edge4"><a xlink:href="dir_000130_000184.html" target="_top">
<path fill="none" stroke="#63b8ff" d="M264.79,-185.57C301.97,-178.4 382.2,-162.36 449,-145 449.6,-144.84 450.2,-144.68 450.81,-144.52"/>
<polygon fill="#63b8ff" stroke="#63b8ff" points="452.13,-147.79 460.78,-141.67 450.2,-141.06 452.13,-147.79"/>
</a>
</g>
<g id="a_edge4&#45;headlabel"><a xlink:href="dir_000130_000184.html" target="_top" xlink:title="1">
<text text-anchor="middle" x="449.45" y="-149" font-family="Helvetica,sans-Serif" font-size="10.00" fill="#63b8ff">1</text>
</a>
</g>
</g>
<!-- dir_4e12247f2bbe360a59cd98a83515e8f1 -->
<g id="node11" class="node">
<title>dir_4e12247f2bbe360a59cd98a83515e8f1</title>
<g id="a_node11"><a xlink:href="dir_4e12247f2bbe360a59cd98a83515e8f1.html" target="_top" xlink:title="core">
<polygon fill="#edf0f7" stroke="red" stroke-dasharray="5,2" points="520,-35 482,-35 482,-16 520,-16 520,-35"/>
<text text-anchor="middle" x="501" y="-23" font-family="Helvetica,sans-Serif" font-size="10.00">core</text>
</a>
</g>
</g>
<!-- dir_94b0c4fb82528c4245604725780b49de&#45;&gt;dir_4e12247f2bbe360a59cd98a83515e8f1 -->
<g id="edge5" class="edge">
<title>dir_94b0c4fb82528c4245604725780b49de&#45;&gt;dir_4e12247f2bbe360a59cd98a83515e8f1</title>
<g id="a_edge5"><a xlink:href="dir_000130_000057.html" target="_top">
<path fill="none" stroke="#63b8ff" d="M264.6,-189.21C320.26,-187.94 471.55,-181.16 502,-145 525.66,-116.91 515.84,-70.38 507.72,-44.78"/>
<polygon fill="#63b8ff" stroke="#63b8ff" points="511,-43.54 504.45,-35.21 504.37,-45.8 511,-43.54"/>
</a>
</g>
<g id="a_edge5&#45;headlabel"><a xlink:href="dir_000130_000057.html" target="_top" xlink:title="6">
<text text-anchor="middle" x="514.85" y="-43.52" font-family="Helvetica,sans-Serif" font-size="10.00" fill="#63b8ff">6</text>
</a>
</g>
</g>
<!-- dir_c533d1b00932fdf129a636cbef0bfb01&#45;&gt;dir_e1a38fd6dc0543c7f97fb1ccf1615de7 -->
<g id="edge11" class="edge">
<title>dir_c533d1b00932fdf129a636cbef0bfb01&#45;&gt;dir_e1a38fd6dc0543c7f97fb1ccf1615de7</title>
<g id="a_edge11"><a xlink:href="dir_000024_000098.html" target="_top">
<path fill="none" stroke="#63b8ff" d="M259.65,-125.98C232.24,-117.13 189.11,-103.19 158.44,-93.28"/>
<polygon fill="#63b8ff" stroke="#63b8ff" points="159.15,-89.83 148.56,-90.08 157,-96.49 159.15,-89.83"/>
</a>
</g>
<g id="a_edge11&#45;headlabel"><a xlink:href="dir_000024_000098.html" target="_top" xlink:title="1">
<text text-anchor="middle" x="163.44" y="-85.73" font-family="Helvetica,sans-Serif" font-size="10.00" fill="#63b8ff">1</text>
</a>
</g>
</g>
<!-- dir_c533d1b00932fdf129a636cbef0bfb01&#45;&gt;dir_eb8c49aae6ff5f1b4e001fb64cc65036 -->
<g id="edge12" class="edge">
<title>dir_c533d1b00932fdf129a636cbef0bfb01&#45;&gt;dir_eb8c49aae6ff5f1b4e001fb64cc65036</title>
<g id="a_edge12"><a xlink:href="dir_000024_000179.html" target="_top">
<path fill="none" stroke="#63b8ff" d="M293.6,-125.75C300.16,-118.18 309.82,-107.05 317.81,-97.84"/>
<polygon fill="#63b8ff" stroke="#63b8ff" points="320.63,-99.94 324.55,-90.09 315.35,-95.35 320.63,-99.94"/>
</a>
</g>
<g id="a_edge12&#45;headlabel"><a xlink:href="dir_000024_000179.html" target="_top" xlink:title="2">
<text text-anchor="middle" x="320.42" y="-102.01" font-family="Helvetica,sans-Serif" font-size="10.00" fill="#63b8ff">2</text>
</a>
</g>
</g>
<!-- dir_7a23a44b7b02552993267eb30c5e34a1&#45;&gt;dir_eb8c49aae6ff5f1b4e001fb64cc65036 -->
<g id="edge13" class="edge">
<title>dir_7a23a44b7b02552993267eb30c5e34a1&#45;&gt;dir_eb8c49aae6ff5f1b4e001fb64cc65036</title>
<g id="a_edge13"><a xlink:href="dir_000049_000179.html" target="_top">
<path fill="none" stroke="#63b8ff" d="M370.4,-125.75C363.84,-118.18 354.18,-107.05 346.19,-97.84"/>
<polygon fill="#63b8ff" stroke="#63b8ff" points="348.65,-95.35 339.45,-90.09 343.37,-99.94 348.65,-95.35"/>
</a>
</g>
<g id="a_edge13&#45;headlabel"><a xlink:href="dir_000049_000179.html" target="_top" xlink:title="2">
<text text-anchor="middle" x="353.15" y="-93.7" font-family="Helvetica,sans-Serif" font-size="10.00" fill="#63b8ff">2</text>
</a>
</g>
</g>
<!-- dir_24f556f2b844507e90167b0c5b1b7e80&#45;&gt;dir_1ca916e0b9fbc882dbfbd9e6594e5e22 -->
<g id="edge14" class="edge">
<title>dir_24f556f2b844507e90167b0c5b1b7e80&#45;&gt;dir_1ca916e0b9fbc882dbfbd9e6594e5e22</title>
<g id="a_edge14"><a xlink:href="dir_000093_000063.html" target="_top">
<path fill="none" stroke="#63b8ff" d="M178.9,-125.98C151.61,-116.34 107.3,-100.68 79.18,-90.75"/>
<polygon fill="#63b8ff" stroke="#63b8ff" points="80.2,-87.4 69.61,-87.37 77.87,-94 80.2,-87.4"/>
</a>
</g>
<g id="a_edge14&#45;headlabel"><a xlink:href="dir_000093_000063.html" target="_top" xlink:title="1">
<text text-anchor="middle" x="84.54" y="-83.42" font-family="Helvetica,sans-Serif" font-size="10.00" fill="#63b8ff">1</text>
</a>
</g>
</g>
<!-- dir_24f556f2b844507e90167b0c5b1b7e80&#45;&gt;dir_fff8ef54a646d9df8d7b15d27474569f -->
<g id="edge16" class="edge">
<title>dir_24f556f2b844507e90167b0c5b1b7e80&#45;&gt;dir_fff8ef54a646d9df8d7b15d27474569f</title>
<g id="a_edge16"><a xlink:href="dir_000093_000117.html" target="_top">
<path fill="none" stroke="#63b8ff" d="M203,-125.66C203,-108.17 203,-68.8 203,-45.27"/>
<polygon fill="#63b8ff" stroke="#63b8ff" points="206.5,-45.16 203,-35.16 199.5,-45.16 206.5,-45.16"/>
</a>
</g>
<g id="a_edge16&#45;headlabel"><a xlink:href="dir_000093_000117.html" target="_top" xlink:title="1">
<text text-anchor="middle" x="209.34" y="-46.25" font-family="Helvetica,sans-Serif" font-size="10.00" fill="#63b8ff">1</text>
</a>
</g>
</g>
<!-- dir_24f556f2b844507e90167b0c5b1b7e80&#45;&gt;dir_eb8c49aae6ff5f1b4e001fb64cc65036 -->
<g id="edge15" class="edge">
<title>dir_24f556f2b844507e90167b0c5b1b7e80&#45;&gt;dir_eb8c49aae6ff5f1b4e001fb64cc65036</title>
<g id="a_edge15"><a xlink:href="dir_000093_000179.html" target="_top">
<path fill="none" stroke="#63b8ff" d="M223.73,-125.98C244.76,-117.34 277.55,-103.87 301.54,-94.02"/>
<polygon fill="#63b8ff" stroke="#63b8ff" points="302.98,-97.21 310.9,-90.17 300.32,-90.73 302.98,-97.21"/>
</a>
</g>
<g id="a_edge15&#45;headlabel"><a xlink:href="dir_000093_000179.html" target="_top" xlink:title="1">
<text text-anchor="middle" x="300.73" y="-98.7" font-family="Helvetica,sans-Serif" font-size="10.00" fill="#63b8ff">1</text>
</a>
</g>
</g>
<!-- dir_eb8c49aae6ff5f1b4e001fb64cc65036&#45;&gt;dir_fff8ef54a646d9df8d7b15d27474569f -->
<g id="edge18" class="edge">
<title>dir_eb8c49aae6ff5f1b4e001fb64cc65036&#45;&gt;dir_fff8ef54a646d9df8d7b15d27474569f</title>
<g id="a_edge18"><a xlink:href="dir_000179_000117.html" target="_top">
<path fill="none" stroke="#63b8ff" d="M319.63,-70.85C315.42,-68.13 310.61,-65.25 306,-63 284.99,-52.77 260.35,-43.93 240.44,-37.52"/>
<polygon fill="#63b8ff" stroke="#63b8ff" points="241.38,-34.15 230.79,-34.48 239.28,-40.82 241.38,-34.15"/>
</a>
</g>
<g id="a_edge18&#45;headlabel"><a xlink:href="dir_000179_000117.html" target="_top" xlink:title="1">
<text text-anchor="middle" x="245.66" y="-30.02" font-family="Helvetica,sans-Serif" font-size="10.00" fill="#63b8ff">1</text>
</a>
</g>
</g>
<!-- dir_eb8c49aae6ff5f1b4e001fb64cc65036&#45;&gt;dir_4e12247f2bbe360a59cd98a83515e8f1 -->
<g id="edge17" class="edge">
<title>dir_eb8c49aae6ff5f1b4e001fb64cc65036&#45;&gt;dir_4e12247f2bbe360a59cd98a83515e8f1</title>
<g id="a_edge17"><a xlink:href="dir_000179_000057.html" target="_top">
<path fill="none" stroke="#63b8ff" d="M354.09,-72.57C384.34,-63.09 438.68,-46.04 472.12,-35.56"/>
<polygon fill="#63b8ff" stroke="#63b8ff" points="473.28,-38.86 481.78,-32.53 471.19,-32.18 473.28,-38.86"/>
</a>
</g>
<g id="a_edge17&#45;headlabel"><a xlink:href="dir_000179_000057.html" target="_top" xlink:title="2">
<text text-anchor="middle" x="470.7" y="-40.15" font-family="Helvetica,sans-Serif" font-size="10.00" fill="#63b8ff">2</text>
</a>
</g>
</g>
</g>
</svg>

<g id="navigator" transform="translate(0 0)" fill="#404254">
  <rect fill="#f2f5e9" fill-opacity="0.5" stroke="#606060" stroke-width=".5" x="0" y="0" width="60" height="60"/>
  <use id="zoomplus" xlink:href="#zoomPlus" x="17" y="9" onmousedown="handleZoom(evt,'in')"/>
  <use id="zoomminus" xlink:href="#zoomMin" x="42" y="9" onmousedown="handleZoom(evt,'out')"/>
  <use id="reset" xlink:href="#resetDef" x="30" y="36" onmousedown="handleReset()"/>
   <use id="arrowup" xlink:href="#arrowUp" x="0" y="0" onmousedown="handlePan(0,-1)"/>
  <use id="arrowright" xlink:href="#arrowRight" x="0" y="0" onmousedown="handlePan(1,0)"/>
  <use id="arrowdown" xlink:href="#arrowDown" x="0" y="0" onmousedown="handlePan(0,1)"/>
  <use id="arrowleft" xlink:href="#arrowLeft" x="0" y="0" onmousedown="handlePan(-1,0)"/>
</g>
<svg viewBox="0 0 15 15" width="100%" height="30px" preserveAspectRatio="xMaxYMin meet">
 <g id="arrow_out" transform="scale(0.3 0.3)">
  <a xlink:href="dir_94b0c4fb82528c4245604725780b49de_dep_org.svg" target="_base">
   <rect id="button" ry="5" rx="5" y="6" x="6" height="38" width="38"
        fill="#f2f5e9" fill-opacity="0.5" stroke="#606060" stroke-width="1.0"/>
   <path id="arrow"
     d="M 11.500037,31.436501 C 11.940474,20.09759 22.043105,11.32322 32.158766,21.979434 L 37.068811,17.246167 C 37.068811,17.246167 37.088388,32 37.088388,32 L 22.160133,31.978069 C 22.160133,31.978069 26.997745,27.140456 26.997745,27.140456 C 18.528582,18.264221 13.291696,25.230495 11.500037,31.436501 z"
     style="fill:#404040;"/>
  </a>
 </g>
</svg>

<style type='text/css'>
<![CDATA[
[data-mouse-over-selected='false'] { opacity: 0.7; }
[data-mouse-over-selected='true']  { opacity: 1.0; }
]]>
</style>
<script type="application/ecmascript"><![CDATA[
document.addEventListener('DOMContentLoaded', (event) => {
  highlightEdges();
  highlightAdjacentNodes();
});
]]></script>
</svg>
