<?xml version="1.0" encoding="UTF-8" standalone="no"?>
<!DOCTYPE svg PUBLIC "-//W3C//DTD SVG 1.1//EN"
 "http://www.w3.org/Graphics/SVG/1.1/DTD/svg11.dtd">
<!-- Generated by graphviz version 2.43.0 (0)
 -->
<!-- Title: timing Pages: 1 -->
<svg width="423pt" height="290pt"
 viewBox="0.00 0.00 422.50 290.00" xmlns="http://www.w3.org/2000/svg" xmlns:xlink="http://www.w3.org/1999/xlink">
<g id="graph0" class="graph" transform="scale(1 1) rotate(0) translate(4 286)">
<title>timing</title>
<g id="clust1" class="cluster">
<title>clusterdir_e1a38fd6dc0543c7f97fb1ccf1615de7</title>
<g id="a_clust1"><a xlink:href="dir_e1a38fd6dc0543c7f97fb1ccf1615de7.html" target="_top" xlink:title="mechanics">
<polygon fill="#edf0f7" stroke="#7f7f7f" stroke-dasharray="5,2" points="8,-39 8,-274 295,-274 295,-39 8,-39"/>
<text text-anchor="middle" x="151.5" y="-262" font-family="Helvetica,sans-Serif" font-size="10.00">mechanics</text>
</a>
</g>
</g>
<g id="clust2" class="cluster">
<title>clusterdir_04e46b302a6aadc7f23a11997ed7852b</title>
<g id="a_clust2"><a xlink:href="dir_04e46b302a6aadc7f23a11997ed7852b.html" target="_top">
<polygon fill="#edf0f7" stroke="#404040" stroke-width="2" points="16,-47 16,-247 219,-247 219,-47 16,-47"/>
</a>
</g>
</g>
<!-- dir_c8ba3234849006b257a05b362b115823 -->
<g id="node1" class="node">
<title>dir_c8ba3234849006b257a05b362b115823</title>
<g id="a_node1"><a xlink:href="dir_c8ba3234849006b257a05b362b115823.html" target="_top" xlink:title="lifecycle">
<polygon fill="#a2b4d6" stroke="red" points="287,-129 229,-129 229,-110 287,-110 287,-129"/>
<text text-anchor="middle" x="258" y="-117" font-family="Helvetica,sans-Serif" font-size="10.00">lifecycle</text>
</a>
</g>
</g>
<!-- dir_04e46b302a6aadc7f23a11997ed7852b -->
<g id="node2" class="node">
<title>dir_04e46b302a6aadc7f23a11997ed7852b</title>
<text text-anchor="middle" x="158" y="-227" font-family="Helvetica,sans-Serif" font-size="10.00">timing</text>
</g>
<!-- dir_e5090bf757e2582e2690780840c48cfe -->
<g id="node3" class="node">
<title>dir_e5090bf757e2582e2690780840c48cfe</title>
<g id="a_node3"><a xlink:href="dir_e5090bf757e2582e2690780840c48cfe.html" target="_top" xlink:title="commands">
<polygon fill="#a2b4d6" stroke="#404040" points="210.5,-129 139.5,-129 139.5,-110 210.5,-110 210.5,-129"/>
<text text-anchor="middle" x="175" y="-117" font-family="Helvetica,sans-Serif" font-size="10.00">commands</text>
</a>
</g>
</g>
<!-- dir_04e46b302a6aadc7f23a11997ed7852b&#45;&gt;dir_e5090bf757e2582e2690780840c48cfe -->
<g id="edge6" class="edge">
<title>dir_04e46b302a6aadc7f23a11997ed7852b&#45;&gt;dir_e5090bf757e2582e2690780840c48cfe</title>
<g id="a_edge6"><a xlink:href="dir_000149_000018.html" target="_top">
<path fill="none" stroke="#63b8ff" d="M153.22,-219.75C147.1,-207.38 137.98,-184.17 144,-165 147.23,-154.71 153.78,-144.72 160.03,-136.82"/>
<polygon fill="#63b8ff" stroke="#63b8ff" points="162.73,-139.04 166.52,-129.15 157.39,-134.52 162.73,-139.04"/>
</a>
</g>
<g id="a_edge6&#45;headlabel"><a xlink:href="dir_000149_000018.html" target="_top" xlink:title="4">
<text text-anchor="middle" x="162.57" y="-141.12" font-family="Helvetica,sans-Serif" font-size="10.00" fill="#63b8ff">4</text>
</a>
</g>
</g>
<!-- dir_eecf9752a36b077531052d23563b112d -->
<g id="node4" class="node">
<title>dir_eecf9752a36b077531052d23563b112d</title>
<g id="a_node4"><a xlink:href="dir_eecf9752a36b077531052d23563b112d.html" target="_top" xlink:title="components">
<polygon fill="#a2b4d6" stroke="#404040" points="121.5,-129 44.5,-129 44.5,-110 121.5,-110 121.5,-129"/>
<text text-anchor="middle" x="83" y="-117" font-family="Helvetica,sans-Serif" font-size="10.00">components</text>
</a>
</g>
</g>
<!-- dir_04e46b302a6aadc7f23a11997ed7852b&#45;&gt;dir_eecf9752a36b077531052d23563b112d -->
<g id="edge7" class="edge">
<title>dir_04e46b302a6aadc7f23a11997ed7852b&#45;&gt;dir_eecf9752a36b077531052d23563b112d</title>
<g id="a_edge7"><a xlink:href="dir_000149_000031.html" target="_top">
<path fill="none" stroke="#63b8ff" d="M151.86,-219.66C139.38,-201.69 110.88,-160.64 94.72,-137.38"/>
<polygon fill="#63b8ff" stroke="#63b8ff" points="97.59,-135.38 89.01,-129.16 91.84,-139.37 97.59,-135.38"/>
</a>
</g>
<g id="a_edge7&#45;headlabel"><a xlink:href="dir_000149_000031.html" target="_top" xlink:title="2">
<text text-anchor="middle" x="101.97" y="-134.21" font-family="Helvetica,sans-Serif" font-size="10.00" fill="#63b8ff">2</text>
</a>
</g>
</g>
<!-- dir_d00b166f8af3f0127800a82b83f56c7d -->
<g id="node5" class="node">
<title>dir_d00b166f8af3f0127800a82b83f56c7d</title>
<g id="a_node5"><a xlink:href="dir_d00b166f8af3f0127800a82b83f56c7d.html" target="_top" xlink:title="systems">
<polygon fill="#a2b4d6" stroke="#404040" points="211,-184 153,-184 153,-165 211,-165 211,-184"/>
<text text-anchor="middle" x="182" y="-172" font-family="Helvetica,sans-Serif" font-size="10.00">systems</text>
</a>
</g>
</g>
<!-- dir_04e46b302a6aadc7f23a11997ed7852b&#45;&gt;dir_d00b166f8af3f0127800a82b83f56c7d -->
<g id="edge5" class="edge">
<title>dir_04e46b302a6aadc7f23a11997ed7852b&#45;&gt;dir_d00b166f8af3f0127800a82b83f56c7d</title>
<g id="a_edge5"><a xlink:href="dir_000149_000136.html" target="_top">
<path fill="none" stroke="#63b8ff" d="M161.96,-219.75C165.21,-212.57 169.92,-202.18 173.95,-193.27"/>
<polygon fill="#63b8ff" stroke="#63b8ff" points="177.17,-194.64 178.11,-184.09 170.8,-191.75 177.17,-194.64"/>
</a>
</g>
<g id="a_edge5&#45;headlabel"><a xlink:href="dir_000149_000136.html" target="_top" xlink:title="1">
<text text-anchor="middle" x="178.28" y="-196.59" font-family="Helvetica,sans-Serif" font-size="10.00" fill="#63b8ff">1</text>
</a>
</g>
</g>
<!-- dir_53e433fa7cbef8c1ea8cd2fd638e1c02 -->
<g id="node6" class="node">
<title>dir_53e433fa7cbef8c1ea8cd2fd638e1c02</title>
<g id="a_node6"><a xlink:href="dir_53e433fa7cbef8c1ea8cd2fd638e1c02.html" target="_top" xlink:title="types">
<polygon fill="#a2b4d6" stroke="#404040" points="106,-74 62,-74 62,-55 106,-55 106,-74"/>
<text text-anchor="middle" x="84" y="-62" font-family="Helvetica,sans-Serif" font-size="10.00">types</text>
</a>
</g>
</g>
<!-- dir_04e46b302a6aadc7f23a11997ed7852b&#45;&gt;dir_53e433fa7cbef8c1ea8cd2fd638e1c02 -->
<g id="edge3" class="edge">
<title>dir_04e46b302a6aadc7f23a11997ed7852b&#45;&gt;dir_53e433fa7cbef8c1ea8cd2fd638e1c02</title>
<g id="a_edge3"><a xlink:href="dir_000149_000160.html" target="_top">
<path fill="none" stroke="#63b8ff" d="M139.13,-219.86C110.58,-205.61 57.45,-174.18 36,-129 27.22,-110.5 44.68,-92.14 60.95,-79.96"/>
<polygon fill="#63b8ff" stroke="#63b8ff" points="63.02,-82.79 69.21,-74.19 59.01,-77.05 63.02,-82.79"/>
</a>
</g>
<g id="a_edge3&#45;headlabel"><a xlink:href="dir_000149_000160.html" target="_top" xlink:title="5">
<text text-anchor="middle" x="61.7" y="-84.67" font-family="Helvetica,sans-Serif" font-size="10.00" fill="#63b8ff">5</text>
</a>
</g>
</g>
<!-- dir_3e2f71566425d27b6ac8140f1223a941 -->
<g id="node8" class="node">
<title>dir_3e2f71566425d27b6ac8140f1223a941</title>
<g id="a_node8"><a xlink:href="dir_3e2f71566425d27b6ac8140f1223a941.html" target="_top" xlink:title="util">
<polygon fill="#edf0f7" stroke="red" stroke-dasharray="5,2" points="335,-184 303,-184 303,-165 335,-165 335,-184"/>
<text text-anchor="middle" x="319" y="-172" font-family="Helvetica,sans-Serif" font-size="10.00">util</text>
</a>
</g>
</g>
<!-- dir_04e46b302a6aadc7f23a11997ed7852b&#45;&gt;dir_3e2f71566425d27b6ac8140f1223a941 -->
<g id="edge1" class="edge">
<title>dir_04e46b302a6aadc7f23a11997ed7852b&#45;&gt;dir_3e2f71566425d27b6ac8140f1223a941</title>
<g id="a_edge1"><a xlink:href="dir_000149_000169.html" target="_top">
<path fill="none" stroke="#63b8ff" d="M182.1,-220.57C211.89,-210.76 262.39,-194.13 293.02,-184.05"/>
<polygon fill="#63b8ff" stroke="#63b8ff" points="294.19,-187.35 302.59,-180.9 292,-180.7 294.19,-187.35"/>
</a>
</g>
<g id="a_edge1&#45;headlabel"><a xlink:href="dir_000149_000169.html" target="_top" xlink:title="1">
<text text-anchor="middle" x="291.66" y="-188.67" font-family="Helvetica,sans-Serif" font-size="10.00" fill="#63b8ff">1</text>
</a>
</g>
</g>
<!-- dir_4e12247f2bbe360a59cd98a83515e8f1 -->
<g id="node9" class="node">
<title>dir_4e12247f2bbe360a59cd98a83515e8f1</title>
<g id="a_node9"><a xlink:href="dir_4e12247f2bbe360a59cd98a83515e8f1.html" target="_top" xlink:title="core">
<polygon fill="#edf0f7" stroke="red" stroke-dasharray="5,2" points="341,-74 303,-74 303,-55 341,-55 341,-74"/>
<text text-anchor="middle" x="322" y="-62" font-family="Helvetica,sans-Serif" font-size="10.00">core</text>
</a>
</g>
</g>
<!-- dir_04e46b302a6aadc7f23a11997ed7852b&#45;&gt;dir_4e12247f2bbe360a59cd98a83515e8f1 -->
<g id="edge2" class="edge">
<title>dir_04e46b302a6aadc7f23a11997ed7852b&#45;&gt;dir_4e12247f2bbe360a59cd98a83515e8f1</title>
<g id="a_edge2"><a xlink:href="dir_000149_000051.html" target="_top">
<path fill="none" stroke="#63b8ff" d="M182.13,-226.22C227.58,-221.38 323.2,-208.48 344,-184 365.33,-158.9 356.61,-141.79 348,-110 345.34,-100.19 339.93,-90.33 334.72,-82.39"/>
<polygon fill="#63b8ff" stroke="#63b8ff" points="337.5,-80.25 328.89,-74.07 331.77,-84.27 337.5,-80.25"/>
</a>
</g>
<g id="a_edge2&#45;headlabel"><a xlink:href="dir_000149_000051.html" target="_top" xlink:title="2">
<text text-anchor="middle" x="341.89" y="-79.06" font-family="Helvetica,sans-Serif" font-size="10.00" fill="#63b8ff">2</text>
</a>
</g>
</g>
<!-- dir_5a58a2ffe8660a7fc51fed7e0c7c898d -->
<g id="node10" class="node">
<title>dir_5a58a2ffe8660a7fc51fed7e0c7c898d</title>
<g id="a_node10"><a xlink:href="dir_5a58a2ffe8660a7fc51fed7e0c7c898d.html" target="_top" xlink:title="core">
<polygon fill="#edf0f7" stroke="red" stroke-dasharray="5,2" points="53,-19 15,-19 15,0 53,0 53,-19"/>
<text text-anchor="middle" x="34" y="-7" font-family="Helvetica,sans-Serif" font-size="10.00">core</text>
</a>
</g>
</g>
<!-- dir_04e46b302a6aadc7f23a11997ed7852b&#45;&gt;dir_5a58a2ffe8660a7fc51fed7e0c7c898d -->
<g id="edge4" class="edge">
<title>dir_04e46b302a6aadc7f23a11997ed7852b&#45;&gt;dir_5a58a2ffe8660a7fc51fed7e0c7c898d</title>
<g id="a_edge4"><a xlink:href="dir_000149_000052.html" target="_top">
<path fill="none" stroke="#63b8ff" d="M133.63,-222.58C111.63,-216.19 79.51,-204.12 58,-184 15.12,-143.88 23.27,-65.57 29.87,-29.51"/>
<polygon fill="#63b8ff" stroke="#63b8ff" points="33.36,-29.88 31.89,-19.39 26.5,-28.51 33.36,-29.88"/>
</a>
</g>
<g id="a_edge4&#45;headlabel"><a xlink:href="dir_000149_000052.html" target="_top" xlink:title="4">
<text text-anchor="middle" x="35.45" y="-31.46" font-family="Helvetica,sans-Serif" font-size="10.00" fill="#63b8ff">4</text>
</a>
</g>
</g>
<!-- dir_fff8ef54a646d9df8d7b15d27474569f -->
<g id="node11" class="node">
<title>dir_fff8ef54a646d9df8d7b15d27474569f</title>
<g id="a_node11"><a xlink:href="dir_fff8ef54a646d9df8d7b15d27474569f.html" target="_top" xlink:title="runtime">
<polygon fill="#edf0f7" stroke="red" stroke-dasharray="5,2" points="414.5,-74 359.5,-74 359.5,-55 414.5,-55 414.5,-74"/>
<text text-anchor="middle" x="387" y="-62" font-family="Helvetica,sans-Serif" font-size="10.00">runtime</text>
</a>
</g>
</g>
<!-- dir_04e46b302a6aadc7f23a11997ed7852b&#45;&gt;dir_fff8ef54a646d9df8d7b15d27474569f -->
<g id="edge8" class="edge">
<title>dir_04e46b302a6aadc7f23a11997ed7852b&#45;&gt;dir_fff8ef54a646d9df8d7b15d27474569f</title>
<g id="a_edge8"><a xlink:href="dir_000149_000111.html" target="_top">
<path fill="none" stroke="#63b8ff" d="M182,-226.53C230.54,-222.06 337.88,-209.48 363,-184 389.32,-157.31 390.6,-110.2 388.96,-84.14"/>
<polygon fill="#63b8ff" stroke="#63b8ff" points="392.45,-83.76 388.12,-74.09 385.47,-84.35 392.45,-83.76"/>
</a>
</g>
<g id="a_edge8&#45;headlabel"><a xlink:href="dir_000149_000111.html" target="_top" xlink:title="9">
<text text-anchor="middle" x="395.58" y="-84.6" font-family="Helvetica,sans-Serif" font-size="10.00" fill="#63b8ff">9</text>
</a>
</g>
</g>
<!-- dir_e5090bf757e2582e2690780840c48cfe&#45;&gt;dir_53e433fa7cbef8c1ea8cd2fd638e1c02 -->
<g id="edge9" class="edge">
<title>dir_e5090bf757e2582e2690780840c48cfe&#45;&gt;dir_53e433fa7cbef8c1ea8cd2fd638e1c02</title>
<g id="a_edge9"><a xlink:href="dir_000018_000160.html" target="_top">
<path fill="none" stroke="#63b8ff" d="M160.38,-109.98C146.14,-101.69 124.25,-88.94 107.55,-79.22"/>
<polygon fill="#63b8ff" stroke="#63b8ff" points="109.29,-76.18 98.89,-74.17 105.77,-82.23 109.29,-76.18"/>
</a>
</g>
<g id="a_edge9&#45;headlabel"><a xlink:href="dir_000018_000160.html" target="_top" xlink:title="1">
<text text-anchor="middle" x="113.82" y="-73.03" font-family="Helvetica,sans-Serif" font-size="10.00" fill="#63b8ff">1</text>
</a>
</g>
</g>
<!-- dir_e5090bf757e2582e2690780840c48cfe&#45;&gt;dir_fff8ef54a646d9df8d7b15d27474569f -->
<g id="edge10" class="edge">
<title>dir_e5090bf757e2582e2690780840c48cfe&#45;&gt;dir_fff8ef54a646d9df8d7b15d27474569f</title>
<g id="a_edge10"><a xlink:href="dir_000018_000111.html" target="_top">
<path fill="none" stroke="#63b8ff" d="M209.06,-109.98C247.5,-100.37 309.84,-84.79 349.6,-74.85"/>
<polygon fill="#63b8ff" stroke="#63b8ff" points="350.59,-78.21 359.44,-72.39 348.89,-71.42 350.59,-78.21"/>
</a>
</g>
<g id="a_edge10&#45;headlabel"><a xlink:href="dir_000018_000111.html" target="_top" xlink:title="2">
<text text-anchor="middle" x="347.79" y="-79.34" font-family="Helvetica,sans-Serif" font-size="10.00" fill="#63b8ff">2</text>
</a>
</g>
</g>
<!-- dir_eecf9752a36b077531052d23563b112d&#45;&gt;dir_53e433fa7cbef8c1ea8cd2fd638e1c02 -->
<g id="edge12" class="edge">
<title>dir_eecf9752a36b077531052d23563b112d&#45;&gt;dir_53e433fa7cbef8c1ea8cd2fd638e1c02</title>
<g id="a_edge12"><a xlink:href="dir_000031_000160.html" target="_top">
<path fill="none" stroke="#63b8ff" d="M83.17,-109.75C83.3,-102.8 83.48,-92.85 83.65,-84.13"/>
<polygon fill="#63b8ff" stroke="#63b8ff" points="87.15,-84.15 83.84,-74.09 80.15,-84.02 87.15,-84.15"/>
</a>
</g>
<g id="a_edge12&#45;headlabel"><a xlink:href="dir_000031_000160.html" target="_top" xlink:title="1">
<text text-anchor="middle" x="89.92" y="-85.3" font-family="Helvetica,sans-Serif" font-size="10.00" fill="#63b8ff">1</text>
</a>
</g>
</g>
<!-- dir_eecf9752a36b077531052d23563b112d&#45;&gt;dir_4e12247f2bbe360a59cd98a83515e8f1 -->
<g id="edge11" class="edge">
<title>dir_eecf9752a36b077531052d23563b112d&#45;&gt;dir_4e12247f2bbe360a59cd98a83515e8f1</title>
<g id="a_edge11"><a xlink:href="dir_000031_000051.html" target="_top">
<path fill="none" stroke="#63b8ff" d="M121.4,-109.98C169.31,-99.36 250.14,-81.44 293.11,-71.91"/>
<polygon fill="#63b8ff" stroke="#63b8ff" points="293.93,-75.31 302.93,-69.73 292.41,-68.48 293.93,-75.31"/>
</a>
</g>
<g id="a_edge11&#45;headlabel"><a xlink:href="dir_000031_000051.html" target="_top" xlink:title="1">
<text text-anchor="middle" x="291.03" y="-76.36" font-family="Helvetica,sans-Serif" font-size="10.00" fill="#63b8ff">1</text>
</a>
</g>
</g>
<!-- dir_eecf9752a36b077531052d23563b112d&#45;&gt;dir_5a58a2ffe8660a7fc51fed7e0c7c898d -->
<g id="edge13" class="edge">
<title>dir_eecf9752a36b077531052d23563b112d&#45;&gt;dir_5a58a2ffe8660a7fc51fed7e0c7c898d</title>
<g id="a_edge13"><a xlink:href="dir_000031_000052.html" target="_top">
<path fill="none" stroke="#63b8ff" d="M75.95,-109.78C69.25,-101.14 59.3,-87.31 53,-74 46.15,-59.52 41.13,-42.01 37.98,-29.05"/>
<polygon fill="#63b8ff" stroke="#63b8ff" points="41.32,-27.99 35.69,-19.02 34.5,-29.54 41.32,-27.99"/>
</a>
</g>
<g id="a_edge13&#45;headlabel"><a xlink:href="dir_000031_000052.html" target="_top" xlink:title="1">
<text text-anchor="middle" x="44.89" y="-28.36" font-family="Helvetica,sans-Serif" font-size="10.00" fill="#63b8ff">1</text>
</a>
</g>
</g>
<!-- dir_d00b166f8af3f0127800a82b83f56c7d&#45;&gt;dir_c8ba3234849006b257a05b362b115823 -->
<g id="edge15" class="edge">
<title>dir_d00b166f8af3f0127800a82b83f56c7d&#45;&gt;dir_c8ba3234849006b257a05b362b115823</title>
<g id="a_edge15"><a xlink:href="dir_000136_000087.html" target="_top">
<path fill="none" stroke="#63b8ff" d="M194.21,-164.98C205.78,-156.92 223.38,-144.65 237.16,-135.03"/>
<polygon fill="#63b8ff" stroke="#63b8ff" points="239.37,-137.76 245.57,-129.17 235.36,-132.02 239.37,-137.76"/>
</a>
</g>
<g id="a_edge15&#45;headlabel"><a xlink:href="dir_000136_000087.html" target="_top" xlink:title="1">
<text text-anchor="middle" x="238.04" y="-139.65" font-family="Helvetica,sans-Serif" font-size="10.00" fill="#63b8ff">1</text>
</a>
</g>
</g>
<!-- dir_d00b166f8af3f0127800a82b83f56c7d&#45;&gt;dir_eecf9752a36b077531052d23563b112d -->
<g id="edge16" class="edge">
<title>dir_d00b166f8af3f0127800a82b83f56c7d&#45;&gt;dir_eecf9752a36b077531052d23563b112d</title>
<g id="a_edge16"><a xlink:href="dir_000136_000031.html" target="_top">
<path fill="none" stroke="#63b8ff" d="M166.09,-164.98C150.45,-156.61 126.34,-143.7 108.12,-133.95"/>
<polygon fill="#63b8ff" stroke="#63b8ff" points="109.66,-130.8 99.2,-129.17 106.36,-136.98 109.66,-130.8"/>
</a>
</g>
<g id="a_edge16&#45;headlabel"><a xlink:href="dir_000136_000031.html" target="_top" xlink:title="1">
<text text-anchor="middle" x="114.17" y="-127.5" font-family="Helvetica,sans-Serif" font-size="10.00" fill="#63b8ff">1</text>
</a>
</g>
</g>
<!-- dir_1ca916e0b9fbc882dbfbd9e6594e5e22 -->
<g id="node7" class="node">
<title>dir_1ca916e0b9fbc882dbfbd9e6594e5e22</title>
<g id="a_node7"><a xlink:href="dir_1ca916e0b9fbc882dbfbd9e6594e5e22.html" target="_top" xlink:title="ecs">
<polygon fill="#edf0f7" stroke="red" stroke-dasharray="5,2" points="338.5,-129 305.5,-129 305.5,-110 338.5,-110 338.5,-129"/>
<text text-anchor="middle" x="322" y="-117" font-family="Helvetica,sans-Serif" font-size="10.00">ecs</text>
</a>
</g>
</g>
<!-- dir_d00b166f8af3f0127800a82b83f56c7d&#45;&gt;dir_1ca916e0b9fbc882dbfbd9e6594e5e22 -->
<g id="edge14" class="edge">
<title>dir_d00b166f8af3f0127800a82b83f56c7d&#45;&gt;dir_1ca916e0b9fbc882dbfbd9e6594e5e22</title>
<g id="a_edge14"><a xlink:href="dir_000136_000059.html" target="_top">
<path fill="none" stroke="#63b8ff" d="M204.49,-164.98C229.33,-155.58 269.28,-140.46 295.59,-130.5"/>
<polygon fill="#63b8ff" stroke="#63b8ff" points="297.16,-133.65 305.27,-126.83 294.68,-127.1 297.16,-133.65"/>
</a>
</g>
<g id="a_edge14&#45;headlabel"><a xlink:href="dir_000136_000059.html" target="_top" xlink:title="1">
<text text-anchor="middle" x="294.8" y="-135.07" font-family="Helvetica,sans-Serif" font-size="10.00" fill="#63b8ff">1</text>
</a>
</g>
</g>
<!-- dir_d00b166f8af3f0127800a82b83f56c7d&#45;&gt;dir_fff8ef54a646d9df8d7b15d27474569f -->
<g id="edge17" class="edge">
<title>dir_d00b166f8af3f0127800a82b83f56c7d&#45;&gt;dir_fff8ef54a646d9df8d7b15d27474569f</title>
<g id="a_edge17"><a xlink:href="dir_000136_000111.html" target="_top">
<path fill="none" stroke="#63b8ff" d="M211.22,-172.13C246.78,-169.12 307.11,-159.51 348,-129 363.35,-117.55 373.99,-98.1 380.24,-83.74"/>
<polygon fill="#63b8ff" stroke="#63b8ff" points="383.52,-84.95 384.01,-74.37 377.03,-82.33 383.52,-84.95"/>
</a>
</g>
<g id="a_edge17&#45;headlabel"><a xlink:href="dir_000136_000111.html" target="_top" xlink:title="2">
<text text-anchor="middle" x="384.81" y="-86.84" font-family="Helvetica,sans-Serif" font-size="10.00" fill="#63b8ff">2</text>
</a>
</g>
</g>
<!-- dir_53e433fa7cbef8c1ea8cd2fd638e1c02&#45;&gt;dir_5a58a2ffe8660a7fc51fed7e0c7c898d -->
<g id="edge18" class="edge">
<title>dir_53e433fa7cbef8c1ea8cd2fd638e1c02&#45;&gt;dir_5a58a2ffe8660a7fc51fed7e0c7c898d</title>
<g id="a_edge18"><a xlink:href="dir_000160_000052.html" target="_top">
<path fill="none" stroke="#63b8ff" d="M75.74,-54.75C68.54,-47.11 57.89,-35.82 49.15,-26.56"/>
<polygon fill="#63b8ff" stroke="#63b8ff" points="51.51,-23.96 42.1,-19.09 46.42,-28.76 51.51,-23.96"/>
</a>
</g>
<g id="a_edge18&#45;headlabel"><a xlink:href="dir_000160_000052.html" target="_top" xlink:title="1">
<text text-anchor="middle" x="56.04" y="-22.13" font-family="Helvetica,sans-Serif" font-size="10.00" fill="#63b8ff">1</text>
</a>
</g>
</g>
</g>
</svg>
