<?xml version="1.0" encoding="UTF-8" standalone="no"?>
<!DOCTYPE svg PUBLIC "-//W3C//DTD SVG 1.1//EN"
 "http://www.w3.org/Graphics/SVG/1.1/DTD/svg11.dtd">
<!-- Generated by graphviz version 2.43.0 (0)
 -->
<!-- Title: bounds Pages: 1 -->
<!--zoomable 235 -->

<svg id="main" version="1.1" xmlns="http://www.w3.org/2000/svg" xmlns:xlink="http://www.w3.org/1999/xlink" xml:space="preserve" onload="init(evt)">

<style type="text/css"><![CDATA[
.node, .edge {opacity: 0.7;}
.node.selected, .edge.selected {opacity: 1;}
.edge:hover path { stroke: red; }
.edge:hover polygon { stroke: red; fill: red; }
]]></style>

<defs>
  <circle id="rim" cx="0" cy="0" r="7"/>
  <circle id="rim2" cx="0" cy="0" r="3.5"/>
  <g id="zoomPlus">
    <use xlink:href="#rim" fill="#404040"><set attributeName="fill" to="#808080" begin="zoomplus.mouseover" end="zoomplus.mouseout"/></use>
    <path d="M-4,0h8M0,-4v8" fill="none" stroke="white" stroke-width="1.5" pointer-events="none"/>
  </g>
  <g id="zoomMin">
    <use xlink:href="#rim" fill="#404040"><set attributeName="fill" to="#808080" begin="zoomminus.mouseover" end="zoomminus.mouseout"/></use>
    <path d="M-4,0h8" fill="none" stroke="white" stroke-width="1.5" pointer-events="none"/>
  </g>
  <g id="arrowUp" transform="translate(30 24)">
    <use xlink:href="#rim"/>
    <path pointer-events="none" fill="none" stroke="white" stroke-width="1.5" d="M0,-3.0v7 M-2.5,-0.5L0,-3.0L2.5,-0.5"/>
  </g>
  <g id="arrowRight" transform="rotate(90) translate(36 -43)">
    <use xlink:href="#rim"/>
    <path pointer-events="none" fill="none" stroke="white" stroke-width="1.5" d="M0,-3.0v7 M-2.5,-0.5L0,-3.0L2.5,-0.5"/>
  </g>
  <g id="arrowDown" transform="rotate(180) translate(-30 -48)">
    <use xlink:href="#rim"/>
    <path pointer-events="none" fill="none" stroke="white" stroke-width="1.5" d="M0,-3.0v7 M-2.5,-0.5L0,-3.0L2.5,-0.5"/>
  </g>
  <g id="arrowLeft" transform="rotate(270) translate(-36 17)">
    <use xlink:href="#rim"/>
    <path pointer-events="none" fill="none" stroke="white" stroke-width="1.5" d="M0,-3.0v7 M-2.5,-0.5L0,-3.0L2.5,-0.5"/>
  </g>
  <g id="resetDef">
    <use xlink:href="#rim2" fill="#404040"><set attributeName="fill" to="#808080" begin="reset.mouseover" end="reset.mouseout"/></use>
  </g>
</defs>
<script type="application/ecmascript">
var viewWidth = 675;
var viewHeight = 235;
var sectionId = 'dynsection-0';
</script>
<script type="application/ecmascript" xlink:href="svg.min.js"/>
<svg id="graph" class="graph">
<g id="viewport">
<title>bounds</title>
<g id="clust1" class="cluster">
<title>clusterdir_e1a38fd6dc0543c7f97fb1ccf1615de7</title>
<g id="a_clust1"><a xlink:href="dir_e1a38fd6dc0543c7f97fb1ccf1615de7.html" target="_top" xlink:title="mechanics">
<polygon fill="#edf0f7" stroke="#7f7f7f" stroke-dasharray="5,2" points="8,-39 8,-219 252,-219 252,-39 8,-39"/>
<text text-anchor="middle" x="130" y="-207" font-family="Helvetica,sans-Serif" font-size="10.00">mechanics</text>
</a>
</g>
</g>
<g id="clust2" class="cluster">
<title>clusterdir_2816aa6ce68bba06b579a19f4299ce30</title>
<g id="a_clust2"><a xlink:href="dir_2816aa6ce68bba06b579a19f4299ce30.html" target="_top" xlink:title="Level boundary behavior components and systems.">
<polygon fill="#edf0f7" stroke="#404040" stroke-width="2" points="16,-47 16,-192 110,-192 110,-47 16,-47"/>
</a>
</g>
</g>
<!-- dir_c8ba3234849006b257a05b362b115823 -->
<g id="node1" class="node">
<title>dir_c8ba3234849006b257a05b362b115823</title>
<g id="a_node1"><a xlink:href="dir_c8ba3234849006b257a05b362b115823.html" target="_top" xlink:title="lifecycle">
<polygon fill="#a2b4d6" stroke="red" points="178,-74 120,-74 120,-55 178,-55 178,-74"/>
<text text-anchor="middle" x="149" y="-62" font-family="Helvetica,sans-Serif" font-size="10.00">lifecycle</text>
</a>
</g>
</g>
<!-- dir_bbe960beed295ed1307a81c8b31ebd37 -->
<g id="node2" class="node">
<title>dir_bbe960beed295ed1307a81c8b31ebd37</title>
<g id="a_node2"><a xlink:href="dir_bbe960beed295ed1307a81c8b31ebd37.html" target="_top" xlink:title="spawn">
<polygon fill="#a2b4d6" stroke="red" points="244,-74 196,-74 196,-55 244,-55 244,-74"/>
<text text-anchor="middle" x="220" y="-62" font-family="Helvetica,sans-Serif" font-size="10.00">spawn</text>
</a>
</g>
</g>
<!-- dir_2816aa6ce68bba06b579a19f4299ce30 -->
<g id="node3" class="node">
<title>dir_2816aa6ce68bba06b579a19f4299ce30</title>
<text text-anchor="middle" x="73" y="-172" font-family="Helvetica,sans-Serif" font-size="10.00">bounds</text>
</g>
<!-- dir_c6483a69d8044e8cd0979f3e8cae52db -->
<g id="node4" class="node">
<title>dir_c6483a69d8044e8cd0979f3e8cae52db</title>
<g id="a_node4"><a xlink:href="dir_c6483a69d8044e8cd0979f3e8cae52db.html" target="_top" xlink:title="components">
<polygon fill="#a2b4d6" stroke="#404040" points="101.5,-74 24.5,-74 24.5,-55 101.5,-55 101.5,-74"/>
<text text-anchor="middle" x="63" y="-62" font-family="Helvetica,sans-Serif" font-size="10.00">components</text>
</a>
</g>
</g>
<!-- dir_2816aa6ce68bba06b579a19f4299ce30&#45;&gt;dir_c6483a69d8044e8cd0979f3e8cae52db -->
<g id="edge2" class="edge">
<title>dir_2816aa6ce68bba06b579a19f4299ce30&#45;&gt;dir_c6483a69d8044e8cd0979f3e8cae52db</title>
<g id="a_edge2"><a xlink:href="dir_000008_000028.html" target="_top">
<path fill="none" stroke="#63b8ff" d="M62.29,-164.93C53.07,-156.8 40.41,-143.68 35,-129 29.04,-112.84 38.47,-94.92 47.96,-82.25"/>
<polygon fill="#63b8ff" stroke="#63b8ff" points="50.75,-84.36 54.36,-74.4 45.33,-79.94 50.75,-84.36"/>
</a>
</g>
<g id="a_edge2&#45;headlabel"><a xlink:href="dir_000008_000028.html" target="_top" xlink:title="3">
<text text-anchor="middle" x="50.69" y="-86.44" font-family="Helvetica,sans-Serif" font-size="10.00" fill="#63b8ff">3</text>
</a>
</g>
</g>
<!-- dir_e9dafb3000ff16395481c9b1403f9007 -->
<g id="node5" class="node">
<title>dir_e9dafb3000ff16395481c9b1403f9007</title>
<g id="a_node5"><a xlink:href="dir_e9dafb3000ff16395481c9b1403f9007.html" target="_top" xlink:title="systems">
<polygon fill="#a2b4d6" stroke="#404040" points="102,-129 44,-129 44,-110 102,-110 102,-129"/>
<text text-anchor="middle" x="73" y="-117" font-family="Helvetica,sans-Serif" font-size="10.00">systems</text>
</a>
</g>
</g>
<!-- dir_2816aa6ce68bba06b579a19f4299ce30&#45;&gt;dir_e9dafb3000ff16395481c9b1403f9007 -->
<g id="edge3" class="edge">
<title>dir_2816aa6ce68bba06b579a19f4299ce30&#45;&gt;dir_e9dafb3000ff16395481c9b1403f9007</title>
<g id="a_edge3"><a xlink:href="dir_000008_000134.html" target="_top">
<path fill="none" stroke="#63b8ff" d="M73,-164.75C73,-157.8 73,-147.85 73,-139.13"/>
<polygon fill="#63b8ff" stroke="#63b8ff" points="76.5,-139.09 73,-129.09 69.5,-139.09 76.5,-139.09"/>
</a>
</g>
<g id="a_edge3&#45;headlabel"><a xlink:href="dir_000008_000134.html" target="_top" xlink:title="1">
<text text-anchor="middle" x="79.34" y="-140.18" font-family="Helvetica,sans-Serif" font-size="10.00" fill="#63b8ff">1</text>
</a>
</g>
</g>
<!-- dir_1ca916e0b9fbc882dbfbd9e6594e5e22 -->
<g id="node6" class="node">
<title>dir_1ca916e0b9fbc882dbfbd9e6594e5e22</title>
<g id="a_node6"><a xlink:href="dir_1ca916e0b9fbc882dbfbd9e6594e5e22.html" target="_top" xlink:title="ecs">
<polygon fill="#edf0f7" stroke="red" stroke-dasharray="5,2" points="666.5,-74 633.5,-74 633.5,-55 666.5,-55 666.5,-74"/>
<text text-anchor="middle" x="650" y="-62" font-family="Helvetica,sans-Serif" font-size="10.00">ecs</text>
</a>
</g>
</g>
<!-- dir_2816aa6ce68bba06b579a19f4299ce30&#45;&gt;dir_1ca916e0b9fbc882dbfbd9e6594e5e22 -->
<g id="edge1" class="edge">
<title>dir_2816aa6ce68bba06b579a19f4299ce30&#45;&gt;dir_1ca916e0b9fbc882dbfbd9e6594e5e22</title>
<g id="a_edge1"><a xlink:href="dir_000008_000065.html" target="_top">
<path fill="none" stroke="#63b8ff" d="M99.16,-170.2C177.66,-160 417.94,-126.63 623.66,-74.04"/>
<polygon fill="#63b8ff" stroke="#63b8ff" points="624.62,-77.41 633.43,-71.52 622.87,-70.63 624.62,-77.41"/>
</a>
</g>
<g id="a_edge1&#45;headlabel"><a xlink:href="dir_000008_000065.html" target="_top" xlink:title="3">
<text text-anchor="middle" x="621.85" y="-78.55" font-family="Helvetica,sans-Serif" font-size="10.00" fill="#63b8ff">3</text>
</a>
</g>
</g>
<!-- dir_87b9f5c33f5a8f4d48db11d48f10a572 -->
<g id="node7" class="node">
<title>dir_87b9f5c33f5a8f4d48db11d48f10a572</title>
<g id="a_node7"><a xlink:href="dir_87b9f5c33f5a8f4d48db11d48f10a572.html" target="_top" xlink:title="modules">
<polygon fill="#edf0f7" stroke="red" stroke-dasharray="5,2" points="196.5,-19 137.5,-19 137.5,0 196.5,0 196.5,-19"/>
<text text-anchor="middle" x="167" y="-7" font-family="Helvetica,sans-Serif" font-size="10.00">modules</text>
</a>
</g>
</g>
<!-- dir_c6483a69d8044e8cd0979f3e8cae52db&#45;&gt;dir_87b9f5c33f5a8f4d48db11d48f10a572 -->
<g id="edge4" class="edge">
<title>dir_c6483a69d8044e8cd0979f3e8cae52db&#45;&gt;dir_87b9f5c33f5a8f4d48db11d48f10a572</title>
<g id="a_edge4"><a xlink:href="dir_000028_000106.html" target="_top">
<path fill="none" stroke="#63b8ff" d="M76.81,-54.99C84.91,-50.11 95.41,-43.98 105,-39 115.62,-33.48 127.52,-27.87 138.03,-23.11"/>
<polygon fill="#63b8ff" stroke="#63b8ff" points="139.52,-26.28 147.22,-19 136.66,-19.89 139.52,-26.28"/>
</a>
</g>
<g id="a_edge4&#45;headlabel"><a xlink:href="dir_000028_000106.html" target="_top" xlink:title="2">
<text text-anchor="middle" x="137.4" y="-27.84" font-family="Helvetica,sans-Serif" font-size="10.00" fill="#63b8ff">2</text>
</a>
</g>
</g>
<!-- dir_e9dafb3000ff16395481c9b1403f9007&#45;&gt;dir_c8ba3234849006b257a05b362b115823 -->
<g id="edge12" class="edge">
<title>dir_e9dafb3000ff16395481c9b1403f9007&#45;&gt;dir_c8ba3234849006b257a05b362b115823</title>
<g id="a_edge12"><a xlink:href="dir_000134_000094.html" target="_top">
<path fill="none" stroke="#63b8ff" d="M85.21,-109.98C96.78,-101.92 114.38,-89.65 128.16,-80.03"/>
<polygon fill="#63b8ff" stroke="#63b8ff" points="130.37,-82.76 136.57,-74.17 126.36,-77.02 130.37,-82.76"/>
</a>
</g>
<g id="a_edge12&#45;headlabel"><a xlink:href="dir_000134_000094.html" target="_top" xlink:title="1">
<text text-anchor="middle" x="129.04" y="-84.65" font-family="Helvetica,sans-Serif" font-size="10.00" fill="#63b8ff">1</text>
</a>
</g>
</g>
<!-- dir_e9dafb3000ff16395481c9b1403f9007&#45;&gt;dir_bbe960beed295ed1307a81c8b31ebd37 -->
<g id="edge10" class="edge">
<title>dir_e9dafb3000ff16395481c9b1403f9007&#45;&gt;dir_bbe960beed295ed1307a81c8b31ebd37</title>
<g id="a_edge10"><a xlink:href="dir_000134_000129.html" target="_top">
<path fill="none" stroke="#63b8ff" d="M96.62,-109.98C120.9,-101.23 158.95,-87.51 186.37,-77.62"/>
<polygon fill="#63b8ff" stroke="#63b8ff" points="187.73,-80.85 195.95,-74.17 185.36,-74.27 187.73,-80.85"/>
</a>
</g>
<g id="a_edge10&#45;headlabel"><a xlink:href="dir_000134_000129.html" target="_top" xlink:title="1">
<text text-anchor="middle" x="185.31" y="-82.24" font-family="Helvetica,sans-Serif" font-size="10.00" fill="#63b8ff">1</text>
</a>
</g>
</g>
<!-- dir_e9dafb3000ff16395481c9b1403f9007&#45;&gt;dir_c6483a69d8044e8cd0979f3e8cae52db -->
<g id="edge11" class="edge">
<title>dir_e9dafb3000ff16395481c9b1403f9007&#45;&gt;dir_c6483a69d8044e8cd0979f3e8cae52db</title>
<g id="a_edge11"><a xlink:href="dir_000134_000028.html" target="_top">
<path fill="none" stroke="#63b8ff" d="M71.35,-109.75C70.04,-102.8 68.16,-92.85 66.52,-84.13"/>
<polygon fill="#63b8ff" stroke="#63b8ff" points="69.91,-83.27 64.62,-74.09 63.04,-84.56 69.91,-83.27"/>
</a>
</g>
<g id="a_edge11&#45;headlabel"><a xlink:href="dir_000134_000028.html" target="_top" xlink:title="1">
<text text-anchor="middle" x="73.37" y="-83.77" font-family="Helvetica,sans-Serif" font-size="10.00" fill="#63b8ff">1</text>
</a>
</g>
</g>
<!-- dir_e9dafb3000ff16395481c9b1403f9007&#45;&gt;dir_1ca916e0b9fbc882dbfbd9e6594e5e22 -->
<g id="edge6" class="edge">
<title>dir_e9dafb3000ff16395481c9b1403f9007&#45;&gt;dir_1ca916e0b9fbc882dbfbd9e6594e5e22</title>
<g id="a_edge6"><a xlink:href="dir_000134_000065.html" target="_top">
<path fill="none" stroke="#63b8ff" d="M102.09,-118.67C183.5,-118.62 420.43,-114.85 623.53,-73.8"/>
<polygon fill="#63b8ff" stroke="#63b8ff" points="624.39,-77.2 633.48,-71.75 622.98,-70.34 624.39,-77.2"/>
</a>
</g>
<g id="a_edge6&#45;headlabel"><a xlink:href="dir_000134_000065.html" target="_top" xlink:title="2">
<text text-anchor="middle" x="621.45" y="-78.2" font-family="Helvetica,sans-Serif" font-size="10.00" fill="#63b8ff">2</text>
</a>
</g>
</g>
<!-- dir_e9dafb3000ff16395481c9b1403f9007&#45;&gt;dir_87b9f5c33f5a8f4d48db11d48f10a572 -->
<g id="edge8" class="edge">
<title>dir_e9dafb3000ff16395481c9b1403f9007&#45;&gt;dir_87b9f5c33f5a8f4d48db11d48f10a572</title>
<g id="a_edge8"><a xlink:href="dir_000134_000106.html" target="_top">
<path fill="none" stroke="#63b8ff" d="M102.35,-115.7C149.12,-110.57 237.21,-97.91 256,-74 265.61,-61.77 265.17,-51.57 256,-39 244.67,-23.48 224.78,-16.22 206.67,-12.9"/>
<polygon fill="#63b8ff" stroke="#63b8ff" points="206.99,-9.41 196.58,-11.4 205.96,-16.33 206.99,-9.41"/>
</a>
</g>
<g id="a_edge8&#45;headlabel"><a xlink:href="dir_000134_000106.html" target="_top" xlink:title="11">
<text text-anchor="middle" x="210.96" y="-4.63" font-family="Helvetica,sans-Serif" font-size="10.00" fill="#63b8ff">11</text>
</a>
</g>
</g>
<!-- dir_1a83b528599da40ca3e2005a9bc9336b -->
<g id="node8" class="node">
<title>dir_1a83b528599da40ca3e2005a9bc9336b</title>
<g id="a_node8"><a xlink:href="dir_1a83b528599da40ca3e2005a9bc9336b.html" target="_top" xlink:title="common">
<polygon fill="#edf0f7" stroke="red" stroke-dasharray="5,2" points="359.5,-74 300.5,-74 300.5,-55 359.5,-55 359.5,-74"/>
<text text-anchor="middle" x="330" y="-62" font-family="Helvetica,sans-Serif" font-size="10.00">common</text>
</a>
</g>
</g>
<!-- dir_e9dafb3000ff16395481c9b1403f9007&#45;&gt;dir_1a83b528599da40ca3e2005a9bc9336b -->
<g id="edge5" class="edge">
<title>dir_e9dafb3000ff16395481c9b1403f9007&#45;&gt;dir_1a83b528599da40ca3e2005a9bc9336b</title>
<g id="a_edge5"><a xlink:href="dir_000134_000025.html" target="_top">
<path fill="none" stroke="#63b8ff" d="M102.48,-112.42C148.83,-102.86 238.8,-84.31 290.63,-73.62"/>
<polygon fill="#63b8ff" stroke="#63b8ff" points="291.38,-77.04 300.47,-71.59 289.97,-70.18 291.38,-77.04"/>
</a>
</g>
<g id="a_edge5&#45;headlabel"><a xlink:href="dir_000134_000025.html" target="_top" xlink:title="1">
<text text-anchor="middle" x="288.43" y="-78.04" font-family="Helvetica,sans-Serif" font-size="10.00" fill="#63b8ff">1</text>
</a>
</g>
</g>
<!-- dir_fff8ef54a646d9df8d7b15d27474569f -->
<g id="node9" class="node">
<title>dir_fff8ef54a646d9df8d7b15d27474569f</title>
<g id="a_node9"><a xlink:href="dir_fff8ef54a646d9df8d7b15d27474569f.html" target="_top" xlink:title="runtime">
<polygon fill="#edf0f7" stroke="red" stroke-dasharray="5,2" points="432.5,-74 377.5,-74 377.5,-55 432.5,-55 432.5,-74"/>
<text text-anchor="middle" x="405" y="-62" font-family="Helvetica,sans-Serif" font-size="10.00">runtime</text>
</a>
</g>
</g>
<!-- dir_e9dafb3000ff16395481c9b1403f9007&#45;&gt;dir_fff8ef54a646d9df8d7b15d27474569f -->
<g id="edge14" class="edge">
<title>dir_e9dafb3000ff16395481c9b1403f9007&#45;&gt;dir_fff8ef54a646d9df8d7b15d27474569f</title>
<g id="a_edge14"><a xlink:href="dir_000134_000119.html" target="_top">
<path fill="none" stroke="#63b8ff" d="M102.13,-114.93C153.69,-108.45 264.58,-93.71 367.23,-74.22"/>
<polygon fill="#63b8ff" stroke="#63b8ff" points="367.98,-77.64 377.14,-72.32 366.66,-70.77 367.98,-77.64"/>
</a>
</g>
<g id="a_edge14&#45;headlabel"><a xlink:href="dir_000134_000119.html" target="_top" xlink:title="4">
<text text-anchor="middle" x="364.98" y="-78.61" font-family="Helvetica,sans-Serif" font-size="10.00" fill="#63b8ff">4</text>
</a>
</g>
</g>
<!-- dir_268add6b94670641c68bb834cdcb4292 -->
<g id="node10" class="node">
<title>dir_268add6b94670641c68bb834cdcb4292</title>
<g id="a_node10"><a xlink:href="dir_268add6b94670641c68bb834cdcb4292.html" target="_top" xlink:title="math">
<polygon fill="#edf0f7" stroke="red" stroke-dasharray="5,2" points="493,-74 451,-74 451,-55 493,-55 493,-74"/>
<text text-anchor="middle" x="472" y="-62" font-family="Helvetica,sans-Serif" font-size="10.00">math</text>
</a>
</g>
</g>
<!-- dir_e9dafb3000ff16395481c9b1403f9007&#45;&gt;dir_268add6b94670641c68bb834cdcb4292 -->
<g id="edge7" class="edge">
<title>dir_e9dafb3000ff16395481c9b1403f9007&#45;&gt;dir_268add6b94670641c68bb834cdcb4292</title>
<g id="a_edge7"><a xlink:href="dir_000134_000099.html" target="_top">
<path fill="none" stroke="#63b8ff" d="M102.43,-116.52C163.74,-112.06 309.69,-99.7 440.97,-73.91"/>
<polygon fill="#63b8ff" stroke="#63b8ff" points="441.67,-77.34 450.79,-71.95 440.3,-70.48 441.67,-77.34"/>
</a>
</g>
<g id="a_edge7&#45;headlabel"><a xlink:href="dir_000134_000099.html" target="_top" xlink:title="1">
<text text-anchor="middle" x="438.7" y="-78.33" font-family="Helvetica,sans-Serif" font-size="10.00" fill="#63b8ff">1</text>
</a>
</g>
</g>
<!-- dir_94b0c4fb82528c4245604725780b49de -->
<g id="node11" class="node">
<title>dir_94b0c4fb82528c4245604725780b49de</title>
<g id="a_node11"><a xlink:href="dir_94b0c4fb82528c4245604725780b49de.html" target="_top" xlink:title="state">
<polygon fill="#edf0f7" stroke="red" stroke-dasharray="5,2" points="552.5,-74 511.5,-74 511.5,-55 552.5,-55 552.5,-74"/>
<text text-anchor="middle" x="532" y="-62" font-family="Helvetica,sans-Serif" font-size="10.00">state</text>
</a>
</g>
</g>
<!-- dir_e9dafb3000ff16395481c9b1403f9007&#45;&gt;dir_94b0c4fb82528c4245604725780b49de -->
<g id="edge9" class="edge">
<title>dir_e9dafb3000ff16395481c9b1403f9007&#45;&gt;dir_94b0c4fb82528c4245604725780b49de</title>
<g id="a_edge9"><a xlink:href="dir_000134_000132.html" target="_top">
<path fill="none" stroke="#63b8ff" d="M102.13,-117.22C170.29,-113.84 345.53,-103.04 501.23,-73.78"/>
<polygon fill="#63b8ff" stroke="#63b8ff" points="502.29,-77.14 511.46,-71.83 500.98,-70.27 502.29,-77.14"/>
</a>
</g>
<g id="a_edge9&#45;headlabel"><a xlink:href="dir_000134_000132.html" target="_top" xlink:title="1">
<text text-anchor="middle" x="499.29" y="-78.1" font-family="Helvetica,sans-Serif" font-size="10.00" fill="#63b8ff">1</text>
</a>
</g>
</g>
<!-- dir_dde1b4dbeafc450b8ae5525133d75a82 -->
<g id="node12" class="node">
<title>dir_dde1b4dbeafc450b8ae5525133d75a82</title>
<g id="a_node12"><a xlink:href="dir_dde1b4dbeafc450b8ae5525133d75a82.html" target="_top" xlink:title="scene">
<polygon fill="#edf0f7" stroke="#7f7f7f" points="615.5,-74 570.5,-74 570.5,-55 615.5,-55 615.5,-74"/>
<text text-anchor="middle" x="593" y="-62" font-family="Helvetica,sans-Serif" font-size="10.00">scene</text>
</a>
</g>
</g>
<!-- dir_e9dafb3000ff16395481c9b1403f9007&#45;&gt;dir_dde1b4dbeafc450b8ae5525133d75a82 -->
<g id="edge13" class="edge">
<title>dir_e9dafb3000ff16395481c9b1403f9007&#45;&gt;dir_dde1b4dbeafc450b8ae5525133d75a82</title>
<g id="a_edge13"><a xlink:href="dir_000134_000121.html" target="_top">
<path fill="none" stroke="#63b8ff" d="M102.18,-117.64C176.96,-115.07 381.63,-105.62 560.31,-74"/>
<polygon fill="#63b8ff" stroke="#63b8ff" points="561.2,-77.4 570.42,-72.19 559.96,-70.51 561.2,-77.4"/>
</a>
</g>
<g id="a_edge13&#45;headlabel"><a xlink:href="dir_000134_000121.html" target="_top" xlink:title="1">
<text text-anchor="middle" x="558.16" y="-78.33" font-family="Helvetica,sans-Serif" font-size="10.00" fill="#63b8ff">1</text>
</a>
</g>
</g>
</g>
</svg>

<g id="navigator" transform="translate(0 0)" fill="#404254">
  <rect fill="#f2f5e9" fill-opacity="0.5" stroke="#606060" stroke-width=".5" x="0" y="0" width="60" height="60"/>
  <use id="zoomplus" xlink:href="#zoomPlus" x="17" y="9" onmousedown="handleZoom(evt,'in')"/>
  <use id="zoomminus" xlink:href="#zoomMin" x="42" y="9" onmousedown="handleZoom(evt,'out')"/>
  <use id="reset" xlink:href="#resetDef" x="30" y="36" onmousedown="handleReset()"/>
   <use id="arrowup" xlink:href="#arrowUp" x="0" y="0" onmousedown="handlePan(0,-1)"/>
  <use id="arrowright" xlink:href="#arrowRight" x="0" y="0" onmousedown="handlePan(1,0)"/>
  <use id="arrowdown" xlink:href="#arrowDown" x="0" y="0" onmousedown="handlePan(0,1)"/>
  <use id="arrowleft" xlink:href="#arrowLeft" x="0" y="0" onmousedown="handlePan(-1,0)"/>
</g>
<svg viewBox="0 0 15 15" width="100%" height="30px" preserveAspectRatio="xMaxYMin meet">
 <g id="arrow_out" transform="scale(0.3 0.3)">
  <a xlink:href="dir_2816aa6ce68bba06b579a19f4299ce30_dep_org.svg" target="_base">
   <rect id="button" ry="5" rx="5" y="6" x="6" height="38" width="38"
        fill="#f2f5e9" fill-opacity="0.5" stroke="#606060" stroke-width="1.0"/>
   <path id="arrow"
     d="M 11.500037,31.436501 C 11.940474,20.09759 22.043105,11.32322 32.158766,21.979434 L 37.068811,17.246167 C 37.068811,17.246167 37.088388,32 37.088388,32 L 22.160133,31.978069 C 22.160133,31.978069 26.997745,27.140456 26.997745,27.140456 C 18.528582,18.264221 13.291696,25.230495 11.500037,31.436501 z"
     style="fill:#404040;"/>
  </a>
 </g>
</svg>

<style type='text/css'>
<![CDATA[
[data-mouse-over-selected='false'] { opacity: 0.7; }
[data-mouse-over-selected='true']  { opacity: 1.0; }
]]>
</style>
<script type="application/ecmascript"><![CDATA[
document.addEventListener('DOMContentLoaded', (event) => {
  highlightEdges();
  highlightAdjacentNodes();
});
]]></script>
</svg>
