<?xml version="1.0" encoding="UTF-8" standalone="no"?>
<!DOCTYPE svg PUBLIC "-//W3C//DTD SVG 1.1//EN"
 "http://www.w3.org/Graphics/SVG/1.1/DTD/svg11.dtd">
<!-- Generated by graphviz version 2.43.0 (0)
 -->
<!-- Title: include/helios/engine/game/components Pages: 1 -->
<!--zoomable 401 -->

<svg id="main" version="1.1" xmlns="http://www.w3.org/2000/svg" xmlns:xlink="http://www.w3.org/1999/xlink" xml:space="preserve" onload="init(evt)">

<style type="text/css"><![CDATA[
.node, .edge {opacity: 0.7;}
.node.selected, .edge.selected {opacity: 1;}
.edge:hover path { stroke: red; }
.edge:hover polygon { stroke: red; fill: red; }
]]></style>

<defs>
  <circle id="rim" cx="0" cy="0" r="7"/>
  <circle id="rim2" cx="0" cy="0" r="3.5"/>
  <g id="zoomPlus">
    <use xlink:href="#rim" fill="#404040"><set attributeName="fill" to="#808080" begin="zoomplus.mouseover" end="zoomplus.mouseout"/></use>
    <path d="M-4,0h8M0,-4v8" fill="none" stroke="white" stroke-width="1.5" pointer-events="none"/>
  </g>
  <g id="zoomMin">
    <use xlink:href="#rim" fill="#404040"><set attributeName="fill" to="#808080" begin="zoomminus.mouseover" end="zoomminus.mouseout"/></use>
    <path d="M-4,0h8" fill="none" stroke="white" stroke-width="1.5" pointer-events="none"/>
  </g>
  <g id="arrowUp" transform="translate(30 24)">
    <use xlink:href="#rim"/>
    <path pointer-events="none" fill="none" stroke="white" stroke-width="1.5" d="M0,-3.0v7 M-2.5,-0.5L0,-3.0L2.5,-0.5"/>
  </g>
  <g id="arrowRight" transform="rotate(90) translate(36 -43)">
    <use xlink:href="#rim"/>
    <path pointer-events="none" fill="none" stroke="white" stroke-width="1.5" d="M0,-3.0v7 M-2.5,-0.5L0,-3.0L2.5,-0.5"/>
  </g>
  <g id="arrowDown" transform="rotate(180) translate(-30 -48)">
    <use xlink:href="#rim"/>
    <path pointer-events="none" fill="none" stroke="white" stroke-width="1.5" d="M0,-3.0v7 M-2.5,-0.5L0,-3.0L2.5,-0.5"/>
  </g>
  <g id="arrowLeft" transform="rotate(270) translate(-36 17)">
    <use xlink:href="#rim"/>
    <path pointer-events="none" fill="none" stroke="white" stroke-width="1.5" d="M0,-3.0v7 M-2.5,-0.5L0,-3.0L2.5,-0.5"/>
  </g>
  <g id="resetDef">
    <use xlink:href="#rim2" fill="#404040"><set attributeName="fill" to="#808080" begin="reset.mouseover" end="reset.mouseout"/></use>
  </g>
</defs>
<script type="application/ecmascript">
var viewWidth = 739;
var viewHeight = 401;
var sectionId = 'dynsection-0';
</script>
<script type="application/ecmascript" xlink:href="svg.min.js"/>
<svg id="graph" class="graph">
<g id="viewport">
<title>include/helios/engine/game/components</title>
<g id="clust1" class="cluster">
<title>clusterdir_46c7b0b04924cca8aa10726746d57f30</title>
<g id="a_clust1"><a xlink:href="dir_46c7b0b04924cca8aa10726746d57f30.html" target="_top" xlink:title="game">
<polygon fill="#edf0f7" stroke="#7f7f7f" stroke-dasharray="5,2" points="154,-39.7 154,-384.7 547,-384.7 547,-39.7 154,-39.7"/>
<text text-anchor="middle" x="350.5" y="-372.7" font-family="Helvetica,sans-Serif" font-size="10.00">game</text>
</a>
</g>
</g>
<g id="clust2" class="cluster">
<title>clusterdir_f71deafbc833970927ad1dfabdb805be</title>
<g id="a_clust2"><a xlink:href="dir_f71deafbc833970927ad1dfabdb805be.html" target="_top">
<polygon fill="#edf0f7" stroke="#404040" stroke-width="2" points="162,-47.7 162,-357.7 383,-357.7 383,-47.7 162,-47.7"/>
</a>
</g>
</g>
<!-- dir_36ea2b7be3cb8c26515d956982029a89 -->
<g id="node1" class="node">
<title>dir_36ea2b7be3cb8c26515d956982029a89</title>
<g id="a_node1"><a xlink:href="dir_36ea2b7be3cb8c26515d956982029a89.html" target="_top" xlink:title="systems">
<polygon fill="#a2b4d6" stroke="red" points="449,-239.7 391,-239.7 391,-220.7 449,-220.7 449,-239.7"/>
<text text-anchor="middle" x="420" y="-227.7" font-family="Helvetica,sans-Serif" font-size="10.00">systems</text>
</a>
</g>
</g>
<!-- dir_e0c1a906bd0da41122364a897b83de07 -->
<g id="node2" class="node">
<title>dir_e0c1a906bd0da41122364a897b83de07</title>
<g id="a_node2"><a xlink:href="dir_e0c1a906bd0da41122364a897b83de07.html" target="_top" xlink:title="commands">
<polygon fill="#a2b4d6" stroke="#404040" points="538.5,-239.7 467.5,-239.7 467.5,-220.7 538.5,-220.7 538.5,-239.7"/>
<text text-anchor="middle" x="503" y="-227.7" font-family="Helvetica,sans-Serif" font-size="10.00">commands</text>
</a>
</g>
</g>
<!-- dir_f71deafbc833970927ad1dfabdb805be -->
<g id="node3" class="node">
<title>dir_f71deafbc833970927ad1dfabdb805be</title>
<text text-anchor="middle" x="221" y="-337.7" font-family="Helvetica,sans-Serif" font-size="10.00">components</text>
</g>
<!-- dir_69ac198a725b74a6542bd737425bc621 -->
<g id="node4" class="node">
<title>dir_69ac198a725b74a6542bd737425bc621</title>
<g id="a_node4"><a xlink:href="dir_69ac198a725b74a6542bd737425bc621.html" target="_top" xlink:title="gameplay">
<polygon fill="#a2b4d6" stroke="#404040" points="315.5,-294.7 250.5,-294.7 250.5,-275.7 315.5,-275.7 315.5,-294.7"/>
<text text-anchor="middle" x="283" y="-282.7" font-family="Helvetica,sans-Serif" font-size="10.00">gameplay</text>
</a>
</g>
</g>
<!-- dir_f71deafbc833970927ad1dfabdb805be&#45;&gt;dir_69ac198a725b74a6542bd737425bc621 -->
<g id="edge3" class="edge">
<title>dir_f71deafbc833970927ad1dfabdb805be&#45;&gt;dir_69ac198a725b74a6542bd737425bc621</title>
<g id="a_edge3"><a xlink:href="dir_000005_000019.html" target="_top">
<path fill="none" stroke="#63b8ff" d="M230.96,-330.68C240.13,-322.85 253.94,-311.04 265.03,-301.56"/>
<polygon fill="#63b8ff" stroke="#63b8ff" points="267.53,-304.03 272.86,-294.87 262.98,-298.71 267.53,-304.03"/>
</a>
</g>
<g id="a_edge3&#45;headlabel"><a xlink:href="dir_000005_000019.html" target="_top" xlink:title="2">
<text text-anchor="middle" x="266.64" y="-306.02" font-family="Helvetica,sans-Serif" font-size="10.00" fill="#63b8ff">2</text>
</a>
</g>
</g>
<!-- dir_d6084da4fc4b24f9403bfa9461419522 -->
<g id="node5" class="node">
<title>dir_d6084da4fc4b24f9403bfa9461419522</title>
<g id="a_node5"><a xlink:href="dir_d6084da4fc4b24f9403bfa9461419522.html" target="_top" xlink:title="input">
<polygon fill="#a2b4d6" stroke="#404040" points="374.5,-294.7 333.5,-294.7 333.5,-275.7 374.5,-275.7 374.5,-294.7"/>
<text text-anchor="middle" x="354" y="-282.7" font-family="Helvetica,sans-Serif" font-size="10.00">input</text>
</a>
</g>
</g>
<!-- dir_f71deafbc833970927ad1dfabdb805be&#45;&gt;dir_d6084da4fc4b24f9403bfa9461419522 -->
<g id="edge5" class="edge">
<title>dir_f71deafbc833970927ad1dfabdb805be&#45;&gt;dir_d6084da4fc4b24f9403bfa9461419522</title>
<g id="a_edge5"><a xlink:href="dir_000005_000026.html" target="_top">
<path fill="none" stroke="#63b8ff" d="M242.37,-330.68C264.41,-321.9 298.97,-308.13 323.8,-298.23"/>
<polygon fill="#63b8ff" stroke="#63b8ff" points="325.13,-301.47 333.12,-294.52 322.54,-294.97 325.13,-301.47"/>
</a>
</g>
<g id="a_edge5&#45;headlabel"><a xlink:href="dir_000005_000026.html" target="_top" xlink:title="1">
<text text-anchor="middle" x="322.84" y="-302.94" font-family="Helvetica,sans-Serif" font-size="10.00" fill="#63b8ff">1</text>
</a>
</g>
</g>
<!-- dir_0c067f1468e0d048c05884818744eafc -->
<g id="node6" class="node">
<title>dir_0c067f1468e0d048c05884818744eafc</title>
<g id="a_node6"><a xlink:href="dir_0c067f1468e0d048c05884818744eafc.html" target="_top" xlink:title="model">
<polygon fill="#a2b4d6" stroke="#404040" points="285.5,-74.7 238.5,-74.7 238.5,-55.7 285.5,-55.7 285.5,-74.7"/>
<text text-anchor="middle" x="262" y="-62.7" font-family="Helvetica,sans-Serif" font-size="10.00">model</text>
</a>
</g>
</g>
<!-- dir_f71deafbc833970927ad1dfabdb805be&#45;&gt;dir_0c067f1468e0d048c05884818744eafc -->
<g id="edge1" class="edge">
<title>dir_f71deafbc833970927ad1dfabdb805be&#45;&gt;dir_0c067f1468e0d048c05884818744eafc</title>
<g id="a_edge1"><a xlink:href="dir_000005_000032.html" target="_top">
<path fill="none" stroke="#63b8ff" d="M221.76,-330.52C222.91,-318.24 225.36,-295.14 229,-275.7 232.04,-259.49 234.67,-255.85 238,-239.7 249.5,-184 257.01,-117.08 260.22,-85.06"/>
<polygon fill="#63b8ff" stroke="#63b8ff" points="263.72,-85.22 261.2,-74.93 256.75,-84.55 263.72,-85.22"/>
</a>
</g>
<g id="a_edge1&#45;headlabel"><a xlink:href="dir_000005_000032.html" target="_top" xlink:title="2">
<text text-anchor="middle" x="266.19" y="-86.58" font-family="Helvetica,sans-Serif" font-size="10.00" fill="#63b8ff">2</text>
</a>
</g>
</g>
<!-- dir_df55b9b4d946c8e2a0754190098e7cc2 -->
<g id="node7" class="node">
<title>dir_df55b9b4d946c8e2a0754190098e7cc2</title>
<g id="a_node7"><a xlink:href="dir_df55b9b4d946c8e2a0754190098e7cc2.html" target="_top" xlink:title="physics">
<polygon fill="#a2b4d6" stroke="#404040" points="223.5,-239.7 170.5,-239.7 170.5,-220.7 223.5,-220.7 223.5,-239.7"/>
<text text-anchor="middle" x="197" y="-227.7" font-family="Helvetica,sans-Serif" font-size="10.00">physics</text>
</a>
</g>
</g>
<!-- dir_f71deafbc833970927ad1dfabdb805be&#45;&gt;dir_df55b9b4d946c8e2a0754190098e7cc2 -->
<g id="edge6" class="edge">
<title>dir_f71deafbc833970927ad1dfabdb805be&#45;&gt;dir_df55b9b4d946c8e2a0754190098e7cc2</title>
<g id="a_edge6"><a xlink:href="dir_000005_000035.html" target="_top">
<path fill="none" stroke="#63b8ff" d="M211.12,-330.45C202.61,-322.2 190.95,-309 186,-294.7 180.91,-279.99 184.6,-262.53 189.03,-249.64"/>
<polygon fill="#63b8ff" stroke="#63b8ff" points="192.39,-250.64 192.74,-240.05 185.87,-248.11 192.39,-250.64"/>
</a>
</g>
<g id="a_edge6&#45;headlabel"><a xlink:href="dir_000005_000035.html" target="_top" xlink:title="11">
<text text-anchor="middle" x="193.74" y="-252.52" font-family="Helvetica,sans-Serif" font-size="10.00" fill="#63b8ff">11</text>
</a>
</g>
</g>
<!-- dir_985d4ed54faec87b01987d3b14a16a81 -->
<g id="node8" class="node">
<title>dir_985d4ed54faec87b01987d3b14a16a81</title>
<g id="a_node8"><a xlink:href="dir_985d4ed54faec87b01987d3b14a16a81.html" target="_top" xlink:title="rendering">
<polygon fill="#a2b4d6" stroke="#404040" points="345.5,-129.7 282.5,-129.7 282.5,-110.7 345.5,-110.7 345.5,-129.7"/>
<text text-anchor="middle" x="314" y="-117.7" font-family="Helvetica,sans-Serif" font-size="10.00">rendering</text>
</a>
</g>
</g>
<!-- dir_f71deafbc833970927ad1dfabdb805be&#45;&gt;dir_985d4ed54faec87b01987d3b14a16a81 -->
<g id="edge4" class="edge">
<title>dir_f71deafbc833970927ad1dfabdb805be&#45;&gt;dir_985d4ed54faec87b01987d3b14a16a81</title>
<g id="a_edge4"><a xlink:href="dir_000005_000039.html" target="_top">
<path fill="none" stroke="#63b8ff" d="M222.94,-330.65C225.97,-318.14 232.49,-294.31 242,-275.7 250.98,-258.12 258.57,-257.04 268,-239.7 286.29,-206.05 300.92,-163.58 308.45,-139.7"/>
<polygon fill="#63b8ff" stroke="#63b8ff" points="311.88,-140.45 311.48,-129.86 305.19,-138.39 311.88,-140.45"/>
</a>
</g>
<g id="a_edge4&#45;headlabel"><a xlink:href="dir_000005_000039.html" target="_top" xlink:title="2">
<text text-anchor="middle" x="313.53" y="-142.22" font-family="Helvetica,sans-Serif" font-size="10.00" fill="#63b8ff">2</text>
</a>
</g>
</g>
<!-- dir_3b4f599e8ce0902467fe2dd47cf1b7f2 -->
<g id="node9" class="node">
<title>dir_3b4f599e8ce0902467fe2dd47cf1b7f2</title>
<g id="a_node9"><a xlink:href="dir_3b4f599e8ce0902467fe2dd47cf1b7f2.html" target="_top" xlink:title="scene">
<polygon fill="#a2b4d6" stroke="#404040" points="237.5,-184.7 192.5,-184.7 192.5,-165.7 237.5,-165.7 237.5,-184.7"/>
<text text-anchor="middle" x="215" y="-172.7" font-family="Helvetica,sans-Serif" font-size="10.00">scene</text>
</a>
</g>
</g>
<!-- dir_f71deafbc833970927ad1dfabdb805be&#45;&gt;dir_3b4f599e8ce0902467fe2dd47cf1b7f2 -->
<g id="edge2" class="edge">
<title>dir_f71deafbc833970927ad1dfabdb805be&#45;&gt;dir_3b4f599e8ce0902467fe2dd47cf1b7f2</title>
<g id="a_edge2"><a xlink:href="dir_000005_000041.html" target="_top">
<path fill="none" stroke="#63b8ff" d="M215.9,-330.43C209.37,-318.05 199.62,-294.83 206,-275.7 212.32,-256.72 226.68,-258.67 233,-239.7 235.67,-231.69 234.61,-228.99 233,-220.7 231.21,-211.49 227.52,-201.79 223.94,-193.79"/>
<polygon fill="#63b8ff" stroke="#63b8ff" points="227.09,-192.27 219.62,-184.76 220.77,-195.29 227.09,-192.27"/>
</a>
</g>
<g id="a_edge2&#45;headlabel"><a xlink:href="dir_000005_000041.html" target="_top" xlink:title="3">
<text text-anchor="middle" x="231.2" y="-191.79" font-family="Helvetica,sans-Serif" font-size="10.00" fill="#63b8ff">3</text>
</a>
</g>
</g>
<!-- dir_69ac198a725b74a6542bd737425bc621&#45;&gt;dir_36ea2b7be3cb8c26515d956982029a89 -->
<g id="edge9" class="edge">
<title>dir_69ac198a725b74a6542bd737425bc621&#45;&gt;dir_36ea2b7be3cb8c26515d956982029a89</title>
<g id="a_edge9"><a xlink:href="dir_000019_000047.html" target="_top">
<path fill="none" stroke="#63b8ff" d="M305.01,-275.68C327.45,-267 362.48,-253.45 387.99,-243.58"/>
<polygon fill="#63b8ff" stroke="#63b8ff" points="389.52,-246.74 397.59,-239.87 387,-240.21 389.52,-246.74"/>
</a>
</g>
<g id="a_edge9&#45;headlabel"><a xlink:href="dir_000019_000047.html" target="_top" xlink:title="1">
<text text-anchor="middle" x="387.2" y="-248.19" font-family="Helvetica,sans-Serif" font-size="10.00" fill="#63b8ff">1</text>
</a>
</g>
</g>
<!-- dir_69ac198a725b74a6542bd737425bc621&#45;&gt;dir_df55b9b4d946c8e2a0754190098e7cc2 -->
<g id="edge13" class="edge">
<title>dir_69ac198a725b74a6542bd737425bc621&#45;&gt;dir_df55b9b4d946c8e2a0754190098e7cc2</title>
<g id="a_edge13"><a xlink:href="dir_000019_000035.html" target="_top">
<path fill="none" stroke="#63b8ff" d="M269.18,-275.68C255.85,-267.46 235.42,-254.87 219.69,-245.18"/>
<polygon fill="#63b8ff" stroke="#63b8ff" points="221.42,-242.13 211.07,-239.87 217.75,-248.09 221.42,-242.13"/>
</a>
</g>
<g id="a_edge13&#45;headlabel"><a xlink:href="dir_000019_000035.html" target="_top" xlink:title="1">
<text text-anchor="middle" x="225.97" y="-239.1" font-family="Helvetica,sans-Serif" font-size="10.00" fill="#63b8ff">1</text>
</a>
</g>
</g>
<!-- dir_0046d781185df00694c70533b055a138 -->
<g id="node10" class="node">
<title>dir_0046d781185df00694c70533b055a138</title>
<g id="a_node10"><a xlink:href="dir_0046d781185df00694c70533b055a138.html" target="_top" xlink:title="math">
<polygon fill="#edf0f7" stroke="red" stroke-dasharray="5,2" points="257,-19.7 215,-19.7 215,-0.7 257,-0.7 257,-19.7"/>
<text text-anchor="middle" x="236" y="-7.7" font-family="Helvetica,sans-Serif" font-size="10.00">math</text>
</a>
</g>
</g>
<!-- dir_69ac198a725b74a6542bd737425bc621&#45;&gt;dir_0046d781185df00694c70533b055a138 -->
<g id="edge7" class="edge">
<title>dir_69ac198a725b74a6542bd737425bc621&#45;&gt;dir_0046d781185df00694c70533b055a138</title>
<g id="a_edge7"><a xlink:href="dir_000019_000030.html" target="_top">
<path fill="none" stroke="#63b8ff" d="M250.26,-278.85C175.77,-265.76 0,-229.25 0,-176.2 0,-176.2 0,-176.2 0,-119.2 0,-55.22 61.4,-65.38 120,-39.7 147.47,-27.66 180.91,-20.13 204.82,-15.85"/>
<polygon fill="#63b8ff" stroke="#63b8ff" points="205.49,-19.29 214.76,-14.17 204.32,-12.39 205.49,-19.29"/>
</a>
</g>
<g id="a_edge7&#45;headlabel"><a xlink:href="dir_000019_000030.html" target="_top" xlink:title="4">
<text text-anchor="middle" x="202.42" y="-20.19" font-family="Helvetica,sans-Serif" font-size="10.00" fill="#63b8ff">4</text>
</a>
</g>
</g>
<!-- dir_9ba586a504c756f19720715161f17166 -->
<g id="node11" class="node">
<title>dir_9ba586a504c756f19720715161f17166</title>
<g id="a_node11"><a xlink:href="dir_9ba586a504c756f19720715161f17166.html" target="_top" xlink:title="rendering">
<polygon fill="#edf0f7" stroke="red" stroke-dasharray="5,2" points="660.5,-74.7 597.5,-74.7 597.5,-55.7 660.5,-55.7 660.5,-74.7"/>
<text text-anchor="middle" x="629" y="-62.7" font-family="Helvetica,sans-Serif" font-size="10.00">rendering</text>
</a>
</g>
</g>
<!-- dir_69ac198a725b74a6542bd737425bc621&#45;&gt;dir_9ba586a504c756f19720715161f17166 -->
<g id="edge11" class="edge">
<title>dir_69ac198a725b74a6542bd737425bc621&#45;&gt;dir_9ba586a504c756f19720715161f17166</title>
<g id="a_edge11"><a xlink:href="dir_000019_000040.html" target="_top">
<path fill="none" stroke="#63b8ff" d="M315.5,-277.3C318.71,-276.71 321.91,-276.17 325,-275.7 402.08,-263.95 621.77,-297.59 674,-239.7 714.76,-194.52 667,-117.14 642.17,-83.11"/>
<polygon fill="#63b8ff" stroke="#63b8ff" points="644.94,-80.97 636.14,-75.07 639.34,-85.17 644.94,-80.97"/>
</a>
</g>
<g id="a_edge11&#45;headlabel"><a xlink:href="dir_000019_000040.html" target="_top" xlink:title="2">
<text text-anchor="middle" x="649.37" y="-79.64" font-family="Helvetica,sans-Serif" font-size="10.00" fill="#63b8ff">2</text>
</a>
</g>
</g>
<!-- dir_106756a8ee71bdde7f7b779a3a0a52e4 -->
<g id="node12" class="node">
<title>dir_106756a8ee71bdde7f7b779a3a0a52e4</title>
<g id="a_node12"><a xlink:href="dir_106756a8ee71bdde7f7b779a3a0a52e4.html" target="_top" xlink:title="ext">
<polygon fill="#edf0f7" stroke="red" stroke-dasharray="5,2" points="665,-239.7 633,-239.7 633,-220.7 665,-220.7 665,-239.7"/>
<text text-anchor="middle" x="649" y="-227.7" font-family="Helvetica,sans-Serif" font-size="10.00">ext</text>
</a>
</g>
</g>
<!-- dir_69ac198a725b74a6542bd737425bc621&#45;&gt;dir_106756a8ee71bdde7f7b779a3a0a52e4 -->
<g id="edge8" class="edge">
<title>dir_69ac198a725b74a6542bd737425bc621&#45;&gt;dir_106756a8ee71bdde7f7b779a3a0a52e4</title>
<g id="a_edge8"><a xlink:href="dir_000019_000016.html" target="_top">
<path fill="none" stroke="#63b8ff" d="M315.51,-277.36C318.71,-276.76 321.92,-276.2 325,-275.7 454.95,-254.63 489.95,-265.72 619,-239.7 620.28,-239.44 621.59,-239.15 622.91,-238.85"/>
<polygon fill="#63b8ff" stroke="#63b8ff" points="624.12,-242.15 632.92,-236.25 622.36,-235.37 624.12,-242.15"/>
</a>
</g>
<g id="a_edge8&#45;headlabel"><a xlink:href="dir_000019_000016.html" target="_top" xlink:title="3">
<text text-anchor="middle" x="621.36" y="-243.3" font-family="Helvetica,sans-Serif" font-size="10.00" fill="#63b8ff">3</text>
</a>
</g>
</g>
<!-- dir_b6e017bc8c299f04fc1162fc4677be61 -->
<g id="node13" class="node">
<title>dir_b6e017bc8c299f04fc1162fc4677be61</title>
<g id="a_node13"><a xlink:href="dir_b6e017bc8c299f04fc1162fc4677be61.html" target="_top" xlink:title="scene">
<polygon fill="#edf0f7" stroke="#7f7f7f" points="600.5,-129.7 555.5,-129.7 555.5,-110.7 600.5,-110.7 600.5,-129.7"/>
<text text-anchor="middle" x="578" y="-117.7" font-family="Helvetica,sans-Serif" font-size="10.00">scene</text>
</a>
</g>
</g>
<!-- dir_69ac198a725b74a6542bd737425bc621&#45;&gt;dir_b6e017bc8c299f04fc1162fc4677be61 -->
<g id="edge12" class="edge">
<title>dir_69ac198a725b74a6542bd737425bc621&#45;&gt;dir_b6e017bc8c299f04fc1162fc4677be61</title>
<g id="a_edge12"><a xlink:href="dir_000019_000043.html" target="_top">
<path fill="none" stroke="#63b8ff" d="M315.53,-277.43C318.72,-276.82 321.92,-276.23 325,-275.7 379.43,-266.21 526.84,-272.9 571,-239.7 598.75,-218.83 602.63,-199.77 596,-165.7 594.21,-156.49 590.52,-146.79 586.94,-138.79"/>
<polygon fill="#63b8ff" stroke="#63b8ff" points="590.09,-137.27 582.62,-129.76 583.77,-140.29 590.09,-137.27"/>
</a>
</g>
<g id="a_edge12&#45;headlabel"><a xlink:href="dir_000019_000043.html" target="_top" xlink:title="1">
<text text-anchor="middle" x="594.2" y="-136.79" font-family="Helvetica,sans-Serif" font-size="10.00" fill="#63b8ff">1</text>
</a>
</g>
</g>
<!-- dir_7f0768799dd37ef2f2adcdfec91ab1e9 -->
<g id="node14" class="node">
<title>dir_7f0768799dd37ef2f2adcdfec91ab1e9</title>
<g id="a_node14"><a xlink:href="dir_7f0768799dd37ef2f2adcdfec91ab1e9.html" target="_top" xlink:title="util">
<polygon fill="#edf0f7" stroke="red" stroke-dasharray="5,2" points="587,-184.7 555,-184.7 555,-165.7 587,-165.7 587,-184.7"/>
<text text-anchor="middle" x="571" y="-172.7" font-family="Helvetica,sans-Serif" font-size="10.00">util</text>
</a>
</g>
</g>
<!-- dir_69ac198a725b74a6542bd737425bc621&#45;&gt;dir_7f0768799dd37ef2f2adcdfec91ab1e9 -->
<g id="edge10" class="edge">
<title>dir_69ac198a725b74a6542bd737425bc621&#45;&gt;dir_7f0768799dd37ef2f2adcdfec91ab1e9</title>
<g id="a_edge10"><a xlink:href="dir_000019_000055.html" target="_top">
<path fill="none" stroke="#63b8ff" d="M315.53,-277.47C318.73,-276.86 321.93,-276.25 325,-275.7 375.04,-266.65 512.49,-272.92 551,-239.7 563.71,-228.74 568.43,-209.78 570.14,-195.43"/>
<polygon fill="#63b8ff" stroke="#63b8ff" points="573.66,-195.39 570.97,-185.14 566.68,-194.83 573.66,-195.39"/>
</a>
</g>
<g id="a_edge10&#45;headlabel"><a xlink:href="dir_000019_000055.html" target="_top" xlink:title="1">
<text text-anchor="middle" x="576.2" y="-196.7" font-family="Helvetica,sans-Serif" font-size="10.00" fill="#63b8ff">1</text>
</a>
</g>
</g>
<!-- dir_d6084da4fc4b24f9403bfa9461419522&#45;&gt;dir_e0c1a906bd0da41122364a897b83de07 -->
<g id="edge15" class="edge">
<title>dir_d6084da4fc4b24f9403bfa9461419522&#45;&gt;dir_e0c1a906bd0da41122364a897b83de07</title>
<g id="a_edge15"><a xlink:href="dir_000026_000004.html" target="_top">
<path fill="none" stroke="#63b8ff" d="M374.72,-276.83C399.18,-268.13 440.21,-253.53 469.27,-243.19"/>
<polygon fill="#63b8ff" stroke="#63b8ff" points="470.76,-246.38 479.01,-239.73 468.41,-239.79 470.76,-246.38"/>
</a>
</g>
<g id="a_edge15&#45;headlabel"><a xlink:href="dir_000026_000004.html" target="_top" xlink:title="4">
<text text-anchor="middle" x="468.32" y="-247.76" font-family="Helvetica,sans-Serif" font-size="10.00" fill="#63b8ff">4</text>
</a>
</g>
</g>
<!-- dir_d6084da4fc4b24f9403bfa9461419522&#45;&gt;dir_0046d781185df00694c70533b055a138 -->
<g id="edge14" class="edge">
<title>dir_d6084da4fc4b24f9403bfa9461419522&#45;&gt;dir_0046d781185df00694c70533b055a138</title>
<g id="a_edge14"><a xlink:href="dir_000026_000030.html" target="_top">
<path fill="none" stroke="#63b8ff" d="M374.55,-283.8C439.63,-282.2 640.03,-274.48 693,-239.7 720.49,-221.64 731,-209.09 731,-176.2 731,-176.2 731,-176.2 731,-119.2 731,-74.66 709.28,-60.69 670,-39.7 634.77,-20.86 361.22,-13.69 267.43,-11.77"/>
<polygon fill="#63b8ff" stroke="#63b8ff" points="267.23,-8.27 257.16,-11.57 267.09,-15.27 267.23,-8.27"/>
</a>
</g>
<g id="a_edge14&#45;headlabel"><a xlink:href="dir_000026_000030.html" target="_top" xlink:title="2">
<text text-anchor="middle" x="270.88" y="-3" font-family="Helvetica,sans-Serif" font-size="10.00" fill="#63b8ff">2</text>
</a>
</g>
</g>
<!-- dir_0c067f1468e0d048c05884818744eafc&#45;&gt;dir_0046d781185df00694c70533b055a138 -->
<g id="edge16" class="edge">
<title>dir_0c067f1468e0d048c05884818744eafc&#45;&gt;dir_0046d781185df00694c70533b055a138</title>
<g id="a_edge16"><a xlink:href="dir_000032_000030.html" target="_top">
<path fill="none" stroke="#63b8ff" d="M257.71,-55.45C254.19,-48.27 249.09,-37.88 244.72,-28.97"/>
<polygon fill="#63b8ff" stroke="#63b8ff" points="247.76,-27.22 240.21,-19.79 241.48,-30.31 247.76,-27.22"/>
</a>
</g>
<g id="a_edge16&#45;headlabel"><a xlink:href="dir_000032_000030.html" target="_top" xlink:title="1">
<text text-anchor="middle" x="251.89" y="-26.7" font-family="Helvetica,sans-Serif" font-size="10.00" fill="#63b8ff">1</text>
</a>
</g>
</g>
<!-- dir_6a0662f282a699b80270a7344921b324 -->
<g id="node15" class="node">
<title>dir_6a0662f282a699b80270a7344921b324</title>
<g id="a_node15"><a xlink:href="dir_6a0662f282a699b80270a7344921b324.html" target="_top" xlink:title="core">
<polygon fill="#edf0f7" stroke="red" stroke-dasharray="5,2" points="140,-19.7 102,-19.7 102,-0.7 140,-0.7 140,-19.7"/>
<text text-anchor="middle" x="121" y="-7.7" font-family="Helvetica,sans-Serif" font-size="10.00">core</text>
</a>
</g>
</g>
<!-- dir_0c067f1468e0d048c05884818744eafc&#45;&gt;dir_6a0662f282a699b80270a7344921b324 -->
<g id="edge17" class="edge">
<title>dir_0c067f1468e0d048c05884818744eafc&#45;&gt;dir_6a0662f282a699b80270a7344921b324</title>
<g id="a_edge17"><a xlink:href="dir_000032_000009.html" target="_top">
<path fill="none" stroke="#63b8ff" d="M239.35,-55.68C215.05,-46.55 176.39,-32.02 149.92,-22.07"/>
<polygon fill="#63b8ff" stroke="#63b8ff" points="151.01,-18.74 140.42,-18.5 148.55,-25.29 151.01,-18.74"/>
</a>
</g>
<g id="a_edge17&#45;headlabel"><a xlink:href="dir_000032_000009.html" target="_top" xlink:title="1">
<text text-anchor="middle" x="155.38" y="-14.85" font-family="Helvetica,sans-Serif" font-size="10.00" fill="#63b8ff">1</text>
</a>
</g>
</g>
<!-- dir_df55b9b4d946c8e2a0754190098e7cc2&#45;&gt;dir_3b4f599e8ce0902467fe2dd47cf1b7f2 -->
<g id="edge19" class="edge">
<title>dir_df55b9b4d946c8e2a0754190098e7cc2&#45;&gt;dir_3b4f599e8ce0902467fe2dd47cf1b7f2</title>
<g id="a_edge19"><a xlink:href="dir_000035_000041.html" target="_top">
<path fill="none" stroke="#63b8ff" d="M199.97,-220.45C202.36,-213.42 205.79,-203.32 208.77,-194.54"/>
<polygon fill="#63b8ff" stroke="#63b8ff" points="212.18,-195.38 212.08,-184.79 205.55,-193.13 212.18,-195.38"/>
</a>
</g>
<g id="a_edge19&#45;headlabel"><a xlink:href="dir_000035_000041.html" target="_top" xlink:title="2">
<text text-anchor="middle" x="213.71" y="-197.2" font-family="Helvetica,sans-Serif" font-size="10.00" fill="#63b8ff">2</text>
</a>
</g>
</g>
<!-- dir_df55b9b4d946c8e2a0754190098e7cc2&#45;&gt;dir_0046d781185df00694c70533b055a138 -->
<g id="edge18" class="edge">
<title>dir_df55b9b4d946c8e2a0754190098e7cc2&#45;&gt;dir_0046d781185df00694c70533b055a138</title>
<g id="a_edge18"><a xlink:href="dir_000035_000030.html" target="_top">
<path fill="none" stroke="#63b8ff" d="M179.05,-220.64C143.69,-202.53 70.46,-158.05 95,-110.7 118.09,-66.15 171.31,-37.31 205.36,-22.68"/>
<polygon fill="#63b8ff" stroke="#63b8ff" points="206.93,-25.82 214.83,-18.77 204.25,-19.35 206.93,-25.82"/>
</a>
</g>
<g id="a_edge18&#45;headlabel"><a xlink:href="dir_000035_000030.html" target="_top" xlink:title="9">
<text text-anchor="middle" x="204.69" y="-27.32" font-family="Helvetica,sans-Serif" font-size="10.00" fill="#63b8ff">9</text>
</a>
</g>
</g>
<!-- dir_df55b9b4d946c8e2a0754190098e7cc2&#45;&gt;dir_b6e017bc8c299f04fc1162fc4677be61 -->
<g id="edge23" class="edge">
<title>dir_df55b9b4d946c8e2a0754190098e7cc2&#45;&gt;dir_b6e017bc8c299f04fc1162fc4677be61</title>
<g id="a_edge23"><a xlink:href="dir_000035_000043.html" target="_top">
<path fill="none" stroke="#63b8ff" d="M223.79,-221.6C291.9,-202.3 471.49,-151.39 545.45,-130.42"/>
<polygon fill="#63b8ff" stroke="#63b8ff" points="546.5,-133.76 555.17,-127.67 544.59,-127.03 546.5,-133.76"/>
</a>
</g>
<g id="a_edge23&#45;headlabel"><a xlink:href="dir_000035_000043.html" target="_top" xlink:title="2">
<text text-anchor="middle" x="543.82" y="-134.98" font-family="Helvetica,sans-Serif" font-size="10.00" fill="#63b8ff">2</text>
</a>
</g>
</g>
<!-- dir_df55b9b4d946c8e2a0754190098e7cc2&#45;&gt;dir_7f0768799dd37ef2f2adcdfec91ab1e9 -->
<g id="edge21" class="edge">
<title>dir_df55b9b4d946c8e2a0754190098e7cc2&#45;&gt;dir_7f0768799dd37ef2f2adcdfec91ab1e9</title>
<g id="a_edge21"><a xlink:href="dir_000035_000055.html" target="_top">
<path fill="none" stroke="#63b8ff" d="M223.66,-221.64C225.12,-221.3 226.58,-220.98 228,-220.7 344.97,-197.19 486.99,-183.37 544.72,-178.36"/>
<polygon fill="#63b8ff" stroke="#63b8ff" points="545.13,-181.83 554.8,-177.5 544.54,-174.86 545.13,-181.83"/>
</a>
</g>
<g id="a_edge21&#45;headlabel"><a xlink:href="dir_000035_000055.html" target="_top" xlink:title="2">
<text text-anchor="middle" x="541.79" y="-182.47" font-family="Helvetica,sans-Serif" font-size="10.00" fill="#63b8ff">2</text>
</a>
</g>
</g>
<!-- dir_df55b9b4d946c8e2a0754190098e7cc2&#45;&gt;dir_6a0662f282a699b80270a7344921b324 -->
<g id="edge20" class="edge">
<title>dir_df55b9b4d946c8e2a0754190098e7cc2&#45;&gt;dir_6a0662f282a699b80270a7344921b324</title>
<g id="a_edge20"><a xlink:href="dir_000035_000009.html" target="_top">
<path fill="none" stroke="#63b8ff" d="M170.24,-223.26C148.79,-217.13 119.47,-205.46 102,-184.7 64.34,-139.94 94.28,-64.04 111.28,-29.4"/>
<polygon fill="#63b8ff" stroke="#63b8ff" points="114.62,-30.56 116.05,-20.06 108.39,-27.37 114.62,-30.56"/>
</a>
</g>
<g id="a_edge20&#45;headlabel"><a xlink:href="dir_000035_000009.html" target="_top" xlink:title="4">
<text text-anchor="middle" x="115.52" y="-32.55" font-family="Helvetica,sans-Serif" font-size="10.00" fill="#63b8ff">4</text>
</a>
</g>
</g>
<!-- dir_9b3d1298929a73144e250b15a31d397d -->
<g id="node16" class="node">
<title>dir_9b3d1298929a73144e250b15a31d397d</title>
<g id="a_node16"><a xlink:href="dir_9b3d1298929a73144e250b15a31d397d.html" target="_top" xlink:title="units">
<polygon fill="#edf0f7" stroke="#7f7f7f" points="145.5,-129.7 104.5,-129.7 104.5,-110.7 145.5,-110.7 145.5,-129.7"/>
<text text-anchor="middle" x="125" y="-117.7" font-family="Helvetica,sans-Serif" font-size="10.00">units</text>
</a>
</g>
</g>
<!-- dir_df55b9b4d946c8e2a0754190098e7cc2&#45;&gt;dir_9b3d1298929a73144e250b15a31d397d -->
<g id="edge22" class="edge">
<title>dir_df55b9b4d946c8e2a0754190098e7cc2&#45;&gt;dir_9b3d1298929a73144e250b15a31d397d</title>
<g id="a_edge22"><a xlink:href="dir_000035_000054.html" target="_top">
<path fill="none" stroke="#63b8ff" d="M191.11,-220.36C179.18,-202.47 152,-161.7 136.46,-138.39"/>
<polygon fill="#63b8ff" stroke="#63b8ff" points="139.23,-136.24 130.77,-129.86 133.41,-140.12 139.23,-136.24"/>
</a>
</g>
<g id="a_edge22&#45;headlabel"><a xlink:href="dir_000035_000054.html" target="_top" xlink:title="3">
<text text-anchor="middle" x="143.59" y="-135.15" font-family="Helvetica,sans-Serif" font-size="10.00" fill="#63b8ff">3</text>
</a>
</g>
</g>
<!-- dir_985d4ed54faec87b01987d3b14a16a81&#45;&gt;dir_0c067f1468e0d048c05884818744eafc -->
<g id="edge25" class="edge">
<title>dir_985d4ed54faec87b01987d3b14a16a81&#45;&gt;dir_0c067f1468e0d048c05884818744eafc</title>
<g id="a_edge25"><a xlink:href="dir_000039_000032.html" target="_top">
<path fill="none" stroke="#63b8ff" d="M305.41,-110.45C297.84,-102.73 286.62,-91.29 277.49,-81.98"/>
<polygon fill="#63b8ff" stroke="#63b8ff" points="279.93,-79.47 270.43,-74.79 274.93,-84.38 279.93,-79.47"/>
</a>
</g>
<g id="a_edge25&#45;headlabel"><a xlink:href="dir_000039_000032.html" target="_top" xlink:title="1">
<text text-anchor="middle" x="284.47" y="-77.55" font-family="Helvetica,sans-Serif" font-size="10.00" fill="#63b8ff">1</text>
</a>
</g>
</g>
<!-- dir_985d4ed54faec87b01987d3b14a16a81&#45;&gt;dir_0046d781185df00694c70533b055a138 -->
<g id="edge24" class="edge">
<title>dir_985d4ed54faec87b01987d3b14a16a81&#45;&gt;dir_0046d781185df00694c70533b055a138</title>
<g id="a_edge24"><a xlink:href="dir_000039_000030.html" target="_top">
<path fill="none" stroke="#63b8ff" d="M314.23,-110.51C314.21,-94.67 311.99,-60.81 295,-39.7 287.81,-30.77 277.14,-24.45 266.84,-20.07"/>
<polygon fill="#63b8ff" stroke="#63b8ff" points="267.79,-16.69 257.2,-16.45 265.33,-23.25 267.79,-16.69"/>
</a>
</g>
<g id="a_edge24&#45;headlabel"><a xlink:href="dir_000039_000030.html" target="_top" xlink:title="1">
<text text-anchor="middle" x="272.16" y="-12.8" font-family="Helvetica,sans-Serif" font-size="10.00" fill="#63b8ff">1</text>
</a>
</g>
</g>
<!-- dir_985d4ed54faec87b01987d3b14a16a81&#45;&gt;dir_9ba586a504c756f19720715161f17166 -->
<g id="edge26" class="edge">
<title>dir_985d4ed54faec87b01987d3b14a16a81&#45;&gt;dir_9ba586a504c756f19720715161f17166</title>
<g id="a_edge26"><a xlink:href="dir_000039_000040.html" target="_top">
<path fill="none" stroke="#63b8ff" d="M345.65,-113.87C402.84,-104.25 523.39,-83.97 587.26,-73.22"/>
<polygon fill="#63b8ff" stroke="#63b8ff" points="588.09,-76.63 597.38,-71.52 586.93,-69.73 588.09,-76.63"/>
</a>
</g>
<g id="a_edge26&#45;headlabel"><a xlink:href="dir_000039_000040.html" target="_top" xlink:title="1">
<text text-anchor="middle" x="585.02" y="-77.53" font-family="Helvetica,sans-Serif" font-size="10.00" fill="#63b8ff">1</text>
</a>
</g>
</g>
<!-- dir_3b4f599e8ce0902467fe2dd47cf1b7f2&#45;&gt;dir_985d4ed54faec87b01987d3b14a16a81 -->
<g id="edge28" class="edge">
<title>dir_3b4f599e8ce0902467fe2dd47cf1b7f2&#45;&gt;dir_985d4ed54faec87b01987d3b14a16a81</title>
<g id="a_edge28"><a xlink:href="dir_000041_000039.html" target="_top">
<path fill="none" stroke="#63b8ff" d="M230.91,-165.68C246.55,-157.31 270.66,-144.4 288.88,-134.64"/>
<polygon fill="#63b8ff" stroke="#63b8ff" points="290.64,-137.67 297.8,-129.87 287.34,-131.5 290.64,-137.67"/>
</a>
</g>
<g id="a_edge28&#45;headlabel"><a xlink:href="dir_000041_000039.html" target="_top" xlink:title="1">
<text text-anchor="middle" x="288.81" y="-139.37" font-family="Helvetica,sans-Serif" font-size="10.00" fill="#63b8ff">1</text>
</a>
</g>
</g>
<!-- dir_3b4f599e8ce0902467fe2dd47cf1b7f2&#45;&gt;dir_0046d781185df00694c70533b055a138 -->
<g id="edge27" class="edge">
<title>dir_3b4f599e8ce0902467fe2dd47cf1b7f2&#45;&gt;dir_0046d781185df00694c70533b055a138</title>
<g id="a_edge27"><a xlink:href="dir_000041_000030.html" target="_top">
<path fill="none" stroke="#63b8ff" d="M215.66,-165.66C217.39,-144.33 222.4,-87.02 230,-39.7 230.52,-36.46 231.16,-33.03 231.83,-29.71"/>
<polygon fill="#63b8ff" stroke="#63b8ff" points="235.26,-30.4 233.94,-19.89 228.42,-28.93 235.26,-30.4"/>
</a>
</g>
<g id="a_edge27&#45;headlabel"><a xlink:href="dir_000041_000030.html" target="_top" xlink:title="1">
<text text-anchor="middle" x="237.28" y="-32.01" font-family="Helvetica,sans-Serif" font-size="10.00" fill="#63b8ff">1</text>
</a>
</g>
</g>
<!-- dir_3b4f599e8ce0902467fe2dd47cf1b7f2&#45;&gt;dir_b6e017bc8c299f04fc1162fc4677be61 -->
<g id="edge30" class="edge">
<title>dir_3b4f599e8ce0902467fe2dd47cf1b7f2&#45;&gt;dir_b6e017bc8c299f04fc1162fc4677be61</title>
<g id="a_edge30"><a xlink:href="dir_000041_000043.html" target="_top">
<path fill="none" stroke="#63b8ff" d="M237.71,-170.88C299.84,-161.81 472.84,-136.55 545.36,-125.96"/>
<polygon fill="#63b8ff" stroke="#63b8ff" points="545.91,-129.42 555.3,-124.51 544.9,-122.49 545.91,-129.42"/>
</a>
</g>
<g id="a_edge30&#45;headlabel"><a xlink:href="dir_000041_000043.html" target="_top" xlink:title="1">
<text text-anchor="middle" x="542.77" y="-130.25" font-family="Helvetica,sans-Serif" font-size="10.00" fill="#63b8ff">1</text>
</a>
</g>
</g>
<!-- dir_3b4f599e8ce0902467fe2dd47cf1b7f2&#45;&gt;dir_9b3d1298929a73144e250b15a31d397d -->
<g id="edge29" class="edge">
<title>dir_3b4f599e8ce0902467fe2dd47cf1b7f2&#45;&gt;dir_9b3d1298929a73144e250b15a31d397d</title>
<g id="a_edge29"><a xlink:href="dir_000041_000054.html" target="_top">
<path fill="none" stroke="#63b8ff" d="M200.54,-165.68C186.58,-157.46 165.21,-144.87 148.75,-135.18"/>
<polygon fill="#63b8ff" stroke="#63b8ff" points="150.12,-131.93 139.72,-129.87 146.56,-137.96 150.12,-131.93"/>
</a>
</g>
<g id="a_edge29&#45;headlabel"><a xlink:href="dir_000041_000054.html" target="_top" xlink:title="1">
<text text-anchor="middle" x="154.65" y="-128.8" font-family="Helvetica,sans-Serif" font-size="10.00" fill="#63b8ff">1</text>
</a>
</g>
</g>
</g>
</svg>

<g id="navigator" transform="translate(0 0)" fill="#404254">
  <rect fill="#f2f5e9" fill-opacity="0.5" stroke="#606060" stroke-width=".5" x="0" y="0" width="60" height="60"/>
  <use id="zoomplus" xlink:href="#zoomPlus" x="17" y="9" onmousedown="handleZoom(evt,'in')"/>
  <use id="zoomminus" xlink:href="#zoomMin" x="42" y="9" onmousedown="handleZoom(evt,'out')"/>
  <use id="reset" xlink:href="#resetDef" x="30" y="36" onmousedown="handleReset()"/>
   <use id="arrowup" xlink:href="#arrowUp" x="0" y="0" onmousedown="handlePan(0,-1)"/>
  <use id="arrowright" xlink:href="#arrowRight" x="0" y="0" onmousedown="handlePan(1,0)"/>
  <use id="arrowdown" xlink:href="#arrowDown" x="0" y="0" onmousedown="handlePan(0,1)"/>
  <use id="arrowleft" xlink:href="#arrowLeft" x="0" y="0" onmousedown="handlePan(-1,0)"/>
</g>
<svg viewBox="0 0 15 15" width="100%" height="30px" preserveAspectRatio="xMaxYMin meet">
 <g id="arrow_out" transform="scale(0.3 0.3)">
  <a xlink:href="dir_f71deafbc833970927ad1dfabdb805be_dep_org.svg" target="_base">
   <rect id="button" ry="5" rx="5" y="6" x="6" height="38" width="38"
        fill="#f2f5e9" fill-opacity="0.5" stroke="#606060" stroke-width="1.0"/>
   <path id="arrow"
     d="M 11.500037,31.436501 C 11.940474,20.09759 22.043105,11.32322 32.158766,21.979434 L 37.068811,17.246167 C 37.068811,17.246167 37.088388,32 37.088388,32 L 22.160133,31.978069 C 22.160133,31.978069 26.997745,27.140456 26.997745,27.140456 C 18.528582,18.264221 13.291696,25.230495 11.500037,31.436501 z"
     style="fill:#404040;"/>
  </a>
 </g>
</svg>

<style type='text/css'>
<![CDATA[
[data-mouse-over-selected='false'] { opacity: 0.7; }
[data-mouse-over-selected='true']  { opacity: 1.0; }
]]>
</style>
<script type="application/ecmascript"><![CDATA[
document.addEventListener('DOMContentLoaded', (event) => {
  highlightEdges();
  highlightAdjacentNodes();
});
]]></script>
</svg>
