<?xml version="1.0" encoding="UTF-8" standalone="no"?>
<!DOCTYPE svg PUBLIC "-//W3C//DTD SVG 1.1//EN"
 "http://www.w3.org/Graphics/SVG/1.1/DTD/svg11.dtd">
<!-- Generated by graphviz version 2.43.0 (0)
 -->
<!-- Title: include/helios/engine/mechanics Pages: 1 -->
<svg width="587pt" height="306pt"
 viewBox="0.00 0.00 586.50 306.00" xmlns="http://www.w3.org/2000/svg" xmlns:xlink="http://www.w3.org/1999/xlink">
<g id="graph0" class="graph" transform="scale(1 1) rotate(0) translate(4 302)">
<title>include/helios/engine/mechanics</title>
<g id="clust1" class="cluster">
<title>clusterdir_860c9de2f65c10e8e262a0e7b5bfee5e</title>
<g id="a_clust1"><a xlink:href="dir_860c9de2f65c10e8e262a0e7b5bfee5e.html" target="_top" xlink:title="engine">
<polygon fill="#edf0f7" stroke="#7f7f7f" stroke-dasharray="5,2" points="65,-8 65,-290 343,-290 343,-8 65,-8"/>
<text text-anchor="middle" x="204" y="-278" font-family="Helvetica,sans-Serif" font-size="10.00">engine</text>
</a>
</g>
</g>
<g id="clust2" class="cluster">
<title>clusterdir_38660f863d95a2f91776843a957349cd</title>
<g id="a_clust2"><a xlink:href="dir_38660f863d95a2f91776843a957349cd.html" target="_top">
<polygon fill="#edf0f7" stroke="#404040" stroke-width="2" points="191,-63 191,-263 335,-263 335,-63 191,-63"/>
</a>
</g>
</g>
<!-- dir_0b25300d10cd1aefe5f6cbf740a7fedf -->
<g id="node1" class="node">
<title>dir_0b25300d10cd1aefe5f6cbf740a7fedf</title>
<g id="a_node1"><a xlink:href="dir_0b25300d10cd1aefe5f6cbf740a7fedf.html" target="_top" xlink:title="modules">
<polygon fill="#a2b4d6" stroke="red" points="132.5,-35 73.5,-35 73.5,-16 132.5,-16 132.5,-35"/>
<text text-anchor="middle" x="103" y="-23" font-family="Helvetica,sans-Serif" font-size="10.00">modules</text>
</a>
</g>
</g>
<!-- dir_48a6261162fe477a11d047d5b69d2726 -->
<g id="node2" class="node">
<title>dir_48a6261162fe477a11d047d5b69d2726</title>
<g id="a_node2"><a xlink:href="dir_48a6261162fe477a11d047d5b69d2726.html" target="_top" xlink:title="ecs">
<polygon fill="#a2b4d6" stroke="red" points="256.5,-35 223.5,-35 223.5,-16 256.5,-16 256.5,-35"/>
<text text-anchor="middle" x="240" y="-23" font-family="Helvetica,sans-Serif" font-size="10.00">ecs</text>
</a>
</g>
</g>
<!-- dir_66d0fbb35f31b5b35549543f7095729b -->
<g id="node3" class="node">
<title>dir_66d0fbb35f31b5b35549543f7095729b</title>
<g id="a_node3"><a xlink:href="dir_66d0fbb35f31b5b35549543f7095729b.html" target="_top" xlink:title="core">
<polygon fill="#a2b4d6" stroke="red" points="316,-35 278,-35 278,-16 316,-16 316,-35"/>
<text text-anchor="middle" x="297" y="-23" font-family="Helvetica,sans-Serif" font-size="10.00">core</text>
</a>
</g>
</g>
<!-- dir_d7d61354c43df5b3f9e499bdacf27dcd -->
<g id="node4" class="node">
<title>dir_d7d61354c43df5b3f9e499bdacf27dcd</title>
<g id="a_node4"><a xlink:href="dir_d7d61354c43df5b3f9e499bdacf27dcd.html" target="_top" xlink:title="runtime">
<polygon fill="#a2b4d6" stroke="red" points="205.5,-35 150.5,-35 150.5,-16 205.5,-16 205.5,-35"/>
<text text-anchor="middle" x="178" y="-23" font-family="Helvetica,sans-Serif" font-size="10.00">runtime</text>
</a>
</g>
</g>
<!-- dir_38660f863d95a2f91776843a957349cd -->
<g id="node5" class="node">
<title>dir_38660f863d95a2f91776843a957349cd</title>
<text text-anchor="middle" x="280" y="-243" font-family="Helvetica,sans-Serif" font-size="10.00">mechanics</text>
</g>
<!-- dir_d59bdeca710e8f4702e7134f164a3385 -->
<g id="node6" class="node">
<title>dir_d59bdeca710e8f4702e7134f164a3385</title>
<g id="a_node6"><a xlink:href="dir_d59bdeca710e8f4702e7134f164a3385.html" target="_top" xlink:title="Level boundary behavior components and systems.">
<polygon fill="#a2b4d6" stroke="#404040" points="251,-200 199,-200 199,-181 251,-181 251,-200"/>
<text text-anchor="middle" x="225" y="-188" font-family="Helvetica,sans-Serif" font-size="10.00">bounds</text>
</a>
</g>
</g>
<!-- dir_38660f863d95a2f91776843a957349cd&#45;&gt;dir_d59bdeca710e8f4702e7134f164a3385 -->
<g id="edge3" class="edge">
<title>dir_38660f863d95a2f91776843a957349cd&#45;&gt;dir_d59bdeca710e8f4702e7134f164a3385</title>
<g id="a_edge3"><a xlink:href="dir_000054_000004.html" target="_top">
<path fill="none" stroke="#63b8ff" d="M270.92,-235.75C262.91,-228.03 251.04,-216.6 241.38,-207.28"/>
<polygon fill="#63b8ff" stroke="#63b8ff" points="243.54,-204.51 233.91,-200.09 238.69,-209.55 243.54,-204.51"/>
</a>
</g>
<g id="a_edge3&#45;headlabel"><a xlink:href="dir_000054_000004.html" target="_top" xlink:title="4">
<text text-anchor="middle" x="248.1" y="-202.46" font-family="Helvetica,sans-Serif" font-size="10.00" fill="#63b8ff">4</text>
</a>
</g>
</g>
<!-- dir_d4a3144816e2a342522614ea4b514ce1 -->
<g id="node7" class="node">
<title>dir_d4a3144816e2a342522614ea4b514ce1</title>
<g id="a_node7"><a xlink:href="dir_d4a3144816e2a342522614ea4b514ce1.html" target="_top" xlink:title="combat">
<polygon fill="#a2b4d6" stroke="#404040" points="326.5,-90 273.5,-90 273.5,-71 326.5,-71 326.5,-90"/>
<text text-anchor="middle" x="300" y="-78" font-family="Helvetica,sans-Serif" font-size="10.00">combat</text>
</a>
</g>
</g>
<!-- dir_38660f863d95a2f91776843a957349cd&#45;&gt;dir_d4a3144816e2a342522614ea4b514ce1 -->
<g id="edge2" class="edge">
<title>dir_38660f863d95a2f91776843a957349cd&#45;&gt;dir_d4a3144816e2a342522614ea4b514ce1</title>
<g id="a_edge2"><a xlink:href="dir_000054_000007.html" target="_top">
<path fill="none" stroke="#63b8ff" d="M284.23,-236C292.34,-219.14 309.85,-180.1 316,-145 318.73,-129.43 313.77,-112.04 308.67,-99.4"/>
<polygon fill="#63b8ff" stroke="#63b8ff" points="311.78,-97.76 304.52,-90.04 305.38,-100.6 311.78,-97.76"/>
</a>
</g>
<g id="a_edge2&#45;headlabel"><a xlink:href="dir_000054_000007.html" target="_top" xlink:title="16">
<text text-anchor="middle" x="315.83" y="-97.4" font-family="Helvetica,sans-Serif" font-size="10.00" fill="#63b8ff">16</text>
</a>
</g>
</g>
<!-- dir_6436463a013eab53fa3d2ff87050f6f7 -->
<g id="node8" class="node">
<title>dir_6436463a013eab53fa3d2ff87050f6f7</title>
<g id="a_node8"><a xlink:href="dir_6436463a013eab53fa3d2ff87050f6f7.html" target="_top" xlink:title="input">
<polygon fill="#a2b4d6" stroke="#404040" points="240.5,-145 199.5,-145 199.5,-126 240.5,-126 240.5,-145"/>
<text text-anchor="middle" x="220" y="-133" font-family="Helvetica,sans-Serif" font-size="10.00">input</text>
</a>
</g>
</g>
<!-- dir_38660f863d95a2f91776843a957349cd&#45;&gt;dir_6436463a013eab53fa3d2ff87050f6f7 -->
<g id="edge1" class="edge">
<title>dir_38660f863d95a2f91776843a957349cd&#45;&gt;dir_6436463a013eab53fa3d2ff87050f6f7</title>
<g id="a_edge1"><a xlink:href="dir_000054_000046.html" target="_top">
<path fill="none" stroke="#63b8ff" d="M278.49,-235.81C276.01,-223.12 270.31,-199.07 260,-181 253.98,-170.44 245.1,-160.24 237.24,-152.28"/>
<polygon fill="#63b8ff" stroke="#63b8ff" points="239.48,-149.57 229.86,-145.12 234.61,-154.6 239.48,-149.57"/>
</a>
</g>
<g id="a_edge1&#45;headlabel"><a xlink:href="dir_000054_000046.html" target="_top" xlink:title="2">
<text text-anchor="middle" x="244.04" y="-147.53" font-family="Helvetica,sans-Serif" font-size="10.00" fill="#63b8ff">2</text>
</a>
</g>
</g>
<!-- dir_ec78eb07ca45680dda148d5b3c7a447e -->
<g id="node9" class="node">
<title>dir_ec78eb07ca45680dda148d5b3c7a447e</title>
<g id="a_node9"><a xlink:href="dir_ec78eb07ca45680dda148d5b3c7a447e.html" target="_top" xlink:title="spawn">
<polygon fill="#a2b4d6" stroke="#404040" points="307,-145 259,-145 259,-126 307,-126 307,-145"/>
<text text-anchor="middle" x="283" y="-133" font-family="Helvetica,sans-Serif" font-size="10.00">spawn</text>
</a>
</g>
</g>
<!-- dir_38660f863d95a2f91776843a957349cd&#45;&gt;dir_ec78eb07ca45680dda148d5b3c7a447e -->
<g id="edge4" class="edge">
<title>dir_38660f863d95a2f91776843a957349cd&#45;&gt;dir_ec78eb07ca45680dda148d5b3c7a447e</title>
<g id="a_edge4"><a xlink:href="dir_000054_000080.html" target="_top">
<path fill="none" stroke="#63b8ff" d="M280.25,-235.66C280.73,-218.17 281.82,-178.8 282.48,-155.27"/>
<polygon fill="#63b8ff" stroke="#63b8ff" points="285.98,-155.25 282.76,-145.16 278.98,-155.06 285.98,-155.25"/>
</a>
</g>
<g id="a_edge4&#45;headlabel"><a xlink:href="dir_000054_000080.html" target="_top" xlink:title="21">
<text text-anchor="middle" x="288.72" y="-156.42" font-family="Helvetica,sans-Serif" font-size="10.00" fill="#63b8ff">21</text>
</a>
</g>
</g>
<!-- dir_d59bdeca710e8f4702e7134f164a3385&#45;&gt;dir_0b25300d10cd1aefe5f6cbf740a7fedf -->
<g id="edge5" class="edge">
<title>dir_d59bdeca710e8f4702e7134f164a3385&#45;&gt;dir_0b25300d10cd1aefe5f6cbf740a7fedf</title>
<g id="a_edge5"><a xlink:href="dir_000004_000059.html" target="_top">
<path fill="none" stroke="#63b8ff" d="M204.59,-180.94C174.33,-167 118.71,-136.2 96,-90 89.12,-76 91.91,-58.22 95.82,-45.04"/>
<polygon fill="#63b8ff" stroke="#63b8ff" points="99.25,-45.82 99.19,-35.23 92.63,-43.55 99.25,-45.82"/>
</a>
</g>
<g id="a_edge5&#45;headlabel"><a xlink:href="dir_000004_000059.html" target="_top" xlink:title="12">
<text text-anchor="middle" x="100.77" y="-47.65" font-family="Helvetica,sans-Serif" font-size="10.00" fill="#63b8ff">12</text>
</a>
</g>
</g>
<!-- dir_d59bdeca710e8f4702e7134f164a3385&#45;&gt;dir_48a6261162fe477a11d047d5b69d2726 -->
<g id="edge6" class="edge">
<title>dir_d59bdeca710e8f4702e7134f164a3385&#45;&gt;dir_48a6261162fe477a11d047d5b69d2726</title>
<g id="a_edge6"><a xlink:href="dir_000004_000031.html" target="_top">
<path fill="none" stroke="#63b8ff" d="M215.39,-180.69C207.13,-172.41 195.8,-159.18 191,-145 188.29,-137 189.19,-134.25 191,-126 197.8,-94.95 216.21,-62.56 228.43,-43.48"/>
<polygon fill="#63b8ff" stroke="#63b8ff" points="231.42,-45.29 234,-35.02 225.58,-41.44 231.42,-45.29"/>
</a>
</g>
<g id="a_edge6&#45;headlabel"><a xlink:href="dir_000004_000031.html" target="_top" xlink:title="3">
<text text-anchor="middle" x="231.82" y="-47.36" font-family="Helvetica,sans-Serif" font-size="10.00" fill="#63b8ff">3</text>
</a>
</g>
</g>
<!-- dir_d59bdeca710e8f4702e7134f164a3385&#45;&gt;dir_d7d61354c43df5b3f9e499bdacf27dcd -->
<g id="edge9" class="edge">
<title>dir_d59bdeca710e8f4702e7134f164a3385&#45;&gt;dir_d7d61354c43df5b3f9e499bdacf27dcd</title>
<g id="a_edge9"><a xlink:href="dir_000004_000072.html" target="_top">
<path fill="none" stroke="#63b8ff" d="M215.81,-181C207.04,-172.52 193.88,-158.8 185,-145 170.57,-122.57 166.45,-116.11 161,-90 158.55,-78.25 158.41,-74.72 161,-63 162.43,-56.53 165.14,-49.84 167.97,-43.99"/>
<polygon fill="#63b8ff" stroke="#63b8ff" points="171.09,-45.59 172.67,-35.11 164.9,-42.32 171.09,-45.59"/>
</a>
</g>
<g id="a_edge9&#45;headlabel"><a xlink:href="dir_000004_000072.html" target="_top" xlink:title="3">
<text text-anchor="middle" x="171.92" y="-47.6" font-family="Helvetica,sans-Serif" font-size="10.00" fill="#63b8ff">3</text>
</a>
</g>
</g>
<!-- dir_d59bdeca710e8f4702e7134f164a3385&#45;&gt;dir_ec78eb07ca45680dda148d5b3c7a447e -->
<g id="edge7" class="edge">
<title>dir_d59bdeca710e8f4702e7134f164a3385&#45;&gt;dir_ec78eb07ca45680dda148d5b3c7a447e</title>
<g id="a_edge7"><a xlink:href="dir_000004_000080.html" target="_top">
<path fill="none" stroke="#63b8ff" d="M234.32,-180.98C242.81,-173.23 255.56,-161.58 265.88,-152.14"/>
<polygon fill="#63b8ff" stroke="#63b8ff" points="268.49,-154.5 273.51,-145.17 263.77,-149.33 268.49,-154.5"/>
</a>
</g>
<g id="a_edge7&#45;headlabel"><a xlink:href="dir_000004_000080.html" target="_top" xlink:title="1">
<text text-anchor="middle" x="267.75" y="-156.52" font-family="Helvetica,sans-Serif" font-size="10.00" fill="#63b8ff">1</text>
</a>
</g>
</g>
<!-- dir_0046d781185df00694c70533b055a138 -->
<g id="node10" class="node">
<title>dir_0046d781185df00694c70533b055a138</title>
<g id="a_node10"><a xlink:href="dir_0046d781185df00694c70533b055a138.html" target="_top" xlink:title="math">
<polygon fill="#edf0f7" stroke="red" stroke-dasharray="5,2" points="42,-35 0,-35 0,-16 42,-16 42,-35"/>
<text text-anchor="middle" x="21" y="-23" font-family="Helvetica,sans-Serif" font-size="10.00">math</text>
</a>
</g>
</g>
<!-- dir_d59bdeca710e8f4702e7134f164a3385&#45;&gt;dir_0046d781185df00694c70533b055a138 -->
<g id="edge10" class="edge">
<title>dir_d59bdeca710e8f4702e7134f164a3385&#45;&gt;dir_0046d781185df00694c70533b055a138</title>
<g id="a_edge10"><a xlink:href="dir_000004_000053.html" target="_top">
<path fill="none" stroke="#63b8ff" d="M198.9,-187.28C164.8,-183.35 104.35,-172.76 61,-145 34.16,-127.81 25.88,-119.95 15,-90 9.69,-75.36 12.02,-57.65 15.2,-44.65"/>
<polygon fill="#63b8ff" stroke="#63b8ff" points="18.58,-45.59 17.93,-35.01 11.84,-43.68 18.58,-45.59"/>
</a>
</g>
<g id="a_edge10&#45;headlabel"><a xlink:href="dir_000004_000053.html" target="_top" xlink:title="1">
<text text-anchor="middle" x="20.33" y="-47.32" font-family="Helvetica,sans-Serif" font-size="10.00" fill="#63b8ff">1</text>
</a>
</g>
</g>
<!-- dir_b6e017bc8c299f04fc1162fc4677be61 -->
<g id="node14" class="node">
<title>dir_b6e017bc8c299f04fc1162fc4677be61</title>
<g id="a_node14"><a xlink:href="dir_b6e017bc8c299f04fc1162fc4677be61.html" target="_top" xlink:title="scene">
<polygon fill="#edf0f7" stroke="#7f7f7f" points="578.5,-35 533.5,-35 533.5,-16 578.5,-16 578.5,-35"/>
<text text-anchor="middle" x="556" y="-23" font-family="Helvetica,sans-Serif" font-size="10.00">scene</text>
</a>
</g>
</g>
<!-- dir_d59bdeca710e8f4702e7134f164a3385&#45;&gt;dir_b6e017bc8c299f04fc1162fc4677be61 -->
<g id="edge8" class="edge">
<title>dir_d59bdeca710e8f4702e7134f164a3385&#45;&gt;dir_b6e017bc8c299f04fc1162fc4677be61</title>
<g id="a_edge8"><a xlink:href="dir_000004_000074.html" target="_top">
<path fill="none" stroke="#63b8ff" d="M248.89,-180.95C291.96,-165.19 385.03,-129.54 459,-90 486.89,-75.09 517.08,-54.57 536.25,-40.93"/>
<polygon fill="#63b8ff" stroke="#63b8ff" points="538.39,-43.7 544.47,-35.02 534.31,-38.02 538.39,-43.7"/>
</a>
</g>
<g id="a_edge8&#45;headlabel"><a xlink:href="dir_000004_000074.html" target="_top" xlink:title="1">
<text text-anchor="middle" x="537.13" y="-45.6" font-family="Helvetica,sans-Serif" font-size="10.00" fill="#63b8ff">1</text>
</a>
</g>
</g>
<!-- dir_d4a3144816e2a342522614ea4b514ce1&#45;&gt;dir_0b25300d10cd1aefe5f6cbf740a7fedf -->
<g id="edge14" class="edge">
<title>dir_d4a3144816e2a342522614ea4b514ce1&#45;&gt;dir_0b25300d10cd1aefe5f6cbf740a7fedf</title>
<g id="a_edge14"><a xlink:href="dir_000007_000059.html" target="_top">
<path fill="none" stroke="#63b8ff" d="M286.36,-70.91C281.36,-68.06 275.57,-65.09 270,-63 269.62,-62.86 192.09,-45.93 142.82,-35.18"/>
<polygon fill="#63b8ff" stroke="#63b8ff" points="143.28,-31.7 132.77,-32.99 141.79,-38.54 143.28,-31.7"/>
</a>
</g>
<g id="a_edge14&#45;headlabel"><a xlink:href="dir_000007_000059.html" target="_top" xlink:title="10">
<text text-anchor="middle" x="147.4" y="-27.2" font-family="Helvetica,sans-Serif" font-size="10.00" fill="#63b8ff">10</text>
</a>
</g>
</g>
<!-- dir_d4a3144816e2a342522614ea4b514ce1&#45;&gt;dir_48a6261162fe477a11d047d5b69d2726 -->
<g id="edge12" class="edge">
<title>dir_d4a3144816e2a342522614ea4b514ce1&#45;&gt;dir_48a6261162fe477a11d047d5b69d2726</title>
<g id="a_edge12"><a xlink:href="dir_000007_000031.html" target="_top">
<path fill="none" stroke="#63b8ff" d="M290.36,-70.98C281.49,-63.15 268.13,-51.34 257.39,-41.86"/>
<polygon fill="#63b8ff" stroke="#63b8ff" points="259.63,-39.17 249.82,-35.17 254.99,-44.41 259.63,-39.17"/>
</a>
</g>
<g id="a_edge12&#45;headlabel"><a xlink:href="dir_000007_000031.html" target="_top" xlink:title="8">
<text text-anchor="middle" x="264.2" y="-36.92" font-family="Helvetica,sans-Serif" font-size="10.00" fill="#63b8ff">8</text>
</a>
</g>
</g>
<!-- dir_d4a3144816e2a342522614ea4b514ce1&#45;&gt;dir_66d0fbb35f31b5b35549543f7095729b -->
<g id="edge19" class="edge">
<title>dir_d4a3144816e2a342522614ea4b514ce1&#45;&gt;dir_66d0fbb35f31b5b35549543f7095729b</title>
<g id="a_edge19"><a xlink:href="dir_000007_000025.html" target="_top">
<path fill="none" stroke="#63b8ff" d="M299.5,-70.75C299.11,-63.8 298.55,-53.85 298.05,-45.13"/>
<polygon fill="#63b8ff" stroke="#63b8ff" points="301.55,-44.88 297.49,-35.09 294.56,-45.27 301.55,-44.88"/>
</a>
</g>
<g id="a_edge19&#45;headlabel"><a xlink:href="dir_000007_000025.html" target="_top" xlink:title="1">
<text text-anchor="middle" x="304.58" y="-45.8" font-family="Helvetica,sans-Serif" font-size="10.00" fill="#63b8ff">1</text>
</a>
</g>
</g>
<!-- dir_d4a3144816e2a342522614ea4b514ce1&#45;&gt;dir_d7d61354c43df5b3f9e499bdacf27dcd -->
<g id="edge13" class="edge">
<title>dir_d4a3144816e2a342522614ea4b514ce1&#45;&gt;dir_d7d61354c43df5b3f9e499bdacf27dcd</title>
<g id="a_edge13"><a xlink:href="dir_000007_000072.html" target="_top">
<path fill="none" stroke="#63b8ff" d="M285.24,-70.9C280.44,-68.24 275.05,-65.38 270,-63 251.03,-54.06 229.24,-45.35 211.62,-38.68"/>
<polygon fill="#63b8ff" stroke="#63b8ff" points="212.38,-35.23 201.79,-35 209.93,-41.78 212.38,-35.23"/>
</a>
</g>
<g id="a_edge13&#45;headlabel"><a xlink:href="dir_000007_000072.html" target="_top" xlink:title="17">
<text text-anchor="middle" x="216.74" y="-31.33" font-family="Helvetica,sans-Serif" font-size="10.00" fill="#63b8ff">17</text>
</a>
</g>
</g>
<!-- dir_d4a3144816e2a342522614ea4b514ce1&#45;&gt;dir_ec78eb07ca45680dda148d5b3c7a447e -->
<g id="edge20" class="edge">
<title>dir_d4a3144816e2a342522614ea4b514ce1&#45;&gt;dir_ec78eb07ca45680dda148d5b3c7a447e</title>
<g id="a_edge20"><a xlink:href="dir_000007_000080.html" target="_top">
<path fill="none" stroke="#63b8ff" d="M302.38,-90.09C301.65,-97.22 298.75,-107.6 295.19,-116.53"/>
<polygon fill="#63b8ff" stroke="#63b8ff" points="291.95,-115.2 290.97,-125.75 298.32,-118.11 291.95,-115.2"/>
</a>
</g>
<g id="a_edge20&#45;headlabel"><a xlink:href="dir_000007_000080.html" target="_top" xlink:title="3">
<text text-anchor="middle" x="290.87" y="-108.25" font-family="Helvetica,sans-Serif" font-size="10.00" fill="#63b8ff">3</text>
</a>
</g>
</g>
<!-- dir_d4a3144816e2a342522614ea4b514ce1&#45;&gt;dir_0046d781185df00694c70533b055a138 -->
<g id="edge11" class="edge">
<title>dir_d4a3144816e2a342522614ea4b514ce1&#45;&gt;dir_0046d781185df00694c70533b055a138</title>
<g id="a_edge11"><a xlink:href="dir_000007_000053.html" target="_top">
<path fill="none" stroke="#63b8ff" d="M273.43,-74.78C229.27,-66.88 137.99,-50.34 61,-35 58.13,-34.43 55.14,-33.82 52.16,-33.2"/>
<polygon fill="#63b8ff" stroke="#63b8ff" points="52.66,-29.73 42.15,-31.1 51.22,-36.58 52.66,-29.73"/>
</a>
</g>
<g id="a_edge11&#45;headlabel"><a xlink:href="dir_000007_000053.html" target="_top" xlink:title="7">
<text text-anchor="middle" x="56.76" y="-25.19" font-family="Helvetica,sans-Serif" font-size="10.00" fill="#63b8ff">7</text>
</a>
</g>
</g>
<!-- dir_106756a8ee71bdde7f7b779a3a0a52e4 -->
<g id="node11" class="node">
<title>dir_106756a8ee71bdde7f7b779a3a0a52e4</title>
<g id="a_node11"><a xlink:href="dir_106756a8ee71bdde7f7b779a3a0a52e4.html" target="_top" xlink:title="ext">
<polygon fill="#edf0f7" stroke="red" stroke-dasharray="5,2" points="465,-35 433,-35 433,-16 465,-16 465,-35"/>
<text text-anchor="middle" x="449" y="-23" font-family="Helvetica,sans-Serif" font-size="10.00">ext</text>
</a>
</g>
</g>
<!-- dir_d4a3144816e2a342522614ea4b514ce1&#45;&gt;dir_106756a8ee71bdde7f7b779a3a0a52e4 -->
<g id="edge17" class="edge">
<title>dir_d4a3144816e2a342522614ea4b514ce1&#45;&gt;dir_106756a8ee71bdde7f7b779a3a0a52e4</title>
<g id="a_edge17"><a xlink:href="dir_000007_000037.html" target="_top">
<path fill="none" stroke="#63b8ff" d="M323.94,-70.98C351.19,-61.29 395.54,-45.51 423.45,-35.59"/>
<polygon fill="#63b8ff" stroke="#63b8ff" points="424.68,-38.87 432.93,-32.22 422.33,-32.27 424.68,-38.87"/>
</a>
</g>
<g id="a_edge17&#45;headlabel"><a xlink:href="dir_000007_000037.html" target="_top" xlink:title="3">
<text text-anchor="middle" x="422.24" y="-40.25" font-family="Helvetica,sans-Serif" font-size="10.00" fill="#63b8ff">3</text>
</a>
</g>
</g>
<!-- dir_7f0768799dd37ef2f2adcdfec91ab1e9 -->
<g id="node12" class="node">
<title>dir_7f0768799dd37ef2f2adcdfec91ab1e9</title>
<g id="a_node12"><a xlink:href="dir_7f0768799dd37ef2f2adcdfec91ab1e9.html" target="_top" xlink:title="util">
<polygon fill="#edf0f7" stroke="red" stroke-dasharray="5,2" points="515,-35 483,-35 483,-16 515,-16 515,-35"/>
<text text-anchor="middle" x="499" y="-23" font-family="Helvetica,sans-Serif" font-size="10.00">util</text>
</a>
</g>
</g>
<!-- dir_d4a3144816e2a342522614ea4b514ce1&#45;&gt;dir_7f0768799dd37ef2f2adcdfec91ab1e9 -->
<g id="edge16" class="edge">
<title>dir_d4a3144816e2a342522614ea4b514ce1&#45;&gt;dir_7f0768799dd37ef2f2adcdfec91ab1e9</title>
<g id="a_edge16"><a xlink:href="dir_000007_000097.html" target="_top">
<path fill="none" stroke="#63b8ff" d="M326.71,-73.35C359.2,-65.72 415.91,-51.93 473.33,-35.02"/>
<polygon fill="#63b8ff" stroke="#63b8ff" points="474.33,-38.38 482.92,-32.17 472.34,-31.67 474.33,-38.38"/>
</a>
</g>
<g id="a_edge16&#45;headlabel"><a xlink:href="dir_000007_000097.html" target="_top" xlink:title="1">
<text text-anchor="middle" x="471.7" y="-39.62" font-family="Helvetica,sans-Serif" font-size="10.00" fill="#63b8ff">1</text>
</a>
</g>
</g>
<!-- dir_9ba586a504c756f19720715161f17166 -->
<g id="node13" class="node">
<title>dir_9ba586a504c756f19720715161f17166</title>
<g id="a_node13"><a xlink:href="dir_9ba586a504c756f19720715161f17166.html" target="_top" xlink:title="rendering">
<polygon fill="#edf0f7" stroke="red" stroke-dasharray="5,2" points="414.5,-35 351.5,-35 351.5,-16 414.5,-16 414.5,-35"/>
<text text-anchor="middle" x="383" y="-23" font-family="Helvetica,sans-Serif" font-size="10.00">rendering</text>
</a>
</g>
</g>
<!-- dir_d4a3144816e2a342522614ea4b514ce1&#45;&gt;dir_9ba586a504c756f19720715161f17166 -->
<g id="edge15" class="edge">
<title>dir_d4a3144816e2a342522614ea4b514ce1&#45;&gt;dir_9ba586a504c756f19720715161f17166</title>
<g id="a_edge15"><a xlink:href="dir_000007_000069.html" target="_top">
<path fill="none" stroke="#63b8ff" d="M313.34,-70.98C326.09,-62.84 345.55,-50.41 360.67,-40.76"/>
<polygon fill="#63b8ff" stroke="#63b8ff" points="362.88,-43.5 369.42,-35.17 359.11,-37.6 362.88,-43.5"/>
</a>
</g>
<g id="a_edge15&#45;headlabel"><a xlink:href="dir_000007_000069.html" target="_top" xlink:title="2">
<text text-anchor="middle" x="361.38" y="-45.33" font-family="Helvetica,sans-Serif" font-size="10.00" fill="#63b8ff">2</text>
</a>
</g>
</g>
<!-- dir_d4a3144816e2a342522614ea4b514ce1&#45;&gt;dir_b6e017bc8c299f04fc1162fc4677be61 -->
<g id="edge18" class="edge">
<title>dir_d4a3144816e2a342522614ea4b514ce1&#45;&gt;dir_b6e017bc8c299f04fc1162fc4677be61</title>
<g id="a_edge18"><a xlink:href="dir_000007_000074.html" target="_top">
<path fill="none" stroke="#63b8ff" d="M326.67,-74.77C367.04,-67.48 446.28,-52.71 523.43,-35"/>
<polygon fill="#63b8ff" stroke="#63b8ff" points="524.37,-38.38 533.32,-32.72 522.79,-31.56 524.37,-38.38"/>
</a>
</g>
<g id="a_edge18&#45;headlabel"><a xlink:href="dir_000007_000074.html" target="_top" xlink:title="1">
<text text-anchor="middle" x="521.5" y="-39.46" font-family="Helvetica,sans-Serif" font-size="10.00" fill="#63b8ff">1</text>
</a>
</g>
</g>
<!-- dir_6436463a013eab53fa3d2ff87050f6f7&#45;&gt;dir_0b25300d10cd1aefe5f6cbf740a7fedf -->
<g id="edge22" class="edge">
<title>dir_6436463a013eab53fa3d2ff87050f6f7&#45;&gt;dir_0b25300d10cd1aefe5f6cbf740a7fedf</title>
<g id="a_edge22"><a xlink:href="dir_000046_000059.html" target="_top">
<path fill="none" stroke="#63b8ff" d="M199.28,-126.83C167.95,-115.14 111.86,-93.82 109,-90 99.57,-77.39 98.77,-59.2 99.91,-45.51"/>
<polygon fill="#63b8ff" stroke="#63b8ff" points="103.42,-45.66 101.19,-35.3 96.48,-44.79 103.42,-45.66"/>
</a>
</g>
<g id="a_edge22&#45;headlabel"><a xlink:href="dir_000046_000059.html" target="_top" xlink:title="2">
<text text-anchor="middle" x="105.79" y="-47.08" font-family="Helvetica,sans-Serif" font-size="10.00" fill="#63b8ff">2</text>
</a>
</g>
</g>
<!-- dir_6436463a013eab53fa3d2ff87050f6f7&#45;&gt;dir_48a6261162fe477a11d047d5b69d2726 -->
<g id="edge24" class="edge">
<title>dir_6436463a013eab53fa3d2ff87050f6f7&#45;&gt;dir_48a6261162fe477a11d047d5b69d2726</title>
<g id="a_edge24"><a xlink:href="dir_000046_000031.html" target="_top">
<path fill="none" stroke="#63b8ff" d="M220.64,-125.61C221.72,-112.02 224.28,-85.27 229,-63 230.25,-57.08 232.02,-50.74 233.76,-45.02"/>
<polygon fill="#63b8ff" stroke="#63b8ff" points="237.23,-45.69 236.96,-35.1 230.56,-43.54 237.23,-45.69"/>
</a>
</g>
<g id="a_edge24&#45;headlabel"><a xlink:href="dir_000046_000031.html" target="_top" xlink:title="3">
<text text-anchor="middle" x="238.82" y="-47.48" font-family="Helvetica,sans-Serif" font-size="10.00" fill="#63b8ff">3</text>
</a>
</g>
</g>
<!-- dir_6436463a013eab53fa3d2ff87050f6f7&#45;&gt;dir_d7d61354c43df5b3f9e499bdacf27dcd -->
<g id="edge23" class="edge">
<title>dir_6436463a013eab53fa3d2ff87050f6f7&#45;&gt;dir_d7d61354c43df5b3f9e499bdacf27dcd</title>
<g id="a_edge23"><a xlink:href="dir_000046_000072.html" target="_top">
<path fill="none" stroke="#63b8ff" d="M204.27,-125.88C192.12,-118.23 176.2,-105.83 169,-90 162.46,-75.6 165.94,-57.64 170.35,-44.49"/>
<polygon fill="#63b8ff" stroke="#63b8ff" points="173.62,-45.73 173.9,-35.14 167.07,-43.25 173.62,-45.73"/>
</a>
</g>
<g id="a_edge23&#45;headlabel"><a xlink:href="dir_000046_000072.html" target="_top" xlink:title="2">
<text text-anchor="middle" x="174.99" y="-47.6" font-family="Helvetica,sans-Serif" font-size="10.00" fill="#63b8ff">2</text>
</a>
</g>
</g>
<!-- dir_6436463a013eab53fa3d2ff87050f6f7&#45;&gt;dir_d4a3144816e2a342522614ea4b514ce1 -->
<g id="edge21" class="edge">
<title>dir_6436463a013eab53fa3d2ff87050f6f7&#45;&gt;dir_d4a3144816e2a342522614ea4b514ce1</title>
<g id="a_edge21"><a xlink:href="dir_000046_000007.html" target="_top">
<path fill="none" stroke="#63b8ff" d="M232.85,-125.98C245.14,-117.84 263.91,-105.41 278.48,-95.76"/>
<polygon fill="#63b8ff" stroke="#63b8ff" points="280.51,-98.61 286.91,-90.17 276.64,-92.78 280.51,-98.61"/>
</a>
</g>
<g id="a_edge21&#45;headlabel"><a xlink:href="dir_000046_000007.html" target="_top" xlink:title="2">
<text text-anchor="middle" x="279.08" y="-100.46" font-family="Helvetica,sans-Serif" font-size="10.00" fill="#63b8ff">2</text>
</a>
</g>
</g>
<!-- dir_6436463a013eab53fa3d2ff87050f6f7&#45;&gt;dir_0046d781185df00694c70533b055a138 -->
<g id="edge25" class="edge">
<title>dir_6436463a013eab53fa3d2ff87050f6f7&#45;&gt;dir_0046d781185df00694c70533b055a138</title>
<g id="a_edge25"><a xlink:href="dir_000046_000053.html" target="_top">
<path fill="none" stroke="#63b8ff" d="M199.46,-132.52C155.36,-127.84 53.81,-114.59 31,-90 19.98,-78.12 18.24,-59.29 18.8,-45.22"/>
<polygon fill="#63b8ff" stroke="#63b8ff" points="22.3,-45.42 19.61,-35.17 15.32,-44.86 22.3,-45.42"/>
</a>
</g>
<g id="a_edge25&#45;headlabel"><a xlink:href="dir_000046_000053.html" target="_top" xlink:title="2">
<text text-anchor="middle" x="24.84" y="-46.73" font-family="Helvetica,sans-Serif" font-size="10.00" fill="#63b8ff">2</text>
</a>
</g>
</g>
<!-- dir_ec78eb07ca45680dda148d5b3c7a447e&#45;&gt;dir_0b25300d10cd1aefe5f6cbf740a7fedf -->
<g id="edge27" class="edge">
<title>dir_ec78eb07ca45680dda148d5b3c7a447e&#45;&gt;dir_0b25300d10cd1aefe5f6cbf740a7fedf</title>
<g id="a_edge27"><a xlink:href="dir_000080_000059.html" target="_top">
<path fill="none" stroke="#63b8ff" d="M268.57,-125.84C237.5,-107.2 164.02,-63.11 126.27,-40.46"/>
<polygon fill="#63b8ff" stroke="#63b8ff" points="127.87,-37.34 117.49,-35.2 124.27,-43.34 127.87,-37.34"/>
</a>
</g>
<g id="a_edge27&#45;headlabel"><a xlink:href="dir_000080_000059.html" target="_top" xlink:title="10">
<text text-anchor="middle" x="132.41" y="-34.26" font-family="Helvetica,sans-Serif" font-size="10.00" fill="#63b8ff">10</text>
</a>
</g>
</g>
<!-- dir_ec78eb07ca45680dda148d5b3c7a447e&#45;&gt;dir_48a6261162fe477a11d047d5b69d2726 -->
<g id="edge28" class="edge">
<title>dir_ec78eb07ca45680dda148d5b3c7a447e&#45;&gt;dir_48a6261162fe477a11d047d5b69d2726</title>
<g id="a_edge28"><a xlink:href="dir_000080_000031.html" target="_top">
<path fill="none" stroke="#63b8ff" d="M277.39,-125.94C271.85,-117.2 263.44,-103.09 258,-90 251.94,-75.43 247.2,-58.17 244.1,-45.32"/>
<polygon fill="#63b8ff" stroke="#63b8ff" points="247.46,-44.31 241.81,-35.35 240.64,-45.88 247.46,-44.31"/>
</a>
</g>
<g id="a_edge28&#45;headlabel"><a xlink:href="dir_000080_000031.html" target="_top" xlink:title="7">
<text text-anchor="middle" x="251.03" y="-44.68" font-family="Helvetica,sans-Serif" font-size="10.00" fill="#63b8ff">7</text>
</a>
</g>
</g>
<!-- dir_ec78eb07ca45680dda148d5b3c7a447e&#45;&gt;dir_66d0fbb35f31b5b35549543f7095729b -->
<g id="edge29" class="edge">
<title>dir_ec78eb07ca45680dda148d5b3c7a447e&#45;&gt;dir_66d0fbb35f31b5b35549543f7095729b</title>
<g id="a_edge29"><a xlink:href="dir_000080_000025.html" target="_top">
<path fill="none" stroke="#63b8ff" d="M277.56,-125.95C269.63,-112.34 256.71,-85.04 265,-63 267.9,-55.3 273.24,-48.16 278.74,-42.28"/>
<polygon fill="#63b8ff" stroke="#63b8ff" points="281.39,-44.59 286.12,-35.1 276.51,-39.57 281.39,-44.59"/>
</a>
</g>
<g id="a_edge29&#45;headlabel"><a xlink:href="dir_000080_000025.html" target="_top" xlink:title="8">
<text text-anchor="middle" x="280.79" y="-46.63" font-family="Helvetica,sans-Serif" font-size="10.00" fill="#63b8ff">8</text>
</a>
</g>
</g>
<!-- dir_ec78eb07ca45680dda148d5b3c7a447e&#45;&gt;dir_d7d61354c43df5b3f9e499bdacf27dcd -->
<g id="edge32" class="edge">
<title>dir_ec78eb07ca45680dda148d5b3c7a447e&#45;&gt;dir_d7d61354c43df5b3f9e499bdacf27dcd</title>
<g id="a_edge32"><a xlink:href="dir_000080_000072.html" target="_top">
<path fill="none" stroke="#63b8ff" d="M274.41,-125.66C256.71,-107.46 215.96,-65.55 193.52,-42.47"/>
<polygon fill="#63b8ff" stroke="#63b8ff" points="195.9,-39.89 186.42,-35.16 190.88,-44.77 195.9,-39.89"/>
</a>
</g>
<g id="a_edge32&#45;headlabel"><a xlink:href="dir_000080_000072.html" target="_top" xlink:title="41">
<text text-anchor="middle" x="200.44" y="-37.99" font-family="Helvetica,sans-Serif" font-size="10.00" fill="#63b8ff">41</text>
</a>
</g>
</g>
<!-- dir_ec78eb07ca45680dda148d5b3c7a447e&#45;&gt;dir_d4a3144816e2a342522614ea4b514ce1 -->
<g id="edge31" class="edge">
<title>dir_ec78eb07ca45680dda148d5b3c7a447e&#45;&gt;dir_d4a3144816e2a342522614ea4b514ce1</title>
<g id="a_edge31"><a xlink:href="dir_000080_000007.html" target="_top">
<path fill="none" stroke="#63b8ff" d="M280.64,-125.75C281.4,-118.57 284.32,-108.18 287.89,-99.27"/>
<polygon fill="#63b8ff" stroke="#63b8ff" points="291.11,-100.64 292.11,-90.09 284.75,-97.71 291.11,-100.64"/>
</a>
</g>
<g id="a_edge31&#45;headlabel"><a xlink:href="dir_000080_000007.html" target="_top" xlink:title="1">
<text text-anchor="middle" x="292.19" y="-102.59" font-family="Helvetica,sans-Serif" font-size="10.00" fill="#63b8ff">1</text>
</a>
</g>
</g>
<!-- dir_ec78eb07ca45680dda148d5b3c7a447e&#45;&gt;dir_0046d781185df00694c70533b055a138 -->
<g id="edge26" class="edge">
<title>dir_ec78eb07ca45680dda148d5b3c7a447e&#45;&gt;dir_0046d781185df00694c70533b055a138</title>
<g id="a_edge26"><a xlink:href="dir_000080_000053.html" target="_top">
<path fill="none" stroke="#63b8ff" d="M258.89,-128.1C255.9,-127.36 252.89,-126.65 250,-126 166.55,-107.33 131.65,-138.17 61,-90 44.89,-79.01 33.94,-59.17 27.63,-44.58"/>
<polygon fill="#63b8ff" stroke="#63b8ff" points="30.8,-43.08 23.85,-35.08 24.3,-45.67 30.8,-43.08"/>
</a>
</g>
<g id="a_edge26&#45;headlabel"><a xlink:href="dir_000080_000053.html" target="_top" xlink:title="3">
<text text-anchor="middle" x="34.77" y="-42.86" font-family="Helvetica,sans-Serif" font-size="10.00" fill="#63b8ff">3</text>
</a>
</g>
</g>
<!-- dir_ec78eb07ca45680dda148d5b3c7a447e&#45;&gt;dir_7f0768799dd37ef2f2adcdfec91ab1e9 -->
<g id="edge30" class="edge">
<title>dir_ec78eb07ca45680dda148d5b3c7a447e&#45;&gt;dir_7f0768799dd37ef2f2adcdfec91ab1e9</title>
<g id="a_edge30"><a xlink:href="dir_000080_000097.html" target="_top">
<path fill="none" stroke="#63b8ff" d="M300.31,-125.84C338.36,-106.82 429.42,-61.29 473.81,-39.09"/>
<polygon fill="#63b8ff" stroke="#63b8ff" points="475.41,-42.21 482.79,-34.6 472.28,-35.95 475.41,-42.21"/>
</a>
</g>
<g id="a_edge30&#45;headlabel"><a xlink:href="dir_000080_000097.html" target="_top" xlink:title="3">
<text text-anchor="middle" x="473.47" y="-43.85" font-family="Helvetica,sans-Serif" font-size="10.00" fill="#63b8ff">3</text>
</a>
</g>
</g>
<!-- dir_ec78eb07ca45680dda148d5b3c7a447e&#45;&gt;dir_b6e017bc8c299f04fc1162fc4677be61 -->
<g id="edge33" class="edge">
<title>dir_ec78eb07ca45680dda148d5b3c7a447e&#45;&gt;dir_b6e017bc8c299f04fc1162fc4677be61</title>
<g id="a_edge33"><a xlink:href="dir_000080_000074.html" target="_top">
<path fill="none" stroke="#63b8ff" d="M307.39,-126.97C333.88,-118.61 377.33,-104.39 414,-90 454.7,-74.03 500.72,-52.86 529.05,-39.45"/>
<polygon fill="#63b8ff" stroke="#63b8ff" points="530.77,-42.51 538.29,-35.06 527.76,-36.19 530.77,-42.51"/>
</a>
</g>
<g id="a_edge33&#45;headlabel"><a xlink:href="dir_000080_000074.html" target="_top" xlink:title="1">
<text text-anchor="middle" x="528.74" y="-44.12" font-family="Helvetica,sans-Serif" font-size="10.00" fill="#63b8ff">1</text>
</a>
</g>
</g>
</g>
</svg>
