<?xml version="1.0" encoding="UTF-8" standalone="no"?>
<!DOCTYPE svg PUBLIC "-//W3C//DTD SVG 1.1//EN"
 "http://www.w3.org/Graphics/SVG/1.1/DTD/svg11.dtd">
<!-- Generated by graphviz version 2.43.0 (0)
 -->
<!-- Title: include/helios/engine/modules Pages: 1 -->
<svg width="584pt" height="361pt"
 viewBox="0.00 0.00 584.00 361.00" xmlns="http://www.w3.org/2000/svg" xmlns:xlink="http://www.w3.org/1999/xlink">
<g id="graph0" class="graph" transform="scale(1 1) rotate(0) translate(4 357)">
<title>include/helios/engine/modules</title>
<g id="clust1" class="cluster">
<title>clusterdir_860c9de2f65c10e8e262a0e7b5bfee5e</title>
<g id="a_clust1"><a xlink:href="dir_860c9de2f65c10e8e262a0e7b5bfee5e.html" target="_top" xlink:title="engine">
<polygon fill="#edf0f7" stroke="#7f7f7f" stroke-dasharray="5,2" points="132,-8 132,-345 474,-345 474,-8 132,-8"/>
<text text-anchor="middle" x="303" y="-333" font-family="Helvetica,sans-Serif" font-size="10.00">engine</text>
</a>
</g>
</g>
<g id="clust2" class="cluster">
<title>clusterdir_0b25300d10cd1aefe5f6cbf740a7fedf</title>
<g id="a_clust2"><a xlink:href="dir_0b25300d10cd1aefe5f6cbf740a7fedf.html" target="_top">
<polygon fill="#edf0f7" stroke="#404040" stroke-width="2" points="204,-63 204,-318 346,-318 346,-63 204,-63"/>
</a>
</g>
</g>
<!-- dir_48a6261162fe477a11d047d5b69d2726 -->
<g id="node1" class="node">
<title>dir_48a6261162fe477a11d047d5b69d2726</title>
<g id="a_node1"><a xlink:href="dir_48a6261162fe477a11d047d5b69d2726.html" target="_top" xlink:title="ecs">
<polygon fill="#a2b4d6" stroke="red" points="358.5,-35 325.5,-35 325.5,-16 358.5,-16 358.5,-35"/>
<text text-anchor="middle" x="342" y="-23" font-family="Helvetica,sans-Serif" font-size="10.00">ecs</text>
</a>
</g>
</g>
<!-- dir_66d0fbb35f31b5b35549543f7095729b -->
<g id="node2" class="node">
<title>dir_66d0fbb35f31b5b35549543f7095729b</title>
<g id="a_node2"><a xlink:href="dir_66d0fbb35f31b5b35549543f7095729b.html" target="_top" xlink:title="core">
<polygon fill="#a2b4d6" stroke="red" points="414,-90 376,-90 376,-71 414,-71 414,-90"/>
<text text-anchor="middle" x="395" y="-78" font-family="Helvetica,sans-Serif" font-size="10.00">core</text>
</a>
</g>
</g>
<!-- dir_d7d61354c43df5b3f9e499bdacf27dcd -->
<g id="node3" class="node">
<title>dir_d7d61354c43df5b3f9e499bdacf27dcd</title>
<g id="a_node3"><a xlink:href="dir_d7d61354c43df5b3f9e499bdacf27dcd.html" target="_top" xlink:title="runtime">
<polygon fill="#a2b4d6" stroke="red" points="195.5,-90 140.5,-90 140.5,-71 195.5,-71 195.5,-90"/>
<text text-anchor="middle" x="168" y="-78" font-family="Helvetica,sans-Serif" font-size="10.00">runtime</text>
</a>
</g>
</g>
<!-- dir_38660f863d95a2f91776843a957349cd -->
<g id="node4" class="node">
<title>dir_38660f863d95a2f91776843a957349cd</title>
<g id="a_node4"><a xlink:href="dir_38660f863d95a2f91776843a957349cd.html" target="_top" xlink:title="mechanics">
<polygon fill="#a2b4d6" stroke="red" points="425.5,-200 356.5,-200 356.5,-181 425.5,-181 425.5,-200"/>
<text text-anchor="middle" x="391" y="-188" font-family="Helvetica,sans-Serif" font-size="10.00">mechanics</text>
</a>
</g>
</g>
<!-- dir_0b25300d10cd1aefe5f6cbf740a7fedf -->
<g id="node5" class="node">
<title>dir_0b25300d10cd1aefe5f6cbf740a7fedf</title>
<text text-anchor="middle" x="255" y="-298" font-family="Helvetica,sans-Serif" font-size="10.00">modules</text>
</g>
<!-- dir_4cf3e568933a39133476fd0cdd0720ad -->
<g id="node6" class="node">
<title>dir_4cf3e568933a39133476fd0cdd0720ad</title>
<g id="a_node6"><a xlink:href="dir_4cf3e568933a39133476fd0cdd0720ad.html" target="_top" xlink:title="physics">
<polygon fill="#a2b4d6" stroke="#404040" points="337.5,-255 284.5,-255 284.5,-236 337.5,-236 337.5,-255"/>
<text text-anchor="middle" x="311" y="-243" font-family="Helvetica,sans-Serif" font-size="10.00">physics</text>
</a>
</g>
</g>
<!-- dir_0b25300d10cd1aefe5f6cbf740a7fedf&#45;&gt;dir_4cf3e568933a39133476fd0cdd0720ad -->
<g id="edge2" class="edge">
<title>dir_0b25300d10cd1aefe5f6cbf740a7fedf&#45;&gt;dir_4cf3e568933a39133476fd0cdd0720ad</title>
<g id="a_edge2"><a xlink:href="dir_000059_000062.html" target="_top">
<path fill="none" stroke="#63b8ff" d="M264,-290.98C272.19,-283.23 284.51,-271.58 294.47,-262.14"/>
<polygon fill="#63b8ff" stroke="#63b8ff" points="296.98,-264.59 301.84,-255.17 292.17,-259.5 296.98,-264.59"/>
</a>
</g>
<g id="a_edge2&#45;headlabel"><a xlink:href="dir_000059_000062.html" target="_top" xlink:title="36">
<text text-anchor="middle" x="296.32" y="-266.62" font-family="Helvetica,sans-Serif" font-size="10.00" fill="#63b8ff">36</text>
</a>
</g>
</g>
<!-- dir_616630fd0adec1772873768e31678ae7 -->
<g id="node7" class="node">
<title>dir_616630fd0adec1772873768e31678ae7</title>
<g id="a_node7"><a xlink:href="dir_616630fd0adec1772873768e31678ae7.html" target="_top" xlink:title="rendering">
<polygon fill="#a2b4d6" stroke="#404040" points="289.5,-90 226.5,-90 226.5,-71 289.5,-71 289.5,-90"/>
<text text-anchor="middle" x="258" y="-78" font-family="Helvetica,sans-Serif" font-size="10.00">rendering</text>
</a>
</g>
</g>
<!-- dir_0b25300d10cd1aefe5f6cbf740a7fedf&#45;&gt;dir_616630fd0adec1772873768e31678ae7 -->
<g id="edge3" class="edge">
<title>dir_0b25300d10cd1aefe5f6cbf740a7fedf&#45;&gt;dir_616630fd0adec1772873768e31678ae7</title>
<g id="a_edge3"><a xlink:href="dir_000059_000069.html" target="_top">
<path fill="none" stroke="#63b8ff" d="M250.2,-290.99C239.87,-271.68 217.03,-222.96 224,-181 228.92,-151.39 241.55,-118.76 249.95,-99.21"/>
<polygon fill="#63b8ff" stroke="#63b8ff" points="253.17,-100.6 254,-90.03 246.76,-97.77 253.17,-100.6"/>
</a>
</g>
<g id="a_edge3&#45;headlabel"><a xlink:href="dir_000059_000069.html" target="_top" xlink:title="9">
<text text-anchor="middle" x="254.31" y="-102.53" font-family="Helvetica,sans-Serif" font-size="10.00" fill="#63b8ff">9</text>
</a>
</g>
</g>
<!-- dir_9901a41432e1411a521c23d6f490a264 -->
<g id="node8" class="node">
<title>dir_9901a41432e1411a521c23d6f490a264</title>
<g id="a_node8"><a xlink:href="dir_9901a41432e1411a521c23d6f490a264.html" target="_top" xlink:title="scene">
<polygon fill="#a2b4d6" stroke="#404040" points="277.5,-200 232.5,-200 232.5,-181 277.5,-181 277.5,-200"/>
<text text-anchor="middle" x="255" y="-188" font-family="Helvetica,sans-Serif" font-size="10.00">scene</text>
</a>
</g>
</g>
<!-- dir_0b25300d10cd1aefe5f6cbf740a7fedf&#45;&gt;dir_9901a41432e1411a521c23d6f490a264 -->
<g id="edge4" class="edge">
<title>dir_0b25300d10cd1aefe5f6cbf740a7fedf&#45;&gt;dir_9901a41432e1411a521c23d6f490a264</title>
<g id="a_edge4"><a xlink:href="dir_000059_000073.html" target="_top">
<path fill="none" stroke="#63b8ff" d="M255,-290.66C255,-273.17 255,-233.8 255,-210.27"/>
<polygon fill="#63b8ff" stroke="#63b8ff" points="258.5,-210.16 255,-200.16 251.5,-210.16 258.5,-210.16"/>
</a>
</g>
<g id="a_edge4&#45;headlabel"><a xlink:href="dir_000059_000073.html" target="_top" xlink:title="8">
<text text-anchor="middle" x="261.34" y="-211.25" font-family="Helvetica,sans-Serif" font-size="10.00" fill="#63b8ff">8</text>
</a>
</g>
</g>
<!-- dir_40a07d66e7fedbdef195364f73b9e6a6 -->
<g id="node9" class="node">
<title>dir_40a07d66e7fedbdef195364f73b9e6a6</title>
<g id="a_node9"><a xlink:href="dir_40a07d66e7fedbdef195364f73b9e6a6.html" target="_top" xlink:title="Spatial data management for game entities.">
<polygon fill="#a2b4d6" stroke="#404040" points="318,-145 268,-145 268,-126 318,-126 318,-145"/>
<text text-anchor="middle" x="293" y="-133" font-family="Helvetica,sans-Serif" font-size="10.00">spatial</text>
</a>
</g>
</g>
<!-- dir_0b25300d10cd1aefe5f6cbf740a7fedf&#45;&gt;dir_40a07d66e7fedbdef195364f73b9e6a6 -->
<g id="edge1" class="edge">
<title>dir_0b25300d10cd1aefe5f6cbf740a7fedf&#45;&gt;dir_40a07d66e7fedbdef195364f73b9e6a6</title>
<g id="a_edge1"><a xlink:href="dir_000059_000080.html" target="_top">
<path fill="none" stroke="#63b8ff" d="M257.86,-290.97C265.35,-268.58 285.11,-209.2 287,-200 290.04,-185.22 291.54,-168.18 292.28,-155.47"/>
<polygon fill="#63b8ff" stroke="#63b8ff" points="295.79,-155.37 292.77,-145.22 288.8,-155.04 295.79,-155.37"/>
</a>
</g>
<g id="a_edge1&#45;headlabel"><a xlink:href="dir_000059_000080.html" target="_top" xlink:title="16">
<text text-anchor="middle" x="298.46" y="-156.6" font-family="Helvetica,sans-Serif" font-size="10.00" fill="#63b8ff">16</text>
</a>
</g>
</g>
<!-- dir_4cf3e568933a39133476fd0cdd0720ad&#45;&gt;dir_48a6261162fe477a11d047d5b69d2726 -->
<g id="edge6" class="edge">
<title>dir_4cf3e568933a39133476fd0cdd0720ad&#45;&gt;dir_48a6261162fe477a11d047d5b69d2726</title>
<g id="a_edge6"><a xlink:href="dir_000062_000033.html" target="_top">
<path fill="none" stroke="#63b8ff" d="M337.56,-244.11C368.68,-242.06 419.02,-233.39 443,-200 478.89,-150.02 461.84,-110.73 423,-63 409.41,-46.3 386.55,-36.96 368.58,-31.92"/>
<polygon fill="#63b8ff" stroke="#63b8ff" points="369.22,-28.47 358.67,-29.42 367.51,-35.26 369.22,-28.47"/>
</a>
</g>
<g id="a_edge6&#45;headlabel"><a xlink:href="dir_000062_000033.html" target="_top" xlink:title="24">
<text text-anchor="middle" x="373.4" y="-24.09" font-family="Helvetica,sans-Serif" font-size="10.00" fill="#63b8ff">24</text>
</a>
</g>
</g>
<!-- dir_4cf3e568933a39133476fd0cdd0720ad&#45;&gt;dir_66d0fbb35f31b5b35549543f7095729b -->
<g id="edge7" class="edge">
<title>dir_4cf3e568933a39133476fd0cdd0720ad&#45;&gt;dir_66d0fbb35f31b5b35549543f7095729b</title>
<g id="a_edge7"><a xlink:href="dir_000062_000028.html" target="_top">
<path fill="none" stroke="#63b8ff" d="M337.57,-243.43C366.95,-240.66 413.02,-231.24 435,-200 457.48,-168.05 428.61,-122.48 409.46,-98.22"/>
<polygon fill="#63b8ff" stroke="#63b8ff" points="412.01,-95.81 402.96,-90.31 406.6,-100.25 412.01,-95.81"/>
</a>
</g>
<g id="a_edge7&#45;headlabel"><a xlink:href="dir_000062_000028.html" target="_top" xlink:title="3">
<text text-anchor="middle" x="416.49" y="-94.28" font-family="Helvetica,sans-Serif" font-size="10.00" fill="#63b8ff">3</text>
</a>
</g>
</g>
<!-- dir_4cf3e568933a39133476fd0cdd0720ad&#45;&gt;dir_d7d61354c43df5b3f9e499bdacf27dcd -->
<g id="edge12" class="edge">
<title>dir_4cf3e568933a39133476fd0cdd0720ad&#45;&gt;dir_d7d61354c43df5b3f9e499bdacf27dcd</title>
<g id="a_edge12"><a xlink:href="dir_000062_000072.html" target="_top">
<path fill="none" stroke="#63b8ff" d="M284.18,-236.03C265.35,-228.93 240.65,-217.18 224,-200 195.86,-170.96 179.8,-125.14 172.61,-99.83"/>
<polygon fill="#63b8ff" stroke="#63b8ff" points="175.96,-98.81 169.99,-90.06 169.2,-100.62 175.96,-98.81"/>
</a>
</g>
<g id="a_edge12&#45;headlabel"><a xlink:href="dir_000062_000072.html" target="_top" xlink:title="20">
<text text-anchor="middle" x="179.64" y="-99.04" font-family="Helvetica,sans-Serif" font-size="10.00" fill="#63b8ff">20</text>
</a>
</g>
</g>
<!-- dir_4cf3e568933a39133476fd0cdd0720ad&#45;&gt;dir_38660f863d95a2f91776843a957349cd -->
<g id="edge15" class="edge">
<title>dir_4cf3e568933a39133476fd0cdd0720ad&#45;&gt;dir_38660f863d95a2f91776843a957349cd</title>
<g id="a_edge15"><a xlink:href="dir_000062_000054.html" target="_top">
<path fill="none" stroke="#63b8ff" d="M323.85,-235.98C336.14,-227.84 354.91,-215.41 369.48,-205.76"/>
<polygon fill="#63b8ff" stroke="#63b8ff" points="371.51,-208.61 377.91,-200.17 367.64,-202.78 371.51,-208.61"/>
</a>
</g>
<g id="a_edge15&#45;headlabel"><a xlink:href="dir_000062_000054.html" target="_top" xlink:title="1">
<text text-anchor="middle" x="370.08" y="-210.46" font-family="Helvetica,sans-Serif" font-size="10.00" fill="#63b8ff">1</text>
</a>
</g>
</g>
<!-- dir_4cf3e568933a39133476fd0cdd0720ad&#45;&gt;dir_616630fd0adec1772873768e31678ae7 -->
<g id="edge13" class="edge">
<title>dir_4cf3e568933a39133476fd0cdd0720ad&#45;&gt;dir_616630fd0adec1772873768e31678ae7</title>
<g id="a_edge13"><a xlink:href="dir_000062_000069.html" target="_top">
<path fill="none" stroke="#63b8ff" d="M315.51,-235.82C325.5,-215.31 347.07,-162.82 327,-126 319.35,-111.97 305.17,-101.69 291.64,-94.57"/>
<polygon fill="#63b8ff" stroke="#63b8ff" points="292.99,-91.34 282.47,-90.14 289.95,-97.64 292.99,-91.34"/>
</a>
</g>
<g id="a_edge13&#45;headlabel"><a xlink:href="dir_000062_000069.html" target="_top" xlink:title="1">
<text text-anchor="middle" x="297.46" y="-87.84" font-family="Helvetica,sans-Serif" font-size="10.00" fill="#63b8ff">1</text>
</a>
</g>
</g>
<!-- dir_4cf3e568933a39133476fd0cdd0720ad&#45;&gt;dir_9901a41432e1411a521c23d6f490a264 -->
<g id="edge10" class="edge">
<title>dir_4cf3e568933a39133476fd0cdd0720ad&#45;&gt;dir_9901a41432e1411a521c23d6f490a264</title>
<g id="a_edge10"><a xlink:href="dir_000062_000073.html" target="_top">
<path fill="none" stroke="#63b8ff" d="M302,-235.98C293.81,-228.23 281.49,-216.58 271.53,-207.14"/>
<polygon fill="#63b8ff" stroke="#63b8ff" points="273.83,-204.5 264.16,-200.17 269.02,-209.59 273.83,-204.5"/>
</a>
</g>
<g id="a_edge10&#45;headlabel"><a xlink:href="dir_000062_000073.html" target="_top" xlink:title="3">
<text text-anchor="middle" x="278.39" y="-202.41" font-family="Helvetica,sans-Serif" font-size="10.00" fill="#63b8ff">3</text>
</a>
</g>
</g>
<!-- dir_4cf3e568933a39133476fd0cdd0720ad&#45;&gt;dir_40a07d66e7fedbdef195364f73b9e6a6 -->
<g id="edge14" class="edge">
<title>dir_4cf3e568933a39133476fd0cdd0720ad&#45;&gt;dir_40a07d66e7fedbdef195364f73b9e6a6</title>
<g id="a_edge14"><a xlink:href="dir_000062_000080.html" target="_top">
<path fill="none" stroke="#63b8ff" d="M303.96,-235.85C299.4,-223.6 296.36,-200.53 293,-181 291.53,-172.45 289.66,-163.02 288.72,-155.05"/>
<polygon fill="#63b8ff" stroke="#63b8ff" points="292.21,-154.79 288.16,-145 285.22,-155.18 292.21,-154.79"/>
</a>
</g>
<g id="a_edge14&#45;headlabel"><a xlink:href="dir_000062_000080.html" target="_top" xlink:title="5">
<text text-anchor="middle" x="295.25" y="-155.72" font-family="Helvetica,sans-Serif" font-size="10.00" fill="#63b8ff">5</text>
</a>
</g>
</g>
<!-- dir_0046d781185df00694c70533b055a138 -->
<g id="node10" class="node">
<title>dir_0046d781185df00694c70533b055a138</title>
<g id="a_node10"><a xlink:href="dir_0046d781185df00694c70533b055a138.html" target="_top" xlink:title="math">
<polygon fill="#edf0f7" stroke="red" stroke-dasharray="5,2" points="42,-35 0,-35 0,-16 42,-16 42,-35"/>
<text text-anchor="middle" x="21" y="-23" font-family="Helvetica,sans-Serif" font-size="10.00">math</text>
</a>
</g>
</g>
<!-- dir_4cf3e568933a39133476fd0cdd0720ad&#45;&gt;dir_0046d781185df00694c70533b055a138 -->
<g id="edge5" class="edge">
<title>dir_4cf3e568933a39133476fd0cdd0720ad&#45;&gt;dir_0046d781185df00694c70533b055a138</title>
<g id="a_edge5"><a xlink:href="dir_000062_000053.html" target="_top">
<path fill="none" stroke="#63b8ff" d="M284.33,-243.26C242.97,-240.4 161.77,-230.96 101,-200 68.48,-183.43 57.44,-177.07 40,-145 22.64,-113.08 20.12,-69.66 20.27,-45.22"/>
<polygon fill="#63b8ff" stroke="#63b8ff" points="23.77,-45.23 20.5,-35.16 16.77,-45.08 23.77,-45.23"/>
</a>
</g>
<g id="a_edge5&#45;headlabel"><a xlink:href="dir_000062_000053.html" target="_top" xlink:title="16">
<text text-anchor="middle" x="26.53" y="-46.39" font-family="Helvetica,sans-Serif" font-size="10.00" fill="#63b8ff">16</text>
</a>
</g>
</g>
<!-- dir_6a0662f282a699b80270a7344921b324 -->
<g id="node11" class="node">
<title>dir_6a0662f282a699b80270a7344921b324</title>
<g id="a_node11"><a xlink:href="dir_6a0662f282a699b80270a7344921b324.html" target="_top" xlink:title="core">
<polygon fill="#edf0f7" stroke="red" stroke-dasharray="5,2" points="520,-35 482,-35 482,-16 520,-16 520,-35"/>
<text text-anchor="middle" x="501" y="-23" font-family="Helvetica,sans-Serif" font-size="10.00">core</text>
</a>
</g>
</g>
<!-- dir_4cf3e568933a39133476fd0cdd0720ad&#45;&gt;dir_6a0662f282a699b80270a7344921b324 -->
<g id="edge8" class="edge">
<title>dir_4cf3e568933a39133476fd0cdd0720ad&#45;&gt;dir_6a0662f282a699b80270a7344921b324</title>
<g id="a_edge8"><a xlink:href="dir_000062_000027.html" target="_top">
<path fill="none" stroke="#63b8ff" d="M337.84,-240.99C380.2,-234.88 459.63,-220.9 478,-200 516.57,-156.12 510.18,-80.29 504.6,-45.25"/>
<polygon fill="#63b8ff" stroke="#63b8ff" points="507.99,-44.28 502.81,-35.03 501.09,-45.49 507.99,-44.28"/>
</a>
</g>
<g id="a_edge8&#45;headlabel"><a xlink:href="dir_000062_000027.html" target="_top" xlink:title="2">
<text text-anchor="middle" x="511.41" y="-44.83" font-family="Helvetica,sans-Serif" font-size="10.00" fill="#63b8ff">2</text>
</a>
</g>
</g>
<!-- dir_7f0768799dd37ef2f2adcdfec91ab1e9 -->
<g id="node12" class="node">
<title>dir_7f0768799dd37ef2f2adcdfec91ab1e9</title>
<g id="a_node12"><a xlink:href="dir_7f0768799dd37ef2f2adcdfec91ab1e9.html" target="_top" xlink:title="util">
<polygon fill="#edf0f7" stroke="red" stroke-dasharray="5,2" points="576,-200 544,-200 544,-181 576,-181 576,-200"/>
<text text-anchor="middle" x="560" y="-188" font-family="Helvetica,sans-Serif" font-size="10.00">util</text>
</a>
</g>
</g>
<!-- dir_4cf3e568933a39133476fd0cdd0720ad&#45;&gt;dir_7f0768799dd37ef2f2adcdfec91ab1e9 -->
<g id="edge9" class="edge">
<title>dir_4cf3e568933a39133476fd0cdd0720ad&#45;&gt;dir_7f0768799dd37ef2f2adcdfec91ab1e9</title>
<g id="a_edge9"><a xlink:href="dir_000062_000100.html" target="_top">
<path fill="none" stroke="#63b8ff" d="M337.78,-239.73C379.19,-232.21 461.19,-216.71 530,-200 531.27,-199.69 532.57,-199.36 533.88,-199.03"/>
<polygon fill="#63b8ff" stroke="#63b8ff" points="535.13,-202.31 543.87,-196.31 533.3,-195.56 535.13,-202.31"/>
</a>
</g>
<g id="a_edge9&#45;headlabel"><a xlink:href="dir_000062_000100.html" target="_top" xlink:title="7">
<text text-anchor="middle" x="532.41" y="-203.5" font-family="Helvetica,sans-Serif" font-size="10.00" fill="#63b8ff">7</text>
</a>
</g>
</g>
<!-- dir_b6e017bc8c299f04fc1162fc4677be61 -->
<g id="node14" class="node">
<title>dir_b6e017bc8c299f04fc1162fc4677be61</title>
<g id="a_node14"><a xlink:href="dir_b6e017bc8c299f04fc1162fc4677be61.html" target="_top" xlink:title="scene">
<polygon fill="#edf0f7" stroke="#7f7f7f" points="94.5,-145 49.5,-145 49.5,-126 94.5,-126 94.5,-145"/>
<text text-anchor="middle" x="72" y="-133" font-family="Helvetica,sans-Serif" font-size="10.00">scene</text>
</a>
</g>
</g>
<!-- dir_4cf3e568933a39133476fd0cdd0720ad&#45;&gt;dir_b6e017bc8c299f04fc1162fc4677be61 -->
<g id="edge11" class="edge">
<title>dir_4cf3e568933a39133476fd0cdd0720ad&#45;&gt;dir_b6e017bc8c299f04fc1162fc4677be61</title>
<g id="a_edge11"><a xlink:href="dir_000062_000074.html" target="_top">
<path fill="none" stroke="#63b8ff" d="M284.26,-243C246.83,-239.85 177.82,-230.09 128,-200 109.01,-188.53 92.94,-168.51 82.96,-154.01"/>
<polygon fill="#63b8ff" stroke="#63b8ff" points="85.73,-151.85 77.3,-145.43 79.88,-155.7 85.73,-151.85"/>
</a>
</g>
<g id="a_edge11&#45;headlabel"><a xlink:href="dir_000062_000074.html" target="_top" xlink:title="2">
<text text-anchor="middle" x="90.07" y="-150.79" font-family="Helvetica,sans-Serif" font-size="10.00" fill="#63b8ff">2</text>
</a>
</g>
</g>
<!-- dir_616630fd0adec1772873768e31678ae7&#45;&gt;dir_48a6261162fe477a11d047d5b69d2726 -->
<g id="edge17" class="edge">
<title>dir_616630fd0adec1772873768e31678ae7&#45;&gt;dir_48a6261162fe477a11d047d5b69d2726</title>
<g id="a_edge17"><a xlink:href="dir_000069_000033.html" target="_top">
<path fill="none" stroke="#63b8ff" d="M271.5,-70.98C284.4,-62.84 304.1,-50.41 319.4,-40.76"/>
<polygon fill="#63b8ff" stroke="#63b8ff" points="321.67,-43.47 328.26,-35.17 317.93,-37.55 321.67,-43.47"/>
</a>
</g>
<g id="a_edge17&#45;headlabel"><a xlink:href="dir_000069_000033.html" target="_top" xlink:title="3">
<text text-anchor="middle" x="320.14" y="-45.29" font-family="Helvetica,sans-Serif" font-size="10.00" fill="#63b8ff">3</text>
</a>
</g>
</g>
<!-- dir_616630fd0adec1772873768e31678ae7&#45;&gt;dir_0046d781185df00694c70533b055a138 -->
<g id="edge16" class="edge">
<title>dir_616630fd0adec1772873768e31678ae7&#45;&gt;dir_0046d781185df00694c70533b055a138</title>
<g id="a_edge16"><a xlink:href="dir_000069_000053.html" target="_top">
<path fill="none" stroke="#63b8ff" d="M242.35,-70.98C236.43,-68.06 229.54,-65.03 223,-63 152.06,-40.98 128.53,-50.9 52.31,-35.02"/>
<polygon fill="#63b8ff" stroke="#63b8ff" points="52.74,-31.54 42.23,-32.84 51.26,-38.38 52.74,-31.54"/>
</a>
</g>
<g id="a_edge16&#45;headlabel"><a xlink:href="dir_000069_000053.html" target="_top" xlink:title="2">
<text text-anchor="middle" x="56.86" y="-27.02" font-family="Helvetica,sans-Serif" font-size="10.00" fill="#63b8ff">2</text>
</a>
</g>
</g>
<!-- dir_616630fd0adec1772873768e31678ae7&#45;&gt;dir_6a0662f282a699b80270a7344921b324 -->
<g id="edge18" class="edge">
<title>dir_616630fd0adec1772873768e31678ae7&#45;&gt;dir_6a0662f282a699b80270a7344921b324</title>
<g id="a_edge18"><a xlink:href="dir_000069_000027.html" target="_top">
<path fill="none" stroke="#63b8ff" d="M274.11,-70.95C280.2,-68.04 287.28,-65.01 294,-63 370.01,-40.29 395.79,-54.39 471.74,-36.42"/>
<polygon fill="#63b8ff" stroke="#63b8ff" points="472.9,-39.74 481.76,-33.93 471.22,-32.94 472.9,-39.74"/>
</a>
</g>
<g id="a_edge18&#45;headlabel"><a xlink:href="dir_000069_000027.html" target="_top" xlink:title="1">
<text text-anchor="middle" x="470.1" y="-40.86" font-family="Helvetica,sans-Serif" font-size="10.00" fill="#63b8ff">1</text>
</a>
</g>
</g>
<!-- dir_9ba586a504c756f19720715161f17166 -->
<g id="node13" class="node">
<title>dir_9ba586a504c756f19720715161f17166</title>
<g id="a_node13"><a xlink:href="dir_9ba586a504c756f19720715161f17166.html" target="_top" xlink:title="rendering">
<polygon fill="#edf0f7" stroke="red" stroke-dasharray="5,2" points="123.5,-35 60.5,-35 60.5,-16 123.5,-16 123.5,-35"/>
<text text-anchor="middle" x="92" y="-23" font-family="Helvetica,sans-Serif" font-size="10.00">rendering</text>
</a>
</g>
</g>
<!-- dir_616630fd0adec1772873768e31678ae7&#45;&gt;dir_9ba586a504c756f19720715161f17166 -->
<g id="edge19" class="edge">
<title>dir_616630fd0adec1772873768e31678ae7&#45;&gt;dir_9ba586a504c756f19720715161f17166</title>
<g id="a_edge19"><a xlink:href="dir_000069_000070.html" target="_top">
<path fill="none" stroke="#63b8ff" d="M241.16,-70.86C235.48,-68.13 229.04,-65.25 223,-63 206.63,-56.91 165.41,-45.66 133.54,-37.26"/>
<polygon fill="#63b8ff" stroke="#63b8ff" points="134.13,-33.79 123.57,-34.64 132.35,-40.56 134.13,-33.79"/>
</a>
</g>
<g id="a_edge19&#45;headlabel"><a xlink:href="dir_000069_000070.html" target="_top" xlink:title="1">
<text text-anchor="middle" x="138.32" y="-29.46" font-family="Helvetica,sans-Serif" font-size="10.00" fill="#63b8ff">1</text>
</a>
</g>
</g>
<!-- dir_9901a41432e1411a521c23d6f490a264&#45;&gt;dir_48a6261162fe477a11d047d5b69d2726 -->
<g id="edge21" class="edge">
<title>dir_9901a41432e1411a521c23d6f490a264&#45;&gt;dir_48a6261162fe477a11d047d5b69d2726</title>
<g id="a_edge21"><a xlink:href="dir_000073_000033.html" target="_top">
<path fill="none" stroke="#63b8ff" d="M277.71,-181.62C294.2,-174.65 315.55,-162.8 327,-145 346.66,-114.44 346.43,-70.19 344.33,-45.31"/>
<polygon fill="#63b8ff" stroke="#63b8ff" points="347.78,-44.66 343.27,-35.08 340.82,-45.39 347.78,-44.66"/>
</a>
</g>
<g id="a_edge21&#45;headlabel"><a xlink:href="dir_000073_000033.html" target="_top" xlink:title="3">
<text text-anchor="middle" x="350.98" y="-45.45" font-family="Helvetica,sans-Serif" font-size="10.00" fill="#63b8ff">3</text>
</a>
</g>
</g>
<!-- dir_9901a41432e1411a521c23d6f490a264&#45;&gt;dir_66d0fbb35f31b5b35549543f7095729b -->
<g id="edge23" class="edge">
<title>dir_9901a41432e1411a521c23d6f490a264&#45;&gt;dir_66d0fbb35f31b5b35549543f7095729b</title>
<g id="a_edge23"><a xlink:href="dir_000073_000028.html" target="_top">
<path fill="none" stroke="#63b8ff" d="M277.88,-182.05C305.34,-172.77 349.26,-156.7 362,-145 375.42,-132.68 384.29,-113.64 389.42,-99.62"/>
<polygon fill="#63b8ff" stroke="#63b8ff" points="392.76,-100.67 392.63,-90.07 386.13,-98.44 392.76,-100.67"/>
</a>
</g>
<g id="a_edge23&#45;headlabel"><a xlink:href="dir_000073_000028.html" target="_top" xlink:title="1">
<text text-anchor="middle" x="394.31" y="-102.48" font-family="Helvetica,sans-Serif" font-size="10.00" fill="#63b8ff">1</text>
</a>
</g>
</g>
<!-- dir_9901a41432e1411a521c23d6f490a264&#45;&gt;dir_d7d61354c43df5b3f9e499bdacf27dcd -->
<g id="edge26" class="edge">
<title>dir_9901a41432e1411a521c23d6f490a264&#45;&gt;dir_d7d61354c43df5b3f9e499bdacf27dcd</title>
<g id="a_edge26"><a xlink:href="dir_000073_000072.html" target="_top">
<path fill="none" stroke="#63b8ff" d="M247.88,-180.66C233.34,-162.61 200.04,-121.28 181.35,-98.08"/>
<polygon fill="#63b8ff" stroke="#63b8ff" points="183.97,-95.75 174.97,-90.16 178.52,-100.14 183.97,-95.75"/>
</a>
</g>
<g id="a_edge26&#45;headlabel"><a xlink:href="dir_000073_000072.html" target="_top" xlink:title="2">
<text text-anchor="middle" x="188.44" y="-94.27" font-family="Helvetica,sans-Serif" font-size="10.00" fill="#63b8ff">2</text>
</a>
</g>
</g>
<!-- dir_9901a41432e1411a521c23d6f490a264&#45;&gt;dir_616630fd0adec1772873768e31678ae7 -->
<g id="edge22" class="edge">
<title>dir_9901a41432e1411a521c23d6f490a264&#45;&gt;dir_616630fd0adec1772873768e31678ae7</title>
<g id="a_edge22"><a xlink:href="dir_000073_000069.html" target="_top">
<path fill="none" stroke="#63b8ff" d="M255.25,-180.66C255.73,-163.17 256.82,-123.8 257.48,-100.27"/>
<polygon fill="#63b8ff" stroke="#63b8ff" points="260.98,-100.25 257.76,-90.16 253.98,-100.06 260.98,-100.25"/>
</a>
</g>
<g id="a_edge22&#45;headlabel"><a xlink:href="dir_000073_000069.html" target="_top" xlink:title="1">
<text text-anchor="middle" x="263.72" y="-101.42" font-family="Helvetica,sans-Serif" font-size="10.00" fill="#63b8ff">1</text>
</a>
</g>
</g>
<!-- dir_9901a41432e1411a521c23d6f490a264&#45;&gt;dir_40a07d66e7fedbdef195364f73b9e6a6 -->
<g id="edge25" class="edge">
<title>dir_9901a41432e1411a521c23d6f490a264&#45;&gt;dir_40a07d66e7fedbdef195364f73b9e6a6</title>
<g id="a_edge25"><a xlink:href="dir_000073_000080.html" target="_top">
<path fill="none" stroke="#63b8ff" d="M256.11,-180.75C259.91,-173.18 267.51,-162.05 274.99,-152.84"/>
<polygon fill="#63b8ff" stroke="#63b8ff" points="277.81,-154.94 281.71,-145.09 272.52,-150.36 277.81,-154.94"/>
</a>
</g>
<g id="a_edge25&#45;headlabel"><a xlink:href="dir_000073_000080.html" target="_top" xlink:title="1">
<text text-anchor="middle" x="277.6" y="-157.02" font-family="Helvetica,sans-Serif" font-size="10.00" fill="#63b8ff">1</text>
</a>
</g>
</g>
<!-- dir_9901a41432e1411a521c23d6f490a264&#45;&gt;dir_0046d781185df00694c70533b055a138 -->
<g id="edge20" class="edge">
<title>dir_9901a41432e1411a521c23d6f490a264&#45;&gt;dir_0046d781185df00694c70533b055a138</title>
<g id="a_edge20"><a xlink:href="dir_000073_000053.html" target="_top">
<path fill="none" stroke="#63b8ff" d="M232.34,-184.11C207.53,-177.53 167.25,-164.75 137,-145 93.2,-116.41 53.14,-68.71 33.58,-43.43"/>
<polygon fill="#63b8ff" stroke="#63b8ff" points="36.16,-41.05 27.33,-35.21 30.59,-45.29 36.16,-41.05"/>
</a>
</g>
<g id="a_edge20&#45;headlabel"><a xlink:href="dir_000073_000053.html" target="_top" xlink:title="1">
<text text-anchor="middle" x="40.6" y="-39.69" font-family="Helvetica,sans-Serif" font-size="10.00" fill="#63b8ff">1</text>
</a>
</g>
</g>
<!-- dir_9901a41432e1411a521c23d6f490a264&#45;&gt;dir_b6e017bc8c299f04fc1162fc4677be61 -->
<g id="edge24" class="edge">
<title>dir_9901a41432e1411a521c23d6f490a264&#45;&gt;dir_b6e017bc8c299f04fc1162fc4677be61</title>
<g id="a_edge24"><a xlink:href="dir_000073_000074.html" target="_top">
<path fill="none" stroke="#63b8ff" d="M232.19,-182.89C199.96,-173.56 140.94,-156.47 104.24,-145.84"/>
<polygon fill="#63b8ff" stroke="#63b8ff" points="105.1,-142.44 94.52,-143.02 103.15,-149.17 105.1,-142.44"/>
</a>
</g>
<g id="a_edge24&#45;headlabel"><a xlink:href="dir_000073_000074.html" target="_top" xlink:title="2">
<text text-anchor="middle" x="109.34" y="-138.21" font-family="Helvetica,sans-Serif" font-size="10.00" fill="#63b8ff">2</text>
</a>
</g>
</g>
<!-- dir_40a07d66e7fedbdef195364f73b9e6a6&#45;&gt;dir_48a6261162fe477a11d047d5b69d2726 -->
<g id="edge28" class="edge">
<title>dir_40a07d66e7fedbdef195364f73b9e6a6&#45;&gt;dir_48a6261162fe477a11d047d5b69d2726</title>
<g id="a_edge28"><a xlink:href="dir_000080_000033.html" target="_top">
<path fill="none" stroke="#63b8ff" d="M297.01,-125.66C305.05,-107.93 323.3,-67.73 333.92,-44.32"/>
<polygon fill="#63b8ff" stroke="#63b8ff" points="337.13,-45.71 338.07,-35.16 330.75,-42.82 337.13,-45.71"/>
</a>
</g>
<g id="a_edge28&#45;headlabel"><a xlink:href="dir_000080_000033.html" target="_top" xlink:title="8">
<text text-anchor="middle" x="338.23" y="-47.66" font-family="Helvetica,sans-Serif" font-size="10.00" fill="#63b8ff">8</text>
</a>
</g>
</g>
<!-- dir_40a07d66e7fedbdef195364f73b9e6a6&#45;&gt;dir_66d0fbb35f31b5b35549543f7095729b -->
<g id="edge29" class="edge">
<title>dir_40a07d66e7fedbdef195364f73b9e6a6&#45;&gt;dir_66d0fbb35f31b5b35549543f7095729b</title>
<g id="a_edge29"><a xlink:href="dir_000080_000028.html" target="_top">
<path fill="none" stroke="#63b8ff" d="M309.39,-125.98C325.57,-117.57 350.57,-104.59 369.38,-94.81"/>
<polygon fill="#63b8ff" stroke="#63b8ff" points="371.05,-97.89 378.31,-90.17 367.83,-91.68 371.05,-97.89"/>
</a>
</g>
<g id="a_edge29&#45;headlabel"><a xlink:href="dir_000080_000028.html" target="_top" xlink:title="2">
<text text-anchor="middle" x="369.17" y="-99.56" font-family="Helvetica,sans-Serif" font-size="10.00" fill="#63b8ff">2</text>
</a>
</g>
</g>
<!-- dir_40a07d66e7fedbdef195364f73b9e6a6&#45;&gt;dir_d7d61354c43df5b3f9e499bdacf27dcd -->
<g id="edge31" class="edge">
<title>dir_40a07d66e7fedbdef195364f73b9e6a6&#45;&gt;dir_d7d61354c43df5b3f9e499bdacf27dcd</title>
<g id="a_edge31"><a xlink:href="dir_000080_000072.html" target="_top">
<path fill="none" stroke="#63b8ff" d="M272.92,-125.98C252.63,-117.38 221.04,-103.99 197.83,-94.15"/>
<polygon fill="#63b8ff" stroke="#63b8ff" points="199.02,-90.85 188.45,-90.17 196.29,-97.3 199.02,-90.85"/>
</a>
</g>
<g id="a_edge31&#45;headlabel"><a xlink:href="dir_000080_000072.html" target="_top" xlink:title="6">
<text text-anchor="middle" x="203.44" y="-87.14" font-family="Helvetica,sans-Serif" font-size="10.00" fill="#63b8ff">6</text>
</a>
</g>
</g>
<!-- dir_40a07d66e7fedbdef195364f73b9e6a6&#45;&gt;dir_4cf3e568933a39133476fd0cdd0720ad -->
<g id="edge32" class="edge">
<title>dir_40a07d66e7fedbdef195364f73b9e6a6&#45;&gt;dir_4cf3e568933a39133476fd0cdd0720ad</title>
<g id="a_edge32"><a xlink:href="dir_000080_000062.html" target="_top">
<path fill="none" stroke="#63b8ff" d="M301.59,-145C305.81,-153.94 308.84,-168.42 311,-181 313.57,-195.96 315.95,-212.98 316.26,-225.64"/>
<polygon fill="#63b8ff" stroke="#63b8ff" points="312.76,-225.73 315.91,-235.85 319.75,-225.97 312.76,-225.73"/>
</a>
</g>
<g id="a_edge32&#45;headlabel"><a xlink:href="dir_000080_000062.html" target="_top" xlink:title="2">
<text text-anchor="middle" x="310.05" y="-219.54" font-family="Helvetica,sans-Serif" font-size="10.00" fill="#63b8ff">2</text>
</a>
</g>
</g>
<!-- dir_40a07d66e7fedbdef195364f73b9e6a6&#45;&gt;dir_616630fd0adec1772873768e31678ae7 -->
<g id="edge33" class="edge">
<title>dir_40a07d66e7fedbdef195364f73b9e6a6&#45;&gt;dir_616630fd0adec1772873768e31678ae7</title>
<g id="a_edge33"><a xlink:href="dir_000080_000069.html" target="_top">
<path fill="none" stroke="#63b8ff" d="M287.22,-125.75C282.38,-118.42 275.32,-107.73 269.36,-98.7"/>
<polygon fill="#63b8ff" stroke="#63b8ff" points="272.1,-96.5 263.67,-90.09 266.26,-100.36 272.1,-96.5"/>
</a>
</g>
<g id="a_edge33&#45;headlabel"><a xlink:href="dir_000080_000069.html" target="_top" xlink:title="1">
<text text-anchor="middle" x="276.45" y="-95.44" font-family="Helvetica,sans-Serif" font-size="10.00" fill="#63b8ff">1</text>
</a>
</g>
</g>
<!-- dir_40a07d66e7fedbdef195364f73b9e6a6&#45;&gt;dir_9901a41432e1411a521c23d6f490a264 -->
<g id="edge34" class="edge">
<title>dir_40a07d66e7fedbdef195364f73b9e6a6&#45;&gt;dir_9901a41432e1411a521c23d6f490a264</title>
<g id="a_edge34"><a xlink:href="dir_000080_000073.html" target="_top">
<path fill="none" stroke="#63b8ff" d="M291.97,-145.09C288.23,-152.6 280.65,-163.72 273.17,-172.96"/>
<polygon fill="#63b8ff" stroke="#63b8ff" points="270.33,-170.89 266.44,-180.75 275.63,-175.47 270.33,-170.89"/>
</a>
</g>
<g id="a_edge34&#45;headlabel"><a xlink:href="dir_000080_000073.html" target="_top" xlink:title="1">
<text text-anchor="middle" x="270.53" y="-163.82" font-family="Helvetica,sans-Serif" font-size="10.00" fill="#63b8ff">1</text>
</a>
</g>
</g>
<!-- dir_40a07d66e7fedbdef195364f73b9e6a6&#45;&gt;dir_0046d781185df00694c70533b055a138 -->
<g id="edge27" class="edge">
<title>dir_40a07d66e7fedbdef195364f73b9e6a6&#45;&gt;dir_0046d781185df00694c70533b055a138</title>
<g id="a_edge27"><a xlink:href="dir_000080_000053.html" target="_top">
<path fill="none" stroke="#63b8ff" d="M267.8,-130.38C234.65,-124.38 175.09,-111.52 128,-90 108.49,-81.09 106.33,-74.14 88,-63 74.65,-54.88 59.38,-46.5 46.79,-39.82"/>
<polygon fill="#63b8ff" stroke="#63b8ff" points="48.25,-36.63 37.77,-35.07 44.99,-42.82 48.25,-36.63"/>
</a>
</g>
<g id="a_edge27&#45;headlabel"><a xlink:href="dir_000080_000053.html" target="_top" xlink:title="5">
<text text-anchor="middle" x="52.75" y="-33.29" font-family="Helvetica,sans-Serif" font-size="10.00" fill="#63b8ff">5</text>
</a>
</g>
</g>
<!-- dir_40a07d66e7fedbdef195364f73b9e6a6&#45;&gt;dir_6a0662f282a699b80270a7344921b324 -->
<g id="edge30" class="edge">
<title>dir_40a07d66e7fedbdef195364f73b9e6a6&#45;&gt;dir_6a0662f282a699b80270a7344921b324</title>
<g id="a_edge30"><a xlink:href="dir_000080_000027.html" target="_top">
<path fill="none" stroke="#63b8ff" d="M318.23,-133.85C354.08,-131.72 420.25,-123.18 464,-90 479.05,-78.58 489.07,-59.13 494.84,-44.76"/>
<polygon fill="#63b8ff" stroke="#63b8ff" points="498.12,-45.97 498.3,-35.38 491.56,-43.55 498.12,-45.97"/>
</a>
</g>
<g id="a_edge30&#45;headlabel"><a xlink:href="dir_000080_000027.html" target="_top" xlink:title="2">
<text text-anchor="middle" x="499.54" y="-47.83" font-family="Helvetica,sans-Serif" font-size="10.00" fill="#63b8ff">2</text>
</a>
</g>
</g>
</g>
</svg>
