<?xml version="1.0" encoding="UTF-8" standalone="no"?>
<!DOCTYPE svg PUBLIC "-//W3C//DTD SVG 1.1//EN"
 "http://www.w3.org/Graphics/SVG/1.1/DTD/svg11.dtd">
<!-- Generated by graphviz version 2.43.0 (0)
 -->
<!-- Title: health Pages: 1 -->
<svg width="753pt" height="251pt"
 viewBox="0.00 0.00 753.25 251.00" xmlns="http://www.w3.org/2000/svg" xmlns:xlink="http://www.w3.org/1999/xlink">
<g id="graph0" class="graph" transform="scale(1 1) rotate(0) translate(4 247)">
<title>health</title>
<g id="clust1" class="cluster">
<title>clusterdir_e1a38fd6dc0543c7f97fb1ccf1615de7</title>
<g id="a_clust1"><a xlink:href="dir_e1a38fd6dc0543c7f97fb1ccf1615de7.html" target="_top" xlink:title="mechanics">
<polygon fill="#edf0f7" stroke="#7f7f7f" stroke-dasharray="5,2" points="156,-8 156,-235 488,-235 488,-8 156,-8"/>
<text text-anchor="middle" x="322" y="-223" font-family="Helvetica,sans-Serif" font-size="10.00">mechanics</text>
</a>
</g>
</g>
<g id="clust2" class="cluster">
<title>clusterdir_b670ef0f6850d7b2892f5d96e38a12a4</title>
<g id="a_clust2"><a xlink:href="dir_b670ef0f6850d7b2892f5d96e38a12a4.html" target="_top">
<polygon fill="#edf0f7" stroke="#404040" stroke-width="2" points="164,-63 164,-208 326,-208 326,-63 164,-63"/>
</a>
</g>
</g>
<!-- dir_d368ce8d6920c000d21f916ca5b7e02f -->
<g id="node1" class="node">
<title>dir_d368ce8d6920c000d21f916ca5b7e02f</title>
<g id="a_node1"><a xlink:href="dir_d368ce8d6920c000d21f916ca5b7e02f.html" target="_top" xlink:title="combat">
<polygon fill="#a2b4d6" stroke="red" points="399.5,-35 346.5,-35 346.5,-16 399.5,-16 399.5,-35"/>
<text text-anchor="middle" x="373" y="-23" font-family="Helvetica,sans-Serif" font-size="10.00">combat</text>
</a>
</g>
</g>
<!-- dir_c8ba3234849006b257a05b362b115823 -->
<g id="node2" class="node">
<title>dir_c8ba3234849006b257a05b362b115823</title>
<g id="a_node2"><a xlink:href="dir_c8ba3234849006b257a05b362b115823.html" target="_top" xlink:title="lifecycle">
<polygon fill="#a2b4d6" stroke="red" points="394,-90 336,-90 336,-71 394,-71 394,-90"/>
<text text-anchor="middle" x="365" y="-78" font-family="Helvetica,sans-Serif" font-size="10.00">lifecycle</text>
</a>
</g>
</g>
<!-- dir_bbe960beed295ed1307a81c8b31ebd37 -->
<g id="node3" class="node">
<title>dir_bbe960beed295ed1307a81c8b31ebd37</title>
<g id="a_node3"><a xlink:href="dir_bbe960beed295ed1307a81c8b31ebd37.html" target="_top" xlink:title="spawn">
<polygon fill="#a2b4d6" stroke="red" points="460,-90 412,-90 412,-71 460,-71 460,-90"/>
<text text-anchor="middle" x="436" y="-78" font-family="Helvetica,sans-Serif" font-size="10.00">spawn</text>
</a>
</g>
</g>
<!-- dir_b670ef0f6850d7b2892f5d96e38a12a4 -->
<g id="node4" class="node">
<title>dir_b670ef0f6850d7b2892f5d96e38a12a4</title>
<text text-anchor="middle" x="265" y="-188" font-family="Helvetica,sans-Serif" font-size="10.00">health</text>
</g>
<!-- dir_b2dc284bc44df997cbbb992175867665 -->
<g id="node5" class="node">
<title>dir_b2dc284bc44df997cbbb992175867665</title>
<g id="a_node5"><a xlink:href="dir_b2dc284bc44df997cbbb992175867665.html" target="_top" xlink:title="components">
<polygon fill="#a2b4d6" stroke="#404040" points="249.5,-90 172.5,-90 172.5,-71 249.5,-71 249.5,-90"/>
<text text-anchor="middle" x="211" y="-78" font-family="Helvetica,sans-Serif" font-size="10.00">components</text>
</a>
</g>
</g>
<!-- dir_b670ef0f6850d7b2892f5d96e38a12a4&#45;&gt;dir_b2dc284bc44df997cbbb992175867665 -->
<g id="edge3" class="edge">
<title>dir_b670ef0f6850d7b2892f5d96e38a12a4&#45;&gt;dir_b2dc284bc44df997cbbb992175867665</title>
<g id="a_edge3"><a xlink:href="dir_000076_000028.html" target="_top">
<path fill="none" stroke="#63b8ff" d="M260.58,-180.66C251.72,-162.93 231.61,-122.73 219.91,-99.32"/>
<polygon fill="#63b8ff" stroke="#63b8ff" points="222.93,-97.54 215.33,-90.16 216.67,-100.67 222.93,-97.54"/>
</a>
</g>
<g id="a_edge3&#45;headlabel"><a xlink:href="dir_000076_000028.html" target="_top" xlink:title="3">
<text text-anchor="middle" x="227.08" y="-96.98" font-family="Helvetica,sans-Serif" font-size="10.00" fill="#63b8ff">3</text>
</a>
</g>
</g>
<!-- dir_fd5d3d54ac0a369cf6af2bf220932640 -->
<g id="node6" class="node">
<title>dir_fd5d3d54ac0a369cf6af2bf220932640</title>
<g id="a_node6"><a xlink:href="dir_fd5d3d54ac0a369cf6af2bf220932640.html" target="_top" xlink:title="events">
<polygon fill="#a2b4d6" stroke="#404040" points="318,-90 268,-90 268,-71 318,-71 318,-90"/>
<text text-anchor="middle" x="293" y="-78" font-family="Helvetica,sans-Serif" font-size="10.00">events</text>
</a>
</g>
</g>
<!-- dir_b670ef0f6850d7b2892f5d96e38a12a4&#45;&gt;dir_fd5d3d54ac0a369cf6af2bf220932640 -->
<g id="edge4" class="edge">
<title>dir_b670ef0f6850d7b2892f5d96e38a12a4&#45;&gt;dir_fd5d3d54ac0a369cf6af2bf220932640</title>
<g id="a_edge4"><a xlink:href="dir_000076_000064.html" target="_top">
<path fill="none" stroke="#63b8ff" d="M259.83,-180.61C253.25,-168.08 243.58,-144.67 251,-126 255.52,-114.63 264.47,-104.48 272.96,-96.76"/>
<polygon fill="#63b8ff" stroke="#63b8ff" points="275.41,-99.27 280.79,-90.14 270.89,-93.92 275.41,-99.27"/>
</a>
</g>
<g id="a_edge4&#45;headlabel"><a xlink:href="dir_000076_000064.html" target="_top" xlink:title="2">
<text text-anchor="middle" x="274.5" y="-101.25" font-family="Helvetica,sans-Serif" font-size="10.00" fill="#63b8ff">2</text>
</a>
</g>
</g>
<!-- dir_5205709783a7211c89208e8fb92d7bc9 -->
<g id="node7" class="node">
<title>dir_5205709783a7211c89208e8fb92d7bc9</title>
<g id="a_node7"><a xlink:href="dir_5205709783a7211c89208e8fb92d7bc9.html" target="_top" xlink:title="systems">
<polygon fill="#a2b4d6" stroke="#404040" points="318,-145 260,-145 260,-126 318,-126 318,-145"/>
<text text-anchor="middle" x="289" y="-133" font-family="Helvetica,sans-Serif" font-size="10.00">systems</text>
</a>
</g>
</g>
<!-- dir_b670ef0f6850d7b2892f5d96e38a12a4&#45;&gt;dir_5205709783a7211c89208e8fb92d7bc9 -->
<g id="edge2" class="edge">
<title>dir_b670ef0f6850d7b2892f5d96e38a12a4&#45;&gt;dir_5205709783a7211c89208e8fb92d7bc9</title>
<g id="a_edge2"><a xlink:href="dir_000076_000130.html" target="_top">
<path fill="none" stroke="#63b8ff" d="M268.96,-180.75C272.21,-173.57 276.92,-163.18 280.95,-154.27"/>
<polygon fill="#63b8ff" stroke="#63b8ff" points="284.17,-155.64 285.11,-145.09 277.8,-152.75 284.17,-155.64"/>
</a>
</g>
<g id="a_edge2&#45;headlabel"><a xlink:href="dir_000076_000130.html" target="_top" xlink:title="1">
<text text-anchor="middle" x="285.28" y="-157.59" font-family="Helvetica,sans-Serif" font-size="10.00" fill="#63b8ff">1</text>
</a>
</g>
</g>
<!-- dir_1ca916e0b9fbc882dbfbd9e6594e5e22 -->
<g id="node8" class="node">
<title>dir_1ca916e0b9fbc882dbfbd9e6594e5e22</title>
<g id="a_node8"><a xlink:href="dir_1ca916e0b9fbc882dbfbd9e6594e5e22.html" target="_top" xlink:title="ecs">
<polygon fill="#edf0f7" stroke="red" stroke-dasharray="5,2" points="602.5,-35 569.5,-35 569.5,-16 602.5,-16 602.5,-35"/>
<text text-anchor="middle" x="586" y="-23" font-family="Helvetica,sans-Serif" font-size="10.00">ecs</text>
</a>
</g>
</g>
<!-- dir_b670ef0f6850d7b2892f5d96e38a12a4&#45;&gt;dir_1ca916e0b9fbc882dbfbd9e6594e5e22 -->
<g id="edge1" class="edge">
<title>dir_b670ef0f6850d7b2892f5d96e38a12a4&#45;&gt;dir_1ca916e0b9fbc882dbfbd9e6594e5e22</title>
<g id="a_edge1"><a xlink:href="dir_000076_000058.html" target="_top">
<path fill="none" stroke="#63b8ff" d="M288.76,-188.3C376.5,-183.34 680.23,-161.19 738,-90 773.33,-46.46 665.4,-32.37 612.91,-28.15"/>
<polygon fill="#63b8ff" stroke="#63b8ff" points="612.85,-24.64 602.63,-27.4 612.34,-31.62 612.85,-24.64"/>
</a>
</g>
<g id="a_edge1&#45;headlabel"><a xlink:href="dir_000076_000058.html" target="_top" xlink:title="3">
<text text-anchor="middle" x="616.65" y="-19.57" font-family="Helvetica,sans-Serif" font-size="10.00" fill="#63b8ff">3</text>
</a>
</g>
</g>
<!-- dir_fd5d3d54ac0a369cf6af2bf220932640&#45;&gt;dir_d368ce8d6920c000d21f916ca5b7e02f -->
<g id="edge9" class="edge">
<title>dir_fd5d3d54ac0a369cf6af2bf220932640&#45;&gt;dir_d368ce8d6920c000d21f916ca5b7e02f</title>
<g id="a_edge9"><a xlink:href="dir_000064_000014.html" target="_top">
<path fill="none" stroke="#63b8ff" d="M305.85,-70.98C318.14,-62.84 336.91,-50.41 351.48,-40.76"/>
<polygon fill="#63b8ff" stroke="#63b8ff" points="353.51,-43.61 359.91,-35.17 349.64,-37.78 353.51,-43.61"/>
</a>
</g>
<g id="a_edge9&#45;headlabel"><a xlink:href="dir_000064_000014.html" target="_top" xlink:title="1">
<text text-anchor="middle" x="352.08" y="-45.46" font-family="Helvetica,sans-Serif" font-size="10.00" fill="#63b8ff">1</text>
</a>
</g>
</g>
<!-- dir_fd5d3d54ac0a369cf6af2bf220932640&#45;&gt;dir_1ca916e0b9fbc882dbfbd9e6594e5e22 -->
<g id="edge5" class="edge">
<title>dir_fd5d3d54ac0a369cf6af2bf220932640&#45;&gt;dir_1ca916e0b9fbc882dbfbd9e6594e5e22</title>
<g id="a_edge5"><a xlink:href="dir_000064_000058.html" target="_top">
<path fill="none" stroke="#63b8ff" d="M305.78,-70.83C310.67,-67.9 316.41,-64.9 322,-63 365.63,-48.19 501.16,-34.33 559.19,-28.91"/>
<polygon fill="#63b8ff" stroke="#63b8ff" points="559.76,-32.37 569.4,-27.97 559.12,-25.4 559.76,-32.37"/>
</a>
</g>
<g id="a_edge5&#45;headlabel"><a xlink:href="dir_000064_000058.html" target="_top" xlink:title="1">
<text text-anchor="middle" x="556.44" y="-33.03" font-family="Helvetica,sans-Serif" font-size="10.00" fill="#63b8ff">1</text>
</a>
</g>
</g>
<!-- dir_268add6b94670641c68bb834cdcb4292 -->
<g id="node9" class="node">
<title>dir_268add6b94670641c68bb834cdcb4292</title>
<g id="a_node9"><a xlink:href="dir_268add6b94670641c68bb834cdcb4292.html" target="_top" xlink:title="math">
<polygon fill="#edf0f7" stroke="red" stroke-dasharray="5,2" points="92,-35 50,-35 50,-16 92,-16 92,-35"/>
<text text-anchor="middle" x="71" y="-23" font-family="Helvetica,sans-Serif" font-size="10.00">math</text>
</a>
</g>
</g>
<!-- dir_fd5d3d54ac0a369cf6af2bf220932640&#45;&gt;dir_268add6b94670641c68bb834cdcb4292 -->
<g id="edge6" class="edge">
<title>dir_fd5d3d54ac0a369cf6af2bf220932640&#45;&gt;dir_268add6b94670641c68bb834cdcb4292</title>
<g id="a_edge6"><a xlink:href="dir_000064_000091.html" target="_top">
<path fill="none" stroke="#63b8ff" d="M277.46,-70.84C271.79,-67.98 265.24,-65.02 259,-63 194.08,-41.95 172.37,-50.17 102.02,-34.99"/>
<polygon fill="#63b8ff" stroke="#63b8ff" points="102.76,-31.57 92.24,-32.8 101.23,-38.4 102.76,-31.57"/>
</a>
</g>
<g id="a_edge6&#45;headlabel"><a xlink:href="dir_000064_000091.html" target="_top" xlink:title="1">
<text text-anchor="middle" x="106.89" y="-27.09" font-family="Helvetica,sans-Serif" font-size="10.00" fill="#63b8ff">1</text>
</a>
</g>
</g>
<!-- dir_3e2f71566425d27b6ac8140f1223a941 -->
<g id="node10" class="node">
<title>dir_3e2f71566425d27b6ac8140f1223a941</title>
<g id="a_node10"><a xlink:href="dir_3e2f71566425d27b6ac8140f1223a941.html" target="_top" xlink:title="util">
<polygon fill="#edf0f7" stroke="red" stroke-dasharray="5,2" points="32,-35 0,-35 0,-16 32,-16 32,-35"/>
<text text-anchor="middle" x="16" y="-23" font-family="Helvetica,sans-Serif" font-size="10.00">util</text>
</a>
</g>
</g>
<!-- dir_fd5d3d54ac0a369cf6af2bf220932640&#45;&gt;dir_3e2f71566425d27b6ac8140f1223a941 -->
<g id="edge7" class="edge">
<title>dir_fd5d3d54ac0a369cf6af2bf220932640&#45;&gt;dir_3e2f71566425d27b6ac8140f1223a941</title>
<g id="a_edge7"><a xlink:href="dir_000064_000170.html" target="_top">
<path fill="none" stroke="#63b8ff" d="M277.85,-70.85C272.11,-67.92 265.41,-64.91 259,-63 168.4,-35.99 138.11,-55.69 41.84,-34.7"/>
<polygon fill="#63b8ff" stroke="#63b8ff" points="42.53,-31.27 32,-32.47 40.98,-38.1 42.53,-31.27"/>
</a>
</g>
<g id="a_edge7&#45;headlabel"><a xlink:href="dir_000064_000170.html" target="_top" xlink:title="1">
<text text-anchor="middle" x="46.66" y="-26.8" font-family="Helvetica,sans-Serif" font-size="10.00" fill="#63b8ff">1</text>
</a>
</g>
</g>
<!-- dir_4e12247f2bbe360a59cd98a83515e8f1 -->
<g id="node11" class="node">
<title>dir_4e12247f2bbe360a59cd98a83515e8f1</title>
<g id="a_node11"><a xlink:href="dir_4e12247f2bbe360a59cd98a83515e8f1.html" target="_top" xlink:title="core">
<polygon fill="#edf0f7" stroke="red" stroke-dasharray="5,2" points="148,-35 110,-35 110,-16 148,-16 148,-35"/>
<text text-anchor="middle" x="129" y="-23" font-family="Helvetica,sans-Serif" font-size="10.00">core</text>
</a>
</g>
</g>
<!-- dir_fd5d3d54ac0a369cf6af2bf220932640&#45;&gt;dir_4e12247f2bbe360a59cd98a83515e8f1 -->
<g id="edge8" class="edge">
<title>dir_fd5d3d54ac0a369cf6af2bf220932640&#45;&gt;dir_4e12247f2bbe360a59cd98a83515e8f1</title>
<g id="a_edge8"><a xlink:href="dir_000064_000052.html" target="_top">
<path fill="none" stroke="#63b8ff" d="M277.03,-70.95C271.43,-68.17 265.03,-65.23 259,-63 215.95,-47.1 200.89,-49.35 157.69,-36.64"/>
<polygon fill="#63b8ff" stroke="#63b8ff" points="158.61,-33.27 148.03,-33.7 156.57,-39.96 158.61,-33.27"/>
</a>
</g>
<g id="a_edge8&#45;headlabel"><a xlink:href="dir_000064_000052.html" target="_top" xlink:title="1">
<text text-anchor="middle" x="162.88" y="-29.1" font-family="Helvetica,sans-Serif" font-size="10.00" fill="#63b8ff">1</text>
</a>
</g>
</g>
<!-- dir_5205709783a7211c89208e8fb92d7bc9&#45;&gt;dir_d368ce8d6920c000d21f916ca5b7e02f -->
<g id="edge17" class="edge">
<title>dir_5205709783a7211c89208e8fb92d7bc9&#45;&gt;dir_d368ce8d6920c000d21f916ca5b7e02f</title>
<g id="a_edge17"><a xlink:href="dir_000130_000014.html" target="_top">
<path fill="none" stroke="#63b8ff" d="M318.25,-131.58C364.35,-126.31 450.59,-113.51 469,-90 476.4,-80.55 475.81,-72.88 469,-63 455.69,-43.7 430.73,-34.6 409.59,-30.31"/>
<polygon fill="#63b8ff" stroke="#63b8ff" points="410.05,-26.83 399.59,-28.56 408.85,-33.73 410.05,-26.83"/>
</a>
</g>
<g id="a_edge17&#45;headlabel"><a xlink:href="dir_000130_000014.html" target="_top" xlink:title="2">
<text text-anchor="middle" x="414.08" y="-22.15" font-family="Helvetica,sans-Serif" font-size="10.00" fill="#63b8ff">2</text>
</a>
</g>
</g>
<!-- dir_5205709783a7211c89208e8fb92d7bc9&#45;&gt;dir_c8ba3234849006b257a05b362b115823 -->
<g id="edge16" class="edge">
<title>dir_5205709783a7211c89208e8fb92d7bc9&#45;&gt;dir_c8ba3234849006b257a05b362b115823</title>
<g id="a_edge16"><a xlink:href="dir_000130_000086.html" target="_top">
<path fill="none" stroke="#63b8ff" d="M301.21,-125.98C312.78,-117.92 330.38,-105.65 344.16,-96.03"/>
<polygon fill="#63b8ff" stroke="#63b8ff" points="346.37,-98.76 352.57,-90.17 342.36,-93.02 346.37,-98.76"/>
</a>
</g>
<g id="a_edge16&#45;headlabel"><a xlink:href="dir_000130_000086.html" target="_top" xlink:title="1">
<text text-anchor="middle" x="345.04" y="-100.65" font-family="Helvetica,sans-Serif" font-size="10.00" fill="#63b8ff">1</text>
</a>
</g>
</g>
<!-- dir_5205709783a7211c89208e8fb92d7bc9&#45;&gt;dir_bbe960beed295ed1307a81c8b31ebd37 -->
<g id="edge15" class="edge">
<title>dir_5205709783a7211c89208e8fb92d7bc9&#45;&gt;dir_bbe960beed295ed1307a81c8b31ebd37</title>
<g id="a_edge15"><a xlink:href="dir_000130_000121.html" target="_top">
<path fill="none" stroke="#63b8ff" d="M312.62,-125.98C336.9,-117.23 374.95,-103.51 402.37,-93.62"/>
<polygon fill="#63b8ff" stroke="#63b8ff" points="403.73,-96.85 411.95,-90.17 401.36,-90.27 403.73,-96.85"/>
</a>
</g>
<g id="a_edge15&#45;headlabel"><a xlink:href="dir_000130_000121.html" target="_top" xlink:title="1">
<text text-anchor="middle" x="401.31" y="-98.24" font-family="Helvetica,sans-Serif" font-size="10.00" fill="#63b8ff">1</text>
</a>
</g>
</g>
<!-- dir_5205709783a7211c89208e8fb92d7bc9&#45;&gt;dir_b2dc284bc44df997cbbb992175867665 -->
<g id="edge14" class="edge">
<title>dir_5205709783a7211c89208e8fb92d7bc9&#45;&gt;dir_b2dc284bc44df997cbbb992175867665</title>
<g id="a_edge14"><a xlink:href="dir_000130_000028.html" target="_top">
<path fill="none" stroke="#63b8ff" d="M276.47,-125.98C264.6,-117.92 246.54,-105.65 232.39,-96.03"/>
<polygon fill="#63b8ff" stroke="#63b8ff" points="234,-92.9 223.76,-90.17 230.06,-98.69 234,-92.9"/>
</a>
</g>
<g id="a_edge14&#45;headlabel"><a xlink:href="dir_000130_000028.html" target="_top" xlink:title="1">
<text text-anchor="middle" x="238.57" y="-90.07" font-family="Helvetica,sans-Serif" font-size="10.00" fill="#63b8ff">1</text>
</a>
</g>
</g>
<!-- dir_5205709783a7211c89208e8fb92d7bc9&#45;&gt;dir_fd5d3d54ac0a369cf6af2bf220932640 -->
<g id="edge18" class="edge">
<title>dir_5205709783a7211c89208e8fb92d7bc9&#45;&gt;dir_fd5d3d54ac0a369cf6af2bf220932640</title>
<g id="a_edge18"><a xlink:href="dir_000130_000064.html" target="_top">
<path fill="none" stroke="#63b8ff" d="M289.66,-125.75C290.18,-118.8 290.94,-108.85 291.59,-100.13"/>
<polygon fill="#63b8ff" stroke="#63b8ff" points="295.09,-100.32 292.35,-90.09 288.11,-99.8 295.09,-100.32"/>
</a>
</g>
<g id="a_edge18&#45;headlabel"><a xlink:href="dir_000130_000064.html" target="_top" xlink:title="1">
<text text-anchor="middle" x="297.65" y="-101.62" font-family="Helvetica,sans-Serif" font-size="10.00" fill="#63b8ff">1</text>
</a>
</g>
</g>
<!-- dir_5205709783a7211c89208e8fb92d7bc9&#45;&gt;dir_1ca916e0b9fbc882dbfbd9e6594e5e22 -->
<g id="edge10" class="edge">
<title>dir_5205709783a7211c89208e8fb92d7bc9&#45;&gt;dir_1ca916e0b9fbc882dbfbd9e6594e5e22</title>
<g id="a_edge10"><a xlink:href="dir_000130_000058.html" target="_top">
<path fill="none" stroke="#63b8ff" d="M318.29,-133.65C381.98,-131.21 530.33,-122.13 567,-90 579.57,-78.99 583.99,-60.04 585.47,-45.71"/>
<polygon fill="#63b8ff" stroke="#63b8ff" points="588.98,-45.63 586.12,-35.43 581.99,-45.19 588.98,-45.63"/>
</a>
</g>
<g id="a_edge10&#45;headlabel"><a xlink:href="dir_000130_000058.html" target="_top" xlink:title="1">
<text text-anchor="middle" x="591.58" y="-46.9" font-family="Helvetica,sans-Serif" font-size="10.00" fill="#63b8ff">1</text>
</a>
</g>
</g>
<!-- dir_5205709783a7211c89208e8fb92d7bc9&#45;&gt;dir_3e2f71566425d27b6ac8140f1223a941 -->
<g id="edge11" class="edge">
<title>dir_5205709783a7211c89208e8fb92d7bc9&#45;&gt;dir_3e2f71566425d27b6ac8140f1223a941</title>
<g id="a_edge11"><a xlink:href="dir_000130_000170.html" target="_top">
<path fill="none" stroke="#63b8ff" d="M263.45,-125.93C238.06,-117.3 198.1,-103.37 164,-90 120.69,-73.02 71.16,-51.29 41.79,-38.15"/>
<polygon fill="#63b8ff" stroke="#63b8ff" points="42.84,-34.79 32.29,-33.89 39.98,-41.18 42.84,-34.79"/>
</a>
</g>
<g id="a_edge11&#45;headlabel"><a xlink:href="dir_000130_000170.html" target="_top" xlink:title="1">
<text text-anchor="middle" x="47.28" y="-31.17" font-family="Helvetica,sans-Serif" font-size="10.00" fill="#63b8ff">1</text>
</a>
</g>
</g>
<!-- dir_fff8ef54a646d9df8d7b15d27474569f -->
<g id="node12" class="node">
<title>dir_fff8ef54a646d9df8d7b15d27474569f</title>
<g id="a_node12"><a xlink:href="dir_fff8ef54a646d9df8d7b15d27474569f.html" target="_top" xlink:title="runtime">
<polygon fill="#edf0f7" stroke="red" stroke-dasharray="5,2" points="669.5,-90 614.5,-90 614.5,-71 669.5,-71 669.5,-90"/>
<text text-anchor="middle" x="642" y="-78" font-family="Helvetica,sans-Serif" font-size="10.00">runtime</text>
</a>
</g>
</g>
<!-- dir_5205709783a7211c89208e8fb92d7bc9&#45;&gt;dir_fff8ef54a646d9df8d7b15d27474569f -->
<g id="edge19" class="edge">
<title>dir_5205709783a7211c89208e8fb92d7bc9&#45;&gt;dir_fff8ef54a646d9df8d7b15d27474569f</title>
<g id="a_edge19"><a xlink:href="dir_000130_000111.html" target="_top">
<path fill="none" stroke="#63b8ff" d="M318.24,-130.89C373.46,-123.94 496.8,-107.81 600,-90 601.47,-89.75 602.96,-89.48 604.47,-89.21"/>
<polygon fill="#63b8ff" stroke="#63b8ff" points="605.31,-92.61 614.48,-87.31 604,-85.73 605.31,-92.61"/>
</a>
</g>
<g id="a_edge19&#45;headlabel"><a xlink:href="dir_000130_000111.html" target="_top" xlink:title="4">
<text text-anchor="middle" x="602.31" y="-93.57" font-family="Helvetica,sans-Serif" font-size="10.00" fill="#63b8ff">4</text>
</a>
</g>
</g>
<!-- dir_94b0c4fb82528c4245604725780b49de -->
<g id="node13" class="node">
<title>dir_94b0c4fb82528c4245604725780b49de</title>
<g id="a_node13"><a xlink:href="dir_94b0c4fb82528c4245604725780b49de.html" target="_top" xlink:title="state">
<polygon fill="#edf0f7" stroke="red" stroke-dasharray="5,2" points="728.5,-90 687.5,-90 687.5,-71 728.5,-71 728.5,-90"/>
<text text-anchor="middle" x="708" y="-78" font-family="Helvetica,sans-Serif" font-size="10.00">state</text>
</a>
</g>
</g>
<!-- dir_5205709783a7211c89208e8fb92d7bc9&#45;&gt;dir_94b0c4fb82528c4245604725780b49de -->
<g id="edge13" class="edge">
<title>dir_5205709783a7211c89208e8fb92d7bc9&#45;&gt;dir_94b0c4fb82528c4245604725780b49de</title>
<g id="a_edge13"><a xlink:href="dir_000130_000124.html" target="_top">
<path fill="none" stroke="#63b8ff" d="M318.13,-132.89C381.8,-129 538.18,-117.48 677.22,-90.06"/>
<polygon fill="#63b8ff" stroke="#63b8ff" points="678.08,-93.46 687.2,-88.06 676.7,-86.6 678.08,-93.46"/>
</a>
</g>
<g id="a_edge13&#45;headlabel"><a xlink:href="dir_000130_000124.html" target="_top" xlink:title="1">
<text text-anchor="middle" x="675.12" y="-94.45" font-family="Helvetica,sans-Serif" font-size="10.00" fill="#63b8ff">1</text>
</a>
</g>
</g>
<!-- dir_87b9f5c33f5a8f4d48db11d48f10a572 -->
<g id="node14" class="node">
<title>dir_87b9f5c33f5a8f4d48db11d48f10a572</title>
<g id="a_node14"><a xlink:href="dir_87b9f5c33f5a8f4d48db11d48f10a572.html" target="_top" xlink:title="modules">
<polygon fill="#edf0f7" stroke="red" stroke-dasharray="5,2" points="557.5,-90 498.5,-90 498.5,-71 557.5,-71 557.5,-90"/>
<text text-anchor="middle" x="528" y="-78" font-family="Helvetica,sans-Serif" font-size="10.00">modules</text>
</a>
</g>
</g>
<!-- dir_5205709783a7211c89208e8fb92d7bc9&#45;&gt;dir_87b9f5c33f5a8f4d48db11d48f10a572 -->
<g id="edge12" class="edge">
<title>dir_5205709783a7211c89208e8fb92d7bc9&#45;&gt;dir_87b9f5c33f5a8f4d48db11d48f10a572</title>
<g id="a_edge12"><a xlink:href="dir_000130_000098.html" target="_top">
<path fill="none" stroke="#63b8ff" d="M318.28,-128.24C355.84,-120.17 423.26,-105.57 488.18,-90.85"/>
<polygon fill="#63b8ff" stroke="#63b8ff" points="489.17,-94.22 498.15,-88.59 487.62,-87.39 489.17,-94.22"/>
</a>
</g>
<g id="a_edge12&#45;headlabel"><a xlink:href="dir_000130_000098.html" target="_top" xlink:title="1">
<text text-anchor="middle" x="486.3" y="-95.28" font-family="Helvetica,sans-Serif" font-size="10.00" fill="#63b8ff">1</text>
</a>
</g>
</g>
</g>
</svg>
