<?xml version="1.0" encoding="UTF-8" standalone="no"?>
<!DOCTYPE svg PUBLIC "-//W3C//DTD SVG 1.1//EN"
 "http://www.w3.org/Graphics/SVG/1.1/DTD/svg11.dtd">
<!-- Generated by graphviz version 2.43.0 (0)
 -->
<!-- Title: include/helios/engine/game/systems Pages: 1 -->
<svg width="659pt" height="196pt"
 viewBox="0.00 0.00 658.50 196.00" xmlns="http://www.w3.org/2000/svg" xmlns:xlink="http://www.w3.org/1999/xlink">
<g id="graph0" class="graph" transform="scale(1 1) rotate(0) translate(4 192)">
<title>include/helios/engine/game/systems</title>
<g id="clust1" class="cluster">
<title>clusterdir_46c7b0b04924cca8aa10726746d57f30</title>
<g id="a_clust1"><a xlink:href="dir_46c7b0b04924cca8aa10726746d57f30.html" target="_top" xlink:title="game">
<polygon fill="#edf0f7" stroke="#7f7f7f" stroke-dasharray="5,2" points="8,-8 8,-180 296,-180 296,-8 8,-8"/>
<text text-anchor="middle" x="152" y="-168" font-family="Helvetica,sans-Serif" font-size="10.00">game</text>
</a>
</g>
</g>
<g id="clust2" class="cluster">
<title>clusterdir_36ea2b7be3cb8c26515d956982029a89</title>
<g id="a_clust2"><a xlink:href="dir_36ea2b7be3cb8c26515d956982029a89.html" target="_top">
<polygon fill="#edf0f7" stroke="#404040" stroke-width="2" points="16,-63 16,-153 288,-153 288,-63 16,-63"/>
</a>
</g>
</g>
<!-- dir_86d8e8e4bfdb09c041580463eb962dec -->
<g id="node1" class="node">
<title>dir_86d8e8e4bfdb09c041580463eb962dec</title>
<g id="a_node1"><a xlink:href="dir_86d8e8e4bfdb09c041580463eb962dec.html" target="_top" xlink:title="event">
<polygon fill="#a2b4d6" stroke="#404040" points="204,-35 160,-35 160,-16 204,-16 204,-35"/>
<text text-anchor="middle" x="182" y="-23" font-family="Helvetica,sans-Serif" font-size="10.00">event</text>
</a>
</g>
</g>
<!-- dir_f71deafbc833970927ad1dfabdb805be -->
<g id="node2" class="node">
<title>dir_f71deafbc833970927ad1dfabdb805be</title>
<g id="a_node2"><a xlink:href="dir_f71deafbc833970927ad1dfabdb805be.html" target="_top" xlink:title="components">
<polygon fill="#a2b4d6" stroke="red" points="141.5,-35 64.5,-35 64.5,-16 141.5,-16 141.5,-35"/>
<text text-anchor="middle" x="103" y="-23" font-family="Helvetica,sans-Serif" font-size="10.00">components</text>
</a>
</g>
</g>
<!-- dir_36ea2b7be3cb8c26515d956982029a89 -->
<g id="node3" class="node">
<title>dir_36ea2b7be3cb8c26515d956982029a89</title>
<text text-anchor="middle" x="136" y="-133" font-family="Helvetica,sans-Serif" font-size="10.00">systems</text>
</g>
<!-- dir_2036ee9c852531d6695ccc0e4c2def2c -->
<g id="node4" class="node">
<title>dir_2036ee9c852531d6695ccc0e4c2def2c</title>
<g id="a_node4"><a xlink:href="dir_2036ee9c852531d6695ccc0e4c2def2c.html" target="_top" xlink:title="gameplay">
<polygon fill="#a2b4d6" stroke="#404040" points="279.5,-90 214.5,-90 214.5,-71 279.5,-71 279.5,-90"/>
<text text-anchor="middle" x="247" y="-78" font-family="Helvetica,sans-Serif" font-size="10.00">gameplay</text>
</a>
</g>
</g>
<!-- dir_36ea2b7be3cb8c26515d956982029a89&#45;&gt;dir_2036ee9c852531d6695ccc0e4c2def2c -->
<g id="edge1" class="edge">
<title>dir_36ea2b7be3cb8c26515d956982029a89&#45;&gt;dir_2036ee9c852531d6695ccc0e4c2def2c</title>
<g id="a_edge1"><a xlink:href="dir_000047_000020.html" target="_top">
<path fill="none" stroke="#63b8ff" d="M153.83,-125.98C171.61,-117.5 199.15,-104.35 219.68,-94.54"/>
<polygon fill="#63b8ff" stroke="#63b8ff" points="221.33,-97.64 228.84,-90.17 218.31,-91.32 221.33,-97.64"/>
</a>
</g>
<g id="a_edge1&#45;headlabel"><a xlink:href="dir_000047_000020.html" target="_top" xlink:title="1">
<text text-anchor="middle" x="219.3" y="-99.25" font-family="Helvetica,sans-Serif" font-size="10.00" fill="#63b8ff">1</text>
</a>
</g>
</g>
<!-- dir_d8be9b0e446dd8c9e5aa09f48fb49f4f -->
<g id="node5" class="node">
<title>dir_d8be9b0e446dd8c9e5aa09f48fb49f4f</title>
<g id="a_node5"><a xlink:href="dir_d8be9b0e446dd8c9e5aa09f48fb49f4f.html" target="_top" xlink:title="physics">
<polygon fill="#a2b4d6" stroke="#404040" points="196.5,-90 143.5,-90 143.5,-71 196.5,-71 196.5,-90"/>
<text text-anchor="middle" x="170" y="-78" font-family="Helvetica,sans-Serif" font-size="10.00">physics</text>
</a>
</g>
</g>
<!-- dir_36ea2b7be3cb8c26515d956982029a89&#45;&gt;dir_d8be9b0e446dd8c9e5aa09f48fb49f4f -->
<g id="edge3" class="edge">
<title>dir_36ea2b7be3cb8c26515d956982029a89&#45;&gt;dir_d8be9b0e446dd8c9e5aa09f48fb49f4f</title>
<g id="a_edge3"><a xlink:href="dir_000047_000036.html" target="_top">
<path fill="none" stroke="#63b8ff" d="M141.61,-125.75C146.32,-118.42 153.17,-107.73 158.97,-98.7"/>
<polygon fill="#63b8ff" stroke="#63b8ff" points="162.04,-100.4 164.49,-90.09 156.14,-96.62 162.04,-100.4"/>
</a>
</g>
<g id="a_edge3&#45;headlabel"><a xlink:href="dir_000047_000036.html" target="_top" xlink:title="1">
<text text-anchor="middle" x="162.49" y="-102.45" font-family="Helvetica,sans-Serif" font-size="10.00" fill="#63b8ff">1</text>
</a>
</g>
</g>
<!-- dir_d35e9ff41279209263f6c1b8d9281645 -->
<g id="node6" class="node">
<title>dir_d35e9ff41279209263f6c1b8d9281645</title>
<g id="a_node6"><a xlink:href="dir_d35e9ff41279209263f6c1b8d9281645.html" target="_top" xlink:title="post">
<polygon fill="#a2b4d6" stroke="#404040" points="62,-90 24,-90 24,-71 62,-71 62,-90"/>
<text text-anchor="middle" x="43" y="-78" font-family="Helvetica,sans-Serif" font-size="10.00">post</text>
</a>
</g>
</g>
<!-- dir_36ea2b7be3cb8c26515d956982029a89&#45;&gt;dir_d35e9ff41279209263f6c1b8d9281645 -->
<g id="edge2" class="edge">
<title>dir_36ea2b7be3cb8c26515d956982029a89&#45;&gt;dir_d35e9ff41279209263f6c1b8d9281645</title>
<g id="a_edge2"><a xlink:href="dir_000047_000037.html" target="_top">
<path fill="none" stroke="#63b8ff" d="M121.06,-125.98C106.5,-117.69 84.13,-104.94 67.07,-95.22"/>
<polygon fill="#63b8ff" stroke="#63b8ff" points="68.64,-92.08 58.21,-90.17 65.17,-98.16 68.64,-92.08"/>
</a>
</g>
<g id="a_edge2&#45;headlabel"><a xlink:href="dir_000047_000037.html" target="_top" xlink:title="1">
<text text-anchor="middle" x="73.16" y="-88.89" font-family="Helvetica,sans-Serif" font-size="10.00" fill="#63b8ff">1</text>
</a>
</g>
</g>
<!-- dir_e7b893978f127c9e8ada7b9c99db26af -->
<g id="node7" class="node">
<title>dir_e7b893978f127c9e8ada7b9c99db26af</title>
<g id="a_node7"><a xlink:href="dir_e7b893978f127c9e8ada7b9c99db26af.html" target="_top" xlink:title="scene">
<polygon fill="#a2b4d6" stroke="#404040" points="125.5,-90 80.5,-90 80.5,-71 125.5,-71 125.5,-90"/>
<text text-anchor="middle" x="103" y="-78" font-family="Helvetica,sans-Serif" font-size="10.00">scene</text>
</a>
</g>
</g>
<!-- dir_36ea2b7be3cb8c26515d956982029a89&#45;&gt;dir_e7b893978f127c9e8ada7b9c99db26af -->
<g id="edge4" class="edge">
<title>dir_36ea2b7be3cb8c26515d956982029a89&#45;&gt;dir_e7b893978f127c9e8ada7b9c99db26af</title>
<g id="a_edge4"><a xlink:href="dir_000047_000042.html" target="_top">
<path fill="none" stroke="#63b8ff" d="M130.55,-125.75C125.99,-118.42 119.33,-107.73 113.71,-98.7"/>
<polygon fill="#63b8ff" stroke="#63b8ff" points="116.6,-96.73 108.35,-90.09 110.66,-100.43 116.6,-96.73"/>
</a>
</g>
<g id="a_edge4&#45;headlabel"><a xlink:href="dir_000047_000042.html" target="_top" xlink:title="1">
<text text-anchor="middle" x="120.91" y="-95.78" font-family="Helvetica,sans-Serif" font-size="10.00" fill="#63b8ff">1</text>
</a>
</g>
</g>
<!-- dir_2036ee9c852531d6695ccc0e4c2def2c&#45;&gt;dir_f71deafbc833970927ad1dfabdb805be -->
<g id="edge10" class="edge">
<title>dir_2036ee9c852531d6695ccc0e4c2def2c&#45;&gt;dir_f71deafbc833970927ad1dfabdb805be</title>
<g id="a_edge10"><a xlink:href="dir_000020_000005.html" target="_top">
<path fill="none" stroke="#63b8ff" d="M226.21,-70.94C219.75,-68.33 212.6,-65.5 206,-63 183.38,-54.45 157.75,-45.36 137.72,-38.39"/>
<polygon fill="#63b8ff" stroke="#63b8ff" points="138.68,-35.02 128.08,-35.06 136.39,-41.64 138.68,-35.02"/>
</a>
</g>
<g id="a_edge10&#45;headlabel"><a xlink:href="dir_000020_000005.html" target="_top" xlink:title="6">
<text text-anchor="middle" x="143" y="-31.02" font-family="Helvetica,sans-Serif" font-size="10.00" fill="#63b8ff">6</text>
</a>
</g>
</g>
<!-- dir_0046d781185df00694c70533b055a138 -->
<g id="node8" class="node">
<title>dir_0046d781185df00694c70533b055a138</title>
<g id="a_node8"><a xlink:href="dir_0046d781185df00694c70533b055a138.html" target="_top" xlink:title="math">
<polygon fill="#edf0f7" stroke="red" stroke-dasharray="5,2" points="469,-35 427,-35 427,-16 469,-16 469,-35"/>
<text text-anchor="middle" x="448" y="-23" font-family="Helvetica,sans-Serif" font-size="10.00">math</text>
</a>
</g>
</g>
<!-- dir_2036ee9c852531d6695ccc0e4c2def2c&#45;&gt;dir_0046d781185df00694c70533b055a138 -->
<g id="edge5" class="edge">
<title>dir_2036ee9c852531d6695ccc0e4c2def2c&#45;&gt;dir_0046d781185df00694c70533b055a138</title>
<g id="a_edge5"><a xlink:href="dir_000020_000030.html" target="_top">
<path fill="none" stroke="#63b8ff" d="M279.52,-71.26C311.94,-62.99 363.41,-49.74 416.74,-35.3"/>
<polygon fill="#63b8ff" stroke="#63b8ff" points="417.98,-38.59 426.71,-32.59 416.14,-31.84 417.98,-38.59"/>
</a>
</g>
<g id="a_edge5&#45;headlabel"><a xlink:href="dir_000020_000030.html" target="_top" xlink:title="1">
<text text-anchor="middle" x="415.25" y="-39.77" font-family="Helvetica,sans-Serif" font-size="10.00" fill="#63b8ff">1</text>
</a>
</g>
</g>
<!-- dir_106756a8ee71bdde7f7b779a3a0a52e4 -->
<g id="node9" class="node">
<title>dir_106756a8ee71bdde7f7b779a3a0a52e4</title>
<g id="a_node9"><a xlink:href="dir_106756a8ee71bdde7f7b779a3a0a52e4.html" target="_top" xlink:title="ext">
<polygon fill="#edf0f7" stroke="red" stroke-dasharray="5,2" points="569,-35 537,-35 537,-16 569,-16 569,-35"/>
<text text-anchor="middle" x="553" y="-23" font-family="Helvetica,sans-Serif" font-size="10.00">ext</text>
</a>
</g>
</g>
<!-- dir_2036ee9c852531d6695ccc0e4c2def2c&#45;&gt;dir_106756a8ee71bdde7f7b779a3a0a52e4 -->
<g id="edge6" class="edge">
<title>dir_2036ee9c852531d6695ccc0e4c2def2c&#45;&gt;dir_106756a8ee71bdde7f7b779a3a0a52e4</title>
<g id="a_edge6"><a xlink:href="dir_000020_000016.html" target="_top">
<path fill="none" stroke="#63b8ff" d="M279.81,-76.14C330.88,-70.53 432.5,-57.76 527.25,-34.8"/>
<polygon fill="#63b8ff" stroke="#63b8ff" points="528.11,-38.19 536.98,-32.4 526.43,-31.39 528.11,-38.19"/>
</a>
</g>
<g id="a_edge6&#45;headlabel"><a xlink:href="dir_000020_000016.html" target="_top" xlink:title="3">
<text text-anchor="middle" x="525.3" y="-39.31" font-family="Helvetica,sans-Serif" font-size="10.00" fill="#63b8ff">3</text>
</a>
</g>
</g>
<!-- dir_7f0768799dd37ef2f2adcdfec91ab1e9 -->
<g id="node10" class="node">
<title>dir_7f0768799dd37ef2f2adcdfec91ab1e9</title>
<g id="a_node10"><a xlink:href="dir_7f0768799dd37ef2f2adcdfec91ab1e9.html" target="_top" xlink:title="util">
<polygon fill="#edf0f7" stroke="red" stroke-dasharray="5,2" points="519,-35 487,-35 487,-16 519,-16 519,-35"/>
<text text-anchor="middle" x="503" y="-23" font-family="Helvetica,sans-Serif" font-size="10.00">util</text>
</a>
</g>
</g>
<!-- dir_2036ee9c852531d6695ccc0e4c2def2c&#45;&gt;dir_7f0768799dd37ef2f2adcdfec91ab1e9 -->
<g id="edge7" class="edge">
<title>dir_2036ee9c852531d6695ccc0e4c2def2c&#45;&gt;dir_7f0768799dd37ef2f2adcdfec91ab1e9</title>
<g id="a_edge7"><a xlink:href="dir_000020_000055.html" target="_top">
<path fill="none" stroke="#63b8ff" d="M279.84,-74.63C323.07,-67.91 401.54,-54.61 477.26,-34.88"/>
<polygon fill="#63b8ff" stroke="#63b8ff" points="478.19,-38.26 486.96,-32.32 476.4,-31.49 478.19,-38.26"/>
</a>
</g>
<g id="a_edge7&#45;headlabel"><a xlink:href="dir_000020_000055.html" target="_top" xlink:title="2">
<text text-anchor="middle" x="475.44" y="-39.42" font-family="Helvetica,sans-Serif" font-size="10.00" fill="#63b8ff">2</text>
</a>
</g>
</g>
<!-- dir_9ba586a504c756f19720715161f17166 -->
<g id="node12" class="node">
<title>dir_9ba586a504c756f19720715161f17166</title>
<g id="a_node12"><a xlink:href="dir_9ba586a504c756f19720715161f17166.html" target="_top" xlink:title="rendering">
<polygon fill="#edf0f7" stroke="red" stroke-dasharray="5,2" points="650.5,-35 587.5,-35 587.5,-16 650.5,-16 650.5,-35"/>
<text text-anchor="middle" x="619" y="-23" font-family="Helvetica,sans-Serif" font-size="10.00">rendering</text>
</a>
</g>
</g>
<!-- dir_2036ee9c852531d6695ccc0e4c2def2c&#45;&gt;dir_9ba586a504c756f19720715161f17166 -->
<g id="edge8" class="edge">
<title>dir_2036ee9c852531d6695ccc0e4c2def2c&#45;&gt;dir_9ba586a504c756f19720715161f17166</title>
<g id="a_edge8"><a xlink:href="dir_000020_000040.html" target="_top">
<path fill="none" stroke="#63b8ff" d="M279.53,-75.9C337.31,-69.34 461.8,-54.46 577.19,-35.02"/>
<polygon fill="#63b8ff" stroke="#63b8ff" points="577.99,-38.44 587.26,-33.31 576.81,-31.54 577.99,-38.44"/>
</a>
</g>
<g id="a_edge8&#45;headlabel"><a xlink:href="dir_000020_000040.html" target="_top" xlink:title="2">
<text text-anchor="middle" x="574.92" y="-39.34" font-family="Helvetica,sans-Serif" font-size="10.00" fill="#63b8ff">2</text>
</a>
</g>
</g>
<!-- dir_b6e017bc8c299f04fc1162fc4677be61 -->
<g id="node13" class="node">
<title>dir_b6e017bc8c299f04fc1162fc4677be61</title>
<g id="a_node13"><a xlink:href="dir_b6e017bc8c299f04fc1162fc4677be61.html" target="_top" xlink:title="scene">
<polygon fill="#edf0f7" stroke="#7f7f7f" points="349.5,-35 304.5,-35 304.5,-16 349.5,-16 349.5,-35"/>
<text text-anchor="middle" x="327" y="-23" font-family="Helvetica,sans-Serif" font-size="10.00">scene</text>
</a>
</g>
</g>
<!-- dir_2036ee9c852531d6695ccc0e4c2def2c&#45;&gt;dir_b6e017bc8c299f04fc1162fc4677be61 -->
<g id="edge9" class="edge">
<title>dir_2036ee9c852531d6695ccc0e4c2def2c&#45;&gt;dir_b6e017bc8c299f04fc1162fc4677be61</title>
<g id="a_edge9"><a xlink:href="dir_000020_000043.html" target="_top">
<path fill="none" stroke="#63b8ff" d="M259.85,-70.98C272.14,-62.84 290.91,-50.41 305.48,-40.76"/>
<polygon fill="#63b8ff" stroke="#63b8ff" points="307.51,-43.61 313.91,-35.17 303.64,-37.78 307.51,-43.61"/>
</a>
</g>
<g id="a_edge9&#45;headlabel"><a xlink:href="dir_000020_000043.html" target="_top" xlink:title="2">
<text text-anchor="middle" x="306.08" y="-45.46" font-family="Helvetica,sans-Serif" font-size="10.00" fill="#63b8ff">2</text>
</a>
</g>
</g>
<!-- dir_d8be9b0e446dd8c9e5aa09f48fb49f4f&#45;&gt;dir_86d8e8e4bfdb09c041580463eb962dec -->
<g id="edge13" class="edge">
<title>dir_d8be9b0e446dd8c9e5aa09f48fb49f4f&#45;&gt;dir_86d8e8e4bfdb09c041580463eb962dec</title>
<g id="a_edge13"><a xlink:href="dir_000036_000013.html" target="_top">
<path fill="none" stroke="#63b8ff" d="M171.98,-70.75C173.57,-63.72 175.86,-53.62 177.85,-44.84"/>
<polygon fill="#63b8ff" stroke="#63b8ff" points="181.26,-45.62 180.06,-35.09 174.43,-44.07 181.26,-45.62"/>
</a>
</g>
<g id="a_edge13&#45;headlabel"><a xlink:href="dir_000036_000013.html" target="_top" xlink:title="2">
<text text-anchor="middle" x="183.24" y="-47.25" font-family="Helvetica,sans-Serif" font-size="10.00" fill="#63b8ff">2</text>
</a>
</g>
</g>
<!-- dir_d8be9b0e446dd8c9e5aa09f48fb49f4f&#45;&gt;dir_f71deafbc833970927ad1dfabdb805be -->
<g id="edge16" class="edge">
<title>dir_d8be9b0e446dd8c9e5aa09f48fb49f4f&#45;&gt;dir_f71deafbc833970927ad1dfabdb805be</title>
<g id="a_edge16"><a xlink:href="dir_000036_000005.html" target="_top">
<path fill="none" stroke="#63b8ff" d="M159.24,-70.98C149.23,-63.07 134.11,-51.11 122.07,-41.58"/>
<polygon fill="#63b8ff" stroke="#63b8ff" points="123.97,-38.63 113.96,-35.17 119.63,-44.12 123.97,-38.63"/>
</a>
</g>
<g id="a_edge16&#45;headlabel"><a xlink:href="dir_000036_000005.html" target="_top" xlink:title="34">
<text text-anchor="middle" x="128.56" y="-36.13" font-family="Helvetica,sans-Serif" font-size="10.00" fill="#63b8ff">34</text>
</a>
</g>
</g>
<!-- dir_d8be9b0e446dd8c9e5aa09f48fb49f4f&#45;&gt;dir_0046d781185df00694c70533b055a138 -->
<g id="edge11" class="edge">
<title>dir_d8be9b0e446dd8c9e5aa09f48fb49f4f&#45;&gt;dir_0046d781185df00694c70533b055a138</title>
<g id="a_edge11"><a xlink:href="dir_000036_000030.html" target="_top">
<path fill="none" stroke="#63b8ff" d="M186.09,-70.88C192.18,-67.96 199.26,-64.94 206,-63 294.29,-37.56 323.02,-53.11 416.88,-34.92"/>
<polygon fill="#63b8ff" stroke="#63b8ff" points="417.68,-38.33 426.79,-32.92 416.29,-31.47 417.68,-38.33"/>
</a>
</g>
<g id="a_edge11&#45;headlabel"><a xlink:href="dir_000036_000030.html" target="_top" xlink:title="8">
<text text-anchor="middle" x="414.71" y="-39.32" font-family="Helvetica,sans-Serif" font-size="10.00" fill="#63b8ff">8</text>
</a>
</g>
</g>
<!-- dir_d8be9b0e446dd8c9e5aa09f48fb49f4f&#45;&gt;dir_7f0768799dd37ef2f2adcdfec91ab1e9 -->
<g id="edge12" class="edge">
<title>dir_d8be9b0e446dd8c9e5aa09f48fb49f4f&#45;&gt;dir_7f0768799dd37ef2f2adcdfec91ab1e9</title>
<g id="a_edge12"><a xlink:href="dir_000036_000055.html" target="_top">
<path fill="none" stroke="#63b8ff" d="M185.71,-70.95C191.87,-67.96 199.1,-64.88 206,-63 320.16,-31.88 357.32,-59.41 476.85,-34.74"/>
<polygon fill="#63b8ff" stroke="#63b8ff" points="477.7,-38.13 486.74,-32.61 476.23,-31.29 477.7,-38.13"/>
</a>
</g>
<g id="a_edge12&#45;headlabel"><a xlink:href="dir_000036_000055.html" target="_top" xlink:title="2">
<text text-anchor="middle" x="474.78" y="-39.16" font-family="Helvetica,sans-Serif" font-size="10.00" fill="#63b8ff">2</text>
</a>
</g>
</g>
<!-- dir_9b3d1298929a73144e250b15a31d397d -->
<g id="node11" class="node">
<title>dir_9b3d1298929a73144e250b15a31d397d</title>
<g id="a_node11"><a xlink:href="dir_9b3d1298929a73144e250b15a31d397d.html" target="_top" xlink:title="units">
<polygon fill="#edf0f7" stroke="#7f7f7f" points="408.5,-35 367.5,-35 367.5,-16 408.5,-16 408.5,-35"/>
<text text-anchor="middle" x="388" y="-23" font-family="Helvetica,sans-Serif" font-size="10.00">units</text>
</a>
</g>
</g>
<!-- dir_d8be9b0e446dd8c9e5aa09f48fb49f4f&#45;&gt;dir_9b3d1298929a73144e250b15a31d397d -->
<g id="edge14" class="edge">
<title>dir_d8be9b0e446dd8c9e5aa09f48fb49f4f&#45;&gt;dir_9b3d1298929a73144e250b15a31d397d</title>
<g id="a_edge14"><a xlink:href="dir_000036_000054.html" target="_top">
<path fill="none" stroke="#63b8ff" d="M186.51,-70.89C192.52,-68.04 199.44,-65.07 206,-63 268.97,-43.15 289.87,-50.24 357.6,-35.09"/>
<polygon fill="#63b8ff" stroke="#63b8ff" points="358.52,-38.47 367.48,-32.8 356.94,-31.65 358.52,-38.47"/>
</a>
</g>
<g id="a_edge14&#45;headlabel"><a xlink:href="dir_000036_000054.html" target="_top" xlink:title="2">
<text text-anchor="middle" x="355.66" y="-39.55" font-family="Helvetica,sans-Serif" font-size="10.00" fill="#63b8ff">2</text>
</a>
</g>
</g>
<!-- dir_d8be9b0e446dd8c9e5aa09f48fb49f4f&#45;&gt;dir_b6e017bc8c299f04fc1162fc4677be61 -->
<g id="edge15" class="edge">
<title>dir_d8be9b0e446dd8c9e5aa09f48fb49f4f&#45;&gt;dir_b6e017bc8c299f04fc1162fc4677be61</title>
<g id="a_edge15"><a xlink:href="dir_000036_000043.html" target="_top">
<path fill="none" stroke="#63b8ff" d="M187.37,-70.94C193.22,-68.22 199.82,-65.32 206,-63 243.77,-48.8 256.45,-47.84 294.62,-36.58"/>
<polygon fill="#63b8ff" stroke="#63b8ff" points="295.75,-39.9 304.32,-33.67 293.74,-33.2 295.75,-39.9"/>
</a>
</g>
<g id="a_edge15&#45;headlabel"><a xlink:href="dir_000036_000043.html" target="_top" xlink:title="1">
<text text-anchor="middle" x="293.13" y="-41.15" font-family="Helvetica,sans-Serif" font-size="10.00" fill="#63b8ff">1</text>
</a>
</g>
</g>
<!-- dir_d35e9ff41279209263f6c1b8d9281645&#45;&gt;dir_f71deafbc833970927ad1dfabdb805be -->
<g id="edge17" class="edge">
<title>dir_d35e9ff41279209263f6c1b8d9281645&#45;&gt;dir_f71deafbc833970927ad1dfabdb805be</title>
<g id="a_edge17"><a xlink:href="dir_000037_000005.html" target="_top">
<path fill="none" stroke="#63b8ff" d="M52.64,-70.98C61.51,-63.15 74.87,-51.34 85.61,-41.86"/>
<polygon fill="#63b8ff" stroke="#63b8ff" points="88.01,-44.41 93.18,-35.17 83.37,-39.17 88.01,-44.41"/>
</a>
</g>
<g id="a_edge17&#45;headlabel"><a xlink:href="dir_000037_000005.html" target="_top" xlink:title="3">
<text text-anchor="middle" x="87.19" y="-46.42" font-family="Helvetica,sans-Serif" font-size="10.00" fill="#63b8ff">3</text>
</a>
</g>
</g>
<!-- dir_e7b893978f127c9e8ada7b9c99db26af&#45;&gt;dir_f71deafbc833970927ad1dfabdb805be -->
<g id="edge19" class="edge">
<title>dir_e7b893978f127c9e8ada7b9c99db26af&#45;&gt;dir_f71deafbc833970927ad1dfabdb805be</title>
<g id="a_edge19"><a xlink:href="dir_000042_000005.html" target="_top">
<path fill="none" stroke="#63b8ff" d="M103,-70.75C103,-63.8 103,-53.85 103,-45.13"/>
<polygon fill="#63b8ff" stroke="#63b8ff" points="106.5,-45.09 103,-35.09 99.5,-45.09 106.5,-45.09"/>
</a>
</g>
<g id="a_edge19&#45;headlabel"><a xlink:href="dir_000042_000005.html" target="_top" xlink:title="2">
<text text-anchor="middle" x="109.34" y="-46.18" font-family="Helvetica,sans-Serif" font-size="10.00" fill="#63b8ff">2</text>
</a>
</g>
</g>
<!-- dir_e7b893978f127c9e8ada7b9c99db26af&#45;&gt;dir_b6e017bc8c299f04fc1162fc4677be61 -->
<g id="edge18" class="edge">
<title>dir_e7b893978f127c9e8ada7b9c99db26af&#45;&gt;dir_b6e017bc8c299f04fc1162fc4677be61</title>
<g id="a_edge18"><a xlink:href="dir_000042_000043.html" target="_top">
<path fill="none" stroke="#63b8ff" d="M117.24,-70.96C122.64,-68.05 128.95,-65.02 135,-63 202.39,-40.51 225.6,-51.34 294.36,-36.19"/>
<polygon fill="#63b8ff" stroke="#63b8ff" points="295.42,-39.53 304.38,-33.87 293.84,-32.71 295.42,-39.53"/>
</a>
</g>
<g id="a_edge18&#45;headlabel"><a xlink:href="dir_000042_000043.html" target="_top" xlink:title="1">
<text text-anchor="middle" x="292.56" y="-40.61" font-family="Helvetica,sans-Serif" font-size="10.00" fill="#63b8ff">1</text>
</a>
</g>
</g>
</g>
</svg>
