<?xml version="1.0" encoding="UTF-8" standalone="no"?>
<!DOCTYPE svg PUBLIC "-//W3C//DTD SVG 1.1//EN"
 "http://www.w3.org/Graphics/SVG/1.1/DTD/svg11.dtd">
<!-- Generated by graphviz version 2.43.0 (0)
 -->
<!-- Title: transform Pages: 1 -->
<!--zoomable 235 -->

<svg id="main" version="1.1" xmlns="http://www.w3.org/2000/svg" xmlns:xlink="http://www.w3.org/1999/xlink" xml:space="preserve" onload="init(evt)">

<style type="text/css"><![CDATA[
.node, .edge {opacity: 0.7;}
.node.selected, .edge.selected {opacity: 1;}
.edge:hover path { stroke: red; }
.edge:hover polygon { stroke: red; fill: red; }
]]></style>

<defs>
  <circle id="rim" cx="0" cy="0" r="7"/>
  <circle id="rim2" cx="0" cy="0" r="3.5"/>
  <g id="zoomPlus">
    <use xlink:href="#rim" fill="#404040"><set attributeName="fill" to="#808080" begin="zoomplus.mouseover" end="zoomplus.mouseout"/></use>
    <path d="M-4,0h8M0,-4v8" fill="none" stroke="white" stroke-width="1.5" pointer-events="none"/>
  </g>
  <g id="zoomMin">
    <use xlink:href="#rim" fill="#404040"><set attributeName="fill" to="#808080" begin="zoomminus.mouseover" end="zoomminus.mouseout"/></use>
    <path d="M-4,0h8" fill="none" stroke="white" stroke-width="1.5" pointer-events="none"/>
  </g>
  <g id="arrowUp" transform="translate(30 24)">
    <use xlink:href="#rim"/>
    <path pointer-events="none" fill="none" stroke="white" stroke-width="1.5" d="M0,-3.0v7 M-2.5,-0.5L0,-3.0L2.5,-0.5"/>
  </g>
  <g id="arrowRight" transform="rotate(90) translate(36 -43)">
    <use xlink:href="#rim"/>
    <path pointer-events="none" fill="none" stroke="white" stroke-width="1.5" d="M0,-3.0v7 M-2.5,-0.5L0,-3.0L2.5,-0.5"/>
  </g>
  <g id="arrowDown" transform="rotate(180) translate(-30 -48)">
    <use xlink:href="#rim"/>
    <path pointer-events="none" fill="none" stroke="white" stroke-width="1.5" d="M0,-3.0v7 M-2.5,-0.5L0,-3.0L2.5,-0.5"/>
  </g>
  <g id="arrowLeft" transform="rotate(270) translate(-36 17)">
    <use xlink:href="#rim"/>
    <path pointer-events="none" fill="none" stroke="white" stroke-width="1.5" d="M0,-3.0v7 M-2.5,-0.5L0,-3.0L2.5,-0.5"/>
  </g>
  <g id="resetDef">
    <use xlink:href="#rim2" fill="#404040"><set attributeName="fill" to="#808080" begin="reset.mouseover" end="reset.mouseout"/></use>
  </g>
</defs>
<script type="application/ecmascript">
var viewWidth = 590;
var viewHeight = 235;
var sectionId = 'dynsection-0';
</script>
<script type="application/ecmascript" xlink:href="svg.min.js"/>
<svg id="graph" class="graph">
<g id="viewport">
<title>transform</title>
<g id="clust1" class="cluster">
<title>clusterdir_7002044952ee345c222d895bec1a9397</title>
<g id="a_clust1"><a xlink:href="dir_7002044952ee345c222d895bec1a9397.html" target="_top" xlink:title="Spatial data management for game entities.">
<polygon fill="#edf0f7" stroke="#7f7f7f" stroke-dasharray="5,2" points="446.5,-39 446.5,-219 556.5,-219 556.5,-39 446.5,-39"/>
<text text-anchor="middle" x="501.5" y="-207" font-family="Helvetica,sans-Serif" font-size="10.00">spatial</text>
</a>
</g>
</g>
<g id="clust2" class="cluster">
<title>clusterdir_0c3bc48be24448a2d84a4b15107a07a4</title>
<g id="a_clust2"><a xlink:href="dir_0c3bc48be24448a2d84a4b15107a07a4.html" target="_top">
<polygon fill="#edf0f7" stroke="#404040" stroke-width="2" points="454.5,-47 454.5,-192 548.5,-192 548.5,-47 454.5,-47"/>
</a>
</g>
</g>
<!-- dir_0c3bc48be24448a2d84a4b15107a07a4 -->
<g id="node1" class="node">
<title>dir_0c3bc48be24448a2d84a4b15107a07a4</title>
<text text-anchor="middle" x="495.5" y="-172" font-family="Helvetica,sans-Serif" font-size="10.00">transform</text>
</g>
<!-- dir_1685c3c5653b0858dee9d5ac96d20860 -->
<g id="node2" class="node">
<title>dir_1685c3c5653b0858dee9d5ac96d20860</title>
<g id="a_node2"><a xlink:href="dir_1685c3c5653b0858dee9d5ac96d20860.html" target="_top" xlink:title="components">
<polygon fill="#a2b4d6" stroke="#404040" points="540,-74 463,-74 463,-55 540,-55 540,-74"/>
<text text-anchor="middle" x="501.5" y="-62" font-family="Helvetica,sans-Serif" font-size="10.00">components</text>
</a>
</g>
</g>
<!-- dir_0c3bc48be24448a2d84a4b15107a07a4&#45;&gt;dir_1685c3c5653b0858dee9d5ac96d20860 -->
<g id="edge1" class="edge">
<title>dir_0c3bc48be24448a2d84a4b15107a07a4&#45;&gt;dir_1685c3c5653b0858dee9d5ac96d20860</title>
<g id="a_edge1"><a xlink:href="dir_000127_000033.html" target="_top">
<path fill="none" stroke="#63b8ff" d="M505.11,-164.69C513.37,-156.41 524.7,-143.18 529.5,-129 535.02,-112.68 525.64,-94.78 516.28,-82.15"/>
<polygon fill="#63b8ff" stroke="#63b8ff" points="518.98,-79.93 509.98,-74.34 513.53,-84.33 518.98,-79.93"/>
</a>
</g>
<g id="a_edge1&#45;headlabel"><a xlink:href="dir_000127_000033.html" target="_top" xlink:title="9">
<text text-anchor="middle" x="523.45" y="-78.45" font-family="Helvetica,sans-Serif" font-size="10.00" fill="#63b8ff">9</text>
</a>
</g>
</g>
<!-- dir_f7a0f00f7be45cfd606bdad488d1ee82 -->
<g id="node3" class="node">
<title>dir_f7a0f00f7be45cfd606bdad488d1ee82</title>
<g id="a_node3"><a xlink:href="dir_f7a0f00f7be45cfd606bdad488d1ee82.html" target="_top" xlink:title="systems">
<polygon fill="#a2b4d6" stroke="#404040" points="520.5,-129 462.5,-129 462.5,-110 520.5,-110 520.5,-129"/>
<text text-anchor="middle" x="491.5" y="-117" font-family="Helvetica,sans-Serif" font-size="10.00">systems</text>
</a>
</g>
</g>
<!-- dir_0c3bc48be24448a2d84a4b15107a07a4&#45;&gt;dir_f7a0f00f7be45cfd606bdad488d1ee82 -->
<g id="edge3" class="edge">
<title>dir_0c3bc48be24448a2d84a4b15107a07a4&#45;&gt;dir_f7a0f00f7be45cfd606bdad488d1ee82</title>
<g id="a_edge3"><a xlink:href="dir_000127_000118.html" target="_top">
<path fill="none" stroke="#63b8ff" d="M494.84,-164.75C494.32,-157.8 493.56,-147.85 492.91,-139.13"/>
<polygon fill="#63b8ff" stroke="#63b8ff" points="496.39,-138.8 492.15,-129.09 489.41,-139.32 496.39,-138.8"/>
</a>
</g>
<g id="a_edge3&#45;headlabel"><a xlink:href="dir_000127_000118.html" target="_top" xlink:title="1">
<text text-anchor="middle" x="499.49" y="-139.67" font-family="Helvetica,sans-Serif" font-size="10.00" fill="#63b8ff">1</text>
</a>
</g>
</g>
<!-- dir_1ca916e0b9fbc882dbfbd9e6594e5e22 -->
<g id="node4" class="node">
<title>dir_1ca916e0b9fbc882dbfbd9e6594e5e22</title>
<g id="a_node4"><a xlink:href="dir_1ca916e0b9fbc882dbfbd9e6594e5e22.html" target="_top" xlink:title="ecs">
<polygon fill="#edf0f7" stroke="#7f7f7f" points="33,-19 0,-19 0,0 33,0 33,-19"/>
<text text-anchor="middle" x="16.5" y="-7" font-family="Helvetica,sans-Serif" font-size="10.00">ecs</text>
</a>
</g>
</g>
<!-- dir_0c3bc48be24448a2d84a4b15107a07a4&#45;&gt;dir_1ca916e0b9fbc882dbfbd9e6594e5e22 -->
<g id="edge2" class="edge">
<title>dir_0c3bc48be24448a2d84a4b15107a07a4&#45;&gt;dir_1ca916e0b9fbc882dbfbd9e6594e5e22</title>
<g id="a_edge2"><a xlink:href="dir_000127_000047.html" target="_top">
<path fill="none" stroke="#63b8ff" d="M462.72,-171.26C366.35,-163.99 86.93,-137.71 26.5,-74 15.35,-62.24 13.63,-43.4 14.23,-29.29"/>
<polygon fill="#63b8ff" stroke="#63b8ff" points="17.73,-29.46 15.07,-19.21 10.75,-28.88 17.73,-29.46"/>
</a>
</g>
<g id="a_edge2&#45;headlabel"><a xlink:href="dir_000127_000047.html" target="_top" xlink:title="6">
<text text-anchor="middle" x="20.26" y="-30.78" font-family="Helvetica,sans-Serif" font-size="10.00" fill="#63b8ff">6</text>
</a>
</g>
</g>
<!-- dir_1685c3c5653b0858dee9d5ac96d20860&#45;&gt;dir_1ca916e0b9fbc882dbfbd9e6594e5e22 -->
<g id="edge4" class="edge">
<title>dir_1685c3c5653b0858dee9d5ac96d20860&#45;&gt;dir_1ca916e0b9fbc882dbfbd9e6594e5e22</title>
<g id="a_edge4"><a xlink:href="dir_000033_000047.html" target="_top">
<path fill="none" stroke="#63b8ff" d="M486.44,-54.89C475.89,-49.31 461.28,-42.46 447.5,-39 408.44,-29.19 131.46,-15.78 43.35,-11.71"/>
<polygon fill="#63b8ff" stroke="#63b8ff" points="43.26,-8.21 33.11,-11.25 42.94,-15.2 43.26,-8.21"/>
</a>
</g>
<g id="a_edge4&#45;headlabel"><a xlink:href="dir_000033_000047.html" target="_top" xlink:title="1">
<text text-anchor="middle" x="46.98" y="-3.03" font-family="Helvetica,sans-Serif" font-size="10.00" fill="#63b8ff">1</text>
</a>
</g>
</g>
<!-- dir_268add6b94670641c68bb834cdcb4292 -->
<g id="node5" class="node">
<title>dir_268add6b94670641c68bb834cdcb4292</title>
<g id="a_node5"><a xlink:href="dir_268add6b94670641c68bb834cdcb4292.html" target="_top" xlink:title="math">
<polygon fill="#edf0f7" stroke="red" stroke-dasharray="5,2" points="279.5,-19 237.5,-19 237.5,0 279.5,0 279.5,-19"/>
<text text-anchor="middle" x="258.5" y="-7" font-family="Helvetica,sans-Serif" font-size="10.00">math</text>
</a>
</g>
</g>
<!-- dir_1685c3c5653b0858dee9d5ac96d20860&#45;&gt;dir_268add6b94670641c68bb834cdcb4292 -->
<g id="edge5" class="edge">
<title>dir_1685c3c5653b0858dee9d5ac96d20860&#45;&gt;dir_268add6b94670641c68bb834cdcb4292</title>
<g id="a_edge5"><a xlink:href="dir_000033_000076.html" target="_top">
<path fill="none" stroke="#63b8ff" d="M485.41,-54.78C474.9,-49.44 460.73,-42.92 447.5,-39 393.49,-23.01 328.01,-15.7 290.02,-12.58"/>
<polygon fill="#63b8ff" stroke="#63b8ff" points="289.85,-9.06 279.61,-11.78 289.31,-16.04 289.85,-9.06"/>
</a>
</g>
<g id="a_edge5&#45;headlabel"><a xlink:href="dir_000033_000076.html" target="_top" xlink:title="4">
<text text-anchor="middle" x="293.65" y="-4" font-family="Helvetica,sans-Serif" font-size="10.00" fill="#63b8ff">4</text>
</a>
</g>
</g>
<!-- dir_4e12247f2bbe360a59cd98a83515e8f1 -->
<g id="node6" class="node">
<title>dir_4e12247f2bbe360a59cd98a83515e8f1</title>
<g id="a_node6"><a xlink:href="dir_4e12247f2bbe360a59cd98a83515e8f1.html" target="_top" xlink:title="core">
<polygon fill="#edf0f7" stroke="red" stroke-dasharray="5,2" points="520.5,-19 482.5,-19 482.5,0 520.5,0 520.5,-19"/>
<text text-anchor="middle" x="501.5" y="-7" font-family="Helvetica,sans-Serif" font-size="10.00">core</text>
</a>
</g>
</g>
<!-- dir_1685c3c5653b0858dee9d5ac96d20860&#45;&gt;dir_4e12247f2bbe360a59cd98a83515e8f1 -->
<g id="edge6" class="edge">
<title>dir_1685c3c5653b0858dee9d5ac96d20860&#45;&gt;dir_4e12247f2bbe360a59cd98a83515e8f1</title>
<g id="a_edge6"><a xlink:href="dir_000033_000040.html" target="_top">
<path fill="none" stroke="#63b8ff" d="M501.5,-54.75C501.5,-47.8 501.5,-37.85 501.5,-29.13"/>
<polygon fill="#63b8ff" stroke="#63b8ff" points="505,-29.09 501.5,-19.09 498,-29.09 505,-29.09"/>
</a>
</g>
<g id="a_edge6&#45;headlabel"><a xlink:href="dir_000033_000040.html" target="_top" xlink:title="2">
<text text-anchor="middle" x="507.84" y="-30.18" font-family="Helvetica,sans-Serif" font-size="10.00" fill="#63b8ff">2</text>
</a>
</g>
</g>
<!-- dir_5a58a2ffe8660a7fc51fed7e0c7c898d -->
<g id="node7" class="node">
<title>dir_5a58a2ffe8660a7fc51fed7e0c7c898d</title>
<g id="a_node7"><a xlink:href="dir_5a58a2ffe8660a7fc51fed7e0c7c898d.html" target="_top" xlink:title="core">
<polygon fill="#edf0f7" stroke="red" stroke-dasharray="5,2" points="581.5,-19 543.5,-19 543.5,0 581.5,0 581.5,-19"/>
<text text-anchor="middle" x="562.5" y="-7" font-family="Helvetica,sans-Serif" font-size="10.00">core</text>
</a>
</g>
</g>
<!-- dir_1685c3c5653b0858dee9d5ac96d20860&#45;&gt;dir_5a58a2ffe8660a7fc51fed7e0c7c898d -->
<g id="edge7" class="edge">
<title>dir_1685c3c5653b0858dee9d5ac96d20860&#45;&gt;dir_5a58a2ffe8660a7fc51fed7e0c7c898d</title>
<g id="a_edge7"><a xlink:href="dir_000033_000041.html" target="_top">
<path fill="none" stroke="#63b8ff" d="M511.3,-54.98C520.32,-47.15 533.91,-35.34 544.82,-25.86"/>
<polygon fill="#63b8ff" stroke="#63b8ff" points="547.27,-28.37 552.52,-19.17 542.68,-23.09 547.27,-28.37"/>
</a>
</g>
<g id="a_edge7&#45;headlabel"><a xlink:href="dir_000033_000041.html" target="_top" xlink:title="1">
<text text-anchor="middle" x="546.42" y="-30.37" font-family="Helvetica,sans-Serif" font-size="10.00" fill="#63b8ff">1</text>
</a>
</g>
</g>
<!-- dir_f7a0f00f7be45cfd606bdad488d1ee82&#45;&gt;dir_1685c3c5653b0858dee9d5ac96d20860 -->
<g id="edge8" class="edge">
<title>dir_f7a0f00f7be45cfd606bdad488d1ee82&#45;&gt;dir_1685c3c5653b0858dee9d5ac96d20860</title>
<g id="a_edge8"><a xlink:href="dir_000118_000033.html" target="_top">
<path fill="none" stroke="#63b8ff" d="M493.15,-109.75C494.46,-102.8 496.34,-92.85 497.98,-84.13"/>
<polygon fill="#63b8ff" stroke="#63b8ff" points="501.46,-84.56 499.88,-74.09 494.59,-83.27 501.46,-84.56"/>
</a>
</g>
<g id="a_edge8&#45;headlabel"><a xlink:href="dir_000118_000033.html" target="_top" xlink:title="7">
<text text-anchor="middle" x="503.59" y="-86.12" font-family="Helvetica,sans-Serif" font-size="10.00" fill="#63b8ff">7</text>
</a>
</g>
</g>
<!-- dir_f7a0f00f7be45cfd606bdad488d1ee82&#45;&gt;dir_1ca916e0b9fbc882dbfbd9e6594e5e22 -->
<g id="edge9" class="edge">
<title>dir_f7a0f00f7be45cfd606bdad488d1ee82&#45;&gt;dir_1ca916e0b9fbc882dbfbd9e6594e5e22</title>
<g id="a_edge9"><a xlink:href="dir_000118_000047.html" target="_top">
<path fill="none" stroke="#63b8ff" d="M462.43,-118.52C377.4,-118.11 130.83,-113.45 62.5,-74 44.68,-63.71 31.87,-43.44 24.36,-28.56"/>
<polygon fill="#63b8ff" stroke="#63b8ff" points="27.44,-26.87 20.02,-19.31 21.1,-29.85 27.44,-26.87"/>
</a>
</g>
<g id="a_edge9&#45;headlabel"><a xlink:href="dir_000118_000047.html" target="_top" xlink:title="4">
<text text-anchor="middle" x="31.54" y="-26.42" font-family="Helvetica,sans-Serif" font-size="10.00" fill="#63b8ff">4</text>
</a>
</g>
</g>
<!-- dir_f7a0f00f7be45cfd606bdad488d1ee82&#45;&gt;dir_268add6b94670641c68bb834cdcb4292 -->
<g id="edge10" class="edge">
<title>dir_f7a0f00f7be45cfd606bdad488d1ee82&#45;&gt;dir_268add6b94670641c68bb834cdcb4292</title>
<g id="a_edge10"><a xlink:href="dir_000118_000076.html" target="_top">
<path fill="none" stroke="#63b8ff" d="M462.28,-117.6C371.6,-114.51 99.48,-102.9 73.5,-74 63.1,-62.43 63.37,-50.81 73.5,-39 92.92,-16.35 179.65,-11.53 227.15,-10.62"/>
<polygon fill="#63b8ff" stroke="#63b8ff" points="227.26,-14.11 237.21,-10.47 227.16,-7.12 227.26,-14.11"/>
</a>
</g>
<g id="a_edge10&#45;headlabel"><a xlink:href="dir_000118_000076.html" target="_top" xlink:title="2">
<text text-anchor="middle" x="223.71" y="-14.51" font-family="Helvetica,sans-Serif" font-size="10.00" fill="#63b8ff">2</text>
</a>
</g>
</g>
<!-- dir_f7a0f00f7be45cfd606bdad488d1ee82&#45;&gt;dir_5a58a2ffe8660a7fc51fed7e0c7c898d -->
<g id="edge11" class="edge">
<title>dir_f7a0f00f7be45cfd606bdad488d1ee82&#45;&gt;dir_5a58a2ffe8660a7fc51fed7e0c7c898d</title>
<g id="a_edge11"><a xlink:href="dir_000118_000041.html" target="_top">
<path fill="none" stroke="#63b8ff" d="M508.44,-109.92C521.71,-102.31 539.54,-89.92 549.5,-74 557.81,-60.72 560.93,-43.1 562.04,-29.8"/>
<polygon fill="#63b8ff" stroke="#63b8ff" points="565.56,-29.6 562.58,-19.43 558.57,-29.23 565.56,-29.6"/>
</a>
</g>
<g id="a_edge11&#45;headlabel"><a xlink:href="dir_000118_000041.html" target="_top" xlink:title="1">
<text text-anchor="middle" x="568.2" y="-30.83" font-family="Helvetica,sans-Serif" font-size="10.00" fill="#63b8ff">1</text>
</a>
</g>
</g>
<!-- dir_656b8020a7b0aa8521ec0615ad91cdfe -->
<g id="node8" class="node">
<title>dir_656b8020a7b0aa8521ec0615ad91cdfe</title>
<g id="a_node8"><a xlink:href="dir_656b8020a7b0aa8521ec0615ad91cdfe.html" target="_top" xlink:title="scene">
<polygon fill="#edf0f7" stroke="red" stroke-dasharray="5,2" points="128,-74 83,-74 83,-55 128,-55 128,-74"/>
<text text-anchor="middle" x="105.5" y="-62" font-family="Helvetica,sans-Serif" font-size="10.00">scene</text>
</a>
</g>
</g>
<!-- dir_f7a0f00f7be45cfd606bdad488d1ee82&#45;&gt;dir_656b8020a7b0aa8521ec0615ad91cdfe -->
<g id="edge12" class="edge">
<title>dir_f7a0f00f7be45cfd606bdad488d1ee82&#45;&gt;dir_656b8020a7b0aa8521ec0615ad91cdfe</title>
<g id="a_edge12"><a xlink:href="dir_000118_000094.html" target="_top">
<path fill="none" stroke="#63b8ff" d="M462.28,-116.26C402.91,-111.41 263.81,-98.49 138.27,-74.1"/>
<polygon fill="#63b8ff" stroke="#63b8ff" points="138.59,-70.6 128.1,-72.1 137.23,-77.47 138.59,-70.6"/>
</a>
</g>
<g id="a_edge12&#45;headlabel"><a xlink:href="dir_000118_000094.html" target="_top" xlink:title="1">
<text text-anchor="middle" x="142.66" y="-66.01" font-family="Helvetica,sans-Serif" font-size="10.00" fill="#63b8ff">1</text>
</a>
</g>
</g>
<!-- dir_bb685b75eb98702a3ab447756cde824e -->
<g id="node9" class="node">
<title>dir_bb685b75eb98702a3ab447756cde824e</title>
<g id="a_node9"><a xlink:href="dir_bb685b75eb98702a3ab447756cde824e.html" target="_top" xlink:title="rendering">
<polygon fill="#edf0f7" stroke="red" stroke-dasharray="5,2" points="209,-74 146,-74 146,-55 209,-55 209,-74"/>
<text text-anchor="middle" x="177.5" y="-62" font-family="Helvetica,sans-Serif" font-size="10.00">rendering</text>
</a>
</g>
</g>
<!-- dir_f7a0f00f7be45cfd606bdad488d1ee82&#45;&gt;dir_bb685b75eb98702a3ab447756cde824e -->
<g id="edge13" class="edge">
<title>dir_f7a0f00f7be45cfd606bdad488d1ee82&#45;&gt;dir_bb685b75eb98702a3ab447756cde824e</title>
<g id="a_edge13"><a xlink:href="dir_000118_000091.html" target="_top">
<path fill="none" stroke="#63b8ff" d="M462.22,-114.22C413.73,-107.03 313.48,-91.73 219.32,-74.27"/>
<polygon fill="#63b8ff" stroke="#63b8ff" points="219.82,-70.81 209.35,-72.41 218.54,-77.69 219.82,-70.81"/>
</a>
</g>
<g id="a_edge13&#45;headlabel"><a xlink:href="dir_000118_000091.html" target="_top" xlink:title="1">
<text text-anchor="middle" x="223.88" y="-66.18" font-family="Helvetica,sans-Serif" font-size="10.00" fill="#63b8ff">1</text>
</a>
</g>
</g>
<!-- dir_e1a38fd6dc0543c7f97fb1ccf1615de7 -->
<g id="node10" class="node">
<title>dir_e1a38fd6dc0543c7f97fb1ccf1615de7</title>
<g id="a_node10"><a xlink:href="dir_e1a38fd6dc0543c7f97fb1ccf1615de7.html" target="_top" xlink:title="mechanics">
<polygon fill="#edf0f7" stroke="red" stroke-dasharray="5,2" points="296,-74 227,-74 227,-55 296,-55 296,-74"/>
<text text-anchor="middle" x="261.5" y="-62" font-family="Helvetica,sans-Serif" font-size="10.00">mechanics</text>
</a>
</g>
</g>
<!-- dir_f7a0f00f7be45cfd606bdad488d1ee82&#45;&gt;dir_e1a38fd6dc0543c7f97fb1ccf1615de7 -->
<g id="edge14" class="edge">
<title>dir_f7a0f00f7be45cfd606bdad488d1ee82&#45;&gt;dir_e1a38fd6dc0543c7f97fb1ccf1615de7</title>
<g id="a_edge14"><a xlink:href="dir_000118_000077.html" target="_top">
<path fill="none" stroke="#63b8ff" d="M462.37,-111.79C422.93,-102.7 352.17,-86.39 306.03,-75.76"/>
<polygon fill="#63b8ff" stroke="#63b8ff" points="306.54,-72.29 296.01,-73.45 304.97,-79.11 306.54,-72.29"/>
</a>
</g>
<g id="a_edge14&#45;headlabel"><a xlink:href="dir_000118_000077.html" target="_top" xlink:title="3">
<text text-anchor="middle" x="310.68" y="-67.83" font-family="Helvetica,sans-Serif" font-size="10.00" fill="#63b8ff">3</text>
</a>
</g>
</g>
<!-- dir_fd91d9fbf4fc30cc243fc516fdaf4755 -->
<g id="node11" class="node">
<title>dir_fd91d9fbf4fc30cc243fc516fdaf4755</title>
<g id="a_node11"><a xlink:href="dir_fd91d9fbf4fc30cc243fc516fdaf4755.html" target="_top" xlink:title="effects">
<polygon fill="#edf0f7" stroke="red" stroke-dasharray="5,2" points="364.5,-74 314.5,-74 314.5,-55 364.5,-55 364.5,-74"/>
<text text-anchor="middle" x="339.5" y="-62" font-family="Helvetica,sans-Serif" font-size="10.00">effects</text>
</a>
</g>
</g>
<!-- dir_f7a0f00f7be45cfd606bdad488d1ee82&#45;&gt;dir_fd91d9fbf4fc30cc243fc516fdaf4755 -->
<g id="edge15" class="edge">
<title>dir_f7a0f00f7be45cfd606bdad488d1ee82&#45;&gt;dir_fd91d9fbf4fc30cc243fc516fdaf4755</title>
<g id="a_edge15"><a xlink:href="dir_000118_000048.html" target="_top">
<path fill="none" stroke="#63b8ff" d="M467.08,-109.98C441.78,-101.16 402.05,-87.31 373.64,-77.41"/>
<polygon fill="#63b8ff" stroke="#63b8ff" points="374.71,-74.07 364.11,-74.08 372.4,-80.68 374.71,-74.07"/>
</a>
</g>
<g id="a_edge15&#45;headlabel"><a xlink:href="dir_000118_000048.html" target="_top" xlink:title="1">
<text text-anchor="middle" x="379.04" y="-70.07" font-family="Helvetica,sans-Serif" font-size="10.00" fill="#63b8ff">1</text>
</a>
</g>
</g>
<!-- dir_fff8ef54a646d9df8d7b15d27474569f -->
<g id="node12" class="node">
<title>dir_fff8ef54a646d9df8d7b15d27474569f</title>
<g id="a_node12"><a xlink:href="dir_fff8ef54a646d9df8d7b15d27474569f.html" target="_top" xlink:title="runtime">
<polygon fill="#edf0f7" stroke="red" stroke-dasharray="5,2" points="438,-74 383,-74 383,-55 438,-55 438,-74"/>
<text text-anchor="middle" x="410.5" y="-62" font-family="Helvetica,sans-Serif" font-size="10.00">runtime</text>
</a>
</g>
</g>
<!-- dir_f7a0f00f7be45cfd606bdad488d1ee82&#45;&gt;dir_fff8ef54a646d9df8d7b15d27474569f -->
<g id="edge16" class="edge">
<title>dir_f7a0f00f7be45cfd606bdad488d1ee82&#45;&gt;dir_fff8ef54a646d9df8d7b15d27474569f</title>
<g id="a_edge16"><a xlink:href="dir_000118_000093.html" target="_top">
<path fill="none" stroke="#63b8ff" d="M478.49,-109.98C466.04,-101.84 447.04,-89.41 432.29,-79.76"/>
<polygon fill="#63b8ff" stroke="#63b8ff" points="434.04,-76.72 423.75,-74.17 430.2,-82.57 434.04,-76.72"/>
</a>
</g>
<g id="a_edge16&#45;headlabel"><a xlink:href="dir_000118_000093.html" target="_top" xlink:title="6">
<text text-anchor="middle" x="438.6" y="-73.81" font-family="Helvetica,sans-Serif" font-size="10.00" fill="#63b8ff">6</text>
</a>
</g>
</g>
</g>
</svg>

<g id="navigator" transform="translate(0 0)" fill="#404254">
  <rect fill="#f2f5e9" fill-opacity="0.5" stroke="#606060" stroke-width=".5" x="0" y="0" width="60" height="60"/>
  <use id="zoomplus" xlink:href="#zoomPlus" x="17" y="9" onmousedown="handleZoom(evt,'in')"/>
  <use id="zoomminus" xlink:href="#zoomMin" x="42" y="9" onmousedown="handleZoom(evt,'out')"/>
  <use id="reset" xlink:href="#resetDef" x="30" y="36" onmousedown="handleReset()"/>
   <use id="arrowup" xlink:href="#arrowUp" x="0" y="0" onmousedown="handlePan(0,-1)"/>
  <use id="arrowright" xlink:href="#arrowRight" x="0" y="0" onmousedown="handlePan(1,0)"/>
  <use id="arrowdown" xlink:href="#arrowDown" x="0" y="0" onmousedown="handlePan(0,1)"/>
  <use id="arrowleft" xlink:href="#arrowLeft" x="0" y="0" onmousedown="handlePan(-1,0)"/>
</g>
<svg viewBox="0 0 15 15" width="100%" height="30px" preserveAspectRatio="xMaxYMin meet">
 <g id="arrow_out" transform="scale(0.3 0.3)">
  <a xlink:href="dir_0c3bc48be24448a2d84a4b15107a07a4_dep_org.svg" target="_base">
   <rect id="button" ry="5" rx="5" y="6" x="6" height="38" width="38"
        fill="#f2f5e9" fill-opacity="0.5" stroke="#606060" stroke-width="1.0"/>
   <path id="arrow"
     d="M 11.500037,31.436501 C 11.940474,20.09759 22.043105,11.32322 32.158766,21.979434 L 37.068811,17.246167 C 37.068811,17.246167 37.088388,32 37.088388,32 L 22.160133,31.978069 C 22.160133,31.978069 26.997745,27.140456 26.997745,27.140456 C 18.528582,18.264221 13.291696,25.230495 11.500037,31.436501 z"
     style="fill:#404040;"/>
  </a>
 </g>
</svg>

<style type='text/css'>
<![CDATA[
[data-mouse-over-selected='false'] { opacity: 0.7; }
[data-mouse-over-selected='true']  { opacity: 1.0; }
]]>
</style>
<script type="application/ecmascript"><![CDATA[
document.addEventListener('DOMContentLoaded', (event) => {
  highlightEdges();
  highlightAdjacentNodes();
});
]]></script>
</svg>
