<?xml version="1.0" encoding="UTF-8" standalone="no"?>
<!DOCTYPE svg PUBLIC "-//W3C//DTD SVG 1.1//EN"
 "http://www.w3.org/Graphics/SVG/1.1/DTD/svg11.dtd">
<!-- Generated by graphviz version 2.43.0 (0)
 -->
<!-- Title: include/helios/engine/modules/physics Pages: 1 -->
<svg width="616pt" height="251pt"
 viewBox="0.00 0.00 615.50 251.00" xmlns="http://www.w3.org/2000/svg" xmlns:xlink="http://www.w3.org/1999/xlink">
<g id="graph0" class="graph" transform="scale(1 1) rotate(0) translate(4 247)">
<title>include/helios/engine/modules/physics</title>
<g id="clust1" class="cluster">
<title>clusterdir_0b25300d10cd1aefe5f6cbf740a7fedf</title>
<g id="a_clust1"><a xlink:href="dir_0b25300d10cd1aefe5f6cbf740a7fedf.html" target="_top" xlink:title="modules">
<polygon fill="#edf0f7" stroke="#7f7f7f" stroke-dasharray="5,2" points="8,-8 8,-235 206,-235 206,-8 8,-8"/>
<text text-anchor="middle" x="107" y="-223" font-family="Helvetica,sans-Serif" font-size="10.00">modules</text>
</a>
</g>
</g>
<g id="clust2" class="cluster">
<title>clusterdir_4cf3e568933a39133476fd0cdd0720ad</title>
<g id="a_clust2"><a xlink:href="dir_4cf3e568933a39133476fd0cdd0720ad.html" target="_top">
<polygon fill="#edf0f7" stroke="#404040" stroke-width="2" points="104,-63 104,-208 198,-208 198,-63 104,-63"/>
</a>
</g>
</g>
<!-- dir_9901a41432e1411a521c23d6f490a264 -->
<g id="node1" class="node">
<title>dir_9901a41432e1411a521c23d6f490a264</title>
<g id="a_node1"><a xlink:href="dir_9901a41432e1411a521c23d6f490a264.html" target="_top" xlink:title="scene">
<polygon fill="#a2b4d6" stroke="red" points="120.5,-35 75.5,-35 75.5,-16 120.5,-16 120.5,-35"/>
<text text-anchor="middle" x="98" y="-23" font-family="Helvetica,sans-Serif" font-size="10.00">scene</text>
</a>
</g>
</g>
<!-- dir_616630fd0adec1772873768e31678ae7 -->
<g id="node2" class="node">
<title>dir_616630fd0adec1772873768e31678ae7</title>
<g id="a_node2"><a xlink:href="dir_616630fd0adec1772873768e31678ae7.html" target="_top" xlink:title="rendering">
<polygon fill="#a2b4d6" stroke="red" points="79.5,-90 16.5,-90 16.5,-71 79.5,-71 79.5,-90"/>
<text text-anchor="middle" x="48" y="-78" font-family="Helvetica,sans-Serif" font-size="10.00">rendering</text>
</a>
</g>
</g>
<!-- dir_40a07d66e7fedbdef195364f73b9e6a6 -->
<g id="node3" class="node">
<title>dir_40a07d66e7fedbdef195364f73b9e6a6</title>
<g id="a_node3"><a xlink:href="dir_40a07d66e7fedbdef195364f73b9e6a6.html" target="_top" xlink:title="Spatial data management for game entities.">
<polygon fill="#a2b4d6" stroke="red" points="189,-35 139,-35 139,-16 189,-16 189,-35"/>
<text text-anchor="middle" x="164" y="-23" font-family="Helvetica,sans-Serif" font-size="10.00">spatial</text>
</a>
</g>
</g>
<!-- dir_4cf3e568933a39133476fd0cdd0720ad -->
<g id="node4" class="node">
<title>dir_4cf3e568933a39133476fd0cdd0720ad</title>
<text text-anchor="middle" x="150" y="-188" font-family="Helvetica,sans-Serif" font-size="10.00">physics</text>
</g>
<!-- dir_76d267a04bc326793b7e59f3c1dbdf93 -->
<g id="node5" class="node">
<title>dir_76d267a04bc326793b7e59f3c1dbdf93</title>
<g id="a_node5"><a xlink:href="dir_76d267a04bc326793b7e59f3c1dbdf93.html" target="_top" xlink:title="Collision detection components, events, and systems.">
<polygon fill="#a2b4d6" stroke="#404040" points="189.5,-145 132.5,-145 132.5,-126 189.5,-126 189.5,-145"/>
<text text-anchor="middle" x="161" y="-133" font-family="Helvetica,sans-Serif" font-size="10.00">collision</text>
</a>
</g>
</g>
<!-- dir_4cf3e568933a39133476fd0cdd0720ad&#45;&gt;dir_76d267a04bc326793b7e59f3c1dbdf93 -->
<g id="edge1" class="edge">
<title>dir_4cf3e568933a39133476fd0cdd0720ad&#45;&gt;dir_76d267a04bc326793b7e59f3c1dbdf93</title>
<g id="a_edge1"><a xlink:href="dir_000062_000008.html" target="_top">
<path fill="none" stroke="#63b8ff" d="M151.82,-180.75C153.26,-173.8 155.32,-163.85 157.13,-155.13"/>
<polygon fill="#63b8ff" stroke="#63b8ff" points="160.61,-155.59 159.22,-145.09 153.76,-154.17 160.61,-155.59"/>
</a>
</g>
<g id="a_edge1&#45;headlabel"><a xlink:href="dir_000062_000008.html" target="_top" xlink:title="18">
<text text-anchor="middle" x="162.66" y="-157.19" font-family="Helvetica,sans-Serif" font-size="10.00" fill="#63b8ff">18</text>
</a>
</g>
</g>
<!-- dir_ad3e739cbc5e81514c03c7a8b77a9a7c -->
<g id="node6" class="node">
<title>dir_ad3e739cbc5e81514c03c7a8b77a9a7c</title>
<g id="a_node6"><a xlink:href="dir_ad3e739cbc5e81514c03c7a8b77a9a7c.html" target="_top" xlink:title="motion">
<polygon fill="#a2b4d6" stroke="#404040" points="189.5,-90 138.5,-90 138.5,-71 189.5,-71 189.5,-90"/>
<text text-anchor="middle" x="164" y="-78" font-family="Helvetica,sans-Serif" font-size="10.00">motion</text>
</a>
</g>
</g>
<!-- dir_4cf3e568933a39133476fd0cdd0720ad&#45;&gt;dir_ad3e739cbc5e81514c03c7a8b77a9a7c -->
<g id="edge2" class="edge">
<title>dir_4cf3e568933a39133476fd0cdd0720ad&#45;&gt;dir_ad3e739cbc5e81514c03c7a8b77a9a7c</title>
<g id="a_edge2"><a xlink:href="dir_000062_000060.html" target="_top">
<path fill="none" stroke="#63b8ff" d="M141.85,-180.94C131.33,-168.8 115.24,-145.86 123,-126 127.4,-114.73 136.14,-104.59 144.43,-96.85"/>
<polygon fill="#63b8ff" stroke="#63b8ff" points="146.82,-99.4 152.07,-90.2 142.23,-94.12 146.82,-99.4"/>
</a>
</g>
<g id="a_edge2&#45;headlabel"><a xlink:href="dir_000062_000060.html" target="_top" xlink:title="15">
<text text-anchor="middle" x="145.97" y="-101.4" font-family="Helvetica,sans-Serif" font-size="10.00" fill="#63b8ff">15</text>
</a>
</g>
</g>
<!-- dir_76d267a04bc326793b7e59f3c1dbdf93&#45;&gt;dir_9901a41432e1411a521c23d6f490a264 -->
<g id="edge9" class="edge">
<title>dir_76d267a04bc326793b7e59f3c1dbdf93&#45;&gt;dir_9901a41432e1411a521c23d6f490a264</title>
<g id="a_edge9"><a xlink:href="dir_000008_000073.html" target="_top">
<path fill="none" stroke="#63b8ff" d="M151.57,-125.72C142.92,-117.26 130.25,-103.74 122,-90 113.47,-75.79 107.07,-58.03 103.03,-44.91"/>
<polygon fill="#63b8ff" stroke="#63b8ff" points="106.35,-43.79 100.2,-35.16 99.63,-45.74 106.35,-43.79"/>
</a>
</g>
<g id="a_edge9&#45;headlabel"><a xlink:href="dir_000008_000073.html" target="_top" xlink:title="1">
<text text-anchor="middle" x="110.08" y="-43.95" font-family="Helvetica,sans-Serif" font-size="10.00" fill="#63b8ff">1</text>
</a>
</g>
</g>
<!-- dir_76d267a04bc326793b7e59f3c1dbdf93&#45;&gt;dir_616630fd0adec1772873768e31678ae7 -->
<g id="edge6" class="edge">
<title>dir_76d267a04bc326793b7e59f3c1dbdf93&#45;&gt;dir_616630fd0adec1772873768e31678ae7</title>
<g id="a_edge6"><a xlink:href="dir_000008_000069.html" target="_top">
<path fill="none" stroke="#63b8ff" d="M142.84,-125.98C124.75,-117.5 96.72,-104.35 75.81,-94.54"/>
<polygon fill="#63b8ff" stroke="#63b8ff" points="77.03,-91.25 66.49,-90.17 74.05,-97.59 77.03,-91.25"/>
</a>
</g>
<g id="a_edge6&#45;headlabel"><a xlink:href="dir_000008_000069.html" target="_top" xlink:title="1">
<text text-anchor="middle" x="81.49" y="-87.7" font-family="Helvetica,sans-Serif" font-size="10.00" fill="#63b8ff">1</text>
</a>
</g>
</g>
<!-- dir_76d267a04bc326793b7e59f3c1dbdf93&#45;&gt;dir_40a07d66e7fedbdef195364f73b9e6a6 -->
<g id="edge7" class="edge">
<title>dir_76d267a04bc326793b7e59f3c1dbdf93&#45;&gt;dir_40a07d66e7fedbdef195364f73b9e6a6</title>
<g id="a_edge7"><a xlink:href="dir_000008_000080.html" target="_top">
<path fill="none" stroke="#63b8ff" d="M152.25,-125.9C144.44,-117.56 133.55,-104.13 129,-90 125.32,-78.58 124.52,-74.13 129,-63 132.22,-54.98 138.14,-47.73 144.21,-41.85"/>
<polygon fill="#63b8ff" stroke="#63b8ff" points="146.6,-44.41 151.78,-35.17 141.96,-39.16 146.6,-44.41"/>
</a>
</g>
<g id="a_edge7&#45;headlabel"><a xlink:href="dir_000008_000080.html" target="_top" xlink:title="2">
<text text-anchor="middle" x="145.78" y="-46.42" font-family="Helvetica,sans-Serif" font-size="10.00" fill="#63b8ff">2</text>
</a>
</g>
</g>
<!-- dir_76d267a04bc326793b7e59f3c1dbdf93&#45;&gt;dir_ad3e739cbc5e81514c03c7a8b77a9a7c -->
<g id="edge8" class="edge">
<title>dir_76d267a04bc326793b7e59f3c1dbdf93&#45;&gt;dir_ad3e739cbc5e81514c03c7a8b77a9a7c</title>
<g id="a_edge8"><a xlink:href="dir_000008_000060.html" target="_top">
<path fill="none" stroke="#63b8ff" d="M161.5,-125.75C161.89,-118.8 162.45,-108.85 162.95,-100.13"/>
<polygon fill="#63b8ff" stroke="#63b8ff" points="166.44,-100.27 163.51,-90.09 159.45,-99.88 166.44,-100.27"/>
</a>
</g>
<g id="a_edge8&#45;headlabel"><a xlink:href="dir_000008_000060.html" target="_top" xlink:title="1">
<text text-anchor="middle" x="169.07" y="-101.52" font-family="Helvetica,sans-Serif" font-size="10.00" fill="#63b8ff">1</text>
</a>
</g>
</g>
<!-- dir_0046d781185df00694c70533b055a138 -->
<g id="node7" class="node">
<title>dir_0046d781185df00694c70533b055a138</title>
<g id="a_node7"><a xlink:href="dir_0046d781185df00694c70533b055a138.html" target="_top" xlink:title="math">
<polygon fill="#edf0f7" stroke="red" stroke-dasharray="5,2" points="556,-35 514,-35 514,-16 556,-16 556,-35"/>
<text text-anchor="middle" x="535" y="-23" font-family="Helvetica,sans-Serif" font-size="10.00">math</text>
</a>
</g>
</g>
<!-- dir_76d267a04bc326793b7e59f3c1dbdf93&#45;&gt;dir_0046d781185df00694c70533b055a138 -->
<g id="edge4" class="edge">
<title>dir_76d267a04bc326793b7e59f3c1dbdf93&#45;&gt;dir_0046d781185df00694c70533b055a138</title>
<g id="a_edge4"><a xlink:href="dir_000008_000053.html" target="_top">
<path fill="none" stroke="#63b8ff" d="M189.67,-131.62C235.29,-126.49 326.81,-114 401,-90 441.36,-76.94 485.27,-54.39 511.45,-39.97"/>
<polygon fill="#63b8ff" stroke="#63b8ff" points="513.22,-42.99 520.25,-35.06 509.81,-36.88 513.22,-42.99"/>
</a>
</g>
<g id="a_edge4&#45;headlabel"><a xlink:href="dir_000008_000053.html" target="_top" xlink:title="6">
<text text-anchor="middle" x="511.47" y="-44.72" font-family="Helvetica,sans-Serif" font-size="10.00" fill="#63b8ff">6</text>
</a>
</g>
</g>
<!-- dir_48a6261162fe477a11d047d5b69d2726 -->
<g id="node8" class="node">
<title>dir_48a6261162fe477a11d047d5b69d2726</title>
<g id="a_node8"><a xlink:href="dir_48a6261162fe477a11d047d5b69d2726.html" target="_top" xlink:title="ecs">
<polygon fill="#edf0f7" stroke="red" stroke-dasharray="5,2" points="607.5,-35 574.5,-35 574.5,-16 607.5,-16 607.5,-35"/>
<text text-anchor="middle" x="591" y="-23" font-family="Helvetica,sans-Serif" font-size="10.00">ecs</text>
</a>
</g>
</g>
<!-- dir_76d267a04bc326793b7e59f3c1dbdf93&#45;&gt;dir_48a6261162fe477a11d047d5b69d2726 -->
<g id="edge3" class="edge">
<title>dir_76d267a04bc326793b7e59f3c1dbdf93&#45;&gt;dir_48a6261162fe477a11d047d5b69d2726</title>
<g id="a_edge3"><a xlink:href="dir_000008_000033.html" target="_top">
<path fill="none" stroke="#63b8ff" d="M189.85,-132.46C241.91,-128.25 354.66,-116.65 446,-90 489.66,-77.26 537.47,-54.46 565.81,-39.92"/>
<polygon fill="#63b8ff" stroke="#63b8ff" points="567.73,-42.87 574.99,-35.16 564.5,-36.66 567.73,-42.87"/>
</a>
</g>
<g id="a_edge3&#45;headlabel"><a xlink:href="dir_000008_000033.html" target="_top" xlink:title="12">
<text text-anchor="middle" x="565.85" y="-44.55" font-family="Helvetica,sans-Serif" font-size="10.00" fill="#63b8ff">12</text>
</a>
</g>
</g>
<!-- dir_66d0fbb35f31b5b35549543f7095729b -->
<g id="node9" class="node">
<title>dir_66d0fbb35f31b5b35549543f7095729b</title>
<g id="a_node9"><a xlink:href="dir_66d0fbb35f31b5b35549543f7095729b.html" target="_top" xlink:title="core">
<polygon fill="#edf0f7" stroke="red" stroke-dasharray="5,2" points="372,-35 334,-35 334,-16 372,-16 372,-35"/>
<text text-anchor="middle" x="353" y="-23" font-family="Helvetica,sans-Serif" font-size="10.00">core</text>
</a>
</g>
</g>
<!-- dir_76d267a04bc326793b7e59f3c1dbdf93&#45;&gt;dir_66d0fbb35f31b5b35549543f7095729b -->
<g id="edge11" class="edge">
<title>dir_76d267a04bc326793b7e59f3c1dbdf93&#45;&gt;dir_66d0fbb35f31b5b35549543f7095729b</title>
<g id="a_edge11"><a xlink:href="dir_000008_000028.html" target="_top">
<path fill="none" stroke="#63b8ff" d="M168.63,-125.76C182.06,-110.88 211.4,-80.54 242,-63 249.27,-58.83 293.44,-44.83 323.82,-35.43"/>
<polygon fill="#63b8ff" stroke="#63b8ff" points="324.99,-38.73 333.52,-32.44 322.93,-32.04 324.99,-38.73"/>
</a>
</g>
<g id="a_edge11&#45;headlabel"><a xlink:href="dir_000008_000028.html" target="_top" xlink:title="1">
<text text-anchor="middle" x="322.4" y="-40" font-family="Helvetica,sans-Serif" font-size="10.00" fill="#63b8ff">1</text>
</a>
</g>
</g>
<!-- dir_7f0768799dd37ef2f2adcdfec91ab1e9 -->
<g id="node11" class="node">
<title>dir_7f0768799dd37ef2f2adcdfec91ab1e9</title>
<g id="a_node11"><a xlink:href="dir_7f0768799dd37ef2f2adcdfec91ab1e9.html" target="_top" xlink:title="util">
<polygon fill="#edf0f7" stroke="red" stroke-dasharray="5,2" points="422,-35 390,-35 390,-16 422,-16 422,-35"/>
<text text-anchor="middle" x="406" y="-23" font-family="Helvetica,sans-Serif" font-size="10.00">util</text>
</a>
</g>
</g>
<!-- dir_76d267a04bc326793b7e59f3c1dbdf93&#45;&gt;dir_7f0768799dd37ef2f2adcdfec91ab1e9 -->
<g id="edge5" class="edge">
<title>dir_76d267a04bc326793b7e59f3c1dbdf93&#45;&gt;dir_7f0768799dd37ef2f2adcdfec91ab1e9</title>
<g id="a_edge5"><a xlink:href="dir_000008_000100.html" target="_top">
<path fill="none" stroke="#63b8ff" d="M176.71,-125.92C192.59,-117.17 217.74,-103.05 239,-90 257.6,-78.59 260.14,-72.02 280,-63 319.68,-44.98 334.55,-48.18 380.05,-35.08"/>
<polygon fill="#63b8ff" stroke="#63b8ff" points="381.33,-38.35 389.91,-32.12 379.32,-31.64 381.33,-38.35"/>
</a>
</g>
<g id="a_edge5&#45;headlabel"><a xlink:href="dir_000008_000100.html" target="_top" xlink:title="5">
<text text-anchor="middle" x="378.7" y="-39.6" font-family="Helvetica,sans-Serif" font-size="10.00" fill="#63b8ff">5</text>
</a>
</g>
</g>
<!-- dir_d7d61354c43df5b3f9e499bdacf27dcd -->
<g id="node13" class="node">
<title>dir_d7d61354c43df5b3f9e499bdacf27dcd</title>
<g id="a_node13"><a xlink:href="dir_d7d61354c43df5b3f9e499bdacf27dcd.html" target="_top" xlink:title="runtime">
<polygon fill="#edf0f7" stroke="red" stroke-dasharray="5,2" points="495.5,-35 440.5,-35 440.5,-16 495.5,-16 495.5,-35"/>
<text text-anchor="middle" x="468" y="-23" font-family="Helvetica,sans-Serif" font-size="10.00">runtime</text>
</a>
</g>
</g>
<!-- dir_76d267a04bc326793b7e59f3c1dbdf93&#45;&gt;dir_d7d61354c43df5b3f9e499bdacf27dcd -->
<g id="edge10" class="edge">
<title>dir_76d267a04bc326793b7e59f3c1dbdf93&#45;&gt;dir_d7d61354c43df5b3f9e499bdacf27dcd</title>
<g id="a_edge10"><a xlink:href="dir_000008_000072.html" target="_top">
<path fill="none" stroke="#63b8ff" d="M187.29,-125.98C210.67,-117.98 245.45,-105.02 274,-90 292.98,-80.01 294.36,-71.61 314,-63 316.71,-61.81 385.74,-45.64 430.45,-35.23"/>
<polygon fill="#63b8ff" stroke="#63b8ff" points="431.46,-38.58 440.41,-32.91 429.88,-31.77 431.46,-38.58"/>
</a>
</g>
<g id="a_edge10&#45;headlabel"><a xlink:href="dir_000008_000072.html" target="_top" xlink:title="12">
<text text-anchor="middle" x="428.61" y="-39.66" font-family="Helvetica,sans-Serif" font-size="10.00" fill="#63b8ff">12</text>
</a>
</g>
</g>
<!-- dir_38660f863d95a2f91776843a957349cd -->
<g id="node14" class="node">
<title>dir_38660f863d95a2f91776843a957349cd</title>
<g id="a_node14"><a xlink:href="dir_38660f863d95a2f91776843a957349cd.html" target="_top" xlink:title="mechanics">
<polygon fill="#edf0f7" stroke="red" stroke-dasharray="5,2" points="391.5,-90 322.5,-90 322.5,-71 391.5,-71 391.5,-90"/>
<text text-anchor="middle" x="357" y="-78" font-family="Helvetica,sans-Serif" font-size="10.00">mechanics</text>
</a>
</g>
</g>
<!-- dir_76d267a04bc326793b7e59f3c1dbdf93&#45;&gt;dir_38660f863d95a2f91776843a957349cd -->
<g id="edge12" class="edge">
<title>dir_76d267a04bc326793b7e59f3c1dbdf93&#45;&gt;dir_38660f863d95a2f91776843a957349cd</title>
<g id="a_edge12"><a xlink:href="dir_000008_000054.html" target="_top">
<path fill="none" stroke="#63b8ff" d="M189.5,-126.79C222.73,-117.81 277.94,-102.88 315.83,-92.63"/>
<polygon fill="#63b8ff" stroke="#63b8ff" points="316.8,-96 325.54,-90.01 314.98,-89.24 316.8,-96"/>
</a>
</g>
<g id="a_edge12&#45;headlabel"><a xlink:href="dir_000008_000054.html" target="_top" xlink:title="1">
<text text-anchor="middle" x="314.08" y="-97.17" font-family="Helvetica,sans-Serif" font-size="10.00" fill="#63b8ff">1</text>
</a>
</g>
</g>
<!-- dir_ad3e739cbc5e81514c03c7a8b77a9a7c&#45;&gt;dir_9901a41432e1411a521c23d6f490a264 -->
<g id="edge18" class="edge">
<title>dir_ad3e739cbc5e81514c03c7a8b77a9a7c&#45;&gt;dir_9901a41432e1411a521c23d6f490a264</title>
<g id="a_edge18"><a xlink:href="dir_000060_000073.html" target="_top">
<path fill="none" stroke="#63b8ff" d="M153.4,-70.98C143.54,-63.07 128.65,-51.11 116.78,-41.58"/>
<polygon fill="#63b8ff" stroke="#63b8ff" points="118.79,-38.7 108.8,-35.17 114.4,-44.16 118.79,-38.7"/>
</a>
</g>
<g id="a_edge18&#45;headlabel"><a xlink:href="dir_000060_000073.html" target="_top" xlink:title="2">
<text text-anchor="middle" x="123.37" y="-36.24" font-family="Helvetica,sans-Serif" font-size="10.00" fill="#63b8ff">2</text>
</a>
</g>
</g>
<!-- dir_ad3e739cbc5e81514c03c7a8b77a9a7c&#45;&gt;dir_40a07d66e7fedbdef195364f73b9e6a6 -->
<g id="edge21" class="edge">
<title>dir_ad3e739cbc5e81514c03c7a8b77a9a7c&#45;&gt;dir_40a07d66e7fedbdef195364f73b9e6a6</title>
<g id="a_edge21"><a xlink:href="dir_000060_000080.html" target="_top">
<path fill="none" stroke="#63b8ff" d="M164,-70.75C164,-63.8 164,-53.85 164,-45.13"/>
<polygon fill="#63b8ff" stroke="#63b8ff" points="167.5,-45.09 164,-35.09 160.5,-45.09 167.5,-45.09"/>
</a>
</g>
<g id="a_edge21&#45;headlabel"><a xlink:href="dir_000060_000080.html" target="_top" xlink:title="3">
<text text-anchor="middle" x="170.34" y="-46.18" font-family="Helvetica,sans-Serif" font-size="10.00" fill="#63b8ff">3</text>
</a>
</g>
</g>
<!-- dir_ad3e739cbc5e81514c03c7a8b77a9a7c&#45;&gt;dir_0046d781185df00694c70533b055a138 -->
<g id="edge13" class="edge">
<title>dir_ad3e739cbc5e81514c03c7a8b77a9a7c&#45;&gt;dir_0046d781185df00694c70533b055a138</title>
<g id="a_edge13"><a xlink:href="dir_000060_000053.html" target="_top">
<path fill="none" stroke="#63b8ff" d="M189.55,-76.66C254.9,-69.31 427.82,-49.39 503.74,-34.93"/>
<polygon fill="#63b8ff" stroke="#63b8ff" points="504.67,-38.31 513.79,-32.92 503.3,-31.45 504.67,-38.31"/>
</a>
</g>
<g id="a_edge13&#45;headlabel"><a xlink:href="dir_000060_000053.html" target="_top" xlink:title="10">
<text text-anchor="middle" x="501.7" y="-39.3" font-family="Helvetica,sans-Serif" font-size="10.00" fill="#63b8ff">10</text>
</a>
</g>
</g>
<!-- dir_ad3e739cbc5e81514c03c7a8b77a9a7c&#45;&gt;dir_48a6261162fe477a11d047d5b69d2726 -->
<g id="edge14" class="edge">
<title>dir_ad3e739cbc5e81514c03c7a8b77a9a7c&#45;&gt;dir_48a6261162fe477a11d047d5b69d2726</title>
<g id="a_edge14"><a xlink:href="dir_000060_000033.html" target="_top">
<path fill="none" stroke="#63b8ff" d="M189.53,-76.68C269.24,-67.89 510.94,-41.21 564.25,-34.05"/>
<polygon fill="#63b8ff" stroke="#63b8ff" points="565,-37.48 574.36,-32.5 563.94,-30.56 565,-37.48"/>
</a>
</g>
<g id="a_edge14&#45;headlabel"><a xlink:href="dir_000060_000033.html" target="_top" xlink:title="12">
<text text-anchor="middle" x="561.88" y="-38.33" font-family="Helvetica,sans-Serif" font-size="10.00" fill="#63b8ff">12</text>
</a>
</g>
</g>
<!-- dir_ad3e739cbc5e81514c03c7a8b77a9a7c&#45;&gt;dir_66d0fbb35f31b5b35549543f7095729b -->
<g id="edge15" class="edge">
<title>dir_ad3e739cbc5e81514c03c7a8b77a9a7c&#45;&gt;dir_66d0fbb35f31b5b35549543f7095729b</title>
<g id="a_edge15"><a xlink:href="dir_000060_000028.html" target="_top">
<path fill="none" stroke="#63b8ff" d="M182.89,-70.96C189.48,-68.18 196.99,-65.24 204,-63 253.7,-47.12 269.91,-48.97 323.99,-35.1"/>
<polygon fill="#63b8ff" stroke="#63b8ff" points="324.99,-38.45 333.77,-32.52 323.21,-31.68 324.99,-38.45"/>
</a>
</g>
<g id="a_edge15&#45;headlabel"><a xlink:href="dir_000060_000028.html" target="_top" xlink:title="2">
<text text-anchor="middle" x="322.23" y="-39.61" font-family="Helvetica,sans-Serif" font-size="10.00" fill="#63b8ff">2</text>
</a>
</g>
</g>
<!-- dir_6a0662f282a699b80270a7344921b324 -->
<g id="node10" class="node">
<title>dir_6a0662f282a699b80270a7344921b324</title>
<g id="a_node10"><a xlink:href="dir_6a0662f282a699b80270a7344921b324.html" target="_top" xlink:title="core">
<polygon fill="#edf0f7" stroke="red" stroke-dasharray="5,2" points="252,-35 214,-35 214,-16 252,-16 252,-35"/>
<text text-anchor="middle" x="233" y="-23" font-family="Helvetica,sans-Serif" font-size="10.00">core</text>
</a>
</g>
</g>
<!-- dir_ad3e739cbc5e81514c03c7a8b77a9a7c&#45;&gt;dir_6a0662f282a699b80270a7344921b324 -->
<g id="edge16" class="edge">
<title>dir_ad3e739cbc5e81514c03c7a8b77a9a7c&#45;&gt;dir_6a0662f282a699b80270a7344921b324</title>
<g id="a_edge16"><a xlink:href="dir_000060_000027.html" target="_top">
<path fill="none" stroke="#63b8ff" d="M175.09,-70.98C185.49,-63 201.26,-50.88 213.72,-41.31"/>
<polygon fill="#63b8ff" stroke="#63b8ff" points="215.91,-44.04 221.71,-35.17 211.65,-38.49 215.91,-44.04"/>
</a>
</g>
<g id="a_edge16&#45;headlabel"><a xlink:href="dir_000060_000027.html" target="_top" xlink:title="2">
<text text-anchor="middle" x="214.79" y="-45.98" font-family="Helvetica,sans-Serif" font-size="10.00" fill="#63b8ff">2</text>
</a>
</g>
</g>
<!-- dir_ad3e739cbc5e81514c03c7a8b77a9a7c&#45;&gt;dir_7f0768799dd37ef2f2adcdfec91ab1e9 -->
<g id="edge17" class="edge">
<title>dir_ad3e739cbc5e81514c03c7a8b77a9a7c&#45;&gt;dir_7f0768799dd37ef2f2adcdfec91ab1e9</title>
<g id="a_edge17"><a xlink:href="dir_000060_000100.html" target="_top">
<path fill="none" stroke="#63b8ff" d="M189.63,-74.01C204.84,-70.77 224.51,-66.61 242,-63 300.7,-50.88 318.44,-51.32 380.1,-34.95"/>
<polygon fill="#63b8ff" stroke="#63b8ff" points="381.21,-38.28 389.96,-32.3 379.39,-31.52 381.21,-38.28"/>
</a>
</g>
<g id="a_edge17&#45;headlabel"><a xlink:href="dir_000060_000100.html" target="_top" xlink:title="2">
<text text-anchor="middle" x="378.48" y="-39.46" font-family="Helvetica,sans-Serif" font-size="10.00" fill="#63b8ff">2</text>
</a>
</g>
</g>
<!-- dir_b6e017bc8c299f04fc1162fc4677be61 -->
<g id="node12" class="node">
<title>dir_b6e017bc8c299f04fc1162fc4677be61</title>
<g id="a_node12"><a xlink:href="dir_b6e017bc8c299f04fc1162fc4677be61.html" target="_top" xlink:title="scene">
<polygon fill="#edf0f7" stroke="#7f7f7f" points="315.5,-35 270.5,-35 270.5,-16 315.5,-16 315.5,-35"/>
<text text-anchor="middle" x="293" y="-23" font-family="Helvetica,sans-Serif" font-size="10.00">scene</text>
</a>
</g>
</g>
<!-- dir_ad3e739cbc5e81514c03c7a8b77a9a7c&#45;&gt;dir_b6e017bc8c299f04fc1162fc4677be61 -->
<g id="edge19" class="edge">
<title>dir_ad3e739cbc5e81514c03c7a8b77a9a7c&#45;&gt;dir_b6e017bc8c299f04fc1162fc4677be61</title>
<g id="a_edge19"><a xlink:href="dir_000060_000074.html" target="_top">
<path fill="none" stroke="#63b8ff" d="M184.76,-70.93C190.95,-68.37 197.75,-65.57 204,-63 223.5,-54.98 245.4,-46 262.6,-38.95"/>
<polygon fill="#63b8ff" stroke="#63b8ff" points="264.21,-42.07 272.14,-35.04 261.55,-35.6 264.21,-42.07"/>
</a>
</g>
<g id="a_edge19&#45;headlabel"><a xlink:href="dir_000060_000074.html" target="_top" xlink:title="2">
<text text-anchor="middle" x="261.96" y="-43.56" font-family="Helvetica,sans-Serif" font-size="10.00" fill="#63b8ff">2</text>
</a>
</g>
</g>
<!-- dir_ad3e739cbc5e81514c03c7a8b77a9a7c&#45;&gt;dir_d7d61354c43df5b3f9e499bdacf27dcd -->
<g id="edge20" class="edge">
<title>dir_ad3e739cbc5e81514c03c7a8b77a9a7c&#45;&gt;dir_d7d61354c43df5b3f9e499bdacf27dcd</title>
<g id="a_edge20"><a xlink:href="dir_000060_000072.html" target="_top">
<path fill="none" stroke="#63b8ff" d="M189.87,-75.72C236.03,-68.87 335.82,-53.53 430.17,-35.06"/>
<polygon fill="#63b8ff" stroke="#63b8ff" points="431.03,-38.46 440.16,-33.09 429.67,-31.59 431.03,-38.46"/>
</a>
</g>
<g id="a_edge20&#45;headlabel"><a xlink:href="dir_000060_000072.html" target="_top" xlink:title="8">
<text text-anchor="middle" x="428.05" y="-39.44" font-family="Helvetica,sans-Serif" font-size="10.00" fill="#63b8ff">8</text>
</a>
</g>
</g>
</g>
</svg>
