<?xml version="1.0" encoding="UTF-8" standalone="no"?>
<!DOCTYPE svg PUBLIC "-//W3C//DTD SVG 1.1//EN"
 "http://www.w3.org/Graphics/SVG/1.1/DTD/svg11.dtd">
<!-- Generated by graphviz version 2.43.0 (0)
 -->
<!-- Title: collision Pages: 1 -->
<!--zoomable 290 -->

<svg id="main" version="1.1" xmlns="http://www.w3.org/2000/svg" xmlns:xlink="http://www.w3.org/1999/xlink" xml:space="preserve" onload="init(evt)">

<style type="text/css"><![CDATA[
.node, .edge {opacity: 0.7;}
.node.selected, .edge.selected {opacity: 1;}
.edge:hover path { stroke: red; }
.edge:hover polygon { stroke: red; fill: red; }
]]></style>

<defs>
  <circle id="rim" cx="0" cy="0" r="7"/>
  <circle id="rim2" cx="0" cy="0" r="3.5"/>
  <g id="zoomPlus">
    <use xlink:href="#rim" fill="#404040"><set attributeName="fill" to="#808080" begin="zoomplus.mouseover" end="zoomplus.mouseout"/></use>
    <path d="M-4,0h8M0,-4v8" fill="none" stroke="white" stroke-width="1.5" pointer-events="none"/>
  </g>
  <g id="zoomMin">
    <use xlink:href="#rim" fill="#404040"><set attributeName="fill" to="#808080" begin="zoomminus.mouseover" end="zoomminus.mouseout"/></use>
    <path d="M-4,0h8" fill="none" stroke="white" stroke-width="1.5" pointer-events="none"/>
  </g>
  <g id="arrowUp" transform="translate(30 24)">
    <use xlink:href="#rim"/>
    <path pointer-events="none" fill="none" stroke="white" stroke-width="1.5" d="M0,-3.0v7 M-2.5,-0.5L0,-3.0L2.5,-0.5"/>
  </g>
  <g id="arrowRight" transform="rotate(90) translate(36 -43)">
    <use xlink:href="#rim"/>
    <path pointer-events="none" fill="none" stroke="white" stroke-width="1.5" d="M0,-3.0v7 M-2.5,-0.5L0,-3.0L2.5,-0.5"/>
  </g>
  <g id="arrowDown" transform="rotate(180) translate(-30 -48)">
    <use xlink:href="#rim"/>
    <path pointer-events="none" fill="none" stroke="white" stroke-width="1.5" d="M0,-3.0v7 M-2.5,-0.5L0,-3.0L2.5,-0.5"/>
  </g>
  <g id="arrowLeft" transform="rotate(270) translate(-36 17)">
    <use xlink:href="#rim"/>
    <path pointer-events="none" fill="none" stroke="white" stroke-width="1.5" d="M0,-3.0v7 M-2.5,-0.5L0,-3.0L2.5,-0.5"/>
  </g>
  <g id="resetDef">
    <use xlink:href="#rim2" fill="#404040"><set attributeName="fill" to="#808080" begin="reset.mouseover" end="reset.mouseout"/></use>
  </g>
</defs>
<script type="application/ecmascript">
var viewWidth = 793;
var viewHeight = 290;
var sectionId = 'dynsection-0';
</script>
<script type="application/ecmascript" xlink:href="svg.min.js"/>
<svg id="graph" class="graph">
<g id="viewport">
<title>collision</title>
<g id="clust1" class="cluster">
<title>clusterdir_38cb15a289b9cc4a3f53b331ae426885</title>
<g id="a_clust1"><a xlink:href="dir_38cb15a289b9cc4a3f53b331ae426885.html" target="_top" xlink:title="physics">
<polygon fill="#edf0f7" stroke="#7f7f7f" stroke-dasharray="5,2" points="151.07,-39 151.07,-274 369.07,-274 369.07,-39 151.07,-39"/>
<text text-anchor="middle" x="260.07" y="-262" font-family="Helvetica,sans-Serif" font-size="10.00">physics</text>
</a>
</g>
</g>
<g id="clust2" class="cluster">
<title>clusterdir_236484ddeaee6e9ef038329dc0f2f448</title>
<g id="a_clust2"><a xlink:href="dir_236484ddeaee6e9ef038329dc0f2f448.html" target="_top" xlink:title="Collision detection components, events, and systems.">
<polygon fill="#edf0f7" stroke="#404040" stroke-width="2" points="159.07,-47 159.07,-247 361.07,-247 361.07,-47 159.07,-47"/>
</a>
</g>
</g>
<!-- dir_236484ddeaee6e9ef038329dc0f2f448 -->
<g id="node1" class="node">
<title>dir_236484ddeaee6e9ef038329dc0f2f448</title>
<text text-anchor="middle" x="324.07" y="-227" font-family="Helvetica,sans-Serif" font-size="10.00">collision</text>
</g>
<!-- dir_56eb5a2a30d0e9e27f332686ad54846c -->
<g id="node2" class="node">
<title>dir_56eb5a2a30d0e9e27f332686ad54846c</title>
<g id="a_node2"><a xlink:href="dir_56eb5a2a30d0e9e27f332686ad54846c.html" target="_top" xlink:title="components">
<polygon fill="#a2b4d6" stroke="#404040" points="352.57,-129 275.57,-129 275.57,-110 352.57,-110 352.57,-129"/>
<text text-anchor="middle" x="314.07" y="-117" font-family="Helvetica,sans-Serif" font-size="10.00">components</text>
</a>
</g>
</g>
<!-- dir_236484ddeaee6e9ef038329dc0f2f448&#45;&gt;dir_56eb5a2a30d0e9e27f332686ad54846c -->
<g id="edge4" class="edge">
<title>dir_236484ddeaee6e9ef038329dc0f2f448&#45;&gt;dir_56eb5a2a30d0e9e27f332686ad54846c</title>
<g id="a_edge4"><a xlink:href="dir_000012_000028.html" target="_top">
<path fill="none" stroke="#63b8ff" d="M313.36,-219.93C304.13,-211.8 291.48,-198.68 286.07,-184 280.11,-167.84 289.54,-149.92 299.03,-137.25"/>
<polygon fill="#63b8ff" stroke="#63b8ff" points="301.82,-139.36 305.42,-129.4 296.4,-134.94 301.82,-139.36"/>
</a>
</g>
<g id="a_edge4&#45;headlabel"><a xlink:href="dir_000012_000028.html" target="_top" xlink:title="7">
<text text-anchor="middle" x="301.75" y="-141.44" font-family="Helvetica,sans-Serif" font-size="10.00" fill="#63b8ff">7</text>
</a>
</g>
</g>
<!-- dir_aca6b06171d3710cdcd51681b6e59d2d -->
<g id="node3" class="node">
<title>dir_aca6b06171d3710cdcd51681b6e59d2d</title>
<g id="a_node3"><a xlink:href="dir_aca6b06171d3710cdcd51681b6e59d2d.html" target="_top" xlink:title="events">
<polygon fill="#a2b4d6" stroke="#404040" points="257.07,-129 207.07,-129 207.07,-110 257.07,-110 257.07,-129"/>
<text text-anchor="middle" x="232.07" y="-117" font-family="Helvetica,sans-Serif" font-size="10.00">events</text>
</a>
</g>
</g>
<!-- dir_236484ddeaee6e9ef038329dc0f2f448&#45;&gt;dir_aca6b06171d3710cdcd51681b6e59d2d -->
<g id="edge8" class="edge">
<title>dir_236484ddeaee6e9ef038329dc0f2f448&#45;&gt;dir_aca6b06171d3710cdcd51681b6e59d2d</title>
<g id="a_edge8"><a xlink:href="dir_000012_000054.html" target="_top">
<path fill="none" stroke="#63b8ff" d="M314.95,-219.96C305.79,-211.24 291.45,-197.14 280.07,-184 267.11,-169.03 253.63,-150.94 244.26,-137.9"/>
<polygon fill="#63b8ff" stroke="#63b8ff" points="246.88,-135.54 238.24,-129.41 241.17,-139.59 246.88,-135.54"/>
</a>
</g>
<g id="a_edge8&#45;headlabel"><a xlink:href="dir_000012_000054.html" target="_top" xlink:title="4">
<text text-anchor="middle" x="251.28" y="-134.33" font-family="Helvetica,sans-Serif" font-size="10.00" fill="#63b8ff">4</text>
</a>
</g>
</g>
<!-- dir_ddecd9e18962a729d23ac56e30fa824b -->
<g id="node4" class="node">
<title>dir_ddecd9e18962a729d23ac56e30fa824b</title>
<g id="a_node4"><a xlink:href="dir_ddecd9e18962a729d23ac56e30fa824b.html" target="_top" xlink:title="systems">
<polygon fill="#a2b4d6" stroke="#404040" points="353.07,-184 295.07,-184 295.07,-165 353.07,-165 353.07,-184"/>
<text text-anchor="middle" x="324.07" y="-172" font-family="Helvetica,sans-Serif" font-size="10.00">systems</text>
</a>
</g>
</g>
<!-- dir_236484ddeaee6e9ef038329dc0f2f448&#45;&gt;dir_ddecd9e18962a729d23ac56e30fa824b -->
<g id="edge10" class="edge">
<title>dir_236484ddeaee6e9ef038329dc0f2f448&#45;&gt;dir_ddecd9e18962a729d23ac56e30fa824b</title>
<g id="a_edge10"><a xlink:href="dir_000012_000116.html" target="_top">
<path fill="none" stroke="#63b8ff" d="M324.07,-219.75C324.07,-212.8 324.07,-202.85 324.07,-194.13"/>
<polygon fill="#63b8ff" stroke="#63b8ff" points="327.57,-194.09 324.07,-184.09 320.57,-194.09 327.57,-194.09"/>
</a>
</g>
<g id="a_edge10&#45;headlabel"><a xlink:href="dir_000012_000116.html" target="_top" xlink:title="1">
<text text-anchor="middle" x="330.41" y="-195.18" font-family="Helvetica,sans-Serif" font-size="10.00" fill="#63b8ff">1</text>
</a>
</g>
</g>
<!-- dir_37a029dcaa1a76caf2ff39f24d0096d4 -->
<g id="node5" class="node">
<title>dir_37a029dcaa1a76caf2ff39f24d0096d4</title>
<g id="a_node5"><a xlink:href="dir_37a029dcaa1a76caf2ff39f24d0096d4.html" target="_top" xlink:title="types">
<polygon fill="#a2b4d6" stroke="#404040" points="239.07,-74 195.07,-74 195.07,-55 239.07,-55 239.07,-74"/>
<text text-anchor="middle" x="217.07" y="-62" font-family="Helvetica,sans-Serif" font-size="10.00">types</text>
</a>
</g>
</g>
<!-- dir_236484ddeaee6e9ef038329dc0f2f448&#45;&gt;dir_37a029dcaa1a76caf2ff39f24d0096d4 -->
<g id="edge3" class="edge">
<title>dir_236484ddeaee6e9ef038329dc0f2f448&#45;&gt;dir_37a029dcaa1a76caf2ff39f24d0096d4</title>
<g id="a_edge3"><a xlink:href="dir_000012_000133.html" target="_top">
<path fill="none" stroke="#63b8ff" d="M301.81,-219.95C269.83,-206.3 212.2,-176.19 189.07,-129 181.32,-113.2 191.52,-94.77 201.72,-81.84"/>
<polygon fill="#63b8ff" stroke="#63b8ff" points="204.39,-84.11 208.23,-74.23 199.07,-79.56 204.39,-84.11"/>
</a>
</g>
<g id="a_edge3&#45;headlabel"><a xlink:href="dir_000012_000133.html" target="_top" xlink:title="11">
<text text-anchor="middle" x="204.21" y="-86.18" font-family="Helvetica,sans-Serif" font-size="10.00" fill="#63b8ff">11</text>
</a>
</g>
</g>
<!-- dir_1ca916e0b9fbc882dbfbd9e6594e5e22 -->
<g id="node6" class="node">
<title>dir_1ca916e0b9fbc882dbfbd9e6594e5e22</title>
<g id="a_node6"><a xlink:href="dir_1ca916e0b9fbc882dbfbd9e6594e5e22.html" target="_top" xlink:title="ecs">
<polygon fill="#edf0f7" stroke="red" stroke-dasharray="5,2" points="442.57,-74 409.57,-74 409.57,-55 442.57,-55 442.57,-74"/>
<text text-anchor="middle" x="426.07" y="-62" font-family="Helvetica,sans-Serif" font-size="10.00">ecs</text>
</a>
</g>
</g>
<!-- dir_236484ddeaee6e9ef038329dc0f2f448&#45;&gt;dir_1ca916e0b9fbc882dbfbd9e6594e5e22 -->
<g id="edge1" class="edge">
<title>dir_236484ddeaee6e9ef038329dc0f2f448&#45;&gt;dir_1ca916e0b9fbc882dbfbd9e6594e5e22</title>
<g id="a_edge1"><a xlink:href="dir_000012_000047.html" target="_top">
<path fill="none" stroke="#63b8ff" d="M352.63,-226.89C444.24,-221.05 727.79,-197.63 781.07,-129 822.49,-75.65 541.95,-67.12 452.71,-65.76"/>
<polygon fill="#63b8ff" stroke="#63b8ff" points="452.62,-62.26 442.58,-65.62 452.53,-69.26 452.62,-62.26"/>
</a>
</g>
<g id="a_edge1&#45;headlabel"><a xlink:href="dir_000012_000047.html" target="_top" xlink:title="14">
<text text-anchor="middle" x="456.25" y="-56.97" font-family="Helvetica,sans-Serif" font-size="10.00" fill="#63b8ff">14</text>
</a>
</g>
</g>
<!-- dir_268add6b94670641c68bb834cdcb4292 -->
<g id="node7" class="node">
<title>dir_268add6b94670641c68bb834cdcb4292</title>
<g id="a_node7"><a xlink:href="dir_268add6b94670641c68bb834cdcb4292.html" target="_top" xlink:title="math">
<polygon fill="#edf0f7" stroke="red" stroke-dasharray="5,2" points="150.07,-19 108.07,-19 108.07,0 150.07,0 150.07,-19"/>
<text text-anchor="middle" x="129.07" y="-7" font-family="Helvetica,sans-Serif" font-size="10.00">math</text>
</a>
</g>
</g>
<!-- dir_236484ddeaee6e9ef038329dc0f2f448&#45;&gt;dir_268add6b94670641c68bb834cdcb4292 -->
<g id="edge2" class="edge">
<title>dir_236484ddeaee6e9ef038329dc0f2f448&#45;&gt;dir_268add6b94670641c68bb834cdcb4292</title>
<g id="a_edge2"><a xlink:href="dir_000012_000076.html" target="_top">
<path fill="none" stroke="#63b8ff" d="M295.33,-223.84C224.15,-211.66 42.9,-176.48 8.07,-129 -24.01,-85.27 52.97,-43.03 98.49,-22.84"/>
<polygon fill="#63b8ff" stroke="#63b8ff" points="100.15,-25.94 107.95,-18.76 97.38,-19.51 100.15,-25.94"/>
</a>
</g>
<g id="a_edge2&#45;headlabel"><a xlink:href="dir_000012_000076.html" target="_top" xlink:title="8">
<text text-anchor="middle" x="97.98" y="-27.47" font-family="Helvetica,sans-Serif" font-size="10.00" fill="#63b8ff">8</text>
</a>
</g>
</g>
<!-- dir_5a58a2ffe8660a7fc51fed7e0c7c898d -->
<g id="node8" class="node">
<title>dir_5a58a2ffe8660a7fc51fed7e0c7c898d</title>
<g id="a_node8"><a xlink:href="dir_5a58a2ffe8660a7fc51fed7e0c7c898d.html" target="_top" xlink:title="core">
<polygon fill="#edf0f7" stroke="red" stroke-dasharray="5,2" points="485.07,-129 447.07,-129 447.07,-110 485.07,-110 485.07,-129"/>
<text text-anchor="middle" x="466.07" y="-117" font-family="Helvetica,sans-Serif" font-size="10.00">core</text>
</a>
</g>
</g>
<!-- dir_236484ddeaee6e9ef038329dc0f2f448&#45;&gt;dir_5a58a2ffe8660a7fc51fed7e0c7c898d -->
<g id="edge5" class="edge">
<title>dir_236484ddeaee6e9ef038329dc0f2f448&#45;&gt;dir_5a58a2ffe8660a7fc51fed7e0c7c898d</title>
<g id="a_edge5"><a xlink:href="dir_000012_000041.html" target="_top">
<path fill="none" stroke="#63b8ff" d="M335.69,-219.66C360.05,-201.14 416.66,-158.08 446.64,-135.28"/>
<polygon fill="#63b8ff" stroke="#63b8ff" points="448.84,-138 454.68,-129.16 444.61,-132.43 448.84,-138"/>
</a>
</g>
<g id="a_edge5&#45;headlabel"><a xlink:href="dir_000012_000041.html" target="_top" xlink:title="2">
<text text-anchor="middle" x="447.7" y="-139.93" font-family="Helvetica,sans-Serif" font-size="10.00" fill="#63b8ff">2</text>
</a>
</g>
</g>
<!-- dir_656b8020a7b0aa8521ec0615ad91cdfe -->
<g id="node9" class="node">
<title>dir_656b8020a7b0aa8521ec0615ad91cdfe</title>
<g id="a_node9"><a xlink:href="dir_656b8020a7b0aa8521ec0615ad91cdfe.html" target="_top" xlink:title="scene">
<polygon fill="#edf0f7" stroke="red" stroke-dasharray="5,2" points="548.57,-129 503.57,-129 503.57,-110 548.57,-110 548.57,-129"/>
<text text-anchor="middle" x="526.07" y="-117" font-family="Helvetica,sans-Serif" font-size="10.00">scene</text>
</a>
</g>
</g>
<!-- dir_236484ddeaee6e9ef038329dc0f2f448&#45;&gt;dir_656b8020a7b0aa8521ec0615ad91cdfe -->
<g id="edge6" class="edge">
<title>dir_236484ddeaee6e9ef038329dc0f2f448&#45;&gt;dir_656b8020a7b0aa8521ec0615ad91cdfe</title>
<g id="a_edge6"><a xlink:href="dir_000012_000095.html" target="_top">
<path fill="none" stroke="#63b8ff" d="M340.72,-219.88C357.89,-210.96 385.4,-196.62 409.07,-184 440.97,-166.99 477.58,-147.06 501.22,-134.12"/>
<polygon fill="#63b8ff" stroke="#63b8ff" points="503.12,-137.07 510.21,-129.2 499.76,-130.93 503.12,-137.07"/>
</a>
</g>
<g id="a_edge6&#45;headlabel"><a xlink:href="dir_000012_000095.html" target="_top" xlink:title="2">
<text text-anchor="middle" x="501.33" y="-138.79" font-family="Helvetica,sans-Serif" font-size="10.00" fill="#63b8ff">2</text>
</a>
</g>
</g>
<!-- dir_7002044952ee345c222d895bec1a9397 -->
<g id="node10" class="node">
<title>dir_7002044952ee345c222d895bec1a9397</title>
<g id="a_node10"><a xlink:href="dir_7002044952ee345c222d895bec1a9397.html" target="_top" xlink:title="Spatial data management for game entities.">
<polygon fill="#edf0f7" stroke="red" stroke-dasharray="5,2" points="617.07,-129 567.07,-129 567.07,-110 617.07,-110 617.07,-129"/>
<text text-anchor="middle" x="592.07" y="-117" font-family="Helvetica,sans-Serif" font-size="10.00">spatial</text>
</a>
</g>
</g>
<!-- dir_236484ddeaee6e9ef038329dc0f2f448&#45;&gt;dir_7002044952ee345c222d895bec1a9397 -->
<g id="edge7" class="edge">
<title>dir_236484ddeaee6e9ef038329dc0f2f448&#45;&gt;dir_7002044952ee345c222d895bec1a9397</title>
<g id="a_edge7"><a xlink:href="dir_000012_000103.html" target="_top">
<path fill="none" stroke="#63b8ff" d="M346.61,-219.96C369.84,-211.12 407.08,-196.83 439.07,-184 482.18,-166.71 531.8,-145.96 562.55,-133"/>
<polygon fill="#63b8ff" stroke="#63b8ff" points="563.99,-136.19 571.84,-129.08 561.26,-129.74 563.99,-136.19"/>
</a>
</g>
<g id="a_edge7&#45;headlabel"><a xlink:href="dir_000012_000103.html" target="_top" xlink:title="6">
<text text-anchor="middle" x="561.78" y="-137.71" font-family="Helvetica,sans-Serif" font-size="10.00" fill="#63b8ff">6</text>
</a>
</g>
</g>
<!-- dir_bb685b75eb98702a3ab447756cde824e -->
<g id="node11" class="node">
<title>dir_bb685b75eb98702a3ab447756cde824e</title>
<g id="a_node11"><a xlink:href="dir_bb685b75eb98702a3ab447756cde824e.html" target="_top" xlink:title="rendering">
<polygon fill="#edf0f7" stroke="red" stroke-dasharray="5,2" points="698.57,-129 635.57,-129 635.57,-110 698.57,-110 698.57,-129"/>
<text text-anchor="middle" x="667.07" y="-117" font-family="Helvetica,sans-Serif" font-size="10.00">rendering</text>
</a>
</g>
</g>
<!-- dir_236484ddeaee6e9ef038329dc0f2f448&#45;&gt;dir_bb685b75eb98702a3ab447756cde824e -->
<g id="edge9" class="edge">
<title>dir_236484ddeaee6e9ef038329dc0f2f448&#45;&gt;dir_bb685b75eb98702a3ab447756cde824e</title>
<g id="a_edge9"><a xlink:href="dir_000012_000092.html" target="_top">
<path fill="none" stroke="#63b8ff" d="M352.74,-220.44C383.36,-211.75 433.29,-197.37 476.07,-184 531.18,-166.78 594.72,-145.33 632.85,-132.29"/>
<polygon fill="#63b8ff" stroke="#63b8ff" points="634.11,-135.56 642.44,-129.01 631.84,-128.94 634.11,-135.56"/>
</a>
</g>
<g id="a_edge9&#45;headlabel"><a xlink:href="dir_000012_000092.html" target="_top" xlink:title="2">
<text text-anchor="middle" x="631.63" y="-136.91" font-family="Helvetica,sans-Serif" font-size="10.00" fill="#63b8ff">2</text>
</a>
</g>
</g>
<!-- dir_fff8ef54a646d9df8d7b15d27474569f -->
<g id="node12" class="node">
<title>dir_fff8ef54a646d9df8d7b15d27474569f</title>
<g id="a_node12"><a xlink:href="dir_fff8ef54a646d9df8d7b15d27474569f.html" target="_top" xlink:title="runtime">
<polygon fill="#edf0f7" stroke="red" stroke-dasharray="5,2" points="771.57,-129 716.57,-129 716.57,-110 771.57,-110 771.57,-129"/>
<text text-anchor="middle" x="744.07" y="-117" font-family="Helvetica,sans-Serif" font-size="10.00">runtime</text>
</a>
</g>
</g>
<!-- dir_236484ddeaee6e9ef038329dc0f2f448&#45;&gt;dir_fff8ef54a646d9df8d7b15d27474569f -->
<g id="edge11" class="edge">
<title>dir_236484ddeaee6e9ef038329dc0f2f448&#45;&gt;dir_fff8ef54a646d9df8d7b15d27474569f</title>
<g id="a_edge11"><a xlink:href="dir_000012_000094.html" target="_top">
<path fill="none" stroke="#63b8ff" d="M352.77,-222.37C390.73,-214.16 459.64,-198.9 518.07,-184 584.75,-167 661.78,-144.8 706.51,-131.66"/>
<polygon fill="#63b8ff" stroke="#63b8ff" points="707.75,-134.94 716.35,-128.76 705.77,-128.22 707.75,-134.94"/>
</a>
</g>
<g id="a_edge11&#45;headlabel"><a xlink:href="dir_000012_000094.html" target="_top" xlink:title="14">
<text text-anchor="middle" x="705.1" y="-136.18" font-family="Helvetica,sans-Serif" font-size="10.00" fill="#63b8ff">14</text>
</a>
</g>
</g>
<!-- dir_56eb5a2a30d0e9e27f332686ad54846c&#45;&gt;dir_37a029dcaa1a76caf2ff39f24d0096d4 -->
<g id="edge14" class="edge">
<title>dir_56eb5a2a30d0e9e27f332686ad54846c&#45;&gt;dir_37a029dcaa1a76caf2ff39f24d0096d4</title>
<g id="a_edge14"><a xlink:href="dir_000028_000133.html" target="_top">
<path fill="none" stroke="#63b8ff" d="M298.48,-109.98C283.3,-101.69 259.97,-88.94 242.17,-79.22"/>
<polygon fill="#63b8ff" stroke="#63b8ff" points="243.39,-75.89 232.94,-74.17 240.03,-82.04 243.39,-75.89"/>
</a>
</g>
<g id="a_edge14&#45;headlabel"><a xlink:href="dir_000028_000133.html" target="_top" xlink:title="4">
<text text-anchor="middle" x="247.91" y="-72.63" font-family="Helvetica,sans-Serif" font-size="10.00" fill="#63b8ff">4</text>
</a>
</g>
</g>
<!-- dir_56eb5a2a30d0e9e27f332686ad54846c&#45;&gt;dir_1ca916e0b9fbc882dbfbd9e6594e5e22 -->
<g id="edge12" class="edge">
<title>dir_56eb5a2a30d0e9e27f332686ad54846c&#45;&gt;dir_1ca916e0b9fbc882dbfbd9e6594e5e22</title>
<g id="a_edge12"><a xlink:href="dir_000028_000047.html" target="_top">
<path fill="none" stroke="#63b8ff" d="M332.06,-109.98C350.43,-101.29 379.11,-87.72 399.97,-77.85"/>
<polygon fill="#63b8ff" stroke="#63b8ff" points="401.68,-80.92 409.22,-73.47 398.68,-74.59 401.68,-80.92"/>
</a>
</g>
<g id="a_edge12&#45;headlabel"><a xlink:href="dir_000028_000047.html" target="_top" xlink:title="5">
<text text-anchor="middle" x="399.64" y="-82.52" font-family="Helvetica,sans-Serif" font-size="10.00" fill="#63b8ff">5</text>
</a>
</g>
</g>
<!-- dir_56eb5a2a30d0e9e27f332686ad54846c&#45;&gt;dir_268add6b94670641c68bb834cdcb4292 -->
<g id="edge13" class="edge">
<title>dir_56eb5a2a30d0e9e27f332686ad54846c&#45;&gt;dir_268add6b94670641c68bb834cdcb4292</title>
<g id="a_edge13"><a xlink:href="dir_000028_000076.html" target="_top">
<path fill="none" stroke="#63b8ff" d="M275.36,-110.46C248.69,-103.67 213.3,-92.11 186.07,-74 180.93,-70.58 158.31,-44.68 143.16,-27.04"/>
<polygon fill="#63b8ff" stroke="#63b8ff" points="145.59,-24.49 136.43,-19.17 140.27,-29.04 145.59,-24.49"/>
</a>
</g>
<g id="a_edge13&#45;headlabel"><a xlink:href="dir_000028_000076.html" target="_top" xlink:title="2">
<text text-anchor="middle" x="150.08" y="-22.88" font-family="Helvetica,sans-Serif" font-size="10.00" fill="#63b8ff">2</text>
</a>
</g>
</g>
<!-- dir_3e2f71566425d27b6ac8140f1223a941 -->
<g id="node13" class="node">
<title>dir_3e2f71566425d27b6ac8140f1223a941</title>
<g id="a_node13"><a xlink:href="dir_3e2f71566425d27b6ac8140f1223a941.html" target="_top" xlink:title="util">
<polygon fill="#edf0f7" stroke="red" stroke-dasharray="5,2" points="340.07,-19 308.07,-19 308.07,0 340.07,0 340.07,-19"/>
<text text-anchor="middle" x="324.07" y="-7" font-family="Helvetica,sans-Serif" font-size="10.00">util</text>
</a>
</g>
</g>
<!-- dir_56eb5a2a30d0e9e27f332686ad54846c&#45;&gt;dir_3e2f71566425d27b6ac8140f1223a941 -->
<g id="edge15" class="edge">
<title>dir_56eb5a2a30d0e9e27f332686ad54846c&#45;&gt;dir_3e2f71566425d27b6ac8140f1223a941</title>
<g id="a_edge15"><a xlink:href="dir_000028_000138.html" target="_top">
<path fill="none" stroke="#63b8ff" d="M315.11,-109.98C316.19,-101.03 317.87,-86.54 319.07,-74 320.5,-59 321.83,-41.97 322.75,-29.33"/>
<polygon fill="#63b8ff" stroke="#63b8ff" points="326.26,-29.36 323.48,-19.14 319.28,-28.86 326.26,-29.36"/>
</a>
</g>
<g id="a_edge15&#45;headlabel"><a xlink:href="dir_000028_000138.html" target="_top" xlink:title="1">
<text text-anchor="middle" x="328.83" y="-30.65" font-family="Helvetica,sans-Serif" font-size="10.00" fill="#63b8ff">1</text>
</a>
</g>
</g>
<!-- dir_aca6b06171d3710cdcd51681b6e59d2d&#45;&gt;dir_37a029dcaa1a76caf2ff39f24d0096d4 -->
<g id="edge17" class="edge">
<title>dir_aca6b06171d3710cdcd51681b6e59d2d&#45;&gt;dir_37a029dcaa1a76caf2ff39f24d0096d4</title>
<g id="a_edge17"><a xlink:href="dir_000054_000133.html" target="_top">
<path fill="none" stroke="#63b8ff" d="M229.59,-109.75C227.6,-102.72 224.75,-92.62 222.26,-83.84"/>
<polygon fill="#63b8ff" stroke="#63b8ff" points="225.59,-82.76 219.5,-74.09 218.86,-84.66 225.59,-82.76"/>
</a>
</g>
<g id="a_edge17&#45;headlabel"><a xlink:href="dir_000054_000133.html" target="_top" xlink:title="2">
<text text-anchor="middle" x="229.3" y="-82.94" font-family="Helvetica,sans-Serif" font-size="10.00" fill="#63b8ff">2</text>
</a>
</g>
</g>
<!-- dir_aca6b06171d3710cdcd51681b6e59d2d&#45;&gt;dir_268add6b94670641c68bb834cdcb4292 -->
<g id="edge16" class="edge">
<title>dir_aca6b06171d3710cdcd51681b6e59d2d&#45;&gt;dir_268add6b94670641c68bb834cdcb4292</title>
<g id="a_edge16"><a xlink:href="dir_000054_000076.html" target="_top">
<path fill="none" stroke="#63b8ff" d="M207.69,-109.97C190.35,-102.79 167.63,-90.96 153.07,-74 142.15,-61.29 135.96,-43.11 132.61,-29.45"/>
<polygon fill="#63b8ff" stroke="#63b8ff" points="135.94,-28.31 130.42,-19.27 129.1,-29.78 135.94,-28.31"/>
</a>
</g>
<g id="a_edge16&#45;headlabel"><a xlink:href="dir_000054_000076.html" target="_top" xlink:title="2">
<text text-anchor="middle" x="139.47" y="-28.73" font-family="Helvetica,sans-Serif" font-size="10.00" fill="#63b8ff">2</text>
</a>
</g>
</g>
<!-- dir_aca6b06171d3710cdcd51681b6e59d2d&#45;&gt;dir_3e2f71566425d27b6ac8140f1223a941 -->
<g id="edge18" class="edge">
<title>dir_aca6b06171d3710cdcd51681b6e59d2d&#45;&gt;dir_3e2f71566425d27b6ac8140f1223a941</title>
<g id="a_edge18"><a xlink:href="dir_000054_000138.html" target="_top">
<path fill="none" stroke="#63b8ff" d="M239.6,-109.66C254.97,-91.61 290.18,-50.28 309.95,-27.08"/>
<polygon fill="#63b8ff" stroke="#63b8ff" points="312.87,-29.04 316.69,-19.16 307.54,-24.5 312.87,-29.04"/>
</a>
</g>
<g id="a_edge18&#45;headlabel"><a xlink:href="dir_000054_000138.html" target="_top" xlink:title="2">
<text text-anchor="middle" x="312.7" y="-31.12" font-family="Helvetica,sans-Serif" font-size="10.00" fill="#63b8ff">2</text>
</a>
</g>
</g>
<!-- dir_4e12247f2bbe360a59cd98a83515e8f1 -->
<g id="node14" class="node">
<title>dir_4e12247f2bbe360a59cd98a83515e8f1</title>
<g id="a_node14"><a xlink:href="dir_4e12247f2bbe360a59cd98a83515e8f1.html" target="_top" xlink:title="core">
<polygon fill="#edf0f7" stroke="red" stroke-dasharray="5,2" points="253.07,-19 215.07,-19 215.07,0 253.07,0 253.07,-19"/>
<text text-anchor="middle" x="234.07" y="-7" font-family="Helvetica,sans-Serif" font-size="10.00">core</text>
</a>
</g>
</g>
<!-- dir_aca6b06171d3710cdcd51681b6e59d2d&#45;&gt;dir_4e12247f2bbe360a59cd98a83515e8f1 -->
<g id="edge19" class="edge">
<title>dir_aca6b06171d3710cdcd51681b6e59d2d&#45;&gt;dir_4e12247f2bbe360a59cd98a83515e8f1</title>
<g id="a_edge19"><a xlink:href="dir_000054_000040.html" target="_top">
<path fill="none" stroke="#63b8ff" d="M236.18,-109.88C240.13,-101.09 245.81,-86.94 248.07,-74 250.74,-58.68 251.59,-54.15 248.07,-39 247.22,-35.35 245.83,-31.62 244.25,-28.12"/>
<polygon fill="#63b8ff" stroke="#63b8ff" points="247.29,-26.37 239.58,-19.09 241.07,-29.58 247.29,-26.37"/>
</a>
</g>
<g id="a_edge19&#45;headlabel"><a xlink:href="dir_000054_000040.html" target="_top" xlink:title="2">
<text text-anchor="middle" x="251.46" y="-25.75" font-family="Helvetica,sans-Serif" font-size="10.00" fill="#63b8ff">2</text>
</a>
</g>
</g>
<!-- dir_ddecd9e18962a729d23ac56e30fa824b&#45;&gt;dir_56eb5a2a30d0e9e27f332686ad54846c -->
<g id="edge24" class="edge">
<title>dir_ddecd9e18962a729d23ac56e30fa824b&#45;&gt;dir_56eb5a2a30d0e9e27f332686ad54846c</title>
<g id="a_edge24"><a xlink:href="dir_000116_000028.html" target="_top">
<path fill="none" stroke="#63b8ff" d="M322.42,-164.75C321.11,-157.8 319.23,-147.85 317.58,-139.13"/>
<polygon fill="#63b8ff" stroke="#63b8ff" points="320.98,-138.27 315.69,-129.09 314.1,-139.56 320.98,-138.27"/>
</a>
</g>
<g id="a_edge24&#45;headlabel"><a xlink:href="dir_000116_000028.html" target="_top" xlink:title="6">
<text text-anchor="middle" x="324.44" y="-138.77" font-family="Helvetica,sans-Serif" font-size="10.00" fill="#63b8ff">6</text>
</a>
</g>
</g>
<!-- dir_ddecd9e18962a729d23ac56e30fa824b&#45;&gt;dir_aca6b06171d3710cdcd51681b6e59d2d -->
<g id="edge28" class="edge">
<title>dir_ddecd9e18962a729d23ac56e30fa824b&#45;&gt;dir_aca6b06171d3710cdcd51681b6e59d2d</title>
<g id="a_edge28"><a xlink:href="dir_000116_000054.html" target="_top">
<path fill="none" stroke="#63b8ff" d="M309.29,-164.98C294.89,-156.69 272.76,-143.94 255.88,-134.22"/>
<polygon fill="#63b8ff" stroke="#63b8ff" points="257.53,-131.13 247.12,-129.17 254.04,-137.19 257.53,-131.13"/>
</a>
</g>
<g id="a_edge28&#45;headlabel"><a xlink:href="dir_000116_000054.html" target="_top" xlink:title="3">
<text text-anchor="middle" x="262.06" y="-127.96" font-family="Helvetica,sans-Serif" font-size="10.00" fill="#63b8ff">3</text>
</a>
</g>
</g>
<!-- dir_ddecd9e18962a729d23ac56e30fa824b&#45;&gt;dir_37a029dcaa1a76caf2ff39f24d0096d4 -->
<g id="edge22" class="edge">
<title>dir_ddecd9e18962a729d23ac56e30fa824b&#45;&gt;dir_37a029dcaa1a76caf2ff39f24d0096d4</title>
<g id="a_edge22"><a xlink:href="dir_000116_000133.html" target="_top">
<path fill="none" stroke="#63b8ff" d="M294.91,-172.37C265.02,-169.47 219.91,-159.87 198.07,-129 188.24,-115.11 196.11,-96.08 204.5,-82.48"/>
<polygon fill="#63b8ff" stroke="#63b8ff" points="207.49,-84.31 210.19,-74.06 201.69,-80.39 207.49,-84.31"/>
</a>
</g>
<g id="a_edge22&#45;headlabel"><a xlink:href="dir_000116_000133.html" target="_top" xlink:title="4">
<text text-anchor="middle" x="207.83" y="-86.38" font-family="Helvetica,sans-Serif" font-size="10.00" fill="#63b8ff">4</text>
</a>
</g>
</g>
<!-- dir_ddecd9e18962a729d23ac56e30fa824b&#45;&gt;dir_1ca916e0b9fbc882dbfbd9e6594e5e22 -->
<g id="edge20" class="edge">
<title>dir_ddecd9e18962a729d23ac56e30fa824b&#45;&gt;dir_1ca916e0b9fbc882dbfbd9e6594e5e22</title>
<g id="a_edge20"><a xlink:href="dir_000116_000047.html" target="_top">
<path fill="none" stroke="#63b8ff" d="M343.63,-164.97C359.19,-157.38 380.67,-145.01 395.07,-129 406.85,-115.9 415.17,-97.52 420.2,-83.9"/>
<polygon fill="#63b8ff" stroke="#63b8ff" points="423.6,-84.78 423.54,-74.19 416.98,-82.51 423.6,-84.78"/>
</a>
</g>
<g id="a_edge20&#45;headlabel"><a xlink:href="dir_000116_000047.html" target="_top" xlink:title="7">
<text text-anchor="middle" x="425.12" y="-86.61" font-family="Helvetica,sans-Serif" font-size="10.00" fill="#63b8ff">7</text>
</a>
</g>
</g>
<!-- dir_ddecd9e18962a729d23ac56e30fa824b&#45;&gt;dir_268add6b94670641c68bb834cdcb4292 -->
<g id="edge21" class="edge">
<title>dir_ddecd9e18962a729d23ac56e30fa824b&#45;&gt;dir_268add6b94670641c68bb834cdcb4292</title>
<g id="a_edge21"><a xlink:href="dir_000116_000076.html" target="_top">
<path fill="none" stroke="#63b8ff" d="M294.85,-167.78C266.39,-161.34 222.65,-149.06 189.07,-129 158.57,-110.78 145.61,-106.41 131.07,-74 124.78,-59.99 124.74,-42.44 126.01,-29.34"/>
<polygon fill="#63b8ff" stroke="#63b8ff" points="129.52,-29.55 127.34,-19.18 122.58,-28.64 129.52,-29.55"/>
</a>
</g>
<g id="a_edge21&#45;headlabel"><a xlink:href="dir_000116_000076.html" target="_top" xlink:title="2">
<text text-anchor="middle" x="131.87" y="-30.98" font-family="Helvetica,sans-Serif" font-size="10.00" fill="#63b8ff">2</text>
</a>
</g>
</g>
<!-- dir_ddecd9e18962a729d23ac56e30fa824b&#45;&gt;dir_5a58a2ffe8660a7fc51fed7e0c7c898d -->
<g id="edge25" class="edge">
<title>dir_ddecd9e18962a729d23ac56e30fa824b&#45;&gt;dir_5a58a2ffe8660a7fc51fed7e0c7c898d</title>
<g id="a_edge25"><a xlink:href="dir_000116_000041.html" target="_top">
<path fill="none" stroke="#63b8ff" d="M346.88,-164.98C371.49,-155.8 410.73,-141.16 437.4,-131.2"/>
<polygon fill="#63b8ff" stroke="#63b8ff" points="438.81,-134.41 446.95,-127.63 436.36,-127.85 438.81,-134.41"/>
</a>
</g>
<g id="a_edge25&#45;headlabel"><a xlink:href="dir_000116_000041.html" target="_top" xlink:title="1">
<text text-anchor="middle" x="436.43" y="-135.83" font-family="Helvetica,sans-Serif" font-size="10.00" fill="#63b8ff">1</text>
</a>
</g>
</g>
<!-- dir_ddecd9e18962a729d23ac56e30fa824b&#45;&gt;dir_656b8020a7b0aa8521ec0615ad91cdfe -->
<g id="edge26" class="edge">
<title>dir_ddecd9e18962a729d23ac56e30fa824b&#45;&gt;dir_656b8020a7b0aa8521ec0615ad91cdfe</title>
<g id="a_edge26"><a xlink:href="dir_000116_000095.html" target="_top">
<path fill="none" stroke="#63b8ff" d="M353.26,-165.89C385.21,-157.56 438.22,-143.71 493.39,-129.17"/>
<polygon fill="#63b8ff" stroke="#63b8ff" points="494.57,-132.48 503.35,-126.55 492.78,-125.71 494.57,-132.48"/>
</a>
</g>
<g id="a_edge26&#45;headlabel"><a xlink:href="dir_000116_000095.html" target="_top" xlink:title="1">
<text text-anchor="middle" x="491.82" y="-133.64" font-family="Helvetica,sans-Serif" font-size="10.00" fill="#63b8ff">1</text>
</a>
</g>
</g>
<!-- dir_ddecd9e18962a729d23ac56e30fa824b&#45;&gt;dir_7002044952ee345c222d895bec1a9397 -->
<g id="edge27" class="edge">
<title>dir_ddecd9e18962a729d23ac56e30fa824b&#45;&gt;dir_7002044952ee345c222d895bec1a9397</title>
<g id="a_edge27"><a xlink:href="dir_000116_000103.html" target="_top">
<path fill="none" stroke="#63b8ff" d="M353.36,-168.48C395.96,-161.07 477.7,-146.39 556.73,-129.19"/>
<polygon fill="#63b8ff" stroke="#63b8ff" points="557.84,-132.53 566.86,-126.97 556.34,-125.7 557.84,-132.53"/>
</a>
</g>
<g id="a_edge27&#45;headlabel"><a xlink:href="dir_000116_000103.html" target="_top" xlink:title="3">
<text text-anchor="middle" x="554.93" y="-133.58" font-family="Helvetica,sans-Serif" font-size="10.00" fill="#63b8ff">3</text>
</a>
</g>
</g>
<!-- dir_ddecd9e18962a729d23ac56e30fa824b&#45;&gt;dir_bb685b75eb98702a3ab447756cde824e -->
<g id="edge29" class="edge">
<title>dir_ddecd9e18962a729d23ac56e30fa824b&#45;&gt;dir_bb685b75eb98702a3ab447756cde824e</title>
<g id="a_edge29"><a xlink:href="dir_000116_000092.html" target="_top">
<path fill="none" stroke="#63b8ff" d="M353.31,-169.77C405.71,-162.95 519.25,-147.62 625.4,-129.02"/>
<polygon fill="#63b8ff" stroke="#63b8ff" points="626.08,-132.46 635.32,-127.27 624.86,-125.56 626.08,-132.46"/>
</a>
</g>
<g id="a_edge29&#45;headlabel"><a xlink:href="dir_000116_000092.html" target="_top" xlink:title="1">
<text text-anchor="middle" x="623.03" y="-133.38" font-family="Helvetica,sans-Serif" font-size="10.00" fill="#63b8ff">1</text>
</a>
</g>
</g>
<!-- dir_ddecd9e18962a729d23ac56e30fa824b&#45;&gt;dir_fff8ef54a646d9df8d7b15d27474569f -->
<g id="edge31" class="edge">
<title>dir_ddecd9e18962a729d23ac56e30fa824b&#45;&gt;dir_fff8ef54a646d9df8d7b15d27474569f</title>
<g id="a_edge31"><a xlink:href="dir_000116_000094.html" target="_top">
<path fill="none" stroke="#63b8ff" d="M353.14,-171.3C415.94,-166.28 569.12,-152.73 706.37,-129.13"/>
<polygon fill="#63b8ff" stroke="#63b8ff" points="706.98,-132.58 716.23,-127.41 705.77,-125.68 706.98,-132.58"/>
</a>
</g>
<g id="a_edge31&#45;headlabel"><a xlink:href="dir_000116_000094.html" target="_top" xlink:title="12">
<text text-anchor="middle" x="703.92" y="-133.49" font-family="Helvetica,sans-Serif" font-size="10.00" fill="#63b8ff">12</text>
</a>
</g>
</g>
<!-- dir_ddecd9e18962a729d23ac56e30fa824b&#45;&gt;dir_3e2f71566425d27b6ac8140f1223a941 -->
<g id="edge23" class="edge">
<title>dir_ddecd9e18962a729d23ac56e30fa824b&#45;&gt;dir_3e2f71566425d27b6ac8140f1223a941</title>
<g id="a_edge23"><a xlink:href="dir_000116_000138.html" target="_top">
<path fill="none" stroke="#63b8ff" d="M334.78,-164.93C344,-156.8 356.65,-143.68 362.07,-129 375.21,-93.37 352.39,-50.8 336.8,-27.62"/>
<polygon fill="#63b8ff" stroke="#63b8ff" points="339.49,-25.37 330.88,-19.21 333.77,-29.4 339.49,-25.37"/>
</a>
</g>
<g id="a_edge23&#45;headlabel"><a xlink:href="dir_000116_000138.html" target="_top" xlink:title="2">
<text text-anchor="middle" x="343.89" y="-24.18" font-family="Helvetica,sans-Serif" font-size="10.00" fill="#63b8ff">2</text>
</a>
</g>
</g>
<!-- dir_e1a38fd6dc0543c7f97fb1ccf1615de7 -->
<g id="node15" class="node">
<title>dir_e1a38fd6dc0543c7f97fb1ccf1615de7</title>
<g id="a_node15"><a xlink:href="dir_e1a38fd6dc0543c7f97fb1ccf1615de7.html" target="_top" xlink:title="mechanics">
<polygon fill="#edf0f7" stroke="red" stroke-dasharray="5,2" points="86.57,-129 17.57,-129 17.57,-110 86.57,-110 86.57,-129"/>
<text text-anchor="middle" x="52.07" y="-117" font-family="Helvetica,sans-Serif" font-size="10.00">mechanics</text>
</a>
</g>
</g>
<!-- dir_ddecd9e18962a729d23ac56e30fa824b&#45;&gt;dir_e1a38fd6dc0543c7f97fb1ccf1615de7 -->
<g id="edge30" class="edge">
<title>dir_ddecd9e18962a729d23ac56e30fa824b&#45;&gt;dir_e1a38fd6dc0543c7f97fb1ccf1615de7</title>
<g id="a_edge30"><a xlink:href="dir_000116_000077.html" target="_top">
<path fill="none" stroke="#63b8ff" d="M294.96,-167.83C247.48,-158.58 153.05,-140.18 96.94,-129.24"/>
<polygon fill="#63b8ff" stroke="#63b8ff" points="97.42,-125.77 86.93,-127.29 96.08,-132.64 97.42,-125.77"/>
</a>
</g>
<g id="a_edge30&#45;headlabel"><a xlink:href="dir_000116_000077.html" target="_top" xlink:title="1">
<text text-anchor="middle" x="101.49" y="-121.17" font-family="Helvetica,sans-Serif" font-size="10.00" fill="#63b8ff">1</text>
</a>
</g>
</g>
<!-- dir_37a029dcaa1a76caf2ff39f24d0096d4&#45;&gt;dir_268add6b94670641c68bb834cdcb4292 -->
<g id="edge32" class="edge">
<title>dir_37a029dcaa1a76caf2ff39f24d0096d4&#45;&gt;dir_268add6b94670641c68bb834cdcb4292</title>
<g id="a_edge32"><a xlink:href="dir_000133_000076.html" target="_top">
<path fill="none" stroke="#63b8ff" d="M204.93,-54.81C198.04,-49.99 189.19,-43.97 181.07,-39 172.65,-33.84 163.24,-28.55 154.76,-23.95"/>
<polygon fill="#63b8ff" stroke="#63b8ff" points="156.16,-20.73 145.69,-19.09 152.85,-26.9 156.16,-20.73"/>
</a>
</g>
<g id="a_edge32&#45;headlabel"><a xlink:href="dir_000133_000076.html" target="_top" xlink:title="1">
<text text-anchor="middle" x="160.67" y="-17.42" font-family="Helvetica,sans-Serif" font-size="10.00" fill="#63b8ff">1</text>
</a>
</g>
</g>
<!-- dir_37a029dcaa1a76caf2ff39f24d0096d4&#45;&gt;dir_3e2f71566425d27b6ac8140f1223a941 -->
<g id="edge33" class="edge">
<title>dir_37a029dcaa1a76caf2ff39f24d0096d4&#45;&gt;dir_3e2f71566425d27b6ac8140f1223a941</title>
<g id="a_edge33"><a xlink:href="dir_000133_000138.html" target="_top">
<path fill="none" stroke="#63b8ff" d="M234.26,-54.98C251.72,-46.33 278.96,-32.84 298.86,-22.98"/>
<polygon fill="#63b8ff" stroke="#63b8ff" points="300.56,-26.05 307.97,-18.47 297.46,-19.78 300.56,-26.05"/>
</a>
</g>
<g id="a_edge33&#45;headlabel"><a xlink:href="dir_000133_000138.html" target="_top" xlink:title="1">
<text text-anchor="middle" x="298.6" y="-27.69" font-family="Helvetica,sans-Serif" font-size="10.00" fill="#63b8ff">1</text>
</a>
</g>
</g>
<!-- dir_37a029dcaa1a76caf2ff39f24d0096d4&#45;&gt;dir_4e12247f2bbe360a59cd98a83515e8f1 -->
<g id="edge34" class="edge">
<title>dir_37a029dcaa1a76caf2ff39f24d0096d4&#45;&gt;dir_4e12247f2bbe360a59cd98a83515e8f1</title>
<g id="a_edge34"><a xlink:href="dir_000133_000040.html" target="_top">
<path fill="none" stroke="#63b8ff" d="M219.88,-54.75C222.13,-47.72 225.37,-37.62 228.18,-28.84"/>
<polygon fill="#63b8ff" stroke="#63b8ff" points="231.59,-29.68 231.31,-19.09 224.93,-27.54 231.59,-29.68"/>
</a>
</g>
<g id="a_edge34&#45;headlabel"><a xlink:href="dir_000133_000040.html" target="_top" xlink:title="1">
<text text-anchor="middle" x="233.2" y="-31.47" font-family="Helvetica,sans-Serif" font-size="10.00" fill="#63b8ff">1</text>
</a>
</g>
</g>
</g>
</svg>

<g id="navigator" transform="translate(0 0)" fill="#404254">
  <rect fill="#f2f5e9" fill-opacity="0.5" stroke="#606060" stroke-width=".5" x="0" y="0" width="60" height="60"/>
  <use id="zoomplus" xlink:href="#zoomPlus" x="17" y="9" onmousedown="handleZoom(evt,'in')"/>
  <use id="zoomminus" xlink:href="#zoomMin" x="42" y="9" onmousedown="handleZoom(evt,'out')"/>
  <use id="reset" xlink:href="#resetDef" x="30" y="36" onmousedown="handleReset()"/>
   <use id="arrowup" xlink:href="#arrowUp" x="0" y="0" onmousedown="handlePan(0,-1)"/>
  <use id="arrowright" xlink:href="#arrowRight" x="0" y="0" onmousedown="handlePan(1,0)"/>
  <use id="arrowdown" xlink:href="#arrowDown" x="0" y="0" onmousedown="handlePan(0,1)"/>
  <use id="arrowleft" xlink:href="#arrowLeft" x="0" y="0" onmousedown="handlePan(-1,0)"/>
</g>
<svg viewBox="0 0 15 15" width="100%" height="30px" preserveAspectRatio="xMaxYMin meet">
 <g id="arrow_out" transform="scale(0.3 0.3)">
  <a xlink:href="dir_236484ddeaee6e9ef038329dc0f2f448_dep_org.svg" target="_base">
   <rect id="button" ry="5" rx="5" y="6" x="6" height="38" width="38"
        fill="#f2f5e9" fill-opacity="0.5" stroke="#606060" stroke-width="1.0"/>
   <path id="arrow"
     d="M 11.500037,31.436501 C 11.940474,20.09759 22.043105,11.32322 32.158766,21.979434 L 37.068811,17.246167 C 37.068811,17.246167 37.088388,32 37.088388,32 L 22.160133,31.978069 C 22.160133,31.978069 26.997745,27.140456 26.997745,27.140456 C 18.528582,18.264221 13.291696,25.230495 11.500037,31.436501 z"
     style="fill:#404040;"/>
  </a>
 </g>
</svg>

<style type='text/css'>
<![CDATA[
[data-mouse-over-selected='false'] { opacity: 0.7; }
[data-mouse-over-selected='true']  { opacity: 1.0; }
]]>
</style>
<script type="application/ecmascript"><![CDATA[
document.addEventListener('DOMContentLoaded', (event) => {
  highlightEdges();
  highlightAdjacentNodes();
});
]]></script>
</svg>
