<?xml version="1.0" encoding="UTF-8" standalone="no"?>
<!DOCTYPE svg PUBLIC "-//W3C//DTD SVG 1.1//EN"
 "http://www.w3.org/Graphics/SVG/1.1/DTD/svg11.dtd">
<!-- Generated by graphviz version 2.43.0 (0)
 -->
<!-- Title: combat Pages: 1 -->
<svg width="571pt" height="235pt"
 viewBox="0.00 0.00 571.00 235.00" xmlns="http://www.w3.org/2000/svg" xmlns:xlink="http://www.w3.org/1999/xlink">
<g id="graph0" class="graph" transform="scale(1 1) rotate(0) translate(4 231)">
<title>combat</title>
<g id="clust1" class="cluster">
<title>clusterdir_e1a38fd6dc0543c7f97fb1ccf1615de7</title>
<g id="a_clust1"><a xlink:href="dir_e1a38fd6dc0543c7f97fb1ccf1615de7.html" target="_top" xlink:title="mechanics">
<polygon fill="#edf0f7" stroke="#7f7f7f" stroke-dasharray="5,2" points="16.5,-39 16.5,-219 282.5,-219 282.5,-39 16.5,-39"/>
<text text-anchor="middle" x="149.5" y="-207" font-family="Helvetica,sans-Serif" font-size="10.00">mechanics</text>
</a>
</g>
</g>
<g id="clust2" class="cluster">
<title>clusterdir_d368ce8d6920c000d21f916ca5b7e02f</title>
<g id="a_clust2"><a xlink:href="dir_d368ce8d6920c000d21f916ca5b7e02f.html" target="_top">
<polygon fill="#edf0f7" stroke="#404040" stroke-width="2" points="24.5,-47 24.5,-192 208.5,-192 208.5,-47 24.5,-47"/>
</a>
</g>
</g>
<!-- dir_c8ba3234849006b257a05b362b115823 -->
<g id="node1" class="node">
<title>dir_c8ba3234849006b257a05b362b115823</title>
<g id="a_node1"><a xlink:href="dir_c8ba3234849006b257a05b362b115823.html" target="_top" xlink:title="lifecycle">
<polygon fill="#a2b4d6" stroke="red" points="274.5,-74 216.5,-74 216.5,-55 274.5,-55 274.5,-74"/>
<text text-anchor="middle" x="245.5" y="-62" font-family="Helvetica,sans-Serif" font-size="10.00">lifecycle</text>
</a>
</g>
</g>
<!-- dir_d368ce8d6920c000d21f916ca5b7e02f -->
<g id="node2" class="node">
<title>dir_d368ce8d6920c000d21f916ca5b7e02f</title>
<text text-anchor="middle" x="95.5" y="-172" font-family="Helvetica,sans-Serif" font-size="10.00">combat</text>
</g>
<!-- dir_7d3bcdf99a77c1f991d9debddb7a154b -->
<g id="node3" class="node">
<title>dir_7d3bcdf99a77c1f991d9debddb7a154b</title>
<g id="a_node3"><a xlink:href="dir_7d3bcdf99a77c1f991d9debddb7a154b.html" target="_top" xlink:title="commands">
<polygon fill="#a2b4d6" stroke="#404040" points="104,-129 33,-129 33,-110 104,-110 104,-129"/>
<text text-anchor="middle" x="68.5" y="-117" font-family="Helvetica,sans-Serif" font-size="10.00">commands</text>
</a>
</g>
</g>
<!-- dir_d368ce8d6920c000d21f916ca5b7e02f&#45;&gt;dir_7d3bcdf99a77c1f991d9debddb7a154b -->
<g id="edge2" class="edge">
<title>dir_d368ce8d6920c000d21f916ca5b7e02f&#45;&gt;dir_7d3bcdf99a77c1f991d9debddb7a154b</title>
<g id="a_edge2"><a xlink:href="dir_000013_000015.html" target="_top">
<path fill="none" stroke="#63b8ff" d="M91.04,-164.75C87.38,-157.57 82.09,-147.18 77.55,-138.27"/>
<polygon fill="#63b8ff" stroke="#63b8ff" points="80.53,-136.41 72.88,-129.09 74.3,-139.59 80.53,-136.41"/>
</a>
</g>
<g id="a_edge2&#45;headlabel"><a xlink:href="dir_000013_000015.html" target="_top" xlink:title="1">
<text text-anchor="middle" x="84.7" y="-135.82" font-family="Helvetica,sans-Serif" font-size="10.00" fill="#63b8ff">1</text>
</a>
</g>
</g>
<!-- dir_991442008f2dac028067584555d54581 -->
<g id="node4" class="node">
<title>dir_991442008f2dac028067584555d54581</title>
<g id="a_node4"><a xlink:href="dir_991442008f2dac028067584555d54581.html" target="_top" xlink:title="components">
<polygon fill="#a2b4d6" stroke="#404040" points="198,-74 121,-74 121,-55 198,-55 198,-74"/>
<text text-anchor="middle" x="159.5" y="-62" font-family="Helvetica,sans-Serif" font-size="10.00">components</text>
</a>
</g>
</g>
<!-- dir_d368ce8d6920c000d21f916ca5b7e02f&#45;&gt;dir_991442008f2dac028067584555d54581 -->
<g id="edge3" class="edge">
<title>dir_d368ce8d6920c000d21f916ca5b7e02f&#45;&gt;dir_991442008f2dac028067584555d54581</title>
<g id="a_edge3"><a xlink:href="dir_000013_000029.html" target="_top">
<path fill="none" stroke="#63b8ff" d="M100.74,-164.66C111.29,-146.85 135.28,-106.37 149.13,-83.01"/>
<polygon fill="#63b8ff" stroke="#63b8ff" points="152.28,-84.55 154.37,-74.16 146.26,-80.98 152.28,-84.55"/>
</a>
</g>
<g id="a_edge3&#45;headlabel"><a xlink:href="dir_000013_000029.html" target="_top" xlink:title="6">
<text text-anchor="middle" x="152.89" y="-86.59" font-family="Helvetica,sans-Serif" font-size="10.00" fill="#63b8ff">6</text>
</a>
</g>
</g>
<!-- dir_9f8a06593596762c781b6162de719b91 -->
<g id="node5" class="node">
<title>dir_9f8a06593596762c781b6162de719b91</title>
<g id="a_node5"><a xlink:href="dir_9f8a06593596762c781b6162de719b91.html" target="_top" xlink:title="systems">
<polygon fill="#a2b4d6" stroke="#404040" points="200.5,-129 142.5,-129 142.5,-110 200.5,-110 200.5,-129"/>
<text text-anchor="middle" x="171.5" y="-117" font-family="Helvetica,sans-Serif" font-size="10.00">systems</text>
</a>
</g>
</g>
<!-- dir_d368ce8d6920c000d21f916ca5b7e02f&#45;&gt;dir_9f8a06593596762c781b6162de719b91 -->
<g id="edge4" class="edge">
<title>dir_d368ce8d6920c000d21f916ca5b7e02f&#45;&gt;dir_9f8a06593596762c781b6162de719b91</title>
<g id="a_edge4"><a xlink:href="dir_000013_000135.html" target="_top">
<path fill="none" stroke="#63b8ff" d="M107.71,-164.98C119.28,-156.92 136.88,-144.65 150.66,-135.03"/>
<polygon fill="#63b8ff" stroke="#63b8ff" points="152.87,-137.76 159.07,-129.17 148.86,-132.02 152.87,-137.76"/>
</a>
</g>
<g id="a_edge4&#45;headlabel"><a xlink:href="dir_000013_000135.html" target="_top" xlink:title="1">
<text text-anchor="middle" x="151.54" y="-139.65" font-family="Helvetica,sans-Serif" font-size="10.00" fill="#63b8ff">1</text>
</a>
</g>
</g>
<!-- dir_1ca916e0b9fbc882dbfbd9e6594e5e22 -->
<g id="node6" class="node">
<title>dir_1ca916e0b9fbc882dbfbd9e6594e5e22</title>
<g id="a_node6"><a xlink:href="dir_1ca916e0b9fbc882dbfbd9e6594e5e22.html" target="_top" xlink:title="ecs">
<polygon fill="#edf0f7" stroke="red" stroke-dasharray="5,2" points="33,-19 0,-19 0,0 33,0 33,-19"/>
<text text-anchor="middle" x="16.5" y="-7" font-family="Helvetica,sans-Serif" font-size="10.00">ecs</text>
</a>
</g>
</g>
<!-- dir_d368ce8d6920c000d21f916ca5b7e02f&#45;&gt;dir_1ca916e0b9fbc882dbfbd9e6594e5e22 -->
<g id="edge1" class="edge">
<title>dir_d368ce8d6920c000d21f916ca5b7e02f&#45;&gt;dir_1ca916e0b9fbc882dbfbd9e6594e5e22</title>
<g id="a_edge1"><a xlink:href="dir_000013_000066.html" target="_top">
<path fill="none" stroke="#63b8ff" d="M71.07,-164.98C54.92,-157.98 34.88,-146.35 24.5,-129 5.95,-97.99 9.05,-53.91 12.85,-29.18"/>
<polygon fill="#63b8ff" stroke="#63b8ff" points="16.35,-29.47 14.62,-19.02 9.45,-28.26 16.35,-29.47"/>
</a>
</g>
<g id="a_edge1&#45;headlabel"><a xlink:href="dir_000013_000066.html" target="_top" xlink:title="6">
<text text-anchor="middle" x="18.53" y="-31" font-family="Helvetica,sans-Serif" font-size="10.00" fill="#63b8ff">6</text>
</a>
</g>
</g>
<!-- dir_7d3bcdf99a77c1f991d9debddb7a154b&#45;&gt;dir_991442008f2dac028067584555d54581 -->
<g id="edge8" class="edge">
<title>dir_7d3bcdf99a77c1f991d9debddb7a154b&#45;&gt;dir_991442008f2dac028067584555d54581</title>
<g id="a_edge8"><a xlink:href="dir_000015_000029.html" target="_top">
<path fill="none" stroke="#63b8ff" d="M83.12,-109.98C97.36,-101.69 119.25,-88.94 135.95,-79.22"/>
<polygon fill="#63b8ff" stroke="#63b8ff" points="137.73,-82.23 144.61,-74.17 134.21,-76.18 137.73,-82.23"/>
</a>
</g>
<g id="a_edge8&#45;headlabel"><a xlink:href="dir_000015_000029.html" target="_top" xlink:title="2">
<text text-anchor="middle" x="136.06" y="-83.99" font-family="Helvetica,sans-Serif" font-size="10.00" fill="#63b8ff">2</text>
</a>
</g>
</g>
<!-- dir_7d3bcdf99a77c1f991d9debddb7a154b&#45;&gt;dir_1ca916e0b9fbc882dbfbd9e6594e5e22 -->
<g id="edge5" class="edge">
<title>dir_7d3bcdf99a77c1f991d9debddb7a154b&#45;&gt;dir_1ca916e0b9fbc882dbfbd9e6594e5e22</title>
<g id="a_edge5"><a xlink:href="dir_000015_000066.html" target="_top">
<path fill="none" stroke="#63b8ff" d="M64.24,-109.66C55.71,-91.93 36.35,-51.73 25.08,-28.32"/>
<polygon fill="#63b8ff" stroke="#63b8ff" points="28.16,-26.65 20.67,-19.16 21.85,-29.69 28.16,-26.65"/>
</a>
</g>
<g id="a_edge5&#45;headlabel"><a xlink:href="dir_000015_000066.html" target="_top" xlink:title="2">
<text text-anchor="middle" x="32.28" y="-26.16" font-family="Helvetica,sans-Serif" font-size="10.00" fill="#63b8ff">2</text>
</a>
</g>
</g>
<!-- dir_fff8ef54a646d9df8d7b15d27474569f -->
<g id="node7" class="node">
<title>dir_fff8ef54a646d9df8d7b15d27474569f</title>
<g id="a_node7"><a xlink:href="dir_fff8ef54a646d9df8d7b15d27474569f.html" target="_top" xlink:title="runtime">
<polygon fill="#edf0f7" stroke="red" stroke-dasharray="5,2" points="120,-19 65,-19 65,0 120,0 120,-19"/>
<text text-anchor="middle" x="92.5" y="-7" font-family="Helvetica,sans-Serif" font-size="10.00">runtime</text>
</a>
</g>
</g>
<!-- dir_7d3bcdf99a77c1f991d9debddb7a154b&#45;&gt;dir_fff8ef54a646d9df8d7b15d27474569f -->
<g id="edge9" class="edge">
<title>dir_7d3bcdf99a77c1f991d9debddb7a154b&#45;&gt;dir_fff8ef54a646d9df8d7b15d27474569f</title>
<g id="a_edge9"><a xlink:href="dir_000015_000118.html" target="_top">
<path fill="none" stroke="#63b8ff" d="M68.65,-109.96C69.12,-95.18 71,-64.05 78.5,-39 79.58,-35.41 81.07,-31.71 82.68,-28.22"/>
<polygon fill="#63b8ff" stroke="#63b8ff" points="85.87,-29.67 87.3,-19.18 79.63,-26.49 85.87,-29.67"/>
</a>
</g>
<g id="a_edge9&#45;headlabel"><a xlink:href="dir_000015_000118.html" target="_top" xlink:title="4">
<text text-anchor="middle" x="86.76" y="-31.67" font-family="Helvetica,sans-Serif" font-size="10.00" fill="#63b8ff">4</text>
</a>
</g>
</g>
<!-- dir_268add6b94670641c68bb834cdcb4292 -->
<g id="node8" class="node">
<title>dir_268add6b94670641c68bb834cdcb4292</title>
<g id="a_node8"><a xlink:href="dir_268add6b94670641c68bb834cdcb4292.html" target="_top" xlink:title="math">
<polygon fill="#edf0f7" stroke="red" stroke-dasharray="5,2" points="323.5,-19 281.5,-19 281.5,0 323.5,0 323.5,-19"/>
<text text-anchor="middle" x="302.5" y="-7" font-family="Helvetica,sans-Serif" font-size="10.00">math</text>
</a>
</g>
</g>
<!-- dir_7d3bcdf99a77c1f991d9debddb7a154b&#45;&gt;dir_268add6b94670641c68bb834cdcb4292 -->
<g id="edge6" class="edge">
<title>dir_7d3bcdf99a77c1f991d9debddb7a154b&#45;&gt;dir_268add6b94670641c68bb834cdcb4292</title>
<g id="a_edge6"><a xlink:href="dir_000015_000098.html" target="_top">
<path fill="none" stroke="#63b8ff" d="M104.16,-113.33C162.55,-104.57 273.41,-86.51 286.5,-74 298.43,-62.6 301.98,-43.7 302.81,-29.48"/>
<polygon fill="#63b8ff" stroke="#63b8ff" points="306.31,-29.38 303,-19.31 299.31,-29.25 306.31,-29.38"/>
</a>
</g>
<g id="a_edge6&#45;headlabel"><a xlink:href="dir_000015_000098.html" target="_top" xlink:title="2">
<text text-anchor="middle" x="309.08" y="-30.53" font-family="Helvetica,sans-Serif" font-size="10.00" fill="#63b8ff">2</text>
</a>
</g>
</g>
<!-- dir_87b9f5c33f5a8f4d48db11d48f10a572 -->
<g id="node9" class="node">
<title>dir_87b9f5c33f5a8f4d48db11d48f10a572</title>
<g id="a_node9"><a xlink:href="dir_87b9f5c33f5a8f4d48db11d48f10a572.html" target="_top" xlink:title="modules">
<polygon fill="#edf0f7" stroke="red" stroke-dasharray="5,2" points="408,-19 349,-19 349,0 408,0 408,-19"/>
<text text-anchor="middle" x="378.5" y="-7" font-family="Helvetica,sans-Serif" font-size="10.00">modules</text>
</a>
</g>
</g>
<!-- dir_7d3bcdf99a77c1f991d9debddb7a154b&#45;&gt;dir_87b9f5c33f5a8f4d48db11d48f10a572 -->
<g id="edge7" class="edge">
<title>dir_7d3bcdf99a77c1f991d9debddb7a154b&#45;&gt;dir_87b9f5c33f5a8f4d48db11d48f10a572</title>
<g id="a_edge7"><a xlink:href="dir_000015_000105.html" target="_top">
<path fill="none" stroke="#63b8ff" d="M104.38,-112.92C166.57,-103.07 289.51,-82.84 307.5,-74 330.58,-62.66 351.81,-41.67 364.93,-26.93"/>
<polygon fill="#63b8ff" stroke="#63b8ff" points="367.8,-28.97 371.67,-19.1 362.49,-24.4 367.8,-28.97"/>
</a>
</g>
<g id="a_edge7&#45;headlabel"><a xlink:href="dir_000015_000105.html" target="_top" xlink:title="1">
<text text-anchor="middle" x="367.61" y="-31.04" font-family="Helvetica,sans-Serif" font-size="10.00" fill="#63b8ff">1</text>
</a>
</g>
</g>
<!-- dir_991442008f2dac028067584555d54581&#45;&gt;dir_1ca916e0b9fbc882dbfbd9e6594e5e22 -->
<g id="edge10" class="edge">
<title>dir_991442008f2dac028067584555d54581&#45;&gt;dir_1ca916e0b9fbc882dbfbd9e6594e5e22</title>
<g id="a_edge10"><a xlink:href="dir_000029_000066.html" target="_top">
<path fill="none" stroke="#63b8ff" d="M136.52,-54.98C110.9,-45.49 69.54,-30.16 42.68,-20.2"/>
<polygon fill="#63b8ff" stroke="#63b8ff" points="43.76,-16.87 33.16,-16.68 41.32,-23.43 43.76,-16.87"/>
</a>
</g>
<g id="a_edge10&#45;headlabel"><a xlink:href="dir_000029_000066.html" target="_top" xlink:title="3">
<text text-anchor="middle" x="48.11" y="-12.96" font-family="Helvetica,sans-Serif" font-size="10.00" fill="#63b8ff">3</text>
</a>
</g>
</g>
<!-- dir_991442008f2dac028067584555d54581&#45;&gt;dir_fff8ef54a646d9df8d7b15d27474569f -->
<g id="edge13" class="edge">
<title>dir_991442008f2dac028067584555d54581&#45;&gt;dir_fff8ef54a646d9df8d7b15d27474569f</title>
<g id="a_edge13"><a xlink:href="dir_000029_000118.html" target="_top">
<path fill="none" stroke="#63b8ff" d="M148.74,-54.98C138.73,-47.07 123.61,-35.11 111.57,-25.58"/>
<polygon fill="#63b8ff" stroke="#63b8ff" points="113.47,-22.63 103.46,-19.17 109.13,-28.12 113.47,-22.63"/>
</a>
</g>
<g id="a_edge13&#45;headlabel"><a xlink:href="dir_000029_000118.html" target="_top" xlink:title="1">
<text text-anchor="middle" x="118.06" y="-20.13" font-family="Helvetica,sans-Serif" font-size="10.00" fill="#63b8ff">1</text>
</a>
</g>
</g>
<!-- dir_991442008f2dac028067584555d54581&#45;&gt;dir_268add6b94670641c68bb834cdcb4292 -->
<g id="edge11" class="edge">
<title>dir_991442008f2dac028067584555d54581&#45;&gt;dir_268add6b94670641c68bb834cdcb4292</title>
<g id="a_edge11"><a xlink:href="dir_000029_000098.html" target="_top">
<path fill="none" stroke="#63b8ff" d="M172.63,-54.92C180.94,-49.77 192.04,-43.39 202.5,-39 224.89,-29.59 251.37,-22.2 271.45,-17.3"/>
<polygon fill="#63b8ff" stroke="#63b8ff" points="272.39,-20.68 281.32,-14.97 270.78,-13.87 272.39,-20.68"/>
</a>
</g>
<g id="a_edge11&#45;headlabel"><a xlink:href="dir_000029_000098.html" target="_top" xlink:title="3">
<text text-anchor="middle" x="269.54" y="-21.77" font-family="Helvetica,sans-Serif" font-size="10.00" fill="#63b8ff">3</text>
</a>
</g>
</g>
<!-- dir_991442008f2dac028067584555d54581&#45;&gt;dir_87b9f5c33f5a8f4d48db11d48f10a572 -->
<g id="edge12" class="edge">
<title>dir_991442008f2dac028067584555d54581&#45;&gt;dir_87b9f5c33f5a8f4d48db11d48f10a572</title>
<g id="a_edge12"><a xlink:href="dir_000029_000105.html" target="_top">
<path fill="none" stroke="#63b8ff" d="M171.71,-54.93C180.02,-49.52 191.47,-42.84 202.5,-39 257.7,-19.77 274.86,-28.76 332.5,-19 334.56,-18.65 336.68,-18.29 338.81,-17.91"/>
<polygon fill="#63b8ff" stroke="#63b8ff" points="339.6,-21.33 348.83,-16.12 338.37,-14.44 339.6,-21.33"/>
</a>
</g>
<g id="a_edge12&#45;headlabel"><a xlink:href="dir_000029_000105.html" target="_top" xlink:title="1">
<text text-anchor="middle" x="336.56" y="-22.25" font-family="Helvetica,sans-Serif" font-size="10.00" fill="#63b8ff">1</text>
</a>
</g>
</g>
<!-- dir_9f8a06593596762c781b6162de719b91&#45;&gt;dir_c8ba3234849006b257a05b362b115823 -->
<g id="edge19" class="edge">
<title>dir_9f8a06593596762c781b6162de719b91&#45;&gt;dir_c8ba3234849006b257a05b362b115823</title>
<g id="a_edge19"><a xlink:href="dir_000135_000093.html" target="_top">
<path fill="none" stroke="#63b8ff" d="M183.39,-109.98C194.65,-101.92 211.79,-89.65 225.21,-80.03"/>
<polygon fill="#63b8ff" stroke="#63b8ff" points="227.3,-82.84 233.39,-74.17 223.23,-77.15 227.3,-82.84"/>
</a>
</g>
<g id="a_edge19&#45;headlabel"><a xlink:href="dir_000135_000093.html" target="_top" xlink:title="1">
<text text-anchor="middle" x="226.03" y="-84.74" font-family="Helvetica,sans-Serif" font-size="10.00" fill="#63b8ff">1</text>
</a>
</g>
</g>
<!-- dir_9f8a06593596762c781b6162de719b91&#45;&gt;dir_991442008f2dac028067584555d54581 -->
<g id="edge18" class="edge">
<title>dir_9f8a06593596762c781b6162de719b91&#45;&gt;dir_991442008f2dac028067584555d54581</title>
<g id="a_edge18"><a xlink:href="dir_000135_000029.html" target="_top">
<path fill="none" stroke="#63b8ff" d="M169.52,-109.75C167.93,-102.72 165.64,-92.62 163.65,-83.84"/>
<polygon fill="#63b8ff" stroke="#63b8ff" points="167.07,-83.07 161.44,-74.09 160.24,-84.62 167.07,-83.07"/>
</a>
</g>
<g id="a_edge18&#45;headlabel"><a xlink:href="dir_000135_000029.html" target="_top" xlink:title="2">
<text text-anchor="middle" x="170.63" y="-83.45" font-family="Helvetica,sans-Serif" font-size="10.00" fill="#63b8ff">2</text>
</a>
</g>
</g>
<!-- dir_9f8a06593596762c781b6162de719b91&#45;&gt;dir_fff8ef54a646d9df8d7b15d27474569f -->
<g id="edge20" class="edge">
<title>dir_9f8a06593596762c781b6162de719b91&#45;&gt;dir_fff8ef54a646d9df8d7b15d27474569f</title>
<g id="a_edge20"><a xlink:href="dir_000135_000118.html" target="_top">
<path fill="none" stroke="#63b8ff" d="M154.97,-109.86C141.7,-102.13 123.53,-89.62 112.5,-74 103.02,-60.58 97.9,-42.47 95.22,-29.03"/>
<polygon fill="#63b8ff" stroke="#63b8ff" points="98.65,-28.31 93.51,-19.04 91.75,-29.49 98.65,-28.31"/>
</a>
</g>
<g id="a_edge20&#45;headlabel"><a xlink:href="dir_000135_000118.html" target="_top" xlink:title="7">
<text text-anchor="middle" x="102.06" y="-28.87" font-family="Helvetica,sans-Serif" font-size="10.00" fill="#63b8ff">7</text>
</a>
</g>
</g>
<!-- dir_9f8a06593596762c781b6162de719b91&#45;&gt;dir_268add6b94670641c68bb834cdcb4292 -->
<g id="edge15" class="edge">
<title>dir_9f8a06593596762c781b6162de719b91&#45;&gt;dir_268add6b94670641c68bb834cdcb4292</title>
<g id="a_edge15"><a xlink:href="dir_000135_000098.html" target="_top">
<path fill="none" stroke="#63b8ff" d="M200.59,-119C234.68,-117.81 289.89,-110 316.5,-74 326.33,-60.7 320.33,-41.84 313.4,-28.13"/>
<polygon fill="#63b8ff" stroke="#63b8ff" points="316.34,-26.22 308.39,-19.21 310.23,-29.64 316.34,-26.22"/>
</a>
</g>
<g id="a_edge15&#45;headlabel"><a xlink:href="dir_000135_000098.html" target="_top" xlink:title="1">
<text text-anchor="middle" x="320.57" y="-25.47" font-family="Helvetica,sans-Serif" font-size="10.00" fill="#63b8ff">1</text>
</a>
</g>
</g>
<!-- dir_9f8a06593596762c781b6162de719b91&#45;&gt;dir_87b9f5c33f5a8f4d48db11d48f10a572 -->
<g id="edge16" class="edge">
<title>dir_9f8a06593596762c781b6162de719b91&#45;&gt;dir_87b9f5c33f5a8f4d48db11d48f10a572</title>
<g id="a_edge16"><a xlink:href="dir_000135_000105.html" target="_top">
<path fill="none" stroke="#63b8ff" d="M200.72,-117.05C255.11,-113.68 368.57,-103.22 392.5,-74 402.97,-61.21 396.88,-42.27 389.75,-28.4"/>
<polygon fill="#63b8ff" stroke="#63b8ff" points="392.59,-26.32 384.6,-19.37 386.51,-29.79 392.59,-26.32"/>
</a>
</g>
<g id="a_edge16&#45;headlabel"><a xlink:href="dir_000135_000105.html" target="_top" xlink:title="1">
<text text-anchor="middle" x="396.84" y="-25.53" font-family="Helvetica,sans-Serif" font-size="10.00" fill="#63b8ff">1</text>
</a>
</g>
</g>
<!-- dir_1a83b528599da40ca3e2005a9bc9336b -->
<g id="node10" class="node">
<title>dir_1a83b528599da40ca3e2005a9bc9336b</title>
<g id="a_node10"><a xlink:href="dir_1a83b528599da40ca3e2005a9bc9336b.html" target="_top" xlink:title="common">
<polygon fill="#edf0f7" stroke="red" stroke-dasharray="5,2" points="504,-74 445,-74 445,-55 504,-55 504,-74"/>
<text text-anchor="middle" x="474.5" y="-62" font-family="Helvetica,sans-Serif" font-size="10.00">common</text>
</a>
</g>
</g>
<!-- dir_9f8a06593596762c781b6162de719b91&#45;&gt;dir_1a83b528599da40ca3e2005a9bc9336b -->
<g id="edge14" class="edge">
<title>dir_9f8a06593596762c781b6162de719b91&#45;&gt;dir_1a83b528599da40ca3e2005a9bc9336b</title>
<g id="a_edge14"><a xlink:href="dir_000135_000024.html" target="_top">
<path fill="none" stroke="#63b8ff" d="M200.67,-113.69C248.65,-105.73 347.24,-89.19 430.5,-74 431.79,-73.76 433.1,-73.52 434.43,-73.28"/>
<polygon fill="#63b8ff" stroke="#63b8ff" points="435.51,-76.63 444.69,-71.34 434.22,-69.76 435.51,-76.63"/>
</a>
</g>
<g id="a_edge14&#45;headlabel"><a xlink:href="dir_000135_000024.html" target="_top" xlink:title="1">
<text text-anchor="middle" x="432.51" y="-77.59" font-family="Helvetica,sans-Serif" font-size="10.00" fill="#63b8ff">1</text>
</a>
</g>
</g>
<!-- dir_94b0c4fb82528c4245604725780b49de -->
<g id="node11" class="node">
<title>dir_94b0c4fb82528c4245604725780b49de</title>
<g id="a_node11"><a xlink:href="dir_94b0c4fb82528c4245604725780b49de.html" target="_top" xlink:title="state">
<polygon fill="#edf0f7" stroke="red" stroke-dasharray="5,2" points="563,-74 522,-74 522,-55 563,-55 563,-74"/>
<text text-anchor="middle" x="542.5" y="-62" font-family="Helvetica,sans-Serif" font-size="10.00">state</text>
</a>
</g>
</g>
<!-- dir_9f8a06593596762c781b6162de719b91&#45;&gt;dir_94b0c4fb82528c4245604725780b49de -->
<g id="edge17" class="edge">
<title>dir_9f8a06593596762c781b6162de719b91&#45;&gt;dir_94b0c4fb82528c4245604725780b49de</title>
<g id="a_edge17"><a xlink:href="dir_000135_000131.html" target="_top">
<path fill="none" stroke="#63b8ff" d="M200.58,-116.25C258.28,-111.47 391.4,-98.81 511.59,-74.13"/>
<polygon fill="#63b8ff" stroke="#63b8ff" points="512.62,-77.49 521.69,-72.02 511.19,-70.64 512.62,-77.49"/>
</a>
</g>
<g id="a_edge17&#45;headlabel"><a xlink:href="dir_000135_000131.html" target="_top" xlink:title="1">
<text text-anchor="middle" x="509.68" y="-78.51" font-family="Helvetica,sans-Serif" font-size="10.00" fill="#63b8ff">1</text>
</a>
</g>
</g>
</g>
</svg>
