<?xml version="1.0" encoding="UTF-8" standalone="no"?>
<!DOCTYPE svg PUBLIC "-//W3C//DTD SVG 1.1//EN"
 "http://www.w3.org/Graphics/SVG/1.1/DTD/svg11.dtd">
<!-- Generated by graphviz version 2.43.0 (0)
 -->
<!-- Title: include/helios/engine/runtime/spawn/policy Pages: 1 -->
<svg width="328pt" height="180pt"
 viewBox="0.00 0.00 328.26 180.00" xmlns="http://www.w3.org/2000/svg" xmlns:xlink="http://www.w3.org/1999/xlink">
<g id="graph0" class="graph" transform="scale(1 1) rotate(0) translate(4 176)">
<title>include/helios/engine/runtime/spawn/policy</title>
<g id="clust1" class="cluster">
<title>clusterdir_f13ab14d5d5d4540c4f6a9671a45a6bf</title>
<g id="a_clust1"><a xlink:href="dir_f13ab14d5d5d4540c4f6a9671a45a6bf.html" target="_top" xlink:title="spawn">
<polygon fill="#edf0f7" stroke="#7f7f7f" stroke-dasharray="5,2" points="58,-39 58,-164 309,-164 309,-39 58,-39"/>
<text text-anchor="middle" x="183.5" y="-152" font-family="Helvetica,sans-Serif" font-size="10.00">spawn</text>
</a>
</g>
</g>
<g id="clust2" class="cluster">
<title>clusterdir_e700b0aeb2d441d3f82dcadb30dbf1e2</title>
<g id="a_clust2"><a xlink:href="dir_e700b0aeb2d441d3f82dcadb30dbf1e2.html" target="_top">
<polygon fill="#edf0f7" stroke="#404040" stroke-width="2" points="66,-47 66,-137 222,-137 222,-47 66,-47"/>
</a>
</g>
</g>
<!-- dir_52936351db34d2a1eebd36b673ba9c6c -->
<g id="node1" class="node">
<title>dir_52936351db34d2a1eebd36b673ba9c6c</title>
<g id="a_node1"><a xlink:href="dir_52936351db34d2a1eebd36b673ba9c6c.html" target="_top" xlink:title="scheduling">
<polygon fill="#a2b4d6" stroke="#404040" points="300.5,-74 231.5,-74 231.5,-55 300.5,-55 300.5,-74"/>
<text text-anchor="middle" x="266" y="-62" font-family="Helvetica,sans-Serif" font-size="10.00">scheduling</text>
</a>
</g>
</g>
<!-- dir_e700b0aeb2d441d3f82dcadb30dbf1e2 -->
<g id="node2" class="node">
<title>dir_e700b0aeb2d441d3f82dcadb30dbf1e2</title>
<text text-anchor="middle" x="140" y="-117" font-family="Helvetica,sans-Serif" font-size="10.00">policy</text>
</g>
<!-- dir_e700b0aeb2d441d3f82dcadb30dbf1e2&#45;&gt;dir_52936351db34d2a1eebd36b673ba9c6c -->
<g id="edge4" class="edge">
<title>dir_e700b0aeb2d441d3f82dcadb30dbf1e2&#45;&gt;dir_52936351db34d2a1eebd36b673ba9c6c</title>
<g id="a_edge4"><a xlink:href="dir_000064_000075.html" target="_top">
<path fill="none" stroke="#63b8ff" d="M160.24,-109.98C180.7,-101.38 212.53,-87.99 235.93,-78.15"/>
<polygon fill="#63b8ff" stroke="#63b8ff" points="237.53,-81.27 245.39,-74.17 234.81,-74.82 237.53,-81.27"/>
</a>
</g>
<g id="a_edge4&#45;headlabel"><a xlink:href="dir_000064_000075.html" target="_top" xlink:title="1">
<text text-anchor="middle" x="235.31" y="-82.78" font-family="Helvetica,sans-Serif" font-size="10.00" fill="#63b8ff">1</text>
</a>
</g>
</g>
<!-- dir_26bcf0901e593cc8920ab58c2fc4c113 -->
<g id="node3" class="node">
<title>dir_26bcf0901e593cc8920ab58c2fc4c113</title>
<g id="a_node3"><a xlink:href="dir_26bcf0901e593cc8920ab58c2fc4c113.html" target="_top" xlink:title="amount">
<polygon fill="#a2b4d6" stroke="#404040" points="128,-74 74,-74 74,-55 128,-55 128,-74"/>
<text text-anchor="middle" x="101" y="-62" font-family="Helvetica,sans-Serif" font-size="10.00">amount</text>
</a>
</g>
</g>
<!-- dir_e700b0aeb2d441d3f82dcadb30dbf1e2&#45;&gt;dir_26bcf0901e593cc8920ab58c2fc4c113 -->
<g id="edge3" class="edge">
<title>dir_e700b0aeb2d441d3f82dcadb30dbf1e2&#45;&gt;dir_26bcf0901e593cc8920ab58c2fc4c113</title>
<g id="a_edge3"><a xlink:href="dir_000064_000000.html" target="_top">
<path fill="none" stroke="#63b8ff" d="M133.56,-109.75C128.11,-102.34 120.14,-91.5 113.44,-82.41"/>
<polygon fill="#63b8ff" stroke="#63b8ff" points="116.07,-80.07 107.32,-74.09 110.43,-84.22 116.07,-80.07"/>
</a>
</g>
<g id="a_edge3&#45;headlabel"><a xlink:href="dir_000064_000000.html" target="_top" xlink:title="2">
<text text-anchor="middle" x="120.48" y="-78.78" font-family="Helvetica,sans-Serif" font-size="10.00" fill="#63b8ff">2</text>
</a>
</g>
</g>
<!-- dir_0144e79efb88b2f9510f76f8581e7dec -->
<g id="node4" class="node">
<title>dir_0144e79efb88b2f9510f76f8581e7dec</title>
<g id="a_node4"><a xlink:href="dir_0144e79efb88b2f9510f76f8581e7dec.html" target="_top" xlink:title="conditions">
<polygon fill="#a2b4d6" stroke="#404040" points="213.5,-74 146.5,-74 146.5,-55 213.5,-55 213.5,-74"/>
<text text-anchor="middle" x="180" y="-62" font-family="Helvetica,sans-Serif" font-size="10.00">conditions</text>
</a>
</g>
</g>
<!-- dir_e700b0aeb2d441d3f82dcadb30dbf1e2&#45;&gt;dir_0144e79efb88b2f9510f76f8581e7dec -->
<g id="edge1" class="edge">
<title>dir_e700b0aeb2d441d3f82dcadb30dbf1e2&#45;&gt;dir_0144e79efb88b2f9510f76f8581e7dec</title>
<g id="a_edge1"><a xlink:href="dir_000064_000024.html" target="_top">
<path fill="none" stroke="#63b8ff" d="M146.61,-109.75C152.26,-102.26 160.54,-91.28 167.45,-82.13"/>
<polygon fill="#63b8ff" stroke="#63b8ff" points="170.29,-84.18 173.52,-74.09 164.7,-79.96 170.29,-84.18"/>
</a>
</g>
<g id="a_edge1&#45;headlabel"><a xlink:href="dir_000064_000024.html" target="_top" xlink:title="1">
<text text-anchor="middle" x="170.39" y="-86.26" font-family="Helvetica,sans-Serif" font-size="10.00" fill="#63b8ff">1</text>
</a>
</g>
</g>
<!-- dir_1f05af774b1537994876600c714c9eab -->
<g id="node5" class="node">
<title>dir_1f05af774b1537994876600c714c9eab</title>
<g id="a_node5"><a xlink:href="dir_1f05af774b1537994876600c714c9eab.html" target="_top" xlink:title="pooling">
<polygon fill="#edf0f7" stroke="#7f7f7f" points="129.5,-19 76.5,-19 76.5,0 129.5,0 129.5,-19"/>
<text text-anchor="middle" x="103" y="-7" font-family="Helvetica,sans-Serif" font-size="10.00">pooling</text>
</a>
</g>
</g>
<!-- dir_e700b0aeb2d441d3f82dcadb30dbf1e2&#45;&gt;dir_1f05af774b1537994876600c714c9eab -->
<g id="edge2" class="edge">
<title>dir_e700b0aeb2d441d3f82dcadb30dbf1e2&#45;&gt;dir_1f05af774b1537994876600c714c9eab</title>
<g id="a_edge2"><a xlink:href="dir_000064_000065.html" target="_top">
<path fill="none" stroke="#63b8ff" d="M116.78,-111.69C99.11,-105.14 76.01,-93.34 65,-74 57.3,-60.48 58.04,-52.91 65,-39 67.74,-33.52 72.09,-28.82 76.89,-24.91"/>
<polygon fill="#63b8ff" stroke="#63b8ff" points="79.01,-27.69 85.17,-19.07 74.98,-21.97 79.01,-27.69"/>
</a>
</g>
<g id="a_edge2&#45;headlabel"><a xlink:href="dir_000064_000065.html" target="_top" xlink:title="3">
<text text-anchor="middle" x="77.71" y="-29.58" font-family="Helvetica,sans-Serif" font-size="10.00" fill="#63b8ff">3</text>
</a>
</g>
</g>
<!-- dir_66d0fbb35f31b5b35549543f7095729b -->
<g id="node6" class="node">
<title>dir_66d0fbb35f31b5b35549543f7095729b</title>
<g id="a_node6"><a xlink:href="dir_66d0fbb35f31b5b35549543f7095729b.html" target="_top" xlink:title="core">
<polygon fill="#edf0f7" stroke="red" stroke-dasharray="5,2" points="38,-19 0,-19 0,0 38,0 38,-19"/>
<text text-anchor="middle" x="19" y="-7" font-family="Helvetica,sans-Serif" font-size="10.00">core</text>
</a>
</g>
</g>
<!-- dir_e700b0aeb2d441d3f82dcadb30dbf1e2&#45;&gt;dir_66d0fbb35f31b5b35549543f7095729b -->
<g id="edge5" class="edge">
<title>dir_e700b0aeb2d441d3f82dcadb30dbf1e2&#45;&gt;dir_66d0fbb35f31b5b35549543f7095729b</title>
<g id="a_edge5"><a xlink:href="dir_000064_000028.html" target="_top">
<path fill="none" stroke="#63b8ff" d="M116.84,-110.57C98.36,-103.33 72.72,-91.14 55,-74 41.79,-61.22 31.99,-42.54 25.98,-28.75"/>
<polygon fill="#63b8ff" stroke="#63b8ff" points="29.15,-27.26 22.13,-19.33 22.68,-29.91 29.15,-27.26"/>
</a>
</g>
<g id="a_edge5&#45;headlabel"><a xlink:href="dir_000064_000028.html" target="_top" xlink:title="5">
<text text-anchor="middle" x="33.14" y="-27.01" font-family="Helvetica,sans-Serif" font-size="10.00" fill="#63b8ff">5</text>
</a>
</g>
</g>
<!-- dir_734da5e9060906fd2f909892a288292e -->
<g id="node7" class="node">
<title>dir_734da5e9060906fd2f909892a288292e</title>
<g id="a_node7"><a xlink:href="dir_734da5e9060906fd2f909892a288292e.html" target="_top" xlink:title="world">
<polygon fill="#edf0f7" stroke="#7f7f7f" points="202,-19 158,-19 158,0 202,0 202,-19"/>
<text text-anchor="middle" x="180" y="-7" font-family="Helvetica,sans-Serif" font-size="10.00">world</text>
</a>
</g>
</g>
<!-- dir_e700b0aeb2d441d3f82dcadb30dbf1e2&#45;&gt;dir_734da5e9060906fd2f909892a288292e -->
<g id="edge6" class="edge">
<title>dir_e700b0aeb2d441d3f82dcadb30dbf1e2&#45;&gt;dir_734da5e9060906fd2f909892a288292e</title>
<g id="a_edge6"><a xlink:href="dir_000064_000104.html" target="_top">
<path fill="none" stroke="#63b8ff" d="M163.28,-116C206.11,-110.86 294.71,-97.59 313,-74 322.53,-61.71 322.78,-51.1 313,-39 300.59,-23.65 247.65,-16.19 212.42,-12.87"/>
<polygon fill="#63b8ff" stroke="#63b8ff" points="212.39,-9.35 202.12,-11.96 211.78,-16.32 212.39,-9.35"/>
</a>
</g>
<g id="a_edge6&#45;headlabel"><a xlink:href="dir_000064_000104.html" target="_top" xlink:title="6">
<text text-anchor="middle" x="216.22" y="-4.34" font-family="Helvetica,sans-Serif" font-size="10.00" fill="#63b8ff">6</text>
</a>
</g>
</g>
<!-- dir_26bcf0901e593cc8920ab58c2fc4c113&#45;&gt;dir_66d0fbb35f31b5b35549543f7095729b -->
<g id="edge7" class="edge">
<title>dir_26bcf0901e593cc8920ab58c2fc4c113&#45;&gt;dir_66d0fbb35f31b5b35549543f7095729b</title>
<g id="a_edge7"><a xlink:href="dir_000000_000028.html" target="_top">
<path fill="none" stroke="#63b8ff" d="M87.83,-54.98C75.23,-46.84 56,-34.41 41.06,-24.76"/>
<polygon fill="#63b8ff" stroke="#63b8ff" points="42.71,-21.66 32.41,-19.17 38.91,-27.54 42.71,-21.66"/>
</a>
</g>
<g id="a_edge7&#45;headlabel"><a xlink:href="dir_000000_000028.html" target="_top" xlink:title="3">
<text text-anchor="middle" x="47.27" y="-18.73" font-family="Helvetica,sans-Serif" font-size="10.00" fill="#63b8ff">3</text>
</a>
</g>
</g>
<!-- dir_26bcf0901e593cc8920ab58c2fc4c113&#45;&gt;dir_734da5e9060906fd2f909892a288292e -->
<g id="edge8" class="edge">
<title>dir_26bcf0901e593cc8920ab58c2fc4c113&#45;&gt;dir_734da5e9060906fd2f909892a288292e</title>
<g id="a_edge8"><a xlink:href="dir_000000_000104.html" target="_top">
<path fill="none" stroke="#63b8ff" d="M113.69,-54.98C125.83,-46.84 144.36,-34.41 158.75,-24.76"/>
<polygon fill="#63b8ff" stroke="#63b8ff" points="160.72,-27.65 167.08,-19.17 156.82,-21.84 160.72,-27.65"/>
</a>
</g>
<g id="a_edge8&#45;headlabel"><a xlink:href="dir_000000_000104.html" target="_top" xlink:title="3">
<text text-anchor="middle" x="159.32" y="-29.51" font-family="Helvetica,sans-Serif" font-size="10.00" fill="#63b8ff">3</text>
</a>
</g>
</g>
<!-- dir_0144e79efb88b2f9510f76f8581e7dec&#45;&gt;dir_1f05af774b1537994876600c714c9eab -->
<g id="edge9" class="edge">
<title>dir_0144e79efb88b2f9510f76f8581e7dec&#45;&gt;dir_1f05af774b1537994876600c714c9eab</title>
<g id="a_edge9"><a xlink:href="dir_000024_000065.html" target="_top">
<path fill="none" stroke="#63b8ff" d="M167.63,-54.98C155.91,-46.92 138.08,-34.65 124.11,-25.03"/>
<polygon fill="#63b8ff" stroke="#63b8ff" points="125.82,-21.96 115.6,-19.17 121.85,-27.72 125.82,-21.96"/>
</a>
</g>
<g id="a_edge9&#45;headlabel"><a xlink:href="dir_000024_000065.html" target="_top" xlink:title="1">
<text text-anchor="middle" x="130.39" y="-19.16" font-family="Helvetica,sans-Serif" font-size="10.00" fill="#63b8ff">1</text>
</a>
</g>
</g>
<!-- dir_0144e79efb88b2f9510f76f8581e7dec&#45;&gt;dir_734da5e9060906fd2f909892a288292e -->
<g id="edge10" class="edge">
<title>dir_0144e79efb88b2f9510f76f8581e7dec&#45;&gt;dir_734da5e9060906fd2f909892a288292e</title>
<g id="a_edge10"><a xlink:href="dir_000024_000104.html" target="_top">
<path fill="none" stroke="#63b8ff" d="M180,-54.75C180,-47.8 180,-37.85 180,-29.13"/>
<polygon fill="#63b8ff" stroke="#63b8ff" points="183.5,-29.09 180,-19.09 176.5,-29.09 183.5,-29.09"/>
</a>
</g>
<g id="a_edge10&#45;headlabel"><a xlink:href="dir_000024_000104.html" target="_top" xlink:title="1">
<text text-anchor="middle" x="186.34" y="-30.18" font-family="Helvetica,sans-Serif" font-size="10.00" fill="#63b8ff">1</text>
</a>
</g>
</g>
</g>
</svg>
