<?xml version="1.0" encoding="UTF-8" standalone="no"?>
<!DOCTYPE svg PUBLIC "-//W3C//DTD SVG 1.1//EN"
 "http://www.w3.org/Graphics/SVG/1.1/DTD/svg11.dtd">
<!-- Generated by graphviz version 2.43.0 (0)
 -->
<!-- Title: match Pages: 1 -->
<!--zoomable 290 -->

<svg id="main" version="1.1" xmlns="http://www.w3.org/2000/svg" xmlns:xlink="http://www.w3.org/1999/xlink" xml:space="preserve" onload="init(evt)">

<style type="text/css"><![CDATA[
.node, .edge {opacity: 0.7;}
.node.selected, .edge.selected {opacity: 1;}
.edge:hover path { stroke: red; }
.edge:hover polygon { stroke: red; fill: red; }
]]></style>

<defs>
  <circle id="rim" cx="0" cy="0" r="7"/>
  <circle id="rim2" cx="0" cy="0" r="3.5"/>
  <g id="zoomPlus">
    <use xlink:href="#rim" fill="#404040"><set attributeName="fill" to="#808080" begin="zoomplus.mouseover" end="zoomplus.mouseout"/></use>
    <path d="M-4,0h8M0,-4v8" fill="none" stroke="white" stroke-width="1.5" pointer-events="none"/>
  </g>
  <g id="zoomMin">
    <use xlink:href="#rim" fill="#404040"><set attributeName="fill" to="#808080" begin="zoomminus.mouseover" end="zoomminus.mouseout"/></use>
    <path d="M-4,0h8" fill="none" stroke="white" stroke-width="1.5" pointer-events="none"/>
  </g>
  <g id="arrowUp" transform="translate(30 24)">
    <use xlink:href="#rim"/>
    <path pointer-events="none" fill="none" stroke="white" stroke-width="1.5" d="M0,-3.0v7 M-2.5,-0.5L0,-3.0L2.5,-0.5"/>
  </g>
  <g id="arrowRight" transform="rotate(90) translate(36 -43)">
    <use xlink:href="#rim"/>
    <path pointer-events="none" fill="none" stroke="white" stroke-width="1.5" d="M0,-3.0v7 M-2.5,-0.5L0,-3.0L2.5,-0.5"/>
  </g>
  <g id="arrowDown" transform="rotate(180) translate(-30 -48)">
    <use xlink:href="#rim"/>
    <path pointer-events="none" fill="none" stroke="white" stroke-width="1.5" d="M0,-3.0v7 M-2.5,-0.5L0,-3.0L2.5,-0.5"/>
  </g>
  <g id="arrowLeft" transform="rotate(270) translate(-36 17)">
    <use xlink:href="#rim"/>
    <path pointer-events="none" fill="none" stroke="white" stroke-width="1.5" d="M0,-3.0v7 M-2.5,-0.5L0,-3.0L2.5,-0.5"/>
  </g>
  <g id="resetDef">
    <use xlink:href="#rim2" fill="#404040"><set attributeName="fill" to="#808080" begin="reset.mouseover" end="reset.mouseout"/></use>
  </g>
</defs>
<script type="application/ecmascript">
var viewWidth = 720;
var viewHeight = 290;
var sectionId = 'dynsection-0';
</script>
<script type="application/ecmascript" xlink:href="svg.min.js"/>
<svg id="graph" class="graph">
<g id="viewport">
<title>match</title>
<g id="clust1" class="cluster">
<title>clusterdir_e1a38fd6dc0543c7f97fb1ccf1615de7</title>
<g id="a_clust1"><a xlink:href="dir_e1a38fd6dc0543c7f97fb1ccf1615de7.html" target="_top" xlink:title="mechanics">
<polygon fill="#edf0f7" stroke="#7f7f7f" stroke-dasharray="5,2" points="97.74,-39 97.74,-274 533.74,-274 533.74,-39 97.74,-39"/>
<text text-anchor="middle" x="315.74" y="-262" font-family="Helvetica,sans-Serif" font-size="10.00">mechanics</text>
</a>
</g>
</g>
<g id="clust2" class="cluster">
<title>clusterdir_65d165468c717c67bace063bdb86ff73</title>
<g id="a_clust2"><a xlink:href="dir_65d165468c717c67bace063bdb86ff73.html" target="_top">
<polygon fill="#edf0f7" stroke="#404040" stroke-width="2" points="105.74,-47 105.74,-247 445.74,-247 445.74,-47 105.74,-47"/>
</a>
</g>
</g>
<!-- dir_014d03f1fa745a752e3155249a7cef2e -->
<g id="node1" class="node">
<title>dir_014d03f1fa745a752e3155249a7cef2e</title>
<g id="a_node1"><a xlink:href="dir_014d03f1fa745a752e3155249a7cef2e.html" target="_top" xlink:title="gamestate">
<polygon fill="#a2b4d6" stroke="red" points="525.24,-129 456.24,-129 456.24,-110 525.24,-110 525.24,-129"/>
<text text-anchor="middle" x="490.74" y="-117" font-family="Helvetica,sans-Serif" font-size="10.00">gamestate</text>
</a>
</g>
</g>
<!-- dir_65d165468c717c67bace063bdb86ff73 -->
<g id="node2" class="node">
<title>dir_65d165468c717c67bace063bdb86ff73</title>
<text text-anchor="middle" x="340.74" y="-227" font-family="Helvetica,sans-Serif" font-size="10.00">match</text>
</g>
<!-- dir_82c0e5f2466dbad6335583ffce9c996a -->
<g id="node3" class="node">
<title>dir_82c0e5f2466dbad6335583ffce9c996a</title>
<g id="a_node3"><a xlink:href="dir_82c0e5f2466dbad6335583ffce9c996a.html" target="_top" xlink:title="commands">
<polygon fill="#a2b4d6" stroke="#404040" points="225.24,-129 154.24,-129 154.24,-110 225.24,-110 225.24,-129"/>
<text text-anchor="middle" x="189.74" y="-117" font-family="Helvetica,sans-Serif" font-size="10.00">commands</text>
</a>
</g>
</g>
<!-- dir_65d165468c717c67bace063bdb86ff73&#45;&gt;dir_82c0e5f2466dbad6335583ffce9c996a -->
<g id="edge5" class="edge">
<title>dir_65d165468c717c67bace063bdb86ff73&#45;&gt;dir_82c0e5f2466dbad6335583ffce9c996a</title>
<g id="a_edge5"><a xlink:href="dir_000088_000017.html" target="_top">
<path fill="none" stroke="#63b8ff" d="M328.64,-219.84C302.8,-201.36 241.98,-157.86 210.08,-135.05"/>
<polygon fill="#63b8ff" stroke="#63b8ff" points="212.07,-132.17 201.9,-129.2 208,-137.86 212.07,-132.17"/>
</a>
</g>
<g id="a_edge5&#45;headlabel"><a xlink:href="dir_000088_000017.html" target="_top" xlink:title="5">
<text text-anchor="middle" x="216.65" y="-129.45" font-family="Helvetica,sans-Serif" font-size="10.00" fill="#63b8ff">5</text>
</a>
</g>
</g>
<!-- dir_aa6a3dd4ed48a30c8a77c0ae3ea7750b -->
<g id="node4" class="node">
<title>dir_aa6a3dd4ed48a30c8a77c0ae3ea7750b</title>
<g id="a_node4"><a xlink:href="dir_aa6a3dd4ed48a30c8a77c0ae3ea7750b.html" target="_top" xlink:title="components">
<polygon fill="#a2b4d6" stroke="#404040" points="397.24,-129 320.24,-129 320.24,-110 397.24,-110 397.24,-129"/>
<text text-anchor="middle" x="358.74" y="-117" font-family="Helvetica,sans-Serif" font-size="10.00">components</text>
</a>
</g>
</g>
<!-- dir_65d165468c717c67bace063bdb86ff73&#45;&gt;dir_aa6a3dd4ed48a30c8a77c0ae3ea7750b -->
<g id="edge6" class="edge">
<title>dir_65d165468c717c67bace063bdb86ff73&#45;&gt;dir_aa6a3dd4ed48a30c8a77c0ae3ea7750b</title>
<g id="a_edge6"><a xlink:href="dir_000088_000029.html" target="_top">
<path fill="none" stroke="#63b8ff" d="M342.04,-219.86C343.9,-207.64 347.44,-184.59 350.74,-165 352.18,-156.48 353.86,-147.05 355.31,-139.08"/>
<polygon fill="#63b8ff" stroke="#63b8ff" points="358.79,-139.49 357.15,-129.02 351.91,-138.23 358.79,-139.49"/>
</a>
</g>
<g id="a_edge6&#45;headlabel"><a xlink:href="dir_000088_000029.html" target="_top" xlink:title="3">
<text text-anchor="middle" x="360.94" y="-141.04" font-family="Helvetica,sans-Serif" font-size="10.00" fill="#63b8ff">3</text>
</a>
</g>
</g>
<!-- dir_0f1722f86276c8a09cbfccf41430b534 -->
<g id="node5" class="node">
<title>dir_0f1722f86276c8a09cbfccf41430b534</title>
<g id="a_node5"><a xlink:href="dir_0f1722f86276c8a09cbfccf41430b534.html" target="_top" xlink:title="dispatcher">
<polygon fill="#a2b4d6" stroke="#404040" points="241.74,-184 173.74,-184 173.74,-165 241.74,-165 241.74,-184"/>
<text text-anchor="middle" x="207.74" y="-172" font-family="Helvetica,sans-Serif" font-size="10.00">dispatcher</text>
</a>
</g>
</g>
<!-- dir_65d165468c717c67bace063bdb86ff73&#45;&gt;dir_0f1722f86276c8a09cbfccf41430b534 -->
<g id="edge1" class="edge">
<title>dir_65d165468c717c67bace063bdb86ff73&#45;&gt;dir_0f1722f86276c8a09cbfccf41430b534</title>
<g id="a_edge1"><a xlink:href="dir_000088_000053.html" target="_top">
<path fill="none" stroke="#63b8ff" d="M319.37,-219.98C297.59,-211.3 263.58,-197.75 238.82,-187.88"/>
<polygon fill="#63b8ff" stroke="#63b8ff" points="240.09,-184.62 229.5,-184.17 237.49,-191.12 240.09,-184.62"/>
</a>
</g>
<g id="a_edge1&#45;headlabel"><a xlink:href="dir_000088_000053.html" target="_top" xlink:title="1">
<text text-anchor="middle" x="244.48" y="-180.81" font-family="Helvetica,sans-Serif" font-size="10.00" fill="#63b8ff">1</text>
</a>
</g>
</g>
<!-- dir_f9a8cd8fd3995795dc04f45f6888faba -->
<g id="node6" class="node">
<title>dir_f9a8cd8fd3995795dc04f45f6888faba</title>
<g id="a_node6"><a xlink:href="dir_f9a8cd8fd3995795dc04f45f6888faba.html" target="_top" xlink:title="listeners">
<polygon fill="#a2b4d6" stroke="#404040" points="302.24,-129 243.24,-129 243.24,-110 302.24,-110 302.24,-129"/>
<text text-anchor="middle" x="272.74" y="-117" font-family="Helvetica,sans-Serif" font-size="10.00">listeners</text>
</a>
</g>
</g>
<!-- dir_65d165468c717c67bace063bdb86ff73&#45;&gt;dir_f9a8cd8fd3995795dc04f45f6888faba -->
<g id="edge10" class="edge">
<title>dir_65d165468c717c67bace063bdb86ff73&#45;&gt;dir_f9a8cd8fd3995795dc04f45f6888faba</title>
<g id="a_edge10"><a xlink:href="dir_000088_000086.html" target="_top">
<path fill="none" stroke="#63b8ff" d="M335.18,-219.66C323.92,-201.77 298.25,-161 283.57,-137.69"/>
<polygon fill="#63b8ff" stroke="#63b8ff" points="286.48,-135.76 278.19,-129.16 280.56,-139.49 286.48,-135.76"/>
</a>
</g>
<g id="a_edge10&#45;headlabel"><a xlink:href="dir_000088_000086.html" target="_top" xlink:title="1">
<text text-anchor="middle" x="290.8" y="-134.78" font-family="Helvetica,sans-Serif" font-size="10.00" fill="#63b8ff">1</text>
</a>
</g>
</g>
<!-- dir_c709f84978d2d66f31b50c8123d67a14 -->
<g id="node7" class="node">
<title>dir_c709f84978d2d66f31b50c8123d67a14</title>
<g id="a_node7"><a xlink:href="dir_c709f84978d2d66f31b50c8123d67a14.html" target="_top" xlink:title="rules">
<polygon fill="#a2b4d6" stroke="#404040" points="155.24,-184 114.24,-184 114.24,-165 155.24,-165 155.24,-184"/>
<text text-anchor="middle" x="134.74" y="-172" font-family="Helvetica,sans-Serif" font-size="10.00">rules</text>
</a>
</g>
</g>
<!-- dir_65d165468c717c67bace063bdb86ff73&#45;&gt;dir_c709f84978d2d66f31b50c8123d67a14 -->
<g id="edge8" class="edge">
<title>dir_65d165468c717c67bace063bdb86ff73&#45;&gt;dir_c709f84978d2d66f31b50c8123d67a14</title>
<g id="a_edge8"><a xlink:href="dir_000088_000108.html" target="_top">
<path fill="none" stroke="#63b8ff" d="M317.06,-222.74C284.93,-214.87 225.52,-200.16 165.08,-184.03"/>
<polygon fill="#63b8ff" stroke="#63b8ff" points="165.94,-180.64 155.38,-181.43 164.13,-187.4 165.94,-180.64"/>
</a>
</g>
<g id="a_edge8&#45;headlabel"><a xlink:href="dir_000088_000108.html" target="_top" xlink:title="4">
<text text-anchor="middle" x="170.15" y="-176.32" font-family="Helvetica,sans-Serif" font-size="10.00" fill="#63b8ff">4</text>
</a>
</g>
</g>
<!-- dir_c15260370b6d31e4f1b37eb15587b087 -->
<g id="node8" class="node">
<title>dir_c15260370b6d31e4f1b37eb15587b087</title>
<g id="a_node8"><a xlink:href="dir_c15260370b6d31e4f1b37eb15587b087.html" target="_top" xlink:title="systems">
<polygon fill="#a2b4d6" stroke="#404040" points="417.74,-184 359.74,-184 359.74,-165 417.74,-165 417.74,-184"/>
<text text-anchor="middle" x="388.74" y="-172" font-family="Helvetica,sans-Serif" font-size="10.00">systems</text>
</a>
</g>
</g>
<!-- dir_65d165468c717c67bace063bdb86ff73&#45;&gt;dir_c15260370b6d31e4f1b37eb15587b087 -->
<g id="edge7" class="edge">
<title>dir_65d165468c717c67bace063bdb86ff73&#45;&gt;dir_c15260370b6d31e4f1b37eb15587b087</title>
<g id="a_edge7"><a xlink:href="dir_000088_000129.html" target="_top">
<path fill="none" stroke="#63b8ff" d="M348.67,-219.75C355.59,-212.11 365.81,-200.82 374.2,-191.56"/>
<polygon fill="#63b8ff" stroke="#63b8ff" points="376.85,-193.85 380.96,-184.09 371.66,-189.15 376.85,-193.85"/>
</a>
</g>
<g id="a_edge7&#45;headlabel"><a xlink:href="dir_000088_000129.html" target="_top" xlink:title="1">
<text text-anchor="middle" x="376.54" y="-195.92" font-family="Helvetica,sans-Serif" font-size="10.00" fill="#63b8ff">1</text>
</a>
</g>
</g>
<!-- dir_cb33ccb71eb51ab476530a91930975dc -->
<g id="node9" class="node">
<title>dir_cb33ccb71eb51ab476530a91930975dc</title>
<g id="a_node9"><a xlink:href="dir_cb33ccb71eb51ab476530a91930975dc.html" target="_top" xlink:title="types">
<polygon fill="#a2b4d6" stroke="#404040" points="286.74,-74 242.74,-74 242.74,-55 286.74,-55 286.74,-74"/>
<text text-anchor="middle" x="264.74" y="-62" font-family="Helvetica,sans-Serif" font-size="10.00">types</text>
</a>
</g>
</g>
<!-- dir_65d165468c717c67bace063bdb86ff73&#45;&gt;dir_cb33ccb71eb51ab476530a91930975dc -->
<g id="edge9" class="edge">
<title>dir_65d165468c717c67bace063bdb86ff73&#45;&gt;dir_cb33ccb71eb51ab476530a91930975dc</title>
<g id="a_edge9"><a xlink:href="dir_000088_000152.html" target="_top">
<path fill="none" stroke="#63b8ff" d="M364.41,-223.47C384.9,-217.73 413.29,-206.12 426.74,-184 437.8,-165.82 427.37,-124.44 413.74,-110 383.48,-77.93 331.19,-68.67 297.29,-66.16"/>
<polygon fill="#63b8ff" stroke="#63b8ff" points="297.17,-62.65 286.98,-65.57 296.76,-69.64 297.17,-62.65"/>
</a>
</g>
<g id="a_edge9&#45;headlabel"><a xlink:href="dir_000088_000152.html" target="_top" xlink:title="12">
<text text-anchor="middle" x="300.92" y="-57.52" font-family="Helvetica,sans-Serif" font-size="10.00" fill="#63b8ff">12</text>
</a>
</g>
</g>
<!-- dir_1ca916e0b9fbc882dbfbd9e6594e5e22 -->
<g id="node10" class="node">
<title>dir_1ca916e0b9fbc882dbfbd9e6594e5e22</title>
<g id="a_node10"><a xlink:href="dir_1ca916e0b9fbc882dbfbd9e6594e5e22.html" target="_top" xlink:title="ecs">
<polygon fill="#edf0f7" stroke="red" stroke-dasharray="5,2" points="575.24,-74 542.24,-74 542.24,-55 575.24,-55 575.24,-74"/>
<text text-anchor="middle" x="558.74" y="-62" font-family="Helvetica,sans-Serif" font-size="10.00">ecs</text>
</a>
</g>
</g>
<!-- dir_65d165468c717c67bace063bdb86ff73&#45;&gt;dir_1ca916e0b9fbc882dbfbd9e6594e5e22 -->
<g id="edge2" class="edge">
<title>dir_65d165468c717c67bace063bdb86ff73&#45;&gt;dir_1ca916e0b9fbc882dbfbd9e6594e5e22</title>
<g id="a_edge2"><a xlink:href="dir_000088_000056.html" target="_top">
<path fill="none" stroke="#63b8ff" d="M364.53,-226.37C418.97,-221.17 550.87,-206.54 588.74,-184 621.62,-164.43 651.58,-143.31 632.74,-110 622.56,-92 601.87,-80.48 584.95,-73.68"/>
<polygon fill="#63b8ff" stroke="#63b8ff" points="586.12,-70.38 575.53,-70.21 583.7,-76.95 586.12,-70.38"/>
</a>
</g>
<g id="a_edge2&#45;headlabel"><a xlink:href="dir_000088_000056.html" target="_top" xlink:title="5">
<text text-anchor="middle" x="590.48" y="-66.46" font-family="Helvetica,sans-Serif" font-size="10.00" fill="#63b8ff">5</text>
</a>
</g>
</g>
<!-- dir_3e2f71566425d27b6ac8140f1223a941 -->
<g id="node11" class="node">
<title>dir_3e2f71566425d27b6ac8140f1223a941</title>
<g id="a_node11"><a xlink:href="dir_3e2f71566425d27b6ac8140f1223a941.html" target="_top" xlink:title="util">
<polygon fill="#edf0f7" stroke="red" stroke-dasharray="5,2" points="711.74,-184 679.74,-184 679.74,-165 711.74,-165 711.74,-184"/>
<text text-anchor="middle" x="695.74" y="-172" font-family="Helvetica,sans-Serif" font-size="10.00">util</text>
</a>
</g>
</g>
<!-- dir_65d165468c717c67bace063bdb86ff73&#45;&gt;dir_3e2f71566425d27b6ac8140f1223a941 -->
<g id="edge3" class="edge">
<title>dir_65d165468c717c67bace063bdb86ff73&#45;&gt;dir_3e2f71566425d27b6ac8140f1223a941</title>
<g id="a_edge3"><a xlink:href="dir_000088_000161.html" target="_top">
<path fill="none" stroke="#63b8ff" d="M364.59,-226.39C418.6,-221.36 554.25,-207.31 665.74,-184 667.02,-183.73 668.33,-183.44 669.65,-183.13"/>
<polygon fill="#63b8ff" stroke="#63b8ff" points="670.87,-186.43 679.65,-180.51 669.09,-179.66 670.87,-186.43"/>
</a>
</g>
<g id="a_edge3&#45;headlabel"><a xlink:href="dir_000088_000161.html" target="_top" xlink:title="1">
<text text-anchor="middle" x="668.11" y="-187.58" font-family="Helvetica,sans-Serif" font-size="10.00" fill="#63b8ff">1</text>
</a>
</g>
</g>
<!-- dir_4e12247f2bbe360a59cd98a83515e8f1 -->
<g id="node12" class="node">
<title>dir_4e12247f2bbe360a59cd98a83515e8f1</title>
<g id="a_node12"><a xlink:href="dir_4e12247f2bbe360a59cd98a83515e8f1.html" target="_top" xlink:title="core">
<polygon fill="#edf0f7" stroke="red" stroke-dasharray="5,2" points="579.74,-184 541.74,-184 541.74,-165 579.74,-165 579.74,-184"/>
<text text-anchor="middle" x="560.74" y="-172" font-family="Helvetica,sans-Serif" font-size="10.00">core</text>
</a>
</g>
</g>
<!-- dir_65d165468c717c67bace063bdb86ff73&#45;&gt;dir_4e12247f2bbe360a59cd98a83515e8f1 -->
<g id="edge4" class="edge">
<title>dir_65d165468c717c67bace063bdb86ff73&#45;&gt;dir_4e12247f2bbe360a59cd98a83515e8f1</title>
<g id="a_edge4"><a xlink:href="dir_000088_000047.html" target="_top">
<path fill="none" stroke="#63b8ff" d="M364.29,-222.83C404.82,-213.06 487.67,-193.1 531.71,-182.49"/>
<polygon fill="#63b8ff" stroke="#63b8ff" points="532.61,-185.88 541.51,-180.13 530.97,-179.07 532.61,-185.88"/>
</a>
</g>
<g id="a_edge4&#45;headlabel"><a xlink:href="dir_000088_000047.html" target="_top" xlink:title="1">
<text text-anchor="middle" x="529.78" y="-186.98" font-family="Helvetica,sans-Serif" font-size="10.00" fill="#63b8ff">1</text>
</a>
</g>
</g>
<!-- dir_fff8ef54a646d9df8d7b15d27474569f -->
<g id="node13" class="node">
<title>dir_fff8ef54a646d9df8d7b15d27474569f</title>
<g id="a_node13"><a xlink:href="dir_fff8ef54a646d9df8d7b15d27474569f.html" target="_top" xlink:title="runtime">
<polygon fill="#edf0f7" stroke="red" stroke-dasharray="5,2" points="113.24,-19 58.24,-19 58.24,0 113.24,0 113.24,-19"/>
<text text-anchor="middle" x="85.74" y="-7" font-family="Helvetica,sans-Serif" font-size="10.00">runtime</text>
</a>
</g>
</g>
<!-- dir_65d165468c717c67bace063bdb86ff73&#45;&gt;dir_fff8ef54a646d9df8d7b15d27474569f -->
<g id="edge11" class="edge">
<title>dir_65d165468c717c67bace063bdb86ff73&#45;&gt;dir_fff8ef54a646d9df8d7b15d27474569f</title>
<g id="a_edge11"><a xlink:href="dir_000088_000109.html" target="_top">
<path fill="none" stroke="#63b8ff" d="M316.92,-226.95C273.53,-223.48 179.34,-213.01 105.74,-184 63.18,-167.23 42.26,-168.24 18.74,-129 -1.84,-94.65 -7.68,-72.17 14.74,-39 22.45,-27.6 35.55,-20.76 48.41,-16.66"/>
<polygon fill="#63b8ff" stroke="#63b8ff" points="49.37,-20.02 58.1,-14.02 47.54,-13.27 49.37,-20.02"/>
</a>
</g>
<g id="a_edge11&#45;headlabel"><a xlink:href="dir_000088_000109.html" target="_top" xlink:title="16">
<text text-anchor="middle" x="46.65" y="-21.2" font-family="Helvetica,sans-Serif" font-size="10.00" fill="#63b8ff">16</text>
</a>
</g>
</g>
<!-- dir_82c0e5f2466dbad6335583ffce9c996a&#45;&gt;dir_cb33ccb71eb51ab476530a91930975dc -->
<g id="edge12" class="edge">
<title>dir_82c0e5f2466dbad6335583ffce9c996a&#45;&gt;dir_cb33ccb71eb51ab476530a91930975dc</title>
<g id="a_edge12"><a xlink:href="dir_000017_000152.html" target="_top">
<path fill="none" stroke="#63b8ff" d="M201.79,-109.98C213.21,-101.92 230.57,-89.65 244.18,-80.03"/>
<polygon fill="#63b8ff" stroke="#63b8ff" points="246.33,-82.8 252.47,-74.17 242.29,-77.08 246.33,-82.8"/>
</a>
</g>
<g id="a_edge12&#45;headlabel"><a xlink:href="dir_000017_000152.html" target="_top" xlink:title="1">
<text text-anchor="middle" x="245.03" y="-84.69" font-family="Helvetica,sans-Serif" font-size="10.00" fill="#63b8ff">1</text>
</a>
</g>
</g>
<!-- dir_82c0e5f2466dbad6335583ffce9c996a&#45;&gt;dir_fff8ef54a646d9df8d7b15d27474569f -->
<g id="edge13" class="edge">
<title>dir_82c0e5f2466dbad6335583ffce9c996a&#45;&gt;dir_fff8ef54a646d9df8d7b15d27474569f</title>
<g id="a_edge13"><a xlink:href="dir_000017_000109.html" target="_top">
<path fill="none" stroke="#63b8ff" d="M181.23,-109.66C163.7,-91.46 123.34,-49.55 101.12,-26.47"/>
<polygon fill="#63b8ff" stroke="#63b8ff" points="103.54,-23.93 94.08,-19.16 98.5,-28.79 103.54,-23.93"/>
</a>
</g>
<g id="a_edge13&#45;headlabel"><a xlink:href="dir_000017_000109.html" target="_top" xlink:title="2">
<text text-anchor="middle" x="108.08" y="-22.05" font-family="Helvetica,sans-Serif" font-size="10.00" fill="#63b8ff">2</text>
</a>
</g>
</g>
<!-- dir_aa6a3dd4ed48a30c8a77c0ae3ea7750b&#45;&gt;dir_cb33ccb71eb51ab476530a91930975dc -->
<g id="edge14" class="edge">
<title>dir_aa6a3dd4ed48a30c8a77c0ae3ea7750b&#45;&gt;dir_cb33ccb71eb51ab476530a91930975dc</title>
<g id="a_edge14"><a xlink:href="dir_000029_000152.html" target="_top">
<path fill="none" stroke="#63b8ff" d="M343.64,-109.98C328.93,-101.69 306.32,-88.94 289.07,-79.22"/>
<polygon fill="#63b8ff" stroke="#63b8ff" points="290.55,-76.03 280.12,-74.17 287.11,-82.13 290.55,-76.03"/>
</a>
</g>
<g id="a_edge14&#45;headlabel"><a xlink:href="dir_000029_000152.html" target="_top" xlink:title="1">
<text text-anchor="middle" x="295.08" y="-72.83" font-family="Helvetica,sans-Serif" font-size="10.00" fill="#63b8ff">1</text>
</a>
</g>
</g>
<!-- dir_0f1722f86276c8a09cbfccf41430b534&#45;&gt;dir_82c0e5f2466dbad6335583ffce9c996a -->
<g id="edge15" class="edge">
<title>dir_0f1722f86276c8a09cbfccf41430b534&#45;&gt;dir_82c0e5f2466dbad6335583ffce9c996a</title>
<g id="a_edge15"><a xlink:href="dir_000053_000017.html" target="_top">
<path fill="none" stroke="#63b8ff" d="M204.77,-164.75C202.39,-157.72 198.95,-147.62 195.97,-138.84"/>
<polygon fill="#63b8ff" stroke="#63b8ff" points="199.19,-137.43 192.66,-129.09 192.56,-139.68 199.19,-137.43"/>
</a>
</g>
<g id="a_edge15&#45;headlabel"><a xlink:href="dir_000053_000017.html" target="_top" xlink:title="1">
<text text-anchor="middle" x="203.03" y="-137.42" font-family="Helvetica,sans-Serif" font-size="10.00" fill="#63b8ff">1</text>
</a>
</g>
</g>
<!-- dir_0f1722f86276c8a09cbfccf41430b534&#45;&gt;dir_cb33ccb71eb51ab476530a91930975dc -->
<g id="edge16" class="edge">
<title>dir_0f1722f86276c8a09cbfccf41430b534&#45;&gt;dir_cb33ccb71eb51ab476530a91930975dc</title>
<g id="a_edge16"><a xlink:href="dir_000053_000152.html" target="_top">
<path fill="none" stroke="#63b8ff" d="M188.03,-164.91C164.6,-153.45 130.46,-132.03 145.74,-110 165.14,-82.04 204.38,-71.62 232.5,-67.75"/>
<polygon fill="#63b8ff" stroke="#63b8ff" points="233.14,-71.2 242.67,-66.57 232.33,-64.25 233.14,-71.2"/>
</a>
</g>
<g id="a_edge16&#45;headlabel"><a xlink:href="dir_000053_000152.html" target="_top" xlink:title="1">
<text text-anchor="middle" x="229.9" y="-71.93" font-family="Helvetica,sans-Serif" font-size="10.00" fill="#63b8ff">1</text>
</a>
</g>
</g>
<!-- dir_0f1722f86276c8a09cbfccf41430b534&#45;&gt;dir_fff8ef54a646d9df8d7b15d27474569f -->
<g id="edge17" class="edge">
<title>dir_0f1722f86276c8a09cbfccf41430b534&#45;&gt;dir_fff8ef54a646d9df8d7b15d27474569f</title>
<g id="a_edge17"><a xlink:href="dir_000053_000109.html" target="_top">
<path fill="none" stroke="#63b8ff" d="M175.12,-164.97C136.91,-154.66 77.99,-137.62 71.74,-129 48.27,-96.62 62.69,-77.96 71.74,-39 72.59,-35.35 73.98,-31.62 75.56,-28.12"/>
<polygon fill="#63b8ff" stroke="#63b8ff" points="78.74,-29.58 80.23,-19.09 72.52,-26.37 78.74,-29.58"/>
</a>
</g>
<g id="a_edge17&#45;headlabel"><a xlink:href="dir_000053_000109.html" target="_top" xlink:title="2">
<text text-anchor="middle" x="79.61" y="-31.58" font-family="Helvetica,sans-Serif" font-size="10.00" fill="#63b8ff">2</text>
</a>
</g>
</g>
<!-- dir_f9a8cd8fd3995795dc04f45f6888faba&#45;&gt;dir_cb33ccb71eb51ab476530a91930975dc -->
<g id="edge19" class="edge">
<title>dir_f9a8cd8fd3995795dc04f45f6888faba&#45;&gt;dir_cb33ccb71eb51ab476530a91930975dc</title>
<g id="a_edge19"><a xlink:href="dir_000086_000152.html" target="_top">
<path fill="none" stroke="#63b8ff" d="M271.42,-109.75C270.37,-102.8 268.87,-92.85 267.56,-84.13"/>
<polygon fill="#63b8ff" stroke="#63b8ff" points="270.99,-83.45 266.04,-74.09 264.07,-84.5 270.99,-83.45"/>
</a>
</g>
<g id="a_edge19&#45;headlabel"><a xlink:href="dir_000086_000152.html" target="_top" xlink:title="2">
<text text-anchor="middle" x="274.34" y="-84.09" font-family="Helvetica,sans-Serif" font-size="10.00" fill="#63b8ff">2</text>
</a>
</g>
</g>
<!-- dir_f9a8cd8fd3995795dc04f45f6888faba&#45;&gt;dir_1ca916e0b9fbc882dbfbd9e6594e5e22 -->
<g id="edge18" class="edge">
<title>dir_f9a8cd8fd3995795dc04f45f6888faba&#45;&gt;dir_1ca916e0b9fbc882dbfbd9e6594e5e22</title>
<g id="a_edge18"><a xlink:href="dir_000086_000056.html" target="_top">
<path fill="none" stroke="#63b8ff" d="M302.53,-111.89C305.64,-111.24 308.75,-110.6 311.74,-110 391.86,-94.06 487.09,-77.6 532.34,-69.93"/>
<polygon fill="#63b8ff" stroke="#63b8ff" points="532.95,-73.38 542.23,-68.26 531.78,-66.48 532.95,-73.38"/>
</a>
</g>
<g id="a_edge18&#45;headlabel"><a xlink:href="dir_000086_000056.html" target="_top" xlink:title="2">
<text text-anchor="middle" x="529.88" y="-74.28" font-family="Helvetica,sans-Serif" font-size="10.00" fill="#63b8ff">2</text>
</a>
</g>
</g>
<!-- dir_f9a8cd8fd3995795dc04f45f6888faba&#45;&gt;dir_fff8ef54a646d9df8d7b15d27474569f -->
<g id="edge20" class="edge">
<title>dir_f9a8cd8fd3995795dc04f45f6888faba&#45;&gt;dir_fff8ef54a646d9df8d7b15d27474569f</title>
<g id="a_edge20"><a xlink:href="dir_000086_000109.html" target="_top">
<path fill="none" stroke="#63b8ff" d="M259.68,-110C236.49,-95.02 186.47,-63.25 142.74,-39 133.16,-33.69 122.47,-28.22 112.95,-23.52"/>
<polygon fill="#63b8ff" stroke="#63b8ff" points="114.44,-20.35 103.92,-19.1 111.36,-26.64 114.44,-20.35"/>
</a>
</g>
<g id="a_edge20&#45;headlabel"><a xlink:href="dir_000086_000109.html" target="_top" xlink:title="2">
<text text-anchor="middle" x="118.91" y="-16.88" font-family="Helvetica,sans-Serif" font-size="10.00" fill="#63b8ff">2</text>
</a>
</g>
</g>
<!-- dir_c709f84978d2d66f31b50c8123d67a14&#45;&gt;dir_cb33ccb71eb51ab476530a91930975dc -->
<g id="edge21" class="edge">
<title>dir_c709f84978d2d66f31b50c8123d67a14&#45;&gt;dir_cb33ccb71eb51ab476530a91930975dc</title>
<g id="a_edge21"><a xlink:href="dir_000108_000152.html" target="_top">
<path fill="none" stroke="#63b8ff" d="M132.34,-164.69C129.29,-151.41 125.74,-126.11 137.74,-110 159.63,-80.64 202.33,-70.55 232.15,-67.14"/>
<polygon fill="#63b8ff" stroke="#63b8ff" points="232.86,-70.59 242.49,-66.16 232.2,-63.62 232.86,-70.59"/>
</a>
</g>
<g id="a_edge21&#45;headlabel"><a xlink:href="dir_000108_000152.html" target="_top" xlink:title="2">
<text text-anchor="middle" x="229.55" y="-71.25" font-family="Helvetica,sans-Serif" font-size="10.00" fill="#63b8ff">2</text>
</a>
</g>
</g>
<!-- dir_c709f84978d2d66f31b50c8123d67a14&#45;&gt;dir_fff8ef54a646d9df8d7b15d27474569f -->
<g id="edge22" class="edge">
<title>dir_c709f84978d2d66f31b50c8123d67a14&#45;&gt;dir_fff8ef54a646d9df8d7b15d27474569f</title>
<g id="a_edge22"><a xlink:href="dir_000108_000109.html" target="_top">
<path fill="none" stroke="#63b8ff" d="M114.23,-171.05C90.24,-166.96 51.54,-156.28 33.74,-129 11.89,-95.5 13.36,-73.42 33.74,-39 37.37,-32.87 42.84,-27.97 48.89,-24.09"/>
<polygon fill="#63b8ff" stroke="#63b8ff" points="50.92,-26.96 58.01,-19.1 47.56,-20.82 50.92,-26.96"/>
</a>
</g>
<g id="a_edge22&#45;headlabel"><a xlink:href="dir_000108_000109.html" target="_top" xlink:title="2">
<text text-anchor="middle" x="49.13" y="-28.68" font-family="Helvetica,sans-Serif" font-size="10.00" fill="#63b8ff">2</text>
</a>
</g>
</g>
<!-- dir_c15260370b6d31e4f1b37eb15587b087&#45;&gt;dir_014d03f1fa745a752e3155249a7cef2e -->
<g id="edge23" class="edge">
<title>dir_c15260370b6d31e4f1b37eb15587b087&#45;&gt;dir_014d03f1fa745a752e3155249a7cef2e</title>
<g id="a_edge23"><a xlink:href="dir_000129_000069.html" target="_top">
<path fill="none" stroke="#63b8ff" d="M405.13,-164.98C421.32,-156.57 446.31,-143.59 465.12,-133.81"/>
<polygon fill="#63b8ff" stroke="#63b8ff" points="466.8,-136.89 474.06,-129.17 463.57,-130.68 466.8,-136.89"/>
</a>
</g>
<g id="a_edge23&#45;headlabel"><a xlink:href="dir_000129_000069.html" target="_top" xlink:title="1">
<text text-anchor="middle" x="464.92" y="-138.56" font-family="Helvetica,sans-Serif" font-size="10.00" fill="#63b8ff">1</text>
</a>
</g>
</g>
<!-- dir_c15260370b6d31e4f1b37eb15587b087&#45;&gt;dir_82c0e5f2466dbad6335583ffce9c996a -->
<g id="edge25" class="edge">
<title>dir_c15260370b6d31e4f1b37eb15587b087&#45;&gt;dir_82c0e5f2466dbad6335583ffce9c996a</title>
<g id="a_edge25"><a xlink:href="dir_000129_000017.html" target="_top">
<path fill="none" stroke="#63b8ff" d="M359.38,-165.68C325.64,-156.69 270,-141.87 231.69,-131.67"/>
<polygon fill="#63b8ff" stroke="#63b8ff" points="232.43,-128.25 221.87,-129.06 230.63,-135.01 232.43,-128.25"/>
</a>
</g>
<g id="a_edge25&#45;headlabel"><a xlink:href="dir_000129_000017.html" target="_top" xlink:title="1">
<text text-anchor="middle" x="236.64" y="-123.93" font-family="Helvetica,sans-Serif" font-size="10.00" fill="#63b8ff">1</text>
</a>
</g>
</g>
<!-- dir_c15260370b6d31e4f1b37eb15587b087&#45;&gt;dir_aa6a3dd4ed48a30c8a77c0ae3ea7750b -->
<g id="edge26" class="edge">
<title>dir_c15260370b6d31e4f1b37eb15587b087&#45;&gt;dir_aa6a3dd4ed48a30c8a77c0ae3ea7750b</title>
<g id="a_edge26"><a xlink:href="dir_000129_000029.html" target="_top">
<path fill="none" stroke="#63b8ff" d="M383.79,-164.75C379.68,-157.49 373.72,-146.95 368.64,-137.98"/>
<polygon fill="#63b8ff" stroke="#63b8ff" points="371.58,-136.07 363.6,-129.09 365.48,-139.52 371.58,-136.07"/>
</a>
</g>
<g id="a_edge26&#45;headlabel"><a xlink:href="dir_000129_000029.html" target="_top" xlink:title="1">
<text text-anchor="middle" x="375.82" y="-135.3" font-family="Helvetica,sans-Serif" font-size="10.00" fill="#63b8ff">1</text>
</a>
</g>
</g>
<!-- dir_c15260370b6d31e4f1b37eb15587b087&#45;&gt;dir_cb33ccb71eb51ab476530a91930975dc -->
<g id="edge27" class="edge">
<title>dir_c15260370b6d31e4f1b37eb15587b087&#45;&gt;dir_cb33ccb71eb51ab476530a91930975dc</title>
<g id="a_edge27"><a xlink:href="dir_000129_000152.html" target="_top">
<path fill="none" stroke="#63b8ff" d="M395.48,-164.86C404.78,-151.81 419.09,-126.81 406.74,-110 381.69,-75.9 330.58,-67.22 297,-65.39"/>
<polygon fill="#63b8ff" stroke="#63b8ff" points="296.89,-61.88 286.77,-65.01 296.63,-68.88 296.89,-61.88"/>
</a>
</g>
<g id="a_edge27&#45;headlabel"><a xlink:href="dir_000129_000152.html" target="_top" xlink:title="2">
<text text-anchor="middle" x="300.59" y="-56.68" font-family="Helvetica,sans-Serif" font-size="10.00" fill="#63b8ff">2</text>
</a>
</g>
</g>
<!-- dir_c15260370b6d31e4f1b37eb15587b087&#45;&gt;dir_1ca916e0b9fbc882dbfbd9e6594e5e22 -->
<g id="edge24" class="edge">
<title>dir_c15260370b6d31e4f1b37eb15587b087&#45;&gt;dir_1ca916e0b9fbc882dbfbd9e6594e5e22</title>
<g id="a_edge24"><a xlink:href="dir_000129_000056.html" target="_top">
<path fill="none" stroke="#63b8ff" d="M417.92,-172.54C451.21,-169.89 505.21,-160.6 537.74,-129 549.84,-117.25 554.97,-98.41 557.14,-84.29"/>
<polygon fill="#63b8ff" stroke="#63b8ff" points="560.64,-84.55 558.33,-74.21 553.68,-83.73 560.64,-84.55"/>
</a>
</g>
<g id="a_edge24&#45;headlabel"><a xlink:href="dir_000129_000056.html" target="_top" xlink:title="2">
<text text-anchor="middle" x="563.04" y="-85.95" font-family="Helvetica,sans-Serif" font-size="10.00" fill="#63b8ff">2</text>
</a>
</g>
</g>
<!-- dir_c15260370b6d31e4f1b37eb15587b087&#45;&gt;dir_fff8ef54a646d9df8d7b15d27474569f -->
<g id="edge29" class="edge">
<title>dir_c15260370b6d31e4f1b37eb15587b087&#45;&gt;dir_fff8ef54a646d9df8d7b15d27474569f</title>
<g id="a_edge29"><a xlink:href="dir_000129_000109.html" target="_top">
<path fill="none" stroke="#63b8ff" d="M359.45,-170.99C302.78,-165.67 180.63,-151.85 145.74,-129 110.82,-106.12 95.28,-56.33 89.18,-29.14"/>
<polygon fill="#63b8ff" stroke="#63b8ff" points="92.6,-28.41 87.17,-19.32 85.74,-29.82 92.6,-28.41"/>
</a>
</g>
<g id="a_edge29&#45;headlabel"><a xlink:href="dir_000129_000109.html" target="_top" xlink:title="2">
<text text-anchor="middle" x="96.11" y="-28.86" font-family="Helvetica,sans-Serif" font-size="10.00" fill="#63b8ff">2</text>
</a>
</g>
</g>
<!-- dir_e838ebfdcf77e050c9d833b3366569df -->
<g id="node14" class="node">
<title>dir_e838ebfdcf77e050c9d833b3366569df</title>
<g id="a_node14"><a xlink:href="dir_e838ebfdcf77e050c9d833b3366569df.html" target="_top" xlink:title="input">
<polygon fill="#edf0f7" stroke="red" stroke-dasharray="5,2" points="623.24,-129 582.24,-129 582.24,-110 623.24,-110 623.24,-129"/>
<text text-anchor="middle" x="602.74" y="-117" font-family="Helvetica,sans-Serif" font-size="10.00">input</text>
</a>
</g>
</g>
<!-- dir_c15260370b6d31e4f1b37eb15587b087&#45;&gt;dir_e838ebfdcf77e050c9d833b3366569df -->
<g id="edge28" class="edge">
<title>dir_c15260370b6d31e4f1b37eb15587b087&#45;&gt;dir_e838ebfdcf77e050c9d833b3366569df</title>
<g id="a_edge28"><a xlink:href="dir_000129_000081.html" target="_top">
<path fill="none" stroke="#63b8ff" d="M418.05,-166.24C458.57,-156.21 531.35,-138.18 572.41,-128.01"/>
<polygon fill="#63b8ff" stroke="#63b8ff" points="573.26,-131.41 582.13,-125.61 571.58,-124.61 573.26,-131.41"/>
</a>
</g>
<g id="a_edge28&#45;headlabel"><a xlink:href="dir_000129_000081.html" target="_top" xlink:title="1">
<text text-anchor="middle" x="570.45" y="-132.53" font-family="Helvetica,sans-Serif" font-size="10.00" fill="#63b8ff">1</text>
</a>
</g>
</g>
<!-- dir_cb33ccb71eb51ab476530a91930975dc&#45;&gt;dir_fff8ef54a646d9df8d7b15d27474569f -->
<g id="edge30" class="edge">
<title>dir_cb33ccb71eb51ab476530a91930975dc&#45;&gt;dir_fff8ef54a646d9df8d7b15d27474569f</title>
<g id="a_edge30"><a xlink:href="dir_000152_000109.html" target="_top">
<path fill="none" stroke="#63b8ff" d="M251.77,-54.91C243.26,-49.63 231.72,-43.11 220.74,-39 188.91,-27.09 150.9,-19.63 123.33,-15.34"/>
<polygon fill="#63b8ff" stroke="#63b8ff" points="123.72,-11.86 113.31,-13.85 122.69,-18.78 123.72,-11.86"/>
</a>
</g>
<g id="a_edge30&#45;headlabel"><a xlink:href="dir_000152_000109.html" target="_top" xlink:title="1">
<text text-anchor="middle" x="127.69" y="-7.08" font-family="Helvetica,sans-Serif" font-size="10.00" fill="#63b8ff">1</text>
</a>
</g>
</g>
</g>
</svg>

<g id="navigator" transform="translate(0 0)" fill="#404254">
  <rect fill="#f2f5e9" fill-opacity="0.5" stroke="#606060" stroke-width=".5" x="0" y="0" width="60" height="60"/>
  <use id="zoomplus" xlink:href="#zoomPlus" x="17" y="9" onmousedown="handleZoom(evt,'in')"/>
  <use id="zoomminus" xlink:href="#zoomMin" x="42" y="9" onmousedown="handleZoom(evt,'out')"/>
  <use id="reset" xlink:href="#resetDef" x="30" y="36" onmousedown="handleReset()"/>
   <use id="arrowup" xlink:href="#arrowUp" x="0" y="0" onmousedown="handlePan(0,-1)"/>
  <use id="arrowright" xlink:href="#arrowRight" x="0" y="0" onmousedown="handlePan(1,0)"/>
  <use id="arrowdown" xlink:href="#arrowDown" x="0" y="0" onmousedown="handlePan(0,1)"/>
  <use id="arrowleft" xlink:href="#arrowLeft" x="0" y="0" onmousedown="handlePan(-1,0)"/>
</g>
<svg viewBox="0 0 15 15" width="100%" height="30px" preserveAspectRatio="xMaxYMin meet">
 <g id="arrow_out" transform="scale(0.3 0.3)">
  <a xlink:href="dir_65d165468c717c67bace063bdb86ff73_dep_org.svg" target="_base">
   <rect id="button" ry="5" rx="5" y="6" x="6" height="38" width="38"
        fill="#f2f5e9" fill-opacity="0.5" stroke="#606060" stroke-width="1.0"/>
   <path id="arrow"
     d="M 11.500037,31.436501 C 11.940474,20.09759 22.043105,11.32322 32.158766,21.979434 L 37.068811,17.246167 C 37.068811,17.246167 37.088388,32 37.088388,32 L 22.160133,31.978069 C 22.160133,31.978069 26.997745,27.140456 26.997745,27.140456 C 18.528582,18.264221 13.291696,25.230495 11.500037,31.436501 z"
     style="fill:#404040;"/>
  </a>
 </g>
</svg>

<style type='text/css'>
<![CDATA[
[data-mouse-over-selected='false'] { opacity: 0.7; }
[data-mouse-over-selected='true']  { opacity: 1.0; }
]]>
</style>
<script type="application/ecmascript"><![CDATA[
document.addEventListener('DOMContentLoaded', (event) => {
  highlightEdges();
  highlightAdjacentNodes();
});
]]></script>
</svg>
