<?xml version="1.0" encoding="UTF-8" standalone="no"?>
<!DOCTYPE svg PUBLIC "-//W3C//DTD SVG 1.1//EN"
 "http://www.w3.org/Graphics/SVG/1.1/DTD/svg11.dtd">
<!-- Generated by graphviz version 2.43.0 (0)
 -->
<!-- Title: systems Pages: 1 -->
<!--zoomable 133 -->

<svg id="main" version="1.1" xmlns="http://www.w3.org/2000/svg" xmlns:xlink="http://www.w3.org/1999/xlink" xml:space="preserve" onload="init(evt)">

<style type="text/css"><![CDATA[
.node, .edge {opacity: 0.7;}
.node.selected, .edge.selected {opacity: 1;}
.edge:hover path { stroke: red; }
.edge:hover polygon { stroke: red; fill: red; }
]]></style>

<defs>
  <circle id="rim" cx="0" cy="0" r="7"/>
  <circle id="rim2" cx="0" cy="0" r="3.5"/>
  <g id="zoomPlus">
    <use xlink:href="#rim" fill="#404040"><set attributeName="fill" to="#808080" begin="zoomplus.mouseover" end="zoomplus.mouseout"/></use>
    <path d="M-4,0h8M0,-4v8" fill="none" stroke="white" stroke-width="1.5" pointer-events="none"/>
  </g>
  <g id="zoomMin">
    <use xlink:href="#rim" fill="#404040"><set attributeName="fill" to="#808080" begin="zoomminus.mouseover" end="zoomminus.mouseout"/></use>
    <path d="M-4,0h8" fill="none" stroke="white" stroke-width="1.5" pointer-events="none"/>
  </g>
  <g id="arrowUp" transform="translate(30 24)">
    <use xlink:href="#rim"/>
    <path pointer-events="none" fill="none" stroke="white" stroke-width="1.5" d="M0,-3.0v7 M-2.5,-0.5L0,-3.0L2.5,-0.5"/>
  </g>
  <g id="arrowRight" transform="rotate(90) translate(36 -43)">
    <use xlink:href="#rim"/>
    <path pointer-events="none" fill="none" stroke="white" stroke-width="1.5" d="M0,-3.0v7 M-2.5,-0.5L0,-3.0L2.5,-0.5"/>
  </g>
  <g id="arrowDown" transform="rotate(180) translate(-30 -48)">
    <use xlink:href="#rim"/>
    <path pointer-events="none" fill="none" stroke="white" stroke-width="1.5" d="M0,-3.0v7 M-2.5,-0.5L0,-3.0L2.5,-0.5"/>
  </g>
  <g id="arrowLeft" transform="rotate(270) translate(-36 17)">
    <use xlink:href="#rim"/>
    <path pointer-events="none" fill="none" stroke="white" stroke-width="1.5" d="M0,-3.0v7 M-2.5,-0.5L0,-3.0L2.5,-0.5"/>
  </g>
  <g id="resetDef">
    <use xlink:href="#rim2" fill="#404040"><set attributeName="fill" to="#808080" begin="reset.mouseover" end="reset.mouseout"/></use>
  </g>
</defs>
<script type="application/ecmascript">
var viewWidth = 729;
var viewHeight = 133;
var sectionId = 'dynsection-0';
</script>
<script type="application/ecmascript" xlink:href="svg.min.js"/>
<svg id="graph" class="graph">
<g id="viewport">
<title>systems</title>
<g id="clust1" class="cluster">
<title>clusterdir_7742e0808b30ee69050dd8321a97f607</title>
<g id="a_clust1"><a xlink:href="dir_7742e0808b30ee69050dd8321a97f607.html" target="_top" xlink:title="transform">
<polygon fill="#edf0f7" stroke="#7f7f7f" stroke-dasharray="5,2" points="8,-8 8,-117 102,-117 102,-8 8,-8"/>
<text text-anchor="middle" x="55" y="-105" font-family="Helvetica,sans-Serif" font-size="10.00">transform</text>
</a>
</g>
</g>
<!-- dir_aa15d6c7a795d9346bc7c62c01a92b25 -->
<g id="node1" class="node">
<title>dir_aa15d6c7a795d9346bc7c62c01a92b25</title>
<g id="a_node1"><a xlink:href="dir_aa15d6c7a795d9346bc7c62c01a92b25.html" target="_top" xlink:title="components">
<polygon fill="#a2b4d6" stroke="#404040" points="93.5,-35 16.5,-35 16.5,-16 93.5,-16 93.5,-35"/>
<text text-anchor="middle" x="55" y="-23" font-family="Helvetica,sans-Serif" font-size="10.00">components</text>
</a>
</g>
</g>
<!-- dir_b16e9276188cf3c1abc3c3f6af8d1c98 -->
<g id="node2" class="node">
<title>dir_b16e9276188cf3c1abc3c3f6af8d1c98</title>
<g id="a_node2"><a xlink:href="dir_b16e9276188cf3c1abc3c3f6af8d1c98.html" target="_top" xlink:title="systems">
<polygon fill="#edf0f7" stroke="#404040" stroke-width="2" points="94,-90 36,-90 36,-71 94,-71 94,-90"/>
<text text-anchor="middle" x="65" y="-78" font-family="Helvetica,sans-Serif" font-size="10.00">systems</text>
</a>
</g>
</g>
<!-- dir_b16e9276188cf3c1abc3c3f6af8d1c98&#45;&gt;dir_aa15d6c7a795d9346bc7c62c01a92b25 -->
<g id="edge6" class="edge">
<title>dir_b16e9276188cf3c1abc3c3f6af8d1c98&#45;&gt;dir_aa15d6c7a795d9346bc7c62c01a92b25</title>
<g id="a_edge6"><a xlink:href="dir_000153_000047.html" target="_top">
<path fill="none" stroke="#63b8ff" d="M63.35,-70.75C62.04,-63.8 60.16,-53.85 58.52,-45.13"/>
<polygon fill="#63b8ff" stroke="#63b8ff" points="61.91,-44.27 56.62,-35.09 55.04,-45.56 61.91,-44.27"/>
</a>
</g>
<g id="a_edge6&#45;headlabel"><a xlink:href="dir_000153_000047.html" target="_top" xlink:title="1">
<text text-anchor="middle" x="65.37" y="-44.77" font-family="Helvetica,sans-Serif" font-size="10.00" fill="#63b8ff">1</text>
</a>
</g>
</g>
<!-- dir_1a83b528599da40ca3e2005a9bc9336b -->
<g id="node3" class="node">
<title>dir_1a83b528599da40ca3e2005a9bc9336b</title>
<g id="a_node3"><a xlink:href="dir_1a83b528599da40ca3e2005a9bc9336b.html" target="_top" xlink:title="common">
<polygon fill="#edf0f7" stroke="red" stroke-dasharray="5,2" points="170.5,-35 111.5,-35 111.5,-16 170.5,-16 170.5,-35"/>
<text text-anchor="middle" x="141" y="-23" font-family="Helvetica,sans-Serif" font-size="10.00">common</text>
</a>
</g>
</g>
<!-- dir_b16e9276188cf3c1abc3c3f6af8d1c98&#45;&gt;dir_1a83b528599da40ca3e2005a9bc9336b -->
<g id="edge1" class="edge">
<title>dir_b16e9276188cf3c1abc3c3f6af8d1c98&#45;&gt;dir_1a83b528599da40ca3e2005a9bc9336b</title>
<g id="a_edge1"><a xlink:href="dir_000153_000025.html" target="_top">
<path fill="none" stroke="#63b8ff" d="M77.21,-70.98C88.78,-62.92 106.38,-50.65 120.16,-41.03"/>
<polygon fill="#63b8ff" stroke="#63b8ff" points="122.37,-43.76 128.57,-35.17 118.36,-38.02 122.37,-43.76"/>
</a>
</g>
<g id="a_edge1&#45;headlabel"><a xlink:href="dir_000153_000025.html" target="_top" xlink:title="1">
<text text-anchor="middle" x="121.04" y="-45.65" font-family="Helvetica,sans-Serif" font-size="10.00" fill="#63b8ff">1</text>
</a>
</g>
</g>
<!-- dir_1ca916e0b9fbc882dbfbd9e6594e5e22 -->
<g id="node4" class="node">
<title>dir_1ca916e0b9fbc882dbfbd9e6594e5e22</title>
<g id="a_node4"><a xlink:href="dir_1ca916e0b9fbc882dbfbd9e6594e5e22.html" target="_top" xlink:title="ecs">
<polygon fill="#edf0f7" stroke="red" stroke-dasharray="5,2" points="221.5,-35 188.5,-35 188.5,-16 221.5,-16 221.5,-35"/>
<text text-anchor="middle" x="205" y="-23" font-family="Helvetica,sans-Serif" font-size="10.00">ecs</text>
</a>
</g>
</g>
<!-- dir_b16e9276188cf3c1abc3c3f6af8d1c98&#45;&gt;dir_1ca916e0b9fbc882dbfbd9e6594e5e22 -->
<g id="edge2" class="edge">
<title>dir_b16e9276188cf3c1abc3c3f6af8d1c98&#45;&gt;dir_1ca916e0b9fbc882dbfbd9e6594e5e22</title>
<g id="a_edge2"><a xlink:href="dir_000153_000065.html" target="_top">
<path fill="none" stroke="#63b8ff" d="M87.49,-70.98C112.33,-61.58 152.28,-46.46 178.59,-36.5"/>
<polygon fill="#63b8ff" stroke="#63b8ff" points="180.16,-39.65 188.27,-32.83 177.68,-33.1 180.16,-39.65"/>
</a>
</g>
<g id="a_edge2&#45;headlabel"><a xlink:href="dir_000153_000065.html" target="_top" xlink:title="1">
<text text-anchor="middle" x="177.8" y="-41.07" font-family="Helvetica,sans-Serif" font-size="10.00" fill="#63b8ff">1</text>
</a>
</g>
</g>
<!-- dir_268add6b94670641c68bb834cdcb4292 -->
<g id="node5" class="node">
<title>dir_268add6b94670641c68bb834cdcb4292</title>
<g id="a_node5"><a xlink:href="dir_268add6b94670641c68bb834cdcb4292.html" target="_top" xlink:title="math">
<polygon fill="#edf0f7" stroke="red" stroke-dasharray="5,2" points="282,-35 240,-35 240,-16 282,-16 282,-35"/>
<text text-anchor="middle" x="261" y="-23" font-family="Helvetica,sans-Serif" font-size="10.00">math</text>
</a>
</g>
</g>
<!-- dir_b16e9276188cf3c1abc3c3f6af8d1c98&#45;&gt;dir_268add6b94670641c68bb834cdcb4292 -->
<g id="edge3" class="edge">
<title>dir_b16e9276188cf3c1abc3c3f6af8d1c98&#45;&gt;dir_268add6b94670641c68bb834cdcb4292</title>
<g id="a_edge3"><a xlink:href="dir_000153_000099.html" target="_top">
<path fill="none" stroke="#63b8ff" d="M94.12,-71.83C125.35,-63.57 176.65,-49.92 229.77,-35.31"/>
<polygon fill="#63b8ff" stroke="#63b8ff" points="230.99,-38.6 239.71,-32.57 229.13,-31.86 230.99,-38.6"/>
</a>
</g>
<g id="a_edge3&#45;headlabel"><a xlink:href="dir_000153_000099.html" target="_top" xlink:title="1">
<text text-anchor="middle" x="228.28" y="-39.8" font-family="Helvetica,sans-Serif" font-size="10.00" fill="#63b8ff">1</text>
</a>
</g>
</g>
<!-- dir_656b8020a7b0aa8521ec0615ad91cdfe -->
<g id="node6" class="node">
<title>dir_656b8020a7b0aa8521ec0615ad91cdfe</title>
<g id="a_node6"><a xlink:href="dir_656b8020a7b0aa8521ec0615ad91cdfe.html" target="_top" xlink:title="scene">
<polygon fill="#edf0f7" stroke="red" stroke-dasharray="5,2" points="345.5,-35 300.5,-35 300.5,-16 345.5,-16 345.5,-35"/>
<text text-anchor="middle" x="323" y="-23" font-family="Helvetica,sans-Serif" font-size="10.00">scene</text>
</a>
</g>
</g>
<!-- dir_b16e9276188cf3c1abc3c3f6af8d1c98&#45;&gt;dir_656b8020a7b0aa8521ec0615ad91cdfe -->
<g id="edge4" class="edge">
<title>dir_b16e9276188cf3c1abc3c3f6af8d1c98&#45;&gt;dir_656b8020a7b0aa8521ec0615ad91cdfe</title>
<g id="a_edge4"><a xlink:href="dir_000153_000120.html" target="_top">
<path fill="none" stroke="#63b8ff" d="M94.03,-74.41C135.4,-67.02 213.89,-52.5 290.5,-34.98"/>
<polygon fill="#63b8ff" stroke="#63b8ff" points="291.36,-38.38 300.32,-32.72 289.79,-31.56 291.36,-38.38"/>
</a>
</g>
<g id="a_edge4&#45;headlabel"><a xlink:href="dir_000153_000120.html" target="_top" xlink:title="1">
<text text-anchor="middle" x="288.5" y="-39.45" font-family="Helvetica,sans-Serif" font-size="10.00" fill="#63b8ff">1</text>
</a>
</g>
</g>
<!-- dir_7002044952ee345c222d895bec1a9397 -->
<g id="node7" class="node">
<title>dir_7002044952ee345c222d895bec1a9397</title>
<g id="a_node7"><a xlink:href="dir_7002044952ee345c222d895bec1a9397.html" target="_top" xlink:title="Spatial data management for game entities.">
<polygon fill="#edf0f7" stroke="red" stroke-dasharray="5,2" points="414,-35 364,-35 364,-16 414,-16 414,-35"/>
<text text-anchor="middle" x="389" y="-23" font-family="Helvetica,sans-Serif" font-size="10.00">spatial</text>
</a>
</g>
</g>
<!-- dir_b16e9276188cf3c1abc3c3f6af8d1c98&#45;&gt;dir_7002044952ee345c222d895bec1a9397 -->
<g id="edge5" class="edge">
<title>dir_b16e9276188cf3c1abc3c3f6af8d1c98&#45;&gt;dir_7002044952ee345c222d895bec1a9397</title>
<g id="a_edge5"><a xlink:href="dir_000153_000128.html" target="_top">
<path fill="none" stroke="#63b8ff" d="M94.38,-75.91C145.24,-69.49 253.12,-55.02 353.78,-35.08"/>
<polygon fill="#63b8ff" stroke="#63b8ff" points="354.69,-38.47 363.81,-33.07 353.32,-31.61 354.69,-38.47"/>
</a>
</g>
<g id="a_edge5&#45;headlabel"><a xlink:href="dir_000153_000128.html" target="_top" xlink:title="2">
<text text-anchor="middle" x="351.72" y="-39.46" font-family="Helvetica,sans-Serif" font-size="10.00" fill="#63b8ff">2</text>
</a>
</g>
</g>
<!-- dir_bb685b75eb98702a3ab447756cde824e -->
<g id="node8" class="node">
<title>dir_bb685b75eb98702a3ab447756cde824e</title>
<g id="a_node8"><a xlink:href="dir_bb685b75eb98702a3ab447756cde824e.html" target="_top" xlink:title="rendering">
<polygon fill="#edf0f7" stroke="red" stroke-dasharray="5,2" points="495.5,-35 432.5,-35 432.5,-16 495.5,-16 495.5,-35"/>
<text text-anchor="middle" x="464" y="-23" font-family="Helvetica,sans-Serif" font-size="10.00">rendering</text>
</a>
</g>
</g>
<!-- dir_b16e9276188cf3c1abc3c3f6af8d1c98&#45;&gt;dir_bb685b75eb98702a3ab447756cde824e -->
<g id="edge7" class="edge">
<title>dir_b16e9276188cf3c1abc3c3f6af8d1c98&#45;&gt;dir_bb685b75eb98702a3ab447756cde824e</title>
<g id="a_edge7"><a xlink:href="dir_000153_000115.html" target="_top">
<path fill="none" stroke="#63b8ff" d="M94.35,-76.66C154.08,-70.72 294.23,-55.88 422.28,-34.99"/>
<polygon fill="#63b8ff" stroke="#63b8ff" points="422.97,-38.42 432.26,-33.34 421.83,-31.52 422.97,-38.42"/>
</a>
</g>
<g id="a_edge7&#45;headlabel"><a xlink:href="dir_000153_000115.html" target="_top" xlink:title="1">
<text text-anchor="middle" x="419.88" y="-39.31" font-family="Helvetica,sans-Serif" font-size="10.00" fill="#63b8ff">1</text>
</a>
</g>
</g>
<!-- dir_e1a38fd6dc0543c7f97fb1ccf1615de7 -->
<g id="node9" class="node">
<title>dir_e1a38fd6dc0543c7f97fb1ccf1615de7</title>
<g id="a_node9"><a xlink:href="dir_e1a38fd6dc0543c7f97fb1ccf1615de7.html" target="_top" xlink:title="mechanics">
<polygon fill="#edf0f7" stroke="red" stroke-dasharray="5,2" points="582.5,-35 513.5,-35 513.5,-16 582.5,-16 582.5,-35"/>
<text text-anchor="middle" x="548" y="-23" font-family="Helvetica,sans-Serif" font-size="10.00">mechanics</text>
</a>
</g>
</g>
<!-- dir_b16e9276188cf3c1abc3c3f6af8d1c98&#45;&gt;dir_e1a38fd6dc0543c7f97fb1ccf1615de7 -->
<g id="edge8" class="edge">
<title>dir_b16e9276188cf3c1abc3c3f6af8d1c98&#45;&gt;dir_e1a38fd6dc0543c7f97fb1ccf1615de7</title>
<g id="a_edge8"><a xlink:href="dir_000153_000100.html" target="_top">
<path fill="none" stroke="#63b8ff" d="M94.21,-77.5C163.51,-72.56 343.45,-58.54 503.3,-35.13"/>
<polygon fill="#63b8ff" stroke="#63b8ff" points="503.94,-38.58 513.32,-33.65 502.91,-31.65 503.94,-38.58"/>
</a>
</g>
<g id="a_edge8&#45;headlabel"><a xlink:href="dir_000153_000100.html" target="_top" xlink:title="1">
<text text-anchor="middle" x="500.8" y="-39.41" font-family="Helvetica,sans-Serif" font-size="10.00" fill="#63b8ff">1</text>
</a>
</g>
</g>
<!-- dir_e9d9767dc5aa2ecbd422c595afa60315 -->
<g id="node10" class="node">
<title>dir_e9d9767dc5aa2ecbd422c595afa60315</title>
<g id="a_node10"><a xlink:href="dir_e9d9767dc5aa2ecbd422c595afa60315.html" target="_top" xlink:title="layout">
<polygon fill="#edf0f7" stroke="red" stroke-dasharray="5,2" points="647.5,-35 600.5,-35 600.5,-16 647.5,-16 647.5,-35"/>
<text text-anchor="middle" x="624" y="-23" font-family="Helvetica,sans-Serif" font-size="10.00">layout</text>
</a>
</g>
</g>
<!-- dir_b16e9276188cf3c1abc3c3f6af8d1c98&#45;&gt;dir_e9d9767dc5aa2ecbd422c595afa60315 -->
<g id="edge9" class="edge">
<title>dir_b16e9276188cf3c1abc3c3f6af8d1c98&#45;&gt;dir_e9d9767dc5aa2ecbd422c595afa60315</title>
<g id="a_edge9"><a xlink:href="dir_000153_000093.html" target="_top">
<path fill="none" stroke="#63b8ff" d="M94.08,-78.83C172.72,-76.65 396.24,-67.94 590.25,-35.02"/>
<polygon fill="#63b8ff" stroke="#63b8ff" points="591.08,-38.43 600.34,-33.28 589.89,-31.53 591.08,-38.43"/>
</a>
</g>
<g id="a_edge9&#45;headlabel"><a xlink:href="dir_000153_000093.html" target="_top" xlink:title="1">
<text text-anchor="middle" x="588.02" y="-39.34" font-family="Helvetica,sans-Serif" font-size="10.00" fill="#63b8ff">1</text>
</a>
</g>
</g>
<!-- dir_fff8ef54a646d9df8d7b15d27474569f -->
<g id="node11" class="node">
<title>dir_fff8ef54a646d9df8d7b15d27474569f</title>
<g id="a_node11"><a xlink:href="dir_fff8ef54a646d9df8d7b15d27474569f.html" target="_top" xlink:title="runtime">
<polygon fill="#edf0f7" stroke="red" stroke-dasharray="5,2" points="720.5,-35 665.5,-35 665.5,-16 720.5,-16 720.5,-35"/>
<text text-anchor="middle" x="693" y="-23" font-family="Helvetica,sans-Serif" font-size="10.00">runtime</text>
</a>
</g>
</g>
<!-- dir_b16e9276188cf3c1abc3c3f6af8d1c98&#45;&gt;dir_fff8ef54a646d9df8d7b15d27474569f -->
<g id="edge10" class="edge">
<title>dir_b16e9276188cf3c1abc3c3f6af8d1c98&#45;&gt;dir_fff8ef54a646d9df8d7b15d27474569f</title>
<g id="a_edge10"><a xlink:href="dir_000153_000119.html" target="_top">
<path fill="none" stroke="#63b8ff" d="M94.14,-78.93C179.21,-76.91 434.7,-68.42 655.04,-35.08"/>
<polygon fill="#63b8ff" stroke="#63b8ff" points="655.82,-38.5 665.18,-33.52 654.76,-31.58 655.82,-38.5"/>
</a>
</g>
<g id="a_edge10&#45;headlabel"><a xlink:href="dir_000153_000119.html" target="_top" xlink:title="2">
<text text-anchor="middle" x="652.7" y="-39.35" font-family="Helvetica,sans-Serif" font-size="10.00" fill="#63b8ff">2</text>
</a>
</g>
</g>
</g>
</svg>

<g id="navigator" transform="translate(0 0)" fill="#404254">
  <rect fill="#f2f5e9" fill-opacity="0.5" stroke="#606060" stroke-width=".5" x="0" y="0" width="60" height="60"/>
  <use id="zoomplus" xlink:href="#zoomPlus" x="17" y="9" onmousedown="handleZoom(evt,'in')"/>
  <use id="zoomminus" xlink:href="#zoomMin" x="42" y="9" onmousedown="handleZoom(evt,'out')"/>
  <use id="reset" xlink:href="#resetDef" x="30" y="36" onmousedown="handleReset()"/>
   <use id="arrowup" xlink:href="#arrowUp" x="0" y="0" onmousedown="handlePan(0,-1)"/>
  <use id="arrowright" xlink:href="#arrowRight" x="0" y="0" onmousedown="handlePan(1,0)"/>
  <use id="arrowdown" xlink:href="#arrowDown" x="0" y="0" onmousedown="handlePan(0,1)"/>
  <use id="arrowleft" xlink:href="#arrowLeft" x="0" y="0" onmousedown="handlePan(-1,0)"/>
</g>
<svg viewBox="0 0 15 15" width="100%" height="30px" preserveAspectRatio="xMaxYMin meet">
 <g id="arrow_out" transform="scale(0.3 0.3)">
  <a xlink:href="dir_b16e9276188cf3c1abc3c3f6af8d1c98_dep_org.svg" target="_base">
   <rect id="button" ry="5" rx="5" y="6" x="6" height="38" width="38"
        fill="#f2f5e9" fill-opacity="0.5" stroke="#606060" stroke-width="1.0"/>
   <path id="arrow"
     d="M 11.500037,31.436501 C 11.940474,20.09759 22.043105,11.32322 32.158766,21.979434 L 37.068811,17.246167 C 37.068811,17.246167 37.088388,32 37.088388,32 L 22.160133,31.978069 C 22.160133,31.978069 26.997745,27.140456 26.997745,27.140456 C 18.528582,18.264221 13.291696,25.230495 11.500037,31.436501 z"
     style="fill:#404040;"/>
  </a>
 </g>
</svg>

<style type='text/css'>
<![CDATA[
[data-mouse-over-selected='false'] { opacity: 0.7; }
[data-mouse-over-selected='true']  { opacity: 1.0; }
]]>
</style>
<script type="application/ecmascript"><![CDATA[
document.addEventListener('DOMContentLoaded', (event) => {
  highlightEdges();
  highlightAdjacentNodes();
});
]]></script>
</svg>
