<?xml version="1.0" encoding="UTF-8" standalone="no"?>
<!DOCTYPE svg PUBLIC "-//W3C//DTD SVG 1.1//EN"
 "http://www.w3.org/Graphics/SVG/1.1/DTD/svg11.dtd">
<!-- Generated by graphviz version 2.43.0 (0)
 -->
<!-- Title: Dispatcher.ixx Pages: 1 -->
<svg width="437pt" height="247pt"
 viewBox="0.00 0.00 436.50 247.00" xmlns="http://www.w3.org/2000/svg" xmlns:xlink="http://www.w3.org/1999/xlink">
<g id="graph0" class="graph" transform="scale(1 1) rotate(0) translate(4 243)">
<title>Dispatcher.ixx</title>
<!-- Node1 -->
<g id="Node000001" class="node">
<title>Node1</title>
<g id="a_Node000001"><a xlink:title="Dispatches events to registered callbacks.">
<polygon fill="#999999" stroke="#666666" points="166.5,-239 80.5,-239 80.5,-220 166.5,-220 166.5,-239"/>
<text text-anchor="middle" x="123.5" y="-227" font-family="Helvetica,sans-Serif" font-size="10.00">Dispatcher.ixx</text>
</a>
</g>
</g>
<!-- Node2 -->
<g id="Node000002" class="node">
<title>Node2</title>
<g id="a_Node000002"><a xlink:title=" ">
<polygon fill="#e0e0e0" stroke="#999999" points="65,-184 0,-184 0,-165 65,-165 65,-184"/>
<text text-anchor="middle" x="32.5" y="-172" font-family="Helvetica,sans-Serif" font-size="10.00">functional</text>
</a>
</g>
</g>
<!-- Node1&#45;&gt;Node2 -->
<g id="edge1_Node000001_Node000002" class="edge">
<title>Node1&#45;&gt;Node2</title>
<g id="a_edge1_Node000001_Node000002"><a xlink:title=" ">
<path fill="none" stroke="#63b8ff" d="M108.88,-219.98C94.64,-211.69 72.75,-198.94 56.05,-189.22"/>
<polygon fill="#63b8ff" stroke="#63b8ff" points="57.79,-186.18 47.39,-184.17 54.27,-192.23 57.79,-186.18"/>
</a>
</g>
</g>
<!-- Node3 -->
<g id="Node000003" class="node">
<title>Node3</title>
<g id="a_Node000003"><a xlink:title=" ">
<polygon fill="#e0e0e0" stroke="#999999" points="170.5,-129 112.5,-129 112.5,-110 170.5,-110 170.5,-129"/>
<text text-anchor="middle" x="141.5" y="-117" font-family="Helvetica,sans-Serif" font-size="10.00">memory</text>
</a>
</g>
</g>
<!-- Node1&#45;&gt;Node3 -->
<g id="edge2_Node000001_Node000003" class="edge">
<title>Node1&#45;&gt;Node3</title>
<g id="a_edge2_Node000001_Node000003"><a xlink:title=" ">
<path fill="none" stroke="#63b8ff" d="M119.48,-219.72C114.36,-207.33 106.83,-184.09 112.5,-165 115.48,-154.98 121.5,-145.11 127.29,-137.22"/>
<polygon fill="#63b8ff" stroke="#63b8ff" points="130.13,-139.28 133.56,-129.25 124.63,-134.95 130.13,-139.28"/>
</a>
</g>
</g>
<!-- Node4 -->
<g id="Node000004" class="node">
<title>Node4</title>
<g id="a_Node000004"><a xlink:title=" ">
<polygon fill="#e0e0e0" stroke="#999999" points="187,-184 122,-184 122,-165 187,-165 187,-184"/>
<text text-anchor="middle" x="154.5" y="-172" font-family="Helvetica,sans-Serif" font-size="10.00">typeindex</text>
</a>
</g>
</g>
<!-- Node1&#45;&gt;Node4 -->
<g id="edge3_Node000001_Node000004" class="edge">
<title>Node1&#45;&gt;Node4</title>
<g id="a_edge3_Node000001_Node000004"><a xlink:title=" ">
<path fill="none" stroke="#63b8ff" d="M128.62,-219.75C132.86,-212.49 139.03,-201.95 144.28,-192.98"/>
<polygon fill="#63b8ff" stroke="#63b8ff" points="147.45,-194.49 149.48,-184.09 141.41,-190.95 147.45,-194.49"/>
</a>
</g>
</g>
<!-- Node5 -->
<g id="Node000005" class="node">
<title>Node5</title>
<g id="a_Node000005"><a xlink:href="Event_8ixx.html" target="_top" xlink:title="Base class for events in the helios framework.">
<polygon fill="white" stroke="#666666" points="312,-184 205,-184 205,-165 312,-165 312,-184"/>
<text text-anchor="middle" x="258.5" y="-172" font-family="Helvetica,sans-Serif" font-size="10.00">helios.event.Event</text>
</a>
</g>
</g>
<!-- Node1&#45;&gt;Node5 -->
<g id="edge4_Node000001_Node000005" class="edge">
<title>Node1&#45;&gt;Node5</title>
<g id="a_edge4_Node000001_Node000005"><a xlink:title=" ">
<path fill="none" stroke="#63b8ff" d="M145.19,-219.98C167.3,-211.3 201.82,-197.75 226.95,-187.88"/>
<polygon fill="#63b8ff" stroke="#63b8ff" points="228.39,-191.08 236.42,-184.17 225.83,-184.57 228.39,-191.08"/>
</a>
</g>
</g>
<!-- Node5&#45;&gt;Node3 -->
<g id="edge5_Node000005_Node000003" class="edge">
<title>Node5&#45;&gt;Node3</title>
<g id="a_edge5_Node000005_Node000003"><a xlink:title=" ">
<path fill="none" stroke="#63b8ff" d="M239.7,-164.98C220.88,-156.46 191.68,-143.23 170,-133.41"/>
<polygon fill="#63b8ff" stroke="#63b8ff" points="171.19,-130.11 160.64,-129.17 168.3,-136.48 171.19,-130.11"/>
</a>
</g>
</g>
<!-- Node6 -->
<g id="Node000006" class="node">
<title>Node6</title>
<g id="a_Node000006"><a xlink:title=" ">
<polygon fill="#e0e0e0" stroke="#999999" points="237.5,-129 193.5,-129 193.5,-110 237.5,-110 237.5,-129"/>
<text text-anchor="middle" x="215.5" y="-117" font-family="Helvetica,sans-Serif" font-size="10.00">string</text>
</a>
</g>
</g>
<!-- Node5&#45;&gt;Node6 -->
<g id="edge6_Node000005_Node000006" class="edge">
<title>Node5&#45;&gt;Node6</title>
<g id="a_edge6_Node000005_Node000006"><a xlink:title=" ">
<path fill="none" stroke="#63b8ff" d="M251.4,-164.75C245.33,-157.26 236.41,-146.28 228.99,-137.13"/>
<polygon fill="#63b8ff" stroke="#63b8ff" points="231.49,-134.65 222.47,-129.09 226.05,-139.06 231.49,-134.65"/>
</a>
</g>
</g>
<!-- Node7 -->
<g id="Node000007" class="node">
<title>Node7</title>
<g id="a_Node000007"><a xlink:href="Guid_8ixx.html" target="_top" xlink:title="Lightweight GUID (globally unique identifier) implementation.">
<polygon fill="white" stroke="#666666" points="345.5,-129 255.5,-129 255.5,-110 345.5,-110 345.5,-129"/>
<text text-anchor="middle" x="300.5" y="-117" font-family="Helvetica,sans-Serif" font-size="10.00">helios.util.Guid</text>
</a>
</g>
</g>
<!-- Node5&#45;&gt;Node7 -->
<g id="edge7_Node000005_Node000007" class="edge">
<title>Node5&#45;&gt;Node7</title>
<g id="a_edge7_Node000005_Node000007"><a xlink:title=" ">
<path fill="none" stroke="#63b8ff" d="M265.44,-164.75C271.37,-157.26 280.07,-146.28 287.32,-137.13"/>
<polygon fill="#63b8ff" stroke="#63b8ff" points="290.23,-139.1 293.69,-129.09 284.74,-134.75 290.23,-139.1"/>
</a>
</g>
</g>
<!-- Node8 -->
<g id="Node000008" class="node">
<title>Node8</title>
<g id="a_Node000008"><a xlink:title=" ">
<polygon fill="#e0e0e0" stroke="#999999" points="272.5,-74 222.5,-74 222.5,-55 272.5,-55 272.5,-74"/>
<text text-anchor="middle" x="247.5" y="-62" font-family="Helvetica,sans-Serif" font-size="10.00">atomic</text>
</a>
</g>
</g>
<!-- Node7&#45;&gt;Node8 -->
<g id="edge8_Node000007_Node000008" class="edge">
<title>Node7&#45;&gt;Node8</title>
<g id="a_edge8_Node000007_Node000008"><a xlink:title=" ">
<path fill="none" stroke="#63b8ff" d="M291.75,-109.75C284.03,-102.03 272.6,-90.6 263.28,-81.28"/>
<polygon fill="#63b8ff" stroke="#63b8ff" points="265.64,-78.69 256.09,-74.09 260.69,-83.64 265.64,-78.69"/>
</a>
</g>
</g>
<!-- Node9 -->
<g id="Node000009" class="node">
<title>Node9</title>
<g id="a_Node000009"><a xlink:title=" ">
<polygon fill="#e0e0e0" stroke="#999999" points="332.5,-19 282.5,-19 282.5,0 332.5,0 332.5,-19"/>
<text text-anchor="middle" x="307.5" y="-7" font-family="Helvetica,sans-Serif" font-size="10.00">cstdint</text>
</a>
</g>
</g>
<!-- Node7&#45;&gt;Node9 -->
<g id="edge9_Node000007_Node000009" class="edge">
<title>Node7&#45;&gt;Node9</title>
<g id="a_edge9_Node000007_Node000009"><a xlink:title=" ">
<path fill="none" stroke="#63b8ff" d="M301.07,-109.66C302.21,-92.17 304.76,-52.8 306.28,-29.27"/>
<polygon fill="#63b8ff" stroke="#63b8ff" points="309.78,-29.36 306.94,-19.16 302.8,-28.91 309.78,-29.36"/>
</a>
</g>
</g>
<!-- Node10 -->
<g id="Node000010" class="node">
<title>Node10</title>
<g id="a_Node000010"><a xlink:href="types_8ixx.html" target="_top" xlink:title="Core type definitions and tag types for the helios engine.">
<polygon fill="white" stroke="#666666" points="428.5,-74 328.5,-74 328.5,-55 428.5,-55 428.5,-74"/>
<text text-anchor="middle" x="378.5" y="-62" font-family="Helvetica,sans-Serif" font-size="10.00">helios.core.types</text>
</a>
</g>
</g>
<!-- Node7&#45;&gt;Node10 -->
<g id="edge10_Node000007_Node000010" class="edge">
<title>Node7&#45;&gt;Node10</title>
<g id="a_edge10_Node000007_Node000010"><a xlink:title=" ">
<path fill="none" stroke="#63b8ff" d="M313.03,-109.98C324.9,-101.92 342.96,-89.65 357.11,-80.03"/>
<polygon fill="#63b8ff" stroke="#63b8ff" points="359.44,-82.69 365.74,-74.17 355.5,-76.9 359.44,-82.69"/>
</a>
</g>
</g>
<!-- Node10&#45;&gt;Node9 -->
<g id="edge11_Node000010_Node000009" class="edge">
<title>Node10&#45;&gt;Node9</title>
<g id="a_edge11_Node000010_Node000009"><a xlink:title=" ">
<path fill="none" stroke="#63b8ff" d="M367.09,-54.98C356.39,-47 340.16,-34.88 327.34,-25.31"/>
<polygon fill="#63b8ff" stroke="#63b8ff" points="329.22,-22.35 319.11,-19.17 325.03,-27.96 329.22,-22.35"/>
</a>
</g>
</g>
<!-- Node11 -->
<g id="Node000011" class="node">
<title>Node11</title>
<g id="a_Node000011"><a xlink:title=" ">
<polygon fill="#e0e0e0" stroke="#999999" points="400.5,-19 356.5,-19 356.5,0 400.5,0 400.5,-19"/>
<text text-anchor="middle" x="378.5" y="-7" font-family="Helvetica,sans-Serif" font-size="10.00">limits</text>
</a>
</g>
</g>
<!-- Node10&#45;&gt;Node11 -->
<g id="edge12_Node000010_Node000011" class="edge">
<title>Node10&#45;&gt;Node11</title>
<g id="a_edge12_Node000010_Node000011"><a xlink:title=" ">
<path fill="none" stroke="#63b8ff" d="M378.5,-54.75C378.5,-47.8 378.5,-37.85 378.5,-29.13"/>
<polygon fill="#63b8ff" stroke="#63b8ff" points="382,-29.09 378.5,-19.09 375,-29.09 382,-29.09"/>
</a>
</g>
</g>
</g>
</svg>
