<?xml version="1.0" encoding="UTF-8" standalone="no"?>
<!DOCTYPE svg PUBLIC "-//W3C//DTD SVG 1.1//EN"
 "http://www.w3.org/Graphics/SVG/1.1/DTD/svg11.dtd">
<!-- Generated by graphviz version 2.43.0 (0)
 -->
<!-- Title: _modules.ixx Pages: 1 -->
<svg width="634pt" height="269pt"
 viewBox="0.00 0.00 634.00 269.00" xmlns="http://www.w3.org/2000/svg" xmlns:xlink="http://www.w3.org/1999/xlink">
<g id="graph0" class="graph" transform="scale(1 1) rotate(0) translate(4 265)">
<title>_modules.ixx</title>
<!-- Node1 -->
<g id="Node000001" class="node">
<title>Node1</title>
<g id="a_Node000001"><a xlink:title=" ">
<polygon fill="#999999" stroke="#666666" points="258.5,-261 176.5,-261 176.5,-242 258.5,-242 258.5,-261"/>
<text text-anchor="middle" x="217.5" y="-249" font-family="Helvetica,sans-Serif" font-size="10.00">_modules.ixx</text>
</a>
</g>
</g>
<!-- Node2 -->
<g id="Node000002" class="node">
<title>Node2</title>
<g id="a_Node000002"><a xlink:href="TypeDefs_8ixx.html" target="_top" xlink:title="Core type definitions and tag types for the helios engine.">
<polygon fill="white" stroke="#666666" points="143,-79.5 0,-79.5 0,-60.5 143,-60.5 143,-79.5"/>
<text text-anchor="middle" x="71.5" y="-67.5" font-family="Helvetica,sans-Serif" font-size="10.00">helios.ecs.types.TypeDefs</text>
</a>
</g>
</g>
<!-- Node1&#45;&gt;Node2 -->
<g id="edge1_Node000001_Node000002" class="edge">
<title>Node1&#45;&gt;Node2</title>
<g id="a_edge1_Node000001_Node000002"><a xlink:title=" ">
<path fill="none" stroke="#63b8ff" d="M208.38,-241.97C199.22,-233.24 184.88,-219.14 173.5,-206 138.4,-165.45 101.49,-114.07 83.2,-87.94"/>
<polygon fill="#63b8ff" stroke="#63b8ff" points="85.92,-85.73 77.34,-79.52 80.18,-89.73 85.92,-85.73"/>
</a>
</g>
</g>
<!-- Node5 -->
<g id="Node000005" class="node">
<title>Node5</title>
<g id="a_Node000005"><a xlink:href="ecs_2types_2EntityHandle_8ixx.html" target="_top" xlink:title="Versioned, strongly&#45;typed handle for referencing entities.">
<polygon fill="white" stroke="#666666" points="328,-145.5 167,-145.5 167,-126.5 328,-126.5 328,-145.5"/>
<text text-anchor="middle" x="247.5" y="-133.5" font-family="Helvetica,sans-Serif" font-size="10.00">helios.ecs.types.EntityHandle</text>
</a>
</g>
</g>
<!-- Node1&#45;&gt;Node5 -->
<g id="edge4_Node000001_Node000005" class="edge">
<title>Node1&#45;&gt;Node5</title>
<g id="a_edge4_Node000001_Node000005"><a xlink:title=" ">
<path fill="none" stroke="#63b8ff" d="M205.97,-241.65C191.7,-229.56 170.43,-207.07 180.5,-187 188.51,-171.04 204.29,-158.87 218.53,-150.53"/>
<polygon fill="#63b8ff" stroke="#63b8ff" points="220.47,-153.47 227.57,-145.61 217.12,-147.32 220.47,-153.47"/>
</a>
</g>
</g>
<!-- Node10 -->
<g id="Node000010" class="node">
<title>Node10</title>
<g id="a_Node000010"><a xlink:href="ecs_2types_2ComponentTypeId_8ixx.html" target="_top" xlink:title="Compile&#45;time type identifier for component types.">
<polygon fill="white" stroke="#666666" points="513,-151 358,-151 358,-121 513,-121 513,-151"/>
<text text-anchor="start" x="366" y="-139" font-family="Helvetica,sans-Serif" font-size="10.00">helios.ecs.types.Component</text>
<text text-anchor="middle" x="435.5" y="-128" font-family="Helvetica,sans-Serif" font-size="10.00">TypeId</text>
</a>
</g>
</g>
<!-- Node1&#45;&gt;Node10 -->
<g id="edge11_Node000001_Node000010" class="edge">
<title>Node1&#45;&gt;Node10</title>
<g id="a_edge11_Node000001_Node000010"><a xlink:title=" ">
<path fill="none" stroke="#63b8ff" d="M258.54,-244.84C291.06,-238.95 336.67,-227.46 371.5,-206 390.92,-194.04 408.19,-174.6 419.88,-159.4"/>
<polygon fill="#63b8ff" stroke="#63b8ff" points="422.95,-161.15 426.1,-151.03 417.33,-156.98 422.95,-161.15"/>
</a>
</g>
</g>
<!-- Node12 -->
<g id="Node000012" class="node">
<title>Node12</title>
<g id="a_Node000012"><a xlink:href="ecs_2types_2ComponentOps_8ixx.html" target="_top" xlink:title="Function pointer structure for type&#45;erased component lifecycle callbacks.">
<polygon fill="white" stroke="#666666" points="362,-206 189,-206 189,-187 362,-187 362,-206"/>
<text text-anchor="middle" x="275.5" y="-194" font-family="Helvetica,sans-Serif" font-size="10.00">helios.ecs.types.ComponentOps</text>
</a>
</g>
</g>
<!-- Node1&#45;&gt;Node12 -->
<g id="edge15_Node000001_Node000012" class="edge">
<title>Node1&#45;&gt;Node12</title>
<g id="a_edge15_Node000001_Node000012"><a xlink:title=" ">
<path fill="none" stroke="#63b8ff" d="M226.82,-241.98C235.31,-234.23 248.06,-222.58 258.38,-213.14"/>
<polygon fill="#63b8ff" stroke="#63b8ff" points="260.99,-215.5 266.01,-206.17 256.27,-210.33 260.99,-215.5"/>
</a>
</g>
</g>
<!-- Node3 -->
<g id="Node000003" class="node">
<title>Node3</title>
<g id="a_Node000003"><a xlink:title=" ">
<polygon fill="#e0e0e0" stroke="#999999" points="179.5,-19 129.5,-19 129.5,0 179.5,0 179.5,-19"/>
<text text-anchor="middle" x="154.5" y="-7" font-family="Helvetica,sans-Serif" font-size="10.00">cstdint</text>
</a>
</g>
</g>
<!-- Node2&#45;&gt;Node3 -->
<g id="edge2_Node000002_Node000003" class="edge">
<title>Node2&#45;&gt;Node3</title>
<g id="a_edge2_Node000002_Node000003"><a xlink:title=" ">
<path fill="none" stroke="#63b8ff" d="M83.75,-60.37C96.86,-51.12 117.92,-36.28 133.65,-25.19"/>
<polygon fill="#63b8ff" stroke="#63b8ff" points="136.05,-27.79 142.2,-19.17 132.01,-22.07 136.05,-27.79"/>
</a>
</g>
</g>
<!-- Node4 -->
<g id="Node000004" class="node">
<title>Node4</title>
<g id="a_Node000004"><a xlink:title=" ">
<polygon fill="#e0e0e0" stroke="#999999" points="93.5,-19 49.5,-19 49.5,0 93.5,0 93.5,-19"/>
<text text-anchor="middle" x="71.5" y="-7" font-family="Helvetica,sans-Serif" font-size="10.00">limits</text>
</a>
</g>
</g>
<!-- Node2&#45;&gt;Node4 -->
<g id="edge3_Node000002_Node000004" class="edge">
<title>Node2&#45;&gt;Node4</title>
<g id="a_edge3_Node000002_Node000004"><a xlink:title=" ">
<path fill="none" stroke="#63b8ff" d="M71.5,-60.37C71.5,-52.25 71.5,-39.81 71.5,-29.39"/>
<polygon fill="#63b8ff" stroke="#63b8ff" points="75,-29.17 71.5,-19.17 68,-29.17 75,-29.17"/>
</a>
</g>
</g>
<!-- Node5&#45;&gt;Node2 -->
<g id="edge10_Node000005_Node000002" class="edge">
<title>Node5&#45;&gt;Node2</title>
<g id="a_edge10_Node000005_Node000002"><a xlink:title=" ">
<path fill="none" stroke="#63b8ff" d="M223.76,-126.37C193.11,-115.22 139.57,-95.75 104.84,-83.12"/>
<polygon fill="#63b8ff" stroke="#63b8ff" points="105.73,-79.72 95.14,-79.6 103.34,-86.3 105.73,-79.72"/>
</a>
</g>
</g>
<!-- Node5&#45;&gt;Node3 -->
<g id="edge6_Node000005_Node000003" class="edge">
<title>Node5&#45;&gt;Node3</title>
<g id="a_edge6_Node000005_Node000003"><a xlink:title=" ">
<path fill="none" stroke="#63b8ff" d="M235.12,-126.18C222.86,-116.97 204.14,-101.58 191.5,-85 178.27,-67.65 167.76,-44.82 161.38,-29.03"/>
<polygon fill="#63b8ff" stroke="#63b8ff" points="164.51,-27.43 157.63,-19.37 157.99,-29.96 164.51,-27.43"/>
</a>
</g>
</g>
<!-- Node6 -->
<g id="Node000006" class="node">
<title>Node6</title>
<g id="a_Node000006"><a xlink:title=" ">
<polygon fill="#e0e0e0" stroke="#999999" points="438,-79.5 373,-79.5 373,-60.5 438,-60.5 438,-79.5"/>
<text text-anchor="middle" x="405.5" y="-67.5" font-family="Helvetica,sans-Serif" font-size="10.00">functional</text>
</a>
</g>
</g>
<!-- Node5&#45;&gt;Node6 -->
<g id="edge5_Node000005_Node000006" class="edge">
<title>Node5&#45;&gt;Node6</title>
<g id="a_edge5_Node000005_Node000006"><a xlink:title=" ">
<path fill="none" stroke="#63b8ff" d="M268.81,-126.37C296.1,-115.32 343.57,-96.08 374.77,-83.45"/>
<polygon fill="#63b8ff" stroke="#63b8ff" points="376.32,-86.59 384.28,-79.6 373.69,-80.11 376.32,-86.59"/>
</a>
</g>
</g>
<!-- Node7 -->
<g id="Node000007" class="node">
<title>Node7</title>
<g id="a_Node000007"><a xlink:href="IsStrongIdLike_8ixx.html" target="_top" xlink:title="Concept for types modelling a strong identifier.">
<polygon fill="white" stroke="#666666" points="355,-85 200,-85 200,-55 355,-55 355,-85"/>
<text text-anchor="start" x="208" y="-73" font-family="Helvetica,sans-Serif" font-size="10.00">helios.ecs.concepts.IsStrong</text>
<text text-anchor="middle" x="277.5" y="-62" font-family="Helvetica,sans-Serif" font-size="10.00">IdLike</text>
</a>
</g>
</g>
<!-- Node5&#45;&gt;Node7 -->
<g id="edge7_Node000005_Node000007" class="edge">
<title>Node5&#45;&gt;Node7</title>
<g id="a_edge7_Node000005_Node000007"><a xlink:title=" ">
<path fill="none" stroke="#63b8ff" d="M251.55,-126.37C255.36,-118.24 261.24,-105.69 266.44,-94.59"/>
<polygon fill="#63b8ff" stroke="#63b8ff" points="269.69,-95.9 270.77,-85.36 263.36,-92.93 269.69,-95.9"/>
</a>
</g>
</g>
<!-- Node8 -->
<g id="Node000008" class="node">
<title>Node8</title>
<g id="a_Node000008"><a xlink:title=" ">
<polygon fill="#e0e0e0" stroke="#999999" points="307.5,-19 247.5,-19 247.5,0 307.5,0 307.5,-19"/>
<text text-anchor="middle" x="277.5" y="-7" font-family="Helvetica,sans-Serif" font-size="10.00">concepts</text>
</a>
</g>
</g>
<!-- Node7&#45;&gt;Node8 -->
<g id="edge8_Node000007_Node000008" class="edge">
<title>Node7&#45;&gt;Node8</title>
<g id="a_edge8_Node000007_Node000008"><a xlink:title=" ">
<path fill="none" stroke="#63b8ff" d="M277.5,-54.84C277.5,-47.21 277.5,-37.7 277.5,-29.45"/>
<polygon fill="#63b8ff" stroke="#63b8ff" points="281,-29.27 277.5,-19.27 274,-29.27 281,-29.27"/>
</a>
</g>
</g>
<!-- Node9 -->
<g id="Node000009" class="node">
<title>Node9</title>
<g id="a_Node000009"><a xlink:title=" ">
<polygon fill="#e0e0e0" stroke="#999999" points="506.5,-19 358.5,-19 358.5,0 506.5,0 506.5,-19"/>
<text text-anchor="middle" x="432.5" y="-7" font-family="Helvetica,sans-Serif" font-size="10.00">helios.core.types.TypeDefs</text>
</a>
</g>
</g>
<!-- Node7&#45;&gt;Node9 -->
<g id="edge9_Node000007_Node000009" class="edge">
<title>Node7&#45;&gt;Node9</title>
<g id="a_edge9_Node000007_Node000009"><a xlink:title=" ">
<path fill="none" stroke="#63b8ff" d="M314.63,-54.99C340.72,-45.14 375.28,-32.1 400.23,-22.68"/>
<polygon fill="#63b8ff" stroke="#63b8ff" points="401.49,-25.94 409.61,-19.14 399.02,-19.4 401.49,-25.94"/>
</a>
</g>
</g>
<!-- Node10&#45;&gt;Node6 -->
<g id="edge12_Node000010_Node000006" class="edge">
<title>Node10&#45;&gt;Node6</title>
<g id="a_edge12_Node000010_Node000006"><a xlink:title=" ">
<path fill="none" stroke="#63b8ff" d="M428.84,-120.8C424.44,-111.41 418.63,-99.02 413.91,-88.95"/>
<polygon fill="#63b8ff" stroke="#63b8ff" points="417.06,-87.41 409.65,-79.84 410.72,-90.38 417.06,-87.41"/>
</a>
</g>
</g>
<!-- Node10&#45;&gt;Node9 -->
<g id="edge13_Node000010_Node000009" class="edge">
<title>Node10&#45;&gt;Node9</title>
<g id="a_edge13_Node000010_Node000009"><a xlink:title=" ">
<path fill="none" stroke="#63b8ff" d="M440.31,-120.82C445.11,-104.81 451.27,-78.01 447.5,-55 446.03,-46.05 443.01,-36.47 440.06,-28.51"/>
<polygon fill="#63b8ff" stroke="#63b8ff" points="443.29,-27.16 436.36,-19.15 436.78,-29.74 443.29,-27.16"/>
</a>
</g>
</g>
<!-- Node11 -->
<g id="Node000011" class="node">
<title>Node11</title>
<g id="a_Node000011"><a xlink:title=" ">
<polygon fill="#e0e0e0" stroke="#999999" points="626,-79.5 495,-79.5 495,-60.5 626,-60.5 626,-79.5"/>
<text text-anchor="middle" x="560.5" y="-67.5" font-family="Helvetica,sans-Serif" font-size="10.00">helios.core.TypeIndexer</text>
</a>
</g>
</g>
<!-- Node10&#45;&gt;Node11 -->
<g id="edge14_Node000010_Node000011" class="edge">
<title>Node10&#45;&gt;Node11</title>
<g id="a_edge14_Node000010_Node000011"><a xlink:title=" ">
<path fill="none" stroke="#63b8ff" d="M462.93,-120.95C484.37,-109.98 513.95,-94.83 534.9,-84.11"/>
<polygon fill="#63b8ff" stroke="#63b8ff" points="536.56,-87.19 543.86,-79.52 533.37,-80.96 536.56,-87.19"/>
</a>
</g>
</g>
<!-- Node12&#45;&gt;Node5 -->
<g id="edge16_Node000012_Node000005" class="edge">
<title>Node12&#45;&gt;Node5</title>
<g id="a_edge16_Node000012_Node000005"><a xlink:title=" ">
<path fill="none" stroke="#63b8ff" d="M271.37,-186.87C267.36,-178.49 261.15,-165.51 256.06,-154.89"/>
<polygon fill="#63b8ff" stroke="#63b8ff" points="259.12,-153.18 251.65,-145.67 252.81,-156.2 259.12,-153.18"/>
</a>
</g>
</g>
</g>
</svg>
