<?xml version="1.0" encoding="UTF-8" standalone="no"?>
<!DOCTYPE svg PUBLIC "-//W3C//DTD SVG 1.1//EN"
 "http://www.w3.org/Graphics/SVG/1.1/DTD/svg11.dtd">
<!-- Generated by graphviz version 2.43.0 (0)
 -->
<!-- Title: EntityManager.ixx Pages: 1 -->
<!--zoomable 390 -->

<svg id="main" version="1.1" xmlns="http://www.w3.org/2000/svg" xmlns:xlink="http://www.w3.org/1999/xlink" xml:space="preserve" onload="init(evt)">

<style type="text/css"><![CDATA[
.node, .edge {opacity: 0.7;}
.node.selected, .edge.selected {opacity: 1;}
.edge:hover path { stroke: red; }
.edge:hover polygon { stroke: red; fill: red; }
]]></style>

<defs>
  <circle id="rim" cx="0" cy="0" r="7"/>
  <circle id="rim2" cx="0" cy="0" r="3.5"/>
  <g id="zoomPlus">
    <use xlink:href="#rim" fill="#404040"><set attributeName="fill" to="#808080" begin="zoomplus.mouseover" end="zoomplus.mouseout"/></use>
    <path d="M-4,0h8M0,-4v8" fill="none" stroke="white" stroke-width="1.5" pointer-events="none"/>
  </g>
  <g id="zoomMin">
    <use xlink:href="#rim" fill="#404040"><set attributeName="fill" to="#808080" begin="zoomminus.mouseover" end="zoomminus.mouseout"/></use>
    <path d="M-4,0h8" fill="none" stroke="white" stroke-width="1.5" pointer-events="none"/>
  </g>
  <g id="arrowUp" transform="translate(30 24)">
    <use xlink:href="#rim"/>
    <path pointer-events="none" fill="none" stroke="white" stroke-width="1.5" d="M0,-3.0v7 M-2.5,-0.5L0,-3.0L2.5,-0.5"/>
  </g>
  <g id="arrowRight" transform="rotate(90) translate(36 -43)">
    <use xlink:href="#rim"/>
    <path pointer-events="none" fill="none" stroke="white" stroke-width="1.5" d="M0,-3.0v7 M-2.5,-0.5L0,-3.0L2.5,-0.5"/>
  </g>
  <g id="arrowDown" transform="rotate(180) translate(-30 -48)">
    <use xlink:href="#rim"/>
    <path pointer-events="none" fill="none" stroke="white" stroke-width="1.5" d="M0,-3.0v7 M-2.5,-0.5L0,-3.0L2.5,-0.5"/>
  </g>
  <g id="arrowLeft" transform="rotate(270) translate(-36 17)">
    <use xlink:href="#rim"/>
    <path pointer-events="none" fill="none" stroke="white" stroke-width="1.5" d="M0,-3.0v7 M-2.5,-0.5L0,-3.0L2.5,-0.5"/>
  </g>
  <g id="resetDef">
    <use xlink:href="#rim2" fill="#404040"><set attributeName="fill" to="#808080" begin="reset.mouseover" end="reset.mouseout"/></use>
  </g>
</defs>
<script type="application/ecmascript">
var viewWidth = 1601;
var viewHeight = 390;
var sectionId = 'dynsection-0';
</script>
<script type="application/ecmascript" xlink:href="svg.min.js"/>
<svg id="graph" class="graph">
<g id="viewport">
<title>EntityManager.ixx</title>
<!-- Node1 -->
<g id="Node000001" class="node">
<title>Node1</title>
<g id="a_Node000001"><a xlink:title="Central manager for entity lifecycle and component storage.">
<polygon fill="#999999" stroke="#666666" points="502.5,-382 397.5,-382 397.5,-363 502.5,-363 502.5,-382"/>
<text text-anchor="middle" x="450" y="-370" font-family="Helvetica,sans-Serif" font-size="10.00">EntityManager.ixx</text>
</a>
</g>
</g>
<!-- Node2 -->
<g id="Node000002" class="node">
<title>Node2</title>
<g id="a_Node000002"><a xlink:title=" ">
<polygon fill="#e0e0e0" stroke="#999999" points="68,-327 6,-327 6,-308 68,-308 68,-327"/>
<text text-anchor="middle" x="37" y="-315" font-family="Helvetica,sans-Serif" font-size="10.00">coroutine</text>
</a>
</g>
</g>
<!-- Node1&#45;&gt;Node2 -->
<g id="edge1_Node000001_Node000002" class="edge">
<title>Node1&#45;&gt;Node2</title>
<g id="a_edge1_Node000001_Node000002"><a xlink:title=" ">
<path fill="none" stroke="#63b8ff" d="M397.28,-366.73C326.82,-360.02 197.86,-346.56 78.44,-327.11"/>
<polygon fill="#63b8ff" stroke="#63b8ff" points="78.83,-323.62 68.39,-325.45 77.69,-330.53 78.83,-323.62"/>
</a>
</g>
</g>
<!-- Node3 -->
<g id="Node000003" class="node">
<title>Node3</title>
<g id="a_Node000003"><a xlink:title=" ">
<polygon fill="#e0e0e0" stroke="#999999" points="150,-327 86,-327 86,-308 150,-308 150,-327"/>
<text text-anchor="middle" x="118" y="-315" font-family="Helvetica,sans-Serif" font-size="10.00">generator</text>
</a>
</g>
</g>
<!-- Node1&#45;&gt;Node3 -->
<g id="edge2_Node000001_Node000003" class="edge">
<title>Node1&#45;&gt;Node3</title>
<g id="a_edge2_Node000001_Node000003"><a xlink:title=" ">
<path fill="none" stroke="#63b8ff" d="M397.29,-364.29C341,-356.4 248.95,-342.95 160.17,-327.13"/>
<polygon fill="#63b8ff" stroke="#63b8ff" points="160.66,-323.66 150.2,-325.34 159.42,-330.55 160.66,-323.66"/>
</a>
</g>
</g>
<!-- Node4 -->
<g id="Node000004" class="node">
<title>Node4</title>
<g id="a_Node000004"><a xlink:title=" ">
<polygon fill="#e0e0e0" stroke="#999999" points="226,-327 168,-327 168,-308 226,-308 226,-327"/>
<text text-anchor="middle" x="197" y="-315" font-family="Helvetica,sans-Serif" font-size="10.00">memory</text>
</a>
</g>
</g>
<!-- Node1&#45;&gt;Node4 -->
<g id="edge3_Node000001_Node000004" class="edge">
<title>Node1&#45;&gt;Node4</title>
<g id="a_edge3_Node000001_Node000004"><a xlink:title=" ">
<path fill="none" stroke="#63b8ff" d="M408.15,-362.92C367.1,-354.48 302.45,-341.11 236.54,-327.1"/>
<polygon fill="#63b8ff" stroke="#63b8ff" points="236.89,-323.59 226.38,-324.94 235.43,-330.44 236.89,-323.59"/>
</a>
</g>
</g>
<!-- Node5 -->
<g id="Node000005" class="node">
<title>Node5</title>
<g id="a_Node000005"><a xlink:title=" ">
<polygon fill="#e0e0e0" stroke="#999999" points="717.5,-134.5 670.5,-134.5 670.5,-115.5 717.5,-115.5 717.5,-134.5"/>
<text text-anchor="middle" x="694" y="-122.5" font-family="Helvetica,sans-Serif" font-size="10.00">vector</text>
</a>
</g>
</g>
<!-- Node1&#45;&gt;Node5 -->
<g id="edge4_Node000001_Node000005" class="edge">
<title>Node1&#45;&gt;Node5</title>
<g id="a_edge4_Node000001_Node000005"><a xlink:title=" ">
<path fill="none" stroke="#63b8ff" d="M483.05,-362.95C526.15,-350.17 601.19,-322.04 645,-272 666.87,-247.02 669.23,-237.41 680,-206 686.99,-185.63 690.62,-161.08 692.41,-144.6"/>
<polygon fill="#63b8ff" stroke="#63b8ff" points="695.9,-144.92 693.38,-134.63 688.93,-144.24 695.9,-144.92"/>
</a>
</g>
</g>
<!-- Node6 -->
<g id="Node000006" class="node">
<title>Node6</title>
<g id="a_Node000006"><a xlink:href="ecs_2types_2__modules_8ixx.html" target="_top" xlink:title=" ">
<polygon fill="white" stroke="#666666" points="339.5,-327 244.5,-327 244.5,-308 339.5,-308 339.5,-327"/>
<text text-anchor="middle" x="292" y="-315" font-family="Helvetica,sans-Serif" font-size="10.00">helios.ecs.types</text>
</a>
</g>
</g>
<!-- Node1&#45;&gt;Node6 -->
<g id="edge5_Node000001_Node000006" class="edge">
<title>Node1&#45;&gt;Node6</title>
<g id="a_edge5_Node000001_Node000006"><a xlink:title=" ">
<path fill="none" stroke="#63b8ff" d="M424.61,-362.98C398.2,-354.13 356.65,-340.19 327.1,-330.28"/>
<polygon fill="#63b8ff" stroke="#63b8ff" points="328.18,-326.94 317.58,-327.08 325.95,-333.58 328.18,-326.94"/>
</a>
</g>
</g>
<!-- Node18 -->
<g id="Node000018" class="node">
<title>Node18</title>
<g id="a_Node000018"><a xlink:href="ecs_2concepts_2Traits_8ixx.html" target="_top" xlink:title="Compile&#45;time traits for ECS component lifecycle hooks.">
<polygon fill="white" stroke="#666666" points="1593.5,-134.5 1452.5,-134.5 1452.5,-115.5 1593.5,-115.5 1593.5,-134.5"/>
<text text-anchor="middle" x="1523" y="-122.5" font-family="Helvetica,sans-Serif" font-size="10.00">helios.ecs.concepts.Traits</text>
</a>
</g>
</g>
<!-- Node1&#45;&gt;Node18 -->
<g id="edge22_Node000001_Node000018" class="edge">
<title>Node1&#45;&gt;Node18</title>
<g id="a_edge22_Node000001_Node000018"><a xlink:title=" ">
<path fill="none" stroke="#63b8ff" d="M502.72,-363.83C560.88,-355.26 657.22,-340.79 740,-327 1039.77,-277.06 1133.48,-325.28 1413,-206 1450.03,-190.2 1486.53,-159.96 1506.78,-141.52"/>
<polygon fill="#63b8ff" stroke="#63b8ff" points="1509.24,-144.01 1514.18,-134.64 1504.47,-138.88 1509.24,-144.01"/>
</a>
</g>
</g>
<!-- Node19 -->
<g id="Node000019" class="node">
<title>Node19</title>
<g id="a_Node000019"><a xlink:href="ecs_2ComponentOpsRegistry_8ixx.html" target="_top" xlink:title="Global registry mapping ComponentTypeId to ComponentOps.">
<polygon fill="white" stroke="#666666" points="542,-327 358,-327 358,-308 542,-308 542,-327"/>
<text text-anchor="middle" x="450" y="-315" font-family="Helvetica,sans-Serif" font-size="10.00">helios.ecs.ComponentOpsRegistry</text>
</a>
</g>
</g>
<!-- Node1&#45;&gt;Node19 -->
<g id="edge24_Node000001_Node000019" class="edge">
<title>Node1&#45;&gt;Node19</title>
<g id="a_edge24_Node000001_Node000019"><a xlink:title=" ">
<path fill="none" stroke="#63b8ff" d="M450,-362.75C450,-355.8 450,-345.85 450,-337.13"/>
<polygon fill="#63b8ff" stroke="#63b8ff" points="453.5,-337.09 450,-327.09 446.5,-337.09 453.5,-337.09"/>
</a>
</g>
</g>
<!-- Node20 -->
<g id="Node000020" class="node">
<title>Node20</title>
<g id="a_Node000020"><a xlink:href="ecs_2EntityRegistry_8ixx.html" target="_top" xlink:title="Generic, policy&#45;based entity registry for managing entity lifecycles.">
<polygon fill="white" stroke="#666666" points="881.5,-266.5 744.5,-266.5 744.5,-247.5 881.5,-247.5 881.5,-266.5"/>
<text text-anchor="middle" x="813" y="-254.5" font-family="Helvetica,sans-Serif" font-size="10.00">helios.ecs.EntityRegistry</text>
</a>
</g>
</g>
<!-- Node1&#45;&gt;Node20 -->
<g id="edge29_Node000001_Node000020" class="edge">
<title>Node1&#45;&gt;Node20</title>
<g id="a_edge29_Node000001_Node000020"><a xlink:title=" ">
<path fill="none" stroke="#63b8ff" d="M502.6,-368.73C555.96,-364.48 640.15,-353.79 708,-327 741.4,-313.81 775.27,-289.05 795.19,-273.05"/>
<polygon fill="#63b8ff" stroke="#63b8ff" points="797.55,-275.64 803.07,-266.59 793.11,-270.23 797.55,-275.64"/>
</a>
</g>
</g>
<!-- Node31 -->
<g id="Node000031" class="node">
<title>Node31</title>
<g id="a_Node000031"><a xlink:href="ecs_2SparseSet_8ixx.html" target="_top" xlink:title="Generic sparse set data structure for efficient entity&#45;keyed storage.">
<polygon fill="white" stroke="#666666" points="611.5,-266.5 494.5,-266.5 494.5,-247.5 611.5,-247.5 611.5,-266.5"/>
<text text-anchor="middle" x="553" y="-254.5" font-family="Helvetica,sans-Serif" font-size="10.00">helios.ecs.SparseSet</text>
</a>
</g>
</g>
<!-- Node1&#45;&gt;Node31 -->
<g id="edge52_Node000001_Node000031" class="edge">
<title>Node1&#45;&gt;Node31</title>
<g id="a_edge52_Node000001_Node000031"><a xlink:title=" ">
<path fill="none" stroke="#63b8ff" d="M495.66,-362.92C516.12,-356.59 538.43,-345.68 551,-327 560.92,-312.26 560.02,-291.46 557.51,-276.56"/>
<polygon fill="#63b8ff" stroke="#63b8ff" points="560.88,-275.59 555.42,-266.51 554.03,-277.01 560.88,-275.59"/>
</a>
</g>
</g>
<!-- Node7 -->
<g id="Node000007" class="node">
<title>Node7</title>
<g id="a_Node000007"><a xlink:href="TypeDefs_8ixx.html" target="_top" xlink:title="Core type definitions and tag types for the helios engine.">
<polygon fill="white" stroke="#666666" points="543.5,-134.5 400.5,-134.5 400.5,-115.5 543.5,-115.5 543.5,-134.5"/>
<text text-anchor="middle" x="472" y="-122.5" font-family="Helvetica,sans-Serif" font-size="10.00">helios.ecs.types.TypeDefs</text>
</a>
</g>
</g>
<!-- Node6&#45;&gt;Node7 -->
<g id="edge6_Node000006_Node000007" class="edge">
<title>Node6&#45;&gt;Node7</title>
<g id="a_edge6_Node000006_Node000007"><a xlink:title=" ">
<path fill="none" stroke="#63b8ff" d="M278.51,-307.75C267.71,-299.87 253.35,-287.21 247,-272 229.92,-231.1 240.53,-205.06 274,-176 305.83,-148.37 350.79,-135.62 389.83,-129.89"/>
<polygon fill="#63b8ff" stroke="#63b8ff" points="390.69,-133.3 400.14,-128.51 389.76,-126.36 390.69,-133.3"/>
</a>
</g>
</g>
<!-- Node10 -->
<g id="Node000010" class="node">
<title>Node10</title>
<g id="a_Node000010"><a xlink:href="ecs_2types_2EntityHandle_8ixx.html" target="_top" xlink:title="Versioned, strongly&#45;typed handle for referencing entities.">
<polygon fill="white" stroke="#666666" points="443.5,-200.5 282.5,-200.5 282.5,-181.5 443.5,-181.5 443.5,-200.5"/>
<text text-anchor="middle" x="363" y="-188.5" font-family="Helvetica,sans-Serif" font-size="10.00">helios.ecs.types.EntityHandle</text>
</a>
</g>
</g>
<!-- Node6&#45;&gt;Node10 -->
<g id="edge9_Node000006_Node000010" class="edge">
<title>Node6&#45;&gt;Node10</title>
<g id="a_edge9_Node000006_Node000010"><a xlink:title=" ">
<path fill="none" stroke="#63b8ff" d="M282.18,-307.89C267.16,-293.65 241.65,-264.54 256,-242 268.07,-223.04 289.43,-211.14 309.9,-203.75"/>
<polygon fill="#63b8ff" stroke="#63b8ff" points="311.13,-207.03 319.52,-200.56 308.93,-200.38 311.13,-207.03"/>
</a>
</g>
</g>
<!-- Node15 -->
<g id="Node000015" class="node">
<title>Node15</title>
<g id="a_Node000015"><a xlink:href="ecs_2types_2ComponentTypeId_8ixx.html" target="_top" xlink:title="Compile&#45;time type identifier for component types.">
<polygon fill="white" stroke="#666666" points="169.5,-272 14.5,-272 14.5,-242 169.5,-242 169.5,-272"/>
<text text-anchor="start" x="22.5" y="-260" font-family="Helvetica,sans-Serif" font-size="10.00">helios.ecs.types.Component</text>
<text text-anchor="middle" x="92" y="-249" font-family="Helvetica,sans-Serif" font-size="10.00">TypeId</text>
</a>
</g>
</g>
<!-- Node6&#45;&gt;Node15 -->
<g id="edge16_Node000006_Node000015" class="edge">
<title>Node6&#45;&gt;Node15</title>
<g id="a_edge16_Node000006_Node000015"><a xlink:title=" ">
<path fill="none" stroke="#63b8ff" d="M262.92,-307.99C233.38,-299.35 186.84,-285.74 149.77,-274.9"/>
<polygon fill="#63b8ff" stroke="#63b8ff" points="150.66,-271.51 140.08,-272.06 148.7,-278.23 150.66,-271.51"/>
</a>
</g>
</g>
<!-- Node17 -->
<g id="Node000017" class="node">
<title>Node17</title>
<g id="a_Node000017"><a xlink:href="ecs_2types_2ComponentOps_8ixx.html" target="_top" xlink:title="Function pointer structure for type&#45;erased component lifecycle callbacks.">
<polygon fill="white" stroke="#666666" points="437.5,-266.5 264.5,-266.5 264.5,-247.5 437.5,-247.5 437.5,-266.5"/>
<text text-anchor="middle" x="351" y="-254.5" font-family="Helvetica,sans-Serif" font-size="10.00">helios.ecs.types.ComponentOps</text>
</a>
</g>
</g>
<!-- Node6&#45;&gt;Node17 -->
<g id="edge20_Node000006_Node000017" class="edge">
<title>Node6&#45;&gt;Node17</title>
<g id="a_edge20_Node000006_Node000017"><a xlink:title=" ">
<path fill="none" stroke="#63b8ff" d="M300.7,-307.87C309.68,-298.97 323.88,-284.89 334.91,-273.95"/>
<polygon fill="#63b8ff" stroke="#63b8ff" points="337.62,-276.19 342.26,-266.67 332.69,-271.22 337.62,-276.19"/>
</a>
</g>
</g>
<!-- Node8 -->
<g id="Node000008" class="node">
<title>Node8</title>
<g id="a_Node000008"><a xlink:title=" ">
<polygon fill="#e0e0e0" stroke="#999999" points="497,-19 447,-19 447,0 497,0 497,-19"/>
<text text-anchor="middle" x="472" y="-7" font-family="Helvetica,sans-Serif" font-size="10.00">cstdint</text>
</a>
</g>
</g>
<!-- Node7&#45;&gt;Node8 -->
<g id="edge7_Node000007_Node000008" class="edge">
<title>Node7&#45;&gt;Node8</title>
<g id="a_edge7_Node000007_Node000008"><a xlink:title=" ">
<path fill="none" stroke="#63b8ff" d="M472,-115.47C472,-97.23 472,-54.07 472,-29.14"/>
<polygon fill="#63b8ff" stroke="#63b8ff" points="475.5,-29.13 472,-19.13 468.5,-29.13 475.5,-29.13"/>
</a>
</g>
</g>
<!-- Node9 -->
<g id="Node000009" class="node">
<title>Node9</title>
<g id="a_Node000009"><a xlink:title=" ">
<polygon fill="#e0e0e0" stroke="#999999" points="707,-19 663,-19 663,0 707,0 707,-19"/>
<text text-anchor="middle" x="685" y="-7" font-family="Helvetica,sans-Serif" font-size="10.00">limits</text>
</a>
</g>
</g>
<!-- Node7&#45;&gt;Node9 -->
<g id="edge8_Node000007_Node000009" class="edge">
<title>Node7&#45;&gt;Node9</title>
<g id="a_edge8_Node000007_Node000009"><a xlink:title=" ">
<path fill="none" stroke="#63b8ff" d="M488.01,-115.47C524.78,-95.87 615.53,-47.52 659.84,-23.91"/>
<polygon fill="#63b8ff" stroke="#63b8ff" points="661.62,-26.92 668.8,-19.13 658.33,-20.74 661.62,-26.92"/>
</a>
</g>
</g>
<!-- Node10&#45;&gt;Node7 -->
<g id="edge15_Node000010_Node000007" class="edge">
<title>Node10&#45;&gt;Node7</title>
<g id="a_edge15_Node000010_Node000007"><a xlink:title=" ">
<path fill="none" stroke="#63b8ff" d="M377.7,-181.37C395.82,-170.73 426.85,-152.51 448.34,-139.89"/>
<polygon fill="#63b8ff" stroke="#63b8ff" points="450.33,-142.78 457.18,-134.7 446.79,-136.74 450.33,-142.78"/>
</a>
</g>
</g>
<!-- Node10&#45;&gt;Node8 -->
<g id="edge11_Node000010_Node000008" class="edge">
<title>Node10&#45;&gt;Node8</title>
<g id="a_edge11_Node000010_Node000008"><a xlink:title=" ">
<path fill="none" stroke="#63b8ff" d="M365.17,-181.19C369.12,-166 378.38,-134.21 392,-110 410.18,-77.69 438.75,-45.13 456.38,-26.43"/>
<polygon fill="#63b8ff" stroke="#63b8ff" points="459.02,-28.73 463.41,-19.09 453.97,-23.89 459.02,-28.73"/>
</a>
</g>
</g>
<!-- Node11 -->
<g id="Node000011" class="node">
<title>Node11</title>
<g id="a_Node000011"><a xlink:title=" ">
<polygon fill="#e0e0e0" stroke="#999999" points="286.5,-134.5 221.5,-134.5 221.5,-115.5 286.5,-115.5 286.5,-134.5"/>
<text text-anchor="middle" x="254" y="-122.5" font-family="Helvetica,sans-Serif" font-size="10.00">functional</text>
</a>
</g>
</g>
<!-- Node10&#45;&gt;Node11 -->
<g id="edge10_Node000010_Node000011" class="edge">
<title>Node10&#45;&gt;Node11</title>
<g id="a_edge10_Node000010_Node000011"><a xlink:title=" ">
<path fill="none" stroke="#63b8ff" d="M348.3,-181.37C330.18,-170.73 299.15,-152.51 277.66,-139.89"/>
<polygon fill="#63b8ff" stroke="#63b8ff" points="279.21,-136.74 268.81,-134.7 275.67,-142.78 279.21,-136.74"/>
</a>
</g>
</g>
<!-- Node12 -->
<g id="Node000012" class="node">
<title>Node12</title>
<g id="a_Node000012"><a xlink:href="IsStrongIdLike_8ixx.html" target="_top" xlink:title="Concept for types modelling a strong identifier.">
<polygon fill="white" stroke="#666666" points="1261.5,-140 1106.5,-140 1106.5,-110 1261.5,-110 1261.5,-140"/>
<text text-anchor="start" x="1114.5" y="-128" font-family="Helvetica,sans-Serif" font-size="10.00">helios.ecs.concepts.IsStrong</text>
<text text-anchor="middle" x="1184" y="-117" font-family="Helvetica,sans-Serif" font-size="10.00">IdLike</text>
</a>
</g>
</g>
<!-- Node10&#45;&gt;Node12 -->
<g id="edge12_Node000010_Node000012" class="edge">
<title>Node10&#45;&gt;Node12</title>
<g id="a_edge12_Node000010_Node000012"><a xlink:title=" ">
<path fill="none" stroke="#63b8ff" d="M443.61,-182.94C470.73,-180.63 501.17,-178.12 529,-176 764.42,-158.08 823.85,-161.14 1059,-140 1071.1,-138.91 1083.84,-137.64 1096.38,-136.3"/>
<polygon fill="#63b8ff" stroke="#63b8ff" points="1096.8,-139.78 1106.37,-135.23 1096.05,-132.82 1096.8,-139.78"/>
</a>
</g>
</g>
<!-- Node13 -->
<g id="Node000013" class="node">
<title>Node13</title>
<g id="a_Node000013"><a xlink:title=" ">
<polygon fill="#e0e0e0" stroke="#999999" points="1251,-74 1191,-74 1191,-55 1251,-55 1251,-74"/>
<text text-anchor="middle" x="1221" y="-62" font-family="Helvetica,sans-Serif" font-size="10.00">concepts</text>
</a>
</g>
</g>
<!-- Node12&#45;&gt;Node13 -->
<g id="edge13_Node000012_Node000013" class="edge">
<title>Node12&#45;&gt;Node13</title>
<g id="a_edge13_Node000012_Node000013"><a xlink:title=" ">
<path fill="none" stroke="#63b8ff" d="M1192.96,-109.84C1198.11,-101.69 1204.62,-91.4 1210.07,-82.78"/>
<polygon fill="#63b8ff" stroke="#63b8ff" points="1213.07,-84.59 1215.45,-74.27 1207.15,-80.85 1213.07,-84.59"/>
</a>
</g>
</g>
<!-- Node14 -->
<g id="Node000014" class="node">
<title>Node14</title>
<g id="a_Node000014"><a xlink:title=" ">
<polygon fill="#e0e0e0" stroke="#999999" points="1010,-74 862,-74 862,-55 1010,-55 1010,-74"/>
<text text-anchor="middle" x="936" y="-62" font-family="Helvetica,sans-Serif" font-size="10.00">helios.core.types.TypeDefs</text>
</a>
</g>
</g>
<!-- Node12&#45;&gt;Node14 -->
<g id="edge14_Node000012_Node000014" class="edge">
<title>Node12&#45;&gt;Node14</title>
<g id="a_edge14_Node000012_Node000014"><a xlink:title=" ">
<path fill="none" stroke="#63b8ff" d="M1124.6,-109.99C1080.87,-99.67 1022.28,-85.85 982.07,-76.37"/>
<polygon fill="#63b8ff" stroke="#63b8ff" points="982.8,-72.94 972.26,-74.05 981.19,-79.76 982.8,-72.94"/>
</a>
</g>
</g>
<!-- Node15&#45;&gt;Node11 -->
<g id="edge17_Node000015_Node000011" class="edge">
<title>Node15&#45;&gt;Node11</title>
<g id="a_edge17_Node000015_Node000011"><a xlink:title=" ">
<path fill="none" stroke="#63b8ff" d="M57.27,-241.9C25.07,-226.81 -14.92,-201.56 6,-176 31.43,-144.93 147.02,-132.74 211.03,-128.3"/>
<polygon fill="#63b8ff" stroke="#63b8ff" points="211.46,-131.78 221.21,-127.63 211,-124.8 211.46,-131.78"/>
</a>
</g>
</g>
<!-- Node15&#45;&gt;Node14 -->
<g id="edge18_Node000015_Node000014" class="edge">
<title>Node15&#45;&gt;Node14</title>
<g id="a_edge18_Node000015_Node000014"><a xlink:title=" ">
<path fill="none" stroke="#63b8ff" d="M113.49,-241.94C126.5,-232.74 142.87,-219.88 155,-206 187.64,-168.63 169.65,-135.86 212,-110 265.41,-77.39 672.34,-68.59 851.63,-66.29"/>
<polygon fill="#63b8ff" stroke="#63b8ff" points="851.85,-69.79 861.81,-66.16 851.76,-62.79 851.85,-69.79"/>
</a>
</g>
</g>
<!-- Node16 -->
<g id="Node000016" class="node">
<title>Node16</title>
<g id="a_Node000016"><a xlink:title=" ">
<polygon fill="#e0e0e0" stroke="#999999" points="146.5,-200.5 15.5,-200.5 15.5,-181.5 146.5,-181.5 146.5,-200.5"/>
<text text-anchor="middle" x="81" y="-188.5" font-family="Helvetica,sans-Serif" font-size="10.00">helios.core.TypeIndexer</text>
</a>
</g>
</g>
<!-- Node15&#45;&gt;Node16 -->
<g id="edge19_Node000015_Node000016" class="edge">
<title>Node15&#45;&gt;Node16</title>
<g id="a_edge19_Node000015_Node000016"><a xlink:title=" ">
<path fill="none" stroke="#63b8ff" d="M89.56,-241.8C87.99,-232.7 85.95,-220.79 84.25,-210.9"/>
<polygon fill="#63b8ff" stroke="#63b8ff" points="87.66,-210.11 82.52,-200.84 80.76,-211.29 87.66,-210.11"/>
</a>
</g>
</g>
<!-- Node17&#45;&gt;Node10 -->
<g id="edge21_Node000017_Node000010" class="edge">
<title>Node17&#45;&gt;Node10</title>
<g id="a_edge21_Node000017_Node000010"><a xlink:title=" ">
<path fill="none" stroke="#63b8ff" d="M352.62,-247.37C354.36,-238.07 357.19,-222.98 359.46,-210.9"/>
<polygon fill="#63b8ff" stroke="#63b8ff" points="362.93,-211.38 361.33,-200.91 356.05,-210.09 362.93,-211.38"/>
</a>
</g>
</g>
<!-- Node18&#45;&gt;Node13 -->
<g id="edge23_Node000018_Node000013" class="edge">
<title>Node18&#45;&gt;Node13</title>
<g id="a_edge23_Node000018_Node000013"><a xlink:title=" ">
<path fill="none" stroke="#63b8ff" d="M1475.89,-115.44C1425.26,-106.15 1342.18,-90.65 1261.09,-74.18"/>
<polygon fill="#63b8ff" stroke="#63b8ff" points="1261.71,-70.74 1251.22,-72.17 1260.32,-77.6 1261.71,-70.74"/>
</a>
</g>
</g>
<!-- Node19&#45;&gt;Node5 -->
<g id="edge25_Node000019_Node000005" class="edge">
<title>Node19&#45;&gt;Node5</title>
<g id="a_edge25_Node000019_Node000005"><a xlink:title=" ">
<path fill="none" stroke="#63b8ff" d="M539.64,-307.9C568.04,-301.54 598,-290.63 621,-272 642.45,-254.62 673.54,-179.12 687.16,-144.04"/>
<polygon fill="#63b8ff" stroke="#63b8ff" points="690.49,-145.15 690.8,-134.56 683.95,-142.64 690.49,-145.15"/>
</a>
</g>
</g>
<!-- Node19&#45;&gt;Node10 -->
<g id="edge28_Node000019_Node000010" class="edge">
<title>Node19&#45;&gt;Node10</title>
<g id="a_edge28_Node000019_Node000010"><a xlink:title=" ">
<path fill="none" stroke="#63b8ff" d="M452.11,-307.95C455.23,-293.29 459.45,-262.91 447,-242 436.6,-224.53 417.53,-212.46 400.19,-204.56"/>
<polygon fill="#63b8ff" stroke="#63b8ff" points="401.37,-201.26 390.8,-200.6 398.65,-207.71 401.37,-201.26"/>
</a>
</g>
</g>
<!-- Node19&#45;&gt;Node15 -->
<g id="edge26_Node000019_Node000015" class="edge">
<title>Node19&#45;&gt;Node15</title>
<g id="a_edge26_Node000019_Node000015"><a xlink:title=" ">
<path fill="none" stroke="#63b8ff" d="M397.94,-307.99C340.74,-298.65 247.89,-283.47 179.46,-272.29"/>
<polygon fill="#63b8ff" stroke="#63b8ff" points="179.98,-268.83 169.55,-270.67 178.85,-275.74 179.98,-268.83"/>
</a>
</g>
</g>
<!-- Node19&#45;&gt;Node17 -->
<g id="edge27_Node000019_Node000017" class="edge">
<title>Node19&#45;&gt;Node17</title>
<g id="a_edge27_Node000019_Node000017"><a xlink:title=" ">
<path fill="none" stroke="#63b8ff" d="M435.39,-307.87C419.31,-298.36 393.22,-282.95 374.3,-271.77"/>
<polygon fill="#63b8ff" stroke="#63b8ff" points="376.06,-268.74 365.67,-266.67 372.5,-274.77 376.06,-268.74"/>
</a>
</g>
</g>
<!-- Node20&#45;&gt;Node5 -->
<g id="edge31_Node000020_Node000005" class="edge">
<title>Node20&#45;&gt;Node5</title>
<g id="a_edge31_Node000020_Node000005"><a xlink:title=" ">
<path fill="none" stroke="#63b8ff" d="M800.27,-247.32C787.11,-238 766.36,-222.31 751,-206 732.43,-186.29 714.96,-160.24 704.37,-143.31"/>
<polygon fill="#63b8ff" stroke="#63b8ff" points="707.19,-141.2 698.98,-134.51 701.22,-144.86 707.19,-141.2"/>
</a>
</g>
</g>
<!-- Node20&#45;&gt;Node7 -->
<g id="edge50_Node000020_Node000007" class="edge">
<title>Node20&#45;&gt;Node7</title>
<g id="a_edge50_Node000020_Node000007"><a xlink:title=" ">
<path fill="none" stroke="#63b8ff" d="M790.63,-247.47C731.73,-225.02 572.27,-164.23 503.86,-138.15"/>
<polygon fill="#63b8ff" stroke="#63b8ff" points="505.05,-134.85 494.46,-134.56 502.55,-141.39 505.05,-134.85"/>
</a>
</g>
</g>
<!-- Node20&#45;&gt;Node10 -->
<g id="edge49_Node000020_Node000010" class="edge">
<title>Node20&#45;&gt;Node10</title>
<g id="a_edge49_Node000020_Node000010"><a xlink:title=" ">
<path fill="none" stroke="#63b8ff" d="M752.78,-247.44C669.84,-235.64 520.79,-214.44 433,-201.96"/>
<polygon fill="#63b8ff" stroke="#63b8ff" points="433.26,-198.46 422.86,-200.51 432.27,-205.39 433.26,-198.46"/>
</a>
</g>
</g>
<!-- Node20&#45;&gt;Node14 -->
<g id="edge51_Node000020_Node000014" class="edge">
<title>Node20&#45;&gt;Node14</title>
<g id="a_edge51_Node000020_Node000014"><a xlink:title=" ">
<path fill="none" stroke="#63b8ff" d="M881.55,-253.63C956.11,-249.44 1068.29,-237.86 1095,-206 1120.47,-175.61 1068.45,-118.11 1059,-110 1040.24,-93.9 1015.18,-83.44 992.58,-76.74"/>
<polygon fill="#63b8ff" stroke="#63b8ff" points="993.31,-73.31 982.74,-74.01 991.44,-80.06 993.31,-73.31"/>
</a>
</g>
</g>
<!-- Node21 -->
<g id="Node000021" class="node">
<title>Node21</title>
<g id="a_Node000021"><a xlink:title=" ">
<polygon fill="#e0e0e0" stroke="#999999" points="1264,-200.5 1142,-200.5 1142,-181.5 1264,-181.5 1264,-200.5"/>
<text text-anchor="middle" x="1203" y="-188.5" font-family="Helvetica,sans-Serif" font-size="10.00">helios/helios_config.h</text>
</a>
</g>
</g>
<!-- Node20&#45;&gt;Node21 -->
<g id="edge30_Node000020_Node000021" class="edge">
<title>Node20&#45;&gt;Node21</title>
<g id="a_edge30_Node000020_Node000021"><a xlink:title=" ">
<path fill="none" stroke="#63b8ff" d="M869.69,-247.47C932.82,-237.87 1037.83,-221.57 1128,-206 1134.58,-204.86 1141.47,-203.63 1148.3,-202.39"/>
<polygon fill="#63b8ff" stroke="#63b8ff" points="1149.02,-205.82 1158.22,-200.56 1147.75,-198.93 1149.02,-205.82"/>
</a>
</g>
</g>
<!-- Node22 -->
<g id="Node000022" class="node">
<title>Node22</title>
<g id="a_Node000022"><a xlink:title=" ">
<polygon fill="#e0e0e0" stroke="#999999" points="590,-200.5 538,-200.5 538,-181.5 590,-181.5 590,-200.5"/>
<text text-anchor="middle" x="564" y="-188.5" font-family="Helvetica,sans-Serif" font-size="10.00">cassert</text>
</a>
</g>
</g>
<!-- Node20&#45;&gt;Node22 -->
<g id="edge32_Node000020_Node000022" class="edge">
<title>Node20&#45;&gt;Node22</title>
<g id="a_edge32_Node000020_Node000022"><a xlink:title=" ">
<path fill="none" stroke="#63b8ff" d="M779.68,-247.44C732.91,-235.41 648.15,-213.63 599.99,-201.25"/>
<polygon fill="#63b8ff" stroke="#63b8ff" points="600.85,-197.86 590.29,-198.76 599.11,-204.64 600.85,-197.86"/>
</a>
</g>
</g>
<!-- Node23 -->
<g id="Node000023" class="node">
<title>Node23</title>
<g id="a_Node000023"><a xlink:href="HashedLookupStrategy_8ixx.html" target="_top" xlink:title="Hash&#45;based lookup strategy for strong ID collision detection.">
<polygon fill="white" stroke="#666666" points="1085.5,-206 928.5,-206 928.5,-176 1085.5,-176 1085.5,-206"/>
<text text-anchor="start" x="936.5" y="-194" font-family="Helvetica,sans-Serif" font-size="10.00">helios.ecs.strategies.Hashed</text>
<text text-anchor="middle" x="1007" y="-183" font-family="Helvetica,sans-Serif" font-size="10.00">LookupStrategy</text>
</a>
</g>
</g>
<!-- Node20&#45;&gt;Node23 -->
<g id="edge33_Node000020_Node000023" class="edge">
<title>Node20&#45;&gt;Node23</title>
<g id="a_edge33_Node000020_Node000023"><a xlink:title=" ">
<path fill="none" stroke="#63b8ff" d="M839.16,-247.37C868.59,-237.66 917.16,-221.64 954.49,-209.32"/>
<polygon fill="#63b8ff" stroke="#63b8ff" points="955.81,-212.57 964.21,-206.12 953.62,-205.92 955.81,-212.57"/>
</a>
</g>
</g>
<!-- Node25 -->
<g id="Node000025" class="node">
<title>Node25</title>
<g id="a_Node000025"><a xlink:href="helios_2ecs_2concepts_2__module_8ixx.html" target="_top" xlink:title=" ">
<polygon fill="white" stroke="#666666" points="1404,-200.5 1292,-200.5 1292,-181.5 1404,-181.5 1404,-200.5"/>
<text text-anchor="middle" x="1348" y="-188.5" font-family="Helvetica,sans-Serif" font-size="10.00">helios.ecs.concepts</text>
</a>
</g>
</g>
<!-- Node20&#45;&gt;Node25 -->
<g id="edge36_Node000020_Node000025" class="edge">
<title>Node20&#45;&gt;Node25</title>
<g id="a_edge36_Node000020_Node000025"><a xlink:title=" ">
<path fill="none" stroke="#63b8ff" d="M881.79,-250.17C971.9,-242.16 1134.72,-226.39 1273,-206 1280.21,-204.94 1287.78,-203.68 1295.23,-202.37"/>
<polygon fill="#63b8ff" stroke="#63b8ff" points="1296.04,-205.78 1305.26,-200.56 1294.8,-198.89 1296.04,-205.78"/>
</a>
</g>
</g>
<!-- Node28 -->
<g id="Node000028" class="node">
<title>Node28</title>
<g id="a_Node000028"><a xlink:href="LinearLookupStrategy_8ixx.html" target="_top" xlink:title="Linear&#45;scan lookup strategy for strong ID collision detection.">
<polygon fill="white" stroke="#666666" points="910,-206 760,-206 760,-176 910,-176 910,-206"/>
<text text-anchor="start" x="768" y="-194" font-family="Helvetica,sans-Serif" font-size="10.00">helios.ecs.strategies.Linear</text>
<text text-anchor="middle" x="835" y="-183" font-family="Helvetica,sans-Serif" font-size="10.00">LookupStrategy</text>
</a>
</g>
</g>
<!-- Node20&#45;&gt;Node28 -->
<g id="edge44_Node000020_Node000028" class="edge">
<title>Node20&#45;&gt;Node28</title>
<g id="a_edge44_Node000020_Node000028"><a xlink:title=" ">
<path fill="none" stroke="#63b8ff" d="M815.97,-247.37C818.73,-239.32 822.99,-226.94 826.77,-215.93"/>
<polygon fill="#63b8ff" stroke="#63b8ff" points="830.12,-216.96 830.06,-206.36 823.5,-214.68 830.12,-216.96"/>
</a>
</g>
</g>
<!-- Node23&#45;&gt;Node14 -->
<g id="edge35_Node000023_Node000014" class="edge">
<title>Node23&#45;&gt;Node14</title>
<g id="a_edge35_Node000023_Node000014"><a xlink:title=" ">
<path fill="none" stroke="#63b8ff" d="M987.56,-175.81C976.47,-166.74 963.19,-154.07 955,-140 944.95,-122.74 940.15,-100.19 937.91,-84.45"/>
<polygon fill="#63b8ff" stroke="#63b8ff" points="941.36,-83.86 936.68,-74.35 934.41,-84.7 941.36,-83.86"/>
</a>
</g>
</g>
<!-- Node24 -->
<g id="Node000024" class="node">
<title>Node24</title>
<g id="a_Node000024"><a xlink:title=" ">
<polygon fill="#e0e0e0" stroke="#999999" points="1050,-134.5 964,-134.5 964,-115.5 1050,-115.5 1050,-134.5"/>
<text text-anchor="middle" x="1007" y="-122.5" font-family="Helvetica,sans-Serif" font-size="10.00">unordered_set</text>
</a>
</g>
</g>
<!-- Node23&#45;&gt;Node24 -->
<g id="edge34_Node000023_Node000024" class="edge">
<title>Node23&#45;&gt;Node24</title>
<g id="a_edge34_Node000023_Node000024"><a xlink:title=" ">
<path fill="none" stroke="#63b8ff" d="M1007,-175.8C1007,-166.7 1007,-154.79 1007,-144.9"/>
<polygon fill="#63b8ff" stroke="#63b8ff" points="1010.5,-144.84 1007,-134.84 1003.5,-144.84 1010.5,-144.84"/>
</a>
</g>
</g>
<!-- Node25&#45;&gt;Node12 -->
<g id="edge38_Node000025_Node000012" class="edge">
<title>Node25&#45;&gt;Node12</title>
<g id="a_edge38_Node000025_Node000012"><a xlink:title=" ">
<path fill="none" stroke="#63b8ff" d="M1325.88,-181.37C1301.32,-171.78 1260.99,-156.05 1229.6,-143.8"/>
<polygon fill="#63b8ff" stroke="#63b8ff" points="1230.76,-140.49 1220.17,-140.12 1228.21,-147.01 1230.76,-140.49"/>
</a>
</g>
</g>
<!-- Node25&#45;&gt;Node18 -->
<g id="edge37_Node000025_Node000018" class="edge">
<title>Node25&#45;&gt;Node18</title>
<g id="a_edge37_Node000025_Node000018"><a xlink:title=" ">
<path fill="none" stroke="#63b8ff" d="M1371.6,-181.37C1402.08,-170.22 1455.32,-150.75 1489.85,-138.12"/>
<polygon fill="#63b8ff" stroke="#63b8ff" points="1491.3,-141.32 1499.49,-134.6 1488.9,-134.74 1491.3,-141.32"/>
</a>
</g>
</g>
<!-- Node26 -->
<g id="Node000026" class="node">
<title>Node26</title>
<g id="a_Node000026"><a xlink:href="IsStrongIdCollisionResolverLike_8ixx.html" target="_top" xlink:title="Concept for strong ID collision detection strategies.">
<polygon fill="white" stroke="#666666" points="1434.5,-140 1279.5,-140 1279.5,-110 1434.5,-110 1434.5,-140"/>
<text text-anchor="start" x="1287.5" y="-128" font-family="Helvetica,sans-Serif" font-size="10.00">helios.ecs.concepts.IsStrong</text>
<text text-anchor="middle" x="1357" y="-117" font-family="Helvetica,sans-Serif" font-size="10.00">IdCollisionResolverLike</text>
</a>
</g>
</g>
<!-- Node25&#45;&gt;Node26 -->
<g id="edge39_Node000025_Node000026" class="edge">
<title>Node25&#45;&gt;Node26</title>
<g id="a_edge39_Node000025_Node000026"><a xlink:title=" ">
<path fill="none" stroke="#63b8ff" d="M1349.21,-181.37C1350.33,-173.4 1352.05,-161.2 1353.59,-150.27"/>
<polygon fill="#63b8ff" stroke="#63b8ff" points="1357.05,-150.75 1354.98,-140.36 1350.12,-149.78 1357.05,-150.75"/>
</a>
</g>
</g>
<!-- Node26&#45;&gt;Node13 -->
<g id="edge40_Node000026_Node000013" class="edge">
<title>Node26&#45;&gt;Node13</title>
<g id="a_edge40_Node000026_Node000013"><a xlink:title=" ">
<path fill="none" stroke="#63b8ff" d="M1324.42,-109.99C1301.94,-100.31 1272.28,-87.56 1250.49,-78.18"/>
<polygon fill="#63b8ff" stroke="#63b8ff" points="1251.65,-74.88 1241.08,-74.14 1248.89,-81.31 1251.65,-74.88"/>
</a>
</g>
</g>
<!-- Node27 -->
<g id="Node000027" class="node">
<title>Node27</title>
<g id="a_Node000027"><a xlink:href="types_8ixx.html" target="_top" xlink:title="Core type definitions and tag types for the helios engine.">
<polygon fill="white" stroke="#666666" points="1369,-74 1269,-74 1269,-55 1369,-55 1369,-74"/>
<text text-anchor="middle" x="1319" y="-62" font-family="Helvetica,sans-Serif" font-size="10.00">helios.core.types</text>
</a>
</g>
</g>
<!-- Node26&#45;&gt;Node27 -->
<g id="edge41_Node000026_Node000027" class="edge">
<title>Node26&#45;&gt;Node27</title>
<g id="a_edge41_Node000026_Node000027"><a xlink:title=" ">
<path fill="none" stroke="#63b8ff" d="M1347.8,-109.84C1342.51,-101.69 1335.82,-91.4 1330.22,-82.78"/>
<polygon fill="#63b8ff" stroke="#63b8ff" points="1333.08,-80.75 1324.69,-74.27 1327.21,-84.56 1333.08,-80.75"/>
</a>
</g>
</g>
<!-- Node27&#45;&gt;Node8 -->
<g id="edge42_Node000027_Node000008" class="edge">
<title>Node27&#45;&gt;Node8</title>
<g id="a_edge42_Node000027_Node000008"><a xlink:title=" ">
<path fill="none" stroke="#63b8ff" d="M1268.82,-55.97C1265.84,-55.62 1262.88,-55.29 1260,-55 1184.59,-47.45 651,-19.72 507.47,-12.32"/>
<polygon fill="#63b8ff" stroke="#63b8ff" points="507.23,-8.8 497.07,-11.79 506.87,-15.8 507.23,-8.8"/>
</a>
</g>
</g>
<!-- Node27&#45;&gt;Node9 -->
<g id="edge43_Node000027_Node000009" class="edge">
<title>Node27&#45;&gt;Node9</title>
<g id="a_edge43_Node000027_Node000009"><a xlink:title=" ">
<path fill="none" stroke="#63b8ff" d="M1268.82,-56.04C1265.84,-55.67 1262.88,-55.32 1260,-55 1053.89,-32.2 804.92,-17.17 717.35,-12.25"/>
<polygon fill="#63b8ff" stroke="#63b8ff" points="717.43,-8.75 707.25,-11.69 717.04,-15.74 717.43,-8.75"/>
</a>
</g>
</g>
<!-- Node28&#45;&gt;Node5 -->
<g id="edge45_Node000028_Node000005" class="edge">
<title>Node28&#45;&gt;Node5</title>
<g id="a_edge45_Node000028_Node000005"><a xlink:title=" ">
<path fill="none" stroke="#63b8ff" d="M804.06,-175.95C779.55,-164.83 745.61,-149.42 721.92,-138.67"/>
<polygon fill="#63b8ff" stroke="#63b8ff" points="723.32,-135.46 712.76,-134.52 720.42,-141.84 723.32,-135.46"/>
</a>
</g>
</g>
<!-- Node28&#45;&gt;Node14 -->
<g id="edge48_Node000028_Node000014" class="edge">
<title>Node28&#45;&gt;Node14</title>
<g id="a_edge48_Node000028_Node000014"><a xlink:title=" ">
<path fill="none" stroke="#63b8ff" d="M808.37,-175.89C782.19,-160.17 748.64,-133.82 767,-110 779.08,-94.33 822.73,-83.07 862.64,-75.8"/>
<polygon fill="#63b8ff" stroke="#63b8ff" points="863.44,-79.22 872.68,-74.04 862.23,-72.32 863.44,-79.22"/>
</a>
</g>
</g>
<!-- Node29 -->
<g id="Node000029" class="node">
<title>Node29</title>
<g id="a_Node000029"><a xlink:title=" ">
<polygon fill="#e0e0e0" stroke="#999999" points="840,-134.5 776,-134.5 776,-115.5 840,-115.5 840,-134.5"/>
<text text-anchor="middle" x="808" y="-122.5" font-family="Helvetica,sans-Serif" font-size="10.00">algorithm</text>
</a>
</g>
</g>
<!-- Node28&#45;&gt;Node29 -->
<g id="edge46_Node000028_Node000029" class="edge">
<title>Node28&#45;&gt;Node29</title>
<g id="a_edge46_Node000028_Node000029"><a xlink:title=" ">
<path fill="none" stroke="#63b8ff" d="M829.01,-175.8C825.09,-166.5 819.93,-154.27 815.7,-144.26"/>
<polygon fill="#63b8ff" stroke="#63b8ff" points="818.84,-142.7 811.73,-134.84 812.39,-145.42 818.84,-142.7"/>
</a>
</g>
</g>
<!-- Node30 -->
<g id="Node000030" class="node">
<title>Node30</title>
<g id="a_Node000030"><a xlink:title=" ">
<polygon fill="#e0e0e0" stroke="#999999" points="908,-134.5 858,-134.5 858,-115.5 908,-115.5 908,-134.5"/>
<text text-anchor="middle" x="883" y="-122.5" font-family="Helvetica,sans-Serif" font-size="10.00">ranges</text>
</a>
</g>
</g>
<!-- Node28&#45;&gt;Node30 -->
<g id="edge47_Node000028_Node000030" class="edge">
<title>Node28&#45;&gt;Node30</title>
<g id="a_edge47_Node000028_Node000030"><a xlink:title=" ">
<path fill="none" stroke="#63b8ff" d="M845.65,-175.8C852.92,-166.11 862.57,-153.24 870.24,-143.01"/>
<polygon fill="#63b8ff" stroke="#63b8ff" points="873.17,-144.94 876.37,-134.84 867.57,-140.74 873.17,-144.94"/>
</a>
</g>
</g>
<!-- Node31&#45;&gt;Node5 -->
<g id="edge55_Node000031_Node000005" class="edge">
<title>Node31&#45;&gt;Node5</title>
<g id="a_edge55_Node000031_Node000005"><a xlink:title=" ">
<path fill="none" stroke="#63b8ff" d="M545.95,-247.45C533.98,-231.83 512.5,-198.24 529,-176 559.08,-135.46 621.13,-126.63 659.98,-125.33"/>
<polygon fill="#63b8ff" stroke="#63b8ff" points="660.34,-128.83 670.28,-125.14 660.21,-121.83 660.34,-128.83"/>
</a>
</g>
</g>
<!-- Node31&#45;&gt;Node7 -->
<g id="edge56_Node000031_Node000007" class="edge">
<title>Node31&#45;&gt;Node7</title>
<g id="a_edge56_Node000031_Node000007"><a xlink:title=" ">
<path fill="none" stroke="#63b8ff" d="M539.28,-247.32C526.32,-238.44 507.24,-223.5 496,-206 483.9,-187.17 477.66,-161.96 474.62,-144.91"/>
<polygon fill="#63b8ff" stroke="#63b8ff" points="478.01,-143.92 472.99,-134.59 471.1,-145.01 478.01,-143.92"/>
</a>
</g>
</g>
<!-- Node31&#45;&gt;Node10 -->
<g id="edge57_Node000031_Node000010" class="edge">
<title>Node31&#45;&gt;Node10</title>
<g id="a_edge57_Node000031_Node000010"><a xlink:title=" ">
<path fill="none" stroke="#63b8ff" d="M527.37,-247.37C493.99,-236.12 435.49,-216.42 398.03,-203.8"/>
<polygon fill="#63b8ff" stroke="#63b8ff" points="399.11,-200.47 388.52,-200.6 396.88,-207.11 399.11,-200.47"/>
</a>
</g>
</g>
<!-- Node31&#45;&gt;Node11 -->
<g id="edge54_Node000031_Node000011" class="edge">
<title>Node31&#45;&gt;Node11</title>
<g id="a_edge54_Node000031_Node000011"><a xlink:title=" ">
<path fill="none" stroke="#63b8ff" d="M496.63,-247.5C417.48,-235.33 282.11,-213.58 274,-206 257.28,-190.38 253.64,-163.08 253.27,-144.77"/>
<polygon fill="#63b8ff" stroke="#63b8ff" points="256.77,-144.76 253.37,-134.72 249.77,-144.69 256.77,-144.76"/>
</a>
</g>
</g>
<!-- Node31&#45;&gt;Node22 -->
<g id="edge53_Node000031_Node000022" class="edge">
<title>Node31&#45;&gt;Node22</title>
<g id="a_edge53_Node000031_Node000022"><a xlink:title=" ">
<path fill="none" stroke="#63b8ff" d="M554.48,-247.37C556.08,-238.07 558.67,-222.98 560.75,-210.9"/>
<polygon fill="#63b8ff" stroke="#63b8ff" points="564.22,-211.35 562.47,-200.91 557.33,-210.17 564.22,-211.35"/>
</a>
</g>
</g>
</g>
</svg>

<g id="navigator" transform="translate(0 0)" fill="#404254">
  <rect fill="#f2f5e9" fill-opacity="0.5" stroke="#606060" stroke-width=".5" x="0" y="0" width="60" height="60"/>
  <use id="zoomplus" xlink:href="#zoomPlus" x="17" y="9" onmousedown="handleZoom(evt,'in')"/>
  <use id="zoomminus" xlink:href="#zoomMin" x="42" y="9" onmousedown="handleZoom(evt,'out')"/>
  <use id="reset" xlink:href="#resetDef" x="30" y="36" onmousedown="handleReset()"/>
   <use id="arrowup" xlink:href="#arrowUp" x="0" y="0" onmousedown="handlePan(0,-1)"/>
  <use id="arrowright" xlink:href="#arrowRight" x="0" y="0" onmousedown="handlePan(1,0)"/>
  <use id="arrowdown" xlink:href="#arrowDown" x="0" y="0" onmousedown="handlePan(0,1)"/>
  <use id="arrowleft" xlink:href="#arrowLeft" x="0" y="0" onmousedown="handlePan(-1,0)"/>
</g>
<svg viewBox="0 0 15 15" width="100%" height="30px" preserveAspectRatio="xMaxYMin meet">
 <g id="arrow_out" transform="scale(0.3 0.3)">
  <a xlink:href="ecs_2EntityManager_8ixx__incl_org.svg" target="_base">
   <rect id="button" ry="5" rx="5" y="6" x="6" height="38" width="38"
        fill="#f2f5e9" fill-opacity="0.5" stroke="#606060" stroke-width="1.0"/>
   <path id="arrow"
     d="M 11.500037,31.436501 C 11.940474,20.09759 22.043105,11.32322 32.158766,21.979434 L 37.068811,17.246167 C 37.068811,17.246167 37.088388,32 37.088388,32 L 22.160133,31.978069 C 22.160133,31.978069 26.997745,27.140456 26.997745,27.140456 C 18.528582,18.264221 13.291696,25.230495 11.500037,31.436501 z"
     style="fill:#404040;"/>
  </a>
 </g>
</svg>

<style type='text/css'>
<![CDATA[
[data-mouse-over-selected='false'] { opacity: 0.7; }
[data-mouse-over-selected='true']  { opacity: 1.0; }
]]>
</style>
<script type="application/ecmascript"><![CDATA[
document.addEventListener('DOMContentLoaded', (event) => {
  highlightEdges();
  highlightAdjacentNodes();
});
]]></script>
</svg>
