<?xml version="1.0" encoding="UTF-8" standalone="no"?>
<!DOCTYPE svg PUBLIC "-//W3C//DTD SVG 1.1//EN"
 "http://www.w3.org/Graphics/SVG/1.1/DTD/svg11.dtd">
<!-- Generated by graphviz version 2.43.0 (0)
 -->
<!-- Title: registry.ixx Pages: 1 -->
<svg width="2165pt" height="445pt"
 viewBox="0.00 0.00 2165.00 445.00" xmlns="http://www.w3.org/2000/svg" xmlns:xlink="http://www.w3.org/1999/xlink">
<g id="graph0" class="graph" transform="scale(1 1) rotate(0) translate(4 441)">
<title>registry.ixx</title>
<!-- Node1 -->
<g id="Node000001" class="node">
<title>Node1</title>
<g id="a_Node000001"><a xlink:title="Component registration for ecs module.">
<polygon fill="#999999" stroke="#666666" points="880,-437 809,-437 809,-418 880,-418 880,-437"/>
<text text-anchor="middle" x="844.5" y="-425" font-family="Helvetica,sans-Serif" font-size="10.00">registry.ixx</text>
</a>
</g>
</g>
<!-- Node2 -->
<g id="Node000002" class="node">
<title>Node2</title>
<g id="a_Node000002"><a xlink:href="helios_2ecs_2components_2__module_8ixx.html" target="_top" xlink:title="ECS components submodule.">
<polygon fill="white" stroke="#666666" points="388.5,-272 260.5,-272 260.5,-253 388.5,-253 388.5,-272"/>
<text text-anchor="middle" x="324.5" y="-260" font-family="Helvetica,sans-Serif" font-size="10.00">helios.ecs.components</text>
</a>
</g>
</g>
<!-- Node1&#45;&gt;Node2 -->
<g id="edge1_Node000001_Node000002" class="edge">
<title>Node1&#45;&gt;Node2</title>
<g id="a_edge1_Node000001_Node000002"><a xlink:title=" ">
<path fill="none" stroke="#63b8ff" d="M808.95,-419.05C741.57,-404.49 591.01,-369.93 468.5,-327 426.29,-312.21 379.18,-290.37 350.7,-276.54"/>
<polygon fill="#63b8ff" stroke="#63b8ff" points="351.96,-273.26 341.44,-272.01 348.88,-279.55 351.96,-273.26"/>
</a>
</g>
</g>
<!-- Node17 -->
<g id="Node000017" class="node">
<title>Node17</title>
<g id="a_Node000017"><a xlink:href="ecs_2ComponentReflector_8ixx.html" target="_top" xlink:title="Compile&#45;time reflection for component lifecycle hook registration.">
<polygon fill="white" stroke="#666666" points="1636.5,-382 1468.5,-382 1468.5,-363 1636.5,-363 1636.5,-382"/>
<text text-anchor="middle" x="1552.5" y="-370" font-family="Helvetica,sans-Serif" font-size="10.00">helios.ecs.ComponentReflector</text>
</a>
</g>
</g>
<!-- Node1&#45;&gt;Node17 -->
<g id="edge17_Node000001_Node000017" class="edge">
<title>Node1&#45;&gt;Node17</title>
<g id="a_edge17_Node000001_Node000017"><a xlink:title=" ">
<path fill="none" stroke="#63b8ff" d="M880.1,-423.84C985.6,-415.94 1299.14,-392.47 1458,-380.57"/>
<polygon fill="#63b8ff" stroke="#63b8ff" points="1458.52,-384.04 1468.23,-379.81 1458,-377.06 1458.52,-384.04"/>
</a>
</g>
</g>
<!-- Node3 -->
<g id="Node000003" class="node">
<title>Node3</title>
<g id="a_Node000003"><a xlink:href="ecs_2components_2Inactive_8ixx.html" target="_top" xlink:title="Tag component indicating an inactive entity.">
<polygon fill="white" stroke="#666666" points="367.5,-211.5 197.5,-211.5 197.5,-192.5 367.5,-192.5 367.5,-211.5"/>
<text text-anchor="middle" x="282.5" y="-199.5" font-family="Helvetica,sans-Serif" font-size="10.00">helios.ecs.components.Inactive</text>
</a>
</g>
</g>
<!-- Node2&#45;&gt;Node3 -->
<g id="edge2_Node000002_Node000003" class="edge">
<title>Node2&#45;&gt;Node3</title>
<g id="a_edge2_Node000002_Node000003"><a xlink:title=" ">
<path fill="none" stroke="#63b8ff" d="M318.3,-252.87C312.1,-244.23 302.39,-230.7 294.64,-219.92"/>
<polygon fill="#63b8ff" stroke="#63b8ff" points="297.4,-217.75 288.72,-211.67 291.71,-221.83 297.4,-217.75"/>
</a>
</g>
</g>
<!-- Node4 -->
<g id="Node000004" class="node">
<title>Node4</title>
<g id="a_Node000004"><a xlink:href="ecs_2components_2Active_8ixx.html" target="_top" xlink:title="Tag component indicating an active entity.">
<polygon fill="white" stroke="#666666" points="547.5,-211.5 385.5,-211.5 385.5,-192.5 547.5,-192.5 547.5,-211.5"/>
<text text-anchor="middle" x="466.5" y="-199.5" font-family="Helvetica,sans-Serif" font-size="10.00">helios.ecs.components.Active</text>
</a>
</g>
</g>
<!-- Node2&#45;&gt;Node4 -->
<g id="edge3_Node000002_Node000004" class="edge">
<title>Node2&#45;&gt;Node4</title>
<g id="a_edge3_Node000002_Node000004"><a xlink:title=" ">
<path fill="none" stroke="#63b8ff" d="M345.15,-252.99C369.13,-243.12 408.89,-226.73 436.33,-215.43"/>
<polygon fill="#63b8ff" stroke="#63b8ff" points="437.91,-218.56 445.83,-211.52 435.25,-212.09 437.91,-218.56"/>
</a>
</g>
</g>
<!-- Node5 -->
<g id="Node000005" class="node">
<title>Node5</title>
<g id="a_Node000005"><a xlink:href="ecs_2components_2HierarchyComponent_8ixx.html" target="_top" xlink:title="Component for parent&#45;child entity relationships.">
<polygon fill="white" stroke="#666666" points="179,-217 0,-217 0,-187 179,-187 179,-217"/>
<text text-anchor="start" x="8" y="-205" font-family="Helvetica,sans-Serif" font-size="10.00">helios.ecs.components.Hierarchy</text>
<text text-anchor="middle" x="89.5" y="-194" font-family="Helvetica,sans-Serif" font-size="10.00">Component</text>
</a>
</g>
</g>
<!-- Node2&#45;&gt;Node5 -->
<g id="edge4_Node000002_Node000005" class="edge">
<title>Node2&#45;&gt;Node5</title>
<g id="a_edge4_Node000002_Node000005"><a xlink:title=" ">
<path fill="none" stroke="#63b8ff" d="M290.33,-252.99C255.18,-244.24 199.53,-230.39 155.72,-219.48"/>
<polygon fill="#63b8ff" stroke="#63b8ff" points="156.55,-216.08 146,-217.06 154.86,-222.88 156.55,-216.08"/>
</a>
</g>
</g>
<!-- Node6 -->
<g id="Node000006" class="node">
<title>Node6</title>
<g id="a_Node000006"><a xlink:title=" ">
<polygon fill="#e0e0e0" stroke="#999999" points="150.5,-145.5 94.5,-145.5 94.5,-126.5 150.5,-126.5 150.5,-145.5"/>
<text text-anchor="middle" x="122.5" y="-133.5" font-family="Helvetica,sans-Serif" font-size="10.00">optional</text>
</a>
</g>
</g>
<!-- Node5&#45;&gt;Node6 -->
<g id="edge5_Node000005_Node000006" class="edge">
<title>Node5&#45;&gt;Node6</title>
<g id="a_edge5_Node000005_Node000006"><a xlink:title=" ">
<path fill="none" stroke="#63b8ff" d="M96.82,-186.8C101.67,-177.41 108.05,-165.02 113.25,-154.95"/>
<polygon fill="#63b8ff" stroke="#63b8ff" points="116.47,-156.34 117.94,-145.84 110.25,-153.13 116.47,-156.34"/>
</a>
</g>
</g>
<!-- Node7 -->
<g id="Node000007" class="node">
<title>Node7</title>
<g id="a_Node000007"><a xlink:title=" ">
<polygon fill="#e0e0e0" stroke="#999999" points="76.5,-145.5 36.5,-145.5 36.5,-126.5 76.5,-126.5 76.5,-145.5"/>
<text text-anchor="middle" x="56.5" y="-133.5" font-family="Helvetica,sans-Serif" font-size="10.00">span</text>
</a>
</g>
</g>
<!-- Node5&#45;&gt;Node7 -->
<g id="edge6_Node000005_Node000007" class="edge">
<title>Node5&#45;&gt;Node7</title>
<g id="a_edge6_Node000005_Node000007"><a xlink:title=" ">
<path fill="none" stroke="#63b8ff" d="M82.18,-186.8C77.33,-177.41 70.95,-165.02 65.75,-154.95"/>
<polygon fill="#63b8ff" stroke="#63b8ff" points="68.75,-153.13 61.06,-145.84 62.53,-156.34 68.75,-153.13"/>
</a>
</g>
</g>
<!-- Node8 -->
<g id="Node000008" class="node">
<title>Node8</title>
<g id="a_Node000008"><a xlink:title=" ">
<polygon fill="#e0e0e0" stroke="#999999" points="1040,-145.5 993,-145.5 993,-126.5 1040,-126.5 1040,-145.5"/>
<text text-anchor="middle" x="1016.5" y="-133.5" font-family="Helvetica,sans-Serif" font-size="10.00">vector</text>
</a>
</g>
</g>
<!-- Node5&#45;&gt;Node8 -->
<g id="edge7_Node000005_Node000008" class="edge">
<title>Node5&#45;&gt;Node8</title>
<g id="a_edge7_Node000005_Node000008"><a xlink:title=" ">
<path fill="none" stroke="#63b8ff" d="M179.03,-187.96C182.23,-187.61 185.39,-187.29 188.5,-187 523.84,-155.38 611.14,-191.69 945.5,-151 957.85,-149.5 971.26,-147.06 983.07,-144.64"/>
<polygon fill="#63b8ff" stroke="#63b8ff" points="983.92,-148.04 992.97,-142.54 982.46,-141.19 983.92,-148.04"/>
</a>
</g>
</g>
<!-- Node9 -->
<g id="Node000009" class="node">
<title>Node9</title>
<g id="a_Node000009"><a xlink:href="ecs_2types_2EntityHandle_8ixx.html" target="_top" xlink:title="Versioned, strongly&#45;typed handle for referencing entities.">
<polygon fill="white" stroke="#666666" points="1808,-145.5 1647,-145.5 1647,-126.5 1808,-126.5 1808,-145.5"/>
<text text-anchor="middle" x="1727.5" y="-133.5" font-family="Helvetica,sans-Serif" font-size="10.00">helios.ecs.types.EntityHandle</text>
</a>
</g>
</g>
<!-- Node5&#45;&gt;Node9 -->
<g id="edge8_Node000005_Node000009" class="edge">
<title>Node5&#45;&gt;Node9</title>
<g id="a_edge8_Node000005_Node000009"><a xlink:title=" ">
<path fill="none" stroke="#63b8ff" d="M179.03,-187.88C182.22,-187.56 185.39,-187.26 188.5,-187 772.44,-137.9 921.1,-177.53 1506.5,-151 1549.43,-149.05 1597,-146.14 1636.98,-143.47"/>
<polygon fill="#63b8ff" stroke="#63b8ff" points="1637.23,-146.96 1646.97,-142.8 1636.76,-139.98 1637.23,-146.96"/>
</a>
</g>
</g>
<!-- Node10 -->
<g id="Node000010" class="node">
<title>Node10</title>
<g id="a_Node000010"><a xlink:title=" ">
<polygon fill="#e0e0e0" stroke="#999999" points="1699,-79.5 1634,-79.5 1634,-60.5 1699,-60.5 1699,-79.5"/>
<text text-anchor="middle" x="1666.5" y="-67.5" font-family="Helvetica,sans-Serif" font-size="10.00">functional</text>
</a>
</g>
</g>
<!-- Node9&#45;&gt;Node10 -->
<g id="edge9_Node000009_Node000010" class="edge">
<title>Node9&#45;&gt;Node10</title>
<g id="a_edge9_Node000009_Node000010"><a xlink:title=" ">
<path fill="none" stroke="#63b8ff" d="M1719.27,-126.37C1709.78,-116.4 1693.94,-99.79 1682.09,-87.36"/>
<polygon fill="#63b8ff" stroke="#63b8ff" points="1684.42,-84.73 1674.99,-79.91 1679.35,-89.56 1684.42,-84.73"/>
</a>
</g>
</g>
<!-- Node11 -->
<g id="Node000011" class="node">
<title>Node11</title>
<g id="a_Node000011"><a xlink:title=" ">
<polygon fill="#e0e0e0" stroke="#999999" points="1568.5,-19 1518.5,-19 1518.5,0 1568.5,0 1568.5,-19"/>
<text text-anchor="middle" x="1543.5" y="-7" font-family="Helvetica,sans-Serif" font-size="10.00">cstdint</text>
</a>
</g>
</g>
<!-- Node9&#45;&gt;Node11 -->
<g id="edge10_Node000009_Node000011" class="edge">
<title>Node9&#45;&gt;Node11</title>
<g id="a_edge10_Node000009_Node000011"><a xlink:title=" ">
<path fill="none" stroke="#63b8ff" d="M1728.11,-126.19C1728.73,-109.84 1727.59,-74.67 1708.5,-55 1674.65,-20.11 1616.55,-11.65 1579.1,-10.08"/>
<polygon fill="#63b8ff" stroke="#63b8ff" points="1578.75,-6.57 1568.66,-9.8 1578.56,-13.57 1578.75,-6.57"/>
</a>
</g>
</g>
<!-- Node12 -->
<g id="Node000012" class="node">
<title>Node12</title>
<g id="a_Node000012"><a xlink:href="IsStrongIdLike_8ixx.html" target="_top" xlink:title="Concept for types modelling a strong identifier.">
<polygon fill="white" stroke="#666666" points="914,-85 759,-85 759,-55 914,-55 914,-85"/>
<text text-anchor="start" x="767" y="-73" font-family="Helvetica,sans-Serif" font-size="10.00">helios.ecs.concepts.IsStrong</text>
<text text-anchor="middle" x="836.5" y="-62" font-family="Helvetica,sans-Serif" font-size="10.00">IdLike</text>
</a>
</g>
</g>
<!-- Node9&#45;&gt;Node12 -->
<g id="edge11_Node000009_Node000012" class="edge">
<title>Node9&#45;&gt;Node12</title>
<g id="a_edge11_Node000009_Node000012"><a xlink:title=" ">
<path fill="none" stroke="#63b8ff" d="M1646.86,-129.21C1479.8,-117.21 1097.09,-89.72 924.17,-77.3"/>
<polygon fill="#63b8ff" stroke="#63b8ff" points="924.32,-73.8 914.09,-76.57 923.81,-80.78 924.32,-73.8"/>
</a>
</g>
</g>
<!-- Node15 -->
<g id="Node000015" class="node">
<title>Node15</title>
<g id="a_Node000015"><a xlink:href="TypeDefs_8ixx.html" target="_top" xlink:title="Core type definitions and tag types for the helios engine.">
<polygon fill="white" stroke="#666666" points="1615,-79.5 1472,-79.5 1472,-60.5 1615,-60.5 1615,-79.5"/>
<text text-anchor="middle" x="1543.5" y="-67.5" font-family="Helvetica,sans-Serif" font-size="10.00">helios.ecs.types.TypeDefs</text>
</a>
</g>
</g>
<!-- Node9&#45;&gt;Node15 -->
<g id="edge14_Node000009_Node000015" class="edge">
<title>Node9&#45;&gt;Node15</title>
<g id="a_edge14_Node000009_Node000015"><a xlink:title=" ">
<path fill="none" stroke="#63b8ff" d="M1702.68,-126.37C1670.5,-115.17 1614.18,-95.58 1577.88,-82.96"/>
<polygon fill="#63b8ff" stroke="#63b8ff" points="1578.81,-79.58 1568.22,-79.6 1576.51,-86.19 1578.81,-79.58"/>
</a>
</g>
</g>
<!-- Node13 -->
<g id="Node000013" class="node">
<title>Node13</title>
<g id="a_Node000013"><a xlink:title=" ">
<polygon fill="#e0e0e0" stroke="#999999" points="738.5,-19 678.5,-19 678.5,0 738.5,0 738.5,-19"/>
<text text-anchor="middle" x="708.5" y="-7" font-family="Helvetica,sans-Serif" font-size="10.00">concepts</text>
</a>
</g>
</g>
<!-- Node12&#45;&gt;Node13 -->
<g id="edge12_Node000012_Node000013" class="edge">
<title>Node12&#45;&gt;Node13</title>
<g id="a_edge12_Node000012_Node000013"><a xlink:title=" ">
<path fill="none" stroke="#63b8ff" d="M805.84,-54.99C784.77,-45.36 757.01,-32.67 736.53,-23.31"/>
<polygon fill="#63b8ff" stroke="#63b8ff" points="737.95,-20.11 727.4,-19.14 735.04,-26.48 737.95,-20.11"/>
</a>
</g>
</g>
<!-- Node14 -->
<g id="Node000014" class="node">
<title>Node14</title>
<g id="a_Node000014"><a xlink:title=" ">
<polygon fill="#e0e0e0" stroke="#999999" points="1142.5,-19 994.5,-19 994.5,0 1142.5,0 1142.5,-19"/>
<text text-anchor="middle" x="1068.5" y="-7" font-family="Helvetica,sans-Serif" font-size="10.00">helios.core.types.TypeDefs</text>
</a>
</g>
</g>
<!-- Node12&#45;&gt;Node14 -->
<g id="edge13_Node000012_Node000014" class="edge">
<title>Node12&#45;&gt;Node14</title>
<g id="a_edge13_Node000012_Node000014"><a xlink:title=" ">
<path fill="none" stroke="#63b8ff" d="M892.07,-54.99C932.63,-44.76 986.86,-31.09 1024.44,-21.61"/>
<polygon fill="#63b8ff" stroke="#63b8ff" points="1025.74,-24.89 1034.58,-19.05 1024.03,-18.1 1025.74,-24.89"/>
</a>
</g>
</g>
<!-- Node15&#45;&gt;Node11 -->
<g id="edge15_Node000015_Node000011" class="edge">
<title>Node15&#45;&gt;Node11</title>
<g id="a_edge15_Node000015_Node000011"><a xlink:title=" ">
<path fill="none" stroke="#63b8ff" d="M1543.5,-60.37C1543.5,-52.25 1543.5,-39.81 1543.5,-29.39"/>
<polygon fill="#63b8ff" stroke="#63b8ff" points="1547,-29.17 1543.5,-19.17 1540,-29.17 1547,-29.17"/>
</a>
</g>
</g>
<!-- Node16 -->
<g id="Node000016" class="node">
<title>Node16</title>
<g id="a_Node000016"><a xlink:title=" ">
<polygon fill="#e0e0e0" stroke="#999999" points="1463.5,-19 1419.5,-19 1419.5,0 1463.5,0 1463.5,-19"/>
<text text-anchor="middle" x="1441.5" y="-7" font-family="Helvetica,sans-Serif" font-size="10.00">limits</text>
</a>
</g>
</g>
<!-- Node15&#45;&gt;Node16 -->
<g id="edge16_Node000015_Node000016" class="edge">
<title>Node15&#45;&gt;Node16</title>
<g id="a_edge16_Node000015_Node000016"><a xlink:title=" ">
<path fill="none" stroke="#63b8ff" d="M1528.45,-60.37C1511.88,-50.86 1485,-35.45 1465.51,-24.27"/>
<polygon fill="#63b8ff" stroke="#63b8ff" points="1467.03,-21.11 1456.61,-19.17 1463.55,-27.18 1467.03,-21.11"/>
</a>
</g>
</g>
<!-- Node17&#45;&gt;Node9 -->
<g id="edge71_Node000017_Node000009" class="edge">
<title>Node17&#45;&gt;Node9</title>
<g id="a_edge71_Node000017_Node000009"><a xlink:title=" ">
<path fill="none" stroke="#63b8ff" d="M1636.54,-367.23C1695.38,-362.17 1775.05,-351.12 1841.5,-327 1885.92,-310.87 1909.28,-313.16 1932.5,-272 1951.06,-239.1 1955.83,-216.71 1932.5,-187 1923.29,-175.28 1842.96,-158.26 1785.64,-147.41"/>
<polygon fill="#63b8ff" stroke="#63b8ff" points="1786.06,-143.93 1775.59,-145.52 1784.77,-150.81 1786.06,-143.93"/>
</a>
</g>
</g>
<!-- Node18 -->
<g id="Node000018" class="node">
<title>Node18</title>
<g id="a_Node000018"><a xlink:title=" ">
<polygon fill="#e0e0e0" stroke="#999999" points="547,-327 478,-327 478,-308 547,-308 547,-327"/>
<text text-anchor="middle" x="512.5" y="-315" font-family="Helvetica,sans-Serif" font-size="10.00">type_traits</text>
</a>
</g>
</g>
<!-- Node17&#45;&gt;Node18 -->
<g id="edge18_Node000017_Node000018" class="edge">
<title>Node17&#45;&gt;Node18</title>
<g id="a_edge18_Node000017_Node000018"><a xlink:title=" ">
<path fill="none" stroke="#63b8ff" d="M1468.37,-371.32C1297.14,-370.15 896.01,-363.38 561.5,-327 560.2,-326.86 558.88,-326.7 557.54,-326.54"/>
<polygon fill="#63b8ff" stroke="#63b8ff" points="557.61,-323.01 547.22,-325.08 556.64,-329.94 557.61,-323.01"/>
</a>
</g>
</g>
<!-- Node19 -->
<g id="Node000019" class="node">
<title>Node19</title>
<g id="a_Node000019"><a xlink:href="ecs_2EntityManager_8ixx.html" target="_top" xlink:title="Central manager for entity lifecycle and component storage.">
<polygon fill="white" stroke="#666666" points="1515.5,-327 1375.5,-327 1375.5,-308 1515.5,-308 1515.5,-327"/>
<text text-anchor="middle" x="1445.5" y="-315" font-family="Helvetica,sans-Serif" font-size="10.00">helios.ecs.EntityManager</text>
</a>
</g>
</g>
<!-- Node17&#45;&gt;Node19 -->
<g id="edge19_Node000017_Node000019" class="edge">
<title>Node17&#45;&gt;Node19</title>
<g id="a_edge19_Node000017_Node000019"><a xlink:title=" ">
<path fill="none" stroke="#63b8ff" d="M1535.31,-362.98C1518.25,-354.54 1491.87,-341.47 1472.1,-331.68"/>
<polygon fill="#63b8ff" stroke="#63b8ff" points="1473.52,-328.47 1463,-327.17 1470.41,-334.75 1473.52,-328.47"/>
</a>
</g>
</g>
<!-- Node24 -->
<g id="Node000024" class="node">
<title>Node24</title>
<g id="a_Node000024"><a xlink:href="ecs_2types_2ComponentTypeId_8ixx.html" target="_top" xlink:title="Compile&#45;time type identifier for component types.">
<polygon fill="white" stroke="#666666" points="2157,-217 2002,-217 2002,-187 2157,-187 2157,-217"/>
<text text-anchor="start" x="2010" y="-205" font-family="Helvetica,sans-Serif" font-size="10.00">helios.ecs.types.Component</text>
<text text-anchor="middle" x="2079.5" y="-194" font-family="Helvetica,sans-Serif" font-size="10.00">TypeId</text>
</a>
</g>
</g>
<!-- Node17&#45;&gt;Node24 -->
<g id="edge72_Node000017_Node000024" class="edge">
<title>Node17&#45;&gt;Node24</title>
<g id="a_edge72_Node000017_Node000024"><a xlink:title=" ">
<path fill="none" stroke="#63b8ff" d="M1636.85,-370.85C1746.12,-368.65 1929.52,-359.99 1987.5,-327 2027.73,-304.12 2055.54,-255.7 2069.38,-226.6"/>
<polygon fill="#63b8ff" stroke="#63b8ff" points="2072.71,-227.73 2073.7,-217.19 2066.35,-224.82 2072.71,-227.73"/>
</a>
</g>
</g>
<!-- Node26 -->
<g id="Node000026" class="node">
<title>Node26</title>
<g id="a_Node000026"><a xlink:href="ecs_2types_2ComponentOps_8ixx.html" target="_top" xlink:title="Function pointer structure for type&#45;erased component lifecycle callbacks.">
<polygon fill="white" stroke="#666666" points="1907,-211.5 1734,-211.5 1734,-192.5 1907,-192.5 1907,-211.5"/>
<text text-anchor="middle" x="1820.5" y="-199.5" font-family="Helvetica,sans-Serif" font-size="10.00">helios.ecs.types.ComponentOps</text>
</a>
</g>
</g>
<!-- Node17&#45;&gt;Node26 -->
<g id="edge70_Node000017_Node000026" class="edge">
<title>Node17&#45;&gt;Node26</title>
<g id="a_edge70_Node000017_Node000026"><a xlink:title=" ">
<path fill="none" stroke="#63b8ff" d="M1619.05,-362.96C1713.92,-349.27 1880.58,-319.06 1916.5,-272 1935.88,-246.61 1896.22,-226.59 1862.13,-214.79"/>
<polygon fill="#63b8ff" stroke="#63b8ff" points="1862.86,-211.35 1852.27,-211.54 1860.67,-217.99 1862.86,-211.35"/>
</a>
</g>
</g>
<!-- Node27 -->
<g id="Node000027" class="node">
<title>Node27</title>
<g id="a_Node000027"><a xlink:href="ecs_2concepts_2Traits_8ixx.html" target="_top" xlink:title="Compile&#45;time traits for ECS component lifecycle hooks.">
<polygon fill="white" stroke="#666666" points="574,-145.5 433,-145.5 433,-126.5 574,-126.5 574,-145.5"/>
<text text-anchor="middle" x="503.5" y="-133.5" font-family="Helvetica,sans-Serif" font-size="10.00">helios.ecs.concepts.Traits</text>
</a>
</g>
</g>
<!-- Node17&#45;&gt;Node27 -->
<g id="edge73_Node000017_Node000027" class="edge">
<title>Node17&#45;&gt;Node27</title>
<g id="a_edge73_Node000017_Node000027"><a xlink:title=" ">
<path fill="none" stroke="#63b8ff" d="M1468.4,-364.22C1327.6,-351.19 1035.69,-320.64 792.5,-272 700.84,-253.67 671.22,-262.38 589.5,-217 587.47,-215.87 544.68,-175.75 520.24,-152.76"/>
<polygon fill="#63b8ff" stroke="#63b8ff" points="522.42,-150.01 512.74,-145.71 517.63,-155.11 522.42,-150.01"/>
</a>
</g>
</g>
<!-- Node28 -->
<g id="Node000028" class="node">
<title>Node28</title>
<g id="a_Node000028"><a xlink:href="ecs_2ComponentOpsRegistry_8ixx.html" target="_top" xlink:title="Global registry mapping ComponentTypeId to ComponentOps.">
<polygon fill="white" stroke="#666666" points="1907.5,-272 1723.5,-272 1723.5,-253 1907.5,-253 1907.5,-272"/>
<text text-anchor="middle" x="1815.5" y="-260" font-family="Helvetica,sans-Serif" font-size="10.00">helios.ecs.ComponentOpsRegistry</text>
</a>
</g>
</g>
<!-- Node17&#45;&gt;Node28 -->
<g id="edge69_Node000017_Node000028" class="edge">
<title>Node17&#45;&gt;Node28</title>
<g id="a_edge69_Node000017_Node000028"><a xlink:title=" ">
<path fill="none" stroke="#63b8ff" d="M1573.58,-362.84C1620.05,-343.76 1731.46,-298.01 1785.33,-275.89"/>
<polygon fill="#63b8ff" stroke="#63b8ff" points="1786.77,-279.08 1794.69,-272.05 1784.11,-272.61 1786.77,-279.08"/>
</a>
</g>
</g>
<!-- Node19&#45;&gt;Node8 -->
<g id="edge23_Node000019_Node000008" class="edge">
<title>Node19&#45;&gt;Node8</title>
<g id="a_edge23_Node000019_Node000008"><a xlink:title=" ">
<path fill="none" stroke="#63b8ff" d="M1375.13,-311.73C1285.11,-304.97 1134.62,-291.24 1082.5,-272 1040.98,-256.68 1020.44,-255.99 999.5,-217 988.94,-197.34 997.75,-171.67 1006.13,-154.78"/>
<polygon fill="#63b8ff" stroke="#63b8ff" points="1009.22,-156.42 1010.87,-145.96 1003.05,-153.11 1009.22,-156.42"/>
</a>
</g>
</g>
<!-- Node20 -->
<g id="Node000020" class="node">
<title>Node20</title>
<g id="a_Node000020"><a xlink:title=" ">
<polygon fill="#e0e0e0" stroke="#999999" points="1356.5,-272 1294.5,-272 1294.5,-253 1356.5,-253 1356.5,-272"/>
<text text-anchor="middle" x="1325.5" y="-260" font-family="Helvetica,sans-Serif" font-size="10.00">coroutine</text>
</a>
</g>
</g>
<!-- Node19&#45;&gt;Node20 -->
<g id="edge20_Node000019_Node000020" class="edge">
<title>Node19&#45;&gt;Node20</title>
<g id="a_edge20_Node000019_Node000020"><a xlink:title=" ">
<path fill="none" stroke="#63b8ff" d="M1426.22,-307.98C1406.83,-299.42 1376.69,-286.11 1354.43,-276.28"/>
<polygon fill="#63b8ff" stroke="#63b8ff" points="1355.69,-273.01 1345.13,-272.17 1352.86,-279.41 1355.69,-273.01"/>
</a>
</g>
</g>
<!-- Node21 -->
<g id="Node000021" class="node">
<title>Node21</title>
<g id="a_Node000021"><a xlink:title=" ">
<polygon fill="#e0e0e0" stroke="#999999" points="1438.5,-272 1374.5,-272 1374.5,-253 1438.5,-253 1438.5,-272"/>
<text text-anchor="middle" x="1406.5" y="-260" font-family="Helvetica,sans-Serif" font-size="10.00">generator</text>
</a>
</g>
</g>
<!-- Node19&#45;&gt;Node21 -->
<g id="edge21_Node000019_Node000021" class="edge">
<title>Node19&#45;&gt;Node21</title>
<g id="a_edge21_Node000019_Node000021"><a xlink:title=" ">
<path fill="none" stroke="#63b8ff" d="M1439.06,-307.75C1433.61,-300.34 1425.64,-289.5 1418.94,-280.41"/>
<polygon fill="#63b8ff" stroke="#63b8ff" points="1421.57,-278.07 1412.82,-272.09 1415.93,-282.22 1421.57,-278.07"/>
</a>
</g>
</g>
<!-- Node22 -->
<g id="Node000022" class="node">
<title>Node22</title>
<g id="a_Node000022"><a xlink:title=" ">
<polygon fill="#e0e0e0" stroke="#999999" points="1514.5,-272 1456.5,-272 1456.5,-253 1514.5,-253 1514.5,-272"/>
<text text-anchor="middle" x="1485.5" y="-260" font-family="Helvetica,sans-Serif" font-size="10.00">memory</text>
</a>
</g>
</g>
<!-- Node19&#45;&gt;Node22 -->
<g id="edge22_Node000019_Node000022" class="edge">
<title>Node19&#45;&gt;Node22</title>
<g id="a_edge22_Node000019_Node000022"><a xlink:title=" ">
<path fill="none" stroke="#63b8ff" d="M1452.11,-307.75C1457.76,-300.26 1466.04,-289.28 1472.95,-280.13"/>
<polygon fill="#63b8ff" stroke="#63b8ff" points="1475.79,-282.18 1479.02,-272.09 1470.2,-277.96 1475.79,-282.18"/>
</a>
</g>
</g>
<!-- Node23 -->
<g id="Node000023" class="node">
<title>Node23</title>
<g id="a_Node000023"><a xlink:href="ecs_2types_2__modules_8ixx.html" target="_top" xlink:title=" ">
<polygon fill="white" stroke="#666666" points="1705,-272 1610,-272 1610,-253 1705,-253 1705,-272"/>
<text text-anchor="middle" x="1657.5" y="-260" font-family="Helvetica,sans-Serif" font-size="10.00">helios.ecs.types</text>
</a>
</g>
</g>
<!-- Node19&#45;&gt;Node23 -->
<g id="edge24_Node000019_Node000023" class="edge">
<title>Node19&#45;&gt;Node23</title>
<g id="a_edge24_Node000019_Node000023"><a xlink:title=" ">
<path fill="none" stroke="#63b8ff" d="M1479.56,-307.98C1515.92,-298.89 1573.67,-284.46 1613.47,-274.51"/>
<polygon fill="#63b8ff" stroke="#63b8ff" points="1614.32,-277.9 1623.17,-272.08 1612.62,-271.11 1614.32,-277.9"/>
</a>
</g>
</g>
<!-- Node19&#45;&gt;Node27 -->
<g id="edge33_Node000019_Node000027" class="edge">
<title>Node19&#45;&gt;Node27</title>
<g id="a_edge33_Node000019_Node000027"><a xlink:title=" ">
<path fill="none" stroke="#63b8ff" d="M1375.21,-312.4C1203.63,-301.68 767.55,-269.91 632.5,-217 610.8,-208.5 609.14,-199.53 589.5,-187 569.23,-174.07 545.57,-160.41 528.21,-150.65"/>
<polygon fill="#63b8ff" stroke="#63b8ff" points="529.7,-147.48 519.27,-145.65 526.29,-153.59 529.7,-147.48"/>
</a>
</g>
</g>
<!-- Node19&#45;&gt;Node28 -->
<g id="edge35_Node000019_Node000028" class="edge">
<title>Node19&#45;&gt;Node28</title>
<g id="a_edge35_Node000019_Node000028"><a xlink:title=" ">
<path fill="none" stroke="#63b8ff" d="M1504.95,-307.98C1570.66,-298.57 1676.39,-283.43 1745.91,-273.47"/>
<polygon fill="#63b8ff" stroke="#63b8ff" points="1746.49,-276.92 1755.89,-272.04 1745.5,-269.99 1746.49,-276.92"/>
</a>
</g>
</g>
<!-- Node29 -->
<g id="Node000029" class="node">
<title>Node29</title>
<g id="a_Node000029"><a xlink:href="ecs_2EntityRegistry_8ixx.html" target="_top" xlink:title="Generic, policy&#45;based entity registry for managing entity lifecycles.">
<polygon fill="white" stroke="#666666" points="1229,-272 1092,-272 1092,-253 1229,-253 1229,-272"/>
<text text-anchor="middle" x="1160.5" y="-260" font-family="Helvetica,sans-Serif" font-size="10.00">helios.ecs.EntityRegistry</text>
</a>
</g>
</g>
<!-- Node19&#45;&gt;Node29 -->
<g id="edge40_Node000019_Node000029" class="edge">
<title>Node19&#45;&gt;Node29</title>
<g id="a_edge40_Node000019_Node000029"><a xlink:title=" ">
<path fill="none" stroke="#63b8ff" d="M1399.71,-307.98C1349.89,-298.72 1270.22,-283.9 1216.66,-273.94"/>
<polygon fill="#63b8ff" stroke="#63b8ff" points="1217.12,-270.47 1206.65,-272.08 1215.84,-277.35 1217.12,-270.47"/>
</a>
</g>
</g>
<!-- Node40 -->
<g id="Node000040" class="node">
<title>Node40</title>
<g id="a_Node000040"><a xlink:href="ecs_2SparseSet_8ixx.html" target="_top" xlink:title="Generic sparse set data structure for efficient entity&#45;keyed storage.">
<polygon fill="white" stroke="#666666" points="1601,-211.5 1484,-211.5 1484,-192.5 1601,-192.5 1601,-211.5"/>
<text text-anchor="middle" x="1542.5" y="-199.5" font-family="Helvetica,sans-Serif" font-size="10.00">helios.ecs.SparseSet</text>
</a>
</g>
</g>
<!-- Node19&#45;&gt;Node40 -->
<g id="edge63_Node000019_Node000040" class="edge">
<title>Node19&#45;&gt;Node40</title>
<g id="a_edge63_Node000019_Node000040"><a xlink:title=" ">
<path fill="none" stroke="#63b8ff" d="M1470.78,-307.99C1488.04,-300.93 1510.11,-289.24 1523.5,-272 1534.8,-257.46 1539.38,-236.62 1541.24,-221.66"/>
<polygon fill="#63b8ff" stroke="#63b8ff" points="1544.74,-221.85 1542.2,-211.56 1537.77,-221.19 1544.74,-221.85"/>
</a>
</g>
</g>
<!-- Node23&#45;&gt;Node9 -->
<g id="edge26_Node000023_Node000009" class="edge">
<title>Node23&#45;&gt;Node9</title>
<g id="a_edge26_Node000023_Node000009"><a xlink:title=" ">
<path fill="none" stroke="#63b8ff" d="M1662.31,-252.94C1673.7,-232.69 1702.49,-181.47 1717.72,-154.4"/>
<polygon fill="#63b8ff" stroke="#63b8ff" points="1720.8,-156.05 1722.65,-145.62 1714.7,-152.62 1720.8,-156.05"/>
</a>
</g>
</g>
<!-- Node23&#45;&gt;Node15 -->
<g id="edge25_Node000023_Node000015" class="edge">
<title>Node23&#45;&gt;Node15</title>
<g id="a_edge25_Node000023_Node000015"><a xlink:title=" ">
<path fill="none" stroke="#63b8ff" d="M1652.31,-252.82C1634.8,-223.56 1577.72,-128.19 1554,-88.54"/>
<polygon fill="#63b8ff" stroke="#63b8ff" points="1556.86,-86.52 1548.73,-79.73 1550.86,-90.11 1556.86,-86.52"/>
</a>
</g>
</g>
<!-- Node23&#45;&gt;Node24 -->
<g id="edge27_Node000023_Node000024" class="edge">
<title>Node23&#45;&gt;Node24</title>
<g id="a_edge27_Node000023_Node000024"><a xlink:title=" ">
<path fill="none" stroke="#63b8ff" d="M1705.08,-254.36C1708.27,-253.9 1711.43,-253.44 1714.5,-253 1809.14,-239.46 1917.69,-224.69 1991.65,-214.74"/>
<polygon fill="#63b8ff" stroke="#63b8ff" points="1992.41,-218.17 2001.85,-213.36 1991.47,-211.23 1992.41,-218.17"/>
</a>
</g>
</g>
<!-- Node23&#45;&gt;Node26 -->
<g id="edge31_Node000023_Node000026" class="edge">
<title>Node23&#45;&gt;Node26</title>
<g id="a_edge31_Node000023_Node000026"><a xlink:title=" ">
<path fill="none" stroke="#63b8ff" d="M1681.2,-252.99C1709.09,-242.99 1755.57,-226.3 1787.1,-214.99"/>
<polygon fill="#63b8ff" stroke="#63b8ff" points="1788.54,-218.19 1796.77,-211.52 1786.18,-211.6 1788.54,-218.19"/>
</a>
</g>
</g>
<!-- Node24&#45;&gt;Node10 -->
<g id="edge28_Node000024_Node000010" class="edge">
<title>Node24&#45;&gt;Node10</title>
<g id="a_edge28_Node000024_Node000010"><a xlink:title=" ">
<path fill="none" stroke="#63b8ff" d="M2034.91,-186.96C1952.77,-161.11 1779.03,-106.42 1703.19,-82.55"/>
<polygon fill="#63b8ff" stroke="#63b8ff" points="1704.18,-79.19 1693.59,-79.53 1702.08,-85.87 1704.18,-79.19"/>
</a>
</g>
</g>
<!-- Node24&#45;&gt;Node14 -->
<g id="edge29_Node000024_Node000014" class="edge">
<title>Node24&#45;&gt;Node14</title>
<g id="a_edge29_Node000024_Node000014"><a xlink:title=" ">
<path fill="none" stroke="#63b8ff" d="M2046.53,-186.89C2008.23,-170.6 1943.05,-143.2 1886.5,-121 1807.96,-90.17 1790.98,-72.77 1708.5,-55 1604.86,-32.67 1301.43,-18.94 1152.68,-13.37"/>
<polygon fill="#63b8ff" stroke="#63b8ff" points="1152.79,-9.87 1142.67,-13 1152.53,-16.87 1152.79,-9.87"/>
</a>
</g>
</g>
<!-- Node25 -->
<g id="Node000025" class="node">
<title>Node25</title>
<g id="a_Node000025"><a xlink:title=" ">
<polygon fill="#e0e0e0" stroke="#999999" points="2145,-145.5 2014,-145.5 2014,-126.5 2145,-126.5 2145,-145.5"/>
<text text-anchor="middle" x="2079.5" y="-133.5" font-family="Helvetica,sans-Serif" font-size="10.00">helios.core.TypeIndexer</text>
</a>
</g>
</g>
<!-- Node24&#45;&gt;Node25 -->
<g id="edge30_Node000024_Node000025" class="edge">
<title>Node24&#45;&gt;Node25</title>
<g id="a_edge30_Node000024_Node000025"><a xlink:title=" ">
<path fill="none" stroke="#63b8ff" d="M2079.5,-186.8C2079.5,-177.7 2079.5,-165.79 2079.5,-155.9"/>
<polygon fill="#63b8ff" stroke="#63b8ff" points="2083,-155.84 2079.5,-145.84 2076,-155.84 2083,-155.84"/>
</a>
</g>
</g>
<!-- Node26&#45;&gt;Node9 -->
<g id="edge32_Node000026_Node000009" class="edge">
<title>Node26&#45;&gt;Node9</title>
<g id="a_edge32_Node000026_Node000009"><a xlink:title=" ">
<path fill="none" stroke="#63b8ff" d="M1807.96,-192.37C1792.7,-181.87 1766.73,-164 1748.43,-151.4"/>
<polygon fill="#63b8ff" stroke="#63b8ff" points="1750.36,-148.48 1740.14,-145.7 1746.39,-154.25 1750.36,-148.48"/>
</a>
</g>
</g>
<!-- Node27&#45;&gt;Node13 -->
<g id="edge34_Node000027_Node000013" class="edge">
<title>Node27&#45;&gt;Node13</title>
<g id="a_edge34_Node000027_Node000013"><a xlink:title=" ">
<path fill="none" stroke="#63b8ff" d="M517.59,-126.44C552.48,-105.25 643.14,-50.19 685.75,-24.32"/>
<polygon fill="#63b8ff" stroke="#63b8ff" points="687.58,-27.3 694.31,-19.12 683.95,-21.32 687.58,-27.3"/>
</a>
</g>
</g>
<!-- Node28&#45;&gt;Node8 -->
<g id="edge36_Node000028_Node000008" class="edge">
<title>Node28&#45;&gt;Node8</title>
<g id="a_edge36_Node000028_Node000008"><a xlink:title=" ">
<path fill="none" stroke="#63b8ff" d="M1726.95,-252.98C1658.05,-245.61 1560.22,-233.53 1475.5,-217 1423.66,-206.89 1412.27,-197.48 1360.5,-187 1247.55,-164.13 1111.71,-147.56 1049.96,-140.61"/>
<polygon fill="#63b8ff" stroke="#63b8ff" points="1050.34,-137.13 1040.01,-139.51 1049.56,-144.09 1050.34,-137.13"/>
</a>
</g>
</g>
<!-- Node28&#45;&gt;Node9 -->
<g id="edge39_Node000028_Node000009" class="edge">
<title>Node28&#45;&gt;Node9</title>
<g id="a_edge39_Node000028_Node000009"><a xlink:title=" ">
<path fill="none" stroke="#63b8ff" d="M1861.66,-253C1882.1,-246.69 1904.25,-235.78 1916.5,-217 1923.78,-205.83 1924.63,-197.57 1916.5,-187 1902.23,-168.46 1848.5,-155.39 1801.96,-147.27"/>
<polygon fill="#63b8ff" stroke="#63b8ff" points="1802.29,-143.78 1791.85,-145.56 1801.13,-150.68 1802.29,-143.78"/>
</a>
</g>
</g>
<!-- Node28&#45;&gt;Node24 -->
<g id="edge37_Node000028_Node000024" class="edge">
<title>Node28&#45;&gt;Node24</title>
<g id="a_edge37_Node000028_Node000024"><a xlink:title=" ">
<path fill="none" stroke="#63b8ff" d="M1853.89,-252.99C1893.69,-244.17 1956.89,-230.17 2006.29,-219.22"/>
<polygon fill="#63b8ff" stroke="#63b8ff" points="2007.28,-222.59 2016.29,-217.01 2005.77,-215.75 2007.28,-222.59"/>
</a>
</g>
</g>
<!-- Node28&#45;&gt;Node26 -->
<g id="edge38_Node000028_Node000026" class="edge">
<title>Node28&#45;&gt;Node26</title>
<g id="a_edge38_Node000028_Node000026"><a xlink:title=" ">
<path fill="none" stroke="#63b8ff" d="M1816.24,-252.87C1816.93,-244.75 1818,-232.31 1818.89,-221.89"/>
<polygon fill="#63b8ff" stroke="#63b8ff" points="1822.39,-221.93 1819.76,-211.67 1815.42,-221.33 1822.39,-221.93"/>
</a>
</g>
</g>
<!-- Node29&#45;&gt;Node8 -->
<g id="edge42_Node000029_Node000008" class="edge">
<title>Node29&#45;&gt;Node8</title>
<g id="a_edge42_Node000029_Node000008"><a xlink:title=" ">
<path fill="none" stroke="#63b8ff" d="M1091.96,-258.6C1062.28,-253.51 1030.13,-242.01 1011.5,-217 998.35,-199.35 1003.36,-172.97 1009.11,-155.39"/>
<polygon fill="#63b8ff" stroke="#63b8ff" points="1012.49,-156.32 1012.63,-145.73 1005.91,-153.93 1012.49,-156.32"/>
</a>
</g>
</g>
<!-- Node29&#45;&gt;Node9 -->
<g id="edge60_Node000029_Node000009" class="edge">
<title>Node29&#45;&gt;Node9</title>
<g id="a_edge60_Node000029_Node000009"><a xlink:title=" ">
<path fill="none" stroke="#63b8ff" d="M1229.21,-256.59C1346.37,-247.95 1575.6,-229.71 1610.5,-217 1650.3,-202.51 1689.48,-171.33 1710.88,-152.46"/>
<polygon fill="#63b8ff" stroke="#63b8ff" points="1713.33,-154.96 1718.42,-145.67 1708.65,-149.76 1713.33,-154.96"/>
</a>
</g>
</g>
<!-- Node29&#45;&gt;Node14 -->
<g id="edge62_Node000029_Node000014" class="edge">
<title>Node29&#45;&gt;Node14</title>
<g id="a_edge62_Node000029_Node000014"><a xlink:title=" ">
<path fill="none" stroke="#63b8ff" d="M1101.03,-252.98C1079.57,-246.71 1057.45,-235.84 1044.5,-217 1036.95,-206.01 1043.6,-200.3 1044.5,-187 1045.55,-171.53 1059.69,-71.92 1065.76,-29.54"/>
<polygon fill="#63b8ff" stroke="#63b8ff" points="1069.26,-29.83 1067.21,-19.44 1062.33,-28.84 1069.26,-29.83"/>
</a>
</g>
</g>
<!-- Node29&#45;&gt;Node15 -->
<g id="edge61_Node000029_Node000015" class="edge">
<title>Node29&#45;&gt;Node15</title>
<g id="a_edge61_Node000029_Node000015"><a xlink:title=" ">
<path fill="none" stroke="#63b8ff" d="M1229.21,-257.68C1269.97,-252.74 1321.17,-241.66 1360.5,-217 1406.61,-188.09 1393.82,-154.76 1436.5,-121 1457.56,-104.34 1485.07,-91.65 1506.92,-83.21"/>
<polygon fill="#63b8ff" stroke="#63b8ff" points="1508.37,-86.41 1516.52,-79.64 1505.93,-79.85 1508.37,-86.41"/>
</a>
</g>
</g>
<!-- Node30 -->
<g id="Node000030" class="node">
<title>Node30</title>
<g id="a_Node000030"><a xlink:title=" ">
<polygon fill="#e0e0e0" stroke="#999999" points="1175.5,-211.5 1053.5,-211.5 1053.5,-192.5 1175.5,-192.5 1175.5,-211.5"/>
<text text-anchor="middle" x="1114.5" y="-199.5" font-family="Helvetica,sans-Serif" font-size="10.00">helios/helios_config.h</text>
</a>
</g>
</g>
<!-- Node29&#45;&gt;Node30 -->
<g id="edge41_Node000029_Node000030" class="edge">
<title>Node29&#45;&gt;Node30</title>
<g id="a_edge41_Node000029_Node000030"><a xlink:title=" ">
<path fill="none" stroke="#63b8ff" d="M1153.71,-252.87C1146.85,-244.14 1136.07,-230.43 1127.55,-219.59"/>
<polygon fill="#63b8ff" stroke="#63b8ff" points="1130.25,-217.36 1121.32,-211.67 1124.75,-221.69 1130.25,-217.36"/>
</a>
</g>
</g>
<!-- Node31 -->
<g id="Node000031" class="node">
<title>Node31</title>
<g id="a_Node000031"><a xlink:title=" ">
<polygon fill="#e0e0e0" stroke="#999999" points="1497.5,-145.5 1445.5,-145.5 1445.5,-126.5 1497.5,-126.5 1497.5,-145.5"/>
<text text-anchor="middle" x="1471.5" y="-133.5" font-family="Helvetica,sans-Serif" font-size="10.00">cassert</text>
</a>
</g>
</g>
<!-- Node29&#45;&gt;Node31 -->
<g id="edge43_Node000029_Node000031" class="edge">
<title>Node29&#45;&gt;Node31</title>
<g id="a_edge43_Node000029_Node000031"><a xlink:title=" ">
<path fill="none" stroke="#63b8ff" d="M1229.13,-259.21C1277.57,-255.09 1342.63,-244.36 1393.5,-217 1421.85,-201.75 1446.23,-172.65 1459.86,-154.07"/>
<polygon fill="#63b8ff" stroke="#63b8ff" points="1462.89,-155.85 1465.82,-145.67 1457.18,-151.8 1462.89,-155.85"/>
</a>
</g>
</g>
<!-- Node32 -->
<g id="Node000032" class="node">
<title>Node32</title>
<g id="a_Node000032"><a xlink:href="HashedLookupStrategy_8ixx.html" target="_top" xlink:title="Hash&#45;based lookup strategy for strong ID collision detection.">
<polygon fill="white" stroke="#666666" points="1351,-217 1194,-217 1194,-187 1351,-187 1351,-217"/>
<text text-anchor="start" x="1202" y="-205" font-family="Helvetica,sans-Serif" font-size="10.00">helios.ecs.strategies.Hashed</text>
<text text-anchor="middle" x="1272.5" y="-194" font-family="Helvetica,sans-Serif" font-size="10.00">LookupStrategy</text>
</a>
</g>
</g>
<!-- Node29&#45;&gt;Node32 -->
<g id="edge44_Node000029_Node000032" class="edge">
<title>Node29&#45;&gt;Node32</title>
<g id="a_edge44_Node000029_Node000032"><a xlink:title=" ">
<path fill="none" stroke="#63b8ff" d="M1177.03,-252.87C1192.65,-244.71 1216.6,-232.2 1236.61,-221.75"/>
<polygon fill="#63b8ff" stroke="#63b8ff" points="1238.23,-224.85 1245.48,-217.11 1234.99,-218.64 1238.23,-224.85"/>
</a>
</g>
</g>
<!-- Node34 -->
<g id="Node000034" class="node">
<title>Node34</title>
<g id="a_Node000034"><a xlink:href="helios_2ecs_2concepts_2__module_8ixx.html" target="_top" xlink:title=" ">
<polygon fill="white" stroke="#666666" points="753.5,-211.5 641.5,-211.5 641.5,-192.5 753.5,-192.5 753.5,-211.5"/>
<text text-anchor="middle" x="697.5" y="-199.5" font-family="Helvetica,sans-Serif" font-size="10.00">helios.ecs.concepts</text>
</a>
</g>
</g>
<!-- Node29&#45;&gt;Node34 -->
<g id="edge47_Node000029_Node000034" class="edge">
<title>Node29&#45;&gt;Node34</title>
<g id="a_edge47_Node000029_Node000034"><a xlink:title=" ">
<path fill="none" stroke="#63b8ff" d="M1091.9,-255.95C1012.36,-249.02 877.44,-235.75 762.5,-217 756.59,-216.04 750.4,-214.89 744.3,-213.67"/>
<polygon fill="#63b8ff" stroke="#63b8ff" points="744.66,-210.17 734.16,-211.57 743.24,-217.02 744.66,-210.17"/>
</a>
</g>
</g>
<!-- Node37 -->
<g id="Node000037" class="node">
<title>Node37</title>
<g id="a_Node000037"><a xlink:href="LinearLookupStrategy_8ixx.html" target="_top" xlink:title="Linear&#45;scan lookup strategy for strong ID collision detection.">
<polygon fill="white" stroke="#666666" points="921.5,-217 771.5,-217 771.5,-187 921.5,-187 921.5,-217"/>
<text text-anchor="start" x="779.5" y="-205" font-family="Helvetica,sans-Serif" font-size="10.00">helios.ecs.strategies.Linear</text>
<text text-anchor="middle" x="846.5" y="-194" font-family="Helvetica,sans-Serif" font-size="10.00">LookupStrategy</text>
</a>
</g>
</g>
<!-- Node29&#45;&gt;Node37 -->
<g id="edge55_Node000029_Node000037" class="edge">
<title>Node29&#45;&gt;Node37</title>
<g id="a_edge55_Node000029_Node000037"><a xlink:title=" ">
<path fill="none" stroke="#63b8ff" d="M1114.84,-252.99C1067.01,-244.08 990.76,-229.88 931.75,-218.88"/>
<polygon fill="#63b8ff" stroke="#63b8ff" points="932.16,-215.4 921.69,-217.01 930.88,-222.28 932.16,-215.4"/>
</a>
</g>
</g>
<!-- Node32&#45;&gt;Node14 -->
<g id="edge46_Node000032_Node000014" class="edge">
<title>Node32&#45;&gt;Node14</title>
<g id="a_edge46_Node000032_Node000014"><a xlink:title=" ">
<path fill="none" stroke="#63b8ff" d="M1257.5,-186.99C1220.39,-152.34 1124.47,-62.77 1085.42,-26.3"/>
<polygon fill="#63b8ff" stroke="#63b8ff" points="1087.69,-23.63 1077.99,-19.36 1082.91,-28.74 1087.69,-23.63"/>
</a>
</g>
</g>
<!-- Node33 -->
<g id="Node000033" class="node">
<title>Node33</title>
<g id="a_Node000033"><a xlink:title=" ">
<polygon fill="#e0e0e0" stroke="#999999" points="1315.5,-145.5 1229.5,-145.5 1229.5,-126.5 1315.5,-126.5 1315.5,-145.5"/>
<text text-anchor="middle" x="1272.5" y="-133.5" font-family="Helvetica,sans-Serif" font-size="10.00">unordered_set</text>
</a>
</g>
</g>
<!-- Node32&#45;&gt;Node33 -->
<g id="edge45_Node000032_Node000033" class="edge">
<title>Node32&#45;&gt;Node33</title>
<g id="a_edge45_Node000032_Node000033"><a xlink:title=" ">
<path fill="none" stroke="#63b8ff" d="M1272.5,-186.8C1272.5,-177.7 1272.5,-165.79 1272.5,-155.9"/>
<polygon fill="#63b8ff" stroke="#63b8ff" points="1276,-155.84 1272.5,-145.84 1269,-155.84 1276,-155.84"/>
</a>
</g>
</g>
<!-- Node34&#45;&gt;Node12 -->
<g id="edge49_Node000034_Node000012" class="edge">
<title>Node34&#45;&gt;Node12</title>
<g id="a_edge49_Node000034_Node000012"><a xlink:title=" ">
<path fill="none" stroke="#63b8ff" d="M678.12,-192.36C648.96,-178.17 599.46,-148.75 621.5,-121 637.62,-100.7 696.74,-87.89 748.92,-80.33"/>
<polygon fill="#63b8ff" stroke="#63b8ff" points="749.49,-83.78 758.9,-78.93 748.52,-76.85 749.49,-83.78"/>
</a>
</g>
</g>
<!-- Node34&#45;&gt;Node27 -->
<g id="edge48_Node000034_Node000027" class="edge">
<title>Node34&#45;&gt;Node27</title>
<g id="a_edge48_Node000034_Node000027"><a xlink:title=" ">
<path fill="none" stroke="#63b8ff" d="M671.34,-192.37C637.25,-181.12 577.51,-161.42 539.26,-148.8"/>
<polygon fill="#63b8ff" stroke="#63b8ff" points="540.15,-145.41 529.56,-145.6 537.96,-152.05 540.15,-145.41"/>
</a>
</g>
</g>
<!-- Node35 -->
<g id="Node000035" class="node">
<title>Node35</title>
<g id="a_Node000035"><a xlink:href="IsStrongIdCollisionResolverLike_8ixx.html" target="_top" xlink:title="Concept for strong ID collision detection strategies.">
<polygon fill="white" stroke="#666666" points="786,-151 631,-151 631,-121 786,-121 786,-151"/>
<text text-anchor="start" x="639" y="-139" font-family="Helvetica,sans-Serif" font-size="10.00">helios.ecs.concepts.IsStrong</text>
<text text-anchor="middle" x="708.5" y="-128" font-family="Helvetica,sans-Serif" font-size="10.00">IdCollisionResolverLike</text>
</a>
</g>
</g>
<!-- Node34&#45;&gt;Node35 -->
<g id="edge50_Node000034_Node000035" class="edge">
<title>Node34&#45;&gt;Node35</title>
<g id="a_edge50_Node000034_Node000035"><a xlink:title=" ">
<path fill="none" stroke="#63b8ff" d="M698.98,-192.37C700.35,-184.4 702.45,-172.2 704.33,-161.27"/>
<polygon fill="#63b8ff" stroke="#63b8ff" points="707.79,-161.81 706.03,-151.36 700.89,-160.62 707.79,-161.81"/>
</a>
</g>
</g>
<!-- Node35&#45;&gt;Node13 -->
<g id="edge51_Node000035_Node000013" class="edge">
<title>Node35&#45;&gt;Node13</title>
<g id="a_edge51_Node000035_Node000013"><a xlink:title=" ">
<path fill="none" stroke="#63b8ff" d="M708.5,-120.72C708.5,-98.12 708.5,-54.12 708.5,-29.09"/>
<polygon fill="#63b8ff" stroke="#63b8ff" points="712,-29.07 708.5,-19.07 705,-29.07 712,-29.07"/>
</a>
</g>
</g>
<!-- Node36 -->
<g id="Node000036" class="node">
<title>Node36</title>
<g id="a_Node000036"><a xlink:href="types_8ixx.html" target="_top" xlink:title="Core type definitions and tag types for the helios engine.">
<polygon fill="white" stroke="#666666" points="1453.5,-79.5 1353.5,-79.5 1353.5,-60.5 1453.5,-60.5 1453.5,-79.5"/>
<text text-anchor="middle" x="1403.5" y="-67.5" font-family="Helvetica,sans-Serif" font-size="10.00">helios.core.types</text>
</a>
</g>
</g>
<!-- Node35&#45;&gt;Node36 -->
<g id="edge52_Node000035_Node000036" class="edge">
<title>Node35&#45;&gt;Node36</title>
<g id="a_edge52_Node000035_Node000036"><a xlink:title=" ">
<path fill="none" stroke="#63b8ff" d="M786.25,-122.18C789.37,-121.77 792.46,-121.37 795.5,-121 995.39,-96.73 1233.71,-80.93 1343.14,-74.41"/>
<polygon fill="#63b8ff" stroke="#63b8ff" points="1343.54,-77.89 1353.32,-73.81 1343.13,-70.9 1343.54,-77.89"/>
</a>
</g>
</g>
<!-- Node36&#45;&gt;Node11 -->
<g id="edge53_Node000036_Node000011" class="edge">
<title>Node36&#45;&gt;Node11</title>
<g id="a_edge53_Node000036_Node000011"><a xlink:title=" ">
<path fill="none" stroke="#63b8ff" d="M1423.86,-60.49C1447.5,-50.62 1486.7,-34.23 1513.75,-22.93"/>
<polygon fill="#63b8ff" stroke="#63b8ff" points="1515.24,-26.1 1523.12,-19.02 1512.54,-19.64 1515.24,-26.1"/>
</a>
</g>
</g>
<!-- Node36&#45;&gt;Node16 -->
<g id="edge54_Node000036_Node000016" class="edge">
<title>Node36&#45;&gt;Node16</title>
<g id="a_edge54_Node000036_Node000016"><a xlink:title=" ">
<path fill="none" stroke="#63b8ff" d="M1409.11,-60.37C1414.66,-51.81 1423.33,-38.47 1430.3,-27.74"/>
<polygon fill="#63b8ff" stroke="#63b8ff" points="1433.36,-29.46 1435.87,-19.17 1427.49,-25.65 1433.36,-29.46"/>
</a>
</g>
</g>
<!-- Node37&#45;&gt;Node8 -->
<g id="edge56_Node000037_Node000008" class="edge">
<title>Node37&#45;&gt;Node8</title>
<g id="a_edge56_Node000037_Node000008"><a xlink:title=" ">
<path fill="none" stroke="#63b8ff" d="M883.81,-186.95C913.88,-175.63 955.74,-159.88 984.35,-149.1"/>
<polygon fill="#63b8ff" stroke="#63b8ff" points="985.75,-152.32 993.88,-145.52 983.28,-145.77 985.75,-152.32"/>
</a>
</g>
</g>
<!-- Node37&#45;&gt;Node14 -->
<g id="edge59_Node000037_Node000014" class="edge">
<title>Node37&#45;&gt;Node14</title>
<g id="a_edge59_Node000037_Node000014"><a xlink:title=" ">
<path fill="none" stroke="#63b8ff" d="M882.33,-186.92C902.05,-178.21 926.33,-165.87 945.5,-151 993.37,-113.87 1036.9,-56.08 1056.91,-27.58"/>
<polygon fill="#63b8ff" stroke="#63b8ff" points="1059.96,-29.32 1062.77,-19.11 1054.2,-25.34 1059.96,-29.32"/>
</a>
</g>
</g>
<!-- Node38 -->
<g id="Node000038" class="node">
<title>Node38</title>
<g id="a_Node000038"><a xlink:title=" ">
<polygon fill="#e0e0e0" stroke="#999999" points="868.5,-145.5 804.5,-145.5 804.5,-126.5 868.5,-126.5 868.5,-145.5"/>
<text text-anchor="middle" x="836.5" y="-133.5" font-family="Helvetica,sans-Serif" font-size="10.00">algorithm</text>
</a>
</g>
</g>
<!-- Node37&#45;&gt;Node38 -->
<g id="edge57_Node000037_Node000038" class="edge">
<title>Node37&#45;&gt;Node38</title>
<g id="a_edge57_Node000037_Node000038"><a xlink:title=" ">
<path fill="none" stroke="#63b8ff" d="M844.28,-186.8C842.86,-177.7 841,-165.79 839.45,-155.9"/>
<polygon fill="#63b8ff" stroke="#63b8ff" points="842.88,-155.18 837.88,-145.84 835.97,-156.26 842.88,-155.18"/>
</a>
</g>
</g>
<!-- Node39 -->
<g id="Node000039" class="node">
<title>Node39</title>
<g id="a_Node000039"><a xlink:title=" ">
<polygon fill="#e0e0e0" stroke="#999999" points="936.5,-145.5 886.5,-145.5 886.5,-126.5 936.5,-126.5 936.5,-145.5"/>
<text text-anchor="middle" x="911.5" y="-133.5" font-family="Helvetica,sans-Serif" font-size="10.00">ranges</text>
</a>
</g>
</g>
<!-- Node37&#45;&gt;Node39 -->
<g id="edge58_Node000037_Node000039" class="edge">
<title>Node37&#45;&gt;Node39</title>
<g id="a_edge58_Node000037_Node000039"><a xlink:title=" ">
<path fill="none" stroke="#63b8ff" d="M860.93,-186.8C871.06,-176.82 884.63,-163.46 895.16,-153.09"/>
<polygon fill="#63b8ff" stroke="#63b8ff" points="897.85,-155.35 902.52,-145.84 892.94,-150.37 897.85,-155.35"/>
</a>
</g>
</g>
<!-- Node40&#45;&gt;Node8 -->
<g id="edge66_Node000040_Node000008" class="edge">
<title>Node40&#45;&gt;Node8</title>
<g id="a_edge66_Node000040_Node000008"><a xlink:title=" ">
<path fill="none" stroke="#63b8ff" d="M1483.75,-193.53C1466.88,-191.4 1448.46,-189.09 1431.5,-187 1290.03,-169.56 1121.35,-149.45 1050.49,-141.03"/>
<polygon fill="#63b8ff" stroke="#63b8ff" points="1050.71,-137.53 1040.37,-139.83 1049.88,-144.48 1050.71,-137.53"/>
</a>
</g>
</g>
<!-- Node40&#45;&gt;Node9 -->
<g id="edge68_Node000040_Node000009" class="edge">
<title>Node40&#45;&gt;Node9</title>
<g id="a_edge68_Node000040_Node000009"><a xlink:title=" ">
<path fill="none" stroke="#63b8ff" d="M1567.45,-192.37C1599.81,-181.17 1656.44,-161.58 1692.93,-148.96"/>
<polygon fill="#63b8ff" stroke="#63b8ff" points="1694.34,-152.17 1702.65,-145.6 1692.06,-145.56 1694.34,-152.17"/>
</a>
</g>
</g>
<!-- Node40&#45;&gt;Node10 -->
<g id="edge65_Node000040_Node000010" class="edge">
<title>Node40&#45;&gt;Node10</title>
<g id="a_edge65_Node000040_Node000010"><a xlink:title=" ">
<path fill="none" stroke="#63b8ff" d="M1550.64,-192.47C1571.04,-171.08 1624.63,-114.9 1651.16,-87.08"/>
<polygon fill="#63b8ff" stroke="#63b8ff" points="1653.8,-89.38 1658.17,-79.73 1648.74,-84.55 1653.8,-89.38"/>
</a>
</g>
</g>
<!-- Node40&#45;&gt;Node15 -->
<g id="edge67_Node000040_Node000015" class="edge">
<title>Node40&#45;&gt;Node15</title>
<g id="a_edge67_Node000040_Node000015"><a xlink:title=" ">
<path fill="none" stroke="#63b8ff" d="M1542.57,-192.47C1542.72,-171.82 1543.13,-118.72 1543.35,-90.04"/>
<polygon fill="#63b8ff" stroke="#63b8ff" points="1546.86,-89.76 1543.43,-79.73 1539.86,-89.7 1546.86,-89.76"/>
</a>
</g>
</g>
<!-- Node40&#45;&gt;Node31 -->
<g id="edge64_Node000040_Node000031" class="edge">
<title>Node40&#45;&gt;Node31</title>
<g id="a_edge64_Node000040_Node000031"><a xlink:title=" ">
<path fill="none" stroke="#63b8ff" d="M1532.92,-192.37C1521.66,-182.21 1502.74,-165.16 1488.87,-152.65"/>
<polygon fill="#63b8ff" stroke="#63b8ff" points="1491.15,-150 1481.38,-145.91 1486.46,-155.2 1491.15,-150"/>
</a>
</g>
</g>
</g>
</svg>
