<?xml version="1.0" encoding="UTF-8" standalone="no"?>
<!DOCTYPE svg PUBLIC "-//W3C//DTD SVG 1.1//EN"
 "http://www.w3.org/Graphics/SVG/1.1/DTD/svg11.dtd">
<!-- Generated by graphviz version 2.43.0 (0)
 -->
<!-- Title: EntityRegistry.ixx Pages: 1 -->
<!--zoomable 269 -->

<svg id="main" version="1.1" xmlns="http://www.w3.org/2000/svg" xmlns:xlink="http://www.w3.org/1999/xlink" xml:space="preserve" onload="init(evt)">

<style type="text/css"><![CDATA[
.node, .edge {opacity: 0.7;}
.node.selected, .edge.selected {opacity: 1;}
.edge:hover path { stroke: red; }
.edge:hover polygon { stroke: red; fill: red; }
]]></style>

<defs>
  <circle id="rim" cx="0" cy="0" r="7"/>
  <circle id="rim2" cx="0" cy="0" r="3.5"/>
  <g id="zoomPlus">
    <use xlink:href="#rim" fill="#404040"><set attributeName="fill" to="#808080" begin="zoomplus.mouseover" end="zoomplus.mouseout"/></use>
    <path d="M-4,0h8M0,-4v8" fill="none" stroke="white" stroke-width="1.5" pointer-events="none"/>
  </g>
  <g id="zoomMin">
    <use xlink:href="#rim" fill="#404040"><set attributeName="fill" to="#808080" begin="zoomminus.mouseover" end="zoomminus.mouseout"/></use>
    <path d="M-4,0h8" fill="none" stroke="white" stroke-width="1.5" pointer-events="none"/>
  </g>
  <g id="arrowUp" transform="translate(30 24)">
    <use xlink:href="#rim"/>
    <path pointer-events="none" fill="none" stroke="white" stroke-width="1.5" d="M0,-3.0v7 M-2.5,-0.5L0,-3.0L2.5,-0.5"/>
  </g>
  <g id="arrowRight" transform="rotate(90) translate(36 -43)">
    <use xlink:href="#rim"/>
    <path pointer-events="none" fill="none" stroke="white" stroke-width="1.5" d="M0,-3.0v7 M-2.5,-0.5L0,-3.0L2.5,-0.5"/>
  </g>
  <g id="arrowDown" transform="rotate(180) translate(-30 -48)">
    <use xlink:href="#rim"/>
    <path pointer-events="none" fill="none" stroke="white" stroke-width="1.5" d="M0,-3.0v7 M-2.5,-0.5L0,-3.0L2.5,-0.5"/>
  </g>
  <g id="arrowLeft" transform="rotate(270) translate(-36 17)">
    <use xlink:href="#rim"/>
    <path pointer-events="none" fill="none" stroke="white" stroke-width="1.5" d="M0,-3.0v7 M-2.5,-0.5L0,-3.0L2.5,-0.5"/>
  </g>
  <g id="resetDef">
    <use xlink:href="#rim2" fill="#404040"><set attributeName="fill" to="#808080" begin="reset.mouseover" end="reset.mouseout"/></use>
  </g>
</defs>
<script type="application/ecmascript">
var viewWidth = 1337;
var viewHeight = 269;
var sectionId = 'dynsection-0';
</script>
<script type="application/ecmascript" xlink:href="svg.min.js"/>
<svg id="graph" class="graph">
<g id="viewport">
<title>EntityRegistry.ixx</title>
<!-- Node1 -->
<g id="Node000001" class="node">
<title>Node1</title>
<g id="a_Node000001"><a xlink:title="Generic, policy&#45;based entity registry for managing entity lifecycles.">
<polygon fill="#999999" stroke="#666666" points="529,-261 427,-261 427,-242 529,-242 529,-261"/>
<text text-anchor="middle" x="478" y="-249" font-family="Helvetica,sans-Serif" font-size="10.00">EntityRegistry.ixx</text>
</a>
</g>
</g>
<!-- Node2 -->
<g id="Node000002" class="node">
<title>Node2</title>
<g id="a_Node000002"><a xlink:title=" ">
<polygon fill="#e0e0e0" stroke="#999999" points="122,-200.5 0,-200.5 0,-181.5 122,-181.5 122,-200.5"/>
<text text-anchor="middle" x="61" y="-188.5" font-family="Helvetica,sans-Serif" font-size="10.00">helios/helios_config.h</text>
</a>
</g>
</g>
<!-- Node1&#45;&gt;Node2 -->
<g id="edge1_Node000001_Node000002" class="edge">
<title>Node1&#45;&gt;Node2</title>
<g id="a_edge1_Node000001_Node000002"><a xlink:title=" ">
<path fill="none" stroke="#63b8ff" d="M426.88,-244.74C359.92,-236.99 238.9,-222.29 136,-206 129.14,-204.91 121.95,-203.69 114.85,-202.42"/>
<polygon fill="#63b8ff" stroke="#63b8ff" points="115.02,-198.89 104.55,-200.55 113.77,-205.78 115.02,-198.89"/>
</a>
</g>
</g>
<!-- Node3 -->
<g id="Node000003" class="node">
<title>Node3</title>
<g id="a_Node000003"><a xlink:title=" ">
<polygon fill="#e0e0e0" stroke="#999999" points="367.5,-134.5 320.5,-134.5 320.5,-115.5 367.5,-115.5 367.5,-134.5"/>
<text text-anchor="middle" x="344" y="-122.5" font-family="Helvetica,sans-Serif" font-size="10.00">vector</text>
</a>
</g>
</g>
<!-- Node1&#45;&gt;Node3 -->
<g id="edge2_Node000001_Node000003" class="edge">
<title>Node1&#45;&gt;Node3</title>
<g id="a_edge2_Node000001_Node000003"><a xlink:title=" ">
<path fill="none" stroke="#63b8ff" d="M454.2,-241.85C436.14,-234.42 411.51,-222.31 394,-206 374.86,-188.18 360.15,-161.47 351.78,-143.89"/>
<polygon fill="#63b8ff" stroke="#63b8ff" points="354.94,-142.38 347.61,-134.73 348.57,-145.28 354.94,-142.38"/>
</a>
</g>
</g>
<!-- Node4 -->
<g id="Node000004" class="node">
<title>Node4</title>
<g id="a_Node000004"><a xlink:title=" ">
<polygon fill="#e0e0e0" stroke="#999999" points="1329,-200.5 1277,-200.5 1277,-181.5 1329,-181.5 1329,-200.5"/>
<text text-anchor="middle" x="1303" y="-188.5" font-family="Helvetica,sans-Serif" font-size="10.00">cassert</text>
</a>
</g>
</g>
<!-- Node1&#45;&gt;Node4 -->
<g id="edge3_Node000001_Node000004" class="edge">
<title>Node1&#45;&gt;Node4</title>
<g id="a_edge3_Node000001_Node000004"><a xlink:title=" ">
<path fill="none" stroke="#63b8ff" d="M529.15,-249.47C680.07,-246.12 1121.76,-234.14 1263,-206 1266.08,-205.39 1269.24,-204.59 1272.37,-203.69"/>
<polygon fill="#63b8ff" stroke="#63b8ff" points="1273.69,-206.94 1282.13,-200.54 1271.54,-200.28 1273.69,-206.94"/>
</a>
</g>
</g>
<!-- Node5 -->
<g id="Node000005" class="node">
<title>Node5</title>
<g id="a_Node000005"><a xlink:href="HashedLookupStrategy_8ixx.html" target="_top" xlink:title="Hash&#45;based lookup strategy for strong ID collision detection.">
<polygon fill="white" stroke="#666666" points="346.5,-206 189.5,-206 189.5,-176 346.5,-176 346.5,-206"/>
<text text-anchor="start" x="197.5" y="-194" font-family="Helvetica,sans-Serif" font-size="10.00">helios.ecs.strategies.Hashed</text>
<text text-anchor="middle" x="268" y="-183" font-family="Helvetica,sans-Serif" font-size="10.00">LookupStrategy</text>
</a>
</g>
</g>
<!-- Node1&#45;&gt;Node5 -->
<g id="edge4_Node000001_Node000005" class="edge">
<title>Node1&#45;&gt;Node5</title>
<g id="a_edge4_Node000001_Node000005"><a xlink:title=" ">
<path fill="none" stroke="#63b8ff" d="M447.46,-241.99C416.32,-233.32 367.16,-219.62 328.17,-208.76"/>
<polygon fill="#63b8ff" stroke="#63b8ff" points="329.06,-205.38 318.49,-206.06 327.18,-212.12 329.06,-205.38"/>
</a>
</g>
</g>
<!-- Node7 -->
<g id="Node000007" class="node">
<title>Node7</title>
<g id="a_Node000007"><a xlink:title=" ">
<polygon fill="#e0e0e0" stroke="#999999" points="461,-74 313,-74 313,-55 461,-55 461,-74"/>
<text text-anchor="middle" x="387" y="-62" font-family="Helvetica,sans-Serif" font-size="10.00">helios.core.types.TypeDefs</text>
</a>
</g>
</g>
<!-- Node1&#45;&gt;Node7 -->
<g id="edge31_Node000001_Node000007" class="edge">
<title>Node1&#45;&gt;Node7</title>
<g id="a_edge31_Node000001_Node000007"><a xlink:title=" ">
<path fill="none" stroke="#63b8ff" d="M426.83,-249.88C350.99,-247.83 214.04,-239.47 180,-206 149.38,-175.89 141.84,-143.27 169,-110 186.02,-89.16 249.09,-77.82 303.04,-71.82"/>
<polygon fill="#63b8ff" stroke="#63b8ff" points="303.42,-75.29 312.99,-70.76 302.68,-68.33 303.42,-75.29"/>
</a>
</g>
</g>
<!-- Node8 -->
<g id="Node000008" class="node">
<title>Node8</title>
<g id="a_Node000008"><a xlink:href="helios_2ecs_2concepts_2__module_8ixx.html" target="_top" xlink:title=" ">
<polygon fill="white" stroke="#666666" points="926,-200.5 814,-200.5 814,-181.5 926,-181.5 926,-200.5"/>
<text text-anchor="middle" x="870" y="-188.5" font-family="Helvetica,sans-Serif" font-size="10.00">helios.ecs.concepts</text>
</a>
</g>
</g>
<!-- Node1&#45;&gt;Node8 -->
<g id="edge7_Node000001_Node000008" class="edge">
<title>Node1&#45;&gt;Node8</title>
<g id="a_edge7_Node000001_Node000008"><a xlink:title=" ">
<path fill="none" stroke="#63b8ff" d="M529.25,-242.85C599.66,-232.34 726.37,-213.43 803.86,-201.87"/>
<polygon fill="#63b8ff" stroke="#63b8ff" points="804.62,-205.3 813.99,-200.36 803.58,-198.37 804.62,-205.3"/>
</a>
</g>
</g>
<!-- Node16 -->
<g id="Node000016" class="node">
<title>Node16</title>
<g id="a_Node000016"><a xlink:href="LinearLookupStrategy_8ixx.html" target="_top" xlink:title="Linear&#45;scan lookup strategy for strong ID collision detection.">
<polygon fill="white" stroke="#666666" points="553,-206 403,-206 403,-176 553,-176 553,-206"/>
<text text-anchor="start" x="411" y="-194" font-family="Helvetica,sans-Serif" font-size="10.00">helios.ecs.strategies.Linear</text>
<text text-anchor="middle" x="478" y="-183" font-family="Helvetica,sans-Serif" font-size="10.00">LookupStrategy</text>
</a>
</g>
</g>
<!-- Node1&#45;&gt;Node16 -->
<g id="edge18_Node000001_Node000016" class="edge">
<title>Node1&#45;&gt;Node16</title>
<g id="a_edge18_Node000001_Node000016"><a xlink:title=" ">
<path fill="none" stroke="#63b8ff" d="M478,-241.87C478,-235.11 478,-225.35 478,-216.26"/>
<polygon fill="#63b8ff" stroke="#63b8ff" points="481.5,-216.11 478,-206.11 474.5,-216.11 481.5,-216.11"/>
</a>
</g>
</g>
<!-- Node19 -->
<g id="Node000019" class="node">
<title>Node19</title>
<g id="a_Node000019"><a xlink:href="ecs_2types_2EntityHandle_8ixx.html" target="_top" xlink:title="Versioned, strongly&#45;typed handle for referencing entities.">
<polygon fill="white" stroke="#666666" points="732.5,-200.5 571.5,-200.5 571.5,-181.5 732.5,-181.5 732.5,-200.5"/>
<text text-anchor="middle" x="652" y="-188.5" font-family="Helvetica,sans-Serif" font-size="10.00">helios.ecs.types.EntityHandle</text>
</a>
</g>
</g>
<!-- Node1&#45;&gt;Node19 -->
<g id="edge23_Node000001_Node000019" class="edge">
<title>Node1&#45;&gt;Node19</title>
<g id="a_edge23_Node000001_Node000019"><a xlink:title=" ">
<path fill="none" stroke="#63b8ff" d="M503.3,-241.99C533.2,-231.94 583.12,-215.16 616.78,-203.84"/>
<polygon fill="#63b8ff" stroke="#63b8ff" points="618.31,-207.02 626.67,-200.52 616.07,-200.39 618.31,-207.02"/>
</a>
</g>
</g>
<!-- Node21 -->
<g id="Node000021" class="node">
<title>Node21</title>
<g id="a_Node000021"><a xlink:href="TypeDefs_8ixx.html" target="_top" xlink:title="Core type definitions and tag types for the helios engine.">
<polygon fill="white" stroke="#666666" points="1299.5,-74 1156.5,-74 1156.5,-55 1299.5,-55 1299.5,-74"/>
<text text-anchor="middle" x="1228" y="-62" font-family="Helvetica,sans-Serif" font-size="10.00">helios.ecs.types.TypeDefs</text>
</a>
</g>
</g>
<!-- Node1&#45;&gt;Node21 -->
<g id="edge30_Node000001_Node000021" class="edge">
<title>Node1&#45;&gt;Node21</title>
<g id="a_edge30_Node000001_Node000021"><a xlink:title=" ">
<path fill="none" stroke="#63b8ff" d="M529.08,-250.8C680.82,-250.51 1124.17,-240.9 1217,-140 1230.67,-125.15 1231.85,-101.12 1230.64,-84.38"/>
<polygon fill="#63b8ff" stroke="#63b8ff" points="1234.09,-83.73 1229.54,-74.16 1227.13,-84.47 1234.09,-83.73"/>
</a>
</g>
</g>
<!-- Node6 -->
<g id="Node000006" class="node">
<title>Node6</title>
<g id="a_Node000006"><a xlink:title=" ">
<polygon fill="#e0e0e0" stroke="#999999" points="264,-134.5 178,-134.5 178,-115.5 264,-115.5 264,-134.5"/>
<text text-anchor="middle" x="221" y="-122.5" font-family="Helvetica,sans-Serif" font-size="10.00">unordered_set</text>
</a>
</g>
</g>
<!-- Node5&#45;&gt;Node6 -->
<g id="edge5_Node000005_Node000006" class="edge">
<title>Node5&#45;&gt;Node6</title>
<g id="a_edge5_Node000005_Node000006"><a xlink:title=" ">
<path fill="none" stroke="#63b8ff" d="M257.57,-175.8C250.46,-166.11 241,-153.24 233.49,-143.01"/>
<polygon fill="#63b8ff" stroke="#63b8ff" points="236.24,-140.83 227.5,-134.84 230.59,-144.98 236.24,-140.83"/>
</a>
</g>
</g>
<!-- Node5&#45;&gt;Node7 -->
<g id="edge6_Node000005_Node000007" class="edge">
<title>Node5&#45;&gt;Node7</title>
<g id="a_edge6_Node000005_Node000007"><a xlink:title=" ">
<path fill="none" stroke="#63b8ff" d="M272.88,-175.82C279.39,-158.58 292.29,-129.41 311,-110 323.8,-96.73 341.4,-86.08 356.44,-78.54"/>
<polygon fill="#63b8ff" stroke="#63b8ff" points="358.37,-81.5 365.88,-74.03 355.35,-75.18 358.37,-81.5"/>
</a>
</g>
</g>
<!-- Node9 -->
<g id="Node000009" class="node">
<title>Node9</title>
<g id="a_Node000009"><a xlink:href="ecs_2concepts_2Traits_8ixx.html" target="_top" xlink:title="Compile&#45;time traits for ECS component lifecycle hooks.">
<polygon fill="white" stroke="#666666" points="1009.5,-134.5 868.5,-134.5 868.5,-115.5 1009.5,-115.5 1009.5,-134.5"/>
<text text-anchor="middle" x="939" y="-122.5" font-family="Helvetica,sans-Serif" font-size="10.00">helios.ecs.concepts.Traits</text>
</a>
</g>
</g>
<!-- Node8&#45;&gt;Node9 -->
<g id="edge8_Node000008_Node000009" class="edge">
<title>Node8&#45;&gt;Node9</title>
<g id="a_edge8_Node000008_Node000009"><a xlink:title=" ">
<path fill="none" stroke="#63b8ff" d="M879.31,-181.37C890.15,-171.31 908.3,-154.48 921.74,-142.01"/>
<polygon fill="#63b8ff" stroke="#63b8ff" points="924.45,-144.27 929.4,-134.91 919.69,-139.14 924.45,-144.27"/>
</a>
</g>
</g>
<!-- Node11 -->
<g id="Node000011" class="node">
<title>Node11</title>
<g id="a_Node000011"><a xlink:href="IsStrongIdLike_8ixx.html" target="_top" xlink:title="Concept for types modelling a strong identifier.">
<polygon fill="white" stroke="#666666" points="850.5,-140 695.5,-140 695.5,-110 850.5,-110 850.5,-140"/>
<text text-anchor="start" x="703.5" y="-128" font-family="Helvetica,sans-Serif" font-size="10.00">helios.ecs.concepts.IsStrong</text>
<text text-anchor="middle" x="773" y="-117" font-family="Helvetica,sans-Serif" font-size="10.00">IdLike</text>
</a>
</g>
</g>
<!-- Node8&#45;&gt;Node11 -->
<g id="edge10_Node000008_Node000011" class="edge">
<title>Node8&#45;&gt;Node11</title>
<g id="a_edge10_Node000008_Node000011"><a xlink:title=" ">
<path fill="none" stroke="#63b8ff" d="M856.92,-181.37C843.14,-172.28 820.98,-157.66 802.89,-145.72"/>
<polygon fill="#63b8ff" stroke="#63b8ff" points="804.67,-142.7 794.39,-140.12 800.81,-148.54 804.67,-142.7"/>
</a>
</g>
</g>
<!-- Node12 -->
<g id="Node000012" class="node">
<title>Node12</title>
<g id="a_Node000012"><a xlink:href="IsStrongIdCollisionResolverLike_8ixx.html" target="_top" xlink:title="Concept for strong ID collision detection strategies.">
<polygon fill="white" stroke="#666666" points="1182.5,-140 1027.5,-140 1027.5,-110 1182.5,-110 1182.5,-140"/>
<text text-anchor="start" x="1035.5" y="-128" font-family="Helvetica,sans-Serif" font-size="10.00">helios.ecs.concepts.IsStrong</text>
<text text-anchor="middle" x="1105" y="-117" font-family="Helvetica,sans-Serif" font-size="10.00">IdCollisionResolverLike</text>
</a>
</g>
</g>
<!-- Node8&#45;&gt;Node12 -->
<g id="edge13_Node000008_Node000012" class="edge">
<title>Node8&#45;&gt;Node12</title>
<g id="a_edge13_Node000008_Node000012"><a xlink:title=" ">
<path fill="none" stroke="#63b8ff" d="M901.69,-181.37C937.88,-171.51 997.93,-155.16 1043.41,-142.77"/>
<polygon fill="#63b8ff" stroke="#63b8ff" points="1044.44,-146.12 1053.17,-140.12 1042.6,-139.37 1044.44,-146.12"/>
</a>
</g>
</g>
<!-- Node10 -->
<g id="Node000010" class="node">
<title>Node10</title>
<g id="a_Node000010"><a xlink:title=" ">
<polygon fill="#e0e0e0" stroke="#999999" points="969,-74 909,-74 909,-55 969,-55 969,-74"/>
<text text-anchor="middle" x="939" y="-62" font-family="Helvetica,sans-Serif" font-size="10.00">concepts</text>
</a>
</g>
</g>
<!-- Node9&#45;&gt;Node10 -->
<g id="edge9_Node000009_Node000010" class="edge">
<title>Node9&#45;&gt;Node10</title>
<g id="a_edge9_Node000009_Node000010"><a xlink:title=" ">
<path fill="none" stroke="#63b8ff" d="M939,-115.37C939,-107.25 939,-94.81 939,-84.39"/>
<polygon fill="#63b8ff" stroke="#63b8ff" points="942.5,-84.17 939,-74.17 935.5,-84.17 942.5,-84.17"/>
</a>
</g>
</g>
<!-- Node11&#45;&gt;Node7 -->
<g id="edge12_Node000011_Node000007" class="edge">
<title>Node11&#45;&gt;Node7</title>
<g id="a_edge12_Node000011_Node000007"><a xlink:title=" ">
<path fill="none" stroke="#63b8ff" d="M695.22,-111.44C692.11,-110.95 689.02,-110.47 686,-110 607.19,-97.79 516.59,-84.4 455.96,-75.53"/>
<polygon fill="#63b8ff" stroke="#63b8ff" points="456.15,-72.02 445.75,-74.03 455.14,-78.94 456.15,-72.02"/>
</a>
</g>
</g>
<!-- Node11&#45;&gt;Node10 -->
<g id="edge11_Node000011_Node000010" class="edge">
<title>Node11&#45;&gt;Node10</title>
<g id="a_edge11_Node000011_Node000010"><a xlink:title=" ">
<path fill="none" stroke="#63b8ff" d="M812.76,-109.99C840.83,-100.1 878.05,-86.98 904.79,-77.56"/>
<polygon fill="#63b8ff" stroke="#63b8ff" points="906.22,-80.76 914.49,-74.14 903.89,-74.16 906.22,-80.76"/>
</a>
</g>
</g>
<!-- Node12&#45;&gt;Node10 -->
<g id="edge14_Node000012_Node000010" class="edge">
<title>Node12&#45;&gt;Node10</title>
<g id="a_edge14_Node000012_Node000010"><a xlink:title=" ">
<path fill="none" stroke="#63b8ff" d="M1065.24,-109.99C1037.17,-100.1 999.95,-86.98 973.21,-77.56"/>
<polygon fill="#63b8ff" stroke="#63b8ff" points="974.11,-74.16 963.51,-74.14 971.78,-80.76 974.11,-74.16"/>
</a>
</g>
</g>
<!-- Node13 -->
<g id="Node000013" class="node">
<title>Node13</title>
<g id="a_Node000013"><a xlink:href="types_8ixx.html" target="_top" xlink:title="Core type definitions and tag types for the helios engine.">
<polygon fill="white" stroke="#666666" points="1138,-74 1038,-74 1038,-55 1138,-55 1138,-74"/>
<text text-anchor="middle" x="1088" y="-62" font-family="Helvetica,sans-Serif" font-size="10.00">helios.core.types</text>
</a>
</g>
</g>
<!-- Node12&#45;&gt;Node13 -->
<g id="edge15_Node000012_Node000013" class="edge">
<title>Node12&#45;&gt;Node13</title>
<g id="a_edge15_Node000012_Node000013"><a xlink:title=" ">
<path fill="none" stroke="#63b8ff" d="M1100.88,-109.84C1098.62,-102.04 1095.78,-92.27 1093.34,-83.89"/>
<polygon fill="#63b8ff" stroke="#63b8ff" points="1096.7,-82.89 1090.55,-74.27 1089.98,-84.85 1096.7,-82.89"/>
</a>
</g>
</g>
<!-- Node14 -->
<g id="Node000014" class="node">
<title>Node14</title>
<g id="a_Node000014"><a xlink:title=" ">
<polygon fill="#e0e0e0" stroke="#999999" points="1113,-19 1063,-19 1063,0 1113,0 1113,-19"/>
<text text-anchor="middle" x="1088" y="-7" font-family="Helvetica,sans-Serif" font-size="10.00">cstdint</text>
</a>
</g>
</g>
<!-- Node13&#45;&gt;Node14 -->
<g id="edge16_Node000013_Node000014" class="edge">
<title>Node13&#45;&gt;Node14</title>
<g id="a_edge16_Node000013_Node000014"><a xlink:title=" ">
<path fill="none" stroke="#63b8ff" d="M1088,-54.75C1088,-47.8 1088,-37.85 1088,-29.13"/>
<polygon fill="#63b8ff" stroke="#63b8ff" points="1091.5,-29.09 1088,-19.09 1084.5,-29.09 1091.5,-29.09"/>
</a>
</g>
</g>
<!-- Node15 -->
<g id="Node000015" class="node">
<title>Node15</title>
<g id="a_Node000015"><a xlink:title=" ">
<polygon fill="#e0e0e0" stroke="#999999" points="1212,-19 1168,-19 1168,0 1212,0 1212,-19"/>
<text text-anchor="middle" x="1190" y="-7" font-family="Helvetica,sans-Serif" font-size="10.00">limits</text>
</a>
</g>
</g>
<!-- Node13&#45;&gt;Node15 -->
<g id="edge17_Node000013_Node000015" class="edge">
<title>Node13&#45;&gt;Node15</title>
<g id="a_edge17_Node000013_Node000015"><a xlink:title=" ">
<path fill="none" stroke="#63b8ff" d="M1104.39,-54.98C1120.57,-46.57 1145.57,-33.59 1164.38,-23.81"/>
<polygon fill="#63b8ff" stroke="#63b8ff" points="1166.05,-26.89 1173.31,-19.17 1162.83,-20.68 1166.05,-26.89"/>
</a>
</g>
</g>
<!-- Node16&#45;&gt;Node3 -->
<g id="edge19_Node000016_Node000003" class="edge">
<title>Node16&#45;&gt;Node3</title>
<g id="a_edge19_Node000016_Node000003"><a xlink:title=" ">
<path fill="none" stroke="#63b8ff" d="M448.59,-175.95C425.51,-164.93 393.62,-149.7 371.14,-138.96"/>
<polygon fill="#63b8ff" stroke="#63b8ff" points="372.37,-135.67 361.83,-134.52 369.35,-141.99 372.37,-135.67"/>
</a>
</g>
</g>
<!-- Node16&#45;&gt;Node7 -->
<g id="edge22_Node000016_Node000007" class="edge">
<title>Node16&#45;&gt;Node7</title>
<g id="a_edge22_Node000016_Node000007"><a xlink:title=" ">
<path fill="none" stroke="#63b8ff" d="M497.12,-175.97C517,-159.64 543.15,-132.08 527,-110 513.68,-91.79 492.85,-80.85 471.29,-74.34"/>
<polygon fill="#63b8ff" stroke="#63b8ff" points="471.93,-70.88 461.36,-71.64 470.1,-77.64 471.93,-70.88"/>
</a>
</g>
</g>
<!-- Node17 -->
<g id="Node000017" class="node">
<title>Node17</title>
<g id="a_Node000017"><a xlink:title=" ">
<polygon fill="#e0e0e0" stroke="#999999" points="518,-134.5 454,-134.5 454,-115.5 518,-115.5 518,-134.5"/>
<text text-anchor="middle" x="486" y="-122.5" font-family="Helvetica,sans-Serif" font-size="10.00">algorithm</text>
</a>
</g>
</g>
<!-- Node16&#45;&gt;Node17 -->
<g id="edge20_Node000016_Node000017" class="edge">
<title>Node16&#45;&gt;Node17</title>
<g id="a_edge20_Node000016_Node000017"><a xlink:title=" ">
<path fill="none" stroke="#63b8ff" d="M479.78,-175.8C480.91,-166.7 482.4,-154.79 483.64,-144.9"/>
<polygon fill="#63b8ff" stroke="#63b8ff" points="487.13,-145.2 484.89,-134.84 480.18,-144.33 487.13,-145.2"/>
</a>
</g>
</g>
<!-- Node18 -->
<g id="Node000018" class="node">
<title>Node18</title>
<g id="a_Node000018"><a xlink:title=" ">
<polygon fill="#e0e0e0" stroke="#999999" points="436,-134.5 386,-134.5 386,-115.5 436,-115.5 436,-134.5"/>
<text text-anchor="middle" x="411" y="-122.5" font-family="Helvetica,sans-Serif" font-size="10.00">ranges</text>
</a>
</g>
</g>
<!-- Node16&#45;&gt;Node18 -->
<g id="edge21_Node000016_Node000018" class="edge">
<title>Node16&#45;&gt;Node18</title>
<g id="a_edge21_Node000016_Node000018"><a xlink:title=" ">
<path fill="none" stroke="#63b8ff" d="M463.13,-175.8C452.58,-165.72 438.42,-152.19 427.52,-141.78"/>
<polygon fill="#63b8ff" stroke="#63b8ff" points="429.91,-139.22 420.26,-134.84 425.07,-144.28 429.91,-139.22"/>
</a>
</g>
</g>
<!-- Node19&#45;&gt;Node11 -->
<g id="edge26_Node000019_Node000011" class="edge">
<title>Node19&#45;&gt;Node11</title>
<g id="a_edge26_Node000019_Node000011"><a xlink:title=" ">
<path fill="none" stroke="#63b8ff" d="M668.32,-181.37C685.89,-172.07 714.41,-156.99 737.24,-144.91"/>
<polygon fill="#63b8ff" stroke="#63b8ff" points="739.11,-147.89 746.31,-140.12 735.84,-141.7 739.11,-147.89"/>
</a>
</g>
</g>
<!-- Node19&#45;&gt;Node14 -->
<g id="edge25_Node000019_Node000014" class="edge">
<title>Node19&#45;&gt;Node14</title>
<g id="a_edge25_Node000019_Node000014"><a xlink:title=" ">
<path fill="none" stroke="#63b8ff" d="M639.69,-181.33C619.52,-166.09 583.54,-133.85 603,-110 660.13,-39.96 950.71,-17.85 1052.62,-12.18"/>
<polygon fill="#63b8ff" stroke="#63b8ff" points="1052.92,-15.67 1062.71,-11.64 1052.54,-8.68 1052.92,-15.67"/>
</a>
</g>
</g>
<!-- Node20 -->
<g id="Node000020" class="node">
<title>Node20</title>
<g id="a_Node000020"><a xlink:title=" ">
<polygon fill="#e0e0e0" stroke="#999999" points="677.5,-134.5 612.5,-134.5 612.5,-115.5 677.5,-115.5 677.5,-134.5"/>
<text text-anchor="middle" x="645" y="-122.5" font-family="Helvetica,sans-Serif" font-size="10.00">functional</text>
</a>
</g>
</g>
<!-- Node19&#45;&gt;Node20 -->
<g id="edge24_Node000019_Node000020" class="edge">
<title>Node19&#45;&gt;Node20</title>
<g id="a_edge24_Node000019_Node000020"><a xlink:title=" ">
<path fill="none" stroke="#63b8ff" d="M651.06,-181.37C650.04,-172.07 648.39,-156.98 647.07,-144.9"/>
<polygon fill="#63b8ff" stroke="#63b8ff" points="650.54,-144.47 645.97,-134.91 643.58,-145.23 650.54,-144.47"/>
</a>
</g>
</g>
<!-- Node19&#45;&gt;Node21 -->
<g id="edge27_Node000019_Node000021" class="edge">
<title>Node19&#45;&gt;Node21</title>
<g id="a_edge27_Node000019_Node000021"><a xlink:title=" ">
<path fill="none" stroke="#63b8ff" d="M732.74,-182.59C883.2,-168.76 1191.42,-140.41 1192,-140 1210.59,-127.1 1219.93,-101.88 1224.37,-84.37"/>
<polygon fill="#63b8ff" stroke="#63b8ff" points="1227.88,-84.71 1226.62,-74.19 1221.04,-83.2 1227.88,-84.71"/>
</a>
</g>
</g>
<!-- Node21&#45;&gt;Node14 -->
<g id="edge28_Node000021_Node000014" class="edge">
<title>Node21&#45;&gt;Node14</title>
<g id="a_edge28_Node000021_Node000014"><a xlink:title=" ">
<path fill="none" stroke="#63b8ff" d="M1205.51,-54.98C1182.48,-46.27 1146.46,-32.63 1120.37,-22.75"/>
<polygon fill="#63b8ff" stroke="#63b8ff" points="1121.49,-19.44 1110.9,-19.17 1119.02,-25.98 1121.49,-19.44"/>
</a>
</g>
</g>
<!-- Node21&#45;&gt;Node15 -->
<g id="edge29_Node000021_Node000015" class="edge">
<title>Node21&#45;&gt;Node15</title>
<g id="a_edge29_Node000021_Node000015"><a xlink:title=" ">
<path fill="none" stroke="#63b8ff" d="M1221.73,-54.75C1216.41,-47.34 1208.64,-36.5 1202.12,-27.41"/>
<polygon fill="#63b8ff" stroke="#63b8ff" points="1204.83,-25.18 1196.16,-19.09 1199.14,-29.26 1204.83,-25.18"/>
</a>
</g>
</g>
</g>
</svg>

<g id="navigator" transform="translate(0 0)" fill="#404254">
  <rect fill="#f2f5e9" fill-opacity="0.5" stroke="#606060" stroke-width=".5" x="0" y="0" width="60" height="60"/>
  <use id="zoomplus" xlink:href="#zoomPlus" x="17" y="9" onmousedown="handleZoom(evt,'in')"/>
  <use id="zoomminus" xlink:href="#zoomMin" x="42" y="9" onmousedown="handleZoom(evt,'out')"/>
  <use id="reset" xlink:href="#resetDef" x="30" y="36" onmousedown="handleReset()"/>
   <use id="arrowup" xlink:href="#arrowUp" x="0" y="0" onmousedown="handlePan(0,-1)"/>
  <use id="arrowright" xlink:href="#arrowRight" x="0" y="0" onmousedown="handlePan(1,0)"/>
  <use id="arrowdown" xlink:href="#arrowDown" x="0" y="0" onmousedown="handlePan(0,1)"/>
  <use id="arrowleft" xlink:href="#arrowLeft" x="0" y="0" onmousedown="handlePan(-1,0)"/>
</g>
<svg viewBox="0 0 15 15" width="100%" height="30px" preserveAspectRatio="xMaxYMin meet">
 <g id="arrow_out" transform="scale(0.3 0.3)">
  <a xlink:href="ecs_2EntityRegistry_8ixx__incl_org.svg" target="_base">
   <rect id="button" ry="5" rx="5" y="6" x="6" height="38" width="38"
        fill="#f2f5e9" fill-opacity="0.5" stroke="#606060" stroke-width="1.0"/>
   <path id="arrow"
     d="M 11.500037,31.436501 C 11.940474,20.09759 22.043105,11.32322 32.158766,21.979434 L 37.068811,17.246167 C 37.068811,17.246167 37.088388,32 37.088388,32 L 22.160133,31.978069 C 22.160133,31.978069 26.997745,27.140456 26.997745,27.140456 C 18.528582,18.264221 13.291696,25.230495 11.500037,31.436501 z"
     style="fill:#404040;"/>
  </a>
 </g>
</svg>

<style type='text/css'>
<![CDATA[
[data-mouse-over-selected='false'] { opacity: 0.7; }
[data-mouse-over-selected='true']  { opacity: 1.0; }
]]>
</style>
<script type="application/ecmascript"><![CDATA[
document.addEventListener('DOMContentLoaded', (event) => {
  highlightEdges();
  highlightAdjacentNodes();
});
]]></script>
</svg>
