<?xml version="1.0" encoding="UTF-8" standalone="no"?>
<!DOCTYPE svg PUBLIC "-//W3C//DTD SVG 1.1//EN"
 "http://www.w3.org/Graphics/SVG/1.1/DTD/svg11.dtd">
<!-- Generated by graphviz version 2.43.0 (0)
 -->
<!-- Title: include/helios/engine/runtime/spawn/behavior/placements/EmitterSpawnPlacer.ixx Pages: 1 -->
<svg width="838pt" height="412pt"
 viewBox="0.00 0.00 837.50 412.00" xmlns="http://www.w3.org/2000/svg" xmlns:xlink="http://www.w3.org/1999/xlink">
<g id="graph0" class="graph" transform="scale(1 1) rotate(0) translate(4 408)">
<title>include/helios/engine/runtime/spawn/behavior/placements/EmitterSpawnPlacer.ixx</title>
<!-- Node1 -->
<g id="Node000001" class="node">
<title>Node1</title>
<g id="a_Node000001"><a xlink:title="Placer that spawns entities at the emitter&#39;s position.">
<polygon fill="#999999" stroke="#666666" points="313.5,-404 118.5,-404 118.5,-363 313.5,-363 313.5,-404"/>
<text text-anchor="start" x="126.5" y="-392" font-family="Helvetica,sans-Serif" font-size="10.00">include/helios/engine</text>
<text text-anchor="start" x="126.5" y="-381" font-family="Helvetica,sans-Serif" font-size="10.00">/runtime/spawn/behavior</text>
<text text-anchor="middle" x="216" y="-370" font-family="Helvetica,sans-Serif" font-size="10.00">/placements/EmitterSpawnPlacer.ixx</text>
</a>
</g>
</g>
<!-- Node2 -->
<g id="Node000002" class="node">
<title>Node2</title>
<g id="a_Node000002"><a xlink:title=" ">
<polygon fill="#e0e0e0" stroke="#999999" points="85,-321.5 33,-321.5 33,-302.5 85,-302.5 85,-321.5"/>
<text text-anchor="middle" x="59" y="-309.5" font-family="Helvetica,sans-Serif" font-size="10.00">cassert</text>
</a>
</g>
</g>
<!-- Node1&#45;&gt;Node2 -->
<g id="edge1_Node000001_Node000002" class="edge">
<title>Node1&#45;&gt;Node2</title>
<g id="a_edge1_Node000001_Node000002"><a xlink:title=" ">
<path fill="none" stroke="#63b8ff" d="M171.85,-362.96C144.87,-351.01 111.14,-336.08 87.62,-325.67"/>
<polygon fill="#63b8ff" stroke="#63b8ff" points="88.77,-322.35 78.21,-321.5 85.94,-328.75 88.77,-322.35"/>
</a>
</g>
</g>
<!-- Node3 -->
<g id="Node000003" class="node">
<title>Node3</title>
<g id="a_Node000003"><a xlink:href="Guid_8ixx.html" target="_top" xlink:title="Lightweight GUID (globally unique identifier) implementation.">
<polygon fill="white" stroke="#666666" points="123,-255.5 33,-255.5 33,-236.5 123,-236.5 123,-255.5"/>
<text text-anchor="middle" x="78" y="-243.5" font-family="Helvetica,sans-Serif" font-size="10.00">helios.util.Guid</text>
</a>
</g>
</g>
<!-- Node1&#45;&gt;Node3 -->
<g id="edge2_Node000001_Node000003" class="edge">
<title>Node1&#45;&gt;Node3</title>
<g id="a_edge2_Node000001_Node000003"><a xlink:title=" ">
<path fill="none" stroke="#63b8ff" d="M183.05,-362.8C168.13,-353.04 150.79,-340.47 137,-327 117.4,-307.84 99.41,-281.66 88.58,-264.55"/>
<polygon fill="#63b8ff" stroke="#63b8ff" points="91.3,-262.3 83.07,-255.64 85.35,-265.99 91.3,-262.3"/>
</a>
</g>
</g>
<!-- Node6 -->
<g id="Node000006" class="node">
<title>Node6</title>
<g id="a_Node000006"><a xlink:href="helios_2math_2__module_8ixx.html" target="_top" xlink:title="Module exports for mathematical types and utilities.">
<polygon fill="white" stroke="#666666" points="393,-129 319,-129 319,-110 393,-110 393,-129"/>
<text text-anchor="middle" x="356" y="-117" font-family="Helvetica,sans-Serif" font-size="10.00">helios.math</text>
</a>
</g>
</g>
<!-- Node1&#45;&gt;Node6 -->
<g id="edge5_Node000001_Node000006" class="edge">
<title>Node1&#45;&gt;Node6</title>
<g id="a_edge5_Node000001_Node000006"><a xlink:title=" ">
<path fill="none" stroke="#63b8ff" d="M193.95,-362.86C184.66,-353.11 174.88,-340.54 170,-327 150.17,-272 184.9,-193.57 214,-165 239.25,-140.2 278.15,-129.2 308.85,-124.33"/>
<polygon fill="#63b8ff" stroke="#63b8ff" points="309.51,-127.77 318.92,-122.9 308.53,-120.84 309.51,-127.77"/>
</a>
</g>
</g>
<!-- Node13 -->
<g id="Node000013" class="node">
<title>Node13</title>
<g id="a_Node000013"><a xlink:href="SpawnPlacer_8ixx.html" target="_top" xlink:title="Abstract interface for determining spawn positions.">
<polygon fill="white" stroke="#666666" points="385,-327 179,-327 179,-297 385,-297 385,-327"/>
<text text-anchor="start" x="187" y="-315" font-family="Helvetica,sans-Serif" font-size="10.00">helios.engine.runtime.spawn.behavior.</text>
<text text-anchor="middle" x="282" y="-304" font-family="Helvetica,sans-Serif" font-size="10.00">SpawnPlacer</text>
</a>
</g>
</g>
<!-- Node1&#45;&gt;Node13 -->
<g id="edge16_Node000001_Node000013" class="edge">
<title>Node1&#45;&gt;Node13</title>
<g id="a_edge16_Node000001_Node000013"><a xlink:title=" ">
<path fill="none" stroke="#63b8ff" d="M234.74,-362.77C243.11,-353.95 253,-343.54 261.56,-334.53"/>
<polygon fill="#63b8ff" stroke="#63b8ff" points="264.32,-336.7 268.67,-327.04 259.24,-331.88 264.32,-336.7"/>
</a>
</g>
</g>
<!-- Node15 -->
<g id="Node000015" class="node">
<title>Node15</title>
<g id="a_Node000015"><a xlink:href="SpawnContext_8ixx.html" target="_top" xlink:title="Context data passed to spawn behaviors during entity initialization.">
<polygon fill="white" stroke="#666666" points="444.5,-261 283.5,-261 283.5,-231 444.5,-231 444.5,-261"/>
<text text-anchor="start" x="291.5" y="-249" font-family="Helvetica,sans-Serif" font-size="10.00">helios.engine.runtime.spawn.</text>
<text text-anchor="middle" x="364" y="-238" font-family="Helvetica,sans-Serif" font-size="10.00">SpawnContext</text>
</a>
</g>
</g>
<!-- Node1&#45;&gt;Node15 -->
<g id="edge25_Node000001_Node000015" class="edge">
<title>Node1&#45;&gt;Node15</title>
<g id="a_edge25_Node000001_Node000015"><a xlink:title=" ">
<path fill="none" stroke="#63b8ff" d="M313.77,-374.49C344.4,-366.82 375.11,-352.68 394,-327 406.73,-309.7 395.46,-286.39 383.28,-269.39"/>
<polygon fill="#63b8ff" stroke="#63b8ff" points="385.81,-266.94 376.94,-261.14 380.26,-271.2 385.81,-266.94"/>
</a>
</g>
</g>
<!-- Node17 -->
<g id="Node000017" class="node">
<title>Node17</title>
<g id="a_Node000017"><a xlink:href="SpawnPlanCursor_8ixx.html" target="_top" xlink:title="Cursor tracking progress within a spawn batch.">
<polygon fill="white" stroke="#666666" points="623.5,-261 462.5,-261 462.5,-231 623.5,-231 623.5,-261"/>
<text text-anchor="start" x="470.5" y="-249" font-family="Helvetica,sans-Serif" font-size="10.00">helios.engine.runtime.spawn.</text>
<text text-anchor="middle" x="543" y="-238" font-family="Helvetica,sans-Serif" font-size="10.00">SpawnPlanCursor</text>
</a>
</g>
</g>
<!-- Node1&#45;&gt;Node17 -->
<g id="edge26_Node000001_Node000017" class="edge">
<title>Node1&#45;&gt;Node17</title>
<g id="a_edge26_Node000001_Node000017"><a xlink:title=" ">
<path fill="none" stroke="#63b8ff" d="M302.69,-362.91C336.83,-353.86 375.95,-341.8 410,-327 448.19,-310.4 488.73,-284.69 514.88,-266.92"/>
<polygon fill="#63b8ff" stroke="#63b8ff" points="516.91,-269.77 523.17,-261.22 512.94,-264 516.91,-269.77"/>
</a>
</g>
</g>
<!-- Node4 -->
<g id="Node000004" class="node">
<title>Node4</title>
<g id="a_Node000004"><a xlink:title=" ">
<polygon fill="#e0e0e0" stroke="#999999" points="50,-189.5 0,-189.5 0,-170.5 50,-170.5 50,-189.5"/>
<text text-anchor="middle" x="25" y="-177.5" font-family="Helvetica,sans-Serif" font-size="10.00">atomic</text>
</a>
</g>
</g>
<!-- Node3&#45;&gt;Node4 -->
<g id="edge3_Node000003_Node000004" class="edge">
<title>Node3&#45;&gt;Node4</title>
<g id="a_edge3_Node000003_Node000004"><a xlink:title=" ">
<path fill="none" stroke="#63b8ff" d="M70.85,-236.37C62.68,-226.5 49.11,-210.11 38.84,-197.72"/>
<polygon fill="#63b8ff" stroke="#63b8ff" points="41.45,-195.37 32.37,-189.91 36.06,-199.84 41.45,-195.37"/>
</a>
</g>
</g>
<!-- Node5 -->
<g id="Node000005" class="node">
<title>Node5</title>
<g id="a_Node000005"><a xlink:title=" ">
<polygon fill="#e0e0e0" stroke="#999999" points="225,-19 175,-19 175,0 225,0 225,-19"/>
<text text-anchor="middle" x="200" y="-7" font-family="Helvetica,sans-Serif" font-size="10.00">cstdint</text>
</a>
</g>
</g>
<!-- Node3&#45;&gt;Node5 -->
<g id="edge4_Node000003_Node000005" class="edge">
<title>Node3&#45;&gt;Node5</title>
<g id="a_edge4_Node000003_Node000005"><a xlink:title=" ">
<path fill="none" stroke="#63b8ff" d="M76.07,-236.37C70.12,-207.44 54.93,-112.54 97,-55 112.92,-33.22 141.77,-21.98 164.89,-16.25"/>
<polygon fill="#63b8ff" stroke="#63b8ff" points="165.72,-19.65 174.72,-14.06 164.19,-12.82 165.72,-19.65"/>
</a>
</g>
</g>
<!-- Node7 -->
<g id="Node000007" class="node">
<title>Node7</title>
<g id="a_Node000007"><a xlink:href="helios_2math_2concepts_2__module_8ixx.html" target="_top" xlink:title="Math concepts module exports.">
<polygon fill="white" stroke="#666666" points="650.5,-74 529.5,-74 529.5,-55 650.5,-55 650.5,-74"/>
<text text-anchor="middle" x="590" y="-62" font-family="Helvetica,sans-Serif" font-size="10.00">helios.math.concepts</text>
</a>
</g>
</g>
<!-- Node6&#45;&gt;Node7 -->
<g id="edge6_Node000006_Node000007" class="edge">
<title>Node6&#45;&gt;Node7</title>
<g id="a_edge6_Node000006_Node000007"><a xlink:title=" ">
<path fill="none" stroke="#63b8ff" d="M393.08,-110.1C433.49,-100.95 498.26,-86.28 542.4,-76.28"/>
<polygon fill="#63b8ff" stroke="#63b8ff" points="543.34,-79.66 552.32,-74.03 541.79,-72.83 543.34,-79.66"/>
</a>
</g>
</g>
<!-- Node8 -->
<g id="Node000008" class="node">
<title>Node8</title>
<g id="a_Node000008"><a xlink:href="utils_8ixx.html" target="_top" xlink:title="Misc math utility functions.">
<polygon fill="white" stroke="#666666" points="511,-74 413,-74 413,-55 511,-55 511,-74"/>
<text text-anchor="middle" x="462" y="-62" font-family="Helvetica,sans-Serif" font-size="10.00">helios.math.utils</text>
</a>
</g>
</g>
<!-- Node6&#45;&gt;Node8 -->
<g id="edge8_Node000006_Node000008" class="edge">
<title>Node6&#45;&gt;Node8</title>
<g id="a_edge8_Node000006_Node000008"><a xlink:title=" ">
<path fill="none" stroke="#63b8ff" d="M373.03,-109.98C389.93,-101.54 416.06,-88.47 435.64,-78.68"/>
<polygon fill="#63b8ff" stroke="#63b8ff" points="437.28,-81.77 444.66,-74.17 434.15,-75.51 437.28,-81.77"/>
</a>
</g>
</g>
<!-- Node10 -->
<g id="Node000010" class="node">
<title>Node10</title>
<g id="a_Node000010"><a xlink:href="helios_2math_2transform_2__module_8ixx.html" target="_top" xlink:title="Module exports for transformation utilities.">
<polygon fill="white" stroke="#666666" points="811.5,-74 686.5,-74 686.5,-55 811.5,-55 811.5,-74"/>
<text text-anchor="middle" x="749" y="-62" font-family="Helvetica,sans-Serif" font-size="10.00">helios.math.transform</text>
</a>
</g>
</g>
<!-- Node6&#45;&gt;Node10 -->
<g id="edge10_Node000006_Node000010" class="edge">
<title>Node6&#45;&gt;Node10</title>
<g id="a_edge10_Node000006_Node000010"><a xlink:title=" ">
<path fill="none" stroke="#63b8ff" d="M393.33,-113.47C458.14,-104.73 592.55,-86.6 676.31,-75.3"/>
<polygon fill="#63b8ff" stroke="#63b8ff" points="676.82,-78.77 686.27,-73.96 675.89,-71.83 676.82,-78.77"/>
</a>
</g>
</g>
<!-- Node11 -->
<g id="Node000011" class="node">
<title>Node11</title>
<g id="a_Node000011"><a xlink:href="helios_2math_2types_2__module_8ixx.html" target="_top" xlink:title="Module exports for vector and matrix type definitions.">
<polygon fill="white" stroke="#666666" points="210,-74 106,-74 106,-55 210,-55 210,-74"/>
<text text-anchor="middle" x="158" y="-62" font-family="Helvetica,sans-Serif" font-size="10.00">helios.math.types</text>
</a>
</g>
</g>
<!-- Node6&#45;&gt;Node11 -->
<g id="edge12_Node000006_Node000011" class="edge">
<title>Node6&#45;&gt;Node11</title>
<g id="a_edge12_Node000006_Node000011"><a xlink:title=" ">
<path fill="none" stroke="#63b8ff" d="M324.19,-109.98C290.51,-100.97 237.2,-86.7 200.08,-76.76"/>
<polygon fill="#63b8ff" stroke="#63b8ff" points="200.63,-73.29 190.06,-74.08 198.82,-80.05 200.63,-73.29"/>
</a>
</g>
</g>
<!-- Node12 -->
<g id="Node000012" class="node">
<title>Node12</title>
<g id="a_Node000012"><a xlink:href="TransformType_8ixx.html" target="_top" xlink:title="Defines transform inheritance flags for scene graph hierarchies.">
<polygon fill="white" stroke="#666666" points="395.5,-74 246.5,-74 246.5,-55 395.5,-55 395.5,-74"/>
<text text-anchor="middle" x="321" y="-62" font-family="Helvetica,sans-Serif" font-size="10.00">helios.math.TransformType</text>
</a>
</g>
</g>
<!-- Node6&#45;&gt;Node12 -->
<g id="edge14_Node000006_Node000012" class="edge">
<title>Node6&#45;&gt;Node12</title>
<g id="a_edge14_Node000006_Node000012"><a xlink:title=" ">
<path fill="none" stroke="#63b8ff" d="M350.22,-109.75C345.38,-102.42 338.32,-91.73 332.36,-82.7"/>
<polygon fill="#63b8ff" stroke="#63b8ff" points="335.1,-80.5 326.67,-74.09 329.26,-84.36 335.1,-80.5"/>
</a>
</g>
</g>
<!-- Node7&#45;&gt;Node7 -->
<g id="edge7_Node000007_Node000007" class="edge">
<title>Node7&#45;&gt;Node7</title>
<g id="a_edge7_Node000007_Node000007"><a xlink:title=" ">
<path fill="none" stroke="#63b8ff" d="M626.74,-74.03C648.31,-76.06 668.5,-72.88 668.5,-64.5 668.5,-57.49 654.39,-54.12 637.17,-54.39"/>
<polygon fill="#63b8ff" stroke="#63b8ff" points="636.53,-50.92 626.74,-54.97 636.92,-57.91 636.53,-50.92"/>
</a>
</g>
</g>
<!-- Node9 -->
<g id="Node000009" class="node">
<title>Node9</title>
<g id="a_Node000009"><a xlink:title=" ">
<polygon fill="#e0e0e0" stroke="#999999" points="491.5,-19 432.5,-19 432.5,0 491.5,0 491.5,-19"/>
<text text-anchor="middle" x="462" y="-7" font-family="Helvetica,sans-Serif" font-size="10.00">numbers</text>
</a>
</g>
</g>
<!-- Node8&#45;&gt;Node9 -->
<g id="edge9_Node000008_Node000009" class="edge">
<title>Node8&#45;&gt;Node9</title>
<g id="a_edge9_Node000008_Node000009"><a xlink:title=" ">
<path fill="none" stroke="#63b8ff" d="M462,-54.75C462,-47.8 462,-37.85 462,-29.13"/>
<polygon fill="#63b8ff" stroke="#63b8ff" points="465.5,-29.09 462,-19.09 458.5,-29.09 465.5,-29.09"/>
</a>
</g>
</g>
<!-- Node10&#45;&gt;Node10 -->
<g id="edge11_Node000010_Node000010" class="edge">
<title>Node10&#45;&gt;Node10</title>
<g id="a_edge11_Node000010_Node000010"><a xlink:title=" ">
<path fill="none" stroke="#63b8ff" d="M786.68,-74.03C808.8,-76.06 829.5,-72.88 829.5,-64.5 829.5,-57.43 814.76,-54.06 796.87,-54.4"/>
<polygon fill="#63b8ff" stroke="#63b8ff" points="796.47,-50.92 786.68,-54.97 796.86,-57.9 796.47,-50.92"/>
</a>
</g>
</g>
<!-- Node11&#45;&gt;Node11 -->
<g id="edge13_Node000011_Node000011" class="edge">
<title>Node11&#45;&gt;Node11</title>
<g id="a_edge13_Node000011_Node000011"><a xlink:title=" ">
<path fill="none" stroke="#63b8ff" d="M190.77,-74.03C210,-76.06 228,-72.88 228,-64.5 228,-57.62 215.89,-54.25 200.92,-54.38"/>
<polygon fill="#63b8ff" stroke="#63b8ff" points="200.55,-50.89 190.77,-54.97 200.95,-57.88 200.55,-50.89"/>
</a>
</g>
</g>
<!-- Node12&#45;&gt;Node5 -->
<g id="edge15_Node000012_Node000005" class="edge">
<title>Node12&#45;&gt;Node5</title>
<g id="a_edge15_Node000012_Node000005"><a xlink:title=" ">
<path fill="none" stroke="#63b8ff" d="M301.56,-54.98C282.01,-46.42 251.62,-33.11 229.18,-23.28"/>
<polygon fill="#63b8ff" stroke="#63b8ff" points="230.36,-19.98 219.79,-19.17 227.55,-26.39 230.36,-19.98"/>
</a>
</g>
</g>
<!-- Node13&#45;&gt;Node3 -->
<g id="edge18_Node000013_Node000003" class="edge">
<title>Node13&#45;&gt;Node3</title>
<g id="a_edge18_Node000013_Node000003"><a xlink:title=" ">
<path fill="none" stroke="#63b8ff" d="M237.23,-296.95C200.51,-285.43 149.16,-269.32 114.8,-258.54"/>
<polygon fill="#63b8ff" stroke="#63b8ff" points="115.74,-255.17 105.15,-255.52 113.64,-261.85 115.74,-255.17"/>
</a>
</g>
</g>
<!-- Node13&#45;&gt;Node6 -->
<g id="edge19_Node000013_Node000006" class="edge">
<title>Node13&#45;&gt;Node6</title>
<g id="a_edge19_Node000013_Node000006"><a xlink:title=" ">
<path fill="none" stroke="#63b8ff" d="M268.52,-296.99C243.81,-269.57 196.5,-207.79 227,-165 245.43,-139.14 279.93,-128.16 308.61,-123.57"/>
<polygon fill="#63b8ff" stroke="#63b8ff" points="309.45,-126.99 318.88,-122.15 308.49,-120.05 309.45,-126.99"/>
</a>
</g>
</g>
<!-- Node14 -->
<g id="Node000014" class="node">
<title>Node14</title>
<g id="a_Node000014"><a xlink:title=" ">
<polygon fill="#e0e0e0" stroke="#999999" points="292,-189.5 236,-189.5 236,-170.5 292,-170.5 292,-189.5"/>
<text text-anchor="middle" x="264" y="-177.5" font-family="Helvetica,sans-Serif" font-size="10.00">optional</text>
</a>
</g>
</g>
<!-- Node13&#45;&gt;Node14 -->
<g id="edge17_Node000013_Node000014" class="edge">
<title>Node13&#45;&gt;Node14</title>
<g id="a_edge17_Node000013_Node000014"><a xlink:title=" ">
<path fill="none" stroke="#63b8ff" d="M279.56,-296.58C277.9,-286.6 275.71,-273.01 274,-261 271.05,-240.26 268.13,-216.43 266.21,-200.2"/>
<polygon fill="#63b8ff" stroke="#63b8ff" points="269.65,-199.42 265.01,-189.89 262.69,-200.23 269.65,-199.42"/>
</a>
</g>
</g>
<!-- Node13&#45;&gt;Node15 -->
<g id="edge20_Node000013_Node000015" class="edge">
<title>Node13&#45;&gt;Node15</title>
<g id="a_edge20_Node000013_Node000015"><a xlink:title=" ">
<path fill="none" stroke="#63b8ff" d="M300.2,-296.8C311.24,-288.18 325.51,-277.04 337.76,-267.48"/>
<polygon fill="#63b8ff" stroke="#63b8ff" points="340.12,-270.08 345.85,-261.16 335.82,-264.56 340.12,-270.08"/>
</a>
</g>
</g>
<!-- Node13&#45;&gt;Node17 -->
<g id="edge24_Node000013_Node000017" class="edge">
<title>Node13&#45;&gt;Node17</title>
<g id="a_edge24_Node000013_Node000017"><a xlink:title=" ">
<path fill="none" stroke="#63b8ff" d="M339.28,-296.95C379.56,-287.08 433.62,-273.82 475.92,-263.45"/>
<polygon fill="#63b8ff" stroke="#63b8ff" points="476.98,-266.79 485.86,-261.01 475.31,-259.99 476.98,-266.79"/>
</a>
</g>
</g>
<!-- Node15&#45;&gt;Node14 -->
<g id="edge21_Node000015_Node000014" class="edge">
<title>Node15&#45;&gt;Node14</title>
<g id="a_edge21_Node000015_Node000014"><a xlink:title=" ">
<path fill="none" stroke="#63b8ff" d="M341.81,-230.8C325.2,-220.17 302.6,-205.7 286.03,-195.1"/>
<polygon fill="#63b8ff" stroke="#63b8ff" points="287.84,-192.1 277.53,-189.66 284.06,-198 287.84,-192.1"/>
</a>
</g>
</g>
<!-- Node16 -->
<g id="Node000016" class="node">
<title>Node16</title>
<g id="a_Node000016"><a xlink:href="EmitterContext_8ixx.html" target="_top" xlink:title="Context data from the entity that triggered a spawn.">
<polygon fill="white" stroke="#666666" points="471.5,-195 310.5,-195 310.5,-165 471.5,-165 471.5,-195"/>
<text text-anchor="start" x="318.5" y="-183" font-family="Helvetica,sans-Serif" font-size="10.00">helios.engine.runtime.spawn.</text>
<text text-anchor="middle" x="391" y="-172" font-family="Helvetica,sans-Serif" font-size="10.00">EmitterContext</text>
</a>
</g>
</g>
<!-- Node15&#45;&gt;Node16 -->
<g id="edge22_Node000015_Node000016" class="edge">
<title>Node15&#45;&gt;Node16</title>
<g id="a_edge22_Node000015_Node000016"><a xlink:title=" ">
<path fill="none" stroke="#63b8ff" d="M369.99,-230.8C373.24,-223.09 377.35,-213.37 381.06,-204.56"/>
<polygon fill="#63b8ff" stroke="#63b8ff" points="384.36,-205.74 385.02,-195.16 377.91,-203.02 384.36,-205.74"/>
</a>
</g>
</g>
<!-- Node16&#45;&gt;Node6 -->
<g id="edge23_Node000016_Node000006" class="edge">
<title>Node16&#45;&gt;Node6</title>
<g id="a_edge23_Node000016_Node000006"><a xlink:title=" ">
<path fill="none" stroke="#63b8ff" d="M382.53,-164.84C377.71,-156.78 371.63,-146.62 366.5,-138.06"/>
<polygon fill="#63b8ff" stroke="#63b8ff" points="369.38,-136.05 361.24,-129.27 363.38,-139.64 369.38,-136.05"/>
</a>
</g>
</g>
</g>
</svg>
