<?xml version="1.0" encoding="UTF-8" standalone="no"?>
<!DOCTYPE svg PUBLIC "-//W3C//DTD SVG 1.1//EN"
 "http://www.w3.org/Graphics/SVG/1.1/DTD/svg11.dtd">
<!-- Generated by graphviz version 2.43.0 (0)
 -->
<!-- Title: SparseSet.ixx Pages: 1 -->
<svg width="649pt" height="269pt"
 viewBox="0.00 0.00 649.00 269.00" xmlns="http://www.w3.org/2000/svg" xmlns:xlink="http://www.w3.org/1999/xlink">
<g id="graph0" class="graph" transform="scale(1 1) rotate(0) translate(4 265)">
<title>SparseSet.ixx</title>
<!-- Node1 -->
<g id="Node000001" class="node">
<title>Node1</title>
<g id="a_Node000001"><a xlink:title="Generic sparse set data structure for efficient entity&#45;component storage.">
<polygon fill="#999999" stroke="#666666" points="173.5,-261 90.5,-261 90.5,-242 173.5,-242 173.5,-261"/>
<text text-anchor="middle" x="132" y="-249" font-family="Helvetica,sans-Serif" font-size="10.00">SparseSet.ixx</text>
</a>
</g>
</g>
<!-- Node2 -->
<g id="Node000002" class="node">
<title>Node2</title>
<g id="a_Node000002"><a xlink:title=" ">
<polygon fill="#e0e0e0" stroke="#999999" points="52,-206 0,-206 0,-187 52,-187 52,-206"/>
<text text-anchor="middle" x="26" y="-194" font-family="Helvetica,sans-Serif" font-size="10.00">cassert</text>
</a>
</g>
</g>
<!-- Node1&#45;&gt;Node2 -->
<g id="edge1_Node000001_Node000002" class="edge">
<title>Node1&#45;&gt;Node2</title>
<g id="a_edge1_Node000001_Node000002"><a xlink:title=" ">
<path fill="none" stroke="#63b8ff" d="M114.97,-241.98C98.07,-233.54 71.94,-220.47 52.36,-210.68"/>
<polygon fill="#63b8ff" stroke="#63b8ff" points="53.85,-207.51 43.34,-206.17 50.72,-213.77 53.85,-207.51"/>
</a>
</g>
</g>
<!-- Node3 -->
<g id="Node000003" class="node">
<title>Node3</title>
<g id="a_Node000003"><a xlink:title=" ">
<polygon fill="#e0e0e0" stroke="#999999" points="112.5,-79.5 47.5,-79.5 47.5,-60.5 112.5,-60.5 112.5,-79.5"/>
<text text-anchor="middle" x="80" y="-67.5" font-family="Helvetica,sans-Serif" font-size="10.00">functional</text>
</a>
</g>
</g>
<!-- Node1&#45;&gt;Node3 -->
<g id="edge2_Node000001_Node000003" class="edge">
<title>Node1&#45;&gt;Node3</title>
<g id="a_edge2_Node000001_Node000003"><a xlink:title=" ">
<path fill="none" stroke="#63b8ff" d="M123.43,-241.79C115.7,-233.37 104.69,-219.88 99,-206 82.97,-166.89 80.06,-116.65 79.76,-89.84"/>
<polygon fill="#63b8ff" stroke="#63b8ff" points="83.26,-89.6 79.77,-79.59 76.26,-89.59 83.26,-89.6"/>
</a>
</g>
</g>
<!-- Node4 -->
<g id="Node000004" class="node">
<title>Node4</title>
<g id="a_Node000004"><a xlink:title=" ">
<polygon fill="#e0e0e0" stroke="#999999" points="155.5,-206 108.5,-206 108.5,-187 155.5,-187 155.5,-206"/>
<text text-anchor="middle" x="132" y="-194" font-family="Helvetica,sans-Serif" font-size="10.00">vector</text>
</a>
</g>
</g>
<!-- Node1&#45;&gt;Node4 -->
<g id="edge3_Node000001_Node000004" class="edge">
<title>Node1&#45;&gt;Node4</title>
<g id="a_edge3_Node000001_Node000004"><a xlink:title=" ">
<path fill="none" stroke="#63b8ff" d="M132,-241.75C132,-234.8 132,-224.85 132,-216.13"/>
<polygon fill="#63b8ff" stroke="#63b8ff" points="135.5,-216.09 132,-206.09 128.5,-216.09 135.5,-216.09"/>
</a>
</g>
</g>
<!-- Node5 -->
<g id="Node000005" class="node">
<title>Node5</title>
<g id="a_Node000005"><a xlink:href="engine_2ecs_2Traits_8ixx.html" target="_top" xlink:title="Compile&#45;time traits for ECS component lifecycle hooks.">
<polygon fill="white" stroke="#666666" points="304.5,-206 173.5,-206 173.5,-187 304.5,-187 304.5,-206"/>
<text text-anchor="middle" x="239" y="-194" font-family="Helvetica,sans-Serif" font-size="10.00">helios.engine.ecs.Traits</text>
</a>
</g>
</g>
<!-- Node1&#45;&gt;Node5 -->
<g id="edge4_Node000001_Node000005" class="edge">
<title>Node1&#45;&gt;Node5</title>
<g id="a_edge4_Node000001_Node000005"><a xlink:title=" ">
<path fill="none" stroke="#63b8ff" d="M149.19,-241.98C166.25,-233.54 192.63,-220.47 212.4,-210.68"/>
<polygon fill="#63b8ff" stroke="#63b8ff" points="214.09,-213.75 221.5,-206.17 210.98,-207.47 214.09,-213.75"/>
</a>
</g>
</g>
<!-- Node7 -->
<g id="Node000007" class="node">
<title>Node7</title>
<g id="a_Node000007"><a xlink:href="helios_2engine_2ecs_2types_2__module_8ixx.html" target="_top" xlink:title="Aggregate module for helios::engine::ecs::types.">
<polygon fill="white" stroke="#666666" points="494.5,-206 363.5,-206 363.5,-187 494.5,-187 494.5,-206"/>
<text text-anchor="middle" x="429" y="-194" font-family="Helvetica,sans-Serif" font-size="10.00">helios.engine.ecs.types</text>
</a>
</g>
</g>
<!-- Node1&#45;&gt;Node7 -->
<g id="edge6_Node000001_Node000007" class="edge">
<title>Node1&#45;&gt;Node7</title>
<g id="a_edge6_Node000001_Node000007"><a xlink:title=" ">
<path fill="none" stroke="#63b8ff" d="M173.61,-243.07C225.12,-233.88 313.12,-218.18 371.17,-207.82"/>
<polygon fill="#63b8ff" stroke="#63b8ff" points="372.06,-211.22 381.29,-206.01 370.83,-204.33 372.06,-211.22"/>
</a>
</g>
</g>
<!-- Node6 -->
<g id="Node000006" class="node">
<title>Node6</title>
<g id="a_Node000006"><a xlink:title=" ">
<polygon fill="#e0e0e0" stroke="#999999" points="269,-145.5 209,-145.5 209,-126.5 269,-126.5 269,-145.5"/>
<text text-anchor="middle" x="239" y="-133.5" font-family="Helvetica,sans-Serif" font-size="10.00">concepts</text>
</a>
</g>
</g>
<!-- Node5&#45;&gt;Node6 -->
<g id="edge5_Node000005_Node000006" class="edge">
<title>Node5&#45;&gt;Node6</title>
<g id="a_edge5_Node000005_Node000006"><a xlink:title=" ">
<path fill="none" stroke="#63b8ff" d="M239,-186.87C239,-178.75 239,-166.31 239,-155.89"/>
<polygon fill="#63b8ff" stroke="#63b8ff" points="242.5,-155.67 239,-145.67 235.5,-155.67 242.5,-155.67"/>
</a>
</g>
</g>
<!-- Node8 -->
<g id="Node000008" class="node">
<title>Node8</title>
<g id="a_Node000008"><a xlink:href="EntityTombstone_8ixx.html" target="_top" xlink:title="Sentinel value for invalid sparse array indices.">
<polygon fill="white" stroke="#666666" points="557,-85 423,-85 423,-55 557,-55 557,-85"/>
<text text-anchor="start" x="431" y="-73" font-family="Helvetica,sans-Serif" font-size="10.00">helios.engine.ecs.types.</text>
<text text-anchor="middle" x="490" y="-62" font-family="Helvetica,sans-Serif" font-size="10.00">EntityTombstone</text>
</a>
</g>
</g>
<!-- Node7&#45;&gt;Node8 -->
<g id="edge7_Node000007_Node000008" class="edge">
<title>Node7&#45;&gt;Node8</title>
<g id="a_edge7_Node000007_Node000008"><a xlink:title=" ">
<path fill="none" stroke="#63b8ff" d="M433.19,-186.94C442.44,-168.07 464.85,-122.34 478.6,-94.28"/>
<polygon fill="#63b8ff" stroke="#63b8ff" points="481.81,-95.68 483.06,-85.16 475.52,-92.6 481.81,-95.68"/>
</a>
</g>
</g>
<!-- Node10 -->
<g id="Node000010" class="node">
<title>Node10</title>
<g id="a_Node000010"><a xlink:href="EntityId_8ixx.html" target="_top" xlink:title="Type alias for entity identifiers within an EntityPool.">
<polygon fill="white" stroke="#666666" points="641,-151 507,-151 507,-121 641,-121 641,-151"/>
<text text-anchor="start" x="515" y="-139" font-family="Helvetica,sans-Serif" font-size="10.00">helios.engine.ecs.types.</text>
<text text-anchor="middle" x="574" y="-128" font-family="Helvetica,sans-Serif" font-size="10.00">EntityId</text>
</a>
</g>
</g>
<!-- Node7&#45;&gt;Node10 -->
<g id="edge9_Node000007_Node000010" class="edge">
<title>Node7&#45;&gt;Node10</title>
<g id="a_edge9_Node000007_Node000010"><a xlink:title=" ">
<path fill="none" stroke="#63b8ff" d="M450.08,-186.99C470.86,-178.61 503.24,-165.55 529.7,-154.87"/>
<polygon fill="#63b8ff" stroke="#63b8ff" points="531.18,-158.05 539.14,-151.06 528.56,-151.56 531.18,-158.05"/>
</a>
</g>
</g>
<!-- Node12 -->
<g id="Node000012" class="node">
<title>Node12</title>
<g id="a_Node000012"><a xlink:href="engine_2ecs_2types_2ComponentTypeId_8ixx.html" target="_top" xlink:title="Compile&#45;time type identifier for component types.">
<polygon fill="white" stroke="#666666" points="421,-151 287,-151 287,-121 421,-121 421,-151"/>
<text text-anchor="start" x="295" y="-139" font-family="Helvetica,sans-Serif" font-size="10.00">helios.engine.ecs.types.</text>
<text text-anchor="middle" x="354" y="-128" font-family="Helvetica,sans-Serif" font-size="10.00">ComponentTypeId</text>
</a>
</g>
</g>
<!-- Node7&#45;&gt;Node12 -->
<g id="edge11_Node000007_Node000012" class="edge">
<title>Node7&#45;&gt;Node12</title>
<g id="a_edge11_Node000007_Node000012"><a xlink:title=" ">
<path fill="none" stroke="#63b8ff" d="M417.93,-186.87C408.04,-179.15 393.15,-167.54 380.23,-157.46"/>
<polygon fill="#63b8ff" stroke="#63b8ff" points="382.13,-154.51 372.1,-151.11 377.83,-160.02 382.13,-154.51"/>
</a>
</g>
</g>
<!-- Node9 -->
<g id="Node000009" class="node">
<title>Node9</title>
<g id="a_Node000009"><a xlink:title=" ">
<polygon fill="#e0e0e0" stroke="#999999" points="418,-19 374,-19 374,0 418,0 418,-19"/>
<text text-anchor="middle" x="396" y="-7" font-family="Helvetica,sans-Serif" font-size="10.00">limits</text>
</a>
</g>
</g>
<!-- Node8&#45;&gt;Node9 -->
<g id="edge8_Node000008_Node000009" class="edge">
<title>Node8&#45;&gt;Node9</title>
<g id="a_edge8_Node000008_Node000009"><a xlink:title=" ">
<path fill="none" stroke="#63b8ff" d="M467.25,-54.84C452.4,-45.6 433.1,-33.59 418.34,-24.4"/>
<polygon fill="#63b8ff" stroke="#63b8ff" points="420.15,-21.41 409.81,-19.09 416.45,-27.35 420.15,-21.41"/>
</a>
</g>
</g>
<!-- Node11 -->
<g id="Node000011" class="node">
<title>Node11</title>
<g id="a_Node000011"><a xlink:title=" ">
<polygon fill="#e0e0e0" stroke="#999999" points="568,-19 518,-19 518,0 568,0 568,-19"/>
<text text-anchor="middle" x="543" y="-7" font-family="Helvetica,sans-Serif" font-size="10.00">cstdint</text>
</a>
</g>
</g>
<!-- Node10&#45;&gt;Node11 -->
<g id="edge10_Node000010_Node000011" class="edge">
<title>Node10&#45;&gt;Node11</title>
<g id="a_edge10_Node000010_Node000011"><a xlink:title=" ">
<path fill="none" stroke="#63b8ff" d="M574.18,-120.82C574.01,-104.58 572.63,-77.35 566,-55 563.22,-45.63 558.45,-35.92 553.98,-27.97"/>
<polygon fill="#63b8ff" stroke="#63b8ff" points="556.93,-26.09 548.81,-19.28 550.91,-29.66 556.93,-26.09"/>
</a>
</g>
</g>
<!-- Node12&#45;&gt;Node3 -->
<g id="edge12_Node000012_Node000003" class="edge">
<title>Node12&#45;&gt;Node3</title>
<g id="a_edge12_Node000012_Node000003"><a xlink:title=" ">
<path fill="none" stroke="#63b8ff" d="M286.78,-122.54C240.21,-113.41 176.94,-100.03 122,-85 119.38,-84.28 116.68,-83.5 113.98,-82.68"/>
<polygon fill="#63b8ff" stroke="#63b8ff" points="114.88,-79.29 104.29,-79.6 112.76,-85.96 114.88,-79.29"/>
</a>
</g>
</g>
<!-- Node13 -->
<g id="Node000013" class="node">
<title>Node13</title>
<g id="a_Node000013"><a xlink:href="types_8ixx.html" target="_top" xlink:title="Core type definitions and tag types for the helios engine.">
<polygon fill="white" stroke="#666666" points="405,-79.5 305,-79.5 305,-60.5 405,-60.5 405,-79.5"/>
<text text-anchor="middle" x="355" y="-67.5" font-family="Helvetica,sans-Serif" font-size="10.00">helios.core.types</text>
</a>
</g>
</g>
<!-- Node12&#45;&gt;Node13 -->
<g id="edge13_Node000012_Node000013" class="edge">
<title>Node12&#45;&gt;Node13</title>
<g id="a_edge13_Node000012_Node000013"><a xlink:title=" ">
<path fill="none" stroke="#63b8ff" d="M354.22,-120.8C354.36,-111.7 354.55,-99.79 354.7,-89.9"/>
<polygon fill="#63b8ff" stroke="#63b8ff" points="358.21,-89.9 354.86,-79.84 351.21,-89.79 358.21,-89.9"/>
</a>
</g>
</g>
<!-- Node14 -->
<g id="Node000014" class="node">
<title>Node14</title>
<g id="a_Node000014"><a xlink:href="TypeIndexer_8ixx.html" target="_top" xlink:title="Utility for generating unique type indices at runtime.">
<polygon fill="white" stroke="#666666" points="287,-79.5 131,-79.5 131,-60.5 287,-60.5 287,-79.5"/>
<text text-anchor="middle" x="209" y="-67.5" font-family="Helvetica,sans-Serif" font-size="10.00">helios.core.data.TypeIndexer</text>
</a>
</g>
</g>
<!-- Node12&#45;&gt;Node14 -->
<g id="edge16_Node000012_Node000014" class="edge">
<title>Node12&#45;&gt;Node14</title>
<g id="a_edge16_Node000012_Node000014"><a xlink:title=" ">
<path fill="none" stroke="#63b8ff" d="M322.18,-120.95C296.97,-109.83 262.07,-94.42 237.71,-83.67"/>
<polygon fill="#63b8ff" stroke="#63b8ff" points="238.86,-80.35 228.3,-79.52 236.03,-86.76 238.86,-80.35"/>
</a>
</g>
</g>
<!-- Node13&#45;&gt;Node9 -->
<g id="edge15_Node000013_Node000009" class="edge">
<title>Node13&#45;&gt;Node9</title>
<g id="a_edge15_Node000013_Node000009"><a xlink:title=" ">
<path fill="none" stroke="#63b8ff" d="M361.05,-60.37C367.11,-51.73 376.59,-38.2 384.14,-27.42"/>
<polygon fill="#63b8ff" stroke="#63b8ff" points="387.05,-29.37 389.93,-19.17 381.32,-25.35 387.05,-29.37"/>
</a>
</g>
</g>
<!-- Node13&#45;&gt;Node11 -->
<g id="edge14_Node000013_Node000011" class="edge">
<title>Node13&#45;&gt;Node11</title>
<g id="a_edge14_Node000013_Node000011"><a xlink:title=" ">
<path fill="none" stroke="#63b8ff" d="M382.34,-60.49C415.57,-50.15 471.7,-32.69 508.05,-21.38"/>
<polygon fill="#63b8ff" stroke="#63b8ff" points="509.23,-24.67 517.74,-18.36 507.15,-17.99 509.23,-24.67"/>
</a>
</g>
</g>
<!-- Node15 -->
<g id="Node000015" class="node">
<title>Node15</title>
<g id="a_Node000015"><a xlink:title=" ">
<polygon fill="#e0e0e0" stroke="#999999" points="234,-19 184,-19 184,0 234,0 234,-19"/>
<text text-anchor="middle" x="209" y="-7" font-family="Helvetica,sans-Serif" font-size="10.00">atomic</text>
</a>
</g>
</g>
<!-- Node14&#45;&gt;Node15 -->
<g id="edge17_Node000014_Node000015" class="edge">
<title>Node14&#45;&gt;Node15</title>
<g id="a_edge17_Node000014_Node000015"><a xlink:title=" ">
<path fill="none" stroke="#63b8ff" d="M209,-60.37C209,-52.25 209,-39.81 209,-29.39"/>
<polygon fill="#63b8ff" stroke="#63b8ff" points="212.5,-29.17 209,-19.17 205.5,-29.17 212.5,-29.17"/>
</a>
</g>
</g>
</g>
</svg>
