<?xml version="1.0" encoding="UTF-8" standalone="no"?>
<!DOCTYPE svg PUBLIC "-//W3C//DTD SVG 1.1//EN"
 "http://www.w3.org/Graphics/SVG/1.1/DTD/svg11.dtd">
<!-- Generated by graphviz version 2.43.0 (0)
 -->
<!-- Title: SparseSet.ixx Pages: 1 -->
<svg width="652pt" height="258pt"
 viewBox="0.00 0.00 652.00 258.00" xmlns="http://www.w3.org/2000/svg" xmlns:xlink="http://www.w3.org/1999/xlink">
<g id="graph0" class="graph" transform="scale(1 1) rotate(0) translate(4 254)">
<title>SparseSet.ixx</title>
<!-- Node1 -->
<g id="Node000001" class="node">
<title>Node1</title>
<g id="a_Node000001"><a xlink:title="Generic sparse set data structure for efficient entity&#45;component storage.">
<polygon fill="#999999" stroke="#666666" points="173.5,-250 90.5,-250 90.5,-231 173.5,-231 173.5,-250"/>
<text text-anchor="middle" x="132" y="-238" font-family="Helvetica,sans-Serif" font-size="10.00">SparseSet.ixx</text>
</a>
</g>
</g>
<!-- Node2 -->
<g id="Node000002" class="node">
<title>Node2</title>
<g id="a_Node000002"><a xlink:title=" ">
<polygon fill="#e0e0e0" stroke="#999999" points="52,-195 0,-195 0,-176 52,-176 52,-195"/>
<text text-anchor="middle" x="26" y="-183" font-family="Helvetica,sans-Serif" font-size="10.00">cassert</text>
</a>
</g>
</g>
<!-- Node1&#45;&gt;Node2 -->
<g id="edge1_Node000001_Node000002" class="edge">
<title>Node1&#45;&gt;Node2</title>
<g id="a_edge1_Node000001_Node000002"><a xlink:title=" ">
<path fill="none" stroke="#63b8ff" d="M114.97,-230.98C98.07,-222.54 71.94,-209.47 52.36,-199.68"/>
<polygon fill="#63b8ff" stroke="#63b8ff" points="53.85,-196.51 43.34,-195.17 50.72,-202.77 53.85,-196.51"/>
</a>
</g>
</g>
<!-- Node3 -->
<g id="Node000003" class="node">
<title>Node3</title>
<g id="a_Node000003"><a xlink:title=" ">
<polygon fill="#e0e0e0" stroke="#999999" points="112.5,-74 47.5,-74 47.5,-55 112.5,-55 112.5,-74"/>
<text text-anchor="middle" x="80" y="-62" font-family="Helvetica,sans-Serif" font-size="10.00">functional</text>
</a>
</g>
</g>
<!-- Node1&#45;&gt;Node3 -->
<g id="edge2_Node000001_Node000003" class="edge">
<title>Node1&#45;&gt;Node3</title>
<g id="a_edge2_Node000001_Node000003"><a xlink:title=" ">
<path fill="none" stroke="#63b8ff" d="M123.45,-230.78C115.73,-222.36 104.73,-208.87 99,-195 83.65,-157.85 80.44,-110.2 79.92,-84.31"/>
<polygon fill="#63b8ff" stroke="#63b8ff" points="83.42,-84.03 79.84,-74.06 76.42,-84.08 83.42,-84.03"/>
</a>
</g>
</g>
<!-- Node4 -->
<g id="Node000004" class="node">
<title>Node4</title>
<g id="a_Node000004"><a xlink:title=" ">
<polygon fill="#e0e0e0" stroke="#999999" points="155.5,-195 108.5,-195 108.5,-176 155.5,-176 155.5,-195"/>
<text text-anchor="middle" x="132" y="-183" font-family="Helvetica,sans-Serif" font-size="10.00">vector</text>
</a>
</g>
</g>
<!-- Node1&#45;&gt;Node4 -->
<g id="edge3_Node000001_Node000004" class="edge">
<title>Node1&#45;&gt;Node4</title>
<g id="a_edge3_Node000001_Node000004"><a xlink:title=" ">
<path fill="none" stroke="#63b8ff" d="M132,-230.75C132,-223.8 132,-213.85 132,-205.13"/>
<polygon fill="#63b8ff" stroke="#63b8ff" points="135.5,-205.09 132,-195.09 128.5,-205.09 135.5,-205.09"/>
</a>
</g>
</g>
<!-- Node5 -->
<g id="Node000005" class="node">
<title>Node5</title>
<g id="a_Node000005"><a xlink:href="Traits_8ixx.html" target="_top" xlink:title="Compile&#45;time traits for ECS component lifecycle hooks.">
<polygon fill="white" stroke="#666666" points="304.5,-195 173.5,-195 173.5,-176 304.5,-176 304.5,-195"/>
<text text-anchor="middle" x="239" y="-183" font-family="Helvetica,sans-Serif" font-size="10.00">helios.engine.ecs.Traits</text>
</a>
</g>
</g>
<!-- Node1&#45;&gt;Node5 -->
<g id="edge4_Node000001_Node000005" class="edge">
<title>Node1&#45;&gt;Node5</title>
<g id="a_edge4_Node000001_Node000005"><a xlink:title=" ">
<path fill="none" stroke="#63b8ff" d="M149.19,-230.98C166.25,-222.54 192.63,-209.47 212.4,-199.68"/>
<polygon fill="#63b8ff" stroke="#63b8ff" points="214.09,-202.75 221.5,-195.17 210.98,-196.47 214.09,-202.75"/>
</a>
</g>
</g>
<!-- Node7 -->
<g id="Node000007" class="node">
<title>Node7</title>
<g id="a_Node000007"><a xlink:href="helios_2engine_2ecs_2types_2__module_8ixx.html" target="_top" xlink:title="Aggregate module for helios::engine::ecs::types.">
<polygon fill="white" stroke="#666666" points="471.5,-195 340.5,-195 340.5,-176 471.5,-176 471.5,-195"/>
<text text-anchor="middle" x="406" y="-183" font-family="Helvetica,sans-Serif" font-size="10.00">helios.engine.ecs.types</text>
</a>
</g>
</g>
<!-- Node1&#45;&gt;Node7 -->
<g id="edge6_Node000001_Node000007" class="edge">
<title>Node1&#45;&gt;Node7</title>
<g id="a_edge6_Node000001_Node000007"><a xlink:title=" ">
<path fill="none" stroke="#63b8ff" d="M173.61,-231.45C221.19,-222.25 299.24,-207.15 351.6,-197.02"/>
<polygon fill="#63b8ff" stroke="#63b8ff" points="352.56,-200.4 361.72,-195.07 351.24,-193.53 352.56,-200.4"/>
</a>
</g>
</g>
<!-- Node6 -->
<g id="Node000006" class="node">
<title>Node6</title>
<g id="a_Node000006"><a xlink:title=" ">
<polygon fill="#e0e0e0" stroke="#999999" points="188,-134.5 128,-134.5 128,-115.5 188,-115.5 188,-134.5"/>
<text text-anchor="middle" x="158" y="-122.5" font-family="Helvetica,sans-Serif" font-size="10.00">concepts</text>
</a>
</g>
</g>
<!-- Node5&#45;&gt;Node6 -->
<g id="edge5_Node000005_Node000006" class="edge">
<title>Node5&#45;&gt;Node6</title>
<g id="a_edge5_Node000005_Node000006"><a xlink:title=" ">
<path fill="none" stroke="#63b8ff" d="M227.05,-175.87C214.25,-166.62 193.7,-151.78 178.35,-140.69"/>
<polygon fill="#63b8ff" stroke="#63b8ff" points="180.16,-137.68 170,-134.67 176.06,-143.36 180.16,-137.68"/>
</a>
</g>
</g>
<!-- Node8 -->
<g id="Node000008" class="node">
<title>Node8</title>
<g id="a_Node000008"><a xlink:href="EntityTombstone_8ixx.html" target="_top" xlink:title="Sentinel value for invalid sparse array indices.">
<polygon fill="white" stroke="#666666" points="492,-140 358,-140 358,-110 492,-110 492,-140"/>
<text text-anchor="start" x="366" y="-128" font-family="Helvetica,sans-Serif" font-size="10.00">helios.engine.ecs.types.</text>
<text text-anchor="middle" x="425" y="-117" font-family="Helvetica,sans-Serif" font-size="10.00">EntityTombstone</text>
</a>
</g>
</g>
<!-- Node7&#45;&gt;Node8 -->
<g id="edge7_Node000007_Node000008" class="edge">
<title>Node7&#45;&gt;Node8</title>
<g id="a_edge7_Node000007_Node000008"><a xlink:title=" ">
<path fill="none" stroke="#63b8ff" d="M408.8,-175.87C411.05,-168.96 414.31,-158.93 417.31,-149.67"/>
<polygon fill="#63b8ff" stroke="#63b8ff" points="420.66,-150.71 420.42,-140.11 414,-148.54 420.66,-150.71"/>
</a>
</g>
</g>
<!-- Node10 -->
<g id="Node000010" class="node">
<title>Node10</title>
<g id="a_Node000010"><a xlink:href="EntityId_8ixx.html" target="_top" xlink:title="Type alias for entity identifiers within an EntityPool.">
<polygon fill="white" stroke="#666666" points="644,-140 510,-140 510,-110 644,-110 644,-140"/>
<text text-anchor="start" x="518" y="-128" font-family="Helvetica,sans-Serif" font-size="10.00">helios.engine.ecs.types.</text>
<text text-anchor="middle" x="577" y="-117" font-family="Helvetica,sans-Serif" font-size="10.00">EntityId</text>
</a>
</g>
</g>
<!-- Node7&#45;&gt;Node10 -->
<g id="edge9_Node000007_Node000010" class="edge">
<title>Node7&#45;&gt;Node10</title>
<g id="a_edge9_Node000007_Node000010"><a xlink:title=" ">
<path fill="none" stroke="#63b8ff" d="M430.86,-175.99C455.8,-167.46 494.9,-154.09 526.39,-143.32"/>
<polygon fill="#63b8ff" stroke="#63b8ff" points="527.56,-146.61 535.89,-140.06 525.29,-139.99 527.56,-146.61"/>
</a>
</g>
</g>
<!-- Node12 -->
<g id="Node000012" class="node">
<title>Node12</title>
<g id="a_Node000012"><a xlink:href="ComponentTypeId_8ixx.html" target="_top" xlink:title="Compile&#45;time type identifier for component types.">
<polygon fill="white" stroke="#666666" points="340,-140 206,-140 206,-110 340,-110 340,-140"/>
<text text-anchor="start" x="214" y="-128" font-family="Helvetica,sans-Serif" font-size="10.00">helios.engine.ecs.types.</text>
<text text-anchor="middle" x="273" y="-117" font-family="Helvetica,sans-Serif" font-size="10.00">ComponentTypeId</text>
</a>
</g>
</g>
<!-- Node7&#45;&gt;Node12 -->
<g id="edge11_Node000007_Node000012" class="edge">
<title>Node7&#45;&gt;Node12</title>
<g id="a_edge11_Node000007_Node000012"><a xlink:title=" ">
<path fill="none" stroke="#63b8ff" d="M386.66,-175.99C367.77,-167.68 338.42,-154.78 314.28,-144.16"/>
<polygon fill="#63b8ff" stroke="#63b8ff" points="315.54,-140.89 304.98,-140.06 312.72,-147.29 315.54,-140.89"/>
</a>
</g>
</g>
<!-- Node9 -->
<g id="Node000009" class="node">
<title>Node9</title>
<g id="a_Node000009"><a xlink:title=" ">
<polygon fill="#e0e0e0" stroke="#999999" points="467,-74 423,-74 423,-55 467,-55 467,-74"/>
<text text-anchor="middle" x="445" y="-62" font-family="Helvetica,sans-Serif" font-size="10.00">limits</text>
</a>
</g>
</g>
<!-- Node8&#45;&gt;Node9 -->
<g id="edge8_Node000008_Node000009" class="edge">
<title>Node8&#45;&gt;Node9</title>
<g id="a_edge8_Node000008_Node000009"><a xlink:title=" ">
<path fill="none" stroke="#63b8ff" d="M429.84,-109.84C432.51,-102.04 435.85,-92.27 438.71,-83.89"/>
<polygon fill="#63b8ff" stroke="#63b8ff" points="442.08,-84.86 442,-74.27 435.46,-82.6 442.08,-84.86"/>
</a>
</g>
</g>
<!-- Node11 -->
<g id="Node000011" class="node">
<title>Node11</title>
<g id="a_Node000011"><a xlink:title=" ">
<polygon fill="#e0e0e0" stroke="#999999" points="602,-74 552,-74 552,-55 602,-55 602,-74"/>
<text text-anchor="middle" x="577" y="-62" font-family="Helvetica,sans-Serif" font-size="10.00">cstdint</text>
</a>
</g>
</g>
<!-- Node10&#45;&gt;Node11 -->
<g id="edge10_Node000010_Node000011" class="edge">
<title>Node10&#45;&gt;Node11</title>
<g id="a_edge10_Node000010_Node000011"><a xlink:title=" ">
<path fill="none" stroke="#63b8ff" d="M577,-109.84C577,-102.21 577,-92.7 577,-84.45"/>
<polygon fill="#63b8ff" stroke="#63b8ff" points="580.5,-84.27 577,-74.27 573.5,-84.27 580.5,-84.27"/>
</a>
</g>
</g>
<!-- Node12&#45;&gt;Node3 -->
<g id="edge12_Node000012_Node000003" class="edge">
<title>Node12&#45;&gt;Node3</title>
<g id="a_edge12_Node000012_Node000003"><a xlink:title=" ">
<path fill="none" stroke="#63b8ff" d="M226.77,-109.99C193.46,-99.89 149.07,-86.44 117.86,-76.98"/>
<polygon fill="#63b8ff" stroke="#63b8ff" points="118.8,-73.6 108.22,-74.05 116.77,-80.3 118.8,-73.6"/>
</a>
</g>
</g>
<!-- Node13 -->
<g id="Node000013" class="node">
<title>Node13</title>
<g id="a_Node000013"><a xlink:href="types_8ixx.html" target="_top" xlink:title="Core type definitions and tag types for the helios engine.">
<polygon fill="white" stroke="#666666" points="405,-74 305,-74 305,-55 405,-55 405,-74"/>
<text text-anchor="middle" x="355" y="-62" font-family="Helvetica,sans-Serif" font-size="10.00">helios.core.types</text>
</a>
</g>
</g>
<!-- Node12&#45;&gt;Node13 -->
<g id="edge13_Node000012_Node000013" class="edge">
<title>Node12&#45;&gt;Node13</title>
<g id="a_edge13_Node000012_Node000013"><a xlink:title=" ">
<path fill="none" stroke="#63b8ff" d="M292.85,-109.84C305.48,-100.83 321.8,-89.18 334.55,-80.09"/>
<polygon fill="#63b8ff" stroke="#63b8ff" points="336.6,-82.92 342.71,-74.27 332.54,-77.22 336.6,-82.92"/>
</a>
</g>
</g>
<!-- Node14 -->
<g id="Node000014" class="node">
<title>Node14</title>
<g id="a_Node000014"><a xlink:href="TypeIndexer_8ixx.html" target="_top" xlink:title="Utility for generating unique type indices at runtime.">
<polygon fill="white" stroke="#666666" points="287,-74 131,-74 131,-55 287,-55 287,-74"/>
<text text-anchor="middle" x="209" y="-62" font-family="Helvetica,sans-Serif" font-size="10.00">helios.core.data.TypeIndexer</text>
</a>
</g>
</g>
<!-- Node12&#45;&gt;Node14 -->
<g id="edge14_Node000012_Node000014" class="edge">
<title>Node12&#45;&gt;Node14</title>
<g id="a_edge14_Node000012_Node000014"><a xlink:title=" ">
<path fill="none" stroke="#63b8ff" d="M257.51,-109.84C248.03,-101.17 235.89,-90.08 226.12,-81.15"/>
<polygon fill="#63b8ff" stroke="#63b8ff" points="228.33,-78.43 218.59,-74.27 223.61,-83.6 228.33,-78.43"/>
</a>
</g>
</g>
<!-- Node15 -->
<g id="Node000015" class="node">
<title>Node15</title>
<g id="a_Node000015"><a xlink:title=" ">
<polygon fill="#e0e0e0" stroke="#999999" points="234,-19 184,-19 184,0 234,0 234,-19"/>
<text text-anchor="middle" x="209" y="-7" font-family="Helvetica,sans-Serif" font-size="10.00">atomic</text>
</a>
</g>
</g>
<!-- Node14&#45;&gt;Node15 -->
<g id="edge15_Node000014_Node000015" class="edge">
<title>Node14&#45;&gt;Node15</title>
<g id="a_edge15_Node000014_Node000015"><a xlink:title=" ">
<path fill="none" stroke="#63b8ff" d="M209,-54.75C209,-47.8 209,-37.85 209,-29.13"/>
<polygon fill="#63b8ff" stroke="#63b8ff" points="212.5,-29.09 209,-19.09 205.5,-29.09 212.5,-29.09"/>
</a>
</g>
</g>
</g>
</svg>
