<?xml version="1.0" encoding="UTF-8" standalone="no"?>
<!DOCTYPE svg PUBLIC "-//W3C//DTD SVG 1.1//EN"
 "http://www.w3.org/Graphics/SVG/1.1/DTD/svg11.dtd">
<!-- Generated by graphviz version 2.43.0 (0)
 -->
<!-- Title: EntityHandle.ixx Pages: 1 -->
<svg width="664pt" height="269pt"
 viewBox="0.00 0.00 663.50 269.00" xmlns="http://www.w3.org/2000/svg" xmlns:xlink="http://www.w3.org/1999/xlink">
<g id="graph0" class="graph" transform="scale(1 1) rotate(0) translate(4 265)">
<title>EntityHandle.ixx</title>
<!-- Node1 -->
<g id="Node000001" class="node">
<title>Node1</title>
<g id="a_Node000001"><a xlink:title="Versioned handle for referencing entities in an EntityPool.">
<polygon fill="#999999" stroke="#666666" points="238.5,-261 140.5,-261 140.5,-242 238.5,-242 238.5,-261"/>
<text text-anchor="middle" x="189.5" y="-249" font-family="Helvetica,sans-Serif" font-size="10.00">EntityHandle.ixx</text>
</a>
</g>
</g>
<!-- Node2 -->
<g id="Node000002" class="node">
<title>Node2</title>
<g id="a_Node000002"><a xlink:title=" ">
<polygon fill="#e0e0e0" stroke="#999999" points="226,-74 161,-74 161,-55 226,-55 226,-74"/>
<text text-anchor="middle" x="193.5" y="-62" font-family="Helvetica,sans-Serif" font-size="10.00">functional</text>
</a>
</g>
</g>
<!-- Node1&#45;&gt;Node2 -->
<g id="edge1_Node000001_Node000002" class="edge">
<title>Node1&#45;&gt;Node2</title>
<g id="a_edge1_Node000001_Node000002"><a xlink:title=" ">
<path fill="none" stroke="#63b8ff" d="M189.69,-241.58C190.31,-213.07 192.24,-123.74 193.09,-84.41"/>
<polygon fill="#63b8ff" stroke="#63b8ff" points="196.59,-84.41 193.31,-74.33 189.59,-84.26 196.59,-84.41"/>
</a>
</g>
</g>
<!-- Node3 -->
<g id="Node000003" class="node">
<title>Node3</title>
<g id="a_Node000003"><a xlink:href="VersionId_8ixx.html" target="_top" xlink:title="Type alias for entity version numbers used in handle validation.">
<polygon fill="white" stroke="#666666" points="161,-206 0,-206 0,-176 161,-176 161,-206"/>
<text text-anchor="start" x="8" y="-194" font-family="Helvetica,sans-Serif" font-size="10.00">helios.engine.common.types.</text>
<text text-anchor="middle" x="80.5" y="-183" font-family="Helvetica,sans-Serif" font-size="10.00">VersionId</text>
</a>
</g>
</g>
<!-- Node1&#45;&gt;Node3 -->
<g id="edge2_Node000001_Node000003" class="edge">
<title>Node1&#45;&gt;Node3</title>
<g id="a_edge2_Node000001_Node000003"><a xlink:title=" ">
<path fill="none" stroke="#63b8ff" d="M173.42,-241.87C158.28,-233.75 135.11,-221.31 115.7,-210.89"/>
<polygon fill="#63b8ff" stroke="#63b8ff" points="117.27,-207.76 106.8,-206.11 113.96,-213.93 117.27,-207.76"/>
</a>
</g>
</g>
<!-- Node5 -->
<g id="Node000005" class="node">
<title>Node5</title>
<g id="a_Node000005"><a xlink:href="helios_2engine_2ecs_2types_2__module_8ixx.html" target="_top" xlink:title="Aggregate module for helios::engine::ecs::types.">
<polygon fill="white" stroke="#666666" points="426,-200.5 295,-200.5 295,-181.5 426,-181.5 426,-200.5"/>
<text text-anchor="middle" x="360.5" y="-188.5" font-family="Helvetica,sans-Serif" font-size="10.00">helios.engine.ecs.types</text>
</a>
</g>
</g>
<!-- Node1&#45;&gt;Node5 -->
<g id="edge4_Node000001_Node000005" class="edge">
<title>Node1&#45;&gt;Node5</title>
<g id="a_edge4_Node000001_Node000005"><a xlink:title=" ">
<path fill="none" stroke="#63b8ff" d="M214.36,-241.99C243.75,-231.94 292.81,-215.16 325.89,-203.84"/>
<polygon fill="#63b8ff" stroke="#63b8ff" points="327.28,-207.07 335.61,-200.52 325.01,-200.44 327.28,-207.07"/>
</a>
</g>
</g>
<!-- Node4 -->
<g id="Node000004" class="node">
<title>Node4</title>
<g id="a_Node000004"><a xlink:title=" ">
<polygon fill="#e0e0e0" stroke="#999999" points="283.5,-19 233.5,-19 233.5,0 283.5,0 283.5,-19"/>
<text text-anchor="middle" x="258.5" y="-7" font-family="Helvetica,sans-Serif" font-size="10.00">cstdint</text>
</a>
</g>
</g>
<!-- Node3&#45;&gt;Node4 -->
<g id="edge3_Node000003_Node000004" class="edge">
<title>Node3&#45;&gt;Node4</title>
<g id="a_edge3_Node000003_Node000004"><a xlink:title=" ">
<path fill="none" stroke="#63b8ff" d="M84.43,-175.76C92.58,-148.7 113.77,-89.48 151.5,-55 171.72,-36.52 200.7,-25.11 223.4,-18.48"/>
<polygon fill="#63b8ff" stroke="#63b8ff" points="224.61,-21.78 233.33,-15.76 222.76,-15.02 224.61,-21.78"/>
</a>
</g>
</g>
<!-- Node6 -->
<g id="Node000006" class="node">
<title>Node6</title>
<g id="a_Node000006"><a xlink:href="EntityTombstone_8ixx.html" target="_top" xlink:title="Sentinel value for invalid sparse array indices.">
<polygon fill="white" stroke="#666666" points="655.5,-140 521.5,-140 521.5,-110 655.5,-110 655.5,-140"/>
<text text-anchor="start" x="529.5" y="-128" font-family="Helvetica,sans-Serif" font-size="10.00">helios.engine.ecs.types.</text>
<text text-anchor="middle" x="588.5" y="-117" font-family="Helvetica,sans-Serif" font-size="10.00">EntityTombstone</text>
</a>
</g>
</g>
<!-- Node5&#45;&gt;Node6 -->
<g id="edge5_Node000005_Node000006" class="edge">
<title>Node5&#45;&gt;Node6</title>
<g id="a_edge5_Node000005_Node000006"><a xlink:title=" ">
<path fill="none" stroke="#63b8ff" d="M391.25,-181.37C426.28,-171.54 484.37,-155.23 528.47,-142.85"/>
<polygon fill="#63b8ff" stroke="#63b8ff" points="529.53,-146.19 538.21,-140.12 527.64,-139.45 529.53,-146.19"/>
</a>
</g>
</g>
<!-- Node8 -->
<g id="Node000008" class="node">
<title>Node8</title>
<g id="a_Node000008"><a xlink:href="EntityId_8ixx.html" target="_top" xlink:title="Type alias for entity identifiers within an EntityPool.">
<polygon fill="white" stroke="#666666" points="351.5,-140 217.5,-140 217.5,-110 351.5,-110 351.5,-140"/>
<text text-anchor="start" x="225.5" y="-128" font-family="Helvetica,sans-Serif" font-size="10.00">helios.engine.ecs.types.</text>
<text text-anchor="middle" x="284.5" y="-117" font-family="Helvetica,sans-Serif" font-size="10.00">EntityId</text>
</a>
</g>
</g>
<!-- Node5&#45;&gt;Node8 -->
<g id="edge7_Node000005_Node000008" class="edge">
<title>Node5&#45;&gt;Node8</title>
<g id="a_edge7_Node000005_Node000008"><a xlink:title=" ">
<path fill="none" stroke="#63b8ff" d="M350.25,-181.37C339.75,-172.53 323.04,-158.45 309.09,-146.71"/>
<polygon fill="#63b8ff" stroke="#63b8ff" points="311.17,-143.88 301.26,-140.12 306.66,-149.23 311.17,-143.88"/>
</a>
</g>
</g>
<!-- Node9 -->
<g id="Node000009" class="node">
<title>Node9</title>
<g id="a_Node000009"><a xlink:href="ComponentTypeId_8ixx.html" target="_top" xlink:title="Compile&#45;time type identifier for component types.">
<polygon fill="white" stroke="#666666" points="503.5,-140 369.5,-140 369.5,-110 503.5,-110 503.5,-140"/>
<text text-anchor="start" x="377.5" y="-128" font-family="Helvetica,sans-Serif" font-size="10.00">helios.engine.ecs.types.</text>
<text text-anchor="middle" x="436.5" y="-117" font-family="Helvetica,sans-Serif" font-size="10.00">ComponentTypeId</text>
</a>
</g>
</g>
<!-- Node5&#45;&gt;Node9 -->
<g id="edge9_Node000005_Node000009" class="edge">
<title>Node5&#45;&gt;Node9</title>
<g id="a_edge9_Node000005_Node000009"><a xlink:title=" ">
<path fill="none" stroke="#63b8ff" d="M370.75,-181.37C381.25,-172.53 397.96,-158.45 411.91,-146.71"/>
<polygon fill="#63b8ff" stroke="#63b8ff" points="414.34,-149.23 419.74,-140.12 409.83,-143.88 414.34,-149.23"/>
</a>
</g>
</g>
<!-- Node7 -->
<g id="Node000007" class="node">
<title>Node7</title>
<g id="a_Node000007"><a xlink:title=" ">
<polygon fill="#e0e0e0" stroke="#999999" points="589.5,-19 545.5,-19 545.5,0 589.5,0 589.5,-19"/>
<text text-anchor="middle" x="567.5" y="-7" font-family="Helvetica,sans-Serif" font-size="10.00">limits</text>
</a>
</g>
</g>
<!-- Node6&#45;&gt;Node7 -->
<g id="edge6_Node000006_Node000007" class="edge">
<title>Node6&#45;&gt;Node7</title>
<g id="a_edge6_Node000006_Node000007"><a xlink:title=" ">
<path fill="none" stroke="#63b8ff" d="M585.84,-109.63C582.06,-89.21 575.14,-51.81 570.97,-29.24"/>
<polygon fill="#63b8ff" stroke="#63b8ff" points="574.38,-28.43 569.12,-19.23 567.49,-29.7 574.38,-28.43"/>
</a>
</g>
</g>
<!-- Node8&#45;&gt;Node4 -->
<g id="edge8_Node000008_Node000004" class="edge">
<title>Node8&#45;&gt;Node4</title>
<g id="a_edge8_Node000008_Node000004"><a xlink:title=" ">
<path fill="none" stroke="#63b8ff" d="M281.21,-109.63C276.53,-89.21 267.96,-51.81 262.79,-29.24"/>
<polygon fill="#63b8ff" stroke="#63b8ff" points="266.14,-28.2 260.5,-19.23 259.32,-29.76 266.14,-28.2"/>
</a>
</g>
</g>
<!-- Node9&#45;&gt;Node2 -->
<g id="edge10_Node000009_Node000002" class="edge">
<title>Node9&#45;&gt;Node2</title>
<g id="a_edge10_Node000009_Node000002"><a xlink:title=" ">
<path fill="none" stroke="#63b8ff" d="M378.3,-109.99C334.51,-99.45 275.5,-85.24 236.07,-75.75"/>
<polygon fill="#63b8ff" stroke="#63b8ff" points="236.78,-72.32 226.23,-73.38 235.14,-79.12 236.78,-72.32"/>
</a>
</g>
</g>
<!-- Node10 -->
<g id="Node000010" class="node">
<title>Node10</title>
<g id="a_Node000010"><a xlink:href="types_8ixx.html" target="_top" xlink:title="Core type definitions and tag types for the helios engine.">
<polygon fill="white" stroke="#666666" points="386.5,-74 286.5,-74 286.5,-55 386.5,-55 386.5,-74"/>
<text text-anchor="middle" x="336.5" y="-62" font-family="Helvetica,sans-Serif" font-size="10.00">helios.core.types</text>
</a>
</g>
</g>
<!-- Node9&#45;&gt;Node10 -->
<g id="edge11_Node000009_Node000010" class="edge">
<title>Node9&#45;&gt;Node10</title>
<g id="a_edge11_Node000009_Node000010"><a xlink:title=" ">
<path fill="none" stroke="#63b8ff" d="M412.55,-109.99C396.61,-100.66 375.77,-88.47 359.94,-79.21"/>
<polygon fill="#63b8ff" stroke="#63b8ff" points="361.67,-76.17 351.27,-74.14 358.13,-82.21 361.67,-76.17"/>
</a>
</g>
</g>
<!-- Node11 -->
<g id="Node000011" class="node">
<title>Node11</title>
<g id="a_Node000011"><a xlink:href="TypeIndexer_8ixx.html" target="_top" xlink:title="Utility for generating unique type indices at runtime.">
<polygon fill="white" stroke="#666666" points="560.5,-74 404.5,-74 404.5,-55 560.5,-55 560.5,-74"/>
<text text-anchor="middle" x="482.5" y="-62" font-family="Helvetica,sans-Serif" font-size="10.00">helios.core.data.TypeIndexer</text>
</a>
</g>
</g>
<!-- Node9&#45;&gt;Node11 -->
<g id="edge14_Node000009_Node000011" class="edge">
<title>Node9&#45;&gt;Node11</title>
<g id="a_edge14_Node000009_Node000011"><a xlink:title=" ">
<path fill="none" stroke="#63b8ff" d="M447.64,-109.84C454.18,-101.52 462.48,-90.96 469.34,-82.23"/>
<polygon fill="#63b8ff" stroke="#63b8ff" points="472.18,-84.29 475.61,-74.27 466.67,-79.96 472.18,-84.29"/>
</a>
</g>
</g>
<!-- Node10&#45;&gt;Node4 -->
<g id="edge12_Node000010_Node000004" class="edge">
<title>Node10&#45;&gt;Node4</title>
<g id="a_edge12_Node000010_Node000004"><a xlink:title=" ">
<path fill="none" stroke="#63b8ff" d="M323.97,-54.98C312.1,-46.92 294.04,-34.65 279.89,-25.03"/>
<polygon fill="#63b8ff" stroke="#63b8ff" points="281.5,-21.9 271.26,-19.17 277.56,-27.69 281.5,-21.9"/>
</a>
</g>
</g>
<!-- Node10&#45;&gt;Node7 -->
<g id="edge13_Node000010_Node000007" class="edge">
<title>Node10&#45;&gt;Node7</title>
<g id="a_edge13_Node000010_Node000007"><a xlink:title=" ">
<path fill="none" stroke="#63b8ff" d="M373.61,-54.98C418.5,-44.69 493.3,-27.52 535.68,-17.8"/>
<polygon fill="#63b8ff" stroke="#63b8ff" points="536.5,-21.2 545.46,-15.56 534.93,-14.38 536.5,-21.2"/>
</a>
</g>
</g>
<!-- Node12 -->
<g id="Node000012" class="node">
<title>Node12</title>
<g id="a_Node000012"><a xlink:title=" ">
<polygon fill="#e0e0e0" stroke="#999999" points="507.5,-19 457.5,-19 457.5,0 507.5,0 507.5,-19"/>
<text text-anchor="middle" x="482.5" y="-7" font-family="Helvetica,sans-Serif" font-size="10.00">atomic</text>
</a>
</g>
</g>
<!-- Node11&#45;&gt;Node12 -->
<g id="edge15_Node000011_Node000012" class="edge">
<title>Node11&#45;&gt;Node12</title>
<g id="a_edge15_Node000011_Node000012"><a xlink:title=" ">
<path fill="none" stroke="#63b8ff" d="M482.5,-54.75C482.5,-47.8 482.5,-37.85 482.5,-29.13"/>
<polygon fill="#63b8ff" stroke="#63b8ff" points="486,-29.09 482.5,-19.09 479,-29.09 486,-29.09"/>
</a>
</g>
</g>
</g>
</svg>
