<?xml version="1.0" encoding="UTF-8" standalone="no"?>
<!DOCTYPE svg PUBLIC "-//W3C//DTD SVG 1.1//EN"
 "http://www.w3.org/Graphics/SVG/1.1/DTD/svg11.dtd">
<!-- Generated by graphviz version 2.43.0 (0)
 -->
<!-- Title: include/helios/event/_module.ixx Pages: 1 -->
<svg width="762pt" height="368pt"
 viewBox="0.00 0.00 762.06 368.00" xmlns="http://www.w3.org/2000/svg" xmlns:xlink="http://www.w3.org/1999/xlink">
<g id="graph0" class="graph" transform="scale(1 1) rotate(0) translate(4 364)">
<title>include/helios/event/_module.ixx</title>
<!-- Node1 -->
<g id="Node000001" class="node">
<title>Node1</title>
<g id="a_Node000001"><a xlink:title="Event system module exports.">
<polygon fill="#999999" stroke="#666666" points="355.56,-360 240.56,-360 240.56,-330 355.56,-330 355.56,-360"/>
<text text-anchor="start" x="248.56" y="-348" font-family="Helvetica,sans-Serif" font-size="10.00">include/helios/event</text>
<text text-anchor="middle" x="298.06" y="-337" font-family="Helvetica,sans-Serif" font-size="10.00">/_module.ixx</text>
</a>
</g>
</g>
<!-- Node2 -->
<g id="Node000002" class="node">
<title>Node2</title>
<g id="a_Node000002"><a xlink:href="Event_8ixx.html" target="_top" xlink:title="Base class for events in the helios framework.">
<polygon fill="white" stroke="#666666" points="295.56,-129 188.56,-129 188.56,-110 295.56,-110 295.56,-129"/>
<text text-anchor="middle" x="242.06" y="-117" font-family="Helvetica,sans-Serif" font-size="10.00">helios.event.Event</text>
</a>
</g>
</g>
<!-- Node1&#45;&gt;Node2 -->
<g id="edge1_Node000001_Node000002" class="edge">
<title>Node1&#45;&gt;Node2</title>
<g id="a_edge1_Node000001_Node000002"><a xlink:title=" ">
<path fill="none" stroke="#63b8ff" d="M240.34,-341.37C172.76,-334.84 63.53,-312.73 12.06,-239 3.61,-226.91 -9.9,-192.34 13.06,-165 33.86,-140.23 117.88,-129.04 178.12,-124.13"/>
<polygon fill="#63b8ff" stroke="#63b8ff" points="178.62,-127.61 188.32,-123.34 178.07,-120.63 178.62,-127.61"/>
</a>
</g>
</g>
<!-- Node7 -->
<g id="Node000007" class="node">
<title>Node7</title>
<g id="a_Node000007"><a xlink:href="Dispatcher_8ixx.html" target="_top" xlink:title="Dispatches events to registered callbacks.">
<polygon fill="white" stroke="#666666" points="754.06,-184 622.06,-184 622.06,-165 754.06,-165 754.06,-184"/>
<text text-anchor="middle" x="688.06" y="-172" font-family="Helvetica,sans-Serif" font-size="10.00">helios.event.Dispatcher</text>
</a>
</g>
</g>
<!-- Node1&#45;&gt;Node7 -->
<g id="edge6_Node000001_Node000007" class="edge">
<title>Node1&#45;&gt;Node7</title>
<g id="a_edge6_Node000001_Node000007"><a xlink:title=" ">
<path fill="none" stroke="#63b8ff" d="M355.79,-338.88C429.11,-329.79 556.38,-305.05 642.06,-239 658.02,-226.69 670.91,-207.38 678.93,-193.28"/>
<polygon fill="#63b8ff" stroke="#63b8ff" points="682.22,-194.58 683.9,-184.11 676.06,-191.24 682.22,-194.58"/>
</a>
</g>
</g>
<!-- Node10 -->
<g id="Node000010" class="node">
<title>Node10</title>
<g id="a_Node000010"><a xlink:href="DequeEventQueue_8ixx.html" target="_top" xlink:title="Double&#45;ended event queue implementation.">
<polygon fill="white" stroke="#666666" points="191.06,-239 21.06,-239 21.06,-220 191.06,-220 191.06,-239"/>
<text text-anchor="middle" x="106.06" y="-227" font-family="Helvetica,sans-Serif" font-size="10.00">helios.event.DequeEventQueue</text>
</a>
</g>
</g>
<!-- Node1&#45;&gt;Node10 -->
<g id="edge11_Node000001_Node000010" class="edge">
<title>Node1&#45;&gt;Node10</title>
<g id="a_edge11_Node000001_Node000010"><a xlink:title=" ">
<path fill="none" stroke="#63b8ff" d="M270.49,-329.89C251.82,-320.16 226.7,-306.74 205.06,-294 177.71,-277.91 147.09,-257.96 127.24,-244.76"/>
<polygon fill="#63b8ff" stroke="#63b8ff" points="128.94,-241.68 118.68,-239.04 125.05,-247.5 128.94,-241.68"/>
</a>
</g>
</g>
<!-- Node12 -->
<g id="Node000012" class="node">
<title>Node12</title>
<g id="a_Node000012"><a xlink:href="EventQueue_8ixx.html" target="_top" xlink:title="Thread&#45;safe queue for Event objects.">
<polygon fill="white" stroke="#666666" points="349.56,-184 210.56,-184 210.56,-165 349.56,-165 349.56,-184"/>
<text text-anchor="middle" x="280.06" y="-172" font-family="Helvetica,sans-Serif" font-size="10.00">helios.event.EventQueue</text>
</a>
</g>
</g>
<!-- Node1&#45;&gt;Node12 -->
<g id="edge20_Node000001_Node000012" class="edge">
<title>Node1&#45;&gt;Node12</title>
<g id="a_edge20_Node000001_Node000012"><a xlink:title=" ">
<path fill="none" stroke="#63b8ff" d="M291.9,-329.87C287.95,-320.03 283.17,-306.47 281.06,-294 275.14,-259.14 276.72,-217.67 278.39,-194.19"/>
<polygon fill="#63b8ff" stroke="#63b8ff" points="281.88,-194.45 279.19,-184.21 274.91,-193.9 281.88,-194.45"/>
</a>
</g>
</g>
<!-- Node13 -->
<g id="Node000013" class="node">
<title>Node13</title>
<g id="a_Node000013"><a xlink:href="EventManager_8ixx.html" target="_top" xlink:title="High&#45;level event manager dispatching events to listeners.">
<polygon fill="white" stroke="#666666" points="605.06,-239 455.06,-239 455.06,-220 605.06,-220 605.06,-239"/>
<text text-anchor="middle" x="530.06" y="-227" font-family="Helvetica,sans-Serif" font-size="10.00">helios.event.EventManager</text>
</a>
</g>
</g>
<!-- Node1&#45;&gt;Node13 -->
<g id="edge21_Node000001_Node000013" class="edge">
<title>Node1&#45;&gt;Node13</title>
<g id="a_edge21_Node000001_Node000013"><a xlink:title=" ">
<path fill="none" stroke="#63b8ff" d="M355.73,-336.39C392.14,-329.57 438.95,-316.95 475.06,-294 493.64,-282.19 509.43,-262.23 519.26,-247.84"/>
<polygon fill="#63b8ff" stroke="#63b8ff" points="522.28,-249.61 524.83,-239.33 516.42,-245.78 522.28,-249.61"/>
</a>
</g>
</g>
<!-- Node15 -->
<g id="Node000015" class="node">
<title>Node15</title>
<g id="a_Node000015"><a xlink:href="BasicEventManager_8ixx.html" target="_top" xlink:title="Default implementation of an EventManager.">
<polygon fill="white" stroke="#666666" points="466.06,-294 290.06,-294 290.06,-275 466.06,-275 466.06,-294"/>
<text text-anchor="middle" x="378.06" y="-282" font-family="Helvetica,sans-Serif" font-size="10.00">helios.event.BasicEventManager</text>
</a>
</g>
</g>
<!-- Node1&#45;&gt;Node15 -->
<g id="edge28_Node000001_Node000015" class="edge">
<title>Node1&#45;&gt;Node15</title>
<g id="a_edge28_Node000001_Node000015"><a xlink:title=" ">
<path fill="none" stroke="#63b8ff" d="M317.42,-329.84C329.63,-320.91 345.36,-309.41 357.74,-300.35"/>
<polygon fill="#63b8ff" stroke="#63b8ff" points="360.06,-302.99 366.07,-294.27 355.93,-297.34 360.06,-302.99"/>
</a>
</g>
</g>
<!-- Node3 -->
<g id="Node000003" class="node">
<title>Node3</title>
<g id="a_Node000003"><a xlink:title=" ">
<polygon fill="#e0e0e0" stroke="#999999" points="426.06,-74 368.06,-74 368.06,-55 426.06,-55 426.06,-74"/>
<text text-anchor="middle" x="397.06" y="-62" font-family="Helvetica,sans-Serif" font-size="10.00">memory</text>
</a>
</g>
</g>
<!-- Node2&#45;&gt;Node3 -->
<g id="edge2_Node000002_Node000003" class="edge">
<title>Node2&#45;&gt;Node3</title>
<g id="a_edge2_Node000002_Node000003"><a xlink:title=" ">
<path fill="none" stroke="#63b8ff" d="M266.96,-109.98C292.76,-101.16 333.28,-87.31 362.24,-77.41"/>
<polygon fill="#63b8ff" stroke="#63b8ff" points="363.63,-80.63 371.96,-74.08 361.36,-74.01 363.63,-80.63"/>
</a>
</g>
</g>
<!-- Node4 -->
<g id="Node000004" class="node">
<title>Node4</title>
<g id="a_Node000004"><a xlink:href="Guid_8ixx.html" target="_top" xlink:title="Lightweight GUID (globally unique identifier) implementation.">
<polygon fill="white" stroke="#666666" points="287.06,-74 197.06,-74 197.06,-55 287.06,-55 287.06,-74"/>
<text text-anchor="middle" x="242.06" y="-62" font-family="Helvetica,sans-Serif" font-size="10.00">helios.util.Guid</text>
</a>
</g>
</g>
<!-- Node2&#45;&gt;Node4 -->
<g id="edge3_Node000002_Node000004" class="edge">
<title>Node2&#45;&gt;Node4</title>
<g id="a_edge3_Node000002_Node000004"><a xlink:title=" ">
<path fill="none" stroke="#63b8ff" d="M242.06,-109.75C242.06,-102.8 242.06,-92.85 242.06,-84.13"/>
<polygon fill="#63b8ff" stroke="#63b8ff" points="245.56,-84.09 242.06,-74.09 238.56,-84.09 245.56,-84.09"/>
</a>
</g>
</g>
<!-- Node5 -->
<g id="Node000005" class="node">
<title>Node5</title>
<g id="a_Node000005"><a xlink:title=" ">
<polygon fill="#e0e0e0" stroke="#999999" points="233.06,-19 183.06,-19 183.06,0 233.06,0 233.06,-19"/>
<text text-anchor="middle" x="208.06" y="-7" font-family="Helvetica,sans-Serif" font-size="10.00">atomic</text>
</a>
</g>
</g>
<!-- Node4&#45;&gt;Node5 -->
<g id="edge4_Node000004_Node000005" class="edge">
<title>Node4&#45;&gt;Node5</title>
<g id="a_edge4_Node000004_Node000005"><a xlink:title=" ">
<path fill="none" stroke="#63b8ff" d="M236.44,-54.75C231.74,-47.42 224.88,-36.73 219.09,-27.7"/>
<polygon fill="#63b8ff" stroke="#63b8ff" points="221.91,-25.62 213.57,-19.09 216.02,-29.4 221.91,-25.62"/>
</a>
</g>
</g>
<!-- Node6 -->
<g id="Node000006" class="node">
<title>Node6</title>
<g id="a_Node000006"><a xlink:title=" ">
<polygon fill="#e0e0e0" stroke="#999999" points="301.06,-19 251.06,-19 251.06,0 301.06,0 301.06,-19"/>
<text text-anchor="middle" x="276.06" y="-7" font-family="Helvetica,sans-Serif" font-size="10.00">cstdint</text>
</a>
</g>
</g>
<!-- Node4&#45;&gt;Node6 -->
<g id="edge5_Node000004_Node000006" class="edge">
<title>Node4&#45;&gt;Node6</title>
<g id="a_edge5_Node000004_Node000006"><a xlink:title=" ">
<path fill="none" stroke="#63b8ff" d="M247.67,-54.75C252.38,-47.42 259.23,-36.73 265.03,-27.7"/>
<polygon fill="#63b8ff" stroke="#63b8ff" points="268.09,-29.4 270.55,-19.09 262.2,-25.62 268.09,-29.4"/>
</a>
</g>
</g>
<!-- Node7&#45;&gt;Node2 -->
<g id="edge10_Node000007_Node000002" class="edge">
<title>Node7&#45;&gt;Node2</title>
<g id="a_edge10_Node000007_Node000002"><a xlink:title=" ">
<path fill="none" stroke="#63b8ff" d="M621.77,-165.62C536.63,-155.5 389.86,-138.06 305.91,-128.09"/>
<polygon fill="#63b8ff" stroke="#63b8ff" points="306.09,-124.58 295.75,-126.88 305.26,-131.54 306.09,-124.58"/>
</a>
</g>
</g>
<!-- Node7&#45;&gt;Node3 -->
<g id="edge8_Node000007_Node000003" class="edge">
<title>Node7&#45;&gt;Node3</title>
<g id="a_edge8_Node000007_Node000003"><a xlink:title=" ">
<path fill="none" stroke="#63b8ff" d="M670.61,-164.98C643.8,-152.08 590.69,-127.27 544.06,-110 508.04,-96.66 466.03,-84.25 436.16,-75.94"/>
<polygon fill="#63b8ff" stroke="#63b8ff" points="436.7,-72.46 426.13,-73.18 434.84,-79.21 436.7,-72.46"/>
</a>
</g>
</g>
<!-- Node8 -->
<g id="Node000008" class="node">
<title>Node8</title>
<g id="a_Node000008"><a xlink:title=" ">
<polygon fill="#e0e0e0" stroke="#999999" points="417.56,-129 352.56,-129 352.56,-110 417.56,-110 417.56,-129"/>
<text text-anchor="middle" x="385.06" y="-117" font-family="Helvetica,sans-Serif" font-size="10.00">functional</text>
</a>
</g>
</g>
<!-- Node7&#45;&gt;Node8 -->
<g id="edge7_Node000007_Node000008" class="edge">
<title>Node7&#45;&gt;Node8</title>
<g id="a_edge7_Node000007_Node000008"><a xlink:title=" ">
<path fill="none" stroke="#63b8ff" d="M639.38,-164.98C580.79,-154.74 483.37,-137.7 427.65,-127.95"/>
<polygon fill="#63b8ff" stroke="#63b8ff" points="428.2,-124.49 417.74,-126.22 426.99,-131.39 428.2,-124.49"/>
</a>
</g>
</g>
<!-- Node9 -->
<g id="Node000009" class="node">
<title>Node9</title>
<g id="a_Node000009"><a xlink:title=" ">
<polygon fill="#e0e0e0" stroke="#999999" points="720.56,-129 655.56,-129 655.56,-110 720.56,-110 720.56,-129"/>
<text text-anchor="middle" x="688.06" y="-117" font-family="Helvetica,sans-Serif" font-size="10.00">typeindex</text>
</a>
</g>
</g>
<!-- Node7&#45;&gt;Node9 -->
<g id="edge9_Node000007_Node000009" class="edge">
<title>Node7&#45;&gt;Node9</title>
<g id="a_edge9_Node000007_Node000009"><a xlink:title=" ">
<path fill="none" stroke="#63b8ff" d="M688.06,-164.75C688.06,-157.8 688.06,-147.85 688.06,-139.13"/>
<polygon fill="#63b8ff" stroke="#63b8ff" points="691.56,-139.09 688.06,-129.09 684.56,-139.09 691.56,-139.09"/>
</a>
</g>
</g>
<!-- Node10&#45;&gt;Node2 -->
<g id="edge15_Node000010_Node000002" class="edge">
<title>Node10&#45;&gt;Node2</title>
<g id="a_edge15_Node000010_Node000002"><a xlink:title=" ">
<path fill="none" stroke="#63b8ff" d="M76.73,-219.92C44.95,-209.16 1.28,-189.16 21.06,-165 40.65,-141.07 120.25,-129.73 178.32,-124.55"/>
<polygon fill="#63b8ff" stroke="#63b8ff" points="178.86,-128.02 188.53,-123.68 178.27,-121.04 178.86,-128.02"/>
</a>
</g>
</g>
<!-- Node10&#45;&gt;Node3 -->
<g id="edge14_Node000010_Node000003" class="edge">
<title>Node10&#45;&gt;Node3</title>
<g id="a_edge14_Node000010_Node000003"><a xlink:title=" ">
<path fill="none" stroke="#63b8ff" d="M108.65,-219.97C115.85,-197.87 138.26,-138.52 179.06,-110 207.46,-90.15 303.15,-76.26 357.84,-69.73"/>
<polygon fill="#63b8ff" stroke="#63b8ff" points="358.35,-73.2 367.88,-68.56 357.54,-66.24 358.35,-73.2"/>
</a>
</g>
</g>
<!-- Node10&#45;&gt;Node8 -->
<g id="edge13_Node000010_Node000008" class="edge">
<title>Node10&#45;&gt;Node8</title>
<g id="a_edge13_Node000010_Node000008"><a xlink:title=" ">
<path fill="none" stroke="#63b8ff" d="M116.17,-219.96C132.8,-206.34 167.45,-179.74 201.06,-165 247.14,-144.79 303.92,-132.84 342.11,-126.49"/>
<polygon fill="#63b8ff" stroke="#63b8ff" points="343.05,-129.89 352.37,-124.85 341.94,-122.98 343.05,-129.89"/>
</a>
</g>
</g>
<!-- Node11 -->
<g id="Node000011" class="node">
<title>Node11</title>
<g id="a_Node000011"><a xlink:title=" ">
<polygon fill="#e0e0e0" stroke="#999999" points="77.56,-184 30.56,-184 30.56,-165 77.56,-165 77.56,-184"/>
<text text-anchor="middle" x="54.06" y="-172" font-family="Helvetica,sans-Serif" font-size="10.00">deque</text>
</a>
</g>
</g>
<!-- Node10&#45;&gt;Node11 -->
<g id="edge12_Node000010_Node000011" class="edge">
<title>Node10&#45;&gt;Node11</title>
<g id="a_edge12_Node000010_Node000011"><a xlink:title=" ">
<path fill="none" stroke="#63b8ff" d="M97.47,-219.75C89.9,-212.03 78.68,-200.6 69.54,-191.28"/>
<polygon fill="#63b8ff" stroke="#63b8ff" points="71.99,-188.78 62.48,-184.09 66.99,-193.68 71.99,-188.78"/>
</a>
</g>
</g>
<!-- Node10&#45;&gt;Node12 -->
<g id="edge16_Node000010_Node000012" class="edge">
<title>Node10&#45;&gt;Node12</title>
<g id="a_edge16_Node000010_Node000012"><a xlink:title=" ">
<path fill="none" stroke="#63b8ff" d="M134.01,-219.98C163.35,-211.05 209.65,-196.94 242.24,-187.02"/>
<polygon fill="#63b8ff" stroke="#63b8ff" points="243.34,-190.34 251.88,-184.08 241.3,-183.65 243.34,-190.34"/>
</a>
</g>
</g>
<!-- Node12&#45;&gt;Node2 -->
<g id="edge19_Node000012_Node000002" class="edge">
<title>Node12&#45;&gt;Node2</title>
<g id="a_edge19_Node000012_Node000002"><a xlink:title=" ">
<path fill="none" stroke="#63b8ff" d="M273.78,-164.75C268.47,-157.34 260.7,-146.5 254.18,-137.41"/>
<polygon fill="#63b8ff" stroke="#63b8ff" points="256.89,-135.18 248.22,-129.09 251.2,-139.26 256.89,-135.18"/>
</a>
</g>
</g>
<!-- Node12&#45;&gt;Node3 -->
<g id="edge18_Node000012_Node000003" class="edge">
<title>Node12&#45;&gt;Node3</title>
<g id="a_edge18_Node000012_Node000003"><a xlink:title=" ">
<path fill="none" stroke="#63b8ff" d="M288.35,-164.59C300.15,-152.05 322.63,-128.62 343.06,-110 354.28,-99.77 367.42,-88.92 377.92,-80.49"/>
<polygon fill="#63b8ff" stroke="#63b8ff" points="380.38,-83.02 386.03,-74.06 376.02,-77.53 380.38,-83.02"/>
</a>
</g>
</g>
<!-- Node12&#45;&gt;Node8 -->
<g id="edge17_Node000012_Node000008" class="edge">
<title>Node12&#45;&gt;Node8</title>
<g id="a_edge17_Node000012_Node000008"><a xlink:title=" ">
<path fill="none" stroke="#63b8ff" d="M296.93,-164.98C313.67,-156.54 339.56,-143.47 358.95,-133.68"/>
<polygon fill="#63b8ff" stroke="#63b8ff" points="360.53,-136.8 367.88,-129.17 357.38,-130.55 360.53,-136.8"/>
</a>
</g>
</g>
<!-- Node13&#45;&gt;Node2 -->
<g id="edge27_Node000013_Node000002" class="edge">
<title>Node13&#45;&gt;Node2</title>
<g id="a_edge27_Node000013_Node000002"><a xlink:title=" ">
<path fill="none" stroke="#63b8ff" d="M506.98,-219.84C455.87,-200.68 333.07,-154.63 274.37,-132.62"/>
<polygon fill="#63b8ff" stroke="#63b8ff" points="275.44,-129.28 264.85,-129.05 272.98,-135.84 275.44,-129.28"/>
</a>
</g>
</g>
<!-- Node13&#45;&gt;Node3 -->
<g id="edge23_Node000013_Node000003" class="edge">
<title>Node13&#45;&gt;Node3</title>
<g id="a_edge23_Node000013_Node000003"><a xlink:title=" ">
<path fill="none" stroke="#63b8ff" d="M527.3,-219.81C520.3,-198.84 500.06,-144.6 468.06,-110 456.18,-97.16 439.79,-86.56 425.76,-78.94"/>
<polygon fill="#63b8ff" stroke="#63b8ff" points="426.99,-75.63 416.5,-74.14 423.77,-81.85 426.99,-75.63"/>
</a>
</g>
</g>
<!-- Node13&#45;&gt;Node7 -->
<g id="edge25_Node000013_Node000007" class="edge">
<title>Node13&#45;&gt;Node7</title>
<g id="a_edge25_Node000013_Node000007"><a xlink:title=" ">
<path fill="none" stroke="#63b8ff" d="M555.44,-219.98C581.85,-211.13 623.4,-197.19 652.95,-187.28"/>
<polygon fill="#63b8ff" stroke="#63b8ff" points="654.11,-190.58 662.47,-184.08 651.88,-183.94 654.11,-190.58"/>
</a>
</g>
</g>
<!-- Node13&#45;&gt;Node8 -->
<g id="edge22_Node000013_Node000008" class="edge">
<title>Node13&#45;&gt;Node8</title>
<g id="a_edge22_Node000013_Node000008"><a xlink:title=" ">
<path fill="none" stroke="#63b8ff" d="M518.19,-219.66C493.32,-201.14 435.51,-158.08 404.89,-135.28"/>
<polygon fill="#63b8ff" stroke="#63b8ff" points="406.79,-132.32 396.68,-129.16 402.61,-137.94 406.79,-132.32"/>
</a>
</g>
</g>
<!-- Node13&#45;&gt;Node12 -->
<g id="edge26_Node000013_Node000012" class="edge">
<title>Node13&#45;&gt;Node12</title>
<g id="a_edge26_Node000013_Node000012"><a xlink:title=" ">
<path fill="none" stroke="#63b8ff" d="M489.89,-219.98C446.56,-210.8 377.46,-196.15 330.5,-186.19"/>
<polygon fill="#63b8ff" stroke="#63b8ff" points="331.05,-182.73 320.54,-184.08 329.6,-189.58 331.05,-182.73"/>
</a>
</g>
</g>
<!-- Node14 -->
<g id="Node000014" class="node">
<title>Node14</title>
<g id="a_Node000014"><a xlink:title=" ">
<polygon fill="#e0e0e0" stroke="#999999" points="603.56,-184 558.56,-184 558.56,-165 603.56,-165 603.56,-184"/>
<text text-anchor="middle" x="581.06" y="-172" font-family="Helvetica,sans-Serif" font-size="10.00">utility</text>
</a>
</g>
</g>
<!-- Node13&#45;&gt;Node14 -->
<g id="edge24_Node000013_Node000014" class="edge">
<title>Node13&#45;&gt;Node14</title>
<g id="a_edge24_Node000013_Node000014"><a xlink:title=" ">
<path fill="none" stroke="#63b8ff" d="M538.48,-219.75C545.83,-212.11 556.69,-200.82 565.6,-191.56"/>
<polygon fill="#63b8ff" stroke="#63b8ff" points="568.38,-193.72 572.79,-184.09 563.34,-188.87 568.38,-193.72"/>
</a>
</g>
</g>
<!-- Node15&#45;&gt;Node2 -->
<g id="edge31_Node000015_Node000002" class="edge">
<title>Node15&#45;&gt;Node2</title>
<g id="a_edge31_Node000015_Node000002"><a xlink:title=" ">
<path fill="none" stroke="#63b8ff" d="M342.17,-274.98C299.84,-262.79 231.41,-235.88 201.06,-184 191.16,-167.08 206.76,-148.29 221.48,-135.57"/>
<polygon fill="#63b8ff" stroke="#63b8ff" points="223.82,-138.19 229.4,-129.18 219.42,-132.74 223.82,-138.19"/>
</a>
</g>
</g>
<!-- Node15&#45;&gt;Node3 -->
<g id="edge30_Node000015_Node000003" class="edge">
<title>Node15&#45;&gt;Node3</title>
<g id="a_edge30_Node000015_Node000003"><a xlink:title=" ">
<path fill="none" stroke="#63b8ff" d="M381.93,-274.68C391.88,-251.43 418.14,-186.32 426.06,-129 427.21,-120.64 428.46,-118.09 426.06,-110 423.08,-99.98 417.06,-90.11 411.26,-82.22"/>
<polygon fill="#63b8ff" stroke="#63b8ff" points="413.93,-79.95 405,-74.25 408.43,-84.28 413.93,-79.95"/>
</a>
</g>
</g>
<!-- Node15&#45;&gt;Node7 -->
<g id="edge32_Node000015_Node000007" class="edge">
<title>Node15&#45;&gt;Node7</title>
<g id="a_edge32_Node000015_Node000007"><a xlink:title=" ">
<path fill="none" stroke="#63b8ff" d="M466.1,-277.86C512,-272.25 568.02,-261.11 614.06,-239 637.78,-227.6 659.99,-206.63 673.76,-191.91"/>
<polygon fill="#63b8ff" stroke="#63b8ff" points="676.73,-193.85 680.85,-184.09 671.54,-189.15 676.73,-193.85"/>
</a>
</g>
</g>
<!-- Node15&#45;&gt;Node8 -->
<g id="edge29_Node000015_Node000008" class="edge">
<title>Node15&#45;&gt;Node8</title>
<g id="a_edge29_Node000015_Node000008"><a xlink:title=" ">
<path fill="none" stroke="#63b8ff" d="M378.43,-274.74C379.53,-249.31 382.71,-175.08 384.23,-139.69"/>
<polygon fill="#63b8ff" stroke="#63b8ff" points="387.75,-139.45 384.68,-129.31 380.75,-139.15 387.75,-139.45"/>
</a>
</g>
</g>
<!-- Node15&#45;&gt;Node12 -->
<g id="edge33_Node000015_Node000012" class="edge">
<title>Node15&#45;&gt;Node12</title>
<g id="a_edge33_Node000015_Node000012"><a xlink:title=" ">
<path fill="none" stroke="#63b8ff" d="M370.04,-274.66C353.59,-256.54 315.82,-214.91 294.82,-191.77"/>
<polygon fill="#63b8ff" stroke="#63b8ff" points="297.23,-189.21 287.91,-184.16 292.04,-193.92 297.23,-189.21"/>
</a>
</g>
</g>
<!-- Node15&#45;&gt;Node13 -->
<g id="edge34_Node000015_Node000013" class="edge">
<title>Node15&#45;&gt;Node13</title>
<g id="a_edge34_Node000015_Node000013"><a xlink:title=" ">
<path fill="none" stroke="#63b8ff" d="M402.48,-274.98C427.78,-266.16 467.51,-252.31 495.91,-242.41"/>
<polygon fill="#63b8ff" stroke="#63b8ff" points="497.15,-245.68 505.44,-239.08 494.85,-239.07 497.15,-245.68"/>
</a>
</g>
</g>
</g>
</svg>
