<?xml version="1.0" encoding="UTF-8" standalone="no"?>
<!DOCTYPE svg PUBLIC "-//W3C//DTD SVG 1.1//EN"
 "http://www.w3.org/Graphics/SVG/1.1/DTD/svg11.dtd">
<!-- Generated by graphviz version 2.43.0 (0)
 -->
<!-- Title: include/helios/event/EventManager.ixx Pages: 1 -->
<svg width="476pt" height="258pt"
 viewBox="0.00 0.00 475.50 258.00" xmlns="http://www.w3.org/2000/svg" xmlns:xlink="http://www.w3.org/1999/xlink">

<svg id="main" version="1.1" xmlns="http://www.w3.org/2000/svg" xmlns:xlink="http://www.w3.org/1999/xlink" xml:space="preserve">

<style type="text/css"><![CDATA[
.node, .edge {opacity: 0.7;}
.node.selected, .edge.selected {opacity: 1;}
.edge:hover path { stroke: red; }
.edge:hover polygon { stroke: red; fill: red; }
]]></style>
<script type="application/ecmascript" xlink:href="svg.min.js"/>
<svg id="graph" class="graph">
<g id="graph0" class="graph" transform="scale(1 1) rotate(0) translate(4 254)">
<title>include/helios/event/EventManager.ixx</title>
<!-- Node1 -->
<g id="Node000001" class="node">
<title>Node1</title>
<g id="a_Node000001"><a xlink:title="High&#45;level event manager dispatching events to listeners.">
<polygon fill="#999999" stroke="#666666" points="304.5,-250 189.5,-250 189.5,-220 304.5,-220 304.5,-250"/>
<text text-anchor="start" x="197.5" y="-238" font-family="Helvetica,sans-Serif" font-size="10.00">include/helios/event</text>
<text text-anchor="middle" x="247" y="-227" font-family="Helvetica,sans-Serif" font-size="10.00">/EventManager.ixx</text>
</a>
</g>
</g>
<!-- Node2 -->
<g id="Node000002" class="node">
<title>Node2</title>
<g id="a_Node000002"><a xlink:title=" ">
<polygon fill="#e0e0e0" stroke="#999999" points="169.5,-129 104.5,-129 104.5,-110 169.5,-110 169.5,-129"/>
<text text-anchor="middle" x="137" y="-117" font-family="Helvetica,sans-Serif" font-size="10.00">functional</text>
</a>
</g>
</g>
<!-- Node1&#45;&gt;Node2 -->
<g id="edge1_Node000001_Node000002" class="edge">
<title>Node1&#45;&gt;Node2</title>
<g id="a_edge1_Node000001_Node000002"><a xlink:title=" ">
<path fill="none" stroke="#63b8ff" d="M226.57,-219.92C213.66,-210.52 197.01,-197.45 184,-184 170.19,-169.72 156.96,-151.27 148.08,-137.94"/>
<polygon fill="#63b8ff" stroke="#63b8ff" points="150.82,-135.74 142.43,-129.27 144.96,-139.56 150.82,-135.74"/>
</a>
</g>
</g>
<!-- Node3 -->
<g id="Node000003" class="node">
<title>Node3</title>
<g id="a_Node000003"><a xlink:title=" ">
<polygon fill="#e0e0e0" stroke="#999999" points="241,-74 183,-74 183,-55 241,-55 241,-74"/>
<text text-anchor="middle" x="212" y="-62" font-family="Helvetica,sans-Serif" font-size="10.00">memory</text>
</a>
</g>
</g>
<!-- Node1&#45;&gt;Node3 -->
<g id="edge2_Node000001_Node000003" class="edge">
<title>Node1&#45;&gt;Node3</title>
<g id="a_edge2_Node000001_Node000003"><a xlink:title=" ">
<path fill="none" stroke="#63b8ff" d="M235.71,-219.61C228.93,-210.08 220.9,-196.99 217,-184 206.79,-149.93 208.08,-107.89 210,-84.14"/>
<polygon fill="#63b8ff" stroke="#63b8ff" points="213.5,-84.35 210.95,-74.07 206.53,-83.7 213.5,-84.35"/>
</a>
</g>
</g>
<!-- Node4 -->
<g id="Node000004" class="node">
<title>Node4</title>
<g id="a_Node000004"><a xlink:title=" ">
<polygon fill="#e0e0e0" stroke="#999999" points="467.5,-184 422.5,-184 422.5,-165 467.5,-165 467.5,-184"/>
<text text-anchor="middle" x="445" y="-172" font-family="Helvetica,sans-Serif" font-size="10.00">utility</text>
</a>
</g>
</g>
<!-- Node1&#45;&gt;Node4 -->
<g id="edge3_Node000001_Node000004" class="edge">
<title>Node1&#45;&gt;Node4</title>
<g id="a_edge3_Node000001_Node000004"><a xlink:title=" ">
<path fill="none" stroke="#63b8ff" d="M294.43,-219.99C330.97,-209.19 380.52,-194.55 412.63,-185.06"/>
<polygon fill="#63b8ff" stroke="#63b8ff" points="413.8,-188.37 422.4,-182.18 411.82,-181.65 413.8,-188.37"/>
</a>
</g>
</g>
<!-- Node5 -->
<g id="Node000005" class="node">
<title>Node5</title>
<g id="a_Node000005"><a xlink:href="Dispatcher_8ixx.html" target="_top" xlink:title="Dispatches events to registered callbacks.">
<polygon fill="white" stroke="#666666" points="132,-184 0,-184 0,-165 132,-165 132,-184"/>
<text text-anchor="middle" x="66" y="-172" font-family="Helvetica,sans-Serif" font-size="10.00">helios.event.Dispatcher</text>
</a>
</g>
</g>
<!-- Node1&#45;&gt;Node5 -->
<g id="edge4_Node000001_Node000005" class="edge">
<title>Node1&#45;&gt;Node5</title>
<g id="a_edge4_Node000001_Node000005"><a xlink:title=" ">
<path fill="none" stroke="#63b8ff" d="M203.65,-219.99C172.68,-209.98 131.5,-196.67 102.27,-187.22"/>
<polygon fill="#63b8ff" stroke="#63b8ff" points="103.06,-183.8 92.47,-184.05 100.9,-190.46 103.06,-183.8"/>
</a>
</g>
</g>
<!-- Node7 -->
<g id="Node000007" class="node">
<title>Node7</title>
<g id="a_Node000007"><a xlink:href="Event_8ixx.html" target="_top" xlink:title="Base class for events in the helios framework.">
<polygon fill="white" stroke="#666666" points="371.5,-129 264.5,-129 264.5,-110 371.5,-110 371.5,-129"/>
<text text-anchor="middle" x="318" y="-117" font-family="Helvetica,sans-Serif" font-size="10.00">helios.event.Event</text>
</a>
</g>
</g>
<!-- Node1&#45;&gt;Node7 -->
<g id="edge17_Node000001_Node000007" class="edge">
<title>Node1&#45;&gt;Node7</title>
<g id="a_edge17_Node000001_Node000007"><a xlink:title=" ">
<path fill="none" stroke="#63b8ff" d="M304.53,-226.14C330.29,-219.43 358.33,-207.01 374,-184 386.56,-165.56 364.55,-146.67 344.54,-134.34"/>
<polygon fill="#63b8ff" stroke="#63b8ff" points="346.03,-131.16 335.62,-129.16 342.51,-137.21 346.03,-131.16"/>
</a>
</g>
</g>
<!-- Node11 -->
<g id="Node000011" class="node">
<title>Node11</title>
<g id="a_Node000011"><a xlink:href="EventQueue_8ixx.html" target="_top" xlink:title="Thread&#45;safe queue for Event objects.">
<polygon fill="white" stroke="#666666" points="365.5,-184 226.5,-184 226.5,-165 365.5,-165 365.5,-184"/>
<text text-anchor="middle" x="296" y="-172" font-family="Helvetica,sans-Serif" font-size="10.00">helios.event.EventQueue</text>
</a>
</g>
</g>
<!-- Node1&#45;&gt;Node11 -->
<g id="edge13_Node000001_Node000011" class="edge">
<title>Node1&#45;&gt;Node11</title>
<g id="a_edge13_Node000001_Node000011"><a xlink:title=" ">
<path fill="none" stroke="#63b8ff" d="M258.86,-219.84C265.9,-211.43 274.86,-200.74 282.21,-191.96"/>
<polygon fill="#63b8ff" stroke="#63b8ff" points="284.92,-194.18 288.66,-184.27 279.55,-189.68 284.92,-194.18"/>
</a>
</g>
</g>
<!-- Node5&#45;&gt;Node2 -->
<g id="edge5_Node000005_Node000002" class="edge">
<title>Node5&#45;&gt;Node2</title>
<g id="a_edge5_Node000005_Node000002"><a xlink:title=" ">
<path fill="none" stroke="#63b8ff" d="M77.41,-164.98C88.11,-157 104.34,-144.88 117.16,-135.31"/>
<polygon fill="#63b8ff" stroke="#63b8ff" points="119.47,-137.96 125.39,-129.17 115.28,-132.35 119.47,-137.96"/>
</a>
</g>
</g>
<!-- Node5&#45;&gt;Node3 -->
<g id="edge6_Node000005_Node000003" class="edge">
<title>Node5&#45;&gt;Node3</title>
<g id="a_edge6_Node000005_Node000003"><a xlink:title=" ">
<path fill="none" stroke="#63b8ff" d="M49.17,-164.8C27.92,-152.69 -4.03,-129.98 12,-110 31.77,-85.35 120.42,-73.48 172.83,-68.53"/>
<polygon fill="#63b8ff" stroke="#63b8ff" points="173.15,-72.01 182.79,-67.63 172.52,-65.04 173.15,-72.01"/>
</a>
</g>
</g>
<!-- Node6 -->
<g id="Node000006" class="node">
<title>Node6</title>
<g id="a_Node000006"><a xlink:title=" ">
<polygon fill="#e0e0e0" stroke="#999999" points="86.5,-129 21.5,-129 21.5,-110 86.5,-110 86.5,-129"/>
<text text-anchor="middle" x="54" y="-117" font-family="Helvetica,sans-Serif" font-size="10.00">typeindex</text>
</a>
</g>
</g>
<!-- Node5&#45;&gt;Node6 -->
<g id="edge7_Node000005_Node000006" class="edge">
<title>Node5&#45;&gt;Node6</title>
<g id="a_edge7_Node000005_Node000006"><a xlink:title=" ">
<path fill="none" stroke="#63b8ff" d="M64.02,-164.75C62.43,-157.72 60.14,-147.62 58.15,-138.84"/>
<polygon fill="#63b8ff" stroke="#63b8ff" points="61.57,-138.07 55.94,-129.09 54.74,-139.62 61.57,-138.07"/>
</a>
</g>
</g>
<!-- Node5&#45;&gt;Node7 -->
<g id="edge8_Node000005_Node000007" class="edge">
<title>Node5&#45;&gt;Node7</title>
<g id="a_edge8_Node000005_Node000007"><a xlink:title=" ">
<path fill="none" stroke="#63b8ff" d="M106.49,-164.98C150.17,-155.8 219.81,-141.15 267.15,-131.19"/>
<polygon fill="#63b8ff" stroke="#63b8ff" points="268.13,-134.57 277.19,-129.08 266.69,-127.72 268.13,-134.57"/>
</a>
</g>
</g>
<!-- Node7&#45;&gt;Node3 -->
<g id="edge9_Node000007_Node000003" class="edge">
<title>Node7&#45;&gt;Node3</title>
<g id="a_edge9_Node000007_Node000003"><a xlink:title=" ">
<path fill="none" stroke="#63b8ff" d="M300.97,-109.98C284.07,-101.54 257.94,-88.47 238.36,-78.68"/>
<polygon fill="#63b8ff" stroke="#63b8ff" points="239.85,-75.51 229.34,-74.17 236.72,-81.77 239.85,-75.51"/>
</a>
</g>
</g>
<!-- Node8 -->
<g id="Node000008" class="node">
<title>Node8</title>
<g id="a_Node000008"><a xlink:href="Guid_8ixx.html" target="_top" xlink:title="Lightweight GUID (globally unique identifier) implementation.">
<polygon fill="white" stroke="#666666" points="363,-74 273,-74 273,-55 363,-55 363,-74"/>
<text text-anchor="middle" x="318" y="-62" font-family="Helvetica,sans-Serif" font-size="10.00">helios.util.Guid</text>
</a>
</g>
</g>
<!-- Node7&#45;&gt;Node8 -->
<g id="edge10_Node000007_Node000008" class="edge">
<title>Node7&#45;&gt;Node8</title>
<g id="a_edge10_Node000007_Node000008"><a xlink:title=" ">
<path fill="none" stroke="#63b8ff" d="M318,-109.75C318,-102.8 318,-92.85 318,-84.13"/>
<polygon fill="#63b8ff" stroke="#63b8ff" points="321.5,-84.09 318,-74.09 314.5,-84.09 321.5,-84.09"/>
</a>
</g>
</g>
<!-- Node9 -->
<g id="Node000009" class="node">
<title>Node9</title>
<g id="a_Node000009"><a xlink:title=" ">
<polygon fill="#e0e0e0" stroke="#999999" points="309,-19 259,-19 259,0 309,0 309,-19"/>
<text text-anchor="middle" x="284" y="-7" font-family="Helvetica,sans-Serif" font-size="10.00">atomic</text>
</a>
</g>
</g>
<!-- Node8&#45;&gt;Node9 -->
<g id="edge11_Node000008_Node000009" class="edge">
<title>Node8&#45;&gt;Node9</title>
<g id="a_edge11_Node000008_Node000009"><a xlink:title=" ">
<path fill="none" stroke="#63b8ff" d="M312.39,-54.75C307.68,-47.42 300.83,-36.73 295.03,-27.7"/>
<polygon fill="#63b8ff" stroke="#63b8ff" points="297.86,-25.62 289.51,-19.09 291.96,-29.4 297.86,-25.62"/>
</a>
</g>
</g>
<!-- Node10 -->
<g id="Node000010" class="node">
<title>Node10</title>
<g id="a_Node000010"><a xlink:title=" ">
<polygon fill="#e0e0e0" stroke="#999999" points="377,-19 327,-19 327,0 377,0 377,-19"/>
<text text-anchor="middle" x="352" y="-7" font-family="Helvetica,sans-Serif" font-size="10.00">cstdint</text>
</a>
</g>
</g>
<!-- Node8&#45;&gt;Node10 -->
<g id="edge12_Node000008_Node000010" class="edge">
<title>Node8&#45;&gt;Node10</title>
<g id="a_edge12_Node000008_Node000010"><a xlink:title=" ">
<path fill="none" stroke="#63b8ff" d="M323.61,-54.75C328.32,-47.42 335.17,-36.73 340.97,-27.7"/>
<polygon fill="#63b8ff" stroke="#63b8ff" points="344.04,-29.4 346.49,-19.09 338.14,-25.62 344.04,-29.4"/>
</a>
</g>
</g>
<!-- Node11&#45;&gt;Node2 -->
<g id="edge14_Node000011_Node000002" class="edge">
<title>Node11&#45;&gt;Node2</title>
<g id="a_edge14_Node000011_Node000002"><a xlink:title=" ">
<path fill="none" stroke="#63b8ff" d="M270.45,-164.98C243.88,-156.13 202.06,-142.19 172.33,-132.28"/>
<polygon fill="#63b8ff" stroke="#63b8ff" points="173.34,-128.92 162.75,-129.08 171.13,-135.56 173.34,-128.92"/>
</a>
</g>
</g>
<!-- Node11&#45;&gt;Node3 -->
<g id="edge15_Node000011_Node000003" class="edge">
<title>Node11&#45;&gt;Node3</title>
<g id="a_edge15_Node000011_Node000003"><a xlink:title=" ">
<path fill="none" stroke="#63b8ff" d="M287.43,-164.98C278.84,-156.26 265.44,-142.18 255,-129 243.16,-114.05 231.11,-95.95 222.79,-82.91"/>
<polygon fill="#63b8ff" stroke="#63b8ff" points="225.73,-81.02 217.45,-74.42 219.81,-84.75 225.73,-81.02"/>
</a>
</g>
</g>
<!-- Node11&#45;&gt;Node7 -->
<g id="edge16_Node000011_Node000007" class="edge">
<title>Node11&#45;&gt;Node7</title>
<g id="a_edge16_Node000011_Node000007"><a xlink:title=" ">
<path fill="none" stroke="#63b8ff" d="M299.63,-164.75C302.58,-157.65 306.83,-147.4 310.51,-138.56"/>
<polygon fill="#63b8ff" stroke="#63b8ff" points="313.83,-139.67 314.43,-129.09 307.37,-136.98 313.83,-139.67"/>
</a>
</g>
</g>
</g>
</svg>
</svg>

<style type='text/css'>
<![CDATA[
[data-mouse-over-selected='false'] { opacity: 0.7; }
[data-mouse-over-selected='true']  { opacity: 1.0; }
]]>
</style>
<script type="application/ecmascript"><![CDATA[
document.addEventListener('DOMContentLoaded', (event) => {
  highlightEdges();
  highlightAdjacentNodes();
});
]]></script>
</svg>
