<?xml version="1.0" encoding="UTF-8" standalone="no"?>
<!DOCTYPE svg PUBLIC "-//W3C//DTD SVG 1.1//EN"
 "http://www.w3.org/Graphics/SVG/1.1/DTD/svg11.dtd">
<!-- Generated by graphviz version 2.43.0 (0)
 -->
<!-- Title: FreeTypeFontResourceManager.ixx Pages: 1 -->
<svg width="1050pt" height="324pt"
 viewBox="0.00 0.00 1050.00 324.00" xmlns="http://www.w3.org/2000/svg" xmlns:xlink="http://www.w3.org/1999/xlink">
<g id="graph0" class="graph" transform="scale(1 1) rotate(0) translate(4 320)">
<title>FreeTypeFontResourceManager.ixx</title>
<!-- Node1 -->
<g id="Node000001" class="node">
<title>Node1</title>
<g id="a_Node000001"><a xlink:title="FreeType&#45;based font loading and glyph caching for OpenGL text rendering.">
<polygon fill="#999999" stroke="#666666" points="733.5,-316 547.5,-316 547.5,-297 733.5,-297 733.5,-316"/>
<text text-anchor="middle" x="640.5" y="-304" font-family="Helvetica,sans-Serif" font-size="10.00">FreeTypeFontResourceManager.ixx</text>
</a>
</g>
</g>
<!-- Node2 -->
<g id="Node000002" class="node">
<title>Node2</title>
<g id="a_Node000002"><a xlink:title=" ">
<polygon fill="#e0e0e0" stroke="#999999" points="388,-129 315,-129 315,-110 388,-110 388,-129"/>
<text text-anchor="middle" x="351.5" y="-117" font-family="Helvetica,sans-Serif" font-size="10.00">string_view</text>
</a>
</g>
</g>
<!-- Node1&#45;&gt;Node2 -->
<g id="edge1_Node000001_Node000002" class="edge">
<title>Node1&#45;&gt;Node2</title>
<g id="a_edge1_Node000001_Node000002"><a xlink:title=" ">
<path fill="none" stroke="#63b8ff" d="M547.17,-301.69C479.09,-296.85 394.67,-285.87 370.5,-261 338.71,-228.28 342.99,-169.3 347.78,-139.23"/>
<polygon fill="#63b8ff" stroke="#63b8ff" points="351.25,-139.7 349.56,-129.24 344.36,-138.47 351.25,-139.7"/>
</a>
</g>
</g>
<!-- Node3 -->
<g id="Node000003" class="node">
<title>Node3</title>
<g id="a_Node000003"><a xlink:title=" ">
<polygon fill="#e0e0e0" stroke="#999999" points="629.5,-255.5 577.5,-255.5 577.5,-236.5 629.5,-236.5 629.5,-255.5"/>
<text text-anchor="middle" x="603.5" y="-243.5" font-family="Helvetica,sans-Serif" font-size="10.00">cassert</text>
</a>
</g>
</g>
<!-- Node1&#45;&gt;Node3 -->
<g id="edge2_Node000001_Node000003" class="edge">
<title>Node1&#45;&gt;Node3</title>
<g id="a_edge2_Node000001_Node000003"><a xlink:title=" ">
<path fill="none" stroke="#63b8ff" d="M635.04,-296.87C629.63,-288.31 621.19,-274.97 614.4,-264.24"/>
<polygon fill="#63b8ff" stroke="#63b8ff" points="617.29,-262.25 608.98,-255.67 611.37,-265.99 617.29,-262.25"/>
</a>
</g>
</g>
<!-- Node4 -->
<g id="Node000004" class="node">
<title>Node4</title>
<g id="a_Node000004"><a xlink:title=" ">
<polygon fill="#e0e0e0" stroke="#999999" points="709.5,-255.5 647.5,-255.5 647.5,-236.5 709.5,-236.5 709.5,-255.5"/>
<text text-anchor="middle" x="678.5" y="-243.5" font-family="Helvetica,sans-Serif" font-size="10.00">ft2build.h</text>
</a>
</g>
</g>
<!-- Node1&#45;&gt;Node4 -->
<g id="edge3_Node000001_Node000004" class="edge">
<title>Node1&#45;&gt;Node4</title>
<g id="a_edge3_Node000001_Node000004"><a xlink:title=" ">
<path fill="none" stroke="#63b8ff" d="M646.11,-296.87C651.66,-288.31 660.33,-274.97 667.3,-264.24"/>
<polygon fill="#63b8ff" stroke="#63b8ff" points="670.36,-265.96 672.87,-255.67 664.49,-262.15 670.36,-265.96"/>
</a>
</g>
</g>
<!-- Node5 -->
<g id="Node000005" class="node">
<title>Node5</title>
<g id="a_Node000005"><a xlink:title=" ">
<polygon fill="#e0e0e0" stroke="#999999" points="787,-255.5 728,-255.5 728,-236.5 787,-236.5 787,-255.5"/>
<text text-anchor="middle" x="757.5" y="-243.5" font-family="Helvetica,sans-Serif" font-size="10.00">glad/gl.h</text>
</a>
</g>
</g>
<!-- Node1&#45;&gt;Node5 -->
<g id="edge4_Node000001_Node000005" class="edge">
<title>Node1&#45;&gt;Node5</title>
<g id="a_edge4_Node000001_Node000005"><a xlink:title=" ">
<path fill="none" stroke="#63b8ff" d="M657.51,-296.99C676.92,-287.29 708.89,-271.31 731.44,-260.03"/>
<polygon fill="#63b8ff" stroke="#63b8ff" points="733.09,-263.12 740.47,-255.52 729.96,-256.86 733.09,-263.12"/>
</a>
</g>
</g>
<!-- Node6 -->
<g id="Node000006" class="node">
<title>Node6</title>
<g id="a_Node000006"><a xlink:title=" ">
<polygon fill="#e0e0e0" stroke="#999999" points="862,-255.5 805,-255.5 805,-236.5 862,-236.5 862,-255.5"/>
<text text-anchor="middle" x="833.5" y="-243.5" font-family="Helvetica,sans-Serif" font-size="10.00">ostream</text>
</a>
</g>
</g>
<!-- Node1&#45;&gt;Node6 -->
<g id="edge5_Node000001_Node000006" class="edge">
<title>Node1&#45;&gt;Node6</title>
<g id="a_edge5_Node000001_Node000006"><a xlink:title=" ">
<path fill="none" stroke="#63b8ff" d="M673.31,-297C705.05,-288.58 754.39,-274.95 796.5,-261 798.36,-260.38 800.26,-259.73 802.18,-259.06"/>
<polygon fill="#63b8ff" stroke="#63b8ff" points="803.49,-262.3 811.7,-255.6 801.1,-255.73 803.49,-262.3"/>
</a>
</g>
</g>
<!-- Node7 -->
<g id="Node000007" class="node">
<title>Node7</title>
<g id="a_Node000007"><a xlink:title=" ">
<polygon fill="#e0e0e0" stroke="#999999" points="930.5,-255.5 880.5,-255.5 880.5,-236.5 930.5,-236.5 930.5,-255.5"/>
<text text-anchor="middle" x="905.5" y="-243.5" font-family="Helvetica,sans-Serif" font-size="10.00">ranges</text>
</a>
</g>
</g>
<!-- Node1&#45;&gt;Node7 -->
<g id="edge6_Node000001_Node000007" class="edge">
<title>Node1&#45;&gt;Node7</title>
<g id="a_edge6_Node000001_Node000007"><a xlink:title=" ">
<path fill="none" stroke="#63b8ff" d="M702.59,-297C749.56,-289.73 815.35,-277.78 871.5,-261 873.38,-260.44 875.3,-259.81 877.22,-259.14"/>
<polygon fill="#63b8ff" stroke="#63b8ff" points="878.58,-262.36 886.68,-255.53 876.09,-255.82 878.58,-262.36"/>
</a>
</g>
</g>
<!-- Node8 -->
<g id="Node000008" class="node">
<title>Node8</title>
<g id="a_Node000008"><a xlink:title=" ">
<polygon fill="#e0e0e0" stroke="#999999" points="1042,-255.5 949,-255.5 949,-236.5 1042,-236.5 1042,-255.5"/>
<text text-anchor="middle" x="995.5" y="-243.5" font-family="Helvetica,sans-Serif" font-size="10.00">unordered_map</text>
</a>
</g>
</g>
<!-- Node1&#45;&gt;Node8 -->
<g id="edge7_Node000001_Node000008" class="edge">
<title>Node1&#45;&gt;Node8</title>
<g id="a_edge7_Node000001_Node000008"><a xlink:title=" ">
<path fill="none" stroke="#63b8ff" d="M710.91,-296.99C771.72,-289.17 861.78,-276.46 939.5,-261 944.17,-260.07 949.03,-259.01 953.86,-257.88"/>
<polygon fill="#63b8ff" stroke="#63b8ff" points="954.73,-261.27 963.64,-255.53 953.1,-254.47 954.73,-261.27"/>
</a>
</g>
</g>
<!-- Node9 -->
<g id="Node000009" class="node">
<title>Node9</title>
<g id="a_Node000009"><a xlink:href="FontId_8ixx.html" target="_top" xlink:title="Strongly&#45;typed identifier for font families.">
<polygon fill="white" stroke="#666666" points="323.5,-195 189.5,-195 189.5,-165 323.5,-165 323.5,-195"/>
<text text-anchor="start" x="197.5" y="-183" font-family="Helvetica,sans-Serif" font-size="10.00">helios.engine.core.data.</text>
<text text-anchor="middle" x="256.5" y="-172" font-family="Helvetica,sans-Serif" font-size="10.00">FontId</text>
</a>
</g>
</g>
<!-- Node1&#45;&gt;Node9 -->
<g id="edge8_Node000001_Node000009" class="edge">
<title>Node1&#45;&gt;Node9</title>
<g id="a_edge8_Node000001_Node000009"><a xlink:title=" ">
<path fill="none" stroke="#63b8ff" d="M547.15,-298.19C472.06,-291.13 373.37,-278.88 337.5,-261 310.5,-247.54 286.91,-221.69 272.25,-203.02"/>
<polygon fill="#63b8ff" stroke="#63b8ff" points="275,-200.85 266.17,-195.01 269.43,-205.09 275,-200.85"/>
</a>
</g>
</g>
<!-- Node14 -->
<g id="Node000014" class="node">
<title>Node14</title>
<g id="a_Node000014"><a xlink:href="Glyph_8ixx.html" target="_top" xlink:title="Glyph data structure for text rendering.">
<polygon fill="white" stroke="#666666" points="624,-189.5 475,-189.5 475,-170.5 624,-170.5 624,-189.5"/>
<text text-anchor="middle" x="549.5" y="-177.5" font-family="Helvetica,sans-Serif" font-size="10.00">helios.rendering.text.Glyph</text>
</a>
</g>
</g>
<!-- Node1&#45;&gt;Node14 -->
<g id="edge15_Node000001_Node000014" class="edge">
<title>Node1&#45;&gt;Node14</title>
<g id="a_edge15_Node000001_Node000014"><a xlink:title=" ">
<path fill="none" stroke="#63b8ff" d="M617.65,-296.95C601.53,-289.76 580.71,-277.92 568.5,-261 555.41,-242.86 551.23,-216.96 549.95,-199.59"/>
<polygon fill="#63b8ff" stroke="#63b8ff" points="553.44,-199.4 549.47,-189.58 546.45,-199.73 553.44,-199.4"/>
</a>
</g>
</g>
<!-- Node22 -->
<g id="Node000022" class="node">
<title>Node22</title>
<g id="a_Node000022"><a xlink:href="FontResourceProvider_8ixx.html" target="_top" xlink:title="Abstract interface for loading and providing font glyph data.">
<polygon fill="white" stroke="#666666" points="521.5,-261 379.5,-261 379.5,-231 521.5,-231 521.5,-261"/>
<text text-anchor="start" x="387.5" y="-249" font-family="Helvetica,sans-Serif" font-size="10.00">helios.rendering.text.Font</text>
<text text-anchor="middle" x="450.5" y="-238" font-family="Helvetica,sans-Serif" font-size="10.00">ResourceProvider</text>
</a>
</g>
</g>
<!-- Node1&#45;&gt;Node22 -->
<g id="edge27_Node000001_Node000022" class="edge">
<title>Node1&#45;&gt;Node22</title>
<g id="a_edge27_Node000001_Node000022"><a xlink:title=" ">
<path fill="none" stroke="#63b8ff" d="M612.87,-296.99C584.93,-288.39 540.97,-274.86 505.83,-264.04"/>
<polygon fill="#63b8ff" stroke="#63b8ff" points="506.77,-260.66 496.18,-261.06 504.71,-267.35 506.77,-260.66"/>
</a>
</g>
</g>
<!-- Node9&#45;&gt;Node2 -->
<g id="edge10_Node000009_Node000002" class="edge">
<title>Node9&#45;&gt;Node2</title>
<g id="a_edge10_Node000009_Node000002"><a xlink:title=" ">
<path fill="none" stroke="#63b8ff" d="M279.5,-164.84C294.5,-155.6 314,-143.59 328.93,-134.4"/>
<polygon fill="#63b8ff" stroke="#63b8ff" points="330.86,-137.32 337.54,-129.09 327.19,-131.36 330.86,-137.32"/>
</a>
</g>
</g>
<!-- Node10 -->
<g id="Node000010" class="node">
<title>Node10</title>
<g id="a_Node000010"><a xlink:title=" ">
<polygon fill="#e0e0e0" stroke="#999999" points="296.5,-19 246.5,-19 246.5,0 296.5,0 296.5,-19"/>
<text text-anchor="middle" x="271.5" y="-7" font-family="Helvetica,sans-Serif" font-size="10.00">cstdint</text>
</a>
</g>
</g>
<!-- Node9&#45;&gt;Node10 -->
<g id="edge9_Node000009_Node000010" class="edge">
<title>Node9&#45;&gt;Node10</title>
<g id="a_edge9_Node000009_Node000010"><a xlink:title=" ">
<path fill="none" stroke="#63b8ff" d="M257.75,-164.92C260.45,-134.65 266.8,-63.35 269.83,-29.27"/>
<polygon fill="#63b8ff" stroke="#63b8ff" points="273.32,-29.53 270.72,-19.25 266.35,-28.91 273.32,-29.53"/>
</a>
</g>
</g>
<!-- Node11 -->
<g id="Node000011" class="node">
<title>Node11</title>
<g id="a_Node000011"><a xlink:href="types_8ixx.html" target="_top" xlink:title="Core type definitions and tag types for the helios engine.">
<polygon fill="white" stroke="#666666" points="243.5,-129 143.5,-129 143.5,-110 243.5,-110 243.5,-129"/>
<text text-anchor="middle" x="193.5" y="-117" font-family="Helvetica,sans-Serif" font-size="10.00">helios.core.types</text>
</a>
</g>
</g>
<!-- Node9&#45;&gt;Node11 -->
<g id="edge11_Node000009_Node000011" class="edge">
<title>Node9&#45;&gt;Node11</title>
<g id="a_edge11_Node000009_Node000011"><a xlink:title=" ">
<path fill="none" stroke="#63b8ff" d="M241.25,-164.84C231.92,-156.17 219.97,-145.08 210.35,-136.15"/>
<polygon fill="#63b8ff" stroke="#63b8ff" points="212.65,-133.51 202.94,-129.27 207.89,-138.64 212.65,-133.51"/>
</a>
</g>
</g>
<!-- Node12 -->
<g id="Node000012" class="node">
<title>Node12</title>
<g id="a_Node000012"><a xlink:href="algorithms_8ixx.html" target="_top" xlink:title="Core algorithms and hash functions for the helios engine.">
<polygon fill="white" stroke="#666666" points="125,-129 0,-129 0,-110 125,-110 125,-129"/>
<text text-anchor="middle" x="62.5" y="-117" font-family="Helvetica,sans-Serif" font-size="10.00">helios.core.algorithms</text>
</a>
</g>
</g>
<!-- Node9&#45;&gt;Node12 -->
<g id="edge12_Node000009_Node000012" class="edge">
<title>Node9&#45;&gt;Node12</title>
<g id="a_edge12_Node000009_Node000012"><a xlink:title=" ">
<path fill="none" stroke="#63b8ff" d="M210.03,-164.99C176.55,-154.89 131.93,-141.44 100.56,-131.98"/>
<polygon fill="#63b8ff" stroke="#63b8ff" points="101.45,-128.59 90.87,-129.05 99.43,-135.29 101.45,-128.59"/>
</a>
</g>
</g>
<!-- Node12&#45;&gt;Node10 -->
<g id="edge13_Node000012_Node000010" class="edge">
<title>Node12&#45;&gt;Node10</title>
<g id="a_edge13_Node000012_Node000010"><a xlink:title=" ">
<path fill="none" stroke="#63b8ff" d="M79.25,-109.84C115.72,-91 202.52,-46.14 245.9,-23.73"/>
<polygon fill="#63b8ff" stroke="#63b8ff" points="247.68,-26.75 254.96,-19.05 244.47,-20.53 247.68,-26.75"/>
</a>
</g>
</g>
<!-- Node13 -->
<g id="Node000013" class="node">
<title>Node13</title>
<g id="a_Node000013"><a xlink:title=" ">
<polygon fill="#e0e0e0" stroke="#999999" points="84.5,-74 40.5,-74 40.5,-55 84.5,-55 84.5,-74"/>
<text text-anchor="middle" x="62.5" y="-62" font-family="Helvetica,sans-Serif" font-size="10.00">string</text>
</a>
</g>
</g>
<!-- Node12&#45;&gt;Node13 -->
<g id="edge14_Node000012_Node000013" class="edge">
<title>Node12&#45;&gt;Node13</title>
<g id="a_edge14_Node000012_Node000013"><a xlink:title=" ">
<path fill="none" stroke="#63b8ff" d="M62.5,-109.75C62.5,-102.8 62.5,-92.85 62.5,-84.13"/>
<polygon fill="#63b8ff" stroke="#63b8ff" points="66,-84.09 62.5,-74.09 59,-84.09 66,-84.09"/>
</a>
</g>
</g>
<!-- Node15 -->
<g id="Node000015" class="node">
<title>Node15</title>
<g id="a_Node000015"><a xlink:href="helios_2math_2__module_8ixx.html" target="_top" xlink:title="Module exports for mathematical types and utilities.">
<polygon fill="white" stroke="#666666" points="646.5,-129 572.5,-129 572.5,-110 646.5,-110 646.5,-129"/>
<text text-anchor="middle" x="609.5" y="-117" font-family="Helvetica,sans-Serif" font-size="10.00">helios.math</text>
</a>
</g>
</g>
<!-- Node14&#45;&gt;Node15 -->
<g id="edge16_Node000014_Node000015" class="edge">
<title>Node14&#45;&gt;Node15</title>
<g id="a_edge16_Node000014_Node000015"><a xlink:title=" ">
<path fill="none" stroke="#63b8ff" d="M558.35,-170.37C567.48,-161.47 581.92,-147.39 593.14,-136.45"/>
<polygon fill="#63b8ff" stroke="#63b8ff" points="595.89,-138.65 600.61,-129.17 591.01,-133.64 595.89,-138.65"/>
</a>
</g>
</g>
<!-- Node16 -->
<g id="Node000016" class="node">
<title>Node16</title>
<g id="a_Node000016"><a xlink:href="helios_2math_2concepts_2__module_8ixx.html" target="_top" xlink:title="Math concepts module exports.">
<polygon fill="white" stroke="#666666" points="844,-74 723,-74 723,-55 844,-55 844,-74"/>
<text text-anchor="middle" x="783.5" y="-62" font-family="Helvetica,sans-Serif" font-size="10.00">helios.math.concepts</text>
</a>
</g>
</g>
<!-- Node15&#45;&gt;Node16 -->
<g id="edge17_Node000015_Node000016" class="edge">
<title>Node15&#45;&gt;Node16</title>
<g id="a_edge17_Node000015_Node000016"><a xlink:title=" ">
<path fill="none" stroke="#63b8ff" d="M637.46,-109.98C666.8,-101.05 713.1,-86.94 745.69,-77.02"/>
<polygon fill="#63b8ff" stroke="#63b8ff" points="746.78,-80.34 755.32,-74.08 744.74,-73.65 746.78,-80.34"/>
</a>
</g>
</g>
<!-- Node17 -->
<g id="Node000017" class="node">
<title>Node17</title>
<g id="a_Node000017"><a xlink:href="helios_2math_2transform_2__module_8ixx.html" target="_top" xlink:title="Module exports for transformation utilities.">
<polygon fill="white" stroke="#666666" points="1005,-74 880,-74 880,-55 1005,-55 1005,-74"/>
<text text-anchor="middle" x="942.5" y="-62" font-family="Helvetica,sans-Serif" font-size="10.00">helios.math.transform</text>
</a>
</g>
</g>
<!-- Node15&#45;&gt;Node17 -->
<g id="edge19_Node000015_Node000017" class="edge">
<title>Node15&#45;&gt;Node17</title>
<g id="a_edge19_Node000015_Node000017"><a xlink:title=" ">
<path fill="none" stroke="#63b8ff" d="M646.73,-112.57C702.91,-103.63 810.07,-86.58 878.81,-75.64"/>
<polygon fill="#63b8ff" stroke="#63b8ff" points="879.76,-79.03 889.08,-74 878.66,-72.12 879.76,-79.03"/>
</a>
</g>
</g>
<!-- Node18 -->
<g id="Node000018" class="node">
<title>Node18</title>
<g id="a_Node000018"><a xlink:href="helios_2math_2types_2__module_8ixx.html" target="_top" xlink:title="Module exports for vector and matrix type definitions.">
<polygon fill="white" stroke="#666666" points="570.5,-74 466.5,-74 466.5,-55 570.5,-55 570.5,-74"/>
<text text-anchor="middle" x="518.5" y="-62" font-family="Helvetica,sans-Serif" font-size="10.00">helios.math.types</text>
</a>
</g>
</g>
<!-- Node15&#45;&gt;Node18 -->
<g id="edge21_Node000015_Node000018" class="edge">
<title>Node15&#45;&gt;Node18</title>
<g id="a_edge21_Node000015_Node000018"><a xlink:title=" ">
<path fill="none" stroke="#63b8ff" d="M594.88,-109.98C580.64,-101.69 558.75,-88.94 542.05,-79.22"/>
<polygon fill="#63b8ff" stroke="#63b8ff" points="543.79,-76.18 533.39,-74.17 540.27,-82.23 543.79,-76.18"/>
</a>
</g>
</g>
<!-- Node19 -->
<g id="Node000019" class="node">
<title>Node19</title>
<g id="a_Node000019"><a xlink:href="utils_8ixx.html" target="_top" xlink:title="Misc math utility functions.">
<polygon fill="white" stroke="#666666" points="704.5,-74 606.5,-74 606.5,-55 704.5,-55 704.5,-74"/>
<text text-anchor="middle" x="655.5" y="-62" font-family="Helvetica,sans-Serif" font-size="10.00">helios.math.utils</text>
</a>
</g>
</g>
<!-- Node15&#45;&gt;Node19 -->
<g id="edge23_Node000015_Node000019" class="edge">
<title>Node15&#45;&gt;Node19</title>
<g id="a_edge23_Node000015_Node000019"><a xlink:title=" ">
<path fill="none" stroke="#63b8ff" d="M617.1,-109.75C623.66,-102.18 633.32,-91.05 641.31,-81.84"/>
<polygon fill="#63b8ff" stroke="#63b8ff" points="644.13,-83.94 648.05,-74.09 638.85,-79.35 644.13,-83.94"/>
</a>
</g>
</g>
<!-- Node21 -->
<g id="Node000021" class="node">
<title>Node21</title>
<g id="a_Node000021"><a xlink:href="TransformType_8ixx.html" target="_top" xlink:title="Defines transform inheritance flags for scene graph hierarchies.">
<polygon fill="white" stroke="#666666" points="448,-74 299,-74 299,-55 448,-55 448,-74"/>
<text text-anchor="middle" x="373.5" y="-62" font-family="Helvetica,sans-Serif" font-size="10.00">helios.math.TransformType</text>
</a>
</g>
</g>
<!-- Node15&#45;&gt;Node21 -->
<g id="edge25_Node000015_Node000021" class="edge">
<title>Node15&#45;&gt;Node21</title>
<g id="a_edge25_Node000015_Node000021"><a xlink:title=" ">
<path fill="none" stroke="#63b8ff" d="M572.37,-110.16C531.66,-101.02 466.22,-86.32 421.61,-76.31"/>
<polygon fill="#63b8ff" stroke="#63b8ff" points="422.11,-72.83 411.59,-74.05 420.58,-79.66 422.11,-72.83"/>
</a>
</g>
</g>
<!-- Node16&#45;&gt;Node16 -->
<g id="edge18_Node000016_Node000016" class="edge">
<title>Node16&#45;&gt;Node16</title>
<g id="a_edge18_Node000016_Node000016"><a xlink:title=" ">
<path fill="none" stroke="#63b8ff" d="M820.24,-74.03C841.81,-76.06 862,-72.88 862,-64.5 862,-57.49 847.89,-54.12 830.67,-54.39"/>
<polygon fill="#63b8ff" stroke="#63b8ff" points="830.03,-50.92 820.24,-54.97 830.42,-57.91 830.03,-50.92"/>
</a>
</g>
</g>
<!-- Node17&#45;&gt;Node17 -->
<g id="edge20_Node000017_Node000017" class="edge">
<title>Node17&#45;&gt;Node17</title>
<g id="a_edge20_Node000017_Node000017"><a xlink:title=" ">
<path fill="none" stroke="#63b8ff" d="M980.18,-74.03C1002.3,-76.06 1023,-72.88 1023,-64.5 1023,-57.43 1008.26,-54.06 990.37,-54.4"/>
<polygon fill="#63b8ff" stroke="#63b8ff" points="989.97,-50.92 980.18,-54.97 990.36,-57.9 989.97,-50.92"/>
</a>
</g>
</g>
<!-- Node18&#45;&gt;Node18 -->
<g id="edge22_Node000018_Node000018" class="edge">
<title>Node18&#45;&gt;Node18</title>
<g id="a_edge22_Node000018_Node000018"><a xlink:title=" ">
<path fill="none" stroke="#63b8ff" d="M551.27,-74.03C570.5,-76.06 588.5,-72.88 588.5,-64.5 588.5,-57.62 576.39,-54.25 561.42,-54.38"/>
<polygon fill="#63b8ff" stroke="#63b8ff" points="561.05,-50.89 551.27,-54.97 561.45,-57.88 561.05,-50.89"/>
</a>
</g>
</g>
<!-- Node20 -->
<g id="Node000020" class="node">
<title>Node20</title>
<g id="a_Node000020"><a xlink:title=" ">
<polygon fill="#e0e0e0" stroke="#999999" points="685,-19 626,-19 626,0 685,0 685,-19"/>
<text text-anchor="middle" x="655.5" y="-7" font-family="Helvetica,sans-Serif" font-size="10.00">numbers</text>
</a>
</g>
</g>
<!-- Node19&#45;&gt;Node20 -->
<g id="edge24_Node000019_Node000020" class="edge">
<title>Node19&#45;&gt;Node20</title>
<g id="a_edge24_Node000019_Node000020"><a xlink:title=" ">
<path fill="none" stroke="#63b8ff" d="M655.5,-54.75C655.5,-47.8 655.5,-37.85 655.5,-29.13"/>
<polygon fill="#63b8ff" stroke="#63b8ff" points="659,-29.09 655.5,-19.09 652,-29.09 659,-29.09"/>
</a>
</g>
</g>
<!-- Node21&#45;&gt;Node10 -->
<g id="edge26_Node000021_Node000010" class="edge">
<title>Node21&#45;&gt;Node10</title>
<g id="a_edge26_Node000021_Node000010"><a xlink:title=" ">
<path fill="none" stroke="#63b8ff" d="M357.11,-54.98C340.93,-46.57 315.93,-33.59 297.12,-23.81"/>
<polygon fill="#63b8ff" stroke="#63b8ff" points="298.67,-20.68 288.19,-19.17 295.45,-26.89 298.67,-20.68"/>
</a>
</g>
</g>
<!-- Node22&#45;&gt;Node2 -->
<g id="edge28_Node000022_Node000002" class="edge">
<title>Node22&#45;&gt;Node2</title>
<g id="a_edge28_Node000022_Node000002"><a xlink:title=" ">
<path fill="none" stroke="#63b8ff" d="M439.14,-230.72C420.69,-207.51 384.28,-161.73 364.7,-137.1"/>
<polygon fill="#63b8ff" stroke="#63b8ff" points="367.28,-134.72 358.31,-129.07 361.8,-139.08 367.28,-134.72"/>
</a>
</g>
</g>
<!-- Node22&#45;&gt;Node9 -->
<g id="edge29_Node000022_Node000009" class="edge">
<title>Node22&#45;&gt;Node9</title>
<g id="a_edge29_Node000022_Node000009"><a xlink:title=" ">
<path fill="none" stroke="#63b8ff" d="M407.93,-230.95C378.74,-221.33 339.83,-208.49 308.76,-198.24"/>
<polygon fill="#63b8ff" stroke="#63b8ff" points="309.57,-194.82 298.97,-195.01 307.37,-201.47 309.57,-194.82"/>
</a>
</g>
</g>
<!-- Node22&#45;&gt;Node14 -->
<g id="edge30_Node000022_Node000014" class="edge">
<title>Node22&#45;&gt;Node14</title>
<g id="a_edge30_Node000022_Node000014"><a xlink:title=" ">
<path fill="none" stroke="#63b8ff" d="M472.47,-230.8C488.91,-220.17 511.29,-205.7 527.69,-195.1"/>
<polygon fill="#63b8ff" stroke="#63b8ff" points="529.61,-198.03 536.11,-189.66 525.81,-192.15 529.61,-198.03"/>
</a>
</g>
</g>
</g>
</svg>
