<?xml version="1.0" encoding="UTF-8" standalone="no"?>
<!DOCTYPE svg PUBLIC "-//W3C//DTD SVG 1.1//EN"
 "http://www.w3.org/Graphics/SVG/1.1/DTD/svg11.dtd">
<!-- Generated by graphviz version 2.43.0 (0)
 -->
<!-- Title: include/helios/input/GamepadState.ixx Pages: 1 -->
<svg width="563pt" height="258pt"
 viewBox="0.00 0.00 562.85 258.00" xmlns="http://www.w3.org/2000/svg" xmlns:xlink="http://www.w3.org/1999/xlink">
<g id="graph0" class="graph" transform="scale(1 1) rotate(0) translate(4 254)">
<title>include/helios/input/GamepadState.ixx</title>
<!-- Node1 -->
<g id="Node000001" class="node">
<title>Node1</title>
<g id="a_Node000001"><a xlink:title="Representation of current gamepad input state.">
<polygon fill="#999999" stroke="#666666" points="290,-250 178,-250 178,-220 290,-220 290,-250"/>
<text text-anchor="start" x="186" y="-238" font-family="Helvetica,sans-Serif" font-size="10.00">include/helios/input</text>
<text text-anchor="middle" x="234" y="-227" font-family="Helvetica,sans-Serif" font-size="10.00">/GamepadState.ixx</text>
</a>
</g>
</g>
<!-- Node2 -->
<g id="Node000002" class="node">
<title>Node2</title>
<g id="a_Node000002"><a xlink:title=" ">
<polygon fill="#e0e0e0" stroke="#999999" points="66,-184 2,-184 2,-165 66,-165 66,-184"/>
<text text-anchor="middle" x="34" y="-172" font-family="Helvetica,sans-Serif" font-size="10.00">algorithm</text>
</a>
</g>
</g>
<!-- Node1&#45;&gt;Node2 -->
<g id="edge1_Node000001_Node000002" class="edge">
<title>Node1&#45;&gt;Node2</title>
<g id="a_edge1_Node000001_Node000002"><a xlink:title=" ">
<path fill="none" stroke="#63b8ff" d="M186.1,-219.99C151.58,-209.89 105.58,-196.44 73.23,-186.98"/>
<polygon fill="#63b8ff" stroke="#63b8ff" points="73.82,-183.5 63.24,-184.05 71.86,-190.22 73.82,-183.5"/>
</a>
</g>
</g>
<!-- Node3 -->
<g id="Node000003" class="node">
<title>Node3</title>
<g id="a_Node000003"><a xlink:title=" ">
<polygon fill="#e0e0e0" stroke="#999999" points="206,-184 84,-184 84,-165 206,-165 206,-184"/>
<text text-anchor="middle" x="145" y="-172" font-family="Helvetica,sans-Serif" font-size="10.00">helios/helios_config.h</text>
</a>
</g>
</g>
<!-- Node1&#45;&gt;Node3 -->
<g id="edge2_Node000001_Node000003" class="edge">
<title>Node1&#45;&gt;Node3</title>
<g id="a_edge2_Node000001_Node000003"><a xlink:title=" ">
<path fill="none" stroke="#63b8ff" d="M212.46,-219.84C198.53,-210.68 180.47,-198.82 166.55,-189.66"/>
<polygon fill="#63b8ff" stroke="#63b8ff" points="168.35,-186.66 158.08,-184.09 164.51,-192.51 168.35,-186.66"/>
</a>
</g>
</g>
<!-- Node4 -->
<g id="Node000004" class="node">
<title>Node4</title>
<g id="a_Node000004"><a xlink:href="LogManager_8ixx.html" target="_top" xlink:title="Central manager for scoped loggers with configurable sinks.">
<polygon fill="white" stroke="#666666" points="408,-184 262,-184 262,-165 408,-165 408,-184"/>
<text text-anchor="middle" x="335" y="-172" font-family="Helvetica,sans-Serif" font-size="10.00">helios.util.log.LogManager</text>
</a>
</g>
</g>
<!-- Node1&#45;&gt;Node4 -->
<g id="edge3_Node000001_Node000004" class="edge">
<title>Node1&#45;&gt;Node4</title>
<g id="a_edge3_Node000001_Node000004"><a xlink:title=" ">
<path fill="none" stroke="#63b8ff" d="M258.19,-219.99C274.29,-210.66 295.34,-198.47 311.33,-189.21"/>
<polygon fill="#63b8ff" stroke="#63b8ff" points="313.19,-192.18 320.08,-184.14 309.68,-186.12 313.19,-192.18"/>
</a>
</g>
</g>
<!-- Node11 -->
<g id="Node000011" class="node">
<title>Node11</title>
<g id="a_Node000011"><a xlink:href="Logger_8ixx.html" target="_top" xlink:title="Simple synchronous logger with configurable output sinks.">
<polygon fill="white" stroke="#666666" points="231.5,-129 112.5,-129 112.5,-110 231.5,-110 231.5,-129"/>
<text text-anchor="middle" x="172" y="-117" font-family="Helvetica,sans-Serif" font-size="10.00">helios.util.log.Logger</text>
</a>
</g>
</g>
<!-- Node1&#45;&gt;Node11 -->
<g id="edge19_Node000001_Node000011" class="edge">
<title>Node1&#45;&gt;Node11</title>
<g id="a_edge19_Node000001_Node000011"><a xlink:title=" ">
<path fill="none" stroke="#63b8ff" d="M232.23,-219.99C229.93,-205.47 224.97,-182.48 215,-165 208.79,-154.11 199.3,-143.9 190.82,-136.02"/>
<polygon fill="#63b8ff" stroke="#63b8ff" points="192.94,-133.22 183.13,-129.22 188.31,-138.47 192.94,-133.22"/>
</a>
</g>
</g>
<!-- Node14 -->
<g id="Node000014" class="node">
<title>Node14</title>
<g id="a_Node000014"><a xlink:href="helios_2math_2types_2__module_8ixx.html" target="_top" xlink:title="Module exports for vector and matrix type definitions.">
<polygon fill="white" stroke="#666666" points="530,-184 426,-184 426,-165 530,-165 530,-184"/>
<text text-anchor="middle" x="478" y="-172" font-family="Helvetica,sans-Serif" font-size="10.00">helios.math.types</text>
</a>
</g>
</g>
<!-- Node1&#45;&gt;Node14 -->
<g id="edge20_Node000001_Node000014" class="edge">
<title>Node1&#45;&gt;Node14</title>
<g id="a_edge20_Node000001_Node000014"><a xlink:title=" ">
<path fill="none" stroke="#63b8ff" d="M290.28,-220.51C333.49,-210.15 392.37,-196.03 432.59,-186.39"/>
<polygon fill="#63b8ff" stroke="#63b8ff" points="433.49,-189.77 442.4,-184.04 431.86,-182.96 433.49,-189.77"/>
</a>
</g>
</g>
<!-- Node5 -->
<g id="Node000005" class="node">
<title>Node5</title>
<g id="a_Node000005"><a xlink:title=" ">
<polygon fill="#e0e0e0" stroke="#999999" points="252,-19 208,-19 208,0 252,0 252,-19"/>
<text text-anchor="middle" x="230" y="-7" font-family="Helvetica,sans-Serif" font-size="10.00">string</text>
</a>
</g>
</g>
<!-- Node4&#45;&gt;Node5 -->
<g id="edge4_Node000004_Node000005" class="edge">
<title>Node4&#45;&gt;Node5</title>
<g id="a_edge4_Node000004_Node000005"><a xlink:title=" ">
<path fill="none" stroke="#63b8ff" d="M405.01,-164.99C452.74,-157.8 510.37,-145.95 528,-129 552.19,-105.75 565,-80.34 543,-55 506.9,-13.4 335.03,-9.68 262.46,-10.01"/>
<polygon fill="#63b8ff" stroke="#63b8ff" points="262.07,-6.51 252.1,-10.09 262.12,-13.51 262.07,-6.51"/>
</a>
</g>
</g>
<!-- Node6 -->
<g id="Node000006" class="node">
<title>Node6</title>
<g id="a_Node000006"><a xlink:title=" ">
<polygon fill="#e0e0e0" stroke="#999999" points="381.5,-129 288.5,-129 288.5,-110 381.5,-110 381.5,-129"/>
<text text-anchor="middle" x="335" y="-117" font-family="Helvetica,sans-Serif" font-size="10.00">unordered_map</text>
</a>
</g>
</g>
<!-- Node4&#45;&gt;Node6 -->
<g id="edge5_Node000004_Node000006" class="edge">
<title>Node4&#45;&gt;Node6</title>
<g id="a_edge5_Node000004_Node000006"><a xlink:title=" ">
<path fill="none" stroke="#63b8ff" d="M335,-164.75C335,-157.8 335,-147.85 335,-139.13"/>
<polygon fill="#63b8ff" stroke="#63b8ff" points="338.5,-139.09 335,-129.09 331.5,-139.09 338.5,-139.09"/>
</a>
</g>
</g>
<!-- Node7 -->
<g id="Node000007" class="node">
<title>Node7</title>
<g id="a_Node000007"><a xlink:title=" ">
<polygon fill="#e0e0e0" stroke="#999999" points="486,-129 400,-129 400,-110 486,-110 486,-129"/>
<text text-anchor="middle" x="443" y="-117" font-family="Helvetica,sans-Serif" font-size="10.00">unordered_set</text>
</a>
</g>
</g>
<!-- Node4&#45;&gt;Node7 -->
<g id="edge6_Node000004_Node000007" class="edge">
<title>Node4&#45;&gt;Node7</title>
<g id="a_edge6_Node000004_Node000007"><a xlink:title=" ">
<path fill="none" stroke="#63b8ff" d="M352.35,-164.98C369.57,-156.54 396.2,-143.47 416.15,-133.68"/>
<polygon fill="#63b8ff" stroke="#63b8ff" points="417.9,-136.72 425.33,-129.17 414.81,-130.43 417.9,-136.72"/>
</a>
</g>
</g>
<!-- Node8 -->
<g id="Node000008" class="node">
<title>Node8</title>
<g id="a_Node000008"><a xlink:title=" ">
<polygon fill="#e0e0e0" stroke="#999999" points="316,-74 258,-74 258,-55 316,-55 316,-74"/>
<text text-anchor="middle" x="287" y="-62" font-family="Helvetica,sans-Serif" font-size="10.00">memory</text>
</a>
</g>
</g>
<!-- Node4&#45;&gt;Node8 -->
<g id="edge7_Node000004_Node000008" class="edge">
<title>Node4&#45;&gt;Node8</title>
<g id="a_edge7_Node000004_Node000008"><a xlink:title=" ">
<path fill="none" stroke="#63b8ff" d="M317.54,-164.88C304.53,-157.38 287.72,-145.18 280,-129 273.28,-114.92 276.06,-97.15 279.92,-83.99"/>
<polygon fill="#63b8ff" stroke="#63b8ff" points="283.35,-84.8 283.24,-74.2 276.72,-82.55 283.35,-84.8"/>
</a>
</g>
</g>
<!-- Node9 -->
<g id="Node000009" class="node">
<title>Node9</title>
<g id="a_Node000009"><a xlink:title=" ">
<polygon fill="#e0e0e0" stroke="#999999" points="411,-74 363,-74 363,-55 411,-55 411,-74"/>
<text text-anchor="middle" x="387" y="-62" font-family="Helvetica,sans-Serif" font-size="10.00">mutex</text>
</a>
</g>
</g>
<!-- Node4&#45;&gt;Node9 -->
<g id="edge8_Node000004_Node000009" class="edge">
<title>Node4&#45;&gt;Node9</title>
<g id="a_edge8_Node000004_Node000009"><a xlink:title=" ">
<path fill="none" stroke="#63b8ff" d="M392.44,-164.97C433.04,-157.63 482.4,-145.59 495,-129 517.76,-99.05 460.48,-80.58 420.91,-71.76"/>
<polygon fill="#63b8ff" stroke="#63b8ff" points="421.56,-68.32 411.05,-69.67 420.11,-75.16 421.56,-68.32"/>
</a>
</g>
</g>
<!-- Node10 -->
<g id="Node000010" class="node">
<title>Node10</title>
<g id="a_Node000010"><a xlink:title=" ">
<polygon fill="#e0e0e0" stroke="#999999" points="533.5,-74 486.5,-74 486.5,-55 533.5,-55 533.5,-74"/>
<text text-anchor="middle" x="510" y="-62" font-family="Helvetica,sans-Serif" font-size="10.00">vector</text>
</a>
</g>
</g>
<!-- Node4&#45;&gt;Node10 -->
<g id="edge9_Node000004_Node000010" class="edge">
<title>Node4&#45;&gt;Node10</title>
<g id="a_edge9_Node000004_Node000010"><a xlink:title=" ">
<path fill="none" stroke="#63b8ff" d="M403.25,-164.94C446.81,-157.92 497.54,-146.28 511,-129 520.73,-116.51 519.23,-98.05 516.03,-84.25"/>
<polygon fill="#63b8ff" stroke="#63b8ff" points="519.34,-83.08 513.29,-74.38 512.6,-84.95 519.34,-83.08"/>
</a>
</g>
</g>
<!-- Node4&#45;&gt;Node11 -->
<g id="edge10_Node000004_Node000011" class="edge">
<title>Node4&#45;&gt;Node11</title>
<g id="a_edge10_Node000004_Node000011"><a xlink:title=" ">
<path fill="none" stroke="#63b8ff" d="M308.81,-164.98C281.56,-156.13 238.7,-142.19 208.22,-132.28"/>
<polygon fill="#63b8ff" stroke="#63b8ff" points="208.99,-128.85 198.39,-129.08 206.82,-135.5 208.99,-128.85"/>
</a>
</g>
</g>
<!-- Node13 -->
<g id="Node000013" class="node">
<title>Node13</title>
<g id="a_Node000013"><a xlink:href="LogSink_8ixx.html" target="_top" xlink:title="Abstract interface for log output destinations.">
<polygon fill="white" stroke="#666666" points="124,-74 0,-74 0,-55 124,-55 124,-74"/>
<text text-anchor="middle" x="62" y="-62" font-family="Helvetica,sans-Serif" font-size="10.00">helios.util.log.LogSink</text>
</a>
</g>
</g>
<!-- Node4&#45;&gt;Node13 -->
<g id="edge18_Node000004_Node000013" class="edge">
<title>Node4&#45;&gt;Node13</title>
<g id="a_edge18_Node000004_Node000013"><a xlink:title=" ">
<path fill="none" stroke="#63b8ff" d="M261.8,-165.64C204.16,-158.32 129.44,-145.97 104,-129 87.54,-118.02 75.97,-98.17 69.2,-83.58"/>
<polygon fill="#63b8ff" stroke="#63b8ff" points="72.28,-81.89 65.12,-74.09 65.85,-84.66 72.28,-81.89"/>
</a>
</g>
</g>
<!-- Node11&#45;&gt;Node5 -->
<g id="edge12_Node000011_Node000005" class="edge">
<title>Node11&#45;&gt;Node5</title>
<g id="a_edge12_Node000011_Node000005"><a xlink:title=" ">
<path fill="none" stroke="#63b8ff" d="M181.65,-109.85C190.46,-101.48 203.24,-88.02 211,-74 218.75,-59.98 223.69,-42.43 226.59,-29.33"/>
<polygon fill="#63b8ff" stroke="#63b8ff" points="230.09,-29.67 228.62,-19.17 223.23,-28.29 230.09,-29.67"/>
</a>
</g>
</g>
<!-- Node11&#45;&gt;Node8 -->
<g id="edge14_Node000011_Node000008" class="edge">
<title>Node11&#45;&gt;Node8</title>
<g id="a_edge14_Node000011_Node000008"><a xlink:title=" ">
<path fill="none" stroke="#63b8ff" d="M190.48,-109.98C208.98,-101.46 237.68,-88.23 258.98,-78.41"/>
<polygon fill="#63b8ff" stroke="#63b8ff" points="260.57,-81.53 268.19,-74.17 257.64,-75.18 260.57,-81.53"/>
</a>
</g>
</g>
<!-- Node11&#45;&gt;Node9 -->
<g id="edge15_Node000011_Node000009" class="edge">
<title>Node11&#45;&gt;Node9</title>
<g id="a_edge15_Node000011_Node000009"><a xlink:title=" ">
<path fill="none" stroke="#63b8ff" d="M206.54,-109.98C246.84,-100.05 313.02,-83.74 353.06,-73.87"/>
<polygon fill="#63b8ff" stroke="#63b8ff" points="354.01,-77.24 362.88,-71.45 352.34,-70.44 354.01,-77.24"/>
</a>
</g>
</g>
<!-- Node11&#45;&gt;Node10 -->
<g id="edge13_Node000011_Node000010" class="edge">
<title>Node11&#45;&gt;Node10</title>
<g id="a_edge13_Node000011_Node000010"><a xlink:title=" ">
<path fill="none" stroke="#63b8ff" d="M226.31,-109.98C296.75,-98.94 417.54,-80 476.14,-70.81"/>
<polygon fill="#63b8ff" stroke="#63b8ff" points="476.99,-74.22 486.33,-69.21 475.91,-67.3 476.99,-74.22"/>
</a>
</g>
</g>
<!-- Node12 -->
<g id="Node000012" class="node">
<title>Node12</title>
<g id="a_Node000012"><a xlink:title=" ">
<polygon fill="#e0e0e0" stroke="#999999" points="202,-74 142,-74 142,-55 202,-55 202,-74"/>
<text text-anchor="middle" x="172" y="-62" font-family="Helvetica,sans-Serif" font-size="10.00">iostream</text>
</a>
</g>
</g>
<!-- Node11&#45;&gt;Node12 -->
<g id="edge11_Node000011_Node000012" class="edge">
<title>Node11&#45;&gt;Node12</title>
<g id="a_edge11_Node000011_Node000012"><a xlink:title=" ">
<path fill="none" stroke="#63b8ff" d="M172,-109.75C172,-102.8 172,-92.85 172,-84.13"/>
<polygon fill="#63b8ff" stroke="#63b8ff" points="175.5,-84.09 172,-74.09 168.5,-84.09 175.5,-84.09"/>
</a>
</g>
</g>
<!-- Node11&#45;&gt;Node13 -->
<g id="edge16_Node000011_Node000013" class="edge">
<title>Node11&#45;&gt;Node13</title>
<g id="a_edge16_Node000011_Node000013"><a xlink:title=" ">
<path fill="none" stroke="#63b8ff" d="M154.33,-109.98C136.71,-101.5 109.42,-88.35 89.07,-78.54"/>
<polygon fill="#63b8ff" stroke="#63b8ff" points="90.52,-75.36 79.99,-74.17 87.48,-81.66 90.52,-75.36"/>
</a>
</g>
</g>
<!-- Node13&#45;&gt;Node5 -->
<g id="edge17_Node000013_Node000005" class="edge">
<title>Node13&#45;&gt;Node5</title>
<g id="a_edge17_Node000013_Node000005"><a xlink:title=" ">
<path fill="none" stroke="#63b8ff" d="M88.99,-54.98C118.79,-45.58 166.7,-30.47 198.27,-20.51"/>
<polygon fill="#63b8ff" stroke="#63b8ff" points="199.42,-23.82 207.9,-17.47 197.31,-17.14 199.42,-23.82"/>
</a>
</g>
</g>
<!-- Node14&#45;&gt;Node14 -->
<g id="edge21_Node000014_Node000014" class="edge">
<title>Node14&#45;&gt;Node14</title>
<g id="a_edge21_Node000014_Node000014"><a xlink:title=" ">
<path fill="none" stroke="#63b8ff" d="M510.77,-184.03C530,-186.06 548,-182.88 548,-174.5 548,-167.62 535.89,-164.25 520.92,-164.38"/>
<polygon fill="#63b8ff" stroke="#63b8ff" points="520.55,-160.89 510.77,-164.97 520.95,-167.88 520.55,-160.89"/>
</a>
</g>
</g>
</g>
</svg>
