<?xml version="1.0" encoding="UTF-8" standalone="no"?>
<!DOCTYPE svg PUBLIC "-//W3C//DTD SVG 1.1//EN"
 "http://www.w3.org/Graphics/SVG/1.1/DTD/svg11.dtd">
<!-- Generated by graphviz version 2.43.0 (0)
 -->
<!-- Title: GameStateTransitionId.ixx Pages: 1 -->
<svg width="410pt" height="148pt"
 viewBox="0.00 0.00 410.23 148.00" xmlns="http://www.w3.org/2000/svg" xmlns:xlink="http://www.w3.org/1999/xlink">
<g id="graph0" class="graph" transform="scale(1 1) rotate(0) translate(4 144)">
<title>GameStateTransitionId.ixx</title>
<!-- Node1 -->
<g id="Node000001" class="node">
<title>Node1</title>
<g id="a_Node000001"><a xlink:title="Identifiers for game state transitions.">
<polygon fill="#999999" stroke="#666666" points="200.73,-140 54.73,-140 54.73,-121 200.73,-121 200.73,-140"/>
<text text-anchor="middle" x="127.73" y="-128" font-family="Helvetica,sans-Serif" font-size="10.00">GameStateTransitionId.ixx</text>
</a>
</g>
</g>
<!-- Node2 -->
<g id="Node000002" class="node">
<title>Node2</title>
<g id="a_Node000002"><a xlink:title=" ">
<polygon fill="#e0e0e0" stroke="#999999" points="152.73,-19 102.73,-19 102.73,0 152.73,0 152.73,-19"/>
<text text-anchor="middle" x="127.73" y="-7" font-family="Helvetica,sans-Serif" font-size="10.00">cstdint</text>
</a>
</g>
</g>
<!-- Node1&#45;&gt;Node2 -->
<g id="edge1_Node000001_Node000002" class="edge">
<title>Node1&#45;&gt;Node2</title>
<g id="a_edge1_Node000001_Node000002"><a xlink:title=" ">
<path fill="none" stroke="#63b8ff" d="M62.4,-120.93C40.75,-114.63 18.85,-103.75 5.73,-85 -1.91,-74.08 -1.91,-65.92 5.73,-55 25.19,-27.2 63.94,-16.7 92.57,-12.78"/>
<polygon fill="#63b8ff" stroke="#63b8ff" points="93.08,-16.24 102.61,-11.61 92.27,-9.29 93.08,-16.24"/>
</a>
</g>
</g>
<!-- Node3 -->
<g id="Node000003" class="node">
<title>Node3</title>
<g id="a_Node000003"><a xlink:href="StateTransitionId_8ixx.html" target="_top" xlink:title="Type trait for mapping state types to transition ID types.">
<polygon fill="white" stroke="#666666" points="402.23,-85 259.23,-85 259.23,-55 402.23,-55 402.23,-85"/>
<text text-anchor="start" x="267.23" y="-73" font-family="Helvetica,sans-Serif" font-size="10.00">helios.engine.state.types.</text>
<text text-anchor="middle" x="330.73" y="-62" font-family="Helvetica,sans-Serif" font-size="10.00">StateTransitionId</text>
</a>
</g>
</g>
<!-- Node1&#45;&gt;Node3 -->
<g id="edge2_Node000001_Node000003" class="edge">
<title>Node1&#45;&gt;Node3</title>
<g id="a_edge2_Node000001_Node000003"><a xlink:title=" ">
<path fill="none" stroke="#63b8ff" d="M157.25,-120.99C187.23,-112.35 234.47,-98.74 272.09,-87.9"/>
<polygon fill="#63b8ff" stroke="#63b8ff" points="273.29,-91.2 281.93,-85.06 271.35,-84.47 273.29,-91.2"/>
</a>
</g>
</g>
<!-- Node5 -->
<g id="Node000005" class="node">
<title>Node5</title>
<g id="a_Node000005"><a xlink:href="GameState_8ixx.html" target="_top" xlink:title="Game state enumeration and bitmask operations.">
<polygon fill="white" stroke="#666666" points="240.73,-85 14.73,-85 14.73,-55 240.73,-55 240.73,-85"/>
<text text-anchor="start" x="22.73" y="-73" font-family="Helvetica,sans-Serif" font-size="10.00">helios.engine.mechanics.gamestate.types.</text>
<text text-anchor="middle" x="127.73" y="-62" font-family="Helvetica,sans-Serif" font-size="10.00">GameState</text>
</a>
</g>
</g>
<!-- Node1&#45;&gt;Node5 -->
<g id="edge5_Node000001_Node000005" class="edge">
<title>Node1&#45;&gt;Node5</title>
<g id="a_edge5_Node000001_Node000005"><a xlink:title=" ">
<path fill="none" stroke="#63b8ff" d="M127.73,-120.87C127.73,-114.11 127.73,-104.35 127.73,-95.26"/>
<polygon fill="#63b8ff" stroke="#63b8ff" points="131.23,-95.11 127.73,-85.11 124.23,-95.11 131.23,-95.11"/>
</a>
</g>
</g>
<!-- Node3&#45;&gt;Node2 -->
<g id="edge3_Node000003_Node000002" class="edge">
<title>Node3&#45;&gt;Node2</title>
<g id="a_edge3_Node000003_Node000002"><a xlink:title=" ">
<path fill="none" stroke="#63b8ff" d="M282.11,-54.99C245.22,-44.36 195.41,-30 162.47,-20.51"/>
<polygon fill="#63b8ff" stroke="#63b8ff" points="163.39,-17.13 152.82,-17.73 161.46,-23.86 163.39,-17.13"/>
</a>
</g>
</g>
<!-- Node4 -->
<g id="Node000004" class="node">
<title>Node4</title>
<g id="a_Node000004"><a xlink:title=" ">
<polygon fill="#e0e0e0" stroke="#999999" points="365.23,-19 296.23,-19 296.23,0 365.23,0 365.23,-19"/>
<text text-anchor="middle" x="330.73" y="-7" font-family="Helvetica,sans-Serif" font-size="10.00">type_traits</text>
</a>
</g>
</g>
<!-- Node3&#45;&gt;Node4 -->
<g id="edge4_Node000003_Node000004" class="edge">
<title>Node3&#45;&gt;Node4</title>
<g id="a_edge4_Node000003_Node000004"><a xlink:title=" ">
<path fill="none" stroke="#63b8ff" d="M330.73,-54.84C330.73,-47.21 330.73,-37.7 330.73,-29.45"/>
<polygon fill="#63b8ff" stroke="#63b8ff" points="334.23,-29.27 330.73,-19.27 327.23,-29.27 334.23,-29.27"/>
</a>
</g>
</g>
<!-- Node5&#45;&gt;Node2 -->
<g id="edge6_Node000005_Node000002" class="edge">
<title>Node5&#45;&gt;Node2</title>
<g id="a_edge6_Node000005_Node000002"><a xlink:title=" ">
<path fill="none" stroke="#63b8ff" d="M127.73,-54.84C127.73,-47.21 127.73,-37.7 127.73,-29.45"/>
<polygon fill="#63b8ff" stroke="#63b8ff" points="131.23,-29.27 127.73,-19.27 124.23,-29.27 131.23,-29.27"/>
</a>
</g>
</g>
</g>
</svg>
