<?xml version="1.0" encoding="UTF-8" standalone="no"?>
<!DOCTYPE svg PUBLIC "-//W3C//DTD SVG 1.1//EN"
 "http://www.w3.org/Graphics/SVG/1.1/DTD/svg11.dtd">
<!-- Generated by graphviz version 2.43.0 (0)
 -->
<!-- Title: GameTimerId.ixx Pages: 1 -->
<svg width="529pt" height="247pt"
 viewBox="0.00 0.00 529.01 247.00" xmlns="http://www.w3.org/2000/svg" xmlns:xlink="http://www.w3.org/1999/xlink">
<g id="graph0" class="graph" transform="scale(1 1) rotate(0) translate(4 243)">
<title>GameTimerId.ixx</title>
<!-- Node1 -->
<g id="Node000001" class="node">
<title>Node1</title>
<g id="a_Node000001"><a xlink:title="Strongly&#45;typed identifier for gameTimers.">
<polygon fill="#999999" stroke="#666666" points="248.01,-239 147.01,-239 147.01,-220 248.01,-220 248.01,-239"/>
<text text-anchor="middle" x="197.51" y="-227" font-family="Helvetica,sans-Serif" font-size="10.00">GameTimerId.ixx</text>
</a>
</g>
</g>
<!-- Node2 -->
<g id="Node000002" class="node">
<title>Node2</title>
<g id="a_Node000002"><a xlink:title=" ">
<polygon fill="#e0e0e0" stroke="#999999" points="274.51,-19 224.51,-19 224.51,0 274.51,0 274.51,-19"/>
<text text-anchor="middle" x="249.51" y="-7" font-family="Helvetica,sans-Serif" font-size="10.00">cstdint</text>
</a>
</g>
</g>
<!-- Node1&#45;&gt;Node2 -->
<g id="edge1_Node000001_Node000002" class="edge">
<title>Node1&#45;&gt;Node2</title>
<g id="a_edge1_Node000001_Node000002"><a xlink:title=" ">
<path fill="none" stroke="#63b8ff" d="M146.83,-220.16C81.28,-206.66 -21.6,-174.72 4.51,-110 36.92,-29.67 154.63,-13.7 214.31,-10.86"/>
<polygon fill="#63b8ff" stroke="#63b8ff" points="214.54,-14.35 224.4,-10.48 214.28,-7.36 214.54,-14.35"/>
</a>
</g>
</g>
<!-- Node3 -->
<g id="Node000003" class="node">
<title>Node3</title>
<g id="a_Node000003"><a xlink:title=" ">
<polygon fill="#e0e0e0" stroke="#999999" points="221.01,-74 148.01,-74 148.01,-55 221.01,-55 221.01,-74"/>
<text text-anchor="middle" x="184.51" y="-62" font-family="Helvetica,sans-Serif" font-size="10.00">string_view</text>
</a>
</g>
</g>
<!-- Node1&#45;&gt;Node3 -->
<g id="edge2_Node000001_Node000003" class="edge">
<title>Node1&#45;&gt;Node3</title>
<g id="a_edge2_Node000001_Node000003"><a xlink:title=" ">
<path fill="none" stroke="#63b8ff" d="M196.81,-219.74C194.79,-194.31 188.86,-120.08 186.04,-84.69"/>
<polygon fill="#63b8ff" stroke="#63b8ff" points="189.5,-84 185.21,-74.31 182.52,-84.55 189.5,-84"/>
</a>
</g>
</g>
<!-- Node4 -->
<g id="Node000004" class="node">
<title>Node4</title>
<g id="a_Node000004"><a xlink:href="helios_2core_2data_2__module_8ixx.html" target="_top" xlink:title="Aggregate module for helios::core::data namespace.">
<polygon fill="white" stroke="#666666" points="169.01,-184 74.01,-184 74.01,-165 169.01,-165 169.01,-184"/>
<text text-anchor="middle" x="121.51" y="-172" font-family="Helvetica,sans-Serif" font-size="10.00">helios.core.data</text>
</a>
</g>
</g>
<!-- Node1&#45;&gt;Node4 -->
<g id="edge3_Node000001_Node000004" class="edge">
<title>Node1&#45;&gt;Node4</title>
<g id="a_edge3_Node000001_Node000004"><a xlink:title=" ">
<path fill="none" stroke="#63b8ff" d="M185.3,-219.98C173.74,-211.92 156.14,-199.65 142.35,-190.03"/>
<polygon fill="#63b8ff" stroke="#63b8ff" points="144.15,-187.02 133.94,-184.17 140.15,-192.76 144.15,-187.02"/>
</a>
</g>
</g>
<!-- Node6 -->
<g id="Node000006" class="node">
<title>Node6</title>
<g id="a_Node000006"><a xlink:href="types_8ixx.html" target="_top" xlink:title="Core type definitions and tag types for the helios engine.">
<polygon fill="white" stroke="#666666" points="377.51,-74 277.51,-74 277.51,-55 377.51,-55 377.51,-74"/>
<text text-anchor="middle" x="327.51" y="-62" font-family="Helvetica,sans-Serif" font-size="10.00">helios.core.types</text>
</a>
</g>
</g>
<!-- Node1&#45;&gt;Node6 -->
<g id="edge13_Node000001_Node000006" class="edge">
<title>Node1&#45;&gt;Node6</title>
<g id="a_edge13_Node000001_Node000006"><a xlink:title=" ">
<path fill="none" stroke="#63b8ff" d="M232.64,-219.96C274.47,-207.7 342.46,-180.66 372.51,-129 382.75,-111.4 365.34,-92.51 349.28,-79.95"/>
<polygon fill="#63b8ff" stroke="#63b8ff" points="351.29,-77.09 341.16,-74 347.16,-82.74 351.29,-77.09"/>
</a>
</g>
</g>
<!-- Node7 -->
<g id="Node000007" class="node">
<title>Node7</title>
<g id="a_Node000007"><a xlink:href="algorithms_8ixx.html" target="_top" xlink:title="Core algorithms and hash functions for the helios engine.">
<polygon fill="white" stroke="#666666" points="521.01,-74 396.01,-74 396.01,-55 521.01,-55 521.01,-74"/>
<text text-anchor="middle" x="458.51" y="-62" font-family="Helvetica,sans-Serif" font-size="10.00">helios.core.algorithms</text>
</a>
</g>
</g>
<!-- Node1&#45;&gt;Node7 -->
<g id="edge14_Node000001_Node000007" class="edge">
<title>Node1&#45;&gt;Node7</title>
<g id="a_edge14_Node000001_Node000007"><a xlink:title=" ">
<path fill="none" stroke="#63b8ff" d="M246.05,-219.94C275.48,-213.26 312.94,-202.01 342.51,-184 387.41,-156.66 427.27,-108.05 446.44,-82.41"/>
<polygon fill="#63b8ff" stroke="#63b8ff" points="449.45,-84.22 452.54,-74.08 443.8,-80.08 449.45,-84.22"/>
</a>
</g>
</g>
<!-- Node5 -->
<g id="Node000005" class="node">
<title>Node5</title>
<g id="a_Node000005"><a xlink:href="StrongId_8ixx.html" target="_top" xlink:title="Strongly&#45;typed identifier template.">
<polygon fill="white" stroke="#666666" points="363.51,-129 225.51,-129 225.51,-110 363.51,-110 363.51,-129"/>
<text text-anchor="middle" x="294.51" y="-117" font-family="Helvetica,sans-Serif" font-size="10.00">helios.core.data.StrongId</text>
</a>
</g>
</g>
<!-- Node4&#45;&gt;Node5 -->
<g id="edge4_Node000004_Node000005" class="edge">
<title>Node4&#45;&gt;Node5</title>
<g id="a_edge4_Node000004_Node000005"><a xlink:title=" ">
<path fill="none" stroke="#63b8ff" d="M149.31,-164.98C178.48,-156.05 224.51,-141.94 256.91,-132.02"/>
<polygon fill="#63b8ff" stroke="#63b8ff" points="257.96,-135.36 266.5,-129.08 255.91,-128.66 257.96,-135.36"/>
</a>
</g>
</g>
<!-- Node9 -->
<g id="Node000009" class="node">
<title>Node9</title>
<g id="a_Node000009"><a xlink:href="TypeIndexer_8ixx.html" target="_top" xlink:title="Utility for generating unique type indices at runtime.">
<polygon fill="white" stroke="#666666" points="169.51,-129 13.51,-129 13.51,-110 169.51,-110 169.51,-129"/>
<text text-anchor="middle" x="91.51" y="-117" font-family="Helvetica,sans-Serif" font-size="10.00">helios.core.data.TypeIndexer</text>
</a>
</g>
</g>
<!-- Node4&#45;&gt;Node9 -->
<g id="edge11_Node000004_Node000009" class="edge">
<title>Node4&#45;&gt;Node9</title>
<g id="a_edge11_Node000004_Node000009"><a xlink:title=" ">
<path fill="none" stroke="#63b8ff" d="M116.56,-164.75C112.45,-157.49 106.49,-146.95 101.41,-137.98"/>
<polygon fill="#63b8ff" stroke="#63b8ff" points="104.35,-136.07 96.37,-129.09 98.25,-139.52 104.35,-136.07"/>
</a>
</g>
</g>
<!-- Node5&#45;&gt;Node2 -->
<g id="edge5_Node000005_Node000002" class="edge">
<title>Node5&#45;&gt;Node2</title>
<g id="a_edge5_Node000005_Node000002"><a xlink:title=" ">
<path fill="none" stroke="#63b8ff" d="M288.69,-109.96C282.95,-101.23 274.22,-87.13 268.51,-74 262.2,-59.47 257.18,-42.2 253.89,-29.34"/>
<polygon fill="#63b8ff" stroke="#63b8ff" points="257.23,-28.25 251.46,-19.36 250.43,-29.91 257.23,-28.25"/>
</a>
</g>
</g>
<!-- Node5&#45;&gt;Node3 -->
<g id="edge6_Node000005_Node000003" class="edge">
<title>Node5&#45;&gt;Node3</title>
<g id="a_edge6_Node000005_Node000003"><a xlink:title=" ">
<path fill="none" stroke="#63b8ff" d="M276.84,-109.98C259.22,-101.5 231.93,-88.35 211.59,-78.54"/>
<polygon fill="#63b8ff" stroke="#63b8ff" points="213.03,-75.36 202.51,-74.17 210,-81.66 213.03,-75.36"/>
</a>
</g>
</g>
<!-- Node5&#45;&gt;Node6 -->
<g id="edge7_Node000005_Node000006" class="edge">
<title>Node5&#45;&gt;Node6</title>
<g id="a_edge7_Node000005_Node000006"><a xlink:title=" ">
<path fill="none" stroke="#63b8ff" d="M299.96,-109.75C304.53,-102.42 311.18,-91.73 316.81,-82.7"/>
<polygon fill="#63b8ff" stroke="#63b8ff" points="319.85,-84.43 322.16,-74.09 313.91,-80.73 319.85,-84.43"/>
</a>
</g>
</g>
<!-- Node5&#45;&gt;Node7 -->
<g id="edge8_Node000005_Node000007" class="edge">
<title>Node5&#45;&gt;Node7</title>
<g id="a_edge8_Node000005_Node000007"><a xlink:title=" ">
<path fill="none" stroke="#63b8ff" d="M320.86,-109.98C348.28,-101.13 391.4,-87.19 422.07,-77.28"/>
<polygon fill="#63b8ff" stroke="#63b8ff" points="423.52,-80.49 431.96,-74.08 421.36,-73.83 423.52,-80.49"/>
</a>
</g>
</g>
<!-- Node7&#45;&gt;Node2 -->
<g id="edge9_Node000007_Node000002" class="edge">
<title>Node7&#45;&gt;Node2</title>
<g id="a_edge9_Node000007_Node000002"><a xlink:title=" ">
<path fill="none" stroke="#63b8ff" d="M424.93,-54.98C386.48,-45.23 323.78,-29.33 284.68,-19.42"/>
<polygon fill="#63b8ff" stroke="#63b8ff" points="285.35,-15.98 274.79,-16.91 283.62,-22.76 285.35,-15.98"/>
</a>
</g>
</g>
<!-- Node8 -->
<g id="Node000008" class="node">
<title>Node8</title>
<g id="a_Node000008"><a xlink:title=" ">
<polygon fill="#e0e0e0" stroke="#999999" points="480.51,-19 436.51,-19 436.51,0 480.51,0 480.51,-19"/>
<text text-anchor="middle" x="458.51" y="-7" font-family="Helvetica,sans-Serif" font-size="10.00">string</text>
</a>
</g>
</g>
<!-- Node7&#45;&gt;Node8 -->
<g id="edge10_Node000007_Node000008" class="edge">
<title>Node7&#45;&gt;Node8</title>
<g id="a_edge10_Node000007_Node000008"><a xlink:title=" ">
<path fill="none" stroke="#63b8ff" d="M458.51,-54.75C458.51,-47.8 458.51,-37.85 458.51,-29.13"/>
<polygon fill="#63b8ff" stroke="#63b8ff" points="462.01,-29.09 458.51,-19.09 455.01,-29.09 462.01,-29.09"/>
</a>
</g>
</g>
<!-- Node10 -->
<g id="Node000010" class="node">
<title>Node10</title>
<g id="a_Node000010"><a xlink:title=" ">
<polygon fill="#e0e0e0" stroke="#999999" points="116.51,-74 66.51,-74 66.51,-55 116.51,-55 116.51,-74"/>
<text text-anchor="middle" x="91.51" y="-62" font-family="Helvetica,sans-Serif" font-size="10.00">atomic</text>
</a>
</g>
</g>
<!-- Node9&#45;&gt;Node10 -->
<g id="edge12_Node000009_Node000010" class="edge">
<title>Node9&#45;&gt;Node10</title>
<g id="a_edge12_Node000009_Node000010"><a xlink:title=" ">
<path fill="none" stroke="#63b8ff" d="M91.51,-109.75C91.51,-102.8 91.51,-92.85 91.51,-84.13"/>
<polygon fill="#63b8ff" stroke="#63b8ff" points="95.01,-84.09 91.51,-74.09 88.01,-84.09 95.01,-84.09"/>
</a>
</g>
</g>
</g>
</svg>
