<?xml version="1.0" encoding="UTF-8" standalone="no"?>
<!DOCTYPE svg PUBLIC "-//W3C//DTD SVG 1.1//EN"
 "http://www.w3.org/Graphics/SVG/1.1/DTD/svg11.dtd">
<!-- Generated by graphviz version 2.43.0 (0)
 -->
<!-- Title: GameObjectPoolId.ixx Pages: 1 -->
<svg width="529pt" height="247pt"
 viewBox="0.00 0.00 529.00 247.00" xmlns="http://www.w3.org/2000/svg" xmlns:xlink="http://www.w3.org/1999/xlink">
<g id="graph0" class="graph" transform="scale(1 1) rotate(0) translate(4 243)">
<title>GameObjectPoolId.ixx</title>
<!-- Node1 -->
<g id="Node000001" class="node">
<title>Node1</title>
<g id="a_Node000001"><a xlink:title="Strongly&#45;typed identifier for GameObjectPool instances.">
<polygon fill="#999999" stroke="#666666" points="260,-239 135,-239 135,-220 260,-220 260,-239"/>
<text text-anchor="middle" x="197.5" y="-227" font-family="Helvetica,sans-Serif" font-size="10.00">GameObjectPoolId.ixx</text>
</a>
</g>
</g>
<!-- Node2 -->
<g id="Node000002" class="node">
<title>Node2</title>
<g id="a_Node000002"><a xlink:title=" ">
<polygon fill="#e0e0e0" stroke="#999999" points="274.5,-19 224.5,-19 224.5,0 274.5,0 274.5,-19"/>
<text text-anchor="middle" x="249.5" y="-7" font-family="Helvetica,sans-Serif" font-size="10.00">cstdint</text>
</a>
</g>
</g>
<!-- Node1&#45;&gt;Node2 -->
<g id="edge1_Node000001_Node000002" class="edge">
<title>Node1&#45;&gt;Node2</title>
<g id="a_edge1_Node000001_Node000002"><a xlink:title=" ">
<path fill="none" stroke="#63b8ff" d="M145.99,-219.99C80.41,-206.39 -21.5,-174.45 4.5,-110 36.91,-29.67 154.62,-13.7 214.3,-10.86"/>
<polygon fill="#63b8ff" stroke="#63b8ff" points="214.53,-14.35 224.39,-10.48 214.27,-7.36 214.53,-14.35"/>
</a>
</g>
</g>
<!-- Node3 -->
<g id="Node000003" class="node">
<title>Node3</title>
<g id="a_Node000003"><a xlink:title=" ">
<polygon fill="#e0e0e0" stroke="#999999" points="221,-74 148,-74 148,-55 221,-55 221,-74"/>
<text text-anchor="middle" x="184.5" y="-62" font-family="Helvetica,sans-Serif" font-size="10.00">string_view</text>
</a>
</g>
</g>
<!-- Node1&#45;&gt;Node3 -->
<g id="edge2_Node000001_Node000003" class="edge">
<title>Node1&#45;&gt;Node3</title>
<g id="a_edge2_Node000001_Node000003"><a xlink:title=" ">
<path fill="none" stroke="#63b8ff" d="M196.8,-219.74C194.77,-194.31 188.85,-120.08 186.03,-84.69"/>
<polygon fill="#63b8ff" stroke="#63b8ff" points="189.49,-84 185.2,-74.31 182.51,-84.55 189.49,-84"/>
</a>
</g>
</g>
<!-- Node4 -->
<g id="Node000004" class="node">
<title>Node4</title>
<g id="a_Node000004"><a xlink:href="helios_2core_2data_2__module_8ixx.html" target="_top" xlink:title="Aggregate module for helios::core::data namespace.">
<polygon fill="white" stroke="#666666" points="169,-184 74,-184 74,-165 169,-165 169,-184"/>
<text text-anchor="middle" x="121.5" y="-172" font-family="Helvetica,sans-Serif" font-size="10.00">helios.core.data</text>
</a>
</g>
</g>
<!-- Node1&#45;&gt;Node4 -->
<g id="edge3_Node000001_Node000004" class="edge">
<title>Node1&#45;&gt;Node4</title>
<g id="a_edge3_Node000001_Node000004"><a xlink:title=" ">
<path fill="none" stroke="#63b8ff" d="M185.29,-219.98C173.73,-211.92 156.13,-199.65 142.34,-190.03"/>
<polygon fill="#63b8ff" stroke="#63b8ff" points="144.14,-187.02 133.93,-184.17 140.13,-192.76 144.14,-187.02"/>
</a>
</g>
</g>
<!-- Node6 -->
<g id="Node000006" class="node">
<title>Node6</title>
<g id="a_Node000006"><a xlink:href="types_8ixx.html" target="_top" xlink:title="Core type definitions and tag types for the helios engine.">
<polygon fill="white" stroke="#666666" points="377.5,-74 277.5,-74 277.5,-55 377.5,-55 377.5,-74"/>
<text text-anchor="middle" x="327.5" y="-62" font-family="Helvetica,sans-Serif" font-size="10.00">helios.core.types</text>
</a>
</g>
</g>
<!-- Node1&#45;&gt;Node6 -->
<g id="edge13_Node000001_Node000006" class="edge">
<title>Node1&#45;&gt;Node6</title>
<g id="a_edge13_Node000001_Node000006"><a xlink:title=" ">
<path fill="none" stroke="#63b8ff" d="M232.63,-219.96C274.46,-207.7 342.45,-180.66 372.5,-129 382.74,-111.4 365.32,-92.51 349.27,-79.95"/>
<polygon fill="#63b8ff" stroke="#63b8ff" points="351.28,-77.09 341.15,-74 347.15,-82.74 351.28,-77.09"/>
</a>
</g>
</g>
<!-- Node7 -->
<g id="Node000007" class="node">
<title>Node7</title>
<g id="a_Node000007"><a xlink:href="algorithms_8ixx.html" target="_top" xlink:title="Core algorithms and hash functions for the helios engine.">
<polygon fill="white" stroke="#666666" points="521,-74 396,-74 396,-55 521,-55 521,-74"/>
<text text-anchor="middle" x="458.5" y="-62" font-family="Helvetica,sans-Serif" font-size="10.00">helios.core.algorithms</text>
</a>
</g>
</g>
<!-- Node1&#45;&gt;Node7 -->
<g id="edge14_Node000001_Node000007" class="edge">
<title>Node1&#45;&gt;Node7</title>
<g id="a_edge14_Node000001_Node000007"><a xlink:title=" ">
<path fill="none" stroke="#63b8ff" d="M246.04,-219.94C275.47,-213.26 312.93,-202.01 342.5,-184 387.4,-156.66 427.26,-108.05 446.43,-82.41"/>
<polygon fill="#63b8ff" stroke="#63b8ff" points="449.44,-84.22 452.53,-74.08 443.79,-80.08 449.44,-84.22"/>
</a>
</g>
</g>
<!-- Node5 -->
<g id="Node000005" class="node">
<title>Node5</title>
<g id="a_Node000005"><a xlink:href="StrongId_8ixx.html" target="_top" xlink:title="Strongly&#45;typed identifier template.">
<polygon fill="white" stroke="#666666" points="363.5,-129 225.5,-129 225.5,-110 363.5,-110 363.5,-129"/>
<text text-anchor="middle" x="294.5" y="-117" font-family="Helvetica,sans-Serif" font-size="10.00">helios.core.data.StrongId</text>
</a>
</g>
</g>
<!-- Node4&#45;&gt;Node5 -->
<g id="edge4_Node000004_Node000005" class="edge">
<title>Node4&#45;&gt;Node5</title>
<g id="a_edge4_Node000004_Node000005"><a xlink:title=" ">
<path fill="none" stroke="#63b8ff" d="M149.3,-164.98C178.47,-156.05 224.5,-141.94 256.9,-132.02"/>
<polygon fill="#63b8ff" stroke="#63b8ff" points="257.95,-135.36 266.49,-129.08 255.9,-128.66 257.95,-135.36"/>
</a>
</g>
</g>
<!-- Node9 -->
<g id="Node000009" class="node">
<title>Node9</title>
<g id="a_Node000009"><a xlink:href="TypeIndexer_8ixx.html" target="_top" xlink:title="Utility for generating unique type indices at runtime.">
<polygon fill="white" stroke="#666666" points="169.5,-129 13.5,-129 13.5,-110 169.5,-110 169.5,-129"/>
<text text-anchor="middle" x="91.5" y="-117" font-family="Helvetica,sans-Serif" font-size="10.00">helios.core.data.TypeIndexer</text>
</a>
</g>
</g>
<!-- Node4&#45;&gt;Node9 -->
<g id="edge11_Node000004_Node000009" class="edge">
<title>Node4&#45;&gt;Node9</title>
<g id="a_edge11_Node000004_Node000009"><a xlink:title=" ">
<path fill="none" stroke="#63b8ff" d="M116.55,-164.75C112.44,-157.49 106.48,-146.95 101.4,-137.98"/>
<polygon fill="#63b8ff" stroke="#63b8ff" points="104.33,-136.07 96.36,-129.09 98.24,-139.52 104.33,-136.07"/>
</a>
</g>
</g>
<!-- Node5&#45;&gt;Node2 -->
<g id="edge5_Node000005_Node000002" class="edge">
<title>Node5&#45;&gt;Node2</title>
<g id="a_edge5_Node000005_Node000002"><a xlink:title=" ">
<path fill="none" stroke="#63b8ff" d="M288.68,-109.96C282.94,-101.23 274.2,-87.13 268.5,-74 262.19,-59.47 257.17,-42.2 253.88,-29.34"/>
<polygon fill="#63b8ff" stroke="#63b8ff" points="257.22,-28.25 251.45,-19.36 250.42,-29.91 257.22,-28.25"/>
</a>
</g>
</g>
<!-- Node5&#45;&gt;Node3 -->
<g id="edge6_Node000005_Node000003" class="edge">
<title>Node5&#45;&gt;Node3</title>
<g id="a_edge6_Node000005_Node000003"><a xlink:title=" ">
<path fill="none" stroke="#63b8ff" d="M276.83,-109.98C259.21,-101.5 231.92,-88.35 211.58,-78.54"/>
<polygon fill="#63b8ff" stroke="#63b8ff" points="213.02,-75.36 202.5,-74.17 209.99,-81.66 213.02,-75.36"/>
</a>
</g>
</g>
<!-- Node5&#45;&gt;Node6 -->
<g id="edge7_Node000005_Node000006" class="edge">
<title>Node5&#45;&gt;Node6</title>
<g id="a_edge7_Node000005_Node000006"><a xlink:title=" ">
<path fill="none" stroke="#63b8ff" d="M299.95,-109.75C304.52,-102.42 311.17,-91.73 316.79,-82.7"/>
<polygon fill="#63b8ff" stroke="#63b8ff" points="319.84,-84.43 322.15,-74.09 313.9,-80.73 319.84,-84.43"/>
</a>
</g>
</g>
<!-- Node5&#45;&gt;Node7 -->
<g id="edge8_Node000005_Node000007" class="edge">
<title>Node5&#45;&gt;Node7</title>
<g id="a_edge8_Node000005_Node000007"><a xlink:title=" ">
<path fill="none" stroke="#63b8ff" d="M320.85,-109.98C348.27,-101.13 391.39,-87.19 422.06,-77.28"/>
<polygon fill="#63b8ff" stroke="#63b8ff" points="423.51,-80.49 431.95,-74.08 421.35,-73.83 423.51,-80.49"/>
</a>
</g>
</g>
<!-- Node7&#45;&gt;Node2 -->
<g id="edge9_Node000007_Node000002" class="edge">
<title>Node7&#45;&gt;Node2</title>
<g id="a_edge9_Node000007_Node000002"><a xlink:title=" ">
<path fill="none" stroke="#63b8ff" d="M424.92,-54.98C386.47,-45.23 323.77,-29.33 284.66,-19.42"/>
<polygon fill="#63b8ff" stroke="#63b8ff" points="285.34,-15.98 274.78,-16.91 283.61,-22.76 285.34,-15.98"/>
</a>
</g>
</g>
<!-- Node8 -->
<g id="Node000008" class="node">
<title>Node8</title>
<g id="a_Node000008"><a xlink:title=" ">
<polygon fill="#e0e0e0" stroke="#999999" points="480.5,-19 436.5,-19 436.5,0 480.5,0 480.5,-19"/>
<text text-anchor="middle" x="458.5" y="-7" font-family="Helvetica,sans-Serif" font-size="10.00">string</text>
</a>
</g>
</g>
<!-- Node7&#45;&gt;Node8 -->
<g id="edge10_Node000007_Node000008" class="edge">
<title>Node7&#45;&gt;Node8</title>
<g id="a_edge10_Node000007_Node000008"><a xlink:title=" ">
<path fill="none" stroke="#63b8ff" d="M458.5,-54.75C458.5,-47.8 458.5,-37.85 458.5,-29.13"/>
<polygon fill="#63b8ff" stroke="#63b8ff" points="462,-29.09 458.5,-19.09 455,-29.09 462,-29.09"/>
</a>
</g>
</g>
<!-- Node10 -->
<g id="Node000010" class="node">
<title>Node10</title>
<g id="a_Node000010"><a xlink:title=" ">
<polygon fill="#e0e0e0" stroke="#999999" points="116.5,-74 66.5,-74 66.5,-55 116.5,-55 116.5,-74"/>
<text text-anchor="middle" x="91.5" y="-62" font-family="Helvetica,sans-Serif" font-size="10.00">atomic</text>
</a>
</g>
</g>
<!-- Node9&#45;&gt;Node10 -->
<g id="edge12_Node000009_Node000010" class="edge">
<title>Node9&#45;&gt;Node10</title>
<g id="a_edge12_Node000009_Node000010"><a xlink:title=" ">
<path fill="none" stroke="#63b8ff" d="M91.5,-109.75C91.5,-102.8 91.5,-92.85 91.5,-84.13"/>
<polygon fill="#63b8ff" stroke="#63b8ff" points="95,-84.09 91.5,-74.09 88,-84.09 95,-84.09"/>
</a>
</g>
</g>
</g>
</svg>
