<?xml version="1.0" encoding="UTF-8" standalone="no"?>
<!DOCTYPE svg PUBLIC "-//W3C//DTD SVG 1.1//EN"
 "http://www.w3.org/Graphics/SVG/1.1/DTD/svg11.dtd">
<!-- Generated by graphviz version 2.43.0 (0)
 -->
<!-- Title: GameObjectPool.ixx Pages: 1 -->
<svg width="2256pt" height="335pt"
 viewBox="0.00 0.00 2256.00 335.00" xmlns="http://www.w3.org/2000/svg" xmlns:xlink="http://www.w3.org/1999/xlink">
<g id="graph0" class="graph" transform="scale(1 1) rotate(0) translate(4 331)">
<title>GameObjectPool.ixx</title>
<!-- Node1 -->
<g id="Node000001" class="node">
<title>Node1</title>
<g id="a_Node000001"><a xlink:title="Object pool for efficient GameObject management and recycling.">
<polygon fill="#999999" stroke="#666666" points="318,-327 202,-327 202,-308 318,-308 318,-327"/>
<text text-anchor="middle" x="260" y="-315" font-family="Helvetica,sans-Serif" font-size="10.00">GameObjectPool.ixx</text>
</a>
</g>
</g>
<!-- Node2 -->
<g id="Node000002" class="node">
<title>Node2</title>
<g id="a_Node000002"><a xlink:title=" ">
<polygon fill="#e0e0e0" stroke="#999999" points="58,-266.5 0,-266.5 0,-247.5 58,-247.5 58,-266.5"/>
<text text-anchor="middle" x="29" y="-254.5" font-family="Helvetica,sans-Serif" font-size="10.00">memory</text>
</a>
</g>
</g>
<!-- Node1&#45;&gt;Node2 -->
<g id="edge1_Node000001_Node000002" class="edge">
<title>Node1&#45;&gt;Node2</title>
<g id="a_edge1_Node000001_Node000002"><a xlink:title=" ">
<path fill="none" stroke="#63b8ff" d="M219.78,-307.99C181.55,-299.66 122.54,-286.18 72,-272 69.4,-271.27 66.72,-270.48 64.03,-269.67"/>
<polygon fill="#63b8ff" stroke="#63b8ff" points="64.95,-266.29 54.36,-266.64 62.86,-272.97 64.95,-266.29"/>
</a>
</g>
</g>
<!-- Node3 -->
<g id="Node000003" class="node">
<title>Node3</title>
<g id="a_Node000003"><a xlink:title=" ">
<polygon fill="#e0e0e0" stroke="#999999" points="434.5,-79.5 341.5,-79.5 341.5,-60.5 434.5,-60.5 434.5,-79.5"/>
<text text-anchor="middle" x="388" y="-67.5" font-family="Helvetica,sans-Serif" font-size="10.00">unordered_map</text>
</a>
</g>
</g>
<!-- Node1&#45;&gt;Node3 -->
<g id="edge2_Node000001_Node000003" class="edge">
<title>Node1&#45;&gt;Node3</title>
<g id="a_edge2_Node000001_Node000003"><a xlink:title=" ">
<path fill="none" stroke="#63b8ff" d="M205.55,-307.95C165.98,-300.5 117.3,-288.32 105,-272 96.98,-261.35 100.31,-254.48 105,-242 130.17,-175.08 150.55,-159.18 211,-121 232.08,-107.68 293.33,-92 337.88,-81.8"/>
<polygon fill="#63b8ff" stroke="#63b8ff" points="338.69,-85.21 347.67,-79.59 337.15,-78.38 338.69,-85.21"/>
</a>
</g>
</g>
<!-- Node4 -->
<g id="Node000004" class="node">
<title>Node4</title>
<g id="a_Node000004"><a xlink:title=" ">
<polygon fill="#e0e0e0" stroke="#999999" points="161.5,-266.5 114.5,-266.5 114.5,-247.5 161.5,-247.5 161.5,-266.5"/>
<text text-anchor="middle" x="138" y="-254.5" font-family="Helvetica,sans-Serif" font-size="10.00">vector</text>
</a>
</g>
</g>
<!-- Node1&#45;&gt;Node4 -->
<g id="edge3_Node000001_Node000004" class="edge">
<title>Node1&#45;&gt;Node4</title>
<g id="a_edge3_Node000001_Node000004"><a xlink:title=" ">
<path fill="none" stroke="#63b8ff" d="M242.26,-307.99C221.93,-298.25 188.39,-282.16 164.86,-270.88"/>
<polygon fill="#63b8ff" stroke="#63b8ff" points="166.29,-267.68 155.76,-266.52 163.26,-274 166.29,-267.68"/>
</a>
</g>
</g>
<!-- Node5 -->
<g id="Node000005" class="node">
<title>Node5</title>
<g id="a_Node000005"><a xlink:title=" ">
<polygon fill="#e0e0e0" stroke="#999999" points="232,-266.5 180,-266.5 180,-247.5 232,-247.5 232,-266.5"/>
<text text-anchor="middle" x="206" y="-254.5" font-family="Helvetica,sans-Serif" font-size="10.00">cassert</text>
</a>
</g>
</g>
<!-- Node1&#45;&gt;Node5 -->
<g id="edge4_Node000001_Node000005" class="edge">
<title>Node1&#45;&gt;Node5</title>
<g id="a_edge4_Node000001_Node000005"><a xlink:title=" ">
<path fill="none" stroke="#63b8ff" d="M252.03,-307.87C243.9,-299.05 231.07,-285.16 221.02,-274.27"/>
<polygon fill="#63b8ff" stroke="#63b8ff" points="223.36,-271.64 214,-266.67 218.21,-276.39 223.36,-271.64"/>
</a>
</g>
</g>
<!-- Node6 -->
<g id="Node000006" class="node">
<title>Node6</title>
<g id="a_Node000006"><a xlink:title=" ">
<polygon fill="#e0e0e0" stroke="#999999" points="309,-79.5 265,-79.5 265,-60.5 309,-60.5 309,-79.5"/>
<text text-anchor="middle" x="287" y="-67.5" font-family="Helvetica,sans-Serif" font-size="10.00">limits</text>
</a>
</g>
</g>
<!-- Node1&#45;&gt;Node6 -->
<g id="edge5_Node000001_Node000006" class="edge">
<title>Node1&#45;&gt;Node6</title>
<g id="a_edge5_Node000001_Node000006"><a xlink:title=" ">
<path fill="none" stroke="#63b8ff" d="M257.97,-307.73C254.69,-293.75 247.88,-265.58 241,-242 225.47,-188.81 184.71,-169.77 211,-121 220.46,-103.45 239.07,-91.05 255.5,-82.99"/>
<polygon fill="#63b8ff" stroke="#63b8ff" points="257.19,-86.07 264.84,-78.74 254.29,-79.7 257.19,-86.07"/>
</a>
</g>
</g>
<!-- Node7 -->
<g id="Node000007" class="node">
<title>Node7</title>
<g id="a_Node000007"><a xlink:title=" ">
<polygon fill="#e0e0e0" stroke="#999999" points="328,-266.5 288,-266.5 288,-247.5 328,-247.5 328,-266.5"/>
<text text-anchor="middle" x="308" y="-254.5" font-family="Helvetica,sans-Serif" font-size="10.00">span</text>
</a>
</g>
</g>
<!-- Node1&#45;&gt;Node7 -->
<g id="edge6_Node000001_Node000007" class="edge">
<title>Node1&#45;&gt;Node7</title>
<g id="a_edge6_Node000001_Node000007"><a xlink:title=" ">
<path fill="none" stroke="#63b8ff" d="M267.08,-307.87C274.24,-299.14 285.49,-285.43 294.39,-274.59"/>
<polygon fill="#63b8ff" stroke="#63b8ff" points="297.25,-276.62 300.89,-266.67 291.84,-272.18 297.25,-276.62"/>
</a>
</g>
</g>
<!-- Node8 -->
<g id="Node000008" class="node">
<title>Node8</title>
<g id="a_Node000008"><a xlink:href="helios_2engine_2core_2data_2__module_8ixx.html" target="_top" xlink:title="Aggregate module for helios::engine::core::data namespace.">
<polygon fill="white" stroke="#666666" points="1264.5,-206 1133.5,-206 1133.5,-187 1264.5,-187 1264.5,-206"/>
<text text-anchor="middle" x="1199" y="-194" font-family="Helvetica,sans-Serif" font-size="10.00">helios.engine.core.data</text>
</a>
</g>
</g>
<!-- Node1&#45;&gt;Node8 -->
<g id="edge7_Node000001_Node000008" class="edge">
<title>Node1&#45;&gt;Node8</title>
<g id="a_edge7_Node000001_Node000008"><a xlink:title=" ">
<path fill="none" stroke="#63b8ff" d="M318.03,-309.15C480.69,-288.53 941.03,-230.19 1123.32,-207.09"/>
<polygon fill="#63b8ff" stroke="#63b8ff" points="1123.88,-210.55 1133.36,-205.82 1123,-203.6 1123.88,-210.55"/>
</a>
</g>
</g>
<!-- Node32 -->
<g id="Node000032" class="node">
<title>Node32</title>
<g id="a_Node000032"><a xlink:href="EntityHandle_8ixx.html" target="_top" xlink:title="Versioned handle for referencing entities in an EntityPool.">
<polygon fill="white" stroke="#666666" points="1265.5,-272 1132.5,-272 1132.5,-242 1265.5,-242 1265.5,-272"/>
<text text-anchor="start" x="1140.5" y="-260" font-family="Helvetica,sans-Serif" font-size="10.00">helios.engine.ecs.Entity</text>
<text text-anchor="middle" x="1199" y="-249" font-family="Helvetica,sans-Serif" font-size="10.00">Handle</text>
</a>
</g>
</g>
<!-- Node1&#45;&gt;Node32 -->
<g id="edge68_Node000001_Node000032" class="edge">
<title>Node1&#45;&gt;Node32</title>
<g id="a_edge68_Node000001_Node000032"><a xlink:title=" ">
<path fill="none" stroke="#63b8ff" d="M318.03,-312.88C480.4,-302.77 939.37,-274.18 1122.33,-262.78"/>
<polygon fill="#63b8ff" stroke="#63b8ff" points="1122.64,-266.26 1132.41,-262.15 1122.21,-259.28 1122.64,-266.26"/>
</a>
</g>
</g>
<!-- Node33 -->
<g id="Node000033" class="node">
<title>Node33</title>
<g id="a_Node000033"><a xlink:href="Guid_8ixx.html" target="_top" xlink:title="Lightweight GUID (globally unique identifier) implementation.">
<polygon fill="white" stroke="#666666" points="2248,-145.5 2158,-145.5 2158,-126.5 2248,-126.5 2248,-145.5"/>
<text text-anchor="middle" x="2203" y="-133.5" font-family="Helvetica,sans-Serif" font-size="10.00">helios.util.Guid</text>
</a>
</g>
</g>
<!-- Node1&#45;&gt;Node33 -->
<g id="edge71_Node000001_Node000033" class="edge">
<title>Node1&#45;&gt;Node33</title>
<g id="a_edge71_Node000001_Node000033"><a xlink:title=" ">
<path fill="none" stroke="#63b8ff" d="M318.11,-317.11C533.24,-318.42 1304.12,-314.75 1927,-206 2013.16,-190.96 2112.19,-163.71 2165.05,-148.34"/>
<polygon fill="#63b8ff" stroke="#63b8ff" points="2166.07,-151.69 2174.68,-145.52 2164.1,-144.97 2166.07,-151.69"/>
</a>
</g>
</g>
<!-- Node9 -->
<g id="Node000009" class="node">
<title>Node9</title>
<g id="a_Node000009"><a xlink:href="ComponentTypeId_8ixx.html" target="_top" xlink:title="Compile&#45;time type identifier for component types.">
<polygon fill="white" stroke="#666666" points="1912,-151 1778,-151 1778,-121 1912,-121 1912,-151"/>
<text text-anchor="start" x="1786" y="-139" font-family="Helvetica,sans-Serif" font-size="10.00">helios.engine.core.data.</text>
<text text-anchor="middle" x="1845" y="-128" font-family="Helvetica,sans-Serif" font-size="10.00">ComponentTypeId</text>
</a>
</g>
</g>
<!-- Node8&#45;&gt;Node9 -->
<g id="edge8_Node000008_Node000009" class="edge">
<title>Node8&#45;&gt;Node9</title>
<g id="a_edge8_Node000008_Node000009"><a xlink:title=" ">
<path fill="none" stroke="#63b8ff" d="M1264.88,-192.29C1370.5,-186.71 1584.12,-173.58 1764,-151 1765.27,-150.84 1766.56,-150.67 1767.85,-150.5"/>
<polygon fill="#63b8ff" stroke="#63b8ff" points="1768.47,-153.95 1777.89,-149.09 1767.5,-147.02 1768.47,-153.95"/>
</a>
</g>
</g>
<!-- Node14 -->
<g id="Node000014" class="node">
<title>Node14</title>
<g id="a_Node000014"><a xlink:href="GameObjectPoolId_8ixx.html" target="_top" xlink:title="Strongly&#45;typed identifier for GameObjectPool instances.">
<polygon fill="white" stroke="#666666" points="658,-151 524,-151 524,-121 658,-121 658,-151"/>
<text text-anchor="start" x="532" y="-139" font-family="Helvetica,sans-Serif" font-size="10.00">helios.engine.core.data.</text>
<text text-anchor="middle" x="591" y="-128" font-family="Helvetica,sans-Serif" font-size="10.00">GameObjectPoolId</text>
</a>
</g>
</g>
<!-- Node8&#45;&gt;Node14 -->
<g id="edge13_Node000008_Node000014" class="edge">
<title>Node8&#45;&gt;Node14</title>
<g id="a_edge13_Node000008_Node000014"><a xlink:title=" ">
<path fill="none" stroke="#63b8ff" d="M1133.25,-192.09C1034.47,-186.51 841.72,-173.83 668.16,-151.07"/>
<polygon fill="#63b8ff" stroke="#63b8ff" points="668.45,-147.57 658.08,-149.73 667.53,-154.51 668.45,-147.57"/>
</a>
</g>
</g>
<!-- Node20 -->
<g id="Node000020" class="node">
<title>Node20</title>
<g id="a_Node000020"><a xlink:href="SpawnRuleId_8ixx.html" target="_top" xlink:title="Strongly&#45;typed identifier for SpawnRule instances.">
<polygon fill="white" stroke="#666666" points="810,-151 676,-151 676,-121 810,-121 810,-151"/>
<text text-anchor="start" x="684" y="-139" font-family="Helvetica,sans-Serif" font-size="10.00">helios.engine.core.data.</text>
<text text-anchor="middle" x="743" y="-128" font-family="Helvetica,sans-Serif" font-size="10.00">SpawnRuleId</text>
</a>
</g>
</g>
<!-- Node8&#45;&gt;Node20 -->
<g id="edge21_Node000008_Node000020" class="edge">
<title>Node8&#45;&gt;Node20</title>
<g id="a_edge21_Node000008_Node000020"><a xlink:title=" ">
<path fill="none" stroke="#63b8ff" d="M1133.26,-189.12C1059.51,-181.67 936.09,-168.32 820.21,-151.12"/>
<polygon fill="#63b8ff" stroke="#63b8ff" points="820.5,-147.63 810.1,-149.61 819.47,-154.55 820.5,-147.63"/>
</a>
</g>
</g>
<!-- Node21 -->
<g id="Node000021" class="node">
<title>Node21</title>
<g id="a_Node000021"><a xlink:href="SpawnProfileId_8ixx.html" target="_top" xlink:title="Strongly&#45;typed identifier for SpawnProfile instances.">
<polygon fill="white" stroke="#666666" points="962,-151 828,-151 828,-121 962,-121 962,-151"/>
<text text-anchor="start" x="836" y="-139" font-family="Helvetica,sans-Serif" font-size="10.00">helios.engine.core.data.</text>
<text text-anchor="middle" x="895" y="-128" font-family="Helvetica,sans-Serif" font-size="10.00">SpawnProfileId</text>
</a>
</g>
</g>
<!-- Node8&#45;&gt;Node21 -->
<g id="edge25_Node000008_Node000021" class="edge">
<title>Node8&#45;&gt;Node21</title>
<g id="a_edge25_Node000008_Node000021"><a xlink:title=" ">
<path fill="none" stroke="#63b8ff" d="M1154.8,-186.99C1107.01,-177.8 1029.92,-162.96 972.11,-151.84"/>
<polygon fill="#63b8ff" stroke="#63b8ff" points="972.76,-148.4 962.28,-149.95 971.44,-155.27 972.76,-148.4"/>
</a>
</g>
</g>
<!-- Node22 -->
<g id="Node000022" class="node">
<title>Node22</title>
<g id="a_Node000022"><a xlink:href="MenuId_8ixx.html" target="_top" xlink:title="Strongly&#45;typed identifier for UI menus.">
<polygon fill="white" stroke="#666666" points="1114,-151 980,-151 980,-121 1114,-121 1114,-151"/>
<text text-anchor="start" x="988" y="-139" font-family="Helvetica,sans-Serif" font-size="10.00">helios.engine.core.data.</text>
<text text-anchor="middle" x="1047" y="-128" font-family="Helvetica,sans-Serif" font-size="10.00">MenuId</text>
</a>
</g>
</g>
<!-- Node8&#45;&gt;Node22 -->
<g id="edge30_Node000008_Node000022" class="edge">
<title>Node8&#45;&gt;Node22</title>
<g id="a_edge30_Node000008_Node000022"><a xlink:title=" ">
<path fill="none" stroke="#63b8ff" d="M1176.9,-186.99C1155.02,-178.57 1120.87,-165.43 1093.08,-154.73"/>
<polygon fill="#63b8ff" stroke="#63b8ff" points="1094.13,-151.39 1083.54,-151.06 1091.62,-157.92 1094.13,-151.39"/>
</a>
</g>
</g>
<!-- Node23 -->
<g id="Node000023" class="node">
<title>Node23</title>
<g id="a_Node000023"><a xlink:href="FontId_8ixx.html" target="_top" xlink:title="Strongly&#45;typed identifier for font families.">
<polygon fill="white" stroke="#666666" points="1266,-151 1132,-151 1132,-121 1266,-121 1266,-151"/>
<text text-anchor="start" x="1140" y="-139" font-family="Helvetica,sans-Serif" font-size="10.00">helios.engine.core.data.</text>
<text text-anchor="middle" x="1199" y="-128" font-family="Helvetica,sans-Serif" font-size="10.00">FontId</text>
</a>
</g>
</g>
<!-- Node8&#45;&gt;Node23 -->
<g id="edge35_Node000008_Node000023" class="edge">
<title>Node8&#45;&gt;Node23</title>
<g id="a_edge35_Node000008_Node000023"><a xlink:title=" ">
<path fill="none" stroke="#63b8ff" d="M1199,-186.87C1199,-180.11 1199,-170.35 1199,-161.26"/>
<polygon fill="#63b8ff" stroke="#63b8ff" points="1202.5,-161.11 1199,-151.11 1195.5,-161.11 1202.5,-161.11"/>
</a>
</g>
</g>
<!-- Node24 -->
<g id="Node000024" class="node">
<title>Node24</title>
<g id="a_Node000024"><a xlink:href="ViewportId_8ixx.html" target="_top" xlink:title="Strongly&#45;typed identifier for viewports.">
<polygon fill="white" stroke="#666666" points="1418,-151 1284,-151 1284,-121 1418,-121 1418,-151"/>
<text text-anchor="start" x="1292" y="-139" font-family="Helvetica,sans-Serif" font-size="10.00">helios.engine.core.data.</text>
<text text-anchor="middle" x="1351" y="-128" font-family="Helvetica,sans-Serif" font-size="10.00">ViewportId</text>
</a>
</g>
</g>
<!-- Node8&#45;&gt;Node24 -->
<g id="edge40_Node000008_Node000024" class="edge">
<title>Node8&#45;&gt;Node24</title>
<g id="a_edge40_Node000008_Node000024"><a xlink:title=" ">
<path fill="none" stroke="#63b8ff" d="M1221.1,-186.99C1242.98,-178.57 1277.13,-165.43 1304.92,-154.73"/>
<polygon fill="#63b8ff" stroke="#63b8ff" points="1306.38,-157.92 1314.46,-151.06 1303.87,-151.39 1306.38,-157.92"/>
</a>
</g>
</g>
<!-- Node25 -->
<g id="Node000025" class="node">
<title>Node25</title>
<g id="a_Node000025"><a xlink:href="VersionId_8ixx.html" target="_top" xlink:title="Type alias for entity version numbers used in handle validation.">
<polygon fill="white" stroke="#666666" points="1756,-85 1622,-85 1622,-55 1756,-55 1756,-85"/>
<text text-anchor="start" x="1630" y="-73" font-family="Helvetica,sans-Serif" font-size="10.00">helios.engine.core.data.</text>
<text text-anchor="middle" x="1689" y="-62" font-family="Helvetica,sans-Serif" font-size="10.00">VersionId</text>
</a>
</g>
</g>
<!-- Node8&#45;&gt;Node25 -->
<g id="edge45_Node000008_Node000025" class="edge">
<title>Node8&#45;&gt;Node25</title>
<g id="a_edge45_Node000008_Node000025"><a xlink:title=" ">
<path fill="none" stroke="#63b8ff" d="M1264.54,-194.87C1399.82,-192.89 1700,-184.7 1731,-151 1746.75,-133.88 1730.16,-109.75 1713.41,-92.48"/>
<polygon fill="#63b8ff" stroke="#63b8ff" points="1715.42,-89.55 1705.82,-85.07 1710.54,-94.56 1715.42,-89.55"/>
</a>
</g>
</g>
<!-- Node26 -->
<g id="Node000026" class="node">
<title>Node26</title>
<g id="a_Node000026"><a xlink:href="ScorePoolId_8ixx.html" target="_top" xlink:title="Strongly&#45;typed identifier for score pools.">
<polygon fill="white" stroke="#666666" points="1570,-151 1436,-151 1436,-121 1570,-121 1570,-151"/>
<text text-anchor="start" x="1444" y="-139" font-family="Helvetica,sans-Serif" font-size="10.00">helios.engine.core.data.</text>
<text text-anchor="middle" x="1503" y="-128" font-family="Helvetica,sans-Serif" font-size="10.00">ScorePoolId</text>
</a>
</g>
</g>
<!-- Node8&#45;&gt;Node26 -->
<g id="edge47_Node000008_Node000026" class="edge">
<title>Node8&#45;&gt;Node26</title>
<g id="a_edge47_Node000008_Node000026"><a xlink:title=" ">
<path fill="none" stroke="#63b8ff" d="M1243.2,-186.99C1290.99,-177.8 1368.08,-162.96 1425.89,-151.84"/>
<polygon fill="#63b8ff" stroke="#63b8ff" points="1426.56,-155.27 1435.72,-149.95 1425.24,-148.4 1426.56,-155.27"/>
</a>
</g>
</g>
<!-- Node27 -->
<g id="Node000027" class="node">
<title>Node27</title>
<g id="a_Node000027"><a xlink:href="ScoreTypeId_8ixx.html" target="_top" xlink:title="Strongly&#45;typed identifier for score types.">
<polygon fill="white" stroke="#666666" points="2064,-151 1930,-151 1930,-121 2064,-121 2064,-151"/>
<text text-anchor="start" x="1938" y="-139" font-family="Helvetica,sans-Serif" font-size="10.00">helios.engine.core.data.</text>
<text text-anchor="middle" x="1997" y="-128" font-family="Helvetica,sans-Serif" font-size="10.00">ScoreTypeId</text>
</a>
</g>
</g>
<!-- Node8&#45;&gt;Node27 -->
<g id="edge52_Node000008_Node000027" class="edge">
<title>Node8&#45;&gt;Node27</title>
<g id="a_edge52_Node000008_Node000027"><a xlink:title=" ">
<path fill="none" stroke="#63b8ff" d="M1264.95,-194.09C1390.48,-190.84 1672.57,-180.75 1919.68,-151.05"/>
<polygon fill="#63b8ff" stroke="#63b8ff" points="1920.43,-154.49 1929.93,-149.81 1919.58,-147.54 1920.43,-154.49"/>
</a>
</g>
</g>
<!-- Node28 -->
<g id="Node000028" class="node">
<title>Node28</title>
<g id="a_Node000028"><a xlink:href="ActionId_8ixx.html" target="_top" xlink:title="Strongly&#45;typed identifier for UI actions.">
<polygon fill="white" stroke="#666666" points="1722,-151 1588,-151 1588,-121 1722,-121 1722,-151"/>
<text text-anchor="start" x="1596" y="-139" font-family="Helvetica,sans-Serif" font-size="10.00">helios.engine.core.data.</text>
<text text-anchor="middle" x="1655" y="-128" font-family="Helvetica,sans-Serif" font-size="10.00">ActionId</text>
</a>
</g>
</g>
<!-- Node8&#45;&gt;Node28 -->
<g id="edge56_Node000008_Node000028" class="edge">
<title>Node8&#45;&gt;Node28</title>
<g id="a_edge56_Node000008_Node000028"><a xlink:title=" ">
<path fill="none" stroke="#63b8ff" d="M1264.74,-189.12C1338.49,-181.67 1461.91,-168.32 1577.79,-151.12"/>
<polygon fill="#63b8ff" stroke="#63b8ff" points="1578.53,-154.55 1587.9,-149.61 1577.5,-147.63 1578.53,-154.55"/>
</a>
</g>
</g>
<!-- Node29 -->
<g id="Node000029" class="node">
<title>Node29</title>
<g id="a_Node000029"><a xlink:href="EntityId_8ixx.html" target="_top" xlink:title="Type alias for entity identifiers within an EntityPool.">
<polygon fill="white" stroke="#666666" points="2167,-85 2033,-85 2033,-55 2167,-55 2167,-85"/>
<text text-anchor="start" x="2041" y="-73" font-family="Helvetica,sans-Serif" font-size="10.00">helios.engine.core.data.</text>
<text text-anchor="middle" x="2100" y="-62" font-family="Helvetica,sans-Serif" font-size="10.00">EntityId</text>
</a>
</g>
</g>
<!-- Node8&#45;&gt;Node29 -->
<g id="edge61_Node000008_Node000029" class="edge">
<title>Node8&#45;&gt;Node29</title>
<g id="a_edge61_Node000008_Node000029"><a xlink:title=" ">
<path fill="none" stroke="#63b8ff" d="M1264.74,-194.16C1462.58,-189.87 2040.9,-175.3 2073,-151 2090.1,-138.06 2096.47,-113.78 2098.79,-95.35"/>
<polygon fill="#63b8ff" stroke="#63b8ff" points="2102.29,-95.59 2099.74,-85.31 2095.32,-94.93 2102.29,-95.59"/>
</a>
</g>
</g>
<!-- Node30 -->
<g id="Node000030" class="node">
<title>Node30</title>
<g id="a_Node000030"><a xlink:href="CollisionLayer_8ixx.html" target="_top" xlink:title="Type definitions for collision layer identifiers.">
<polygon fill="white" stroke="#666666" points="506,-151 372,-151 372,-121 506,-121 506,-151"/>
<text text-anchor="start" x="380" y="-139" font-family="Helvetica,sans-Serif" font-size="10.00">helios.engine.core.data.</text>
<text text-anchor="middle" x="439" y="-128" font-family="Helvetica,sans-Serif" font-size="10.00">CollisionLayer</text>
</a>
</g>
</g>
<!-- Node8&#45;&gt;Node30 -->
<g id="edge63_Node000008_Node000030" class="edge">
<title>Node8&#45;&gt;Node30</title>
<g id="a_edge63_Node000008_Node000030"><a xlink:title=" ">
<path fill="none" stroke="#63b8ff" d="M1133.21,-193.78C1012.73,-190.08 748.48,-179.36 516.07,-151.03"/>
<polygon fill="#63b8ff" stroke="#63b8ff" points="516.42,-147.55 506.07,-149.8 515.57,-154.49 516.42,-147.55"/>
</a>
</g>
</g>
<!-- Node31 -->
<g id="Node000031" class="node">
<title>Node31</title>
<g id="a_Node000031"><a xlink:href="EntityTombstone_8ixx.html" target="_top" xlink:title="Sentinel value for invalid sparse array indices.">
<polygon fill="white" stroke="#666666" points="354,-151 220,-151 220,-121 354,-121 354,-151"/>
<text text-anchor="start" x="228" y="-139" font-family="Helvetica,sans-Serif" font-size="10.00">helios.engine.core.data.</text>
<text text-anchor="middle" x="287" y="-128" font-family="Helvetica,sans-Serif" font-size="10.00">EntityTombstone</text>
</a>
</g>
</g>
<!-- Node8&#45;&gt;Node31 -->
<g id="edge66_Node000008_Node000031" class="edge">
<title>Node8&#45;&gt;Node31</title>
<g id="a_edge66_Node000008_Node000031"><a xlink:title=" ">
<path fill="none" stroke="#63b8ff" d="M1133.45,-194.88C993.75,-192.94 656.3,-184.95 364.01,-151.01"/>
<polygon fill="#63b8ff" stroke="#63b8ff" points="364.41,-147.53 354.07,-149.84 363.59,-154.48 364.41,-147.53"/>
</a>
</g>
</g>
<!-- Node10 -->
<g id="Node000010" class="node">
<title>Node10</title>
<g id="a_Node000010"><a xlink:title=" ">
<polygon fill="#e0e0e0" stroke="#999999" points="2014.5,-79.5 1949.5,-79.5 1949.5,-60.5 2014.5,-60.5 2014.5,-79.5"/>
<text text-anchor="middle" x="1982" y="-67.5" font-family="Helvetica,sans-Serif" font-size="10.00">functional</text>
</a>
</g>
</g>
<!-- Node9&#45;&gt;Node10 -->
<g id="edge9_Node000009_Node000010" class="edge">
<title>Node9&#45;&gt;Node10</title>
<g id="a_edge9_Node000009_Node000010"><a xlink:title=" ">
<path fill="none" stroke="#63b8ff" d="M1875.07,-120.95C1898.77,-109.88 1931.56,-94.56 1954.56,-83.82"/>
<polygon fill="#63b8ff" stroke="#63b8ff" points="1956.19,-86.92 1963.77,-79.52 1953.23,-80.58 1956.19,-86.92"/>
</a>
</g>
</g>
<!-- Node11 -->
<g id="Node000011" class="node">
<title>Node11</title>
<g id="a_Node000011"><a xlink:href="types_8ixx.html" target="_top" xlink:title="Core type definitions and tag types for the helios engine.">
<polygon fill="white" stroke="#666666" points="1553,-79.5 1453,-79.5 1453,-60.5 1553,-60.5 1553,-79.5"/>
<text text-anchor="middle" x="1503" y="-67.5" font-family="Helvetica,sans-Serif" font-size="10.00">helios.core.types</text>
</a>
</g>
</g>
<!-- Node9&#45;&gt;Node11 -->
<g id="edge10_Node000009_Node000011" class="edge">
<title>Node9&#45;&gt;Node11</title>
<g id="a_edge10_Node000009_Node000011"><a xlink:title=" ">
<path fill="none" stroke="#63b8ff" d="M1777.84,-122.43C1713.75,-110.44 1618.35,-92.59 1558.46,-81.38"/>
<polygon fill="#63b8ff" stroke="#63b8ff" points="1558.91,-77.9 1548.44,-79.5 1557.63,-84.78 1558.91,-77.9"/>
</a>
</g>
</g>
<!-- Node12 -->
<g id="Node000012" class="node">
<title>Node12</title>
<g id="a_Node000012"><a xlink:href="TypeIndexer_8ixx.html" target="_top" xlink:title="Utility for generating unique type indices at runtime.">
<polygon fill="white" stroke="#666666" points="1931,-79.5 1775,-79.5 1775,-60.5 1931,-60.5 1931,-79.5"/>
<text text-anchor="middle" x="1853" y="-67.5" font-family="Helvetica,sans-Serif" font-size="10.00">helios.core.data.TypeIndexer</text>
</a>
</g>
</g>
<!-- Node9&#45;&gt;Node12 -->
<g id="edge11_Node000009_Node000012" class="edge">
<title>Node9&#45;&gt;Node12</title>
<g id="a_edge11_Node000009_Node000012"><a xlink:title=" ">
<path fill="none" stroke="#63b8ff" d="M1846.78,-120.8C1847.91,-111.7 1849.4,-99.79 1850.64,-89.9"/>
<polygon fill="#63b8ff" stroke="#63b8ff" points="1854.13,-90.2 1851.89,-79.84 1847.18,-89.33 1854.13,-90.2"/>
</a>
</g>
</g>
<!-- Node13 -->
<g id="Node000013" class="node">
<title>Node13</title>
<g id="a_Node000013"><a xlink:title=" ">
<polygon fill="#e0e0e0" stroke="#999999" points="2068,-19 2018,-19 2018,0 2068,0 2068,-19"/>
<text text-anchor="middle" x="2043" y="-7" font-family="Helvetica,sans-Serif" font-size="10.00">atomic</text>
</a>
</g>
</g>
<!-- Node12&#45;&gt;Node13 -->
<g id="edge12_Node000012_Node000013" class="edge">
<title>Node12&#45;&gt;Node13</title>
<g id="a_edge12_Node000012_Node000013"><a xlink:title=" ">
<path fill="none" stroke="#63b8ff" d="M1880.63,-60.49C1914.31,-50.12 1971.26,-32.59 2007.98,-21.28"/>
<polygon fill="#63b8ff" stroke="#63b8ff" points="2009.24,-24.56 2017.77,-18.27 2007.18,-17.87 2009.24,-24.56"/>
</a>
</g>
</g>
<!-- Node14&#45;&gt;Node3 -->
<g id="edge17_Node000014_Node000003" class="edge">
<title>Node14&#45;&gt;Node3</title>
<g id="a_edge17_Node000014_Node000003"><a xlink:title=" ">
<path fill="none" stroke="#63b8ff" d="M546.45,-120.95C509.91,-109.43 458.81,-93.32 424.62,-82.54"/>
<polygon fill="#63b8ff" stroke="#63b8ff" points="425.61,-79.19 415.02,-79.52 423.5,-85.86 425.61,-79.19"/>
</a>
</g>
</g>
<!-- Node15 -->
<g id="Node000015" class="node">
<title>Node15</title>
<g id="a_Node000015"><a xlink:title=" ">
<polygon fill="#e0e0e0" stroke="#999999" points="1321,-19 1271,-19 1271,0 1321,0 1321,-19"/>
<text text-anchor="middle" x="1296" y="-7" font-family="Helvetica,sans-Serif" font-size="10.00">cstdint</text>
</a>
</g>
</g>
<!-- Node14&#45;&gt;Node15 -->
<g id="edge14_Node000014_Node000015" class="edge">
<title>Node14&#45;&gt;Node15</title>
<g id="a_edge14_Node000014_Node000015"><a xlink:title=" ">
<path fill="none" stroke="#63b8ff" d="M630.81,-120.99C684.12,-102.82 781.97,-71.49 868,-55 1029.4,-24.07 1072.83,-38.53 1236,-19 1244.08,-18.03 1252.75,-16.87 1260.93,-15.73"/>
<polygon fill="#63b8ff" stroke="#63b8ff" points="1261.52,-19.18 1270.93,-14.3 1260.53,-12.25 1261.52,-19.18"/>
</a>
</g>
</g>
<!-- Node16 -->
<g id="Node000016" class="node">
<title>Node16</title>
<g id="a_Node000016"><a xlink:title=" ">
<polygon fill="#e0e0e0" stroke="#999999" points="652,-79.5 530,-79.5 530,-60.5 652,-60.5 652,-79.5"/>
<text text-anchor="middle" x="591" y="-67.5" font-family="Helvetica,sans-Serif" font-size="10.00">helios/helios_config.h</text>
</a>
</g>
</g>
<!-- Node14&#45;&gt;Node16 -->
<g id="edge15_Node000014_Node000016" class="edge">
<title>Node14&#45;&gt;Node16</title>
<g id="a_edge15_Node000014_Node000016"><a xlink:title=" ">
<path fill="none" stroke="#63b8ff" d="M591,-120.8C591,-111.7 591,-99.79 591,-89.9"/>
<polygon fill="#63b8ff" stroke="#63b8ff" points="594.5,-89.84 591,-79.84 587.5,-89.84 594.5,-89.84"/>
</a>
</g>
</g>
<!-- Node17 -->
<g id="Node000017" class="node">
<title>Node17</title>
<g id="a_Node000017"><a xlink:title=" ">
<polygon fill="#e0e0e0" stroke="#999999" points="1124.5,-79.5 1051.5,-79.5 1051.5,-60.5 1124.5,-60.5 1124.5,-79.5"/>
<text text-anchor="middle" x="1088" y="-67.5" font-family="Helvetica,sans-Serif" font-size="10.00">string_view</text>
</a>
</g>
</g>
<!-- Node14&#45;&gt;Node17 -->
<g id="edge16_Node000014_Node000017" class="edge">
<title>Node14&#45;&gt;Node17</title>
<g id="a_edge16_Node000014_Node000017"><a xlink:title=" ">
<path fill="none" stroke="#63b8ff" d="M658.1,-122.4C661.1,-121.91 664.08,-121.44 667,-121 802.47,-100.5 963.52,-83.38 1041.32,-75.56"/>
<polygon fill="#63b8ff" stroke="#63b8ff" points="1041.69,-79.04 1051.29,-74.56 1040.99,-72.07 1041.69,-79.04"/>
</a>
</g>
</g>
<!-- Node18 -->
<g id="Node000018" class="node">
<title>Node18</title>
<g id="a_Node000018"><a xlink:href="algorithms_8ixx.html" target="_top" xlink:title="Core algorithms and hash functions for the helios engine.">
<polygon fill="white" stroke="#666666" points="1267.5,-79.5 1142.5,-79.5 1142.5,-60.5 1267.5,-60.5 1267.5,-79.5"/>
<text text-anchor="middle" x="1205" y="-67.5" font-family="Helvetica,sans-Serif" font-size="10.00">helios.core.algorithms</text>
</a>
</g>
</g>
<!-- Node14&#45;&gt;Node18 -->
<g id="edge18_Node000014_Node000018" class="edge">
<title>Node14&#45;&gt;Node18</title>
<g id="a_edge18_Node000014_Node000018"><a xlink:title=" ">
<path fill="none" stroke="#63b8ff" d="M658.08,-122.25C661.09,-121.8 664.07,-121.38 667,-121 872.99,-94.15 927.15,-112.87 1133,-85 1140.29,-84.01 1147.95,-82.76 1155.45,-81.41"/>
<polygon fill="#63b8ff" stroke="#63b8ff" points="1156.34,-84.8 1165.52,-79.52 1155.05,-77.92 1156.34,-84.8"/>
</a>
</g>
</g>
<!-- Node18&#45;&gt;Node15 -->
<g id="edge19_Node000018_Node000015" class="edge">
<title>Node18&#45;&gt;Node15</title>
<g id="a_edge19_Node000018_Node000015"><a xlink:title=" ">
<path fill="none" stroke="#63b8ff" d="M1218.43,-60.37C1233.08,-50.95 1256.76,-35.73 1274.1,-24.58"/>
<polygon fill="#63b8ff" stroke="#63b8ff" points="1276,-27.52 1282.52,-19.17 1272.21,-21.63 1276,-27.52"/>
</a>
</g>
</g>
<!-- Node19 -->
<g id="Node000019" class="node">
<title>Node19</title>
<g id="a_Node000019"><a xlink:title=" ">
<polygon fill="#e0e0e0" stroke="#999999" points="1227,-19 1183,-19 1183,0 1227,0 1227,-19"/>
<text text-anchor="middle" x="1205" y="-7" font-family="Helvetica,sans-Serif" font-size="10.00">string</text>
</a>
</g>
</g>
<!-- Node18&#45;&gt;Node19 -->
<g id="edge20_Node000018_Node000019" class="edge">
<title>Node18&#45;&gt;Node19</title>
<g id="a_edge20_Node000018_Node000019"><a xlink:title=" ">
<path fill="none" stroke="#63b8ff" d="M1205,-60.37C1205,-52.25 1205,-39.81 1205,-29.39"/>
<polygon fill="#63b8ff" stroke="#63b8ff" points="1208.5,-29.17 1205,-19.17 1201.5,-29.17 1208.5,-29.17"/>
</a>
</g>
</g>
<!-- Node20&#45;&gt;Node15 -->
<g id="edge22_Node000020_Node000015" class="edge">
<title>Node20&#45;&gt;Node15</title>
<g id="a_edge22_Node000020_Node000015"><a xlink:title=" ">
<path fill="none" stroke="#63b8ff" d="M774.9,-120.97C817.27,-102.92 894.83,-71.89 964,-55 1082.46,-26.08 1115.19,-35.55 1236,-19 1244.06,-17.9 1252.73,-16.68 1260.9,-15.53"/>
<polygon fill="#63b8ff" stroke="#63b8ff" points="1261.49,-18.98 1270.9,-14.11 1260.51,-12.05 1261.49,-18.98"/>
</a>
</g>
</g>
<!-- Node20&#45;&gt;Node17 -->
<g id="edge23_Node000020_Node000017" class="edge">
<title>Node20&#45;&gt;Node17</title>
<g id="a_edge23_Node000020_Node000017"><a xlink:title=" ">
<path fill="none" stroke="#63b8ff" d="M810.34,-122.51C878.37,-109.89 981.69,-90.72 1041.24,-79.67"/>
<polygon fill="#63b8ff" stroke="#63b8ff" points="1041.93,-83.11 1051.12,-77.84 1040.65,-76.22 1041.93,-83.11"/>
</a>
</g>
</g>
<!-- Node20&#45;&gt;Node18 -->
<g id="edge24_Node000020_Node000018" class="edge">
<title>Node20&#45;&gt;Node18</title>
<g id="a_edge24_Node000020_Node000018"><a xlink:title=" ">
<path fill="none" stroke="#63b8ff" d="M810.1,-122.38C813.1,-121.9 816.08,-121.44 819,-121 957.93,-100.26 994.17,-106.42 1133,-85 1139.76,-83.96 1146.86,-82.73 1153.86,-81.45"/>
<polygon fill="#63b8ff" stroke="#63b8ff" points="1154.79,-84.84 1163.98,-79.55 1153.5,-77.96 1154.79,-84.84"/>
</a>
</g>
</g>
<!-- Node21&#45;&gt;Node11 -->
<g id="edge29_Node000021_Node000011" class="edge">
<title>Node21&#45;&gt;Node11</title>
<g id="a_edge29_Node000021_Node000011"><a xlink:title=" ">
<path fill="none" stroke="#63b8ff" d="M962.08,-122.31C965.09,-121.85 968.08,-121.41 971,-121 1141.39,-97.35 1344.08,-81.72 1442.86,-74.91"/>
<polygon fill="#63b8ff" stroke="#63b8ff" points="1443.22,-78.39 1452.95,-74.22 1442.74,-71.41 1443.22,-78.39"/>
</a>
</g>
</g>
<!-- Node21&#45;&gt;Node15 -->
<g id="edge26_Node000021_Node000015" class="edge">
<title>Node21&#45;&gt;Node15</title>
<g id="a_edge26_Node000021_Node000015"><a xlink:title=" ">
<path fill="none" stroke="#63b8ff" d="M913.39,-120.95C938.21,-102.72 984.49,-71.33 1029,-55 1050.41,-47.14 1192.87,-25.62 1260.49,-15.67"/>
<polygon fill="#63b8ff" stroke="#63b8ff" points="1261.28,-19.09 1270.67,-14.17 1260.27,-12.16 1261.28,-19.09"/>
</a>
</g>
</g>
<!-- Node21&#45;&gt;Node17 -->
<g id="edge27_Node000021_Node000017" class="edge">
<title>Node21&#45;&gt;Node17</title>
<g id="a_edge27_Node000021_Node000017"><a xlink:title=" ">
<path fill="none" stroke="#63b8ff" d="M937.35,-120.95C971.95,-109.48 1020.26,-93.46 1052.77,-82.68"/>
<polygon fill="#63b8ff" stroke="#63b8ff" points="1053.92,-85.99 1062.31,-79.52 1051.72,-79.34 1053.92,-85.99"/>
</a>
</g>
</g>
<!-- Node21&#45;&gt;Node18 -->
<g id="edge28_Node000021_Node000018" class="edge">
<title>Node21&#45;&gt;Node18</title>
<g id="a_edge28_Node000021_Node000018"><a xlink:title=" ">
<path fill="none" stroke="#63b8ff" d="M962.27,-121.11C1019.69,-109.26 1101.08,-92.45 1153.46,-81.64"/>
<polygon fill="#63b8ff" stroke="#63b8ff" points="1154.45,-85.01 1163.53,-79.56 1153.03,-78.16 1154.45,-85.01"/>
</a>
</g>
</g>
<!-- Node22&#45;&gt;Node11 -->
<g id="edge33_Node000022_Node000011" class="edge">
<title>Node22&#45;&gt;Node11</title>
<g id="a_edge33_Node000022_Node000011"><a xlink:title=" ">
<path fill="none" stroke="#63b8ff" d="M1114.1,-122.45C1117.11,-121.94 1120.08,-121.46 1123,-121 1235.52,-103.25 1367.49,-86.88 1442.57,-77.98"/>
<polygon fill="#63b8ff" stroke="#63b8ff" points="1443.26,-81.42 1452.78,-76.77 1442.44,-74.47 1443.26,-81.42"/>
</a>
</g>
</g>
<!-- Node22&#45;&gt;Node15 -->
<g id="edge31_Node000022_Node000015" class="edge">
<title>Node22&#45;&gt;Node15</title>
<g id="a_edge31_Node000022_Node000015"><a xlink:title=" ">
<path fill="none" stroke="#63b8ff" d="M1040.77,-120.73C1034.15,-103.14 1026.6,-73.33 1042,-55 1049,-46.66 1192.12,-25.29 1260.37,-15.51"/>
<polygon fill="#63b8ff" stroke="#63b8ff" points="1261.25,-18.93 1270.65,-14.05 1260.26,-12 1261.25,-18.93"/>
</a>
</g>
</g>
<!-- Node22&#45;&gt;Node17 -->
<g id="edge32_Node000022_Node000017" class="edge">
<title>Node22&#45;&gt;Node17</title>
<g id="a_edge32_Node000022_Node000017"><a xlink:title=" ">
<path fill="none" stroke="#63b8ff" d="M1056.1,-120.8C1062.24,-111.21 1070.38,-98.5 1076.9,-88.32"/>
<polygon fill="#63b8ff" stroke="#63b8ff" points="1079.89,-90.15 1082.33,-79.84 1073.99,-86.38 1079.89,-90.15"/>
</a>
</g>
</g>
<!-- Node22&#45;&gt;Node18 -->
<g id="edge34_Node000022_Node000018" class="edge">
<title>Node22&#45;&gt;Node18</title>
<g id="a_edge34_Node000022_Node000018"><a xlink:title=" ">
<path fill="none" stroke="#63b8ff" d="M1081.67,-120.95C1109.38,-109.73 1147.85,-94.15 1174.42,-83.39"/>
<polygon fill="#63b8ff" stroke="#63b8ff" points="1176.02,-86.52 1183.97,-79.52 1173.39,-80.03 1176.02,-86.52"/>
</a>
</g>
</g>
<!-- Node23&#45;&gt;Node11 -->
<g id="edge38_Node000023_Node000011" class="edge">
<title>Node23&#45;&gt;Node11</title>
<g id="a_edge38_Node000023_Node000011"><a xlink:title=" ">
<path fill="none" stroke="#63b8ff" d="M1265.71,-120.95C1322.08,-109.09 1401.58,-92.35 1452.71,-81.59"/>
<polygon fill="#63b8ff" stroke="#63b8ff" points="1453.48,-85 1462.54,-79.52 1452.04,-78.15 1453.48,-85"/>
</a>
</g>
</g>
<!-- Node23&#45;&gt;Node15 -->
<g id="edge36_Node000023_Node000015" class="edge">
<title>Node23&#45;&gt;Node15</title>
<g id="a_edge36_Node000023_Node000015"><a xlink:title=" ">
<path fill="none" stroke="#63b8ff" d="M1231.19,-120.97C1246.84,-112.62 1264.66,-100.6 1276,-85 1287.91,-68.61 1292.73,-45.58 1294.68,-29.47"/>
<polygon fill="#63b8ff" stroke="#63b8ff" points="1298.2,-29.45 1295.65,-19.17 1291.23,-28.79 1298.2,-29.45"/>
</a>
</g>
</g>
<!-- Node23&#45;&gt;Node17 -->
<g id="edge37_Node000023_Node000017" class="edge">
<title>Node23&#45;&gt;Node17</title>
<g id="a_edge37_Node000023_Node000017"><a xlink:title=" ">
<path fill="none" stroke="#63b8ff" d="M1174.64,-120.95C1155.86,-110.13 1130.05,-95.24 1111.49,-84.54"/>
<polygon fill="#63b8ff" stroke="#63b8ff" points="1113.18,-81.48 1102.77,-79.52 1109.69,-87.54 1113.18,-81.48"/>
</a>
</g>
</g>
<!-- Node23&#45;&gt;Node18 -->
<g id="edge39_Node000023_Node000018" class="edge">
<title>Node23&#45;&gt;Node18</title>
<g id="a_edge39_Node000023_Node000018"><a xlink:title=" ">
<path fill="none" stroke="#63b8ff" d="M1200.33,-120.8C1201.18,-111.7 1202.3,-99.79 1203.23,-89.9"/>
<polygon fill="#63b8ff" stroke="#63b8ff" points="1206.72,-90.13 1204.17,-79.84 1199.75,-89.47 1206.72,-90.13"/>
</a>
</g>
</g>
<!-- Node24&#45;&gt;Node11 -->
<g id="edge43_Node000024_Node000011" class="edge">
<title>Node24&#45;&gt;Node11</title>
<g id="a_edge43_Node000024_Node000011"><a xlink:title=" ">
<path fill="none" stroke="#63b8ff" d="M1384.36,-120.95C1410.9,-109.78 1447.69,-94.29 1473.24,-83.53"/>
<polygon fill="#63b8ff" stroke="#63b8ff" points="1474.91,-86.62 1482.77,-79.52 1472.2,-80.17 1474.91,-86.62"/>
</a>
</g>
</g>
<!-- Node24&#45;&gt;Node15 -->
<g id="edge41_Node000024_Node000015" class="edge">
<title>Node24&#45;&gt;Node15</title>
<g id="a_edge41_Node000024_Node000015"><a xlink:title=" ">
<path fill="none" stroke="#63b8ff" d="M1344.69,-120.72C1334.62,-97.92 1314.92,-53.33 1303.92,-28.42"/>
<polygon fill="#63b8ff" stroke="#63b8ff" points="1307.03,-26.8 1299.79,-19.07 1300.63,-29.63 1307.03,-26.8"/>
</a>
</g>
</g>
<!-- Node24&#45;&gt;Node17 -->
<g id="edge42_Node000024_Node000017" class="edge">
<title>Node24&#45;&gt;Node17</title>
<g id="a_edge42_Node000024_Node000017"><a xlink:title=" ">
<path fill="none" stroke="#63b8ff" d="M1283.89,-120.99C1240.61,-111.62 1183.24,-98.55 1133,-85 1130.19,-84.24 1127.28,-83.42 1124.37,-82.57"/>
<polygon fill="#63b8ff" stroke="#63b8ff" points="1125.14,-79.15 1114.55,-79.63 1123.13,-85.85 1125.14,-79.15"/>
</a>
</g>
</g>
<!-- Node24&#45;&gt;Node18 -->
<g id="edge44_Node000024_Node000018" class="edge">
<title>Node24&#45;&gt;Node18</title>
<g id="a_edge44_Node000024_Node000018"><a xlink:title=" ">
<path fill="none" stroke="#63b8ff" d="M1318.96,-120.95C1293.58,-109.83 1258.44,-94.42 1233.91,-83.67"/>
<polygon fill="#63b8ff" stroke="#63b8ff" points="1234.99,-80.33 1224.43,-79.52 1232.18,-86.74 1234.99,-80.33"/>
</a>
</g>
</g>
<!-- Node25&#45;&gt;Node15 -->
<g id="edge46_Node000025_Node000015" class="edge">
<title>Node25&#45;&gt;Node15</title>
<g id="a_edge46_Node000025_Node000015"><a xlink:title=" ">
<path fill="none" stroke="#63b8ff" d="M1621.62,-57.64C1616,-56.73 1610.41,-55.84 1605,-55 1505.93,-39.61 1388.69,-23.23 1331.27,-15.32"/>
<polygon fill="#63b8ff" stroke="#63b8ff" points="1331.65,-11.84 1321.26,-13.95 1330.69,-18.77 1331.65,-11.84"/>
</a>
</g>
</g>
<!-- Node26&#45;&gt;Node11 -->
<g id="edge50_Node000026_Node000011" class="edge">
<title>Node26&#45;&gt;Node11</title>
<g id="a_edge50_Node000026_Node000011"><a xlink:title=" ">
<path fill="none" stroke="#63b8ff" d="M1503,-120.8C1503,-111.7 1503,-99.79 1503,-89.9"/>
<polygon fill="#63b8ff" stroke="#63b8ff" points="1506.5,-89.84 1503,-79.84 1499.5,-89.84 1506.5,-89.84"/>
</a>
</g>
</g>
<!-- Node26&#45;&gt;Node15 -->
<g id="edge48_Node000026_Node000015" class="edge">
<title>Node26&#45;&gt;Node15</title>
<g id="a_edge48_Node000026_Node000015"><a xlink:title=" ">
<path fill="none" stroke="#63b8ff" d="M1479.66,-120.96C1439.72,-96.94 1358.75,-48.24 1319.03,-24.35"/>
<polygon fill="#63b8ff" stroke="#63b8ff" points="1320.69,-21.26 1310.31,-19.11 1317.08,-27.26 1320.69,-21.26"/>
</a>
</g>
</g>
<!-- Node26&#45;&gt;Node17 -->
<g id="edge49_Node000026_Node000017" class="edge">
<title>Node26&#45;&gt;Node17</title>
<g id="a_edge49_Node000026_Node000017"><a xlink:title=" ">
<path fill="none" stroke="#63b8ff" d="M1435.9,-122.41C1432.89,-121.92 1429.92,-121.45 1427,-121 1296.88,-101.07 1261.7,-112.66 1133,-85 1129.54,-84.26 1125.95,-83.36 1122.4,-82.39"/>
<polygon fill="#63b8ff" stroke="#63b8ff" points="1123.13,-78.96 1112.55,-79.51 1121.16,-85.68 1123.13,-78.96"/>
</a>
</g>
</g>
<!-- Node26&#45;&gt;Node18 -->
<g id="edge51_Node000026_Node000018" class="edge">
<title>Node26&#45;&gt;Node18</title>
<g id="a_edge51_Node000026_Node000018"><a xlink:title=" ">
<path fill="none" stroke="#63b8ff" d="M1437.6,-120.95C1382.46,-109.11 1304.74,-92.42 1254.61,-81.65"/>
<polygon fill="#63b8ff" stroke="#63b8ff" points="1255.17,-78.2 1244.66,-79.52 1253.7,-85.04 1255.17,-78.2"/>
</a>
</g>
</g>
<!-- Node27&#45;&gt;Node10 -->
<g id="edge53_Node000027_Node000010" class="edge">
<title>Node27&#45;&gt;Node10</title>
<g id="a_edge53_Node000027_Node000010"><a xlink:title=" ">
<path fill="none" stroke="#63b8ff" d="M1993.67,-120.8C1991.54,-111.7 1988.75,-99.79 1986.43,-89.9"/>
<polygon fill="#63b8ff" stroke="#63b8ff" points="1989.76,-88.78 1984.07,-79.84 1982.95,-90.38 1989.76,-88.78"/>
</a>
</g>
</g>
<!-- Node27&#45;&gt;Node11 -->
<g id="edge54_Node000027_Node000011" class="edge">
<title>Node27&#45;&gt;Node11</title>
<g id="a_edge54_Node000027_Node000011"><a xlink:title=" ">
<path fill="none" stroke="#63b8ff" d="M1929.9,-122.39C1926.9,-121.91 1923.92,-121.44 1921,-121 1784.71,-100.5 1749.81,-101.7 1613,-85 1596.93,-83.04 1579.55,-80.86 1563.46,-78.81"/>
<polygon fill="#63b8ff" stroke="#63b8ff" points="1563.45,-75.28 1553.09,-77.49 1562.57,-82.22 1563.45,-75.28"/>
</a>
</g>
</g>
<!-- Node27&#45;&gt;Node12 -->
<g id="edge55_Node000027_Node000012" class="edge">
<title>Node27&#45;&gt;Node12</title>
<g id="a_edge55_Node000027_Node000012"><a xlink:title=" ">
<path fill="none" stroke="#63b8ff" d="M1965.4,-120.95C1940.37,-109.83 1905.7,-94.42 1881.51,-83.67"/>
<polygon fill="#63b8ff" stroke="#63b8ff" points="1882.72,-80.38 1872.16,-79.52 1879.88,-86.78 1882.72,-80.38"/>
</a>
</g>
</g>
<!-- Node28&#45;&gt;Node11 -->
<g id="edge59_Node000028_Node000011" class="edge">
<title>Node28&#45;&gt;Node11</title>
<g id="a_edge59_Node000028_Node000011"><a xlink:title=" ">
<path fill="none" stroke="#63b8ff" d="M1621.64,-120.95C1595.1,-109.78 1558.31,-94.29 1532.76,-83.53"/>
<polygon fill="#63b8ff" stroke="#63b8ff" points="1533.8,-80.17 1523.23,-79.52 1531.09,-86.62 1533.8,-80.17"/>
</a>
</g>
</g>
<!-- Node28&#45;&gt;Node15 -->
<g id="edge57_Node000028_Node000015" class="edge">
<title>Node28&#45;&gt;Node15</title>
<g id="a_edge57_Node000028_Node000015"><a xlink:title=" ">
<path fill="none" stroke="#63b8ff" d="M1643.1,-120.79C1626.82,-102.39 1595.75,-70.81 1562,-55 1485.24,-19.04 1384.03,-11.69 1331.33,-10.46"/>
<polygon fill="#63b8ff" stroke="#63b8ff" points="1331.21,-6.96 1321.15,-10.29 1331.09,-13.96 1331.21,-6.96"/>
</a>
</g>
</g>
<!-- Node28&#45;&gt;Node17 -->
<g id="edge58_Node000028_Node000017" class="edge">
<title>Node28&#45;&gt;Node17</title>
<g id="a_edge58_Node000028_Node000017"><a xlink:title=" ">
<path fill="none" stroke="#63b8ff" d="M1587.92,-122.26C1584.91,-121.81 1581.93,-121.39 1579,-121 1381.85,-94.95 1328.25,-122.77 1133,-85 1129.33,-84.29 1125.54,-83.39 1121.78,-82.38"/>
<polygon fill="#63b8ff" stroke="#63b8ff" points="1122.62,-78.98 1112.04,-79.55 1120.66,-85.7 1122.62,-78.98"/>
</a>
</g>
</g>
<!-- Node28&#45;&gt;Node18 -->
<g id="edge60_Node000028_Node000018" class="edge">
<title>Node28&#45;&gt;Node18</title>
<g id="a_edge60_Node000028_Node000018"><a xlink:title=" ">
<path fill="none" stroke="#63b8ff" d="M1587.89,-122.45C1584.89,-121.95 1581.92,-121.46 1579,-121 1474.73,-104.44 1353.51,-88.91 1278.01,-79.68"/>
<polygon fill="#63b8ff" stroke="#63b8ff" points="1278.02,-76.16 1267.67,-78.42 1277.18,-83.1 1278.02,-76.16"/>
</a>
</g>
</g>
<!-- Node29&#45;&gt;Node15 -->
<g id="edge62_Node000029_Node000015" class="edge">
<title>Node29&#45;&gt;Node15</title>
<g id="a_edge62_Node000029_Node000015"><a xlink:title=" ">
<path fill="none" stroke="#63b8ff" d="M2032.88,-56.31C2029.54,-55.83 2026.24,-55.39 2023,-55 1758.42,-22.96 1436.73,-13.52 1331.3,-11.18"/>
<polygon fill="#63b8ff" stroke="#63b8ff" points="1331.28,-7.68 1321.21,-10.96 1331.13,-14.67 1331.28,-7.68"/>
</a>
</g>
</g>
<!-- Node30&#45;&gt;Node6 -->
<g id="edge65_Node000030_Node000006" class="edge">
<title>Node30&#45;&gt;Node6</title>
<g id="a_edge65_Node000030_Node000006"><a xlink:title=" ">
<path fill="none" stroke="#63b8ff" d="M405.64,-120.95C379.1,-109.78 342.31,-94.29 316.76,-83.53"/>
<polygon fill="#63b8ff" stroke="#63b8ff" points="317.8,-80.17 307.23,-79.52 315.09,-86.62 317.8,-80.17"/>
</a>
</g>
</g>
<!-- Node30&#45;&gt;Node15 -->
<g id="edge64_Node000030_Node000015" class="edge">
<title>Node30&#45;&gt;Node15</title>
<g id="a_edge64_Node000030_Node000015"><a xlink:title=" ">
<path fill="none" stroke="#63b8ff" d="M448.39,-120.87C461.89,-101.94 488.74,-69.09 521,-55 593.9,-23.17 1156.82,-26.59 1236,-19 1244.1,-18.22 1252.78,-17.14 1260.96,-16.01"/>
<polygon fill="#63b8ff" stroke="#63b8ff" points="1261.56,-19.46 1270.95,-14.56 1260.56,-12.53 1261.56,-19.46"/>
</a>
</g>
</g>
<!-- Node31&#45;&gt;Node6 -->
<g id="edge67_Node000031_Node000006" class="edge">
<title>Node31&#45;&gt;Node6</title>
<g id="a_edge67_Node000031_Node000006"><a xlink:title=" ">
<path fill="none" stroke="#63b8ff" d="M287,-120.8C287,-111.7 287,-99.79 287,-89.9"/>
<polygon fill="#63b8ff" stroke="#63b8ff" points="290.5,-89.84 287,-79.84 283.5,-89.84 290.5,-89.84"/>
</a>
</g>
</g>
<!-- Node32&#45;&gt;Node8 -->
<g id="edge70_Node000032_Node000008" class="edge">
<title>Node32&#45;&gt;Node8</title>
<g id="a_edge70_Node000032_Node000008"><a xlink:title=" ">
<path fill="none" stroke="#63b8ff" d="M1199,-241.84C1199,-234.21 1199,-224.7 1199,-216.45"/>
<polygon fill="#63b8ff" stroke="#63b8ff" points="1202.5,-216.27 1199,-206.27 1195.5,-216.27 1202.5,-216.27"/>
</a>
</g>
</g>
<!-- Node32&#45;&gt;Node10 -->
<g id="edge69_Node000032_Node000010" class="edge">
<title>Node32&#45;&gt;Node10</title>
<g id="a_edge69_Node000032_Node000010"><a xlink:title=" ">
<path fill="none" stroke="#63b8ff" d="M1265.56,-253C1460.45,-243.53 2019.5,-211.31 2073,-151 2096.48,-124.53 2049.83,-98.31 2015.06,-83.44"/>
<polygon fill="#63b8ff" stroke="#63b8ff" points="2016.22,-80.13 2005.64,-79.55 2013.55,-86.6 2016.22,-80.13"/>
</a>
</g>
</g>
<!-- Node33&#45;&gt;Node11 -->
<g id="edge74_Node000033_Node000011" class="edge">
<title>Node33&#45;&gt;Node11</title>
<g id="a_edge74_Node000033_Node000011"><a xlink:title=" ">
<path fill="none" stroke="#63b8ff" d="M2157.91,-129.82C2132.91,-127.03 2101.25,-123.63 2073,-121 1868.81,-102.02 1817,-105.95 1613,-85 1596.9,-83.35 1579.51,-81.27 1563.41,-79.22"/>
<polygon fill="#63b8ff" stroke="#63b8ff" points="1563.41,-75.7 1553.05,-77.89 1562.52,-82.64 1563.41,-75.7"/>
</a>
</g>
</g>
<!-- Node33&#45;&gt;Node13 -->
<g id="edge72_Node000033_Node000013" class="edge">
<title>Node33&#45;&gt;Node13</title>
<g id="a_edge72_Node000033_Node000013"><a xlink:title=" ">
<path fill="none" stroke="#63b8ff" d="M2206.99,-126.48C2213.76,-110.61 2225.28,-76.22 2209,-55 2193.19,-34.4 2122.15,-21.24 2078.28,-14.93"/>
<polygon fill="#63b8ff" stroke="#63b8ff" points="2078.69,-11.45 2068.3,-13.54 2077.72,-18.38 2078.69,-11.45"/>
</a>
</g>
</g>
<!-- Node33&#45;&gt;Node15 -->
<g id="edge73_Node000033_Node000015" class="edge">
<title>Node33&#45;&gt;Node15</title>
<g id="a_edge73_Node000033_Node000015"><a xlink:title=" ">
<path fill="none" stroke="#63b8ff" d="M2203.01,-126.48C2202.53,-109.64 2198.79,-72.25 2176,-55 2141.8,-29.11 1491.71,-14.42 1331.47,-11.19"/>
<polygon fill="#63b8ff" stroke="#63b8ff" points="1331.28,-7.68 1321.21,-10.98 1331.14,-14.68 1331.28,-7.68"/>
</a>
</g>
</g>
</g>
</svg>
