<?xml version="1.0" encoding="UTF-8" standalone="no"?>
<!DOCTYPE svg PUBLIC "-//W3C//DTD SVG 1.1//EN"
 "http://www.w3.org/Graphics/SVG/1.1/DTD/svg11.dtd">
<!-- Generated by graphviz version 2.43.0 (0)
 -->
<!-- Title: GameObjectPoolId.ixx Pages: 1 -->
<svg width="465pt" height="313pt"
 viewBox="0.00 0.00 465.26 313.00" xmlns="http://www.w3.org/2000/svg" xmlns:xlink="http://www.w3.org/1999/xlink">

<svg id="main" version="1.1" xmlns="http://www.w3.org/2000/svg" xmlns:xlink="http://www.w3.org/1999/xlink" xml:space="preserve">

<style type="text/css"><![CDATA[
.node, .edge {opacity: 0.7;}
.node.selected, .edge.selected {opacity: 1;}
.edge:hover path { stroke: red; }
.edge:hover polygon { stroke: red; fill: red; }
]]></style>
<script type="application/ecmascript" xlink:href="svg.min.js"/>
<svg id="graph" class="graph">
<g id="graph0" class="graph" transform="scale(1 1) rotate(0) translate(4 309)">
<title>GameObjectPoolId.ixx</title>
<!-- Node1 -->
<g id="Node000001" class="node">
<title>Node1</title>
<g id="a_Node000001"><a xlink:title="Strongly&#45;typed identifier for GameObjectPool instances.">
<polygon fill="#999999" stroke="#666666" points="305.11,-305 180.11,-305 180.11,-286 305.11,-286 305.11,-305"/>
<text text-anchor="middle" x="242.61" y="-293" font-family="Helvetica,sans-Serif" font-size="10.00">GameObjectPoolId.ixx</text>
</a>
</g>
</g>
<!-- Node2 -->
<g id="Node000002" class="node">
<title>Node2</title>
<g id="a_Node000002"><a xlink:title=" ">
<polygon fill="#e0e0e0" stroke="#999999" points="233.61,-19 183.61,-19 183.61,0 233.61,0 233.61,-19"/>
<text text-anchor="middle" x="208.61" y="-7" font-family="Helvetica,sans-Serif" font-size="10.00">cstdint</text>
</a>
</g>
</g>
<!-- Node1&#45;&gt;Node2 -->
<g id="edge1_Node000001_Node000002" class="edge">
<title>Node1&#45;&gt;Node2</title>
<g id="a_edge1_Node000001_Node000002"><a xlink:title=" ">
<path fill="none" stroke="#63b8ff" d="M179.97,-291.48C108.27,-284.27 0.61,-260.24 0.61,-181 0.61,-181 0.61,-181 0.61,-118.5 0.61,-89.04 -1.83,-75.2 19.61,-55 41.55,-34.32 125.11,-20.82 173.46,-14.55"/>
<polygon fill="#63b8ff" stroke="#63b8ff" points="174.01,-18.01 183.5,-13.29 173.14,-11.07 174.01,-18.01"/>
</a>
</g>
</g>
<!-- Node3 -->
<g id="Node000003" class="node">
<title>Node3</title>
<g id="a_Node000003"><a xlink:title=" ">
<polygon fill="#e0e0e0" stroke="#999999" points="102.11,-74 29.11,-74 29.11,-55 102.11,-55 102.11,-74"/>
<text text-anchor="middle" x="65.61" y="-62" font-family="Helvetica,sans-Serif" font-size="10.00">string_view</text>
</a>
</g>
</g>
<!-- Node1&#45;&gt;Node3 -->
<g id="edge2_Node000001_Node000003" class="edge">
<title>Node1&#45;&gt;Node3</title>
<g id="a_edge2_Node000001_Node000003"><a xlink:title=" ">
<path fill="none" stroke="#63b8ff" d="M206.72,-285.98C164.4,-273.79 95.96,-246.88 65.61,-195 45.25,-160.19 53.42,-110.58 60.14,-84"/>
<polygon fill="#63b8ff" stroke="#63b8ff" points="63.57,-84.7 62.84,-74.13 56.82,-82.86 63.57,-84.7"/>
</a>
</g>
</g>
<!-- Node4 -->
<g id="Node000004" class="node">
<title>Node4</title>
<g id="a_Node000004"><a xlink:href="helios_2core_2data_2__module_8ixx.html" target="_top" xlink:title="Aggregate module for helios::core::data namespace.">
<polygon fill="white" stroke="#666666" points="290.11,-250 195.11,-250 195.11,-231 290.11,-231 290.11,-250"/>
<text text-anchor="middle" x="242.61" y="-238" font-family="Helvetica,sans-Serif" font-size="10.00">helios.core.data</text>
</a>
</g>
</g>
<!-- Node1&#45;&gt;Node4 -->
<g id="edge3_Node000001_Node000004" class="edge">
<title>Node1&#45;&gt;Node4</title>
<g id="a_edge3_Node000001_Node000004"><a xlink:title=" ">
<path fill="none" stroke="#63b8ff" d="M242.61,-285.75C242.61,-278.8 242.61,-268.85 242.61,-260.13"/>
<polygon fill="#63b8ff" stroke="#63b8ff" points="246.11,-260.09 242.61,-250.09 239.11,-260.09 246.11,-260.09"/>
</a>
</g>
</g>
<!-- Node6 -->
<g id="Node000006" class="node">
<title>Node6</title>
<g id="a_Node000006"><a xlink:href="types_8ixx.html" target="_top" xlink:title="Core type definitions and tag types for the helios engine.">
<polygon fill="white" stroke="#666666" points="258.61,-74 158.61,-74 158.61,-55 258.61,-55 258.61,-74"/>
<text text-anchor="middle" x="208.61" y="-62" font-family="Helvetica,sans-Serif" font-size="10.00">helios.core.types</text>
</a>
</g>
</g>
<!-- Node1&#45;&gt;Node6 -->
<g id="edge18_Node000001_Node000006" class="edge">
<title>Node1&#45;&gt;Node6</title>
<g id="a_edge18_Node000001_Node000006"><a xlink:title=" ">
<path fill="none" stroke="#63b8ff" d="M285.74,-285.96C331.99,-274.25 403.14,-248.27 435.61,-195 442.55,-183.61 438.33,-178.05 435.61,-165 430.16,-138.89 432.22,-126.93 411.61,-110 390.11,-92.34 320.84,-79.81 269.16,-72.64"/>
<polygon fill="#63b8ff" stroke="#63b8ff" points="269.46,-69.14 259.08,-71.27 268.52,-76.08 269.46,-69.14"/>
</a>
</g>
</g>
<!-- Node8 -->
<g id="Node000008" class="node">
<title>Node8</title>
<g id="a_Node000008"><a xlink:href="algorithms_8ixx.html" target="_top" xlink:title="Core algorithms and hash functions for the helios engine.">
<polygon fill="white" stroke="#666666" points="440.11,-74 315.11,-74 315.11,-55 440.11,-55 440.11,-74"/>
<text text-anchor="middle" x="377.61" y="-62" font-family="Helvetica,sans-Serif" font-size="10.00">helios.core.algorithms</text>
</a>
</g>
</g>
<!-- Node1&#45;&gt;Node8 -->
<g id="edge19_Node000001_Node000008" class="edge">
<title>Node1&#45;&gt;Node8</title>
<g id="a_edge19_Node000001_Node000008"><a xlink:title=" ">
<path fill="none" stroke="#63b8ff" d="M305.31,-287.14C358.32,-276.92 429,-252.63 450.61,-195 464.17,-158.84 454.52,-141.8 432.61,-110 424.36,-98.03 411.98,-87.62 401.06,-79.88"/>
<polygon fill="#63b8ff" stroke="#63b8ff" points="402.96,-76.94 392.71,-74.27 399.06,-82.75 402.96,-76.94"/>
</a>
</g>
</g>
<!-- Node5 -->
<g id="Node000005" class="node">
<title>Node5</title>
<g id="a_Node000005"><a xlink:href="RuntimeHandle_8ixx.html" target="_top" xlink:title="Lightweight handle pairing a strong identifier with a runtime index.">
<polygon fill="white" stroke="#666666" points="214.11,-195 75.11,-195 75.11,-165 214.11,-165 214.11,-195"/>
<text text-anchor="start" x="83.11" y="-183" font-family="Helvetica,sans-Serif" font-size="10.00">helios.core.data.Runtime</text>
<text text-anchor="middle" x="144.61" y="-172" font-family="Helvetica,sans-Serif" font-size="10.00">Handle</text>
</a>
</g>
</g>
<!-- Node4&#45;&gt;Node5 -->
<g id="edge4_Node000004_Node000005" class="edge">
<title>Node4&#45;&gt;Node5</title>
<g id="a_edge4_Node000004_Node000005"><a xlink:title=" ">
<path fill="none" stroke="#63b8ff" d="M228.15,-230.87C214.73,-222.86 194.28,-210.65 176.97,-200.31"/>
<polygon fill="#63b8ff" stroke="#63b8ff" points="178.64,-197.23 168.26,-195.11 175.05,-203.25 178.64,-197.23"/>
</a>
</g>
</g>
<!-- Node7 -->
<g id="Node000007" class="node">
<title>Node7</title>
<g id="a_Node000007"><a xlink:href="StrongId_8ixx.html" target="_top" xlink:title="Strongly&#45;typed identifier template.">
<polygon fill="white" stroke="#666666" points="334.61,-129 196.61,-129 196.61,-110 334.61,-110 334.61,-129"/>
<text text-anchor="middle" x="265.61" y="-117" font-family="Helvetica,sans-Serif" font-size="10.00">helios.core.data.StrongId</text>
</a>
</g>
</g>
<!-- Node4&#45;&gt;Node7 -->
<g id="edge15_Node000004_Node000007" class="edge">
<title>Node4&#45;&gt;Node7</title>
<g id="a_edge15_Node000004_Node000007"><a xlink:title=" ">
<path fill="none" stroke="#63b8ff" d="M244.26,-230.94C247.96,-211.82 256.96,-165.27 262.01,-139.12"/>
<polygon fill="#63b8ff" stroke="#63b8ff" points="265.45,-139.78 263.91,-129.3 258.57,-138.46 265.45,-139.78"/>
</a>
</g>
</g>
<!-- Node10 -->
<g id="Node000010" class="node">
<title>Node10</title>
<g id="a_Node000010"><a xlink:href="TypeIndexer_8ixx.html" target="_top" xlink:title="Utility for generating unique type indices at runtime.">
<polygon fill="white" stroke="#666666" points="426.61,-189.5 270.61,-189.5 270.61,-170.5 426.61,-170.5 426.61,-189.5"/>
<text text-anchor="middle" x="348.61" y="-177.5" font-family="Helvetica,sans-Serif" font-size="10.00">helios.core.data.TypeIndexer</text>
</a>
</g>
</g>
<!-- Node4&#45;&gt;Node10 -->
<g id="edge16_Node000004_Node000010" class="edge">
<title>Node4&#45;&gt;Node10</title>
<g id="a_edge16_Node000004_Node000010"><a xlink:title=" ">
<path fill="none" stroke="#63b8ff" d="M258.25,-230.87C275.55,-221.32 303.66,-205.81 323.94,-194.62"/>
<polygon fill="#63b8ff" stroke="#63b8ff" points="325.84,-197.56 332.91,-189.67 322.46,-191.43 325.84,-197.56"/>
</a>
</g>
</g>
<!-- Node5&#45;&gt;Node2 -->
<g id="edge5_Node000005_Node000002" class="edge">
<title>Node5&#45;&gt;Node2</title>
<g id="a_edge5_Node000005_Node000002"><a xlink:title=" ">
<path fill="none" stroke="#63b8ff" d="M141.5,-165C136.93,-140.94 130.82,-90.88 149.61,-55 156.49,-41.87 169.18,-31.52 181.03,-24.13"/>
<polygon fill="#63b8ff" stroke="#63b8ff" points="182.91,-27.08 189.82,-19.05 179.41,-21.02 182.91,-27.08"/>
</a>
</g>
</g>
<!-- Node5&#45;&gt;Node3 -->
<g id="edge6_Node000005_Node000003" class="edge">
<title>Node5&#45;&gt;Node3</title>
<g id="a_edge6_Node000005_Node000003"><a xlink:title=" ">
<path fill="none" stroke="#63b8ff" d="M134.6,-164.63C120.07,-143.75 93.17,-105.09 77.6,-82.72"/>
<polygon fill="#63b8ff" stroke="#63b8ff" points="80.27,-80.44 71.69,-74.23 74.53,-84.44 80.27,-80.44"/>
</a>
</g>
</g>
<!-- Node5&#45;&gt;Node6 -->
<g id="edge7_Node000005_Node000006" class="edge">
<title>Node5&#45;&gt;Node6</title>
<g id="a_edge7_Node000005_Node000006"><a xlink:title=" ">
<path fill="none" stroke="#63b8ff" d="M152.72,-164.63C164.44,-143.84 186.09,-105.44 198.73,-83.02"/>
<polygon fill="#63b8ff" stroke="#63b8ff" points="201.82,-84.66 203.69,-74.23 195.73,-81.22 201.82,-84.66"/>
</a>
</g>
</g>
<!-- Node5&#45;&gt;Node7 -->
<g id="edge8_Node000005_Node000007" class="edge">
<title>Node5&#45;&gt;Node7</title>
<g id="a_edge8_Node000005_Node000007"><a xlink:title=" ">
<path fill="none" stroke="#63b8ff" d="M173.59,-164.99C193.33,-155.45 219.28,-142.9 238.59,-133.57"/>
<polygon fill="#63b8ff" stroke="#63b8ff" points="240.26,-136.64 247.74,-129.14 237.21,-130.34 240.26,-136.64"/>
</a>
</g>
</g>
<!-- Node7&#45;&gt;Node2 -->
<g id="edge9_Node000007_Node000002" class="edge">
<title>Node7&#45;&gt;Node2</title>
<g id="a_edge9_Node000007_Node000002"><a xlink:title=" ">
<path fill="none" stroke="#63b8ff" d="M268.38,-109.73C271.88,-96.94 276.46,-72.77 267.61,-55 261.04,-41.82 248.51,-31.52 236.68,-24.16"/>
<polygon fill="#63b8ff" stroke="#63b8ff" points="238.29,-21.05 227.88,-19.1 234.81,-27.12 238.29,-21.05"/>
</a>
</g>
</g>
<!-- Node7&#45;&gt;Node3 -->
<g id="edge10_Node000007_Node000003" class="edge">
<title>Node7&#45;&gt;Node3</title>
<g id="a_edge10_Node000007_Node000003"><a xlink:title=" ">
<path fill="none" stroke="#63b8ff" d="M233.48,-109.98C199.46,-100.97 145.61,-86.7 108.11,-76.76"/>
<polygon fill="#63b8ff" stroke="#63b8ff" points="108.56,-73.26 98,-74.08 106.77,-80.03 108.56,-73.26"/>
</a>
</g>
</g>
<!-- Node7&#45;&gt;Node6 -->
<g id="edge11_Node000007_Node000006" class="edge">
<title>Node7&#45;&gt;Node6</title>
<g id="a_edge11_Node000007_Node000006"><a xlink:title=" ">
<path fill="none" stroke="#63b8ff" d="M256.45,-109.98C248.11,-102.23 235.58,-90.58 225.43,-81.14"/>
<polygon fill="#63b8ff" stroke="#63b8ff" points="227.64,-78.42 217.93,-74.17 222.87,-83.54 227.64,-78.42"/>
</a>
</g>
</g>
<!-- Node7&#45;&gt;Node8 -->
<g id="edge12_Node000007_Node000008" class="edge">
<title>Node7&#45;&gt;Node8</title>
<g id="a_edge12_Node000007_Node000008"><a xlink:title=" ">
<path fill="none" stroke="#63b8ff" d="M283.6,-109.98C301.54,-101.5 329.33,-88.35 350.04,-78.54"/>
<polygon fill="#63b8ff" stroke="#63b8ff" points="351.75,-81.61 359.29,-74.17 348.75,-75.28 351.75,-81.61"/>
</a>
</g>
</g>
<!-- Node8&#45;&gt;Node2 -->
<g id="edge13_Node000008_Node000002" class="edge">
<title>Node8&#45;&gt;Node2</title>
<g id="a_edge13_Node000008_Node000002"><a xlink:title=" ">
<path fill="none" stroke="#63b8ff" d="M350.46,-54.98C321.41,-45.88 275.25,-31.4 243.52,-21.45"/>
<polygon fill="#63b8ff" stroke="#63b8ff" points="244.35,-18.04 233.76,-18.39 242.26,-24.72 244.35,-18.04"/>
</a>
</g>
</g>
<!-- Node9 -->
<g id="Node000009" class="node">
<title>Node9</title>
<g id="a_Node000009"><a xlink:title=" ">
<polygon fill="#e0e0e0" stroke="#999999" points="399.61,-19 355.61,-19 355.61,0 399.61,0 399.61,-19"/>
<text text-anchor="middle" x="377.61" y="-7" font-family="Helvetica,sans-Serif" font-size="10.00">string</text>
</a>
</g>
</g>
<!-- Node8&#45;&gt;Node9 -->
<g id="edge14_Node000008_Node000009" class="edge">
<title>Node8&#45;&gt;Node9</title>
<g id="a_edge14_Node000008_Node000009"><a xlink:title=" ">
<path fill="none" stroke="#63b8ff" d="M377.61,-54.75C377.61,-47.8 377.61,-37.85 377.61,-29.13"/>
<polygon fill="#63b8ff" stroke="#63b8ff" points="381.11,-29.09 377.61,-19.09 374.11,-29.09 381.11,-29.09"/>
</a>
</g>
</g>
<!-- Node11 -->
<g id="Node000011" class="node">
<title>Node11</title>
<g id="a_Node000011"><a xlink:title=" ">
<polygon fill="#e0e0e0" stroke="#999999" points="402.61,-129 352.61,-129 352.61,-110 402.61,-110 402.61,-129"/>
<text text-anchor="middle" x="377.61" y="-117" font-family="Helvetica,sans-Serif" font-size="10.00">atomic</text>
</a>
</g>
</g>
<!-- Node10&#45;&gt;Node11 -->
<g id="edge17_Node000010_Node000011" class="edge">
<title>Node10&#45;&gt;Node11</title>
<g id="a_edge17_Node000010_Node000011"><a xlink:title=" ">
<path fill="none" stroke="#63b8ff" d="M352.89,-170.37C357.04,-161.99 363.48,-149.01 368.74,-138.39"/>
<polygon fill="#63b8ff" stroke="#63b8ff" points="372.01,-139.68 373.31,-129.17 365.74,-136.57 372.01,-139.68"/>
</a>
</g>
</g>
</g>
</svg>
</svg>

<style type='text/css'>
<![CDATA[
[data-mouse-over-selected='false'] { opacity: 0.7; }
[data-mouse-over-selected='true']  { opacity: 1.0; }
]]>
</style>
<script type="application/ecmascript"><![CDATA[
document.addEventListener('DOMContentLoaded', (event) => {
  highlightEdges();
  highlightAdjacentNodes();
});
]]></script>
</svg>
