<?xml version="1.0" encoding="UTF-8" standalone="no"?>
<!DOCTYPE svg PUBLIC "-//W3C//DTD SVG 1.1//EN"
 "http://www.w3.org/Graphics/SVG/1.1/DTD/svg11.dtd">
<!-- Generated by graphviz version 2.43.0 (0)
 -->
<!-- Title: _module.ixx Pages: 1 -->
<svg width="673pt" height="280pt"
 viewBox="0.00 0.00 672.50 280.00" xmlns="http://www.w3.org/2000/svg" xmlns:xlink="http://www.w3.org/1999/xlink">
<g id="graph0" class="graph" transform="scale(1 1) rotate(0) translate(4 276)">
<title>_module.ixx</title>
<!-- Node1 -->
<g id="Node000001" class="node">
<title>Node1</title>
<g id="a_Node000001"><a xlink:title="Module facade for UI layout primitives.">
<polygon fill="#999999" stroke="#666666" points="242.5,-272 165.5,-272 165.5,-253 242.5,-253 242.5,-272"/>
<text text-anchor="middle" x="204" y="-260" font-family="Helvetica,sans-Serif" font-size="10.00">_module.ixx</text>
</a>
</g>
</g>
<!-- Node2 -->
<g id="Node000002" class="node">
<title>Node2</title>
<g id="a_Node000002"><a xlink:href="Anchor_8ixx.html" target="_top" xlink:title="Anchor points for UI element positioning.">
<polygon fill="white" stroke="#666666" points="176,-217 0,-217 0,-187 176,-187 176,-217"/>
<text text-anchor="start" x="8" y="-205" font-family="Helvetica,sans-Serif" font-size="10.00">helios.engine.modules.ui.layout.</text>
<text text-anchor="middle" x="88" y="-194" font-family="Helvetica,sans-Serif" font-size="10.00">Anchor</text>
</a>
</g>
</g>
<!-- Node1&#45;&gt;Node2 -->
<g id="edge1_Node000001_Node000002" class="edge">
<title>Node1&#45;&gt;Node2</title>
<g id="a_edge1_Node000001_Node000002"><a xlink:title=" ">
<path fill="none" stroke="#63b8ff" d="M186.88,-252.87C170.71,-244.71 145.9,-232.2 125.18,-221.75"/>
<polygon fill="#63b8ff" stroke="#63b8ff" points="126.49,-218.49 115.99,-217.11 123.34,-224.74 126.49,-218.49"/>
</a>
</g>
</g>
<!-- Node3 -->
<g id="Node000003" class="node">
<title>Node3</title>
<g id="a_Node000003"><a xlink:href="helios_2engine_2modules_2ui_2layout_2types_2__module_8ixx.html" target="_top" xlink:title="Module facade for UI layout primitives.">
<polygon fill="white" stroke="#666666" points="259.5,-145.5 56.5,-145.5 56.5,-126.5 259.5,-126.5 259.5,-145.5"/>
<text text-anchor="middle" x="158" y="-133.5" font-family="Helvetica,sans-Serif" font-size="10.00">helios.engine.modules.ui.layout.types</text>
</a>
</g>
</g>
<!-- Node1&#45;&gt;Node3 -->
<g id="edge2_Node000001_Node000003" class="edge">
<title>Node1&#45;&gt;Node3</title>
<g id="a_edge2_Node000001_Node000003"><a xlink:title=" ">
<path fill="none" stroke="#63b8ff" d="M202.46,-252.56C199.84,-238.35 193.94,-209.88 185,-187 180.58,-175.68 174.16,-163.67 168.69,-154.27"/>
<polygon fill="#63b8ff" stroke="#63b8ff" points="171.6,-152.31 163.46,-145.54 165.6,-155.91 171.6,-152.31"/>
</a>
</g>
</g>
<!-- Node7 -->
<g id="Node000007" class="node">
<title>Node7</title>
<g id="a_Node000007"><a xlink:href="helios_2engine_2modules_2ui_2layout_2components_2__module_8ixx.html" target="_top" xlink:title="Module facade for UI layout primitives.">
<polygon fill="white" stroke="#666666" points="515,-211.5 279,-211.5 279,-192.5 515,-192.5 515,-211.5"/>
<text text-anchor="middle" x="397" y="-199.5" font-family="Helvetica,sans-Serif" font-size="10.00">helios.engine.modules.ui.layout.components</text>
</a>
</g>
</g>
<!-- Node1&#45;&gt;Node7 -->
<g id="edge6_Node000001_Node000007" class="edge">
<title>Node1&#45;&gt;Node7</title>
<g id="a_edge6_Node000001_Node000007"><a xlink:title=" ">
<path fill="none" stroke="#63b8ff" d="M232.06,-252.99C265.51,-242.86 321.56,-225.87 358.9,-214.55"/>
<polygon fill="#63b8ff" stroke="#63b8ff" points="360.35,-217.77 368.9,-211.52 358.32,-211.07 360.35,-217.77"/>
</a>
</g>
</g>
<!-- Node4 -->
<g id="Node000004" class="node">
<title>Node4</title>
<g id="a_Node000004"><a xlink:href="TimeDisplayMode_8ixx.html" target="_top" xlink:title="Enum for selecting how time values are displayed.">
<polygon fill="white" stroke="#666666" points="331,-85 125,-85 125,-55 331,-55 331,-85"/>
<text text-anchor="start" x="133" y="-73" font-family="Helvetica,sans-Serif" font-size="10.00">helios.engine.modules.ui.layout.types.</text>
<text text-anchor="middle" x="228" y="-62" font-family="Helvetica,sans-Serif" font-size="10.00">TimeDisplayMode</text>
</a>
</g>
</g>
<!-- Node3&#45;&gt;Node4 -->
<g id="edge3_Node000003_Node000004" class="edge">
<title>Node3&#45;&gt;Node4</title>
<g id="a_edge3_Node000003_Node000004"><a xlink:title=" ">
<path fill="none" stroke="#63b8ff" d="M167.44,-126.37C177.02,-117.61 192.22,-103.71 204.99,-92.04"/>
<polygon fill="#63b8ff" stroke="#63b8ff" points="207.54,-94.45 212.56,-85.12 202.82,-89.28 207.54,-94.45"/>
</a>
</g>
</g>
<!-- Node5 -->
<g id="Node000005" class="node">
<title>Node5</title>
<g id="a_Node000005"><a xlink:title=" ">
<polygon fill="#e0e0e0" stroke="#999999" points="435,-19 385,-19 385,0 435,0 435,-19"/>
<text text-anchor="middle" x="410" y="-7" font-family="Helvetica,sans-Serif" font-size="10.00">format</text>
</a>
</g>
</g>
<!-- Node4&#45;&gt;Node5 -->
<g id="edge4_Node000004_Node000005" class="edge">
<title>Node4&#45;&gt;Node5</title>
<g id="a_edge4_Node000004_Node000005"><a xlink:title=" ">
<path fill="none" stroke="#63b8ff" d="M271.59,-54.99C303.3,-44.8 345.65,-31.18 375.12,-21.71"/>
<polygon fill="#63b8ff" stroke="#63b8ff" points="376.52,-24.94 384.97,-18.55 374.37,-18.27 376.52,-24.94"/>
</a>
</g>
</g>
<!-- Node6 -->
<g id="Node000006" class="node">
<title>Node6</title>
<g id="a_Node000006"><a xlink:title=" ">
<polygon fill="#e0e0e0" stroke="#999999" points="367,-19 323,-19 323,0 367,0 367,-19"/>
<text text-anchor="middle" x="345" y="-7" font-family="Helvetica,sans-Serif" font-size="10.00">string</text>
</a>
</g>
</g>
<!-- Node4&#45;&gt;Node6 -->
<g id="edge5_Node000004_Node000006" class="edge">
<title>Node4&#45;&gt;Node6</title>
<g id="a_edge5_Node000004_Node000006"><a xlink:title=" ">
<path fill="none" stroke="#63b8ff" d="M256.02,-54.99C275.02,-45.49 299.97,-33.02 318.61,-23.69"/>
<polygon fill="#63b8ff" stroke="#63b8ff" points="320.34,-26.74 327.72,-19.14 317.21,-20.48 320.34,-26.74"/>
</a>
</g>
</g>
<!-- Node8 -->
<g id="Node000008" class="node">
<title>Node8</title>
<g id="a_Node000008"><a xlink:href="NumberFormatterComponent_8ixx.html" target="_top" xlink:title="Component that formats numeric values for UI display.">
<polygon fill="white" stroke="#666666" points="664.5,-85 425.5,-85 425.5,-55 664.5,-55 664.5,-85"/>
<text text-anchor="start" x="433.5" y="-73" font-family="Helvetica,sans-Serif" font-size="10.00">helios.engine.modules.ui.layout.components.</text>
<text text-anchor="middle" x="545" y="-62" font-family="Helvetica,sans-Serif" font-size="10.00">NumberFormatterComponent</text>
</a>
</g>
</g>
<!-- Node7&#45;&gt;Node8 -->
<g id="edge7_Node000007_Node000008" class="edge">
<title>Node7&#45;&gt;Node8</title>
<g id="a_edge7_Node000007_Node000008"><a xlink:title=" ">
<path fill="none" stroke="#63b8ff" d="M449.88,-192.48C476.29,-185.58 506.66,-173.18 526,-151 539.36,-135.67 543.74,-112.64 544.99,-95.21"/>
<polygon fill="#63b8ff" stroke="#63b8ff" points="548.49,-95.35 545.42,-85.21 541.49,-95.05 548.49,-95.35"/>
</a>
</g>
</g>
<!-- Node9 -->
<g id="Node000009" class="node">
<title>Node9</title>
<g id="a_Node000009"><a xlink:href="TimeFormatterComponent_8ixx.html" target="_top" xlink:title="Component that formats time values for UI display.">
<polygon fill="white" stroke="#666666" points="516.5,-151 277.5,-151 277.5,-121 516.5,-121 516.5,-151"/>
<text text-anchor="start" x="285.5" y="-139" font-family="Helvetica,sans-Serif" font-size="10.00">helios.engine.modules.ui.layout.components.</text>
<text text-anchor="middle" x="397" y="-128" font-family="Helvetica,sans-Serif" font-size="10.00">TimeFormatterComponent</text>
</a>
</g>
</g>
<!-- Node7&#45;&gt;Node9 -->
<g id="edge10_Node000007_Node000009" class="edge">
<title>Node7&#45;&gt;Node9</title>
<g id="a_edge10_Node000007_Node000009"><a xlink:title=" ">
<path fill="none" stroke="#63b8ff" d="M397,-192.37C397,-184.49 397,-172.45 397,-161.6"/>
<polygon fill="#63b8ff" stroke="#63b8ff" points="400.5,-161.36 397,-151.36 393.5,-161.36 400.5,-161.36"/>
</a>
</g>
</g>
<!-- Node8&#45;&gt;Node5 -->
<g id="edge8_Node000008_Node000005" class="edge">
<title>Node8&#45;&gt;Node5</title>
<g id="a_edge8_Node000008_Node000005"><a xlink:title=" ">
<path fill="none" stroke="#63b8ff" d="M512.66,-54.99C490.34,-45.31 460.9,-32.56 439.27,-23.18"/>
<polygon fill="#63b8ff" stroke="#63b8ff" points="440.5,-19.9 429.94,-19.14 437.72,-26.33 440.5,-19.9"/>
</a>
</g>
</g>
<!-- Node8&#45;&gt;Node6 -->
<g id="edge9_Node000008_Node000006" class="edge">
<title>Node8&#45;&gt;Node6</title>
<g id="a_edge9_Node000008_Node000006"><a xlink:title=" ">
<path fill="none" stroke="#63b8ff" d="M497.1,-54.99C459.87,-44.1 409.28,-29.3 376.88,-19.82"/>
<polygon fill="#63b8ff" stroke="#63b8ff" points="377.62,-16.39 367.03,-16.95 375.65,-23.11 377.62,-16.39"/>
</a>
</g>
</g>
<!-- Node9&#45;&gt;Node4 -->
<g id="edge13_Node000009_Node000004" class="edge">
<title>Node9&#45;&gt;Node4</title>
<g id="a_edge13_Node000009_Node000004"><a xlink:title=" ">
<path fill="none" stroke="#63b8ff" d="M359.91,-120.95C334.82,-111.45 301.47,-98.82 274.59,-88.64"/>
<polygon fill="#63b8ff" stroke="#63b8ff" points="275.59,-85.28 265,-85.01 273.11,-91.83 275.59,-85.28"/>
</a>
</g>
</g>
<!-- Node9&#45;&gt;Node5 -->
<g id="edge11_Node000009_Node000005" class="edge">
<title>Node9&#45;&gt;Node5</title>
<g id="a_edge11_Node000009_Node000005"><a xlink:title=" ">
<path fill="none" stroke="#63b8ff" d="M398.49,-120.72C400.85,-98.12 405.45,-54.12 408.06,-29.09"/>
<polygon fill="#63b8ff" stroke="#63b8ff" points="411.55,-29.38 409.11,-19.07 404.59,-28.65 411.55,-29.38"/>
</a>
</g>
</g>
<!-- Node9&#45;&gt;Node6 -->
<g id="edge12_Node000009_Node000006" class="edge">
<title>Node9&#45;&gt;Node6</title>
<g id="a_edge12_Node000009_Node000006"><a xlink:title=" ">
<path fill="none" stroke="#63b8ff" d="M391.03,-120.72C381.51,-97.92 362.89,-53.33 352.48,-28.42"/>
<polygon fill="#63b8ff" stroke="#63b8ff" points="355.66,-26.95 348.58,-19.07 349.2,-29.65 355.66,-26.95"/>
</a>
</g>
</g>
</g>
</svg>
