<?xml version="1.0" encoding="UTF-8" standalone="no"?>
<!DOCTYPE svg PUBLIC "-//W3C//DTD SVG 1.1//EN"
 "http://www.w3.org/Graphics/SVG/1.1/DTD/svg11.dtd">
<!-- Generated by graphviz version 2.43.0 (0)
 -->
<!-- Title: _module.ixx Pages: 1 -->
<svg width="1667pt" height="401pt"
 viewBox="0.00 0.00 1667.00 401.00" xmlns="http://www.w3.org/2000/svg" xmlns:xlink="http://www.w3.org/1999/xlink">
<g id="graph0" class="graph" transform="scale(1 1) rotate(0) translate(4 397)">
<title>_module.ixx</title>
<!-- Node1 -->
<g id="Node000001" class="node">
<title>Node1</title>
<g id="a_Node000001"><a xlink:title="Module exports for configs of the text rendering subsystem.">
<polygon fill="#999999" stroke="#666666" points="408.5,-393 331.5,-393 331.5,-374 408.5,-374 408.5,-393"/>
<text text-anchor="middle" x="370" y="-381" font-family="Helvetica,sans-Serif" font-size="10.00">_module.ixx</text>
</a>
</g>
</g>
<!-- Node2 -->
<g id="Node000002" class="node">
<title>Node2</title>
<g id="a_Node000002"><a xlink:href="TextShaderPropertiesOverride_8ixx.html" target="_top" xlink:title=" ">
<polygon fill="white" stroke="#666666" points="198,-272 36,-272 36,-242 198,-242 198,-272"/>
<text text-anchor="start" x="44" y="-260" font-family="Helvetica,sans-Serif" font-size="10.00">helios.rendering.text.config.</text>
<text text-anchor="middle" x="117" y="-249" font-family="Helvetica,sans-Serif" font-size="10.00">TextShaderPropertiesOverride</text>
</a>
</g>
</g>
<!-- Node1&#45;&gt;Node2 -->
<g id="edge1_Node000001_Node000002" class="edge">
<title>Node1&#45;&gt;Node2</title>
<g id="a_edge1_Node000001_Node000002"><a xlink:title=" ">
<path fill="none" stroke="#63b8ff" d="M352.61,-373.94C312.08,-354 210.59,-304.06 154.95,-276.68"/>
<polygon fill="#63b8ff" stroke="#63b8ff" points="156.29,-273.44 145.78,-272.16 153.2,-279.72 156.29,-273.44"/>
</a>
</g>
</g>
<!-- Node9 -->
<g id="Node000009" class="node">
<title>Node9</title>
<g id="a_Node000009"><a xlink:href="TextShaderProperties_8ixx.html" target="_top" xlink:title=" ">
<polygon fill="white" stroke="#666666" points="629.5,-338 476.5,-338 476.5,-308 629.5,-308 629.5,-338"/>
<text text-anchor="start" x="484.5" y="-326" font-family="Helvetica,sans-Serif" font-size="10.00">helios.rendering.text.config.</text>
<text text-anchor="middle" x="553" y="-315" font-family="Helvetica,sans-Serif" font-size="10.00">TextShaderProperties</text>
</a>
</g>
</g>
<!-- Node1&#45;&gt;Node9 -->
<g id="edge12_Node000001_Node000009" class="edge">
<title>Node1&#45;&gt;Node9</title>
<g id="a_edge12_Node000001_Node000009"><a xlink:title=" ">
<path fill="none" stroke="#63b8ff" d="M396.61,-373.99C423.41,-365.43 465.5,-351.97 499.27,-341.18"/>
<polygon fill="#63b8ff" stroke="#63b8ff" points="500.54,-344.44 509,-338.06 498.41,-337.78 500.54,-344.44"/>
</a>
</g>
</g>
<!-- Node3 -->
<g id="Node000003" class="node">
<title>Node3</title>
<g id="a_Node000003"><a xlink:title=" ">
<polygon fill="#e0e0e0" stroke="#999999" points="56,-134.5 0,-134.5 0,-115.5 56,-115.5 56,-134.5"/>
<text text-anchor="middle" x="28" y="-122.5" font-family="Helvetica,sans-Serif" font-size="10.00">optional</text>
</a>
</g>
</g>
<!-- Node2&#45;&gt;Node3 -->
<g id="edge2_Node000002_Node000003" class="edge">
<title>Node2&#45;&gt;Node3</title>
<g id="a_edge2_Node000002_Node000003"><a xlink:title=" ">
<path fill="none" stroke="#63b8ff" d="M107.31,-241.84C90.85,-217.81 57.53,-169.13 39.77,-143.19"/>
<polygon fill="#63b8ff" stroke="#63b8ff" points="42.53,-141.02 33.99,-134.75 36.75,-144.98 42.53,-141.02"/>
</a>
</g>
</g>
<!-- Node4 -->
<g id="Node000004" class="node">
<title>Node4</title>
<g id="a_Node000004"><a xlink:href="UniformSemantics_8ixx.html" target="_top" xlink:title="Definitions of uniform semantics used by shaders.">
<polygon fill="white" stroke="#666666" points="208,-140 74,-140 74,-110 208,-110 208,-140"/>
<text text-anchor="start" x="82" y="-128" font-family="Helvetica,sans-Serif" font-size="10.00">helios.rendering.shader.</text>
<text text-anchor="middle" x="141" y="-117" font-family="Helvetica,sans-Serif" font-size="10.00">UniformSemantics</text>
</a>
</g>
</g>
<!-- Node2&#45;&gt;Node4 -->
<g id="edge3_Node000002_Node000004" class="edge">
<title>Node2&#45;&gt;Node4</title>
<g id="a_edge3_Node000002_Node000004"><a xlink:title=" ">
<path fill="none" stroke="#63b8ff" d="M119.61,-241.84C123.67,-219.86 131.54,-177.27 136.51,-150.3"/>
<polygon fill="#63b8ff" stroke="#63b8ff" points="140.02,-150.61 138.39,-140.14 133.13,-149.34 140.02,-150.61"/>
</a>
</g>
</g>
<!-- Node5 -->
<g id="Node000005" class="node">
<title>Node5</title>
<g id="a_Node000005"><a xlink:href="UniformValueMap_8ixx.html" target="_top" xlink:title="Mapping of uniform names to values used by shader programs.">
<polygon fill="white" stroke="#666666" points="379,-206 245,-206 245,-176 379,-176 379,-206"/>
<text text-anchor="start" x="253" y="-194" font-family="Helvetica,sans-Serif" font-size="10.00">helios.rendering.shader.</text>
<text text-anchor="middle" x="312" y="-183" font-family="Helvetica,sans-Serif" font-size="10.00">UniformValueMap</text>
</a>
</g>
</g>
<!-- Node2&#45;&gt;Node5 -->
<g id="edge4_Node000002_Node000005" class="edge">
<title>Node2&#45;&gt;Node5</title>
<g id="a_edge4_Node000002_Node000005"><a xlink:title=" ">
<path fill="none" stroke="#63b8ff" d="M159.79,-241.95C189.13,-232.33 228.24,-219.49 259.47,-209.24"/>
<polygon fill="#63b8ff" stroke="#63b8ff" points="260.9,-212.46 269.31,-206.01 258.71,-205.81 260.9,-212.46"/>
</a>
</g>
</g>
<!-- Node8 -->
<g id="Node000008" class="node">
<title>Node8</title>
<g id="a_Node000008"><a xlink:href="helios_2math_2types_2__module_8ixx.html" target="_top" xlink:title="Module exports for vector and matrix type definitions.">
<polygon fill="white" stroke="#666666" points="460,-134.5 356,-134.5 356,-115.5 460,-115.5 460,-134.5"/>
<text text-anchor="middle" x="408" y="-122.5" font-family="Helvetica,sans-Serif" font-size="10.00">helios.math.types</text>
</a>
</g>
</g>
<!-- Node2&#45;&gt;Node8 -->
<g id="edge11_Node000002_Node000008" class="edge">
<title>Node2&#45;&gt;Node8</title>
<g id="a_edge11_Node000002_Node000008"><a xlink:title=" ">
<path fill="none" stroke="#63b8ff" d="M198.32,-250.59C267.93,-244.28 361.06,-231.3 388,-206 404.68,-190.33 408.33,-163.05 408.71,-144.76"/>
<polygon fill="#63b8ff" stroke="#63b8ff" points="412.21,-144.68 408.62,-134.71 405.21,-144.75 412.21,-144.68"/>
</a>
</g>
</g>
<!-- Node5&#45;&gt;Node3 -->
<g id="edge6_Node000005_Node000003" class="edge">
<title>Node5&#45;&gt;Node3</title>
<g id="a_edge6_Node000005_Node000003"><a xlink:title=" ">
<path fill="none" stroke="#63b8ff" d="M244.99,-179.46C194.9,-170.86 125.01,-157.3 65,-140 62.86,-139.38 60.66,-138.69 58.46,-137.97"/>
<polygon fill="#63b8ff" stroke="#63b8ff" points="59.53,-134.63 48.93,-134.59 57.19,-141.23 59.53,-134.63"/>
</a>
</g>
</g>
<!-- Node5&#45;&gt;Node4 -->
<g id="edge10_Node000005_Node000004" class="edge">
<title>Node5&#45;&gt;Node4</title>
<g id="a_edge10_Node000005_Node000004"><a xlink:title=" ">
<path fill="none" stroke="#63b8ff" d="M274.47,-175.95C249.08,-166.45 215.34,-153.82 188.14,-143.64"/>
<polygon fill="#63b8ff" stroke="#63b8ff" points="189.03,-140.24 178.44,-140.01 186.58,-146.8 189.03,-140.24"/>
</a>
</g>
</g>
<!-- Node6 -->
<g id="Node000006" class="node">
<title>Node6</title>
<g id="a_Node000006"><a xlink:title=" ">
<polygon fill="#e0e0e0" stroke="#999999" points="268,-134.5 226,-134.5 226,-115.5 268,-115.5 268,-134.5"/>
<text text-anchor="middle" x="247" y="-122.5" font-family="Helvetica,sans-Serif" font-size="10.00">array</text>
</a>
</g>
</g>
<!-- Node5&#45;&gt;Node6 -->
<g id="edge5_Node000005_Node000006" class="edge">
<title>Node5&#45;&gt;Node6</title>
<g id="a_edge5_Node000005_Node000006"><a xlink:title=" ">
<path fill="none" stroke="#63b8ff" d="M297.57,-175.8C287.44,-165.82 273.87,-152.46 263.34,-142.09"/>
<polygon fill="#63b8ff" stroke="#63b8ff" points="265.56,-139.37 255.98,-134.84 260.65,-144.35 265.56,-139.37"/>
</a>
</g>
</g>
<!-- Node7 -->
<g id="Node000007" class="node">
<title>Node7</title>
<g id="a_Node000007"><a xlink:title=" ">
<polygon fill="#e0e0e0" stroke="#999999" points="337.5,-134.5 286.5,-134.5 286.5,-115.5 337.5,-115.5 337.5,-134.5"/>
<text text-anchor="middle" x="312" y="-122.5" font-family="Helvetica,sans-Serif" font-size="10.00">variant</text>
</a>
</g>
</g>
<!-- Node5&#45;&gt;Node7 -->
<g id="edge7_Node000005_Node000007" class="edge">
<title>Node5&#45;&gt;Node7</title>
<g id="a_edge7_Node000005_Node000007"><a xlink:title=" ">
<path fill="none" stroke="#63b8ff" d="M312,-175.8C312,-166.7 312,-154.79 312,-144.9"/>
<polygon fill="#63b8ff" stroke="#63b8ff" points="315.5,-144.84 312,-134.84 308.5,-144.84 315.5,-144.84"/>
</a>
</g>
</g>
<!-- Node5&#45;&gt;Node8 -->
<g id="edge8_Node000005_Node000008" class="edge">
<title>Node5&#45;&gt;Node8</title>
<g id="a_edge8_Node000005_Node000008"><a xlink:title=" ">
<path fill="none" stroke="#63b8ff" d="M333.31,-175.8C349.1,-165.27 370.54,-150.97 386.4,-140.4"/>
<polygon fill="#63b8ff" stroke="#63b8ff" points="388.63,-143.12 395.01,-134.66 384.75,-137.29 388.63,-143.12"/>
</a>
</g>
</g>
<!-- Node8&#45;&gt;Node8 -->
<g id="edge9_Node000008_Node000008" class="edge">
<title>Node8&#45;&gt;Node8</title>
<g id="a_edge9_Node000008_Node000008"><a xlink:title=" ">
<path fill="none" stroke="#63b8ff" d="M433.85,-134.53C455.44,-138.61 478,-135.43 478,-125 478,-116.2 461.94,-112.56 443.95,-114.09"/>
<polygon fill="#63b8ff" stroke="#63b8ff" points="443.28,-110.65 433.85,-115.47 444.23,-117.58 443.28,-110.65"/>
</a>
</g>
</g>
<!-- Node9&#45;&gt;Node4 -->
<g id="edge16_Node000009_Node000004" class="edge">
<title>Node9&#45;&gt;Node4</title>
<g id="a_edge16_Node000009_Node000004"><a xlink:title=" ">
<path fill="none" stroke="#63b8ff" d="M476.25,-310.61C434.57,-302.82 382.76,-290.48 339,-272 288.92,-250.84 279.78,-238.25 236,-206 210.48,-187.2 182.94,-163.61 164.12,-146.94"/>
<polygon fill="#63b8ff" stroke="#63b8ff" points="166.41,-144.29 156.62,-140.24 161.75,-149.51 166.41,-144.29"/>
</a>
</g>
</g>
<!-- Node9&#45;&gt;Node5 -->
<g id="edge17_Node000009_Node000005" class="edge">
<title>Node9&#45;&gt;Node5</title>
<g id="a_edge17_Node000009_Node000005"><a xlink:title=" ">
<path fill="none" stroke="#63b8ff" d="M476.46,-312.62C441.95,-305.59 402.06,-293.33 371,-272 350.11,-257.66 333.78,-233.45 323.64,-215.42"/>
<polygon fill="#63b8ff" stroke="#63b8ff" points="326.48,-213.29 318.66,-206.13 320.31,-216.6 326.48,-213.29"/>
</a>
</g>
</g>
<!-- Node10 -->
<g id="Node000010" class="node">
<title>Node10</title>
<g id="a_Node000010"><a xlink:title=" ">
<polygon fill="#e0e0e0" stroke="#999999" points="549,-74 491,-74 491,-55 549,-55 549,-74"/>
<text text-anchor="middle" x="520" y="-62" font-family="Helvetica,sans-Serif" font-size="10.00">memory</text>
</a>
</g>
</g>
<!-- Node9&#45;&gt;Node10 -->
<g id="edge13_Node000009_Node000010" class="edge">
<title>Node9&#45;&gt;Node10</title>
<g id="a_edge13_Node000009_Node000010"><a xlink:title=" ">
<path fill="none" stroke="#63b8ff" d="M542.67,-307.94C536.25,-298.35 528.57,-285.05 525,-272 506.71,-205.21 513.17,-121.69 517.44,-84.68"/>
<polygon fill="#63b8ff" stroke="#63b8ff" points="520.96,-84.73 518.72,-74.37 514.02,-83.87 520.96,-84.73"/>
</a>
</g>
</g>
<!-- Node11 -->
<g id="Node000011" class="node">
<title>Node11</title>
<g id="a_Node000011"><a xlink:title=" ">
<polygon fill="#e0e0e0" stroke="#999999" points="1140,-19 1096,-19 1096,0 1140,0 1140,-19"/>
<text text-anchor="middle" x="1118" y="-7" font-family="Helvetica,sans-Serif" font-size="10.00">string</text>
</a>
</g>
</g>
<!-- Node9&#45;&gt;Node11 -->
<g id="edge14_Node000009_Node000011" class="edge">
<title>Node9&#45;&gt;Node11</title>
<g id="a_edge14_Node000009_Node000011"><a xlink:title=" ">
<path fill="none" stroke="#63b8ff" d="M629.89,-321.05C880.71,-316.93 1659,-295.8 1659,-192 1659,-192 1659,-192 1659,-124 1659,-19.42 1266.88,-10.64 1150.31,-10.35"/>
<polygon fill="#63b8ff" stroke="#63b8ff" points="1150.22,-6.85 1140.22,-10.34 1150.21,-13.85 1150.22,-6.85"/>
</a>
</g>
</g>
<!-- Node12 -->
<g id="Node000012" class="node">
<title>Node12</title>
<g id="a_Node000012"><a xlink:title=" ">
<polygon fill="#e0e0e0" stroke="#999999" points="1209.5,-266.5 1164.5,-266.5 1164.5,-247.5 1209.5,-247.5 1209.5,-266.5"/>
<text text-anchor="middle" x="1187" y="-254.5" font-family="Helvetica,sans-Serif" font-size="10.00">utility</text>
</a>
</g>
</g>
<!-- Node9&#45;&gt;Node12 -->
<g id="edge15_Node000009_Node000012" class="edge">
<title>Node9&#45;&gt;Node12</title>
<g id="a_edge15_Node000009_Node000012"><a xlink:title=" ">
<path fill="none" stroke="#63b8ff" d="M629.58,-318.78C768.7,-312.4 1057.58,-296.63 1155,-272 1156.9,-271.52 1158.82,-270.94 1160.74,-270.29"/>
<polygon fill="#63b8ff" stroke="#63b8ff" points="1162.06,-273.53 1170.1,-266.63 1159.51,-267.01 1162.06,-273.53"/>
</a>
</g>
</g>
<!-- Node13 -->
<g id="Node000013" class="node">
<title>Node13</title>
<g id="a_Node000013"><a xlink:href="helios_2math_2__module_8ixx.html" target="_top" xlink:title="Module exports for mathematical types and utilities.">
<polygon fill="white" stroke="#666666" points="1146,-266.5 1072,-266.5 1072,-247.5 1146,-247.5 1146,-266.5"/>
<text text-anchor="middle" x="1109" y="-254.5" font-family="Helvetica,sans-Serif" font-size="10.00">helios.math</text>
</a>
</g>
</g>
<!-- Node9&#45;&gt;Node13 -->
<g id="edge18_Node000009_Node000013" class="edge">
<title>Node9&#45;&gt;Node13</title>
<g id="a_edge18_Node000009_Node000013"><a xlink:title=" ">
<path fill="none" stroke="#63b8ff" d="M629.73,-313.17C746.57,-299.72 965.64,-274.5 1061.76,-263.44"/>
<polygon fill="#63b8ff" stroke="#63b8ff" points="1062.23,-266.91 1071.76,-262.29 1061.43,-259.95 1062.23,-266.91"/>
</a>
</g>
</g>
<!-- Node20 -->
<g id="Node000020" class="node">
<title>Node20</title>
<g id="a_Node000020"><a xlink:href="Colors_8ixx.html" target="_top" xlink:title="Standard color constants as vec4f (RGBA).">
<polygon fill="white" stroke="#666666" points="478,-266.5 380,-266.5 380,-247.5 478,-247.5 478,-266.5"/>
<text text-anchor="middle" x="429" y="-254.5" font-family="Helvetica,sans-Serif" font-size="10.00">helios.util.Colors</text>
</a>
</g>
</g>
<!-- Node9&#45;&gt;Node20 -->
<g id="edge28_Node000009_Node000020" class="edge">
<title>Node9&#45;&gt;Node20</title>
<g id="a_edge28_Node000009_Node000020"><a xlink:title=" ">
<path fill="none" stroke="#63b8ff" d="M525.79,-307.95C504.52,-296.98 475.18,-281.83 454.39,-271.11"/>
<polygon fill="#63b8ff" stroke="#63b8ff" points="455.99,-267.99 445.5,-266.52 452.78,-274.21 455.99,-267.99"/>
</a>
</g>
</g>
<!-- Node21 -->
<g id="Node000021" class="node">
<title>Node21</title>
<g id="a_Node000021"><a xlink:href="FontId_8ixx.html" target="_top" xlink:title="Strongly&#45;typed identifier for font families.">
<polygon fill="white" stroke="#666666" points="908,-272 774,-272 774,-242 908,-242 908,-272"/>
<text text-anchor="start" x="782" y="-260" font-family="Helvetica,sans-Serif" font-size="10.00">helios.engine.core.data.</text>
<text text-anchor="middle" x="841" y="-249" font-family="Helvetica,sans-Serif" font-size="10.00">FontId</text>
</a>
</g>
</g>
<!-- Node9&#45;&gt;Node21 -->
<g id="edge30_Node000009_Node000021" class="edge">
<title>Node9&#45;&gt;Node21</title>
<g id="a_edge30_Node000009_Node000021"><a xlink:title=" ">
<path fill="none" stroke="#63b8ff" d="M616.2,-307.95C661.03,-297.99 721.31,-284.6 768.16,-274.19"/>
<polygon fill="#63b8ff" stroke="#63b8ff" points="768.94,-277.6 777.94,-272.01 767.42,-270.77 768.94,-277.6"/>
</a>
</g>
</g>
<!-- Node24 -->
<g id="Node000024" class="node">
<title>Node24</title>
<g id="a_Node000024"><a xlink:href="Shader_8ixx.html" target="_top" xlink:title="Abstraction for a compiled shader program.">
<polygon fill="white" stroke="#666666" points="668,-272 534,-272 534,-242 668,-242 668,-272"/>
<text text-anchor="start" x="542" y="-260" font-family="Helvetica,sans-Serif" font-size="10.00">helios.rendering.shader.</text>
<text text-anchor="middle" x="601" y="-249" font-family="Helvetica,sans-Serif" font-size="10.00">Shader</text>
</a>
</g>
</g>
<!-- Node9&#45;&gt;Node24 -->
<g id="edge36_Node000009_Node000024" class="edge">
<title>Node9&#45;&gt;Node24</title>
<g id="a_edge36_Node000009_Node000024"><a xlink:title=" ">
<path fill="none" stroke="#63b8ff" d="M563.65,-307.8C569.68,-299.76 577.36,-289.53 584.18,-280.43"/>
<polygon fill="#63b8ff" stroke="#63b8ff" points="587.18,-282.26 590.38,-272.16 581.58,-278.06 587.18,-282.26"/>
</a>
</g>
</g>
<!-- Node13&#45;&gt;Node8 -->
<g id="edge23_Node000013_Node000008" class="edge">
<title>Node13&#45;&gt;Node8</title>
<g id="a_edge23_Node000013_Node000008"><a xlink:title=" ">
<path fill="none" stroke="#63b8ff" d="M1071.9,-252.7C976.48,-244.05 727.63,-220.4 693,-206 673.13,-197.74 674.52,-185.05 655,-176 595.83,-148.58 521.82,-136.14 470.32,-130.53"/>
<polygon fill="#63b8ff" stroke="#63b8ff" points="470.63,-127.04 460.33,-129.5 469.91,-134.01 470.63,-127.04"/>
</a>
</g>
</g>
<!-- Node14 -->
<g id="Node000014" class="node">
<title>Node14</title>
<g id="a_Node000014"><a xlink:href="helios_2math_2concepts_2__module_8ixx.html" target="_top" xlink:title="Math concepts module exports.">
<polygon fill="white" stroke="#666666" points="1169.5,-200.5 1048.5,-200.5 1048.5,-181.5 1169.5,-181.5 1169.5,-200.5"/>
<text text-anchor="middle" x="1109" y="-188.5" font-family="Helvetica,sans-Serif" font-size="10.00">helios.math.concepts</text>
</a>
</g>
</g>
<!-- Node13&#45;&gt;Node14 -->
<g id="edge19_Node000013_Node000014" class="edge">
<title>Node13&#45;&gt;Node14</title>
<g id="a_edge19_Node000013_Node000014"><a xlink:title=" ">
<path fill="none" stroke="#63b8ff" d="M1109,-247.37C1109,-238.16 1109,-223.29 1109,-211.27"/>
<polygon fill="#63b8ff" stroke="#63b8ff" points="1112.5,-210.91 1109,-200.91 1105.5,-210.91 1112.5,-210.91"/>
</a>
</g>
</g>
<!-- Node15 -->
<g id="Node000015" class="node">
<title>Node15</title>
<g id="a_Node000015"><a xlink:href="helios_2math_2transform_2__module_8ixx.html" target="_top" xlink:title="Module exports for transformation utilities.">
<polygon fill="white" stroke="#666666" points="1330.5,-200.5 1205.5,-200.5 1205.5,-181.5 1330.5,-181.5 1330.5,-200.5"/>
<text text-anchor="middle" x="1268" y="-188.5" font-family="Helvetica,sans-Serif" font-size="10.00">helios.math.transform</text>
</a>
</g>
</g>
<!-- Node13&#45;&gt;Node15 -->
<g id="edge21_Node000013_Node000015" class="edge">
<title>Node13&#45;&gt;Node15</title>
<g id="a_edge21_Node000013_Node000015"><a xlink:title=" ">
<path fill="none" stroke="#63b8ff" d="M1130.44,-247.37C1157.9,-236.32 1205.68,-217.08 1237.07,-204.45"/>
<polygon fill="#63b8ff" stroke="#63b8ff" points="1238.67,-207.58 1246.64,-200.6 1236.06,-201.08 1238.67,-207.58"/>
</a>
</g>
</g>
<!-- Node16 -->
<g id="Node000016" class="node">
<title>Node16</title>
<g id="a_Node000016"><a xlink:href="utils_8ixx.html" target="_top" xlink:title="Misc math utility functions.">
<polygon fill="white" stroke="#666666" points="1631,-200.5 1533,-200.5 1533,-181.5 1631,-181.5 1631,-200.5"/>
<text text-anchor="middle" x="1582" y="-188.5" font-family="Helvetica,sans-Serif" font-size="10.00">helios.math.utils</text>
</a>
</g>
</g>
<!-- Node13&#45;&gt;Node16 -->
<g id="edge24_Node000013_Node000016" class="edge">
<title>Node13&#45;&gt;Node16</title>
<g id="a_edge24_Node000013_Node000016"><a xlink:title=" ">
<path fill="none" stroke="#63b8ff" d="M1134.64,-247.39C1141.51,-245.35 1148.98,-243.37 1156,-242 1317.71,-210.33 1362.57,-233.72 1525,-206 1530.14,-205.12 1535.51,-204.04 1540.8,-202.86"/>
<polygon fill="#63b8ff" stroke="#63b8ff" points="1541.87,-206.2 1550.81,-200.52 1540.28,-199.39 1541.87,-206.2"/>
</a>
</g>
</g>
<!-- Node18 -->
<g id="Node000018" class="node">
<title>Node18</title>
<g id="a_Node000018"><a xlink:href="TransformType_8ixx.html" target="_top" xlink:title="Defines transform inheritance flags for scene graph hierarchies.">
<polygon fill="white" stroke="#666666" points="1515.5,-200.5 1366.5,-200.5 1366.5,-181.5 1515.5,-181.5 1515.5,-200.5"/>
<text text-anchor="middle" x="1441" y="-188.5" font-family="Helvetica,sans-Serif" font-size="10.00">helios.math.TransformType</text>
</a>
</g>
</g>
<!-- Node13&#45;&gt;Node18 -->
<g id="edge26_Node000013_Node000018" class="edge">
<title>Node13&#45;&gt;Node18</title>
<g id="a_edge26_Node000013_Node000018"><a xlink:title=" ">
<path fill="none" stroke="#63b8ff" d="M1135.7,-247.46C1142.29,-245.52 1149.37,-243.56 1156,-242 1177.44,-236.94 1303.26,-215.35 1380.38,-202.25"/>
<polygon fill="#63b8ff" stroke="#63b8ff" points="1381.19,-205.66 1390.46,-200.54 1380.02,-198.76 1381.19,-205.66"/>
</a>
</g>
</g>
<!-- Node14&#45;&gt;Node14 -->
<g id="edge20_Node000014_Node000014" class="edge">
<title>Node14&#45;&gt;Node14</title>
<g id="a_edge20_Node000014_Node000014"><a xlink:title=" ">
<path fill="none" stroke="#63b8ff" d="M1133.51,-200.56C1158.98,-206.37 1187.5,-203.18 1187.5,-191 1187.5,-180.39 1165.86,-176.6 1143.45,-179.64"/>
<polygon fill="#63b8ff" stroke="#63b8ff" points="1142.73,-176.21 1133.51,-181.44 1143.98,-183.1 1142.73,-176.21"/>
</a>
</g>
</g>
<!-- Node15&#45;&gt;Node15 -->
<g id="edge22_Node000015_Node000015" class="edge">
<title>Node15&#45;&gt;Node15</title>
<g id="a_edge22_Node000015_Node000015"><a xlink:title=" ">
<path fill="none" stroke="#63b8ff" d="M1293.14,-200.56C1319.25,-206.37 1348.5,-203.18 1348.5,-191 1348.5,-180.34 1326.1,-176.57 1303.01,-179.68"/>
<polygon fill="#63b8ff" stroke="#63b8ff" points="1302.37,-176.24 1293.14,-181.44 1303.6,-183.13 1302.37,-176.24"/>
</a>
</g>
</g>
<!-- Node17 -->
<g id="Node000017" class="node">
<title>Node17</title>
<g id="a_Node000017"><a xlink:title=" ">
<polygon fill="#e0e0e0" stroke="#999999" points="1611.5,-134.5 1552.5,-134.5 1552.5,-115.5 1611.5,-115.5 1611.5,-134.5"/>
<text text-anchor="middle" x="1582" y="-122.5" font-family="Helvetica,sans-Serif" font-size="10.00">numbers</text>
</a>
</g>
</g>
<!-- Node16&#45;&gt;Node17 -->
<g id="edge25_Node000016_Node000017" class="edge">
<title>Node16&#45;&gt;Node17</title>
<g id="a_edge25_Node000016_Node000017"><a xlink:title=" ">
<path fill="none" stroke="#63b8ff" d="M1582,-181.37C1582,-172.16 1582,-157.29 1582,-145.27"/>
<polygon fill="#63b8ff" stroke="#63b8ff" points="1585.5,-144.91 1582,-134.91 1578.5,-144.91 1585.5,-144.91"/>
</a>
</g>
</g>
<!-- Node19 -->
<g id="Node000019" class="node">
<title>Node19</title>
<g id="a_Node000019"><a xlink:title=" ">
<polygon fill="#e0e0e0" stroke="#999999" points="1234,-134.5 1184,-134.5 1184,-115.5 1234,-115.5 1234,-134.5"/>
<text text-anchor="middle" x="1209" y="-122.5" font-family="Helvetica,sans-Serif" font-size="10.00">cstdint</text>
</a>
</g>
</g>
<!-- Node18&#45;&gt;Node19 -->
<g id="edge27_Node000018_Node000019" class="edge">
<title>Node18&#45;&gt;Node19</title>
<g id="a_edge27_Node000018_Node000019"><a xlink:title=" ">
<path fill="none" stroke="#63b8ff" d="M1409.71,-181.37C1366.57,-169.47 1289.05,-148.08 1244.02,-135.66"/>
<polygon fill="#63b8ff" stroke="#63b8ff" points="1244.69,-132.21 1234.12,-132.93 1242.83,-138.96 1244.69,-132.21"/>
</a>
</g>
</g>
<!-- Node20&#45;&gt;Node8 -->
<g id="edge29_Node000020_Node000008" class="edge">
<title>Node20&#45;&gt;Node8</title>
<g id="a_edge29_Node000020_Node000008"><a xlink:title=" ">
<path fill="none" stroke="#63b8ff" d="M428.56,-247.06C427.72,-232.21 425.57,-201.56 421,-176 419.12,-165.47 416.16,-153.89 413.55,-144.53"/>
<polygon fill="#63b8ff" stroke="#63b8ff" points="416.86,-143.39 410.72,-134.76 410.14,-145.34 416.86,-143.39"/>
</a>
</g>
</g>
<!-- Node21&#45;&gt;Node19 -->
<g id="edge31_Node000021_Node000019" class="edge">
<title>Node21&#45;&gt;Node19</title>
<g id="a_edge31_Node000021_Node000019"><a xlink:title=" ">
<path fill="none" stroke="#63b8ff" d="M903.41,-241.99C933.85,-233.8 970.4,-221.9 1001,-206 1020.4,-195.92 1020.43,-185.77 1040,-176 1093.64,-149.23 1112.86,-158.14 1170,-140 1172.12,-139.33 1174.29,-138.61 1176.48,-137.88"/>
<polygon fill="#63b8ff" stroke="#63b8ff" points="1177.7,-141.16 1186,-134.58 1175.4,-134.55 1177.7,-141.16"/>
</a>
</g>
</g>
<!-- Node22 -->
<g id="Node000022" class="node">
<title>Node22</title>
<g id="a_Node000022"><a xlink:title=" ">
<polygon fill="#e0e0e0" stroke="#999999" points="645.5,-200.5 572.5,-200.5 572.5,-181.5 645.5,-181.5 645.5,-200.5"/>
<text text-anchor="middle" x="609" y="-188.5" font-family="Helvetica,sans-Serif" font-size="10.00">string_view</text>
</a>
</g>
</g>
<!-- Node21&#45;&gt;Node22 -->
<g id="edge32_Node000021_Node000022" class="edge">
<title>Node21&#45;&gt;Node22</title>
<g id="a_edge32_Node000021_Node000022"><a xlink:title=" ">
<path fill="none" stroke="#63b8ff" d="M790.09,-241.95C747.97,-230.34 688.92,-214.05 649.85,-203.27"/>
<polygon fill="#63b8ff" stroke="#63b8ff" points="650.45,-199.8 639.88,-200.52 648.58,-206.55 650.45,-199.8"/>
</a>
</g>
</g>
<!-- Node23 -->
<g id="Node000023" class="node">
<title>Node23</title>
<g id="a_Node000023"><a xlink:href="algorithms_8ixx.html" target="_top" xlink:title="Core algorithms and hash functions for the helios engine.">
<polygon fill="white" stroke="#666666" points="991.5,-200.5 866.5,-200.5 866.5,-181.5 991.5,-181.5 991.5,-200.5"/>
<text text-anchor="middle" x="929" y="-188.5" font-family="Helvetica,sans-Serif" font-size="10.00">helios.core.algorithms</text>
</a>
</g>
</g>
<!-- Node21&#45;&gt;Node23 -->
<g id="edge33_Node000021_Node000023" class="edge">
<title>Node21&#45;&gt;Node23</title>
<g id="a_edge33_Node000021_Node000023"><a xlink:title=" ">
<path fill="none" stroke="#63b8ff" d="M860.53,-241.8C874.87,-231.37 894.3,-217.24 908.79,-206.69"/>
<polygon fill="#63b8ff" stroke="#63b8ff" points="911.07,-209.37 917.09,-200.66 906.95,-203.71 911.07,-209.37"/>
</a>
</g>
</g>
<!-- Node23&#45;&gt;Node11 -->
<g id="edge35_Node000023_Node000011" class="edge">
<title>Node23&#45;&gt;Node11</title>
<g id="a_edge35_Node000023_Node000011"><a xlink:title=" ">
<path fill="none" stroke="#63b8ff" d="M969.28,-181.41C1027,-168.91 1126.92,-146.48 1132,-140 1157.48,-107.49 1139.47,-55.44 1127.06,-28.29"/>
<polygon fill="#63b8ff" stroke="#63b8ff" points="1130.17,-26.69 1122.68,-19.19 1123.87,-29.72 1130.17,-26.69"/>
</a>
</g>
</g>
<!-- Node23&#45;&gt;Node19 -->
<g id="edge34_Node000023_Node000019" class="edge">
<title>Node23&#45;&gt;Node19</title>
<g id="a_edge34_Node000023_Node000019"><a xlink:title=" ">
<path fill="none" stroke="#63b8ff" d="M973.79,-181.49C1032.9,-170.12 1133.7,-150.23 1170,-140 1172.42,-139.32 1174.91,-138.56 1177.41,-137.76"/>
<polygon fill="#63b8ff" stroke="#63b8ff" points="1178.55,-141.07 1186.9,-134.54 1176.31,-134.44 1178.55,-141.07"/>
</a>
</g>
</g>
<!-- Node24&#45;&gt;Node5 -->
<g id="edge37_Node000024_Node000005" class="edge">
<title>Node24&#45;&gt;Node5</title>
<g id="a_edge37_Node000024_Node000005"><a xlink:title=" ">
<path fill="none" stroke="#63b8ff" d="M537.58,-241.95C492.59,-231.99 432.11,-218.6 385.09,-208.19"/>
<polygon fill="#63b8ff" stroke="#63b8ff" points="385.79,-204.76 375.27,-206.01 384.28,-211.59 385.79,-204.76"/>
</a>
</g>
</g>
<!-- Node25 -->
<g id="Node000025" class="node">
<title>Node25</title>
<g id="a_Node000025"><a xlink:href="Logger_8ixx.html" target="_top" xlink:title="Simple synchronous logger with configurable output sinks.">
<polygon fill="white" stroke="#666666" points="691.5,-134.5 572.5,-134.5 572.5,-115.5 691.5,-115.5 691.5,-134.5"/>
<text text-anchor="middle" x="632" y="-122.5" font-family="Helvetica,sans-Serif" font-size="10.00">helios.util.log.Logger</text>
</a>
</g>
</g>
<!-- Node24&#45;&gt;Node25 -->
<g id="edge38_Node000024_Node000025" class="edge">
<title>Node24&#45;&gt;Node25</title>
<g id="a_edge38_Node000024_Node000025"><a xlink:title=" ">
<path fill="none" stroke="#63b8ff" d="M586.51,-241.98C571.72,-225.9 552.46,-198.8 564,-176 572.14,-159.91 588.16,-147.74 602.61,-139.43"/>
<polygon fill="#63b8ff" stroke="#63b8ff" points="604.61,-142.33 611.78,-134.53 601.31,-136.16 604.61,-142.33"/>
</a>
</g>
</g>
<!-- Node30 -->
<g id="Node000030" class="node">
<title>Node30</title>
<g id="a_Node000030"><a xlink:href="LogManager_8ixx.html" target="_top" xlink:title="Central manager for scoped loggers with configurable sinks.">
<polygon fill="white" stroke="#666666" points="848,-200.5 702,-200.5 702,-181.5 848,-181.5 848,-200.5"/>
<text text-anchor="middle" x="775" y="-188.5" font-family="Helvetica,sans-Serif" font-size="10.00">helios.util.log.LogManager</text>
</a>
</g>
</g>
<!-- Node24&#45;&gt;Node30 -->
<g id="edge46_Node000024_Node000030" class="edge">
<title>Node24&#45;&gt;Node30</title>
<g id="a_edge46_Node000024_Node000030"><a xlink:title=" ">
<path fill="none" stroke="#63b8ff" d="M639.19,-241.95C669.97,-230.63 712.81,-214.88 742.09,-204.1"/>
<polygon fill="#63b8ff" stroke="#63b8ff" points="743.67,-207.25 751.84,-200.52 741.25,-200.68 743.67,-207.25"/>
</a>
</g>
</g>
<!-- Node25&#45;&gt;Node10 -->
<g id="edge41_Node000025_Node000010" class="edge">
<title>Node25&#45;&gt;Node10</title>
<g id="a_edge41_Node000025_Node000010"><a xlink:title=" ">
<path fill="none" stroke="#63b8ff" d="M615.47,-115.37C597.03,-105.73 566.96,-90.03 545.49,-78.81"/>
<polygon fill="#63b8ff" stroke="#63b8ff" points="547.08,-75.69 536.59,-74.17 543.84,-81.9 547.08,-75.69"/>
</a>
</g>
</g>
<!-- Node25&#45;&gt;Node11 -->
<g id="edge39_Node000025_Node000011" class="edge">
<title>Node25&#45;&gt;Node11</title>
<g id="a_edge39_Node000025_Node000011"><a xlink:title=" ">
<path fill="none" stroke="#63b8ff" d="M634.56,-115.43C639.57,-100.32 652.23,-69.17 675,-55 743.58,-12.31 995.46,-9.67 1085.63,-10.13"/>
<polygon fill="#63b8ff" stroke="#63b8ff" points="1085.77,-13.63 1095.8,-10.2 1085.82,-6.63 1085.77,-13.63"/>
</a>
</g>
</g>
<!-- Node26 -->
<g id="Node000026" class="node">
<title>Node26</title>
<g id="a_Node000026"><a xlink:title=" ">
<polygon fill="#e0e0e0" stroke="#999999" points="730.5,-74 683.5,-74 683.5,-55 730.5,-55 730.5,-74"/>
<text text-anchor="middle" x="707" y="-62" font-family="Helvetica,sans-Serif" font-size="10.00">vector</text>
</a>
</g>
</g>
<!-- Node25&#45;&gt;Node26 -->
<g id="edge40_Node000025_Node000026" class="edge">
<title>Node25&#45;&gt;Node26</title>
<g id="a_edge40_Node000025_Node000026"><a xlink:title=" ">
<path fill="none" stroke="#63b8ff" d="M643.07,-115.37C654.81,-106.21 673.59,-91.56 687.76,-80.51"/>
<polygon fill="#63b8ff" stroke="#63b8ff" points="690.16,-83.08 695.89,-74.17 685.85,-77.56 690.16,-83.08"/>
</a>
</g>
</g>
<!-- Node27 -->
<g id="Node000027" class="node">
<title>Node27</title>
<g id="a_Node000027"><a xlink:title=" ">
<polygon fill="#e0e0e0" stroke="#999999" points="797,-74 749,-74 749,-55 797,-55 797,-74"/>
<text text-anchor="middle" x="773" y="-62" font-family="Helvetica,sans-Serif" font-size="10.00">mutex</text>
</a>
</g>
</g>
<!-- Node25&#45;&gt;Node27 -->
<g id="edge42_Node000025_Node000027" class="edge">
<title>Node25&#45;&gt;Node27</title>
<g id="a_edge42_Node000025_Node000027"><a xlink:title=" ">
<path fill="none" stroke="#63b8ff" d="M652.5,-115.49C676.31,-105.62 715.79,-89.23 743.04,-77.93"/>
<polygon fill="#63b8ff" stroke="#63b8ff" points="744.58,-81.08 752.47,-74.02 741.89,-74.62 744.58,-81.08"/>
</a>
</g>
</g>
<!-- Node28 -->
<g id="Node000028" class="node">
<title>Node28</title>
<g id="a_Node000028"><a xlink:title=" ">
<polygon fill="#e0e0e0" stroke="#999999" points="627,-74 567,-74 567,-55 627,-55 627,-74"/>
<text text-anchor="middle" x="597" y="-62" font-family="Helvetica,sans-Serif" font-size="10.00">iostream</text>
</a>
</g>
</g>
<!-- Node25&#45;&gt;Node28 -->
<g id="edge43_Node000025_Node000028" class="edge">
<title>Node25&#45;&gt;Node28</title>
<g id="a_edge43_Node000025_Node000028"><a xlink:title=" ">
<path fill="none" stroke="#63b8ff" d="M626.84,-115.37C621.77,-106.9 613.9,-93.74 607.51,-83.07"/>
<polygon fill="#63b8ff" stroke="#63b8ff" points="610.32,-80.95 602.19,-74.17 604.32,-84.55 610.32,-80.95"/>
</a>
</g>
</g>
<!-- Node29 -->
<g id="Node000029" class="node">
<title>Node29</title>
<g id="a_Node000029"><a xlink:href="LogSink_8ixx.html" target="_top" xlink:title="Abstract interface for log output destinations.">
<polygon fill="white" stroke="#666666" points="1090,-74 966,-74 966,-55 1090,-55 1090,-74"/>
<text text-anchor="middle" x="1028" y="-62" font-family="Helvetica,sans-Serif" font-size="10.00">helios.util.log.LogSink</text>
</a>
</g>
</g>
<!-- Node25&#45;&gt;Node29 -->
<g id="edge44_Node000025_Node000029" class="edge">
<title>Node25&#45;&gt;Node29</title>
<g id="a_edge44_Node000025_Node000029"><a xlink:title=" ">
<path fill="none" stroke="#63b8ff" d="M689.58,-115.49C761.43,-104.88 884.12,-86.76 960.37,-75.49"/>
<polygon fill="#63b8ff" stroke="#63b8ff" points="960.97,-78.94 970.35,-74.02 959.94,-72.02 960.97,-78.94"/>
</a>
</g>
</g>
<!-- Node29&#45;&gt;Node11 -->
<g id="edge45_Node000029_Node000011" class="edge">
<title>Node29&#45;&gt;Node11</title>
<g id="a_edge45_Node000029_Node000011"><a xlink:title=" ">
<path fill="none" stroke="#63b8ff" d="M1042.46,-54.98C1056.42,-46.77 1077.79,-34.18 1094.25,-24.49"/>
<polygon fill="#63b8ff" stroke="#63b8ff" points="1096.44,-27.26 1103.28,-19.17 1092.88,-21.23 1096.44,-27.26"/>
</a>
</g>
</g>
<!-- Node30&#45;&gt;Node10 -->
<g id="edge50_Node000030_Node000010" class="edge">
<title>Node30&#45;&gt;Node10</title>
<g id="a_edge50_Node000030_Node000010"><a xlink:title=" ">
<path fill="none" stroke="#63b8ff" d="M730.95,-181.48C673.14,-170 577.41,-149.88 564,-140 544.87,-125.91 532.58,-100.79 525.99,-83.65"/>
<polygon fill="#63b8ff" stroke="#63b8ff" points="529.26,-82.42 522.6,-74.18 522.67,-84.77 529.26,-82.42"/>
</a>
</g>
</g>
<!-- Node30&#45;&gt;Node11 -->
<g id="edge47_Node000030_Node000011" class="edge">
<title>Node30&#45;&gt;Node11</title>
<g id="a_edge47_Node000030_Node000011"><a xlink:title=" ">
<path fill="none" stroke="#63b8ff" d="M825.47,-181.45C836.21,-179.64 847.48,-177.75 858,-176 906.65,-167.9 1039.47,-172 1077,-140 1109.81,-112.03 1116.67,-57.97 1117.91,-29.34"/>
<polygon fill="#63b8ff" stroke="#63b8ff" points="1121.41,-29.18 1118.15,-19.09 1114.41,-29.01 1121.41,-29.18"/>
</a>
</g>
</g>
<!-- Node30&#45;&gt;Node25 -->
<g id="edge54_Node000030_Node000025" class="edge">
<title>Node30&#45;&gt;Node25</title>
<g id="a_edge54_Node000030_Node000025"><a xlink:title=" ">
<path fill="none" stroke="#63b8ff" d="M755.71,-181.37C731.3,-170.44 689.03,-151.52 660.79,-138.88"/>
<polygon fill="#63b8ff" stroke="#63b8ff" points="661.99,-135.59 651.44,-134.7 659.13,-141.98 661.99,-135.59"/>
</a>
</g>
</g>
<!-- Node30&#45;&gt;Node26 -->
<g id="edge52_Node000030_Node000026" class="edge">
<title>Node30&#45;&gt;Node26</title>
<g id="a_edge52_Node000030_Node000026"><a xlink:title=" ">
<path fill="none" stroke="#63b8ff" d="M770.33,-181.44C759.26,-161.19 731.29,-109.97 716.5,-82.9"/>
<polygon fill="#63b8ff" stroke="#63b8ff" points="719.57,-81.22 711.71,-74.12 713.43,-84.57 719.57,-81.22"/>
</a>
</g>
</g>
<!-- Node30&#45;&gt;Node27 -->
<g id="edge51_Node000030_Node000027" class="edge">
<title>Node30&#45;&gt;Node27</title>
<g id="a_edge51_Node000030_Node000027"><a xlink:title=" ">
<path fill="none" stroke="#63b8ff" d="M774.86,-181.44C774.54,-161.54 773.74,-111.76 773.3,-84.35"/>
<polygon fill="#63b8ff" stroke="#63b8ff" points="776.8,-84.06 773.14,-74.12 769.8,-84.17 776.8,-84.06"/>
</a>
</g>
</g>
<!-- Node30&#45;&gt;Node29 -->
<g id="edge55_Node000030_Node000029" class="edge">
<title>Node30&#45;&gt;Node29</title>
<g id="a_edge55_Node000030_Node000029"><a xlink:title=" ">
<path fill="none" stroke="#63b8ff" d="M824.94,-181.47C906.66,-167.5 1060.05,-141.13 1061,-140 1075.57,-122.66 1059.01,-97.87 1044.56,-81.73"/>
<polygon fill="#63b8ff" stroke="#63b8ff" points="1046.8,-79.01 1037.37,-74.17 1041.72,-83.83 1046.8,-79.01"/>
</a>
</g>
</g>
<!-- Node31 -->
<g id="Node000031" class="node">
<title>Node31</title>
<g id="a_Node000031"><a xlink:title=" ">
<polygon fill="#e0e0e0" stroke="#999999" points="879.5,-134.5 786.5,-134.5 786.5,-115.5 879.5,-115.5 879.5,-134.5"/>
<text text-anchor="middle" x="833" y="-122.5" font-family="Helvetica,sans-Serif" font-size="10.00">unordered_map</text>
</a>
</g>
</g>
<!-- Node30&#45;&gt;Node31 -->
<g id="edge48_Node000030_Node000031" class="edge">
<title>Node30&#45;&gt;Node31</title>
<g id="a_edge48_Node000030_Node000031"><a xlink:title=" ">
<path fill="none" stroke="#63b8ff" d="M782.82,-181.37C791.85,-171.4 806.91,-154.79 818.17,-142.36"/>
<polygon fill="#63b8ff" stroke="#63b8ff" points="820.81,-144.67 824.93,-134.91 815.62,-139.96 820.81,-144.67"/>
</a>
</g>
</g>
<!-- Node32 -->
<g id="Node000032" class="node">
<title>Node32</title>
<g id="a_Node000032"><a xlink:title=" ">
<polygon fill="#e0e0e0" stroke="#999999" points="984,-134.5 898,-134.5 898,-115.5 984,-115.5 984,-134.5"/>
<text text-anchor="middle" x="941" y="-122.5" font-family="Helvetica,sans-Serif" font-size="10.00">unordered_set</text>
</a>
</g>
</g>
<!-- Node30&#45;&gt;Node32 -->
<g id="edge49_Node000030_Node000032" class="edge">
<title>Node30&#45;&gt;Node32</title>
<g id="a_edge49_Node000030_Node000032"><a xlink:title=" ">
<path fill="none" stroke="#63b8ff" d="M797.39,-181.37C826.18,-170.27 876.37,-150.92 909.14,-138.28"/>
<polygon fill="#63b8ff" stroke="#63b8ff" points="910.63,-141.46 918.7,-134.6 908.11,-134.93 910.63,-141.46"/>
</a>
</g>
</g>
<!-- Node33 -->
<g id="Node000033" class="node">
<title>Node33</title>
<g id="a_Node000033"><a xlink:title=" ">
<polygon fill="#e0e0e0" stroke="#999999" points="1052,-134.5 1002,-134.5 1002,-115.5 1052,-115.5 1052,-134.5"/>
<text text-anchor="middle" x="1027" y="-122.5" font-family="Helvetica,sans-Serif" font-size="10.00">cstring</text>
</a>
</g>
</g>
<!-- Node30&#45;&gt;Node33 -->
<g id="edge53_Node000030_Node000033" class="edge">
<title>Node30&#45;&gt;Node33</title>
<g id="a_edge53_Node000030_Node000033"><a xlink:title=" ">
<path fill="none" stroke="#63b8ff" d="M822.38,-181.48C866.95,-172.91 935.28,-158.37 993,-140 994.67,-139.47 996.38,-138.89 998.09,-138.28"/>
<polygon fill="#63b8ff" stroke="#63b8ff" points="999.7,-141.41 1007.79,-134.56 997.2,-134.87 999.7,-141.41"/>
</a>
</g>
</g>
</g>
</svg>
