<?xml version="1.0" encoding="UTF-8" standalone="no"?>
<!DOCTYPE svg PUBLIC "-//W3C//DTD SVG 1.1//EN"
 "http://www.w3.org/Graphics/SVG/1.1/DTD/svg11.dtd">
<!-- Generated by graphviz version 2.43.0 (0)
 -->
<!-- Title: _module.ixx Pages: 1 -->
<svg width="1470pt" height="599pt"
 viewBox="0.00 0.00 1469.50 599.00" xmlns="http://www.w3.org/2000/svg" xmlns:xlink="http://www.w3.org/1999/xlink">
<g id="graph0" class="graph" transform="scale(1 1) rotate(0) translate(4 595)">
<title>_module.ixx</title>
<!-- Node1 -->
<g id="Node000001" class="node">
<title>Node1</title>
<g id="a_Node000001"><a xlink:title="Aggregate module for helios::engine::runtime::spawn::policy::conditions namespace.">
<polygon fill="#999999" stroke="#666666" points="561.5,-591 484.5,-591 484.5,-572 561.5,-572 561.5,-591"/>
<text text-anchor="middle" x="523" y="-579" font-family="Helvetica,sans-Serif" font-size="10.00">_module.ixx</text>
</a>
</g>
</g>
<!-- Node2 -->
<g id="Node000002" class="node">
<title>Node2</title>
<g id="a_Node000002"><a xlink:href="RequestedAmountIsAvailableCondition_8ixx.html" target="_top" xlink:title="Spawn condition checking pool availability for requested amount.">
<polygon fill="white" stroke="#666666" points="514.5,-536 269.5,-536 269.5,-506 514.5,-506 514.5,-536"/>
<text text-anchor="start" x="277.5" y="-524" font-family="Helvetica,sans-Serif" font-size="10.00">helios.engine.runtime.spawn.policy.conditions.</text>
<text text-anchor="middle" x="392" y="-513" font-family="Helvetica,sans-Serif" font-size="10.00">RequestedAmountIsAvailableCondition</text>
</a>
</g>
</g>
<!-- Node1&#45;&gt;Node2 -->
<g id="edge1_Node000001_Node000002" class="edge">
<title>Node1&#45;&gt;Node2</title>
<g id="a_edge1_Node000001_Node000002"><a xlink:title=" ">
<path fill="none" stroke="#63b8ff" d="M503.95,-571.99C485.35,-563.68 456.44,-550.78 432.66,-540.16"/>
<polygon fill="#63b8ff" stroke="#63b8ff" points="434.05,-536.95 423.49,-536.06 431.2,-543.34 434.05,-536.95"/>
</a>
</g>
</g>
<!-- Node33 -->
<g id="Node000033" class="node">
<title>Node33</title>
<g id="a_Node000033"><a xlink:href="TimerSpawnCondition_8ixx.html" target="_top" xlink:title="Time&#45;based spawn condition for interval&#45;controlled spawning.">
<polygon fill="white" stroke="#666666" points="777.5,-536 532.5,-536 532.5,-506 777.5,-506 777.5,-536"/>
<text text-anchor="start" x="540.5" y="-524" font-family="Helvetica,sans-Serif" font-size="10.00">helios.engine.runtime.spawn.policy.conditions.</text>
<text text-anchor="middle" x="655" y="-513" font-family="Helvetica,sans-Serif" font-size="10.00">TimerSpawnCondition</text>
</a>
</g>
</g>
<!-- Node1&#45;&gt;Node33 -->
<g id="edge60_Node000001_Node000033" class="edge">
<title>Node1&#45;&gt;Node33</title>
<g id="a_edge60_Node000001_Node000033"><a xlink:title=" ">
<path fill="none" stroke="#63b8ff" d="M542.19,-571.99C560.94,-563.68 590.07,-550.78 614.03,-540.16"/>
<polygon fill="#63b8ff" stroke="#63b8ff" points="615.54,-543.32 623.27,-536.06 612.7,-536.92 615.54,-543.32"/>
</a>
</g>
</g>
<!-- Node3 -->
<g id="Node000003" class="node">
<title>Node3</title>
<g id="a_Node000003"><a xlink:title=" ">
<polygon fill="#e0e0e0" stroke="#999999" points="654,-464.5 602,-464.5 602,-445.5 654,-445.5 654,-464.5"/>
<text text-anchor="middle" x="628" y="-452.5" font-family="Helvetica,sans-Serif" font-size="10.00">cassert</text>
</a>
</g>
</g>
<!-- Node2&#45;&gt;Node3 -->
<g id="edge2_Node000002_Node000003" class="edge">
<title>Node2&#45;&gt;Node3</title>
<g id="a_edge2_Node000002_Node000003"><a xlink:title=" ">
<path fill="none" stroke="#63b8ff" d="M452.86,-505.92C491.75,-496.57 543.12,-483.55 588,-470 590.26,-469.32 592.58,-468.59 594.91,-467.83"/>
<polygon fill="#63b8ff" stroke="#63b8ff" points="596.06,-471.14 604.42,-464.63 593.83,-464.5 596.06,-471.14"/>
</a>
</g>
</g>
<!-- Node4 -->
<g id="Node000004" class="node">
<title>Node4</title>
<g id="a_Node000004"><a xlink:href="UpdateContext_8ixx.html" target="_top" xlink:title="Context struct passed to components during per&#45;frame updates.">
<polygon fill="white" stroke="#666666" points="336,-404 180,-404 180,-374 336,-374 336,-404"/>
<text text-anchor="start" x="188" y="-392" font-family="Helvetica,sans-Serif" font-size="10.00">helios.engine.runtime.world.</text>
<text text-anchor="middle" x="258" y="-381" font-family="Helvetica,sans-Serif" font-size="10.00">UpdateContext</text>
</a>
</g>
</g>
<!-- Node2&#45;&gt;Node4 -->
<g id="edge3_Node000002_Node000004" class="edge">
<title>Node2&#45;&gt;Node4</title>
<g id="a_edge3_Node000002_Node000004"><a xlink:title=" ">
<path fill="none" stroke="#63b8ff" d="M375.91,-505.78C364.83,-495.9 349.85,-482.33 337,-470 316.79,-450.6 294.41,-427.81 278.65,-411.53"/>
<polygon fill="#63b8ff" stroke="#63b8ff" points="280.94,-408.87 271.48,-404.1 275.9,-413.73 280.94,-408.87"/>
</a>
</g>
</g>
<!-- Node30 -->
<g id="Node000030" class="node">
<title>Node30</title>
<g id="a_Node000030"><a xlink:href="SpawnRuleState_8ixx.html" target="_top" xlink:title="Runtime state for a spawn rule.">
<polygon fill="white" stroke="#666666" points="545.5,-404 354.5,-404 354.5,-374 545.5,-374 545.5,-404"/>
<text text-anchor="start" x="362.5" y="-392" font-family="Helvetica,sans-Serif" font-size="10.00">helios.engine.runtime.spawn.policy.</text>
<text text-anchor="middle" x="450" y="-381" font-family="Helvetica,sans-Serif" font-size="10.00">SpawnRuleState</text>
</a>
</g>
</g>
<!-- Node2&#45;&gt;Node30 -->
<g id="edge54_Node000002_Node000030" class="edge">
<title>Node2&#45;&gt;Node30</title>
<g id="a_edge54_Node000002_Node000030"><a xlink:title=" ">
<path fill="none" stroke="#63b8ff" d="M373.7,-505.96C355.01,-489.86 330.64,-462.75 345,-440 353.93,-425.86 368.07,-415.64 383.11,-408.28"/>
<polygon fill="#63b8ff" stroke="#63b8ff" points="384.86,-411.33 392.56,-404.05 382,-404.94 384.86,-411.33"/>
</a>
</g>
</g>
<!-- Node31 -->
<g id="Node000031" class="node">
<title>Node31</title>
<g id="a_Node000031"><a xlink:href="GameObjectPoolSnapshot_8ixx.html" target="_top" xlink:title="Read&#45;only snapshot of GameObjectPool state.">
<polygon fill="white" stroke="#666666" points="728.5,-404 563.5,-404 563.5,-374 728.5,-374 728.5,-404"/>
<text text-anchor="start" x="571.5" y="-392" font-family="Helvetica,sans-Serif" font-size="10.00">helios.engine.runtime.pooling.</text>
<text text-anchor="middle" x="646" y="-381" font-family="Helvetica,sans-Serif" font-size="10.00">GameObjectPoolSnapshot</text>
</a>
</g>
</g>
<!-- Node2&#45;&gt;Node31 -->
<g id="edge55_Node000002_Node000031" class="edge">
<title>Node2&#45;&gt;Node31</title>
<g id="a_edge55_Node000002_Node000031"><a xlink:title=" ">
<path fill="none" stroke="#63b8ff" d="M459.17,-505.97C489.34,-498.01 524.68,-486.31 554,-470 568.98,-461.67 601.81,-431.88 623.92,-411.1"/>
<polygon fill="#63b8ff" stroke="#63b8ff" points="626.38,-413.59 631.25,-404.18 621.58,-408.5 626.38,-413.59"/>
</a>
</g>
</g>
<!-- Node32 -->
<g id="Node000032" class="node">
<title>Node32</title>
<g id="a_Node000032"><a xlink:href="SpawnCondition_8ixx.html" target="_top" xlink:title="Abstract interface for determining spawn timing.">
<polygon fill="white" stroke="#666666" points="545.5,-470 354.5,-470 354.5,-440 545.5,-440 545.5,-470"/>
<text text-anchor="start" x="362.5" y="-458" font-family="Helvetica,sans-Serif" font-size="10.00">helios.engine.runtime.spawn.policy.</text>
<text text-anchor="middle" x="450" y="-447" font-family="Helvetica,sans-Serif" font-size="10.00">SpawnCondition</text>
</a>
</g>
</g>
<!-- Node2&#45;&gt;Node32 -->
<g id="edge56_Node000002_Node000032" class="edge">
<title>Node2&#45;&gt;Node32</title>
<g id="a_edge56_Node000002_Node000032"><a xlink:title=" ">
<path fill="none" stroke="#63b8ff" d="M404.87,-505.8C412.38,-497.51 422.01,-486.89 430.44,-477.59"/>
<polygon fill="#63b8ff" stroke="#63b8ff" points="433.04,-479.92 437.16,-470.16 427.86,-475.22 433.04,-479.92"/>
</a>
</g>
</g>
<!-- Node5 -->
<g id="Node000005" class="node">
<title>Node5</title>
<g id="a_Node000005"><a xlink:title=" ">
<polygon fill="#e0e0e0" stroke="#999999" points="297,-19 257,-19 257,0 297,0 297,-19"/>
<text text-anchor="middle" x="277" y="-7" font-family="Helvetica,sans-Serif" font-size="10.00">span</text>
</a>
</g>
</g>
<!-- Node4&#45;&gt;Node5 -->
<g id="edge4_Node000004_Node000005" class="edge">
<title>Node4&#45;&gt;Node5</title>
<g id="a_edge4_Node000004_Node000005"><a xlink:title=" ">
<path fill="none" stroke="#63b8ff" d="M179.89,-381.26C103.96,-369.92 0,-339.5 0,-258 0,-258 0,-258 0,-124 0,-71.23 174.31,-30.76 246.38,-16.28"/>
<polygon fill="#63b8ff" stroke="#63b8ff" points="247.5,-19.63 256.63,-14.26 246.14,-12.76 247.5,-19.63"/>
</a>
</g>
</g>
<!-- Node6 -->
<g id="Node000006" class="node">
<title>Node6</title>
<g id="a_Node000006"><a xlink:href="GameLoopEventBus_8ixx.html" target="_top" xlink:title="Type&#45;safe event bus for inter&#45;system communication within the game loop.">
<polygon fill="white" stroke="#666666" points="364.5,-338 151.5,-338 151.5,-308 364.5,-308 364.5,-338"/>
<text text-anchor="start" x="159.5" y="-326" font-family="Helvetica,sans-Serif" font-size="10.00">helios.engine.runtime.messaging.event.</text>
<text text-anchor="middle" x="258" y="-315" font-family="Helvetica,sans-Serif" font-size="10.00">GameLoopEventBus</text>
</a>
</g>
</g>
<!-- Node4&#45;&gt;Node6 -->
<g id="edge5_Node000004_Node000006" class="edge">
<title>Node4&#45;&gt;Node6</title>
<g id="a_edge5_Node000004_Node000006"><a xlink:title=" ">
<path fill="none" stroke="#63b8ff" d="M258,-373.8C258,-366.34 258,-356.99 258,-348.41"/>
<polygon fill="#63b8ff" stroke="#63b8ff" points="261.5,-348.16 258,-338.16 254.5,-348.16 261.5,-348.16"/>
</a>
</g>
</g>
<!-- Node16 -->
<g id="Node000016" class="node">
<title>Node16</title>
<g id="a_Node000016"><a xlink:href="InputSnapshot_8ixx.html" target="_top" xlink:title="Immutable snapshot of input state at a specific point in time.">
<polygon fill="white" stroke="#666666" points="777,-332.5 631,-332.5 631,-313.5 777,-313.5 777,-332.5"/>
<text text-anchor="middle" x="704" y="-320.5" font-family="Helvetica,sans-Serif" font-size="10.00">helios.input.InputSnapshot</text>
</a>
</g>
</g>
<!-- Node4&#45;&gt;Node16 -->
<g id="edge30_Node000004_Node000016" class="edge">
<title>Node4&#45;&gt;Node16</title>
<g id="a_edge30_Node000004_Node000016"><a xlink:title=" ">
<path fill="none" stroke="#63b8ff" d="M336.24,-375.33C339.2,-374.88 342.13,-374.43 345,-374 443.37,-359.24 557.12,-343.64 629.77,-333.87"/>
<polygon fill="#63b8ff" stroke="#63b8ff" points="630.29,-337.33 639.74,-332.53 629.36,-330.4 630.29,-337.33"/>
</a>
</g>
</g>
<!-- Node7 -->
<g id="Node000007" class="node">
<title>Node7</title>
<g id="a_Node000007"><a xlink:href="TypeIndexedDoubleBuffer_8ixx.html" target="_top" xlink:title="Double&#45;buffered, type&#45;indexed message system for decoupled inter&#45;system communication.">
<polygon fill="white" stroke="#666666" points="457,-272 293,-272 293,-242 457,-242 457,-272"/>
<text text-anchor="start" x="301" y="-260" font-family="Helvetica,sans-Serif" font-size="10.00">helios.core.buffer.TypeIndexed</text>
<text text-anchor="middle" x="375" y="-249" font-family="Helvetica,sans-Serif" font-size="10.00">DoubleBuffer</text>
</a>
</g>
</g>
<!-- Node6&#45;&gt;Node7 -->
<g id="edge6_Node000006_Node000007" class="edge">
<title>Node6&#45;&gt;Node7</title>
<g id="a_edge6_Node000006_Node000007"><a xlink:title=" ">
<path fill="none" stroke="#63b8ff" d="M283.68,-307.95C300.29,-298.87 322.12,-286.93 340.27,-277"/>
<polygon fill="#63b8ff" stroke="#63b8ff" points="342.29,-279.88 349.38,-272.01 338.93,-273.74 342.29,-279.88"/>
</a>
</g>
</g>
<!-- Node14 -->
<g id="Node000014" class="node">
<title>Node14</title>
<g id="a_Node000014"><a xlink:href="TypeIndexer_8ixx.html" target="_top" xlink:title="Utility for generating unique type indices at runtime.">
<polygon fill="white" stroke="#666666" points="184,-200.5 28,-200.5 28,-181.5 184,-181.5 184,-200.5"/>
<text text-anchor="middle" x="106" y="-188.5" font-family="Helvetica,sans-Serif" font-size="10.00">helios.core.data.TypeIndexer</text>
</a>
</g>
</g>
<!-- Node6&#45;&gt;Node14 -->
<g id="edge29_Node000006_Node000014" class="edge">
<title>Node6&#45;&gt;Node14</title>
<g id="a_edge29_Node000006_Node000014"><a xlink:title=" ">
<path fill="none" stroke="#63b8ff" d="M241.44,-307.84C212.73,-283.28 153.92,-232.99 124.14,-207.52"/>
<polygon fill="#63b8ff" stroke="#63b8ff" points="126.1,-204.59 116.23,-200.75 121.55,-209.91 126.1,-204.59"/>
</a>
</g>
</g>
<!-- Node7&#45;&gt;Node5 -->
<g id="edge8_Node000007_Node000005" class="edge">
<title>Node7&#45;&gt;Node5</title>
<g id="a_edge8_Node000007_Node000005"><a xlink:title=" ">
<path fill="none" stroke="#63b8ff" d="M347.08,-241.95C332.78,-233.4 316.27,-221.2 306,-206 267.53,-149.09 269.92,-123.63 273,-55 273.38,-46.47 274.18,-37.04 274.96,-29.07"/>
<polygon fill="#63b8ff" stroke="#63b8ff" points="278.45,-29.32 276.01,-19.02 271.49,-28.6 278.45,-29.32"/>
</a>
</g>
</g>
<!-- Node8 -->
<g id="Node000008" class="node">
<title>Node8</title>
<g id="a_Node000008"><a xlink:title=" ">
<polygon fill="#e0e0e0" stroke="#999999" points="754,-74 696,-74 696,-55 754,-55 754,-74"/>
<text text-anchor="middle" x="725" y="-62" font-family="Helvetica,sans-Serif" font-size="10.00">memory</text>
</a>
</g>
</g>
<!-- Node7&#45;&gt;Node8 -->
<g id="edge7_Node000007_Node000008" class="edge">
<title>Node7&#45;&gt;Node8</title>
<g id="a_edge7_Node000007_Node000008"><a xlink:title=" ">
<path fill="none" stroke="#63b8ff" d="M457.04,-253.36C536.94,-245.88 654.5,-220.78 712,-140 723.52,-123.82 725.96,-100.74 726.04,-84.58"/>
<polygon fill="#63b8ff" stroke="#63b8ff" points="729.53,-84.13 725.77,-74.22 722.53,-84.31 729.53,-84.13"/>
</a>
</g>
</g>
<!-- Node9 -->
<g id="Node000009" class="node">
<title>Node9</title>
<g id="a_Node000009"><a xlink:title=" ">
<polygon fill="#e0e0e0" stroke="#999999" points="632.5,-19 585.5,-19 585.5,0 632.5,0 632.5,-19"/>
<text text-anchor="middle" x="609" y="-7" font-family="Helvetica,sans-Serif" font-size="10.00">vector</text>
</a>
</g>
</g>
<!-- Node7&#45;&gt;Node9 -->
<g id="edge9_Node000007_Node000009" class="edge">
<title>Node7&#45;&gt;Node9</title>
<g id="a_edge9_Node000007_Node000009"><a xlink:title=" ">
<path fill="none" stroke="#63b8ff" d="M457.18,-247.93C531.05,-239.62 633.25,-225.19 669,-206 704.46,-186.97 708.18,-173.15 731,-140 753.89,-106.75 787.26,-87.26 763,-55 748.58,-35.82 683.68,-22.28 642.87,-15.49"/>
<polygon fill="#63b8ff" stroke="#63b8ff" points="643.24,-12.01 632.81,-13.87 642.13,-18.92 643.24,-12.01"/>
</a>
</g>
</g>
<!-- Node10 -->
<g id="Node000010" class="node">
<title>Node10</title>
<g id="a_Node000010"><a xlink:href="ReadBuffer_8ixx.html" target="_top" xlink:title="Read&#45;only buffer for the double&#45;buffering pattern.">
<polygon fill="white" stroke="#666666" points="463,-74 305,-74 305,-55 463,-55 463,-74"/>
<text text-anchor="middle" x="384" y="-62" font-family="Helvetica,sans-Serif" font-size="10.00">helios.core.buffer.ReadBuffer</text>
</a>
</g>
</g>
<!-- Node7&#45;&gt;Node10 -->
<g id="edge10_Node000007_Node000010" class="edge">
<title>Node7&#45;&gt;Node10</title>
<g id="a_edge10_Node000007_Node000010"><a xlink:title=" ">
<path fill="none" stroke="#63b8ff" d="M359.34,-241.91C331.83,-215.37 280.17,-156.5 307,-110 315.42,-95.41 330.65,-85.17 345.35,-78.23"/>
<polygon fill="#63b8ff" stroke="#63b8ff" points="347.07,-81.3 354.86,-74.13 344.29,-74.87 347.07,-81.3"/>
</a>
</g>
</g>
<!-- Node11 -->
<g id="Node000011" class="node">
<title>Node11</title>
<g id="a_Node000011"><a xlink:href="WriteBuffer_8ixx.html" target="_top" xlink:title="Write&#45;only buffer for the double&#45;buffering pattern.">
<polygon fill="white" stroke="#666666" points="446,-140 316,-140 316,-110 446,-110 446,-140"/>
<text text-anchor="start" x="324" y="-128" font-family="Helvetica,sans-Serif" font-size="10.00">helios.core.buffer.Write</text>
<text text-anchor="middle" x="381" y="-117" font-family="Helvetica,sans-Serif" font-size="10.00">Buffer</text>
</a>
</g>
</g>
<!-- Node7&#45;&gt;Node11 -->
<g id="edge13_Node000007_Node000011" class="edge">
<title>Node7&#45;&gt;Node11</title>
<g id="a_edge13_Node000007_Node000011"><a xlink:title=" ">
<path fill="none" stroke="#63b8ff" d="M375.65,-241.84C376.67,-219.86 378.63,-177.27 379.88,-150.3"/>
<polygon fill="#63b8ff" stroke="#63b8ff" points="383.38,-150.29 380.35,-140.14 376.39,-149.97 383.38,-150.29"/>
</a>
</g>
</g>
<!-- Node12 -->
<g id="Node000012" class="node">
<title>Node12</title>
<g id="a_Node000012"><a xlink:href="ReadWriteDoubleBuffer_8ixx.html" target="_top" xlink:title="Type&#45;safe double&#45;buffered container for producer&#45;consumer patterns.">
<polygon fill="white" stroke="#666666" points="558.5,-206 403.5,-206 403.5,-176 558.5,-176 558.5,-206"/>
<text text-anchor="start" x="411.5" y="-194" font-family="Helvetica,sans-Serif" font-size="10.00">helios.core.buffer.ReadWrite</text>
<text text-anchor="middle" x="481" y="-183" font-family="Helvetica,sans-Serif" font-size="10.00">DoubleBuffer</text>
</a>
</g>
</g>
<!-- Node7&#45;&gt;Node12 -->
<g id="edge16_Node000007_Node000012" class="edge">
<title>Node7&#45;&gt;Node12</title>
<g id="a_edge16_Node000007_Node000012"><a xlink:title=" ">
<path fill="none" stroke="#63b8ff" d="M398.26,-241.95C413.17,-232.95 432.73,-221.14 449.09,-211.27"/>
<polygon fill="#63b8ff" stroke="#63b8ff" points="451.04,-214.18 457.79,-206.01 447.42,-208.18 451.04,-214.18"/>
</a>
</g>
</g>
<!-- Node13 -->
<g id="Node000013" class="node">
<title>Node13</title>
<g id="a_Node000013"><a xlink:href="DoubleBuffer_8ixx.html" target="_top" xlink:title="Double&#45;buffered, type&#45;indexed message system for decoupled inter&#45;system communication.">
<polygon fill="white" stroke="#666666" points="678,-140 540,-140 540,-110 678,-110 678,-140"/>
<text text-anchor="start" x="548" y="-128" font-family="Helvetica,sans-Serif" font-size="10.00">helios.core.buffer.Double</text>
<text text-anchor="middle" x="609" y="-117" font-family="Helvetica,sans-Serif" font-size="10.00">Buffer</text>
</a>
</g>
</g>
<!-- Node7&#45;&gt;Node13 -->
<g id="edge26_Node000007_Node000013" class="edge">
<title>Node7&#45;&gt;Node13</title>
<g id="a_edge26_Node000007_Node000013"><a xlink:title=" ">
<path fill="none" stroke="#63b8ff" d="M457.34,-249.62C494.08,-243.22 535.98,-230.63 567,-206 584.95,-191.75 596.1,-167.7 602.35,-149.68"/>
<polygon fill="#63b8ff" stroke="#63b8ff" points="605.69,-150.73 605.41,-140.14 599.03,-148.59 605.69,-150.73"/>
</a>
</g>
</g>
<!-- Node7&#45;&gt;Node14 -->
<g id="edge27_Node000007_Node000014" class="edge">
<title>Node7&#45;&gt;Node14</title>
<g id="a_edge27_Node000007_Node000014"><a xlink:title=" ">
<path fill="none" stroke="#63b8ff" d="M315.97,-241.95C266.51,-230.19 196.91,-213.63 151.64,-202.86"/>
<polygon fill="#63b8ff" stroke="#63b8ff" points="152.34,-199.43 141.8,-200.52 150.72,-206.24 152.34,-199.43"/>
</a>
</g>
</g>
<!-- Node10&#45;&gt;Node5 -->
<g id="edge11_Node000010_Node000005" class="edge">
<title>Node10&#45;&gt;Node5</title>
<g id="a_edge11_Node000010_Node000005"><a xlink:title=" ">
<path fill="none" stroke="#63b8ff" d="M366.81,-54.98C349.75,-46.54 323.37,-33.47 303.6,-23.68"/>
<polygon fill="#63b8ff" stroke="#63b8ff" points="305.02,-20.47 294.5,-19.17 301.91,-26.75 305.02,-20.47"/>
</a>
</g>
</g>
<!-- Node10&#45;&gt;Node9 -->
<g id="edge12_Node000010_Node000009" class="edge">
<title>Node10&#45;&gt;Node9</title>
<g id="a_edge12_Node000010_Node000009"><a xlink:title=" ">
<path fill="none" stroke="#63b8ff" d="M420.15,-54.98C462.98,-44.9 533.76,-28.22 575.43,-18.41"/>
<polygon fill="#63b8ff" stroke="#63b8ff" points="576.43,-21.77 585.36,-16.07 574.83,-14.95 576.43,-21.77"/>
</a>
</g>
</g>
<!-- Node11&#45;&gt;Node9 -->
<g id="edge14_Node000011_Node000009" class="edge">
<title>Node11&#45;&gt;Node9</title>
<g id="a_edge14_Node000011_Node000009"><a xlink:title=" ">
<path fill="none" stroke="#63b8ff" d="M409.42,-109.85C453.92,-87.7 539.43,-45.13 582.63,-23.63"/>
<polygon fill="#63b8ff" stroke="#63b8ff" points="584.28,-26.71 591.68,-19.12 581.16,-20.45 584.28,-26.71"/>
</a>
</g>
</g>
<!-- Node11&#45;&gt;Node10 -->
<g id="edge15_Node000011_Node000010" class="edge">
<title>Node11&#45;&gt;Node10</title>
<g id="a_edge15_Node000011_Node000010"><a xlink:title=" ">
<path fill="none" stroke="#63b8ff" d="M381.73,-109.84C382.12,-102.21 382.6,-92.7 383.03,-84.45"/>
<polygon fill="#63b8ff" stroke="#63b8ff" points="386.53,-84.43 383.55,-74.27 379.54,-84.07 386.53,-84.43"/>
</a>
</g>
</g>
<!-- Node12&#45;&gt;Node5 -->
<g id="edge18_Node000012_Node000005" class="edge">
<title>Node12&#45;&gt;Node5</title>
<g id="a_edge18_Node000012_Node000005"><a xlink:title=" ">
<path fill="none" stroke="#63b8ff" d="M403.44,-185.06C369.52,-178.97 331.88,-166.22 307,-140 278.1,-109.55 275.12,-56.97 275.82,-29.1"/>
<polygon fill="#63b8ff" stroke="#63b8ff" points="279.32,-29.25 276.26,-19.11 272.33,-28.95 279.32,-29.25"/>
</a>
</g>
</g>
<!-- Node12&#45;&gt;Node8 -->
<g id="edge17_Node000012_Node000008" class="edge">
<title>Node12&#45;&gt;Node8</title>
<g id="a_edge17_Node000012_Node000008"><a xlink:title=" ">
<path fill="none" stroke="#63b8ff" d="M558.76,-186.59C600.54,-181.21 650.76,-168.63 687,-140 704.85,-125.9 715.09,-101.15 720.34,-84.07"/>
<polygon fill="#63b8ff" stroke="#63b8ff" points="723.79,-84.72 723.1,-74.14 717.05,-82.84 723.79,-84.72"/>
</a>
</g>
</g>
<!-- Node12&#45;&gt;Node9 -->
<g id="edge19_Node000012_Node000009" class="edge">
<title>Node12&#45;&gt;Node9</title>
<g id="a_edge19_Node000012_Node000009"><a xlink:title=" ">
<path fill="none" stroke="#63b8ff" d="M489.23,-175.83C498.8,-159.61 515.29,-132.39 531,-110 552.21,-79.77 579.23,-46.3 595.26,-26.91"/>
<polygon fill="#63b8ff" stroke="#63b8ff" points="598.09,-28.97 601.79,-19.05 592.71,-24.5 598.09,-28.97"/>
</a>
</g>
</g>
<!-- Node12&#45;&gt;Node10 -->
<g id="edge21_Node000012_Node000010" class="edge">
<title>Node12&#45;&gt;Node10</title>
<g id="a_edge21_Node000012_Node000010"><a xlink:title=" ">
<path fill="none" stroke="#63b8ff" d="M479.39,-175.91C476.8,-158.77 470.36,-129.69 455,-110 444.53,-96.58 428.8,-86.13 414.8,-78.74"/>
<polygon fill="#63b8ff" stroke="#63b8ff" points="415.99,-75.43 405.48,-74.12 412.88,-81.7 415.99,-75.43"/>
</a>
</g>
</g>
<!-- Node12&#45;&gt;Node11 -->
<g id="edge20_Node000012_Node000011" class="edge">
<title>Node12&#45;&gt;Node11</title>
<g id="a_edge20_Node000012_Node000011"><a xlink:title=" ">
<path fill="none" stroke="#63b8ff" d="M458.81,-175.8C444.95,-166.93 426.93,-155.39 411.71,-145.66"/>
<polygon fill="#63b8ff" stroke="#63b8ff" points="413.44,-142.61 403.13,-140.16 409.67,-148.5 413.44,-142.61"/>
</a>
</g>
</g>
<!-- Node12&#45;&gt;Node13 -->
<g id="edge22_Node000012_Node000013" class="edge">
<title>Node12&#45;&gt;Node13</title>
<g id="a_edge22_Node000012_Node000013"><a xlink:title=" ">
<path fill="none" stroke="#63b8ff" d="M509.09,-175.95C527.51,-166.74 551.81,-154.6 571.83,-144.59"/>
<polygon fill="#63b8ff" stroke="#63b8ff" points="573.6,-147.61 580.98,-140.01 570.47,-141.35 573.6,-147.61"/>
</a>
</g>
</g>
<!-- Node13&#45;&gt;Node5 -->
<g id="edge24_Node000013_Node000005" class="edge">
<title>Node13&#45;&gt;Node5</title>
<g id="a_edge24_Node000013_Node000005"><a xlink:title=" ">
<path fill="none" stroke="#63b8ff" d="M585.53,-109.96C558.85,-94.54 513.6,-69.97 472,-55 415.41,-34.63 346.12,-21.45 307.23,-15.06"/>
<polygon fill="#63b8ff" stroke="#63b8ff" points="307.53,-11.56 297.1,-13.44 306.42,-18.48 307.53,-11.56"/>
</a>
</g>
</g>
<!-- Node13&#45;&gt;Node8 -->
<g id="edge23_Node000013_Node000008" class="edge">
<title>Node13&#45;&gt;Node8</title>
<g id="a_edge23_Node000013_Node000008"><a xlink:title=" ">
<path fill="none" stroke="#63b8ff" d="M636.78,-109.99C655.62,-100.49 680.35,-88.02 698.84,-78.69"/>
<polygon fill="#63b8ff" stroke="#63b8ff" points="700.52,-81.77 707.87,-74.14 697.36,-75.52 700.52,-81.77"/>
</a>
</g>
</g>
<!-- Node13&#45;&gt;Node9 -->
<g id="edge25_Node000013_Node000009" class="edge">
<title>Node13&#45;&gt;Node9</title>
<g id="a_edge25_Node000013_Node000009"><a xlink:title=" ">
<path fill="none" stroke="#63b8ff" d="M609,-109.63C609,-89.21 609,-51.81 609,-29.24"/>
<polygon fill="#63b8ff" stroke="#63b8ff" points="612.5,-29.23 609,-19.23 605.5,-29.23 612.5,-29.23"/>
</a>
</g>
</g>
<!-- Node15 -->
<g id="Node000015" class="node">
<title>Node15</title>
<g id="a_Node000015"><a xlink:title=" ">
<polygon fill="#e0e0e0" stroke="#999999" points="131,-134.5 81,-134.5 81,-115.5 131,-115.5 131,-134.5"/>
<text text-anchor="middle" x="106" y="-122.5" font-family="Helvetica,sans-Serif" font-size="10.00">atomic</text>
</a>
</g>
</g>
<!-- Node14&#45;&gt;Node15 -->
<g id="edge28_Node000014_Node000015" class="edge">
<title>Node14&#45;&gt;Node15</title>
<g id="a_edge28_Node000014_Node000015"><a xlink:title=" ">
<path fill="none" stroke="#63b8ff" d="M106,-181.37C106,-172.16 106,-157.29 106,-145.27"/>
<polygon fill="#63b8ff" stroke="#63b8ff" points="109.5,-144.91 106,-134.91 102.5,-144.91 109.5,-144.91"/>
</a>
</g>
</g>
<!-- Node17 -->
<g id="Node000017" class="node">
<title>Node17</title>
<g id="a_Node000017"><a xlink:href="GamepadState_8ixx.html" target="_top" xlink:title="Representation of current gamepad input state.">
<polygon fill="white" stroke="#666666" points="1083.5,-272 910.5,-272 910.5,-242 1083.5,-242 1083.5,-272"/>
<text text-anchor="start" x="918.5" y="-260" font-family="Helvetica,sans-Serif" font-size="10.00">helios.input.gamepad.Gamepad</text>
<text text-anchor="middle" x="997" y="-249" font-family="Helvetica,sans-Serif" font-size="10.00">State</text>
</a>
</g>
</g>
<!-- Node16&#45;&gt;Node17 -->
<g id="edge31_Node000016_Node000017" class="edge">
<title>Node16&#45;&gt;Node17</title>
<g id="a_edge31_Node000016_Node000017"><a xlink:title=" ">
<path fill="none" stroke="#63b8ff" d="M743.21,-313.44C788.96,-303.44 865.61,-286.7 922.73,-274.22"/>
<polygon fill="#63b8ff" stroke="#63b8ff" points="923.77,-277.58 932.79,-272.02 922.28,-270.74 923.77,-277.58"/>
</a>
</g>
</g>
<!-- Node18 -->
<g id="Node000018" class="node">
<title>Node18</title>
<g id="a_Node000018"><a xlink:title=" ">
<polygon fill="#e0e0e0" stroke="#999999" points="874,-200.5 810,-200.5 810,-181.5 874,-181.5 874,-200.5"/>
<text text-anchor="middle" x="842" y="-188.5" font-family="Helvetica,sans-Serif" font-size="10.00">algorithm</text>
</a>
</g>
</g>
<!-- Node17&#45;&gt;Node18 -->
<g id="edge32_Node000017_Node000018" class="edge">
<title>Node17&#45;&gt;Node18</title>
<g id="a_edge32_Node000017_Node000018"><a xlink:title=" ">
<path fill="none" stroke="#63b8ff" d="M962.98,-241.95C935.8,-230.73 898.07,-215.15 872,-204.39"/>
<polygon fill="#63b8ff" stroke="#63b8ff" points="873.21,-201.1 862.63,-200.52 870.54,-207.57 873.21,-201.1"/>
</a>
</g>
</g>
<!-- Node19 -->
<g id="Node000019" class="node">
<title>Node19</title>
<g id="a_Node000019"><a xlink:title=" ">
<polygon fill="#e0e0e0" stroke="#999999" points="1014,-200.5 892,-200.5 892,-181.5 1014,-181.5 1014,-200.5"/>
<text text-anchor="middle" x="953" y="-188.5" font-family="Helvetica,sans-Serif" font-size="10.00">helios/helios_config.h</text>
</a>
</g>
</g>
<!-- Node17&#45;&gt;Node19 -->
<g id="edge33_Node000017_Node000019" class="edge">
<title>Node17&#45;&gt;Node19</title>
<g id="a_edge33_Node000017_Node000019"><a xlink:title=" ">
<path fill="none" stroke="#63b8ff" d="M987.23,-241.8C980.64,-232.21 971.91,-219.5 964.91,-209.32"/>
<polygon fill="#63b8ff" stroke="#63b8ff" points="967.63,-207.1 959.08,-200.84 961.86,-211.07 967.63,-207.1"/>
</a>
</g>
</g>
<!-- Node20 -->
<g id="Node000020" class="node">
<title>Node20</title>
<g id="a_Node000020"><a xlink:href="LogManager_8ixx.html" target="_top" xlink:title="Central manager for scoped loggers with configurable sinks.">
<polygon fill="white" stroke="#666666" points="1356,-200.5 1210,-200.5 1210,-181.5 1356,-181.5 1356,-200.5"/>
<text text-anchor="middle" x="1283" y="-188.5" font-family="Helvetica,sans-Serif" font-size="10.00">helios.util.log.LogManager</text>
</a>
</g>
</g>
<!-- Node17&#45;&gt;Node20 -->
<g id="edge34_Node000017_Node000020" class="edge">
<title>Node17&#45;&gt;Node20</title>
<g id="a_edge34_Node000017_Node000020"><a xlink:title=" ">
<path fill="none" stroke="#63b8ff" d="M1059.76,-241.95C1112.57,-230.14 1186.96,-213.49 1235.09,-202.72"/>
<polygon fill="#63b8ff" stroke="#63b8ff" points="1235.94,-206.12 1244.94,-200.52 1234.42,-199.29 1235.94,-206.12"/>
</a>
</g>
</g>
<!-- Node26 -->
<g id="Node000026" class="node">
<title>Node26</title>
<g id="a_Node000026"><a xlink:href="Logger_8ixx.html" target="_top" xlink:title="Simple synchronous logger with configurable output sinks.">
<polygon fill="white" stroke="#666666" points="1025.5,-134.5 906.5,-134.5 906.5,-115.5 1025.5,-115.5 1025.5,-134.5"/>
<text text-anchor="middle" x="966" y="-122.5" font-family="Helvetica,sans-Serif" font-size="10.00">helios.util.log.Logger</text>
</a>
</g>
</g>
<!-- Node17&#45;&gt;Node26 -->
<g id="edge51_Node000017_Node000026" class="edge">
<title>Node17&#45;&gt;Node26</title>
<g id="a_edge51_Node000017_Node000026"><a xlink:title=" ">
<path fill="none" stroke="#63b8ff" d="M1007.89,-241.77C1018.93,-225.49 1033.06,-198.22 1023,-176 1016.22,-161.04 1002.52,-148.79 990.25,-140.16"/>
<polygon fill="#63b8ff" stroke="#63b8ff" points="991.96,-137.1 981.68,-134.53 988.12,-142.95 991.96,-137.1"/>
</a>
</g>
</g>
<!-- Node29 -->
<g id="Node000029" class="node">
<title>Node29</title>
<g id="a_Node000029"><a xlink:href="helios_2math_2types_2__module_8ixx.html" target="_top" xlink:title="Module exports for vector and matrix type definitions.">
<polygon fill="white" stroke="#666666" points="1174,-200.5 1070,-200.5 1070,-181.5 1174,-181.5 1174,-200.5"/>
<text text-anchor="middle" x="1122" y="-188.5" font-family="Helvetica,sans-Serif" font-size="10.00">helios.math.types</text>
</a>
</g>
</g>
<!-- Node17&#45;&gt;Node29 -->
<g id="edge52_Node000017_Node000029" class="edge">
<title>Node17&#45;&gt;Node29</title>
<g id="a_edge52_Node000017_Node000029"><a xlink:title=" ">
<path fill="none" stroke="#63b8ff" d="M1024.43,-241.95C1045.87,-230.98 1075.45,-215.83 1096.4,-205.11"/>
<polygon fill="#63b8ff" stroke="#63b8ff" points="1098.06,-208.19 1105.36,-200.52 1094.87,-201.96 1098.06,-208.19"/>
</a>
</g>
</g>
<!-- Node20&#45;&gt;Node8 -->
<g id="edge38_Node000020_Node000008" class="edge">
<title>Node20&#45;&gt;Node8</title>
<g id="a_edge38_Node000020_Node000008"><a xlink:title=" ">
<path fill="none" stroke="#63b8ff" d="M1235.37,-181.45C1224.12,-179.54 1212.15,-177.61 1201,-176 1066.78,-156.58 1028.97,-175.18 898,-140 842.81,-125.17 782.36,-95.87 749.54,-78.77"/>
<polygon fill="#63b8ff" stroke="#63b8ff" points="751.14,-75.66 740.66,-74.09 747.87,-81.85 751.14,-75.66"/>
</a>
</g>
</g>
<!-- Node20&#45;&gt;Node9 -->
<g id="edge40_Node000020_Node000009" class="edge">
<title>Node20&#45;&gt;Node9</title>
<g id="a_edge40_Node000020_Node000009"><a xlink:title=" ">
<path fill="none" stroke="#63b8ff" d="M1236.58,-181.42C1183.86,-171.25 1101.45,-153.91 1073,-140 1059.44,-133.37 980.91,-60.88 967,-55 908.87,-30.44 720.42,-16.97 642.84,-12.35"/>
<polygon fill="#63b8ff" stroke="#63b8ff" points="642.84,-8.85 632.65,-11.76 642.43,-15.83 642.84,-8.85"/>
</a>
</g>
</g>
<!-- Node21 -->
<g id="Node000021" class="node">
<title>Node21</title>
<g id="a_Node000021"><a xlink:title=" ">
<polygon fill="#e0e0e0" stroke="#999999" points="1186,-19 1142,-19 1142,0 1186,0 1186,-19"/>
<text text-anchor="middle" x="1164" y="-7" font-family="Helvetica,sans-Serif" font-size="10.00">string</text>
</a>
</g>
</g>
<!-- Node20&#45;&gt;Node21 -->
<g id="edge35_Node000020_Node000021" class="edge">
<title>Node20&#45;&gt;Node21</title>
<g id="a_edge35_Node000020_Node000021"><a xlink:title=" ">
<path fill="none" stroke="#63b8ff" d="M1288.93,-181.43C1304,-158.5 1340.53,-94.79 1311,-55 1284.72,-19.59 1231.04,-11.36 1196.33,-9.97"/>
<polygon fill="#63b8ff" stroke="#63b8ff" points="1196.3,-6.47 1186.22,-9.73 1196.14,-13.46 1196.3,-6.47"/>
</a>
</g>
</g>
<!-- Node22 -->
<g id="Node000022" class="node">
<title>Node22</title>
<g id="a_Node000022"><a xlink:title=" ">
<polygon fill="#e0e0e0" stroke="#999999" points="1461.5,-134.5 1368.5,-134.5 1368.5,-115.5 1461.5,-115.5 1461.5,-134.5"/>
<text text-anchor="middle" x="1415" y="-122.5" font-family="Helvetica,sans-Serif" font-size="10.00">unordered_map</text>
</a>
</g>
</g>
<!-- Node20&#45;&gt;Node22 -->
<g id="edge36_Node000020_Node000022" class="edge">
<title>Node20&#45;&gt;Node22</title>
<g id="a_edge36_Node000020_Node000022"><a xlink:title=" ">
<path fill="none" stroke="#63b8ff" d="M1300.8,-181.37C1323.14,-170.54 1361.68,-151.85 1387.74,-139.22"/>
<polygon fill="#63b8ff" stroke="#63b8ff" points="1389.59,-142.21 1397.06,-134.7 1386.53,-135.91 1389.59,-142.21"/>
</a>
</g>
</g>
<!-- Node23 -->
<g id="Node000023" class="node">
<title>Node23</title>
<g id="a_Node000023"><a xlink:title=" ">
<polygon fill="#e0e0e0" stroke="#999999" points="1168,-134.5 1082,-134.5 1082,-115.5 1168,-115.5 1168,-134.5"/>
<text text-anchor="middle" x="1125" y="-122.5" font-family="Helvetica,sans-Serif" font-size="10.00">unordered_set</text>
</a>
</g>
</g>
<!-- Node20&#45;&gt;Node23 -->
<g id="edge37_Node000020_Node000023" class="edge">
<title>Node20&#45;&gt;Node23</title>
<g id="a_edge37_Node000020_Node000023"><a xlink:title=" ">
<path fill="none" stroke="#63b8ff" d="M1261.69,-181.37C1234.4,-170.32 1186.93,-151.08 1155.73,-138.45"/>
<polygon fill="#63b8ff" stroke="#63b8ff" points="1156.81,-135.11 1146.22,-134.6 1154.18,-141.59 1156.81,-135.11"/>
</a>
</g>
</g>
<!-- Node24 -->
<g id="Node000024" class="node">
<title>Node24</title>
<g id="a_Node000024"><a xlink:title=" ">
<polygon fill="#e0e0e0" stroke="#999999" points="1302,-74 1254,-74 1254,-55 1302,-55 1302,-74"/>
<text text-anchor="middle" x="1278" y="-62" font-family="Helvetica,sans-Serif" font-size="10.00">mutex</text>
</a>
</g>
</g>
<!-- Node20&#45;&gt;Node24 -->
<g id="edge39_Node000020_Node000024" class="edge">
<title>Node20&#45;&gt;Node24</title>
<g id="a_edge39_Node000020_Node000024"><a xlink:title=" ">
<path fill="none" stroke="#63b8ff" d="M1282.66,-181.44C1281.86,-161.54 1279.86,-111.76 1278.76,-84.35"/>
<polygon fill="#63b8ff" stroke="#63b8ff" points="1282.24,-83.97 1278.35,-74.12 1275.25,-84.25 1282.24,-83.97"/>
</a>
</g>
</g>
<!-- Node25 -->
<g id="Node000025" class="node">
<title>Node25</title>
<g id="a_Node000025"><a xlink:title=" ">
<polygon fill="#e0e0e0" stroke="#999999" points="1236,-134.5 1186,-134.5 1186,-115.5 1236,-115.5 1236,-134.5"/>
<text text-anchor="middle" x="1211" y="-122.5" font-family="Helvetica,sans-Serif" font-size="10.00">cstring</text>
</a>
</g>
</g>
<!-- Node20&#45;&gt;Node25 -->
<g id="edge41_Node000020_Node000025" class="edge">
<title>Node20&#45;&gt;Node25</title>
<g id="a_edge41_Node000020_Node000025"><a xlink:title=" ">
<path fill="none" stroke="#63b8ff" d="M1273.29,-181.37C1261.87,-171.21 1242.68,-154.16 1228.61,-141.65"/>
<polygon fill="#63b8ff" stroke="#63b8ff" points="1230.82,-138.93 1221.02,-134.91 1226.17,-144.16 1230.82,-138.93"/>
</a>
</g>
</g>
<!-- Node20&#45;&gt;Node26 -->
<g id="edge42_Node000020_Node000026" class="edge">
<title>Node20&#45;&gt;Node26</title>
<g id="a_edge42_Node000020_Node000026"><a xlink:title=" ">
<path fill="none" stroke="#63b8ff" d="M1240.58,-181.44C1183.04,-169.82 1080.34,-149.09 1018.16,-136.53"/>
<polygon fill="#63b8ff" stroke="#63b8ff" points="1018.67,-133.06 1008.17,-134.51 1017.28,-139.92 1018.67,-133.06"/>
</a>
</g>
</g>
<!-- Node28 -->
<g id="Node000028" class="node">
<title>Node28</title>
<g id="a_Node000028"><a xlink:href="LogSink_8ixx.html" target="_top" xlink:title="Abstract interface for log output destinations.">
<polygon fill="white" stroke="#666666" points="1226,-74 1102,-74 1102,-55 1226,-55 1226,-74"/>
<text text-anchor="middle" x="1164" y="-62" font-family="Helvetica,sans-Serif" font-size="10.00">helios.util.log.LogSink</text>
</a>
</g>
</g>
<!-- Node20&#45;&gt;Node28 -->
<g id="edge50_Node000020_Node000028" class="edge">
<title>Node20&#45;&gt;Node28</title>
<g id="a_edge50_Node000020_Node000028"><a xlink:title=" ">
<path fill="none" stroke="#63b8ff" d="M1280.79,-181.28C1276.38,-165.38 1265.15,-131.37 1245,-110 1231.97,-96.17 1213.66,-85.62 1197.74,-78.26"/>
<polygon fill="#63b8ff" stroke="#63b8ff" points="1198.78,-74.9 1188.21,-74.1 1195.97,-81.31 1198.78,-74.9"/>
</a>
</g>
</g>
<!-- Node26&#45;&gt;Node8 -->
<g id="edge45_Node000026_Node000008" class="edge">
<title>Node26&#45;&gt;Node8</title>
<g id="a_edge45_Node000026_Node000008"><a xlink:title=" ">
<path fill="none" stroke="#63b8ff" d="M930.96,-115.49C886.54,-104.71 810.19,-86.18 763.98,-74.96"/>
<polygon fill="#63b8ff" stroke="#63b8ff" points="764.58,-71.51 754.03,-72.55 762.93,-78.31 764.58,-71.51"/>
</a>
</g>
</g>
<!-- Node26&#45;&gt;Node9 -->
<g id="edge44_Node000026_Node000009" class="edge">
<title>Node26&#45;&gt;Node9</title>
<g id="a_edge44_Node000026_Node000009"><a xlink:title=" ">
<path fill="none" stroke="#63b8ff" d="M966.42,-115.23C966.6,-100.36 964.62,-70.34 947,-55 902.13,-15.93 719.28,-10.78 642.84,-10.37"/>
<polygon fill="#63b8ff" stroke="#63b8ff" points="642.79,-6.87 632.78,-10.34 642.77,-13.87 642.79,-6.87"/>
</a>
</g>
</g>
<!-- Node26&#45;&gt;Node21 -->
<g id="edge43_Node000026_Node000021" class="edge">
<title>Node26&#45;&gt;Node21</title>
<g id="a_edge43_Node000026_Node000021"><a xlink:title=" ">
<path fill="none" stroke="#63b8ff" d="M980.88,-115.47C1014.92,-95.96 1098.72,-47.92 1140.09,-24.21"/>
<polygon fill="#63b8ff" stroke="#63b8ff" points="1142.01,-27.14 1148.95,-19.13 1138.53,-21.07 1142.01,-27.14"/>
</a>
</g>
</g>
<!-- Node26&#45;&gt;Node24 -->
<g id="edge46_Node000026_Node000024" class="edge">
<title>Node26&#45;&gt;Node24</title>
<g id="a_edge46_Node000026_Node000024"><a xlink:title=" ">
<path fill="none" stroke="#63b8ff" d="M1012.68,-115.49C1066.36,-105.67 1157.09,-88.94 1235,-74 1237.87,-73.45 1240.85,-72.87 1243.84,-72.29"/>
<polygon fill="#63b8ff" stroke="#63b8ff" points="1244.76,-75.67 1253.9,-70.31 1243.42,-68.81 1244.76,-75.67"/>
</a>
</g>
</g>
<!-- Node27 -->
<g id="Node000027" class="node">
<title>Node27</title>
<g id="a_Node000027"><a xlink:title=" ">
<polygon fill="#e0e0e0" stroke="#999999" points="938,-74 878,-74 878,-55 938,-55 938,-74"/>
<text text-anchor="middle" x="908" y="-62" font-family="Helvetica,sans-Serif" font-size="10.00">iostream</text>
</a>
</g>
</g>
<!-- Node26&#45;&gt;Node27 -->
<g id="edge47_Node000026_Node000027" class="edge">
<title>Node26&#45;&gt;Node27</title>
<g id="a_edge47_Node000026_Node000027"><a xlink:title=" ">
<path fill="none" stroke="#63b8ff" d="M957.44,-115.37C948.62,-106.47 934.66,-92.39 923.82,-81.45"/>
<polygon fill="#63b8ff" stroke="#63b8ff" points="926.12,-78.8 916.59,-74.17 921.15,-83.73 926.12,-78.8"/>
</a>
</g>
</g>
<!-- Node26&#45;&gt;Node28 -->
<g id="edge48_Node000026_Node000028" class="edge">
<title>Node26&#45;&gt;Node28</title>
<g id="a_edge48_Node000026_Node000028"><a xlink:title=" ">
<path fill="none" stroke="#63b8ff" d="M994.79,-115.49C1029.25,-105.31 1087.09,-88.22 1125.4,-76.9"/>
<polygon fill="#63b8ff" stroke="#63b8ff" points="1126.58,-80.21 1135.17,-74.02 1124.59,-73.49 1126.58,-80.21"/>
</a>
</g>
</g>
<!-- Node28&#45;&gt;Node21 -->
<g id="edge49_Node000028_Node000021" class="edge">
<title>Node28&#45;&gt;Node21</title>
<g id="a_edge49_Node000028_Node000021"><a xlink:title=" ">
<path fill="none" stroke="#63b8ff" d="M1164,-54.75C1164,-47.8 1164,-37.85 1164,-29.13"/>
<polygon fill="#63b8ff" stroke="#63b8ff" points="1167.5,-29.09 1164,-19.09 1160.5,-29.09 1167.5,-29.09"/>
</a>
</g>
</g>
<!-- Node29&#45;&gt;Node29 -->
<g id="edge53_Node000029_Node000029" class="edge">
<title>Node29&#45;&gt;Node29</title>
<g id="a_edge53_Node000029_Node000029"><a xlink:title=" ">
<path fill="none" stroke="#63b8ff" d="M1143.86,-200.56C1166.56,-206.37 1192,-203.18 1192,-191 1192,-180.58 1173.39,-176.74 1153.79,-179.48"/>
<polygon fill="#63b8ff" stroke="#63b8ff" points="1153,-176.07 1143.86,-181.44 1154.35,-182.94 1153,-176.07"/>
</a>
</g>
</g>
<!-- Node32&#45;&gt;Node4 -->
<g id="edge57_Node000032_Node000004" class="edge">
<title>Node32&#45;&gt;Node4</title>
<g id="a_edge57_Node000032_Node000004"><a xlink:title=" ">
<path fill="none" stroke="#63b8ff" d="M407.86,-439.95C378.98,-430.33 340.47,-417.49 309.73,-407.24"/>
<polygon fill="#63b8ff" stroke="#63b8ff" points="310.63,-403.85 300.04,-404.01 308.42,-410.5 310.63,-403.85"/>
</a>
</g>
</g>
<!-- Node32&#45;&gt;Node30 -->
<g id="edge59_Node000032_Node000030" class="edge">
<title>Node32&#45;&gt;Node30</title>
<g id="a_edge59_Node000032_Node000030"><a xlink:title=" ">
<path fill="none" stroke="#63b8ff" d="M450,-439.8C450,-432.34 450,-422.99 450,-414.41"/>
<polygon fill="#63b8ff" stroke="#63b8ff" points="453.5,-414.16 450,-404.16 446.5,-414.16 453.5,-414.16"/>
</a>
</g>
</g>
<!-- Node32&#45;&gt;Node31 -->
<g id="edge58_Node000032_Node000031" class="edge">
<title>Node32&#45;&gt;Node31</title>
<g id="a_edge58_Node000032_Node000031"><a xlink:title=" ">
<path fill="none" stroke="#63b8ff" d="M493.01,-439.95C522.5,-430.33 561.81,-417.49 593.2,-407.24"/>
<polygon fill="#63b8ff" stroke="#63b8ff" points="594.67,-410.44 603.09,-404.01 592.49,-403.79 594.67,-410.44"/>
</a>
</g>
</g>
<!-- Node33&#45;&gt;Node3 -->
<g id="edge61_Node000033_Node000003" class="edge">
<title>Node33&#45;&gt;Node3</title>
<g id="a_edge61_Node000033_Node000003"><a xlink:title=" ">
<path fill="none" stroke="#63b8ff" d="M649.01,-505.8C645.09,-496.5 639.93,-484.27 635.7,-474.26"/>
<polygon fill="#63b8ff" stroke="#63b8ff" points="638.84,-472.7 631.73,-464.84 632.39,-475.42 638.84,-472.7"/>
</a>
</g>
</g>
<!-- Node33&#45;&gt;Node4 -->
<g id="edge62_Node000033_Node000004" class="edge">
<title>Node33&#45;&gt;Node4</title>
<g id="a_edge62_Node000033_Node000004"><a xlink:title=" ">
<path fill="none" stroke="#63b8ff" d="M549.03,-505.97C466.66,-494.56 363.39,-478.92 345,-470 344.02,-469.53 306.21,-434.62 280.77,-411.08"/>
<polygon fill="#63b8ff" stroke="#63b8ff" points="283.04,-408.41 273.32,-404.19 278.28,-413.55 283.04,-408.41"/>
</a>
</g>
</g>
<!-- Node33&#45;&gt;Node30 -->
<g id="edge64_Node000033_Node000030" class="edge">
<title>Node33&#45;&gt;Node30</title>
<g id="a_edge64_Node000033_Node000030"><a xlink:title=" ">
<path fill="none" stroke="#63b8ff" d="M661.83,-505.89C669.17,-488.46 677.91,-458.82 663,-440 654.96,-429.86 595.13,-416.35 540.92,-405.93"/>
<polygon fill="#63b8ff" stroke="#63b8ff" points="541.36,-402.45 530.88,-404.02 540.05,-409.32 541.36,-402.45"/>
</a>
</g>
</g>
<!-- Node33&#45;&gt;Node31 -->
<g id="edge63_Node000033_Node000031" class="edge">
<title>Node33&#45;&gt;Node31</title>
<g id="a_edge63_Node000033_Node000031"><a xlink:title=" ">
<path fill="none" stroke="#63b8ff" d="M671.03,-505.99C680.27,-496.81 691.01,-483.95 696,-470 700.49,-457.45 701.1,-452.32 696,-440 691.35,-428.77 682.82,-418.75 674.1,-410.68"/>
<polygon fill="#63b8ff" stroke="#63b8ff" points="676.35,-408 666.49,-404.11 671.77,-413.29 676.35,-408"/>
</a>
</g>
</g>
<!-- Node33&#45;&gt;Node32 -->
<g id="edge65_Node000033_Node000032" class="edge">
<title>Node33&#45;&gt;Node32</title>
<g id="a_edge65_Node000033_Node000032"><a xlink:title=" ">
<path fill="none" stroke="#63b8ff" d="M610.01,-505.95C579.04,-496.28 537.7,-483.38 504.8,-473.11"/>
<polygon fill="#63b8ff" stroke="#63b8ff" points="505.47,-469.65 494.88,-470.01 503.39,-476.33 505.47,-469.65"/>
</a>
</g>
</g>
</g>
</svg>
