<?xml version="1.0" encoding="UTF-8" standalone="no"?>
<!DOCTYPE svg PUBLIC "-//W3C//DTD SVG 1.1//EN"
 "http://www.w3.org/Graphics/SVG/1.1/DTD/svg11.dtd">
<!-- Generated by graphviz version 2.43.0 (0)
 -->
<!-- Title: _module.ixx Pages: 1 -->
<svg width="2131pt" height="401pt"
 viewBox="0.00 0.00 2131.00 401.00" xmlns="http://www.w3.org/2000/svg" xmlns:xlink="http://www.w3.org/1999/xlink">
<g id="graph0" class="graph" transform="scale(1 1) rotate(0) translate(4 397)">
<title>_module.ixx</title>
<!-- Node1 -->
<g id="Node000001" class="node">
<title>Node1</title>
<g id="a_Node000001"><a xlink:title="Aggregate module for helios::engine::modules::ai::components namespace.">
<polygon fill="#999999" stroke="#666666" points="1311.5,-393 1234.5,-393 1234.5,-374 1311.5,-374 1311.5,-393"/>
<text text-anchor="middle" x="1273" y="-381" font-family="Helvetica,sans-Serif" font-size="10.00">_module.ixx</text>
</a>
</g>
</g>
<!-- Node2 -->
<g id="Node000002" class="node">
<title>Node2</title>
<g id="a_Node000002"><a xlink:href="ChaseComponent_8ixx.html" target="_top" xlink:title="Component for AI chase/seek behavior.">
<polygon fill="white" stroke="#666666" points="1375.5,-338 1170.5,-338 1170.5,-308 1375.5,-308 1375.5,-338"/>
<text text-anchor="start" x="1178.5" y="-326" font-family="Helvetica,sans-Serif" font-size="10.00">helios.engine.modules.ai.components.</text>
<text text-anchor="middle" x="1273" y="-315" font-family="Helvetica,sans-Serif" font-size="10.00">ChaseComponent</text>
</a>
</g>
</g>
<!-- Node1&#45;&gt;Node2 -->
<g id="edge1_Node000001_Node000002" class="edge">
<title>Node1&#45;&gt;Node2</title>
<g id="a_edge1_Node000001_Node000002"><a xlink:title=" ">
<path fill="none" stroke="#63b8ff" d="M1273,-373.87C1273,-367.11 1273,-357.35 1273,-348.26"/>
<polygon fill="#63b8ff" stroke="#63b8ff" points="1276.5,-348.11 1273,-338.11 1269.5,-348.11 1276.5,-348.11"/>
</a>
</g>
</g>
<!-- Node3 -->
<g id="Node000003" class="node">
<title>Node3</title>
<g id="a_Node000003"><a xlink:title=" ">
<polygon fill="#e0e0e0" stroke="#999999" points="1141,-266.5 1089,-266.5 1089,-247.5 1141,-247.5 1141,-266.5"/>
<text text-anchor="middle" x="1115" y="-254.5" font-family="Helvetica,sans-Serif" font-size="10.00">cassert</text>
</a>
</g>
</g>
<!-- Node2&#45;&gt;Node3 -->
<g id="edge2_Node000002_Node000003" class="edge">
<title>Node2&#45;&gt;Node3</title>
<g id="a_edge2_Node000002_Node000003"><a xlink:title=" ">
<path fill="none" stroke="#63b8ff" d="M1238.33,-307.95C1210.62,-296.73 1172.15,-281.15 1145.58,-270.39"/>
<polygon fill="#63b8ff" stroke="#63b8ff" points="1146.61,-267.03 1136.03,-266.52 1143.98,-273.52 1146.61,-267.03"/>
</a>
</g>
</g>
<!-- Node4 -->
<g id="Node000004" class="node">
<title>Node4</title>
<g id="a_Node000004"><a xlink:href="EntityHandle_8ixx.html" target="_top" xlink:title="Versioned handle for referencing entities in an EntityPool.">
<polygon fill="white" stroke="#666666" points="1292.5,-272 1159.5,-272 1159.5,-242 1292.5,-242 1292.5,-272"/>
<text text-anchor="start" x="1167.5" y="-260" font-family="Helvetica,sans-Serif" font-size="10.00">helios.engine.ecs.Entity</text>
<text text-anchor="middle" x="1226" y="-249" font-family="Helvetica,sans-Serif" font-size="10.00">Handle</text>
</a>
</g>
</g>
<!-- Node2&#45;&gt;Node4 -->
<g id="edge3_Node000002_Node000004" class="edge">
<title>Node2&#45;&gt;Node4</title>
<g id="a_edge3_Node000002_Node000004"><a xlink:title=" ">
<path fill="none" stroke="#63b8ff" d="M1262.57,-307.8C1256.67,-299.76 1249.15,-289.53 1242.47,-280.43"/>
<polygon fill="#63b8ff" stroke="#63b8ff" points="1245.14,-278.15 1236.4,-272.16 1239.5,-282.3 1245.14,-278.15"/>
</a>
</g>
</g>
<!-- Node8 -->
<g id="Node000008" class="node">
<title>Node8</title>
<g id="a_Node000008"><a xlink:href="types_8ixx.html" target="_top" xlink:title="Core type definitions and tag types for the helios engine.">
<polygon fill="white" stroke="#666666" points="1147,-79.5 1047,-79.5 1047,-60.5 1147,-60.5 1147,-79.5"/>
<text text-anchor="middle" x="1097" y="-67.5" font-family="Helvetica,sans-Serif" font-size="10.00">helios.core.types</text>
</a>
</g>
</g>
<!-- Node2&#45;&gt;Node8 -->
<g id="edge70_Node000002_Node000008" class="edge">
<title>Node2&#45;&gt;Node8</title>
<g id="a_edge70_Node000002_Node000008"><a xlink:title=" ">
<path fill="none" stroke="#63b8ff" d="M1284.1,-307.6C1290.72,-298.08 1298.51,-284.99 1302,-272 1319.43,-207.19 1343.45,-173.78 1302,-121 1284.25,-98.4 1211.26,-84.72 1157.41,-77.52"/>
<polygon fill="#63b8ff" stroke="#63b8ff" points="1157.62,-74.02 1147.25,-76.21 1156.72,-80.96 1157.62,-74.02"/>
</a>
</g>
</g>
<!-- Node31 -->
<g id="Node000031" class="node">
<title>Node31</title>
<g id="a_Node000031"><a xlink:href="Guid_8ixx.html" target="_top" xlink:title="Lightweight GUID (globally unique identifier) implementation.">
<polygon fill="white" stroke="#666666" points="1477,-145.5 1387,-145.5 1387,-126.5 1477,-126.5 1477,-145.5"/>
<text text-anchor="middle" x="1432" y="-133.5" font-family="Helvetica,sans-Serif" font-size="10.00">helios.util.Guid</text>
</a>
</g>
</g>
<!-- Node2&#45;&gt;Node31 -->
<g id="edge66_Node000002_Node000031" class="edge">
<title>Node2&#45;&gt;Node31</title>
<g id="a_edge66_Node000002_Node000031"><a xlink:title=" ">
<path fill="none" stroke="#63b8ff" d="M1293.15,-307.93C1305.88,-298.53 1322.27,-285.46 1335,-272 1371.21,-233.72 1405.11,-181.37 1421.58,-154.5"/>
<polygon fill="#63b8ff" stroke="#63b8ff" points="1424.64,-156.19 1426.83,-145.82 1418.65,-152.57 1424.64,-156.19"/>
</a>
</g>
</g>
<!-- Node5 -->
<g id="Node000005" class="node">
<title>Node5</title>
<g id="a_Node000005"><a xlink:title=" ">
<polygon fill="#e0e0e0" stroke="#999999" points="1746.5,-79.5 1681.5,-79.5 1681.5,-60.5 1746.5,-60.5 1746.5,-79.5"/>
<text text-anchor="middle" x="1714" y="-67.5" font-family="Helvetica,sans-Serif" font-size="10.00">functional</text>
</a>
</g>
</g>
<!-- Node4&#45;&gt;Node5 -->
<g id="edge4_Node000004_Node000005" class="edge">
<title>Node4&#45;&gt;Node5</title>
<g id="a_edge4_Node000004_Node000005"><a xlink:title=" ">
<path fill="none" stroke="#63b8ff" d="M1292.59,-253.84C1427.87,-247.9 1727.38,-226.36 1790,-151 1810.55,-126.27 1771.49,-99.58 1742.15,-84.13"/>
<polygon fill="#63b8ff" stroke="#63b8ff" points="1743.55,-80.92 1733.05,-79.53 1740.39,-87.17 1743.55,-80.92"/>
</a>
</g>
</g>
<!-- Node6 -->
<g id="Node000006" class="node">
<title>Node6</title>
<g id="a_Node000006"><a xlink:href="helios_2engine_2core_2data_2__module_8ixx.html" target="_top" xlink:title="Aggregate module for helios::engine::core::data namespace.">
<polygon fill="white" stroke="#666666" points="1139.5,-206 1008.5,-206 1008.5,-187 1139.5,-187 1139.5,-206"/>
<text text-anchor="middle" x="1074" y="-194" font-family="Helvetica,sans-Serif" font-size="10.00">helios.engine.core.data</text>
</a>
</g>
</g>
<!-- Node4&#45;&gt;Node6 -->
<g id="edge5_Node000004_Node000006" class="edge">
<title>Node4&#45;&gt;Node6</title>
<g id="a_edge5_Node000004_Node000006"><a xlink:title=" ">
<path fill="none" stroke="#63b8ff" d="M1189.59,-241.99C1164.12,-232.18 1130.41,-219.21 1105.97,-209.81"/>
<polygon fill="#63b8ff" stroke="#63b8ff" points="1107.04,-206.46 1096.45,-206.14 1104.52,-213 1107.04,-206.46"/>
</a>
</g>
</g>
<!-- Node7 -->
<g id="Node000007" class="node">
<title>Node7</title>
<g id="a_Node000007"><a xlink:href="ComponentTypeId_8ixx.html" target="_top" xlink:title="Compile&#45;time type identifier for component types.">
<polygon fill="white" stroke="#666666" points="1629,-151 1495,-151 1495,-121 1629,-121 1629,-151"/>
<text text-anchor="start" x="1503" y="-139" font-family="Helvetica,sans-Serif" font-size="10.00">helios.engine.core.data.</text>
<text text-anchor="middle" x="1562" y="-128" font-family="Helvetica,sans-Serif" font-size="10.00">ComponentTypeId</text>
</a>
</g>
</g>
<!-- Node6&#45;&gt;Node7 -->
<g id="edge6_Node000006_Node000007" class="edge">
<title>Node6&#45;&gt;Node7</title>
<g id="a_edge6_Node000006_Node000007"><a xlink:title=" ">
<path fill="none" stroke="#63b8ff" d="M1139.84,-189.91C1219.26,-182.83 1357.05,-169.46 1484.93,-151.09"/>
<polygon fill="#63b8ff" stroke="#63b8ff" points="1485.51,-154.54 1494.91,-149.64 1484.51,-147.61 1485.51,-154.54"/>
</a>
</g>
</g>
<!-- Node11 -->
<g id="Node000011" class="node">
<title>Node11</title>
<g id="a_Node000011"><a xlink:href="GameObjectPoolId_8ixx.html" target="_top" xlink:title="Strongly&#45;typed identifier for GameObjectPool instances.">
<polygon fill="white" stroke="#666666" points="229,-151 95,-151 95,-121 229,-121 229,-151"/>
<text text-anchor="start" x="103" y="-139" font-family="Helvetica,sans-Serif" font-size="10.00">helios.engine.core.data.</text>
<text text-anchor="middle" x="162" y="-128" font-family="Helvetica,sans-Serif" font-size="10.00">GameObjectPoolId</text>
</a>
</g>
</g>
<!-- Node6&#45;&gt;Node11 -->
<g id="edge11_Node000006_Node000011" class="edge">
<title>Node6&#45;&gt;Node11</title>
<g id="a_edge11_Node000006_Node000011"><a xlink:title=" ">
<path fill="none" stroke="#63b8ff" d="M1008.45,-194.88C868.75,-192.94 531.3,-184.95 239.01,-151.01"/>
<polygon fill="#63b8ff" stroke="#63b8ff" points="239.41,-147.53 229.07,-149.84 238.59,-154.48 239.41,-147.53"/>
</a>
</g>
</g>
<!-- Node18 -->
<g id="Node000018" class="node">
<title>Node18</title>
<g id="a_Node000018"><a xlink:href="SpawnRuleId_8ixx.html" target="_top" xlink:title="Strongly&#45;typed identifier for SpawnRule instances.">
<polygon fill="white" stroke="#666666" points="381,-151 247,-151 247,-121 381,-121 381,-151"/>
<text text-anchor="start" x="255" y="-139" font-family="Helvetica,sans-Serif" font-size="10.00">helios.engine.core.data.</text>
<text text-anchor="middle" x="314" y="-128" font-family="Helvetica,sans-Serif" font-size="10.00">SpawnRuleId</text>
</a>
</g>
</g>
<!-- Node6&#45;&gt;Node18 -->
<g id="edge19_Node000006_Node000018" class="edge">
<title>Node6&#45;&gt;Node18</title>
<g id="a_edge19_Node000006_Node000018"><a xlink:title=" ">
<path fill="none" stroke="#63b8ff" d="M1008.21,-193.78C887.73,-190.08 623.48,-179.36 391.07,-151.03"/>
<polygon fill="#63b8ff" stroke="#63b8ff" points="391.42,-147.55 381.07,-149.8 390.57,-154.49 391.42,-147.55"/>
</a>
</g>
</g>
<!-- Node19 -->
<g id="Node000019" class="node">
<title>Node19</title>
<g id="a_Node000019"><a xlink:href="SpawnProfileId_8ixx.html" target="_top" xlink:title="Strongly&#45;typed identifier for SpawnProfile instances.">
<polygon fill="white" stroke="#666666" points="1293,-151 1159,-151 1159,-121 1293,-121 1293,-151"/>
<text text-anchor="start" x="1167" y="-139" font-family="Helvetica,sans-Serif" font-size="10.00">helios.engine.core.data.</text>
<text text-anchor="middle" x="1226" y="-128" font-family="Helvetica,sans-Serif" font-size="10.00">SpawnProfileId</text>
</a>
</g>
</g>
<!-- Node6&#45;&gt;Node19 -->
<g id="edge23_Node000006_Node000019" class="edge">
<title>Node6&#45;&gt;Node19</title>
<g id="a_edge23_Node000006_Node000019"><a xlink:title=" ">
<path fill="none" stroke="#63b8ff" d="M1096.1,-186.99C1117.98,-178.57 1152.13,-165.43 1179.92,-154.73"/>
<polygon fill="#63b8ff" stroke="#63b8ff" points="1181.38,-157.92 1189.46,-151.06 1178.87,-151.39 1181.38,-157.92"/>
</a>
</g>
</g>
<!-- Node20 -->
<g id="Node000020" class="node">
<title>Node20</title>
<g id="a_Node000020"><a xlink:href="MenuId_8ixx.html" target="_top" xlink:title="Strongly&#45;typed identifier for UI menus.">
<polygon fill="white" stroke="#666666" points="533,-151 399,-151 399,-121 533,-121 533,-151"/>
<text text-anchor="start" x="407" y="-139" font-family="Helvetica,sans-Serif" font-size="10.00">helios.engine.core.data.</text>
<text text-anchor="middle" x="466" y="-128" font-family="Helvetica,sans-Serif" font-size="10.00">MenuId</text>
</a>
</g>
</g>
<!-- Node6&#45;&gt;Node20 -->
<g id="edge28_Node000006_Node000020" class="edge">
<title>Node6&#45;&gt;Node20</title>
<g id="a_edge28_Node000006_Node000020"><a xlink:title=" ">
<path fill="none" stroke="#63b8ff" d="M1008.25,-192.09C909.47,-186.51 716.72,-173.83 543.16,-151.07"/>
<polygon fill="#63b8ff" stroke="#63b8ff" points="543.45,-147.57 533.08,-149.73 542.53,-154.51 543.45,-147.57"/>
</a>
</g>
</g>
<!-- Node21 -->
<g id="Node000021" class="node">
<title>Node21</title>
<g id="a_Node000021"><a xlink:href="FontId_8ixx.html" target="_top" xlink:title="Strongly&#45;typed identifier for font families.">
<polygon fill="white" stroke="#666666" points="685,-151 551,-151 551,-121 685,-121 685,-151"/>
<text text-anchor="start" x="559" y="-139" font-family="Helvetica,sans-Serif" font-size="10.00">helios.engine.core.data.</text>
<text text-anchor="middle" x="618" y="-128" font-family="Helvetica,sans-Serif" font-size="10.00">FontId</text>
</a>
</g>
</g>
<!-- Node6&#45;&gt;Node21 -->
<g id="edge33_Node000006_Node000021" class="edge">
<title>Node6&#45;&gt;Node21</title>
<g id="a_edge33_Node000006_Node000021"><a xlink:title=" ">
<path fill="none" stroke="#63b8ff" d="M1008.26,-189.12C934.51,-181.67 811.09,-168.32 695.21,-151.12"/>
<polygon fill="#63b8ff" stroke="#63b8ff" points="695.5,-147.63 685.1,-149.61 694.47,-154.55 695.5,-147.63"/>
</a>
</g>
</g>
<!-- Node22 -->
<g id="Node000022" class="node">
<title>Node22</title>
<g id="a_Node000022"><a xlink:href="ViewportId_8ixx.html" target="_top" xlink:title="Strongly&#45;typed identifier for viewports.">
<polygon fill="white" stroke="#666666" points="837,-151 703,-151 703,-121 837,-121 837,-151"/>
<text text-anchor="start" x="711" y="-139" font-family="Helvetica,sans-Serif" font-size="10.00">helios.engine.core.data.</text>
<text text-anchor="middle" x="770" y="-128" font-family="Helvetica,sans-Serif" font-size="10.00">ViewportId</text>
</a>
</g>
</g>
<!-- Node6&#45;&gt;Node22 -->
<g id="edge38_Node000006_Node000022" class="edge">
<title>Node6&#45;&gt;Node22</title>
<g id="a_edge38_Node000006_Node000022"><a xlink:title=" ">
<path fill="none" stroke="#63b8ff" d="M1029.8,-186.99C982.01,-177.8 904.92,-162.96 847.11,-151.84"/>
<polygon fill="#63b8ff" stroke="#63b8ff" points="847.76,-148.4 837.28,-149.95 846.44,-155.27 847.76,-148.4"/>
</a>
</g>
</g>
<!-- Node23 -->
<g id="Node000023" class="node">
<title>Node23</title>
<g id="a_Node000023"><a xlink:href="VersionId_8ixx.html" target="_top" xlink:title="Type alias for entity version numbers used in handle validation.">
<polygon fill="white" stroke="#666666" points="1370,-85 1236,-85 1236,-55 1370,-55 1370,-85"/>
<text text-anchor="start" x="1244" y="-73" font-family="Helvetica,sans-Serif" font-size="10.00">helios.engine.core.data.</text>
<text text-anchor="middle" x="1303" y="-62" font-family="Helvetica,sans-Serif" font-size="10.00">VersionId</text>
</a>
</g>
</g>
<!-- Node6&#45;&gt;Node23 -->
<g id="edge43_Node000006_Node000023" class="edge">
<title>Node6&#45;&gt;Node23</title>
<g id="a_edge43_Node000006_Node000023"><a xlink:title=" ">
<path fill="none" stroke="#63b8ff" d="M1139.68,-191.68C1199.52,-186.68 1281.59,-175.47 1302,-151 1314.67,-135.81 1313.55,-112.76 1310.07,-95.29"/>
<polygon fill="#63b8ff" stroke="#63b8ff" points="1313.4,-94.19 1307.69,-85.26 1306.59,-95.8 1313.4,-94.19"/>
</a>
</g>
</g>
<!-- Node24 -->
<g id="Node000024" class="node">
<title>Node24</title>
<g id="a_Node000024"><a xlink:href="ScorePoolId_8ixx.html" target="_top" xlink:title="Strongly&#45;typed identifier for score pools.">
<polygon fill="white" stroke="#666666" points="989,-151 855,-151 855,-121 989,-121 989,-151"/>
<text text-anchor="start" x="863" y="-139" font-family="Helvetica,sans-Serif" font-size="10.00">helios.engine.core.data.</text>
<text text-anchor="middle" x="922" y="-128" font-family="Helvetica,sans-Serif" font-size="10.00">ScorePoolId</text>
</a>
</g>
</g>
<!-- Node6&#45;&gt;Node24 -->
<g id="edge45_Node000006_Node000024" class="edge">
<title>Node6&#45;&gt;Node24</title>
<g id="a_edge45_Node000006_Node000024"><a xlink:title=" ">
<path fill="none" stroke="#63b8ff" d="M1051.9,-186.99C1030.02,-178.57 995.87,-165.43 968.08,-154.73"/>
<polygon fill="#63b8ff" stroke="#63b8ff" points="969.13,-151.39 958.54,-151.06 966.62,-157.92 969.13,-151.39"/>
</a>
</g>
</g>
<!-- Node25 -->
<g id="Node000025" class="node">
<title>Node25</title>
<g id="a_Node000025"><a xlink:href="ScoreTypeId_8ixx.html" target="_top" xlink:title="Strongly&#45;typed identifier for score types.">
<polygon fill="white" stroke="#666666" points="1781,-151 1647,-151 1647,-121 1781,-121 1781,-151"/>
<text text-anchor="start" x="1655" y="-139" font-family="Helvetica,sans-Serif" font-size="10.00">helios.engine.core.data.</text>
<text text-anchor="middle" x="1714" y="-128" font-family="Helvetica,sans-Serif" font-size="10.00">ScoreTypeId</text>
</a>
</g>
</g>
<!-- Node6&#45;&gt;Node25 -->
<g id="edge50_Node000006_Node000025" class="edge">
<title>Node6&#45;&gt;Node25</title>
<g id="a_edge50_Node000006_Node000025"><a xlink:title=" ">
<path fill="none" stroke="#63b8ff" d="M1139.79,-192.52C1243.41,-187.34 1451.1,-174.99 1636.97,-151.04"/>
<polygon fill="#63b8ff" stroke="#63b8ff" points="1637.46,-154.51 1646.92,-149.75 1636.55,-147.57 1637.46,-154.51"/>
</a>
</g>
</g>
<!-- Node26 -->
<g id="Node000026" class="node">
<title>Node26</title>
<g id="a_Node000026"><a xlink:href="ActionId_8ixx.html" target="_top" xlink:title="Strongly&#45;typed identifier for UI actions.">
<polygon fill="white" stroke="#666666" points="1141,-151 1007,-151 1007,-121 1141,-121 1141,-151"/>
<text text-anchor="start" x="1015" y="-139" font-family="Helvetica,sans-Serif" font-size="10.00">helios.engine.core.data.</text>
<text text-anchor="middle" x="1074" y="-128" font-family="Helvetica,sans-Serif" font-size="10.00">ActionId</text>
</a>
</g>
</g>
<!-- Node6&#45;&gt;Node26 -->
<g id="edge54_Node000006_Node000026" class="edge">
<title>Node6&#45;&gt;Node26</title>
<g id="a_edge54_Node000006_Node000026"><a xlink:title=" ">
<path fill="none" stroke="#63b8ff" d="M1074,-186.87C1074,-180.11 1074,-170.35 1074,-161.26"/>
<polygon fill="#63b8ff" stroke="#63b8ff" points="1077.5,-161.11 1074,-151.11 1070.5,-161.11 1077.5,-161.11"/>
</a>
</g>
</g>
<!-- Node27 -->
<g id="Node000027" class="node">
<title>Node27</title>
<g id="a_Node000027"><a xlink:href="EntityId_8ixx.html" target="_top" xlink:title="Type alias for entity identifiers within an EntityPool.">
<polygon fill="white" stroke="#666666" points="134,-85 0,-85 0,-55 134,-55 134,-85"/>
<text text-anchor="start" x="8" y="-73" font-family="Helvetica,sans-Serif" font-size="10.00">helios.engine.core.data.</text>
<text text-anchor="middle" x="67" y="-62" font-family="Helvetica,sans-Serif" font-size="10.00">EntityId</text>
</a>
</g>
</g>
<!-- Node6&#45;&gt;Node27 -->
<g id="edge59_Node000006_Node000027" class="edge">
<title>Node6&#45;&gt;Node27</title>
<g id="a_edge59_Node000006_Node000027"><a xlink:title=" ">
<path fill="none" stroke="#63b8ff" d="M1008.45,-194.7C793.48,-191.8 121.53,-180.4 86,-151 69.99,-137.75 66.04,-113.69 65.62,-95.41"/>
<polygon fill="#63b8ff" stroke="#63b8ff" points="69.12,-95.21 65.72,-85.18 62.12,-95.14 69.12,-95.21"/>
</a>
</g>
</g>
<!-- Node28 -->
<g id="Node000028" class="node">
<title>Node28</title>
<g id="a_Node000028"><a xlink:href="CollisionLayer_8ixx.html" target="_top" xlink:title="Type definitions for collision layer identifiers.">
<polygon fill="white" stroke="#666666" points="1971,-151 1837,-151 1837,-121 1971,-121 1971,-151"/>
<text text-anchor="start" x="1845" y="-139" font-family="Helvetica,sans-Serif" font-size="10.00">helios.engine.core.data.</text>
<text text-anchor="middle" x="1904" y="-128" font-family="Helvetica,sans-Serif" font-size="10.00">CollisionLayer</text>
</a>
</g>
</g>
<!-- Node6&#45;&gt;Node28 -->
<g id="edge61_Node000006_Node000028" class="edge">
<title>Node6&#45;&gt;Node28</title>
<g id="a_edge61_Node000006_Node000028"><a xlink:title=" ">
<path fill="none" stroke="#63b8ff" d="M1139.75,-192.74C1265.98,-187.14 1550.96,-173.09 1790,-151 1801.87,-149.9 1814.41,-148.56 1826.66,-147.13"/>
<polygon fill="#63b8ff" stroke="#63b8ff" points="1827.34,-150.58 1836.86,-145.93 1826.52,-143.63 1827.34,-150.58"/>
</a>
</g>
</g>
<!-- Node30 -->
<g id="Node000030" class="node">
<title>Node30</title>
<g id="a_Node000030"><a xlink:href="EntityTombstone_8ixx.html" target="_top" xlink:title="Sentinel value for invalid sparse array indices.">
<polygon fill="white" stroke="#666666" points="2123,-151 1989,-151 1989,-121 2123,-121 2123,-151"/>
<text text-anchor="start" x="1997" y="-139" font-family="Helvetica,sans-Serif" font-size="10.00">helios.engine.core.data.</text>
<text text-anchor="middle" x="2056" y="-128" font-family="Helvetica,sans-Serif" font-size="10.00">EntityTombstone</text>
</a>
</g>
</g>
<!-- Node6&#45;&gt;Node30 -->
<g id="edge64_Node000006_Node000030" class="edge">
<title>Node6&#45;&gt;Node30</title>
<g id="a_edge64_Node000006_Node000030"><a xlink:title=" ">
<path fill="none" stroke="#63b8ff" d="M1139.62,-195.26C1287.6,-194.09 1658.66,-187.52 1978.53,-151.05"/>
<polygon fill="#63b8ff" stroke="#63b8ff" points="1979.4,-154.48 1988.94,-149.85 1978.6,-147.52 1979.4,-154.48"/>
</a>
</g>
</g>
<!-- Node7&#45;&gt;Node5 -->
<g id="edge7_Node000007_Node000005" class="edge">
<title>Node7&#45;&gt;Node5</title>
<g id="a_edge7_Node000007_Node000005"><a xlink:title=" ">
<path fill="none" stroke="#63b8ff" d="M1595.36,-120.95C1621.9,-109.78 1658.69,-94.29 1684.24,-83.53"/>
<polygon fill="#63b8ff" stroke="#63b8ff" points="1685.91,-86.62 1693.77,-79.52 1683.2,-80.17 1685.91,-86.62"/>
</a>
</g>
</g>
<!-- Node7&#45;&gt;Node8 -->
<g id="edge8_Node000007_Node000008" class="edge">
<title>Node7&#45;&gt;Node8</title>
<g id="a_edge8_Node000007_Node000008"><a xlink:title=" ">
<path fill="none" stroke="#63b8ff" d="M1494.9,-122.43C1491.89,-121.94 1488.92,-121.46 1486,-121 1369.95,-102.87 1233.67,-86.47 1157.11,-77.7"/>
<polygon fill="#63b8ff" stroke="#63b8ff" points="1157.5,-74.22 1147.17,-76.57 1156.71,-81.18 1157.5,-74.22"/>
</a>
</g>
</g>
<!-- Node9 -->
<g id="Node000009" class="node">
<title>Node9</title>
<g id="a_Node000009"><a xlink:href="TypeIndexer_8ixx.html" target="_top" xlink:title="Utility for generating unique type indices at runtime.">
<polygon fill="white" stroke="#666666" points="1640,-79.5 1484,-79.5 1484,-60.5 1640,-60.5 1640,-79.5"/>
<text text-anchor="middle" x="1562" y="-67.5" font-family="Helvetica,sans-Serif" font-size="10.00">helios.core.data.TypeIndexer</text>
</a>
</g>
</g>
<!-- Node7&#45;&gt;Node9 -->
<g id="edge9_Node000007_Node000009" class="edge">
<title>Node7&#45;&gt;Node9</title>
<g id="a_edge9_Node000007_Node000009"><a xlink:title=" ">
<path fill="none" stroke="#63b8ff" d="M1562,-120.8C1562,-111.7 1562,-99.79 1562,-89.9"/>
<polygon fill="#63b8ff" stroke="#63b8ff" points="1565.5,-89.84 1562,-79.84 1558.5,-89.84 1565.5,-89.84"/>
</a>
</g>
</g>
<!-- Node10 -->
<g id="Node000010" class="node">
<title>Node10</title>
<g id="a_Node000010"><a xlink:title=" ">
<polygon fill="#e0e0e0" stroke="#999999" points="1534,-19 1484,-19 1484,0 1534,0 1534,-19"/>
<text text-anchor="middle" x="1509" y="-7" font-family="Helvetica,sans-Serif" font-size="10.00">atomic</text>
</a>
</g>
</g>
<!-- Node9&#45;&gt;Node10 -->
<g id="edge10_Node000009_Node000010" class="edge">
<title>Node9&#45;&gt;Node10</title>
<g id="a_edge10_Node000009_Node000010"><a xlink:title=" ">
<path fill="none" stroke="#63b8ff" d="M1554.18,-60.37C1546.19,-51.55 1533.61,-37.66 1523.74,-26.77"/>
<polygon fill="#63b8ff" stroke="#63b8ff" points="1526.16,-24.23 1516.85,-19.17 1520.97,-28.93 1526.16,-24.23"/>
</a>
</g>
</g>
<!-- Node12 -->
<g id="Node000012" class="node">
<title>Node12</title>
<g id="a_Node000012"><a xlink:title=" ">
<polygon fill="#e0e0e0" stroke="#999999" points="894,-19 844,-19 844,0 894,0 894,-19"/>
<text text-anchor="middle" x="869" y="-7" font-family="Helvetica,sans-Serif" font-size="10.00">cstdint</text>
</a>
</g>
</g>
<!-- Node11&#45;&gt;Node12 -->
<g id="edge12_Node000011_Node000012" class="edge">
<title>Node11&#45;&gt;Node12</title>
<g id="a_edge12_Node000011_Node000012"><a xlink:title=" ">
<path fill="none" stroke="#63b8ff" d="M160.77,-120.88C160.04,-102.58 161.91,-71.11 181,-55 187.31,-49.67 694.31,-20.44 833.82,-12.5"/>
<polygon fill="#63b8ff" stroke="#63b8ff" points="834.17,-15.98 843.96,-11.92 833.77,-8.99 834.17,-15.98"/>
</a>
</g>
</g>
<!-- Node13 -->
<g id="Node000013" class="node">
<title>Node13</title>
<g id="a_Node000013"><a xlink:title=" ">
<polygon fill="#e0e0e0" stroke="#999999" points="312,-79.5 190,-79.5 190,-60.5 312,-60.5 312,-79.5"/>
<text text-anchor="middle" x="251" y="-67.5" font-family="Helvetica,sans-Serif" font-size="10.00">helios/helios_config.h</text>
</a>
</g>
</g>
<!-- Node11&#45;&gt;Node13 -->
<g id="edge13_Node000011_Node000013" class="edge">
<title>Node11&#45;&gt;Node13</title>
<g id="a_edge13_Node000011_Node000013"><a xlink:title=" ">
<path fill="none" stroke="#63b8ff" d="M181.75,-120.8C196.26,-110.37 215.9,-96.24 230.56,-85.69"/>
<polygon fill="#63b8ff" stroke="#63b8ff" points="232.88,-88.34 238.96,-79.66 228.8,-82.66 232.88,-88.34"/>
</a>
</g>
</g>
<!-- Node14 -->
<g id="Node000014" class="node">
<title>Node14</title>
<g id="a_Node000014"><a xlink:title=" ">
<polygon fill="#e0e0e0" stroke="#999999" points="840.5,-79.5 767.5,-79.5 767.5,-60.5 840.5,-60.5 840.5,-79.5"/>
<text text-anchor="middle" x="804" y="-67.5" font-family="Helvetica,sans-Serif" font-size="10.00">string_view</text>
</a>
</g>
</g>
<!-- Node11&#45;&gt;Node14 -->
<g id="edge14_Node000011_Node000014" class="edge">
<title>Node11&#45;&gt;Node14</title>
<g id="a_edge14_Node000011_Node000014"><a xlink:title=" ">
<path fill="none" stroke="#63b8ff" d="M229.07,-122.22C232.09,-121.78 235.07,-121.37 238,-121 468.28,-91.93 530.87,-127.76 759,-85 762.67,-84.31 766.47,-83.42 770.23,-82.43"/>
<polygon fill="#63b8ff" stroke="#63b8ff" points="771.34,-85.75 779.97,-79.61 769.39,-79.02 771.34,-85.75"/>
</a>
</g>
</g>
<!-- Node15 -->
<g id="Node000015" class="node">
<title>Node15</title>
<g id="a_Node000015"><a xlink:title=" ">
<polygon fill="#e0e0e0" stroke="#999999" points="423.5,-79.5 330.5,-79.5 330.5,-60.5 423.5,-60.5 423.5,-79.5"/>
<text text-anchor="middle" x="377" y="-67.5" font-family="Helvetica,sans-Serif" font-size="10.00">unordered_map</text>
</a>
</g>
</g>
<!-- Node11&#45;&gt;Node15 -->
<g id="edge15_Node000011_Node000015" class="edge">
<title>Node11&#45;&gt;Node15</title>
<g id="a_edge15_Node000011_Node000015"><a xlink:title=" ">
<path fill="none" stroke="#63b8ff" d="M209.18,-120.95C248.05,-109.38 302.47,-93.18 338.68,-82.41"/>
<polygon fill="#63b8ff" stroke="#63b8ff" points="339.8,-85.72 348.39,-79.52 337.8,-79.02 339.8,-85.72"/>
</a>
</g>
</g>
<!-- Node16 -->
<g id="Node000016" class="node">
<title>Node16</title>
<g id="a_Node000016"><a xlink:href="algorithms_8ixx.html" target="_top" xlink:title="Core algorithms and hash functions for the helios engine.">
<polygon fill="white" stroke="#666666" points="749.5,-79.5 624.5,-79.5 624.5,-60.5 749.5,-60.5 749.5,-79.5"/>
<text text-anchor="middle" x="687" y="-67.5" font-family="Helvetica,sans-Serif" font-size="10.00">helios.core.algorithms</text>
</a>
</g>
</g>
<!-- Node11&#45;&gt;Node16 -->
<g id="edge16_Node000011_Node000016" class="edge">
<title>Node11&#45;&gt;Node16</title>
<g id="a_edge16_Node000011_Node000016"><a xlink:title=" ">
<path fill="none" stroke="#63b8ff" d="M229.09,-122.37C232.1,-121.89 235.08,-121.43 238,-121 370.24,-101.48 525.41,-85.79 614.37,-77.48"/>
<polygon fill="#63b8ff" stroke="#63b8ff" points="614.72,-80.96 624.35,-76.55 614.07,-73.99 614.72,-80.96"/>
</a>
</g>
</g>
<!-- Node16&#45;&gt;Node12 -->
<g id="edge17_Node000016_Node000012" class="edge">
<title>Node16&#45;&gt;Node12</title>
<g id="a_edge17_Node000016_Node000012"><a xlink:title=" ">
<path fill="none" stroke="#63b8ff" d="M713.46,-60.49C745.32,-50.25 798.91,-33.03 834.12,-21.71"/>
<polygon fill="#63b8ff" stroke="#63b8ff" points="835.52,-24.94 843.97,-18.55 833.38,-18.27 835.52,-24.94"/>
</a>
</g>
</g>
<!-- Node17 -->
<g id="Node000017" class="node">
<title>Node17</title>
<g id="a_Node000017"><a xlink:title=" ">
<polygon fill="#e0e0e0" stroke="#999999" points="709,-19 665,-19 665,0 709,0 709,-19"/>
<text text-anchor="middle" x="687" y="-7" font-family="Helvetica,sans-Serif" font-size="10.00">string</text>
</a>
</g>
</g>
<!-- Node16&#45;&gt;Node17 -->
<g id="edge18_Node000016_Node000017" class="edge">
<title>Node16&#45;&gt;Node17</title>
<g id="a_edge18_Node000016_Node000017"><a xlink:title=" ">
<path fill="none" stroke="#63b8ff" d="M687,-60.37C687,-52.25 687,-39.81 687,-29.39"/>
<polygon fill="#63b8ff" stroke="#63b8ff" points="690.5,-29.17 687,-19.17 683.5,-29.17 690.5,-29.17"/>
</a>
</g>
</g>
<!-- Node18&#45;&gt;Node12 -->
<g id="edge20_Node000018_Node000012" class="edge">
<title>Node18&#45;&gt;Node12</title>
<g id="a_edge20_Node000018_Node000012"><a xlink:title=" ">
<path fill="none" stroke="#63b8ff" d="M345.9,-120.98C388.28,-102.94 465.84,-71.92 535,-55 641.94,-28.84 772.16,-17.09 833.63,-12.71"/>
<polygon fill="#63b8ff" stroke="#63b8ff" points="834.2,-16.18 843.94,-11.99 833.72,-9.19 834.2,-16.18"/>
</a>
</g>
</g>
<!-- Node18&#45;&gt;Node14 -->
<g id="edge21_Node000018_Node000014" class="edge">
<title>Node18&#45;&gt;Node14</title>
<g id="a_edge21_Node000018_Node000014"><a xlink:title=" ">
<path fill="none" stroke="#63b8ff" d="M381.09,-122.32C384.1,-121.85 387.08,-121.41 390,-121 553.17,-98.05 597.49,-117.65 759,-85 762.47,-84.3 766.06,-83.43 769.62,-82.48"/>
<polygon fill="#63b8ff" stroke="#63b8ff" points="770.85,-85.77 779.48,-79.62 768.9,-79.04 770.85,-85.77"/>
</a>
</g>
</g>
<!-- Node18&#45;&gt;Node16 -->
<g id="edge22_Node000018_Node000016" class="edge">
<title>Node18&#45;&gt;Node16</title>
<g id="a_edge22_Node000018_Node000016"><a xlink:title=" ">
<path fill="none" stroke="#63b8ff" d="M381.13,-122.58C384.12,-122.04 387.09,-121.51 390,-121 471.05,-106.71 564.7,-91.09 624.83,-81.18"/>
<polygon fill="#63b8ff" stroke="#63b8ff" points="625.62,-84.6 634.92,-79.52 624.48,-77.69 625.62,-84.6"/>
</a>
</g>
</g>
<!-- Node19&#45;&gt;Node8 -->
<g id="edge27_Node000019_Node000008" class="edge">
<title>Node19&#45;&gt;Node8</title>
<g id="a_edge27_Node000019_Node000008"><a xlink:title=" ">
<path fill="none" stroke="#63b8ff" d="M1197.69,-120.95C1175.57,-109.98 1145.04,-94.83 1123.42,-84.11"/>
<polygon fill="#63b8ff" stroke="#63b8ff" points="1124.68,-80.83 1114.17,-79.52 1121.57,-87.1 1124.68,-80.83"/>
</a>
</g>
</g>
<!-- Node19&#45;&gt;Node12 -->
<g id="edge24_Node000019_Node000012" class="edge">
<title>Node19&#45;&gt;Node12</title>
<g id="a_edge24_Node000019_Node000012"><a xlink:title=" ">
<path fill="none" stroke="#63b8ff" d="M1217.91,-120.72C1206.62,-102.23 1184.3,-70.57 1156,-55 1113.23,-31.47 970.95,-18.08 904.18,-12.95"/>
<polygon fill="#63b8ff" stroke="#63b8ff" points="904.37,-9.45 894.14,-12.19 903.85,-16.43 904.37,-9.45"/>
</a>
</g>
</g>
<!-- Node19&#45;&gt;Node14 -->
<g id="edge25_Node000019_Node000014" class="edge">
<title>Node19&#45;&gt;Node14</title>
<g id="a_edge25_Node000019_Node000014"><a xlink:title=" ">
<path fill="none" stroke="#63b8ff" d="M1158.89,-122.49C1155.89,-121.98 1152.91,-121.48 1150,-121 1043.27,-103.46 917.46,-86.11 850.86,-77.19"/>
<polygon fill="#63b8ff" stroke="#63b8ff" points="851.06,-73.68 840.69,-75.83 850.14,-80.62 851.06,-73.68"/>
</a>
</g>
</g>
<!-- Node19&#45;&gt;Node16 -->
<g id="edge26_Node000019_Node000016" class="edge">
<title>Node19&#45;&gt;Node16</title>
<g id="a_edge26_Node000019_Node000016"><a xlink:title=" ">
<path fill="none" stroke="#63b8ff" d="M1158.92,-122.3C1155.91,-121.84 1152.92,-121.4 1150,-121 977.12,-97.17 931.76,-109.69 759,-85 751.89,-83.98 744.43,-82.74 737.1,-81.41"/>
<polygon fill="#63b8ff" stroke="#63b8ff" points="737.72,-77.96 727.24,-79.56 736.43,-84.85 737.72,-77.96"/>
</a>
</g>
</g>
<!-- Node20&#45;&gt;Node8 -->
<g id="edge31_Node000020_Node000008" class="edge">
<title>Node20&#45;&gt;Node8</title>
<g id="a_edge31_Node000020_Node000008"><a xlink:title=" ">
<path fill="none" stroke="#63b8ff" d="M533.08,-122.3C536.09,-121.84 539.08,-121.4 542,-121 721.08,-96.49 934.38,-81.13 1036.57,-74.61"/>
<polygon fill="#63b8ff" stroke="#63b8ff" points="1036.94,-78.09 1046.7,-73.97 1036.5,-71.11 1036.94,-78.09"/>
</a>
</g>
</g>
<!-- Node20&#45;&gt;Node12 -->
<g id="edge29_Node000020_Node000012" class="edge">
<title>Node20&#45;&gt;Node12</title>
<g id="a_edge29_Node000020_Node000012"><a xlink:title=" ">
<path fill="none" stroke="#63b8ff" d="M484.7,-120.96C509.93,-102.74 556.94,-71.37 602,-55 681.75,-26.03 781.83,-15.79 833.88,-12.27"/>
<polygon fill="#63b8ff" stroke="#63b8ff" points="834.18,-15.76 843.94,-11.63 833.74,-8.77 834.18,-15.76"/>
</a>
</g>
</g>
<!-- Node20&#45;&gt;Node14 -->
<g id="edge30_Node000020_Node000014" class="edge">
<title>Node20&#45;&gt;Node14</title>
<g id="a_edge30_Node000020_Node000014"><a xlink:title=" ">
<path fill="none" stroke="#63b8ff" d="M533.13,-122.57C536.12,-122.03 539.09,-121.51 542,-121 638.3,-104.14 663.88,-107.57 759,-85 762.18,-84.24 765.47,-83.38 768.75,-82.47"/>
<polygon fill="#63b8ff" stroke="#63b8ff" points="769.86,-85.79 778.47,-79.61 767.89,-79.07 769.86,-85.79"/>
</a>
</g>
</g>
<!-- Node20&#45;&gt;Node16 -->
<g id="edge32_Node000020_Node000016" class="edge">
<title>Node20&#45;&gt;Node16</title>
<g id="a_edge32_Node000020_Node000016"><a xlink:title=" ">
<path fill="none" stroke="#63b8ff" d="M514.5,-120.95C554.45,-109.38 610.39,-93.18 647.62,-82.41"/>
<polygon fill="#63b8ff" stroke="#63b8ff" points="648.96,-85.66 657.59,-79.52 647.01,-78.94 648.96,-85.66"/>
</a>
</g>
</g>
<!-- Node21&#45;&gt;Node8 -->
<g id="edge36_Node000021_Node000008" class="edge">
<title>Node21&#45;&gt;Node8</title>
<g id="a_edge36_Node000021_Node000008"><a xlink:title=" ">
<path fill="none" stroke="#63b8ff" d="M685.1,-122.42C688.11,-121.92 691.08,-121.45 694,-121 815.2,-102.33 957.75,-85.95 1036.68,-77.37"/>
<polygon fill="#63b8ff" stroke="#63b8ff" points="1037.36,-80.81 1046.92,-76.26 1036.6,-73.85 1037.36,-80.81"/>
</a>
</g>
</g>
<!-- Node21&#45;&gt;Node12 -->
<g id="edge34_Node000021_Node000012" class="edge">
<title>Node21&#45;&gt;Node12</title>
<g id="a_edge34_Node000021_Node000012"><a xlink:title=" ">
<path fill="none" stroke="#63b8ff" d="M612.53,-120.72C606.82,-103.12 600.64,-73.3 616,-55 643.38,-22.39 770.68,-13.67 833.6,-11.34"/>
<polygon fill="#63b8ff" stroke="#63b8ff" points="833.97,-14.83 843.84,-11 833.73,-7.84 833.97,-14.83"/>
</a>
</g>
</g>
<!-- Node21&#45;&gt;Node14 -->
<g id="edge35_Node000021_Node000014" class="edge">
<title>Node21&#45;&gt;Node14</title>
<g id="a_edge35_Node000021_Node000014"><a xlink:title=" ">
<path fill="none" stroke="#63b8ff" d="M658.82,-120.95C692.01,-109.53 738.32,-93.6 769.64,-82.82"/>
<polygon fill="#63b8ff" stroke="#63b8ff" points="770.93,-86.08 779.25,-79.52 768.65,-79.46 770.93,-86.08"/>
</a>
</g>
</g>
<!-- Node21&#45;&gt;Node16 -->
<g id="edge37_Node000021_Node000016" class="edge">
<title>Node21&#45;&gt;Node16</title>
<g id="a_edge37_Node000021_Node000016"><a xlink:title=" ">
<path fill="none" stroke="#63b8ff" d="M633.31,-120.8C644.18,-110.72 658.76,-97.19 669.99,-86.78"/>
<polygon fill="#63b8ff" stroke="#63b8ff" points="672.51,-89.21 677.46,-79.84 667.75,-84.08 672.51,-89.21"/>
</a>
</g>
</g>
<!-- Node22&#45;&gt;Node8 -->
<g id="edge41_Node000022_Node000008" class="edge">
<title>Node22&#45;&gt;Node8</title>
<g id="a_edge41_Node000022_Node000008"><a xlink:title=" ">
<path fill="none" stroke="#63b8ff" d="M837.36,-121.82C898.26,-109.9 986.76,-92.58 1043.09,-81.55"/>
<polygon fill="#63b8ff" stroke="#63b8ff" points="1044.08,-84.92 1053.22,-79.57 1042.73,-78.05 1044.08,-84.92"/>
</a>
</g>
</g>
<!-- Node22&#45;&gt;Node12 -->
<g id="edge39_Node000022_Node000012" class="edge">
<title>Node22&#45;&gt;Node12</title>
<g id="a_edge39_Node000022_Node000012"><a xlink:title=" ">
<path fill="none" stroke="#63b8ff" d="M804.33,-120.89C820.41,-112.65 838.5,-100.74 850,-85 861.91,-68.69 866.38,-45.64 868.04,-29.51"/>
<polygon fill="#63b8ff" stroke="#63b8ff" points="871.56,-29.42 868.82,-19.19 864.58,-28.9 871.56,-29.42"/>
</a>
</g>
</g>
<!-- Node22&#45;&gt;Node14 -->
<g id="edge40_Node000022_Node000014" class="edge">
<title>Node22&#45;&gt;Node14</title>
<g id="a_edge40_Node000022_Node000014"><a xlink:title=" ">
<path fill="none" stroke="#63b8ff" d="M777.55,-120.8C782.53,-111.41 789.12,-99.02 794.47,-88.95"/>
<polygon fill="#63b8ff" stroke="#63b8ff" points="797.7,-90.32 799.3,-79.84 791.52,-87.03 797.7,-90.32"/>
</a>
</g>
</g>
<!-- Node22&#45;&gt;Node16 -->
<g id="edge42_Node000022_Node000016" class="edge">
<title>Node22&#45;&gt;Node16</title>
<g id="a_edge42_Node000022_Node000016"><a xlink:title=" ">
<path fill="none" stroke="#63b8ff" d="M751.58,-120.8C738.26,-110.53 720.29,-96.67 706.69,-86.18"/>
<polygon fill="#63b8ff" stroke="#63b8ff" points="708.53,-83.18 698.47,-79.84 704.25,-88.72 708.53,-83.18"/>
</a>
</g>
</g>
<!-- Node23&#45;&gt;Node12 -->
<g id="edge44_Node000023_Node000012" class="edge">
<title>Node23&#45;&gt;Node12</title>
<g id="a_edge44_Node000023_Node000012"><a xlink:title=" ">
<path fill="none" stroke="#63b8ff" d="M1235.7,-58.59C1227.38,-57.35 1219,-56.13 1211,-55 1099.19,-39.22 966.51,-22.54 904.39,-14.85"/>
<polygon fill="#63b8ff" stroke="#63b8ff" points="904.69,-11.36 894.34,-13.61 903.83,-18.31 904.69,-11.36"/>
</a>
</g>
</g>
<!-- Node24&#45;&gt;Node8 -->
<g id="edge48_Node000024_Node000008" class="edge">
<title>Node24&#45;&gt;Node8</title>
<g id="a_edge48_Node000024_Node000008"><a xlink:title=" ">
<path fill="none" stroke="#63b8ff" d="M960.4,-120.95C991.5,-109.58 1034.83,-93.74 1064.29,-82.96"/>
<polygon fill="#63b8ff" stroke="#63b8ff" points="1065.52,-86.24 1073.71,-79.52 1063.12,-79.66 1065.52,-86.24"/>
</a>
</g>
</g>
<!-- Node24&#45;&gt;Node12 -->
<g id="edge46_Node000024_Node000012" class="edge">
<title>Node24&#45;&gt;Node12</title>
<g id="a_edge46_Node000024_Node000012"><a xlink:title=" ">
<path fill="none" stroke="#63b8ff" d="M915.92,-120.72C906.21,-97.92 887.23,-53.33 876.63,-28.42"/>
<polygon fill="#63b8ff" stroke="#63b8ff" points="879.79,-26.9 872.65,-19.07 873.34,-29.64 879.79,-26.9"/>
</a>
</g>
</g>
<!-- Node24&#45;&gt;Node14 -->
<g id="edge47_Node000024_Node000014" class="edge">
<title>Node24&#45;&gt;Node14</title>
<g id="a_edge47_Node000024_Node000014"><a xlink:title=" ">
<path fill="none" stroke="#63b8ff" d="M896.1,-120.95C876.05,-110.08 848.45,-95.11 828.7,-84.4"/>
<polygon fill="#63b8ff" stroke="#63b8ff" points="830.16,-81.21 819.7,-79.52 826.83,-87.36 830.16,-81.21"/>
</a>
</g>
</g>
<!-- Node24&#45;&gt;Node16 -->
<g id="edge49_Node000024_Node000016" class="edge">
<title>Node24&#45;&gt;Node16</title>
<g id="a_edge49_Node000024_Node000016"><a xlink:title=" ">
<path fill="none" stroke="#63b8ff" d="M870.43,-120.95C827.67,-109.31 767.7,-92.98 728.12,-82.2"/>
<polygon fill="#63b8ff" stroke="#63b8ff" points="728.84,-78.77 718.27,-79.52 727,-85.52 728.84,-78.77"/>
</a>
</g>
</g>
<!-- Node25&#45;&gt;Node5 -->
<g id="edge51_Node000025_Node000005" class="edge">
<title>Node25&#45;&gt;Node5</title>
<g id="a_edge51_Node000025_Node000005"><a xlink:title=" ">
<path fill="none" stroke="#63b8ff" d="M1714,-120.8C1714,-111.7 1714,-99.79 1714,-89.9"/>
<polygon fill="#63b8ff" stroke="#63b8ff" points="1717.5,-89.84 1714,-79.84 1710.5,-89.84 1717.5,-89.84"/>
</a>
</g>
</g>
<!-- Node25&#45;&gt;Node8 -->
<g id="edge52_Node000025_Node000008" class="edge">
<title>Node25&#45;&gt;Node8</title>
<g id="a_edge52_Node000025_Node000008"><a xlink:title=" ">
<path fill="none" stroke="#63b8ff" d="M1646.92,-122.29C1643.91,-121.83 1640.92,-121.4 1638,-121 1456.3,-96.36 1409.5,-102.82 1227,-85 1204.28,-82.78 1179.35,-80.15 1157.45,-77.76"/>
<polygon fill="#63b8ff" stroke="#63b8ff" points="1157.61,-74.26 1147.29,-76.65 1156.85,-81.22 1157.61,-74.26"/>
</a>
</g>
</g>
<!-- Node25&#45;&gt;Node9 -->
<g id="edge53_Node000025_Node000009" class="edge">
<title>Node25&#45;&gt;Node9</title>
<g id="a_edge53_Node000025_Node000009"><a xlink:title=" ">
<path fill="none" stroke="#63b8ff" d="M1680.64,-120.95C1654.1,-109.78 1617.31,-94.29 1591.76,-83.53"/>
<polygon fill="#63b8ff" stroke="#63b8ff" points="1592.8,-80.17 1582.23,-79.52 1590.09,-86.62 1592.8,-80.17"/>
</a>
</g>
</g>
<!-- Node26&#45;&gt;Node8 -->
<g id="edge57_Node000026_Node000008" class="edge">
<title>Node26&#45;&gt;Node8</title>
<g id="a_edge57_Node000026_Node000008"><a xlink:title=" ">
<path fill="none" stroke="#63b8ff" d="M1079.1,-120.8C1082.44,-111.5 1086.84,-99.27 1090.44,-89.26"/>
<polygon fill="#63b8ff" stroke="#63b8ff" points="1093.73,-90.44 1093.82,-79.84 1087.15,-88.07 1093.73,-90.44"/>
</a>
</g>
</g>
<!-- Node26&#45;&gt;Node12 -->
<g id="edge55_Node000026_Node000012" class="edge">
<title>Node26&#45;&gt;Node12</title>
<g id="a_edge55_Node000026_Node000012"><a xlink:title=" ">
<path fill="none" stroke="#63b8ff" d="M1050.88,-120.96C1011.33,-96.94 931.15,-48.24 891.81,-24.35"/>
<polygon fill="#63b8ff" stroke="#63b8ff" points="893.54,-21.31 883.18,-19.11 889.91,-27.29 893.54,-21.31"/>
</a>
</g>
</g>
<!-- Node26&#45;&gt;Node14 -->
<g id="edge56_Node000026_Node000014" class="edge">
<title>Node26&#45;&gt;Node14</title>
<g id="a_edge56_Node000026_Node000014"><a xlink:title=" ">
<path fill="none" stroke="#63b8ff" d="M1014.75,-120.95C965.1,-109.19 895.25,-92.63 849.81,-81.86"/>
<polygon fill="#63b8ff" stroke="#63b8ff" points="850.47,-78.42 839.93,-79.52 848.86,-85.23 850.47,-78.42"/>
</a>
</g>
</g>
<!-- Node26&#45;&gt;Node16 -->
<g id="edge58_Node000026_Node000016" class="edge">
<title>Node26&#45;&gt;Node16</title>
<g id="a_edge58_Node000026_Node000016"><a xlink:title=" ">
<path fill="none" stroke="#63b8ff" d="M1006.88,-122.51C1003.88,-121.99 1000.91,-121.49 998,-121 892.05,-103.27 864.86,-103.26 759,-85 752.66,-83.91 746.02,-82.7 739.44,-81.47"/>
<polygon fill="#63b8ff" stroke="#63b8ff" points="739.68,-77.95 729.2,-79.52 738.37,-84.83 739.68,-77.95"/>
</a>
</g>
</g>
<!-- Node27&#45;&gt;Node12 -->
<g id="edge60_Node000027_Node000012" class="edge">
<title>Node27&#45;&gt;Node12</title>
<g id="a_edge60_Node000027_Node000012"><a xlink:title=" ">
<path fill="none" stroke="#63b8ff" d="M134.1,-56.82C138.8,-56.15 143.46,-55.53 148,-55 182.37,-50.98 693.57,-20.8 833.71,-12.57"/>
<polygon fill="#63b8ff" stroke="#63b8ff" points="834.11,-16.05 843.89,-11.97 833.7,-9.06 834.11,-16.05"/>
</a>
</g>
</g>
<!-- Node28&#45;&gt;Node12 -->
<g id="edge62_Node000028_Node000012" class="edge">
<title>Node28&#45;&gt;Node12</title>
<g id="a_edge62_Node000028_Node000012"><a xlink:title=" ">
<path fill="none" stroke="#63b8ff" d="M1884.64,-120.83C1857.48,-101.84 1805.79,-68.93 1756,-55 1591.59,-8.99 1047.85,-9.28 904.11,-10.2"/>
<polygon fill="#63b8ff" stroke="#63b8ff" points="904.06,-6.7 894.08,-10.27 904.1,-13.7 904.06,-6.7"/>
</a>
</g>
</g>
<!-- Node29 -->
<g id="Node000029" class="node">
<title>Node29</title>
<g id="a_Node000029"><a xlink:title=" ">
<polygon fill="#e0e0e0" stroke="#999999" points="1970,-79.5 1926,-79.5 1926,-60.5 1970,-60.5 1970,-79.5"/>
<text text-anchor="middle" x="1948" y="-67.5" font-family="Helvetica,sans-Serif" font-size="10.00">limits</text>
</a>
</g>
</g>
<!-- Node28&#45;&gt;Node29 -->
<g id="edge63_Node000028_Node000029" class="edge">
<title>Node28&#45;&gt;Node29</title>
<g id="a_edge63_Node000028_Node000029"><a xlink:title=" ">
<path fill="none" stroke="#63b8ff" d="M1913.77,-120.8C1920.36,-111.21 1929.09,-98.5 1936.09,-88.32"/>
<polygon fill="#63b8ff" stroke="#63b8ff" points="1939.14,-90.07 1941.92,-79.84 1933.37,-86.1 1939.14,-90.07"/>
</a>
</g>
</g>
<!-- Node30&#45;&gt;Node29 -->
<g id="edge65_Node000030_Node000029" class="edge">
<title>Node30&#45;&gt;Node29</title>
<g id="a_edge65_Node000030_Node000029"><a xlink:title=" ">
<path fill="none" stroke="#63b8ff" d="M2032.3,-120.95C2014.11,-110.18 1989.14,-95.38 1971.1,-84.69"/>
<polygon fill="#63b8ff" stroke="#63b8ff" points="1972.76,-81.6 1962.37,-79.52 1969.19,-87.63 1972.76,-81.6"/>
</a>
</g>
</g>
<!-- Node31&#45;&gt;Node8 -->
<g id="edge69_Node000031_Node000008" class="edge">
<title>Node31&#45;&gt;Node8</title>
<g id="a_edge69_Node000031_Node000008"><a xlink:title=" ">
<path fill="none" stroke="#63b8ff" d="M1387.17,-126.44C1326.24,-114.8 1217.39,-94 1151.72,-81.45"/>
<polygon fill="#63b8ff" stroke="#63b8ff" points="1152.05,-77.95 1141.57,-79.51 1150.73,-84.83 1152.05,-77.95"/>
</a>
</g>
</g>
<!-- Node31&#45;&gt;Node10 -->
<g id="edge67_Node000031_Node000010" class="edge">
<title>Node31&#45;&gt;Node10</title>
<g id="a_edge67_Node000031_Node000010"><a xlink:title=" ">
<path fill="none" stroke="#63b8ff" d="M1436.09,-126.34C1443.27,-111.38 1458.93,-79.91 1475,-55 1481.19,-45.4 1488.86,-35.24 1495.35,-27.05"/>
<polygon fill="#63b8ff" stroke="#63b8ff" points="1498.24,-29.04 1501.8,-19.06 1492.79,-24.65 1498.24,-29.04"/>
</a>
</g>
</g>
<!-- Node31&#45;&gt;Node12 -->
<g id="edge68_Node000031_Node000012" class="edge">
<title>Node31&#45;&gt;Node12</title>
<g id="a_edge68_Node000031_Node000012"><a xlink:title=" ">
<path fill="none" stroke="#63b8ff" d="M1429.16,-126.37C1423.06,-109.33 1406.93,-71.6 1379,-55 1338.38,-30.85 1013.29,-16.12 904.4,-11.82"/>
<polygon fill="#63b8ff" stroke="#63b8ff" points="904.39,-8.31 894.26,-11.42 904.11,-15.31 904.39,-8.31"/>
</a>
</g>
</g>
</g>
</svg>
