<?xml version="1.0" encoding="UTF-8" standalone="no"?>
<!DOCTYPE svg PUBLIC "-//W3C//DTD SVG 1.1//EN"
 "http://www.w3.org/Graphics/SVG/1.1/DTD/svg11.dtd">
<!-- Generated by graphviz version 2.43.0 (0)
 -->
<!-- Title: _module.ixx Pages: 1 -->
<svg width="1707pt" height="270pt"
 viewBox="0.00 0.00 1707.00 269.69" xmlns="http://www.w3.org/2000/svg" xmlns:xlink="http://www.w3.org/1999/xlink">
<g id="graph0" class="graph" transform="scale(1 1) rotate(0) translate(4 265.69)">
<title>_module.ixx</title>
<!-- Node1 -->
<g id="Node000001" class="node">
<title>Node1</title>
<g id="a_Node000001"><a xlink:title="Module exports for basic geometric primitive shapes.">
<polygon fill="#999999" stroke="#666666" points="894.5,-261.69 817.5,-261.69 817.5,-242.69 894.5,-242.69 894.5,-261.69"/>
<text text-anchor="middle" x="856" y="-249.69" font-family="Helvetica,sans-Serif" font-size="10.00">_module.ixx</text>
</a>
</g>
</g>
<!-- Node2 -->
<g id="Node000002" class="node">
<title>Node2</title>
<g id="a_Node000002"><a xlink:href="Rhombus_8ixx.html" target="_top" xlink:title="Diamond/rhombus shape primitive for rendering.">
<polygon fill="white" stroke="#666666" points="188,-206.69 0,-206.69 0,-176.69 188,-176.69 188,-206.69"/>
<text text-anchor="start" x="8" y="-194.69" font-family="Helvetica,sans-Serif" font-size="10.00">helios.rendering.asset.shape.basic.</text>
<text text-anchor="middle" x="94" y="-183.69" font-family="Helvetica,sans-Serif" font-size="10.00">Rhombus</text>
</a>
</g>
</g>
<!-- Node1&#45;&gt;Node2 -->
<g id="edge1_Node000001_Node000002" class="edge">
<title>Node1&#45;&gt;Node2</title>
<g id="a_edge1_Node000001_Node000002"><a xlink:title=" ">
<path fill="none" stroke="#63b8ff" d="M817.3,-249.49C716.91,-244.89 439.73,-230.95 198.29,-206.77"/>
<polygon fill="#63b8ff" stroke="#63b8ff" points="198.57,-203.28 188.27,-205.76 197.87,-210.25 198.57,-203.28"/>
</a>
</g>
</g>
<!-- Node9 -->
<g id="Node000009" class="node">
<title>Node9</title>
<g id="a_Node000009"><a xlink:href="Triangle_8ixx.html" target="_top" xlink:title="Basic Triangle (line) shape for rendering.">
<polygon fill="white" stroke="#666666" points="394,-206.69 206,-206.69 206,-176.69 394,-176.69 394,-206.69"/>
<text text-anchor="start" x="214" y="-194.69" font-family="Helvetica,sans-Serif" font-size="10.00">helios.rendering.asset.shape.basic.</text>
<text text-anchor="middle" x="300" y="-183.69" font-family="Helvetica,sans-Serif" font-size="10.00">Triangle</text>
</a>
</g>
</g>
<!-- Node1&#45;&gt;Node9 -->
<g id="edge12_Node000001_Node000009" class="edge">
<title>Node1&#45;&gt;Node9</title>
<g id="a_edge12_Node000001_Node000009"><a xlink:title=" ">
<path fill="none" stroke="#63b8ff" d="M817.47,-247.89C740.85,-241.22 563.71,-225.29 404.01,-206.78"/>
<polygon fill="#63b8ff" stroke="#63b8ff" points="404.34,-203.29 394.01,-205.61 403.53,-210.25 404.34,-203.29"/>
</a>
</g>
</g>
<!-- Node10 -->
<g id="Node000010" class="node">
<title>Node10</title>
<g id="a_Node000010"><a xlink:href="Grid_8ixx.html" target="_top" xlink:title="Basic grid shape for rendering.">
<polygon fill="white" stroke="#666666" points="1286.5,-201.19 1077.5,-201.19 1077.5,-182.19 1286.5,-182.19 1286.5,-201.19"/>
<text text-anchor="middle" x="1182" y="-189.19" font-family="Helvetica,sans-Serif" font-size="10.00">helios.rendering.asset.shape.basic.Grid</text>
</a>
</g>
</g>
<!-- Node1&#45;&gt;Node10 -->
<g id="edge17_Node000001_Node000010" class="edge">
<title>Node1&#45;&gt;Node10</title>
<g id="a_edge17_Node000001_Node000010"><a xlink:title=" ">
<path fill="none" stroke="#63b8ff" d="M894.68,-244.25C951.63,-234.03 1058.43,-214.86 1124.56,-202.99"/>
<polygon fill="#63b8ff" stroke="#63b8ff" points="1125.18,-206.44 1134.41,-201.23 1123.95,-199.55 1125.18,-206.44"/>
</a>
</g>
</g>
<!-- Node12 -->
<g id="Node000012" class="node">
<title>Node12</title>
<g id="a_Node000012"><a xlink:href="Ellipse_8ixx.html" target="_top" xlink:title="Basic ellipse shape for 2D rendering.">
<polygon fill="white" stroke="#666666" points="1493,-206.69 1305,-206.69 1305,-176.69 1493,-176.69 1493,-206.69"/>
<text text-anchor="start" x="1313" y="-194.69" font-family="Helvetica,sans-Serif" font-size="10.00">helios.rendering.asset.shape.basic.</text>
<text text-anchor="middle" x="1399" y="-183.69" font-family="Helvetica,sans-Serif" font-size="10.00">Ellipse</text>
</a>
</g>
</g>
<!-- Node1&#45;&gt;Node12 -->
<g id="edge24_Node000001_Node000012" class="edge">
<title>Node1&#45;&gt;Node12</title>
<g id="a_edge24_Node000001_Node000012"><a xlink:title=" ">
<path fill="none" stroke="#63b8ff" d="M894.6,-247.73C969.57,-240.92 1140.35,-224.94 1294.84,-206.8"/>
<polygon fill="#63b8ff" stroke="#63b8ff" points="1295.47,-210.25 1304.99,-205.6 1294.65,-203.3 1295.47,-210.25"/>
</a>
</g>
</g>
<!-- Node15 -->
<g id="Node000015" class="node">
<title>Node15</title>
<g id="a_Node000015"><a xlink:href="Circle_8ixx.html" target="_top" xlink:title="Basic circle shape for rendering.">
<polygon fill="white" stroke="#666666" points="1699,-206.69 1511,-206.69 1511,-176.69 1699,-176.69 1699,-206.69"/>
<text text-anchor="start" x="1519" y="-194.69" font-family="Helvetica,sans-Serif" font-size="10.00">helios.rendering.asset.shape.basic.</text>
<text text-anchor="middle" x="1605" y="-183.69" font-family="Helvetica,sans-Serif" font-size="10.00">Circle</text>
</a>
</g>
</g>
<!-- Node1&#45;&gt;Node15 -->
<g id="edge32_Node000001_Node000015" class="edge">
<title>Node1&#45;&gt;Node15</title>
<g id="a_edge32_Node000001_Node000015"><a xlink:title=" ">
<path fill="none" stroke="#63b8ff" d="M894.67,-249.42C993.64,-244.7 1264.37,-230.6 1500.57,-206.79"/>
<polygon fill="#63b8ff" stroke="#63b8ff" points="1501.14,-210.25 1510.73,-205.75 1500.43,-203.28 1501.14,-210.25"/>
</a>
</g>
</g>
<!-- Node16 -->
<g id="Node000016" class="node">
<title>Node16</title>
<g id="a_Node000016"><a xlink:href="Cube_8ixx.html" target="_top" xlink:title="Basic cube shape for rendering.">
<polygon fill="white" stroke="#666666" points="625.5,-201.19 412.5,-201.19 412.5,-182.19 625.5,-182.19 625.5,-201.19"/>
<text text-anchor="middle" x="519" y="-189.19" font-family="Helvetica,sans-Serif" font-size="10.00">helios.rendering.asset.shape.basic.Cube</text>
</a>
</g>
</g>
<!-- Node1&#45;&gt;Node16 -->
<g id="edge40_Node000001_Node000016" class="edge">
<title>Node1&#45;&gt;Node16</title>
<g id="a_edge40_Node000001_Node000016"><a xlink:title=" ">
<path fill="none" stroke="#63b8ff" d="M817.34,-244.48C758.8,-234.31 647.2,-214.94 578.33,-202.99"/>
<polygon fill="#63b8ff" stroke="#63b8ff" points="578.52,-199.47 568.07,-201.2 577.32,-206.36 578.52,-199.47"/>
</a>
</g>
</g>
<!-- Node17 -->
<g id="Node000017" class="node">
<title>Node17</title>
<g id="a_Node000017"><a xlink:href="Line_8ixx.html" target="_top" xlink:title="Basic line shape for rendering.">
<polygon fill="white" stroke="#666666" points="852.5,-201.19 643.5,-201.19 643.5,-182.19 852.5,-182.19 852.5,-201.19"/>
<text text-anchor="middle" x="748" y="-189.19" font-family="Helvetica,sans-Serif" font-size="10.00">helios.rendering.asset.shape.basic.Line</text>
</a>
</g>
</g>
<!-- Node1&#45;&gt;Node17 -->
<g id="edge45_Node000001_Node000017" class="edge">
<title>Node1&#45;&gt;Node17</title>
<g id="a_edge45_Node000001_Node000017"><a xlink:title=" ">
<path fill="none" stroke="#63b8ff" d="M840.06,-242.55C822.36,-232.96 793.54,-217.35 772.86,-206.15"/>
<polygon fill="#63b8ff" stroke="#63b8ff" points="774.46,-203.04 764,-201.35 771.13,-209.19 774.46,-203.04"/>
</a>
</g>
</g>
<!-- Node18 -->
<g id="Node000018" class="node">
<title>Node18</title>
<g id="a_Node000018"><a xlink:href="Rectangle_8ixx.html" target="_top" xlink:title="Basic rectangle shape for rendering.">
<polygon fill="white" stroke="#666666" points="1059,-206.69 871,-206.69 871,-176.69 1059,-176.69 1059,-206.69"/>
<text text-anchor="start" x="879" y="-194.69" font-family="Helvetica,sans-Serif" font-size="10.00">helios.rendering.asset.shape.basic.</text>
<text text-anchor="middle" x="965" y="-183.69" font-family="Helvetica,sans-Serif" font-size="10.00">Rectangle</text>
</a>
</g>
</g>
<!-- Node1&#45;&gt;Node18 -->
<g id="edge50_Node000001_Node000018" class="edge">
<title>Node1&#45;&gt;Node18</title>
<g id="a_edge50_Node000001_Node000018"><a xlink:title=" ">
<path fill="none" stroke="#63b8ff" d="M872.08,-242.55C887.22,-234.43 910.39,-222 929.8,-211.58"/>
<polygon fill="#63b8ff" stroke="#63b8ff" points="931.54,-214.61 938.7,-206.8 928.23,-208.45 931.54,-214.61"/>
</a>
</g>
</g>
<!-- Node3 -->
<g id="Node000003" class="node">
<title>Node3</title>
<g id="a_Node000003"><a xlink:title=" ">
<polygon fill="#e0e0e0" stroke="#999999" points="800.5,-74.69 753.5,-74.69 753.5,-55.69 800.5,-55.69 800.5,-74.69"/>
<text text-anchor="middle" x="777" y="-62.69" font-family="Helvetica,sans-Serif" font-size="10.00">vector</text>
</a>
</g>
</g>
<!-- Node2&#45;&gt;Node3 -->
<g id="edge2_Node000002_Node000003" class="edge">
<title>Node2&#45;&gt;Node3</title>
<g id="a_edge2_Node000002_Node000003"><a xlink:title=" ">
<path fill="none" stroke="#63b8ff" d="M118.58,-176.54C155.36,-155.65 223.26,-118.18 250,-110.69 458.76,-52.17 524.76,-108.53 743.14,-74.46"/>
<polygon fill="#63b8ff" stroke="#63b8ff" points="744,-77.87 753.32,-72.83 742.89,-70.96 744,-77.87"/>
</a>
</g>
</g>
<!-- Node4 -->
<g id="Node000004" class="node">
<title>Node4</title>
<g id="a_Node000004"><a xlink:href="PrimitiveType_8ixx.html" target="_top" xlink:title="Enum of primitive types for mesh rendering.">
<polygon fill="white" stroke="#666666" points="1090.5,-74.69 895.5,-74.69 895.5,-55.69 1090.5,-55.69 1090.5,-74.69"/>
<text text-anchor="middle" x="993" y="-62.69" font-family="Helvetica,sans-Serif" font-size="10.00">helios.rendering.mesh.PrimitiveType</text>
</a>
</g>
</g>
<!-- Node2&#45;&gt;Node4 -->
<g id="edge3_Node000002_Node000004" class="edge">
<title>Node2&#45;&gt;Node4</title>
<g id="a_edge3_Node000002_Node000004"><a xlink:title=" ">
<path fill="none" stroke="#63b8ff" d="M151.17,-176.63C226.2,-158.7 362.18,-127.95 480,-110.69 518.89,-104.99 746.41,-86.12 885.06,-74.87"/>
<polygon fill="#63b8ff" stroke="#63b8ff" points="885.62,-78.33 895.3,-74.04 885.05,-71.36 885.62,-78.33"/>
</a>
</g>
</g>
<!-- Node5 -->
<g id="Node000005" class="node">
<title>Node5</title>
<g id="a_Node000005"><a xlink:href="Vertex_8ixx.html" target="_top" xlink:title="Vertex description and utilities for rendering.">
<polygon fill="white" stroke="#666666" points="735,-74.69 605,-74.69 605,-55.69 735,-55.69 735,-74.69"/>
<text text-anchor="middle" x="670" y="-62.69" font-family="Helvetica,sans-Serif" font-size="10.00">helios.rendering.Vertex</text>
</a>
</g>
</g>
<!-- Node2&#45;&gt;Node5 -->
<g id="edge4_Node000002_Node000005" class="edge">
<title>Node2&#45;&gt;Node5</title>
<g id="a_edge4_Node000002_Node000005"><a xlink:title=" ">
<path fill="none" stroke="#63b8ff" d="M105.78,-176.42C122.22,-157.65 153.99,-125.33 189,-110.69 260.26,-80.89 477.98,-70.93 594.51,-67.69"/>
<polygon fill="#63b8ff" stroke="#63b8ff" points="594.88,-71.18 604.78,-67.42 594.69,-64.19 594.88,-71.18"/>
</a>
</g>
</g>
<!-- Node7 -->
<g id="Node000007" class="node">
<title>Node7</title>
<g id="a_Node000007"><a xlink:href="Shape_8ixx.html" target="_top" xlink:title="Interface for simple geometric shapes used for testing and debugging.">
<polygon fill="white" stroke="#666666" points="857,-140.69 697,-140.69 697,-110.69 857,-110.69 857,-140.69"/>
<text text-anchor="start" x="705" y="-128.69" font-family="Helvetica,sans-Serif" font-size="10.00">helios.rendering.asset.shape.</text>
<text text-anchor="middle" x="777" y="-117.69" font-family="Helvetica,sans-Serif" font-size="10.00">Shape</text>
</a>
</g>
</g>
<!-- Node2&#45;&gt;Node7 -->
<g id="edge7_Node000002_Node000007" class="edge">
<title>Node2&#45;&gt;Node7</title>
<g id="a_edge7_Node000002_Node000007"><a xlink:title=" ">
<path fill="none" stroke="#63b8ff" d="M188,-177.72C191.03,-177.36 194.04,-177.02 197,-176.69 369.83,-157.5 572.34,-141.52 686.56,-133.1"/>
<polygon fill="#63b8ff" stroke="#63b8ff" points="686.94,-136.58 696.66,-132.36 686.43,-129.6 686.94,-136.58"/>
</a>
</g>
</g>
<!-- Node6 -->
<g id="Node000006" class="node">
<title>Node6</title>
<g id="a_Node000006"><a xlink:href="helios_2math_2types_2__module_8ixx.html" target="_top" xlink:title="Module exports for vector and matrix type definitions.">
<polygon fill="white" stroke="#666666" points="1321,-19.69 1217,-19.69 1217,-0.69 1321,-0.69 1321,-19.69"/>
<text text-anchor="middle" x="1269" y="-7.69" font-family="Helvetica,sans-Serif" font-size="10.00">helios.math.types</text>
</a>
</g>
</g>
<!-- Node5&#45;&gt;Node6 -->
<g id="edge5_Node000005_Node000006" class="edge">
<title>Node5&#45;&gt;Node6</title>
<g id="a_edge5_Node000005_Node000006"><a xlink:title=" ">
<path fill="none" stroke="#63b8ff" d="M735.36,-56.57C738.28,-56.27 741.17,-55.97 744,-55.69 911.03,-39.02 1108.36,-23.38 1206.73,-15.86"/>
<polygon fill="#63b8ff" stroke="#63b8ff" points="1207.09,-19.34 1216.79,-15.09 1206.55,-12.36 1207.09,-19.34"/>
</a>
</g>
</g>
<!-- Node6&#45;&gt;Node6 -->
<g id="edge6_Node000006_Node000006" class="edge">
<title>Node6&#45;&gt;Node6</title>
<g id="a_edge6_Node000006_Node000006"><a xlink:title=" ">
<path fill="none" stroke="#63b8ff" d="M1301.77,-19.72C1321,-21.75 1339,-18.57 1339,-10.19 1339,-3.31 1326.89,0.07 1311.92,-0.07"/>
<polygon fill="#63b8ff" stroke="#63b8ff" points="1311.55,3.42 1301.77,-0.66 1311.95,-3.57 1311.55,3.42"/>
</a>
</g>
</g>
<!-- Node7&#45;&gt;Node3 -->
<g id="edge9_Node000007_Node000003" class="edge">
<title>Node7&#45;&gt;Node3</title>
<g id="a_edge9_Node000007_Node000003"><a xlink:title=" ">
<path fill="none" stroke="#63b8ff" d="M777,-110.53C777,-102.9 777,-93.39 777,-85.14"/>
<polygon fill="#63b8ff" stroke="#63b8ff" points="780.5,-84.95 777,-74.95 773.5,-84.95 780.5,-84.95"/>
</a>
</g>
</g>
<!-- Node7&#45;&gt;Node4 -->
<g id="edge10_Node000007_Node000004" class="edge">
<title>Node7&#45;&gt;Node4</title>
<g id="a_edge10_Node000007_Node000004"><a xlink:title=" ">
<path fill="none" stroke="#63b8ff" d="M828.74,-110.67C866.34,-100.49 916.56,-86.89 951.53,-77.42"/>
<polygon fill="#63b8ff" stroke="#63b8ff" points="952.68,-80.73 961.42,-74.74 950.85,-73.98 952.68,-80.73"/>
</a>
</g>
</g>
<!-- Node7&#45;&gt;Node5 -->
<g id="edge11_Node000007_Node000005" class="edge">
<title>Node7&#45;&gt;Node5</title>
<g id="a_edge11_Node000007_Node000005"><a xlink:title=" ">
<path fill="none" stroke="#63b8ff" d="M751.37,-110.67C734.16,-101.26 711.6,-88.93 694.6,-79.64"/>
<polygon fill="#63b8ff" stroke="#63b8ff" points="696.25,-76.55 685.8,-74.83 692.9,-82.69 696.25,-76.55"/>
</a>
</g>
</g>
<!-- Node8 -->
<g id="Node000008" class="node">
<title>Node8</title>
<g id="a_Node000008"><a xlink:title=" ">
<polygon fill="#e0e0e0" stroke="#999999" points="877,-74.69 819,-74.69 819,-55.69 877,-55.69 877,-74.69"/>
<text text-anchor="middle" x="848" y="-62.69" font-family="Helvetica,sans-Serif" font-size="10.00">memory</text>
</a>
</g>
</g>
<!-- Node7&#45;&gt;Node8 -->
<g id="edge8_Node000007_Node000008" class="edge">
<title>Node7&#45;&gt;Node8</title>
<g id="a_edge8_Node000007_Node000008"><a xlink:title=" ">
<path fill="none" stroke="#63b8ff" d="M794.19,-110.53C804.81,-101.77 818.44,-90.54 829.33,-81.57"/>
<polygon fill="#63b8ff" stroke="#63b8ff" points="831.87,-84.01 837.36,-74.95 827.42,-78.61 831.87,-84.01"/>
</a>
</g>
</g>
<!-- Node9&#45;&gt;Node3 -->
<g id="edge13_Node000009_Node000003" class="edge">
<title>Node9&#45;&gt;Node3</title>
<g id="a_edge13_Node000009_Node000003"><a xlink:title=" ">
<path fill="none" stroke="#63b8ff" d="M318.76,-176.65C344.58,-158.14 393.21,-126.12 440,-110.69 566.18,-69.08 608.29,-98.27 743.4,-74.5"/>
<polygon fill="#63b8ff" stroke="#63b8ff" points="744.08,-77.94 753.29,-72.7 742.83,-71.05 744.08,-77.94"/>
</a>
</g>
</g>
<!-- Node9&#45;&gt;Node4 -->
<g id="edge14_Node000009_Node000004" class="edge">
<title>Node9&#45;&gt;Node4</title>
<g id="a_edge14_Node000009_Node000004"><a xlink:title=" ">
<path fill="none" stroke="#63b8ff" d="M346.76,-176.65C407.56,-158.87 517.32,-128.43 613,-110.69 704.1,-93.79 808.74,-82.09 885.12,-74.95"/>
<polygon fill="#63b8ff" stroke="#63b8ff" points="885.6,-78.42 895.23,-74.01 884.95,-71.45 885.6,-78.42"/>
</a>
</g>
</g>
<!-- Node9&#45;&gt;Node5 -->
<g id="edge15_Node000009_Node000005" class="edge">
<title>Node9&#45;&gt;Node5</title>
<g id="a_edge15_Node000009_Node000005"><a xlink:title=" ">
<path fill="none" stroke="#63b8ff" d="M304.8,-176.41C311.82,-157.93 326.75,-126.26 351,-110.69 390.14,-85.55 513.16,-74.29 594.48,-69.49"/>
<polygon fill="#63b8ff" stroke="#63b8ff" points="594.9,-72.97 604.68,-68.9 594.5,-65.98 594.9,-72.97"/>
</a>
</g>
</g>
<!-- Node9&#45;&gt;Node7 -->
<g id="edge16_Node000009_Node000007" class="edge">
<title>Node9&#45;&gt;Node7</title>
<g id="a_edge16_Node000009_Node000007"><a xlink:title=" ">
<path fill="none" stroke="#63b8ff" d="M394.02,-177.9C397.05,-177.49 400.05,-177.08 403,-176.69 499.93,-163.62 611,-148.79 686.76,-138.69"/>
<polygon fill="#63b8ff" stroke="#63b8ff" points="687.29,-142.15 696.74,-137.36 686.37,-135.22 687.29,-142.15"/>
</a>
</g>
</g>
<!-- Node10&#45;&gt;Node3 -->
<g id="edge19_Node000010_Node000003" class="edge">
<title>Node10&#45;&gt;Node3</title>
<g id="a_edge19_Node000010_Node000003"><a xlink:title=" ">
<path fill="none" stroke="#63b8ff" d="M1163.99,-182.18C1144.85,-172.87 1113.98,-157.08 1089,-140.69 1071.01,-128.88 1070.75,-119.23 1051,-110.69 954.51,-68.95 918.27,-94.61 810.67,-74.56"/>
<polygon fill="#63b8ff" stroke="#63b8ff" points="811.21,-71.1 800.72,-72.61 809.87,-77.97 811.21,-71.1"/>
</a>
</g>
</g>
<!-- Node10&#45;&gt;Node4 -->
<g id="edge20_Node000010_Node000004" class="edge">
<title>Node10&#45;&gt;Node4</title>
<g id="a_edge20_Node000010_Node000004"><a xlink:title=" ">
<path fill="none" stroke="#63b8ff" d="M1173.67,-182.09C1158.14,-166.4 1123.2,-132.71 1089,-110.69 1069.01,-97.81 1044.69,-86.58 1025.53,-78.62"/>
<polygon fill="#63b8ff" stroke="#63b8ff" points="1026.62,-75.28 1016.04,-74.77 1023.99,-81.77 1026.62,-75.28"/>
</a>
</g>
</g>
<!-- Node10&#45;&gt;Node5 -->
<g id="edge21_Node000010_Node000005" class="edge">
<title>Node10&#45;&gt;Node5</title>
<g id="a_edge21_Node000010_Node000005"><a xlink:title=" ">
<path fill="none" stroke="#63b8ff" d="M1155.08,-182.17C1105.28,-166.62 995.24,-133.13 901,-110.69 843.81,-97.07 777.91,-84.69 731.16,-76.47"/>
<polygon fill="#63b8ff" stroke="#63b8ff" points="731.65,-73 721.2,-74.73 730.44,-79.9 731.65,-73"/>
</a>
</g>
</g>
<!-- Node10&#45;&gt;Node6 -->
<g id="edge22_Node000010_Node000006" class="edge">
<title>Node10&#45;&gt;Node6</title>
<g id="a_edge22_Node000010_Node000006"><a xlink:title=" ">
<path fill="none" stroke="#63b8ff" d="M1177.97,-181.91C1171.62,-166.79 1161.01,-135.08 1171,-110.69 1186.24,-73.48 1222.86,-42.73 1246.76,-25.68"/>
<polygon fill="#63b8ff" stroke="#63b8ff" points="1248.99,-28.39 1255.23,-19.83 1245.01,-22.64 1248.99,-28.39"/>
</a>
</g>
</g>
<!-- Node10&#45;&gt;Node7 -->
<g id="edge23_Node000010_Node000007" class="edge">
<title>Node10&#45;&gt;Node7</title>
<g id="a_edge23_Node000010_Node000007"><a xlink:title=" ">
<path fill="none" stroke="#63b8ff" d="M1127.8,-182.12C1061.14,-171.59 947.01,-153.55 867.09,-140.92"/>
<polygon fill="#63b8ff" stroke="#63b8ff" points="867.45,-137.44 857.03,-139.33 866.36,-144.35 867.45,-137.44"/>
</a>
</g>
</g>
<!-- Node11 -->
<g id="Node000011" class="node">
<title>Node11</title>
<g id="a_Node000011"><a xlink:title=" ">
<polygon fill="#e0e0e0" stroke="#999999" points="1244.5,-135.19 1179.5,-135.19 1179.5,-116.19 1244.5,-116.19 1244.5,-135.19"/>
<text text-anchor="middle" x="1212" y="-123.19" font-family="Helvetica,sans-Serif" font-size="10.00">stdexcept</text>
</a>
</g>
</g>
<!-- Node10&#45;&gt;Node11 -->
<g id="edge18_Node000010_Node000011" class="edge">
<title>Node10&#45;&gt;Node11</title>
<g id="a_edge18_Node000010_Node000011"><a xlink:title=" ">
<path fill="none" stroke="#63b8ff" d="M1186.05,-182.06C1190.49,-172.57 1197.77,-157.05 1203.49,-144.85"/>
<polygon fill="#63b8ff" stroke="#63b8ff" points="1206.75,-146.13 1207.83,-135.59 1200.41,-143.16 1206.75,-146.13"/>
</a>
</g>
</g>
<!-- Node12&#45;&gt;Node3 -->
<g id="edge25_Node000012_Node000003" class="edge">
<title>Node12&#45;&gt;Node3</title>
<g id="a_edge25_Node000012_Node000003"><a xlink:title=" ">
<path fill="none" stroke="#63b8ff" d="M1377.34,-176.66C1362.43,-166.86 1342.27,-153.31 1325,-140.69 1307.63,-127.99 1307.05,-118.5 1287,-110.69 1190.77,-73.16 930.21,-90.93 810.76,-74.36"/>
<polygon fill="#63b8ff" stroke="#63b8ff" points="811.1,-70.87 800.69,-72.82 810.04,-77.79 811.1,-70.87"/>
</a>
</g>
</g>
<!-- Node12&#45;&gt;Node4 -->
<g id="edge28_Node000012_Node000004" class="edge">
<title>Node12&#45;&gt;Node4</title>
<g id="a_edge28_Node000012_Node000004"><a xlink:title=" ">
<path fill="none" stroke="#63b8ff" d="M1390.5,-176.63C1378.45,-158.09 1354.55,-126.03 1325,-110.69 1286.95,-90.94 1182.6,-79.17 1100.94,-72.75"/>
<polygon fill="#63b8ff" stroke="#63b8ff" points="1100.83,-69.23 1090.59,-71.96 1100.3,-76.21 1100.83,-69.23"/>
</a>
</g>
</g>
<!-- Node12&#45;&gt;Node5 -->
<g id="edge30_Node000012_Node000005" class="edge">
<title>Node12&#45;&gt;Node5</title>
<g id="a_edge30_Node000012_Node000005"><a xlink:title=" ">
<path fill="none" stroke="#63b8ff" d="M1359.59,-176.66C1337.38,-167.9 1309.64,-155.48 1287,-140.69 1270.41,-129.84 1272.22,-118.48 1254,-110.69 1152.29,-67.19 872.42,-84.21 745.34,-74.68"/>
<polygon fill="#63b8ff" stroke="#63b8ff" points="745.61,-71.2 735.35,-73.85 745.03,-78.17 745.61,-71.2"/>
</a>
</g>
</g>
<!-- Node12&#45;&gt;Node6 -->
<g id="edge29_Node000012_Node000006" class="edge">
<title>Node12&#45;&gt;Node6</title>
<g id="a_edge29_Node000012_Node000006"><a xlink:title=" ">
<path fill="none" stroke="#63b8ff" d="M1392.83,-176.52C1385.37,-160.05 1371.96,-132.38 1357,-110.69 1335,-78.79 1303.98,-45.91 1285.25,-27.07"/>
<polygon fill="#63b8ff" stroke="#63b8ff" points="1287.6,-24.47 1278.04,-19.9 1282.66,-29.43 1287.6,-24.47"/>
</a>
</g>
</g>
<!-- Node12&#45;&gt;Node7 -->
<g id="edge31_Node000012_Node000007" class="edge">
<title>Node12&#45;&gt;Node7</title>
<g id="a_edge31_Node000012_Node000007"><a xlink:title=" ">
<path fill="none" stroke="#63b8ff" d="M1304.99,-177.76C1301.96,-177.39 1298.96,-177.03 1296,-176.69 1145.89,-159.26 970.85,-143.3 867.23,-134.3"/>
<polygon fill="#63b8ff" stroke="#63b8ff" points="867.39,-130.8 857.12,-133.43 866.78,-137.78 867.39,-130.8"/>
</a>
</g>
</g>
<!-- Node13 -->
<g id="Node000013" class="node">
<title>Node13</title>
<g id="a_Node000013"><a xlink:title=" ">
<polygon fill="#e0e0e0" stroke="#999999" points="1462.5,-135.19 1415.5,-135.19 1415.5,-116.19 1462.5,-116.19 1462.5,-135.19"/>
<text text-anchor="middle" x="1439" y="-123.19" font-family="Helvetica,sans-Serif" font-size="10.00">cmath</text>
</a>
</g>
</g>
<!-- Node12&#45;&gt;Node13 -->
<g id="edge26_Node000012_Node000013" class="edge">
<title>Node12&#45;&gt;Node13</title>
<g id="a_edge26_Node000012_Node000013"><a xlink:title=" ">
<path fill="none" stroke="#63b8ff" d="M1407.88,-176.48C1413.81,-166.99 1421.65,-154.45 1427.98,-144.32"/>
<polygon fill="#63b8ff" stroke="#63b8ff" points="1431.14,-145.87 1433.47,-135.53 1425.2,-142.16 1431.14,-145.87"/>
</a>
</g>
</g>
<!-- Node14 -->
<g id="Node000014" class="node">
<title>Node14</title>
<g id="a_Node000014"><a xlink:title=" ">
<polygon fill="#e0e0e0" stroke="#999999" points="1539.5,-135.19 1480.5,-135.19 1480.5,-116.19 1539.5,-116.19 1539.5,-135.19"/>
<text text-anchor="middle" x="1510" y="-123.19" font-family="Helvetica,sans-Serif" font-size="10.00">numbers</text>
</a>
</g>
</g>
<!-- Node12&#45;&gt;Node14 -->
<g id="edge27_Node000012_Node000014" class="edge">
<title>Node12&#45;&gt;Node14</title>
<g id="a_edge27_Node000012_Node000014"><a xlink:title=" ">
<path fill="none" stroke="#63b8ff" d="M1423.36,-176.64C1442.14,-165.81 1467.95,-150.93 1486.51,-140.23"/>
<polygon fill="#63b8ff" stroke="#63b8ff" points="1488.31,-143.23 1495.23,-135.2 1484.82,-137.17 1488.31,-143.23"/>
</a>
</g>
</g>
<!-- Node15&#45;&gt;Node3 -->
<g id="edge33_Node000015_Node000003" class="edge">
<title>Node15&#45;&gt;Node3</title>
<g id="a_edge33_Node000015_Node000003"><a xlink:title=" ">
<path fill="none" stroke="#63b8ff" d="M1605.51,-176.44C1605.3,-157.99 1601.84,-126.37 1582,-110.69 1516.66,-59.06 931.93,-85.72 810.65,-74.11"/>
<polygon fill="#63b8ff" stroke="#63b8ff" points="811.02,-70.63 800.67,-72.9 810.18,-77.58 811.02,-70.63"/>
</a>
</g>
</g>
<!-- Node15&#45;&gt;Node4 -->
<g id="edge36_Node000015_Node000004" class="edge">
<title>Node15&#45;&gt;Node4</title>
<g id="a_edge36_Node000015_Node000004"><a xlink:title=" ">
<path fill="none" stroke="#63b8ff" d="M1613.96,-176.55C1623.95,-158.82 1636.66,-128.57 1620,-110.69 1585.47,-73.62 1271.09,-66.91 1101.05,-66.02"/>
<polygon fill="#63b8ff" stroke="#63b8ff" points="1100.83,-62.52 1090.81,-65.98 1100.8,-69.52 1100.83,-62.52"/>
</a>
</g>
</g>
<!-- Node15&#45;&gt;Node5 -->
<g id="edge38_Node000015_Node000005" class="edge">
<title>Node15&#45;&gt;Node5</title>
<g id="a_edge38_Node000015_Node000005"><a xlink:title=" ">
<path fill="none" stroke="#63b8ff" d="M1599.81,-176.66C1592,-157.85 1575.3,-125.14 1549,-110.69 1472.9,-68.88 871.32,-80.99 745.69,-74.6"/>
<polygon fill="#63b8ff" stroke="#63b8ff" points="745.55,-71.08 735.35,-73.94 745.1,-78.07 745.55,-71.08"/>
</a>
</g>
</g>
<!-- Node15&#45;&gt;Node6 -->
<g id="edge37_Node000015_Node000006" class="edge">
<title>Node15&#45;&gt;Node6</title>
<g id="a_edge37_Node000015_Node000006"><a xlink:title=" ">
<path fill="none" stroke="#63b8ff" d="M1618.93,-176.53C1633.88,-159.59 1653.53,-130.96 1638,-110.69 1600.87,-62.22 1426.41,-32.01 1331.27,-18.86"/>
<polygon fill="#63b8ff" stroke="#63b8ff" points="1331.58,-15.37 1321.2,-17.49 1330.63,-22.31 1331.58,-15.37"/>
</a>
</g>
</g>
<!-- Node15&#45;&gt;Node7 -->
<g id="edge39_Node000015_Node000007" class="edge">
<title>Node15&#45;&gt;Node7</title>
<g id="a_edge39_Node000015_Node000007"><a xlink:title=" ">
<path fill="none" stroke="#63b8ff" d="M1510.73,-177.62C1507.79,-177.29 1504.87,-176.98 1502,-176.69 1273.94,-153.35 1004.38,-137.95 867.13,-130.98"/>
<polygon fill="#63b8ff" stroke="#63b8ff" points="867.24,-127.48 857.07,-130.47 866.88,-134.47 867.24,-127.48"/>
</a>
</g>
</g>
<!-- Node15&#45;&gt;Node13 -->
<g id="edge34_Node000015_Node000013" class="edge">
<title>Node15&#45;&gt;Node13</title>
<g id="a_edge34_Node000015_Node000013"><a xlink:title=" ">
<path fill="none" stroke="#63b8ff" d="M1566.42,-176.67C1539.79,-166.87 1503.61,-153.33 1472,-140.69 1470.8,-140.21 1469.57,-139.71 1468.34,-139.21"/>
<polygon fill="#63b8ff" stroke="#63b8ff" points="1469.42,-135.86 1458.84,-135.26 1466.73,-142.33 1469.42,-135.86"/>
</a>
</g>
</g>
<!-- Node15&#45;&gt;Node14 -->
<g id="edge35_Node000015_Node000014" class="edge">
<title>Node15&#45;&gt;Node14</title>
<g id="a_edge35_Node000015_Node000014"><a xlink:title=" ">
<path fill="none" stroke="#63b8ff" d="M1583.92,-176.48C1568.29,-165.95 1547.07,-151.66 1531.37,-141.08"/>
<polygon fill="#63b8ff" stroke="#63b8ff" points="1533.1,-138.03 1522.85,-135.34 1529.19,-143.84 1533.1,-138.03"/>
</a>
</g>
</g>
<!-- Node16&#45;&gt;Node3 -->
<g id="edge41_Node000016_Node000003" class="edge">
<title>Node16&#45;&gt;Node3</title>
<g id="a_edge41_Node000016_Node000003"><a xlink:title=" ">
<path fill="none" stroke="#63b8ff" d="M522.87,-182.09C530.82,-165.45 550.66,-128.89 579,-110.69 639.56,-71.78 668.56,-90.36 743.38,-74.63"/>
<polygon fill="#63b8ff" stroke="#63b8ff" points="744.24,-78.03 753.23,-72.42 742.71,-71.2 744.24,-78.03"/>
</a>
</g>
</g>
<!-- Node16&#45;&gt;Node4 -->
<g id="edge42_Node000016_Node000004" class="edge">
<title>Node16&#45;&gt;Node4</title>
<g id="a_edge42_Node000016_Node000004"><a xlink:title=" ">
<path fill="none" stroke="#63b8ff" d="M533.33,-182.09C561.75,-165.45 627.72,-128.91 688,-110.69 727.71,-98.69 831.19,-84.9 906.63,-75.89"/>
<polygon fill="#63b8ff" stroke="#63b8ff" points="907.1,-79.36 916.62,-74.71 906.27,-72.41 907.1,-79.36"/>
</a>
</g>
</g>
<!-- Node16&#45;&gt;Node5 -->
<g id="edge43_Node000016_Node000005" class="edge">
<title>Node16&#45;&gt;Node5</title>
<g id="a_edge43_Node000016_Node000005"><a xlink:title=" ">
<path fill="none" stroke="#63b8ff" d="M518.89,-181.97C519.16,-165.77 522.08,-130.86 541,-110.69 556.32,-94.35 577.92,-84.02 599.06,-77.47"/>
<polygon fill="#63b8ff" stroke="#63b8ff" points="600.06,-80.83 608.72,-74.73 598.14,-74.09 600.06,-80.83"/>
</a>
</g>
</g>
<!-- Node16&#45;&gt;Node7 -->
<g id="edge44_Node000016_Node000007" class="edge">
<title>Node16&#45;&gt;Node7</title>
<g id="a_edge44_Node000016_Node000007"><a xlink:title=" ">
<path fill="none" stroke="#63b8ff" d="M553.53,-182.12C593.56,-172.19 660.47,-155.59 710.66,-143.14"/>
<polygon fill="#63b8ff" stroke="#63b8ff" points="711.6,-146.52 720.46,-140.71 709.91,-139.72 711.6,-146.52"/>
</a>
</g>
</g>
<!-- Node17&#45;&gt;Node3 -->
<g id="edge46_Node000017_Node000003" class="edge">
<title>Node17&#45;&gt;Node3</title>
<g id="a_edge46_Node000017_Node000003"><a xlink:title=" ">
<path fill="none" stroke="#63b8ff" d="M730.95,-182.04C716.51,-173.66 696.8,-159.47 688,-140.69 682.34,-128.61 680.99,-122.03 688,-110.69 694.48,-100.21 721.36,-87.59 743.9,-78.47"/>
<polygon fill="#63b8ff" stroke="#63b8ff" points="745.21,-81.72 753.23,-74.8 742.64,-75.21 745.21,-81.72"/>
</a>
</g>
</g>
<!-- Node17&#45;&gt;Node4 -->
<g id="edge47_Node000017_Node000004" class="edge">
<title>Node17&#45;&gt;Node4</title>
<g id="a_edge47_Node000017_Node000004"><a xlink:title=" ">
<path fill="none" stroke="#63b8ff" d="M770.57,-182.13C794.62,-172.79 833.59,-156.97 866,-140.69 903.87,-121.65 945.97,-96.02 970.92,-80.32"/>
<polygon fill="#63b8ff" stroke="#63b8ff" points="973.03,-83.13 979.6,-74.83 969.28,-77.22 973.03,-83.13"/>
</a>
</g>
</g>
<!-- Node17&#45;&gt;Node5 -->
<g id="edge48_Node000017_Node000005" class="edge">
<title>Node17&#45;&gt;Node5</title>
<g id="a_edge48_Node000017_Node000005"><a xlink:title=" ">
<path fill="none" stroke="#63b8ff" d="M729.07,-182.12C713.2,-173.88 691.36,-159.85 680,-140.69 669.93,-123.7 668.27,-100.78 668.6,-84.86"/>
<polygon fill="#63b8ff" stroke="#63b8ff" points="672.1,-84.86 669.09,-74.7 665.11,-84.51 672.1,-84.86"/>
</a>
</g>
</g>
<!-- Node17&#45;&gt;Node7 -->
<g id="edge49_Node000017_Node000007" class="edge">
<title>Node17&#45;&gt;Node7</title>
<g id="a_edge49_Node000017_Node000007"><a xlink:title=" ">
<path fill="none" stroke="#63b8ff" d="M751.91,-182.06C755.59,-173.93 761.28,-161.38 766.31,-150.28"/>
<polygon fill="#63b8ff" stroke="#63b8ff" points="769.55,-151.6 770.49,-141.05 763.18,-148.71 769.55,-151.6"/>
</a>
</g>
</g>
<!-- Node18&#45;&gt;Node3 -->
<g id="edge51_Node000018_Node000003" class="edge">
<title>Node18&#45;&gt;Node3</title>
<g id="a_edge51_Node000018_Node000003"><a xlink:title=" ">
<path fill="none" stroke="#63b8ff" d="M963.94,-176.4C961.83,-158.51 955.58,-128.09 937,-110.69 934.64,-108.48 856.99,-87.5 810.75,-75.16"/>
<polygon fill="#63b8ff" stroke="#63b8ff" points="811.4,-71.71 800.84,-72.51 809.6,-78.47 811.4,-71.71"/>
</a>
</g>
</g>
<!-- Node18&#45;&gt;Node4 -->
<g id="edge52_Node000018_Node000004" class="edge">
<title>Node18&#45;&gt;Node4</title>
<g id="a_edge52_Node000018_Node000004"><a xlink:title=" ">
<path fill="none" stroke="#63b8ff" d="M968.21,-176.4C973.29,-153.81 983.19,-109.81 988.82,-84.78"/>
<polygon fill="#63b8ff" stroke="#63b8ff" points="992.29,-85.28 991.07,-74.76 985.46,-83.74 992.29,-85.28"/>
</a>
</g>
</g>
<!-- Node18&#45;&gt;Node5 -->
<g id="edge53_Node000018_Node000005" class="edge">
<title>Node18&#45;&gt;Node5</title>
<g id="a_edge53_Node000018_Node000005"><a xlink:title=" ">
<path fill="none" stroke="#63b8ff" d="M951.68,-176.48C933.9,-158.39 900.6,-127.46 866,-110.69 828.24,-92.38 782.71,-81.45 745.04,-75.01"/>
<polygon fill="#63b8ff" stroke="#63b8ff" points="745.57,-71.55 735.14,-73.39 744.44,-78.46 745.57,-71.55"/>
</a>
</g>
</g>
<!-- Node18&#45;&gt;Node7 -->
<g id="edge54_Node000018_Node000007" class="edge">
<title>Node18&#45;&gt;Node7</title>
<g id="a_edge54_Node000018_Node000007"><a xlink:title=" ">
<path fill="none" stroke="#63b8ff" d="M923.74,-176.64C895.46,-167.01 857.75,-154.18 827.65,-143.93"/>
<polygon fill="#63b8ff" stroke="#63b8ff" points="828.76,-140.61 818.16,-140.7 826.5,-147.23 828.76,-140.61"/>
</a>
</g>
</g>
</g>
</svg>
