<?xml version="1.0" encoding="UTF-8" standalone="no"?>
<!DOCTYPE svg PUBLIC "-//W3C//DTD SVG 1.1//EN"
 "http://www.w3.org/Graphics/SVG/1.1/DTD/svg11.dtd">
<!-- Generated by graphviz version 2.43.0 (0)
 -->
<!-- Title: _module.ixx Pages: 1 -->
<svg width="487pt" height="203pt"
 viewBox="0.00 0.00 487.09 203.00" xmlns="http://www.w3.org/2000/svg" xmlns:xlink="http://www.w3.org/1999/xlink">
<g id="graph0" class="graph" transform="scale(1 1) rotate(0) translate(4 199)">
<title>_module.ixx</title>
<!-- Node1 -->
<g id="Node000001" class="node">
<title>Node1</title>
<g id="a_Node000001"><a xlink:title="Aggregate module for helios::core::data namespace.">
<polygon fill="#999999" stroke="#666666" points="330.59,-195 253.59,-195 253.59,-176 330.59,-176 330.59,-195"/>
<text text-anchor="middle" x="292.09" y="-183" font-family="Helvetica,sans-Serif" font-size="10.00">_module.ixx</text>
</a>
</g>
</g>
<!-- Node2 -->
<g id="Node000002" class="node">
<title>Node2</title>
<g id="a_Node000002"><a xlink:href="RuntimeHandle_8ixx.html" target="_top" xlink:title="Lightweight handle pairing a strong identifier with a runtime index.">
<polygon fill="white" stroke="#666666" points="224.59,-140 85.59,-140 85.59,-110 224.59,-110 224.59,-140"/>
<text text-anchor="start" x="93.59" y="-128" font-family="Helvetica,sans-Serif" font-size="10.00">helios.core.data.Runtime</text>
<text text-anchor="middle" x="155.09" y="-117" font-family="Helvetica,sans-Serif" font-size="10.00">Handle</text>
</a>
</g>
</g>
<!-- Node1&#45;&gt;Node2 -->
<g id="edge1_Node000001_Node000002" class="edge">
<title>Node1&#45;&gt;Node2</title>
<g id="a_edge1_Node000001_Node000002"><a xlink:title=" ">
<path fill="none" stroke="#63b8ff" d="M272.17,-175.99C252.62,-167.65 222.21,-154.66 197.28,-144.02"/>
<polygon fill="#63b8ff" stroke="#63b8ff" points="198.6,-140.77 188.02,-140.06 195.85,-147.21 198.6,-140.77"/>
</a>
</g>
</g>
<!-- Node7 -->
<g id="Node000007" class="node">
<title>Node7</title>
<g id="a_Node000007"><a xlink:title=" ">
<polygon fill="#e0e0e0" stroke="#999999" points="361.09,-74 223.09,-74 223.09,-55 361.09,-55 361.09,-74"/>
<text text-anchor="middle" x="292.09" y="-62" font-family="Helvetica,sans-Serif" font-size="10.00">helios.core.data.StrongId</text>
</a>
</g>
</g>
<!-- Node1&#45;&gt;Node7 -->
<g id="edge8_Node000001_Node000007" class="edge">
<title>Node1&#45;&gt;Node7</title>
<g id="a_edge8_Node000001_Node000007"><a xlink:title=" ">
<path fill="none" stroke="#63b8ff" d="M292.09,-175.94C292.09,-156.91 292.09,-110.69 292.09,-84.47"/>
<polygon fill="#63b8ff" stroke="#63b8ff" points="295.59,-84.3 292.09,-74.3 288.59,-84.3 295.59,-84.3"/>
</a>
</g>
</g>
<!-- Node8 -->
<g id="Node000008" class="node">
<title>Node8</title>
<g id="a_Node000008"><a xlink:href="TypeIndexer_8ixx.html" target="_top" xlink:title="Utility for generating unique type indices at runtime.">
<polygon fill="white" stroke="#666666" points="479.09,-134.5 323.09,-134.5 323.09,-115.5 479.09,-115.5 479.09,-134.5"/>
<text text-anchor="middle" x="401.09" y="-122.5" font-family="Helvetica,sans-Serif" font-size="10.00">helios.core.data.TypeIndexer</text>
</a>
</g>
</g>
<!-- Node1&#45;&gt;Node8 -->
<g id="edge9_Node000001_Node000008" class="edge">
<title>Node1&#45;&gt;Node8</title>
<g id="a_edge9_Node000001_Node000008"><a xlink:title=" ">
<path fill="none" stroke="#63b8ff" d="M308.17,-175.87C326.04,-166.28 355.13,-150.67 376,-139.47"/>
<polygon fill="#63b8ff" stroke="#63b8ff" points="377.78,-142.48 384.94,-134.67 374.47,-136.31 377.78,-142.48"/>
</a>
</g>
</g>
<!-- Node3 -->
<g id="Node000003" class="node">
<title>Node3</title>
<g id="a_Node000003"><a xlink:title=" ">
<polygon fill="#e0e0e0" stroke="#999999" points="63.09,-19 13.09,-19 13.09,0 63.09,0 63.09,-19"/>
<text text-anchor="middle" x="38.09" y="-7" font-family="Helvetica,sans-Serif" font-size="10.00">cstdint</text>
</a>
</g>
</g>
<!-- Node2&#45;&gt;Node3 -->
<g id="edge2_Node000002_Node000003" class="edge">
<title>Node2&#45;&gt;Node3</title>
<g id="a_edge2_Node000002_Node000003"><a xlink:title=" ">
<path fill="none" stroke="#63b8ff" d="M85.44,-118.71C55.32,-112.56 22.76,-99.86 4.09,-74 -6.93,-58.75 6.75,-39.49 19.9,-26.2"/>
<polygon fill="#63b8ff" stroke="#63b8ff" points="22.51,-28.55 27.39,-19.14 17.71,-23.45 22.51,-28.55"/>
</a>
</g>
</g>
<!-- Node4 -->
<g id="Node000004" class="node">
<title>Node4</title>
<g id="a_Node000004"><a xlink:title=" ">
<polygon fill="#e0e0e0" stroke="#999999" points="86.59,-74 13.59,-74 13.59,-55 86.59,-55 86.59,-74"/>
<text text-anchor="middle" x="50.09" y="-62" font-family="Helvetica,sans-Serif" font-size="10.00">string_view</text>
</a>
</g>
</g>
<!-- Node2&#45;&gt;Node4 -->
<g id="edge3_Node000002_Node000004" class="edge">
<title>Node2&#45;&gt;Node4</title>
<g id="a_edge3_Node000002_Node000004"><a xlink:title=" ">
<path fill="none" stroke="#63b8ff" d="M129.94,-109.99C113.2,-100.66 91.32,-88.47 74.7,-79.21"/>
<polygon fill="#63b8ff" stroke="#63b8ff" points="76.03,-75.95 65.59,-74.14 72.63,-82.06 76.03,-75.95"/>
</a>
</g>
</g>
<!-- Node5 -->
<g id="Node000005" class="node">
<title>Node5</title>
<g id="a_Node000005"><a xlink:href="types_8ixx.html" target="_top" xlink:title="Core type definitions and tag types for the helios engine.">
<polygon fill="white" stroke="#666666" points="205.09,-74 105.09,-74 105.09,-55 205.09,-55 205.09,-74"/>
<text text-anchor="middle" x="155.09" y="-62" font-family="Helvetica,sans-Serif" font-size="10.00">helios.core.types</text>
</a>
</g>
</g>
<!-- Node2&#45;&gt;Node5 -->
<g id="edge4_Node000002_Node000005" class="edge">
<title>Node2&#45;&gt;Node5</title>
<g id="a_edge4_Node000002_Node000005"><a xlink:title=" ">
<path fill="none" stroke="#63b8ff" d="M155.09,-109.84C155.09,-102.21 155.09,-92.7 155.09,-84.45"/>
<polygon fill="#63b8ff" stroke="#63b8ff" points="158.59,-84.27 155.09,-74.27 151.59,-84.27 158.59,-84.27"/>
</a>
</g>
</g>
<!-- Node2&#45;&gt;Node7 -->
<g id="edge7_Node000002_Node000007" class="edge">
<title>Node2&#45;&gt;Node7</title>
<g id="a_edge7_Node000002_Node000007"><a xlink:title=" ">
<path fill="none" stroke="#63b8ff" d="M187.9,-109.99C210.56,-100.31 240.43,-87.56 262.38,-78.18"/>
<polygon fill="#63b8ff" stroke="#63b8ff" points="264.03,-81.29 271.86,-74.14 261.28,-74.85 264.03,-81.29"/>
</a>
</g>
</g>
<!-- Node5&#45;&gt;Node3 -->
<g id="edge5_Node000005_Node000003" class="edge">
<title>Node5&#45;&gt;Node3</title>
<g id="a_edge5_Node000005_Node000003"><a xlink:title=" ">
<path fill="none" stroke="#63b8ff" d="M136.29,-54.98C117.47,-46.46 88.26,-33.23 66.59,-23.41"/>
<polygon fill="#63b8ff" stroke="#63b8ff" points="67.78,-20.11 57.23,-19.17 64.89,-26.48 67.78,-20.11"/>
</a>
</g>
</g>
<!-- Node6 -->
<g id="Node000006" class="node">
<title>Node6</title>
<g id="a_Node000006"><a xlink:title=" ">
<polygon fill="#e0e0e0" stroke="#999999" points="177.09,-19 133.09,-19 133.09,0 177.09,0 177.09,-19"/>
<text text-anchor="middle" x="155.09" y="-7" font-family="Helvetica,sans-Serif" font-size="10.00">limits</text>
</a>
</g>
</g>
<!-- Node5&#45;&gt;Node6 -->
<g id="edge6_Node000005_Node000006" class="edge">
<title>Node5&#45;&gt;Node6</title>
<g id="a_edge6_Node000005_Node000006"><a xlink:title=" ">
<path fill="none" stroke="#63b8ff" d="M155.09,-54.75C155.09,-47.8 155.09,-37.85 155.09,-29.13"/>
<polygon fill="#63b8ff" stroke="#63b8ff" points="158.59,-29.09 155.09,-19.09 151.59,-29.09 158.59,-29.09"/>
</a>
</g>
</g>
<!-- Node9 -->
<g id="Node000009" class="node">
<title>Node9</title>
<g id="a_Node000009"><a xlink:title=" ">
<polygon fill="#e0e0e0" stroke="#999999" points="429.09,-74 379.09,-74 379.09,-55 429.09,-55 429.09,-74"/>
<text text-anchor="middle" x="404.09" y="-62" font-family="Helvetica,sans-Serif" font-size="10.00">atomic</text>
</a>
</g>
</g>
<!-- Node8&#45;&gt;Node9 -->
<g id="edge10_Node000008_Node000009" class="edge">
<title>Node8&#45;&gt;Node9</title>
<g id="a_edge10_Node000008_Node000009"><a xlink:title=" ">
<path fill="none" stroke="#63b8ff" d="M401.53,-115.37C401.95,-107.25 402.58,-94.81 403.12,-84.39"/>
<polygon fill="#63b8ff" stroke="#63b8ff" points="406.63,-84.33 403.64,-74.17 399.64,-83.97 406.63,-84.33"/>
</a>
</g>
</g>
</g>
</svg>
