<?xml version="1.0" encoding="UTF-8" standalone="no"?>
<!DOCTYPE svg PUBLIC "-//W3C//DTD SVG 1.1//EN"
 "http://www.w3.org/Graphics/SVG/1.1/DTD/svg11.dtd">
<!-- Generated by graphviz version 2.43.0 (0)
 -->
<!-- Title: _module.ixx Pages: 1 -->
<!--zoomable 390 -->

<svg id="main" version="1.1" xmlns="http://www.w3.org/2000/svg" xmlns:xlink="http://www.w3.org/1999/xlink" xml:space="preserve" onload="init(evt)">

<style type="text/css"><![CDATA[
.node, .edge {opacity: 0.7;}
.node.selected, .edge.selected {opacity: 1;}
.edge:hover path { stroke: red; }
.edge:hover polygon { stroke: red; fill: red; }
]]></style>

<defs>
  <circle id="rim" cx="0" cy="0" r="7"/>
  <circle id="rim2" cx="0" cy="0" r="3.5"/>
  <g id="zoomPlus">
    <use xlink:href="#rim" fill="#404040"><set attributeName="fill" to="#808080" begin="zoomplus.mouseover" end="zoomplus.mouseout"/></use>
    <path d="M-4,0h8M0,-4v8" fill="none" stroke="white" stroke-width="1.5" pointer-events="none"/>
  </g>
  <g id="zoomMin">
    <use xlink:href="#rim" fill="#404040"><set attributeName="fill" to="#808080" begin="zoomminus.mouseover" end="zoomminus.mouseout"/></use>
    <path d="M-4,0h8" fill="none" stroke="white" stroke-width="1.5" pointer-events="none"/>
  </g>
  <g id="arrowUp" transform="translate(30 24)">
    <use xlink:href="#rim"/>
    <path pointer-events="none" fill="none" stroke="white" stroke-width="1.5" d="M0,-3.0v7 M-2.5,-0.5L0,-3.0L2.5,-0.5"/>
  </g>
  <g id="arrowRight" transform="rotate(90) translate(36 -43)">
    <use xlink:href="#rim"/>
    <path pointer-events="none" fill="none" stroke="white" stroke-width="1.5" d="M0,-3.0v7 M-2.5,-0.5L0,-3.0L2.5,-0.5"/>
  </g>
  <g id="arrowDown" transform="rotate(180) translate(-30 -48)">
    <use xlink:href="#rim"/>
    <path pointer-events="none" fill="none" stroke="white" stroke-width="1.5" d="M0,-3.0v7 M-2.5,-0.5L0,-3.0L2.5,-0.5"/>
  </g>
  <g id="arrowLeft" transform="rotate(270) translate(-36 17)">
    <use xlink:href="#rim"/>
    <path pointer-events="none" fill="none" stroke="white" stroke-width="1.5" d="M0,-3.0v7 M-2.5,-0.5L0,-3.0L2.5,-0.5"/>
  </g>
  <g id="resetDef">
    <use xlink:href="#rim2" fill="#404040"><set attributeName="fill" to="#808080" begin="reset.mouseover" end="reset.mouseout"/></use>
  </g>
</defs>
<script type="application/ecmascript">
var viewWidth = 1447;
var viewHeight = 390;
var sectionId = 'dynsection-0';
</script>
<script type="application/ecmascript" xlink:href="svg.min.js"/>
<svg id="graph" class="graph">
<g id="viewport">
<title>_module.ixx</title>
<!-- Node1 -->
<g id="Node000001" class="node">
<title>Node1</title>
<g id="a_Node000001"><a xlink:title="Aggregate module for helios::core namespace.">
<polygon fill="#999999" stroke="#666666" points="353,-382 276,-382 276,-363 353,-363 353,-382"/>
<text text-anchor="middle" x="314.5" y="-370" font-family="Helvetica,sans-Serif" font-size="10.00">_module.ixx</text>
</a>
</g>
</g>
<!-- Node2 -->
<g id="Node000002" class="node">
<title>Node2</title>
<g id="a_Node000002"><a xlink:href="algorithms_8ixx.html" target="_top" xlink:title="Core algorithms and hash functions for the helios engine.">
<polygon fill="white" stroke="#666666" points="125,-327 0,-327 0,-308 125,-308 125,-327"/>
<text text-anchor="middle" x="62.5" y="-315" font-family="Helvetica,sans-Serif" font-size="10.00">helios.core.algorithms</text>
</a>
</g>
</g>
<!-- Node1&#45;&gt;Node2 -->
<g id="edge1_Node000001_Node000002" class="edge">
<title>Node1&#45;&gt;Node2</title>
<g id="a_edge1_Node000001_Node000002"><a xlink:title=" ">
<path fill="none" stroke="#63b8ff" d="M275.95,-363.39C232.32,-354.22 161.07,-339.23 113.02,-329.12"/>
<polygon fill="#63b8ff" stroke="#63b8ff" points="113.64,-325.68 103.13,-327.05 112.2,-332.53 113.64,-325.68"/>
</a>
</g>
</g>
<!-- Node5 -->
<g id="Node000005" class="node">
<title>Node5</title>
<g id="a_Node000005"><a xlink:href="types_8ixx.html" target="_top" xlink:title="Core type definitions and tag types for the helios engine.">
<polygon fill="white" stroke="#666666" points="243.5,-327 143.5,-327 143.5,-308 243.5,-308 243.5,-327"/>
<text text-anchor="middle" x="193.5" y="-315" font-family="Helvetica,sans-Serif" font-size="10.00">helios.core.types</text>
</a>
</g>
</g>
<!-- Node1&#45;&gt;Node5 -->
<g id="edge4_Node000001_Node000005" class="edge">
<title>Node1&#45;&gt;Node5</title>
<g id="a_edge4_Node000001_Node000005"><a xlink:title=" ">
<path fill="none" stroke="#63b8ff" d="M295.06,-362.98C275.51,-354.42 245.12,-341.11 222.68,-331.28"/>
<polygon fill="#63b8ff" stroke="#63b8ff" points="223.86,-327.98 213.29,-327.17 221.05,-334.39 223.86,-327.98"/>
</a>
</g>
</g>
<!-- Node6 -->
<g id="Node000006" class="node">
<title>Node6</title>
<g id="a_Node000006"><a xlink:href="helios_2core_2spatial_2__module_8ixx.html" target="_top" xlink:title="Aggregate module for helios::core::spatial namespace.">
<polygon fill="white" stroke="#666666" points="367.5,-327 261.5,-327 261.5,-308 367.5,-308 367.5,-327"/>
<text text-anchor="middle" x="314.5" y="-315" font-family="Helvetica,sans-Serif" font-size="10.00">helios.core.spatial</text>
</a>
</g>
</g>
<!-- Node1&#45;&gt;Node6 -->
<g id="edge5_Node000001_Node000006" class="edge">
<title>Node1&#45;&gt;Node6</title>
<g id="a_edge5_Node000001_Node000006"><a xlink:title=" ">
<path fill="none" stroke="#63b8ff" d="M314.5,-362.75C314.5,-355.8 314.5,-345.85 314.5,-337.13"/>
<polygon fill="#63b8ff" stroke="#63b8ff" points="318,-337.09 314.5,-327.09 311,-337.09 318,-337.09"/>
</a>
</g>
</g>
<!-- Node10 -->
<g id="Node000010" class="node">
<title>Node10</title>
<g id="a_Node000010"><a xlink:href="helios_2core_2data_2__module_8ixx.html" target="_top" xlink:title="Aggregate module for helios::core::data namespace.">
<polygon fill="white" stroke="#666666" points="481,-327 386,-327 386,-308 481,-308 481,-327"/>
<text text-anchor="middle" x="433.5" y="-315" font-family="Helvetica,sans-Serif" font-size="10.00">helios.core.data</text>
</a>
</g>
</g>
<!-- Node1&#45;&gt;Node10 -->
<g id="edge11_Node000001_Node000010" class="edge">
<title>Node1&#45;&gt;Node10</title>
<g id="a_edge11_Node000001_Node000010"><a xlink:title=" ">
<path fill="none" stroke="#63b8ff" d="M333.62,-362.98C352.85,-354.42 382.73,-341.11 404.81,-331.28"/>
<polygon fill="#63b8ff" stroke="#63b8ff" points="406.32,-334.44 414.03,-327.17 403.47,-328.04 406.32,-334.44"/>
</a>
</g>
</g>
<!-- Node13 -->
<g id="Node000013" class="node">
<title>Node13</title>
<g id="a_Node000013"><a xlink:href="helios_2core_2buffer_2__module_8ixx.html" target="_top" xlink:title="Aggregate module for helios::core::buffer namespace.">
<polygon fill="white" stroke="#666666" points="960,-327 859,-327 859,-308 960,-308 960,-327"/>
<text text-anchor="middle" x="909.5" y="-315" font-family="Helvetica,sans-Serif" font-size="10.00">helios.core.buffer</text>
</a>
</g>
</g>
<!-- Node1&#45;&gt;Node13 -->
<g id="edge14_Node000001_Node000013" class="edge">
<title>Node1&#45;&gt;Node13</title>
<g id="a_edge14_Node000001_Node000013"><a xlink:title=" ">
<path fill="none" stroke="#63b8ff" d="M353.08,-368.06C453.92,-359.08 725.99,-334.85 848.38,-323.94"/>
<polygon fill="#63b8ff" stroke="#63b8ff" points="849.04,-327.4 858.69,-323.03 848.42,-320.43 849.04,-327.4"/>
</a>
</g>
</g>
<!-- Node3 -->
<g id="Node000003" class="node">
<title>Node3</title>
<g id="a_Node000003"><a xlink:title=" ">
<polygon fill="#e0e0e0" stroke="#999999" points="55.5,-266.5 5.5,-266.5 5.5,-247.5 55.5,-247.5 55.5,-266.5"/>
<text text-anchor="middle" x="30.5" y="-254.5" font-family="Helvetica,sans-Serif" font-size="10.00">cstdint</text>
</a>
</g>
</g>
<!-- Node2&#45;&gt;Node3 -->
<g id="edge2_Node000002_Node000003" class="edge">
<title>Node2&#45;&gt;Node3</title>
<g id="a_edge2_Node000002_Node000003"><a xlink:title=" ">
<path fill="none" stroke="#63b8ff" d="M57.78,-307.87C53.15,-299.4 45.95,-286.24 40.11,-275.57"/>
<polygon fill="#63b8ff" stroke="#63b8ff" points="43.11,-273.76 35.24,-266.67 36.97,-277.12 43.11,-273.76"/>
</a>
</g>
</g>
<!-- Node4 -->
<g id="Node000004" class="node">
<title>Node4</title>
<g id="a_Node000004"><a xlink:title=" ">
<polygon fill="#e0e0e0" stroke="#999999" points="117.5,-266.5 73.5,-266.5 73.5,-247.5 117.5,-247.5 117.5,-266.5"/>
<text text-anchor="middle" x="95.5" y="-254.5" font-family="Helvetica,sans-Serif" font-size="10.00">string</text>
</a>
</g>
</g>
<!-- Node2&#45;&gt;Node4 -->
<g id="edge3_Node000002_Node000004" class="edge">
<title>Node2&#45;&gt;Node4</title>
<g id="a_edge3_Node000002_Node000004"><a xlink:title=" ">
<path fill="none" stroke="#63b8ff" d="M67.37,-307.87C72.15,-299.4 79.57,-286.24 85.59,-275.57"/>
<polygon fill="#63b8ff" stroke="#63b8ff" points="88.75,-277.1 90.61,-266.67 82.65,-273.66 88.75,-277.1"/>
</a>
</g>
</g>
<!-- Node7 -->
<g id="Node000007" class="node">
<title>Node7</title>
<g id="a_Node000007"><a xlink:href="Transform_8ixx.html" target="_top" xlink:title="Represents a 3D transformation consisting of translation, rotation and scale.">
<polygon fill="white" stroke="#666666" points="335.5,-266.5 177.5,-266.5 177.5,-247.5 335.5,-247.5 335.5,-266.5"/>
<text text-anchor="middle" x="256.5" y="-254.5" font-family="Helvetica,sans-Serif" font-size="10.00">helios.core.spatial.Transform</text>
</a>
</g>
</g>
<!-- Node6&#45;&gt;Node7 -->
<g id="edge6_Node000006_Node000007" class="edge">
<title>Node6&#45;&gt;Node7</title>
<g id="a_edge6_Node000006_Node000007"><a xlink:title=" ">
<path fill="none" stroke="#63b8ff" d="M305.94,-307.87C297.12,-298.97 283.16,-284.89 272.32,-273.95"/>
<polygon fill="#63b8ff" stroke="#63b8ff" points="274.62,-271.3 265.09,-266.67 269.65,-276.23 274.62,-271.3"/>
</a>
</g>
</g>
<!-- Node8 -->
<g id="Node000008" class="node">
<title>Node8</title>
<g id="a_Node000008"><a xlink:href="helios_2math_2transform_2__module_8ixx.html" target="_top" xlink:title="Module exports for transformation utilities.">
<polygon fill="white" stroke="#666666" points="319,-200.5 194,-200.5 194,-181.5 319,-181.5 319,-200.5"/>
<text text-anchor="middle" x="256.5" y="-188.5" font-family="Helvetica,sans-Serif" font-size="10.00">helios.math.transform</text>
</a>
</g>
</g>
<!-- Node7&#45;&gt;Node8 -->
<g id="edge7_Node000007_Node000008" class="edge">
<title>Node7&#45;&gt;Node8</title>
<g id="a_edge7_Node000007_Node000008"><a xlink:title=" ">
<path fill="none" stroke="#63b8ff" d="M256.5,-247.37C256.5,-238.16 256.5,-223.29 256.5,-211.27"/>
<polygon fill="#63b8ff" stroke="#63b8ff" points="260,-210.91 256.5,-200.91 253,-210.91 260,-210.91"/>
</a>
</g>
</g>
<!-- Node9 -->
<g id="Node000009" class="node">
<title>Node9</title>
<g id="a_Node000009"><a xlink:href="helios_2math_2types_2__module_8ixx.html" target="_top" xlink:title="Module exports for vector and matrix type definitions.">
<polygon fill="white" stroke="#666666" points="157.5,-200.5 53.5,-200.5 53.5,-181.5 157.5,-181.5 157.5,-200.5"/>
<text text-anchor="middle" x="105.5" y="-188.5" font-family="Helvetica,sans-Serif" font-size="10.00">helios.math.types</text>
</a>
</g>
</g>
<!-- Node7&#45;&gt;Node9 -->
<g id="edge9_Node000007_Node000009" class="edge">
<title>Node7&#45;&gt;Node9</title>
<g id="a_edge9_Node000007_Node000009"><a xlink:title=" ">
<path fill="none" stroke="#63b8ff" d="M236.14,-247.37C210.24,-236.39 165.33,-217.36 135.51,-204.72"/>
<polygon fill="#63b8ff" stroke="#63b8ff" points="136.6,-201.38 126.02,-200.7 133.87,-207.82 136.6,-201.38"/>
</a>
</g>
</g>
<!-- Node8&#45;&gt;Node8 -->
<g id="edge8_Node000008_Node000008" class="edge">
<title>Node8&#45;&gt;Node8</title>
<g id="a_edge8_Node000008_Node000008"><a xlink:title=" ">
<path fill="none" stroke="#63b8ff" d="M281.64,-200.56C307.75,-206.37 337,-203.18 337,-191 337,-180.34 314.6,-176.57 291.51,-179.68"/>
<polygon fill="#63b8ff" stroke="#63b8ff" points="290.87,-176.24 281.64,-181.44 292.1,-183.13 290.87,-176.24"/>
</a>
</g>
</g>
<!-- Node9&#45;&gt;Node9 -->
<g id="edge10_Node000009_Node000009" class="edge">
<title>Node9&#45;&gt;Node9</title>
<g id="a_edge10_Node000009_Node000009"><a xlink:title=" ">
<path fill="none" stroke="#63b8ff" d="M127.36,-200.56C150.06,-206.37 175.5,-203.18 175.5,-191 175.5,-180.58 156.89,-176.74 137.29,-179.48"/>
<polygon fill="#63b8ff" stroke="#63b8ff" points="136.5,-176.07 127.36,-181.44 137.85,-182.94 136.5,-176.07"/>
</a>
</g>
</g>
<!-- Node11 -->
<g id="Node000011" class="node">
<title>Node11</title>
<g id="a_Node000011"><a xlink:href="TypeIndexer_8ixx.html" target="_top" xlink:title="Utility for generating unique type indices at runtime.">
<polygon fill="white" stroke="#666666" points="511.5,-200.5 355.5,-200.5 355.5,-181.5 511.5,-181.5 511.5,-200.5"/>
<text text-anchor="middle" x="433.5" y="-188.5" font-family="Helvetica,sans-Serif" font-size="10.00">helios.core.data.TypeIndexer</text>
</a>
</g>
</g>
<!-- Node10&#45;&gt;Node11 -->
<g id="edge12_Node000010_Node000011" class="edge">
<title>Node10&#45;&gt;Node11</title>
<g id="a_edge12_Node000010_Node000011"><a xlink:title=" ">
<path fill="none" stroke="#63b8ff" d="M433.5,-307.94C433.5,-288.04 433.5,-238.26 433.5,-210.85"/>
<polygon fill="#63b8ff" stroke="#63b8ff" points="437,-210.62 433.5,-200.62 430,-210.62 437,-210.62"/>
</a>
</g>
</g>
<!-- Node12 -->
<g id="Node000012" class="node">
<title>Node12</title>
<g id="a_Node000012"><a xlink:title=" ">
<polygon fill="#e0e0e0" stroke="#999999" points="458.5,-134.5 408.5,-134.5 408.5,-115.5 458.5,-115.5 458.5,-134.5"/>
<text text-anchor="middle" x="433.5" y="-122.5" font-family="Helvetica,sans-Serif" font-size="10.00">atomic</text>
</a>
</g>
</g>
<!-- Node11&#45;&gt;Node12 -->
<g id="edge13_Node000011_Node000012" class="edge">
<title>Node11&#45;&gt;Node12</title>
<g id="a_edge13_Node000011_Node000012"><a xlink:title=" ">
<path fill="none" stroke="#63b8ff" d="M433.5,-181.37C433.5,-172.16 433.5,-157.29 433.5,-145.27"/>
<polygon fill="#63b8ff" stroke="#63b8ff" points="437,-144.91 433.5,-134.91 430,-144.91 437,-144.91"/>
</a>
</g>
</g>
<!-- Node14 -->
<g id="Node000014" class="node">
<title>Node14</title>
<g id="a_Node000014"><a xlink:href="ReadWriteBuffer_8ixx.html" target="_top" xlink:title="Combined read&#45;write buffer for single&#45;buffered access patterns.">
<polygon fill="white" stroke="#666666" points="881,-206 726,-206 726,-176 881,-176 881,-206"/>
<text text-anchor="start" x="734" y="-194" font-family="Helvetica,sans-Serif" font-size="10.00">helios.core.buffer.ReadWrite</text>
<text text-anchor="middle" x="803.5" y="-183" font-family="Helvetica,sans-Serif" font-size="10.00">Buffer</text>
</a>
</g>
</g>
<!-- Node13&#45;&gt;Node14 -->
<g id="edge15_Node000013_Node000014" class="edge">
<title>Node13&#45;&gt;Node14</title>
<g id="a_edge15_Node000013_Node000014"><a xlink:title=" ">
<path fill="none" stroke="#63b8ff" d="M902.21,-307.94C885.87,-288.74 845.84,-241.73 822.08,-213.82"/>
<polygon fill="#63b8ff" stroke="#63b8ff" points="824.7,-211.51 815.56,-206.16 819.37,-216.04 824.7,-211.51"/>
</a>
</g>
</g>
<!-- Node17 -->
<g id="Node000017" class="node">
<title>Node17</title>
<g id="a_Node000017"><a xlink:href="Buffer_8ixx.html" target="_top" xlink:title="Abstract base class for buffer implementations.">
<polygon fill="white" stroke="#666666" points="777,-134.5 644,-134.5 644,-115.5 777,-115.5 777,-134.5"/>
<text text-anchor="middle" x="710.5" y="-122.5" font-family="Helvetica,sans-Serif" font-size="10.00">helios.core.buffer.Buffer</text>
</a>
</g>
</g>
<!-- Node13&#45;&gt;Node17 -->
<g id="edge55_Node000013_Node000017" class="edge">
<title>Node13&#45;&gt;Node17</title>
<g id="a_edge55_Node000013_Node000017"><a xlink:title=" ">
<path fill="none" stroke="#63b8ff" d="M876.12,-307.94C831.27,-294.5 752.97,-263.8 716.5,-206 704.92,-187.64 705.21,-161.98 707.22,-144.72"/>
<polygon fill="#63b8ff" stroke="#63b8ff" points="710.69,-145.15 708.68,-134.75 703.77,-144.14 710.69,-145.15"/>
</a>
</g>
</g>
<!-- Node19 -->
<g id="Node000019" class="node">
<title>Node19</title>
<g id="a_Node000019"><a xlink:href="TypeIndexedDoubleBuffer_8ixx.html" target="_top" xlink:title="Double&#45;buffered, type&#45;indexed message system for decoupled inter&#45;system communication.">
<polygon fill="white" stroke="#666666" points="1241.5,-272 1077.5,-272 1077.5,-242 1241.5,-242 1241.5,-272"/>
<text text-anchor="start" x="1085.5" y="-260" font-family="Helvetica,sans-Serif" font-size="10.00">helios.core.buffer.TypeIndexed</text>
<text text-anchor="middle" x="1159.5" y="-249" font-family="Helvetica,sans-Serif" font-size="10.00">DoubleBuffer</text>
</a>
</g>
</g>
<!-- Node13&#45;&gt;Node19 -->
<g id="edge22_Node000013_Node000019" class="edge">
<title>Node13&#45;&gt;Node19</title>
<g id="a_edge22_Node000013_Node000019"><a xlink:title=" ">
<path fill="none" stroke="#63b8ff" d="M945.85,-307.99C983.4,-299.21 1042.94,-285.27 1089.64,-274.35"/>
<polygon fill="#63b8ff" stroke="#63b8ff" points="1090.46,-277.75 1099.4,-272.06 1088.86,-270.93 1090.46,-277.75"/>
</a>
</g>
</g>
<!-- Node20 -->
<g id="Node000020" class="node">
<title>Node20</title>
<g id="a_Node000020"><a xlink:href="ReadBuffer_8ixx.html" target="_top" xlink:title="Read&#45;only buffer for the double&#45;buffering pattern.">
<polygon fill="white" stroke="#666666" points="1344.5,-74 1186.5,-74 1186.5,-55 1344.5,-55 1344.5,-74"/>
<text text-anchor="middle" x="1265.5" y="-62" font-family="Helvetica,sans-Serif" font-size="10.00">helios.core.buffer.ReadBuffer</text>
</a>
</g>
</g>
<!-- Node13&#45;&gt;Node20 -->
<g id="edge53_Node000013_Node000020" class="edge">
<title>Node13&#45;&gt;Node20</title>
<g id="a_edge53_Node000013_Node000020"><a xlink:title=" ">
<path fill="none" stroke="#63b8ff" d="M960.31,-314.2C1048.73,-309.59 1226.9,-297.39 1283.5,-272 1364.22,-235.79 1396.19,-220.68 1432.5,-140 1437.97,-127.84 1440.62,-120.57 1432.5,-110 1420.53,-94.43 1377.14,-83.15 1337.58,-75.84"/>
<polygon fill="#63b8ff" stroke="#63b8ff" points="1338.09,-72.37 1327.63,-74.06 1336.86,-79.26 1338.09,-72.37"/>
</a>
</g>
</g>
<!-- Node21 -->
<g id="Node000021" class="node">
<title>Node21</title>
<g id="a_Node000021"><a xlink:href="WriteBuffer_8ixx.html" target="_top" xlink:title="Write&#45;only buffer for the double&#45;buffering pattern.">
<polygon fill="white" stroke="#666666" points="1423.5,-140 1293.5,-140 1293.5,-110 1423.5,-110 1423.5,-140"/>
<text text-anchor="start" x="1301.5" y="-128" font-family="Helvetica,sans-Serif" font-size="10.00">helios.core.buffer.Write</text>
<text text-anchor="middle" x="1358.5" y="-117" font-family="Helvetica,sans-Serif" font-size="10.00">Buffer</text>
</a>
</g>
</g>
<!-- Node13&#45;&gt;Node21 -->
<g id="edge44_Node000013_Node000021" class="edge">
<title>Node13&#45;&gt;Node21</title>
<g id="a_edge44_Node000013_Node000021"><a xlink:title=" ">
<path fill="none" stroke="#63b8ff" d="M960.01,-314.16C1042.3,-309.65 1201.09,-297.81 1250.5,-272 1301.12,-245.56 1334.17,-183.45 1349.18,-149.38"/>
<polygon fill="#63b8ff" stroke="#63b8ff" points="1352.4,-150.74 1353.09,-140.17 1345.96,-148 1352.4,-150.74"/>
</a>
</g>
</g>
<!-- Node22 -->
<g id="Node000022" class="node">
<title>Node22</title>
<g id="a_Node000022"><a xlink:href="ReadWriteDoubleBuffer_8ixx.html" target="_top" xlink:title="Type&#45;safe double&#45;buffered container for producer&#45;consumer patterns.">
<polygon fill="white" stroke="#666666" points="1131,-206 976,-206 976,-176 1131,-176 1131,-206"/>
<text text-anchor="start" x="984" y="-194" font-family="Helvetica,sans-Serif" font-size="10.00">helios.core.buffer.ReadWrite</text>
<text text-anchor="middle" x="1053.5" y="-183" font-family="Helvetica,sans-Serif" font-size="10.00">DoubleBuffer</text>
</a>
</g>
</g>
<!-- Node13&#45;&gt;Node22 -->
<g id="edge52_Node000013_Node000022" class="edge">
<title>Node13&#45;&gt;Node22</title>
<g id="a_edge52_Node000013_Node000022"><a xlink:title=" ">
<path fill="none" stroke="#63b8ff" d="M919.4,-307.94C941.89,-288.49 997.39,-240.51 1029.5,-212.75"/>
<polygon fill="#63b8ff" stroke="#63b8ff" points="1031.85,-215.35 1037.12,-206.16 1027.27,-210.05 1031.85,-215.35"/>
</a>
</g>
</g>
<!-- Node23 -->
<g id="Node000023" class="node">
<title>Node23</title>
<g id="a_Node000023"><a xlink:href="DoubleBuffer_8ixx.html" target="_top" xlink:title="Double&#45;buffered, type&#45;indexed message system for decoupled inter&#45;system communication.">
<polygon fill="white" stroke="#666666" points="1047.5,-140 909.5,-140 909.5,-110 1047.5,-110 1047.5,-140"/>
<text text-anchor="start" x="917.5" y="-128" font-family="Helvetica,sans-Serif" font-size="10.00">helios.core.buffer.Double</text>
<text text-anchor="middle" x="978.5" y="-117" font-family="Helvetica,sans-Serif" font-size="10.00">Buffer</text>
</a>
</g>
</g>
<!-- Node13&#45;&gt;Node23 -->
<g id="edge54_Node000013_Node000023" class="edge">
<title>Node13&#45;&gt;Node23</title>
<g id="a_edge54_Node000013_Node000023"><a xlink:title=" ">
<path fill="none" stroke="#63b8ff" d="M911.96,-307.83C918.35,-285.61 936.29,-224.98 955.5,-176 958.96,-167.18 963.19,-157.69 967.08,-149.37"/>
<polygon fill="#63b8ff" stroke="#63b8ff" points="970.28,-150.79 971.41,-140.25 963.96,-147.78 970.28,-150.79"/>
</a>
</g>
</g>
<!-- Node24 -->
<g id="Node000024" class="node">
<title>Node24</title>
<g id="a_Node000024"><a xlink:href="TypeIndexedReadWriteBuffer_8ixx.html" target="_top" xlink:title="Type&#45;indexed single&#45;buffered message system for immediate&#45;access patterns.">
<polygon fill="white" stroke="#666666" points="669.5,-272 505.5,-272 505.5,-242 669.5,-242 669.5,-272"/>
<text text-anchor="start" x="513.5" y="-260" font-family="Helvetica,sans-Serif" font-size="10.00">helios.core.buffer.TypeIndexed</text>
<text text-anchor="middle" x="587.5" y="-249" font-family="Helvetica,sans-Serif" font-size="10.00">ReadWriteBuffer</text>
</a>
</g>
</g>
<!-- Node13&#45;&gt;Node24 -->
<g id="edge45_Node000013_Node000024" class="edge">
<title>Node13&#45;&gt;Node24</title>
<g id="a_edge45_Node000013_Node000024"><a xlink:title=" ">
<path fill="none" stroke="#63b8ff" d="M862.68,-307.99C813.52,-299.06 735.11,-284.82 674.54,-273.81"/>
<polygon fill="#63b8ff" stroke="#63b8ff" points="675.07,-270.35 664.6,-272.01 673.82,-277.24 675.07,-270.35"/>
</a>
</g>
</g>
<!-- Node15 -->
<g id="Node000015" class="node">
<title>Node15</title>
<g id="a_Node000015"><a xlink:title=" ">
<polygon fill="#e0e0e0" stroke="#999999" points="867.5,-19 827.5,-19 827.5,0 867.5,0 867.5,-19"/>
<text text-anchor="middle" x="847.5" y="-7" font-family="Helvetica,sans-Serif" font-size="10.00">span</text>
</a>
</g>
</g>
<!-- Node14&#45;&gt;Node15 -->
<g id="edge16_Node000014_Node000015" class="edge">
<title>Node14&#45;&gt;Node15</title>
<g id="a_edge16_Node000014_Node000015"><a xlink:title=" ">
<path fill="none" stroke="#63b8ff" d="M806.25,-175.71C811.12,-150.97 821.82,-98.6 833.5,-55 835.81,-46.39 838.71,-36.97 841.28,-29.02"/>
<polygon fill="#63b8ff" stroke="#63b8ff" points="844.68,-29.89 844.48,-19.3 838.03,-27.7 844.68,-29.89"/>
</a>
</g>
</g>
<!-- Node16 -->
<g id="Node000016" class="node">
<title>Node16</title>
<g id="a_Node000016"><a xlink:title=" ">
<polygon fill="#e0e0e0" stroke="#999999" points="1080,-19 1033,-19 1033,0 1080,0 1080,-19"/>
<text text-anchor="middle" x="1056.5" y="-7" font-family="Helvetica,sans-Serif" font-size="10.00">vector</text>
</a>
</g>
</g>
<!-- Node14&#45;&gt;Node16 -->
<g id="edge17_Node000014_Node000016" class="edge">
<title>Node14&#45;&gt;Node16</title>
<g id="a_edge17_Node000014_Node000016"><a xlink:title=" ">
<path fill="none" stroke="#63b8ff" d="M819.49,-175.78C838.33,-159.28 870.84,-131.57 900.5,-110 945.71,-77.13 1001.53,-42.98 1032.65,-24.47"/>
<polygon fill="#63b8ff" stroke="#63b8ff" points="1034.65,-27.35 1041.48,-19.25 1031.09,-21.33 1034.65,-27.35"/>
</a>
</g>
</g>
<!-- Node14&#45;&gt;Node17 -->
<g id="edge18_Node000014_Node000017" class="edge">
<title>Node14&#45;&gt;Node17</title>
<g id="a_edge18_Node000014_Node000017"><a xlink:title=" ">
<path fill="none" stroke="#63b8ff" d="M782.86,-175.8C767.56,-165.27 746.79,-150.97 731.42,-140.4"/>
<polygon fill="#63b8ff" stroke="#63b8ff" points="733.3,-137.44 723.08,-134.66 729.34,-143.21 733.3,-137.44"/>
</a>
</g>
</g>
<!-- Node17&#45;&gt;Node15 -->
<g id="edge20_Node000017_Node000015" class="edge">
<title>Node17&#45;&gt;Node15</title>
<g id="a_edge20_Node000017_Node000015"><a xlink:title=" ">
<path fill="none" stroke="#63b8ff" d="M714.56,-115.31C721.57,-101.1 737.16,-72.7 757.5,-55 775.11,-39.68 798.93,-28.21 817.64,-20.75"/>
<polygon fill="#63b8ff" stroke="#63b8ff" points="819.07,-23.95 827.17,-17.12 816.57,-17.41 819.07,-23.95"/>
</a>
</g>
</g>
<!-- Node17&#45;&gt;Node16 -->
<g id="edge21_Node000017_Node000016" class="edge">
<title>Node17&#45;&gt;Node16</title>
<g id="a_edge21_Node000017_Node000016"><a xlink:title=" ">
<path fill="none" stroke="#63b8ff" d="M734.29,-115.41C771.51,-102.04 845.85,-75.66 909.5,-55 948.29,-42.41 993.21,-28.98 1023.08,-20.2"/>
<polygon fill="#63b8ff" stroke="#63b8ff" points="1024.37,-23.47 1032.99,-17.3 1022.41,-16.75 1024.37,-23.47"/>
</a>
</g>
</g>
<!-- Node18 -->
<g id="Node000018" class="node">
<title>Node18</title>
<g id="a_Node000018"><a xlink:title=" ">
<polygon fill="#e0e0e0" stroke="#999999" points="1085.5,-74 1027.5,-74 1027.5,-55 1085.5,-55 1085.5,-74"/>
<text text-anchor="middle" x="1056.5" y="-62" font-family="Helvetica,sans-Serif" font-size="10.00">memory</text>
</a>
</g>
</g>
<!-- Node17&#45;&gt;Node18 -->
<g id="edge19_Node000017_Node000018" class="edge">
<title>Node17&#45;&gt;Node18</title>
<g id="a_edge19_Node000017_Node000018"><a xlink:title=" ">
<path fill="none" stroke="#63b8ff" d="M760.81,-115.49C830.41,-103.73 954.58,-82.73 1017.56,-72.08"/>
<polygon fill="#63b8ff" stroke="#63b8ff" points="1018.22,-75.52 1027.49,-70.4 1017.05,-68.62 1018.22,-75.52"/>
</a>
</g>
</g>
<!-- Node19&#45;&gt;Node11 -->
<g id="edge43_Node000019_Node000011" class="edge">
<title>Node19&#45;&gt;Node11</title>
<g id="a_edge43_Node000019_Node000011"><a xlink:title=" ">
<path fill="none" stroke="#63b8ff" d="M1077.28,-248.75C939.65,-236.62 663.81,-212.3 522.06,-199.81"/>
<polygon fill="#63b8ff" stroke="#63b8ff" points="521.95,-196.28 511.68,-198.89 521.33,-203.26 521.95,-196.28"/>
</a>
</g>
</g>
<!-- Node19&#45;&gt;Node15 -->
<g id="edge24_Node000019_Node000015" class="edge">
<title>Node19&#45;&gt;Node15</title>
<g id="a_edge24_Node000019_Node000015"><a xlink:title=" ">
<path fill="none" stroke="#63b8ff" d="M1161.55,-241.87C1163.43,-225.68 1165.16,-198.49 1159.5,-176 1144.61,-116.8 1143.9,-90.87 1094.5,-55 1060.23,-30.12 935.57,-17.36 877.57,-12.67"/>
<polygon fill="#63b8ff" stroke="#63b8ff" points="877.79,-9.17 867.55,-11.88 877.25,-16.15 877.79,-9.17"/>
</a>
</g>
</g>
<!-- Node19&#45;&gt;Node16 -->
<g id="edge25_Node000019_Node000016" class="edge">
<title>Node19&#45;&gt;Node16</title>
<g id="a_edge25_Node000019_Node000016"><a xlink:title=" ">
<path fill="none" stroke="#63b8ff" d="M1241.75,-246.24C1335.1,-231.02 1469.91,-194.1 1432.5,-110 1417.66,-76.65 1404.57,-70.45 1371.5,-55 1322,-31.88 1160.87,-17.92 1090.22,-12.77"/>
<polygon fill="#63b8ff" stroke="#63b8ff" points="1090.3,-9.26 1080.08,-12.04 1089.81,-16.25 1090.3,-9.26"/>
</a>
</g>
</g>
<!-- Node19&#45;&gt;Node18 -->
<g id="edge23_Node000019_Node000018" class="edge">
<title>Node19&#45;&gt;Node18</title>
<g id="a_edge23_Node000019_Node000018"><a xlink:title=" ">
<path fill="none" stroke="#63b8ff" d="M1157.7,-241.84C1155.23,-225.38 1149.84,-197.71 1139.5,-176 1121.81,-138.88 1090.61,-101.93 1071.91,-81.57"/>
<polygon fill="#63b8ff" stroke="#63b8ff" points="1074.35,-79.05 1064.96,-74.14 1069.24,-83.83 1074.35,-79.05"/>
</a>
</g>
</g>
<!-- Node19&#45;&gt;Node20 -->
<g id="edge26_Node000019_Node000020" class="edge">
<title>Node19&#45;&gt;Node20</title>
<g id="a_edge26_Node000019_Node000020"><a xlink:title=" ">
<path fill="none" stroke="#63b8ff" d="M1177.85,-241.87C1188.82,-232.64 1202.36,-219.77 1211.5,-206 1237.79,-166.39 1253.99,-112.12 1261.16,-84.03"/>
<polygon fill="#63b8ff" stroke="#63b8ff" points="1264.63,-84.56 1263.61,-74.02 1257.83,-82.9 1264.63,-84.56"/>
</a>
</g>
</g>
<!-- Node19&#45;&gt;Node21 -->
<g id="edge29_Node000019_Node000021" class="edge">
<title>Node19&#45;&gt;Node21</title>
<g id="a_edge29_Node000019_Node000021"><a xlink:title=" ">
<path fill="none" stroke="#63b8ff" d="M1204.66,-242C1228.11,-233.57 1256.58,-221.46 1279.5,-206 1303.42,-189.87 1326.06,-165.7 1340.92,-148.14"/>
<polygon fill="#63b8ff" stroke="#63b8ff" points="1343.87,-150.06 1347.56,-140.12 1338.48,-145.59 1343.87,-150.06"/>
</a>
</g>
</g>
<!-- Node19&#45;&gt;Node22 -->
<g id="edge32_Node000019_Node000022" class="edge">
<title>Node19&#45;&gt;Node22</title>
<g id="a_edge32_Node000019_Node000022"><a xlink:title=" ">
<path fill="none" stroke="#63b8ff" d="M1136.24,-241.95C1121.33,-232.95 1101.77,-221.14 1085.41,-211.27"/>
<polygon fill="#63b8ff" stroke="#63b8ff" points="1087.08,-208.18 1076.71,-206.01 1083.46,-214.18 1087.08,-208.18"/>
</a>
</g>
</g>
<!-- Node19&#45;&gt;Node23 -->
<g id="edge42_Node000019_Node000023" class="edge">
<title>Node19&#45;&gt;Node23</title>
<g id="a_edge42_Node000019_Node000023"><a xlink:title=" ">
<path fill="none" stroke="#63b8ff" d="M1077.36,-244.89C1031.36,-236.79 980.48,-224.07 966.5,-206 954.14,-190.03 959.45,-166.76 966.48,-149.43"/>
<polygon fill="#63b8ff" stroke="#63b8ff" points="969.8,-150.57 970.7,-140.02 963.42,-147.71 969.8,-150.57"/>
</a>
</g>
</g>
<!-- Node20&#45;&gt;Node15 -->
<g id="edge27_Node000020_Node000015" class="edge">
<title>Node20&#45;&gt;Node15</title>
<g id="a_edge27_Node000020_Node000015"><a xlink:title=" ">
<path fill="none" stroke="#63b8ff" d="M1198.34,-54.98C1106.31,-43.32 944.79,-22.84 877.87,-14.35"/>
<polygon fill="#63b8ff" stroke="#63b8ff" points="877.96,-10.83 867.6,-13.05 877.08,-17.78 877.96,-10.83"/>
</a>
</g>
</g>
<!-- Node20&#45;&gt;Node16 -->
<g id="edge28_Node000020_Node000016" class="edge">
<title>Node20&#45;&gt;Node16</title>
<g id="a_edge28_Node000020_Node000016"><a xlink:title=" ">
<path fill="none" stroke="#63b8ff" d="M1231.92,-54.98C1192.94,-45.1 1129.03,-28.89 1090.06,-19.01"/>
<polygon fill="#63b8ff" stroke="#63b8ff" points="1090.8,-15.59 1080.25,-16.52 1089.08,-22.37 1090.8,-15.59"/>
</a>
</g>
</g>
<!-- Node21&#45;&gt;Node16 -->
<g id="edge30_Node000021_Node000016" class="edge">
<title>Node21&#45;&gt;Node16</title>
<g id="a_edge30_Node000021_Node000016"><a xlink:title=" ">
<path fill="none" stroke="#63b8ff" d="M1362.1,-109.84C1365.13,-94.3 1367.05,-69.63 1353.5,-55 1318.45,-17.16 1160.19,-11.23 1090.09,-10.49"/>
<polygon fill="#63b8ff" stroke="#63b8ff" points="1090.05,-6.99 1080.02,-10.41 1090,-13.99 1090.05,-6.99"/>
</a>
</g>
</g>
<!-- Node21&#45;&gt;Node20 -->
<g id="edge31_Node000021_Node000020" class="edge">
<title>Node21&#45;&gt;Node20</title>
<g id="a_edge31_Node000021_Node000020"><a xlink:title=" ">
<path fill="none" stroke="#63b8ff" d="M1335.99,-109.84C1321.44,-100.68 1302.57,-88.82 1288.01,-79.66"/>
<polygon fill="#63b8ff" stroke="#63b8ff" points="1289.49,-76.46 1279.16,-74.09 1285.76,-82.38 1289.49,-76.46"/>
</a>
</g>
</g>
<!-- Node22&#45;&gt;Node15 -->
<g id="edge34_Node000022_Node000015" class="edge">
<title>Node22&#45;&gt;Node15</title>
<g id="a_edge34_Node000022_Node000015"><a xlink:title=" ">
<path fill="none" stroke="#63b8ff" d="M975.89,-178.34C949.34,-171.06 921.17,-159.22 900.5,-140 868.13,-109.9 855,-57.18 850.11,-29.19"/>
<polygon fill="#63b8ff" stroke="#63b8ff" points="853.55,-28.49 848.53,-19.15 846.63,-29.58 853.55,-28.49"/>
</a>
</g>
</g>
<!-- Node22&#45;&gt;Node16 -->
<g id="edge35_Node000022_Node000016" class="edge">
<title>Node22&#45;&gt;Node16</title>
<g id="a_edge35_Node000022_Node000016"><a xlink:title=" ">
<path fill="none" stroke="#63b8ff" d="M1064.01,-175.63C1080.85,-150.76 1110.44,-98.2 1094.5,-55 1090.44,-43.99 1082.31,-33.86 1074.6,-26.05"/>
<polygon fill="#63b8ff" stroke="#63b8ff" points="1076.89,-23.39 1067.21,-19.07 1072.08,-28.48 1076.89,-23.39"/>
</a>
</g>
</g>
<!-- Node22&#45;&gt;Node18 -->
<g id="edge33_Node000022_Node000018" class="edge">
<title>Node22&#45;&gt;Node18</title>
<g id="a_edge33_Node000022_Node000018"><a xlink:title=" ">
<path fill="none" stroke="#63b8ff" d="M1054.6,-175.57C1055.3,-165.59 1056.14,-152 1056.5,-140 1057.07,-121.04 1056.99,-99.36 1056.81,-84.3"/>
<polygon fill="#63b8ff" stroke="#63b8ff" points="1060.31,-84.17 1056.67,-74.22 1053.31,-84.27 1060.31,-84.17"/>
</a>
</g>
</g>
<!-- Node22&#45;&gt;Node20 -->
<g id="edge37_Node000022_Node000020" class="edge">
<title>Node22&#45;&gt;Node20</title>
<g id="a_edge37_Node000022_Node000020"><a xlink:title=" ">
<path fill="none" stroke="#63b8ff" d="M1077.41,-175.96C1118.4,-151.89 1201.58,-103.04 1242.17,-79.2"/>
<polygon fill="#63b8ff" stroke="#63b8ff" points="1243.99,-82.19 1250.84,-74.11 1240.44,-76.16 1243.99,-82.19"/>
</a>
</g>
</g>
<!-- Node22&#45;&gt;Node21 -->
<g id="edge36_Node000022_Node000021" class="edge">
<title>Node22&#45;&gt;Node21</title>
<g id="a_edge36_Node000022_Node000021"><a xlink:title=" ">
<path fill="none" stroke="#63b8ff" d="M1120.43,-175.95C1168.5,-165.87 1233.34,-152.26 1283.21,-141.8"/>
<polygon fill="#63b8ff" stroke="#63b8ff" points="1284.23,-145.16 1293.29,-139.68 1282.79,-138.31 1284.23,-145.16"/>
</a>
</g>
</g>
<!-- Node22&#45;&gt;Node23 -->
<g id="edge38_Node000022_Node000023" class="edge">
<title>Node22&#45;&gt;Node23</title>
<g id="a_edge38_Node000022_Node000023"><a xlink:title=" ">
<path fill="none" stroke="#63b8ff" d="M1036.86,-175.8C1026.85,-167.26 1013.95,-156.25 1002.82,-146.75"/>
<polygon fill="#63b8ff" stroke="#63b8ff" points="1004.98,-143.99 995.1,-140.16 1000.43,-149.32 1004.98,-143.99"/>
</a>
</g>
</g>
<!-- Node23&#45;&gt;Node15 -->
<g id="edge40_Node000023_Node000015" class="edge">
<title>Node23&#45;&gt;Node15</title>
<g id="a_edge40_Node000023_Node000015"><a xlink:title=" ">
<path fill="none" stroke="#63b8ff" d="M962.17,-109.85C937.52,-88.5 890.98,-48.17 865.42,-26.03"/>
<polygon fill="#63b8ff" stroke="#63b8ff" points="867.47,-23.17 857.62,-19.27 862.89,-28.46 867.47,-23.17"/>
</a>
</g>
</g>
<!-- Node23&#45;&gt;Node16 -->
<g id="edge41_Node000023_Node000016" class="edge">
<title>Node23&#45;&gt;Node16</title>
<g id="a_edge41_Node000023_Node000016"><a xlink:title=" ">
<path fill="none" stroke="#63b8ff" d="M985.76,-109.8C993.27,-95.51 1005.7,-73.08 1018.5,-55 1025.46,-45.17 1034.11,-34.91 1041.41,-26.72"/>
<polygon fill="#63b8ff" stroke="#63b8ff" points="1044,-29.07 1048.14,-19.31 1038.82,-24.36 1044,-29.07"/>
</a>
</g>
</g>
<!-- Node23&#45;&gt;Node18 -->
<g id="edge39_Node000023_Node000018" class="edge">
<title>Node23&#45;&gt;Node18</title>
<g id="a_edge39_Node000023_Node000018"><a xlink:title=" ">
<path fill="none" stroke="#63b8ff" d="M997.38,-109.84C1009.28,-100.91 1024.62,-89.41 1036.7,-80.35"/>
<polygon fill="#63b8ff" stroke="#63b8ff" points="1038.91,-83.07 1044.81,-74.27 1034.71,-77.47 1038.91,-83.07"/>
</a>
</g>
</g>
<!-- Node24&#45;&gt;Node11 -->
<g id="edge51_Node000024_Node000011" class="edge">
<title>Node24&#45;&gt;Node11</title>
<g id="a_edge51_Node000024_Node000011"><a xlink:title=" ">
<path fill="none" stroke="#63b8ff" d="M553.7,-241.95C526.7,-230.73 489.2,-215.15 463.31,-204.39"/>
<polygon fill="#63b8ff" stroke="#63b8ff" points="464.57,-201.12 453.99,-200.52 461.89,-207.59 464.57,-201.12"/>
</a>
</g>
</g>
<!-- Node24&#45;&gt;Node14 -->
<g id="edge49_Node000024_Node000014" class="edge">
<title>Node24&#45;&gt;Node14</title>
<g id="a_edge49_Node000024_Node000014"><a xlink:title=" ">
<path fill="none" stroke="#63b8ff" d="M634.9,-241.95C667.68,-232.24 711.47,-219.27 746.21,-208.98"/>
<polygon fill="#63b8ff" stroke="#63b8ff" points="747.61,-212.21 756.21,-206.01 745.63,-205.5 747.61,-212.21"/>
</a>
</g>
</g>
<!-- Node24&#45;&gt;Node15 -->
<g id="edge47_Node000024_Node000015" class="edge">
<title>Node24&#45;&gt;Node15</title>
<g id="a_edge47_Node000024_Node000015"><a xlink:title=" ">
<path fill="none" stroke="#63b8ff" d="M578.89,-241.61C563.32,-213.53 534.67,-150.65 563.5,-110 622.52,-26.79 756.75,-12.63 817.1,-10.59"/>
<polygon fill="#63b8ff" stroke="#63b8ff" points="817.23,-14.09 827.15,-10.35 817.06,-7.09 817.23,-14.09"/>
</a>
</g>
</g>
<!-- Node24&#45;&gt;Node16 -->
<g id="edge48_Node000024_Node000016" class="edge">
<title>Node24&#45;&gt;Node16</title>
<g id="a_edge48_Node000024_Node000016"><a xlink:title=" ">
<path fill="none" stroke="#63b8ff" d="M585.14,-241.87C581.14,-212.54 576.69,-144.9 613.5,-110 673.19,-53.4 929.99,-22.96 1022.84,-13.64"/>
<polygon fill="#63b8ff" stroke="#63b8ff" points="1023.22,-17.12 1032.82,-12.65 1022.53,-10.15 1023.22,-17.12"/>
</a>
</g>
</g>
<!-- Node24&#45;&gt;Node17 -->
<g id="edge50_Node000024_Node000017" class="edge">
<title>Node24&#45;&gt;Node17</title>
<g id="a_edge50_Node000024_Node000017"><a xlink:title=" ">
<path fill="none" stroke="#63b8ff" d="M600.9,-241.84C623.93,-217.49 670.9,-167.85 695.19,-142.18"/>
<polygon fill="#63b8ff" stroke="#63b8ff" points="697.89,-144.42 702.22,-134.75 692.81,-139.61 697.89,-144.42"/>
</a>
</g>
</g>
<!-- Node24&#45;&gt;Node18 -->
<g id="edge46_Node000024_Node000018" class="edge">
<title>Node24&#45;&gt;Node18</title>
<g id="a_edge46_Node000024_Node000018"><a xlink:title=" ">
<path fill="none" stroke="#63b8ff" d="M590.11,-241.52C596.43,-208.06 613.62,-126.96 634.5,-110 663.88,-86.14 918.05,-71.91 1017.16,-67.23"/>
<polygon fill="#63b8ff" stroke="#63b8ff" points="1017.53,-70.71 1027.36,-66.75 1017.21,-63.72 1017.53,-70.71"/>
</a>
</g>
</g>
</g>
</svg>

<g id="navigator" transform="translate(0 0)" fill="#404254">
  <rect fill="#f2f5e9" fill-opacity="0.5" stroke="#606060" stroke-width=".5" x="0" y="0" width="60" height="60"/>
  <use id="zoomplus" xlink:href="#zoomPlus" x="17" y="9" onmousedown="handleZoom(evt,'in')"/>
  <use id="zoomminus" xlink:href="#zoomMin" x="42" y="9" onmousedown="handleZoom(evt,'out')"/>
  <use id="reset" xlink:href="#resetDef" x="30" y="36" onmousedown="handleReset()"/>
   <use id="arrowup" xlink:href="#arrowUp" x="0" y="0" onmousedown="handlePan(0,-1)"/>
  <use id="arrowright" xlink:href="#arrowRight" x="0" y="0" onmousedown="handlePan(1,0)"/>
  <use id="arrowdown" xlink:href="#arrowDown" x="0" y="0" onmousedown="handlePan(0,1)"/>
  <use id="arrowleft" xlink:href="#arrowLeft" x="0" y="0" onmousedown="handlePan(-1,0)"/>
</g>
<svg viewBox="0 0 15 15" width="100%" height="30px" preserveAspectRatio="xMaxYMin meet">
 <g id="arrow_out" transform="scale(0.3 0.3)">
  <a xlink:href="helios_2core_2__module_8ixx__incl_org.svg" target="_base">
   <rect id="button" ry="5" rx="5" y="6" x="6" height="38" width="38"
        fill="#f2f5e9" fill-opacity="0.5" stroke="#606060" stroke-width="1.0"/>
   <path id="arrow"
     d="M 11.500037,31.436501 C 11.940474,20.09759 22.043105,11.32322 32.158766,21.979434 L 37.068811,17.246167 C 37.068811,17.246167 37.088388,32 37.088388,32 L 22.160133,31.978069 C 22.160133,31.978069 26.997745,27.140456 26.997745,27.140456 C 18.528582,18.264221 13.291696,25.230495 11.500037,31.436501 z"
     style="fill:#404040;"/>
  </a>
 </g>
</svg>

<style type='text/css'>
<![CDATA[
[data-mouse-over-selected='false'] { opacity: 0.7; }
[data-mouse-over-selected='true']  { opacity: 1.0; }
]]>
</style>
<script type="application/ecmascript"><![CDATA[
document.addEventListener('DOMContentLoaded', (event) => {
  highlightEdges();
  highlightAdjacentNodes();
});
]]></script>
</svg>
