<?xml version="1.0" encoding="UTF-8" standalone="no"?>
<!DOCTYPE svg PUBLIC "-//W3C//DTD SVG 1.1//EN"
 "http://www.w3.org/Graphics/SVG/1.1/DTD/svg11.dtd">
<!-- Generated by graphviz version 2.43.0 (0)
 -->
<!-- Title: _module.ixx Pages: 1 -->
<svg width="434pt" height="214pt"
 viewBox="0.00 0.00 433.50 214.00" xmlns="http://www.w3.org/2000/svg" xmlns:xlink="http://www.w3.org/1999/xlink">
<g id="graph0" class="graph" transform="scale(1 1) rotate(0) translate(4 210)">
<title>_module.ixx</title>
<!-- Node1 -->
<g id="Node000001" class="node">
<title>Node1</title>
<g id="a_Node000001"><a xlink:title="Game state types submodule.">
<polygon fill="#999999" stroke="#666666" points="280,-206 203,-206 203,-187 280,-187 280,-206"/>
<text text-anchor="middle" x="241.5" y="-194" font-family="Helvetica,sans-Serif" font-size="10.00">_module.ixx</text>
</a>
</g>
</g>
<!-- Node2 -->
<g id="Node000002" class="node">
<title>Node2</title>
<g id="a_Node000002"><a xlink:href="GameStateTransitionId_8ixx.html" target="_top" xlink:title="Identifiers for game state transitions.">
<polygon fill="white" stroke="#666666" points="284.5,-151 58.5,-151 58.5,-121 284.5,-121 284.5,-151"/>
<text text-anchor="start" x="66.5" y="-139" font-family="Helvetica,sans-Serif" font-size="10.00">helios.engine.mechanics.gamestate.types.</text>
<text text-anchor="middle" x="171.5" y="-128" font-family="Helvetica,sans-Serif" font-size="10.00">GameStateTransitionId</text>
</a>
</g>
</g>
<!-- Node1&#45;&gt;Node2 -->
<g id="edge1_Node000001_Node000002" class="edge">
<title>Node1&#45;&gt;Node2</title>
<g id="a_edge1_Node000001_Node000002"><a xlink:title=" ">
<path fill="none" stroke="#63b8ff" d="M231.17,-186.87C222.02,-179.22 208.31,-167.76 196.33,-157.75"/>
<polygon fill="#63b8ff" stroke="#63b8ff" points="198.31,-154.84 188.39,-151.11 193.82,-160.21 198.31,-154.84"/>
</a>
</g>
</g>
<!-- Node6 -->
<g id="Node000006" class="node">
<title>Node6</title>
<g id="a_Node000006"><a xlink:href="GameState_8ixx.html" target="_top" xlink:title="Game state enumeration and bitmask operations.">
<polygon fill="white" stroke="#666666" points="425.5,-85 199.5,-85 199.5,-55 425.5,-55 425.5,-85"/>
<text text-anchor="start" x="207.5" y="-73" font-family="Helvetica,sans-Serif" font-size="10.00">helios.engine.mechanics.gamestate.types.</text>
<text text-anchor="middle" x="312.5" y="-62" font-family="Helvetica,sans-Serif" font-size="10.00">GameState</text>
</a>
</g>
</g>
<!-- Node1&#45;&gt;Node6 -->
<g id="edge8_Node000001_Node000006" class="edge">
<title>Node1&#45;&gt;Node6</title>
<g id="a_edge8_Node000001_Node000006"><a xlink:title=" ">
<path fill="none" stroke="#63b8ff" d="M256.09,-186.75C267.96,-178.88 284.21,-166.21 293.5,-151 303.87,-134.01 308.58,-111.79 310.72,-95.08"/>
<polygon fill="#63b8ff" stroke="#63b8ff" points="314.22,-95.32 311.79,-85.01 307.25,-94.58 314.22,-95.32"/>
</a>
</g>
</g>
<!-- Node3 -->
<g id="Node000003" class="node">
<title>Node3</title>
<g id="a_Node000003"><a xlink:title=" ">
<polygon fill="#e0e0e0" stroke="#999999" points="196.5,-19 146.5,-19 146.5,0 196.5,0 196.5,-19"/>
<text text-anchor="middle" x="171.5" y="-7" font-family="Helvetica,sans-Serif" font-size="10.00">cstdint</text>
</a>
</g>
</g>
<!-- Node2&#45;&gt;Node3 -->
<g id="edge2_Node000002_Node000003" class="edge">
<title>Node2&#45;&gt;Node3</title>
<g id="a_edge2_Node000002_Node000003"><a xlink:title=" ">
<path fill="none" stroke="#63b8ff" d="M171.5,-120.72C171.5,-98.12 171.5,-54.12 171.5,-29.09"/>
<polygon fill="#63b8ff" stroke="#63b8ff" points="175,-29.07 171.5,-19.07 168,-29.07 175,-29.07"/>
</a>
</g>
</g>
<!-- Node4 -->
<g id="Node000004" class="node">
<title>Node4</title>
<g id="a_Node000004"><a xlink:href="StateTransitionId_8ixx.html" target="_top" xlink:title="Type trait for mapping state types to transition ID types.">
<polygon fill="white" stroke="#666666" points="143,-85 0,-85 0,-55 143,-55 143,-85"/>
<text text-anchor="start" x="8" y="-73" font-family="Helvetica,sans-Serif" font-size="10.00">helios.engine.state.types.</text>
<text text-anchor="middle" x="71.5" y="-62" font-family="Helvetica,sans-Serif" font-size="10.00">StateTransitionId</text>
</a>
</g>
</g>
<!-- Node2&#45;&gt;Node4 -->
<g id="edge3_Node000002_Node000004" class="edge">
<title>Node2&#45;&gt;Node4</title>
<g id="a_edge3_Node000002_Node000004"><a xlink:title=" ">
<path fill="none" stroke="#63b8ff" d="M149.31,-120.8C135.45,-111.93 117.43,-100.39 102.21,-90.66"/>
<polygon fill="#63b8ff" stroke="#63b8ff" points="103.94,-87.61 93.63,-85.16 100.17,-93.5 103.94,-87.61"/>
</a>
</g>
</g>
<!-- Node2&#45;&gt;Node6 -->
<g id="edge6_Node000002_Node000006" class="edge">
<title>Node2&#45;&gt;Node6</title>
<g id="a_edge6_Node000002_Node000006"><a xlink:title=" ">
<path fill="none" stroke="#63b8ff" d="M202.44,-120.95C223.01,-111.62 250.23,-99.27 272.45,-89.18"/>
<polygon fill="#63b8ff" stroke="#63b8ff" points="273.97,-92.33 281.63,-85.01 271.08,-85.96 273.97,-92.33"/>
</a>
</g>
</g>
<!-- Node4&#45;&gt;Node3 -->
<g id="edge4_Node000004_Node000003" class="edge">
<title>Node4&#45;&gt;Node3</title>
<g id="a_edge4_Node000004_Node000003"><a xlink:title=" ">
<path fill="none" stroke="#63b8ff" d="M95.45,-54.99C111.39,-45.66 132.23,-33.47 148.06,-24.21"/>
<polygon fill="#63b8ff" stroke="#63b8ff" points="149.87,-27.21 156.73,-19.14 146.33,-21.17 149.87,-27.21"/>
</a>
</g>
</g>
<!-- Node5 -->
<g id="Node000005" class="node">
<title>Node5</title>
<g id="a_Node000005"><a xlink:title=" ">
<polygon fill="#e0e0e0" stroke="#999999" points="106,-19 37,-19 37,0 106,0 106,-19"/>
<text text-anchor="middle" x="71.5" y="-7" font-family="Helvetica,sans-Serif" font-size="10.00">type_traits</text>
</a>
</g>
</g>
<!-- Node4&#45;&gt;Node5 -->
<g id="edge5_Node000004_Node000005" class="edge">
<title>Node4&#45;&gt;Node5</title>
<g id="a_edge5_Node000004_Node000005"><a xlink:title=" ">
<path fill="none" stroke="#63b8ff" d="M71.5,-54.84C71.5,-47.21 71.5,-37.7 71.5,-29.45"/>
<polygon fill="#63b8ff" stroke="#63b8ff" points="75,-29.27 71.5,-19.27 68,-29.27 75,-29.27"/>
</a>
</g>
</g>
<!-- Node6&#45;&gt;Node3 -->
<g id="edge7_Node000006_Node000003" class="edge">
<title>Node6&#45;&gt;Node3</title>
<g id="a_edge7_Node000006_Node000003"><a xlink:title=" ">
<path fill="none" stroke="#63b8ff" d="M278.73,-54.99C255.31,-45.27 224.38,-32.44 201.77,-23.06"/>
<polygon fill="#63b8ff" stroke="#63b8ff" points="202.9,-19.74 192.32,-19.14 200.22,-26.2 202.9,-19.74"/>
</a>
</g>
</g>
</g>
</svg>
