<?xml version="1.0" encoding="UTF-8" standalone="no"?>
<!DOCTYPE svg PUBLIC "-//W3C//DTD SVG 1.1//EN"
 "http://www.w3.org/Graphics/SVG/1.1/DTD/svg11.dtd">
<!-- Generated by graphviz version 2.43.0 (0)
 -->
<!-- Title: _module.ixx Pages: 1 -->
<!--zoomable 258 -->

<svg id="main" version="1.1" xmlns="http://www.w3.org/2000/svg" xmlns:xlink="http://www.w3.org/1999/xlink" xml:space="preserve" onload="init(evt)">

<style type="text/css"><![CDATA[
.node, .edge {opacity: 0.7;}
.node.selected, .edge.selected {opacity: 1;}
.edge:hover path { stroke: red; }
.edge:hover polygon { stroke: red; fill: red; }
]]></style>

<defs>
  <circle id="rim" cx="0" cy="0" r="7"/>
  <circle id="rim2" cx="0" cy="0" r="3.5"/>
  <g id="zoomPlus">
    <use xlink:href="#rim" fill="#404040"><set attributeName="fill" to="#808080" begin="zoomplus.mouseover" end="zoomplus.mouseout"/></use>
    <path d="M-4,0h8M0,-4v8" fill="none" stroke="white" stroke-width="1.5" pointer-events="none"/>
  </g>
  <g id="zoomMin">
    <use xlink:href="#rim" fill="#404040"><set attributeName="fill" to="#808080" begin="zoomminus.mouseover" end="zoomminus.mouseout"/></use>
    <path d="M-4,0h8" fill="none" stroke="white" stroke-width="1.5" pointer-events="none"/>
  </g>
  <g id="arrowUp" transform="translate(30 24)">
    <use xlink:href="#rim"/>
    <path pointer-events="none" fill="none" stroke="white" stroke-width="1.5" d="M0,-3.0v7 M-2.5,-0.5L0,-3.0L2.5,-0.5"/>
  </g>
  <g id="arrowRight" transform="rotate(90) translate(36 -43)">
    <use xlink:href="#rim"/>
    <path pointer-events="none" fill="none" stroke="white" stroke-width="1.5" d="M0,-3.0v7 M-2.5,-0.5L0,-3.0L2.5,-0.5"/>
  </g>
  <g id="arrowDown" transform="rotate(180) translate(-30 -48)">
    <use xlink:href="#rim"/>
    <path pointer-events="none" fill="none" stroke="white" stroke-width="1.5" d="M0,-3.0v7 M-2.5,-0.5L0,-3.0L2.5,-0.5"/>
  </g>
  <g id="arrowLeft" transform="rotate(270) translate(-36 17)">
    <use xlink:href="#rim"/>
    <path pointer-events="none" fill="none" stroke="white" stroke-width="1.5" d="M0,-3.0v7 M-2.5,-0.5L0,-3.0L2.5,-0.5"/>
  </g>
  <g id="resetDef">
    <use xlink:href="#rim2" fill="#404040"><set attributeName="fill" to="#808080" begin="reset.mouseover" end="reset.mouseout"/></use>
  </g>
</defs>
<script type="application/ecmascript">
var viewWidth = 1121;
var viewHeight = 258;
var sectionId = 'dynsection-0';
</script>
<script type="application/ecmascript" xlink:href="svg.min.js"/>
<svg id="graph" class="graph">
<g id="viewport">
<title>_module.ixx</title>
<!-- Node1 -->
<g id="Node000001" class="node">
<title>Node1</title>
<g id="a_Node000001"><a xlink:title="Aggregate module for helios::engine::core namespace.">
<polygon fill="#999999" stroke="#666666" points="373.76,-250 296.76,-250 296.76,-231 373.76,-231 373.76,-250"/>
<text text-anchor="middle" x="335.26" y="-238" font-family="Helvetica,sans-Serif" font-size="10.00">_module.ixx</text>
</a>
</g>
</g>
<!-- Node2 -->
<g id="Node000002" class="node">
<title>Node2</title>
<g id="a_Node000002"><a xlink:href="helios_2engine_2core_2units_2__module_8ixx.html" target="_top" xlink:title="Aggregate module for helios::engine::core::units namespace.">
<polygon fill="white" stroke="#666666" points="326.76,-195 193.76,-195 193.76,-176 326.76,-176 326.76,-195"/>
<text text-anchor="middle" x="260.26" y="-183" font-family="Helvetica,sans-Serif" font-size="10.00">helios.engine.core.units</text>
</a>
</g>
</g>
<!-- Node1&#45;&gt;Node2 -->
<g id="edge1_Node000001_Node000002" class="edge">
<title>Node1&#45;&gt;Node2</title>
<g id="a_edge1_Node000001_Node000002"><a xlink:title=" ">
<path fill="none" stroke="#63b8ff" d="M323.21,-230.98C311.8,-222.92 294.43,-210.65 280.83,-201.03"/>
<polygon fill="#63b8ff" stroke="#63b8ff" points="282.72,-198.08 272.53,-195.17 278.68,-203.8 282.72,-198.08"/>
</a>
</g>
</g>
<!-- Node6 -->
<g id="Node000006" class="node">
<title>Node6</title>
<g id="a_Node000006"><a xlink:href="helios_2engine_2core_2data_2__module_8ixx.html" target="_top" xlink:title="Aggregate module for helios::engine::core::data namespace.">
<polygon fill="white" stroke="#666666" points="625.76,-195 494.76,-195 494.76,-176 625.76,-176 625.76,-195"/>
<text text-anchor="middle" x="560.26" y="-183" font-family="Helvetica,sans-Serif" font-size="10.00">helios.engine.core.data</text>
</a>
</g>
</g>
<!-- Node1&#45;&gt;Node6 -->
<g id="edge6_Node000001_Node000006" class="edge">
<title>Node1&#45;&gt;Node6</title>
<g id="a_edge6_Node000001_Node000006"><a xlink:title=" ">
<path fill="none" stroke="#63b8ff" d="M371.41,-230.98C410.17,-221.86 471.81,-207.33 514.06,-197.38"/>
<polygon fill="#63b8ff" stroke="#63b8ff" points="514.9,-200.78 523.83,-195.08 513.29,-193.97 514.9,-200.78"/>
</a>
</g>
</g>
<!-- Node3 -->
<g id="Node000003" class="node">
<title>Node3</title>
<g id="a_Node000003"><a xlink:href="Unit_8ixx.html" target="_top" xlink:title=" ">
<polygon fill="white" stroke="#666666" points="126.26,-134.5 6.26,-134.5 6.26,-115.5 126.26,-115.5 126.26,-134.5"/>
<text text-anchor="middle" x="66.26" y="-122.5" font-family="Helvetica,sans-Serif" font-size="10.00">helios.core.units.Unit</text>
</a>
</g>
</g>
<!-- Node2&#45;&gt;Node3 -->
<g id="edge2_Node000002_Node000003" class="edge">
<title>Node2&#45;&gt;Node3</title>
<g id="a_edge2_Node000002_Node000003"><a xlink:title=" ">
<path fill="none" stroke="#63b8ff" d="M232.05,-175.99C198.29,-165.81 141.61,-148.72 104.08,-137.4"/>
<polygon fill="#63b8ff" stroke="#63b8ff" points="105.09,-134.05 94.5,-134.52 103.07,-140.75 105.09,-134.05"/>
</a>
</g>
</g>
<!-- Node4 -->
<g id="Node000004" class="node">
<title>Node4</title>
<g id="a_Node000004"><a xlink:title=" ">
<polygon fill="#e0e0e0" stroke="#999999" points="327.26,-19 283.26,-19 283.26,0 327.26,0 327.26,-19"/>
<text text-anchor="middle" x="305.26" y="-7" font-family="Helvetica,sans-Serif" font-size="10.00">string</text>
</a>
</g>
</g>
<!-- Node3&#45;&gt;Node4 -->
<g id="edge3_Node000003_Node000004" class="edge">
<title>Node3&#45;&gt;Node4</title>
<g id="a_edge3_Node000003_Node000004"><a xlink:title=" ">
<path fill="none" stroke="#63b8ff" d="M48.75,-115.35C24.68,-102.33 -13.64,-76.91 5.26,-55 39.61,-15.18 203,-10.41 273.14,-10.23"/>
<polygon fill="#63b8ff" stroke="#63b8ff" points="273.18,-13.73 283.18,-10.24 273.18,-6.73 273.18,-13.73"/>
</a>
</g>
</g>
<!-- Node5 -->
<g id="Node000005" class="node">
<title>Node5</title>
<g id="a_Node000005"><a xlink:href="helios_2math_2types_2__module_8ixx.html" target="_top" xlink:title="Module exports for vector and matrix type definitions.">
<polygon fill="white" stroke="#666666" points="118.26,-74 14.26,-74 14.26,-55 118.26,-55 118.26,-74"/>
<text text-anchor="middle" x="66.26" y="-62" font-family="Helvetica,sans-Serif" font-size="10.00">helios.math.types</text>
</a>
</g>
</g>
<!-- Node3&#45;&gt;Node5 -->
<g id="edge4_Node000003_Node000005" class="edge">
<title>Node3&#45;&gt;Node5</title>
<g id="a_edge4_Node000003_Node000005"><a xlink:title=" ">
<path fill="none" stroke="#63b8ff" d="M66.26,-115.37C66.26,-107.25 66.26,-94.81 66.26,-84.39"/>
<polygon fill="#63b8ff" stroke="#63b8ff" points="69.76,-84.17 66.26,-74.17 62.76,-84.17 69.76,-84.17"/>
</a>
</g>
</g>
<!-- Node5&#45;&gt;Node5 -->
<g id="edge5_Node000005_Node000005" class="edge">
<title>Node5&#45;&gt;Node5</title>
<g id="a_edge5_Node000005_Node000005"><a xlink:title=" ">
<path fill="none" stroke="#63b8ff" d="M99.03,-74.03C118.26,-76.06 136.26,-72.88 136.26,-64.5 136.26,-57.62 124.15,-54.25 109.18,-54.38"/>
<polygon fill="#63b8ff" stroke="#63b8ff" points="108.81,-50.89 99.03,-54.97 109.21,-57.88 108.81,-50.89"/>
</a>
</g>
</g>
<!-- Node7 -->
<g id="Node000007" class="node">
<title>Node7</title>
<g id="a_Node000007"><a xlink:href="SpawnProfileId_8ixx.html" target="_top" xlink:title="Strongly&#45;typed identifier for SpawnProfile instances.">
<polygon fill="white" stroke="#666666" points="779.26,-140 645.26,-140 645.26,-110 779.26,-110 779.26,-140"/>
<text text-anchor="start" x="653.26" y="-128" font-family="Helvetica,sans-Serif" font-size="10.00">helios.engine.core.data.</text>
<text text-anchor="middle" x="712.26" y="-117" font-family="Helvetica,sans-Serif" font-size="10.00">SpawnProfileId</text>
</a>
</g>
</g>
<!-- Node6&#45;&gt;Node7 -->
<g id="edge7_Node000006_Node000007" class="edge">
<title>Node6&#45;&gt;Node7</title>
<g id="a_edge7_Node000006_Node000007"><a xlink:title=" ">
<path fill="none" stroke="#63b8ff" d="M582.36,-175.99C604.24,-167.57 638.39,-154.43 666.18,-143.73"/>
<polygon fill="#63b8ff" stroke="#63b8ff" points="667.64,-146.92 675.72,-140.06 665.13,-140.39 667.64,-146.92"/>
</a>
</g>
</g>
<!-- Node12 -->
<g id="Node000012" class="node">
<title>Node12</title>
<g id="a_Node000012"><a xlink:href="SpawnRuleId_8ixx.html" target="_top" xlink:title="Strongly&#45;typed identifier for SpawnRule instances.">
<polygon fill="white" stroke="#666666" points="627.26,-140 493.26,-140 493.26,-110 627.26,-110 627.26,-140"/>
<text text-anchor="start" x="501.26" y="-128" font-family="Helvetica,sans-Serif" font-size="10.00">helios.engine.core.data.</text>
<text text-anchor="middle" x="560.26" y="-117" font-family="Helvetica,sans-Serif" font-size="10.00">SpawnRuleId</text>
</a>
</g>
</g>
<!-- Node6&#45;&gt;Node12 -->
<g id="edge14_Node000006_Node000012" class="edge">
<title>Node6&#45;&gt;Node12</title>
<g id="a_edge14_Node000006_Node000012"><a xlink:title=" ">
<path fill="none" stroke="#63b8ff" d="M560.26,-175.87C560.26,-169.11 560.26,-159.35 560.26,-150.26"/>
<polygon fill="#63b8ff" stroke="#63b8ff" points="563.76,-150.11 560.26,-140.11 556.76,-150.11 563.76,-150.11"/>
</a>
</g>
</g>
<!-- Node13 -->
<g id="Node000013" class="node">
<title>Node13</title>
<g id="a_Node000013"><a xlink:href="GameObjectPoolId_8ixx.html" target="_top" xlink:title="Strongly&#45;typed identifier for GameObjectPool instances.">
<polygon fill="white" stroke="#666666" points="446.26,-140 312.26,-140 312.26,-110 446.26,-110 446.26,-140"/>
<text text-anchor="start" x="320.26" y="-128" font-family="Helvetica,sans-Serif" font-size="10.00">helios.engine.core.data.</text>
<text text-anchor="middle" x="379.26" y="-117" font-family="Helvetica,sans-Serif" font-size="10.00">GameObjectPoolId</text>
</a>
</g>
</g>
<!-- Node6&#45;&gt;Node13 -->
<g id="edge18_Node000006_Node000013" class="edge">
<title>Node6&#45;&gt;Node13</title>
<g id="a_edge18_Node000006_Node000013"><a xlink:title=" ">
<path fill="none" stroke="#63b8ff" d="M533.94,-175.99C507.44,-167.43 465.8,-153.97 432.4,-143.18"/>
<polygon fill="#63b8ff" stroke="#63b8ff" points="433.37,-139.81 422.78,-140.06 431.21,-146.47 433.37,-139.81"/>
</a>
</g>
</g>
<!-- Node16 -->
<g id="Node000016" class="node">
<title>Node16</title>
<g id="a_Node000016"><a xlink:href="ComponentTypeId_8ixx.html" target="_top" xlink:title="Compile&#45;time type identifier for component types.">
<polygon fill="white" stroke="#666666" points="981.26,-140 847.26,-140 847.26,-110 981.26,-110 981.26,-140"/>
<text text-anchor="start" x="855.26" y="-128" font-family="Helvetica,sans-Serif" font-size="10.00">helios.engine.core.data.</text>
<text text-anchor="middle" x="914.26" y="-117" font-family="Helvetica,sans-Serif" font-size="10.00">ComponentTypeId</text>
</a>
</g>
</g>
<!-- Node6&#45;&gt;Node16 -->
<g id="edge24_Node000006_Node000016" class="edge">
<title>Node6&#45;&gt;Node16</title>
<g id="a_edge24_Node000006_Node000016"><a xlink:title=" ">
<path fill="none" stroke="#63b8ff" d="M611.73,-175.99C670.83,-166.23 768.39,-150.11 836.7,-138.82"/>
<polygon fill="#63b8ff" stroke="#63b8ff" points="837.68,-142.2 846.98,-137.12 836.54,-135.3 837.68,-142.2"/>
</a>
</g>
</g>
<!-- Node8 -->
<g id="Node000008" class="node">
<title>Node8</title>
<g id="a_Node000008"><a xlink:title=" ">
<polygon fill="#e0e0e0" stroke="#999999" points="623.26,-19 573.26,-19 573.26,0 623.26,0 623.26,-19"/>
<text text-anchor="middle" x="598.26" y="-7" font-family="Helvetica,sans-Serif" font-size="10.00">cstdint</text>
</a>
</g>
</g>
<!-- Node7&#45;&gt;Node8 -->
<g id="edge8_Node000007_Node000008" class="edge">
<title>Node7&#45;&gt;Node8</title>
<g id="a_edge8_Node000007_Node000008"><a xlink:title=" ">
<path fill="none" stroke="#63b8ff" d="M709.79,-109.73C706.51,-94.56 699.41,-70.64 685.26,-55 671.24,-39.5 650.57,-28.62 632.89,-21.49"/>
<polygon fill="#63b8ff" stroke="#63b8ff" points="634.03,-18.18 623.44,-17.91 631.55,-24.73 634.03,-18.18"/>
</a>
</g>
</g>
<!-- Node9 -->
<g id="Node000009" class="node">
<title>Node9</title>
<g id="a_Node000009"><a xlink:title=" ">
<polygon fill="#e0e0e0" stroke="#999999" points="660.76,-74 587.76,-74 587.76,-55 660.76,-55 660.76,-74"/>
<text text-anchor="middle" x="624.26" y="-62" font-family="Helvetica,sans-Serif" font-size="10.00">string_view</text>
</a>
</g>
</g>
<!-- Node7&#45;&gt;Node9 -->
<g id="edge9_Node000007_Node000009" class="edge">
<title>Node7&#45;&gt;Node9</title>
<g id="a_edge9_Node000007_Node000009"><a xlink:title=" ">
<path fill="none" stroke="#63b8ff" d="M690.96,-109.84C677.19,-100.68 659.33,-88.82 645.56,-79.66"/>
<polygon fill="#63b8ff" stroke="#63b8ff" points="647.45,-76.72 637.19,-74.09 643.58,-82.55 647.45,-76.72"/>
</a>
</g>
</g>
<!-- Node10 -->
<g id="Node000010" class="node">
<title>Node10</title>
<g id="a_Node000010"><a xlink:href="algorithms_8ixx.html" target="_top" xlink:title="Core algorithms and hash functions for the helios engine.">
<polygon fill="white" stroke="#666666" points="569.76,-74 444.76,-74 444.76,-55 569.76,-55 569.76,-74"/>
<text text-anchor="middle" x="507.26" y="-62" font-family="Helvetica,sans-Serif" font-size="10.00">helios.core.algorithms</text>
</a>
</g>
</g>
<!-- Node7&#45;&gt;Node10 -->
<g id="edge10_Node000007_Node000010" class="edge">
<title>Node7&#45;&gt;Node10</title>
<g id="a_edge10_Node000007_Node000010"><a xlink:title=" ">
<path fill="none" stroke="#63b8ff" d="M663.16,-109.99C627.63,-99.85 580.22,-86.32 547.04,-76.85"/>
<polygon fill="#63b8ff" stroke="#63b8ff" points="547.81,-73.43 537.23,-74.05 545.89,-80.16 547.81,-73.43"/>
</a>
</g>
</g>
<!-- Node11 -->
<g id="Node000011" class="node">
<title>Node11</title>
<g id="a_Node000011"><a xlink:href="types_8ixx.html" target="_top" xlink:title="Core type definitions and tag types for the helios engine.">
<polygon fill="white" stroke="#666666" points="855.26,-74 755.26,-74 755.26,-55 855.26,-55 855.26,-74"/>
<text text-anchor="middle" x="805.26" y="-62" font-family="Helvetica,sans-Serif" font-size="10.00">helios.core.types</text>
</a>
</g>
</g>
<!-- Node7&#45;&gt;Node11 -->
<g id="edge13_Node000007_Node000011" class="edge">
<title>Node7&#45;&gt;Node11</title>
<g id="a_edge13_Node000007_Node000011"><a xlink:title=" ">
<path fill="none" stroke="#63b8ff" d="M734.77,-109.84C749.33,-100.68 768.19,-88.82 782.75,-79.66"/>
<polygon fill="#63b8ff" stroke="#63b8ff" points="785,-82.38 791.6,-74.09 781.27,-76.46 785,-82.38"/>
</a>
</g>
</g>
<!-- Node10&#45;&gt;Node4 -->
<g id="edge12_Node000010_Node000004" class="edge">
<title>Node10&#45;&gt;Node4</title>
<g id="a_edge12_Node000010_Node000004"><a xlink:title=" ">
<path fill="none" stroke="#63b8ff" d="M474.81,-54.98C436.99,-45.06 374.89,-28.77 337.26,-18.9"/>
<polygon fill="#63b8ff" stroke="#63b8ff" points="337.9,-15.45 327.34,-16.29 336.12,-22.22 337.9,-15.45"/>
</a>
</g>
</g>
<!-- Node10&#45;&gt;Node8 -->
<g id="edge11_Node000010_Node000008" class="edge">
<title>Node10&#45;&gt;Node8</title>
<g id="a_edge11_Node000010_Node000008"><a xlink:title=" ">
<path fill="none" stroke="#63b8ff" d="M521.88,-54.98C536.12,-46.69 558.01,-33.94 574.71,-24.22"/>
<polygon fill="#63b8ff" stroke="#63b8ff" points="576.49,-27.23 583.37,-19.17 572.97,-21.18 576.49,-27.23"/>
</a>
</g>
</g>
<!-- Node12&#45;&gt;Node8 -->
<g id="edge15_Node000012_Node000008" class="edge">
<title>Node12&#45;&gt;Node8</title>
<g id="a_edge15_Node000012_Node000008"><a xlink:title=" ">
<path fill="none" stroke="#63b8ff" d="M620.98,-110C639.69,-102.53 658.24,-91.17 669.26,-74 682.72,-53.02 655.71,-34.73 631.22,-23.24"/>
<polygon fill="#63b8ff" stroke="#63b8ff" points="632.61,-20.02 622.05,-19.17 629.78,-26.42 632.61,-20.02"/>
</a>
</g>
</g>
<!-- Node12&#45;&gt;Node9 -->
<g id="edge16_Node000012_Node000009" class="edge">
<title>Node12&#45;&gt;Node9</title>
<g id="a_edge16_Node000012_Node000009"><a xlink:title=" ">
<path fill="none" stroke="#63b8ff" d="M575.75,-109.84C585.23,-101.17 597.37,-90.08 607.14,-81.15"/>
<polygon fill="#63b8ff" stroke="#63b8ff" points="609.65,-83.6 614.67,-74.27 604.93,-78.43 609.65,-83.6"/>
</a>
</g>
</g>
<!-- Node12&#45;&gt;Node10 -->
<g id="edge17_Node000012_Node000010" class="edge">
<title>Node12&#45;&gt;Node10</title>
<g id="a_edge17_Node000012_Node000010"><a xlink:title=" ">
<path fill="none" stroke="#63b8ff" d="M547.43,-109.84C539.74,-101.35 529.93,-90.52 521.93,-81.69"/>
<polygon fill="#63b8ff" stroke="#63b8ff" points="524.51,-79.33 515.2,-74.27 519.32,-84.03 524.51,-79.33"/>
</a>
</g>
</g>
<!-- Node13&#45;&gt;Node8 -->
<g id="edge19_Node000013_Node000008" class="edge">
<title>Node13&#45;&gt;Node8</title>
<g id="a_edge19_Node000013_Node000008"><a xlink:title=" ">
<path fill="none" stroke="#63b8ff" d="M339.95,-109.96C309.86,-97.1 276.45,-76.78 295.26,-55 329.48,-15.39 490.3,-10.39 562.73,-10.19"/>
<polygon fill="#63b8ff" stroke="#63b8ff" points="563.16,-13.69 573.16,-10.19 563.16,-6.69 563.16,-13.69"/>
</a>
</g>
</g>
<!-- Node13&#45;&gt;Node9 -->
<g id="edge21_Node000013_Node000009" class="edge">
<title>Node13&#45;&gt;Node9</title>
<g id="a_edge21_Node000013_Node000009"><a xlink:title=" ">
<path fill="none" stroke="#63b8ff" d="M437.94,-109.99C481.05,-99.7 538.78,-85.91 578.5,-76.43"/>
<polygon fill="#63b8ff" stroke="#63b8ff" points="579.52,-79.78 588.44,-74.05 577.9,-72.97 579.52,-79.78"/>
</a>
</g>
</g>
<!-- Node13&#45;&gt;Node10 -->
<g id="edge23_Node000013_Node000010" class="edge">
<title>Node13&#45;&gt;Node10</title>
<g id="a_edge23_Node000013_Node000010"><a xlink:title=" ">
<path fill="none" stroke="#63b8ff" d="M409.92,-109.99C430.99,-100.36 458.75,-87.67 479.23,-78.31"/>
<polygon fill="#63b8ff" stroke="#63b8ff" points="480.72,-81.48 488.36,-74.14 477.81,-75.11 480.72,-81.48"/>
</a>
</g>
</g>
<!-- Node14 -->
<g id="Node000014" class="node">
<title>Node14</title>
<g id="a_Node000014"><a xlink:title=" ">
<polygon fill="#e0e0e0" stroke="#999999" points="426.26,-74 304.26,-74 304.26,-55 426.26,-55 426.26,-74"/>
<text text-anchor="middle" x="365.26" y="-62" font-family="Helvetica,sans-Serif" font-size="10.00">helios/helios_config.h</text>
</a>
</g>
</g>
<!-- Node13&#45;&gt;Node14 -->
<g id="edge20_Node000013_Node000014" class="edge">
<title>Node13&#45;&gt;Node14</title>
<g id="a_edge20_Node000013_Node000014"><a xlink:title=" ">
<path fill="none" stroke="#63b8ff" d="M375.87,-109.84C374.03,-102.13 371.72,-92.49 369.73,-84.17"/>
<polygon fill="#63b8ff" stroke="#63b8ff" points="373.09,-83.18 367.36,-74.27 366.28,-84.81 373.09,-83.18"/>
</a>
</g>
</g>
<!-- Node15 -->
<g id="Node000015" class="node">
<title>Node15</title>
<g id="a_Node000015"><a xlink:title=" ">
<polygon fill="#e0e0e0" stroke="#999999" points="247.76,-74 154.76,-74 154.76,-55 247.76,-55 247.76,-74"/>
<text text-anchor="middle" x="201.26" y="-62" font-family="Helvetica,sans-Serif" font-size="10.00">unordered_map</text>
</a>
</g>
</g>
<!-- Node13&#45;&gt;Node15 -->
<g id="edge22_Node000013_Node000015" class="edge">
<title>Node13&#45;&gt;Node15</title>
<g id="a_edge22_Node000013_Node000015"><a xlink:title=" ">
<path fill="none" stroke="#63b8ff" d="M336.62,-109.99C306.17,-99.98 265.67,-86.67 236.93,-77.22"/>
<polygon fill="#63b8ff" stroke="#63b8ff" points="237.88,-73.85 227.29,-74.05 235.69,-80.5 237.88,-73.85"/>
</a>
</g>
</g>
<!-- Node16&#45;&gt;Node11 -->
<g id="edge26_Node000016_Node000011" class="edge">
<title>Node16&#45;&gt;Node11</title>
<g id="a_edge26_Node000016_Node000011"><a xlink:title=" ">
<path fill="none" stroke="#63b8ff" d="M888.15,-109.99C870.62,-100.58 847.64,-88.24 830.32,-78.95"/>
<polygon fill="#63b8ff" stroke="#63b8ff" points="831.82,-75.78 821.36,-74.14 828.51,-81.95 831.82,-75.78"/>
</a>
</g>
</g>
<!-- Node17 -->
<g id="Node000017" class="node">
<title>Node17</title>
<g id="a_Node000017"><a xlink:title=" ">
<polygon fill="#e0e0e0" stroke="#999999" points="1112.76,-74 1047.76,-74 1047.76,-55 1112.76,-55 1112.76,-74"/>
<text text-anchor="middle" x="1080.26" y="-62" font-family="Helvetica,sans-Serif" font-size="10.00">functional</text>
</a>
</g>
</g>
<!-- Node16&#45;&gt;Node17 -->
<g id="edge25_Node000016_Node000017" class="edge">
<title>Node16&#45;&gt;Node17</title>
<g id="a_edge25_Node000016_Node000017"><a xlink:title=" ">
<path fill="none" stroke="#63b8ff" d="M954.02,-109.99C982.09,-100.1 1019.31,-86.98 1046.05,-77.56"/>
<polygon fill="#63b8ff" stroke="#63b8ff" points="1047.48,-80.76 1055.75,-74.14 1045.15,-74.16 1047.48,-80.76"/>
</a>
</g>
</g>
<!-- Node18 -->
<g id="Node000018" class="node">
<title>Node18</title>
<g id="a_Node000018"><a xlink:href="TypeIndexer_8ixx.html" target="_top" xlink:title="Utility for generating unique type indices at runtime.">
<polygon fill="white" stroke="#666666" points="1029.26,-74 873.26,-74 873.26,-55 1029.26,-55 1029.26,-74"/>
<text text-anchor="middle" x="951.26" y="-62" font-family="Helvetica,sans-Serif" font-size="10.00">helios.core.data.TypeIndexer</text>
</a>
</g>
</g>
<!-- Node16&#45;&gt;Node18 -->
<g id="edge27_Node000016_Node000018" class="edge">
<title>Node16&#45;&gt;Node18</title>
<g id="a_edge27_Node000016_Node000018"><a xlink:title=" ">
<path fill="none" stroke="#63b8ff" d="M923.22,-109.84C928.37,-101.69 934.88,-91.4 940.33,-82.78"/>
<polygon fill="#63b8ff" stroke="#63b8ff" points="943.33,-84.59 945.72,-74.27 937.41,-80.85 943.33,-84.59"/>
</a>
</g>
</g>
<!-- Node19 -->
<g id="Node000019" class="node">
<title>Node19</title>
<g id="a_Node000019"><a xlink:title=" ">
<polygon fill="#e0e0e0" stroke="#999999" points="976.26,-19 926.26,-19 926.26,0 976.26,0 976.26,-19"/>
<text text-anchor="middle" x="951.26" y="-7" font-family="Helvetica,sans-Serif" font-size="10.00">atomic</text>
</a>
</g>
</g>
<!-- Node18&#45;&gt;Node19 -->
<g id="edge28_Node000018_Node000019" class="edge">
<title>Node18&#45;&gt;Node19</title>
<g id="a_edge28_Node000018_Node000019"><a xlink:title=" ">
<path fill="none" stroke="#63b8ff" d="M951.26,-54.75C951.26,-47.8 951.26,-37.85 951.26,-29.13"/>
<polygon fill="#63b8ff" stroke="#63b8ff" points="954.76,-29.09 951.26,-19.09 947.76,-29.09 954.76,-29.09"/>
</a>
</g>
</g>
</g>
</svg>

<g id="navigator" transform="translate(0 0)" fill="#404254">
  <rect fill="#f2f5e9" fill-opacity="0.5" stroke="#606060" stroke-width=".5" x="0" y="0" width="60" height="60"/>
  <use id="zoomplus" xlink:href="#zoomPlus" x="17" y="9" onmousedown="handleZoom(evt,'in')"/>
  <use id="zoomminus" xlink:href="#zoomMin" x="42" y="9" onmousedown="handleZoom(evt,'out')"/>
  <use id="reset" xlink:href="#resetDef" x="30" y="36" onmousedown="handleReset()"/>
   <use id="arrowup" xlink:href="#arrowUp" x="0" y="0" onmousedown="handlePan(0,-1)"/>
  <use id="arrowright" xlink:href="#arrowRight" x="0" y="0" onmousedown="handlePan(1,0)"/>
  <use id="arrowdown" xlink:href="#arrowDown" x="0" y="0" onmousedown="handlePan(0,1)"/>
  <use id="arrowleft" xlink:href="#arrowLeft" x="0" y="0" onmousedown="handlePan(-1,0)"/>
</g>
<svg viewBox="0 0 15 15" width="100%" height="30px" preserveAspectRatio="xMaxYMin meet">
 <g id="arrow_out" transform="scale(0.3 0.3)">
  <a xlink:href="helios_2engine_2core_2__module_8ixx__incl_org.svg" target="_base">
   <rect id="button" ry="5" rx="5" y="6" x="6" height="38" width="38"
        fill="#f2f5e9" fill-opacity="0.5" stroke="#606060" stroke-width="1.0"/>
   <path id="arrow"
     d="M 11.500037,31.436501 C 11.940474,20.09759 22.043105,11.32322 32.158766,21.979434 L 37.068811,17.246167 C 37.068811,17.246167 37.088388,32 37.088388,32 L 22.160133,31.978069 C 22.160133,31.978069 26.997745,27.140456 26.997745,27.140456 C 18.528582,18.264221 13.291696,25.230495 11.500037,31.436501 z"
     style="fill:#404040;"/>
  </a>
 </g>
</svg>

<style type='text/css'>
<![CDATA[
[data-mouse-over-selected='false'] { opacity: 0.7; }
[data-mouse-over-selected='true']  { opacity: 1.0; }
]]>
</style>
<script type="application/ecmascript"><![CDATA[
document.addEventListener('DOMContentLoaded', (event) => {
  highlightEdges();
  highlightAdjacentNodes();
});
]]></script>
</svg>
