<?xml version="1.0" encoding="UTF-8" standalone="no"?>
<!DOCTYPE svg PUBLIC "-//W3C//DTD SVG 1.1//EN"
 "http://www.w3.org/Graphics/SVG/1.1/DTD/svg11.dtd">
<!-- Generated by graphviz version 2.43.0 (0)
 -->
<!-- Title: _module.ixx Pages: 1 -->
<svg width="523pt" height="390pt"
 viewBox="0.00 0.00 523.08 390.00" xmlns="http://www.w3.org/2000/svg" xmlns:xlink="http://www.w3.org/1999/xlink">
<g id="graph0" class="graph" transform="scale(1 1) rotate(0) translate(4 386)">
<title>_module.ixx</title>
<!-- Node1 -->
<g id="Node000001" class="node">
<title>Node1</title>
<g id="a_Node000001"><a xlink:title="Aggregate module for helios::engine::runtime::spawn::events namespace.">
<polygon fill="#999999" stroke="#666666" points="170.58,-382 93.58,-382 93.58,-363 170.58,-363 170.58,-382"/>
<text text-anchor="middle" x="132.08" y="-370" font-family="Helvetica,sans-Serif" font-size="10.00">_module.ixx</text>
</a>
</g>
</g>
<!-- Node2 -->
<g id="Node000002" class="node">
<title>Node2</title>
<g id="a_Node000002"><a xlink:href="SpawnPlanCommandExecutedEvent_8ixx.html" target="_top" xlink:title="Event indicating a spawn plan has been executed.">
<polygon fill="white" stroke="#666666" points="230.58,-327 33.58,-327 33.58,-297 230.58,-297 230.58,-327"/>
<text text-anchor="start" x="41.58" y="-315" font-family="Helvetica,sans-Serif" font-size="10.00">helios.engine.runtime.spawn.events.</text>
<text text-anchor="middle" x="132.08" y="-304" font-family="Helvetica,sans-Serif" font-size="10.00">SpawnPlanCommandExecutedEvent</text>
</a>
</g>
</g>
<!-- Node1&#45;&gt;Node2 -->
<g id="edge1_Node000001_Node000002" class="edge">
<title>Node1&#45;&gt;Node2</title>
<g id="a_edge1_Node000001_Node000002"><a xlink:title=" ">
<path fill="none" stroke="#63b8ff" d="M132.08,-362.87C132.08,-356.11 132.08,-346.35 132.08,-337.26"/>
<polygon fill="#63b8ff" stroke="#63b8ff" points="135.58,-337.11 132.08,-327.11 128.58,-337.11 135.58,-337.11"/>
</a>
</g>
</g>
<!-- Node3 -->
<g id="Node000003" class="node">
<title>Node3</title>
<g id="a_Node000003"><a xlink:href="SpawnRuleId_8ixx.html" target="_top" xlink:title="Strongly&#45;typed identifier for SpawnRule instances.">
<polygon fill="white" stroke="#666666" points="227.58,-261 36.58,-261 36.58,-231 227.58,-231 227.58,-261"/>
<text text-anchor="start" x="44.58" y="-249" font-family="Helvetica,sans-Serif" font-size="10.00">helios.engine.runtime.spawn.types.</text>
<text text-anchor="middle" x="132.08" y="-238" font-family="Helvetica,sans-Serif" font-size="10.00">SpawnRuleId</text>
</a>
</g>
</g>
<!-- Node2&#45;&gt;Node3 -->
<g id="edge2_Node000002_Node000003" class="edge">
<title>Node2&#45;&gt;Node3</title>
<g id="a_edge2_Node000002_Node000003"><a xlink:title=" ">
<path fill="none" stroke="#63b8ff" d="M132.08,-296.8C132.08,-289.34 132.08,-279.99 132.08,-271.41"/>
<polygon fill="#63b8ff" stroke="#63b8ff" points="135.58,-271.16 132.08,-261.16 128.58,-271.16 135.58,-271.16"/>
</a>
</g>
</g>
<!-- Node4 -->
<g id="Node000004" class="node">
<title>Node4</title>
<g id="a_Node000004"><a xlink:title=" ">
<polygon fill="#e0e0e0" stroke="#999999" points="145.08,-19 95.08,-19 95.08,0 145.08,0 145.08,-19"/>
<text text-anchor="middle" x="120.08" y="-7" font-family="Helvetica,sans-Serif" font-size="10.00">cstdint</text>
</a>
</g>
</g>
<!-- Node3&#45;&gt;Node4 -->
<g id="edge3_Node000003_Node000004" class="edge">
<title>Node3&#45;&gt;Node4</title>
<g id="a_edge3_Node000003_Node000004"><a xlink:title=" ">
<path fill="none" stroke="#63b8ff" d="M115.6,-230.58C86,-203.47 24.83,-141.5 2.08,-74 -10.57,-36.46 45.82,-20.76 85,-14.46"/>
<polygon fill="#63b8ff" stroke="#63b8ff" points="85.64,-17.91 95.03,-12.99 84.63,-10.98 85.64,-17.91"/>
</a>
</g>
</g>
<!-- Node5 -->
<g id="Node000005" class="node">
<title>Node5</title>
<g id="a_Node000005"><a xlink:title=" ">
<polygon fill="#e0e0e0" stroke="#999999" points="84.58,-74 11.58,-74 11.58,-55 84.58,-55 84.58,-74"/>
<text text-anchor="middle" x="48.08" y="-62" font-family="Helvetica,sans-Serif" font-size="10.00">string_view</text>
</a>
</g>
</g>
<!-- Node3&#45;&gt;Node5 -->
<g id="edge4_Node000003_Node000005" class="edge">
<title>Node3&#45;&gt;Node5</title>
<g id="a_edge4_Node000003_Node000005"><a xlink:title=" ">
<path fill="none" stroke="#63b8ff" d="M125.49,-230.91C110.36,-198.57 73.13,-119.02 56.43,-83.33"/>
<polygon fill="#63b8ff" stroke="#63b8ff" points="59.53,-81.71 52.12,-74.13 53.19,-84.68 59.53,-81.71"/>
</a>
</g>
</g>
<!-- Node6 -->
<g id="Node000006" class="node">
<title>Node6</title>
<g id="a_Node000006"><a xlink:href="helios_2core_2data_2__module_8ixx.html" target="_top" xlink:title="Aggregate module for helios::core::data namespace.">
<polygon fill="white" stroke="#666666" points="277.58,-195 182.58,-195 182.58,-176 277.58,-176 277.58,-195"/>
<text text-anchor="middle" x="230.08" y="-183" font-family="Helvetica,sans-Serif" font-size="10.00">helios.core.data</text>
</a>
</g>
</g>
<!-- Node3&#45;&gt;Node6 -->
<g id="edge5_Node000003_Node000006" class="edge">
<title>Node3&#45;&gt;Node6</title>
<g id="a_edge5_Node000003_Node000006"><a xlink:title=" ">
<path fill="none" stroke="#63b8ff" d="M155.81,-230.84C171.29,-221.6 191.4,-209.59 206.8,-200.4"/>
<polygon fill="#63b8ff" stroke="#63b8ff" points="208.89,-203.23 215.69,-195.09 205.31,-197.21 208.89,-203.23"/>
</a>
</g>
</g>
<!-- Node8 -->
<g id="Node000008" class="node">
<title>Node8</title>
<g id="a_Node000008"><a xlink:href="types_8ixx.html" target="_top" xlink:title="Core type definitions and tag types for the helios engine.">
<polygon fill="white" stroke="#666666" points="203.08,-74 103.08,-74 103.08,-55 203.08,-55 203.08,-74"/>
<text text-anchor="middle" x="153.08" y="-62" font-family="Helvetica,sans-Serif" font-size="10.00">helios.core.types</text>
</a>
</g>
</g>
<!-- Node3&#45;&gt;Node8 -->
<g id="edge16_Node000003_Node000008" class="edge">
<title>Node3&#45;&gt;Node8</title>
<g id="a_edge16_Node000003_Node000008"><a xlink:title=" ">
<path fill="none" stroke="#63b8ff" d="M133.73,-230.91C137.48,-198.85 146.66,-120.38 150.89,-84.26"/>
<polygon fill="#63b8ff" stroke="#63b8ff" points="154.39,-84.47 152.07,-74.13 147.44,-83.66 154.39,-84.47"/>
</a>
</g>
</g>
<!-- Node13 -->
<g id="Node000013" class="node">
<title>Node13</title>
<g id="a_Node000013"><a xlink:title=" ">
<polygon fill="#e0e0e0" stroke="#999999" points="420.58,-195 295.58,-195 295.58,-176 420.58,-176 420.58,-195"/>
<text text-anchor="middle" x="358.08" y="-183" font-family="Helvetica,sans-Serif" font-size="10.00">helios.core.algorithms</text>
</a>
</g>
</g>
<!-- Node3&#45;&gt;Node13 -->
<g id="edge17_Node000003_Node000013" class="edge">
<title>Node3&#45;&gt;Node13</title>
<g id="a_edge17_Node000003_Node000013"><a xlink:title=" ">
<path fill="none" stroke="#63b8ff" d="M186.22,-230.99C225.73,-220.76 278.56,-207.09 315.17,-197.61"/>
<polygon fill="#63b8ff" stroke="#63b8ff" points="316.24,-200.95 325.04,-195.05 314.48,-194.17 316.24,-200.95"/>
</a>
</g>
</g>
<!-- Node7 -->
<g id="Node000007" class="node">
<title>Node7</title>
<g id="a_Node000007"><a xlink:href="RuntimeHandle_8ixx.html" target="_top" xlink:title="Lightweight handle pairing a strong identifier with a runtime index.">
<polygon fill="white" stroke="#666666" points="299.58,-140 160.58,-140 160.58,-110 299.58,-110 299.58,-140"/>
<text text-anchor="start" x="168.58" y="-128" font-family="Helvetica,sans-Serif" font-size="10.00">helios.core.data.Runtime</text>
<text text-anchor="middle" x="230.08" y="-117" font-family="Helvetica,sans-Serif" font-size="10.00">Handle</text>
</a>
</g>
</g>
<!-- Node6&#45;&gt;Node7 -->
<g id="edge6_Node000006_Node000007" class="edge">
<title>Node6&#45;&gt;Node7</title>
<g id="a_edge6_Node000006_Node000007"><a xlink:title=" ">
<path fill="none" stroke="#63b8ff" d="M230.08,-175.87C230.08,-169.11 230.08,-159.35 230.08,-150.26"/>
<polygon fill="#63b8ff" stroke="#63b8ff" points="233.58,-150.11 230.08,-140.11 226.58,-150.11 233.58,-150.11"/>
</a>
</g>
</g>
<!-- Node10 -->
<g id="Node000010" class="node">
<title>Node10</title>
<g id="a_Node000010"><a xlink:title=" ">
<polygon fill="#e0e0e0" stroke="#999999" points="397.08,-74 259.08,-74 259.08,-55 397.08,-55 397.08,-74"/>
<text text-anchor="middle" x="328.08" y="-62" font-family="Helvetica,sans-Serif" font-size="10.00">helios.core.data.StrongId</text>
</a>
</g>
</g>
<!-- Node6&#45;&gt;Node10 -->
<g id="edge13_Node000006_Node000010" class="edge">
<title>Node6&#45;&gt;Node10</title>
<g id="a_edge13_Node000006_Node000010"><a xlink:title=" ">
<path fill="none" stroke="#63b8ff" d="M256.17,-176C273.63,-169 295.78,-157.37 309.08,-140 321.36,-123.97 325.77,-100.87 327.31,-84.65"/>
<polygon fill="#63b8ff" stroke="#63b8ff" points="330.83,-84.47 328,-74.26 323.85,-84.01 330.83,-84.47"/>
</a>
</g>
</g>
<!-- Node11 -->
<g id="Node000011" class="node">
<title>Node11</title>
<g id="a_Node000011"><a xlink:href="TypeIndexer_8ixx.html" target="_top" xlink:title="Utility for generating unique type indices at runtime.">
<polygon fill="white" stroke="#666666" points="515.08,-134.5 359.08,-134.5 359.08,-115.5 515.08,-115.5 515.08,-134.5"/>
<text text-anchor="middle" x="437.08" y="-122.5" font-family="Helvetica,sans-Serif" font-size="10.00">helios.core.data.TypeIndexer</text>
</a>
</g>
</g>
<!-- Node6&#45;&gt;Node11 -->
<g id="edge14_Node000006_Node000011" class="edge">
<title>Node6&#45;&gt;Node11</title>
<g id="a_edge14_Node000006_Node000011"><a xlink:title=" ">
<path fill="none" stroke="#63b8ff" d="M260.18,-175.99C296.36,-165.77 357.2,-148.58 397.24,-137.26"/>
<polygon fill="#63b8ff" stroke="#63b8ff" points="398.28,-140.6 406.95,-134.52 396.37,-133.87 398.28,-140.6"/>
</a>
</g>
</g>
<!-- Node7&#45;&gt;Node4 -->
<g id="edge7_Node000007_Node000004" class="edge">
<title>Node7&#45;&gt;Node4</title>
<g id="a_edge7_Node000007_Node000004"><a xlink:title=" ">
<path fill="none" stroke="#63b8ff" d="M229.77,-109.75C228.73,-94.59 224.97,-70.69 212.08,-55 197.6,-37.37 174.46,-26.23 155.01,-19.5"/>
<polygon fill="#63b8ff" stroke="#63b8ff" points="155.83,-16.08 145.24,-16.37 153.69,-22.75 155.83,-16.08"/>
</a>
</g>
</g>
<!-- Node7&#45;&gt;Node5 -->
<g id="edge8_Node000007_Node000005" class="edge">
<title>Node7&#45;&gt;Node5</title>
<g id="a_edge8_Node000007_Node000005"><a xlink:title=" ">
<path fill="none" stroke="#63b8ff" d="M186.49,-109.99C155.35,-99.98 113.94,-86.67 84.55,-77.22"/>
<polygon fill="#63b8ff" stroke="#63b8ff" points="85.29,-73.78 74.69,-74.05 83.14,-80.45 85.29,-73.78"/>
</a>
</g>
</g>
<!-- Node7&#45;&gt;Node8 -->
<g id="edge9_Node000007_Node000008" class="edge">
<title>Node7&#45;&gt;Node8</title>
<g id="a_edge9_Node000007_Node000008"><a xlink:title=" ">
<path fill="none" stroke="#63b8ff" d="M211.44,-109.84C199.7,-100.91 184.55,-89.41 172.63,-80.35"/>
<polygon fill="#63b8ff" stroke="#63b8ff" points="174.7,-77.53 164.62,-74.27 170.47,-83.1 174.7,-77.53"/>
</a>
</g>
</g>
<!-- Node7&#45;&gt;Node10 -->
<g id="edge12_Node000007_Node000010" class="edge">
<title>Node7&#45;&gt;Node10</title>
<g id="a_edge12_Node000007_Node000010"><a xlink:title=" ">
<path fill="none" stroke="#63b8ff" d="M253.81,-109.84C269.29,-100.6 289.4,-88.59 304.8,-79.4"/>
<polygon fill="#63b8ff" stroke="#63b8ff" points="306.89,-82.23 313.69,-74.09 303.31,-76.21 306.89,-82.23"/>
</a>
</g>
</g>
<!-- Node8&#45;&gt;Node4 -->
<g id="edge10_Node000008_Node000004" class="edge">
<title>Node8&#45;&gt;Node4</title>
<g id="a_edge10_Node000008_Node000004"><a xlink:title=" ">
<path fill="none" stroke="#63b8ff" d="M147.63,-54.75C143.07,-47.42 136.42,-36.73 130.79,-27.7"/>
<polygon fill="#63b8ff" stroke="#63b8ff" points="133.69,-25.73 125.43,-19.09 127.75,-29.43 133.69,-25.73"/>
</a>
</g>
</g>
<!-- Node9 -->
<g id="Node000009" class="node">
<title>Node9</title>
<g id="a_Node000009"><a xlink:title=" ">
<polygon fill="#e0e0e0" stroke="#999999" points="207.08,-19 163.08,-19 163.08,0 207.08,0 207.08,-19"/>
<text text-anchor="middle" x="185.08" y="-7" font-family="Helvetica,sans-Serif" font-size="10.00">limits</text>
</a>
</g>
</g>
<!-- Node8&#45;&gt;Node9 -->
<g id="edge11_Node000008_Node000009" class="edge">
<title>Node8&#45;&gt;Node9</title>
<g id="a_edge11_Node000008_Node000009"><a xlink:title=" ">
<path fill="none" stroke="#63b8ff" d="M158.37,-54.75C162.79,-47.42 169.25,-36.73 174.7,-27.7"/>
<polygon fill="#63b8ff" stroke="#63b8ff" points="177.73,-29.46 179.9,-19.09 171.73,-25.84 177.73,-29.46"/>
</a>
</g>
</g>
<!-- Node12 -->
<g id="Node000012" class="node">
<title>Node12</title>
<g id="a_Node000012"><a xlink:title=" ">
<polygon fill="#e0e0e0" stroke="#999999" points="465.08,-74 415.08,-74 415.08,-55 465.08,-55 465.08,-74"/>
<text text-anchor="middle" x="440.08" y="-62" font-family="Helvetica,sans-Serif" font-size="10.00">atomic</text>
</a>
</g>
</g>
<!-- Node11&#45;&gt;Node12 -->
<g id="edge15_Node000011_Node000012" class="edge">
<title>Node11&#45;&gt;Node12</title>
<g id="a_edge15_Node000011_Node000012"><a xlink:title=" ">
<path fill="none" stroke="#63b8ff" d="M437.53,-115.37C437.94,-107.25 438.58,-94.81 439.12,-84.39"/>
<polygon fill="#63b8ff" stroke="#63b8ff" points="442.62,-84.33 439.64,-74.17 435.63,-83.97 442.62,-84.33"/>
</a>
</g>
</g>
</g>
</svg>
