<?xml version="1.0" encoding="UTF-8" standalone="no"?>
<!DOCTYPE svg PUBLIC "-//W3C//DTD SVG 1.1//EN"
 "http://www.w3.org/Graphics/SVG/1.1/DTD/svg11.dtd">
<!-- Generated by graphviz version 2.43.0 (0)
 -->
<!-- Title: _module.ixx Pages: 1 -->
<svg width="948pt" height="511pt"
 viewBox="0.00 0.00 948.26 511.00" xmlns="http://www.w3.org/2000/svg" xmlns:xlink="http://www.w3.org/1999/xlink">
<g id="graph0" class="graph" transform="scale(1 1) rotate(0) translate(4 507)">
<title>_module.ixx</title>
<!-- Node1 -->
<g id="Node000001" class="node">
<title>Node1</title>
<g id="a_Node000001"><a xlink:title="Module facade for scoring commands.">
<polygon fill="#999999" stroke="#666666" points="237.26,-503 160.26,-503 160.26,-484 237.26,-484 237.26,-503"/>
<text text-anchor="middle" x="198.76" y="-491" font-family="Helvetica,sans-Serif" font-size="10.00">_module.ixx</text>
</a>
</g>
</g>
<!-- Node2 -->
<g id="Node000002" class="node">
<title>Node2</title>
<g id="a_Node000002"><a xlink:href="UpdateScoreCommand_8ixx.html" target="_top" xlink:title="Command for updating scores in a score pool.">
<polygon fill="white" stroke="#666666" points="316.76,-448 80.76,-448 80.76,-418 316.76,-418 316.76,-448"/>
<text text-anchor="start" x="88.76" y="-436" font-family="Helvetica,sans-Serif" font-size="10.00">helios.engine.mechanics.scoring.commands.</text>
<text text-anchor="middle" x="198.76" y="-425" font-family="Helvetica,sans-Serif" font-size="10.00">UpdateScoreCommand</text>
</a>
</g>
</g>
<!-- Node1&#45;&gt;Node2 -->
<g id="edge1_Node000001_Node000002" class="edge">
<title>Node1&#45;&gt;Node2</title>
<g id="a_edge1_Node000001_Node000002"><a xlink:title=" ">
<path fill="none" stroke="#63b8ff" d="M198.76,-483.87C198.76,-477.11 198.76,-467.35 198.76,-458.26"/>
<polygon fill="#63b8ff" stroke="#63b8ff" points="202.26,-458.11 198.76,-448.11 195.26,-458.11 202.26,-458.11"/>
</a>
</g>
</g>
<!-- Node3 -->
<g id="Node000003" class="node">
<title>Node3</title>
<g id="a_Node000003"><a xlink:title=" ">
<polygon fill="#e0e0e0" stroke="#999999" points="151.76,-382 99.76,-382 99.76,-363 151.76,-363 151.76,-382"/>
<text text-anchor="middle" x="125.76" y="-370" font-family="Helvetica,sans-Serif" font-size="10.00">cassert</text>
</a>
</g>
</g>
<!-- Node2&#45;&gt;Node3 -->
<g id="edge2_Node000002_Node000003" class="edge">
<title>Node2&#45;&gt;Node3</title>
<g id="a_edge2_Node000002_Node000003"><a xlink:title=" ">
<path fill="none" stroke="#63b8ff" d="M181.08,-417.84C170.06,-409 155.87,-397.63 144.62,-388.62"/>
<polygon fill="#63b8ff" stroke="#63b8ff" points="146.69,-385.79 136.69,-382.27 142.31,-391.25 146.69,-385.79"/>
</a>
</g>
</g>
<!-- Node4 -->
<g id="Node000004" class="node">
<title>Node4</title>
<g id="a_Node000004"><a xlink:title=" ">
<polygon fill="#e0e0e0" stroke="#999999" points="227.76,-382 169.76,-382 169.76,-363 227.76,-363 227.76,-382"/>
<text text-anchor="middle" x="198.76" y="-370" font-family="Helvetica,sans-Serif" font-size="10.00">memory</text>
</a>
</g>
</g>
<!-- Node2&#45;&gt;Node4 -->
<g id="edge3_Node000002_Node000004" class="edge">
<title>Node2&#45;&gt;Node4</title>
<g id="a_edge3_Node000002_Node000004"><a xlink:title=" ">
<path fill="none" stroke="#63b8ff" d="M198.76,-417.84C198.76,-410.21 198.76,-400.7 198.76,-392.45"/>
<polygon fill="#63b8ff" stroke="#63b8ff" points="202.26,-392.27 198.76,-382.27 195.26,-392.27 202.26,-392.27"/>
</a>
</g>
</g>
<!-- Node5 -->
<g id="Node000005" class="node">
<title>Node5</title>
<g id="a_Node000005"><a xlink:href="helios_2engine_2mechanics_2scoring_2types_2__module_8ixx.html" target="_top" xlink:title="Module facade for scoring types.">
<polygon fill="white" stroke="#666666" points="451.76,-382 245.76,-382 245.76,-363 451.76,-363 451.76,-382"/>
<text text-anchor="middle" x="348.76" y="-370" font-family="Helvetica,sans-Serif" font-size="10.00">helios.engine.mechanics.scoring.types</text>
</a>
</g>
</g>
<!-- Node2&#45;&gt;Node5 -->
<g id="edge4_Node000002_Node000005" class="edge">
<title>Node2&#45;&gt;Node5</title>
<g id="a_edge4_Node000002_Node000005"><a xlink:title=" ">
<path fill="none" stroke="#63b8ff" d="M234.68,-417.99C259.82,-408.18 293.09,-395.21 317.2,-385.81"/>
<polygon fill="#63b8ff" stroke="#63b8ff" points="318.56,-389.03 326.6,-382.14 316.02,-382.51 318.56,-389.03"/>
</a>
</g>
</g>
<!-- Node6 -->
<g id="Node000006" class="node">
<title>Node6</title>
<g id="a_Node000006"><a xlink:href="ScoreTypeId_8ixx.html" target="_top" xlink:title="Strongly&#45;typed identifier for score types.">
<polygon fill="white" stroke="#666666" points="300.26,-195 91.26,-195 91.26,-165 300.26,-165 300.26,-195"/>
<text text-anchor="start" x="99.26" y="-183" font-family="Helvetica,sans-Serif" font-size="10.00">helios.engine.mechanics.scoring.types.</text>
<text text-anchor="middle" x="195.76" y="-172" font-family="Helvetica,sans-Serif" font-size="10.00">ScoreTypeId</text>
</a>
</g>
</g>
<!-- Node5&#45;&gt;Node6 -->
<g id="edge5_Node000005_Node000006" class="edge">
<title>Node5&#45;&gt;Node6</title>
<g id="a_edge5_Node000005_Node000006"><a xlink:title=" ">
<path fill="none" stroke="#63b8ff" d="M255.99,-362.98C210.19,-356.64 154.8,-345.71 107.76,-327 57.58,-307.05 31.56,-308.43 5.76,-261 -15.7,-221.57 29.47,-201.57 81.14,-191.43"/>
<polygon fill="#63b8ff" stroke="#63b8ff" points="81.98,-194.84 91.19,-189.59 80.72,-187.95 81.98,-194.84"/>
</a>
</g>
</g>
<!-- Node11 -->
<g id="Node000011" class="node">
<title>Node11</title>
<g id="a_Node000011"><a xlink:href="ScorePoolRevision_8ixx.html" target="_top" xlink:title="Type alias for score pool revision tracking.">
<polygon fill="white" stroke="#666666" points="940.26,-261 731.26,-261 731.26,-231 940.26,-231 940.26,-261"/>
<text text-anchor="start" x="739.26" y="-249" font-family="Helvetica,sans-Serif" font-size="10.00">helios.engine.mechanics.scoring.types.</text>
<text text-anchor="middle" x="835.76" y="-238" font-family="Helvetica,sans-Serif" font-size="10.00">ScorePoolRevision</text>
</a>
</g>
</g>
<!-- Node5&#45;&gt;Node11 -->
<g id="edge10_Node000005_Node000011" class="edge">
<title>Node5&#45;&gt;Node11</title>
<g id="a_edge10_Node000005_Node000011"><a xlink:title=" ">
<path fill="none" stroke="#63b8ff" d="M410.95,-362.99C461.66,-355.43 534.9,-343.09 597.76,-327 665.91,-309.56 742.72,-282.31 790.18,-264.56"/>
<polygon fill="#63b8ff" stroke="#63b8ff" points="791.43,-267.83 799.56,-261.03 788.97,-261.28 791.43,-267.83"/>
</a>
</g>
</g>
<!-- Node13 -->
<g id="Node000013" class="node">
<title>Node13</title>
<g id="a_Node000013"><a xlink:href="ScoreContext_8ixx.html" target="_top" xlink:title="Data structure for score update information.">
<polygon fill="white" stroke="#666666" points="567.26,-327 358.26,-327 358.26,-297 567.26,-297 567.26,-327"/>
<text text-anchor="start" x="366.26" y="-315" font-family="Helvetica,sans-Serif" font-size="10.00">helios.engine.mechanics.scoring.types.</text>
<text text-anchor="middle" x="462.76" y="-304" font-family="Helvetica,sans-Serif" font-size="10.00">ScoreValueContext</text>
</a>
</g>
</g>
<!-- Node5&#45;&gt;Node13 -->
<g id="edge12_Node000005_Node000013" class="edge">
<title>Node5&#45;&gt;Node13</title>
<g id="a_edge12_Node000005_Node000013"><a xlink:title=" ">
<path fill="none" stroke="#63b8ff" d="M365.58,-362.87C381.47,-354.71 405.86,-342.2 426.22,-331.75"/>
<polygon fill="#63b8ff" stroke="#63b8ff" points="427.95,-334.79 435.25,-327.11 424.76,-328.57 427.95,-334.79"/>
</a>
</g>
</g>
<!-- Node14 -->
<g id="Node000014" class="node">
<title>Node14</title>
<g id="a_Node000014"><a xlink:href="ScorePoolId_8ixx.html" target="_top" xlink:title="Strongly&#45;typed identifier for ScorePools.">
<polygon fill="white" stroke="#666666" points="700.26,-261 491.26,-261 491.26,-231 700.26,-231 700.26,-261"/>
<text text-anchor="start" x="499.26" y="-249" font-family="Helvetica,sans-Serif" font-size="10.00">helios.engine.mechanics.scoring.types.</text>
<text text-anchor="middle" x="595.76" y="-238" font-family="Helvetica,sans-Serif" font-size="10.00">ScorePoolId</text>
</a>
</g>
</g>
<!-- Node5&#45;&gt;Node14 -->
<g id="edge29_Node000005_Node000014" class="edge">
<title>Node5&#45;&gt;Node14</title>
<g id="a_edge29_Node000005_Node000014"><a xlink:title=" ">
<path fill="none" stroke="#63b8ff" d="M446.34,-362.97C499.35,-356.35 557.85,-345.16 576.76,-327 591.66,-312.68 595.78,-288.98 596.55,-271.08"/>
<polygon fill="#63b8ff" stroke="#63b8ff" points="600.05,-271.11 596.67,-261.07 593.05,-271.03 600.05,-271.11"/>
</a>
</g>
</g>
<!-- Node20 -->
<g id="Node000020" class="node">
<title>Node20</title>
<g id="a_Node000020"><a xlink:href="Score_8ixx.html" target="_top" xlink:title="Abstract base class for score types.">
<polygon fill="white" stroke="#666666" points="224.26,-261 15.26,-261 15.26,-231 224.26,-231 224.26,-261"/>
<text text-anchor="start" x="23.26" y="-249" font-family="Helvetica,sans-Serif" font-size="10.00">helios.engine.mechanics.scoring.types.</text>
<text text-anchor="middle" x="119.76" y="-238" font-family="Helvetica,sans-Serif" font-size="10.00">Score</text>
</a>
</g>
</g>
<!-- Node5&#45;&gt;Node20 -->
<g id="edge30_Node000005_Node000020" class="edge">
<title>Node5&#45;&gt;Node20</title>
<g id="a_edge30_Node000005_Node000020"><a xlink:title=" ">
<path fill="none" stroke="#63b8ff" d="M245.53,-363.72C193.54,-357.46 138.11,-346.37 121.76,-327 108.99,-311.88 109.81,-288.82 113.05,-271.33"/>
<polygon fill="#63b8ff" stroke="#63b8ff" points="116.53,-271.81 115.28,-261.29 109.7,-270.29 116.53,-271.81"/>
</a>
</g>
</g>
<!-- Node21 -->
<g id="Node000021" class="node">
<title>Node21</title>
<g id="a_Node000021"><a xlink:href="KillReward_8ixx.html" target="_top" xlink:title="Score type awarded for killing an entity.">
<polygon fill="white" stroke="#666666" points="340.26,-327 131.26,-327 131.26,-297 340.26,-297 340.26,-327"/>
<text text-anchor="start" x="139.26" y="-315" font-family="Helvetica,sans-Serif" font-size="10.00">helios.engine.mechanics.scoring.types.</text>
<text text-anchor="middle" x="235.76" y="-304" font-family="Helvetica,sans-Serif" font-size="10.00">KillReward</text>
</a>
</g>
</g>
<!-- Node5&#45;&gt;Node21 -->
<g id="edge32_Node000005_Node000021" class="edge">
<title>Node5&#45;&gt;Node21</title>
<g id="a_edge32_Node000005_Node000021"><a xlink:title=" ">
<path fill="none" stroke="#63b8ff" d="M332.08,-362.87C316.32,-354.71 292.15,-342.2 271.97,-331.75"/>
<polygon fill="#63b8ff" stroke="#63b8ff" points="273.51,-328.6 263.02,-327.11 270.29,-334.82 273.51,-328.6"/>
</a>
</g>
</g>
<!-- Node7 -->
<g id="Node000007" class="node">
<title>Node7</title>
<g id="a_Node000007"><a xlink:title=" ">
<polygon fill="#e0e0e0" stroke="#999999" points="228.26,-129 163.26,-129 163.26,-110 228.26,-110 228.26,-129"/>
<text text-anchor="middle" x="195.76" y="-117" font-family="Helvetica,sans-Serif" font-size="10.00">functional</text>
</a>
</g>
</g>
<!-- Node6&#45;&gt;Node7 -->
<g id="edge6_Node000006_Node000007" class="edge">
<title>Node6&#45;&gt;Node7</title>
<g id="a_edge6_Node000006_Node000007"><a xlink:title=" ">
<path fill="none" stroke="#63b8ff" d="M195.76,-164.84C195.76,-157.21 195.76,-147.7 195.76,-139.45"/>
<polygon fill="#63b8ff" stroke="#63b8ff" points="199.26,-139.27 195.76,-129.27 192.26,-139.27 199.26,-139.27"/>
</a>
</g>
</g>
<!-- Node8 -->
<g id="Node000008" class="node">
<title>Node8</title>
<g id="a_Node000008"><a xlink:href="types_8ixx.html" target="_top" xlink:title="Core type definitions and tag types for the helios engine.">
<polygon fill="white" stroke="#666666" points="397.76,-74 297.76,-74 297.76,-55 397.76,-55 397.76,-74"/>
<text text-anchor="middle" x="347.76" y="-62" font-family="Helvetica,sans-Serif" font-size="10.00">helios.core.types</text>
</a>
</g>
</g>
<!-- Node6&#45;&gt;Node8 -->
<g id="edge7_Node000006_Node000008" class="edge">
<title>Node6&#45;&gt;Node8</title>
<g id="a_edge7_Node000006_Node000008"><a xlink:title=" ">
<path fill="none" stroke="#63b8ff" d="M214.7,-164.85C243.55,-143.31 298.24,-102.47 327.73,-80.46"/>
<polygon fill="#63b8ff" stroke="#63b8ff" points="330.09,-83.06 336.01,-74.27 325.9,-77.45 330.09,-83.06"/>
</a>
</g>
</g>
<!-- Node9 -->
<g id="Node000009" class="node">
<title>Node9</title>
<g id="a_Node000009"><a xlink:href="TypeIndexer_8ixx.html" target="_top" xlink:title="Utility for generating unique type indices at runtime.">
<polygon fill="white" stroke="#666666" points="550.76,-129 394.76,-129 394.76,-110 550.76,-110 550.76,-129"/>
<text text-anchor="middle" x="472.76" y="-117" font-family="Helvetica,sans-Serif" font-size="10.00">helios.core.data.TypeIndexer</text>
</a>
</g>
</g>
<!-- Node6&#45;&gt;Node9 -->
<g id="edge8_Node000006_Node000009" class="edge">
<title>Node6&#45;&gt;Node9</title>
<g id="a_edge8_Node000006_Node000009"><a xlink:title=" ">
<path fill="none" stroke="#63b8ff" d="M262.1,-164.99C311.36,-154.59 377.5,-140.62 422.44,-131.13"/>
<polygon fill="#63b8ff" stroke="#63b8ff" points="423.19,-134.54 432.25,-129.05 421.75,-127.7 423.19,-134.54"/>
</a>
</g>
</g>
<!-- Node10 -->
<g id="Node000010" class="node">
<title>Node10</title>
<g id="a_Node000010"><a xlink:title=" ">
<polygon fill="#e0e0e0" stroke="#999999" points="497.76,-74 447.76,-74 447.76,-55 497.76,-55 497.76,-74"/>
<text text-anchor="middle" x="472.76" y="-62" font-family="Helvetica,sans-Serif" font-size="10.00">atomic</text>
</a>
</g>
</g>
<!-- Node9&#45;&gt;Node10 -->
<g id="edge9_Node000009_Node000010" class="edge">
<title>Node9&#45;&gt;Node10</title>
<g id="a_edge9_Node000009_Node000010"><a xlink:title=" ">
<path fill="none" stroke="#63b8ff" d="M472.76,-109.75C472.76,-102.8 472.76,-92.85 472.76,-84.13"/>
<polygon fill="#63b8ff" stroke="#63b8ff" points="476.26,-84.09 472.76,-74.09 469.26,-84.09 476.26,-84.09"/>
</a>
</g>
</g>
<!-- Node12 -->
<g id="Node000012" class="node">
<title>Node12</title>
<g id="a_Node000012"><a xlink:title=" ">
<polygon fill="#e0e0e0" stroke="#999999" points="770.76,-19 720.76,-19 720.76,0 770.76,0 770.76,-19"/>
<text text-anchor="middle" x="745.76" y="-7" font-family="Helvetica,sans-Serif" font-size="10.00">cstdint</text>
</a>
</g>
</g>
<!-- Node11&#45;&gt;Node12 -->
<g id="edge11_Node000011_Node000012" class="edge">
<title>Node11&#45;&gt;Node12</title>
<g id="a_edge11_Node000011_Node000012"><a xlink:title=" ">
<path fill="none" stroke="#63b8ff" d="M839.21,-230.76C846.51,-197.19 860.09,-111.63 824.76,-55 814.73,-38.92 796.66,-28.13 780.34,-21.2"/>
<polygon fill="#63b8ff" stroke="#63b8ff" points="781.59,-17.93 771,-17.56 779.04,-24.45 781.59,-17.93"/>
</a>
</g>
</g>
<!-- Node13&#45;&gt;Node6 -->
<g id="edge28_Node000013_Node000006" class="edge">
<title>Node13&#45;&gt;Node6</title>
<g id="a_edge28_Node000013_Node000006"><a xlink:title=" ">
<path fill="none" stroke="#63b8ff" d="M410.03,-296.92C381.15,-288.29 345.15,-276.02 314.76,-261 280.57,-244.11 244.68,-218.79 221.38,-201.17"/>
<polygon fill="#63b8ff" stroke="#63b8ff" points="223.45,-198.36 213.38,-195.06 219.2,-203.92 223.45,-198.36"/>
</a>
</g>
</g>
<!-- Node13&#45;&gt;Node8 -->
<g id="edge13_Node000013_Node000008" class="edge">
<title>Node13&#45;&gt;Node8</title>
<g id="a_edge13_Node000013_Node000008"><a xlink:title=" ">
<path fill="none" stroke="#63b8ff" d="M453.87,-296.88C435.35,-266.93 392.11,-194.43 365.76,-129 359.86,-114.37 355.1,-97.11 351.96,-84.28"/>
<polygon fill="#63b8ff" stroke="#63b8ff" points="355.32,-83.26 349.63,-74.32 348.5,-84.86 355.32,-83.26"/>
</a>
</g>
</g>
<!-- Node13&#45;&gt;Node14 -->
<g id="edge14_Node000013_Node000014" class="edge">
<title>Node13&#45;&gt;Node14</title>
<g id="a_edge14_Node000013_Node000014"><a xlink:title=" ">
<path fill="none" stroke="#63b8ff" d="M491.94,-296.95C511.17,-287.7 536.56,-275.49 557.41,-265.45"/>
<polygon fill="#63b8ff" stroke="#63b8ff" points="559.14,-268.5 566.64,-261.01 556.11,-262.19 559.14,-268.5"/>
</a>
</g>
</g>
<!-- Node14&#45;&gt;Node8 -->
<g id="edge26_Node000014_Node000008" class="edge">
<title>Node14&#45;&gt;Node8</title>
<g id="a_edge26_Node000014_Node000008"><a xlink:title=" ">
<path fill="none" stroke="#63b8ff" d="M557.02,-230.86C511.69,-212.79 436.38,-177.9 385.76,-129 372.35,-116.05 361.94,-97.4 355.43,-83.65"/>
<polygon fill="#63b8ff" stroke="#63b8ff" points="358.51,-81.97 351.23,-74.28 352.13,-84.83 358.51,-81.97"/>
</a>
</g>
</g>
<!-- Node14&#45;&gt;Node12 -->
<g id="edge15_Node000014_Node000012" class="edge">
<title>Node14&#45;&gt;Node12</title>
<g id="a_edge15_Node000014_Node000012"><a xlink:title=" ">
<path fill="none" stroke="#63b8ff" d="M671.3,-230.89C695.09,-223.44 720.02,-212.12 738.76,-195 787.88,-150.13 817.72,-116.25 791.76,-55 786.77,-43.25 777.01,-33.09 767.75,-25.45"/>
<polygon fill="#63b8ff" stroke="#63b8ff" points="769.61,-22.47 759.54,-19.18 765.36,-28.03 769.61,-22.47"/>
</a>
</g>
</g>
<!-- Node15 -->
<g id="Node000015" class="node">
<title>Node15</title>
<g id="a_Node000015"><a xlink:title=" ">
<polygon fill="#e0e0e0" stroke="#999999" points="782.26,-74 709.26,-74 709.26,-55 782.26,-55 782.26,-74"/>
<text text-anchor="middle" x="745.76" y="-62" font-family="Helvetica,sans-Serif" font-size="10.00">string_view</text>
</a>
</g>
</g>
<!-- Node14&#45;&gt;Node15 -->
<g id="edge16_Node000014_Node000015" class="edge">
<title>Node14&#45;&gt;Node15</title>
<g id="a_edge16_Node000014_Node000015"><a xlink:title=" ">
<path fill="none" stroke="#63b8ff" d="M645.38,-230.98C667.42,-223 692.64,-211.28 711.76,-195 738.22,-172.45 744.03,-162.38 753.76,-129 758.03,-114.31 755.4,-97.06 752.04,-84.24"/>
<polygon fill="#63b8ff" stroke="#63b8ff" points="755.29,-82.88 749.07,-74.3 748.58,-84.89 755.29,-82.88"/>
</a>
</g>
</g>
<!-- Node16 -->
<g id="Node000016" class="node">
<title>Node16</title>
<g id="a_Node000016"><a xlink:href="helios_2core_2data_2__module_8ixx.html" target="_top" xlink:title="Aggregate module for helios::core::data namespace.">
<polygon fill="white" stroke="#666666" points="702.26,-189.5 607.26,-189.5 607.26,-170.5 702.26,-170.5 702.26,-189.5"/>
<text text-anchor="middle" x="654.76" y="-177.5" font-family="Helvetica,sans-Serif" font-size="10.00">helios.core.data</text>
</a>
</g>
</g>
<!-- Node14&#45;&gt;Node16 -->
<g id="edge17_Node000014_Node000016" class="edge">
<title>Node14&#45;&gt;Node16</title>
<g id="a_edge17_Node000014_Node000016"><a xlink:title=" ">
<path fill="none" stroke="#63b8ff" d="M608.85,-230.8C617.96,-220.92 630.12,-207.72 639.64,-197.39"/>
<polygon fill="#63b8ff" stroke="#63b8ff" points="642.4,-199.57 646.6,-189.84 637.25,-194.82 642.4,-199.57"/>
</a>
</g>
</g>
<!-- Node18 -->
<g id="Node000018" class="node">
<title>Node18</title>
<g id="a_Node000018"><a xlink:href="algorithms_8ixx.html" target="_top" xlink:title="Core algorithms and hash functions for the helios engine.">
<polygon fill="white" stroke="#666666" points="652.26,-74 527.26,-74 527.26,-55 652.26,-55 652.26,-74"/>
<text text-anchor="middle" x="589.76" y="-62" font-family="Helvetica,sans-Serif" font-size="10.00">helios.core.algorithms</text>
</a>
</g>
</g>
<!-- Node14&#45;&gt;Node18 -->
<g id="edge27_Node000014_Node000018" class="edge">
<title>Node14&#45;&gt;Node18</title>
<g id="a_edge27_Node000014_Node000018"><a xlink:title=" ">
<path fill="none" stroke="#63b8ff" d="M595.28,-230.91C594.21,-198.85 591.59,-120.38 590.38,-84.26"/>
<polygon fill="#63b8ff" stroke="#63b8ff" points="593.88,-84.01 590.04,-74.13 586.88,-84.25 593.88,-84.01"/>
</a>
</g>
</g>
<!-- Node16&#45;&gt;Node9 -->
<g id="edge25_Node000016_Node000009" class="edge">
<title>Node16&#45;&gt;Node9</title>
<g id="a_edge25_Node000016_Node000009"><a xlink:title=" ">
<path fill="none" stroke="#63b8ff" d="M628.29,-170.49C596.89,-160.4 544.35,-143.51 509.14,-132.19"/>
<polygon fill="#63b8ff" stroke="#63b8ff" points="509.84,-128.74 499.25,-129.02 507.7,-135.41 509.84,-128.74"/>
</a>
</g>
</g>
<!-- Node17 -->
<g id="Node000017" class="node">
<title>Node17</title>
<g id="a_Node000017"><a xlink:href="StrongId_8ixx.html" target="_top" xlink:title="Strongly&#45;typed identifier template.">
<polygon fill="white" stroke="#666666" points="744.76,-129 606.76,-129 606.76,-110 744.76,-110 744.76,-129"/>
<text text-anchor="middle" x="675.76" y="-117" font-family="Helvetica,sans-Serif" font-size="10.00">helios.core.data.StrongId</text>
</a>
</g>
</g>
<!-- Node16&#45;&gt;Node17 -->
<g id="edge18_Node000016_Node000017" class="edge">
<title>Node16&#45;&gt;Node17</title>
<g id="a_edge18_Node000016_Node000017"><a xlink:title=" ">
<path fill="none" stroke="#63b8ff" d="M657.85,-170.37C660.83,-162.07 665.43,-149.28 669.21,-138.72"/>
<polygon fill="#63b8ff" stroke="#63b8ff" points="672.56,-139.76 672.64,-129.17 665.97,-137.4 672.56,-139.76"/>
</a>
</g>
</g>
<!-- Node17&#45;&gt;Node8 -->
<g id="edge21_Node000017_Node000008" class="edge">
<title>Node17&#45;&gt;Node8</title>
<g id="a_edge21_Node000017_Node000008"><a xlink:title=" ">
<path fill="none" stroke="#63b8ff" d="M623.06,-109.98C564.3,-100.49 469.47,-85.17 407.87,-75.21"/>
<polygon fill="#63b8ff" stroke="#63b8ff" points="408.33,-71.74 397.9,-73.6 407.22,-78.65 408.33,-71.74"/>
</a>
</g>
</g>
<!-- Node17&#45;&gt;Node12 -->
<g id="edge19_Node000017_Node000012" class="edge">
<title>Node17&#45;&gt;Node12</title>
<g id="a_edge19_Node000017_Node000012"><a xlink:title=" ">
<path fill="none" stroke="#63b8ff" d="M677.95,-109.74C681.42,-96.96 689.01,-72.8 700.76,-55 707.98,-44.04 718.26,-33.63 727.17,-25.63"/>
<polygon fill="#63b8ff" stroke="#63b8ff" points="729.55,-28.2 734.84,-19.02 724.98,-22.89 729.55,-28.2"/>
</a>
</g>
</g>
<!-- Node17&#45;&gt;Node15 -->
<g id="edge20_Node000017_Node000015" class="edge">
<title>Node17&#45;&gt;Node15</title>
<g id="a_edge20_Node000017_Node000015"><a xlink:title=" ">
<path fill="none" stroke="#63b8ff" d="M687,-109.98C697.55,-102 713.56,-89.88 726.2,-80.31"/>
<polygon fill="#63b8ff" stroke="#63b8ff" points="728.44,-83 734.3,-74.17 724.22,-77.42 728.44,-83"/>
</a>
</g>
</g>
<!-- Node17&#45;&gt;Node18 -->
<g id="edge22_Node000017_Node000018" class="edge">
<title>Node17&#45;&gt;Node18</title>
<g id="a_edge22_Node000017_Node000018"><a xlink:title=" ">
<path fill="none" stroke="#63b8ff" d="M661.94,-109.98C648.6,-101.77 628.18,-89.18 612.45,-79.49"/>
<polygon fill="#63b8ff" stroke="#63b8ff" points="614.17,-76.44 603.82,-74.17 610.5,-82.4 614.17,-76.44"/>
</a>
</g>
</g>
<!-- Node18&#45;&gt;Node12 -->
<g id="edge23_Node000018_Node000012" class="edge">
<title>Node18&#45;&gt;Node12</title>
<g id="a_edge23_Node000018_Node000012"><a xlink:title=" ">
<path fill="none" stroke="#63b8ff" d="M614.82,-54.98C640.86,-46.14 681.81,-32.23 710.97,-22.32"/>
<polygon fill="#63b8ff" stroke="#63b8ff" points="712.41,-25.53 720.75,-18.99 710.16,-18.9 712.41,-25.53"/>
</a>
</g>
</g>
<!-- Node19 -->
<g id="Node000019" class="node">
<title>Node19</title>
<g id="a_Node000019"><a xlink:title=" ">
<polygon fill="#e0e0e0" stroke="#999999" points="611.76,-19 567.76,-19 567.76,0 611.76,0 611.76,-19"/>
<text text-anchor="middle" x="589.76" y="-7" font-family="Helvetica,sans-Serif" font-size="10.00">string</text>
</a>
</g>
</g>
<!-- Node18&#45;&gt;Node19 -->
<g id="edge24_Node000018_Node000019" class="edge">
<title>Node18&#45;&gt;Node19</title>
<g id="a_edge24_Node000018_Node000019"><a xlink:title=" ">
<path fill="none" stroke="#63b8ff" d="M589.76,-54.75C589.76,-47.8 589.76,-37.85 589.76,-29.13"/>
<polygon fill="#63b8ff" stroke="#63b8ff" points="593.26,-29.09 589.76,-19.09 586.26,-29.09 593.26,-29.09"/>
</a>
</g>
</g>
<!-- Node20&#45;&gt;Node6 -->
<g id="edge31_Node000020_Node000006" class="edge">
<title>Node20&#45;&gt;Node6</title>
<g id="a_edge31_Node000020_Node000006"><a xlink:title=" ">
<path fill="none" stroke="#63b8ff" d="M136.62,-230.8C146.76,-222.26 159.83,-211.25 171.11,-201.75"/>
<polygon fill="#63b8ff" stroke="#63b8ff" points="173.54,-204.28 178.94,-195.16 169.03,-198.93 173.54,-204.28"/>
</a>
</g>
</g>
<!-- Node21&#45;&gt;Node6 -->
<g id="edge33_Node000021_Node000006" class="edge">
<title>Node21&#45;&gt;Node6</title>
<g id="a_edge33_Node000021_Node000006"><a xlink:title=" ">
<path fill="none" stroke="#63b8ff" d="M237.68,-296.95C239.36,-280.6 240.48,-253.03 232.76,-231 229.25,-221.02 223.01,-211.35 216.64,-203.22"/>
<polygon fill="#63b8ff" stroke="#63b8ff" points="219.17,-200.79 210.07,-195.36 213.8,-205.28 219.17,-200.79"/>
</a>
</g>
</g>
<!-- Node21&#45;&gt;Node20 -->
<g id="edge34_Node000021_Node000020" class="edge">
<title>Node21&#45;&gt;Node20</title>
<g id="a_edge34_Node000021_Node000020"><a xlink:title=" ">
<path fill="none" stroke="#63b8ff" d="M210.3,-296.95C193.83,-287.87 172.18,-275.93 154.19,-266"/>
<polygon fill="#63b8ff" stroke="#63b8ff" points="155.6,-262.78 145.15,-261.01 152.22,-268.91 155.6,-262.78"/>
</a>
</g>
</g>
</g>
</svg>
