<?xml version="1.0" encoding="UTF-8" standalone="no"?>
<!DOCTYPE svg PUBLIC "-//W3C//DTD SVG 1.1//EN"
 "http://www.w3.org/Graphics/SVG/1.1/DTD/svg11.dtd">
<!-- Generated by graphviz version 2.43.0 (0)
 -->
<!-- Title: _module.ixx Pages: 1 -->
<svg width="192pt" height="193pt"
 viewBox="0.00 0.00 192.00 192.69" xmlns="http://www.w3.org/2000/svg" xmlns:xlink="http://www.w3.org/1999/xlink">
<g id="graph0" class="graph" transform="scale(1 1) rotate(0) translate(4 188.69)">
<title>_module.ixx</title>
<!-- Node1 -->
<g id="Node000001" class="node">
<title>Node1</title>
<g id="a_Node000001"><a xlink:title="Aggregate module for helios::engine::core namespace.">
<polygon fill="#999999" stroke="#666666" points="106.5,-184.69 29.5,-184.69 29.5,-165.69 106.5,-165.69 106.5,-184.69"/>
<text text-anchor="middle" x="68" y="-172.69" font-family="Helvetica,sans-Serif" font-size="10.00">_module.ixx</text>
</a>
</g>
</g>
<!-- Node2 -->
<g id="Node000002" class="node">
<title>Node2</title>
<g id="a_Node000002"><a xlink:href="helios_2engine_2core_2units_2__module_8ixx.html" target="_top" xlink:title="Aggregate module for helios::engine::core::units namespace.">
<polygon fill="white" stroke="#666666" points="134.5,-129.69 1.5,-129.69 1.5,-110.69 134.5,-110.69 134.5,-129.69"/>
<text text-anchor="middle" x="68" y="-117.69" font-family="Helvetica,sans-Serif" font-size="10.00">helios.engine.core.units</text>
</a>
</g>
</g>
<!-- Node1&#45;&gt;Node2 -->
<g id="edge1_Node000001_Node000002" class="edge">
<title>Node1&#45;&gt;Node2</title>
<g id="a_edge1_Node000001_Node000002"><a xlink:title=" ">
<path fill="none" stroke="#63b8ff" d="M68,-165.43C68,-158.49 68,-148.53 68,-139.82"/>
<polygon fill="#63b8ff" stroke="#63b8ff" points="71.5,-139.78 68,-129.78 64.5,-139.78 71.5,-139.78"/>
</a>
</g>
</g>
<!-- Node3 -->
<g id="Node000003" class="node">
<title>Node3</title>
<g id="a_Node000003"><a xlink:href="Unit_8ixx.html" target="_top" xlink:title=" ">
<polygon fill="white" stroke="#666666" points="128,-74.69 8,-74.69 8,-55.69 128,-55.69 128,-74.69"/>
<text text-anchor="middle" x="68" y="-62.69" font-family="Helvetica,sans-Serif" font-size="10.00">helios.core.units.Unit</text>
</a>
</g>
</g>
<!-- Node2&#45;&gt;Node3 -->
<g id="edge2_Node000002_Node000003" class="edge">
<title>Node2&#45;&gt;Node3</title>
<g id="a_edge2_Node000002_Node000003"><a xlink:title=" ">
<path fill="none" stroke="#63b8ff" d="M68,-110.43C68,-103.49 68,-93.53 68,-84.82"/>
<polygon fill="#63b8ff" stroke="#63b8ff" points="71.5,-84.78 68,-74.78 64.5,-84.78 71.5,-84.78"/>
</a>
</g>
</g>
<!-- Node4 -->
<g id="Node000004" class="node">
<title>Node4</title>
<g id="a_Node000004"><a xlink:title=" ">
<polygon fill="#e0e0e0" stroke="#999999" points="44,-19.69 0,-19.69 0,-0.69 44,-0.69 44,-19.69"/>
<text text-anchor="middle" x="22" y="-7.69" font-family="Helvetica,sans-Serif" font-size="10.00">string</text>
</a>
</g>
</g>
<!-- Node3&#45;&gt;Node4 -->
<g id="edge3_Node000003_Node000004" class="edge">
<title>Node3&#45;&gt;Node4</title>
<g id="a_edge3_Node000003_Node000004"><a xlink:title=" ">
<path fill="none" stroke="#63b8ff" d="M60.4,-55.43C53.84,-47.87 44.18,-36.74 36.19,-27.53"/>
<polygon fill="#63b8ff" stroke="#63b8ff" points="38.65,-25.03 29.45,-19.78 33.37,-29.62 38.65,-25.03"/>
</a>
</g>
</g>
<!-- Node5 -->
<g id="Node000005" class="node">
<title>Node5</title>
<g id="a_Node000005"><a xlink:href="helios_2math_2types_2__module_8ixx.html" target="_top" xlink:title="Module exports for vector and matrix type definitions.">
<polygon fill="white" stroke="#666666" points="166,-19.69 62,-19.69 62,-0.69 166,-0.69 166,-19.69"/>
<text text-anchor="middle" x="114" y="-7.69" font-family="Helvetica,sans-Serif" font-size="10.00">helios.math.types</text>
</a>
</g>
</g>
<!-- Node3&#45;&gt;Node5 -->
<g id="edge4_Node000003_Node000005" class="edge">
<title>Node3&#45;&gt;Node5</title>
<g id="a_edge4_Node000003_Node000005"><a xlink:title=" ">
<path fill="none" stroke="#63b8ff" d="M75.6,-55.43C82.16,-47.87 91.82,-36.74 99.81,-27.53"/>
<polygon fill="#63b8ff" stroke="#63b8ff" points="102.63,-29.62 106.55,-19.78 97.35,-25.03 102.63,-29.62"/>
</a>
</g>
</g>
<!-- Node5&#45;&gt;Node5 -->
<g id="edge5_Node000005_Node000005" class="edge">
<title>Node5&#45;&gt;Node5</title>
<g id="a_edge5_Node000005_Node000005"><a xlink:title=" ">
<path fill="none" stroke="#63b8ff" d="M146.77,-19.72C166,-21.75 184,-18.57 184,-10.19 184,-3.31 171.89,0.07 156.92,-0.07"/>
<polygon fill="#63b8ff" stroke="#63b8ff" points="156.55,3.42 146.77,-0.66 156.95,-3.57 156.55,3.42"/>
</a>
</g>
</g>
</g>
</svg>
