<?xml version="1.0" encoding="UTF-8" standalone="no"?>
<!DOCTYPE svg PUBLIC "-//W3C//DTD SVG 1.1//EN"
 "http://www.w3.org/Graphics/SVG/1.1/DTD/svg11.dtd">
<!-- Generated by graphviz version 2.43.0 (0)
 -->
<!-- Title: _module.ixx Pages: 1 -->
<svg width="1061pt" height="346pt"
 viewBox="0.00 0.00 1060.73 346.00" xmlns="http://www.w3.org/2000/svg" xmlns:xlink="http://www.w3.org/1999/xlink">
<g id="graph0" class="graph" transform="scale(1 1) rotate(0) translate(4 342)">
<title>_module.ixx</title>
<!-- Node1 -->
<g id="Node000001" class="node">
<title>Node1</title>
<g id="a_Node000001"><a xlink:title="Aggregate module for helios::core::container::buffer namespace.">
<polygon fill="#999999" stroke="#666666" points="679.12,-338 602.12,-338 602.12,-319 679.12,-319 679.12,-338"/>
<text text-anchor="middle" x="640.62" y="-326" font-family="Helvetica,sans-Serif" font-size="10.00">_module.ixx</text>
</a>
</g>
</g>
<!-- Node2 -->
<g id="Node000002" class="node">
<title>Node2</title>
<g id="a_Node000002"><a xlink:href="TypeIndexedReadWriteBuffer_8ixx.html" target="_top" xlink:title="Type&#45;indexed single&#45;buffered message system for immediate&#45;access patterns.">
<polygon fill="white" stroke="#666666" points="185.62,-283 27.62,-283 27.62,-253 185.62,-253 185.62,-283"/>
<text text-anchor="start" x="35.62" y="-271" font-family="Helvetica,sans-Serif" font-size="10.00">helios.core.container.buffer.</text>
<text text-anchor="middle" x="106.62" y="-260" font-family="Helvetica,sans-Serif" font-size="10.00">TypeIndexedReadWriteBuffer</text>
</a>
</g>
</g>
<!-- Node1&#45;&gt;Node2 -->
<g id="edge1_Node000001_Node000002" class="edge">
<title>Node1&#45;&gt;Node2</title>
<g id="a_edge1_Node000001_Node000002"><a xlink:title=" ">
<path fill="none" stroke="#63b8ff" d="M601.99,-323.34C529.42,-315.51 367.76,-298.03 231.62,-283 220.01,-281.72 207.79,-280.36 195.72,-279.01"/>
<polygon fill="#63b8ff" stroke="#63b8ff" points="195.96,-275.52 185.64,-277.89 195.19,-282.48 195.96,-275.52"/>
</a>
</g>
</g>
<!-- Node6 -->
<g id="Node000006" class="node">
<title>Node6</title>
<g id="a_Node000006"><a xlink:href="ReadWriteBuffer_8ixx.html" target="_top" xlink:title="Combined read&#45;write buffer for single&#45;buffered access patterns.">
<polygon fill="white" stroke="#666666" points="286.62,-217 134.62,-217 134.62,-187 286.62,-187 286.62,-217"/>
<text text-anchor="start" x="142.62" y="-205" font-family="Helvetica,sans-Serif" font-size="10.00">helios.core.container.buffer.</text>
<text text-anchor="middle" x="210.62" y="-194" font-family="Helvetica,sans-Serif" font-size="10.00">ReadWriteBuffer</text>
</a>
</g>
</g>
<!-- Node1&#45;&gt;Node6 -->
<g id="edge39_Node000001_Node000006" class="edge">
<title>Node1&#45;&gt;Node6</title>
<g id="a_edge39_Node000001_Node000006"><a xlink:title=" ">
<path fill="none" stroke="#63b8ff" d="M602.09,-325.31C524.8,-320.45 353.69,-307.24 300.62,-283 271.47,-269.69 244.95,-243.63 228.38,-224.86"/>
<polygon fill="#63b8ff" stroke="#63b8ff" points="230.86,-222.38 221.69,-217.08 225.55,-226.94 230.86,-222.38"/>
</a>
</g>
</g>
<!-- Node7 -->
<g id="Node000007" class="node">
<title>Node7</title>
<g id="a_Node000007"><a xlink:href="Buffer_8ixx.html" target="_top" xlink:title="Abstract base class for buffer implementations.">
<polygon fill="white" stroke="#666666" points="287.62,-151 135.62,-151 135.62,-121 287.62,-121 287.62,-151"/>
<text text-anchor="start" x="143.62" y="-139" font-family="Helvetica,sans-Serif" font-size="10.00">helios.core.container.buffer.</text>
<text text-anchor="middle" x="211.62" y="-128" font-family="Helvetica,sans-Serif" font-size="10.00">Buffer</text>
</a>
</g>
</g>
<!-- Node1&#45;&gt;Node7 -->
<g id="edge42_Node000001_Node000007" class="edge">
<title>Node1&#45;&gt;Node7</title>
<g id="a_edge42_Node000001_Node000007"><a xlink:title=" ">
<path fill="none" stroke="#63b8ff" d="M605.92,-318.95C547.35,-303.68 426.23,-268.42 333.62,-217 314.81,-206.55 313.35,-199.2 295.62,-187 279.73,-176.06 261.38,-164.98 245.9,-156.04"/>
<polygon fill="#63b8ff" stroke="#63b8ff" points="247.57,-152.96 237.16,-151.04 244.1,-159.04 247.57,-152.96"/>
</a>
</g>
</g>
<!-- Node10 -->
<g id="Node000010" class="node">
<title>Node10</title>
<g id="a_Node000010"><a xlink:href="TypeIndexedDoubleBuffer_8ixx.html" target="_top" xlink:title="Double&#45;buffered, type&#45;indexed message system for decoupled inter&#45;system communication.">
<polygon fill="white" stroke="#666666" points="768.62,-283 616.62,-283 616.62,-253 768.62,-253 768.62,-283"/>
<text text-anchor="start" x="624.62" y="-271" font-family="Helvetica,sans-Serif" font-size="10.00">helios.core.container.buffer.</text>
<text text-anchor="middle" x="692.62" y="-260" font-family="Helvetica,sans-Serif" font-size="10.00">TypeIndexedDoubleBuffer</text>
</a>
</g>
</g>
<!-- Node1&#45;&gt;Node10 -->
<g id="edge15_Node000001_Node000010" class="edge">
<title>Node1&#45;&gt;Node10</title>
<g id="a_edge15_Node000001_Node000010"><a xlink:title=" ">
<path fill="none" stroke="#63b8ff" d="M648.3,-318.87C654.89,-311.44 664.7,-300.42 673.41,-290.62"/>
<polygon fill="#63b8ff" stroke="#63b8ff" points="676.05,-292.91 680.08,-283.11 670.82,-288.26 676.05,-292.91"/>
</a>
</g>
</g>
<!-- Node11 -->
<g id="Node000011" class="node">
<title>Node11</title>
<g id="a_Node000011"><a xlink:href="ReadWriteDoubleBuffer_8ixx.html" target="_top" xlink:title="Type&#45;safe double&#45;buffered container for producer&#45;consumer patterns.">
<polygon fill="white" stroke="#666666" points="858.62,-217 706.62,-217 706.62,-187 858.62,-187 858.62,-217"/>
<text text-anchor="start" x="714.62" y="-205" font-family="Helvetica,sans-Serif" font-size="10.00">helios.core.container.buffer.</text>
<text text-anchor="middle" x="782.62" y="-194" font-family="Helvetica,sans-Serif" font-size="10.00">ReadWriteDoubleBuffer</text>
</a>
</g>
</g>
<!-- Node1&#45;&gt;Node11 -->
<g id="edge38_Node000001_Node000011" class="edge">
<title>Node1&#45;&gt;Node11</title>
<g id="a_edge38_Node000001_Node000011"><a xlink:title=" ">
<path fill="none" stroke="#63b8ff" d="M679.18,-326.24C710.98,-322.96 754.48,-312.84 777.62,-283 789.77,-267.34 789.95,-244.34 787.71,-227.01"/>
<polygon fill="#63b8ff" stroke="#63b8ff" points="791.16,-226.39 786.1,-217.08 784.25,-227.51 791.16,-226.39"/>
</a>
</g>
</g>
<!-- Node12 -->
<g id="Node000012" class="node">
<title>Node12</title>
<g id="a_Node000012"><a xlink:href="ReadBuffer_8ixx.html" target="_top" xlink:title="Read&#45;only buffer for the double&#45;buffering pattern.">
<polygon fill="white" stroke="#666666" points="934.62,-85 782.62,-85 782.62,-55 934.62,-55 934.62,-85"/>
<text text-anchor="start" x="790.62" y="-73" font-family="Helvetica,sans-Serif" font-size="10.00">helios.core.container.buffer.</text>
<text text-anchor="middle" x="858.62" y="-62" font-family="Helvetica,sans-Serif" font-size="10.00">ReadBuffer</text>
</a>
</g>
</g>
<!-- Node1&#45;&gt;Node12 -->
<g id="edge40_Node000001_Node000012" class="edge">
<title>Node1&#45;&gt;Node12</title>
<g id="a_edge40_Node000001_Node000012"><a xlink:title=" ">
<path fill="none" stroke="#63b8ff" d="M679.32,-325.73C766.97,-319.3 978.39,-289.46 1047.62,-151 1071.06,-104.13 1005.19,-84.71 944.9,-76.67"/>
<polygon fill="#63b8ff" stroke="#63b8ff" points="945.25,-73.19 934.9,-75.43 944.39,-80.13 945.25,-73.19"/>
</a>
</g>
</g>
<!-- Node13 -->
<g id="Node000013" class="node">
<title>Node13</title>
<g id="a_Node000013"><a xlink:href="WriteBuffer_8ixx.html" target="_top" xlink:title="Write&#45;only buffer for the double&#45;buffering pattern.">
<polygon fill="white" stroke="#666666" points="1038.62,-151 886.62,-151 886.62,-121 1038.62,-121 1038.62,-151"/>
<text text-anchor="start" x="894.62" y="-139" font-family="Helvetica,sans-Serif" font-size="10.00">helios.core.container.buffer.</text>
<text text-anchor="middle" x="962.62" y="-128" font-family="Helvetica,sans-Serif" font-size="10.00">WriteBuffer</text>
</a>
</g>
</g>
<!-- Node1&#45;&gt;Node13 -->
<g id="edge37_Node000001_Node000013" class="edge">
<title>Node1&#45;&gt;Node13</title>
<g id="a_edge37_Node000001_Node000013"><a xlink:title=" ">
<path fill="none" stroke="#63b8ff" d="M679.34,-323.48C741.1,-315.01 861.83,-289.66 929.62,-217 944.22,-201.35 952.79,-178.35 957.52,-161.02"/>
<polygon fill="#63b8ff" stroke="#63b8ff" points="960.98,-161.63 959.99,-151.08 954.18,-159.95 960.98,-161.63"/>
</a>
</g>
</g>
<!-- Node14 -->
<g id="Node000014" class="node">
<title>Node14</title>
<g id="a_Node000014"><a xlink:href="DoubleBuffer_8ixx.html" target="_top" xlink:title="Double&#45;buffered, type&#45;indexed message system for decoupled inter&#45;system communication.">
<polygon fill="white" stroke="#666666" points="678.62,-151 526.62,-151 526.62,-121 678.62,-121 678.62,-151"/>
<text text-anchor="start" x="534.62" y="-139" font-family="Helvetica,sans-Serif" font-size="10.00">helios.core.container.buffer.</text>
<text text-anchor="middle" x="602.62" y="-128" font-family="Helvetica,sans-Serif" font-size="10.00">DoubleBuffer</text>
</a>
</g>
</g>
<!-- Node1&#45;&gt;Node14 -->
<g id="edge41_Node000001_Node000014" class="edge">
<title>Node1&#45;&gt;Node14</title>
<g id="a_edge41_Node000001_Node000014"><a xlink:title=" ">
<path fill="none" stroke="#63b8ff" d="M631.72,-318.92C623.74,-310.59 612.57,-297.16 607.62,-283 593.38,-242.24 595.87,-191.12 599.14,-161.45"/>
<polygon fill="#63b8ff" stroke="#63b8ff" points="602.65,-161.54 600.39,-151.19 595.7,-160.69 602.65,-161.54"/>
</a>
</g>
</g>
<!-- Node3 -->
<g id="Node000003" class="node">
<title>Node3</title>
<g id="a_Node000003"><a xlink:title=" ">
<polygon fill="#e0e0e0" stroke="#999999" points="501.62,-79.5 443.62,-79.5 443.62,-60.5 501.62,-60.5 501.62,-79.5"/>
<text text-anchor="middle" x="472.62" y="-67.5" font-family="Helvetica,sans-Serif" font-size="10.00">memory</text>
</a>
</g>
</g>
<!-- Node2&#45;&gt;Node3 -->
<g id="edge2_Node000002_Node000003" class="edge">
<title>Node2&#45;&gt;Node3</title>
<g id="a_edge2_Node000002_Node000003"><a xlink:title=" ">
<path fill="none" stroke="#63b8ff" d="M103.3,-252.63C97.38,-222.85 88.87,-154.39 126.62,-121 171.44,-81.37 352.43,-73.13 433.28,-71.43"/>
<polygon fill="#63b8ff" stroke="#63b8ff" points="433.61,-74.92 443.54,-71.24 433.48,-67.92 433.61,-74.92"/>
</a>
</g>
</g>
<!-- Node4 -->
<g id="Node000004" class="node">
<title>Node4</title>
<g id="a_Node000004"><a xlink:title=" ">
<polygon fill="#e0e0e0" stroke="#999999" points="397.62,-19 357.62,-19 357.62,0 397.62,0 397.62,-19"/>
<text text-anchor="middle" x="377.62" y="-7" font-family="Helvetica,sans-Serif" font-size="10.00">span</text>
</a>
</g>
</g>
<!-- Node2&#45;&gt;Node4 -->
<g id="edge3_Node000002_Node000004" class="edge">
<title>Node2&#45;&gt;Node4</title>
<g id="a_edge3_Node000002_Node000004"><a xlink:title=" ">
<path fill="none" stroke="#63b8ff" d="M60.98,-252.87C43.96,-245.14 26.41,-233.64 16.62,-217 -5.01,-180.23 -5.92,-157.23 16.62,-121 52.49,-63.35 266.78,-26.63 347.18,-14.73"/>
<polygon fill="#63b8ff" stroke="#63b8ff" points="347.78,-18.18 357.17,-13.28 346.77,-11.25 347.78,-18.18"/>
</a>
</g>
</g>
<!-- Node5 -->
<g id="Node000005" class="node">
<title>Node5</title>
<g id="a_Node000005"><a xlink:title=" ">
<polygon fill="#e0e0e0" stroke="#999999" points="685.12,-19 638.12,-19 638.12,0 685.12,0 685.12,-19"/>
<text text-anchor="middle" x="661.62" y="-7" font-family="Helvetica,sans-Serif" font-size="10.00">vector</text>
</a>
</g>
</g>
<!-- Node2&#45;&gt;Node5 -->
<g id="edge4_Node000002_Node000005" class="edge">
<title>Node2&#45;&gt;Node5</title>
<g id="a_edge4_Node000002_Node000005"><a xlink:title=" ">
<path fill="none" stroke="#63b8ff" d="M100.91,-252.94C90.31,-224.34 71.47,-158.89 103.62,-121 172.1,-40.29 517.14,-17.27 627.57,-11.91"/>
<polygon fill="#63b8ff" stroke="#63b8ff" points="627.98,-15.4 637.81,-11.44 627.65,-8.41 627.98,-15.4"/>
</a>
</g>
</g>
<!-- Node2&#45;&gt;Node6 -->
<g id="edge5_Node000002_Node000006" class="edge">
<title>Node2&#45;&gt;Node6</title>
<g id="a_edge5_Node000002_Node000006"><a xlink:title=" ">
<path fill="none" stroke="#63b8ff" d="M129.45,-252.95C144.08,-243.95 163.26,-232.14 179.31,-222.27"/>
<polygon fill="#63b8ff" stroke="#63b8ff" points="181.17,-225.23 187.85,-217.01 177.5,-219.27 181.17,-225.23"/>
</a>
</g>
</g>
<!-- Node2&#45;&gt;Node7 -->
<g id="edge12_Node000002_Node000007" class="edge">
<title>Node2&#45;&gt;Node7</title>
<g id="a_edge12_Node000002_Node000007"><a xlink:title=" ">
<path fill="none" stroke="#63b8ff" d="M106.7,-252.88C107.48,-235.71 111.07,-206.6 125.62,-187 135.42,-173.81 149.82,-163.51 164.04,-155.78"/>
<polygon fill="#63b8ff" stroke="#63b8ff" points="165.98,-158.72 173.31,-151.07 162.81,-152.48 165.98,-158.72"/>
</a>
</g>
</g>
<!-- Node8 -->
<g id="Node000008" class="node">
<title>Node8</title>
<g id="a_Node000008"><a xlink:href="TypeIndexer_8ixx.html" target="_top" xlink:title="Utility for generating unique type indices at runtime.">
<polygon fill="white" stroke="#666666" points="498.62,-211.5 342.62,-211.5 342.62,-192.5 498.62,-192.5 498.62,-211.5"/>
<text text-anchor="middle" x="420.62" y="-199.5" font-family="Helvetica,sans-Serif" font-size="10.00">helios.core.data.TypeIndexer</text>
</a>
</g>
</g>
<!-- Node2&#45;&gt;Node8 -->
<g id="edge13_Node000002_Node000008" class="edge">
<title>Node2&#45;&gt;Node8</title>
<g id="a_edge13_Node000002_Node000008"><a xlink:title=" ">
<path fill="none" stroke="#63b8ff" d="M175.53,-252.95C233.87,-241.06 316.21,-224.28 369.01,-213.52"/>
<polygon fill="#63b8ff" stroke="#63b8ff" points="369.74,-216.94 378.83,-211.52 368.34,-210.09 369.74,-216.94"/>
</a>
</g>
</g>
<!-- Node6&#45;&gt;Node4 -->
<g id="edge6_Node000006_Node000004" class="edge">
<title>Node6&#45;&gt;Node4</title>
<g id="a_edge6_Node000006_Node000004"><a xlink:title=" ">
<path fill="none" stroke="#63b8ff" d="M169.27,-186.81C152.96,-178.95 135.93,-167.38 126.62,-151 120.03,-139.41 120.08,-132.62 126.62,-121 171.64,-41.12 290.98,-18.89 347.34,-12.78"/>
<polygon fill="#63b8ff" stroke="#63b8ff" points="347.8,-16.25 357.41,-11.78 347.12,-9.28 347.8,-16.25"/>
</a>
</g>
</g>
<!-- Node6&#45;&gt;Node5 -->
<g id="edge7_Node000006_Node000005" class="edge">
<title>Node6&#45;&gt;Node5</title>
<g id="a_edge7_Node000006_Node000005"><a xlink:title=" ">
<path fill="none" stroke="#63b8ff" d="M236.74,-186.97C254.07,-177.38 277.12,-164.09 296.62,-151 314.78,-138.81 317.85,-133.74 335.62,-121 378.61,-90.19 385.73,-75.14 434.62,-55 499.77,-28.16 582.23,-17.21 627.68,-12.97"/>
<polygon fill="#63b8ff" stroke="#63b8ff" points="628.22,-16.44 637.87,-12.08 627.6,-9.47 628.22,-16.44"/>
</a>
</g>
</g>
<!-- Node6&#45;&gt;Node7 -->
<g id="edge8_Node000006_Node000007" class="edge">
<title>Node6&#45;&gt;Node7</title>
<g id="a_edge8_Node000006_Node000007"><a xlink:title=" ">
<path fill="none" stroke="#63b8ff" d="M210.84,-186.8C210.96,-179.34 211.11,-169.99 211.24,-161.41"/>
<polygon fill="#63b8ff" stroke="#63b8ff" points="214.74,-161.22 211.4,-151.16 207.75,-161.11 214.74,-161.22"/>
</a>
</g>
</g>
<!-- Node7&#45;&gt;Node3 -->
<g id="edge9_Node000007_Node000003" class="edge">
<title>Node7&#45;&gt;Node3</title>
<g id="a_edge9_Node000007_Node000003"><a xlink:title=" ">
<path fill="none" stroke="#63b8ff" d="M268.9,-120.95C318.77,-108.73 389.74,-91.32 433.4,-80.62"/>
<polygon fill="#63b8ff" stroke="#63b8ff" points="434.47,-83.96 443.35,-78.18 432.81,-77.16 434.47,-83.96"/>
</a>
</g>
</g>
<!-- Node7&#45;&gt;Node4 -->
<g id="edge10_Node000007_Node000004" class="edge">
<title>Node7&#45;&gt;Node4</title>
<g id="a_edge10_Node000007_Node000004"><a xlink:title=" ">
<path fill="none" stroke="#63b8ff" d="M218.23,-120.98C227.17,-103.38 244.67,-73.26 267.62,-55 291.35,-36.11 324.17,-24.23 347.77,-17.55"/>
<polygon fill="#63b8ff" stroke="#63b8ff" points="348.83,-20.89 357.58,-14.91 347.02,-14.12 348.83,-20.89"/>
</a>
</g>
</g>
<!-- Node7&#45;&gt;Node5 -->
<g id="edge11_Node000007_Node000005" class="edge">
<title>Node7&#45;&gt;Node5</title>
<g id="a_edge11_Node000007_Node000005"><a xlink:title=" ">
<path fill="none" stroke="#63b8ff" d="M239.53,-120.85C275.93,-102.96 342.01,-72.4 401.62,-55 481.04,-31.82 577.84,-19.19 627.95,-13.77"/>
<polygon fill="#63b8ff" stroke="#63b8ff" points="628.33,-17.25 637.91,-12.72 627.6,-10.29 628.33,-17.25"/>
</a>
</g>
</g>
<!-- Node9 -->
<g id="Node000009" class="node">
<title>Node9</title>
<g id="a_Node000009"><a xlink:title=" ">
<polygon fill="#e0e0e0" stroke="#999999" points="394.62,-145.5 344.62,-145.5 344.62,-126.5 394.62,-126.5 394.62,-145.5"/>
<text text-anchor="middle" x="369.62" y="-133.5" font-family="Helvetica,sans-Serif" font-size="10.00">atomic</text>
</a>
</g>
</g>
<!-- Node8&#45;&gt;Node9 -->
<g id="edge14_Node000008_Node000009" class="edge">
<title>Node8&#45;&gt;Node9</title>
<g id="a_edge14_Node000008_Node000009"><a xlink:title=" ">
<path fill="none" stroke="#63b8ff" d="M413.74,-192.37C405.96,-182.59 393.07,-166.42 383.23,-154.08"/>
<polygon fill="#63b8ff" stroke="#63b8ff" points="385.69,-151.54 376.72,-145.91 380.21,-155.91 385.69,-151.54"/>
</a>
</g>
</g>
<!-- Node10&#45;&gt;Node3 -->
<g id="edge16_Node000010_Node000003" class="edge">
<title>Node10&#45;&gt;Node3</title>
<g id="a_edge16_Node000010_Node000003"><a xlink:title=" ">
<path fill="none" stroke="#63b8ff" d="M664.82,-252.93C611.51,-225.73 499.19,-167.18 487.62,-151 474.75,-132.99 472.01,-107.06 471.83,-89.65"/>
<polygon fill="#63b8ff" stroke="#63b8ff" points="475.33,-89.66 472,-79.61 468.33,-89.55 475.33,-89.66"/>
</a>
</g>
</g>
<!-- Node10&#45;&gt;Node4 -->
<g id="edge17_Node000010_Node000004" class="edge">
<title>Node10&#45;&gt;Node4</title>
<g id="a_edge17_Node000010_Node000004"><a xlink:title=" ">
<path fill="none" stroke="#63b8ff" d="M629.7,-252.97C601.25,-244.99 567.96,-233.27 540.62,-217 536.03,-214.27 474.07,-155.09 470.62,-151 436.06,-109.94 403.27,-55.57 387.47,-28.06"/>
<polygon fill="#63b8ff" stroke="#63b8ff" points="390.42,-26.18 382.44,-19.21 384.34,-29.63 390.42,-26.18"/>
</a>
</g>
</g>
<!-- Node10&#45;&gt;Node5 -->
<g id="edge18_Node000010_Node000005" class="edge">
<title>Node10&#45;&gt;Node5</title>
<g id="a_edge18_Node000010_Node000005"><a xlink:title=" ">
<path fill="none" stroke="#63b8ff" d="M693.06,-252.83C693.66,-226.65 694.03,-169.02 687.62,-121 683.25,-88.23 673.44,-50.96 667.2,-29.16"/>
<polygon fill="#63b8ff" stroke="#63b8ff" points="670.48,-27.89 664.31,-19.27 663.76,-29.85 670.48,-27.89"/>
</a>
</g>
</g>
<!-- Node10&#45;&gt;Node8 -->
<g id="edge36_Node000010_Node000008" class="edge">
<title>Node10&#45;&gt;Node8</title>
<g id="a_edge36_Node000010_Node000008"><a xlink:title=" ">
<path fill="none" stroke="#63b8ff" d="M632.93,-252.95C582.92,-241.19 512.55,-224.63 466.77,-213.86"/>
<polygon fill="#63b8ff" stroke="#63b8ff" points="467.36,-210.4 456.82,-211.52 465.75,-217.21 467.36,-210.4"/>
</a>
</g>
</g>
<!-- Node10&#45;&gt;Node11 -->
<g id="edge19_Node000010_Node000011" class="edge">
<title>Node10&#45;&gt;Node11</title>
<g id="a_edge19_Node000010_Node000011"><a xlink:title=" ">
<path fill="none" stroke="#63b8ff" d="M712.6,-252.8C724.83,-244.1 740.68,-232.82 754.21,-223.2"/>
<polygon fill="#63b8ff" stroke="#63b8ff" points="756.58,-225.81 762.7,-217.16 752.53,-220.11 756.58,-225.81"/>
</a>
</g>
</g>
<!-- Node10&#45;&gt;Node12 -->
<g id="edge33_Node000010_Node000012" class="edge">
<title>Node10&#45;&gt;Node12</title>
<g id="a_edge33_Node000010_Node000012"><a xlink:title=" ">
<path fill="none" stroke="#63b8ff" d="M769.08,-254.5C810.32,-246.03 855.25,-233.4 867.62,-217 881.62,-198.44 871,-131.77 863.81,-95.28"/>
<polygon fill="#63b8ff" stroke="#63b8ff" points="867.14,-94.12 861.72,-85.01 860.28,-95.51 867.14,-94.12"/>
</a>
</g>
</g>
<!-- Node10&#45;&gt;Node13 -->
<g id="edge34_Node000010_Node000013" class="edge">
<title>Node10&#45;&gt;Node13</title>
<g id="a_edge34_Node000010_Node000013"><a xlink:title=" ">
<path fill="none" stroke="#63b8ff" d="M768.65,-261.06C810.32,-254.91 861.32,-242.4 900.62,-217 922.49,-202.87 939.81,-178.3 950.53,-160.1"/>
<polygon fill="#63b8ff" stroke="#63b8ff" points="953.65,-161.69 955.52,-151.26 947.56,-158.25 953.65,-161.69"/>
</a>
</g>
</g>
<!-- Node10&#45;&gt;Node14 -->
<g id="edge35_Node000010_Node000014" class="edge">
<title>Node10&#45;&gt;Node14</title>
<g id="a_edge35_Node000010_Node000014"><a xlink:title=" ">
<path fill="none" stroke="#63b8ff" d="M682.82,-252.84C667.27,-230.37 636.8,-186.36 618.22,-159.53"/>
<polygon fill="#63b8ff" stroke="#63b8ff" points="620.98,-157.37 612.41,-151.14 615.23,-161.36 620.98,-157.37"/>
</a>
</g>
</g>
<!-- Node11&#45;&gt;Node3 -->
<g id="edge20_Node000011_Node000003" class="edge">
<title>Node11&#45;&gt;Node3</title>
<g id="a_edge20_Node000011_Node000003"><a xlink:title=" ">
<path fill="none" stroke="#63b8ff" d="M706.49,-193.82C639.21,-186.2 547.29,-172.29 517.62,-151 496.63,-135.93 484.17,-107.85 477.87,-89.29"/>
<polygon fill="#63b8ff" stroke="#63b8ff" points="481.17,-88.13 474.84,-79.63 474.49,-90.22 481.17,-88.13"/>
</a>
</g>
</g>
<!-- Node11&#45;&gt;Node4 -->
<g id="edge21_Node000011_Node000004" class="edge">
<title>Node11&#45;&gt;Node4</title>
<g id="a_edge21_Node000011_Node000004"><a xlink:title=" ">
<path fill="none" stroke="#63b8ff" d="M768.45,-186.94C750.67,-169.83 718.74,-140.78 687.62,-121 594.56,-61.85 465.64,-29.09 407.81,-16.54"/>
<polygon fill="#63b8ff" stroke="#63b8ff" points="408.37,-13.08 397.86,-14.43 406.92,-19.93 408.37,-13.08"/>
</a>
</g>
</g>
<!-- Node11&#45;&gt;Node5 -->
<g id="edge22_Node000011_Node000005" class="edge">
<title>Node11&#45;&gt;Node5</title>
<g id="a_edge22_Node000011_Node000005"><a xlink:title=" ">
<path fill="none" stroke="#63b8ff" d="M779.8,-186.94C773.54,-158.89 756.17,-95.25 720.62,-55 710.2,-43.2 696.21,-32.49 684.47,-24.53"/>
<polygon fill="#63b8ff" stroke="#63b8ff" points="686.31,-21.55 676.03,-19.01 682.48,-27.41 686.31,-21.55"/>
</a>
</g>
</g>
<!-- Node11&#45;&gt;Node12 -->
<g id="edge23_Node000011_Node000012" class="edge">
<title>Node11&#45;&gt;Node12</title>
<g id="a_edge23_Node000011_Node000012"><a xlink:title=" ">
<path fill="none" stroke="#63b8ff" d="M790.9,-186.84C803.98,-164.47 829.54,-120.74 845.25,-93.88"/>
<polygon fill="#63b8ff" stroke="#63b8ff" points="848.33,-95.54 850.36,-85.14 842.29,-92.01 848.33,-95.54"/>
</a>
</g>
</g>
<!-- Node11&#45;&gt;Node13 -->
<g id="edge26_Node000011_Node000013" class="edge">
<title>Node11&#45;&gt;Node13</title>
<g id="a_edge26_Node000011_Node000013"><a xlink:title=" ">
<path fill="none" stroke="#63b8ff" d="M822.12,-186.95C849.09,-177.37 884.99,-164.6 913.76,-154.37"/>
<polygon fill="#63b8ff" stroke="#63b8ff" points="914.96,-157.66 923.21,-151.01 912.62,-151.06 914.96,-157.66"/>
</a>
</g>
</g>
<!-- Node11&#45;&gt;Node14 -->
<g id="edge29_Node000011_Node000014" class="edge">
<title>Node11&#45;&gt;Node14</title>
<g id="a_edge29_Node000011_Node000014"><a xlink:title=" ">
<path fill="none" stroke="#63b8ff" d="M743.12,-186.95C716.16,-177.37 680.25,-164.6 651.49,-154.37"/>
<polygon fill="#63b8ff" stroke="#63b8ff" points="652.63,-151.06 642.03,-151.01 650.28,-157.66 652.63,-151.06"/>
</a>
</g>
</g>
<!-- Node12&#45;&gt;Node4 -->
<g id="edge24_Node000012_Node000004" class="edge">
<title>Node12&#45;&gt;Node4</title>
<g id="a_edge24_Node000012_Node000004"><a xlink:title=" ">
<path fill="none" stroke="#63b8ff" d="M782.41,-59.73C674.6,-46.62 482.42,-23.25 408.12,-14.21"/>
<polygon fill="#63b8ff" stroke="#63b8ff" points="408.38,-10.72 398.04,-12.98 407.54,-17.66 408.38,-10.72"/>
</a>
</g>
</g>
<!-- Node12&#45;&gt;Node5 -->
<g id="edge25_Node000012_Node000005" class="edge">
<title>Node12&#45;&gt;Node5</title>
<g id="a_edge25_Node000012_Node000005"><a xlink:title=" ">
<path fill="none" stroke="#63b8ff" d="M811.44,-54.99C775.49,-44.31 726.89,-29.88 694.92,-20.39"/>
<polygon fill="#63b8ff" stroke="#63b8ff" points="695.74,-16.98 685.16,-17.49 693.75,-23.69 695.74,-16.98"/>
</a>
</g>
</g>
<!-- Node13&#45;&gt;Node5 -->
<g id="edge27_Node000013_Node000005" class="edge">
<title>Node13&#45;&gt;Node5</title>
<g id="a_edge27_Node000013_Node000005"><a xlink:title=" ">
<path fill="none" stroke="#63b8ff" d="M963.63,-120.83C964.08,-102.77 961.85,-71.88 943.62,-55 908.07,-22.07 762.3,-13.48 695.43,-11.26"/>
<polygon fill="#63b8ff" stroke="#63b8ff" points="695.51,-7.76 685.41,-10.96 695.3,-14.76 695.51,-7.76"/>
</a>
</g>
</g>
<!-- Node13&#45;&gt;Node12 -->
<g id="edge28_Node000013_Node000012" class="edge">
<title>Node13&#45;&gt;Node12</title>
<g id="a_edge28_Node000013_Node000012"><a xlink:title=" ">
<path fill="none" stroke="#63b8ff" d="M939.8,-120.95C925.17,-111.95 905.98,-100.14 889.94,-90.27"/>
<polygon fill="#63b8ff" stroke="#63b8ff" points="891.74,-87.27 881.39,-85.01 888.08,-93.23 891.74,-87.27"/>
</a>
</g>
</g>
<!-- Node14&#45;&gt;Node3 -->
<g id="edge30_Node000014_Node000003" class="edge">
<title>Node14&#45;&gt;Node3</title>
<g id="a_edge30_Node000014_Node000003"><a xlink:title=" ">
<path fill="none" stroke="#63b8ff" d="M574.09,-120.95C551.7,-109.93 520.76,-94.7 498.95,-83.96"/>
<polygon fill="#63b8ff" stroke="#63b8ff" points="500.44,-80.79 489.92,-79.52 497.35,-87.07 500.44,-80.79"/>
</a>
</g>
</g>
<!-- Node14&#45;&gt;Node4 -->
<g id="edge31_Node000014_Node000004" class="edge">
<title>Node14&#45;&gt;Node4</title>
<g id="a_edge31_Node000014_Node000004"><a xlink:title=" ">
<path fill="none" stroke="#63b8ff" d="M589.91,-120.96C573.25,-103.32 542.41,-73.17 510.62,-55 477.82,-36.25 435.92,-23.88 408,-17.05"/>
<polygon fill="#63b8ff" stroke="#63b8ff" points="408.57,-13.58 398.03,-14.69 406.96,-20.4 408.57,-13.58"/>
</a>
</g>
</g>
<!-- Node14&#45;&gt;Node5 -->
<g id="edge32_Node000014_Node000005" class="edge">
<title>Node14&#45;&gt;Node5</title>
<g id="a_edge32_Node000014_Node000005"><a xlink:title=" ">
<path fill="none" stroke="#63b8ff" d="M609.39,-120.72C620.2,-97.92 641.33,-53.33 653.13,-28.42"/>
<polygon fill="#63b8ff" stroke="#63b8ff" points="656.44,-29.61 657.56,-19.07 650.12,-26.61 656.44,-29.61"/>
</a>
</g>
</g>
</g>
</svg>
