<?xml version="1.0" encoding="UTF-8" standalone="no"?>
<!DOCTYPE svg PUBLIC "-//W3C//DTD SVG 1.1//EN"
 "http://www.w3.org/Graphics/SVG/1.1/DTD/svg11.dtd">
<!-- Generated by graphviz version 2.43.0 (0)
 -->
<!-- Title: include/helios/util/io/_module.ixx Pages: 1 -->
<!--zoomable 390 -->

<svg id="main" version="1.1" xmlns="http://www.w3.org/2000/svg" xmlns:xlink="http://www.w3.org/1999/xlink" xml:space="preserve" onload="init(evt)">

<style type="text/css"><![CDATA[
.node, .edge {opacity: 0.7;}
.node.selected, .edge.selected {opacity: 1;}
.edge:hover path { stroke: red; }
.edge:hover polygon { stroke: red; fill: red; }
]]></style>

<defs>
  <circle id="rim" cx="0" cy="0" r="7"/>
  <circle id="rim2" cx="0" cy="0" r="3.5"/>
  <g id="zoomPlus">
    <use xlink:href="#rim" fill="#404040"><set attributeName="fill" to="#808080" begin="zoomplus.mouseover" end="zoomplus.mouseout"/></use>
    <path d="M-4,0h8M0,-4v8" fill="none" stroke="white" stroke-width="1.5" pointer-events="none"/>
  </g>
  <g id="zoomMin">
    <use xlink:href="#rim" fill="#404040"><set attributeName="fill" to="#808080" begin="zoomminus.mouseover" end="zoomminus.mouseout"/></use>
    <path d="M-4,0h8" fill="none" stroke="white" stroke-width="1.5" pointer-events="none"/>
  </g>
  <g id="arrowUp" transform="translate(30 24)">
    <use xlink:href="#rim"/>
    <path pointer-events="none" fill="none" stroke="white" stroke-width="1.5" d="M0,-3.0v7 M-2.5,-0.5L0,-3.0L2.5,-0.5"/>
  </g>
  <g id="arrowRight" transform="rotate(90) translate(36 -43)">
    <use xlink:href="#rim"/>
    <path pointer-events="none" fill="none" stroke="white" stroke-width="1.5" d="M0,-3.0v7 M-2.5,-0.5L0,-3.0L2.5,-0.5"/>
  </g>
  <g id="arrowDown" transform="rotate(180) translate(-30 -48)">
    <use xlink:href="#rim"/>
    <path pointer-events="none" fill="none" stroke="white" stroke-width="1.5" d="M0,-3.0v7 M-2.5,-0.5L0,-3.0L2.5,-0.5"/>
  </g>
  <g id="arrowLeft" transform="rotate(270) translate(-36 17)">
    <use xlink:href="#rim"/>
    <path pointer-events="none" fill="none" stroke="white" stroke-width="1.5" d="M0,-3.0v7 M-2.5,-0.5L0,-3.0L2.5,-0.5"/>
  </g>
  <g id="resetDef">
    <use xlink:href="#rim2" fill="#404040"><set attributeName="fill" to="#808080" begin="reset.mouseover" end="reset.mouseout"/></use>
  </g>
</defs>
<script type="application/ecmascript">
var viewWidth = 710;
var viewHeight = 390;
var sectionId = 'dynsection-0';
</script>
<script type="application/ecmascript" xlink:href="svg.min.js"/>
<svg id="graph" class="graph">
<g id="viewport">
<title>include/helios/util/io/_module.ixx</title>
<!-- Node1 -->
<g id="Node000001" class="node">
<title>Node1</title>
<g id="a_Node000001"><a xlink:title="Module exports for IO utilities.">
<polygon fill="#999999" stroke="#666666" points="215.5,-382 112.5,-382 112.5,-352 215.5,-352 215.5,-382"/>
<text text-anchor="start" x="120.5" y="-370" font-family="Helvetica,sans-Serif" font-size="10.00">include/helios/util</text>
<text text-anchor="middle" x="164" y="-359" font-family="Helvetica,sans-Serif" font-size="10.00">/io/_module.ixx</text>
</a>
</g>
</g>
<!-- Node2 -->
<g id="Node000002" class="node">
<title>Node2</title>
<g id="a_Node000002"><a xlink:href="BasicStringFileReader_8ixx.html" target="_top" xlink:title="Basic file&#45;to&#45;string reader implementation.">
<polygon fill="white" stroke="#666666" points="184,-316 50,-316 50,-286 184,-286 184,-316"/>
<text text-anchor="start" x="58" y="-304" font-family="Helvetica,sans-Serif" font-size="10.00">helios.util.io.BasicString</text>
<text text-anchor="middle" x="117" y="-293" font-family="Helvetica,sans-Serif" font-size="10.00">FileReader</text>
</a>
</g>
</g>
<!-- Node1&#45;&gt;Node2 -->
<g id="edge1_Node000001_Node000002" class="edge">
<title>Node1&#45;&gt;Node2</title>
<g id="a_edge1_Node000001_Node000002"><a xlink:title=" ">
<path fill="none" stroke="#63b8ff" d="M153.57,-351.8C147.67,-343.76 140.15,-333.53 133.47,-324.43"/>
<polygon fill="#63b8ff" stroke="#63b8ff" points="136.14,-322.15 127.4,-316.16 130.5,-326.3 136.14,-322.15"/>
</a>
</g>
</g>
<!-- Node4 -->
<g id="Node000004" class="node">
<title>Node4</title>
<g id="a_Node000004"><a xlink:href="StringFileReader_8ixx.html" target="_top" xlink:title="Abstract base class for reading file contents into a string.">
<polygon fill="white" stroke="#666666" points="274.5,-250 149.5,-250 149.5,-220 274.5,-220 274.5,-250"/>
<text text-anchor="start" x="157.5" y="-238" font-family="Helvetica,sans-Serif" font-size="10.00">helios.util.io.StringFile</text>
<text text-anchor="middle" x="212" y="-227" font-family="Helvetica,sans-Serif" font-size="10.00">Reader</text>
</a>
</g>
</g>
<!-- Node1&#45;&gt;Node4 -->
<g id="edge22_Node000001_Node000004" class="edge">
<title>Node1&#45;&gt;Node4</title>
<g id="a_edge22_Node000001_Node000004"><a xlink:title=" ">
<path fill="none" stroke="#63b8ff" d="M173.81,-351.7C180.08,-342 187.95,-328.68 193,-316 200.17,-298.01 205.08,-276.61 208.11,-260.48"/>
<polygon fill="#63b8ff" stroke="#63b8ff" points="211.62,-260.71 209.91,-250.25 204.73,-259.5 211.62,-260.71"/>
</a>
</g>
</g>
<!-- Node3 -->
<g id="Node000003" class="node">
<title>Node3</title>
<g id="a_Node000003"><a xlink:title=" ">
<polygon fill="#e0e0e0" stroke="#999999" points="98,-19 54,-19 54,0 98,0 98,-19"/>
<text text-anchor="middle" x="76" y="-7" font-family="Helvetica,sans-Serif" font-size="10.00">string</text>
</a>
</g>
</g>
<!-- Node2&#45;&gt;Node3 -->
<g id="edge2_Node000002_Node000003" class="edge">
<title>Node2&#45;&gt;Node3</title>
<g id="a_edge2_Node000002_Node000003"><a xlink:title=" ">
<path fill="none" stroke="#63b8ff" d="M88.98,-285.92C54.36,-266.3 0,-227.26 0,-175.5 0,-175.5 0,-175.5 0,-118.5 0,-79.47 33.61,-44.58 56.13,-25.6"/>
<polygon fill="#63b8ff" stroke="#63b8ff" points="58.56,-28.14 64.12,-19.12 54.15,-22.7 58.56,-28.14"/>
</a>
</g>
</g>
<!-- Node2&#45;&gt;Node4 -->
<g id="edge3_Node000002_Node000004" class="edge">
<title>Node2&#45;&gt;Node4</title>
<g id="a_edge3_Node000002_Node000004"><a xlink:title=" ">
<path fill="none" stroke="#63b8ff" d="M138.08,-285.8C151.12,-277.01 168.05,-265.61 182.42,-255.93"/>
<polygon fill="#63b8ff" stroke="#63b8ff" points="184.64,-258.65 190.98,-250.16 180.73,-252.85 184.64,-258.65"/>
</a>
</g>
</g>
<!-- Node4&#45;&gt;Node3 -->
<g id="edge4_Node000004_Node000003" class="edge">
<title>Node4&#45;&gt;Node3</title>
<g id="a_edge4_Node000004_Node000003"><a xlink:title=" ">
<path fill="none" stroke="#63b8ff" d="M184.26,-219.94C153.45,-202.81 104.68,-170.89 79,-129 60.07,-98.11 65.75,-53.67 71.15,-28.92"/>
<polygon fill="#63b8ff" stroke="#63b8ff" points="74.59,-29.6 73.52,-19.05 67.78,-27.96 74.59,-29.6"/>
</a>
</g>
</g>
<!-- Node5 -->
<g id="Node000005" class="node">
<title>Node5</title>
<g id="a_Node000005"><a xlink:href="LogManager_8ixx.html" target="_top" xlink:title="Central manager for scoped loggers with configurable sinks.">
<polygon fill="white" stroke="#666666" points="403,-184 257,-184 257,-165 403,-165 403,-184"/>
<text text-anchor="middle" x="330" y="-172" font-family="Helvetica,sans-Serif" font-size="10.00">helios.util.log.LogManager</text>
</a>
</g>
</g>
<!-- Node4&#45;&gt;Node5 -->
<g id="edge5_Node000004_Node000005" class="edge">
<title>Node4&#45;&gt;Node5</title>
<g id="a_edge5_Node000004_Node000005"><a xlink:title=" ">
<path fill="none" stroke="#63b8ff" d="M240.26,-219.99C259.42,-210.49 284.58,-198.02 303.39,-188.69"/>
<polygon fill="#63b8ff" stroke="#63b8ff" points="305.17,-191.72 312.57,-184.14 302.06,-185.45 305.17,-191.72"/>
</a>
</g>
</g>
<!-- Node11 -->
<g id="Node000011" class="node">
<title>Node11</title>
<g id="a_Node000011"><a xlink:href="Logger_8ixx.html" target="_top" xlink:title="Simple synchronous logger with configurable output sinks.">
<polygon fill="white" stroke="#666666" points="553.5,-129 434.5,-129 434.5,-110 553.5,-110 553.5,-129"/>
<text text-anchor="middle" x="494" y="-117" font-family="Helvetica,sans-Serif" font-size="10.00">helios.util.log.Logger</text>
</a>
</g>
</g>
<!-- Node4&#45;&gt;Node11 -->
<g id="edge21_Node000004_Node000011" class="edge">
<title>Node4&#45;&gt;Node11</title>
<g id="a_edge21_Node000004_Node000011"><a xlink:title=" ">
<path fill="none" stroke="#63b8ff" d="M274.67,-225.19C315.29,-217.85 368.53,-205.1 412,-184 437.15,-171.79 461.95,-151.04 477.58,-136.59"/>
<polygon fill="#63b8ff" stroke="#63b8ff" points="480.41,-138.73 485.26,-129.31 475.6,-133.65 480.41,-138.73"/>
</a>
</g>
</g>
<!-- Node5&#45;&gt;Node3 -->
<g id="edge6_Node000005_Node000003" class="edge">
<title>Node5&#45;&gt;Node3</title>
<g id="a_edge6_Node000005_Node000003"><a xlink:title=" ">
<path fill="none" stroke="#63b8ff" d="M256.94,-168.72C196.5,-163.18 117.11,-151.74 95,-129 69.06,-102.32 70.07,-55.2 73.05,-29.14"/>
<polygon fill="#63b8ff" stroke="#63b8ff" points="76.53,-29.47 74.42,-19.09 69.6,-28.52 76.53,-29.47"/>
</a>
</g>
</g>
<!-- Node6 -->
<g id="Node000006" class="node">
<title>Node6</title>
<g id="a_Node000006"><a xlink:title=" ">
<polygon fill="#e0e0e0" stroke="#999999" points="197.5,-129 104.5,-129 104.5,-110 197.5,-110 197.5,-129"/>
<text text-anchor="middle" x="151" y="-117" font-family="Helvetica,sans-Serif" font-size="10.00">unordered_map</text>
</a>
</g>
</g>
<!-- Node5&#45;&gt;Node6 -->
<g id="edge7_Node000005_Node000006" class="edge">
<title>Node5&#45;&gt;Node6</title>
<g id="a_edge7_Node000005_Node000006"><a xlink:title=" ">
<path fill="none" stroke="#63b8ff" d="M301.24,-164.98C271.06,-156.05 223.43,-141.94 189.9,-132.02"/>
<polygon fill="#63b8ff" stroke="#63b8ff" points="190.57,-128.57 179.98,-129.08 188.58,-135.28 190.57,-128.57"/>
</a>
</g>
</g>
<!-- Node7 -->
<g id="Node000007" class="node">
<title>Node7</title>
<g id="a_Node000007"><a xlink:title=" ">
<polygon fill="#e0e0e0" stroke="#999999" points="302,-129 216,-129 216,-110 302,-110 302,-129"/>
<text text-anchor="middle" x="259" y="-117" font-family="Helvetica,sans-Serif" font-size="10.00">unordered_set</text>
</a>
</g>
</g>
<!-- Node5&#45;&gt;Node7 -->
<g id="edge8_Node000005_Node000007" class="edge">
<title>Node5&#45;&gt;Node7</title>
<g id="a_edge8_Node000005_Node000007"><a xlink:title=" ">
<path fill="none" stroke="#63b8ff" d="M318.59,-164.98C307.89,-157 291.66,-144.88 278.84,-135.31"/>
<polygon fill="#63b8ff" stroke="#63b8ff" points="280.72,-132.35 270.61,-129.17 276.53,-137.96 280.72,-132.35"/>
</a>
</g>
</g>
<!-- Node8 -->
<g id="Node000008" class="node">
<title>Node8</title>
<g id="a_Node000008"><a xlink:title=" ">
<polygon fill="#e0e0e0" stroke="#999999" points="312,-74 254,-74 254,-55 312,-55 312,-74"/>
<text text-anchor="middle" x="283" y="-62" font-family="Helvetica,sans-Serif" font-size="10.00">memory</text>
</a>
</g>
</g>
<!-- Node5&#45;&gt;Node8 -->
<g id="edge9_Node000005_Node000008" class="edge">
<title>Node5&#45;&gt;Node8</title>
<g id="a_edge9_Node000005_Node000008"><a xlink:title=" ">
<path fill="none" stroke="#63b8ff" d="M328.14,-164.6C325.35,-152.06 319.47,-128.65 311,-110 306.71,-100.56 300.72,-90.74 295.38,-82.73"/>
<polygon fill="#63b8ff" stroke="#63b8ff" points="298.11,-80.53 289.55,-74.3 292.36,-84.51 298.11,-80.53"/>
</a>
</g>
</g>
<!-- Node9 -->
<g id="Node000009" class="node">
<title>Node9</title>
<g id="a_Node000009"><a xlink:title=" ">
<polygon fill="#e0e0e0" stroke="#999999" points="378,-74 330,-74 330,-55 378,-55 378,-74"/>
<text text-anchor="middle" x="354" y="-62" font-family="Helvetica,sans-Serif" font-size="10.00">mutex</text>
</a>
</g>
</g>
<!-- Node5&#45;&gt;Node9 -->
<g id="edge10_Node000005_Node000009" class="edge">
<title>Node5&#45;&gt;Node9</title>
<g id="a_edge10_Node000005_Node000009"><a xlink:title=" ">
<path fill="none" stroke="#63b8ff" d="M333.18,-164.74C336.31,-155.84 341.04,-141.62 344,-129 347.47,-114.19 350.08,-97.16 351.76,-84.46"/>
<polygon fill="#63b8ff" stroke="#63b8ff" points="355.28,-84.56 353.04,-74.21 348.33,-83.7 355.28,-84.56"/>
</a>
</g>
</g>
<!-- Node10 -->
<g id="Node000010" class="node">
<title>Node10</title>
<g id="a_Node000010"><a xlink:title=" ">
<polygon fill="#e0e0e0" stroke="#999999" points="443.5,-74 396.5,-74 396.5,-55 443.5,-55 443.5,-74"/>
<text text-anchor="middle" x="420" y="-62" font-family="Helvetica,sans-Serif" font-size="10.00">vector</text>
</a>
</g>
</g>
<!-- Node5&#45;&gt;Node10 -->
<g id="edge11_Node000005_Node000010" class="edge">
<title>Node5&#45;&gt;Node10</title>
<g id="a_edge11_Node000005_Node000010"><a xlink:title=" ">
<path fill="none" stroke="#63b8ff" d="M337.37,-164.66C352.4,-146.61 386.85,-105.28 406.19,-82.08"/>
<polygon fill="#63b8ff" stroke="#63b8ff" points="409.07,-84.08 412.78,-74.16 403.69,-79.6 409.07,-84.08"/>
</a>
</g>
</g>
<!-- Node5&#45;&gt;Node11 -->
<g id="edge12_Node000005_Node000011" class="edge">
<title>Node5&#45;&gt;Node11</title>
<g id="a_edge12_Node000005_Node000011"><a xlink:title=" ">
<path fill="none" stroke="#63b8ff" d="M356.35,-164.98C383.76,-156.13 426.89,-142.19 457.56,-132.28"/>
<polygon fill="#63b8ff" stroke="#63b8ff" points="459,-135.49 467.44,-129.08 456.85,-128.83 459,-135.49"/>
</a>
</g>
</g>
<!-- Node13 -->
<g id="Node000013" class="node">
<title>Node13</title>
<g id="a_Node000013"><a xlink:href="LogSink_8ixx.html" target="_top" xlink:title="Abstract interface for log output destinations.">
<polygon fill="white" stroke="#666666" points="702,-74 578,-74 578,-55 702,-55 702,-74"/>
<text text-anchor="middle" x="640" y="-62" font-family="Helvetica,sans-Serif" font-size="10.00">helios.util.log.LogSink</text>
</a>
</g>
</g>
<!-- Node5&#45;&gt;Node13 -->
<g id="edge20_Node000005_Node000013" class="edge">
<title>Node5&#45;&gt;Node13</title>
<g id="a_edge20_Node000005_Node000013"><a xlink:title=" ">
<path fill="none" stroke="#63b8ff" d="M403.23,-168.92C450.64,-163.72 512.68,-152.64 563,-129 587.61,-117.44 610.99,-96.19 625.39,-81.47"/>
<polygon fill="#63b8ff" stroke="#63b8ff" points="628.07,-83.73 632.42,-74.07 622.99,-78.91 628.07,-83.73"/>
</a>
</g>
</g>
<!-- Node11&#45;&gt;Node3 -->
<g id="edge14_Node000011_Node000003" class="edge">
<title>Node11&#45;&gt;Node3</title>
<g id="a_edge14_Node000011_Node000003"><a xlink:title=" ">
<path fill="none" stroke="#63b8ff" d="M491.13,-109.75C485.97,-95.58 473.71,-67.91 453,-55 395.73,-19.29 188.8,-12.24 108.33,-10.84"/>
<polygon fill="#63b8ff" stroke="#63b8ff" points="108.33,-7.34 98.28,-10.69 108.23,-14.34 108.33,-7.34"/>
</a>
</g>
</g>
<!-- Node11&#45;&gt;Node8 -->
<g id="edge16_Node000011_Node000008" class="edge">
<title>Node11&#45;&gt;Node8</title>
<g id="a_edge16_Node000011_Node000008"><a xlink:title=" ">
<path fill="none" stroke="#63b8ff" d="M460.1,-109.98C422.38,-100.51 361.53,-85.23 321.9,-75.27"/>
<polygon fill="#63b8ff" stroke="#63b8ff" points="322.61,-71.84 312.06,-72.8 320.91,-78.63 322.61,-71.84"/>
</a>
</g>
</g>
<!-- Node11&#45;&gt;Node9 -->
<g id="edge17_Node000011_Node000009" class="edge">
<title>Node11&#45;&gt;Node9</title>
<g id="a_edge17_Node000011_Node000009"><a xlink:title=" ">
<path fill="none" stroke="#63b8ff" d="M471.51,-109.98C448.48,-101.27 412.46,-87.63 386.37,-77.75"/>
<polygon fill="#63b8ff" stroke="#63b8ff" points="387.49,-74.44 376.9,-74.17 385.02,-80.98 387.49,-74.44"/>
</a>
</g>
</g>
<!-- Node11&#45;&gt;Node10 -->
<g id="edge15_Node000011_Node000010" class="edge">
<title>Node11&#45;&gt;Node10</title>
<g id="a_edge15_Node000011_Node000010"><a xlink:title=" ">
<path fill="none" stroke="#63b8ff" d="M482.11,-109.98C470.85,-101.92 453.71,-89.65 440.29,-80.03"/>
<polygon fill="#63b8ff" stroke="#63b8ff" points="442.27,-77.15 432.11,-74.17 438.2,-82.84 442.27,-77.15"/>
</a>
</g>
</g>
<!-- Node12 -->
<g id="Node000012" class="node">
<title>Node12</title>
<g id="a_Node000012"><a xlink:title=" ">
<polygon fill="#e0e0e0" stroke="#999999" points="560,-74 500,-74 500,-55 560,-55 560,-74"/>
<text text-anchor="middle" x="530" y="-62" font-family="Helvetica,sans-Serif" font-size="10.00">iostream</text>
</a>
</g>
</g>
<!-- Node11&#45;&gt;Node12 -->
<g id="edge13_Node000011_Node000012" class="edge">
<title>Node11&#45;&gt;Node12</title>
<g id="a_edge13_Node000011_Node000012"><a xlink:title=" ">
<path fill="none" stroke="#63b8ff" d="M499.94,-109.75C504.98,-102.34 512.34,-91.5 518.51,-82.41"/>
<polygon fill="#63b8ff" stroke="#63b8ff" points="521.44,-84.33 524.17,-74.09 515.65,-80.39 521.44,-84.33"/>
</a>
</g>
</g>
<!-- Node11&#45;&gt;Node13 -->
<g id="edge18_Node000011_Node000013" class="edge">
<title>Node11&#45;&gt;Node13</title>
<g id="a_edge18_Node000011_Node000013"><a xlink:title=" ">
<path fill="none" stroke="#63b8ff" d="M517.46,-109.98C541.58,-101.23 579.37,-87.51 606.6,-77.62"/>
<polygon fill="#63b8ff" stroke="#63b8ff" points="607.91,-80.87 616.12,-74.17 605.52,-74.29 607.91,-80.87"/>
</a>
</g>
</g>
<!-- Node13&#45;&gt;Node3 -->
<g id="edge19_Node000013_Node000003" class="edge">
<title>Node13&#45;&gt;Node3</title>
<g id="a_edge19_Node000013_Node000003"><a xlink:title=" ">
<path fill="none" stroke="#63b8ff" d="M577.67,-55.93C574.74,-55.61 571.84,-55.3 569,-55 395.54,-36.79 187.26,-19.49 108.39,-13.09"/>
<polygon fill="#63b8ff" stroke="#63b8ff" points="108.38,-9.58 98.13,-12.27 107.82,-16.56 108.38,-9.58"/>
</a>
</g>
</g>
</g>
</svg>

<g id="navigator" transform="translate(0 0)" fill="#404254">
  <rect fill="#f2f5e9" fill-opacity="0.5" stroke="#606060" stroke-width=".5" x="0" y="0" width="60" height="60"/>
  <use id="zoomplus" xlink:href="#zoomPlus" x="17" y="9" onmousedown="handleZoom(evt,'in')"/>
  <use id="zoomminus" xlink:href="#zoomMin" x="42" y="9" onmousedown="handleZoom(evt,'out')"/>
  <use id="reset" xlink:href="#resetDef" x="30" y="36" onmousedown="handleReset()"/>
   <use id="arrowup" xlink:href="#arrowUp" x="0" y="0" onmousedown="handlePan(0,-1)"/>
  <use id="arrowright" xlink:href="#arrowRight" x="0" y="0" onmousedown="handlePan(1,0)"/>
  <use id="arrowdown" xlink:href="#arrowDown" x="0" y="0" onmousedown="handlePan(0,1)"/>
  <use id="arrowleft" xlink:href="#arrowLeft" x="0" y="0" onmousedown="handlePan(-1,0)"/>
</g>
<svg viewBox="0 0 15 15" width="100%" height="30px" preserveAspectRatio="xMaxYMin meet">
 <g id="arrow_out" transform="scale(0.3 0.3)">
  <a xlink:href="helios_2util_2io_2__module_8ixx__incl_org.svg" target="_base">
   <rect id="button" ry="5" rx="5" y="6" x="6" height="38" width="38"
        fill="#f2f5e9" fill-opacity="0.5" stroke="#606060" stroke-width="1.0"/>
   <path id="arrow"
     d="M 11.500037,31.436501 C 11.940474,20.09759 22.043105,11.32322 32.158766,21.979434 L 37.068811,17.246167 C 37.068811,17.246167 37.088388,32 37.088388,32 L 22.160133,31.978069 C 22.160133,31.978069 26.997745,27.140456 26.997745,27.140456 C 18.528582,18.264221 13.291696,25.230495 11.500037,31.436501 z"
     style="fill:#404040;"/>
  </a>
 </g>
</svg>

<style type='text/css'>
<![CDATA[
[data-mouse-over-selected='false'] { opacity: 0.7; }
[data-mouse-over-selected='true']  { opacity: 1.0; }
]]>
</style>
<script type="application/ecmascript"><![CDATA[
document.addEventListener('DOMContentLoaded', (event) => {
  highlightEdges();
  highlightAdjacentNodes();
});
]]></script>
</svg>
