<?xml version="1.0" encoding="UTF-8" standalone="no"?>
<!DOCTYPE svg PUBLIC "-//W3C//DTD SVG 1.1//EN"
 "http://www.w3.org/Graphics/SVG/1.1/DTD/svg11.dtd">
<!-- Generated by graphviz version 2.43.0 (0)
 -->
<!-- Title: _module.ixx Pages: 1 -->
<svg width="347pt" height="379pt"
 viewBox="0.00 0.00 347.00 379.00" xmlns="http://www.w3.org/2000/svg" xmlns:xlink="http://www.w3.org/1999/xlink">

<svg id="main" version="1.1" xmlns="http://www.w3.org/2000/svg" xmlns:xlink="http://www.w3.org/1999/xlink" xml:space="preserve">

<style type="text/css"><![CDATA[
.node, .edge {opacity: 0.7;}
.node.selected, .edge.selected {opacity: 1;}
.edge:hover path { stroke: red; }
.edge:hover polygon { stroke: red; fill: red; }
]]></style>
<script type="application/ecmascript" xlink:href="svg.min.js"/>
<svg id="graph" class="graph">
<g id="graph0" class="graph" transform="scale(1 1) rotate(0) translate(4 375)">
<title>_module.ixx</title>
<!-- Node1 -->
<g id="Node000001" class="node">
<title>Node1</title>
<g id="a_Node000001"><a xlink:title="Module exports for window event types and handlers.">
<polygon fill="#999999" stroke="#666666" points="189.5,-371 112.5,-371 112.5,-352 189.5,-352 189.5,-371"/>
<text text-anchor="middle" x="151" y="-359" font-family="Helvetica,sans-Serif" font-size="10.00">_module.ixx</text>
</a>
</g>
</g>
<!-- Node2 -->
<g id="Node000002" class="node">
<title>Node2</title>
<g id="a_Node000002"><a xlink:href="FrameBufferResizeEvent_8ixx.html" target="_top" xlink:title="Event representing a change in the framebuffer size.">
<polygon fill="white" stroke="#666666" points="175,-316 25,-316 25,-286 175,-286 175,-316"/>
<text text-anchor="start" x="33" y="-304" font-family="Helvetica,sans-Serif" font-size="10.00">helios.window.event.Frame</text>
<text text-anchor="middle" x="100" y="-293" font-family="Helvetica,sans-Serif" font-size="10.00">BufferResizeEvent</text>
</a>
</g>
</g>
<!-- Node1&#45;&gt;Node2 -->
<g id="edge1_Node000001_Node000002" class="edge">
<title>Node1&#45;&gt;Node2</title>
<g id="a_edge1_Node000001_Node000002"><a xlink:title=" ">
<path fill="none" stroke="#63b8ff" d="M143.47,-351.87C137.07,-344.52 127.58,-333.63 119.1,-323.91"/>
<polygon fill="#63b8ff" stroke="#63b8ff" points="121.51,-321.35 112.31,-316.11 116.24,-325.95 121.51,-321.35"/>
</a>
</g>
</g>
<!-- Node10 -->
<g id="Node000010" class="node">
<title>Node10</title>
<g id="a_Node000010"><a xlink:href="WindowEvent_8ixx.html" target="_top" xlink:title="Abstract base class for window&#45;related events.">
<polygon fill="white" stroke="#666666" points="292,-250 134,-250 134,-220 292,-220 292,-250"/>
<text text-anchor="start" x="142" y="-238" font-family="Helvetica,sans-Serif" font-size="10.00">helios.window.event.Window</text>
<text text-anchor="middle" x="213" y="-227" font-family="Helvetica,sans-Serif" font-size="10.00">Event</text>
</a>
</g>
</g>
<!-- Node1&#45;&gt;Node10 -->
<g id="edge18_Node000001_Node000010" class="edge">
<title>Node1&#45;&gt;Node10</title>
<g id="a_edge18_Node000001_Node000010"><a xlink:title=" ">
<path fill="none" stroke="#63b8ff" d="M158.64,-351.81C165.92,-343.2 176.81,-329.39 184,-316 193.63,-298.06 201.3,-276.26 206.32,-259.94"/>
<polygon fill="#63b8ff" stroke="#63b8ff" points="209.75,-260.69 209.24,-250.11 203.04,-258.7 209.75,-260.69"/>
</a>
</g>
</g>
<!-- Node3 -->
<g id="Node000003" class="node">
<title>Node3</title>
<g id="a_Node000003"><a xlink:title=" ">
<polygon fill="#e0e0e0" stroke="#999999" points="170,-19 120,-19 120,0 170,0 170,-19"/>
<text text-anchor="middle" x="145" y="-7" font-family="Helvetica,sans-Serif" font-size="10.00">cstdint</text>
</a>
</g>
</g>
<!-- Node2&#45;&gt;Node3 -->
<g id="edge2_Node000002_Node000003" class="edge">
<title>Node2&#45;&gt;Node3</title>
<g id="a_edge2_Node000002_Node000003"><a xlink:title=" ">
<path fill="none" stroke="#63b8ff" d="M77.31,-285.77C47.8,-265.3 0,-224.57 0,-175.5 0,-175.5 0,-175.5 0,-118.5 0,-63.87 67.02,-33.6 109.93,-19.82"/>
<polygon fill="#63b8ff" stroke="#63b8ff" points="111.2,-23.09 119.74,-16.82 109.16,-16.4 111.2,-23.09"/>
</a>
</g>
</g>
<!-- Node4 -->
<g id="Node000004" class="node">
<title>Node4</title>
<g id="a_Node000004"><a xlink:title=" ">
<polygon fill="#e0e0e0" stroke="#999999" points="150,-129 106,-129 106,-110 150,-110 150,-129"/>
<text text-anchor="middle" x="128" y="-117" font-family="Helvetica,sans-Serif" font-size="10.00">string</text>
</a>
</g>
</g>
<!-- Node2&#45;&gt;Node4 -->
<g id="edge3_Node000002_Node000004" class="edge">
<title>Node2&#45;&gt;Node4</title>
<g id="a_edge3_Node000002_Node000004"><a xlink:title=" ">
<path fill="none" stroke="#63b8ff" d="M82.77,-285.73C73.18,-276.63 62.18,-263.96 57,-250 52.36,-237.5 52.93,-232.7 57,-220 67.72,-186.52 94.29,-154.71 111.71,-136.43"/>
<polygon fill="#63b8ff" stroke="#63b8ff" points="114.48,-138.61 118.98,-129.02 109.48,-133.71 114.48,-138.61"/>
</a>
</g>
</g>
<!-- Node5 -->
<g id="Node000005" class="node">
<title>Node5</title>
<g id="a_Node000005"><a xlink:title=" ">
<polygon fill="#e0e0e0" stroke="#999999" points="116,-244.5 66,-244.5 66,-225.5 116,-225.5 116,-244.5"/>
<text text-anchor="middle" x="91" y="-232.5" font-family="Helvetica,sans-Serif" font-size="10.00">format</text>
</a>
</g>
</g>
<!-- Node2&#45;&gt;Node5 -->
<g id="edge4_Node000002_Node000005" class="edge">
<title>Node2&#45;&gt;Node5</title>
<g id="a_edge4_Node000002_Node000005"><a xlink:title=" ">
<path fill="none" stroke="#63b8ff" d="M98,-285.8C96.72,-276.7 95.05,-264.79 93.66,-254.9"/>
<polygon fill="#63b8ff" stroke="#63b8ff" points="97.1,-254.26 92.24,-244.84 90.17,-255.23 97.1,-254.26"/>
</a>
</g>
</g>
<!-- Node6 -->
<g id="Node000006" class="node">
<title>Node6</title>
<g id="a_Node000006"><a xlink:href="Guid_8ixx.html" target="_top" xlink:title="Lightweight GUID (globally unique identifier) implementation.">
<polygon fill="white" stroke="#666666" points="334,-129 244,-129 244,-110 334,-110 334,-129"/>
<text text-anchor="middle" x="289" y="-117" font-family="Helvetica,sans-Serif" font-size="10.00">helios.util.Guid</text>
</a>
</g>
</g>
<!-- Node2&#45;&gt;Node6 -->
<g id="edge5_Node000002_Node000006" class="edge">
<title>Node2&#45;&gt;Node6</title>
<g id="a_edge5_Node000002_Node000006"><a xlink:title=" ">
<path fill="none" stroke="#63b8ff" d="M175.26,-290.97C225.58,-283.21 285.33,-270.04 301,-250 326.4,-217.51 309.44,-165.45 297.64,-138.29"/>
<polygon fill="#63b8ff" stroke="#63b8ff" points="300.82,-136.83 293.47,-129.2 294.46,-139.75 300.82,-136.83"/>
</a>
</g>
</g>
<!-- Node2&#45;&gt;Node10 -->
<g id="edge11_Node000002_Node000010" class="edge">
<title>Node2&#45;&gt;Node10</title>
<g id="a_edge11_Node000002_Node000010"><a xlink:title=" ">
<path fill="none" stroke="#63b8ff" d="M124.8,-285.95C140.84,-276.87 161.93,-264.93 179.46,-255"/>
<polygon fill="#63b8ff" stroke="#63b8ff" points="181.28,-257.99 188.26,-250.01 177.83,-251.9 181.28,-257.99"/>
</a>
</g>
</g>
<!-- Node6&#45;&gt;Node3 -->
<g id="edge7_Node000006_Node000003" class="edge">
<title>Node6&#45;&gt;Node3</title>
<g id="a_edge7_Node000006_Node000003"><a xlink:title=" ">
<path fill="none" stroke="#63b8ff" d="M277.22,-109.66C252.52,-91.14 195.1,-48.08 164.7,-25.28"/>
<polygon fill="#63b8ff" stroke="#63b8ff" points="166.64,-22.36 156.54,-19.16 162.44,-27.96 166.64,-22.36"/>
</a>
</g>
</g>
<!-- Node7 -->
<g id="Node000007" class="node">
<title>Node7</title>
<g id="a_Node000007"><a xlink:title=" ">
<polygon fill="#e0e0e0" stroke="#999999" points="183,-74 133,-74 133,-55 183,-55 183,-74"/>
<text text-anchor="middle" x="158" y="-62" font-family="Helvetica,sans-Serif" font-size="10.00">atomic</text>
</a>
</g>
</g>
<!-- Node6&#45;&gt;Node7 -->
<g id="edge6_Node000006_Node000007" class="edge">
<title>Node6&#45;&gt;Node7</title>
<g id="a_edge6_Node000006_Node000007"><a xlink:title=" ">
<path fill="none" stroke="#63b8ff" d="M267.95,-109.98C246.59,-101.34 213.3,-87.87 188.94,-78.02"/>
<polygon fill="#63b8ff" stroke="#63b8ff" points="190.01,-74.68 179.43,-74.17 187.39,-81.17 190.01,-74.68"/>
</a>
</g>
</g>
<!-- Node8 -->
<g id="Node000008" class="node">
<title>Node8</title>
<g id="a_Node000008"><a xlink:href="types_8ixx.html" target="_top" xlink:title="Core type definitions and tag types for the helios engine.">
<polygon fill="white" stroke="#666666" points="339,-74 239,-74 239,-55 339,-55 339,-74"/>
<text text-anchor="middle" x="289" y="-62" font-family="Helvetica,sans-Serif" font-size="10.00">helios.core.types</text>
</a>
</g>
</g>
<!-- Node6&#45;&gt;Node8 -->
<g id="edge8_Node000006_Node000008" class="edge">
<title>Node6&#45;&gt;Node8</title>
<g id="a_edge8_Node000006_Node000008"><a xlink:title=" ">
<path fill="none" stroke="#63b8ff" d="M289,-109.75C289,-102.8 289,-92.85 289,-84.13"/>
<polygon fill="#63b8ff" stroke="#63b8ff" points="292.5,-84.09 289,-74.09 285.5,-84.09 292.5,-84.09"/>
</a>
</g>
</g>
<!-- Node8&#45;&gt;Node3 -->
<g id="edge9_Node000008_Node000003" class="edge">
<title>Node8&#45;&gt;Node3</title>
<g id="a_edge9_Node000008_Node000003"><a xlink:title=" ">
<path fill="none" stroke="#63b8ff" d="M265.86,-54.98C242.18,-46.27 205.13,-32.63 178.29,-22.75"/>
<polygon fill="#63b8ff" stroke="#63b8ff" points="179.15,-19.34 168.56,-19.17 176.73,-25.91 179.15,-19.34"/>
</a>
</g>
</g>
<!-- Node9 -->
<g id="Node000009" class="node">
<title>Node9</title>
<g id="a_Node000009"><a xlink:title=" ">
<polygon fill="#e0e0e0" stroke="#999999" points="311,-19 267,-19 267,0 311,0 311,-19"/>
<text text-anchor="middle" x="289" y="-7" font-family="Helvetica,sans-Serif" font-size="10.00">limits</text>
</a>
</g>
</g>
<!-- Node8&#45;&gt;Node9 -->
<g id="edge10_Node000008_Node000009" class="edge">
<title>Node8&#45;&gt;Node9</title>
<g id="a_edge10_Node000008_Node000009"><a xlink:title=" ">
<path fill="none" stroke="#63b8ff" d="M289,-54.75C289,-47.8 289,-37.85 289,-29.13"/>
<polygon fill="#63b8ff" stroke="#63b8ff" points="292.5,-29.09 289,-19.09 285.5,-29.09 292.5,-29.09"/>
</a>
</g>
</g>
<!-- Node10&#45;&gt;Node3 -->
<g id="edge12_Node000010_Node000003" class="edge">
<title>Node10&#45;&gt;Node3</title>
<g id="a_edge12_Node000010_Node000003"><a xlink:title=" ">
<path fill="none" stroke="#63b8ff" d="M184.88,-219.97C155.13,-203.17 110.65,-171.84 97,-129 85.16,-91.84 112.18,-49.88 130.29,-27.2"/>
<polygon fill="#63b8ff" stroke="#63b8ff" points="133.21,-29.17 136.93,-19.25 127.83,-24.69 133.21,-29.17"/>
</a>
</g>
</g>
<!-- Node10&#45;&gt;Node6 -->
<g id="edge17_Node000010_Node000006" class="edge">
<title>Node10&#45;&gt;Node6</title>
<g id="a_edge17_Node000010_Node000006"><a xlink:title=" ">
<path fill="none" stroke="#63b8ff" d="M229.2,-219.88C239.3,-210.47 252.03,-197.4 261,-184 270.43,-169.92 277.95,-152.15 282.81,-138.99"/>
<polygon fill="#63b8ff" stroke="#63b8ff" points="286.24,-139.8 286.25,-129.2 279.63,-137.47 286.24,-139.8"/>
</a>
</g>
</g>
<!-- Node11 -->
<g id="Node000011" class="node">
<title>Node11</title>
<g id="a_Node000011"><a xlink:href="Event_8ixx.html" target="_top" xlink:title="Base class for events in the helios framework.">
<polygon fill="white" stroke="#666666" points="251.5,-184 144.5,-184 144.5,-165 251.5,-165 251.5,-184"/>
<text text-anchor="middle" x="198" y="-172" font-family="Helvetica,sans-Serif" font-size="10.00">helios.event.Event</text>
</a>
</g>
</g>
<!-- Node10&#45;&gt;Node11 -->
<g id="edge13_Node000010_Node000011" class="edge">
<title>Node10&#45;&gt;Node11</title>
<g id="a_edge13_Node000010_Node000011"><a xlink:title=" ">
<path fill="none" stroke="#63b8ff" d="M209.37,-219.84C207.39,-212.13 204.92,-202.49 202.79,-194.17"/>
<polygon fill="#63b8ff" stroke="#63b8ff" points="206.12,-193.08 200.25,-184.27 199.34,-194.82 206.12,-193.08"/>
</a>
</g>
</g>
<!-- Node11&#45;&gt;Node4 -->
<g id="edge15_Node000011_Node000004" class="edge">
<title>Node11&#45;&gt;Node4</title>
<g id="a_edge15_Node000011_Node000004"><a xlink:title=" ">
<path fill="none" stroke="#63b8ff" d="M186.75,-164.98C176.2,-157 160.2,-144.88 147.56,-135.31"/>
<polygon fill="#63b8ff" stroke="#63b8ff" points="149.54,-132.42 139.45,-129.17 145.31,-138 149.54,-132.42"/>
</a>
</g>
</g>
<!-- Node11&#45;&gt;Node6 -->
<g id="edge16_Node000011_Node000006" class="edge">
<title>Node11&#45;&gt;Node6</title>
<g id="a_edge16_Node000011_Node000006"><a xlink:title=" ">
<path fill="none" stroke="#63b8ff" d="M212.62,-164.98C226.86,-156.69 248.75,-143.94 265.45,-134.22"/>
<polygon fill="#63b8ff" stroke="#63b8ff" points="267.23,-137.23 274.11,-129.17 263.71,-131.18 267.23,-137.23"/>
</a>
</g>
</g>
<!-- Node12 -->
<g id="Node000012" class="node">
<title>Node12</title>
<g id="a_Node000012"><a xlink:title=" ">
<polygon fill="#e0e0e0" stroke="#999999" points="226,-129 168,-129 168,-110 226,-110 226,-129"/>
<text text-anchor="middle" x="197" y="-117" font-family="Helvetica,sans-Serif" font-size="10.00">memory</text>
</a>
</g>
</g>
<!-- Node11&#45;&gt;Node12 -->
<g id="edge14_Node000011_Node000012" class="edge">
<title>Node11&#45;&gt;Node12</title>
<g id="a_edge14_Node000011_Node000012"><a xlink:title=" ">
<path fill="none" stroke="#63b8ff" d="M197.83,-164.75C197.7,-157.8 197.52,-147.85 197.35,-139.13"/>
<polygon fill="#63b8ff" stroke="#63b8ff" points="200.85,-139.02 197.16,-129.09 193.85,-139.15 200.85,-139.02"/>
</a>
</g>
</g>
</g>
</svg>
</svg>

<style type='text/css'>
<![CDATA[
[data-mouse-over-selected='false'] { opacity: 0.7; }
[data-mouse-over-selected='true']  { opacity: 1.0; }
]]>
</style>
<script type="application/ecmascript"><![CDATA[
document.addEventListener('DOMContentLoaded', (event) => {
  highlightEdges();
  highlightAdjacentNodes();
});
]]></script>
</svg>
