<?xml version="1.0" encoding="UTF-8" standalone="no"?>
<!DOCTYPE svg PUBLIC "-//W3C//DTD SVG 1.1//EN"
 "http://www.w3.org/Graphics/SVG/1.1/DTD/svg11.dtd">
<!-- Generated by graphviz version 2.43.0 (0)
 -->
<!-- Title: _module.ixx Pages: 1 -->
<svg width="800pt" height="577pt"
 viewBox="0.00 0.00 799.50 577.00" xmlns="http://www.w3.org/2000/svg" xmlns:xlink="http://www.w3.org/1999/xlink">
<g id="graph0" class="graph" transform="scale(1 1) rotate(0) translate(4 573)">
<title>_module.ixx</title>
<!-- Node1 -->
<g id="Node000001" class="node">
<title>Node1</title>
<g id="a_Node000001"><a xlink:title="Aggregator for timer components.">
<polygon fill="#999999" stroke="#666666" points="288.5,-569 211.5,-569 211.5,-550 288.5,-550 288.5,-569"/>
<text text-anchor="middle" x="250" y="-557" font-family="Helvetica,sans-Serif" font-size="10.00">_module.ixx</text>
</a>
</g>
</g>
<!-- Node2 -->
<g id="Node000002" class="node">
<title>Node2</title>
<g id="a_Node000002"><a xlink:href="GameTimerBindingComponent_8ixx.html" target="_top" xlink:title="Component that observes a specific game timer.">
<polygon fill="white" stroke="#666666" points="369,-514 131,-514 131,-484 369,-484 369,-514"/>
<text text-anchor="start" x="139" y="-502" font-family="Helvetica,sans-Serif" font-size="10.00">helios.engine.mechanics.timing.components.</text>
<text text-anchor="middle" x="250" y="-491" font-family="Helvetica,sans-Serif" font-size="10.00">GameTimerBindingComponent</text>
</a>
</g>
</g>
<!-- Node1&#45;&gt;Node2 -->
<g id="edge1_Node000001_Node000002" class="edge">
<title>Node1&#45;&gt;Node2</title>
<g id="a_edge1_Node000001_Node000002"><a xlink:title=" ">
<path fill="none" stroke="#63b8ff" d="M250,-549.87C250,-543.11 250,-533.35 250,-524.26"/>
<polygon fill="#63b8ff" stroke="#63b8ff" points="253.5,-524.11 250,-514.11 246.5,-524.11 253.5,-524.11"/>
</a>
</g>
</g>
<!-- Node3 -->
<g id="Node000003" class="node">
<title>Node3</title>
<g id="a_Node000003"><a xlink:href="types_8ixx.html" target="_top" xlink:title="Core type definitions and tag types for the helios engine.">
<polygon fill="white" stroke="#666666" points="186,-74 86,-74 86,-55 186,-55 186,-74"/>
<text text-anchor="middle" x="136" y="-62" font-family="Helvetica,sans-Serif" font-size="10.00">helios.core.types</text>
</a>
</g>
</g>
<!-- Node2&#45;&gt;Node3 -->
<g id="edge2_Node000002_Node000003" class="edge">
<title>Node2&#45;&gt;Node3</title>
<g id="a_edge2_Node000002_Node000003"><a xlink:title=" ">
<path fill="none" stroke="#63b8ff" d="M130.86,-485.95C66.47,-472.11 0,-442.45 0,-379 0,-379 0,-379 0,-245 0,-170.44 75.48,-107.35 113.97,-80.02"/>
<polygon fill="#63b8ff" stroke="#63b8ff" points="116.23,-82.72 122.46,-74.15 112.25,-76.96 116.23,-82.72"/>
</a>
</g>
</g>
<!-- Node4 -->
<g id="Node000004" class="node">
<title>Node4</title>
<g id="a_Node000004"><a xlink:href="GameTimerId_8ixx.html" target="_top" xlink:title="Strongly&#45;typed identifier for gameTimers.">
<polygon fill="white" stroke="#666666" points="390.5,-327 185.5,-327 185.5,-297 390.5,-297 390.5,-327"/>
<text text-anchor="start" x="193.5" y="-315" font-family="Helvetica,sans-Serif" font-size="10.00">helios.engine.mechanics.timing.types.</text>
<text text-anchor="middle" x="288" y="-304" font-family="Helvetica,sans-Serif" font-size="10.00">GameTimerId</text>
</a>
</g>
</g>
<!-- Node2&#45;&gt;Node4 -->
<g id="edge3_Node000002_Node000004" class="edge">
<title>Node2&#45;&gt;Node4</title>
<g id="a_edge3_Node000002_Node000004"><a xlink:title=" ">
<path fill="none" stroke="#63b8ff" d="M252.92,-483.79C259.4,-452.24 275.05,-376.04 283.08,-336.97"/>
<polygon fill="#63b8ff" stroke="#63b8ff" points="286.54,-337.5 285.12,-327 279.68,-336.1 286.54,-337.5"/>
</a>
</g>
</g>
<!-- Node14 -->
<g id="Node000014" class="node">
<title>Node14</title>
<g id="a_Node000014"><a xlink:href="helios_2engine_2mechanics_2timing_2types_2__module_8ixx.html" target="_top" xlink:title="Aggregator for timer&#45;related type definitions.">
<polygon fill="white" stroke="#666666" points="520,-448 318,-448 318,-429 520,-429 520,-448"/>
<text text-anchor="middle" x="419" y="-436" font-family="Helvetica,sans-Serif" font-size="10.00">helios.engine.mechanics.timing.types</text>
</a>
</g>
</g>
<!-- Node2&#45;&gt;Node14 -->
<g id="edge23_Node000002_Node000014" class="edge">
<title>Node2&#45;&gt;Node14</title>
<g id="a_edge23_Node000002_Node000014"><a xlink:title=" ">
<path fill="none" stroke="#63b8ff" d="M290.48,-483.99C319.18,-474.05 357.28,-460.86 384.53,-451.43"/>
<polygon fill="#63b8ff" stroke="#63b8ff" points="385.74,-454.72 394.04,-448.14 383.45,-448.1 385.74,-454.72"/>
</a>
</g>
</g>
<!-- Node4&#45;&gt;Node3 -->
<g id="edge21_Node000004_Node000003" class="edge">
<title>Node4&#45;&gt;Node3</title>
<g id="a_edge21_Node000004_Node000003"><a xlink:title=" ">
<path fill="none" stroke="#63b8ff" d="M239.05,-296.96C192.64,-280.75 125.6,-249.1 95,-195 73.81,-157.54 103.66,-107.68 122.56,-82.14"/>
<polygon fill="#63b8ff" stroke="#63b8ff" points="125.36,-84.24 128.68,-74.18 119.81,-79.97 125.36,-84.24"/>
</a>
</g>
</g>
<!-- Node5 -->
<g id="Node000005" class="node">
<title>Node5</title>
<g id="a_Node000005"><a xlink:title=" ">
<polygon fill="#e0e0e0" stroke="#999999" points="433,-19 383,-19 383,0 433,0 433,-19"/>
<text text-anchor="middle" x="408" y="-7" font-family="Helvetica,sans-Serif" font-size="10.00">cstdint</text>
</a>
</g>
</g>
<!-- Node4&#45;&gt;Node5 -->
<g id="edge4_Node000004_Node000005" class="edge">
<title>Node4&#45;&gt;Node5</title>
<g id="a_edge4_Node000004_Node000005"><a xlink:title=" ">
<path fill="none" stroke="#63b8ff" d="M194.55,-296.93C168.37,-289.52 141.29,-278.23 120,-261 47.3,-202.16 15.43,-125.4 77,-55 115.14,-11.39 295.46,-8.75 372.72,-9.69"/>
<polygon fill="#63b8ff" stroke="#63b8ff" points="372.86,-13.19 382.91,-9.84 372.97,-6.19 372.86,-13.19"/>
</a>
</g>
</g>
<!-- Node6 -->
<g id="Node000006" class="node">
<title>Node6</title>
<g id="a_Node000006"><a xlink:title=" ">
<polygon fill="#e0e0e0" stroke="#999999" points="335.5,-74 262.5,-74 262.5,-55 335.5,-55 335.5,-74"/>
<text text-anchor="middle" x="299" y="-62" font-family="Helvetica,sans-Serif" font-size="10.00">string_view</text>
</a>
</g>
</g>
<!-- Node4&#45;&gt;Node6 -->
<g id="edge5_Node000004_Node000006" class="edge">
<title>Node4&#45;&gt;Node6</title>
<g id="a_edge5_Node000004_Node000006"><a xlink:title=" ">
<path fill="none" stroke="#63b8ff" d="M288.64,-296.74C290.52,-254.76 296.04,-131.63 298.16,-84.32"/>
<polygon fill="#63b8ff" stroke="#63b8ff" points="301.66,-84.4 298.61,-74.25 294.66,-84.08 301.66,-84.4"/>
</a>
</g>
</g>
<!-- Node7 -->
<g id="Node000007" class="node">
<title>Node7</title>
<g id="a_Node000007"><a xlink:href="helios_2core_2data_2__module_8ixx.html" target="_top" xlink:title="Aggregate module for helios::core::data namespace.">
<polygon fill="white" stroke="#666666" points="422.5,-255.5 327.5,-255.5 327.5,-236.5 422.5,-236.5 422.5,-255.5"/>
<text text-anchor="middle" x="375" y="-243.5" font-family="Helvetica,sans-Serif" font-size="10.00">helios.core.data</text>
</a>
</g>
</g>
<!-- Node4&#45;&gt;Node7 -->
<g id="edge6_Node000004_Node000007" class="edge">
<title>Node4&#45;&gt;Node7</title>
<g id="a_edge6_Node000004_Node000007"><a xlink:title=" ">
<path fill="none" stroke="#63b8ff" d="M307.31,-296.8C321.49,-286.37 340.69,-272.24 355.02,-261.69"/>
<polygon fill="#63b8ff" stroke="#63b8ff" points="357.25,-264.4 363.23,-255.66 353.1,-258.76 357.25,-264.4"/>
</a>
</g>
</g>
<!-- Node10 -->
<g id="Node000010" class="node">
<title>Node10</title>
<g id="a_Node000010"><a xlink:href="algorithms_8ixx.html" target="_top" xlink:title="Core algorithms and hash functions for the helios engine.">
<polygon fill="white" stroke="#666666" points="561.5,-74 436.5,-74 436.5,-55 561.5,-55 561.5,-74"/>
<text text-anchor="middle" x="499" y="-62" font-family="Helvetica,sans-Serif" font-size="10.00">helios.core.algorithms</text>
</a>
</g>
</g>
<!-- Node4&#45;&gt;Node10 -->
<g id="edge22_Node000004_Node000010" class="edge">
<title>Node4&#45;&gt;Node10</title>
<g id="a_edge22_Node000004_Node000010"><a xlink:title=" ">
<path fill="none" stroke="#63b8ff" d="M352.2,-296.97C378.51,-289.2 408.28,-277.65 432,-261 493.82,-217.62 513.77,-200.18 539,-129 545.27,-111.3 531.81,-93.41 518.84,-81.15"/>
<polygon fill="#63b8ff" stroke="#63b8ff" points="520.84,-78.25 511.01,-74.29 516.23,-83.52 520.84,-78.25"/>
</a>
</g>
</g>
<!-- Node8 -->
<g id="Node000008" class="node">
<title>Node8</title>
<g id="a_Node000008"><a xlink:href="RuntimeHandle_8ixx.html" target="_top" xlink:title="Lightweight handle pairing a strong identifier with a runtime index.">
<polygon fill="white" stroke="#666666" points="455.5,-195 316.5,-195 316.5,-165 455.5,-165 455.5,-195"/>
<text text-anchor="start" x="324.5" y="-183" font-family="Helvetica,sans-Serif" font-size="10.00">helios.core.data.Runtime</text>
<text text-anchor="middle" x="386" y="-172" font-family="Helvetica,sans-Serif" font-size="10.00">Handle</text>
</a>
</g>
</g>
<!-- Node7&#45;&gt;Node8 -->
<g id="edge7_Node000007_Node000008" class="edge">
<title>Node7&#45;&gt;Node8</title>
<g id="a_edge7_Node000007_Node000008"><a xlink:title=" ">
<path fill="none" stroke="#63b8ff" d="M376.48,-236.37C377.85,-228.4 379.95,-216.2 381.83,-205.27"/>
<polygon fill="#63b8ff" stroke="#63b8ff" points="385.29,-205.81 383.53,-195.36 378.39,-204.62 385.29,-205.81"/>
</a>
</g>
</g>
<!-- Node9 -->
<g id="Node000009" class="node">
<title>Node9</title>
<g id="a_Node000009"><a xlink:href="StrongId_8ixx.html" target="_top" xlink:title="Strongly&#45;typed identifier template.">
<polygon fill="white" stroke="#666666" points="530,-129 392,-129 392,-110 530,-110 530,-129"/>
<text text-anchor="middle" x="461" y="-117" font-family="Helvetica,sans-Serif" font-size="10.00">helios.core.data.StrongId</text>
</a>
</g>
</g>
<!-- Node7&#45;&gt;Node9 -->
<g id="edge18_Node000007_Node000009" class="edge">
<title>Node7&#45;&gt;Node9</title>
<g id="a_edge18_Node000007_Node000009"><a xlink:title=" ">
<path fill="none" stroke="#63b8ff" d="M406.76,-236.47C427.32,-229.13 452.49,-216.26 465,-195 475.03,-177.95 471.67,-154.72 467.32,-138.76"/>
<polygon fill="#63b8ff" stroke="#63b8ff" points="470.61,-137.55 464.31,-129.03 463.93,-139.62 470.61,-137.55"/>
</a>
</g>
</g>
<!-- Node12 -->
<g id="Node000012" class="node">
<title>Node12</title>
<g id="a_Node000012"><a xlink:href="TypeIndexer_8ixx.html" target="_top" xlink:title="Utility for generating unique type indices at runtime.">
<polygon fill="white" stroke="#666666" points="260,-189.5 104,-189.5 104,-170.5 260,-170.5 260,-189.5"/>
<text text-anchor="middle" x="182" y="-177.5" font-family="Helvetica,sans-Serif" font-size="10.00">helios.core.data.TypeIndexer</text>
</a>
</g>
</g>
<!-- Node7&#45;&gt;Node12 -->
<g id="edge19_Node000007_Node000012" class="edge">
<title>Node7&#45;&gt;Node12</title>
<g id="a_edge19_Node000007_Node000012"><a xlink:title=" ">
<path fill="none" stroke="#63b8ff" d="M348.97,-236.37C315.06,-225.12 255.63,-205.42 217.58,-192.8"/>
<polygon fill="#63b8ff" stroke="#63b8ff" points="218.52,-189.42 207.92,-189.6 216.31,-196.07 218.52,-189.42"/>
</a>
</g>
</g>
<!-- Node8&#45;&gt;Node3 -->
<g id="edge10_Node000008_Node000003" class="edge">
<title>Node8&#45;&gt;Node3</title>
<g id="a_edge10_Node000008_Node000003"><a xlink:title=" ">
<path fill="none" stroke="#63b8ff" d="M355.09,-164.97C306.19,-142.76 211.66,-99.85 164.38,-78.38"/>
<polygon fill="#63b8ff" stroke="#63b8ff" points="165.59,-75.09 155.04,-74.14 162.7,-81.47 165.59,-75.09"/>
</a>
</g>
</g>
<!-- Node8&#45;&gt;Node5 -->
<g id="edge8_Node000008_Node000005" class="edge">
<title>Node8&#45;&gt;Node5</title>
<g id="a_edge8_Node000008_Node000005"><a xlink:title=" ">
<path fill="none" stroke="#63b8ff" d="M384.9,-164.57C384.2,-154.59 383.36,-141 383,-129 382.75,-120.56 381.96,-118.38 383,-110 386.58,-81.07 395.8,-48.45 401.99,-28.7"/>
<polygon fill="#63b8ff" stroke="#63b8ff" points="405.33,-29.74 405.06,-19.15 398.67,-27.6 405.33,-29.74"/>
</a>
</g>
</g>
<!-- Node8&#45;&gt;Node6 -->
<g id="edge9_Node000008_Node000006" class="edge">
<title>Node8&#45;&gt;Node6</title>
<g id="a_edge9_Node000008_Node000006"><a xlink:title=" ">
<path fill="none" stroke="#63b8ff" d="M374.98,-164.63C358.91,-143.65 329.08,-104.75 311.97,-82.42"/>
<polygon fill="#63b8ff" stroke="#63b8ff" points="314.55,-80.04 305.69,-74.23 309,-84.3 314.55,-80.04"/>
</a>
</g>
</g>
<!-- Node8&#45;&gt;Node9 -->
<g id="edge11_Node000008_Node000009" class="edge">
<title>Node8&#45;&gt;Node9</title>
<g id="a_edge11_Node000008_Node000009"><a xlink:title=" ">
<path fill="none" stroke="#63b8ff" d="M404.16,-164.84C415.49,-156 430.06,-144.63 441.62,-135.62"/>
<polygon fill="#63b8ff" stroke="#63b8ff" points="444.03,-138.18 449.76,-129.27 439.72,-132.66 444.03,-138.18"/>
</a>
</g>
</g>
<!-- Node9&#45;&gt;Node3 -->
<g id="edge14_Node000009_Node000003" class="edge">
<title>Node9&#45;&gt;Node3</title>
<g id="a_edge14_Node000009_Node000003"><a xlink:title=" ">
<path fill="none" stroke="#63b8ff" d="M408.78,-109.98C350.74,-100.52 257.15,-85.26 196.1,-75.3"/>
<polygon fill="#63b8ff" stroke="#63b8ff" points="196.65,-71.84 186.22,-73.69 195.52,-78.75 196.65,-71.84"/>
</a>
</g>
</g>
<!-- Node9&#45;&gt;Node5 -->
<g id="edge12_Node000009_Node000005" class="edge">
<title>Node9&#45;&gt;Node5</title>
<g id="a_edge12_Node000009_Node000005"><a xlink:title=" ">
<path fill="none" stroke="#63b8ff" d="M453.23,-109.88C445.86,-101.32 434.9,-87.54 428,-74 420.69,-59.67 415.42,-42.14 412.12,-29.14"/>
<polygon fill="#63b8ff" stroke="#63b8ff" points="415.45,-27.99 409.74,-19.07 408.64,-29.6 415.45,-27.99"/>
</a>
</g>
</g>
<!-- Node9&#45;&gt;Node6 -->
<g id="edge13_Node000009_Node000006" class="edge">
<title>Node9&#45;&gt;Node6</title>
<g id="a_edge13_Node000009_Node000006"><a xlink:title=" ">
<path fill="none" stroke="#63b8ff" d="M434.97,-109.98C407.89,-101.13 365.29,-87.19 334.99,-77.28"/>
<polygon fill="#63b8ff" stroke="#63b8ff" points="335.82,-73.87 325.23,-74.08 333.65,-80.52 335.82,-73.87"/>
</a>
</g>
</g>
<!-- Node9&#45;&gt;Node10 -->
<g id="edge15_Node000009_Node000010" class="edge">
<title>Node9&#45;&gt;Node10</title>
<g id="a_edge15_Node000009_Node000010"><a xlink:title=" ">
<path fill="none" stroke="#63b8ff" d="M467.27,-109.75C472.59,-102.34 480.36,-91.5 486.88,-82.41"/>
<polygon fill="#63b8ff" stroke="#63b8ff" points="489.86,-84.26 492.84,-74.09 484.17,-80.18 489.86,-84.26"/>
</a>
</g>
</g>
<!-- Node10&#45;&gt;Node5 -->
<g id="edge16_Node000010_Node000005" class="edge">
<title>Node10&#45;&gt;Node5</title>
<g id="a_edge16_Node000010_Node000005"><a xlink:title=" ">
<path fill="none" stroke="#63b8ff" d="M484.38,-54.98C470.14,-46.69 448.25,-33.94 431.55,-24.22"/>
<polygon fill="#63b8ff" stroke="#63b8ff" points="433.29,-21.18 422.89,-19.17 429.77,-27.23 433.29,-21.18"/>
</a>
</g>
</g>
<!-- Node11 -->
<g id="Node000011" class="node">
<title>Node11</title>
<g id="a_Node000011"><a xlink:title=" ">
<polygon fill="#e0e0e0" stroke="#999999" points="521,-19 477,-19 477,0 521,0 521,-19"/>
<text text-anchor="middle" x="499" y="-7" font-family="Helvetica,sans-Serif" font-size="10.00">string</text>
</a>
</g>
</g>
<!-- Node10&#45;&gt;Node11 -->
<g id="edge17_Node000010_Node000011" class="edge">
<title>Node10&#45;&gt;Node11</title>
<g id="a_edge17_Node000010_Node000011"><a xlink:title=" ">
<path fill="none" stroke="#63b8ff" d="M499,-54.75C499,-47.8 499,-37.85 499,-29.13"/>
<polygon fill="#63b8ff" stroke="#63b8ff" points="502.5,-29.09 499,-19.09 495.5,-29.09 502.5,-29.09"/>
</a>
</g>
</g>
<!-- Node13 -->
<g id="Node000013" class="node">
<title>Node13</title>
<g id="a_Node000013"><a xlink:title=" ">
<polygon fill="#e0e0e0" stroke="#999999" points="207,-129 157,-129 157,-110 207,-110 207,-129"/>
<text text-anchor="middle" x="182" y="-117" font-family="Helvetica,sans-Serif" font-size="10.00">atomic</text>
</a>
</g>
</g>
<!-- Node12&#45;&gt;Node13 -->
<g id="edge20_Node000012_Node000013" class="edge">
<title>Node12&#45;&gt;Node13</title>
<g id="a_edge20_Node000012_Node000013"><a xlink:title=" ">
<path fill="none" stroke="#63b8ff" d="M182,-170.37C182,-162.25 182,-149.81 182,-139.39"/>
<polygon fill="#63b8ff" stroke="#63b8ff" points="185.5,-139.17 182,-129.17 178.5,-139.17 185.5,-139.17"/>
</a>
</g>
</g>
<!-- Node14&#45;&gt;Node4 -->
<g id="edge24_Node000014_Node000004" class="edge">
<title>Node14&#45;&gt;Node4</title>
<g id="a_edge24_Node000014_Node000004"><a xlink:title=" ">
<path fill="none" stroke="#63b8ff" d="M371.89,-428.98C349.58,-422.64 324.31,-411.7 308,-393 294.6,-377.63 289.92,-354.6 288.4,-337.19"/>
<polygon fill="#63b8ff" stroke="#63b8ff" points="291.9,-336.97 287.82,-327.19 284.91,-337.38 291.9,-336.97"/>
</a>
</g>
</g>
<!-- Node15 -->
<g id="Node000015" class="node">
<title>Node15</title>
<g id="a_Node000015"><a xlink:href="TimerRevision_8ixx.html" target="_top" xlink:title="Type alias for timer revision counters.">
<polygon fill="white" stroke="#666666" points="791.5,-261 586.5,-261 586.5,-231 791.5,-231 791.5,-261"/>
<text text-anchor="start" x="594.5" y="-249" font-family="Helvetica,sans-Serif" font-size="10.00">helios.engine.mechanics.timing.types.</text>
<text text-anchor="middle" x="689" y="-238" font-family="Helvetica,sans-Serif" font-size="10.00">TimerRevision</text>
</a>
</g>
</g>
<!-- Node14&#45;&gt;Node15 -->
<g id="edge25_Node000014_Node000015" class="edge">
<title>Node14&#45;&gt;Node15</title>
<g id="a_edge25_Node000014_Node000015"><a xlink:title=" ">
<path fill="none" stroke="#63b8ff" d="M452.39,-428.94C479.3,-421.37 517.68,-409.05 549,-393 594.11,-369.89 607.73,-364.35 642,-327 657.48,-310.13 670.25,-287.34 678.56,-270.4"/>
<polygon fill="#63b8ff" stroke="#63b8ff" points="681.8,-271.72 682.92,-261.19 675.48,-268.73 681.8,-271.72"/>
</a>
</g>
</g>
<!-- Node16 -->
<g id="Node000016" class="node">
<title>Node16</title>
<g id="a_Node000016"><a xlink:href="TimerState_8ixx.html" target="_top" xlink:title="Enumeration of possible game timer states.">
<polygon fill="white" stroke="#666666" points="632.5,-327 427.5,-327 427.5,-297 632.5,-297 632.5,-327"/>
<text text-anchor="start" x="435.5" y="-315" font-family="Helvetica,sans-Serif" font-size="10.00">helios.engine.mechanics.timing.types.</text>
<text text-anchor="middle" x="530" y="-304" font-family="Helvetica,sans-Serif" font-size="10.00">TimerState</text>
</a>
</g>
</g>
<!-- Node14&#45;&gt;Node16 -->
<g id="edge27_Node000014_Node000016" class="edge">
<title>Node14&#45;&gt;Node16</title>
<g id="a_edge27_Node000014_Node000016"><a xlink:title=" ">
<path fill="none" stroke="#63b8ff" d="M474.71,-429C495.99,-422.74 518.19,-411.87 531,-393 542.05,-376.73 540.57,-353.98 537.04,-336.9"/>
<polygon fill="#63b8ff" stroke="#63b8ff" points="540.42,-336 534.67,-327.1 533.62,-337.64 540.42,-336"/>
</a>
</g>
</g>
<!-- Node17 -->
<g id="Node000017" class="node">
<title>Node17</title>
<g id="a_Node000017"><a xlink:href="TimerControlContext_8ixx.html" target="_top" xlink:title="Context information for state transitions.">
<polygon fill="white" stroke="#666666" points="521.5,-393 316.5,-393 316.5,-363 521.5,-363 521.5,-393"/>
<text text-anchor="start" x="324.5" y="-381" font-family="Helvetica,sans-Serif" font-size="10.00">helios.engine.mechanics.timing.types.</text>
<text text-anchor="middle" x="419" y="-370" font-family="Helvetica,sans-Serif" font-size="10.00">TimerControlContext</text>
</a>
</g>
</g>
<!-- Node14&#45;&gt;Node17 -->
<g id="edge28_Node000014_Node000017" class="edge">
<title>Node14&#45;&gt;Node17</title>
<g id="a_edge28_Node000014_Node000017"><a xlink:title=" ">
<path fill="none" stroke="#63b8ff" d="M419,-428.87C419,-422.11 419,-412.35 419,-403.26"/>
<polygon fill="#63b8ff" stroke="#63b8ff" points="422.5,-403.11 419,-393.11 415.5,-403.11 422.5,-403.11"/>
</a>
</g>
</g>
<!-- Node15&#45;&gt;Node5 -->
<g id="edge26_Node000015_Node000005" class="edge">
<title>Node15&#45;&gt;Node5</title>
<g id="a_edge26_Node000015_Node000005"><a xlink:title=" ">
<path fill="none" stroke="#63b8ff" d="M684.32,-230.79C671.91,-195.34 634.66,-102.47 571,-55 550.89,-40.01 484.91,-25.19 443.32,-17"/>
<polygon fill="#63b8ff" stroke="#63b8ff" points="443.8,-13.53 433.31,-15.07 442.47,-20.4 443.8,-13.53"/>
</a>
</g>
</g>
<!-- Node17&#45;&gt;Node4 -->
<g id="edge29_Node000017_Node000004" class="edge">
<title>Node17&#45;&gt;Node4</title>
<g id="a_edge29_Node000017_Node000004"><a xlink:title=" ">
<path fill="none" stroke="#63b8ff" d="M390.25,-362.95C371.31,-353.7 346.31,-341.49 325.77,-331.45"/>
<polygon fill="#63b8ff" stroke="#63b8ff" points="327.2,-328.26 316.68,-327.01 324.13,-334.55 327.2,-328.26"/>
</a>
</g>
</g>
<!-- Node17&#45;&gt;Node16 -->
<g id="edge30_Node000017_Node000016" class="edge">
<title>Node17&#45;&gt;Node16</title>
<g id="a_edge30_Node000017_Node000016"><a xlink:title=" ">
<path fill="none" stroke="#63b8ff" d="M443.36,-362.95C458.97,-353.95 479.45,-342.14 496.58,-332.27"/>
<polygon fill="#63b8ff" stroke="#63b8ff" points="498.78,-335.04 505.7,-327.01 495.29,-328.98 498.78,-335.04"/>
</a>
</g>
</g>
</g>
</svg>
