<?xml version="1.0" encoding="UTF-8" standalone="no"?>
<!DOCTYPE svg PUBLIC "-//W3C//DTD SVG 1.1//EN"
 "http://www.w3.org/Graphics/SVG/1.1/DTD/svg11.dtd">
<!-- Generated by graphviz version 2.43.0 (0)
 -->
<!-- Title: include/helios/core/data/_module.ixx Pages: 1 -->
<svg width="164pt" height="148pt"
 viewBox="0.00 0.00 164.00 148.00" xmlns="http://www.w3.org/2000/svg" xmlns:xlink="http://www.w3.org/1999/xlink">
<g id="graph0" class="graph" transform="scale(1 1) rotate(0) translate(4 144)">
<title>include/helios/core/data/_module.ixx</title>
<!-- Node1 -->
<g id="Node000001" class="node">
<title>Node1</title>
<g id="a_Node000001"><a xlink:title="Aggregate module for helios::core::data namespace.">
<polygon fill="#999999" stroke="#666666" points="132,-140 24,-140 24,-110 132,-110 132,-140"/>
<text text-anchor="start" x="32" y="-128" font-family="Helvetica,sans-Serif" font-size="10.00">include/helios/core</text>
<text text-anchor="middle" x="78" y="-117" font-family="Helvetica,sans-Serif" font-size="10.00">/data/_module.ixx</text>
</a>
</g>
</g>
<!-- Node2 -->
<g id="Node000002" class="node">
<title>Node2</title>
<g id="a_Node000002"><a xlink:href="TypeIndexer_8ixx.html" target="_top" xlink:title="Utility for generating unique type indices at runtime.">
<polygon fill="white" stroke="#666666" points="156,-74 0,-74 0,-55 156,-55 156,-74"/>
<text text-anchor="middle" x="78" y="-62" font-family="Helvetica,sans-Serif" font-size="10.00">helios.core.data.TypeIndexer</text>
</a>
</g>
</g>
<!-- Node1&#45;&gt;Node2 -->
<g id="edge1_Node000001_Node000002" class="edge">
<title>Node1&#45;&gt;Node2</title>
<g id="a_edge1_Node000001_Node000002"><a xlink:title=" ">
<path fill="none" stroke="#63b8ff" d="M78,-109.84C78,-102.21 78,-92.7 78,-84.45"/>
<polygon fill="#63b8ff" stroke="#63b8ff" points="81.5,-84.27 78,-74.27 74.5,-84.27 81.5,-84.27"/>
</a>
</g>
</g>
<!-- Node3 -->
<g id="Node000003" class="node">
<title>Node3</title>
<g id="a_Node000003"><a xlink:title=" ">
<polygon fill="#e0e0e0" stroke="#999999" points="103,-19 53,-19 53,0 103,0 103,-19"/>
<text text-anchor="middle" x="78" y="-7" font-family="Helvetica,sans-Serif" font-size="10.00">atomic</text>
</a>
</g>
</g>
<!-- Node2&#45;&gt;Node3 -->
<g id="edge2_Node000002_Node000003" class="edge">
<title>Node2&#45;&gt;Node3</title>
<g id="a_edge2_Node000002_Node000003"><a xlink:title=" ">
<path fill="none" stroke="#63b8ff" d="M78,-54.75C78,-47.8 78,-37.85 78,-29.13"/>
<polygon fill="#63b8ff" stroke="#63b8ff" points="81.5,-29.09 78,-19.09 74.5,-29.09 81.5,-29.09"/>
</a>
</g>
</g>
</g>
</svg>
