<?xml version="1.0" encoding="UTF-8" standalone="no"?>
<!DOCTYPE svg PUBLIC "-//W3C//DTD SVG 1.1//EN"
 "http://www.w3.org/Graphics/SVG/1.1/DTD/svg11.dtd">
<!-- Generated by graphviz version 2.43.0 (0)
 -->
<!-- Title: include/helios/core/_module.ixx Pages: 1 -->
<!--zoomable 401 -->

<svg id="main" version="1.1" xmlns="http://www.w3.org/2000/svg" xmlns:xlink="http://www.w3.org/1999/xlink" xml:space="preserve" onload="init(evt)">

<style type="text/css"><![CDATA[
.node, .edge {opacity: 0.7;}
.node.selected, .edge.selected {opacity: 1;}
.edge:hover path { stroke: red; }
.edge:hover polygon { stroke: red; fill: red; }
]]></style>

<defs>
  <circle id="rim" cx="0" cy="0" r="7"/>
  <circle id="rim2" cx="0" cy="0" r="3.5"/>
  <g id="zoomPlus">
    <use xlink:href="#rim" fill="#404040"><set attributeName="fill" to="#808080" begin="zoomplus.mouseover" end="zoomplus.mouseout"/></use>
    <path d="M-4,0h8M0,-4v8" fill="none" stroke="white" stroke-width="1.5" pointer-events="none"/>
  </g>
  <g id="zoomMin">
    <use xlink:href="#rim" fill="#404040"><set attributeName="fill" to="#808080" begin="zoomminus.mouseover" end="zoomminus.mouseout"/></use>
    <path d="M-4,0h8" fill="none" stroke="white" stroke-width="1.5" pointer-events="none"/>
  </g>
  <g id="arrowUp" transform="translate(30 24)">
    <use xlink:href="#rim"/>
    <path pointer-events="none" fill="none" stroke="white" stroke-width="1.5" d="M0,-3.0v7 M-2.5,-0.5L0,-3.0L2.5,-0.5"/>
  </g>
  <g id="arrowRight" transform="rotate(90) translate(36 -43)">
    <use xlink:href="#rim"/>
    <path pointer-events="none" fill="none" stroke="white" stroke-width="1.5" d="M0,-3.0v7 M-2.5,-0.5L0,-3.0L2.5,-0.5"/>
  </g>
  <g id="arrowDown" transform="rotate(180) translate(-30 -48)">
    <use xlink:href="#rim"/>
    <path pointer-events="none" fill="none" stroke="white" stroke-width="1.5" d="M0,-3.0v7 M-2.5,-0.5L0,-3.0L2.5,-0.5"/>
  </g>
  <g id="arrowLeft" transform="rotate(270) translate(-36 17)">
    <use xlink:href="#rim"/>
    <path pointer-events="none" fill="none" stroke="white" stroke-width="1.5" d="M0,-3.0v7 M-2.5,-0.5L0,-3.0L2.5,-0.5"/>
  </g>
  <g id="resetDef">
    <use xlink:href="#rim2" fill="#404040"><set attributeName="fill" to="#808080" begin="reset.mouseover" end="reset.mouseout"/></use>
  </g>
</defs>
<script type="application/ecmascript">
var viewWidth = 1370;
var viewHeight = 401;
var sectionId = 'dynsection-0';
</script>
<script type="application/ecmascript" xlink:href="svg.min.js"/>
<svg id="graph" class="graph">
<g id="viewport">
<title>include/helios/core/_module.ixx</title>
<!-- Node1 -->
<g id="Node000001" class="node">
<title>Node1</title>
<g id="a_Node000001"><a xlink:title="Aggregate module for helios::core namespace.">
<polygon fill="#999999" stroke="#666666" points="472,-393 364,-393 364,-363 472,-363 472,-393"/>
<text text-anchor="start" x="372" y="-381" font-family="Helvetica,sans-Serif" font-size="10.00">include/helios/core</text>
<text text-anchor="middle" x="418" y="-370" font-family="Helvetica,sans-Serif" font-size="10.00">/_module.ixx</text>
</a>
</g>
</g>
<!-- Node2 -->
<g id="Node000002" class="node">
<title>Node2</title>
<g id="a_Node000002"><a xlink:href="helios_2core_2spatial_2__module_8ixx.html" target="_top" xlink:title="Aggregate module for helios::core::spatial namespace.">
<polygon fill="white" stroke="#666666" points="304,-327 198,-327 198,-308 304,-308 304,-327"/>
<text text-anchor="middle" x="251" y="-315" font-family="Helvetica,sans-Serif" font-size="10.00">helios.core.spatial</text>
</a>
</g>
</g>
<!-- Node1&#45;&gt;Node2 -->
<g id="edge1_Node000001_Node000002" class="edge">
<title>Node1&#45;&gt;Node2</title>
<g id="a_edge1_Node000001_Node000002"><a xlink:title=" ">
<path fill="none" stroke="#63b8ff" d="M378,-362.99C349.76,-353.1 312.32,-339.98 285.42,-330.56"/>
<polygon fill="#63b8ff" stroke="#63b8ff" points="286.26,-327.14 275.66,-327.14 283.94,-333.75 286.26,-327.14"/>
</a>
</g>
</g>
<!-- Node6 -->
<g id="Node000006" class="node">
<title>Node6</title>
<g id="a_Node000006"><a xlink:href="helios_2core_2data_2__module_8ixx.html" target="_top" xlink:title="Aggregate module for helios::core::data namespace.">
<polygon fill="white" stroke="#666666" points="465.5,-327 370.5,-327 370.5,-308 465.5,-308 465.5,-327"/>
<text text-anchor="middle" x="418" y="-315" font-family="Helvetica,sans-Serif" font-size="10.00">helios.core.data</text>
</a>
</g>
</g>
<!-- Node1&#45;&gt;Node6 -->
<g id="edge7_Node000001_Node000006" class="edge">
<title>Node1&#45;&gt;Node6</title>
<g id="a_edge7_Node000001_Node000006"><a xlink:title=" ">
<path fill="none" stroke="#63b8ff" d="M418,-362.84C418,-355.21 418,-345.7 418,-337.45"/>
<polygon fill="#63b8ff" stroke="#63b8ff" points="421.5,-337.27 418,-327.27 414.5,-337.27 421.5,-337.27"/>
</a>
</g>
</g>
<!-- Node9 -->
<g id="Node000009" class="node">
<title>Node9</title>
<g id="a_Node000009"><a xlink:href="helios_2core_2buffer_2__module_8ixx.html" target="_top" xlink:title="Aggregate module for helios::core::buffer namespace.">
<polygon fill="white" stroke="#666666" points="976.5,-327 875.5,-327 875.5,-308 976.5,-308 976.5,-327"/>
<text text-anchor="middle" x="926" y="-315" font-family="Helvetica,sans-Serif" font-size="10.00">helios.core.buffer</text>
</a>
</g>
</g>
<!-- Node1&#45;&gt;Node9 -->
<g id="edge10_Node000001_Node000009" class="edge">
<title>Node1&#45;&gt;Node9</title>
<g id="a_edge10_Node000001_Node000009"><a xlink:title=" ">
<path fill="none" stroke="#63b8ff" d="M472.36,-370.74C567.91,-359.74 765.27,-337.01 865.19,-325.5"/>
<polygon fill="#63b8ff" stroke="#63b8ff" points="865.89,-328.95 875.43,-324.32 865.09,-321.99 865.89,-328.95"/>
</a>
</g>
</g>
<!-- Node3 -->
<g id="Node000003" class="node">
<title>Node3</title>
<g id="a_Node000003"><a xlink:href="Transform_8ixx.html" target="_top" xlink:title="Represents a 3D transformation consisting of translation, rotation and scale.">
<polygon fill="white" stroke="#666666" points="282,-266.5 124,-266.5 124,-247.5 282,-247.5 282,-266.5"/>
<text text-anchor="middle" x="203" y="-254.5" font-family="Helvetica,sans-Serif" font-size="10.00">helios.core.spatial.Transform</text>
</a>
</g>
</g>
<!-- Node2&#45;&gt;Node3 -->
<g id="edge2_Node000002_Node000003" class="edge">
<title>Node2&#45;&gt;Node3</title>
<g id="a_edge2_Node000002_Node000003"><a xlink:title=" ">
<path fill="none" stroke="#63b8ff" d="M243.92,-307.87C236.76,-299.14 225.51,-285.43 216.61,-274.59"/>
<polygon fill="#63b8ff" stroke="#63b8ff" points="219.16,-272.18 210.11,-266.67 213.75,-276.62 219.16,-272.18"/>
</a>
</g>
</g>
<!-- Node4 -->
<g id="Node000004" class="node">
<title>Node4</title>
<g id="a_Node000004"><a xlink:href="helios_2math_2transform_2__module_8ixx.html" target="_top" xlink:title="Module exports for transformation utilities.">
<polygon fill="white" stroke="#666666" points="265.5,-200.5 140.5,-200.5 140.5,-181.5 265.5,-181.5 265.5,-200.5"/>
<text text-anchor="middle" x="203" y="-188.5" font-family="Helvetica,sans-Serif" font-size="10.00">helios.math.transform</text>
</a>
</g>
</g>
<!-- Node3&#45;&gt;Node4 -->
<g id="edge3_Node000003_Node000004" class="edge">
<title>Node3&#45;&gt;Node4</title>
<g id="a_edge3_Node000003_Node000004"><a xlink:title=" ">
<path fill="none" stroke="#63b8ff" d="M203,-247.37C203,-238.16 203,-223.29 203,-211.27"/>
<polygon fill="#63b8ff" stroke="#63b8ff" points="206.5,-210.91 203,-200.91 199.5,-210.91 206.5,-210.91"/>
</a>
</g>
</g>
<!-- Node5 -->
<g id="Node000005" class="node">
<title>Node5</title>
<g id="a_Node000005"><a xlink:href="helios_2math_2types_2__module_8ixx.html" target="_top" xlink:title="Module exports for vector and matrix type definitions.">
<polygon fill="white" stroke="#666666" points="104,-200.5 0,-200.5 0,-181.5 104,-181.5 104,-200.5"/>
<text text-anchor="middle" x="52" y="-188.5" font-family="Helvetica,sans-Serif" font-size="10.00">helios.math.types</text>
</a>
</g>
</g>
<!-- Node3&#45;&gt;Node5 -->
<g id="edge5_Node000003_Node000005" class="edge">
<title>Node3&#45;&gt;Node5</title>
<g id="a_edge5_Node000003_Node000005"><a xlink:title=" ">
<path fill="none" stroke="#63b8ff" d="M182.64,-247.37C156.74,-236.39 111.83,-217.36 82.01,-204.72"/>
<polygon fill="#63b8ff" stroke="#63b8ff" points="83.1,-201.38 72.52,-200.7 80.37,-207.82 83.1,-201.38"/>
</a>
</g>
</g>
<!-- Node4&#45;&gt;Node4 -->
<g id="edge4_Node000004_Node000004" class="edge">
<title>Node4&#45;&gt;Node4</title>
<g id="a_edge4_Node000004_Node000004"><a xlink:title=" ">
<path fill="none" stroke="#63b8ff" d="M228.14,-200.56C254.25,-206.37 283.5,-203.18 283.5,-191 283.5,-180.34 261.1,-176.57 238.01,-179.68"/>
<polygon fill="#63b8ff" stroke="#63b8ff" points="237.37,-176.24 228.14,-181.44 238.6,-183.13 237.37,-176.24"/>
</a>
</g>
</g>
<!-- Node5&#45;&gt;Node5 -->
<g id="edge6_Node000005_Node000005" class="edge">
<title>Node5&#45;&gt;Node5</title>
<g id="a_edge6_Node000005_Node000005"><a xlink:title=" ">
<path fill="none" stroke="#63b8ff" d="M73.86,-200.56C96.56,-206.37 122,-203.18 122,-191 122,-180.58 103.39,-176.74 83.79,-179.48"/>
<polygon fill="#63b8ff" stroke="#63b8ff" points="83,-176.07 73.86,-181.44 84.35,-182.94 83,-176.07"/>
</a>
</g>
</g>
<!-- Node7 -->
<g id="Node000007" class="node">
<title>Node7</title>
<g id="a_Node000007"><a xlink:href="TypeIndexer_8ixx.html" target="_top" xlink:title="Utility for generating unique type indices at runtime.">
<polygon fill="white" stroke="#666666" points="496,-200.5 340,-200.5 340,-181.5 496,-181.5 496,-200.5"/>
<text text-anchor="middle" x="418" y="-188.5" font-family="Helvetica,sans-Serif" font-size="10.00">helios.core.data.TypeIndexer</text>
</a>
</g>
</g>
<!-- Node6&#45;&gt;Node7 -->
<g id="edge8_Node000006_Node000007" class="edge">
<title>Node6&#45;&gt;Node7</title>
<g id="a_edge8_Node000006_Node000007"><a xlink:title=" ">
<path fill="none" stroke="#63b8ff" d="M418,-307.94C418,-288.04 418,-238.26 418,-210.85"/>
<polygon fill="#63b8ff" stroke="#63b8ff" points="421.5,-210.62 418,-200.62 414.5,-210.62 421.5,-210.62"/>
</a>
</g>
</g>
<!-- Node8 -->
<g id="Node000008" class="node">
<title>Node8</title>
<g id="a_Node000008"><a xlink:title=" ">
<polygon fill="#e0e0e0" stroke="#999999" points="362,-134.5 312,-134.5 312,-115.5 362,-115.5 362,-134.5"/>
<text text-anchor="middle" x="337" y="-122.5" font-family="Helvetica,sans-Serif" font-size="10.00">atomic</text>
</a>
</g>
</g>
<!-- Node7&#45;&gt;Node8 -->
<g id="edge9_Node000007_Node000008" class="edge">
<title>Node7&#45;&gt;Node8</title>
<g id="a_edge9_Node000007_Node000008"><a xlink:title=" ">
<path fill="none" stroke="#63b8ff" d="M407.08,-181.37C394.03,-171.06 371.99,-153.65 356.1,-141.09"/>
<polygon fill="#63b8ff" stroke="#63b8ff" points="358.03,-138.15 348.01,-134.7 353.69,-143.64 358.03,-138.15"/>
</a>
</g>
</g>
<!-- Node10 -->
<g id="Node000010" class="node">
<title>Node10</title>
<g id="a_Node000010"><a xlink:href="TypeIndexedReadWriteBuffer_8ixx.html" target="_top" xlink:title="Type&#45;indexed single&#45;buffered message system for immediate&#45;access patterns.">
<polygon fill="white" stroke="#666666" points="1156,-272 992,-272 992,-242 1156,-242 1156,-272"/>
<text text-anchor="start" x="1000" y="-260" font-family="Helvetica,sans-Serif" font-size="10.00">helios.core.buffer.TypeIndexed</text>
<text text-anchor="middle" x="1074" y="-249" font-family="Helvetica,sans-Serif" font-size="10.00">ReadWriteBuffer</text>
</a>
</g>
</g>
<!-- Node9&#45;&gt;Node10 -->
<g id="edge11_Node000009_Node000010" class="edge">
<title>Node9&#45;&gt;Node10</title>
<g id="a_edge11_Node000009_Node000010"><a xlink:title=" ">
<path fill="none" stroke="#63b8ff" d="M947.52,-307.99C968.73,-299.61 1001.78,-286.55 1028.78,-275.87"/>
<polygon fill="#63b8ff" stroke="#63b8ff" points="1030.41,-279 1038.42,-272.06 1027.83,-272.49 1030.41,-279"/>
</a>
</g>
</g>
<!-- Node14 -->
<g id="Node000014" class="node">
<title>Node14</title>
<g id="a_Node000014"><a xlink:href="ReadWriteBuffer_8ixx.html" target="_top" xlink:title="Combined read&#45;write buffer for single&#45;buffered access patterns.">
<polygon fill="white" stroke="#666666" points="1347.5,-206 1192.5,-206 1192.5,-176 1347.5,-176 1347.5,-206"/>
<text text-anchor="start" x="1200.5" y="-194" font-family="Helvetica,sans-Serif" font-size="10.00">helios.core.buffer.ReadWrite</text>
<text text-anchor="middle" x="1270" y="-183" font-family="Helvetica,sans-Serif" font-size="10.00">Buffer</text>
</a>
</g>
</g>
<!-- Node9&#45;&gt;Node14 -->
<g id="edge46_Node000009_Node000014" class="edge">
<title>Node9&#45;&gt;Node14</title>
<g id="a_edge46_Node000009_Node000014"><a xlink:title=" ">
<path fill="none" stroke="#63b8ff" d="M976.53,-312.26C1044.38,-305.88 1160.73,-292.36 1198,-272 1222.66,-258.53 1243.19,-233.27 1255.94,-214.73"/>
<polygon fill="#63b8ff" stroke="#63b8ff" points="1258.95,-216.52 1261.56,-206.25 1253.12,-212.66 1258.95,-216.52"/>
</a>
</g>
</g>
<!-- Node15 -->
<g id="Node000015" class="node">
<title>Node15</title>
<g id="a_Node000015"><a xlink:href="Buffer_8ixx.html" target="_top" xlink:title="Abstract base class for buffer implementations.">
<polygon fill="white" stroke="#666666" points="1235.5,-134.5 1102.5,-134.5 1102.5,-115.5 1235.5,-115.5 1235.5,-134.5"/>
<text text-anchor="middle" x="1169" y="-122.5" font-family="Helvetica,sans-Serif" font-size="10.00">helios.core.buffer.Buffer</text>
</a>
</g>
</g>
<!-- Node9&#45;&gt;Node15 -->
<g id="edge51_Node000009_Node000015" class="edge">
<title>Node9&#45;&gt;Node15</title>
<g id="a_edge51_Node000009_Node000015"><a xlink:title=" ">
<path fill="none" stroke="#63b8ff" d="M976.51,-314.32C1039.31,-310.44 1141.15,-299.92 1165,-272 1180.83,-253.47 1175.14,-180.42 1171.32,-145.2"/>
<polygon fill="#63b8ff" stroke="#63b8ff" points="1174.75,-144.37 1170.14,-134.83 1167.8,-145.17 1174.75,-144.37"/>
</a>
</g>
</g>
<!-- Node16 -->
<g id="Node000016" class="node">
<title>Node16</title>
<g id="a_Node000016"><a xlink:href="TypeIndexedDoubleBuffer_8ixx.html" target="_top" xlink:title="Double&#45;buffered, type&#45;indexed message system for decoupled inter&#45;system communication.">
<polygon fill="white" stroke="#666666" points="720,-272 556,-272 556,-242 720,-242 720,-272"/>
<text text-anchor="start" x="564" y="-260" font-family="Helvetica,sans-Serif" font-size="10.00">helios.core.buffer.TypeIndexed</text>
<text text-anchor="middle" x="638" y="-249" font-family="Helvetica,sans-Serif" font-size="10.00">DoubleBuffer</text>
</a>
</g>
</g>
<!-- Node9&#45;&gt;Node16 -->
<g id="edge24_Node000009_Node000016" class="edge">
<title>Node9&#45;&gt;Node16</title>
<g id="a_edge24_Node000009_Node000016"><a xlink:title=" ">
<path fill="none" stroke="#63b8ff" d="M884.12,-307.99C840.43,-299.12 770.89,-284.99 716.86,-274.02"/>
<polygon fill="#63b8ff" stroke="#63b8ff" points="717.46,-270.57 706.96,-272.01 716.06,-277.43 717.46,-270.57"/>
</a>
</g>
</g>
<!-- Node17 -->
<g id="Node000017" class="node">
<title>Node17</title>
<g id="a_Node000017"><a xlink:href="ReadWriteDoubleBuffer_8ixx.html" target="_top" xlink:title="Type&#45;safe double&#45;buffered container for producer&#45;consumer patterns.">
<polygon fill="white" stroke="#666666" points="859.5,-206 704.5,-206 704.5,-176 859.5,-176 859.5,-206"/>
<text text-anchor="start" x="712.5" y="-194" font-family="Helvetica,sans-Serif" font-size="10.00">helios.core.buffer.ReadWrite</text>
<text text-anchor="middle" x="782" y="-183" font-family="Helvetica,sans-Serif" font-size="10.00">DoubleBuffer</text>
</a>
</g>
</g>
<!-- Node9&#45;&gt;Node17 -->
<g id="edge47_Node000009_Node000017" class="edge">
<title>Node9&#45;&gt;Node17</title>
<g id="a_edge47_Node000009_Node000017"><a xlink:title=" ">
<path fill="none" stroke="#63b8ff" d="M916.1,-307.94C893.61,-288.49 838.11,-240.51 806,-212.75"/>
<polygon fill="#63b8ff" stroke="#63b8ff" points="808.23,-210.05 798.38,-206.16 803.65,-215.35 808.23,-210.05"/>
</a>
</g>
</g>
<!-- Node18 -->
<g id="Node000018" class="node">
<title>Node18</title>
<g id="a_Node000018"><a xlink:href="ReadBuffer_8ixx.html" target="_top" xlink:title="Read&#45;only buffer for the double&#45;buffering pattern.">
<polygon fill="white" stroke="#666666" points="762,-74 604,-74 604,-55 762,-55 762,-74"/>
<text text-anchor="middle" x="683" y="-62" font-family="Helvetica,sans-Serif" font-size="10.00">helios.core.buffer.ReadBuffer</text>
</a>
</g>
</g>
<!-- Node9&#45;&gt;Node18 -->
<g id="edge49_Node000009_Node000018" class="edge">
<title>Node9&#45;&gt;Node18</title>
<g id="a_edge49_Node000009_Node000018"><a xlink:title=" ">
<path fill="none" stroke="#63b8ff" d="M924.5,-307.91C920.01,-284.32 904.69,-217.52 869,-176 845.8,-149.01 755.01,-101.42 709.42,-78.52"/>
<polygon fill="#63b8ff" stroke="#63b8ff" points="710.93,-75.37 700.42,-74.03 707.8,-81.63 710.93,-75.37"/>
</a>
</g>
</g>
<!-- Node19 -->
<g id="Node000019" class="node">
<title>Node19</title>
<g id="a_Node000019"><a xlink:href="WriteBuffer_8ixx.html" target="_top" xlink:title="Write&#45;only buffer for the double&#45;buffering pattern.">
<polygon fill="white" stroke="#666666" points="510,-140 380,-140 380,-110 510,-110 510,-140"/>
<text text-anchor="start" x="388" y="-128" font-family="Helvetica,sans-Serif" font-size="10.00">helios.core.buffer.Write</text>
<text text-anchor="middle" x="445" y="-117" font-family="Helvetica,sans-Serif" font-size="10.00">Buffer</text>
</a>
</g>
</g>
<!-- Node9&#45;&gt;Node19 -->
<g id="edge48_Node000009_Node000019" class="edge">
<title>Node9&#45;&gt;Node19</title>
<g id="a_edge48_Node000009_Node000019"><a xlink:title=" ">
<path fill="none" stroke="#63b8ff" d="M875.1,-315.48C743.1,-311.62 395.53,-293.2 331,-206 310.86,-178.79 346.84,-157.42 383.58,-143.63"/>
<polygon fill="#63b8ff" stroke="#63b8ff" points="385.17,-146.78 393.41,-140.12 382.81,-140.19 385.17,-146.78"/>
</a>
</g>
</g>
<!-- Node20 -->
<g id="Node000020" class="node">
<title>Node20</title>
<g id="a_Node000020"><a xlink:href="DoubleBuffer_8ixx.html" target="_top" xlink:title="Double&#45;buffered, type&#45;indexed message system for decoupled inter&#45;system communication.">
<polygon fill="white" stroke="#666666" points="970,-140 832,-140 832,-110 970,-110 970,-140"/>
<text text-anchor="start" x="840" y="-128" font-family="Helvetica,sans-Serif" font-size="10.00">helios.core.buffer.Double</text>
<text text-anchor="middle" x="901" y="-117" font-family="Helvetica,sans-Serif" font-size="10.00">Buffer</text>
</a>
</g>
</g>
<!-- Node9&#45;&gt;Node20 -->
<g id="edge50_Node000009_Node000020" class="edge">
<title>Node9&#45;&gt;Node20</title>
<g id="a_edge50_Node000009_Node000020"><a xlink:title=" ">
<path fill="none" stroke="#63b8ff" d="M929.6,-307.82C933.06,-298.99 938.03,-284.81 940,-272 946.48,-229.83 953.87,-216.35 940,-176 936.46,-165.69 929.82,-155.88 923.01,-147.72"/>
<polygon fill="#63b8ff" stroke="#63b8ff" points="925.53,-145.28 916.26,-140.16 920.31,-149.95 925.53,-145.28"/>
</a>
</g>
</g>
<!-- Node10&#45;&gt;Node7 -->
<g id="edge23_Node000010_Node000007" class="edge">
<title>Node10&#45;&gt;Node7</title>
<g id="a_edge23_Node000010_Node000007"><a xlink:title=" ">
<path fill="none" stroke="#63b8ff" d="M991.91,-247.99C867.9,-235.89 633.75,-213.05 506.21,-200.61"/>
<polygon fill="#63b8ff" stroke="#63b8ff" points="506.38,-197.11 496.09,-199.62 505.7,-204.07 506.38,-197.11"/>
</a>
</g>
</g>
<!-- Node11 -->
<g id="Node000011" class="node">
<title>Node11</title>
<g id="a_Node000011"><a xlink:title=" ">
<polygon fill="#e0e0e0" stroke="#999999" points="922,-74 864,-74 864,-55 922,-55 922,-74"/>
<text text-anchor="middle" x="893" y="-62" font-family="Helvetica,sans-Serif" font-size="10.00">memory</text>
</a>
</g>
</g>
<!-- Node10&#45;&gt;Node11 -->
<g id="edge12_Node000010_Node000011" class="edge">
<title>Node10&#45;&gt;Node11</title>
<g id="a_edge12_Node000010_Node000011"><a xlink:title=" ">
<path fill="none" stroke="#63b8ff" d="M1067.84,-241.82C1054.95,-213.57 1022.72,-149.58 979,-110 963.89,-96.32 943.81,-85.62 926.85,-78.15"/>
<polygon fill="#63b8ff" stroke="#63b8ff" points="927.87,-74.77 917.29,-74.12 925.15,-81.22 927.87,-74.77"/>
</a>
</g>
</g>
<!-- Node12 -->
<g id="Node000012" class="node">
<title>Node12</title>
<g id="a_Node000012"><a xlink:title=" ">
<polygon fill="#e0e0e0" stroke="#999999" points="1046,-19 1006,-19 1006,0 1046,0 1046,-19"/>
<text text-anchor="middle" x="1026" y="-7" font-family="Helvetica,sans-Serif" font-size="10.00">span</text>
</a>
</g>
</g>
<!-- Node10&#45;&gt;Node12 -->
<g id="edge13_Node000010_Node000012" class="edge">
<title>Node10&#45;&gt;Node12</title>
<g id="a_edge13_Node000010_Node000012"><a xlink:title=" ">
<path fill="none" stroke="#63b8ff" d="M1156.23,-252.86C1230.45,-248.09 1331.75,-236.1 1357,-206 1365.57,-195.78 1361.89,-188.4 1357,-176 1330.01,-107.55 1308.2,-90.95 1244,-55 1183.28,-21 1100.07,-12.82 1056.08,-10.95"/>
<polygon fill="#63b8ff" stroke="#63b8ff" points="1056.15,-7.45 1046.04,-10.61 1055.91,-14.45 1056.15,-7.45"/>
</a>
</g>
</g>
<!-- Node13 -->
<g id="Node000013" class="node">
<title>Node13</title>
<g id="a_Node000013"><a xlink:title=" ">
<polygon fill="#e0e0e0" stroke="#999999" points="760.5,-19 713.5,-19 713.5,0 760.5,0 760.5,-19"/>
<text text-anchor="middle" x="737" y="-7" font-family="Helvetica,sans-Serif" font-size="10.00">vector</text>
</a>
</g>
</g>
<!-- Node10&#45;&gt;Node13 -->
<g id="edge14_Node000010_Node000013" class="edge">
<title>Node10&#45;&gt;Node13</title>
<g id="a_edge14_Node000010_Node000013"><a xlink:title=" ">
<path fill="none" stroke="#63b8ff" d="M1072.4,-241.85C1070.14,-225.4 1065.13,-197.74 1055,-176 1039.57,-142.88 1031.91,-135.76 1006,-110 976.69,-80.86 968.59,-72.2 931,-55 877.93,-30.72 810.43,-19.1 770.66,-14.01"/>
<polygon fill="#63b8ff" stroke="#63b8ff" points="771.03,-10.54 760.68,-12.8 770.19,-17.48 771.03,-10.54"/>
</a>
</g>
</g>
<!-- Node10&#45;&gt;Node14 -->
<g id="edge15_Node000010_Node000014" class="edge">
<title>Node10&#45;&gt;Node14</title>
<g id="a_edge15_Node000010_Node000014"><a xlink:title=" ">
<path fill="none" stroke="#63b8ff" d="M1117.01,-241.95C1146.5,-232.33 1185.81,-219.49 1217.2,-209.24"/>
<polygon fill="#63b8ff" stroke="#63b8ff" points="1218.67,-212.44 1227.09,-206.01 1216.49,-205.79 1218.67,-212.44"/>
</a>
</g>
</g>
<!-- Node10&#45;&gt;Node15 -->
<g id="edge22_Node000010_Node000015" class="edge">
<title>Node10&#45;&gt;Node15</title>
<g id="a_edge22_Node000010_Node000015"><a xlink:title=" ">
<path fill="none" stroke="#63b8ff" d="M1084.35,-241.84C1101.98,-217.71 1137.79,-168.71 1156.69,-142.85"/>
<polygon fill="#63b8ff" stroke="#63b8ff" points="1159.53,-144.89 1162.61,-134.75 1153.88,-140.76 1159.53,-144.89"/>
</a>
</g>
</g>
<!-- Node14&#45;&gt;Node12 -->
<g id="edge16_Node000014_Node000012" class="edge">
<title>Node14&#45;&gt;Node12</title>
<g id="a_edge16_Node000014_Node000012"><a xlink:title=" ">
<path fill="none" stroke="#63b8ff" d="M1276.5,-175.7C1283.2,-158.62 1291,-129.85 1278,-110 1228.61,-34.55 1111.86,-16.3 1056.34,-11.9"/>
<polygon fill="#63b8ff" stroke="#63b8ff" points="1056.31,-8.39 1046.1,-11.19 1055.83,-15.37 1056.31,-8.39"/>
</a>
</g>
</g>
<!-- Node14&#45;&gt;Node13 -->
<g id="edge17_Node000014_Node000013" class="edge">
<title>Node14&#45;&gt;Node13</title>
<g id="a_edge17_Node000014_Node000013"><a xlink:title=" ">
<path fill="none" stroke="#63b8ff" d="M1269.54,-175.73C1268.19,-157.85 1263.15,-127.45 1245,-110 1176.32,-43.98 873.02,-19.07 770.78,-12.46"/>
<polygon fill="#63b8ff" stroke="#63b8ff" points="770.9,-8.96 760.7,-11.82 770.46,-15.94 770.9,-8.96"/>
</a>
</g>
</g>
<!-- Node14&#45;&gt;Node15 -->
<g id="edge18_Node000014_Node000015" class="edge">
<title>Node14&#45;&gt;Node15</title>
<g id="a_edge18_Node000014_Node000015"><a xlink:title=" ">
<path fill="none" stroke="#63b8ff" d="M1247.58,-175.8C1230.81,-165.17 1207.99,-150.7 1191.25,-140.1"/>
<polygon fill="#63b8ff" stroke="#63b8ff" points="1192.98,-137.05 1182.66,-134.66 1189.24,-142.97 1192.98,-137.05"/>
</a>
</g>
</g>
<!-- Node15&#45;&gt;Node11 -->
<g id="edge19_Node000015_Node000011" class="edge">
<title>Node15&#45;&gt;Node11</title>
<g id="a_edge19_Node000015_Node000011"><a xlink:title=" ">
<path fill="none" stroke="#63b8ff" d="M1128.87,-115.49C1076.17,-104.32 984.23,-84.84 932.07,-73.78"/>
<polygon fill="#63b8ff" stroke="#63b8ff" points="932.69,-70.34 922.19,-71.69 931.24,-77.18 932.69,-70.34"/>
</a>
</g>
</g>
<!-- Node15&#45;&gt;Node12 -->
<g id="edge20_Node000015_Node000012" class="edge">
<title>Node15&#45;&gt;Node12</title>
<g id="a_edge20_Node000015_Node000012"><a xlink:title=" ">
<path fill="none" stroke="#63b8ff" d="M1166.27,-115.17C1161.39,-100.74 1149.88,-72.04 1131,-55 1109.71,-35.79 1078.91,-24.07 1056.17,-17.52"/>
<polygon fill="#63b8ff" stroke="#63b8ff" points="1056.91,-14.1 1046.35,-14.86 1055.09,-20.85 1056.91,-14.1"/>
</a>
</g>
</g>
<!-- Node15&#45;&gt;Node13 -->
<g id="edge21_Node000015_Node000013" class="edge">
<title>Node15&#45;&gt;Node13</title>
<g id="a_edge21_Node000015_Node000013"><a xlink:title=" ">
<path fill="none" stroke="#63b8ff" d="M1151.91,-115.42C1122.18,-100.84 1058.69,-71.25 1002,-55 920.78,-31.72 821.84,-19.11 770.91,-13.72"/>
<polygon fill="#63b8ff" stroke="#63b8ff" points="771.1,-10.22 760.79,-12.68 770.38,-17.18 771.1,-10.22"/>
</a>
</g>
</g>
<!-- Node16&#45;&gt;Node7 -->
<g id="edge45_Node000016_Node000007" class="edge">
<title>Node16&#45;&gt;Node7</title>
<g id="a_edge45_Node000016_Node000007"><a xlink:title=" ">
<path fill="none" stroke="#63b8ff" d="M589.72,-241.95C549.95,-230.38 494.26,-214.18 457.21,-203.41"/>
<polygon fill="#63b8ff" stroke="#63b8ff" points="457.86,-199.95 447.28,-200.52 455.9,-206.67 457.86,-199.95"/>
</a>
</g>
</g>
<!-- Node16&#45;&gt;Node11 -->
<g id="edge25_Node000016_Node000011" class="edge">
<title>Node16&#45;&gt;Node11</title>
<g id="a_edge25_Node000016_Node000011"><a xlink:title=" ">
<path fill="none" stroke="#63b8ff" d="M646.06,-241.76C656.18,-224.73 674.79,-196.02 696,-176 745.63,-129.14 818.83,-94.92 860.62,-77.82"/>
<polygon fill="#63b8ff" stroke="#63b8ff" points="862.06,-81.01 870.03,-74.03 859.45,-74.51 862.06,-81.01"/>
</a>
</g>
</g>
<!-- Node16&#45;&gt;Node12 -->
<g id="edge26_Node000016_Node000012" class="edge">
<title>Node16&#45;&gt;Node12</title>
<g id="a_edge26_Node000016_Node000012"><a xlink:title=" ">
<path fill="none" stroke="#63b8ff" d="M640.71,-241.72C644.4,-224.91 652.17,-196.67 666,-176 690.5,-139.37 703.31,-134.42 740,-110 823.29,-54.57 940.8,-26.56 995.62,-15.84"/>
<polygon fill="#63b8ff" stroke="#63b8ff" points="996.55,-19.23 1005.72,-13.93 995.25,-12.35 996.55,-19.23"/>
</a>
</g>
</g>
<!-- Node16&#45;&gt;Node13 -->
<g id="edge27_Node000016_Node000013" class="edge">
<title>Node16&#45;&gt;Node13</title>
<g id="a_edge27_Node000016_Node000013"><a xlink:title=" ">
<path fill="none" stroke="#63b8ff" d="M626.98,-241.78C601.13,-206.56 541.96,-113.89 586,-55 612.85,-19.1 667.28,-10.93 702.93,-9.7"/>
<polygon fill="#63b8ff" stroke="#63b8ff" points="703.4,-13.2 713.34,-9.52 703.28,-6.2 703.4,-13.2"/>
</a>
</g>
</g>
<!-- Node16&#45;&gt;Node17 -->
<g id="edge28_Node000016_Node000017" class="edge">
<title>Node16&#45;&gt;Node17</title>
<g id="a_edge28_Node000016_Node000017"><a xlink:title=" ">
<path fill="none" stroke="#63b8ff" d="M669.6,-241.95C690.61,-232.62 718.4,-220.27 741.09,-210.18"/>
<polygon fill="#63b8ff" stroke="#63b8ff" points="742.76,-213.27 750.47,-206.01 739.91,-206.88 742.76,-213.27"/>
</a>
</g>
</g>
<!-- Node16&#45;&gt;Node18 -->
<g id="edge42_Node000016_Node000018" class="edge">
<title>Node16&#45;&gt;Node18</title>
<g id="a_edge42_Node000016_Node000018"><a xlink:title=" ">
<path fill="none" stroke="#63b8ff" d="M632.03,-242C625.98,-225.93 618.28,-198.84 624,-176 632.97,-140.14 656.04,-103.19 670.53,-82.4"/>
<polygon fill="#63b8ff" stroke="#63b8ff" points="673.53,-84.22 676.5,-74.05 667.84,-80.15 673.53,-84.22"/>
</a>
</g>
</g>
<!-- Node16&#45;&gt;Node19 -->
<g id="edge44_Node000016_Node000019" class="edge">
<title>Node16&#45;&gt;Node19</title>
<g id="a_edge44_Node000016_Node000019"><a xlink:title=" ">
<path fill="none" stroke="#63b8ff" d="M610.18,-241.96C592.06,-232.48 568.13,-219.3 548,-206 519.94,-187.46 489.76,-163.51 469.38,-146.66"/>
<polygon fill="#63b8ff" stroke="#63b8ff" points="471.46,-143.84 461.54,-140.13 466.98,-149.22 471.46,-143.84"/>
</a>
</g>
</g>
<!-- Node16&#45;&gt;Node20 -->
<g id="edge43_Node000016_Node000020" class="edge">
<title>Node16&#45;&gt;Node20</title>
<g id="a_edge43_Node000016_Node000020"><a xlink:title=" ">
<path fill="none" stroke="#63b8ff" d="M720.19,-246.44C777.14,-238.32 846.59,-224.94 869,-206 885.54,-192.02 893.61,-168.27 897.49,-150.27"/>
<polygon fill="#63b8ff" stroke="#63b8ff" points="900.98,-150.67 899.37,-140.19 894.1,-149.38 900.98,-150.67"/>
</a>
</g>
</g>
<!-- Node17&#45;&gt;Node11 -->
<g id="edge29_Node000017_Node000011" class="edge">
<title>Node17&#45;&gt;Node11</title>
<g id="a_edge29_Node000017_Node000011"><a xlink:title=" ">
<path fill="none" stroke="#63b8ff" d="M786.61,-175.92C792.77,-158.79 805.02,-129.72 823,-110 834.74,-97.11 851.03,-86.46 864.95,-78.82"/>
<polygon fill="#63b8ff" stroke="#63b8ff" points="866.88,-81.76 874.11,-74.01 863.63,-75.56 866.88,-81.76"/>
</a>
</g>
</g>
<!-- Node17&#45;&gt;Node12 -->
<g id="edge30_Node000017_Node000012" class="edge">
<title>Node17&#45;&gt;Node12</title>
<g id="a_edge30_Node000017_Node000012"><a xlink:title=" ">
<path fill="none" stroke="#63b8ff" d="M859.73,-187.18C899.71,-181.91 946.69,-169.24 979,-140 1011.26,-110.8 1021.41,-57.7 1024.58,-29.42"/>
<polygon fill="#63b8ff" stroke="#63b8ff" points="1028.08,-29.55 1025.53,-19.27 1021.11,-28.89 1028.08,-29.55"/>
</a>
</g>
</g>
<!-- Node17&#45;&gt;Node13 -->
<g id="edge31_Node000017_Node000013" class="edge">
<title>Node17&#45;&gt;Node13</title>
<g id="a_edge31_Node000017_Node000013"><a xlink:title=" ">
<path fill="none" stroke="#63b8ff" d="M735.79,-175.98C690.75,-159.57 624.82,-127.58 595,-74 570.96,-30.8 653.92,-16.91 703.14,-12.51"/>
<polygon fill="#63b8ff" stroke="#63b8ff" points="703.69,-15.97 713.37,-11.68 703.12,-9 703.69,-15.97"/>
</a>
</g>
</g>
<!-- Node17&#45;&gt;Node18 -->
<g id="edge32_Node000017_Node000018" class="edge">
<title>Node17&#45;&gt;Node18</title>
<g id="a_edge32_Node000017_Node000018"><a xlink:title=" ">
<path fill="none" stroke="#63b8ff" d="M770.64,-175.72C752.19,-152.51 715.78,-106.73 696.2,-82.1"/>
<polygon fill="#63b8ff" stroke="#63b8ff" points="698.78,-79.72 689.81,-74.07 693.3,-84.08 698.78,-79.72"/>
</a>
</g>
</g>
<!-- Node17&#45;&gt;Node19 -->
<g id="edge35_Node000017_Node000019" class="edge">
<title>Node17&#45;&gt;Node19</title>
<g id="a_edge35_Node000017_Node000019"><a xlink:title=" ">
<path fill="none" stroke="#63b8ff" d="M708.04,-175.95C652.3,-165.37 576.14,-150.9 520.11,-140.26"/>
<polygon fill="#63b8ff" stroke="#63b8ff" points="520.72,-136.82 510.24,-138.39 519.42,-143.69 520.72,-136.82"/>
</a>
</g>
</g>
<!-- Node17&#45;&gt;Node20 -->
<g id="edge38_Node000017_Node000020" class="edge">
<title>Node17&#45;&gt;Node20</title>
<g id="a_edge38_Node000017_Node000020"><a xlink:title=" ">
<path fill="none" stroke="#63b8ff" d="M808.12,-175.95C825.09,-166.83 847.42,-154.82 865.93,-144.86"/>
<polygon fill="#63b8ff" stroke="#63b8ff" points="867.8,-147.83 874.95,-140.01 864.48,-141.67 867.8,-147.83"/>
</a>
</g>
</g>
<!-- Node18&#45;&gt;Node12 -->
<g id="edge33_Node000018_Node000012" class="edge">
<title>Node18&#45;&gt;Node12</title>
<g id="a_edge33_Node000018_Node000012"><a xlink:title=" ">
<path fill="none" stroke="#63b8ff" d="M738.11,-54.98C811.38,-43.66 938.32,-24.05 995.97,-15.14"/>
<polygon fill="#63b8ff" stroke="#63b8ff" points="996.55,-18.59 1005.9,-13.61 995.48,-11.67 996.55,-18.59"/>
</a>
</g>
</g>
<!-- Node18&#45;&gt;Node13 -->
<g id="edge34_Node000018_Node000013" class="edge">
<title>Node18&#45;&gt;Node13</title>
<g id="a_edge34_Node000018_Node000013"><a xlink:title=" ">
<path fill="none" stroke="#63b8ff" d="M691.92,-54.75C699.78,-47.03 711.43,-35.6 720.92,-26.28"/>
<polygon fill="#63b8ff" stroke="#63b8ff" points="723.56,-28.59 728.25,-19.09 718.66,-23.6 723.56,-28.59"/>
</a>
</g>
</g>
<!-- Node19&#45;&gt;Node13 -->
<g id="edge36_Node000019_Node000013" class="edge">
<title>Node19&#45;&gt;Node13</title>
<g id="a_edge36_Node000019_Node000013"><a xlink:title=" ">
<path fill="none" stroke="#63b8ff" d="M456.88,-109.98C471.15,-94.09 496.61,-68.64 524,-55 582.73,-25.76 659.81,-15.71 703.31,-12.27"/>
<polygon fill="#63b8ff" stroke="#63b8ff" points="703.63,-15.76 713.36,-11.55 703.13,-8.78 703.63,-15.76"/>
</a>
</g>
</g>
<!-- Node19&#45;&gt;Node18 -->
<g id="edge37_Node000019_Node000018" class="edge">
<title>Node19&#45;&gt;Node18</title>
<g id="a_edge37_Node000019_Node000018"><a xlink:title=" ">
<path fill="none" stroke="#63b8ff" d="M502.01,-109.99C543.79,-99.72 599.73,-85.97 638.3,-76.49"/>
<polygon fill="#63b8ff" stroke="#63b8ff" points="639.33,-79.84 648.2,-74.05 637.65,-73.04 639.33,-79.84"/>
</a>
</g>
</g>
<!-- Node20&#45;&gt;Node11 -->
<g id="edge39_Node000020_Node000011" class="edge">
<title>Node20&#45;&gt;Node11</title>
<g id="a_edge39_Node000020_Node000011"><a xlink:title=" ">
<path fill="none" stroke="#63b8ff" d="M899.06,-109.84C898.02,-102.21 896.72,-92.7 895.59,-84.45"/>
<polygon fill="#63b8ff" stroke="#63b8ff" points="899.02,-83.7 894.2,-74.27 892.09,-84.65 899.02,-83.7"/>
</a>
</g>
</g>
<!-- Node20&#45;&gt;Node12 -->
<g id="edge40_Node000020_Node000012" class="edge">
<title>Node20&#45;&gt;Node12</title>
<g id="a_edge40_Node000020_Node000012"><a xlink:title=" ">
<path fill="none" stroke="#63b8ff" d="M916.58,-109.85C940.1,-88.5 984.51,-48.17 1008.9,-26.03"/>
<polygon fill="#63b8ff" stroke="#63b8ff" points="1011.29,-28.58 1016.34,-19.27 1006.58,-23.4 1011.29,-28.58"/>
</a>
</g>
</g>
<!-- Node20&#45;&gt;Node13 -->
<g id="edge41_Node000020_Node000013" class="edge">
<title>Node20&#45;&gt;Node13</title>
<g id="a_edge41_Node000020_Node000013"><a xlink:title=" ">
<path fill="none" stroke="#63b8ff" d="M880.56,-109.85C849.3,-88.22 789.91,-47.12 758.2,-25.17"/>
<polygon fill="#63b8ff" stroke="#63b8ff" points="759.89,-22.08 749.67,-19.27 755.9,-27.84 759.89,-22.08"/>
</a>
</g>
</g>
</g>
</svg>

<g id="navigator" transform="translate(0 0)" fill="#404254">
  <rect fill="#f2f5e9" fill-opacity="0.5" stroke="#606060" stroke-width=".5" x="0" y="0" width="60" height="60"/>
  <use id="zoomplus" xlink:href="#zoomPlus" x="17" y="9" onmousedown="handleZoom(evt,'in')"/>
  <use id="zoomminus" xlink:href="#zoomMin" x="42" y="9" onmousedown="handleZoom(evt,'out')"/>
  <use id="reset" xlink:href="#resetDef" x="30" y="36" onmousedown="handleReset()"/>
   <use id="arrowup" xlink:href="#arrowUp" x="0" y="0" onmousedown="handlePan(0,-1)"/>
  <use id="arrowright" xlink:href="#arrowRight" x="0" y="0" onmousedown="handlePan(1,0)"/>
  <use id="arrowdown" xlink:href="#arrowDown" x="0" y="0" onmousedown="handlePan(0,1)"/>
  <use id="arrowleft" xlink:href="#arrowLeft" x="0" y="0" onmousedown="handlePan(-1,0)"/>
</g>
<svg viewBox="0 0 15 15" width="100%" height="30px" preserveAspectRatio="xMaxYMin meet">
 <g id="arrow_out" transform="scale(0.3 0.3)">
  <a xlink:href="helios_2core_2__module_8ixx__incl_org.svg" target="_base">
   <rect id="button" ry="5" rx="5" y="6" x="6" height="38" width="38"
        fill="#f2f5e9" fill-opacity="0.5" stroke="#606060" stroke-width="1.0"/>
   <path id="arrow"
     d="M 11.500037,31.436501 C 11.940474,20.09759 22.043105,11.32322 32.158766,21.979434 L 37.068811,17.246167 C 37.068811,17.246167 37.088388,32 37.088388,32 L 22.160133,31.978069 C 22.160133,31.978069 26.997745,27.140456 26.997745,27.140456 C 18.528582,18.264221 13.291696,25.230495 11.500037,31.436501 z"
     style="fill:#404040;"/>
  </a>
 </g>
</svg>

<style type='text/css'>
<![CDATA[
[data-mouse-over-selected='false'] { opacity: 0.7; }
[data-mouse-over-selected='true']  { opacity: 1.0; }
]]>
</style>
<script type="application/ecmascript"><![CDATA[
document.addEventListener('DOMContentLoaded', (event) => {
  highlightEdges();
  highlightAdjacentNodes();
});
]]></script>
</svg>
