<?xml version="1.0" encoding="UTF-8" standalone="no"?>
<!DOCTYPE svg PUBLIC "-//W3C//DTD SVG 1.1//EN"
 "http://www.w3.org/Graphics/SVG/1.1/DTD/svg11.dtd">
<!-- Generated by graphviz version 2.43.0 (0)
 -->
<!-- Title: include/helios/engine/_module.ixx Pages: 1 -->
<svg width="600pt" height="203pt"
 viewBox="0.00 0.00 599.50 203.00" xmlns="http://www.w3.org/2000/svg" xmlns:xlink="http://www.w3.org/1999/xlink">
<g id="graph0" class="graph" transform="scale(1 1) rotate(0) translate(4 199)">
<title>include/helios/engine/_module.ixx</title>
<!-- Node1 -->
<g id="Node000001" class="node">
<title>Node1</title>
<g id="a_Node000001"><a xlink:title=" ">
<polygon fill="#999999" stroke="#666666" points="213.5,-195 93.5,-195 93.5,-165 213.5,-165 213.5,-195"/>
<text text-anchor="start" x="101.5" y="-183" font-family="Helvetica,sans-Serif" font-size="10.00">include/helios/engine</text>
<text text-anchor="middle" x="153.5" y="-172" font-family="Helvetica,sans-Serif" font-size="10.00">/_module.ixx</text>
</a>
</g>
</g>
<!-- Node2 -->
<g id="Node000002" class="node">
<title>Node2</title>
<g id="a_Node000002"><a xlink:href="Tickable_8ixx.html" target="_top" xlink:title="Abstract interface for objects that are updated (ticked) every frame.">
<polygon fill="white" stroke="#666666" points="125,-129 0,-129 0,-110 125,-110 125,-129"/>
<text text-anchor="middle" x="62.5" y="-117" font-family="Helvetica,sans-Serif" font-size="10.00">helios.engine.Tickable</text>
</a>
</g>
</g>
<!-- Node1&#45;&gt;Node2 -->
<g id="edge1_Node000001_Node000002" class="edge">
<title>Node1&#45;&gt;Node2</title>
<g id="a_edge1_Node000001_Node000002"><a xlink:title=" ">
<path fill="none" stroke="#63b8ff" d="M131.47,-164.84C117.23,-155.68 98.77,-143.82 84.53,-134.66"/>
<polygon fill="#63b8ff" stroke="#63b8ff" points="86.17,-131.56 75.87,-129.09 82.39,-137.45 86.17,-131.56"/>
</a>
</g>
</g>
<!-- Node3 -->
<g id="Node000003" class="node">
<title>Node3</title>
<g id="a_Node000003"><a xlink:href="FrameStats_8ixx.html" target="_top" xlink:title="Module defining the FrameStats structure for frame timing information.">
<polygon fill="white" stroke="#666666" points="179.5,-74 39.5,-74 39.5,-55 179.5,-55 179.5,-74"/>
<text text-anchor="middle" x="109.5" y="-62" font-family="Helvetica,sans-Serif" font-size="10.00">helios.engine.FrameStats</text>
</a>
</g>
</g>
<!-- Node1&#45;&gt;Node3 -->
<g id="edge2_Node000001_Node000003" class="edge">
<title>Node1&#45;&gt;Node3</title>
<g id="a_edge2_Node000001_Node000003"><a xlink:title=" ">
<path fill="none" stroke="#63b8ff" d="M150.36,-164.96C146.98,-150.81 141.06,-128.47 133.5,-110 129.72,-100.76 124.56,-90.94 119.99,-82.89"/>
<polygon fill="#63b8ff" stroke="#63b8ff" points="122.92,-80.96 114.85,-74.1 116.88,-84.5 122.92,-80.96"/>
</a>
</g>
</g>
<!-- Node4 -->
<g id="Node000004" class="node">
<title>Node4</title>
<g id="a_Node000004"><a xlink:href="FramePacer_8ixx.html" target="_top" xlink:title="Module defining the FramePacer class for frame rate control and timing synchronization.">
<polygon fill="white" stroke="#666666" points="368.5,-129 226.5,-129 226.5,-110 368.5,-110 368.5,-129"/>
<text text-anchor="middle" x="297.5" y="-117" font-family="Helvetica,sans-Serif" font-size="10.00">helios.engine.FramePacer</text>
</a>
</g>
</g>
<!-- Node1&#45;&gt;Node4 -->
<g id="edge3_Node000001_Node000004" class="edge">
<title>Node1&#45;&gt;Node4</title>
<g id="a_edge3_Node000001_Node000004"><a xlink:title=" ">
<path fill="none" stroke="#63b8ff" d="M187.99,-164.99C212.02,-155.23 243.77,-142.33 266.9,-132.93"/>
<polygon fill="#63b8ff" stroke="#63b8ff" points="268.29,-136.15 276.23,-129.14 265.65,-129.66 268.29,-136.15"/>
</a>
</g>
</g>
<!-- Node4&#45;&gt;Node3 -->
<g id="edge8_Node000004_Node000003" class="edge">
<title>Node4&#45;&gt;Node3</title>
<g id="a_edge8_Node000004_Node000003"><a xlink:title=" ">
<path fill="none" stroke="#63b8ff" d="M267.29,-109.98C235.46,-101.01 185.14,-86.82 149.9,-76.89"/>
<polygon fill="#63b8ff" stroke="#63b8ff" points="150.52,-73.43 139.94,-74.08 148.62,-80.16 150.52,-73.43"/>
</a>
</g>
</g>
<!-- Node5 -->
<g id="Node000005" class="node">
<title>Node5</title>
<g id="a_Node000005"><a xlink:title=" ">
<polygon fill="#e0e0e0" stroke="#999999" points="255.5,-74 197.5,-74 197.5,-55 255.5,-55 255.5,-74"/>
<text text-anchor="middle" x="226.5" y="-62" font-family="Helvetica,sans-Serif" font-size="10.00">memory</text>
</a>
</g>
</g>
<!-- Node4&#45;&gt;Node5 -->
<g id="edge4_Node000004_Node000005" class="edge">
<title>Node4&#45;&gt;Node5</title>
<g id="a_edge4_Node000004_Node000005"><a xlink:title=" ">
<path fill="none" stroke="#63b8ff" d="M286.09,-109.98C275.39,-102 259.16,-89.88 246.34,-80.31"/>
<polygon fill="#63b8ff" stroke="#63b8ff" points="248.22,-77.35 238.11,-74.17 244.03,-82.96 248.22,-77.35"/>
</a>
</g>
</g>
<!-- Node6 -->
<g id="Node000006" class="node">
<title>Node6</title>
<g id="a_Node000006"><a xlink:title=" ">
<polygon fill="#e0e0e0" stroke="#999999" points="321.5,-74 273.5,-74 273.5,-55 321.5,-55 321.5,-74"/>
<text text-anchor="middle" x="297.5" y="-62" font-family="Helvetica,sans-Serif" font-size="10.00">thread</text>
</a>
</g>
</g>
<!-- Node4&#45;&gt;Node6 -->
<g id="edge5_Node000004_Node000006" class="edge">
<title>Node4&#45;&gt;Node6</title>
<g id="a_edge5_Node000004_Node000006"><a xlink:title=" ">
<path fill="none" stroke="#63b8ff" d="M297.5,-109.75C297.5,-102.8 297.5,-92.85 297.5,-84.13"/>
<polygon fill="#63b8ff" stroke="#63b8ff" points="301,-84.09 297.5,-74.09 294,-84.09 301,-84.09"/>
</a>
</g>
</g>
<!-- Node7 -->
<g id="Node000007" class="node">
<title>Node7</title>
<g id="a_Node000007"><a xlink:title=" ">
<polygon fill="#e0e0e0" stroke="#999999" points="459.5,-19 409.5,-19 409.5,0 459.5,0 459.5,-19"/>
<text text-anchor="middle" x="434.5" y="-7" font-family="Helvetica,sans-Serif" font-size="10.00">chrono</text>
</a>
</g>
</g>
<!-- Node4&#45;&gt;Node7 -->
<g id="edge6_Node000004_Node000007" class="edge">
<title>Node4&#45;&gt;Node7</title>
<g id="a_edge6_Node000004_Node000007"><a xlink:title=" ">
<path fill="none" stroke="#63b8ff" d="M306.35,-109.87C319.45,-97.25 345.01,-73.28 368.5,-55 382.45,-44.14 398.94,-33.02 411.95,-24.61"/>
<polygon fill="#63b8ff" stroke="#63b8ff" points="414.18,-27.34 420.72,-19.01 410.41,-21.44 414.18,-27.34"/>
</a>
</g>
</g>
<!-- Node8 -->
<g id="Node000008" class="node">
<title>Node8</title>
<g id="a_Node000008"><a xlink:title=" ">
<polygon fill="#e0e0e0" stroke="#999999" points="429.5,-74 377.5,-74 377.5,-55 429.5,-55 429.5,-74"/>
<text text-anchor="middle" x="403.5" y="-62" font-family="Helvetica,sans-Serif" font-size="10.00">cassert</text>
</a>
</g>
</g>
<!-- Node4&#45;&gt;Node8 -->
<g id="edge7_Node000004_Node000008" class="edge">
<title>Node4&#45;&gt;Node8</title>
<g id="a_edge7_Node000004_Node000008"><a xlink:title=" ">
<path fill="none" stroke="#63b8ff" d="M314.53,-109.98C331.43,-101.54 357.56,-88.47 377.14,-78.68"/>
<polygon fill="#63b8ff" stroke="#63b8ff" points="378.78,-81.77 386.16,-74.17 375.65,-75.51 378.78,-81.77"/>
</a>
</g>
</g>
<!-- Node9 -->
<g id="Node000009" class="node">
<title>Node9</title>
<g id="a_Node000009"><a xlink:href="Stopwatch_8ixx.html" target="_top" xlink:title="A high&#45;resolution timer based on std::chrono::steady_clock.">
<polygon fill="white" stroke="#666666" points="591.5,-74 447.5,-74 447.5,-55 591.5,-55 591.5,-74"/>
<text text-anchor="middle" x="519.5" y="-62" font-family="Helvetica,sans-Serif" font-size="10.00">helios.util.time.Stopwatch</text>
</a>
</g>
</g>
<!-- Node4&#45;&gt;Node9 -->
<g id="edge9_Node000004_Node000009" class="edge">
<title>Node4&#45;&gt;Node9</title>
<g id="a_edge9_Node000004_Node000009"><a xlink:title=" ">
<path fill="none" stroke="#63b8ff" d="M333.17,-109.98C371.33,-100.87 431.97,-86.4 473.65,-76.45"/>
<polygon fill="#63b8ff" stroke="#63b8ff" points="474.64,-79.81 483.55,-74.08 473.01,-73 474.64,-79.81"/>
</a>
</g>
</g>
<!-- Node9&#45;&gt;Node7 -->
<g id="edge10_Node000009_Node000007" class="edge">
<title>Node9&#45;&gt;Node7</title>
<g id="a_edge10_Node000009_Node000007"><a xlink:title=" ">
<path fill="none" stroke="#63b8ff" d="M505.84,-54.98C492.66,-46.77 472.47,-34.18 456.93,-24.49"/>
<polygon fill="#63b8ff" stroke="#63b8ff" points="458.74,-21.49 448.41,-19.17 455.04,-27.43 458.74,-21.49"/>
</a>
</g>
</g>
</g>
</svg>
