<?xml version="1.0" encoding="UTF-8" standalone="no"?>
<!DOCTYPE svg PUBLIC "-//W3C//DTD SVG 1.1//EN"
 "http://www.w3.org/Graphics/SVG/1.1/DTD/svg11.dtd">
<!-- Generated by graphviz version 2.43.0 (0)
 -->
<!-- Title: _module.ixx Pages: 1 -->
<svg width="250pt" height="269pt"
 viewBox="0.00 0.00 250.00 269.00" xmlns="http://www.w3.org/2000/svg" xmlns:xlink="http://www.w3.org/1999/xlink">

<svg id="main" version="1.1" xmlns="http://www.w3.org/2000/svg" xmlns:xlink="http://www.w3.org/1999/xlink" xml:space="preserve">

<style type="text/css"><![CDATA[
.node, .edge {opacity: 0.7;}
.node.selected, .edge.selected {opacity: 1;}
.edge:hover path { stroke: red; }
.edge:hover polygon { stroke: red; fill: red; }
]]></style>
<script type="application/ecmascript" xlink:href="svg.min.js"/>
<svg id="graph" class="graph">
<g id="graph0" class="graph" transform="scale(1 1) rotate(0) translate(4 265)">
<title>_module.ixx</title>
<!-- Node1 -->
<g id="Node000001" class="node">
<title>Node1</title>
<g id="a_Node000001"><a xlink:title="Aggregates world&#45;level lifecycle commands.">
<polygon fill="#999999" stroke="#666666" points="159.5,-261 82.5,-261 82.5,-242 159.5,-242 159.5,-261"/>
<text text-anchor="middle" x="121" y="-249" font-family="Helvetica,sans-Serif" font-size="10.00">_module.ixx</text>
</a>
</g>
</g>
<!-- Node2 -->
<g id="Node000002" class="node">
<title>Node2</title>
<g id="a_Node000002"><a xlink:href="WorldLifecycleCommand_8ixx.html" target="_top" xlink:title="Command for requesting world&#45;level lifecycle operations.">
<polygon fill="white" stroke="#666666" points="242,-206 0,-206 0,-176 242,-176 242,-206"/>
<text text-anchor="start" x="8" y="-194" font-family="Helvetica,sans-Serif" font-size="10.00">helios.engine.mechanics.lifecycle.commands.</text>
<text text-anchor="middle" x="121" y="-183" font-family="Helvetica,sans-Serif" font-size="10.00">WorldLifecycleCommand</text>
</a>
</g>
</g>
<!-- Node1&#45;&gt;Node2 -->
<g id="edge1_Node000001_Node000002" class="edge">
<title>Node1&#45;&gt;Node2</title>
<g id="a_edge1_Node000001_Node000002"><a xlink:title=" ">
<path fill="none" stroke="#63b8ff" d="M121,-241.87C121,-235.11 121,-225.35 121,-216.26"/>
<polygon fill="#63b8ff" stroke="#63b8ff" points="124.5,-216.11 121,-206.11 117.5,-216.11 124.5,-216.11"/>
</a>
</g>
</g>
<!-- Node3 -->
<g id="Node000003" class="node">
<title>Node3</title>
<g id="a_Node000003"><a xlink:href="helios_2engine_2mechanics_2lifecycle_2types_2__module_8ixx.html" target="_top" xlink:title="Aggregates world&#45;level lifecycle types.">
<polygon fill="white" stroke="#666666" points="227,-140 15,-140 15,-121 227,-121 227,-140"/>
<text text-anchor="middle" x="121" y="-128" font-family="Helvetica,sans-Serif" font-size="10.00">helios.engine.mechanics.lifecycle.types</text>
</a>
</g>
</g>
<!-- Node2&#45;&gt;Node3 -->
<g id="edge2_Node000002_Node000003" class="edge">
<title>Node2&#45;&gt;Node3</title>
<g id="a_edge2_Node000002_Node000003"><a xlink:title=" ">
<path fill="none" stroke="#63b8ff" d="M121,-175.84C121,-168.21 121,-158.7 121,-150.45"/>
<polygon fill="#63b8ff" stroke="#63b8ff" points="124.5,-150.27 121,-140.27 117.5,-150.27 124.5,-150.27"/>
</a>
</g>
</g>
<!-- Node4 -->
<g id="Node000004" class="node">
<title>Node4</title>
<g id="a_Node000004"><a xlink:href="WorldLifecycleAction_8ixx.html" target="_top" xlink:title="Enumeration of world&#45;level lifecycle actions.">
<polygon fill="white" stroke="#666666" points="228.5,-85 13.5,-85 13.5,-55 228.5,-55 228.5,-85"/>
<text text-anchor="start" x="21.5" y="-73" font-family="Helvetica,sans-Serif" font-size="10.00">helios.engine.mechanics.lifecycle.types.</text>
<text text-anchor="middle" x="121" y="-62" font-family="Helvetica,sans-Serif" font-size="10.00">WorldLifecycleAction</text>
</a>
</g>
</g>
<!-- Node3&#45;&gt;Node4 -->
<g id="edge3_Node000003_Node000004" class="edge">
<title>Node3&#45;&gt;Node4</title>
<g id="a_edge3_Node000003_Node000004"><a xlink:title=" ">
<path fill="none" stroke="#63b8ff" d="M121,-120.87C121,-114.11 121,-104.35 121,-95.26"/>
<polygon fill="#63b8ff" stroke="#63b8ff" points="124.5,-95.11 121,-85.11 117.5,-95.11 124.5,-95.11"/>
</a>
</g>
</g>
<!-- Node5 -->
<g id="Node000005" class="node">
<title>Node5</title>
<g id="a_Node000005"><a xlink:title=" ">
<polygon fill="#e0e0e0" stroke="#999999" points="146,-19 96,-19 96,0 146,0 146,-19"/>
<text text-anchor="middle" x="121" y="-7" font-family="Helvetica,sans-Serif" font-size="10.00">cstdint</text>
</a>
</g>
</g>
<!-- Node4&#45;&gt;Node5 -->
<g id="edge4_Node000004_Node000005" class="edge">
<title>Node4&#45;&gt;Node5</title>
<g id="a_edge4_Node000004_Node000005"><a xlink:title=" ">
<path fill="none" stroke="#63b8ff" d="M121,-54.84C121,-47.21 121,-37.7 121,-29.45"/>
<polygon fill="#63b8ff" stroke="#63b8ff" points="124.5,-29.27 121,-19.27 117.5,-29.27 124.5,-29.27"/>
</a>
</g>
</g>
</g>
</svg>
</svg>

<style type='text/css'>
<![CDATA[
[data-mouse-over-selected='false'] { opacity: 0.7; }
[data-mouse-over-selected='true']  { opacity: 1.0; }
]]>
</style>
<script type="application/ecmascript"><![CDATA[
document.addEventListener('DOMContentLoaded', (event) => {
  highlightEdges();
  highlightAdjacentNodes();
});
]]></script>
</svg>
