<?xml version="1.0" encoding="UTF-8" standalone="no"?>
<!DOCTYPE svg PUBLIC "-//W3C//DTD SVG 1.1//EN"
 "http://www.w3.org/Graphics/SVG/1.1/DTD/svg11.dtd">
<!-- Generated by graphviz version 2.43.0 (0)
 -->
<!-- Title: _module.ixx Pages: 1 -->
<svg width="935pt" height="258pt"
 viewBox="0.00 0.00 934.85 258.00" xmlns="http://www.w3.org/2000/svg" xmlns:xlink="http://www.w3.org/1999/xlink">
<g id="graph0" class="graph" transform="scale(1 1) rotate(0) translate(4 254)">
<title>_module.ixx</title>
<!-- Node1 -->
<g id="Node000001" class="node">
<title>Node1</title>
<g id="a_Node000001"><a xlink:title="Aggregate module for helios::engine::modules::physics::collision::events namespace.">
<polygon fill="#999999" stroke="#666666" points="668,-250 591,-250 591,-231 668,-231 668,-250"/>
<text text-anchor="middle" x="629.5" y="-238" font-family="Helvetica,sans-Serif" font-size="10.00">_module.ixx</text>
</a>
</g>
</g>
<!-- Node2 -->
<g id="Node000002" class="node">
<title>Node2</title>
<g id="a_Node000002"><a xlink:href="TriggerCollisionEvent_8ixx.html" target="_top" xlink:title="Event dispatched when two solid colliders physically collide.">
<polygon fill="white" stroke="#666666" points="621,-195 372,-195 372,-165 621,-165 621,-195"/>
<text text-anchor="start" x="380" y="-183" font-family="Helvetica,sans-Serif" font-size="10.00">helios.engine.modules.physics.collision.events.</text>
<text text-anchor="middle" x="496.5" y="-172" font-family="Helvetica,sans-Serif" font-size="10.00">TriggerCollisionEvent</text>
</a>
</g>
</g>
<!-- Node1&#45;&gt;Node2 -->
<g id="edge1_Node000001_Node000002" class="edge">
<title>Node1&#45;&gt;Node2</title>
<g id="a_edge1_Node000001_Node000002"><a xlink:title=" ">
<path fill="none" stroke="#63b8ff" d="M610.16,-230.99C591.27,-222.68 561.92,-209.78 537.78,-199.16"/>
<polygon fill="#63b8ff" stroke="#63b8ff" points="539.04,-195.89 528.48,-195.06 536.22,-202.29 539.04,-195.89"/>
</a>
</g>
</g>
<!-- Node14 -->
<g id="Node000014" class="node">
<title>Node14</title>
<g id="a_Node000014"><a xlink:href="SolidCollisionEvent_8ixx.html" target="_top" xlink:title="Event dispatched when two solid colliders physically collide.">
<polygon fill="white" stroke="#666666" points="888,-195 639,-195 639,-165 888,-165 888,-195"/>
<text text-anchor="start" x="647" y="-183" font-family="Helvetica,sans-Serif" font-size="10.00">helios.engine.modules.physics.collision.events.</text>
<text text-anchor="middle" x="763.5" y="-172" font-family="Helvetica,sans-Serif" font-size="10.00">SolidCollisionEvent</text>
</a>
</g>
</g>
<!-- Node1&#45;&gt;Node14 -->
<g id="edge17_Node000001_Node000014" class="edge">
<title>Node1&#45;&gt;Node14</title>
<g id="a_edge17_Node000001_Node000014"><a xlink:title=" ">
<path fill="none" stroke="#63b8ff" d="M648.98,-230.99C668.02,-222.68 697.59,-209.78 721.91,-199.16"/>
<polygon fill="#63b8ff" stroke="#63b8ff" points="723.52,-202.27 731.28,-195.06 720.72,-195.86 723.52,-202.27"/>
</a>
</g>
</g>
<!-- Node3 -->
<g id="Node000003" class="node">
<title>Node3</title>
<g id="a_Node000003"><a xlink:href="helios_2math_2__module_8ixx.html" target="_top" xlink:title="Module exports for mathematical types and utilities.">
<polygon fill="white" stroke="#666666" points="529.5,-129 455.5,-129 455.5,-110 529.5,-110 529.5,-129"/>
<text text-anchor="middle" x="492.5" y="-117" font-family="Helvetica,sans-Serif" font-size="10.00">helios.math</text>
</a>
</g>
</g>
<!-- Node2&#45;&gt;Node3 -->
<g id="edge2_Node000002_Node000003" class="edge">
<title>Node2&#45;&gt;Node3</title>
<g id="a_edge2_Node000002_Node000003"><a xlink:title=" ">
<path fill="none" stroke="#63b8ff" d="M495.53,-164.84C495.01,-157.21 494.36,-147.7 493.8,-139.45"/>
<polygon fill="#63b8ff" stroke="#63b8ff" points="497.27,-139 493.1,-129.27 490.29,-139.48 497.27,-139"/>
</a>
</g>
</g>
<!-- Node11 -->
<g id="Node000011" class="node">
<title>Node11</title>
<g id="a_Node000011"><a xlink:href="Guid_8ixx.html" target="_top" xlink:title="Lightweight GUID (globally unique identifier) implementation.">
<polygon fill="white" stroke="#666666" points="812.5,-129 722.5,-129 722.5,-110 812.5,-110 812.5,-129"/>
<text text-anchor="middle" x="767.5" y="-117" font-family="Helvetica,sans-Serif" font-size="10.00">helios.util.Guid</text>
</a>
</g>
</g>
<!-- Node2&#45;&gt;Node11 -->
<g id="edge13_Node000002_Node000011" class="edge">
<title>Node2&#45;&gt;Node11</title>
<g id="a_edge13_Node000002_Node000011"><a xlink:title=" ">
<path fill="none" stroke="#63b8ff" d="M561.41,-164.99C609.5,-154.61 674.04,-140.68 718,-131.19"/>
<polygon fill="#63b8ff" stroke="#63b8ff" points="718.84,-134.58 727.88,-129.05 717.36,-127.74 718.84,-134.58"/>
</a>
</g>
</g>
<!-- Node4 -->
<g id="Node000004" class="node">
<title>Node4</title>
<g id="a_Node000004"><a xlink:href="helios_2math_2concepts_2__module_8ixx.html" target="_top" xlink:title="Math concepts module exports.">
<polygon fill="white" stroke="#666666" points="706,-74 585,-74 585,-55 706,-55 706,-74"/>
<text text-anchor="middle" x="645.5" y="-62" font-family="Helvetica,sans-Serif" font-size="10.00">helios.math.concepts</text>
</a>
</g>
</g>
<!-- Node3&#45;&gt;Node4 -->
<g id="edge3_Node000003_Node000004" class="edge">
<title>Node3&#45;&gt;Node4</title>
<g id="a_edge3_Node000003_Node000004"><a xlink:title=" ">
<path fill="none" stroke="#63b8ff" d="M517.08,-109.98C542.55,-101.16 582.54,-87.31 611.13,-77.41"/>
<polygon fill="#63b8ff" stroke="#63b8ff" points="612.42,-80.66 620.73,-74.08 610.13,-74.05 612.42,-80.66"/>
</a>
</g>
</g>
<!-- Node5 -->
<g id="Node000005" class="node">
<title>Node5</title>
<g id="a_Node000005"><a xlink:href="helios_2math_2transform_2__module_8ixx.html" target="_top" xlink:title="Module exports for transformation utilities.">
<polygon fill="white" stroke="#666666" points="125,-74 0,-74 0,-55 125,-55 125,-74"/>
<text text-anchor="middle" x="62.5" y="-62" font-family="Helvetica,sans-Serif" font-size="10.00">helios.math.transform</text>
</a>
</g>
</g>
<!-- Node3&#45;&gt;Node5 -->
<g id="edge5_Node000003_Node000005" class="edge">
<title>Node3&#45;&gt;Node5</title>
<g id="a_edge5_Node000003_Node000005"><a xlink:title=" ">
<path fill="none" stroke="#63b8ff" d="M455.47,-113.94C384.48,-105.19 228.12,-85.91 135.46,-74.49"/>
<polygon fill="#63b8ff" stroke="#63b8ff" points="135.66,-70.99 125.31,-73.24 134.81,-77.94 135.66,-70.99"/>
</a>
</g>
</g>
<!-- Node6 -->
<g id="Node000006" class="node">
<title>Node6</title>
<g id="a_Node000006"><a xlink:href="helios_2math_2types_2__module_8ixx.html" target="_top" xlink:title="Module exports for vector and matrix type definitions.">
<polygon fill="white" stroke="#666666" points="265.5,-74 161.5,-74 161.5,-55 265.5,-55 265.5,-74"/>
<text text-anchor="middle" x="213.5" y="-62" font-family="Helvetica,sans-Serif" font-size="10.00">helios.math.types</text>
</a>
</g>
</g>
<!-- Node3&#45;&gt;Node6 -->
<g id="edge7_Node000003_Node000006" class="edge">
<title>Node3&#45;&gt;Node6</title>
<g id="a_edge7_Node000003_Node000006"><a xlink:title=" ">
<path fill="none" stroke="#63b8ff" d="M455.45,-111.46C407.59,-102.37 323.86,-86.46 268.55,-75.96"/>
<polygon fill="#63b8ff" stroke="#63b8ff" points="269.04,-72.49 258.56,-74.06 267.73,-79.37 269.04,-72.49"/>
</a>
</g>
</g>
<!-- Node7 -->
<g id="Node000007" class="node">
<title>Node7</title>
<g id="a_Node000007"><a xlink:href="utils_8ixx.html" target="_top" xlink:title="Misc math utility functions.">
<polygon fill="white" stroke="#666666" points="399.5,-74 301.5,-74 301.5,-55 399.5,-55 399.5,-74"/>
<text text-anchor="middle" x="350.5" y="-62" font-family="Helvetica,sans-Serif" font-size="10.00">helios.math.utils</text>
</a>
</g>
</g>
<!-- Node3&#45;&gt;Node7 -->
<g id="edge9_Node000003_Node000007" class="edge">
<title>Node3&#45;&gt;Node7</title>
<g id="a_edge9_Node000003_Node000007"><a xlink:title=" ">
<path fill="none" stroke="#63b8ff" d="M469.69,-109.98C446.33,-101.27 409.8,-87.63 383.33,-77.75"/>
<polygon fill="#63b8ff" stroke="#63b8ff" points="384.32,-74.39 373.73,-74.17 381.87,-80.95 384.32,-74.39"/>
</a>
</g>
</g>
<!-- Node9 -->
<g id="Node000009" class="node">
<title>Node9</title>
<g id="a_Node000009"><a xlink:href="TransformType_8ixx.html" target="_top" xlink:title="Defines transform inheritance flags for scene graph hierarchies.">
<polygon fill="white" stroke="#666666" points="567,-74 418,-74 418,-55 567,-55 567,-74"/>
<text text-anchor="middle" x="492.5" y="-62" font-family="Helvetica,sans-Serif" font-size="10.00">helios.math.TransformType</text>
</a>
</g>
</g>
<!-- Node3&#45;&gt;Node9 -->
<g id="edge11_Node000003_Node000009" class="edge">
<title>Node3&#45;&gt;Node9</title>
<g id="a_edge11_Node000003_Node000009"><a xlink:title=" ">
<path fill="none" stroke="#63b8ff" d="M492.5,-109.75C492.5,-102.8 492.5,-92.85 492.5,-84.13"/>
<polygon fill="#63b8ff" stroke="#63b8ff" points="496,-84.09 492.5,-74.09 489,-84.09 496,-84.09"/>
</a>
</g>
</g>
<!-- Node4&#45;&gt;Node4 -->
<g id="edge4_Node000004_Node000004" class="edge">
<title>Node4&#45;&gt;Node4</title>
<g id="a_edge4_Node000004_Node000004"><a xlink:title=" ">
<path fill="none" stroke="#63b8ff" d="M682.24,-74.03C703.81,-76.06 724,-72.88 724,-64.5 724,-57.49 709.89,-54.12 692.67,-54.39"/>
<polygon fill="#63b8ff" stroke="#63b8ff" points="692.03,-50.92 682.24,-54.97 692.42,-57.91 692.03,-50.92"/>
</a>
</g>
</g>
<!-- Node5&#45;&gt;Node5 -->
<g id="edge6_Node000005_Node000005" class="edge">
<title>Node5&#45;&gt;Node5</title>
<g id="a_edge6_Node000005_Node000005"><a xlink:title=" ">
<path fill="none" stroke="#63b8ff" d="M100.18,-74.03C122.3,-76.06 143,-72.88 143,-64.5 143,-57.43 128.26,-54.06 110.37,-54.4"/>
<polygon fill="#63b8ff" stroke="#63b8ff" points="109.97,-50.92 100.18,-54.97 110.36,-57.9 109.97,-50.92"/>
</a>
</g>
</g>
<!-- Node6&#45;&gt;Node6 -->
<g id="edge8_Node000006_Node000006" class="edge">
<title>Node6&#45;&gt;Node6</title>
<g id="a_edge8_Node000006_Node000006"><a xlink:title=" ">
<path fill="none" stroke="#63b8ff" d="M246.27,-74.03C265.5,-76.06 283.5,-72.88 283.5,-64.5 283.5,-57.62 271.39,-54.25 256.42,-54.38"/>
<polygon fill="#63b8ff" stroke="#63b8ff" points="256.05,-50.89 246.27,-54.97 256.45,-57.88 256.05,-50.89"/>
</a>
</g>
</g>
<!-- Node8 -->
<g id="Node000008" class="node">
<title>Node8</title>
<g id="a_Node000008"><a xlink:title=" ">
<polygon fill="#e0e0e0" stroke="#999999" points="380,-19 321,-19 321,0 380,0 380,-19"/>
<text text-anchor="middle" x="350.5" y="-7" font-family="Helvetica,sans-Serif" font-size="10.00">numbers</text>
</a>
</g>
</g>
<!-- Node7&#45;&gt;Node8 -->
<g id="edge10_Node000007_Node000008" class="edge">
<title>Node7&#45;&gt;Node8</title>
<g id="a_edge10_Node000007_Node000008"><a xlink:title=" ">
<path fill="none" stroke="#63b8ff" d="M350.5,-54.75C350.5,-47.8 350.5,-37.85 350.5,-29.13"/>
<polygon fill="#63b8ff" stroke="#63b8ff" points="354,-29.09 350.5,-19.09 347,-29.09 354,-29.09"/>
</a>
</g>
</g>
<!-- Node10 -->
<g id="Node000010" class="node">
<title>Node10</title>
<g id="a_Node000010"><a xlink:title=" ">
<polygon fill="#e0e0e0" stroke="#999999" points="740.5,-19 690.5,-19 690.5,0 740.5,0 740.5,-19"/>
<text text-anchor="middle" x="715.5" y="-7" font-family="Helvetica,sans-Serif" font-size="10.00">cstdint</text>
</a>
</g>
</g>
<!-- Node9&#45;&gt;Node10 -->
<g id="edge12_Node000009_Node000010" class="edge">
<title>Node9&#45;&gt;Node10</title>
<g id="a_edge12_Node000009_Node000010"><a xlink:title=" ">
<path fill="none" stroke="#63b8ff" d="M528.33,-54.98C570.21,-45.03 639.06,-28.67 680.56,-18.8"/>
<polygon fill="#63b8ff" stroke="#63b8ff" points="681.57,-22.16 690.49,-16.45 679.95,-15.35 681.57,-22.16"/>
</a>
</g>
</g>
<!-- Node11&#45;&gt;Node10 -->
<g id="edge15_Node000011_Node000010" class="edge">
<title>Node11&#45;&gt;Node10</title>
<g id="a_edge15_Node000011_Node000010"><a xlink:title=" ">
<path fill="none" stroke="#63b8ff" d="M812.95,-115.16C868.34,-109.34 950.89,-93.98 919.5,-55 898.71,-29.18 803.5,-17.54 750.82,-13"/>
<polygon fill="#63b8ff" stroke="#63b8ff" points="750.82,-9.49 740.57,-12.16 750.25,-16.46 750.82,-9.49"/>
</a>
</g>
</g>
<!-- Node12 -->
<g id="Node000012" class="node">
<title>Node12</title>
<g id="a_Node000012"><a xlink:title=" ">
<polygon fill="#e0e0e0" stroke="#999999" points="792.5,-74 742.5,-74 742.5,-55 792.5,-55 792.5,-74"/>
<text text-anchor="middle" x="767.5" y="-62" font-family="Helvetica,sans-Serif" font-size="10.00">atomic</text>
</a>
</g>
</g>
<!-- Node11&#45;&gt;Node12 -->
<g id="edge14_Node000011_Node000012" class="edge">
<title>Node11&#45;&gt;Node12</title>
<g id="a_edge14_Node000011_Node000012"><a xlink:title=" ">
<path fill="none" stroke="#63b8ff" d="M767.5,-109.75C767.5,-102.8 767.5,-92.85 767.5,-84.13"/>
<polygon fill="#63b8ff" stroke="#63b8ff" points="771,-84.09 767.5,-74.09 764,-84.09 771,-84.09"/>
</a>
</g>
</g>
<!-- Node13 -->
<g id="Node000013" class="node">
<title>Node13</title>
<g id="a_Node000013"><a xlink:href="types_8ixx.html" target="_top" xlink:title="Core type definitions and tag types for the helios engine.">
<polygon fill="white" stroke="#666666" points="910.5,-74 810.5,-74 810.5,-55 910.5,-55 910.5,-74"/>
<text text-anchor="middle" x="860.5" y="-62" font-family="Helvetica,sans-Serif" font-size="10.00">helios.core.types</text>
</a>
</g>
</g>
<!-- Node11&#45;&gt;Node13 -->
<g id="edge16_Node000011_Node000013" class="edge">
<title>Node11&#45;&gt;Node13</title>
<g id="a_edge16_Node000011_Node000013"><a xlink:title=" ">
<path fill="none" stroke="#63b8ff" d="M782.44,-109.98C797,-101.69 819.37,-88.94 836.43,-79.22"/>
<polygon fill="#63b8ff" stroke="#63b8ff" points="838.33,-82.16 845.29,-74.17 834.86,-76.08 838.33,-82.16"/>
</a>
</g>
</g>
<!-- Node14&#45;&gt;Node3 -->
<g id="edge18_Node000014_Node000003" class="edge">
<title>Node14&#45;&gt;Node3</title>
<g id="a_edge18_Node000014_Node000003"><a xlink:title=" ">
<path fill="none" stroke="#63b8ff" d="M698.59,-164.99C649.63,-154.42 583.62,-140.17 539.63,-130.67"/>
<polygon fill="#63b8ff" stroke="#63b8ff" points="540.29,-127.24 529.78,-128.55 538.81,-134.08 540.29,-127.24"/>
</a>
</g>
</g>
<!-- Node14&#45;&gt;Node11 -->
<g id="edge19_Node000014_Node000011" class="edge">
<title>Node14&#45;&gt;Node11</title>
<g id="a_edge19_Node000014_Node000011"><a xlink:title=" ">
<path fill="none" stroke="#63b8ff" d="M764.47,-164.84C764.99,-157.21 765.64,-147.7 766.2,-139.45"/>
<polygon fill="#63b8ff" stroke="#63b8ff" points="769.71,-139.48 766.9,-129.27 762.73,-139 769.71,-139.48"/>
</a>
</g>
</g>
</g>
</svg>
