<?xml version="1.0" encoding="UTF-8" standalone="no"?>
<!DOCTYPE svg PUBLIC "-//W3C//DTD SVG 1.1//EN"
 "http://www.w3.org/Graphics/SVG/1.1/DTD/svg11.dtd">
<!-- Generated by graphviz version 2.43.0 (0)
 -->
<!-- Title: _module.ixx Pages: 1 -->
<svg width="1079pt" height="324pt"
 viewBox="0.00 0.00 1079.00 324.00" xmlns="http://www.w3.org/2000/svg" xmlns:xlink="http://www.w3.org/1999/xlink">
<g id="graph0" class="graph" transform="scale(1 1) rotate(0) translate(4 320)">
<title>_module.ixx</title>
<!-- Node1 -->
<g id="Node000001" class="node">
<title>Node1</title>
<g id="a_Node000001"><a xlink:title="Aggregate module for gamepad input handling and configuration.">
<polygon fill="#999999" stroke="#666666" points="362.5,-316 285.5,-316 285.5,-297 362.5,-297 362.5,-316"/>
<text text-anchor="middle" x="324" y="-304" font-family="Helvetica,sans-Serif" font-size="10.00">_module.ixx</text>
</a>
</g>
</g>
<!-- Node2 -->
<g id="Node000002" class="node">
<title>Node2</title>
<g id="a_Node000002"><a xlink:href="RadialDeadzoneStrategy_8ixx.html" target="_top" xlink:title="Radial (circular) deadzone strategy for gamepad analog stick input.">
<polygon fill="white" stroke="#666666" points="228,-261 72,-261 72,-231 228,-231 228,-261"/>
<text text-anchor="start" x="80" y="-249" font-family="Helvetica,sans-Serif" font-size="10.00">helios.input.gamepad.Radial</text>
<text text-anchor="middle" x="150" y="-238" font-family="Helvetica,sans-Serif" font-size="10.00">DeadzoneStrategy</text>
</a>
</g>
</g>
<!-- Node1&#45;&gt;Node2 -->
<g id="edge1_Node000001_Node000002" class="edge">
<title>Node1&#45;&gt;Node2</title>
<g id="a_edge1_Node000001_Node000002"><a xlink:title=" ">
<path fill="none" stroke="#63b8ff" d="M298.7,-296.99C273.33,-288.46 233.54,-275.09 201.5,-264.32"/>
<polygon fill="#63b8ff" stroke="#63b8ff" points="202.43,-260.93 191.83,-261.06 200.2,-267.57 202.43,-260.93"/>
</a>
</g>
</g>
<!-- Node6 -->
<g id="Node000006" class="node">
<title>Node6</title>
<g id="a_Node000006"><a xlink:href="DeadzoneStrategy_8ixx.html" target="_top" xlink:title="Abstract base class for gamepad axis deadzone normalization strategies.">
<polygon fill="white" stroke="#666666" points="356,-195 182,-195 182,-165 356,-165 356,-195"/>
<text text-anchor="start" x="190" y="-183" font-family="Helvetica,sans-Serif" font-size="10.00">helios.input.gamepad.Deadzone</text>
<text text-anchor="middle" x="269" y="-172" font-family="Helvetica,sans-Serif" font-size="10.00">Strategy</text>
</a>
</g>
</g>
<!-- Node1&#45;&gt;Node6 -->
<g id="edge7_Node000001_Node000006" class="edge">
<title>Node1&#45;&gt;Node6</title>
<g id="a_edge7_Node000001_Node000006"><a xlink:title=" ">
<path fill="none" stroke="#63b8ff" d="M314.34,-296.94C305.59,-288.63 293.01,-275.21 286,-261 277.43,-243.62 273.16,-222.03 271.05,-205.66"/>
<polygon fill="#63b8ff" stroke="#63b8ff" points="274.48,-204.83 269.91,-195.28 267.52,-205.6 274.48,-204.83"/>
</a>
</g>
</g>
<!-- Node8 -->
<g id="Node000008" class="node">
<title>Node8</title>
<g id="a_Node000008"><a xlink:href="GamepadSettings_8ixx.html" target="_top" xlink:title="Configuration settings for gamepad input processing.">
<polygon fill="white" stroke="#666666" points="468.5,-261 295.5,-261 295.5,-231 468.5,-231 468.5,-261"/>
<text text-anchor="start" x="303.5" y="-249" font-family="Helvetica,sans-Serif" font-size="10.00">helios.input.gamepad.Gamepad</text>
<text text-anchor="middle" x="382" y="-238" font-family="Helvetica,sans-Serif" font-size="10.00">Settings</text>
</a>
</g>
</g>
<!-- Node1&#45;&gt;Node8 -->
<g id="edge8_Node000001_Node000008" class="edge">
<title>Node1&#45;&gt;Node8</title>
<g id="a_edge8_Node000001_Node000008"><a xlink:title=" ">
<path fill="none" stroke="#63b8ff" d="M332.56,-296.87C339.99,-289.37 351.07,-278.2 360.86,-268.33"/>
<polygon fill="#63b8ff" stroke="#63b8ff" points="363.45,-270.68 368.01,-261.11 358.48,-265.75 363.45,-270.68"/>
</a>
</g>
</g>
<!-- Node9 -->
<g id="Node000009" class="node">
<title>Node9</title>
<g id="a_Node000009"><a xlink:href="GamepadState_8ixx.html" target="_top" xlink:title="Representation of current gamepad input state.">
<polygon fill="white" stroke="#666666" points="659.5,-261 486.5,-261 486.5,-231 659.5,-231 659.5,-261"/>
<text text-anchor="start" x="494.5" y="-249" font-family="Helvetica,sans-Serif" font-size="10.00">helios.input.gamepad.Gamepad</text>
<text text-anchor="middle" x="573" y="-238" font-family="Helvetica,sans-Serif" font-size="10.00">State</text>
</a>
</g>
</g>
<!-- Node1&#45;&gt;Node9 -->
<g id="edge10_Node000001_Node000009" class="edge">
<title>Node1&#45;&gt;Node9</title>
<g id="a_edge10_Node000001_Node000009"><a xlink:title=" ">
<path fill="none" stroke="#63b8ff" d="M360.21,-296.99C397.53,-288.23 456.66,-274.33 503.13,-263.42"/>
<polygon fill="#63b8ff" stroke="#63b8ff" points="504.2,-266.76 513.14,-261.06 502.6,-259.94 504.2,-266.76"/>
</a>
</g>
</g>
<!-- Node3 -->
<g id="Node000003" class="node">
<title>Node3</title>
<g id="a_Node000003"><a xlink:title=" ">
<polygon fill="#e0e0e0" stroke="#999999" points="163.5,-189.5 116.5,-189.5 116.5,-170.5 163.5,-170.5 163.5,-189.5"/>
<text text-anchor="middle" x="140" y="-177.5" font-family="Helvetica,sans-Serif" font-size="10.00">cmath</text>
</a>
</g>
</g>
<!-- Node2&#45;&gt;Node3 -->
<g id="edge2_Node000002_Node000003" class="edge">
<title>Node2&#45;&gt;Node3</title>
<g id="a_edge2_Node000002_Node000003"><a xlink:title=" ">
<path fill="none" stroke="#63b8ff" d="M147.78,-230.8C146.36,-221.7 144.5,-209.79 142.95,-199.9"/>
<polygon fill="#63b8ff" stroke="#63b8ff" points="146.38,-199.18 141.38,-189.84 139.47,-200.26 146.38,-199.18"/>
</a>
</g>
</g>
<!-- Node4 -->
<g id="Node000004" class="node">
<title>Node4</title>
<g id="a_Node000004"><a xlink:href="utils_8ixx.html" target="_top" xlink:title="Misc math utility functions.">
<polygon fill="white" stroke="#666666" points="98,-189.5 0,-189.5 0,-170.5 98,-170.5 98,-189.5"/>
<text text-anchor="middle" x="49" y="-177.5" font-family="Helvetica,sans-Serif" font-size="10.00">helios.math.utils</text>
</a>
</g>
</g>
<!-- Node2&#45;&gt;Node4 -->
<g id="edge3_Node000002_Node000004" class="edge">
<title>Node2&#45;&gt;Node4</title>
<g id="a_edge3_Node000002_Node000004"><a xlink:title=" ">
<path fill="none" stroke="#63b8ff" d="M127.58,-230.8C110.81,-220.17 87.99,-205.7 71.25,-195.1"/>
<polygon fill="#63b8ff" stroke="#63b8ff" points="72.98,-192.05 62.66,-189.66 69.24,-197.97 72.98,-192.05"/>
</a>
</g>
</g>
<!-- Node2&#45;&gt;Node6 -->
<g id="edge5_Node000002_Node000006" class="edge">
<title>Node2&#45;&gt;Node6</title>
<g id="a_edge5_Node000002_Node000006"><a xlink:title=" ">
<path fill="none" stroke="#63b8ff" d="M176.12,-230.95C193.09,-221.83 215.42,-209.82 233.93,-199.86"/>
<polygon fill="#63b8ff" stroke="#63b8ff" points="235.8,-202.83 242.95,-195.01 232.48,-196.67 235.8,-202.83"/>
</a>
</g>
</g>
<!-- Node5 -->
<g id="Node000005" class="node">
<title>Node5</title>
<g id="a_Node000005"><a xlink:title=" ">
<polygon fill="#e0e0e0" stroke="#999999" points="78.5,-129 19.5,-129 19.5,-110 78.5,-110 78.5,-129"/>
<text text-anchor="middle" x="49" y="-117" font-family="Helvetica,sans-Serif" font-size="10.00">numbers</text>
</a>
</g>
</g>
<!-- Node4&#45;&gt;Node5 -->
<g id="edge4_Node000004_Node000005" class="edge">
<title>Node4&#45;&gt;Node5</title>
<g id="a_edge4_Node000004_Node000005"><a xlink:title=" ">
<path fill="none" stroke="#63b8ff" d="M49,-170.37C49,-162.25 49,-149.81 49,-139.39"/>
<polygon fill="#63b8ff" stroke="#63b8ff" points="52.5,-139.17 49,-129.17 45.5,-139.17 52.5,-139.17"/>
</a>
</g>
</g>
<!-- Node7 -->
<g id="Node000007" class="node">
<title>Node7</title>
<g id="a_Node000007"><a xlink:title=" ">
<polygon fill="#e0e0e0" stroke="#999999" points="416,-129 352,-129 352,-110 416,-110 416,-129"/>
<text text-anchor="middle" x="384" y="-117" font-family="Helvetica,sans-Serif" font-size="10.00">algorithm</text>
</a>
</g>
</g>
<!-- Node6&#45;&gt;Node7 -->
<g id="edge6_Node000006_Node000007" class="edge">
<title>Node6&#45;&gt;Node7</title>
<g id="a_edge6_Node000006_Node000007"><a xlink:title=" ">
<path fill="none" stroke="#63b8ff" d="M296.55,-164.99C315.22,-155.49 339.74,-143.02 358.06,-133.69"/>
<polygon fill="#63b8ff" stroke="#63b8ff" points="359.69,-136.79 367.02,-129.14 356.52,-130.55 359.69,-136.79"/>
</a>
</g>
</g>
<!-- Node8&#45;&gt;Node7 -->
<g id="edge9_Node000008_Node000007" class="edge">
<title>Node8&#45;&gt;Node7</title>
<g id="a_edge9_Node000008_Node000007"><a xlink:title=" ">
<path fill="none" stroke="#63b8ff" d="M382.23,-230.72C382.59,-208.12 383.3,-164.12 383.7,-139.09"/>
<polygon fill="#63b8ff" stroke="#63b8ff" points="387.2,-139.12 383.86,-129.07 380.2,-139.01 387.2,-139.12"/>
</a>
</g>
</g>
<!-- Node9&#45;&gt;Node7 -->
<g id="edge11_Node000009_Node000007" class="edge">
<title>Node9&#45;&gt;Node7</title>
<g id="a_edge11_Node000009_Node000007"><a xlink:title=" ">
<path fill="none" stroke="#63b8ff" d="M551.69,-230.96C515.38,-207.04 441.92,-158.65 405.49,-134.66"/>
<polygon fill="#63b8ff" stroke="#63b8ff" points="407.35,-131.69 397.07,-129.11 403.5,-137.53 407.35,-131.69"/>
</a>
</g>
</g>
<!-- Node10 -->
<g id="Node000010" class="node">
<title>Node10</title>
<g id="a_Node000010"><a xlink:title=" ">
<polygon fill="#e0e0e0" stroke="#999999" points="946,-189.5 824,-189.5 824,-170.5 946,-170.5 946,-189.5"/>
<text text-anchor="middle" x="885" y="-177.5" font-family="Helvetica,sans-Serif" font-size="10.00">helios/helios_config.h</text>
</a>
</g>
</g>
<!-- Node9&#45;&gt;Node10 -->
<g id="edge12_Node000009_Node000010" class="edge">
<title>Node9&#45;&gt;Node10</title>
<g id="a_edge12_Node000009_Node000010"><a xlink:title=" ">
<path fill="none" stroke="#63b8ff" d="M641.47,-230.95C699.32,-219.09 780.91,-202.35 833.39,-191.59"/>
<polygon fill="#63b8ff" stroke="#63b8ff" points="834.39,-194.96 843.48,-189.52 832.98,-188.1 834.39,-194.96"/>
</a>
</g>
</g>
<!-- Node11 -->
<g id="Node000011" class="node">
<title>Node11</title>
<g id="a_Node000011"><a xlink:href="LogManager_8ixx.html" target="_top" xlink:title="Central manager for scoped loggers with configurable sinks.">
<polygon fill="white" stroke="#666666" points="806,-189.5 660,-189.5 660,-170.5 806,-170.5 806,-189.5"/>
<text text-anchor="middle" x="733" y="-177.5" font-family="Helvetica,sans-Serif" font-size="10.00">helios.util.log.LogManager</text>
</a>
</g>
</g>
<!-- Node9&#45;&gt;Node11 -->
<g id="edge13_Node000009_Node000011" class="edge">
<title>Node9&#45;&gt;Node11</title>
<g id="a_edge13_Node000009_Node000011"><a xlink:title=" ">
<path fill="none" stroke="#63b8ff" d="M608.11,-230.95C636.3,-219.68 675.47,-204.01 702.39,-193.25"/>
<polygon fill="#63b8ff" stroke="#63b8ff" points="703.72,-196.48 711.71,-189.52 701.12,-189.98 703.72,-196.48"/>
</a>
</g>
</g>
<!-- Node19 -->
<g id="Node000019" class="node">
<title>Node19</title>
<g id="a_Node000019"><a xlink:href="Logger_8ixx.html" target="_top" xlink:title="Simple synchronous logger with configurable output sinks.">
<polygon fill="white" stroke="#666666" points="599.5,-129 480.5,-129 480.5,-110 599.5,-110 599.5,-129"/>
<text text-anchor="middle" x="540" y="-117" font-family="Helvetica,sans-Serif" font-size="10.00">helios.util.log.Logger</text>
</a>
</g>
</g>
<!-- Node9&#45;&gt;Node19 -->
<g id="edge30_Node000009_Node000019" class="edge">
<title>Node9&#45;&gt;Node19</title>
<g id="a_edge30_Node000009_Node000019"><a xlink:title=" ">
<path fill="none" stroke="#63b8ff" d="M546.13,-230.96C532.94,-222.49 518.34,-210.34 511,-195 501.79,-175.74 514.12,-152.73 525.42,-137.43"/>
<polygon fill="#63b8ff" stroke="#63b8ff" points="528.32,-139.41 531.79,-129.4 522.84,-135.06 528.32,-139.41"/>
</a>
</g>
</g>
<!-- Node22 -->
<g id="Node000022" class="node">
<title>Node22</title>
<g id="a_Node000022"><a xlink:href="helios_2math_2types_2__module_8ixx.html" target="_top" xlink:title="Module exports for vector and matrix type definitions.">
<polygon fill="white" stroke="#666666" points="624,-189.5 520,-189.5 520,-170.5 624,-170.5 624,-189.5"/>
<text text-anchor="middle" x="572" y="-177.5" font-family="Helvetica,sans-Serif" font-size="10.00">helios.math.types</text>
</a>
</g>
</g>
<!-- Node9&#45;&gt;Node22 -->
<g id="edge31_Node000009_Node000022" class="edge">
<title>Node9&#45;&gt;Node22</title>
<g id="a_edge31_Node000009_Node000022"><a xlink:title=" ">
<path fill="none" stroke="#63b8ff" d="M572.78,-230.8C572.64,-221.7 572.45,-209.79 572.3,-199.9"/>
<polygon fill="#63b8ff" stroke="#63b8ff" points="575.79,-199.79 572.14,-189.84 568.79,-199.9 575.79,-199.79"/>
</a>
</g>
</g>
<!-- Node12 -->
<g id="Node000012" class="node">
<title>Node12</title>
<g id="a_Node000012"><a xlink:title=" ">
<polygon fill="#e0e0e0" stroke="#999999" points="558,-19 514,-19 514,0 558,0 558,-19"/>
<text text-anchor="middle" x="536" y="-7" font-family="Helvetica,sans-Serif" font-size="10.00">string</text>
</a>
</g>
</g>
<!-- Node11&#45;&gt;Node12 -->
<g id="edge14_Node000011_Node000012" class="edge">
<title>Node11&#45;&gt;Node12</title>
<g id="a_edge14_Node000011_Node000012"><a xlink:title=" ">
<path fill="none" stroke="#63b8ff" d="M739.53,-170.37C755.26,-148.48 791.85,-90.06 763,-55 738.73,-25.5 625.17,-15.27 568.44,-11.96"/>
<polygon fill="#63b8ff" stroke="#63b8ff" points="568.39,-8.45 558.21,-11.4 568.01,-15.44 568.39,-8.45"/>
</a>
</g>
</g>
<!-- Node13 -->
<g id="Node000013" class="node">
<title>Node13</title>
<g id="a_Node000013"><a xlink:title=" ">
<polygon fill="#e0e0e0" stroke="#999999" points="898.5,-129 805.5,-129 805.5,-110 898.5,-110 898.5,-129"/>
<text text-anchor="middle" x="852" y="-117" font-family="Helvetica,sans-Serif" font-size="10.00">unordered_map</text>
</a>
</g>
</g>
<!-- Node11&#45;&gt;Node13 -->
<g id="edge15_Node000011_Node000013" class="edge">
<title>Node11&#45;&gt;Node13</title>
<g id="a_edge15_Node000011_Node000013"><a xlink:title=" ">
<path fill="none" stroke="#63b8ff" d="M750.3,-170.49C770.05,-160.79 802.55,-144.81 825.49,-133.53"/>
<polygon fill="#63b8ff" stroke="#63b8ff" points="827.25,-136.57 834.68,-129.02 824.16,-130.29 827.25,-136.57"/>
</a>
</g>
</g>
<!-- Node14 -->
<g id="Node000014" class="node">
<title>Node14</title>
<g id="a_Node000014"><a xlink:title=" ">
<polygon fill="#e0e0e0" stroke="#999999" points="1003,-129 917,-129 917,-110 1003,-110 1003,-129"/>
<text text-anchor="middle" x="960" y="-117" font-family="Helvetica,sans-Serif" font-size="10.00">unordered_set</text>
</a>
</g>
</g>
<!-- Node11&#45;&gt;Node14 -->
<g id="edge16_Node000011_Node000014" class="edge">
<title>Node11&#45;&gt;Node14</title>
<g id="a_edge16_Node000011_Node000014"><a xlink:title=" ">
<path fill="none" stroke="#63b8ff" d="M766.01,-170.49C805.94,-160.2 873.24,-142.86 917.14,-131.54"/>
<polygon fill="#63b8ff" stroke="#63b8ff" points="918.14,-134.9 926.95,-129.02 916.4,-128.12 918.14,-134.9"/>
</a>
</g>
</g>
<!-- Node15 -->
<g id="Node000015" class="node">
<title>Node15</title>
<g id="a_Node000015"><a xlink:title=" ">
<polygon fill="#e0e0e0" stroke="#999999" points="688,-74 630,-74 630,-55 688,-55 688,-74"/>
<text text-anchor="middle" x="659" y="-62" font-family="Helvetica,sans-Serif" font-size="10.00">memory</text>
</a>
</g>
</g>
<!-- Node11&#45;&gt;Node15 -->
<g id="edge17_Node000011_Node000015" class="edge">
<title>Node11&#45;&gt;Node15</title>
<g id="a_edge17_Node000011_Node000015"><a xlink:title=" ">
<path fill="none" stroke="#63b8ff" d="M727.44,-170.47C715.33,-151.9 686.39,-107.51 670.29,-82.82"/>
<polygon fill="#63b8ff" stroke="#63b8ff" points="673.02,-80.6 664.63,-74.13 667.16,-84.42 673.02,-80.6"/>
</a>
</g>
</g>
<!-- Node16 -->
<g id="Node000016" class="node">
<title>Node16</title>
<g id="a_Node000016"><a xlink:title=" ">
<polygon fill="#e0e0e0" stroke="#999999" points="754,-74 706,-74 706,-55 754,-55 754,-74"/>
<text text-anchor="middle" x="730" y="-62" font-family="Helvetica,sans-Serif" font-size="10.00">mutex</text>
</a>
</g>
</g>
<!-- Node11&#45;&gt;Node16 -->
<g id="edge18_Node000011_Node000016" class="edge">
<title>Node11&#45;&gt;Node16</title>
<g id="a_edge18_Node000011_Node000016"><a xlink:title=" ">
<path fill="none" stroke="#63b8ff" d="M732.77,-170.47C732.29,-152.23 731.15,-109.07 730.49,-84.14"/>
<polygon fill="#63b8ff" stroke="#63b8ff" points="733.99,-84.03 730.23,-74.13 726.99,-84.22 733.99,-84.03"/>
</a>
</g>
</g>
<!-- Node17 -->
<g id="Node000017" class="node">
<title>Node17</title>
<g id="a_Node000017"><a xlink:title=" ">
<polygon fill="#e0e0e0" stroke="#999999" points="611.5,-74 564.5,-74 564.5,-55 611.5,-55 611.5,-74"/>
<text text-anchor="middle" x="588" y="-62" font-family="Helvetica,sans-Serif" font-size="10.00">vector</text>
</a>
</g>
</g>
<!-- Node11&#45;&gt;Node17 -->
<g id="edge19_Node000011_Node000017" class="edge">
<title>Node11&#45;&gt;Node17</title>
<g id="a_edge19_Node000011_Node000017"><a xlink:title=" ">
<path fill="none" stroke="#63b8ff" d="M722.1,-170.47C697.64,-151.32 638.12,-104.73 607.26,-80.58"/>
<polygon fill="#63b8ff" stroke="#63b8ff" points="609.06,-77.54 599.03,-74.13 604.74,-83.05 609.06,-77.54"/>
</a>
</g>
</g>
<!-- Node18 -->
<g id="Node000018" class="node">
<title>Node18</title>
<g id="a_Node000018"><a xlink:title=" ">
<polygon fill="#e0e0e0" stroke="#999999" points="1071,-129 1021,-129 1021,-110 1071,-110 1071,-129"/>
<text text-anchor="middle" x="1046" y="-117" font-family="Helvetica,sans-Serif" font-size="10.00">cstring</text>
</a>
</g>
</g>
<!-- Node11&#45;&gt;Node18 -->
<g id="edge20_Node000011_Node000018" class="edge">
<title>Node11&#45;&gt;Node18</title>
<g id="a_edge20_Node000011_Node000018"><a xlink:title=" ">
<path fill="none" stroke="#63b8ff" d="M782.99,-170.46C846.9,-159.47 955.05,-140.64 1010.71,-129.13"/>
<polygon fill="#63b8ff" stroke="#63b8ff" points="1011.73,-132.49 1020.79,-127 1010.29,-125.65 1011.73,-132.49"/>
</a>
</g>
</g>
<!-- Node11&#45;&gt;Node19 -->
<g id="edge21_Node000011_Node000019" class="edge">
<title>Node11&#45;&gt;Node19</title>
<g id="a_edge21_Node000011_Node000019"><a xlink:title=" ">
<path fill="none" stroke="#63b8ff" d="M704.94,-170.49C671.49,-160.36 615.44,-143.37 578.1,-132.05"/>
<polygon fill="#63b8ff" stroke="#63b8ff" points="578.68,-128.57 568.1,-129.02 576.65,-135.27 578.68,-128.57"/>
</a>
</g>
</g>
<!-- Node21 -->
<g id="Node000021" class="node">
<title>Node21</title>
<g id="a_Node000021"><a xlink:href="LogSink_8ixx.html" target="_top" xlink:title="Abstract interface for log output destinations.">
<polygon fill="white" stroke="#666666" points="430,-74 306,-74 306,-55 430,-55 430,-74"/>
<text text-anchor="middle" x="368" y="-62" font-family="Helvetica,sans-Serif" font-size="10.00">helios.util.log.LogSink</text>
</a>
</g>
</g>
<!-- Node11&#45;&gt;Node21 -->
<g id="edge29_Node000011_Node000021" class="edge">
<title>Node11&#45;&gt;Node21</title>
<g id="a_edge29_Node000011_Node000021"><a xlink:title=" ">
<path fill="none" stroke="#63b8ff" d="M683.35,-170.48C613.21,-158.28 491.42,-136.5 472,-129 440.34,-116.77 407.52,-94.93 387.42,-80.33"/>
<polygon fill="#63b8ff" stroke="#63b8ff" points="389.26,-77.33 379.14,-74.19 385.09,-82.95 389.26,-77.33"/>
</a>
</g>
</g>
<!-- Node19&#45;&gt;Node12 -->
<g id="edge22_Node000019_Node000012" class="edge">
<title>Node19&#45;&gt;Node12</title>
<g id="a_edge22_Node000019_Node000012"><a xlink:title=" ">
<path fill="none" stroke="#63b8ff" d="M539.67,-109.66C539.02,-92.17 537.57,-52.8 536.7,-29.27"/>
<polygon fill="#63b8ff" stroke="#63b8ff" points="540.19,-29.02 536.32,-19.16 533.19,-29.28 540.19,-29.02"/>
</a>
</g>
</g>
<!-- Node19&#45;&gt;Node15 -->
<g id="edge24_Node000019_Node000015" class="edge">
<title>Node19&#45;&gt;Node15</title>
<g id="a_edge24_Node000019_Node000015"><a xlink:title=" ">
<path fill="none" stroke="#63b8ff" d="M559.12,-109.98C578.35,-101.42 608.23,-88.11 630.31,-78.28"/>
<polygon fill="#63b8ff" stroke="#63b8ff" points="631.82,-81.44 639.53,-74.17 628.97,-75.04 631.82,-81.44"/>
</a>
</g>
</g>
<!-- Node19&#45;&gt;Node16 -->
<g id="edge25_Node000019_Node000016" class="edge">
<title>Node19&#45;&gt;Node16</title>
<g id="a_edge25_Node000019_Node000016"><a xlink:title=" ">
<path fill="none" stroke="#63b8ff" d="M570.53,-109.98C604.8,-100.42 660.28,-84.95 695.94,-75"/>
<polygon fill="#63b8ff" stroke="#63b8ff" points="697.19,-78.29 705.88,-72.23 695.3,-71.54 697.19,-78.29"/>
</a>
</g>
</g>
<!-- Node19&#45;&gt;Node17 -->
<g id="edge23_Node000019_Node000017" class="edge">
<title>Node19&#45;&gt;Node17</title>
<g id="a_edge23_Node000019_Node000017"><a xlink:title=" ">
<path fill="none" stroke="#63b8ff" d="M547.93,-109.75C554.85,-102.11 565.07,-90.82 573.45,-81.56"/>
<polygon fill="#63b8ff" stroke="#63b8ff" points="576.1,-83.85 580.22,-74.09 570.91,-79.15 576.1,-83.85"/>
</a>
</g>
</g>
<!-- Node20 -->
<g id="Node000020" class="node">
<title>Node20</title>
<g id="a_Node000020"><a xlink:title=" ">
<polygon fill="#e0e0e0" stroke="#999999" points="508,-74 448,-74 448,-55 508,-55 508,-74"/>
<text text-anchor="middle" x="478" y="-62" font-family="Helvetica,sans-Serif" font-size="10.00">iostream</text>
</a>
</g>
</g>
<!-- Node19&#45;&gt;Node20 -->
<g id="edge26_Node000019_Node000020" class="edge">
<title>Node19&#45;&gt;Node20</title>
<g id="a_edge26_Node000019_Node000020"><a xlink:title=" ">
<path fill="none" stroke="#63b8ff" d="M530.04,-109.98C520.87,-102.15 507.06,-90.34 495.97,-80.86"/>
<polygon fill="#63b8ff" stroke="#63b8ff" points="498.02,-78.01 488.14,-74.17 493.47,-83.33 498.02,-78.01"/>
</a>
</g>
</g>
<!-- Node19&#45;&gt;Node21 -->
<g id="edge27_Node000019_Node000021" class="edge">
<title>Node19&#45;&gt;Node21</title>
<g id="a_edge27_Node000019_Node000021"><a xlink:title=" ">
<path fill="none" stroke="#63b8ff" d="M512.37,-109.98C483.49,-101.09 437.99,-87.07 405.8,-77.15"/>
<polygon fill="#63b8ff" stroke="#63b8ff" points="406.44,-73.68 395.85,-74.08 404.38,-80.37 406.44,-73.68"/>
</a>
</g>
</g>
<!-- Node21&#45;&gt;Node12 -->
<g id="edge28_Node000021_Node000012" class="edge">
<title>Node21&#45;&gt;Node12</title>
<g id="a_edge28_Node000021_Node000012"><a xlink:title=" ">
<path fill="none" stroke="#63b8ff" d="M394.99,-54.98C424.79,-45.58 472.7,-30.47 504.27,-20.51"/>
<polygon fill="#63b8ff" stroke="#63b8ff" points="505.42,-23.82 513.9,-17.47 503.31,-17.14 505.42,-23.82"/>
</a>
</g>
</g>
<!-- Node22&#45;&gt;Node22 -->
<g id="edge32_Node000022_Node000022" class="edge">
<title>Node22&#45;&gt;Node22</title>
<g id="a_edge32_Node000022_Node000022"><a xlink:title=" ">
<path fill="none" stroke="#63b8ff" d="M597.85,-189.53C619.44,-193.61 642,-190.43 642,-180 642,-171.2 625.94,-167.56 607.95,-169.09"/>
<polygon fill="#63b8ff" stroke="#63b8ff" points="607.28,-165.65 597.85,-170.47 608.23,-172.58 607.28,-165.65"/>
</a>
</g>
</g>
</g>
</svg>
