<?xml version="1.0" encoding="UTF-8" standalone="no"?>
<!DOCTYPE svg PUBLIC "-//W3C//DTD SVG 1.1//EN"
 "http://www.w3.org/Graphics/SVG/1.1/DTD/svg11.dtd">
<!-- Generated by graphviz version 2.43.0 (0)
 -->
<!-- Title: _module.ixx Pages: 1 -->
<svg width="769pt" height="511pt"
 viewBox="0.00 0.00 768.50 511.00" xmlns="http://www.w3.org/2000/svg" xmlns:xlink="http://www.w3.org/1999/xlink">
<g id="graph0" class="graph" transform="scale(1 1) rotate(0) translate(4 507)">
<title>_module.ixx</title>
<!-- Node1 -->
<g id="Node000001" class="node">
<title>Node1</title>
<g id="a_Node000001"><a xlink:title="Aggregator for timer components.">
<polygon fill="#999999" stroke="#666666" points="228.5,-503 151.5,-503 151.5,-484 228.5,-484 228.5,-503"/>
<text text-anchor="middle" x="190" y="-491" font-family="Helvetica,sans-Serif" font-size="10.00">_module.ixx</text>
</a>
</g>
</g>
<!-- Node2 -->
<g id="Node000002" class="node">
<title>Node2</title>
<g id="a_Node000002"><a xlink:href="GameTimerBindingComponent_8ixx.html" target="_top" xlink:title="Component that observes a specific game timer.">
<polygon fill="white" stroke="#666666" points="309,-448 71,-448 71,-418 309,-418 309,-448"/>
<text text-anchor="start" x="79" y="-436" font-family="Helvetica,sans-Serif" font-size="10.00">helios.engine.mechanics.timing.components.</text>
<text text-anchor="middle" x="190" y="-425" font-family="Helvetica,sans-Serif" font-size="10.00">GameTimerBindingComponent</text>
</a>
</g>
</g>
<!-- Node1&#45;&gt;Node2 -->
<g id="edge1_Node000001_Node000002" class="edge">
<title>Node1&#45;&gt;Node2</title>
<g id="a_edge1_Node000001_Node000002"><a xlink:title=" ">
<path fill="none" stroke="#63b8ff" d="M190,-483.87C190,-477.11 190,-467.35 190,-458.26"/>
<polygon fill="#63b8ff" stroke="#63b8ff" points="193.5,-458.11 190,-448.11 186.5,-458.11 193.5,-458.11"/>
</a>
</g>
</g>
<!-- Node3 -->
<g id="Node000003" class="node">
<title>Node3</title>
<g id="a_Node000003"><a xlink:href="types_8ixx.html" target="_top" xlink:title="Core type definitions and tag types for the helios engine.">
<polygon fill="white" stroke="#666666" points="100,-74 0,-74 0,-55 100,-55 100,-74"/>
<text text-anchor="middle" x="50" y="-62" font-family="Helvetica,sans-Serif" font-size="10.00">helios.core.types</text>
</a>
</g>
</g>
<!-- Node2&#45;&gt;Node3 -->
<g id="edge2_Node000002_Node000003" class="edge">
<title>Node2&#45;&gt;Node3</title>
<g id="a_edge2_Node000002_Node000003"><a xlink:title=" ">
<path fill="none" stroke="#63b8ff" d="M148.06,-417.95C105.24,-400.64 45,-366.73 45,-313 45,-313 45,-313 45,-179 45,-145.58 47.19,-106.67 48.67,-84.18"/>
<polygon fill="#63b8ff" stroke="#63b8ff" points="52.18,-84.25 49.37,-74.04 45.19,-83.77 52.18,-84.25"/>
</a>
</g>
</g>
<!-- Node4 -->
<g id="Node000004" class="node">
<title>Node4</title>
<g id="a_Node000004"><a xlink:href="GameTimerId_8ixx.html" target="_top" xlink:title="Strongly&#45;typed identifier for gameTimers.">
<polygon fill="white" stroke="#666666" points="330.5,-261 125.5,-261 125.5,-231 330.5,-231 330.5,-261"/>
<text text-anchor="start" x="133.5" y="-249" font-family="Helvetica,sans-Serif" font-size="10.00">helios.engine.mechanics.timing.types.</text>
<text text-anchor="middle" x="228" y="-238" font-family="Helvetica,sans-Serif" font-size="10.00">GameTimerId</text>
</a>
</g>
</g>
<!-- Node2&#45;&gt;Node4 -->
<g id="edge3_Node000002_Node000004" class="edge">
<title>Node2&#45;&gt;Node4</title>
<g id="a_edge3_Node000002_Node000004"><a xlink:title=" ">
<path fill="none" stroke="#63b8ff" d="M192.92,-417.79C199.4,-386.24 215.05,-310.04 223.08,-270.97"/>
<polygon fill="#63b8ff" stroke="#63b8ff" points="226.54,-271.5 225.12,-261 219.68,-270.1 226.54,-271.5"/>
</a>
</g>
</g>
<!-- Node13 -->
<g id="Node000013" class="node">
<title>Node13</title>
<g id="a_Node000013"><a xlink:href="helios_2engine_2mechanics_2timing_2types_2__module_8ixx.html" target="_top" xlink:title="Aggregator for timer&#45;related type definitions.">
<polygon fill="white" stroke="#666666" points="460,-382 258,-382 258,-363 460,-363 460,-382"/>
<text text-anchor="middle" x="359" y="-370" font-family="Helvetica,sans-Serif" font-size="10.00">helios.engine.mechanics.timing.types</text>
</a>
</g>
</g>
<!-- Node2&#45;&gt;Node13 -->
<g id="edge18_Node000002_Node000013" class="edge">
<title>Node2&#45;&gt;Node13</title>
<g id="a_edge18_Node000002_Node000013"><a xlink:title=" ">
<path fill="none" stroke="#63b8ff" d="M230.48,-417.99C259.18,-408.05 297.28,-394.86 324.53,-385.43"/>
<polygon fill="#63b8ff" stroke="#63b8ff" points="325.74,-388.72 334.04,-382.14 323.45,-382.1 325.74,-388.72"/>
</a>
</g>
</g>
<!-- Node4&#45;&gt;Node3 -->
<g id="edge16_Node000004_Node000003" class="edge">
<title>Node4&#45;&gt;Node3</title>
<g id="a_edge16_Node000004_Node000003"><a xlink:title=" ">
<path fill="none" stroke="#63b8ff" d="M199.98,-230.82C183.78,-221.84 163.59,-209.26 148,-195 110.18,-160.41 76.66,-109.65 60.4,-83.12"/>
<polygon fill="#63b8ff" stroke="#63b8ff" points="63.2,-80.99 55.04,-74.23 57.2,-84.6 63.2,-80.99"/>
</a>
</g>
</g>
<!-- Node5 -->
<g id="Node000005" class="node">
<title>Node5</title>
<g id="a_Node000005"><a xlink:title=" ">
<polygon fill="#e0e0e0" stroke="#999999" points="424,-19 374,-19 374,0 424,0 424,-19"/>
<text text-anchor="middle" x="399" y="-7" font-family="Helvetica,sans-Serif" font-size="10.00">cstdint</text>
</a>
</g>
</g>
<!-- Node4&#45;&gt;Node5 -->
<g id="edge4_Node000004_Node000005" class="edge">
<title>Node4&#45;&gt;Node5</title>
<g id="a_edge4_Node000004_Node000005"><a xlink:title=" ">
<path fill="none" stroke="#63b8ff" d="M330.78,-231.18C393.39,-216.88 468.68,-187.84 508,-129 536.45,-86.41 468.34,-44.08 427.31,-23.46"/>
<polygon fill="#63b8ff" stroke="#63b8ff" points="428.8,-20.29 418.28,-19.04 425.73,-26.58 428.8,-20.29"/>
</a>
</g>
</g>
<!-- Node6 -->
<g id="Node000006" class="node">
<title>Node6</title>
<g id="a_Node000006"><a xlink:title=" ">
<polygon fill="#e0e0e0" stroke="#999999" points="373.5,-74 300.5,-74 300.5,-55 373.5,-55 373.5,-74"/>
<text text-anchor="middle" x="337" y="-62" font-family="Helvetica,sans-Serif" font-size="10.00">string_view</text>
</a>
</g>
</g>
<!-- Node4&#45;&gt;Node6 -->
<g id="edge5_Node000004_Node000006" class="edge">
<title>Node4&#45;&gt;Node6</title>
<g id="a_edge5_Node000004_Node000006"><a xlink:title=" ">
<path fill="none" stroke="#63b8ff" d="M248.37,-230.94C260.34,-221.83 275.03,-209.07 285,-195 310.12,-159.54 325.57,-110.19 332.56,-83.83"/>
<polygon fill="#63b8ff" stroke="#63b8ff" points="335.98,-84.6 335.05,-74.05 329.19,-82.88 335.98,-84.6"/>
</a>
</g>
</g>
<!-- Node7 -->
<g id="Node000007" class="node">
<title>Node7</title>
<g id="a_Node000007"><a xlink:href="helios_2core_2data_2__module_8ixx.html" target="_top" xlink:title="Aggregate module for helios::core::data namespace.">
<polygon fill="white" stroke="#666666" points="275.5,-189.5 180.5,-189.5 180.5,-170.5 275.5,-170.5 275.5,-189.5"/>
<text text-anchor="middle" x="228" y="-177.5" font-family="Helvetica,sans-Serif" font-size="10.00">helios.core.data</text>
</a>
</g>
</g>
<!-- Node4&#45;&gt;Node7 -->
<g id="edge6_Node000004_Node000007" class="edge">
<title>Node4&#45;&gt;Node7</title>
<g id="a_edge6_Node000004_Node000007"><a xlink:title=" ">
<path fill="none" stroke="#63b8ff" d="M228,-230.8C228,-221.7 228,-209.79 228,-199.9"/>
<polygon fill="#63b8ff" stroke="#63b8ff" points="231.5,-199.84 228,-189.84 224.5,-199.84 231.5,-199.84"/>
</a>
</g>
</g>
<!-- Node9 -->
<g id="Node000009" class="node">
<title>Node9</title>
<g id="a_Node000009"><a xlink:href="algorithms_8ixx.html" target="_top" xlink:title="Core algorithms and hash functions for the helios engine.">
<polygon fill="white" stroke="#666666" points="243.5,-74 118.5,-74 118.5,-55 243.5,-55 243.5,-74"/>
<text text-anchor="middle" x="181" y="-62" font-family="Helvetica,sans-Serif" font-size="10.00">helios.core.algorithms</text>
</a>
</g>
</g>
<!-- Node4&#45;&gt;Node9 -->
<g id="edge17_Node000004_Node000009" class="edge">
<title>Node4&#45;&gt;Node9</title>
<g id="a_edge17_Node000004_Node000009"><a xlink:title=" ">
<path fill="none" stroke="#63b8ff" d="M208.19,-230.95C196.27,-221.75 181.45,-208.89 171,-195 151.52,-169.1 147.06,-160.63 140,-129 138.16,-120.76 136.93,-117.87 140,-110 144.4,-98.73 153.14,-88.59 161.43,-80.85"/>
<polygon fill="#63b8ff" stroke="#63b8ff" points="163.82,-83.4 169.07,-74.2 159.23,-78.12 163.82,-83.4"/>
</a>
</g>
</g>
<!-- Node8 -->
<g id="Node000008" class="node">
<title>Node8</title>
<g id="a_Node000008"><a xlink:href="StrongId_8ixx.html" target="_top" xlink:title="Strongly&#45;typed identifier template.">
<polygon fill="white" stroke="#666666" points="287,-129 149,-129 149,-110 287,-110 287,-129"/>
<text text-anchor="middle" x="218" y="-117" font-family="Helvetica,sans-Serif" font-size="10.00">helios.core.data.StrongId</text>
</a>
</g>
</g>
<!-- Node7&#45;&gt;Node8 -->
<g id="edge7_Node000007_Node000008" class="edge">
<title>Node7&#45;&gt;Node8</title>
<g id="a_edge7_Node000007_Node000008"><a xlink:title=" ">
<path fill="none" stroke="#63b8ff" d="M226.52,-170.37C225.12,-162.16 222.96,-149.54 221.17,-139.05"/>
<polygon fill="#63b8ff" stroke="#63b8ff" points="224.62,-138.43 219.48,-129.17 217.72,-139.61 224.62,-138.43"/>
</a>
</g>
</g>
<!-- Node11 -->
<g id="Node000011" class="node">
<title>Node11</title>
<g id="a_Node000011"><a xlink:href="TypeIndexer_8ixx.html" target="_top" xlink:title="Utility for generating unique type indices at runtime.">
<polygon fill="white" stroke="#666666" points="499,-129 343,-129 343,-110 499,-110 499,-129"/>
<text text-anchor="middle" x="421" y="-117" font-family="Helvetica,sans-Serif" font-size="10.00">helios.core.data.TypeIndexer</text>
</a>
</g>
</g>
<!-- Node7&#45;&gt;Node11 -->
<g id="edge14_Node000007_Node000011" class="edge">
<title>Node7&#45;&gt;Node11</title>
<g id="a_edge14_Node000007_Node000011"><a xlink:title=" ">
<path fill="none" stroke="#63b8ff" d="M256.06,-170.49C289.51,-160.36 345.56,-143.37 382.9,-132.05"/>
<polygon fill="#63b8ff" stroke="#63b8ff" points="384.35,-135.27 392.9,-129.02 382.32,-128.57 384.35,-135.27"/>
</a>
</g>
</g>
<!-- Node8&#45;&gt;Node3 -->
<g id="edge10_Node000008_Node000003" class="edge">
<title>Node8&#45;&gt;Node3</title>
<g id="a_edge10_Node000008_Node000003"><a xlink:title=" ">
<path fill="none" stroke="#63b8ff" d="M191.01,-109.98C162.8,-101.09 118.36,-87.07 86.92,-77.15"/>
<polygon fill="#63b8ff" stroke="#63b8ff" points="87.79,-73.75 77.2,-74.08 85.69,-80.43 87.79,-73.75"/>
</a>
</g>
</g>
<!-- Node8&#45;&gt;Node5 -->
<g id="edge8_Node000008_Node000005" class="edge">
<title>Node8&#45;&gt;Node5</title>
<g id="a_edge8_Node000008_Node000005"><a xlink:title=" ">
<path fill="none" stroke="#63b8ff" d="M226.4,-109.7C239.43,-96.43 265.76,-71.15 292,-55 314.73,-41.01 342.64,-29.57 364.26,-21.79"/>
<polygon fill="#63b8ff" stroke="#63b8ff" points="365.43,-25.09 373.71,-18.48 363.11,-18.48 365.43,-25.09"/>
</a>
</g>
</g>
<!-- Node8&#45;&gt;Node6 -->
<g id="edge9_Node000008_Node000006" class="edge">
<title>Node8&#45;&gt;Node6</title>
<g id="a_edge9_Node000008_Node000006"><a xlink:title=" ">
<path fill="none" stroke="#63b8ff" d="M237.12,-109.98C256.35,-101.42 286.23,-88.11 308.31,-78.28"/>
<polygon fill="#63b8ff" stroke="#63b8ff" points="309.82,-81.44 317.53,-74.17 306.97,-75.04 309.82,-81.44"/>
</a>
</g>
</g>
<!-- Node8&#45;&gt;Node9 -->
<g id="edge11_Node000008_Node000009" class="edge">
<title>Node8&#45;&gt;Node9</title>
<g id="a_edge11_Node000008_Node000009"><a xlink:title=" ">
<path fill="none" stroke="#63b8ff" d="M211.89,-109.75C206.72,-102.34 199.15,-91.5 192.81,-82.41"/>
<polygon fill="#63b8ff" stroke="#63b8ff" points="195.59,-80.29 187,-74.09 189.85,-84.29 195.59,-80.29"/>
</a>
</g>
</g>
<!-- Node9&#45;&gt;Node5 -->
<g id="edge12_Node000009_Node000005" class="edge">
<title>Node9&#45;&gt;Node5</title>
<g id="a_edge12_Node000009_Node000005"><a xlink:title=" ">
<path fill="none" stroke="#63b8ff" d="M216.03,-54.98C256.75,-45.08 323.55,-28.84 364.18,-18.97"/>
<polygon fill="#63b8ff" stroke="#63b8ff" points="365.02,-22.36 373.91,-16.6 363.37,-15.56 365.02,-22.36"/>
</a>
</g>
</g>
<!-- Node10 -->
<g id="Node000010" class="node">
<title>Node10</title>
<g id="a_Node000010"><a xlink:title=" ">
<polygon fill="#e0e0e0" stroke="#999999" points="203,-19 159,-19 159,0 203,0 203,-19"/>
<text text-anchor="middle" x="181" y="-7" font-family="Helvetica,sans-Serif" font-size="10.00">string</text>
</a>
</g>
</g>
<!-- Node9&#45;&gt;Node10 -->
<g id="edge13_Node000009_Node000010" class="edge">
<title>Node9&#45;&gt;Node10</title>
<g id="a_edge13_Node000009_Node000010"><a xlink:title=" ">
<path fill="none" stroke="#63b8ff" d="M181,-54.75C181,-47.8 181,-37.85 181,-29.13"/>
<polygon fill="#63b8ff" stroke="#63b8ff" points="184.5,-29.09 181,-19.09 177.5,-29.09 184.5,-29.09"/>
</a>
</g>
</g>
<!-- Node12 -->
<g id="Node000012" class="node">
<title>Node12</title>
<g id="a_Node000012"><a xlink:title=" ">
<polygon fill="#e0e0e0" stroke="#999999" points="446,-74 396,-74 396,-55 446,-55 446,-74"/>
<text text-anchor="middle" x="421" y="-62" font-family="Helvetica,sans-Serif" font-size="10.00">atomic</text>
</a>
</g>
</g>
<!-- Node11&#45;&gt;Node12 -->
<g id="edge15_Node000011_Node000012" class="edge">
<title>Node11&#45;&gt;Node12</title>
<g id="a_edge15_Node000011_Node000012"><a xlink:title=" ">
<path fill="none" stroke="#63b8ff" d="M421,-109.75C421,-102.8 421,-92.85 421,-84.13"/>
<polygon fill="#63b8ff" stroke="#63b8ff" points="424.5,-84.09 421,-74.09 417.5,-84.09 424.5,-84.09"/>
</a>
</g>
</g>
<!-- Node13&#45;&gt;Node4 -->
<g id="edge19_Node000013_Node000004" class="edge">
<title>Node13&#45;&gt;Node4</title>
<g id="a_edge19_Node000013_Node000004"><a xlink:title=" ">
<path fill="none" stroke="#63b8ff" d="M311.89,-362.98C289.58,-356.64 264.31,-345.7 248,-327 234.6,-311.63 229.92,-288.6 228.4,-271.19"/>
<polygon fill="#63b8ff" stroke="#63b8ff" points="231.9,-270.97 227.82,-261.19 224.91,-271.38 231.9,-270.97"/>
</a>
</g>
</g>
<!-- Node14 -->
<g id="Node000014" class="node">
<title>Node14</title>
<g id="a_Node000014"><a xlink:href="TimerRevision_8ixx.html" target="_top" xlink:title="Type alias for timer revision counters.">
<polygon fill="white" stroke="#666666" points="760.5,-195 555.5,-195 555.5,-165 760.5,-165 760.5,-195"/>
<text text-anchor="start" x="563.5" y="-183" font-family="Helvetica,sans-Serif" font-size="10.00">helios.engine.mechanics.timing.types.</text>
<text text-anchor="middle" x="658" y="-172" font-family="Helvetica,sans-Serif" font-size="10.00">TimerRevision</text>
</a>
</g>
</g>
<!-- Node13&#45;&gt;Node14 -->
<g id="edge20_Node000013_Node000014" class="edge">
<title>Node13&#45;&gt;Node14</title>
<g id="a_edge20_Node000013_Node000014"><a xlink:title=" ">
<path fill="none" stroke="#63b8ff" d="M392.09,-362.98C419,-355.39 457.54,-343.02 489,-327 534.49,-303.84 544.45,-294.46 583,-261 603.88,-242.87 625.21,-219.57 639.75,-202.79"/>
<polygon fill="#63b8ff" stroke="#63b8ff" points="642.47,-205 646.32,-195.13 637.15,-200.45 642.47,-205"/>
</a>
</g>
</g>
<!-- Node15 -->
<g id="Node000015" class="node">
<title>Node15</title>
<g id="a_Node000015"><a xlink:href="TimerState_8ixx.html" target="_top" xlink:title="Enumeration of possible game timer states.">
<polygon fill="white" stroke="#666666" points="573.5,-261 368.5,-261 368.5,-231 573.5,-231 573.5,-261"/>
<text text-anchor="start" x="376.5" y="-249" font-family="Helvetica,sans-Serif" font-size="10.00">helios.engine.mechanics.timing.types.</text>
<text text-anchor="middle" x="471" y="-238" font-family="Helvetica,sans-Serif" font-size="10.00">TimerState</text>
</a>
</g>
</g>
<!-- Node13&#45;&gt;Node15 -->
<g id="edge22_Node000013_Node000015" class="edge">
<title>Node13&#45;&gt;Node15</title>
<g id="a_edge22_Node000013_Node000015"><a xlink:title=" ">
<path fill="none" stroke="#63b8ff" d="M414.71,-363C435.99,-356.74 458.19,-345.87 471,-327 482.05,-310.73 480.87,-287.98 477.62,-270.9"/>
<polygon fill="#63b8ff" stroke="#63b8ff" points="481.02,-270.09 475.41,-261.1 474.19,-271.63 481.02,-270.09"/>
</a>
</g>
</g>
<!-- Node16 -->
<g id="Node000016" class="node">
<title>Node16</title>
<g id="a_Node000016"><a xlink:href="TimerControlContext_8ixx.html" target="_top" xlink:title="Context information for state transitions.">
<polygon fill="white" stroke="#666666" points="461.5,-327 256.5,-327 256.5,-297 461.5,-297 461.5,-327"/>
<text text-anchor="start" x="264.5" y="-315" font-family="Helvetica,sans-Serif" font-size="10.00">helios.engine.mechanics.timing.types.</text>
<text text-anchor="middle" x="359" y="-304" font-family="Helvetica,sans-Serif" font-size="10.00">TimerControlContext</text>
</a>
</g>
</g>
<!-- Node13&#45;&gt;Node16 -->
<g id="edge23_Node000013_Node000016" class="edge">
<title>Node13&#45;&gt;Node16</title>
<g id="a_edge23_Node000013_Node000016"><a xlink:title=" ">
<path fill="none" stroke="#63b8ff" d="M359,-362.87C359,-356.11 359,-346.35 359,-337.26"/>
<polygon fill="#63b8ff" stroke="#63b8ff" points="362.5,-337.11 359,-327.11 355.5,-337.11 362.5,-337.11"/>
</a>
</g>
</g>
<!-- Node14&#45;&gt;Node5 -->
<g id="edge21_Node000014_Node000005" class="edge">
<title>Node14&#45;&gt;Node5</title>
<g id="a_edge21_Node000014_Node000005"><a xlink:title=" ">
<path fill="none" stroke="#63b8ff" d="M648.47,-164.88C630.47,-139.25 588.93,-84.98 541,-55 507.89,-34.28 464.37,-22.52 434.27,-16.35"/>
<polygon fill="#63b8ff" stroke="#63b8ff" points="434.71,-12.87 424.23,-14.4 433.38,-19.74 434.71,-12.87"/>
</a>
</g>
</g>
<!-- Node16&#45;&gt;Node4 -->
<g id="edge24_Node000016_Node000004" class="edge">
<title>Node16&#45;&gt;Node4</title>
<g id="a_edge24_Node000016_Node000004"><a xlink:title=" ">
<path fill="none" stroke="#63b8ff" d="M330.25,-296.95C311.31,-287.7 286.31,-275.49 265.77,-265.45"/>
<polygon fill="#63b8ff" stroke="#63b8ff" points="267.2,-262.26 256.68,-261.01 264.13,-268.55 267.2,-262.26"/>
</a>
</g>
</g>
<!-- Node16&#45;&gt;Node15 -->
<g id="edge25_Node000016_Node000015" class="edge">
<title>Node16&#45;&gt;Node15</title>
<g id="a_edge25_Node000016_Node000015"><a xlink:title=" ">
<path fill="none" stroke="#63b8ff" d="M383.58,-296.95C399.48,-287.87 420.38,-275.93 437.76,-266"/>
<polygon fill="#63b8ff" stroke="#63b8ff" points="439.53,-269.01 446.48,-261.01 436.06,-262.93 439.53,-269.01"/>
</a>
</g>
</g>
</g>
</svg>
