<?xml version="1.0" encoding="UTF-8" standalone="no"?>
<!DOCTYPE svg PUBLIC "-//W3C//DTD SVG 1.1//EN"
 "http://www.w3.org/Graphics/SVG/1.1/DTD/svg11.dtd">
<!-- Generated by graphviz version 2.43.0 (0)
 -->
<!-- Title: _module.ixx Pages: 1 -->
<!--zoomable 247 -->

<svg id="main" version="1.1" xmlns="http://www.w3.org/2000/svg" xmlns:xlink="http://www.w3.org/1999/xlink" xml:space="preserve" onload="init(evt)">

<style type="text/css"><![CDATA[
.node, .edge {opacity: 0.7;}
.node.selected, .edge.selected {opacity: 1;}
.edge:hover path { stroke: red; }
.edge:hover polygon { stroke: red; fill: red; }
]]></style>

<defs>
  <circle id="rim" cx="0" cy="0" r="7"/>
  <circle id="rim2" cx="0" cy="0" r="3.5"/>
  <g id="zoomPlus">
    <use xlink:href="#rim" fill="#404040"><set attributeName="fill" to="#808080" begin="zoomplus.mouseover" end="zoomplus.mouseout"/></use>
    <path d="M-4,0h8M0,-4v8" fill="none" stroke="white" stroke-width="1.5" pointer-events="none"/>
  </g>
  <g id="zoomMin">
    <use xlink:href="#rim" fill="#404040"><set attributeName="fill" to="#808080" begin="zoomminus.mouseover" end="zoomminus.mouseout"/></use>
    <path d="M-4,0h8" fill="none" stroke="white" stroke-width="1.5" pointer-events="none"/>
  </g>
  <g id="arrowUp" transform="translate(30 24)">
    <use xlink:href="#rim"/>
    <path pointer-events="none" fill="none" stroke="white" stroke-width="1.5" d="M0,-3.0v7 M-2.5,-0.5L0,-3.0L2.5,-0.5"/>
  </g>
  <g id="arrowRight" transform="rotate(90) translate(36 -43)">
    <use xlink:href="#rim"/>
    <path pointer-events="none" fill="none" stroke="white" stroke-width="1.5" d="M0,-3.0v7 M-2.5,-0.5L0,-3.0L2.5,-0.5"/>
  </g>
  <g id="arrowDown" transform="rotate(180) translate(-30 -48)">
    <use xlink:href="#rim"/>
    <path pointer-events="none" fill="none" stroke="white" stroke-width="1.5" d="M0,-3.0v7 M-2.5,-0.5L0,-3.0L2.5,-0.5"/>
  </g>
  <g id="arrowLeft" transform="rotate(270) translate(-36 17)">
    <use xlink:href="#rim"/>
    <path pointer-events="none" fill="none" stroke="white" stroke-width="1.5" d="M0,-3.0v7 M-2.5,-0.5L0,-3.0L2.5,-0.5"/>
  </g>
  <g id="resetDef">
    <use xlink:href="#rim2" fill="#404040"><set attributeName="fill" to="#808080" begin="reset.mouseover" end="reset.mouseout"/></use>
  </g>
</defs>
<script type="application/ecmascript">
var viewWidth = 804;
var viewHeight = 247;
var sectionId = 'dynsection-0';
</script>
<script type="application/ecmascript" xlink:href="svg.min.js"/>
<svg id="graph" class="graph">
<g id="viewport">
<title>_module.ixx</title>
<!-- Node1 -->
<g id="Node000001" class="node">
<title>Node1</title>
<g id="a_Node000001"><a xlink:title="Module exports for logging.">
<polygon fill="#999999" stroke="#666666" points="275.5,-239 198.5,-239 198.5,-220 275.5,-220 275.5,-239"/>
<text text-anchor="middle" x="237" y="-227" font-family="Helvetica,sans-Serif" font-size="10.00">_module.ixx</text>
</a>
</g>
</g>
<!-- Node2 -->
<g id="Node000002" class="node">
<title>Node2</title>
<g id="a_Node000002"><a xlink:href="LogManager_8ixx.html" target="_top" xlink:title="Central manager for scoped loggers with configurable sinks.">
<polygon fill="white" stroke="#666666" points="518,-184 372,-184 372,-165 518,-165 518,-184"/>
<text text-anchor="middle" x="445" y="-172" font-family="Helvetica,sans-Serif" font-size="10.00">helios.util.log.LogManager</text>
</a>
</g>
</g>
<!-- Node1&#45;&gt;Node2 -->
<g id="edge1_Node000001_Node000002" class="edge">
<title>Node1&#45;&gt;Node2</title>
<g id="a_edge1_Node000001_Node000002"><a xlink:title=" ">
<path fill="none" stroke="#63b8ff" d="M270.42,-219.98C305.94,-210.93 362.27,-196.58 401.3,-186.64"/>
<polygon fill="#63b8ff" stroke="#63b8ff" points="402.49,-189.94 411.32,-184.08 400.76,-183.16 402.49,-189.94"/>
</a>
</g>
</g>
<!-- Node10 -->
<g id="Node000010" class="node">
<title>Node10</title>
<g id="a_Node000010"><a xlink:href="Logger_8ixx.html" target="_top" xlink:title="Simple synchronous logger with configurable output sinks.">
<polygon fill="white" stroke="#666666" points="359.5,-129 240.5,-129 240.5,-110 359.5,-110 359.5,-129"/>
<text text-anchor="middle" x="300" y="-117" font-family="Helvetica,sans-Serif" font-size="10.00">helios.util.log.Logger</text>
</a>
</g>
</g>
<!-- Node1&#45;&gt;Node10 -->
<g id="edge18_Node000001_Node000010" class="edge">
<title>Node1&#45;&gt;Node10</title>
<g id="a_edge18_Node000001_Node000010"><a xlink:title=" ">
<path fill="none" stroke="#63b8ff" d="M242.16,-219.66C252.54,-201.85 276.16,-161.37 289.79,-138.01"/>
<polygon fill="#63b8ff" stroke="#63b8ff" points="292.93,-139.56 294.95,-129.16 286.89,-136.03 292.93,-139.56"/>
</a>
</g>
</g>
<!-- Node12 -->
<g id="Node000012" class="node">
<title>Node12</title>
<g id="a_Node000012"><a xlink:href="LogSink_8ixx.html" target="_top" xlink:title="Abstract interface for log output destinations.">
<polygon fill="white" stroke="#666666" points="197,-74 73,-74 73,-55 197,-55 197,-74"/>
<text text-anchor="middle" x="135" y="-62" font-family="Helvetica,sans-Serif" font-size="10.00">helios.util.log.LogSink</text>
</a>
</g>
</g>
<!-- Node1&#45;&gt;Node12 -->
<g id="edge23_Node000001_Node000012" class="edge">
<title>Node1&#45;&gt;Node12</title>
<g id="a_edge23_Node000001_Node000012"><a xlink:title=" ">
<path fill="none" stroke="#63b8ff" d="M231.52,-219.74C215.33,-193.87 167.53,-117.48 145.88,-82.88"/>
<polygon fill="#63b8ff" stroke="#63b8ff" points="148.78,-80.93 140.51,-74.31 142.85,-84.64 148.78,-80.93"/>
</a>
</g>
</g>
<!-- Node13 -->
<g id="Node000013" class="node">
<title>Node13</title>
<g id="a_Node000013"><a xlink:href="ConsoleSink_8ixx.html" target="_top" xlink:title="Log sink that writes to stdout.">
<polygon fill="white" stroke="#666666" points="146,-129 0,-129 0,-110 146,-110 146,-129"/>
<text text-anchor="middle" x="73" y="-117" font-family="Helvetica,sans-Serif" font-size="10.00">helios.util.log.ConsoleSink</text>
</a>
</g>
</g>
<!-- Node1&#45;&gt;Node13 -->
<g id="edge19_Node000001_Node000013" class="edge">
<title>Node1&#45;&gt;Node13</title>
<g id="a_edge19_Node000001_Node000013"><a xlink:title=" ">
<path fill="none" stroke="#63b8ff" d="M221.07,-219.95C205.29,-211.32 180.57,-197.4 160,-184 135.98,-168.36 109.54,-148.68 92.18,-135.41"/>
<polygon fill="#63b8ff" stroke="#63b8ff" points="94.05,-132.44 83.99,-129.11 89.78,-137.98 94.05,-132.44"/>
</a>
</g>
</g>
<!-- Node3 -->
<g id="Node000003" class="node">
<title>Node3</title>
<g id="a_Node000003"><a xlink:title=" ">
<polygon fill="#e0e0e0" stroke="#999999" points="241,-19 197,-19 197,0 241,0 241,-19"/>
<text text-anchor="middle" x="219" y="-7" font-family="Helvetica,sans-Serif" font-size="10.00">string</text>
</a>
</g>
</g>
<!-- Node2&#45;&gt;Node3 -->
<g id="edge2_Node000002_Node000003" class="edge">
<title>Node2&#45;&gt;Node3</title>
<g id="a_edge2_Node000002_Node000003"><a xlink:title=" ">
<path fill="none" stroke="#63b8ff" d="M518.28,-168.54C564.23,-161.87 611.84,-146.3 595,-110 579.08,-75.67 564.52,-70.51 530,-55 480.65,-32.83 321.02,-18.3 251.67,-12.88"/>
<polygon fill="#63b8ff" stroke="#63b8ff" points="251.58,-9.36 241.34,-12.09 251.04,-16.34 251.58,-9.36"/>
</a>
</g>
</g>
<!-- Node4 -->
<g id="Node000004" class="node">
<title>Node4</title>
<g id="a_Node000004"><a xlink:title=" ">
<polygon fill="#e0e0e0" stroke="#999999" points="585.5,-129 492.5,-129 492.5,-110 585.5,-110 585.5,-129"/>
<text text-anchor="middle" x="539" y="-117" font-family="Helvetica,sans-Serif" font-size="10.00">unordered_map</text>
</a>
</g>
</g>
<!-- Node2&#45;&gt;Node4 -->
<g id="edge3_Node000002_Node000004" class="edge">
<title>Node2&#45;&gt;Node4</title>
<g id="a_edge3_Node000002_Node000004"><a xlink:title=" ">
<path fill="none" stroke="#63b8ff" d="M460.1,-164.98C474.82,-156.69 497.42,-143.94 514.67,-134.22"/>
<polygon fill="#63b8ff" stroke="#63b8ff" points="516.63,-137.13 523.62,-129.17 513.19,-131.03 516.63,-137.13"/>
</a>
</g>
</g>
<!-- Node5 -->
<g id="Node000005" class="node">
<title>Node5</title>
<g id="a_Node000005"><a xlink:title=" ">
<polygon fill="#e0e0e0" stroke="#999999" points="728,-129 642,-129 642,-110 728,-110 728,-129"/>
<text text-anchor="middle" x="685" y="-117" font-family="Helvetica,sans-Serif" font-size="10.00">unordered_set</text>
</a>
</g>
</g>
<!-- Node2&#45;&gt;Node5 -->
<g id="edge4_Node000002_Node000005" class="edge">
<title>Node2&#45;&gt;Node5</title>
<g id="a_edge4_Node000002_Node000005"><a xlink:title=" ">
<path fill="none" stroke="#63b8ff" d="M483.56,-164.98C525.07,-155.82 591.21,-141.21 636.29,-131.26"/>
<polygon fill="#63b8ff" stroke="#63b8ff" points="637.13,-134.66 646.14,-129.08 635.62,-127.82 637.13,-134.66"/>
</a>
</g>
</g>
<!-- Node6 -->
<g id="Node000006" class="node">
<title>Node6</title>
<g id="a_Node000006"><a xlink:title=" ">
<polygon fill="#e0e0e0" stroke="#999999" points="455,-74 397,-74 397,-55 455,-55 455,-74"/>
<text text-anchor="middle" x="426" y="-62" font-family="Helvetica,sans-Serif" font-size="10.00">memory</text>
</a>
</g>
</g>
<!-- Node2&#45;&gt;Node6 -->
<g id="edge5_Node000002_Node000006" class="edge">
<title>Node2&#45;&gt;Node6</title>
<g id="a_edge5_Node000002_Node000006"><a xlink:title=" ">
<path fill="none" stroke="#63b8ff" d="M443.45,-164.66C440.37,-147.17 433.44,-107.8 429.3,-84.27"/>
<polygon fill="#63b8ff" stroke="#63b8ff" points="432.7,-83.4 427.52,-74.16 425.81,-84.61 432.7,-83.4"/>
</a>
</g>
</g>
<!-- Node7 -->
<g id="Node000007" class="node">
<title>Node7</title>
<g id="a_Node000007"><a xlink:title=" ">
<polygon fill="#e0e0e0" stroke="#999999" points="521,-74 473,-74 473,-55 521,-55 521,-74"/>
<text text-anchor="middle" x="497" y="-62" font-family="Helvetica,sans-Serif" font-size="10.00">mutex</text>
</a>
</g>
</g>
<!-- Node2&#45;&gt;Node7 -->
<g id="edge6_Node000002_Node000007" class="edge">
<title>Node2&#45;&gt;Node7</title>
<g id="a_edge6_Node000002_Node000007"><a xlink:title=" ">
<path fill="none" stroke="#63b8ff" d="M449.26,-164.66C457.79,-146.93 477.15,-106.73 488.42,-83.32"/>
<polygon fill="#63b8ff" stroke="#63b8ff" points="491.65,-84.69 492.83,-74.16 485.34,-81.65 491.65,-84.69"/>
</a>
</g>
</g>
<!-- Node8 -->
<g id="Node000008" class="node">
<title>Node8</title>
<g id="a_Node000008"><a xlink:title=" ">
<polygon fill="#e0e0e0" stroke="#999999" points="378.5,-74 331.5,-74 331.5,-55 378.5,-55 378.5,-74"/>
<text text-anchor="middle" x="355" y="-62" font-family="Helvetica,sans-Serif" font-size="10.00">vector</text>
</a>
</g>
</g>
<!-- Node2&#45;&gt;Node8 -->
<g id="edge7_Node000002_Node000008" class="edge">
<title>Node2&#45;&gt;Node8</title>
<g id="a_edge7_Node000002_Node000008"><a xlink:title=" ">
<path fill="none" stroke="#63b8ff" d="M437.63,-164.66C422.6,-146.61 388.15,-105.28 368.81,-82.08"/>
<polygon fill="#63b8ff" stroke="#63b8ff" points="371.31,-79.6 362.22,-74.16 365.93,-84.08 371.31,-79.6"/>
</a>
</g>
</g>
<!-- Node9 -->
<g id="Node000009" class="node">
<title>Node9</title>
<g id="a_Node000009"><a xlink:title=" ">
<polygon fill="#e0e0e0" stroke="#999999" points="796,-129 746,-129 746,-110 796,-110 796,-129"/>
<text text-anchor="middle" x="771" y="-117" font-family="Helvetica,sans-Serif" font-size="10.00">cstring</text>
</a>
</g>
</g>
<!-- Node2&#45;&gt;Node9 -->
<g id="edge8_Node000002_Node000009" class="edge">
<title>Node2&#45;&gt;Node9</title>
<g id="a_edge8_Node000002_Node000009"><a xlink:title=" ">
<path fill="none" stroke="#63b8ff" d="M512.87,-164.99C569.94,-157.42 653.84,-145.31 735.82,-129.08"/>
<polygon fill="#63b8ff" stroke="#63b8ff" points="736.69,-132.47 745.81,-127.08 735.32,-125.61 736.69,-132.47"/>
</a>
</g>
</g>
<!-- Node2&#45;&gt;Node10 -->
<g id="edge9_Node000002_Node000010" class="edge">
<title>Node2&#45;&gt;Node10</title>
<g id="a_edge9_Node000002_Node000010"><a xlink:title=" ">
<path fill="none" stroke="#63b8ff" d="M421.7,-164.98C397.75,-156.23 360.22,-142.51 333.17,-132.62"/>
<polygon fill="#63b8ff" stroke="#63b8ff" points="334.31,-129.32 323.72,-129.17 331.91,-135.89 334.31,-129.32"/>
</a>
</g>
</g>
<!-- Node2&#45;&gt;Node12 -->
<g id="edge17_Node000002_Node000012" class="edge">
<title>Node2&#45;&gt;Node12</title>
<g id="a_edge17_Node000002_Node000012"><a xlink:title=" ">
<path fill="none" stroke="#63b8ff" d="M371.51,-165.06C329.51,-158.55 276.5,-147.44 232,-129 202.3,-116.7 171.91,-95.03 153.24,-80.47"/>
<polygon fill="#63b8ff" stroke="#63b8ff" points="155.31,-77.64 145.31,-74.15 150.95,-83.12 155.31,-77.64"/>
</a>
</g>
</g>
<!-- Node10&#45;&gt;Node3 -->
<g id="edge10_Node000010_Node000003" class="edge">
<title>Node10&#45;&gt;Node3</title>
<g id="a_edge10_Node000010_Node000003"><a xlink:title=" ">
<path fill="none" stroke="#63b8ff" d="M299.73,-109.91C298.93,-96.91 295.83,-71.98 284,-55 274.81,-41.82 260.37,-31.36 247.43,-23.91"/>
<polygon fill="#63b8ff" stroke="#63b8ff" points="248.83,-20.69 238.37,-19.01 245.5,-26.85 248.83,-20.69"/>
</a>
</g>
</g>
<!-- Node10&#45;&gt;Node6 -->
<g id="edge12_Node000010_Node000006" class="edge">
<title>Node10&#45;&gt;Node6</title>
<g id="a_edge12_Node000010_Node000006"><a xlink:title=" ">
<path fill="none" stroke="#63b8ff" d="M320.24,-109.98C340.7,-101.38 372.53,-87.99 395.93,-78.15"/>
<polygon fill="#63b8ff" stroke="#63b8ff" points="397.53,-81.27 405.39,-74.17 394.81,-74.82 397.53,-81.27"/>
</a>
</g>
</g>
<!-- Node10&#45;&gt;Node7 -->
<g id="edge13_Node000010_Node000007" class="edge">
<title>Node10&#45;&gt;Node7</title>
<g id="a_edge13_Node000010_Node000007"><a xlink:title=" ">
<path fill="none" stroke="#63b8ff" d="M331.65,-109.98C367.64,-100.3 426.17,-84.56 463.08,-74.63"/>
<polygon fill="#63b8ff" stroke="#63b8ff" points="464.13,-77.97 472.88,-71.99 462.31,-71.21 464.13,-77.97"/>
</a>
</g>
</g>
<!-- Node10&#45;&gt;Node8 -->
<g id="edge11_Node000010_Node000008" class="edge">
<title>Node10&#45;&gt;Node8</title>
<g id="a_edge11_Node000010_Node000008"><a xlink:title=" ">
<path fill="none" stroke="#63b8ff" d="M309.08,-109.75C317.09,-102.03 328.96,-90.6 338.62,-81.28"/>
<polygon fill="#63b8ff" stroke="#63b8ff" points="341.31,-83.55 346.09,-74.09 336.46,-78.51 341.31,-83.55"/>
</a>
</g>
</g>
<!-- Node11 -->
<g id="Node000011" class="node">
<title>Node11</title>
<g id="a_Node000011"><a xlink:title=" ">
<polygon fill="#e0e0e0" stroke="#999999" points="275,-74 215,-74 215,-55 275,-55 275,-74"/>
<text text-anchor="middle" x="245" y="-62" font-family="Helvetica,sans-Serif" font-size="10.00">iostream</text>
</a>
</g>
</g>
<!-- Node10&#45;&gt;Node11 -->
<g id="edge14_Node000010_Node000011" class="edge">
<title>Node10&#45;&gt;Node11</title>
<g id="a_edge14_Node000010_Node000011"><a xlink:title=" ">
<path fill="none" stroke="#63b8ff" d="M290.92,-109.75C282.91,-102.03 271.04,-90.6 261.38,-81.28"/>
<polygon fill="#63b8ff" stroke="#63b8ff" points="263.54,-78.51 253.91,-74.09 258.69,-83.55 263.54,-78.51"/>
</a>
</g>
</g>
<!-- Node10&#45;&gt;Node12 -->
<g id="edge15_Node000010_Node000012" class="edge">
<title>Node10&#45;&gt;Node12</title>
<g id="a_edge15_Node000010_Node000012"><a xlink:title=" ">
<path fill="none" stroke="#63b8ff" d="M273.49,-109.98C245.79,-101.09 202.14,-87.07 171.26,-77.15"/>
<polygon fill="#63b8ff" stroke="#63b8ff" points="172.31,-73.81 161.72,-74.08 170.17,-80.47 172.31,-73.81"/>
</a>
</g>
</g>
<!-- Node12&#45;&gt;Node3 -->
<g id="edge16_Node000012_Node000003" class="edge">
<title>Node12&#45;&gt;Node3</title>
<g id="a_edge16_Node000012_Node000003"><a xlink:title=" ">
<path fill="none" stroke="#63b8ff" d="M148.5,-54.98C161.4,-46.84 181.1,-34.41 196.4,-24.76"/>
<polygon fill="#63b8ff" stroke="#63b8ff" points="198.67,-27.47 205.26,-19.17 194.93,-21.55 198.67,-27.47"/>
</a>
</g>
</g>
<!-- Node13&#45;&gt;Node3 -->
<g id="edge21_Node000013_Node000003" class="edge">
<title>Node13&#45;&gt;Node3</title>
<g id="a_edge21_Node000013_Node000003"><a xlink:title=" ">
<path fill="none" stroke="#63b8ff" d="M68.12,-109.71C61.5,-96.45 51.81,-71.19 64,-55 78.76,-35.41 145.95,-21.78 186.87,-15.14"/>
<polygon fill="#63b8ff" stroke="#63b8ff" points="187.57,-18.57 196.9,-13.57 186.48,-11.66 187.57,-18.57"/>
</a>
</g>
</g>
<!-- Node13&#45;&gt;Node11 -->
<g id="edge20_Node000013_Node000011" class="edge">
<title>Node13&#45;&gt;Node11</title>
<g id="a_edge20_Node000013_Node000011"><a xlink:title=" ">
<path fill="none" stroke="#63b8ff" d="M100.63,-109.98C129.51,-101.09 175.01,-87.07 207.2,-77.15"/>
<polygon fill="#63b8ff" stroke="#63b8ff" points="208.62,-80.37 217.15,-74.08 206.56,-73.68 208.62,-80.37"/>
</a>
</g>
</g>
<!-- Node13&#45;&gt;Node12 -->
<g id="edge22_Node000013_Node000012" class="edge">
<title>Node13&#45;&gt;Node12</title>
<g id="a_edge22_Node000013_Node000012"><a xlink:title=" ">
<path fill="none" stroke="#63b8ff" d="M82.96,-109.98C92.13,-102.15 105.94,-90.34 117.03,-80.86"/>
<polygon fill="#63b8ff" stroke="#63b8ff" points="119.53,-83.33 124.86,-74.17 114.98,-78.01 119.53,-83.33"/>
</a>
</g>
</g>
</g>
</svg>

<g id="navigator" transform="translate(0 0)" fill="#404254">
  <rect fill="#f2f5e9" fill-opacity="0.5" stroke="#606060" stroke-width=".5" x="0" y="0" width="60" height="60"/>
  <use id="zoomplus" xlink:href="#zoomPlus" x="17" y="9" onmousedown="handleZoom(evt,'in')"/>
  <use id="zoomminus" xlink:href="#zoomMin" x="42" y="9" onmousedown="handleZoom(evt,'out')"/>
  <use id="reset" xlink:href="#resetDef" x="30" y="36" onmousedown="handleReset()"/>
   <use id="arrowup" xlink:href="#arrowUp" x="0" y="0" onmousedown="handlePan(0,-1)"/>
  <use id="arrowright" xlink:href="#arrowRight" x="0" y="0" onmousedown="handlePan(1,0)"/>
  <use id="arrowdown" xlink:href="#arrowDown" x="0" y="0" onmousedown="handlePan(0,1)"/>
  <use id="arrowleft" xlink:href="#arrowLeft" x="0" y="0" onmousedown="handlePan(-1,0)"/>
</g>
<svg viewBox="0 0 15 15" width="100%" height="30px" preserveAspectRatio="xMaxYMin meet">
 <g id="arrow_out" transform="scale(0.3 0.3)">
  <a xlink:href="helios_2util_2log_2__module_8ixx__incl_org.svg" target="_base">
   <rect id="button" ry="5" rx="5" y="6" x="6" height="38" width="38"
        fill="#f2f5e9" fill-opacity="0.5" stroke="#606060" stroke-width="1.0"/>
   <path id="arrow"
     d="M 11.500037,31.436501 C 11.940474,20.09759 22.043105,11.32322 32.158766,21.979434 L 37.068811,17.246167 C 37.068811,17.246167 37.088388,32 37.088388,32 L 22.160133,31.978069 C 22.160133,31.978069 26.997745,27.140456 26.997745,27.140456 C 18.528582,18.264221 13.291696,25.230495 11.500037,31.436501 z"
     style="fill:#404040;"/>
  </a>
 </g>
</svg>

<style type='text/css'>
<![CDATA[
[data-mouse-over-selected='false'] { opacity: 0.7; }
[data-mouse-over-selected='true']  { opacity: 1.0; }
]]>
</style>
<script type="application/ecmascript"><![CDATA[
document.addEventListener('DOMContentLoaded', (event) => {
  highlightEdges();
  highlightAdjacentNodes();
});
]]></script>
</svg>
