<?xml version="1.0" encoding="UTF-8" standalone="no"?>
<!DOCTYPE svg PUBLIC "-//W3C//DTD SVG 1.1//EN"
 "http://www.w3.org/Graphics/SVG/1.1/DTD/svg11.dtd">
<!-- Generated by graphviz version 2.43.0 (0)
 -->
<!-- Title: Graphical Class Hierarchy Pages: 1 -->
<svg width="508pt" height="1753pt"
 viewBox="0.00 0.00 508.00 1753.00" xmlns="http://www.w3.org/2000/svg" xmlns:xlink="http://www.w3.org/1999/xlink">
<g id="graph0" class="graph" transform="scale(1 1) rotate(0) translate(4 1749)">
<title>Graphical Class Hierarchy</title>
<!-- Node0 -->
<g id="Node000000" class="node">
<title>Node0</title>
<g id="a_Node000000"><a xlink:href="classhelios_1_1engine_1_1ecs_1_1Updatable.html" target="_top" xlink:title="Interface for components that require per&#45;frame updates.">
<polygon fill="white" stroke="#666666" points="107,-903.5 0,-903.5 0,-873.5 107,-873.5 107,-903.5"/>
<text text-anchor="start" x="8" y="-891.5" font-family="Helvetica,sans-Serif" font-size="10.00">helios::engine::ecs</text>
<text text-anchor="middle" x="53.5" y="-880.5" font-family="Helvetica,sans-Serif" font-size="10.00">::Updatable</text>
</a>
</g>
</g>
<!-- Node1 -->
<g id="Node000001" class="node">
<title>Node1</title>
<g id="a_Node000001"><a xlink:href="classhelios_1_1engine_1_1ecs_1_1System.html" target="_top" xlink:title="Abstract base class for game systems.">
<polygon fill="white" stroke="#666666" points="250,-903.5 143,-903.5 143,-873.5 250,-873.5 250,-903.5"/>
<text text-anchor="start" x="151" y="-891.5" font-family="Helvetica,sans-Serif" font-size="10.00">helios::engine::ecs</text>
<text text-anchor="middle" x="196.5" y="-880.5" font-family="Helvetica,sans-Serif" font-size="10.00">::System</text>
</a>
</g>
</g>
<!-- Node0&#45;&gt;Node1 -->
<g id="edge8_Node000000_Node000001" class="edge">
<title>Node0&#45;&gt;Node1</title>
<g id="a_edge8_Node000000_Node000001"><a xlink:title=" ">
<path fill="none" stroke="#63b8ff" d="M117.05,-888.5C125.7,-888.5 134.51,-888.5 142.95,-888.5"/>
<polygon fill="#63b8ff" stroke="#63b8ff" points="117,-885 107,-888.5 117,-892 117,-885"/>
</a>
</g>
</g>
<!-- Node2 -->
<g id="Node000002" class="node">
<title>Node2</title>
<g id="a_Node000002"><a xlink:href="classhelios_1_1engine_1_1mechanics_1_1bounds_1_1systems_1_1LevelBoundsBehaviorSystem.html" target="_top" xlink:title="System that handles entity behavior when colliding with level boundaries.">
<polygon fill="white" stroke="#666666" points="479.5,-1745 306.5,-1745 306.5,-1704 479.5,-1704 479.5,-1745"/>
<text text-anchor="start" x="314.5" y="-1733" font-family="Helvetica,sans-Serif" font-size="10.00">helios::engine::mechanics</text>
<text text-anchor="start" x="314.5" y="-1722" font-family="Helvetica,sans-Serif" font-size="10.00">::bounds::systems::LevelBounds</text>
<text text-anchor="middle" x="393" y="-1711" font-family="Helvetica,sans-Serif" font-size="10.00">BehaviorSystem</text>
</a>
</g>
</g>
<!-- Node1&#45;&gt;Node2 -->
<g id="edge9_Node000001_Node000002" class="edge">
<title>Node1&#45;&gt;Node2</title>
<g id="a_edge9_Node000001_Node000002"><a xlink:title=" ">
<path fill="none" stroke="#63b8ff" d="M198.6,-913.81C204.49,-1044 233.94,-1634.49 286,-1695.5 291.64,-1702.1 298.62,-1707.28 306.29,-1711.32"/>
<polygon fill="#63b8ff" stroke="#63b8ff" points="202.09,-913.46 198.15,-903.63 195.1,-913.77 202.09,-913.46"/>
</a>
</g>
</g>
<!-- Node3 -->
<g id="Node000003" class="node">
<title>Node3</title>
<g id="a_Node000003"><a xlink:href="classhelios_1_1engine_1_1mechanics_1_1combat_1_1systems_1_1ProjectileSpawnSystem.html" target="_top" xlink:title="System that spawns projectiles for entities with active ShootComponents.">
<polygon fill="white" stroke="#666666" points="488.5,-1686 297.5,-1686 297.5,-1645 488.5,-1645 488.5,-1686"/>
<text text-anchor="start" x="305.5" y="-1674" font-family="Helvetica,sans-Serif" font-size="10.00">helios::engine::mechanics</text>
<text text-anchor="start" x="305.5" y="-1663" font-family="Helvetica,sans-Serif" font-size="10.00">::combat::systems::ProjectileSpawn</text>
<text text-anchor="middle" x="393" y="-1652" font-family="Helvetica,sans-Serif" font-size="10.00">System</text>
</a>
</g>
</g>
<!-- Node1&#45;&gt;Node3 -->
<g id="edge10_Node000001_Node000003" class="edge">
<title>Node1&#45;&gt;Node3</title>
<g id="a_edge10_Node000001_Node000003"><a xlink:title=" ">
<path fill="none" stroke="#63b8ff" d="M198.84,-913.91C205.61,-1038.42 237.71,-1580.4 286,-1636.5 289.36,-1640.4 293.19,-1643.81 297.36,-1646.77"/>
<polygon fill="#63b8ff" stroke="#63b8ff" points="202.33,-913.6 198.29,-903.8 195.34,-913.98 202.33,-913.6"/>
</a>
</g>
</g>
<!-- Node4 -->
<g id="Node000004" class="node">
<title>Node4</title>
<g id="a_Node000004"><a xlink:href="classhelios_1_1engine_1_1mechanics_1_1damage_1_1systems_1_1DamageOnCollisionSystem.html" target="_top" xlink:title="System that processes solid collision events and applies damage.">
<polygon fill="white" stroke="#666666" points="499,-1627 287,-1627 287,-1586 499,-1586 499,-1627"/>
<text text-anchor="start" x="295" y="-1615" font-family="Helvetica,sans-Serif" font-size="10.00">helios::engine::mechanics</text>
<text text-anchor="start" x="295" y="-1604" font-family="Helvetica,sans-Serif" font-size="10.00">::damage::systems::DamageOnCollision</text>
<text text-anchor="middle" x="393" y="-1593" font-family="Helvetica,sans-Serif" font-size="10.00">System</text>
</a>
</g>
</g>
<!-- Node1&#45;&gt;Node4 -->
<g id="edge11_Node000001_Node000004" class="edge">
<title>Node1&#45;&gt;Node4</title>
<g id="a_edge11_Node000001_Node000004"><a xlink:title=" ">
<path fill="none" stroke="#63b8ff" d="M197.15,-913.63C196.09,-1025.32 197.45,-1475.67 286,-1577.5 288.63,-1580.52 291.54,-1583.25 294.67,-1585.7"/>
<polygon fill="#63b8ff" stroke="#63b8ff" points="200.64,-913.66 197.26,-903.62 193.65,-913.58 200.64,-913.66"/>
</a>
</g>
</g>
<!-- Node5 -->
<g id="Node000005" class="node">
<title>Node5</title>
<g id="a_Node000005"><a xlink:href="classhelios_1_1engine_1_1mechanics_1_1gamestate_1_1systems_1_1GameStateInputResponseSystem.html" target="_top" xlink:title="Responds to gamepad input and issues game state commands.">
<polygon fill="white" stroke="#666666" points="484.5,-1568 301.5,-1568 301.5,-1527 484.5,-1527 484.5,-1568"/>
<text text-anchor="start" x="309.5" y="-1556" font-family="Helvetica,sans-Serif" font-size="10.00">helios::engine::mechanics</text>
<text text-anchor="start" x="309.5" y="-1545" font-family="Helvetica,sans-Serif" font-size="10.00">::gamestate::systems::GameState</text>
<text text-anchor="middle" x="393" y="-1534" font-family="Helvetica,sans-Serif" font-size="10.00">InputResponseSystem</text>
</a>
</g>
</g>
<!-- Node1&#45;&gt;Node5 -->
<g id="edge12_Node000001_Node000005" class="edge">
<title>Node1&#45;&gt;Node5</title>
<g id="a_edge12_Node000001_Node000005"><a xlink:title=" ">
<path fill="none" stroke="#63b8ff" d="M197.48,-913.82C197.92,-1019.78 204.96,-1426.41 286,-1518.5 290.41,-1523.51 295.6,-1527.7 301.27,-1531.19"/>
<polygon fill="#63b8ff" stroke="#63b8ff" points="200.98,-913.72 197.46,-903.72 193.98,-913.73 200.98,-913.72"/>
</a>
</g>
</g>
<!-- Node6 -->
<g id="Node000006" class="node">
<title>Node6</title>
<g id="a_Node000006"><a xlink:href="classhelios_1_1engine_1_1mechanics_1_1gamestate_1_1systems_1_1MatchRuleSystem.html" target="_top" xlink:title="Evaluates match rules and conditions.">
<polygon fill="white" stroke="#666666" points="483,-1509 303,-1509 303,-1468 483,-1468 483,-1509"/>
<text text-anchor="start" x="311" y="-1497" font-family="Helvetica,sans-Serif" font-size="10.00">helios::engine::mechanics</text>
<text text-anchor="start" x="311" y="-1486" font-family="Helvetica,sans-Serif" font-size="10.00">::gamestate::systems::MatchRule</text>
<text text-anchor="middle" x="393" y="-1475" font-family="Helvetica,sans-Serif" font-size="10.00">System</text>
</a>
</g>
</g>
<!-- Node1&#45;&gt;Node6 -->
<g id="edge13_Node000001_Node000006" class="edge">
<title>Node1&#45;&gt;Node6</title>
<g id="a_edge13_Node000001_Node000006"><a xlink:title=" ">
<path fill="none" stroke="#63b8ff" d="M197.89,-913.66C199.92,-1013.05 212.35,-1377 286,-1459.5 290.83,-1464.91 296.56,-1469.35 302.82,-1472.99"/>
<polygon fill="#63b8ff" stroke="#63b8ff" points="201.38,-913.56 197.7,-903.62 194.39,-913.69 201.38,-913.56"/>
</a>
</g>
</g>
<!-- Node7 -->
<g id="Node000007" class="node">
<title>Node7</title>
<g id="a_Node000007"><a xlink:href="classhelios_1_1engine_1_1mechanics_1_1health_1_1systems_1_1HealthUpdateSystem.html" target="_top" xlink:title="System that detects dead entities and issues despawn commands.">
<polygon fill="white" stroke="#666666" points="480,-1450 306,-1450 306,-1409 480,-1409 480,-1450"/>
<text text-anchor="start" x="314" y="-1438" font-family="Helvetica,sans-Serif" font-size="10.00">helios::engine::mechanics</text>
<text text-anchor="start" x="314" y="-1427" font-family="Helvetica,sans-Serif" font-size="10.00">::health::systems::HealthUpdate</text>
<text text-anchor="middle" x="393" y="-1416" font-family="Helvetica,sans-Serif" font-size="10.00">System</text>
</a>
</g>
</g>
<!-- Node1&#45;&gt;Node7 -->
<g id="edge14_Node000001_Node000007" class="edge">
<title>Node1&#45;&gt;Node7</title>
<g id="a_edge14_Node000001_Node000007"><a xlink:title=" ">
<path fill="none" stroke="#63b8ff" d="M198.38,-913.71C202.14,-1006.52 219.77,-1327.6 286,-1400.5 291.64,-1406.71 298.48,-1411.65 305.93,-1415.56"/>
<polygon fill="#63b8ff" stroke="#63b8ff" points="201.87,-913.41 197.99,-903.55 194.88,-913.68 201.87,-913.41"/>
</a>
</g>
</g>
<!-- Node8 -->
<g id="Node000008" class="node">
<title>Node8</title>
<g id="a_Node000008"><a xlink:href="classhelios_1_1engine_1_1mechanics_1_1input_1_1systems_1_1TwinStickInputSystem.html" target="_top" xlink:title="Input component for twin&#45;stick gamepad control schemes.">
<polygon fill="white" stroke="#666666" points="478.5,-1391 307.5,-1391 307.5,-1350 478.5,-1350 478.5,-1391"/>
<text text-anchor="start" x="315.5" y="-1379" font-family="Helvetica,sans-Serif" font-size="10.00">helios::engine::mechanics</text>
<text text-anchor="start" x="315.5" y="-1368" font-family="Helvetica,sans-Serif" font-size="10.00">::input::systems::TwinStickInput</text>
<text text-anchor="middle" x="393" y="-1357" font-family="Helvetica,sans-Serif" font-size="10.00">System</text>
</a>
</g>
</g>
<!-- Node1&#45;&gt;Node8 -->
<g id="edge15_Node000001_Node000008" class="edge">
<title>Node1&#45;&gt;Node8</title>
<g id="a_edge15_Node000001_Node000008"><a xlink:title=" ">
<path fill="none" stroke="#63b8ff" d="M199.03,-914.11C204.69,-1000.34 227.24,-1278.21 286,-1341.5 292.04,-1348 299.38,-1353.1 307.35,-1357.09"/>
<polygon fill="#63b8ff" stroke="#63b8ff" points="202.51,-913.67 198.38,-903.91 195.52,-914.11 202.51,-913.67"/>
</a>
</g>
</g>
<!-- Node9 -->
<g id="Node000009" class="node">
<title>Node9</title>
<g id="a_Node000009"><a xlink:href="classhelios_1_1engine_1_1mechanics_1_1lifecycle_1_1systems_1_1DelayedComponentEnablerSystem.html" target="_top" xlink:title="System that processes delayed component activations each frame.">
<polygon fill="white" stroke="#666666" points="500,-1332 286,-1332 286,-1291 500,-1291 500,-1332"/>
<text text-anchor="start" x="294" y="-1320" font-family="Helvetica,sans-Serif" font-size="10.00">helios::engine::mechanics</text>
<text text-anchor="start" x="294" y="-1309" font-family="Helvetica,sans-Serif" font-size="10.00">::lifecycle::systems::DelayedComponent</text>
<text text-anchor="middle" x="393" y="-1298" font-family="Helvetica,sans-Serif" font-size="10.00">EnablerSystem</text>
</a>
</g>
</g>
<!-- Node1&#45;&gt;Node9 -->
<g id="edge16_Node000001_Node000009" class="edge">
<title>Node1&#45;&gt;Node9</title>
<g id="a_edge16_Node000001_Node000009"><a xlink:title=" ">
<path fill="none" stroke="#63b8ff" d="M199.87,-913.96C207.64,-992.27 234.89,-1227.54 286,-1281.5 289.29,-1284.97 292.94,-1288.05 296.87,-1290.78"/>
<polygon fill="#63b8ff" stroke="#63b8ff" points="203.31,-913.2 198.86,-903.59 196.34,-913.88 203.31,-913.2"/>
</a>
</g>
</g>
<!-- Node10 -->
<g id="Node000010" class="node">
<title>Node10</title>
<g id="a_Node000010"><a xlink:href="classhelios_1_1engine_1_1mechanics_1_1match_1_1systems_1_1MatchFlowSystem.html" target="_top" xlink:title="Automatically advances the match through its state phases.">
<polygon fill="white" stroke="#666666" points="491.5,-1272.5 294.5,-1272.5 294.5,-1242.5 491.5,-1242.5 491.5,-1272.5"/>
<text text-anchor="start" x="302.5" y="-1260.5" font-family="Helvetica,sans-Serif" font-size="10.00">helios::engine::mechanics</text>
<text text-anchor="middle" x="393" y="-1249.5" font-family="Helvetica,sans-Serif" font-size="10.00">::match::systems::MatchFlowSystem</text>
</a>
</g>
</g>
<!-- Node1&#45;&gt;Node10 -->
<g id="edge17_Node000001_Node000010" class="edge">
<title>Node1&#45;&gt;Node10</title>
<g id="a_edge17_Node000001_Node000010"><a xlink:title=" ">
<path fill="none" stroke="#63b8ff" d="M200.57,-913.8C209.79,-985.6 239.5,-1188.3 286,-1233.5 289.52,-1236.92 293.41,-1239.89 297.58,-1242.47"/>
<polygon fill="#63b8ff" stroke="#63b8ff" points="204.04,-913.31 199.31,-903.82 197.09,-914.18 204.04,-913.31"/>
</a>
</g>
</g>
<!-- Node11 -->
<g id="Node000011" class="node">
<title>Node11</title>
<g id="a_Node000011"><a xlink:href="classhelios_1_1engine_1_1mechanics_1_1scoring_1_1systems_1_1CombatScoringSystem.html" target="_top" xlink:title="System that processes death events and awards scores.">
<polygon fill="white" stroke="#666666" points="485.5,-1224 300.5,-1224 300.5,-1183 485.5,-1183 485.5,-1224"/>
<text text-anchor="start" x="308.5" y="-1212" font-family="Helvetica,sans-Serif" font-size="10.00">helios::engine::mechanics</text>
<text text-anchor="start" x="308.5" y="-1201" font-family="Helvetica,sans-Serif" font-size="10.00">::scoring::systems::CombatScoring</text>
<text text-anchor="middle" x="393" y="-1190" font-family="Helvetica,sans-Serif" font-size="10.00">System</text>
</a>
</g>
</g>
<!-- Node1&#45;&gt;Node11 -->
<g id="edge18_Node000001_Node000011" class="edge">
<title>Node1&#45;&gt;Node11</title>
<g id="a_edge18_Node000001_Node000011"><a xlink:title=" ">
<path fill="none" stroke="#63b8ff" d="M197.65,-913.84C199.39,-969.36 211.58,-1102.5 286,-1174.5 290.25,-1178.61 295.03,-1182.15 300.14,-1185.2"/>
<polygon fill="#63b8ff" stroke="#63b8ff" points="201.15,-913.73 197.42,-903.81 194.15,-913.89 201.15,-913.73"/>
</a>
</g>
</g>
<!-- Node12 -->
<g id="Node000012" class="node">
<title>Node12</title>
<g id="a_Node000012"><a xlink:href="classhelios_1_1engine_1_1mechanics_1_1scoring_1_1systems_1_1ScoreObserverClearSystem.html" target="_top" xlink:title="System that clears the hasUpdate flag on ScoreObserverComponents.">
<polygon fill="white" stroke="#666666" points="484,-1165 302,-1165 302,-1124 484,-1124 484,-1165"/>
<text text-anchor="start" x="310" y="-1153" font-family="Helvetica,sans-Serif" font-size="10.00">helios::engine::mechanics</text>
<text text-anchor="start" x="310" y="-1142" font-family="Helvetica,sans-Serif" font-size="10.00">::scoring::systems::ScoreObserver</text>
<text text-anchor="middle" x="393" y="-1131" font-family="Helvetica,sans-Serif" font-size="10.00">ClearSystem</text>
</a>
</g>
</g>
<!-- Node1&#45;&gt;Node12 -->
<g id="edge19_Node000001_Node000012" class="edge">
<title>Node1&#45;&gt;Node12</title>
<g id="a_edge19_Node000001_Node000012"><a xlink:title=" ">
<path fill="none" stroke="#63b8ff" d="M200,-913.71C206.02,-960.54 225.62,-1061.13 286,-1115.5 290.82,-1119.84 296.23,-1123.54 301.99,-1126.69"/>
<polygon fill="#63b8ff" stroke="#63b8ff" points="203.45,-913.05 198.8,-903.53 196.5,-913.87 203.45,-913.05"/>
</a>
</g>
</g>
<!-- Node13 -->
<g id="Node000013" class="node">
<title>Node13</title>
<g id="a_Node000013"><a xlink:href="classhelios_1_1engine_1_1mechanics_1_1scoring_1_1systems_1_1ScoreObserverSystem.html" target="_top" xlink:title="System that updates ScoreObserverComponents from their referenced ScorePools.">
<polygon fill="white" stroke="#666666" points="484,-1106 302,-1106 302,-1065 484,-1065 484,-1106"/>
<text text-anchor="start" x="310" y="-1094" font-family="Helvetica,sans-Serif" font-size="10.00">helios::engine::mechanics</text>
<text text-anchor="start" x="310" y="-1083" font-family="Helvetica,sans-Serif" font-size="10.00">::scoring::systems::ScoreObserver</text>
<text text-anchor="middle" x="393" y="-1072" font-family="Helvetica,sans-Serif" font-size="10.00">System</text>
</a>
</g>
</g>
<!-- Node1&#45;&gt;Node13 -->
<g id="edge20_Node000001_Node000013" class="edge">
<title>Node1&#45;&gt;Node13</title>
<g id="a_edge20_Node000001_Node000013"><a xlink:title=" ">
<path fill="none" stroke="#63b8ff" d="M203.84,-913.62C214.46,-950.54 239.44,-1019.12 286,-1056.5 290.84,-1060.38 296.15,-1063.75 301.75,-1066.66"/>
<polygon fill="#63b8ff" stroke="#63b8ff" points="207.13,-912.38 201.1,-903.67 200.38,-914.24 207.13,-912.38"/>
</a>
</g>
</g>
<!-- Node14 -->
<g id="Node000014" class="node">
<title>Node14</title>
<g id="a_Node000014"><a xlink:href="classhelios_1_1engine_1_1mechanics_1_1spawn_1_1systems_1_1GameObjectSpawnSystem.html" target="_top" xlink:title=" ">
<polygon fill="white" stroke="#666666" points="493,-1047 293,-1047 293,-1006 493,-1006 493,-1047"/>
<text text-anchor="start" x="301" y="-1035" font-family="Helvetica,sans-Serif" font-size="10.00">helios::engine::mechanics</text>
<text text-anchor="start" x="301" y="-1024" font-family="Helvetica,sans-Serif" font-size="10.00">::spawn::systems::GameObjectSpawn</text>
<text text-anchor="middle" x="393" y="-1013" font-family="Helvetica,sans-Serif" font-size="10.00">System</text>
</a>
</g>
</g>
<!-- Node1&#45;&gt;Node14 -->
<g id="edge21_Node000001_Node000014" class="edge">
<title>Node1&#45;&gt;Node14</title>
<g id="a_edge21_Node000001_Node000014"><a xlink:title=" ">
<path fill="none" stroke="#63b8ff" d="M210.92,-912.26C226.06,-936.91 252.92,-974.82 286,-996.5 291.44,-1000.06 297.3,-1003.21 303.38,-1005.99"/>
<polygon fill="#63b8ff" stroke="#63b8ff" points="213.84,-910.32 205.71,-903.52 207.83,-913.9 213.84,-910.32"/>
</a>
</g>
</g>
<!-- Node15 -->
<g id="Node000015" class="node">
<title>Node15</title>
<g id="a_Node000015"><a xlink:href="classhelios_1_1engine_1_1modules_1_1ai_1_1systems_1_1ChaseSystem.html" target="_top" xlink:title="System that steers entities towards their chase targets.">
<polygon fill="white" stroke="#666666" points="469,-987.5 317,-987.5 317,-957.5 469,-957.5 469,-987.5"/>
<text text-anchor="start" x="325" y="-975.5" font-family="Helvetica,sans-Serif" font-size="10.00">helios::engine::modules</text>
<text text-anchor="middle" x="393" y="-964.5" font-family="Helvetica,sans-Serif" font-size="10.00">::ai::systems::ChaseSystem</text>
</a>
</g>
</g>
<!-- Node1&#45;&gt;Node15 -->
<g id="edge22_Node000001_Node000015" class="edge">
<title>Node1&#45;&gt;Node15</title>
<g id="a_edge22_Node000001_Node000015"><a xlink:title=" ">
<path fill="none" stroke="#63b8ff" d="M223.53,-909.99C240.4,-922.9 263.38,-938.69 286,-948.5 295.69,-952.7 306.22,-956.22 316.75,-959.14"/>
<polygon fill="#63b8ff" stroke="#63b8ff" points="225.33,-906.95 215.3,-903.54 221.02,-912.46 225.33,-906.95"/>
</a>
</g>
</g>
<!-- Node16 -->
<g id="Node000016" class="node">
<title>Node16</title>
<g id="a_Node000016"><a xlink:href="classhelios_1_1engine_1_1modules_1_1physics_1_1collision_1_1systems_1_1BoundsUpdateSystem.html" target="_top" xlink:title="System that updates AABB colliders based on entity transforms.">
<polygon fill="white" stroke="#666666" points="479,-939 307,-939 307,-898 479,-898 479,-939"/>
<text text-anchor="start" x="315" y="-927" font-family="Helvetica,sans-Serif" font-size="10.00">helios::engine::modules</text>
<text text-anchor="start" x="315" y="-916" font-family="Helvetica,sans-Serif" font-size="10.00">::physics::collision::</text>
<text text-anchor="middle" x="393" y="-905" font-family="Helvetica,sans-Serif" font-size="10.00">systems::BoundsUpdateSystem</text>
</a>
</g>
</g>
<!-- Node1&#45;&gt;Node16 -->
<g id="edge23_Node000001_Node000016" class="edge">
<title>Node1&#45;&gt;Node16</title>
<g id="a_edge23_Node000001_Node000016"><a xlink:title=" ">
<path fill="none" stroke="#63b8ff" d="M260.18,-898.17C275.01,-900.45 291.06,-902.93 306.7,-905.34"/>
<polygon fill="#63b8ff" stroke="#63b8ff" points="260.55,-894.68 250.13,-896.62 259.48,-901.6 260.55,-894.68"/>
</a>
</g>
</g>
<!-- Node17 -->
<g id="Node000017" class="node">
<title>Node17</title>
<g id="a_Node000017"><a xlink:href="classhelios_1_1engine_1_1modules_1_1physics_1_1collision_1_1systems_1_1CollisionStateClearSystem.html" target="_top" xlink:title="System that clears collision state components at the end of each frame.">
<polygon fill="white" stroke="#666666" points="490,-880 296,-880 296,-839 490,-839 490,-880"/>
<text text-anchor="start" x="304" y="-868" font-family="Helvetica,sans-Serif" font-size="10.00">helios::engine::modules</text>
<text text-anchor="start" x="304" y="-857" font-family="Helvetica,sans-Serif" font-size="10.00">::physics::collision::</text>
<text text-anchor="middle" x="393" y="-846" font-family="Helvetica,sans-Serif" font-size="10.00">systems::CollisionStateClearSystem</text>
</a>
</g>
</g>
<!-- Node1&#45;&gt;Node17 -->
<g id="edge24_Node000001_Node000017" class="edge">
<title>Node1&#45;&gt;Node17</title>
<g id="a_edge24_Node000001_Node000017"><a xlink:title=" ">
<path fill="none" stroke="#63b8ff" d="M260.35,-879.13C271.71,-877.44 283.79,-875.63 295.85,-873.84"/>
<polygon fill="#63b8ff" stroke="#63b8ff" points="259.51,-875.72 250.13,-880.65 260.54,-882.64 259.51,-875.72"/>
</a>
</g>
</g>
<!-- Node18 -->
<g id="Node000018" class="node">
<title>Node18</title>
<g id="a_Node000018"><a xlink:href="classhelios_1_1engine_1_1modules_1_1physics_1_1collision_1_1systems_1_1CollisionStateResponseSystem.html" target="_top" xlink:title="System that processes collision states and executes configured behaviors.">
<polygon fill="white" stroke="#666666" points="482.5,-820.5 303.5,-820.5 303.5,-768.5 482.5,-768.5 482.5,-820.5"/>
<text text-anchor="start" x="311.5" y="-808.5" font-family="Helvetica,sans-Serif" font-size="10.00">helios::engine::modules</text>
<text text-anchor="start" x="311.5" y="-797.5" font-family="Helvetica,sans-Serif" font-size="10.00">::physics::collision::</text>
<text text-anchor="start" x="311.5" y="-786.5" font-family="Helvetica,sans-Serif" font-size="10.00">systems::CollisionStateResponse</text>
<text text-anchor="middle" x="393" y="-775.5" font-family="Helvetica,sans-Serif" font-size="10.00">System</text>
</a>
</g>
</g>
<!-- Node1&#45;&gt;Node18 -->
<g id="edge25_Node000001_Node000018" class="edge">
<title>Node1&#45;&gt;Node18</title>
<g id="a_edge25_Node000001_Node000018"><a xlink:title=" ">
<path fill="none" stroke="#63b8ff" d="M225.67,-867.39C242.54,-855.44 264.77,-840.85 286,-830.5 293.25,-826.96 300.93,-823.63 308.72,-820.52"/>
<polygon fill="#63b8ff" stroke="#63b8ff" points="223.44,-864.69 217.37,-873.37 227.53,-870.37 223.44,-864.69"/>
</a>
</g>
</g>
<!-- Node19 -->
<g id="Node000019" class="node">
<title>Node19</title>
<g id="a_Node000019"><a xlink:href="classhelios_1_1engine_1_1modules_1_1physics_1_1collision_1_1systems_1_1GridCollisionDetectionSystem.html" target="_top" xlink:title="Collision detection system using uniform spatial partitioning for Broadphase and AABB overlaps in the...">
<polygon fill="white" stroke="#666666" points="479.5,-750.5 306.5,-750.5 306.5,-698.5 479.5,-698.5 479.5,-750.5"/>
<text text-anchor="start" x="314.5" y="-738.5" font-family="Helvetica,sans-Serif" font-size="10.00">helios::engine::modules</text>
<text text-anchor="start" x="314.5" y="-727.5" font-family="Helvetica,sans-Serif" font-size="10.00">::physics::collision::</text>
<text text-anchor="start" x="314.5" y="-716.5" font-family="Helvetica,sans-Serif" font-size="10.00">systems::GridCollisionDetection</text>
<text text-anchor="middle" x="393" y="-705.5" font-family="Helvetica,sans-Serif" font-size="10.00">System</text>
</a>
</g>
</g>
<!-- Node1&#45;&gt;Node19 -->
<g id="edge26_Node000001_Node000019" class="edge">
<title>Node1&#45;&gt;Node19</title>
<g id="a_edge26_Node000001_Node000019"><a xlink:title=" ">
<path fill="none" stroke="#63b8ff" d="M208.26,-863.97C222.18,-834.99 249.09,-787.22 286,-759.5 292.28,-754.79 299.22,-750.69 306.46,-747.13"/>
<polygon fill="#63b8ff" stroke="#63b8ff" points="204.93,-862.83 203.89,-873.38 211.28,-865.79 204.93,-862.83"/>
</a>
</g>
</g>
<!-- Node20 -->
<g id="Node000020" class="node">
<title>Node20</title>
<g id="a_Node000020"><a xlink:href="classhelios_1_1engine_1_1modules_1_1physics_1_1motion_1_1systems_1_1Move2DSystem.html" target="_top" xlink:title="System that processes 2D movement for entities.">
<polygon fill="white" stroke="#666666" points="466.5,-680 319.5,-680 319.5,-639 466.5,-639 466.5,-680"/>
<text text-anchor="start" x="327.5" y="-668" font-family="Helvetica,sans-Serif" font-size="10.00">helios::engine::modules</text>
<text text-anchor="start" x="327.5" y="-657" font-family="Helvetica,sans-Serif" font-size="10.00">::physics::motion::systems</text>
<text text-anchor="middle" x="393" y="-646" font-family="Helvetica,sans-Serif" font-size="10.00">::Move2DSystem</text>
</a>
</g>
</g>
<!-- Node1&#45;&gt;Node20 -->
<g id="edge27_Node000001_Node000020" class="edge">
<title>Node1&#45;&gt;Node20</title>
<g id="a_edge27_Node000001_Node000020"><a xlink:title=" ">
<path fill="none" stroke="#63b8ff" d="M201.59,-863.46C209.81,-821.25 232.38,-735.97 286,-689.5 295.54,-681.23 307.21,-675.23 319.27,-670.88"/>
<polygon fill="#63b8ff" stroke="#63b8ff" points="198.12,-862.99 199.76,-873.46 205,-864.25 198.12,-862.99"/>
</a>
</g>
</g>
<!-- Node21 -->
<g id="Node000021" class="node">
<title>Node21</title>
<g id="a_Node000021"><a xlink:href="classhelios_1_1engine_1_1modules_1_1physics_1_1motion_1_1systems_1_1SpinSystem.html" target="_top" xlink:title="System that updates the spin rotation of entities.">
<polygon fill="white" stroke="#666666" points="466.5,-621 319.5,-621 319.5,-580 466.5,-580 466.5,-621"/>
<text text-anchor="start" x="327.5" y="-609" font-family="Helvetica,sans-Serif" font-size="10.00">helios::engine::modules</text>
<text text-anchor="start" x="327.5" y="-598" font-family="Helvetica,sans-Serif" font-size="10.00">::physics::motion::systems</text>
<text text-anchor="middle" x="393" y="-587" font-family="Helvetica,sans-Serif" font-size="10.00">::SpinSystem</text>
</a>
</g>
</g>
<!-- Node1&#45;&gt;Node21 -->
<g id="edge28_Node000001_Node000021" class="edge">
<title>Node1&#45;&gt;Node21</title>
<g id="a_edge28_Node000001_Node000021"><a xlink:title=" ">
<path fill="none" stroke="#63b8ff" d="M198.69,-863.23C202.51,-811.78 218.57,-694.35 286,-630.5 295.37,-621.62 307.17,-615.34 319.47,-610.91"/>
<polygon fill="#63b8ff" stroke="#63b8ff" points="195.18,-863.24 198.03,-873.44 202.17,-863.69 195.18,-863.24"/>
</a>
</g>
</g>
<!-- Node22 -->
<g id="Node000022" class="node">
<title>Node22</title>
<g id="a_Node000022"><a xlink:href="classhelios_1_1engine_1_1modules_1_1physics_1_1motion_1_1systems_1_1SteeringSystem.html" target="_top" xlink:title="System that processes heading and rotation physics.">
<polygon fill="white" stroke="#666666" points="466.5,-562 319.5,-562 319.5,-521 466.5,-521 466.5,-562"/>
<text text-anchor="start" x="327.5" y="-550" font-family="Helvetica,sans-Serif" font-size="10.00">helios::engine::modules</text>
<text text-anchor="start" x="327.5" y="-539" font-family="Helvetica,sans-Serif" font-size="10.00">::physics::motion::systems</text>
<text text-anchor="middle" x="393" y="-528" font-family="Helvetica,sans-Serif" font-size="10.00">::SteeringSystem</text>
</a>
</g>
</g>
<!-- Node1&#45;&gt;Node22 -->
<g id="edge29_Node000001_Node000022" class="edge">
<title>Node1&#45;&gt;Node22</title>
<g id="a_edge29_Node000001_Node000022"><a xlink:title=" ">
<path fill="none" stroke="#63b8ff" d="M196.78,-863.41C196.5,-803.96 204.37,-653.42 286,-571.5 295.18,-562.29 306.96,-555.85 319.32,-551.37"/>
<polygon fill="#63b8ff" stroke="#63b8ff" points="193.28,-863.45 196.91,-873.41 200.28,-863.36 193.28,-863.45"/>
</a>
</g>
</g>
<!-- Node23 -->
<g id="Node000023" class="node">
<title>Node23</title>
<g id="a_Node000023"><a xlink:href="classhelios_1_1engine_1_1modules_1_1spatial_1_1transform_1_1systems_1_1ComposeTransformSystem.html" target="_top" xlink:title="System that composes the final ComposeTransformComponent from state components.">
<polygon fill="white" stroke="#666666" points="490.5,-503 295.5,-503 295.5,-462 490.5,-462 490.5,-503"/>
<text text-anchor="start" x="303.5" y="-491" font-family="Helvetica,sans-Serif" font-size="10.00">helios::engine::modules</text>
<text text-anchor="start" x="303.5" y="-480" font-family="Helvetica,sans-Serif" font-size="10.00">::spatial::transform::</text>
<text text-anchor="middle" x="393" y="-469" font-family="Helvetica,sans-Serif" font-size="10.00">systems::ComposeTransformSystem</text>
</a>
</g>
</g>
<!-- Node1&#45;&gt;Node23 -->
<g id="edge30_Node000001_Node000023" class="edge">
<title>Node1&#45;&gt;Node23</title>
<g id="a_edge30_Node000001_Node000023"><a xlink:title=" ">
<path fill="none" stroke="#63b8ff" d="M200.14,-863.11C208.53,-787.16 236.96,-563.78 286,-512.5 289.3,-509.04 292.97,-505.98 296.91,-503.26"/>
<polygon fill="#63b8ff" stroke="#63b8ff" points="196.64,-862.89 199.05,-873.21 203.6,-863.65 196.64,-862.89"/>
</a>
</g>
</g>
<!-- Node24 -->
<g id="Node000024" class="node">
<title>Node24</title>
<g id="a_Node000024"><a xlink:href="classhelios_1_1engine_1_1modules_1_1spatial_1_1transform_1_1systems_1_1ScaleSystem.html" target="_top" xlink:title="System that applies scaling to entities based on their ScaleStateComponent.">
<polygon fill="white" stroke="#666666" points="459.5,-444 326.5,-444 326.5,-403 459.5,-403 459.5,-444"/>
<text text-anchor="start" x="334.5" y="-432" font-family="Helvetica,sans-Serif" font-size="10.00">helios::engine::modules</text>
<text text-anchor="start" x="334.5" y="-421" font-family="Helvetica,sans-Serif" font-size="10.00">::spatial::transform::</text>
<text text-anchor="middle" x="393" y="-410" font-family="Helvetica,sans-Serif" font-size="10.00">systems::ScaleSystem</text>
</a>
</g>
</g>
<!-- Node1&#45;&gt;Node24 -->
<g id="edge31_Node000001_Node000024" class="edge">
<title>Node1&#45;&gt;Node24</title>
<g id="a_edge31_Node000001_Node000024"><a xlink:title=" ">
<path fill="none" stroke="#63b8ff" d="M199.26,-863.1C205.56,-779.42 229.7,-514.2 286,-453.5 296.67,-442 311.37,-434.79 326.44,-430.3"/>
<polygon fill="#63b8ff" stroke="#63b8ff" points="195.76,-863.01 198.52,-873.24 202.74,-863.53 195.76,-863.01"/>
</a>
</g>
</g>
<!-- Node25 -->
<g id="Node000025" class="node">
<title>Node25</title>
<g id="a_Node000025"><a xlink:href="classhelios_1_1engine_1_1modules_1_1spatial_1_1transform_1_1systems_1_1TransformClearSystem.html" target="_top" xlink:title="System that clears the dirty state of TransformComponents and ScaleComponents at the end of a frame.">
<polygon fill="white" stroke="#666666" points="480.5,-385 305.5,-385 305.5,-344 480.5,-344 480.5,-385"/>
<text text-anchor="start" x="313.5" y="-373" font-family="Helvetica,sans-Serif" font-size="10.00">helios::engine::modules</text>
<text text-anchor="start" x="313.5" y="-362" font-family="Helvetica,sans-Serif" font-size="10.00">::spatial::transform::</text>
<text text-anchor="middle" x="393" y="-351" font-family="Helvetica,sans-Serif" font-size="10.00">systems::TransformClearSystem</text>
</a>
</g>
</g>
<!-- Node1&#45;&gt;Node25 -->
<g id="edge32_Node000001_Node000025" class="edge">
<title>Node1&#45;&gt;Node25</title>
<g id="a_edge32_Node000001_Node000025"><a xlink:title=" ">
<path fill="none" stroke="#63b8ff" d="M198.59,-863.02C202.99,-772.01 222.4,-464.7 286,-394.5 291.52,-388.41 298.18,-383.51 305.44,-379.59"/>
<polygon fill="#63b8ff" stroke="#63b8ff" points="195.08,-863.09 198.12,-873.25 202.08,-863.42 195.08,-863.09"/>
</a>
</g>
</g>
<!-- Node26 -->
<g id="Node000026" class="node">
<title>Node26</title>
<g id="a_Node000026"><a xlink:href="classhelios_1_1engine_1_1modules_1_1systems_1_1scene_1_1SceneSyncSystem.html" target="_top" xlink:title="System that synchronizes TransformComponents with SceneNodes.">
<polygon fill="white" stroke="#666666" points="490,-325.5 296,-325.5 296,-295.5 490,-295.5 490,-325.5"/>
<text text-anchor="start" x="304" y="-313.5" font-family="Helvetica,sans-Serif" font-size="10.00">helios::engine::modules</text>
<text text-anchor="middle" x="393" y="-302.5" font-family="Helvetica,sans-Serif" font-size="10.00">::systems::scene::SceneSyncSystem</text>
</a>
</g>
</g>
<!-- Node1&#45;&gt;Node26 -->
<g id="edge33_Node000001_Node000026" class="edge">
<title>Node1&#45;&gt;Node26</title>
<g id="a_edge33_Node000001_Node000026"><a xlink:title=" ">
<path fill="none" stroke="#63b8ff" d="M197.94,-863.12C200.19,-765.23 213.25,-413.75 286,-335.5 289.48,-331.76 293.4,-328.53 297.63,-325.75"/>
<polygon fill="#63b8ff" stroke="#63b8ff" points="194.44,-863.21 197.73,-873.28 201.44,-863.36 194.44,-863.21"/>
</a>
</g>
</g>
<!-- Node27 -->
<g id="Node000027" class="node">
<title>Node27</title>
<g id="a_Node000027"><a xlink:href="classhelios_1_1engine_1_1modules_1_1ui_1_1binding_1_1systems_1_1Score2UiTextUpdateSystem.html" target="_top" xlink:title="System for binding score values to UI text components.">
<polygon fill="white" stroke="#666666" points="472,-277 314,-277 314,-236 472,-236 472,-277"/>
<text text-anchor="start" x="322" y="-265" font-family="Helvetica,sans-Serif" font-size="10.00">helios::engine::modules</text>
<text text-anchor="start" x="322" y="-254" font-family="Helvetica,sans-Serif" font-size="10.00">::ui::binding::systems</text>
<text text-anchor="middle" x="393" y="-243" font-family="Helvetica,sans-Serif" font-size="10.00">::Score2UiTextUpdateSystem</text>
</a>
</g>
</g>
<!-- Node1&#45;&gt;Node27 -->
<g id="edge34_Node000001_Node000027" class="edge">
<title>Node1&#45;&gt;Node27</title>
<g id="a_edge34_Node000001_Node000027"><a xlink:title=" ">
<path fill="none" stroke="#63b8ff" d="M197.68,-863.34C198.95,-760.63 208.84,-374.39 286,-286.5 293.51,-277.95 303.25,-271.75 313.79,-267.28"/>
<polygon fill="#63b8ff" stroke="#63b8ff" points="194.18,-863.38 197.58,-873.41 201.18,-863.45 194.18,-863.38"/>
</a>
</g>
</g>
<!-- Node28 -->
<g id="Node000028" class="node">
<title>Node28</title>
<g id="a_Node000028"><a xlink:href="classhelios_1_1engine_1_1modules_1_1ui_1_1transform_1_1systems_1_1UiTransformSystem.html" target="_top" xlink:title="System for computing UI element screen positions.">
<polygon fill="white" stroke="#666666" points="459.5,-218 326.5,-218 326.5,-177 459.5,-177 459.5,-218"/>
<text text-anchor="start" x="334.5" y="-206" font-family="Helvetica,sans-Serif" font-size="10.00">helios::engine::modules</text>
<text text-anchor="start" x="334.5" y="-195" font-family="Helvetica,sans-Serif" font-size="10.00">::ui::transform::systems</text>
<text text-anchor="middle" x="393" y="-184" font-family="Helvetica,sans-Serif" font-size="10.00">::UiTransformSystem</text>
</a>
</g>
</g>
<!-- Node1&#45;&gt;Node28 -->
<g id="edge35_Node000001_Node000028" class="edge">
<title>Node1&#45;&gt;Node28</title>
<g id="a_edge35_Node000001_Node000028"><a xlink:title=" ">
<path fill="none" stroke="#63b8ff" d="M197.32,-863.37C197.05,-754.56 201.42,-325.1 286,-227.5 296.4,-215.5 311.19,-208.13 326.45,-203.65"/>
<polygon fill="#63b8ff" stroke="#63b8ff" points="193.82,-863.44 197.36,-873.42 200.82,-863.41 193.82,-863.44"/>
</a>
</g>
</g>
<!-- Node29 -->
<g id="Node000029" class="node">
<title>Node29</title>
<g id="a_Node000029"><a xlink:href="classhelios_1_1engine_1_1modules_1_1ui_1_1widgets_1_1systems_1_1MenuNavigationSystem.html" target="_top" xlink:title="Handles gamepad input for menu navigation.">
<polygon fill="white" stroke="#666666" points="463,-159 323,-159 323,-118 463,-118 463,-159"/>
<text text-anchor="start" x="331" y="-147" font-family="Helvetica,sans-Serif" font-size="10.00">helios::engine::modules</text>
<text text-anchor="start" x="331" y="-136" font-family="Helvetica,sans-Serif" font-size="10.00">::ui::widgets::systems</text>
<text text-anchor="middle" x="393" y="-125" font-family="Helvetica,sans-Serif" font-size="10.00">::MenuNavigationSystem</text>
</a>
</g>
</g>
<!-- Node1&#45;&gt;Node29 -->
<g id="edge36_Node000001_Node000029" class="edge">
<title>Node1&#45;&gt;Node29</title>
<g id="a_edge36_Node000001_Node000029"><a xlink:title=" ">
<path fill="none" stroke="#63b8ff" d="M197.01,-863.02C195.3,-747.71 194.09,-275.73 286,-168.5 295.52,-157.39 308.82,-150.24 322.78,-145.68"/>
<polygon fill="#63b8ff" stroke="#63b8ff" points="193.51,-863.38 197.18,-873.32 200.51,-863.27 193.51,-863.38"/>
</a>
</g>
</g>
<!-- Node30 -->
<g id="Node000030" class="node">
<title>Node30</title>
<g id="a_Node000030"><a xlink:href="classhelios_1_1engine_1_1modules_1_1ui_1_1widgets_1_1systems_1_1UiStyleUpdateSystem.html" target="_top" xlink:title="System for updating UI text element bounds.">
<polygon fill="white" stroke="#666666" points="459.5,-100 326.5,-100 326.5,-59 459.5,-59 459.5,-100"/>
<text text-anchor="start" x="334.5" y="-88" font-family="Helvetica,sans-Serif" font-size="10.00">helios::engine::modules</text>
<text text-anchor="start" x="334.5" y="-77" font-family="Helvetica,sans-Serif" font-size="10.00">::ui::widgets::systems</text>
<text text-anchor="middle" x="393" y="-66" font-family="Helvetica,sans-Serif" font-size="10.00">::UiStyleUpdateSystem</text>
</a>
</g>
</g>
<!-- Node1&#45;&gt;Node30 -->
<g id="edge37_Node000001_Node000030" class="edge">
<title>Node1&#45;&gt;Node30</title>
<g id="a_edge37_Node000001_Node000030"><a xlink:title=" ">
<path fill="none" stroke="#63b8ff" d="M198.73,-862.88C205.11,-734.85 236.02,-168.35 286,-109.5 296.28,-97.4 311.03,-89.99 326.28,-85.51"/>
<polygon fill="#63b8ff" stroke="#63b8ff" points="195.22,-863.08 198.22,-873.24 202.21,-863.43 195.22,-863.08"/>
</a>
</g>
</g>
<!-- Node31 -->
<g id="Node000031" class="node">
<title>Node31</title>
<g id="a_Node000031"><a xlink:href="classhelios_1_1engine_1_1modules_1_1ui_1_1widgets_1_1systems_1_1UiTextBoundsUpdateSystem.html" target="_top" xlink:title="System for updating UI text element bounds.">
<polygon fill="white" stroke="#666666" points="473.5,-41 312.5,-41 312.5,0 473.5,0 473.5,-41"/>
<text text-anchor="start" x="320.5" y="-29" font-family="Helvetica,sans-Serif" font-size="10.00">helios::engine::modules</text>
<text text-anchor="start" x="320.5" y="-18" font-family="Helvetica,sans-Serif" font-size="10.00">::ui::widgets::systems</text>
<text text-anchor="middle" x="393" y="-7" font-family="Helvetica,sans-Serif" font-size="10.00">::UiTextBoundsUpdateSystem</text>
</a>
</g>
</g>
<!-- Node1&#45;&gt;Node31 -->
<g id="edge38_Node000001_Node000031" class="edge">
<title>Node1&#45;&gt;Node31</title>
<g id="a_edge38_Node000001_Node000031"><a xlink:title=" ">
<path fill="none" stroke="#63b8ff" d="M198.49,-863.49C203.97,-730.95 232.2,-114.37 286,-50.5 293.09,-42.09 302.34,-35.94 312.42,-31.47"/>
<polygon fill="#63b8ff" stroke="#63b8ff" points="194.99,-863.36 198.08,-873.49 201.99,-863.64 194.99,-863.36"/>
</a>
</g>
</g>
</g>
</svg>
