<?xml version="1.0" encoding="UTF-8" standalone="no"?>
<!DOCTYPE svg PUBLIC "-//W3C//DTD SVG 1.1//EN"
 "http://www.w3.org/Graphics/SVG/1.1/DTD/svg11.dtd">
<!-- Generated by graphviz version 2.43.0 (0)
 -->
<!-- Title: Graphical Class Hierarchy Pages: 1 -->
<svg width="574pt" height="1310pt"
 viewBox="0.00 0.00 574.00 1310.00" xmlns="http://www.w3.org/2000/svg" xmlns:xlink="http://www.w3.org/1999/xlink">
<g id="graph0" class="graph" transform="scale(1 1) rotate(0) translate(4 1306)">
<title>Graphical Class Hierarchy</title>
<!-- Node0 -->
<g id="Node000000" class="node">
<title>Node0</title>
<g id="a_Node000000"><a xlink:href="classhelios_1_1engine_1_1game_1_1Component.html" target="_top" xlink:title="Abstract base class for components attached to GameObjects.">
<polygon fill="white" stroke="#666666" points="119,-478.5 0,-478.5 0,-448.5 119,-448.5 119,-478.5"/>
<text text-anchor="start" x="8" y="-466.5" font-family="Helvetica,sans-Serif" font-size="10.00">helios::engine::game</text>
<text text-anchor="middle" x="59.5" y="-455.5" font-family="Helvetica,sans-Serif" font-size="10.00">::Component</text>
</a>
</g>
</g>
<!-- Node1 -->
<g id="Node000001" class="node">
<title>Node1</title>
<g id="a_Node000001"><a xlink:href="classhelios_1_1engine_1_1game_1_1components_1_1gameplay_1_1Aim2DComponent.html" target="_top" xlink:title="Component for handling 2D aiming direction and fire frequency.">
<polygon fill="white" stroke="#666666" points="316,-277 179,-277 179,-236 316,-236 316,-277"/>
<text text-anchor="start" x="187" y="-265" font-family="Helvetica,sans-Serif" font-size="10.00">helios::engine::game</text>
<text text-anchor="start" x="187" y="-254" font-family="Helvetica,sans-Serif" font-size="10.00">::components::gameplay</text>
<text text-anchor="middle" x="247.5" y="-243" font-family="Helvetica,sans-Serif" font-size="10.00">::Aim2DComponent</text>
</a>
</g>
</g>
<!-- Node0&#45;&gt;Node1 -->
<g id="edge8_Node000000_Node000001" class="edge">
<title>Node0&#45;&gt;Node1</title>
<g id="a_edge8_Node000000_Node000001"><a xlink:title=" ">
<path fill="none" stroke="#63b8ff" d="M67.12,-438.5C78.58,-400.05 105.74,-326.55 155,-285.5 162.04,-279.63 170.28,-274.95 178.88,-271.21"/>
<polygon fill="#63b8ff" stroke="#63b8ff" points="63.69,-437.79 64.3,-448.36 70.42,-439.71 63.69,-437.79"/>
</a>
</g>
</g>
<!-- Node2 -->
<g id="Node000002" class="node">
<title>Node2</title>
<g id="a_Node000002"><a xlink:href="classhelios_1_1engine_1_1game_1_1components_1_1gameplay_1_1ShootComponent.html" target="_top" xlink:title="Component for handling projectile shooting with rate limiting.">
<polygon fill="white" stroke="#666666" points="316,-867 179,-867 179,-826 316,-826 316,-867"/>
<text text-anchor="start" x="187" y="-855" font-family="Helvetica,sans-Serif" font-size="10.00">helios::engine::game</text>
<text text-anchor="start" x="187" y="-844" font-family="Helvetica,sans-Serif" font-size="10.00">::components::gameplay</text>
<text text-anchor="middle" x="247.5" y="-833" font-family="Helvetica,sans-Serif" font-size="10.00">::ShootComponent</text>
</a>
</g>
</g>
<!-- Node0&#45;&gt;Node2 -->
<g id="edge9_Node000000_Node000002" class="edge">
<title>Node0&#45;&gt;Node2</title>
<g id="a_edge9_Node000000_Node000002"><a xlink:title=" ">
<path fill="none" stroke="#63b8ff" d="M64.06,-488.79C74.76,-561.52 108.83,-769.15 155,-817.5 161.68,-824.49 170.02,-829.8 178.94,-833.84"/>
<polygon fill="#63b8ff" stroke="#63b8ff" points="67.49,-488.09 62.59,-478.69 60.56,-489.09 67.49,-488.09"/>
</a>
</g>
</g>
<!-- Node17 -->
<g id="Node000017" class="node">
<title>Node17</title>
<g id="a_Node000017"><a xlink:href="classhelios_1_1engine_1_1game_1_1components_1_1input_1_1TwinStickInputComponent.html" target="_top" xlink:title="Input component for twin&#45;stick gamepad control schemes.">
<polygon fill="white" stroke="#666666" points="319,-926 176,-926 176,-885 319,-885 319,-926"/>
<text text-anchor="start" x="184" y="-914" font-family="Helvetica,sans-Serif" font-size="10.00">helios::engine::game</text>
<text text-anchor="start" x="184" y="-903" font-family="Helvetica,sans-Serif" font-size="10.00">::components::input::</text>
<text text-anchor="middle" x="247.5" y="-892" font-family="Helvetica,sans-Serif" font-size="10.00">TwinStickInputComponent</text>
</a>
</g>
</g>
<!-- Node0&#45;&gt;Node17 -->
<g id="edge10_Node000000_Node000017" class="edge">
<title>Node0&#45;&gt;Node17</title>
<g id="a_edge10_Node000000_Node000017"><a xlink:title=" ">
<path fill="none" stroke="#63b8ff" d="M63.05,-489.14C71.62,-570.16 101.81,-818.76 155,-876.5 160.87,-882.87 168.13,-887.85 175.98,-891.74"/>
<polygon fill="#63b8ff" stroke="#63b8ff" points="66.5,-488.44 61.99,-478.86 59.54,-489.16 66.5,-488.44"/>
</a>
</g>
</g>
<!-- Node18 -->
<g id="Node000018" class="node">
<title>Node18</title>
<g id="a_Node000018"><a xlink:href="classhelios_1_1engine_1_1game_1_1components_1_1model_1_1ModelAabbComponent.html" target="_top" xlink:title="Component that stores the canonical Axis&#45;Aligned Bounding Box (AABB) of a model.">
<polygon fill="white" stroke="#666666" points="311.5,-218 183.5,-218 183.5,-177 311.5,-177 311.5,-218"/>
<text text-anchor="start" x="191.5" y="-206" font-family="Helvetica,sans-Serif" font-size="10.00">helios::engine::game</text>
<text text-anchor="start" x="191.5" y="-195" font-family="Helvetica,sans-Serif" font-size="10.00">::components::model::</text>
<text text-anchor="middle" x="247.5" y="-184" font-family="Helvetica,sans-Serif" font-size="10.00">ModelAabbComponent</text>
</a>
</g>
</g>
<!-- Node0&#45;&gt;Node18 -->
<g id="edge11_Node000000_Node000018" class="edge">
<title>Node0&#45;&gt;Node18</title>
<g id="a_edge11_Node000000_Node000018"><a xlink:title=" ">
<path fill="none" stroke="#63b8ff" d="M63.48,-438.06C70.48,-389.83 92.41,-284.71 155,-226.5 163.05,-219.01 173.04,-213.45 183.42,-209.33"/>
<polygon fill="#63b8ff" stroke="#63b8ff" points="59.98,-437.87 62.11,-448.25 66.91,-438.81 59.98,-437.87"/>
</a>
</g>
</g>
<!-- Node19 -->
<g id="Node000019" class="node">
<title>Node19</title>
<g id="a_Node000019"><a xlink:href="classhelios_1_1engine_1_1game_1_1components_1_1physics_1_1AabbColliderComponent.html" target="_top" xlink:title="Component that defines an Axis&#45;Aligned Bounding Box (AABB) for physics interactions.">
<polygon fill="white" stroke="#666666" points="318,-159 177,-159 177,-118 318,-118 318,-159"/>
<text text-anchor="start" x="185" y="-147" font-family="Helvetica,sans-Serif" font-size="10.00">helios::engine::game</text>
<text text-anchor="start" x="185" y="-136" font-family="Helvetica,sans-Serif" font-size="10.00">::components::physics</text>
<text text-anchor="middle" x="247.5" y="-125" font-family="Helvetica,sans-Serif" font-size="10.00">::AabbColliderComponent</text>
</a>
</g>
</g>
<!-- Node0&#45;&gt;Node19 -->
<g id="edge12_Node000000_Node000019" class="edge">
<title>Node0&#45;&gt;Node19</title>
<g id="a_edge12_Node000000_Node000019"><a xlink:title=" ">
<path fill="none" stroke="#63b8ff" d="M61.12,-438.28C63.89,-381.72 78.57,-243.77 155,-167.5 161.25,-161.26 168.84,-156.36 176.93,-152.52"/>
<polygon fill="#63b8ff" stroke="#63b8ff" points="57.61,-438.33 60.71,-448.46 64.61,-438.61 57.61,-438.33"/>
</a>
</g>
</g>
<!-- Node20 -->
<g id="Node000020" class="node">
<title>Node20</title>
<g id="a_Node000020"><a xlink:href="classhelios_1_1engine_1_1game_1_1components_1_1physics_1_1DirectionComponent.html" target="_top" xlink:title="Component that holds a normalized direction vector.">
<polygon fill="white" stroke="#666666" points="310,-100 185,-100 185,-59 310,-59 310,-100"/>
<text text-anchor="start" x="193" y="-88" font-family="Helvetica,sans-Serif" font-size="10.00">helios::engine::game</text>
<text text-anchor="start" x="193" y="-77" font-family="Helvetica,sans-Serif" font-size="10.00">::components::physics</text>
<text text-anchor="middle" x="247.5" y="-66" font-family="Helvetica,sans-Serif" font-size="10.00">::DirectionComponent</text>
</a>
</g>
</g>
<!-- Node0&#45;&gt;Node20 -->
<g id="edge13_Node000000_Node000020" class="edge">
<title>Node0&#45;&gt;Node20</title>
<g id="a_edge13_Node000000_Node000020"><a xlink:title=" ">
<path fill="none" stroke="#63b8ff" d="M64.05,-438.14C74.73,-365.21 108.72,-157 155,-108.5 163.05,-100.06 173.54,-94.07 184.54,-89.82"/>
<polygon fill="#63b8ff" stroke="#63b8ff" points="60.55,-437.87 62.59,-448.27 67.48,-438.87 60.55,-437.87"/>
</a>
</g>
</g>
<!-- Node21 -->
<g id="Node000021" class="node">
<title>Node21</title>
<g id="a_Node000021"><a xlink:href="classhelios_1_1engine_1_1game_1_1components_1_1physics_1_1HeadingComponent.html" target="_top" xlink:title="Component that manages the heading (orientation) of an entity.">
<polygon fill="white" stroke="#666666" points="310,-41 185,-41 185,0 310,0 310,-41"/>
<text text-anchor="start" x="193" y="-29" font-family="Helvetica,sans-Serif" font-size="10.00">helios::engine::game</text>
<text text-anchor="start" x="193" y="-18" font-family="Helvetica,sans-Serif" font-size="10.00">::components::physics</text>
<text text-anchor="middle" x="247.5" y="-7" font-family="Helvetica,sans-Serif" font-size="10.00">::HeadingComponent</text>
</a>
</g>
</g>
<!-- Node0&#45;&gt;Node21 -->
<g id="edge14_Node000000_Node000021" class="edge">
<title>Node0&#45;&gt;Node21</title>
<g id="a_edge14_Node000000_Node000021"><a xlink:title=" ">
<path fill="none" stroke="#63b8ff" d="M63.05,-437.8C71.58,-356.58 101.7,-107.39 155,-49.5 163.01,-40.8 173.62,-34.69 184.77,-30.41"/>
<polygon fill="#63b8ff" stroke="#63b8ff" points="59.53,-437.8 61.98,-448.11 66.49,-438.52 59.53,-437.8"/>
</a>
</g>
</g>
<!-- Node22 -->
<g id="Node000022" class="node">
<title>Node22</title>
<g id="a_Node000022"><a xlink:href="classhelios_1_1engine_1_1game_1_1components_1_1physics_1_1LevelBoundsBehaviorComponent.html" target="_top" xlink:title="Component that defines how an entity reacts to level boundaries.">
<polygon fill="white" stroke="#666666" points="340,-808 155,-808 155,-767 340,-767 340,-808"/>
<text text-anchor="start" x="163" y="-796" font-family="Helvetica,sans-Serif" font-size="10.00">helios::engine::game</text>
<text text-anchor="start" x="163" y="-785" font-family="Helvetica,sans-Serif" font-size="10.00">::components::physics</text>
<text text-anchor="middle" x="247.5" y="-774" font-family="Helvetica,sans-Serif" font-size="10.00">::LevelBoundsBehaviorComponent</text>
</a>
</g>
</g>
<!-- Node0&#45;&gt;Node22 -->
<g id="edge15_Node000000_Node000022" class="edge">
<title>Node0&#45;&gt;Node22</title>
<g id="a_edge15_Node000000_Node000022"><a xlink:title=" ">
<path fill="none" stroke="#63b8ff" d="M61.17,-489.04C64.04,-545.65 78.95,-682.68 155,-758.5 158.07,-761.56 161.46,-764.3 165.07,-766.74"/>
<polygon fill="#63b8ff" stroke="#63b8ff" points="64.65,-488.67 60.74,-478.83 57.66,-488.97 64.65,-488.67"/>
</a>
</g>
</g>
<!-- Node23 -->
<g id="Node000023" class="node">
<title>Node23</title>
<g id="a_Node000023"><a xlink:href="classhelios_1_1engine_1_1game_1_1components_1_1physics_1_1Move2DComponent.html" target="_top" xlink:title="Component for 2D physics&#45;based movement.">
<polygon fill="white" stroke="#666666" points="310,-749 185,-749 185,-708 310,-708 310,-749"/>
<text text-anchor="start" x="193" y="-737" font-family="Helvetica,sans-Serif" font-size="10.00">helios::engine::game</text>
<text text-anchor="start" x="193" y="-726" font-family="Helvetica,sans-Serif" font-size="10.00">::components::physics</text>
<text text-anchor="middle" x="247.5" y="-715" font-family="Helvetica,sans-Serif" font-size="10.00">::Move2DComponent</text>
</a>
</g>
</g>
<!-- Node0&#45;&gt;Node23 -->
<g id="edge16_Node000000_Node000023" class="edge">
<title>Node0&#45;&gt;Node23</title>
<g id="a_edge16_Node000000_Node000023"><a xlink:title=" ">
<path fill="none" stroke="#63b8ff" d="M63.6,-488.67C70.81,-536.41 93.07,-640.5 155,-698.5 163.42,-706.38 173.95,-712.2 184.84,-716.49"/>
<polygon fill="#63b8ff" stroke="#63b8ff" points="67.04,-488.01 62.18,-478.59 60.11,-488.98 67.04,-488.01"/>
</a>
</g>
</g>
<!-- Node24 -->
<g id="Node000024" class="node">
<title>Node24</title>
<g id="a_Node000024"><a xlink:href="classhelios_1_1engine_1_1game_1_1components_1_1physics_1_1RotationStateComponent.html" target="_top" xlink:title="Component that manages composite rotation from heading and spin rotations.">
<polygon fill="white" stroke="#666666" points="320.5,-690 174.5,-690 174.5,-649 320.5,-649 320.5,-690"/>
<text text-anchor="start" x="182.5" y="-678" font-family="Helvetica,sans-Serif" font-size="10.00">helios::engine::game</text>
<text text-anchor="start" x="182.5" y="-667" font-family="Helvetica,sans-Serif" font-size="10.00">::components::physics</text>
<text text-anchor="middle" x="247.5" y="-656" font-family="Helvetica,sans-Serif" font-size="10.00">::RotationStateComponent</text>
</a>
</g>
</g>
<!-- Node0&#45;&gt;Node24 -->
<g id="edge17_Node000000_Node000024" class="edge">
<title>Node0&#45;&gt;Node24</title>
<g id="a_edge17_Node000000_Node000024"><a xlink:title=" ">
<path fill="none" stroke="#63b8ff" d="M67.34,-488.45C79.02,-526.47 106.4,-598.78 155,-639.5 160.77,-644.33 167.33,-648.39 174.24,-651.8"/>
<polygon fill="#63b8ff" stroke="#63b8ff" points="70.65,-487.28 64.46,-478.69 63.93,-489.27 70.65,-487.28"/>
</a>
</g>
</g>
<!-- Node25 -->
<g id="Node000025" class="node">
<title>Node25</title>
<g id="a_Node000025"><a xlink:href="classhelios_1_1engine_1_1game_1_1components_1_1physics_1_1ScaleComponent.html" target="_top" xlink:title="Component that defines the physical dimensions (scale) of an entity.">
<polygon fill="white" stroke="#666666" points="310,-631 185,-631 185,-590 310,-590 310,-631"/>
<text text-anchor="start" x="193" y="-619" font-family="Helvetica,sans-Serif" font-size="10.00">helios::engine::game</text>
<text text-anchor="start" x="193" y="-608" font-family="Helvetica,sans-Serif" font-size="10.00">::components::physics</text>
<text text-anchor="middle" x="247.5" y="-597" font-family="Helvetica,sans-Serif" font-size="10.00">::ScaleComponent</text>
</a>
</g>
</g>
<!-- Node0&#45;&gt;Node25 -->
<g id="edge18_Node000000_Node000025" class="edge">
<title>Node0&#45;&gt;Node25</title>
<g id="a_edge18_Node000000_Node000025"><a xlink:title=" ">
<path fill="none" stroke="#63b8ff" d="M73.99,-487.4C90.05,-513.8 119.25,-555.82 155,-580.5 163.94,-586.67 174.24,-591.64 184.64,-595.63"/>
<polygon fill="#63b8ff" stroke="#63b8ff" points="76.98,-485.59 68.87,-478.77 70.96,-489.16 76.98,-485.59"/>
</a>
</g>
</g>
<!-- Node26 -->
<g id="Node000026" class="node">
<title>Node26</title>
<g id="a_Node000026"><a xlink:href="classhelios_1_1engine_1_1game_1_1components_1_1physics_1_1SpinComponent.html" target="_top" xlink:title="Component that defines spin properties for an entity.">
<polygon fill="white" stroke="#666666" points="310,-572 185,-572 185,-531 310,-531 310,-572"/>
<text text-anchor="start" x="193" y="-560" font-family="Helvetica,sans-Serif" font-size="10.00">helios::engine::game</text>
<text text-anchor="start" x="193" y="-549" font-family="Helvetica,sans-Serif" font-size="10.00">::components::physics</text>
<text text-anchor="middle" x="247.5" y="-538" font-family="Helvetica,sans-Serif" font-size="10.00">::SpinComponent</text>
</a>
</g>
</g>
<!-- Node0&#45;&gt;Node26 -->
<g id="edge19_Node000000_Node000026" class="edge">
<title>Node0&#45;&gt;Node26</title>
<g id="a_edge19_Node000000_Node000026"><a xlink:title=" ">
<path fill="none" stroke="#63b8ff" d="M90.24,-484.24C108.36,-496.25 132.33,-511 155,-521.5 164.41,-525.86 174.62,-529.86 184.71,-533.43"/>
<polygon fill="#63b8ff" stroke="#63b8ff" points="92.09,-481.27 81.84,-478.6 88.19,-487.08 92.09,-481.27"/>
</a>
</g>
</g>
<!-- Node27 -->
<g id="Node000027" class="node">
<title>Node27</title>
<g id="a_Node000027"><a xlink:href="classhelios_1_1engine_1_1game_1_1components_1_1physics_1_1TransformComponent.html" target="_top" xlink:title="Component that holds transformation data (position, rotation, scale).">
<polygon fill="white" stroke="#666666" points="311.5,-513 183.5,-513 183.5,-472 311.5,-472 311.5,-513"/>
<text text-anchor="start" x="191.5" y="-501" font-family="Helvetica,sans-Serif" font-size="10.00">helios::engine::game</text>
<text text-anchor="start" x="191.5" y="-490" font-family="Helvetica,sans-Serif" font-size="10.00">::components::physics</text>
<text text-anchor="middle" x="247.5" y="-479" font-family="Helvetica,sans-Serif" font-size="10.00">::TransformComponent</text>
</a>
</g>
</g>
<!-- Node0&#45;&gt;Node27 -->
<g id="edge20_Node000000_Node000027" class="edge">
<title>Node0&#45;&gt;Node27</title>
<g id="a_edge20_Node000000_Node000027"><a xlink:title=" ">
<path fill="none" stroke="#63b8ff" d="M129.35,-474.23C147.04,-476.99 165.98,-479.95 183.37,-482.66"/>
<polygon fill="#63b8ff" stroke="#63b8ff" points="129.52,-470.72 119.1,-472.64 128.44,-477.63 129.52,-470.72"/>
</a>
</g>
</g>
<!-- Node28 -->
<g id="Node000028" class="node">
<title>Node28</title>
<g id="a_Node000028"><a xlink:href="classhelios_1_1engine_1_1game_1_1components_1_1physics_1_1TranslationStateComponent.html" target="_top" xlink:title="Component that holds the current translation (position) state.">
<polygon fill="white" stroke="#666666" points="326.5,-454 168.5,-454 168.5,-413 326.5,-413 326.5,-454"/>
<text text-anchor="start" x="176.5" y="-442" font-family="Helvetica,sans-Serif" font-size="10.00">helios::engine::game</text>
<text text-anchor="start" x="176.5" y="-431" font-family="Helvetica,sans-Serif" font-size="10.00">::components::physics</text>
<text text-anchor="middle" x="247.5" y="-420" font-family="Helvetica,sans-Serif" font-size="10.00">::TranslationStateComponent</text>
</a>
</g>
</g>
<!-- Node0&#45;&gt;Node28 -->
<g id="edge21_Node000000_Node000028" class="edge">
<title>Node0&#45;&gt;Node28</title>
<g id="a_edge21_Node000000_Node000028"><a xlink:title=" ">
<path fill="none" stroke="#63b8ff" d="M129.18,-452.42C141.96,-450.36 155.4,-448.19 168.44,-446.09"/>
<polygon fill="#63b8ff" stroke="#63b8ff" points="128.41,-449 119.1,-454.05 129.53,-455.91 128.41,-449"/>
</a>
</g>
</g>
<!-- Node29 -->
<g id="Node000029" class="node">
<title>Node29</title>
<g id="a_Node000029"><a xlink:href="classhelios_1_1engine_1_1game_1_1components_1_1rendering_1_1RenderableComponent.html" target="_top" xlink:title="Component that holds a shared pointer to a Renderable resource.">
<polygon fill="white" stroke="#666666" points="315,-395 180,-395 180,-354 315,-354 315,-395"/>
<text text-anchor="start" x="188" y="-383" font-family="Helvetica,sans-Serif" font-size="10.00">helios::engine::game</text>
<text text-anchor="start" x="188" y="-372" font-family="Helvetica,sans-Serif" font-size="10.00">::components::rendering</text>
<text text-anchor="middle" x="247.5" y="-361" font-family="Helvetica,sans-Serif" font-size="10.00">::RenderableComponent</text>
</a>
</g>
</g>
<!-- Node0&#45;&gt;Node29 -->
<g id="edge22_Node000000_Node000029" class="edge">
<title>Node0&#45;&gt;Node29</title>
<g id="a_edge22_Node000000_Node000029"><a xlink:title=" ">
<path fill="none" stroke="#63b8ff" d="M89.38,-442.39C107.54,-429.83 131.84,-414.3 155,-403.5 162.85,-399.84 171.29,-396.47 179.75,-393.42"/>
<polygon fill="#63b8ff" stroke="#63b8ff" points="87.17,-439.67 81,-448.28 91.19,-445.4 87.17,-439.67"/>
</a>
</g>
</g>
<!-- Node30 -->
<g id="Node000030" class="node">
<title>Node30</title>
<g id="a_Node000030"><a xlink:href="classhelios_1_1engine_1_1game_1_1components_1_1scene_1_1SceneNodeComponent.html" target="_top" xlink:title="Component that links a GameObject to a SceneNode in the scene graph.">
<polygon fill="white" stroke="#666666" points="311.5,-336 183.5,-336 183.5,-295 311.5,-295 311.5,-336"/>
<text text-anchor="start" x="191.5" y="-324" font-family="Helvetica,sans-Serif" font-size="10.00">helios::engine::game</text>
<text text-anchor="start" x="191.5" y="-313" font-family="Helvetica,sans-Serif" font-size="10.00">::components::scene::</text>
<text text-anchor="middle" x="247.5" y="-302" font-family="Helvetica,sans-Serif" font-size="10.00">SceneNodeComponent</text>
</a>
</g>
</g>
<!-- Node0&#45;&gt;Node30 -->
<g id="edge23_Node000000_Node000030" class="edge">
<title>Node0&#45;&gt;Node30</title>
<g id="a_edge23_Node000000_Node000030"><a xlink:title=" ">
<path fill="none" stroke="#63b8ff" d="M73.59,-439.55C89.46,-412.66 118.66,-369.54 155,-344.5 163.51,-338.64 173.26,-333.91 183.16,-330.12"/>
<polygon fill="#63b8ff" stroke="#63b8ff" points="70.49,-437.91 68.54,-448.33 76.56,-441.4 70.49,-437.91"/>
</a>
</g>
</g>
<!-- Node3 -->
<g id="Node000003" class="node">
<title>Node3</title>
<g id="a_Node000003"><a xlink:href="classhelios_1_1engine_1_1game_1_1Updatable.html" target="_top" xlink:title="Interface for components that require per&#45;frame updates.">
<polygon fill="white" stroke="#666666" points="119,-920.5 0,-920.5 0,-890.5 119,-890.5 119,-920.5"/>
<text text-anchor="start" x="8" y="-908.5" font-family="Helvetica,sans-Serif" font-size="10.00">helios::engine::game</text>
<text text-anchor="middle" x="59.5" y="-897.5" font-family="Helvetica,sans-Serif" font-size="10.00">::Updatable</text>
</a>
</g>
</g>
<!-- Node3&#45;&gt;Node2 -->
<g id="edge37_Node000003_Node000002" class="edge">
<title>Node3&#45;&gt;Node2</title>
<g id="a_edge37_Node000003_Node000002"><a xlink:title=" ">
<path fill="none" stroke="#63b8ff" d="M117.62,-887.38C137.86,-880.96 160.78,-873.69 181.63,-867.08"/>
<polygon fill="#63b8ff" stroke="#63b8ff" points="116.39,-884.1 107.92,-890.46 118.51,-890.77 116.39,-884.1"/>
</a>
</g>
</g>
<!-- Node3&#45;&gt;Node17 -->
<g id="edge38_Node000003_Node000017" class="edge">
<title>Node3&#45;&gt;Node17</title>
<g id="a_edge38_Node000003_Node000017"><a xlink:title=" ">
<path fill="none" stroke="#63b8ff" d="M129.41,-905.5C144.55,-905.5 160.6,-905.5 175.8,-905.5"/>
<polygon fill="#63b8ff" stroke="#63b8ff" points="129.1,-902 119.1,-905.5 129.1,-909 129.1,-902"/>
</a>
</g>
</g>
<!-- Node4 -->
<g id="Node000004" class="node">
<title>Node4</title>
<g id="a_Node000004"><a xlink:href="classhelios_1_1engine_1_1game_1_1System.html" target="_top" xlink:title="Abstract base class for game systems.">
<polygon fill="white" stroke="#666666" points="307,-974.5 188,-974.5 188,-944.5 307,-944.5 307,-974.5"/>
<text text-anchor="start" x="196" y="-962.5" font-family="Helvetica,sans-Serif" font-size="10.00">helios::engine::game</text>
<text text-anchor="middle" x="247.5" y="-951.5" font-family="Helvetica,sans-Serif" font-size="10.00">::System</text>
</a>
</g>
</g>
<!-- Node3&#45;&gt;Node4 -->
<g id="edge24_Node000003_Node000004" class="edge">
<title>Node3&#45;&gt;Node4</title>
<g id="a_edge24_Node000003_Node000004"><a xlink:title=" ">
<path fill="none" stroke="#63b8ff" d="M116.07,-923.66C128.82,-927.68 142.35,-931.84 155,-935.5 165.57,-938.56 176.87,-941.66 187.8,-944.58"/>
<polygon fill="#63b8ff" stroke="#63b8ff" points="117.09,-920.31 106.5,-920.62 114.97,-926.98 117.09,-920.31"/>
</a>
</g>
</g>
<!-- Node5 -->
<g id="Node000005" class="node">
<title>Node5</title>
<g id="a_Node000005"><a xlink:href="classhelios_1_1engine_1_1game_1_1systems_1_1gameplay_1_1GameObjectSpawnSystem.html" target="_top" xlink:title="System responsible for spawning GameObjects into the level.">
<polygon fill="white" stroke="#666666" points="544,-1302 398,-1302 398,-1261 544,-1261 544,-1302"/>
<text text-anchor="start" x="406" y="-1290" font-family="Helvetica,sans-Serif" font-size="10.00">helios::engine::game</text>
<text text-anchor="start" x="406" y="-1279" font-family="Helvetica,sans-Serif" font-size="10.00">::systems::gameplay::</text>
<text text-anchor="middle" x="471" y="-1268" font-family="Helvetica,sans-Serif" font-size="10.00">GameObjectSpawnSystem</text>
</a>
</g>
</g>
<!-- Node4&#45;&gt;Node5 -->
<g id="edge25_Node000004_Node000005" class="edge">
<title>Node4&#45;&gt;Node5</title>
<g id="a_edge25_Node000004_Node000005"><a xlink:title=" ">
<path fill="none" stroke="#63b8ff" d="M252.24,-984.68C261.95,-1041.09 293.24,-1178.47 376,-1252.5 382.36,-1258.19 389.83,-1262.77 397.72,-1266.45"/>
<polygon fill="#63b8ff" stroke="#63b8ff" points="255.65,-983.82 250.58,-974.52 248.74,-984.95 255.65,-983.82"/>
</a>
</g>
</g>
<!-- Node6 -->
<g id="Node000006" class="node">
<title>Node6</title>
<g id="a_Node000006"><a xlink:href="classhelios_1_1engine_1_1game_1_1systems_1_1gameplay_1_1ProjectilePoolSystem.html" target="_top" xlink:title="Object pool system for efficient projectile spawning and lifecycle management.">
<polygon fill="white" stroke="#666666" points="533,-1243 409,-1243 409,-1202 533,-1202 533,-1243"/>
<text text-anchor="start" x="417" y="-1231" font-family="Helvetica,sans-Serif" font-size="10.00">helios::engine::game</text>
<text text-anchor="start" x="417" y="-1220" font-family="Helvetica,sans-Serif" font-size="10.00">::systems::gameplay::</text>
<text text-anchor="middle" x="471" y="-1209" font-family="Helvetica,sans-Serif" font-size="10.00">ProjectilePoolSystem</text>
</a>
</g>
</g>
<!-- Node4&#45;&gt;Node6 -->
<g id="edge26_Node000004_Node000006" class="edge">
<title>Node4&#45;&gt;Node6</title>
<g id="a_edge26_Node000004_Node000006"><a xlink:title=" ">
<path fill="none" stroke="#63b8ff" d="M255.22,-984.49C269.37,-1032.27 306.75,-1136.86 376,-1193.5 385.52,-1201.29 397.12,-1206.99 408.88,-1211.16"/>
<polygon fill="#63b8ff" stroke="#63b8ff" points="258.53,-983.32 252.41,-974.67 251.8,-985.25 258.53,-983.32"/>
</a>
</g>
</g>
<!-- Node7 -->
<g id="Node000007" class="node">
<title>Node7</title>
<g id="a_Node000007"><a xlink:href="classhelios_1_1engine_1_1game_1_1systems_1_1physics_1_1BoundsUpdateSystem.html" target="_top" xlink:title="System that updates AABB colliders based on entity transforms.">
<polygon fill="white" stroke="#666666" points="563,-1184 379,-1184 379,-1143 563,-1143 563,-1184"/>
<text text-anchor="start" x="387" y="-1172" font-family="Helvetica,sans-Serif" font-size="10.00">helios::engine::game</text>
<text text-anchor="start" x="387" y="-1161" font-family="Helvetica,sans-Serif" font-size="10.00">::systems::physics::BoundsUpdate</text>
<text text-anchor="middle" x="471" y="-1150" font-family="Helvetica,sans-Serif" font-size="10.00">System</text>
</a>
</g>
</g>
<!-- Node4&#45;&gt;Node7 -->
<g id="edge27_Node000004_Node000007" class="edge">
<title>Node4&#45;&gt;Node7</title>
<g id="a_edge27_Node000004_Node000007"><a xlink:title=" ">
<path fill="none" stroke="#63b8ff" d="M259.85,-983.95C278.66,-1021.8 319.84,-1094.39 376,-1134.5 380.31,-1137.58 384.95,-1140.33 389.79,-1142.8"/>
<polygon fill="#63b8ff" stroke="#63b8ff" points="262.87,-982.15 255.35,-974.69 256.57,-985.21 262.87,-982.15"/>
</a>
</g>
</g>
<!-- Node8 -->
<g id="Node000008" class="node">
<title>Node8</title>
<g id="a_Node000008"><a xlink:href="classhelios_1_1engine_1_1game_1_1systems_1_1physics_1_1ComposeTransformSystem.html" target="_top" xlink:title="System that composes the final TransformComponent from state components.">
<polygon fill="white" stroke="#666666" points="550,-1125 392,-1125 392,-1084 550,-1084 550,-1125"/>
<text text-anchor="start" x="400" y="-1113" font-family="Helvetica,sans-Serif" font-size="10.00">helios::engine::game</text>
<text text-anchor="start" x="400" y="-1102" font-family="Helvetica,sans-Serif" font-size="10.00">::systems::physics::Compose</text>
<text text-anchor="middle" x="471" y="-1091" font-family="Helvetica,sans-Serif" font-size="10.00">TransformSystem</text>
</a>
</g>
</g>
<!-- Node4&#45;&gt;Node8 -->
<g id="edge28_Node000004_Node000008" class="edge">
<title>Node4&#45;&gt;Node8</title>
<g id="a_edge28_Node000004_Node000008"><a xlink:title=" ">
<path fill="none" stroke="#63b8ff" d="M267.93,-982.44C291.15,-1008.49 332.38,-1050.6 376,-1075.5 381.34,-1078.55 387.04,-1081.31 392.88,-1083.81"/>
<polygon fill="#63b8ff" stroke="#63b8ff" points="270.27,-979.8 261.04,-974.59 265.01,-984.41 270.27,-979.8"/>
</a>
</g>
</g>
<!-- Node9 -->
<g id="Node000009" class="node">
<title>Node9</title>
<g id="a_Node000009"><a xlink:href="classhelios_1_1engine_1_1game_1_1systems_1_1physics_1_1HeadingSystem.html" target="_top" xlink:title="System that processes heading and rotation physics.">
<polygon fill="white" stroke="#666666" points="547.5,-1066 394.5,-1066 394.5,-1025 547.5,-1025 547.5,-1066"/>
<text text-anchor="start" x="402.5" y="-1054" font-family="Helvetica,sans-Serif" font-size="10.00">helios::engine::game</text>
<text text-anchor="start" x="402.5" y="-1043" font-family="Helvetica,sans-Serif" font-size="10.00">::systems::physics::Heading</text>
<text text-anchor="middle" x="471" y="-1032" font-family="Helvetica,sans-Serif" font-size="10.00">System</text>
</a>
</g>
</g>
<!-- Node4&#45;&gt;Node9 -->
<g id="edge29_Node000004_Node000009" class="edge">
<title>Node4&#45;&gt;Node9</title>
<g id="a_edge29_Node000004_Node000009"><a xlink:title=" ">
<path fill="none" stroke="#63b8ff" d="M288.36,-978.82C313.24,-990.5 346.12,-1005.26 376,-1016.5 383.75,-1019.42 391.94,-1022.27 400.12,-1024.98"/>
<polygon fill="#63b8ff" stroke="#63b8ff" points="289.77,-975.62 279.24,-974.51 286.78,-981.94 289.77,-975.62"/>
</a>
</g>
</g>
<!-- Node10 -->
<g id="Node000010" class="node">
<title>Node10</title>
<g id="a_Node000010"><a xlink:href="classhelios_1_1engine_1_1game_1_1systems_1_1physics_1_1LevelBoundsBehaviorSystem.html" target="_top" xlink:title="System that handles entity behavior when colliding with level boundaries.">
<polygon fill="white" stroke="#666666" points="558.5,-1007 383.5,-1007 383.5,-966 558.5,-966 558.5,-1007"/>
<text text-anchor="start" x="391.5" y="-995" font-family="Helvetica,sans-Serif" font-size="10.00">helios::engine::game</text>
<text text-anchor="start" x="391.5" y="-984" font-family="Helvetica,sans-Serif" font-size="10.00">::systems::physics::LevelBounds</text>
<text text-anchor="middle" x="471" y="-973" font-family="Helvetica,sans-Serif" font-size="10.00">BehaviorSystem</text>
</a>
</g>
</g>
<!-- Node4&#45;&gt;Node10 -->
<g id="edge30_Node000004_Node000010" class="edge">
<title>Node4&#45;&gt;Node10</title>
<g id="a_edge30_Node000004_Node000010"><a xlink:title=" ">
<path fill="none" stroke="#63b8ff" d="M317.34,-967.89C338.25,-970.44 361.49,-973.27 383.41,-975.95"/>
<polygon fill="#63b8ff" stroke="#63b8ff" points="317.63,-964.4 307.28,-966.66 316.78,-971.35 317.63,-964.4"/>
</a>
</g>
</g>
<!-- Node11 -->
<g id="Node000011" class="node">
<title>Node11</title>
<g id="a_Node000011"><a xlink:href="classhelios_1_1engine_1_1game_1_1systems_1_1physics_1_1Move2DSystem.html" target="_top" xlink:title="System that processes 2D movement for entities.">
<polygon fill="white" stroke="#666666" points="566,-947.5 376,-947.5 376,-917.5 566,-917.5 566,-947.5"/>
<text text-anchor="start" x="384" y="-935.5" font-family="Helvetica,sans-Serif" font-size="10.00">helios::engine::game</text>
<text text-anchor="middle" x="471" y="-924.5" font-family="Helvetica,sans-Serif" font-size="10.00">::systems::physics::Move2DSystem</text>
</a>
</g>
</g>
<!-- Node4&#45;&gt;Node11 -->
<g id="edge31_Node000004_Node000011" class="edge">
<title>Node4&#45;&gt;Node11</title>
<g id="a_edge31_Node000004_Node000011"><a xlink:title=" ">
<path fill="none" stroke="#63b8ff" d="M317.35,-951.11C335.85,-948.85 356.18,-946.37 375.8,-943.98"/>
<polygon fill="#63b8ff" stroke="#63b8ff" points="316.78,-947.65 307.28,-952.34 317.63,-954.6 316.78,-947.65"/>
</a>
</g>
</g>
<!-- Node12 -->
<g id="Node000012" class="node">
<title>Node12</title>
<g id="a_Node000012"><a xlink:href="classhelios_1_1engine_1_1game_1_1systems_1_1physics_1_1ScaleSystem.html" target="_top" xlink:title="System that applies scaling to entities based on their ScaleComponent.">
<polygon fill="white" stroke="#666666" points="559,-899.5 383,-899.5 383,-869.5 559,-869.5 559,-899.5"/>
<text text-anchor="start" x="391" y="-887.5" font-family="Helvetica,sans-Serif" font-size="10.00">helios::engine::game</text>
<text text-anchor="middle" x="471" y="-876.5" font-family="Helvetica,sans-Serif" font-size="10.00">::systems::physics::ScaleSystem</text>
</a>
</g>
</g>
<!-- Node4&#45;&gt;Node12 -->
<g id="edge32_Node000004_Node000012" class="edge">
<title>Node4&#45;&gt;Node12</title>
<g id="a_edge32_Node000004_Node000012"><a xlink:title=" ">
<path fill="none" stroke="#63b8ff" d="M316.99,-944.68C324.91,-942.05 332.75,-939 340,-935.5 358.01,-926.8 357.96,-917.14 376,-908.5 383.14,-905.08 390.83,-902.11 398.62,-899.53"/>
<polygon fill="#63b8ff" stroke="#63b8ff" points="315.82,-941.37 307.31,-947.68 317.9,-948.06 315.82,-941.37"/>
</a>
</g>
</g>
<!-- Node13 -->
<g id="Node000013" class="node">
<title>Node13</title>
<g id="a_Node000013"><a xlink:href="classhelios_1_1engine_1_1game_1_1systems_1_1physics_1_1SpinSystem.html" target="_top" xlink:title="System that updates the spin rotation of entities.">
<polygon fill="white" stroke="#666666" points="556,-851.5 386,-851.5 386,-821.5 556,-821.5 556,-851.5"/>
<text text-anchor="start" x="394" y="-839.5" font-family="Helvetica,sans-Serif" font-size="10.00">helios::engine::game</text>
<text text-anchor="middle" x="471" y="-828.5" font-family="Helvetica,sans-Serif" font-size="10.00">::systems::physics::SpinSystem</text>
</a>
</g>
</g>
<!-- Node4&#45;&gt;Node13 -->
<g id="edge33_Node000004_Node000013" class="edge">
<title>Node4&#45;&gt;Node13</title>
<g id="a_edge33_Node000004_Node000013"><a xlink:title=" ">
<path fill="none" stroke="#63b8ff" d="M316.84,-948.75C325.2,-945.44 333.19,-941.12 340,-935.5 368.52,-911.97 347.4,-883.94 376,-860.5 380.17,-857.08 384.76,-854.15 389.61,-851.62"/>
<polygon fill="#63b8ff" stroke="#63b8ff" points="315.56,-945.49 307.27,-952.08 317.87,-952.1 315.56,-945.49"/>
</a>
</g>
</g>
<!-- Node14 -->
<g id="Node000014" class="node">
<title>Node14</title>
<g id="a_Node000014"><a xlink:href="classhelios_1_1engine_1_1game_1_1systems_1_1post_1_1ScaleClearSystem.html" target="_top" xlink:title="System that clears the dirty state of ScaleComponents at the end of a frame.">
<polygon fill="white" stroke="#666666" points="545.5,-803 396.5,-803 396.5,-762 545.5,-762 545.5,-803"/>
<text text-anchor="start" x="404.5" y="-791" font-family="Helvetica,sans-Serif" font-size="10.00">helios::engine::game</text>
<text text-anchor="start" x="404.5" y="-780" font-family="Helvetica,sans-Serif" font-size="10.00">::systems::post::ScaleClear</text>
<text text-anchor="middle" x="471" y="-769" font-family="Helvetica,sans-Serif" font-size="10.00">System</text>
</a>
</g>
</g>
<!-- Node4&#45;&gt;Node14 -->
<g id="edge34_Node000004_Node000014" class="edge">
<title>Node4&#45;&gt;Node14</title>
<g id="a_edge34_Node000004_Node000014"><a xlink:title=" ">
<path fill="none" stroke="#63b8ff" d="M316.79,-950.15C325.37,-946.63 333.43,-941.89 340,-935.5 380.84,-895.8 336.21,-853.26 376,-812.5 381.74,-806.62 388.64,-801.88 396.05,-798.08"/>
<polygon fill="#63b8ff" stroke="#63b8ff" points="315.58,-946.86 307.32,-953.49 317.92,-953.46 315.58,-946.86"/>
</a>
</g>
</g>
<!-- Node15 -->
<g id="Node000015" class="node">
<title>Node15</title>
<g id="a_Node000015"><a xlink:href="classhelios_1_1engine_1_1game_1_1systems_1_1post_1_1TransformClearSystem.html" target="_top" xlink:title="System that clears the dirty state of TransformComponents at the end of a frame.">
<polygon fill="white" stroke="#666666" points="556.5,-744 385.5,-744 385.5,-703 556.5,-703 556.5,-744"/>
<text text-anchor="start" x="393.5" y="-732" font-family="Helvetica,sans-Serif" font-size="10.00">helios::engine::game</text>
<text text-anchor="start" x="393.5" y="-721" font-family="Helvetica,sans-Serif" font-size="10.00">::systems::post::TransformClear</text>
<text text-anchor="middle" x="471" y="-710" font-family="Helvetica,sans-Serif" font-size="10.00">System</text>
</a>
</g>
</g>
<!-- Node4&#45;&gt;Node15 -->
<g id="edge35_Node000004_Node000015" class="edge">
<title>Node4&#45;&gt;Node15</title>
<g id="a_edge35_Node000004_Node000015"><a xlink:title=" ">
<path fill="none" stroke="#63b8ff" d="M316.99,-950.81C325.62,-947.21 333.64,-942.26 340,-935.5 396.49,-875.44 321.1,-815.02 376,-753.5 379.08,-750.05 382.56,-746.99 386.31,-744.28"/>
<polygon fill="#63b8ff" stroke="#63b8ff" points="315.68,-947.56 307.44,-954.22 318.03,-954.16 315.68,-947.56"/>
</a>
</g>
</g>
<!-- Node16 -->
<g id="Node000016" class="node">
<title>Node16</title>
<g id="a_Node000016"><a xlink:href="classhelios_1_1engine_1_1game_1_1systems_1_1scene_1_1SceneSyncSystem.html" target="_top" xlink:title="System that synchronizes TransformComponents with SceneNodes.">
<polygon fill="white" stroke="#666666" points="549.5,-685 392.5,-685 392.5,-644 549.5,-644 549.5,-685"/>
<text text-anchor="start" x="400.5" y="-673" font-family="Helvetica,sans-Serif" font-size="10.00">helios::engine::game</text>
<text text-anchor="start" x="400.5" y="-662" font-family="Helvetica,sans-Serif" font-size="10.00">::systems::scene::SceneSync</text>
<text text-anchor="middle" x="471" y="-651" font-family="Helvetica,sans-Serif" font-size="10.00">System</text>
</a>
</g>
</g>
<!-- Node4&#45;&gt;Node16 -->
<g id="edge36_Node000004_Node000016" class="edge">
<title>Node4&#45;&gt;Node16</title>
<g id="a_edge36_Node000004_Node000016"><a xlink:title=" ">
<path fill="none" stroke="#63b8ff" d="M316.95,-951.23C325.67,-947.57 333.72,-942.5 340,-935.5 412.59,-854.54 305.15,-775.99 376,-693.5 380.56,-688.19 386.07,-683.83 392.11,-680.27"/>
<polygon fill="#63b8ff" stroke="#63b8ff" points="315.54,-948.01 307.29,-954.66 317.88,-954.61 315.54,-948.01"/>
</a>
</g>
</g>
</g>
</svg>
