<?xml version="1.0" encoding="UTF-8" standalone="no"?>
<!DOCTYPE svg PUBLIC "-//W3C//DTD SVG 1.1//EN"
 "http://www.w3.org/Graphics/SVG/1.1/DTD/svg11.dtd">
<!-- Generated by graphviz version 2.43.0 (0)
 -->
<!-- Title: Graphical Class Hierarchy Pages: 1 -->
<svg width="312pt" height="86pt"
 viewBox="0.00 0.00 312.00 86.00" xmlns="http://www.w3.org/2000/svg" xmlns:xlink="http://www.w3.org/1999/xlink">
<g id="graph0" class="graph" transform="scale(1 1) rotate(0) translate(4 82)">
<title>Graphical Class Hierarchy</title>
<!-- Node0 -->
<g id="Node000000" class="node">
<title>Node0</title>
<g id="a_Node000000"><a xlink:href="classhelios_1_1core_1_1ecs_1_1SparseSetBase.html" target="_top" xlink:title="Abstract base class for type&#45;erased sparse set access.">
<polygon fill="white" stroke="#666666" points="101,-54 0,-54 0,-24 101,-24 101,-54"/>
<text text-anchor="start" x="8" y="-42" font-family="Helvetica,sans-Serif" font-size="10.00">helios::core::ecs::</text>
<text text-anchor="middle" x="50.5" y="-31" font-family="Helvetica,sans-Serif" font-size="10.00">SparseSetBase</text>
</a>
</g>
</g>
<!-- Node1 -->
<g id="Node000001" class="node">
<title>Node1</title>
<g id="a_Node000001"><a xlink:href="classhelios_1_1core_1_1ecs_1_1SparseSet.html" target="_top" xlink:title=" ">
<polygon fill="white" stroke="#666666" points="304,-78 137,-78 137,-48 304,-48 304,-78"/>
<text text-anchor="start" x="145" y="-66" font-family="Helvetica,sans-Serif" font-size="10.00">helios::core::ecs::</text>
<text text-anchor="middle" x="220.5" y="-55" font-family="Helvetica,sans-Serif" font-size="10.00">SparseSet&lt; LeadComponent &gt;</text>
</a>
</g>
</g>
<!-- Node0&#45;&gt;Node1 -->
<g id="edge6_Node000000_Node000001" class="edge">
<title>Node0&#45;&gt;Node1</title>
<g id="a_edge6_Node000000_Node000001"><a xlink:title=" ">
<path fill="none" stroke="#63b8ff" d="M111.58,-47.58C119.74,-48.75 128.23,-49.96 136.7,-51.17"/>
<polygon fill="#63b8ff" stroke="#63b8ff" points="111.85,-44.09 101.45,-46.14 110.86,-51.01 111.85,-44.09"/>
</a>
</g>
</g>
<!-- Node2 -->
<g id="Node000002" class="node">
<title>Node2</title>
<g id="a_Node000002"><a xlink:href="classhelios_1_1core_1_1ecs_1_1SparseSet.html" target="_top" xlink:title="A generic sparse set providing O(1) insertion, lookup, and removal.">
<polygon fill="white" stroke="#666666" points="271,-30 170,-30 170,0 271,0 271,-30"/>
<text text-anchor="start" x="178" y="-18" font-family="Helvetica,sans-Serif" font-size="10.00">helios::core::ecs::</text>
<text text-anchor="middle" x="220.5" y="-7" font-family="Helvetica,sans-Serif" font-size="10.00">SparseSet&lt; T &gt;</text>
</a>
</g>
</g>
<!-- Node0&#45;&gt;Node2 -->
<g id="edge7_Node000000_Node000002" class="edge">
<title>Node0&#45;&gt;Node2</title>
<g id="a_edge7_Node000000_Node000002"><a xlink:title=" ">
<path fill="none" stroke="#63b8ff" d="M111.53,-30.42C130.61,-27.7 151.48,-24.72 169.74,-22.11"/>
<polygon fill="#63b8ff" stroke="#63b8ff" points="110.86,-26.99 101.45,-31.86 111.85,-33.91 110.86,-26.99"/>
</a>
</g>
</g>
</g>
</svg>
