<?xml version="1.0" encoding="UTF-8" standalone="no"?>
<!DOCTYPE svg PUBLIC "-//W3C//DTD SVG 1.1//EN"
 "http://www.w3.org/Graphics/SVG/1.1/DTD/svg11.dtd">
<!-- Generated by graphviz version 2.43.0 (0)
 -->
<!-- Title: Graphical Class Hierarchy Pages: 1 -->
<svg width="343pt" height="76pt"
 viewBox="0.00 0.00 343.00 75.50" xmlns="http://www.w3.org/2000/svg" xmlns:xlink="http://www.w3.org/1999/xlink">
<g id="graph0" class="graph" transform="scale(1 1) rotate(0) translate(4 71.5)">
<title>Graphical Class Hierarchy</title>
<!-- Node0 -->
<g id="Node000000" class="node">
<title>Node0</title>
<g id="a_Node000000"><a xlink:href="classhelios_1_1ecs_1_1SparseSetBase.html" target="_top" xlink:title="Abstract base class for type&#45;erased sparse set access.">
<polygon fill="white" stroke="#666666" points="147,-40 0,-40 0,-21 147,-21 147,-40"/>
<text text-anchor="middle" x="73.5" y="-28" font-family="Helvetica,sans-Serif" font-size="10.00">helios::ecs::SparseSetBase</text>
</a>
</g>
</g>
<!-- Node1 -->
<g id="Node000001" class="node">
<title>Node1</title>
<g id="a_Node000001"><a xlink:href="classhelios_1_1ecs_1_1SparseSet.html" target="_top" xlink:title=" ">
<polygon fill="white" stroke="#666666" points="320.5,-67.5 197.5,-67.5 197.5,-37.5 320.5,-37.5 320.5,-67.5"/>
<text text-anchor="start" x="205.5" y="-55.5" font-family="Helvetica,sans-Serif" font-size="10.00">helios::ecs::SparseSet</text>
<text text-anchor="middle" x="259" y="-44.5" font-family="Helvetica,sans-Serif" font-size="10.00">&lt; LeadComponent &gt;</text>
</a>
</g>
</g>
<!-- Node0&#45;&gt;Node1 -->
<g id="edge4_Node000000_Node000001" class="edge">
<title>Node0&#45;&gt;Node1</title>
<g id="a_edge4_Node000000_Node000001"><a xlink:title=" ">
<path fill="none" stroke="#63b8ff" d="M157.25,-40.42C170.71,-42.03 184.43,-43.68 197.24,-45.22"/>
<polygon fill="#63b8ff" stroke="#63b8ff" points="157.37,-36.91 147.02,-39.19 156.54,-43.86 157.37,-36.91"/>
</a>
</g>
</g>
<!-- Node2 -->
<g id="Node000002" class="node">
<title>Node2</title>
<g id="a_Node000002"><a xlink:href="classhelios_1_1ecs_1_1SparseSet.html" target="_top" xlink:title="A generic sparse set providing O(1) insertion, lookup, and removal.">
<polygon fill="white" stroke="#666666" points="335,-19 183,-19 183,0 335,0 335,-19"/>
<text text-anchor="middle" x="259" y="-7" font-family="Helvetica,sans-Serif" font-size="10.00">helios::ecs::SparseSet&lt; T &gt;</text>
</a>
</g>
</g>
<!-- Node0&#45;&gt;Node2 -->
<g id="edge5_Node000000_Node000002" class="edge">
<title>Node0&#45;&gt;Node2</title>
<g id="a_edge5_Node000000_Node000002"><a xlink:title=" ">
<path fill="none" stroke="#63b8ff" d="M157.09,-21.05C165.71,-20.06 174.45,-19.06 182.99,-18.08"/>
<polygon fill="#63b8ff" stroke="#63b8ff" points="156.56,-17.59 147.02,-22.2 157.36,-24.54 156.56,-17.59"/>
</a>
</g>
</g>
</g>
</svg>
