<?xml version="1.0" encoding="UTF-8" standalone="no"?>
<!DOCTYPE svg PUBLIC "-//W3C//DTD SVG 1.1//EN"
 "http://www.w3.org/Graphics/SVG/1.1/DTD/svg11.dtd">
<!-- Generated by graphviz version 2.43.0 (0)
 -->
<!-- Title: Graphical Class Hierarchy Pages: 1 -->
<svg width="414pt" height="86pt"
 viewBox="0.00 0.00 414.00 86.00" xmlns="http://www.w3.org/2000/svg" xmlns:xlink="http://www.w3.org/1999/xlink">
<g id="graph0" class="graph" transform="scale(1 1) rotate(0) translate(4 82)">
<title>Graphical Class Hierarchy</title>
<!-- Node0 -->
<g id="Node000000" class="node">
<title>Node0</title>
<g id="a_Node000000"><a xlink:href="classhelios_1_1engine_1_1runtime_1_1world_1_1Manager.html" target="_top" xlink:title="Abstract base class for managers that process deferred operations.">
<polygon fill="white" stroke="#666666" points="155,-78 26,-78 26,-48 155,-48 155,-78"/>
<text text-anchor="start" x="34" y="-66" font-family="Helvetica,sans-Serif" font-size="10.00">helios::engine::runtime</text>
<text text-anchor="middle" x="90.5" y="-55" font-family="Helvetica,sans-Serif" font-size="10.00">::world::Manager</text>
</a>
</g>
</g>
<!-- Node1 -->
<g id="Node000001" class="node">
<title>Node1</title>
<g id="a_Node000001"><a xlink:href="classhelios_1_1engine_1_1runtime_1_1pooling_1_1GameObjectPoolManager.html" target="_top" xlink:title="High&#45;level manager for GameObject pooling operations.">
<polygon fill="white" stroke="#666666" points="406,-78 217,-78 217,-48 406,-48 406,-78"/>
<text text-anchor="start" x="225" y="-66" font-family="Helvetica,sans-Serif" font-size="10.00">helios::engine::runtime</text>
<text text-anchor="middle" x="311.5" y="-55" font-family="Helvetica,sans-Serif" font-size="10.00">::pooling::GameObjectPoolManager</text>
</a>
</g>
</g>
<!-- Node0&#45;&gt;Node1 -->
<g id="edge117_Node000000_Node000001" class="edge">
<title>Node0&#45;&gt;Node1</title>
<g id="a_edge117_Node000000_Node000001"><a xlink:title=" ">
<path fill="none" stroke="#63b8ff" d="M165.29,-63C181.88,-63 199.69,-63 216.97,-63"/>
<polygon fill="#63b8ff" stroke="#63b8ff" points="165.14,-59.5 155.14,-63 165.14,-66.5 165.14,-59.5"/>
</a>
</g>
</g>
<!-- Node2 -->
<g id="Node000002" class="node">
<title>Node2</title>
<g id="a_Node000002"><a xlink:href="classhelios_1_1engine_1_1runtime_1_1spawn_1_1SpawnManager.html" target="_top" xlink:title="Manager for processing spawn and despawn commands.">
<polygon fill="white" stroke="#666666" points="379,-30 244,-30 244,0 379,0 379,-30"/>
<text text-anchor="start" x="252" y="-18" font-family="Helvetica,sans-Serif" font-size="10.00">helios::engine::runtime</text>
<text text-anchor="middle" x="311.5" y="-7" font-family="Helvetica,sans-Serif" font-size="10.00">::spawn::SpawnManager</text>
</a>
</g>
</g>
<!-- Node0&#45;&gt;Node2 -->
<g id="edge118_Node000000_Node000002" class="edge">
<title>Node0&#45;&gt;Node2</title>
<g id="a_edge118_Node000000_Node000002"><a xlink:title=" ">
<path fill="none" stroke="#63b8ff" d="M165.09,-46.87C190.5,-41.3 218.81,-35.1 243.65,-29.65"/>
<polygon fill="#63b8ff" stroke="#63b8ff" points="164.16,-43.49 155.14,-49.05 165.66,-50.33 164.16,-43.49"/>
</a>
</g>
</g>
<!-- Node3 -->
<g id="Node000003" class="node">
<title>Node3</title>
<g id="a_Node000003"><a xlink:href="classhelios_1_1engine_1_1runtime_1_1spawn_1_1SpawnCommandHandler.html" target="_top" xlink:title="Interface for handlers that process spawn and despawn commands.">
<polygon fill="white" stroke="#666666" points="181,-30 0,-30 0,0 181,0 181,-30"/>
<text text-anchor="start" x="8" y="-18" font-family="Helvetica,sans-Serif" font-size="10.00">helios::engine::runtime</text>
<text text-anchor="middle" x="90.5" y="-7" font-family="Helvetica,sans-Serif" font-size="10.00">::spawn::SpawnCommandHandler</text>
</a>
</g>
</g>
<!-- Node3&#45;&gt;Node2 -->
<g id="edge119_Node000003_Node000002" class="edge">
<title>Node3&#45;&gt;Node2</title>
<g id="a_edge119_Node000003_Node000002"><a xlink:title=" ">
<path fill="none" stroke="#63b8ff" d="M191.56,-15C209.24,-15 227.25,-15 243.73,-15"/>
<polygon fill="#63b8ff" stroke="#63b8ff" points="191.21,-11.5 181.21,-15 191.21,-18.5 191.21,-11.5"/>
</a>
</g>
</g>
</g>
</svg>
