<?xml version="1.0" encoding="UTF-8" standalone="no"?>
<!DOCTYPE svg PUBLIC "-//W3C//DTD SVG 1.1//EN"
 "http://www.w3.org/Graphics/SVG/1.1/DTD/svg11.dtd">
<!-- Generated by graphviz version 2.43.0 (0)
 -->
<!-- Title: Graphical Class Hierarchy Pages: 1 -->
<svg width="396pt" height="146pt"
 viewBox="0.00 0.00 396.00 146.00" xmlns="http://www.w3.org/2000/svg" xmlns:xlink="http://www.w3.org/1999/xlink">
<g id="graph0" class="graph" transform="scale(1 1) rotate(0) translate(4 142)">
<title>Graphical Class Hierarchy</title>
<!-- Node0 -->
<g id="Node000000" class="node">
<title>Node0</title>
<g id="a_Node000000"><a xlink:href="classhelios_1_1engine_1_1runtime_1_1messaging_1_1command_1_1WorldCommand.html" target="_top" xlink:title="Abstract base class for commands that operate on the entire GameWorld.">
<polygon fill="white" stroke="#666666" points="137,-89.5 0,-89.5 0,-48.5 137,-48.5 137,-89.5"/>
<text text-anchor="start" x="8" y="-77.5" font-family="Helvetica,sans-Serif" font-size="10.00">helios::engine::runtime</text>
<text text-anchor="start" x="8" y="-66.5" font-family="Helvetica,sans-Serif" font-size="10.00">::messaging::command::</text>
<text text-anchor="middle" x="68.5" y="-55.5" font-family="Helvetica,sans-Serif" font-size="10.00">WorldCommand</text>
</a>
</g>
</g>
<!-- Node1 -->
<g id="Node000001" class="node">
<title>Node1</title>
<g id="a_Node000001"><a xlink:href="classhelios_1_1engine_1_1runtime_1_1spawn_1_1commands_1_1DespawnCommand.html" target="_top" xlink:title="Command to request despawning of a GameObject.">
<polygon fill="white" stroke="#666666" points="388,-138 173,-138 173,-108 388,-108 388,-138"/>
<text text-anchor="start" x="181" y="-126" font-family="Helvetica,sans-Serif" font-size="10.00">helios::engine::runtime</text>
<text text-anchor="middle" x="280.5" y="-115" font-family="Helvetica,sans-Serif" font-size="10.00">::spawn::commands::DespawnCommand</text>
</a>
</g>
</g>
<!-- Node0&#45;&gt;Node1 -->
<g id="edge79_Node000000_Node000001" class="edge">
<title>Node0&#45;&gt;Node1</title>
<g id="a_edge79_Node000000_Node000001"><a xlink:title=" ">
<path fill="none" stroke="#63b8ff" d="M147.07,-92.03C155.8,-94.46 164.58,-96.83 173,-99 184.93,-102.07 197.67,-105.13 210.04,-107.98"/>
<polygon fill="#63b8ff" stroke="#63b8ff" points="147.83,-88.61 137.26,-89.28 145.94,-95.35 147.83,-88.61"/>
</a>
</g>
</g>
<!-- Node2 -->
<g id="Node000002" class="node">
<title>Node2</title>
<g id="a_Node000002"><a xlink:href="classhelios_1_1engine_1_1runtime_1_1spawn_1_1commands_1_1ScheduledSpawnPlanCommand.html" target="_top" xlink:title="Command for executing a scheduled spawn plan.">
<polygon fill="white" stroke="#666666" points="365.5,-89.5 195.5,-89.5 195.5,-48.5 365.5,-48.5 365.5,-89.5"/>
<text text-anchor="start" x="203.5" y="-77.5" font-family="Helvetica,sans-Serif" font-size="10.00">helios::engine::runtime</text>
<text text-anchor="start" x="203.5" y="-66.5" font-family="Helvetica,sans-Serif" font-size="10.00">::spawn::commands::Scheduled</text>
<text text-anchor="middle" x="280.5" y="-55.5" font-family="Helvetica,sans-Serif" font-size="10.00">SpawnPlanCommand</text>
</a>
</g>
</g>
<!-- Node0&#45;&gt;Node2 -->
<g id="edge80_Node000000_Node000002" class="edge">
<title>Node0&#45;&gt;Node2</title>
<g id="a_edge80_Node000000_Node000002"><a xlink:title=" ">
<path fill="none" stroke="#63b8ff" d="M147.28,-69C162.98,-69 179.55,-69 195.46,-69"/>
<polygon fill="#63b8ff" stroke="#63b8ff" points="147.1,-65.5 137.1,-69 147.1,-72.5 147.1,-65.5"/>
</a>
</g>
</g>
<!-- Node3 -->
<g id="Node000003" class="node">
<title>Node3</title>
<g id="a_Node000003"><a xlink:href="classhelios_1_1engine_1_1runtime_1_1spawn_1_1commands_1_1SpawnCommand.html" target="_top" xlink:title="Command to request spawning of GameObjects from a pool.">
<polygon fill="white" stroke="#666666" points="382,-30 179,-30 179,0 382,0 382,-30"/>
<text text-anchor="start" x="187" y="-18" font-family="Helvetica,sans-Serif" font-size="10.00">helios::engine::runtime</text>
<text text-anchor="middle" x="280.5" y="-7" font-family="Helvetica,sans-Serif" font-size="10.00">::spawn::commands::SpawnCommand</text>
</a>
</g>
</g>
<!-- Node0&#45;&gt;Node3 -->
<g id="edge81_Node000000_Node000003" class="edge">
<title>Node0&#45;&gt;Node3</title>
<g id="a_edge81_Node000000_Node000003"><a xlink:title=" ">
<path fill="none" stroke="#63b8ff" d="M146.91,-46.92C155.69,-44.53 164.53,-42.18 173,-40 186.06,-36.64 200.07,-33.22 213.49,-30.03"/>
<polygon fill="#63b8ff" stroke="#63b8ff" points="145.75,-43.61 137.03,-49.63 147.6,-50.36 145.75,-43.61"/>
</a>
</g>
</g>
</g>
</svg>
