<?xml version="1.0" encoding="UTF-8" standalone="no"?>
<!DOCTYPE svg PUBLIC "-//W3C//DTD SVG 1.1//EN"
 "http://www.w3.org/Graphics/SVG/1.1/DTD/svg11.dtd">
<!-- Generated by graphviz version 2.43.0 (0)
 -->
<!-- Title: Graphical Class Hierarchy Pages: 1 -->
<svg width="457pt" height="278pt"
 viewBox="0.00 0.00 457.00 278.00" xmlns="http://www.w3.org/2000/svg" xmlns:xlink="http://www.w3.org/1999/xlink">
<g id="graph0" class="graph" transform="scale(1 1) rotate(0) translate(4 274)">
<title>Graphical Class Hierarchy</title>
<!-- Node0 -->
<g id="Node000000" class="node">
<title>Node0</title>
<g id="a_Node000000"><a xlink:href="classhelios_1_1engine_1_1mechanics_1_1gamestate_1_1GameStateCommandHandler.html" target="_top" xlink:title="Abstract interface for handling game state commands.">
<polygon fill="white" stroke="#666666" points="224,-270 0,-270 0,-240 224,-240 224,-270"/>
<text text-anchor="start" x="8" y="-258" font-family="Helvetica,sans-Serif" font-size="10.00">helios::engine::mechanics</text>
<text text-anchor="middle" x="112" y="-247" font-family="Helvetica,sans-Serif" font-size="10.00">::gamestate::GameStateCommandHandler</text>
</a>
</g>
</g>
<!-- Node1 -->
<g id="Node000001" class="node">
<title>Node1</title>
<g id="a_Node000001"><a xlink:href="classhelios_1_1engine_1_1mechanics_1_1gamestate_1_1GameStateManager.html" target="_top" xlink:title="Manages game state transitions using a rule&#45;based state machine.">
<polygon fill="white" stroke="#666666" points="444,-270 265,-270 265,-240 444,-240 444,-270"/>
<text text-anchor="start" x="273" y="-258" font-family="Helvetica,sans-Serif" font-size="10.00">helios::engine::mechanics</text>
<text text-anchor="middle" x="354.5" y="-247" font-family="Helvetica,sans-Serif" font-size="10.00">::gamestate::GameStateManager</text>
</a>
</g>
</g>
<!-- Node0&#45;&gt;Node1 -->
<g id="edge43_Node000000_Node000001" class="edge">
<title>Node0&#45;&gt;Node1</title>
<g id="a_edge43_Node000000_Node000001"><a xlink:title=" ">
<path fill="none" stroke="#63b8ff" d="M234.36,-255C244.64,-255 254.9,-255 264.85,-255"/>
<polygon fill="#63b8ff" stroke="#63b8ff" points="234.1,-251.5 224.1,-255 234.1,-258.5 234.1,-251.5"/>
</a>
</g>
</g>
<!-- Node2 -->
<g id="Node000002" class="node">
<title>Node2</title>
<g id="a_Node000002"><a xlink:href="classhelios_1_1engine_1_1runtime_1_1world_1_1Manager.html" target="_top" xlink:title="Abstract base class for managers that process deferred operations.">
<polygon fill="white" stroke="#666666" points="176.5,-174 47.5,-174 47.5,-144 176.5,-144 176.5,-174"/>
<text text-anchor="start" x="55.5" y="-162" font-family="Helvetica,sans-Serif" font-size="10.00">helios::engine::runtime</text>
<text text-anchor="middle" x="112" y="-151" font-family="Helvetica,sans-Serif" font-size="10.00">::world::Manager</text>
</a>
</g>
</g>
<!-- Node2&#45;&gt;Node1 -->
<g id="edge44_Node000002_Node000001" class="edge">
<title>Node2&#45;&gt;Node1</title>
<g id="a_edge44_Node000002_Node000001"><a xlink:title=" ">
<path fill="none" stroke="#63b8ff" d="M186.56,-167.15C199.69,-170.72 212.76,-175.79 224,-183 246.45,-197.39 237.83,-216.18 260,-231 265.15,-234.45 270.77,-237.4 276.61,-239.93"/>
<polygon fill="#63b8ff" stroke="#63b8ff" points="187.07,-163.68 176.53,-164.71 185.42,-170.48 187.07,-163.68"/>
</a>
</g>
</g>
<!-- Node3 -->
<g id="Node000003" class="node">
<title>Node3</title>
<g id="a_Node000003"><a xlink:href="classhelios_1_1engine_1_1mechanics_1_1match_1_1MatchStateManager.html" target="_top" xlink:title="Manages match state transitions using a rule&#45;based state machine.">
<polygon fill="white" stroke="#666666" points="433.5,-222 275.5,-222 275.5,-192 433.5,-192 433.5,-222"/>
<text text-anchor="start" x="283.5" y="-210" font-family="Helvetica,sans-Serif" font-size="10.00">helios::engine::mechanics</text>
<text text-anchor="middle" x="354.5" y="-199" font-family="Helvetica,sans-Serif" font-size="10.00">::match::MatchStateManager</text>
</a>
</g>
</g>
<!-- Node2&#45;&gt;Node3 -->
<g id="edge45_Node000002_Node000003" class="edge">
<title>Node2&#45;&gt;Node3</title>
<g id="a_edge45_Node000002_Node000003"><a xlink:title=" ">
<path fill="none" stroke="#63b8ff" d="M186.57,-173.68C215.59,-179.47 248.89,-186.12 278.08,-191.95"/>
<polygon fill="#63b8ff" stroke="#63b8ff" points="186.99,-170.2 176.5,-171.67 185.62,-177.06 186.99,-170.2"/>
</a>
</g>
</g>
<!-- Node5 -->
<g id="Node000005" class="node">
<title>Node5</title>
<g id="a_Node000005"><a xlink:href="classhelios_1_1engine_1_1mechanics_1_1scoring_1_1ScorePoolManager.html" target="_top" xlink:title="Manages score pools and processes score commands.">
<polygon fill="white" stroke="#666666" points="432,-126 277,-126 277,-96 432,-96 432,-126"/>
<text text-anchor="start" x="285" y="-114" font-family="Helvetica,sans-Serif" font-size="10.00">helios::engine::mechanics</text>
<text text-anchor="middle" x="354.5" y="-103" font-family="Helvetica,sans-Serif" font-size="10.00">::scoring::ScorePoolManager</text>
</a>
</g>
</g>
<!-- Node2&#45;&gt;Node5 -->
<g id="edge46_Node000002_Node000005" class="edge">
<title>Node2&#45;&gt;Node5</title>
<g id="a_edge46_Node000002_Node000005"><a xlink:title=" ">
<path fill="none" stroke="#63b8ff" d="M186.57,-144.32C215.59,-138.53 248.89,-131.88 278.08,-126.05"/>
<polygon fill="#63b8ff" stroke="#63b8ff" points="185.62,-140.94 176.5,-146.33 186.99,-147.8 185.62,-140.94"/>
</a>
</g>
</g>
<!-- Node7 -->
<g id="Node000007" class="node">
<title>Node7</title>
<g id="a_Node000007"><a xlink:href="classhelios_1_1engine_1_1modules_1_1ui_1_1UiActionCommandManager.html" target="_top" xlink:title="Manages and processes UI action commands with policy&#45;based dispatch.">
<polygon fill="white" stroke="#666666" points="440.5,-78 268.5,-78 268.5,-48 440.5,-48 440.5,-78"/>
<text text-anchor="start" x="276.5" y="-66" font-family="Helvetica,sans-Serif" font-size="10.00">helios::engine::modules</text>
<text text-anchor="middle" x="354.5" y="-55" font-family="Helvetica,sans-Serif" font-size="10.00">::ui::UiActionCommandManager</text>
</a>
</g>
</g>
<!-- Node2&#45;&gt;Node7 -->
<g id="edge47_Node000002_Node000007" class="edge">
<title>Node2&#45;&gt;Node7</title>
<g id="a_edge47_Node000002_Node000007"><a xlink:title=" ">
<path fill="none" stroke="#63b8ff" d="M186.56,-150.85C199.69,-147.28 212.76,-142.21 224,-135 246.45,-120.61 237.83,-101.82 260,-87 265.15,-83.55 270.77,-80.6 276.61,-78.07"/>
<polygon fill="#63b8ff" stroke="#63b8ff" points="185.42,-147.52 176.53,-153.29 187.07,-154.32 185.42,-147.52"/>
</a>
</g>
</g>
<!-- Node9 -->
<g id="Node000009" class="node">
<title>Node9</title>
<g id="a_Node000009"><a xlink:href="classhelios_1_1engine_1_1runtime_1_1pooling_1_1GameObjectPoolManager.html" target="_top" xlink:title="High&#45;level manager for GameObject pooling operations.">
<polygon fill="white" stroke="#666666" points="449,-174 260,-174 260,-144 449,-144 449,-174"/>
<text text-anchor="start" x="268" y="-162" font-family="Helvetica,sans-Serif" font-size="10.00">helios::engine::runtime</text>
<text text-anchor="middle" x="354.5" y="-151" font-family="Helvetica,sans-Serif" font-size="10.00">::pooling::GameObjectPoolManager</text>
</a>
</g>
</g>
<!-- Node2&#45;&gt;Node9 -->
<g id="edge48_Node000002_Node000009" class="edge">
<title>Node2&#45;&gt;Node9</title>
<g id="a_edge48_Node000002_Node000009"><a xlink:title=" ">
<path fill="none" stroke="#63b8ff" d="M186.56,-159C209.64,-159 235.44,-159 259.72,-159"/>
<polygon fill="#63b8ff" stroke="#63b8ff" points="186.5,-155.5 176.5,-159 186.5,-162.5 186.5,-155.5"/>
</a>
</g>
</g>
<!-- Node10 -->
<g id="Node000010" class="node">
<title>Node10</title>
<g id="a_Node000010"><a xlink:href="classhelios_1_1engine_1_1runtime_1_1spawn_1_1SpawnManager.html" target="_top" xlink:title="Manager for processing spawn and despawn commands.">
<polygon fill="white" stroke="#666666" points="422,-30 287,-30 287,0 422,0 422,-30"/>
<text text-anchor="start" x="295" y="-18" font-family="Helvetica,sans-Serif" font-size="10.00">helios::engine::runtime</text>
<text text-anchor="middle" x="354.5" y="-7" font-family="Helvetica,sans-Serif" font-size="10.00">::spawn::SpawnManager</text>
</a>
</g>
</g>
<!-- Node2&#45;&gt;Node10 -->
<g id="edge49_Node000002_Node000010" class="edge">
<title>Node2&#45;&gt;Node10</title>
<g id="a_edge49_Node000002_Node000010"><a xlink:title=" ">
<path fill="none" stroke="#63b8ff" d="M186.63,-153.82C200.22,-150.04 213.43,-144.13 224,-135 258.48,-105.21 226.09,-69.44 260,-39 267.61,-32.17 276.9,-27.23 286.64,-23.67"/>
<polygon fill="#63b8ff" stroke="#63b8ff" points="185.61,-150.47 176.71,-156.21 187.25,-157.27 185.61,-150.47"/>
</a>
</g>
</g>
<!-- Node4 -->
<g id="Node000004" class="node">
<title>Node4</title>
<g id="a_Node000004"><a xlink:href="classhelios_1_1engine_1_1mechanics_1_1match_1_1MatchStateCommandHandler.html" target="_top" xlink:title="Abstract interface for handling match state commands.">
<polygon fill="white" stroke="#666666" points="213.5,-222 10.5,-222 10.5,-192 213.5,-192 213.5,-222"/>
<text text-anchor="start" x="18.5" y="-210" font-family="Helvetica,sans-Serif" font-size="10.00">helios::engine::mechanics</text>
<text text-anchor="middle" x="112" y="-199" font-family="Helvetica,sans-Serif" font-size="10.00">::match::MatchStateCommandHandler</text>
</a>
</g>
</g>
<!-- Node4&#45;&gt;Node3 -->
<g id="edge50_Node000004_Node000003" class="edge">
<title>Node4&#45;&gt;Node3</title>
<g id="a_edge50_Node000004_Node000003"><a xlink:title=" ">
<path fill="none" stroke="#63b8ff" d="M223.79,-207C241.17,-207 258.81,-207 275.25,-207"/>
<polygon fill="#63b8ff" stroke="#63b8ff" points="223.6,-203.5 213.6,-207 223.6,-210.5 223.6,-203.5"/>
</a>
</g>
</g>
<!-- Node6 -->
<g id="Node000006" class="node">
<title>Node6</title>
<g id="a_Node000006"><a xlink:href="classhelios_1_1engine_1_1mechanics_1_1scoring_1_1ScoreCommandHandler.html" target="_top" xlink:title="Abstract interface for processing score update commands.">
<polygon fill="white" stroke="#666666" points="201.5,-126 22.5,-126 22.5,-96 201.5,-96 201.5,-126"/>
<text text-anchor="start" x="30.5" y="-114" font-family="Helvetica,sans-Serif" font-size="10.00">helios::engine::mechanics</text>
<text text-anchor="middle" x="112" y="-103" font-family="Helvetica,sans-Serif" font-size="10.00">::scoring::ScoreCommandHandler</text>
</a>
</g>
</g>
<!-- Node6&#45;&gt;Node5 -->
<g id="edge51_Node000006_Node000005" class="edge">
<title>Node6&#45;&gt;Node5</title>
<g id="a_edge51_Node000006_Node000005"><a xlink:title=" ">
<path fill="none" stroke="#63b8ff" d="M211.73,-111C233.39,-111 256,-111 276.64,-111"/>
<polygon fill="#63b8ff" stroke="#63b8ff" points="211.53,-107.5 201.53,-111 211.53,-114.5 211.53,-107.5"/>
</a>
</g>
</g>
<!-- Node11 -->
<g id="Node000011" class="node">
<title>Node11</title>
<g id="a_Node000011"><a xlink:href="classhelios_1_1engine_1_1runtime_1_1spawn_1_1SpawnCommandHandler.html" target="_top" xlink:title="Interface for handlers that process spawn and despawn commands.">
<polygon fill="white" stroke="#666666" points="202.5,-30 21.5,-30 21.5,0 202.5,0 202.5,-30"/>
<text text-anchor="start" x="29.5" y="-18" font-family="Helvetica,sans-Serif" font-size="10.00">helios::engine::runtime</text>
<text text-anchor="middle" x="112" y="-7" font-family="Helvetica,sans-Serif" font-size="10.00">::spawn::SpawnCommandHandler</text>
</a>
</g>
</g>
<!-- Node11&#45;&gt;Node10 -->
<g id="edge52_Node000011_Node000010" class="edge">
<title>Node11&#45;&gt;Node10</title>
<g id="a_edge52_Node000011_Node000010"><a xlink:title=" ">
<path fill="none" stroke="#63b8ff" d="M212.79,-15C237.74,-15 263.9,-15 286.8,-15"/>
<polygon fill="#63b8ff" stroke="#63b8ff" points="212.55,-11.5 202.55,-15 212.55,-18.5 212.55,-11.5"/>
</a>
</g>
</g>
<!-- Node8 -->
<g id="Node000008" class="node">
<title>Node8</title>
<g id="a_Node000008"><a xlink:href="classhelios_1_1engine_1_1modules_1_1ui_1_1UiActionCommandHandler.html" target="_top" xlink:title="Abstract interface for handling UI action commands.">
<polygon fill="white" stroke="#666666" points="195.5,-78 28.5,-78 28.5,-48 195.5,-48 195.5,-78"/>
<text text-anchor="start" x="36.5" y="-66" font-family="Helvetica,sans-Serif" font-size="10.00">helios::engine::modules</text>
<text text-anchor="middle" x="112" y="-55" font-family="Helvetica,sans-Serif" font-size="10.00">::ui::UiActionCommandHandler</text>
</a>
</g>
</g>
<!-- Node8&#45;&gt;Node7 -->
<g id="edge53_Node000008_Node000007" class="edge">
<title>Node8&#45;&gt;Node7</title>
<g id="a_edge53_Node000008_Node000007"><a xlink:title=" ">
<path fill="none" stroke="#63b8ff" d="M206.02,-63C226.46,-63 248.01,-63 268.13,-63"/>
<polygon fill="#63b8ff" stroke="#63b8ff" points="205.77,-59.5 195.77,-63 205.77,-66.5 205.77,-59.5"/>
</a>
</g>
</g>
</g>
</svg>
