<?xml version="1.0" encoding="UTF-8" standalone="no"?>
<!DOCTYPE svg PUBLIC "-//W3C//DTD SVG 1.1//EN"
 "http://www.w3.org/Graphics/SVG/1.1/DTD/svg11.dtd">
<!-- Generated by graphviz version 2.43.0 (0)
 -->
<!-- Title: Graphical Class Hierarchy Pages: 1 -->
<svg width="657pt" height="676pt"
 viewBox="0.00 0.00 657.00 675.50" xmlns="http://www.w3.org/2000/svg" xmlns:xlink="http://www.w3.org/1999/xlink">
<g id="graph0" class="graph" transform="scale(1 1) rotate(0) translate(4 671.5)">
<title>Graphical Class Hierarchy</title>
<!-- Node0 -->
<g id="Node000000" class="node">
<title>Node0</title>
<g id="a_Node000000"><a xlink:href="classhelios_1_1engine_1_1runtime_1_1messaging_1_1command_1_1CommandHandler.html" target="_top" xlink:title="Abstract base for type&#45;erased command handler storage.">
<polygon fill="white" stroke="#666666" points="137,-402.5 0,-402.5 0,-361.5 137,-361.5 137,-402.5"/>
<text text-anchor="start" x="8" y="-390.5" font-family="Helvetica,sans-Serif" font-size="10.00">helios::engine::runtime</text>
<text text-anchor="start" x="8" y="-379.5" font-family="Helvetica,sans-Serif" font-size="10.00">::messaging::command::</text>
<text text-anchor="middle" x="68.5" y="-368.5" font-family="Helvetica,sans-Serif" font-size="10.00">CommandHandler</text>
</a>
</g>
</g>
<!-- Node1 -->
<g id="Node000001" class="node">
<title>Node1</title>
<g id="a_Node000001"><a xlink:href="classhelios_1_1engine_1_1runtime_1_1messaging_1_1command_1_1TypedCommandHandler.html" target="_top" xlink:title=" ">
<polygon fill="white" stroke="#666666" points="406.5,-122 190.5,-122 190.5,-70 406.5,-70 406.5,-122"/>
<text text-anchor="start" x="198.5" y="-110" font-family="Helvetica,sans-Serif" font-size="10.00">helios::engine::runtime</text>
<text text-anchor="start" x="198.5" y="-99" font-family="Helvetica,sans-Serif" font-size="10.00">::messaging::command::</text>
<text text-anchor="start" x="198.5" y="-88" font-family="Helvetica,sans-Serif" font-size="10.00">TypedCommandHandler&lt; WorldLifecycle</text>
<text text-anchor="middle" x="298.5" y="-77" font-family="Helvetica,sans-Serif" font-size="10.00">Command &gt;</text>
</a>
</g>
</g>
<!-- Node0&#45;&gt;Node1 -->
<g id="edge55_Node000000_Node000001" class="edge">
<title>Node0&#45;&gt;Node1</title>
<g id="a_edge55_Node000000_Node000001"><a xlink:title=" ">
<path fill="none" stroke="#63b8ff" d="M73.44,-351.18C81.87,-298.24 106.6,-190.05 173,-131 178.29,-126.3 184.15,-122.23 190.38,-118.7"/>
<polygon fill="#63b8ff" stroke="#63b8ff" points="69.95,-350.89 71.93,-361.3 76.87,-351.93 69.95,-350.89"/>
</a>
</g>
</g>
<!-- Node8 -->
<g id="Node000008" class="node">
<title>Node8</title>
<g id="a_Node000008"><a xlink:href="classhelios_1_1engine_1_1runtime_1_1messaging_1_1command_1_1TypedCommandHandler.html" target="_top" xlink:title=" ">
<polygon fill="white" stroke="#666666" points="402,-52 195,-52 195,0 402,0 402,-52"/>
<text text-anchor="start" x="203" y="-40" font-family="Helvetica,sans-Serif" font-size="10.00">helios::engine::runtime</text>
<text text-anchor="start" x="203" y="-29" font-family="Helvetica,sans-Serif" font-size="10.00">::messaging::command::</text>
<text text-anchor="start" x="203" y="-18" font-family="Helvetica,sans-Serif" font-size="10.00">TypedCommandHandler&lt; UpdateScore</text>
<text text-anchor="middle" x="298.5" y="-7" font-family="Helvetica,sans-Serif" font-size="10.00">Command &gt;</text>
</a>
</g>
</g>
<!-- Node0&#45;&gt;Node8 -->
<g id="edge57_Node000000_Node000008" class="edge">
<title>Node0&#45;&gt;Node8</title>
<g id="a_edge57_Node000000_Node000008"><a xlink:title=" ">
<path fill="none" stroke="#63b8ff" d="M70.24,-351.09C73.47,-287.41 90.06,-140.86 173,-61 179.47,-54.77 186.96,-49.63 194.99,-45.4"/>
<polygon fill="#63b8ff" stroke="#63b8ff" points="66.73,-351.15 69.8,-361.29 73.72,-351.45 66.73,-351.15"/>
</a>
</g>
</g>
<!-- Node10 -->
<g id="Node000010" class="node">
<title>Node10</title>
<g id="a_Node000010"><a xlink:href="classhelios_1_1engine_1_1runtime_1_1messaging_1_1command_1_1TypedCommandHandler.html" target="_top" xlink:title=" ">
<polygon fill="white" stroke="#666666" points="403,-478 194,-478 194,-426 403,-426 403,-478"/>
<text text-anchor="start" x="202" y="-466" font-family="Helvetica,sans-Serif" font-size="10.00">helios::engine::runtime</text>
<text text-anchor="start" x="202" y="-455" font-family="Helvetica,sans-Serif" font-size="10.00">::messaging::command::</text>
<text text-anchor="start" x="202" y="-444" font-family="Helvetica,sans-Serif" font-size="10.00">TypedCommandHandler&lt; TimerControl</text>
<text text-anchor="middle" x="298.5" y="-433" font-family="Helvetica,sans-Serif" font-size="10.00">Command &gt;</text>
</a>
</g>
</g>
<!-- Node0&#45;&gt;Node10 -->
<g id="edge59_Node000000_Node000010" class="edge">
<title>Node0&#45;&gt;Node10</title>
<g id="a_edge59_Node000000_Node000010"><a xlink:title=" ">
<path fill="none" stroke="#63b8ff" d="M138.09,-405.75C149.71,-409.62 161.67,-413.5 173,-417 182.65,-419.99 192.76,-423 202.86,-425.95"/>
<polygon fill="#63b8ff" stroke="#63b8ff" points="139.03,-402.38 128.44,-402.52 136.81,-409.02 139.03,-402.38"/>
</a>
</g>
</g>
<!-- Node12 -->
<g id="Node000012" class="node">
<title>Node12</title>
<g id="a_Node000012"><a xlink:href="classhelios_1_1engine_1_1runtime_1_1messaging_1_1command_1_1TypedCommandHandler.html" target="_top" xlink:title=" ">
<polygon fill="white" stroke="#666666" points="398,-408 199,-408 199,-356 398,-356 398,-408"/>
<text text-anchor="start" x="207" y="-396" font-family="Helvetica,sans-Serif" font-size="10.00">helios::engine::runtime</text>
<text text-anchor="start" x="207" y="-385" font-family="Helvetica,sans-Serif" font-size="10.00">::messaging::command::</text>
<text text-anchor="start" x="207" y="-374" font-family="Helvetica,sans-Serif" font-size="10.00">TypedCommandHandler&lt; commands</text>
<text text-anchor="middle" x="298.5" y="-363" font-family="Helvetica,sans-Serif" font-size="10.00">::UiActionCommand &gt;</text>
</a>
</g>
</g>
<!-- Node0&#45;&gt;Node12 -->
<g id="edge61_Node000000_Node000012" class="edge">
<title>Node0&#45;&gt;Node12</title>
<g id="a_edge61_Node000000_Node000012"><a xlink:title=" ">
<path fill="none" stroke="#63b8ff" d="M147.41,-382C163.93,-382 181.57,-382 198.75,-382"/>
<polygon fill="#63b8ff" stroke="#63b8ff" points="147.29,-378.5 137.29,-382 147.29,-385.5 147.29,-378.5"/>
</a>
</g>
</g>
<!-- Node15 -->
<g id="Node000015" class="node">
<title>Node15</title>
<g id="a_Node000015"><a xlink:href="classhelios_1_1engine_1_1runtime_1_1messaging_1_1command_1_1TypedCommandHandler.html" target="_top" xlink:title=" ">
<polygon fill="white" stroke="#666666" points="418,-537.5 179,-537.5 179,-496.5 418,-496.5 418,-537.5"/>
<text text-anchor="start" x="187" y="-525.5" font-family="Helvetica,sans-Serif" font-size="10.00">helios::engine::runtime</text>
<text text-anchor="start" x="187" y="-514.5" font-family="Helvetica,sans-Serif" font-size="10.00">::messaging::command::</text>
<text text-anchor="middle" x="298.5" y="-503.5" font-family="Helvetica,sans-Serif" font-size="10.00">TypedCommandHandler&lt; SpawnCommand &gt;</text>
</a>
</g>
</g>
<!-- Node0&#45;&gt;Node15 -->
<g id="edge63_Node000000_Node000015" class="edge">
<title>Node0&#45;&gt;Node15</title>
<g id="a_edge63_Node000000_Node000015"><a xlink:title=" ">
<path fill="none" stroke="#63b8ff" d="M90.41,-410.82C109.32,-434.79 139.31,-467.96 173,-487 179.29,-490.56 185.99,-493.69 192.89,-496.46"/>
<polygon fill="#63b8ff" stroke="#63b8ff" points="93.07,-408.54 84.19,-402.76 87.53,-412.82 93.07,-408.54"/>
</a>
</g>
</g>
<!-- Node16 -->
<g id="Node000016" class="node">
<title>Node16</title>
<g id="a_Node000016"><a xlink:href="classhelios_1_1engine_1_1runtime_1_1messaging_1_1command_1_1TypedCommandHandler.html" target="_top" xlink:title=" ">
<polygon fill="white" stroke="#666666" points="424,-667.5 173,-667.5 173,-626.5 424,-626.5 424,-667.5"/>
<text text-anchor="start" x="181" y="-655.5" font-family="Helvetica,sans-Serif" font-size="10.00">helios::engine::runtime</text>
<text text-anchor="start" x="181" y="-644.5" font-family="Helvetica,sans-Serif" font-size="10.00">::messaging::command::</text>
<text text-anchor="middle" x="298.5" y="-633.5" font-family="Helvetica,sans-Serif" font-size="10.00">TypedCommandHandler&lt; DespawnCommand &gt;</text>
</a>
</g>
</g>
<!-- Node0&#45;&gt;Node16 -->
<g id="edge65_Node000000_Node000016" class="edge">
<title>Node0&#45;&gt;Node16</title>
<g id="a_edge65_Node000000_Node000016"><a xlink:title=" ">
<path fill="none" stroke="#63b8ff" d="M74.1,-412.59C83.37,-463.09 109.13,-563.62 173,-617 177.18,-620.49 181.7,-623.59 186.46,-626.34"/>
<polygon fill="#63b8ff" stroke="#63b8ff" points="77.53,-411.86 72.37,-402.61 70.63,-413.06 77.53,-411.86"/>
</a>
</g>
</g>
<!-- Node17 -->
<g id="Node000017" class="node">
<title>Node17</title>
<g id="a_Node000017"><a xlink:href="classhelios_1_1engine_1_1runtime_1_1messaging_1_1command_1_1TypedCommandHandler.html" target="_top" xlink:title=" ">
<polygon fill="white" stroke="#666666" points="396,-608 201,-608 201,-556 396,-556 396,-608"/>
<text text-anchor="start" x="209" y="-596" font-family="Helvetica,sans-Serif" font-size="10.00">helios::engine::runtime</text>
<text text-anchor="start" x="209" y="-585" font-family="Helvetica,sans-Serif" font-size="10.00">::messaging::command::</text>
<text text-anchor="start" x="209" y="-574" font-family="Helvetica,sans-Serif" font-size="10.00">TypedCommandHandler&lt; Scheduled</text>
<text text-anchor="middle" x="298.5" y="-563" font-family="Helvetica,sans-Serif" font-size="10.00">SpawnPlanCommand &gt;</text>
</a>
</g>
</g>
<!-- Node0&#45;&gt;Node17 -->
<g id="edge67_Node000000_Node000017" class="edge">
<title>Node0&#45;&gt;Node17</title>
<g id="a_edge67_Node000000_Node000017"><a xlink:title=" ">
<path fill="none" stroke="#63b8ff" d="M80.42,-412.01C95.51,-449.23 126.27,-512.04 173,-547 181.45,-553.32 190.99,-558.5 200.94,-562.75"/>
<polygon fill="#63b8ff" stroke="#63b8ff" points="83.67,-410.7 76.75,-402.68 77.16,-413.27 83.67,-410.7"/>
</a>
</g>
</g>
<!-- Node19 -->
<g id="Node000019" class="node">
<title>Node19</title>
<g id="a_Node000019"><a xlink:href="classhelios_1_1engine_1_1runtime_1_1messaging_1_1command_1_1TypedCommandHandler.html" target="_top" xlink:title=" ">
<polygon fill="white" stroke="#666666" points="409,-278 188,-278 188,-226 409,-226 409,-278"/>
<text text-anchor="start" x="196" y="-266" font-family="Helvetica,sans-Serif" font-size="10.00">helios::engine::runtime</text>
<text text-anchor="start" x="196" y="-255" font-family="Helvetica,sans-Serif" font-size="10.00">::messaging::command::</text>
<text text-anchor="start" x="196" y="-244" font-family="Helvetica,sans-Serif" font-size="10.00">TypedCommandHandler&lt; StateCommand</text>
<text text-anchor="middle" x="298.5" y="-233" font-family="Helvetica,sans-Serif" font-size="10.00">&lt; StateType &gt; &gt;</text>
</a>
</g>
</g>
<!-- Node0&#45;&gt;Node19 -->
<g id="edge69_Node000000_Node000019" class="edge">
<title>Node0&#45;&gt;Node19</title>
<g id="a_edge69_Node000000_Node000019"><a xlink:title=" ">
<path fill="none" stroke="#63b8ff" d="M93.86,-353.79C113.34,-332.86 142.37,-305.11 173,-288 179.48,-284.38 186.36,-281.09 193.43,-278.12"/>
<polygon fill="#63b8ff" stroke="#63b8ff" points="91.03,-351.69 86.88,-361.44 96.2,-356.41 91.03,-351.69"/>
</a>
</g>
</g>
<!-- Node20 -->
<g id="Node000020" class="node">
<title>Node20</title>
<g id="a_Node000020"><a xlink:href="classhelios_1_1engine_1_1runtime_1_1messaging_1_1command_1_1TypedCommandHandler.html" target="_top" xlink:title="Type&#45;safe handler for a specific command type.">
<polygon fill="white" stroke="#666666" points="413,-337.5 184,-337.5 184,-296.5 413,-296.5 413,-337.5"/>
<text text-anchor="start" x="192" y="-325.5" font-family="Helvetica,sans-Serif" font-size="10.00">helios::engine::runtime</text>
<text text-anchor="start" x="192" y="-314.5" font-family="Helvetica,sans-Serif" font-size="10.00">::messaging::command::</text>
<text text-anchor="middle" x="298.5" y="-303.5" font-family="Helvetica,sans-Serif" font-size="10.00">TypedCommandHandler&lt; CommandType &gt;</text>
</a>
</g>
</g>
<!-- Node0&#45;&gt;Node20 -->
<g id="edge71_Node000000_Node000020" class="edge">
<title>Node0&#45;&gt;Node20</title>
<g id="a_edge71_Node000000_Node000020"><a xlink:title=" ">
<path fill="none" stroke="#63b8ff" d="M136.76,-358.28C148.77,-354.33 161.21,-350.41 173,-347 184.32,-343.73 196.29,-340.53 208.15,-337.5"/>
<polygon fill="#63b8ff" stroke="#63b8ff" points="135.62,-354.97 127.24,-361.46 137.83,-361.62 135.62,-354.97"/>
</a>
</g>
</g>
<!-- Node2 -->
<g id="Node000002" class="node">
<title>Node2</title>
<g id="a_Node000002"><a xlink:href="classhelios_1_1engine_1_1mechanics_1_1lifecycle_1_1WorldLifecycleManager.html" target="_top" xlink:title="Manager that processes deferred world lifecycle commands.">
<polygon fill="white" stroke="#666666" points="646.5,-89 462.5,-89 462.5,-59 646.5,-59 646.5,-89"/>
<text text-anchor="start" x="470.5" y="-77" font-family="Helvetica,sans-Serif" font-size="10.00">helios::engine::mechanics</text>
<text text-anchor="middle" x="554.5" y="-66" font-family="Helvetica,sans-Serif" font-size="10.00">::lifecycle::WorldLifecycleManager</text>
</a>
</g>
</g>
<!-- Node1&#45;&gt;Node2 -->
<g id="edge56_Node000001_Node000002" class="edge">
<title>Node1&#45;&gt;Node2</title>
<g id="a_edge56_Node000001_Node000002"><a xlink:title=" ">
<path fill="none" stroke="#63b8ff" d="M416.82,-85.84C432.05,-84.52 447.47,-83.18 462.19,-81.91"/>
<polygon fill="#63b8ff" stroke="#63b8ff" points="416.51,-82.35 406.85,-86.7 417.12,-89.33 416.51,-82.35"/>
</a>
</g>
</g>
<!-- Node7 -->
<g id="Node000007" class="node">
<title>Node7</title>
<g id="a_Node000007"><a xlink:href="classhelios_1_1engine_1_1mechanics_1_1scoring_1_1ScorePoolManager.html" target="_top" xlink:title="Manages score pools and processes score commands.">
<polygon fill="white" stroke="#666666" points="632,-41 477,-41 477,-11 632,-11 632,-41"/>
<text text-anchor="start" x="485" y="-29" font-family="Helvetica,sans-Serif" font-size="10.00">helios::engine::mechanics</text>
<text text-anchor="middle" x="554.5" y="-18" font-family="Helvetica,sans-Serif" font-size="10.00">::scoring::ScorePoolManager</text>
</a>
</g>
</g>
<!-- Node8&#45;&gt;Node7 -->
<g id="edge58_Node000008_Node000007" class="edge">
<title>Node8&#45;&gt;Node7</title>
<g id="a_edge58_Node000008_Node000007"><a xlink:title=" ">
<path fill="none" stroke="#63b8ff" d="M412.36,-26C434.12,-26 456.44,-26 476.72,-26"/>
<polygon fill="#63b8ff" stroke="#63b8ff" points="412.08,-22.5 402.08,-26 412.08,-29.5 412.08,-22.5"/>
</a>
</g>
</g>
<!-- Node9 -->
<g id="Node000009" class="node">
<title>Node9</title>
<g id="a_Node000009"><a xlink:href="classhelios_1_1engine_1_1mechanics_1_1timing_1_1TimerManager.html" target="_top" xlink:title="Manager that owns game timers and processes timer control commands.">
<polygon fill="white" stroke="#666666" points="626,-448 483,-448 483,-418 626,-418 626,-448"/>
<text text-anchor="start" x="491" y="-436" font-family="Helvetica,sans-Serif" font-size="10.00">helios::engine::mechanics</text>
<text text-anchor="middle" x="554.5" y="-425" font-family="Helvetica,sans-Serif" font-size="10.00">::timing::TimerManager</text>
</a>
</g>
</g>
<!-- Node10&#45;&gt;Node9 -->
<g id="edge60_Node000010_Node000009" class="edge">
<title>Node10&#45;&gt;Node9</title>
<g id="a_edge60_Node000010_Node000009"><a xlink:title=" ">
<path fill="none" stroke="#63b8ff" d="M413.27,-443.49C436.92,-441.72 461.19,-439.91 482.74,-438.29"/>
<polygon fill="#63b8ff" stroke="#63b8ff" points="412.89,-440.01 403.18,-444.24 413.41,-446.99 412.89,-440.01"/>
</a>
</g>
</g>
<!-- Node11 -->
<g id="Node000011" class="node">
<title>Node11</title>
<g id="a_Node000011"><a xlink:href="classhelios_1_1engine_1_1modules_1_1ui_1_1UiActionCommandManager.html" target="_top" xlink:title="Manages and processes UI action commands with policy&#45;based dispatch.">
<polygon fill="white" stroke="#666666" points="640.5,-380 468.5,-380 468.5,-350 640.5,-350 640.5,-380"/>
<text text-anchor="start" x="476.5" y="-368" font-family="Helvetica,sans-Serif" font-size="10.00">helios::engine::modules</text>
<text text-anchor="middle" x="554.5" y="-357" font-family="Helvetica,sans-Serif" font-size="10.00">::ui::UiActionCommandManager</text>
</a>
</g>
</g>
<!-- Node12&#45;&gt;Node11 -->
<g id="edge62_Node000012_Node000011" class="edge">
<title>Node12&#45;&gt;Node11</title>
<g id="a_edge62_Node000012_Node000011"><a xlink:title=" ">
<path fill="none" stroke="#63b8ff" d="M408.18,-374.73C428.25,-373.38 448.95,-372 468.2,-370.71"/>
<polygon fill="#63b8ff" stroke="#63b8ff" points="407.81,-371.24 398.07,-375.4 408.28,-378.23 407.81,-371.24"/>
</a>
</g>
</g>
<!-- Node14 -->
<g id="Node000014" class="node">
<title>Node14</title>
<g id="a_Node000014"><a xlink:href="classhelios_1_1engine_1_1runtime_1_1spawn_1_1SpawnManager.html" target="_top" xlink:title="Manager for processing spawn and despawn commands.">
<polygon fill="white" stroke="#666666" points="622,-564 487,-564 487,-534 622,-534 622,-564"/>
<text text-anchor="start" x="495" y="-552" font-family="Helvetica,sans-Serif" font-size="10.00">helios::engine::runtime</text>
<text text-anchor="middle" x="554.5" y="-541" font-family="Helvetica,sans-Serif" font-size="10.00">::spawn::SpawnManager</text>
</a>
</g>
</g>
<!-- Node15&#45;&gt;Node14 -->
<g id="edge64_Node000015_Node000014" class="edge">
<title>Node15&#45;&gt;Node14</title>
<g id="a_edge64_Node000015_Node000014"><a xlink:title=" ">
<path fill="none" stroke="#63b8ff" d="M428.25,-533.22C448.48,-535.77 468.65,-538.31 486.7,-540.58"/>
<polygon fill="#63b8ff" stroke="#63b8ff" points="428.68,-529.75 418.32,-531.97 427.8,-536.69 428.68,-529.75"/>
</a>
</g>
</g>
<!-- Node16&#45;&gt;Node14 -->
<g id="edge66_Node000016_Node000014" class="edge">
<title>Node16&#45;&gt;Node14</title>
<g id="a_edge66_Node000016_Node000014"><a xlink:title=" ">
<path fill="none" stroke="#63b8ff" d="M404.96,-623.54C411.46,-621.5 417.85,-619.32 424,-617 462.26,-602.6 503.62,-579.42 529.04,-564.19"/>
<polygon fill="#63b8ff" stroke="#63b8ff" points="403.95,-620.19 395.39,-626.44 405.98,-626.89 403.95,-620.19"/>
</a>
</g>
</g>
<!-- Node17&#45;&gt;Node14 -->
<g id="edge68_Node000017_Node000014" class="edge">
<title>Node17&#45;&gt;Node14</title>
<g id="a_edge68_Node000017_Node000014"><a xlink:title=" ">
<path fill="none" stroke="#63b8ff" d="M406.27,-568.13C433.63,-564.57 462.28,-560.85 486.96,-557.64"/>
<polygon fill="#63b8ff" stroke="#63b8ff" points="405.72,-564.67 396.25,-569.43 406.62,-571.61 405.72,-564.67"/>
</a>
</g>
</g>
<!-- Node18 -->
<g id="Node000018" class="node">
<title>Node18</title>
<g id="a_Node000018"><a xlink:href="classhelios_1_1engine_1_1state_1_1StateManager.html" target="_top" xlink:title="Manages state transitions using a rule&#45;based system.">
<polygon fill="white" stroke="#666666" points="635,-315 474,-315 474,-285 635,-285 635,-315"/>
<text text-anchor="start" x="482" y="-303" font-family="Helvetica,sans-Serif" font-size="10.00">helios::engine::state</text>
<text text-anchor="middle" x="554.5" y="-292" font-family="Helvetica,sans-Serif" font-size="10.00">::StateManager&lt; StateType &gt;</text>
</a>
</g>
</g>
<!-- Node19&#45;&gt;Node18 -->
<g id="edge70_Node000019_Node000018" class="edge">
<title>Node19&#45;&gt;Node18</title>
<g id="a_edge70_Node000019_Node000018"><a xlink:title=" ">
<path fill="none" stroke="#63b8ff" d="M419.04,-274.59C437.61,-278.1 456.39,-281.65 473.78,-284.94"/>
<polygon fill="#63b8ff" stroke="#63b8ff" points="419.54,-271.12 409.06,-272.7 418.24,-278 419.54,-271.12"/>
</a>
</g>
</g>
<!-- Node3 -->
<g id="Node000003" class="node">
<title>Node3</title>
<g id="a_Node000003"><a xlink:href="classhelios_1_1engine_1_1runtime_1_1world_1_1Manager.html" target="_top" xlink:title="Abstract base class for managers that process deferred operations.">
<polygon fill="white" stroke="#666666" points="363,-208 234,-208 234,-178 363,-178 363,-208"/>
<text text-anchor="start" x="242" y="-196" font-family="Helvetica,sans-Serif" font-size="10.00">helios::engine::runtime</text>
<text text-anchor="middle" x="298.5" y="-185" font-family="Helvetica,sans-Serif" font-size="10.00">::world::Manager</text>
</a>
</g>
</g>
<!-- Node3&#45;&gt;Node2 -->
<g id="edge74_Node000003_Node000002" class="edge">
<title>Node3&#45;&gt;Node2</title>
<g id="a_edge74_Node000003_Node000002"><a xlink:title=" ">
<path fill="none" stroke="#63b8ff" d="M373.17,-190.02C391.15,-186.4 409.39,-180.01 424,-169 452.25,-147.7 432.41,-120.15 460,-98 464.31,-94.54 469.07,-91.57 474.08,-89.03"/>
<polygon fill="#63b8ff" stroke="#63b8ff" points="372.48,-186.58 363.23,-191.75 373.68,-193.48 372.48,-186.58"/>
</a>
</g>
</g>
<!-- Node3&#45;&gt;Node7 -->
<g id="edge75_Node000003_Node000007" class="edge">
<title>Node3&#45;&gt;Node7</title>
<g id="a_edge75_Node000003_Node000007"><a xlink:title=" ">
<path fill="none" stroke="#63b8ff" d="M373.21,-191.98C391.63,-188.42 410.07,-181.56 424,-169 465.04,-132 420.11,-88.23 460,-50 464.96,-45.25 470.73,-41.4 476.92,-38.29"/>
<polygon fill="#63b8ff" stroke="#63b8ff" points="372.62,-188.53 363.32,-193.59 373.75,-195.43 372.62,-188.53"/>
</a>
</g>
</g>
<!-- Node3&#45;&gt;Node9 -->
<g id="edge76_Node000003_Node000009" class="edge">
<title>Node3&#45;&gt;Node9</title>
<g id="a_edge76_Node000003_Node000009"><a xlink:title=" ">
<path fill="none" stroke="#63b8ff" d="M373.14,-193.07C391.83,-196.58 410.44,-203.65 424,-217 479.66,-271.79 411.58,-327.72 460,-389 470.23,-401.95 485.18,-411.28 500.14,-417.91"/>
<polygon fill="#63b8ff" stroke="#63b8ff" points="373.5,-189.58 363.08,-191.51 372.43,-196.5 373.5,-189.58"/>
</a>
</g>
</g>
<!-- Node3&#45;&gt;Node11 -->
<g id="edge77_Node000003_Node000011" class="edge">
<title>Node3&#45;&gt;Node11</title>
<g id="a_edge77_Node000003_Node000011"><a xlink:title=" ">
<path fill="none" stroke="#63b8ff" d="M372.96,-194.31C391.37,-197.87 409.88,-204.66 424,-217 461.78,-250.02 426.13,-286.98 460,-324 470.41,-335.38 484.54,-343.76 498.67,-349.86"/>
<polygon fill="#63b8ff" stroke="#63b8ff" points="373.5,-190.85 363.07,-192.69 372.37,-197.76 373.5,-190.85"/>
</a>
</g>
</g>
<!-- Node3&#45;&gt;Node14 -->
<g id="edge79_Node000003_Node000014" class="edge">
<title>Node3&#45;&gt;Node14</title>
<g id="a_edge79_Node000003_Node000014"><a xlink:title=" ">
<path fill="none" stroke="#63b8ff" d="M373.38,-192.51C392.17,-196 410.76,-203.2 424,-217 498.67,-294.84 411.04,-360.89 460,-457 476.64,-489.67 509.33,-517.63 531.3,-533.89"/>
<polygon fill="#63b8ff" stroke="#63b8ff" points="373.67,-189.02 363.26,-190.98 372.62,-195.94 373.67,-189.02"/>
</a>
</g>
</g>
<!-- Node3&#45;&gt;Node18 -->
<g id="edge80_Node000003_Node000018" class="edge">
<title>Node3&#45;&gt;Node18</title>
<g id="a_edge80_Node000003_Node000018"><a xlink:title=" ">
<path fill="none" stroke="#63b8ff" d="M373.63,-196.99C391.29,-200.62 409.26,-206.77 424,-217 449.24,-234.51 435.31,-257.73 460,-276 464.58,-279.39 469.59,-282.3 474.84,-284.8"/>
<polygon fill="#63b8ff" stroke="#63b8ff" points="373.76,-193.46 363.3,-195.14 372.52,-200.35 373.76,-193.46"/>
</a>
</g>
</g>
<!-- Node4 -->
<g id="Node000004" class="node">
<title>Node4</title>
<g id="a_Node000004"><a xlink:href="classhelios_1_1engine_1_1state_1_1StateManager.html" target="_top" xlink:title=" ">
<polygon fill="white" stroke="#666666" points="619,-218.5 490,-218.5 490,-177.5 619,-177.5 619,-218.5"/>
<text text-anchor="start" x="498" y="-206.5" font-family="Helvetica,sans-Serif" font-size="10.00">helios::engine::state</text>
<text text-anchor="start" x="498" y="-195.5" font-family="Helvetica,sans-Serif" font-size="10.00">::StateManager&lt; types</text>
<text text-anchor="middle" x="554.5" y="-184.5" font-family="Helvetica,sans-Serif" font-size="10.00">::GameState &gt;</text>
</a>
</g>
</g>
<!-- Node3&#45;&gt;Node4 -->
<g id="edge72_Node000003_Node000004" class="edge">
<title>Node3&#45;&gt;Node4</title>
<g id="a_edge72_Node000003_Node000004"><a xlink:title=" ">
<path fill="none" stroke="#63b8ff" d="M373.45,-194.46C410.28,-195.18 454.38,-196.05 489.71,-196.74"/>
<polygon fill="#63b8ff" stroke="#63b8ff" points="373.33,-190.95 363.27,-194.26 373.2,-197.95 373.33,-190.95"/>
</a>
</g>
</g>
<!-- Node6 -->
<g id="Node000006" class="node">
<title>Node6</title>
<g id="a_Node000006"><a xlink:href="classhelios_1_1engine_1_1state_1_1StateManager.html" target="_top" xlink:title=" ">
<polygon fill="white" stroke="#666666" points="630,-159 479,-159 479,-107 630,-107 630,-159"/>
<text text-anchor="start" x="487" y="-147" font-family="Helvetica,sans-Serif" font-size="10.00">helios::engine::state</text>
<text text-anchor="start" x="487" y="-136" font-family="Helvetica,sans-Serif" font-size="10.00">::StateManager&lt; helios</text>
<text text-anchor="start" x="487" y="-125" font-family="Helvetica,sans-Serif" font-size="10.00">::engine::mechanics::match</text>
<text text-anchor="middle" x="554.5" y="-114" font-family="Helvetica,sans-Serif" font-size="10.00">::types::MatchState &gt;</text>
</a>
</g>
</g>
<!-- Node3&#45;&gt;Node6 -->
<g id="edge73_Node000003_Node000006" class="edge">
<title>Node3&#45;&gt;Node6</title>
<g id="a_edge73_Node000003_Node000006"><a xlink:title=" ">
<path fill="none" stroke="#63b8ff" d="M373.32,-179.79C390.04,-176.51 407.67,-172.84 424,-169 441.83,-164.81 460.91,-159.8 478.78,-154.88"/>
<polygon fill="#63b8ff" stroke="#63b8ff" points="372.2,-176.44 363.05,-181.77 373.53,-183.31 372.2,-176.44"/>
</a>
</g>
</g>
<!-- Node13 -->
<g id="Node000013" class="node">
<title>Node13</title>
<g id="a_Node000013"><a xlink:href="classhelios_1_1engine_1_1runtime_1_1pooling_1_1GameObjectPoolManager.html" target="_top" xlink:title="High&#45;level manager for GameObject pooling operations.">
<polygon fill="white" stroke="#666666" points="649,-267 460,-267 460,-237 649,-237 649,-267"/>
<text text-anchor="start" x="468" y="-255" font-family="Helvetica,sans-Serif" font-size="10.00">helios::engine::runtime</text>
<text text-anchor="middle" x="554.5" y="-244" font-family="Helvetica,sans-Serif" font-size="10.00">::pooling::GameObjectPoolManager</text>
</a>
</g>
</g>
<!-- Node3&#45;&gt;Node13 -->
<g id="edge78_Node000003_Node000013" class="edge">
<title>Node3&#45;&gt;Node13</title>
<g id="a_edge78_Node000003_Node000013"><a xlink:title=" ">
<path fill="none" stroke="#63b8ff" d="M373.39,-205.9C390.11,-209.19 407.72,-212.96 424,-217 440.24,-221.03 443.89,-223.47 460,-228 470.73,-231.01 482.19,-234.08 493.29,-236.97"/>
<polygon fill="#63b8ff" stroke="#63b8ff" points="373.6,-202.38 363.12,-203.92 372.27,-209.25 373.6,-202.38"/>
</a>
</g>
</g>
<!-- Node5 -->
<g id="Node000005" class="node">
<title>Node5</title>
<g id="a_Node000005"><a xlink:title=" ">
<polygon fill="#e0e0e0" stroke="#999999" points="365.5,-159.5 231.5,-159.5 231.5,-140.5 365.5,-140.5 365.5,-159.5"/>
<text text-anchor="middle" x="298.5" y="-147.5" font-family="Helvetica,sans-Serif" font-size="10.00">TypedCommandHandler</text>
</a>
</g>
</g>
<!-- Node5&#45;&gt;Node4 -->
<g id="edge81_Node000005_Node000004" class="edge">
<title>Node5&#45;&gt;Node4</title>
<g id="a_edge81_Node000005_Node000004"><a xlink:title=" ">
<path fill="none" stroke="#63b8ff" d="M375.44,-160.74C391.51,-163.25 408.34,-166.06 424,-169 445.51,-173.04 468.89,-178.08 489.79,-182.82"/>
<polygon fill="#63b8ff" stroke="#63b8ff" points="375.96,-157.28 365.55,-159.21 374.9,-164.2 375.96,-157.28"/>
</a>
</g>
</g>
<!-- Node5&#45;&gt;Node6 -->
<g id="edge82_Node000005_Node000006" class="edge">
<title>Node5&#45;&gt;Node6</title>
<g id="a_edge82_Node000005_Node000006"><a xlink:title=" ">
<path fill="none" stroke="#63b8ff" d="M375.95,-144.88C408.53,-142.7 446.4,-140.17 478.79,-138"/>
<polygon fill="#63b8ff" stroke="#63b8ff" points="375.32,-141.42 365.57,-145.58 375.78,-148.4 375.32,-141.42"/>
</a>
</g>
</g>
</g>
</svg>
