<?xml version="1.0" encoding="UTF-8" standalone="no"?>
<!DOCTYPE svg PUBLIC "-//W3C//DTD SVG 1.1//EN"
 "http://www.w3.org/Graphics/SVG/1.1/DTD/svg11.dtd">
<!-- Generated by graphviz version 2.43.0 (0)
 -->
<!-- Title: Graphical Class Hierarchy Pages: 1 -->
<svg width="298pt" height="431pt"
 viewBox="0.00 0.00 298.00 431.00" xmlns="http://www.w3.org/2000/svg" xmlns:xlink="http://www.w3.org/1999/xlink">
<g id="graph0" class="graph" transform="scale(1 1) rotate(0) translate(4 427)">
<title>Graphical Class Hierarchy</title>
<!-- Node0 -->
<g id="Node000000" class="node">
<title>Node0</title>
<g id="a_Node000000"><a xlink:href="structhelios_1_1rendering_1_1asset_1_1shape_1_1Shape.html" target="_top" xlink:title="Struct representing geometric primitives and indices for various shapes. provides immutable,...">
<polygon fill="white" stroke="#666666" points="114,-231.5 0,-231.5 0,-201.5 114,-201.5 114,-231.5"/>
<text text-anchor="start" x="8" y="-219.5" font-family="Helvetica,sans-Serif" font-size="10.00">helios::rendering::</text>
<text text-anchor="middle" x="57" y="-208.5" font-family="Helvetica,sans-Serif" font-size="10.00">asset::shape::Shape</text>
</a>
</g>
</g>
<!-- Node1 -->
<g id="Node000001" class="node">
<title>Node1</title>
<g id="a_Node000001"><a xlink:href="structhelios_1_1rendering_1_1asset_1_1shape_1_1basic_1_1Circle.html" target="_top" xlink:title="Basic Circle Shape (2D, in XY plane).">
<polygon fill="white" stroke="#666666" points="275,-423 165,-423 165,-382 275,-382 275,-423"/>
<text text-anchor="start" x="173" y="-411" font-family="Helvetica,sans-Serif" font-size="10.00">helios::rendering::</text>
<text text-anchor="start" x="173" y="-400" font-family="Helvetica,sans-Serif" font-size="10.00">asset::shape::basic</text>
<text text-anchor="middle" x="220" y="-389" font-family="Helvetica,sans-Serif" font-size="10.00">::Circle</text>
</a>
</g>
</g>
<!-- Node0&#45;&gt;Node1 -->
<g id="edge91_Node000000_Node000001" class="edge">
<title>Node0&#45;&gt;Node1</title>
<g id="a_edge91_Node000000_Node000001"><a xlink:title=" ">
<path fill="none" stroke="#63b8ff" d="M67.03,-241.53C80.38,-275.36 108.37,-335.69 150,-372.5 154.5,-376.48 159.61,-380 164.97,-383.09"/>
<polygon fill="#63b8ff" stroke="#63b8ff" points="70.2,-240.02 63.36,-231.93 63.66,-242.52 70.2,-240.02"/>
</a>
</g>
</g>
<!-- Node2 -->
<g id="Node000002" class="node">
<title>Node2</title>
<g id="a_Node000002"><a xlink:href="structhelios_1_1rendering_1_1asset_1_1shape_1_1basic_1_1Cube.html" target="_top" xlink:title="Basic Cube Shape.">
<polygon fill="white" stroke="#666666" points="290,-363.5 150,-363.5 150,-333.5 290,-333.5 290,-363.5"/>
<text text-anchor="start" x="158" y="-351.5" font-family="Helvetica,sans-Serif" font-size="10.00">helios::rendering::</text>
<text text-anchor="middle" x="220" y="-340.5" font-family="Helvetica,sans-Serif" font-size="10.00">asset::shape::basic::Cube</text>
</a>
</g>
</g>
<!-- Node0&#45;&gt;Node2 -->
<g id="edge92_Node000000_Node000002" class="edge">
<title>Node0&#45;&gt;Node2</title>
<g id="a_edge92_Node000000_Node000002"><a xlink:title=" ">
<path fill="none" stroke="#63b8ff" d="M72.7,-240.26C88.88,-264.58 117.01,-301.93 150,-324.5 154.92,-327.87 160.36,-330.8 165.96,-333.36"/>
<polygon fill="#63b8ff" stroke="#63b8ff" points="75.48,-238.11 67.1,-231.63 69.61,-241.92 75.48,-238.11"/>
</a>
</g>
</g>
<!-- Node3 -->
<g id="Node000003" class="node">
<title>Node3</title>
<g id="a_Node000003"><a xlink:href="structhelios_1_1rendering_1_1asset_1_1shape_1_1basic_1_1Ellipse.html" target="_top" xlink:title="Basic Ellipse Shape (2D, in XY plane).">
<polygon fill="white" stroke="#666666" points="275,-315 165,-315 165,-274 275,-274 275,-315"/>
<text text-anchor="start" x="173" y="-303" font-family="Helvetica,sans-Serif" font-size="10.00">helios::rendering::</text>
<text text-anchor="start" x="173" y="-292" font-family="Helvetica,sans-Serif" font-size="10.00">asset::shape::basic</text>
<text text-anchor="middle" x="220" y="-281" font-family="Helvetica,sans-Serif" font-size="10.00">::Ellipse</text>
</a>
</g>
</g>
<!-- Node0&#45;&gt;Node3 -->
<g id="edge93_Node000000_Node000003" class="edge">
<title>Node0&#45;&gt;Node3</title>
<g id="a_edge93_Node000000_Node000003"><a xlink:title=" ">
<path fill="none" stroke="#63b8ff" d="M94.45,-236.27C111.23,-245.18 131.48,-255.66 150,-264.5 156.6,-267.65 163.62,-270.86 170.55,-273.95"/>
<polygon fill="#63b8ff" stroke="#63b8ff" points="95.99,-233.13 85.52,-231.51 92.7,-239.31 95.99,-233.13"/>
</a>
</g>
</g>
<!-- Node4 -->
<g id="Node000004" class="node">
<title>Node4</title>
<g id="a_Node000004"><a xlink:href="structhelios_1_1rendering_1_1asset_1_1shape_1_1basic_1_1Grid.html" target="_top" xlink:title="A configurable grid shape for rendering reference lines in 3D space.">
<polygon fill="white" stroke="#666666" points="288,-255.5 152,-255.5 152,-225.5 288,-225.5 288,-255.5"/>
<text text-anchor="start" x="160" y="-243.5" font-family="Helvetica,sans-Serif" font-size="10.00">helios::rendering::</text>
<text text-anchor="middle" x="220" y="-232.5" font-family="Helvetica,sans-Serif" font-size="10.00">asset::shape::basic::Grid</text>
</a>
</g>
</g>
<!-- Node0&#45;&gt;Node4 -->
<g id="edge94_Node000000_Node000004" class="edge">
<title>Node0&#45;&gt;Node4</title>
<g id="a_edge94_Node000000_Node000004"><a xlink:title=" ">
<path fill="none" stroke="#63b8ff" d="M124.43,-226.4C133.52,-227.76 142.84,-229.15 151.94,-230.5"/>
<polygon fill="#63b8ff" stroke="#63b8ff" points="124.72,-222.91 114.31,-224.89 123.68,-229.83 124.72,-222.91"/>
</a>
</g>
</g>
<!-- Node5 -->
<g id="Node000005" class="node">
<title>Node5</title>
<g id="a_Node000005"><a xlink:href="structhelios_1_1rendering_1_1asset_1_1shape_1_1basic_1_1Line.html" target="_top" xlink:title="Basic Line Shape.">
<polygon fill="white" stroke="#666666" points="288,-207.5 152,-207.5 152,-177.5 288,-177.5 288,-207.5"/>
<text text-anchor="start" x="160" y="-195.5" font-family="Helvetica,sans-Serif" font-size="10.00">helios::rendering::</text>
<text text-anchor="middle" x="220" y="-184.5" font-family="Helvetica,sans-Serif" font-size="10.00">asset::shape::basic::Line</text>
</a>
</g>
</g>
<!-- Node0&#45;&gt;Node5 -->
<g id="edge95_Node000000_Node000005" class="edge">
<title>Node0&#45;&gt;Node5</title>
<g id="a_edge95_Node000000_Node000005"><a xlink:title=" ">
<path fill="none" stroke="#63b8ff" d="M124.43,-206.6C133.52,-205.24 142.84,-203.85 151.94,-202.5"/>
<polygon fill="#63b8ff" stroke="#63b8ff" points="123.68,-203.17 114.31,-208.11 124.72,-210.09 123.68,-203.17"/>
</a>
</g>
</g>
<!-- Node6 -->
<g id="Node000006" class="node">
<title>Node6</title>
<g id="a_Node000006"><a xlink:href="structhelios_1_1rendering_1_1asset_1_1shape_1_1basic_1_1Rectangle.html" target="_top" xlink:title="Basic Rectangle Shape.">
<polygon fill="white" stroke="#666666" points="275,-159 165,-159 165,-118 275,-118 275,-159"/>
<text text-anchor="start" x="173" y="-147" font-family="Helvetica,sans-Serif" font-size="10.00">helios::rendering::</text>
<text text-anchor="start" x="173" y="-136" font-family="Helvetica,sans-Serif" font-size="10.00">asset::shape::basic</text>
<text text-anchor="middle" x="220" y="-125" font-family="Helvetica,sans-Serif" font-size="10.00">::Rectangle</text>
</a>
</g>
</g>
<!-- Node0&#45;&gt;Node6 -->
<g id="edge96_Node000000_Node000006" class="edge">
<title>Node0&#45;&gt;Node6</title>
<g id="a_edge96_Node000000_Node000006"><a xlink:title=" ">
<path fill="none" stroke="#63b8ff" d="M94.45,-196.73C111.23,-187.82 131.48,-177.34 150,-168.5 156.6,-165.35 163.62,-162.14 170.55,-159.05"/>
<polygon fill="#63b8ff" stroke="#63b8ff" points="92.7,-193.69 85.52,-201.49 95.99,-199.87 92.7,-193.69"/>
</a>
</g>
</g>
<!-- Node7 -->
<g id="Node000007" class="node">
<title>Node7</title>
<g id="a_Node000007"><a xlink:href="structhelios_1_1rendering_1_1asset_1_1shape_1_1basic_1_1Rhombus.html" target="_top" xlink:title="A 2D rhombus (diamond) shape primitive.">
<polygon fill="white" stroke="#666666" points="275,-100 165,-100 165,-59 275,-59 275,-100"/>
<text text-anchor="start" x="173" y="-88" font-family="Helvetica,sans-Serif" font-size="10.00">helios::rendering::</text>
<text text-anchor="start" x="173" y="-77" font-family="Helvetica,sans-Serif" font-size="10.00">asset::shape::basic</text>
<text text-anchor="middle" x="220" y="-66" font-family="Helvetica,sans-Serif" font-size="10.00">::Rhombus</text>
</a>
</g>
</g>
<!-- Node0&#45;&gt;Node7 -->
<g id="edge97_Node000000_Node000007" class="edge">
<title>Node0&#45;&gt;Node7</title>
<g id="a_edge97_Node000000_Node000007"><a xlink:title=" ">
<path fill="none" stroke="#63b8ff" d="M73.37,-193.07C89.92,-169.37 118.18,-132.96 150,-109.5 154.63,-106.09 159.7,-102.96 164.93,-100.13"/>
<polygon fill="#63b8ff" stroke="#63b8ff" points="70.38,-191.25 67.62,-201.48 76.16,-195.2 70.38,-191.25"/>
</a>
</g>
</g>
<!-- Node8 -->
<g id="Node000008" class="node">
<title>Node8</title>
<g id="a_Node000008"><a xlink:href="structhelios_1_1rendering_1_1asset_1_1shape_1_1basic_1_1Triangle.html" target="_top" xlink:title="Basic Triangle Shape.">
<polygon fill="white" stroke="#666666" points="275,-41 165,-41 165,0 275,0 275,-41"/>
<text text-anchor="start" x="173" y="-29" font-family="Helvetica,sans-Serif" font-size="10.00">helios::rendering::</text>
<text text-anchor="start" x="173" y="-18" font-family="Helvetica,sans-Serif" font-size="10.00">asset::shape::basic</text>
<text text-anchor="middle" x="220" y="-7" font-family="Helvetica,sans-Serif" font-size="10.00">::Triangle</text>
</a>
</g>
</g>
<!-- Node0&#45;&gt;Node8 -->
<g id="edge98_Node000000_Node000008" class="edge">
<title>Node0&#45;&gt;Node8</title>
<g id="a_edge98_Node000000_Node000008"><a xlink:title=" ">
<path fill="none" stroke="#63b8ff" d="M66.05,-191.42C78.67,-155.73 106.27,-90.22 150,-50.5 154.45,-46.46 159.52,-42.9 164.86,-39.79"/>
<polygon fill="#63b8ff" stroke="#63b8ff" points="62.68,-190.47 62.75,-201.07 69.3,-192.74 62.68,-190.47"/>
</a>
</g>
</g>
</g>
</svg>
