<?xml version="1.0" encoding="UTF-8" standalone="no"?>
<!DOCTYPE svg PUBLIC "-//W3C//DTD SVG 1.1//EN"
 "http://www.w3.org/Graphics/SVG/1.1/DTD/svg11.dtd">
<!-- Generated by graphviz version 2.43.0 (0)
 -->
<!-- Title: Graphical Class Hierarchy Pages: 1 -->
<svg width="298pt" height="264pt"
 viewBox="0.00 0.00 298.00 264.00" xmlns="http://www.w3.org/2000/svg" xmlns:xlink="http://www.w3.org/1999/xlink">
<g id="graph0" class="graph" transform="scale(1 1) rotate(0) translate(4 260)">
<title>Graphical Class Hierarchy</title>
<!-- Node0 -->
<g id="Node000000" class="node">
<title>Node0</title>
<g id="a_Node000000"><a xlink:href="structhelios_1_1rendering_1_1asset_1_1shape_1_1Shape.html" target="_top" xlink:title="Struct representing geometric primitives and indices for various shapes. provides immutable,...">
<polygon fill="white" stroke="#666666" points="114,-148.5 0,-148.5 0,-118.5 114,-118.5 114,-148.5"/>
<text text-anchor="start" x="8" y="-136.5" font-family="Helvetica,sans-Serif" font-size="10.00">helios::rendering::</text>
<text text-anchor="middle" x="57" y="-125.5" font-family="Helvetica,sans-Serif" font-size="10.00">asset::shape::Shape</text>
</a>
</g>
</g>
<!-- Node1 -->
<g id="Node000001" class="node">
<title>Node1</title>
<g id="a_Node000001"><a xlink:href="structhelios_1_1rendering_1_1asset_1_1shape_1_1basic_1_1Circle.html" target="_top" xlink:title="Basic Circle Shape (2D, in XY plane).">
<polygon fill="white" stroke="#666666" points="275,-256 165,-256 165,-215 275,-215 275,-256"/>
<text text-anchor="start" x="173" y="-244" font-family="Helvetica,sans-Serif" font-size="10.00">helios::rendering::</text>
<text text-anchor="start" x="173" y="-233" font-family="Helvetica,sans-Serif" font-size="10.00">asset::shape::basic</text>
<text text-anchor="middle" x="220" y="-222" font-family="Helvetica,sans-Serif" font-size="10.00">::Circle</text>
</a>
</g>
</g>
<!-- Node0&#45;&gt;Node1 -->
<g id="edge14_Node000000_Node000001" class="edge">
<title>Node0&#45;&gt;Node1</title>
<g id="a_edge14_Node000000_Node000001"><a xlink:title=" ">
<path fill="none" stroke="#63b8ff" d="M82.34,-155.35C100.2,-170.66 125.52,-190.92 150,-205.5 155.61,-208.84 161.66,-212.02 167.77,-214.98"/>
<polygon fill="#63b8ff" stroke="#63b8ff" points="84.53,-152.61 74.68,-148.69 79.94,-157.9 84.53,-152.61"/>
</a>
</g>
</g>
<!-- Node2 -->
<g id="Node000002" class="node">
<title>Node2</title>
<g id="a_Node000002"><a xlink:href="structhelios_1_1rendering_1_1asset_1_1shape_1_1basic_1_1Cube.html" target="_top" xlink:title="Basic Cube Shape.">
<polygon fill="white" stroke="#666666" points="290,-196.5 150,-196.5 150,-166.5 290,-166.5 290,-196.5"/>
<text text-anchor="start" x="158" y="-184.5" font-family="Helvetica,sans-Serif" font-size="10.00">helios::rendering::</text>
<text text-anchor="middle" x="220" y="-173.5" font-family="Helvetica,sans-Serif" font-size="10.00">asset::shape::basic::Cube</text>
</a>
</g>
</g>
<!-- Node0&#45;&gt;Node2 -->
<g id="edge15_Node000000_Node000002" class="edge">
<title>Node0&#45;&gt;Node2</title>
<g id="a_edge15_Node000000_Node000002"><a xlink:title=" ">
<path fill="none" stroke="#63b8ff" d="M118.13,-151.43C134.77,-156.39 152.66,-161.72 168.68,-166.5"/>
<polygon fill="#63b8ff" stroke="#63b8ff" points="119.08,-148.06 108.5,-148.56 117.08,-154.77 119.08,-148.06"/>
</a>
</g>
</g>
<!-- Node3 -->
<g id="Node000003" class="node">
<title>Node3</title>
<g id="a_Node000003"><a xlink:href="structhelios_1_1rendering_1_1asset_1_1shape_1_1basic_1_1Line.html" target="_top" xlink:title="Basic Line Shape.">
<polygon fill="white" stroke="#666666" points="288,-148.5 152,-148.5 152,-118.5 288,-118.5 288,-148.5"/>
<text text-anchor="start" x="160" y="-136.5" font-family="Helvetica,sans-Serif" font-size="10.00">helios::rendering::</text>
<text text-anchor="middle" x="220" y="-125.5" font-family="Helvetica,sans-Serif" font-size="10.00">asset::shape::basic::Line</text>
</a>
</g>
</g>
<!-- Node0&#45;&gt;Node3 -->
<g id="edge16_Node000000_Node000003" class="edge">
<title>Node0&#45;&gt;Node3</title>
<g id="a_edge16_Node000000_Node000003"><a xlink:title=" ">
<path fill="none" stroke="#63b8ff" d="M124.43,-133.5C133.52,-133.5 142.84,-133.5 151.94,-133.5"/>
<polygon fill="#63b8ff" stroke="#63b8ff" points="124.31,-130 114.31,-133.5 124.31,-137 124.31,-130"/>
</a>
</g>
</g>
<!-- Node4 -->
<g id="Node000004" class="node">
<title>Node4</title>
<g id="a_Node000004"><a xlink:href="structhelios_1_1rendering_1_1asset_1_1shape_1_1basic_1_1Rectangle.html" target="_top" xlink:title="Basic Rectangle Shape.">
<polygon fill="white" stroke="#666666" points="275,-100 165,-100 165,-59 275,-59 275,-100"/>
<text text-anchor="start" x="173" y="-88" font-family="Helvetica,sans-Serif" font-size="10.00">helios::rendering::</text>
<text text-anchor="start" x="173" y="-77" font-family="Helvetica,sans-Serif" font-size="10.00">asset::shape::basic</text>
<text text-anchor="middle" x="220" y="-66" font-family="Helvetica,sans-Serif" font-size="10.00">::Rectangle</text>
</a>
</g>
</g>
<!-- Node0&#45;&gt;Node4 -->
<g id="edge17_Node000000_Node000004" class="edge">
<title>Node0&#45;&gt;Node4</title>
<g id="a_edge17_Node000000_Node000004"><a xlink:title=" ">
<path fill="none" stroke="#63b8ff" d="M112.58,-115.19C129.48,-109.53 148.09,-103.28 164.96,-97.63"/>
<polygon fill="#63b8ff" stroke="#63b8ff" points="111.22,-111.96 102.85,-118.46 113.44,-118.6 111.22,-111.96"/>
</a>
</g>
</g>
<!-- Node5 -->
<g id="Node000005" class="node">
<title>Node5</title>
<g id="a_Node000005"><a xlink:href="structhelios_1_1rendering_1_1asset_1_1shape_1_1basic_1_1Triangle.html" target="_top" xlink:title="Basic Triangle Shape.">
<polygon fill="white" stroke="#666666" points="275,-41 165,-41 165,0 275,0 275,-41"/>
<text text-anchor="start" x="173" y="-29" font-family="Helvetica,sans-Serif" font-size="10.00">helios::rendering::</text>
<text text-anchor="start" x="173" y="-18" font-family="Helvetica,sans-Serif" font-size="10.00">asset::shape::basic</text>
<text text-anchor="middle" x="220" y="-7" font-family="Helvetica,sans-Serif" font-size="10.00">::Triangle</text>
</a>
</g>
</g>
<!-- Node0&#45;&gt;Node5 -->
<g id="edge18_Node000000_Node000005" class="edge">
<title>Node0&#45;&gt;Node5</title>
<g id="a_edge18_Node000000_Node000005"><a xlink:title=" ">
<path fill="none" stroke="#63b8ff" d="M78.75,-111.12C96.4,-93.04 123.1,-67.82 150,-50.5 155.27,-47.11 160.99,-43.93 166.81,-41.01"/>
<polygon fill="#63b8ff" stroke="#63b8ff" points="76.17,-108.76 71.76,-118.4 81.21,-113.61 76.17,-108.76"/>
</a>
</g>
</g>
</g>
</svg>
