<?xml version="1.0" encoding="UTF-8" standalone="no"?>
<!DOCTYPE svg PUBLIC "-//W3C//DTD SVG 1.1//EN"
 "http://www.w3.org/Graphics/SVG/1.1/DTD/svg11.dtd">
<!-- Generated by graphviz version 2.43.0 (0)
 -->
<!-- Title: include/helios/engine/game/InputSnapshot.ixx Pages: 1 -->
<!--zoomable 313 -->

<svg id="main" version="1.1" xmlns="http://www.w3.org/2000/svg" xmlns:xlink="http://www.w3.org/1999/xlink" xml:space="preserve" onload="init(evt)">

<style type="text/css"><![CDATA[
.node, .edge {opacity: 0.7;}
.node.selected, .edge.selected {opacity: 1;}
.edge:hover path { stroke: red; }
.edge:hover polygon { stroke: red; fill: red; }
]]></style>

<defs>
  <circle id="rim" cx="0" cy="0" r="7"/>
  <circle id="rim2" cx="0" cy="0" r="3.5"/>
  <g id="zoomPlus">
    <use xlink:href="#rim" fill="#404040"><set attributeName="fill" to="#808080" begin="zoomplus.mouseover" end="zoomplus.mouseout"/></use>
    <path d="M-4,0h8M0,-4v8" fill="none" stroke="white" stroke-width="1.5" pointer-events="none"/>
  </g>
  <g id="zoomMin">
    <use xlink:href="#rim" fill="#404040"><set attributeName="fill" to="#808080" begin="zoomminus.mouseover" end="zoomminus.mouseout"/></use>
    <path d="M-4,0h8" fill="none" stroke="white" stroke-width="1.5" pointer-events="none"/>
  </g>
  <g id="arrowUp" transform="translate(30 24)">
    <use xlink:href="#rim"/>
    <path pointer-events="none" fill="none" stroke="white" stroke-width="1.5" d="M0,-3.0v7 M-2.5,-0.5L0,-3.0L2.5,-0.5"/>
  </g>
  <g id="arrowRight" transform="rotate(90) translate(36 -43)">
    <use xlink:href="#rim"/>
    <path pointer-events="none" fill="none" stroke="white" stroke-width="1.5" d="M0,-3.0v7 M-2.5,-0.5L0,-3.0L2.5,-0.5"/>
  </g>
  <g id="arrowDown" transform="rotate(180) translate(-30 -48)">
    <use xlink:href="#rim"/>
    <path pointer-events="none" fill="none" stroke="white" stroke-width="1.5" d="M0,-3.0v7 M-2.5,-0.5L0,-3.0L2.5,-0.5"/>
  </g>
  <g id="arrowLeft" transform="rotate(270) translate(-36 17)">
    <use xlink:href="#rim"/>
    <path pointer-events="none" fill="none" stroke="white" stroke-width="1.5" d="M0,-3.0v7 M-2.5,-0.5L0,-3.0L2.5,-0.5"/>
  </g>
  <g id="resetDef">
    <use xlink:href="#rim2" fill="#404040"><set attributeName="fill" to="#808080" begin="reset.mouseover" end="reset.mouseout"/></use>
  </g>
</defs>
<script type="application/ecmascript">
var viewWidth = 561;
var viewHeight = 313;
var sectionId = 'dynsection-0';
</script>
<script type="application/ecmascript" xlink:href="svg.min.js"/>
<svg id="graph" class="graph">
<g id="viewport">
<title>include/helios/engine/game/InputSnapshot.ixx</title>
<!-- Node1 -->
<g id="Node000001" class="node">
<title>Node1</title>
<g id="a_Node000001"><a xlink:title="Immutable snapshot of input state at a specific point in time.">
<polygon fill="#999999" stroke="#666666" points="301,-305 163,-305 163,-275 301,-275 301,-305"/>
<text text-anchor="start" x="171" y="-293" font-family="Helvetica,sans-Serif" font-size="10.00">include/helios/engine</text>
<text text-anchor="middle" x="232" y="-282" font-family="Helvetica,sans-Serif" font-size="10.00">/game/InputSnapshot.ixx</text>
</a>
</g>
</g>
<!-- Node2 -->
<g id="Node000002" class="node">
<title>Node2</title>
<g id="a_Node000002"><a xlink:href="GamepadState_8ixx.html" target="_top" xlink:title="Representation of current gamepad input state.">
<polygon fill="white" stroke="#666666" points="306.5,-239 157.5,-239 157.5,-220 306.5,-220 306.5,-239"/>
<text text-anchor="middle" x="232" y="-227" font-family="Helvetica,sans-Serif" font-size="10.00">helios.input.GamepadState</text>
</a>
</g>
</g>
<!-- Node1&#45;&gt;Node2 -->
<g id="edge1_Node000001_Node000002" class="edge">
<title>Node1&#45;&gt;Node2</title>
<g id="a_edge1_Node000001_Node000002"><a xlink:title=" ">
<path fill="none" stroke="#63b8ff" d="M232,-274.84C232,-267.21 232,-257.7 232,-249.45"/>
<polygon fill="#63b8ff" stroke="#63b8ff" points="235.5,-249.27 232,-239.27 228.5,-249.27 235.5,-249.27"/>
</a>
</g>
</g>
<!-- Node3 -->
<g id="Node000003" class="node">
<title>Node3</title>
<g id="a_Node000003"><a xlink:title=" ">
<polygon fill="#e0e0e0" stroke="#999999" points="64,-184 0,-184 0,-165 64,-165 64,-184"/>
<text text-anchor="middle" x="32" y="-172" font-family="Helvetica,sans-Serif" font-size="10.00">algorithm</text>
</a>
</g>
</g>
<!-- Node2&#45;&gt;Node3 -->
<g id="edge2_Node000002_Node000003" class="edge">
<title>Node2&#45;&gt;Node3</title>
<g id="a_edge2_Node000002_Node000003"><a xlink:title=" ">
<path fill="none" stroke="#63b8ff" d="M199.87,-219.98C165.75,-210.94 111.68,-196.62 74.17,-186.67"/>
<polygon fill="#63b8ff" stroke="#63b8ff" points="74.62,-183.17 64.05,-183.99 72.82,-189.94 74.62,-183.17"/>
</a>
</g>
</g>
<!-- Node4 -->
<g id="Node000004" class="node">
<title>Node4</title>
<g id="a_Node000004"><a xlink:title=" ">
<polygon fill="#e0e0e0" stroke="#999999" points="204,-184 82,-184 82,-165 204,-165 204,-184"/>
<text text-anchor="middle" x="143" y="-172" font-family="Helvetica,sans-Serif" font-size="10.00">helios/helios_config.h</text>
</a>
</g>
</g>
<!-- Node2&#45;&gt;Node4 -->
<g id="edge3_Node000002_Node000004" class="edge">
<title>Node2&#45;&gt;Node4</title>
<g id="a_edge3_Node000002_Node000004"><a xlink:title=" ">
<path fill="none" stroke="#63b8ff" d="M217.7,-219.98C203.9,-211.77 182.76,-199.18 166.49,-189.49"/>
<polygon fill="#63b8ff" stroke="#63b8ff" points="167.94,-186.28 157.56,-184.17 164.36,-192.29 167.94,-186.28"/>
</a>
</g>
</g>
<!-- Node5 -->
<g id="Node000005" class="node">
<title>Node5</title>
<g id="a_Node000005"><a xlink:href="LogManager_8ixx.html" target="_top" xlink:title="Central manager for scoped loggers with configurable sinks.">
<polygon fill="white" stroke="#666666" points="406,-184 260,-184 260,-165 406,-165 406,-184"/>
<text text-anchor="middle" x="333" y="-172" font-family="Helvetica,sans-Serif" font-size="10.00">helios.util.log.LogManager</text>
</a>
</g>
</g>
<!-- Node2&#45;&gt;Node5 -->
<g id="edge4_Node000002_Node000005" class="edge">
<title>Node2&#45;&gt;Node5</title>
<g id="a_edge4_Node000002_Node000005"><a xlink:title=" ">
<path fill="none" stroke="#63b8ff" d="M248.23,-219.98C264.18,-211.61 288.78,-198.7 307.38,-188.95"/>
<polygon fill="#63b8ff" stroke="#63b8ff" points="309.25,-191.92 316.48,-184.17 306,-185.72 309.25,-191.92"/>
</a>
</g>
</g>
<!-- Node12 -->
<g id="Node000012" class="node">
<title>Node12</title>
<g id="a_Node000012"><a xlink:href="Logger_8ixx.html" target="_top" xlink:title="Simple synchronous logger with configurable output sinks.">
<polygon fill="white" stroke="#666666" points="229.5,-129 110.5,-129 110.5,-110 229.5,-110 229.5,-129"/>
<text text-anchor="middle" x="170" y="-117" font-family="Helvetica,sans-Serif" font-size="10.00">helios.util.log.Logger</text>
</a>
</g>
</g>
<!-- Node2&#45;&gt;Node12 -->
<g id="edge19_Node000002_Node000012" class="edge">
<title>Node2&#45;&gt;Node12</title>
<g id="a_edge19_Node000002_Node000012"><a xlink:title=" ">
<path fill="none" stroke="#63b8ff" d="M230.74,-219.76C228.61,-207.01 223.46,-182.88 213,-165 206.67,-154.18 197.17,-143.98 188.71,-136.08"/>
<polygon fill="#63b8ff" stroke="#63b8ff" points="190.86,-133.3 181.06,-129.26 186.2,-138.53 190.86,-133.3"/>
</a>
</g>
</g>
<!-- Node14 -->
<g id="Node000014" class="node">
<title>Node14</title>
<g id="a_Node000014"><a xlink:href="helios_2math_2types_2__module_8ixx.html" target="_top" xlink:title="Module exports for vector and matrix type definitions.">
<polygon fill="white" stroke="#666666" points="528,-184 424,-184 424,-165 528,-165 528,-184"/>
<text text-anchor="middle" x="476" y="-172" font-family="Helvetica,sans-Serif" font-size="10.00">helios.math.types</text>
</a>
</g>
</g>
<!-- Node2&#45;&gt;Node14 -->
<g id="edge20_Node000002_Node000014" class="edge">
<title>Node2&#45;&gt;Node14</title>
<g id="a_edge20_Node000002_Node000014"><a xlink:title=" ">
<path fill="none" stroke="#63b8ff" d="M271.2,-219.98C313.41,-210.82 380.65,-196.21 426.48,-186.26"/>
<polygon fill="#63b8ff" stroke="#63b8ff" points="427.46,-189.63 436.49,-184.08 425.97,-182.78 427.46,-189.63"/>
</a>
</g>
</g>
<!-- Node6 -->
<g id="Node000006" class="node">
<title>Node6</title>
<g id="a_Node000006"><a xlink:title=" ">
<polygon fill="#e0e0e0" stroke="#999999" points="414,-19 370,-19 370,0 414,0 414,-19"/>
<text text-anchor="middle" x="392" y="-7" font-family="Helvetica,sans-Serif" font-size="10.00">string</text>
</a>
</g>
</g>
<!-- Node5&#45;&gt;Node6 -->
<g id="edge5_Node000005_Node000006" class="edge">
<title>Node5&#45;&gt;Node6</title>
<g id="a_edge5_Node000005_Node000006"><a xlink:title=" ">
<path fill="none" stroke="#63b8ff" d="M397.6,-164.95C445.8,-157.42 506.56,-145.15 526,-129 546.52,-111.96 544.55,-100.11 550,-74 551.73,-65.73 555.1,-61.73 550,-55 534.85,-35 465.8,-21.46 424.15,-14.96"/>
<polygon fill="#63b8ff" stroke="#63b8ff" points="424.62,-11.49 414.21,-13.45 423.57,-18.41 424.62,-11.49"/>
</a>
</g>
</g>
<!-- Node7 -->
<g id="Node000007" class="node">
<title>Node7</title>
<g id="a_Node000007"><a xlink:title=" ">
<polygon fill="#e0e0e0" stroke="#999999" points="379.5,-129 286.5,-129 286.5,-110 379.5,-110 379.5,-129"/>
<text text-anchor="middle" x="333" y="-117" font-family="Helvetica,sans-Serif" font-size="10.00">unordered_map</text>
</a>
</g>
</g>
<!-- Node5&#45;&gt;Node7 -->
<g id="edge6_Node000005_Node000007" class="edge">
<title>Node5&#45;&gt;Node7</title>
<g id="a_edge6_Node000005_Node000007"><a xlink:title=" ">
<path fill="none" stroke="#63b8ff" d="M333,-164.75C333,-157.8 333,-147.85 333,-139.13"/>
<polygon fill="#63b8ff" stroke="#63b8ff" points="336.5,-139.09 333,-129.09 329.5,-139.09 336.5,-139.09"/>
</a>
</g>
</g>
<!-- Node8 -->
<g id="Node000008" class="node">
<title>Node8</title>
<g id="a_Node000008"><a xlink:title=" ">
<polygon fill="#e0e0e0" stroke="#999999" points="484,-129 398,-129 398,-110 484,-110 484,-129"/>
<text text-anchor="middle" x="441" y="-117" font-family="Helvetica,sans-Serif" font-size="10.00">unordered_set</text>
</a>
</g>
</g>
<!-- Node5&#45;&gt;Node8 -->
<g id="edge7_Node000005_Node000008" class="edge">
<title>Node5&#45;&gt;Node8</title>
<g id="a_edge7_Node000005_Node000008"><a xlink:title=" ">
<path fill="none" stroke="#63b8ff" d="M350.35,-164.98C367.57,-156.54 394.2,-143.47 414.15,-133.68"/>
<polygon fill="#63b8ff" stroke="#63b8ff" points="415.9,-136.72 423.33,-129.17 412.81,-130.43 415.9,-136.72"/>
</a>
</g>
</g>
<!-- Node9 -->
<g id="Node000009" class="node">
<title>Node9</title>
<g id="a_Node000009"><a xlink:title=" ">
<polygon fill="#e0e0e0" stroke="#999999" points="541,-74 483,-74 483,-55 541,-55 541,-74"/>
<text text-anchor="middle" x="512" y="-62" font-family="Helvetica,sans-Serif" font-size="10.00">memory</text>
</a>
</g>
</g>
<!-- Node5&#45;&gt;Node9 -->
<g id="edge8_Node000005_Node000009" class="edge">
<title>Node5&#45;&gt;Node9</title>
<g id="a_edge8_Node000005_Node000009"><a xlink:title=" ">
<path fill="none" stroke="#63b8ff" d="M399.59,-164.97C443.34,-157.87 494.99,-146.14 509,-129 519.14,-116.59 518.74,-97.83 516.5,-83.92"/>
<polygon fill="#63b8ff" stroke="#63b8ff" points="519.91,-83.11 514.47,-74.01 513.05,-84.51 519.91,-83.11"/>
</a>
</g>
</g>
<!-- Node10 -->
<g id="Node000010" class="node">
<title>Node10</title>
<g id="a_Node000010"><a xlink:title=" ">
<polygon fill="#e0e0e0" stroke="#999999" points="133,-74 85,-74 85,-55 133,-55 133,-74"/>
<text text-anchor="middle" x="109" y="-62" font-family="Helvetica,sans-Serif" font-size="10.00">mutex</text>
</a>
</g>
</g>
<!-- Node5&#45;&gt;Node10 -->
<g id="edge9_Node000005_Node000010" class="edge">
<title>Node5&#45;&gt;Node10</title>
<g id="a_edge9_Node000005_Node000010"><a xlink:title=" ">
<path fill="none" stroke="#63b8ff" d="M259.96,-169.41C199.69,-164.32 120.95,-153.14 101,-129 90.62,-116.44 94.76,-97.44 100.18,-83.49"/>
<polygon fill="#63b8ff" stroke="#63b8ff" points="103.53,-84.57 104.37,-74 97.13,-81.74 103.53,-84.57"/>
</a>
</g>
</g>
<!-- Node11 -->
<g id="Node000011" class="node">
<title>Node11</title>
<g id="a_Node000011"><a xlink:title=" ">
<polygon fill="#e0e0e0" stroke="#999999" points="272.5,-74 225.5,-74 225.5,-55 272.5,-55 272.5,-74"/>
<text text-anchor="middle" x="249" y="-62" font-family="Helvetica,sans-Serif" font-size="10.00">vector</text>
</a>
</g>
</g>
<!-- Node5&#45;&gt;Node11 -->
<g id="edge10_Node000005_Node000011" class="edge">
<title>Node5&#45;&gt;Node11</title>
<g id="a_edge10_Node000005_Node000011"><a xlink:title=" ">
<path fill="none" stroke="#63b8ff" d="M318.81,-164.74C306.68,-156.68 289.44,-143.75 278,-129 267.45,-115.4 259.68,-97.34 254.85,-83.96"/>
<polygon fill="#63b8ff" stroke="#63b8ff" points="258.14,-82.76 251.62,-74.41 251.51,-85 258.14,-82.76"/>
</a>
</g>
</g>
<!-- Node5&#45;&gt;Node12 -->
<g id="edge11_Node000005_Node000012" class="edge">
<title>Node5&#45;&gt;Node12</title>
<g id="a_edge11_Node000005_Node000012"><a xlink:title=" ">
<path fill="none" stroke="#63b8ff" d="M306.81,-164.98C279.56,-156.13 236.7,-142.19 206.22,-132.28"/>
<polygon fill="#63b8ff" stroke="#63b8ff" points="206.99,-128.85 196.39,-129.08 204.82,-135.5 206.99,-128.85"/>
</a>
</g>
</g>
<!-- Node13 -->
<g id="Node000013" class="node">
<title>Node13</title>
<g id="a_Node000013"><a xlink:href="LogSink_8ixx.html" target="_top" xlink:title="Abstract interface for log output destinations.">
<polygon fill="white" stroke="#666666" points="454,-74 330,-74 330,-55 454,-55 454,-74"/>
<text text-anchor="middle" x="392" y="-62" font-family="Helvetica,sans-Serif" font-size="10.00">helios.util.log.LogSink</text>
</a>
</g>
</g>
<!-- Node5&#45;&gt;Node13 -->
<g id="edge18_Node000005_Node000013" class="edge">
<title>Node5&#45;&gt;Node13</title>
<g id="a_edge18_Node000005_Node000013"><a xlink:title=" ">
<path fill="none" stroke="#63b8ff" d="M390.44,-164.97C431.04,-157.63 480.4,-145.59 493,-129 511.48,-104.68 475.16,-87.31 441.05,-76.95"/>
<polygon fill="#63b8ff" stroke="#63b8ff" points="441.64,-73.48 431.06,-74.09 439.71,-80.21 441.64,-73.48"/>
</a>
</g>
</g>
<!-- Node12&#45;&gt;Node6 -->
<g id="edge12_Node000012_Node000006" class="edge">
<title>Node12&#45;&gt;Node6</title>
<g id="a_edge12_Node000012_Node000006"><a xlink:title=" ">
<path fill="none" stroke="#63b8ff" d="M173.95,-109.59C180.57,-95.71 195.27,-69.06 216,-55 259.81,-25.3 321.87,-15.42 359.39,-12.13"/>
<polygon fill="#63b8ff" stroke="#63b8ff" points="360.04,-15.59 369.75,-11.34 359.51,-8.61 360.04,-15.59"/>
</a>
</g>
</g>
<!-- Node12&#45;&gt;Node9 -->
<g id="edge14_Node000012_Node000009" class="edge">
<title>Node12&#45;&gt;Node9</title>
<g id="a_edge14_Node000012_Node000009"><a xlink:title=" ">
<path fill="none" stroke="#63b8ff" d="M228.43,-110C287.61,-101.3 381.75,-87.22 463,-74 466.24,-73.47 469.59,-72.92 472.96,-72.35"/>
<polygon fill="#63b8ff" stroke="#63b8ff" points="473.73,-75.77 483,-70.63 472.55,-68.87 473.73,-75.77"/>
</a>
</g>
</g>
<!-- Node12&#45;&gt;Node10 -->
<g id="edge15_Node000012_Node000010" class="edge">
<title>Node12&#45;&gt;Node10</title>
<g id="a_edge15_Node000012_Node000010"><a xlink:title=" ">
<path fill="none" stroke="#63b8ff" d="M160.2,-109.98C151.18,-102.15 137.59,-90.34 126.68,-80.86"/>
<polygon fill="#63b8ff" stroke="#63b8ff" points="128.82,-78.09 118.98,-74.17 124.23,-83.37 128.82,-78.09"/>
</a>
</g>
</g>
<!-- Node12&#45;&gt;Node11 -->
<g id="edge13_Node000012_Node000011" class="edge">
<title>Node12&#45;&gt;Node11</title>
<g id="a_edge13_Node000012_Node000011"><a xlink:title=" ">
<path fill="none" stroke="#63b8ff" d="M182.69,-109.98C194.83,-101.84 213.36,-89.41 227.75,-79.76"/>
<polygon fill="#63b8ff" stroke="#63b8ff" points="229.72,-82.65 236.08,-74.17 225.82,-76.84 229.72,-82.65"/>
</a>
</g>
</g>
<!-- Node12&#45;&gt;Node13 -->
<g id="edge16_Node000012_Node000013" class="edge">
<title>Node12&#45;&gt;Node13</title>
<g id="a_edge16_Node000012_Node000013"><a xlink:title=" ">
<path fill="none" stroke="#63b8ff" d="M205.67,-109.98C243.83,-100.87 304.47,-86.4 346.15,-76.45"/>
<polygon fill="#63b8ff" stroke="#63b8ff" points="347.14,-79.81 356.05,-74.08 345.51,-73 347.14,-79.81"/>
</a>
</g>
</g>
<!-- Node13&#45;&gt;Node6 -->
<g id="edge17_Node000013_Node000006" class="edge">
<title>Node13&#45;&gt;Node6</title>
<g id="a_edge17_Node000013_Node000006"><a xlink:title=" ">
<path fill="none" stroke="#63b8ff" d="M392,-54.75C392,-47.8 392,-37.85 392,-29.13"/>
<polygon fill="#63b8ff" stroke="#63b8ff" points="395.5,-29.09 392,-19.09 388.5,-29.09 395.5,-29.09"/>
</a>
</g>
</g>
<!-- Node14&#45;&gt;Node14 -->
<g id="edge21_Node000014_Node000014" class="edge">
<title>Node14&#45;&gt;Node14</title>
<g id="a_edge21_Node000014_Node000014"><a xlink:title=" ">
<path fill="none" stroke="#63b8ff" d="M508.77,-184.03C528,-186.06 546,-182.88 546,-174.5 546,-167.62 533.89,-164.25 518.92,-164.38"/>
<polygon fill="#63b8ff" stroke="#63b8ff" points="518.55,-160.89 508.77,-164.97 518.95,-167.88 518.55,-160.89"/>
</a>
</g>
</g>
</g>
</svg>

<g id="navigator" transform="translate(0 0)" fill="#404254">
  <rect fill="#f2f5e9" fill-opacity="0.5" stroke="#606060" stroke-width=".5" x="0" y="0" width="60" height="60"/>
  <use id="zoomplus" xlink:href="#zoomPlus" x="17" y="9" onmousedown="handleZoom(evt,'in')"/>
  <use id="zoomminus" xlink:href="#zoomMin" x="42" y="9" onmousedown="handleZoom(evt,'out')"/>
  <use id="reset" xlink:href="#resetDef" x="30" y="36" onmousedown="handleReset()"/>
   <use id="arrowup" xlink:href="#arrowUp" x="0" y="0" onmousedown="handlePan(0,-1)"/>
  <use id="arrowright" xlink:href="#arrowRight" x="0" y="0" onmousedown="handlePan(1,0)"/>
  <use id="arrowdown" xlink:href="#arrowDown" x="0" y="0" onmousedown="handlePan(0,1)"/>
  <use id="arrowleft" xlink:href="#arrowLeft" x="0" y="0" onmousedown="handlePan(-1,0)"/>
</g>
<svg viewBox="0 0 15 15" width="100%" height="30px" preserveAspectRatio="xMaxYMin meet">
 <g id="arrow_out" transform="scale(0.3 0.3)">
  <a xlink:href="InputSnapshot_8ixx__incl_org.svg" target="_base">
   <rect id="button" ry="5" rx="5" y="6" x="6" height="38" width="38"
        fill="#f2f5e9" fill-opacity="0.5" stroke="#606060" stroke-width="1.0"/>
   <path id="arrow"
     d="M 11.500037,31.436501 C 11.940474,20.09759 22.043105,11.32322 32.158766,21.979434 L 37.068811,17.246167 C 37.068811,17.246167 37.088388,32 37.088388,32 L 22.160133,31.978069 C 22.160133,31.978069 26.997745,27.140456 26.997745,27.140456 C 18.528582,18.264221 13.291696,25.230495 11.500037,31.436501 z"
     style="fill:#404040;"/>
  </a>
 </g>
</svg>

<style type='text/css'>
<![CDATA[
[data-mouse-over-selected='false'] { opacity: 0.7; }
[data-mouse-over-selected='true']  { opacity: 1.0; }
]]>
</style>
<script type="application/ecmascript"><![CDATA[
document.addEventListener('DOMContentLoaded', (event) => {
  highlightEdges();
  highlightAdjacentNodes();
});
]]></script>
</svg>
