<?xml version="1.0" encoding="UTF-8" standalone="no"?>
<!DOCTYPE svg PUBLIC "-//W3C//DTD SVG 1.1//EN"
 "http://www.w3.org/Graphics/SVG/1.1/DTD/svg11.dtd">
<!-- Generated by graphviz version 2.43.0 (0)
 -->
<!-- Title: IsCommandBufferLike.ixx Pages: 1 -->
<svg width="572pt" height="148pt"
 viewBox="0.00 0.00 571.57 148.00" xmlns="http://www.w3.org/2000/svg" xmlns:xlink="http://www.w3.org/1999/xlink">
<g id="graph0" class="graph" transform="scale(1 1) rotate(0) translate(4 144)">
<title>IsCommandBufferLike.ixx</title>
<!-- Node1 -->
<g id="Node000001" class="node">
<title>Node1</title>
<g id="a_Node000001"><a xlink:title="Concept constraining types usable as command buffers.">
<polygon fill="#999999" stroke="#666666" points="259.07,-140 117.07,-140 117.07,-121 259.07,-121 259.07,-140"/>
<text text-anchor="middle" x="188.07" y="-128" font-family="Helvetica,sans-Serif" font-size="10.00">IsCommandBufferLike.ixx</text>
</a>
</g>
</g>
<!-- Node2 -->
<g id="Node000002" class="node">
<title>Node2</title>
<g id="a_Node000002"><a xlink:title=" ">
<polygon fill="#e0e0e0" stroke="#999999" points="310.07,-19 250.07,-19 250.07,0 310.07,0 310.07,-19"/>
<text text-anchor="middle" x="280.07" y="-7" font-family="Helvetica,sans-Serif" font-size="10.00">concepts</text>
</a>
</g>
</g>
<!-- Node1&#45;&gt;Node2 -->
<g id="edge1_Node000001_Node000002" class="edge">
<title>Node1&#45;&gt;Node2</title>
<g id="a_edge1_Node000001_Node000002"><a xlink:title=" ">
<path fill="none" stroke="#63b8ff" d="M117.02,-123.29C53.09,-114.95 -25.85,-96.12 9.07,-55 38.14,-20.76 171.22,-12.82 239.46,-11.01"/>
<polygon fill="#63b8ff" stroke="#63b8ff" points="239.91,-14.5 249.83,-10.77 239.75,-7.5 239.91,-14.5"/>
</a>
</g>
</g>
<!-- Node3 -->
<g id="Node000003" class="node">
<title>Node3</title>
<g id="a_Node000003"><a xlink:href="CommandBufferRole_8ixx.html" target="_top" xlink:title="Tag type for identifying CommandBuffer&#45;role classes at compile time.">
<polygon fill="white" stroke="#666666" points="173.57,-85 18.57,-85 18.57,-55 173.57,-55 173.57,-85"/>
<text text-anchor="start" x="26.57" y="-73" font-family="Helvetica,sans-Serif" font-size="10.00">helios.engine.common.tags.</text>
<text text-anchor="middle" x="96.07" y="-62" font-family="Helvetica,sans-Serif" font-size="10.00">CommandBufferRole</text>
</a>
</g>
</g>
<!-- Node1&#45;&gt;Node3 -->
<g id="edge2_Node000001_Node000003" class="edge">
<title>Node1&#45;&gt;Node3</title>
<g id="a_edge2_Node000001_Node000003"><a xlink:title=" ">
<path fill="none" stroke="#63b8ff" d="M174.49,-120.87C162.01,-112.93 143.04,-100.87 126.89,-90.6"/>
<polygon fill="#63b8ff" stroke="#63b8ff" points="128.58,-87.53 118.26,-85.11 124.82,-93.43 128.58,-87.53"/>
</a>
</g>
</g>
<!-- Node4 -->
<g id="Node000004" class="node">
<title>Node4</title>
<g id="a_Node000004"><a xlink:href="HasClear_8ixx.html" target="_top" xlink:title="Concept detecting an optional clear() method.">
<polygon fill="white" stroke="#666666" points="368.57,-85 191.57,-85 191.57,-55 368.57,-55 368.57,-85"/>
<text text-anchor="start" x="199.57" y="-73" font-family="Helvetica,sans-Serif" font-size="10.00">helios.engine.common.concepts.</text>
<text text-anchor="middle" x="280.07" y="-62" font-family="Helvetica,sans-Serif" font-size="10.00">HasClear</text>
</a>
</g>
</g>
<!-- Node1&#45;&gt;Node4 -->
<g id="edge3_Node000001_Node000004" class="edge">
<title>Node1&#45;&gt;Node4</title>
<g id="a_edge3_Node000001_Node000004"><a xlink:title=" ">
<path fill="none" stroke="#63b8ff" d="M201.64,-120.87C214.12,-112.93 233.09,-100.87 249.24,-90.6"/>
<polygon fill="#63b8ff" stroke="#63b8ff" points="251.31,-93.43 257.87,-85.11 247.55,-87.53 251.31,-93.43"/>
</a>
</g>
</g>
<!-- Node5 -->
<g id="Node000005" class="node">
<title>Node5</title>
<g id="a_Node000005"><a xlink:href="HasTag_8ixx.html" target="_top" xlink:title="Concept for detecting a compile&#45;time engine role tag on a type.">
<polygon fill="white" stroke="#666666" points="563.57,-85 386.57,-85 386.57,-55 563.57,-55 563.57,-85"/>
<text text-anchor="start" x="394.57" y="-73" font-family="Helvetica,sans-Serif" font-size="10.00">helios.engine.common.concepts.</text>
<text text-anchor="middle" x="475.07" y="-62" font-family="Helvetica,sans-Serif" font-size="10.00">HasTag</text>
</a>
</g>
</g>
<!-- Node1&#45;&gt;Node5 -->
<g id="edge5_Node000001_Node000005" class="edge">
<title>Node1&#45;&gt;Node5</title>
<g id="a_edge5_Node000001_Node000005"><a xlink:title=" ">
<path fill="none" stroke="#63b8ff" d="M229.8,-120.99C273.34,-112.12 342.63,-97.99 396.48,-87.02"/>
<polygon fill="#63b8ff" stroke="#63b8ff" points="397.25,-90.43 406.34,-85.01 395.85,-83.58 397.25,-90.43"/>
</a>
</g>
</g>
<!-- Node4&#45;&gt;Node2 -->
<g id="edge4_Node000004_Node000002" class="edge">
<title>Node4&#45;&gt;Node2</title>
<g id="a_edge4_Node000004_Node000002"><a xlink:title=" ">
<path fill="none" stroke="#63b8ff" d="M280.07,-54.84C280.07,-47.21 280.07,-37.7 280.07,-29.45"/>
<polygon fill="#63b8ff" stroke="#63b8ff" points="283.57,-29.27 280.07,-19.27 276.57,-29.27 283.57,-29.27"/>
</a>
</g>
</g>
<!-- Node5&#45;&gt;Node2 -->
<g id="edge6_Node000005_Node000002" class="edge">
<title>Node5&#45;&gt;Node2</title>
<g id="a_edge6_Node000005_Node000002"><a xlink:title=" ">
<path fill="none" stroke="#63b8ff" d="M428.36,-54.99C394.71,-44.89 349.85,-31.44 318.32,-21.98"/>
<polygon fill="#63b8ff" stroke="#63b8ff" points="319.16,-18.57 308.58,-19.05 317.15,-25.28 319.16,-18.57"/>
</a>
</g>
</g>
</g>
</svg>
