<?xml version="1.0" encoding="UTF-8" standalone="no"?>
<!DOCTYPE svg PUBLIC "-//W3C//DTD SVG 1.1//EN"
 "http://www.w3.org/Graphics/SVG/1.1/DTD/svg11.dtd">
<!-- Generated by graphviz version 2.43.0 (0)
 -->
<!-- Title: KillReward.ixx Pages: 1 -->
<svg width="366pt" height="269pt"
 viewBox="0.00 0.00 365.50 269.00" xmlns="http://www.w3.org/2000/svg" xmlns:xlink="http://www.w3.org/1999/xlink">
<g id="graph0" class="graph" transform="scale(1 1) rotate(0) translate(4 265)">
<title>KillReward.ixx</title>
<!-- Node1 -->
<g id="Node000001" class="node">
<title>Node1</title>
<g id="a_Node000001"><a xlink:title="Score type awarded for killing an entity.">
<polygon fill="#999999" stroke="#666666" points="177,-261 90,-261 90,-242 177,-242 177,-261"/>
<text text-anchor="middle" x="133.5" y="-249" font-family="Helvetica,sans-Serif" font-size="10.00">KillReward.ixx</text>
</a>
</g>
</g>
<!-- Node2 -->
<g id="Node000002" class="node">
<title>Node2</title>
<g id="a_Node000002"><a xlink:href="ScoreTypeId_8ixx.html" target="_top" xlink:title="Strongly&#45;typed identifier for score types.">
<polygon fill="white" stroke="#666666" points="238,-140 29,-140 29,-110 238,-110 238,-140"/>
<text text-anchor="start" x="37" y="-128" font-family="Helvetica,sans-Serif" font-size="10.00">helios.engine.mechanics.scoring.types.</text>
<text text-anchor="middle" x="133.5" y="-117" font-family="Helvetica,sans-Serif" font-size="10.00">ScoreTypeId</text>
</a>
</g>
</g>
<!-- Node1&#45;&gt;Node2 -->
<g id="edge1_Node000001_Node000002" class="edge">
<title>Node1&#45;&gt;Node2</title>
<g id="a_edge1_Node000001_Node000002"><a xlink:title=" ">
<path fill="none" stroke="#63b8ff" d="M119.43,-241.89C108.15,-234.1 93.16,-221.48 86.5,-206 81.23,-193.75 81.59,-188.4 86.5,-176 90.8,-165.15 98.7,-155.27 106.8,-147.22"/>
<polygon fill="#63b8ff" stroke="#63b8ff" points="109.25,-149.73 114.21,-140.37 104.5,-144.59 109.25,-149.73"/>
</a>
</g>
</g>
<!-- Node9 -->
<g id="Node000009" class="node">
<title>Node9</title>
<g id="a_Node000009"><a xlink:href="Score_8ixx.html" target="_top" xlink:title="Abstract base class for score types.">
<polygon fill="white" stroke="#666666" points="305,-206 96,-206 96,-176 305,-176 305,-206"/>
<text text-anchor="start" x="104" y="-194" font-family="Helvetica,sans-Serif" font-size="10.00">helios.engine.mechanics.scoring.types.</text>
<text text-anchor="middle" x="200.5" y="-183" font-family="Helvetica,sans-Serif" font-size="10.00">Score</text>
</a>
</g>
</g>
<!-- Node1&#45;&gt;Node9 -->
<g id="edge8_Node000001_Node000009" class="edge">
<title>Node1&#45;&gt;Node9</title>
<g id="a_edge8_Node000001_Node000009"><a xlink:title=" ">
<path fill="none" stroke="#63b8ff" d="M143.39,-241.87C152.14,-234.22 165.27,-222.76 176.74,-212.75"/>
<polygon fill="#63b8ff" stroke="#63b8ff" points="179.1,-215.33 184.33,-206.11 174.5,-210.06 179.1,-215.33"/>
</a>
</g>
</g>
<!-- Node3 -->
<g id="Node000003" class="node">
<title>Node3</title>
<g id="a_Node000003"><a xlink:title=" ">
<polygon fill="#e0e0e0" stroke="#999999" points="65,-74 0,-74 0,-55 65,-55 65,-74"/>
<text text-anchor="middle" x="32.5" y="-62" font-family="Helvetica,sans-Serif" font-size="10.00">functional</text>
</a>
</g>
</g>
<!-- Node2&#45;&gt;Node3 -->
<g id="edge2_Node000002_Node000003" class="edge">
<title>Node2&#45;&gt;Node3</title>
<g id="a_edge2_Node000002_Node000003"><a xlink:title=" ">
<path fill="none" stroke="#63b8ff" d="M109.31,-109.99C93.21,-100.66 72.16,-88.47 56.17,-79.21"/>
<polygon fill="#63b8ff" stroke="#63b8ff" points="57.82,-76.12 47.42,-74.14 54.31,-82.18 57.82,-76.12"/>
</a>
</g>
</g>
<!-- Node4 -->
<g id="Node000004" class="node">
<title>Node4</title>
<g id="a_Node000004"><a xlink:href="types_8ixx.html" target="_top" xlink:title="Core type definitions and tag types for the helios engine.">
<polygon fill="white" stroke="#666666" points="183.5,-74 83.5,-74 83.5,-55 183.5,-55 183.5,-74"/>
<text text-anchor="middle" x="133.5" y="-62" font-family="Helvetica,sans-Serif" font-size="10.00">helios.core.types</text>
</a>
</g>
</g>
<!-- Node2&#45;&gt;Node4 -->
<g id="edge3_Node000002_Node000004" class="edge">
<title>Node2&#45;&gt;Node4</title>
<g id="a_edge3_Node000002_Node000004"><a xlink:title=" ">
<path fill="none" stroke="#63b8ff" d="M133.5,-109.84C133.5,-102.21 133.5,-92.7 133.5,-84.45"/>
<polygon fill="#63b8ff" stroke="#63b8ff" points="137,-84.27 133.5,-74.27 130,-84.27 137,-84.27"/>
</a>
</g>
</g>
<!-- Node7 -->
<g id="Node000007" class="node">
<title>Node7</title>
<g id="a_Node000007"><a xlink:href="TypeIndexer_8ixx.html" target="_top" xlink:title="Utility for generating unique type indices at runtime.">
<polygon fill="white" stroke="#666666" points="357.5,-74 201.5,-74 201.5,-55 357.5,-55 357.5,-74"/>
<text text-anchor="middle" x="279.5" y="-62" font-family="Helvetica,sans-Serif" font-size="10.00">helios.core.data.TypeIndexer</text>
</a>
</g>
</g>
<!-- Node2&#45;&gt;Node7 -->
<g id="edge6_Node000002_Node000007" class="edge">
<title>Node2&#45;&gt;Node7</title>
<g id="a_edge6_Node000002_Node000007"><a xlink:title=" ">
<path fill="none" stroke="#63b8ff" d="M168.47,-109.99C192.83,-100.23 225.03,-87.33 248.47,-77.93"/>
<polygon fill="#63b8ff" stroke="#63b8ff" points="249.96,-81.11 257.94,-74.14 247.35,-74.61 249.96,-81.11"/>
</a>
</g>
</g>
<!-- Node5 -->
<g id="Node000005" class="node">
<title>Node5</title>
<g id="a_Node000005"><a xlink:title=" ">
<polygon fill="#e0e0e0" stroke="#999999" points="126.5,-19 76.5,-19 76.5,0 126.5,0 126.5,-19"/>
<text text-anchor="middle" x="101.5" y="-7" font-family="Helvetica,sans-Serif" font-size="10.00">cstdint</text>
</a>
</g>
</g>
<!-- Node4&#45;&gt;Node5 -->
<g id="edge4_Node000004_Node000005" class="edge">
<title>Node4&#45;&gt;Node5</title>
<g id="a_edge4_Node000004_Node000005"><a xlink:title=" ">
<path fill="none" stroke="#63b8ff" d="M128.22,-54.75C123.79,-47.42 117.34,-36.73 111.88,-27.7"/>
<polygon fill="#63b8ff" stroke="#63b8ff" points="114.85,-25.84 106.69,-19.09 108.86,-29.46 114.85,-25.84"/>
</a>
</g>
</g>
<!-- Node6 -->
<g id="Node000006" class="node">
<title>Node6</title>
<g id="a_Node000006"><a xlink:title=" ">
<polygon fill="#e0e0e0" stroke="#999999" points="188.5,-19 144.5,-19 144.5,0 188.5,0 188.5,-19"/>
<text text-anchor="middle" x="166.5" y="-7" font-family="Helvetica,sans-Serif" font-size="10.00">limits</text>
</a>
</g>
</g>
<!-- Node4&#45;&gt;Node6 -->
<g id="edge5_Node000004_Node000006" class="edge">
<title>Node4&#45;&gt;Node6</title>
<g id="a_edge5_Node000004_Node000006"><a xlink:title=" ">
<path fill="none" stroke="#63b8ff" d="M138.95,-54.75C143.51,-47.42 150.17,-36.73 155.79,-27.7"/>
<polygon fill="#63b8ff" stroke="#63b8ff" points="158.84,-29.43 161.15,-19.09 152.9,-25.73 158.84,-29.43"/>
</a>
</g>
</g>
<!-- Node8 -->
<g id="Node000008" class="node">
<title>Node8</title>
<g id="a_Node000008"><a xlink:title=" ">
<polygon fill="#e0e0e0" stroke="#999999" points="304.5,-19 254.5,-19 254.5,0 304.5,0 304.5,-19"/>
<text text-anchor="middle" x="279.5" y="-7" font-family="Helvetica,sans-Serif" font-size="10.00">atomic</text>
</a>
</g>
</g>
<!-- Node7&#45;&gt;Node8 -->
<g id="edge7_Node000007_Node000008" class="edge">
<title>Node7&#45;&gt;Node8</title>
<g id="a_edge7_Node000007_Node000008"><a xlink:title=" ">
<path fill="none" stroke="#63b8ff" d="M279.5,-54.75C279.5,-47.8 279.5,-37.85 279.5,-29.13"/>
<polygon fill="#63b8ff" stroke="#63b8ff" points="283,-29.09 279.5,-19.09 276,-29.09 283,-29.09"/>
</a>
</g>
</g>
<!-- Node9&#45;&gt;Node2 -->
<g id="edge9_Node000009_Node000002" class="edge">
<title>Node9&#45;&gt;Node2</title>
<g id="a_edge9_Node000009_Node000002"><a xlink:title=" ">
<path fill="none" stroke="#63b8ff" d="M185.63,-175.8C176.87,-167.43 165.62,-156.68 155.81,-147.31"/>
<polygon fill="#63b8ff" stroke="#63b8ff" points="157.98,-144.54 148.33,-140.16 153.14,-149.6 157.98,-144.54"/>
</a>
</g>
</g>
</g>
</svg>
