<?xml version="1.0" encoding="UTF-8" standalone="no"?>
<!DOCTYPE svg PUBLIC "-//W3C//DTD SVG 1.1//EN"
 "http://www.w3.org/Graphics/SVG/1.1/DTD/svg11.dtd">
<!-- Generated by graphviz version 2.43.0 (0)
 -->
<!-- Title: Manager.ixx Pages: 1 -->
<svg width="516pt" height="214pt"
 viewBox="0.00 0.00 515.50 214.00" xmlns="http://www.w3.org/2000/svg" xmlns:xlink="http://www.w3.org/1999/xlink">
<g id="graph0" class="graph" transform="scale(1 1) rotate(0) translate(4 210)">
<title>Manager.ixx</title>
<!-- Node1 -->
<g id="Node000001" class="node">
<title>Node1</title>
<g id="a_Node000001"><a xlink:title="Type&#45;erased manager wrapper using the Concept/Model pattern.">
<polygon fill="#999999" stroke="#666666" points="137.5,-206 60.5,-206 60.5,-187 137.5,-187 137.5,-206"/>
<text text-anchor="middle" x="99" y="-194" font-family="Helvetica,sans-Serif" font-size="10.00">Manager.ixx</text>
</a>
</g>
</g>
<!-- Node2 -->
<g id="Node000002" class="node">
<title>Node2</title>
<g id="a_Node000002"><a xlink:title=" ">
<polygon fill="#e0e0e0" stroke="#999999" points="52,-145.5 0,-145.5 0,-126.5 52,-126.5 52,-145.5"/>
<text text-anchor="middle" x="26" y="-133.5" font-family="Helvetica,sans-Serif" font-size="10.00">cassert</text>
</a>
</g>
</g>
<!-- Node1&#45;&gt;Node2 -->
<g id="edge1_Node000001_Node000002" class="edge">
<title>Node1&#45;&gt;Node2</title>
<g id="a_edge1_Node000001_Node000002"><a xlink:title=" ">
<path fill="none" stroke="#63b8ff" d="M88.23,-186.87C76.8,-177.71 58.52,-163.06 44.72,-152.01"/>
<polygon fill="#63b8ff" stroke="#63b8ff" points="46.81,-149.19 36.82,-145.67 42.43,-154.65 46.81,-149.19"/>
</a>
</g>
</g>
<!-- Node3 -->
<g id="Node000003" class="node">
<title>Node3</title>
<g id="a_Node000003"><a xlink:title=" ">
<polygon fill="#e0e0e0" stroke="#999999" points="128,-145.5 70,-145.5 70,-126.5 128,-126.5 128,-145.5"/>
<text text-anchor="middle" x="99" y="-133.5" font-family="Helvetica,sans-Serif" font-size="10.00">memory</text>
</a>
</g>
</g>
<!-- Node1&#45;&gt;Node3 -->
<g id="edge2_Node000001_Node000003" class="edge">
<title>Node1&#45;&gt;Node3</title>
<g id="a_edge2_Node000001_Node000003"><a xlink:title=" ">
<path fill="none" stroke="#63b8ff" d="M99,-186.87C99,-178.75 99,-166.31 99,-155.89"/>
<polygon fill="#63b8ff" stroke="#63b8ff" points="102.5,-155.67 99,-145.67 95.5,-155.67 102.5,-155.67"/>
</a>
</g>
</g>
<!-- Node4 -->
<g id="Node000004" class="node">
<title>Node4</title>
<g id="a_Node000004"><a xlink:href="IsManagerLike_8ixx.html" target="_top" xlink:title="Concept constraining types eligible for manager registration.">
<polygon fill="white" stroke="#666666" points="323.5,-151 146.5,-151 146.5,-121 323.5,-121 323.5,-151"/>
<text text-anchor="start" x="154.5" y="-139" font-family="Helvetica,sans-Serif" font-size="10.00">helios.engine.common.concepts.</text>
<text text-anchor="middle" x="235" y="-128" font-family="Helvetica,sans-Serif" font-size="10.00">IsManagerLike</text>
</a>
</g>
</g>
<!-- Node1&#45;&gt;Node4 -->
<g id="edge3_Node000001_Node000004" class="edge">
<title>Node1&#45;&gt;Node4</title>
<g id="a_edge3_Node000001_Node000004"><a xlink:title=" ">
<path fill="none" stroke="#63b8ff" d="M118.78,-186.99C138.09,-178.68 168.1,-165.78 192.79,-155.16"/>
<polygon fill="#63b8ff" stroke="#63b8ff" points="194.5,-158.23 202.3,-151.06 191.73,-151.8 194.5,-158.23"/>
</a>
</g>
</g>
<!-- Node5 -->
<g id="Node000005" class="node">
<title>Node5</title>
<g id="a_Node000005"><a xlink:title=" ">
<polygon fill="#e0e0e0" stroke="#999999" points="304,-19 244,-19 244,0 304,0 304,-19"/>
<text text-anchor="middle" x="274" y="-7" font-family="Helvetica,sans-Serif" font-size="10.00">concepts</text>
</a>
</g>
</g>
<!-- Node4&#45;&gt;Node5 -->
<g id="edge4_Node000004_Node000005" class="edge">
<title>Node4&#45;&gt;Node5</title>
<g id="a_edge4_Node000004_Node000005"><a xlink:title=" ">
<path fill="none" stroke="#63b8ff" d="M191.75,-120.95C175.01,-113.15 157.6,-101.59 148,-85 141.32,-73.46 140.3,-65.89 148,-55 167.21,-27.84 204.43,-17.15 233.46,-12.99"/>
<polygon fill="#63b8ff" stroke="#63b8ff" points="234.23,-16.42 243.73,-11.74 233.38,-9.47 234.23,-16.42"/>
</a>
</g>
</g>
<!-- Node6 -->
<g id="Node000006" class="node">
<title>Node6</title>
<g id="a_Node000006"><a xlink:href="ManagerRole_8ixx.html" target="_top" xlink:title="Tag type for identifying Manager&#45;role classes at compile time.">
<polygon fill="white" stroke="#666666" points="312.5,-85 157.5,-85 157.5,-55 312.5,-55 312.5,-85"/>
<text text-anchor="start" x="165.5" y="-73" font-family="Helvetica,sans-Serif" font-size="10.00">helios.engine.common.tags.</text>
<text text-anchor="middle" x="235" y="-62" font-family="Helvetica,sans-Serif" font-size="10.00">ManagerRole</text>
</a>
</g>
</g>
<!-- Node4&#45;&gt;Node6 -->
<g id="edge5_Node000004_Node000006" class="edge">
<title>Node4&#45;&gt;Node6</title>
<g id="a_edge5_Node000004_Node000006"><a xlink:title=" ">
<path fill="none" stroke="#63b8ff" d="M235,-120.8C235,-113.34 235,-103.99 235,-95.41"/>
<polygon fill="#63b8ff" stroke="#63b8ff" points="238.5,-95.16 235,-85.16 231.5,-95.16 238.5,-95.16"/>
</a>
</g>
</g>
<!-- Node7 -->
<g id="Node000007" class="node">
<title>Node7</title>
<g id="a_Node000007"><a xlink:href="HasTag_8ixx.html" target="_top" xlink:title="Concept for detecting a compile&#45;time engine role tag on a type.">
<polygon fill="white" stroke="#666666" points="507.5,-85 330.5,-85 330.5,-55 507.5,-55 507.5,-85"/>
<text text-anchor="start" x="338.5" y="-73" font-family="Helvetica,sans-Serif" font-size="10.00">helios.engine.common.concepts.</text>
<text text-anchor="middle" x="419" y="-62" font-family="Helvetica,sans-Serif" font-size="10.00">HasTag</text>
</a>
</g>
</g>
<!-- Node4&#45;&gt;Node7 -->
<g id="edge6_Node000004_Node000007" class="edge">
<title>Node4&#45;&gt;Node7</title>
<g id="a_edge6_Node000004_Node000007"><a xlink:title=" ">
<path fill="none" stroke="#63b8ff" d="M275.38,-120.95C302.94,-111.37 339.64,-98.6 369.05,-88.37"/>
<polygon fill="#63b8ff" stroke="#63b8ff" points="370.42,-91.6 378.71,-85.01 368.12,-84.99 370.42,-91.6"/>
</a>
</g>
</g>
<!-- Node7&#45;&gt;Node5 -->
<g id="edge7_Node000007_Node000005" class="edge">
<title>Node7&#45;&gt;Node5</title>
<g id="a_edge7_Node000007_Node000005"><a xlink:title=" ">
<path fill="none" stroke="#63b8ff" d="M384.27,-54.99C360.08,-45.23 328.1,-32.33 304.81,-22.93"/>
<polygon fill="#63b8ff" stroke="#63b8ff" points="306,-19.63 295.41,-19.14 303.38,-26.13 306,-19.63"/>
</a>
</g>
</g>
</g>
</svg>
