<?xml version="1.0" encoding="UTF-8" standalone="no"?>
<!DOCTYPE svg PUBLIC "-//W3C//DTD SVG 1.1//EN"
 "http://www.w3.org/Graphics/SVG/1.1/DTD/svg11.dtd">
<!-- Generated by graphviz version 2.43.0 (0)
 -->
<!-- Title: include/helios/math/types/mat4.ixx Pages: 1 -->
<svg width="468pt" height="95pt"
 viewBox="0.00 0.00 467.50 95.21" xmlns="http://www.w3.org/2000/svg" xmlns:xlink="http://www.w3.org/1999/xlink">
<g id="graph0" class="graph" transform="scale(1 1) rotate(0) translate(4 91.21)">
<title>include/helios/math/types/mat4.ixx</title>
<!-- Node1 -->
<g id="Node000001" class="node">
<title>Node1</title>
<g id="a_Node000001"><a xlink:title="4x4 matrix type and utilities.">
<polygon fill="#999999" stroke="#666666" points="214.5,-87.21 101.5,-87.21 101.5,-57.21 214.5,-57.21 214.5,-87.21"/>
<text text-anchor="start" x="109.5" y="-75.21" font-family="Helvetica,sans-Serif" font-size="10.00">include/helios/math</text>
<text text-anchor="middle" x="158" y="-64.21" font-family="Helvetica,sans-Serif" font-size="10.00">/types/mat4.ixx</text>
</a>
</g>
</g>
<!-- Node2 -->
<g id="Node000002" class="node">
<title>Node2</title>
<g id="a_Node000002"><a xlink:title=" ">
<polygon fill="#e0e0e0" stroke="#999999" points="52,-21.21 0,-21.21 0,-2.21 52,-2.21 52,-21.21"/>
<text text-anchor="middle" x="26" y="-9.21" font-family="Helvetica,sans-Serif" font-size="10.00">cassert</text>
</a>
</g>
</g>
<!-- Node1&#45;&gt;Node2 -->
<g id="edge1_Node000001_Node000002" class="edge">
<title>Node1&#45;&gt;Node2</title>
<g id="a_edge1_Node000001_Node000002"><a xlink:title=" ">
<path fill="none" stroke="#63b8ff" d="M126.38,-57.2C104.65,-47.57 76.03,-34.88 54.91,-25.52"/>
<polygon fill="#63b8ff" stroke="#63b8ff" points="56.05,-22.2 45.49,-21.35 53.22,-28.6 56.05,-22.2"/>
</a>
</g>
</g>
<!-- Node3 -->
<g id="Node000003" class="node">
<title>Node3</title>
<g id="a_Node000003"><a xlink:title=" ">
<polygon fill="#e0e0e0" stroke="#999999" points="135.5,-21.21 70.5,-21.21 70.5,-2.21 135.5,-2.21 135.5,-21.21"/>
<text text-anchor="middle" x="103" y="-9.21" font-family="Helvetica,sans-Serif" font-size="10.00">functional</text>
</a>
</g>
</g>
<!-- Node1&#45;&gt;Node3 -->
<g id="edge2_Node000001_Node000003" class="edge">
<title>Node1&#45;&gt;Node3</title>
<g id="a_edge2_Node000001_Node000003"><a xlink:title=" ">
<path fill="none" stroke="#63b8ff" d="M144.69,-57.05C136.7,-48.55 126.52,-37.73 118.22,-28.9"/>
<polygon fill="#63b8ff" stroke="#63b8ff" points="120.64,-26.36 111.24,-21.47 115.54,-31.16 120.64,-26.36"/>
</a>
</g>
</g>
<!-- Node4 -->
<g id="Node000004" class="node">
<title>Node4</title>
<g id="a_Node000004"><a xlink:href="helios_2math_2concepts_2__module_8ixx.html" target="_top" xlink:title="Math concepts module exports.">
<polygon fill="white" stroke="#666666" points="274.5,-21.21 153.5,-21.21 153.5,-2.21 274.5,-2.21 274.5,-21.21"/>
<text text-anchor="middle" x="214" y="-9.21" font-family="Helvetica,sans-Serif" font-size="10.00">helios.math.concepts</text>
</a>
</g>
</g>
<!-- Node1&#45;&gt;Node4 -->
<g id="edge3_Node000001_Node000004" class="edge">
<title>Node1&#45;&gt;Node4</title>
<g id="a_edge3_Node000001_Node000004"><a xlink:title=" ">
<path fill="none" stroke="#63b8ff" d="M171.56,-57.05C179.68,-48.55 190.05,-37.73 198.5,-28.9"/>
<polygon fill="#63b8ff" stroke="#63b8ff" points="201.22,-31.12 205.61,-21.47 196.17,-26.28 201.22,-31.12"/>
</a>
</g>
</g>
<!-- Node5 -->
<g id="Node000005" class="node">
<title>Node5</title>
<g id="a_Node000005"><a xlink:href="helios_2math_2types_2__module_8ixx.html" target="_top" xlink:title="Module exports for vector and matrix type definitions.">
<polygon fill="white" stroke="#666666" points="441.5,-21.21 310.5,-21.21 310.5,-2.21 441.5,-2.21 441.5,-21.21"/>
<text text-anchor="middle" x="376" y="-9.21" font-family="Helvetica,sans-Serif" font-size="10.00">helios.math.types:vec4</text>
</a>
</g>
</g>
<!-- Node1&#45;&gt;Node5 -->
<g id="edge5_Node000001_Node000005" class="edge">
<title>Node1&#45;&gt;Node5</title>
<g id="a_edge5_Node000001_Node000005"><a xlink:title=" ">
<path fill="none" stroke="#63b8ff" d="M210.22,-57.2C248.16,-47.01 298.85,-33.41 334.15,-23.94"/>
<polygon fill="#63b8ff" stroke="#63b8ff" points="335.37,-27.23 344.12,-21.26 333.56,-20.47 335.37,-27.23"/>
</a>
</g>
</g>
<!-- Node4&#45;&gt;Node4 -->
<g id="edge4_Node000004_Node000004" class="edge">
<title>Node4&#45;&gt;Node4</title>
<g id="a_edge4_Node000004_Node000004"><a xlink:title=" ">
<path fill="none" stroke="#63b8ff" d="M242.99,-21.24C267.2,-25.32 292.5,-22.14 292.5,-11.71 292.5,-2.7 273.64,0.9 252.91,-0.91"/>
<polygon fill="#63b8ff" stroke="#63b8ff" points="252.46,2.56 242.99,-2.17 253.35,-4.38 252.46,2.56"/>
</a>
</g>
</g>
<!-- Node5&#45;&gt;Node5 -->
<g id="edge6_Node000005_Node000005" class="edge">
<title>Node5&#45;&gt;Node5</title>
<g id="a_edge6_Node000005_Node000005"><a xlink:title=" ">
<path fill="none" stroke="#63b8ff" d="M406.83,-21.24C432.59,-25.32 459.5,-22.14 459.5,-11.71 459.5,-2.62 439.08,0.96 416.79,-0.96"/>
<polygon fill="#63b8ff" stroke="#63b8ff" points="416.33,2.51 406.83,-2.17 417.18,-4.44 416.33,2.51"/>
</a>
</g>
</g>
</g>
</svg>
