<?xml version="1.0" encoding="UTF-8" standalone="no"?>
<!DOCTYPE svg PUBLIC "-//W3C//DTD SVG 1.1//EN"
 "http://www.w3.org/Graphics/SVG/1.1/DTD/svg11.dtd">
<!-- Generated by graphviz version 2.43.0 (0)
 -->
<!-- Title: MaterialShaderProperties.ixx Pages: 1 -->
<svg width="486pt" height="225pt"
 viewBox="0.00 0.00 486.00 225.00" xmlns="http://www.w3.org/2000/svg" xmlns:xlink="http://www.w3.org/1999/xlink">

<svg id="main" version="1.1" xmlns="http://www.w3.org/2000/svg" xmlns:xlink="http://www.w3.org/1999/xlink" xml:space="preserve">

<style type="text/css"><![CDATA[
.node, .edge {opacity: 0.7;}
.node.selected, .edge.selected {opacity: 1;}
.edge:hover path { stroke: red; }
.edge:hover polygon { stroke: red; fill: red; }
]]></style>
<script type="application/ecmascript" xlink:href="svg.min.js"/>
<svg id="graph" class="graph">
<g id="graph0" class="graph" transform="scale(1 1) rotate(0) translate(4 221)">
<title>MaterialShaderProperties.ixx</title>
<!-- Node1 -->
<g id="Node000001" class="node">
<title>Node1</title>
<g id="a_Node000001"><a xlink:title="Default material properties used by materials and instances.">
<polygon fill="#999999" stroke="#666666" points="308,-217 150,-217 150,-198 308,-198 308,-217"/>
<text text-anchor="middle" x="229" y="-205" font-family="Helvetica,sans-Serif" font-size="10.00">MaterialShaderProperties.ixx</text>
</a>
</g>
</g>
<!-- Node2 -->
<g id="Node000002" class="node">
<title>Node2</title>
<g id="a_Node000002"><a xlink:href="UniformSemantics_8ixx.html" target="_top" xlink:title="Definitions of uniform semantics used by shaders.">
<polygon fill="white" stroke="#666666" points="134,-30 0,-30 0,0 134,0 134,-30"/>
<text text-anchor="start" x="8" y="-18" font-family="Helvetica,sans-Serif" font-size="10.00">helios.rendering.shader.</text>
<text text-anchor="middle" x="67" y="-7" font-family="Helvetica,sans-Serif" font-size="10.00">UniformSemantics</text>
</a>
</g>
</g>
<!-- Node1&#45;&gt;Node2 -->
<g id="edge1_Node000001_Node000002" class="edge">
<title>Node1&#45;&gt;Node2</title>
<g id="a_edge1_Node000001_Node000002"><a xlink:title=" ">
<path fill="none" stroke="#63b8ff" d="M215.78,-197.98C190.62,-181.18 135.39,-141.46 102,-96 89.44,-78.9 80.15,-56.59 74.31,-39.87"/>
<polygon fill="#63b8ff" stroke="#63b8ff" points="77.6,-38.67 71.12,-30.28 70.96,-40.88 77.6,-38.67"/>
</a>
</g>
</g>
<!-- Node3 -->
<g id="Node000003" class="node">
<title>Node3</title>
<g id="a_Node000003"><a xlink:href="UniformValueMap_8ixx.html" target="_top" xlink:title="Mapping of uniform names to values used by shader programs.">
<polygon fill="white" stroke="#666666" points="282,-96 148,-96 148,-66 282,-66 282,-96"/>
<text text-anchor="start" x="156" y="-84" font-family="Helvetica,sans-Serif" font-size="10.00">helios.rendering.shader.</text>
<text text-anchor="middle" x="215" y="-73" font-family="Helvetica,sans-Serif" font-size="10.00">UniformValueMap</text>
</a>
</g>
</g>
<!-- Node1&#45;&gt;Node3 -->
<g id="edge2_Node000001_Node000003" class="edge">
<title>Node1&#45;&gt;Node3</title>
<g id="a_edge2_Node000001_Node000003"><a xlink:title=" ">
<path fill="none" stroke="#63b8ff" d="M217.36,-197.73C207.69,-189.67 194.65,-176.74 189,-162 181.7,-142.96 190.1,-120.9 199.24,-104.77"/>
<polygon fill="#63b8ff" stroke="#63b8ff" points="202.35,-106.38 204.59,-96.03 196.38,-102.73 202.35,-106.38"/>
</a>
</g>
</g>
<!-- Node7 -->
<g id="Node000007" class="node">
<title>Node7</title>
<g id="a_Node000007"><a xlink:href="helios_2math_2types_2__module_8ixx.html" target="_top" xlink:title="Module exports for vector and matrix type definitions.">
<polygon fill="white" stroke="#666666" points="460,-24.5 356,-24.5 356,-5.5 460,-5.5 460,-24.5"/>
<text text-anchor="middle" x="408" y="-12.5" font-family="Helvetica,sans-Serif" font-size="10.00">helios.math.types</text>
</a>
</g>
</g>
<!-- Node1&#45;&gt;Node7 -->
<g id="edge9_Node000001_Node000007" class="edge">
<title>Node1&#45;&gt;Node7</title>
<g id="a_edge9_Node000001_Node000007"><a xlink:title=" ">
<path fill="none" stroke="#63b8ff" d="M308.38,-202.43C337.81,-196.79 368.88,-185.2 389,-162 420.19,-126.04 416.06,-65.15 411.49,-34.62"/>
<polygon fill="#63b8ff" stroke="#63b8ff" points="414.9,-33.8 409.79,-24.52 408,-34.96 414.9,-33.8"/>
</a>
</g>
</g>
<!-- Node8 -->
<g id="Node000008" class="node">
<title>Node8</title>
<g id="a_Node000008"><a xlink:href="MaterialShaderPropertiesOverride_8ixx.html" target="_top" xlink:title="Overrides for material properties to customize rendering parameters.">
<polygon fill="white" stroke="#666666" points="380,-162 198,-162 198,-132 380,-132 380,-162"/>
<text text-anchor="start" x="206" y="-150" font-family="Helvetica,sans-Serif" font-size="10.00">helios.rendering.material.</text>
<text text-anchor="middle" x="289" y="-139" font-family="Helvetica,sans-Serif" font-size="10.00">MaterialShaderPropertiesOverride</text>
</a>
</g>
</g>
<!-- Node1&#45;&gt;Node8 -->
<g id="edge10_Node000001_Node000008" class="edge">
<title>Node1&#45;&gt;Node8</title>
<g id="a_edge10_Node000001_Node000008"><a xlink:title=" ">
<path fill="none" stroke="#63b8ff" d="M237.85,-197.87C245.54,-190.37 257,-179.2 267.13,-169.33"/>
<polygon fill="#63b8ff" stroke="#63b8ff" points="269.81,-171.6 274.52,-162.11 264.92,-166.59 269.81,-171.6"/>
</a>
</g>
</g>
<!-- Node3&#45;&gt;Node2 -->
<g id="edge8_Node000003_Node000002" class="edge">
<title>Node3&#45;&gt;Node2</title>
<g id="a_edge8_Node000003_Node000002"><a xlink:title=" ">
<path fill="none" stroke="#63b8ff" d="M182.52,-65.95C160.83,-56.58 132.11,-44.16 108.73,-34.05"/>
<polygon fill="#63b8ff" stroke="#63b8ff" points="109.97,-30.77 99.4,-30.01 107.19,-37.19 109.97,-30.77"/>
</a>
</g>
</g>
<!-- Node4 -->
<g id="Node000004" class="node">
<title>Node4</title>
<g id="a_Node000004"><a xlink:title=" ">
<polygon fill="#e0e0e0" stroke="#999999" points="264,-24.5 222,-24.5 222,-5.5 264,-5.5 264,-24.5"/>
<text text-anchor="middle" x="243" y="-12.5" font-family="Helvetica,sans-Serif" font-size="10.00">array</text>
</a>
</g>
</g>
<!-- Node3&#45;&gt;Node4 -->
<g id="edge3_Node000003_Node000004" class="edge">
<title>Node3&#45;&gt;Node4</title>
<g id="a_edge3_Node000003_Node000004"><a xlink:title=" ">
<path fill="none" stroke="#63b8ff" d="M221.21,-65.8C225.28,-56.5 230.63,-44.27 235.01,-34.26"/>
<polygon fill="#63b8ff" stroke="#63b8ff" points="238.33,-35.41 239.13,-24.84 231.92,-32.6 238.33,-35.41"/>
</a>
</g>
</g>
<!-- Node5 -->
<g id="Node000005" class="node">
<title>Node5</title>
<g id="a_Node000005"><a xlink:title=" ">
<polygon fill="#e0e0e0" stroke="#999999" points="338,-24.5 282,-24.5 282,-5.5 338,-5.5 338,-24.5"/>
<text text-anchor="middle" x="310" y="-12.5" font-family="Helvetica,sans-Serif" font-size="10.00">optional</text>
</a>
</g>
</g>
<!-- Node3&#45;&gt;Node5 -->
<g id="edge4_Node000003_Node000005" class="edge">
<title>Node3&#45;&gt;Node5</title>
<g id="a_edge4_Node000003_Node000005"><a xlink:title=" ">
<path fill="none" stroke="#63b8ff" d="M236.08,-65.8C251.71,-55.27 272.93,-40.97 288.63,-30.4"/>
<polygon fill="#63b8ff" stroke="#63b8ff" points="290.81,-33.15 297.15,-24.66 286.9,-27.34 290.81,-33.15"/>
</a>
</g>
</g>
<!-- Node6 -->
<g id="Node000006" class="node">
<title>Node6</title>
<g id="a_Node000006"><a xlink:title=" ">
<polygon fill="#e0e0e0" stroke="#999999" points="203.5,-24.5 152.5,-24.5 152.5,-5.5 203.5,-5.5 203.5,-24.5"/>
<text text-anchor="middle" x="178" y="-12.5" font-family="Helvetica,sans-Serif" font-size="10.00">variant</text>
</a>
</g>
</g>
<!-- Node3&#45;&gt;Node6 -->
<g id="edge5_Node000003_Node000006" class="edge">
<title>Node3&#45;&gt;Node6</title>
<g id="a_edge5_Node000003_Node000006"><a xlink:title=" ">
<path fill="none" stroke="#63b8ff" d="M206.79,-65.8C201.3,-56.31 194.05,-43.76 188.19,-33.63"/>
<polygon fill="#63b8ff" stroke="#63b8ff" points="191.15,-31.75 183.11,-24.84 185.09,-35.25 191.15,-31.75"/>
</a>
</g>
</g>
<!-- Node3&#45;&gt;Node7 -->
<g id="edge6_Node000003_Node000007" class="edge">
<title>Node3&#45;&gt;Node7</title>
<g id="a_edge6_Node000003_Node000007"><a xlink:title=" ">
<path fill="none" stroke="#63b8ff" d="M257.35,-65.95C291.95,-54.48 340.26,-38.46 372.77,-27.68"/>
<polygon fill="#63b8ff" stroke="#63b8ff" points="373.92,-30.99 382.31,-24.52 371.72,-24.34 373.92,-30.99"/>
</a>
</g>
</g>
<!-- Node7&#45;&gt;Node7 -->
<g id="edge7_Node000007_Node000007" class="edge">
<title>Node7&#45;&gt;Node7</title>
<g id="a_edge7_Node000007_Node000007"><a xlink:title=" ">
<path fill="none" stroke="#63b8ff" d="M429.86,-24.56C452.56,-30.37 478,-27.18 478,-15 478,-4.58 459.39,-0.74 439.79,-3.48"/>
<polygon fill="#63b8ff" stroke="#63b8ff" points="439,-0.07 429.86,-5.44 440.35,-6.94 439,-0.07"/>
</a>
</g>
</g>
<!-- Node8&#45;&gt;Node2 -->
<g id="edge12_Node000008_Node000002" class="edge">
<title>Node8&#45;&gt;Node2</title>
<g id="a_edge12_Node000008_Node000002"><a xlink:title=" ">
<path fill="none" stroke="#63b8ff" d="M222.93,-131.9C195.51,-124.1 164.26,-112.54 139,-96 115.76,-80.78 95.23,-56.26 82.1,-38.37"/>
<polygon fill="#63b8ff" stroke="#63b8ff" points="84.93,-36.3 76.27,-30.19 79.23,-40.36 84.93,-36.3"/>
</a>
</g>
</g>
<!-- Node8&#45;&gt;Node3 -->
<g id="edge13_Node000008_Node000003" class="edge">
<title>Node8&#45;&gt;Node3</title>
<g id="a_edge13_Node000008_Node000003"><a xlink:title=" ">
<path fill="none" stroke="#63b8ff" d="M272.58,-131.8C262.71,-123.26 249.98,-112.25 239,-102.75"/>
<polygon fill="#63b8ff" stroke="#63b8ff" points="241.23,-100.06 231.38,-96.16 236.65,-105.35 241.23,-100.06"/>
</a>
</g>
</g>
<!-- Node8&#45;&gt;Node5 -->
<g id="edge11_Node000008_Node000005" class="edge">
<title>Node8&#45;&gt;Node5</title>
<g id="a_edge11_Node000008_Node000005"><a xlink:title=" ">
<path fill="none" stroke="#63b8ff" d="M291.29,-131.84C295.08,-108.34 302.69,-61.26 306.94,-34.93"/>
<polygon fill="#63b8ff" stroke="#63b8ff" points="310.45,-35.18 308.59,-24.75 303.54,-34.06 310.45,-35.18"/>
</a>
</g>
</g>
<!-- Node8&#45;&gt;Node7 -->
<g id="edge14_Node000008_Node000007" class="edge">
<title>Node8&#45;&gt;Node7</title>
<g id="a_edge14_Node000008_Node000007"><a xlink:title=" ">
<path fill="none" stroke="#63b8ff" d="M301.96,-131.84C324.25,-107.49 369.69,-57.85 393.19,-32.18"/>
<polygon fill="#63b8ff" stroke="#63b8ff" points="395.82,-34.49 399.99,-24.75 390.66,-29.76 395.82,-34.49"/>
</a>
</g>
</g>
</g>
</svg>
</svg>

<style type='text/css'>
<![CDATA[
[data-mouse-over-selected='false'] { opacity: 0.7; }
[data-mouse-over-selected='true']  { opacity: 1.0; }
]]>
</style>
<script type="application/ecmascript"><![CDATA[
document.addEventListener('DOMContentLoaded', (event) => {
  highlightEdges();
  highlightAdjacentNodes();
});
]]></script>
</svg>
