<?xml version="1.0" encoding="UTF-8" standalone="no"?>
<!DOCTYPE svg PUBLIC "-//W3C//DTD SVG 1.1//EN"
 "http://www.w3.org/Graphics/SVG/1.1/DTD/svg11.dtd">
<!-- Generated by graphviz version 2.43.0 (0)
 -->
<!-- Title: include/helios/rendering/model/Mesh.ixx Pages: 1 -->
<svg width="937pt" height="227pt"
 viewBox="0.00 0.00 937.00 227.17" xmlns="http://www.w3.org/2000/svg" xmlns:xlink="http://www.w3.org/1999/xlink">
<g id="graph0" class="graph" transform="scale(1 1) rotate(0) translate(4 223.17)">
<title>include/helios/rendering/model/Mesh.ixx</title>
<!-- Node1 -->
<g id="Node000001" class="node">
<title>Node1</title>
<g id="a_Node000001"><a xlink:title="Mesh abstraction: immutable vertex/index data and configuration.">
<polygon fill="#999999" stroke="#666666" points="555.5,-219.17 421.5,-219.17 421.5,-189.17 555.5,-189.17 555.5,-219.17"/>
<text text-anchor="start" x="429.5" y="-207.17" font-family="Helvetica,sans-Serif" font-size="10.00">include/helios/rendering</text>
<text text-anchor="middle" x="488.5" y="-196.17" font-family="Helvetica,sans-Serif" font-size="10.00">/model/Mesh.ixx</text>
</a>
</g>
</g>
<!-- Node2 -->
<g id="Node000002" class="node">
<title>Node2</title>
<g id="a_Node000002"><a xlink:title=" ">
<polygon fill="#e0e0e0" stroke="#999999" points="411.5,-81.67 353.5,-81.67 353.5,-62.67 411.5,-62.67 411.5,-81.67"/>
<text text-anchor="middle" x="382.5" y="-69.67" font-family="Helvetica,sans-Serif" font-size="10.00">memory</text>
</a>
</g>
</g>
<!-- Node1&#45;&gt;Node2 -->
<g id="edge1_Node000001_Node000002" class="edge">
<title>Node1&#45;&gt;Node2</title>
<g id="a_edge1_Node000001_Node000002"><a xlink:title=" ">
<path fill="none" stroke="#63b8ff" d="M440.12,-189.15C422.01,-181.45 403.06,-169.94 391.5,-153.17 379.07,-135.14 378.49,-109.22 379.9,-91.81"/>
<polygon fill="#63b8ff" stroke="#63b8ff" points="383.39,-92.1 381.02,-81.78 376.43,-91.33 383.39,-92.1"/>
</a>
</g>
</g>
<!-- Node3 -->
<g id="Node000003" class="node">
<title>Node3</title>
<g id="a_Node000003"><a xlink:title=" ">
<polygon fill="#e0e0e0" stroke="#999999" points="929,-147.67 864,-147.67 864,-128.67 929,-128.67 929,-147.67"/>
<text text-anchor="middle" x="896.5" y="-135.67" font-family="Helvetica,sans-Serif" font-size="10.00">stdexcept</text>
</a>
</g>
</g>
<!-- Node1&#45;&gt;Node3 -->
<g id="edge2_Node000001_Node000003" class="edge">
<title>Node1&#45;&gt;Node3</title>
<g id="a_edge2_Node000001_Node000003"><a xlink:title=" ">
<path fill="none" stroke="#63b8ff" d="M555.57,-196.96C628.46,-189.5 748.09,-175.17 849.5,-153.17 853.12,-152.39 856.88,-151.46 860.61,-150.47"/>
<polygon fill="#63b8ff" stroke="#63b8ff" points="861.66,-153.81 870.33,-147.73 859.76,-147.08 861.66,-153.81"/>
</a>
</g>
</g>
<!-- Node4 -->
<g id="Node000004" class="node">
<title>Node4</title>
<g id="a_Node000004"><a xlink:title=" ">
<polygon fill="#e0e0e0" stroke="#999999" points="477,-81.67 430,-81.67 430,-62.67 477,-62.67 477,-81.67"/>
<text text-anchor="middle" x="453.5" y="-69.67" font-family="Helvetica,sans-Serif" font-size="10.00">vector</text>
</a>
</g>
</g>
<!-- Node1&#45;&gt;Node4 -->
<g id="edge3_Node000001_Node000004" class="edge">
<title>Node1&#45;&gt;Node4</title>
<g id="a_edge3_Node000001_Node000004"><a xlink:title=" ">
<path fill="none" stroke="#63b8ff" d="M443.82,-189.14C426.84,-181.39 409.26,-169.85 399.5,-153.17 392.77,-141.67 394.16,-135.39 399.5,-123.17 405.86,-108.62 418.78,-96.41 430.38,-87.7"/>
<polygon fill="#63b8ff" stroke="#63b8ff" points="432.7,-90.35 438.87,-81.74 428.68,-84.62 432.7,-90.35"/>
</a>
</g>
</g>
<!-- Node5 -->
<g id="Node000005" class="node">
<title>Node5</title>
<g id="a_Node000005"><a xlink:href="Logger_8ixx.html" target="_top" xlink:title="Simple synchronous logger that writes messages to stdout.">
<polygon fill="white" stroke="#666666" points="119,-81.67 0,-81.67 0,-62.67 119,-62.67 119,-81.67"/>
<text text-anchor="middle" x="59.5" y="-69.67" font-family="Helvetica,sans-Serif" font-size="10.00">helios.util.log.Logger</text>
</a>
</g>
</g>
<!-- Node1&#45;&gt;Node5 -->
<g id="edge4_Node000001_Node000005" class="edge">
<title>Node1&#45;&gt;Node5</title>
<g id="a_edge4_Node000001_Node000005"><a xlink:title=" ">
<path fill="none" stroke="#63b8ff" d="M421.24,-197.84C336.56,-190.34 196.47,-175.09 149.5,-153.17 117.46,-138.23 88.48,-108.12 72.5,-89.4"/>
<polygon fill="#63b8ff" stroke="#63b8ff" points="75.18,-87.16 66.1,-81.7 69.8,-91.63 75.18,-87.16"/>
</a>
</g>
</g>
<!-- Node8 -->
<g id="Node000008" class="node">
<title>Node8</title>
<g id="a_Node000008"><a xlink:href="LogManager_8ixx.html" target="_top" xlink:title="Central manager for scoped loggers.">
<polygon fill="white" stroke="#666666" points="304.5,-147.67 158.5,-147.67 158.5,-128.67 304.5,-128.67 304.5,-147.67"/>
<text text-anchor="middle" x="231.5" y="-135.67" font-family="Helvetica,sans-Serif" font-size="10.00">helios.util.log.LogManager</text>
</a>
</g>
</g>
<!-- Node1&#45;&gt;Node8 -->
<g id="edge7_Node000001_Node000008" class="edge">
<title>Node1&#45;&gt;Node8</title>
<g id="a_edge7_Node000001_Node000008"><a xlink:title=" ">
<path fill="none" stroke="#63b8ff" d="M432.1,-189.13C385.04,-177.41 318.92,-160.94 275.65,-150.17"/>
<polygon fill="#63b8ff" stroke="#63b8ff" points="276.25,-146.71 265.7,-147.69 274.56,-153.5 276.25,-146.71"/>
</a>
</g>
</g>
<!-- Node11 -->
<g id="Node000011" class="node">
<title>Node11</title>
<g id="a_Node000011"><a xlink:href="Shape_8ixx.html" target="_top" xlink:title="Interface for simple geometric shapes used for testing and debugging.">
<polygon fill="white" stroke="#666666" points="568.5,-153.17 408.5,-153.17 408.5,-123.17 568.5,-123.17 568.5,-153.17"/>
<text text-anchor="start" x="416.5" y="-141.17" font-family="Helvetica,sans-Serif" font-size="10.00">helios.rendering.asset.shape.</text>
<text text-anchor="middle" x="488.5" y="-130.17" font-family="Helvetica,sans-Serif" font-size="10.00">Shape</text>
</a>
</g>
</g>
<!-- Node1&#45;&gt;Node11 -->
<g id="edge13_Node000001_Node000011" class="edge">
<title>Node1&#45;&gt;Node11</title>
<g id="a_edge13_Node000001_Node000011"><a xlink:title=" ">
<path fill="none" stroke="#63b8ff" d="M488.5,-188.97C488.5,-181.51 488.5,-172.17 488.5,-163.59"/>
<polygon fill="#63b8ff" stroke="#63b8ff" points="492,-163.34 488.5,-153.34 485,-163.34 492,-163.34"/>
</a>
</g>
</g>
<!-- Node13 -->
<g id="Node000013" class="node">
<title>Node13</title>
<g id="a_Node000013"><a xlink:href="Vertex_8ixx.html" target="_top" xlink:title="Vertex description and utilities for rendering.">
<polygon fill="white" stroke="#666666" points="807.5,-81.67 677.5,-81.67 677.5,-62.67 807.5,-62.67 807.5,-81.67"/>
<text text-anchor="middle" x="742.5" y="-69.67" font-family="Helvetica,sans-Serif" font-size="10.00">helios.rendering.Vertex</text>
</a>
</g>
</g>
<!-- Node1&#45;&gt;Node13 -->
<g id="edge22_Node000001_Node000013" class="edge">
<title>Node1&#45;&gt;Node13</title>
<g id="a_edge22_Node000001_Node000013"><a xlink:title=" ">
<path fill="none" stroke="#63b8ff" d="M555.69,-200.32C627.37,-195.69 734.06,-183.74 759.5,-153.17 774.22,-135.5 763.5,-108.16 753.65,-90.46"/>
<polygon fill="#63b8ff" stroke="#63b8ff" points="756.57,-88.53 748.43,-81.75 750.56,-92.12 756.57,-88.53"/>
</a>
</g>
</g>
<!-- Node14 -->
<g id="Node000014" class="node">
<title>Node14</title>
<g id="a_Node000014"><a xlink:href="helios_2math_2types_2__module_8ixx.html" target="_top" xlink:title="Module exports for vector and matrix type definitions.">
<polygon fill="white" stroke="#666666" points="840.5,-21.17 736.5,-21.17 736.5,-2.17 840.5,-2.17 840.5,-21.17"/>
<text text-anchor="middle" x="788.5" y="-9.17" font-family="Helvetica,sans-Serif" font-size="10.00">helios.math.types</text>
</a>
</g>
</g>
<!-- Node1&#45;&gt;Node14 -->
<g id="edge23_Node000001_Node000014" class="edge">
<title>Node1&#45;&gt;Node14</title>
<g id="a_edge23_Node000001_Node000014"><a xlink:title=" ">
<path fill="none" stroke="#63b8ff" d="M555.65,-198.07C629.51,-191.33 742.41,-177.4 777.5,-153.17 815.4,-127.01 829.26,-101.42 816.5,-57.17 813.63,-47.23 807.82,-37.37 802.22,-29.47"/>
<polygon fill="#63b8ff" stroke="#63b8ff" points="805,-27.34 796.17,-21.48 799.42,-31.56 805,-27.34"/>
</a>
</g>
</g>
<!-- Node15 -->
<g id="Node000015" class="node">
<title>Node15</title>
<g id="a_Node000015"><a xlink:href="MeshConfig_8ixx.html" target="_top" xlink:title="Mesh configuration including primitive type.">
<polygon fill="white" stroke="#666666" points="750.5,-153.17 586.5,-153.17 586.5,-123.17 750.5,-123.17 750.5,-153.17"/>
<text text-anchor="start" x="594.5" y="-141.17" font-family="Helvetica,sans-Serif" font-size="10.00">helios.rendering.model.config.</text>
<text text-anchor="middle" x="668.5" y="-130.17" font-family="Helvetica,sans-Serif" font-size="10.00">MeshConfig</text>
</a>
</g>
</g>
<!-- Node1&#45;&gt;Node15 -->
<g id="edge20_Node000001_Node000015" class="edge">
<title>Node1&#45;&gt;Node15</title>
<g id="a_edge20_Node000001_Node000015"><a xlink:title=" ">
<path fill="none" stroke="#63b8ff" d="M528,-189.13C554.97,-179.54 590.87,-166.78 619.63,-156.55"/>
<polygon fill="#63b8ff" stroke="#63b8ff" points="620.84,-159.83 629.09,-153.19 618.5,-153.24 620.84,-159.83"/>
</a>
</g>
</g>
<!-- Node6 -->
<g id="Node000006" class="node">
<title>Node6</title>
<g id="a_Node000006"><a xlink:title=" ">
<polygon fill="#e0e0e0" stroke="#999999" points="89.5,-21.17 29.5,-21.17 29.5,-2.17 89.5,-2.17 89.5,-21.17"/>
<text text-anchor="middle" x="59.5" y="-9.17" font-family="Helvetica,sans-Serif" font-size="10.00">iostream</text>
</a>
</g>
</g>
<!-- Node5&#45;&gt;Node6 -->
<g id="edge5_Node000005_Node000006" class="edge">
<title>Node5&#45;&gt;Node6</title>
<g id="a_edge5_Node000005_Node000006"><a xlink:title=" ">
<path fill="none" stroke="#63b8ff" d="M59.5,-62.54C59.5,-54.42 59.5,-41.98 59.5,-31.56"/>
<polygon fill="#63b8ff" stroke="#63b8ff" points="63,-31.34 59.5,-21.34 56,-31.34 63,-31.34"/>
</a>
</g>
</g>
<!-- Node7 -->
<g id="Node000007" class="node">
<title>Node7</title>
<g id="a_Node000007"><a xlink:title=" ">
<polygon fill="#e0e0e0" stroke="#999999" points="160.5,-21.17 116.5,-21.17 116.5,-2.17 160.5,-2.17 160.5,-21.17"/>
<text text-anchor="middle" x="138.5" y="-9.17" font-family="Helvetica,sans-Serif" font-size="10.00">string</text>
</a>
</g>
</g>
<!-- Node5&#45;&gt;Node7 -->
<g id="edge6_Node000005_Node000007" class="edge">
<title>Node5&#45;&gt;Node7</title>
<g id="a_edge6_Node000005_Node000007"><a xlink:title=" ">
<path fill="none" stroke="#63b8ff" d="M71.16,-62.54C83.64,-53.3 103.68,-38.46 118.66,-27.37"/>
<polygon fill="#63b8ff" stroke="#63b8ff" points="120.84,-30.11 126.8,-21.34 116.68,-24.48 120.84,-30.11"/>
</a>
</g>
</g>
<!-- Node8&#45;&gt;Node2 -->
<g id="edge10_Node000008_Node000002" class="edge">
<title>Node8&#45;&gt;Node2</title>
<g id="a_edge10_Node000008_Node000002"><a xlink:title=" ">
<path fill="none" stroke="#63b8ff" d="M251.86,-128.54C277.76,-117.57 322.67,-98.53 352.49,-85.89"/>
<polygon fill="#63b8ff" stroke="#63b8ff" points="354.13,-89 361.98,-81.87 351.4,-82.55 354.13,-89"/>
</a>
</g>
</g>
<!-- Node8&#45;&gt;Node5 -->
<g id="edge12_Node000008_Node000005" class="edge">
<title>Node8&#45;&gt;Node5</title>
<g id="a_edge12_Node000008_Node000005"><a xlink:title=" ">
<path fill="none" stroke="#63b8ff" d="M208.3,-128.54C178.34,-117.39 126.02,-97.93 92.08,-85.3"/>
<polygon fill="#63b8ff" stroke="#63b8ff" points="93.2,-81.98 82.6,-81.77 90.75,-88.54 93.2,-81.98"/>
</a>
</g>
</g>
<!-- Node8&#45;&gt;Node7 -->
<g id="edge8_Node000008_Node000007" class="edge">
<title>Node8&#45;&gt;Node7</title>
<g id="a_edge8_Node000008_Node000007"><a xlink:title=" ">
<path fill="none" stroke="#63b8ff" d="M215.82,-128.59C201.23,-119.87 179.8,-105.14 166.5,-87.17 153.94,-70.21 146.4,-46.97 142.36,-30.98"/>
<polygon fill="#63b8ff" stroke="#63b8ff" points="145.77,-30.19 140.11,-21.23 138.95,-31.76 145.77,-30.19"/>
</a>
</g>
</g>
<!-- Node9 -->
<g id="Node000009" class="node">
<title>Node9</title>
<g id="a_Node000009"><a xlink:title=" ">
<polygon fill="#e0e0e0" stroke="#999999" points="269,-81.67 176,-81.67 176,-62.67 269,-62.67 269,-81.67"/>
<text text-anchor="middle" x="222.5" y="-69.67" font-family="Helvetica,sans-Serif" font-size="10.00">unordered_map</text>
</a>
</g>
</g>
<!-- Node8&#45;&gt;Node9 -->
<g id="edge9_Node000008_Node000009" class="edge">
<title>Node8&#45;&gt;Node9</title>
<g id="a_edge9_Node000008_Node000009"><a xlink:title=" ">
<path fill="none" stroke="#63b8ff" d="M230.29,-128.54C228.98,-119.24 226.86,-104.15 225.16,-92.07"/>
<polygon fill="#63b8ff" stroke="#63b8ff" points="228.61,-91.5 223.75,-82.08 221.68,-92.47 228.61,-91.5"/>
</a>
</g>
</g>
<!-- Node10 -->
<g id="Node000010" class="node">
<title>Node10</title>
<g id="a_Node000010"><a xlink:title=" ">
<polygon fill="#e0e0e0" stroke="#999999" points="335.5,-81.67 287.5,-81.67 287.5,-62.67 335.5,-62.67 335.5,-81.67"/>
<text text-anchor="middle" x="311.5" y="-69.67" font-family="Helvetica,sans-Serif" font-size="10.00">mutex</text>
</a>
</g>
</g>
<!-- Node8&#45;&gt;Node10 -->
<g id="edge11_Node000008_Node000010" class="edge">
<title>Node8&#45;&gt;Node10</title>
<g id="a_edge11_Node000008_Node000010"><a xlink:title=" ">
<path fill="none" stroke="#63b8ff" d="M242.29,-128.54C255.17,-118.24 276.94,-100.82 292.63,-88.27"/>
<polygon fill="#63b8ff" stroke="#63b8ff" points="295,-90.85 300.63,-81.87 290.63,-85.39 295,-90.85"/>
</a>
</g>
</g>
<!-- Node11&#45;&gt;Node2 -->
<g id="edge14_Node000011_Node000002" class="edge">
<title>Node11&#45;&gt;Node2</title>
<g id="a_edge14_Node000011_Node000002"><a xlink:title=" ">
<path fill="none" stroke="#63b8ff" d="M465.24,-123.13C447.39,-112.35 422.88,-97.55 405.17,-86.86"/>
<polygon fill="#63b8ff" stroke="#63b8ff" points="406.98,-83.86 396.61,-81.69 403.36,-89.86 406.98,-83.86"/>
</a>
</g>
</g>
<!-- Node11&#45;&gt;Node4 -->
<g id="edge15_Node000011_Node000004" class="edge">
<title>Node11&#45;&gt;Node4</title>
<g id="a_edge15_Node000011_Node000004"><a xlink:title=" ">
<path fill="none" stroke="#63b8ff" d="M480.73,-122.97C475.54,-113.48 468.68,-100.93 463.14,-90.81"/>
<polygon fill="#63b8ff" stroke="#63b8ff" points="466.21,-89.11 458.34,-82.02 460.06,-92.47 466.21,-89.11"/>
</a>
</g>
</g>
<!-- Node12 -->
<g id="Node000012" class="node">
<title>Node12</title>
<g id="a_Node000012"><a xlink:href="PrimitiveType_8ixx.html" target="_top" xlink:title="Enum of primitive types for mesh rendering.">
<polygon fill="white" stroke="#666666" points="659.5,-87.17 495.5,-87.17 495.5,-57.17 659.5,-57.17 659.5,-87.17"/>
<text text-anchor="start" x="503.5" y="-75.17" font-family="Helvetica,sans-Serif" font-size="10.00">helios.rendering.model.config.</text>
<text text-anchor="middle" x="577.5" y="-64.17" font-family="Helvetica,sans-Serif" font-size="10.00">PrimitiveType</text>
</a>
</g>
</g>
<!-- Node11&#45;&gt;Node12 -->
<g id="edge16_Node000011_Node000012" class="edge">
<title>Node11&#45;&gt;Node12</title>
<g id="a_edge16_Node000011_Node000012"><a xlink:title=" ">
<path fill="none" stroke="#63b8ff" d="M508.25,-122.97C520.35,-114.27 536.03,-103 549.41,-93.38"/>
<polygon fill="#63b8ff" stroke="#63b8ff" points="551.73,-96.02 557.8,-87.34 547.64,-90.34 551.73,-96.02"/>
</a>
</g>
</g>
<!-- Node11&#45;&gt;Node13 -->
<g id="edge17_Node000011_Node000013" class="edge">
<title>Node11&#45;&gt;Node13</title>
<g id="a_edge17_Node000011_Node000013"><a xlink:title=" ">
<path fill="none" stroke="#63b8ff" d="M544.24,-123.13C590.75,-111.41 656.11,-94.94 698.87,-84.17"/>
<polygon fill="#63b8ff" stroke="#63b8ff" points="699.86,-87.53 708.7,-81.69 698.14,-80.74 699.86,-87.53"/>
</a>
</g>
</g>
<!-- Node13&#45;&gt;Node14 -->
<g id="edge18_Node000013_Node000014" class="edge">
<title>Node13&#45;&gt;Node14</title>
<g id="a_edge18_Node000013_Node000014"><a xlink:title=" ">
<path fill="none" stroke="#63b8ff" d="M749.29,-62.54C756.15,-53.82 766.93,-40.11 775.45,-29.27"/>
<polygon fill="#63b8ff" stroke="#63b8ff" points="778.25,-31.37 781.68,-21.34 772.75,-27.04 778.25,-31.37"/>
</a>
</g>
</g>
<!-- Node14&#45;&gt;Node14 -->
<g id="edge19_Node000014_Node000014" class="edge">
<title>Node14&#45;&gt;Node14</title>
<g id="a_edge19_Node000014_Node000014"><a xlink:title=" ">
<path fill="none" stroke="#63b8ff" d="M814.35,-21.21C835.94,-25.28 858.5,-22.1 858.5,-11.67 858.5,-2.87 842.44,0.76 824.45,-0.76"/>
<polygon fill="#63b8ff" stroke="#63b8ff" points="823.78,2.68 814.35,-2.14 824.73,-4.26 823.78,2.68"/>
</a>
</g>
</g>
<!-- Node15&#45;&gt;Node12 -->
<g id="edge21_Node000015_Node000012" class="edge">
<title>Node15&#45;&gt;Node12</title>
<g id="a_edge21_Node000015_Node000012"><a xlink:title=" ">
<path fill="none" stroke="#63b8ff" d="M648.3,-122.97C635.82,-114.19 619.6,-102.78 605.84,-93.1"/>
<polygon fill="#63b8ff" stroke="#63b8ff" points="607.83,-90.23 597.64,-87.34 603.81,-95.95 607.83,-90.23"/>
</a>
</g>
</g>
</g>
</svg>
