<?xml version="1.0" encoding="UTF-8" standalone="no"?>
<!DOCTYPE svg PUBLIC "-//W3C//DTD SVG 1.1//EN"
 "http://www.w3.org/Graphics/SVG/1.1/DTD/svg11.dtd">
<!-- Generated by graphviz version 2.43.0 (0)
 -->
<!-- Title: MeshRenderCommand.ixx Pages: 1 -->
<svg width="1917pt" height="467pt"
 viewBox="0.00 0.00 1916.71 467.00" xmlns="http://www.w3.org/2000/svg" xmlns:xlink="http://www.w3.org/1999/xlink">
<g id="graph0" class="graph" transform="scale(1 1) rotate(0) translate(4 463)">
<title>MeshRenderCommand.ixx</title>
<!-- Node1 -->
<g id="Node000001" class="node">
<title>Node1</title>
<g id="a_Node000001"><a xlink:title="Representation of a low&#45;level render command.">
<polygon fill="#999999" stroke="#666666" points="1228.71,-459 1082.71,-459 1082.71,-440 1228.71,-440 1228.71,-459"/>
<text text-anchor="middle" x="1155.71" y="-447" font-family="Helvetica,sans-Serif" font-size="10.00">MeshRenderCommand.ixx</text>
</a>
</g>
</g>
<!-- Node2 -->
<g id="Node000002" class="node">
<title>Node2</title>
<g id="a_Node000002"><a xlink:title=" ">
<polygon fill="#e0e0e0" stroke="#999999" points="1572.71,-79.5 1514.71,-79.5 1514.71,-60.5 1572.71,-60.5 1572.71,-79.5"/>
<text text-anchor="middle" x="1543.71" y="-67.5" font-family="Helvetica,sans-Serif" font-size="10.00">memory</text>
</a>
</g>
</g>
<!-- Node1&#45;&gt;Node2 -->
<g id="edge1_Node000001_Node000002" class="edge">
<title>Node1&#45;&gt;Node2</title>
<g id="a_edge1_Node000001_Node000002"><a xlink:title=" ">
<path fill="none" stroke="#63b8ff" d="M1228.93,-445.08C1418.16,-435.28 1908.71,-403.29 1908.71,-335 1908.71,-335 1908.71,-335 1908.71,-201 1908.71,-154.05 1880.61,-144.05 1839.71,-121 1796.41,-96.6 1653.35,-80.81 1583.2,-74.34"/>
<polygon fill="#63b8ff" stroke="#63b8ff" points="1583.27,-70.83 1572.99,-73.41 1582.64,-77.8 1583.27,-70.83"/>
</a>
</g>
</g>
<!-- Node3 -->
<g id="Node000003" class="node">
<title>Node3</title>
<g id="a_Node000003"><a xlink:href="UniformValueMap_8ixx.html" target="_top" xlink:title="Mapping of uniform names to values used by shader programs.">
<polygon fill="white" stroke="#666666" points="166.71,-151 32.71,-151 32.71,-121 166.71,-121 166.71,-151"/>
<text text-anchor="start" x="40.71" y="-139" font-family="Helvetica,sans-Serif" font-size="10.00">helios.rendering.shader.</text>
<text text-anchor="middle" x="99.71" y="-128" font-family="Helvetica,sans-Serif" font-size="10.00">UniformValueMap</text>
</a>
</g>
</g>
<!-- Node1&#45;&gt;Node3 -->
<g id="edge2_Node000001_Node000003" class="edge">
<title>Node1&#45;&gt;Node3</title>
<g id="a_edge2_Node000001_Node000003"><a xlink:title=" ">
<path fill="none" stroke="#63b8ff" d="M1082.42,-444.26C874.74,-431.08 287.1,-385.44 127.71,-283 98.05,-263.94 93.92,-250.74 83.71,-217 78.08,-198.43 83.06,-176.82 88.9,-160.75"/>
<polygon fill="#63b8ff" stroke="#63b8ff" points="92.31,-161.66 92.76,-151.08 85.81,-159.07 92.31,-161.66"/>
</a>
</g>
</g>
<!-- Node9 -->
<g id="Node000009" class="node">
<title>Node9</title>
<g id="a_Node000009"><a xlink:href="RenderPrototype_8ixx.html" target="_top" xlink:title="An immutable, shared prototype of a renderable object.">
<polygon fill="white" stroke="#666666" points="1245.71,-404 1065.71,-404 1065.71,-385 1245.71,-385 1245.71,-404"/>
<text text-anchor="middle" x="1155.71" y="-392" font-family="Helvetica,sans-Serif" font-size="10.00">helios.rendering.RenderPrototype</text>
</a>
</g>
</g>
<!-- Node1&#45;&gt;Node9 -->
<g id="edge9_Node000001_Node000009" class="edge">
<title>Node1&#45;&gt;Node9</title>
<g id="a_edge9_Node000001_Node000009"><a xlink:title=" ">
<path fill="none" stroke="#63b8ff" d="M1155.71,-439.75C1155.71,-432.8 1155.71,-422.85 1155.71,-414.13"/>
<polygon fill="#63b8ff" stroke="#63b8ff" points="1159.21,-414.09 1155.71,-404.09 1152.21,-414.09 1159.21,-414.09"/>
</a>
</g>
</g>
<!-- Node4 -->
<g id="Node000004" class="node">
<title>Node4</title>
<g id="a_Node000004"><a xlink:title=" ">
<polygon fill="#e0e0e0" stroke="#999999" points="55.71,-79.5 13.71,-79.5 13.71,-60.5 55.71,-60.5 55.71,-79.5"/>
<text text-anchor="middle" x="34.71" y="-67.5" font-family="Helvetica,sans-Serif" font-size="10.00">array</text>
</a>
</g>
</g>
<!-- Node3&#45;&gt;Node4 -->
<g id="edge3_Node000003_Node000004" class="edge">
<title>Node3&#45;&gt;Node4</title>
<g id="a_edge3_Node000003_Node000004"><a xlink:title=" ">
<path fill="none" stroke="#63b8ff" d="M85.28,-120.8C75.15,-110.82 61.58,-97.46 51.04,-87.09"/>
<polygon fill="#63b8ff" stroke="#63b8ff" points="53.27,-84.37 43.69,-79.84 48.36,-89.35 53.27,-84.37"/>
</a>
</g>
</g>
<!-- Node5 -->
<g id="Node000005" class="node">
<title>Node5</title>
<g id="a_Node000005"><a xlink:title=" ">
<polygon fill="#e0e0e0" stroke="#999999" points="199.71,-79.5 143.71,-79.5 143.71,-60.5 199.71,-60.5 199.71,-79.5"/>
<text text-anchor="middle" x="171.71" y="-67.5" font-family="Helvetica,sans-Serif" font-size="10.00">optional</text>
</a>
</g>
</g>
<!-- Node3&#45;&gt;Node5 -->
<g id="edge4_Node000003_Node000005" class="edge">
<title>Node3&#45;&gt;Node5</title>
<g id="a_edge4_Node000003_Node000005"><a xlink:title=" ">
<path fill="none" stroke="#63b8ff" d="M115.69,-120.8C127.02,-110.72 142.24,-97.19 153.95,-86.78"/>
<polygon fill="#63b8ff" stroke="#63b8ff" points="156.61,-89.1 161.76,-79.84 151.96,-83.87 156.61,-89.1"/>
</a>
</g>
</g>
<!-- Node6 -->
<g id="Node000006" class="node">
<title>Node6</title>
<g id="a_Node000006"><a xlink:title=" ">
<polygon fill="#e0e0e0" stroke="#999999" points="125.21,-79.5 74.21,-79.5 74.21,-60.5 125.21,-60.5 125.21,-79.5"/>
<text text-anchor="middle" x="99.71" y="-67.5" font-family="Helvetica,sans-Serif" font-size="10.00">variant</text>
</a>
</g>
</g>
<!-- Node3&#45;&gt;Node6 -->
<g id="edge5_Node000003_Node000006" class="edge">
<title>Node3&#45;&gt;Node6</title>
<g id="a_edge5_Node000003_Node000006"><a xlink:title=" ">
<path fill="none" stroke="#63b8ff" d="M99.71,-120.8C99.71,-111.7 99.71,-99.79 99.71,-89.9"/>
<polygon fill="#63b8ff" stroke="#63b8ff" points="103.21,-89.84 99.71,-79.84 96.21,-89.84 103.21,-89.84"/>
</a>
</g>
</g>
<!-- Node7 -->
<g id="Node000007" class="node">
<title>Node7</title>
<g id="a_Node000007"><a xlink:href="helios_2math_2types_2__module_8ixx.html" target="_top" xlink:title="Module exports for vector and matrix type definitions.">
<polygon fill="white" stroke="#666666" points="473.71,-79.5 369.71,-79.5 369.71,-60.5 473.71,-60.5 473.71,-79.5"/>
<text text-anchor="middle" x="421.71" y="-67.5" font-family="Helvetica,sans-Serif" font-size="10.00">helios.math.types</text>
</a>
</g>
</g>
<!-- Node3&#45;&gt;Node7 -->
<g id="edge6_Node000003_Node000007" class="edge">
<title>Node3&#45;&gt;Node7</title>
<g id="a_edge6_Node000003_Node000007"><a xlink:title=" ">
<path fill="none" stroke="#63b8ff" d="M166.89,-122.82C219.69,-113.09 295.02,-98.83 360.71,-85 365.5,-83.99 370.51,-82.9 375.49,-81.79"/>
<polygon fill="#63b8ff" stroke="#63b8ff" points="376.64,-85.12 385.63,-79.51 375.1,-78.29 376.64,-85.12"/>
</a>
</g>
</g>
<!-- Node8 -->
<g id="Node000008" class="node">
<title>Node8</title>
<g id="a_Node000008"><a xlink:href="UniformSemantics_8ixx.html" target="_top" xlink:title="Definitions of uniform semantics used by shaders.">
<polygon fill="white" stroke="#666666" points="351.71,-85 217.71,-85 217.71,-55 351.71,-55 351.71,-85"/>
<text text-anchor="start" x="225.71" y="-73" font-family="Helvetica,sans-Serif" font-size="10.00">helios.rendering.shader.</text>
<text text-anchor="middle" x="284.71" y="-62" font-family="Helvetica,sans-Serif" font-size="10.00">UniformSemantics</text>
</a>
</g>
</g>
<!-- Node3&#45;&gt;Node8 -->
<g id="edge8_Node000003_Node000008" class="edge">
<title>Node3&#45;&gt;Node8</title>
<g id="a_edge8_Node000003_Node000008"><a xlink:title=" ">
<path fill="none" stroke="#63b8ff" d="M140.31,-120.95C168.02,-111.37 204.92,-98.6 234.48,-88.37"/>
<polygon fill="#63b8ff" stroke="#63b8ff" points="235.9,-91.59 244.2,-85.01 233.61,-84.97 235.9,-91.59"/>
</a>
</g>
</g>
<!-- Node7&#45;&gt;Node7 -->
<g id="edge7_Node000007_Node000007" class="edge">
<title>Node7&#45;&gt;Node7</title>
<g id="a_edge7_Node000007_Node000007"><a xlink:title=" ">
<path fill="none" stroke="#63b8ff" d="M447.55,-79.53C469.14,-83.61 491.71,-80.43 491.71,-70 491.71,-61.2 475.64,-57.56 457.66,-59.09"/>
<polygon fill="#63b8ff" stroke="#63b8ff" points="456.99,-55.65 447.55,-60.47 457.93,-62.58 456.99,-55.65"/>
</a>
</g>
</g>
<!-- Node9&#45;&gt;Node2 -->
<g id="edge10_Node000009_Node000002" class="edge">
<title>Node9&#45;&gt;Node2</title>
<g id="a_edge10_Node000009_Node000002"><a xlink:title=" ">
<path fill="none" stroke="#63b8ff" d="M1245.9,-387.08C1438.11,-372.2 1870.71,-331.72 1870.71,-269 1870.71,-269 1870.71,-269 1870.71,-201 1870.71,-154.34 1843,-144.53 1802.71,-121 1733,-80.3 1636.51,-71.94 1583.16,-70.68"/>
<polygon fill="#63b8ff" stroke="#63b8ff" points="1583.14,-67.18 1573.08,-70.52 1583.02,-74.18 1583.14,-67.18"/>
</a>
</g>
</g>
<!-- Node10 -->
<g id="Node000010" class="node">
<title>Node10</title>
<g id="a_Node000010"><a xlink:title=" ">
<polygon fill="#e0e0e0" stroke="#999999" points="1173.21,-211.5 1108.21,-211.5 1108.21,-192.5 1173.21,-192.5 1173.21,-211.5"/>
<text text-anchor="middle" x="1140.71" y="-199.5" font-family="Helvetica,sans-Serif" font-size="10.00">stdexcept</text>
</a>
</g>
</g>
<!-- Node9&#45;&gt;Node10 -->
<g id="edge11_Node000009_Node000010" class="edge">
<title>Node9&#45;&gt;Node10</title>
<g id="a_edge11_Node000009_Node000010"><a xlink:title=" ">
<path fill="none" stroke="#63b8ff" d="M1155.02,-384.82C1152.74,-355.87 1145.37,-262.2 1142.19,-221.82"/>
<polygon fill="#63b8ff" stroke="#63b8ff" points="1145.67,-221.43 1141.39,-211.73 1138.69,-221.98 1145.67,-221.43"/>
</a>
</g>
</g>
<!-- Node11 -->
<g id="Node000011" class="node">
<title>Node11</title>
<g id="a_Node000011"><a xlink:title=" ">
<polygon fill="#e0e0e0" stroke="#999999" points="850.71,-19 806.71,-19 806.71,0 850.71,0 850.71,-19"/>
<text text-anchor="middle" x="828.71" y="-7" font-family="Helvetica,sans-Serif" font-size="10.00">string</text>
</a>
</g>
</g>
<!-- Node9&#45;&gt;Node11 -->
<g id="edge12_Node000009_Node000011" class="edge">
<title>Node9&#45;&gt;Node11</title>
<g id="a_edge12_Node000009_Node000011"><a xlink:title=" ">
<path fill="none" stroke="#63b8ff" d="M1065.52,-392.64C845.58,-389.17 287.92,-371.63 127.71,-283 37.05,-232.85 19.18,-187.58 4.71,-85 2.84,-71.8 -4.46,-64.68 4.71,-55 32.4,-25.77 647.24,-13.55 796.35,-11.02"/>
<polygon fill="#63b8ff" stroke="#63b8ff" points="796.71,-14.51 806.65,-10.84 796.6,-7.51 796.71,-14.51"/>
</a>
</g>
</g>
<!-- Node12 -->
<g id="Node000012" class="node">
<title>Node12</title>
<g id="a_Node000012"><a xlink:href="Mesh_8ixx.html" target="_top" xlink:title="Mesh abstraction: immutable vertex/index data and configuration.">
<polygon fill="white" stroke="#666666" points="1374.21,-277.5 1219.21,-277.5 1219.21,-258.5 1374.21,-258.5 1374.21,-277.5"/>
<text text-anchor="middle" x="1296.71" y="-265.5" font-family="Helvetica,sans-Serif" font-size="10.00">helios.rendering.mesh.Mesh</text>
</a>
</g>
</g>
<!-- Node9&#45;&gt;Node12 -->
<g id="edge13_Node000009_Node000012" class="edge">
<title>Node9&#45;&gt;Node12</title>
<g id="a_edge13_Node000009_Node000012"><a xlink:title=" ">
<path fill="none" stroke="#63b8ff" d="M1165.4,-384.94C1188.94,-364.15 1249.41,-310.76 1279.36,-284.31"/>
<polygon fill="#63b8ff" stroke="#63b8ff" points="1281.77,-286.86 1286.95,-277.62 1277.13,-281.61 1281.77,-286.86"/>
</a>
</g>
</g>
<!-- Node28 -->
<g id="Node000028" class="node">
<title>Node28</title>
<g id="a_Node000028"><a xlink:href="Material_8ixx.html" target="_top" xlink:title="Material abstraction: shader + material properties.">
<polygon fill="white" stroke="#666666" points="1044.21,-349 901.21,-349 901.21,-319 1044.21,-319 1044.21,-349"/>
<text text-anchor="start" x="909.21" y="-337" font-family="Helvetica,sans-Serif" font-size="10.00">helios.rendering.material.</text>
<text text-anchor="middle" x="972.71" y="-326" font-family="Helvetica,sans-Serif" font-size="10.00">Material</text>
</a>
</g>
</g>
<!-- Node9&#45;&gt;Node28 -->
<g id="edge47_Node000009_Node000028" class="edge">
<title>Node9&#45;&gt;Node28</title>
<g id="a_edge47_Node000009_Node000028"><a xlink:title=" ">
<path fill="none" stroke="#63b8ff" d="M1129.1,-384.99C1102.3,-376.43 1060.21,-362.97 1026.44,-352.18"/>
<polygon fill="#63b8ff" stroke="#63b8ff" points="1027.29,-348.78 1016.7,-349.06 1025.16,-355.44 1027.29,-348.78"/>
</a>
</g>
</g>
<!-- Node12&#45;&gt;Node2 -->
<g id="edge14_Node000012_Node000002" class="edge">
<title>Node12&#45;&gt;Node2</title>
<g id="a_edge14_Node000012_Node000002"><a xlink:title=" ">
<path fill="none" stroke="#63b8ff" d="M1374.44,-265.12C1511.57,-261.01 1784.78,-248.86 1813.71,-217 1841.62,-186.26 1789.24,-130.88 1775.71,-121 1718.18,-79.03 1632.6,-70.94 1583.05,-70.11"/>
<polygon fill="#63b8ff" stroke="#63b8ff" points="1582.78,-66.61 1572.75,-70.04 1582.73,-73.61 1582.78,-66.61"/>
</a>
</g>
</g>
<!-- Node12&#45;&gt;Node7 -->
<g id="edge19_Node000012_Node000007" class="edge">
<title>Node12&#45;&gt;Node7</title>
<g id="a_edge19_Node000012_Node000007"><a xlink:title=" ">
<path fill="none" stroke="#63b8ff" d="M1280.92,-258.41C1264.18,-249.04 1237.22,-233.2 1215.71,-217 1199.87,-205.08 1200.79,-195.12 1182.71,-187 1045.71,-125.45 992.62,-186.57 846.71,-151 811.02,-142.3 805.23,-130.34 769.71,-121 671.53,-95.19 554.03,-81.81 483.76,-75.61"/>
<polygon fill="#63b8ff" stroke="#63b8ff" points="484,-72.11 473.74,-74.74 483.4,-79.09 484,-72.11"/>
</a>
</g>
</g>
<!-- Node12&#45;&gt;Node10 -->
<g id="edge15_Node000012_Node000010" class="edge">
<title>Node12&#45;&gt;Node10</title>
<g id="a_edge15_Node000012_Node000010"><a xlink:title=" ">
<path fill="none" stroke="#63b8ff" d="M1275.67,-258.37C1248.73,-247.32 1201.85,-228.08 1171.05,-215.45"/>
<polygon fill="#63b8ff" stroke="#63b8ff" points="1172.24,-212.15 1161.66,-211.6 1169.58,-218.63 1172.24,-212.15"/>
</a>
</g>
</g>
<!-- Node13 -->
<g id="Node000013" class="node">
<title>Node13</title>
<g id="a_Node000013"><a xlink:title=" ">
<polygon fill="#e0e0e0" stroke="#999999" points="1360.21,-79.5 1313.21,-79.5 1313.21,-60.5 1360.21,-60.5 1360.21,-79.5"/>
<text text-anchor="middle" x="1336.71" y="-67.5" font-family="Helvetica,sans-Serif" font-size="10.00">vector</text>
</a>
</g>
</g>
<!-- Node12&#45;&gt;Node13 -->
<g id="edge16_Node000012_Node000013" class="edge">
<title>Node12&#45;&gt;Node13</title>
<g id="a_edge16_Node000012_Node000013"><a xlink:title=" ">
<path fill="none" stroke="#63b8ff" d="M1298.47,-258.14C1302.2,-241.7 1312.45,-206.39 1334.71,-187 1374.77,-152.1 1417.3,-193.86 1448.71,-151 1473.56,-117.08 1411.31,-91.99 1369.97,-79.62"/>
<polygon fill="#63b8ff" stroke="#63b8ff" points="1370.81,-76.22 1360.23,-76.82 1368.88,-82.95 1370.81,-76.22"/>
</a>
</g>
</g>
<!-- Node14 -->
<g id="Node000014" class="node">
<title>Node14</title>
<g id="a_Node000014"><a xlink:title=" ">
<polygon fill="#e0e0e0" stroke="#999999" points="1742.21,-211.5 1695.21,-211.5 1695.21,-192.5 1742.21,-192.5 1742.21,-211.5"/>
<text text-anchor="middle" x="1718.71" y="-199.5" font-family="Helvetica,sans-Serif" font-size="10.00">cmath</text>
</a>
</g>
</g>
<!-- Node12&#45;&gt;Node14 -->
<g id="edge17_Node000012_Node000014" class="edge">
<title>Node12&#45;&gt;Node14</title>
<g id="a_edge17_Node000012_Node000014"><a xlink:title=" ">
<path fill="none" stroke="#63b8ff" d="M1374.21,-263.56C1453.84,-258.53 1580.78,-246.31 1686.71,-217 1688.39,-216.53 1690.11,-215.99 1691.82,-215.4"/>
<polygon fill="#63b8ff" stroke="#63b8ff" points="1693.4,-218.54 1701.43,-211.63 1690.84,-212.03 1693.4,-218.54"/>
</a>
</g>
</g>
<!-- Node15 -->
<g id="Node000015" class="node">
<title>Node15</title>
<g id="a_Node000015"><a xlink:title=" ">
<polygon fill="#e0e0e0" stroke="#999999" points="1804.71,-211.5 1760.71,-211.5 1760.71,-192.5 1804.71,-192.5 1804.71,-211.5"/>
<text text-anchor="middle" x="1782.71" y="-199.5" font-family="Helvetica,sans-Serif" font-size="10.00">limits</text>
</a>
</g>
</g>
<!-- Node12&#45;&gt;Node15 -->
<g id="edge18_Node000012_Node000015" class="edge">
<title>Node12&#45;&gt;Node15</title>
<g id="a_edge18_Node000012_Node000015"><a xlink:title=" ">
<path fill="none" stroke="#63b8ff" d="M1374.57,-265.84C1466.29,-262.8 1622.54,-252.31 1751.71,-217 1753.39,-216.54 1755.1,-216 1756.8,-215.4"/>
<polygon fill="#63b8ff" stroke="#63b8ff" points="1758.37,-218.54 1766.33,-211.55 1755.75,-212.05 1758.37,-218.54"/>
</a>
</g>
</g>
<!-- Node16 -->
<g id="Node000016" class="node">
<title>Node16</title>
<g id="a_Node000016"><a xlink:href="Logger_8ixx.html" target="_top" xlink:title="Simple synchronous logger with configurable output sinks.">
<polygon fill="white" stroke="#666666" points="975.21,-145.5 856.21,-145.5 856.21,-126.5 975.21,-126.5 975.21,-145.5"/>
<text text-anchor="middle" x="915.71" y="-133.5" font-family="Helvetica,sans-Serif" font-size="10.00">helios.util.log.Logger</text>
</a>
</g>
</g>
<!-- Node12&#45;&gt;Node16 -->
<g id="edge20_Node000012_Node000016" class="edge">
<title>Node12&#45;&gt;Node16</title>
<g id="a_edge20_Node000012_Node000016"><a xlink:title=" ">
<path fill="none" stroke="#63b8ff" d="M1290.76,-258.26C1278.76,-241.39 1249.85,-204.44 1215.71,-187 1195.53,-176.7 1067.62,-157.74 985.46,-146.36"/>
<polygon fill="#63b8ff" stroke="#63b8ff" points="985.82,-142.88 975.43,-144.98 984.86,-149.81 985.82,-142.88"/>
</a>
</g>
</g>
<!-- Node20 -->
<g id="Node000020" class="node">
<title>Node20</title>
<g id="a_Node000020"><a xlink:href="LogManager_8ixx.html" target="_top" xlink:title="Central manager for scoped loggers with configurable sinks.">
<polygon fill="white" stroke="#666666" points="868.71,-211.5 722.71,-211.5 722.71,-192.5 868.71,-192.5 868.71,-211.5"/>
<text text-anchor="middle" x="795.71" y="-199.5" font-family="Helvetica,sans-Serif" font-size="10.00">helios.util.log.LogManager</text>
</a>
</g>
</g>
<!-- Node12&#45;&gt;Node20 -->
<g id="edge28_Node000012_Node000020" class="edge">
<title>Node12&#45;&gt;Node20</title>
<g id="a_edge28_Node000012_Node000020"><a xlink:title=" ">
<path fill="none" stroke="#63b8ff" d="M1229.92,-258.47C1137.29,-246.64 970.22,-225.29 872.54,-212.81"/>
<polygon fill="#63b8ff" stroke="#63b8ff" points="872.8,-209.32 862.43,-211.52 871.91,-216.26 872.8,-209.32"/>
</a>
</g>
</g>
<!-- Node24 -->
<g id="Node000024" class="node">
<title>Node24</title>
<g id="a_Node000024"><a xlink:href="Shape_8ixx.html" target="_top" xlink:title="Interface for simple geometric shapes used for testing and debugging.">
<polygon fill="white" stroke="#666666" points="1503.71,-217 1343.71,-217 1343.71,-187 1503.71,-187 1503.71,-217"/>
<text text-anchor="start" x="1351.71" y="-205" font-family="Helvetica,sans-Serif" font-size="10.00">helios.rendering.asset.shape.</text>
<text text-anchor="middle" x="1423.71" y="-194" font-family="Helvetica,sans-Serif" font-size="10.00">Shape</text>
</a>
</g>
</g>
<!-- Node12&#45;&gt;Node24 -->
<g id="edge38_Node000012_Node000024" class="edge">
<title>Node12&#45;&gt;Node24</title>
<g id="a_edge38_Node000012_Node000024"><a xlink:title=" ">
<path fill="none" stroke="#63b8ff" d="M1313.83,-258.37C1332.36,-249.03 1362.48,-233.86 1386.49,-221.75"/>
<polygon fill="#63b8ff" stroke="#63b8ff" points="1388.34,-224.74 1395.7,-217.12 1385.19,-218.49 1388.34,-224.74"/>
</a>
</g>
</g>
<!-- Node26 -->
<g id="Node000026" class="node">
<title>Node26</title>
<g id="a_Node000026"><a xlink:href="Vertex_8ixx.html" target="_top" xlink:title="Vertex description and utilities for rendering.">
<polygon fill="white" stroke="#666666" points="1439.71,-145.5 1309.71,-145.5 1309.71,-126.5 1439.71,-126.5 1439.71,-145.5"/>
<text text-anchor="middle" x="1374.71" y="-133.5" font-family="Helvetica,sans-Serif" font-size="10.00">helios.rendering.Vertex</text>
</a>
</g>
</g>
<!-- Node12&#45;&gt;Node26 -->
<g id="edge44_Node000012_Node000026" class="edge">
<title>Node12&#45;&gt;Node26</title>
<g id="a_edge44_Node000012_Node000026"><a xlink:title=" ">
<path fill="none" stroke="#63b8ff" d="M1294.93,-258.37C1292.22,-242.92 1288.65,-209.99 1301.71,-187 1311,-170.63 1328.13,-158.47 1343.46,-150.25"/>
<polygon fill="#63b8ff" stroke="#63b8ff" points="1345.31,-153.24 1352.68,-145.63 1342.17,-146.98 1345.31,-153.24"/>
</a>
</g>
</g>
<!-- Node27 -->
<g id="Node000027" class="node">
<title>Node27</title>
<g id="a_Node000027"><a xlink:href="MeshConfig_8ixx.html" target="_top" xlink:title="Mesh configuration including primitive type.">
<polygon fill="white" stroke="#666666" points="1677.21,-217 1522.21,-217 1522.21,-187 1677.21,-187 1677.21,-217"/>
<text text-anchor="start" x="1530.21" y="-205" font-family="Helvetica,sans-Serif" font-size="10.00">helios.rendering.mesh.Mesh</text>
<text text-anchor="middle" x="1599.71" y="-194" font-family="Helvetica,sans-Serif" font-size="10.00">Config</text>
</a>
</g>
</g>
<!-- Node12&#45;&gt;Node27 -->
<g id="edge45_Node000012_Node000027" class="edge">
<title>Node12&#45;&gt;Node27</title>
<g id="a_edge45_Node000012_Node000027"><a xlink:title=" ">
<path fill="none" stroke="#63b8ff" d="M1337.26,-258.44C1384.66,-248.42 1464.16,-231.63 1523.26,-219.15"/>
<polygon fill="#63b8ff" stroke="#63b8ff" points="1524.25,-222.52 1533.31,-217.02 1522.8,-215.67 1524.25,-222.52"/>
</a>
</g>
</g>
<!-- Node16&#45;&gt;Node2 -->
<g id="edge23_Node000016_Node000002" class="edge">
<title>Node16&#45;&gt;Node2</title>
<g id="a_edge23_Node000016_Node000002"><a xlink:title=" ">
<path fill="none" stroke="#63b8ff" d="M975.37,-126.82C990.78,-124.81 1007.35,-122.74 1022.71,-121 1202.34,-100.64 1417.43,-81.73 1504.38,-74.31"/>
<polygon fill="#63b8ff" stroke="#63b8ff" points="1504.91,-77.78 1514.58,-73.44 1504.32,-70.8 1504.91,-77.78"/>
</a>
</g>
</g>
<!-- Node16&#45;&gt;Node11 -->
<g id="edge21_Node000016_Node000011" class="edge">
<title>Node16&#45;&gt;Node11</title>
<g id="a_edge21_Node000016_Node000011"><a xlink:title=" ">
<path fill="none" stroke="#63b8ff" d="M897.93,-126.42C882.37,-118 860.32,-103.71 847.71,-85 836.42,-68.26 831.84,-45.29 829.98,-29.29"/>
<polygon fill="#63b8ff" stroke="#63b8ff" points="833.44,-28.71 829.05,-19.07 826.47,-29.35 833.44,-28.71"/>
</a>
</g>
</g>
<!-- Node16&#45;&gt;Node13 -->
<g id="edge22_Node000016_Node000013" class="edge">
<title>Node16&#45;&gt;Node13</title>
<g id="a_edge22_Node000016_Node000013"><a xlink:title=" ">
<path fill="none" stroke="#63b8ff" d="M972.05,-126.44C1060.89,-112.93 1230.82,-87.1 1302.97,-76.13"/>
<polygon fill="#63b8ff" stroke="#63b8ff" points="1303.52,-79.58 1312.88,-74.62 1302.47,-72.66 1303.52,-79.58"/>
</a>
</g>
</g>
<!-- Node17 -->
<g id="Node000017" class="node">
<title>Node17</title>
<g id="a_Node000017"><a xlink:title=" ">
<polygon fill="#e0e0e0" stroke="#999999" points="740.71,-79.5 692.71,-79.5 692.71,-60.5 740.71,-60.5 740.71,-79.5"/>
<text text-anchor="middle" x="716.71" y="-67.5" font-family="Helvetica,sans-Serif" font-size="10.00">mutex</text>
</a>
</g>
</g>
<!-- Node16&#45;&gt;Node17 -->
<g id="edge24_Node000016_Node000017" class="edge">
<title>Node16&#45;&gt;Node17</title>
<g id="a_edge24_Node000016_Node000017"><a xlink:title=" ">
<path fill="none" stroke="#63b8ff" d="M888.87,-126.37C853.05,-114.85 789.61,-94.45 750.55,-81.89"/>
<polygon fill="#63b8ff" stroke="#63b8ff" points="751.53,-78.52 740.94,-78.79 749.39,-85.19 751.53,-78.52"/>
</a>
</g>
</g>
<!-- Node18 -->
<g id="Node000018" class="node">
<title>Node18</title>
<g id="a_Node000018"><a xlink:title=" ">
<polygon fill="#e0e0e0" stroke="#999999" points="1061.71,-79.5 1001.71,-79.5 1001.71,-60.5 1061.71,-60.5 1061.71,-79.5"/>
<text text-anchor="middle" x="1031.71" y="-67.5" font-family="Helvetica,sans-Serif" font-size="10.00">iostream</text>
</a>
</g>
</g>
<!-- Node16&#45;&gt;Node18 -->
<g id="edge25_Node000016_Node000018" class="edge">
<title>Node16&#45;&gt;Node18</title>
<g id="a_edge25_Node000016_Node000018"><a xlink:title=" ">
<path fill="none" stroke="#63b8ff" d="M931.35,-126.37C950.81,-115.63 984.25,-97.18 1007.14,-84.55"/>
<polygon fill="#63b8ff" stroke="#63b8ff" points="1008.87,-87.59 1015.94,-79.7 1005.49,-81.47 1008.87,-87.59"/>
</a>
</g>
</g>
<!-- Node19 -->
<g id="Node000019" class="node">
<title>Node19</title>
<g id="a_Node000019"><a xlink:href="LogSink_8ixx.html" target="_top" xlink:title="Abstract interface for log output destinations.">
<polygon fill="white" stroke="#666666" points="980.71,-79.5 856.71,-79.5 856.71,-60.5 980.71,-60.5 980.71,-79.5"/>
<text text-anchor="middle" x="918.71" y="-67.5" font-family="Helvetica,sans-Serif" font-size="10.00">helios.util.log.LogSink</text>
</a>
</g>
</g>
<!-- Node16&#45;&gt;Node19 -->
<g id="edge26_Node000016_Node000019" class="edge">
<title>Node16&#45;&gt;Node19</title>
<g id="a_edge26_Node000016_Node000019"><a xlink:title=" ">
<path fill="none" stroke="#63b8ff" d="M916.11,-126.37C916.55,-117.07 917.25,-101.98 917.82,-89.9"/>
<polygon fill="#63b8ff" stroke="#63b8ff" points="921.32,-90.06 918.29,-79.91 914.32,-89.73 921.32,-90.06"/>
</a>
</g>
</g>
<!-- Node19&#45;&gt;Node11 -->
<g id="edge27_Node000019_Node000011" class="edge">
<title>Node19&#45;&gt;Node11</title>
<g id="a_edge27_Node000019_Node000011"><a xlink:title=" ">
<path fill="none" stroke="#63b8ff" d="M905.43,-60.37C891.07,-51.04 867.95,-36.01 850.83,-24.88"/>
<polygon fill="#63b8ff" stroke="#63b8ff" points="852.33,-21.68 842.04,-19.17 848.52,-27.55 852.33,-21.68"/>
</a>
</g>
</g>
<!-- Node20&#45;&gt;Node2 -->
<g id="edge32_Node000020_Node000002" class="edge">
<title>Node20&#45;&gt;Node2</title>
<g id="a_edge32_Node000020_Node000002"><a xlink:title=" ">
<path fill="none" stroke="#63b8ff" d="M868.95,-196.46C973.17,-189.31 1158.6,-173.85 1221.71,-151 1244.66,-142.69 1245.03,-130.02 1267.71,-121 1348.05,-89.04 1449.71,-77.36 1504.47,-73.21"/>
<polygon fill="#63b8ff" stroke="#63b8ff" points="1504.73,-76.7 1514.46,-72.49 1504.24,-69.71 1504.73,-76.7"/>
</a>
</g>
</g>
<!-- Node20&#45;&gt;Node11 -->
<g id="edge29_Node000020_Node000011" class="edge">
<title>Node20&#45;&gt;Node11</title>
<g id="a_edge29_Node000020_Node000011"><a xlink:title=" ">
<path fill="none" stroke="#63b8ff" d="M722.33,-193.48C695.29,-186.74 667.25,-174.2 650.71,-151 642.97,-140.14 647.64,-133.98 650.71,-121 658.24,-89.08 658.67,-76.19 683.71,-55 715.85,-27.79 764.42,-17.21 796.35,-13.1"/>
<polygon fill="#63b8ff" stroke="#63b8ff" points="796.95,-16.56 806.49,-11.94 796.16,-9.6 796.95,-16.56"/>
</a>
</g>
</g>
<!-- Node20&#45;&gt;Node13 -->
<g id="edge34_Node000020_Node000013" class="edge">
<title>Node20&#45;&gt;Node13</title>
<g id="a_edge34_Node000020_Node000013"><a xlink:title=" ">
<path fill="none" stroke="#63b8ff" d="M869.11,-195.82C965.85,-188.27 1130.36,-172.74 1186.71,-151 1208.45,-142.61 1209.52,-132.64 1229.71,-121 1254.66,-106.61 1284.45,-92.95 1306.25,-83.56"/>
<polygon fill="#63b8ff" stroke="#63b8ff" points="1307.83,-86.7 1315.66,-79.56 1305.09,-80.25 1307.83,-86.7"/>
</a>
</g>
</g>
<!-- Node20&#45;&gt;Node16 -->
<g id="edge36_Node000020_Node000016" class="edge">
<title>Node20&#45;&gt;Node16</title>
<g id="a_edge36_Node000020_Node000016"><a xlink:title=" ">
<path fill="none" stroke="#63b8ff" d="M811.89,-192.37C832.02,-181.63 866.62,-163.18 890.3,-150.55"/>
<polygon fill="#63b8ff" stroke="#63b8ff" points="892.22,-153.49 899.4,-145.7 888.92,-147.32 892.22,-153.49"/>
</a>
</g>
</g>
<!-- Node20&#45;&gt;Node17 -->
<g id="edge33_Node000020_Node000017" class="edge">
<title>Node20&#45;&gt;Node17</title>
<g id="a_edge33_Node000020_Node000017"><a xlink:title=" ">
<path fill="none" stroke="#63b8ff" d="M726.28,-192.46C700.72,-185.58 674.24,-173.2 658.71,-151 642.47,-127.79 671.3,-101.25 693.81,-85.32"/>
<polygon fill="#63b8ff" stroke="#63b8ff" points="696,-88.07 702.33,-79.57 692.08,-82.27 696,-88.07"/>
</a>
</g>
</g>
<!-- Node20&#45;&gt;Node19 -->
<g id="edge37_Node000020_Node000019" class="edge">
<title>Node20&#45;&gt;Node19</title>
<g id="a_edge37_Node000020_Node000019"><a xlink:title=" ">
<path fill="none" stroke="#63b8ff" d="M799.8,-192.29C807.43,-176.7 825.02,-143.56 846.71,-121 860.59,-106.55 879.24,-93.74 894.08,-84.7"/>
<polygon fill="#63b8ff" stroke="#63b8ff" points="895.92,-87.68 902.75,-79.58 892.36,-81.65 895.92,-87.68"/>
</a>
</g>
</g>
<!-- Node21 -->
<g id="Node000021" class="node">
<title>Node21</title>
<g id="a_Node000021"><a xlink:title=" ">
<polygon fill="#e0e0e0" stroke="#999999" points="761.21,-145.5 668.21,-145.5 668.21,-126.5 761.21,-126.5 761.21,-145.5"/>
<text text-anchor="middle" x="714.71" y="-133.5" font-family="Helvetica,sans-Serif" font-size="10.00">unordered_map</text>
</a>
</g>
</g>
<!-- Node20&#45;&gt;Node21 -->
<g id="edge30_Node000020_Node000021" class="edge">
<title>Node20&#45;&gt;Node21</title>
<g id="a_edge30_Node000020_Node000021"><a xlink:title=" ">
<path fill="none" stroke="#63b8ff" d="M784.78,-192.37C771.74,-182.06 749.69,-164.65 733.81,-152.09"/>
<polygon fill="#63b8ff" stroke="#63b8ff" points="735.73,-149.15 725.72,-145.7 731.39,-154.64 735.73,-149.15"/>
</a>
</g>
</g>
<!-- Node22 -->
<g id="Node000022" class="node">
<title>Node22</title>
<g id="a_Node000022"><a xlink:title=" ">
<polygon fill="#e0e0e0" stroke="#999999" points="505.71,-145.5 419.71,-145.5 419.71,-126.5 505.71,-126.5 505.71,-145.5"/>
<text text-anchor="middle" x="462.71" y="-133.5" font-family="Helvetica,sans-Serif" font-size="10.00">unordered_set</text>
</a>
</g>
</g>
<!-- Node20&#45;&gt;Node22 -->
<g id="edge31_Node000020_Node000022" class="edge">
<title>Node20&#45;&gt;Node22</title>
<g id="a_edge31_Node000020_Node000022"><a xlink:title=" ">
<path fill="none" stroke="#63b8ff" d="M739.44,-192.46C682.51,-183.48 592.08,-168.27 514.71,-151 510.76,-150.12 506.67,-149.14 502.59,-148.11"/>
<polygon fill="#63b8ff" stroke="#63b8ff" points="503.13,-144.64 492.57,-145.52 501.37,-151.41 503.13,-144.64"/>
</a>
</g>
</g>
<!-- Node23 -->
<g id="Node000023" class="node">
<title>Node23</title>
<g id="a_Node000023"><a xlink:title=" ">
<polygon fill="#e0e0e0" stroke="#999999" points="573.71,-145.5 523.71,-145.5 523.71,-126.5 573.71,-126.5 573.71,-145.5"/>
<text text-anchor="middle" x="548.71" y="-133.5" font-family="Helvetica,sans-Serif" font-size="10.00">cstring</text>
</a>
</g>
</g>
<!-- Node20&#45;&gt;Node23 -->
<g id="edge35_Node000020_Node000023" class="edge">
<title>Node20&#45;&gt;Node23</title>
<g id="a_edge35_Node000020_Node000023"><a xlink:title=" ">
<path fill="none" stroke="#63b8ff" d="M754.31,-192.44C712.08,-183.38 644.82,-168.06 587.71,-151 585.44,-150.32 583.11,-149.59 580.77,-148.82"/>
<polygon fill="#63b8ff" stroke="#63b8ff" points="581.85,-145.49 571.25,-145.56 579.58,-152.11 581.85,-145.49"/>
</a>
</g>
</g>
<!-- Node24&#45;&gt;Node2 -->
<g id="edge39_Node000024_Node000002" class="edge">
<title>Node24&#45;&gt;Node2</title>
<g id="a_edge39_Node000024_Node000002"><a xlink:title=" ">
<path fill="none" stroke="#63b8ff" d="M1450.57,-186.9C1465.69,-178.03 1484.19,-165.53 1497.71,-151 1514.96,-132.44 1528.46,-106.28 1536.25,-88.99"/>
<polygon fill="#63b8ff" stroke="#63b8ff" points="1539.59,-90.09 1540.35,-79.52 1533.16,-87.31 1539.59,-90.09"/>
</a>
</g>
</g>
<!-- Node24&#45;&gt;Node13 -->
<g id="edge40_Node000024_Node000013" class="edge">
<title>Node24&#45;&gt;Node13</title>
<g id="a_edge40_Node000024_Node000013"><a xlink:title=" ">
<path fill="none" stroke="#63b8ff" d="M1446.3,-186.89C1468.94,-170.94 1498.24,-144.19 1481.71,-121 1456.56,-85.73 1404.82,-75.09 1370.44,-72.03"/>
<polygon fill="#63b8ff" stroke="#63b8ff" points="1370.61,-68.53 1360.38,-71.3 1370.1,-75.51 1370.61,-68.53"/>
</a>
</g>
</g>
<!-- Node25 -->
<g id="Node000025" class="node">
<title>Node25</title>
<g id="a_Node000025"><a xlink:href="PrimitiveType_8ixx.html" target="_top" xlink:title="Enum of primitive types for mesh rendering.">
<polygon fill="white" stroke="#666666" points="1766.21,-145.5 1571.21,-145.5 1571.21,-126.5 1766.21,-126.5 1766.21,-145.5"/>
<text text-anchor="middle" x="1668.71" y="-133.5" font-family="Helvetica,sans-Serif" font-size="10.00">helios.rendering.mesh.PrimitiveType</text>
</a>
</g>
</g>
<!-- Node24&#45;&gt;Node25 -->
<g id="edge41_Node000024_Node000025" class="edge">
<title>Node24&#45;&gt;Node25</title>
<g id="a_edge41_Node000024_Node000025"><a xlink:title=" ">
<path fill="none" stroke="#63b8ff" d="M1477.47,-186.95C1522.24,-175.26 1585.11,-158.84 1626.36,-148.06"/>
<polygon fill="#63b8ff" stroke="#63b8ff" points="1627.31,-151.43 1636.1,-145.52 1625.54,-144.66 1627.31,-151.43"/>
</a>
</g>
</g>
<!-- Node24&#45;&gt;Node26 -->
<g id="edge42_Node000024_Node000026" class="edge">
<title>Node24&#45;&gt;Node26</title>
<g id="a_edge42_Node000024_Node000026"><a xlink:title=" ">
<path fill="none" stroke="#63b8ff" d="M1412.83,-186.8C1405.42,-177.11 1395.56,-164.24 1387.73,-154.01"/>
<polygon fill="#63b8ff" stroke="#63b8ff" points="1390.34,-151.66 1381.48,-145.84 1384.78,-155.91 1390.34,-151.66"/>
</a>
</g>
</g>
<!-- Node26&#45;&gt;Node7 -->
<g id="edge43_Node000026_Node000007" class="edge">
<title>Node26&#45;&gt;Node7</title>
<g id="a_edge43_Node000026_Node000007"><a xlink:title=" ">
<path fill="none" stroke="#63b8ff" d="M1309.46,-130C1273.3,-127.26 1227.52,-123.85 1186.71,-121 925.9,-102.77 614.93,-83.08 484.33,-74.9"/>
<polygon fill="#63b8ff" stroke="#63b8ff" points="484.32,-71.39 474.12,-74.26 483.88,-78.38 484.32,-71.39"/>
</a>
</g>
</g>
<!-- Node27&#45;&gt;Node25 -->
<g id="edge46_Node000027_Node000025" class="edge">
<title>Node27&#45;&gt;Node25</title>
<g id="a_edge46_Node000027_Node000025"><a xlink:title=" ">
<path fill="none" stroke="#63b8ff" d="M1615.02,-186.8C1625.88,-176.72 1640.47,-163.19 1651.69,-152.78"/>
<polygon fill="#63b8ff" stroke="#63b8ff" points="1654.22,-155.21 1659.17,-145.84 1649.46,-150.08 1654.22,-155.21"/>
</a>
</g>
</g>
<!-- Node28&#45;&gt;Node2 -->
<g id="edge48_Node000028_Node000002" class="edge">
<title>Node28&#45;&gt;Node2</title>
<g id="a_edge48_Node000028_Node000002"><a xlink:title=" ">
<path fill="none" stroke="#63b8ff" d="M988.39,-318.61C998.74,-308.87 1012.43,-295.54 1023.71,-283 1060.1,-242.54 1053.65,-215.99 1099.71,-187 1161.02,-148.4 1192.59,-180.64 1258.71,-151 1279.64,-141.62 1279.68,-130.18 1300.71,-121 1368.56,-91.38 1454.84,-79 1504.22,-74.05"/>
<polygon fill="#63b8ff" stroke="#63b8ff" points="1504.85,-77.51 1514.47,-73.08 1504.19,-70.54 1504.85,-77.51"/>
</a>
</g>
</g>
<!-- Node28&#45;&gt;Node3 -->
<g id="edge71_Node000028_Node000003" class="edge">
<title>Node28&#45;&gt;Node3</title>
<g id="a_edge71_Node000028_Node000003"><a xlink:title=" ">
<path fill="none" stroke="#63b8ff" d="M901.11,-330.21C749.42,-323.91 400.1,-307.2 283.71,-283 197.01,-264.97 146.91,-289.25 95.71,-217 84.32,-200.93 86.75,-178.16 91.2,-161.02"/>
<polygon fill="#63b8ff" stroke="#63b8ff" points="94.63,-161.77 94.13,-151.19 87.92,-159.77 94.63,-161.77"/>
</a>
</g>
</g>
<!-- Node28&#45;&gt;Node10 -->
<g id="edge49_Node000028_Node000010" class="edge">
<title>Node28&#45;&gt;Node10</title>
<g id="a_edge49_Node000028_Node000010"><a xlink:title=" ">
<path fill="none" stroke="#63b8ff" d="M1026.86,-318.98C1049.39,-311.15 1074.67,-299.56 1093.71,-283 1113.12,-266.11 1126.61,-239.15 1134.01,-221.26"/>
<polygon fill="#63b8ff" stroke="#63b8ff" points="1137.36,-222.28 1137.74,-211.69 1130.84,-219.74 1137.36,-222.28"/>
</a>
</g>
</g>
<!-- Node29 -->
<g id="Node000029" class="node">
<title>Node29</title>
<g id="a_Node000029"><a xlink:href="Shader_8ixx.html" target="_top" xlink:title="Abstraction for a compiled shader program.">
<polygon fill="white" stroke="#666666" points="886.71,-283 752.71,-283 752.71,-253 886.71,-253 886.71,-283"/>
<text text-anchor="start" x="760.71" y="-271" font-family="Helvetica,sans-Serif" font-size="10.00">helios.rendering.shader.</text>
<text text-anchor="middle" x="819.71" y="-260" font-family="Helvetica,sans-Serif" font-size="10.00">Shader</text>
</a>
</g>
</g>
<!-- Node28&#45;&gt;Node29 -->
<g id="edge50_Node000028_Node000029" class="edge">
<title>Node28&#45;&gt;Node29</title>
<g id="a_edge50_Node000028_Node000029"><a xlink:title=" ">
<path fill="none" stroke="#63b8ff" d="M939.13,-318.95C916.61,-309.53 886.75,-297.04 862.52,-286.91"/>
<polygon fill="#63b8ff" stroke="#63b8ff" points="863.78,-283.64 853.2,-283.01 861.08,-290.1 863.78,-283.64"/>
</a>
</g>
</g>
<!-- Node30 -->
<g id="Node000030" class="node">
<title>Node30</title>
<g id="a_Node000030"><a xlink:href="helios_2util_2log_2__module_8ixx.html" target="_top" xlink:title="Module exports for logging.">
<polygon fill="white" stroke="#666666" points="1014.21,-277.5 931.21,-277.5 931.21,-258.5 1014.21,-258.5 1014.21,-277.5"/>
<text text-anchor="middle" x="972.71" y="-265.5" font-family="Helvetica,sans-Serif" font-size="10.00">helios.util.log</text>
</a>
</g>
</g>
<!-- Node28&#45;&gt;Node30 -->
<g id="edge54_Node000028_Node000030" class="edge">
<title>Node28&#45;&gt;Node30</title>
<g id="a_edge54_Node000028_Node000030"><a xlink:title=" ">
<path fill="none" stroke="#63b8ff" d="M972.71,-318.8C972.71,-309.7 972.71,-297.79 972.71,-287.9"/>
<polygon fill="#63b8ff" stroke="#63b8ff" points="976.21,-287.84 972.71,-277.84 969.21,-287.84 976.21,-287.84"/>
</a>
</g>
</g>
<!-- Node32 -->
<g id="Node000032" class="node">
<title>Node32</title>
<g id="a_Node000032"><a xlink:href="MaterialShaderProperties_8ixx.html" target="_top" xlink:title="Default material properties used by materials and instances.">
<polygon fill="white" stroke="#666666" points="436.21,-283 293.21,-283 293.21,-253 436.21,-253 436.21,-283"/>
<text text-anchor="start" x="301.21" y="-271" font-family="Helvetica,sans-Serif" font-size="10.00">helios.rendering.material.</text>
<text text-anchor="middle" x="364.71" y="-260" font-family="Helvetica,sans-Serif" font-size="10.00">MaterialShaderProperties</text>
</a>
</g>
</g>
<!-- Node28&#45;&gt;Node32 -->
<g id="edge62_Node000028_Node000032" class="edge">
<title>Node28&#45;&gt;Node32</title>
<g id="a_edge62_Node000028_Node000032"><a xlink:title=" ">
<path fill="none" stroke="#63b8ff" d="M901.17,-325.47C787.55,-313.51 566.47,-290.24 446.65,-277.63"/>
<polygon fill="#63b8ff" stroke="#63b8ff" points="446.75,-274.12 436.44,-276.55 446.02,-281.08 446.75,-274.12"/>
</a>
</g>
</g>
<!-- Node29&#45;&gt;Node3 -->
<g id="edge51_Node000029_Node000003" class="edge">
<title>Node29&#45;&gt;Node3</title>
<g id="a_edge51_Node000029_Node000003"><a xlink:title=" ">
<path fill="none" stroke="#63b8ff" d="M752.54,-263.71C587.03,-255.39 171.13,-232.99 145.71,-217 125.57,-204.33 113.31,-179.44 106.57,-160.77"/>
<polygon fill="#63b8ff" stroke="#63b8ff" points="109.86,-159.54 103.38,-151.16 103.21,-161.75 109.86,-159.54"/>
</a>
</g>
</g>
<!-- Node29&#45;&gt;Node16 -->
<g id="edge52_Node000029_Node000016" class="edge">
<title>Node29&#45;&gt;Node16</title>
<g id="a_edge52_Node000029_Node000016"><a xlink:title=" ">
<path fill="none" stroke="#63b8ff" d="M839.86,-252.99C851.98,-243.81 867.07,-230.96 877.71,-217 892.24,-197.94 903.16,-172.44 909.48,-155.4"/>
<polygon fill="#63b8ff" stroke="#63b8ff" points="912.92,-156.17 912.96,-145.58 906.32,-153.83 912.92,-156.17"/>
</a>
</g>
</g>
<!-- Node29&#45;&gt;Node20 -->
<g id="edge53_Node000029_Node000020" class="edge">
<title>Node29&#45;&gt;Node20</title>
<g id="a_edge53_Node000029_Node000020"><a xlink:title=" ">
<path fill="none" stroke="#63b8ff" d="M814.38,-252.8C810.89,-243.5 806.31,-231.27 802.55,-221.26"/>
<polygon fill="#63b8ff" stroke="#63b8ff" points="805.81,-219.98 799.02,-211.84 799.26,-222.44 805.81,-219.98"/>
</a>
</g>
</g>
<!-- Node30&#45;&gt;Node16 -->
<g id="edge56_Node000030_Node000016" class="edge">
<title>Node30&#45;&gt;Node16</title>
<g id="a_edge56_Node000030_Node000016"><a xlink:title=" ">
<path fill="none" stroke="#63b8ff" d="M968.97,-258.47C959.79,-237.54 936,-183.3 923.56,-154.91"/>
<polygon fill="#63b8ff" stroke="#63b8ff" points="926.76,-153.48 919.53,-145.73 920.34,-156.3 926.76,-153.48"/>
</a>
</g>
</g>
<!-- Node30&#45;&gt;Node19 -->
<g id="edge61_Node000030_Node000019" class="edge">
<title>Node30&#45;&gt;Node19</title>
<g id="a_edge61_Node000030_Node000019"><a xlink:title=" ">
<path fill="none" stroke="#63b8ff" d="M976.43,-258.18C985.83,-234.51 1008.14,-168.14 984.71,-121 976.78,-105.05 961.07,-92.83 946.97,-84.47"/>
<polygon fill="#63b8ff" stroke="#63b8ff" points="948.48,-81.3 938.03,-79.52 945.09,-87.43 948.48,-81.3"/>
</a>
</g>
</g>
<!-- Node30&#45;&gt;Node20 -->
<g id="edge55_Node000030_Node000020" class="edge">
<title>Node30&#45;&gt;Node20</title>
<g id="a_edge55_Node000030_Node000020"><a xlink:title=" ">
<path fill="none" stroke="#63b8ff" d="M948.84,-258.37C918,-247.22 864.16,-227.75 829.23,-215.12"/>
<polygon fill="#63b8ff" stroke="#63b8ff" points="830.08,-211.71 819.48,-211.6 827.69,-218.29 830.08,-211.71"/>
</a>
</g>
</g>
<!-- Node31 -->
<g id="Node000031" class="node">
<title>Node31</title>
<g id="a_Node000031"><a xlink:href="ConsoleSink_8ixx.html" target="_top" xlink:title="Log sink that writes to stdout.">
<polygon fill="white" stroke="#666666" points="1177.71,-145.5 1031.71,-145.5 1031.71,-126.5 1177.71,-126.5 1177.71,-145.5"/>
<text text-anchor="middle" x="1104.71" y="-133.5" font-family="Helvetica,sans-Serif" font-size="10.00">helios.util.log.ConsoleSink</text>
</a>
</g>
</g>
<!-- Node30&#45;&gt;Node31 -->
<g id="edge57_Node000030_Node000031" class="edge">
<title>Node30&#45;&gt;Node31</title>
<g id="a_edge57_Node000030_Node000031"><a xlink:title=" ">
<path fill="none" stroke="#63b8ff" d="M981.37,-258.47C1003.08,-237.08 1060.13,-180.9 1088.38,-153.08"/>
<polygon fill="#63b8ff" stroke="#63b8ff" points="1091.17,-155.24 1095.84,-145.73 1086.26,-150.25 1091.17,-155.24"/>
</a>
</g>
</g>
<!-- Node31&#45;&gt;Node11 -->
<g id="edge59_Node000031_Node000011" class="edge">
<title>Node31&#45;&gt;Node11</title>
<g id="a_edge59_Node000031_Node000011"><a xlink:title=" ">
<path fill="none" stroke="#63b8ff" d="M1103.71,-126.42C1101.3,-109.81 1093.56,-73.3 1070.71,-55 1038.77,-29.42 919.11,-17.2 860.9,-12.68"/>
<polygon fill="#63b8ff" stroke="#63b8ff" points="861.02,-9.17 850.78,-11.92 860.5,-16.16 861.02,-9.17"/>
</a>
</g>
</g>
<!-- Node31&#45;&gt;Node18 -->
<g id="edge58_Node000031_Node000018" class="edge">
<title>Node31&#45;&gt;Node18</title>
<g id="a_edge58_Node000031_Node000018"><a xlink:title=" ">
<path fill="none" stroke="#63b8ff" d="M1094.86,-126.37C1083.28,-116.21 1063.82,-99.16 1049.56,-86.65"/>
<polygon fill="#63b8ff" stroke="#63b8ff" points="1051.69,-83.87 1041.86,-79.91 1047.08,-89.13 1051.69,-83.87"/>
</a>
</g>
</g>
<!-- Node31&#45;&gt;Node19 -->
<g id="edge60_Node000031_Node000019" class="edge">
<title>Node31&#45;&gt;Node19</title>
<g id="a_edge60_Node000031_Node000019"><a xlink:title=" ">
<path fill="none" stroke="#63b8ff" d="M1079.62,-126.37C1047.08,-115.17 990.15,-95.58 953.46,-82.96"/>
<polygon fill="#63b8ff" stroke="#63b8ff" points="954.28,-79.54 943.69,-79.6 952.01,-86.16 954.28,-79.54"/>
</a>
</g>
</g>
<!-- Node32&#45;&gt;Node3 -->
<g id="edge64_Node000032_Node000003" class="edge">
<title>Node32&#45;&gt;Node3</title>
<g id="a_edge64_Node000032_Node000003"><a xlink:title=" ">
<path fill="none" stroke="#63b8ff" d="M292.95,-261.77C227.44,-255.45 137.18,-242.35 112.71,-217 98.7,-202.5 96.3,-179.17 96.9,-161.44"/>
<polygon fill="#63b8ff" stroke="#63b8ff" points="100.41,-161.47 97.59,-151.25 93.42,-161 100.41,-161.47"/>
</a>
</g>
</g>
<!-- Node32&#45;&gt;Node7 -->
<g id="edge65_Node000032_Node000007" class="edge">
<title>Node32&#45;&gt;Node7</title>
<g id="a_edge65_Node000032_Node000007"><a xlink:title=" ">
<path fill="none" stroke="#63b8ff" d="M368.81,-252.9C378.91,-218.16 405.01,-128.4 416.33,-89.47"/>
<polygon fill="#63b8ff" stroke="#63b8ff" points="419.74,-90.31 419.17,-79.73 413.01,-88.35 419.74,-90.31"/>
</a>
</g>
</g>
<!-- Node32&#45;&gt;Node8 -->
<g id="edge63_Node000032_Node000008" class="edge">
<title>Node32&#45;&gt;Node8</title>
<g id="a_edge63_Node000032_Node000008"><a xlink:title=" ">
<path fill="none" stroke="#63b8ff" d="M362.45,-252.81C359.61,-236.57 354.07,-209.32 345.71,-187 333,-153.11 312.53,-116.54 298.85,-93.72"/>
<polygon fill="#63b8ff" stroke="#63b8ff" points="301.81,-91.84 293.62,-85.11 295.82,-95.47 301.81,-91.84"/>
</a>
</g>
</g>
<!-- Node33 -->
<g id="Node000033" class="node">
<title>Node33</title>
<g id="a_Node000033"><a xlink:href="MaterialShaderPropertiesOverride_8ixx.html" target="_top" xlink:title="Overrides for material properties to customize rendering parameters.">
<polygon fill="white" stroke="#666666" points="336.71,-217 154.71,-217 154.71,-187 336.71,-187 336.71,-217"/>
<text text-anchor="start" x="162.71" y="-205" font-family="Helvetica,sans-Serif" font-size="10.00">helios.rendering.material.</text>
<text text-anchor="middle" x="245.71" y="-194" font-family="Helvetica,sans-Serif" font-size="10.00">MaterialShaderPropertiesOverride</text>
</a>
</g>
</g>
<!-- Node32&#45;&gt;Node33 -->
<g id="edge66_Node000032_Node000033" class="edge">
<title>Node32&#45;&gt;Node33</title>
<g id="a_edge66_Node000032_Node000033"><a xlink:title=" ">
<path fill="none" stroke="#63b8ff" d="M338.59,-252.95C321.62,-243.83 299.29,-231.82 280.77,-221.86"/>
<polygon fill="#63b8ff" stroke="#63b8ff" points="282.23,-218.67 271.76,-217.01 278.91,-224.83 282.23,-218.67"/>
</a>
</g>
</g>
<!-- Node33&#45;&gt;Node3 -->
<g id="edge69_Node000033_Node000003" class="edge">
<title>Node33&#45;&gt;Node3</title>
<g id="a_edge69_Node000033_Node000003"><a xlink:title=" ">
<path fill="none" stroke="#63b8ff" d="M213.67,-186.95C192.27,-177.58 163.94,-165.16 140.87,-155.05"/>
<polygon fill="#63b8ff" stroke="#63b8ff" points="142.24,-151.82 131.67,-151.01 139.43,-158.23 142.24,-151.82"/>
</a>
</g>
</g>
<!-- Node33&#45;&gt;Node5 -->
<g id="edge67_Node000033_Node000005" class="edge">
<title>Node33&#45;&gt;Node5</title>
<g id="a_edge67_Node000033_Node000005"><a xlink:title=" ">
<path fill="none" stroke="#63b8ff" d="M237.65,-186.84C224.03,-162.92 196.5,-114.56 181.69,-88.53"/>
<polygon fill="#63b8ff" stroke="#63b8ff" points="184.67,-86.71 176.69,-79.75 178.59,-90.17 184.67,-86.71"/>
</a>
</g>
</g>
<!-- Node33&#45;&gt;Node7 -->
<g id="edge70_Node000033_Node000007" class="edge">
<title>Node33&#45;&gt;Node7</title>
<g id="a_edge70_Node000033_Node000007"><a xlink:title=" ">
<path fill="none" stroke="#63b8ff" d="M264.88,-186.84C298.41,-162.07 367.39,-111.12 401.58,-85.87"/>
<polygon fill="#63b8ff" stroke="#63b8ff" points="403.9,-88.5 409.86,-79.75 399.74,-82.87 403.9,-88.5"/>
</a>
</g>
</g>
<!-- Node33&#45;&gt;Node8 -->
<g id="edge68_Node000033_Node000008" class="edge">
<title>Node33&#45;&gt;Node8</title>
<g id="a_edge68_Node000033_Node000008"><a xlink:title=" ">
<path fill="none" stroke="#63b8ff" d="M249.95,-186.84C256.58,-164.76 269.44,-121.89 277.52,-94.94"/>
<polygon fill="#63b8ff" stroke="#63b8ff" points="280.94,-95.73 280.46,-85.14 274.24,-93.71 280.94,-95.73"/>
</a>
</g>
</g>
</g>
</svg>
