<?xml version="1.0" encoding="UTF-8" standalone="no"?>
<!DOCTYPE svg PUBLIC "-//W3C//DTD SVG 1.1//EN"
 "http://www.w3.org/Graphics/SVG/1.1/DTD/svg11.dtd">
<!-- Generated by graphviz version 2.43.0 (0)
 -->
<!-- Title: model.ixx Pages: 1 -->
<svg width="196pt" height="83pt"
 viewBox="0.00 0.00 195.50 82.69" xmlns="http://www.w3.org/2000/svg" xmlns:xlink="http://www.w3.org/1999/xlink">
<g id="graph0" class="graph" transform="scale(1 1) rotate(0) translate(4 78.69)">
<title>model.ixx</title>
<!-- Node1 -->
<g id="Node000001" class="node">
<title>Node1</title>
<g id="a_Node000001"><a xlink:title="Model transform helper functions.">
<polygon fill="#999999" stroke="#666666" points="103,-74.69 38,-74.69 38,-55.69 103,-55.69 103,-74.69"/>
<text text-anchor="middle" x="70.5" y="-62.69" font-family="Helvetica,sans-Serif" font-size="10.00">model.ixx</text>
</a>
</g>
</g>
<!-- Node2 -->
<g id="Node000002" class="node">
<title>Node2</title>
<g id="a_Node000002"><a xlink:title=" ">
<polygon fill="#e0e0e0" stroke="#999999" points="47,-19.69 0,-19.69 0,-0.69 47,-0.69 47,-19.69"/>
<text text-anchor="middle" x="23.5" y="-7.69" font-family="Helvetica,sans-Serif" font-size="10.00">cmath</text>
</a>
</g>
</g>
<!-- Node1&#45;&gt;Node2 -->
<g id="edge1_Node000001_Node000002" class="edge">
<title>Node1&#45;&gt;Node2</title>
<g id="a_edge1_Node000001_Node000002"><a xlink:title=" ">
<path fill="none" stroke="#63b8ff" d="M62.74,-55.43C56.03,-47.87 46.16,-36.74 37.99,-27.53"/>
<polygon fill="#63b8ff" stroke="#63b8ff" points="40.37,-24.94 31.12,-19.78 35.13,-29.58 40.37,-24.94"/>
</a>
</g>
</g>
<!-- Node3 -->
<g id="Node000003" class="node">
<title>Node3</title>
<g id="a_Node000003"><a xlink:href="helios_2math_2types_2__module_8ixx.html" target="_top" xlink:title="Module exports for vector and matrix type definitions.">
<polygon fill="white" stroke="#666666" points="169.5,-19.69 65.5,-19.69 65.5,-0.69 169.5,-0.69 169.5,-19.69"/>
<text text-anchor="middle" x="117.5" y="-7.69" font-family="Helvetica,sans-Serif" font-size="10.00">helios.math.types</text>
</a>
</g>
</g>
<!-- Node1&#45;&gt;Node3 -->
<g id="edge2_Node000001_Node000003" class="edge">
<title>Node1&#45;&gt;Node3</title>
<g id="a_edge2_Node000001_Node000003"><a xlink:title=" ">
<path fill="none" stroke="#63b8ff" d="M78.26,-55.43C84.97,-47.87 94.84,-36.74 103.01,-27.53"/>
<polygon fill="#63b8ff" stroke="#63b8ff" points="105.87,-29.58 109.88,-19.78 100.63,-24.94 105.87,-29.58"/>
</a>
</g>
</g>
<!-- Node3&#45;&gt;Node3 -->
<g id="edge3_Node000003_Node000003" class="edge">
<title>Node3&#45;&gt;Node3</title>
<g id="a_edge3_Node000003_Node000003"><a xlink:title=" ">
<path fill="none" stroke="#63b8ff" d="M150.27,-19.72C169.5,-21.75 187.5,-18.57 187.5,-10.19 187.5,-3.31 175.39,0.07 160.42,-0.07"/>
<polygon fill="#63b8ff" stroke="#63b8ff" points="160.05,3.42 150.27,-0.66 160.45,-3.57 160.05,3.42"/>
</a>
</g>
</g>
</g>
</svg>
