<?xml version="1.0" encoding="UTF-8" standalone="no"?>
<!DOCTYPE svg PUBLIC "-//W3C//DTD SVG 1.1//EN"
 "http://www.w3.org/Graphics/SVG/1.1/DTD/svg11.dtd">
<!-- Generated by graphviz version 2.43.0 (0)
 -->
<!-- Title: helios::core::algorithms::fnv1a_hash Pages: 1 -->
<svg width="336pt" height="372pt"
 viewBox="0.00 0.00 336.00 371.50" xmlns="http://www.w3.org/2000/svg" xmlns:xlink="http://www.w3.org/1999/xlink">
<g id="graph0" class="graph" transform="scale(1 1) rotate(0) translate(4 367.5)">
<title>helios::core::algorithms::fnv1a_hash</title>
<!-- Node1 -->
<g id="Node000001" class="node">
<title>Node1</title>
<g id="a_Node000001"><a xlink:title="Computes a 32&#45;bit FNV&#45;1a hash from a string.">
<polygon fill="#999999" stroke="#666666" points="328,-207.5 197,-207.5 197,-177.5 328,-177.5 328,-207.5"/>
<text text-anchor="start" x="205" y="-195.5" font-family="Helvetica,sans-Serif" font-size="10.00">helios::core::algorithms</text>
<text text-anchor="middle" x="262.5" y="-184.5" font-family="Helvetica,sans-Serif" font-size="10.00">::fnv1a_hash</text>
</a>
</g>
</g>
<!-- Node2 -->
<g id="Node000002" class="node">
<title>Node2</title>
<g id="a_Node000002"><a xlink:href="structhelios_1_1engine_1_1core_1_1data_1_1ActionId.html#a0927c976e9b53a395c18f3ec6e18463c" target="_top" xlink:title="Constructs an ActionId from a string literal.">
<polygon fill="white" stroke="#666666" points="148.5,-363.5 12.5,-363.5 12.5,-333.5 148.5,-333.5 148.5,-363.5"/>
<text text-anchor="start" x="20.5" y="-351.5" font-family="Helvetica,sans-Serif" font-size="10.00">helios::engine::core</text>
<text text-anchor="middle" x="80.5" y="-340.5" font-family="Helvetica,sans-Serif" font-size="10.00">::data::ActionId::ActionId</text>
</a>
</g>
</g>
<!-- Node1&#45;&gt;Node2 -->
<g id="edge1_Node000001_Node000002" class="edge">
<title>Node1&#45;&gt;Node2</title>
<g id="a_edge1_Node000001_Node000002"><a xlink:title=" ">
<path fill="none" stroke="#63b8ff" d="M249.38,-216.51C233.2,-246.18 201.78,-296.2 161,-324.5 156.03,-327.95 150.54,-330.92 144.85,-333.46"/>
<polygon fill="#63b8ff" stroke="#63b8ff" points="252.49,-218.12 254.09,-207.64 246.31,-214.83 252.49,-218.12"/>
</a>
</g>
</g>
<!-- Node3 -->
<g id="Node000003" class="node">
<title>Node3</title>
<g id="a_Node000003"><a xlink:href="structhelios_1_1engine_1_1core_1_1data_1_1FontId.html#a5d8c550a4b51018951964c1de921a39a" target="_top" xlink:title="Constructs a FontId from a string name.">
<polygon fill="white" stroke="#666666" points="138.5,-315.5 22.5,-315.5 22.5,-285.5 138.5,-285.5 138.5,-315.5"/>
<text text-anchor="start" x="30.5" y="-303.5" font-family="Helvetica,sans-Serif" font-size="10.00">helios::engine::core</text>
<text text-anchor="middle" x="80.5" y="-292.5" font-family="Helvetica,sans-Serif" font-size="10.00">::data::FontId::FontId</text>
</a>
</g>
</g>
<!-- Node1&#45;&gt;Node3 -->
<g id="edge2_Node000001_Node000003" class="edge">
<title>Node1&#45;&gt;Node3</title>
<g id="a_edge2_Node000001_Node000003"><a xlink:title=" ">
<path fill="none" stroke="#63b8ff" d="M239.97,-215.01C220.82,-233.84 191.26,-260.18 161,-276.5 154.02,-280.26 146.37,-283.52 138.66,-286.31"/>
<polygon fill="#63b8ff" stroke="#63b8ff" points="242.67,-217.25 247.26,-207.7 237.72,-212.31 242.67,-217.25"/>
</a>
</g>
</g>
<!-- Node4 -->
<g id="Node000004" class="node">
<title>Node4</title>
<g id="a_Node000004"><a xlink:href="structhelios_1_1engine_1_1core_1_1data_1_1GameObjectPoolId.html#a1c616ea4117df2185265396a80c71356" target="_top" xlink:title="Constructs a GameObjectPoolId from a string literal.">
<polygon fill="white" stroke="#666666" points="151,-267 10,-267 10,-226 151,-226 151,-267"/>
<text text-anchor="start" x="18" y="-255" font-family="Helvetica,sans-Serif" font-size="10.00">helios::engine::core</text>
<text text-anchor="start" x="18" y="-244" font-family="Helvetica,sans-Serif" font-size="10.00">::data::GameObjectPoolId</text>
<text text-anchor="middle" x="80.5" y="-233" font-family="Helvetica,sans-Serif" font-size="10.00">::GameObjectPoolId</text>
</a>
</g>
</g>
<!-- Node1&#45;&gt;Node4 -->
<g id="edge3_Node000001_Node000004" class="edge">
<title>Node1&#45;&gt;Node4</title>
<g id="a_edge3_Node000001_Node000004"><a xlink:title=" ">
<path fill="none" stroke="#63b8ff" d="M201.77,-210.42C185.14,-215.41 166.95,-220.86 149.87,-225.99"/>
<polygon fill="#63b8ff" stroke="#63b8ff" points="202.79,-213.77 211.36,-207.54 200.78,-207.06 202.79,-213.77"/>
</a>
</g>
</g>
<!-- Node5 -->
<g id="Node000005" class="node">
<title>Node5</title>
<g id="a_Node000005"><a xlink:href="structhelios_1_1engine_1_1core_1_1data_1_1SceneId.html#a1d589833ede3497100aeb2c656eda9d3" target="_top" xlink:title="Constructs a SceneId from a string name.">
<polygon fill="white" stroke="#666666" points="147,-207.5 14,-207.5 14,-177.5 147,-177.5 147,-207.5"/>
<text text-anchor="start" x="22" y="-195.5" font-family="Helvetica,sans-Serif" font-size="10.00">helios::engine::core</text>
<text text-anchor="middle" x="80.5" y="-184.5" font-family="Helvetica,sans-Serif" font-size="10.00">::data::SceneId::SceneId</text>
</a>
</g>
</g>
<!-- Node1&#45;&gt;Node5 -->
<g id="edge4_Node000001_Node000005" class="edge">
<title>Node1&#45;&gt;Node5</title>
<g id="a_edge4_Node000001_Node000005"><a xlink:title=" ">
<path fill="none" stroke="#63b8ff" d="M186.43,-192.5C173.39,-192.5 159.93,-192.5 147.17,-192.5"/>
<polygon fill="#63b8ff" stroke="#63b8ff" points="186.77,-196 196.77,-192.5 186.77,-189 186.77,-196"/>
</a>
</g>
</g>
<!-- Node6 -->
<g id="Node000006" class="node">
<title>Node6</title>
<g id="a_Node000006"><a xlink:href="structhelios_1_1engine_1_1core_1_1data_1_1SpawnProfileId.html#a577730c89b83e4e404574dc17247dadf" target="_top" xlink:title="Constructs a SpawnProfileId from a string literal.">
<polygon fill="white" stroke="#666666" points="141.5,-159 19.5,-159 19.5,-118 141.5,-118 141.5,-159"/>
<text text-anchor="start" x="27.5" y="-147" font-family="Helvetica,sans-Serif" font-size="10.00">helios::engine::core</text>
<text text-anchor="start" x="27.5" y="-136" font-family="Helvetica,sans-Serif" font-size="10.00">::data::SpawnProfileId</text>
<text text-anchor="middle" x="80.5" y="-125" font-family="Helvetica,sans-Serif" font-size="10.00">::SpawnProfileId</text>
</a>
</g>
</g>
<!-- Node1&#45;&gt;Node6 -->
<g id="edge5_Node000001_Node000006" class="edge">
<title>Node1&#45;&gt;Node6</title>
<g id="a_edge5_Node000001_Node000006"><a xlink:title=" ">
<path fill="none" stroke="#63b8ff" d="M201.76,-174.58C182.41,-168.77 160.96,-162.34 141.59,-156.53"/>
<polygon fill="#63b8ff" stroke="#63b8ff" points="200.78,-177.94 211.36,-177.46 202.79,-171.23 200.78,-177.94"/>
</a>
</g>
</g>
<!-- Node7 -->
<g id="Node000007" class="node">
<title>Node7</title>
<g id="a_Node000007"><a xlink:href="structhelios_1_1engine_1_1core_1_1data_1_1SpawnRuleId.html#a46be7b5cf22d6fd59b4d4a8fd5108c33" target="_top" xlink:title="Constructs a SpawnRuleId from a string literal.">
<polygon fill="white" stroke="#666666" points="140,-100 21,-100 21,-59 140,-59 140,-100"/>
<text text-anchor="start" x="29" y="-88" font-family="Helvetica,sans-Serif" font-size="10.00">helios::engine::core</text>
<text text-anchor="start" x="29" y="-77" font-family="Helvetica,sans-Serif" font-size="10.00">::data::SpawnRuleId::</text>
<text text-anchor="middle" x="80.5" y="-66" font-family="Helvetica,sans-Serif" font-size="10.00">SpawnRuleId</text>
</a>
</g>
</g>
<!-- Node1&#45;&gt;Node7 -->
<g id="edge6_Node000001_Node000007" class="edge">
<title>Node1&#45;&gt;Node7</title>
<g id="a_edge6_Node000001_Node000007"><a xlink:title=" ">
<path fill="none" stroke="#63b8ff" d="M238.95,-170.14C219.59,-151.9 190.25,-126.46 161,-109.5 154.49,-105.73 147.42,-102.26 140.27,-99.14"/>
<polygon fill="#63b8ff" stroke="#63b8ff" points="236.72,-172.84 246.36,-177.23 241.56,-167.79 236.72,-172.84"/>
</a>
</g>
</g>
<!-- Node8 -->
<g id="Node000008" class="node">
<title>Node8</title>
<g id="a_Node000008"><a xlink:href="structhelios_1_1core_1_1data_1_1StrongId.html#a41796fd8728eebcfa8cc1ed6a35789a7" target="_top" xlink:title=" ">
<polygon fill="white" stroke="#666666" points="161,-41 0,-41 0,0 161,0 161,-41"/>
<text text-anchor="start" x="8" y="-29" font-family="Helvetica,sans-Serif" font-size="10.00">helios::core::data</text>
<text text-anchor="start" x="8" y="-18" font-family="Helvetica,sans-Serif" font-size="10.00">::StrongId&lt; GameTimerIdTag,</text>
<text text-anchor="middle" x="80.5" y="-7" font-family="Helvetica,sans-Serif" font-size="10.00"> uint32_t &gt;::StrongId</text>
</a>
</g>
</g>
<!-- Node1&#45;&gt;Node8 -->
<g id="edge7_Node000001_Node000008" class="edge">
<title>Node1&#45;&gt;Node8</title>
<g id="a_edge7_Node000001_Node000008"><a xlink:title=" ">
<path fill="none" stroke="#63b8ff" d="M250.01,-168.1C234.12,-136.78 202.62,-82.66 161,-50.5 156.45,-46.98 151.44,-43.84 146.21,-41.04"/>
<polygon fill="#63b8ff" stroke="#63b8ff" points="247.05,-170 254.62,-177.41 253.32,-166.89 247.05,-170"/>
</a>
</g>
</g>
</g>
</svg>
