<?xml version="1.0" encoding="UTF-8" standalone="no"?>
<!DOCTYPE svg PUBLIC "-//W3C//DTD SVG 1.1//EN"
 "http://www.w3.org/Graphics/SVG/1.1/DTD/svg11.dtd">
<!-- Generated by graphviz version 2.43.0 (0)
 -->
<!-- Title: helios::core::algorithms::fnv1a_hash Pages: 1 -->
<!--zoomable 468 -->

<svg id="main" version="1.1" xmlns="http://www.w3.org/2000/svg" xmlns:xlink="http://www.w3.org/1999/xlink" xml:space="preserve" onload="init(evt)">

<style type="text/css"><![CDATA[
.node, .edge {opacity: 0.7;}
.node.selected, .edge.selected {opacity: 1;}
.edge:hover path { stroke: red; }
.edge:hover polygon { stroke: red; fill: red; }
]]></style>

<defs>
  <circle id="rim" cx="0" cy="0" r="7"/>
  <circle id="rim2" cx="0" cy="0" r="3.5"/>
  <g id="zoomPlus">
    <use xlink:href="#rim" fill="#404040"><set attributeName="fill" to="#808080" begin="zoomplus.mouseover" end="zoomplus.mouseout"/></use>
    <path d="M-4,0h8M0,-4v8" fill="none" stroke="white" stroke-width="1.5" pointer-events="none"/>
  </g>
  <g id="zoomMin">
    <use xlink:href="#rim" fill="#404040"><set attributeName="fill" to="#808080" begin="zoomminus.mouseover" end="zoomminus.mouseout"/></use>
    <path d="M-4,0h8" fill="none" stroke="white" stroke-width="1.5" pointer-events="none"/>
  </g>
  <g id="arrowUp" transform="translate(30 24)">
    <use xlink:href="#rim"/>
    <path pointer-events="none" fill="none" stroke="white" stroke-width="1.5" d="M0,-3.0v7 M-2.5,-0.5L0,-3.0L2.5,-0.5"/>
  </g>
  <g id="arrowRight" transform="rotate(90) translate(36 -43)">
    <use xlink:href="#rim"/>
    <path pointer-events="none" fill="none" stroke="white" stroke-width="1.5" d="M0,-3.0v7 M-2.5,-0.5L0,-3.0L2.5,-0.5"/>
  </g>
  <g id="arrowDown" transform="rotate(180) translate(-30 -48)">
    <use xlink:href="#rim"/>
    <path pointer-events="none" fill="none" stroke="white" stroke-width="1.5" d="M0,-3.0v7 M-2.5,-0.5L0,-3.0L2.5,-0.5"/>
  </g>
  <g id="arrowLeft" transform="rotate(270) translate(-36 17)">
    <use xlink:href="#rim"/>
    <path pointer-events="none" fill="none" stroke="white" stroke-width="1.5" d="M0,-3.0v7 M-2.5,-0.5L0,-3.0L2.5,-0.5"/>
  </g>
  <g id="resetDef">
    <use xlink:href="#rim2" fill="#404040"><set attributeName="fill" to="#808080" begin="reset.mouseover" end="reset.mouseout"/></use>
  </g>
</defs>
<script type="application/ecmascript">
var viewWidth = 336;
var viewHeight = 468;
var sectionId = 'dynsection-0';
</script>
<script type="application/ecmascript" xlink:href="svg.min.js"/>
<svg id="graph" class="graph">
<g id="viewport">
<title>helios::core::algorithms::fnv1a_hash</title>
<!-- Node1 -->
<g id="Node000001" class="node">
<title>Node1</title>
<g id="a_Node000001"><a xlink:title="Computes a 32&#45;bit FNV&#45;1a hash from a string.">
<polygon fill="#999999" stroke="#666666" points="328,-256 197,-256 197,-226 328,-226 328,-256"/>
<text text-anchor="start" x="205" y="-244" font-family="Helvetica,sans-Serif" font-size="10.00">helios::core::algorithms</text>
<text text-anchor="middle" x="262.5" y="-233" font-family="Helvetica,sans-Serif" font-size="10.00">::fnv1a_hash</text>
</a>
</g>
</g>
<!-- Node2 -->
<g id="Node000002" class="node">
<title>Node2</title>
<g id="a_Node000002"><a xlink:href="structhelios_1_1engine_1_1core_1_1data_1_1ActionId.html#a0927c976e9b53a395c18f3ec6e18463c" target="_top" xlink:title="Constructs an ActionId from a string literal.">
<polygon fill="white" stroke="#666666" points="148.5,-460 12.5,-460 12.5,-430 148.5,-430 148.5,-460"/>
<text text-anchor="start" x="20.5" y="-448" font-family="Helvetica,sans-Serif" font-size="10.00">helios::engine::core</text>
<text text-anchor="middle" x="80.5" y="-437" font-family="Helvetica,sans-Serif" font-size="10.00">::data::ActionId::ActionId</text>
</a>
</g>
</g>
<!-- Node1&#45;&gt;Node2 -->
<g id="edge1_Node000001_Node000002" class="edge">
<title>Node1&#45;&gt;Node2</title>
<g id="a_edge1_Node000001_Node000002"><a xlink:title=" ">
<path fill="none" stroke="#63b8ff" d="M254.24,-266.08C241.7,-305.02 212.24,-379.79 161,-421 156.73,-424.43 151.98,-427.38 146.98,-429.9"/>
<polygon fill="#63b8ff" stroke="#63b8ff" points="257.72,-266.7 257.34,-256.11 251.03,-264.62 257.72,-266.7"/>
</a>
</g>
</g>
<!-- Node3 -->
<g id="Node000003" class="node">
<title>Node3</title>
<g id="a_Node000003"><a xlink:href="structhelios_1_1engine_1_1core_1_1data_1_1FontId.html#a5d8c550a4b51018951964c1de921a39a" target="_top" xlink:title="Constructs a FontId from a string name.">
<polygon fill="white" stroke="#666666" points="138.5,-412 22.5,-412 22.5,-382 138.5,-382 138.5,-412"/>
<text text-anchor="start" x="30.5" y="-400" font-family="Helvetica,sans-Serif" font-size="10.00">helios::engine::core</text>
<text text-anchor="middle" x="80.5" y="-389" font-family="Helvetica,sans-Serif" font-size="10.00">::data::FontId::FontId</text>
</a>
</g>
</g>
<!-- Node1&#45;&gt;Node3 -->
<g id="edge2_Node000001_Node000003" class="edge">
<title>Node1&#45;&gt;Node3</title>
<g id="a_edge2_Node000001_Node000003"><a xlink:title=" ">
<path fill="none" stroke="#63b8ff" d="M249.38,-265.01C233.2,-294.68 201.78,-344.7 161,-373 154.25,-377.68 146.56,-381.47 138.69,-384.53"/>
<polygon fill="#63b8ff" stroke="#63b8ff" points="252.49,-266.62 254.09,-256.14 246.31,-263.33 252.49,-266.62"/>
</a>
</g>
</g>
<!-- Node4 -->
<g id="Node000004" class="node">
<title>Node4</title>
<g id="a_Node000004"><a xlink:href="structhelios_1_1engine_1_1core_1_1data_1_1GameObjectPoolId.html#a1c616ea4117df2185265396a80c71356" target="_top" xlink:title="Constructs a GameObjectPoolId from a string literal.">
<polygon fill="white" stroke="#666666" points="151,-363.5 10,-363.5 10,-322.5 151,-322.5 151,-363.5"/>
<text text-anchor="start" x="18" y="-351.5" font-family="Helvetica,sans-Serif" font-size="10.00">helios::engine::core</text>
<text text-anchor="start" x="18" y="-340.5" font-family="Helvetica,sans-Serif" font-size="10.00">::data::GameObjectPoolId</text>
<text text-anchor="middle" x="80.5" y="-329.5" font-family="Helvetica,sans-Serif" font-size="10.00">::GameObjectPoolId</text>
</a>
</g>
</g>
<!-- Node1&#45;&gt;Node4 -->
<g id="edge3_Node000001_Node000004" class="edge">
<title>Node1&#45;&gt;Node4</title>
<g id="a_edge3_Node000001_Node000004"><a xlink:title=" ">
<path fill="none" stroke="#63b8ff" d="M235.71,-262.36C216.1,-277.86 187.99,-298.56 161,-313 154.76,-316.34 148.06,-319.48 141.3,-322.38"/>
<polygon fill="#63b8ff" stroke="#63b8ff" points="237.94,-265.05 243.56,-256.07 233.57,-259.59 237.94,-265.05"/>
</a>
</g>
</g>
<!-- Node5 -->
<g id="Node000005" class="node">
<title>Node5</title>
<g id="a_Node000005"><a xlink:href="structhelios_1_1engine_1_1core_1_1data_1_1MenuId.html#a083a979bbd6d82584a29f3db70a3906c" target="_top" xlink:title="Constructs a MenuId from a string literal.">
<polygon fill="white" stroke="#666666" points="144.5,-304 16.5,-304 16.5,-274 144.5,-274 144.5,-304"/>
<text text-anchor="start" x="24.5" y="-292" font-family="Helvetica,sans-Serif" font-size="10.00">helios::engine::core</text>
<text text-anchor="middle" x="80.5" y="-281" font-family="Helvetica,sans-Serif" font-size="10.00">::data::MenuId::MenuId</text>
</a>
</g>
</g>
<!-- Node1&#45;&gt;Node5 -->
<g id="edge4_Node000001_Node000005" class="edge">
<title>Node1&#45;&gt;Node5</title>
<g id="a_edge4_Node000001_Node000005"><a xlink:title=" ">
<path fill="none" stroke="#63b8ff" d="M195.31,-258.65C176.41,-263.69 156.01,-269.13 137.76,-274"/>
<polygon fill="#63b8ff" stroke="#63b8ff" points="196.28,-262.01 205.04,-256.06 194.48,-255.25 196.28,-262.01"/>
</a>
</g>
</g>
<!-- Node6 -->
<g id="Node000006" class="node">
<title>Node6</title>
<g id="a_Node000006"><a xlink:href="structhelios_1_1engine_1_1core_1_1data_1_1SceneId.html#a1d589833ede3497100aeb2c656eda9d3" target="_top" xlink:title="Constructs a SceneId from a string name.">
<polygon fill="white" stroke="#666666" points="147,-256 14,-256 14,-226 147,-226 147,-256"/>
<text text-anchor="start" x="22" y="-244" font-family="Helvetica,sans-Serif" font-size="10.00">helios::engine::core</text>
<text text-anchor="middle" x="80.5" y="-233" font-family="Helvetica,sans-Serif" font-size="10.00">::data::SceneId::SceneId</text>
</a>
</g>
</g>
<!-- Node1&#45;&gt;Node6 -->
<g id="edge5_Node000001_Node000006" class="edge">
<title>Node1&#45;&gt;Node6</title>
<g id="a_edge5_Node000001_Node000006"><a xlink:title=" ">
<path fill="none" stroke="#63b8ff" d="M186.43,-241C173.39,-241 159.93,-241 147.17,-241"/>
<polygon fill="#63b8ff" stroke="#63b8ff" points="186.77,-244.5 196.77,-241 186.77,-237.5 186.77,-244.5"/>
</a>
</g>
</g>
<!-- Node7 -->
<g id="Node000007" class="node">
<title>Node7</title>
<g id="a_Node000007"><a xlink:href="structhelios_1_1engine_1_1core_1_1data_1_1ScorePoolId.html#ad78a69ff85db3b7559f15ed42cf700f0" target="_top" xlink:title="Constructs a ScorePoolId from a string name.">
<polygon fill="white" stroke="#666666" points="137,-207.5 24,-207.5 24,-166.5 137,-166.5 137,-207.5"/>
<text text-anchor="start" x="32" y="-195.5" font-family="Helvetica,sans-Serif" font-size="10.00">helios::engine::core</text>
<text text-anchor="start" x="32" y="-184.5" font-family="Helvetica,sans-Serif" font-size="10.00">::data::ScorePoolId::</text>
<text text-anchor="middle" x="80.5" y="-173.5" font-family="Helvetica,sans-Serif" font-size="10.00">ScorePoolId</text>
</a>
</g>
</g>
<!-- Node1&#45;&gt;Node7 -->
<g id="edge6_Node000001_Node000007" class="edge">
<title>Node1&#45;&gt;Node7</title>
<g id="a_edge6_Node000001_Node000007"><a xlink:title=" ">
<path fill="none" stroke="#63b8ff" d="M201.66,-223.05C180.82,-216.8 157.54,-209.81 137.06,-203.67"/>
<polygon fill="#63b8ff" stroke="#63b8ff" points="200.78,-226.44 211.36,-225.96 202.79,-219.73 200.78,-226.44"/>
</a>
</g>
</g>
<!-- Node8 -->
<g id="Node000008" class="node">
<title>Node8</title>
<g id="a_Node000008"><a xlink:href="structhelios_1_1engine_1_1core_1_1data_1_1SpawnProfileId.html#a577730c89b83e4e404574dc17247dadf" target="_top" xlink:title="Constructs a SpawnProfileId from a string literal.">
<polygon fill="white" stroke="#666666" points="141.5,-148.5 19.5,-148.5 19.5,-107.5 141.5,-107.5 141.5,-148.5"/>
<text text-anchor="start" x="27.5" y="-136.5" font-family="Helvetica,sans-Serif" font-size="10.00">helios::engine::core</text>
<text text-anchor="start" x="27.5" y="-125.5" font-family="Helvetica,sans-Serif" font-size="10.00">::data::SpawnProfileId</text>
<text text-anchor="middle" x="80.5" y="-114.5" font-family="Helvetica,sans-Serif" font-size="10.00">::SpawnProfileId</text>
</a>
</g>
</g>
<!-- Node1&#45;&gt;Node8 -->
<g id="edge7_Node000001_Node000008" class="edge">
<title>Node1&#45;&gt;Node8</title>
<g id="a_edge7_Node000001_Node000008"><a xlink:title=" ">
<path fill="none" stroke="#63b8ff" d="M238.95,-218.64C219.59,-200.4 190.25,-174.96 161,-158 154.87,-154.45 148.25,-151.17 141.53,-148.2"/>
<polygon fill="#63b8ff" stroke="#63b8ff" points="236.72,-221.34 246.36,-225.73 241.56,-216.29 236.72,-221.34"/>
</a>
</g>
</g>
<!-- Node9 -->
<g id="Node000009" class="node">
<title>Node9</title>
<g id="a_Node000009"><a xlink:href="structhelios_1_1engine_1_1core_1_1data_1_1SpawnRuleId.html#a46be7b5cf22d6fd59b4d4a8fd5108c33" target="_top" xlink:title="Constructs a SpawnRuleId from a string literal.">
<polygon fill="white" stroke="#666666" points="140,-89.5 21,-89.5 21,-48.5 140,-48.5 140,-89.5"/>
<text text-anchor="start" x="29" y="-77.5" font-family="Helvetica,sans-Serif" font-size="10.00">helios::engine::core</text>
<text text-anchor="start" x="29" y="-66.5" font-family="Helvetica,sans-Serif" font-size="10.00">::data::SpawnRuleId::</text>
<text text-anchor="middle" x="80.5" y="-55.5" font-family="Helvetica,sans-Serif" font-size="10.00">SpawnRuleId</text>
</a>
</g>
</g>
<!-- Node1&#45;&gt;Node9 -->
<g id="edge8_Node000001_Node000009" class="edge">
<title>Node1&#45;&gt;Node9</title>
<g id="a_edge8_Node000001_Node000009"><a xlink:title=" ">
<path fill="none" stroke="#63b8ff" d="M250.01,-216.6C234.12,-185.28 202.62,-131.16 161,-99 154.7,-94.13 147.51,-89.98 140.11,-86.46"/>
<polygon fill="#63b8ff" stroke="#63b8ff" points="247.05,-218.5 254.62,-225.91 253.32,-215.39 247.05,-218.5"/>
</a>
</g>
</g>
<!-- Node10 -->
<g id="Node000010" class="node">
<title>Node10</title>
<g id="a_Node000010"><a xlink:href="structhelios_1_1engine_1_1core_1_1data_1_1ViewportId.html#ad3baa97f44a444ceb0f08876bb46706e" target="_top" xlink:title="Constructs a ViewportId from a string name.">
<polygon fill="white" stroke="#666666" points="161,-30 0,-30 0,0 161,0 161,-30"/>
<text text-anchor="start" x="8" y="-18" font-family="Helvetica,sans-Serif" font-size="10.00">helios::engine::core</text>
<text text-anchor="middle" x="80.5" y="-7" font-family="Helvetica,sans-Serif" font-size="10.00">::data::ViewportId::ViewportId</text>
</a>
</g>
</g>
<!-- Node1&#45;&gt;Node10 -->
<g id="edge9_Node000001_Node000010" class="edge">
<title>Node1&#45;&gt;Node10</title>
<g id="a_edge9_Node000001_Node000010"><a xlink:title=" ">
<path fill="none" stroke="#63b8ff" d="M255.82,-216.1C244.87,-173.74 216.84,-87.6 161,-40 156.49,-36.15 151.38,-32.89 145.98,-30.14"/>
<polygon fill="#63b8ff" stroke="#63b8ff" points="252.44,-217.02 258.24,-225.88 259.24,-215.33 252.44,-217.02"/>
</a>
</g>
</g>
</g>
</svg>

<g id="navigator" transform="translate(0 0)" fill="#404254">
  <rect fill="#f2f5e9" fill-opacity="0.5" stroke="#606060" stroke-width=".5" x="0" y="0" width="60" height="60"/>
  <use id="zoomplus" xlink:href="#zoomPlus" x="17" y="9" onmousedown="handleZoom(evt,'in')"/>
  <use id="zoomminus" xlink:href="#zoomMin" x="42" y="9" onmousedown="handleZoom(evt,'out')"/>
  <use id="reset" xlink:href="#resetDef" x="30" y="36" onmousedown="handleReset()"/>
   <use id="arrowup" xlink:href="#arrowUp" x="0" y="0" onmousedown="handlePan(0,-1)"/>
  <use id="arrowright" xlink:href="#arrowRight" x="0" y="0" onmousedown="handlePan(1,0)"/>
  <use id="arrowdown" xlink:href="#arrowDown" x="0" y="0" onmousedown="handlePan(0,1)"/>
  <use id="arrowleft" xlink:href="#arrowLeft" x="0" y="0" onmousedown="handlePan(-1,0)"/>
</g>
<svg viewBox="0 0 15 15" width="100%" height="30px" preserveAspectRatio="xMaxYMin meet">
 <g id="arrow_out" transform="scale(0.3 0.3)">
  <a xlink:href="namespacehelios_1_1core_1_1algorithms_a3df283d4b3d4c5006c1bb3c30e03ab1e_icgraph_org.svg" target="_base">
   <rect id="button" ry="5" rx="5" y="6" x="6" height="38" width="38"
        fill="#f2f5e9" fill-opacity="0.5" stroke="#606060" stroke-width="1.0"/>
   <path id="arrow"
     d="M 11.500037,31.436501 C 11.940474,20.09759 22.043105,11.32322 32.158766,21.979434 L 37.068811,17.246167 C 37.068811,17.246167 37.088388,32 37.088388,32 L 22.160133,31.978069 C 22.160133,31.978069 26.997745,27.140456 26.997745,27.140456 C 18.528582,18.264221 13.291696,25.230495 11.500037,31.436501 z"
     style="fill:#404040;"/>
  </a>
 </g>
</svg>

<style type='text/css'>
<![CDATA[
[data-mouse-over-selected='false'] { opacity: 0.7; }
[data-mouse-over-selected='true']  { opacity: 1.0; }
]]>
</style>
<script type="application/ecmascript"><![CDATA[
document.addEventListener('DOMContentLoaded', (event) => {
  highlightEdges();
  highlightAdjacentNodes();
});
]]></script>
</svg>
