<?xml version="1.0" encoding="UTF-8" standalone="no"?>
<!DOCTYPE svg PUBLIC "-//W3C//DTD SVG 1.1//EN"
 "http://www.w3.org/Graphics/SVG/1.1/DTD/svg11.dtd">
<!-- Generated by graphviz version 2.43.0 (0)
 -->
<!-- Title: include/ext/opengl/rendering/shader/OpenGLShader.ixx Pages: 1 -->
<svg width="984pt" height="291pt"
 viewBox="0.00 0.00 984.00 291.00" xmlns="http://www.w3.org/2000/svg" xmlns:xlink="http://www.w3.org/1999/xlink">
<g id="graph0" class="graph" transform="scale(1 1) rotate(0) translate(4 287)">
<title>include/ext/opengl/rendering/shader/OpenGLShader.ixx</title>
<!-- Node1 -->
<g id="Node000001" class="node">
<title>Node1</title>
<g id="a_Node000001"><a xlink:title="OpenGL implementation of shader program management.">
<polygon fill="#999999" stroke="#666666" points="491,-283 297,-283 297,-253 491,-253 491,-283"/>
<text text-anchor="start" x="305" y="-271" font-family="Helvetica,sans-Serif" font-size="10.00">include/ext/opengl</text>
<text text-anchor="middle" x="394" y="-260" font-family="Helvetica,sans-Serif" font-size="10.00">/rendering/shader/OpenGLShader.ixx</text>
</a>
</g>
</g>
<!-- Node2 -->
<g id="Node000002" class="node">
<title>Node2</title>
<g id="a_Node000002"><a xlink:title=" ">
<polygon fill="#e0e0e0" stroke="#999999" points="60,-19 0,-19 0,0 60,0 60,-19"/>
<text text-anchor="middle" x="30" y="-7" font-family="Helvetica,sans-Serif" font-size="10.00">iostream</text>
</a>
</g>
</g>
<!-- Node1&#45;&gt;Node2 -->
<g id="edge1_Node000001_Node000002" class="edge">
<title>Node1&#45;&gt;Node2</title>
<g id="a_edge1_Node000001_Node000002"><a xlink:title=" ">
<path fill="none" stroke="#63b8ff" d="M296.86,-263.96C213.74,-259.26 102.65,-247.33 71,-217 18.53,-166.71 22.83,-69.96 27.37,-29.27"/>
<polygon fill="#63b8ff" stroke="#63b8ff" points="30.87,-29.51 28.64,-19.15 23.92,-28.64 30.87,-29.51"/>
</a>
</g>
</g>
<!-- Node3 -->
<g id="Node000003" class="node">
<title>Node3</title>
<g id="a_Node000003"><a xlink:href="OpenGLUniformLocationMap_8ixx.html" target="_top" xlink:title="Maps shader uniform semantics to OpenGL uniform locations.">
<polygon fill="white" stroke="#666666" points="578,-217 390,-217 390,-187 578,-187 578,-217"/>
<text text-anchor="start" x="398" y="-205" font-family="Helvetica,sans-Serif" font-size="10.00">helios.ext.opengl.rendering.shader.</text>
<text text-anchor="middle" x="484" y="-194" font-family="Helvetica,sans-Serif" font-size="10.00">OpenGLUniformLocationMap</text>
</a>
</g>
</g>
<!-- Node1&#45;&gt;Node3 -->
<g id="edge2_Node000001_Node000003" class="edge">
<title>Node1&#45;&gt;Node3</title>
<g id="a_edge2_Node000001_Node000003"><a xlink:title=" ">
<path fill="none" stroke="#63b8ff" d="M413.97,-252.8C426.21,-244.1 442.06,-232.82 455.59,-223.2"/>
<polygon fill="#63b8ff" stroke="#63b8ff" points="457.96,-225.81 464.08,-217.16 453.9,-220.11 457.96,-225.81"/>
</a>
</g>
</g>
<!-- Node12 -->
<g id="Node000012" class="node">
<title>Node12</title>
<g id="a_Node000012"><a xlink:href="UniformSemantics_8ixx.html" target="_top" xlink:title="Definitions of uniform semantics used by shaders.">
<polygon fill="white" stroke="#666666" points="976,-85 842,-85 842,-55 976,-55 976,-85"/>
<text text-anchor="start" x="850" y="-73" font-family="Helvetica,sans-Serif" font-size="10.00">helios.rendering.shader.</text>
<text text-anchor="middle" x="909" y="-62" font-family="Helvetica,sans-Serif" font-size="10.00">UniformSemantics</text>
</a>
</g>
</g>
<!-- Node1&#45;&gt;Node12 -->
<g id="edge22_Node000001_Node000012" class="edge">
<title>Node1&#45;&gt;Node12</title>
<g id="a_edge22_Node000001_Node000012"><a xlink:title=" ">
<path fill="none" stroke="#63b8ff" d="M473.16,-253C514.54,-244.6 565.68,-232.52 610,-217 674.17,-194.53 686.89,-180.79 748,-151 790.64,-130.21 839.4,-105.91 871.99,-89.59"/>
<polygon fill="#63b8ff" stroke="#63b8ff" points="873.77,-92.61 881.14,-85 870.63,-86.35 873.77,-92.61"/>
</a>
</g>
</g>
<!-- Node13 -->
<g id="Node000013" class="node">
<title>Node13</title>
<g id="a_Node000013"><a xlink:href="UniformValueMap_8ixx.html" target="_top" xlink:title="Mapping of uniform names to values used by shader programs.">
<polygon fill="white" stroke="#666666" points="684,-151 550,-151 550,-121 684,-121 684,-151"/>
<text text-anchor="start" x="558" y="-139" font-family="Helvetica,sans-Serif" font-size="10.00">helios.rendering.shader.</text>
<text text-anchor="middle" x="617" y="-128" font-family="Helvetica,sans-Serif" font-size="10.00">UniformValueMap</text>
</a>
</g>
</g>
<!-- Node1&#45;&gt;Node13 -->
<g id="edge15_Node000001_Node000013" class="edge">
<title>Node1&#45;&gt;Node13</title>
<g id="a_edge15_Node000001_Node000013"><a xlink:title=" ">
<path fill="none" stroke="#63b8ff" d="M491.01,-260.13C524.79,-253.35 560.76,-240.62 587,-217 602.96,-202.64 610.47,-178.93 613.97,-161.05"/>
<polygon fill="#63b8ff" stroke="#63b8ff" points="617.45,-161.49 615.64,-151.05 610.54,-160.34 617.45,-161.49"/>
</a>
</g>
</g>
<!-- Node16 -->
<g id="Node000016" class="node">
<title>Node16</title>
<g id="a_Node000016"><a xlink:href="StringFileReader_8ixx.html" target="_top" xlink:title="Abstract base class for reading file contents into a string.">
<polygon fill="white" stroke="#666666" points="204.5,-217 79.5,-217 79.5,-187 204.5,-187 204.5,-217"/>
<text text-anchor="start" x="87.5" y="-205" font-family="Helvetica,sans-Serif" font-size="10.00">helios.util.io.StringFile</text>
<text text-anchor="middle" x="142" y="-194" font-family="Helvetica,sans-Serif" font-size="10.00">Reader</text>
</a>
</g>
</g>
<!-- Node1&#45;&gt;Node16 -->
<g id="edge23_Node000001_Node000016" class="edge">
<title>Node1&#45;&gt;Node16</title>
<g id="a_edge23_Node000001_Node000016"><a xlink:title=" ">
<path fill="none" stroke="#63b8ff" d="M338.7,-252.95C299.88,-243.1 247.83,-229.88 207.02,-219.51"/>
<polygon fill="#63b8ff" stroke="#63b8ff" points="207.73,-216.08 197.17,-217.01 206,-222.87 207.73,-216.08"/>
</a>
</g>
</g>
<!-- Node17 -->
<g id="Node000017" class="node">
<title>Node17</title>
<g id="a_Node000017"><a xlink:href="Shader_8ixx.html" target="_top" xlink:title="Abstraction for a compiled shader program.">
<polygon fill="white" stroke="#666666" points="372,-217 238,-217 238,-187 372,-187 372,-217"/>
<text text-anchor="start" x="246" y="-205" font-family="Helvetica,sans-Serif" font-size="10.00">helios.rendering.shader.</text>
<text text-anchor="middle" x="305" y="-194" font-family="Helvetica,sans-Serif" font-size="10.00">Shader</text>
</a>
</g>
</g>
<!-- Node1&#45;&gt;Node17 -->
<g id="edge27_Node000001_Node000017" class="edge">
<title>Node1&#45;&gt;Node17</title>
<g id="a_edge27_Node000001_Node000017"><a xlink:title=" ">
<path fill="none" stroke="#63b8ff" d="M374.25,-252.8C362.15,-244.1 346.47,-232.82 333.09,-223.2"/>
<polygon fill="#63b8ff" stroke="#63b8ff" points="334.86,-220.16 324.7,-217.16 330.77,-225.84 334.86,-220.16"/>
</a>
</g>
</g>
<!-- Node4 -->
<g id="Node000004" class="node">
<title>Node4</title>
<g id="a_Node000004"><a xlink:title=" ">
<polygon fill="#e0e0e0" stroke="#999999" points="540,-79.5 498,-79.5 498,-60.5 540,-60.5 540,-79.5"/>
<text text-anchor="middle" x="519" y="-67.5" font-family="Helvetica,sans-Serif" font-size="10.00">array</text>
</a>
</g>
</g>
<!-- Node3&#45;&gt;Node4 -->
<g id="edge3_Node000003_Node000004" class="edge">
<title>Node3&#45;&gt;Node4</title>
<g id="a_edge3_Node000003_Node000004"><a xlink:title=" ">
<path fill="none" stroke="#63b8ff" d="M487.81,-186.84C494.17,-163.23 506.93,-115.83 514,-89.58"/>
<polygon fill="#63b8ff" stroke="#63b8ff" points="517.42,-90.31 516.64,-79.75 510.67,-88.49 517.42,-90.31"/>
</a>
</g>
</g>
<!-- Node5 -->
<g id="Node000005" class="node">
<title>Node5</title>
<g id="a_Node000005"><a xlink:title=" ">
<polygon fill="#e0e0e0" stroke="#999999" points="614,-79.5 558,-79.5 558,-60.5 614,-60.5 614,-79.5"/>
<text text-anchor="middle" x="586" y="-67.5" font-family="Helvetica,sans-Serif" font-size="10.00">optional</text>
</a>
</g>
</g>
<!-- Node3&#45;&gt;Node5 -->
<g id="edge4_Node000003_Node000005" class="edge">
<title>Node3&#45;&gt;Node5</title>
<g id="a_edge4_Node000003_Node000005"><a xlink:title=" ">
<path fill="none" stroke="#63b8ff" d="M493.42,-186.77C504.35,-170.49 523.18,-143.22 541,-121 550.48,-109.18 561.9,-96.51 570.87,-86.88"/>
<polygon fill="#63b8ff" stroke="#63b8ff" points="573.42,-89.27 577.72,-79.59 568.32,-84.47 573.42,-89.27"/>
</a>
</g>
</g>
<!-- Node6 -->
<g id="Node000006" class="node">
<title>Node6</title>
<g id="a_Node000006"><a xlink:href="Logger_8ixx.html" target="_top" xlink:title="Simple synchronous logger that writes messages to stdout.">
<polygon fill="white" stroke="#666666" points="187.5,-79.5 68.5,-79.5 68.5,-60.5 187.5,-60.5 187.5,-79.5"/>
<text text-anchor="middle" x="128" y="-67.5" font-family="Helvetica,sans-Serif" font-size="10.00">helios.util.log.Logger</text>
</a>
</g>
</g>
<!-- Node3&#45;&gt;Node6 -->
<g id="edge5_Node000003_Node000006" class="edge">
<title>Node3&#45;&gt;Node6</title>
<g id="a_edge5_Node000003_Node000006"><a xlink:title=" ">
<path fill="none" stroke="#63b8ff" d="M389.99,-188.32C327.6,-178.89 252.05,-165.25 223,-151 204.91,-142.12 204.35,-134.06 189,-121 175.07,-109.15 159.07,-96.05 146.95,-86.24"/>
<polygon fill="#63b8ff" stroke="#63b8ff" points="148.88,-83.29 138.9,-79.73 144.48,-88.74 148.88,-83.29"/>
</a>
</g>
</g>
<!-- Node8 -->
<g id="Node000008" class="node">
<title>Node8</title>
<g id="a_Node000008"><a xlink:href="LogManager_8ixx.html" target="_top" xlink:title="Central manager for scoped loggers.">
<polygon fill="white" stroke="#666666" points="378,-145.5 232,-145.5 232,-126.5 378,-126.5 378,-145.5"/>
<text text-anchor="middle" x="305" y="-133.5" font-family="Helvetica,sans-Serif" font-size="10.00">helios.util.log.LogManager</text>
</a>
</g>
</g>
<!-- Node3&#45;&gt;Node8 -->
<g id="edge8_Node000003_Node000008" class="edge">
<title>Node3&#45;&gt;Node8</title>
<g id="a_edge8_Node000003_Node000008"><a xlink:title=" ">
<path fill="none" stroke="#63b8ff" d="M444.72,-186.95C412.91,-175.58 368.59,-159.74 338.46,-148.96"/>
<polygon fill="#63b8ff" stroke="#63b8ff" points="339.42,-145.59 328.82,-145.52 337.06,-152.18 339.42,-145.59"/>
</a>
</g>
</g>
<!-- Node3&#45;&gt;Node12 -->
<g id="edge14_Node000003_Node000012" class="edge">
<title>Node3&#45;&gt;Node12</title>
<g id="a_edge14_Node000003_Node000012"><a xlink:title=" ">
<path fill="none" stroke="#63b8ff" d="M551.85,-186.93C593.01,-177.86 646.41,-165.14 693,-151 753.83,-132.53 822.41,-106.15 865.65,-88.8"/>
<polygon fill="#63b8ff" stroke="#63b8ff" points="867.05,-92.02 875.02,-85.03 864.43,-85.52 867.05,-92.02"/>
</a>
</g>
</g>
<!-- Node6&#45;&gt;Node2 -->
<g id="edge6_Node000006_Node000002" class="edge">
<title>Node6&#45;&gt;Node2</title>
<g id="a_edge6_Node000006_Node000002"><a xlink:title=" ">
<path fill="none" stroke="#63b8ff" d="M113.54,-60.37C97.69,-50.91 72.03,-35.59 53.32,-24.42"/>
<polygon fill="#63b8ff" stroke="#63b8ff" points="54.9,-21.29 44.52,-19.17 51.31,-27.3 54.9,-21.29"/>
</a>
</g>
</g>
<!-- Node7 -->
<g id="Node000007" class="node">
<title>Node7</title>
<g id="a_Node000007"><a xlink:title=" ">
<polygon fill="#e0e0e0" stroke="#999999" points="150,-19 106,-19 106,0 150,0 150,-19"/>
<text text-anchor="middle" x="128" y="-7" font-family="Helvetica,sans-Serif" font-size="10.00">string</text>
</a>
</g>
</g>
<!-- Node6&#45;&gt;Node7 -->
<g id="edge7_Node000006_Node000007" class="edge">
<title>Node6&#45;&gt;Node7</title>
<g id="a_edge7_Node000006_Node000007"><a xlink:title=" ">
<path fill="none" stroke="#63b8ff" d="M128,-60.37C128,-52.25 128,-39.81 128,-29.39"/>
<polygon fill="#63b8ff" stroke="#63b8ff" points="131.5,-29.17 128,-19.17 124.5,-29.17 131.5,-29.17"/>
</a>
</g>
</g>
<!-- Node8&#45;&gt;Node6 -->
<g id="edge13_Node000008_Node000006" class="edge">
<title>Node8&#45;&gt;Node6</title>
<g id="a_edge13_Node000008_Node000006"><a xlink:title=" ">
<path fill="none" stroke="#63b8ff" d="M281.13,-126.37C250.3,-115.22 196.45,-95.75 161.52,-83.12"/>
<polygon fill="#63b8ff" stroke="#63b8ff" points="162.37,-79.71 151.77,-79.6 159.99,-86.29 162.37,-79.71"/>
</a>
</g>
</g>
<!-- Node8&#45;&gt;Node7 -->
<g id="edge9_Node000008_Node000007" class="edge">
<title>Node8&#45;&gt;Node7</title>
<g id="a_edge9_Node000008_Node000007"><a xlink:title=" ">
<path fill="none" stroke="#63b8ff" d="M292.96,-126.43C279.13,-116.56 255.8,-99.78 236,-85 218.48,-71.92 214.87,-67.6 197,-55 181.86,-44.32 164.3,-33.01 150.69,-24.47"/>
<polygon fill="#63b8ff" stroke="#63b8ff" points="152.31,-21.35 141.97,-19.03 148.6,-27.29 152.31,-21.35"/>
</a>
</g>
</g>
<!-- Node9 -->
<g id="Node000009" class="node">
<title>Node9</title>
<g id="a_Node000009"><a xlink:title=" ">
<polygon fill="#e0e0e0" stroke="#999999" points="337.5,-79.5 244.5,-79.5 244.5,-60.5 337.5,-60.5 337.5,-79.5"/>
<text text-anchor="middle" x="291" y="-67.5" font-family="Helvetica,sans-Serif" font-size="10.00">unordered_map</text>
</a>
</g>
</g>
<!-- Node8&#45;&gt;Node9 -->
<g id="edge10_Node000008_Node000009" class="edge">
<title>Node8&#45;&gt;Node9</title>
<g id="a_edge10_Node000008_Node000009"><a xlink:title=" ">
<path fill="none" stroke="#63b8ff" d="M303.11,-126.37C301.08,-117.07 297.78,-101.98 295.13,-89.9"/>
<polygon fill="#63b8ff" stroke="#63b8ff" points="298.5,-88.93 292.95,-79.91 291.67,-90.42 298.5,-88.93"/>
</a>
</g>
</g>
<!-- Node10 -->
<g id="Node000010" class="node">
<title>Node10</title>
<g id="a_Node000010"><a xlink:title=" ">
<polygon fill="#e0e0e0" stroke="#999999" points="414,-79.5 356,-79.5 356,-60.5 414,-60.5 414,-79.5"/>
<text text-anchor="middle" x="385" y="-67.5" font-family="Helvetica,sans-Serif" font-size="10.00">memory</text>
</a>
</g>
</g>
<!-- Node8&#45;&gt;Node10 -->
<g id="edge11_Node000008_Node000010" class="edge">
<title>Node8&#45;&gt;Node10</title>
<g id="a_edge11_Node000008_Node000010"><a xlink:title=" ">
<path fill="none" stroke="#63b8ff" d="M315.79,-126.37C328.67,-116.06 350.44,-98.65 366.13,-86.09"/>
<polygon fill="#63b8ff" stroke="#63b8ff" points="368.5,-88.68 374.13,-79.7 364.13,-83.21 368.5,-88.68"/>
</a>
</g>
</g>
<!-- Node11 -->
<g id="Node000011" class="node">
<title>Node11</title>
<g id="a_Node000011"><a xlink:title=" ">
<polygon fill="#e0e0e0" stroke="#999999" points="480,-79.5 432,-79.5 432,-60.5 480,-60.5 480,-79.5"/>
<text text-anchor="middle" x="456" y="-67.5" font-family="Helvetica,sans-Serif" font-size="10.00">mutex</text>
</a>
</g>
</g>
<!-- Node8&#45;&gt;Node11 -->
<g id="edge12_Node000008_Node000011" class="edge">
<title>Node8&#45;&gt;Node11</title>
<g id="a_edge12_Node000008_Node000011"><a xlink:title=" ">
<path fill="none" stroke="#63b8ff" d="M325.36,-126.37C351.26,-115.39 396.17,-96.36 425.99,-83.72"/>
<polygon fill="#63b8ff" stroke="#63b8ff" points="427.63,-86.82 435.48,-79.7 424.9,-80.38 427.63,-86.82"/>
</a>
</g>
</g>
<!-- Node13&#45;&gt;Node4 -->
<g id="edge16_Node000013_Node000004" class="edge">
<title>Node13&#45;&gt;Node4</title>
<g id="a_edge16_Node000013_Node000004"><a xlink:title=" ">
<path fill="none" stroke="#63b8ff" d="M595.25,-120.8C579.13,-110.27 557.24,-95.97 541.05,-85.4"/>
<polygon fill="#63b8ff" stroke="#63b8ff" points="542.54,-82.2 532.26,-79.66 538.72,-88.06 542.54,-82.2"/>
</a>
</g>
</g>
<!-- Node13&#45;&gt;Node5 -->
<g id="edge17_Node000013_Node000005" class="edge">
<title>Node13&#45;&gt;Node5</title>
<g id="a_edge17_Node000013_Node000005"><a xlink:title=" ">
<path fill="none" stroke="#63b8ff" d="M610.12,-120.8C605.57,-111.41 599.57,-99.02 594.69,-88.95"/>
<polygon fill="#63b8ff" stroke="#63b8ff" points="597.79,-87.32 590.28,-79.84 591.49,-90.37 597.79,-87.32"/>
</a>
</g>
</g>
<!-- Node13&#45;&gt;Node12 -->
<g id="edge21_Node000013_Node000012" class="edge">
<title>Node13&#45;&gt;Node12</title>
<g id="a_edge21_Node000013_Node000012"><a xlink:title=" ">
<path fill="none" stroke="#63b8ff" d="M681.08,-120.95C726.53,-110.99 787.65,-97.6 835.15,-87.19"/>
<polygon fill="#63b8ff" stroke="#63b8ff" points="836.05,-90.57 845.07,-85.01 834.55,-83.73 836.05,-90.57"/>
</a>
</g>
</g>
<!-- Node14 -->
<g id="Node000014" class="node">
<title>Node14</title>
<g id="a_Node000014"><a xlink:title=" ">
<polygon fill="#e0e0e0" stroke="#999999" points="683.5,-79.5 632.5,-79.5 632.5,-60.5 683.5,-60.5 683.5,-79.5"/>
<text text-anchor="middle" x="658" y="-67.5" font-family="Helvetica,sans-Serif" font-size="10.00">variant</text>
</a>
</g>
</g>
<!-- Node13&#45;&gt;Node14 -->
<g id="edge18_Node000013_Node000014" class="edge">
<title>Node13&#45;&gt;Node14</title>
<g id="a_edge18_Node000013_Node000014"><a xlink:title=" ">
<path fill="none" stroke="#63b8ff" d="M626.1,-120.8C632.24,-111.21 640.38,-98.5 646.9,-88.32"/>
<polygon fill="#63b8ff" stroke="#63b8ff" points="649.89,-90.15 652.33,-79.84 643.99,-86.38 649.89,-90.15"/>
</a>
</g>
</g>
<!-- Node15 -->
<g id="Node000015" class="node">
<title>Node15</title>
<g id="a_Node000015"><a xlink:href="helios_2math_2types_2__module_8ixx.html" target="_top" xlink:title="Module exports for vector and matrix type definitions.">
<polygon fill="white" stroke="#666666" points="806,-79.5 702,-79.5 702,-60.5 806,-60.5 806,-79.5"/>
<text text-anchor="middle" x="754" y="-67.5" font-family="Helvetica,sans-Serif" font-size="10.00">helios.math.types</text>
</a>
</g>
</g>
<!-- Node13&#45;&gt;Node15 -->
<g id="edge19_Node000013_Node000015" class="edge">
<title>Node13&#45;&gt;Node15</title>
<g id="a_edge19_Node000013_Node000015"><a xlink:title=" ">
<path fill="none" stroke="#63b8ff" d="M647.07,-120.95C670.77,-109.88 703.56,-94.56 726.56,-83.82"/>
<polygon fill="#63b8ff" stroke="#63b8ff" points="728.19,-86.92 735.77,-79.52 725.23,-80.58 728.19,-86.92"/>
</a>
</g>
</g>
<!-- Node15&#45;&gt;Node15 -->
<g id="edge20_Node000015_Node000015" class="edge">
<title>Node15&#45;&gt;Node15</title>
<g id="a_edge20_Node000015_Node000015"><a xlink:title=" ">
<path fill="none" stroke="#63b8ff" d="M779.85,-79.53C801.44,-83.61 824,-80.43 824,-70 824,-61.2 807.94,-57.56 789.95,-59.09"/>
<polygon fill="#63b8ff" stroke="#63b8ff" points="789.28,-55.65 779.85,-60.47 790.23,-62.58 789.28,-55.65"/>
</a>
</g>
</g>
<!-- Node16&#45;&gt;Node6 -->
<g id="edge26_Node000016_Node000006" class="edge">
<title>Node16&#45;&gt;Node6</title>
<g id="a_edge26_Node000016_Node000006"><a xlink:title=" ">
<path fill="none" stroke="#63b8ff" d="M140.48,-186.84C137.94,-163.34 132.87,-116.26 130.04,-89.93"/>
<polygon fill="#63b8ff" stroke="#63b8ff" points="133.49,-89.32 128.94,-79.75 126.53,-90.07 133.49,-89.32"/>
</a>
</g>
</g>
<!-- Node16&#45;&gt;Node7 -->
<g id="edge24_Node000016_Node000007" class="edge">
<title>Node16&#45;&gt;Node7</title>
<g id="a_edge24_Node000016_Node000007"><a xlink:title=" ">
<path fill="none" stroke="#63b8ff" d="M127.5,-186.91C107.74,-166.58 73.29,-126.84 60,-85 55.96,-72.29 53.66,-66.73 60,-55 67.85,-40.48 82.73,-29.94 96.57,-22.77"/>
<polygon fill="#63b8ff" stroke="#63b8ff" points="98.36,-25.79 105.89,-18.34 95.36,-19.47 98.36,-25.79"/>
</a>
</g>
</g>
<!-- Node16&#45;&gt;Node8 -->
<g id="edge25_Node000016_Node000008" class="edge">
<title>Node16&#45;&gt;Node8</title>
<g id="a_edge25_Node000016_Node000008"><a xlink:title=" ">
<path fill="none" stroke="#63b8ff" d="M177.77,-186.95C206.48,-175.68 246.39,-160.01 273.81,-149.25"/>
<polygon fill="#63b8ff" stroke="#63b8ff" points="275.28,-152.43 283.31,-145.52 272.72,-145.91 275.28,-152.43"/>
</a>
</g>
</g>
<!-- Node17&#45;&gt;Node6 -->
<g id="edge29_Node000017_Node000006" class="edge">
<title>Node17&#45;&gt;Node6</title>
<g id="a_edge29_Node000017_Node000006"><a xlink:title=" ">
<path fill="none" stroke="#63b8ff" d="M258.74,-186.93C236.52,-178.72 210.37,-166.83 190,-151 167.53,-133.53 148.67,-106.13 137.85,-88.37"/>
<polygon fill="#63b8ff" stroke="#63b8ff" points="140.78,-86.46 132.69,-79.62 134.75,-90.01 140.78,-86.46"/>
</a>
</g>
</g>
<!-- Node17&#45;&gt;Node8 -->
<g id="edge30_Node000017_Node000008" class="edge">
<title>Node17&#45;&gt;Node8</title>
<g id="a_edge30_Node000017_Node000008"><a xlink:title=" ">
<path fill="none" stroke="#63b8ff" d="M305,-186.8C305,-177.7 305,-165.79 305,-155.9"/>
<polygon fill="#63b8ff" stroke="#63b8ff" points="308.5,-155.84 305,-145.84 301.5,-155.84 308.5,-155.84"/>
</a>
</g>
</g>
<!-- Node17&#45;&gt;Node13 -->
<g id="edge28_Node000017_Node000013" class="edge">
<title>Node17&#45;&gt;Node13</title>
<g id="a_edge28_Node000017_Node000013"><a xlink:title=" ">
<path fill="none" stroke="#63b8ff" d="M372.32,-187.19C421.52,-177.1 488.36,-163.39 539.74,-152.85"/>
<polygon fill="#63b8ff" stroke="#63b8ff" points="540.71,-156.22 549.81,-150.78 539.31,-149.36 540.71,-156.22"/>
</a>
</g>
</g>
</g>
</svg>
