<?xml version="1.0" encoding="UTF-8" standalone="no"?>
<!DOCTYPE svg PUBLIC "-//W3C//DTD SVG 1.1//EN"
 "http://www.w3.org/Graphics/SVG/1.1/DTD/svg11.dtd">
<!-- Generated by graphviz version 2.43.0 (0)
 -->
<!-- Title: include/ext/opengl/rendering/shader/OpenGLUniformLocationMap.ixx Pages: 1 -->
<svg width="568pt" height="280pt"
 viewBox="0.00 0.00 568.00 280.00" xmlns="http://www.w3.org/2000/svg" xmlns:xlink="http://www.w3.org/1999/xlink">
<g id="graph0" class="graph" transform="scale(1 1) rotate(0) translate(4 276)">
<title>include/ext/opengl/rendering/shader/OpenGLUniformLocationMap.ixx</title>
<!-- Node1 -->
<g id="Node000001" class="node">
<title>Node1</title>
<g id="a_Node000001"><a xlink:title="Maps shader uniform semantics to OpenGL uniform locations.">
<polygon fill="#999999" stroke="#666666" points="325.5,-272 142.5,-272 142.5,-231 325.5,-231 325.5,-272"/>
<text text-anchor="start" x="150.5" y="-260" font-family="Helvetica,sans-Serif" font-size="10.00">include/ext/opengl</text>
<text text-anchor="start" x="150.5" y="-249" font-family="Helvetica,sans-Serif" font-size="10.00">/rendering/shader/OpenGLUniform</text>
<text text-anchor="middle" x="234" y="-238" font-family="Helvetica,sans-Serif" font-size="10.00">LocationMap.ixx</text>
</a>
</g>
</g>
<!-- Node2 -->
<g id="Node000002" class="node">
<title>Node2</title>
<g id="a_Node000002"><a xlink:title=" ">
<polygon fill="#e0e0e0" stroke="#999999" points="132,-189.5 90,-189.5 90,-170.5 132,-170.5 132,-189.5"/>
<text text-anchor="middle" x="111" y="-177.5" font-family="Helvetica,sans-Serif" font-size="10.00">array</text>
</a>
</g>
</g>
<!-- Node1&#45;&gt;Node2 -->
<g id="edge1_Node000001_Node000002" class="edge">
<title>Node1&#45;&gt;Node2</title>
<g id="a_edge1_Node000001_Node000002"><a xlink:title=" ">
<path fill="none" stroke="#63b8ff" d="M199.41,-230.96C178.84,-219.33 153.26,-204.88 134.92,-194.51"/>
<polygon fill="#63b8ff" stroke="#63b8ff" points="136.48,-191.38 126.05,-189.5 133.03,-197.47 136.48,-191.38"/>
</a>
</g>
</g>
<!-- Node3 -->
<g id="Node000003" class="node">
<title>Node3</title>
<g id="a_Node000003"><a xlink:title=" ">
<polygon fill="#e0e0e0" stroke="#999999" points="206,-189.5 150,-189.5 150,-170.5 206,-170.5 206,-189.5"/>
<text text-anchor="middle" x="178" y="-177.5" font-family="Helvetica,sans-Serif" font-size="10.00">optional</text>
</a>
</g>
</g>
<!-- Node1&#45;&gt;Node3 -->
<g id="edge2_Node000001_Node000003" class="edge">
<title>Node1&#45;&gt;Node3</title>
<g id="a_edge2_Node000001_Node000003"><a xlink:title=" ">
<path fill="none" stroke="#63b8ff" d="M218.1,-230.77C209.7,-220.34 199.49,-207.68 191.48,-197.73"/>
<polygon fill="#63b8ff" stroke="#63b8ff" points="194.11,-195.41 185.11,-189.82 188.66,-199.8 194.11,-195.41"/>
</a>
</g>
</g>
<!-- Node4 -->
<g id="Node000004" class="node">
<title>Node4</title>
<g id="a_Node000004"><a xlink:href="Logger_8ixx.html" target="_top" xlink:title="Simple synchronous logger with configurable output sinks.">
<polygon fill="white" stroke="#666666" points="231.5,-129 112.5,-129 112.5,-110 231.5,-110 231.5,-129"/>
<text text-anchor="middle" x="172" y="-117" font-family="Helvetica,sans-Serif" font-size="10.00">helios.util.log.Logger</text>
</a>
</g>
</g>
<!-- Node1&#45;&gt;Node4 -->
<g id="edge3_Node000001_Node000004" class="edge">
<title>Node1&#45;&gt;Node4</title>
<g id="a_edge3_Node000001_Node000004"><a xlink:title=" ">
<path fill="none" stroke="#63b8ff" d="M232.67,-230.77C230.77,-212.72 226.16,-185.76 215,-165 209.06,-153.96 199.6,-143.74 191.06,-135.88"/>
<polygon fill="#63b8ff" stroke="#63b8ff" points="193.15,-133.05 183.31,-129.12 188.55,-138.33 193.15,-133.05"/>
</a>
</g>
</g>
<!-- Node11 -->
<g id="Node000011" class="node">
<title>Node11</title>
<g id="a_Node000011"><a xlink:href="LogManager_8ixx.html" target="_top" xlink:title="Central manager for scoped loggers with configurable sinks.">
<polygon fill="white" stroke="#666666" points="408,-189.5 262,-189.5 262,-170.5 408,-170.5 408,-189.5"/>
<text text-anchor="middle" x="335" y="-177.5" font-family="Helvetica,sans-Serif" font-size="10.00">helios.util.log.LogManager</text>
</a>
</g>
</g>
<!-- Node1&#45;&gt;Node11 -->
<g id="edge11_Node000001_Node000011" class="edge">
<title>Node1&#45;&gt;Node11</title>
<g id="a_edge11_Node000001_Node000011"><a xlink:title=" ">
<path fill="none" stroke="#63b8ff" d="M262.4,-230.96C278.83,-219.65 299.15,-205.67 314.1,-195.38"/>
<polygon fill="#63b8ff" stroke="#63b8ff" points="316.39,-198.06 322.64,-189.5 312.42,-192.29 316.39,-198.06"/>
</a>
</g>
</g>
<!-- Node14 -->
<g id="Node000014" class="node">
<title>Node14</title>
<g id="a_Node000014"><a xlink:href="UniformSemantics_8ixx.html" target="_top" xlink:title="Definitions of uniform semantics used by shaders.">
<polygon fill="white" stroke="#666666" points="560,-195 426,-195 426,-165 560,-165 560,-195"/>
<text text-anchor="start" x="434" y="-183" font-family="Helvetica,sans-Serif" font-size="10.00">helios.rendering.shader.</text>
<text text-anchor="middle" x="493" y="-172" font-family="Helvetica,sans-Serif" font-size="10.00">UniformSemantics</text>
</a>
</g>
</g>
<!-- Node1&#45;&gt;Node14 -->
<g id="edge20_Node000001_Node000014" class="edge">
<title>Node1&#45;&gt;Node14</title>
<g id="a_edge20_Node000001_Node000014"><a xlink:title=" ">
<path fill="none" stroke="#63b8ff" d="M306.84,-230.96C345.98,-220.45 393.73,-207.64 431.07,-197.62"/>
<polygon fill="#63b8ff" stroke="#63b8ff" points="432.06,-200.98 440.81,-195 430.25,-194.22 432.06,-200.98"/>
</a>
</g>
</g>
<!-- Node5 -->
<g id="Node000005" class="node">
<title>Node5</title>
<g id="a_Node000005"><a xlink:title=" ">
<polygon fill="#e0e0e0" stroke="#999999" points="202,-74 142,-74 142,-55 202,-55 202,-74"/>
<text text-anchor="middle" x="172" y="-62" font-family="Helvetica,sans-Serif" font-size="10.00">iostream</text>
</a>
</g>
</g>
<!-- Node4&#45;&gt;Node5 -->
<g id="edge4_Node000004_Node000005" class="edge">
<title>Node4&#45;&gt;Node5</title>
<g id="a_edge4_Node000004_Node000005"><a xlink:title=" ">
<path fill="none" stroke="#63b8ff" d="M172,-109.75C172,-102.8 172,-92.85 172,-84.13"/>
<polygon fill="#63b8ff" stroke="#63b8ff" points="175.5,-84.09 172,-74.09 168.5,-84.09 175.5,-84.09"/>
</a>
</g>
</g>
<!-- Node6 -->
<g id="Node000006" class="node">
<title>Node6</title>
<g id="a_Node000006"><a xlink:title=" ">
<polygon fill="#e0e0e0" stroke="#999999" points="252,-19 208,-19 208,0 252,0 252,-19"/>
<text text-anchor="middle" x="230" y="-7" font-family="Helvetica,sans-Serif" font-size="10.00">string</text>
</a>
</g>
</g>
<!-- Node4&#45;&gt;Node6 -->
<g id="edge5_Node000004_Node000006" class="edge">
<title>Node4&#45;&gt;Node6</title>
<g id="a_edge5_Node000004_Node000006"><a xlink:title=" ">
<path fill="none" stroke="#63b8ff" d="M181.65,-109.85C190.46,-101.48 203.24,-88.02 211,-74 218.75,-59.98 223.69,-42.43 226.59,-29.33"/>
<polygon fill="#63b8ff" stroke="#63b8ff" points="230.09,-29.67 228.62,-19.17 223.23,-28.29 230.09,-29.67"/>
</a>
</g>
</g>
<!-- Node7 -->
<g id="Node000007" class="node">
<title>Node7</title>
<g id="a_Node000007"><a xlink:title=" ">
<polygon fill="#e0e0e0" stroke="#999999" points="305.5,-74 258.5,-74 258.5,-55 305.5,-55 305.5,-74"/>
<text text-anchor="middle" x="282" y="-62" font-family="Helvetica,sans-Serif" font-size="10.00">vector</text>
</a>
</g>
</g>
<!-- Node4&#45;&gt;Node7 -->
<g id="edge6_Node000004_Node000007" class="edge">
<title>Node4&#45;&gt;Node7</title>
<g id="a_edge6_Node000004_Node000007"><a xlink:title=" ">
<path fill="none" stroke="#63b8ff" d="M189.67,-109.98C207.29,-101.5 234.58,-88.35 254.93,-78.54"/>
<polygon fill="#63b8ff" stroke="#63b8ff" points="256.52,-81.66 264.01,-74.17 253.48,-75.36 256.52,-81.66"/>
</a>
</g>
</g>
<!-- Node8 -->
<g id="Node000008" class="node">
<title>Node8</title>
<g id="a_Node000008"><a xlink:title=" ">
<polygon fill="#e0e0e0" stroke="#999999" points="411,-74 353,-74 353,-55 411,-55 411,-74"/>
<text text-anchor="middle" x="382" y="-62" font-family="Helvetica,sans-Serif" font-size="10.00">memory</text>
</a>
</g>
</g>
<!-- Node4&#45;&gt;Node8 -->
<g id="edge7_Node000004_Node000008" class="edge">
<title>Node4&#45;&gt;Node8</title>
<g id="a_edge7_Node000004_Node000008"><a xlink:title=" ">
<path fill="none" stroke="#63b8ff" d="M205.74,-109.98C243.18,-100.54 303.5,-85.31 342.95,-75.36"/>
<polygon fill="#63b8ff" stroke="#63b8ff" points="343.91,-78.72 352.75,-72.88 342.19,-71.94 343.91,-78.72"/>
</a>
</g>
</g>
<!-- Node9 -->
<g id="Node000009" class="node">
<title>Node9</title>
<g id="a_Node000009"><a xlink:title=" ">
<polygon fill="#e0e0e0" stroke="#999999" points="534,-74 486,-74 486,-55 534,-55 534,-74"/>
<text text-anchor="middle" x="510" y="-62" font-family="Helvetica,sans-Serif" font-size="10.00">mutex</text>
</a>
</g>
</g>
<!-- Node4&#45;&gt;Node9 -->
<g id="edge8_Node000004_Node000009" class="edge">
<title>Node4&#45;&gt;Node9</title>
<g id="a_edge8_Node000004_Node000009"><a xlink:title=" ">
<path fill="none" stroke="#63b8ff" d="M226.31,-109.98C296.58,-98.97 416.94,-80.09 475.7,-70.88"/>
<polygon fill="#63b8ff" stroke="#63b8ff" points="476.59,-74.28 485.93,-69.27 475.51,-67.37 476.59,-74.28"/>
</a>
</g>
</g>
<!-- Node10 -->
<g id="Node000010" class="node">
<title>Node10</title>
<g id="a_Node000010"><a xlink:href="LogSink_8ixx.html" target="_top" xlink:title="Abstract interface for log output destinations.">
<polygon fill="white" stroke="#666666" points="124,-74 0,-74 0,-55 124,-55 124,-74"/>
<text text-anchor="middle" x="62" y="-62" font-family="Helvetica,sans-Serif" font-size="10.00">helios.util.log.LogSink</text>
</a>
</g>
</g>
<!-- Node4&#45;&gt;Node10 -->
<g id="edge9_Node000004_Node000010" class="edge">
<title>Node4&#45;&gt;Node10</title>
<g id="a_edge9_Node000004_Node000010"><a xlink:title=" ">
<path fill="none" stroke="#63b8ff" d="M154.33,-109.98C136.71,-101.5 109.42,-88.35 89.07,-78.54"/>
<polygon fill="#63b8ff" stroke="#63b8ff" points="90.52,-75.36 79.99,-74.17 87.48,-81.66 90.52,-75.36"/>
</a>
</g>
</g>
<!-- Node10&#45;&gt;Node6 -->
<g id="edge10_Node000010_Node000006" class="edge">
<title>Node10&#45;&gt;Node6</title>
<g id="a_edge10_Node000010_Node000006"><a xlink:title=" ">
<path fill="none" stroke="#63b8ff" d="M88.99,-54.98C118.79,-45.58 166.7,-30.47 198.27,-20.51"/>
<polygon fill="#63b8ff" stroke="#63b8ff" points="199.42,-23.82 207.9,-17.47 197.31,-17.14 199.42,-23.82"/>
</a>
</g>
</g>
<!-- Node11&#45;&gt;Node4 -->
<g id="edge18_Node000011_Node000004" class="edge">
<title>Node11&#45;&gt;Node4</title>
<g id="a_edge18_Node000011_Node000004"><a xlink:title=" ">
<path fill="none" stroke="#63b8ff" d="M311.3,-170.49C283.41,-160.49 236.93,-143.8 205.4,-132.49"/>
<polygon fill="#63b8ff" stroke="#63b8ff" points="206.32,-129.1 195.73,-129.02 203.96,-135.69 206.32,-129.1"/>
</a>
</g>
</g>
<!-- Node11&#45;&gt;Node6 -->
<g id="edge12_Node000011_Node000006" class="edge">
<title>Node11&#45;&gt;Node6</title>
<g id="a_edge12_Node000011_Node000006"><a xlink:title=" ">
<path fill="none" stroke="#63b8ff" d="M377.04,-170.44C430.5,-159.21 517.19,-139.67 528,-129 551.88,-105.42 565,-80.34 543,-55 506.9,-13.4 335.03,-9.68 262.46,-10.01"/>
<polygon fill="#63b8ff" stroke="#63b8ff" points="262.07,-6.51 252.1,-10.09 262.12,-13.51 262.07,-6.51"/>
</a>
</g>
</g>
<!-- Node11&#45;&gt;Node7 -->
<g id="edge17_Node000011_Node000007" class="edge">
<title>Node11&#45;&gt;Node7</title>
<g id="a_edge17_Node000011_Node000007"><a xlink:title=" ">
<path fill="none" stroke="#63b8ff" d="M319.58,-170.4C306.04,-161.88 287.26,-147.44 279,-129 272.66,-114.83 274.19,-97.07 276.86,-83.94"/>
<polygon fill="#63b8ff" stroke="#63b8ff" points="280.27,-84.72 279.22,-74.17 273.47,-83.07 280.27,-84.72"/>
</a>
</g>
</g>
<!-- Node11&#45;&gt;Node8 -->
<g id="edge15_Node000011_Node000008" class="edge">
<title>Node11&#45;&gt;Node8</title>
<g id="a_edge15_Node000011_Node000008"><a xlink:title=" ">
<path fill="none" stroke="#63b8ff" d="M383.01,-170.44C425.08,-161.86 481.55,-147.29 495,-129 517.3,-98.66 462.18,-80.86 421.31,-72.16"/>
<polygon fill="#63b8ff" stroke="#63b8ff" points="421.78,-68.68 411.29,-70.14 420.4,-75.55 421.78,-68.68"/>
</a>
</g>
</g>
<!-- Node11&#45;&gt;Node9 -->
<g id="edge16_Node000011_Node000009" class="edge">
<title>Node11&#45;&gt;Node9</title>
<g id="a_edge16_Node000011_Node000009"><a xlink:title=" ">
<path fill="none" stroke="#63b8ff" d="M374.19,-170.48C423.45,-159.38 502.62,-140.09 511,-129 520.54,-116.37 519.07,-97.92 515.93,-84.17"/>
<polygon fill="#63b8ff" stroke="#63b8ff" points="519.25,-83.06 513.23,-74.34 512.5,-84.91 519.25,-83.06"/>
</a>
</g>
</g>
<!-- Node11&#45;&gt;Node10 -->
<g id="edge19_Node000011_Node000010" class="edge">
<title>Node11&#45;&gt;Node10</title>
<g id="a_edge19_Node000011_Node000010"><a xlink:title=" ">
<path fill="none" stroke="#63b8ff" d="M268.84,-170.48C210.06,-161.89 129.48,-147.3 103,-129 86.84,-117.83 75.56,-98.02 68.98,-83.48"/>
<polygon fill="#63b8ff" stroke="#63b8ff" points="72.11,-81.9 65.02,-74.03 65.66,-84.61 72.11,-81.9"/>
</a>
</g>
</g>
<!-- Node12 -->
<g id="Node000012" class="node">
<title>Node12</title>
<g id="a_Node000012"><a xlink:title=" ">
<polygon fill="#e0e0e0" stroke="#999999" points="381.5,-129 288.5,-129 288.5,-110 381.5,-110 381.5,-129"/>
<text text-anchor="middle" x="335" y="-117" font-family="Helvetica,sans-Serif" font-size="10.00">unordered_map</text>
</a>
</g>
</g>
<!-- Node11&#45;&gt;Node12 -->
<g id="edge13_Node000011_Node000012" class="edge">
<title>Node11&#45;&gt;Node12</title>
<g id="a_edge13_Node000011_Node000012"><a xlink:title=" ">
<path fill="none" stroke="#63b8ff" d="M335,-170.37C335,-162.25 335,-149.81 335,-139.39"/>
<polygon fill="#63b8ff" stroke="#63b8ff" points="338.5,-139.17 335,-129.17 331.5,-139.17 338.5,-139.17"/>
</a>
</g>
</g>
<!-- Node13 -->
<g id="Node000013" class="node">
<title>Node13</title>
<g id="a_Node000013"><a xlink:title=" ">
<polygon fill="#e0e0e0" stroke="#999999" points="486,-129 400,-129 400,-110 486,-110 486,-129"/>
<text text-anchor="middle" x="443" y="-117" font-family="Helvetica,sans-Serif" font-size="10.00">unordered_set</text>
</a>
</g>
</g>
<!-- Node11&#45;&gt;Node13 -->
<g id="edge14_Node000011_Node000013" class="edge">
<title>Node11&#45;&gt;Node13</title>
<g id="a_edge14_Node000011_Node000013"><a xlink:title=" ">
<path fill="none" stroke="#63b8ff" d="M350.94,-170.37C368.64,-160.78 397.46,-145.17 418.14,-133.97"/>
<polygon fill="#63b8ff" stroke="#63b8ff" points="419.87,-137.01 427,-129.17 416.54,-130.85 419.87,-137.01"/>
</a>
</g>
</g>
</g>
</svg>
