<?xml version="1.0" encoding="UTF-8" standalone="no"?>
<!DOCTYPE svg PUBLIC "-//W3C//DTD SVG 1.1//EN"
 "http://www.w3.org/Graphics/SVG/1.1/DTD/svg11.dtd">
<!-- Generated by graphviz version 2.43.0 (0)
 -->
<!-- Title: include/ext/opengl/rendering/shader/OpenGLUniformLocationMap.ixx Pages: 1 -->
<svg width="478pt" height="225pt"
 viewBox="0.00 0.00 478.00 225.00" xmlns="http://www.w3.org/2000/svg" xmlns:xlink="http://www.w3.org/1999/xlink">
<g id="graph0" class="graph" transform="scale(1 1) rotate(0) translate(4 221)">
<title>include/ext/opengl/rendering/shader/OpenGLUniformLocationMap.ixx</title>
<!-- Node1 -->
<g id="Node000001" class="node">
<title>Node1</title>
<g id="a_Node000001"><a xlink:title="Maps shader uniform semantics to OpenGL uniform locations.">
<polygon fill="#999999" stroke="#666666" points="235.5,-217 52.5,-217 52.5,-176 235.5,-176 235.5,-217"/>
<text text-anchor="start" x="60.5" y="-205" font-family="Helvetica,sans-Serif" font-size="10.00">include/ext/opengl</text>
<text text-anchor="start" x="60.5" y="-194" font-family="Helvetica,sans-Serif" font-size="10.00">/rendering/shader/OpenGLUniform</text>
<text text-anchor="middle" x="144" y="-183" font-family="Helvetica,sans-Serif" font-size="10.00">LocationMap.ixx</text>
</a>
</g>
</g>
<!-- Node2 -->
<g id="Node000002" class="node">
<title>Node2</title>
<g id="a_Node000002"><a xlink:title=" ">
<polygon fill="#e0e0e0" stroke="#999999" points="42,-134.5 0,-134.5 0,-115.5 42,-115.5 42,-134.5"/>
<text text-anchor="middle" x="21" y="-122.5" font-family="Helvetica,sans-Serif" font-size="10.00">array</text>
</a>
</g>
</g>
<!-- Node1&#45;&gt;Node2 -->
<g id="edge1_Node000001_Node000002" class="edge">
<title>Node1&#45;&gt;Node2</title>
<g id="a_edge1_Node000001_Node000002"><a xlink:title=" ">
<path fill="none" stroke="#63b8ff" d="M109.41,-175.96C88.84,-164.33 63.26,-149.88 44.92,-139.51"/>
<polygon fill="#63b8ff" stroke="#63b8ff" points="46.48,-136.38 36.05,-134.5 43.03,-142.47 46.48,-136.38"/>
</a>
</g>
</g>
<!-- Node3 -->
<g id="Node000003" class="node">
<title>Node3</title>
<g id="a_Node000003"><a xlink:title=" ">
<polygon fill="#e0e0e0" stroke="#999999" points="116,-134.5 60,-134.5 60,-115.5 116,-115.5 116,-134.5"/>
<text text-anchor="middle" x="88" y="-122.5" font-family="Helvetica,sans-Serif" font-size="10.00">optional</text>
</a>
</g>
</g>
<!-- Node1&#45;&gt;Node3 -->
<g id="edge2_Node000001_Node000003" class="edge">
<title>Node1&#45;&gt;Node3</title>
<g id="a_edge2_Node000001_Node000003"><a xlink:title=" ">
<path fill="none" stroke="#63b8ff" d="M128.1,-175.77C119.7,-165.34 109.49,-152.68 101.48,-142.73"/>
<polygon fill="#63b8ff" stroke="#63b8ff" points="104.11,-140.41 95.11,-134.82 98.66,-144.8 104.11,-140.41"/>
</a>
</g>
</g>
<!-- Node4 -->
<g id="Node000004" class="node">
<title>Node4</title>
<g id="a_Node000004"><a xlink:href="Logger_8ixx.html" target="_top" xlink:title="Simple synchronous logger that writes messages to stdout.">
<polygon fill="white" stroke="#666666" points="172.5,-74 53.5,-74 53.5,-55 172.5,-55 172.5,-74"/>
<text text-anchor="middle" x="113" y="-62" font-family="Helvetica,sans-Serif" font-size="10.00">helios.util.log.Logger</text>
</a>
</g>
</g>
<!-- Node1&#45;&gt;Node4 -->
<g id="edge3_Node000001_Node000004" class="edge">
<title>Node1&#45;&gt;Node4</title>
<g id="a_edge3_Node000001_Node000004"><a xlink:title=" ">
<path fill="none" stroke="#63b8ff" d="M139.87,-175.75C136.18,-158.38 130.52,-132.44 125,-110 122.87,-101.35 120.33,-91.8 118.13,-83.77"/>
<polygon fill="#63b8ff" stroke="#63b8ff" points="121.46,-82.7 115.41,-74 114.72,-84.57 121.46,-82.7"/>
</a>
</g>
</g>
<!-- Node7 -->
<g id="Node000007" class="node">
<title>Node7</title>
<g id="a_Node000007"><a xlink:href="LogManager_8ixx.html" target="_top" xlink:title="Central manager for scoped loggers.">
<polygon fill="white" stroke="#666666" points="318,-134.5 172,-134.5 172,-115.5 318,-115.5 318,-134.5"/>
<text text-anchor="middle" x="245" y="-122.5" font-family="Helvetica,sans-Serif" font-size="10.00">helios.util.log.LogManager</text>
</a>
</g>
</g>
<!-- Node1&#45;&gt;Node7 -->
<g id="edge6_Node000001_Node000007" class="edge">
<title>Node1&#45;&gt;Node7</title>
<g id="a_edge6_Node000001_Node000007"><a xlink:title=" ">
<path fill="none" stroke="#63b8ff" d="M172.4,-175.96C188.83,-164.65 209.15,-150.67 224.1,-140.38"/>
<polygon fill="#63b8ff" stroke="#63b8ff" points="226.39,-143.06 232.64,-134.5 222.42,-137.29 226.39,-143.06"/>
</a>
</g>
</g>
<!-- Node11 -->
<g id="Node000011" class="node">
<title>Node11</title>
<g id="a_Node000011"><a xlink:href="UniformSemantics_8ixx.html" target="_top" xlink:title="Definitions of uniform semantics used by shaders.">
<polygon fill="white" stroke="#666666" points="470,-140 336,-140 336,-110 470,-110 470,-140"/>
<text text-anchor="start" x="344" y="-128" font-family="Helvetica,sans-Serif" font-size="10.00">helios.rendering.shader.</text>
<text text-anchor="middle" x="403" y="-117" font-family="Helvetica,sans-Serif" font-size="10.00">UniformSemantics</text>
</a>
</g>
</g>
<!-- Node1&#45;&gt;Node11 -->
<g id="edge12_Node000001_Node000011" class="edge">
<title>Node1&#45;&gt;Node11</title>
<g id="a_edge12_Node000001_Node000011"><a xlink:title=" ">
<path fill="none" stroke="#63b8ff" d="M216.84,-175.96C255.98,-165.45 303.73,-152.64 341.07,-142.62"/>
<polygon fill="#63b8ff" stroke="#63b8ff" points="342.06,-145.98 350.81,-140 340.25,-139.22 342.06,-145.98"/>
</a>
</g>
</g>
<!-- Node5 -->
<g id="Node000005" class="node">
<title>Node5</title>
<g id="a_Node000005"><a xlink:title=" ">
<polygon fill="#e0e0e0" stroke="#999999" points="143,-19 83,-19 83,0 143,0 143,-19"/>
<text text-anchor="middle" x="113" y="-7" font-family="Helvetica,sans-Serif" font-size="10.00">iostream</text>
</a>
</g>
</g>
<!-- Node4&#45;&gt;Node5 -->
<g id="edge4_Node000004_Node000005" class="edge">
<title>Node4&#45;&gt;Node5</title>
<g id="a_edge4_Node000004_Node000005"><a xlink:title=" ">
<path fill="none" stroke="#63b8ff" d="M113,-54.75C113,-47.8 113,-37.85 113,-29.13"/>
<polygon fill="#63b8ff" stroke="#63b8ff" points="116.5,-29.09 113,-19.09 109.5,-29.09 116.5,-29.09"/>
</a>
</g>
</g>
<!-- Node6 -->
<g id="Node000006" class="node">
<title>Node6</title>
<g id="a_Node000006"><a xlink:title=" ">
<polygon fill="#e0e0e0" stroke="#999999" points="214,-19 170,-19 170,0 214,0 214,-19"/>
<text text-anchor="middle" x="192" y="-7" font-family="Helvetica,sans-Serif" font-size="10.00">string</text>
</a>
</g>
</g>
<!-- Node4&#45;&gt;Node6 -->
<g id="edge5_Node000004_Node000006" class="edge">
<title>Node4&#45;&gt;Node6</title>
<g id="a_edge5_Node000004_Node000006"><a xlink:title=" ">
<path fill="none" stroke="#63b8ff" d="M125.69,-54.98C137.83,-46.84 156.36,-34.41 170.75,-24.76"/>
<polygon fill="#63b8ff" stroke="#63b8ff" points="172.72,-27.65 179.08,-19.17 168.82,-21.84 172.72,-27.65"/>
</a>
</g>
</g>
<!-- Node7&#45;&gt;Node4 -->
<g id="edge11_Node000007_Node000004" class="edge">
<title>Node7&#45;&gt;Node4</title>
<g id="a_edge11_Node000007_Node000004"><a xlink:title=" ">
<path fill="none" stroke="#63b8ff" d="M225.81,-115.49C203.61,-105.66 166.88,-89.38 141.38,-78.08"/>
<polygon fill="#63b8ff" stroke="#63b8ff" points="142.78,-74.87 132.22,-74.02 139.94,-81.27 142.78,-74.87"/>
</a>
</g>
</g>
<!-- Node7&#45;&gt;Node6 -->
<g id="edge7_Node000007_Node000006" class="edge">
<title>Node7&#45;&gt;Node6</title>
<g id="a_edge7_Node000007_Node000006"><a xlink:title=" ">
<path fill="none" stroke="#63b8ff" d="M240.7,-115.17C235.86,-105.2 227.78,-88.48 221,-74 213.85,-58.74 205.91,-41.32 200.15,-28.59"/>
<polygon fill="#63b8ff" stroke="#63b8ff" points="203.19,-26.82 195.89,-19.15 196.81,-29.71 203.19,-26.82"/>
</a>
</g>
</g>
<!-- Node8 -->
<g id="Node000008" class="node">
<title>Node8</title>
<g id="a_Node000008"><a xlink:title=" ">
<polygon fill="#e0e0e0" stroke="#999999" points="322.5,-74 229.5,-74 229.5,-55 322.5,-55 322.5,-74"/>
<text text-anchor="middle" x="276" y="-62" font-family="Helvetica,sans-Serif" font-size="10.00">unordered_map</text>
</a>
</g>
</g>
<!-- Node7&#45;&gt;Node8 -->
<g id="edge8_Node000007_Node000008" class="edge">
<title>Node7&#45;&gt;Node8</title>
<g id="a_edge8_Node000007_Node000008"><a xlink:title=" ">
<path fill="none" stroke="#63b8ff" d="M249.57,-115.37C254.06,-106.9 261.03,-93.74 266.69,-83.07"/>
<polygon fill="#63b8ff" stroke="#63b8ff" points="269.82,-84.64 271.41,-74.17 263.63,-81.36 269.82,-84.64"/>
</a>
</g>
</g>
<!-- Node9 -->
<g id="Node000009" class="node">
<title>Node9</title>
<g id="a_Node000009"><a xlink:title=" ">
<polygon fill="#e0e0e0" stroke="#999999" points="399,-74 341,-74 341,-55 399,-55 399,-74"/>
<text text-anchor="middle" x="370" y="-62" font-family="Helvetica,sans-Serif" font-size="10.00">memory</text>
</a>
</g>
</g>
<!-- Node7&#45;&gt;Node9 -->
<g id="edge9_Node000007_Node000009" class="edge">
<title>Node7&#45;&gt;Node9</title>
<g id="a_edge9_Node000007_Node000009"><a xlink:title=" ">
<path fill="none" stroke="#63b8ff" d="M263.18,-115.49C284.01,-105.75 318.37,-89.66 342.48,-78.38"/>
<polygon fill="#63b8ff" stroke="#63b8ff" points="344.23,-81.43 351.8,-74.02 341.26,-75.09 344.23,-81.43"/>
</a>
</g>
</g>
<!-- Node10 -->
<g id="Node000010" class="node">
<title>Node10</title>
<g id="a_Node000010"><a xlink:title=" ">
<polygon fill="#e0e0e0" stroke="#999999" points="465,-74 417,-74 417,-55 465,-55 465,-74"/>
<text text-anchor="middle" x="441" y="-62" font-family="Helvetica,sans-Serif" font-size="10.00">mutex</text>
</a>
</g>
</g>
<!-- Node7&#45;&gt;Node10 -->
<g id="edge10_Node000007_Node000010" class="edge">
<title>Node7&#45;&gt;Node10</title>
<g id="a_edge10_Node000007_Node000010"><a xlink:title=" ">
<path fill="none" stroke="#63b8ff" d="M273.5,-115.49C308.83,-104.95 368.97,-87 406.76,-75.72"/>
<polygon fill="#63b8ff" stroke="#63b8ff" points="408.21,-78.94 416.79,-72.73 406.21,-72.23 408.21,-78.94"/>
</a>
</g>
</g>
</g>
</svg>
