<?xml version="1.0" encoding="UTF-8" standalone="no"?>
<!DOCTYPE svg PUBLIC "-//W3C//DTD SVG 1.1//EN"
 "http://www.w3.org/Graphics/SVG/1.1/DTD/svg11.dtd">
<!-- Generated by graphviz version 2.43.0 (0)
 -->
<!-- Title: PassCommitListener.ixx Pages: 1 -->
<!--zoomable 467 -->

<svg id="main" version="1.1" xmlns="http://www.w3.org/2000/svg" xmlns:xlink="http://www.w3.org/1999/xlink" xml:space="preserve" onload="init(evt)">

<style type="text/css"><![CDATA[
.node, .edge {opacity: 0.7;}
.node.selected, .edge.selected {opacity: 1;}
.edge:hover path { stroke: red; }
.edge:hover polygon { stroke: red; fill: red; }
]]></style>

<defs>
  <circle id="rim" cx="0" cy="0" r="7"/>
  <circle id="rim2" cx="0" cy="0" r="3.5"/>
  <g id="zoomPlus">
    <use xlink:href="#rim" fill="#404040"><set attributeName="fill" to="#808080" begin="zoomplus.mouseover" end="zoomplus.mouseout"/></use>
    <path d="M-4,0h8M0,-4v8" fill="none" stroke="white" stroke-width="1.5" pointer-events="none"/>
  </g>
  <g id="zoomMin">
    <use xlink:href="#rim" fill="#404040"><set attributeName="fill" to="#808080" begin="zoomminus.mouseover" end="zoomminus.mouseout"/></use>
    <path d="M-4,0h8" fill="none" stroke="white" stroke-width="1.5" pointer-events="none"/>
  </g>
  <g id="arrowUp" transform="translate(30 24)">
    <use xlink:href="#rim"/>
    <path pointer-events="none" fill="none" stroke="white" stroke-width="1.5" d="M0,-3.0v7 M-2.5,-0.5L0,-3.0L2.5,-0.5"/>
  </g>
  <g id="arrowRight" transform="rotate(90) translate(36 -43)">
    <use xlink:href="#rim"/>
    <path pointer-events="none" fill="none" stroke="white" stroke-width="1.5" d="M0,-3.0v7 M-2.5,-0.5L0,-3.0L2.5,-0.5"/>
  </g>
  <g id="arrowDown" transform="rotate(180) translate(-30 -48)">
    <use xlink:href="#rim"/>
    <path pointer-events="none" fill="none" stroke="white" stroke-width="1.5" d="M0,-3.0v7 M-2.5,-0.5L0,-3.0L2.5,-0.5"/>
  </g>
  <g id="arrowLeft" transform="rotate(270) translate(-36 17)">
    <use xlink:href="#rim"/>
    <path pointer-events="none" fill="none" stroke="white" stroke-width="1.5" d="M0,-3.0v7 M-2.5,-0.5L0,-3.0L2.5,-0.5"/>
  </g>
  <g id="resetDef">
    <use xlink:href="#rim2" fill="#404040"><set attributeName="fill" to="#808080" begin="reset.mouseover" end="reset.mouseout"/></use>
  </g>
</defs>
<script type="application/ecmascript">
var viewWidth = 2061;
var viewHeight = 467;
var sectionId = 'dynsection-0';
</script>
<script type="application/ecmascript" xlink:href="svg.min.js"/>
<svg id="graph" class="graph">
<g id="viewport">
<title>PassCommitListener.ixx</title>
<!-- Node1 -->
<g id="Node000001" class="node">
<title>Node1</title>
<g id="a_Node000001"><a xlink:title="Interface for listeners notified when a pass commits its state.">
<polygon fill="#999999" stroke="#666666" points="1637,-459 1503,-459 1503,-440 1637,-440 1637,-459"/>
<text text-anchor="middle" x="1570" y="-447" font-family="Helvetica,sans-Serif" font-size="10.00">PassCommitListener.ixx</text>
</a>
</g>
</g>
<!-- Node2 -->
<g id="Node000002" class="node">
<title>Node2</title>
<g id="a_Node000002"><a xlink:href="UpdateContext_8ixx.html" target="_top" xlink:title="Context struct passed to components during per&#45;frame updates.">
<polygon fill="white" stroke="#666666" points="1254,-404 1098,-404 1098,-374 1254,-374 1254,-404"/>
<text text-anchor="start" x="1106" y="-392" font-family="Helvetica,sans-Serif" font-size="10.00">helios.engine.runtime.world.</text>
<text text-anchor="middle" x="1176" y="-381" font-family="Helvetica,sans-Serif" font-size="10.00">UpdateContext</text>
</a>
</g>
</g>
<!-- Node1&#45;&gt;Node2 -->
<g id="edge1_Node000001_Node000002" class="edge">
<title>Node1&#45;&gt;Node2</title>
<g id="a_edge1_Node000001_Node000002"><a xlink:title=" ">
<path fill="none" stroke="#63b8ff" d="M1512.71,-439.99C1447.45,-430.3 1340.05,-414.36 1264.11,-403.08"/>
<polygon fill="#63b8ff" stroke="#63b8ff" points="1264.49,-399.6 1254.08,-401.59 1263.46,-406.52 1264.49,-399.6"/>
</a>
</g>
</g>
<!-- Node36 -->
<g id="Node000036" class="node">
<title>Node36</title>
<g id="a_Node000036"><a xlink:href="CommitPoint_8ixx.html" target="_top" xlink:title="Defines commit points for synchronization within the game loop.">
<polygon fill="white" stroke="#666666" points="2053,-404 1875,-404 1875,-374 2053,-374 2053,-404"/>
<text text-anchor="start" x="1883" y="-392" font-family="Helvetica,sans-Serif" font-size="10.00">helios.engine.runtime.gameloop.</text>
<text text-anchor="middle" x="1964" y="-381" font-family="Helvetica,sans-Serif" font-size="10.00">CommitPoint</text>
</a>
</g>
</g>
<!-- Node1&#45;&gt;Node36 -->
<g id="edge64_Node000001_Node000036" class="edge">
<title>Node1&#45;&gt;Node36</title>
<g id="a_edge64_Node000001_Node000036"><a xlink:title=" ">
<path fill="none" stroke="#63b8ff" d="M1627.29,-439.99C1689.49,-430.76 1789.96,-415.84 1864.99,-404.7"/>
<polygon fill="#63b8ff" stroke="#63b8ff" points="1865.56,-408.15 1874.94,-403.22 1864.53,-401.23 1865.56,-408.15"/>
</a>
</g>
</g>
<!-- Node3 -->
<g id="Node000003" class="node">
<title>Node3</title>
<g id="a_Node000003"><a xlink:title=" ">
<polygon fill="#e0e0e0" stroke="#999999" points="191,-19 151,-19 151,0 191,0 191,-19"/>
<text text-anchor="middle" x="171" y="-7" font-family="Helvetica,sans-Serif" font-size="10.00">span</text>
</a>
</g>
</g>
<!-- Node2&#45;&gt;Node3 -->
<g id="edge2_Node000002_Node000003" class="edge">
<title>Node2&#45;&gt;Node3</title>
<g id="a_edge2_Node000002_Node000003"><a xlink:title=" ">
<path fill="none" stroke="#63b8ff" d="M1097.93,-387.59C835.27,-385.17 0,-368.79 0,-258 0,-258 0,-258 0,-124 0,-57.28 91.5,-27.44 140.63,-16.22"/>
<polygon fill="#63b8ff" stroke="#63b8ff" points="141.68,-19.58 150.71,-14.05 140.2,-12.74 141.68,-19.58"/>
</a>
</g>
</g>
<!-- Node4 -->
<g id="Node000004" class="node">
<title>Node4</title>
<g id="a_Node000004"><a xlink:href="GameLoopEventBus_8ixx.html" target="_top" xlink:title="Type&#45;safe event bus for inter&#45;system communication within the game loop.">
<polygon fill="white" stroke="#666666" points="767.5,-338 554.5,-338 554.5,-308 767.5,-308 767.5,-338"/>
<text text-anchor="start" x="562.5" y="-326" font-family="Helvetica,sans-Serif" font-size="10.00">helios.engine.runtime.messaging.event.</text>
<text text-anchor="middle" x="661" y="-315" font-family="Helvetica,sans-Serif" font-size="10.00">GameLoopEventBus</text>
</a>
</g>
</g>
<!-- Node2&#45;&gt;Node4 -->
<g id="edge3_Node000002_Node000004" class="edge">
<title>Node2&#45;&gt;Node4</title>
<g id="a_edge3_Node000002_Node000004"><a xlink:title=" ">
<path fill="none" stroke="#63b8ff" d="M1097.78,-378.28C1012.63,-367.7 875.56,-350.66 777.68,-338.5"/>
<polygon fill="#63b8ff" stroke="#63b8ff" points="778.1,-335.03 767.74,-337.27 777.23,-341.97 778.1,-335.03"/>
</a>
</g>
</g>
<!-- Node14 -->
<g id="Node000014" class="node">
<title>Node14</title>
<g id="a_Node000014"><a xlink:href="ViewportSnapshot_8ixx.html" target="_top" xlink:title="Immutable snapshot of viewport state for frame&#45;consistent rendering.">
<polygon fill="white" stroke="#666666" points="1667,-338 1525,-338 1525,-308 1667,-308 1667,-338"/>
<text text-anchor="start" x="1533" y="-326" font-family="Helvetica,sans-Serif" font-size="10.00">helios.rendering.Viewport</text>
<text text-anchor="middle" x="1596" y="-315" font-family="Helvetica,sans-Serif" font-size="10.00">Snapshot</text>
</a>
</g>
</g>
<!-- Node2&#45;&gt;Node14 -->
<g id="edge28_Node000002_Node000014" class="edge">
<title>Node2&#45;&gt;Node14</title>
<g id="a_edge28_Node000002_Node000014"><a xlink:title=" ">
<path fill="none" stroke="#63b8ff" d="M1254.01,-376.11C1328.25,-364.8 1439.51,-347.85 1514.79,-336.38"/>
<polygon fill="#63b8ff" stroke="#63b8ff" points="1515.34,-339.83 1524.7,-334.86 1514.29,-332.91 1515.34,-339.83"/>
</a>
</g>
</g>
<!-- Node22 -->
<g id="Node000022" class="node">
<title>Node22</title>
<g id="a_Node000022"><a xlink:href="InputSnapshot_8ixx.html" target="_top" xlink:title="Immutable snapshot of input state at a specific point in time.">
<polygon fill="white" stroke="#666666" points="1249,-332.5 1103,-332.5 1103,-313.5 1249,-313.5 1249,-332.5"/>
<text text-anchor="middle" x="1176" y="-320.5" font-family="Helvetica,sans-Serif" font-size="10.00">helios.input.InputSnapshot</text>
</a>
</g>
</g>
<!-- Node2&#45;&gt;Node22 -->
<g id="edge39_Node000002_Node000022" class="edge">
<title>Node2&#45;&gt;Node22</title>
<g id="a_edge39_Node000002_Node000022"><a xlink:title=" ">
<path fill="none" stroke="#63b8ff" d="M1176,-373.8C1176,-364.7 1176,-352.79 1176,-342.9"/>
<polygon fill="#63b8ff" stroke="#63b8ff" points="1179.5,-342.84 1176,-332.84 1172.5,-342.84 1179.5,-342.84"/>
</a>
</g>
</g>
<!-- Node5 -->
<g id="Node000005" class="node">
<title>Node5</title>
<g id="a_Node000005"><a xlink:href="TypeIndexedDoubleBuffer_8ixx.html" target="_top" xlink:title="Double&#45;buffered, type&#45;indexed message system for decoupled inter&#45;system communication.">
<polygon fill="white" stroke="#666666" points="522,-272 358,-272 358,-242 522,-242 522,-272"/>
<text text-anchor="start" x="366" y="-260" font-family="Helvetica,sans-Serif" font-size="10.00">helios.core.buffer.TypeIndexed</text>
<text text-anchor="middle" x="440" y="-249" font-family="Helvetica,sans-Serif" font-size="10.00">DoubleBuffer</text>
</a>
</g>
</g>
<!-- Node4&#45;&gt;Node5 -->
<g id="edge4_Node000004_Node000005" class="edge">
<title>Node4&#45;&gt;Node5</title>
<g id="a_edge4_Node000004_Node000005"><a xlink:title=" ">
<path fill="none" stroke="#63b8ff" d="M612.5,-307.95C578.82,-298.2 533.78,-285.16 498.16,-274.84"/>
<polygon fill="#63b8ff" stroke="#63b8ff" points="498.97,-271.43 488.39,-272.01 497.02,-278.16 498.97,-271.43"/>
</a>
</g>
</g>
<!-- Node12 -->
<g id="Node000012" class="node">
<title>Node12</title>
<g id="a_Node000012"><a xlink:href="TypeIndexer_8ixx.html" target="_top" xlink:title="Utility for generating unique type indices at runtime.">
<polygon fill="white" stroke="#666666" points="739,-200.5 583,-200.5 583,-181.5 739,-181.5 739,-200.5"/>
<text text-anchor="middle" x="661" y="-188.5" font-family="Helvetica,sans-Serif" font-size="10.00">helios.core.data.TypeIndexer</text>
</a>
</g>
</g>
<!-- Node4&#45;&gt;Node12 -->
<g id="edge27_Node000004_Node000012" class="edge">
<title>Node4&#45;&gt;Node12</title>
<g id="a_edge27_Node000004_Node000012"><a xlink:title=" ">
<path fill="none" stroke="#63b8ff" d="M661,-307.84C661,-284.34 661,-237.26 661,-210.93"/>
<polygon fill="#63b8ff" stroke="#63b8ff" points="664.5,-210.75 661,-200.75 657.5,-210.75 664.5,-210.75"/>
</a>
</g>
</g>
<!-- Node5&#45;&gt;Node3 -->
<g id="edge6_Node000005_Node000003" class="edge">
<title>Node5&#45;&gt;Node3</title>
<g id="a_edge6_Node000005_Node000003"><a xlink:title=" ">
<path fill="none" stroke="#63b8ff" d="M357.66,-251.07C276.93,-244.82 160.8,-231.63 124,-206 66.94,-166.25 46.57,-114.24 83,-55 95.58,-34.54 120.8,-23.14 141.03,-17.02"/>
<polygon fill="#63b8ff" stroke="#63b8ff" points="142.05,-20.36 150.77,-14.34 140.2,-13.61 142.05,-20.36"/>
</a>
</g>
</g>
<!-- Node6 -->
<g id="Node000006" class="node">
<title>Node6</title>
<g id="a_Node000006"><a xlink:title=" ">
<polygon fill="#e0e0e0" stroke="#999999" points="580,-74 522,-74 522,-55 580,-55 580,-74"/>
<text text-anchor="middle" x="551" y="-62" font-family="Helvetica,sans-Serif" font-size="10.00">memory</text>
</a>
</g>
</g>
<!-- Node5&#45;&gt;Node6 -->
<g id="edge5_Node000005_Node000006" class="edge">
<title>Node5&#45;&gt;Node6</title>
<g id="a_edge5_Node000005_Node000006"><a xlink:title=" ">
<path fill="none" stroke="#63b8ff" d="M456.59,-241.76C478.96,-221.55 518.25,-182.28 538,-140 546.24,-122.37 549.29,-100.18 550.41,-84.62"/>
<polygon fill="#63b8ff" stroke="#63b8ff" points="553.93,-84.37 550.93,-74.2 546.93,-84.01 553.93,-84.37"/>
</a>
</g>
</g>
<!-- Node7 -->
<g id="Node000007" class="node">
<title>Node7</title>
<g id="a_Node000007"><a xlink:title=" ">
<polygon fill="#e0e0e0" stroke="#999999" points="458.5,-19 411.5,-19 411.5,0 458.5,0 458.5,-19"/>
<text text-anchor="middle" x="435" y="-7" font-family="Helvetica,sans-Serif" font-size="10.00">vector</text>
</a>
</g>
</g>
<!-- Node5&#45;&gt;Node7 -->
<g id="edge7_Node000005_Node000007" class="edge">
<title>Node5&#45;&gt;Node7</title>
<g id="a_edge7_Node000005_Node000007"><a xlink:title=" ">
<path fill="none" stroke="#63b8ff" d="M469.47,-241.83C485.49,-233.1 504.84,-220.76 519,-206 570.2,-152.61 633.46,-114.12 589,-55 574.58,-35.82 509.68,-22.28 468.87,-15.49"/>
<polygon fill="#63b8ff" stroke="#63b8ff" points="469.24,-12.01 458.81,-13.87 468.13,-18.92 469.24,-12.01"/>
</a>
</g>
</g>
<!-- Node8 -->
<g id="Node000008" class="node">
<title>Node8</title>
<g id="a_Node000008"><a xlink:href="ReadBuffer_8ixx.html" target="_top" xlink:title="Read&#45;only buffer for the double&#45;buffering pattern.">
<polygon fill="white" stroke="#666666" points="250,-74 92,-74 92,-55 250,-55 250,-74"/>
<text text-anchor="middle" x="171" y="-62" font-family="Helvetica,sans-Serif" font-size="10.00">helios.core.buffer.ReadBuffer</text>
</a>
</g>
</g>
<!-- Node5&#45;&gt;Node8 -->
<g id="edge8_Node000005_Node000008" class="edge">
<title>Node5&#45;&gt;Node8</title>
<g id="a_edge8_Node000005_Node000008"><a xlink:title=" ">
<path fill="none" stroke="#63b8ff" d="M357.91,-244.82C312.67,-237.05 256.11,-224.68 208,-206 153.78,-184.94 123.95,-190.44 95,-140 88.36,-128.44 88.37,-121.57 95,-110 103.36,-95.42 118.55,-85.16 133.17,-78.19"/>
<polygon fill="#63b8ff" stroke="#63b8ff" points="134.84,-81.28 142.61,-74.08 132.05,-74.86 134.84,-81.28"/>
</a>
</g>
</g>
<!-- Node9 -->
<g id="Node000009" class="node">
<title>Node9</title>
<g id="a_Node000009"><a xlink:href="WriteBuffer_8ixx.html" target="_top" xlink:title="Write&#45;only buffer for the double&#45;buffering pattern.">
<polygon fill="white" stroke="#666666" points="234,-140 104,-140 104,-110 234,-110 234,-140"/>
<text text-anchor="start" x="112" y="-128" font-family="Helvetica,sans-Serif" font-size="10.00">helios.core.buffer.Write</text>
<text text-anchor="middle" x="169" y="-117" font-family="Helvetica,sans-Serif" font-size="10.00">Buffer</text>
</a>
</g>
</g>
<!-- Node5&#45;&gt;Node9 -->
<g id="edge11_Node000005_Node000009" class="edge">
<title>Node5&#45;&gt;Node9</title>
<g id="a_edge11_Node000005_Node000009"><a xlink:title=" ">
<path fill="none" stroke="#63b8ff" d="M357.81,-244.9C322.03,-237.57 280.68,-225.54 247,-206 221.91,-191.44 199.52,-166.6 185.23,-148.45"/>
<polygon fill="#63b8ff" stroke="#63b8ff" points="187.75,-145.97 178.9,-140.15 182.19,-150.22 187.75,-145.97"/>
</a>
</g>
</g>
<!-- Node10 -->
<g id="Node000010" class="node">
<title>Node10</title>
<g id="a_Node000010"><a xlink:href="ReadWriteDoubleBuffer_8ixx.html" target="_top" xlink:title="Type&#45;safe double&#45;buffered container for producer&#45;consumer patterns.">
<polygon fill="white" stroke="#666666" points="411.5,-206 256.5,-206 256.5,-176 411.5,-176 411.5,-206"/>
<text text-anchor="start" x="264.5" y="-194" font-family="Helvetica,sans-Serif" font-size="10.00">helios.core.buffer.ReadWrite</text>
<text text-anchor="middle" x="334" y="-183" font-family="Helvetica,sans-Serif" font-size="10.00">DoubleBuffer</text>
</a>
</g>
</g>
<!-- Node5&#45;&gt;Node10 -->
<g id="edge14_Node000005_Node000010" class="edge">
<title>Node5&#45;&gt;Node10</title>
<g id="a_edge14_Node000005_Node000010"><a xlink:title=" ">
<path fill="none" stroke="#63b8ff" d="M416.74,-241.95C401.83,-232.95 382.27,-221.14 365.91,-211.27"/>
<polygon fill="#63b8ff" stroke="#63b8ff" points="367.58,-208.18 357.21,-206.01 363.96,-214.18 367.58,-208.18"/>
</a>
</g>
</g>
<!-- Node11 -->
<g id="Node000011" class="node">
<title>Node11</title>
<g id="a_Node000011"><a xlink:href="DoubleBuffer_8ixx.html" target="_top" xlink:title="Double&#45;buffered, type&#45;indexed message system for decoupled inter&#45;system communication.">
<polygon fill="white" stroke="#666666" points="504,-140 366,-140 366,-110 504,-110 504,-140"/>
<text text-anchor="start" x="374" y="-128" font-family="Helvetica,sans-Serif" font-size="10.00">helios.core.buffer.Double</text>
<text text-anchor="middle" x="435" y="-117" font-family="Helvetica,sans-Serif" font-size="10.00">Buffer</text>
</a>
</g>
</g>
<!-- Node5&#45;&gt;Node11 -->
<g id="edge24_Node000005_Node000011" class="edge">
<title>Node5&#45;&gt;Node11</title>
<g id="a_edge24_Node000005_Node000011"><a xlink:title=" ">
<path fill="none" stroke="#63b8ff" d="M439.46,-241.84C438.61,-219.86 436.97,-177.27 435.93,-150.3"/>
<polygon fill="#63b8ff" stroke="#63b8ff" points="439.43,-150 435.54,-140.14 432.43,-150.27 439.43,-150"/>
</a>
</g>
</g>
<!-- Node5&#45;&gt;Node12 -->
<g id="edge25_Node000005_Node000012" class="edge">
<title>Node5&#45;&gt;Node12</title>
<g id="a_edge25_Node000005_Node000012"><a xlink:title=" ">
<path fill="none" stroke="#63b8ff" d="M488.5,-241.95C528.45,-230.38 584.39,-214.18 621.62,-203.41"/>
<polygon fill="#63b8ff" stroke="#63b8ff" points="622.96,-206.66 631.59,-200.52 621.01,-199.94 622.96,-206.66"/>
</a>
</g>
</g>
<!-- Node8&#45;&gt;Node3 -->
<g id="edge9_Node000008_Node000003" class="edge">
<title>Node8&#45;&gt;Node3</title>
<g id="a_edge9_Node000008_Node000003"><a xlink:title=" ">
<path fill="none" stroke="#63b8ff" d="M171,-54.75C171,-47.8 171,-37.85 171,-29.13"/>
<polygon fill="#63b8ff" stroke="#63b8ff" points="174.5,-29.09 171,-19.09 167.5,-29.09 174.5,-29.09"/>
</a>
</g>
</g>
<!-- Node8&#45;&gt;Node7 -->
<g id="edge10_Node000008_Node000007" class="edge">
<title>Node8&#45;&gt;Node7</title>
<g id="a_edge10_Node000008_Node000007"><a xlink:title=" ">
<path fill="none" stroke="#63b8ff" d="M213.42,-54.98C265.7,-44.49 353.47,-26.87 401.36,-17.25"/>
<polygon fill="#63b8ff" stroke="#63b8ff" points="402.11,-20.67 411.22,-15.27 400.73,-13.81 402.11,-20.67"/>
</a>
</g>
</g>
<!-- Node9&#45;&gt;Node7 -->
<g id="edge12_Node000009_Node000007" class="edge">
<title>Node9&#45;&gt;Node7</title>
<g id="a_edge12_Node000009_Node000007"><a xlink:title=" ">
<path fill="none" stroke="#63b8ff" d="M201.88,-109.97C254.14,-87.67 355.34,-44.49 405.43,-23.12"/>
<polygon fill="#63b8ff" stroke="#63b8ff" points="406.92,-26.29 414.74,-19.14 404.17,-19.85 406.92,-26.29"/>
</a>
</g>
</g>
<!-- Node9&#45;&gt;Node8 -->
<g id="edge13_Node000009_Node000008" class="edge">
<title>Node9&#45;&gt;Node8</title>
<g id="a_edge13_Node000009_Node000008"><a xlink:title=" ">
<path fill="none" stroke="#63b8ff" d="M169.48,-109.84C169.74,-102.21 170.07,-92.7 170.35,-84.45"/>
<polygon fill="#63b8ff" stroke="#63b8ff" points="173.86,-84.38 170.7,-74.27 166.86,-84.14 173.86,-84.38"/>
</a>
</g>
</g>
<!-- Node10&#45;&gt;Node3 -->
<g id="edge16_Node000010_Node000003" class="edge">
<title>Node10&#45;&gt;Node3</title>
<g id="a_edge16_Node000010_Node000003"><a xlink:title=" ">
<path fill="none" stroke="#63b8ff" d="M329.24,-175.6C319.74,-148.78 296.1,-90.69 259,-55 242.47,-39.11 219.15,-27.66 200.67,-20.36"/>
<polygon fill="#63b8ff" stroke="#63b8ff" points="201.84,-17.06 191.24,-16.83 199.38,-23.62 201.84,-17.06"/>
</a>
</g>
</g>
<!-- Node10&#45;&gt;Node6 -->
<g id="edge15_Node000010_Node000006" class="edge">
<title>Node10&#45;&gt;Node6</title>
<g id="a_edge15_Node000010_Node000006"><a xlink:title=" ">
<path fill="none" stroke="#63b8ff" d="M411.85,-182.42C445.92,-175.76 484.53,-163.29 513,-140 530.51,-125.67 540.79,-101.17 546.15,-84.2"/>
<polygon fill="#63b8ff" stroke="#63b8ff" points="549.59,-84.9 548.98,-74.32 542.86,-82.96 549.59,-84.9"/>
</a>
</g>
</g>
<!-- Node10&#45;&gt;Node7 -->
<g id="edge17_Node000010_Node000007" class="edge">
<title>Node10&#45;&gt;Node7</title>
<g id="a_edge17_Node000010_Node000007"><a xlink:title=" ">
<path fill="none" stroke="#63b8ff" d="M336.37,-175.8C339.5,-159.32 345.95,-131.62 357,-110 373.7,-77.31 401.87,-44.86 419.4,-26.3"/>
<polygon fill="#63b8ff" stroke="#63b8ff" points="422,-28.64 426.41,-19.01 416.95,-23.79 422,-28.64"/>
</a>
</g>
</g>
<!-- Node10&#45;&gt;Node8 -->
<g id="edge19_Node000010_Node000008" class="edge">
<title>Node10&#45;&gt;Node8</title>
<g id="a_edge19_Node000010_Node000008"><a xlink:title=" ">
<path fill="none" stroke="#63b8ff" d="M319.51,-175.89C302.08,-159.24 271.57,-131.16 243,-110 227.79,-98.74 209.66,-87.54 195.4,-79.2"/>
<polygon fill="#63b8ff" stroke="#63b8ff" points="197.07,-76.12 186.66,-74.16 193.57,-82.19 197.07,-76.12"/>
</a>
</g>
</g>
<!-- Node10&#45;&gt;Node9 -->
<g id="edge18_Node000010_Node000009" class="edge">
<title>Node10&#45;&gt;Node9</title>
<g id="a_edge18_Node000010_Node000009"><a xlink:title=" ">
<path fill="none" stroke="#63b8ff" d="M297.79,-175.95C273.29,-166.45 240.73,-153.82 214.48,-143.64"/>
<polygon fill="#63b8ff" stroke="#63b8ff" points="215.71,-140.37 205.13,-140.01 213.18,-146.89 215.71,-140.37"/>
</a>
</g>
</g>
<!-- Node10&#45;&gt;Node11 -->
<g id="edge20_Node000010_Node000011" class="edge">
<title>Node10&#45;&gt;Node11</title>
<g id="a_edge20_Node000010_Node000011"><a xlink:title=" ">
<path fill="none" stroke="#63b8ff" d="M356.42,-175.8C370.41,-166.93 388.62,-155.39 403.98,-145.66"/>
<polygon fill="#63b8ff" stroke="#63b8ff" points="406.07,-148.47 412.65,-140.16 402.33,-142.56 406.07,-148.47"/>
</a>
</g>
</g>
<!-- Node11&#45;&gt;Node3 -->
<g id="edge22_Node000011_Node000003" class="edge">
<title>Node11&#45;&gt;Node3</title>
<g id="a_edge22_Node000011_Node000003"><a xlink:title=" ">
<path fill="none" stroke="#63b8ff" d="M408.84,-109.99C381.02,-95.36 335.54,-72.2 295,-55 263.35,-41.57 226.13,-28.58 200.78,-20.13"/>
<polygon fill="#63b8ff" stroke="#63b8ff" points="201.62,-16.72 191.03,-16.91 199.42,-23.37 201.62,-16.72"/>
</a>
</g>
</g>
<!-- Node11&#45;&gt;Node6 -->
<g id="edge21_Node000011_Node000006" class="edge">
<title>Node11&#45;&gt;Node6</title>
<g id="a_edge21_Node000011_Node000006"><a xlink:title=" ">
<path fill="none" stroke="#63b8ff" d="M462.78,-109.99C481.62,-100.49 506.35,-88.02 524.84,-78.69"/>
<polygon fill="#63b8ff" stroke="#63b8ff" points="526.52,-81.77 533.87,-74.14 523.36,-75.52 526.52,-81.77"/>
</a>
</g>
</g>
<!-- Node11&#45;&gt;Node7 -->
<g id="edge23_Node000011_Node000007" class="edge">
<title>Node11&#45;&gt;Node7</title>
<g id="a_edge23_Node000011_Node000007"><a xlink:title=" ">
<path fill="none" stroke="#63b8ff" d="M435,-109.63C435,-89.21 435,-51.81 435,-29.24"/>
<polygon fill="#63b8ff" stroke="#63b8ff" points="438.5,-29.23 435,-19.23 431.5,-29.23 438.5,-29.23"/>
</a>
</g>
</g>
<!-- Node13 -->
<g id="Node000013" class="node">
<title>Node13</title>
<g id="a_Node000013"><a xlink:title=" ">
<polygon fill="#e0e0e0" stroke="#999999" points="686,-134.5 636,-134.5 636,-115.5 686,-115.5 686,-134.5"/>
<text text-anchor="middle" x="661" y="-122.5" font-family="Helvetica,sans-Serif" font-size="10.00">atomic</text>
</a>
</g>
</g>
<!-- Node12&#45;&gt;Node13 -->
<g id="edge26_Node000012_Node000013" class="edge">
<title>Node12&#45;&gt;Node13</title>
<g id="a_edge26_Node000012_Node000013"><a xlink:title=" ">
<path fill="none" stroke="#63b8ff" d="M661,-181.37C661,-172.16 661,-157.29 661,-145.27"/>
<polygon fill="#63b8ff" stroke="#63b8ff" points="664.5,-144.91 661,-134.91 657.5,-144.91 664.5,-144.91"/>
</a>
</g>
</g>
<!-- Node15 -->
<g id="Node000015" class="node">
<title>Node15</title>
<g id="a_Node000015"><a xlink:href="types_8ixx.html" target="_top" xlink:title="Core type definitions and tag types for the helios engine.">
<polygon fill="white" stroke="#666666" points="1936,-200.5 1836,-200.5 1836,-181.5 1936,-181.5 1936,-200.5"/>
<text text-anchor="middle" x="1886" y="-188.5" font-family="Helvetica,sans-Serif" font-size="10.00">helios.core.types</text>
</a>
</g>
</g>
<!-- Node14&#45;&gt;Node15 -->
<g id="edge29_Node000014_Node000015" class="edge">
<title>Node14&#45;&gt;Node15</title>
<g id="a_edge29_Node000014_Node000015"><a xlink:title=" ">
<path fill="none" stroke="#63b8ff" d="M1667.22,-312.11C1705.98,-304.75 1753.87,-292.35 1793,-272 1824.63,-255.56 1854.65,-226.42 1871.65,-208.22"/>
<polygon fill="#63b8ff" stroke="#63b8ff" points="1874.35,-210.45 1878.5,-200.71 1869.18,-205.73 1874.35,-210.45"/>
</a>
</g>
</g>
<!-- Node16 -->
<g id="Node000016" class="node">
<title>Node16</title>
<g id="a_Node000016"><a xlink:href="helios_2math_2types_2__module_8ixx.html" target="_top" xlink:title="Module exports for vector and matrix type definitions.">
<polygon fill="white" stroke="#666666" points="1527,-200.5 1423,-200.5 1423,-181.5 1527,-181.5 1527,-200.5"/>
<text text-anchor="middle" x="1475" y="-188.5" font-family="Helvetica,sans-Serif" font-size="10.00">helios.math.types</text>
</a>
</g>
</g>
<!-- Node14&#45;&gt;Node16 -->
<g id="edge30_Node000014_Node000016" class="edge">
<title>Node14&#45;&gt;Node16</title>
<g id="a_edge30_Node000014_Node000016"><a xlink:title=" ">
<path fill="none" stroke="#63b8ff" d="M1582.82,-307.84C1560.16,-283.49 1513.95,-233.85 1490.06,-208.18"/>
<polygon fill="#63b8ff" stroke="#63b8ff" points="1492.52,-205.68 1483.14,-200.75 1487.39,-210.45 1492.52,-205.68"/>
</a>
</g>
</g>
<!-- Node17 -->
<g id="Node000017" class="node">
<title>Node17</title>
<g id="a_Node000017"><a xlink:href="ViewportId_8ixx.html" target="_top" xlink:title="Strongly&#45;typed identifier for viewports.">
<polygon fill="white" stroke="#666666" points="1784,-272 1650,-272 1650,-242 1784,-242 1784,-272"/>
<text text-anchor="start" x="1658" y="-260" font-family="Helvetica,sans-Serif" font-size="10.00">helios.engine.core.data.</text>
<text text-anchor="middle" x="1717" y="-249" font-family="Helvetica,sans-Serif" font-size="10.00">ViewportId</text>
</a>
</g>
</g>
<!-- Node14&#45;&gt;Node17 -->
<g id="edge32_Node000014_Node000017" class="edge">
<title>Node14&#45;&gt;Node17</title>
<g id="a_edge32_Node000014_Node000017"><a xlink:title=" ">
<path fill="none" stroke="#63b8ff" d="M1622.55,-307.95C1639.89,-298.78 1662.73,-286.71 1681.6,-276.72"/>
<polygon fill="#63b8ff" stroke="#63b8ff" points="1683.3,-279.78 1690.51,-272.01 1680.03,-273.59 1683.3,-279.78"/>
</a>
</g>
</g>
<!-- Node16&#45;&gt;Node16 -->
<g id="edge31_Node000016_Node000016" class="edge">
<title>Node16&#45;&gt;Node16</title>
<g id="a_edge31_Node000016_Node000016"><a xlink:title=" ">
<path fill="none" stroke="#63b8ff" d="M1496.86,-200.56C1519.56,-206.37 1545,-203.18 1545,-191 1545,-180.58 1526.39,-176.74 1506.79,-179.48"/>
<polygon fill="#63b8ff" stroke="#63b8ff" points="1506,-176.07 1496.86,-181.44 1507.35,-182.94 1506,-176.07"/>
</a>
</g>
</g>
<!-- Node17&#45;&gt;Node15 -->
<g id="edge35_Node000017_Node000015" class="edge">
<title>Node17&#45;&gt;Node15</title>
<g id="a_edge35_Node000017_Node000015"><a xlink:title=" ">
<path fill="none" stroke="#63b8ff" d="M1754.09,-241.95C1783.99,-230.63 1825.6,-214.88 1854.04,-204.1"/>
<polygon fill="#63b8ff" stroke="#63b8ff" points="1855.4,-207.33 1863.51,-200.52 1852.92,-200.79 1855.4,-207.33"/>
</a>
</g>
</g>
<!-- Node18 -->
<g id="Node000018" class="node">
<title>Node18</title>
<g id="a_Node000018"><a xlink:title=" ">
<polygon fill="#e0e0e0" stroke="#999999" points="1833,-134.5 1783,-134.5 1783,-115.5 1833,-115.5 1833,-134.5"/>
<text text-anchor="middle" x="1808" y="-122.5" font-family="Helvetica,sans-Serif" font-size="10.00">cstdint</text>
</a>
</g>
</g>
<!-- Node17&#45;&gt;Node18 -->
<g id="edge33_Node000017_Node000018" class="edge">
<title>Node17&#45;&gt;Node18</title>
<g id="a_edge33_Node000017_Node000018"><a xlink:title=" ">
<path fill="none" stroke="#63b8ff" d="M1746.93,-241.85C1761.7,-233.41 1778.54,-221.34 1789,-206 1801.42,-187.79 1805.77,-162.45 1807.26,-145.2"/>
<polygon fill="#63b8ff" stroke="#63b8ff" points="1810.79,-144.94 1807.91,-134.74 1803.8,-144.51 1810.79,-144.94"/>
</a>
</g>
</g>
<!-- Node19 -->
<g id="Node000019" class="node">
<title>Node19</title>
<g id="a_Node000019"><a xlink:title=" ">
<polygon fill="#e0e0e0" stroke="#999999" points="1636.5,-200.5 1563.5,-200.5 1563.5,-181.5 1636.5,-181.5 1636.5,-200.5"/>
<text text-anchor="middle" x="1600" y="-188.5" font-family="Helvetica,sans-Serif" font-size="10.00">string_view</text>
</a>
</g>
</g>
<!-- Node17&#45;&gt;Node19 -->
<g id="edge34_Node000017_Node000019" class="edge">
<title>Node17&#45;&gt;Node19</title>
<g id="a_edge34_Node000017_Node000019"><a xlink:title=" ">
<path fill="none" stroke="#63b8ff" d="M1691.32,-241.95C1671.44,-231.08 1644.07,-216.11 1624.49,-205.4"/>
<polygon fill="#63b8ff" stroke="#63b8ff" points="1626.02,-202.25 1615.57,-200.52 1622.66,-208.39 1626.02,-202.25"/>
</a>
</g>
</g>
<!-- Node20 -->
<g id="Node000020" class="node">
<title>Node20</title>
<g id="a_Node000020"><a xlink:href="algorithms_8ixx.html" target="_top" xlink:title="Core algorithms and hash functions for the helios engine.">
<polygon fill="white" stroke="#666666" points="1779.5,-200.5 1654.5,-200.5 1654.5,-181.5 1779.5,-181.5 1779.5,-200.5"/>
<text text-anchor="middle" x="1717" y="-188.5" font-family="Helvetica,sans-Serif" font-size="10.00">helios.core.algorithms</text>
</a>
</g>
</g>
<!-- Node17&#45;&gt;Node20 -->
<g id="edge36_Node000017_Node000020" class="edge">
<title>Node17&#45;&gt;Node20</title>
<g id="a_edge36_Node000017_Node000020"><a xlink:title=" ">
<path fill="none" stroke="#63b8ff" d="M1717,-241.8C1717,-232.7 1717,-220.79 1717,-210.9"/>
<polygon fill="#63b8ff" stroke="#63b8ff" points="1720.5,-210.84 1717,-200.84 1713.5,-210.84 1720.5,-210.84"/>
</a>
</g>
</g>
<!-- Node20&#45;&gt;Node18 -->
<g id="edge37_Node000020_Node000018" class="edge">
<title>Node20&#45;&gt;Node18</title>
<g id="a_edge37_Node000020_Node000018"><a xlink:title=" ">
<path fill="none" stroke="#63b8ff" d="M1729.27,-181.37C1744.06,-170.97 1769.15,-153.32 1787.03,-140.75"/>
<polygon fill="#63b8ff" stroke="#63b8ff" points="1789.46,-143.31 1795.63,-134.7 1785.44,-137.59 1789.46,-143.31"/>
</a>
</g>
</g>
<!-- Node21 -->
<g id="Node000021" class="node">
<title>Node21</title>
<g id="a_Node000021"><a xlink:title=" ">
<polygon fill="#e0e0e0" stroke="#999999" points="1265,-19 1221,-19 1221,0 1265,0 1265,-19"/>
<text text-anchor="middle" x="1243" y="-7" font-family="Helvetica,sans-Serif" font-size="10.00">string</text>
</a>
</g>
</g>
<!-- Node20&#45;&gt;Node21 -->
<g id="edge38_Node000020_Node000021" class="edge">
<title>Node20&#45;&gt;Node21</title>
<g id="a_edge38_Node000020_Node000021"><a xlink:title=" ">
<path fill="none" stroke="#63b8ff" d="M1694.46,-181.46C1617.39,-152.28 1364.28,-56.43 1274.74,-22.52"/>
<polygon fill="#63b8ff" stroke="#63b8ff" points="1275.72,-19.15 1265.13,-18.88 1273.24,-25.7 1275.72,-19.15"/>
</a>
</g>
</g>
<!-- Node23 -->
<g id="Node000023" class="node">
<title>Node23</title>
<g id="a_Node000023"><a xlink:href="GamepadState_8ixx.html" target="_top" xlink:title="Representation of current gamepad input state.">
<polygon fill="white" stroke="#666666" points="1262.5,-272 1089.5,-272 1089.5,-242 1262.5,-242 1262.5,-272"/>
<text text-anchor="start" x="1097.5" y="-260" font-family="Helvetica,sans-Serif" font-size="10.00">helios.input.gamepad.Gamepad</text>
<text text-anchor="middle" x="1176" y="-249" font-family="Helvetica,sans-Serif" font-size="10.00">State</text>
</a>
</g>
</g>
<!-- Node22&#45;&gt;Node23 -->
<g id="edge40_Node000022_Node000023" class="edge">
<title>Node22&#45;&gt;Node23</title>
<g id="a_edge40_Node000022_Node000023"><a xlink:title=" ">
<path fill="none" stroke="#63b8ff" d="M1176,-313.37C1176,-305.49 1176,-293.45 1176,-282.6"/>
<polygon fill="#63b8ff" stroke="#63b8ff" points="1179.5,-282.36 1176,-272.36 1172.5,-282.36 1179.5,-282.36"/>
</a>
</g>
</g>
<!-- Node23&#45;&gt;Node16 -->
<g id="edge63_Node000023_Node000016" class="edge">
<title>Node23&#45;&gt;Node16</title>
<g id="a_edge63_Node000023_Node000016"><a xlink:title=" ">
<path fill="none" stroke="#63b8ff" d="M1244.55,-241.95C1292.14,-232.11 1356.99,-218.53 1414,-206 1418.66,-204.98 1423.52,-203.89 1428.37,-202.79"/>
<polygon fill="#63b8ff" stroke="#63b8ff" points="1429.28,-206.18 1438.25,-200.55 1427.72,-199.35 1429.28,-206.18"/>
</a>
</g>
</g>
<!-- Node24 -->
<g id="Node000024" class="node">
<title>Node24</title>
<g id="a_Node000024"><a xlink:title=" ">
<polygon fill="#e0e0e0" stroke="#999999" points="1335,-200.5 1271,-200.5 1271,-181.5 1335,-181.5 1335,-200.5"/>
<text text-anchor="middle" x="1303" y="-188.5" font-family="Helvetica,sans-Serif" font-size="10.00">algorithm</text>
</a>
</g>
</g>
<!-- Node23&#45;&gt;Node24 -->
<g id="edge41_Node000023_Node000024" class="edge">
<title>Node23&#45;&gt;Node24</title>
<g id="a_edge41_Node000023_Node000024"><a xlink:title=" ">
<path fill="none" stroke="#63b8ff" d="M1203.87,-241.95C1225.65,-230.98 1255.7,-215.83 1276.99,-205.11"/>
<polygon fill="#63b8ff" stroke="#63b8ff" points="1278.74,-208.14 1286.1,-200.52 1275.59,-201.89 1278.74,-208.14"/>
</a>
</g>
</g>
<!-- Node25 -->
<g id="Node000025" class="node">
<title>Node25</title>
<g id="a_Node000025"><a xlink:title=" ">
<polygon fill="#e0e0e0" stroke="#999999" points="1405,-200.5 1353,-200.5 1353,-181.5 1405,-181.5 1405,-200.5"/>
<text text-anchor="middle" x="1379" y="-188.5" font-family="Helvetica,sans-Serif" font-size="10.00">cassert</text>
</a>
</g>
</g>
<!-- Node23&#45;&gt;Node25 -->
<g id="edge42_Node000023_Node000025" class="edge">
<title>Node23&#45;&gt;Node25</title>
<g id="a_edge42_Node000023_Node000025"><a xlink:title=" ">
<path fill="none" stroke="#63b8ff" d="M1227.48,-241.99C1260.93,-232.57 1305.34,-219.45 1344,-206 1345.61,-205.44 1347.26,-204.85 1348.93,-204.23"/>
<polygon fill="#63b8ff" stroke="#63b8ff" points="1350.3,-207.45 1358.39,-200.61 1347.8,-200.92 1350.3,-207.45"/>
</a>
</g>
</g>
<!-- Node26 -->
<g id="Node000026" class="node">
<title>Node26</title>
<g id="a_Node000026"><a xlink:title=" ">
<polygon fill="#e0e0e0" stroke="#999999" points="879,-200.5 757,-200.5 757,-181.5 879,-181.5 879,-200.5"/>
<text text-anchor="middle" x="818" y="-188.5" font-family="Helvetica,sans-Serif" font-size="10.00">helios/helios_config.h</text>
</a>
</g>
</g>
<!-- Node23&#45;&gt;Node26 -->
<g id="edge43_Node000023_Node000026" class="edge">
<title>Node23&#45;&gt;Node26</title>
<g id="a_edge43_Node000023_Node000026"><a xlink:title=" ">
<path fill="none" stroke="#63b8ff" d="M1095.45,-241.98C1038.8,-232.07 961.23,-218.4 893,-206 886.67,-204.85 880.04,-203.63 873.46,-202.42"/>
<polygon fill="#63b8ff" stroke="#63b8ff" points="873.67,-198.89 863.2,-200.51 872.39,-205.78 873.67,-198.89"/>
</a>
</g>
</g>
<!-- Node27 -->
<g id="Node000027" class="node">
<title>Node27</title>
<g id="a_Node000027"><a xlink:href="Gamepad_8ixx.html" target="_top" xlink:title="Identifiers for supported gamepads.">
<polygon fill="white" stroke="#666666" points="1253,-200.5 1099,-200.5 1099,-181.5 1253,-181.5 1253,-200.5"/>
<text text-anchor="middle" x="1176" y="-188.5" font-family="Helvetica,sans-Serif" font-size="10.00">helios.input.types.Gamepad</text>
</a>
</g>
</g>
<!-- Node23&#45;&gt;Node27 -->
<g id="edge44_Node000023_Node000027" class="edge">
<title>Node23&#45;&gt;Node27</title>
<g id="a_edge44_Node000023_Node000027"><a xlink:title=" ">
<path fill="none" stroke="#63b8ff" d="M1176,-241.8C1176,-232.7 1176,-220.79 1176,-210.9"/>
<polygon fill="#63b8ff" stroke="#63b8ff" points="1179.5,-210.84 1176,-200.84 1172.5,-210.84 1179.5,-210.84"/>
</a>
</g>
</g>
<!-- Node28 -->
<g id="Node000028" class="node">
<title>Node28</title>
<g id="a_Node000028"><a xlink:href="LogManager_8ixx.html" target="_top" xlink:title="Central manager for scoped loggers with configurable sinks.">
<polygon fill="white" stroke="#666666" points="1081,-200.5 935,-200.5 935,-181.5 1081,-181.5 1081,-200.5"/>
<text text-anchor="middle" x="1008" y="-188.5" font-family="Helvetica,sans-Serif" font-size="10.00">helios.util.log.LogManager</text>
</a>
</g>
</g>
<!-- Node23&#45;&gt;Node28 -->
<g id="edge45_Node000023_Node000028" class="edge">
<title>Node23&#45;&gt;Node28</title>
<g id="a_edge45_Node000023_Node000028"><a xlink:title=" ">
<path fill="none" stroke="#63b8ff" d="M1139.13,-241.95C1109.41,-230.63 1068.05,-214.88 1039.77,-204.1"/>
<polygon fill="#63b8ff" stroke="#63b8ff" points="1040.95,-200.81 1030.36,-200.52 1038.46,-207.35 1040.95,-200.81"/>
</a>
</g>
</g>
<!-- Node33 -->
<g id="Node000033" class="node">
<title>Node33</title>
<g id="a_Node000033"><a xlink:href="Logger_8ixx.html" target="_top" xlink:title="Simple synchronous logger with configurable output sinks.">
<polygon fill="white" stroke="#666666" points="861.5,-134.5 742.5,-134.5 742.5,-115.5 861.5,-115.5 861.5,-134.5"/>
<text text-anchor="middle" x="802" y="-122.5" font-family="Helvetica,sans-Serif" font-size="10.00">helios.util.log.Logger</text>
</a>
</g>
</g>
<!-- Node23&#45;&gt;Node33 -->
<g id="edge62_Node000023_Node000033" class="edge">
<title>Node23&#45;&gt;Node33</title>
<g id="a_edge62_Node000023_Node000033"><a xlink:title=" ">
<path fill="none" stroke="#63b8ff" d="M1089.28,-248.78C1039.69,-242.22 977.33,-229.72 926,-206 906.47,-196.97 905.79,-188.1 888,-176 868.24,-162.56 844.72,-149.04 827.27,-139.45"/>
<polygon fill="#63b8ff" stroke="#63b8ff" points="828.72,-136.26 818.26,-134.56 825.38,-142.41 828.72,-136.26"/>
</a>
</g>
</g>
<!-- Node28&#45;&gt;Node6 -->
<g id="edge49_Node000028_Node000006" class="edge">
<title>Node28&#45;&gt;Node6</title>
<g id="a_edge49_Node000028_Node000006"><a xlink:title=" ">
<path fill="none" stroke="#63b8ff" d="M941,-181.46C872.18,-172.04 770.18,-156.07 734,-140 714.02,-131.12 714.42,-120.05 695,-110 661.43,-92.62 619.89,-80.69 590.07,-73.58"/>
<polygon fill="#63b8ff" stroke="#63b8ff" points="590.57,-70.11 580.04,-71.27 589,-76.93 590.57,-70.11"/>
</a>
</g>
</g>
<!-- Node28&#45;&gt;Node7 -->
<g id="edge51_Node000028_Node000007" class="edge">
<title>Node28&#45;&gt;Node7</title>
<g id="a_edge51_Node000028_Node000007"><a xlink:title=" ">
<path fill="none" stroke="#63b8ff" d="M1008.67,-181.3C1010.01,-156.9 1010.07,-87.45 971,-55 932.38,-22.92 580.37,-13.34 468.77,-11.09"/>
<polygon fill="#63b8ff" stroke="#63b8ff" points="468.81,-7.59 458.74,-10.89 468.67,-14.59 468.81,-7.59"/>
</a>
</g>
</g>
<!-- Node28&#45;&gt;Node21 -->
<g id="edge46_Node000028_Node000021" class="edge">
<title>Node28&#45;&gt;Node21</title>
<g id="a_edge46_Node000028_Node000021"><a xlink:title=" ">
<path fill="none" stroke="#63b8ff" d="M1054.56,-181.49C1122.04,-168.98 1239.8,-146.41 1247,-140 1276.14,-114.05 1279.2,-92.67 1269,-55 1266.34,-45.19 1260.93,-35.33 1255.72,-27.39"/>
<polygon fill="#63b8ff" stroke="#63b8ff" points="1258.5,-25.25 1249.89,-19.07 1252.77,-29.27 1258.5,-25.25"/>
</a>
</g>
</g>
<!-- Node29 -->
<g id="Node000029" class="node">
<title>Node29</title>
<g id="a_Node000029"><a xlink:title=" ">
<polygon fill="#e0e0e0" stroke="#999999" points="1117.5,-134.5 1024.5,-134.5 1024.5,-115.5 1117.5,-115.5 1117.5,-134.5"/>
<text text-anchor="middle" x="1071" y="-122.5" font-family="Helvetica,sans-Serif" font-size="10.00">unordered_map</text>
</a>
</g>
</g>
<!-- Node28&#45;&gt;Node29 -->
<g id="edge47_Node000028_Node000029" class="edge">
<title>Node28&#45;&gt;Node29</title>
<g id="a_edge47_Node000028_Node000029"><a xlink:title=" ">
<path fill="none" stroke="#63b8ff" d="M1016.5,-181.37C1026.3,-171.4 1042.66,-154.79 1054.89,-142.36"/>
<polygon fill="#63b8ff" stroke="#63b8ff" points="1057.71,-144.49 1062.23,-134.91 1052.72,-139.58 1057.71,-144.49"/>
</a>
</g>
</g>
<!-- Node30 -->
<g id="Node000030" class="node">
<title>Node30</title>
<g id="a_Node000030"><a xlink:title=" ">
<polygon fill="#e0e0e0" stroke="#999999" points="1222,-134.5 1136,-134.5 1136,-115.5 1222,-115.5 1222,-134.5"/>
<text text-anchor="middle" x="1179" y="-122.5" font-family="Helvetica,sans-Serif" font-size="10.00">unordered_set</text>
</a>
</g>
</g>
<!-- Node28&#45;&gt;Node30 -->
<g id="edge48_Node000028_Node000030" class="edge">
<title>Node28&#45;&gt;Node30</title>
<g id="a_edge48_Node000028_Node000030"><a xlink:title=" ">
<path fill="none" stroke="#63b8ff" d="M1031.06,-181.37C1060.85,-170.22 1112.87,-150.75 1146.61,-138.12"/>
<polygon fill="#63b8ff" stroke="#63b8ff" points="1147.89,-141.38 1156.03,-134.6 1145.44,-134.82 1147.89,-141.38"/>
</a>
</g>
</g>
<!-- Node31 -->
<g id="Node000031" class="node">
<title>Node31</title>
<g id="a_Node000031"><a xlink:title=" ">
<polygon fill="#e0e0e0" stroke="#999999" points="962,-74 914,-74 914,-55 962,-55 962,-74"/>
<text text-anchor="middle" x="938" y="-62" font-family="Helvetica,sans-Serif" font-size="10.00">mutex</text>
</a>
</g>
</g>
<!-- Node28&#45;&gt;Node31 -->
<g id="edge50_Node000028_Node000031" class="edge">
<title>Node28&#45;&gt;Node31</title>
<g id="a_edge50_Node000028_Node000031"><a xlink:title=" ">
<path fill="none" stroke="#63b8ff" d="M1003.19,-181.44C991.8,-161.19 963.01,-109.97 947.78,-82.9"/>
<polygon fill="#63b8ff" stroke="#63b8ff" points="950.8,-81.12 942.85,-74.12 944.7,-84.55 950.8,-81.12"/>
</a>
</g>
</g>
<!-- Node32 -->
<g id="Node000032" class="node">
<title>Node32</title>
<g id="a_Node000032"><a xlink:title=" ">
<polygon fill="#e0e0e0" stroke="#999999" points="930,-134.5 880,-134.5 880,-115.5 930,-115.5 930,-134.5"/>
<text text-anchor="middle" x="905" y="-122.5" font-family="Helvetica,sans-Serif" font-size="10.00">cstring</text>
</a>
</g>
</g>
<!-- Node28&#45;&gt;Node32 -->
<g id="edge52_Node000028_Node000032" class="edge">
<title>Node28&#45;&gt;Node32</title>
<g id="a_edge52_Node000028_Node000032"><a xlink:title=" ">
<path fill="none" stroke="#63b8ff" d="M994.11,-181.37C977.06,-170.78 947.93,-152.67 927.63,-140.06"/>
<polygon fill="#63b8ff" stroke="#63b8ff" points="929.34,-137 919,-134.7 925.65,-142.95 929.34,-137"/>
</a>
</g>
</g>
<!-- Node28&#45;&gt;Node33 -->
<g id="edge53_Node000028_Node000033" class="edge">
<title>Node28&#45;&gt;Node33</title>
<g id="a_edge53_Node000028_Node000033"><a xlink:title=" ">
<path fill="none" stroke="#63b8ff" d="M980.22,-181.37C943.87,-170.08 880.05,-150.25 839.46,-137.64"/>
<polygon fill="#63b8ff" stroke="#63b8ff" points="840.26,-134.22 829.67,-134.6 838.18,-140.91 840.26,-134.22"/>
</a>
</g>
</g>
<!-- Node35 -->
<g id="Node000035" class="node">
<title>Node35</title>
<g id="a_Node000035"><a xlink:href="LogSink_8ixx.html" target="_top" xlink:title="Abstract interface for log output destinations.">
<polygon fill="white" stroke="#666666" points="1260,-74 1136,-74 1136,-55 1260,-55 1260,-74"/>
<text text-anchor="middle" x="1198" y="-62" font-family="Helvetica,sans-Serif" font-size="10.00">helios.util.log.LogSink</text>
</a>
</g>
</g>
<!-- Node28&#45;&gt;Node35 -->
<g id="edge61_Node000028_Node000035" class="edge">
<title>Node28&#45;&gt;Node35</title>
<g id="a_edge61_Node000028_Node000035"><a xlink:title=" ">
<path fill="none" stroke="#63b8ff" d="M1052.5,-181.5C1115.93,-169.16 1225.38,-147.02 1231,-140 1245.15,-122.32 1228.7,-97.62 1214.38,-81.59"/>
<polygon fill="#63b8ff" stroke="#63b8ff" points="1216.69,-78.93 1207.27,-74.08 1211.61,-83.75 1216.69,-78.93"/>
</a>
</g>
</g>
<!-- Node33&#45;&gt;Node6 -->
<g id="edge56_Node000033_Node000006" class="edge">
<title>Node33&#45;&gt;Node6</title>
<g id="a_edge56_Node000033_Node000006"><a xlink:title=" ">
<path fill="none" stroke="#63b8ff" d="M765.5,-115.49C718.76,-104.6 638.08,-85.8 590.11,-74.62"/>
<polygon fill="#63b8ff" stroke="#63b8ff" points="590.64,-71.15 580.11,-72.28 589.05,-77.96 590.64,-71.15"/>
</a>
</g>
</g>
<!-- Node33&#45;&gt;Node7 -->
<g id="edge55_Node000033_Node000007" class="edge">
<title>Node33&#45;&gt;Node7</title>
<g id="a_edge55_Node000033_Node000007"><a xlink:title=" ">
<path fill="none" stroke="#63b8ff" d="M782.33,-115.47C749.54,-101.48 681.47,-73.39 622,-55 569.11,-38.65 506.23,-24.8 468.53,-17.08"/>
<polygon fill="#63b8ff" stroke="#63b8ff" points="469.09,-13.62 458.59,-15.07 467.7,-20.48 469.09,-13.62"/>
</a>
</g>
</g>
<!-- Node33&#45;&gt;Node21 -->
<g id="edge54_Node000033_Node000021" class="edge">
<title>Node33&#45;&gt;Node21</title>
<g id="a_edge54_Node000033_Node000021"><a xlink:title=" ">
<path fill="none" stroke="#63b8ff" d="M801.54,-115.18C801.29,-100.24 803.19,-70.11 821,-55 850.58,-29.9 1117.17,-15.98 1210.72,-11.83"/>
<polygon fill="#63b8ff" stroke="#63b8ff" points="1210.91,-15.33 1220.75,-11.4 1210.6,-8.33 1210.91,-15.33"/>
</a>
</g>
</g>
<!-- Node33&#45;&gt;Node31 -->
<g id="edge57_Node000033_Node000031" class="edge">
<title>Node33&#45;&gt;Node31</title>
<g id="a_edge57_Node000033_Node000031"><a xlink:title=" ">
<path fill="none" stroke="#63b8ff" d="M821.78,-115.49C844.64,-105.66 882.49,-89.38 908.76,-78.08"/>
<polygon fill="#63b8ff" stroke="#63b8ff" points="910.4,-81.18 918.2,-74.02 907.63,-74.75 910.4,-81.18"/>
</a>
</g>
</g>
<!-- Node34 -->
<g id="Node000034" class="node">
<title>Node34</title>
<g id="a_Node000034"><a xlink:title=" ">
<polygon fill="#e0e0e0" stroke="#999999" points="890,-74 830,-74 830,-55 890,-55 890,-74"/>
<text text-anchor="middle" x="860" y="-62" font-family="Helvetica,sans-Serif" font-size="10.00">iostream</text>
</a>
</g>
</g>
<!-- Node33&#45;&gt;Node34 -->
<g id="edge58_Node000033_Node000034" class="edge">
<title>Node33&#45;&gt;Node34</title>
<g id="a_edge58_Node000033_Node000034"><a xlink:title=" ">
<path fill="none" stroke="#63b8ff" d="M810.56,-115.37C819.38,-106.47 833.34,-92.39 844.18,-81.45"/>
<polygon fill="#63b8ff" stroke="#63b8ff" points="846.85,-83.73 851.41,-74.17 841.88,-78.8 846.85,-83.73"/>
</a>
</g>
</g>
<!-- Node33&#45;&gt;Node35 -->
<g id="edge59_Node000033_Node000035" class="edge">
<title>Node33&#45;&gt;Node35</title>
<g id="a_edge59_Node000033_Node000035"><a xlink:title=" ">
<path fill="none" stroke="#63b8ff" d="M841.69,-115.49C851.26,-113.56 861.48,-111.61 871,-110 958.31,-95.22 1059.4,-82.06 1125.79,-73.96"/>
<polygon fill="#63b8ff" stroke="#63b8ff" points="1126.23,-77.43 1135.74,-72.75 1125.39,-70.48 1126.23,-77.43"/>
</a>
</g>
</g>
<!-- Node35&#45;&gt;Node21 -->
<g id="edge60_Node000035_Node000021" class="edge">
<title>Node35&#45;&gt;Node21</title>
<g id="a_edge60_Node000035_Node000021"><a xlink:title=" ">
<path fill="none" stroke="#63b8ff" d="M1205.43,-54.75C1211.85,-47.18 1221.31,-36.05 1229.12,-26.84"/>
<polygon fill="#63b8ff" stroke="#63b8ff" points="1231.9,-28.98 1235.71,-19.09 1226.57,-24.45 1231.9,-28.98"/>
</a>
</g>
</g>
<!-- Node36&#45;&gt;Node18 -->
<g id="edge65_Node000036_Node000018" class="edge">
<title>Node36&#45;&gt;Node18</title>
<g id="a_edge65_Node000036_Node000018"><a xlink:title=" ">
<path fill="none" stroke="#63b8ff" d="M1967.42,-373.81C1975.42,-336.85 1991.38,-236.36 1945,-176 1920.95,-144.7 1875.4,-132.98 1843.44,-128.6"/>
<polygon fill="#63b8ff" stroke="#63b8ff" points="1843.52,-125.08 1833.18,-127.38 1842.69,-132.04 1843.52,-125.08"/>
</a>
</g>
</g>
<!-- Node37 -->
<g id="Node000037" class="node">
<title>Node37</title>
<g id="a_Node000037"><a xlink:title=" ">
<polygon fill="#e0e0e0" stroke="#999999" points="2037.5,-332.5 1992.5,-332.5 1992.5,-313.5 2037.5,-313.5 2037.5,-332.5"/>
<text text-anchor="middle" x="2015" y="-320.5" font-family="Helvetica,sans-Serif" font-size="10.00">utility</text>
</a>
</g>
</g>
<!-- Node36&#45;&gt;Node37 -->
<g id="edge66_Node000036_Node000037" class="edge">
<title>Node36&#45;&gt;Node37</title>
<g id="a_edge66_Node000036_Node000037"><a xlink:title=" ">
<path fill="none" stroke="#63b8ff" d="M1975.32,-373.8C1983.11,-364.01 1993.5,-350.98 2001.69,-340.7"/>
<polygon fill="#63b8ff" stroke="#63b8ff" points="2004.46,-342.85 2007.95,-332.84 1998.98,-338.48 2004.46,-342.85"/>
</a>
</g>
</g>
</g>
</svg>

<g id="navigator" transform="translate(0 0)" fill="#404254">
  <rect fill="#f2f5e9" fill-opacity="0.5" stroke="#606060" stroke-width=".5" x="0" y="0" width="60" height="60"/>
  <use id="zoomplus" xlink:href="#zoomPlus" x="17" y="9" onmousedown="handleZoom(evt,'in')"/>
  <use id="zoomminus" xlink:href="#zoomMin" x="42" y="9" onmousedown="handleZoom(evt,'out')"/>
  <use id="reset" xlink:href="#resetDef" x="30" y="36" onmousedown="handleReset()"/>
   <use id="arrowup" xlink:href="#arrowUp" x="0" y="0" onmousedown="handlePan(0,-1)"/>
  <use id="arrowright" xlink:href="#arrowRight" x="0" y="0" onmousedown="handlePan(1,0)"/>
  <use id="arrowdown" xlink:href="#arrowDown" x="0" y="0" onmousedown="handlePan(0,1)"/>
  <use id="arrowleft" xlink:href="#arrowLeft" x="0" y="0" onmousedown="handlePan(-1,0)"/>
</g>
<svg viewBox="0 0 15 15" width="100%" height="30px" preserveAspectRatio="xMaxYMin meet">
 <g id="arrow_out" transform="scale(0.3 0.3)">
  <a xlink:href="PassCommitListener_8ixx__incl_org.svg" target="_base">
   <rect id="button" ry="5" rx="5" y="6" x="6" height="38" width="38"
        fill="#f2f5e9" fill-opacity="0.5" stroke="#606060" stroke-width="1.0"/>
   <path id="arrow"
     d="M 11.500037,31.436501 C 11.940474,20.09759 22.043105,11.32322 32.158766,21.979434 L 37.068811,17.246167 C 37.068811,17.246167 37.088388,32 37.088388,32 L 22.160133,31.978069 C 22.160133,31.978069 26.997745,27.140456 26.997745,27.140456 C 18.528582,18.264221 13.291696,25.230495 11.500037,31.436501 z"
     style="fill:#404040;"/>
  </a>
 </g>
</svg>

<style type='text/css'>
<![CDATA[
[data-mouse-over-selected='false'] { opacity: 0.7; }
[data-mouse-over-selected='true']  { opacity: 1.0; }
]]>
</style>
<script type="application/ecmascript"><![CDATA[
document.addEventListener('DOMContentLoaded', (event) => {
  highlightEdges();
  highlightAdjacentNodes();
});
]]></script>
</svg>
