<?xml version="1.0" encoding="UTF-8" standalone="no"?>
<!DOCTYPE svg PUBLIC "-//W3C//DTD SVG 1.1//EN"
 "http://www.w3.org/Graphics/SVG/1.1/DTD/svg11.dtd">
<!-- Generated by graphviz version 2.43.0 (0)
 -->
<!-- Title: include/helios/engine/runtime/gameloop/Pass.ixx Pages: 1 -->
<svg width="1434pt" height="654pt"
 viewBox="0.00 0.00 1434.24 654.00" xmlns="http://www.w3.org/2000/svg" xmlns:xlink="http://www.w3.org/1999/xlink">
<g id="graph0" class="graph" transform="scale(1 1) rotate(0) translate(4 650)">
<title>include/helios/engine/runtime/gameloop/Pass.ixx</title>
<!-- Node1 -->
<g id="Node000001" class="node">
<title>Node1</title>
<g id="a_Node000001"><a xlink:title="Represents a single pass within a phase, containing registered systems.">
<polygon fill="#999999" stroke="#666666" points="630.24,-646 478.24,-646 478.24,-616 630.24,-616 630.24,-646"/>
<text text-anchor="start" x="486.24" y="-634" font-family="Helvetica,sans-Serif" font-size="10.00">include/helios/engine</text>
<text text-anchor="middle" x="554.24" y="-623" font-family="Helvetica,sans-Serif" font-size="10.00">/runtime/gameloop/Pass.ixx</text>
</a>
</g>
</g>
<!-- Node2 -->
<g id="Node000002" class="node">
<title>Node2</title>
<g id="a_Node000002"><a xlink:title=" ">
<polygon fill="#e0e0e0" stroke="#999999" points="233.74,-574.5 164.74,-574.5 164.74,-555.5 233.74,-555.5 233.74,-574.5"/>
<text text-anchor="middle" x="199.24" y="-562.5" font-family="Helvetica,sans-Serif" font-size="10.00">type_traits</text>
</a>
</g>
</g>
<!-- Node1&#45;&gt;Node2 -->
<g id="edge1_Node000001_Node000002" class="edge">
<title>Node1&#45;&gt;Node2</title>
<g id="a_edge1_Node000001_Node000002"><a xlink:title=" ">
<path fill="none" stroke="#63b8ff" d="M478.01,-620.06C415.81,-611.34 325.86,-597.37 248.24,-580 244.57,-579.18 240.77,-578.24 236.98,-577.26"/>
<polygon fill="#63b8ff" stroke="#63b8ff" points="237.65,-573.81 227.08,-574.56 235.81,-580.57 237.65,-573.81"/>
</a>
</g>
</g>
<!-- Node3 -->
<g id="Node000003" class="node">
<title>Node3</title>
<g id="a_Node000003"><a xlink:title=" ">
<polygon fill="#e0e0e0" stroke="#999999" points="201.74,-514 156.74,-514 156.74,-495 201.74,-495 201.74,-514"/>
<text text-anchor="middle" x="179.24" y="-502" font-family="Helvetica,sans-Serif" font-size="10.00">utility</text>
</a>
</g>
</g>
<!-- Node1&#45;&gt;Node3 -->
<g id="edge2_Node000001_Node000003" class="edge">
<title>Node1&#45;&gt;Node3</title>
<g id="a_edge2_Node000001_Node000003"><a xlink:title=" ">
<path fill="none" stroke="#63b8ff" d="M478.13,-625.71C421.73,-620.27 344.09,-607.95 281.24,-580 261.26,-571.11 259.84,-562.98 242.24,-550 228.37,-539.77 212.51,-528.57 200.18,-519.97"/>
<polygon fill="#63b8ff" stroke="#63b8ff" points="202.11,-517.05 191.9,-514.22 198.11,-522.8 202.11,-517.05"/>
</a>
</g>
</g>
<!-- Node4 -->
<g id="Node000004" class="node">
<title>Node4</title>
<g id="a_Node000004"><a xlink:href="UpdateContext_8ixx.html" target="_top" xlink:title="Context struct passed to components during per&#45;frame updates.">
<polygon fill="white" stroke="#666666" points="959.24,-404 803.24,-404 803.24,-374 959.24,-374 959.24,-404"/>
<text text-anchor="start" x="811.24" y="-392" font-family="Helvetica,sans-Serif" font-size="10.00">helios.engine.runtime.world.</text>
<text text-anchor="middle" x="881.24" y="-381" font-family="Helvetica,sans-Serif" font-size="10.00">UpdateContext</text>
</a>
</g>
</g>
<!-- Node1&#45;&gt;Node4 -->
<g id="edge3_Node000001_Node000004" class="edge">
<title>Node1&#45;&gt;Node4</title>
<g id="a_edge3_Node000001_Node000004"><a xlink:title=" ">
<path fill="none" stroke="#63b8ff" d="M630.58,-622.56C700.53,-611.4 801.06,-583.53 854.24,-514 876.48,-484.93 881.22,-441.38 881.82,-414.38"/>
<polygon fill="#63b8ff" stroke="#63b8ff" points="885.32,-414.25 881.86,-404.24 878.32,-414.22 885.32,-414.25"/>
</a>
</g>
</g>
<!-- Node26 -->
<g id="Node000026" class="node">
<title>Node26</title>
<g id="a_Node000026"><a xlink:href="System_8ixx.html" target="_top" xlink:title="Base class for game systems that operate on the GameWorld.">
<polygon fill="white" stroke="#666666" points="845.74,-514 704.74,-514 704.74,-495 845.74,-495 845.74,-514"/>
<text text-anchor="middle" x="775.24" y="-502" font-family="Helvetica,sans-Serif" font-size="10.00">helios.engine.ecs.System</text>
</a>
</g>
</g>
<!-- Node1&#45;&gt;Node26 -->
<g id="edge50_Node000001_Node000026" class="edge">
<title>Node1&#45;&gt;Node26</title>
<g id="a_edge50_Node000001_Node000026"><a xlink:title=" ">
<path fill="none" stroke="#63b8ff" d="M608.25,-615.98C634.95,-607.74 666.98,-595.79 693.24,-580 719.91,-563.96 745.62,-538.44 760.94,-521.82"/>
<polygon fill="#63b8ff" stroke="#63b8ff" points="763.85,-523.82 767.95,-514.05 758.65,-519.13 763.85,-523.82"/>
</a>
</g>
</g>
<!-- Node28 -->
<g id="Node000028" class="node">
<title>Node28</title>
<g id="a_Node000028"><a xlink:href="SystemRegistry_8ixx.html" target="_top" xlink:title="Registry for managing System instances within a game loop phase.">
<polygon fill="white" stroke="#666666" points="684.24,-580 528.24,-580 528.24,-550 684.24,-550 684.24,-580"/>
<text text-anchor="start" x="536.24" y="-568" font-family="Helvetica,sans-Serif" font-size="10.00">helios.engine.runtime.world.</text>
<text text-anchor="middle" x="606.24" y="-557" font-family="Helvetica,sans-Serif" font-size="10.00">SystemRegistry</text>
</a>
</g>
</g>
<!-- Node1&#45;&gt;Node28 -->
<g id="edge53_Node000001_Node000028" class="edge">
<title>Node1&#45;&gt;Node28</title>
<g id="a_edge53_Node000001_Node000028"><a xlink:title=" ">
<path fill="none" stroke="#63b8ff" d="M565.78,-615.8C572.38,-607.68 580.8,-597.31 588.25,-588.15"/>
<polygon fill="#63b8ff" stroke="#63b8ff" points="591.14,-590.13 594.73,-580.16 585.71,-585.72 591.14,-590.13"/>
</a>
</g>
</g>
<!-- Node30 -->
<g id="Node000030" class="node">
<title>Node30</title>
<g id="a_Node000030"><a xlink:href="CommitPoint_8ixx.html" target="_top" xlink:title="Defines commit points for synchronization within the game loop.">
<polygon fill="white" stroke="#666666" points="468.24,-580 290.24,-580 290.24,-550 468.24,-550 468.24,-580"/>
<text text-anchor="start" x="298.24" y="-568" font-family="Helvetica,sans-Serif" font-size="10.00">helios.engine.runtime.gameloop.</text>
<text text-anchor="middle" x="379.24" y="-557" font-family="Helvetica,sans-Serif" font-size="10.00">CommitPoint</text>
</a>
</g>
</g>
<!-- Node1&#45;&gt;Node30 -->
<g id="edge58_Node000001_Node000030" class="edge">
<title>Node1&#45;&gt;Node30</title>
<g id="a_edge58_Node000001_Node000030"><a xlink:title=" ">
<path fill="none" stroke="#63b8ff" d="M515.84,-615.95C489.74,-606.41 455.02,-593.71 427.12,-583.51"/>
<polygon fill="#63b8ff" stroke="#63b8ff" points="428.15,-580.16 417.56,-580.01 425.75,-586.73 428.15,-580.16"/>
</a>
</g>
</g>
<!-- Node5 -->
<g id="Node000005" class="node">
<title>Node5</title>
<g id="a_Node000005"><a xlink:title=" ">
<polygon fill="#e0e0e0" stroke="#999999" points="1196.24,-19 1156.24,-19 1156.24,0 1196.24,0 1196.24,-19"/>
<text text-anchor="middle" x="1176.24" y="-7" font-family="Helvetica,sans-Serif" font-size="10.00">span</text>
</a>
</g>
</g>
<!-- Node4&#45;&gt;Node5 -->
<g id="edge4_Node000004_Node000005" class="edge">
<title>Node4&#45;&gt;Node5</title>
<g id="a_edge4_Node000004_Node000005"><a xlink:title=" ">
<path fill="none" stroke="#63b8ff" d="M959.33,-385.53C1110.02,-378.63 1426.24,-352.84 1426.24,-258 1426.24,-258 1426.24,-258 1426.24,-124 1426.24,-28.5 1273.12,-12.96 1206.55,-10.72"/>
<polygon fill="#63b8ff" stroke="#63b8ff" points="1206.36,-7.21 1196.28,-10.46 1206.19,-14.21 1206.36,-7.21"/>
</a>
</g>
</g>
<!-- Node6 -->
<g id="Node000006" class="node">
<title>Node6</title>
<g id="a_Node000006"><a xlink:href="GameLoopEventBus_8ixx.html" target="_top" xlink:title="Type&#45;safe event bus for inter&#45;system communication within the game loop.">
<polygon fill="white" stroke="#666666" points="1078.74,-338 865.74,-338 865.74,-308 1078.74,-308 1078.74,-338"/>
<text text-anchor="start" x="873.74" y="-326" font-family="Helvetica,sans-Serif" font-size="10.00">helios.engine.runtime.messaging.event.</text>
<text text-anchor="middle" x="972.24" y="-315" font-family="Helvetica,sans-Serif" font-size="10.00">GameLoopEventBus</text>
</a>
</g>
</g>
<!-- Node4&#45;&gt;Node6 -->
<g id="edge5_Node000004_Node000006" class="edge">
<title>Node4&#45;&gt;Node6</title>
<g id="a_edge5_Node000004_Node000006"><a xlink:title=" ">
<path fill="none" stroke="#63b8ff" d="M901.44,-373.8C913.93,-365.01 930.14,-353.61 943.91,-343.93"/>
<polygon fill="#63b8ff" stroke="#63b8ff" points="945.94,-346.78 952.1,-338.16 941.91,-341.05 945.94,-346.78"/>
</a>
</g>
</g>
<!-- Node16 -->
<g id="Node000016" class="node">
<title>Node16</title>
<g id="a_Node000016"><a xlink:href="InputSnapshot_8ixx.html" target="_top" xlink:title="Immutable snapshot of input state at a specific point in time.">
<polygon fill="white" stroke="#666666" points="524.24,-332.5 378.24,-332.5 378.24,-313.5 524.24,-313.5 524.24,-332.5"/>
<text text-anchor="middle" x="451.24" y="-320.5" font-family="Helvetica,sans-Serif" font-size="10.00">helios.input.InputSnapshot</text>
</a>
</g>
</g>
<!-- Node4&#45;&gt;Node16 -->
<g id="edge30_Node000004_Node000016" class="edge">
<title>Node4&#45;&gt;Node16</title>
<g id="a_edge30_Node000004_Node000016"><a xlink:title=" ">
<path fill="none" stroke="#63b8ff" d="M802.87,-376.34C721.5,-364.22 595.54,-345.48 518.53,-334.01"/>
<polygon fill="#63b8ff" stroke="#63b8ff" points="518.87,-330.53 508.46,-332.52 517.84,-337.45 518.87,-330.53"/>
</a>
</g>
</g>
<!-- Node7 -->
<g id="Node000007" class="node">
<title>Node7</title>
<g id="a_Node000007"><a xlink:href="TypeIndexedDoubleBuffer_8ixx.html" target="_top" xlink:title="Double&#45;buffered, type&#45;indexed message system for decoupled inter&#45;system communication.">
<polygon fill="white" stroke="#666666" points="1054.24,-272 890.24,-272 890.24,-242 1054.24,-242 1054.24,-272"/>
<text text-anchor="start" x="898.24" y="-260" font-family="Helvetica,sans-Serif" font-size="10.00">helios.core.buffer.TypeIndexed</text>
<text text-anchor="middle" x="972.24" y="-249" font-family="Helvetica,sans-Serif" font-size="10.00">DoubleBuffer</text>
</a>
</g>
</g>
<!-- Node6&#45;&gt;Node7 -->
<g id="edge6_Node000006_Node000007" class="edge">
<title>Node6&#45;&gt;Node7</title>
<g id="a_edge6_Node000006_Node000007"><a xlink:title=" ">
<path fill="none" stroke="#63b8ff" d="M972.24,-307.8C972.24,-300.34 972.24,-290.99 972.24,-282.41"/>
<polygon fill="#63b8ff" stroke="#63b8ff" points="975.74,-282.16 972.24,-272.16 968.74,-282.16 975.74,-282.16"/>
</a>
</g>
</g>
<!-- Node14 -->
<g id="Node000014" class="node">
<title>Node14</title>
<g id="a_Node000014"><a xlink:href="TypeIndexer_8ixx.html" target="_top" xlink:title="Utility for generating unique type indices at runtime.">
<polygon fill="white" stroke="#666666" points="1398.24,-200.5 1242.24,-200.5 1242.24,-181.5 1398.24,-181.5 1398.24,-200.5"/>
<text text-anchor="middle" x="1320.24" y="-188.5" font-family="Helvetica,sans-Serif" font-size="10.00">helios.core.data.TypeIndexer</text>
</a>
</g>
</g>
<!-- Node6&#45;&gt;Node14 -->
<g id="edge29_Node000006_Node000014" class="edge">
<title>Node6&#45;&gt;Node14</title>
<g id="a_edge29_Node000006_Node000014"><a xlink:title=" ">
<path fill="none" stroke="#63b8ff" d="M1009.82,-307.96C1078.38,-282.35 1222.69,-228.44 1287.51,-204.23"/>
<polygon fill="#63b8ff" stroke="#63b8ff" points="1289.06,-207.39 1297.2,-200.61 1286.61,-200.83 1289.06,-207.39"/>
</a>
</g>
</g>
<!-- Node7&#45;&gt;Node5 -->
<g id="edge8_Node000007_Node000005" class="edge">
<title>Node7&#45;&gt;Node5</title>
<g id="a_edge8_Node000007_Node000005"><a xlink:title=" ">
<path fill="none" stroke="#63b8ff" d="M1011.95,-241.89C1032.22,-233.46 1056.5,-221.38 1075.24,-206 1132.14,-159.31 1151.25,-143.58 1175.24,-74 1180.25,-59.49 1180.1,-41.98 1178.93,-29.03"/>
<polygon fill="#63b8ff" stroke="#63b8ff" points="1182.4,-28.52 1177.74,-19.01 1175.45,-29.35 1182.4,-28.52"/>
</a>
</g>
</g>
<!-- Node8 -->
<g id="Node000008" class="node">
<title>Node8</title>
<g id="a_Node000008"><a xlink:title=" ">
<polygon fill="#e0e0e0" stroke="#999999" points="644.24,-74 586.24,-74 586.24,-55 644.24,-55 644.24,-74"/>
<text text-anchor="middle" x="615.24" y="-62" font-family="Helvetica,sans-Serif" font-size="10.00">memory</text>
</a>
</g>
</g>
<!-- Node7&#45;&gt;Node8 -->
<g id="edge7_Node000007_Node000008" class="edge">
<title>Node7&#45;&gt;Node8</title>
<g id="a_edge7_Node000007_Node000008"><a xlink:title=" ">
<path fill="none" stroke="#63b8ff" d="M890.02,-251.62C811.81,-245.87 701.34,-233.12 668.24,-206 630.7,-175.23 619.73,-114.89 616.54,-84.27"/>
<polygon fill="#63b8ff" stroke="#63b8ff" points="620.01,-83.78 615.66,-74.12 613.04,-84.38 620.01,-83.78"/>
</a>
</g>
</g>
<!-- Node9 -->
<g id="Node000009" class="node">
<title>Node9</title>
<g id="a_Node000009"><a xlink:title=" ">
<polygon fill="#e0e0e0" stroke="#999999" points="747.74,-19 700.74,-19 700.74,0 747.74,0 747.74,-19"/>
<text text-anchor="middle" x="724.24" y="-7" font-family="Helvetica,sans-Serif" font-size="10.00">vector</text>
</a>
</g>
</g>
<!-- Node7&#45;&gt;Node9 -->
<g id="edge9_Node000007_Node000009" class="edge">
<title>Node7&#45;&gt;Node9</title>
<g id="a_edge9_Node000007_Node000009"><a xlink:title=" ">
<path fill="none" stroke="#63b8ff" d="M895.09,-242C839.61,-227.25 769.47,-197.75 739.24,-140 720.59,-104.37 720.61,-55.8 722.36,-29.43"/>
<polygon fill="#63b8ff" stroke="#63b8ff" points="725.86,-29.55 723.2,-19.3 718.89,-28.97 725.86,-29.55"/>
</a>
</g>
</g>
<!-- Node10 -->
<g id="Node000010" class="node">
<title>Node10</title>
<g id="a_Node000010"><a xlink:href="ReadWriteDoubleBuffer_8ixx.html" target="_top" xlink:title="Type&#45;safe double&#45;buffered container for producer&#45;consumer patterns.">
<polygon fill="white" stroke="#666666" points="996.74,-206 841.74,-206 841.74,-176 996.74,-176 996.74,-206"/>
<text text-anchor="start" x="849.74" y="-194" font-family="Helvetica,sans-Serif" font-size="10.00">helios.core.buffer.ReadWrite</text>
<text text-anchor="middle" x="919.24" y="-183" font-family="Helvetica,sans-Serif" font-size="10.00">DoubleBuffer</text>
</a>
</g>
</g>
<!-- Node7&#45;&gt;Node10 -->
<g id="edge10_Node000007_Node000010" class="edge">
<title>Node7&#45;&gt;Node10</title>
<g id="a_edge10_Node000007_Node000010"><a xlink:title=" ">
<path fill="none" stroke="#63b8ff" d="M960.48,-241.8C953.69,-233.59 945,-223.1 937.35,-213.87"/>
<polygon fill="#63b8ff" stroke="#63b8ff" points="940.05,-211.63 930.97,-206.16 934.65,-216.1 940.05,-211.63"/>
</a>
</g>
</g>
<!-- Node11 -->
<g id="Node000011" class="node">
<title>Node11</title>
<g id="a_Node000011"><a xlink:href="ReadBuffer_8ixx.html" target="_top" xlink:title="Read&#45;only buffer for the double&#45;buffering pattern.">
<polygon fill="white" stroke="#666666" points="1148.24,-74 990.24,-74 990.24,-55 1148.24,-55 1148.24,-74"/>
<text text-anchor="middle" x="1069.24" y="-62" font-family="Helvetica,sans-Serif" font-size="10.00">helios.core.buffer.ReadBuffer</text>
</a>
</g>
</g>
<!-- Node7&#45;&gt;Node11 -->
<g id="edge24_Node000007_Node000011" class="edge">
<title>Node7&#45;&gt;Node11</title>
<g id="a_edge24_Node000007_Node000011"><a xlink:title=" ">
<path fill="none" stroke="#63b8ff" d="M997.4,-241.86C1027.88,-223.1 1077.7,-186.83 1098.24,-140 1106.82,-120.45 1094.62,-97.5 1083.51,-82.29"/>
<polygon fill="#63b8ff" stroke="#63b8ff" points="1086.19,-80.03 1077.27,-74.31 1080.68,-84.35 1086.19,-80.03"/>
</a>
</g>
</g>
<!-- Node12 -->
<g id="Node000012" class="node">
<title>Node12</title>
<g id="a_Node000012"><a xlink:href="WriteBuffer_8ixx.html" target="_top" xlink:title="Write&#45;only buffer for the double&#45;buffering pattern.">
<polygon fill="white" stroke="#666666" points="878.24,-140 748.24,-140 748.24,-110 878.24,-110 878.24,-140"/>
<text text-anchor="start" x="756.24" y="-128" font-family="Helvetica,sans-Serif" font-size="10.00">helios.core.buffer.Write</text>
<text text-anchor="middle" x="813.24" y="-117" font-family="Helvetica,sans-Serif" font-size="10.00">Buffer</text>
</a>
</g>
</g>
<!-- Node7&#45;&gt;Node12 -->
<g id="edge26_Node000007_Node000012" class="edge">
<title>Node7&#45;&gt;Node12</title>
<g id="a_edge26_Node000007_Node000012"><a xlink:title=" ">
<path fill="none" stroke="#63b8ff" d="M891.17,-241.9C869.4,-234.49 847.65,-223.21 832.24,-206 818.68,-190.85 814.32,-167.8 813.13,-150.32"/>
<polygon fill="#63b8ff" stroke="#63b8ff" points="816.63,-150.14 812.75,-140.28 809.63,-150.41 816.63,-150.14"/>
</a>
</g>
</g>
<!-- Node13 -->
<g id="Node000013" class="node">
<title>Node13</title>
<g id="a_Node000013"><a xlink:href="DoubleBuffer_8ixx.html" target="_top" xlink:title="Double&#45;buffered, type&#45;indexed message system for decoupled inter&#45;system communication.">
<polygon fill="white" stroke="#666666" points="1072.24,-140 934.24,-140 934.24,-110 1072.24,-110 1072.24,-140"/>
<text text-anchor="start" x="942.24" y="-128" font-family="Helvetica,sans-Serif" font-size="10.00">helios.core.buffer.Double</text>
<text text-anchor="middle" x="1003.24" y="-117" font-family="Helvetica,sans-Serif" font-size="10.00">Buffer</text>
</a>
</g>
</g>
<!-- Node7&#45;&gt;Node13 -->
<g id="edge25_Node000007_Node000013" class="edge">
<title>Node7&#45;&gt;Node13</title>
<g id="a_edge25_Node000007_Node000013"><a xlink:title=" ">
<path fill="none" stroke="#63b8ff" d="M985.23,-241.92C992.98,-232.51 1002.1,-219.44 1006.24,-206 1011.79,-187.98 1010.61,-166.58 1008.28,-150.46"/>
<polygon fill="#63b8ff" stroke="#63b8ff" points="1011.67,-149.52 1006.55,-140.24 1004.77,-150.68 1011.67,-149.52"/>
</a>
</g>
</g>
<!-- Node7&#45;&gt;Node14 -->
<g id="edge27_Node000007_Node000014" class="edge">
<title>Node7&#45;&gt;Node14</title>
<g id="a_edge27_Node000007_Node000014"><a xlink:title=" ">
<path fill="none" stroke="#63b8ff" d="M1048.61,-241.95C1113.54,-230.01 1205.28,-213.14 1263.77,-202.39"/>
<polygon fill="#63b8ff" stroke="#63b8ff" points="1264.73,-205.77 1273.93,-200.52 1263.46,-198.88 1264.73,-205.77"/>
</a>
</g>
</g>
<!-- Node10&#45;&gt;Node5 -->
<g id="edge12_Node000010_Node000005" class="edge">
<title>Node10&#45;&gt;Node5</title>
<g id="a_edge12_Node000010_Node000005"><a xlink:title=" ">
<path fill="none" stroke="#63b8ff" d="M996.76,-178.37C1029.81,-170.95 1067.7,-159.01 1098.24,-140 1131.64,-119.21 1138.03,-108.34 1157.24,-74 1165.06,-60.02 1170,-42.46 1172.87,-29.36"/>
<polygon fill="#63b8ff" stroke="#63b8ff" points="1176.38,-29.68 1174.89,-19.19 1169.51,-28.32 1176.38,-29.68"/>
</a>
</g>
</g>
<!-- Node10&#45;&gt;Node8 -->
<g id="edge11_Node000010_Node000008" class="edge">
<title>Node10&#45;&gt;Node8</title>
<g id="a_edge11_Node000010_Node000008"><a xlink:title=" ">
<path fill="none" stroke="#63b8ff" d="M852.37,-175.98C817.83,-167.62 775.45,-155.56 739.24,-140 700.37,-123.29 658.96,-96.31 635.18,-79.81"/>
<polygon fill="#63b8ff" stroke="#63b8ff" points="637.17,-76.93 626.98,-74.04 633.15,-82.66 637.17,-76.93"/>
</a>
</g>
</g>
<!-- Node10&#45;&gt;Node9 -->
<g id="edge13_Node000010_Node000009" class="edge">
<title>Node10&#45;&gt;Node9</title>
<g id="a_edge13_Node000010_Node000009"><a xlink:title=" ">
<path fill="none" stroke="#63b8ff" d="M916.46,-175.86C912.48,-158.67 903.75,-129.54 887.24,-110 851.64,-67.87 793.48,-38.48 757.11,-23.06"/>
<polygon fill="#63b8ff" stroke="#63b8ff" points="758.04,-19.66 747.46,-19.08 755.37,-26.13 758.04,-19.66"/>
</a>
</g>
</g>
<!-- Node10&#45;&gt;Node11 -->
<g id="edge14_Node000010_Node000011" class="edge">
<title>Node10&#45;&gt;Node11</title>
<g id="a_edge14_Node000010_Node000011"><a xlink:title=" ">
<path fill="none" stroke="#63b8ff" d="M996.77,-185.52C1028.21,-179.41 1061.67,-166.53 1081.24,-140 1093.35,-123.59 1086.29,-99.58 1078.9,-83.29"/>
<polygon fill="#63b8ff" stroke="#63b8ff" points="1082.01,-81.68 1074.43,-74.28 1075.74,-84.8 1082.01,-81.68"/>
</a>
</g>
</g>
<!-- Node10&#45;&gt;Node12 -->
<g id="edge17_Node000010_Node000012" class="edge">
<title>Node10&#45;&gt;Node12</title>
<g id="a_edge17_Node000010_Node000012"><a xlink:title=" ">
<path fill="none" stroke="#63b8ff" d="M895.98,-175.95C881.07,-166.95 861.51,-155.14 845.16,-145.27"/>
<polygon fill="#63b8ff" stroke="#63b8ff" points="846.82,-142.18 836.45,-140.01 843.2,-148.18 846.82,-142.18"/>
</a>
</g>
</g>
<!-- Node10&#45;&gt;Node13 -->
<g id="edge20_Node000010_Node000013" class="edge">
<title>Node10&#45;&gt;Node13</title>
<g id="a_edge20_Node000010_Node000013"><a xlink:title=" ">
<path fill="none" stroke="#63b8ff" d="M937.88,-175.8C949.19,-167.18 963.82,-156.04 976.36,-146.48"/>
<polygon fill="#63b8ff" stroke="#63b8ff" points="978.82,-149.01 984.65,-140.16 974.58,-143.44 978.82,-149.01"/>
</a>
</g>
</g>
<!-- Node11&#45;&gt;Node5 -->
<g id="edge15_Node000011_Node000005" class="edge">
<title>Node11&#45;&gt;Node5</title>
<g id="a_edge15_Node000011_Node000005"><a xlink:title=" ">
<path fill="none" stroke="#63b8ff" d="M1086.43,-54.98C1103.49,-46.54 1129.87,-33.47 1149.64,-23.68"/>
<polygon fill="#63b8ff" stroke="#63b8ff" points="1151.33,-26.75 1158.74,-19.17 1148.22,-20.47 1151.33,-26.75"/>
</a>
</g>
</g>
<!-- Node11&#45;&gt;Node9 -->
<g id="edge16_Node000011_Node000009" class="edge">
<title>Node11&#45;&gt;Node9</title>
<g id="a_edge16_Node000011_Node000009"><a xlink:title=" ">
<path fill="none" stroke="#63b8ff" d="M1013.81,-54.98C941.58,-43.89 817.49,-24.82 757.99,-15.68"/>
<polygon fill="#63b8ff" stroke="#63b8ff" points="758.41,-12.21 747.99,-14.15 757.35,-19.13 758.41,-12.21"/>
</a>
</g>
</g>
<!-- Node12&#45;&gt;Node9 -->
<g id="edge18_Node000012_Node000009" class="edge">
<title>Node12&#45;&gt;Node9</title>
<g id="a_edge18_Node000012_Node000009"><a xlink:title=" ">
<path fill="none" stroke="#63b8ff" d="M801.97,-109.63C785.45,-88.56 754.75,-49.4 737.28,-27.13"/>
<polygon fill="#63b8ff" stroke="#63b8ff" points="740.01,-24.94 731.09,-19.23 734.5,-29.26 740.01,-24.94"/>
</a>
</g>
</g>
<!-- Node12&#45;&gt;Node11 -->
<g id="edge19_Node000012_Node000011" class="edge">
<title>Node12&#45;&gt;Node11</title>
<g id="a_edge19_Node000012_Node000011"><a xlink:title=" ">
<path fill="none" stroke="#63b8ff" d="M874.56,-109.99C919.79,-99.65 980.44,-85.79 1021.95,-76.31"/>
<polygon fill="#63b8ff" stroke="#63b8ff" points="1022.84,-79.69 1031.81,-74.05 1021.28,-72.87 1022.84,-79.69"/>
</a>
</g>
</g>
<!-- Node13&#45;&gt;Node5 -->
<g id="edge22_Node000013_Node000005" class="edge">
<title>Node13&#45;&gt;Node5</title>
<g id="a_edge22_Node000013_Node000005"><a xlink:title=" ">
<path fill="none" stroke="#63b8ff" d="M991.78,-109.92C981.03,-94.9 968.39,-71.12 981.24,-55 1001.51,-29.58 1096.47,-17.54 1146,-12.9"/>
<polygon fill="#63b8ff" stroke="#63b8ff" points="1146.47,-16.38 1156.12,-12 1145.85,-9.4 1146.47,-16.38"/>
</a>
</g>
</g>
<!-- Node13&#45;&gt;Node8 -->
<g id="edge21_Node000013_Node000008" class="edge">
<title>Node13&#45;&gt;Node8</title>
<g id="a_edge21_Node000013_Node000008"><a xlink:title=" ">
<path fill="none" stroke="#63b8ff" d="M933.88,-113.54C852.36,-101.25 719.92,-81.28 654.44,-71.41"/>
<polygon fill="#63b8ff" stroke="#63b8ff" points="654.94,-67.95 644.53,-69.92 653.9,-74.87 654.94,-67.95"/>
</a>
</g>
</g>
<!-- Node13&#45;&gt;Node9 -->
<g id="edge23_Node000013_Node000009" class="edge">
<title>Node13&#45;&gt;Node9</title>
<g id="a_edge23_Node000013_Node000009"><a xlink:title=" ">
<path fill="none" stroke="#63b8ff" d="M986.1,-109.8C966.5,-94.23 932.88,-69.53 900.24,-55 853.07,-34 794.2,-21.65 757.92,-15.48"/>
<polygon fill="#63b8ff" stroke="#63b8ff" points="758.3,-12 747.86,-13.84 757.17,-18.91 758.3,-12"/>
</a>
</g>
</g>
<!-- Node15 -->
<g id="Node000015" class="node">
<title>Node15</title>
<g id="a_Node000015"><a xlink:title=" ">
<polygon fill="#e0e0e0" stroke="#999999" points="1345.24,-134.5 1295.24,-134.5 1295.24,-115.5 1345.24,-115.5 1345.24,-134.5"/>
<text text-anchor="middle" x="1320.24" y="-122.5" font-family="Helvetica,sans-Serif" font-size="10.00">atomic</text>
</a>
</g>
</g>
<!-- Node14&#45;&gt;Node15 -->
<g id="edge28_Node000014_Node000015" class="edge">
<title>Node14&#45;&gt;Node15</title>
<g id="a_edge28_Node000014_Node000015"><a xlink:title=" ">
<path fill="none" stroke="#63b8ff" d="M1320.24,-181.37C1320.24,-172.16 1320.24,-157.29 1320.24,-145.27"/>
<polygon fill="#63b8ff" stroke="#63b8ff" points="1323.74,-144.91 1320.24,-134.91 1316.74,-144.91 1323.74,-144.91"/>
</a>
</g>
</g>
<!-- Node17 -->
<g id="Node000017" class="node">
<title>Node17</title>
<g id="a_Node000017"><a xlink:href="GamepadState_8ixx.html" target="_top" xlink:title="Representation of current gamepad input state.">
<polygon fill="white" stroke="#666666" points="466.74,-272 293.74,-272 293.74,-242 466.74,-242 466.74,-272"/>
<text text-anchor="start" x="301.74" y="-260" font-family="Helvetica,sans-Serif" font-size="10.00">helios.input.gamepad.Gamepad</text>
<text text-anchor="middle" x="380.24" y="-249" font-family="Helvetica,sans-Serif" font-size="10.00">State</text>
</a>
</g>
</g>
<!-- Node16&#45;&gt;Node17 -->
<g id="edge31_Node000016_Node000017" class="edge">
<title>Node16&#45;&gt;Node17</title>
<g id="a_edge31_Node000016_Node000017"><a xlink:title=" ">
<path fill="none" stroke="#63b8ff" d="M441.67,-313.37C431.95,-304.61 416.53,-290.71 403.58,-279.04"/>
<polygon fill="#63b8ff" stroke="#63b8ff" points="405.67,-276.21 395.9,-272.12 400.99,-281.41 405.67,-276.21"/>
</a>
</g>
</g>
<!-- Node18 -->
<g id="Node000018" class="node">
<title>Node18</title>
<g id="a_Node000018"><a xlink:href="LogManager_8ixx.html" target="_top" xlink:title="Central manager for scoped loggers with configurable sinks.">
<polygon fill="white" stroke="#666666" points="381.24,-200.5 235.24,-200.5 235.24,-181.5 381.24,-181.5 381.24,-200.5"/>
<text text-anchor="middle" x="308.24" y="-188.5" font-family="Helvetica,sans-Serif" font-size="10.00">helios.util.log.LogManager</text>
</a>
</g>
</g>
<!-- Node17&#45;&gt;Node18 -->
<g id="edge32_Node000017_Node000018" class="edge">
<title>Node17&#45;&gt;Node18</title>
<g id="a_edge32_Node000017_Node000018"><a xlink:title=" ">
<path fill="none" stroke="#63b8ff" d="M364.26,-241.8C352.93,-231.72 337.71,-218.19 326,-207.78"/>
<polygon fill="#63b8ff" stroke="#63b8ff" points="327.99,-204.87 318.19,-200.84 323.34,-210.1 327.99,-204.87"/>
</a>
</g>
</g>
<!-- Node23 -->
<g id="Node000023" class="node">
<title>Node23</title>
<g id="a_Node000023"><a xlink:href="Logger_8ixx.html" target="_top" xlink:title="Simple synchronous logger with configurable output sinks.">
<polygon fill="white" stroke="#666666" points="247.74,-134.5 128.74,-134.5 128.74,-115.5 247.74,-115.5 247.74,-134.5"/>
<text text-anchor="middle" x="188.24" y="-122.5" font-family="Helvetica,sans-Serif" font-size="10.00">helios.util.log.Logger</text>
</a>
</g>
</g>
<!-- Node17&#45;&gt;Node23 -->
<g id="edge47_Node000017_Node000023" class="edge">
<title>Node17&#45;&gt;Node23</title>
<g id="a_edge47_Node000017_Node000023"><a xlink:title=" ">
<path fill="none" stroke="#63b8ff" d="M296.34,-241.98C271.58,-234.57 245.89,-223.25 226.24,-206 207.79,-189.79 197.57,-162.66 192.49,-144.55"/>
<polygon fill="#63b8ff" stroke="#63b8ff" points="195.88,-143.67 190.02,-134.85 189.1,-145.4 195.88,-143.67"/>
</a>
</g>
</g>
<!-- Node25 -->
<g id="Node000025" class="node">
<title>Node25</title>
<g id="a_Node000025"><a xlink:href="helios_2math_2types_2__module_8ixx.html" target="_top" xlink:title="Module exports for vector and matrix type definitions.">
<polygon fill="white" stroke="#666666" points="503.24,-200.5 399.24,-200.5 399.24,-181.5 503.24,-181.5 503.24,-200.5"/>
<text text-anchor="middle" x="451.24" y="-188.5" font-family="Helvetica,sans-Serif" font-size="10.00">helios.math.types</text>
</a>
</g>
</g>
<!-- Node17&#45;&gt;Node25 -->
<g id="edge48_Node000017_Node000025" class="edge">
<title>Node17&#45;&gt;Node25</title>
<g id="a_edge48_Node000017_Node000025"><a xlink:title=" ">
<path fill="none" stroke="#63b8ff" d="M396,-241.8C407.18,-231.72 422.18,-218.19 433.73,-207.78"/>
<polygon fill="#63b8ff" stroke="#63b8ff" points="436.35,-210.14 441.43,-200.84 431.66,-204.94 436.35,-210.14"/>
</a>
</g>
</g>
<!-- Node18&#45;&gt;Node8 -->
<g id="edge36_Node000018_Node000008" class="edge">
<title>Node18&#45;&gt;Node8</title>
<g id="a_edge36_Node000018_Node000008"><a xlink:title=" ">
<path fill="none" stroke="#63b8ff" d="M357.7,-181.46C423.32,-169.87 532.84,-149.51 549.24,-140 573.46,-125.96 593.46,-99.86 604.88,-82.58"/>
<polygon fill="#63b8ff" stroke="#63b8ff" points="607.91,-84.34 610.31,-74.02 602,-80.59 607.91,-84.34"/>
</a>
</g>
</g>
<!-- Node18&#45;&gt;Node9 -->
<g id="edge38_Node000018_Node000009" class="edge">
<title>Node18&#45;&gt;Node9</title>
<g id="a_edge38_Node000018_Node000009"><a xlink:title=" ">
<path fill="none" stroke="#63b8ff" d="M308.35,-181.1C309.04,-164.61 312.96,-129.22 333.24,-110 385.41,-60.56 605.21,-26.44 690.35,-14.86"/>
<polygon fill="#63b8ff" stroke="#63b8ff" points="691.07,-18.29 700.52,-13.49 690.14,-11.35 691.07,-18.29"/>
</a>
</g>
</g>
<!-- Node19 -->
<g id="Node000019" class="node">
<title>Node19</title>
<g id="a_Node000019"><a xlink:title=" ">
<polygon fill="#e0e0e0" stroke="#999999" points="135.24,-19 91.24,-19 91.24,0 135.24,0 135.24,-19"/>
<text text-anchor="middle" x="113.24" y="-7" font-family="Helvetica,sans-Serif" font-size="10.00">string</text>
</a>
</g>
</g>
<!-- Node18&#45;&gt;Node19 -->
<g id="edge33_Node000018_Node000019" class="edge">
<title>Node18&#45;&gt;Node19</title>
<g id="a_edge33_Node000018_Node000019"><a xlink:title=" ">
<path fill="none" stroke="#63b8ff" d="M234.98,-182.15C194.61,-175.4 144.81,-162.93 105.24,-140 64.55,-116.43 19.47,-96.14 42.24,-55 50.74,-39.65 66.98,-28.89 81.79,-21.8"/>
<polygon fill="#63b8ff" stroke="#63b8ff" points="83.47,-24.88 91.22,-17.66 80.66,-18.47 83.47,-24.88"/>
</a>
</g>
</g>
<!-- Node20 -->
<g id="Node000020" class="node">
<title>Node20</title>
<g id="a_Node000020"><a xlink:title=" ">
<polygon fill="#e0e0e0" stroke="#999999" points="435.74,-134.5 342.74,-134.5 342.74,-115.5 435.74,-115.5 435.74,-134.5"/>
<text text-anchor="middle" x="389.24" y="-122.5" font-family="Helvetica,sans-Serif" font-size="10.00">unordered_map</text>
</a>
</g>
</g>
<!-- Node18&#45;&gt;Node20 -->
<g id="edge34_Node000018_Node000020" class="edge">
<title>Node18&#45;&gt;Node20</title>
<g id="a_edge34_Node000018_Node000020"><a xlink:title=" ">
<path fill="none" stroke="#63b8ff" d="M319.17,-181.37C332.21,-171.06 354.25,-153.65 370.14,-141.09"/>
<polygon fill="#63b8ff" stroke="#63b8ff" points="372.56,-143.64 378.23,-134.7 368.22,-138.15 372.56,-143.64"/>
</a>
</g>
</g>
<!-- Node21 -->
<g id="Node000021" class="node">
<title>Node21</title>
<g id="a_Node000021"><a xlink:title=" ">
<polygon fill="#e0e0e0" stroke="#999999" points="540.24,-134.5 454.24,-134.5 454.24,-115.5 540.24,-115.5 540.24,-134.5"/>
<text text-anchor="middle" x="497.24" y="-122.5" font-family="Helvetica,sans-Serif" font-size="10.00">unordered_set</text>
</a>
</g>
</g>
<!-- Node18&#45;&gt;Node21 -->
<g id="edge35_Node000018_Node000021" class="edge">
<title>Node18&#45;&gt;Node21</title>
<g id="a_edge35_Node000018_Node000021"><a xlink:title=" ">
<path fill="none" stroke="#63b8ff" d="M333.73,-181.37C366.8,-170.17 424.64,-150.58 461.92,-137.96"/>
<polygon fill="#63b8ff" stroke="#63b8ff" points="463.51,-141.12 471.86,-134.6 461.26,-134.49 463.51,-141.12"/>
</a>
</g>
</g>
<!-- Node22 -->
<g id="Node000022" class="node">
<title>Node22</title>
<g id="a_Node000022"><a xlink:title=" ">
<polygon fill="#e0e0e0" stroke="#999999" points="317.24,-74 269.24,-74 269.24,-55 317.24,-55 317.24,-74"/>
<text text-anchor="middle" x="293.24" y="-62" font-family="Helvetica,sans-Serif" font-size="10.00">mutex</text>
</a>
</g>
</g>
<!-- Node18&#45;&gt;Node22 -->
<g id="edge37_Node000018_Node000022" class="edge">
<title>Node18&#45;&gt;Node22</title>
<g id="a_edge37_Node000018_Node000022"><a xlink:title=" ">
<path fill="none" stroke="#63b8ff" d="M306.65,-181.17C304.9,-171.2 302.08,-154.48 300.24,-140 297.85,-121.1 295.9,-99.41 294.67,-84.33"/>
<polygon fill="#63b8ff" stroke="#63b8ff" points="298.15,-83.93 293.88,-74.24 291.17,-84.48 298.15,-83.93"/>
</a>
</g>
</g>
<!-- Node18&#45;&gt;Node23 -->
<g id="edge39_Node000018_Node000023" class="edge">
<title>Node18&#45;&gt;Node23</title>
<g id="a_edge39_Node000018_Node000023"><a xlink:title=" ">
<path fill="none" stroke="#63b8ff" d="M292.06,-181.37C271.93,-170.63 237.33,-152.18 213.65,-139.55"/>
<polygon fill="#63b8ff" stroke="#63b8ff" points="215.02,-136.32 204.55,-134.7 211.73,-142.49 215.02,-136.32"/>
</a>
</g>
</g>
<!-- Node24 -->
<g id="Node000024" class="node">
<title>Node24</title>
<g id="a_Node000024"><a xlink:href="LogSink_8ixx.html" target="_top" xlink:title="Abstract interface for log output destinations.">
<polygon fill="white" stroke="#666666" points="175.24,-74 51.24,-74 51.24,-55 175.24,-55 175.24,-74"/>
<text text-anchor="middle" x="113.24" y="-62" font-family="Helvetica,sans-Serif" font-size="10.00">helios.util.log.LogSink</text>
</a>
</g>
</g>
<!-- Node18&#45;&gt;Node24 -->
<g id="edge46_Node000018_Node000024" class="edge">
<title>Node18&#45;&gt;Node24</title>
<g id="a_edge46_Node000018_Node000024"><a xlink:title=" ">
<path fill="none" stroke="#63b8ff" d="M246.26,-181.43C197.65,-173.34 135.57,-159.53 119.24,-140 106.39,-124.63 106.86,-100.71 109.25,-84.13"/>
<polygon fill="#63b8ff" stroke="#63b8ff" points="112.75,-84.49 111.08,-74.03 105.86,-83.25 112.75,-84.49"/>
</a>
</g>
</g>
<!-- Node23&#45;&gt;Node8 -->
<g id="edge42_Node000023_Node000008" class="edge">
<title>Node23&#45;&gt;Node8</title>
<g id="a_edge42_Node000023_Node000008"><a xlink:title=" ">
<path fill="none" stroke="#63b8ff" d="M248.06,-115.8C336.85,-103.64 501.05,-81.14 576.04,-70.87"/>
<polygon fill="#63b8ff" stroke="#63b8ff" points="576.58,-74.33 586.02,-69.5 575.63,-67.39 576.58,-74.33"/>
</a>
</g>
</g>
<!-- Node23&#45;&gt;Node9 -->
<g id="edge41_Node000023_Node000009" class="edge">
<title>Node23&#45;&gt;Node9</title>
<g id="a_edge41_Node000023_Node000009"><a xlink:title=" ">
<path fill="none" stroke="#63b8ff" d="M194.17,-115.34C205.16,-100.08 230.34,-68.71 260.24,-55 337.01,-19.81 597,-12.42 690.45,-10.89"/>
<polygon fill="#63b8ff" stroke="#63b8ff" points="690.54,-14.39 700.49,-10.74 690.44,-7.39 690.54,-14.39"/>
</a>
</g>
</g>
<!-- Node23&#45;&gt;Node19 -->
<g id="edge40_Node000023_Node000019" class="edge">
<title>Node23&#45;&gt;Node19</title>
<g id="a_edge40_Node000023_Node000019"><a xlink:title=" ">
<path fill="none" stroke="#63b8ff" d="M190.14,-115.2C192.63,-101.33 195.49,-74 184.24,-55 175.37,-40.01 159.26,-29.3 144.62,-22.16"/>
<polygon fill="#63b8ff" stroke="#63b8ff" points="145.87,-18.88 135.31,-17.96 142.99,-25.26 145.87,-18.88"/>
</a>
</g>
</g>
<!-- Node23&#45;&gt;Node22 -->
<g id="edge43_Node000023_Node000022" class="edge">
<title>Node23&#45;&gt;Node22</title>
<g id="a_edge43_Node000023_Node000022"><a xlink:title=" ">
<path fill="none" stroke="#63b8ff" d="M203.74,-115.37C220.87,-105.82 248.72,-90.31 268.8,-79.12"/>
<polygon fill="#63b8ff" stroke="#63b8ff" points="270.65,-82.09 277.69,-74.17 267.25,-75.98 270.65,-82.09"/>
</a>
</g>
</g>
<!-- Node23&#45;&gt;Node24 -->
<g id="edge44_Node000023_Node000024" class="edge">
<title>Node23&#45;&gt;Node24</title>
<g id="a_edge44_Node000023_Node000024"><a xlink:title=" ">
<path fill="none" stroke="#63b8ff" d="M177.18,-115.37C165.43,-106.21 146.65,-91.56 132.48,-80.51"/>
<polygon fill="#63b8ff" stroke="#63b8ff" points="134.39,-77.56 124.35,-74.17 130.09,-83.08 134.39,-77.56"/>
</a>
</g>
</g>
<!-- Node24&#45;&gt;Node19 -->
<g id="edge45_Node000024_Node000019" class="edge">
<title>Node24&#45;&gt;Node19</title>
<g id="a_edge45_Node000024_Node000019"><a xlink:title=" ">
<path fill="none" stroke="#63b8ff" d="M113.24,-54.75C113.24,-47.8 113.24,-37.85 113.24,-29.13"/>
<polygon fill="#63b8ff" stroke="#63b8ff" points="116.74,-29.09 113.24,-19.09 109.74,-29.09 116.74,-29.09"/>
</a>
</g>
</g>
<!-- Node25&#45;&gt;Node25 -->
<g id="edge49_Node000025_Node000025" class="edge">
<title>Node25&#45;&gt;Node25</title>
<g id="a_edge49_Node000025_Node000025"><a xlink:title=" ">
<path fill="none" stroke="#63b8ff" d="M473.1,-200.56C495.81,-206.37 521.24,-203.18 521.24,-191 521.24,-180.58 502.63,-176.74 483.03,-179.48"/>
<polygon fill="#63b8ff" stroke="#63b8ff" points="482.24,-176.07 473.1,-181.44 483.59,-182.94 482.24,-176.07"/>
</a>
</g>
</g>
<!-- Node27 -->
<g id="Node000027" class="node">
<title>Node27</title>
<g id="a_Node000027"><a xlink:href="Updatable_8ixx.html" target="_top" xlink:title="Interface for components that require per&#45;frame updates.">
<polygon fill="white" stroke="#666666" points="852.74,-459 697.74,-459 697.74,-440 852.74,-440 852.74,-459"/>
<text text-anchor="middle" x="775.24" y="-447" font-family="Helvetica,sans-Serif" font-size="10.00">helios.engine.ecs.Updatable</text>
</a>
</g>
</g>
<!-- Node26&#45;&gt;Node27 -->
<g id="edge51_Node000026_Node000027" class="edge">
<title>Node26&#45;&gt;Node27</title>
<g id="a_edge51_Node000026_Node000027"><a xlink:title=" ">
<path fill="none" stroke="#63b8ff" d="M775.24,-494.75C775.24,-487.8 775.24,-477.85 775.24,-469.13"/>
<polygon fill="#63b8ff" stroke="#63b8ff" points="778.74,-469.09 775.24,-459.09 771.74,-469.09 778.74,-469.09"/>
</a>
</g>
</g>
<!-- Node27&#45;&gt;Node4 -->
<g id="edge52_Node000027_Node000004" class="edge">
<title>Node27&#45;&gt;Node4</title>
<g id="a_edge52_Node000027_Node000004"><a xlink:title=" ">
<path fill="none" stroke="#63b8ff" d="M790.88,-439.87C805.53,-431.78 827.93,-419.42 846.76,-409.03"/>
<polygon fill="#63b8ff" stroke="#63b8ff" points="848.6,-412.01 855.67,-404.11 845.22,-405.88 848.6,-412.01"/>
</a>
</g>
</g>
<!-- Node28&#45;&gt;Node8 -->
<g id="edge54_Node000028_Node000008" class="edge">
<title>Node28&#45;&gt;Node8</title>
<g id="a_edge54_Node000028_Node000008"><a xlink:title=" ">
<path fill="none" stroke="#63b8ff" d="M606.24,-549.67C606.24,-528.14 606.24,-486.17 606.24,-450.5 606.24,-450.5 606.24,-450.5 606.24,-190 606.24,-152.4 610.38,-108.57 613.04,-84.23"/>
<polygon fill="#63b8ff" stroke="#63b8ff" points="616.53,-84.57 614.17,-74.24 609.57,-83.78 616.53,-84.57"/>
</a>
</g>
</g>
<!-- Node28&#45;&gt;Node9 -->
<g id="edge55_Node000028_Node000009" class="edge">
<title>Node28&#45;&gt;Node9</title>
<g id="a_edge55_Node000028_Node000009"><a xlink:title=" ">
<path fill="none" stroke="#63b8ff" d="M566.32,-549.99C408.07,-492.5 -157.05,-267.72 42.24,-55 86.87,-7.36 558.74,-8.74 690.34,-10.07"/>
<polygon fill="#63b8ff" stroke="#63b8ff" points="690.57,-13.57 700.61,-10.18 690.65,-6.57 690.57,-13.57"/>
</a>
</g>
</g>
<!-- Node28&#45;&gt;Node26 -->
<g id="edge57_Node000028_Node000026" class="edge">
<title>Node28&#45;&gt;Node26</title>
<g id="a_edge57_Node000028_Node000026"><a xlink:title=" ">
<path fill="none" stroke="#63b8ff" d="M646.72,-549.99C675.42,-540.05 713.52,-526.86 740.77,-517.43"/>
<polygon fill="#63b8ff" stroke="#63b8ff" points="741.98,-520.72 750.28,-514.14 739.69,-514.1 741.98,-520.72"/>
</a>
</g>
</g>
<!-- Node29 -->
<g id="Node000029" class="node">
<title>Node29</title>
<g id="a_Node000029"><a xlink:title=" ">
<polygon fill="#e0e0e0" stroke="#999999" points="686.24,-514 634.24,-514 634.24,-495 686.24,-495 686.24,-514"/>
<text text-anchor="middle" x="660.24" y="-502" font-family="Helvetica,sans-Serif" font-size="10.00">cassert</text>
</a>
</g>
</g>
<!-- Node28&#45;&gt;Node29 -->
<g id="edge56_Node000028_Node000029" class="edge">
<title>Node28&#45;&gt;Node29</title>
<g id="a_edge56_Node000028_Node000029"><a xlink:title=" ">
<path fill="none" stroke="#63b8ff" d="M619.31,-549.84C627.15,-541.35 637.15,-530.52 645.3,-521.69"/>
<polygon fill="#63b8ff" stroke="#63b8ff" points="647.94,-523.99 652.15,-514.27 642.8,-519.24 647.94,-523.99"/>
</a>
</g>
</g>
<!-- Node30&#45;&gt;Node3 -->
<g id="edge60_Node000030_Node000003" class="edge">
<title>Node30&#45;&gt;Node3</title>
<g id="a_edge60_Node000030_Node000003"><a xlink:title=" ">
<path fill="none" stroke="#63b8ff" d="M331.34,-549.99C294.32,-539.16 244.09,-524.47 211.66,-514.98"/>
<polygon fill="#63b8ff" stroke="#63b8ff" points="212.38,-511.55 201.8,-512.1 210.42,-518.27 212.38,-511.55"/>
</a>
</g>
</g>
<!-- Node31 -->
<g id="Node000031" class="node">
<title>Node31</title>
<g id="a_Node000031"><a xlink:title=" ">
<polygon fill="#e0e0e0" stroke="#999999" points="270.24,-514 220.24,-514 220.24,-495 270.24,-495 270.24,-514"/>
<text text-anchor="middle" x="245.24" y="-502" font-family="Helvetica,sans-Serif" font-size="10.00">cstdint</text>
</a>
</g>
</g>
<!-- Node30&#45;&gt;Node31 -->
<g id="edge59_Node000030_Node000031" class="edge">
<title>Node30&#45;&gt;Node31</title>
<g id="a_edge59_Node000030_Node000031"><a xlink:title=" ">
<path fill="none" stroke="#63b8ff" d="M347.15,-549.99C324.99,-540.31 295.77,-527.56 274.3,-518.18"/>
<polygon fill="#63b8ff" stroke="#63b8ff" points="275.6,-514.93 265.03,-514.14 272.8,-521.35 275.6,-514.93"/>
</a>
</g>
</g>
</g>
</svg>
