<?xml version="1.0" encoding="UTF-8" standalone="no"?>
<!DOCTYPE svg PUBLIC "-//W3C//DTD SVG 1.1//EN"
 "http://www.w3.org/Graphics/SVG/1.1/DTD/svg11.dtd">
<!-- Generated by graphviz version 2.43.0 (0)
 -->
<!-- Title: ReadWriteDoubleBuffer.ixx Pages: 1 -->
<svg width="446pt" height="214pt"
 viewBox="0.00 0.00 445.93 214.00" xmlns="http://www.w3.org/2000/svg" xmlns:xlink="http://www.w3.org/1999/xlink">
<g id="graph0" class="graph" transform="scale(1 1) rotate(0) translate(4 210)">
<title>ReadWriteDoubleBuffer.ixx</title>
<!-- Node1 -->
<g id="Node000001" class="node">
<title>Node1</title>
<g id="a_Node000001"><a xlink:title="Type&#45;safe double&#45;buffered container for producer&#45;consumer patterns.">
<polygon fill="#999999" stroke="#666666" points="260.87,-206 111.87,-206 111.87,-187 260.87,-187 260.87,-206"/>
<text text-anchor="middle" x="186.37" y="-194" font-family="Helvetica,sans-Serif" font-size="10.00">ReadWriteDoubleBuffer.ixx</text>
</a>
</g>
</g>
<!-- Node2 -->
<g id="Node000002" class="node">
<title>Node2</title>
<g id="a_Node000002"><a xlink:title=" ">
<polygon fill="#e0e0e0" stroke="#999999" points="78.37,-79.5 20.37,-79.5 20.37,-60.5 78.37,-60.5 78.37,-79.5"/>
<text text-anchor="middle" x="49.37" y="-67.5" font-family="Helvetica,sans-Serif" font-size="10.00">memory</text>
</a>
</g>
</g>
<!-- Node1&#45;&gt;Node2 -->
<g id="edge1_Node000001_Node000002" class="edge">
<title>Node1&#45;&gt;Node2</title>
<g id="a_edge1_Node000001_Node000002"><a xlink:title=" ">
<path fill="none" stroke="#63b8ff" d="M111.77,-188.51C87.95,-182.33 64,-171.13 49.37,-151 36.58,-133.4 39.45,-107.37 43.6,-89.83"/>
<polygon fill="#63b8ff" stroke="#63b8ff" points="47.11,-90.27 46.36,-79.7 40.35,-88.43 47.11,-90.27"/>
</a>
</g>
</g>
<!-- Node3 -->
<g id="Node000003" class="node">
<title>Node3</title>
<g id="a_Node000003"><a xlink:title=" ">
<polygon fill="#e0e0e0" stroke="#999999" points="126.37,-19 86.37,-19 86.37,0 126.37,0 126.37,-19"/>
<text text-anchor="middle" x="106.37" y="-7" font-family="Helvetica,sans-Serif" font-size="10.00">span</text>
</a>
</g>
</g>
<!-- Node1&#45;&gt;Node3 -->
<g id="edge2_Node000001_Node000003" class="edge">
<title>Node1&#45;&gt;Node3</title>
<g id="a_edge2_Node000001_Node000003"><a xlink:title=" ">
<path fill="none" stroke="#63b8ff" d="M111.65,-187.22C85.16,-180.96 56.87,-170.04 36.37,-151 4.07,-120.99 -12.28,-92.21 11.37,-55 25.55,-32.71 54.15,-21.39 76.29,-15.77"/>
<polygon fill="#63b8ff" stroke="#63b8ff" points="77.26,-19.14 86.24,-13.51 75.71,-12.31 77.26,-19.14"/>
</a>
</g>
</g>
<!-- Node4 -->
<g id="Node000004" class="node">
<title>Node4</title>
<g id="a_Node000004"><a xlink:title=" ">
<polygon fill="#e0e0e0" stroke="#999999" points="323.87,-19 276.87,-19 276.87,0 323.87,0 323.87,-19"/>
<text text-anchor="middle" x="300.37" y="-7" font-family="Helvetica,sans-Serif" font-size="10.00">vector</text>
</a>
</g>
</g>
<!-- Node1&#45;&gt;Node4 -->
<g id="edge3_Node000001_Node000004" class="edge">
<title>Node1&#45;&gt;Node4</title>
<g id="a_edge3_Node000001_Node000004"><a xlink:title=" ">
<path fill="none" stroke="#63b8ff" d="M260.99,-191.91C323.73,-187.13 406.45,-176.14 427.37,-151 467.6,-102.67 376.84,-48.13 328.36,-23.64"/>
<polygon fill="#63b8ff" stroke="#63b8ff" points="329.79,-20.45 319.28,-19.15 326.69,-26.72 329.79,-20.45"/>
</a>
</g>
</g>
<!-- Node5 -->
<g id="Node000005" class="node">
<title>Node5</title>
<g id="a_Node000005"><a xlink:href="ReadBuffer_8ixx.html" target="_top" xlink:title="Read&#45;only buffer for the double&#45;buffering pattern.">
<polygon fill="white" stroke="#666666" points="324.37,-85 172.37,-85 172.37,-55 324.37,-55 324.37,-85"/>
<text text-anchor="start" x="180.37" y="-73" font-family="Helvetica,sans-Serif" font-size="10.00">helios.core.container.buffer.</text>
<text text-anchor="middle" x="248.37" y="-62" font-family="Helvetica,sans-Serif" font-size="10.00">ReadBuffer</text>
</a>
</g>
</g>
<!-- Node1&#45;&gt;Node5 -->
<g id="edge4_Node000001_Node000005" class="edge">
<title>Node1&#45;&gt;Node5</title>
<g id="a_edge4_Node000001_Node000005"><a xlink:title=" ">
<path fill="none" stroke="#63b8ff" d="M194.02,-186.81C201.3,-178.2 212.18,-164.39 219.37,-151 229.01,-133.06 236.67,-111.26 241.7,-94.94"/>
<polygon fill="#63b8ff" stroke="#63b8ff" points="245.13,-95.69 244.61,-85.11 238.42,-93.7 245.13,-95.69"/>
</a>
</g>
</g>
<!-- Node6 -->
<g id="Node000006" class="node">
<title>Node6</title>
<g id="a_Node000006"><a xlink:href="WriteBuffer_8ixx.html" target="_top" xlink:title="Write&#45;only buffer for the double&#45;buffering pattern.">
<polygon fill="white" stroke="#666666" points="418.37,-151 266.37,-151 266.37,-121 418.37,-121 418.37,-151"/>
<text text-anchor="start" x="274.37" y="-139" font-family="Helvetica,sans-Serif" font-size="10.00">helios.core.container.buffer.</text>
<text text-anchor="middle" x="342.37" y="-128" font-family="Helvetica,sans-Serif" font-size="10.00">WriteBuffer</text>
</a>
</g>
</g>
<!-- Node1&#45;&gt;Node6 -->
<g id="edge7_Node000001_Node000006" class="edge">
<title>Node1&#45;&gt;Node6</title>
<g id="a_edge7_Node000001_Node000006"><a xlink:title=" ">
<path fill="none" stroke="#63b8ff" d="M209.06,-186.99C231.61,-178.54 266.86,-165.32 295.46,-154.59"/>
<polygon fill="#63b8ff" stroke="#63b8ff" points="296.74,-157.85 304.87,-151.06 294.28,-151.3 296.74,-157.85"/>
</a>
</g>
</g>
<!-- Node7 -->
<g id="Node000007" class="node">
<title>Node7</title>
<g id="a_Node000007"><a xlink:href="DoubleBuffer_8ixx.html" target="_top" xlink:title="Double&#45;buffered, type&#45;indexed message system for decoupled inter&#45;system communication.">
<polygon fill="white" stroke="#666666" points="210.37,-151 58.37,-151 58.37,-121 210.37,-121 210.37,-151"/>
<text text-anchor="start" x="66.37" y="-139" font-family="Helvetica,sans-Serif" font-size="10.00">helios.core.container.buffer.</text>
<text text-anchor="middle" x="134.37" y="-128" font-family="Helvetica,sans-Serif" font-size="10.00">DoubleBuffer</text>
</a>
</g>
</g>
<!-- Node1&#45;&gt;Node7 -->
<g id="edge10_Node000001_Node000007" class="edge">
<title>Node1&#45;&gt;Node7</title>
<g id="a_edge10_Node000001_Node000007"><a xlink:title=" ">
<path fill="none" stroke="#63b8ff" d="M178.7,-186.87C172.1,-179.44 162.3,-168.42 153.59,-158.62"/>
<polygon fill="#63b8ff" stroke="#63b8ff" points="156.18,-156.26 146.92,-151.11 150.95,-160.91 156.18,-156.26"/>
</a>
</g>
</g>
<!-- Node5&#45;&gt;Node3 -->
<g id="edge5_Node000005_Node000003" class="edge">
<title>Node5&#45;&gt;Node3</title>
<g id="a_edge5_Node000005_Node000003"><a xlink:title=" ">
<path fill="none" stroke="#63b8ff" d="M214.36,-54.99C190.49,-45.15 158.88,-32.13 136.03,-22.72"/>
<polygon fill="#63b8ff" stroke="#63b8ff" points="137.1,-19.37 126.52,-18.8 134.43,-25.84 137.1,-19.37"/>
</a>
</g>
</g>
<!-- Node5&#45;&gt;Node4 -->
<g id="edge6_Node000005_Node000004" class="edge">
<title>Node5&#45;&gt;Node4</title>
<g id="a_edge6_Node000005_Node000004"><a xlink:title=" ">
<path fill="none" stroke="#63b8ff" d="M260.96,-54.84C268.43,-46.43 277.94,-35.74 285.74,-26.96"/>
<polygon fill="#63b8ff" stroke="#63b8ff" points="288.55,-29.07 292.58,-19.27 283.32,-24.41 288.55,-29.07"/>
</a>
</g>
</g>
<!-- Node6&#45;&gt;Node4 -->
<g id="edge8_Node000006_Node000004" class="edge">
<title>Node6&#45;&gt;Node4</title>
<g id="a_edge8_Node000006_Node000004"><a xlink:title=" ">
<path fill="none" stroke="#63b8ff" d="M342.96,-120.88C343.16,-104.47 341.98,-76.85 333.37,-55 329.34,-44.75 322.31,-34.76 315.77,-26.85"/>
<polygon fill="#63b8ff" stroke="#63b8ff" points="318.26,-24.38 309.03,-19.17 313,-29 318.26,-24.38"/>
</a>
</g>
</g>
<!-- Node6&#45;&gt;Node5 -->
<g id="edge9_Node000006_Node000005" class="edge">
<title>Node6&#45;&gt;Node5</title>
<g id="a_edge9_Node000006_Node000005"><a xlink:title=" ">
<path fill="none" stroke="#63b8ff" d="M321.51,-120.8C308.61,-112.01 291.86,-100.61 277.64,-90.93"/>
<polygon fill="#63b8ff" stroke="#63b8ff" points="279.41,-87.9 269.18,-85.16 275.47,-93.69 279.41,-87.9"/>
</a>
</g>
</g>
<!-- Node7&#45;&gt;Node2 -->
<g id="edge11_Node000007_Node000002" class="edge">
<title>Node7&#45;&gt;Node2</title>
<g id="a_edge11_Node000007_Node000002"><a xlink:title=" ">
<path fill="none" stroke="#63b8ff" d="M115.51,-120.8C101.74,-110.43 83.11,-96.4 69.14,-85.88"/>
<polygon fill="#63b8ff" stroke="#63b8ff" points="71.21,-83.06 61.12,-79.84 67,-88.66 71.21,-83.06"/>
</a>
</g>
</g>
<!-- Node7&#45;&gt;Node3 -->
<g id="edge12_Node000007_Node000003" class="edge">
<title>Node7&#45;&gt;Node3</title>
<g id="a_edge12_Node000007_Node000003"><a xlink:title=" ">
<path fill="none" stroke="#63b8ff" d="M131.16,-120.72C126.08,-98.12 116.18,-54.12 110.56,-29.09"/>
<polygon fill="#63b8ff" stroke="#63b8ff" points="113.91,-28.06 108.3,-19.07 107.08,-29.59 113.91,-28.06"/>
</a>
</g>
</g>
<!-- Node7&#45;&gt;Node4 -->
<g id="edge13_Node000007_Node000004" class="edge">
<title>Node7&#45;&gt;Node4</title>
<g id="a_edge13_Node000007_Node000004"><a xlink:title=" ">
<path fill="none" stroke="#63b8ff" d="M135.75,-120.83C138.22,-103.05 145,-72.77 163.37,-55 191.36,-27.94 235.96,-17.34 266.62,-13.18"/>
<polygon fill="#63b8ff" stroke="#63b8ff" points="267.32,-16.62 276.84,-11.96 266.5,-9.67 267.32,-16.62"/>
</a>
</g>
</g>
</g>
</svg>
