<?xml version="1.0" encoding="UTF-8" standalone="no"?>
<!DOCTYPE svg PUBLIC "-//W3C//DTD SVG 1.1//EN"
 "http://www.w3.org/Graphics/SVG/1.1/DTD/svg11.dtd">
<!-- Generated by graphviz version 2.43.0 (0)
 -->
<!-- Title: include/helios/rendering/RenderPrototype.ixx Pages: 1 -->
<!--zoomable 346 -->

<svg id="main" version="1.1" xmlns="http://www.w3.org/2000/svg" xmlns:xlink="http://www.w3.org/1999/xlink" xml:space="preserve" onload="init(evt)">

<style type="text/css"><![CDATA[
.node, .edge {opacity: 0.7;}
.node.selected, .edge.selected {opacity: 1;}
.edge:hover path { stroke: red; }
.edge:hover polygon { stroke: red; fill: red; }
]]></style>

<defs>
  <circle id="rim" cx="0" cy="0" r="7"/>
  <circle id="rim2" cx="0" cy="0" r="3.5"/>
  <g id="zoomPlus">
    <use xlink:href="#rim" fill="#404040"><set attributeName="fill" to="#808080" begin="zoomplus.mouseover" end="zoomplus.mouseout"/></use>
    <path d="M-4,0h8M0,-4v8" fill="none" stroke="white" stroke-width="1.5" pointer-events="none"/>
  </g>
  <g id="zoomMin">
    <use xlink:href="#rim" fill="#404040"><set attributeName="fill" to="#808080" begin="zoomminus.mouseover" end="zoomminus.mouseout"/></use>
    <path d="M-4,0h8" fill="none" stroke="white" stroke-width="1.5" pointer-events="none"/>
  </g>
  <g id="arrowUp" transform="translate(30 24)">
    <use xlink:href="#rim"/>
    <path pointer-events="none" fill="none" stroke="white" stroke-width="1.5" d="M0,-3.0v7 M-2.5,-0.5L0,-3.0L2.5,-0.5"/>
  </g>
  <g id="arrowRight" transform="rotate(90) translate(36 -43)">
    <use xlink:href="#rim"/>
    <path pointer-events="none" fill="none" stroke="white" stroke-width="1.5" d="M0,-3.0v7 M-2.5,-0.5L0,-3.0L2.5,-0.5"/>
  </g>
  <g id="arrowDown" transform="rotate(180) translate(-30 -48)">
    <use xlink:href="#rim"/>
    <path pointer-events="none" fill="none" stroke="white" stroke-width="1.5" d="M0,-3.0v7 M-2.5,-0.5L0,-3.0L2.5,-0.5"/>
  </g>
  <g id="arrowLeft" transform="rotate(270) translate(-36 17)">
    <use xlink:href="#rim"/>
    <path pointer-events="none" fill="none" stroke="white" stroke-width="1.5" d="M0,-3.0v7 M-2.5,-0.5L0,-3.0L2.5,-0.5"/>
  </g>
  <g id="resetDef">
    <use xlink:href="#rim2" fill="#404040"><set attributeName="fill" to="#808080" begin="reset.mouseover" end="reset.mouseout"/></use>
  </g>
</defs>
<script type="application/ecmascript">
var viewWidth = 1260;
var viewHeight = 346;
var sectionId = 'dynsection-0';
</script>
<script type="application/ecmascript" xlink:href="svg.min.js"/>
<svg id="graph" class="graph">
<g id="viewport">
<title>include/helios/rendering/RenderPrototype.ixx</title>
<!-- Node1 -->
<g id="Node000001" class="node">
<title>Node1</title>
<g id="a_Node000001"><a xlink:title="An immutable, shared prototype of a renderable object.">
<polygon fill="#999999" stroke="#666666" points="513.97,-338 379.97,-338 379.97,-308 513.97,-308 513.97,-338"/>
<text text-anchor="start" x="387.97" y="-326" font-family="Helvetica,sans-Serif" font-size="10.00">include/helios/rendering</text>
<text text-anchor="middle" x="446.97" y="-315" font-family="Helvetica,sans-Serif" font-size="10.00">/RenderPrototype.ixx</text>
</a>
</g>
</g>
<!-- Node2 -->
<g id="Node000002" class="node">
<title>Node2</title>
<g id="a_Node000002"><a xlink:title=" ">
<polygon fill="#e0e0e0" stroke="#999999" points="143.97,-79.5 85.97,-79.5 85.97,-60.5 143.97,-60.5 143.97,-79.5"/>
<text text-anchor="middle" x="114.97" y="-67.5" font-family="Helvetica,sans-Serif" font-size="10.00">memory</text>
</a>
</g>
</g>
<!-- Node1&#45;&gt;Node2 -->
<g id="edge1_Node000001_Node000002" class="edge">
<title>Node1&#45;&gt;Node2</title>
<g id="a_edge1_Node000001_Node000002"><a xlink:title=" ">
<path fill="none" stroke="#63b8ff" d="M379.59,-314.67C272.13,-301.51 69.3,-270.17 22.97,-217 -5.14,-184.75 -6.45,-157.44 15.97,-121 29.09,-99.67 54.44,-87.1 76.2,-79.91"/>
<polygon fill="#63b8ff" stroke="#63b8ff" points="77.33,-83.22 85.89,-76.97 75.3,-76.52 77.33,-83.22"/>
</a>
</g>
</g>
<!-- Node3 -->
<g id="Node000003" class="node">
<title>Node3</title>
<g id="a_Node000003"><a xlink:href="Mesh_8ixx.html" target="_top" xlink:title="Mesh abstraction: immutable vertex/index data and configuration.">
<polygon fill="white" stroke="#666666" points="525.97,-272 367.97,-272 367.97,-253 525.97,-253 525.97,-272"/>
<text text-anchor="middle" x="446.97" y="-260" font-family="Helvetica,sans-Serif" font-size="10.00">helios.rendering.model.Mesh</text>
</a>
</g>
</g>
<!-- Node1&#45;&gt;Node3 -->
<g id="edge2_Node000001_Node000003" class="edge">
<title>Node1&#45;&gt;Node3</title>
<g id="a_edge2_Node000001_Node000003"><a xlink:title=" ">
<path fill="none" stroke="#63b8ff" d="M446.97,-307.84C446.97,-300.21 446.97,-290.7 446.97,-282.45"/>
<polygon fill="#63b8ff" stroke="#63b8ff" points="450.47,-282.27 446.97,-272.27 443.47,-282.27 450.47,-282.27"/>
</a>
</g>
</g>
<!-- Node17 -->
<g id="Node000017" class="node">
<title>Node17</title>
<g id="a_Node000017"><a xlink:href="Material_8ixx.html" target="_top" xlink:title=" ">
<polygon fill="white" stroke="#666666" points="839.47,-272 666.47,-272 666.47,-253 839.47,-253 839.47,-272"/>
<text text-anchor="middle" x="752.97" y="-260" font-family="Helvetica,sans-Serif" font-size="10.00">helios.rendering.model.Material</text>
</a>
</g>
</g>
<!-- Node1&#45;&gt;Node17 -->
<g id="edge26_Node000001_Node000017" class="edge">
<title>Node1&#45;&gt;Node17</title>
<g id="a_edge26_Node000001_Node000017"><a xlink:title=" ">
<path fill="none" stroke="#63b8ff" d="M514.12,-309.16C569.37,-298.6 646.71,-283.81 698.25,-273.96"/>
<polygon fill="#63b8ff" stroke="#63b8ff" points="699.03,-277.37 708.2,-272.06 697.72,-270.5 699.03,-277.37"/>
</a>
</g>
</g>
<!-- Node3&#45;&gt;Node2 -->
<g id="edge3_Node000003_Node000002" class="edge">
<title>Node3&#45;&gt;Node2</title>
<g id="a_edge3_Node000003_Node000002"><a xlink:title=" ">
<path fill="none" stroke="#63b8ff" d="M367.73,-262.24C266.86,-261.58 100.03,-254.59 52.97,-217 18.68,-189.62 8.18,-159.08 29.97,-121 40.08,-103.32 59.15,-91.27 76.67,-83.44"/>
<polygon fill="#63b8ff" stroke="#63b8ff" points="78.27,-86.57 86.17,-79.52 75.6,-80.1 78.27,-86.57"/>
</a>
</g>
</g>
<!-- Node4 -->
<g id="Node000004" class="node">
<title>Node4</title>
<g id="a_Node000004"><a xlink:title=" ">
<polygon fill="#e0e0e0" stroke="#999999" points="654.47,-211.5 589.47,-211.5 589.47,-192.5 654.47,-192.5 654.47,-211.5"/>
<text text-anchor="middle" x="621.97" y="-199.5" font-family="Helvetica,sans-Serif" font-size="10.00">stdexcept</text>
</a>
</g>
</g>
<!-- Node3&#45;&gt;Node4 -->
<g id="edge4_Node000003_Node000004" class="edge">
<title>Node3&#45;&gt;Node4</title>
<g id="a_edge4_Node000003_Node000004"><a xlink:title=" ">
<path fill="none" stroke="#63b8ff" d="M472.41,-252.99C502.61,-242.9 553.12,-226.01 586.98,-214.69"/>
<polygon fill="#63b8ff" stroke="#63b8ff" points="588.11,-218.01 596.49,-211.52 585.9,-211.37 588.11,-218.01"/>
</a>
</g>
</g>
<!-- Node5 -->
<g id="Node000005" class="node">
<title>Node5</title>
<g id="a_Node000005"><a xlink:title=" ">
<polygon fill="#e0e0e0" stroke="#999999" points="86.47,-145.5 39.47,-145.5 39.47,-126.5 86.47,-126.5 86.47,-145.5"/>
<text text-anchor="middle" x="62.97" y="-133.5" font-family="Helvetica,sans-Serif" font-size="10.00">vector</text>
</a>
</g>
</g>
<!-- Node3&#45;&gt;Node5 -->
<g id="edge5_Node000003_Node000005" class="edge">
<title>Node3&#45;&gt;Node5</title>
<g id="a_edge5_Node000003_Node000005"><a xlink:title=" ">
<path fill="none" stroke="#63b8ff" d="M367.61,-257.53C262.57,-251.48 88.18,-238.35 67.97,-217 52.75,-200.93 54.51,-173.96 58.02,-155.83"/>
<polygon fill="#63b8ff" stroke="#63b8ff" points="61.49,-156.39 60.3,-145.86 54.66,-154.83 61.49,-156.39"/>
</a>
</g>
</g>
<!-- Node6 -->
<g id="Node000006" class="node">
<title>Node6</title>
<g id="a_Node000006"><a xlink:href="Logger_8ixx.html" target="_top" xlink:title="Simple synchronous logger that writes messages to stdout.">
<polygon fill="white" stroke="#666666" points="755.47,-79.5 636.47,-79.5 636.47,-60.5 755.47,-60.5 755.47,-79.5"/>
<text text-anchor="middle" x="695.97" y="-67.5" font-family="Helvetica,sans-Serif" font-size="10.00">helios.util.log.Logger</text>
</a>
</g>
</g>
<!-- Node3&#45;&gt;Node6 -->
<g id="edge6_Node000003_Node000006" class="edge">
<title>Node3&#45;&gt;Node6</title>
<g id="a_edge6_Node000003_Node000006"><a xlink:title=" ">
<path fill="none" stroke="#63b8ff" d="M459.44,-252.8C472.05,-243.95 492.03,-229.75 508.97,-217 526.16,-204.06 527.89,-196.96 546.97,-187 595.95,-161.43 625.65,-188.78 665.97,-151 683.18,-134.87 690.58,-107.92 693.72,-89.81"/>
<polygon fill="#63b8ff" stroke="#63b8ff" points="697.19,-90.25 695.18,-79.85 690.27,-89.24 697.19,-90.25"/>
</a>
</g>
</g>
<!-- Node9 -->
<g id="Node000009" class="node">
<title>Node9</title>
<g id="a_Node000009"><a xlink:href="LogManager_8ixx.html" target="_top" xlink:title="Central manager for scoped loggers.">
<polygon fill="white" stroke="#666666" points="656.97,-145.5 510.97,-145.5 510.97,-126.5 656.97,-126.5 656.97,-145.5"/>
<text text-anchor="middle" x="583.97" y="-133.5" font-family="Helvetica,sans-Serif" font-size="10.00">helios.util.log.LogManager</text>
</a>
</g>
</g>
<!-- Node3&#45;&gt;Node9 -->
<g id="edge9_Node000003_Node000009" class="edge">
<title>Node3&#45;&gt;Node9</title>
<g id="a_edge9_Node000003_Node000009"><a xlink:title=" ">
<path fill="none" stroke="#63b8ff" d="M453.12,-252.53C463.51,-237.77 485.69,-207.93 508.97,-187 524.48,-173.05 544.18,-160.07 559.49,-150.83"/>
<polygon fill="#63b8ff" stroke="#63b8ff" points="561.55,-153.68 568.39,-145.59 557.99,-147.65 561.55,-153.68"/>
</a>
</g>
</g>
<!-- Node12 -->
<g id="Node000012" class="node">
<title>Node12</title>
<g id="a_Node000012"><a xlink:href="Shape_8ixx.html" target="_top" xlink:title="Interface for simple geometric shapes used for testing and debugging.">
<polygon fill="white" stroke="#666666" points="236.97,-217 76.97,-217 76.97,-187 236.97,-187 236.97,-217"/>
<text text-anchor="start" x="84.97" y="-205" font-family="Helvetica,sans-Serif" font-size="10.00">helios.rendering.asset.shape.</text>
<text text-anchor="middle" x="156.97" y="-194" font-family="Helvetica,sans-Serif" font-size="10.00">Shape</text>
</a>
</g>
</g>
<!-- Node3&#45;&gt;Node12 -->
<g id="edge15_Node000003_Node000012" class="edge">
<title>Node3&#45;&gt;Node12</title>
<g id="a_edge15_Node000003_Node000012"><a xlink:title=" ">
<path fill="none" stroke="#63b8ff" d="M404.8,-252.99C360.8,-244.12 290.78,-229.99 236.37,-219.02"/>
<polygon fill="#63b8ff" stroke="#63b8ff" points="236.9,-215.55 226.41,-217.01 235.52,-222.42 236.9,-215.55"/>
</a>
</g>
</g>
<!-- Node14 -->
<g id="Node000014" class="node">
<title>Node14</title>
<g id="a_Node000014"><a xlink:href="Vertex_8ixx.html" target="_top" xlink:title="Vertex description and utilities for rendering.">
<polygon fill="white" stroke="#666666" points="454.97,-145.5 324.97,-145.5 324.97,-126.5 454.97,-126.5 454.97,-145.5"/>
<text text-anchor="middle" x="389.97" y="-133.5" font-family="Helvetica,sans-Serif" font-size="10.00">helios.rendering.Vertex</text>
</a>
</g>
</g>
<!-- Node3&#45;&gt;Node14 -->
<g id="edge24_Node000003_Node000014" class="edge">
<title>Node3&#45;&gt;Node14</title>
<g id="a_edge24_Node000003_Node000014"><a xlink:title=" ">
<path fill="none" stroke="#63b8ff" d="M445.9,-252.85C443.9,-238.56 438.76,-209.36 427.97,-187 422.09,-174.82 412.98,-162.71 405.16,-153.45"/>
<polygon fill="#63b8ff" stroke="#63b8ff" points="407.7,-151.04 398.47,-145.84 402.44,-155.66 407.7,-151.04"/>
</a>
</g>
</g>
<!-- Node15 -->
<g id="Node000015" class="node">
<title>Node15</title>
<g id="a_Node000015"><a xlink:href="math_2types_2__module_8ixx.html" target="_top" xlink:title="Module exports for vector and matrix type definitions.">
<polygon fill="white" stroke="#666666" points="877.97,-79.5 773.97,-79.5 773.97,-60.5 877.97,-60.5 877.97,-79.5"/>
<text text-anchor="middle" x="825.97" y="-67.5" font-family="Helvetica,sans-Serif" font-size="10.00">helios.math.types</text>
</a>
</g>
</g>
<!-- Node3&#45;&gt;Node15 -->
<g id="edge25_Node000003_Node000015" class="edge">
<title>Node3&#45;&gt;Node15</title>
<g id="a_edge25_Node000003_Node000015"><a xlink:title=" ">
<path fill="none" stroke="#63b8ff" d="M468.83,-252.95C488.57,-244.85 518.1,-231.74 541.97,-217 560.27,-205.69 561,-197.17 579.97,-187 625.3,-162.69 643.08,-172.16 689.97,-151 732.62,-131.74 778.92,-102.56 805,-85.27"/>
<polygon fill="#63b8ff" stroke="#63b8ff" points="806.97,-88.16 813.34,-79.69 803.08,-82.34 806.97,-88.16"/>
</a>
</g>
</g>
<!-- Node16 -->
<g id="Node000016" class="node">
<title>Node16</title>
<g id="a_Node000016"><a xlink:href="MeshConfig_8ixx.html" target="_top" xlink:title="Mesh configuration including primitive type.">
<polygon fill="white" stroke="#666666" points="418.97,-217 254.97,-217 254.97,-187 418.97,-187 418.97,-217"/>
<text text-anchor="start" x="262.97" y="-205" font-family="Helvetica,sans-Serif" font-size="10.00">helios.rendering.model.config.</text>
<text text-anchor="middle" x="336.97" y="-194" font-family="Helvetica,sans-Serif" font-size="10.00">MeshConfig</text>
</a>
</g>
</g>
<!-- Node3&#45;&gt;Node16 -->
<g id="edge22_Node000003_Node000016" class="edge">
<title>Node3&#45;&gt;Node16</title>
<g id="a_edge22_Node000003_Node000016"><a xlink:title=" ">
<path fill="none" stroke="#63b8ff" d="M430.74,-252.87C415.46,-244.75 392.08,-232.31 372.48,-221.89"/>
<polygon fill="#63b8ff" stroke="#63b8ff" points="373.98,-218.72 363.51,-217.11 370.69,-224.9 373.98,-218.72"/>
</a>
</g>
</g>
<!-- Node7 -->
<g id="Node000007" class="node">
<title>Node7</title>
<g id="a_Node000007"><a xlink:title=" ">
<polygon fill="#e0e0e0" stroke="#999999" points="725.97,-19 665.97,-19 665.97,0 725.97,0 725.97,-19"/>
<text text-anchor="middle" x="695.97" y="-7" font-family="Helvetica,sans-Serif" font-size="10.00">iostream</text>
</a>
</g>
</g>
<!-- Node6&#45;&gt;Node7 -->
<g id="edge7_Node000006_Node000007" class="edge">
<title>Node6&#45;&gt;Node7</title>
<g id="a_edge7_Node000006_Node000007"><a xlink:title=" ">
<path fill="none" stroke="#63b8ff" d="M695.97,-60.37C695.97,-52.25 695.97,-39.81 695.97,-29.39"/>
<polygon fill="#63b8ff" stroke="#63b8ff" points="699.47,-29.17 695.97,-19.17 692.47,-29.17 699.47,-29.17"/>
</a>
</g>
</g>
<!-- Node8 -->
<g id="Node000008" class="node">
<title>Node8</title>
<g id="a_Node000008"><a xlink:title=" ">
<polygon fill="#e0e0e0" stroke="#999999" points="583.97,-19 539.97,-19 539.97,0 583.97,0 583.97,-19"/>
<text text-anchor="middle" x="561.97" y="-7" font-family="Helvetica,sans-Serif" font-size="10.00">string</text>
</a>
</g>
</g>
<!-- Node6&#45;&gt;Node8 -->
<g id="edge8_Node000006_Node000008" class="edge">
<title>Node6&#45;&gt;Node8</title>
<g id="a_edge8_Node000006_Node000008"><a xlink:title=" ">
<path fill="none" stroke="#63b8ff" d="M676.48,-60.49C653.95,-50.66 616.66,-34.38 590.78,-23.08"/>
<polygon fill="#63b8ff" stroke="#63b8ff" points="592.04,-19.81 581.47,-19.02 589.24,-26.23 592.04,-19.81"/>
</a>
</g>
</g>
<!-- Node9&#45;&gt;Node2 -->
<g id="edge12_Node000009_Node000002" class="edge">
<title>Node9&#45;&gt;Node2</title>
<g id="a_edge12_Node000009_Node000002"><a xlink:title=" ">
<path fill="none" stroke="#63b8ff" d="M532.48,-126.46C520.81,-124.59 508.47,-122.68 496.97,-121 372,-102.77 223.58,-84.23 154.27,-75.76"/>
<polygon fill="#63b8ff" stroke="#63b8ff" points="154.59,-72.27 144.24,-74.53 153.74,-79.22 154.59,-72.27"/>
</a>
</g>
</g>
<!-- Node9&#45;&gt;Node6 -->
<g id="edge14_Node000009_Node000006" class="edge">
<title>Node9&#45;&gt;Node6</title>
<g id="a_edge14_Node000009_Node000006"><a xlink:title=" ">
<path fill="none" stroke="#63b8ff" d="M599.07,-126.37C617.77,-115.68 649.86,-97.35 671.95,-84.72"/>
<polygon fill="#63b8ff" stroke="#63b8ff" points="673.8,-87.7 680.74,-79.7 670.32,-81.62 673.8,-87.7"/>
</a>
</g>
</g>
<!-- Node9&#45;&gt;Node8 -->
<g id="edge10_Node000009_Node000008" class="edge">
<title>Node9&#45;&gt;Node8</title>
<g id="a_edge10_Node000009_Node000008"><a xlink:title=" ">
<path fill="none" stroke="#63b8ff" d="M563.75,-126.47C547.53,-118.41 525.89,-104.61 515.97,-85 509.95,-73.1 510.76,-67.28 515.97,-55 520.95,-43.25 530.72,-33.09 539.98,-25.45"/>
<polygon fill="#63b8ff" stroke="#63b8ff" points="542.36,-28.03 548.18,-19.18 538.11,-22.47 542.36,-28.03"/>
</a>
</g>
</g>
<!-- Node10 -->
<g id="Node000010" class="node">
<title>Node10</title>
<g id="a_Node000010"><a xlink:title=" ">
<polygon fill="#e0e0e0" stroke="#999999" points="618.47,-79.5 525.47,-79.5 525.47,-60.5 618.47,-60.5 618.47,-79.5"/>
<text text-anchor="middle" x="571.97" y="-67.5" font-family="Helvetica,sans-Serif" font-size="10.00">unordered_map</text>
</a>
</g>
</g>
<!-- Node9&#45;&gt;Node10 -->
<g id="edge11_Node000009_Node000010" class="edge">
<title>Node9&#45;&gt;Node10</title>
<g id="a_edge11_Node000009_Node000010"><a xlink:title=" ">
<path fill="none" stroke="#63b8ff" d="M582.35,-126.37C580.6,-117.07 577.77,-101.98 575.51,-89.9"/>
<polygon fill="#63b8ff" stroke="#63b8ff" points="578.92,-89.09 573.64,-79.91 572.04,-90.38 578.92,-89.09"/>
</a>
</g>
</g>
<!-- Node11 -->
<g id="Node000011" class="node">
<title>Node11</title>
<g id="a_Node000011"><a xlink:title=" ">
<polygon fill="#e0e0e0" stroke="#999999" points="468.97,-79.5 420.97,-79.5 420.97,-60.5 468.97,-60.5 468.97,-79.5"/>
<text text-anchor="middle" x="444.97" y="-67.5" font-family="Helvetica,sans-Serif" font-size="10.00">mutex</text>
</a>
</g>
</g>
<!-- Node9&#45;&gt;Node11 -->
<g id="edge13_Node000009_Node000011" class="edge">
<title>Node9&#45;&gt;Node11</title>
<g id="a_edge13_Node000009_Node000011"><a xlink:title=" ">
<path fill="none" stroke="#63b8ff" d="M565.22,-126.37C541.49,-115.44 500.4,-96.52 472.95,-83.88"/>
<polygon fill="#63b8ff" stroke="#63b8ff" points="474.41,-80.7 463.86,-79.7 471.48,-87.06 474.41,-80.7"/>
</a>
</g>
</g>
<!-- Node12&#45;&gt;Node2 -->
<g id="edge16_Node000012_Node000002" class="edge">
<title>Node12&#45;&gt;Node2</title>
<g id="a_edge16_Node000012_Node000002"><a xlink:title=" ">
<path fill="none" stroke="#63b8ff" d="M149.55,-186.87C144.61,-177.02 138.27,-163.47 133.97,-151 126.86,-130.39 121.47,-105.89 118.28,-89.48"/>
<polygon fill="#63b8ff" stroke="#63b8ff" points="121.7,-88.75 116.42,-79.56 114.82,-90.04 121.7,-88.75"/>
</a>
</g>
</g>
<!-- Node12&#45;&gt;Node5 -->
<g id="edge17_Node000012_Node000005" class="edge">
<title>Node12&#45;&gt;Node5</title>
<g id="a_edge17_Node000012_Node000005"><a xlink:title=" ">
<path fill="none" stroke="#63b8ff" d="M136.1,-186.8C120.64,-176.27 99.64,-161.97 84.11,-151.4"/>
<polygon fill="#63b8ff" stroke="#63b8ff" points="85.92,-148.39 75.68,-145.66 81.98,-154.18 85.92,-148.39"/>
</a>
</g>
</g>
<!-- Node13 -->
<g id="Node000013" class="node">
<title>Node13</title>
<g id="a_Node000013"><a xlink:href="PrimitiveType_8ixx.html" target="_top" xlink:title="Enum of primitive types for mesh rendering.">
<polygon fill="white" stroke="#666666" points="306.97,-151 142.97,-151 142.97,-121 306.97,-121 306.97,-151"/>
<text text-anchor="start" x="150.97" y="-139" font-family="Helvetica,sans-Serif" font-size="10.00">helios.rendering.model.config.</text>
<text text-anchor="middle" x="224.97" y="-128" font-family="Helvetica,sans-Serif" font-size="10.00">PrimitiveType</text>
</a>
</g>
</g>
<!-- Node12&#45;&gt;Node13 -->
<g id="edge18_Node000012_Node000013" class="edge">
<title>Node12&#45;&gt;Node13</title>
<g id="a_edge18_Node000012_Node000013"><a xlink:title=" ">
<path fill="none" stroke="#63b8ff" d="M172.06,-186.8C181.04,-178.34 192.6,-167.46 202.62,-158.03"/>
<polygon fill="#63b8ff" stroke="#63b8ff" points="205.03,-160.57 209.92,-151.16 200.24,-155.47 205.03,-160.57"/>
</a>
</g>
</g>
<!-- Node12&#45;&gt;Node14 -->
<g id="edge19_Node000012_Node000014" class="edge">
<title>Node12&#45;&gt;Node14</title>
<g id="a_edge19_Node000012_Node000014"><a xlink:title=" ">
<path fill="none" stroke="#63b8ff" d="M208.1,-186.95C250.49,-175.31 309.96,-158.98 349.19,-148.2"/>
<polygon fill="#63b8ff" stroke="#63b8ff" points="350.24,-151.54 358.96,-145.52 348.39,-144.79 350.24,-151.54"/>
</a>
</g>
</g>
<!-- Node14&#45;&gt;Node15 -->
<g id="edge20_Node000014_Node000015" class="edge">
<title>Node14&#45;&gt;Node15</title>
<g id="a_edge20_Node000014_Node000015"><a xlink:title=" ">
<path fill="none" stroke="#63b8ff" d="M455.04,-126.62C554.07,-113.82 734.31,-90.32 763.97,-85 769.4,-84.03 775.07,-82.9 780.69,-81.71"/>
<polygon fill="#63b8ff" stroke="#63b8ff" points="781.64,-85.09 790.67,-79.54 780.15,-78.25 781.64,-85.09"/>
</a>
</g>
</g>
<!-- Node15&#45;&gt;Node15 -->
<g id="edge21_Node000015_Node000015" class="edge">
<title>Node15&#45;&gt;Node15</title>
<g id="a_edge21_Node000015_Node000015"><a xlink:title=" ">
<path fill="none" stroke="#63b8ff" d="M851.81,-79.53C873.4,-83.61 895.97,-80.43 895.97,-70 895.97,-61.2 879.9,-57.56 861.92,-59.09"/>
<polygon fill="#63b8ff" stroke="#63b8ff" points="861.25,-55.65 851.81,-60.47 862.19,-62.58 861.25,-55.65"/>
</a>
</g>
</g>
<!-- Node16&#45;&gt;Node13 -->
<g id="edge23_Node000016_Node000013" class="edge">
<title>Node16&#45;&gt;Node13</title>
<g id="a_edge23_Node000016_Node000013"><a xlink:title=" ">
<path fill="none" stroke="#63b8ff" d="M312.39,-186.95C296.49,-177.87 275.59,-165.93 258.21,-156"/>
<polygon fill="#63b8ff" stroke="#63b8ff" points="259.91,-152.93 249.49,-151.01 256.43,-159.01 259.91,-152.93"/>
</a>
</g>
</g>
<!-- Node17&#45;&gt;Node2 -->
<g id="edge27_Node000017_Node000002" class="edge">
<title>Node17&#45;&gt;Node2</title>
<g id="a_edge27_Node000017_Node000002"><a xlink:title=" ">
<path fill="none" stroke="#63b8ff" d="M742.92,-252.73C721.38,-234 672.03,-191.44 662.97,-187 597.13,-154.73 568.17,-182.51 501.97,-151 482.54,-141.75 483.74,-129.48 463.97,-121 358.78,-75.87 221.05,-69.99 154.44,-70.1"/>
<polygon fill="#63b8ff" stroke="#63b8ff" points="154.35,-66.6 144.38,-70.17 154.4,-73.6 154.35,-66.6"/>
</a>
</g>
</g>
<!-- Node17&#45;&gt;Node4 -->
<g id="edge28_Node000017_Node000004" class="edge">
<title>Node17&#45;&gt;Node4</title>
<g id="a_edge28_Node000017_Node000004"><a xlink:title=" ">
<path fill="none" stroke="#63b8ff" d="M733.92,-252.99C711.99,-243.2 675.76,-227.02 650.47,-215.73"/>
<polygon fill="#63b8ff" stroke="#63b8ff" points="651.6,-212.4 641.04,-211.52 648.74,-218.79 651.6,-212.4"/>
</a>
</g>
</g>
<!-- Node18 -->
<g id="Node000018" class="node">
<title>Node18</title>
<g id="a_Node000018"><a xlink:href="Shader_8ixx.html" target="_top" xlink:title="Abstraction for a compiled shader program.">
<polygon fill="white" stroke="#666666" points="946.97,-217 812.97,-217 812.97,-187 946.97,-187 946.97,-217"/>
<text text-anchor="start" x="820.97" y="-205" font-family="Helvetica,sans-Serif" font-size="10.00">helios.rendering.shader.</text>
<text text-anchor="middle" x="879.97" y="-194" font-family="Helvetica,sans-Serif" font-size="10.00">Shader</text>
</a>
</g>
</g>
<!-- Node17&#45;&gt;Node18 -->
<g id="edge29_Node000017_Node000018" class="edge">
<title>Node17&#45;&gt;Node18</title>
<g id="a_edge29_Node000017_Node000018"><a xlink:title=" ">
<path fill="none" stroke="#63b8ff" d="M771.43,-252.99C789.33,-244.75 817.06,-231.98 840.01,-221.4"/>
<polygon fill="#63b8ff" stroke="#63b8ff" points="841.57,-224.54 849.19,-217.18 838.64,-218.18 841.57,-224.54"/>
</a>
</g>
</g>
<!-- Node19 -->
<g id="Node000019" class="node">
<title>Node19</title>
<g id="a_Node000019"><a xlink:href="UniformValueMap_8ixx.html" target="_top" xlink:title="Mapping of uniform names to values used by shader programs.">
<polygon fill="white" stroke="#666666" points="1058.97,-151 924.97,-151 924.97,-121 1058.97,-121 1058.97,-151"/>
<text text-anchor="start" x="932.97" y="-139" font-family="Helvetica,sans-Serif" font-size="10.00">helios.rendering.shader.</text>
<text text-anchor="middle" x="991.97" y="-128" font-family="Helvetica,sans-Serif" font-size="10.00">UniformValueMap</text>
</a>
</g>
</g>
<!-- Node17&#45;&gt;Node19 -->
<g id="edge45_Node000017_Node000019" class="edge">
<title>Node17&#45;&gt;Node19</title>
<g id="a_edge45_Node000017_Node000019"><a xlink:title=" ">
<path fill="none" stroke="#63b8ff" d="M822.65,-252.99C873.01,-245.61 935.62,-233.51 955.97,-217 973.17,-203.04 982.44,-179.12 987.25,-161.06"/>
<polygon fill="#63b8ff" stroke="#63b8ff" points="990.68,-161.76 989.58,-151.22 983.87,-160.14 990.68,-161.76"/>
</a>
</g>
</g>
<!-- Node24 -->
<g id="Node000024" class="node">
<title>Node24</title>
<g id="a_Node000024"><a xlink:href="util_2log_2__module_8ixx.html" target="_top" xlink:title="Module exports for logging.">
<polygon fill="white" stroke="#666666" points="794.47,-211.5 711.47,-211.5 711.47,-192.5 794.47,-192.5 794.47,-211.5"/>
<text text-anchor="middle" x="752.97" y="-199.5" font-family="Helvetica,sans-Serif" font-size="10.00">helios.util.log</text>
</a>
</g>
</g>
<!-- Node17&#45;&gt;Node24 -->
<g id="edge38_Node000017_Node000024" class="edge">
<title>Node17&#45;&gt;Node24</title>
<g id="a_edge38_Node000017_Node000024"><a xlink:title=" ">
<path fill="none" stroke="#63b8ff" d="M752.97,-252.87C752.97,-244.75 752.97,-232.31 752.97,-221.89"/>
<polygon fill="#63b8ff" stroke="#63b8ff" points="756.47,-221.67 752.97,-211.67 749.47,-221.67 756.47,-221.67"/>
</a>
</g>
</g>
<!-- Node25 -->
<g id="Node000025" class="node">
<title>Node25</title>
<g id="a_Node000025"><a xlink:href="MaterialProperties_8ixx.html" target="_top" xlink:title="Default material properties used by materials and instances.">
<polygon fill="white" stroke="#666666" points="1166.97,-217 1002.97,-217 1002.97,-187 1166.97,-187 1166.97,-217"/>
<text text-anchor="start" x="1010.97" y="-205" font-family="Helvetica,sans-Serif" font-size="10.00">helios.rendering.model.config.</text>
<text text-anchor="middle" x="1084.97" y="-194" font-family="Helvetica,sans-Serif" font-size="10.00">MaterialProperties</text>
</a>
</g>
</g>
<!-- Node17&#45;&gt;Node25 -->
<g id="edge41_Node000017_Node000025" class="edge">
<title>Node17&#45;&gt;Node25</title>
<g id="a_edge41_Node000017_Node000025"><a xlink:title=" ">
<path fill="none" stroke="#63b8ff" d="M801.24,-252.99C852.03,-244.04 933.1,-229.76 995.6,-218.75"/>
<polygon fill="#63b8ff" stroke="#63b8ff" points="996.23,-222.19 1005.47,-217.01 995.01,-215.3 996.23,-222.19"/>
</a>
</g>
</g>
<!-- Node18&#45;&gt;Node6 -->
<g id="edge36_Node000018_Node000006" class="edge">
<title>Node18&#45;&gt;Node6</title>
<g id="a_edge36_Node000018_Node000006"><a xlink:title=" ">
<path fill="none" stroke="#63b8ff" d="M859.92,-186.84C824.72,-161.97 752.14,-110.69 716.55,-85.55"/>
<polygon fill="#63b8ff" stroke="#63b8ff" points="718.53,-82.66 708.35,-79.75 714.5,-88.38 718.53,-82.66"/>
</a>
</g>
</g>
<!-- Node18&#45;&gt;Node9 -->
<g id="edge37_Node000018_Node000009" class="edge">
<title>Node18&#45;&gt;Node9</title>
<g id="a_edge37_Node000018_Node000009"><a xlink:title=" ">
<path fill="none" stroke="#63b8ff" d="M815.01,-186.95C760.24,-175.11 683.04,-158.42 633.24,-147.65"/>
<polygon fill="#63b8ff" stroke="#63b8ff" points="633.87,-144.21 623.36,-145.52 632.39,-151.05 633.87,-144.21"/>
</a>
</g>
</g>
<!-- Node18&#45;&gt;Node19 -->
<g id="edge30_Node000018_Node000019" class="edge">
<title>Node18&#45;&gt;Node19</title>
<g id="a_edge30_Node000018_Node000019"><a xlink:title=" ">
<path fill="none" stroke="#63b8ff" d="M904.54,-186.95C920.45,-177.87 941.35,-165.93 958.72,-156"/>
<polygon fill="#63b8ff" stroke="#63b8ff" points="960.5,-159.01 967.44,-151.01 957.03,-152.93 960.5,-159.01"/>
</a>
</g>
</g>
<!-- Node19&#45;&gt;Node15 -->
<g id="edge34_Node000019_Node000015" class="edge">
<title>Node19&#45;&gt;Node15</title>
<g id="a_edge34_Node000019_Node000015"><a xlink:title=" ">
<path fill="none" stroke="#63b8ff" d="M955.54,-120.95C926.3,-109.68 885.66,-94.01 857.73,-83.25"/>
<polygon fill="#63b8ff" stroke="#63b8ff" points="858.65,-79.85 848.06,-79.52 856.13,-86.38 858.65,-79.85"/>
</a>
</g>
</g>
<!-- Node20 -->
<g id="Node000020" class="node">
<title>Node20</title>
<g id="a_Node000020"><a xlink:title=" ">
<polygon fill="#e0e0e0" stroke="#999999" points="955.97,-79.5 913.97,-79.5 913.97,-60.5 955.97,-60.5 955.97,-79.5"/>
<text text-anchor="middle" x="934.97" y="-67.5" font-family="Helvetica,sans-Serif" font-size="10.00">array</text>
</a>
</g>
</g>
<!-- Node19&#45;&gt;Node20 -->
<g id="edge31_Node000019_Node000020" class="edge">
<title>Node19&#45;&gt;Node20</title>
<g id="a_edge31_Node000019_Node000020"><a xlink:title=" ">
<path fill="none" stroke="#63b8ff" d="M979.32,-120.8C970.52,-110.92 958.76,-97.72 949.57,-87.39"/>
<polygon fill="#63b8ff" stroke="#63b8ff" points="952.11,-84.98 942.84,-79.84 946.88,-89.64 952.11,-84.98"/>
</a>
</g>
</g>
<!-- Node21 -->
<g id="Node000021" class="node">
<title>Node21</title>
<g id="a_Node000021"><a xlink:title=" ">
<polygon fill="#e0e0e0" stroke="#999999" points="1029.97,-79.5 973.97,-79.5 973.97,-60.5 1029.97,-60.5 1029.97,-79.5"/>
<text text-anchor="middle" x="1001.97" y="-67.5" font-family="Helvetica,sans-Serif" font-size="10.00">optional</text>
</a>
</g>
</g>
<!-- Node19&#45;&gt;Node21 -->
<g id="edge32_Node000019_Node000021" class="edge">
<title>Node19&#45;&gt;Node21</title>
<g id="a_edge32_Node000019_Node000021"><a xlink:title=" ">
<path fill="none" stroke="#63b8ff" d="M994.19,-120.8C995.61,-111.7 997.47,-99.79 999.01,-89.9"/>
<polygon fill="#63b8ff" stroke="#63b8ff" points="1002.5,-90.26 1000.58,-79.84 995.58,-89.18 1002.5,-90.26"/>
</a>
</g>
</g>
<!-- Node22 -->
<g id="Node000022" class="node">
<title>Node22</title>
<g id="a_Node000022"><a xlink:title=" ">
<polygon fill="#e0e0e0" stroke="#999999" points="1099.47,-79.5 1048.47,-79.5 1048.47,-60.5 1099.47,-60.5 1099.47,-79.5"/>
<text text-anchor="middle" x="1073.97" y="-67.5" font-family="Helvetica,sans-Serif" font-size="10.00">variant</text>
</a>
</g>
</g>
<!-- Node19&#45;&gt;Node22 -->
<g id="edge33_Node000019_Node000022" class="edge">
<title>Node19&#45;&gt;Node22</title>
<g id="a_edge33_Node000019_Node000022"><a xlink:title=" ">
<path fill="none" stroke="#63b8ff" d="M1010.16,-120.8C1023.32,-110.53 1041.08,-96.67 1054.52,-86.18"/>
<polygon fill="#63b8ff" stroke="#63b8ff" points="1056.9,-88.76 1062.63,-79.84 1052.6,-83.24 1056.9,-88.76"/>
</a>
</g>
</g>
<!-- Node23 -->
<g id="Node000023" class="node">
<title>Node23</title>
<g id="a_Node000023"><a xlink:href="UniformSemantics_8ixx.html" target="_top" xlink:title="Definitions of uniform semantics used by shaders.">
<polygon fill="white" stroke="#666666" points="1251.97,-85 1117.97,-85 1117.97,-55 1251.97,-55 1251.97,-85"/>
<text text-anchor="start" x="1125.97" y="-73" font-family="Helvetica,sans-Serif" font-size="10.00">helios.rendering.shader.</text>
<text text-anchor="middle" x="1184.97" y="-62" font-family="Helvetica,sans-Serif" font-size="10.00">UniformSemantics</text>
</a>
</g>
</g>
<!-- Node19&#45;&gt;Node23 -->
<g id="edge35_Node000019_Node000023" class="edge">
<title>Node19&#45;&gt;Node23</title>
<g id="a_edge35_Node000019_Node000023"><a xlink:title=" ">
<path fill="none" stroke="#63b8ff" d="M1034.32,-120.95C1063.36,-111.33 1102.06,-98.49 1132.97,-88.24"/>
<polygon fill="#63b8ff" stroke="#63b8ff" points="1134.32,-91.48 1142.71,-85.01 1132.12,-84.84 1134.32,-91.48"/>
</a>
</g>
</g>
<!-- Node24&#45;&gt;Node6 -->
<g id="edge40_Node000024_Node000006" class="edge">
<title>Node24&#45;&gt;Node6</title>
<g id="a_edge40_Node000024_Node000006"><a xlink:title=" ">
<path fill="none" stroke="#63b8ff" d="M749.23,-192.47C740.05,-171.54 716.26,-117.3 703.82,-88.91"/>
<polygon fill="#63b8ff" stroke="#63b8ff" points="707.02,-87.48 699.79,-79.73 700.6,-90.3 707.02,-87.48"/>
</a>
</g>
</g>
<!-- Node24&#45;&gt;Node9 -->
<g id="edge39_Node000024_Node000009" class="edge">
<title>Node24&#45;&gt;Node9</title>
<g id="a_edge39_Node000024_Node000009"><a xlink:title=" ">
<path fill="none" stroke="#63b8ff" d="M730.17,-192.37C700.86,-181.27 649.77,-161.92 616.41,-149.28"/>
<polygon fill="#63b8ff" stroke="#63b8ff" points="617.26,-145.86 606.67,-145.6 614.78,-152.41 617.26,-145.86"/>
</a>
</g>
</g>
<!-- Node25&#45;&gt;Node15 -->
<g id="edge44_Node000025_Node000015" class="edge">
<title>Node25&#45;&gt;Node15</title>
<g id="a_edge44_Node000025_Node000015"><a xlink:title=" ">
<path fill="none" stroke="#63b8ff" d="M1012.3,-186.92C981.37,-179.09 945.65,-167.5 915.97,-151 885.54,-134.09 856.62,-105.34 840.12,-87.3"/>
<polygon fill="#63b8ff" stroke="#63b8ff" points="842.73,-84.96 833.45,-79.84 837.51,-89.63 842.73,-84.96"/>
</a>
</g>
</g>
<!-- Node25&#45;&gt;Node19 -->
<g id="edge43_Node000025_Node000019" class="edge">
<title>Node25&#45;&gt;Node19</title>
<g id="a_edge43_Node000025_Node000019"><a xlink:title=" ">
<path fill="none" stroke="#63b8ff" d="M1064.33,-186.8C1051.56,-178.01 1034.99,-166.61 1020.92,-156.93"/>
<polygon fill="#63b8ff" stroke="#63b8ff" points="1022.77,-153.95 1012.55,-151.16 1018.8,-159.72 1022.77,-153.95"/>
</a>
</g>
</g>
<!-- Node25&#45;&gt;Node23 -->
<g id="edge42_Node000025_Node000023" class="edge">
<title>Node25&#45;&gt;Node23</title>
<g id="a_edge42_Node000025_Node000023"><a xlink:title=" ">
<path fill="none" stroke="#63b8ff" d="M1095.86,-186.84C1113.22,-164.28 1147.29,-119.98 1167.91,-93.18"/>
<polygon fill="#63b8ff" stroke="#63b8ff" points="1170.76,-95.2 1174.09,-85.14 1165.22,-90.93 1170.76,-95.2"/>
</a>
</g>
</g>
</g>
</svg>

<g id="navigator" transform="translate(0 0)" fill="#404254">
  <rect fill="#f2f5e9" fill-opacity="0.5" stroke="#606060" stroke-width=".5" x="0" y="0" width="60" height="60"/>
  <use id="zoomplus" xlink:href="#zoomPlus" x="17" y="9" onmousedown="handleZoom(evt,'in')"/>
  <use id="zoomminus" xlink:href="#zoomMin" x="42" y="9" onmousedown="handleZoom(evt,'out')"/>
  <use id="reset" xlink:href="#resetDef" x="30" y="36" onmousedown="handleReset()"/>
   <use id="arrowup" xlink:href="#arrowUp" x="0" y="0" onmousedown="handlePan(0,-1)"/>
  <use id="arrowright" xlink:href="#arrowRight" x="0" y="0" onmousedown="handlePan(1,0)"/>
  <use id="arrowdown" xlink:href="#arrowDown" x="0" y="0" onmousedown="handlePan(0,1)"/>
  <use id="arrowleft" xlink:href="#arrowLeft" x="0" y="0" onmousedown="handlePan(-1,0)"/>
</g>
<svg viewBox="0 0 15 15" width="100%" height="30px" preserveAspectRatio="xMaxYMin meet">
 <g id="arrow_out" transform="scale(0.3 0.3)">
  <a xlink:href="RenderPrototype_8ixx__incl_org.svg" target="_base">
   <rect id="button" ry="5" rx="5" y="6" x="6" height="38" width="38"
        fill="#f2f5e9" fill-opacity="0.5" stroke="#606060" stroke-width="1.0"/>
   <path id="arrow"
     d="M 11.500037,31.436501 C 11.940474,20.09759 22.043105,11.32322 32.158766,21.979434 L 37.068811,17.246167 C 37.068811,17.246167 37.088388,32 37.088388,32 L 22.160133,31.978069 C 22.160133,31.978069 26.997745,27.140456 26.997745,27.140456 C 18.528582,18.264221 13.291696,25.230495 11.500037,31.436501 z"
     style="fill:#404040;"/>
  </a>
 </g>
</svg>

<style type='text/css'>
<![CDATA[
[data-mouse-over-selected='false'] { opacity: 0.7; }
[data-mouse-over-selected='true']  { opacity: 1.0; }
]]>
</style>
<script type="application/ecmascript"><![CDATA[
document.addEventListener('DOMContentLoaded', (event) => {
  highlightEdges();
  highlightAdjacentNodes();
});
]]></script>
</svg>
