<?xml version="1.0" encoding="UTF-8" standalone="no"?>
<!DOCTYPE svg PUBLIC "-//W3C//DTD SVG 1.1//EN"
 "http://www.w3.org/Graphics/SVG/1.1/DTD/svg11.dtd">
<!-- Generated by graphviz version 2.43.0 (0)
 -->
<!-- Title: ScoreContext.ixx Pages: 1 -->
<svg width="733pt" height="335pt"
 viewBox="0.00 0.00 733.00 335.00" xmlns="http://www.w3.org/2000/svg" xmlns:xlink="http://www.w3.org/1999/xlink">
<g id="graph0" class="graph" transform="scale(1 1) rotate(0) translate(4 331)">
<title>ScoreContext.ixx</title>
<!-- Node1 -->
<g id="Node000001" class="node">
<title>Node1</title>
<g id="a_Node000001"><a xlink:title="Data structure for score update information.">
<polygon fill="#999999" stroke="#666666" points="469.5,-327 369.5,-327 369.5,-308 469.5,-308 469.5,-327"/>
<text text-anchor="middle" x="419.5" y="-315" font-family="Helvetica,sans-Serif" font-size="10.00">ScoreContext.ixx</text>
</a>
</g>
</g>
<!-- Node2 -->
<g id="Node000002" class="node">
<title>Node2</title>
<g id="a_Node000002"><a xlink:href="types_8ixx.html" target="_top" xlink:title="Core type definitions and tag types for the helios engine.">
<polygon fill="white" stroke="#666666" points="442.5,-74 342.5,-74 342.5,-55 442.5,-55 442.5,-74"/>
<text text-anchor="middle" x="392.5" y="-62" font-family="Helvetica,sans-Serif" font-size="10.00">helios.core.types</text>
</a>
</g>
</g>
<!-- Node1&#45;&gt;Node2 -->
<g id="edge1_Node000001_Node000002" class="edge">
<title>Node1&#45;&gt;Node2</title>
<g id="a_edge1_Node000001_Node000002"><a xlink:title=" ">
<path fill="none" stroke="#63b8ff" d="M418.57,-307.86C414.72,-272.03 399.94,-134.66 394.52,-84.22"/>
<polygon fill="#63b8ff" stroke="#63b8ff" points="397.98,-83.67 393.43,-74.1 391.02,-84.42 397.98,-83.67"/>
</a>
</g>
</g>
<!-- Node5 -->
<g id="Node000005" class="node">
<title>Node5</title>
<g id="a_Node000005"><a xlink:href="ScorePoolId_8ixx.html" target="_top" xlink:title="Strongly&#45;typed identifier for ScorePools.">
<polygon fill="white" stroke="#666666" points="338,-272 129,-272 129,-242 338,-242 338,-272"/>
<text text-anchor="start" x="137" y="-260" font-family="Helvetica,sans-Serif" font-size="10.00">helios.engine.mechanics.scoring.types.</text>
<text text-anchor="middle" x="233.5" y="-249" font-family="Helvetica,sans-Serif" font-size="10.00">ScorePoolId</text>
</a>
</g>
</g>
<!-- Node1&#45;&gt;Node5 -->
<g id="edge4_Node000001_Node000005" class="edge">
<title>Node1&#45;&gt;Node5</title>
<g id="a_edge4_Node000001_Node000005"><a xlink:title=" ">
<path fill="none" stroke="#63b8ff" d="M392.46,-307.99C365.22,-299.43 322.44,-285.97 288.11,-275.18"/>
<polygon fill="#63b8ff" stroke="#63b8ff" points="288.81,-271.73 278.22,-272.06 286.71,-278.4 288.81,-271.73"/>
</a>
</g>
</g>
<!-- Node13 -->
<g id="Node000013" class="node">
<title>Node13</title>
<g id="a_Node000013"><a xlink:href="ScoreTypeId_8ixx.html" target="_top" xlink:title="Strongly&#45;typed identifier for score types.">
<polygon fill="white" stroke="#666666" points="696,-206 487,-206 487,-176 696,-176 696,-206"/>
<text text-anchor="start" x="495" y="-194" font-family="Helvetica,sans-Serif" font-size="10.00">helios.engine.mechanics.scoring.types.</text>
<text text-anchor="middle" x="591.5" y="-183" font-family="Helvetica,sans-Serif" font-size="10.00">ScoreTypeId</text>
</a>
</g>
</g>
<!-- Node1&#45;&gt;Node13 -->
<g id="edge18_Node000001_Node000013" class="edge">
<title>Node1&#45;&gt;Node13</title>
<g id="a_edge18_Node000001_Node000013"><a xlink:title=" ">
<path fill="none" stroke="#63b8ff" d="M431.32,-307.94C458.42,-288.33 525.61,-239.7 563.8,-212.05"/>
<polygon fill="#63b8ff" stroke="#63b8ff" points="565.89,-214.86 571.94,-206.16 561.79,-209.19 565.89,-214.86"/>
</a>
</g>
</g>
<!-- Node3 -->
<g id="Node000003" class="node">
<title>Node3</title>
<g id="a_Node000003"><a xlink:title=" ">
<polygon fill="#e0e0e0" stroke="#999999" points="339.5,-19 289.5,-19 289.5,0 339.5,0 339.5,-19"/>
<text text-anchor="middle" x="314.5" y="-7" font-family="Helvetica,sans-Serif" font-size="10.00">cstdint</text>
</a>
</g>
</g>
<!-- Node2&#45;&gt;Node3 -->
<g id="edge2_Node000002_Node000003" class="edge">
<title>Node2&#45;&gt;Node3</title>
<g id="a_edge2_Node000002_Node000003"><a xlink:title=" ">
<path fill="none" stroke="#63b8ff" d="M379.97,-54.98C368.1,-46.92 350.04,-34.65 335.89,-25.03"/>
<polygon fill="#63b8ff" stroke="#63b8ff" points="337.5,-21.9 327.26,-19.17 333.57,-27.69 337.5,-21.9"/>
</a>
</g>
</g>
<!-- Node4 -->
<g id="Node000004" class="node">
<title>Node4</title>
<g id="a_Node000004"><a xlink:title=" ">
<polygon fill="#e0e0e0" stroke="#999999" points="414.5,-19 370.5,-19 370.5,0 414.5,0 414.5,-19"/>
<text text-anchor="middle" x="392.5" y="-7" font-family="Helvetica,sans-Serif" font-size="10.00">limits</text>
</a>
</g>
</g>
<!-- Node2&#45;&gt;Node4 -->
<g id="edge3_Node000002_Node000004" class="edge">
<title>Node2&#45;&gt;Node4</title>
<g id="a_edge3_Node000002_Node000004"><a xlink:title=" ">
<path fill="none" stroke="#63b8ff" d="M392.5,-54.75C392.5,-47.8 392.5,-37.85 392.5,-29.13"/>
<polygon fill="#63b8ff" stroke="#63b8ff" points="396,-29.09 392.5,-19.09 389,-29.09 396,-29.09"/>
</a>
</g>
</g>
<!-- Node5&#45;&gt;Node2 -->
<g id="edge16_Node000005_Node000002" class="edge">
<title>Node5&#45;&gt;Node2</title>
<g id="a_edge16_Node000005_Node000002"><a xlink:title=" ">
<path fill="none" stroke="#63b8ff" d="M273.64,-241.94C292.45,-233.77 314.05,-221.9 329.5,-206 363.86,-170.64 381.41,-113.3 388.54,-84.01"/>
<polygon fill="#63b8ff" stroke="#63b8ff" points="391.95,-84.79 390.78,-74.26 385.13,-83.23 391.95,-84.79"/>
</a>
</g>
</g>
<!-- Node5&#45;&gt;Node3 -->
<g id="edge5_Node000005_Node000003" class="edge">
<title>Node5&#45;&gt;Node3</title>
<g id="a_edge5_Node000005_Node000003"><a xlink:title=" ">
<path fill="none" stroke="#63b8ff" d="M128.86,-242.26C86.02,-234.29 43.43,-222.5 30.5,-206 5.47,-174.05 -29.94,-134.44 47.5,-55 79.04,-22.64 213.85,-13.79 278.99,-11.38"/>
<polygon fill="#63b8ff" stroke="#63b8ff" points="279.31,-14.88 289.19,-11.04 279.08,-7.88 279.31,-14.88"/>
</a>
</g>
</g>
<!-- Node6 -->
<g id="Node000006" class="node">
<title>Node6</title>
<g id="a_Node000006"><a xlink:title=" ">
<polygon fill="#e0e0e0" stroke="#999999" points="130,-74 57,-74 57,-55 130,-55 130,-74"/>
<text text-anchor="middle" x="93.5" y="-62" font-family="Helvetica,sans-Serif" font-size="10.00">string_view</text>
</a>
</g>
</g>
<!-- Node5&#45;&gt;Node6 -->
<g id="edge6_Node000005_Node000006" class="edge">
<title>Node5&#45;&gt;Node6</title>
<g id="a_edge6_Node000005_Node000006"><a xlink:title=" ">
<path fill="none" stroke="#63b8ff" d="M223.21,-241.99C198.06,-207.77 133.56,-120.01 106.14,-82.7"/>
<polygon fill="#63b8ff" stroke="#63b8ff" points="108.76,-80.35 100.01,-74.36 103.12,-84.49 108.76,-80.35"/>
</a>
</g>
</g>
<!-- Node7 -->
<g id="Node000007" class="node">
<title>Node7</title>
<g id="a_Node000007"><a xlink:href="helios_2core_2data_2__module_8ixx.html" target="_top" xlink:title="Aggregate module for helios::core::data namespace.">
<polygon fill="white" stroke="#666666" points="321,-200.5 226,-200.5 226,-181.5 321,-181.5 321,-200.5"/>
<text text-anchor="middle" x="273.5" y="-188.5" font-family="Helvetica,sans-Serif" font-size="10.00">helios.core.data</text>
</a>
</g>
</g>
<!-- Node5&#45;&gt;Node7 -->
<g id="edge7_Node000005_Node000007" class="edge">
<title>Node5&#45;&gt;Node7</title>
<g id="a_edge7_Node000005_Node000007"><a xlink:title=" ">
<path fill="none" stroke="#63b8ff" d="M242.38,-241.8C248.31,-232.31 256.15,-219.76 262.48,-209.63"/>
<polygon fill="#63b8ff" stroke="#63b8ff" points="265.64,-211.18 267.97,-200.84 259.71,-207.47 265.64,-211.18"/>
</a>
</g>
</g>
<!-- Node12 -->
<g id="Node000012" class="node">
<title>Node12</title>
<g id="a_Node000012"><a xlink:title=" ">
<polygon fill="#e0e0e0" stroke="#999999" points="165,-200.5 40,-200.5 40,-181.5 165,-181.5 165,-200.5"/>
<text text-anchor="middle" x="102.5" y="-188.5" font-family="Helvetica,sans-Serif" font-size="10.00">helios.core.algorithms</text>
</a>
</g>
</g>
<!-- Node5&#45;&gt;Node12 -->
<g id="edge17_Node000005_Node000012" class="edge">
<title>Node5&#45;&gt;Node12</title>
<g id="a_edge17_Node000005_Node000012"><a xlink:title=" ">
<path fill="none" stroke="#63b8ff" d="M204.75,-241.95C182.18,-230.93 151.01,-215.7 129.03,-204.96"/>
<polygon fill="#63b8ff" stroke="#63b8ff" points="130.46,-201.76 119.94,-200.52 127.38,-208.05 130.46,-201.76"/>
</a>
</g>
</g>
<!-- Node8 -->
<g id="Node000008" class="node">
<title>Node8</title>
<g id="a_Node000008"><a xlink:href="RuntimeHandle_8ixx.html" target="_top" xlink:title="Lightweight handle pairing a strong identifier with a runtime index.">
<polygon fill="white" stroke="#666666" points="353,-140 214,-140 214,-110 353,-110 353,-140"/>
<text text-anchor="start" x="222" y="-128" font-family="Helvetica,sans-Serif" font-size="10.00">helios.core.data.Runtime</text>
<text text-anchor="middle" x="283.5" y="-117" font-family="Helvetica,sans-Serif" font-size="10.00">Handle</text>
</a>
</g>
</g>
<!-- Node7&#45;&gt;Node8 -->
<g id="edge8_Node000007_Node000008" class="edge">
<title>Node7&#45;&gt;Node8</title>
<g id="a_edge8_Node000007_Node000008"><a xlink:title=" ">
<path fill="none" stroke="#63b8ff" d="M274.85,-181.37C276.1,-173.4 278,-161.2 279.71,-150.27"/>
<polygon fill="#63b8ff" stroke="#63b8ff" points="283.17,-150.78 281.26,-140.36 276.26,-149.7 283.17,-150.78"/>
</a>
</g>
</g>
<!-- Node9 -->
<g id="Node000009" class="node">
<title>Node9</title>
<g id="a_Node000009"><a xlink:title=" ">
<polygon fill="#e0e0e0" stroke="#999999" points="286.5,-74 148.5,-74 148.5,-55 286.5,-55 286.5,-74"/>
<text text-anchor="middle" x="217.5" y="-62" font-family="Helvetica,sans-Serif" font-size="10.00">helios.core.data.StrongId</text>
</a>
</g>
</g>
<!-- Node7&#45;&gt;Node9 -->
<g id="edge13_Node000007_Node000009" class="edge">
<title>Node7&#45;&gt;Node9</title>
<g id="a_edge13_Node000007_Node000009"><a xlink:title=" ">
<path fill="none" stroke="#63b8ff" d="M252.67,-181.39C236.25,-173.35 214.52,-159.63 204.5,-140 195.4,-122.16 201.76,-99.12 208.39,-83.42"/>
<polygon fill="#63b8ff" stroke="#63b8ff" points="211.6,-84.83 212.63,-74.29 205.25,-81.88 211.6,-84.83"/>
</a>
</g>
</g>
<!-- Node10 -->
<g id="Node000010" class="node">
<title>Node10</title>
<g id="a_Node000010"><a xlink:href="TypeIndexer_8ixx.html" target="_top" xlink:title="Utility for generating unique type indices at runtime.">
<polygon fill="white" stroke="#666666" points="603.5,-134.5 447.5,-134.5 447.5,-115.5 603.5,-115.5 603.5,-134.5"/>
<text text-anchor="middle" x="525.5" y="-122.5" font-family="Helvetica,sans-Serif" font-size="10.00">helios.core.data.TypeIndexer</text>
</a>
</g>
</g>
<!-- Node7&#45;&gt;Node10 -->
<g id="edge14_Node000007_Node000010" class="edge">
<title>Node7&#45;&gt;Node10</title>
<g id="a_edge14_Node000007_Node000010"><a xlink:title=" ">
<path fill="none" stroke="#63b8ff" d="M307.23,-181.44C352.4,-169.96 432.59,-149.6 482.18,-137"/>
<polygon fill="#63b8ff" stroke="#63b8ff" points="483.15,-140.37 491.98,-134.51 481.42,-133.58 483.15,-140.37"/>
</a>
</g>
</g>
<!-- Node8&#45;&gt;Node2 -->
<g id="edge11_Node000008_Node000002" class="edge">
<title>Node8&#45;&gt;Node2</title>
<g id="a_edge11_Node000008_Node000002"><a xlink:title=" ">
<path fill="none" stroke="#63b8ff" d="M309.61,-109.99C327.15,-100.58 350.12,-88.24 367.44,-78.95"/>
<polygon fill="#63b8ff" stroke="#63b8ff" points="369.25,-81.95 376.41,-74.14 365.94,-75.78 369.25,-81.95"/>
</a>
</g>
</g>
<!-- Node8&#45;&gt;Node3 -->
<g id="edge9_Node000008_Node000003" class="edge">
<title>Node8&#45;&gt;Node3</title>
<g id="a_edge9_Node000008_Node000003"><a xlink:title=" ">
<path fill="none" stroke="#63b8ff" d="M287.43,-109.63C293.03,-89.12 303.31,-51.47 309.47,-28.93"/>
<polygon fill="#63b8ff" stroke="#63b8ff" points="312.86,-29.8 312.12,-19.23 306.11,-27.95 312.86,-29.8"/>
</a>
</g>
</g>
<!-- Node8&#45;&gt;Node6 -->
<g id="edge10_Node000008_Node000006" class="edge">
<title>Node8&#45;&gt;Node6</title>
<g id="a_edge10_Node000008_Node000006"><a xlink:title=" ">
<path fill="none" stroke="#63b8ff" d="M237.99,-109.99C205.34,-99.94 161.88,-86.55 131.17,-77.1"/>
<polygon fill="#63b8ff" stroke="#63b8ff" points="131.87,-73.65 121.28,-74.05 129.81,-80.34 131.87,-73.65"/>
</a>
</g>
</g>
<!-- Node8&#45;&gt;Node9 -->
<g id="edge12_Node000008_Node000009" class="edge">
<title>Node8&#45;&gt;Node9</title>
<g id="a_edge12_Node000008_Node000009"><a xlink:title=" ">
<path fill="none" stroke="#63b8ff" d="M267.53,-109.84C257.75,-101.17 245.23,-90.08 235.16,-81.15"/>
<polygon fill="#63b8ff" stroke="#63b8ff" points="237.2,-78.28 227.39,-74.27 232.55,-83.52 237.2,-78.28"/>
</a>
</g>
</g>
<!-- Node11 -->
<g id="Node000011" class="node">
<title>Node11</title>
<g id="a_Node000011"><a xlink:title=" ">
<polygon fill="#e0e0e0" stroke="#999999" points="550.5,-74 500.5,-74 500.5,-55 550.5,-55 550.5,-74"/>
<text text-anchor="middle" x="525.5" y="-62" font-family="Helvetica,sans-Serif" font-size="10.00">atomic</text>
</a>
</g>
</g>
<!-- Node10&#45;&gt;Node11 -->
<g id="edge15_Node000010_Node000011" class="edge">
<title>Node10&#45;&gt;Node11</title>
<g id="a_edge15_Node000010_Node000011"><a xlink:title=" ">
<path fill="none" stroke="#63b8ff" d="M525.5,-115.37C525.5,-107.25 525.5,-94.81 525.5,-84.39"/>
<polygon fill="#63b8ff" stroke="#63b8ff" points="529,-84.17 525.5,-74.17 522,-84.17 529,-84.17"/>
</a>
</g>
</g>
<!-- Node13&#45;&gt;Node2 -->
<g id="edge20_Node000013_Node000002" class="edge">
<title>Node13&#45;&gt;Node2</title>
<g id="a_edge20_Node000013_Node000002"><a xlink:title=" ">
<path fill="none" stroke="#63b8ff" d="M601.85,-175.99C613.28,-158.66 628.14,-129.12 612.5,-110 602.35,-97.59 514.32,-82.74 452.74,-73.72"/>
<polygon fill="#63b8ff" stroke="#63b8ff" points="453.12,-70.24 442.72,-72.27 452.12,-77.17 453.12,-70.24"/>
</a>
</g>
</g>
<!-- Node13&#45;&gt;Node10 -->
<g id="edge21_Node000013_Node000010" class="edge">
<title>Node13&#45;&gt;Node10</title>
<g id="a_edge21_Node000013_Node000010"><a xlink:title=" ">
<path fill="none" stroke="#63b8ff" d="M576.85,-175.8C566.57,-165.82 552.79,-152.46 542.09,-142.09"/>
<polygon fill="#63b8ff" stroke="#63b8ff" points="544.24,-139.29 534.62,-134.84 539.37,-144.32 544.24,-139.29"/>
</a>
</g>
</g>
<!-- Node14 -->
<g id="Node000014" class="node">
<title>Node14</title>
<g id="a_Node000014"><a xlink:title=" ">
<polygon fill="#e0e0e0" stroke="#999999" points="725,-134.5 660,-134.5 660,-115.5 725,-115.5 725,-134.5"/>
<text text-anchor="middle" x="692.5" y="-122.5" font-family="Helvetica,sans-Serif" font-size="10.00">functional</text>
</a>
</g>
</g>
<!-- Node13&#45;&gt;Node14 -->
<g id="edge19_Node000013_Node000014" class="edge">
<title>Node13&#45;&gt;Node14</title>
<g id="a_edge19_Node000013_Node000014"><a xlink:title=" ">
<path fill="none" stroke="#63b8ff" d="M613.92,-175.8C630.69,-165.17 653.52,-150.7 670.25,-140.1"/>
<polygon fill="#63b8ff" stroke="#63b8ff" points="672.26,-142.97 678.84,-134.66 668.52,-137.05 672.26,-142.97"/>
</a>
</g>
</g>
</g>
</svg>
