<?xml version="1.0" encoding="UTF-8" standalone="no"?>
<!DOCTYPE svg PUBLIC "-//W3C//DTD SVG 1.1//EN"
 "http://www.w3.org/Graphics/SVG/1.1/DTD/svg11.dtd">
<!-- Generated by graphviz version 2.43.0 (0)
 -->
<!-- Title: ScoreContext.ixx Pages: 1 -->
<svg width="813pt" height="390pt"
 viewBox="0.00 0.00 812.50 390.00" xmlns="http://www.w3.org/2000/svg" xmlns:xlink="http://www.w3.org/1999/xlink">
<g id="graph0" class="graph" transform="scale(1 1) rotate(0) translate(4 386)">
<title>ScoreContext.ixx</title>
<!-- Node1 -->
<g id="Node000001" class="node">
<title>Node1</title>
<g id="a_Node000001"><a xlink:title="Data structure for score update information.">
<polygon fill="#999999" stroke="#666666" points="721.5,-382 621.5,-382 621.5,-363 721.5,-363 721.5,-382"/>
<text text-anchor="middle" x="671.5" y="-370" font-family="Helvetica,sans-Serif" font-size="10.00">ScoreContext.ixx</text>
</a>
</g>
</g>
<!-- Node2 -->
<g id="Node000002" class="node">
<title>Node2</title>
<g id="a_Node000002"><a xlink:href="types_8ixx.html" target="_top" xlink:title="Core type definitions and tag types for the helios engine.">
<polygon fill="white" stroke="#666666" points="561.5,-74 461.5,-74 461.5,-55 561.5,-55 561.5,-74"/>
<text text-anchor="middle" x="511.5" y="-62" font-family="Helvetica,sans-Serif" font-size="10.00">helios.core.types</text>
</a>
</g>
</g>
<!-- Node1&#45;&gt;Node2 -->
<g id="edge1_Node000001_Node000002" class="edge">
<title>Node1&#45;&gt;Node2</title>
<g id="a_edge1_Node000001_Node000002"><a xlink:title=" ">
<path fill="none" stroke="#63b8ff" d="M693.46,-362.92C731.24,-346.57 804.5,-307.09 804.5,-247 804.5,-247 804.5,-247 804.5,-179 804.5,-129.28 655.95,-92.82 570.39,-75.95"/>
<polygon fill="#63b8ff" stroke="#63b8ff" points="571.03,-72.5 560.54,-74.03 569.69,-79.38 571.03,-72.5"/>
</a>
</g>
</g>
<!-- Node5 -->
<g id="Node000005" class="node">
<title>Node5</title>
<g id="a_Node000005"><a xlink:href="ScorePoolId_8ixx.html" target="_top" xlink:title="Strongly&#45;typed identifier for ScorePools.">
<polygon fill="white" stroke="#666666" points="326,-327 117,-327 117,-297 326,-297 326,-327"/>
<text text-anchor="start" x="125" y="-315" font-family="Helvetica,sans-Serif" font-size="10.00">helios.engine.mechanics.scoring.types.</text>
<text text-anchor="middle" x="221.5" y="-304" font-family="Helvetica,sans-Serif" font-size="10.00">ScorePoolId</text>
</a>
</g>
</g>
<!-- Node1&#45;&gt;Node5 -->
<g id="edge4_Node000001_Node000005" class="edge">
<title>Node1&#45;&gt;Node5</title>
<g id="a_edge4_Node000001_Node000005"><a xlink:title=" ">
<path fill="none" stroke="#63b8ff" d="M621.19,-364.96C552.77,-356.07 428.39,-339.9 336.49,-327.95"/>
<polygon fill="#63b8ff" stroke="#63b8ff" points="336.67,-324.44 326.3,-326.62 335.76,-331.38 336.67,-324.44"/>
</a>
</g>
</g>
<!-- Node14 -->
<g id="Node000014" class="node">
<title>Node14</title>
<g id="a_Node000014"><a xlink:href="ScoreTypeId_8ixx.html" target="_top" xlink:title="Strongly&#45;typed identifier for score types.">
<polygon fill="white" stroke="#666666" points="776,-261 567,-261 567,-231 776,-231 776,-261"/>
<text text-anchor="start" x="575" y="-249" font-family="Helvetica,sans-Serif" font-size="10.00">helios.engine.mechanics.scoring.types.</text>
<text text-anchor="middle" x="671.5" y="-238" font-family="Helvetica,sans-Serif" font-size="10.00">ScoreTypeId</text>
</a>
</g>
</g>
<!-- Node1&#45;&gt;Node14 -->
<g id="edge24_Node000001_Node000014" class="edge">
<title>Node1&#45;&gt;Node14</title>
<g id="a_edge24_Node000001_Node000014"><a xlink:title=" ">
<path fill="none" stroke="#63b8ff" d="M671.5,-362.94C671.5,-344.32 671.5,-299.53 671.5,-271.39"/>
<polygon fill="#63b8ff" stroke="#63b8ff" points="675,-271.16 671.5,-261.16 668,-271.16 675,-271.16"/>
</a>
</g>
</g>
<!-- Node3 -->
<g id="Node000003" class="node">
<title>Node3</title>
<g id="a_Node000003"><a xlink:title=" ">
<polygon fill="#e0e0e0" stroke="#999999" points="235.5,-19 185.5,-19 185.5,0 235.5,0 235.5,-19"/>
<text text-anchor="middle" x="210.5" y="-7" font-family="Helvetica,sans-Serif" font-size="10.00">cstdint</text>
</a>
</g>
</g>
<!-- Node2&#45;&gt;Node3 -->
<g id="edge2_Node000002_Node000003" class="edge">
<title>Node2&#45;&gt;Node3</title>
<g id="a_edge2_Node000002_Node000003"><a xlink:title=" ">
<path fill="none" stroke="#63b8ff" d="M463.14,-54.98C402.38,-44.29 299.56,-26.18 245.74,-16.71"/>
<polygon fill="#63b8ff" stroke="#63b8ff" points="246.11,-13.22 235.66,-14.93 244.9,-20.11 246.11,-13.22"/>
</a>
</g>
</g>
<!-- Node4 -->
<g id="Node000004" class="node">
<title>Node4</title>
<g id="a_Node000004"><a xlink:title=" ">
<polygon fill="#e0e0e0" stroke="#999999" points="533.5,-19 489.5,-19 489.5,0 533.5,0 533.5,-19"/>
<text text-anchor="middle" x="511.5" y="-7" font-family="Helvetica,sans-Serif" font-size="10.00">limits</text>
</a>
</g>
</g>
<!-- Node2&#45;&gt;Node4 -->
<g id="edge3_Node000002_Node000004" class="edge">
<title>Node2&#45;&gt;Node4</title>
<g id="a_edge3_Node000002_Node000004"><a xlink:title=" ">
<path fill="none" stroke="#63b8ff" d="M511.5,-54.75C511.5,-47.8 511.5,-37.85 511.5,-29.13"/>
<polygon fill="#63b8ff" stroke="#63b8ff" points="515,-29.09 511.5,-19.09 508,-29.09 515,-29.09"/>
</a>
</g>
</g>
<!-- Node5&#45;&gt;Node2 -->
<g id="edge22_Node000005_Node000002" class="edge">
<title>Node5&#45;&gt;Node2</title>
<g id="a_edge22_Node000005_Node000002"><a xlink:title=" ">
<path fill="none" stroke="#63b8ff" d="M326.38,-306.4C405.42,-296.74 508.88,-269.51 561.5,-195 587.22,-158.59 549.66,-107.18 526.85,-81.46"/>
<polygon fill="#63b8ff" stroke="#63b8ff" points="529.4,-79.06 520.06,-74.07 524.24,-83.8 529.4,-79.06"/>
</a>
</g>
</g>
<!-- Node5&#45;&gt;Node3 -->
<g id="edge5_Node000005_Node000003" class="edge">
<title>Node5&#45;&gt;Node3</title>
<g id="a_edge5_Node000005_Node000003"><a xlink:title=" ">
<path fill="none" stroke="#63b8ff" d="M208.42,-296.89C200.55,-287.48 191.18,-274.41 186.5,-261 157.51,-177.89 189.01,-70.45 203.75,-28.45"/>
<polygon fill="#63b8ff" stroke="#63b8ff" points="207.05,-29.62 207.17,-19.02 200.47,-27.23 207.05,-29.62"/>
</a>
</g>
</g>
<!-- Node6 -->
<g id="Node000006" class="node">
<title>Node6</title>
<g id="a_Node000006"><a xlink:title=" ">
<polygon fill="#e0e0e0" stroke="#999999" points="312,-74 239,-74 239,-55 312,-55 312,-74"/>
<text text-anchor="middle" x="275.5" y="-62" font-family="Helvetica,sans-Serif" font-size="10.00">string_view</text>
</a>
</g>
</g>
<!-- Node5&#45;&gt;Node6 -->
<g id="edge6_Node000005_Node000006" class="edge">
<title>Node5&#45;&gt;Node6</title>
<g id="a_edge6_Node000005_Node000006"><a xlink:title=" ">
<path fill="none" stroke="#63b8ff" d="M213.61,-296.94C199.84,-270.46 174.44,-211.66 191.5,-165 204.4,-129.73 235.92,-98.34 256.47,-80.64"/>
<polygon fill="#63b8ff" stroke="#63b8ff" points="258.84,-83.23 264.27,-74.13 254.35,-77.86 258.84,-83.23"/>
</a>
</g>
</g>
<!-- Node7 -->
<g id="Node000007" class="node">
<title>Node7</title>
<g id="a_Node000007"><a xlink:href="helios_2core_2data_2__module_8ixx.html" target="_top" xlink:title="Aggregate module for helios::core::data namespace.">
<polygon fill="white" stroke="#666666" points="367,-255.5 272,-255.5 272,-236.5 367,-236.5 367,-255.5"/>
<text text-anchor="middle" x="319.5" y="-243.5" font-family="Helvetica,sans-Serif" font-size="10.00">helios.core.data</text>
</a>
</g>
</g>
<!-- Node5&#45;&gt;Node7 -->
<g id="edge7_Node000005_Node000007" class="edge">
<title>Node5&#45;&gt;Node7</title>
<g id="a_edge7_Node000005_Node000007"><a xlink:title=" ">
<path fill="none" stroke="#63b8ff" d="M243.25,-296.8C259.37,-286.27 281.26,-271.97 297.45,-261.4"/>
<polygon fill="#63b8ff" stroke="#63b8ff" points="299.78,-264.06 306.24,-255.66 295.96,-258.2 299.78,-264.06"/>
</a>
</g>
</g>
<!-- Node10 -->
<g id="Node000010" class="node">
<title>Node10</title>
<g id="a_Node000010"><a xlink:href="algorithms_8ixx.html" target="_top" xlink:title="Core algorithms and hash functions for the helios engine.">
<polygon fill="white" stroke="#666666" points="125,-74 0,-74 0,-55 125,-55 125,-74"/>
<text text-anchor="middle" x="62.5" y="-62" font-family="Helvetica,sans-Serif" font-size="10.00">helios.core.algorithms</text>
</a>
</g>
</g>
<!-- Node5&#45;&gt;Node10 -->
<g id="edge23_Node000005_Node000010" class="edge">
<title>Node5&#45;&gt;Node10</title>
<g id="a_edge23_Node000005_Node000010"><a xlink:title=" ">
<path fill="none" stroke="#63b8ff" d="M174.2,-296.93C155.15,-289.12 134.42,-277.54 120.5,-261 75.87,-207.98 65.58,-121.74 63.21,-84.08"/>
<polygon fill="#63b8ff" stroke="#63b8ff" points="66.7,-83.85 62.7,-74.04 59.71,-84.21 66.7,-83.85"/>
</a>
</g>
</g>
<!-- Node8 -->
<g id="Node000008" class="node">
<title>Node8</title>
<g id="a_Node000008"><a xlink:href="RuntimeHandle_8ixx.html" target="_top" xlink:title="Lightweight handle pairing a strong identifier with a runtime index.">
<polygon fill="white" stroke="#666666" points="340,-195 201,-195 201,-165 340,-165 340,-195"/>
<text text-anchor="start" x="209" y="-183" font-family="Helvetica,sans-Serif" font-size="10.00">helios.core.data.Runtime</text>
<text text-anchor="middle" x="270.5" y="-172" font-family="Helvetica,sans-Serif" font-size="10.00">Handle</text>
</a>
</g>
</g>
<!-- Node7&#45;&gt;Node8 -->
<g id="edge8_Node000007_Node000008" class="edge">
<title>Node7&#45;&gt;Node8</title>
<g id="a_edge8_Node000007_Node000008"><a xlink:title=" ">
<path fill="none" stroke="#63b8ff" d="M312.89,-236.37C306.48,-227.99 296.47,-214.93 287.79,-203.59"/>
<polygon fill="#63b8ff" stroke="#63b8ff" points="290.35,-201.17 281.49,-195.36 284.79,-205.43 290.35,-201.17"/>
</a>
</g>
</g>
<!-- Node9 -->
<g id="Node000009" class="node">
<title>Node9</title>
<g id="a_Node000009"><a xlink:href="StrongId_8ixx.html" target="_top" xlink:title="Strongly&#45;typed identifier template.">
<polygon fill="white" stroke="#666666" points="414.5,-129 276.5,-129 276.5,-110 414.5,-110 414.5,-129"/>
<text text-anchor="middle" x="345.5" y="-117" font-family="Helvetica,sans-Serif" font-size="10.00">helios.core.data.StrongId</text>
</a>
</g>
</g>
<!-- Node7&#45;&gt;Node9 -->
<g id="edge19_Node000007_Node000009" class="edge">
<title>Node7&#45;&gt;Node9</title>
<g id="a_edge19_Node000007_Node000009"><a xlink:title=" ">
<path fill="none" stroke="#63b8ff" d="M326.39,-236.43C333.53,-226.94 344.22,-210.89 348.5,-195 353.43,-176.67 351.73,-154.9 349.37,-139.64"/>
<polygon fill="#63b8ff" stroke="#63b8ff" points="352.75,-138.63 347.55,-129.41 345.86,-139.87 352.75,-138.63"/>
</a>
</g>
</g>
<!-- Node12 -->
<g id="Node000012" class="node">
<title>Node12</title>
<g id="a_Node000012"><a xlink:href="TypeIndexer_8ixx.html" target="_top" xlink:title="Utility for generating unique type indices at runtime.">
<polygon fill="white" stroke="#666666" points="552.5,-189.5 396.5,-189.5 396.5,-170.5 552.5,-170.5 552.5,-189.5"/>
<text text-anchor="middle" x="474.5" y="-177.5" font-family="Helvetica,sans-Serif" font-size="10.00">helios.core.data.TypeIndexer</text>
</a>
</g>
</g>
<!-- Node7&#45;&gt;Node12 -->
<g id="edge20_Node000007_Node000012" class="edge">
<title>Node7&#45;&gt;Node12</title>
<g id="a_edge20_Node000007_Node000012"><a xlink:title=" ">
<path fill="none" stroke="#63b8ff" d="M340.4,-236.37C367.1,-225.35 413.49,-206.19 444.09,-193.55"/>
<polygon fill="#63b8ff" stroke="#63b8ff" points="445.52,-196.75 453.43,-189.7 442.85,-190.28 445.52,-196.75"/>
</a>
</g>
</g>
<!-- Node8&#45;&gt;Node2 -->
<g id="edge11_Node000008_Node000002" class="edge">
<title>Node8&#45;&gt;Node2</title>
<g id="a_edge11_Node000008_Node000002"><a xlink:title=" ">
<path fill="none" stroke="#63b8ff" d="M327.4,-164.95C356.94,-156.53 393.11,-144.45 423.5,-129 449.81,-115.62 476.88,-94.83 493.92,-80.71"/>
<polygon fill="#63b8ff" stroke="#63b8ff" points="496.48,-83.14 501.87,-74.01 491.96,-77.79 496.48,-83.14"/>
</a>
</g>
</g>
<!-- Node8&#45;&gt;Node3 -->
<g id="edge9_Node000008_Node000003" class="edge">
<title>Node8&#45;&gt;Node3</title>
<g id="a_edge9_Node000008_Node000003"><a xlink:title=" ">
<path fill="none" stroke="#63b8ff" d="M264.56,-164.87C256.23,-144.83 240.84,-106.94 229.5,-74 224.34,-59.02 219.24,-41.79 215.62,-29.06"/>
<polygon fill="#63b8ff" stroke="#63b8ff" points="218.93,-27.88 212.86,-19.2 212.19,-29.77 218.93,-27.88"/>
</a>
</g>
</g>
<!-- Node8&#45;&gt;Node6 -->
<g id="edge10_Node000008_Node000006" class="edge">
<title>Node8&#45;&gt;Node6</title>
<g id="a_edge10_Node000008_Node000006"><a xlink:title=" ">
<path fill="none" stroke="#63b8ff" d="M268.8,-164.97C267.37,-151.01 265.81,-128.99 267.5,-110 268.26,-101.5 269.82,-92.19 271.36,-84.29"/>
<polygon fill="#63b8ff" stroke="#63b8ff" points="274.82,-84.81 273.44,-74.3 267.97,-83.38 274.82,-84.81"/>
</a>
</g>
</g>
<!-- Node8&#45;&gt;Node9 -->
<g id="edge12_Node000008_Node000009" class="edge">
<title>Node8&#45;&gt;Node9</title>
<g id="a_edge12_Node000008_Node000009"><a xlink:title=" ">
<path fill="none" stroke="#63b8ff" d="M288.66,-164.84C299.99,-156 314.56,-144.63 326.12,-135.62"/>
<polygon fill="#63b8ff" stroke="#63b8ff" points="328.53,-138.18 334.26,-129.27 324.22,-132.66 328.53,-138.18"/>
</a>
</g>
</g>
<!-- Node9&#45;&gt;Node2 -->
<g id="edge15_Node000009_Node000002" class="edge">
<title>Node9&#45;&gt;Node2</title>
<g id="a_edge15_Node000009_Node000002"><a xlink:title=" ">
<path fill="none" stroke="#63b8ff" d="M372.17,-109.98C400.04,-101.09 443.95,-87.07 475.02,-77.15"/>
<polygon fill="#63b8ff" stroke="#63b8ff" points="476.16,-80.46 484.62,-74.08 474.03,-73.79 476.16,-80.46"/>
</a>
</g>
</g>
<!-- Node9&#45;&gt;Node3 -->
<g id="edge13_Node000009_Node000003" class="edge">
<title>Node9&#45;&gt;Node3</title>
<g id="a_edge13_Node000009_Node000003"><a xlink:title=" ">
<path fill="none" stroke="#63b8ff" d="M344.32,-109.93C342.05,-96.52 335.84,-70.49 320.5,-55 300.2,-34.51 269.21,-23.12 245.29,-17.01"/>
<polygon fill="#63b8ff" stroke="#63b8ff" points="246.06,-13.6 235.52,-14.7 244.45,-20.41 246.06,-13.6"/>
</a>
</g>
</g>
<!-- Node9&#45;&gt;Node6 -->
<g id="edge14_Node000009_Node000006" class="edge">
<title>Node9&#45;&gt;Node6</title>
<g id="a_edge14_Node000009_Node000006"><a xlink:title=" ">
<path fill="none" stroke="#63b8ff" d="M334.25,-109.98C323.7,-102 307.7,-89.88 295.06,-80.31"/>
<polygon fill="#63b8ff" stroke="#63b8ff" points="297.04,-77.42 286.95,-74.17 292.81,-83 297.04,-77.42"/>
</a>
</g>
</g>
<!-- Node9&#45;&gt;Node10 -->
<g id="edge16_Node000009_Node000010" class="edge">
<title>Node9&#45;&gt;Node10</title>
<g id="a_edge16_Node000009_Node000010"><a xlink:title=" ">
<path fill="none" stroke="#63b8ff" d="M300.03,-109.98C250.56,-100.72 171.45,-85.9 118.27,-75.94"/>
<polygon fill="#63b8ff" stroke="#63b8ff" points="118.8,-72.48 108.33,-74.08 117.51,-79.36 118.8,-72.48"/>
</a>
</g>
</g>
<!-- Node10&#45;&gt;Node3 -->
<g id="edge17_Node000010_Node000003" class="edge">
<title>Node10&#45;&gt;Node3</title>
<g id="a_edge17_Node000010_Node000003"><a xlink:title=" ">
<path fill="none" stroke="#63b8ff" d="M86.28,-54.98C110.73,-46.23 149.03,-32.51 176.65,-22.62"/>
<polygon fill="#63b8ff" stroke="#63b8ff" points="178.05,-25.84 186.29,-19.17 175.69,-19.25 178.05,-25.84"/>
</a>
</g>
</g>
<!-- Node11 -->
<g id="Node000011" class="node">
<title>Node11</title>
<g id="a_Node000011"><a xlink:title=" ">
<polygon fill="#e0e0e0" stroke="#999999" points="84.5,-19 40.5,-19 40.5,0 84.5,0 84.5,-19"/>
<text text-anchor="middle" x="62.5" y="-7" font-family="Helvetica,sans-Serif" font-size="10.00">string</text>
</a>
</g>
</g>
<!-- Node10&#45;&gt;Node11 -->
<g id="edge18_Node000010_Node000011" class="edge">
<title>Node10&#45;&gt;Node11</title>
<g id="a_edge18_Node000010_Node000011"><a xlink:title=" ">
<path fill="none" stroke="#63b8ff" d="M62.5,-54.75C62.5,-47.8 62.5,-37.85 62.5,-29.13"/>
<polygon fill="#63b8ff" stroke="#63b8ff" points="66,-29.09 62.5,-19.09 59,-29.09 66,-29.09"/>
</a>
</g>
</g>
<!-- Node13 -->
<g id="Node000013" class="node">
<title>Node13</title>
<g id="a_Node000013"><a xlink:title=" ">
<polygon fill="#e0e0e0" stroke="#999999" points="520.5,-129 470.5,-129 470.5,-110 520.5,-110 520.5,-129"/>
<text text-anchor="middle" x="495.5" y="-117" font-family="Helvetica,sans-Serif" font-size="10.00">atomic</text>
</a>
</g>
</g>
<!-- Node12&#45;&gt;Node13 -->
<g id="edge21_Node000012_Node000013" class="edge">
<title>Node12&#45;&gt;Node13</title>
<g id="a_edge21_Node000012_Node000013"><a xlink:title=" ">
<path fill="none" stroke="#63b8ff" d="M477.6,-170.37C480.58,-162.07 485.17,-149.28 488.96,-138.72"/>
<polygon fill="#63b8ff" stroke="#63b8ff" points="492.3,-139.76 492.39,-129.17 485.72,-137.4 492.3,-139.76"/>
</a>
</g>
</g>
<!-- Node14&#45;&gt;Node2 -->
<g id="edge26_Node000014_Node000002" class="edge">
<title>Node14&#45;&gt;Node2</title>
<g id="a_edge26_Node000014_Node000002"><a xlink:title=" ">
<path fill="none" stroke="#63b8ff" d="M678.43,-230.74C685.51,-213.95 693.99,-185.72 682.5,-165 656.06,-117.3 596.64,-90.5 555.32,-77.01"/>
<polygon fill="#63b8ff" stroke="#63b8ff" points="556.35,-73.67 545.76,-74.03 554.26,-80.35 556.35,-73.67"/>
</a>
</g>
</g>
<!-- Node14&#45;&gt;Node12 -->
<g id="edge27_Node000014_Node000012" class="edge">
<title>Node14&#45;&gt;Node12</title>
<g id="a_edge27_Node000014_Node000012"><a xlink:title=" ">
<path fill="none" stroke="#63b8ff" d="M628.27,-230.95C592.96,-219.48 543.64,-203.46 510.46,-192.68"/>
<polygon fill="#63b8ff" stroke="#63b8ff" points="511.31,-189.28 500.72,-189.52 509.15,-195.94 511.31,-189.28"/>
</a>
</g>
</g>
<!-- Node15 -->
<g id="Node000015" class="node">
<title>Node15</title>
<g id="a_Node000015"><a xlink:title=" ">
<polygon fill="#e0e0e0" stroke="#999999" points="674,-189.5 609,-189.5 609,-170.5 674,-170.5 674,-189.5"/>
<text text-anchor="middle" x="641.5" y="-177.5" font-family="Helvetica,sans-Serif" font-size="10.00">functional</text>
</a>
</g>
</g>
<!-- Node14&#45;&gt;Node15 -->
<g id="edge25_Node000014_Node000015" class="edge">
<title>Node14&#45;&gt;Node15</title>
<g id="a_edge25_Node000014_Node000015"><a xlink:title=" ">
<path fill="none" stroke="#63b8ff" d="M664.84,-230.8C660.44,-221.41 654.63,-209.02 649.91,-198.95"/>
<polygon fill="#63b8ff" stroke="#63b8ff" points="653.06,-197.41 645.65,-189.84 646.72,-200.38 653.06,-197.41"/>
</a>
</g>
</g>
</g>
</svg>
