<?xml version="1.0" encoding="UTF-8" standalone="no"?>
<!DOCTYPE svg PUBLIC "-//W3C//DTD SVG 1.1//EN"
 "http://www.w3.org/Graphics/SVG/1.1/DTD/svg11.dtd">
<!-- Generated by graphviz version 2.43.0 (0)
 -->
<!-- Title: ScoreValueComponent.ixx Pages: 1 -->
<svg width="424pt" height="269pt"
 viewBox="0.00 0.00 423.50 269.00" xmlns="http://www.w3.org/2000/svg" xmlns:xlink="http://www.w3.org/1999/xlink">
<g id="graph0" class="graph" transform="scale(1 1) rotate(0) translate(4 265)">
<title>ScoreValueComponent.ixx</title>
<!-- Node1 -->
<g id="Node000001" class="node">
<title>Node1</title>
<g id="a_Node000001"><a xlink:title="Template component for storing score values on entities.">
<polygon fill="#999999" stroke="#666666" points="185,-261 40,-261 40,-242 185,-242 185,-261"/>
<text text-anchor="middle" x="112.5" y="-249" font-family="Helvetica,sans-Serif" font-size="10.00">ScoreValueComponent.ixx</text>
</a>
</g>
</g>
<!-- Node2 -->
<g id="Node000002" class="node">
<title>Node2</title>
<g id="a_Node000002"><a xlink:title=" ">
<polygon fill="#e0e0e0" stroke="#999999" points="69,-200.5 0,-200.5 0,-181.5 69,-181.5 69,-200.5"/>
<text text-anchor="middle" x="34.5" y="-188.5" font-family="Helvetica,sans-Serif" font-size="10.00">type_traits</text>
</a>
</g>
</g>
<!-- Node1&#45;&gt;Node2 -->
<g id="edge1_Node000001_Node000002" class="edge">
<title>Node1&#45;&gt;Node2</title>
<g id="a_edge1_Node000001_Node000002"><a xlink:title=" ">
<path fill="none" stroke="#63b8ff" d="M100.99,-241.87C88.66,-232.62 68.88,-217.78 54.09,-206.69"/>
<polygon fill="#63b8ff" stroke="#63b8ff" points="56.16,-203.87 46.06,-200.67 51.96,-209.47 56.16,-203.87"/>
</a>
</g>
</g>
<!-- Node3 -->
<g id="Node000003" class="node">
<title>Node3</title>
<g id="a_Node000003"><a xlink:href="Score_8ixx.html" target="_top" xlink:title="Abstract base class for score types.">
<polygon fill="white" stroke="#666666" points="296,-206 87,-206 87,-176 296,-176 296,-206"/>
<text text-anchor="start" x="95" y="-194" font-family="Helvetica,sans-Serif" font-size="10.00">helios.engine.mechanics.scoring.types.</text>
<text text-anchor="middle" x="191.5" y="-183" font-family="Helvetica,sans-Serif" font-size="10.00">Score</text>
</a>
</g>
</g>
<!-- Node1&#45;&gt;Node3 -->
<g id="edge2_Node000001_Node000003" class="edge">
<title>Node1&#45;&gt;Node3</title>
<g id="a_edge2_Node000001_Node000003"><a xlink:title=" ">
<path fill="none" stroke="#63b8ff" d="M124.16,-241.87C134.68,-234.08 150.56,-222.32 164.26,-212.17"/>
<polygon fill="#63b8ff" stroke="#63b8ff" points="166.49,-214.88 172.44,-206.11 162.32,-209.25 166.49,-214.88"/>
</a>
</g>
</g>
<!-- Node4 -->
<g id="Node000004" class="node">
<title>Node4</title>
<g id="a_Node000004"><a xlink:href="ScoreTypeId_8ixx.html" target="_top" xlink:title="Strongly&#45;typed identifier for score types.">
<polygon fill="white" stroke="#666666" points="296,-140 87,-140 87,-110 296,-110 296,-140"/>
<text text-anchor="start" x="95" y="-128" font-family="Helvetica,sans-Serif" font-size="10.00">helios.engine.mechanics.scoring.types.</text>
<text text-anchor="middle" x="191.5" y="-117" font-family="Helvetica,sans-Serif" font-size="10.00">ScoreTypeId</text>
</a>
</g>
</g>
<!-- Node3&#45;&gt;Node4 -->
<g id="edge3_Node000003_Node000004" class="edge">
<title>Node3&#45;&gt;Node4</title>
<g id="a_edge3_Node000003_Node000004"><a xlink:title=" ">
<path fill="none" stroke="#63b8ff" d="M191.5,-175.8C191.5,-168.34 191.5,-158.99 191.5,-150.41"/>
<polygon fill="#63b8ff" stroke="#63b8ff" points="195,-150.16 191.5,-140.16 188,-150.16 195,-150.16"/>
</a>
</g>
</g>
<!-- Node5 -->
<g id="Node000005" class="node">
<title>Node5</title>
<g id="a_Node000005"><a xlink:title=" ">
<polygon fill="#e0e0e0" stroke="#999999" points="123,-74 58,-74 58,-55 123,-55 123,-74"/>
<text text-anchor="middle" x="90.5" y="-62" font-family="Helvetica,sans-Serif" font-size="10.00">functional</text>
</a>
</g>
</g>
<!-- Node4&#45;&gt;Node5 -->
<g id="edge4_Node000004_Node000005" class="edge">
<title>Node4&#45;&gt;Node5</title>
<g id="a_edge4_Node000004_Node000005"><a xlink:title=" ">
<path fill="none" stroke="#63b8ff" d="M167.31,-109.99C151.21,-100.66 130.16,-88.47 114.17,-79.21"/>
<polygon fill="#63b8ff" stroke="#63b8ff" points="115.82,-76.12 105.42,-74.14 112.31,-82.18 115.82,-76.12"/>
</a>
</g>
</g>
<!-- Node6 -->
<g id="Node000006" class="node">
<title>Node6</title>
<g id="a_Node000006"><a xlink:href="types_8ixx.html" target="_top" xlink:title="Core type definitions and tag types for the helios engine.">
<polygon fill="white" stroke="#666666" points="241.5,-74 141.5,-74 141.5,-55 241.5,-55 241.5,-74"/>
<text text-anchor="middle" x="191.5" y="-62" font-family="Helvetica,sans-Serif" font-size="10.00">helios.core.types</text>
</a>
</g>
</g>
<!-- Node4&#45;&gt;Node6 -->
<g id="edge5_Node000004_Node000006" class="edge">
<title>Node4&#45;&gt;Node6</title>
<g id="a_edge5_Node000004_Node000006"><a xlink:title=" ">
<path fill="none" stroke="#63b8ff" d="M191.5,-109.84C191.5,-102.21 191.5,-92.7 191.5,-84.45"/>
<polygon fill="#63b8ff" stroke="#63b8ff" points="195,-84.27 191.5,-74.27 188,-84.27 195,-84.27"/>
</a>
</g>
</g>
<!-- Node7 -->
<g id="Node000007" class="node">
<title>Node7</title>
<g id="a_Node000007"><a xlink:href="TypeIndexer_8ixx.html" target="_top" xlink:title="Utility for generating unique type indices at runtime.">
<polygon fill="white" stroke="#666666" points="415.5,-74 259.5,-74 259.5,-55 415.5,-55 415.5,-74"/>
<text text-anchor="middle" x="337.5" y="-62" font-family="Helvetica,sans-Serif" font-size="10.00">helios.core.data.TypeIndexer</text>
</a>
</g>
</g>
<!-- Node4&#45;&gt;Node7 -->
<g id="edge6_Node000004_Node000007" class="edge">
<title>Node4&#45;&gt;Node7</title>
<g id="a_edge6_Node000004_Node000007"><a xlink:title=" ">
<path fill="none" stroke="#63b8ff" d="M226.47,-109.99C250.83,-100.23 283.03,-87.33 306.47,-77.93"/>
<polygon fill="#63b8ff" stroke="#63b8ff" points="307.96,-81.11 315.94,-74.14 305.35,-74.61 307.96,-81.11"/>
</a>
</g>
</g>
<!-- Node8 -->
<g id="Node000008" class="node">
<title>Node8</title>
<g id="a_Node000008"><a xlink:title=" ">
<polygon fill="#e0e0e0" stroke="#999999" points="362.5,-19 312.5,-19 312.5,0 362.5,0 362.5,-19"/>
<text text-anchor="middle" x="337.5" y="-7" font-family="Helvetica,sans-Serif" font-size="10.00">atomic</text>
</a>
</g>
</g>
<!-- Node7&#45;&gt;Node8 -->
<g id="edge7_Node000007_Node000008" class="edge">
<title>Node7&#45;&gt;Node8</title>
<g id="a_edge7_Node000007_Node000008"><a xlink:title=" ">
<path fill="none" stroke="#63b8ff" d="M337.5,-54.75C337.5,-47.8 337.5,-37.85 337.5,-29.13"/>
<polygon fill="#63b8ff" stroke="#63b8ff" points="341,-29.09 337.5,-19.09 334,-29.09 341,-29.09"/>
</a>
</g>
</g>
</g>
</svg>
