<?xml version="1.0" encoding="UTF-8" standalone="no"?>
<!DOCTYPE svg PUBLIC "-//W3C//DTD SVG 1.1//EN"
 "http://www.w3.org/Graphics/SVG/1.1/DTD/svg11.dtd">
<!-- Generated by graphviz version 2.43.0 (0)
 -->
<!-- Title: include/helios/scene/SnapshotItem.ixx Pages: 1 -->
<svg width="1622pt" height="456pt"
 viewBox="0.00 0.00 1622.00 456.00" xmlns="http://www.w3.org/2000/svg" xmlns:xlink="http://www.w3.org/1999/xlink">
<g id="graph0" class="graph" transform="scale(1 1) rotate(0) translate(4 452)">
<title>include/helios/scene/SnapshotItem.ixx</title>
<!-- Node1 -->
<g id="Node000001" class="node">
<title>Node1</title>
<g id="a_Node000001"><a xlink:title="Snapshot item bundling a Renderable reference and its world matrix.">
<polygon fill="#999999" stroke="#666666" points="1614,-448 1498,-448 1498,-418 1614,-418 1614,-448"/>
<text text-anchor="start" x="1506" y="-436" font-family="Helvetica,sans-Serif" font-size="10.00">include/helios/scene</text>
<text text-anchor="middle" x="1556" y="-425" font-family="Helvetica,sans-Serif" font-size="10.00">/SnapshotItem.ixx</text>
</a>
</g>
</g>
<!-- Node2 -->
<g id="Node000002" class="node">
<title>Node2</title>
<g id="a_Node000002"><a xlink:title=" ">
<polygon fill="#e0e0e0" stroke="#999999" points="1471,-79.5 1413,-79.5 1413,-60.5 1471,-60.5 1471,-79.5"/>
<text text-anchor="middle" x="1442" y="-67.5" font-family="Helvetica,sans-Serif" font-size="10.00">memory</text>
</a>
</g>
</g>
<!-- Node1&#45;&gt;Node2 -->
<g id="edge1_Node000001_Node000002" class="edge">
<title>Node1&#45;&gt;Node2</title>
<g id="a_edge1_Node000001_Node000002"><a xlink:title=" ">
<path fill="none" stroke="#63b8ff" d="M1564.06,-417.82C1575.21,-396.82 1594,-355.9 1594,-318.5 1594,-318.5 1594,-318.5 1594,-201 1594,-139.86 1522.09,-101.32 1477.19,-83.22"/>
<polygon fill="#63b8ff" stroke="#63b8ff" points="1478.37,-79.93 1467.78,-79.57 1475.84,-86.45 1478.37,-79.93"/>
</a>
</g>
</g>
<!-- Node3 -->
<g id="Node000003" class="node">
<title>Node3</title>
<g id="a_Node000003"><a xlink:href="math_2types_2__module_8ixx.html" target="_top" xlink:title="Module exports for vector and matrix type definitions.">
<polygon fill="white" stroke="#666666" points="591,-79.5 487,-79.5 487,-60.5 591,-60.5 591,-79.5"/>
<text text-anchor="middle" x="539" y="-67.5" font-family="Helvetica,sans-Serif" font-size="10.00">helios.math.types</text>
</a>
</g>
</g>
<!-- Node1&#45;&gt;Node3 -->
<g id="edge2_Node000001_Node000003" class="edge">
<title>Node1&#45;&gt;Node3</title>
<g id="a_edge2_Node000001_Node000003"><a xlink:title=" ">
<path fill="none" stroke="#63b8ff" d="M1554.77,-417.94C1549.49,-367.33 1523.98,-193.62 1418,-121 1349.73,-74.22 756.53,-91.27 674,-85 650.26,-83.2 624.24,-80.64 601.42,-78.2"/>
<polygon fill="#63b8ff" stroke="#63b8ff" points="601.51,-74.69 591.19,-77.09 600.75,-81.64 601.51,-74.69"/>
</a>
</g>
</g>
<!-- Node4 -->
<g id="Node000004" class="node">
<title>Node4</title>
<g id="a_Node000004"><a xlink:href="Renderable_8ixx.html" target="_top" xlink:title="Representative of a configurable Renderable rendered by the underlying GL API.">
<polygon fill="white" stroke="#666666" points="575,-382 421,-382 421,-363 575,-363 575,-382"/>
<text text-anchor="middle" x="498" y="-370" font-family="Helvetica,sans-Serif" font-size="10.00">helios.rendering.Renderable</text>
</a>
</g>
</g>
<!-- Node1&#45;&gt;Node4 -->
<g id="edge4_Node000001_Node000004" class="edge">
<title>Node1&#45;&gt;Node4</title>
<g id="a_edge4_Node000001_Node000004"><a xlink:title=" ">
<path fill="none" stroke="#63b8ff" d="M1497.99,-428.79C1322.26,-419.08 795.01,-389.92 585.36,-378.33"/>
<polygon fill="#63b8ff" stroke="#63b8ff" points="585.49,-374.83 575.31,-377.77 585.11,-381.82 585.49,-374.83"/>
</a>
</g>
</g>
<!-- Node3&#45;&gt;Node3 -->
<g id="edge3_Node000003_Node000003" class="edge">
<title>Node3&#45;&gt;Node3</title>
<g id="a_edge3_Node000003_Node000003"><a xlink:title=" ">
<path fill="none" stroke="#63b8ff" d="M564.85,-79.53C586.44,-83.61 609,-80.43 609,-70 609,-61.2 592.94,-57.56 574.95,-59.09"/>
<polygon fill="#63b8ff" stroke="#63b8ff" points="574.28,-55.65 564.85,-60.47 575.23,-62.58 574.28,-55.65"/>
</a>
</g>
</g>
<!-- Node4&#45;&gt;Node2 -->
<g id="edge5_Node000004_Node000002" class="edge">
<title>Node4&#45;&gt;Node2</title>
<g id="a_edge5_Node000004_Node000002"><a xlink:title=" ">
<path fill="none" stroke="#63b8ff" d="M575.06,-371.38C727.21,-369.23 1075.61,-354.78 1354,-272 1408.69,-255.74 1435.96,-262.79 1470,-217 1495.59,-182.57 1493.69,-161.65 1480,-121 1475.68,-108.18 1466.63,-96.05 1458.44,-86.95"/>
<polygon fill="#63b8ff" stroke="#63b8ff" points="1460.77,-84.31 1451.33,-79.5 1455.71,-89.15 1460.77,-84.31"/>
</a>
</g>
</g>
<!-- Node5 -->
<g id="Node000005" class="node">
<title>Node5</title>
<g id="a_Node000005"><a xlink:title=" ">
<polygon fill="#e0e0e0" stroke="#999999" points="131,-79.5 75,-79.5 75,-60.5 131,-60.5 131,-79.5"/>
<text text-anchor="middle" x="103" y="-67.5" font-family="Helvetica,sans-Serif" font-size="10.00">optional</text>
</a>
</g>
</g>
<!-- Node4&#45;&gt;Node5 -->
<g id="edge6_Node000004_Node000005" class="edge">
<title>Node4&#45;&gt;Node5</title>
<g id="a_edge6_Node000004_Node000005"><a xlink:title=" ">
<path fill="none" stroke="#63b8ff" d="M420.73,-370.56C280.85,-366.76 0,-348.54 0,-263.5 0,-263.5 0,-263.5 0,-201 0,-149.63 50.02,-106.73 80.34,-85.44"/>
<polygon fill="#63b8ff" stroke="#63b8ff" points="82.37,-88.29 88.68,-79.78 78.44,-82.5 82.37,-88.29"/>
</a>
</g>
</g>
<!-- Node6 -->
<g id="Node000006" class="node">
<title>Node6</title>
<g id="a_Node000006"><a xlink:title=" ">
<polygon fill="#e0e0e0" stroke="#999999" points="571.5,-211.5 506.5,-211.5 506.5,-192.5 571.5,-192.5 571.5,-211.5"/>
<text text-anchor="middle" x="539" y="-199.5" font-family="Helvetica,sans-Serif" font-size="10.00">stdexcept</text>
</a>
</g>
</g>
<!-- Node4&#45;&gt;Node6 -->
<g id="edge7_Node000004_Node000006" class="edge">
<title>Node4&#45;&gt;Node6</title>
<g id="a_edge7_Node000004_Node000006"><a xlink:title=" ">
<path fill="none" stroke="#63b8ff" d="M500.09,-362.91C506.45,-336.78 525.67,-257.79 534.49,-221.54"/>
<polygon fill="#63b8ff" stroke="#63b8ff" points="537.9,-222.32 536.87,-211.77 531.1,-220.66 537.9,-222.32"/>
</a>
</g>
</g>
<!-- Node7 -->
<g id="Node000007" class="node">
<title>Node7</title>
<g id="a_Node000007"><a xlink:href="Logger_8ixx.html" target="_top" xlink:title="Simple synchronous logger that writes messages to stdout.">
<polygon fill="white" stroke="#666666" points="801.5,-79.5 682.5,-79.5 682.5,-60.5 801.5,-60.5 801.5,-79.5"/>
<text text-anchor="middle" x="742" y="-67.5" font-family="Helvetica,sans-Serif" font-size="10.00">helios.util.log.Logger</text>
</a>
</g>
</g>
<!-- Node4&#45;&gt;Node7 -->
<g id="edge8_Node000004_Node000007" class="edge">
<title>Node4&#45;&gt;Node7</title>
<g id="a_edge8_Node000004_Node000007"><a xlink:title=" ">
<path fill="none" stroke="#63b8ff" d="M495.3,-362.92C489.84,-344.77 478,-301.07 478,-263.5 478,-263.5 478,-263.5 478,-201 478,-114.34 593.92,-85.44 672.13,-75.81"/>
<polygon fill="#63b8ff" stroke="#63b8ff" points="672.89,-79.25 682.42,-74.63 672.09,-72.3 672.89,-79.25"/>
</a>
</g>
</g>
<!-- Node10 -->
<g id="Node000010" class="node">
<title>Node10</title>
<g id="a_Node000010"><a xlink:href="UniformValueMap_8ixx.html" target="_top" xlink:title="Mapping of uniform names to values used by shader programs.">
<polygon fill="white" stroke="#666666" points="307,-151 173,-151 173,-121 307,-121 307,-151"/>
<text text-anchor="start" x="181" y="-139" font-family="Helvetica,sans-Serif" font-size="10.00">helios.rendering.shader.</text>
<text text-anchor="middle" x="240" y="-128" font-family="Helvetica,sans-Serif" font-size="10.00">UniformValueMap</text>
</a>
</g>
</g>
<!-- Node4&#45;&gt;Node10 -->
<g id="edge11_Node000004_Node000010" class="edge">
<title>Node4&#45;&gt;Node10</title>
<g id="a_edge11_Node000004_Node000010"><a xlink:title=" ">
<path fill="none" stroke="#63b8ff" d="M469.3,-362.98C415.75,-345.43 301.33,-299.78 249,-217 238.59,-200.53 236.85,-178.26 237.42,-161.4"/>
<polygon fill="#63b8ff" stroke="#63b8ff" points="240.93,-161.42 238.07,-151.22 233.94,-160.98 240.93,-161.42"/>
</a>
</g>
</g>
<!-- Node14 -->
<g id="Node000014" class="node">
<title>Node14</title>
<g id="a_Node000014"><a xlink:href="MaterialPropertiesOverride_8ixx.html" target="_top" xlink:title="Overrides for material properties to customize rendering parameters.">
<polygon fill="white" stroke="#666666" points="192,-217 28,-217 28,-187 192,-187 192,-217"/>
<text text-anchor="start" x="36" y="-205" font-family="Helvetica,sans-Serif" font-size="10.00">helios.rendering.model.config.</text>
<text text-anchor="middle" x="110" y="-194" font-family="Helvetica,sans-Serif" font-size="10.00">MaterialPropertiesOverride</text>
</a>
</g>
</g>
<!-- Node4&#45;&gt;Node14 -->
<g id="edge17_Node000004_Node000014" class="edge">
<title>Node4&#45;&gt;Node14</title>
<g id="a_edge17_Node000004_Node000014"><a xlink:title=" ">
<path fill="none" stroke="#63b8ff" d="M420.87,-366.22C346.91,-360.02 241.42,-347.83 206,-327 165.52,-303.19 136,-255.17 121.06,-226.37"/>
<polygon fill="#63b8ff" stroke="#63b8ff" points="124.17,-224.77 116.55,-217.41 117.91,-227.91 124.17,-224.77"/>
</a>
</g>
</g>
<!-- Node15 -->
<g id="Node000015" class="node">
<title>Node15</title>
<g id="a_Node000015"><a xlink:href="RenderPrototype_8ixx.html" target="_top" xlink:title="An immutable, shared prototype of a renderable object.">
<polygon fill="white" stroke="#666666" points="941,-327 761,-327 761,-308 941,-308 941,-327"/>
<text text-anchor="middle" x="851" y="-315" font-family="Helvetica,sans-Serif" font-size="10.00">helios.rendering.RenderPrototype</text>
</a>
</g>
</g>
<!-- Node4&#45;&gt;Node15 -->
<g id="edge22_Node000004_Node000015" class="edge">
<title>Node4&#45;&gt;Node15</title>
<g id="a_edge22_Node000004_Node000015"><a xlink:title=" ">
<path fill="none" stroke="#63b8ff" d="M554.72,-362.98C617.28,-353.59 717.86,-338.49 784.2,-328.53"/>
<polygon fill="#63b8ff" stroke="#63b8ff" points="784.76,-331.98 794.13,-327.04 783.72,-325.06 784.76,-331.98"/>
</a>
</g>
</g>
<!-- Node8 -->
<g id="Node000008" class="node">
<title>Node8</title>
<g id="a_Node000008"><a xlink:title=" ">
<polygon fill="#e0e0e0" stroke="#999999" points="772,-19 712,-19 712,0 772,0 772,-19"/>
<text text-anchor="middle" x="742" y="-7" font-family="Helvetica,sans-Serif" font-size="10.00">iostream</text>
</a>
</g>
</g>
<!-- Node7&#45;&gt;Node8 -->
<g id="edge9_Node000007_Node000008" class="edge">
<title>Node7&#45;&gt;Node8</title>
<g id="a_edge9_Node000007_Node000008"><a xlink:title=" ">
<path fill="none" stroke="#63b8ff" d="M742,-60.37C742,-52.25 742,-39.81 742,-29.39"/>
<polygon fill="#63b8ff" stroke="#63b8ff" points="745.5,-29.17 742,-19.17 738.5,-29.17 745.5,-29.17"/>
</a>
</g>
</g>
<!-- Node9 -->
<g id="Node000009" class="node">
<title>Node9</title>
<g id="a_Node000009"><a xlink:title=" ">
<polygon fill="#e0e0e0" stroke="#999999" points="843,-19 799,-19 799,0 843,0 843,-19"/>
<text text-anchor="middle" x="821" y="-7" font-family="Helvetica,sans-Serif" font-size="10.00">string</text>
</a>
</g>
</g>
<!-- Node7&#45;&gt;Node9 -->
<g id="edge10_Node000007_Node000009" class="edge">
<title>Node7&#45;&gt;Node9</title>
<g id="a_edge10_Node000007_Node000009"><a xlink:title=" ">
<path fill="none" stroke="#63b8ff" d="M753.66,-60.37C766.14,-51.12 786.18,-36.28 801.16,-25.19"/>
<polygon fill="#63b8ff" stroke="#63b8ff" points="803.34,-27.93 809.3,-19.17 799.18,-22.31 803.34,-27.93"/>
</a>
</g>
</g>
<!-- Node10&#45;&gt;Node3 -->
<g id="edge15_Node000010_Node000003" class="edge">
<title>Node10&#45;&gt;Node3</title>
<g id="a_edge15_Node000010_Node000003"><a xlink:title=" ">
<path fill="none" stroke="#63b8ff" d="M305.62,-120.95C360.94,-109.11 438.92,-92.42 489.22,-81.65"/>
<polygon fill="#63b8ff" stroke="#63b8ff" points="490.16,-85.03 499.21,-79.52 488.7,-78.19 490.16,-85.03"/>
</a>
</g>
</g>
<!-- Node10&#45;&gt;Node5 -->
<g id="edge13_Node000010_Node000005" class="edge">
<title>Node10&#45;&gt;Node5</title>
<g id="a_edge13_Node000010_Node000005"><a xlink:title=" ">
<path fill="none" stroke="#63b8ff" d="M209.93,-120.95C186.23,-109.88 153.44,-94.56 130.44,-83.82"/>
<polygon fill="#63b8ff" stroke="#63b8ff" points="131.77,-80.58 121.23,-79.52 128.81,-86.92 131.77,-80.58"/>
</a>
</g>
</g>
<!-- Node11 -->
<g id="Node000011" class="node">
<title>Node11</title>
<g id="a_Node000011"><a xlink:title=" ">
<polygon fill="#e0e0e0" stroke="#999999" points="261,-79.5 219,-79.5 219,-60.5 261,-60.5 261,-79.5"/>
<text text-anchor="middle" x="240" y="-67.5" font-family="Helvetica,sans-Serif" font-size="10.00">array</text>
</a>
</g>
</g>
<!-- Node10&#45;&gt;Node11 -->
<g id="edge12_Node000010_Node000011" class="edge">
<title>Node10&#45;&gt;Node11</title>
<g id="a_edge12_Node000010_Node000011"><a xlink:title=" ">
<path fill="none" stroke="#63b8ff" d="M240,-120.8C240,-111.7 240,-99.79 240,-89.9"/>
<polygon fill="#63b8ff" stroke="#63b8ff" points="243.5,-89.84 240,-79.84 236.5,-89.84 243.5,-89.84"/>
</a>
</g>
</g>
<!-- Node12 -->
<g id="Node000012" class="node">
<title>Node12</title>
<g id="a_Node000012"><a xlink:title=" ">
<polygon fill="#e0e0e0" stroke="#999999" points="200.5,-79.5 149.5,-79.5 149.5,-60.5 200.5,-60.5 200.5,-79.5"/>
<text text-anchor="middle" x="175" y="-67.5" font-family="Helvetica,sans-Serif" font-size="10.00">variant</text>
</a>
</g>
</g>
<!-- Node10&#45;&gt;Node12 -->
<g id="edge14_Node000010_Node000012" class="edge">
<title>Node10&#45;&gt;Node12</title>
<g id="a_edge14_Node000010_Node000012"><a xlink:title=" ">
<path fill="none" stroke="#63b8ff" d="M225.57,-120.8C215.44,-110.82 201.87,-97.46 191.34,-87.09"/>
<polygon fill="#63b8ff" stroke="#63b8ff" points="193.56,-84.37 183.98,-79.84 188.65,-89.35 193.56,-84.37"/>
</a>
</g>
</g>
<!-- Node13 -->
<g id="Node000013" class="node">
<title>Node13</title>
<g id="a_Node000013"><a xlink:href="UniformSemantics_8ixx.html" target="_top" xlink:title="Definitions of uniform semantics used by shaders.">
<polygon fill="white" stroke="#666666" points="413,-85 279,-85 279,-55 413,-55 413,-85"/>
<text text-anchor="start" x="287" y="-73" font-family="Helvetica,sans-Serif" font-size="10.00">helios.rendering.shader.</text>
<text text-anchor="middle" x="346" y="-62" font-family="Helvetica,sans-Serif" font-size="10.00">UniformSemantics</text>
</a>
</g>
</g>
<!-- Node10&#45;&gt;Node13 -->
<g id="edge16_Node000010_Node000013" class="edge">
<title>Node10&#45;&gt;Node13</title>
<g id="a_edge16_Node000010_Node000013"><a xlink:title=" ">
<path fill="none" stroke="#63b8ff" d="M263.26,-120.95C278.17,-111.95 297.73,-100.14 314.09,-90.27"/>
<polygon fill="#63b8ff" stroke="#63b8ff" points="316.04,-93.18 322.79,-85.01 312.42,-87.18 316.04,-93.18"/>
</a>
</g>
</g>
<!-- Node14&#45;&gt;Node3 -->
<g id="edge21_Node000014_Node000003" class="edge">
<title>Node14&#45;&gt;Node3</title>
<g id="a_edge21_Node000014_Node000003"><a xlink:title=" ">
<path fill="none" stroke="#63b8ff" d="M175.42,-186.99C216.15,-177.81 269.47,-164.95 316,-151 385.48,-130.17 465.07,-100.07 507.86,-83.36"/>
<polygon fill="#63b8ff" stroke="#63b8ff" points="509.38,-86.52 517.41,-79.61 506.83,-80.01 509.38,-86.52"/>
</a>
</g>
</g>
<!-- Node14&#45;&gt;Node5 -->
<g id="edge18_Node000014_Node000005" class="edge">
<title>Node14&#45;&gt;Node5</title>
<g id="a_edge18_Node000014_Node000005"><a xlink:title=" ">
<path fill="none" stroke="#63b8ff" d="M109.24,-186.84C107.97,-163.34 105.44,-116.26 104.02,-89.93"/>
<polygon fill="#63b8ff" stroke="#63b8ff" points="107.5,-89.55 103.47,-79.75 100.51,-89.92 107.5,-89.55"/>
</a>
</g>
</g>
<!-- Node14&#45;&gt;Node10 -->
<g id="edge20_Node000014_Node000010" class="edge">
<title>Node14&#45;&gt;Node10</title>
<g id="a_edge20_Node000014_Node000010"><a xlink:title=" ">
<path fill="none" stroke="#63b8ff" d="M138.53,-186.95C157.33,-177.7 182.14,-165.49 202.52,-155.45"/>
<polygon fill="#63b8ff" stroke="#63b8ff" points="204.11,-158.57 211.54,-151.01 201.02,-152.29 204.11,-158.57"/>
</a>
</g>
</g>
<!-- Node14&#45;&gt;Node13 -->
<g id="edge19_Node000014_Node000013" class="edge">
<title>Node14&#45;&gt;Node13</title>
<g id="a_edge19_Node000014_Node000013"><a xlink:title=" ">
<path fill="none" stroke="#63b8ff" d="M115.78,-186.87C123.88,-168.85 140.31,-138 164,-121 181.19,-108.66 227.35,-96.05 268.88,-86.58"/>
<polygon fill="#63b8ff" stroke="#63b8ff" points="269.77,-89.96 278.77,-84.36 268.24,-83.13 269.77,-89.96"/>
</a>
</g>
</g>
<!-- Node15&#45;&gt;Node2 -->
<g id="edge23_Node000015_Node000002" class="edge">
<title>Node15&#45;&gt;Node2</title>
<g id="a_edge23_Node000015_Node000002"><a xlink:title=" ">
<path fill="none" stroke="#63b8ff" d="M941.25,-313.04C1088.98,-305.53 1373.32,-282.72 1446,-217 1478.2,-187.89 1472.93,-163.48 1464,-121 1461.65,-109.82 1456.64,-98.1 1452,-88.81"/>
<polygon fill="#63b8ff" stroke="#63b8ff" points="1455.02,-87.03 1447.24,-79.83 1448.83,-90.31 1455.02,-87.03"/>
</a>
</g>
</g>
<!-- Node16 -->
<g id="Node000016" class="node">
<title>Node16</title>
<g id="a_Node000016"><a xlink:href="Mesh_8ixx.html" target="_top" xlink:title="Mesh abstraction: immutable vertex/index data and configuration.">
<polygon fill="white" stroke="#666666" points="1047,-272 889,-272 889,-253 1047,-253 1047,-272"/>
<text text-anchor="middle" x="968" y="-260" font-family="Helvetica,sans-Serif" font-size="10.00">helios.rendering.model.Mesh</text>
</a>
</g>
</g>
<!-- Node15&#45;&gt;Node16 -->
<g id="edge24_Node000015_Node000016" class="edge">
<title>Node15&#45;&gt;Node16</title>
<g id="a_edge24_Node000015_Node000016"><a xlink:title=" ">
<path fill="none" stroke="#63b8ff" d="M869.8,-307.98C888.62,-299.46 917.82,-286.23 939.5,-276.41"/>
<polygon fill="#63b8ff" stroke="#63b8ff" points="941.2,-279.48 948.86,-272.17 938.31,-273.11 941.2,-279.48"/>
</a>
</g>
</g>
<!-- Node25 -->
<g id="Node000025" class="node">
<title>Node25</title>
<g id="a_Node000025"><a xlink:href="Material_8ixx.html" target="_top" xlink:title=" ">
<polygon fill="white" stroke="#666666" points="781.5,-272 608.5,-272 608.5,-253 781.5,-253 781.5,-272"/>
<text text-anchor="middle" x="695" y="-260" font-family="Helvetica,sans-Serif" font-size="10.00">helios.rendering.model.Material</text>
</a>
</g>
</g>
<!-- Node15&#45;&gt;Node25 -->
<g id="edge45_Node000015_Node000025" class="edge">
<title>Node15&#45;&gt;Node25</title>
<g id="a_edge45_Node000015_Node000025"><a xlink:title=" ">
<path fill="none" stroke="#63b8ff" d="M825.94,-307.98C799.97,-299.16 759.19,-285.31 730.04,-275.41"/>
<polygon fill="#63b8ff" stroke="#63b8ff" points="730.85,-271.99 720.26,-272.08 728.6,-278.61 730.85,-271.99"/>
</a>
</g>
</g>
<!-- Node16&#45;&gt;Node2 -->
<g id="edge25_Node000016_Node000002" class="edge">
<title>Node16&#45;&gt;Node2</title>
<g id="a_edge25_Node000016_Node000002"><a xlink:title=" ">
<path fill="none" stroke="#63b8ff" d="M1047.5,-259.02C1170.76,-254.41 1396.63,-242.54 1423,-217 1457.34,-183.74 1451.64,-121.15 1446.08,-89.84"/>
<polygon fill="#63b8ff" stroke="#63b8ff" points="1449.48,-88.97 1444.11,-79.83 1442.61,-90.32 1449.48,-88.97"/>
</a>
</g>
</g>
<!-- Node16&#45;&gt;Node3 -->
<g id="edge44_Node000016_Node000003" class="edge">
<title>Node16&#45;&gt;Node3</title>
<g id="a_edge44_Node000016_Node000003"><a xlink:title=" ">
<path fill="none" stroke="#63b8ff" d="M888.61,-255.19C792.54,-246.97 640.83,-231.88 619,-217 573.92,-186.28 551.83,-121.49 543.33,-89.57"/>
<polygon fill="#63b8ff" stroke="#63b8ff" points="546.7,-88.62 540.88,-79.76 539.91,-90.31 546.7,-88.62"/>
</a>
</g>
</g>
<!-- Node16&#45;&gt;Node6 -->
<g id="edge26_Node000016_Node000006" class="edge">
<title>Node16&#45;&gt;Node6</title>
<g id="a_edge26_Node000016_Node000006"><a xlink:title=" ">
<path fill="none" stroke="#63b8ff" d="M888.72,-256.3C811.01,-250.25 689.5,-238.27 586,-217 582.28,-216.23 578.43,-215.31 574.6,-214.31"/>
<polygon fill="#63b8ff" stroke="#63b8ff" points="575.23,-210.85 564.65,-211.52 573.34,-217.59 575.23,-210.85"/>
</a>
</g>
</g>
<!-- Node16&#45;&gt;Node7 -->
<g id="edge28_Node000016_Node000007" class="edge">
<title>Node16&#45;&gt;Node7</title>
<g id="a_edge28_Node000016_Node000007"><a xlink:title=" ">
<path fill="none" stroke="#63b8ff" d="M906.73,-252.97C875.9,-246.59 839.01,-235.63 810,-217 777.63,-196.21 769.91,-186.03 754,-151 745.13,-131.47 742.57,-106.76 741.95,-90.01"/>
<polygon fill="#63b8ff" stroke="#63b8ff" points="745.45,-89.79 741.78,-79.85 738.45,-89.9 745.45,-89.79"/>
</a>
</g>
</g>
<!-- Node17 -->
<g id="Node000017" class="node">
<title>Node17</title>
<g id="a_Node000017"><a xlink:title=" ">
<polygon fill="#e0e0e0" stroke="#999999" points="1182.5,-145.5 1135.5,-145.5 1135.5,-126.5 1182.5,-126.5 1182.5,-145.5"/>
<text text-anchor="middle" x="1159" y="-133.5" font-family="Helvetica,sans-Serif" font-size="10.00">vector</text>
</a>
</g>
</g>
<!-- Node16&#45;&gt;Node17 -->
<g id="edge27_Node000016_Node000017" class="edge">
<title>Node16&#45;&gt;Node17</title>
<g id="a_edge27_Node000016_Node000017"><a xlink:title=" ">
<path fill="none" stroke="#63b8ff" d="M977.8,-252.81C994.55,-238.2 1030.06,-208.24 1063,-187 1084.89,-172.89 1111.21,-159.4 1130.75,-150"/>
<polygon fill="#63b8ff" stroke="#63b8ff" points="1132.49,-153.05 1140.02,-145.6 1129.49,-146.73 1132.49,-153.05"/>
</a>
</g>
</g>
<!-- Node18 -->
<g id="Node000018" class="node">
<title>Node18</title>
<g id="a_Node000018"><a xlink:href="LogManager_8ixx.html" target="_top" xlink:title="Central manager for scoped loggers.">
<polygon fill="white" stroke="#666666" points="1079,-145.5 933,-145.5 933,-126.5 1079,-126.5 1079,-145.5"/>
<text text-anchor="middle" x="1006" y="-133.5" font-family="Helvetica,sans-Serif" font-size="10.00">helios.util.log.LogManager</text>
</a>
</g>
</g>
<!-- Node16&#45;&gt;Node18 -->
<g id="edge29_Node000016_Node000018" class="edge">
<title>Node16&#45;&gt;Node18</title>
<g id="a_edge29_Node000016_Node000018"><a xlink:title=" ">
<path fill="none" stroke="#63b8ff" d="M970.61,-252.94C976.71,-232.95 992.02,-182.82 1000.36,-155.48"/>
<polygon fill="#63b8ff" stroke="#63b8ff" points="1003.8,-156.2 1003.37,-145.62 997.1,-154.16 1003.8,-156.2"/>
</a>
</g>
</g>
<!-- Node21 -->
<g id="Node000021" class="node">
<title>Node21</title>
<g id="a_Node000021"><a xlink:href="Shape_8ixx.html" target="_top" xlink:title="Interface for simple geometric shapes used for testing and debugging.">
<polygon fill="white" stroke="#666666" points="1232,-217 1072,-217 1072,-187 1232,-187 1232,-217"/>
<text text-anchor="start" x="1080" y="-205" font-family="Helvetica,sans-Serif" font-size="10.00">helios.rendering.asset.shape.</text>
<text text-anchor="middle" x="1152" y="-194" font-family="Helvetica,sans-Serif" font-size="10.00">Shape</text>
</a>
</g>
</g>
<!-- Node16&#45;&gt;Node21 -->
<g id="edge35_Node000016_Node000021" class="edge">
<title>Node16&#45;&gt;Node21</title>
<g id="a_edge35_Node000016_Node000021"><a xlink:title=" ">
<path fill="none" stroke="#63b8ff" d="M994.76,-252.99C1021.7,-244.43 1064.02,-230.97 1097.98,-220.18"/>
<polygon fill="#63b8ff" stroke="#63b8ff" points="1099.29,-223.43 1107.76,-217.06 1097.17,-216.76 1099.29,-223.43"/>
</a>
</g>
</g>
<!-- Node23 -->
<g id="Node000023" class="node">
<title>Node23</title>
<g id="a_Node000023"><a xlink:href="Vertex_8ixx.html" target="_top" xlink:title="Vertex description and utilities for rendering.">
<polygon fill="white" stroke="#666666" points="915,-145.5 785,-145.5 785,-126.5 915,-126.5 915,-145.5"/>
<text text-anchor="middle" x="850" y="-133.5" font-family="Helvetica,sans-Serif" font-size="10.00">helios.rendering.Vertex</text>
</a>
</g>
</g>
<!-- Node16&#45;&gt;Node23 -->
<g id="edge43_Node000016_Node000023" class="edge">
<title>Node16&#45;&gt;Node23</title>
<g id="a_edge43_Node000016_Node000023"><a xlink:title=" ">
<path fill="none" stroke="#63b8ff" d="M962.27,-252.72C952.61,-238.24 932.06,-208.77 911,-187 898.59,-174.17 883,-161.44 870.69,-152.04"/>
<polygon fill="#63b8ff" stroke="#63b8ff" points="872.5,-149.02 862.4,-145.82 868.3,-154.62 872.5,-149.02"/>
</a>
</g>
</g>
<!-- Node24 -->
<g id="Node000024" class="node">
<title>Node24</title>
<g id="a_Node000024"><a xlink:href="MeshConfig_8ixx.html" target="_top" xlink:title="Mesh configuration including primitive type.">
<polygon fill="white" stroke="#666666" points="1414,-217 1250,-217 1250,-187 1414,-187 1414,-217"/>
<text text-anchor="start" x="1258" y="-205" font-family="Helvetica,sans-Serif" font-size="10.00">helios.rendering.model.config.</text>
<text text-anchor="middle" x="1332" y="-194" font-family="Helvetica,sans-Serif" font-size="10.00">MeshConfig</text>
</a>
</g>
</g>
<!-- Node16&#45;&gt;Node24 -->
<g id="edge41_Node000016_Node000024" class="edge">
<title>Node16&#45;&gt;Node24</title>
<g id="a_edge41_Node000016_Node000024"><a xlink:title=" ">
<path fill="none" stroke="#63b8ff" d="M1020.93,-252.99C1078.15,-243.8 1170.46,-228.96 1239.68,-217.84"/>
<polygon fill="#63b8ff" stroke="#63b8ff" points="1240.4,-221.27 1249.72,-216.22 1239.29,-214.35 1240.4,-221.27"/>
</a>
</g>
</g>
<!-- Node18&#45;&gt;Node2 -->
<g id="edge32_Node000018_Node000002" class="edge">
<title>Node18&#45;&gt;Node2</title>
<g id="a_edge32_Node000018_Node000002"><a xlink:title=" ">
<path fill="none" stroke="#63b8ff" d="M1057.96,-126.49C1069.49,-124.64 1081.66,-122.73 1093,-121 1205.06,-103.96 1337.63,-85.41 1402.39,-76.45"/>
<polygon fill="#63b8ff" stroke="#63b8ff" points="1403.13,-79.88 1412.56,-75.04 1402.17,-72.94 1403.13,-79.88"/>
</a>
</g>
</g>
<!-- Node18&#45;&gt;Node7 -->
<g id="edge34_Node000018_Node000007" class="edge">
<title>Node18&#45;&gt;Node7</title>
<g id="a_edge34_Node000018_Node000007"><a xlink:title=" ">
<path fill="none" stroke="#63b8ff" d="M970.67,-126.44C923.25,-114.94 838.99,-94.51 787.06,-81.92"/>
<polygon fill="#63b8ff" stroke="#63b8ff" points="787.66,-78.47 777.12,-79.51 786.01,-85.27 787.66,-78.47"/>
</a>
</g>
</g>
<!-- Node18&#45;&gt;Node9 -->
<g id="edge30_Node000018_Node000009" class="edge">
<title>Node18&#45;&gt;Node9</title>
<g id="a_edge30_Node000018_Node000009"><a xlink:title=" ">
<path fill="none" stroke="#63b8ff" d="M967.87,-126.46C940.32,-118.92 903.31,-105.81 876,-85 855.88,-69.67 839.71,-45.04 830.24,-28.34"/>
<polygon fill="#63b8ff" stroke="#63b8ff" points="833.08,-26.23 825.24,-19.11 826.93,-29.57 833.08,-26.23"/>
</a>
</g>
</g>
<!-- Node19 -->
<g id="Node000019" class="node">
<title>Node19</title>
<g id="a_Node000019"><a xlink:title=" ">
<polygon fill="#e0e0e0" stroke="#999999" points="977.5,-79.5 884.5,-79.5 884.5,-60.5 977.5,-60.5 977.5,-79.5"/>
<text text-anchor="middle" x="931" y="-67.5" font-family="Helvetica,sans-Serif" font-size="10.00">unordered_map</text>
</a>
</g>
</g>
<!-- Node18&#45;&gt;Node19 -->
<g id="edge31_Node000018_Node000019" class="edge">
<title>Node18&#45;&gt;Node19</title>
<g id="a_edge31_Node000018_Node000019"><a xlink:title=" ">
<path fill="none" stroke="#63b8ff" d="M995.89,-126.37C983.99,-116.21 964,-99.16 949.35,-86.65"/>
<polygon fill="#63b8ff" stroke="#63b8ff" points="951.31,-83.73 941.44,-79.91 946.77,-89.06 951.31,-83.73"/>
</a>
</g>
</g>
<!-- Node20 -->
<g id="Node000020" class="node">
<title>Node20</title>
<g id="a_Node000020"><a xlink:title=" ">
<polygon fill="#e0e0e0" stroke="#999999" points="1044,-79.5 996,-79.5 996,-60.5 1044,-60.5 1044,-79.5"/>
<text text-anchor="middle" x="1020" y="-67.5" font-family="Helvetica,sans-Serif" font-size="10.00">mutex</text>
</a>
</g>
</g>
<!-- Node18&#45;&gt;Node20 -->
<g id="edge33_Node000018_Node000020" class="edge">
<title>Node18&#45;&gt;Node20</title>
<g id="a_edge33_Node000018_Node000020"><a xlink:title=" ">
<path fill="none" stroke="#63b8ff" d="M1007.89,-126.37C1009.92,-117.07 1013.22,-101.98 1015.87,-89.9"/>
<polygon fill="#63b8ff" stroke="#63b8ff" points="1019.33,-90.42 1018.05,-79.91 1012.5,-88.93 1019.33,-90.42"/>
</a>
</g>
</g>
<!-- Node21&#45;&gt;Node2 -->
<g id="edge36_Node000021_Node000002" class="edge">
<title>Node21&#45;&gt;Node2</title>
<g id="a_edge36_Node000021_Node000002"><a xlink:title=" ">
<path fill="none" stroke="#63b8ff" d="M1162.87,-186.8C1177.49,-168.71 1205.24,-137.79 1236,-121 1289.42,-91.85 1359.78,-79.49 1402.91,-74.4"/>
<polygon fill="#63b8ff" stroke="#63b8ff" points="1403.44,-77.86 1413,-73.28 1402.67,-70.91 1403.44,-77.86"/>
</a>
</g>
</g>
<!-- Node21&#45;&gt;Node17 -->
<g id="edge37_Node000021_Node000017" class="edge">
<title>Node21&#45;&gt;Node17</title>
<g id="a_edge37_Node000021_Node000017"><a xlink:title=" ">
<path fill="none" stroke="#63b8ff" d="M1153.55,-186.8C1154.55,-177.7 1155.85,-165.79 1156.93,-155.9"/>
<polygon fill="#63b8ff" stroke="#63b8ff" points="1160.42,-156.17 1158.03,-145.84 1153.47,-155.4 1160.42,-156.17"/>
</a>
</g>
</g>
<!-- Node22 -->
<g id="Node000022" class="node">
<title>Node22</title>
<g id="a_Node000022"><a xlink:href="PrimitiveType_8ixx.html" target="_top" xlink:title="Enum of primitive types for mesh rendering.">
<polygon fill="white" stroke="#666666" points="1409,-151 1245,-151 1245,-121 1409,-121 1409,-151"/>
<text text-anchor="start" x="1253" y="-139" font-family="Helvetica,sans-Serif" font-size="10.00">helios.rendering.model.config.</text>
<text text-anchor="middle" x="1327" y="-128" font-family="Helvetica,sans-Serif" font-size="10.00">PrimitiveType</text>
</a>
</g>
</g>
<!-- Node21&#45;&gt;Node22 -->
<g id="edge38_Node000021_Node000022" class="edge">
<title>Node21&#45;&gt;Node22</title>
<g id="a_edge38_Node000021_Node000022"><a xlink:title=" ">
<path fill="none" stroke="#63b8ff" d="M1190.4,-186.95C1216.51,-177.41 1251.22,-164.71 1279.13,-154.51"/>
<polygon fill="#63b8ff" stroke="#63b8ff" points="1280.5,-157.73 1288.69,-151.01 1278.09,-151.16 1280.5,-157.73"/>
</a>
</g>
</g>
<!-- Node21&#45;&gt;Node23 -->
<g id="edge39_Node000021_Node000023" class="edge">
<title>Node21&#45;&gt;Node23</title>
<g id="a_edge39_Node000021_Node000023"><a xlink:title=" ">
<path fill="none" stroke="#63b8ff" d="M1085.72,-186.95C1029.85,-175.11 951.08,-158.42 900.28,-147.65"/>
<polygon fill="#63b8ff" stroke="#63b8ff" points="900.7,-144.17 890.19,-145.52 899.25,-151.01 900.7,-144.17"/>
</a>
</g>
</g>
<!-- Node23&#45;&gt;Node3 -->
<g id="edge40_Node000023_Node000003" class="edge">
<title>Node23&#45;&gt;Node3</title>
<g id="a_edge40_Node000023_Node000003"><a xlink:title=" ">
<path fill="none" stroke="#63b8ff" d="M808.38,-126.44C751.94,-114.82 651.18,-94.09 590.18,-81.53"/>
<polygon fill="#63b8ff" stroke="#63b8ff" points="590.87,-78.1 580.37,-79.51 589.46,-84.96 590.87,-78.1"/>
</a>
</g>
</g>
<!-- Node24&#45;&gt;Node22 -->
<g id="edge42_Node000024_Node000022" class="edge">
<title>Node24&#45;&gt;Node22</title>
<g id="a_edge42_Node000024_Node000022"><a xlink:title=" ">
<path fill="none" stroke="#63b8ff" d="M1330.89,-186.8C1330.31,-179.34 1329.58,-169.99 1328.91,-161.41"/>
<polygon fill="#63b8ff" stroke="#63b8ff" points="1332.37,-160.86 1328.11,-151.16 1325.4,-161.41 1332.37,-160.86"/>
</a>
</g>
</g>
<!-- Node25&#45;&gt;Node2 -->
<g id="edge46_Node000025_Node000002" class="edge">
<title>Node25&#45;&gt;Node2</title>
<g id="a_edge46_Node000025_Node000002"><a xlink:title=" ">
<path fill="none" stroke="#63b8ff" d="M747.93,-252.94C792,-245.26 856.17,-232.77 911,-217 991.69,-193.79 1014.58,-191.72 1088,-151 1107.12,-140.4 1106.91,-129.65 1127,-121 1220.27,-80.84 1341.56,-72.56 1402.86,-71.09"/>
<polygon fill="#63b8ff" stroke="#63b8ff" points="1402.95,-74.59 1412.88,-70.9 1402.82,-67.59 1402.95,-74.59"/>
</a>
</g>
</g>
<!-- Node25&#45;&gt;Node6 -->
<g id="edge47_Node000025_Node000006" class="edge">
<title>Node25&#45;&gt;Node6</title>
<g id="a_edge47_Node000025_Node000006"><a xlink:title=" ">
<path fill="none" stroke="#63b8ff" d="M672.32,-252.99C645.74,-243.03 601.52,-226.45 571.36,-215.13"/>
<polygon fill="#63b8ff" stroke="#63b8ff" points="572.3,-211.75 561.71,-211.52 569.85,-218.31 572.3,-211.75"/>
</a>
</g>
</g>
<!-- Node25&#45;&gt;Node10 -->
<g id="edge59_Node000025_Node000010" class="edge">
<title>Node25&#45;&gt;Node10</title>
<g id="a_edge59_Node000025_Node000010"><a xlink:title=" ">
<path fill="none" stroke="#63b8ff" d="M608.32,-262.1C501.66,-261.19 328.38,-253.83 277,-217 258.72,-203.9 249.23,-179.47 244.47,-161.04"/>
<polygon fill="#63b8ff" stroke="#63b8ff" points="247.88,-160.24 242.23,-151.27 241.05,-161.8 247.88,-160.24"/>
</a>
</g>
</g>
<!-- Node26 -->
<g id="Node000026" class="node">
<title>Node26</title>
<g id="a_Node000026"><a xlink:href="Shader_8ixx.html" target="_top" xlink:title="Abstraction for a compiled shader program.">
<polygon fill="white" stroke="#666666" points="762,-217 628,-217 628,-187 762,-187 762,-217"/>
<text text-anchor="start" x="636" y="-205" font-family="Helvetica,sans-Serif" font-size="10.00">helios.rendering.shader.</text>
<text text-anchor="middle" x="695" y="-194" font-family="Helvetica,sans-Serif" font-size="10.00">Shader</text>
</a>
</g>
</g>
<!-- Node25&#45;&gt;Node26 -->
<g id="edge48_Node000025_Node000026" class="edge">
<title>Node25&#45;&gt;Node26</title>
<g id="a_edge48_Node000025_Node000026"><a xlink:title=" ">
<path fill="none" stroke="#63b8ff" d="M695,-252.87C695,-246.11 695,-236.35 695,-227.26"/>
<polygon fill="#63b8ff" stroke="#63b8ff" points="698.5,-227.11 695,-217.11 691.5,-227.11 698.5,-227.11"/>
</a>
</g>
</g>
<!-- Node27 -->
<g id="Node000027" class="node">
<title>Node27</title>
<g id="a_Node000027"><a xlink:href="util_2log_2__module_8ixx.html" target="_top" xlink:title="Module exports for logging.">
<polygon fill="white" stroke="#666666" points="901.5,-211.5 818.5,-211.5 818.5,-192.5 901.5,-192.5 901.5,-211.5"/>
<text text-anchor="middle" x="860" y="-199.5" font-family="Helvetica,sans-Serif" font-size="10.00">helios.util.log</text>
</a>
</g>
</g>
<!-- Node25&#45;&gt;Node27 -->
<g id="edge52_Node000025_Node000027" class="edge">
<title>Node25&#45;&gt;Node27</title>
<g id="a_edge52_Node000025_Node000027"><a xlink:title=" ">
<path fill="none" stroke="#63b8ff" d="M718.99,-252.99C747.22,-242.99 794.28,-226.3 826.19,-214.99"/>
<polygon fill="#63b8ff" stroke="#63b8ff" points="827.72,-218.16 835.98,-211.52 825.38,-211.56 827.72,-218.16"/>
</a>
</g>
</g>
<!-- Node28 -->
<g id="Node000028" class="node">
<title>Node28</title>
<g id="a_Node000028"><a xlink:href="MaterialProperties_8ixx.html" target="_top" xlink:title="Default material properties used by materials and instances.">
<polygon fill="white" stroke="#666666" points="450,-217 286,-217 286,-187 450,-187 450,-217"/>
<text text-anchor="start" x="294" y="-205" font-family="Helvetica,sans-Serif" font-size="10.00">helios.rendering.model.config.</text>
<text text-anchor="middle" x="368" y="-194" font-family="Helvetica,sans-Serif" font-size="10.00">MaterialProperties</text>
</a>
</g>
</g>
<!-- Node25&#45;&gt;Node28 -->
<g id="edge55_Node000025_Node000028" class="edge">
<title>Node25&#45;&gt;Node28</title>
<g id="a_edge55_Node000025_Node000028"><a xlink:title=" ">
<path fill="none" stroke="#63b8ff" d="M647.45,-252.99C597.53,-244.06 517.9,-229.82 456.4,-218.81"/>
<polygon fill="#63b8ff" stroke="#63b8ff" points="456.76,-215.32 446.3,-217.01 455.53,-222.21 456.76,-215.32"/>
</a>
</g>
</g>
<!-- Node26&#45;&gt;Node7 -->
<g id="edge50_Node000026_Node000007" class="edge">
<title>Node26&#45;&gt;Node7</title>
<g id="a_edge50_Node000026_Node000007"><a xlink:title=" ">
<path fill="none" stroke="#63b8ff" d="M694.64,-186.88C694.69,-170.46 696.26,-142.83 705,-121 709.98,-108.57 718.82,-96.44 726.61,-87.25"/>
<polygon fill="#63b8ff" stroke="#63b8ff" points="729.29,-89.5 733.33,-79.7 724.06,-84.84 729.29,-89.5"/>
</a>
</g>
</g>
<!-- Node26&#45;&gt;Node10 -->
<g id="edge49_Node000026_Node000010" class="edge">
<title>Node26&#45;&gt;Node10</title>
<g id="a_edge49_Node000026_Node000010"><a xlink:title=" ">
<path fill="none" stroke="#63b8ff" d="M627.86,-191.56C545,-179.9 404.37,-160.12 317.14,-147.85"/>
<polygon fill="#63b8ff" stroke="#63b8ff" points="317.43,-144.36 307.04,-146.43 316.46,-151.29 317.43,-144.36"/>
</a>
</g>
</g>
<!-- Node26&#45;&gt;Node18 -->
<g id="edge51_Node000026_Node000018" class="edge">
<title>Node26&#45;&gt;Node18</title>
<g id="a_edge51_Node000026_Node000018"><a xlink:title=" ">
<path fill="none" stroke="#63b8ff" d="M762.1,-187.19C819.81,-175.32 901.84,-158.44 954.49,-147.6"/>
<polygon fill="#63b8ff" stroke="#63b8ff" points="955.2,-151.03 964.29,-145.58 953.79,-144.17 955.2,-151.03"/>
</a>
</g>
</g>
<!-- Node27&#45;&gt;Node7 -->
<g id="edge54_Node000027_Node000007" class="edge">
<title>Node27&#45;&gt;Node7</title>
<g id="a_edge54_Node000027_Node000007"><a xlink:title=" ">
<path fill="none" stroke="#63b8ff" d="M837.71,-192.41C819.05,-184.23 792.86,-170.3 776,-151 760.45,-133.19 751.2,-107.21 746.36,-89.74"/>
<polygon fill="#63b8ff" stroke="#63b8ff" points="749.65,-88.48 743.8,-79.65 742.87,-90.21 749.65,-88.48"/>
</a>
</g>
</g>
<!-- Node27&#45;&gt;Node18 -->
<g id="edge53_Node000027_Node000018" class="edge">
<title>Node27&#45;&gt;Node18</title>
<g id="a_edge53_Node000027_Node000018"><a xlink:title=" ">
<path fill="none" stroke="#63b8ff" d="M879.69,-192.37C904.73,-181.39 948.15,-162.36 976.98,-149.72"/>
<polygon fill="#63b8ff" stroke="#63b8ff" points="978.4,-152.92 986.16,-145.7 975.59,-146.51 978.4,-152.92"/>
</a>
</g>
</g>
<!-- Node28&#45;&gt;Node3 -->
<g id="edge58_Node000028_Node000003" class="edge">
<title>Node28&#45;&gt;Node3</title>
<g id="a_edge58_Node000028_Node000003"><a xlink:title=" ">
<path fill="none" stroke="#63b8ff" d="M383.88,-186.87C402.58,-170.45 434.8,-142.81 464,-121 481.13,-108.21 501.34,-94.83 516.47,-85.13"/>
<polygon fill="#63b8ff" stroke="#63b8ff" points="518.59,-87.93 525.15,-79.61 514.83,-82.02 518.59,-87.93"/>
</a>
</g>
</g>
<!-- Node28&#45;&gt;Node10 -->
<g id="edge57_Node000028_Node000010" class="edge">
<title>Node28&#45;&gt;Node10</title>
<g id="a_edge57_Node000028_Node000010"><a xlink:title=" ">
<path fill="none" stroke="#63b8ff" d="M339.91,-186.95C321.49,-177.74 297.19,-165.6 277.17,-155.59"/>
<polygon fill="#63b8ff" stroke="#63b8ff" points="278.53,-152.35 268.02,-151.01 275.4,-158.61 278.53,-152.35"/>
</a>
</g>
</g>
<!-- Node28&#45;&gt;Node13 -->
<g id="edge56_Node000028_Node000013" class="edge">
<title>Node28&#45;&gt;Node13</title>
<g id="a_edge56_Node000028_Node000013"><a xlink:title=" ">
<path fill="none" stroke="#63b8ff" d="M365.6,-186.84C361.88,-164.86 354.68,-122.27 350.11,-95.3"/>
<polygon fill="#63b8ff" stroke="#63b8ff" points="353.51,-94.42 348.39,-85.14 346.61,-95.59 353.51,-94.42"/>
</a>
</g>
</g>
</g>
</svg>
