<?xml version="1.0" encoding="UTF-8" standalone="no"?>
<!DOCTYPE svg PUBLIC "-//W3C//DTD SVG 1.1//EN"
 "http://www.w3.org/Graphics/SVG/1.1/DTD/svg11.dtd">
<!-- Generated by graphviz version 2.43.0 (0)
 -->
<!-- Title: include/helios/scene/SnapshotItem.ixx Pages: 1 -->
<!--zoomable 456 -->

<svg id="main" version="1.1" xmlns="http://www.w3.org/2000/svg" xmlns:xlink="http://www.w3.org/1999/xlink" xml:space="preserve" onload="init(evt)">

<style type="text/css"><![CDATA[
.node, .edge {opacity: 0.7;}
.node.selected, .edge.selected {opacity: 1;}
.edge:hover path { stroke: red; }
.edge:hover polygon { stroke: red; fill: red; }
]]></style>

<defs>
  <circle id="rim" cx="0" cy="0" r="7"/>
  <circle id="rim2" cx="0" cy="0" r="3.5"/>
  <g id="zoomPlus">
    <use xlink:href="#rim" fill="#404040"><set attributeName="fill" to="#808080" begin="zoomplus.mouseover" end="zoomplus.mouseout"/></use>
    <path d="M-4,0h8M0,-4v8" fill="none" stroke="white" stroke-width="1.5" pointer-events="none"/>
  </g>
  <g id="zoomMin">
    <use xlink:href="#rim" fill="#404040"><set attributeName="fill" to="#808080" begin="zoomminus.mouseover" end="zoomminus.mouseout"/></use>
    <path d="M-4,0h8" fill="none" stroke="white" stroke-width="1.5" pointer-events="none"/>
  </g>
  <g id="arrowUp" transform="translate(30 24)">
    <use xlink:href="#rim"/>
    <path pointer-events="none" fill="none" stroke="white" stroke-width="1.5" d="M0,-3.0v7 M-2.5,-0.5L0,-3.0L2.5,-0.5"/>
  </g>
  <g id="arrowRight" transform="rotate(90) translate(36 -43)">
    <use xlink:href="#rim"/>
    <path pointer-events="none" fill="none" stroke="white" stroke-width="1.5" d="M0,-3.0v7 M-2.5,-0.5L0,-3.0L2.5,-0.5"/>
  </g>
  <g id="arrowDown" transform="rotate(180) translate(-30 -48)">
    <use xlink:href="#rim"/>
    <path pointer-events="none" fill="none" stroke="white" stroke-width="1.5" d="M0,-3.0v7 M-2.5,-0.5L0,-3.0L2.5,-0.5"/>
  </g>
  <g id="arrowLeft" transform="rotate(270) translate(-36 17)">
    <use xlink:href="#rim"/>
    <path pointer-events="none" fill="none" stroke="white" stroke-width="1.5" d="M0,-3.0v7 M-2.5,-0.5L0,-3.0L2.5,-0.5"/>
  </g>
  <g id="resetDef">
    <use xlink:href="#rim2" fill="#404040"><set attributeName="fill" to="#808080" begin="reset.mouseover" end="reset.mouseout"/></use>
  </g>
</defs>
<script type="application/ecmascript">
var viewWidth = 1640;
var viewHeight = 456;
var sectionId = 'dynsection-0';
</script>
<script type="application/ecmascript" xlink:href="svg.min.js"/>
<svg id="graph" class="graph">
<g id="viewport">
<title>include/helios/scene/SnapshotItem.ixx</title>
<!-- Node1 -->
<g id="Node000001" class="node">
<title>Node1</title>
<g id="a_Node000001"><a xlink:title="Snapshot item bundling a Renderable reference and its world matrix.">
<polygon fill="#999999" stroke="#666666" points="1576,-448 1460,-448 1460,-418 1576,-418 1576,-448"/>
<text text-anchor="start" x="1468" y="-436" font-family="Helvetica,sans-Serif" font-size="10.00">include/helios/scene</text>
<text text-anchor="middle" x="1518" y="-425" font-family="Helvetica,sans-Serif" font-size="10.00">/SnapshotItem.ixx</text>
</a>
</g>
</g>
<!-- Node2 -->
<g id="Node000002" class="node">
<title>Node2</title>
<g id="a_Node000002"><a xlink:title=" ">
<polygon fill="#e0e0e0" stroke="#999999" points="1509,-79.5 1451,-79.5 1451,-60.5 1509,-60.5 1509,-79.5"/>
<text text-anchor="middle" x="1480" y="-67.5" font-family="Helvetica,sans-Serif" font-size="10.00">memory</text>
</a>
</g>
</g>
<!-- Node1&#45;&gt;Node2 -->
<g id="edge1_Node000001_Node000002" class="edge">
<title>Node1&#45;&gt;Node2</title>
<g id="a_edge1_Node000001_Node000002"><a xlink:title=" ">
<path fill="none" stroke="#63b8ff" d="M1548.55,-417.94C1582.32,-400.04 1632,-365.7 1632,-318.5 1632,-318.5 1632,-318.5 1632,-201 1632,-139.86 1560.09,-101.32 1515.19,-83.22"/>
<polygon fill="#63b8ff" stroke="#63b8ff" points="1516.37,-79.93 1505.78,-79.57 1513.84,-86.45 1516.37,-79.93"/>
</a>
</g>
</g>
<!-- Node3 -->
<g id="Node000003" class="node">
<title>Node3</title>
<g id="a_Node000003"><a xlink:href="helios_2math_2types_2__module_8ixx.html" target="_top" xlink:title="Module exports for vector and matrix type definitions.">
<polygon fill="white" stroke="#666666" points="535,-79.5 431,-79.5 431,-60.5 535,-60.5 535,-79.5"/>
<text text-anchor="middle" x="483" y="-67.5" font-family="Helvetica,sans-Serif" font-size="10.00">helios.math.types</text>
</a>
</g>
</g>
<!-- Node1&#45;&gt;Node3 -->
<g id="edge2_Node000001_Node000003" class="edge">
<title>Node1&#45;&gt;Node3</title>
<g id="a_edge2_Node000001_Node000003"><a xlink:title=" ">
<path fill="none" stroke="#63b8ff" d="M1518,-417.67C1518,-396.14 1518,-354.17 1518,-318.5 1518,-318.5 1518,-318.5 1518,-201 1518,-14.69 1340.26,-137.02 621,-85 596.21,-83.21 568.97,-80.58 545.29,-78.09"/>
<polygon fill="#63b8ff" stroke="#63b8ff" points="545.35,-74.58 535.03,-77 544.61,-81.54 545.35,-74.58"/>
</a>
</g>
</g>
<!-- Node4 -->
<g id="Node000004" class="node">
<title>Node4</title>
<g id="a_Node000004"><a xlink:href="Renderable_8ixx.html" target="_top" xlink:title="Representative of a configurable Renderable rendered by the underlying GL API.">
<polygon fill="white" stroke="#666666" points="929,-382 775,-382 775,-363 929,-363 929,-382"/>
<text text-anchor="middle" x="852" y="-370" font-family="Helvetica,sans-Serif" font-size="10.00">helios.rendering.Renderable</text>
</a>
</g>
</g>
<!-- Node1&#45;&gt;Node4 -->
<g id="edge4_Node000001_Node000004" class="edge">
<title>Node1&#45;&gt;Node4</title>
<g id="a_edge4_Node000001_Node000004"><a xlink:title=" ">
<path fill="none" stroke="#63b8ff" d="M1459.77,-426.89C1342.51,-416.58 1077.34,-393.29 939.27,-381.17"/>
<polygon fill="#63b8ff" stroke="#63b8ff" points="939.41,-377.66 929.14,-380.28 938.8,-384.64 939.41,-377.66"/>
</a>
</g>
</g>
<!-- Node3&#45;&gt;Node3 -->
<g id="edge3_Node000003_Node000003" class="edge">
<title>Node3&#45;&gt;Node3</title>
<g id="a_edge3_Node000003_Node000003"><a xlink:title=" ">
<path fill="none" stroke="#63b8ff" d="M508.85,-79.53C530.44,-83.61 553,-80.43 553,-70 553,-61.2 536.94,-57.56 518.95,-59.09"/>
<polygon fill="#63b8ff" stroke="#63b8ff" points="518.28,-55.65 508.85,-60.47 519.23,-62.58 518.28,-55.65"/>
</a>
</g>
</g>
<!-- Node4&#45;&gt;Node2 -->
<g id="edge5_Node000004_Node000002" class="edge">
<title>Node4&#45;&gt;Node2</title>
<g id="a_edge5_Node000004_Node000002"><a xlink:title=" ">
<path fill="none" stroke="#63b8ff" d="M929.08,-364.22C1085.33,-347.82 1431.07,-302.53 1508,-217 1536.69,-185.11 1531.69,-161.65 1518,-121 1513.68,-108.18 1504.63,-96.05 1496.44,-86.95"/>
<polygon fill="#63b8ff" stroke="#63b8ff" points="1498.77,-84.31 1489.33,-79.5 1493.71,-89.15 1498.77,-84.31"/>
</a>
</g>
</g>
<!-- Node5 -->
<g id="Node000005" class="node">
<title>Node5</title>
<g id="a_Node000005"><a xlink:title=" ">
<polygon fill="#e0e0e0" stroke="#999999" points="108,-79.5 52,-79.5 52,-60.5 108,-60.5 108,-79.5"/>
<text text-anchor="middle" x="80" y="-67.5" font-family="Helvetica,sans-Serif" font-size="10.00">optional</text>
</a>
</g>
</g>
<!-- Node4&#45;&gt;Node5 -->
<g id="edge6_Node000004_Node000005" class="edge">
<title>Node4&#45;&gt;Node5</title>
<g id="a_edge6_Node000004_Node000005"><a xlink:title=" ">
<path fill="none" stroke="#63b8ff" d="M774.89,-369.75C565.16,-363.98 0,-341.22 0,-263.5 0,-263.5 0,-263.5 0,-201 0,-153.83 38.68,-109.4 62.25,-86.71"/>
<polygon fill="#63b8ff" stroke="#63b8ff" points="64.93,-89 69.87,-79.62 60.16,-83.87 64.93,-89"/>
</a>
</g>
</g>
<!-- Node6 -->
<g id="Node000006" class="node">
<title>Node6</title>
<g id="a_Node000006"><a xlink:title=" ">
<polygon fill="#e0e0e0" stroke="#999999" points="901.5,-211.5 836.5,-211.5 836.5,-192.5 901.5,-192.5 901.5,-211.5"/>
<text text-anchor="middle" x="869" y="-199.5" font-family="Helvetica,sans-Serif" font-size="10.00">stdexcept</text>
</a>
</g>
</g>
<!-- Node4&#45;&gt;Node6 -->
<g id="edge7_Node000004_Node000006" class="edge">
<title>Node4&#45;&gt;Node6</title>
<g id="a_edge7_Node000004_Node000006"><a xlink:title=" ">
<path fill="none" stroke="#63b8ff" d="M852.87,-362.91C855.49,-336.89 863.4,-258.47 867.08,-222.01"/>
<polygon fill="#63b8ff" stroke="#63b8ff" points="870.59,-222.07 868.11,-211.77 863.63,-221.37 870.59,-222.07"/>
</a>
</g>
</g>
<!-- Node7 -->
<g id="Node000007" class="node">
<title>Node7</title>
<g id="a_Node000007"><a xlink:href="LogManager_8ixx.html" target="_top" xlink:title="Central manager for scoped loggers.">
<polygon fill="white" stroke="#666666" points="1073,-145.5 927,-145.5 927,-126.5 1073,-126.5 1073,-145.5"/>
<text text-anchor="middle" x="1000" y="-133.5" font-family="Helvetica,sans-Serif" font-size="10.00">helios.util.log.LogManager</text>
</a>
</g>
</g>
<!-- Node4&#45;&gt;Node7 -->
<g id="edge8_Node000004_Node000007" class="edge">
<title>Node4&#45;&gt;Node7</title>
<g id="a_edge8_Node000004_Node000007"><a xlink:title=" ">
<path fill="none" stroke="#63b8ff" d="M929.07,-365.84C984.1,-360.01 1051.38,-348.61 1069,-327 1113.15,-272.87 1046.94,-188.06 1015.28,-152.99"/>
<polygon fill="#63b8ff" stroke="#63b8ff" points="1017.77,-150.53 1008.41,-145.56 1012.63,-155.28 1017.77,-150.53"/>
</a>
</g>
</g>
<!-- Node11 -->
<g id="Node000011" class="node">
<title>Node11</title>
<g id="a_Node000011"><a xlink:href="Logger_8ixx.html" target="_top" xlink:title="Simple synchronous logger that writes messages to stdout.">
<polygon fill="white" stroke="#666666" points="748.5,-79.5 629.5,-79.5 629.5,-60.5 748.5,-60.5 748.5,-79.5"/>
<text text-anchor="middle" x="689" y="-67.5" font-family="Helvetica,sans-Serif" font-size="10.00">helios.util.log.Logger</text>
</a>
</g>
</g>
<!-- Node4&#45;&gt;Node11 -->
<g id="edge16_Node000004_Node000011" class="edge">
<title>Node4&#45;&gt;Node11</title>
<g id="a_edge16_Node000004_Node000011"><a xlink:title=" ">
<path fill="none" stroke="#63b8ff" d="M774.96,-364.92C665.48,-353.41 478,-324.75 478,-263.5 478,-263.5 478,-263.5 478,-201 478,-130.14 565.32,-96.65 627.62,-81.77"/>
<polygon fill="#63b8ff" stroke="#63b8ff" points="628.41,-85.18 637.38,-79.54 626.86,-78.36 628.41,-85.18"/>
</a>
</g>
</g>
<!-- Node13 -->
<g id="Node000013" class="node">
<title>Node13</title>
<g id="a_Node000013"><a xlink:href="UniformValueMap_8ixx.html" target="_top" xlink:title="Mapping of uniform names to values used by shader programs.">
<polygon fill="white" stroke="#666666" points="303,-151 169,-151 169,-121 303,-121 303,-151"/>
<text text-anchor="start" x="177" y="-139" font-family="Helvetica,sans-Serif" font-size="10.00">helios.rendering.shader.</text>
<text text-anchor="middle" x="236" y="-128" font-family="Helvetica,sans-Serif" font-size="10.00">UniformValueMap</text>
</a>
</g>
</g>
<!-- Node4&#45;&gt;Node13 -->
<g id="edge17_Node000004_Node000013" class="edge">
<title>Node4&#45;&gt;Node13</title>
<g id="a_edge17_Node000004_Node000013"><a xlink:title=" ">
<path fill="none" stroke="#63b8ff" d="M774.91,-370.69C695.43,-368 568.68,-358.54 464,-327 360.85,-295.92 310.97,-304.41 248,-217 236.48,-201.02 233.99,-178.53 234.08,-161.47"/>
<polygon fill="#63b8ff" stroke="#63b8ff" points="237.59,-161.28 234.45,-151.16 230.59,-161.03 237.59,-161.28"/>
</a>
</g>
</g>
<!-- Node17 -->
<g id="Node000017" class="node">
<title>Node17</title>
<g id="a_Node000017"><a xlink:href="MaterialPropertiesOverride_8ixx.html" target="_top" xlink:title="Overrides for material properties to customize rendering parameters.">
<polygon fill="white" stroke="#666666" points="192,-217 28,-217 28,-187 192,-187 192,-217"/>
<text text-anchor="start" x="36" y="-205" font-family="Helvetica,sans-Serif" font-size="10.00">helios.rendering.model.config.</text>
<text text-anchor="middle" x="110" y="-194" font-family="Helvetica,sans-Serif" font-size="10.00">MaterialPropertiesOverride</text>
</a>
</g>
</g>
<!-- Node4&#45;&gt;Node17 -->
<g id="edge23_Node000004_Node000017" class="edge">
<title>Node4&#45;&gt;Node17</title>
<g id="a_edge23_Node000004_Node000017"><a xlink:title=" ">
<path fill="none" stroke="#63b8ff" d="M774.8,-369.71C614.23,-365.48 255.06,-353.19 206,-327 164.35,-304.77 135.08,-255.76 120.53,-226.45"/>
<polygon fill="#63b8ff" stroke="#63b8ff" points="123.64,-224.84 116.16,-217.34 117.32,-227.87 123.64,-224.84"/>
</a>
</g>
</g>
<!-- Node18 -->
<g id="Node000018" class="node">
<title>Node18</title>
<g id="a_Node000018"><a xlink:href="RenderPrototype_8ixx.html" target="_top" xlink:title="An immutable, shared prototype of a renderable object.">
<polygon fill="white" stroke="#666666" points="1060,-327 880,-327 880,-308 1060,-308 1060,-327"/>
<text text-anchor="middle" x="970" y="-315" font-family="Helvetica,sans-Serif" font-size="10.00">helios.rendering.RenderPrototype</text>
</a>
</g>
</g>
<!-- Node4&#45;&gt;Node18 -->
<g id="edge28_Node000004_Node000018" class="edge">
<title>Node4&#45;&gt;Node18</title>
<g id="a_edge28_Node000004_Node000018"><a xlink:title=" ">
<path fill="none" stroke="#63b8ff" d="M870.96,-362.98C890.03,-354.42 919.66,-341.11 941.55,-331.28"/>
<polygon fill="#63b8ff" stroke="#63b8ff" points="943.01,-334.46 950.7,-327.17 940.14,-328.07 943.01,-334.46"/>
</a>
</g>
</g>
<!-- Node7&#45;&gt;Node2 -->
<g id="edge11_Node000007_Node000002" class="edge">
<title>Node7&#45;&gt;Node2</title>
<g id="a_edge11_Node000007_Node000002"><a xlink:title=" ">
<path fill="none" stroke="#63b8ff" d="M1051.48,-126.43C1063.15,-124.56 1075.49,-122.66 1087,-121 1216.18,-102.39 1369.78,-83.9 1440.63,-75.57"/>
<polygon fill="#63b8ff" stroke="#63b8ff" points="1441.34,-79.01 1450.87,-74.37 1440.53,-72.06 1441.34,-79.01"/>
</a>
</g>
</g>
<!-- Node8 -->
<g id="Node000008" class="node">
<title>Node8</title>
<g id="a_Node000008"><a xlink:title=" ">
<polygon fill="#e0e0e0" stroke="#999999" points="807,-19 763,-19 763,0 807,0 807,-19"/>
<text text-anchor="middle" x="785" y="-7" font-family="Helvetica,sans-Serif" font-size="10.00">string</text>
</a>
</g>
</g>
<!-- Node7&#45;&gt;Node8 -->
<g id="edge9_Node000007_Node000008" class="edge">
<title>Node7&#45;&gt;Node8</title>
<g id="a_edge9_Node000007_Node000008"><a xlink:title=" ">
<path fill="none" stroke="#63b8ff" d="M981.25,-126.39C960.9,-116.87 927.64,-100.8 900,-85 866.06,-65.6 828.3,-40.4 805.61,-24.85"/>
<polygon fill="#63b8ff" stroke="#63b8ff" points="807.36,-21.8 797.14,-19.01 803.39,-27.57 807.36,-21.8"/>
</a>
</g>
</g>
<!-- Node9 -->
<g id="Node000009" class="node">
<title>Node9</title>
<g id="a_Node000009"><a xlink:title=" ">
<polygon fill="#e0e0e0" stroke="#999999" points="1001.5,-79.5 908.5,-79.5 908.5,-60.5 1001.5,-60.5 1001.5,-79.5"/>
<text text-anchor="middle" x="955" y="-67.5" font-family="Helvetica,sans-Serif" font-size="10.00">unordered_map</text>
</a>
</g>
</g>
<!-- Node7&#45;&gt;Node9 -->
<g id="edge10_Node000007_Node000009" class="edge">
<title>Node7&#45;&gt;Node9</title>
<g id="a_edge10_Node000007_Node000009"><a xlink:title=" ">
<path fill="none" stroke="#63b8ff" d="M993.93,-126.37C987.13,-116.69 975.91,-100.74 967.26,-88.44"/>
<polygon fill="#63b8ff" stroke="#63b8ff" points="969.88,-86.07 961.26,-79.91 964.15,-90.1 969.88,-86.07"/>
</a>
</g>
</g>
<!-- Node10 -->
<g id="Node000010" class="node">
<title>Node10</title>
<g id="a_Node000010"><a xlink:title=" ">
<polygon fill="#e0e0e0" stroke="#999999" points="1068,-79.5 1020,-79.5 1020,-60.5 1068,-60.5 1068,-79.5"/>
<text text-anchor="middle" x="1044" y="-67.5" font-family="Helvetica,sans-Serif" font-size="10.00">mutex</text>
</a>
</g>
</g>
<!-- Node7&#45;&gt;Node10 -->
<g id="edge12_Node000007_Node000010" class="edge">
<title>Node7&#45;&gt;Node10</title>
<g id="a_edge12_Node000007_Node000010"><a xlink:title=" ">
<path fill="none" stroke="#63b8ff" d="M1005.93,-126.37C1012.59,-116.69 1023.56,-100.74 1032.01,-88.44"/>
<polygon fill="#63b8ff" stroke="#63b8ff" points="1035.1,-90.13 1037.88,-79.91 1029.33,-86.16 1035.1,-90.13"/>
</a>
</g>
</g>
<!-- Node7&#45;&gt;Node11 -->
<g id="edge13_Node000007_Node000011" class="edge">
<title>Node7&#45;&gt;Node11</title>
<g id="a_edge13_Node000007_Node000011"><a xlink:title=" ">
<path fill="none" stroke="#63b8ff" d="M958.38,-126.44C901.94,-114.82 801.18,-94.09 740.18,-81.53"/>
<polygon fill="#63b8ff" stroke="#63b8ff" points="740.87,-78.1 730.37,-79.51 739.46,-84.96 740.87,-78.1"/>
</a>
</g>
</g>
<!-- Node11&#45;&gt;Node8 -->
<g id="edge15_Node000011_Node000008" class="edge">
<title>Node11&#45;&gt;Node8</title>
<g id="a_edge15_Node000011_Node000008"><a xlink:title=" ">
<path fill="none" stroke="#63b8ff" d="M703.17,-60.37C718.69,-50.91 743.83,-35.59 762.15,-24.42"/>
<polygon fill="#63b8ff" stroke="#63b8ff" points="764.06,-27.36 770.78,-19.17 760.42,-21.38 764.06,-27.36"/>
</a>
</g>
</g>
<!-- Node12 -->
<g id="Node000012" class="node">
<title>Node12</title>
<g id="a_Node000012"><a xlink:title=" ">
<polygon fill="#e0e0e0" stroke="#999999" points="719,-19 659,-19 659,0 719,0 719,-19"/>
<text text-anchor="middle" x="689" y="-7" font-family="Helvetica,sans-Serif" font-size="10.00">iostream</text>
</a>
</g>
</g>
<!-- Node11&#45;&gt;Node12 -->
<g id="edge14_Node000011_Node000012" class="edge">
<title>Node11&#45;&gt;Node12</title>
<g id="a_edge14_Node000011_Node000012"><a xlink:title=" ">
<path fill="none" stroke="#63b8ff" d="M689,-60.37C689,-52.25 689,-39.81 689,-29.39"/>
<polygon fill="#63b8ff" stroke="#63b8ff" points="692.5,-29.17 689,-19.17 685.5,-29.17 692.5,-29.17"/>
</a>
</g>
</g>
<!-- Node13&#45;&gt;Node3 -->
<g id="edge21_Node000013_Node000003" class="edge">
<title>Node13&#45;&gt;Node3</title>
<g id="a_edge21_Node000013_Node000003"><a xlink:title=" ">
<path fill="none" stroke="#63b8ff" d="M290.21,-120.95C335.34,-109.26 398.72,-92.84 440.31,-82.06"/>
<polygon fill="#63b8ff" stroke="#63b8ff" points="441.33,-85.41 450.13,-79.52 439.57,-78.64 441.33,-85.41"/>
</a>
</g>
</g>
<!-- Node13&#45;&gt;Node5 -->
<g id="edge19_Node000013_Node000005" class="edge">
<title>Node13&#45;&gt;Node5</title>
<g id="a_edge19_Node000013_Node000005"><a xlink:title=" ">
<path fill="none" stroke="#63b8ff" d="M201.77,-120.95C174.41,-109.73 136.43,-94.15 110.19,-83.39"/>
<polygon fill="#63b8ff" stroke="#63b8ff" points="111.34,-80.07 100.76,-79.52 108.68,-86.55 111.34,-80.07"/>
</a>
</g>
</g>
<!-- Node14 -->
<g id="Node000014" class="node">
<title>Node14</title>
<g id="a_Node000014"><a xlink:title=" ">
<polygon fill="#e0e0e0" stroke="#999999" points="168,-79.5 126,-79.5 126,-60.5 168,-60.5 168,-79.5"/>
<text text-anchor="middle" x="147" y="-67.5" font-family="Helvetica,sans-Serif" font-size="10.00">array</text>
</a>
</g>
</g>
<!-- Node13&#45;&gt;Node14 -->
<g id="edge18_Node000013_Node000014" class="edge">
<title>Node13&#45;&gt;Node14</title>
<g id="a_edge18_Node000013_Node000014"><a xlink:title=" ">
<path fill="none" stroke="#63b8ff" d="M216.25,-120.8C201.74,-110.37 182.1,-96.24 167.44,-85.69"/>
<polygon fill="#63b8ff" stroke="#63b8ff" points="169.2,-82.66 159.04,-79.66 165.12,-88.34 169.2,-82.66"/>
</a>
</g>
</g>
<!-- Node15 -->
<g id="Node000015" class="node">
<title>Node15</title>
<g id="a_Node000015"><a xlink:title=" ">
<polygon fill="#e0e0e0" stroke="#999999" points="389.5,-79.5 338.5,-79.5 338.5,-60.5 389.5,-60.5 389.5,-79.5"/>
<text text-anchor="middle" x="364" y="-67.5" font-family="Helvetica,sans-Serif" font-size="10.00">variant</text>
</a>
</g>
</g>
<!-- Node13&#45;&gt;Node15 -->
<g id="edge20_Node000013_Node000015" class="edge">
<title>Node13&#45;&gt;Node15</title>
<g id="a_edge20_Node000013_Node000015"><a xlink:title=" ">
<path fill="none" stroke="#63b8ff" d="M264.09,-120.95C286.04,-109.98 316.33,-94.83 337.79,-84.11"/>
<polygon fill="#63b8ff" stroke="#63b8ff" points="339.59,-87.12 346.97,-79.52 336.46,-80.86 339.59,-87.12"/>
</a>
</g>
</g>
<!-- Node16 -->
<g id="Node000016" class="node">
<title>Node16</title>
<g id="a_Node000016"><a xlink:href="UniformSemantics_8ixx.html" target="_top" xlink:title="Definitions of uniform semantics used by shaders.">
<polygon fill="white" stroke="#666666" points="320,-85 186,-85 186,-55 320,-55 320,-85"/>
<text text-anchor="start" x="194" y="-73" font-family="Helvetica,sans-Serif" font-size="10.00">helios.rendering.shader.</text>
<text text-anchor="middle" x="253" y="-62" font-family="Helvetica,sans-Serif" font-size="10.00">UniformSemantics</text>
</a>
</g>
</g>
<!-- Node13&#45;&gt;Node16 -->
<g id="edge22_Node000013_Node000016" class="edge">
<title>Node13&#45;&gt;Node16</title>
<g id="a_edge22_Node000013_Node000016"><a xlink:title=" ">
<path fill="none" stroke="#63b8ff" d="M239.77,-120.8C241.8,-113.17 244.35,-103.57 246.67,-94.84"/>
<polygon fill="#63b8ff" stroke="#63b8ff" points="250.05,-95.73 249.24,-85.16 243.29,-93.93 250.05,-95.73"/>
</a>
</g>
</g>
<!-- Node17&#45;&gt;Node3 -->
<g id="edge27_Node000017_Node000003" class="edge">
<title>Node17&#45;&gt;Node3</title>
<g id="a_edge27_Node000017_Node000003"><a xlink:title=" ">
<path fill="none" stroke="#63b8ff" d="M181.11,-186.96C220.27,-178.34 269.43,-166.07 312,-151 365.99,-131.89 425.95,-101.59 458.58,-84.29"/>
<polygon fill="#63b8ff" stroke="#63b8ff" points="460.24,-87.37 467.4,-79.56 456.94,-81.19 460.24,-87.37"/>
</a>
</g>
</g>
<!-- Node17&#45;&gt;Node5 -->
<g id="edge24_Node000017_Node000005" class="edge">
<title>Node17&#45;&gt;Node5</title>
<g id="a_edge24_Node000017_Node000005"><a xlink:title=" ">
<path fill="none" stroke="#63b8ff" d="M106.73,-186.84C101.28,-163.23 90.35,-115.83 84.29,-89.58"/>
<polygon fill="#63b8ff" stroke="#63b8ff" points="87.68,-88.71 82.02,-79.75 80.86,-90.28 87.68,-88.71"/>
</a>
</g>
</g>
<!-- Node17&#45;&gt;Node13 -->
<g id="edge26_Node000017_Node000013" class="edge">
<title>Node17&#45;&gt;Node13</title>
<g id="a_edge26_Node000017_Node000013"><a xlink:title=" ">
<path fill="none" stroke="#63b8ff" d="M137.65,-186.95C155.79,-177.74 179.7,-165.6 199.41,-155.59"/>
<polygon fill="#63b8ff" stroke="#63b8ff" points="201.08,-158.66 208.41,-151.01 197.91,-152.42 201.08,-158.66"/>
</a>
</g>
</g>
<!-- Node17&#45;&gt;Node16 -->
<g id="edge25_Node000017_Node000016" class="edge">
<title>Node17&#45;&gt;Node16</title>
<g id="a_edge25_Node000017_Node000016"><a xlink:title=" ">
<path fill="none" stroke="#63b8ff" d="M116.12,-186.73C124.12,-169.41 139.56,-140.15 160,-121 173.64,-108.22 191.18,-97.69 207.33,-89.64"/>
<polygon fill="#63b8ff" stroke="#63b8ff" points="209.13,-92.66 216.65,-85.19 206.12,-86.34 209.13,-92.66"/>
</a>
</g>
</g>
<!-- Node18&#45;&gt;Node2 -->
<g id="edge29_Node000018_Node000002" class="edge">
<title>Node18&#45;&gt;Node2</title>
<g id="a_edge29_Node000018_Node000002"><a xlink:title=" ">
<path fill="none" stroke="#63b8ff" d="M1060.16,-310.36C1190.76,-299.63 1423.57,-273.06 1484,-217 1515.83,-187.48 1510.93,-163.48 1502,-121 1499.65,-109.82 1494.64,-98.1 1490,-88.81"/>
<polygon fill="#63b8ff" stroke="#63b8ff" points="1493.02,-87.03 1485.24,-79.83 1486.83,-90.31 1493.02,-87.03"/>
</a>
</g>
</g>
<!-- Node19 -->
<g id="Node000019" class="node">
<title>Node19</title>
<g id="a_Node000019"><a xlink:href="Mesh_8ixx.html" target="_top" xlink:title="Mesh abstraction: immutable vertex/index data and configuration.">
<polygon fill="white" stroke="#666666" points="1048,-272 890,-272 890,-253 1048,-253 1048,-272"/>
<text text-anchor="middle" x="969" y="-260" font-family="Helvetica,sans-Serif" font-size="10.00">helios.rendering.model.Mesh</text>
</a>
</g>
</g>
<!-- Node18&#45;&gt;Node19 -->
<g id="edge30_Node000018_Node000019" class="edge">
<title>Node18&#45;&gt;Node19</title>
<g id="a_edge30_Node000018_Node000019"><a xlink:title=" ">
<path fill="none" stroke="#63b8ff" d="M969.83,-307.75C969.7,-300.8 969.52,-290.85 969.35,-282.13"/>
<polygon fill="#63b8ff" stroke="#63b8ff" points="972.85,-282.02 969.16,-272.09 965.85,-282.15 972.85,-282.02"/>
</a>
</g>
</g>
<!-- Node25 -->
<g id="Node000025" class="node">
<title>Node25</title>
<g id="a_Node000025"><a xlink:href="Material_8ixx.html" target="_top" xlink:title="Material abstraction: shader + material properties.">
<polygon fill="white" stroke="#666666" points="823.5,-272 650.5,-272 650.5,-253 823.5,-253 823.5,-272"/>
<text text-anchor="middle" x="737" y="-260" font-family="Helvetica,sans-Serif" font-size="10.00">helios.rendering.model.Material</text>
</a>
</g>
</g>
<!-- Node18&#45;&gt;Node25 -->
<g id="edge46_Node000018_Node000025" class="edge">
<title>Node18&#45;&gt;Node25</title>
<g id="a_edge46_Node000018_Node000025"><a xlink:title=" ">
<path fill="none" stroke="#63b8ff" d="M932.56,-307.98C892.35,-298.84 828.32,-284.27 784.56,-274.32"/>
<polygon fill="#63b8ff" stroke="#63b8ff" points="785.26,-270.89 774.73,-272.08 783.7,-277.71 785.26,-270.89"/>
</a>
</g>
</g>
<!-- Node19&#45;&gt;Node2 -->
<g id="edge31_Node000019_Node000002" class="edge">
<title>Node19&#45;&gt;Node2</title>
<g id="a_edge31_Node000019_Node000002"><a xlink:title=" ">
<path fill="none" stroke="#63b8ff" d="M1048.15,-254.26C1052.83,-253.83 1057.48,-253.41 1062,-253 1106.33,-248.97 1428.91,-247.85 1461,-217 1495.46,-183.87 1489.71,-121.22 1484.11,-89.87"/>
<polygon fill="#63b8ff" stroke="#63b8ff" points="1487.5,-88.98 1482.13,-79.84 1480.63,-90.33 1487.5,-88.98"/>
</a>
</g>
</g>
<!-- Node19&#45;&gt;Node3 -->
<g id="edge45_Node000019_Node000003" class="edge">
<title>Node19&#45;&gt;Node3</title>
<g id="a_edge45_Node000019_Node000003"><a xlink:title=" ">
<path fill="none" stroke="#63b8ff" d="M964.75,-252.85C956.59,-237.18 937.19,-204.15 911,-187 856.89,-151.58 832.49,-167.68 770,-151 681.32,-127.32 577.68,-98.03 522.43,-82.28"/>
<polygon fill="#63b8ff" stroke="#63b8ff" points="523.27,-78.88 512.69,-79.51 521.35,-85.62 523.27,-78.88"/>
</a>
</g>
</g>
<!-- Node19&#45;&gt;Node6 -->
<g id="edge32_Node000019_Node000006" class="edge">
<title>Node19&#45;&gt;Node6</title>
<g id="a_edge32_Node000019_Node000006"><a xlink:title=" ">
<path fill="none" stroke="#63b8ff" d="M954.24,-252.87C938,-243.36 911.65,-227.95 892.54,-216.77"/>
<polygon fill="#63b8ff" stroke="#63b8ff" points="894.21,-213.7 883.82,-211.67 890.68,-219.74 894.21,-213.7"/>
</a>
</g>
</g>
<!-- Node19&#45;&gt;Node7 -->
<g id="edge35_Node000019_Node000007" class="edge">
<title>Node19&#45;&gt;Node7</title>
<g id="a_edge35_Node000019_Node000007"><a xlink:title=" ">
<path fill="none" stroke="#63b8ff" d="M971.75,-252.68C974.51,-243.73 978.78,-229.47 982,-217 987.38,-196.17 992.68,-172.05 996.12,-155.79"/>
<polygon fill="#63b8ff" stroke="#63b8ff" points="999.56,-156.43 998.18,-145.92 992.71,-154.99 999.56,-156.43"/>
</a>
</g>
</g>
<!-- Node19&#45;&gt;Node11 -->
<g id="edge34_Node000019_Node000011" class="edge">
<title>Node19&#45;&gt;Node11</title>
<g id="a_edge34_Node000019_Node000011"><a xlink:title=" ">
<path fill="none" stroke="#63b8ff" d="M889.87,-254.21C811.42,-246.16 701.07,-232.3 688,-217 657.21,-180.95 671.94,-119.65 682.12,-89.23"/>
<polygon fill="#63b8ff" stroke="#63b8ff" points="685.52,-90.12 685.57,-79.53 678.92,-87.78 685.52,-90.12"/>
</a>
</g>
</g>
<!-- Node20 -->
<g id="Node000020" class="node">
<title>Node20</title>
<g id="a_Node000020"><a xlink:title=" ">
<polygon fill="#e0e0e0" stroke="#999999" points="1194.5,-145.5 1147.5,-145.5 1147.5,-126.5 1194.5,-126.5 1194.5,-145.5"/>
<text text-anchor="middle" x="1171" y="-133.5" font-family="Helvetica,sans-Serif" font-size="10.00">vector</text>
</a>
</g>
</g>
<!-- Node19&#45;&gt;Node20 -->
<g id="edge33_Node000019_Node000020" class="edge">
<title>Node19&#45;&gt;Node20</title>
<g id="a_edge33_Node000019_Node000020"><a xlink:title=" ">
<path fill="none" stroke="#63b8ff" d="M982.88,-252.94C1017.19,-231.8 1106.23,-176.92 1148.32,-150.98"/>
<polygon fill="#63b8ff" stroke="#63b8ff" points="1150.34,-153.84 1157.02,-145.62 1146.67,-147.88 1150.34,-153.84"/>
</a>
</g>
</g>
<!-- Node21 -->
<g id="Node000021" class="node">
<title>Node21</title>
<g id="a_Node000021"><a xlink:href="Shape_8ixx.html" target="_top" xlink:title="Interface for simple geometric shapes used for testing and debugging.">
<polygon fill="white" stroke="#666666" points="1270,-217 1110,-217 1110,-187 1270,-187 1270,-217"/>
<text text-anchor="start" x="1118" y="-205" font-family="Helvetica,sans-Serif" font-size="10.00">helios.rendering.asset.shape.</text>
<text text-anchor="middle" x="1190" y="-194" font-family="Helvetica,sans-Serif" font-size="10.00">Shape</text>
</a>
</g>
</g>
<!-- Node19&#45;&gt;Node21 -->
<g id="edge36_Node000019_Node000021" class="edge">
<title>Node19&#45;&gt;Node21</title>
<g id="a_edge36_Node000019_Node000021"><a xlink:title=" ">
<path fill="none" stroke="#63b8ff" d="M1001.14,-252.99C1033.98,-244.3 1085.86,-230.57 1126.94,-219.69"/>
<polygon fill="#63b8ff" stroke="#63b8ff" points="1128.1,-223.01 1136.87,-217.06 1126.31,-216.24 1128.1,-223.01"/>
</a>
</g>
</g>
<!-- Node23 -->
<g id="Node000023" class="node">
<title>Node23</title>
<g id="a_Node000023"><a xlink:href="Vertex_8ixx.html" target="_top" xlink:title="Vertex description and utilities for rendering.">
<polygon fill="white" stroke="#666666" points="909,-145.5 779,-145.5 779,-126.5 909,-126.5 909,-145.5"/>
<text text-anchor="middle" x="844" y="-133.5" font-family="Helvetica,sans-Serif" font-size="10.00">helios.rendering.Vertex</text>
</a>
</g>
</g>
<!-- Node19&#45;&gt;Node23 -->
<g id="edge44_Node000019_Node000023" class="edge">
<title>Node19&#45;&gt;Node23</title>
<g id="a_edge44_Node000019_Node000023"><a xlink:title=" ">
<path fill="none" stroke="#63b8ff" d="M968.21,-252.62C966.42,-237.46 960.82,-206.36 944,-187 928.46,-169.12 905.02,-156.93 884.73,-149.06"/>
<polygon fill="#63b8ff" stroke="#63b8ff" points="885.67,-145.68 875.07,-145.54 883.27,-152.25 885.67,-145.68"/>
</a>
</g>
</g>
<!-- Node24 -->
<g id="Node000024" class="node">
<title>Node24</title>
<g id="a_Node000024"><a xlink:href="MeshConfig_8ixx.html" target="_top" xlink:title="Mesh configuration including primitive type.">
<polygon fill="white" stroke="#666666" points="1452,-217 1288,-217 1288,-187 1452,-187 1452,-217"/>
<text text-anchor="start" x="1296" y="-205" font-family="Helvetica,sans-Serif" font-size="10.00">helios.rendering.model.config.</text>
<text text-anchor="middle" x="1370" y="-194" font-family="Helvetica,sans-Serif" font-size="10.00">MeshConfig</text>
</a>
</g>
</g>
<!-- Node19&#45;&gt;Node24 -->
<g id="edge42_Node000019_Node000024" class="edge">
<title>Node19&#45;&gt;Node24</title>
<g id="a_edge42_Node000019_Node000024"><a xlink:title=" ">
<path fill="none" stroke="#63b8ff" d="M1029.62,-252.98C1089.93,-244.47 1185.41,-230.87 1277.6,-217.2"/>
<polygon fill="#63b8ff" stroke="#63b8ff" points="1278.29,-220.64 1287.67,-215.7 1277.26,-213.71 1278.29,-220.64"/>
</a>
</g>
</g>
<!-- Node21&#45;&gt;Node2 -->
<g id="edge37_Node000021_Node000002" class="edge">
<title>Node21&#45;&gt;Node2</title>
<g id="a_edge37_Node000021_Node000002"><a xlink:title=" ">
<path fill="none" stroke="#63b8ff" d="M1200.18,-186.77C1213.93,-168.64 1240.17,-137.67 1270,-121 1324.37,-90.62 1396.64,-78.61 1440.66,-73.93"/>
<polygon fill="#63b8ff" stroke="#63b8ff" points="1441.08,-77.4 1450.68,-72.94 1440.39,-70.44 1441.08,-77.4"/>
</a>
</g>
</g>
<!-- Node21&#45;&gt;Node20 -->
<g id="edge38_Node000021_Node000020" class="edge">
<title>Node21&#45;&gt;Node20</title>
<g id="a_edge38_Node000021_Node000020"><a xlink:title=" ">
<path fill="none" stroke="#63b8ff" d="M1185.78,-186.8C1183.05,-177.6 1179.47,-165.53 1176.52,-155.58"/>
<polygon fill="#63b8ff" stroke="#63b8ff" points="1179.83,-154.43 1173.63,-145.84 1173.12,-156.43 1179.83,-154.43"/>
</a>
</g>
</g>
<!-- Node22 -->
<g id="Node000022" class="node">
<title>Node22</title>
<g id="a_Node000022"><a xlink:href="PrimitiveType_8ixx.html" target="_top" xlink:title="Enum of primitive types for mesh rendering.">
<polygon fill="white" stroke="#666666" points="1443,-151 1279,-151 1279,-121 1443,-121 1443,-151"/>
<text text-anchor="start" x="1287" y="-139" font-family="Helvetica,sans-Serif" font-size="10.00">helios.rendering.model.config.</text>
<text text-anchor="middle" x="1361" y="-128" font-family="Helvetica,sans-Serif" font-size="10.00">PrimitiveType</text>
</a>
</g>
</g>
<!-- Node21&#45;&gt;Node22 -->
<g id="edge39_Node000021_Node000022" class="edge">
<title>Node21&#45;&gt;Node22</title>
<g id="a_edge39_Node000021_Node000022"><a xlink:title=" ">
<path fill="none" stroke="#63b8ff" d="M1227.53,-186.95C1252.92,-177.45 1286.66,-164.82 1313.86,-154.64"/>
<polygon fill="#63b8ff" stroke="#63b8ff" points="1315.42,-157.8 1323.56,-151.01 1312.97,-151.24 1315.42,-157.8"/>
</a>
</g>
</g>
<!-- Node21&#45;&gt;Node23 -->
<g id="edge40_Node000021_Node000023" class="edge">
<title>Node21&#45;&gt;Node23</title>
<g id="a_edge40_Node000021_Node000023"><a xlink:title=" ">
<path fill="none" stroke="#63b8ff" d="M1113.19,-186.99C1058.7,-177.02 983.84,-163.28 918,-151 911.84,-149.85 905.4,-148.64 898.99,-147.44"/>
<polygon fill="#63b8ff" stroke="#63b8ff" points="899.47,-143.97 889,-145.55 898.17,-150.84 899.47,-143.97"/>
</a>
</g>
</g>
<!-- Node23&#45;&gt;Node3 -->
<g id="edge41_Node000023_Node000003" class="edge">
<title>Node23&#45;&gt;Node3</title>
<g id="a_edge41_Node000023_Node000003"><a xlink:title=" ">
<path fill="none" stroke="#63b8ff" d="M795.69,-126.44C729.76,-114.75 611.77,-93.83 541.1,-81.3"/>
<polygon fill="#63b8ff" stroke="#63b8ff" points="541.48,-77.81 531.03,-79.51 540.26,-84.71 541.48,-77.81"/>
</a>
</g>
</g>
<!-- Node24&#45;&gt;Node22 -->
<g id="edge43_Node000024_Node000022" class="edge">
<title>Node24&#45;&gt;Node22</title>
<g id="a_edge43_Node000024_Node000022"><a xlink:title=" ">
<path fill="none" stroke="#63b8ff" d="M1368,-186.8C1366.94,-179.26 1365.61,-169.78 1364.39,-161.13"/>
<polygon fill="#63b8ff" stroke="#63b8ff" points="1367.85,-160.58 1362.99,-151.16 1360.92,-161.55 1367.85,-160.58"/>
</a>
</g>
</g>
<!-- Node25&#45;&gt;Node2 -->
<g id="edge47_Node000025_Node000002" class="edge">
<title>Node25&#45;&gt;Node2</title>
<g id="a_edge47_Node000025_Node000002"><a xlink:title=" ">
<path fill="none" stroke="#63b8ff" d="M746.82,-252.95C768.37,-234.27 818.65,-191.1 828,-187 932.41,-141.2 973.51,-186.07 1082,-151 1109.24,-142.19 1111.78,-129.87 1139,-121 1244.62,-86.58 1376.4,-75.79 1440.84,-72.45"/>
<polygon fill="#63b8ff" stroke="#63b8ff" points="1441.14,-75.94 1450.96,-71.96 1440.8,-68.95 1441.14,-75.94"/>
</a>
</g>
</g>
<!-- Node25&#45;&gt;Node6 -->
<g id="edge48_Node000025_Node000006" class="edge">
<title>Node25&#45;&gt;Node6</title>
<g id="a_edge48_Node000025_Node000006"><a xlink:title=" ">
<path fill="none" stroke="#63b8ff" d="M756.19,-252.99C778.39,-243.16 815.12,-226.88 840.62,-215.58"/>
<polygon fill="#63b8ff" stroke="#63b8ff" points="842.06,-218.77 849.78,-211.52 839.22,-212.37 842.06,-218.77"/>
</a>
</g>
</g>
<!-- Node25&#45;&gt;Node13 -->
<g id="edge60_Node000025_Node000013" class="edge">
<title>Node25&#45;&gt;Node13</title>
<g id="a_edge60_Node000025_Node000013"><a xlink:title=" ">
<path fill="none" stroke="#63b8ff" d="M650.45,-257.59C525.75,-251.28 307.11,-237.46 277,-217 257.92,-204.04 247.2,-179.37 241.56,-160.84"/>
<polygon fill="#63b8ff" stroke="#63b8ff" points="244.88,-159.74 238.85,-151.03 238.13,-161.6 244.88,-159.74"/>
</a>
</g>
</g>
<!-- Node26 -->
<g id="Node000026" class="node">
<title>Node26</title>
<g id="a_Node000026"><a xlink:href="helios_2util_2log_2__module_8ixx.html" target="_top" xlink:title="Module exports for logging.">
<polygon fill="white" stroke="#666666" points="779.5,-211.5 696.5,-211.5 696.5,-192.5 779.5,-192.5 779.5,-211.5"/>
<text text-anchor="middle" x="738" y="-199.5" font-family="Helvetica,sans-Serif" font-size="10.00">helios.util.log</text>
</a>
</g>
</g>
<!-- Node25&#45;&gt;Node26 -->
<g id="edge49_Node000025_Node000026" class="edge">
<title>Node25&#45;&gt;Node26</title>
<g id="a_edge49_Node000025_Node000026"><a xlink:title=" ">
<path fill="none" stroke="#63b8ff" d="M737.15,-252.87C737.29,-244.75 737.5,-232.31 737.68,-221.89"/>
<polygon fill="#63b8ff" stroke="#63b8ff" points="741.18,-221.73 737.85,-211.67 734.18,-221.61 741.18,-221.73"/>
</a>
</g>
</g>
<!-- Node27 -->
<g id="Node000027" class="node">
<title>Node27</title>
<g id="a_Node000027"><a xlink:href="MaterialProperties_8ixx.html" target="_top" xlink:title="Default material properties used by materials and instances.">
<polygon fill="white" stroke="#666666" points="450,-217 286,-217 286,-187 450,-187 450,-217"/>
<text text-anchor="start" x="294" y="-205" font-family="Helvetica,sans-Serif" font-size="10.00">helios.rendering.model.config.</text>
<text text-anchor="middle" x="368" y="-194" font-family="Helvetica,sans-Serif" font-size="10.00">MaterialProperties</text>
</a>
</g>
</g>
<!-- Node25&#45;&gt;Node27 -->
<g id="edge52_Node000025_Node000027" class="edge">
<title>Node25&#45;&gt;Node27</title>
<g id="a_edge52_Node000025_Node000027"><a xlink:title=" ">
<path fill="none" stroke="#63b8ff" d="M683.34,-252.99C624.95,-243.74 530.53,-228.77 460.21,-217.62"/>
<polygon fill="#63b8ff" stroke="#63b8ff" points="460.44,-214.11 450.01,-216 459.34,-221.02 460.44,-214.11"/>
</a>
</g>
</g>
<!-- Node28 -->
<g id="Node000028" class="node">
<title>Node28</title>
<g id="a_Node000028"><a xlink:href="Shader_8ixx.html" target="_top" xlink:title="Abstraction for a compiled shader program.">
<polygon fill="white" stroke="#666666" points="640,-217 506,-217 506,-187 640,-187 640,-217"/>
<text text-anchor="start" x="514" y="-205" font-family="Helvetica,sans-Serif" font-size="10.00">helios.rendering.shader.</text>
<text text-anchor="middle" x="573" y="-194" font-family="Helvetica,sans-Serif" font-size="10.00">Shader</text>
</a>
</g>
</g>
<!-- Node25&#45;&gt;Node28 -->
<g id="edge56_Node000025_Node000028" class="edge">
<title>Node25&#45;&gt;Node28</title>
<g id="a_edge56_Node000025_Node000028"><a xlink:title=" ">
<path fill="none" stroke="#63b8ff" d="M713.15,-252.99C689.34,-244.5 652.06,-231.2 621.93,-220.45"/>
<polygon fill="#63b8ff" stroke="#63b8ff" points="623.02,-217.13 612.43,-217.06 620.67,-223.72 623.02,-217.13"/>
</a>
</g>
</g>
<!-- Node26&#45;&gt;Node7 -->
<g id="edge50_Node000026_Node000007" class="edge">
<title>Node26&#45;&gt;Node7</title>
<g id="a_edge50_Node000026_Node000007"><a xlink:title=" ">
<path fill="none" stroke="#63b8ff" d="M772.05,-192.45C779.29,-190.64 786.9,-188.75 794,-187 849.3,-173.38 913.01,-157.96 954.76,-147.89"/>
<polygon fill="#63b8ff" stroke="#63b8ff" points="955.72,-151.25 964.62,-145.51 954.08,-144.45 955.72,-151.25"/>
</a>
</g>
</g>
<!-- Node26&#45;&gt;Node11 -->
<g id="edge51_Node000026_Node000011" class="edge">
<title>Node26&#45;&gt;Node11</title>
<g id="a_edge51_Node000026_Node000011"><a xlink:title=" ">
<path fill="none" stroke="#63b8ff" d="M734.78,-192.47C726.93,-171.63 706.63,-117.77 695.89,-89.28"/>
<polygon fill="#63b8ff" stroke="#63b8ff" points="699.09,-87.85 692.29,-79.73 692.54,-90.32 699.09,-87.85"/>
</a>
</g>
</g>
<!-- Node27&#45;&gt;Node3 -->
<g id="edge55_Node000027_Node000003" class="edge">
<title>Node27&#45;&gt;Node3</title>
<g id="a_edge55_Node000027_Node000003"><a xlink:title=" ">
<path fill="none" stroke="#63b8ff" d="M380.53,-186.84C401.97,-162.6 445.6,-113.28 468.39,-87.51"/>
<polygon fill="#63b8ff" stroke="#63b8ff" points="471.26,-89.56 475.26,-79.75 466.01,-84.92 471.26,-89.56"/>
</a>
</g>
</g>
<!-- Node27&#45;&gt;Node13 -->
<g id="edge54_Node000027_Node000013" class="edge">
<title>Node27&#45;&gt;Node13</title>
<g id="a_edge54_Node000027_Node000013"><a xlink:title=" ">
<path fill="none" stroke="#63b8ff" d="M339.03,-186.95C319.95,-177.7 294.75,-165.49 274.06,-155.45"/>
<polygon fill="#63b8ff" stroke="#63b8ff" points="275.43,-152.23 264.9,-151.01 272.37,-158.52 275.43,-152.23"/>
</a>
</g>
</g>
<!-- Node27&#45;&gt;Node16 -->
<g id="edge53_Node000027_Node000016" class="edge">
<title>Node27&#45;&gt;Node16</title>
<g id="a_edge53_Node000027_Node000016"><a xlink:title=" ">
<path fill="none" stroke="#63b8ff" d="M359.68,-186.9C349.53,-170.26 331.3,-142.17 312,-121 302.44,-110.51 290.71,-100.15 280.23,-91.61"/>
<polygon fill="#63b8ff" stroke="#63b8ff" points="282.17,-88.68 272.17,-85.18 277.81,-94.16 282.17,-88.68"/>
</a>
</g>
</g>
<!-- Node28&#45;&gt;Node7 -->
<g id="edge59_Node000028_Node000007" class="edge">
<title>Node28&#45;&gt;Node7</title>
<g id="a_edge59_Node000028_Node000007"><a xlink:title=" ">
<path fill="none" stroke="#63b8ff" d="M640.18,-191.77C709.76,-182.1 821.6,-166.21 918,-151 925.44,-149.83 933.25,-148.55 940.97,-147.26"/>
<polygon fill="#63b8ff" stroke="#63b8ff" points="941.76,-150.68 951.04,-145.57 940.59,-143.78 941.76,-150.68"/>
</a>
</g>
</g>
<!-- Node28&#45;&gt;Node11 -->
<g id="edge58_Node000028_Node000011" class="edge">
<title>Node28&#45;&gt;Node11</title>
<g id="a_edge58_Node000028_Node000011"><a xlink:title=" ">
<path fill="none" stroke="#63b8ff" d="M585.63,-186.84C607.26,-162.6 651.27,-113.28 674.27,-87.51"/>
<polygon fill="#63b8ff" stroke="#63b8ff" points="677.15,-89.54 681.19,-79.75 671.92,-84.88 677.15,-89.54"/>
</a>
</g>
</g>
<!-- Node28&#45;&gt;Node13 -->
<g id="edge57_Node000028_Node000013" class="edge">
<title>Node28&#45;&gt;Node13</title>
<g id="a_edge57_Node000028_Node000013"><a xlink:title=" ">
<path fill="none" stroke="#63b8ff" d="M505.61,-188.2C450.05,-177.65 371.21,-162.68 313.13,-151.65"/>
<polygon fill="#63b8ff" stroke="#63b8ff" points="313.75,-148.2 303.27,-149.78 312.44,-155.08 313.75,-148.2"/>
</a>
</g>
</g>
</g>
</svg>

<g id="navigator" transform="translate(0 0)" fill="#404254">
  <rect fill="#f2f5e9" fill-opacity="0.5" stroke="#606060" stroke-width=".5" x="0" y="0" width="60" height="60"/>
  <use id="zoomplus" xlink:href="#zoomPlus" x="17" y="9" onmousedown="handleZoom(evt,'in')"/>
  <use id="zoomminus" xlink:href="#zoomMin" x="42" y="9" onmousedown="handleZoom(evt,'out')"/>
  <use id="reset" xlink:href="#resetDef" x="30" y="36" onmousedown="handleReset()"/>
   <use id="arrowup" xlink:href="#arrowUp" x="0" y="0" onmousedown="handlePan(0,-1)"/>
  <use id="arrowright" xlink:href="#arrowRight" x="0" y="0" onmousedown="handlePan(1,0)"/>
  <use id="arrowdown" xlink:href="#arrowDown" x="0" y="0" onmousedown="handlePan(0,1)"/>
  <use id="arrowleft" xlink:href="#arrowLeft" x="0" y="0" onmousedown="handlePan(-1,0)"/>
</g>
<svg viewBox="0 0 15 15" width="100%" height="30px" preserveAspectRatio="xMaxYMin meet">
 <g id="arrow_out" transform="scale(0.3 0.3)">
  <a xlink:href="SnapshotItem_8ixx__incl_org.svg" target="_base">
   <rect id="button" ry="5" rx="5" y="6" x="6" height="38" width="38"
        fill="#f2f5e9" fill-opacity="0.5" stroke="#606060" stroke-width="1.0"/>
   <path id="arrow"
     d="M 11.500037,31.436501 C 11.940474,20.09759 22.043105,11.32322 32.158766,21.979434 L 37.068811,17.246167 C 37.068811,17.246167 37.088388,32 37.088388,32 L 22.160133,31.978069 C 22.160133,31.978069 26.997745,27.140456 26.997745,27.140456 C 18.528582,18.264221 13.291696,25.230495 11.500037,31.436501 z"
     style="fill:#404040;"/>
  </a>
 </g>
</svg>

<style type='text/css'>
<![CDATA[
[data-mouse-over-selected='false'] { opacity: 0.7; }
[data-mouse-over-selected='true']  { opacity: 1.0; }
]]>
</style>
<script type="application/ecmascript"><![CDATA[
document.addEventListener('DOMContentLoaded', (event) => {
  highlightEdges();
  highlightAdjacentNodes();
});
]]></script>
</svg>
