<?xml version="1.0" encoding="UTF-8" standalone="no"?>
<!DOCTYPE svg PUBLIC "-//W3C//DTD SVG 1.1//EN"
 "http://www.w3.org/Graphics/SVG/1.1/DTD/svg11.dtd">
<!-- Generated by graphviz version 2.43.0 (0)
 -->
<!-- Title: include/helios/scene/Snapshot.ixx Pages: 1 -->
<svg width="1707pt" height="511pt"
 viewBox="0.00 0.00 1707.00 511.00" xmlns="http://www.w3.org/2000/svg" xmlns:xlink="http://www.w3.org/1999/xlink">
<g id="graph0" class="graph" transform="scale(1 1) rotate(0) translate(4 507)">
<title>include/helios/scene/Snapshot.ixx</title>
<!-- Node1 -->
<g id="Node000001" class="node">
<title>Node1</title>
<g id="a_Node000001"><a xlink:title="Represents an immutable snapshot of a SceneGraph at a given point in time.">
<polygon fill="#999999" stroke="#666666" points="116,-503 0,-503 0,-473 116,-473 116,-503"/>
<text text-anchor="start" x="8" y="-491" font-family="Helvetica,sans-Serif" font-size="10.00">include/helios/scene</text>
<text text-anchor="middle" x="58" y="-480" font-family="Helvetica,sans-Serif" font-size="10.00">/Snapshot.ixx</text>
</a>
</g>
</g>
<!-- Node2 -->
<g id="Node000002" class="node">
<title>Node2</title>
<g id="a_Node000002"><a xlink:title=" ">
<polygon fill="#e0e0e0" stroke="#999999" points="480.5,-145.5 433.5,-145.5 433.5,-126.5 480.5,-126.5 480.5,-145.5"/>
<text text-anchor="middle" x="457" y="-133.5" font-family="Helvetica,sans-Serif" font-size="10.00">vector</text>
</a>
</g>
</g>
<!-- Node1&#45;&gt;Node2 -->
<g id="edge1_Node000001_Node000002" class="edge">
<title>Node1&#45;&gt;Node2</title>
<g id="a_edge1_Node000001_Node000002"><a xlink:title=" ">
<path fill="none" stroke="#63b8ff" d="M76.58,-472.82C127.26,-433.89 271.48,-321.25 382,-217 404.17,-196.09 427.94,-170.04 442.64,-153.47"/>
<polygon fill="#63b8ff" stroke="#63b8ff" points="445.47,-155.56 449.45,-145.74 440.21,-150.93 445.47,-155.56"/>
</a>
</g>
</g>
<!-- Node3 -->
<g id="Node000003" class="node">
<title>Node3</title>
<g id="a_Node000003"><a xlink:href="math_2types_2__module_8ixx.html" target="_top" xlink:title="Module exports for vector and matrix type definitions.">
<polygon fill="white" stroke="#666666" points="288,-79.5 184,-79.5 184,-60.5 288,-60.5 288,-79.5"/>
<text text-anchor="middle" x="236" y="-67.5" font-family="Helvetica,sans-Serif" font-size="10.00">helios.math.types</text>
</a>
</g>
</g>
<!-- Node1&#45;&gt;Node3 -->
<g id="edge2_Node000001_Node000003" class="edge">
<title>Node1&#45;&gt;Node3</title>
<g id="a_edge2_Node000001_Node000003"><a xlink:title=" ">
<path fill="none" stroke="#63b8ff" d="M49.94,-472.82C38.79,-451.82 20,-410.9 20,-373.5 20,-373.5 20,-373.5 20,-201 20,-128.61 110.17,-95.49 173.99,-81.12"/>
<polygon fill="#63b8ff" stroke="#63b8ff" points="174.95,-84.5 183.99,-78.97 173.48,-77.65 174.95,-84.5"/>
</a>
</g>
</g>
<!-- Node4 -->
<g id="Node000004" class="node">
<title>Node4</title>
<g id="a_Node000004"><a xlink:href="SnapshotItem_8ixx.html" target="_top" xlink:title="Snapshot item bundling a Renderable reference and its world matrix.">
<polygon fill="white" stroke="#666666" points="697,-437 549,-437 549,-418 697,-418 697,-437"/>
<text text-anchor="middle" x="623" y="-425" font-family="Helvetica,sans-Serif" font-size="10.00">helios.scene.SnapshotItem</text>
</a>
</g>
</g>
<!-- Node1&#45;&gt;Node4 -->
<g id="edge4_Node000001_Node000004" class="edge">
<title>Node1&#45;&gt;Node4</title>
<g id="a_edge4_Node000001_Node000004"><a xlink:title=" ">
<path fill="none" stroke="#63b8ff" d="M116.07,-480.99C216.39,-470.6 422.53,-449.26 538.66,-437.23"/>
<polygon fill="#63b8ff" stroke="#63b8ff" points="539.34,-440.68 548.92,-436.17 538.62,-433.72 539.34,-440.68"/>
</a>
</g>
</g>
<!-- Node3&#45;&gt;Node3 -->
<g id="edge3_Node000003_Node000003" class="edge">
<title>Node3&#45;&gt;Node3</title>
<g id="a_edge3_Node000003_Node000003"><a xlink:title=" ">
<path fill="none" stroke="#63b8ff" d="M261.85,-79.53C283.44,-83.61 306,-80.43 306,-70 306,-61.2 289.94,-57.56 271.95,-59.09"/>
<polygon fill="#63b8ff" stroke="#63b8ff" points="271.28,-55.65 261.85,-60.47 272.23,-62.58 271.28,-55.65"/>
</a>
</g>
</g>
<!-- Node4&#45;&gt;Node3 -->
<g id="edge6_Node000004_Node000003" class="edge">
<title>Node4&#45;&gt;Node3</title>
<g id="a_edge6_Node000004_Node000003"><a xlink:title=" ">
<path fill="none" stroke="#63b8ff" d="M551.44,-417.94C444.52,-400.9 246.1,-351.89 157,-217 133.38,-181.24 126.45,-158.04 148,-121 158.37,-103.19 177.7,-91.2 195.62,-83.44"/>
<polygon fill="#63b8ff" stroke="#63b8ff" points="197.37,-86.51 205.36,-79.56 194.77,-80.01 197.37,-86.51"/>
</a>
</g>
</g>
<!-- Node5 -->
<g id="Node000005" class="node">
<title>Node5</title>
<g id="a_Node000005"><a xlink:title=" ">
<polygon fill="#e0e0e0" stroke="#999999" points="1614,-79.5 1556,-79.5 1556,-60.5 1614,-60.5 1614,-79.5"/>
<text text-anchor="middle" x="1585" y="-67.5" font-family="Helvetica,sans-Serif" font-size="10.00">memory</text>
</a>
</g>
</g>
<!-- Node4&#45;&gt;Node5 -->
<g id="edge5_Node000004_Node000005" class="edge">
<title>Node4&#45;&gt;Node5</title>
<g id="a_edge5_Node000004_Node000005"><a xlink:title=" ">
<path fill="none" stroke="#63b8ff" d="M697.38,-426.84C940.94,-426.99 1699,-419.35 1699,-318.5 1699,-318.5 1699,-318.5 1699,-201 1699,-147.49 1643.74,-105.48 1610.16,-84.89"/>
<polygon fill="#63b8ff" stroke="#63b8ff" points="1611.72,-81.74 1601.33,-79.66 1608.15,-87.76 1611.72,-81.74"/>
</a>
</g>
</g>
<!-- Node6 -->
<g id="Node000006" class="node">
<title>Node6</title>
<g id="a_Node000006"><a xlink:href="Renderable_8ixx.html" target="_top" xlink:title="Representative of a configurable Renderable rendered by the underlying GL API.">
<polygon fill="white" stroke="#666666" points="952,-382 798,-382 798,-363 952,-363 952,-382"/>
<text text-anchor="middle" x="875" y="-370" font-family="Helvetica,sans-Serif" font-size="10.00">helios.rendering.Renderable</text>
</a>
</g>
</g>
<!-- Node4&#45;&gt;Node6 -->
<g id="edge7_Node000004_Node000006" class="edge">
<title>Node4&#45;&gt;Node6</title>
<g id="a_edge7_Node000004_Node000006"><a xlink:title=" ">
<path fill="none" stroke="#63b8ff" d="M663.49,-417.98C707.17,-408.8 776.81,-394.15 824.15,-384.19"/>
<polygon fill="#63b8ff" stroke="#63b8ff" points="825.13,-387.57 834.19,-382.08 823.69,-380.72 825.13,-387.57"/>
</a>
</g>
</g>
<!-- Node6&#45;&gt;Node5 -->
<g id="edge8_Node000006_Node000005" class="edge">
<title>Node6&#45;&gt;Node5</title>
<g id="a_edge8_Node000006_Node000005"><a xlink:title=" ">
<path fill="none" stroke="#63b8ff" d="M952.16,-368.91C1150.19,-361.24 1661,-334.57 1661,-263.5 1661,-263.5 1661,-263.5 1661,-201 1661,-154.46 1624.25,-109.79 1601.86,-86.89"/>
<polygon fill="#63b8ff" stroke="#63b8ff" points="1604.2,-84.27 1594.63,-79.73 1599.27,-89.25 1604.2,-84.27"/>
</a>
</g>
</g>
<!-- Node7 -->
<g id="Node000007" class="node">
<title>Node7</title>
<g id="a_Node000007"><a xlink:title=" ">
<polygon fill="#e0e0e0" stroke="#999999" points="395,-79.5 339,-79.5 339,-60.5 395,-60.5 395,-79.5"/>
<text text-anchor="middle" x="367" y="-67.5" font-family="Helvetica,sans-Serif" font-size="10.00">optional</text>
</a>
</g>
</g>
<!-- Node6&#45;&gt;Node7 -->
<g id="edge9_Node000006_Node000007" class="edge">
<title>Node6&#45;&gt;Node7</title>
<g id="a_edge9_Node000006_Node000007"><a xlink:title=" ">
<path fill="none" stroke="#63b8ff" d="M797.97,-363.58C638.34,-345.72 278.8,-297.43 189,-217 155.98,-187.43 134.48,-155.74 162,-121 205.37,-66.24 247.26,-102.08 315,-85 319.63,-83.83 324.48,-82.57 329.28,-81.31"/>
<polygon fill="#63b8ff" stroke="#63b8ff" points="330.22,-84.68 338.98,-78.72 328.41,-77.92 330.22,-84.68"/>
</a>
</g>
</g>
<!-- Node8 -->
<g id="Node000008" class="node">
<title>Node8</title>
<g id="a_Node000008"><a xlink:title=" ">
<polygon fill="#e0e0e0" stroke="#999999" points="1188.5,-211.5 1123.5,-211.5 1123.5,-192.5 1188.5,-192.5 1188.5,-211.5"/>
<text text-anchor="middle" x="1156" y="-199.5" font-family="Helvetica,sans-Serif" font-size="10.00">stdexcept</text>
</a>
</g>
</g>
<!-- Node6&#45;&gt;Node8 -->
<g id="edge10_Node000006_Node000008" class="edge">
<title>Node6&#45;&gt;Node8</title>
<g id="a_edge10_Node000006_Node000008"><a xlink:title=" ">
<path fill="none" stroke="#63b8ff" d="M952.29,-364.93C1011.01,-358.47 1085.56,-346.67 1109,-327 1140.94,-300.19 1151.21,-249.25 1154.49,-221.74"/>
<polygon fill="#63b8ff" stroke="#63b8ff" points="1158,-221.82 1155.51,-211.52 1151.03,-221.13 1158,-221.82"/>
</a>
</g>
</g>
<!-- Node9 -->
<g id="Node000009" class="node">
<title>Node9</title>
<g id="a_Node000009"><a xlink:href="Logger_8ixx.html" target="_top" xlink:title="Simple synchronous logger that writes messages to stdout.">
<polygon fill="white" stroke="#666666" points="1263.5,-79.5 1144.5,-79.5 1144.5,-60.5 1263.5,-60.5 1263.5,-79.5"/>
<text text-anchor="middle" x="1204" y="-67.5" font-family="Helvetica,sans-Serif" font-size="10.00">helios.util.log.Logger</text>
</a>
</g>
</g>
<!-- Node6&#45;&gt;Node9 -->
<g id="edge11_Node000006_Node000009" class="edge">
<title>Node6&#45;&gt;Node9</title>
<g id="a_edge11_Node000006_Node000009"><a xlink:title=" ">
<path fill="none" stroke="#63b8ff" d="M952.25,-364.88C1015.65,-354.71 1095,-328.92 1095,-263.5 1095,-263.5 1095,-263.5 1095,-201 1095,-148.46 1147.93,-106.02 1180.02,-85.11"/>
<polygon fill="#63b8ff" stroke="#63b8ff" points="1182.24,-87.85 1188.84,-79.56 1178.52,-81.92 1182.24,-87.85"/>
</a>
</g>
</g>
<!-- Node12 -->
<g id="Node000012" class="node">
<title>Node12</title>
<g id="a_Node000012"><a xlink:href="UniformValueMap_8ixx.html" target="_top" xlink:title="Mapping of uniform names to values used by shader programs.">
<polygon fill="white" stroke="#666666" points="891,-151 757,-151 757,-121 891,-121 891,-151"/>
<text text-anchor="start" x="765" y="-139" font-family="Helvetica,sans-Serif" font-size="10.00">helios.rendering.shader.</text>
<text text-anchor="middle" x="824" y="-128" font-family="Helvetica,sans-Serif" font-size="10.00">UniformValueMap</text>
</a>
</g>
</g>
<!-- Node6&#45;&gt;Node12 -->
<g id="edge14_Node000006_Node000012" class="edge">
<title>Node6&#45;&gt;Node12</title>
<g id="a_edge14_Node000006_Node000012"><a xlink:title=" ">
<path fill="none" stroke="#63b8ff" d="M853.67,-362.91C810.19,-344.09 712.22,-294.58 674,-217 655.96,-180.37 701.22,-159.97 746.64,-148.95"/>
<polygon fill="#63b8ff" stroke="#63b8ff" points="747.65,-152.31 756.62,-146.67 746.09,-145.49 747.65,-152.31"/>
</a>
</g>
</g>
<!-- Node16 -->
<g id="Node000016" class="node">
<title>Node16</title>
<g id="a_Node000016"><a xlink:href="MaterialPropertiesOverride_8ixx.html" target="_top" xlink:title="Overrides for material properties to customize rendering parameters.">
<polygon fill="white" stroke="#666666" points="373,-217 209,-217 209,-187 373,-187 373,-217"/>
<text text-anchor="start" x="217" y="-205" font-family="Helvetica,sans-Serif" font-size="10.00">helios.rendering.model.config.</text>
<text text-anchor="middle" x="291" y="-194" font-family="Helvetica,sans-Serif" font-size="10.00">MaterialPropertiesOverride</text>
</a>
</g>
</g>
<!-- Node6&#45;&gt;Node16 -->
<g id="edge20_Node000006_Node000016" class="edge">
<title>Node6&#45;&gt;Node16</title>
<g id="a_edge20_Node000006_Node000016"><a xlink:title=" ">
<path fill="none" stroke="#63b8ff" d="M816.74,-362.96C769.06,-355.36 700.08,-342.98 641,-327 528.54,-296.58 400.44,-247.31 334.82,-220.97"/>
<polygon fill="#63b8ff" stroke="#63b8ff" points="335.8,-217.59 325.22,-217.1 333.19,-224.08 335.8,-217.59"/>
</a>
</g>
</g>
<!-- Node17 -->
<g id="Node000017" class="node">
<title>Node17</title>
<g id="a_Node000017"><a xlink:href="RenderPrototype_8ixx.html" target="_top" xlink:title="An immutable, shared prototype of a renderable object.">
<polygon fill="white" stroke="#666666" points="1341,-327 1161,-327 1161,-308 1341,-308 1341,-327"/>
<text text-anchor="middle" x="1251" y="-315" font-family="Helvetica,sans-Serif" font-size="10.00">helios.rendering.RenderPrototype</text>
</a>
</g>
</g>
<!-- Node6&#45;&gt;Node17 -->
<g id="edge25_Node000006_Node000017" class="edge">
<title>Node6&#45;&gt;Node17</title>
<g id="a_edge25_Node000006_Node000017"><a xlink:title=" ">
<path fill="none" stroke="#63b8ff" d="M935.41,-362.98C1002.19,-353.57 1109.63,-338.43 1180.28,-328.47"/>
<polygon fill="#63b8ff" stroke="#63b8ff" points="1181.01,-331.9 1190.43,-327.04 1180.04,-324.97 1181.01,-331.9"/>
</a>
</g>
</g>
<!-- Node10 -->
<g id="Node000010" class="node">
<title>Node10</title>
<g id="a_Node000010"><a xlink:title=" ">
<polygon fill="#e0e0e0" stroke="#999999" points="1234,-19 1174,-19 1174,0 1234,0 1234,-19"/>
<text text-anchor="middle" x="1204" y="-7" font-family="Helvetica,sans-Serif" font-size="10.00">iostream</text>
</a>
</g>
</g>
<!-- Node9&#45;&gt;Node10 -->
<g id="edge12_Node000009_Node000010" class="edge">
<title>Node9&#45;&gt;Node10</title>
<g id="a_edge12_Node000009_Node000010"><a xlink:title=" ">
<path fill="none" stroke="#63b8ff" d="M1204,-60.37C1204,-52.25 1204,-39.81 1204,-29.39"/>
<polygon fill="#63b8ff" stroke="#63b8ff" points="1207.5,-29.17 1204,-19.17 1200.5,-29.17 1207.5,-29.17"/>
</a>
</g>
</g>
<!-- Node11 -->
<g id="Node000011" class="node">
<title>Node11</title>
<g id="a_Node000011"><a xlink:title=" ">
<polygon fill="#e0e0e0" stroke="#999999" points="1393,-19 1349,-19 1349,0 1393,0 1393,-19"/>
<text text-anchor="middle" x="1371" y="-7" font-family="Helvetica,sans-Serif" font-size="10.00">string</text>
</a>
</g>
</g>
<!-- Node9&#45;&gt;Node11 -->
<g id="edge13_Node000009_Node000011" class="edge">
<title>Node9&#45;&gt;Node11</title>
<g id="a_edge13_Node000009_Node000011"><a xlink:title=" ">
<path fill="none" stroke="#63b8ff" d="M1228.28,-60.49C1257.51,-50.26 1306.67,-33.04 1338.97,-21.72"/>
<polygon fill="#63b8ff" stroke="#63b8ff" points="1340.54,-24.88 1348.82,-18.27 1338.23,-18.27 1340.54,-24.88"/>
</a>
</g>
</g>
<!-- Node12&#45;&gt;Node3 -->
<g id="edge18_Node000012_Node000003" class="edge">
<title>Node12&#45;&gt;Node3</title>
<g id="a_edge18_Node000012_Node000003"><a xlink:title=" ">
<path fill="none" stroke="#63b8ff" d="M756.69,-126.83C739.82,-124.85 721.75,-122.79 705,-121 538.51,-103.22 496.19,-105.34 330,-85 319.7,-83.74 308.79,-82.25 298.18,-80.73"/>
<polygon fill="#63b8ff" stroke="#63b8ff" points="298.54,-77.24 288.14,-79.26 297.53,-84.17 298.54,-77.24"/>
</a>
</g>
</g>
<!-- Node12&#45;&gt;Node7 -->
<g id="edge16_Node000012_Node000007" class="edge">
<title>Node12&#45;&gt;Node7</title>
<g id="a_edge16_Node000012_Node000007"><a xlink:title=" ">
<path fill="none" stroke="#63b8ff" d="M756.57,-125.56C659.34,-111.94 482.96,-87.24 405.38,-76.37"/>
<polygon fill="#63b8ff" stroke="#63b8ff" points="405.49,-72.86 395.1,-74.94 404.52,-79.79 405.49,-72.86"/>
</a>
</g>
</g>
<!-- Node13 -->
<g id="Node000013" class="node">
<title>Node13</title>
<g id="a_Node000013"><a xlink:title=" ">
<polygon fill="#e0e0e0" stroke="#999999" points="910,-79.5 868,-79.5 868,-60.5 910,-60.5 910,-79.5"/>
<text text-anchor="middle" x="889" y="-67.5" font-family="Helvetica,sans-Serif" font-size="10.00">array</text>
</a>
</g>
</g>
<!-- Node12&#45;&gt;Node13 -->
<g id="edge15_Node000012_Node000013" class="edge">
<title>Node12&#45;&gt;Node13</title>
<g id="a_edge15_Node000012_Node000013"><a xlink:title=" ">
<path fill="none" stroke="#63b8ff" d="M838.43,-120.8C848.56,-110.82 862.13,-97.46 872.66,-87.09"/>
<polygon fill="#63b8ff" stroke="#63b8ff" points="875.35,-89.35 880.02,-79.84 870.44,-84.37 875.35,-89.35"/>
</a>
</g>
</g>
<!-- Node14 -->
<g id="Node000014" class="node">
<title>Node14</title>
<g id="a_Node000014"><a xlink:title=" ">
<polygon fill="#e0e0e0" stroke="#999999" points="849.5,-79.5 798.5,-79.5 798.5,-60.5 849.5,-60.5 849.5,-79.5"/>
<text text-anchor="middle" x="824" y="-67.5" font-family="Helvetica,sans-Serif" font-size="10.00">variant</text>
</a>
</g>
</g>
<!-- Node12&#45;&gt;Node14 -->
<g id="edge17_Node000012_Node000014" class="edge">
<title>Node12&#45;&gt;Node14</title>
<g id="a_edge17_Node000012_Node000014"><a xlink:title=" ">
<path fill="none" stroke="#63b8ff" d="M824,-120.8C824,-111.7 824,-99.79 824,-89.9"/>
<polygon fill="#63b8ff" stroke="#63b8ff" points="827.5,-89.84 824,-79.84 820.5,-89.84 827.5,-89.84"/>
</a>
</g>
</g>
<!-- Node15 -->
<g id="Node000015" class="node">
<title>Node15</title>
<g id="a_Node000015"><a xlink:href="UniformSemantics_8ixx.html" target="_top" xlink:title="Definitions of uniform semantics used by shaders.">
<polygon fill="white" stroke="#666666" points="780,-85 646,-85 646,-55 780,-55 780,-85"/>
<text text-anchor="start" x="654" y="-73" font-family="Helvetica,sans-Serif" font-size="10.00">helios.rendering.shader.</text>
<text text-anchor="middle" x="713" y="-62" font-family="Helvetica,sans-Serif" font-size="10.00">UniformSemantics</text>
</a>
</g>
</g>
<!-- Node12&#45;&gt;Node15 -->
<g id="edge19_Node000012_Node000015" class="edge">
<title>Node12&#45;&gt;Node15</title>
<g id="a_edge19_Node000012_Node000015"><a xlink:title=" ">
<path fill="none" stroke="#63b8ff" d="M799.64,-120.95C784.03,-111.95 763.55,-100.14 746.42,-90.27"/>
<polygon fill="#63b8ff" stroke="#63b8ff" points="747.71,-86.98 737.3,-85.01 744.22,-93.04 747.71,-86.98"/>
</a>
</g>
</g>
<!-- Node16&#45;&gt;Node3 -->
<g id="edge24_Node000016_Node000003" class="edge">
<title>Node16&#45;&gt;Node3</title>
<g id="a_edge24_Node000016_Node000003"><a xlink:title=" ">
<path fill="none" stroke="#63b8ff" d="M300.01,-186.94C309.41,-170.35 321.32,-142.31 310,-121 301.15,-104.33 283.98,-92.21 268.41,-84.08"/>
<polygon fill="#63b8ff" stroke="#63b8ff" points="269.53,-80.73 259.01,-79.53 266.48,-87.04 269.53,-80.73"/>
</a>
</g>
</g>
<!-- Node16&#45;&gt;Node7 -->
<g id="edge21_Node000016_Node000007" class="edge">
<title>Node16&#45;&gt;Node7</title>
<g id="a_edge21_Node000016_Node000007"><a xlink:title=" ">
<path fill="none" stroke="#63b8ff" d="M301.64,-186.91C308.87,-177.08 318.45,-163.53 326,-151 338.42,-130.38 350.75,-105.57 358.6,-89.1"/>
<polygon fill="#63b8ff" stroke="#63b8ff" points="361.97,-90.15 363.06,-79.62 355.64,-87.17 361.97,-90.15"/>
</a>
</g>
</g>
<!-- Node16&#45;&gt;Node12 -->
<g id="edge23_Node000016_Node000012" class="edge">
<title>Node16&#45;&gt;Node12</title>
<g id="a_edge23_Node000016_Node000012"><a xlink:title=" ">
<path fill="none" stroke="#63b8ff" d="M373.11,-191.14C475.03,-178.9 647.51,-158.19 747,-146.25"/>
<polygon fill="#63b8ff" stroke="#63b8ff" points="747.48,-149.71 756.99,-145.05 746.64,-142.76 747.48,-149.71"/>
</a>
</g>
</g>
<!-- Node16&#45;&gt;Node15 -->
<g id="edge22_Node000016_Node000015" class="edge">
<title>Node16&#45;&gt;Node15</title>
<g id="a_edge22_Node000016_Node000015"><a xlink:title=" ">
<path fill="none" stroke="#63b8ff" d="M309.4,-186.99C334.25,-168.82 380.54,-137.48 425,-121 493.71,-95.53 576.53,-82.88 635.69,-76.7"/>
<polygon fill="#63b8ff" stroke="#63b8ff" points="636.12,-80.17 645.71,-75.69 635.41,-73.21 636.12,-80.17"/>
</a>
</g>
</g>
<!-- Node17&#45;&gt;Node5 -->
<g id="edge26_Node000017_Node000005" class="edge">
<title>Node17&#45;&gt;Node5</title>
<g id="a_edge26_Node000017_Node000005"><a xlink:title=" ">
<path fill="none" stroke="#63b8ff" d="M1341.27,-312.38C1415.88,-304.21 1519.66,-281.09 1584,-217 1614.88,-186.24 1611.87,-163.87 1604,-121 1601.98,-109.98 1597.64,-98.25 1593.62,-88.92"/>
<polygon fill="#63b8ff" stroke="#63b8ff" points="1596.7,-87.22 1589.36,-79.57 1590.33,-90.12 1596.7,-87.22"/>
</a>
</g>
</g>
<!-- Node18 -->
<g id="Node000018" class="node">
<title>Node18</title>
<g id="a_Node000018"><a xlink:href="Mesh_8ixx.html" target="_top" xlink:title="Mesh abstraction: immutable vertex/index data and configuration.">
<polygon fill="white" stroke="#666666" points="955,-272 797,-272 797,-253 955,-253 955,-272"/>
<text text-anchor="middle" x="876" y="-260" font-family="Helvetica,sans-Serif" font-size="10.00">helios.rendering.model.Mesh</text>
</a>
</g>
</g>
<!-- Node17&#45;&gt;Node18 -->
<g id="edge27_Node000017_Node000018" class="edge">
<title>Node17&#45;&gt;Node18</title>
<g id="a_edge27_Node000017_Node000018"><a xlink:title=" ">
<path fill="none" stroke="#63b8ff" d="M1190.75,-307.98C1124.15,-298.57 1016.99,-283.43 946.53,-273.47"/>
<polygon fill="#63b8ff" stroke="#63b8ff" points="946.8,-269.97 936.41,-272.04 945.82,-276.9 946.8,-269.97"/>
</a>
</g>
</g>
<!-- Node26 -->
<g id="Node000026" class="node">
<title>Node26</title>
<g id="a_Node000026"><a xlink:href="Material_8ixx.html" target="_top" xlink:title=" ">
<polygon fill="white" stroke="#666666" points="1337.5,-272 1164.5,-272 1164.5,-253 1337.5,-253 1337.5,-272"/>
<text text-anchor="middle" x="1251" y="-260" font-family="Helvetica,sans-Serif" font-size="10.00">helios.rendering.model.Material</text>
</a>
</g>
</g>
<!-- Node17&#45;&gt;Node26 -->
<g id="edge48_Node000017_Node000026" class="edge">
<title>Node17&#45;&gt;Node26</title>
<g id="a_edge48_Node000017_Node000026"><a xlink:title=" ">
<path fill="none" stroke="#63b8ff" d="M1251,-307.75C1251,-300.8 1251,-290.85 1251,-282.13"/>
<polygon fill="#63b8ff" stroke="#63b8ff" points="1254.5,-282.09 1251,-272.09 1247.5,-282.09 1254.5,-282.09"/>
</a>
</g>
</g>
<!-- Node18&#45;&gt;Node2 -->
<g id="edge30_Node000018_Node000002" class="edge">
<title>Node18&#45;&gt;Node2</title>
<g id="a_edge30_Node000018_Node000002"><a xlink:title=" ">
<path fill="none" stroke="#63b8ff" d="M796.54,-258.63C681.64,-253.65 480.33,-241.52 458,-217 443.06,-200.59 446.38,-173.51 450.98,-155.46"/>
<polygon fill="#63b8ff" stroke="#63b8ff" points="454.36,-156.38 453.79,-145.8 447.64,-154.43 454.36,-156.38"/>
</a>
</g>
</g>
<!-- Node18&#45;&gt;Node3 -->
<g id="edge47_Node000018_Node000003" class="edge">
<title>Node18&#45;&gt;Node3</title>
<g id="a_edge47_Node000018_Node000003"><a xlink:title=" ">
<path fill="none" stroke="#63b8ff" d="M796.81,-261.03C626.6,-259.37 237.33,-251.77 189,-217 153.02,-191.12 141.21,-160.14 162,-121 170.85,-104.33 188.02,-92.21 203.59,-84.08"/>
<polygon fill="#63b8ff" stroke="#63b8ff" points="205.52,-87.04 212.99,-79.53 202.47,-80.73 205.52,-87.04"/>
</a>
</g>
</g>
<!-- Node18&#45;&gt;Node5 -->
<g id="edge28_Node000018_Node000005" class="edge">
<title>Node18&#45;&gt;Node5</title>
<g id="a_edge28_Node000018_Node000005"><a xlink:title=" ">
<path fill="none" stroke="#63b8ff" d="M955.29,-257.95C1119.66,-250.3 1484.21,-231.78 1507,-217 1552.73,-187.35 1573.51,-121.51 1581.21,-89.37"/>
<polygon fill="#63b8ff" stroke="#63b8ff" points="1584.65,-90.04 1583.41,-79.52 1577.82,-88.52 1584.65,-90.04"/>
</a>
</g>
</g>
<!-- Node18&#45;&gt;Node8 -->
<g id="edge29_Node000018_Node000008" class="edge">
<title>Node18&#45;&gt;Node8</title>
<g id="a_edge29_Node000018_Node000008"><a xlink:title=" ">
<path fill="none" stroke="#63b8ff" d="M916.71,-252.99C969.15,-242.04 1059.87,-223.08 1113.27,-211.93"/>
<polygon fill="#63b8ff" stroke="#63b8ff" points="1114.04,-215.34 1123.11,-209.87 1112.6,-208.49 1114.04,-215.34"/>
</a>
</g>
</g>
<!-- Node18&#45;&gt;Node9 -->
<g id="edge31_Node000018_Node000009" class="edge">
<title>Node18&#45;&gt;Node9</title>
<g id="a_edge31_Node000018_Node000009"><a xlink:title=" ">
<path fill="none" stroke="#63b8ff" d="M955.16,-253.95C983.92,-247.79 1014.97,-236.75 1038,-217 1073.49,-186.57 1047.37,-153.47 1081,-121 1100.6,-102.07 1128.33,-89.96 1152.5,-82.41"/>
<polygon fill="#63b8ff" stroke="#63b8ff" points="1153.65,-85.72 1162.25,-79.54 1151.67,-79.01 1153.65,-85.72"/>
</a>
</g>
</g>
<!-- Node19 -->
<g id="Node000019" class="node">
<title>Node19</title>
<g id="a_Node000019"><a xlink:href="LogManager_8ixx.html" target="_top" xlink:title="Central manager for scoped loggers.">
<polygon fill="white" stroke="#666666" points="1481,-145.5 1335,-145.5 1335,-126.5 1481,-126.5 1481,-145.5"/>
<text text-anchor="middle" x="1408" y="-133.5" font-family="Helvetica,sans-Serif" font-size="10.00">helios.util.log.LogManager</text>
</a>
</g>
</g>
<!-- Node18&#45;&gt;Node19 -->
<g id="edge32_Node000018_Node000019" class="edge">
<title>Node18&#45;&gt;Node19</title>
<g id="a_edge32_Node000018_Node000019"><a xlink:title=" ">
<path fill="none" stroke="#63b8ff" d="M955.03,-258.61C1116.79,-252.3 1472.04,-236.31 1490,-217 1512.83,-192.45 1470.05,-165.55 1438.15,-150.03"/>
<polygon fill="#63b8ff" stroke="#63b8ff" points="1439.23,-146.67 1428.69,-145.6 1436.26,-153.01 1439.23,-146.67"/>
</a>
</g>
</g>
<!-- Node22 -->
<g id="Node000022" class="node">
<title>Node22</title>
<g id="a_Node000022"><a xlink:href="Shape_8ixx.html" target="_top" xlink:title="Interface for simple geometric shapes used for testing and debugging.">
<polygon fill="white" stroke="#666666" points="627,-217 467,-217 467,-187 627,-187 627,-217"/>
<text text-anchor="start" x="475" y="-205" font-family="Helvetica,sans-Serif" font-size="10.00">helios.rendering.asset.shape.</text>
<text text-anchor="middle" x="547" y="-194" font-family="Helvetica,sans-Serif" font-size="10.00">Shape</text>
</a>
</g>
</g>
<!-- Node18&#45;&gt;Node22 -->
<g id="edge38_Node000018_Node000022" class="edge">
<title>Node18&#45;&gt;Node22</title>
<g id="a_edge38_Node000018_Node000022"><a xlink:title=" ">
<path fill="none" stroke="#63b8ff" d="M828.16,-252.99C777.94,-244.06 697.82,-229.82 635.94,-218.81"/>
<polygon fill="#63b8ff" stroke="#63b8ff" points="636.24,-215.31 625.78,-217.01 635.01,-222.2 636.24,-215.31"/>
</a>
</g>
</g>
<!-- Node24 -->
<g id="Node000024" class="node">
<title>Node24</title>
<g id="a_Node000024"><a xlink:href="Vertex_8ixx.html" target="_top" xlink:title="Vertex description and utilities for rendering.">
<polygon fill="white" stroke="#666666" points="301,-145.5 171,-145.5 171,-126.5 301,-126.5 301,-145.5"/>
<text text-anchor="middle" x="236" y="-133.5" font-family="Helvetica,sans-Serif" font-size="10.00">helios.rendering.Vertex</text>
</a>
</g>
</g>
<!-- Node18&#45;&gt;Node24 -->
<g id="edge46_Node000018_Node000024" class="edge">
<title>Node18&#45;&gt;Node24</title>
<g id="a_edge46_Node000018_Node000024"><a xlink:title=" ">
<path fill="none" stroke="#63b8ff" d="M796.97,-262.21C627.26,-262.92 240.04,-259.77 200,-217 182.76,-198.59 202.9,-170.51 219.26,-152.98"/>
<polygon fill="#63b8ff" stroke="#63b8ff" points="221.86,-155.33 226.37,-145.75 216.87,-150.43 221.86,-155.33"/>
</a>
</g>
</g>
<!-- Node25 -->
<g id="Node000025" class="node">
<title>Node25</title>
<g id="a_Node000025"><a xlink:href="MeshConfig_8ixx.html" target="_top" xlink:title="Mesh configuration including primitive type.">
<polygon fill="white" stroke="#666666" points="847,-217 683,-217 683,-187 847,-187 847,-217"/>
<text text-anchor="start" x="691" y="-205" font-family="Helvetica,sans-Serif" font-size="10.00">helios.rendering.model.config.</text>
<text text-anchor="middle" x="765" y="-194" font-family="Helvetica,sans-Serif" font-size="10.00">MeshConfig</text>
</a>
</g>
</g>
<!-- Node18&#45;&gt;Node25 -->
<g id="edge44_Node000018_Node000025" class="edge">
<title>Node18&#45;&gt;Node25</title>
<g id="a_edge44_Node000018_Node000025"><a xlink:title=" ">
<path fill="none" stroke="#63b8ff" d="M859.62,-252.87C844.21,-244.75 820.61,-232.31 800.84,-221.89"/>
<polygon fill="#63b8ff" stroke="#63b8ff" points="802.26,-218.68 791.78,-217.11 799,-224.87 802.26,-218.68"/>
</a>
</g>
</g>
<!-- Node19&#45;&gt;Node5 -->
<g id="edge35_Node000019_Node000005" class="edge">
<title>Node19&#45;&gt;Node5</title>
<g id="a_edge35_Node000019_Node000005"><a xlink:title=" ">
<path fill="none" stroke="#63b8ff" d="M1431.87,-126.37C1462.7,-115.22 1516.55,-95.75 1551.48,-83.12"/>
<polygon fill="#63b8ff" stroke="#63b8ff" points="1553.01,-86.29 1561.23,-79.6 1550.63,-79.71 1553.01,-86.29"/>
</a>
</g>
</g>
<!-- Node19&#45;&gt;Node9 -->
<g id="edge37_Node000019_Node000009" class="edge">
<title>Node19&#45;&gt;Node9</title>
<g id="a_edge37_Node000019_Node000009"><a xlink:title=" ">
<path fill="none" stroke="#63b8ff" d="M1380.49,-126.37C1344.49,-115.08 1281.29,-95.25 1241.09,-82.64"/>
<polygon fill="#63b8ff" stroke="#63b8ff" points="1241.99,-79.25 1231.4,-79.6 1239.9,-85.93 1241.99,-79.25"/>
</a>
</g>
</g>
<!-- Node19&#45;&gt;Node11 -->
<g id="edge33_Node000019_Node000011" class="edge">
<title>Node19&#45;&gt;Node11</title>
<g id="a_edge33_Node000019_Node000011"><a xlink:title=" ">
<path fill="none" stroke="#63b8ff" d="M1418.47,-126.45C1435.25,-111.67 1464.88,-80.46 1450,-55 1439.84,-37.62 1420.11,-26.5 1402.92,-19.72"/>
<polygon fill="#63b8ff" stroke="#63b8ff" points="1403.77,-16.31 1393.17,-16.22 1401.4,-22.89 1403.77,-16.31"/>
</a>
</g>
</g>
<!-- Node20 -->
<g id="Node000020" class="node">
<title>Node20</title>
<g id="a_Node000020"><a xlink:title=" ">
<polygon fill="#e0e0e0" stroke="#999999" points="1374.5,-79.5 1281.5,-79.5 1281.5,-60.5 1374.5,-60.5 1374.5,-79.5"/>
<text text-anchor="middle" x="1328" y="-67.5" font-family="Helvetica,sans-Serif" font-size="10.00">unordered_map</text>
</a>
</g>
</g>
<!-- Node19&#45;&gt;Node20 -->
<g id="edge34_Node000019_Node000020" class="edge">
<title>Node19&#45;&gt;Node20</title>
<g id="a_edge34_Node000019_Node000020"><a xlink:title=" ">
<path fill="none" stroke="#63b8ff" d="M1397.21,-126.37C1384.33,-116.06 1362.56,-98.65 1346.87,-86.09"/>
<polygon fill="#63b8ff" stroke="#63b8ff" points="1348.87,-83.21 1338.87,-79.7 1344.5,-88.68 1348.87,-83.21"/>
</a>
</g>
</g>
<!-- Node21 -->
<g id="Node000021" class="node">
<title>Node21</title>
<g id="a_Node000021"><a xlink:title=" ">
<polygon fill="#e0e0e0" stroke="#999999" points="1441,-79.5 1393,-79.5 1393,-60.5 1441,-60.5 1441,-79.5"/>
<text text-anchor="middle" x="1417" y="-67.5" font-family="Helvetica,sans-Serif" font-size="10.00">mutex</text>
</a>
</g>
</g>
<!-- Node19&#45;&gt;Node21 -->
<g id="edge36_Node000019_Node000021" class="edge">
<title>Node19&#45;&gt;Node21</title>
<g id="a_edge36_Node000019_Node000021"><a xlink:title=" ">
<path fill="none" stroke="#63b8ff" d="M1409.21,-126.37C1410.52,-117.07 1412.64,-101.98 1414.34,-89.9"/>
<polygon fill="#63b8ff" stroke="#63b8ff" points="1417.82,-90.3 1415.75,-79.91 1410.89,-89.32 1417.82,-90.3"/>
</a>
</g>
</g>
<!-- Node22&#45;&gt;Node2 -->
<g id="edge40_Node000022_Node000002" class="edge">
<title>Node22&#45;&gt;Node2</title>
<g id="a_edge40_Node000022_Node000002"><a xlink:title=" ">
<path fill="none" stroke="#63b8ff" d="M527.03,-186.8C512.36,-176.37 492.49,-162.24 477.66,-151.69"/>
<polygon fill="#63b8ff" stroke="#63b8ff" points="479.35,-148.6 469.18,-145.66 475.3,-154.31 479.35,-148.6"/>
</a>
</g>
</g>
<!-- Node22&#45;&gt;Node5 -->
<g id="edge39_Node000022_Node000005" class="edge">
<title>Node22&#45;&gt;Node5</title>
<g id="a_edge39_Node000022_Node000005"><a xlink:title=" ">
<path fill="none" stroke="#63b8ff" d="M627.21,-191.35C642.71,-189.71 658.85,-188.17 674,-187 764.49,-180.02 1405.45,-183.99 1490,-151 1507.89,-144.02 1546.88,-108.02 1568.94,-86.77"/>
<polygon fill="#63b8ff" stroke="#63b8ff" points="1571.5,-89.16 1576.23,-79.68 1566.62,-84.14 1571.5,-89.16"/>
</a>
</g>
</g>
<!-- Node23 -->
<g id="Node000023" class="node">
<title>Node23</title>
<g id="a_Node000023"><a xlink:href="PrimitiveType_8ixx.html" target="_top" xlink:title="Enum of primitive types for mesh rendering.">
<polygon fill="white" stroke="#666666" points="663,-151 499,-151 499,-121 663,-121 663,-151"/>
<text text-anchor="start" x="507" y="-139" font-family="Helvetica,sans-Serif" font-size="10.00">helios.rendering.model.config.</text>
<text text-anchor="middle" x="581" y="-128" font-family="Helvetica,sans-Serif" font-size="10.00">PrimitiveType</text>
</a>
</g>
</g>
<!-- Node22&#45;&gt;Node23 -->
<g id="edge41_Node000022_Node000023" class="edge">
<title>Node22&#45;&gt;Node23</title>
<g id="a_edge41_Node000022_Node000023"><a xlink:title=" ">
<path fill="none" stroke="#63b8ff" d="M554.55,-186.8C558.68,-179.01 563.92,-169.16 568.63,-160.28"/>
<polygon fill="#63b8ff" stroke="#63b8ff" points="571.87,-161.64 573.48,-151.16 565.69,-158.35 571.87,-161.64"/>
</a>
</g>
</g>
<!-- Node22&#45;&gt;Node24 -->
<g id="edge42_Node000022_Node000024" class="edge">
<title>Node22&#45;&gt;Node24</title>
<g id="a_edge42_Node000022_Node000024"><a xlink:title=" ">
<path fill="none" stroke="#63b8ff" d="M478.75,-186.95C421.09,-175.09 339.75,-158.35 287.45,-147.59"/>
<polygon fill="#63b8ff" stroke="#63b8ff" points="287.89,-144.1 277.39,-145.52 286.48,-150.96 287.89,-144.1"/>
</a>
</g>
</g>
<!-- Node24&#45;&gt;Node3 -->
<g id="edge43_Node000024_Node000003" class="edge">
<title>Node24&#45;&gt;Node3</title>
<g id="a_edge43_Node000024_Node000003"><a xlink:title=" ">
<path fill="none" stroke="#63b8ff" d="M236,-126.37C236,-117.16 236,-102.29 236,-90.27"/>
<polygon fill="#63b8ff" stroke="#63b8ff" points="239.5,-89.91 236,-79.91 232.5,-89.91 239.5,-89.91"/>
</a>
</g>
</g>
<!-- Node25&#45;&gt;Node23 -->
<g id="edge45_Node000025_Node000023" class="edge">
<title>Node25&#45;&gt;Node23</title>
<g id="a_edge45_Node000025_Node000023"><a xlink:title=" ">
<path fill="none" stroke="#63b8ff" d="M724.62,-186.95C697.06,-177.37 660.36,-164.6 630.95,-154.37"/>
<polygon fill="#63b8ff" stroke="#63b8ff" points="631.88,-150.99 621.29,-151.01 629.58,-157.6 631.88,-150.99"/>
</a>
</g>
</g>
<!-- Node26&#45;&gt;Node5 -->
<g id="edge49_Node000026_Node000005" class="edge">
<title>Node26&#45;&gt;Node5</title>
<g id="a_edge49_Node000026_Node000005"><a xlink:title=" ">
<path fill="none" stroke="#63b8ff" d="M1337.87,-260.19C1418.37,-257.06 1530.17,-247.2 1561,-217 1595.32,-183.38 1592.3,-120.95 1588.18,-89.76"/>
<polygon fill="#63b8ff" stroke="#63b8ff" points="1591.63,-89.16 1586.69,-79.79 1584.71,-90.2 1591.63,-89.16"/>
</a>
</g>
</g>
<!-- Node26&#45;&gt;Node8 -->
<g id="edge50_Node000026_Node000008" class="edge">
<title>Node26&#45;&gt;Node8</title>
<g id="a_edge50_Node000026_Node000008"><a xlink:title=" ">
<path fill="none" stroke="#63b8ff" d="M1236.98,-252.87C1221.69,-243.45 1196.97,-228.23 1178.86,-217.08"/>
<polygon fill="#63b8ff" stroke="#63b8ff" points="1180.43,-213.93 1170.08,-211.67 1176.75,-219.89 1180.43,-213.93"/>
</a>
</g>
</g>
<!-- Node26&#45;&gt;Node12 -->
<g id="edge62_Node000026_Node000012" class="edge">
<title>Node26&#45;&gt;Node12</title>
<g id="a_edge62_Node000026_Node000012"><a xlink:title=" ">
<path fill="none" stroke="#63b8ff" d="M1247.61,-252.81C1240.86,-236.78 1224.1,-202.74 1198,-187 1149.49,-157.75 995.83,-145.2 901.23,-140.14"/>
<polygon fill="#63b8ff" stroke="#63b8ff" points="901.3,-136.63 891.13,-139.61 900.94,-143.63 901.3,-136.63"/>
</a>
</g>
</g>
<!-- Node27 -->
<g id="Node000027" class="node">
<title>Node27</title>
<g id="a_Node000027"><a xlink:href="Shader_8ixx.html" target="_top" xlink:title="Abstraction for a compiled shader program.">
<polygon fill="white" stroke="#666666" points="1379,-217 1245,-217 1245,-187 1379,-187 1379,-217"/>
<text text-anchor="start" x="1253" y="-205" font-family="Helvetica,sans-Serif" font-size="10.00">helios.rendering.shader.</text>
<text text-anchor="middle" x="1312" y="-194" font-family="Helvetica,sans-Serif" font-size="10.00">Shader</text>
</a>
</g>
</g>
<!-- Node26&#45;&gt;Node27 -->
<g id="edge51_Node000026_Node000027" class="edge">
<title>Node26&#45;&gt;Node27</title>
<g id="a_edge51_Node000026_Node000027"><a xlink:title=" ">
<path fill="none" stroke="#63b8ff" d="M1260,-252.87C1267.89,-245.3 1279.7,-233.98 1290.06,-224.04"/>
<polygon fill="#63b8ff" stroke="#63b8ff" points="1292.49,-226.56 1297.28,-217.11 1287.64,-221.51 1292.49,-226.56"/>
</a>
</g>
</g>
<!-- Node28 -->
<g id="Node000028" class="node">
<title>Node28</title>
<g id="a_Node000028"><a xlink:href="util_2log_2__module_8ixx.html" target="_top" xlink:title="Module exports for logging.">
<polygon fill="white" stroke="#666666" points="1480.5,-211.5 1397.5,-211.5 1397.5,-192.5 1480.5,-192.5 1480.5,-211.5"/>
<text text-anchor="middle" x="1439" y="-199.5" font-family="Helvetica,sans-Serif" font-size="10.00">helios.util.log</text>
</a>
</g>
</g>
<!-- Node26&#45;&gt;Node28 -->
<g id="edge55_Node000026_Node000028" class="edge">
<title>Node26&#45;&gt;Node28</title>
<g id="a_edge55_Node000026_Node000028"><a xlink:title=" ">
<path fill="none" stroke="#63b8ff" d="M1278.34,-252.99C1310.92,-242.86 1365.51,-225.87 1401.89,-214.55"/>
<polygon fill="#63b8ff" stroke="#63b8ff" points="1403.12,-217.83 1411.63,-211.52 1401.04,-211.15 1403.12,-217.83"/>
</a>
</g>
</g>
<!-- Node29 -->
<g id="Node000029" class="node">
<title>Node29</title>
<g id="a_Node000029"><a xlink:href="MaterialProperties_8ixx.html" target="_top" xlink:title="Default material properties used by materials and instances.">
<polygon fill="white" stroke="#666666" points="1029,-217 865,-217 865,-187 1029,-187 1029,-217"/>
<text text-anchor="start" x="873" y="-205" font-family="Helvetica,sans-Serif" font-size="10.00">helios.rendering.model.config.</text>
<text text-anchor="middle" x="947" y="-194" font-family="Helvetica,sans-Serif" font-size="10.00">MaterialProperties</text>
</a>
</g>
</g>
<!-- Node26&#45;&gt;Node29 -->
<g id="edge58_Node000026_Node000029" class="edge">
<title>Node26&#45;&gt;Node29</title>
<g id="a_edge58_Node000026_Node000029"><a xlink:title=" ">
<path fill="none" stroke="#63b8ff" d="M1206.8,-252.99C1160.58,-244.1 1086.97,-229.94 1029.89,-218.95"/>
<polygon fill="#63b8ff" stroke="#63b8ff" points="1030.27,-215.46 1019.79,-217.01 1028.95,-222.33 1030.27,-215.46"/>
</a>
</g>
</g>
<!-- Node27&#45;&gt;Node9 -->
<g id="edge53_Node000027_Node000009" class="edge">
<title>Node27&#45;&gt;Node9</title>
<g id="a_edge53_Node000027_Node000009"><a xlink:title=" ">
<path fill="none" stroke="#63b8ff" d="M1300.24,-186.84C1280.1,-162.6 1239.12,-113.28 1217.72,-87.51"/>
<polygon fill="#63b8ff" stroke="#63b8ff" points="1220.35,-85.2 1211.27,-79.75 1214.97,-89.68 1220.35,-85.2"/>
</a>
</g>
</g>
<!-- Node27&#45;&gt;Node12 -->
<g id="edge52_Node000027_Node000012" class="edge">
<title>Node27&#45;&gt;Node12</title>
<g id="a_edge52_Node000027_Node000012"><a xlink:title=" ">
<path fill="none" stroke="#63b8ff" d="M1244.86,-189.13C1240.17,-188.39 1235.52,-187.67 1231,-187 1116.41,-170.07 983.06,-154.46 901.1,-145.33"/>
<polygon fill="#63b8ff" stroke="#63b8ff" points="901.44,-141.85 891.11,-144.23 900.67,-148.81 901.44,-141.85"/>
</a>
</g>
</g>
<!-- Node27&#45;&gt;Node19 -->
<g id="edge54_Node000027_Node000019" class="edge">
<title>Node27&#45;&gt;Node19</title>
<g id="a_edge54_Node000027_Node000019"><a xlink:title=" ">
<path fill="none" stroke="#63b8ff" d="M1333.31,-186.8C1349.1,-176.27 1370.54,-161.97 1386.4,-151.4"/>
<polygon fill="#63b8ff" stroke="#63b8ff" points="1388.63,-154.12 1395.01,-145.66 1384.75,-148.29 1388.63,-154.12"/>
</a>
</g>
</g>
<!-- Node28&#45;&gt;Node9 -->
<g id="edge57_Node000028_Node000009" class="edge">
<title>Node28&#45;&gt;Node9</title>
<g id="a_edge57_Node000028_Node000009"><a xlink:title=" ">
<path fill="none" stroke="#63b8ff" d="M1416.83,-192.45C1393.67,-183.22 1356.52,-167.62 1326,-151 1288.52,-130.6 1247.53,-102.4 1223.89,-85.5"/>
<polygon fill="#63b8ff" stroke="#63b8ff" points="1225.88,-82.63 1215.72,-79.62 1221.79,-88.31 1225.88,-82.63"/>
</a>
</g>
</g>
<!-- Node28&#45;&gt;Node19 -->
<g id="edge56_Node000028_Node000019" class="edge">
<title>Node28&#45;&gt;Node19</title>
<g id="a_edge56_Node000028_Node000019"><a xlink:title=" ">
<path fill="none" stroke="#63b8ff" d="M1434.82,-192.37C1430.22,-182.88 1422.71,-167.36 1416.8,-155.16"/>
<polygon fill="#63b8ff" stroke="#63b8ff" points="1419.82,-153.38 1412.31,-145.91 1413.52,-156.43 1419.82,-153.38"/>
</a>
</g>
</g>
<!-- Node29&#45;&gt;Node3 -->
<g id="edge61_Node000029_Node000003" class="edge">
<title>Node29&#45;&gt;Node3</title>
<g id="a_edge61_Node000029_Node000003"><a xlink:title=" ">
<path fill="none" stroke="#63b8ff" d="M872.62,-186.98C818.4,-176.28 749.92,-161.62 723,-151 698.54,-141.35 696.98,-129.23 672,-121 526.84,-73.17 481.62,-104.26 330,-85 319.7,-83.69 308.79,-82.18 298.19,-80.65"/>
<polygon fill="#63b8ff" stroke="#63b8ff" points="298.55,-77.16 288.15,-79.17 297.54,-84.09 298.55,-77.16"/>
</a>
</g>
</g>
<!-- Node29&#45;&gt;Node12 -->
<g id="edge60_Node000029_Node000012" class="edge">
<title>Node29&#45;&gt;Node12</title>
<g id="a_edge60_Node000029_Node000012"><a xlink:title=" ">
<path fill="none" stroke="#63b8ff" d="M920.01,-186.95C902.38,-177.78 879.17,-165.71 859.98,-155.72"/>
<polygon fill="#63b8ff" stroke="#63b8ff" points="861.42,-152.52 850.93,-151.01 858.19,-158.73 861.42,-152.52"/>
</a>
</g>
</g>
<!-- Node29&#45;&gt;Node15 -->
<g id="edge59_Node000029_Node000015" class="edge">
<title>Node29&#45;&gt;Node15</title>
<g id="a_edge59_Node000029_Node000015"><a xlink:title=" ">
<path fill="none" stroke="#63b8ff" d="M864.8,-187.86C818.29,-179.01 765.95,-166.19 748,-151 731.17,-136.76 722.16,-112.87 717.53,-94.9"/>
<polygon fill="#63b8ff" stroke="#63b8ff" points="720.93,-94.08 715.27,-85.12 714.11,-95.65 720.93,-94.08"/>
</a>
</g>
</g>
</g>
</svg>
