<?xml version="1.0" encoding="UTF-8" standalone="no"?>
<!DOCTYPE svg PUBLIC "-//W3C//DTD SVG 1.1//EN"
 "http://www.w3.org/Graphics/SVG/1.1/DTD/svg11.dtd">
<!-- Generated by graphviz version 2.43.0 (0)
 -->
<!-- Title: include/helios/scene/SnapshotItem.ixx Pages: 1 -->
<svg width="1614pt" height="511pt"
 viewBox="0.00 0.00 1613.64 511.00" xmlns="http://www.w3.org/2000/svg" xmlns:xlink="http://www.w3.org/1999/xlink">
<g id="graph0" class="graph" transform="scale(1 1) rotate(0) translate(4 507)">
<title>include/helios/scene/SnapshotItem.ixx</title>
<!-- Node1 -->
<g id="Node000001" class="node">
<title>Node1</title>
<g id="a_Node000001"><a xlink:title="Snapshot item bundling a Renderable reference and its world matrix.">
<polygon fill="#999999" stroke="#666666" points="732.52,-503 616.52,-503 616.52,-473 732.52,-473 732.52,-503"/>
<text text-anchor="start" x="624.52" y="-491" font-family="Helvetica,sans-Serif" font-size="10.00">include/helios/scene</text>
<text text-anchor="middle" x="674.52" y="-480" font-family="Helvetica,sans-Serif" font-size="10.00">/SnapshotItem.ixx</text>
</a>
</g>
</g>
<!-- Node2 -->
<g id="Node000002" class="node">
<title>Node2</title>
<g id="a_Node000002"><a xlink:title=" ">
<polygon fill="#e0e0e0" stroke="#999999" points="177.52,-74 119.52,-74 119.52,-55 177.52,-55 177.52,-74"/>
<text text-anchor="middle" x="148.52" y="-62" font-family="Helvetica,sans-Serif" font-size="10.00">memory</text>
</a>
</g>
</g>
<!-- Node1&#45;&gt;Node2 -->
<g id="edge1_Node000001_Node000002" class="edge">
<title>Node1&#45;&gt;Node2</title>
<g id="a_edge1_Node000001_Node000002"><a xlink:title=" ">
<path fill="none" stroke="#63b8ff" d="M616.47,-481.14C475.91,-465.59 123.99,-418.14 57.52,-327 0.52,-248.84 11.55,-183.44 74.52,-110 86.13,-96.46 102.93,-85.9 117.59,-78.47"/>
<polygon fill="#63b8ff" stroke="#63b8ff" points="119.33,-81.51 126.83,-74.04 116.3,-75.2 119.33,-81.51"/>
</a>
</g>
</g>
<!-- Node3 -->
<g id="Node000003" class="node">
<title>Node3</title>
<g id="a_Node000003"><a xlink:href="helios_2math_2types_2__module_8ixx.html" target="_top" xlink:title="Module exports for vector and matrix type definitions.">
<polygon fill="white" stroke="#666666" points="1189.52,-134.5 1085.52,-134.5 1085.52,-115.5 1189.52,-115.5 1189.52,-134.5"/>
<text text-anchor="middle" x="1137.52" y="-122.5" font-family="Helvetica,sans-Serif" font-size="10.00">helios.math.types</text>
</a>
</g>
</g>
<!-- Node1&#45;&gt;Node3 -->
<g id="edge2_Node000001_Node000003" class="edge">
<title>Node1&#45;&gt;Node3</title>
<g id="a_edge2_Node000001_Node000003"><a xlink:title=" ">
<path fill="none" stroke="#63b8ff" d="M721.98,-472.95C805.68,-446.1 981.01,-380.36 1090.52,-272 1125.77,-237.12 1134.61,-175.74 1136.81,-144.86"/>
<polygon fill="#63b8ff" stroke="#63b8ff" points="1140.32,-144.81 1137.37,-134.64 1133.33,-144.43 1140.32,-144.81"/>
</a>
</g>
</g>
<!-- Node4 -->
<g id="Node000004" class="node">
<title>Node4</title>
<g id="a_Node000004"><a xlink:href="Renderable_8ixx.html" target="_top" xlink:title="Representative of a configurable Renderable rendered by the underlying GL API.">
<polygon fill="white" stroke="#666666" points="751.52,-437 597.52,-437 597.52,-418 751.52,-418 751.52,-437"/>
<text text-anchor="middle" x="674.52" y="-425" font-family="Helvetica,sans-Serif" font-size="10.00">helios.rendering.Renderable</text>
</a>
</g>
</g>
<!-- Node1&#45;&gt;Node4 -->
<g id="edge4_Node000001_Node000004" class="edge">
<title>Node1&#45;&gt;Node4</title>
<g id="a_edge4_Node000001_Node000004"><a xlink:title=" ">
<path fill="none" stroke="#63b8ff" d="M674.52,-472.84C674.52,-465.21 674.52,-455.7 674.52,-447.45"/>
<polygon fill="#63b8ff" stroke="#63b8ff" points="678.02,-447.27 674.52,-437.27 671.02,-447.27 678.02,-447.27"/>
</a>
</g>
</g>
<!-- Node3&#45;&gt;Node3 -->
<g id="edge3_Node000003_Node000003" class="edge">
<title>Node3&#45;&gt;Node3</title>
<g id="a_edge3_Node000003_Node000003"><a xlink:title=" ">
<path fill="none" stroke="#63b8ff" d="M1163.37,-134.53C1184.96,-138.61 1207.52,-135.43 1207.52,-125 1207.52,-116.2 1191.46,-112.56 1173.47,-114.09"/>
<polygon fill="#63b8ff" stroke="#63b8ff" points="1172.81,-110.65 1163.37,-115.47 1173.75,-117.58 1172.81,-110.65"/>
</a>
</g>
</g>
<!-- Node4&#45;&gt;Node2 -->
<g id="edge5_Node000004_Node000002" class="edge">
<title>Node4&#45;&gt;Node2</title>
<g id="a_edge5_Node000004_Node000002"><a xlink:title=" ">
<path fill="none" stroke="#63b8ff" d="M597.51,-420.87C432.87,-407.79 61.52,-372.33 61.52,-318.5 61.52,-318.5 61.52,-318.5 61.52,-190 61.52,-143.33 103.11,-101.68 128.78,-80.42"/>
<polygon fill="#63b8ff" stroke="#63b8ff" points="131.17,-82.99 136.79,-74.01 126.8,-77.52 131.17,-82.99"/>
</a>
</g>
</g>
<!-- Node5 -->
<g id="Node000005" class="node">
<title>Node5</title>
<g id="a_Node000005"><a xlink:title=" ">
<polygon fill="#e0e0e0" stroke="#999999" points="1563.52,-134.5 1507.52,-134.5 1507.52,-115.5 1563.52,-115.5 1563.52,-134.5"/>
<text text-anchor="middle" x="1535.52" y="-122.5" font-family="Helvetica,sans-Serif" font-size="10.00">optional</text>
</a>
</g>
</g>
<!-- Node4&#45;&gt;Node5 -->
<g id="edge6_Node000004_Node000005" class="edge">
<title>Node4&#45;&gt;Node5</title>
<g id="a_edge6_Node000004_Node000005"><a xlink:title=" ">
<path fill="none" stroke="#63b8ff" d="M751.74,-427.24C919.7,-427.99 1313.23,-424.95 1438.52,-382 1520.16,-354.02 1558.35,-348.37 1598.52,-272 1622.62,-226.19 1577.63,-169.17 1551.82,-141.93"/>
<polygon fill="#63b8ff" stroke="#63b8ff" points="1554.32,-139.48 1544.83,-134.77 1549.31,-144.37 1554.32,-139.48"/>
</a>
</g>
</g>
<!-- Node6 -->
<g id="Node000006" class="node">
<title>Node6</title>
<g id="a_Node000006"><a xlink:title=" ">
<polygon fill="#e0e0e0" stroke="#999999" points="743.02,-266.5 678.02,-266.5 678.02,-247.5 743.02,-247.5 743.02,-266.5"/>
<text text-anchor="middle" x="710.52" y="-254.5" font-family="Helvetica,sans-Serif" font-size="10.00">stdexcept</text>
</a>
</g>
</g>
<!-- Node4&#45;&gt;Node6 -->
<g id="edge7_Node000004_Node000006" class="edge">
<title>Node4&#45;&gt;Node6</title>
<g id="a_edge7_Node000004_Node000006"><a xlink:title=" ">
<path fill="none" stroke="#63b8ff" d="M676.36,-417.91C681.92,-391.89 698.67,-313.47 706.46,-277.01"/>
<polygon fill="#63b8ff" stroke="#63b8ff" points="709.98,-277.28 708.65,-266.77 703.14,-275.82 709.98,-277.28"/>
</a>
</g>
</g>
<!-- Node7 -->
<g id="Node000007" class="node">
<title>Node7</title>
<g id="a_Node000007"><a xlink:href="LogManager_8ixx.html" target="_top" xlink:title="Central manager for scoped loggers with configurable sinks.">
<polygon fill="white" stroke="#666666" points="608.52,-200.5 462.52,-200.5 462.52,-181.5 608.52,-181.5 608.52,-200.5"/>
<text text-anchor="middle" x="535.52" y="-188.5" font-family="Helvetica,sans-Serif" font-size="10.00">helios.util.log.LogManager</text>
</a>
</g>
</g>
<!-- Node4&#45;&gt;Node7 -->
<g id="edge8_Node000004_Node000007" class="edge">
<title>Node4&#45;&gt;Node7</title>
<g id="a_edge8_Node000004_Node000007"><a xlink:title=" ">
<path fill="none" stroke="#63b8ff" d="M665.8,-417.81C657.42,-409.19 644.72,-395.38 635.52,-382 594.77,-322.7 558.62,-244.8 543.3,-210.07"/>
<polygon fill="#63b8ff" stroke="#63b8ff" points="546.44,-208.51 539.23,-200.74 540.02,-211.31 546.44,-208.51"/>
</a>
</g>
</g>
<!-- Node13 -->
<g id="Node000013" class="node">
<title>Node13</title>
<g id="a_Node000013"><a xlink:href="Logger_8ixx.html" target="_top" xlink:title="Simple synchronous logger with configurable output sinks.">
<polygon fill="white" stroke="#666666" points="786.02,-134.5 667.02,-134.5 667.02,-115.5 786.02,-115.5 786.02,-134.5"/>
<text text-anchor="middle" x="726.52" y="-122.5" font-family="Helvetica,sans-Serif" font-size="10.00">helios.util.log.Logger</text>
</a>
</g>
</g>
<!-- Node4&#45;&gt;Node13 -->
<g id="edge24_Node000004_Node000013" class="edge">
<title>Node4&#45;&gt;Node13</title>
<g id="a_edge24_Node000004_Node000013"><a xlink:title=" ">
<path fill="none" stroke="#63b8ff" d="M672.67,-417.88C667.27,-391.26 652.91,-308.12 668.52,-242 677.4,-204.39 700.44,-165.08 714.66,-143.25"/>
<polygon fill="#63b8ff" stroke="#63b8ff" points="717.69,-145.03 720.33,-134.77 711.86,-141.14 717.69,-145.03"/>
</a>
</g>
</g>
<!-- Node16 -->
<g id="Node000016" class="node">
<title>Node16</title>
<g id="a_Node000016"><a xlink:href="UniformValueMap_8ixx.html" target="_top" xlink:title="Mapping of uniform names to values used by shader programs.">
<polygon fill="white" stroke="#666666" points="1427.52,-206 1293.52,-206 1293.52,-176 1427.52,-176 1427.52,-206"/>
<text text-anchor="start" x="1301.52" y="-194" font-family="Helvetica,sans-Serif" font-size="10.00">helios.rendering.shader.</text>
<text text-anchor="middle" x="1360.52" y="-183" font-family="Helvetica,sans-Serif" font-size="10.00">UniformValueMap</text>
</a>
</g>
</g>
<!-- Node4&#45;&gt;Node16 -->
<g id="edge25_Node000004_Node000016" class="edge">
<title>Node4&#45;&gt;Node16</title>
<g id="a_edge25_Node000004_Node000016"><a xlink:title=" ">
<path fill="none" stroke="#63b8ff" d="M751.68,-420.99C915.12,-407.56 1287.48,-366.98 1363.52,-272 1375.9,-256.55 1373.57,-233.52 1369.08,-216.14"/>
<polygon fill="#63b8ff" stroke="#63b8ff" points="1372.31,-214.75 1366.11,-206.16 1365.6,-216.74 1372.31,-214.75"/>
</a>
</g>
</g>
<!-- Node20 -->
<g id="Node000020" class="node">
<title>Node20</title>
<g id="a_Node000020"><a xlink:href="MaterialPropertiesOverride_8ixx.html" target="_top" xlink:title="Overrides for material properties to customize rendering parameters.">
<polygon fill="white" stroke="#666666" points="1589.52,-272 1425.52,-272 1425.52,-242 1589.52,-242 1589.52,-272"/>
<text text-anchor="start" x="1433.52" y="-260" font-family="Helvetica,sans-Serif" font-size="10.00">helios.rendering.model.config.</text>
<text text-anchor="middle" x="1507.52" y="-249" font-family="Helvetica,sans-Serif" font-size="10.00">MaterialPropertiesOverride</text>
</a>
</g>
</g>
<!-- Node4&#45;&gt;Node20 -->
<g id="edge31_Node000004_Node000020" class="edge">
<title>Node4&#45;&gt;Node20</title>
<g id="a_edge31_Node000004_Node000020"><a xlink:title=" ">
<path fill="none" stroke="#63b8ff" d="M751.76,-425.43C929.04,-422.45 1354.33,-412.23 1411.52,-382 1453.26,-359.94 1482.5,-310.88 1497.03,-281.51"/>
<polygon fill="#63b8ff" stroke="#63b8ff" points="1500.24,-282.91 1501.38,-272.37 1493.92,-279.89 1500.24,-282.91"/>
</a>
</g>
</g>
<!-- Node21 -->
<g id="Node000021" class="node">
<title>Node21</title>
<g id="a_Node000021"><a xlink:href="RenderPrototype_8ixx.html" target="_top" xlink:title="An immutable, shared prototype of a renderable object.">
<polygon fill="white" stroke="#666666" points="545.52,-382 365.52,-382 365.52,-363 545.52,-363 545.52,-382"/>
<text text-anchor="middle" x="455.52" y="-370" font-family="Helvetica,sans-Serif" font-size="10.00">helios.rendering.RenderPrototype</text>
</a>
</g>
</g>
<!-- Node4&#45;&gt;Node21 -->
<g id="edge36_Node000004_Node000021" class="edge">
<title>Node4&#45;&gt;Node21</title>
<g id="a_edge36_Node000004_Node000021"><a xlink:title=" ">
<path fill="none" stroke="#63b8ff" d="M639.34,-417.98C601.7,-408.87 541.87,-394.4 500.75,-384.45"/>
<polygon fill="#63b8ff" stroke="#63b8ff" points="501.53,-381.03 490.99,-382.08 499.88,-387.84 501.53,-381.03"/>
</a>
</g>
</g>
<!-- Node7&#45;&gt;Node2 -->
<g id="edge12_Node000007_Node000002" class="edge">
<title>Node7&#45;&gt;Node2</title>
<g id="a_edge12_Node000007_Node000002"><a xlink:title=" ">
<path fill="none" stroke="#63b8ff" d="M488.46,-181.43C435,-171.27 351.43,-153.94 322.52,-140 303.14,-130.65 303.49,-120.17 284.52,-110 253.62,-93.43 215.44,-81.6 187.41,-74.32"/>
<polygon fill="#63b8ff" stroke="#63b8ff" points="188.13,-70.9 177.58,-71.85 186.42,-77.68 188.13,-70.9"/>
</a>
</g>
</g>
<!-- Node8 -->
<g id="Node000008" class="node">
<title>Node8</title>
<g id="a_Node000008"><a xlink:title=" ">
<polygon fill="#e0e0e0" stroke="#999999" points="911.52,-19 867.52,-19 867.52,0 911.52,0 911.52,-19"/>
<text text-anchor="middle" x="889.52" y="-7" font-family="Helvetica,sans-Serif" font-size="10.00">string</text>
</a>
</g>
</g>
<!-- Node7&#45;&gt;Node8 -->
<g id="edge9_Node000007_Node000008" class="edge">
<title>Node7&#45;&gt;Node8</title>
<g id="a_edge9_Node000007_Node000008"><a xlink:title=" ">
<path fill="none" stroke="#63b8ff" d="M608.66,-187.35C732.38,-182.1 972.06,-168.37 997.52,-140 1019.24,-115.81 973,-57.59 970.52,-55 956.81,-40.64 937.44,-29.77 921.07,-22.37"/>
<polygon fill="#63b8ff" stroke="#63b8ff" points="922.42,-19.14 911.85,-18.41 919.66,-25.57 922.42,-19.14"/>
</a>
</g>
</g>
<!-- Node9 -->
<g id="Node000009" class="node">
<title>Node9</title>
<g id="a_Node000009"><a xlink:title=" ">
<polygon fill="#e0e0e0" stroke="#999999" points="468.02,-134.5 375.02,-134.5 375.02,-115.5 468.02,-115.5 468.02,-134.5"/>
<text text-anchor="middle" x="421.52" y="-122.5" font-family="Helvetica,sans-Serif" font-size="10.00">unordered_map</text>
</a>
</g>
</g>
<!-- Node7&#45;&gt;Node9 -->
<g id="edge10_Node000007_Node000009" class="edge">
<title>Node7&#45;&gt;Node9</title>
<g id="a_edge10_Node000007_Node000009"><a xlink:title=" ">
<path fill="none" stroke="#63b8ff" d="M520.15,-181.37C501.11,-170.68 468.45,-152.35 445.96,-139.72"/>
<polygon fill="#63b8ff" stroke="#63b8ff" points="447.45,-136.54 437.02,-134.7 444.03,-142.65 447.45,-136.54"/>
</a>
</g>
</g>
<!-- Node10 -->
<g id="Node000010" class="node">
<title>Node10</title>
<g id="a_Node000010"><a xlink:title=" ">
<polygon fill="#e0e0e0" stroke="#999999" points="572.52,-134.5 486.52,-134.5 486.52,-115.5 572.52,-115.5 572.52,-134.5"/>
<text text-anchor="middle" x="529.52" y="-122.5" font-family="Helvetica,sans-Serif" font-size="10.00">unordered_set</text>
</a>
</g>
</g>
<!-- Node7&#45;&gt;Node10 -->
<g id="edge11_Node000007_Node000010" class="edge">
<title>Node7&#45;&gt;Node10</title>
<g id="a_edge11_Node000007_Node000010"><a xlink:title=" ">
<path fill="none" stroke="#63b8ff" d="M534.72,-181.37C533.84,-172.07 532.43,-156.98 531.3,-144.9"/>
<polygon fill="#63b8ff" stroke="#63b8ff" points="534.78,-144.53 530.36,-134.91 527.81,-145.19 534.78,-144.53"/>
</a>
</g>
</g>
<!-- Node11 -->
<g id="Node000011" class="node">
<title>Node11</title>
<g id="a_Node000011"><a xlink:title=" ">
<polygon fill="#e0e0e0" stroke="#999999" points="655.52,-74 607.52,-74 607.52,-55 655.52,-55 655.52,-74"/>
<text text-anchor="middle" x="631.52" y="-62" font-family="Helvetica,sans-Serif" font-size="10.00">mutex</text>
</a>
</g>
</g>
<!-- Node7&#45;&gt;Node11 -->
<g id="edge13_Node000007_Node000011" class="edge">
<title>Node7&#45;&gt;Node11</title>
<g id="a_edge13_Node000007_Node000011"><a xlink:title=" ">
<path fill="none" stroke="#63b8ff" d="M544.44,-181.16C554.04,-171.44 569.55,-155.19 581.52,-140 596.38,-121.16 611.46,-98.02 621.11,-82.57"/>
<polygon fill="#63b8ff" stroke="#63b8ff" points="624.1,-84.41 626.38,-74.06 618.14,-80.73 624.1,-84.41"/>
</a>
</g>
</g>
<!-- Node12 -->
<g id="Node000012" class="node">
<title>Node12</title>
<g id="a_Node000012"><a xlink:title=" ">
<polygon fill="#e0e0e0" stroke="#999999" points="265.02,-74 218.02,-74 218.02,-55 265.02,-55 265.02,-74"/>
<text text-anchor="middle" x="241.52" y="-62" font-family="Helvetica,sans-Serif" font-size="10.00">vector</text>
</a>
</g>
</g>
<!-- Node7&#45;&gt;Node12 -->
<g id="edge14_Node000007_Node000012" class="edge">
<title>Node7&#45;&gt;Node12</title>
<g id="a_edge14_Node000007_Node000012"><a xlink:title=" ">
<path fill="none" stroke="#63b8ff" d="M492.91,-181.49C457.66,-173.52 406.85,-159.84 365.52,-140 344.52,-129.91 342.32,-122.29 322.52,-110 304.41,-98.75 283.27,-87.18 267.13,-78.67"/>
<polygon fill="#63b8ff" stroke="#63b8ff" points="268.75,-75.56 258.26,-74.03 265.5,-81.77 268.75,-75.56"/>
</a>
</g>
</g>
<!-- Node7&#45;&gt;Node13 -->
<g id="edge15_Node000007_Node000013" class="edge">
<title>Node7&#45;&gt;Node13</title>
<g id="a_edge15_Node000007_Node000013"><a xlink:title=" ">
<path fill="none" stroke="#63b8ff" d="M561.28,-181.37C594.84,-170.12 653.66,-150.42 691.31,-137.8"/>
<polygon fill="#63b8ff" stroke="#63b8ff" points="692.5,-141.09 700.87,-134.6 690.28,-134.46 692.5,-141.09"/>
</a>
</g>
</g>
<!-- Node15 -->
<g id="Node000015" class="node">
<title>Node15</title>
<g id="a_Node000015"><a xlink:href="LogSink_8ixx.html" target="_top" xlink:title="Abstract interface for log output destinations.">
<polygon fill="white" stroke="#666666" points="867.52,-74 743.52,-74 743.52,-55 867.52,-55 867.52,-74"/>
<text text-anchor="middle" x="805.52" y="-62" font-family="Helvetica,sans-Serif" font-size="10.00">helios.util.log.LogSink</text>
</a>
</g>
</g>
<!-- Node7&#45;&gt;Node15 -->
<g id="edge23_Node000007_Node000015" class="edge">
<title>Node7&#45;&gt;Node15</title>
<g id="a_edge23_Node000007_Node000015"><a xlink:title=" ">
<path fill="none" stroke="#63b8ff" d="M547.58,-181.45C573.63,-163.08 634.68,-120.65 657.52,-110 689.07,-95.3 726.64,-84.07 756.03,-76.57"/>
<polygon fill="#63b8ff" stroke="#63b8ff" points="757.21,-79.88 766.07,-74.07 755.52,-73.09 757.21,-79.88"/>
</a>
</g>
</g>
<!-- Node13&#45;&gt;Node2 -->
<g id="edge19_Node000013_Node000002" class="edge">
<title>Node13&#45;&gt;Node2</title>
<g id="a_edge19_Node000013_Node000002"><a xlink:title=" ">
<path fill="none" stroke="#63b8ff" d="M666.91,-118.24C640.72,-115.71 609.59,-112.71 581.52,-110 415.75,-94 373.9,-93.69 208.52,-74 201.79,-73.2 194.63,-72.26 187.71,-71.31"/>
<polygon fill="#63b8ff" stroke="#63b8ff" points="188.18,-67.84 177.79,-69.91 187.2,-74.77 188.18,-67.84"/>
</a>
</g>
</g>
<!-- Node13&#45;&gt;Node8 -->
<g id="edge17_Node000013_Node000008" class="edge">
<title>Node13&#45;&gt;Node8</title>
<g id="a_edge17_Node000013_Node000008"><a xlink:title=" ">
<path fill="none" stroke="#63b8ff" d="M724.74,-115.18C722.37,-100.78 720.02,-72.11 734.52,-55 764.64,-19.49 821.03,-11.34 856.86,-9.98"/>
<polygon fill="#63b8ff" stroke="#63b8ff" points="857.34,-13.47 867.27,-9.76 857.19,-6.47 857.34,-13.47"/>
</a>
</g>
</g>
<!-- Node13&#45;&gt;Node11 -->
<g id="edge20_Node000013_Node000011" class="edge">
<title>Node13&#45;&gt;Node11</title>
<g id="a_edge20_Node000013_Node000011"><a xlink:title=" ">
<path fill="none" stroke="#63b8ff" d="M712.51,-115.37C697.21,-105.95 672.49,-90.73 654.38,-79.58"/>
<polygon fill="#63b8ff" stroke="#63b8ff" points="655.95,-76.43 645.6,-74.17 652.28,-82.39 655.95,-76.43"/>
</a>
</g>
</g>
<!-- Node13&#45;&gt;Node12 -->
<g id="edge18_Node000013_Node000012" class="edge">
<title>Node13&#45;&gt;Node12</title>
<g id="a_edge18_Node000013_Node000012"><a xlink:title=" ">
<path fill="none" stroke="#63b8ff" d="M666.57,-116.77C563.6,-104.35 356.43,-79.36 275.25,-69.57"/>
<polygon fill="#63b8ff" stroke="#63b8ff" points="275.44,-66.07 265.1,-68.34 274.61,-73.02 275.44,-66.07"/>
</a>
</g>
</g>
<!-- Node14 -->
<g id="Node000014" class="node">
<title>Node14</title>
<g id="a_Node000014"><a xlink:title=" ">
<polygon fill="#e0e0e0" stroke="#999999" points="945.52,-74 885.52,-74 885.52,-55 945.52,-55 945.52,-74"/>
<text text-anchor="middle" x="915.52" y="-62" font-family="Helvetica,sans-Serif" font-size="10.00">iostream</text>
</a>
</g>
</g>
<!-- Node13&#45;&gt;Node14 -->
<g id="edge16_Node000013_Node000014" class="edge">
<title>Node13&#45;&gt;Node14</title>
<g id="a_edge16_Node000013_Node000014"><a xlink:title=" ">
<path fill="none" stroke="#63b8ff" d="M754.01,-115.49C786.76,-105.36 841.64,-88.37 878.21,-77.05"/>
<polygon fill="#63b8ff" stroke="#63b8ff" points="879.49,-80.32 888.01,-74.02 877.42,-73.63 879.49,-80.32"/>
</a>
</g>
</g>
<!-- Node13&#45;&gt;Node15 -->
<g id="edge21_Node000013_Node000015" class="edge">
<title>Node13&#45;&gt;Node15</title>
<g id="a_edge21_Node000013_Node000015"><a xlink:title=" ">
<path fill="none" stroke="#63b8ff" d="M738.18,-115.37C750.67,-106.12 770.7,-91.28 785.68,-80.19"/>
<polygon fill="#63b8ff" stroke="#63b8ff" points="787.87,-82.93 793.82,-74.17 783.7,-77.31 787.87,-82.93"/>
</a>
</g>
</g>
<!-- Node15&#45;&gt;Node8 -->
<g id="edge22_Node000015_Node000008" class="edge">
<title>Node15&#45;&gt;Node8</title>
<g id="a_edge22_Node000015_Node000008"><a xlink:title=" ">
<path fill="none" stroke="#63b8ff" d="M819.02,-54.98C831.92,-46.84 851.63,-34.41 866.93,-24.76"/>
<polygon fill="#63b8ff" stroke="#63b8ff" points="869.19,-27.47 875.78,-19.17 865.46,-21.55 869.19,-27.47"/>
</a>
</g>
</g>
<!-- Node16&#45;&gt;Node3 -->
<g id="edge29_Node000016_Node000003" class="edge">
<title>Node16&#45;&gt;Node3</title>
<g id="a_edge29_Node000016_Node000003"><a xlink:title=" ">
<path fill="none" stroke="#63b8ff" d="M1311.59,-175.95C1271.27,-164.38 1214.82,-148.18 1177.27,-137.41"/>
<polygon fill="#63b8ff" stroke="#63b8ff" points="1177.78,-133.91 1167.2,-134.52 1175.85,-140.64 1177.78,-133.91"/>
</a>
</g>
</g>
<!-- Node16&#45;&gt;Node5 -->
<g id="edge27_Node000016_Node000005" class="edge">
<title>Node16&#45;&gt;Node5</title>
<g id="a_edge27_Node000016_Node000005"><a xlink:title=" ">
<path fill="none" stroke="#63b8ff" d="M1399.84,-175.92C1427.48,-165.98 1465.31,-152.3 1498.52,-140 1500.12,-139.41 1501.75,-138.8 1503.4,-138.19"/>
<polygon fill="#63b8ff" stroke="#63b8ff" points="1504.71,-141.43 1512.85,-134.64 1502.25,-134.88 1504.71,-141.43"/>
</a>
</g>
</g>
<!-- Node17 -->
<g id="Node000017" class="node">
<title>Node17</title>
<g id="a_Node000017"><a xlink:title=" ">
<polygon fill="#e0e0e0" stroke="#999999" points="1489.52,-134.5 1447.52,-134.5 1447.52,-115.5 1489.52,-115.5 1489.52,-134.5"/>
<text text-anchor="middle" x="1468.52" y="-122.5" font-family="Helvetica,sans-Serif" font-size="10.00">array</text>
</a>
</g>
</g>
<!-- Node16&#45;&gt;Node17 -->
<g id="edge26_Node000016_Node000017" class="edge">
<title>Node16&#45;&gt;Node17</title>
<g id="a_edge26_Node000016_Node000017"><a xlink:title=" ">
<path fill="none" stroke="#63b8ff" d="M1384.23,-175.95C1402.41,-165.18 1427.39,-150.38 1445.42,-139.69"/>
<polygon fill="#63b8ff" stroke="#63b8ff" points="1447.33,-142.63 1454.15,-134.52 1443.76,-136.6 1447.33,-142.63"/>
</a>
</g>
</g>
<!-- Node18 -->
<g id="Node000018" class="node">
<title>Node18</title>
<g id="a_Node000018"><a xlink:title=" ">
<polygon fill="#e0e0e0" stroke="#999999" points="1277.02,-134.5 1226.02,-134.5 1226.02,-115.5 1277.02,-115.5 1277.02,-134.5"/>
<text text-anchor="middle" x="1251.52" y="-122.5" font-family="Helvetica,sans-Serif" font-size="10.00">variant</text>
</a>
</g>
</g>
<!-- Node16&#45;&gt;Node18 -->
<g id="edge28_Node000016_Node000018" class="edge">
<title>Node16&#45;&gt;Node18</title>
<g id="a_edge28_Node000016_Node000018"><a xlink:title=" ">
<path fill="none" stroke="#63b8ff" d="M1336.6,-175.95C1318.25,-165.18 1293.04,-150.38 1274.84,-139.69"/>
<polygon fill="#63b8ff" stroke="#63b8ff" points="1276.43,-136.56 1266.03,-134.52 1272.88,-142.6 1276.43,-136.56"/>
</a>
</g>
</g>
<!-- Node19 -->
<g id="Node000019" class="node">
<title>Node19</title>
<g id="a_Node000019"><a xlink:href="UniformSemantics_8ixx.html" target="_top" xlink:title="Definitions of uniform semantics used by shaders.">
<polygon fill="white" stroke="#666666" points="1429.52,-140 1295.52,-140 1295.52,-110 1429.52,-110 1429.52,-140"/>
<text text-anchor="start" x="1303.52" y="-128" font-family="Helvetica,sans-Serif" font-size="10.00">helios.rendering.shader.</text>
<text text-anchor="middle" x="1362.52" y="-117" font-family="Helvetica,sans-Serif" font-size="10.00">UniformSemantics</text>
</a>
</g>
</g>
<!-- Node16&#45;&gt;Node19 -->
<g id="edge30_Node000016_Node000019" class="edge">
<title>Node16&#45;&gt;Node19</title>
<g id="a_edge30_Node000016_Node000019"><a xlink:title=" ">
<path fill="none" stroke="#63b8ff" d="M1360.97,-175.8C1361.2,-168.34 1361.49,-158.99 1361.76,-150.41"/>
<polygon fill="#63b8ff" stroke="#63b8ff" points="1365.27,-150.27 1362.08,-140.16 1358.27,-150.05 1365.27,-150.27"/>
</a>
</g>
</g>
<!-- Node20&#45;&gt;Node3 -->
<g id="edge35_Node000020_Node000003" class="edge">
<title>Node20&#45;&gt;Node3</title>
<g id="a_edge35_Node000020_Node000003"><a xlink:title=" ">
<path fill="none" stroke="#63b8ff" d="M1425.43,-243.24C1382.61,-235.18 1329.84,-223.03 1284.52,-206 1237.36,-188.28 1186.65,-157.86 1158.83,-140.08"/>
<polygon fill="#63b8ff" stroke="#63b8ff" points="1160.61,-137.06 1150.31,-134.57 1156.81,-142.94 1160.61,-137.06"/>
</a>
</g>
</g>
<!-- Node20&#45;&gt;Node5 -->
<g id="edge32_Node000020_Node000005" class="edge">
<title>Node20&#45;&gt;Node5</title>
<g id="a_edge32_Node000020_Node000005"><a xlink:title=" ">
<path fill="none" stroke="#63b8ff" d="M1510.57,-241.84C1515.66,-218.23 1525.87,-170.83 1531.52,-144.58"/>
<polygon fill="#63b8ff" stroke="#63b8ff" points="1534.96,-145.26 1533.64,-134.75 1528.11,-143.79 1534.96,-145.26"/>
</a>
</g>
</g>
<!-- Node20&#45;&gt;Node16 -->
<g id="edge34_Node000020_Node000016" class="edge">
<title>Node20&#45;&gt;Node16</title>
<g id="a_edge34_Node000020_Node000016"><a xlink:title=" ">
<path fill="none" stroke="#63b8ff" d="M1475.26,-241.95C1453.72,-232.58 1425.19,-220.16 1401.97,-210.05"/>
<polygon fill="#63b8ff" stroke="#63b8ff" points="1403.27,-206.8 1392.71,-206.01 1400.48,-213.21 1403.27,-206.8"/>
</a>
</g>
</g>
<!-- Node20&#45;&gt;Node19 -->
<g id="edge33_Node000020_Node000019" class="edge">
<title>Node20&#45;&gt;Node19</title>
<g id="a_edge33_Node000020_Node000019"><a xlink:title=" ">
<path fill="none" stroke="#63b8ff" d="M1496.68,-241.73C1483.51,-224.92 1460.13,-196.68 1436.52,-176 1423.8,-164.85 1408.48,-154.12 1395.09,-145.48"/>
<polygon fill="#63b8ff" stroke="#63b8ff" points="1396.94,-142.51 1386.62,-140.12 1393.2,-148.43 1396.94,-142.51"/>
</a>
</g>
</g>
<!-- Node21&#45;&gt;Node2 -->
<g id="edge37_Node000021_Node000002" class="edge">
<title>Node21&#45;&gt;Node2</title>
<g id="a_edge37_Node000021_Node000002"><a xlink:title=" ">
<path fill="none" stroke="#63b8ff" d="M398.71,-362.96C329.07,-350.7 209.16,-323.65 118.52,-272 81.09,-250.67 74.35,-239.71 47.52,-206 18.95,-170.09 -17.53,-147.07 9.52,-110 32.17,-78.97 76.74,-69.09 109.32,-66.19"/>
<polygon fill="#63b8ff" stroke="#63b8ff" points="109.71,-69.67 119.44,-65.47 109.22,-62.68 109.71,-69.67"/>
</a>
</g>
</g>
<!-- Node22 -->
<g id="Node000022" class="node">
<title>Node22</title>
<g id="a_Node000022"><a xlink:href="Mesh_8ixx.html" target="_top" xlink:title="Mesh abstraction: immutable vertex/index data and configuration.">
<polygon fill="white" stroke="#666666" points="539.52,-327 381.52,-327 381.52,-308 539.52,-308 539.52,-327"/>
<text text-anchor="middle" x="460.52" y="-315" font-family="Helvetica,sans-Serif" font-size="10.00">helios.rendering.model.Mesh</text>
</a>
</g>
</g>
<!-- Node21&#45;&gt;Node22 -->
<g id="edge38_Node000021_Node000022" class="edge">
<title>Node21&#45;&gt;Node22</title>
<g id="a_edge38_Node000021_Node000022"><a xlink:title=" ">
<path fill="none" stroke="#63b8ff" d="M456.35,-362.75C457.01,-355.8 457.94,-345.85 458.77,-337.13"/>
<polygon fill="#63b8ff" stroke="#63b8ff" points="462.26,-337.37 459.71,-327.09 455.29,-336.72 462.26,-337.37"/>
</a>
</g>
</g>
<!-- Node27 -->
<g id="Node000027" class="node">
<title>Node27</title>
<g id="a_Node000027"><a xlink:href="Material_8ixx.html" target="_top" xlink:title="Material abstraction: shader + material properties.">
<polygon fill="white" stroke="#666666" points="953.02,-327 780.02,-327 780.02,-308 953.02,-308 953.02,-327"/>
<text text-anchor="middle" x="866.52" y="-315" font-family="Helvetica,sans-Serif" font-size="10.00">helios.rendering.model.Material</text>
</a>
</g>
</g>
<!-- Node21&#45;&gt;Node27 -->
<g id="edge54_Node000021_Node000027" class="edge">
<title>Node21&#45;&gt;Node27</title>
<g id="a_edge54_Node000021_Node000027"><a xlink:title=" ">
<path fill="none" stroke="#63b8ff" d="M521.56,-362.98C594.85,-353.53 712.96,-338.3 790.17,-328.35"/>
<polygon fill="#63b8ff" stroke="#63b8ff" points="790.84,-331.79 800.31,-327.04 789.95,-324.85 790.84,-331.79"/>
</a>
</g>
</g>
<!-- Node22&#45;&gt;Node2 -->
<g id="edge39_Node000022_Node000002" class="edge">
<title>Node22&#45;&gt;Node2</title>
<g id="a_edge39_Node000022_Node000002"><a xlink:title=" ">
<path fill="none" stroke="#63b8ff" d="M381.29,-316.97C296.31,-315.59 169.39,-307.42 138.52,-272 91.56,-218.09 123.74,-123.05 140.33,-83.53"/>
<polygon fill="#63b8ff" stroke="#63b8ff" points="143.55,-84.89 144.34,-74.33 137.13,-82.1 143.55,-84.89"/>
</a>
</g>
</g>
<!-- Node22&#45;&gt;Node3 -->
<g id="edge53_Node000022_Node000003" class="edge">
<title>Node22&#45;&gt;Node3</title>
<g id="a_edge53_Node000022_Node000003"><a xlink:title=" ">
<path fill="none" stroke="#63b8ff" d="M539.67,-314.9C692.93,-311.17 1018.95,-300.04 1061.52,-272 1106.78,-242.19 1126.69,-176.43 1133.97,-144.34"/>
<polygon fill="#63b8ff" stroke="#63b8ff" points="1137.41,-145.01 1136.04,-134.5 1130.56,-143.57 1137.41,-145.01"/>
</a>
</g>
</g>
<!-- Node22&#45;&gt;Node6 -->
<g id="edge40_Node000022_Node000006" class="edge">
<title>Node22&#45;&gt;Node6</title>
<g id="a_edge40_Node000022_Node000006"><a xlink:title=" ">
<path fill="none" stroke="#63b8ff" d="M496.88,-307.99C542.27,-297.37 619.78,-279.23 667.91,-267.97"/>
<polygon fill="#63b8ff" stroke="#63b8ff" points="668.78,-271.36 677.72,-265.68 667.18,-264.55 668.78,-271.36"/>
</a>
</g>
</g>
<!-- Node22&#45;&gt;Node7 -->
<g id="edge43_Node000022_Node000007" class="edge">
<title>Node22&#45;&gt;Node7</title>
<g id="a_edge43_Node000022_Node000007"><a xlink:title=" ">
<path fill="none" stroke="#63b8ff" d="M476.49,-307.86C489.26,-300.13 506.6,-287.61 516.52,-272 528.35,-253.4 532.82,-228.14 534.51,-211.02"/>
<polygon fill="#63b8ff" stroke="#63b8ff" points="538.03,-210.88 535.29,-200.65 531.05,-210.36 538.03,-210.88"/>
</a>
</g>
</g>
<!-- Node22&#45;&gt;Node12 -->
<g id="edge41_Node000022_Node000012" class="edge">
<title>Node22&#45;&gt;Node12</title>
<g id="a_edge41_Node000022_Node000012"><a xlink:title=" ">
<path fill="none" stroke="#63b8ff" d="M381.31,-316.19C301.13,-313.99 185.04,-304.99 156.52,-272 105.4,-212.85 187.56,-118.75 224.75,-81.47"/>
<polygon fill="#63b8ff" stroke="#63b8ff" points="227.26,-83.91 231.94,-74.41 222.35,-78.92 227.26,-83.91"/>
</a>
</g>
</g>
<!-- Node22&#45;&gt;Node13 -->
<g id="edge42_Node000022_Node000013" class="edge">
<title>Node22&#45;&gt;Node13</title>
<g id="a_edge42_Node000022_Node000013"><a xlink:title=" ">
<path fill="none" stroke="#63b8ff" d="M476.85,-307.93C492.71,-299.39 517.3,-285.64 537.52,-272 595.02,-233.22 605.55,-218.27 660.52,-176 675.89,-164.18 693.39,-150.94 706.5,-141.05"/>
<polygon fill="#63b8ff" stroke="#63b8ff" points="708.92,-143.61 714.8,-134.8 704.71,-138.02 708.92,-143.61"/>
</a>
</g>
</g>
<!-- Node23 -->
<g id="Node000023" class="node">
<title>Node23</title>
<g id="a_Node000023"><a xlink:href="Shape_8ixx.html" target="_top" xlink:title="Interface for simple geometric shapes used for testing and debugging.">
<polygon fill="white" stroke="#666666" points="325.52,-272 165.52,-272 165.52,-242 325.52,-242 325.52,-272"/>
<text text-anchor="start" x="173.52" y="-260" font-family="Helvetica,sans-Serif" font-size="10.00">helios.rendering.asset.shape.</text>
<text text-anchor="middle" x="245.52" y="-249" font-family="Helvetica,sans-Serif" font-size="10.00">Shape</text>
</a>
</g>
</g>
<!-- Node22&#45;&gt;Node23 -->
<g id="edge44_Node000022_Node000023" class="edge">
<title>Node22&#45;&gt;Node23</title>
<g id="a_edge44_Node000022_Node000023"><a xlink:title=" ">
<path fill="none" stroke="#63b8ff" d="M429.26,-307.99C397.31,-299.3 346.83,-285.57 306.87,-274.69"/>
<polygon fill="#63b8ff" stroke="#63b8ff" points="307.78,-271.31 297.21,-272.06 305.94,-278.07 307.78,-271.31"/>
</a>
</g>
</g>
<!-- Node25 -->
<g id="Node000025" class="node">
<title>Node25</title>
<g id="a_Node000025"><a xlink:href="Vertex_8ixx.html" target="_top" xlink:title="Vertex description and utilities for rendering.">
<polygon fill="white" stroke="#666666" points="1073.52,-200.5 943.52,-200.5 943.52,-181.5 1073.52,-181.5 1073.52,-200.5"/>
<text text-anchor="middle" x="1008.52" y="-188.5" font-family="Helvetica,sans-Serif" font-size="10.00">helios.rendering.Vertex</text>
</a>
</g>
</g>
<!-- Node22&#45;&gt;Node25 -->
<g id="edge52_Node000022_Node000025" class="edge">
<title>Node22&#45;&gt;Node25</title>
<g id="a_edge52_Node000022_Node000025"><a xlink:title=" ">
<path fill="none" stroke="#63b8ff" d="M539.69,-313.28C695.13,-306.57 1026.65,-290.21 1043.52,-272 1060.59,-253.58 1040.92,-225.51 1024.91,-207.98"/>
<polygon fill="#63b8ff" stroke="#63b8ff" points="1027.41,-205.53 1017.95,-200.75 1022.36,-210.38 1027.41,-205.53"/>
</a>
</g>
</g>
<!-- Node26 -->
<g id="Node000026" class="node">
<title>Node26</title>
<g id="a_Node000026"><a xlink:href="MeshConfig_8ixx.html" target="_top" xlink:title="Mesh configuration including primitive type.">
<polygon fill="white" stroke="#666666" points="507.52,-272 343.52,-272 343.52,-242 507.52,-242 507.52,-272"/>
<text text-anchor="start" x="351.52" y="-260" font-family="Helvetica,sans-Serif" font-size="10.00">helios.rendering.model.config.</text>
<text text-anchor="middle" x="425.52" y="-249" font-family="Helvetica,sans-Serif" font-size="10.00">MeshConfig</text>
</a>
</g>
</g>
<!-- Node22&#45;&gt;Node26 -->
<g id="edge50_Node000022_Node000026" class="edge">
<title>Node22&#45;&gt;Node26</title>
<g id="a_edge50_Node000022_Node000026"><a xlink:title=" ">
<path fill="none" stroke="#63b8ff" d="M455.36,-307.87C451.09,-300.74 444.84,-290.28 439.16,-280.79"/>
<polygon fill="#63b8ff" stroke="#63b8ff" points="442.11,-278.9 433.97,-272.11 436.1,-282.49 442.11,-278.9"/>
</a>
</g>
</g>
<!-- Node23&#45;&gt;Node2 -->
<g id="edge45_Node000023_Node000002" class="edge">
<title>Node23&#45;&gt;Node2</title>
<g id="a_edge45_Node000023_Node000002"><a xlink:title=" ">
<path fill="none" stroke="#63b8ff" d="M238.39,-241.99C221.12,-208.06 177.03,-121.49 157.77,-83.66"/>
<polygon fill="#63b8ff" stroke="#63b8ff" points="160.69,-81.68 153.04,-74.36 154.46,-84.86 160.69,-81.68"/>
</a>
</g>
</g>
<!-- Node23&#45;&gt;Node12 -->
<g id="edge46_Node000023_Node000012" class="edge">
<title>Node23&#45;&gt;Node12</title>
<g id="a_edge46_Node000023_Node000012"><a xlink:title=" ">
<path fill="none" stroke="#63b8ff" d="M241.15,-241.72C238.35,-231.81 234.97,-218.23 233.52,-206 228.37,-162.48 234.37,-110.97 238.42,-84.03"/>
<polygon fill="#63b8ff" stroke="#63b8ff" points="241.89,-84.51 240,-74.08 234.97,-83.41 241.89,-84.51"/>
</a>
</g>
</g>
<!-- Node24 -->
<g id="Node000024" class="node">
<title>Node24</title>
<g id="a_Node000024"><a xlink:href="PrimitiveType_8ixx.html" target="_top" xlink:title="Enum of primitive types for mesh rendering.">
<polygon fill="white" stroke="#666666" points="406.52,-206 242.52,-206 242.52,-176 406.52,-176 406.52,-206"/>
<text text-anchor="start" x="250.52" y="-194" font-family="Helvetica,sans-Serif" font-size="10.00">helios.rendering.model.config.</text>
<text text-anchor="middle" x="324.52" y="-183" font-family="Helvetica,sans-Serif" font-size="10.00">PrimitiveType</text>
</a>
</g>
</g>
<!-- Node23&#45;&gt;Node24 -->
<g id="edge47_Node000023_Node000024" class="edge">
<title>Node23&#45;&gt;Node24</title>
<g id="a_edge47_Node000023_Node000024"><a xlink:title=" ">
<path fill="none" stroke="#63b8ff" d="M263.06,-241.8C273.69,-233.18 287.45,-222.04 299.25,-212.48"/>
<polygon fill="#63b8ff" stroke="#63b8ff" points="301.47,-215.18 307.04,-206.16 297.07,-209.74 301.47,-215.18"/>
</a>
</g>
</g>
<!-- Node23&#45;&gt;Node25 -->
<g id="edge48_Node000023_Node000025" class="edge">
<title>Node23&#45;&gt;Node25</title>
<g id="a_edge48_Node000023_Node000025"><a xlink:title=" ">
<path fill="none" stroke="#63b8ff" d="M325.54,-243.1C328.57,-242.71 331.57,-242.34 334.52,-242 551.07,-216.98 808.27,-201.94 933.08,-195.57"/>
<polygon fill="#63b8ff" stroke="#63b8ff" points="933.48,-199.06 943.29,-195.06 933.13,-192.07 933.48,-199.06"/>
</a>
</g>
</g>
<!-- Node25&#45;&gt;Node3 -->
<g id="edge49_Node000025_Node000003" class="edge">
<title>Node25&#45;&gt;Node3</title>
<g id="a_edge49_Node000025_Node000003"><a xlink:title=" ">
<path fill="none" stroke="#63b8ff" d="M1025.92,-181.37C1047.75,-170.54 1085.41,-151.85 1110.88,-139.22"/>
<polygon fill="#63b8ff" stroke="#63b8ff" points="1112.59,-142.28 1119.99,-134.7 1109.48,-136.01 1112.59,-142.28"/>
</a>
</g>
</g>
<!-- Node26&#45;&gt;Node24 -->
<g id="edge51_Node000026_Node000024" class="edge">
<title>Node26&#45;&gt;Node24</title>
<g id="a_edge51_Node000026_Node000024"><a xlink:title=" ">
<path fill="none" stroke="#63b8ff" d="M403.11,-241.8C389.12,-232.93 370.91,-221.39 355.54,-211.66"/>
<polygon fill="#63b8ff" stroke="#63b8ff" points="357.2,-208.56 346.88,-206.16 353.45,-214.47 357.2,-208.56"/>
</a>
</g>
</g>
<!-- Node27&#45;&gt;Node2 -->
<g id="edge55_Node000027_Node000002" class="edge">
<title>Node27&#45;&gt;Node2</title>
<g id="a_edge55_Node000027_Node000002"><a xlink:title=" ">
<path fill="none" stroke="#63b8ff" d="M850.45,-307.86C834.82,-299.28 810.56,-285.49 790.52,-272 772.39,-259.78 771.77,-250.27 751.52,-242 628.03,-191.53 576.7,-257.24 453.52,-206 433.66,-197.73 434.73,-185.71 415.52,-176 361.64,-148.75 340.49,-162.66 284.52,-140 242.52,-122.99 196.95,-96.14 170.67,-79.74"/>
<polygon fill="#63b8ff" stroke="#63b8ff" points="172.23,-76.59 161.9,-74.21 168.49,-82.51 172.23,-76.59"/>
</a>
</g>
</g>
<!-- Node27&#45;&gt;Node6 -->
<g id="edge56_Node000027_Node000006" class="edge">
<title>Node27&#45;&gt;Node6</title>
<g id="a_edge56_Node000027_Node000006"><a xlink:title=" ">
<path fill="none" stroke="#63b8ff" d="M843.84,-307.99C817.27,-298.03 773.05,-281.45 742.88,-270.13"/>
<polygon fill="#63b8ff" stroke="#63b8ff" points="743.83,-266.75 733.24,-266.52 741.37,-273.31 743.83,-266.75"/>
</a>
</g>
</g>
<!-- Node27&#45;&gt;Node16 -->
<g id="edge73_Node000027_Node000016" class="edge">
<title>Node27&#45;&gt;Node16</title>
<g id="a_edge73_Node000027_Node000016"><a xlink:title=" ">
<path fill="none" stroke="#63b8ff" d="M953.17,-313.72C1081.95,-308.79 1311.84,-296.64 1340.52,-272 1356.34,-258.42 1360.63,-234.41 1361.4,-216.22"/>
<polygon fill="#63b8ff" stroke="#63b8ff" points="1364.9,-216.09 1361.49,-206.06 1357.9,-216.02 1364.9,-216.09"/>
</a>
</g>
</g>
<!-- Node28 -->
<g id="Node000028" class="node">
<title>Node28</title>
<g id="a_Node000028"><a xlink:href="helios_2util_2log_2__module_8ixx.html" target="_top" xlink:title="Module exports for logging.">
<polygon fill="white" stroke="#666666" points="1035.02,-266.5 952.02,-266.5 952.02,-247.5 1035.02,-247.5 1035.02,-266.5"/>
<text text-anchor="middle" x="993.52" y="-254.5" font-family="Helvetica,sans-Serif" font-size="10.00">helios.util.log</text>
</a>
</g>
</g>
<!-- Node27&#45;&gt;Node28 -->
<g id="edge57_Node000027_Node000028" class="edge">
<title>Node27&#45;&gt;Node28</title>
<g id="a_edge57_Node000027_Node000028"><a xlink:title=" ">
<path fill="none" stroke="#63b8ff" d="M884.99,-307.99C906.25,-298.2 941.38,-282.02 965.89,-270.73"/>
<polygon fill="#63b8ff" stroke="#63b8ff" points="967.42,-273.88 975.04,-266.52 964.49,-267.52 967.42,-273.88"/>
</a>
</g>
</g>
<!-- Node30 -->
<g id="Node000030" class="node">
<title>Node30</title>
<g id="a_Node000030"><a xlink:href="MaterialProperties_8ixx.html" target="_top" xlink:title="Default material properties used by materials and instances.">
<polygon fill="white" stroke="#666666" points="1331.52,-272 1167.52,-272 1167.52,-242 1331.52,-242 1331.52,-272"/>
<text text-anchor="start" x="1175.52" y="-260" font-family="Helvetica,sans-Serif" font-size="10.00">helios.rendering.model.config.</text>
<text text-anchor="middle" x="1249.52" y="-249" font-family="Helvetica,sans-Serif" font-size="10.00">MaterialProperties</text>
</a>
</g>
</g>
<!-- Node27&#45;&gt;Node30 -->
<g id="edge65_Node000027_Node000030" class="edge">
<title>Node27&#45;&gt;Node30</title>
<g id="a_edge65_Node000027_Node000030"><a xlink:title=" ">
<path fill="none" stroke="#63b8ff" d="M922.22,-307.99C983.74,-298.6 1083.8,-283.31 1157.11,-272.11"/>
<polygon fill="#63b8ff" stroke="#63b8ff" points="1157.92,-275.53 1167.27,-270.56 1156.86,-268.61 1157.92,-275.53"/>
</a>
</g>
</g>
<!-- Node31 -->
<g id="Node000031" class="node">
<title>Node31</title>
<g id="a_Node000031"><a xlink:href="Shader_8ixx.html" target="_top" xlink:title="Abstraction for a compiled shader program.">
<polygon fill="white" stroke="#666666" points="933.52,-272 799.52,-272 799.52,-242 933.52,-242 933.52,-272"/>
<text text-anchor="start" x="807.52" y="-260" font-family="Helvetica,sans-Serif" font-size="10.00">helios.rendering.shader.</text>
<text text-anchor="middle" x="866.52" y="-249" font-family="Helvetica,sans-Serif" font-size="10.00">Shader</text>
</a>
</g>
</g>
<!-- Node27&#45;&gt;Node31 -->
<g id="edge69_Node000027_Node000031" class="edge">
<title>Node27&#45;&gt;Node31</title>
<g id="a_edge69_Node000027_Node000031"><a xlink:title=" ">
<path fill="none" stroke="#63b8ff" d="M866.52,-307.87C866.52,-301.11 866.52,-291.35 866.52,-282.26"/>
<polygon fill="#63b8ff" stroke="#63b8ff" points="870.02,-282.11 866.52,-272.11 863.02,-282.11 870.02,-282.11"/>
</a>
</g>
</g>
<!-- Node28&#45;&gt;Node7 -->
<g id="edge58_Node000028_Node000007" class="edge">
<title>Node28&#45;&gt;Node7</title>
<g id="a_edge58_Node000028_Node000007"><a xlink:title=" ">
<path fill="none" stroke="#63b8ff" d="M965.37,-247.48C957.99,-245.47 950,-243.48 942.52,-242 831.57,-220.08 701.58,-206.11 618.91,-198.66"/>
<polygon fill="#63b8ff" stroke="#63b8ff" points="619.09,-195.17 608.82,-197.77 618.47,-202.14 619.09,-195.17"/>
</a>
</g>
</g>
<!-- Node28&#45;&gt;Node13 -->
<g id="edge59_Node000028_Node000013" class="edge">
<title>Node28&#45;&gt;Node13</title>
<g id="a_edge59_Node000028_Node000013"><a xlink:title=" ">
<path fill="none" stroke="#63b8ff" d="M962.81,-247.46C956.13,-245.64 949.09,-243.73 942.52,-242 879.57,-225.38 856.49,-239.27 800.52,-206 773.53,-189.96 750.44,-161.09 737.53,-142.77"/>
<polygon fill="#63b8ff" stroke="#63b8ff" points="740.42,-140.79 731.89,-134.5 734.63,-144.74 740.42,-140.79"/>
</a>
</g>
</g>
<!-- Node28&#45;&gt;Node15 -->
<g id="edge64_Node000028_Node000015" class="edge">
<title>Node28&#45;&gt;Node15</title>
<g id="a_edge64_Node000028_Node000015"><a xlink:title=" ">
<path fill="none" stroke="#63b8ff" d="M975.11,-247.42C942.04,-231.1 872.45,-192.51 833.52,-140 820.96,-123.04 813.42,-99.8 809.38,-83.81"/>
<polygon fill="#63b8ff" stroke="#63b8ff" points="812.79,-83.01 807.13,-74.06 805.97,-84.59 812.79,-83.01"/>
</a>
</g>
</g>
<!-- Node29 -->
<g id="Node000029" class="node">
<title>Node29</title>
<g id="a_Node000029"><a xlink:href="ConsoleSink_8ixx.html" target="_top" xlink:title="Log sink that writes to stdout.">
<polygon fill="white" stroke="#666666" points="988.52,-134.5 842.52,-134.5 842.52,-115.5 988.52,-115.5 988.52,-134.5"/>
<text text-anchor="middle" x="915.52" y="-122.5" font-family="Helvetica,sans-Serif" font-size="10.00">helios.util.log.ConsoleSink</text>
</a>
</g>
</g>
<!-- Node28&#45;&gt;Node29 -->
<g id="edge60_Node000028_Node000029" class="edge">
<title>Node28&#45;&gt;Node29</title>
<g id="a_edge60_Node000028_Node000029"><a xlink:title=" ">
<path fill="none" stroke="#63b8ff" d="M978.83,-247.41C965.24,-238.7 945.55,-223.97 934.52,-206 923,-187.22 918.46,-162 916.68,-144.93"/>
<polygon fill="#63b8ff" stroke="#63b8ff" points="920.14,-144.28 915.83,-134.6 913.16,-144.85 920.14,-144.28"/>
</a>
</g>
</g>
<!-- Node29&#45;&gt;Node8 -->
<g id="edge62_Node000029_Node000008" class="edge">
<title>Node29&#45;&gt;Node8</title>
<g id="a_edge62_Node000029_Node000008"><a xlink:title=" ">
<path fill="none" stroke="#63b8ff" d="M926.6,-115.38C941.84,-102.4 966.14,-77.03 954.52,-55 947.29,-41.27 933.7,-30.97 920.81,-23.76"/>
<polygon fill="#63b8ff" stroke="#63b8ff" points="922.14,-20.51 911.65,-19.05 918.94,-26.73 922.14,-20.51"/>
</a>
</g>
</g>
<!-- Node29&#45;&gt;Node14 -->
<g id="edge61_Node000029_Node000014" class="edge">
<title>Node29&#45;&gt;Node14</title>
<g id="a_edge61_Node000029_Node000014"><a xlink:title=" ">
<path fill="none" stroke="#63b8ff" d="M915.52,-115.37C915.52,-107.25 915.52,-94.81 915.52,-84.39"/>
<polygon fill="#63b8ff" stroke="#63b8ff" points="919.02,-84.17 915.52,-74.17 912.02,-84.17 919.02,-84.17"/>
</a>
</g>
</g>
<!-- Node29&#45;&gt;Node15 -->
<g id="edge63_Node000029_Node000015" class="edge">
<title>Node29&#45;&gt;Node15</title>
<g id="a_edge63_Node000029_Node000015"><a xlink:title=" ">
<path fill="none" stroke="#63b8ff" d="M899.29,-115.37C881.26,-105.78 851.91,-90.17 830.85,-78.97"/>
<polygon fill="#63b8ff" stroke="#63b8ff" points="832.29,-75.77 821.82,-74.17 829.01,-81.95 832.29,-75.77"/>
</a>
</g>
</g>
<!-- Node30&#45;&gt;Node3 -->
<g id="edge68_Node000030_Node000003" class="edge">
<title>Node30&#45;&gt;Node3</title>
<g id="a_edge68_Node000030_Node000003"><a xlink:title=" ">
<path fill="none" stroke="#63b8ff" d="M1237.33,-241.84C1216.44,-217.6 1173.95,-168.28 1151.75,-142.51"/>
<polygon fill="#63b8ff" stroke="#63b8ff" points="1154.24,-140.04 1145.06,-134.75 1148.94,-144.61 1154.24,-140.04"/>
</a>
</g>
</g>
<!-- Node30&#45;&gt;Node16 -->
<g id="edge67_Node000030_Node000016" class="edge">
<title>Node30&#45;&gt;Node16</title>
<g id="a_edge67_Node000030_Node000016"><a xlink:title=" ">
<path fill="none" stroke="#63b8ff" d="M1273.88,-241.95C1289.5,-232.95 1309.98,-221.14 1327.1,-211.27"/>
<polygon fill="#63b8ff" stroke="#63b8ff" points="1329.31,-214.04 1336.22,-206.01 1325.81,-207.98 1329.31,-214.04"/>
</a>
</g>
</g>
<!-- Node30&#45;&gt;Node19 -->
<g id="edge66_Node000030_Node000019" class="edge">
<title>Node30&#45;&gt;Node19</title>
<g id="a_edge66_Node000030_Node000019"><a xlink:title=" ">
<path fill="none" stroke="#63b8ff" d="M1252.97,-241.92C1257.73,-224.79 1267.69,-195.72 1284.52,-176 1295.15,-163.56 1309.64,-153.11 1323.26,-145.03"/>
<polygon fill="#63b8ff" stroke="#63b8ff" points="1325.04,-148.04 1332.03,-140.07 1321.6,-141.95 1325.04,-148.04"/>
</a>
</g>
</g>
<!-- Node31&#45;&gt;Node7 -->
<g id="edge72_Node000031_Node000007" class="edge">
<title>Node31&#45;&gt;Node7</title>
<g id="a_edge72_Node000031_Node000007"><a xlink:title=" ">
<path fill="none" stroke="#63b8ff" d="M799.14,-242.97C737.27,-231.01 646.75,-213.51 589.51,-202.44"/>
<polygon fill="#63b8ff" stroke="#63b8ff" points="590.06,-198.98 579.58,-200.52 588.73,-205.85 590.06,-198.98"/>
</a>
</g>
</g>
<!-- Node31&#45;&gt;Node13 -->
<g id="edge71_Node000031_Node000013" class="edge">
<title>Node31&#45;&gt;Node13</title>
<g id="a_edge71_Node000031_Node000013"><a xlink:title=" ">
<path fill="none" stroke="#63b8ff" d="M817.83,-242C797.65,-234.15 775.32,-222.53 759.52,-206 743.1,-188.81 734.37,-162.3 730.1,-144.56"/>
<polygon fill="#63b8ff" stroke="#63b8ff" points="733.48,-143.62 727.94,-134.59 726.64,-145.1 733.48,-143.62"/>
</a>
</g>
</g>
<!-- Node31&#45;&gt;Node16 -->
<g id="edge70_Node000031_Node000016" class="edge">
<title>Node31&#45;&gt;Node16</title>
<g id="a_edge70_Node000031_Node000016"><a xlink:title=" ">
<path fill="none" stroke="#63b8ff" d="M933.62,-243.4C936.63,-242.91 939.61,-242.44 942.52,-242 1061.09,-224.01 1199.38,-208.54 1283.41,-199.75"/>
<polygon fill="#63b8ff" stroke="#63b8ff" points="1283.8,-203.23 1293.38,-198.71 1283.07,-196.27 1283.8,-203.23"/>
</a>
</g>
</g>
</g>
</svg>
