<?xml version="1.0" encoding="UTF-8" standalone="no"?>
<!DOCTYPE svg PUBLIC "-//W3C//DTD SVG 1.1//EN"
 "http://www.w3.org/Graphics/SVG/1.1/DTD/svg11.dtd">
<!-- Generated by graphviz version 2.43.0 (0)
 -->
<!-- Title: SpawnAmountProvider.ixx Pages: 1 -->
<svg width="2012pt" height="467pt"
 viewBox="0.00 0.00 2011.51 467.00" xmlns="http://www.w3.org/2000/svg" xmlns:xlink="http://www.w3.org/1999/xlink">
<g id="graph0" class="graph" transform="scale(1 1) rotate(0) translate(4 463)">
<title>SpawnAmountProvider.ixx</title>
<!-- Node1 -->
<g id="Node000001" class="node">
<title>Node1</title>
<g id="a_Node000001"><a xlink:title="Abstract interface for determining spawn quantity.">
<polygon fill="#999999" stroke="#666666" points="1775.5,-459 1630.5,-459 1630.5,-440 1775.5,-440 1775.5,-459"/>
<text text-anchor="middle" x="1703" y="-447" font-family="Helvetica,sans-Serif" font-size="10.00">SpawnAmountProvider.ixx</text>
</a>
</g>
</g>
<!-- Node2 -->
<g id="Node000002" class="node">
<title>Node2</title>
<g id="a_Node000002"><a xlink:href="UpdateContext_8ixx.html" target="_top" xlink:title="Context struct passed to components during per&#45;frame updates.">
<polygon fill="white" stroke="#666666" points="1272,-404 1116,-404 1116,-374 1272,-374 1272,-404"/>
<text text-anchor="start" x="1124" y="-392" font-family="Helvetica,sans-Serif" font-size="10.00">helios.engine.runtime.world.</text>
<text text-anchor="middle" x="1194" y="-381" font-family="Helvetica,sans-Serif" font-size="10.00">UpdateContext</text>
</a>
</g>
</g>
<!-- Node1&#45;&gt;Node2 -->
<g id="edge1_Node000001_Node000002" class="edge">
<title>Node1&#45;&gt;Node2</title>
<g id="a_edge1_Node000001_Node000002"><a xlink:title=" ">
<path fill="none" stroke="#63b8ff" d="M1630.34,-440.15C1538.59,-429.6 1380.84,-411.47 1282.26,-400.14"/>
<polygon fill="#63b8ff" stroke="#63b8ff" points="1282.65,-396.67 1272.31,-399 1281.85,-403.62 1282.65,-396.67"/>
</a>
</g>
</g>
<!-- Node36 -->
<g id="Node000036" class="node">
<title>Node36</title>
<g id="a_Node000036"><a xlink:href="GameObjectPoolId_8ixx.html" target="_top" xlink:title="Strongly&#45;typed identifier for GameObjectPool instances.">
<polygon fill="white" stroke="#666666" points="1902,-272 1768,-272 1768,-242 1902,-242 1902,-272"/>
<text text-anchor="start" x="1776" y="-260" font-family="Helvetica,sans-Serif" font-size="10.00">helios.engine.core.data.</text>
<text text-anchor="middle" x="1835" y="-249" font-family="Helvetica,sans-Serif" font-size="10.00">GameObjectPoolId</text>
</a>
</g>
</g>
<!-- Node1&#45;&gt;Node36 -->
<g id="edge64_Node000001_Node000036" class="edge">
<title>Node1&#45;&gt;Node36</title>
<g id="a_edge64_Node000001_Node000036"><a xlink:title=" ">
<path fill="none" stroke="#63b8ff" d="M1703.92,-439.7C1705.73,-425.18 1710.73,-395.68 1723,-374 1745.02,-335.09 1783.16,-299.58 1808.73,-278.37"/>
<polygon fill="#63b8ff" stroke="#63b8ff" points="1811.01,-281.03 1816.56,-272 1806.59,-275.6 1811.01,-281.03"/>
</a>
</g>
</g>
<!-- Node37 -->
<g id="Node000037" class="node">
<title>Node37</title>
<g id="a_Node000037"><a xlink:href="SpawnRuleState_8ixx.html" target="_top" xlink:title="Runtime state for a spawn rule.">
<polygon fill="white" stroke="#666666" points="1922.5,-404 1731.5,-404 1731.5,-374 1922.5,-374 1922.5,-404"/>
<text text-anchor="start" x="1739.5" y="-392" font-family="Helvetica,sans-Serif" font-size="10.00">helios.engine.runtime.spawn.policy.</text>
<text text-anchor="middle" x="1827" y="-381" font-family="Helvetica,sans-Serif" font-size="10.00">SpawnRuleState</text>
</a>
</g>
</g>
<!-- Node1&#45;&gt;Node37 -->
<g id="edge70_Node000001_Node000037" class="edge">
<title>Node1&#45;&gt;Node37</title>
<g id="a_edge70_Node000001_Node000037"><a xlink:title=" ">
<path fill="none" stroke="#63b8ff" d="M1721.03,-439.99C1738.43,-431.79 1765.34,-419.09 1787.69,-408.55"/>
<polygon fill="#63b8ff" stroke="#63b8ff" points="1789.4,-411.61 1796.95,-404.18 1786.41,-405.28 1789.4,-411.61"/>
</a>
</g>
</g>
<!-- Node3 -->
<g id="Node000003" class="node">
<title>Node3</title>
<g id="a_Node000003"><a xlink:title=" ">
<polygon fill="#e0e0e0" stroke="#999999" points="232,-19 192,-19 192,0 232,0 232,-19"/>
<text text-anchor="middle" x="212" y="-7" font-family="Helvetica,sans-Serif" font-size="10.00">span</text>
</a>
</g>
</g>
<!-- Node2&#45;&gt;Node3 -->
<g id="edge2_Node000002_Node000003" class="edge">
<title>Node2&#45;&gt;Node3</title>
<g id="a_edge2_Node000002_Node000003"><a xlink:title=" ">
<path fill="none" stroke="#63b8ff" d="M1115.66,-387.72C850.03,-385.74 0,-370.6 0,-258 0,-258 0,-258 0,-124 0,-42.64 122.84,-19.38 181.51,-12.91"/>
<polygon fill="#63b8ff" stroke="#63b8ff" points="182.07,-16.37 191.67,-11.88 181.37,-9.4 182.07,-16.37"/>
</a>
</g>
</g>
<!-- Node4 -->
<g id="Node000004" class="node">
<title>Node4</title>
<g id="a_Node000004"><a xlink:href="GameLoopEventBus_8ixx.html" target="_top" xlink:title="Type&#45;safe event bus for inter&#45;system communication within the game loop.">
<polygon fill="white" stroke="#666666" points="518.5,-338 305.5,-338 305.5,-308 518.5,-308 518.5,-338"/>
<text text-anchor="start" x="313.5" y="-326" font-family="Helvetica,sans-Serif" font-size="10.00">helios.engine.runtime.messaging.event.</text>
<text text-anchor="middle" x="412" y="-315" font-family="Helvetica,sans-Serif" font-size="10.00">GameLoopEventBus</text>
</a>
</g>
</g>
<!-- Node2&#45;&gt;Node4 -->
<g id="edge3_Node000002_Node000004" class="edge">
<title>Node2&#45;&gt;Node4</title>
<g id="a_edge3_Node000002_Node000004"><a xlink:title=" ">
<path fill="none" stroke="#63b8ff" d="M1115.8,-381.6C977.79,-370.31 690.37,-346.78 528.78,-333.56"/>
<polygon fill="#63b8ff" stroke="#63b8ff" points="529.05,-330.07 518.8,-332.74 528.48,-337.04 529.05,-330.07"/>
</a>
</g>
</g>
<!-- Node14 -->
<g id="Node000014" class="node">
<title>Node14</title>
<g id="a_Node000014"><a xlink:href="ViewportSnapshot_8ixx.html" target="_top" xlink:title="Immutable snapshot of viewport state for frame&#45;consistent rendering.">
<polygon fill="white" stroke="#666666" points="1543,-338 1401,-338 1401,-308 1543,-308 1543,-338"/>
<text text-anchor="start" x="1409" y="-326" font-family="Helvetica,sans-Serif" font-size="10.00">helios.rendering.Viewport</text>
<text text-anchor="middle" x="1472" y="-315" font-family="Helvetica,sans-Serif" font-size="10.00">Snapshot</text>
</a>
</g>
</g>
<!-- Node2&#45;&gt;Node14 -->
<g id="edge28_Node000002_Node000014" class="edge">
<title>Node2&#45;&gt;Node14</title>
<g id="a_edge28_Node000002_Node000014"><a xlink:title=" ">
<path fill="none" stroke="#63b8ff" d="M1255.01,-373.95C1298.1,-364.03 1355.98,-350.71 1401.12,-340.32"/>
<polygon fill="#63b8ff" stroke="#63b8ff" points="1402.17,-343.67 1411.13,-338.01 1400.6,-336.85 1402.17,-343.67"/>
</a>
</g>
</g>
<!-- Node22 -->
<g id="Node000022" class="node">
<title>Node22</title>
<g id="a_Node000022"><a xlink:href="InputSnapshot_8ixx.html" target="_top" xlink:title="Immutable snapshot of input state at a specific point in time.">
<polygon fill="white" stroke="#666666" points="1267,-332.5 1121,-332.5 1121,-313.5 1267,-313.5 1267,-332.5"/>
<text text-anchor="middle" x="1194" y="-320.5" font-family="Helvetica,sans-Serif" font-size="10.00">helios.input.InputSnapshot</text>
</a>
</g>
</g>
<!-- Node2&#45;&gt;Node22 -->
<g id="edge39_Node000002_Node000022" class="edge">
<title>Node2&#45;&gt;Node22</title>
<g id="a_edge39_Node000002_Node000022"><a xlink:title=" ">
<path fill="none" stroke="#63b8ff" d="M1194,-373.8C1194,-364.7 1194,-352.79 1194,-342.9"/>
<polygon fill="#63b8ff" stroke="#63b8ff" points="1197.5,-342.84 1194,-332.84 1190.5,-342.84 1197.5,-342.84"/>
</a>
</g>
</g>
<!-- Node5 -->
<g id="Node000005" class="node">
<title>Node5</title>
<g id="a_Node000005"><a xlink:href="TypeIndexedDoubleBuffer_8ixx.html" target="_top" xlink:title="Double&#45;buffered, type&#45;indexed message system for decoupled inter&#45;system communication.">
<polygon fill="white" stroke="#666666" points="494,-272 330,-272 330,-242 494,-242 494,-272"/>
<text text-anchor="start" x="338" y="-260" font-family="Helvetica,sans-Serif" font-size="10.00">helios.core.buffer.TypeIndexed</text>
<text text-anchor="middle" x="412" y="-249" font-family="Helvetica,sans-Serif" font-size="10.00">DoubleBuffer</text>
</a>
</g>
</g>
<!-- Node4&#45;&gt;Node5 -->
<g id="edge4_Node000004_Node000005" class="edge">
<title>Node4&#45;&gt;Node5</title>
<g id="a_edge4_Node000004_Node000005"><a xlink:title=" ">
<path fill="none" stroke="#63b8ff" d="M412,-307.8C412,-300.34 412,-290.99 412,-282.41"/>
<polygon fill="#63b8ff" stroke="#63b8ff" points="415.5,-282.16 412,-272.16 408.5,-282.16 415.5,-282.16"/>
</a>
</g>
</g>
<!-- Node12 -->
<g id="Node000012" class="node">
<title>Node12</title>
<g id="a_Node000012"><a xlink:href="TypeIndexer_8ixx.html" target="_top" xlink:title="Utility for generating unique type indices at runtime.">
<polygon fill="white" stroke="#666666" points="184,-200.5 28,-200.5 28,-181.5 184,-181.5 184,-200.5"/>
<text text-anchor="middle" x="106" y="-188.5" font-family="Helvetica,sans-Serif" font-size="10.00">helios.core.data.TypeIndexer</text>
</a>
</g>
</g>
<!-- Node4&#45;&gt;Node12 -->
<g id="edge27_Node000004_Node000012" class="edge">
<title>Node4&#45;&gt;Node12</title>
<g id="a_edge27_Node000004_Node000012"><a xlink:title=" ">
<path fill="none" stroke="#63b8ff" d="M378.96,-307.96C318.92,-282.46 192.82,-228.89 135.49,-204.53"/>
<polygon fill="#63b8ff" stroke="#63b8ff" points="136.83,-201.3 126.26,-200.61 134.1,-207.74 136.83,-201.3"/>
</a>
</g>
</g>
<!-- Node5&#45;&gt;Node3 -->
<g id="edge6_Node000005_Node000003" class="edge">
<title>Node5&#45;&gt;Node3</title>
<g id="a_edge6_Node000005_Node000003"><a xlink:title=" ">
<path fill="none" stroke="#63b8ff" d="M377.16,-241.86C357.61,-233.07 333.34,-220.65 314,-206 282.16,-181.88 275.91,-172.72 253,-140 234.07,-112.97 228.52,-105.59 219,-74 214.64,-59.53 212.94,-42.47 212.3,-29.68"/>
<polygon fill="#63b8ff" stroke="#63b8ff" points="215.79,-29.21 211.97,-19.33 208.79,-29.44 215.79,-29.21"/>
</a>
</g>
</g>
<!-- Node6 -->
<g id="Node000006" class="node">
<title>Node6</title>
<g id="a_Node000006"><a xlink:title=" ">
<polygon fill="#e0e0e0" stroke="#999999" points="735,-74 677,-74 677,-55 735,-55 735,-74"/>
<text text-anchor="middle" x="706" y="-62" font-family="Helvetica,sans-Serif" font-size="10.00">memory</text>
</a>
</g>
</g>
<!-- Node5&#45;&gt;Node6 -->
<g id="edge5_Node000005_Node000006" class="edge">
<title>Node5&#45;&gt;Node6</title>
<g id="a_edge5_Node000005_Node000006"><a xlink:title=" ">
<path fill="none" stroke="#63b8ff" d="M489.1,-241.98C549.14,-227.01 629.95,-197.21 677,-140 690.47,-123.63 698.19,-100.27 702.22,-84.09"/>
<polygon fill="#63b8ff" stroke="#63b8ff" points="705.67,-84.74 704.46,-74.21 698.84,-83.19 705.67,-84.74"/>
</a>
</g>
</g>
<!-- Node7 -->
<g id="Node000007" class="node">
<title>Node7</title>
<g id="a_Node000007"><a xlink:title=" ">
<polygon fill="#e0e0e0" stroke="#999999" points="594.5,-19 547.5,-19 547.5,0 594.5,0 594.5,-19"/>
<text text-anchor="middle" x="571" y="-7" font-family="Helvetica,sans-Serif" font-size="10.00">vector</text>
</a>
</g>
</g>
<!-- Node5&#45;&gt;Node7 -->
<g id="edge7_Node000005_Node000007" class="edge">
<title>Node5&#45;&gt;Node7</title>
<g id="a_edge7_Node000005_Node000007"><a xlink:title=" ">
<path fill="none" stroke="#63b8ff" d="M494.2,-247.49C536.39,-240.6 587.5,-228.2 629,-206 697.61,-169.3 721.06,-148.35 744,-74 746.49,-65.93 749.17,-61.67 744,-55 727.08,-33.17 649.95,-20.18 604.59,-14.29"/>
<polygon fill="#63b8ff" stroke="#63b8ff" points="604.97,-10.81 594.61,-13.04 604.1,-17.75 604.97,-10.81"/>
</a>
</g>
</g>
<!-- Node8 -->
<g id="Node000008" class="node">
<title>Node8</title>
<g id="a_Node000008"><a xlink:href="ReadBuffer_8ixx.html" target="_top" xlink:title="Read&#45;only buffer for the double&#45;buffering pattern.">
<polygon fill="white" stroke="#666666" points="398,-74 240,-74 240,-55 398,-55 398,-74"/>
<text text-anchor="middle" x="319" y="-62" font-family="Helvetica,sans-Serif" font-size="10.00">helios.core.buffer.ReadBuffer</text>
</a>
</g>
</g>
<!-- Node5&#45;&gt;Node8 -->
<g id="edge8_Node000005_Node000008" class="edge">
<title>Node5&#45;&gt;Node8</title>
<g id="a_edge8_Node000005_Node000008"><a xlink:title=" ">
<path fill="none" stroke="#63b8ff" d="M389.27,-241.68C361.2,-222.49 314.86,-185.52 296,-140 288.11,-120.94 297.76,-98.18 306.87,-82.87"/>
<polygon fill="#63b8ff" stroke="#63b8ff" points="309.84,-84.71 312.3,-74.4 303.95,-80.93 309.84,-84.71"/>
</a>
</g>
</g>
<!-- Node9 -->
<g id="Node000009" class="node">
<title>Node9</title>
<g id="a_Node000009"><a xlink:href="WriteBuffer_8ixx.html" target="_top" xlink:title="Write&#45;only buffer for the double&#45;buffering pattern.">
<polygon fill="white" stroke="#666666" points="446,-140 316,-140 316,-110 446,-110 446,-140"/>
<text text-anchor="start" x="324" y="-128" font-family="Helvetica,sans-Serif" font-size="10.00">helios.core.buffer.Write</text>
<text text-anchor="middle" x="381" y="-117" font-family="Helvetica,sans-Serif" font-size="10.00">Buffer</text>
</a>
</g>
</g>
<!-- Node5&#45;&gt;Node9 -->
<g id="edge11_Node000005_Node000009" class="edge">
<title>Node5&#45;&gt;Node9</title>
<g id="a_edge11_Node000005_Node000009"><a xlink:title=" ">
<path fill="none" stroke="#63b8ff" d="M399.39,-241.85C391.86,-232.42 383.01,-219.35 379,-206 373.58,-187.94 374.47,-166.55 376.5,-150.44"/>
<polygon fill="#63b8ff" stroke="#63b8ff" points="380.01,-150.63 378.02,-140.23 373.08,-149.6 380.01,-150.63"/>
</a>
</g>
</g>
<!-- Node10 -->
<g id="Node000010" class="node">
<title>Node10</title>
<g id="a_Node000010"><a xlink:href="ReadWriteDoubleBuffer_8ixx.html" target="_top" xlink:title="Type&#45;safe double&#45;buffered container for producer&#45;consumer patterns.">
<polygon fill="white" stroke="#666666" points="542.5,-206 387.5,-206 387.5,-176 542.5,-176 542.5,-206"/>
<text text-anchor="start" x="395.5" y="-194" font-family="Helvetica,sans-Serif" font-size="10.00">helios.core.buffer.ReadWrite</text>
<text text-anchor="middle" x="465" y="-183" font-family="Helvetica,sans-Serif" font-size="10.00">DoubleBuffer</text>
</a>
</g>
</g>
<!-- Node5&#45;&gt;Node10 -->
<g id="edge14_Node000005_Node000010" class="edge">
<title>Node5&#45;&gt;Node10</title>
<g id="a_edge14_Node000005_Node000010"><a xlink:title=" ">
<path fill="none" stroke="#63b8ff" d="M423.76,-241.8C430.56,-233.59 439.24,-223.1 446.89,-213.87"/>
<polygon fill="#63b8ff" stroke="#63b8ff" points="449.59,-216.1 453.27,-206.16 444.2,-211.63 449.59,-216.1"/>
</a>
</g>
</g>
<!-- Node11 -->
<g id="Node000011" class="node">
<title>Node11</title>
<g id="a_Node000011"><a xlink:href="DoubleBuffer_8ixx.html" target="_top" xlink:title="Double&#45;buffered, type&#45;indexed message system for decoupled inter&#45;system communication.">
<polygon fill="white" stroke="#666666" points="640,-140 502,-140 502,-110 640,-110 640,-140"/>
<text text-anchor="start" x="510" y="-128" font-family="Helvetica,sans-Serif" font-size="10.00">helios.core.buffer.Double</text>
<text text-anchor="middle" x="571" y="-117" font-family="Helvetica,sans-Serif" font-size="10.00">Buffer</text>
</a>
</g>
</g>
<!-- Node5&#45;&gt;Node11 -->
<g id="edge24_Node000005_Node000011" class="edge">
<title>Node5&#45;&gt;Node11</title>
<g id="a_edge24_Node000005_Node000011"><a xlink:title=" ">
<path fill="none" stroke="#63b8ff" d="M493.07,-241.9C514.84,-234.49 536.59,-223.21 552,-206 565.57,-190.85 569.92,-167.8 571.11,-150.32"/>
<polygon fill="#63b8ff" stroke="#63b8ff" points="574.61,-150.41 571.5,-140.28 567.61,-150.14 574.61,-150.41"/>
</a>
</g>
</g>
<!-- Node5&#45;&gt;Node12 -->
<g id="edge25_Node000005_Node000012" class="edge">
<title>Node5&#45;&gt;Node12</title>
<g id="a_edge25_Node000005_Node000012"><a xlink:title=" ">
<path fill="none" stroke="#63b8ff" d="M344.85,-241.95C288.11,-230.09 208.08,-213.35 156.62,-202.59"/>
<polygon fill="#63b8ff" stroke="#63b8ff" points="157.23,-199.14 146.72,-200.52 155.8,-205.99 157.23,-199.14"/>
</a>
</g>
</g>
<!-- Node8&#45;&gt;Node3 -->
<g id="edge9_Node000008_Node000003" class="edge">
<title>Node8&#45;&gt;Node3</title>
<g id="a_edge9_Node000008_Node000003"><a xlink:title=" ">
<path fill="none" stroke="#63b8ff" d="M301.81,-54.98C284.75,-46.54 258.37,-33.47 238.6,-23.68"/>
<polygon fill="#63b8ff" stroke="#63b8ff" points="240.02,-20.47 229.5,-19.17 236.91,-26.75 240.02,-20.47"/>
</a>
</g>
</g>
<!-- Node8&#45;&gt;Node7 -->
<g id="edge10_Node000008_Node000007" class="edge">
<title>Node8&#45;&gt;Node7</title>
<g id="a_edge10_Node000008_Node000007"><a xlink:title=" ">
<path fill="none" stroke="#63b8ff" d="M359.49,-54.98C408.8,-44.61 491.18,-27.29 537.23,-17.6"/>
<polygon fill="#63b8ff" stroke="#63b8ff" points="538.23,-20.97 547.3,-15.49 536.79,-14.12 538.23,-20.97"/>
</a>
</g>
</g>
<!-- Node9&#45;&gt;Node7 -->
<g id="edge12_Node000009_Node000007" class="edge">
<title>Node9&#45;&gt;Node7</title>
<g id="a_edge12_Node000009_Node000007"><a xlink:title=" ">
<path fill="none" stroke="#63b8ff" d="M394.14,-109.99C408.97,-94.82 434.38,-70.7 460,-55 484.52,-39.98 515,-28.19 537.81,-20.52"/>
<polygon fill="#63b8ff" stroke="#63b8ff" points="538.97,-23.83 547.39,-17.4 536.8,-17.17 538.97,-23.83"/>
</a>
</g>
</g>
<!-- Node9&#45;&gt;Node8 -->
<g id="edge13_Node000009_Node000008" class="edge">
<title>Node9&#45;&gt;Node8</title>
<g id="a_edge13_Node000009_Node000008"><a xlink:title=" ">
<path fill="none" stroke="#63b8ff" d="M365.99,-109.84C356.81,-101.17 345.05,-90.08 335.59,-81.15"/>
<polygon fill="#63b8ff" stroke="#63b8ff" points="337.97,-78.58 328.29,-74.27 333.16,-83.67 337.97,-78.58"/>
</a>
</g>
</g>
<!-- Node10&#45;&gt;Node3 -->
<g id="edge16_Node000010_Node000003" class="edge">
<title>Node10&#45;&gt;Node3</title>
<g id="a_edge16_Node000010_Node000003"><a xlink:title=" ">
<path fill="none" stroke="#63b8ff" d="M388,-175.91C357.89,-168.23 323.94,-156.76 296,-140 260.69,-118.82 251.96,-109.43 231,-74 222.84,-60.21 217.94,-42.64 215.16,-29.48"/>
<polygon fill="#63b8ff" stroke="#63b8ff" points="218.53,-28.44 213.24,-19.25 211.65,-29.73 218.53,-28.44"/>
</a>
</g>
</g>
<!-- Node10&#45;&gt;Node6 -->
<g id="edge15_Node000010_Node000006" class="edge">
<title>Node10&#45;&gt;Node6</title>
<g id="a_edge15_Node000010_Node000006"><a xlink:title=" ">
<path fill="none" stroke="#63b8ff" d="M542.66,-180.43C577.41,-173.37 617.54,-161.14 649,-140 670.58,-125.5 687.42,-100.11 697.03,-83.05"/>
<polygon fill="#63b8ff" stroke="#63b8ff" points="700.18,-84.58 701.84,-74.12 694.02,-81.26 700.18,-84.58"/>
</a>
</g>
</g>
<!-- Node10&#45;&gt;Node7 -->
<g id="edge17_Node000010_Node000007" class="edge">
<title>Node10&#45;&gt;Node7</title>
<g id="a_edge17_Node000010_Node000007"><a xlink:title=" ">
<path fill="none" stroke="#63b8ff" d="M468.44,-175.83C472.78,-159.36 481.13,-131.69 493,-110 510.62,-77.8 538.51,-45.2 555.73,-26.47"/>
<polygon fill="#63b8ff" stroke="#63b8ff" points="558.34,-28.81 562.61,-19.12 553.22,-24.03 558.34,-28.81"/>
</a>
</g>
</g>
<!-- Node10&#45;&gt;Node8 -->
<g id="edge19_Node000010_Node000008" class="edge">
<title>Node10&#45;&gt;Node8</title>
<g id="a_edge19_Node000010_Node000008"><a xlink:title=" ">
<path fill="none" stroke="#63b8ff" d="M387.28,-184.59C357.21,-178.24 325.62,-165.42 307,-140 294.95,-123.55 301.99,-99.55 309.36,-83.27"/>
<polygon fill="#63b8ff" stroke="#63b8ff" points="312.52,-84.78 313.83,-74.27 306.25,-81.67 312.52,-84.78"/>
</a>
</g>
</g>
<!-- Node10&#45;&gt;Node9 -->
<g id="edge18_Node000010_Node000009" class="edge">
<title>Node10&#45;&gt;Node9</title>
<g id="a_edge18_Node000010_Node000009"><a xlink:title=" ">
<path fill="none" stroke="#63b8ff" d="M446.36,-175.8C435.05,-167.18 420.42,-156.04 407.88,-146.48"/>
<polygon fill="#63b8ff" stroke="#63b8ff" points="409.67,-143.44 399.59,-140.16 405.42,-149.01 409.67,-143.44"/>
</a>
</g>
</g>
<!-- Node10&#45;&gt;Node11 -->
<g id="edge20_Node000010_Node000011" class="edge">
<title>Node10&#45;&gt;Node11</title>
<g id="a_edge20_Node000010_Node000011"><a xlink:title=" ">
<path fill="none" stroke="#63b8ff" d="M488.26,-175.95C503.17,-166.95 522.73,-155.14 539.09,-145.27"/>
<polygon fill="#63b8ff" stroke="#63b8ff" points="541.04,-148.18 547.79,-140.01 537.42,-142.18 541.04,-148.18"/>
</a>
</g>
</g>
<!-- Node11&#45;&gt;Node3 -->
<g id="edge22_Node000011_Node000003" class="edge">
<title>Node11&#45;&gt;Node3</title>
<g id="a_edge22_Node000011_Node000003"><a xlink:title=" ">
<path fill="none" stroke="#63b8ff" d="M541.96,-109.96C509.62,-94.76 455.52,-70.61 407,-55 349.89,-36.63 281.06,-22.78 242.33,-15.73"/>
<polygon fill="#63b8ff" stroke="#63b8ff" points="242.7,-12.24 232.24,-13.92 241.47,-19.13 242.7,-12.24"/>
</a>
</g>
</g>
<!-- Node11&#45;&gt;Node6 -->
<g id="edge21_Node000011_Node000006" class="edge">
<title>Node11&#45;&gt;Node6</title>
<g id="a_edge21_Node000011_Node000006"><a xlink:title=" ">
<path fill="none" stroke="#63b8ff" d="M603.34,-109.99C625.66,-100.31 655.1,-87.56 676.73,-78.18"/>
<polygon fill="#63b8ff" stroke="#63b8ff" points="678.28,-81.33 686.06,-74.14 675.5,-74.9 678.28,-81.33"/>
</a>
</g>
</g>
<!-- Node11&#45;&gt;Node7 -->
<g id="edge23_Node000011_Node000007" class="edge">
<title>Node11&#45;&gt;Node7</title>
<g id="a_edge23_Node000011_Node000007"><a xlink:title=" ">
<path fill="none" stroke="#63b8ff" d="M571,-109.63C571,-89.21 571,-51.81 571,-29.24"/>
<polygon fill="#63b8ff" stroke="#63b8ff" points="574.5,-29.23 571,-19.23 567.5,-29.23 574.5,-29.23"/>
</a>
</g>
</g>
<!-- Node13 -->
<g id="Node000013" class="node">
<title>Node13</title>
<g id="a_Node000013"><a xlink:title=" ">
<polygon fill="#e0e0e0" stroke="#999999" points="131,-134.5 81,-134.5 81,-115.5 131,-115.5 131,-134.5"/>
<text text-anchor="middle" x="106" y="-122.5" font-family="Helvetica,sans-Serif" font-size="10.00">atomic</text>
</a>
</g>
</g>
<!-- Node12&#45;&gt;Node13 -->
<g id="edge26_Node000012_Node000013" class="edge">
<title>Node12&#45;&gt;Node13</title>
<g id="a_edge26_Node000012_Node000013"><a xlink:title=" ">
<path fill="none" stroke="#63b8ff" d="M106,-181.37C106,-172.16 106,-157.29 106,-145.27"/>
<polygon fill="#63b8ff" stroke="#63b8ff" points="109.5,-144.91 106,-134.91 102.5,-144.91 109.5,-144.91"/>
</a>
</g>
</g>
<!-- Node15 -->
<g id="Node000015" class="node">
<title>Node15</title>
<g id="a_Node000015"><a xlink:href="types_8ixx.html" target="_top" xlink:title="Core type definitions and tag types for the helios engine.">
<polygon fill="white" stroke="#666666" points="1677,-200.5 1577,-200.5 1577,-181.5 1677,-181.5 1677,-200.5"/>
<text text-anchor="middle" x="1627" y="-188.5" font-family="Helvetica,sans-Serif" font-size="10.00">helios.core.types</text>
</a>
</g>
</g>
<!-- Node14&#45;&gt;Node15 -->
<g id="edge29_Node000014_Node000015" class="edge">
<title>Node14&#45;&gt;Node15</title>
<g id="a_edge29_Node000014_Node000015"><a xlink:title=" ">
<path fill="none" stroke="#63b8ff" d="M1488.88,-307.84C1518.29,-283.18 1578.65,-232.56 1608.89,-207.19"/>
<polygon fill="#63b8ff" stroke="#63b8ff" points="1611.16,-209.86 1616.57,-200.75 1606.66,-204.49 1611.16,-209.86"/>
</a>
</g>
</g>
<!-- Node16 -->
<g id="Node000016" class="node">
<title>Node16</title>
<g id="a_Node000016"><a xlink:href="helios_2math_2types_2__module_8ixx.html" target="_top" xlink:title="Module exports for vector and matrix type definitions.">
<polygon fill="white" stroke="#666666" points="875,-200.5 771,-200.5 771,-181.5 875,-181.5 875,-200.5"/>
<text text-anchor="middle" x="823" y="-188.5" font-family="Helvetica,sans-Serif" font-size="10.00">helios.math.types</text>
</a>
</g>
</g>
<!-- Node14&#45;&gt;Node16 -->
<g id="edge30_Node000014_Node000016" class="edge">
<title>Node14&#45;&gt;Node16</title>
<g id="a_edge30_Node000014_Node000016"><a xlink:title=" ">
<path fill="none" stroke="#63b8ff" d="M1401,-315.66C1325.56,-308.18 1203.05,-293.93 1099,-272 1010.67,-253.39 909.33,-221.12 857.49,-203.8"/>
<polygon fill="#63b8ff" stroke="#63b8ff" points="858.39,-200.41 847.8,-200.54 856.16,-207.05 858.39,-200.41"/>
</a>
</g>
</g>
<!-- Node17 -->
<g id="Node000017" class="node">
<title>Node17</title>
<g id="a_Node000017"><a xlink:href="ViewportId_8ixx.html" target="_top" xlink:title="Strongly&#45;typed identifier for viewports.">
<polygon fill="white" stroke="#666666" points="1750,-272 1616,-272 1616,-242 1750,-242 1750,-272"/>
<text text-anchor="start" x="1624" y="-260" font-family="Helvetica,sans-Serif" font-size="10.00">helios.engine.core.data.</text>
<text text-anchor="middle" x="1683" y="-249" font-family="Helvetica,sans-Serif" font-size="10.00">ViewportId</text>
</a>
</g>
</g>
<!-- Node14&#45;&gt;Node17 -->
<g id="edge32_Node000014_Node000017" class="edge">
<title>Node14&#45;&gt;Node17</title>
<g id="a_edge32_Node000014_Node000017"><a xlink:title=" ">
<path fill="none" stroke="#63b8ff" d="M1518.3,-307.95C1550.32,-298.24 1593.1,-285.27 1627.03,-274.98"/>
<polygon fill="#63b8ff" stroke="#63b8ff" points="1628.25,-278.26 1636.8,-272.01 1626.22,-271.57 1628.25,-278.26"/>
</a>
</g>
</g>
<!-- Node16&#45;&gt;Node16 -->
<g id="edge31_Node000016_Node000016" class="edge">
<title>Node16&#45;&gt;Node16</title>
<g id="a_edge31_Node000016_Node000016"><a xlink:title=" ">
<path fill="none" stroke="#63b8ff" d="M844.86,-200.56C867.56,-206.37 893,-203.18 893,-191 893,-180.58 874.39,-176.74 854.79,-179.48"/>
<polygon fill="#63b8ff" stroke="#63b8ff" points="854,-176.07 844.86,-181.44 855.35,-182.94 854,-176.07"/>
</a>
</g>
</g>
<!-- Node17&#45;&gt;Node15 -->
<g id="edge35_Node000017_Node000015" class="edge">
<title>Node17&#45;&gt;Node15</title>
<g id="a_edge35_Node000017_Node000015"><a xlink:title=" ">
<path fill="none" stroke="#63b8ff" d="M1670.57,-241.8C1661.93,-231.92 1650.38,-218.72 1641.34,-208.39"/>
<polygon fill="#63b8ff" stroke="#63b8ff" points="1643.96,-206.07 1634.74,-200.84 1638.69,-210.67 1643.96,-206.07"/>
</a>
</g>
</g>
<!-- Node18 -->
<g id="Node000018" class="node">
<title>Node18</title>
<g id="a_Node000018"><a xlink:title=" ">
<polygon fill="#e0e0e0" stroke="#999999" points="1951,-134.5 1901,-134.5 1901,-115.5 1951,-115.5 1951,-134.5"/>
<text text-anchor="middle" x="1926" y="-122.5" font-family="Helvetica,sans-Serif" font-size="10.00">cstdint</text>
</a>
</g>
</g>
<!-- Node17&#45;&gt;Node18 -->
<g id="edge33_Node000017_Node000018" class="edge">
<title>Node17&#45;&gt;Node18</title>
<g id="a_edge33_Node000017_Node000018"><a xlink:title=" ">
<path fill="none" stroke="#63b8ff" d="M1686.56,-241.82C1691.84,-223.76 1703.53,-192.85 1725,-176 1773.6,-137.84 1847.52,-128.38 1890.87,-126.29"/>
<polygon fill="#63b8ff" stroke="#63b8ff" points="1891.07,-129.78 1900.93,-125.91 1890.81,-122.79 1891.07,-129.78"/>
</a>
</g>
</g>
<!-- Node19 -->
<g id="Node000019" class="node">
<title>Node19</title>
<g id="a_Node000019"><a xlink:title=" ">
<polygon fill="#e0e0e0" stroke="#999999" points="1806.5,-200.5 1733.5,-200.5 1733.5,-181.5 1806.5,-181.5 1806.5,-200.5"/>
<text text-anchor="middle" x="1770" y="-188.5" font-family="Helvetica,sans-Serif" font-size="10.00">string_view</text>
</a>
</g>
</g>
<!-- Node17&#45;&gt;Node19 -->
<g id="edge34_Node000017_Node000019" class="edge">
<title>Node17&#45;&gt;Node19</title>
<g id="a_edge34_Node000017_Node000019"><a xlink:title=" ">
<path fill="none" stroke="#63b8ff" d="M1702.31,-241.8C1716.49,-231.37 1735.69,-217.24 1750.02,-206.69"/>
<polygon fill="#63b8ff" stroke="#63b8ff" points="1752.25,-209.4 1758.23,-200.66 1748.1,-203.76 1752.25,-209.4"/>
</a>
</g>
</g>
<!-- Node20 -->
<g id="Node000020" class="node">
<title>Node20</title>
<g id="a_Node000020"><a xlink:href="algorithms_8ixx.html" target="_top" xlink:title="Core algorithms and hash functions for the helios engine.">
<polygon fill="white" stroke="#666666" points="1988.5,-200.5 1863.5,-200.5 1863.5,-181.5 1988.5,-181.5 1988.5,-200.5"/>
<text text-anchor="middle" x="1926" y="-188.5" font-family="Helvetica,sans-Serif" font-size="10.00">helios.core.algorithms</text>
</a>
</g>
</g>
<!-- Node17&#45;&gt;Node20 -->
<g id="edge36_Node000017_Node000020" class="edge">
<title>Node17&#45;&gt;Node20</title>
<g id="a_edge36_Node000017_Node000020"><a xlink:title=" ">
<path fill="none" stroke="#63b8ff" d="M1736.33,-241.95C1780.63,-230.29 1842.82,-213.91 1883.74,-203.13"/>
<polygon fill="#63b8ff" stroke="#63b8ff" points="1884.88,-206.45 1893.66,-200.52 1883.1,-199.68 1884.88,-206.45"/>
</a>
</g>
</g>
<!-- Node20&#45;&gt;Node18 -->
<g id="edge37_Node000020_Node000018" class="edge">
<title>Node20&#45;&gt;Node18</title>
<g id="a_edge37_Node000020_Node000018"><a xlink:title=" ">
<path fill="none" stroke="#63b8ff" d="M1926,-181.37C1926,-172.16 1926,-157.29 1926,-145.27"/>
<polygon fill="#63b8ff" stroke="#63b8ff" points="1929.5,-144.91 1926,-134.91 1922.5,-144.91 1929.5,-144.91"/>
</a>
</g>
</g>
<!-- Node21 -->
<g id="Node000021" class="node">
<title>Node21</title>
<g id="a_Node000021"><a xlink:title=" ">
<polygon fill="#e0e0e0" stroke="#999999" points="1261,-19 1217,-19 1217,0 1261,0 1261,-19"/>
<text text-anchor="middle" x="1239" y="-7" font-family="Helvetica,sans-Serif" font-size="10.00">string</text>
</a>
</g>
</g>
<!-- Node20&#45;&gt;Node21 -->
<g id="edge38_Node000020_Node000021" class="edge">
<title>Node20&#45;&gt;Node21</title>
<g id="a_edge38_Node000020_Node000021"><a xlink:title=" ">
<path fill="none" stroke="#63b8ff" d="M1895.37,-181.38C1842.25,-166.49 1729.57,-135.13 1634,-110 1499.61,-74.67 1338.82,-34.96 1271.33,-18.4"/>
<polygon fill="#63b8ff" stroke="#63b8ff" points="1271.86,-14.93 1261.31,-15.95 1270.19,-21.73 1271.86,-14.93"/>
</a>
</g>
</g>
<!-- Node23 -->
<g id="Node000023" class="node">
<title>Node23</title>
<g id="a_Node000023"><a xlink:href="GamepadState_8ixx.html" target="_top" xlink:title="Representation of current gamepad input state.">
<polygon fill="white" stroke="#666666" points="1280.5,-272 1107.5,-272 1107.5,-242 1280.5,-242 1280.5,-272"/>
<text text-anchor="start" x="1115.5" y="-260" font-family="Helvetica,sans-Serif" font-size="10.00">helios.input.gamepad.Gamepad</text>
<text text-anchor="middle" x="1194" y="-249" font-family="Helvetica,sans-Serif" font-size="10.00">State</text>
</a>
</g>
</g>
<!-- Node22&#45;&gt;Node23 -->
<g id="edge40_Node000022_Node000023" class="edge">
<title>Node22&#45;&gt;Node23</title>
<g id="a_edge40_Node000022_Node000023"><a xlink:title=" ">
<path fill="none" stroke="#63b8ff" d="M1194,-313.37C1194,-305.49 1194,-293.45 1194,-282.6"/>
<polygon fill="#63b8ff" stroke="#63b8ff" points="1197.5,-282.36 1194,-272.36 1190.5,-282.36 1197.5,-282.36"/>
</a>
</g>
</g>
<!-- Node23&#45;&gt;Node16 -->
<g id="edge63_Node000023_Node000016" class="edge">
<title>Node23&#45;&gt;Node16</title>
<g id="a_edge63_Node000023_Node000016"><a xlink:title=" ">
<path fill="none" stroke="#63b8ff" d="M1112.58,-241.95C1043.08,-229.96 944.75,-213 882.43,-202.25"/>
<polygon fill="#63b8ff" stroke="#63b8ff" points="882.82,-198.77 872.37,-200.52 881.63,-205.67 882.82,-198.77"/>
</a>
</g>
</g>
<!-- Node24 -->
<g id="Node000024" class="node">
<title>Node24</title>
<g id="a_Node000024"><a xlink:title=" ">
<polygon fill="#e0e0e0" stroke="#999999" points="1349,-200.5 1285,-200.5 1285,-181.5 1349,-181.5 1349,-200.5"/>
<text text-anchor="middle" x="1317" y="-188.5" font-family="Helvetica,sans-Serif" font-size="10.00">algorithm</text>
</a>
</g>
</g>
<!-- Node23&#45;&gt;Node24 -->
<g id="edge41_Node000023_Node000024" class="edge">
<title>Node23&#45;&gt;Node24</title>
<g id="a_edge41_Node000023_Node000024"><a xlink:title=" ">
<path fill="none" stroke="#63b8ff" d="M1220.99,-241.95C1241.99,-231.03 1270.93,-215.97 1291.53,-205.25"/>
<polygon fill="#63b8ff" stroke="#63b8ff" points="1293.38,-208.24 1300.63,-200.52 1290.14,-202.03 1293.38,-208.24"/>
</a>
</g>
</g>
<!-- Node25 -->
<g id="Node000025" class="node">
<title>Node25</title>
<g id="a_Node000025"><a xlink:title=" ">
<polygon fill="#e0e0e0" stroke="#999999" points="1419,-200.5 1367,-200.5 1367,-181.5 1419,-181.5 1419,-200.5"/>
<text text-anchor="middle" x="1393" y="-188.5" font-family="Helvetica,sans-Serif" font-size="10.00">cassert</text>
</a>
</g>
</g>
<!-- Node23&#45;&gt;Node25 -->
<g id="edge42_Node000023_Node000025" class="edge">
<title>Node23&#45;&gt;Node25</title>
<g id="a_edge42_Node000023_Node000025"><a xlink:title=" ">
<path fill="none" stroke="#63b8ff" d="M1243.87,-241.98C1276.56,-232.51 1320.09,-219.33 1358,-206 1359.61,-205.43 1361.26,-204.84 1362.92,-204.22"/>
<polygon fill="#63b8ff" stroke="#63b8ff" points="1364.3,-207.44 1372.38,-200.58 1361.79,-200.9 1364.3,-207.44"/>
</a>
</g>
</g>
<!-- Node26 -->
<g id="Node000026" class="node">
<title>Node26</title>
<g id="a_Node000026"><a xlink:title=" ">
<polygon fill="#e0e0e0" stroke="#999999" points="1559,-200.5 1437,-200.5 1437,-181.5 1559,-181.5 1559,-200.5"/>
<text text-anchor="middle" x="1498" y="-188.5" font-family="Helvetica,sans-Serif" font-size="10.00">helios/helios_config.h</text>
</a>
</g>
</g>
<!-- Node23&#45;&gt;Node26 -->
<g id="edge43_Node000023_Node000026" class="edge">
<title>Node23&#45;&gt;Node26</title>
<g id="a_edge43_Node000023_Node000026"><a xlink:title=" ">
<path fill="none" stroke="#63b8ff" d="M1260.71,-241.95C1317.08,-230.09 1396.58,-213.35 1447.71,-202.59"/>
<polygon fill="#63b8ff" stroke="#63b8ff" points="1448.48,-206 1457.54,-200.52 1447.04,-199.15 1448.48,-206"/>
</a>
</g>
</g>
<!-- Node27 -->
<g id="Node000027" class="node">
<title>Node27</title>
<g id="a_Node000027"><a xlink:href="Gamepad_8ixx.html" target="_top" xlink:title="Identifiers for supported gamepads.">
<polygon fill="white" stroke="#666666" points="1103,-200.5 949,-200.5 949,-181.5 1103,-181.5 1103,-200.5"/>
<text text-anchor="middle" x="1026" y="-188.5" font-family="Helvetica,sans-Serif" font-size="10.00">helios.input.types.Gamepad</text>
</a>
</g>
</g>
<!-- Node23&#45;&gt;Node27 -->
<g id="edge44_Node000023_Node000027" class="edge">
<title>Node23&#45;&gt;Node27</title>
<g id="a_edge44_Node000023_Node000027"><a xlink:title=" ">
<path fill="none" stroke="#63b8ff" d="M1157.13,-241.95C1127.41,-230.63 1086.05,-214.88 1057.77,-204.1"/>
<polygon fill="#63b8ff" stroke="#63b8ff" points="1058.95,-200.81 1048.36,-200.52 1056.46,-207.35 1058.95,-200.81"/>
</a>
</g>
</g>
<!-- Node28 -->
<g id="Node000028" class="node">
<title>Node28</title>
<g id="a_Node000028"><a xlink:href="LogManager_8ixx.html" target="_top" xlink:title="Central manager for scoped loggers with configurable sinks.">
<polygon fill="white" stroke="#666666" points="1267,-200.5 1121,-200.5 1121,-181.5 1267,-181.5 1267,-200.5"/>
<text text-anchor="middle" x="1194" y="-188.5" font-family="Helvetica,sans-Serif" font-size="10.00">helios.util.log.LogManager</text>
</a>
</g>
</g>
<!-- Node23&#45;&gt;Node28 -->
<g id="edge45_Node000023_Node000028" class="edge">
<title>Node23&#45;&gt;Node28</title>
<g id="a_edge45_Node000023_Node000028"><a xlink:title=" ">
<path fill="none" stroke="#63b8ff" d="M1194,-241.8C1194,-232.7 1194,-220.79 1194,-210.9"/>
<polygon fill="#63b8ff" stroke="#63b8ff" points="1197.5,-210.84 1194,-200.84 1190.5,-210.84 1197.5,-210.84"/>
</a>
</g>
</g>
<!-- Node33 -->
<g id="Node000033" class="node">
<title>Node33</title>
<g id="a_Node000033"><a xlink:href="Logger_8ixx.html" target="_top" xlink:title="Simple synchronous logger with configurable output sinks.">
<polygon fill="white" stroke="#666666" points="996.5,-134.5 877.5,-134.5 877.5,-115.5 996.5,-115.5 996.5,-134.5"/>
<text text-anchor="middle" x="937" y="-122.5" font-family="Helvetica,sans-Serif" font-size="10.00">helios.util.log.Logger</text>
</a>
</g>
</g>
<!-- Node23&#45;&gt;Node33 -->
<g id="edge62_Node000023_Node000033" class="edge">
<title>Node23&#45;&gt;Node33</title>
<g id="a_edge62_Node000023_Node000033"><a xlink:title=" ">
<path fill="none" stroke="#63b8ff" d="M1107.4,-250.25C1042.57,-243.96 961.53,-231.2 940,-206 925.65,-189.2 927.97,-162.41 931.78,-144.52"/>
<polygon fill="#63b8ff" stroke="#63b8ff" points="935.21,-145.24 934.22,-134.7 928.41,-143.56 935.21,-145.24"/>
</a>
</g>
</g>
<!-- Node28&#45;&gt;Node6 -->
<g id="edge49_Node000028_Node000006" class="edge">
<title>Node28&#45;&gt;Node6</title>
<g id="a_edge49_Node000028_Node000006"><a xlink:title=" ">
<path fill="none" stroke="#63b8ff" d="M1146.37,-181.46C1135.11,-179.55 1123.15,-177.62 1112,-176 979.11,-156.69 937.39,-188.06 812,-140 776.71,-126.48 742.09,-98.62 722.46,-81.06"/>
<polygon fill="#63b8ff" stroke="#63b8ff" points="724.74,-78.41 715,-74.24 720.02,-83.57 724.74,-78.41"/>
</a>
</g>
</g>
<!-- Node28&#45;&gt;Node7 -->
<g id="edge51_Node000028_Node000007" class="edge">
<title>Node28&#45;&gt;Node7</title>
<g id="a_edge51_Node000028_Node000007"><a xlink:title=" ">
<path fill="none" stroke="#63b8ff" d="M1145.03,-181.46C1134.16,-179.61 1122.7,-177.71 1112,-176 1004.18,-158.81 964.6,-192.74 869,-140 825.4,-115.95 839.01,-80.1 796,-55 735.22,-19.53 651.12,-11.83 604.87,-10.46"/>
<polygon fill="#63b8ff" stroke="#63b8ff" points="604.86,-6.95 594.78,-10.24 604.71,-13.95 604.86,-6.95"/>
</a>
</g>
</g>
<!-- Node28&#45;&gt;Node21 -->
<g id="edge46_Node000028_Node000021" class="edge">
<title>Node28&#45;&gt;Node21</title>
<g id="a_edge46_Node000028_Node000021"><a xlink:title=" ">
<path fill="none" stroke="#63b8ff" d="M1204.54,-181.45C1215.29,-172.23 1231.81,-156.62 1242,-140 1258.24,-113.52 1259.82,-104.63 1265,-74 1266.41,-65.67 1267.21,-63.15 1265,-55 1262.34,-45.19 1256.93,-35.33 1251.72,-27.39"/>
<polygon fill="#63b8ff" stroke="#63b8ff" points="1254.5,-25.25 1245.89,-19.07 1248.77,-29.27 1254.5,-25.25"/>
</a>
</g>
</g>
<!-- Node29 -->
<g id="Node000029" class="node">
<title>Node29</title>
<g id="a_Node000029"><a xlink:title=" ">
<polygon fill="#e0e0e0" stroke="#999999" points="1624.5,-134.5 1531.5,-134.5 1531.5,-115.5 1624.5,-115.5 1624.5,-134.5"/>
<text text-anchor="middle" x="1578" y="-122.5" font-family="Helvetica,sans-Serif" font-size="10.00">unordered_map</text>
</a>
</g>
</g>
<!-- Node28&#45;&gt;Node29 -->
<g id="edge47_Node000028_Node000029" class="edge">
<title>Node28&#45;&gt;Node29</title>
<g id="a_edge47_Node000028_Node000029"><a xlink:title=" ">
<path fill="none" stroke="#63b8ff" d="M1243.86,-181.45C1254.47,-179.64 1265.6,-177.75 1276,-176 1361.46,-161.63 1460.58,-145.28 1521.29,-135.3"/>
<polygon fill="#63b8ff" stroke="#63b8ff" points="1522.13,-138.71 1531.43,-133.64 1520.99,-131.8 1522.13,-138.71"/>
</a>
</g>
</g>
<!-- Node30 -->
<g id="Node000030" class="node">
<title>Node30</title>
<g id="a_Node000030"><a xlink:title=" ">
<polygon fill="#e0e0e0" stroke="#999999" points="1150,-134.5 1064,-134.5 1064,-115.5 1150,-115.5 1150,-134.5"/>
<text text-anchor="middle" x="1107" y="-122.5" font-family="Helvetica,sans-Serif" font-size="10.00">unordered_set</text>
</a>
</g>
</g>
<!-- Node28&#45;&gt;Node30 -->
<g id="edge48_Node000028_Node000030" class="edge">
<title>Node28&#45;&gt;Node30</title>
<g id="a_edge48_Node000028_Node000030"><a xlink:title=" ">
<path fill="none" stroke="#63b8ff" d="M1182.27,-181.37C1168.13,-170.97 1144.14,-153.32 1127.05,-140.75"/>
<polygon fill="#63b8ff" stroke="#63b8ff" points="1128.95,-137.81 1118.83,-134.7 1124.81,-143.44 1128.95,-137.81"/>
</a>
</g>
</g>
<!-- Node31 -->
<g id="Node000031" class="node">
<title>Node31</title>
<g id="a_Node000031"><a xlink:title=" ">
<polygon fill="#e0e0e0" stroke="#999999" points="1060,-74 1012,-74 1012,-55 1060,-55 1060,-74"/>
<text text-anchor="middle" x="1036" y="-62" font-family="Helvetica,sans-Serif" font-size="10.00">mutex</text>
</a>
</g>
</g>
<!-- Node28&#45;&gt;Node31 -->
<g id="edge50_Node000028_Node000031" class="edge">
<title>Node28&#45;&gt;Node31</title>
<g id="a_edge50_Node000028_Node000031"><a xlink:title=" ">
<path fill="none" stroke="#63b8ff" d="M1133.41,-181.43C1105.95,-174.56 1075.18,-162.21 1055,-140 1041.14,-124.75 1037.09,-100.8 1036.05,-84.19"/>
<polygon fill="#63b8ff" stroke="#63b8ff" points="1039.55,-83.94 1035.74,-74.06 1032.55,-84.16 1039.55,-83.94"/>
</a>
</g>
</g>
<!-- Node32 -->
<g id="Node000032" class="node">
<title>Node32</title>
<g id="a_Node000032"><a xlink:title=" ">
<polygon fill="#e0e0e0" stroke="#999999" points="1218,-134.5 1168,-134.5 1168,-115.5 1218,-115.5 1218,-134.5"/>
<text text-anchor="middle" x="1193" y="-122.5" font-family="Helvetica,sans-Serif" font-size="10.00">cstring</text>
</a>
</g>
</g>
<!-- Node28&#45;&gt;Node32 -->
<g id="edge52_Node000028_Node000032" class="edge">
<title>Node28&#45;&gt;Node32</title>
<g id="a_edge52_Node000028_Node000032"><a xlink:title=" ">
<path fill="none" stroke="#63b8ff" d="M1193.87,-181.37C1193.72,-172.16 1193.49,-157.29 1193.3,-145.27"/>
<polygon fill="#63b8ff" stroke="#63b8ff" points="1196.8,-144.85 1193.14,-134.91 1189.8,-144.96 1196.8,-144.85"/>
</a>
</g>
</g>
<!-- Node28&#45;&gt;Node33 -->
<g id="edge53_Node000028_Node000033" class="edge">
<title>Node28&#45;&gt;Node33</title>
<g id="a_edge53_Node000028_Node000033"><a xlink:title=" ">
<path fill="none" stroke="#63b8ff" d="M1159.61,-181.44C1113.54,-169.96 1031.76,-149.6 981.18,-137"/>
<polygon fill="#63b8ff" stroke="#63b8ff" points="981.74,-133.53 971.19,-134.51 980.05,-140.33 981.74,-133.53"/>
</a>
</g>
</g>
<!-- Node35 -->
<g id="Node000035" class="node">
<title>Node35</title>
<g id="a_Node000035"><a xlink:href="LogSink_8ixx.html" target="_top" xlink:title="Abstract interface for log output destinations.">
<polygon fill="white" stroke="#666666" points="1256,-74 1132,-74 1132,-55 1256,-55 1256,-74"/>
<text text-anchor="middle" x="1194" y="-62" font-family="Helvetica,sans-Serif" font-size="10.00">helios.util.log.LogSink</text>
</a>
</g>
</g>
<!-- Node28&#45;&gt;Node35 -->
<g id="edge61_Node000028_Node000035" class="edge">
<title>Node28&#45;&gt;Node35</title>
<g id="a_edge61_Node000028_Node000035"><a xlink:title=" ">
<path fill="none" stroke="#63b8ff" d="M1202.12,-181.25C1210.23,-171.87 1222.15,-156.14 1227,-140 1230.83,-127.23 1231.18,-122.66 1227,-110 1223.54,-99.54 1216.57,-89.53 1209.92,-81.66"/>
<polygon fill="#63b8ff" stroke="#63b8ff" points="1212.33,-79.1 1203.02,-74.04 1207.14,-83.8 1212.33,-79.1"/>
</a>
</g>
</g>
<!-- Node33&#45;&gt;Node6 -->
<g id="edge56_Node000033_Node000006" class="edge">
<title>Node33&#45;&gt;Node6</title>
<g id="a_edge56_Node000033_Node000006"><a xlink:title=" ">
<path fill="none" stroke="#63b8ff" d="M903.41,-115.49C861.39,-104.85 789.56,-86.66 745.1,-75.4"/>
<polygon fill="#63b8ff" stroke="#63b8ff" points="745.79,-71.97 735.24,-72.9 744.07,-78.75 745.79,-71.97"/>
</a>
</g>
</g>
<!-- Node33&#45;&gt;Node7 -->
<g id="edge55_Node000033_Node000007" class="edge">
<title>Node33&#45;&gt;Node7</title>
<g id="a_edge55_Node000033_Node000007"><a xlink:title=" ">
<path fill="none" stroke="#63b8ff" d="M927.97,-115.35C911.77,-100.4 876.11,-69.89 840,-55 759.96,-21.99 656.98,-13.44 604.7,-11.24"/>
<polygon fill="#63b8ff" stroke="#63b8ff" points="604.76,-7.74 594.64,-10.87 604.5,-14.73 604.76,-7.74"/>
</a>
</g>
</g>
<!-- Node33&#45;&gt;Node21 -->
<g id="edge54_Node000033_Node000021" class="edge">
<title>Node33&#45;&gt;Node21</title>
<g id="a_edge54_Node000033_Node000021"><a xlink:title=" ">
<path fill="none" stroke="#63b8ff" d="M942.7,-115.13C952.85,-100.11 975.61,-69.86 1003,-55 1069.1,-19.15 1159.2,-11.72 1206.68,-10.47"/>
<polygon fill="#63b8ff" stroke="#63b8ff" points="1206.76,-13.97 1216.69,-10.28 1206.62,-6.97 1206.76,-13.97"/>
</a>
</g>
</g>
<!-- Node33&#45;&gt;Node31 -->
<g id="edge57_Node000033_Node000031" class="edge">
<title>Node33&#45;&gt;Node31</title>
<g id="a_edge57_Node000033_Node000031"><a xlink:title=" ">
<path fill="none" stroke="#63b8ff" d="M951.61,-115.37C967.69,-105.86 993.78,-90.45 1012.7,-79.27"/>
<polygon fill="#63b8ff" stroke="#63b8ff" points="1014.5,-82.27 1021.33,-74.17 1010.94,-76.24 1014.5,-82.27"/>
</a>
</g>
</g>
<!-- Node34 -->
<g id="Node000034" class="node">
<title>Node34</title>
<g id="a_Node000034"><a xlink:title=" ">
<polygon fill="#e0e0e0" stroke="#999999" points="956,-74 896,-74 896,-55 956,-55 956,-74"/>
<text text-anchor="middle" x="926" y="-62" font-family="Helvetica,sans-Serif" font-size="10.00">iostream</text>
</a>
</g>
</g>
<!-- Node33&#45;&gt;Node34 -->
<g id="edge58_Node000033_Node000034" class="edge">
<title>Node33&#45;&gt;Node34</title>
<g id="a_edge58_Node000033_Node000034"><a xlink:title=" ">
<path fill="none" stroke="#63b8ff" d="M935.38,-115.37C933.83,-107.16 931.46,-94.54 929.49,-84.05"/>
<polygon fill="#63b8ff" stroke="#63b8ff" points="932.92,-83.35 927.63,-74.17 926.04,-84.64 932.92,-83.35"/>
</a>
</g>
</g>
<!-- Node33&#45;&gt;Node35 -->
<g id="edge59_Node000033_Node000035" class="edge">
<title>Node33&#45;&gt;Node35</title>
<g id="a_edge59_Node000033_Node000035"><a xlink:title=" ">
<path fill="none" stroke="#63b8ff" d="M974.37,-115.49C1019.95,-105.12 1097.06,-87.57 1146.73,-76.26"/>
<polygon fill="#63b8ff" stroke="#63b8ff" points="1147.61,-79.65 1156.58,-74.02 1146.06,-72.82 1147.61,-79.65"/>
</a>
</g>
</g>
<!-- Node35&#45;&gt;Node21 -->
<g id="edge60_Node000035_Node000021" class="edge">
<title>Node35&#45;&gt;Node21</title>
<g id="a_edge60_Node000035_Node000021"><a xlink:title=" ">
<path fill="none" stroke="#63b8ff" d="M1201.43,-54.75C1207.85,-47.18 1217.31,-36.05 1225.12,-26.84"/>
<polygon fill="#63b8ff" stroke="#63b8ff" points="1227.9,-28.98 1231.71,-19.09 1222.57,-24.45 1227.9,-28.98"/>
</a>
</g>
</g>
<!-- Node36&#45;&gt;Node18 -->
<g id="edge65_Node000036_Node000018" class="edge">
<title>Node36&#45;&gt;Node18</title>
<g id="a_edge65_Node000036_Node000018"><a xlink:title=" ">
<path fill="none" stroke="#63b8ff" d="M1902.09,-253.49C1936.63,-248.37 1976.01,-235.75 1998,-206 2005.93,-195.28 2004.18,-187.81 1998,-176 1989.36,-159.47 1972.48,-147.31 1957.25,-139.12"/>
<polygon fill="#63b8ff" stroke="#63b8ff" points="1958.57,-135.87 1948.06,-134.53 1955.44,-142.13 1958.57,-135.87"/>
</a>
</g>
</g>
<!-- Node36&#45;&gt;Node19 -->
<g id="edge67_Node000036_Node000019" class="edge">
<title>Node36&#45;&gt;Node19</title>
<g id="a_edge67_Node000036_Node000019"><a xlink:title=" ">
<path fill="none" stroke="#63b8ff" d="M1820.57,-241.8C1810.44,-231.82 1796.87,-218.46 1786.34,-208.09"/>
<polygon fill="#63b8ff" stroke="#63b8ff" points="1788.56,-205.37 1778.98,-200.84 1783.65,-210.35 1788.56,-205.37"/>
</a>
</g>
</g>
<!-- Node36&#45;&gt;Node20 -->
<g id="edge69_Node000036_Node000020" class="edge">
<title>Node36&#45;&gt;Node20</title>
<g id="a_edge69_Node000036_Node000020"><a xlink:title=" ">
<path fill="none" stroke="#63b8ff" d="M1855.2,-241.8C1870.03,-231.37 1890.11,-217.24 1905.11,-206.69"/>
<polygon fill="#63b8ff" stroke="#63b8ff" points="1907.52,-209.27 1913.69,-200.66 1903.5,-203.55 1907.52,-209.27"/>
</a>
</g>
</g>
<!-- Node36&#45;&gt;Node26 -->
<g id="edge66_Node000036_Node000026" class="edge">
<title>Node36&#45;&gt;Node26</title>
<g id="a_edge66_Node000036_Node000026"><a xlink:title=" ">
<path fill="none" stroke="#63b8ff" d="M1768,-243.55C1701.86,-231.24 1605.39,-213.24 1568,-206 1562.23,-204.88 1556.2,-203.7 1550.2,-202.51"/>
<polygon fill="#63b8ff" stroke="#63b8ff" points="1550.67,-199.04 1540.18,-200.52 1549.31,-205.9 1550.67,-199.04"/>
</a>
</g>
</g>
<!-- Node36&#45;&gt;Node29 -->
<g id="edge68_Node000036_Node000029" class="edge">
<title>Node36&#45;&gt;Node29</title>
<g id="a_edge68_Node000036_Node000029"><a xlink:title=" ">
<path fill="none" stroke="#63b8ff" d="M1835.88,-241.97C1836.18,-224.06 1833.79,-193.33 1816,-176 1790.68,-151.34 1696.68,-137.55 1634.66,-130.96"/>
<polygon fill="#63b8ff" stroke="#63b8ff" points="1634.93,-127.47 1624.62,-129.92 1634.21,-134.43 1634.93,-127.47"/>
</a>
</g>
</g>
</g>
</svg>
