<?xml version="1.0" encoding="UTF-8" standalone="no"?>
<!DOCTYPE svg PUBLIC "-//W3C//DTD SVG 1.1//EN"
 "http://www.w3.org/Graphics/SVG/1.1/DTD/svg11.dtd">
<!-- Generated by graphviz version 2.43.0 (0)
 -->
<!-- Title: SpawnProfileId.ixx Pages: 1 -->
<svg width="472pt" height="247pt"
 viewBox="0.00 0.00 472.13 247.00" xmlns="http://www.w3.org/2000/svg" xmlns:xlink="http://www.w3.org/1999/xlink">
<g id="graph0" class="graph" transform="scale(1 1) rotate(0) translate(4 243)">
<title>SpawnProfileId.ixx</title>
<!-- Node1 -->
<g id="Node000001" class="node">
<title>Node1</title>
<g id="a_Node000001"><a xlink:title="Strongly&#45;typed identifier for SpawnProfile instances.">
<polygon fill="#999999" stroke="#666666" points="150.63,-239 43.63,-239 43.63,-220 150.63,-220 150.63,-239"/>
<text text-anchor="middle" x="97.13" y="-227" font-family="Helvetica,sans-Serif" font-size="10.00">SpawnProfileId.ixx</text>
</a>
</g>
</g>
<!-- Node2 -->
<g id="Node000002" class="node">
<title>Node2</title>
<g id="a_Node000002"><a xlink:title=" ">
<polygon fill="#e0e0e0" stroke="#999999" points="267.13,-19 217.13,-19 217.13,0 267.13,0 267.13,-19"/>
<text text-anchor="middle" x="242.13" y="-7" font-family="Helvetica,sans-Serif" font-size="10.00">cstdint</text>
</a>
</g>
</g>
<!-- Node1&#45;&gt;Node2 -->
<g id="edge1_Node000001_Node000002" class="edge">
<title>Node1&#45;&gt;Node2</title>
<g id="a_edge1_Node000001_Node000002"><a xlink:title=" ">
<path fill="none" stroke="#63b8ff" d="M86.54,-219.74C55.23,-192.8 -32,-109.74 13.13,-55 37.26,-25.73 148.71,-15.47 206.76,-12.07"/>
<polygon fill="#63b8ff" stroke="#63b8ff" points="207.15,-15.55 216.94,-11.51 206.77,-8.56 207.15,-15.55"/>
</a>
</g>
</g>
<!-- Node3 -->
<g id="Node000003" class="node">
<title>Node3</title>
<g id="a_Node000003"><a xlink:title=" ">
<polygon fill="#e0e0e0" stroke="#999999" points="95.63,-74 22.63,-74 22.63,-55 95.63,-55 95.63,-74"/>
<text text-anchor="middle" x="59.13" y="-62" font-family="Helvetica,sans-Serif" font-size="10.00">string_view</text>
</a>
</g>
</g>
<!-- Node1&#45;&gt;Node3 -->
<g id="edge2_Node000001_Node000003" class="edge">
<title>Node1&#45;&gt;Node3</title>
<g id="a_edge2_Node000001_Node000003"><a xlink:title=" ">
<path fill="none" stroke="#63b8ff" d="M94.07,-219.71C91.03,-210.79 86.37,-196.55 83.13,-184 74.13,-149.06 66.4,-107.62 62.29,-84.16"/>
<polygon fill="#63b8ff" stroke="#63b8ff" points="65.72,-83.46 60.57,-74.19 58.82,-84.64 65.72,-83.46"/>
</a>
</g>
</g>
<!-- Node4 -->
<g id="Node000004" class="node">
<title>Node4</title>
<g id="a_Node000004"><a xlink:href="types_8ixx.html" target="_top" xlink:title="Core type definitions and tag types for the helios engine.">
<polygon fill="white" stroke="#666666" points="214.13,-74 114.13,-74 114.13,-55 214.13,-55 214.13,-74"/>
<text text-anchor="middle" x="164.13" y="-62" font-family="Helvetica,sans-Serif" font-size="10.00">helios.core.types</text>
</a>
</g>
</g>
<!-- Node1&#45;&gt;Node4 -->
<g id="edge3_Node000001_Node000004" class="edge">
<title>Node1&#45;&gt;Node4</title>
<g id="a_edge3_Node000001_Node000004"><a xlink:title=" ">
<path fill="none" stroke="#63b8ff" d="M96.66,-219.86C95.93,-199.44 96.28,-147.11 116.13,-110 122.43,-98.22 133.07,-87.87 142.73,-80.13"/>
<polygon fill="#63b8ff" stroke="#63b8ff" points="144.96,-82.84 150.84,-74.02 140.74,-77.25 144.96,-82.84"/>
</a>
</g>
</g>
<!-- Node5 -->
<g id="Node000005" class="node">
<title>Node5</title>
<g id="a_Node000005"><a xlink:href="helios_2core_2data_2__module_8ixx.html" target="_top" xlink:title="Aggregate module for helios::core::data namespace.">
<polygon fill="white" stroke="#666666" points="241.63,-184 146.63,-184 146.63,-165 241.63,-165 241.63,-184"/>
<text text-anchor="middle" x="194.13" y="-172" font-family="Helvetica,sans-Serif" font-size="10.00">helios.core.data</text>
</a>
</g>
</g>
<!-- Node1&#45;&gt;Node5 -->
<g id="edge4_Node000001_Node000005" class="edge">
<title>Node1&#45;&gt;Node5</title>
<g id="a_edge4_Node000001_Node000005"><a xlink:title=" ">
<path fill="none" stroke="#63b8ff" d="M112.72,-219.98C127.9,-211.69 151.23,-198.94 169.03,-189.22"/>
<polygon fill="#63b8ff" stroke="#63b8ff" points="171.17,-192.04 178.26,-184.17 167.81,-185.89 171.17,-192.04"/>
</a>
</g>
</g>
<!-- Node7 -->
<g id="Node000007" class="node">
<title>Node7</title>
<g id="a_Node000007"><a xlink:href="algorithms_8ixx.html" target="_top" xlink:title="Core algorithms and hash functions for the helios engine.">
<polygon fill="white" stroke="#666666" points="395.63,-74 270.63,-74 270.63,-55 395.63,-55 395.63,-74"/>
<text text-anchor="middle" x="333.13" y="-62" font-family="Helvetica,sans-Serif" font-size="10.00">helios.core.algorithms</text>
</a>
</g>
</g>
<!-- Node1&#45;&gt;Node7 -->
<g id="edge14_Node000001_Node000007" class="edge">
<title>Node1&#45;&gt;Node7</title>
<g id="a_edge14_Node000001_Node000007"><a xlink:title=" ">
<path fill="none" stroke="#63b8ff" d="M150.73,-221.12C239.42,-207.69 410.5,-176.21 446.13,-129 465.61,-103.2 427.64,-86.36 390.57,-76.54"/>
<polygon fill="#63b8ff" stroke="#63b8ff" points="391.24,-73.11 380.69,-74.08 389.55,-79.9 391.24,-73.11"/>
</a>
</g>
</g>
<!-- Node6 -->
<g id="Node000006" class="node">
<title>Node6</title>
<g id="a_Node000006"><a xlink:href="StrongId_8ixx.html" target="_top" xlink:title="Strongly&#45;typed identifier template.">
<polygon fill="white" stroke="#666666" points="263.13,-129 125.13,-129 125.13,-110 263.13,-110 263.13,-129"/>
<text text-anchor="middle" x="194.13" y="-117" font-family="Helvetica,sans-Serif" font-size="10.00">helios.core.data.StrongId</text>
</a>
</g>
</g>
<!-- Node5&#45;&gt;Node6 -->
<g id="edge5_Node000005_Node000006" class="edge">
<title>Node5&#45;&gt;Node6</title>
<g id="a_edge5_Node000005_Node000006"><a xlink:title=" ">
<path fill="none" stroke="#63b8ff" d="M194.13,-164.75C194.13,-157.8 194.13,-147.85 194.13,-139.13"/>
<polygon fill="#63b8ff" stroke="#63b8ff" points="197.63,-139.09 194.13,-129.09 190.63,-139.09 197.63,-139.09"/>
</a>
</g>
</g>
<!-- Node9 -->
<g id="Node000009" class="node">
<title>Node9</title>
<g id="a_Node000009"><a xlink:href="TypeIndexer_8ixx.html" target="_top" xlink:title="Utility for generating unique type indices at runtime.">
<polygon fill="white" stroke="#666666" points="437.13,-129 281.13,-129 281.13,-110 437.13,-110 437.13,-129"/>
<text text-anchor="middle" x="359.13" y="-117" font-family="Helvetica,sans-Serif" font-size="10.00">helios.core.data.TypeIndexer</text>
</a>
</g>
</g>
<!-- Node5&#45;&gt;Node9 -->
<g id="edge12_Node000005_Node000009" class="edge">
<title>Node5&#45;&gt;Node9</title>
<g id="a_edge12_Node000005_Node000009"><a xlink:title=" ">
<path fill="none" stroke="#63b8ff" d="M220.64,-164.98C248.34,-156.09 291.99,-142.07 322.87,-132.15"/>
<polygon fill="#63b8ff" stroke="#63b8ff" points="323.96,-135.47 332.42,-129.08 321.82,-128.81 323.96,-135.47"/>
</a>
</g>
</g>
<!-- Node6&#45;&gt;Node2 -->
<g id="edge6_Node000006_Node000002" class="edge">
<title>Node6&#45;&gt;Node2</title>
<g id="a_edge6_Node000006_Node000002"><a xlink:title=" ">
<path fill="none" stroke="#63b8ff" d="M200.93,-109.74C207.39,-101.07 217,-87.22 223.13,-74 229.8,-59.63 234.79,-42.35 237.98,-29.45"/>
<polygon fill="#63b8ff" stroke="#63b8ff" points="241.45,-29.95 240.32,-19.42 234.64,-28.36 241.45,-29.95"/>
</a>
</g>
</g>
<!-- Node6&#45;&gt;Node3 -->
<g id="edge7_Node000006_Node000003" class="edge">
<title>Node6&#45;&gt;Node3</title>
<g id="a_edge7_Node000006_Node000003"><a xlink:title=" ">
<path fill="none" stroke="#63b8ff" d="M172.44,-109.98C150.33,-101.3 115.81,-87.75 90.68,-77.88"/>
<polygon fill="#63b8ff" stroke="#63b8ff" points="91.81,-74.57 81.22,-74.17 89.25,-81.08 91.81,-74.57"/>
</a>
</g>
</g>
<!-- Node6&#45;&gt;Node4 -->
<g id="edge8_Node000006_Node000004" class="edge">
<title>Node6&#45;&gt;Node4</title>
<g id="a_edge8_Node000006_Node000004"><a xlink:title=" ">
<path fill="none" stroke="#63b8ff" d="M189.18,-109.75C185.07,-102.49 179.11,-91.95 174.03,-82.98"/>
<polygon fill="#63b8ff" stroke="#63b8ff" points="176.97,-81.07 168.99,-74.09 170.87,-84.52 176.97,-81.07"/>
</a>
</g>
</g>
<!-- Node6&#45;&gt;Node7 -->
<g id="edge9_Node000006_Node000007" class="edge">
<title>Node6&#45;&gt;Node7</title>
<g id="a_edge9_Node000006_Node000007"><a xlink:title=" ">
<path fill="none" stroke="#63b8ff" d="M216.47,-109.98C239.33,-101.27 275.09,-87.63 301,-77.75"/>
<polygon fill="#63b8ff" stroke="#63b8ff" points="302.3,-81 310.39,-74.17 299.8,-74.46 302.3,-81"/>
</a>
</g>
</g>
<!-- Node7&#45;&gt;Node2 -->
<g id="edge10_Node000007_Node000002" class="edge">
<title>Node7&#45;&gt;Node2</title>
<g id="a_edge10_Node000007_Node000002"><a xlink:title=" ">
<path fill="none" stroke="#63b8ff" d="M318.51,-54.98C304.27,-46.69 282.38,-33.94 265.68,-24.22"/>
<polygon fill="#63b8ff" stroke="#63b8ff" points="267.42,-21.18 257.02,-19.17 263.9,-27.23 267.42,-21.18"/>
</a>
</g>
</g>
<!-- Node8 -->
<g id="Node000008" class="node">
<title>Node8</title>
<g id="a_Node000008"><a xlink:title=" ">
<polygon fill="#e0e0e0" stroke="#999999" points="355.13,-19 311.13,-19 311.13,0 355.13,0 355.13,-19"/>
<text text-anchor="middle" x="333.13" y="-7" font-family="Helvetica,sans-Serif" font-size="10.00">string</text>
</a>
</g>
</g>
<!-- Node7&#45;&gt;Node8 -->
<g id="edge11_Node000007_Node000008" class="edge">
<title>Node7&#45;&gt;Node8</title>
<g id="a_edge11_Node000007_Node000008"><a xlink:title=" ">
<path fill="none" stroke="#63b8ff" d="M333.13,-54.75C333.13,-47.8 333.13,-37.85 333.13,-29.13"/>
<polygon fill="#63b8ff" stroke="#63b8ff" points="336.63,-29.09 333.13,-19.09 329.63,-29.09 336.63,-29.09"/>
</a>
</g>
</g>
<!-- Node10 -->
<g id="Node000010" class="node">
<title>Node10</title>
<g id="a_Node000010"><a xlink:title=" ">
<polygon fill="#e0e0e0" stroke="#999999" points="464.13,-74 414.13,-74 414.13,-55 464.13,-55 464.13,-74"/>
<text text-anchor="middle" x="439.13" y="-62" font-family="Helvetica,sans-Serif" font-size="10.00">atomic</text>
</a>
</g>
</g>
<!-- Node9&#45;&gt;Node10 -->
<g id="edge13_Node000009_Node000010" class="edge">
<title>Node9&#45;&gt;Node10</title>
<g id="a_edge13_Node000009_Node000010"><a xlink:title=" ">
<path fill="none" stroke="#63b8ff" d="M371.99,-109.98C384.28,-101.84 403.04,-89.41 417.61,-79.76"/>
<polygon fill="#63b8ff" stroke="#63b8ff" points="419.64,-82.61 426.05,-74.17 415.78,-76.78 419.64,-82.61"/>
</a>
</g>
</g>
</g>
</svg>
