<?xml version="1.0" encoding="UTF-8" standalone="no"?>
<!DOCTYPE svg PUBLIC "-//W3C//DTD SVG 1.1//EN"
 "http://www.w3.org/Graphics/SVG/1.1/DTD/svg11.dtd">
<!-- Generated by graphviz version 2.43.0 (0)
 -->
<!-- Title: SpawnCommand.ixx Pages: 1 -->
<svg width="1122pt" height="335pt"
 viewBox="0.00 0.00 1122.00 335.00" xmlns="http://www.w3.org/2000/svg" xmlns:xlink="http://www.w3.org/1999/xlink">
<g id="graph0" class="graph" transform="scale(1 1) rotate(0) translate(4 331)">
<title>SpawnCommand.ixx</title>
<!-- Node1 -->
<g id="Node000001" class="node">
<title>Node1</title>
<g id="a_Node000001"><a xlink:title="Command for requesting GameObject spawning from a pool.">
<polygon fill="#999999" stroke="#666666" points="354,-327 237,-327 237,-308 354,-308 354,-327"/>
<text text-anchor="middle" x="295.5" y="-315" font-family="Helvetica,sans-Serif" font-size="10.00">SpawnCommand.ixx</text>
</a>
</g>
</g>
<!-- Node2 -->
<g id="Node000002" class="node">
<title>Node2</title>
<g id="a_Node000002"><a xlink:title=" ">
<polygon fill="#e0e0e0" stroke="#999999" points="88.5,-266.5 36.5,-266.5 36.5,-247.5 88.5,-247.5 88.5,-266.5"/>
<text text-anchor="middle" x="62.5" y="-254.5" font-family="Helvetica,sans-Serif" font-size="10.00">cassert</text>
</a>
</g>
</g>
<!-- Node1&#45;&gt;Node2 -->
<g id="edge1_Node000001_Node000002" class="edge">
<title>Node1&#45;&gt;Node2</title>
<g id="a_edge1_Node000001_Node000002"><a xlink:title=" ">
<path fill="none" stroke="#63b8ff" d="M247.73,-307.98C207.28,-300.24 147.98,-287.66 97.5,-272 95.62,-271.42 93.71,-270.78 91.79,-270.11"/>
<polygon fill="#63b8ff" stroke="#63b8ff" points="92.88,-266.78 82.29,-266.55 90.43,-273.34 92.88,-266.78"/>
</a>
</g>
</g>
<!-- Node3 -->
<g id="Node000003" class="node">
<title>Node3</title>
<g id="a_Node000003"><a xlink:title=" ">
<polygon fill="#e0e0e0" stroke="#999999" points="168.5,-266.5 106.5,-266.5 106.5,-247.5 168.5,-247.5 168.5,-266.5"/>
<text text-anchor="middle" x="137.5" y="-254.5" font-family="Helvetica,sans-Serif" font-size="10.00">cinttypes</text>
</a>
</g>
</g>
<!-- Node1&#45;&gt;Node3 -->
<g id="edge2_Node000001_Node000003" class="edge">
<title>Node1&#45;&gt;Node3</title>
<g id="a_edge2_Node000001_Node000003"><a xlink:title=" ">
<path fill="none" stroke="#63b8ff" d="M272.53,-307.99C245.61,-298.03 200.83,-281.45 170.27,-270.13"/>
<polygon fill="#63b8ff" stroke="#63b8ff" points="171.1,-266.71 160.5,-266.52 168.66,-273.27 171.1,-266.71"/>
</a>
</g>
</g>
<!-- Node4 -->
<g id="Node000004" class="node">
<title>Node4</title>
<g id="a_Node000004"><a xlink:title=" ">
<polygon fill="#e0e0e0" stroke="#999999" points="248.5,-266.5 186.5,-266.5 186.5,-247.5 248.5,-247.5 248.5,-266.5"/>
<text text-anchor="middle" x="217.5" y="-254.5" font-family="Helvetica,sans-Serif" font-size="10.00">expected</text>
</a>
</g>
</g>
<!-- Node1&#45;&gt;Node4 -->
<g id="edge3_Node000001_Node000004" class="edge">
<title>Node1&#45;&gt;Node4</title>
<g id="a_edge3_Node000001_Node000004"><a xlink:title=" ">
<path fill="none" stroke="#63b8ff" d="M283.99,-307.87C271.66,-298.62 251.88,-283.78 237.09,-272.69"/>
<polygon fill="#63b8ff" stroke="#63b8ff" points="239.16,-269.87 229.06,-266.67 234.96,-275.47 239.16,-269.87"/>
</a>
</g>
</g>
<!-- Node5 -->
<g id="Node000005" class="node">
<title>Node5</title>
<g id="a_Node000005"><a xlink:href="SpawnProfileId_8ixx.html" target="_top" xlink:title="Strongly&#45;typed identifier for SpawnProfile instances.">
<polygon fill="white" stroke="#666666" points="286.5,-140 152.5,-140 152.5,-110 286.5,-110 286.5,-140"/>
<text text-anchor="start" x="160.5" y="-128" font-family="Helvetica,sans-Serif" font-size="10.00">helios.engine.core.data.</text>
<text text-anchor="middle" x="219.5" y="-117" font-family="Helvetica,sans-Serif" font-size="10.00">SpawnProfileId</text>
</a>
</g>
</g>
<!-- Node1&#45;&gt;Node5 -->
<g id="edge4_Node000001_Node000005" class="edge">
<title>Node1&#45;&gt;Node5</title>
<g id="a_edge4_Node000001_Node000005"><a xlink:title=" ">
<path fill="none" stroke="#63b8ff" d="M292.04,-307.82C280.91,-279.92 245.79,-191.9 228.84,-149.41"/>
<polygon fill="#63b8ff" stroke="#63b8ff" points="232.09,-148.11 225.13,-140.12 225.59,-150.71 232.09,-148.11"/>
</a>
</g>
</g>
<!-- Node11 -->
<g id="Node000011" class="node">
<title>Node11</title>
<g id="a_Node000011"><a xlink:href="helios_2math_2types_2__module_8ixx.html" target="_top" xlink:title="Module exports for vector and matrix type definitions.">
<polygon fill="white" stroke="#666666" points="494.5,-74 390.5,-74 390.5,-55 494.5,-55 494.5,-74"/>
<text text-anchor="middle" x="442.5" y="-62" font-family="Helvetica,sans-Serif" font-size="10.00">helios.math.types</text>
</a>
</g>
</g>
<!-- Node1&#45;&gt;Node11 -->
<g id="edge11_Node000001_Node000011" class="edge">
<title>Node1&#45;&gt;Node11</title>
<g id="a_edge11_Node000001_Node000011"><a xlink:title=" ">
<path fill="none" stroke="#63b8ff" d="M299.72,-307.66C306.5,-293.58 320.4,-265.28 333.5,-242 367.11,-182.26 410.99,-113.8 431.29,-82.6"/>
<polygon fill="#63b8ff" stroke="#63b8ff" points="434.26,-84.45 436.8,-74.16 428.4,-80.62 434.26,-84.45"/>
</a>
</g>
</g>
<!-- Node12 -->
<g id="Node000012" class="node">
<title>Node12</title>
<g id="a_Node000012"><a xlink:href="WorldCommandDispatcher_8ixx.html" target="_top" xlink:title="Abstract dispatcher interface for WorldCommand handling.">
<polygon fill="white" stroke="#666666" points="576.5,-272 342.5,-272 342.5,-242 576.5,-242 576.5,-272"/>
<text text-anchor="start" x="350.5" y="-260" font-family="Helvetica,sans-Serif" font-size="10.00">helios.engine.runtime.messaging.command.</text>
<text text-anchor="middle" x="459.5" y="-249" font-family="Helvetica,sans-Serif" font-size="10.00">WorldCommandDispatcher</text>
</a>
</g>
</g>
<!-- Node1&#45;&gt;Node12 -->
<g id="edge13_Node000001_Node000012" class="edge">
<title>Node1&#45;&gt;Node12</title>
<g id="a_edge13_Node000001_Node000012"><a xlink:title=" ">
<path fill="none" stroke="#63b8ff" d="M319.35,-307.99C343.16,-299.5 380.44,-286.2 410.57,-275.45"/>
<polygon fill="#63b8ff" stroke="#63b8ff" points="411.83,-278.72 420.07,-272.06 409.48,-272.13 411.83,-278.72"/>
</a>
</g>
</g>
<!-- Node13 -->
<g id="Node000013" class="node">
<title>Node13</title>
<g id="a_Node000013"><a xlink:href="WorldCommand_8ixx.html" target="_top" xlink:title="Abstract base class for commands operating on the entire GameWorld.">
<polygon fill="white" stroke="#666666" points="828.5,-272 594.5,-272 594.5,-242 828.5,-242 828.5,-272"/>
<text text-anchor="start" x="602.5" y="-260" font-family="Helvetica,sans-Serif" font-size="10.00">helios.engine.runtime.messaging.command.</text>
<text text-anchor="middle" x="711.5" y="-249" font-family="Helvetica,sans-Serif" font-size="10.00">WorldCommand</text>
</a>
</g>
</g>
<!-- Node1&#45;&gt;Node13 -->
<g id="edge14_Node000001_Node000013" class="edge">
<title>Node1&#45;&gt;Node13</title>
<g id="a_edge14_Node000001_Node000013"><a xlink:title=" ">
<path fill="none" stroke="#63b8ff" d="M354.22,-308.24C418.33,-299.23 522.44,-284.59 601.77,-273.43"/>
<polygon fill="#63b8ff" stroke="#63b8ff" points="602.4,-276.88 611.81,-272.02 601.42,-269.95 602.4,-276.88"/>
</a>
</g>
</g>
<!-- Node14 -->
<g id="Node000014" class="node">
<title>Node14</title>
<g id="a_Node000014"><a xlink:href="SpawnContext_8ixx.html" target="_top" xlink:title="Context data passed to spawn behaviors during entity initialization.">
<polygon fill="white" stroke="#666666" points="1008,-272 847,-272 847,-242 1008,-242 1008,-272"/>
<text text-anchor="start" x="855" y="-260" font-family="Helvetica,sans-Serif" font-size="10.00">helios.engine.runtime.spawn.</text>
<text text-anchor="middle" x="927.5" y="-249" font-family="Helvetica,sans-Serif" font-size="10.00">SpawnContext</text>
</a>
</g>
</g>
<!-- Node1&#45;&gt;Node14 -->
<g id="edge15_Node000001_Node000014" class="edge">
<title>Node1&#45;&gt;Node14</title>
<g id="a_edge15_Node000001_Node000014"><a xlink:title=" ">
<path fill="none" stroke="#63b8ff" d="M354.19,-313.08C451.99,-307.07 654.68,-293.31 836.57,-272.05"/>
<polygon fill="#63b8ff" stroke="#63b8ff" points="837.06,-275.52 846.58,-270.87 836.24,-268.57 837.06,-275.52"/>
</a>
</g>
</g>
<!-- Node6 -->
<g id="Node000006" class="node">
<title>Node6</title>
<g id="a_Node000006"><a xlink:title=" ">
<polygon fill="#e0e0e0" stroke="#999999" points="387.5,-19 337.5,-19 337.5,0 387.5,0 387.5,-19"/>
<text text-anchor="middle" x="362.5" y="-7" font-family="Helvetica,sans-Serif" font-size="10.00">cstdint</text>
</a>
</g>
</g>
<!-- Node5&#45;&gt;Node6 -->
<g id="edge5_Node000005_Node000006" class="edge">
<title>Node5&#45;&gt;Node6</title>
<g id="a_edge5_Node000005_Node000006"><a xlink:title=" ">
<path fill="none" stroke="#63b8ff" d="M284.42,-109.93C305.75,-102.42 327.94,-91.07 343.5,-74 354.64,-61.77 359.26,-43.26 361.17,-29.37"/>
<polygon fill="#63b8ff" stroke="#63b8ff" points="364.69,-29.33 362.22,-19.03 357.73,-28.63 364.69,-29.33"/>
</a>
</g>
</g>
<!-- Node7 -->
<g id="Node000007" class="node">
<title>Node7</title>
<g id="a_Node000007"><a xlink:title=" ">
<polygon fill="#e0e0e0" stroke="#999999" points="73,-74 0,-74 0,-55 73,-55 73,-74"/>
<text text-anchor="middle" x="36.5" y="-62" font-family="Helvetica,sans-Serif" font-size="10.00">string_view</text>
</a>
</g>
</g>
<!-- Node5&#45;&gt;Node7 -->
<g id="edge6_Node000005_Node000007" class="edge">
<title>Node5&#45;&gt;Node7</title>
<g id="a_edge6_Node000005_Node000007"><a xlink:title=" ">
<path fill="none" stroke="#63b8ff" d="M175.67,-109.99C144.36,-99.98 102.72,-86.67 73.17,-77.22"/>
<polygon fill="#63b8ff" stroke="#63b8ff" points="73.85,-73.76 63.26,-74.05 71.72,-80.43 73.85,-73.76"/>
</a>
</g>
</g>
<!-- Node8 -->
<g id="Node000008" class="node">
<title>Node8</title>
<g id="a_Node000008"><a xlink:href="algorithms_8ixx.html" target="_top" xlink:title="Core algorithms and hash functions for the helios engine.">
<polygon fill="white" stroke="#666666" points="216,-74 91,-74 91,-55 216,-55 216,-74"/>
<text text-anchor="middle" x="153.5" y="-62" font-family="Helvetica,sans-Serif" font-size="10.00">helios.core.algorithms</text>
</a>
</g>
</g>
<!-- Node5&#45;&gt;Node8 -->
<g id="edge7_Node000005_Node000008" class="edge">
<title>Node5&#45;&gt;Node8</title>
<g id="a_edge7_Node000005_Node000008"><a xlink:title=" ">
<path fill="none" stroke="#63b8ff" d="M203.52,-109.84C193.75,-101.17 181.23,-90.08 171.16,-81.15"/>
<polygon fill="#63b8ff" stroke="#63b8ff" points="173.19,-78.28 163.39,-74.27 168.55,-83.52 173.19,-78.28"/>
</a>
</g>
</g>
<!-- Node10 -->
<g id="Node000010" class="node">
<title>Node10</title>
<g id="a_Node000010"><a xlink:href="types_8ixx.html" target="_top" xlink:title="Core type definitions and tag types for the helios engine.">
<polygon fill="white" stroke="#666666" points="334.5,-74 234.5,-74 234.5,-55 334.5,-55 334.5,-74"/>
<text text-anchor="middle" x="284.5" y="-62" font-family="Helvetica,sans-Serif" font-size="10.00">helios.core.types</text>
</a>
</g>
</g>
<!-- Node5&#45;&gt;Node10 -->
<g id="edge10_Node000005_Node000010" class="edge">
<title>Node5&#45;&gt;Node10</title>
<g id="a_edge10_Node000005_Node000010"><a xlink:title=" ">
<path fill="none" stroke="#63b8ff" d="M235.23,-109.84C244.86,-101.17 257.19,-90.08 267.11,-81.15"/>
<polygon fill="#63b8ff" stroke="#63b8ff" points="269.67,-83.56 274.76,-74.27 264.99,-78.35 269.67,-83.56"/>
</a>
</g>
</g>
<!-- Node8&#45;&gt;Node6 -->
<g id="edge8_Node000008_Node000006" class="edge">
<title>Node8&#45;&gt;Node6</title>
<g id="a_edge8_Node000008_Node000006"><a xlink:title=" ">
<path fill="none" stroke="#63b8ff" d="M187.08,-54.98C225.53,-45.23 288.23,-29.33 327.34,-19.42"/>
<polygon fill="#63b8ff" stroke="#63b8ff" points="328.39,-22.76 337.22,-16.91 326.67,-15.98 328.39,-22.76"/>
</a>
</g>
</g>
<!-- Node9 -->
<g id="Node000009" class="node">
<title>Node9</title>
<g id="a_Node000009"><a xlink:title=" ">
<polygon fill="#e0e0e0" stroke="#999999" points="175.5,-19 131.5,-19 131.5,0 175.5,0 175.5,-19"/>
<text text-anchor="middle" x="153.5" y="-7" font-family="Helvetica,sans-Serif" font-size="10.00">string</text>
</a>
</g>
</g>
<!-- Node8&#45;&gt;Node9 -->
<g id="edge9_Node000008_Node000009" class="edge">
<title>Node8&#45;&gt;Node9</title>
<g id="a_edge9_Node000008_Node000009"><a xlink:title=" ">
<path fill="none" stroke="#63b8ff" d="M153.5,-54.75C153.5,-47.8 153.5,-37.85 153.5,-29.13"/>
<polygon fill="#63b8ff" stroke="#63b8ff" points="157,-29.09 153.5,-19.09 150,-29.09 157,-29.09"/>
</a>
</g>
</g>
<!-- Node11&#45;&gt;Node11 -->
<g id="edge12_Node000011_Node000011" class="edge">
<title>Node11&#45;&gt;Node11</title>
<g id="a_edge12_Node000011_Node000011"><a xlink:title=" ">
<path fill="none" stroke="#63b8ff" d="M475.27,-74.03C494.5,-76.06 512.5,-72.88 512.5,-64.5 512.5,-57.62 500.39,-54.25 485.42,-54.38"/>
<polygon fill="#63b8ff" stroke="#63b8ff" points="485.05,-50.89 475.27,-54.97 485.45,-57.88 485.05,-50.89"/>
</a>
</g>
</g>
<!-- Node15 -->
<g id="Node000015" class="node">
<title>Node15</title>
<g id="a_Node000015"><a xlink:title=" ">
<polygon fill="#e0e0e0" stroke="#999999" points="828.5,-200.5 772.5,-200.5 772.5,-181.5 828.5,-181.5 828.5,-200.5"/>
<text text-anchor="middle" x="800.5" y="-188.5" font-family="Helvetica,sans-Serif" font-size="10.00">optional</text>
</a>
</g>
</g>
<!-- Node14&#45;&gt;Node15 -->
<g id="edge16_Node000014_Node000015" class="edge">
<title>Node14&#45;&gt;Node15</title>
<g id="a_edge16_Node000014_Node000015"><a xlink:title=" ">
<path fill="none" stroke="#63b8ff" d="M899.63,-241.95C877.85,-230.98 847.8,-215.83 826.51,-205.11"/>
<polygon fill="#63b8ff" stroke="#63b8ff" points="827.91,-201.89 817.4,-200.52 824.76,-208.14 827.91,-201.89"/>
</a>
</g>
</g>
<!-- Node16 -->
<g id="Node000016" class="node">
<title>Node16</title>
<g id="a_Node000016"><a xlink:href="EmitterContext_8ixx.html" target="_top" xlink:title="Context data from the entity that triggered a spawn.">
<polygon fill="white" stroke="#666666" points="1008,-206 847,-206 847,-176 1008,-176 1008,-206"/>
<text text-anchor="start" x="855" y="-194" font-family="Helvetica,sans-Serif" font-size="10.00">helios.engine.runtime.spawn.</text>
<text text-anchor="middle" x="927.5" y="-183" font-family="Helvetica,sans-Serif" font-size="10.00">EmitterContext</text>
</a>
</g>
</g>
<!-- Node14&#45;&gt;Node16 -->
<g id="edge17_Node000014_Node000016" class="edge">
<title>Node14&#45;&gt;Node16</title>
<g id="a_edge17_Node000014_Node000016"><a xlink:title=" ">
<path fill="none" stroke="#63b8ff" d="M927.5,-241.8C927.5,-234.34 927.5,-224.99 927.5,-216.41"/>
<polygon fill="#63b8ff" stroke="#63b8ff" points="931,-216.16 927.5,-206.16 924,-216.16 931,-216.16"/>
</a>
</g>
</g>
<!-- Node17 -->
<g id="Node000017" class="node">
<title>Node17</title>
<g id="a_Node000017"><a xlink:href="helios_2math_2__module_8ixx.html" target="_top" xlink:title="Module exports for mathematical types and utilities.">
<polygon fill="white" stroke="#666666" points="873.5,-134.5 799.5,-134.5 799.5,-115.5 873.5,-115.5 873.5,-134.5"/>
<text text-anchor="middle" x="836.5" y="-122.5" font-family="Helvetica,sans-Serif" font-size="10.00">helios.math</text>
</a>
</g>
</g>
<!-- Node16&#45;&gt;Node17 -->
<g id="edge18_Node000016_Node000017" class="edge">
<title>Node16&#45;&gt;Node17</title>
<g id="a_edge18_Node000016_Node000017"><a xlink:title=" ">
<path fill="none" stroke="#63b8ff" d="M907.3,-175.8C892.47,-165.37 872.39,-151.24 857.39,-140.69"/>
<polygon fill="#63b8ff" stroke="#63b8ff" points="859,-137.55 848.81,-134.66 854.98,-143.27 859,-137.55"/>
</a>
</g>
</g>
<!-- Node17&#45;&gt;Node11 -->
<g id="edge23_Node000017_Node000011" class="edge">
<title>Node17&#45;&gt;Node11</title>
<g id="a_edge23_Node000017_Node000011"><a xlink:title=" ">
<path fill="none" stroke="#63b8ff" d="M799.43,-118.5C731.76,-108.45 587.55,-87.04 504.64,-74.73"/>
<polygon fill="#63b8ff" stroke="#63b8ff" points="505,-71.24 494.59,-73.23 503.97,-78.17 505,-71.24"/>
</a>
</g>
</g>
<!-- Node18 -->
<g id="Node000018" class="node">
<title>Node18</title>
<g id="a_Node000018"><a xlink:href="helios_2math_2concepts_2__module_8ixx.html" target="_top" xlink:title="Math concepts module exports.">
<polygon fill="white" stroke="#666666" points="1096,-74 975,-74 975,-55 1096,-55 1096,-74"/>
<text text-anchor="middle" x="1035.5" y="-62" font-family="Helvetica,sans-Serif" font-size="10.00">helios.math.concepts</text>
</a>
</g>
</g>
<!-- Node17&#45;&gt;Node18 -->
<g id="edge19_Node000017_Node000018" class="edge">
<title>Node17&#45;&gt;Node18</title>
<g id="a_edge19_Node000017_Node000018"><a xlink:title=" ">
<path fill="none" stroke="#63b8ff" d="M865.44,-115.49C900.07,-105.31 958.2,-88.22 996.71,-76.9"/>
<polygon fill="#63b8ff" stroke="#63b8ff" points="997.92,-80.2 1006.53,-74.02 995.95,-73.48 997.92,-80.2"/>
</a>
</g>
</g>
<!-- Node19 -->
<g id="Node000019" class="node">
<title>Node19</title>
<g id="a_Node000019"><a xlink:href="helios_2math_2transform_2__module_8ixx.html" target="_top" xlink:title="Module exports for transformation utilities.">
<polygon fill="white" stroke="#666666" points="656,-74 531,-74 531,-55 656,-55 656,-74"/>
<text text-anchor="middle" x="593.5" y="-62" font-family="Helvetica,sans-Serif" font-size="10.00">helios.math.transform</text>
</a>
</g>
</g>
<!-- Node17&#45;&gt;Node19 -->
<g id="edge21_Node000017_Node000019" class="edge">
<title>Node17&#45;&gt;Node19</title>
<g id="a_edge21_Node000017_Node000019"><a xlink:title=" ">
<path fill="none" stroke="#63b8ff" d="M801.17,-115.49C758.24,-105.16 685.76,-87.71 638.78,-76.4"/>
<polygon fill="#63b8ff" stroke="#63b8ff" points="639.42,-72.95 628.88,-74.02 637.78,-79.76 639.42,-72.95"/>
</a>
</g>
</g>
<!-- Node20 -->
<g id="Node000020" class="node">
<title>Node20</title>
<g id="a_Node000020"><a xlink:href="utils_8ixx.html" target="_top" xlink:title="Misc math utility functions.">
<polygon fill="white" stroke="#666666" points="956.5,-74 858.5,-74 858.5,-55 956.5,-55 956.5,-74"/>
<text text-anchor="middle" x="907.5" y="-62" font-family="Helvetica,sans-Serif" font-size="10.00">helios.math.utils</text>
</a>
</g>
</g>
<!-- Node17&#45;&gt;Node20 -->
<g id="edge24_Node000017_Node000020" class="edge">
<title>Node17&#45;&gt;Node20</title>
<g id="a_edge24_Node000017_Node000020"><a xlink:title=" ">
<path fill="none" stroke="#63b8ff" d="M846.98,-115.37C857.99,-106.3 875.54,-91.84 888.91,-80.82"/>
<polygon fill="#63b8ff" stroke="#63b8ff" points="891.49,-83.23 896.98,-74.17 887.04,-77.83 891.49,-83.23"/>
</a>
</g>
</g>
<!-- Node22 -->
<g id="Node000022" class="node">
<title>Node22</title>
<g id="a_Node000022"><a xlink:href="TransformType_8ixx.html" target="_top" xlink:title="Defines transform inheritance flags for scene graph hierarchies.">
<polygon fill="white" stroke="#666666" points="841,-74 692,-74 692,-55 841,-55 841,-74"/>
<text text-anchor="middle" x="766.5" y="-62" font-family="Helvetica,sans-Serif" font-size="10.00">helios.math.TransformType</text>
</a>
</g>
</g>
<!-- Node17&#45;&gt;Node22 -->
<g id="edge26_Node000017_Node000022" class="edge">
<title>Node17&#45;&gt;Node22</title>
<g id="a_edge26_Node000017_Node000022"><a xlink:title=" ">
<path fill="none" stroke="#63b8ff" d="M826.17,-115.37C815.31,-106.3 798.01,-91.84 784.83,-80.82"/>
<polygon fill="#63b8ff" stroke="#63b8ff" points="786.79,-77.89 776.87,-74.17 782.3,-83.27 786.79,-77.89"/>
</a>
</g>
</g>
<!-- Node18&#45;&gt;Node18 -->
<g id="edge20_Node000018_Node000018" class="edge">
<title>Node18&#45;&gt;Node18</title>
<g id="a_edge20_Node000018_Node000018"><a xlink:title=" ">
<path fill="none" stroke="#63b8ff" d="M1072.24,-74.03C1093.81,-76.06 1114,-72.88 1114,-64.5 1114,-57.49 1099.89,-54.12 1082.67,-54.39"/>
<polygon fill="#63b8ff" stroke="#63b8ff" points="1082.03,-50.92 1072.24,-54.97 1082.42,-57.91 1082.03,-50.92"/>
</a>
</g>
</g>
<!-- Node19&#45;&gt;Node19 -->
<g id="edge22_Node000019_Node000019" class="edge">
<title>Node19&#45;&gt;Node19</title>
<g id="a_edge22_Node000019_Node000019"><a xlink:title=" ">
<path fill="none" stroke="#63b8ff" d="M631.18,-74.03C653.3,-76.06 674,-72.88 674,-64.5 674,-57.43 659.26,-54.06 641.37,-54.4"/>
<polygon fill="#63b8ff" stroke="#63b8ff" points="640.97,-50.92 631.18,-54.97 641.36,-57.9 640.97,-50.92"/>
</a>
</g>
</g>
<!-- Node21 -->
<g id="Node000021" class="node">
<title>Node21</title>
<g id="a_Node000021"><a xlink:title=" ">
<polygon fill="#e0e0e0" stroke="#999999" points="937,-19 878,-19 878,0 937,0 937,-19"/>
<text text-anchor="middle" x="907.5" y="-7" font-family="Helvetica,sans-Serif" font-size="10.00">numbers</text>
</a>
</g>
</g>
<!-- Node20&#45;&gt;Node21 -->
<g id="edge25_Node000020_Node000021" class="edge">
<title>Node20&#45;&gt;Node21</title>
<g id="a_edge25_Node000020_Node000021"><a xlink:title=" ">
<path fill="none" stroke="#63b8ff" d="M907.5,-54.75C907.5,-47.8 907.5,-37.85 907.5,-29.13"/>
<polygon fill="#63b8ff" stroke="#63b8ff" points="911,-29.09 907.5,-19.09 904,-29.09 911,-29.09"/>
</a>
</g>
</g>
<!-- Node22&#45;&gt;Node6 -->
<g id="edge27_Node000022_Node000006" class="edge">
<title>Node22&#45;&gt;Node6</title>
<g id="a_edge27_Node000022_Node000006"><a xlink:title=" ">
<path fill="none" stroke="#63b8ff" d="M701.59,-54.98C615.21,-43.65 465.49,-24.01 397.68,-15.12"/>
<polygon fill="#63b8ff" stroke="#63b8ff" points="397.89,-11.61 387.52,-13.78 396.98,-18.55 397.89,-11.61"/>
</a>
</g>
</g>
</g>
</svg>
