<?xml version="1.0" encoding="UTF-8" standalone="no"?>
<!DOCTYPE svg PUBLIC "-//W3C//DTD SVG 1.1//EN"
 "http://www.w3.org/Graphics/SVG/1.1/DTD/svg11.dtd">
<!-- Generated by graphviz version 2.43.0 (0)
 -->
<!-- Title: SpawnPlacer.ixx Pages: 1 -->
<!--zoomable 621 -->

<svg id="main" version="1.1" xmlns="http://www.w3.org/2000/svg" xmlns:xlink="http://www.w3.org/1999/xlink" xml:space="preserve" onload="init(evt)">

<style type="text/css"><![CDATA[
.node, .edge {opacity: 0.7;}
.node.selected, .edge.selected {opacity: 1;}
.edge:hover path { stroke: red; }
.edge:hover polygon { stroke: red; fill: red; }
]]></style>

<defs>
  <circle id="rim" cx="0" cy="0" r="7"/>
  <circle id="rim2" cx="0" cy="0" r="3.5"/>
  <g id="zoomPlus">
    <use xlink:href="#rim" fill="#404040"><set attributeName="fill" to="#808080" begin="zoomplus.mouseover" end="zoomplus.mouseout"/></use>
    <path d="M-4,0h8M0,-4v8" fill="none" stroke="white" stroke-width="1.5" pointer-events="none"/>
  </g>
  <g id="zoomMin">
    <use xlink:href="#rim" fill="#404040"><set attributeName="fill" to="#808080" begin="zoomminus.mouseover" end="zoomminus.mouseout"/></use>
    <path d="M-4,0h8" fill="none" stroke="white" stroke-width="1.5" pointer-events="none"/>
  </g>
  <g id="arrowUp" transform="translate(30 24)">
    <use xlink:href="#rim"/>
    <path pointer-events="none" fill="none" stroke="white" stroke-width="1.5" d="M0,-3.0v7 M-2.5,-0.5L0,-3.0L2.5,-0.5"/>
  </g>
  <g id="arrowRight" transform="rotate(90) translate(36 -43)">
    <use xlink:href="#rim"/>
    <path pointer-events="none" fill="none" stroke="white" stroke-width="1.5" d="M0,-3.0v7 M-2.5,-0.5L0,-3.0L2.5,-0.5"/>
  </g>
  <g id="arrowDown" transform="rotate(180) translate(-30 -48)">
    <use xlink:href="#rim"/>
    <path pointer-events="none" fill="none" stroke="white" stroke-width="1.5" d="M0,-3.0v7 M-2.5,-0.5L0,-3.0L2.5,-0.5"/>
  </g>
  <g id="arrowLeft" transform="rotate(270) translate(-36 17)">
    <use xlink:href="#rim"/>
    <path pointer-events="none" fill="none" stroke="white" stroke-width="1.5" d="M0,-3.0v7 M-2.5,-0.5L0,-3.0L2.5,-0.5"/>
  </g>
  <g id="resetDef">
    <use xlink:href="#rim2" fill="#404040"><set attributeName="fill" to="#808080" begin="reset.mouseover" end="reset.mouseout"/></use>
  </g>
</defs>
<script type="application/ecmascript">
var viewWidth = 1506;
var viewHeight = 621;
var sectionId = 'dynsection-0';
</script>
<script type="application/ecmascript" xlink:href="svg.min.js"/>
<svg id="graph" class="graph">
<g id="viewport">
<title>SpawnPlacer.ixx</title>
<!-- Node1 -->
<g id="Node000001" class="node">
<title>Node1</title>
<g id="a_Node000001"><a xlink:title="Abstract interface for determining spawn positions.">
<polygon fill="#999999" stroke="#666666" points="1036,-613 940,-613 940,-594 1036,-594 1036,-613"/>
<text text-anchor="middle" x="988" y="-601" font-family="Helvetica,sans-Serif" font-size="10.00">SpawnPlacer.ixx</text>
</a>
</g>
</g>
<!-- Node2 -->
<g id="Node000002" class="node">
<title>Node2</title>
<g id="a_Node000002"><a xlink:title=" ">
<polygon fill="#e0e0e0" stroke="#999999" points="780,-486.5 724,-486.5 724,-467.5 780,-467.5 780,-486.5"/>
<text text-anchor="middle" x="752" y="-474.5" font-family="Helvetica,sans-Serif" font-size="10.00">optional</text>
</a>
</g>
</g>
<!-- Node1&#45;&gt;Node2 -->
<g id="edge1_Node000001_Node000002" class="edge">
<title>Node1&#45;&gt;Node2</title>
<g id="a_edge1_Node000001_Node000002"><a xlink:title=" ">
<path fill="none" stroke="#63b8ff" d="M939.99,-596.71C888.75,-589.68 811.87,-576.45 789,-558 769.78,-542.49 760.08,-514.74 755.55,-496.34"/>
<polygon fill="#63b8ff" stroke="#63b8ff" points="758.96,-495.54 753.39,-486.52 752.12,-497.04 758.96,-495.54"/>
</a>
</g>
</g>
<!-- Node3 -->
<g id="Node000003" class="node">
<title>Node3</title>
<g id="a_Node000003"><a xlink:href="Guid_8ixx.html" target="_top" xlink:title="Lightweight GUID (globally unique identifier) implementation.">
<polygon fill="white" stroke="#666666" points="1435,-371 1345,-371 1345,-352 1435,-352 1435,-371"/>
<text text-anchor="middle" x="1390" y="-359" font-family="Helvetica,sans-Serif" font-size="10.00">helios.util.Guid</text>
</a>
</g>
</g>
<!-- Node1&#45;&gt;Node3 -->
<g id="edge2_Node000001_Node000003" class="edge">
<title>Node1&#45;&gt;Node3</title>
<g id="a_edge2_Node000001_Node000003"><a xlink:title=" ">
<path fill="none" stroke="#63b8ff" d="M993.03,-593.62C1001.98,-578.46 1022.02,-547.35 1046,-528 1143.63,-449.23 1284.95,-396.47 1351.98,-374.31"/>
<polygon fill="#63b8ff" stroke="#63b8ff" points="1353.28,-377.57 1361.7,-371.14 1351.11,-370.92 1353.28,-377.57"/>
</a>
</g>
</g>
<!-- Node7 -->
<g id="Node000007" class="node">
<title>Node7</title>
<g id="a_Node000007"><a xlink:href="helios_2math_2__module_8ixx.html" target="_top" xlink:title="Module exports for mathematical types and utilities.">
<polygon fill="white" stroke="#666666" points="957,-426 883,-426 883,-407 957,-407 957,-426"/>
<text text-anchor="middle" x="920" y="-414" font-family="Helvetica,sans-Serif" font-size="10.00">helios.math</text>
</a>
</g>
</g>
<!-- Node1&#45;&gt;Node7 -->
<g id="edge6_Node000001_Node000007" class="edge">
<title>Node1&#45;&gt;Node7</title>
<g id="a_edge6_Node000001_Node000007"><a xlink:title=" ">
<path fill="none" stroke="#63b8ff" d="M988.68,-593.99C990.13,-571.16 991.66,-507.18 968,-462 961.89,-450.32 951.45,-440.09 941.88,-432.39"/>
<polygon fill="#63b8ff" stroke="#63b8ff" points="943.9,-429.53 933.81,-426.3 939.68,-435.12 943.9,-429.53"/>
</a>
</g>
</g>
<!-- Node14 -->
<g id="Node000014" class="node">
<title>Node14</title>
<g id="a_Node000014"><a xlink:href="SpawnContext_8ixx.html" target="_top" xlink:title="Context data passed to spawn behaviors during entity initialization.">
<polygon fill="white" stroke="#666666" points="959.5,-558 798.5,-558 798.5,-528 959.5,-528 959.5,-558"/>
<text text-anchor="start" x="806.5" y="-546" font-family="Helvetica,sans-Serif" font-size="10.00">helios.engine.runtime.spawn.</text>
<text text-anchor="middle" x="879" y="-535" font-family="Helvetica,sans-Serif" font-size="10.00">SpawnContext</text>
</a>
</g>
</g>
<!-- Node1&#45;&gt;Node14 -->
<g id="edge17_Node000001_Node000014" class="edge">
<title>Node1&#45;&gt;Node14</title>
<g id="a_edge17_Node000001_Node000014"><a xlink:title=" ">
<path fill="none" stroke="#63b8ff" d="M971.92,-593.87C956.78,-585.75 933.61,-573.31 914.2,-562.89"/>
<polygon fill="#63b8ff" stroke="#63b8ff" points="915.77,-559.76 905.3,-558.11 912.46,-565.93 915.77,-559.76"/>
</a>
</g>
</g>
<!-- Node42 -->
<g id="Node000042" class="node">
<title>Node42</title>
<g id="a_Node000042"><a xlink:href="SpawnPlanCursor_8ixx.html" target="_top" xlink:title="Cursor tracking progress within a spawn batch.">
<polygon fill="white" stroke="#666666" points="1215.5,-558 1054.5,-558 1054.5,-528 1215.5,-528 1215.5,-558"/>
<text text-anchor="start" x="1062.5" y="-546" font-family="Helvetica,sans-Serif" font-size="10.00">helios.engine.runtime.spawn.</text>
<text text-anchor="middle" x="1135" y="-535" font-family="Helvetica,sans-Serif" font-size="10.00">SpawnPlanCursor</text>
</a>
</g>
</g>
<!-- Node1&#45;&gt;Node42 -->
<g id="edge66_Node000001_Node000042" class="edge">
<title>Node1&#45;&gt;Node42</title>
<g id="a_edge66_Node000001_Node000042"><a xlink:title=" ">
<path fill="none" stroke="#63b8ff" d="M1009.38,-593.99C1030.44,-585.61 1063.27,-572.55 1090.08,-561.87"/>
<polygon fill="#63b8ff" stroke="#63b8ff" points="1091.66,-565.01 1099.66,-558.06 1089.07,-558.51 1091.66,-565.01"/>
</a>
</g>
</g>
<!-- Node4 -->
<g id="Node000004" class="node">
<title>Node4</title>
<g id="a_Node000004"><a xlink:title=" ">
<polygon fill="#e0e0e0" stroke="#999999" points="1380,-310.5 1330,-310.5 1330,-291.5 1380,-291.5 1380,-310.5"/>
<text text-anchor="middle" x="1355" y="-298.5" font-family="Helvetica,sans-Serif" font-size="10.00">atomic</text>
</a>
</g>
</g>
<!-- Node3&#45;&gt;Node4 -->
<g id="edge3_Node000003_Node000004" class="edge">
<title>Node3&#45;&gt;Node4</title>
<g id="a_edge3_Node000003_Node000004"><a xlink:title=" ">
<path fill="none" stroke="#63b8ff" d="M1384.84,-351.87C1379.77,-343.4 1371.9,-330.24 1365.51,-319.57"/>
<polygon fill="#63b8ff" stroke="#63b8ff" points="1368.32,-317.45 1360.19,-310.67 1362.32,-321.05 1368.32,-317.45"/>
</a>
</g>
</g>
<!-- Node5 -->
<g id="Node000005" class="node">
<title>Node5</title>
<g id="a_Node000005"><a xlink:title=" ">
<polygon fill="#e0e0e0" stroke="#999999" points="1277,-310.5 1227,-310.5 1227,-291.5 1277,-291.5 1277,-310.5"/>
<text text-anchor="middle" x="1252" y="-298.5" font-family="Helvetica,sans-Serif" font-size="10.00">cstdint</text>
</a>
</g>
</g>
<!-- Node3&#45;&gt;Node5 -->
<g id="edge4_Node000003_Node000005" class="edge">
<title>Node3&#45;&gt;Node5</title>
<g id="a_edge4_Node000003_Node000005"><a xlink:title=" ">
<path fill="none" stroke="#63b8ff" d="M1369.93,-351.99C1346.63,-342.12 1307.99,-325.73 1281.32,-314.43"/>
<polygon fill="#63b8ff" stroke="#63b8ff" points="1282.66,-311.2 1272.09,-310.52 1279.93,-317.64 1282.66,-311.2"/>
</a>
</g>
</g>
<!-- Node6 -->
<g id="Node000006" class="node">
<title>Node6</title>
<g id="a_Node000006"><a xlink:href="types_8ixx.html" target="_top" xlink:title="Core type definitions and tag types for the helios engine.">
<polygon fill="white" stroke="#666666" points="1498,-310.5 1398,-310.5 1398,-291.5 1498,-291.5 1498,-310.5"/>
<text text-anchor="middle" x="1448" y="-298.5" font-family="Helvetica,sans-Serif" font-size="10.00">helios.core.types</text>
</a>
</g>
</g>
<!-- Node3&#45;&gt;Node6 -->
<g id="edge5_Node000003_Node000006" class="edge">
<title>Node3&#45;&gt;Node6</title>
<g id="a_edge5_Node000003_Node000006"><a xlink:title=" ">
<path fill="none" stroke="#63b8ff" d="M1398.56,-351.87C1407.38,-342.97 1421.34,-328.89 1432.18,-317.95"/>
<polygon fill="#63b8ff" stroke="#63b8ff" points="1434.85,-320.23 1439.41,-310.67 1429.88,-315.3 1434.85,-320.23"/>
</a>
</g>
</g>
<!-- Node8 -->
<g id="Node000008" class="node">
<title>Node8</title>
<g id="a_Node000008"><a xlink:href="helios_2math_2concepts_2__module_8ixx.html" target="_top" xlink:title="Math concepts module exports.">
<polygon fill="white" stroke="#666666" points="980.5,-371 859.5,-371 859.5,-352 980.5,-352 980.5,-371"/>
<text text-anchor="middle" x="920" y="-359" font-family="Helvetica,sans-Serif" font-size="10.00">helios.math.concepts</text>
</a>
</g>
</g>
<!-- Node7&#45;&gt;Node8 -->
<g id="edge7_Node000007_Node000008" class="edge">
<title>Node7&#45;&gt;Node8</title>
<g id="a_edge7_Node000007_Node000008"><a xlink:title=" ">
<path fill="none" stroke="#63b8ff" d="M920,-406.75C920,-399.8 920,-389.85 920,-381.13"/>
<polygon fill="#63b8ff" stroke="#63b8ff" points="923.5,-381.09 920,-371.09 916.5,-381.09 923.5,-381.09"/>
</a>
</g>
</g>
<!-- Node9 -->
<g id="Node000009" class="node">
<title>Node9</title>
<g id="a_Node000009"><a xlink:href="helios_2math_2transform_2__module_8ixx.html" target="_top" xlink:title="Module exports for transformation utilities.">
<polygon fill="white" stroke="#666666" points="1141.5,-371 1016.5,-371 1016.5,-352 1141.5,-352 1141.5,-371"/>
<text text-anchor="middle" x="1079" y="-359" font-family="Helvetica,sans-Serif" font-size="10.00">helios.math.transform</text>
</a>
</g>
</g>
<!-- Node7&#45;&gt;Node9 -->
<g id="edge9_Node000007_Node000009" class="edge">
<title>Node7&#45;&gt;Node9</title>
<g id="a_edge9_Node000007_Node000009"><a xlink:title=" ">
<path fill="none" stroke="#63b8ff" d="M945.55,-406.98C972.12,-398.13 1013.94,-384.19 1043.67,-374.28"/>
<polygon fill="#63b8ff" stroke="#63b8ff" points="1044.87,-377.56 1053.25,-371.08 1042.66,-370.92 1044.87,-377.56"/>
</a>
</g>
</g>
<!-- Node10 -->
<g id="Node000010" class="node">
<title>Node10</title>
<g id="a_Node000010"><a xlink:href="helios_2math_2types_2__module_8ixx.html" target="_top" xlink:title="Module exports for vector and matrix type definitions.">
<polygon fill="white" stroke="#666666" points="588,-310.5 484,-310.5 484,-291.5 588,-291.5 588,-310.5"/>
<text text-anchor="middle" x="536" y="-298.5" font-family="Helvetica,sans-Serif" font-size="10.00">helios.math.types</text>
</a>
</g>
</g>
<!-- Node7&#45;&gt;Node10 -->
<g id="edge11_Node000007_Node000010" class="edge">
<title>Node7&#45;&gt;Node10</title>
<g id="a_edge11_Node000007_Node000010"><a xlink:title=" ">
<path fill="none" stroke="#63b8ff" d="M882.92,-413.06C811.09,-407.87 655.85,-394.28 608,-371 583.04,-358.85 561.11,-334.86 548.2,-318.62"/>
<polygon fill="#63b8ff" stroke="#63b8ff" points="550.85,-316.33 541.99,-310.52 545.3,-320.59 550.85,-316.33"/>
</a>
</g>
</g>
<!-- Node11 -->
<g id="Node000011" class="node">
<title>Node11</title>
<g id="a_Node000011"><a xlink:href="utils_8ixx.html" target="_top" xlink:title="Misc math utility functions.">
<polygon fill="white" stroke="#666666" points="841,-371 743,-371 743,-352 841,-352 841,-371"/>
<text text-anchor="middle" x="792" y="-359" font-family="Helvetica,sans-Serif" font-size="10.00">helios.math.utils</text>
</a>
</g>
</g>
<!-- Node7&#45;&gt;Node11 -->
<g id="edge13_Node000007_Node000011" class="edge">
<title>Node7&#45;&gt;Node11</title>
<g id="a_edge13_Node000007_Node000011"><a xlink:title=" ">
<path fill="none" stroke="#63b8ff" d="M899.43,-406.98C878.57,-398.34 846.03,-384.87 822.23,-375.02"/>
<polygon fill="#63b8ff" stroke="#63b8ff" points="823.52,-371.76 812.94,-371.17 820.84,-378.23 823.52,-371.76"/>
</a>
</g>
</g>
<!-- Node13 -->
<g id="Node000013" class="node">
<title>Node13</title>
<g id="a_Node000013"><a xlink:href="TransformType_8ixx.html" target="_top" xlink:title="Defines transform inheritance flags for scene graph hierarchies.">
<polygon fill="white" stroke="#666666" points="1326.5,-371 1177.5,-371 1177.5,-352 1326.5,-352 1326.5,-371"/>
<text text-anchor="middle" x="1252" y="-359" font-family="Helvetica,sans-Serif" font-size="10.00">helios.math.TransformType</text>
</a>
</g>
</g>
<!-- Node7&#45;&gt;Node13 -->
<g id="edge15_Node000007_Node000013" class="edge">
<title>Node7&#45;&gt;Node13</title>
<g id="a_edge15_Node000007_Node000013"><a xlink:title=" ">
<path fill="none" stroke="#63b8ff" d="M957.12,-409.57C1013.13,-400.63 1119.97,-383.58 1188.5,-372.64"/>
<polygon fill="#63b8ff" stroke="#63b8ff" points="1189.42,-376.03 1198.74,-371 1188.32,-369.12 1189.42,-376.03"/>
</a>
</g>
</g>
<!-- Node8&#45;&gt;Node8 -->
<g id="edge8_Node000008_Node000008" class="edge">
<title>Node8&#45;&gt;Node8</title>
<g id="a_edge8_Node000008_Node000008"><a xlink:title=" ">
<path fill="none" stroke="#63b8ff" d="M956.74,-371.03C978.31,-373.06 998.5,-369.88 998.5,-361.5 998.5,-354.49 984.39,-351.12 967.17,-351.39"/>
<polygon fill="#63b8ff" stroke="#63b8ff" points="966.53,-347.92 956.74,-351.97 966.92,-354.91 966.53,-347.92"/>
</a>
</g>
</g>
<!-- Node9&#45;&gt;Node9 -->
<g id="edge10_Node000009_Node000009" class="edge">
<title>Node9&#45;&gt;Node9</title>
<g id="a_edge10_Node000009_Node000009"><a xlink:title=" ">
<path fill="none" stroke="#63b8ff" d="M1116.68,-371.03C1138.8,-373.06 1159.5,-369.88 1159.5,-361.5 1159.5,-354.43 1144.76,-351.06 1126.87,-351.4"/>
<polygon fill="#63b8ff" stroke="#63b8ff" points="1126.47,-347.92 1116.68,-351.97 1126.86,-354.9 1126.47,-347.92"/>
</a>
</g>
</g>
<!-- Node10&#45;&gt;Node10 -->
<g id="edge12_Node000010_Node000010" class="edge">
<title>Node10&#45;&gt;Node10</title>
<g id="a_edge12_Node000010_Node000010"><a xlink:title=" ">
<path fill="none" stroke="#63b8ff" d="M561.85,-310.53C583.44,-314.61 606,-311.43 606,-301 606,-292.2 589.94,-288.56 571.95,-290.09"/>
<polygon fill="#63b8ff" stroke="#63b8ff" points="571.28,-286.65 561.85,-291.47 572.23,-293.58 571.28,-286.65"/>
</a>
</g>
</g>
<!-- Node12 -->
<g id="Node000012" class="node">
<title>Node12</title>
<g id="a_Node000012"><a xlink:title=" ">
<polygon fill="#e0e0e0" stroke="#999999" points="821.5,-310.5 762.5,-310.5 762.5,-291.5 821.5,-291.5 821.5,-310.5"/>
<text text-anchor="middle" x="792" y="-298.5" font-family="Helvetica,sans-Serif" font-size="10.00">numbers</text>
</a>
</g>
</g>
<!-- Node11&#45;&gt;Node12 -->
<g id="edge14_Node000011_Node000012" class="edge">
<title>Node11&#45;&gt;Node12</title>
<g id="a_edge14_Node000011_Node000012"><a xlink:title=" ">
<path fill="none" stroke="#63b8ff" d="M792,-351.87C792,-343.75 792,-331.31 792,-320.89"/>
<polygon fill="#63b8ff" stroke="#63b8ff" points="795.5,-320.67 792,-310.67 788.5,-320.67 795.5,-320.67"/>
</a>
</g>
</g>
<!-- Node13&#45;&gt;Node5 -->
<g id="edge16_Node000013_Node000005" class="edge">
<title>Node13&#45;&gt;Node5</title>
<g id="a_edge16_Node000013_Node000005"><a xlink:title=" ">
<path fill="none" stroke="#63b8ff" d="M1252,-351.87C1252,-343.75 1252,-331.31 1252,-320.89"/>
<polygon fill="#63b8ff" stroke="#63b8ff" points="1255.5,-320.67 1252,-310.67 1248.5,-320.67 1255.5,-320.67"/>
</a>
</g>
</g>
<!-- Node14&#45;&gt;Node2 -->
<g id="edge18_Node000014_Node000002" class="edge">
<title>Node14&#45;&gt;Node2</title>
<g id="a_edge18_Node000014_Node000002"><a xlink:title=" ">
<path fill="none" stroke="#63b8ff" d="M851.13,-527.95C829.35,-516.98 799.3,-501.83 778.01,-491.11"/>
<polygon fill="#63b8ff" stroke="#63b8ff" points="779.41,-487.89 768.9,-486.52 776.26,-494.14 779.41,-487.89"/>
</a>
</g>
</g>
<!-- Node15 -->
<g id="Node000015" class="node">
<title>Node15</title>
<g id="a_Node000015"><a xlink:href="EmitterContext_8ixx.html" target="_top" xlink:title="Context data from the entity that triggered a spawn.">
<polygon fill="white" stroke="#666666" points="959.5,-492 798.5,-492 798.5,-462 959.5,-462 959.5,-492"/>
<text text-anchor="start" x="806.5" y="-480" font-family="Helvetica,sans-Serif" font-size="10.00">helios.engine.runtime.spawn.</text>
<text text-anchor="middle" x="879" y="-469" font-family="Helvetica,sans-Serif" font-size="10.00">EmitterContext</text>
</a>
</g>
</g>
<!-- Node14&#45;&gt;Node15 -->
<g id="edge19_Node000014_Node000015" class="edge">
<title>Node14&#45;&gt;Node15</title>
<g id="a_edge19_Node000014_Node000015"><a xlink:title=" ">
<path fill="none" stroke="#63b8ff" d="M879,-527.8C879,-520.34 879,-510.99 879,-502.41"/>
<polygon fill="#63b8ff" stroke="#63b8ff" points="882.5,-502.16 879,-492.16 875.5,-502.16 882.5,-502.16"/>
</a>
</g>
</g>
<!-- Node15&#45;&gt;Node7 -->
<g id="edge65_Node000015_Node000007" class="edge">
<title>Node15&#45;&gt;Node7</title>
<g id="a_edge65_Node000015_Node000007"><a xlink:title=" ">
<path fill="none" stroke="#63b8ff" d="M888.92,-461.84C894.69,-453.61 902,-443.18 908.08,-434.51"/>
<polygon fill="#63b8ff" stroke="#63b8ff" points="910.98,-436.46 913.86,-426.27 905.25,-432.45 910.98,-436.46"/>
</a>
</g>
</g>
<!-- Node16 -->
<g id="Node000016" class="node">
<title>Node16</title>
<g id="a_Node000016"><a xlink:href="helios_2util_2__module_8ixx.html" target="_top" xlink:title="Module exports for non&#45;domain&#45;specific utility functions.">
<polygon fill="white" stroke="#666666" points="544.5,-426 479.5,-426 479.5,-407 544.5,-407 544.5,-426"/>
<text text-anchor="middle" x="512" y="-414" font-family="Helvetica,sans-Serif" font-size="10.00">helios.util</text>
</a>
</g>
</g>
<!-- Node15&#45;&gt;Node16 -->
<g id="edge20_Node000015_Node000016" class="edge">
<title>Node15&#45;&gt;Node16</title>
<g id="a_edge20_Node000015_Node000016"><a xlink:title=" ">
<path fill="none" stroke="#63b8ff" d="M798.46,-463.16C723.42,-451.2 614.41,-433.82 554.83,-424.33"/>
<polygon fill="#63b8ff" stroke="#63b8ff" points="555.08,-420.82 544.65,-422.7 553.98,-427.74 555.08,-420.82"/>
</a>
</g>
</g>
<!-- Node16&#45;&gt;Node3 -->
<g id="edge64_Node000016_Node000003" class="edge">
<title>Node16&#45;&gt;Node3</title>
<g id="a_edge64_Node000016_Node000003"><a xlink:title=" ">
<path fill="none" stroke="#63b8ff" d="M544.68,-414.93C654.62,-412.78 1021.33,-403.53 1334.77,-371.01"/>
<polygon fill="#63b8ff" stroke="#63b8ff" points="1335.38,-374.46 1344.96,-369.94 1334.65,-367.5 1335.38,-374.46"/>
</a>
</g>
</g>
<!-- Node17 -->
<g id="Node000017" class="node">
<title>Node17</title>
<g id="a_Node000017"><a xlink:href="helios_2util_2time_2__module_8ixx.html" target="_top" xlink:title=" ">
<polygon fill="white" stroke="#666666" points="251,-371 161,-371 161,-352 251,-352 251,-371"/>
<text text-anchor="middle" x="206" y="-359" font-family="Helvetica,sans-Serif" font-size="10.00">helios.util.time</text>
</a>
</g>
</g>
<!-- Node16&#45;&gt;Node17 -->
<g id="edge21_Node000016_Node000017" class="edge">
<title>Node16&#45;&gt;Node17</title>
<g id="a_edge21_Node000016_Node000017"><a xlink:title=" ">
<path fill="none" stroke="#63b8ff" d="M479.25,-409.83C427.19,-400.81 324.93,-383.1 261.34,-372.09"/>
<polygon fill="#63b8ff" stroke="#63b8ff" points="261.55,-368.57 251.09,-370.31 260.35,-375.47 261.55,-368.57"/>
</a>
</g>
</g>
<!-- Node20 -->
<g id="Node000020" class="node">
<title>Node20</title>
<g id="a_Node000020"><a xlink:href="helios_2util_2io_2__module_8ixx.html" target="_top" xlink:title="Module exports for IO utilities.">
<polygon fill="white" stroke="#666666" points="406.5,-371 329.5,-371 329.5,-352 406.5,-352 406.5,-371"/>
<text text-anchor="middle" x="368" y="-359" font-family="Helvetica,sans-Serif" font-size="10.00">helios.util.io</text>
</a>
</g>
</g>
<!-- Node16&#45;&gt;Node20 -->
<g id="edge24_Node000016_Node000020" class="edge">
<title>Node16&#45;&gt;Node20</title>
<g id="a_edge24_Node000016_Node000020"><a xlink:title=" ">
<path fill="none" stroke="#63b8ff" d="M488.86,-406.98C465.18,-398.27 428.13,-384.63 401.29,-374.75"/>
<polygon fill="#63b8ff" stroke="#63b8ff" points="402.15,-371.34 391.56,-371.17 399.73,-377.91 402.15,-371.34"/>
</a>
</g>
</g>
<!-- Node37 -->
<g id="Node000037" class="node">
<title>Node37</title>
<g id="a_Node000037"><a xlink:href="helios_2util_2log_2__module_8ixx.html" target="_top" xlink:title="Module exports for logging.">
<polygon fill="white" stroke="#666666" points="908.5,-244.5 825.5,-244.5 825.5,-225.5 908.5,-225.5 908.5,-244.5"/>
<text text-anchor="middle" x="867" y="-232.5" font-family="Helvetica,sans-Serif" font-size="10.00">helios.util.log</text>
</a>
</g>
</g>
<!-- Node16&#45;&gt;Node37 -->
<g id="edge51_Node000016_Node000037" class="edge">
<title>Node16&#45;&gt;Node37</title>
<g id="a_edge51_Node000016_Node000037"><a xlink:title=" ">
<path fill="none" stroke="#63b8ff" d="M493.33,-406.97C479.67,-399.59 462.14,-387.5 454,-371 441.15,-344.95 458.73,-299.56 475,-286 525.61,-243.82 720.9,-236.79 815.31,-235.91"/>
<polygon fill="#63b8ff" stroke="#63b8ff" points="815.52,-239.4 825.49,-235.83 815.46,-232.4 815.52,-239.4"/>
</a>
</g>
</g>
<!-- Node39 -->
<g id="Node000039" class="node">
<title>Node39</title>
<g id="a_Node000039"><a xlink:href="Random_8ixx.html" target="_top" xlink:title="Utility class for pseudo&#45;random number generation.">
<polygon fill="white" stroke="#666666" points="725,-371 617,-371 617,-352 725,-352 725,-371"/>
<text text-anchor="middle" x="671" y="-359" font-family="Helvetica,sans-Serif" font-size="10.00">helios.util.Random</text>
</a>
</g>
</g>
<!-- Node16&#45;&gt;Node39 -->
<g id="edge59_Node000016_Node000039" class="edge">
<title>Node16&#45;&gt;Node39</title>
<g id="a_edge59_Node000016_Node000039"><a xlink:title=" ">
<path fill="none" stroke="#63b8ff" d="M537.55,-406.98C564.12,-398.13 605.94,-384.19 635.67,-374.28"/>
<polygon fill="#63b8ff" stroke="#63b8ff" points="636.87,-377.56 645.25,-371.08 634.66,-370.92 636.87,-377.56"/>
</a>
</g>
</g>
<!-- Node41 -->
<g id="Node000041" class="node">
<title>Node41</title>
<g id="a_Node000041"><a xlink:href="Colors_8ixx.html" target="_top" xlink:title="Standard color constants as vec4f (RGBA).">
<polygon fill="white" stroke="#666666" points="561,-371 463,-371 463,-352 561,-352 561,-371"/>
<text text-anchor="middle" x="512" y="-359" font-family="Helvetica,sans-Serif" font-size="10.00">helios.util.Colors</text>
</a>
</g>
</g>
<!-- Node16&#45;&gt;Node41 -->
<g id="edge62_Node000016_Node000041" class="edge">
<title>Node16&#45;&gt;Node41</title>
<g id="a_edge62_Node000016_Node000041"><a xlink:title=" ">
<path fill="none" stroke="#63b8ff" d="M512,-406.75C512,-399.8 512,-389.85 512,-381.13"/>
<polygon fill="#63b8ff" stroke="#63b8ff" points="515.5,-381.09 512,-371.09 508.5,-381.09 515.5,-381.09"/>
</a>
</g>
</g>
<!-- Node18 -->
<g id="Node000018" class="node">
<title>Node18</title>
<g id="a_Node000018"><a xlink:href="Stopwatch_8ixx.html" target="_top" xlink:title="A high&#45;resolution timer based on std::chrono::steady_clock.">
<polygon fill="white" stroke="#666666" points="144,-310.5 0,-310.5 0,-291.5 144,-291.5 144,-310.5"/>
<text text-anchor="middle" x="72" y="-298.5" font-family="Helvetica,sans-Serif" font-size="10.00">helios.util.time.Stopwatch</text>
</a>
</g>
</g>
<!-- Node17&#45;&gt;Node18 -->
<g id="edge22_Node000017_Node000018" class="edge">
<title>Node17&#45;&gt;Node18</title>
<g id="a_edge22_Node000017_Node000018"><a xlink:title=" ">
<path fill="none" stroke="#63b8ff" d="M186.52,-351.99C163.99,-342.16 126.69,-325.88 100.81,-314.58"/>
<polygon fill="#63b8ff" stroke="#63b8ff" points="102.07,-311.31 91.51,-310.52 99.27,-317.73 102.07,-311.31"/>
</a>
</g>
</g>
<!-- Node19 -->
<g id="Node000019" class="node">
<title>Node19</title>
<g id="a_Node000019"><a xlink:title=" ">
<polygon fill="#e0e0e0" stroke="#999999" points="51,-244.5 1,-244.5 1,-225.5 51,-225.5 51,-244.5"/>
<text text-anchor="middle" x="26" y="-232.5" font-family="Helvetica,sans-Serif" font-size="10.00">chrono</text>
</a>
</g>
</g>
<!-- Node18&#45;&gt;Node19 -->
<g id="edge23_Node000018_Node000019" class="edge">
<title>Node18&#45;&gt;Node19</title>
<g id="a_edge23_Node000018_Node000019"><a xlink:title=" ">
<path fill="none" stroke="#63b8ff" d="M65.8,-291.37C58.77,-281.59 47.15,-265.42 38.27,-253.08"/>
<polygon fill="#63b8ff" stroke="#63b8ff" points="41.08,-250.98 32.4,-244.91 35.39,-255.07 41.08,-250.98"/>
</a>
</g>
</g>
<!-- Node21 -->
<g id="Node000021" class="node">
<title>Node21</title>
<g id="a_Node000021"><a xlink:href="BasicStringFileReader_8ixx.html" target="_top" xlink:title="Basic file&#45;to&#45;string reader implementation.">
<polygon fill="white" stroke="#666666" points="329,-316 195,-316 195,-286 329,-286 329,-316"/>
<text text-anchor="start" x="203" y="-304" font-family="Helvetica,sans-Serif" font-size="10.00">helios.util.io.BasicString</text>
<text text-anchor="middle" x="262" y="-293" font-family="Helvetica,sans-Serif" font-size="10.00">FileReader</text>
</a>
</g>
</g>
<!-- Node20&#45;&gt;Node21 -->
<g id="edge25_Node000020_Node000021" class="edge">
<title>Node20&#45;&gt;Node21</title>
<g id="a_edge25_Node000020_Node000021"><a xlink:title=" ">
<path fill="none" stroke="#63b8ff" d="M352.36,-351.87C337.71,-343.78 315.31,-331.42 296.48,-321.03"/>
<polygon fill="#63b8ff" stroke="#63b8ff" points="298.02,-317.88 287.58,-316.11 294.64,-324.01 298.02,-317.88"/>
</a>
</g>
</g>
<!-- Node26 -->
<g id="Node000026" class="node">
<title>Node26</title>
<g id="a_Node000026"><a xlink:href="StringFileReader_8ixx.html" target="_top" xlink:title="Abstract base class for reading file contents into a string.">
<polygon fill="white" stroke="#666666" points="458.5,-250 333.5,-250 333.5,-220 458.5,-220 458.5,-250"/>
<text text-anchor="start" x="341.5" y="-238" font-family="Helvetica,sans-Serif" font-size="10.00">helios.util.io.StringFile</text>
<text text-anchor="middle" x="396" y="-227" font-family="Helvetica,sans-Serif" font-size="10.00">Reader</text>
</a>
</g>
</g>
<!-- Node20&#45;&gt;Node26 -->
<g id="edge50_Node000020_Node000026" class="edge">
<title>Node20&#45;&gt;Node26</title>
<g id="a_edge50_Node000020_Node000026"><a xlink:title=" ">
<path fill="none" stroke="#63b8ff" d="M369.92,-351.94C374.13,-333.24 384.28,-288.13 390.6,-260.01"/>
<polygon fill="#63b8ff" stroke="#63b8ff" points="394.04,-260.68 392.82,-250.16 387.21,-259.15 394.04,-260.68"/>
</a>
</g>
</g>
<!-- Node22 -->
<g id="Node000022" class="node">
<title>Node22</title>
<g id="a_Node000022"><a xlink:title=" ">
<polygon fill="#e0e0e0" stroke="#999999" points="203,-244.5 153,-244.5 153,-225.5 203,-225.5 203,-244.5"/>
<text text-anchor="middle" x="178" y="-232.5" font-family="Helvetica,sans-Serif" font-size="10.00">format</text>
</a>
</g>
</g>
<!-- Node21&#45;&gt;Node22 -->
<g id="edge26_Node000021_Node000022" class="edge">
<title>Node21&#45;&gt;Node22</title>
<g id="a_edge26_Node000021_Node000022"><a xlink:title=" ">
<path fill="none" stroke="#63b8ff" d="M243.36,-285.8C229.88,-275.53 211.69,-261.67 197.92,-251.18"/>
<polygon fill="#63b8ff" stroke="#63b8ff" points="199.68,-248.12 189.61,-244.84 195.44,-253.69 199.68,-248.12"/>
</a>
</g>
</g>
<!-- Node23 -->
<g id="Node000023" class="node">
<title>Node23</title>
<g id="a_Node000023"><a xlink:title=" ">
<polygon fill="#e0e0e0" stroke="#999999" points="276.5,-244.5 221.5,-244.5 221.5,-225.5 276.5,-225.5 276.5,-244.5"/>
<text text-anchor="middle" x="249" y="-232.5" font-family="Helvetica,sans-Serif" font-size="10.00">fstream</text>
</a>
</g>
</g>
<!-- Node21&#45;&gt;Node23 -->
<g id="edge27_Node000021_Node000023" class="edge">
<title>Node21&#45;&gt;Node23</title>
<g id="a_edge27_Node000021_Node000023"><a xlink:title=" ">
<path fill="none" stroke="#63b8ff" d="M259.11,-285.8C257.27,-276.7 254.85,-264.79 252.84,-254.9"/>
<polygon fill="#63b8ff" stroke="#63b8ff" points="256.22,-253.95 250.8,-244.84 249.36,-255.34 256.22,-253.95"/>
</a>
</g>
</g>
<!-- Node24 -->
<g id="Node000024" class="node">
<title>Node24</title>
<g id="a_Node000024"><a xlink:title=" ">
<polygon fill="#e0e0e0" stroke="#999999" points="752,-19 708,-19 708,0 752,0 752,-19"/>
<text text-anchor="middle" x="730" y="-7" font-family="Helvetica,sans-Serif" font-size="10.00">string</text>
</a>
</g>
</g>
<!-- Node21&#45;&gt;Node24 -->
<g id="edge28_Node000021_Node000024" class="edge">
<title>Node21&#45;&gt;Node24</title>
<g id="a_edge28_Node000021_Node000024"><a xlink:title=" ">
<path fill="none" stroke="#63b8ff" d="M270.29,-285.98C282.79,-263.48 305,-217.58 305,-175.5 305,-175.5 305,-175.5 305,-118.5 305,-37.52 598.52,-16.55 697.7,-11.77"/>
<polygon fill="#63b8ff" stroke="#63b8ff" points="697.92,-15.27 707.75,-11.31 697.6,-8.27 697.92,-15.27"/>
</a>
</g>
</g>
<!-- Node25 -->
<g id="Node000025" class="node">
<title>Node25</title>
<g id="a_Node000025"><a xlink:title=" ">
<polygon fill="#e0e0e0" stroke="#999999" points="134.5,-244.5 69.5,-244.5 69.5,-225.5 134.5,-225.5 134.5,-244.5"/>
<text text-anchor="middle" x="102" y="-232.5" font-family="Helvetica,sans-Serif" font-size="10.00">stdexcept</text>
</a>
</g>
</g>
<!-- Node21&#45;&gt;Node25 -->
<g id="edge29_Node000021_Node000025" class="edge">
<title>Node21&#45;&gt;Node25</title>
<g id="a_edge29_Node000021_Node000025"><a xlink:title=" ">
<path fill="none" stroke="#63b8ff" d="M226.89,-285.95C198.7,-274.68 159.53,-259.01 132.61,-248.25"/>
<polygon fill="#63b8ff" stroke="#63b8ff" points="133.88,-244.98 123.29,-244.52 131.28,-251.48 133.88,-244.98"/>
</a>
</g>
</g>
<!-- Node21&#45;&gt;Node26 -->
<g id="edge30_Node000021_Node000026" class="edge">
<title>Node21&#45;&gt;Node26</title>
<g id="a_edge30_Node000021_Node000026"><a xlink:title=" ">
<path fill="none" stroke="#63b8ff" d="M291.41,-285.95C310.78,-276.7 336.36,-264.49 357.37,-254.45"/>
<polygon fill="#63b8ff" stroke="#63b8ff" points="359.15,-257.48 366.66,-250.01 356.13,-251.16 359.15,-257.48"/>
</a>
</g>
</g>
<!-- Node26&#45;&gt;Node24 -->
<g id="edge31_Node000026_Node000024" class="edge">
<title>Node26&#45;&gt;Node24</title>
<g id="a_edge31_Node000026_Node000024"><a xlink:title=" ">
<path fill="none" stroke="#63b8ff" d="M391.57,-219.87C384.92,-196.04 374.78,-146.88 391,-110 405.57,-76.89 418.43,-70.74 451,-55 533.22,-15.28 643.41,-9.79 697.4,-9.76"/>
<polygon fill="#63b8ff" stroke="#63b8ff" points="697.72,-13.26 707.74,-9.82 697.76,-6.26 697.72,-13.26"/>
</a>
</g>
</g>
<!-- Node27 -->
<g id="Node000027" class="node">
<title>Node27</title>
<g id="a_Node000027"><a xlink:href="LogManager_8ixx.html" target="_top" xlink:title="Central manager for scoped loggers with configurable sinks.">
<polygon fill="white" stroke="#666666" points="746,-184 600,-184 600,-165 746,-165 746,-184"/>
<text text-anchor="middle" x="673" y="-172" font-family="Helvetica,sans-Serif" font-size="10.00">helios.util.log.LogManager</text>
</a>
</g>
</g>
<!-- Node26&#45;&gt;Node27 -->
<g id="edge32_Node000026_Node000027" class="edge">
<title>Node26&#45;&gt;Node27</title>
<g id="a_edge32_Node000026_Node000027"><a xlink:title=" ">
<path fill="none" stroke="#63b8ff" d="M458.51,-220.8C508.06,-210.33 576.4,-195.9 622.51,-186.16"/>
<polygon fill="#63b8ff" stroke="#63b8ff" points="623.52,-189.53 632.58,-184.04 622.07,-182.68 623.52,-189.53"/>
</a>
</g>
</g>
<!-- Node34 -->
<g id="Node000034" class="node">
<title>Node34</title>
<g id="a_Node000034"><a xlink:href="Logger_8ixx.html" target="_top" xlink:title="Simple synchronous logger with configurable output sinks.">
<polygon fill="white" stroke="#666666" points="926.5,-129 807.5,-129 807.5,-110 926.5,-110 926.5,-129"/>
<text text-anchor="middle" x="867" y="-117" font-family="Helvetica,sans-Serif" font-size="10.00">helios.util.log.Logger</text>
</a>
</g>
</g>
<!-- Node26&#45;&gt;Node34 -->
<g id="edge49_Node000026_Node000034" class="edge">
<title>Node26&#45;&gt;Node34</title>
<g id="a_edge49_Node000026_Node000034"><a xlink:title=" ">
<path fill="none" stroke="#63b8ff" d="M458.61,-232.38C531.56,-228.88 654.89,-217.97 755,-184 789.45,-172.31 825.36,-149.82 846.96,-134.99"/>
<polygon fill="#63b8ff" stroke="#63b8ff" points="849.11,-137.75 855.29,-129.15 845.09,-132.02 849.11,-137.75"/>
</a>
</g>
</g>
<!-- Node27&#45;&gt;Node24 -->
<g id="edge33_Node000027_Node000024" class="edge">
<title>Node27&#45;&gt;Node24</title>
<g id="a_edge33_Node000027_Node000024"><a xlink:title=" ">
<path fill="none" stroke="#63b8ff" d="M669.36,-164.82C661.35,-144.3 644.43,-91.8 664,-55 671.49,-40.92 685.63,-30.5 698.91,-23.29"/>
<polygon fill="#63b8ff" stroke="#63b8ff" points="700.49,-26.41 707.87,-18.81 697.36,-20.15 700.49,-26.41"/>
</a>
</g>
</g>
<!-- Node28 -->
<g id="Node000028" class="node">
<title>Node28</title>
<g id="a_Node000028"><a xlink:title=" ">
<polygon fill="#e0e0e0" stroke="#999999" points="502.5,-129 409.5,-129 409.5,-110 502.5,-110 502.5,-129"/>
<text text-anchor="middle" x="456" y="-117" font-family="Helvetica,sans-Serif" font-size="10.00">unordered_map</text>
</a>
</g>
</g>
<!-- Node27&#45;&gt;Node28 -->
<g id="edge34_Node000027_Node000028" class="edge">
<title>Node27&#45;&gt;Node28</title>
<g id="a_edge34_Node000027_Node000028"><a xlink:title=" ">
<path fill="none" stroke="#63b8ff" d="M638.14,-164.98C600.91,-155.89 541.8,-141.46 501.07,-131.51"/>
<polygon fill="#63b8ff" stroke="#63b8ff" points="501.68,-128.05 491.14,-129.08 500.02,-134.85 501.68,-128.05"/>
</a>
</g>
</g>
<!-- Node29 -->
<g id="Node000029" class="node">
<title>Node29</title>
<g id="a_Node000029"><a xlink:title=" ">
<polygon fill="#e0e0e0" stroke="#999999" points="607,-129 521,-129 521,-110 607,-110 607,-129"/>
<text text-anchor="middle" x="564" y="-117" font-family="Helvetica,sans-Serif" font-size="10.00">unordered_set</text>
</a>
</g>
</g>
<!-- Node27&#45;&gt;Node29 -->
<g id="edge35_Node000027_Node000029" class="edge">
<title>Node27&#45;&gt;Node29</title>
<g id="a_edge35_Node000027_Node000029"><a xlink:title=" ">
<path fill="none" stroke="#63b8ff" d="M655.49,-164.98C638.03,-156.5 610.99,-143.35 590.83,-133.54"/>
<polygon fill="#63b8ff" stroke="#63b8ff" points="592.36,-130.4 581.83,-129.17 589.29,-136.69 592.36,-130.4"/>
</a>
</g>
</g>
<!-- Node30 -->
<g id="Node000030" class="node">
<title>Node30</title>
<g id="a_Node000030"><a xlink:title=" ">
<polygon fill="#e0e0e0" stroke="#999999" points="518,-74 460,-74 460,-55 518,-55 518,-74"/>
<text text-anchor="middle" x="489" y="-62" font-family="Helvetica,sans-Serif" font-size="10.00">memory</text>
</a>
</g>
</g>
<!-- Node27&#45;&gt;Node30 -->
<g id="edge36_Node000027_Node000030" class="edge">
<title>Node27&#45;&gt;Node30</title>
<g id="a_edge36_Node000027_Node000030"><a xlink:title=" ">
<path fill="none" stroke="#63b8ff" d="M599.8,-171.89C527.83,-168.58 425.2,-158.63 400,-129 380.84,-106.46 418.01,-87.83 450.01,-76.7"/>
<polygon fill="#63b8ff" stroke="#63b8ff" points="451.32,-79.95 459.71,-73.49 449.12,-73.31 451.32,-79.95"/>
</a>
</g>
</g>
<!-- Node31 -->
<g id="Node000031" class="node">
<title>Node31</title>
<g id="a_Node000031"><a xlink:title=" ">
<polygon fill="#e0e0e0" stroke="#999999" points="721,-74 673,-74 673,-55 721,-55 721,-74"/>
<text text-anchor="middle" x="697" y="-62" font-family="Helvetica,sans-Serif" font-size="10.00">mutex</text>
</a>
</g>
</g>
<!-- Node27&#45;&gt;Node31 -->
<g id="edge37_Node000027_Node000031" class="edge">
<title>Node27&#45;&gt;Node31</title>
<g id="a_edge37_Node000027_Node000031"><a xlink:title=" ">
<path fill="none" stroke="#63b8ff" d="M674.96,-164.66C678.87,-147.09 687.68,-107.45 692.9,-83.95"/>
<polygon fill="#63b8ff" stroke="#63b8ff" points="696.32,-84.68 695.08,-74.16 689.49,-83.16 696.32,-84.68"/>
</a>
</g>
</g>
<!-- Node32 -->
<g id="Node000032" class="node">
<title>Node32</title>
<g id="a_Node000032"><a xlink:title=" ">
<polygon fill="#e0e0e0" stroke="#999999" points="796.5,-74 749.5,-74 749.5,-55 796.5,-55 796.5,-74"/>
<text text-anchor="middle" x="773" y="-62" font-family="Helvetica,sans-Serif" font-size="10.00">vector</text>
</a>
</g>
</g>
<!-- Node27&#45;&gt;Node32 -->
<g id="edge38_Node000027_Node000032" class="edge">
<title>Node27&#45;&gt;Node32</title>
<g id="a_edge38_Node000027_Node000032"><a xlink:title=" ">
<path fill="none" stroke="#63b8ff" d="M704.5,-164.99C723.4,-158.27 746.35,-146.96 760,-129 769.68,-116.26 772.62,-98.08 773.32,-84.44"/>
<polygon fill="#63b8ff" stroke="#63b8ff" points="776.82,-84.32 773.48,-74.26 769.82,-84.21 776.82,-84.32"/>
</a>
</g>
</g>
<!-- Node33 -->
<g id="Node000033" class="node">
<title>Node33</title>
<g id="a_Node000033"><a xlink:title=" ">
<polygon fill="#e0e0e0" stroke="#999999" points="751,-129 701,-129 701,-110 751,-110 751,-129"/>
<text text-anchor="middle" x="726" y="-117" font-family="Helvetica,sans-Serif" font-size="10.00">cstring</text>
</a>
</g>
</g>
<!-- Node27&#45;&gt;Node33 -->
<g id="edge39_Node000027_Node000033" class="edge">
<title>Node27&#45;&gt;Node33</title>
<g id="a_edge39_Node000027_Node000033"><a xlink:title=" ">
<path fill="none" stroke="#63b8ff" d="M681.75,-164.75C689.47,-157.03 700.9,-145.6 710.22,-136.28"/>
<polygon fill="#63b8ff" stroke="#63b8ff" points="712.81,-138.64 717.41,-129.09 707.86,-133.69 712.81,-138.64"/>
</a>
</g>
</g>
<!-- Node27&#45;&gt;Node34 -->
<g id="edge40_Node000027_Node000034" class="edge">
<title>Node27&#45;&gt;Node34</title>
<g id="a_edge40_Node000027_Node000034"><a xlink:title=" ">
<path fill="none" stroke="#63b8ff" d="M704.17,-164.98C737.16,-155.97 789.4,-141.7 825.77,-131.76"/>
<polygon fill="#63b8ff" stroke="#63b8ff" points="826.86,-135.09 835.59,-129.08 825.02,-128.34 826.86,-135.09"/>
</a>
</g>
</g>
<!-- Node36 -->
<g id="Node000036" class="node">
<title>Node36</title>
<g id="a_Node000036"><a xlink:href="LogSink_8ixx.html" target="_top" xlink:title="Abstract interface for log output destinations.">
<polygon fill="white" stroke="#666666" points="1055,-74 931,-74 931,-55 1055,-55 1055,-74"/>
<text text-anchor="middle" x="993" y="-62" font-family="Helvetica,sans-Serif" font-size="10.00">helios.util.log.LogSink</text>
</a>
</g>
</g>
<!-- Node27&#45;&gt;Node36 -->
<g id="edge48_Node000027_Node000036" class="edge">
<title>Node27&#45;&gt;Node36</title>
<g id="a_edge48_Node000027_Node000036"><a xlink:title=" ">
<path fill="none" stroke="#63b8ff" d="M746.29,-166.43C812.16,-159.11 903.26,-146.32 935,-129 955,-118.09 971.76,-97.63 982.04,-82.88"/>
<polygon fill="#63b8ff" stroke="#63b8ff" points="985.21,-84.43 987.83,-74.16 979.38,-80.56 985.21,-84.43"/>
</a>
</g>
</g>
<!-- Node34&#45;&gt;Node24 -->
<g id="edge41_Node000034_Node000024" class="edge">
<title>Node34&#45;&gt;Node24</title>
<g id="a_edge41_Node000034_Node000024"><a xlink:title=" ">
<path fill="none" stroke="#63b8ff" d="M859.98,-110C849.08,-97.12 827.04,-72.34 805,-55 789.87,-43.1 771.27,-32.04 756.37,-23.93"/>
<polygon fill="#63b8ff" stroke="#63b8ff" points="757.67,-20.65 747.2,-19.04 754.38,-26.83 757.67,-20.65"/>
</a>
</g>
</g>
<!-- Node34&#45;&gt;Node30 -->
<g id="edge43_Node000034_Node000030" class="edge">
<title>Node34&#45;&gt;Node30</title>
<g id="a_edge43_Node000034_Node000030"><a xlink:title=" ">
<path fill="none" stroke="#63b8ff" d="M807.1,-110.1C729.05,-99.16 594.72,-80.32 528.4,-71.02"/>
<polygon fill="#63b8ff" stroke="#63b8ff" points="528.75,-67.54 518.36,-69.62 527.78,-74.47 528.75,-67.54"/>
</a>
</g>
</g>
<!-- Node34&#45;&gt;Node31 -->
<g id="edge44_Node000034_Node000031" class="edge">
<title>Node34&#45;&gt;Node31</title>
<g id="a_edge44_Node000034_Node000031"><a xlink:title=" ">
<path fill="none" stroke="#63b8ff" d="M839.69,-109.98C810.13,-100.77 762.95,-86.06 731.01,-76.1"/>
<polygon fill="#63b8ff" stroke="#63b8ff" points="731.81,-72.69 721.22,-73.05 729.72,-79.37 731.81,-72.69"/>
</a>
</g>
</g>
<!-- Node34&#45;&gt;Node32 -->
<g id="edge42_Node000034_Node000032" class="edge">
<title>Node34&#45;&gt;Node32</title>
<g id="a_edge42_Node000034_Node000032"><a xlink:title=" ">
<path fill="none" stroke="#63b8ff" d="M851.9,-109.98C837.18,-101.69 814.58,-88.94 797.33,-79.22"/>
<polygon fill="#63b8ff" stroke="#63b8ff" points="798.81,-76.03 788.38,-74.17 795.37,-82.13 798.81,-76.03"/>
</a>
</g>
</g>
<!-- Node35 -->
<g id="Node000035" class="node">
<title>Node35</title>
<g id="a_Node000035"><a xlink:title=" ">
<polygon fill="#e0e0e0" stroke="#999999" points="913,-74 853,-74 853,-55 913,-55 913,-74"/>
<text text-anchor="middle" x="883" y="-62" font-family="Helvetica,sans-Serif" font-size="10.00">iostream</text>
</a>
</g>
</g>
<!-- Node34&#45;&gt;Node35 -->
<g id="edge45_Node000034_Node000035" class="edge">
<title>Node34&#45;&gt;Node35</title>
<g id="a_edge45_Node000034_Node000035"><a xlink:title=" ">
<path fill="none" stroke="#63b8ff" d="M869.64,-109.75C871.76,-102.72 874.81,-92.62 877.46,-83.84"/>
<polygon fill="#63b8ff" stroke="#63b8ff" points="880.87,-84.67 880.41,-74.09 874.17,-82.65 880.87,-84.67"/>
</a>
</g>
</g>
<!-- Node34&#45;&gt;Node36 -->
<g id="edge46_Node000034_Node000036" class="edge">
<title>Node34&#45;&gt;Node36</title>
<g id="a_edge46_Node000034_Node000036"><a xlink:title=" ">
<path fill="none" stroke="#63b8ff" d="M887.24,-109.98C907.7,-101.38 939.53,-87.99 962.93,-78.15"/>
<polygon fill="#63b8ff" stroke="#63b8ff" points="964.53,-81.27 972.39,-74.17 961.81,-74.82 964.53,-81.27"/>
</a>
</g>
</g>
<!-- Node36&#45;&gt;Node24 -->
<g id="edge47_Node000036_Node000024" class="edge">
<title>Node36&#45;&gt;Node24</title>
<g id="a_edge47_Node000036_Node000024"><a xlink:title=" ">
<path fill="none" stroke="#63b8ff" d="M950.74,-54.98C898.23,-44.4 809.77,-26.58 762.34,-17.02"/>
<polygon fill="#63b8ff" stroke="#63b8ff" points="762.81,-13.54 752.32,-15 761.43,-20.4 762.81,-13.54"/>
</a>
</g>
</g>
<!-- Node37&#45;&gt;Node27 -->
<g id="edge52_Node000037_Node000027" class="edge">
<title>Node37&#45;&gt;Node27</title>
<g id="a_edge52_Node000037_Node000027"><a xlink:title=" ">
<path fill="none" stroke="#63b8ff" d="M838.79,-225.49C805.03,-215.31 748.35,-198.22 710.82,-186.9"/>
<polygon fill="#63b8ff" stroke="#63b8ff" points="711.83,-183.55 701.24,-184.02 709.81,-190.25 711.83,-183.55"/>
</a>
</g>
</g>
<!-- Node37&#45;&gt;Node34 -->
<g id="edge53_Node000037_Node000034" class="edge">
<title>Node37&#45;&gt;Node34</title>
<g id="a_edge53_Node000037_Node000034"><a xlink:title=" ">
<path fill="none" stroke="#63b8ff" d="M867,-225.47C867,-207.23 867,-164.07 867,-139.14"/>
<polygon fill="#63b8ff" stroke="#63b8ff" points="870.5,-139.13 867,-129.13 863.5,-139.13 870.5,-139.13"/>
</a>
</g>
</g>
<!-- Node37&#45;&gt;Node36 -->
<g id="edge58_Node000037_Node000036" class="edge">
<title>Node37&#45;&gt;Node36</title>
<g id="a_edge58_Node000037_Node000036"><a xlink:title=" ">
<path fill="none" stroke="#63b8ff" d="M876.32,-225.46C894.5,-208.43 935.28,-168.5 962,-129 971.76,-114.57 980.24,-96.6 985.84,-83.47"/>
<polygon fill="#63b8ff" stroke="#63b8ff" points="989.12,-84.71 989.7,-74.13 982.65,-82.04 989.12,-84.71"/>
</a>
</g>
</g>
<!-- Node38 -->
<g id="Node000038" class="node">
<title>Node38</title>
<g id="a_Node000038"><a xlink:href="ConsoleSink_8ixx.html" target="_top" xlink:title="Log sink that writes to stdout.">
<polygon fill="white" stroke="#666666" points="1167,-129 1021,-129 1021,-110 1167,-110 1167,-129"/>
<text text-anchor="middle" x="1094" y="-117" font-family="Helvetica,sans-Serif" font-size="10.00">helios.util.log.ConsoleSink</text>
</a>
</g>
</g>
<!-- Node37&#45;&gt;Node38 -->
<g id="edge54_Node000037_Node000038" class="edge">
<title>Node37&#45;&gt;Node38</title>
<g id="a_edge54_Node000037_Node000038"><a xlink:title=" ">
<path fill="none" stroke="#63b8ff" d="M898.95,-225.45C928.06,-217 971.76,-202.65 1007,-184 1032.76,-170.37 1059.39,-149.8 1076.29,-135.8"/>
<polygon fill="#63b8ff" stroke="#63b8ff" points="1078.8,-138.26 1084.19,-129.14 1074.29,-132.91 1078.8,-138.26"/>
</a>
</g>
</g>
<!-- Node38&#45;&gt;Node24 -->
<g id="edge56_Node000038_Node000024" class="edge">
<title>Node38&#45;&gt;Node24</title>
<g id="a_edge56_Node000038_Node000024"><a xlink:title=" ">
<path fill="none" stroke="#63b8ff" d="M1092.61,-109.85C1089.85,-95.84 1082.31,-68.38 1064,-55 1016.39,-20.22 836.66,-12.62 762.4,-10.96"/>
<polygon fill="#63b8ff" stroke="#63b8ff" points="762.31,-7.46 752.24,-10.76 762.17,-14.46 762.31,-7.46"/>
</a>
</g>
</g>
<!-- Node38&#45;&gt;Node35 -->
<g id="edge55_Node000038_Node000035" class="edge">
<title>Node38&#45;&gt;Node35</title>
<g id="a_edge55_Node000038_Node000035"><a xlink:title=" ">
<path fill="none" stroke="#63b8ff" d="M1060.1,-109.98C1022.7,-100.59 962.57,-85.49 922.92,-75.53"/>
<polygon fill="#63b8ff" stroke="#63b8ff" points="923.61,-72.09 913.06,-73.05 921.9,-78.88 923.61,-72.09"/>
</a>
</g>
</g>
<!-- Node38&#45;&gt;Node36 -->
<g id="edge57_Node000038_Node000036" class="edge">
<title>Node38&#45;&gt;Node36</title>
<g id="a_edge57_Node000038_Node000036"><a xlink:title=" ">
<path fill="none" stroke="#63b8ff" d="M1077.77,-109.98C1061.82,-101.61 1037.22,-88.7 1018.62,-78.95"/>
<polygon fill="#63b8ff" stroke="#63b8ff" points="1020,-75.72 1009.52,-74.17 1016.75,-81.92 1020,-75.72"/>
</a>
</g>
</g>
<!-- Node39&#45;&gt;Node5 -->
<g id="edge60_Node000039_Node000005" class="edge">
<title>Node39&#45;&gt;Node5</title>
<g id="a_edge60_Node000039_Node000005"><a xlink:title=" ">
<path fill="none" stroke="#63b8ff" d="M725.28,-353.04C728.23,-352.68 731.15,-352.33 734,-352 915.39,-331.02 1133.23,-312 1216.91,-304.93"/>
<polygon fill="#63b8ff" stroke="#63b8ff" points="1217.23,-308.41 1226.9,-304.08 1216.64,-301.44 1217.23,-308.41"/>
</a>
</g>
</g>
<!-- Node40 -->
<g id="Node000040" class="node">
<title>Node40</title>
<g id="a_Node000040"><a xlink:title=" ">
<polygon fill="#e0e0e0" stroke="#999999" points="698,-310.5 644,-310.5 644,-291.5 698,-291.5 698,-310.5"/>
<text text-anchor="middle" x="671" y="-298.5" font-family="Helvetica,sans-Serif" font-size="10.00">random</text>
</a>
</g>
</g>
<!-- Node39&#45;&gt;Node40 -->
<g id="edge61_Node000039_Node000040" class="edge">
<title>Node39&#45;&gt;Node40</title>
<g id="a_edge61_Node000039_Node000040"><a xlink:title=" ">
<path fill="none" stroke="#63b8ff" d="M671,-351.87C671,-343.75 671,-331.31 671,-320.89"/>
<polygon fill="#63b8ff" stroke="#63b8ff" points="674.5,-320.67 671,-310.67 667.5,-320.67 674.5,-320.67"/>
</a>
</g>
</g>
<!-- Node41&#45;&gt;Node10 -->
<g id="edge63_Node000041_Node000010" class="edge">
<title>Node41&#45;&gt;Node10</title>
<g id="a_edge63_Node000041_Node000010"><a xlink:title=" ">
<path fill="none" stroke="#63b8ff" d="M515.54,-351.87C518.94,-343.57 524.19,-330.78 528.52,-320.22"/>
<polygon fill="#63b8ff" stroke="#63b8ff" points="531.89,-321.25 532.44,-310.67 525.41,-318.59 531.89,-321.25"/>
</a>
</g>
</g>
</g>
</svg>

<g id="navigator" transform="translate(0 0)" fill="#404254">
  <rect fill="#f2f5e9" fill-opacity="0.5" stroke="#606060" stroke-width=".5" x="0" y="0" width="60" height="60"/>
  <use id="zoomplus" xlink:href="#zoomPlus" x="17" y="9" onmousedown="handleZoom(evt,'in')"/>
  <use id="zoomminus" xlink:href="#zoomMin" x="42" y="9" onmousedown="handleZoom(evt,'out')"/>
  <use id="reset" xlink:href="#resetDef" x="30" y="36" onmousedown="handleReset()"/>
   <use id="arrowup" xlink:href="#arrowUp" x="0" y="0" onmousedown="handlePan(0,-1)"/>
  <use id="arrowright" xlink:href="#arrowRight" x="0" y="0" onmousedown="handlePan(1,0)"/>
  <use id="arrowdown" xlink:href="#arrowDown" x="0" y="0" onmousedown="handlePan(0,1)"/>
  <use id="arrowleft" xlink:href="#arrowLeft" x="0" y="0" onmousedown="handlePan(-1,0)"/>
</g>
<svg viewBox="0 0 15 15" width="100%" height="30px" preserveAspectRatio="xMaxYMin meet">
 <g id="arrow_out" transform="scale(0.3 0.3)">
  <a xlink:href="SpawnPlacer_8ixx__incl_org.svg" target="_base">
   <rect id="button" ry="5" rx="5" y="6" x="6" height="38" width="38"
        fill="#f2f5e9" fill-opacity="0.5" stroke="#606060" stroke-width="1.0"/>
   <path id="arrow"
     d="M 11.500037,31.436501 C 11.940474,20.09759 22.043105,11.32322 32.158766,21.979434 L 37.068811,17.246167 C 37.068811,17.246167 37.088388,32 37.088388,32 L 22.160133,31.978069 C 22.160133,31.978069 26.997745,27.140456 26.997745,27.140456 C 18.528582,18.264221 13.291696,25.230495 11.500037,31.436501 z"
     style="fill:#404040;"/>
  </a>
 </g>
</svg>

<style type='text/css'>
<![CDATA[
[data-mouse-over-selected='false'] { opacity: 0.7; }
[data-mouse-over-selected='true']  { opacity: 1.0; }
]]>
</style>
<script type="application/ecmascript"><![CDATA[
document.addEventListener('DOMContentLoaded', (event) => {
  highlightEdges();
  highlightAdjacentNodes();
});
]]></script>
</svg>
