<?xml version="1.0" encoding="UTF-8" standalone="no"?>
<!DOCTYPE svg PUBLIC "-//W3C//DTD SVG 1.1//EN"
 "http://www.w3.org/Graphics/SVG/1.1/DTD/svg11.dtd">
<!-- Generated by graphviz version 2.43.0 (0)
 -->
<!-- Title: include/helios/engine/runtime/spawn/scheduling/SpawnPlan.ixx Pages: 1 -->
<svg width="294pt" height="170pt"
 viewBox="0.00 0.00 294.00 170.00" xmlns="http://www.w3.org/2000/svg" xmlns:xlink="http://www.w3.org/1999/xlink">

<svg id="main" version="1.1" xmlns="http://www.w3.org/2000/svg" xmlns:xlink="http://www.w3.org/1999/xlink" xml:space="preserve">

<style type="text/css"><![CDATA[
.node, .edge {opacity: 0.7;}
.node.selected, .edge.selected {opacity: 1;}
.edge:hover path { stroke: red; }
.edge:hover polygon { stroke: red; fill: red; }
]]></style>
<script type="application/ecmascript" xlink:href="svg.min.js"/>
<svg id="graph" class="graph">
<g id="graph0" class="graph" transform="scale(1 1) rotate(0) translate(4 166)">
<title>include/helios/engine/runtime/spawn/scheduling/SpawnPlan.ixx</title>
<!-- Node1 -->
<g id="Node000001" class="node">
<title>Node1</title>
<g id="a_Node000001"><a xlink:title="Data structure describing a planned spawn operation.">
<polygon fill="#999999" stroke="#666666" points="217,-162 69,-162 69,-121 217,-121 217,-162"/>
<text text-anchor="start" x="77" y="-150" font-family="Helvetica,sans-Serif" font-size="10.00">include/helios/engine</text>
<text text-anchor="start" x="77" y="-139" font-family="Helvetica,sans-Serif" font-size="10.00">/runtime/spawn/scheduling</text>
<text text-anchor="middle" x="143" y="-128" font-family="Helvetica,sans-Serif" font-size="10.00">/SpawnPlan.ixx</text>
</a>
</g>
</g>
<!-- Node2 -->
<g id="Node000002" class="node">
<title>Node2</title>
<g id="a_Node000002"><a xlink:href="SpawnRuleId_8ixx.html" target="_top" xlink:title="Strongly&#45;typed identifier for SpawnRule instances.">
<polygon fill="white" stroke="#666666" points="134,-85 0,-85 0,-55 134,-55 134,-85"/>
<text text-anchor="start" x="8" y="-73" font-family="Helvetica,sans-Serif" font-size="10.00">helios.engine.core.data.</text>
<text text-anchor="middle" x="67" y="-62" font-family="Helvetica,sans-Serif" font-size="10.00">SpawnRuleId</text>
</a>
</g>
</g>
<!-- Node1&#45;&gt;Node2 -->
<g id="edge1_Node000001_Node000002" class="edge">
<title>Node1&#45;&gt;Node2</title>
<g id="a_edge1_Node000001_Node000002"><a xlink:title=" ">
<path fill="none" stroke="#63b8ff" d="M121.42,-120.77C111.59,-111.78 99.94,-101.12 89.94,-91.98"/>
<polygon fill="#63b8ff" stroke="#63b8ff" points="92.09,-89.2 82.35,-85.04 87.37,-94.37 92.09,-89.2"/>
</a>
</g>
</g>
<!-- Node5 -->
<g id="Node000005" class="node">
<title>Node5</title>
<g id="a_Node000005"><a xlink:href="GameObjectPoolId_8ixx.html" target="_top" xlink:title="Strongly&#45;typed identifier for GameObjectPool instances.">
<polygon fill="white" stroke="#666666" points="286,-85 152,-85 152,-55 286,-55 286,-85"/>
<text text-anchor="start" x="160" y="-73" font-family="Helvetica,sans-Serif" font-size="10.00">helios.engine.core.data.</text>
<text text-anchor="middle" x="219" y="-62" font-family="Helvetica,sans-Serif" font-size="10.00">GameObjectPoolId</text>
</a>
</g>
</g>
<!-- Node1&#45;&gt;Node5 -->
<g id="edge4_Node000001_Node000005" class="edge">
<title>Node1&#45;&gt;Node5</title>
<g id="a_edge4_Node000001_Node000005"><a xlink:title=" ">
<path fill="none" stroke="#63b8ff" d="M164.58,-120.77C174.41,-111.78 186.06,-101.12 196.06,-91.98"/>
<polygon fill="#63b8ff" stroke="#63b8ff" points="198.63,-94.37 203.65,-85.04 193.91,-89.2 198.63,-94.37"/>
</a>
</g>
</g>
<!-- Node3 -->
<g id="Node000003" class="node">
<title>Node3</title>
<g id="a_Node000003"><a xlink:title=" ">
<polygon fill="#e0e0e0" stroke="#999999" points="131,-19 81,-19 81,0 131,0 131,-19"/>
<text text-anchor="middle" x="106" y="-7" font-family="Helvetica,sans-Serif" font-size="10.00">cstdint</text>
</a>
</g>
</g>
<!-- Node2&#45;&gt;Node3 -->
<g id="edge2_Node000002_Node000003" class="edge">
<title>Node2&#45;&gt;Node3</title>
<g id="a_edge2_Node000002_Node000003"><a xlink:title=" ">
<path fill="none" stroke="#63b8ff" d="M76.44,-54.84C81.87,-46.69 88.73,-36.4 94.48,-27.78"/>
<polygon fill="#63b8ff" stroke="#63b8ff" points="97.52,-29.53 100.16,-19.27 91.7,-25.65 97.52,-29.53"/>
</a>
</g>
</g>
<!-- Node4 -->
<g id="Node000004" class="node">
<title>Node4</title>
<g id="a_Node000004"><a xlink:title=" ">
<polygon fill="#e0e0e0" stroke="#999999" points="228.5,-19 169.5,-19 169.5,0 228.5,0 228.5,-19"/>
<text text-anchor="middle" x="199" y="-7" font-family="Helvetica,sans-Serif" font-size="10.00">compare</text>
</a>
</g>
</g>
<!-- Node2&#45;&gt;Node4 -->
<g id="edge3_Node000002_Node000004" class="edge">
<title>Node2&#45;&gt;Node4</title>
<g id="a_edge3_Node000002_Node000004"><a xlink:title=" ">
<path fill="none" stroke="#63b8ff" d="M98.62,-54.99C120.35,-45.36 148.97,-32.67 170.09,-23.31"/>
<polygon fill="#63b8ff" stroke="#63b8ff" points="171.78,-26.39 179.51,-19.14 168.95,-19.99 171.78,-26.39"/>
</a>
</g>
</g>
<!-- Node5&#45;&gt;Node3 -->
<g id="edge5_Node000005_Node000003" class="edge">
<title>Node5&#45;&gt;Node3</title>
<g id="a_edge5_Node000005_Node000003"><a xlink:title=" ">
<path fill="none" stroke="#63b8ff" d="M191.93,-54.99C173.75,-45.58 149.93,-33.24 131.98,-23.95"/>
<polygon fill="#63b8ff" stroke="#63b8ff" points="133.18,-20.63 122.69,-19.14 129.96,-26.84 133.18,-20.63"/>
</a>
</g>
</g>
<!-- Node5&#45;&gt;Node4 -->
<g id="edge6_Node000005_Node000004" class="edge">
<title>Node5&#45;&gt;Node4</title>
<g id="a_edge6_Node000005_Node000004"><a xlink:title=" ">
<path fill="none" stroke="#63b8ff" d="M214.16,-54.84C211.49,-47.04 208.15,-37.27 205.29,-28.89"/>
<polygon fill="#63b8ff" stroke="#63b8ff" points="208.54,-27.6 202,-19.27 201.92,-29.86 208.54,-27.6"/>
</a>
</g>
</g>
</g>
</svg>
</svg>

<style type='text/css'>
<![CDATA[
[data-mouse-over-selected='false'] { opacity: 0.7; }
[data-mouse-over-selected='true']  { opacity: 1.0; }
]]>
</style>
<script type="application/ecmascript"><![CDATA[
document.addEventListener('DOMContentLoaded', (event) => {
  highlightEdges();
  highlightAdjacentNodes();
});
]]></script>
</svg>
