<?xml version="1.0" encoding="UTF-8" standalone="no"?>
<!DOCTYPE svg PUBLIC "-//W3C//DTD SVG 1.1//EN"
 "http://www.w3.org/Graphics/SVG/1.1/DTD/svg11.dtd">
<!-- Generated by graphviz version 2.43.0 (0)
 -->
<!-- Title: SpawnRuleId.ixx Pages: 1 -->
<svg width="529pt" height="247pt"
 viewBox="0.00 0.00 529.03 247.00" xmlns="http://www.w3.org/2000/svg" xmlns:xlink="http://www.w3.org/1999/xlink">
<g id="graph0" class="graph" transform="scale(1 1) rotate(0) translate(4 243)">
<title>SpawnRuleId.ixx</title>
<!-- Node1 -->
<g id="Node000001" class="node">
<title>Node1</title>
<g id="a_Node000001"><a xlink:title="Strongly&#45;typed identifier for SpawnRule instances.">
<polygon fill="#999999" stroke="#666666" points="246.53,-239 148.53,-239 148.53,-220 246.53,-220 246.53,-239"/>
<text text-anchor="middle" x="197.53" y="-227" font-family="Helvetica,sans-Serif" font-size="10.00">SpawnRuleId.ixx</text>
</a>
</g>
</g>
<!-- Node2 -->
<g id="Node000002" class="node">
<title>Node2</title>
<g id="a_Node000002"><a xlink:title=" ">
<polygon fill="#e0e0e0" stroke="#999999" points="274.53,-19 224.53,-19 224.53,0 274.53,0 274.53,-19"/>
<text text-anchor="middle" x="249.53" y="-7" font-family="Helvetica,sans-Serif" font-size="10.00">cstdint</text>
</a>
</g>
</g>
<!-- Node1&#45;&gt;Node2 -->
<g id="edge1_Node000001_Node000002" class="edge">
<title>Node1&#45;&gt;Node2</title>
<g id="a_edge1_Node000001_Node000002"><a xlink:title=" ">
<path fill="none" stroke="#63b8ff" d="M148.51,-220.5C83.05,-207.2 -21.8,-175.27 4.53,-110 36.94,-29.67 154.65,-13.7 214.33,-10.86"/>
<polygon fill="#63b8ff" stroke="#63b8ff" points="214.56,-14.35 224.42,-10.48 214.3,-7.36 214.56,-14.35"/>
</a>
</g>
</g>
<!-- Node3 -->
<g id="Node000003" class="node">
<title>Node3</title>
<g id="a_Node000003"><a xlink:title=" ">
<polygon fill="#e0e0e0" stroke="#999999" points="221.03,-74 148.03,-74 148.03,-55 221.03,-55 221.03,-74"/>
<text text-anchor="middle" x="184.53" y="-62" font-family="Helvetica,sans-Serif" font-size="10.00">string_view</text>
</a>
</g>
</g>
<!-- Node1&#45;&gt;Node3 -->
<g id="edge2_Node000001_Node000003" class="edge">
<title>Node1&#45;&gt;Node3</title>
<g id="a_edge2_Node000001_Node000003"><a xlink:title=" ">
<path fill="none" stroke="#63b8ff" d="M196.83,-219.74C194.81,-194.31 188.89,-120.08 186.06,-84.69"/>
<polygon fill="#63b8ff" stroke="#63b8ff" points="189.52,-84 185.24,-74.31 182.54,-84.55 189.52,-84"/>
</a>
</g>
</g>
<!-- Node4 -->
<g id="Node000004" class="node">
<title>Node4</title>
<g id="a_Node000004"><a xlink:href="helios_2core_2data_2__module_8ixx.html" target="_top" xlink:title="Aggregate module for helios::core::data namespace.">
<polygon fill="white" stroke="#666666" points="169.03,-184 74.03,-184 74.03,-165 169.03,-165 169.03,-184"/>
<text text-anchor="middle" x="121.53" y="-172" font-family="Helvetica,sans-Serif" font-size="10.00">helios.core.data</text>
</a>
</g>
</g>
<!-- Node1&#45;&gt;Node4 -->
<g id="edge3_Node000001_Node000004" class="edge">
<title>Node1&#45;&gt;Node4</title>
<g id="a_edge3_Node000001_Node000004"><a xlink:title=" ">
<path fill="none" stroke="#63b8ff" d="M185.32,-219.98C173.76,-211.92 156.16,-199.65 142.37,-190.03"/>
<polygon fill="#63b8ff" stroke="#63b8ff" points="144.17,-187.02 133.97,-184.17 140.17,-192.76 144.17,-187.02"/>
</a>
</g>
</g>
<!-- Node6 -->
<g id="Node000006" class="node">
<title>Node6</title>
<g id="a_Node000006"><a xlink:href="types_8ixx.html" target="_top" xlink:title="Core type definitions and tag types for the helios engine.">
<polygon fill="white" stroke="#666666" points="377.53,-74 277.53,-74 277.53,-55 377.53,-55 377.53,-74"/>
<text text-anchor="middle" x="327.53" y="-62" font-family="Helvetica,sans-Serif" font-size="10.00">helios.core.types</text>
</a>
</g>
</g>
<!-- Node1&#45;&gt;Node6 -->
<g id="edge13_Node000001_Node000006" class="edge">
<title>Node1&#45;&gt;Node6</title>
<g id="a_edge13_Node000001_Node000006"><a xlink:title=" ">
<path fill="none" stroke="#63b8ff" d="M232.66,-219.96C274.49,-207.7 342.48,-180.66 372.53,-129 382.77,-111.4 365.36,-92.51 349.3,-79.95"/>
<polygon fill="#63b8ff" stroke="#63b8ff" points="351.31,-77.09 341.18,-74 347.18,-82.74 351.31,-77.09"/>
</a>
</g>
</g>
<!-- Node7 -->
<g id="Node000007" class="node">
<title>Node7</title>
<g id="a_Node000007"><a xlink:href="algorithms_8ixx.html" target="_top" xlink:title="Core algorithms and hash functions for the helios engine.">
<polygon fill="white" stroke="#666666" points="521.03,-74 396.03,-74 396.03,-55 521.03,-55 521.03,-74"/>
<text text-anchor="middle" x="458.53" y="-62" font-family="Helvetica,sans-Serif" font-size="10.00">helios.core.algorithms</text>
</a>
</g>
</g>
<!-- Node1&#45;&gt;Node7 -->
<g id="edge14_Node000001_Node000007" class="edge">
<title>Node1&#45;&gt;Node7</title>
<g id="a_edge14_Node000001_Node000007"><a xlink:title=" ">
<path fill="none" stroke="#63b8ff" d="M246.07,-219.94C275.51,-213.26 312.96,-202.01 342.53,-184 387.43,-156.66 427.29,-108.05 446.46,-82.41"/>
<polygon fill="#63b8ff" stroke="#63b8ff" points="449.47,-84.22 452.56,-74.08 443.82,-80.08 449.47,-84.22"/>
</a>
</g>
</g>
<!-- Node5 -->
<g id="Node000005" class="node">
<title>Node5</title>
<g id="a_Node000005"><a xlink:href="StrongId_8ixx.html" target="_top" xlink:title="Strongly&#45;typed identifier template.">
<polygon fill="white" stroke="#666666" points="363.53,-129 225.53,-129 225.53,-110 363.53,-110 363.53,-129"/>
<text text-anchor="middle" x="294.53" y="-117" font-family="Helvetica,sans-Serif" font-size="10.00">helios.core.data.StrongId</text>
</a>
</g>
</g>
<!-- Node4&#45;&gt;Node5 -->
<g id="edge4_Node000004_Node000005" class="edge">
<title>Node4&#45;&gt;Node5</title>
<g id="a_edge4_Node000004_Node000005"><a xlink:title=" ">
<path fill="none" stroke="#63b8ff" d="M149.33,-164.98C178.5,-156.05 224.53,-141.94 256.94,-132.02"/>
<polygon fill="#63b8ff" stroke="#63b8ff" points="257.98,-135.36 266.52,-129.08 255.93,-128.66 257.98,-135.36"/>
</a>
</g>
</g>
<!-- Node9 -->
<g id="Node000009" class="node">
<title>Node9</title>
<g id="a_Node000009"><a xlink:href="TypeIndexer_8ixx.html" target="_top" xlink:title="Utility for generating unique type indices at runtime.">
<polygon fill="white" stroke="#666666" points="169.53,-129 13.53,-129 13.53,-110 169.53,-110 169.53,-129"/>
<text text-anchor="middle" x="91.53" y="-117" font-family="Helvetica,sans-Serif" font-size="10.00">helios.core.data.TypeIndexer</text>
</a>
</g>
</g>
<!-- Node4&#45;&gt;Node9 -->
<g id="edge11_Node000004_Node000009" class="edge">
<title>Node4&#45;&gt;Node9</title>
<g id="a_edge11_Node000004_Node000009"><a xlink:title=" ">
<path fill="none" stroke="#63b8ff" d="M116.58,-164.75C112.47,-157.49 106.51,-146.95 101.43,-137.98"/>
<polygon fill="#63b8ff" stroke="#63b8ff" points="104.37,-136.07 96.39,-129.09 98.27,-139.52 104.37,-136.07"/>
</a>
</g>
</g>
<!-- Node5&#45;&gt;Node2 -->
<g id="edge5_Node000005_Node000002" class="edge">
<title>Node5&#45;&gt;Node2</title>
<g id="a_edge5_Node000005_Node000002"><a xlink:title=" ">
<path fill="none" stroke="#63b8ff" d="M288.71,-109.96C282.97,-101.23 274.24,-87.13 268.53,-74 262.22,-59.47 257.2,-42.2 253.91,-29.34"/>
<polygon fill="#63b8ff" stroke="#63b8ff" points="257.25,-28.25 251.48,-19.36 250.45,-29.91 257.25,-28.25"/>
</a>
</g>
</g>
<!-- Node5&#45;&gt;Node3 -->
<g id="edge6_Node000005_Node000003" class="edge">
<title>Node5&#45;&gt;Node3</title>
<g id="a_edge6_Node000005_Node000003"><a xlink:title=" ">
<path fill="none" stroke="#63b8ff" d="M276.86,-109.98C259.24,-101.5 231.95,-88.35 211.61,-78.54"/>
<polygon fill="#63b8ff" stroke="#63b8ff" points="213.06,-75.36 202.53,-74.17 210.02,-81.66 213.06,-75.36"/>
</a>
</g>
</g>
<!-- Node5&#45;&gt;Node6 -->
<g id="edge7_Node000005_Node000006" class="edge">
<title>Node5&#45;&gt;Node6</title>
<g id="a_edge7_Node000005_Node000006"><a xlink:title=" ">
<path fill="none" stroke="#63b8ff" d="M299.98,-109.75C304.55,-102.42 311.2,-91.73 316.83,-82.7"/>
<polygon fill="#63b8ff" stroke="#63b8ff" points="319.87,-84.43 322.19,-74.09 313.93,-80.73 319.87,-84.43"/>
</a>
</g>
</g>
<!-- Node5&#45;&gt;Node7 -->
<g id="edge8_Node000005_Node000007" class="edge">
<title>Node5&#45;&gt;Node7</title>
<g id="a_edge8_Node000005_Node000007"><a xlink:title=" ">
<path fill="none" stroke="#63b8ff" d="M320.88,-109.98C348.3,-101.13 391.42,-87.19 422.09,-77.28"/>
<polygon fill="#63b8ff" stroke="#63b8ff" points="423.54,-80.49 431.98,-74.08 421.39,-73.83 423.54,-80.49"/>
</a>
</g>
</g>
<!-- Node7&#45;&gt;Node2 -->
<g id="edge9_Node000007_Node000002" class="edge">
<title>Node7&#45;&gt;Node2</title>
<g id="a_edge9_Node000007_Node000002"><a xlink:title=" ">
<path fill="none" stroke="#63b8ff" d="M424.95,-54.98C386.5,-45.23 323.8,-29.33 284.7,-19.42"/>
<polygon fill="#63b8ff" stroke="#63b8ff" points="285.37,-15.98 274.81,-16.91 283.65,-22.76 285.37,-15.98"/>
</a>
</g>
</g>
<!-- Node8 -->
<g id="Node000008" class="node">
<title>Node8</title>
<g id="a_Node000008"><a xlink:title=" ">
<polygon fill="#e0e0e0" stroke="#999999" points="480.53,-19 436.53,-19 436.53,0 480.53,0 480.53,-19"/>
<text text-anchor="middle" x="458.53" y="-7" font-family="Helvetica,sans-Serif" font-size="10.00">string</text>
</a>
</g>
</g>
<!-- Node7&#45;&gt;Node8 -->
<g id="edge10_Node000007_Node000008" class="edge">
<title>Node7&#45;&gt;Node8</title>
<g id="a_edge10_Node000007_Node000008"><a xlink:title=" ">
<path fill="none" stroke="#63b8ff" d="M458.53,-54.75C458.53,-47.8 458.53,-37.85 458.53,-29.13"/>
<polygon fill="#63b8ff" stroke="#63b8ff" points="462.03,-29.09 458.53,-19.09 455.03,-29.09 462.03,-29.09"/>
</a>
</g>
</g>
<!-- Node10 -->
<g id="Node000010" class="node">
<title>Node10</title>
<g id="a_Node000010"><a xlink:title=" ">
<polygon fill="#e0e0e0" stroke="#999999" points="116.53,-74 66.53,-74 66.53,-55 116.53,-55 116.53,-74"/>
<text text-anchor="middle" x="91.53" y="-62" font-family="Helvetica,sans-Serif" font-size="10.00">atomic</text>
</a>
</g>
</g>
<!-- Node9&#45;&gt;Node10 -->
<g id="edge12_Node000009_Node000010" class="edge">
<title>Node9&#45;&gt;Node10</title>
<g id="a_edge12_Node000009_Node000010"><a xlink:title=" ">
<path fill="none" stroke="#63b8ff" d="M91.53,-109.75C91.53,-102.8 91.53,-92.85 91.53,-84.13"/>
<polygon fill="#63b8ff" stroke="#63b8ff" points="95.03,-84.09 91.53,-74.09 88.03,-84.09 95.03,-84.09"/>
</a>
</g>
</g>
</g>
</svg>
