<?xml version="1.0" encoding="UTF-8" standalone="no"?>
<!DOCTYPE svg PUBLIC "-//W3C//DTD SVG 1.1//EN"
 "http://www.w3.org/Graphics/SVG/1.1/DTD/svg11.dtd">
<!-- Generated by graphviz version 2.43.0 (0)
 -->
<!-- Title: include/helios/engine/runtime/spawn/events/SpawnPlanRequestExecutedEvent.ixx Pages: 1 -->
<svg width="211pt" height="170pt"
 viewBox="0.00 0.00 211.00 170.00" xmlns="http://www.w3.org/2000/svg" xmlns:xlink="http://www.w3.org/1999/xlink">
<g id="graph0" class="graph" transform="scale(1 1) rotate(0) translate(4 166)">
<title>include/helios/engine/runtime/spawn/events/SpawnPlanRequestExecutedEvent.ixx</title>
<!-- Node1 -->
<g id="Node000001" class="node">
<title>Node1</title>
<g id="a_Node000001"><a xlink:title="Event indicating a spawn plan has been executed.">
<polygon fill="#999999" stroke="#666666" points="203,-162 0,-162 0,-121 203,-121 203,-162"/>
<text text-anchor="start" x="8" y="-150" font-family="Helvetica,sans-Serif" font-size="10.00">include/helios/engine</text>
<text text-anchor="start" x="8" y="-139" font-family="Helvetica,sans-Serif" font-size="10.00">/runtime/spawn/events</text>
<text text-anchor="middle" x="101.5" y="-128" font-family="Helvetica,sans-Serif" font-size="10.00">/SpawnPlanRequestExecutedEvent.ixx</text>
</a>
</g>
</g>
<!-- Node2 -->
<g id="Node000002" class="node">
<title>Node2</title>
<g id="a_Node000002"><a xlink:href="SpawnRuleId_8ixx.html" target="_top" xlink:title="Strongly&#45;typed identifier for SpawnRule instances.">
<polygon fill="white" stroke="#666666" points="168.5,-85 34.5,-85 34.5,-55 168.5,-55 168.5,-85"/>
<text text-anchor="start" x="42.5" y="-73" font-family="Helvetica,sans-Serif" font-size="10.00">helios.engine.core.data.</text>
<text text-anchor="middle" x="101.5" y="-62" font-family="Helvetica,sans-Serif" font-size="10.00">SpawnRuleId</text>
</a>
</g>
</g>
<!-- Node1&#45;&gt;Node2 -->
<g id="edge1_Node000001_Node000002" class="edge">
<title>Node1&#45;&gt;Node2</title>
<g id="a_edge1_Node000001_Node000002"><a xlink:title=" ">
<path fill="none" stroke="#63b8ff" d="M101.5,-120.77C101.5,-112.85 101.5,-103.63 101.5,-95.3"/>
<polygon fill="#63b8ff" stroke="#63b8ff" points="105,-95.04 101.5,-85.04 98,-95.04 105,-95.04"/>
</a>
</g>
</g>
<!-- Node3 -->
<g id="Node000003" class="node">
<title>Node3</title>
<g id="a_Node000003"><a xlink:title=" ">
<polygon fill="#e0e0e0" stroke="#999999" points="90.5,-19 40.5,-19 40.5,0 90.5,0 90.5,-19"/>
<text text-anchor="middle" x="65.5" y="-7" font-family="Helvetica,sans-Serif" font-size="10.00">cstdint</text>
</a>
</g>
</g>
<!-- Node2&#45;&gt;Node3 -->
<g id="edge2_Node000002_Node000003" class="edge">
<title>Node2&#45;&gt;Node3</title>
<g id="a_edge2_Node000002_Node000003"><a xlink:title=" ">
<path fill="none" stroke="#63b8ff" d="M92.79,-54.84C87.83,-46.78 81.57,-36.62 76.3,-28.06"/>
<polygon fill="#63b8ff" stroke="#63b8ff" points="79.12,-25.95 70.89,-19.27 73.15,-29.62 79.12,-25.95"/>
</a>
</g>
</g>
<!-- Node4 -->
<g id="Node000004" class="node">
<title>Node4</title>
<g id="a_Node000004"><a xlink:title=" ">
<polygon fill="#e0e0e0" stroke="#999999" points="168,-19 109,-19 109,0 168,0 168,-19"/>
<text text-anchor="middle" x="138.5" y="-7" font-family="Helvetica,sans-Serif" font-size="10.00">compare</text>
</a>
</g>
</g>
<!-- Node2&#45;&gt;Node4 -->
<g id="edge3_Node000002_Node000004" class="edge">
<title>Node2&#45;&gt;Node4</title>
<g id="a_edge3_Node000002_Node000004"><a xlink:title=" ">
<path fill="none" stroke="#63b8ff" d="M110.46,-54.84C115.61,-46.69 122.12,-36.4 127.57,-27.78"/>
<polygon fill="#63b8ff" stroke="#63b8ff" points="130.57,-29.59 132.96,-19.27 124.65,-25.85 130.57,-29.59"/>
</a>
</g>
</g>
</g>
</svg>
