<?xml version="1.0" encoding="UTF-8" standalone="no"?>
<!DOCTYPE svg PUBLIC "-//W3C//DTD SVG 1.1//EN"
 "http://www.w3.org/Graphics/SVG/1.1/DTD/svg11.dtd">
<!-- Generated by graphviz version 2.43.0 (0)
 -->
<!-- Title: include/helios/engine/runtime/spawn/SpawnRequestHandler.ixx Pages: 1 -->
<!--zoomable 423 -->

<svg id="main" version="1.1" xmlns="http://www.w3.org/2000/svg" xmlns:xlink="http://www.w3.org/1999/xlink" xml:space="preserve" onload="init(evt)">

<style type="text/css"><![CDATA[
.node, .edge {opacity: 0.7;}
.node.selected, .edge.selected {opacity: 1;}
.edge:hover path { stroke: red; }
.edge:hover polygon { stroke: red; fill: red; }
]]></style>

<defs>
  <circle id="rim" cx="0" cy="0" r="7"/>
  <circle id="rim2" cx="0" cy="0" r="3.5"/>
  <g id="zoomPlus">
    <use xlink:href="#rim" fill="#404040"><set attributeName="fill" to="#808080" begin="zoomplus.mouseover" end="zoomplus.mouseout"/></use>
    <path d="M-4,0h8M0,-4v8" fill="none" stroke="white" stroke-width="1.5" pointer-events="none"/>
  </g>
  <g id="zoomMin">
    <use xlink:href="#rim" fill="#404040"><set attributeName="fill" to="#808080" begin="zoomminus.mouseover" end="zoomminus.mouseout"/></use>
    <path d="M-4,0h8" fill="none" stroke="white" stroke-width="1.5" pointer-events="none"/>
  </g>
  <g id="arrowUp" transform="translate(30 24)">
    <use xlink:href="#rim"/>
    <path pointer-events="none" fill="none" stroke="white" stroke-width="1.5" d="M0,-3.0v7 M-2.5,-0.5L0,-3.0L2.5,-0.5"/>
  </g>
  <g id="arrowRight" transform="rotate(90) translate(36 -43)">
    <use xlink:href="#rim"/>
    <path pointer-events="none" fill="none" stroke="white" stroke-width="1.5" d="M0,-3.0v7 M-2.5,-0.5L0,-3.0L2.5,-0.5"/>
  </g>
  <g id="arrowDown" transform="rotate(180) translate(-30 -48)">
    <use xlink:href="#rim"/>
    <path pointer-events="none" fill="none" stroke="white" stroke-width="1.5" d="M0,-3.0v7 M-2.5,-0.5L0,-3.0L2.5,-0.5"/>
  </g>
  <g id="arrowLeft" transform="rotate(270) translate(-36 17)">
    <use xlink:href="#rim"/>
    <path pointer-events="none" fill="none" stroke="white" stroke-width="1.5" d="M0,-3.0v7 M-2.5,-0.5L0,-3.0L2.5,-0.5"/>
  </g>
  <g id="resetDef">
    <use xlink:href="#rim2" fill="#404040"><set attributeName="fill" to="#808080" begin="reset.mouseover" end="reset.mouseout"/></use>
  </g>
</defs>
<script type="application/ecmascript">
var viewWidth = 1076;
var viewHeight = 423;
var sectionId = 'dynsection-0';
</script>
<script type="application/ecmascript" xlink:href="svg.min.js"/>
<svg id="graph" class="graph">
<g id="viewport">
<title>include/helios/engine/runtime/spawn/SpawnRequestHandler.ixx</title>
<!-- Node1 -->
<g id="Node000001" class="node">
<title>Node1</title>
<g id="a_Node000001"><a xlink:title="Interface for handling pool spawn and despawn requests.">
<polygon fill="#999999" stroke="#666666" points="317.5,-415 150.5,-415 150.5,-374 317.5,-374 317.5,-415"/>
<text text-anchor="start" x="158.5" y="-403" font-family="Helvetica,sans-Serif" font-size="10.00">include/helios/engine</text>
<text text-anchor="start" x="158.5" y="-392" font-family="Helvetica,sans-Serif" font-size="10.00">/runtime/spawn/SpawnRequest</text>
<text text-anchor="middle" x="234" y="-381" font-family="Helvetica,sans-Serif" font-size="10.00">Handler.ixx</text>
</a>
</g>
</g>
<!-- Node2 -->
<g id="Node000002" class="node">
<title>Node2</title>
<g id="a_Node000002"><a xlink:href="ScheduledSpawnPlanRequest_8ixx.html" target="_top" xlink:title="Data structure for scheduled spawn plan requests.">
<polygon fill="white" stroke="#666666" points="561,-338 355,-338 355,-308 561,-308 561,-338"/>
<text text-anchor="start" x="363" y="-326" font-family="Helvetica,sans-Serif" font-size="10.00">helios.engine.runtime.spawn.requests.</text>
<text text-anchor="middle" x="458" y="-315" font-family="Helvetica,sans-Serif" font-size="10.00">ScheduledSpawnPlanRequest</text>
</a>
</g>
</g>
<!-- Node1&#45;&gt;Node2 -->
<g id="edge1_Node000001_Node000002" class="edge">
<title>Node1&#45;&gt;Node2</title>
<g id="a_edge1_Node000001_Node000002"><a xlink:title=" ">
<path fill="none" stroke="#63b8ff" d="M296.99,-373.96C330.41,-363.59 371.09,-350.97 403.19,-341"/>
<polygon fill="#63b8ff" stroke="#63b8ff" points="404.35,-344.31 412.87,-338 402.28,-337.62 404.35,-344.31"/>
</a>
</g>
</g>
<!-- Node20 -->
<g id="Node000020" class="node">
<title>Node20</title>
<g id="a_Node000020"><a xlink:href="SpawnRequest_8ixx.html" target="_top" xlink:title="Data structure for spawn requests processed by SpawnManager.">
<polygon fill="white" stroke="#666666" points="337,-338 131,-338 131,-308 337,-308 337,-338"/>
<text text-anchor="start" x="139" y="-326" font-family="Helvetica,sans-Serif" font-size="10.00">helios.engine.runtime.spawn.requests.</text>
<text text-anchor="middle" x="234" y="-315" font-family="Helvetica,sans-Serif" font-size="10.00">SpawnRequest</text>
</a>
</g>
</g>
<!-- Node1&#45;&gt;Node20 -->
<g id="edge27_Node000001_Node000020" class="edge">
<title>Node1&#45;&gt;Node20</title>
<g id="a_edge27_Node000001_Node000020"><a xlink:title=" ">
<path fill="none" stroke="#63b8ff" d="M234,-373.77C234,-365.85 234,-356.63 234,-348.3"/>
<polygon fill="#63b8ff" stroke="#63b8ff" points="237.5,-348.04 234,-338.04 230.5,-348.04 237.5,-348.04"/>
</a>
</g>
</g>
<!-- Node21 -->
<g id="Node000021" class="node">
<title>Node21</title>
<g id="a_Node000021"><a xlink:href="DespawnRequest_8ixx.html" target="_top" xlink:title="Data structure for despawn requests processed by SpawnManager.">
<polygon fill="white" stroke="#666666" points="206,-272 0,-272 0,-242 206,-242 206,-272"/>
<text text-anchor="start" x="8" y="-260" font-family="Helvetica,sans-Serif" font-size="10.00">helios.engine.runtime.spawn.requests.</text>
<text text-anchor="middle" x="103" y="-249" font-family="Helvetica,sans-Serif" font-size="10.00">DespawnRequest</text>
</a>
</g>
</g>
<!-- Node1&#45;&gt;Node21 -->
<g id="edge30_Node000001_Node000021" class="edge">
<title>Node1&#45;&gt;Node21</title>
<g id="a_edge30_Node000001_Node000021"><a xlink:title=" ">
<path fill="none" stroke="#63b8ff" d="M171.18,-374C152.98,-365.56 134.63,-353.88 122,-338 109.53,-322.33 105.03,-299.81 103.5,-282.66"/>
<polygon fill="#63b8ff" stroke="#63b8ff" points="106.97,-282.05 102.87,-272.28 99.98,-282.48 106.97,-282.05"/>
</a>
</g>
</g>
<!-- Node3 -->
<g id="Node000003" class="node">
<title>Node3</title>
<g id="a_Node000003"><a xlink:href="SpawnContext_8ixx.html" target="_top" xlink:title="Context data passed to spawn behaviors during entity initialization.">
<polygon fill="white" stroke="#666666" points="657.5,-272 496.5,-272 496.5,-242 657.5,-242 657.5,-272"/>
<text text-anchor="start" x="504.5" y="-260" font-family="Helvetica,sans-Serif" font-size="10.00">helios.engine.runtime.spawn.</text>
<text text-anchor="middle" x="577" y="-249" font-family="Helvetica,sans-Serif" font-size="10.00">SpawnContext</text>
</a>
</g>
</g>
<!-- Node2&#45;&gt;Node3 -->
<g id="edge2_Node000002_Node000003" class="edge">
<title>Node2&#45;&gt;Node3</title>
<g id="a_edge2_Node000002_Node000003"><a xlink:title=" ">
<path fill="none" stroke="#63b8ff" d="M484.12,-307.95C501.09,-298.83 523.42,-286.82 541.93,-276.86"/>
<polygon fill="#63b8ff" stroke="#63b8ff" points="543.8,-279.83 550.95,-272.01 540.48,-273.67 543.8,-279.83"/>
</a>
</g>
</g>
<!-- Node14 -->
<g id="Node000014" class="node">
<title>Node14</title>
<g id="a_Node000014"><a xlink:href="ScheduledSpawnPlan_8ixx.html" target="_top" xlink:title="A spawn plan that has been scheduled for execution.">
<polygon fill="white" stroke="#666666" points="478,-272 262,-272 262,-242 478,-242 478,-272"/>
<text text-anchor="start" x="270" y="-260" font-family="Helvetica,sans-Serif" font-size="10.00">helios.engine.runtime.spawn.scheduling.</text>
<text text-anchor="middle" x="370" y="-249" font-family="Helvetica,sans-Serif" font-size="10.00">ScheduledSpawnPlan</text>
</a>
</g>
</g>
<!-- Node2&#45;&gt;Node14 -->
<g id="edge16_Node000002_Node000014" class="edge">
<title>Node2&#45;&gt;Node14</title>
<g id="a_edge16_Node000002_Node000014"><a xlink:title=" ">
<path fill="none" stroke="#63b8ff" d="M438.47,-307.8C426.51,-299.1 411.01,-287.82 397.78,-278.2"/>
<polygon fill="#63b8ff" stroke="#63b8ff" points="399.62,-275.22 389.48,-272.16 395.5,-280.88 399.62,-275.22"/>
</a>
</g>
</g>
<!-- Node4 -->
<g id="Node000004" class="node">
<title>Node4</title>
<g id="a_Node000004"><a xlink:title=" ">
<polygon fill="#e0e0e0" stroke="#999999" points="592,-200.5 536,-200.5 536,-181.5 592,-181.5 592,-200.5"/>
<text text-anchor="middle" x="564" y="-188.5" font-family="Helvetica,sans-Serif" font-size="10.00">optional</text>
</a>
</g>
</g>
<!-- Node3&#45;&gt;Node4 -->
<g id="edge3_Node000003_Node000004" class="edge">
<title>Node3&#45;&gt;Node4</title>
<g id="a_edge3_Node000003_Node000004"><a xlink:title=" ">
<path fill="none" stroke="#63b8ff" d="M574.11,-241.8C572.27,-232.7 569.85,-220.79 567.84,-210.9"/>
<polygon fill="#63b8ff" stroke="#63b8ff" points="571.22,-209.95 565.8,-200.84 564.36,-211.34 571.22,-209.95"/>
</a>
</g>
</g>
<!-- Node5 -->
<g id="Node000005" class="node">
<title>Node5</title>
<g id="a_Node000005"><a xlink:href="EmitterContext_8ixx.html" target="_top" xlink:title="Context data from the entity that triggered a spawn.">
<polygon fill="white" stroke="#666666" points="791.5,-206 630.5,-206 630.5,-176 791.5,-176 791.5,-206"/>
<text text-anchor="start" x="638.5" y="-194" font-family="Helvetica,sans-Serif" font-size="10.00">helios.engine.runtime.spawn.</text>
<text text-anchor="middle" x="711" y="-183" font-family="Helvetica,sans-Serif" font-size="10.00">EmitterContext</text>
</a>
</g>
</g>
<!-- Node3&#45;&gt;Node5 -->
<g id="edge4_Node000003_Node000005" class="edge">
<title>Node3&#45;&gt;Node5</title>
<g id="a_edge4_Node000003_Node000005"><a xlink:title=" ">
<path fill="none" stroke="#63b8ff" d="M606.41,-241.95C625.78,-232.7 651.36,-220.49 672.37,-210.45"/>
<polygon fill="#63b8ff" stroke="#63b8ff" points="674.15,-213.48 681.66,-206.01 671.13,-207.16 674.15,-213.48"/>
</a>
</g>
</g>
<!-- Node6 -->
<g id="Node000006" class="node">
<title>Node6</title>
<g id="a_Node000006"><a xlink:href="helios_2math_2__module_8ixx.html" target="_top" xlink:title="Module exports for mathematical types and utilities.">
<polygon fill="white" stroke="#666666" points="754,-134.5 680,-134.5 680,-115.5 754,-115.5 754,-134.5"/>
<text text-anchor="middle" x="717" y="-122.5" font-family="Helvetica,sans-Serif" font-size="10.00">helios.math</text>
</a>
</g>
</g>
<!-- Node5&#45;&gt;Node6 -->
<g id="edge5_Node000005_Node000006" class="edge">
<title>Node5&#45;&gt;Node6</title>
<g id="a_edge5_Node000005_Node000006"><a xlink:title=" ">
<path fill="none" stroke="#63b8ff" d="M712.33,-175.8C713.18,-166.7 714.3,-154.79 715.23,-144.9"/>
<polygon fill="#63b8ff" stroke="#63b8ff" points="718.72,-145.13 716.17,-134.84 711.75,-144.47 718.72,-145.13"/>
</a>
</g>
</g>
<!-- Node7 -->
<g id="Node000007" class="node">
<title>Node7</title>
<g id="a_Node000007"><a xlink:href="helios_2math_2concepts_2__module_8ixx.html" target="_top" xlink:title="Math concepts module exports.">
<polygon fill="white" stroke="#666666" points="933.5,-74 812.5,-74 812.5,-55 933.5,-55 933.5,-74"/>
<text text-anchor="middle" x="873" y="-62" font-family="Helvetica,sans-Serif" font-size="10.00">helios.math.concepts</text>
</a>
</g>
</g>
<!-- Node6&#45;&gt;Node7 -->
<g id="edge6_Node000006_Node000007" class="edge">
<title>Node6&#45;&gt;Node7</title>
<g id="a_edge6_Node000006_Node000007"><a xlink:title=" ">
<path fill="none" stroke="#63b8ff" d="M739.68,-115.49C766.26,-105.53 810.48,-88.95 840.64,-77.63"/>
<polygon fill="#63b8ff" stroke="#63b8ff" points="842.15,-80.81 850.29,-74.02 839.7,-74.25 842.15,-80.81"/>
</a>
</g>
</g>
<!-- Node8 -->
<g id="Node000008" class="node">
<title>Node8</title>
<g id="a_Node000008"><a xlink:href="utils_8ixx.html" target="_top" xlink:title="Misc math utility functions.">
<polygon fill="white" stroke="#666666" points="1068,-74 970,-74 970,-55 1068,-55 1068,-74"/>
<text text-anchor="middle" x="1019" y="-62" font-family="Helvetica,sans-Serif" font-size="10.00">helios.math.utils</text>
</a>
</g>
</g>
<!-- Node6&#45;&gt;Node8 -->
<g id="edge8_Node000006_Node000008" class="edge">
<title>Node6&#45;&gt;Node8</title>
<g id="a_edge8_Node000006_Node000008"><a xlink:title=" ">
<path fill="none" stroke="#63b8ff" d="M754.03,-116.83C806.81,-106.6 904.01,-87.77 964.87,-75.98"/>
<polygon fill="#63b8ff" stroke="#63b8ff" points="965.9,-79.35 975.06,-74.01 964.57,-72.48 965.9,-79.35"/>
</a>
</g>
</g>
<!-- Node10 -->
<g id="Node000010" class="node">
<title>Node10</title>
<g id="a_Node000010"><a xlink:href="helios_2math_2transform_2__module_8ixx.html" target="_top" xlink:title="Module exports for transformation utilities.">
<polygon fill="white" stroke="#666666" points="635.5,-74 510.5,-74 510.5,-55 635.5,-55 635.5,-74"/>
<text text-anchor="middle" x="573" y="-62" font-family="Helvetica,sans-Serif" font-size="10.00">helios.math.transform</text>
</a>
</g>
</g>
<!-- Node6&#45;&gt;Node10 -->
<g id="edge10_Node000006_Node000010" class="edge">
<title>Node6&#45;&gt;Node10</title>
<g id="a_edge10_Node000006_Node000010"><a xlink:title=" ">
<path fill="none" stroke="#63b8ff" d="M696.06,-115.49C671.64,-105.57 631.07,-89.09 603.23,-77.78"/>
<polygon fill="#63b8ff" stroke="#63b8ff" points="604.55,-74.54 593.96,-74.02 601.91,-81.02 604.55,-74.54"/>
</a>
</g>
</g>
<!-- Node11 -->
<g id="Node000011" class="node">
<title>Node11</title>
<g id="a_Node000011"><a xlink:href="helios_2math_2types_2__module_8ixx.html" target="_top" xlink:title="Module exports for vector and matrix type definitions.">
<polygon fill="white" stroke="#666666" points="776,-74 672,-74 672,-55 776,-55 776,-74"/>
<text text-anchor="middle" x="724" y="-62" font-family="Helvetica,sans-Serif" font-size="10.00">helios.math.types</text>
</a>
</g>
</g>
<!-- Node6&#45;&gt;Node11 -->
<g id="edge12_Node000006_Node000011" class="edge">
<title>Node6&#45;&gt;Node11</title>
<g id="a_edge12_Node000006_Node000011"><a xlink:title=" ">
<path fill="none" stroke="#63b8ff" d="M718.03,-115.37C719,-107.25 720.49,-94.81 721.74,-84.39"/>
<polygon fill="#63b8ff" stroke="#63b8ff" points="725.25,-84.51 722.96,-74.17 718.3,-83.68 725.25,-84.51"/>
</a>
</g>
</g>
<!-- Node12 -->
<g id="Node000012" class="node">
<title>Node12</title>
<g id="a_Node000012"><a xlink:href="TransformType_8ixx.html" target="_top" xlink:title="Defines transform inheritance flags for scene graph hierarchies.">
<polygon fill="white" stroke="#666666" points="492.5,-74 343.5,-74 343.5,-55 492.5,-55 492.5,-74"/>
<text text-anchor="middle" x="418" y="-62" font-family="Helvetica,sans-Serif" font-size="10.00">helios.math.TransformType</text>
</a>
</g>
</g>
<!-- Node6&#45;&gt;Node12 -->
<g id="edge14_Node000006_Node000012" class="edge">
<title>Node6&#45;&gt;Node12</title>
<g id="a_edge14_Node000006_Node000012"><a xlink:title=" ">
<path fill="none" stroke="#63b8ff" d="M679.74,-116.71C627.35,-106.46 531.63,-87.73 471.6,-75.99"/>
<polygon fill="#63b8ff" stroke="#63b8ff" points="472.05,-72.51 461.56,-74.02 470.7,-79.38 472.05,-72.51"/>
</a>
</g>
</g>
<!-- Node7&#45;&gt;Node7 -->
<g id="edge7_Node000007_Node000007" class="edge">
<title>Node7&#45;&gt;Node7</title>
<g id="a_edge7_Node000007_Node000007"><a xlink:title=" ">
<path fill="none" stroke="#63b8ff" d="M909.74,-74.03C931.31,-76.06 951.5,-72.88 951.5,-64.5 951.5,-57.49 937.39,-54.12 920.17,-54.39"/>
<polygon fill="#63b8ff" stroke="#63b8ff" points="919.53,-50.92 909.74,-54.97 919.92,-57.91 919.53,-50.92"/>
</a>
</g>
</g>
<!-- Node9 -->
<g id="Node000009" class="node">
<title>Node9</title>
<g id="a_Node000009"><a xlink:title=" ">
<polygon fill="#e0e0e0" stroke="#999999" points="1048.5,-19 989.5,-19 989.5,0 1048.5,0 1048.5,-19"/>
<text text-anchor="middle" x="1019" y="-7" font-family="Helvetica,sans-Serif" font-size="10.00">numbers</text>
</a>
</g>
</g>
<!-- Node8&#45;&gt;Node9 -->
<g id="edge9_Node000008_Node000009" class="edge">
<title>Node8&#45;&gt;Node9</title>
<g id="a_edge9_Node000008_Node000009"><a xlink:title=" ">
<path fill="none" stroke="#63b8ff" d="M1019,-54.75C1019,-47.8 1019,-37.85 1019,-29.13"/>
<polygon fill="#63b8ff" stroke="#63b8ff" points="1022.5,-29.09 1019,-19.09 1015.5,-29.09 1022.5,-29.09"/>
</a>
</g>
</g>
<!-- Node10&#45;&gt;Node10 -->
<g id="edge11_Node000010_Node000010" class="edge">
<title>Node10&#45;&gt;Node10</title>
<g id="a_edge11_Node000010_Node000010"><a xlink:title=" ">
<path fill="none" stroke="#63b8ff" d="M610.68,-74.03C632.8,-76.06 653.5,-72.88 653.5,-64.5 653.5,-57.43 638.76,-54.06 620.87,-54.4"/>
<polygon fill="#63b8ff" stroke="#63b8ff" points="620.47,-50.92 610.68,-54.97 620.86,-57.9 620.47,-50.92"/>
</a>
</g>
</g>
<!-- Node11&#45;&gt;Node11 -->
<g id="edge13_Node000011_Node000011" class="edge">
<title>Node11&#45;&gt;Node11</title>
<g id="a_edge13_Node000011_Node000011"><a xlink:title=" ">
<path fill="none" stroke="#63b8ff" d="M756.77,-74.03C776,-76.06 794,-72.88 794,-64.5 794,-57.62 781.89,-54.25 766.92,-54.38"/>
<polygon fill="#63b8ff" stroke="#63b8ff" points="766.55,-50.89 756.77,-54.97 766.95,-57.88 766.55,-50.89"/>
</a>
</g>
</g>
<!-- Node13 -->
<g id="Node000013" class="node">
<title>Node13</title>
<g id="a_Node000013"><a xlink:title=" ">
<polygon fill="#e0e0e0" stroke="#999999" points="303,-19 253,-19 253,0 303,0 303,-19"/>
<text text-anchor="middle" x="278" y="-7" font-family="Helvetica,sans-Serif" font-size="10.00">cstdint</text>
</a>
</g>
</g>
<!-- Node12&#45;&gt;Node13 -->
<g id="edge15_Node000012_Node000013" class="edge">
<title>Node12&#45;&gt;Node13</title>
<g id="a_edge15_Node000012_Node000013"><a xlink:title=" ">
<path fill="none" stroke="#63b8ff" d="M395.51,-54.98C372.48,-46.27 336.46,-32.63 310.37,-22.75"/>
<polygon fill="#63b8ff" stroke="#63b8ff" points="311.49,-19.44 300.9,-19.17 309.02,-25.98 311.49,-19.44"/>
</a>
</g>
</g>
<!-- Node15 -->
<g id="Node000015" class="node">
<title>Node15</title>
<g id="a_Node000015"><a xlink:href="SpawnProfileId_8ixx.html" target="_top" xlink:title="Strongly&#45;typed identifier for SpawnProfile instances.">
<polygon fill="white" stroke="#666666" points="258,-206 124,-206 124,-176 258,-176 258,-206"/>
<text text-anchor="start" x="132" y="-194" font-family="Helvetica,sans-Serif" font-size="10.00">helios.engine.core.data.</text>
<text text-anchor="middle" x="191" y="-183" font-family="Helvetica,sans-Serif" font-size="10.00">SpawnProfileId</text>
</a>
</g>
</g>
<!-- Node14&#45;&gt;Node15 -->
<g id="edge17_Node000014_Node000015" class="edge">
<title>Node14&#45;&gt;Node15</title>
<g id="a_edge17_Node000014_Node000015"><a xlink:title=" ">
<path fill="none" stroke="#63b8ff" d="M330.72,-241.95C304.02,-232.41 268.51,-219.71 239.97,-209.51"/>
<polygon fill="#63b8ff" stroke="#63b8ff" points="240.79,-206.08 230.19,-206.01 238.43,-212.67 240.79,-206.08"/>
</a>
</g>
</g>
<!-- Node17 -->
<g id="Node000017" class="node">
<title>Node17</title>
<g id="a_Node000017"><a xlink:href="SpawnPlan_8ixx.html" target="_top" xlink:title="Data structure describing a planned spawn operation.">
<polygon fill="white" stroke="#666666" points="492,-206 276,-206 276,-176 492,-176 492,-206"/>
<text text-anchor="start" x="284" y="-194" font-family="Helvetica,sans-Serif" font-size="10.00">helios.engine.runtime.spawn.scheduling.</text>
<text text-anchor="middle" x="384" y="-183" font-family="Helvetica,sans-Serif" font-size="10.00">SpawnPlan</text>
</a>
</g>
</g>
<!-- Node14&#45;&gt;Node17 -->
<g id="edge20_Node000014_Node000017" class="edge">
<title>Node14&#45;&gt;Node17</title>
<g id="a_edge20_Node000014_Node000017"><a xlink:title=" ">
<path fill="none" stroke="#63b8ff" d="M373.11,-241.8C374.76,-234.26 376.83,-224.78 378.72,-216.13"/>
<polygon fill="#63b8ff" stroke="#63b8ff" points="382.18,-216.68 380.9,-206.16 375.35,-215.19 382.18,-216.68"/>
</a>
</g>
</g>
<!-- Node15&#45;&gt;Node13 -->
<g id="edge18_Node000015_Node000013" class="edge">
<title>Node15&#45;&gt;Node13</title>
<g id="a_edge18_Node000015_Node000013"><a xlink:title=" ">
<path fill="none" stroke="#63b8ff" d="M184.71,-175.62C174.26,-149.34 156.76,-92.78 181,-55 194.56,-33.86 220.95,-22.63 242.78,-16.75"/>
<polygon fill="#63b8ff" stroke="#63b8ff" points="243.85,-20.09 252.75,-14.33 242.2,-13.29 243.85,-20.09"/>
</a>
</g>
</g>
<!-- Node16 -->
<g id="Node000016" class="node">
<title>Node16</title>
<g id="a_Node000016"><a xlink:title=" ">
<polygon fill="#e0e0e0" stroke="#999999" points="249.5,-74 190.5,-74 190.5,-55 249.5,-55 249.5,-74"/>
<text text-anchor="middle" x="220" y="-62" font-family="Helvetica,sans-Serif" font-size="10.00">compare</text>
</a>
</g>
</g>
<!-- Node15&#45;&gt;Node16 -->
<g id="edge19_Node000015_Node000016" class="edge">
<title>Node15&#45;&gt;Node16</title>
<g id="a_edge19_Node000015_Node000016"><a xlink:title=" ">
<path fill="none" stroke="#63b8ff" d="M194.33,-175.72C199.59,-153.12 209.84,-109.12 215.67,-84.09"/>
<polygon fill="#63b8ff" stroke="#63b8ff" points="219.14,-84.6 218,-74.07 212.33,-83.01 219.14,-84.6"/>
</a>
</g>
</g>
<!-- Node18 -->
<g id="Node000018" class="node">
<title>Node18</title>
<g id="a_Node000018"><a xlink:href="SpawnRuleId_8ixx.html" target="_top" xlink:title="Strongly&#45;typed identifier for SpawnRule instances.">
<polygon fill="white" stroke="#666666" points="505,-140 371,-140 371,-110 505,-110 505,-140"/>
<text text-anchor="start" x="379" y="-128" font-family="Helvetica,sans-Serif" font-size="10.00">helios.engine.core.data.</text>
<text text-anchor="middle" x="438" y="-117" font-family="Helvetica,sans-Serif" font-size="10.00">SpawnRuleId</text>
</a>
</g>
</g>
<!-- Node17&#45;&gt;Node18 -->
<g id="edge21_Node000017_Node000018" class="edge">
<title>Node17&#45;&gt;Node18</title>
<g id="a_edge21_Node000017_Node000018"><a xlink:title=" ">
<path fill="none" stroke="#63b8ff" d="M395.98,-175.8C402.91,-167.59 411.76,-157.1 419.55,-147.87"/>
<polygon fill="#63b8ff" stroke="#63b8ff" points="422.28,-150.06 426.05,-140.16 416.93,-145.55 422.28,-150.06"/>
</a>
</g>
</g>
<!-- Node19 -->
<g id="Node000019" class="node">
<title>Node19</title>
<g id="a_Node000019"><a xlink:href="GameObjectPoolId_8ixx.html" target="_top" xlink:title="Strongly&#45;typed identifier for GameObjectPool instances.">
<polygon fill="white" stroke="#666666" points="353,-140 219,-140 219,-110 353,-110 353,-140"/>
<text text-anchor="start" x="227" y="-128" font-family="Helvetica,sans-Serif" font-size="10.00">helios.engine.core.data.</text>
<text text-anchor="middle" x="286" y="-117" font-family="Helvetica,sans-Serif" font-size="10.00">GameObjectPoolId</text>
</a>
</g>
</g>
<!-- Node17&#45;&gt;Node19 -->
<g id="edge24_Node000017_Node000019" class="edge">
<title>Node17&#45;&gt;Node19</title>
<g id="a_edge24_Node000017_Node000019"><a xlink:title=" ">
<path fill="none" stroke="#63b8ff" d="M362.25,-175.8C348.67,-166.93 331.01,-155.39 316.1,-145.66"/>
<polygon fill="#63b8ff" stroke="#63b8ff" points="317.98,-142.7 307.69,-140.16 314.15,-148.56 317.98,-142.7"/>
</a>
</g>
</g>
<!-- Node18&#45;&gt;Node13 -->
<g id="edge22_Node000018_Node000013" class="edge">
<title>Node18&#45;&gt;Node13</title>
<g id="a_edge22_Node000018_Node000013"><a xlink:title=" ">
<path fill="none" stroke="#63b8ff" d="M400.28,-109.87C379.87,-101.22 354.85,-88.95 335,-74 317.33,-60.69 300.89,-41.31 290.25,-27.46"/>
<polygon fill="#63b8ff" stroke="#63b8ff" points="292.92,-25.2 284.14,-19.28 287.32,-29.39 292.92,-25.2"/>
</a>
</g>
</g>
<!-- Node18&#45;&gt;Node16 -->
<g id="edge23_Node000018_Node000016" class="edge">
<title>Node18&#45;&gt;Node16</title>
<g id="a_edge23_Node000018_Node000016"><a xlink:title=" ">
<path fill="none" stroke="#63b8ff" d="M385.78,-109.99C347.03,-99.59 295,-85.63 259.63,-76.14"/>
<polygon fill="#63b8ff" stroke="#63b8ff" points="260.24,-72.67 249.68,-73.46 258.43,-79.44 260.24,-72.67"/>
</a>
</g>
</g>
<!-- Node19&#45;&gt;Node13 -->
<g id="edge25_Node000019_Node000013" class="edge">
<title>Node19&#45;&gt;Node13</title>
<g id="a_edge25_Node000019_Node000013"><a xlink:title=" ">
<path fill="none" stroke="#63b8ff" d="M284.99,-109.63C283.55,-89.21 280.91,-51.81 279.32,-29.24"/>
<polygon fill="#63b8ff" stroke="#63b8ff" points="282.81,-28.96 278.62,-19.23 275.83,-29.45 282.81,-28.96"/>
</a>
</g>
</g>
<!-- Node19&#45;&gt;Node16 -->
<g id="edge26_Node000019_Node000016" class="edge">
<title>Node19&#45;&gt;Node16</title>
<g id="a_edge26_Node000019_Node000016"><a xlink:title=" ">
<path fill="none" stroke="#63b8ff" d="M270.02,-109.84C260.25,-101.17 247.73,-90.08 237.66,-81.15"/>
<polygon fill="#63b8ff" stroke="#63b8ff" points="239.69,-78.28 229.89,-74.27 235.05,-83.52 239.69,-78.28"/>
</a>
</g>
</g>
<!-- Node20&#45;&gt;Node3 -->
<g id="edge29_Node000020_Node000003" class="edge">
<title>Node20&#45;&gt;Node3</title>
<g id="a_edge29_Node000020_Node000003"><a xlink:title=" ">
<path fill="none" stroke="#63b8ff" d="M309.27,-307.95C363.22,-297.89 435.96,-284.32 492,-273.86"/>
<polygon fill="#63b8ff" stroke="#63b8ff" points="492.71,-277.29 501.9,-272.01 491.43,-270.41 492.71,-277.29"/>
</a>
</g>
</g>
<!-- Node20&#45;&gt;Node15 -->
<g id="edge28_Node000020_Node000015" class="edge">
<title>Node20&#45;&gt;Node15</title>
<g id="a_edge28_Node000020_Node000015"><a xlink:title=" ">
<path fill="none" stroke="#63b8ff" d="M231.59,-307.86C228.62,-291.67 222.96,-264.47 215,-242 211.81,-233 207.49,-223.46 203.39,-215.16"/>
<polygon fill="#63b8ff" stroke="#63b8ff" points="206.43,-213.41 198.77,-206.09 200.19,-216.59 206.43,-213.41"/>
</a>
</g>
</g>
<!-- Node21&#45;&gt;Node4 -->
<g id="edge31_Node000021_Node000004" class="edge">
<title>Node21&#45;&gt;Node4</title>
<g id="a_edge31_Node000021_Node000004"><a xlink:title=" ">
<path fill="none" stroke="#63b8ff" d="M206.06,-245.73C286.64,-237.06 401.34,-223.29 501,-206 509.16,-204.58 517.86,-202.82 526.11,-201.02"/>
<polygon fill="#63b8ff" stroke="#63b8ff" points="526.89,-204.43 535.89,-198.84 525.36,-197.6 526.89,-204.43"/>
</a>
</g>
</g>
<!-- Node21&#45;&gt;Node15 -->
<g id="edge32_Node000021_Node000015" class="edge">
<title>Node21&#45;&gt;Node15</title>
<g id="a_edge32_Node000021_Node000015"><a xlink:title=" ">
<path fill="none" stroke="#63b8ff" d="M122.53,-241.8C134.49,-233.1 149.99,-221.82 163.22,-212.2"/>
<polygon fill="#63b8ff" stroke="#63b8ff" points="165.5,-214.88 171.52,-206.16 161.38,-209.22 165.5,-214.88"/>
</a>
</g>
</g>
<!-- Node22 -->
<g id="Node000022" class="node">
<title>Node22</title>
<g id="a_Node000022"><a xlink:href="Guid_8ixx.html" target="_top" xlink:title="Lightweight GUID (globally unique identifier) implementation.">
<polygon fill="white" stroke="#666666" points="106,-200.5 16,-200.5 16,-181.5 106,-181.5 106,-200.5"/>
<text text-anchor="middle" x="61" y="-188.5" font-family="Helvetica,sans-Serif" font-size="10.00">helios.util.Guid</text>
</a>
</g>
</g>
<!-- Node21&#45;&gt;Node22 -->
<g id="edge33_Node000021_Node000022" class="edge">
<title>Node21&#45;&gt;Node22</title>
<g id="a_edge33_Node000021_Node000022"><a xlink:title=" ">
<path fill="none" stroke="#63b8ff" d="M93.68,-241.8C87.39,-232.21 79.05,-219.5 72.37,-209.32"/>
<polygon fill="#63b8ff" stroke="#63b8ff" points="75.22,-207.28 66.8,-200.84 69.36,-211.13 75.22,-207.28"/>
</a>
</g>
</g>
<!-- Node22&#45;&gt;Node13 -->
<g id="edge35_Node000022_Node000013" class="edge">
<title>Node22&#45;&gt;Node13</title>
<g id="a_edge35_Node000022_Node000013"><a xlink:title=" ">
<path fill="none" stroke="#63b8ff" d="M66.95,-181.47C85.63,-154.89 143.4,-74.14 169,-55 191.15,-38.45 220.33,-26.96 242.92,-19.81"/>
<polygon fill="#63b8ff" stroke="#63b8ff" points="244.23,-23.07 252.79,-16.83 242.2,-16.37 244.23,-23.07"/>
</a>
</g>
</g>
<!-- Node23 -->
<g id="Node000023" class="node">
<title>Node23</title>
<g id="a_Node000023"><a xlink:title=" ">
<polygon fill="#e0e0e0" stroke="#999999" points="86,-134.5 36,-134.5 36,-115.5 86,-115.5 86,-134.5"/>
<text text-anchor="middle" x="61" y="-122.5" font-family="Helvetica,sans-Serif" font-size="10.00">atomic</text>
</a>
</g>
</g>
<!-- Node22&#45;&gt;Node23 -->
<g id="edge34_Node000022_Node000023" class="edge">
<title>Node22&#45;&gt;Node23</title>
<g id="a_edge34_Node000022_Node000023"><a xlink:title=" ">
<path fill="none" stroke="#63b8ff" d="M61,-181.37C61,-172.16 61,-157.29 61,-145.27"/>
<polygon fill="#63b8ff" stroke="#63b8ff" points="64.5,-144.91 61,-134.91 57.5,-144.91 64.5,-144.91"/>
</a>
</g>
</g>
</g>
</svg>

<g id="navigator" transform="translate(0 0)" fill="#404254">
  <rect fill="#f2f5e9" fill-opacity="0.5" stroke="#606060" stroke-width=".5" x="0" y="0" width="60" height="60"/>
  <use id="zoomplus" xlink:href="#zoomPlus" x="17" y="9" onmousedown="handleZoom(evt,'in')"/>
  <use id="zoomminus" xlink:href="#zoomMin" x="42" y="9" onmousedown="handleZoom(evt,'out')"/>
  <use id="reset" xlink:href="#resetDef" x="30" y="36" onmousedown="handleReset()"/>
   <use id="arrowup" xlink:href="#arrowUp" x="0" y="0" onmousedown="handlePan(0,-1)"/>
  <use id="arrowright" xlink:href="#arrowRight" x="0" y="0" onmousedown="handlePan(1,0)"/>
  <use id="arrowdown" xlink:href="#arrowDown" x="0" y="0" onmousedown="handlePan(0,1)"/>
  <use id="arrowleft" xlink:href="#arrowLeft" x="0" y="0" onmousedown="handlePan(-1,0)"/>
</g>
<svg viewBox="0 0 15 15" width="100%" height="30px" preserveAspectRatio="xMaxYMin meet">
 <g id="arrow_out" transform="scale(0.3 0.3)">
  <a xlink:href="SpawnRequestHandler_8ixx__incl_org.svg" target="_base">
   <rect id="button" ry="5" rx="5" y="6" x="6" height="38" width="38"
        fill="#f2f5e9" fill-opacity="0.5" stroke="#606060" stroke-width="1.0"/>
   <path id="arrow"
     d="M 11.500037,31.436501 C 11.940474,20.09759 22.043105,11.32322 32.158766,21.979434 L 37.068811,17.246167 C 37.068811,17.246167 37.088388,32 37.088388,32 L 22.160133,31.978069 C 22.160133,31.978069 26.997745,27.140456 26.997745,27.140456 C 18.528582,18.264221 13.291696,25.230495 11.500037,31.436501 z"
     style="fill:#404040;"/>
  </a>
 </g>
</svg>

<style type='text/css'>
<![CDATA[
[data-mouse-over-selected='false'] { opacity: 0.7; }
[data-mouse-over-selected='true']  { opacity: 1.0; }
]]>
</style>
<script type="application/ecmascript"><![CDATA[
document.addEventListener('DOMContentLoaded', (event) => {
  highlightEdges();
  highlightAdjacentNodes();
});
]]></script>
</svg>
