<?xml version="1.0" encoding="UTF-8" standalone="no"?>
<!DOCTYPE svg PUBLIC "-//W3C//DTD SVG 1.1//EN"
 "http://www.w3.org/Graphics/SVG/1.1/DTD/svg11.dtd">
<!-- Generated by graphviz version 2.43.0 (0)
 -->
<!-- Title: helios::engine::runtime::world::UpdateContext::UpdateContext Pages: 1 -->
<svg width="302pt" height="285pt"
 viewBox="0.00 0.00 302.00 285.00" xmlns="http://www.w3.org/2000/svg" xmlns:xlink="http://www.w3.org/1999/xlink">
<g id="graph0" class="graph" transform="scale(1 1) rotate(0) translate(4 281)">
<title>helios::engine::runtime::world::UpdateContext::UpdateContext</title>
<!-- Node1 -->
<g id="Node000001" class="node">
<title>Node1</title>
<g id="a_Node000001"><a xlink:title="Constructs an UpdateContext with required dependencies.">
<polygon fill="#999999" stroke="#666666" points="129,-159 0,-159 0,-118 129,-118 129,-159"/>
<text text-anchor="start" x="8" y="-147" font-family="Helvetica,sans-Serif" font-size="10.00">helios::engine::runtime</text>
<text text-anchor="start" x="8" y="-136" font-family="Helvetica,sans-Serif" font-size="10.00">::world::UpdateContext</text>
<text text-anchor="middle" x="64.5" y="-125" font-family="Helvetica,sans-Serif" font-size="10.00">::UpdateContext</text>
</a>
</g>
</g>
<!-- Node2 -->
<g id="Node000002" class="node">
<title>Node2</title>
<g id="a_Node000002"><a xlink:href="structhelios_1_1engine_1_1runtime_1_1world_1_1UpdateContext.html#a006a361316386a5d08617793cb358355" target="_top" xlink:title="Returns the command buffer for queueing commands.">
<polygon fill="white" stroke="#666666" points="294,-277 165,-277 165,-236 294,-236 294,-277"/>
<text text-anchor="start" x="173" y="-265" font-family="Helvetica,sans-Serif" font-size="10.00">helios::engine::runtime</text>
<text text-anchor="start" x="173" y="-254" font-family="Helvetica,sans-Serif" font-size="10.00">::world::UpdateContext</text>
<text text-anchor="middle" x="229.5" y="-243" font-family="Helvetica,sans-Serif" font-size="10.00">::commandBuffer</text>
</a>
</g>
</g>
<!-- Node1&#45;&gt;Node2 -->
<g id="edge1_Node000001_Node000002" class="edge">
<title>Node1&#45;&gt;Node2</title>
<g id="a_edge1_Node000001_Node000002"><a xlink:title=" ">
<path fill="none" stroke="#63b8ff" d="M84.97,-159.2C104.02,-178.62 134.55,-207.59 165,-227.5 166.85,-228.71 168.77,-229.9 170.72,-231.06"/>
<polygon fill="#63b8ff" stroke="#63b8ff" points="169.06,-234.14 179.5,-235.96 172.47,-228.03 169.06,-234.14"/>
</a>
</g>
</g>
<!-- Node3 -->
<g id="Node000003" class="node">
<title>Node3</title>
<g id="a_Node000003"><a xlink:href="structhelios_1_1engine_1_1runtime_1_1world_1_1UpdateContext.html#a0197c610dc51fc676bcde9b84545ed7b" target="_top" xlink:title="Returns the time elapsed since the last frame, in seconds.">
<polygon fill="white" stroke="#666666" points="294,-218 165,-218 165,-177 294,-177 294,-218"/>
<text text-anchor="start" x="173" y="-206" font-family="Helvetica,sans-Serif" font-size="10.00">helios::engine::runtime</text>
<text text-anchor="start" x="173" y="-195" font-family="Helvetica,sans-Serif" font-size="10.00">::world::UpdateContext</text>
<text text-anchor="middle" x="229.5" y="-184" font-family="Helvetica,sans-Serif" font-size="10.00">::deltaTime</text>
</a>
</g>
</g>
<!-- Node1&#45;&gt;Node3 -->
<g id="edge2_Node000001_Node000003" class="edge">
<title>Node1&#45;&gt;Node3</title>
<g id="a_edge2_Node000001_Node000003"><a xlink:title=" ">
<path fill="none" stroke="#63b8ff" d="M122.51,-159.14C135.36,-163.79 149.11,-168.77 162.31,-173.54"/>
<polygon fill="#63b8ff" stroke="#63b8ff" points="161.2,-176.86 171.8,-176.98 163.59,-170.28 161.2,-176.86"/>
</a>
</g>
</g>
<!-- Node4 -->
<g id="Node000004" class="node">
<title>Node4</title>
<g id="a_Node000004"><a xlink:href="structhelios_1_1engine_1_1runtime_1_1world_1_1UpdateContext.html#a459e72fe47399985183cc6ca35531dfa" target="_top" xlink:title="Returns the game world for entity lookups.">
<polygon fill="white" stroke="#666666" points="294,-159 165,-159 165,-118 294,-118 294,-159"/>
<text text-anchor="start" x="173" y="-147" font-family="Helvetica,sans-Serif" font-size="10.00">helios::engine::runtime</text>
<text text-anchor="start" x="173" y="-136" font-family="Helvetica,sans-Serif" font-size="10.00">::world::UpdateContext</text>
<text text-anchor="middle" x="229.5" y="-125" font-family="Helvetica,sans-Serif" font-size="10.00">::gameWorld</text>
</a>
</g>
</g>
<!-- Node1&#45;&gt;Node4 -->
<g id="edge3_Node000001_Node000004" class="edge">
<title>Node1&#45;&gt;Node4</title>
<g id="a_edge3_Node000001_Node000004"><a xlink:title=" ">
<path fill="none" stroke="#63b8ff" d="M129.45,-138.5C137.76,-138.5 146.32,-138.5 154.77,-138.5"/>
<polygon fill="#63b8ff" stroke="#63b8ff" points="155,-142 165,-138.5 155,-135 155,-142"/>
</a>
</g>
</g>
<!-- Node5 -->
<g id="Node000005" class="node">
<title>Node5</title>
<g id="a_Node000005"><a xlink:href="structhelios_1_1engine_1_1runtime_1_1world_1_1UpdateContext.html#a1c9a47461e487485eeeaaf442510dd68" target="_top" xlink:title="Returns the immutable input snapshot for this frame.">
<polygon fill="white" stroke="#666666" points="294,-100 165,-100 165,-59 294,-59 294,-100"/>
<text text-anchor="start" x="173" y="-88" font-family="Helvetica,sans-Serif" font-size="10.00">helios::engine::runtime</text>
<text text-anchor="start" x="173" y="-77" font-family="Helvetica,sans-Serif" font-size="10.00">::world::UpdateContext</text>
<text text-anchor="middle" x="229.5" y="-66" font-family="Helvetica,sans-Serif" font-size="10.00">::inputSnapshot</text>
</a>
</g>
</g>
<!-- Node1&#45;&gt;Node5 -->
<g id="edge4_Node000001_Node000005" class="edge">
<title>Node1&#45;&gt;Node5</title>
<g id="a_edge4_Node000001_Node000005"><a xlink:title=" ">
<path fill="none" stroke="#63b8ff" d="M122.51,-117.86C135.36,-113.21 149.11,-108.23 162.31,-103.46"/>
<polygon fill="#63b8ff" stroke="#63b8ff" points="163.59,-106.72 171.8,-100.02 161.2,-100.14 163.59,-106.72"/>
</a>
</g>
</g>
<!-- Node6 -->
<g id="Node000006" class="node">
<title>Node6</title>
<g id="a_Node000006"><a xlink:href="structhelios_1_1engine_1_1runtime_1_1world_1_1UpdateContext.html#a47e89a8a5cf18618ffdc6caccd012100" target="_top" xlink:title="Returns the viewport snapshots for this frame.">
<polygon fill="white" stroke="#666666" points="294,-41 165,-41 165,0 294,0 294,-41"/>
<text text-anchor="start" x="173" y="-29" font-family="Helvetica,sans-Serif" font-size="10.00">helios::engine::runtime</text>
<text text-anchor="start" x="173" y="-18" font-family="Helvetica,sans-Serif" font-size="10.00">::world::UpdateContext</text>
<text text-anchor="middle" x="229.5" y="-7" font-family="Helvetica,sans-Serif" font-size="10.00">::viewportSnapshots</text>
</a>
</g>
</g>
<!-- Node1&#45;&gt;Node6 -->
<g id="edge5_Node000001_Node000006" class="edge">
<title>Node1&#45;&gt;Node6</title>
<g id="a_edge5_Node000001_Node000006"><a xlink:title=" ">
<path fill="none" stroke="#63b8ff" d="M85.44,-117.77C104.58,-98.64 134.96,-70.3 165,-50.5 167.18,-49.06 169.44,-47.65 171.76,-46.28"/>
<polygon fill="#63b8ff" stroke="#63b8ff" points="173.86,-49.12 180.87,-41.17 170.44,-43.01 173.86,-49.12"/>
</a>
</g>
</g>
</g>
</svg>
