<?xml version="1.0" encoding="UTF-8" standalone="no"?>
<!DOCTYPE svg PUBLIC "-//W3C//DTD SVG 1.1//EN"
 "http://www.w3.org/Graphics/SVG/1.1/DTD/svg11.dtd">
<!-- Generated by graphviz version 2.43.0 (0)
 -->
<!-- Title: helios::math::mat4::mat4 Pages: 1 -->
<svg width="660pt" height="60pt"
 viewBox="0.00 0.00 660.00 60.00" xmlns="http://www.w3.org/2000/svg" xmlns:xlink="http://www.w3.org/1999/xlink">
<g id="graph0" class="graph" transform="scale(1 1) rotate(0) translate(4 56)">
<title>helios::math::mat4::mat4</title>
<!-- Node1 -->
<g id="Node000001" class="node">
<title>Node1</title>
<g id="a_Node000001"><a xlink:title="Default constructor. Initializes all components to 0.">
<polygon fill="#999999" stroke="#666666" points="652,-41 543,-41 543,-11 652,-11 652,-41"/>
<text text-anchor="start" x="551" y="-29" font-family="Helvetica,sans-Serif" font-size="10.00">helios::math::mat4</text>
<text text-anchor="middle" x="597.5" y="-18" font-family="Helvetica,sans-Serif" font-size="10.00">::mat4</text>
</a>
</g>
</g>
<!-- Node2 -->
<g id="Node000002" class="node">
<title>Node2</title>
<g id="a_Node000002"><a xlink:href="structhelios_1_1math_1_1mat4.html#ad856b4652346ff475b653e257d64428d" target="_top" xlink:title=" ">
<polygon fill="white" stroke="#666666" points="507,-41 398,-41 398,-11 507,-11 507,-41"/>
<text text-anchor="start" x="406" y="-29" font-family="Helvetica,sans-Serif" font-size="10.00">helios::math::mat4</text>
<text text-anchor="middle" x="452.5" y="-18" font-family="Helvetica,sans-Serif" font-size="10.00">&lt; float &gt;::identity</text>
</a>
</g>
</g>
<!-- Node1&#45;&gt;Node2 -->
<g id="edge1_Node000001_Node000002" class="edge">
<title>Node1&#45;&gt;Node2</title>
<g id="a_edge1_Node000001_Node000002"><a xlink:title=" ">
<path fill="none" stroke="#63b8ff" d="M532.68,-26C524.25,-26 515.69,-26 507.46,-26"/>
<polygon fill="#63b8ff" stroke="#63b8ff" points="532.85,-29.5 542.85,-26 532.85,-22.5 532.85,-29.5"/>
</a>
</g>
</g>
<!-- Node3 -->
<g id="Node000003" class="node">
<title>Node3</title>
<g id="a_Node000003"><a xlink:href="namespacehelios_1_1engine_1_1modules_1_1physics_1_1collision_1_1Bounds.html#abb2fac9b11da117ceed65252f01e5e63" target="_top" xlink:title="Computes the world&#45;space AABB from local model bounds and transforms.">
<polygon fill="white" stroke="#666666" points="362,-46.5 208,-46.5 208,-5.5 362,-5.5 362,-46.5"/>
<text text-anchor="start" x="216" y="-34.5" font-family="Helvetica,sans-Serif" font-size="10.00">helios::engine::modules</text>
<text text-anchor="start" x="216" y="-23.5" font-family="Helvetica,sans-Serif" font-size="10.00">::physics::collision::</text>
<text text-anchor="middle" x="285" y="-12.5" font-family="Helvetica,sans-Serif" font-size="10.00">Bounds::computeWorldAabb</text>
</a>
</g>
</g>
<!-- Node2&#45;&gt;Node3 -->
<g id="edge2_Node000002_Node000003" class="edge">
<title>Node2&#45;&gt;Node3</title>
<g id="a_edge2_Node000002_Node000003"><a xlink:title=" ">
<path fill="none" stroke="#63b8ff" d="M387.68,-26C379.27,-26 370.59,-26 362.01,-26"/>
<polygon fill="#63b8ff" stroke="#63b8ff" points="387.77,-29.5 397.77,-26 387.77,-22.5 387.77,-29.5"/>
</a>
</g>
</g>
<!-- Node4 -->
<g id="Node000004" class="node">
<title>Node4</title>
<g id="a_Node000004"><a xlink:href="classhelios_1_1engine_1_1modules_1_1physics_1_1collision_1_1systems_1_1BoundsUpdateSystem.html#a797a0f4797abcb0fb3a1c06a6bb3ca83" target="_top" xlink:title="Updates collider bounds for all applicable entities.">
<polygon fill="white" stroke="#666666" points="172,-52 0,-52 0,0 172,0 172,-52"/>
<text text-anchor="start" x="8" y="-40" font-family="Helvetica,sans-Serif" font-size="10.00">helios::engine::modules</text>
<text text-anchor="start" x="8" y="-29" font-family="Helvetica,sans-Serif" font-size="10.00">::physics::collision::</text>
<text text-anchor="start" x="8" y="-18" font-family="Helvetica,sans-Serif" font-size="10.00">systems::BoundsUpdateSystem</text>
<text text-anchor="middle" x="86" y="-7" font-family="Helvetica,sans-Serif" font-size="10.00">::update</text>
</a>
</g>
</g>
<!-- Node3&#45;&gt;Node4 -->
<g id="edge3_Node000003_Node000004" class="edge">
<title>Node3&#45;&gt;Node4</title>
<g id="a_edge3_Node000003_Node000004"><a xlink:title=" ">
<path fill="none" stroke="#63b8ff" d="M197.6,-26C189.15,-26 180.57,-26 172.13,-26"/>
<polygon fill="#63b8ff" stroke="#63b8ff" points="197.83,-29.5 207.83,-26 197.83,-22.5 197.83,-29.5"/>
</a>
</g>
</g>
</g>
</svg>
