<?xml version="1.0" encoding="UTF-8" standalone="no"?>
<!DOCTYPE svg PUBLIC "-//W3C//DTD SVG 1.1//EN"
 "http://www.w3.org/Graphics/SVG/1.1/DTD/svg11.dtd">
<!-- Generated by graphviz version 2.43.0 (0)
 -->
<!-- Title: helios::engine::runtime::world::UpdateContext::gameWorld Pages: 1 -->
<!--zoomable 308 -->

<svg id="main" version="1.1" xmlns="http://www.w3.org/2000/svg" xmlns:xlink="http://www.w3.org/1999/xlink" xml:space="preserve" onload="init(evt)">

<style type="text/css"><![CDATA[
.node, .edge {opacity: 0.7;}
.node.selected, .edge.selected {opacity: 1;}
.edge:hover path { stroke: red; }
.edge:hover polygon { stroke: red; fill: red; }
]]></style>

<defs>
  <circle id="rim" cx="0" cy="0" r="7"/>
  <circle id="rim2" cx="0" cy="0" r="3.5"/>
  <g id="zoomPlus">
    <use xlink:href="#rim" fill="#404040"><set attributeName="fill" to="#808080" begin="zoomplus.mouseover" end="zoomplus.mouseout"/></use>
    <path d="M-4,0h8M0,-4v8" fill="none" stroke="white" stroke-width="1.5" pointer-events="none"/>
  </g>
  <g id="zoomMin">
    <use xlink:href="#rim" fill="#404040"><set attributeName="fill" to="#808080" begin="zoomminus.mouseover" end="zoomminus.mouseout"/></use>
    <path d="M-4,0h8" fill="none" stroke="white" stroke-width="1.5" pointer-events="none"/>
  </g>
  <g id="arrowUp" transform="translate(30 24)">
    <use xlink:href="#rim"/>
    <path pointer-events="none" fill="none" stroke="white" stroke-width="1.5" d="M0,-3.0v7 M-2.5,-0.5L0,-3.0L2.5,-0.5"/>
  </g>
  <g id="arrowRight" transform="rotate(90) translate(36 -43)">
    <use xlink:href="#rim"/>
    <path pointer-events="none" fill="none" stroke="white" stroke-width="1.5" d="M0,-3.0v7 M-2.5,-0.5L0,-3.0L2.5,-0.5"/>
  </g>
  <g id="arrowDown" transform="rotate(180) translate(-30 -48)">
    <use xlink:href="#rim"/>
    <path pointer-events="none" fill="none" stroke="white" stroke-width="1.5" d="M0,-3.0v7 M-2.5,-0.5L0,-3.0L2.5,-0.5"/>
  </g>
  <g id="arrowLeft" transform="rotate(270) translate(-36 17)">
    <use xlink:href="#rim"/>
    <path pointer-events="none" fill="none" stroke="white" stroke-width="1.5" d="M0,-3.0v7 M-2.5,-0.5L0,-3.0L2.5,-0.5"/>
  </g>
  <g id="resetDef">
    <use xlink:href="#rim2" fill="#404040"><set attributeName="fill" to="#808080" begin="reset.mouseover" end="reset.mouseout"/></use>
  </g>
</defs>
<script type="application/ecmascript">
var viewWidth = 541;
var viewHeight = 308;
var sectionId = 'dynsection-3';
</script>
<script type="application/ecmascript" xlink:href="svg.min.js"/>
<svg id="graph" class="graph">
<g id="viewport">
<title>helios::engine::runtime::world::UpdateContext::gameWorld</title>
<!-- Node1 -->
<g id="Node000001" class="node">
<title>Node1</title>
<g id="a_Node000001"><a xlink:title="Returns the game world for entity lookups.">
<polygon fill="#999999" stroke="#666666" points="533,-165 404,-165 404,-124 533,-124 533,-165"/>
<text text-anchor="start" x="412" y="-153" font-family="Helvetica,sans-Serif" font-size="10.00">helios::engine::runtime</text>
<text text-anchor="start" x="412" y="-142" font-family="Helvetica,sans-Serif" font-size="10.00">::world::UpdateContext</text>
<text text-anchor="middle" x="468.5" y="-131" font-family="Helvetica,sans-Serif" font-size="10.00">::gameWorld</text>
</a>
</g>
</g>
<!-- Node2 -->
<g id="Node000002" class="node">
<title>Node2</title>
<g id="a_Node000002"><a xlink:href="classhelios_1_1engine_1_1runtime_1_1spawn_1_1policy_1_1amount_1_1SpawnAll.html#a496fad85a648d7bc01515f613bf6b3cb" target="_top" xlink:title="Returns the number of inactive objects in the pool.">
<polygon fill="white" stroke="#666666" points="336,-300 204,-300 204,-259 336,-259 336,-300"/>
<text text-anchor="start" x="212" y="-288" font-family="Helvetica,sans-Serif" font-size="10.00">helios::engine::runtime</text>
<text text-anchor="start" x="212" y="-277" font-family="Helvetica,sans-Serif" font-size="10.00">::spawn::policy::amount</text>
<text text-anchor="middle" x="270" y="-266" font-family="Helvetica,sans-Serif" font-size="10.00">::SpawnAll::getAmount</text>
</a>
</g>
</g>
<!-- Node1&#45;&gt;Node2 -->
<g id="edge1_Node000001_Node000002" class="edge">
<title>Node1&#45;&gt;Node2</title>
<g id="a_edge1_Node000001_Node000002"><a xlink:title=" ">
<path fill="none" stroke="#63b8ff" d="M446.77,-173.55C428.51,-197.15 399.91,-229.66 368,-249.5 358.27,-255.55 347.23,-260.46 336.16,-264.42"/>
<polygon fill="#63b8ff" stroke="#63b8ff" points="449.77,-175.38 453.01,-165.3 444.19,-171.16 449.77,-175.38"/>
</a>
</g>
</g>
<!-- Node3 -->
<g id="Node000003" class="node">
<title>Node3</title>
<g id="a_Node000003"><a xlink:href="classhelios_1_1engine_1_1mechanics_1_1match_1_1rules_1_1guards_1_1DefaultMatchStateTransitionGuards.html#a01c761773a5709e9d85b57e050a146dd" target="_top" xlink:title="Guard that allows transition only if the player is active.">
<polygon fill="white" stroke="#666666" points="368,-240.5 172,-240.5 172,-188.5 368,-188.5 368,-240.5"/>
<text text-anchor="start" x="180" y="-228.5" font-family="Helvetica,sans-Serif" font-size="10.00">helios::engine::mechanics</text>
<text text-anchor="start" x="180" y="-217.5" font-family="Helvetica,sans-Serif" font-size="10.00">::match::rules::guards</text>
<text text-anchor="start" x="180" y="-206.5" font-family="Helvetica,sans-Serif" font-size="10.00">::DefaultMatchStateTransitionGuards</text>
<text text-anchor="middle" x="270" y="-195.5" font-family="Helvetica,sans-Serif" font-size="10.00">::isPlayerActive</text>
</a>
</g>
</g>
<!-- Node1&#45;&gt;Node3 -->
<g id="edge2_Node000001_Node000003" class="edge">
<title>Node1&#45;&gt;Node3</title>
<g id="a_edge2_Node000001_Node000003"><a xlink:title=" ">
<path fill="none" stroke="#63b8ff" d="M400.27,-168.45C382.14,-174.91 362.44,-181.92 344.02,-188.49"/>
<polygon fill="#63b8ff" stroke="#63b8ff" points="401.63,-171.68 409.87,-165.03 399.28,-165.09 401.63,-171.68"/>
</a>
</g>
</g>
<!-- Node4 -->
<g id="Node000004" class="node">
<title>Node4</title>
<g id="a_Node000004"><a xlink:href="classhelios_1_1engine_1_1mechanics_1_1match_1_1rules_1_1guards_1_1DefaultMatchStateTransitionGuards.html#acd3a0f438f7415d464e9b40813bed226" target="_top" xlink:title="Guard that allows transition only if the player is inactive.">
<polygon fill="white" stroke="#666666" points="368,-170.5 172,-170.5 172,-118.5 368,-118.5 368,-170.5"/>
<text text-anchor="start" x="180" y="-158.5" font-family="Helvetica,sans-Serif" font-size="10.00">helios::engine::mechanics</text>
<text text-anchor="start" x="180" y="-147.5" font-family="Helvetica,sans-Serif" font-size="10.00">::match::rules::guards</text>
<text text-anchor="start" x="180" y="-136.5" font-family="Helvetica,sans-Serif" font-size="10.00">::DefaultMatchStateTransitionGuards</text>
<text text-anchor="middle" x="270" y="-125.5" font-family="Helvetica,sans-Serif" font-size="10.00">::isPlayerInactive</text>
</a>
</g>
</g>
<!-- Node1&#45;&gt;Node4 -->
<g id="edge3_Node000001_Node000004" class="edge">
<title>Node1&#45;&gt;Node4</title>
<g id="a_edge3_Node000001_Node000004"><a xlink:title=" ">
<path fill="none" stroke="#63b8ff" d="M393.89,-144.5C385.51,-144.5 376.87,-144.5 368.24,-144.5"/>
<polygon fill="#63b8ff" stroke="#63b8ff" points="393.97,-148 403.97,-144.5 393.97,-141 393.97,-148"/>
</a>
</g>
</g>
<!-- Node5 -->
<g id="Node000005" class="node">
<title>Node5</title>
<g id="a_Node000005"><a xlink:href="classhelios_1_1engine_1_1runtime_1_1gameloop_1_1GameLoop.html#aa8aeafec5ba655ccacde623ad32f40ec" target="_top" xlink:title="Commits phase&#45;level events and flushes commands and managers.">
<polygon fill="white" stroke="#666666" points="338,-100 202,-100 202,-59 338,-59 338,-100"/>
<text text-anchor="start" x="210" y="-88" font-family="Helvetica,sans-Serif" font-size="10.00">helios::engine::runtime</text>
<text text-anchor="start" x="210" y="-77" font-family="Helvetica,sans-Serif" font-size="10.00">::gameloop::GameLoop::</text>
<text text-anchor="middle" x="270" y="-66" font-family="Helvetica,sans-Serif" font-size="10.00">phaseCommit</text>
</a>
</g>
</g>
<!-- Node1&#45;&gt;Node5 -->
<g id="edge4_Node000001_Node000005" class="edge">
<title>Node1&#45;&gt;Node5</title>
<g id="a_edge4_Node000001_Node000005"><a xlink:title=" ">
<path fill="none" stroke="#63b8ff" d="M400.77,-120.63C389.84,-116.84 378.62,-113.01 368,-109.5 358.38,-106.32 348.18,-103.06 338.16,-99.9"/>
<polygon fill="#63b8ff" stroke="#63b8ff" points="399.68,-123.96 410.28,-123.95 401.99,-117.35 399.68,-123.96"/>
</a>
</g>
</g>
<!-- Node7 -->
<g id="Node000007" class="node">
<title>Node7</title>
<g id="a_Node000007"><a xlink:href="structhelios_1_1engine_1_1runtime_1_1world_1_1UpdateContext.html#a6e4557410fac459623c7c44b49a0005a" target="_top" xlink:title="Constructs an UpdateContext with required dependencies.">
<polygon fill="white" stroke="#666666" points="334.5,-41 205.5,-41 205.5,0 334.5,0 334.5,-41"/>
<text text-anchor="start" x="213.5" y="-29" font-family="Helvetica,sans-Serif" font-size="10.00">helios::engine::runtime</text>
<text text-anchor="start" x="213.5" y="-18" font-family="Helvetica,sans-Serif" font-size="10.00">::world::UpdateContext</text>
<text text-anchor="middle" x="270" y="-7" font-family="Helvetica,sans-Serif" font-size="10.00">::UpdateContext</text>
</a>
</g>
</g>
<!-- Node1&#45;&gt;Node7 -->
<g id="edge6_Node000001_Node000007" class="edge">
<title>Node1&#45;&gt;Node7</title>
<g id="a_edge6_Node000001_Node000007"><a xlink:title=" ">
<path fill="none" stroke="#63b8ff" d="M443.86,-116.02C425.2,-95.2 397.48,-67.71 368,-50.5 357.72,-44.5 346.12,-39.58 334.61,-35.58"/>
<polygon fill="#63b8ff" stroke="#63b8ff" points="441.32,-118.44 450.55,-123.64 446.58,-113.81 441.32,-118.44"/>
</a>
</g>
</g>
<!-- Node6 -->
<g id="Node000006" class="node">
<title>Node6</title>
<g id="a_Node000006"><a xlink:href="classhelios_1_1engine_1_1runtime_1_1gameloop_1_1GameLoop.html#a8dbc5c72e9d25b13933ccda14b0975d7" target="_top" xlink:title="Executes one full frame update across all phases.">
<polygon fill="white" stroke="#666666" points="136,-100 0,-100 0,-59 136,-59 136,-100"/>
<text text-anchor="start" x="8" y="-88" font-family="Helvetica,sans-Serif" font-size="10.00">helios::engine::runtime</text>
<text text-anchor="start" x="8" y="-77" font-family="Helvetica,sans-Serif" font-size="10.00">::gameloop::GameLoop::</text>
<text text-anchor="middle" x="68" y="-66" font-family="Helvetica,sans-Serif" font-size="10.00">update</text>
</a>
</g>
</g>
<!-- Node5&#45;&gt;Node6 -->
<g id="edge5_Node000005_Node000006" class="edge">
<title>Node5&#45;&gt;Node6</title>
<g id="a_edge5_Node000005_Node000006"><a xlink:title=" ">
<path fill="none" stroke="#63b8ff" d="M191.81,-79.5C173.51,-79.5 154.14,-79.5 136.32,-79.5"/>
<polygon fill="#63b8ff" stroke="#63b8ff" points="191.85,-83 201.85,-79.5 191.85,-76 191.85,-83"/>
</a>
</g>
</g>
</g>
</svg>

<g id="navigator" transform="translate(0 0)" fill="#404254">
  <rect fill="#f2f5e9" fill-opacity="0.5" stroke="#606060" stroke-width=".5" x="0" y="0" width="60" height="60"/>
  <use id="zoomplus" xlink:href="#zoomPlus" x="17" y="9" onmousedown="handleZoom(evt,'in')"/>
  <use id="zoomminus" xlink:href="#zoomMin" x="42" y="9" onmousedown="handleZoom(evt,'out')"/>
  <use id="reset" xlink:href="#resetDef" x="30" y="36" onmousedown="handleReset()"/>
   <use id="arrowup" xlink:href="#arrowUp" x="0" y="0" onmousedown="handlePan(0,-1)"/>
  <use id="arrowright" xlink:href="#arrowRight" x="0" y="0" onmousedown="handlePan(1,0)"/>
  <use id="arrowdown" xlink:href="#arrowDown" x="0" y="0" onmousedown="handlePan(0,1)"/>
  <use id="arrowleft" xlink:href="#arrowLeft" x="0" y="0" onmousedown="handlePan(-1,0)"/>
</g>
<svg viewBox="0 0 15 15" width="100%" height="30px" preserveAspectRatio="xMaxYMin meet">
 <g id="arrow_out" transform="scale(0.3 0.3)">
  <a xlink:href="structhelios_1_1engine_1_1runtime_1_1world_1_1UpdateContext_a459e72fe47399985183cc6ca35531dfa_icgraph_org.svg" target="_base">
   <rect id="button" ry="5" rx="5" y="6" x="6" height="38" width="38"
        fill="#f2f5e9" fill-opacity="0.5" stroke="#606060" stroke-width="1.0"/>
   <path id="arrow"
     d="M 11.500037,31.436501 C 11.940474,20.09759 22.043105,11.32322 32.158766,21.979434 L 37.068811,17.246167 C 37.068811,17.246167 37.088388,32 37.088388,32 L 22.160133,31.978069 C 22.160133,31.978069 26.997745,27.140456 26.997745,27.140456 C 18.528582,18.264221 13.291696,25.230495 11.500037,31.436501 z"
     style="fill:#404040;"/>
  </a>
 </g>
</svg>

<style type='text/css'>
<![CDATA[
[data-mouse-over-selected='false'] { opacity: 0.7; }
[data-mouse-over-selected='true']  { opacity: 1.0; }
]]>
</style>
<script type="application/ecmascript"><![CDATA[
document.addEventListener('DOMContentLoaded', (event) => {
  highlightEdges();
  highlightAdjacentNodes();
});
]]></script>
</svg>
