<?xml version="1.0" encoding="UTF-8" standalone="no"?>
<!DOCTYPE svg PUBLIC "-//W3C//DTD SVG 1.1//EN"
 "http://www.w3.org/Graphics/SVG/1.1/DTD/svg11.dtd">
<!-- Generated by graphviz version 2.43.0 (0)
 -->
<!-- Title: helios::math::aabb::max Pages: 1 -->
<!--zoomable 345 -->

<svg id="main" version="1.1" xmlns="http://www.w3.org/2000/svg" xmlns:xlink="http://www.w3.org/1999/xlink" xml:space="preserve" onload="init(evt)">

<style type="text/css"><![CDATA[
.node, .edge {opacity: 0.7;}
.node.selected, .edge.selected {opacity: 1;}
.edge:hover path { stroke: red; }
.edge:hover polygon { stroke: red; fill: red; }
]]></style>

<defs>
  <circle id="rim" cx="0" cy="0" r="7"/>
  <circle id="rim2" cx="0" cy="0" r="3.5"/>
  <g id="zoomPlus">
    <use xlink:href="#rim" fill="#404040"><set attributeName="fill" to="#808080" begin="zoomplus.mouseover" end="zoomplus.mouseout"/></use>
    <path d="M-4,0h8M0,-4v8" fill="none" stroke="white" stroke-width="1.5" pointer-events="none"/>
  </g>
  <g id="zoomMin">
    <use xlink:href="#rim" fill="#404040"><set attributeName="fill" to="#808080" begin="zoomminus.mouseover" end="zoomminus.mouseout"/></use>
    <path d="M-4,0h8" fill="none" stroke="white" stroke-width="1.5" pointer-events="none"/>
  </g>
  <g id="arrowUp" transform="translate(30 24)">
    <use xlink:href="#rim"/>
    <path pointer-events="none" fill="none" stroke="white" stroke-width="1.5" d="M0,-3.0v7 M-2.5,-0.5L0,-3.0L2.5,-0.5"/>
  </g>
  <g id="arrowRight" transform="rotate(90) translate(36 -43)">
    <use xlink:href="#rim"/>
    <path pointer-events="none" fill="none" stroke="white" stroke-width="1.5" d="M0,-3.0v7 M-2.5,-0.5L0,-3.0L2.5,-0.5"/>
  </g>
  <g id="arrowDown" transform="rotate(180) translate(-30 -48)">
    <use xlink:href="#rim"/>
    <path pointer-events="none" fill="none" stroke="white" stroke-width="1.5" d="M0,-3.0v7 M-2.5,-0.5L0,-3.0L2.5,-0.5"/>
  </g>
  <g id="arrowLeft" transform="rotate(270) translate(-36 17)">
    <use xlink:href="#rim"/>
    <path pointer-events="none" fill="none" stroke="white" stroke-width="1.5" d="M0,-3.0v7 M-2.5,-0.5L0,-3.0L2.5,-0.5"/>
  </g>
  <g id="resetDef">
    <use xlink:href="#rim2" fill="#404040"><set attributeName="fill" to="#808080" begin="reset.mouseover" end="reset.mouseout"/></use>
  </g>
</defs>
<script type="application/ecmascript">
var viewWidth = 577;
var viewHeight = 345;
var sectionId = 'dynsection-3';
</script>
<script type="application/ecmascript" xlink:href="svg.min.js"/>
<svg id="graph" class="graph">
<g id="viewport">
<title>helios::math::aabb::max</title>
<!-- Node1 -->
<g id="Node000001" class="node">
<title>Node1</title>
<g id="a_Node000001"><a xlink:title="Returns the maximum corner point of the AABB.">
<polygon fill="#999999" stroke="#666666" points="569,-183.5 434,-183.5 434,-164.5 569,-164.5 569,-183.5"/>
<text text-anchor="middle" x="501.5" y="-171.5" font-family="Helvetica,sans-Serif" font-size="10.00">helios::math::aabb::max</text>
</a>
</g>
</g>
<!-- Node2 -->
<g id="Node000002" class="node">
<title>Node2</title>
<g id="a_Node000002"><a xlink:href="classhelios_1_1engine_1_1runtime_1_1spawn_1_1behavior_1_1placements_1_1AxisSpawnPlacer.html#a63526dfb3c2d53b1b44ed3fb60b308b8" target="_top" xlink:title="Calculates spawn position along the axis.">
<polygon fill="white" stroke="#666666" points="387,-336.5 220,-336.5 220,-295.5 387,-295.5 387,-336.5"/>
<text text-anchor="start" x="228" y="-324.5" font-family="Helvetica,sans-Serif" font-size="10.00">helios::engine::runtime</text>
<text text-anchor="start" x="228" y="-313.5" font-family="Helvetica,sans-Serif" font-size="10.00">::spawn::behavior::placements</text>
<text text-anchor="middle" x="303.5" y="-302.5" font-family="Helvetica,sans-Serif" font-size="10.00">::AxisSpawnPlacer::getPosition</text>
</a>
</g>
</g>
<!-- Node1&#45;&gt;Node2 -->
<g id="edge1_Node000001_Node000002" class="edge">
<title>Node1&#45;&gt;Node2</title>
<g id="a_edge1_Node000001_Node000002"><a xlink:title=" ">
<path fill="none" stroke="#63b8ff" d="M488.64,-192.3C471.53,-217.26 437.61,-261.75 398,-287 393.13,-290.11 387.9,-292.9 382.5,-295.41"/>
<polygon fill="#63b8ff" stroke="#63b8ff" points="491.69,-194.03 494.34,-183.77 485.87,-190.13 491.69,-194.03"/>
</a>
</g>
</g>
<!-- Node3 -->
<g id="Node000003" class="node">
<title>Node3</title>
<g id="a_Node000003"><a xlink:href="classhelios_1_1engine_1_1runtime_1_1spawn_1_1behavior_1_1placements_1_1ColumnSpawnPlacer.html#a34762adec8963ba02032845e2fc56462" target="_top" xlink:title="Calculates spawn position for a vertical column layout.">
<polygon fill="white" stroke="#666666" points="395,-277.5 212,-277.5 212,-236.5 395,-236.5 395,-277.5"/>
<text text-anchor="start" x="220" y="-265.5" font-family="Helvetica,sans-Serif" font-size="10.00">helios::engine::runtime</text>
<text text-anchor="start" x="220" y="-254.5" font-family="Helvetica,sans-Serif" font-size="10.00">::spawn::behavior::placements</text>
<text text-anchor="middle" x="303.5" y="-243.5" font-family="Helvetica,sans-Serif" font-size="10.00">::ColumnSpawnPlacer::getPosition</text>
</a>
</g>
</g>
<!-- Node1&#45;&gt;Node3 -->
<g id="edge2_Node000001_Node000003" class="edge">
<title>Node1&#45;&gt;Node3</title>
<g id="a_edge2_Node000001_Node000003"><a xlink:title=" ">
<path fill="none" stroke="#63b8ff" d="M475.69,-188.73C455.31,-200.42 425.43,-216.63 398,-228 390.86,-230.96 383.3,-233.78 375.7,-236.43"/>
<polygon fill="#63b8ff" stroke="#63b8ff" points="477.72,-191.6 484.61,-183.55 474.21,-185.54 477.72,-191.6"/>
</a>
</g>
</g>
<!-- Node4 -->
<g id="Node000004" class="node">
<title>Node4</title>
<g id="a_Node000004"><a xlink:href="classhelios_1_1engine_1_1runtime_1_1spawn_1_1behavior_1_1placements_1_1RandomSpawnPlacer.html#a882c8aab26fe2e890c53f38d0adf0b92" target="_top" xlink:title="Returns a random position within the level bounds.">
<polygon fill="white" stroke="#666666" points="396.5,-218.5 210.5,-218.5 210.5,-177.5 396.5,-177.5 396.5,-218.5"/>
<text text-anchor="start" x="218.5" y="-206.5" font-family="Helvetica,sans-Serif" font-size="10.00">helios::engine::runtime</text>
<text text-anchor="start" x="218.5" y="-195.5" font-family="Helvetica,sans-Serif" font-size="10.00">::spawn::behavior::placements</text>
<text text-anchor="middle" x="303.5" y="-184.5" font-family="Helvetica,sans-Serif" font-size="10.00">::RandomSpawnPlacer::getPosition</text>
</a>
</g>
</g>
<!-- Node1&#45;&gt;Node4 -->
<g id="edge3_Node000001_Node000004" class="edge">
<title>Node1&#45;&gt;Node4</title>
<g id="a_edge3_Node000001_Node000004"><a xlink:title=" ">
<path fill="none" stroke="#63b8ff" d="M423.9,-183.38C414.96,-184.47 405.77,-185.6 396.64,-186.72"/>
<polygon fill="#63b8ff" stroke="#63b8ff" points="424.37,-186.85 433.87,-182.16 423.52,-179.9 424.37,-186.85"/>
</a>
</g>
</g>
<!-- Node5 -->
<g id="Node000005" class="node">
<title>Node5</title>
<g id="a_Node000005"><a xlink:href="namespacehelios_1_1math.html#ac91a9a73632368c02a726bc3f070254d" target="_top" xlink:title="Scales an AABB by a given vector.">
<polygon fill="white" stroke="#666666" points="368.5,-159.5 238.5,-159.5 238.5,-140.5 368.5,-140.5 368.5,-159.5"/>
<text text-anchor="middle" x="303.5" y="-147.5" font-family="Helvetica,sans-Serif" font-size="10.00">helios::math::operator*</text>
</a>
</g>
</g>
<!-- Node1&#45;&gt;Node5 -->
<g id="edge4_Node000001_Node000005" class="edge">
<title>Node1&#45;&gt;Node5</title>
<g id="a_edge4_Node000001_Node000005"><a xlink:title=" ">
<path fill="none" stroke="#63b8ff" d="M423.84,-164.61C405.58,-162.38 386.27,-160.01 368.63,-157.85"/>
<polygon fill="#63b8ff" stroke="#63b8ff" points="423.52,-168.1 433.87,-165.84 424.37,-161.15 423.52,-168.1"/>
</a>
</g>
</g>
<!-- Node6 -->
<g id="Node000006" class="node">
<title>Node6</title>
<g id="a_Node000006"><a xlink:href="classhelios_1_1engine_1_1modules_1_1physics_1_1collision_1_1systems_1_1GridCollisionDetectionSystem.html#a607ead6b651ce013f48ad991eecf4cdf" target="_top" xlink:title="Inserts a collision candidate into all grid cells it overlaps.">
<polygon fill="white" stroke="#666666" points="396,-122 211,-122 211,-70 396,-70 396,-122"/>
<text text-anchor="start" x="219" y="-110" font-family="Helvetica,sans-Serif" font-size="10.00">helios::engine::modules</text>
<text text-anchor="start" x="219" y="-99" font-family="Helvetica,sans-Serif" font-size="10.00">::physics::collision::</text>
<text text-anchor="start" x="219" y="-88" font-family="Helvetica,sans-Serif" font-size="10.00">systems::GridCollisionDetection</text>
<text text-anchor="middle" x="303.5" y="-77" font-family="Helvetica,sans-Serif" font-size="10.00">System::updateCollisionCandidate</text>
</a>
</g>
</g>
<!-- Node1&#45;&gt;Node6 -->
<g id="edge5_Node000001_Node000006" class="edge">
<title>Node1&#45;&gt;Node6</title>
<g id="a_edge5_Node000001_Node000006"><a xlink:title=" ">
<path fill="none" stroke="#63b8ff" d="M468.02,-160.48C447.9,-152.16 421.5,-141.34 398,-132 389.84,-128.76 381.26,-125.39 372.74,-122.08"/>
<polygon fill="#63b8ff" stroke="#63b8ff" points="466.77,-163.76 477.35,-164.35 469.45,-157.29 466.77,-163.76"/>
</a>
</g>
</g>
<!-- Node8 -->
<g id="Node000008" class="node">
<title>Node8</title>
<g id="a_Node000008"><a xlink:href="classhelios_1_1engine_1_1modules_1_1physics_1_1collision_1_1systems_1_1GridCollisionDetectionSystem.html#ad1eb770b6a4aac11036603232ece927e" target="_top" xlink:title="Converts world&#45;space AABB bounds to grid cell indices.">
<polygon fill="white" stroke="#666666" points="398,-52 209,-52 209,0 398,0 398,-52"/>
<text text-anchor="start" x="217" y="-40" font-family="Helvetica,sans-Serif" font-size="10.00">helios::engine::modules</text>
<text text-anchor="start" x="217" y="-29" font-family="Helvetica,sans-Serif" font-size="10.00">::physics::collision::</text>
<text text-anchor="start" x="217" y="-18" font-family="Helvetica,sans-Serif" font-size="10.00">systems::GridCollisionDetection</text>
<text text-anchor="middle" x="303.5" y="-7" font-family="Helvetica,sans-Serif" font-size="10.00">System::worldBoundsToGridBounds</text>
</a>
</g>
</g>
<!-- Node1&#45;&gt;Node8 -->
<g id="edge7_Node000001_Node000008" class="edge">
<title>Node1&#45;&gt;Node8</title>
<g id="a_edge7_Node000001_Node000008"><a xlink:title=" ">
<path fill="none" stroke="#63b8ff" d="M488.43,-156.02C471.08,-131.43 436.87,-87.37 398,-61 393.27,-57.79 388.2,-54.82 382.96,-52.09"/>
<polygon fill="#63b8ff" stroke="#63b8ff" points="485.66,-158.18 494.22,-164.41 491.42,-154.2 485.66,-158.18"/>
</a>
</g>
</g>
<!-- Node7 -->
<g id="Node000007" class="node">
<title>Node7</title>
<g id="a_Node000007"><a xlink:href="classhelios_1_1engine_1_1modules_1_1physics_1_1collision_1_1systems_1_1GridCollisionDetectionSystem.html#a398512331f26b4a44dda02476249f610" target="_top" xlink:title="Performs collision detection for all active entities.">
<polygon fill="white" stroke="#666666" points="173,-87 0,-87 0,-35 173,-35 173,-87"/>
<text text-anchor="start" x="8" y="-75" font-family="Helvetica,sans-Serif" font-size="10.00">helios::engine::modules</text>
<text text-anchor="start" x="8" y="-64" font-family="Helvetica,sans-Serif" font-size="10.00">::physics::collision::</text>
<text text-anchor="start" x="8" y="-53" font-family="Helvetica,sans-Serif" font-size="10.00">systems::GridCollisionDetection</text>
<text text-anchor="middle" x="86.5" y="-42" font-family="Helvetica,sans-Serif" font-size="10.00">System::update</text>
</a>
</g>
</g>
<!-- Node6&#45;&gt;Node7 -->
<g id="edge6_Node000006_Node000007" class="edge">
<title>Node6&#45;&gt;Node7</title>
<g id="a_edge6_Node000006_Node000007"><a xlink:title=" ">
<path fill="none" stroke="#63b8ff" d="M200.74,-79.43C191.52,-77.93 182.25,-76.43 173.2,-74.95"/>
<polygon fill="#63b8ff" stroke="#63b8ff" points="200.26,-82.9 210.7,-81.06 201.39,-75.99 200.26,-82.9"/>
</a>
</g>
</g>
<!-- Node8&#45;&gt;Node7 -->
<g id="edge8_Node000008_Node000007" class="edge">
<title>Node8&#45;&gt;Node7</title>
<g id="a_edge8_Node000008_Node000007"><a xlink:title=" ">
<path fill="none" stroke="#63b8ff" d="M198.76,-42.89C190.16,-44.29 181.53,-45.69 173.08,-47.07"/>
<polygon fill="#63b8ff" stroke="#63b8ff" points="199.52,-46.31 208.82,-41.25 198.39,-39.4 199.52,-46.31"/>
</a>
</g>
</g>
</g>
</svg>

<g id="navigator" transform="translate(0 0)" fill="#404254">
  <rect fill="#f2f5e9" fill-opacity="0.5" stroke="#606060" stroke-width=".5" x="0" y="0" width="60" height="60"/>
  <use id="zoomplus" xlink:href="#zoomPlus" x="17" y="9" onmousedown="handleZoom(evt,'in')"/>
  <use id="zoomminus" xlink:href="#zoomMin" x="42" y="9" onmousedown="handleZoom(evt,'out')"/>
  <use id="reset" xlink:href="#resetDef" x="30" y="36" onmousedown="handleReset()"/>
   <use id="arrowup" xlink:href="#arrowUp" x="0" y="0" onmousedown="handlePan(0,-1)"/>
  <use id="arrowright" xlink:href="#arrowRight" x="0" y="0" onmousedown="handlePan(1,0)"/>
  <use id="arrowdown" xlink:href="#arrowDown" x="0" y="0" onmousedown="handlePan(0,1)"/>
  <use id="arrowleft" xlink:href="#arrowLeft" x="0" y="0" onmousedown="handlePan(-1,0)"/>
</g>
<svg viewBox="0 0 15 15" width="100%" height="30px" preserveAspectRatio="xMaxYMin meet">
 <g id="arrow_out" transform="scale(0.3 0.3)">
  <a xlink:href="structhelios_1_1math_1_1aabb_aa5836a6c13c4a5ddd421adb3a168970e_icgraph_org.svg" target="_base">
   <rect id="button" ry="5" rx="5" y="6" x="6" height="38" width="38"
        fill="#f2f5e9" fill-opacity="0.5" stroke="#606060" stroke-width="1.0"/>
   <path id="arrow"
     d="M 11.500037,31.436501 C 11.940474,20.09759 22.043105,11.32322 32.158766,21.979434 L 37.068811,17.246167 C 37.068811,17.246167 37.088388,32 37.088388,32 L 22.160133,31.978069 C 22.160133,31.978069 26.997745,27.140456 26.997745,27.140456 C 18.528582,18.264221 13.291696,25.230495 11.500037,31.436501 z"
     style="fill:#404040;"/>
  </a>
 </g>
</svg>

<style type='text/css'>
<![CDATA[
[data-mouse-over-selected='false'] { opacity: 0.7; }
[data-mouse-over-selected='true']  { opacity: 1.0; }
]]>
</style>
<script type="application/ecmascript"><![CDATA[
document.addEventListener('DOMContentLoaded', (event) => {
  highlightEdges();
  highlightAdjacentNodes();
});
]]></script>
</svg>
