<?xml version="1.0" encoding="UTF-8" standalone="no"?>
<!DOCTYPE svg PUBLIC "-//W3C//DTD SVG 1.1//EN"
 "http://www.w3.org/Graphics/SVG/1.1/DTD/svg11.dtd">
<!-- Generated by graphviz version 2.43.0 (0)
 -->
<!-- Title: helios::engine::runtime::world::UpdateContext::gameWorld Pages: 1 -->
<svg width="481pt" height="167pt"
 viewBox="0.00 0.00 481.00 167.00" xmlns="http://www.w3.org/2000/svg" xmlns:xlink="http://www.w3.org/1999/xlink">
<g id="graph0" class="graph" transform="scale(1 1) rotate(0) translate(4 163)">
<title>helios::engine::runtime::world::UpdateContext::gameWorld</title>
<!-- Node1 -->
<g id="Node000001" class="node">
<title>Node1</title>
<g id="a_Node000001"><a xlink:title="Returns the game world for entity lookups.">
<polygon fill="#999999" stroke="#666666" points="473,-129 344,-129 344,-88 473,-88 473,-129"/>
<text text-anchor="start" x="352" y="-117" font-family="Helvetica,sans-Serif" font-size="10.00">helios::engine::runtime</text>
<text text-anchor="start" x="352" y="-106" font-family="Helvetica,sans-Serif" font-size="10.00">::world::UpdateContext</text>
<text text-anchor="middle" x="408.5" y="-95" font-family="Helvetica,sans-Serif" font-size="10.00">::gameWorld</text>
</a>
</g>
</g>
<!-- Node2 -->
<g id="Node000002" class="node">
<title>Node2</title>
<g id="a_Node000002"><a xlink:href="classhelios_1_1engine_1_1runtime_1_1gameloop_1_1GameLoop.html#aa8aeafec5ba655ccacde623ad32f40ec" target="_top" xlink:title="Commits phase&#45;level events and flushes commands and managers.">
<polygon fill="white" stroke="#666666" points="308,-159 172,-159 172,-118 308,-118 308,-159"/>
<text text-anchor="start" x="180" y="-147" font-family="Helvetica,sans-Serif" font-size="10.00">helios::engine::runtime</text>
<text text-anchor="start" x="180" y="-136" font-family="Helvetica,sans-Serif" font-size="10.00">::gameloop::GameLoop::</text>
<text text-anchor="middle" x="240" y="-125" font-family="Helvetica,sans-Serif" font-size="10.00">phaseCommit</text>
</a>
</g>
</g>
<!-- Node1&#45;&gt;Node2 -->
<g id="edge1_Node000001_Node000002" class="edge">
<title>Node1&#45;&gt;Node2</title>
<g id="a_edge1_Node000001_Node000002"><a xlink:title=" ">
<path fill="none" stroke="#63b8ff" d="M333.67,-121.8C325.14,-123.34 316.47,-124.9 308.04,-126.42"/>
<polygon fill="#63b8ff" stroke="#63b8ff" points="334.38,-125.23 343.6,-120.01 333.14,-118.34 334.38,-125.23"/>
</a>
</g>
</g>
<!-- Node4 -->
<g id="Node000004" class="node">
<title>Node4</title>
<g id="a_Node000004"><a xlink:href="structhelios_1_1engine_1_1runtime_1_1world_1_1UpdateContext.html#ad1a61e5a867a43ccec01c70616ae6fff" target="_top" xlink:title="Constructs an UpdateContext with required dependencies.">
<polygon fill="white" stroke="#666666" points="304.5,-100 175.5,-100 175.5,-59 304.5,-59 304.5,-100"/>
<text text-anchor="start" x="183.5" y="-88" font-family="Helvetica,sans-Serif" font-size="10.00">helios::engine::runtime</text>
<text text-anchor="start" x="183.5" y="-77" font-family="Helvetica,sans-Serif" font-size="10.00">::world::UpdateContext</text>
<text text-anchor="middle" x="240" y="-66" font-family="Helvetica,sans-Serif" font-size="10.00">::UpdateContext</text>
</a>
</g>
</g>
<!-- Node1&#45;&gt;Node4 -->
<g id="edge3_Node000001_Node000004" class="edge">
<title>Node1&#45;&gt;Node4</title>
<g id="a_edge3_Node000001_Node000004"><a xlink:title=" ">
<path fill="none" stroke="#63b8ff" d="M333.64,-95.64C324,-93.96 314.18,-92.25 304.73,-90.6"/>
<polygon fill="#63b8ff" stroke="#63b8ff" points="333.15,-99.1 343.6,-97.37 334.35,-92.21 333.15,-99.1"/>
</a>
</g>
</g>
<!-- Node3 -->
<g id="Node000003" class="node">
<title>Node3</title>
<g id="a_Node000003"><a xlink:href="classhelios_1_1engine_1_1runtime_1_1gameloop_1_1GameLoop.html#aff5330464fa41a1d7a8ebcc41b75b571" target="_top" xlink:title="Executes one full frame update across all phases.">
<polygon fill="white" stroke="#666666" points="136,-159 0,-159 0,-118 136,-118 136,-159"/>
<text text-anchor="start" x="8" y="-147" font-family="Helvetica,sans-Serif" font-size="10.00">helios::engine::runtime</text>
<text text-anchor="start" x="8" y="-136" font-family="Helvetica,sans-Serif" font-size="10.00">::gameloop::GameLoop::</text>
<text text-anchor="middle" x="68" y="-125" font-family="Helvetica,sans-Serif" font-size="10.00">update</text>
</a>
</g>
</g>
<!-- Node2&#45;&gt;Node3 -->
<g id="edge2_Node000002_Node000003" class="edge">
<title>Node2&#45;&gt;Node3</title>
<g id="a_edge2_Node000002_Node000003"><a xlink:title=" ">
<path fill="none" stroke="#63b8ff" d="M161.58,-138.5C153.12,-138.5 144.57,-138.5 136.26,-138.5"/>
<polygon fill="#63b8ff" stroke="#63b8ff" points="161.81,-142 171.81,-138.5 161.81,-135 161.81,-142"/>
</a>
</g>
</g>
<!-- Node5 -->
<g id="Node000005" class="node">
<title>Node5</title>
<g id="a_Node000005"><a xlink:href="structhelios_1_1engine_1_1runtime_1_1world_1_1UpdateContext.html#a9eee7160c5cd4037b6d14e3ad1a19dbd" target="_top" xlink:title="Sets the time elapsed since the last frame.">
<polygon fill="white" stroke="#666666" points="132.5,-100 3.5,-100 3.5,-59 132.5,-59 132.5,-100"/>
<text text-anchor="start" x="11.5" y="-88" font-family="Helvetica,sans-Serif" font-size="10.00">helios::engine::runtime</text>
<text text-anchor="start" x="11.5" y="-77" font-family="Helvetica,sans-Serif" font-size="10.00">::world::UpdateContext</text>
<text text-anchor="middle" x="68" y="-66" font-family="Helvetica,sans-Serif" font-size="10.00">::setDeltaTime</text>
</a>
</g>
</g>
<!-- Node4&#45;&gt;Node5 -->
<g id="edge4_Node000004_Node000005" class="edge">
<title>Node4&#45;&gt;Node5</title>
<g id="a_edge4_Node000004_Node000005"><a xlink:title=" ">
<path fill="none" stroke="#63b8ff" d="M164.96,-79.5C154.17,-79.5 143.14,-79.5 132.58,-79.5"/>
<polygon fill="#63b8ff" stroke="#63b8ff" points="165.21,-83 175.21,-79.5 165.21,-76 165.21,-83"/>
</a>
</g>
</g>
<!-- Node6 -->
<g id="Node000006" class="node">
<title>Node6</title>
<g id="a_Node000006"><a xlink:href="structhelios_1_1engine_1_1runtime_1_1world_1_1UpdateContext.html#ac4ef81cf941389d0902a775bb716d8eb" target="_top" xlink:title="Sets the input snapshot for this frame.">
<polygon fill="white" stroke="#666666" points="132.5,-41 3.5,-41 3.5,0 132.5,0 132.5,-41"/>
<text text-anchor="start" x="11.5" y="-29" font-family="Helvetica,sans-Serif" font-size="10.00">helios::engine::runtime</text>
<text text-anchor="start" x="11.5" y="-18" font-family="Helvetica,sans-Serif" font-size="10.00">::world::UpdateContext</text>
<text text-anchor="middle" x="68" y="-7" font-family="Helvetica,sans-Serif" font-size="10.00">::setInputSnapshot</text>
</a>
</g>
</g>
<!-- Node4&#45;&gt;Node6 -->
<g id="edge5_Node000004_Node000006" class="edge">
<title>Node4&#45;&gt;Node6</title>
<g id="a_edge5_Node000004_Node000006"><a xlink:title=" ">
<path fill="none" stroke="#63b8ff" d="M170.04,-55.57C156.14,-50.74 141.66,-45.72 128.14,-41.02"/>
<polygon fill="#63b8ff" stroke="#63b8ff" points="168.95,-58.89 179.54,-58.86 171.24,-52.28 168.95,-58.89"/>
</a>
</g>
</g>
</g>
</svg>
