<?xml version="1.0" encoding="UTF-8" standalone="no"?>
<!DOCTYPE svg PUBLIC "-//W3C//DTD SVG 1.1//EN"
 "http://www.w3.org/Graphics/SVG/1.1/DTD/svg11.dtd">
<!-- Generated by graphviz version 2.43.0 (0)
 -->
<!-- Title: helios::ecs::SparseSet::ConstIterator::ConstIterator Pages: 1 -->
<svg width="350pt" height="182pt"
 viewBox="0.00 0.00 350.00 182.00" xmlns="http://www.w3.org/2000/svg" xmlns:xlink="http://www.w3.org/1999/xlink">
<g id="graph0" class="graph" transform="scale(1 1) rotate(0) translate(4 178)">
<title>helios::ecs::SparseSet::ConstIterator::ConstIterator</title>
<!-- Node1 -->
<g id="Node000001" class="node">
<title>Node1</title>
<g id="a_Node000001"><a xlink:title=" ">
<polygon fill="#999999" stroke="#666666" points="342,-102 186,-102 186,-72 342,-72 342,-102"/>
<text text-anchor="start" x="194" y="-90" font-family="Helvetica,sans-Serif" font-size="10.00">helios::ecs::SparseSet</text>
<text text-anchor="middle" x="264" y="-79" font-family="Helvetica,sans-Serif" font-size="10.00">::ConstIterator::ConstIterator</text>
</a>
</g>
</g>
<!-- Node2 -->
<g id="Node000002" class="node">
<title>Node2</title>
<g id="a_Node000002"><a xlink:href="structhelios_1_1ecs_1_1SparseSet_1_1ConstIterator.html#aee60bc6ab1e57c70059d429e31ba45ed" target="_top" xlink:title=" ">
<polygon fill="white" stroke="#666666" points="148,-174 2,-174 2,-144 148,-144 148,-174"/>
<text text-anchor="start" x="10" y="-162" font-family="Helvetica,sans-Serif" font-size="10.00">helios::ecs::SparseSet</text>
<text text-anchor="middle" x="75" y="-151" font-family="Helvetica,sans-Serif" font-size="10.00">::ConstIterator::operator!=</text>
</a>
</g>
</g>
<!-- Node1&#45;&gt;Node2 -->
<g id="edge1_Node000001_Node000002" class="edge">
<title>Node1&#45;&gt;Node2</title>
<g id="a_edge1_Node000001_Node000002"><a xlink:title=" ">
<path fill="none" stroke="#63b8ff" d="M220.4,-106.15C199.38,-115.32 173.55,-126.2 150,-135 141.78,-138.07 132.96,-141.13 124.38,-143.99"/>
<polygon fill="#63b8ff" stroke="#63b8ff" points="221.94,-109.29 229.69,-102.06 219.13,-102.88 221.94,-109.29"/>
</a>
</g>
</g>
<!-- Node3 -->
<g id="Node000003" class="node">
<title>Node3</title>
<g id="a_Node000003"><a xlink:href="structhelios_1_1ecs_1_1SparseSet_1_1ConstIterator.html#a3238a49cb1ed73388cbde03032815874" target="_top" xlink:title=" ">
<polygon fill="white" stroke="#666666" points="150,-126 0,-126 0,-96 150,-96 150,-126"/>
<text text-anchor="start" x="8" y="-114" font-family="Helvetica,sans-Serif" font-size="10.00">helios::ecs::SparseSet</text>
<text text-anchor="middle" x="75" y="-103" font-family="Helvetica,sans-Serif" font-size="10.00">::ConstIterator::operator++</text>
</a>
</g>
</g>
<!-- Node1&#45;&gt;Node3 -->
<g id="edge2_Node000001_Node000003" class="edge">
<title>Node1&#45;&gt;Node3</title>
<g id="a_edge2_Node000001_Node000003"><a xlink:title=" ">
<path fill="none" stroke="#63b8ff" d="M175.86,-98.18C167.3,-99.28 158.67,-100.39 150.25,-101.47"/>
<polygon fill="#63b8ff" stroke="#63b8ff" points="176.39,-101.64 185.86,-96.9 175.5,-94.7 176.39,-101.64"/>
</a>
</g>
</g>
<!-- Node4 -->
<g id="Node000004" class="node">
<title>Node4</title>
<g id="a_Node000004"><a xlink:href="structhelios_1_1ecs_1_1SparseSet_1_1ConstIterator.html#aa68fa854d916d8cb196e3713937ad930" target="_top" xlink:title=" ">
<polygon fill="white" stroke="#666666" points="150,-78 0,-78 0,-48 150,-48 150,-78"/>
<text text-anchor="start" x="8" y="-66" font-family="Helvetica,sans-Serif" font-size="10.00">helios::ecs::SparseSet</text>
<text text-anchor="middle" x="75" y="-55" font-family="Helvetica,sans-Serif" font-size="10.00">::ConstIterator::operator++</text>
</a>
</g>
</g>
<!-- Node1&#45;&gt;Node4 -->
<g id="edge3_Node000001_Node000004" class="edge">
<title>Node1&#45;&gt;Node4</title>
<g id="a_edge3_Node000001_Node000004"><a xlink:title=" ">
<path fill="none" stroke="#63b8ff" d="M175.86,-75.82C167.3,-74.72 158.67,-73.61 150.25,-72.53"/>
<polygon fill="#63b8ff" stroke="#63b8ff" points="175.5,-79.3 185.86,-77.1 176.39,-72.36 175.5,-79.3"/>
</a>
</g>
</g>
<!-- Node5 -->
<g id="Node000005" class="node">
<title>Node5</title>
<g id="a_Node000005"><a xlink:href="structhelios_1_1ecs_1_1SparseSet_1_1ConstIterator.html#af2f4be917f2f92c0d4ccfbf32d59bc79" target="_top" xlink:title=" ">
<polygon fill="white" stroke="#666666" points="150,-30 0,-30 0,0 150,0 150,-30"/>
<text text-anchor="start" x="8" y="-18" font-family="Helvetica,sans-Serif" font-size="10.00">helios::ecs::SparseSet</text>
<text text-anchor="middle" x="75" y="-7" font-family="Helvetica,sans-Serif" font-size="10.00">::ConstIterator::operator==</text>
</a>
</g>
</g>
<!-- Node1&#45;&gt;Node5 -->
<g id="edge4_Node000001_Node000005" class="edge">
<title>Node1&#45;&gt;Node5</title>
<g id="a_edge4_Node000001_Node000005"><a xlink:title=" ">
<path fill="none" stroke="#63b8ff" d="M220.4,-67.85C199.38,-58.68 173.55,-47.8 150,-39 141.78,-35.93 132.96,-32.87 124.38,-30.01"/>
<polygon fill="#63b8ff" stroke="#63b8ff" points="219.13,-71.12 229.69,-71.94 221.94,-64.71 219.13,-71.12"/>
</a>
</g>
</g>
</g>
</svg>
