<?xml version="1.0" encoding="UTF-8" standalone="no"?>
<!DOCTYPE svg PUBLIC "-//W3C//DTD SVG 1.1//EN"
 "http://www.w3.org/Graphics/SVG/1.1/DTD/svg11.dtd">
<!-- Generated by graphviz version 2.43.0 (0)
 -->
<!-- Title: helios::engine::runtime::spawn::scheduling::ScheduledSpawnPlan Pages: 1 -->
<svg width="725pt" height="146pt"
 viewBox="0.00 0.00 725.00 145.50" xmlns="http://www.w3.org/2000/svg" xmlns:xlink="http://www.w3.org/1999/xlink">
<g id="graph0" class="graph" transform="scale(1 1) rotate(0) translate(4 141.5)">
<title>helios::engine::runtime::spawn::scheduling::ScheduledSpawnPlan</title>
<!-- Node1 -->
<g id="Node000001" class="node">
<title>Node1</title>
<g id="a_Node000001"><a xlink:title="A spawn plan that has been scheduled for execution.">
<polygon fill="#999999" stroke="#666666" points="717,-83.5 548,-83.5 548,-42.5 717,-42.5 717,-83.5"/>
<text text-anchor="start" x="556" y="-71.5" font-family="Helvetica,sans-Serif" font-size="10.00">helios::engine::runtime</text>
<text text-anchor="start" x="556" y="-60.5" font-family="Helvetica,sans-Serif" font-size="10.00">::spawn::scheduling::Scheduled</text>
<text text-anchor="middle" x="632.5" y="-49.5" font-family="Helvetica,sans-Serif" font-size="10.00">SpawnPlan</text>
</a>
</g>
</g>
<!-- Node2 -->
<g id="Node000002" class="node">
<title>Node2</title>
<g id="a_Node000002"><a xlink:href="structhelios_1_1core_1_1data_1_1StrongId.html" target="_top" xlink:title=" ">
<polygon fill="white" stroke="#666666" points="421,-137.5 275,-137.5 275,-96.5 421,-96.5 421,-137.5"/>
<text text-anchor="start" x="283" y="-125.5" font-family="Helvetica,sans-Serif" font-size="10.00">helios::core::data</text>
<text text-anchor="start" x="283" y="-114.5" font-family="Helvetica,sans-Serif" font-size="10.00">::StrongId&lt; SpawnProfileId</text>
<text text-anchor="middle" x="348" y="-103.5" font-family="Helvetica,sans-Serif" font-size="10.00">Tag, uint32_t &gt;</text>
</a>
</g>
</g>
<!-- Node2&#45;&gt;Node1 -->
<g id="edge1_Node000001_Node000002" class="edge">
<title>Node2&#45;&gt;Node1</title>
<g id="a_edge1_Node000001_Node000002"><a xlink:title=" ">
<path fill="none" stroke="#9a32cd" stroke-dasharray="5,2" d="M431.19,-102.44C462.19,-96.84 497.75,-90.28 530,-84 535.83,-82.87 541.84,-81.68 547.89,-80.46"/>
<polygon fill="#9a32cd" stroke="#9a32cd" points="430.52,-99 421.3,-104.22 431.76,-105.89 430.52,-99"/>
</a>
</g>
<text text-anchor="start" x="455" y="-103.5" font-family="Helvetica,sans-Serif" font-size="10.00" fill="grey">spawnProfileId</text>
</g>
<!-- Node3 -->
<g id="Node000003" class="node">
<title>Node3</title>
<g id="a_Node000003"><a xlink:href="structhelios_1_1engine_1_1runtime_1_1spawn_1_1scheduling_1_1SpawnPlan.html" target="_top" xlink:title="Data structure describing a planned spawn operation.">
<polygon fill="white" stroke="#666666" points="434,-78 262,-78 262,-48 434,-48 434,-78"/>
<text text-anchor="start" x="270" y="-66" font-family="Helvetica,sans-Serif" font-size="10.00">helios::engine::runtime</text>
<text text-anchor="middle" x="348" y="-55" font-family="Helvetica,sans-Serif" font-size="10.00">::spawn::scheduling::SpawnPlan</text>
</a>
</g>
</g>
<!-- Node3&#45;&gt;Node1 -->
<g id="edge2_Node000001_Node000003" class="edge">
<title>Node3&#45;&gt;Node1</title>
<g id="a_edge2_Node000001_Node000003"><a xlink:title=" ">
<path fill="none" stroke="#9a32cd" stroke-dasharray="5,2" d="M444.43,-63C478.01,-63 515.47,-63 547.99,-63"/>
<polygon fill="#9a32cd" stroke="#9a32cd" points="444.14,-59.5 434.14,-63 444.14,-66.5 444.14,-59.5"/>
</a>
</g>
<text text-anchor="start" x="465" y="-68.5" font-family="Helvetica,sans-Serif" font-size="10.00" fill="grey">spawnPlan</text>
</g>
<!-- Node4 -->
<g id="Node000004" class="node">
<title>Node4</title>
<g id="a_Node000004"><a xlink:href="structhelios_1_1core_1_1data_1_1StrongId.html" target="_top" xlink:title=" ">
<polygon fill="white" stroke="#666666" points="157,-83.5 0,-83.5 0,-42.5 157,-42.5 157,-83.5"/>
<text text-anchor="start" x="8" y="-71.5" font-family="Helvetica,sans-Serif" font-size="10.00">helios::core::data</text>
<text text-anchor="start" x="8" y="-60.5" font-family="Helvetica,sans-Serif" font-size="10.00">::StrongId&lt; SpawnRuleIdTag,</text>
<text text-anchor="middle" x="78.5" y="-49.5" font-family="Helvetica,sans-Serif" font-size="10.00"> uint32_t &gt;</text>
</a>
</g>
</g>
<!-- Node4&#45;&gt;Node3 -->
<g id="edge3_Node000003_Node000004" class="edge">
<title>Node4&#45;&gt;Node3</title>
<g id="a_edge3_Node000003_Node000004"><a xlink:title=" ">
<path fill="none" stroke="#9a32cd" stroke-dasharray="5,2" d="M167.35,-63C197.64,-63 231.49,-63 261.58,-63"/>
<polygon fill="#9a32cd" stroke="#9a32cd" points="167.23,-59.5 157.23,-63 167.23,-66.5 167.23,-59.5"/>
</a>
</g>
<text text-anchor="start" x="178.5" y="-68.5" font-family="Helvetica,sans-Serif" font-size="10.00" fill="grey">spawnRuleId</text>
</g>
<!-- Node5 -->
<g id="Node000005" class="node">
<title>Node5</title>
<g id="a_Node000005"><a xlink:href="structhelios_1_1engine_1_1runtime_1_1spawn_1_1SpawnContext.html" target="_top" xlink:title="Context data passed to spawn behaviors during entity initialization.">
<polygon fill="white" stroke="#666666" points="413.5,-30 282.5,-30 282.5,0 413.5,0 413.5,-30"/>
<text text-anchor="start" x="290.5" y="-18" font-family="Helvetica,sans-Serif" font-size="10.00">helios::engine::runtime</text>
<text text-anchor="middle" x="348" y="-7" font-family="Helvetica,sans-Serif" font-size="10.00">::spawn::SpawnContext</text>
</a>
</g>
</g>
<!-- Node5&#45;&gt;Node1 -->
<g id="edge4_Node000001_Node000005" class="edge">
<title>Node5&#45;&gt;Node1</title>
<g id="a_edge4_Node000001_Node000005"><a xlink:title=" ">
<path fill="none" stroke="#9a32cd" stroke-dasharray="5,2" d="M423.59,-25.17C456.31,-29.88 495.13,-35.8 530,-42 535.85,-43.04 541.87,-44.16 547.93,-45.32"/>
<polygon fill="#9a32cd" stroke="#9a32cd" points="424.04,-21.7 413.65,-23.75 423.05,-28.63 424.04,-21.7"/>
</a>
</g>
<text text-anchor="start" x="456" y="-47.5" font-family="Helvetica,sans-Serif" font-size="10.00" fill="grey">spawnContext</text>
</g>
</g>
</svg>
