<?xml version="1.0" encoding="UTF-8" standalone="no"?>
<!DOCTYPE svg PUBLIC "-//W3C//DTD SVG 1.1//EN"
 "http://www.w3.org/Graphics/SVG/1.1/DTD/svg11.dtd">
<!-- Generated by graphviz version 2.43.0 (0)
 -->
<!-- Title: include/helios/engine/ecs/System.ixx Pages: 1 -->
<svg width="1424pt" height="533pt"
 viewBox="0.00 0.00 1423.50 533.00" xmlns="http://www.w3.org/2000/svg" xmlns:xlink="http://www.w3.org/1999/xlink">
<g id="graph0" class="graph" transform="scale(1 1) rotate(0) translate(4 529)">
<title>include/helios/engine/ecs/System.ixx</title>
<!-- Node1 -->
<g id="Node000001" class="node">
<title>Node1</title>
<g id="a_Node000001"><a xlink:title="Base class for game systems that operate on the GameWorld.">
<polygon fill="#999999" stroke="#666666" points="275,-525 155,-525 155,-495 275,-495 275,-525"/>
<text text-anchor="start" x="163" y="-513" font-family="Helvetica,sans-Serif" font-size="10.00">include/helios/engine</text>
<text text-anchor="middle" x="215" y="-502" font-family="Helvetica,sans-Serif" font-size="10.00">/ecs/System.ixx</text>
</a>
</g>
</g>
<!-- Node2 -->
<g id="Node000002" class="node">
<title>Node2</title>
<g id="a_Node000002"><a xlink:href="Updatable_8ixx.html" target="_top" xlink:title="Interface for components that require per&#45;frame updates.">
<polygon fill="white" stroke="#666666" points="292.5,-459 137.5,-459 137.5,-440 292.5,-440 292.5,-459"/>
<text text-anchor="middle" x="215" y="-447" font-family="Helvetica,sans-Serif" font-size="10.00">helios.engine.ecs.Updatable</text>
</a>
</g>
</g>
<!-- Node1&#45;&gt;Node2 -->
<g id="edge1_Node000001_Node000002" class="edge">
<title>Node1&#45;&gt;Node2</title>
<g id="a_edge1_Node000001_Node000002"><a xlink:title=" ">
<path fill="none" stroke="#63b8ff" d="M215,-494.84C215,-487.21 215,-477.7 215,-469.45"/>
<polygon fill="#63b8ff" stroke="#63b8ff" points="218.5,-469.27 215,-459.27 211.5,-469.27 218.5,-469.27"/>
</a>
</g>
</g>
<!-- Node3 -->
<g id="Node000003" class="node">
<title>Node3</title>
<g id="a_Node000003"><a xlink:href="UpdateContext_8ixx.html" target="_top" xlink:title="Context struct passed to components during per&#45;frame updates.">
<polygon fill="white" stroke="#666666" points="293,-404 137,-404 137,-374 293,-374 293,-404"/>
<text text-anchor="start" x="145" y="-392" font-family="Helvetica,sans-Serif" font-size="10.00">helios.engine.runtime.world.</text>
<text text-anchor="middle" x="215" y="-381" font-family="Helvetica,sans-Serif" font-size="10.00">UpdateContext</text>
</a>
</g>
</g>
<!-- Node2&#45;&gt;Node3 -->
<g id="edge2_Node000002_Node000003" class="edge">
<title>Node2&#45;&gt;Node3</title>
<g id="a_edge2_Node000002_Node000003"><a xlink:title=" ">
<path fill="none" stroke="#63b8ff" d="M215,-439.87C215,-433.11 215,-423.35 215,-414.26"/>
<polygon fill="#63b8ff" stroke="#63b8ff" points="218.5,-414.11 215,-404.11 211.5,-414.11 218.5,-414.11"/>
</a>
</g>
</g>
<!-- Node4 -->
<g id="Node000004" class="node">
<title>Node4</title>
<g id="a_Node000004"><a xlink:title=" ">
<polygon fill="#e0e0e0" stroke="#999999" points="52,-332.5 0,-332.5 0,-313.5 52,-313.5 52,-332.5"/>
<text text-anchor="middle" x="26" y="-320.5" font-family="Helvetica,sans-Serif" font-size="10.00">cassert</text>
</a>
</g>
</g>
<!-- Node3&#45;&gt;Node4 -->
<g id="edge3_Node000003_Node000004" class="edge">
<title>Node3&#45;&gt;Node4</title>
<g id="a_edge3_Node000003_Node000004"><a xlink:title=" ">
<path fill="none" stroke="#63b8ff" d="M172.56,-373.92C142.72,-363.98 101.88,-350.3 66,-338 64.12,-337.36 62.19,-336.69 60.25,-336.02"/>
<polygon fill="#63b8ff" stroke="#63b8ff" points="61.12,-332.62 50.52,-332.64 58.82,-339.23 61.12,-332.62"/>
</a>
</g>
</g>
<!-- Node5 -->
<g id="Node000005" class="node">
<title>Node5</title>
<g id="a_Node000005"><a xlink:title=" ">
<polygon fill="#e0e0e0" stroke="#999999" points="467,-19 427,-19 427,0 467,0 467,-19"/>
<text text-anchor="middle" x="447" y="-7" font-family="Helvetica,sans-Serif" font-size="10.00">span</text>
</a>
</g>
</g>
<!-- Node3&#45;&gt;Node5 -->
<g id="edge4_Node000003_Node000005" class="edge">
<title>Node3&#45;&gt;Node5</title>
<g id="a_edge4_Node000003_Node000005"><a xlink:title=" ">
<path fill="none" stroke="#63b8ff" d="M154.89,-373.97C134.51,-366.44 113.31,-355.05 99,-338 75.5,-310.01 80,-294.54 80,-258 80,-258 80,-258 80,-124 80,-53.74 328.64,-22.25 416.61,-13.3"/>
<polygon fill="#63b8ff" stroke="#63b8ff" points="417.14,-16.77 426.75,-12.3 416.45,-9.8 417.14,-16.77"/>
</a>
</g>
</g>
<!-- Node6 -->
<g id="Node000006" class="node">
<title>Node6</title>
<g id="a_Node000006"><a xlink:title=" ">
<polygon fill="#e0e0e0" stroke="#999999" points="569.5,-332.5 504.5,-332.5 504.5,-313.5 569.5,-313.5 569.5,-332.5"/>
<text text-anchor="middle" x="537" y="-320.5" font-family="Helvetica,sans-Serif" font-size="10.00">stdexcept</text>
</a>
</g>
</g>
<!-- Node3&#45;&gt;Node6 -->
<g id="edge5_Node000003_Node000006" class="edge">
<title>Node3&#45;&gt;Node6</title>
<g id="a_edge5_Node000003_Node000006"><a xlink:title=" ">
<path fill="none" stroke="#63b8ff" d="M293.2,-377.15C349.71,-368.55 427.64,-355.14 495,-338 497.79,-337.29 500.67,-336.49 503.54,-335.63"/>
<polygon fill="#63b8ff" stroke="#63b8ff" points="504.7,-338.94 513.19,-332.6 502.6,-332.26 504.7,-338.94"/>
</a>
</g>
</g>
<!-- Node7 -->
<g id="Node000007" class="node">
<title>Node7</title>
<g id="a_Node000007"><a xlink:href="GameLoopEventBus_8ixx.html" target="_top" xlink:title="Type&#45;safe event bus for inter&#45;system communication within the game loop.">
<polygon fill="white" stroke="#666666" points="321.5,-338 108.5,-338 108.5,-308 321.5,-308 321.5,-338"/>
<text text-anchor="start" x="116.5" y="-326" font-family="Helvetica,sans-Serif" font-size="10.00">helios.engine.runtime.messaging.event.</text>
<text text-anchor="middle" x="215" y="-315" font-family="Helvetica,sans-Serif" font-size="10.00">GameLoopEventBus</text>
</a>
</g>
</g>
<!-- Node3&#45;&gt;Node7 -->
<g id="edge6_Node000003_Node000007" class="edge">
<title>Node3&#45;&gt;Node7</title>
<g id="a_edge6_Node000003_Node000007"><a xlink:title=" ">
<path fill="none" stroke="#63b8ff" d="M215,-373.8C215,-366.34 215,-356.99 215,-348.41"/>
<polygon fill="#63b8ff" stroke="#63b8ff" points="218.5,-348.16 215,-338.16 211.5,-348.16 218.5,-348.16"/>
</a>
</g>
</g>
<!-- Node17 -->
<g id="Node000017" class="node">
<title>Node17</title>
<g id="a_Node000017"><a xlink:href="InputSnapshot_8ixx.html" target="_top" xlink:title="Immutable snapshot of input state at a specific point in time.">
<polygon fill="white" stroke="#666666" points="486,-332.5 340,-332.5 340,-313.5 486,-313.5 486,-332.5"/>
<text text-anchor="middle" x="413" y="-320.5" font-family="Helvetica,sans-Serif" font-size="10.00">helios.input.InputSnapshot</text>
</a>
</g>
</g>
<!-- Node3&#45;&gt;Node17 -->
<g id="edge31_Node000003_Node000017" class="edge">
<title>Node3&#45;&gt;Node17</title>
<g id="a_edge31_Node000003_Node000017"><a xlink:title=" ">
<path fill="none" stroke="#63b8ff" d="M258.45,-373.95C293.94,-362.48 343.51,-346.46 376.86,-335.68"/>
<polygon fill="#63b8ff" stroke="#63b8ff" points="378.21,-338.92 386.65,-332.52 376.06,-332.26 378.21,-338.92"/>
</a>
</g>
</g>
<!-- Node8 -->
<g id="Node000008" class="node">
<title>Node8</title>
<g id="a_Node000008"><a xlink:href="TypeIndexedDoubleBuffer_8ixx.html" target="_top" xlink:title="Double&#45;buffered, type&#45;indexed message system for decoupled inter&#45;system communication.">
<polygon fill="white" stroke="#666666" points="450,-272 286,-272 286,-242 450,-242 450,-272"/>
<text text-anchor="start" x="294" y="-260" font-family="Helvetica,sans-Serif" font-size="10.00">helios.core.buffer.TypeIndexed</text>
<text text-anchor="middle" x="368" y="-249" font-family="Helvetica,sans-Serif" font-size="10.00">DoubleBuffer</text>
</a>
</g>
</g>
<!-- Node7&#45;&gt;Node8 -->
<g id="edge7_Node000007_Node000008" class="edge">
<title>Node7&#45;&gt;Node8</title>
<g id="a_edge7_Node000007_Node000008"><a xlink:title=" ">
<path fill="none" stroke="#63b8ff" d="M248.58,-307.95C271.1,-298.53 300.96,-286.04 325.18,-275.91"/>
<polygon fill="#63b8ff" stroke="#63b8ff" points="326.63,-279.1 334.5,-272.01 323.93,-272.64 326.63,-279.1"/>
</a>
</g>
</g>
<!-- Node15 -->
<g id="Node000015" class="node">
<title>Node15</title>
<g id="a_Node000015"><a xlink:href="TypeIndexer_8ixx.html" target="_top" xlink:title="Utility for generating unique type indices at runtime.">
<polygon fill="white" stroke="#666666" points="264,-200.5 108,-200.5 108,-181.5 264,-181.5 264,-200.5"/>
<text text-anchor="middle" x="186" y="-188.5" font-family="Helvetica,sans-Serif" font-size="10.00">helios.core.data.TypeIndexer</text>
</a>
</g>
</g>
<!-- Node7&#45;&gt;Node15 -->
<g id="edge30_Node000007_Node000015" class="edge">
<title>Node7&#45;&gt;Node15</title>
<g id="a_edge30_Node000007_Node000015"><a xlink:title=" ">
<path fill="none" stroke="#63b8ff" d="M211.84,-307.84C206.57,-284.23 196,-236.83 190.14,-210.58"/>
<polygon fill="#63b8ff" stroke="#63b8ff" points="193.54,-209.75 187.95,-200.75 186.71,-211.27 193.54,-209.75"/>
</a>
</g>
</g>
<!-- Node8&#45;&gt;Node5 -->
<g id="edge9_Node000008_Node000005" class="edge">
<title>Node8&#45;&gt;Node5</title>
<g id="a_edge9_Node000008_Node000005"><a xlink:title=" ">
<path fill="none" stroke="#63b8ff" d="M346.44,-241.86C335.08,-233.05 322.23,-220.63 316,-206 289.71,-144.25 276.92,-109.56 316,-55 338.77,-23.21 385.56,-13.86 416.61,-11.26"/>
<polygon fill="#63b8ff" stroke="#63b8ff" points="417.12,-14.73 426.87,-10.6 416.67,-7.75 417.12,-14.73"/>
</a>
</g>
</g>
<!-- Node9 -->
<g id="Node000009" class="node">
<title>Node9</title>
<g id="a_Node000009"><a xlink:title=" ">
<polygon fill="#e0e0e0" stroke="#999999" points="891,-74 833,-74 833,-55 891,-55 891,-74"/>
<text text-anchor="middle" x="862" y="-62" font-family="Helvetica,sans-Serif" font-size="10.00">memory</text>
</a>
</g>
</g>
<!-- Node8&#45;&gt;Node9 -->
<g id="edge8_Node000008_Node000009" class="edge">
<title>Node8&#45;&gt;Node9</title>
<g id="a_edge8_Node000008_Node000009"><a xlink:title=" ">
<path fill="none" stroke="#63b8ff" d="M450.32,-251.48C519.85,-245.86 621.35,-233.4 706,-206 766.52,-186.41 790.51,-187.34 833,-140 847.16,-124.22 854.75,-100.75 858.56,-84.38"/>
<polygon fill="#63b8ff" stroke="#63b8ff" points="862.04,-84.87 860.64,-74.37 855.18,-83.45 862.04,-84.87"/>
</a>
</g>
</g>
<!-- Node10 -->
<g id="Node000010" class="node">
<title>Node10</title>
<g id="a_Node000010"><a xlink:title=" ">
<polygon fill="#e0e0e0" stroke="#999999" points="653.5,-19 606.5,-19 606.5,0 653.5,0 653.5,-19"/>
<text text-anchor="middle" x="630" y="-7" font-family="Helvetica,sans-Serif" font-size="10.00">vector</text>
</a>
</g>
</g>
<!-- Node8&#45;&gt;Node10 -->
<g id="edge10_Node000008_Node000010" class="edge">
<title>Node8&#45;&gt;Node10</title>
<g id="a_edge10_Node000008_Node000010"><a xlink:title=" ">
<path fill="none" stroke="#63b8ff" d="M361.55,-241.75C346.3,-205.64 312.65,-109.58 359,-55 374.23,-37.07 527.06,-20.34 596.26,-13.61"/>
<polygon fill="#63b8ff" stroke="#63b8ff" points="596.61,-17.09 606.23,-12.66 595.94,-10.13 596.61,-17.09"/>
</a>
</g>
</g>
<!-- Node11 -->
<g id="Node000011" class="node">
<title>Node11</title>
<g id="a_Node000011"><a xlink:href="ReadWriteDoubleBuffer_8ixx.html" target="_top" xlink:title="Type&#45;safe double&#45;buffered container for producer&#45;consumer patterns.">
<polygon fill="white" stroke="#666666" points="669.5,-206 514.5,-206 514.5,-176 669.5,-176 669.5,-206"/>
<text text-anchor="start" x="522.5" y="-194" font-family="Helvetica,sans-Serif" font-size="10.00">helios.core.buffer.ReadWrite</text>
<text text-anchor="middle" x="592" y="-183" font-family="Helvetica,sans-Serif" font-size="10.00">DoubleBuffer</text>
</a>
</g>
</g>
<!-- Node8&#45;&gt;Node11 -->
<g id="edge11_Node000008_Node000011" class="edge">
<title>Node8&#45;&gt;Node11</title>
<g id="a_edge11_Node000008_Node000011"><a xlink:title=" ">
<path fill="none" stroke="#63b8ff" d="M417.16,-241.95C451.3,-232.2 496.95,-219.16 533.05,-208.84"/>
<polygon fill="#63b8ff" stroke="#63b8ff" points="534.3,-212.12 542.96,-206.01 532.38,-205.39 534.3,-212.12"/>
</a>
</g>
</g>
<!-- Node12 -->
<g id="Node000012" class="node">
<title>Node12</title>
<g id="a_Node000012"><a xlink:href="ReadBuffer_8ixx.html" target="_top" xlink:title="Read&#45;only buffer for the double&#45;buffering pattern.">
<polygon fill="white" stroke="#666666" points="526,-74 368,-74 368,-55 526,-55 526,-74"/>
<text text-anchor="middle" x="447" y="-62" font-family="Helvetica,sans-Serif" font-size="10.00">helios.core.buffer.ReadBuffer</text>
</a>
</g>
</g>
<!-- Node8&#45;&gt;Node12 -->
<g id="edge25_Node000008_Node000012" class="edge">
<title>Node8&#45;&gt;Node12</title>
<g id="a_edge25_Node000008_Node000012"><a xlink:title=" ">
<path fill="none" stroke="#63b8ff" d="M366.38,-241.98C363.92,-214.56 361.89,-152.76 387,-110 394.64,-96.99 407.73,-86.61 419.74,-79.16"/>
<polygon fill="#63b8ff" stroke="#63b8ff" points="421.69,-82.08 428.6,-74.04 418.19,-76.02 421.69,-82.08"/>
</a>
</g>
</g>
<!-- Node13 -->
<g id="Node000013" class="node">
<title>Node13</title>
<g id="a_Node000013"><a xlink:href="WriteBuffer_8ixx.html" target="_top" xlink:title="Write&#45;only buffer for the double&#45;buffering pattern.">
<polygon fill="white" stroke="#666666" points="526,-140 396,-140 396,-110 526,-110 526,-140"/>
<text text-anchor="start" x="404" y="-128" font-family="Helvetica,sans-Serif" font-size="10.00">helios.core.buffer.Write</text>
<text text-anchor="middle" x="461" y="-117" font-family="Helvetica,sans-Serif" font-size="10.00">Buffer</text>
</a>
</g>
</g>
<!-- Node8&#45;&gt;Node13 -->
<g id="edge27_Node000008_Node000013" class="edge">
<title>Node8&#45;&gt;Node13</title>
<g id="a_edge27_Node000008_Node000013"><a xlink:title=" ">
<path fill="none" stroke="#63b8ff" d="M378.13,-241.84C394.2,-219.37 425.69,-175.36 444.88,-148.53"/>
<polygon fill="#63b8ff" stroke="#63b8ff" points="447.91,-150.31 450.88,-140.14 442.22,-146.24 447.91,-150.31"/>
</a>
</g>
</g>
<!-- Node14 -->
<g id="Node000014" class="node">
<title>Node14</title>
<g id="a_Node000014"><a xlink:href="DoubleBuffer_8ixx.html" target="_top" xlink:title="Double&#45;buffered, type&#45;indexed message system for decoupled inter&#45;system communication.">
<polygon fill="white" stroke="#666666" points="796,-140 658,-140 658,-110 796,-110 796,-140"/>
<text text-anchor="start" x="666" y="-128" font-family="Helvetica,sans-Serif" font-size="10.00">helios.core.buffer.Double</text>
<text text-anchor="middle" x="727" y="-117" font-family="Helvetica,sans-Serif" font-size="10.00">Buffer</text>
</a>
</g>
</g>
<!-- Node8&#45;&gt;Node14 -->
<g id="edge26_Node000008_Node000014" class="edge">
<title>Node8&#45;&gt;Node14</title>
<g id="a_edge26_Node000008_Node000014"><a xlink:title=" ">
<path fill="none" stroke="#63b8ff" d="M450,-250.62C529.28,-244.05 642.6,-230.63 679,-206 698.81,-192.6 711.73,-168.04 719.13,-149.66"/>
<polygon fill="#63b8ff" stroke="#63b8ff" points="722.44,-150.78 722.68,-140.19 715.89,-148.32 722.44,-150.78"/>
</a>
</g>
</g>
<!-- Node8&#45;&gt;Node15 -->
<g id="edge28_Node000008_Node000015" class="edge">
<title>Node8&#45;&gt;Node15</title>
<g id="a_edge28_Node000008_Node000015"><a xlink:title=" ">
<path fill="none" stroke="#63b8ff" d="M328.06,-241.95C295.72,-230.58 250.66,-214.74 220.02,-203.96"/>
<polygon fill="#63b8ff" stroke="#63b8ff" points="220.82,-200.53 210.22,-200.52 218.49,-207.14 220.82,-200.53"/>
</a>
</g>
</g>
<!-- Node11&#45;&gt;Node5 -->
<g id="edge13_Node000011_Node000005" class="edge">
<title>Node11&#45;&gt;Node5</title>
<g id="a_edge13_Node000011_Node000005"><a xlink:title=" ">
<path fill="none" stroke="#63b8ff" d="M589.61,-175.84C584.38,-148.92 569.51,-89.92 535,-55 518.78,-38.59 495.25,-27.12 476.6,-19.94"/>
<polygon fill="#63b8ff" stroke="#63b8ff" points="477.68,-16.61 467.09,-16.49 475.29,-23.19 477.68,-16.61"/>
</a>
</g>
</g>
<!-- Node11&#45;&gt;Node9 -->
<g id="edge12_Node000011_Node000009" class="edge">
<title>Node11&#45;&gt;Node9</title>
<g id="a_edge12_Node000011_Node000009"><a xlink:title=" ">
<path fill="none" stroke="#63b8ff" d="M669.65,-184.56C712.38,-178.56 764.73,-166.04 805,-140 826.83,-125.88 843.6,-100.39 853.13,-83.21"/>
<polygon fill="#63b8ff" stroke="#63b8ff" points="856.32,-84.68 857.89,-74.2 850.13,-81.41 856.32,-84.68"/>
</a>
</g>
</g>
<!-- Node11&#45;&gt;Node10 -->
<g id="edge14_Node000011_Node000010" class="edge">
<title>Node11&#45;&gt;Node10</title>
<g id="a_edge14_Node000011_Node000010"><a xlink:title=" ">
<path fill="none" stroke="#63b8ff" d="M596.39,-175.65C599.34,-165.7 603.19,-152.12 606,-140 615.1,-100.79 623.04,-54.27 627.1,-29.03"/>
<polygon fill="#63b8ff" stroke="#63b8ff" points="630.58,-29.46 628.69,-19.04 623.66,-28.37 630.58,-29.46"/>
</a>
</g>
</g>
<!-- Node11&#45;&gt;Node12 -->
<g id="edge15_Node000011_Node000012" class="edge">
<title>Node11&#45;&gt;Node12</title>
<g id="a_edge15_Node000011_Node000012"><a xlink:title=" ">
<path fill="none" stroke="#63b8ff" d="M584.8,-175.99C575.33,-158.66 557.25,-129.12 535,-110 519.01,-96.25 498.03,-85.43 480.57,-77.9"/>
<polygon fill="#63b8ff" stroke="#63b8ff" points="481.86,-74.65 471.28,-74.06 479.18,-81.12 481.86,-74.65"/>
</a>
</g>
</g>
<!-- Node11&#45;&gt;Node13 -->
<g id="edge18_Node000011_Node000013" class="edge">
<title>Node11&#45;&gt;Node13</title>
<g id="a_edge18_Node000011_Node000013"><a xlink:title=" ">
<path fill="none" stroke="#63b8ff" d="M563.25,-175.95C544.31,-166.7 519.31,-154.49 498.77,-144.45"/>
<polygon fill="#63b8ff" stroke="#63b8ff" points="500.2,-141.26 489.68,-140.01 497.13,-147.55 500.2,-141.26"/>
</a>
</g>
</g>
<!-- Node11&#45;&gt;Node14 -->
<g id="edge21_Node000011_Node000014" class="edge">
<title>Node11&#45;&gt;Node14</title>
<g id="a_edge21_Node000011_Node000014"><a xlink:title=" ">
<path fill="none" stroke="#63b8ff" d="M621.63,-175.95C641.23,-166.66 667.14,-154.38 688.37,-144.32"/>
<polygon fill="#63b8ff" stroke="#63b8ff" points="689.91,-147.46 697.44,-140.01 686.91,-141.13 689.91,-147.46"/>
</a>
</g>
</g>
<!-- Node12&#45;&gt;Node5 -->
<g id="edge16_Node000012_Node000005" class="edge">
<title>Node12&#45;&gt;Node5</title>
<g id="a_edge16_Node000012_Node000005"><a xlink:title=" ">
<path fill="none" stroke="#63b8ff" d="M447,-54.75C447,-47.8 447,-37.85 447,-29.13"/>
<polygon fill="#63b8ff" stroke="#63b8ff" points="450.5,-29.09 447,-19.09 443.5,-29.09 450.5,-29.09"/>
</a>
</g>
</g>
<!-- Node12&#45;&gt;Node10 -->
<g id="edge17_Node000012_Node000010" class="edge">
<title>Node12&#45;&gt;Node10</title>
<g id="a_edge17_Node000012_Node000010"><a xlink:title=" ">
<path fill="none" stroke="#63b8ff" d="M476.4,-54.98C509.18,-45.49 562.09,-30.17 596.46,-20.21"/>
<polygon fill="#63b8ff" stroke="#63b8ff" points="597.86,-23.45 606.49,-17.31 595.91,-16.73 597.86,-23.45"/>
</a>
</g>
</g>
<!-- Node13&#45;&gt;Node10 -->
<g id="edge19_Node000013_Node000010" class="edge">
<title>Node13&#45;&gt;Node10</title>
<g id="a_edge19_Node000013_Node000010"><a xlink:title=" ">
<path fill="none" stroke="#63b8ff" d="M482.06,-109.85C514.41,-88.13 576,-46.77 608.57,-24.89"/>
<polygon fill="#63b8ff" stroke="#63b8ff" points="610.59,-27.75 616.94,-19.27 606.69,-21.94 610.59,-27.75"/>
</a>
</g>
</g>
<!-- Node13&#45;&gt;Node12 -->
<g id="edge20_Node000013_Node000012" class="edge">
<title>Node13&#45;&gt;Node12</title>
<g id="a_edge20_Node000013_Node000012"><a xlink:title=" ">
<path fill="none" stroke="#63b8ff" d="M457.61,-109.84C455.77,-102.13 453.46,-92.49 451.47,-84.17"/>
<polygon fill="#63b8ff" stroke="#63b8ff" points="454.83,-83.18 449.1,-74.27 448.02,-84.81 454.83,-83.18"/>
</a>
</g>
</g>
<!-- Node14&#45;&gt;Node5 -->
<g id="edge23_Node000014_Node000005" class="edge">
<title>Node14&#45;&gt;Node5</title>
<g id="a_edge23_Node000014_Node000005"><a xlink:title=" ">
<path fill="none" stroke="#63b8ff" d="M705.96,-109.87C682.44,-94.59 642.82,-70.38 606,-55 562.56,-36.86 509.42,-23.68 476.9,-16.56"/>
<polygon fill="#63b8ff" stroke="#63b8ff" points="477.62,-13.14 467.11,-14.47 476.15,-19.98 477.62,-13.14"/>
</a>
</g>
</g>
<!-- Node14&#45;&gt;Node9 -->
<g id="edge22_Node000014_Node000009" class="edge">
<title>Node14&#45;&gt;Node9</title>
<g id="a_edge22_Node000014_Node000009"><a xlink:title=" ">
<path fill="none" stroke="#63b8ff" d="M759.34,-109.99C781.66,-100.31 811.1,-87.56 832.73,-78.18"/>
<polygon fill="#63b8ff" stroke="#63b8ff" points="834.28,-81.33 842.06,-74.14 831.5,-74.9 834.28,-81.33"/>
</a>
</g>
</g>
<!-- Node14&#45;&gt;Node10 -->
<g id="edge24_Node000014_Node000010" class="edge">
<title>Node14&#45;&gt;Node10</title>
<g id="a_edge24_Node000014_Node000010"><a xlink:title=" ">
<path fill="none" stroke="#63b8ff" d="M721,-109.73C714.36,-94.99 702.62,-71.83 688,-55 677.88,-43.36 664.3,-32.74 652.83,-24.8"/>
<polygon fill="#63b8ff" stroke="#63b8ff" points="654.44,-21.67 644.18,-19.04 650.56,-27.5 654.44,-21.67"/>
</a>
</g>
</g>
<!-- Node16 -->
<g id="Node000016" class="node">
<title>Node16</title>
<g id="a_Node000016"><a xlink:title=" ">
<polygon fill="#e0e0e0" stroke="#999999" points="211,-134.5 161,-134.5 161,-115.5 211,-115.5 211,-134.5"/>
<text text-anchor="middle" x="186" y="-122.5" font-family="Helvetica,sans-Serif" font-size="10.00">atomic</text>
</a>
</g>
</g>
<!-- Node15&#45;&gt;Node16 -->
<g id="edge29_Node000015_Node000016" class="edge">
<title>Node15&#45;&gt;Node16</title>
<g id="a_edge29_Node000015_Node000016"><a xlink:title=" ">
<path fill="none" stroke="#63b8ff" d="M186,-181.37C186,-172.16 186,-157.29 186,-145.27"/>
<polygon fill="#63b8ff" stroke="#63b8ff" points="189.5,-144.91 186,-134.91 182.5,-144.91 189.5,-144.91"/>
</a>
</g>
</g>
<!-- Node18 -->
<g id="Node000018" class="node">
<title>Node18</title>
<g id="a_Node000018"><a xlink:href="GamepadState_8ixx.html" target="_top" xlink:title="Representation of current gamepad input state.">
<polygon fill="white" stroke="#666666" points="1172.5,-272 999.5,-272 999.5,-242 1172.5,-242 1172.5,-272"/>
<text text-anchor="start" x="1007.5" y="-260" font-family="Helvetica,sans-Serif" font-size="10.00">helios.input.gamepad.Gamepad</text>
<text text-anchor="middle" x="1086" y="-249" font-family="Helvetica,sans-Serif" font-size="10.00">State</text>
</a>
</g>
</g>
<!-- Node17&#45;&gt;Node18 -->
<g id="edge32_Node000017_Node000018" class="edge">
<title>Node17&#45;&gt;Node18</title>
<g id="a_edge32_Node000017_Node000018"><a xlink:title=" ">
<path fill="none" stroke="#63b8ff" d="M459.43,-313.47C471.32,-311.48 484.11,-309.5 496,-308 669.17,-286.1 872.19,-271.25 989.27,-263.74"/>
<polygon fill="#63b8ff" stroke="#63b8ff" points="989.53,-267.23 999.29,-263.1 989.08,-260.24 989.53,-267.23"/>
</a>
</g>
</g>
<!-- Node19 -->
<g id="Node000019" class="node">
<title>Node19</title>
<g id="a_Node000019"><a xlink:href="LogManager_8ixx.html" target="_top" xlink:title="Central manager for scoped loggers with configurable sinks.">
<polygon fill="white" stroke="#666666" points="1215,-200.5 1069,-200.5 1069,-181.5 1215,-181.5 1215,-200.5"/>
<text text-anchor="middle" x="1142" y="-188.5" font-family="Helvetica,sans-Serif" font-size="10.00">helios.util.log.LogManager</text>
</a>
</g>
</g>
<!-- Node18&#45;&gt;Node19 -->
<g id="edge33_Node000018_Node000019" class="edge">
<title>Node18&#45;&gt;Node19</title>
<g id="a_edge33_Node000018_Node000019"><a xlink:title=" ">
<path fill="none" stroke="#63b8ff" d="M1098.43,-241.8C1107.07,-231.92 1118.62,-218.72 1127.66,-208.39"/>
<polygon fill="#63b8ff" stroke="#63b8ff" points="1130.31,-210.67 1134.26,-200.84 1125.04,-206.07 1130.31,-210.67"/>
</a>
</g>
</g>
<!-- Node24 -->
<g id="Node000024" class="node">
<title>Node24</title>
<g id="a_Node000024"><a xlink:href="Logger_8ixx.html" target="_top" xlink:title="Simple synchronous logger with configurable output sinks.">
<polygon fill="white" stroke="#666666" points="1085.5,-134.5 966.5,-134.5 966.5,-115.5 1085.5,-115.5 1085.5,-134.5"/>
<text text-anchor="middle" x="1026" y="-122.5" font-family="Helvetica,sans-Serif" font-size="10.00">helios.util.log.Logger</text>
</a>
</g>
</g>
<!-- Node18&#45;&gt;Node24 -->
<g id="edge48_Node000018_Node000024" class="edge">
<title>Node18&#45;&gt;Node24</title>
<g id="a_edge48_Node000018_Node000024"><a xlink:title=" ">
<path fill="none" stroke="#63b8ff" d="M1078.19,-241.71C1072.86,-231.79 1065.76,-218.21 1060,-206 1050.07,-184.95 1039.77,-160.23 1033.14,-143.9"/>
<polygon fill="#63b8ff" stroke="#63b8ff" points="1036.34,-142.47 1029.36,-134.5 1029.85,-145.09 1036.34,-142.47"/>
</a>
</g>
</g>
<!-- Node26 -->
<g id="Node000026" class="node">
<title>Node26</title>
<g id="a_Node000026"><a xlink:href="helios_2math_2types_2__module_8ixx.html" target="_top" xlink:title="Module exports for vector and matrix type definitions.">
<polygon fill="white" stroke="#666666" points="1337,-200.5 1233,-200.5 1233,-181.5 1337,-181.5 1337,-200.5"/>
<text text-anchor="middle" x="1285" y="-188.5" font-family="Helvetica,sans-Serif" font-size="10.00">helios.math.types</text>
</a>
</g>
</g>
<!-- Node18&#45;&gt;Node26 -->
<g id="edge49_Node000018_Node000026" class="edge">
<title>Node18&#45;&gt;Node26</title>
<g id="a_edge49_Node000018_Node000026"><a xlink:title=" ">
<path fill="none" stroke="#63b8ff" d="M1129.67,-241.95C1165.34,-230.48 1215.16,-214.46 1248.67,-203.68"/>
<polygon fill="#63b8ff" stroke="#63b8ff" points="1250.07,-206.91 1258.52,-200.52 1247.93,-200.25 1250.07,-206.91"/>
</a>
</g>
</g>
<!-- Node19&#45;&gt;Node9 -->
<g id="edge37_Node000019_Node000009" class="edge">
<title>Node19&#45;&gt;Node9</title>
<g id="a_edge37_Node000019_Node000009"><a xlink:title=" ">
<path fill="none" stroke="#63b8ff" d="M1068.84,-185.06C1024.26,-179.29 967.67,-166.84 924,-140 901.11,-125.93 882.66,-100.43 872.01,-83.23"/>
<polygon fill="#63b8ff" stroke="#63b8ff" points="874.77,-81.04 866.67,-74.21 868.75,-84.6 874.77,-81.04"/>
</a>
</g>
</g>
<!-- Node19&#45;&gt;Node10 -->
<g id="edge39_Node000019_Node000010" class="edge">
<title>Node19&#45;&gt;Node10</title>
<g id="a_edge39_Node000019_Node000010"><a xlink:title=" ">
<path fill="none" stroke="#63b8ff" d="M1068.79,-182.16C1032.81,-175.46 990.36,-163.04 958,-140 920.74,-113.48 938.56,-79.59 900,-55 861.38,-30.37 727.73,-17.6 664.14,-12.79"/>
<polygon fill="#63b8ff" stroke="#63b8ff" points="664.07,-9.28 653.84,-12.04 663.56,-16.26 664.07,-9.28"/>
</a>
</g>
</g>
<!-- Node20 -->
<g id="Node000020" class="node">
<title>Node20</title>
<g id="a_Node000020"><a xlink:title=" ">
<polygon fill="#e0e0e0" stroke="#999999" points="1152,-19 1108,-19 1108,0 1152,0 1152,-19"/>
<text text-anchor="middle" x="1130" y="-7" font-family="Helvetica,sans-Serif" font-size="10.00">string</text>
</a>
</g>
</g>
<!-- Node19&#45;&gt;Node20 -->
<g id="edge34_Node000019_Node000020" class="edge">
<title>Node19&#45;&gt;Node20</title>
<g id="a_edge34_Node000019_Node000020"><a xlink:title=" ">
<path fill="none" stroke="#63b8ff" d="M1162.16,-181.39C1207.06,-161 1308.42,-107.53 1270,-55 1245.48,-21.47 1195.49,-12.59 1162.37,-10.57"/>
<polygon fill="#63b8ff" stroke="#63b8ff" points="1162.4,-7.07 1152.26,-10.13 1162.1,-14.06 1162.4,-7.07"/>
</a>
</g>
</g>
<!-- Node21 -->
<g id="Node000021" class="node">
<title>Node21</title>
<g id="a_Node000021"><a xlink:title=" ">
<polygon fill="#e0e0e0" stroke="#999999" points="1415.5,-134.5 1322.5,-134.5 1322.5,-115.5 1415.5,-115.5 1415.5,-134.5"/>
<text text-anchor="middle" x="1369" y="-122.5" font-family="Helvetica,sans-Serif" font-size="10.00">unordered_map</text>
</a>
</g>
</g>
<!-- Node19&#45;&gt;Node21 -->
<g id="edge35_Node000019_Node000021" class="edge">
<title>Node19&#45;&gt;Node21</title>
<g id="a_edge35_Node000019_Node000021"><a xlink:title=" ">
<path fill="none" stroke="#63b8ff" d="M1172.61,-181.37C1213,-169.98 1284.19,-149.91 1328.85,-137.32"/>
<polygon fill="#63b8ff" stroke="#63b8ff" points="1329.83,-140.68 1338.51,-134.6 1327.93,-133.94 1329.83,-140.68"/>
</a>
</g>
</g>
<!-- Node22 -->
<g id="Node000022" class="node">
<title>Node22</title>
<g id="a_Node000022"><a xlink:title=" ">
<polygon fill="#e0e0e0" stroke="#999999" points="1190,-134.5 1104,-134.5 1104,-115.5 1190,-115.5 1190,-134.5"/>
<text text-anchor="middle" x="1147" y="-122.5" font-family="Helvetica,sans-Serif" font-size="10.00">unordered_set</text>
</a>
</g>
</g>
<!-- Node19&#45;&gt;Node22 -->
<g id="edge36_Node000019_Node000022" class="edge">
<title>Node19&#45;&gt;Node22</title>
<g id="a_edge36_Node000019_Node000022"><a xlink:title=" ">
<path fill="none" stroke="#63b8ff" d="M1142.67,-181.37C1143.4,-172.07 1144.58,-156.98 1145.52,-144.9"/>
<polygon fill="#63b8ff" stroke="#63b8ff" points="1149.01,-145.15 1146.3,-134.91 1142.04,-144.6 1149.01,-145.15"/>
</a>
</g>
</g>
<!-- Node23 -->
<g id="Node000023" class="node">
<title>Node23</title>
<g id="a_Node000023"><a xlink:title=" ">
<polygon fill="#e0e0e0" stroke="#999999" points="1261,-74 1213,-74 1213,-55 1261,-55 1261,-74"/>
<text text-anchor="middle" x="1237" y="-62" font-family="Helvetica,sans-Serif" font-size="10.00">mutex</text>
</a>
</g>
</g>
<!-- Node19&#45;&gt;Node23 -->
<g id="edge38_Node000019_Node000023" class="edge">
<title>Node19&#45;&gt;Node23</title>
<g id="a_edge38_Node000019_Node000023"><a xlink:title=" ">
<path fill="none" stroke="#63b8ff" d="M1161.23,-181.46C1177.8,-173.16 1201.18,-159.01 1215,-140 1227,-123.5 1232.5,-100.48 1234.99,-84.42"/>
<polygon fill="#63b8ff" stroke="#63b8ff" points="1238.51,-84.5 1236.32,-74.14 1231.57,-83.6 1238.51,-84.5"/>
</a>
</g>
</g>
<!-- Node19&#45;&gt;Node24 -->
<g id="edge40_Node000019_Node000024" class="edge">
<title>Node19&#45;&gt;Node24</title>
<g id="a_edge40_Node000019_Node000024"><a xlink:title=" ">
<path fill="none" stroke="#63b8ff" d="M1126.36,-181.37C1106.9,-170.63 1073.45,-152.18 1050.56,-139.55"/>
<polygon fill="#63b8ff" stroke="#63b8ff" points="1052.21,-136.47 1041.77,-134.7 1048.83,-142.59 1052.21,-136.47"/>
</a>
</g>
</g>
<!-- Node25 -->
<g id="Node000025" class="node">
<title>Node25</title>
<g id="a_Node000025"><a xlink:href="LogSink_8ixx.html" target="_top" xlink:title="Abstract interface for log output destinations.">
<polygon fill="white" stroke="#666666" points="1192,-74 1068,-74 1068,-55 1192,-55 1192,-74"/>
<text text-anchor="middle" x="1130" y="-62" font-family="Helvetica,sans-Serif" font-size="10.00">helios.util.log.LogSink</text>
</a>
</g>
</g>
<!-- Node19&#45;&gt;Node25 -->
<g id="edge47_Node000019_Node000025" class="edge">
<title>Node19&#45;&gt;Node25</title>
<g id="a_edge47_Node000019_Node000025"><a xlink:title=" ">
<path fill="none" stroke="#63b8ff" d="M1157.68,-181.47C1171.46,-172.99 1190.58,-158.59 1199,-140 1204.5,-127.85 1205.38,-121.71 1199,-110 1191.35,-95.97 1177.17,-85.69 1163.64,-78.57"/>
<polygon fill="#63b8ff" stroke="#63b8ff" points="1164.99,-75.34 1154.47,-74.14 1161.95,-81.64 1164.99,-75.34"/>
</a>
</g>
</g>
<!-- Node24&#45;&gt;Node9 -->
<g id="edge43_Node000024_Node000009" class="edge">
<title>Node24&#45;&gt;Node9</title>
<g id="a_edge43_Node000024_Node000009"><a xlink:title=" ">
<path fill="none" stroke="#63b8ff" d="M1002.15,-115.49C974.1,-105.49 927.33,-88.8 895.6,-77.49"/>
<polygon fill="#63b8ff" stroke="#63b8ff" points="896.47,-74.08 885.88,-74.02 894.12,-80.67 896.47,-74.08"/>
</a>
</g>
</g>
<!-- Node24&#45;&gt;Node10 -->
<g id="edge42_Node000024_Node000010" class="edge">
<title>Node24&#45;&gt;Node10</title>
<g id="a_edge42_Node000024_Node000010"><a xlink:title=" ">
<path fill="none" stroke="#63b8ff" d="M1019.79,-115.46C1008.3,-100.4 982.14,-69.33 952,-55 901.46,-30.97 735.98,-17.46 663.98,-12.6"/>
<polygon fill="#63b8ff" stroke="#63b8ff" points="663.86,-9.08 653.66,-11.92 663.4,-16.07 663.86,-9.08"/>
</a>
</g>
</g>
<!-- Node24&#45;&gt;Node20 -->
<g id="edge41_Node000024_Node000020" class="edge">
<title>Node24&#45;&gt;Node20</title>
<g id="a_edge41_Node000024_Node000020"><a xlink:title=" ">
<path fill="none" stroke="#63b8ff" d="M1028.36,-115.48C1032.59,-101.5 1042.56,-73.43 1059,-55 1070.57,-42.04 1086.8,-31.48 1100.82,-23.91"/>
<polygon fill="#63b8ff" stroke="#63b8ff" points="1102.79,-26.83 1110.09,-19.15 1099.59,-20.61 1102.79,-26.83"/>
</a>
</g>
</g>
<!-- Node24&#45;&gt;Node23 -->
<g id="edge44_Node000024_Node000023" class="edge">
<title>Node24&#45;&gt;Node23</title>
<g id="a_edge44_Node000024_Node000023"><a xlink:title=" ">
<path fill="none" stroke="#63b8ff" d="M1056.68,-115.49C1095.67,-104.68 1162.74,-86.09 1203.17,-74.88"/>
<polygon fill="#63b8ff" stroke="#63b8ff" points="1204.14,-78.24 1212.84,-72.2 1202.27,-71.5 1204.14,-78.24"/>
</a>
</g>
</g>
<!-- Node24&#45;&gt;Node25 -->
<g id="edge45_Node000024_Node000025" class="edge">
<title>Node24&#45;&gt;Node25</title>
<g id="a_edge45_Node000024_Node000025"><a xlink:title=" ">
<path fill="none" stroke="#63b8ff" d="M1041.35,-115.37C1058.32,-105.82 1085.9,-90.31 1105.79,-79.12"/>
<polygon fill="#63b8ff" stroke="#63b8ff" points="1107.59,-82.12 1114.59,-74.17 1104.16,-76.02 1107.59,-82.12"/>
</a>
</g>
</g>
<!-- Node25&#45;&gt;Node20 -->
<g id="edge46_Node000025_Node000020" class="edge">
<title>Node25&#45;&gt;Node20</title>
<g id="a_edge46_Node000025_Node000020"><a xlink:title=" ">
<path fill="none" stroke="#63b8ff" d="M1130,-54.75C1130,-47.8 1130,-37.85 1130,-29.13"/>
<polygon fill="#63b8ff" stroke="#63b8ff" points="1133.5,-29.09 1130,-19.09 1126.5,-29.09 1133.5,-29.09"/>
</a>
</g>
</g>
<!-- Node26&#45;&gt;Node26 -->
<g id="edge50_Node000026_Node000026" class="edge">
<title>Node26&#45;&gt;Node26</title>
<g id="a_edge50_Node000026_Node000026"><a xlink:title=" ">
<path fill="none" stroke="#63b8ff" d="M1306.86,-200.56C1329.56,-206.37 1355,-203.18 1355,-191 1355,-180.58 1336.39,-176.74 1316.79,-179.48"/>
<polygon fill="#63b8ff" stroke="#63b8ff" points="1316,-176.07 1306.86,-181.44 1317.35,-182.94 1316,-176.07"/>
</a>
</g>
</g>
</g>
</svg>
