<?xml version="1.0" encoding="UTF-8" standalone="no"?>
<!DOCTYPE svg PUBLIC "-//W3C//DTD SVG 1.1//EN"
 "http://www.w3.org/Graphics/SVG/1.1/DTD/svg11.dtd">
<!-- Generated by graphviz version 2.43.0 (0)
 -->
<!-- Title: TextShaderProperties.ixx Pages: 1 -->
<!--zoomable 390 -->

<svg id="main" version="1.1" xmlns="http://www.w3.org/2000/svg" xmlns:xlink="http://www.w3.org/1999/xlink" xml:space="preserve" onload="init(evt)">

<style type="text/css"><![CDATA[
.node, .edge {opacity: 0.7;}
.node.selected, .edge.selected {opacity: 1;}
.edge:hover path { stroke: red; }
.edge:hover polygon { stroke: red; fill: red; }
]]></style>

<defs>
  <circle id="rim" cx="0" cy="0" r="7"/>
  <circle id="rim2" cx="0" cy="0" r="3.5"/>
  <g id="zoomPlus">
    <use xlink:href="#rim" fill="#404040"><set attributeName="fill" to="#808080" begin="zoomplus.mouseover" end="zoomplus.mouseout"/></use>
    <path d="M-4,0h8M0,-4v8" fill="none" stroke="white" stroke-width="1.5" pointer-events="none"/>
  </g>
  <g id="zoomMin">
    <use xlink:href="#rim" fill="#404040"><set attributeName="fill" to="#808080" begin="zoomminus.mouseover" end="zoomminus.mouseout"/></use>
    <path d="M-4,0h8" fill="none" stroke="white" stroke-width="1.5" pointer-events="none"/>
  </g>
  <g id="arrowUp" transform="translate(30 24)">
    <use xlink:href="#rim"/>
    <path pointer-events="none" fill="none" stroke="white" stroke-width="1.5" d="M0,-3.0v7 M-2.5,-0.5L0,-3.0L2.5,-0.5"/>
  </g>
  <g id="arrowRight" transform="rotate(90) translate(36 -43)">
    <use xlink:href="#rim"/>
    <path pointer-events="none" fill="none" stroke="white" stroke-width="1.5" d="M0,-3.0v7 M-2.5,-0.5L0,-3.0L2.5,-0.5"/>
  </g>
  <g id="arrowDown" transform="rotate(180) translate(-30 -48)">
    <use xlink:href="#rim"/>
    <path pointer-events="none" fill="none" stroke="white" stroke-width="1.5" d="M0,-3.0v7 M-2.5,-0.5L0,-3.0L2.5,-0.5"/>
  </g>
  <g id="arrowLeft" transform="rotate(270) translate(-36 17)">
    <use xlink:href="#rim"/>
    <path pointer-events="none" fill="none" stroke="white" stroke-width="1.5" d="M0,-3.0v7 M-2.5,-0.5L0,-3.0L2.5,-0.5"/>
  </g>
  <g id="resetDef">
    <use xlink:href="#rim2" fill="#404040"><set attributeName="fill" to="#808080" begin="reset.mouseover" end="reset.mouseout"/></use>
  </g>
</defs>
<script type="application/ecmascript">
var viewWidth = 2159;
var viewHeight = 390;
var sectionId = 'dynsection-0';
</script>
<script type="application/ecmascript" xlink:href="svg.min.js"/>
<svg id="graph" class="graph">
<g id="viewport">
<title>TextShaderProperties.ixx</title>
<!-- Node1 -->
<g id="Node000001" class="node">
<title>Node1</title>
<g id="a_Node000001"><a xlink:title="Defines shader properties for text rendering.">
<polygon fill="#999999" stroke="#666666" points="1338,-382 1200,-382 1200,-363 1338,-363 1338,-382"/>
<text text-anchor="middle" x="1269" y="-370" font-family="Helvetica,sans-Serif" font-size="10.00">TextShaderProperties.ixx</text>
</a>
</g>
</g>
<!-- Node2 -->
<g id="Node000002" class="node">
<title>Node2</title>
<g id="a_Node000002"><a xlink:title=" ">
<polygon fill="#e0e0e0" stroke="#999999" points="100,-129 42,-129 42,-110 100,-110 100,-129"/>
<text text-anchor="middle" x="71" y="-117" font-family="Helvetica,sans-Serif" font-size="10.00">memory</text>
</a>
</g>
</g>
<!-- Node1&#45;&gt;Node2 -->
<g id="edge1_Node000001_Node000002" class="edge">
<title>Node1&#45;&gt;Node2</title>
<g id="a_edge1_Node000001_Node000002"><a xlink:title=" ">
<path fill="none" stroke="#63b8ff" d="M1199.87,-370.02C1074.2,-366.69 800.13,-356.42 571,-327 418.32,-307.4 378.29,-305.73 231,-261 158.57,-239 117.15,-257.19 74,-195 62.73,-178.75 63.84,-155.37 66.57,-139.15"/>
<polygon fill="#63b8ff" stroke="#63b8ff" points="70.02,-139.74 68.59,-129.24 63.16,-138.35 70.02,-139.74"/>
</a>
</g>
</g>
<!-- Node3 -->
<g id="Node000003" class="node">
<title>Node3</title>
<g id="a_Node000003"><a xlink:title=" ">
<polygon fill="#e0e0e0" stroke="#999999" points="418,-19 374,-19 374,0 418,0 418,-19"/>
<text text-anchor="middle" x="396" y="-7" font-family="Helvetica,sans-Serif" font-size="10.00">string</text>
</a>
</g>
</g>
<!-- Node1&#45;&gt;Node3 -->
<g id="edge2_Node000001_Node000003" class="edge">
<title>Node1&#45;&gt;Node3</title>
<g id="a_edge2_Node000001_Node000003"><a xlink:title=" ">
<path fill="none" stroke="#63b8ff" d="M1199.87,-372.03C935.06,-373.18 0,-368.62 0,-247 0,-247 0,-247 0,-118.5 0,-43.28 269.31,-18.67 363.75,-12.36"/>
<polygon fill="#63b8ff" stroke="#63b8ff" points="364.11,-15.84 373.86,-11.71 363.66,-8.86 364.11,-15.84"/>
</a>
</g>
</g>
<!-- Node4 -->
<g id="Node000004" class="node">
<title>Node4</title>
<g id="a_Node000004"><a xlink:title=" ">
<polygon fill="#e0e0e0" stroke="#999999" points="1641.5,-321.5 1596.5,-321.5 1596.5,-302.5 1641.5,-302.5 1641.5,-321.5"/>
<text text-anchor="middle" x="1619" y="-309.5" font-family="Helvetica,sans-Serif" font-size="10.00">utility</text>
</a>
</g>
</g>
<!-- Node1&#45;&gt;Node4 -->
<g id="edge3_Node000001_Node000004" class="edge">
<title>Node1&#45;&gt;Node4</title>
<g id="a_edge3_Node000001_Node000004"><a xlink:title=" ">
<path fill="none" stroke="#63b8ff" d="M1338.24,-366.07C1402.24,-360.02 1499.6,-348.17 1582,-327 1584.44,-326.37 1586.95,-325.64 1589.45,-324.84"/>
<polygon fill="#63b8ff" stroke="#63b8ff" points="1590.62,-328.13 1598.9,-321.52 1588.31,-321.53 1590.62,-328.13"/>
</a>
</g>
</g>
<!-- Node5 -->
<g id="Node000005" class="node">
<title>Node5</title>
<g id="a_Node000005"><a xlink:href="UniformSemantics_8ixx.html" target="_top" xlink:title="Definitions of uniform semantics used by shaders.">
<polygon fill="white" stroke="#666666" points="1538,-195 1404,-195 1404,-165 1538,-165 1538,-195"/>
<text text-anchor="start" x="1412" y="-183" font-family="Helvetica,sans-Serif" font-size="10.00">helios.rendering.shader.</text>
<text text-anchor="middle" x="1471" y="-172" font-family="Helvetica,sans-Serif" font-size="10.00">UniformSemantics</text>
</a>
</g>
</g>
<!-- Node1&#45;&gt;Node5 -->
<g id="edge4_Node000001_Node000005" class="edge">
<title>Node1&#45;&gt;Node5</title>
<g id="a_edge4_Node000001_Node000005"><a xlink:title=" ">
<path fill="none" stroke="#63b8ff" d="M1278.84,-362.75C1299.62,-344.23 1349.36,-299.59 1390,-261 1410.57,-241.47 1433.53,-218.69 1449.74,-202.45"/>
<polygon fill="#63b8ff" stroke="#63b8ff" points="1452.54,-204.6 1457.12,-195.04 1447.58,-199.66 1452.54,-204.6"/>
</a>
</g>
</g>
<!-- Node6 -->
<g id="Node000006" class="node">
<title>Node6</title>
<g id="a_Node000006"><a xlink:href="UniformValueMap_8ixx.html" target="_top" xlink:title="Mapping of uniform names to values used by shader programs.">
<polygon fill="white" stroke="#666666" points="1336,-261 1202,-261 1202,-231 1336,-231 1336,-261"/>
<text text-anchor="start" x="1210" y="-249" font-family="Helvetica,sans-Serif" font-size="10.00">helios.rendering.shader.</text>
<text text-anchor="middle" x="1269" y="-238" font-family="Helvetica,sans-Serif" font-size="10.00">UniformValueMap</text>
</a>
</g>
</g>
<!-- Node1&#45;&gt;Node6 -->
<g id="edge5_Node000001_Node000006" class="edge">
<title>Node1&#45;&gt;Node6</title>
<g id="a_edge5_Node000001_Node000006"><a xlink:title=" ">
<path fill="none" stroke="#63b8ff" d="M1269,-362.94C1269,-344.32 1269,-299.53 1269,-271.39"/>
<polygon fill="#63b8ff" stroke="#63b8ff" points="1272.5,-271.16 1269,-261.16 1265.5,-271.16 1272.5,-271.16"/>
</a>
</g>
</g>
<!-- Node11 -->
<g id="Node000011" class="node">
<title>Node11</title>
<g id="a_Node000011"><a xlink:href="helios_2math_2__module_8ixx.html" target="_top" xlink:title="Module exports for mathematical types and utilities.">
<polygon fill="white" stroke="#666666" points="1781,-255.5 1707,-255.5 1707,-236.5 1781,-236.5 1781,-255.5"/>
<text text-anchor="middle" x="1744" y="-243.5" font-family="Helvetica,sans-Serif" font-size="10.00">helios.math</text>
</a>
</g>
</g>
<!-- Node1&#45;&gt;Node11 -->
<g id="edge12_Node000001_Node000011" class="edge">
<title>Node1&#45;&gt;Node11</title>
<g id="a_edge12_Node000001_Node000011"><a xlink:title=" ">
<path fill="none" stroke="#63b8ff" d="M1338.09,-369.97C1396.43,-366.5 1481.08,-356.25 1549,-327 1569.08,-318.35 1568.63,-307.16 1588,-297 1622.66,-278.83 1665.13,-265.74 1697,-257.53"/>
<polygon fill="#63b8ff" stroke="#63b8ff" points="1698.11,-260.86 1706.96,-255.03 1696.41,-254.07 1698.11,-260.86"/>
</a>
</g>
</g>
<!-- Node18 -->
<g id="Node000018" class="node">
<title>Node18</title>
<g id="a_Node000018"><a xlink:href="Colors_8ixx.html" target="_top" xlink:title="Standard color constants as vec4f (RGBA).">
<polygon fill="white" stroke="#666666" points="1540,-321.5 1442,-321.5 1442,-302.5 1540,-302.5 1540,-321.5"/>
<text text-anchor="middle" x="1491" y="-309.5" font-family="Helvetica,sans-Serif" font-size="10.00">helios.util.Colors</text>
</a>
</g>
</g>
<!-- Node1&#45;&gt;Node18 -->
<g id="edge22_Node000001_Node000018" class="edge">
<title>Node1&#45;&gt;Node18</title>
<g id="a_edge22_Node000001_Node000018"><a xlink:title=" ">
<path fill="none" stroke="#63b8ff" d="M1301.28,-362.99C1340.25,-352.73 1405.88,-335.43 1448.82,-324.12"/>
<polygon fill="#63b8ff" stroke="#63b8ff" points="1449.9,-327.45 1458.68,-321.52 1448.12,-320.68 1449.9,-327.45"/>
</a>
</g>
</g>
<!-- Node19 -->
<g id="Node000019" class="node">
<title>Node19</title>
<g id="a_Node000019"><a xlink:href="FontId_8ixx.html" target="_top" xlink:title="Strongly&#45;typed identifier for font families.">
<polygon fill="white" stroke="#666666" points="1234.5,-327 1021.5,-327 1021.5,-297 1234.5,-297 1234.5,-327"/>
<text text-anchor="start" x="1029.5" y="-315" font-family="Helvetica,sans-Serif" font-size="10.00">helios.engine.modules.ui.widgets.types.</text>
<text text-anchor="middle" x="1128" y="-304" font-family="Helvetica,sans-Serif" font-size="10.00">FontId</text>
</a>
</g>
</g>
<!-- Node1&#45;&gt;Node19 -->
<g id="edge24_Node000001_Node000019" class="edge">
<title>Node1&#45;&gt;Node19</title>
<g id="a_edge24_Node000001_Node000019"><a xlink:title=" ">
<path fill="none" stroke="#63b8ff" d="M1248.5,-362.99C1228.38,-354.65 1197.08,-341.66 1171.42,-331.02"/>
<polygon fill="#63b8ff" stroke="#63b8ff" points="1172.48,-327.66 1161.9,-327.06 1169.79,-334.13 1172.48,-327.66"/>
</a>
</g>
</g>
<!-- Node28 -->
<g id="Node000028" class="node">
<title>Node28</title>
<g id="a_Node000028"><a xlink:href="Shader_8ixx.html" target="_top" xlink:title="Abstraction for a compiled shader program.">
<polygon fill="white" stroke="#666666" points="714,-327 580,-327 580,-297 714,-297 714,-327"/>
<text text-anchor="start" x="588" y="-315" font-family="Helvetica,sans-Serif" font-size="10.00">helios.rendering.shader.</text>
<text text-anchor="middle" x="647" y="-304" font-family="Helvetica,sans-Serif" font-size="10.00">Shader</text>
</a>
</g>
</g>
<!-- Node1&#45;&gt;Node28 -->
<g id="edge44_Node000001_Node000028" class="edge">
<title>Node1&#45;&gt;Node28</title>
<g id="a_edge44_Node000001_Node000028"><a xlink:title=" ">
<path fill="none" stroke="#63b8ff" d="M1199.76,-364.99C1082.72,-353.98 846.6,-331.77 724.32,-320.27"/>
<polygon fill="#63b8ff" stroke="#63b8ff" points="724.57,-316.78 714.28,-319.33 723.91,-323.75 724.57,-316.78"/>
</a>
</g>
</g>
<!-- Node6&#45;&gt;Node5 -->
<g id="edge11_Node000006_Node000005" class="edge">
<title>Node6&#45;&gt;Node5</title>
<g id="a_edge11_Node000006_Node000005"><a xlink:title=" ">
<path fill="none" stroke="#63b8ff" d="M1313.33,-230.95C1343.85,-221.28 1384.58,-208.38 1417,-198.11"/>
<polygon fill="#63b8ff" stroke="#63b8ff" points="1418.3,-201.37 1426.77,-195.01 1416.18,-194.7 1418.3,-201.37"/>
</a>
</g>
</g>
<!-- Node7 -->
<g id="Node000007" class="node">
<title>Node7</title>
<g id="a_Node000007"><a xlink:title=" ">
<polygon fill="#e0e0e0" stroke="#999999" points="1348,-189.5 1306,-189.5 1306,-170.5 1348,-170.5 1348,-189.5"/>
<text text-anchor="middle" x="1327" y="-177.5" font-family="Helvetica,sans-Serif" font-size="10.00">array</text>
</a>
</g>
</g>
<!-- Node6&#45;&gt;Node7 -->
<g id="edge6_Node000006_Node000007" class="edge">
<title>Node6&#45;&gt;Node7</title>
<g id="a_edge6_Node000006_Node000007"><a xlink:title=" ">
<path fill="none" stroke="#63b8ff" d="M1281.87,-230.8C1290.83,-220.92 1302.79,-207.72 1312.14,-197.39"/>
<polygon fill="#63b8ff" stroke="#63b8ff" points="1314.86,-199.6 1318.98,-189.84 1309.68,-194.9 1314.86,-199.6"/>
</a>
</g>
</g>
<!-- Node8 -->
<g id="Node000008" class="node">
<title>Node8</title>
<g id="a_Node000008"><a xlink:title=" ">
<polygon fill="#e0e0e0" stroke="#999999" points="1218,-189.5 1162,-189.5 1162,-170.5 1218,-170.5 1218,-189.5"/>
<text text-anchor="middle" x="1190" y="-177.5" font-family="Helvetica,sans-Serif" font-size="10.00">optional</text>
</a>
</g>
</g>
<!-- Node6&#45;&gt;Node8 -->
<g id="edge7_Node000006_Node000008" class="edge">
<title>Node6&#45;&gt;Node8</title>
<g id="a_edge7_Node000006_Node000008"><a xlink:title=" ">
<path fill="none" stroke="#63b8ff" d="M1251.47,-230.8C1238.79,-220.53 1221.68,-206.67 1208.74,-196.18"/>
<polygon fill="#63b8ff" stroke="#63b8ff" points="1210.89,-193.42 1200.92,-189.84 1206.48,-198.86 1210.89,-193.42"/>
</a>
</g>
</g>
<!-- Node9 -->
<g id="Node000009" class="node">
<title>Node9</title>
<g id="a_Node000009"><a xlink:title=" ">
<polygon fill="#e0e0e0" stroke="#999999" points="1287.5,-189.5 1236.5,-189.5 1236.5,-170.5 1287.5,-170.5 1287.5,-189.5"/>
<text text-anchor="middle" x="1262" y="-177.5" font-family="Helvetica,sans-Serif" font-size="10.00">variant</text>
</a>
</g>
</g>
<!-- Node6&#45;&gt;Node9 -->
<g id="edge8_Node000006_Node000009" class="edge">
<title>Node6&#45;&gt;Node9</title>
<g id="a_edge8_Node000006_Node000009"><a xlink:title=" ">
<path fill="none" stroke="#63b8ff" d="M1267.45,-230.8C1266.45,-221.7 1265.15,-209.79 1264.07,-199.9"/>
<polygon fill="#63b8ff" stroke="#63b8ff" points="1267.53,-199.4 1262.97,-189.84 1260.58,-200.17 1267.53,-199.4"/>
</a>
</g>
</g>
<!-- Node10 -->
<g id="Node000010" class="node">
<title>Node10</title>
<g id="a_Node000010"><a xlink:href="helios_2math_2types_2__module_8ixx.html" target="_top" xlink:title="Module exports for vector and matrix type definitions.">
<polygon fill="white" stroke="#666666" points="1660,-189.5 1556,-189.5 1556,-170.5 1660,-170.5 1660,-189.5"/>
<text text-anchor="middle" x="1608" y="-177.5" font-family="Helvetica,sans-Serif" font-size="10.00">helios.math.types</text>
</a>
</g>
</g>
<!-- Node6&#45;&gt;Node10 -->
<g id="edge9_Node000006_Node000010" class="edge">
<title>Node6&#45;&gt;Node10</title>
<g id="a_edge9_Node000006_Node000010"><a xlink:title=" ">
<path fill="none" stroke="#63b8ff" d="M1336.02,-233.87C1392.43,-224.28 1475.18,-209.69 1547,-195 1551.99,-193.98 1557.21,-192.86 1562.39,-191.72"/>
<polygon fill="#63b8ff" stroke="#63b8ff" points="1563.27,-195.11 1572.26,-189.5 1561.73,-188.28 1563.27,-195.11"/>
</a>
</g>
</g>
<!-- Node10&#45;&gt;Node10 -->
<g id="edge10_Node000010_Node000010" class="edge">
<title>Node10&#45;&gt;Node10</title>
<g id="a_edge10_Node000010_Node000010"><a xlink:title=" ">
<path fill="none" stroke="#63b8ff" d="M1633.85,-189.53C1655.44,-193.61 1678,-190.43 1678,-180 1678,-171.2 1661.94,-167.56 1643.95,-169.09"/>
<polygon fill="#63b8ff" stroke="#63b8ff" points="1643.28,-165.65 1633.85,-170.47 1644.23,-172.58 1643.28,-165.65"/>
</a>
</g>
</g>
<!-- Node11&#45;&gt;Node10 -->
<g id="edge17_Node000011_Node000010" class="edge">
<title>Node11&#45;&gt;Node10</title>
<g id="a_edge17_Node000011_Node000010"><a xlink:title=" ">
<path fill="none" stroke="#63b8ff" d="M1725.66,-236.37C1702.54,-225.49 1662.59,-206.69 1635.73,-194.05"/>
<polygon fill="#63b8ff" stroke="#63b8ff" points="1637.02,-190.79 1626.49,-189.7 1634.04,-197.12 1637.02,-190.79"/>
</a>
</g>
</g>
<!-- Node12 -->
<g id="Node000012" class="node">
<title>Node12</title>
<g id="a_Node000012"><a xlink:href="helios_2math_2concepts_2__module_8ixx.html" target="_top" xlink:title="Math concepts module exports.">
<polygon fill="white" stroke="#666666" points="1971.5,-189.5 1850.5,-189.5 1850.5,-170.5 1971.5,-170.5 1971.5,-189.5"/>
<text text-anchor="middle" x="1911" y="-177.5" font-family="Helvetica,sans-Serif" font-size="10.00">helios.math.concepts</text>
</a>
</g>
</g>
<!-- Node11&#45;&gt;Node12 -->
<g id="edge13_Node000011_Node000012" class="edge">
<title>Node11&#45;&gt;Node12</title>
<g id="a_edge13_Node000011_Node000012"><a xlink:title=" ">
<path fill="none" stroke="#63b8ff" d="M1766.52,-236.37C1795.49,-225.27 1845.98,-205.92 1878.94,-193.28"/>
<polygon fill="#63b8ff" stroke="#63b8ff" points="1880.48,-196.44 1888.57,-189.6 1877.98,-189.91 1880.48,-196.44"/>
</a>
</g>
</g>
<!-- Node13 -->
<g id="Node000013" class="node">
<title>Node13</title>
<g id="a_Node000013"><a xlink:href="helios_2math_2transform_2__module_8ixx.html" target="_top" xlink:title="Module exports for transformation utilities.">
<polygon fill="white" stroke="#666666" points="2132.5,-189.5 2007.5,-189.5 2007.5,-170.5 2132.5,-170.5 2132.5,-189.5"/>
<text text-anchor="middle" x="2070" y="-177.5" font-family="Helvetica,sans-Serif" font-size="10.00">helios.math.transform</text>
</a>
</g>
</g>
<!-- Node11&#45;&gt;Node13 -->
<g id="edge15_Node000011_Node000013" class="edge">
<title>Node11&#45;&gt;Node13</title>
<g id="a_edge15_Node000011_Node000013"><a xlink:title=" ">
<path fill="none" stroke="#63b8ff" d="M1781.17,-237.73C1830.82,-228 1921.53,-210.23 1999,-195 2004.77,-193.87 2010.79,-192.68 2016.8,-191.5"/>
<polygon fill="#63b8ff" stroke="#63b8ff" points="2017.69,-194.89 2026.82,-189.52 2016.34,-188.02 2017.69,-194.89"/>
</a>
</g>
</g>
<!-- Node14 -->
<g id="Node000014" class="node">
<title>Node14</title>
<g id="a_Node000014"><a xlink:href="utils_8ixx.html" target="_top" xlink:title="Misc math utility functions.">
<polygon fill="white" stroke="#666666" points="1832,-189.5 1734,-189.5 1734,-170.5 1832,-170.5 1832,-189.5"/>
<text text-anchor="middle" x="1783" y="-177.5" font-family="Helvetica,sans-Serif" font-size="10.00">helios.math.utils</text>
</a>
</g>
</g>
<!-- Node11&#45;&gt;Node14 -->
<g id="edge18_Node000011_Node000014" class="edge">
<title>Node11&#45;&gt;Node14</title>
<g id="a_edge18_Node000011_Node000014"><a xlink:title=" ">
<path fill="none" stroke="#63b8ff" d="M1749.26,-236.37C1755.1,-226.78 1764.69,-211.05 1772.15,-198.8"/>
<polygon fill="#63b8ff" stroke="#63b8ff" points="1775.36,-200.27 1777.57,-189.91 1769.38,-196.62 1775.36,-200.27"/>
</a>
</g>
</g>
<!-- Node16 -->
<g id="Node000016" class="node">
<title>Node16</title>
<g id="a_Node000016"><a xlink:href="TransformType_8ixx.html" target="_top" xlink:title="Defines transform inheritance flags for scene graph hierarchies.">
<polygon fill="white" stroke="#666666" points="1666.5,-74 1517.5,-74 1517.5,-55 1666.5,-55 1666.5,-74"/>
<text text-anchor="middle" x="1592" y="-62" font-family="Helvetica,sans-Serif" font-size="10.00">helios.math.TransformType</text>
</a>
</g>
</g>
<!-- Node11&#45;&gt;Node16 -->
<g id="edge20_Node000011_Node000016" class="edge">
<title>Node11&#45;&gt;Node16</title>
<g id="a_edge20_Node000011_Node000016"><a xlink:title=" ">
<path fill="none" stroke="#63b8ff" d="M1738.39,-236.3C1728.59,-221.27 1707.42,-189.71 1687,-165 1661.19,-133.77 1627.87,-100.24 1608.33,-81.17"/>
<polygon fill="#63b8ff" stroke="#63b8ff" points="1610.71,-78.6 1601.09,-74.16 1605.84,-83.63 1610.71,-78.6"/>
</a>
</g>
</g>
<!-- Node12&#45;&gt;Node12 -->
<g id="edge14_Node000012_Node000012" class="edge">
<title>Node12&#45;&gt;Node12</title>
<g id="a_edge14_Node000012_Node000012"><a xlink:title=" ">
<path fill="none" stroke="#63b8ff" d="M1939.99,-189.53C1964.2,-193.61 1989.5,-190.43 1989.5,-180 1989.5,-171 1970.64,-167.4 1949.91,-169.2"/>
<polygon fill="#63b8ff" stroke="#63b8ff" points="1949.46,-165.73 1939.99,-170.47 1950.35,-172.67 1949.46,-165.73"/>
</a>
</g>
</g>
<!-- Node13&#45;&gt;Node13 -->
<g id="edge16_Node000013_Node000013" class="edge">
<title>Node13&#45;&gt;Node13</title>
<g id="a_edge16_Node000013_Node000013"><a xlink:title=" ">
<path fill="none" stroke="#63b8ff" d="M2099.72,-189.53C2124.55,-193.61 2150.5,-190.43 2150.5,-180 2150.5,-171 2131.16,-167.4 2109.9,-169.2"/>
<polygon fill="#63b8ff" stroke="#63b8ff" points="2109.22,-165.76 2099.72,-170.47 2110.08,-172.71 2109.22,-165.76"/>
</a>
</g>
</g>
<!-- Node15 -->
<g id="Node000015" class="node">
<title>Node15</title>
<g id="a_Node000015"><a xlink:title=" ">
<polygon fill="#e0e0e0" stroke="#999999" points="1812.5,-129 1753.5,-129 1753.5,-110 1812.5,-110 1812.5,-129"/>
<text text-anchor="middle" x="1783" y="-117" font-family="Helvetica,sans-Serif" font-size="10.00">numbers</text>
</a>
</g>
</g>
<!-- Node14&#45;&gt;Node15 -->
<g id="edge19_Node000014_Node000015" class="edge">
<title>Node14&#45;&gt;Node15</title>
<g id="a_edge19_Node000014_Node000015"><a xlink:title=" ">
<path fill="none" stroke="#63b8ff" d="M1783,-170.37C1783,-162.25 1783,-149.81 1783,-139.39"/>
<polygon fill="#63b8ff" stroke="#63b8ff" points="1786.5,-139.17 1783,-129.17 1779.5,-139.17 1786.5,-139.17"/>
</a>
</g>
</g>
<!-- Node17 -->
<g id="Node000017" class="node">
<title>Node17</title>
<g id="a_Node000017"><a xlink:title=" ">
<polygon fill="#e0e0e0" stroke="#999999" points="1121,-19 1071,-19 1071,0 1121,0 1121,-19"/>
<text text-anchor="middle" x="1096" y="-7" font-family="Helvetica,sans-Serif" font-size="10.00">cstdint</text>
</a>
</g>
</g>
<!-- Node16&#45;&gt;Node17 -->
<g id="edge21_Node000016_Node000017" class="edge">
<title>Node16&#45;&gt;Node17</title>
<g id="a_edge21_Node000016_Node000017"><a xlink:title=" ">
<path fill="none" stroke="#63b8ff" d="M1517.48,-55.54C1408.9,-43.93 1211.45,-22.84 1131.26,-14.27"/>
<polygon fill="#63b8ff" stroke="#63b8ff" points="1131.51,-10.77 1121.19,-13.19 1130.76,-17.73 1131.51,-10.77"/>
</a>
</g>
</g>
<!-- Node18&#45;&gt;Node10 -->
<g id="edge23_Node000018_Node000010" class="edge">
<title>Node18&#45;&gt;Node10</title>
<g id="a_edge23_Node000018_Node000010"><a xlink:title=" ">
<path fill="none" stroke="#63b8ff" d="M1498.68,-302.47C1517.84,-281.17 1568.06,-225.38 1593.2,-197.44"/>
<polygon fill="#63b8ff" stroke="#63b8ff" points="1596.05,-199.51 1600.14,-189.73 1590.85,-194.82 1596.05,-199.51"/>
</a>
</g>
</g>
<!-- Node19&#45;&gt;Node17 -->
<g id="edge25_Node000019_Node000017" class="edge">
<title>Node19&#45;&gt;Node17</title>
<g id="a_edge25_Node000019_Node000017"><a xlink:title=" ">
<path fill="none" stroke="#63b8ff" d="M1229.18,-296.99C1276.85,-288.57 1327.14,-276.47 1345,-261 1373.82,-236.04 1376,-219.13 1376,-181 1376,-181 1376,-181 1376,-118.5 1376,-66.62 1206.58,-30.1 1131.31,-16.44"/>
<polygon fill="#63b8ff" stroke="#63b8ff" points="1131.8,-12.97 1121.34,-14.66 1130.57,-19.86 1131.8,-12.97"/>
</a>
</g>
</g>
<!-- Node20 -->
<g id="Node000020" class="node">
<title>Node20</title>
<g id="a_Node000020"><a xlink:title=" ">
<polygon fill="#e0e0e0" stroke="#999999" points="1067.5,-74 994.5,-74 994.5,-55 1067.5,-55 1067.5,-74"/>
<text text-anchor="middle" x="1031" y="-62" font-family="Helvetica,sans-Serif" font-size="10.00">string_view</text>
</a>
</g>
</g>
<!-- Node19&#45;&gt;Node20 -->
<g id="edge26_Node000019_Node000020" class="edge">
<title>Node19&#45;&gt;Node20</title>
<g id="a_edge26_Node000019_Node000020"><a xlink:title=" ">
<path fill="none" stroke="#63b8ff" d="M1129.49,-296.64C1131.71,-269.67 1133.8,-210.1 1115,-165 1100.47,-130.15 1069.16,-98.43 1049.13,-80.58"/>
<polygon fill="#63b8ff" stroke="#63b8ff" points="1051.42,-77.93 1041.58,-74.02 1046.83,-83.22 1051.42,-77.93"/>
</a>
</g>
</g>
<!-- Node21 -->
<g id="Node000021" class="node">
<title>Node21</title>
<g id="a_Node000021"><a xlink:href="helios_2core_2data_2__module_8ixx.html" target="_top" xlink:title="Aggregate module for helios::core::data namespace.">
<polygon fill="white" stroke="#666666" points="1034.5,-255.5 939.5,-255.5 939.5,-236.5 1034.5,-236.5 1034.5,-255.5"/>
<text text-anchor="middle" x="987" y="-243.5" font-family="Helvetica,sans-Serif" font-size="10.00">helios.core.data</text>
</a>
</g>
</g>
<!-- Node19&#45;&gt;Node21 -->
<g id="edge27_Node000019_Node000021" class="edge">
<title>Node19&#45;&gt;Node21</title>
<g id="a_edge27_Node000019_Node000021"><a xlink:title=" ">
<path fill="none" stroke="#63b8ff" d="M1097.06,-296.95C1072.55,-285.83 1038.61,-270.42 1014.92,-259.67"/>
<polygon fill="#63b8ff" stroke="#63b8ff" points="1016.32,-256.46 1005.76,-255.52 1013.42,-262.84 1016.32,-256.46"/>
</a>
</g>
</g>
<!-- Node23 -->
<g id="Node000023" class="node">
<title>Node23</title>
<g id="a_Node000023"><a xlink:href="types_8ixx.html" target="_top" xlink:title="Core type definitions and tag types for the helios engine.">
<polygon fill="white" stroke="#666666" points="976,-74 876,-74 876,-55 976,-55 976,-74"/>
<text text-anchor="middle" x="926" y="-62" font-family="Helvetica,sans-Serif" font-size="10.00">helios.core.types</text>
</a>
</g>
</g>
<!-- Node19&#45;&gt;Node23 -->
<g id="edge42_Node000019_Node000023" class="edge">
<title>Node19&#45;&gt;Node23</title>
<g id="a_edge42_Node000019_Node000023"><a xlink:title=" ">
<path fill="none" stroke="#63b8ff" d="M1039.34,-296.94C937.22,-278.69 779.08,-243.34 745,-195 721.74,-162.01 745.29,-134.97 777,-110 802.33,-90.05 836.45,-79.03 865.65,-72.95"/>
<polygon fill="#63b8ff" stroke="#63b8ff" points="866.6,-76.33 875.75,-71 865.27,-69.46 866.6,-76.33"/>
</a>
</g>
</g>
<!-- Node25 -->
<g id="Node000025" class="node">
<title>Node25</title>
<g id="a_Node000025"><a xlink:href="algorithms_8ixx.html" target="_top" xlink:title="Core algorithms and hash functions for the helios engine.">
<polygon fill="white" stroke="#666666" points="785.5,-74 660.5,-74 660.5,-55 785.5,-55 785.5,-74"/>
<text text-anchor="middle" x="723" y="-62" font-family="Helvetica,sans-Serif" font-size="10.00">helios.core.algorithms</text>
</a>
</g>
</g>
<!-- Node19&#45;&gt;Node25 -->
<g id="edge43_Node000019_Node000025" class="edge">
<title>Node19&#45;&gt;Node25</title>
<g id="a_edge43_Node000019_Node000025"><a xlink:title=" ">
<path fill="none" stroke="#63b8ff" d="M1021.48,-302.39C939.68,-294.41 834.42,-280.77 796,-261 759.67,-242.31 748.65,-232.31 732,-195 715.68,-158.43 717.68,-110.23 720.43,-84.17"/>
<polygon fill="#63b8ff" stroke="#63b8ff" points="723.92,-84.51 721.64,-74.16 716.97,-83.67 723.92,-84.51"/>
</a>
</g>
</g>
<!-- Node22 -->
<g id="Node000022" class="node">
<title>Node22</title>
<g id="a_Node000022"><a xlink:href="RuntimeHandle_8ixx.html" target="_top" xlink:title="Lightweight handle pairing a strong identifier with a runtime index.">
<polygon fill="white" stroke="#666666" points="1105.5,-195 966.5,-195 966.5,-165 1105.5,-165 1105.5,-195"/>
<text text-anchor="start" x="974.5" y="-183" font-family="Helvetica,sans-Serif" font-size="10.00">helios.core.data.Runtime</text>
<text text-anchor="middle" x="1036" y="-172" font-family="Helvetica,sans-Serif" font-size="10.00">Handle</text>
</a>
</g>
</g>
<!-- Node21&#45;&gt;Node22 -->
<g id="edge28_Node000021_Node000022" class="edge">
<title>Node21&#45;&gt;Node22</title>
<g id="a_edge28_Node000021_Node000022"><a xlink:title=" ">
<path fill="none" stroke="#63b8ff" d="M993.61,-236.37C1000.02,-227.99 1010.03,-214.93 1018.71,-203.59"/>
<polygon fill="#63b8ff" stroke="#63b8ff" points="1021.71,-205.43 1025.01,-195.36 1016.15,-201.17 1021.71,-205.43"/>
</a>
</g>
</g>
<!-- Node24 -->
<g id="Node000024" class="node">
<title>Node24</title>
<g id="a_Node000024"><a xlink:href="StrongId_8ixx.html" target="_top" xlink:title="Strongly&#45;typed identifier template.">
<polygon fill="white" stroke="#666666" points="992,-129 854,-129 854,-110 992,-110 992,-129"/>
<text text-anchor="middle" x="923" y="-117" font-family="Helvetica,sans-Serif" font-size="10.00">helios.core.data.StrongId</text>
</a>
</g>
</g>
<!-- Node21&#45;&gt;Node24 -->
<g id="edge39_Node000021_Node000024" class="edge">
<title>Node21&#45;&gt;Node24</title>
<g id="a_edge39_Node000021_Node000024"><a xlink:title=" ">
<path fill="none" stroke="#63b8ff" d="M981.38,-236.32C975.12,-226.48 964.82,-209.87 957,-195 947.1,-176.19 937.17,-153.94 930.62,-138.69"/>
<polygon fill="#63b8ff" stroke="#63b8ff" points="933.79,-137.21 926.67,-129.37 927.35,-139.94 933.79,-137.21"/>
</a>
</g>
</g>
<!-- Node26 -->
<g id="Node000026" class="node">
<title>Node26</title>
<g id="a_Node000026"><a xlink:href="TypeIndexer_8ixx.html" target="_top" xlink:title="Utility for generating unique type indices at runtime.">
<polygon fill="white" stroke="#666666" points="910,-189.5 754,-189.5 754,-170.5 910,-170.5 910,-189.5"/>
<text text-anchor="middle" x="832" y="-177.5" font-family="Helvetica,sans-Serif" font-size="10.00">helios.core.data.TypeIndexer</text>
</a>
</g>
</g>
<!-- Node21&#45;&gt;Node26 -->
<g id="edge40_Node000021_Node000026" class="edge">
<title>Node21&#45;&gt;Node26</title>
<g id="a_edge40_Node000021_Node000026"><a xlink:title=" ">
<path fill="none" stroke="#63b8ff" d="M966.1,-236.37C939.4,-225.35 893.01,-206.19 862.41,-193.55"/>
<polygon fill="#63b8ff" stroke="#63b8ff" points="863.65,-190.28 853.07,-189.7 860.98,-196.75 863.65,-190.28"/>
</a>
</g>
</g>
<!-- Node22&#45;&gt;Node17 -->
<g id="edge29_Node000022_Node000017" class="edge">
<title>Node22&#45;&gt;Node17</title>
<g id="a_edge29_Node000022_Node000017"><a xlink:title=" ">
<path fill="none" stroke="#63b8ff" d="M1041.94,-164.87C1050.27,-144.83 1065.66,-106.94 1077,-74 1082.16,-59.02 1087.26,-41.79 1090.88,-29.06"/>
<polygon fill="#63b8ff" stroke="#63b8ff" points="1094.31,-29.77 1093.64,-19.2 1087.57,-27.88 1094.31,-29.77"/>
</a>
</g>
</g>
<!-- Node22&#45;&gt;Node20 -->
<g id="edge30_Node000022_Node000020" class="edge">
<title>Node22&#45;&gt;Node20</title>
<g id="a_edge30_Node000022_Node000020"><a xlink:title=" ">
<path fill="none" stroke="#63b8ff" d="M1035.75,-164.99C1035.47,-151.04 1034.92,-129.03 1034,-110 1033.59,-101.48 1032.98,-92.06 1032.41,-84.09"/>
<polygon fill="#63b8ff" stroke="#63b8ff" points="1035.9,-83.74 1031.67,-74.03 1028.92,-84.26 1035.9,-83.74"/>
</a>
</g>
</g>
<!-- Node22&#45;&gt;Node23 -->
<g id="edge31_Node000022_Node000023" class="edge">
<title>Node22&#45;&gt;Node23</title>
<g id="a_edge31_Node000022_Node000023"><a xlink:title=" ">
<path fill="none" stroke="#63b8ff" d="M1031.52,-164.9C1026.18,-149.88 1016.05,-126.08 1001,-110 988.61,-96.76 971.4,-86.17 956.59,-78.65"/>
<polygon fill="#63b8ff" stroke="#63b8ff" points="957.8,-75.35 947.28,-74.15 954.76,-81.65 957.8,-75.35"/>
</a>
</g>
</g>
<!-- Node22&#45;&gt;Node24 -->
<g id="edge32_Node000022_Node000024" class="edge">
<title>Node22&#45;&gt;Node24</title>
<g id="a_edge32_Node000022_Node000024"><a xlink:title=" ">
<path fill="none" stroke="#63b8ff" d="M1008.93,-164.99C990.75,-155.58 966.93,-143.24 948.98,-133.95"/>
<polygon fill="#63b8ff" stroke="#63b8ff" points="950.18,-130.63 939.69,-129.14 946.96,-136.84 950.18,-130.63"/>
</a>
</g>
</g>
<!-- Node24&#45;&gt;Node17 -->
<g id="edge33_Node000024_Node000017" class="edge">
<title>Node24&#45;&gt;Node17</title>
<g id="a_edge33_Node000024_Node000017"><a xlink:title=" ">
<path fill="none" stroke="#63b8ff" d="M905.56,-109.83C883.56,-97.75 850.45,-75.07 867,-55 891.13,-25.73 1002.58,-15.47 1060.63,-12.07"/>
<polygon fill="#63b8ff" stroke="#63b8ff" points="1061.02,-15.55 1070.81,-11.51 1060.63,-8.56 1061.02,-15.55"/>
</a>
</g>
</g>
<!-- Node24&#45;&gt;Node20 -->
<g id="edge34_Node000024_Node000020" class="edge">
<title>Node24&#45;&gt;Node20</title>
<g id="a_edge34_Node000024_Node000020"><a xlink:title=" ">
<path fill="none" stroke="#63b8ff" d="M940.35,-109.98C957.57,-101.54 984.2,-88.47 1004.15,-78.68"/>
<polygon fill="#63b8ff" stroke="#63b8ff" points="1005.9,-81.72 1013.33,-74.17 1002.81,-75.43 1005.9,-81.72"/>
</a>
</g>
</g>
<!-- Node24&#45;&gt;Node23 -->
<g id="edge35_Node000024_Node000023" class="edge">
<title>Node24&#45;&gt;Node23</title>
<g id="a_edge35_Node000024_Node000023"><a xlink:title=" ">
<path fill="none" stroke="#63b8ff" d="M923.5,-109.75C923.89,-102.8 924.45,-92.85 924.95,-84.13"/>
<polygon fill="#63b8ff" stroke="#63b8ff" points="928.44,-84.27 925.51,-74.09 921.45,-83.88 928.44,-84.27"/>
</a>
</g>
</g>
<!-- Node24&#45;&gt;Node25 -->
<g id="edge36_Node000024_Node000025" class="edge">
<title>Node24&#45;&gt;Node25</title>
<g id="a_edge36_Node000024_Node000025"><a xlink:title=" ">
<path fill="none" stroke="#63b8ff" d="M890.87,-109.98C856.85,-100.97 803,-86.7 765.5,-76.76"/>
<polygon fill="#63b8ff" stroke="#63b8ff" points="765.95,-73.26 755.39,-74.08 764.16,-80.03 765.95,-73.26"/>
</a>
</g>
</g>
<!-- Node25&#45;&gt;Node3 -->
<g id="edge38_Node000025_Node000003" class="edge">
<title>Node25&#45;&gt;Node3</title>
<g id="a_edge38_Node000025_Node000003"><a xlink:title=" ">
<path fill="none" stroke="#63b8ff" d="M670.46,-54.98C602.11,-43.91 484.77,-24.89 428.27,-15.73"/>
<polygon fill="#63b8ff" stroke="#63b8ff" points="428.56,-12.23 418.13,-14.09 427.44,-19.14 428.56,-12.23"/>
</a>
</g>
</g>
<!-- Node25&#45;&gt;Node17 -->
<g id="edge37_Node000025_Node000017" class="edge">
<title>Node25&#45;&gt;Node17</title>
<g id="a_edge37_Node000025_Node000017"><a xlink:title=" ">
<path fill="none" stroke="#63b8ff" d="M782.93,-54.98C861.54,-43.81 996.97,-24.57 1060.79,-15.5"/>
<polygon fill="#63b8ff" stroke="#63b8ff" points="1061.35,-18.96 1070.76,-14.09 1060.37,-12.03 1061.35,-18.96"/>
</a>
</g>
</g>
<!-- Node27 -->
<g id="Node000027" class="node">
<title>Node27</title>
<g id="a_Node000027"><a xlink:title=" ">
<polygon fill="#e0e0e0" stroke="#999999" points="836,-129 786,-129 786,-110 836,-110 836,-129"/>
<text text-anchor="middle" x="811" y="-117" font-family="Helvetica,sans-Serif" font-size="10.00">atomic</text>
</a>
</g>
</g>
<!-- Node26&#45;&gt;Node27 -->
<g id="edge41_Node000026_Node000027" class="edge">
<title>Node26&#45;&gt;Node27</title>
<g id="a_edge41_Node000026_Node000027"><a xlink:title=" ">
<path fill="none" stroke="#63b8ff" d="M828.9,-170.37C825.92,-162.07 821.33,-149.28 817.54,-138.72"/>
<polygon fill="#63b8ff" stroke="#63b8ff" points="820.78,-137.4 814.11,-129.17 814.2,-139.76 820.78,-137.4"/>
</a>
</g>
</g>
<!-- Node28&#45;&gt;Node6 -->
<g id="edge45_Node000028_Node000006" class="edge">
<title>Node28&#45;&gt;Node6</title>
<g id="a_edge45_Node000028_Node000006"><a xlink:title=" ">
<path fill="none" stroke="#63b8ff" d="M714.16,-304.09C830.41,-292.13 1068.51,-267.63 1191.55,-254.97"/>
<polygon fill="#63b8ff" stroke="#63b8ff" points="1192.06,-258.43 1201.65,-253.93 1191.35,-251.47 1192.06,-258.43"/>
</a>
</g>
</g>
<!-- Node29 -->
<g id="Node000029" class="node">
<title>Node29</title>
<g id="a_Node000029"><a xlink:href="Logger_8ixx.html" target="_top" xlink:title="Simple synchronous logger with configurable output sinks.">
<polygon fill="white" stroke="#666666" points="223.5,-189.5 104.5,-189.5 104.5,-170.5 223.5,-170.5 223.5,-189.5"/>
<text text-anchor="middle" x="164" y="-177.5" font-family="Helvetica,sans-Serif" font-size="10.00">helios.util.log.Logger</text>
</a>
</g>
</g>
<!-- Node28&#45;&gt;Node29 -->
<g id="edge46_Node000028_Node000029" class="edge">
<title>Node28&#45;&gt;Node29</title>
<g id="a_edge46_Node000028_Node000029"><a xlink:title=" ">
<path fill="none" stroke="#63b8ff" d="M579.88,-309.51C507.58,-306.07 390.13,-295.15 295,-261 251.66,-245.44 207.15,-214.44 182.79,-195.93"/>
<polygon fill="#63b8ff" stroke="#63b8ff" points="184.82,-193.08 174.77,-189.73 180.54,-198.62 184.82,-193.08"/>
</a>
</g>
</g>
<!-- Node34 -->
<g id="Node000034" class="node">
<title>Node34</title>
<g id="a_Node000034"><a xlink:href="LogManager_8ixx.html" target="_top" xlink:title="Central manager for scoped loggers with configurable sinks.">
<polygon fill="white" stroke="#666666" points="450,-255.5 304,-255.5 304,-236.5 450,-236.5 450,-255.5"/>
<text text-anchor="middle" x="377" y="-243.5" font-family="Helvetica,sans-Serif" font-size="10.00">helios.util.log.LogManager</text>
</a>
</g>
</g>
<!-- Node28&#45;&gt;Node34 -->
<g id="edge54_Node000028_Node000034" class="edge">
<title>Node28&#45;&gt;Node34</title>
<g id="a_edge54_Node000028_Node000034"><a xlink:title=" ">
<path fill="none" stroke="#63b8ff" d="M587.75,-296.95C538.1,-285.19 468.25,-268.63 422.81,-257.86"/>
<polygon fill="#63b8ff" stroke="#63b8ff" points="423.47,-254.42 412.93,-255.52 421.86,-261.23 423.47,-254.42"/>
</a>
</g>
</g>
<!-- Node29&#45;&gt;Node2 -->
<g id="edge49_Node000029_Node000002" class="edge">
<title>Node29&#45;&gt;Node2</title>
<g id="a_edge49_Node000029_Node000002"><a xlink:title=" ">
<path fill="none" stroke="#63b8ff" d="M150.28,-170.37C135.3,-160.95 111.11,-145.73 93.38,-134.58"/>
<polygon fill="#63b8ff" stroke="#63b8ff" points="95.11,-131.53 84.78,-129.17 91.38,-137.45 95.11,-131.53"/>
</a>
</g>
</g>
<!-- Node29&#45;&gt;Node3 -->
<g id="edge47_Node000029_Node000003" class="edge">
<title>Node29&#45;&gt;Node3</title>
<g id="a_edge47_Node000029_Node000003"><a xlink:title=" ">
<path fill="none" stroke="#63b8ff" d="M170.36,-170.12C180.69,-156.14 202.25,-128.66 225,-110 270.76,-72.47 332.38,-40.39 367.79,-23.42"/>
<polygon fill="#63b8ff" stroke="#63b8ff" points="369.5,-26.48 377.05,-19.04 366.51,-20.15 369.5,-26.48"/>
</a>
</g>
</g>
<!-- Node30 -->
<g id="Node000030" class="node">
<title>Node30</title>
<g id="a_Node000030"><a xlink:title=" ">
<polygon fill="#e0e0e0" stroke="#999999" points="281.5,-129 234.5,-129 234.5,-110 281.5,-110 281.5,-129"/>
<text text-anchor="middle" x="258" y="-117" font-family="Helvetica,sans-Serif" font-size="10.00">vector</text>
</a>
</g>
</g>
<!-- Node29&#45;&gt;Node30 -->
<g id="edge48_Node000029_Node000030" class="edge">
<title>Node29&#45;&gt;Node30</title>
<g id="a_edge48_Node000029_Node000030"><a xlink:title=" ">
<path fill="none" stroke="#63b8ff" d="M177.87,-170.37C193,-160.95 217.46,-145.73 235.38,-134.58"/>
<polygon fill="#63b8ff" stroke="#63b8ff" points="237.43,-137.42 244.07,-129.17 233.73,-131.48 237.43,-137.42"/>
</a>
</g>
</g>
<!-- Node31 -->
<g id="Node000031" class="node">
<title>Node31</title>
<g id="a_Node000031"><a xlink:title=" ">
<polygon fill="#e0e0e0" stroke="#999999" points="361,-129 313,-129 313,-110 361,-110 361,-129"/>
<text text-anchor="middle" x="337" y="-117" font-family="Helvetica,sans-Serif" font-size="10.00">mutex</text>
</a>
</g>
</g>
<!-- Node29&#45;&gt;Node31 -->
<g id="edge50_Node000029_Node000031" class="edge">
<title>Node29&#45;&gt;Node31</title>
<g id="a_edge50_Node000029_Node000031"><a xlink:title=" ">
<path fill="none" stroke="#63b8ff" d="M189.16,-170.49C219.22,-160.33 269.65,-143.27 303.13,-131.95"/>
<polygon fill="#63b8ff" stroke="#63b8ff" points="304.58,-135.16 312.93,-128.64 302.34,-128.53 304.58,-135.16"/>
</a>
</g>
</g>
<!-- Node32 -->
<g id="Node000032" class="node">
<title>Node32</title>
<g id="a_Node000032"><a xlink:title=" ">
<polygon fill="#e0e0e0" stroke="#999999" points="178,-129 118,-129 118,-110 178,-110 178,-129"/>
<text text-anchor="middle" x="148" y="-117" font-family="Helvetica,sans-Serif" font-size="10.00">iostream</text>
</a>
</g>
</g>
<!-- Node29&#45;&gt;Node32 -->
<g id="edge51_Node000029_Node000032" class="edge">
<title>Node29&#45;&gt;Node32</title>
<g id="a_edge51_Node000029_Node000032"><a xlink:title=" ">
<path fill="none" stroke="#63b8ff" d="M161.64,-170.37C159.39,-162.16 155.94,-149.54 153.07,-139.05"/>
<polygon fill="#63b8ff" stroke="#63b8ff" points="156.38,-137.89 150.37,-129.17 149.63,-139.74 156.38,-137.89"/>
</a>
</g>
</g>
<!-- Node33 -->
<g id="Node000033" class="node">
<title>Node33</title>
<g id="a_Node000033"><a xlink:href="LogSink_8ixx.html" target="_top" xlink:title="Abstract interface for log output destinations.">
<polygon fill="white" stroke="#666666" points="548,-129 424,-129 424,-110 548,-110 548,-129"/>
<text text-anchor="middle" x="486" y="-117" font-family="Helvetica,sans-Serif" font-size="10.00">helios.util.log.LogSink</text>
</a>
</g>
</g>
<!-- Node29&#45;&gt;Node33 -->
<g id="edge52_Node000029_Node000033" class="edge">
<title>Node29&#45;&gt;Node33</title>
<g id="a_edge52_Node000029_Node000033"><a xlink:title=" ">
<path fill="none" stroke="#63b8ff" d="M210.82,-170.49C268.65,-159.99 366.97,-142.12 429.1,-130.84"/>
<polygon fill="#63b8ff" stroke="#63b8ff" points="429.91,-134.25 439.12,-129.02 428.66,-127.36 429.91,-134.25"/>
</a>
</g>
</g>
<!-- Node33&#45;&gt;Node3 -->
<g id="edge53_Node000033_Node000003" class="edge">
<title>Node33&#45;&gt;Node3</title>
<g id="a_edge53_Node000033_Node000003"><a xlink:title=" ">
<path fill="none" stroke="#63b8ff" d="M478.63,-109.66C463.6,-91.61 429.15,-50.28 409.81,-27.08"/>
<polygon fill="#63b8ff" stroke="#63b8ff" points="412.31,-24.6 403.22,-19.16 406.93,-29.08 412.31,-24.6"/>
</a>
</g>
</g>
<!-- Node34&#45;&gt;Node2 -->
<g id="edge58_Node000034_Node000002" class="edge">
<title>Node34&#45;&gt;Node2</title>
<g id="a_edge58_Node000034_Node000002"><a xlink:title=" ">
<path fill="none" stroke="#63b8ff" d="M303.81,-240.49C230.86,-234.55 125.44,-221.56 95,-195 79.11,-181.14 73.66,-156.7 71.84,-139.61"/>
<polygon fill="#63b8ff" stroke="#63b8ff" points="75.3,-138.89 71.07,-129.17 68.32,-139.4 75.3,-138.89"/>
</a>
</g>
</g>
<!-- Node34&#45;&gt;Node3 -->
<g id="edge55_Node000034_Node000003" class="edge">
<title>Node34&#45;&gt;Node3</title>
<g id="a_edge55_Node000034_Node000003"><a xlink:title=" ">
<path fill="none" stroke="#63b8ff" d="M377.7,-236.38C380.44,-202.48 390.54,-77.93 394.44,-29.72"/>
<polygon fill="#63b8ff" stroke="#63b8ff" points="397.96,-29.7 395.27,-19.45 390.98,-29.14 397.96,-29.7"/>
</a>
</g>
</g>
<!-- Node34&#45;&gt;Node29 -->
<g id="edge62_Node000034_Node000029" class="edge">
<title>Node34&#45;&gt;Node29</title>
<g id="a_edge62_Node000034_Node000029"><a xlink:title=" ">
<path fill="none" stroke="#63b8ff" d="M348.27,-236.37C310.53,-225.03 244.14,-205.08 202.2,-192.48"/>
<polygon fill="#63b8ff" stroke="#63b8ff" points="203.19,-189.12 192.61,-189.6 201.18,-195.83 203.19,-189.12"/>
</a>
</g>
</g>
<!-- Node34&#45;&gt;Node30 -->
<g id="edge60_Node000034_Node000030" class="edge">
<title>Node34&#45;&gt;Node30</title>
<g id="a_edge60_Node000034_Node000030"><a xlink:title=" ">
<path fill="none" stroke="#63b8ff" d="M338.73,-236.45C315.59,-229.27 287.47,-216.6 271,-195 258.96,-179.2 256.61,-156.06 256.7,-139.77"/>
<polygon fill="#63b8ff" stroke="#63b8ff" points="260.22,-139.45 257.1,-129.32 253.22,-139.18 260.22,-139.45"/>
</a>
</g>
</g>
<!-- Node34&#45;&gt;Node31 -->
<g id="edge59_Node000034_Node000031" class="edge">
<title>Node34&#45;&gt;Node31</title>
<g id="a_edge59_Node000034_Node000031"><a xlink:title=" ">
<path fill="none" stroke="#63b8ff" d="M374.25,-236.44C367.83,-216.45 351.72,-166.32 342.94,-138.98"/>
<polygon fill="#63b8ff" stroke="#63b8ff" points="346.16,-137.57 339.77,-129.12 339.5,-139.71 346.16,-137.57"/>
</a>
</g>
</g>
<!-- Node34&#45;&gt;Node33 -->
<g id="edge63_Node000034_Node000033" class="edge">
<title>Node34&#45;&gt;Node33</title>
<g id="a_edge63_Node000034_Node000033"><a xlink:title=" ">
<path fill="none" stroke="#63b8ff" d="M384.49,-236.44C402.46,-215.92 448.25,-163.62 471.69,-136.84"/>
<polygon fill="#63b8ff" stroke="#63b8ff" points="474.5,-138.95 478.46,-129.12 469.23,-134.34 474.5,-138.95"/>
</a>
</g>
</g>
<!-- Node35 -->
<g id="Node000035" class="node">
<title>Node35</title>
<g id="a_Node000035"><a xlink:title=" ">
<polygon fill="#e0e0e0" stroke="#999999" points="555.5,-189.5 462.5,-189.5 462.5,-170.5 555.5,-170.5 555.5,-189.5"/>
<text text-anchor="middle" x="509" y="-177.5" font-family="Helvetica,sans-Serif" font-size="10.00">unordered_map</text>
</a>
</g>
</g>
<!-- Node34&#45;&gt;Node35 -->
<g id="edge56_Node000034_Node000035" class="edge">
<title>Node34&#45;&gt;Node35</title>
<g id="a_edge56_Node000034_Node000035"><a xlink:title=" ">
<path fill="none" stroke="#63b8ff" d="M394.8,-236.37C417.14,-225.54 455.68,-206.85 481.74,-194.22"/>
<polygon fill="#63b8ff" stroke="#63b8ff" points="483.59,-197.21 491.06,-189.7 480.53,-190.91 483.59,-197.21"/>
</a>
</g>
</g>
<!-- Node36 -->
<g id="Node000036" class="node">
<title>Node36</title>
<g id="a_Node000036"><a xlink:title=" ">
<polygon fill="#e0e0e0" stroke="#999999" points="660,-189.5 574,-189.5 574,-170.5 660,-170.5 660,-189.5"/>
<text text-anchor="middle" x="617" y="-177.5" font-family="Helvetica,sans-Serif" font-size="10.00">unordered_set</text>
</a>
</g>
</g>
<!-- Node34&#45;&gt;Node36 -->
<g id="edge57_Node000034_Node000036" class="edge">
<title>Node34&#45;&gt;Node36</title>
<g id="a_edge57_Node000034_Node000036"><a xlink:title=" ">
<path fill="none" stroke="#63b8ff" d="M409.37,-236.37C452.16,-224.96 527.65,-204.83 574.85,-192.24"/>
<polygon fill="#63b8ff" stroke="#63b8ff" points="576,-195.56 584.76,-189.6 574.2,-188.79 576,-195.56"/>
</a>
</g>
</g>
<!-- Node37 -->
<g id="Node000037" class="node">
<title>Node37</title>
<g id="a_Node000037"><a xlink:title=" ">
<polygon fill="#e0e0e0" stroke="#999999" points="330,-189.5 280,-189.5 280,-170.5 330,-170.5 330,-189.5"/>
<text text-anchor="middle" x="305" y="-177.5" font-family="Helvetica,sans-Serif" font-size="10.00">cstring</text>
</a>
</g>
</g>
<!-- Node34&#45;&gt;Node37 -->
<g id="edge61_Node000034_Node000037" class="edge">
<title>Node34&#45;&gt;Node37</title>
<g id="a_edge61_Node000034_Node000037"><a xlink:title=" ">
<path fill="none" stroke="#63b8ff" d="M367.29,-236.37C355.87,-226.21 336.68,-209.16 322.61,-196.65"/>
<polygon fill="#63b8ff" stroke="#63b8ff" points="324.82,-193.93 315.02,-189.91 320.17,-199.16 324.82,-193.93"/>
</a>
</g>
</g>
</g>
</svg>

<g id="navigator" transform="translate(0 0)" fill="#404254">
  <rect fill="#f2f5e9" fill-opacity="0.5" stroke="#606060" stroke-width=".5" x="0" y="0" width="60" height="60"/>
  <use id="zoomplus" xlink:href="#zoomPlus" x="17" y="9" onmousedown="handleZoom(evt,'in')"/>
  <use id="zoomminus" xlink:href="#zoomMin" x="42" y="9" onmousedown="handleZoom(evt,'out')"/>
  <use id="reset" xlink:href="#resetDef" x="30" y="36" onmousedown="handleReset()"/>
   <use id="arrowup" xlink:href="#arrowUp" x="0" y="0" onmousedown="handlePan(0,-1)"/>
  <use id="arrowright" xlink:href="#arrowRight" x="0" y="0" onmousedown="handlePan(1,0)"/>
  <use id="arrowdown" xlink:href="#arrowDown" x="0" y="0" onmousedown="handlePan(0,1)"/>
  <use id="arrowleft" xlink:href="#arrowLeft" x="0" y="0" onmousedown="handlePan(-1,0)"/>
</g>
<svg viewBox="0 0 15 15" width="100%" height="30px" preserveAspectRatio="xMaxYMin meet">
 <g id="arrow_out" transform="scale(0.3 0.3)">
  <a xlink:href="TextShaderProperties_8ixx__incl_org.svg" target="_base">
   <rect id="button" ry="5" rx="5" y="6" x="6" height="38" width="38"
        fill="#f2f5e9" fill-opacity="0.5" stroke="#606060" stroke-width="1.0"/>
   <path id="arrow"
     d="M 11.500037,31.436501 C 11.940474,20.09759 22.043105,11.32322 32.158766,21.979434 L 37.068811,17.246167 C 37.068811,17.246167 37.088388,32 37.088388,32 L 22.160133,31.978069 C 22.160133,31.978069 26.997745,27.140456 26.997745,27.140456 C 18.528582,18.264221 13.291696,25.230495 11.500037,31.436501 z"
     style="fill:#404040;"/>
  </a>
 </g>
</svg>

<style type='text/css'>
<![CDATA[
[data-mouse-over-selected='false'] { opacity: 0.7; }
[data-mouse-over-selected='true']  { opacity: 1.0; }
]]>
</style>
<script type="application/ecmascript"><![CDATA[
document.addEventListener('DOMContentLoaded', (event) => {
  highlightEdges();
  highlightAdjacentNodes();
});
]]></script>
</svg>
