<?xml version="1.0" encoding="UTF-8" standalone="no"?>
<!DOCTYPE svg PUBLIC "-//W3C//DTD SVG 1.1//EN"
 "http://www.w3.org/Graphics/SVG/1.1/DTD/svg11.dtd">
<!-- Generated by graphviz version 2.43.0 (0)
 -->
<!-- Title: TextMesh.ixx Pages: 1 -->
<svg width="2085pt" height="401pt"
 viewBox="0.00 0.00 2085.00 401.00" xmlns="http://www.w3.org/2000/svg" xmlns:xlink="http://www.w3.org/1999/xlink">
<g id="graph0" class="graph" transform="scale(1 1) rotate(0) translate(4 397)">
<title>TextMesh.ixx</title>
<!-- Node1 -->
<g id="Node000001" class="node">
<title>Node1</title>
<g id="a_Node000001"><a xlink:title="Properties for positioning and styling text during rendering.">
<polygon fill="#999999" stroke="#666666" points="1353.5,-393 1272.5,-393 1272.5,-374 1353.5,-374 1353.5,-393"/>
<text text-anchor="middle" x="1313" y="-381" font-family="Helvetica,sans-Serif" font-size="10.00">TextMesh.ixx</text>
</a>
</g>
</g>
<!-- Node2 -->
<g id="Node000002" class="node">
<title>Node2</title>
<g id="a_Node000002"><a xlink:title=" ">
<polygon fill="#e0e0e0" stroke="#999999" points="115,-74 57,-74 57,-55 115,-55 115,-74"/>
<text text-anchor="middle" x="86" y="-62" font-family="Helvetica,sans-Serif" font-size="10.00">memory</text>
</a>
</g>
</g>
<!-- Node1&#45;&gt;Node2 -->
<g id="edge1_Node000001_Node000002" class="edge">
<title>Node1&#45;&gt;Node2</title>
<g id="a_edge1_Node000001_Node000002"><a xlink:title=" ">
<path fill="none" stroke="#63b8ff" d="M1272.38,-382.89C1054.9,-384.48 38,-385.12 38,-258 38,-258 38,-258 38,-190 38,-149.46 60.43,-106.17 74.62,-82.83"/>
<polygon fill="#63b8ff" stroke="#63b8ff" points="77.75,-84.44 80.11,-74.12 71.82,-80.71 77.75,-84.44"/>
</a>
</g>
</g>
<!-- Node3 -->
<g id="Node000003" class="node">
<title>Node3</title>
<g id="a_Node000003"><a xlink:title=" ">
<polygon fill="#e0e0e0" stroke="#999999" points="1648,-266.5 1608,-266.5 1608,-247.5 1648,-247.5 1648,-266.5"/>
<text text-anchor="middle" x="1628" y="-254.5" font-family="Helvetica,sans-Serif" font-size="10.00">span</text>
</a>
</g>
</g>
<!-- Node1&#45;&gt;Node3 -->
<g id="edge2_Node000001_Node000003" class="edge">
<title>Node1&#45;&gt;Node3</title>
<g id="a_edge2_Node000001_Node000003"><a xlink:title=" ">
<path fill="none" stroke="#63b8ff" d="M1350.21,-373.98C1382.23,-366.16 1429.38,-353.46 1469,-338 1518.61,-318.64 1573.49,-289.09 1604.06,-271.84"/>
<polygon fill="#63b8ff" stroke="#63b8ff" points="1606.13,-274.69 1613.09,-266.7 1602.67,-268.61 1606.13,-274.69"/>
</a>
</g>
</g>
<!-- Node4 -->
<g id="Node000004" class="node">
<title>Node4</title>
<g id="a_Node000004"><a xlink:title=" ">
<polygon fill="#e0e0e0" stroke="#999999" points="544,-19 500,-19 500,0 544,0 544,-19"/>
<text text-anchor="middle" x="522" y="-7" font-family="Helvetica,sans-Serif" font-size="10.00">string</text>
</a>
</g>
</g>
<!-- Node1&#45;&gt;Node4 -->
<g id="edge3_Node000001_Node000004" class="edge">
<title>Node1&#45;&gt;Node4</title>
<g id="a_edge3_Node000001_Node000004"><a xlink:title=" ">
<path fill="none" stroke="#63b8ff" d="M1272.26,-382.49C1073.86,-382.27 213.75,-378.91 102,-338 47.9,-318.19 0,-315.61 0,-258 0,-258 0,-258 0,-124 0,-86.64 15.74,-73.83 48,-55 123.18,-11.12 395.53,-9.32 489.7,-10.06"/>
<polygon fill="#63b8ff" stroke="#63b8ff" points="489.74,-13.56 499.77,-10.16 489.81,-6.56 489.74,-13.56"/>
</a>
</g>
</g>
<!-- Node5 -->
<g id="Node000005" class="node">
<title>Node5</title>
<g id="a_Node000005"><a xlink:title=" ">
<polygon fill="#e0e0e0" stroke="#999999" points="1730,-266.5 1666,-266.5 1666,-247.5 1730,-247.5 1730,-266.5"/>
<text text-anchor="middle" x="1698" y="-254.5" font-family="Helvetica,sans-Serif" font-size="10.00">algorithm</text>
</a>
</g>
</g>
<!-- Node1&#45;&gt;Node5 -->
<g id="edge4_Node000001_Node000005" class="edge">
<title>Node1&#45;&gt;Node5</title>
<g id="a_edge4_Node000001_Node000005"><a xlink:title=" ">
<path fill="none" stroke="#63b8ff" d="M1353.51,-376.14C1395.14,-369.04 1461.52,-356.11 1517,-338 1574.32,-319.29 1638.11,-288.64 1672.57,-271.21"/>
<polygon fill="#63b8ff" stroke="#63b8ff" points="1674.16,-274.32 1681.48,-266.66 1670.98,-268.09 1674.16,-274.32"/>
</a>
</g>
</g>
<!-- Node6 -->
<g id="Node000006" class="node">
<title>Node6</title>
<g id="a_Node000006"><a xlink:title=" ">
<polygon fill="#e0e0e0" stroke="#999999" points="1793.5,-266.5 1748.5,-266.5 1748.5,-247.5 1793.5,-247.5 1793.5,-266.5"/>
<text text-anchor="middle" x="1771" y="-254.5" font-family="Helvetica,sans-Serif" font-size="10.00">utility</text>
</a>
</g>
</g>
<!-- Node1&#45;&gt;Node6 -->
<g id="edge5_Node000001_Node000006" class="edge">
<title>Node1&#45;&gt;Node6</title>
<g id="a_edge5_Node000001_Node000006"><a xlink:title=" ">
<path fill="none" stroke="#63b8ff" d="M1353.9,-377.93C1404.9,-371.65 1494.46,-358.73 1569,-338 1647.09,-316.29 1664.08,-302.92 1739,-272 1740.17,-271.52 1741.36,-271.02 1742.55,-270.52"/>
<polygon fill="#63b8ff" stroke="#63b8ff" points="1743.95,-273.73 1751.77,-266.57 1741.2,-267.29 1743.95,-273.73"/>
</a>
</g>
</g>
<!-- Node7 -->
<g id="Node000007" class="node">
<title>Node7</title>
<g id="a_Node000007"><a xlink:href="UniformSemantics_8ixx.html" target="_top" xlink:title="Definitions of uniform semantics used by shaders.">
<polygon fill="white" stroke="#666666" points="1092,-140 958,-140 958,-110 1092,-110 1092,-140"/>
<text text-anchor="start" x="966" y="-128" font-family="Helvetica,sans-Serif" font-size="10.00">helios.rendering.shader.</text>
<text text-anchor="middle" x="1025" y="-117" font-family="Helvetica,sans-Serif" font-size="10.00">UniformSemantics</text>
</a>
</g>
</g>
<!-- Node1&#45;&gt;Node7 -->
<g id="edge6_Node000001_Node000007" class="edge">
<title>Node1&#45;&gt;Node7</title>
<g id="a_edge6_Node000001_Node000007"><a xlink:title=" ">
<path fill="none" stroke="#63b8ff" d="M1272.49,-380.6C1208.57,-375.11 1086.6,-353.85 1038,-272 1015.55,-234.19 1017.48,-180.91 1021.11,-150.27"/>
<polygon fill="#63b8ff" stroke="#63b8ff" points="1024.62,-150.45 1022.48,-140.07 1017.68,-149.52 1024.62,-150.45"/>
</a>
</g>
</g>
<!-- Node8 -->
<g id="Node000008" class="node">
<title>Node8</title>
<g id="a_Node000008"><a xlink:href="helios_2math_2__module_8ixx.html" target="_top" xlink:title="Module exports for mathematical types and utilities.">
<polygon fill="white" stroke="#666666" points="1692,-134.5 1618,-134.5 1618,-115.5 1692,-115.5 1692,-134.5"/>
<text text-anchor="middle" x="1655" y="-122.5" font-family="Helvetica,sans-Serif" font-size="10.00">helios.math</text>
</a>
</g>
</g>
<!-- Node1&#45;&gt;Node8 -->
<g id="edge7_Node000001_Node000008" class="edge">
<title>Node1&#45;&gt;Node8</title>
<g id="a_edge7_Node000001_Node000008"><a xlink:title=" ">
<path fill="none" stroke="#63b8ff" d="M1353.63,-380.59C1443.36,-375.98 1655.81,-362.74 1723,-338 1771.93,-319.98 1795.61,-318.09 1820,-272 1853.57,-208.56 1749.28,-159.68 1691.19,-138.1"/>
<polygon fill="#63b8ff" stroke="#63b8ff" points="1692.2,-134.74 1681.61,-134.63 1689.82,-141.33 1692.2,-134.74"/>
</a>
</g>
</g>
<!-- Node16 -->
<g id="Node000016" class="node">
<title>Node16</title>
<g id="a_Node000016"><a xlink:href="Colors_8ixx.html" target="_top" xlink:title="Standard color constants as vec4f (RGBA).">
<polygon fill="white" stroke="#666666" points="1590,-266.5 1492,-266.5 1492,-247.5 1590,-247.5 1590,-266.5"/>
<text text-anchor="middle" x="1541" y="-254.5" font-family="Helvetica,sans-Serif" font-size="10.00">helios.util.Colors</text>
</a>
</g>
</g>
<!-- Node1&#45;&gt;Node16 -->
<g id="edge18_Node000001_Node000016" class="edge">
<title>Node1&#45;&gt;Node16</title>
<g id="a_edge18_Node000001_Node000016"><a xlink:title=" ">
<path fill="none" stroke="#63b8ff" d="M1342.07,-373.95C1366.55,-366.19 1402.1,-353.59 1431,-338 1465.89,-319.18 1502.32,-290.64 1523.27,-273.22"/>
<polygon fill="#63b8ff" stroke="#63b8ff" points="1525.61,-275.83 1531,-266.71 1521.1,-270.48 1525.61,-275.83"/>
</a>
</g>
</g>
<!-- Node17 -->
<g id="Node000017" class="node">
<title>Node17</title>
<g id="a_Node000017"><a xlink:href="FontId_8ixx.html" target="_top" xlink:title="Strongly&#45;typed identifier for font families.">
<polygon fill="white" stroke="#666666" points="1298,-206 1164,-206 1164,-176 1298,-176 1298,-206"/>
<text text-anchor="start" x="1172" y="-194" font-family="Helvetica,sans-Serif" font-size="10.00">helios.engine.core.data.</text>
<text text-anchor="middle" x="1231" y="-183" font-family="Helvetica,sans-Serif" font-size="10.00">FontId</text>
</a>
</g>
</g>
<!-- Node1&#45;&gt;Node17 -->
<g id="edge20_Node000001_Node000017" class="edge">
<title>Node1&#45;&gt;Node17</title>
<g id="a_edge20_Node000001_Node000017"><a xlink:title=" ">
<path fill="none" stroke="#63b8ff" d="M1273.4,-373.95C1224.82,-361.11 1144.55,-331.69 1109,-272 1102.18,-260.54 1101.57,-253.07 1109,-242 1119.75,-225.97 1136.65,-215.08 1154.49,-207.68"/>
<polygon fill="#63b8ff" stroke="#63b8ff" points="1155.76,-210.94 1163.87,-204.12 1153.28,-204.39 1155.76,-210.94"/>
</a>
</g>
</g>
<!-- Node20 -->
<g id="Node000020" class="node">
<title>Node20</title>
<g id="a_Node000020"><a xlink:href="Shader_8ixx.html" target="_top" xlink:title="Abstraction for a compiled shader program.">
<polygon fill="white" stroke="#666666" points="948,-272 814,-272 814,-242 948,-242 948,-272"/>
<text text-anchor="start" x="822" y="-260" font-family="Helvetica,sans-Serif" font-size="10.00">helios.rendering.shader.</text>
<text text-anchor="middle" x="881" y="-249" font-family="Helvetica,sans-Serif" font-size="10.00">Shader</text>
</a>
</g>
</g>
<!-- Node1&#45;&gt;Node20 -->
<g id="edge26_Node000001_Node000020" class="edge">
<title>Node1&#45;&gt;Node20</title>
<g id="a_edge26_Node000001_Node000020"><a xlink:title=" ">
<path fill="none" stroke="#63b8ff" d="M1272.19,-380.6C1191.77,-376.33 1015.93,-364.23 962,-338 934.87,-324.81 911.3,-298.91 896.69,-280.15"/>
<polygon fill="#63b8ff" stroke="#63b8ff" points="899.44,-277.98 890.62,-272.1 893.84,-282.19 899.44,-277.98"/>
</a>
</g>
</g>
<!-- Node21 -->
<g id="Node000021" class="node">
<title>Node21</title>
<g id="a_Node000021"><a xlink:href="UniformValueMap_8ixx.html" target="_top" xlink:title="Mapping of uniform names to values used by shader programs.">
<polygon fill="white" stroke="#666666" points="948,-206 814,-206 814,-176 948,-176 948,-206"/>
<text text-anchor="start" x="822" y="-194" font-family="Helvetica,sans-Serif" font-size="10.00">helios.rendering.shader.</text>
<text text-anchor="middle" x="881" y="-183" font-family="Helvetica,sans-Serif" font-size="10.00">UniformValueMap</text>
</a>
</g>
</g>
<!-- Node1&#45;&gt;Node21 -->
<g id="edge70_Node000001_Node000021" class="edge">
<title>Node1&#45;&gt;Node21</title>
<g id="a_edge70_Node000001_Node000021"><a xlink:title=" ">
<path fill="none" stroke="#63b8ff" d="M1272.28,-381.5C1197.51,-378.9 1042.15,-369.74 1000,-338 962.65,-309.88 987.3,-277.61 957,-242 946.61,-229.78 932.5,-219.39 919.26,-211.3"/>
<polygon fill="#63b8ff" stroke="#63b8ff" points="920.69,-208.08 910.29,-206.07 917.16,-214.13 920.69,-208.08"/>
</a>
</g>
</g>
<!-- Node34 -->
<g id="Node000034" class="node">
<title>Node34</title>
<g id="a_Node000034"><a xlink:href="FontResourceProvider_8ixx.html" target="_top" xlink:title="Abstract interface for loading and providing font glyph data.">
<polygon fill="white" stroke="#666666" points="1260,-272 1118,-272 1118,-242 1260,-242 1260,-272"/>
<text text-anchor="start" x="1126" y="-260" font-family="Helvetica,sans-Serif" font-size="10.00">helios.rendering.text.Font</text>
<text text-anchor="middle" x="1189" y="-249" font-family="Helvetica,sans-Serif" font-size="10.00">ResourceProvider</text>
</a>
</g>
</g>
<!-- Node1&#45;&gt;Node34 -->
<g id="edge51_Node000001_Node000034" class="edge">
<title>Node1&#45;&gt;Node34</title>
<g id="a_edge51_Node000001_Node000034"><a xlink:title=" ">
<path fill="none" stroke="#63b8ff" d="M1304.48,-373.94C1285.27,-354.66 1238.13,-307.33 1210.38,-279.46"/>
<polygon fill="#63b8ff" stroke="#63b8ff" points="1212.64,-276.78 1203.1,-272.16 1207.68,-281.72 1212.64,-276.78"/>
</a>
</g>
</g>
<!-- Node35 -->
<g id="Node000035" class="node">
<title>Node35</title>
<g id="a_Node000035"><a xlink:href="Glyph_8ixx.html" target="_top" xlink:title="Glyph data structure for text rendering.">
<polygon fill="white" stroke="#666666" points="1502.5,-200.5 1353.5,-200.5 1353.5,-181.5 1502.5,-181.5 1502.5,-200.5"/>
<text text-anchor="middle" x="1428" y="-188.5" font-family="Helvetica,sans-Serif" font-size="10.00">helios.rendering.text.Glyph</text>
</a>
</g>
</g>
<!-- Node1&#45;&gt;Node35 -->
<g id="edge71_Node000001_Node000035" class="edge">
<title>Node1&#45;&gt;Node35</title>
<g id="a_edge71_Node000001_Node000035"><a xlink:title=" ">
<path fill="none" stroke="#63b8ff" d="M1353.86,-380.07C1461.97,-372.67 1750.7,-346.18 1802,-272 1809.58,-261.03 1810.78,-252.03 1802,-242 1783.24,-220.56 1617.28,-205.17 1512.84,-197.51"/>
<polygon fill="#63b8ff" stroke="#63b8ff" points="1512.84,-194 1502.61,-196.77 1512.33,-200.98 1512.84,-194"/>
</a>
</g>
</g>
<!-- Node36 -->
<g id="Node000036" class="node">
<title>Node36</title>
<g id="a_Node000036"><a xlink:href="TypeSetter_8ixx.html" target="_top" xlink:title="Text layout engine for computing glyph positions and bounding boxes.">
<polygon fill="white" stroke="#666666" points="1422.5,-338 1279.5,-338 1279.5,-308 1422.5,-308 1422.5,-338"/>
<text text-anchor="start" x="1287.5" y="-326" font-family="Helvetica,sans-Serif" font-size="10.00">helios.rendering.text.Type</text>
<text text-anchor="middle" x="1351" y="-315" font-family="Helvetica,sans-Serif" font-size="10.00">Setter</text>
</a>
</g>
</g>
<!-- Node1&#45;&gt;Node36 -->
<g id="edge56_Node000001_Node000036" class="edge">
<title>Node1&#45;&gt;Node36</title>
<g id="a_edge56_Node000001_Node000036"><a xlink:title=" ">
<path fill="none" stroke="#63b8ff" d="M1318.61,-373.87C1323.24,-366.74 1330.03,-356.28 1336.2,-346.79"/>
<polygon fill="#63b8ff" stroke="#63b8ff" points="1339.32,-348.41 1341.83,-338.11 1333.45,-344.59 1339.32,-348.41"/>
</a>
</g>
</g>
<!-- Node9 -->
<g id="Node000009" class="node">
<title>Node9</title>
<g id="a_Node000009"><a xlink:href="helios_2math_2concepts_2__module_8ixx.html" target="_top" xlink:title="Math concepts module exports.">
<polygon fill="white" stroke="#666666" points="1615.5,-74 1494.5,-74 1494.5,-55 1615.5,-55 1615.5,-74"/>
<text text-anchor="middle" x="1555" y="-62" font-family="Helvetica,sans-Serif" font-size="10.00">helios.math.concepts</text>
</a>
</g>
</g>
<!-- Node8&#45;&gt;Node9 -->
<g id="edge8_Node000008_Node000009" class="edge">
<title>Node8&#45;&gt;Node9</title>
<g id="a_edge8_Node000008_Node000009"><a xlink:title=" ">
<path fill="none" stroke="#63b8ff" d="M1640.24,-115.37C1624,-105.86 1597.65,-90.45 1578.54,-79.27"/>
<polygon fill="#63b8ff" stroke="#63b8ff" points="1580.21,-76.2 1569.82,-74.17 1576.68,-82.24 1580.21,-76.2"/>
</a>
</g>
</g>
<!-- Node10 -->
<g id="Node000010" class="node">
<title>Node10</title>
<g id="a_Node000010"><a xlink:href="helios_2math_2transform_2__module_8ixx.html" target="_top" xlink:title="Module exports for transformation utilities.">
<polygon fill="white" stroke="#666666" points="1776.5,-74 1651.5,-74 1651.5,-55 1776.5,-55 1776.5,-74"/>
<text text-anchor="middle" x="1714" y="-62" font-family="Helvetica,sans-Serif" font-size="10.00">helios.math.transform</text>
</a>
</g>
</g>
<!-- Node8&#45;&gt;Node10 -->
<g id="edge10_Node000008_Node000010" class="edge">
<title>Node8&#45;&gt;Node10</title>
<g id="a_edge10_Node000008_Node000010"><a xlink:title=" ">
<path fill="none" stroke="#63b8ff" d="M1663.71,-115.37C1672.68,-106.47 1686.88,-92.39 1697.91,-81.45"/>
<polygon fill="#63b8ff" stroke="#63b8ff" points="1700.62,-83.69 1705.26,-74.17 1695.69,-78.72 1700.62,-83.69"/>
</a>
</g>
</g>
<!-- Node11 -->
<g id="Node000011" class="node">
<title>Node11</title>
<g id="a_Node000011"><a xlink:href="helios_2math_2types_2__module_8ixx.html" target="_top" xlink:title="Module exports for vector and matrix type definitions.">
<polygon fill="white" stroke="#666666" points="1458,-74 1354,-74 1354,-55 1458,-55 1458,-74"/>
<text text-anchor="middle" x="1406" y="-62" font-family="Helvetica,sans-Serif" font-size="10.00">helios.math.types</text>
</a>
</g>
</g>
<!-- Node8&#45;&gt;Node11 -->
<g id="edge12_Node000008_Node000011" class="edge">
<title>Node8&#45;&gt;Node11</title>
<g id="a_edge12_Node000008_Node000011"><a xlink:title=" ">
<path fill="none" stroke="#63b8ff" d="M1618.79,-115.49C1574.72,-105.14 1500.23,-87.64 1452.1,-76.33"/>
<polygon fill="#63b8ff" stroke="#63b8ff" points="1452.79,-72.9 1442.25,-74.02 1451.18,-79.71 1452.79,-72.9"/>
</a>
</g>
</g>
<!-- Node12 -->
<g id="Node000012" class="node">
<title>Node12</title>
<g id="a_Node000012"><a xlink:href="utils_8ixx.html" target="_top" xlink:title="Misc math utility functions.">
<polygon fill="white" stroke="#666666" points="2077,-74 1979,-74 1979,-55 2077,-55 2077,-74"/>
<text text-anchor="middle" x="2028" y="-62" font-family="Helvetica,sans-Serif" font-size="10.00">helios.math.utils</text>
</a>
</g>
</g>
<!-- Node8&#45;&gt;Node12 -->
<g id="edge14_Node000008_Node000012" class="edge">
<title>Node8&#45;&gt;Node12</title>
<g id="a_edge14_Node000008_Node000012"><a xlink:title=" ">
<path fill="none" stroke="#63b8ff" d="M1692.13,-118.18C1756.85,-108.03 1890.83,-87.01 1968.59,-74.82"/>
<polygon fill="#63b8ff" stroke="#63b8ff" points="1969.38,-78.24 1978.72,-73.23 1968.29,-71.32 1969.38,-78.24"/>
</a>
</g>
</g>
<!-- Node14 -->
<g id="Node000014" class="node">
<title>Node14</title>
<g id="a_Node000014"><a xlink:href="TransformType_8ixx.html" target="_top" xlink:title="Defines transform inheritance flags for scene graph hierarchies.">
<polygon fill="white" stroke="#666666" points="1961.5,-74 1812.5,-74 1812.5,-55 1961.5,-55 1961.5,-74"/>
<text text-anchor="middle" x="1887" y="-62" font-family="Helvetica,sans-Serif" font-size="10.00">helios.math.TransformType</text>
</a>
</g>
</g>
<!-- Node8&#45;&gt;Node14 -->
<g id="edge16_Node000008_Node000014" class="edge">
<title>Node8&#45;&gt;Node14</title>
<g id="a_edge16_Node000008_Node000014"><a xlink:title=" ">
<path fill="none" stroke="#63b8ff" d="M1688.73,-115.49C1729.63,-105.18 1798.62,-87.78 1843.48,-76.47"/>
<polygon fill="#63b8ff" stroke="#63b8ff" points="1844.38,-79.86 1853.22,-74.02 1842.67,-73.07 1844.38,-79.86"/>
</a>
</g>
</g>
<!-- Node9&#45;&gt;Node9 -->
<g id="edge9_Node000009_Node000009" class="edge">
<title>Node9&#45;&gt;Node9</title>
<g id="a_edge9_Node000009_Node000009"><a xlink:title=" ">
<path fill="none" stroke="#63b8ff" d="M1591.74,-74.03C1613.31,-76.06 1633.5,-72.88 1633.5,-64.5 1633.5,-57.49 1619.39,-54.12 1602.17,-54.39"/>
<polygon fill="#63b8ff" stroke="#63b8ff" points="1601.53,-50.92 1591.74,-54.97 1601.92,-57.91 1601.53,-50.92"/>
</a>
</g>
</g>
<!-- Node10&#45;&gt;Node10 -->
<g id="edge11_Node000010_Node000010" class="edge">
<title>Node10&#45;&gt;Node10</title>
<g id="a_edge11_Node000010_Node000010"><a xlink:title=" ">
<path fill="none" stroke="#63b8ff" d="M1751.68,-74.03C1773.8,-76.06 1794.5,-72.88 1794.5,-64.5 1794.5,-57.43 1779.76,-54.06 1761.87,-54.4"/>
<polygon fill="#63b8ff" stroke="#63b8ff" points="1761.47,-50.92 1751.68,-54.97 1761.86,-57.9 1761.47,-50.92"/>
</a>
</g>
</g>
<!-- Node11&#45;&gt;Node11 -->
<g id="edge13_Node000011_Node000011" class="edge">
<title>Node11&#45;&gt;Node11</title>
<g id="a_edge13_Node000011_Node000011"><a xlink:title=" ">
<path fill="none" stroke="#63b8ff" d="M1438.77,-74.03C1458,-76.06 1476,-72.88 1476,-64.5 1476,-57.62 1463.89,-54.25 1448.92,-54.38"/>
<polygon fill="#63b8ff" stroke="#63b8ff" points="1448.55,-50.89 1438.77,-54.97 1448.95,-57.88 1448.55,-50.89"/>
</a>
</g>
</g>
<!-- Node13 -->
<g id="Node000013" class="node">
<title>Node13</title>
<g id="a_Node000013"><a xlink:title=" ">
<polygon fill="#e0e0e0" stroke="#999999" points="2057.5,-19 1998.5,-19 1998.5,0 2057.5,0 2057.5,-19"/>
<text text-anchor="middle" x="2028" y="-7" font-family="Helvetica,sans-Serif" font-size="10.00">numbers</text>
</a>
</g>
</g>
<!-- Node12&#45;&gt;Node13 -->
<g id="edge15_Node000012_Node000013" class="edge">
<title>Node12&#45;&gt;Node13</title>
<g id="a_edge15_Node000012_Node000013"><a xlink:title=" ">
<path fill="none" stroke="#63b8ff" d="M2028,-54.75C2028,-47.8 2028,-37.85 2028,-29.13"/>
<polygon fill="#63b8ff" stroke="#63b8ff" points="2031.5,-29.09 2028,-19.09 2024.5,-29.09 2031.5,-29.09"/>
</a>
</g>
</g>
<!-- Node15 -->
<g id="Node000015" class="node">
<title>Node15</title>
<g id="a_Node000015"><a xlink:title=" ">
<polygon fill="#e0e0e0" stroke="#999999" points="1313,-19 1263,-19 1263,0 1313,0 1313,-19"/>
<text text-anchor="middle" x="1288" y="-7" font-family="Helvetica,sans-Serif" font-size="10.00">cstdint</text>
</a>
</g>
</g>
<!-- Node14&#45;&gt;Node15 -->
<g id="edge17_Node000014_Node000015" class="edge">
<title>Node14&#45;&gt;Node15</title>
<g id="a_edge17_Node000014_Node000015"><a xlink:title=" ">
<path fill="none" stroke="#63b8ff" d="M1812.35,-55.89C1809.19,-55.58 1806.06,-55.29 1803,-55 1622.81,-38.1 1406.93,-20.21 1323.41,-13.38"/>
<polygon fill="#63b8ff" stroke="#63b8ff" points="1323.45,-9.87 1313.2,-12.55 1322.88,-16.85 1323.45,-9.87"/>
</a>
</g>
</g>
<!-- Node16&#45;&gt;Node11 -->
<g id="edge19_Node000016_Node000011" class="edge">
<title>Node16&#45;&gt;Node11</title>
<g id="a_edge19_Node000016_Node000011"><a xlink:title=" ">
<path fill="none" stroke="#63b8ff" d="M1538.91,-247.07C1535.04,-231.7 1525.8,-199.64 1511,-176 1486.74,-137.24 1447.4,-100.47 1424.38,-80.65"/>
<polygon fill="#63b8ff" stroke="#63b8ff" points="1426.59,-77.94 1416.7,-74.15 1422.07,-83.28 1426.59,-77.94"/>
</a>
</g>
</g>
<!-- Node17&#45;&gt;Node15 -->
<g id="edge21_Node000017_Node000015" class="edge">
<title>Node17&#45;&gt;Node15</title>
<g id="a_edge21_Node000017_Node000015"><a xlink:title=" ">
<path fill="none" stroke="#63b8ff" d="M1235.49,-175.99C1238.7,-165.97 1243.12,-152.16 1247,-140 1256.36,-110.67 1258.71,-103.35 1268,-74 1272.8,-58.83 1278.22,-41.61 1282.21,-28.93"/>
<polygon fill="#63b8ff" stroke="#63b8ff" points="1285.63,-29.72 1285.29,-19.13 1278.95,-27.62 1285.63,-29.72"/>
</a>
</g>
</g>
<!-- Node18 -->
<g id="Node000018" class="node">
<title>Node18</title>
<g id="a_Node000018"><a xlink:title=" ">
<polygon fill="#e0e0e0" stroke="#999999" points="1221.5,-134.5 1148.5,-134.5 1148.5,-115.5 1221.5,-115.5 1221.5,-134.5"/>
<text text-anchor="middle" x="1185" y="-122.5" font-family="Helvetica,sans-Serif" font-size="10.00">string_view</text>
</a>
</g>
</g>
<!-- Node17&#45;&gt;Node18 -->
<g id="edge22_Node000017_Node000018" class="edge">
<title>Node17&#45;&gt;Node18</title>
<g id="a_edge22_Node000017_Node000018"><a xlink:title=" ">
<path fill="none" stroke="#63b8ff" d="M1220.79,-175.8C1213.83,-166.11 1204.58,-153.24 1197.23,-143.01"/>
<polygon fill="#63b8ff" stroke="#63b8ff" points="1200.04,-140.92 1191.36,-134.84 1194.35,-145.01 1200.04,-140.92"/>
</a>
</g>
</g>
<!-- Node19 -->
<g id="Node000019" class="node">
<title>Node19</title>
<g id="a_Node000019"><a xlink:href="algorithms_8ixx.html" target="_top" xlink:title="Core algorithms and hash functions for the helios engine.">
<polygon fill="white" stroke="#666666" points="1259.5,-74 1134.5,-74 1134.5,-55 1259.5,-55 1259.5,-74"/>
<text text-anchor="middle" x="1197" y="-62" font-family="Helvetica,sans-Serif" font-size="10.00">helios.core.algorithms</text>
</a>
</g>
</g>
<!-- Node17&#45;&gt;Node19 -->
<g id="edge23_Node000017_Node000019" class="edge">
<title>Node17&#45;&gt;Node19</title>
<g id="a_edge23_Node000017_Node000019"><a xlink:title=" ">
<path fill="none" stroke="#63b8ff" d="M1233.37,-175.98C1235.56,-159.65 1237.46,-132.11 1230,-110 1226.48,-99.56 1219.5,-89.55 1212.86,-81.68"/>
<polygon fill="#63b8ff" stroke="#63b8ff" points="1215.28,-79.13 1205.98,-74.06 1210.08,-83.82 1215.28,-79.13"/>
</a>
</g>
</g>
<!-- Node19&#45;&gt;Node4 -->
<g id="edge25_Node000019_Node000004" class="edge">
<title>Node19&#45;&gt;Node4</title>
<g id="a_edge25_Node000019_Node000004"><a xlink:title=" ">
<path fill="none" stroke="#63b8ff" d="M1134.41,-58.59C994.27,-47.58 659.35,-21.28 554.18,-13.03"/>
<polygon fill="#63b8ff" stroke="#63b8ff" points="554.41,-9.53 544.17,-12.24 553.86,-16.51 554.41,-9.53"/>
</a>
</g>
</g>
<!-- Node19&#45;&gt;Node15 -->
<g id="edge24_Node000019_Node000015" class="edge">
<title>Node19&#45;&gt;Node15</title>
<g id="a_edge24_Node000019_Node000015"><a xlink:title=" ">
<path fill="none" stroke="#63b8ff" d="M1211.62,-54.98C1225.86,-46.69 1247.75,-33.94 1264.45,-24.22"/>
<polygon fill="#63b8ff" stroke="#63b8ff" points="1266.23,-27.23 1273.11,-19.17 1262.71,-21.18 1266.23,-27.23"/>
</a>
</g>
</g>
<!-- Node20&#45;&gt;Node21 -->
<g id="edge27_Node000020_Node000021" class="edge">
<title>Node20&#45;&gt;Node21</title>
<g id="a_edge27_Node000020_Node000021"><a xlink:title=" ">
<path fill="none" stroke="#63b8ff" d="M881,-241.8C881,-234.34 881,-224.99 881,-216.41"/>
<polygon fill="#63b8ff" stroke="#63b8ff" points="884.5,-216.16 881,-206.16 877.5,-216.16 884.5,-216.16"/>
</a>
</g>
</g>
<!-- Node25 -->
<g id="Node000025" class="node">
<title>Node25</title>
<g id="a_Node000025"><a xlink:href="Logger_8ixx.html" target="_top" xlink:title="Simple synchronous logger with configurable output sinks.">
<polygon fill="white" stroke="#666666" points="659.5,-134.5 540.5,-134.5 540.5,-115.5 659.5,-115.5 659.5,-134.5"/>
<text text-anchor="middle" x="600" y="-122.5" font-family="Helvetica,sans-Serif" font-size="10.00">helios.util.log.Logger</text>
</a>
</g>
</g>
<!-- Node20&#45;&gt;Node25 -->
<g id="edge33_Node000020_Node000025" class="edge">
<title>Node20&#45;&gt;Node25</title>
<g id="a_edge33_Node000020_Node000025"><a xlink:title=" ">
<path fill="none" stroke="#63b8ff" d="M850.66,-241.96C795.75,-216.56 680.68,-163.33 627.74,-138.83"/>
<polygon fill="#63b8ff" stroke="#63b8ff" points="629.15,-135.63 618.6,-134.61 626.21,-141.98 629.15,-135.63"/>
</a>
</g>
</g>
<!-- Node30 -->
<g id="Node000030" class="node">
<title>Node30</title>
<g id="a_Node000030"><a xlink:href="LogManager_8ixx.html" target="_top" xlink:title="Central manager for scoped loggers with configurable sinks.">
<polygon fill="white" stroke="#666666" points="520,-200.5 374,-200.5 374,-181.5 520,-181.5 520,-200.5"/>
<text text-anchor="middle" x="447" y="-188.5" font-family="Helvetica,sans-Serif" font-size="10.00">helios.util.log.LogManager</text>
</a>
</g>
</g>
<!-- Node20&#45;&gt;Node30 -->
<g id="edge41_Node000020_Node000030" class="edge">
<title>Node20&#45;&gt;Node30</title>
<g id="a_edge41_Node000020_Node000030"><a xlink:title=" ">
<path fill="none" stroke="#63b8ff" d="M813.66,-246.07C732.38,-234.08 596.47,-214.04 514.92,-202.02"/>
<polygon fill="#63b8ff" stroke="#63b8ff" points="515.17,-198.52 504.77,-200.52 514.15,-205.44 515.17,-198.52"/>
</a>
</g>
</g>
<!-- Node21&#45;&gt;Node7 -->
<g id="edge32_Node000021_Node000007" class="edge">
<title>Node21&#45;&gt;Node7</title>
<g id="a_edge32_Node000021_Node000007"><a xlink:title=" ">
<path fill="none" stroke="#63b8ff" d="M912.6,-175.95C933.61,-166.62 961.4,-154.27 984.09,-144.18"/>
<polygon fill="#63b8ff" stroke="#63b8ff" points="985.76,-147.27 993.47,-140.01 982.91,-140.88 985.76,-147.27"/>
</a>
</g>
</g>
<!-- Node21&#45;&gt;Node11 -->
<g id="edge31_Node000021_Node000011" class="edge">
<title>Node21&#45;&gt;Node11</title>
<g id="a_edge31_Node000021_Node000011"><a xlink:title=" ">
<path fill="none" stroke="#63b8ff" d="M888.44,-175.8C899.09,-157.1 920.57,-124.86 949,-110 966.23,-101 1222.53,-79.88 1343.58,-70.33"/>
<polygon fill="#63b8ff" stroke="#63b8ff" points="1344.11,-73.8 1353.81,-69.53 1343.56,-66.82 1344.11,-73.8"/>
</a>
</g>
</g>
<!-- Node22 -->
<g id="Node000022" class="node">
<title>Node22</title>
<g id="a_Node000022"><a xlink:title=" ">
<polygon fill="#e0e0e0" stroke="#999999" points="902,-134.5 860,-134.5 860,-115.5 902,-115.5 902,-134.5"/>
<text text-anchor="middle" x="881" y="-122.5" font-family="Helvetica,sans-Serif" font-size="10.00">array</text>
</a>
</g>
</g>
<!-- Node21&#45;&gt;Node22 -->
<g id="edge28_Node000021_Node000022" class="edge">
<title>Node21&#45;&gt;Node22</title>
<g id="a_edge28_Node000021_Node000022"><a xlink:title=" ">
<path fill="none" stroke="#63b8ff" d="M881,-175.8C881,-166.7 881,-154.79 881,-144.9"/>
<polygon fill="#63b8ff" stroke="#63b8ff" points="884.5,-144.84 881,-134.84 877.5,-144.84 884.5,-144.84"/>
</a>
</g>
</g>
<!-- Node23 -->
<g id="Node000023" class="node">
<title>Node23</title>
<g id="a_Node000023"><a xlink:title=" ">
<polygon fill="#e0e0e0" stroke="#999999" points="772,-134.5 716,-134.5 716,-115.5 772,-115.5 772,-134.5"/>
<text text-anchor="middle" x="744" y="-122.5" font-family="Helvetica,sans-Serif" font-size="10.00">optional</text>
</a>
</g>
</g>
<!-- Node21&#45;&gt;Node23 -->
<g id="edge29_Node000021_Node000023" class="edge">
<title>Node21&#45;&gt;Node23</title>
<g id="a_edge29_Node000021_Node000023"><a xlink:title=" ">
<path fill="none" stroke="#63b8ff" d="M850.93,-175.95C827.23,-164.88 794.44,-149.56 771.44,-138.82"/>
<polygon fill="#63b8ff" stroke="#63b8ff" points="772.77,-135.58 762.23,-134.52 769.81,-141.92 772.77,-135.58"/>
</a>
</g>
</g>
<!-- Node24 -->
<g id="Node000024" class="node">
<title>Node24</title>
<g id="a_Node000024"><a xlink:title=" ">
<polygon fill="#e0e0e0" stroke="#999999" points="841.5,-134.5 790.5,-134.5 790.5,-115.5 841.5,-115.5 841.5,-134.5"/>
<text text-anchor="middle" x="816" y="-122.5" font-family="Helvetica,sans-Serif" font-size="10.00">variant</text>
</a>
</g>
</g>
<!-- Node21&#45;&gt;Node24 -->
<g id="edge30_Node000021_Node000024" class="edge">
<title>Node21&#45;&gt;Node24</title>
<g id="a_edge30_Node000021_Node000024"><a xlink:title=" ">
<path fill="none" stroke="#63b8ff" d="M866.57,-175.8C856.44,-165.82 842.87,-152.46 832.34,-142.09"/>
<polygon fill="#63b8ff" stroke="#63b8ff" points="834.56,-139.37 824.98,-134.84 829.65,-144.35 834.56,-139.37"/>
</a>
</g>
</g>
<!-- Node25&#45;&gt;Node2 -->
<g id="edge36_Node000025_Node000002" class="edge">
<title>Node25&#45;&gt;Node2</title>
<g id="a_edge36_Node000025_Node000002"><a xlink:title=" ">
<path fill="none" stroke="#63b8ff" d="M540.28,-117.2C433.92,-105.1 214.45,-80.12 125.12,-69.95"/>
<polygon fill="#63b8ff" stroke="#63b8ff" points="125.46,-66.47 115.13,-68.82 124.67,-73.42 125.46,-66.47"/>
</a>
</g>
</g>
<!-- Node25&#45;&gt;Node4 -->
<g id="edge34_Node000025_Node000004" class="edge">
<title>Node25&#45;&gt;Node4</title>
<g id="a_edge34_Node000025_Node000004"><a xlink:title=" ">
<path fill="none" stroke="#63b8ff" d="M599.38,-115.18C598.04,-101.28 593.85,-73.91 581,-55 572.44,-42.4 559.13,-31.91 547.32,-24.29"/>
<polygon fill="#63b8ff" stroke="#63b8ff" points="549.04,-21.24 538.68,-19.04 545.4,-27.22 549.04,-21.24"/>
</a>
</g>
</g>
<!-- Node26 -->
<g id="Node000026" class="node">
<title>Node26</title>
<g id="a_Node000026"><a xlink:title=" ">
<polygon fill="#e0e0e0" stroke="#999999" points="753.5,-74 706.5,-74 706.5,-55 753.5,-55 753.5,-74"/>
<text text-anchor="middle" x="730" y="-62" font-family="Helvetica,sans-Serif" font-size="10.00">vector</text>
</a>
</g>
</g>
<!-- Node25&#45;&gt;Node26 -->
<g id="edge35_Node000025_Node000026" class="edge">
<title>Node25&#45;&gt;Node26</title>
<g id="a_edge35_Node000025_Node000026"><a xlink:title=" ">
<path fill="none" stroke="#63b8ff" d="M618.9,-115.49C640.66,-105.7 676.62,-89.52 701.71,-78.23"/>
<polygon fill="#63b8ff" stroke="#63b8ff" points="703.39,-81.31 711.07,-74.02 700.52,-74.93 703.39,-81.31"/>
</a>
</g>
</g>
<!-- Node27 -->
<g id="Node000027" class="node">
<title>Node27</title>
<g id="a_Node000027"><a xlink:title=" ">
<polygon fill="#e0e0e0" stroke="#999999" points="572,-74 524,-74 524,-55 572,-55 572,-74"/>
<text text-anchor="middle" x="548" y="-62" font-family="Helvetica,sans-Serif" font-size="10.00">mutex</text>
</a>
</g>
</g>
<!-- Node25&#45;&gt;Node27 -->
<g id="edge37_Node000025_Node000027" class="edge">
<title>Node25&#45;&gt;Node27</title>
<g id="a_edge37_Node000025_Node000027"><a xlink:title=" ">
<path fill="none" stroke="#63b8ff" d="M592.33,-115.37C584.49,-106.55 572.14,-92.66 562.46,-81.77"/>
<polygon fill="#63b8ff" stroke="#63b8ff" points="564.96,-79.32 555.7,-74.17 559.73,-83.97 564.96,-79.32"/>
</a>
</g>
</g>
<!-- Node28 -->
<g id="Node000028" class="node">
<title>Node28</title>
<g id="a_Node000028"><a xlink:title=" ">
<polygon fill="#e0e0e0" stroke="#999999" points="688,-74 628,-74 628,-55 688,-55 688,-74"/>
<text text-anchor="middle" x="658" y="-62" font-family="Helvetica,sans-Serif" font-size="10.00">iostream</text>
</a>
</g>
</g>
<!-- Node25&#45;&gt;Node28 -->
<g id="edge38_Node000025_Node000028" class="edge">
<title>Node25&#45;&gt;Node28</title>
<g id="a_edge38_Node000025_Node000028"><a xlink:title=" ">
<path fill="none" stroke="#63b8ff" d="M608.56,-115.37C617.38,-106.47 631.34,-92.39 642.18,-81.45"/>
<polygon fill="#63b8ff" stroke="#63b8ff" points="644.85,-83.73 649.41,-74.17 639.88,-78.8 644.85,-83.73"/>
</a>
</g>
</g>
<!-- Node29 -->
<g id="Node000029" class="node">
<title>Node29</title>
<g id="a_Node000029"><a xlink:href="LogSink_8ixx.html" target="_top" xlink:title="Abstract interface for log output destinations.">
<polygon fill="white" stroke="#666666" points="506,-74 382,-74 382,-55 506,-55 506,-74"/>
<text text-anchor="middle" x="444" y="-62" font-family="Helvetica,sans-Serif" font-size="10.00">helios.util.log.LogSink</text>
</a>
</g>
</g>
<!-- Node25&#45;&gt;Node29 -->
<g id="edge39_Node000025_Node000029" class="edge">
<title>Node25&#45;&gt;Node29</title>
<g id="a_edge39_Node000025_Node000029"><a xlink:title=" ">
<path fill="none" stroke="#63b8ff" d="M577.32,-115.49C550.74,-105.53 506.52,-88.95 476.36,-77.63"/>
<polygon fill="#63b8ff" stroke="#63b8ff" points="477.3,-74.25 466.71,-74.02 474.85,-80.81 477.3,-74.25"/>
</a>
</g>
</g>
<!-- Node29&#45;&gt;Node4 -->
<g id="edge40_Node000029_Node000004" class="edge">
<title>Node29&#45;&gt;Node4</title>
<g id="a_edge40_Node000029_Node000004"><a xlink:title=" ">
<path fill="none" stroke="#63b8ff" d="M456.53,-54.98C468.4,-46.92 486.46,-34.65 500.61,-25.03"/>
<polygon fill="#63b8ff" stroke="#63b8ff" points="502.94,-27.69 509.24,-19.17 499,-21.9 502.94,-27.69"/>
</a>
</g>
</g>
<!-- Node30&#45;&gt;Node2 -->
<g id="edge45_Node000030_Node000002" class="edge">
<title>Node30&#45;&gt;Node2</title>
<g id="a_edge45_Node000030_Node000002"><a xlink:title=" ">
<path fill="none" stroke="#63b8ff" d="M373.8,-184.73C295.14,-177.94 176.25,-164.03 138,-140 116.76,-126.66 101.85,-101.15 93.59,-83.74"/>
<polygon fill="#63b8ff" stroke="#63b8ff" points="96.58,-81.84 89.32,-74.12 90.18,-84.68 96.58,-81.84"/>
</a>
</g>
</g>
<!-- Node30&#45;&gt;Node4 -->
<g id="edge42_Node000030_Node000004" class="edge">
<title>Node30&#45;&gt;Node4</title>
<g id="a_edge42_Node000030_Node000004"><a xlink:title=" ">
<path fill="none" stroke="#63b8ff" d="M373.93,-187.04C301.06,-182.37 196.4,-170.42 171,-140 162.45,-129.77 162.96,-120.64 171,-110 209.99,-58.43 410.01,-25.83 489.43,-14.74"/>
<polygon fill="#63b8ff" stroke="#63b8ff" points="490.38,-18.15 499.81,-13.32 489.43,-11.21 490.38,-18.15"/>
</a>
</g>
</g>
<!-- Node30&#45;&gt;Node25 -->
<g id="edge49_Node000030_Node000025" class="edge">
<title>Node30&#45;&gt;Node25</title>
<g id="a_edge49_Node000030_Node000025"><a xlink:title=" ">
<path fill="none" stroke="#63b8ff" d="M467.63,-181.37C493.87,-170.39 539.38,-151.36 569.59,-138.72"/>
<polygon fill="#63b8ff" stroke="#63b8ff" points="571.33,-141.79 579.2,-134.7 568.63,-135.33 571.33,-141.79"/>
</a>
</g>
</g>
<!-- Node30&#45;&gt;Node26 -->
<g id="edge47_Node000030_Node000026" class="edge">
<title>Node30&#45;&gt;Node26</title>
<g id="a_edge47_Node000030_Node000026"><a xlink:title=" ">
<path fill="none" stroke="#63b8ff" d="M520.13,-185.39C565.48,-179.76 623.39,-167.33 668,-140 690.91,-125.97 709.36,-100.46 720,-83.25"/>
<polygon fill="#63b8ff" stroke="#63b8ff" points="723.26,-84.61 725.34,-74.22 717.24,-81.05 723.26,-84.61"/>
</a>
</g>
</g>
<!-- Node30&#45;&gt;Node27 -->
<g id="edge46_Node000030_Node000027" class="edge">
<title>Node30&#45;&gt;Node27</title>
<g id="a_edge46_Node000030_Node000027"><a xlink:title=" ">
<path fill="none" stroke="#63b8ff" d="M453.94,-181.44C470.52,-161.01 512.65,-109.07 534.46,-82.19"/>
<polygon fill="#63b8ff" stroke="#63b8ff" points="537.43,-84.09 541.01,-74.12 531.99,-79.68 537.43,-84.09"/>
</a>
</g>
</g>
<!-- Node30&#45;&gt;Node29 -->
<g id="edge50_Node000030_Node000029" class="edge">
<title>Node30&#45;&gt;Node29</title>
<g id="a_edge50_Node000030_Node000029"><a xlink:title=" ">
<path fill="none" stroke="#63b8ff" d="M449.17,-181.11C452.49,-166.33 458.14,-135.77 455,-110 453.94,-101.31 451.76,-91.87 449.62,-83.93"/>
<polygon fill="#63b8ff" stroke="#63b8ff" points="452.96,-82.89 446.83,-74.25 446.23,-84.83 452.96,-82.89"/>
</a>
</g>
</g>
<!-- Node31 -->
<g id="Node000031" class="node">
<title>Node31</title>
<g id="a_Node000031"><a xlink:title=" ">
<polygon fill="#e0e0e0" stroke="#999999" points="273.5,-134.5 180.5,-134.5 180.5,-115.5 273.5,-115.5 273.5,-134.5"/>
<text text-anchor="middle" x="227" y="-122.5" font-family="Helvetica,sans-Serif" font-size="10.00">unordered_map</text>
</a>
</g>
</g>
<!-- Node30&#45;&gt;Node31 -->
<g id="edge43_Node000030_Node000031" class="edge">
<title>Node30&#45;&gt;Node31</title>
<g id="a_edge43_Node000030_Node000031"><a xlink:title=" ">
<path fill="none" stroke="#63b8ff" d="M417.33,-181.37C378.27,-170 309.49,-150 266.18,-137.4"/>
<polygon fill="#63b8ff" stroke="#63b8ff" points="267.13,-134.03 256.55,-134.6 265.17,-140.75 267.13,-134.03"/>
</a>
</g>
</g>
<!-- Node32 -->
<g id="Node000032" class="node">
<title>Node32</title>
<g id="a_Node000032"><a xlink:title=" ">
<polygon fill="#e0e0e0" stroke="#999999" points="378,-134.5 292,-134.5 292,-115.5 378,-115.5 378,-134.5"/>
<text text-anchor="middle" x="335" y="-122.5" font-family="Helvetica,sans-Serif" font-size="10.00">unordered_set</text>
</a>
</g>
</g>
<!-- Node30&#45;&gt;Node32 -->
<g id="edge44_Node000030_Node000032" class="edge">
<title>Node30&#45;&gt;Node32</title>
<g id="a_edge44_Node000030_Node000032"><a xlink:title=" ">
<path fill="none" stroke="#63b8ff" d="M431.9,-181.37C413.19,-170.68 381.1,-152.35 359.01,-139.72"/>
<polygon fill="#63b8ff" stroke="#63b8ff" points="360.64,-136.62 350.22,-134.7 357.17,-142.7 360.64,-136.62"/>
</a>
</g>
</g>
<!-- Node33 -->
<g id="Node000033" class="node">
<title>Node33</title>
<g id="a_Node000033"><a xlink:title=" ">
<polygon fill="#e0e0e0" stroke="#999999" points="446,-134.5 396,-134.5 396,-115.5 446,-115.5 446,-134.5"/>
<text text-anchor="middle" x="421" y="-122.5" font-family="Helvetica,sans-Serif" font-size="10.00">cstring</text>
</a>
</g>
</g>
<!-- Node30&#45;&gt;Node33 -->
<g id="edge48_Node000030_Node000033" class="edge">
<title>Node30&#45;&gt;Node33</title>
<g id="a_edge48_Node000030_Node000033"><a xlink:title=" ">
<path fill="none" stroke="#63b8ff" d="M443.49,-181.37C439.68,-171.97 433.46,-156.67 428.53,-144.53"/>
<polygon fill="#63b8ff" stroke="#63b8ff" points="431.62,-142.85 424.62,-134.91 425.14,-145.49 431.62,-142.85"/>
</a>
</g>
</g>
<!-- Node34&#45;&gt;Node17 -->
<g id="edge53_Node000034_Node000017" class="edge">
<title>Node34&#45;&gt;Node17</title>
<g id="a_edge53_Node000034_Node000017"><a xlink:title=" ">
<path fill="none" stroke="#63b8ff" d="M1198.32,-241.8C1203.54,-233.84 1210.17,-223.74 1216.1,-214.71"/>
<polygon fill="#63b8ff" stroke="#63b8ff" points="1219.14,-216.44 1221.7,-206.16 1213.29,-212.6 1219.14,-216.44"/>
</a>
</g>
</g>
<!-- Node34&#45;&gt;Node18 -->
<g id="edge52_Node000034_Node000018" class="edge">
<title>Node34&#45;&gt;Node18</title>
<g id="a_edge52_Node000034_Node000018"><a xlink:title=" ">
<path fill="none" stroke="#63b8ff" d="M1176.01,-241.92C1168.26,-232.51 1159.14,-219.44 1155,-206 1151.08,-193.26 1151.44,-188.85 1155,-176 1158.32,-164 1165.38,-151.99 1171.81,-142.75"/>
<polygon fill="#63b8ff" stroke="#63b8ff" points="1174.75,-144.66 1177.88,-134.53 1169.12,-140.5 1174.75,-144.66"/>
</a>
</g>
</g>
<!-- Node34&#45;&gt;Node35 -->
<g id="edge54_Node000034_Node000035" class="edge">
<title>Node34&#45;&gt;Node35</title>
<g id="a_edge54_Node000034_Node000035"><a xlink:title=" ">
<path fill="none" stroke="#63b8ff" d="M1241.45,-241.95C1285.03,-230.29 1346.19,-213.91 1386.44,-203.13"/>
<polygon fill="#63b8ff" stroke="#63b8ff" points="1387.44,-206.48 1396.19,-200.52 1385.63,-199.72 1387.44,-206.48"/>
</a>
</g>
</g>
<!-- Node35&#45;&gt;Node8 -->
<g id="edge55_Node000035_Node000008" class="edge">
<title>Node35&#45;&gt;Node8</title>
<g id="a_edge55_Node000035_Node000008"><a xlink:title=" ">
<path fill="none" stroke="#63b8ff" d="M1458.61,-181.37C1499,-169.98 1570.19,-149.91 1614.85,-137.32"/>
<polygon fill="#63b8ff" stroke="#63b8ff" points="1615.83,-140.68 1624.51,-134.6 1613.93,-133.94 1615.83,-140.68"/>
</a>
</g>
</g>
<!-- Node36&#45;&gt;Node2 -->
<g id="edge57_Node000036_Node000002" class="edge">
<title>Node36&#45;&gt;Node2</title>
<g id="a_edge57_Node000036_Node000002"><a xlink:title=" ">
<path fill="none" stroke="#63b8ff" d="M1279.22,-317.59C1115.68,-306.66 703.36,-274.15 365,-206 248.13,-182.46 189.35,-224.25 105,-140 90.42,-125.44 86.52,-101.35 85.71,-84.52"/>
<polygon fill="#63b8ff" stroke="#63b8ff" points="89.21,-84.17 85.56,-74.23 82.21,-84.28 89.21,-84.17"/>
</a>
</g>
</g>
<!-- Node36&#45;&gt;Node3 -->
<g id="edge58_Node000036_Node000003" class="edge">
<title>Node36&#45;&gt;Node3</title>
<g id="a_edge58_Node000036_Node000003"><a xlink:title=" ">
<path fill="none" stroke="#63b8ff" d="M1422.52,-312.45C1472.75,-304.57 1541.03,-291.49 1599,-272 1600.22,-271.59 1601.46,-271.14 1602.7,-270.66"/>
<polygon fill="#63b8ff" stroke="#63b8ff" points="1604.27,-273.79 1612.04,-266.59 1601.48,-267.37 1604.27,-273.79"/>
</a>
</g>
</g>
<!-- Node36&#45;&gt;Node4 -->
<g id="edge59_Node000036_Node000004" class="edge">
<title>Node36&#45;&gt;Node4</title>
<g id="a_edge59_Node000036_Node000004"><a xlink:title=" ">
<path fill="none" stroke="#63b8ff" d="M1346.41,-307.74C1339.2,-284 1326,-234.75 1326,-192 1326,-192 1326,-192 1326,-124 1326,-83.94 1303.8,-72.99 1268,-55 1203.59,-22.63 688.83,-12.93 554.15,-10.93"/>
<polygon fill="#63b8ff" stroke="#63b8ff" points="554.11,-7.43 544.06,-10.78 554.01,-14.43 554.11,-7.43"/>
</a>
</g>
</g>
<!-- Node36&#45;&gt;Node5 -->
<g id="edge61_Node000036_Node000005" class="edge">
<title>Node36&#45;&gt;Node5</title>
<g id="a_edge61_Node000036_Node000005"><a xlink:title=" ">
<path fill="none" stroke="#63b8ff" d="M1422.79,-313.72C1485.25,-305.69 1577.89,-291.82 1657,-272 1659.8,-271.3 1662.69,-270.49 1665.57,-269.63"/>
<polygon fill="#63b8ff" stroke="#63b8ff" points="1666.76,-272.92 1675.22,-266.53 1664.63,-266.25 1666.76,-272.92"/>
</a>
</g>
</g>
<!-- Node36&#45;&gt;Node6 -->
<g id="edge62_Node000036_Node000006" class="edge">
<title>Node36&#45;&gt;Node6</title>
<g id="a_edge62_Node000036_Node000006"><a xlink:title=" ">
<path fill="none" stroke="#63b8ff" d="M1422.65,-318.86C1501.43,-314.01 1631.17,-301.88 1739,-272 1740.69,-271.53 1742.4,-270.99 1744.11,-270.4"/>
<polygon fill="#63b8ff" stroke="#63b8ff" points="1745.7,-273.54 1753.72,-266.63 1743.14,-267.03 1745.7,-273.54"/>
</a>
</g>
</g>
<!-- Node36&#45;&gt;Node8 -->
<g id="edge64_Node000036_Node000008" class="edge">
<title>Node36&#45;&gt;Node8</title>
<g id="a_edge64_Node000036_Node000008"><a xlink:title=" ">
<path fill="none" stroke="#63b8ff" d="M1372.86,-307.9C1428.96,-271.74 1577.51,-175.96 1633.36,-139.95"/>
<polygon fill="#63b8ff" stroke="#63b8ff" points="1635.29,-142.87 1641.79,-134.51 1631.49,-136.99 1635.29,-142.87"/>
</a>
</g>
</g>
<!-- Node36&#45;&gt;Node16 -->
<g id="edge65_Node000036_Node000016" class="edge">
<title>Node36&#45;&gt;Node16</title>
<g id="a_edge65_Node000036_Node000016"><a xlink:title=" ">
<path fill="none" stroke="#63b8ff" d="M1392.7,-307.95C1426.6,-296.53 1473.91,-280.6 1505.9,-269.82"/>
<polygon fill="#63b8ff" stroke="#63b8ff" points="1507.35,-273.03 1515.71,-266.52 1505.12,-266.39 1507.35,-273.03"/>
</a>
</g>
</g>
<!-- Node36&#45;&gt;Node17 -->
<g id="edge66_Node000036_Node000017" class="edge">
<title>Node36&#45;&gt;Node17</title>
<g id="a_edge66_Node000036_Node000017"><a xlink:title=" ">
<path fill="none" stroke="#63b8ff" d="M1337.93,-307.84C1317.01,-285.18 1275.86,-240.6 1251.15,-213.83"/>
<polygon fill="#63b8ff" stroke="#63b8ff" points="1253.41,-211.12 1244.05,-206.14 1248.27,-215.86 1253.41,-211.12"/>
</a>
</g>
</g>
<!-- Node36&#45;&gt;Node20 -->
<g id="edge67_Node000036_Node000020" class="edge">
<title>Node36&#45;&gt;Node20</title>
<g id="a_edge67_Node000036_Node000020"><a xlink:title=" ">
<path fill="none" stroke="#63b8ff" d="M1279.36,-312.24C1192.63,-300.44 1047.15,-280.63 958.06,-268.49"/>
<polygon fill="#63b8ff" stroke="#63b8ff" points="958.4,-265.01 948.02,-267.13 957.45,-271.94 958.4,-265.01"/>
</a>
</g>
</g>
<!-- Node36&#45;&gt;Node26 -->
<g id="edge63_Node000036_Node000026" class="edge">
<title>Node36&#45;&gt;Node26</title>
<g id="a_edge63_Node000036_Node000026"><a xlink:title=" ">
<path fill="none" stroke="#63b8ff" d="M1279.34,-316.74C1216.14,-310.47 1130.8,-297.46 1109,-272 1062.11,-217.25 1150.16,-162.73 1101,-110 1078.17,-85.52 851.01,-71.59 763.82,-67.11"/>
<polygon fill="#63b8ff" stroke="#63b8ff" points="763.83,-63.6 753.67,-66.6 763.48,-70.59 763.83,-63.6"/>
</a>
</g>
</g>
<!-- Node36&#45;&gt;Node34 -->
<g id="edge68_Node000036_Node000034" class="edge">
<title>Node36&#45;&gt;Node34</title>
<g id="a_edge68_Node000036_Node000034"><a xlink:title=" ">
<path fill="none" stroke="#63b8ff" d="M1315.45,-307.95C1291.5,-298.49 1259.71,-285.93 1234,-275.78"/>
<polygon fill="#63b8ff" stroke="#63b8ff" points="1235.06,-272.43 1224.47,-272.01 1232.48,-278.94 1235.06,-272.43"/>
</a>
</g>
</g>
<!-- Node36&#45;&gt;Node35 -->
<g id="edge69_Node000036_Node000035" class="edge">
<title>Node36&#45;&gt;Node35</title>
<g id="a_edge69_Node000036_Node000035"><a xlink:title=" ">
<path fill="none" stroke="#63b8ff" d="M1372.19,-307.88C1384.07,-298.92 1398.22,-286.34 1407,-272 1418.57,-253.09 1423.83,-227.9 1426.17,-210.87"/>
<polygon fill="#63b8ff" stroke="#63b8ff" points="1429.69,-210.91 1427.37,-200.57 1422.74,-210.1 1429.69,-210.91"/>
</a>
</g>
</g>
<!-- Node37 -->
<g id="Node000037" class="node">
<title>Node37</title>
<g id="a_Node000037"><a xlink:title=" ">
<polygon fill="#e0e0e0" stroke="#999999" points="1398,-266.5 1354,-266.5 1354,-247.5 1398,-247.5 1398,-266.5"/>
<text text-anchor="middle" x="1376" y="-254.5" font-family="Helvetica,sans-Serif" font-size="10.00">limits</text>
</a>
</g>
</g>
<!-- Node36&#45;&gt;Node37 -->
<g id="edge60_Node000036_Node000037" class="edge">
<title>Node36&#45;&gt;Node37</title>
<g id="a_edge60_Node000036_Node000037"><a xlink:title=" ">
<path fill="none" stroke="#63b8ff" d="M1356.55,-307.8C1360.18,-298.5 1364.96,-286.27 1368.87,-276.26"/>
<polygon fill="#63b8ff" stroke="#63b8ff" points="1372.17,-277.43 1372.55,-266.84 1365.65,-274.89 1372.17,-277.43"/>
</a>
</g>
</g>
</g>
</svg>
