<?xml version="1.0" encoding="UTF-8" standalone="no"?>
<!DOCTYPE svg PUBLIC "-//W3C//DTD SVG 1.1//EN"
 "http://www.w3.org/Graphics/SVG/1.1/DTD/svg11.dtd">
<!-- Generated by graphviz version 2.43.0 (0)
 -->
<!-- Title: include/helios/core/buffer/TypeIndexedReadWriteBuffer.ixx Pages: 1 -->
<svg width="494pt" height="225pt"
 viewBox="0.00 0.00 494.00 225.00" xmlns="http://www.w3.org/2000/svg" xmlns:xlink="http://www.w3.org/1999/xlink">

<svg id="main" version="1.1" xmlns="http://www.w3.org/2000/svg" xmlns:xlink="http://www.w3.org/1999/xlink" xml:space="preserve">

<style type="text/css"><![CDATA[
.node, .edge {opacity: 0.7;}
.node.selected, .edge.selected {opacity: 1;}
.edge:hover path { stroke: red; }
.edge:hover polygon { stroke: red; fill: red; }
]]></style>
<script type="application/ecmascript" xlink:href="svg.min.js"/>
<svg id="graph" class="graph">
<g id="graph0" class="graph" transform="scale(1 1) rotate(0) translate(4 221)">
<title>include/helios/core/buffer/TypeIndexedReadWriteBuffer.ixx</title>
<!-- Node1 -->
<g id="Node000001" class="node">
<title>Node1</title>
<g id="a_Node000001"><a xlink:title="Type&#45;indexed single&#45;buffered message system for immediate&#45;access patterns.">
<polygon fill="#999999" stroke="#666666" points="224.5,-217 61.5,-217 61.5,-176 224.5,-176 224.5,-217"/>
<text text-anchor="start" x="69.5" y="-205" font-family="Helvetica,sans-Serif" font-size="10.00">include/helios/core</text>
<text text-anchor="start" x="69.5" y="-194" font-family="Helvetica,sans-Serif" font-size="10.00">/buffer/TypeIndexedReadWrite</text>
<text text-anchor="middle" x="143" y="-183" font-family="Helvetica,sans-Serif" font-size="10.00">Buffer.ixx</text>
</a>
</g>
</g>
<!-- Node2 -->
<g id="Node000002" class="node">
<title>Node2</title>
<g id="a_Node000002"><a xlink:title=" ">
<polygon fill="#e0e0e0" stroke="#999999" points="58,-19 0,-19 0,0 58,0 58,-19"/>
<text text-anchor="middle" x="29" y="-7" font-family="Helvetica,sans-Serif" font-size="10.00">memory</text>
</a>
</g>
</g>
<!-- Node1&#45;&gt;Node2 -->
<g id="edge1_Node000001_Node000002" class="edge">
<title>Node1&#45;&gt;Node2</title>
<g id="a_edge1_Node000001_Node000002"><a xlink:title=" ">
<path fill="none" stroke="#63b8ff" d="M107.79,-175.77C93.99,-166.5 79.08,-154.31 69,-140 44.81,-105.64 34.9,-56.2 31.13,-29.44"/>
<polygon fill="#63b8ff" stroke="#63b8ff" points="34.55,-28.66 29.82,-19.17 27.61,-29.54 34.55,-28.66"/>
</a>
</g>
</g>
<!-- Node3 -->
<g id="Node000003" class="node">
<title>Node3</title>
<g id="a_Node000003"><a xlink:title=" ">
<polygon fill="#e0e0e0" stroke="#999999" points="284,-19 244,-19 244,0 284,0 284,-19"/>
<text text-anchor="middle" x="264" y="-7" font-family="Helvetica,sans-Serif" font-size="10.00">span</text>
</a>
</g>
</g>
<!-- Node1&#45;&gt;Node3 -->
<g id="edge2_Node000001_Node000003" class="edge">
<title>Node1&#45;&gt;Node3</title>
<g id="a_edge2_Node000001_Node000003"><a xlink:title=" ">
<path fill="none" stroke="#63b8ff" d="M224.74,-180.98C247.36,-172.8 269.41,-160.01 283,-140 306.21,-105.83 286.88,-54.89 273.72,-28.23"/>
<polygon fill="#63b8ff" stroke="#63b8ff" points="276.79,-26.55 269.08,-19.28 270.58,-29.77 276.79,-26.55"/>
</a>
</g>
</g>
<!-- Node4 -->
<g id="Node000004" class="node">
<title>Node4</title>
<g id="a_Node000004"><a xlink:title=" ">
<polygon fill="#e0e0e0" stroke="#999999" points="154.5,-19 107.5,-19 107.5,0 154.5,0 154.5,-19"/>
<text text-anchor="middle" x="131" y="-7" font-family="Helvetica,sans-Serif" font-size="10.00">vector</text>
</a>
</g>
</g>
<!-- Node1&#45;&gt;Node4 -->
<g id="edge3_Node000001_Node000004" class="edge">
<title>Node1&#45;&gt;Node4</title>
<g id="a_edge3_Node000001_Node000004"><a xlink:title=" ">
<path fill="none" stroke="#63b8ff" d="M122.57,-175.85C100.98,-153.54 68.25,-114.88 55,-74 52.4,-65.97 50.8,-62.33 55,-55 64.26,-38.85 81.9,-28 97.85,-21.06"/>
<polygon fill="#63b8ff" stroke="#63b8ff" points="99.48,-24.18 107.48,-17.23 96.89,-17.67 99.48,-24.18"/>
</a>
</g>
</g>
<!-- Node5 -->
<g id="Node000005" class="node">
<title>Node5</title>
<g id="a_Node000005"><a xlink:href="ReadWriteBuffer_8ixx.html" target="_top" xlink:title="Combined read&#45;write buffer for single&#45;buffered access patterns.">
<polygon fill="white" stroke="#666666" points="273.5,-140 118.5,-140 118.5,-110 273.5,-110 273.5,-140"/>
<text text-anchor="start" x="126.5" y="-128" font-family="Helvetica,sans-Serif" font-size="10.00">helios.core.buffer.ReadWrite</text>
<text text-anchor="middle" x="196" y="-117" font-family="Helvetica,sans-Serif" font-size="10.00">Buffer</text>
</a>
</g>
</g>
<!-- Node1&#45;&gt;Node5 -->
<g id="edge4_Node000001_Node000005" class="edge">
<title>Node1&#45;&gt;Node5</title>
<g id="a_edge4_Node000001_Node000005"><a xlink:title=" ">
<path fill="none" stroke="#63b8ff" d="M158.05,-175.77C164.63,-167.13 172.39,-156.96 179.17,-148.08"/>
<polygon fill="#63b8ff" stroke="#63b8ff" points="182.01,-150.11 185.29,-140.04 176.45,-145.87 182.01,-150.11"/>
</a>
</g>
</g>
<!-- Node6 -->
<g id="Node000006" class="node">
<title>Node6</title>
<g id="a_Node000006"><a xlink:href="Buffer_8ixx.html" target="_top" xlink:title="Abstract base class for buffer implementations.">
<polygon fill="white" stroke="#666666" points="197.5,-74 64.5,-74 64.5,-55 197.5,-55 197.5,-74"/>
<text text-anchor="middle" x="131" y="-62" font-family="Helvetica,sans-Serif" font-size="10.00">helios.core.buffer.Buffer</text>
</a>
</g>
</g>
<!-- Node1&#45;&gt;Node6 -->
<g id="edge11_Node000001_Node000006" class="edge">
<title>Node1&#45;&gt;Node6</title>
<g id="a_edge11_Node000001_Node000006"><a xlink:title=" ">
<path fill="none" stroke="#63b8ff" d="M127.35,-175.95C120.25,-165.84 112.65,-152.94 109,-140 105.38,-127.17 105.97,-122.98 109,-110 111.2,-100.57 115.71,-90.85 120.07,-82.91"/>
<polygon fill="#63b8ff" stroke="#63b8ff" points="123.12,-84.64 125.16,-74.24 117.08,-81.09 123.12,-84.64"/>
</a>
</g>
</g>
<!-- Node7 -->
<g id="Node000007" class="node">
<title>Node7</title>
<g id="a_Node000007"><a xlink:href="TypeIndexer_8ixx.html" target="_top" xlink:title="Utility for generating unique type indices at runtime.">
<polygon fill="white" stroke="#666666" points="486,-134.5 330,-134.5 330,-115.5 486,-115.5 486,-134.5"/>
<text text-anchor="middle" x="408" y="-122.5" font-family="Helvetica,sans-Serif" font-size="10.00">helios.core.data.TypeIndexer</text>
</a>
</g>
</g>
<!-- Node1&#45;&gt;Node7 -->
<g id="edge12_Node000001_Node000007" class="edge">
<title>Node1&#45;&gt;Node7</title>
<g id="a_edge12_Node000001_Node000007"><a xlink:title=" ">
<path fill="none" stroke="#63b8ff" d="M217.52,-175.96C265.4,-163.4 325.87,-147.54 365.67,-137.1"/>
<polygon fill="#63b8ff" stroke="#63b8ff" points="366.79,-140.43 375.58,-134.5 365.02,-133.66 366.79,-140.43"/>
</a>
</g>
</g>
<!-- Node5&#45;&gt;Node3 -->
<g id="edge5_Node000005_Node000003" class="edge">
<title>Node5&#45;&gt;Node3</title>
<g id="a_edge5_Node000005_Node000003"><a xlink:title=" ">
<path fill="none" stroke="#63b8ff" d="M204.61,-109.63C217.06,-88.84 240.07,-50.44 253.5,-28.02"/>
<polygon fill="#63b8ff" stroke="#63b8ff" points="256.63,-29.61 258.77,-19.23 250.63,-26.01 256.63,-29.61"/>
</a>
</g>
</g>
<!-- Node5&#45;&gt;Node4 -->
<g id="edge6_Node000005_Node000004" class="edge">
<title>Node5&#45;&gt;Node4</title>
<g id="a_edge6_Node000005_Node000004"><a xlink:title=" ">
<path fill="none" stroke="#63b8ff" d="M203.31,-109.82C209.77,-95.15 216.77,-72.05 207,-55 197.74,-38.85 180.1,-28 164.15,-21.06"/>
<polygon fill="#63b8ff" stroke="#63b8ff" points="165.11,-17.67 154.52,-17.23 162.52,-24.18 165.11,-17.67"/>
</a>
</g>
</g>
<!-- Node5&#45;&gt;Node6 -->
<g id="edge7_Node000005_Node000006" class="edge">
<title>Node5&#45;&gt;Node6</title>
<g id="a_edge7_Node000005_Node000006"><a xlink:title=" ">
<path fill="none" stroke="#63b8ff" d="M180.27,-109.84C170.64,-101.17 158.31,-90.08 148.39,-81.15"/>
<polygon fill="#63b8ff" stroke="#63b8ff" points="150.51,-78.35 140.74,-74.27 145.83,-83.56 150.51,-78.35"/>
</a>
</g>
</g>
<!-- Node6&#45;&gt;Node2 -->
<g id="edge8_Node000006_Node000002" class="edge">
<title>Node6&#45;&gt;Node2</title>
<g id="a_edge8_Node000006_Node000002"><a xlink:title=" ">
<path fill="none" stroke="#63b8ff" d="M114.61,-54.98C98.43,-46.57 73.43,-33.59 54.62,-23.81"/>
<polygon fill="#63b8ff" stroke="#63b8ff" points="56.17,-20.68 45.69,-19.17 52.95,-26.89 56.17,-20.68"/>
</a>
</g>
</g>
<!-- Node6&#45;&gt;Node3 -->
<g id="edge9_Node000006_Node000003" class="edge">
<title>Node6&#45;&gt;Node3</title>
<g id="a_edge9_Node000006_Node000003"><a xlink:title=" ">
<path fill="none" stroke="#63b8ff" d="M152.37,-54.98C174.67,-46.1 209.79,-32.1 234.67,-22.19"/>
<polygon fill="#63b8ff" stroke="#63b8ff" points="236,-25.43 243.99,-18.47 233.4,-18.92 236,-25.43"/>
</a>
</g>
</g>
<!-- Node6&#45;&gt;Node4 -->
<g id="edge10_Node000006_Node000004" class="edge">
<title>Node6&#45;&gt;Node4</title>
<g id="a_edge10_Node000006_Node000004"><a xlink:title=" ">
<path fill="none" stroke="#63b8ff" d="M131,-54.75C131,-47.8 131,-37.85 131,-29.13"/>
<polygon fill="#63b8ff" stroke="#63b8ff" points="134.5,-29.09 131,-19.09 127.5,-29.09 134.5,-29.09"/>
</a>
</g>
</g>
<!-- Node8 -->
<g id="Node000008" class="node">
<title>Node8</title>
<g id="a_Node000008"><a xlink:title=" ">
<polygon fill="#e0e0e0" stroke="#999999" points="433,-74 383,-74 383,-55 433,-55 433,-74"/>
<text text-anchor="middle" x="408" y="-62" font-family="Helvetica,sans-Serif" font-size="10.00">atomic</text>
</a>
</g>
</g>
<!-- Node7&#45;&gt;Node8 -->
<g id="edge13_Node000007_Node000008" class="edge">
<title>Node7&#45;&gt;Node8</title>
<g id="a_edge13_Node000007_Node000008"><a xlink:title=" ">
<path fill="none" stroke="#63b8ff" d="M408,-115.37C408,-107.25 408,-94.81 408,-84.39"/>
<polygon fill="#63b8ff" stroke="#63b8ff" points="411.5,-84.17 408,-74.17 404.5,-84.17 411.5,-84.17"/>
</a>
</g>
</g>
</g>
</svg>
</svg>

<style type='text/css'>
<![CDATA[
[data-mouse-over-selected='false'] { opacity: 0.7; }
[data-mouse-over-selected='true']  { opacity: 1.0; }
]]>
</style>
<script type="application/ecmascript"><![CDATA[
document.addEventListener('DOMContentLoaded', (event) => {
  highlightEdges();
  highlightAdjacentNodes();
});
]]></script>
</svg>
