<?xml version="1.0" encoding="UTF-8" standalone="no"?>
<!DOCTYPE svg PUBLIC "-//W3C//DTD SVG 1.1//EN"
 "http://www.w3.org/Graphics/SVG/1.1/DTD/svg11.dtd">
<!-- Generated by graphviz version 2.43.0 (0)
 -->
<!-- Title: UiActionCommand.ixx Pages: 1 -->
<svg width="1947pt" height="335pt"
 viewBox="0.00 0.00 1947.00 335.00" xmlns="http://www.w3.org/2000/svg" xmlns:xlink="http://www.w3.org/1999/xlink">
<g id="graph0" class="graph" transform="scale(1 1) rotate(0) translate(4 331)">
<title>UiActionCommand.ixx</title>
<!-- Node1 -->
<g id="Node000001" class="node">
<title>Node1</title>
<g id="a_Node000001"><a xlink:title="Command for triggering UI actions.">
<polygon fill="#999999" stroke="#666666" points="789,-327 663,-327 663,-308 789,-308 789,-327"/>
<text text-anchor="middle" x="726" y="-315" font-family="Helvetica,sans-Serif" font-size="10.00">UiActionCommand.ixx</text>
</a>
</g>
</g>
<!-- Node2 -->
<g id="Node000002" class="node">
<title>Node2</title>
<g id="a_Node000002"><a xlink:title=" ">
<polygon fill="#e0e0e0" stroke="#999999" points="416,-266.5 364,-266.5 364,-247.5 416,-247.5 416,-266.5"/>
<text text-anchor="middle" x="390" y="-254.5" font-family="Helvetica,sans-Serif" font-size="10.00">cassert</text>
</a>
</g>
</g>
<!-- Node1&#45;&gt;Node2 -->
<g id="edge1_Node000001_Node000002" class="edge">
<title>Node1&#45;&gt;Node2</title>
<g id="a_edge1_Node000001_Node000002"><a xlink:title=" ">
<path fill="none" stroke="#63b8ff" d="M662.87,-311.49C601.35,-305.6 505.58,-293.75 425,-272 422.84,-271.42 420.64,-270.74 418.44,-270.01"/>
<polygon fill="#63b8ff" stroke="#63b8ff" points="419.57,-266.7 408.98,-266.53 417.16,-273.27 419.57,-266.7"/>
</a>
</g>
</g>
<!-- Node3 -->
<g id="Node000003" class="node">
<title>Node3</title>
<g id="a_Node000003"><a xlink:title=" ">
<polygon fill="#e0e0e0" stroke="#999999" points="490,-266.5 434,-266.5 434,-247.5 490,-247.5 490,-266.5"/>
<text text-anchor="middle" x="462" y="-254.5" font-family="Helvetica,sans-Serif" font-size="10.00">optional</text>
</a>
</g>
</g>
<!-- Node1&#45;&gt;Node3 -->
<g id="edge2_Node000001_Node000003" class="edge">
<title>Node1&#45;&gt;Node3</title>
<g id="a_edge2_Node000001_Node000003"><a xlink:title=" ">
<path fill="none" stroke="#63b8ff" d="M668.46,-307.97C622.19,-300.45 555.77,-288.18 499,-272 496.85,-271.39 494.66,-270.71 492.45,-269.98"/>
<polygon fill="#63b8ff" stroke="#63b8ff" points="493.52,-266.65 482.93,-266.62 491.19,-273.25 493.52,-266.65"/>
</a>
</g>
</g>
<!-- Node4 -->
<g id="Node000004" class="node">
<title>Node4</title>
<g id="a_Node000004"><a xlink:href="WorldCommandDispatcher_8ixx.html" target="_top" xlink:title="Abstract dispatcher interface for WorldCommand handling.">
<polygon fill="white" stroke="#666666" points="742,-272 508,-272 508,-242 742,-242 742,-272"/>
<text text-anchor="start" x="516" y="-260" font-family="Helvetica,sans-Serif" font-size="10.00">helios.engine.runtime.messaging.command.</text>
<text text-anchor="middle" x="625" y="-249" font-family="Helvetica,sans-Serif" font-size="10.00">WorldCommandDispatcher</text>
</a>
</g>
</g>
<!-- Node1&#45;&gt;Node4 -->
<g id="edge3_Node000001_Node000004" class="edge">
<title>Node1&#45;&gt;Node4</title>
<g id="a_edge3_Node000001_Node000004"><a xlink:title=" ">
<path fill="none" stroke="#63b8ff" d="M711.1,-307.87C697.27,-299.86 676.19,-287.65 658.35,-277.31"/>
<polygon fill="#63b8ff" stroke="#63b8ff" points="659.78,-274.1 649.37,-272.11 656.27,-280.16 659.78,-274.1"/>
</a>
</g>
</g>
<!-- Node5 -->
<g id="Node000005" class="node">
<title>Node5</title>
<g id="a_Node000005"><a xlink:href="EntityHandle_8ixx.html" target="_top" xlink:title="Versioned handle for referencing entities in an EntityPool.">
<polygon fill="white" stroke="#666666" points="893.5,-272 760.5,-272 760.5,-242 893.5,-242 893.5,-272"/>
<text text-anchor="start" x="768.5" y="-260" font-family="Helvetica,sans-Serif" font-size="10.00">helios.engine.ecs.Entity</text>
<text text-anchor="middle" x="827" y="-249" font-family="Helvetica,sans-Serif" font-size="10.00">Handle</text>
</a>
</g>
</g>
<!-- Node1&#45;&gt;Node5 -->
<g id="edge4_Node000001_Node000005" class="edge">
<title>Node1&#45;&gt;Node5</title>
<g id="a_edge4_Node000001_Node000005"><a xlink:title=" ">
<path fill="none" stroke="#63b8ff" d="M740.9,-307.87C754.73,-299.86 775.81,-287.65 793.65,-277.31"/>
<polygon fill="#63b8ff" stroke="#63b8ff" points="795.73,-280.16 802.63,-272.11 792.22,-274.1 795.73,-280.16"/>
</a>
</g>
</g>
<!-- Node7 -->
<g id="Node000007" class="node">
<title>Node7</title>
<g id="a_Node000007"><a xlink:href="helios_2engine_2core_2data_2__module_8ixx.html" target="_top" xlink:title="Aggregate module for helios::engine::core::data namespace.">
<polygon fill="white" stroke="#666666" points="987.5,-206 856.5,-206 856.5,-187 987.5,-187 987.5,-206"/>
<text text-anchor="middle" x="922" y="-194" font-family="Helvetica,sans-Serif" font-size="10.00">helios.engine.core.data</text>
</a>
</g>
</g>
<!-- Node1&#45;&gt;Node7 -->
<g id="edge67_Node000001_Node000007" class="edge">
<title>Node1&#45;&gt;Node7</title>
<g id="a_edge67_Node000001_Node000007"><a xlink:title=" ">
<path fill="none" stroke="#63b8ff" d="M786.03,-307.93C830.3,-300.44 885.56,-288.2 902,-272 916.73,-257.49 920.96,-233.39 922.01,-216.54"/>
<polygon fill="#63b8ff" stroke="#63b8ff" points="925.52,-216.34 922.31,-206.24 918.52,-216.13 925.52,-216.34"/>
</a>
</g>
</g>
<!-- Node32 -->
<g id="Node000032" class="node">
<title>Node32</title>
<g id="a_Node000032"><a xlink:href="WorldCommand_8ixx.html" target="_top" xlink:title="Abstract base class for commands operating on the entire GameWorld.">
<polygon fill="white" stroke="#666666" points="1184,-272 950,-272 950,-242 1184,-242 1184,-272"/>
<text text-anchor="start" x="958" y="-260" font-family="Helvetica,sans-Serif" font-size="10.00">helios.engine.runtime.messaging.command.</text>
<text text-anchor="middle" x="1067" y="-249" font-family="Helvetica,sans-Serif" font-size="10.00">WorldCommand</text>
</a>
</g>
</g>
<!-- Node1&#45;&gt;Node32 -->
<g id="edge68_Node000001_Node000032" class="edge">
<title>Node1&#45;&gt;Node32</title>
<g id="a_edge68_Node000001_Node000032"><a xlink:title=" ">
<path fill="none" stroke="#63b8ff" d="M775.58,-307.99C827.75,-299.04 911.02,-284.76 975.22,-273.75"/>
<polygon fill="#63b8ff" stroke="#63b8ff" points="976.08,-277.15 985.35,-272.01 974.9,-270.25 976.08,-277.15"/>
</a>
</g>
</g>
<!-- Node6 -->
<g id="Node000006" class="node">
<title>Node6</title>
<g id="a_Node000006"><a xlink:title=" ">
<polygon fill="#e0e0e0" stroke="#999999" points="217.5,-79.5 152.5,-79.5 152.5,-60.5 217.5,-60.5 217.5,-79.5"/>
<text text-anchor="middle" x="185" y="-67.5" font-family="Helvetica,sans-Serif" font-size="10.00">functional</text>
</a>
</g>
</g>
<!-- Node5&#45;&gt;Node6 -->
<g id="edge5_Node000005_Node000006" class="edge">
<title>Node5&#45;&gt;Node6</title>
<g id="a_edge5_Node000005_Node000006"><a xlink:title=" ">
<path fill="none" stroke="#63b8ff" d="M760.3,-243.53C757.16,-243 754.05,-242.49 751,-242 603.73,-218.37 184.06,-263.39 86,-151 61.73,-123.18 111.3,-97.6 148.67,-83.18"/>
<polygon fill="#63b8ff" stroke="#63b8ff" points="150.18,-86.36 158.34,-79.59 147.75,-79.79 150.18,-86.36"/>
</a>
</g>
</g>
<!-- Node5&#45;&gt;Node7 -->
<g id="edge6_Node000005_Node000007" class="edge">
<title>Node5&#45;&gt;Node7</title>
<g id="a_edge6_Node000005_Node000007"><a xlink:title=" ">
<path fill="none" stroke="#63b8ff" d="M850,-241.84C865,-232.6 884.5,-220.59 899.43,-211.4"/>
<polygon fill="#63b8ff" stroke="#63b8ff" points="901.36,-214.32 908.04,-206.09 897.69,-208.36 901.36,-214.32"/>
</a>
</g>
</g>
<!-- Node8 -->
<g id="Node000008" class="node">
<title>Node8</title>
<g id="a_Node000008"><a xlink:href="ComponentTypeId_8ixx.html" target="_top" xlink:title="Compile&#45;time type identifier for component types.">
<polygon fill="white" stroke="#666666" points="229,-151 95,-151 95,-121 229,-121 229,-151"/>
<text text-anchor="start" x="103" y="-139" font-family="Helvetica,sans-Serif" font-size="10.00">helios.engine.core.data.</text>
<text text-anchor="middle" x="162" y="-128" font-family="Helvetica,sans-Serif" font-size="10.00">ComponentTypeId</text>
</a>
</g>
</g>
<!-- Node7&#45;&gt;Node8 -->
<g id="edge7_Node000007_Node000008" class="edge">
<title>Node7&#45;&gt;Node8</title>
<g id="a_edge7_Node000007_Node000008"><a xlink:title=" ">
<path fill="none" stroke="#63b8ff" d="M856.21,-193.78C735.73,-190.08 471.48,-179.36 239.07,-151.03"/>
<polygon fill="#63b8ff" stroke="#63b8ff" points="239.42,-147.55 229.07,-149.8 238.57,-154.49 239.42,-147.55"/>
</a>
</g>
</g>
<!-- Node12 -->
<g id="Node000012" class="node">
<title>Node12</title>
<g id="a_Node000012"><a xlink:href="GameObjectPoolId_8ixx.html" target="_top" xlink:title="Strongly&#45;typed identifier for GameObjectPool instances.">
<polygon fill="white" stroke="#666666" points="1597,-151 1463,-151 1463,-121 1597,-121 1597,-151"/>
<text text-anchor="start" x="1471" y="-139" font-family="Helvetica,sans-Serif" font-size="10.00">helios.engine.core.data.</text>
<text text-anchor="middle" x="1530" y="-128" font-family="Helvetica,sans-Serif" font-size="10.00">GameObjectPoolId</text>
</a>
</g>
</g>
<!-- Node7&#45;&gt;Node12 -->
<g id="edge12_Node000007_Node000012" class="edge">
<title>Node7&#45;&gt;Node12</title>
<g id="a_edge12_Node000007_Node000012"><a xlink:title=" ">
<path fill="none" stroke="#63b8ff" d="M987.75,-192.09C1086.53,-186.51 1279.28,-173.83 1452.84,-151.07"/>
<polygon fill="#63b8ff" stroke="#63b8ff" points="1453.47,-154.51 1462.92,-149.73 1452.55,-147.57 1453.47,-154.51"/>
</a>
</g>
</g>
<!-- Node19 -->
<g id="Node000019" class="node">
<title>Node19</title>
<g id="a_Node000019"><a xlink:href="SpawnRuleId_8ixx.html" target="_top" xlink:title="Strongly&#45;typed identifier for SpawnRule instances.">
<polygon fill="white" stroke="#666666" points="1445,-151 1311,-151 1311,-121 1445,-121 1445,-151"/>
<text text-anchor="start" x="1319" y="-139" font-family="Helvetica,sans-Serif" font-size="10.00">helios.engine.core.data.</text>
<text text-anchor="middle" x="1378" y="-128" font-family="Helvetica,sans-Serif" font-size="10.00">SpawnRuleId</text>
</a>
</g>
</g>
<!-- Node7&#45;&gt;Node19 -->
<g id="edge20_Node000007_Node000019" class="edge">
<title>Node7&#45;&gt;Node19</title>
<g id="a_edge20_Node000007_Node000019"><a xlink:title=" ">
<path fill="none" stroke="#63b8ff" d="M987.74,-189.12C1061.49,-181.67 1184.91,-168.32 1300.79,-151.12"/>
<polygon fill="#63b8ff" stroke="#63b8ff" points="1301.53,-154.55 1310.9,-149.61 1300.5,-147.63 1301.53,-154.55"/>
</a>
</g>
</g>
<!-- Node20 -->
<g id="Node000020" class="node">
<title>Node20</title>
<g id="a_Node000020"><a xlink:href="SpawnProfileId_8ixx.html" target="_top" xlink:title="Strongly&#45;typed identifier for SpawnProfile instances.">
<polygon fill="white" stroke="#666666" points="533,-151 399,-151 399,-121 533,-121 533,-151"/>
<text text-anchor="start" x="407" y="-139" font-family="Helvetica,sans-Serif" font-size="10.00">helios.engine.core.data.</text>
<text text-anchor="middle" x="466" y="-128" font-family="Helvetica,sans-Serif" font-size="10.00">SpawnProfileId</text>
</a>
</g>
</g>
<!-- Node7&#45;&gt;Node20 -->
<g id="edge24_Node000007_Node000020" class="edge">
<title>Node7&#45;&gt;Node20</title>
<g id="a_edge24_Node000007_Node000020"><a xlink:title=" ">
<path fill="none" stroke="#63b8ff" d="M856.26,-189.12C782.51,-181.67 659.09,-168.32 543.21,-151.12"/>
<polygon fill="#63b8ff" stroke="#63b8ff" points="543.5,-147.63 533.1,-149.61 542.47,-154.55 543.5,-147.63"/>
</a>
</g>
</g>
<!-- Node21 -->
<g id="Node000021" class="node">
<title>Node21</title>
<g id="a_Node000021"><a xlink:href="MenuId_8ixx.html" target="_top" xlink:title="Strongly&#45;typed identifier for UI menus.">
<polygon fill="white" stroke="#666666" points="685,-151 551,-151 551,-121 685,-121 685,-151"/>
<text text-anchor="start" x="559" y="-139" font-family="Helvetica,sans-Serif" font-size="10.00">helios.engine.core.data.</text>
<text text-anchor="middle" x="618" y="-128" font-family="Helvetica,sans-Serif" font-size="10.00">MenuId</text>
</a>
</g>
</g>
<!-- Node7&#45;&gt;Node21 -->
<g id="edge29_Node000007_Node000021" class="edge">
<title>Node7&#45;&gt;Node21</title>
<g id="a_edge29_Node000007_Node000021"><a xlink:title=" ">
<path fill="none" stroke="#63b8ff" d="M877.8,-186.99C830.01,-177.8 752.92,-162.96 695.11,-151.84"/>
<polygon fill="#63b8ff" stroke="#63b8ff" points="695.76,-148.4 685.28,-149.95 694.44,-155.27 695.76,-148.4"/>
</a>
</g>
</g>
<!-- Node22 -->
<g id="Node000022" class="node">
<title>Node22</title>
<g id="a_Node000022"><a xlink:href="FontId_8ixx.html" target="_top" xlink:title="Strongly&#45;typed identifier for font families.">
<polygon fill="white" stroke="#666666" points="837,-151 703,-151 703,-121 837,-121 837,-151"/>
<text text-anchor="start" x="711" y="-139" font-family="Helvetica,sans-Serif" font-size="10.00">helios.engine.core.data.</text>
<text text-anchor="middle" x="770" y="-128" font-family="Helvetica,sans-Serif" font-size="10.00">FontId</text>
</a>
</g>
</g>
<!-- Node7&#45;&gt;Node22 -->
<g id="edge34_Node000007_Node000022" class="edge">
<title>Node7&#45;&gt;Node22</title>
<g id="a_edge34_Node000007_Node000022"><a xlink:title=" ">
<path fill="none" stroke="#63b8ff" d="M899.9,-186.99C878.02,-178.57 843.87,-165.43 816.08,-154.73"/>
<polygon fill="#63b8ff" stroke="#63b8ff" points="817.13,-151.39 806.54,-151.06 814.62,-157.92 817.13,-151.39"/>
</a>
</g>
</g>
<!-- Node23 -->
<g id="Node000023" class="node">
<title>Node23</title>
<g id="a_Node000023"><a xlink:href="ViewportId_8ixx.html" target="_top" xlink:title="Strongly&#45;typed identifier for viewports.">
<polygon fill="white" stroke="#666666" points="1141,-151 1007,-151 1007,-121 1141,-121 1141,-151"/>
<text text-anchor="start" x="1015" y="-139" font-family="Helvetica,sans-Serif" font-size="10.00">helios.engine.core.data.</text>
<text text-anchor="middle" x="1074" y="-128" font-family="Helvetica,sans-Serif" font-size="10.00">ViewportId</text>
</a>
</g>
</g>
<!-- Node7&#45;&gt;Node23 -->
<g id="edge39_Node000007_Node000023" class="edge">
<title>Node7&#45;&gt;Node23</title>
<g id="a_edge39_Node000007_Node000023"><a xlink:title=" ">
<path fill="none" stroke="#63b8ff" d="M944.1,-186.99C965.98,-178.57 1000.13,-165.43 1027.92,-154.73"/>
<polygon fill="#63b8ff" stroke="#63b8ff" points="1029.38,-157.92 1037.46,-151.06 1026.87,-151.39 1029.38,-157.92"/>
</a>
</g>
</g>
<!-- Node24 -->
<g id="Node000024" class="node">
<title>Node24</title>
<g id="a_Node000024"><a xlink:href="VersionId_8ixx.html" target="_top" xlink:title="Type alias for entity version numbers used in handle validation.">
<polygon fill="white" stroke="#666666" points="1692,-85 1558,-85 1558,-55 1692,-55 1692,-85"/>
<text text-anchor="start" x="1566" y="-73" font-family="Helvetica,sans-Serif" font-size="10.00">helios.engine.core.data.</text>
<text text-anchor="middle" x="1625" y="-62" font-family="Helvetica,sans-Serif" font-size="10.00">VersionId</text>
</a>
</g>
</g>
<!-- Node7&#45;&gt;Node24 -->
<g id="edge44_Node000007_Node000024" class="edge">
<title>Node7&#45;&gt;Node24</title>
<g id="a_edge44_Node000007_Node000024"><a xlink:title=" ">
<path fill="none" stroke="#63b8ff" d="M987.67,-195.59C1149.82,-195.2 1559.46,-190.3 1606,-151 1621.88,-137.59 1625.84,-113.55 1626.31,-95.32"/>
<polygon fill="#63b8ff" stroke="#63b8ff" points="1629.81,-95.09 1626.23,-85.12 1622.81,-95.14 1629.81,-95.09"/>
</a>
</g>
</g>
<!-- Node25 -->
<g id="Node000025" class="node">
<title>Node25</title>
<g id="a_Node000025"><a xlink:href="ScorePoolId_8ixx.html" target="_top" xlink:title="Strongly&#45;typed identifier for score pools.">
<polygon fill="white" stroke="#666666" points="989,-151 855,-151 855,-121 989,-121 989,-151"/>
<text text-anchor="start" x="863" y="-139" font-family="Helvetica,sans-Serif" font-size="10.00">helios.engine.core.data.</text>
<text text-anchor="middle" x="922" y="-128" font-family="Helvetica,sans-Serif" font-size="10.00">ScorePoolId</text>
</a>
</g>
</g>
<!-- Node7&#45;&gt;Node25 -->
<g id="edge46_Node000007_Node000025" class="edge">
<title>Node7&#45;&gt;Node25</title>
<g id="a_edge46_Node000007_Node000025"><a xlink:title=" ">
<path fill="none" stroke="#63b8ff" d="M922,-186.87C922,-180.11 922,-170.35 922,-161.26"/>
<polygon fill="#63b8ff" stroke="#63b8ff" points="925.5,-161.11 922,-151.11 918.5,-161.11 925.5,-161.11"/>
</a>
</g>
</g>
<!-- Node26 -->
<g id="Node000026" class="node">
<title>Node26</title>
<g id="a_Node000026"><a xlink:href="ScoreTypeId_8ixx.html" target="_top" xlink:title="Strongly&#45;typed identifier for score types.">
<polygon fill="white" stroke="#666666" points="381,-151 247,-151 247,-121 381,-121 381,-151"/>
<text text-anchor="start" x="255" y="-139" font-family="Helvetica,sans-Serif" font-size="10.00">helios.engine.core.data.</text>
<text text-anchor="middle" x="314" y="-128" font-family="Helvetica,sans-Serif" font-size="10.00">ScoreTypeId</text>
</a>
</g>
</g>
<!-- Node7&#45;&gt;Node26 -->
<g id="edge51_Node000007_Node000026" class="edge">
<title>Node7&#45;&gt;Node26</title>
<g id="a_edge51_Node000007_Node000026"><a xlink:title=" ">
<path fill="none" stroke="#63b8ff" d="M856.25,-192.09C757.47,-186.51 564.72,-173.83 391.16,-151.07"/>
<polygon fill="#63b8ff" stroke="#63b8ff" points="391.45,-147.57 381.08,-149.73 390.53,-154.51 391.45,-147.57"/>
</a>
</g>
</g>
<!-- Node27 -->
<g id="Node000027" class="node">
<title>Node27</title>
<g id="a_Node000027"><a xlink:href="ActionId_8ixx.html" target="_top" xlink:title="Strongly&#45;typed identifier for UI actions.">
<polygon fill="white" stroke="#666666" points="1293,-151 1159,-151 1159,-121 1293,-121 1293,-151"/>
<text text-anchor="start" x="1167" y="-139" font-family="Helvetica,sans-Serif" font-size="10.00">helios.engine.core.data.</text>
<text text-anchor="middle" x="1226" y="-128" font-family="Helvetica,sans-Serif" font-size="10.00">ActionId</text>
</a>
</g>
</g>
<!-- Node7&#45;&gt;Node27 -->
<g id="edge55_Node000007_Node000027" class="edge">
<title>Node7&#45;&gt;Node27</title>
<g id="a_edge55_Node000007_Node000027"><a xlink:title=" ">
<path fill="none" stroke="#63b8ff" d="M966.2,-186.99C1013.99,-177.8 1091.08,-162.96 1148.89,-151.84"/>
<polygon fill="#63b8ff" stroke="#63b8ff" points="1149.56,-155.27 1158.72,-149.95 1148.24,-148.4 1149.56,-155.27"/>
</a>
</g>
</g>
<!-- Node28 -->
<g id="Node000028" class="node">
<title>Node28</title>
<g id="a_Node000028"><a xlink:href="EntityId_8ixx.html" target="_top" xlink:title="Type alias for entity identifiers within an EntityPool.">
<polygon fill="white" stroke="#666666" points="134,-85 0,-85 0,-55 134,-55 134,-85"/>
<text text-anchor="start" x="8" y="-73" font-family="Helvetica,sans-Serif" font-size="10.00">helios.engine.core.data.</text>
<text text-anchor="middle" x="67" y="-62" font-family="Helvetica,sans-Serif" font-size="10.00">EntityId</text>
</a>
</g>
</g>
<!-- Node7&#45;&gt;Node28 -->
<g id="edge60_Node000007_Node000028" class="edge">
<title>Node7&#45;&gt;Node28</title>
<g id="a_edge60_Node000007_Node000028"><a xlink:title=" ">
<path fill="none" stroke="#63b8ff" d="M856.31,-194.14C664.27,-189.87 115.43,-175.56 86,-151 70.04,-137.68 66.09,-113.63 65.65,-95.37"/>
<polygon fill="#63b8ff" stroke="#63b8ff" points="69.15,-95.18 65.74,-85.15 62.15,-95.12 69.15,-95.18"/>
</a>
</g>
</g>
<!-- Node29 -->
<g id="Node000029" class="node">
<title>Node29</title>
<g id="a_Node000029"><a xlink:href="CollisionLayer_8ixx.html" target="_top" xlink:title="Type definitions for collision layer identifiers.">
<polygon fill="white" stroke="#666666" points="1787,-151 1653,-151 1653,-121 1787,-121 1787,-151"/>
<text text-anchor="start" x="1661" y="-139" font-family="Helvetica,sans-Serif" font-size="10.00">helios.engine.core.data.</text>
<text text-anchor="middle" x="1720" y="-128" font-family="Helvetica,sans-Serif" font-size="10.00">CollisionLayer</text>
</a>
</g>
</g>
<!-- Node7&#45;&gt;Node29 -->
<g id="edge62_Node000007_Node000029" class="edge">
<title>Node7&#45;&gt;Node29</title>
<g id="a_edge62_Node000007_Node000029"><a xlink:title=" ">
<path fill="none" stroke="#63b8ff" d="M987.95,-193.81C1114.55,-190.04 1400.24,-178.96 1639,-151 1640.28,-150.85 1641.56,-150.69 1642.86,-150.53"/>
<polygon fill="#63b8ff" stroke="#63b8ff" points="1643.46,-153.98 1652.9,-149.18 1642.52,-147.05 1643.46,-153.98"/>
</a>
</g>
</g>
<!-- Node31 -->
<g id="Node000031" class="node">
<title>Node31</title>
<g id="a_Node000031"><a xlink:href="EntityTombstone_8ixx.html" target="_top" xlink:title="Sentinel value for invalid sparse array indices.">
<polygon fill="white" stroke="#666666" points="1939,-151 1805,-151 1805,-121 1939,-121 1939,-151"/>
<text text-anchor="start" x="1813" y="-139" font-family="Helvetica,sans-Serif" font-size="10.00">helios.engine.core.data.</text>
<text text-anchor="middle" x="1872" y="-128" font-family="Helvetica,sans-Serif" font-size="10.00">EntityTombstone</text>
</a>
</g>
</g>
<!-- Node7&#45;&gt;Node31 -->
<g id="edge65_Node000007_Node000031" class="edge">
<title>Node7&#45;&gt;Node31</title>
<g id="a_edge65_Node000007_Node000031"><a xlink:title=" ">
<path fill="none" stroke="#63b8ff" d="M987.76,-195.09C1132.13,-193.57 1487.77,-186.33 1794.95,-151.01"/>
<polygon fill="#63b8ff" stroke="#63b8ff" points="1795.41,-154.48 1804.94,-149.85 1794.6,-147.53 1795.41,-154.48"/>
</a>
</g>
</g>
<!-- Node8&#45;&gt;Node6 -->
<g id="edge8_Node000008_Node000006" class="edge">
<title>Node8&#45;&gt;Node6</title>
<g id="a_edge8_Node000008_Node000006"><a xlink:title=" ">
<path fill="none" stroke="#63b8ff" d="M167.1,-120.8C170.44,-111.5 174.84,-99.27 178.44,-89.26"/>
<polygon fill="#63b8ff" stroke="#63b8ff" points="181.73,-90.44 181.82,-79.84 175.15,-88.07 181.73,-90.44"/>
</a>
</g>
</g>
<!-- Node9 -->
<g id="Node000009" class="node">
<title>Node9</title>
<g id="a_Node000009"><a xlink:href="types_8ixx.html" target="_top" xlink:title="Core type definitions and tag types for the helios engine.">
<polygon fill="white" stroke="#666666" points="802,-79.5 702,-79.5 702,-60.5 802,-60.5 802,-79.5"/>
<text text-anchor="middle" x="752" y="-67.5" font-family="Helvetica,sans-Serif" font-size="10.00">helios.core.types</text>
</a>
</g>
</g>
<!-- Node8&#45;&gt;Node9 -->
<g id="edge9_Node000008_Node000009" class="edge">
<title>Node8&#45;&gt;Node9</title>
<g id="a_edge9_Node000008_Node000009"><a xlink:title=" ">
<path fill="none" stroke="#63b8ff" d="M229.09,-122.32C232.1,-121.85 235.08,-121.41 238,-121 401.4,-98.04 595.52,-82.25 691.73,-75.19"/>
<polygon fill="#63b8ff" stroke="#63b8ff" points="692.13,-78.67 701.85,-74.45 691.63,-71.69 692.13,-78.67"/>
</a>
</g>
</g>
<!-- Node10 -->
<g id="Node000010" class="node">
<title>Node10</title>
<g id="a_Node000010"><a xlink:href="TypeIndexer_8ixx.html" target="_top" xlink:title="Utility for generating unique type indices at runtime.">
<polygon fill="white" stroke="#666666" points="392,-79.5 236,-79.5 236,-60.5 392,-60.5 392,-79.5"/>
<text text-anchor="middle" x="314" y="-67.5" font-family="Helvetica,sans-Serif" font-size="10.00">helios.core.data.TypeIndexer</text>
</a>
</g>
</g>
<!-- Node8&#45;&gt;Node10 -->
<g id="edge10_Node000008_Node000010" class="edge">
<title>Node8&#45;&gt;Node10</title>
<g id="a_edge10_Node000008_Node000010"><a xlink:title=" ">
<path fill="none" stroke="#63b8ff" d="M195.36,-120.95C221.9,-109.78 258.69,-94.29 284.24,-83.53"/>
<polygon fill="#63b8ff" stroke="#63b8ff" points="285.91,-86.62 293.77,-79.52 283.2,-80.17 285.91,-86.62"/>
</a>
</g>
</g>
<!-- Node11 -->
<g id="Node000011" class="node">
<title>Node11</title>
<g id="a_Node000011"><a xlink:title=" ">
<polygon fill="#e0e0e0" stroke="#999999" points="339,-19 289,-19 289,0 339,0 339,-19"/>
<text text-anchor="middle" x="314" y="-7" font-family="Helvetica,sans-Serif" font-size="10.00">atomic</text>
</a>
</g>
</g>
<!-- Node10&#45;&gt;Node11 -->
<g id="edge11_Node000010_Node000011" class="edge">
<title>Node10&#45;&gt;Node11</title>
<g id="a_edge11_Node000010_Node000011"><a xlink:title=" ">
<path fill="none" stroke="#63b8ff" d="M314,-60.37C314,-52.25 314,-39.81 314,-29.39"/>
<polygon fill="#63b8ff" stroke="#63b8ff" points="317.5,-29.17 314,-19.17 310.5,-29.17 317.5,-29.17"/>
</a>
</g>
</g>
<!-- Node13 -->
<g id="Node000013" class="node">
<title>Node13</title>
<g id="a_Node000013"><a xlink:title=" ">
<polygon fill="#e0e0e0" stroke="#999999" points="1176,-19 1126,-19 1126,0 1176,0 1176,-19"/>
<text text-anchor="middle" x="1151" y="-7" font-family="Helvetica,sans-Serif" font-size="10.00">cstdint</text>
</a>
</g>
</g>
<!-- Node12&#45;&gt;Node13 -->
<g id="edge13_Node000012_Node000013" class="edge">
<title>Node12&#45;&gt;Node13</title>
<g id="a_edge13_Node000012_Node000013"><a xlink:title=" ">
<path fill="none" stroke="#63b8ff" d="M1530.9,-120.72C1531.19,-102.54 1528.65,-71.51 1510,-55 1462.58,-13.02 1267.04,-9.57 1186.21,-9.99"/>
<polygon fill="#63b8ff" stroke="#63b8ff" points="1186.01,-6.49 1176.04,-10.07 1186.07,-13.49 1186.01,-6.49"/>
</a>
</g>
</g>
<!-- Node14 -->
<g id="Node000014" class="node">
<title>Node14</title>
<g id="a_Node000014"><a xlink:title=" ">
<polygon fill="#e0e0e0" stroke="#999999" points="1390,-79.5 1268,-79.5 1268,-60.5 1390,-60.5 1390,-79.5"/>
<text text-anchor="middle" x="1329" y="-67.5" font-family="Helvetica,sans-Serif" font-size="10.00">helios/helios_config.h</text>
</a>
</g>
</g>
<!-- Node12&#45;&gt;Node14 -->
<g id="edge14_Node000012_Node000014" class="edge">
<title>Node12&#45;&gt;Node14</title>
<g id="a_edge14_Node000012_Node000014"><a xlink:title=" ">
<path fill="none" stroke="#63b8ff" d="M1485.89,-120.95C1449.86,-109.48 1399.54,-93.46 1365.69,-82.68"/>
<polygon fill="#63b8ff" stroke="#63b8ff" points="1366.34,-79.22 1355.75,-79.52 1364.22,-85.89 1366.34,-79.22"/>
</a>
</g>
</g>
<!-- Node15 -->
<g id="Node000015" class="node">
<title>Node15</title>
<g id="a_Node000015"><a xlink:title=" ">
<polygon fill="#e0e0e0" stroke="#999999" points="992.5,-79.5 919.5,-79.5 919.5,-60.5 992.5,-60.5 992.5,-79.5"/>
<text text-anchor="middle" x="956" y="-67.5" font-family="Helvetica,sans-Serif" font-size="10.00">string_view</text>
</a>
</g>
</g>
<!-- Node12&#45;&gt;Node15 -->
<g id="edge15_Node000012_Node000015" class="edge">
<title>Node12&#45;&gt;Node15</title>
<g id="a_edge15_Node000012_Node000015"><a xlink:title=" ">
<path fill="none" stroke="#63b8ff" d="M1462.92,-122.26C1459.91,-121.81 1456.93,-121.38 1454,-121 1253.76,-94.67 1199.32,-123.23 1001,-85 997.33,-84.29 993.54,-83.39 989.78,-82.39"/>
<polygon fill="#63b8ff" stroke="#63b8ff" points="990.62,-78.99 980.04,-79.56 988.66,-85.71 990.62,-78.99"/>
</a>
</g>
</g>
<!-- Node16 -->
<g id="Node000016" class="node">
<title>Node16</title>
<g id="a_Node000016"><a xlink:title=" ">
<polygon fill="#e0e0e0" stroke="#999999" points="1501.5,-79.5 1408.5,-79.5 1408.5,-60.5 1501.5,-60.5 1501.5,-79.5"/>
<text text-anchor="middle" x="1455" y="-67.5" font-family="Helvetica,sans-Serif" font-size="10.00">unordered_map</text>
</a>
</g>
</g>
<!-- Node12&#45;&gt;Node16 -->
<g id="edge16_Node000012_Node000016" class="edge">
<title>Node12&#45;&gt;Node16</title>
<g id="a_edge16_Node000012_Node000016"><a xlink:title=" ">
<path fill="none" stroke="#63b8ff" d="M1513.36,-120.8C1501.43,-110.62 1485.39,-96.93 1473.14,-86.48"/>
<polygon fill="#63b8ff" stroke="#63b8ff" points="1475.24,-83.67 1465.36,-79.84 1470.7,-89 1475.24,-83.67"/>
</a>
</g>
</g>
<!-- Node17 -->
<g id="Node000017" class="node">
<title>Node17</title>
<g id="a_Node000017"><a xlink:href="algorithms_8ixx.html" target="_top" xlink:title="Core algorithms and hash functions for the helios engine.">
<polygon fill="white" stroke="#666666" points="1135.5,-79.5 1010.5,-79.5 1010.5,-60.5 1135.5,-60.5 1135.5,-79.5"/>
<text text-anchor="middle" x="1073" y="-67.5" font-family="Helvetica,sans-Serif" font-size="10.00">helios.core.algorithms</text>
</a>
</g>
</g>
<!-- Node12&#45;&gt;Node17 -->
<g id="edge17_Node000012_Node000017" class="edge">
<title>Node12&#45;&gt;Node17</title>
<g id="a_edge17_Node000012_Node000017"><a xlink:title=" ">
<path fill="none" stroke="#63b8ff" d="M1462.9,-122.44C1459.89,-121.94 1456.92,-121.46 1454,-121 1346.94,-104.13 1222.33,-88.53 1145.55,-79.39"/>
<polygon fill="#63b8ff" stroke="#63b8ff" points="1145.85,-75.9 1135.51,-78.2 1145.03,-82.85 1145.85,-75.9"/>
</a>
</g>
</g>
<!-- Node17&#45;&gt;Node13 -->
<g id="edge18_Node000017_Node000013" class="edge">
<title>Node17&#45;&gt;Node13</title>
<g id="a_edge18_Node000017_Node000013"><a xlink:title=" ">
<path fill="none" stroke="#63b8ff" d="M1084.51,-60.37C1096.84,-51.12 1116.62,-36.28 1131.41,-25.19"/>
<polygon fill="#63b8ff" stroke="#63b8ff" points="1133.54,-27.97 1139.44,-19.17 1129.34,-22.37 1133.54,-27.97"/>
</a>
</g>
</g>
<!-- Node18 -->
<g id="Node000018" class="node">
<title>Node18</title>
<g id="a_Node000018"><a xlink:title=" ">
<polygon fill="#e0e0e0" stroke="#999999" points="1095,-19 1051,-19 1051,0 1095,0 1095,-19"/>
<text text-anchor="middle" x="1073" y="-7" font-family="Helvetica,sans-Serif" font-size="10.00">string</text>
</a>
</g>
</g>
<!-- Node17&#45;&gt;Node18 -->
<g id="edge19_Node000017_Node000018" class="edge">
<title>Node17&#45;&gt;Node18</title>
<g id="a_edge19_Node000017_Node000018"><a xlink:title=" ">
<path fill="none" stroke="#63b8ff" d="M1073,-60.37C1073,-52.25 1073,-39.81 1073,-29.39"/>
<polygon fill="#63b8ff" stroke="#63b8ff" points="1076.5,-29.17 1073,-19.17 1069.5,-29.17 1076.5,-29.17"/>
</a>
</g>
</g>
<!-- Node19&#45;&gt;Node13 -->
<g id="edge21_Node000019_Node000013" class="edge">
<title>Node19&#45;&gt;Node13</title>
<g id="a_edge21_Node000019_Node000013"><a xlink:title=" ">
<path fill="none" stroke="#63b8ff" d="M1339.01,-120.96C1315.31,-111.86 1284.75,-99.1 1259,-85 1226.13,-67.01 1190.91,-41.38 1169.93,-25.35"/>
<polygon fill="#63b8ff" stroke="#63b8ff" points="1171.92,-22.46 1161.86,-19.12 1167.64,-28.01 1171.92,-22.46"/>
</a>
</g>
</g>
<!-- Node19&#45;&gt;Node15 -->
<g id="edge22_Node000019_Node000015" class="edge">
<title>Node19&#45;&gt;Node15</title>
<g id="a_edge22_Node000019_Node000015"><a xlink:title=" ">
<path fill="none" stroke="#63b8ff" d="M1310.9,-122.4C1307.9,-121.91 1304.92,-121.44 1302,-121 1168.79,-100.79 1132.76,-113.13 1001,-85 997.53,-84.26 993.95,-83.37 990.39,-82.4"/>
<polygon fill="#63b8ff" stroke="#63b8ff" points="991.12,-78.97 980.54,-79.52 989.16,-85.69 991.12,-78.97"/>
</a>
</g>
</g>
<!-- Node19&#45;&gt;Node17 -->
<g id="edge23_Node000019_Node000017" class="edge">
<title>Node19&#45;&gt;Node17</title>
<g id="a_edge23_Node000019_Node000017"><a xlink:title=" ">
<path fill="none" stroke="#63b8ff" d="M1311.07,-120.95C1254.51,-109.09 1174.75,-92.35 1123.45,-81.59"/>
<polygon fill="#63b8ff" stroke="#63b8ff" points="1124.1,-78.15 1113.59,-79.52 1122.66,-85 1124.1,-78.15"/>
</a>
</g>
</g>
<!-- Node20&#45;&gt;Node9 -->
<g id="edge28_Node000020_Node000009" class="edge">
<title>Node20&#45;&gt;Node9</title>
<g id="a_edge28_Node000020_Node000009"><a xlink:title=" ">
<path fill="none" stroke="#63b8ff" d="M528.76,-120.95C581.57,-109.14 655.96,-92.49 704.09,-81.72"/>
<polygon fill="#63b8ff" stroke="#63b8ff" points="704.94,-85.12 713.94,-79.52 703.42,-78.29 704.94,-85.12"/>
</a>
</g>
</g>
<!-- Node20&#45;&gt;Node13 -->
<g id="edge25_Node000020_Node000013" class="edge">
<title>Node20&#45;&gt;Node13</title>
<g id="a_edge25_Node000020_Node000013"><a xlink:title=" ">
<path fill="none" stroke="#63b8ff" d="M491.25,-120.96C526.18,-102.29 591.78,-69.92 652,-55 847.61,-6.54 904.15,-44.96 1104,-19 1107.76,-18.51 1111.67,-17.93 1115.56,-17.3"/>
<polygon fill="#63b8ff" stroke="#63b8ff" points="1116.44,-20.7 1125.7,-15.55 1115.26,-13.8 1116.44,-20.7"/>
</a>
</g>
</g>
<!-- Node20&#45;&gt;Node15 -->
<g id="edge26_Node000020_Node000015" class="edge">
<title>Node20&#45;&gt;Node15</title>
<g id="a_edge26_Node000020_Node000015"><a xlink:title=" ">
<path fill="none" stroke="#63b8ff" d="M533.1,-122.41C536.1,-121.92 539.08,-121.44 542,-121 674.61,-100.8 832.13,-83.65 909.04,-75.71"/>
<polygon fill="#63b8ff" stroke="#63b8ff" points="909.75,-79.16 919.35,-74.66 909.04,-72.19 909.75,-79.16"/>
</a>
</g>
</g>
<!-- Node20&#45;&gt;Node17 -->
<g id="edge27_Node000020_Node000017" class="edge">
<title>Node20&#45;&gt;Node17</title>
<g id="a_edge27_Node000020_Node000017"><a xlink:title=" ">
<path fill="none" stroke="#63b8ff" d="M533.08,-122.25C536.09,-121.8 539.07,-121.38 542,-121 744.89,-94.43 798.24,-112.57 1001,-85 1008.29,-84.01 1015.95,-82.75 1023.45,-81.4"/>
<polygon fill="#63b8ff" stroke="#63b8ff" points="1024.34,-84.8 1033.52,-79.52 1023.05,-77.92 1024.34,-84.8"/>
</a>
</g>
</g>
<!-- Node21&#45;&gt;Node9 -->
<g id="edge32_Node000021_Node000009" class="edge">
<title>Node21&#45;&gt;Node9</title>
<g id="a_edge32_Node000021_Node000009"><a xlink:title=" ">
<path fill="none" stroke="#63b8ff" d="M647.41,-120.95C670.49,-109.93 702.38,-94.7 724.86,-83.96"/>
<polygon fill="#63b8ff" stroke="#63b8ff" points="726.65,-86.99 734.17,-79.52 723.63,-80.67 726.65,-86.99"/>
</a>
</g>
</g>
<!-- Node21&#45;&gt;Node13 -->
<g id="edge30_Node000021_Node000013" class="edge">
<title>Node21&#45;&gt;Node13</title>
<g id="a_edge30_Node000021_Node000013"><a xlink:title=" ">
<path fill="none" stroke="#63b8ff" d="M626.57,-120.74C638.72,-101.97 662.87,-69.65 693,-55 775.46,-14.91 1013.13,-31.17 1104,-19 1107.75,-18.5 1111.67,-17.9 1115.56,-17.27"/>
<polygon fill="#63b8ff" stroke="#63b8ff" points="1116.44,-20.67 1125.7,-15.51 1115.25,-13.77 1116.44,-20.67"/>
</a>
</g>
</g>
<!-- Node21&#45;&gt;Node15 -->
<g id="edge31_Node000021_Node000015" class="edge">
<title>Node21&#45;&gt;Node15</title>
<g id="a_edge31_Node000021_Node000015"><a xlink:title=" ">
<path fill="none" stroke="#63b8ff" d="M685.18,-122.28C751.47,-109.73 851.08,-90.87 909.22,-79.86"/>
<polygon fill="#63b8ff" stroke="#63b8ff" points="910.05,-83.26 919.22,-77.96 908.75,-76.39 910.05,-83.26"/>
</a>
</g>
</g>
<!-- Node21&#45;&gt;Node17 -->
<g id="edge33_Node000021_Node000017" class="edge">
<title>Node21&#45;&gt;Node17</title>
<g id="a_edge33_Node000021_Node000017"><a xlink:title=" ">
<path fill="none" stroke="#63b8ff" d="M685.1,-122.39C688.1,-121.91 691.08,-121.44 694,-121 829.85,-100.55 865.25,-106.13 1001,-85 1007.76,-83.95 1014.86,-82.72 1021.85,-81.44"/>
<polygon fill="#63b8ff" stroke="#63b8ff" points="1022.79,-84.82 1031.97,-79.53 1021.5,-77.94 1022.79,-84.82"/>
</a>
</g>
</g>
<!-- Node22&#45;&gt;Node9 -->
<g id="edge37_Node000022_Node000009" class="edge">
<title>Node22&#45;&gt;Node9</title>
<g id="a_edge37_Node000022_Node000009"><a xlink:title=" ">
<path fill="none" stroke="#63b8ff" d="M766.01,-120.8C763.42,-111.6 760.02,-99.53 757.23,-89.58"/>
<polygon fill="#63b8ff" stroke="#63b8ff" points="760.56,-88.52 754.49,-79.84 753.83,-90.42 760.56,-88.52"/>
</a>
</g>
</g>
<!-- Node22&#45;&gt;Node13 -->
<g id="edge35_Node000022_Node000013" class="edge">
<title>Node22&#45;&gt;Node13</title>
<g id="a_edge35_Node000022_Node000013"><a xlink:title=" ">
<path fill="none" stroke="#63b8ff" d="M787.63,-120.98C811.45,-102.79 855.91,-71.44 899,-55 985.43,-22.03 1012.93,-35.23 1104,-19 1107.73,-18.34 1111.63,-17.64 1115.51,-16.94"/>
<polygon fill="#63b8ff" stroke="#63b8ff" points="1116.42,-20.33 1125.64,-15.11 1115.17,-13.44 1116.42,-20.33"/>
</a>
</g>
</g>
<!-- Node22&#45;&gt;Node15 -->
<g id="edge36_Node000022_Node000015" class="edge">
<title>Node22&#45;&gt;Node15</title>
<g id="a_edge36_Node000022_Node000015"><a xlink:title=" ">
<path fill="none" stroke="#63b8ff" d="M810.82,-120.95C844.01,-109.53 890.32,-93.6 921.64,-82.82"/>
<polygon fill="#63b8ff" stroke="#63b8ff" points="922.93,-86.08 931.25,-79.52 920.65,-79.46 922.93,-86.08"/>
</a>
</g>
</g>
<!-- Node22&#45;&gt;Node17 -->
<g id="edge38_Node000022_Node000017" class="edge">
<title>Node22&#45;&gt;Node17</title>
<g id="a_edge38_Node000022_Node000017"><a xlink:title=" ">
<path fill="none" stroke="#63b8ff" d="M836.49,-120.95C892.68,-109.09 971.92,-92.35 1022.88,-81.59"/>
<polygon fill="#63b8ff" stroke="#63b8ff" points="1023.62,-85.01 1032.68,-79.52 1022.17,-78.16 1023.62,-85.01"/>
</a>
</g>
</g>
<!-- Node23&#45;&gt;Node9 -->
<g id="edge42_Node000023_Node000009" class="edge">
<title>Node23&#45;&gt;Node9</title>
<g id="a_edge42_Node000023_Node000009"><a xlink:title=" ">
<path fill="none" stroke="#63b8ff" d="M1006.89,-121.66C946.85,-109.73 860.04,-92.47 804.83,-81.5"/>
<polygon fill="#63b8ff" stroke="#63b8ff" points="805.39,-78.04 794.9,-79.53 804.02,-84.91 805.39,-78.04"/>
</a>
</g>
</g>
<!-- Node23&#45;&gt;Node13 -->
<g id="edge40_Node000023_Node000013" class="edge">
<title>Node23&#45;&gt;Node13</title>
<g id="a_edge40_Node000023_Node000013"><a xlink:title=" ">
<path fill="none" stroke="#63b8ff" d="M1104.71,-120.81C1119.12,-112.49 1135.06,-100.53 1144,-85 1153.7,-68.15 1154.45,-45.53 1153.4,-29.66"/>
<polygon fill="#63b8ff" stroke="#63b8ff" points="1156.86,-29.09 1152.42,-19.47 1149.89,-29.76 1156.86,-29.09"/>
</a>
</g>
</g>
<!-- Node23&#45;&gt;Node15 -->
<g id="edge41_Node000023_Node000015" class="edge">
<title>Node23&#45;&gt;Node15</title>
<g id="a_edge41_Node000023_Node000015"><a xlink:title=" ">
<path fill="none" stroke="#63b8ff" d="M1048.1,-120.95C1028.05,-110.08 1000.45,-95.11 980.7,-84.4"/>
<polygon fill="#63b8ff" stroke="#63b8ff" points="982.16,-81.21 971.7,-79.52 978.83,-87.36 982.16,-81.21"/>
</a>
</g>
</g>
<!-- Node23&#45;&gt;Node17 -->
<g id="edge43_Node000023_Node000017" class="edge">
<title>Node23&#45;&gt;Node17</title>
<g id="a_edge43_Node000023_Node000017"><a xlink:title=" ">
<path fill="none" stroke="#63b8ff" d="M1073.78,-120.8C1073.64,-111.7 1073.45,-99.79 1073.3,-89.9"/>
<polygon fill="#63b8ff" stroke="#63b8ff" points="1076.79,-89.79 1073.14,-79.84 1069.79,-89.9 1076.79,-89.79"/>
</a>
</g>
</g>
<!-- Node24&#45;&gt;Node13 -->
<g id="edge45_Node000024_Node000013" class="edge">
<title>Node24&#45;&gt;Node13</title>
<g id="a_edge45_Node000024_Node000013"><a xlink:title=" ">
<path fill="none" stroke="#63b8ff" d="M1557.86,-57.09C1553.18,-56.35 1548.52,-55.65 1544,-55 1412.7,-36.24 1255.79,-20.45 1186.67,-13.84"/>
<polygon fill="#63b8ff" stroke="#63b8ff" points="1186.64,-10.32 1176.35,-12.85 1185.98,-17.28 1186.64,-10.32"/>
</a>
</g>
</g>
<!-- Node25&#45;&gt;Node9 -->
<g id="edge49_Node000025_Node000009" class="edge">
<title>Node25&#45;&gt;Node9</title>
<g id="a_edge49_Node000025_Node000009"><a xlink:title=" ">
<path fill="none" stroke="#63b8ff" d="M884.69,-120.95C854.62,-109.63 812.76,-93.88 784.15,-83.1"/>
<polygon fill="#63b8ff" stroke="#63b8ff" points="785.22,-79.77 774.62,-79.52 782.75,-86.32 785.22,-79.77"/>
</a>
</g>
</g>
<!-- Node25&#45;&gt;Node13 -->
<g id="edge47_Node000025_Node000013" class="edge">
<title>Node25&#45;&gt;Node13</title>
<g id="a_edge47_Node000025_Node000013"><a xlink:title=" ">
<path fill="none" stroke="#63b8ff" d="M913.98,-120.81C905.28,-103.3 894.55,-73.57 910,-55 910.41,-54.5 1048.77,-29.17 1115.63,-16.96"/>
<polygon fill="#63b8ff" stroke="#63b8ff" points="1116.51,-20.35 1125.72,-15.11 1115.25,-13.47 1116.51,-20.35"/>
</a>
</g>
</g>
<!-- Node25&#45;&gt;Node15 -->
<g id="edge48_Node000025_Node000015" class="edge">
<title>Node25&#45;&gt;Node15</title>
<g id="a_edge48_Node000025_Node000015"><a xlink:title=" ">
<path fill="none" stroke="#63b8ff" d="M929.55,-120.8C934.53,-111.41 941.12,-99.02 946.47,-88.95"/>
<polygon fill="#63b8ff" stroke="#63b8ff" points="949.7,-90.32 951.3,-79.84 943.52,-87.03 949.7,-90.32"/>
</a>
</g>
</g>
<!-- Node25&#45;&gt;Node17 -->
<g id="edge50_Node000025_Node000017" class="edge">
<title>Node25&#45;&gt;Node17</title>
<g id="a_edge50_Node000025_Node000017"><a xlink:title=" ">
<path fill="none" stroke="#63b8ff" d="M955.14,-120.95C981.5,-109.78 1018.06,-94.29 1043.44,-83.53"/>
<polygon fill="#63b8ff" stroke="#63b8ff" points="1045.06,-86.64 1052.9,-79.52 1042.33,-80.2 1045.06,-86.64"/>
</a>
</g>
</g>
<!-- Node26&#45;&gt;Node6 -->
<g id="edge52_Node000026_Node000006" class="edge">
<title>Node26&#45;&gt;Node6</title>
<g id="a_edge52_Node000026_Node000006"><a xlink:title=" ">
<path fill="none" stroke="#63b8ff" d="M285.69,-120.95C263.57,-109.98 233.04,-94.83 211.42,-84.11"/>
<polygon fill="#63b8ff" stroke="#63b8ff" points="212.68,-80.83 202.17,-79.52 209.57,-87.1 212.68,-80.83"/>
</a>
</g>
</g>
<!-- Node26&#45;&gt;Node9 -->
<g id="edge53_Node000026_Node000009" class="edge">
<title>Node26&#45;&gt;Node9</title>
<g id="a_edge53_Node000026_Node000009"><a xlink:title=" ">
<path fill="none" stroke="#63b8ff" d="M381.11,-122.47C384.11,-121.96 387.09,-121.47 390,-121 495.82,-103.95 619.62,-87.63 691.59,-78.5"/>
<polygon fill="#63b8ff" stroke="#63b8ff" points="692.34,-81.93 701.83,-77.21 691.47,-74.99 692.34,-81.93"/>
</a>
</g>
</g>
<!-- Node26&#45;&gt;Node10 -->
<g id="edge54_Node000026_Node000010" class="edge">
<title>Node26&#45;&gt;Node10</title>
<g id="a_edge54_Node000026_Node000010"><a xlink:title=" ">
<path fill="none" stroke="#63b8ff" d="M314,-120.8C314,-111.7 314,-99.79 314,-89.9"/>
<polygon fill="#63b8ff" stroke="#63b8ff" points="317.5,-89.84 314,-79.84 310.5,-89.84 317.5,-89.84"/>
</a>
</g>
</g>
<!-- Node27&#45;&gt;Node9 -->
<g id="edge58_Node000027_Node000009" class="edge">
<title>Node27&#45;&gt;Node9</title>
<g id="a_edge58_Node000027_Node000009"><a xlink:title=" ">
<path fill="none" stroke="#63b8ff" d="M1158.9,-122.42C1155.89,-121.93 1152.92,-121.45 1150,-121 1030.62,-102.52 890.29,-86.13 812.21,-77.48"/>
<polygon fill="#63b8ff" stroke="#63b8ff" points="812.4,-73.98 802.08,-76.36 811.63,-80.94 812.4,-73.98"/>
</a>
</g>
</g>
<!-- Node27&#45;&gt;Node13 -->
<g id="edge56_Node000027_Node000013" class="edge">
<title>Node27&#45;&gt;Node13</title>
<g id="a_edge56_Node000027_Node000013"><a xlink:title=" ">
<path fill="none" stroke="#63b8ff" d="M1217.52,-120.83C1207.95,-104.82 1191.89,-78.02 1178,-55 1172.56,-45.99 1166.49,-35.97 1161.48,-27.72"/>
<polygon fill="#63b8ff" stroke="#63b8ff" points="1164.37,-25.75 1156.19,-19.02 1158.39,-29.39 1164.37,-25.75"/>
</a>
</g>
</g>
<!-- Node27&#45;&gt;Node15 -->
<g id="edge57_Node000027_Node000015" class="edge">
<title>Node27&#45;&gt;Node15</title>
<g id="a_edge57_Node000027_Node000015"><a xlink:title=" ">
<path fill="none" stroke="#63b8ff" d="M1158.7,-121.57C1113.8,-112.23 1053.59,-99 1001,-85 998.01,-84.2 994.93,-83.34 991.84,-82.44"/>
<polygon fill="#63b8ff" stroke="#63b8ff" points="992.65,-79.03 982.07,-79.51 990.64,-85.74 992.65,-79.03"/>
</a>
</g>
</g>
<!-- Node27&#45;&gt;Node17 -->
<g id="edge59_Node000027_Node000017" class="edge">
<title>Node27&#45;&gt;Node17</title>
<g id="a_edge59_Node000027_Node000017"><a xlink:title=" ">
<path fill="none" stroke="#63b8ff" d="M1192.42,-120.95C1165.59,-109.73 1128.34,-94.15 1102.61,-83.39"/>
<polygon fill="#63b8ff" stroke="#63b8ff" points="1103.94,-80.15 1093.36,-79.52 1101.24,-86.61 1103.94,-80.15"/>
</a>
</g>
</g>
<!-- Node28&#45;&gt;Node13 -->
<g id="edge61_Node000028_Node000013" class="edge">
<title>Node28&#45;&gt;Node13</title>
<g id="a_edge61_Node000028_Node000013"><a xlink:title=" ">
<path fill="none" stroke="#63b8ff" d="M134.06,-56.1C137.08,-55.69 140.07,-55.32 143,-55 567.84,-8.16 679.09,-65.15 1104,-19 1107.77,-18.59 1111.69,-18.06 1115.58,-17.46"/>
<polygon fill="#63b8ff" stroke="#63b8ff" points="1116.45,-20.86 1125.73,-15.75 1115.29,-13.96 1116.45,-20.86"/>
</a>
</g>
</g>
<!-- Node29&#45;&gt;Node13 -->
<g id="edge63_Node000029_Node000013" class="edge">
<title>Node29&#45;&gt;Node13</title>
<g id="a_edge63_Node000029_Node000013"><a xlink:title=" ">
<path fill="none" stroke="#63b8ff" d="M1721.19,-120.93C1721.88,-102.68 1719.96,-71.27 1701,-55 1661.96,-21.5 1301.24,-12.89 1186.13,-10.98"/>
<polygon fill="#63b8ff" stroke="#63b8ff" points="1186.14,-7.48 1176.08,-10.82 1186.02,-14.48 1186.14,-7.48"/>
</a>
</g>
</g>
<!-- Node30 -->
<g id="Node000030" class="node">
<title>Node30</title>
<g id="a_Node000030"><a xlink:title=" ">
<polygon fill="#e0e0e0" stroke="#999999" points="1843,-79.5 1799,-79.5 1799,-60.5 1843,-60.5 1843,-79.5"/>
<text text-anchor="middle" x="1821" y="-67.5" font-family="Helvetica,sans-Serif" font-size="10.00">limits</text>
</a>
</g>
</g>
<!-- Node29&#45;&gt;Node30 -->
<g id="edge64_Node000029_Node000030" class="edge">
<title>Node29&#45;&gt;Node30</title>
<g id="a_edge64_Node000029_Node000030"><a xlink:title=" ">
<path fill="none" stroke="#63b8ff" d="M1742.42,-120.8C1759.19,-110.17 1782.01,-95.7 1798.75,-85.1"/>
<polygon fill="#63b8ff" stroke="#63b8ff" points="1800.76,-87.97 1807.34,-79.66 1797.02,-82.05 1800.76,-87.97"/>
</a>
</g>
</g>
<!-- Node31&#45;&gt;Node30 -->
<g id="edge66_Node000031_Node000030" class="edge">
<title>Node31&#45;&gt;Node30</title>
<g id="a_edge66_Node000031_Node000030"><a xlink:title=" ">
<path fill="none" stroke="#63b8ff" d="M1860.68,-120.8C1852.89,-111.01 1842.5,-97.98 1834.31,-87.7"/>
<polygon fill="#63b8ff" stroke="#63b8ff" points="1837.02,-85.48 1828.05,-79.84 1831.54,-89.85 1837.02,-85.48"/>
</a>
</g>
</g>
</g>
</svg>
