<?xml version="1.0" encoding="UTF-8" standalone="no"?>
<!DOCTYPE svg PUBLIC "-//W3C//DTD SVG 1.1//EN"
 "http://www.w3.org/Graphics/SVG/1.1/DTD/svg11.dtd">
<!-- Generated by graphviz version 2.43.0 (0)
 -->
<!-- Title: UiActionCommand.ixx Pages: 1 -->
<svg width="1237pt" height="390pt"
 viewBox="0.00 0.00 1236.50 390.00" xmlns="http://www.w3.org/2000/svg" xmlns:xlink="http://www.w3.org/1999/xlink">
<g id="graph0" class="graph" transform="scale(1 1) rotate(0) translate(4 386)">
<title>UiActionCommand.ixx</title>
<!-- Node1 -->
<g id="Node000001" class="node">
<title>Node1</title>
<g id="a_Node000001"><a xlink:title="Command for triggering UI actions.">
<polygon fill="#999999" stroke="#666666" points="685,-382 559,-382 559,-363 685,-363 685,-382"/>
<text text-anchor="middle" x="622" y="-370" font-family="Helvetica,sans-Serif" font-size="10.00">UiActionCommand.ixx</text>
</a>
</g>
</g>
<!-- Node2 -->
<g id="Node000002" class="node">
<title>Node2</title>
<g id="a_Node000002"><a xlink:title=" ">
<polygon fill="#e0e0e0" stroke="#999999" points="520,-327 468,-327 468,-308 520,-308 520,-327"/>
<text text-anchor="middle" x="494" y="-315" font-family="Helvetica,sans-Serif" font-size="10.00">cassert</text>
</a>
</g>
</g>
<!-- Node1&#45;&gt;Node2 -->
<g id="edge1_Node000001_Node000002" class="edge">
<title>Node1&#45;&gt;Node2</title>
<g id="a_edge1_Node000001_Node000002"><a xlink:title=" ">
<path fill="none" stroke="#63b8ff" d="M601.43,-362.98C580.57,-354.34 548.03,-340.87 524.23,-331.02"/>
<polygon fill="#63b8ff" stroke="#63b8ff" points="525.52,-327.76 514.94,-327.17 522.84,-334.23 525.52,-327.76"/>
</a>
</g>
</g>
<!-- Node3 -->
<g id="Node000003" class="node">
<title>Node3</title>
<g id="a_Node000003"><a xlink:title=" ">
<polygon fill="#e0e0e0" stroke="#999999" points="594,-327 538,-327 538,-308 594,-308 594,-327"/>
<text text-anchor="middle" x="566" y="-315" font-family="Helvetica,sans-Serif" font-size="10.00">optional</text>
</a>
</g>
</g>
<!-- Node1&#45;&gt;Node3 -->
<g id="edge2_Node000001_Node000003" class="edge">
<title>Node1&#45;&gt;Node3</title>
<g id="a_edge2_Node000001_Node000003"><a xlink:title=" ">
<path fill="none" stroke="#63b8ff" d="M613,-362.98C604.81,-355.23 592.49,-343.58 582.53,-334.14"/>
<polygon fill="#63b8ff" stroke="#63b8ff" points="584.83,-331.5 575.16,-327.17 580.02,-336.59 584.83,-331.5"/>
</a>
</g>
</g>
<!-- Node4 -->
<g id="Node000004" class="node">
<title>Node4</title>
<g id="a_Node000004"><a xlink:href="ActionId_8ixx.html" target="_top" xlink:title="Strongly&#45;typed identifier for UI actions.">
<polygon fill="white" stroke="#666666" points="766.5,-272 553.5,-272 553.5,-242 766.5,-242 766.5,-272"/>
<text text-anchor="start" x="561.5" y="-260" font-family="Helvetica,sans-Serif" font-size="10.00">helios.engine.modules.ui.widgets.types.</text>
<text text-anchor="middle" x="660" y="-249" font-family="Helvetica,sans-Serif" font-size="10.00">ActionId</text>
</a>
</g>
</g>
<!-- Node1&#45;&gt;Node4 -->
<g id="edge3_Node000001_Node000004" class="edge">
<title>Node1&#45;&gt;Node4</title>
<g id="a_edge3_Node000001_Node000004"><a xlink:title=" ">
<path fill="none" stroke="#63b8ff" d="M624.86,-362.97C630.56,-345.93 643.54,-307.16 652.03,-281.8"/>
<polygon fill="#63b8ff" stroke="#63b8ff" points="655.4,-282.77 655.25,-272.18 648.76,-280.55 655.4,-282.77"/>
</a>
</g>
</g>
<!-- Node15 -->
<g id="Node000015" class="node">
<title>Node15</title>
<g id="a_Node000015"><a xlink:href="engine_2ecs_2EntityHandle_8ixx.html" target="_top" xlink:title="Versioned handle for referencing entities in an EntityPool.">
<polygon fill="white" stroke="#666666" points="427.5,-272 294.5,-272 294.5,-242 427.5,-242 427.5,-272"/>
<text text-anchor="start" x="302.5" y="-260" font-family="Helvetica,sans-Serif" font-size="10.00">helios.engine.ecs.Entity</text>
<text text-anchor="middle" x="361" y="-249" font-family="Helvetica,sans-Serif" font-size="10.00">Handle</text>
</a>
</g>
</g>
<!-- Node1&#45;&gt;Node15 -->
<g id="edge19_Node000001_Node000015" class="edge">
<title>Node1&#45;&gt;Node15</title>
<g id="a_edge19_Node000001_Node000015"><a xlink:title=" ">
<path fill="none" stroke="#63b8ff" d="M622.04,-362.65C621.6,-348.85 618.61,-322.31 603,-308 579.15,-286.14 499.37,-272.68 437.87,-265.31"/>
<polygon fill="#63b8ff" stroke="#63b8ff" points="438.12,-261.82 427.78,-264.14 437.31,-268.77 438.12,-261.82"/>
</a>
</g>
</g>
<!-- Node22 -->
<g id="Node000022" class="node">
<title>Node22</title>
<g id="a_Node000022"><a xlink:href="helios_2engine_2modules_2ui_2widgets_2types_2__module_8ixx.html" target="_top" xlink:title="Aggregate module for UI widget type identifiers.">
<polygon fill="white" stroke="#666666" points="947,-327 737,-327 737,-308 947,-308 947,-327"/>
<text text-anchor="middle" x="842" y="-315" font-family="Helvetica,sans-Serif" font-size="10.00">helios.engine.modules.ui.widgets.types</text>
</a>
</g>
</g>
<!-- Node1&#45;&gt;Node22 -->
<g id="edge32_Node000001_Node000022" class="edge">
<title>Node1&#45;&gt;Node22</title>
<g id="a_edge32_Node000001_Node000022"><a xlink:title=" ">
<path fill="none" stroke="#63b8ff" d="M657.35,-362.98C695.16,-353.87 755.26,-339.4 796.57,-329.45"/>
<polygon fill="#63b8ff" stroke="#63b8ff" points="797.47,-332.83 806.38,-327.08 795.83,-326.02 797.47,-332.83"/>
</a>
</g>
</g>
<!-- Node5 -->
<g id="Node000005" class="node">
<title>Node5</title>
<g id="a_Node000005"><a xlink:title=" ">
<polygon fill="#e0e0e0" stroke="#999999" points="713,-19 663,-19 663,0 713,0 713,-19"/>
<text text-anchor="middle" x="688" y="-7" font-family="Helvetica,sans-Serif" font-size="10.00">cstdint</text>
</a>
</g>
</g>
<!-- Node4&#45;&gt;Node5 -->
<g id="edge4_Node000004_Node000005" class="edge">
<title>Node4&#45;&gt;Node5</title>
<g id="a_edge4_Node000004_Node000005"><a xlink:title=" ">
<path fill="none" stroke="#63b8ff" d="M652.45,-241.97C635.26,-207.95 597.03,-119.15 629,-55 635.57,-41.82 648.1,-31.52 659.93,-24.16"/>
<polygon fill="#63b8ff" stroke="#63b8ff" points="661.8,-27.12 668.73,-19.1 658.32,-21.05 661.8,-27.12"/>
</a>
</g>
</g>
<!-- Node6 -->
<g id="Node000006" class="node">
<title>Node6</title>
<g id="a_Node000006"><a xlink:title=" ">
<polygon fill="#e0e0e0" stroke="#999999" points="1050.5,-74 977.5,-74 977.5,-55 1050.5,-55 1050.5,-74"/>
<text text-anchor="middle" x="1014" y="-62" font-family="Helvetica,sans-Serif" font-size="10.00">string_view</text>
</a>
</g>
</g>
<!-- Node4&#45;&gt;Node6 -->
<g id="edge5_Node000004_Node000006" class="edge">
<title>Node4&#45;&gt;Node6</title>
<g id="a_edge5_Node000004_Node000006"><a xlink:title=" ">
<path fill="none" stroke="#63b8ff" d="M720.78,-241.92C750.97,-233.66 787.42,-221.72 818,-206 837.76,-195.84 838.17,-186.04 858,-176 907.3,-151.04 934.8,-175.67 977,-140 994.19,-125.47 1004.16,-101.02 1009.34,-84.11"/>
<polygon fill="#63b8ff" stroke="#63b8ff" points="1012.76,-84.84 1012.07,-74.27 1006.02,-82.97 1012.76,-84.84"/>
</a>
</g>
</g>
<!-- Node7 -->
<g id="Node000007" class="node">
<title>Node7</title>
<g id="a_Node000007"><a xlink:href="helios_2core_2data_2__module_8ixx.html" target="_top" xlink:title="Aggregate module for helios::core::data namespace.">
<polygon fill="white" stroke="#666666" points="809.5,-200.5 714.5,-200.5 714.5,-181.5 809.5,-181.5 809.5,-200.5"/>
<text text-anchor="middle" x="762" y="-188.5" font-family="Helvetica,sans-Serif" font-size="10.00">helios.core.data</text>
</a>
</g>
</g>
<!-- Node4&#45;&gt;Node7 -->
<g id="edge6_Node000004_Node000007" class="edge">
<title>Node4&#45;&gt;Node7</title>
<g id="a_edge6_Node000004_Node000007"><a xlink:title=" ">
<path fill="none" stroke="#63b8ff" d="M682.38,-241.95C699.41,-231.27 722.71,-216.65 739.71,-205.98"/>
<polygon fill="#63b8ff" stroke="#63b8ff" points="741.82,-208.8 748.43,-200.52 738.09,-202.87 741.82,-208.8"/>
</a>
</g>
</g>
<!-- Node9 -->
<g id="Node000009" class="node">
<title>Node9</title>
<g id="a_Node000009"><a xlink:href="types_8ixx.html" target="_top" xlink:title="Core type definitions and tag types for the helios engine.">
<polygon fill="white" stroke="#666666" points="738,-74 638,-74 638,-55 738,-55 738,-74"/>
<text text-anchor="middle" x="688" y="-62" font-family="Helvetica,sans-Serif" font-size="10.00">helios.core.types</text>
</a>
</g>
</g>
<!-- Node4&#45;&gt;Node9 -->
<g id="edge17_Node000004_Node000009" class="edge">
<title>Node4&#45;&gt;Node9</title>
<g id="a_edge17_Node000004_Node000009"><a xlink:title=" ">
<path fill="none" stroke="#63b8ff" d="M659.94,-241.72C660.09,-215.38 661.7,-157.47 672,-110 673.94,-101.07 677.21,-91.5 680.3,-83.53"/>
<polygon fill="#63b8ff" stroke="#63b8ff" points="683.58,-84.75 684.11,-74.16 677.1,-82.1 683.58,-84.75"/>
</a>
</g>
</g>
<!-- Node14 -->
<g id="Node000014" class="node">
<title>Node14</title>
<g id="a_Node000014"><a xlink:title=" ">
<polygon fill="#e0e0e0" stroke="#999999" points="991.5,-200.5 866.5,-200.5 866.5,-181.5 991.5,-181.5 991.5,-200.5"/>
<text text-anchor="middle" x="929" y="-188.5" font-family="Helvetica,sans-Serif" font-size="10.00">helios.core.algorithms</text>
</a>
</g>
</g>
<!-- Node4&#45;&gt;Node14 -->
<g id="edge18_Node000004_Node000014" class="edge">
<title>Node4&#45;&gt;Node14</title>
<g id="a_edge18_Node000004_Node000014"><a xlink:title=" ">
<path fill="none" stroke="#63b8ff" d="M719.03,-241.95C768.49,-230.19 838.09,-213.63 883.36,-202.86"/>
<polygon fill="#63b8ff" stroke="#63b8ff" points="884.28,-206.24 893.2,-200.52 882.66,-199.43 884.28,-206.24"/>
</a>
</g>
</g>
<!-- Node8 -->
<g id="Node000008" class="node">
<title>Node8</title>
<g id="a_Node000008"><a xlink:href="RuntimeHandle_8ixx.html" target="_top" xlink:title="Lightweight handle pairing a strong identifier with a runtime index.">
<polygon fill="white" stroke="#666666" points="967.5,-140 828.5,-140 828.5,-110 967.5,-110 967.5,-140"/>
<text text-anchor="start" x="836.5" y="-128" font-family="Helvetica,sans-Serif" font-size="10.00">helios.core.data.Runtime</text>
<text text-anchor="middle" x="898" y="-117" font-family="Helvetica,sans-Serif" font-size="10.00">Handle</text>
</a>
</g>
</g>
<!-- Node7&#45;&gt;Node8 -->
<g id="edge7_Node000007_Node000008" class="edge">
<title>Node7&#45;&gt;Node8</title>
<g id="a_edge7_Node000007_Node000008"><a xlink:title=" ">
<path fill="none" stroke="#63b8ff" d="M780.34,-181.37C800.36,-171.95 833,-156.59 858.83,-144.43"/>
<polygon fill="#63b8ff" stroke="#63b8ff" points="860.45,-147.54 868,-140.12 857.47,-141.21 860.45,-147.54"/>
</a>
</g>
</g>
<!-- Node11 -->
<g id="Node000011" class="node">
<title>Node11</title>
<g id="a_Node000011"><a xlink:title=" ">
<polygon fill="#e0e0e0" stroke="#999999" points="894,-74 756,-74 756,-55 894,-55 894,-74"/>
<text text-anchor="middle" x="825" y="-62" font-family="Helvetica,sans-Serif" font-size="10.00">helios.core.data.StrongId</text>
</a>
</g>
</g>
<!-- Node7&#45;&gt;Node11 -->
<g id="edge14_Node000007_Node000011" class="edge">
<title>Node7&#45;&gt;Node11</title>
<g id="a_edge14_Node000007_Node000011"><a xlink:title=" ">
<path fill="none" stroke="#63b8ff" d="M766.33,-181.44C776.54,-161.27 802.27,-110.42 816.01,-83.26"/>
<polygon fill="#63b8ff" stroke="#63b8ff" points="819.25,-84.62 820.64,-74.12 813,-81.46 819.25,-84.62"/>
</a>
</g>
</g>
<!-- Node12 -->
<g id="Node000012" class="node">
<title>Node12</title>
<g id="a_Node000012"><a xlink:href="TypeIndexer_8ixx.html" target="_top" xlink:title="Utility for generating unique type indices at runtime.">
<polygon fill="white" stroke="#666666" points="582,-74 426,-74 426,-55 582,-55 582,-74"/>
<text text-anchor="middle" x="504" y="-62" font-family="Helvetica,sans-Serif" font-size="10.00">helios.core.data.TypeIndexer</text>
</a>
</g>
</g>
<!-- Node7&#45;&gt;Node12 -->
<g id="edge15_Node000007_Node000012" class="edge">
<title>Node7&#45;&gt;Node12</title>
<g id="a_edge15_Node000007_Node000012"><a xlink:title=" ">
<path fill="none" stroke="#63b8ff" d="M744.27,-181.44C699.9,-160.03 583.85,-104.03 530.97,-78.51"/>
<polygon fill="#63b8ff" stroke="#63b8ff" points="532.38,-75.31 521.86,-74.12 529.34,-81.62 532.38,-75.31"/>
</a>
</g>
</g>
<!-- Node8&#45;&gt;Node5 -->
<g id="edge8_Node000008_Node000005" class="edge">
<title>Node8&#45;&gt;Node5</title>
<g id="a_edge8_Node000008_Node000005"><a xlink:title=" ">
<path fill="none" stroke="#63b8ff" d="M904.19,-109.87C909.82,-94.59 915.51,-70.37 903,-55 880.73,-27.65 778.29,-16.59 723.24,-12.56"/>
<polygon fill="#63b8ff" stroke="#63b8ff" points="723.44,-9.06 713.22,-11.86 722.95,-16.04 723.44,-9.06"/>
</a>
</g>
</g>
<!-- Node8&#45;&gt;Node6 -->
<g id="edge9_Node000008_Node000006" class="edge">
<title>Node8&#45;&gt;Node6</title>
<g id="a_edge9_Node000008_Node000006"><a xlink:title=" ">
<path fill="none" stroke="#63b8ff" d="M925.78,-109.99C944.62,-100.49 969.35,-88.02 987.84,-78.69"/>
<polygon fill="#63b8ff" stroke="#63b8ff" points="989.52,-81.77 996.87,-74.14 986.36,-75.52 989.52,-81.77"/>
</a>
</g>
</g>
<!-- Node8&#45;&gt;Node9 -->
<g id="edge10_Node000008_Node000009" class="edge">
<title>Node8&#45;&gt;Node9</title>
<g id="a_edge10_Node000008_Node000009"><a xlink:title=" ">
<path fill="none" stroke="#63b8ff" d="M847.7,-109.99C811.3,-99.85 762.74,-86.32 728.75,-76.85"/>
<polygon fill="#63b8ff" stroke="#63b8ff" points="729.28,-73.37 718.71,-74.05 727.4,-80.11 729.28,-73.37"/>
</a>
</g>
</g>
<!-- Node8&#45;&gt;Node11 -->
<g id="edge13_Node000008_Node000011" class="edge">
<title>Node8&#45;&gt;Node11</title>
<g id="a_edge13_Node000008_Node000011"><a xlink:title=" ">
<path fill="none" stroke="#63b8ff" d="M880.33,-109.84C869.3,-101 855.11,-89.63 843.87,-80.62"/>
<polygon fill="#63b8ff" stroke="#63b8ff" points="845.93,-77.79 835.94,-74.27 841.55,-83.25 845.93,-77.79"/>
</a>
</g>
</g>
<!-- Node9&#45;&gt;Node5 -->
<g id="edge11_Node000009_Node000005" class="edge">
<title>Node9&#45;&gt;Node5</title>
<g id="a_edge11_Node000009_Node000005"><a xlink:title=" ">
<path fill="none" stroke="#63b8ff" d="M688,-54.75C688,-47.8 688,-37.85 688,-29.13"/>
<polygon fill="#63b8ff" stroke="#63b8ff" points="691.5,-29.09 688,-19.09 684.5,-29.09 691.5,-29.09"/>
</a>
</g>
</g>
<!-- Node10 -->
<g id="Node000010" class="node">
<title>Node10</title>
<g id="a_Node000010"><a xlink:title=" ">
<polygon fill="#e0e0e0" stroke="#999999" points="618,-19 574,-19 574,0 618,0 618,-19"/>
<text text-anchor="middle" x="596" y="-7" font-family="Helvetica,sans-Serif" font-size="10.00">limits</text>
</a>
</g>
</g>
<!-- Node9&#45;&gt;Node10 -->
<g id="edge12_Node000009_Node000010" class="edge">
<title>Node9&#45;&gt;Node10</title>
<g id="a_edge12_Node000009_Node000010"><a xlink:title=" ">
<path fill="none" stroke="#63b8ff" d="M673.22,-54.98C658.82,-46.69 636.69,-33.94 619.81,-24.22"/>
<polygon fill="#63b8ff" stroke="#63b8ff" points="621.46,-21.13 611.05,-19.17 617.97,-27.19 621.46,-21.13"/>
</a>
</g>
</g>
<!-- Node13 -->
<g id="Node000013" class="node">
<title>Node13</title>
<g id="a_Node000013"><a xlink:title=" ">
<polygon fill="#e0e0e0" stroke="#999999" points="529,-19 479,-19 479,0 529,0 529,-19"/>
<text text-anchor="middle" x="504" y="-7" font-family="Helvetica,sans-Serif" font-size="10.00">atomic</text>
</a>
</g>
</g>
<!-- Node12&#45;&gt;Node13 -->
<g id="edge16_Node000012_Node000013" class="edge">
<title>Node12&#45;&gt;Node13</title>
<g id="a_edge16_Node000012_Node000013"><a xlink:title=" ">
<path fill="none" stroke="#63b8ff" d="M504,-54.75C504,-47.8 504,-37.85 504,-29.13"/>
<polygon fill="#63b8ff" stroke="#63b8ff" points="507.5,-29.09 504,-19.09 500.5,-29.09 507.5,-29.09"/>
</a>
</g>
</g>
<!-- Node16 -->
<g id="Node000016" class="node">
<title>Node16</title>
<g id="a_Node000016"><a xlink:title=" ">
<polygon fill="#e0e0e0" stroke="#999999" points="407.5,-74 342.5,-74 342.5,-55 407.5,-55 407.5,-74"/>
<text text-anchor="middle" x="375" y="-62" font-family="Helvetica,sans-Serif" font-size="10.00">functional</text>
</a>
</g>
</g>
<!-- Node15&#45;&gt;Node16 -->
<g id="edge20_Node000015_Node000016" class="edge">
<title>Node15&#45;&gt;Node16</title>
<g id="a_edge20_Node000015_Node000016"><a xlink:title=" ">
<path fill="none" stroke="#63b8ff" d="M373.99,-241.92C381.74,-232.51 390.86,-219.44 395,-206 408.12,-163.38 392.69,-110.8 382.53,-83.65"/>
<polygon fill="#63b8ff" stroke="#63b8ff" points="385.75,-82.28 378.83,-74.26 379.24,-84.85 385.75,-82.28"/>
</a>
</g>
</g>
<!-- Node17 -->
<g id="Node000017" class="node">
<title>Node17</title>
<g id="a_Node000017"><a xlink:href="VersionId_8ixx.html" target="_top" xlink:title="Type alias for entity version numbers used in handle validation.">
<polygon fill="white" stroke="#666666" points="386.5,-206 225.5,-206 225.5,-176 386.5,-176 386.5,-206"/>
<text text-anchor="start" x="233.5" y="-194" font-family="Helvetica,sans-Serif" font-size="10.00">helios.engine.common.types.</text>
<text text-anchor="middle" x="306" y="-183" font-family="Helvetica,sans-Serif" font-size="10.00">VersionId</text>
</a>
</g>
</g>
<!-- Node15&#45;&gt;Node17 -->
<g id="edge21_Node000015_Node000017" class="edge">
<title>Node15&#45;&gt;Node17</title>
<g id="a_edge21_Node000015_Node000017"><a xlink:title=" ">
<path fill="none" stroke="#63b8ff" d="M348.79,-241.8C341.74,-233.59 332.73,-223.1 324.79,-213.87"/>
<polygon fill="#63b8ff" stroke="#63b8ff" points="327.34,-211.47 318.17,-206.16 322.04,-216.03 327.34,-211.47"/>
</a>
</g>
</g>
<!-- Node18 -->
<g id="Node000018" class="node">
<title>Node18</title>
<g id="a_Node000018"><a xlink:href="helios_2engine_2ecs_2types_2__module_8ixx.html" target="_top" xlink:title="Aggregate module for helios::engine::ecs::types.">
<polygon fill="white" stroke="#666666" points="207.5,-200.5 76.5,-200.5 76.5,-181.5 207.5,-181.5 207.5,-200.5"/>
<text text-anchor="middle" x="142" y="-188.5" font-family="Helvetica,sans-Serif" font-size="10.00">helios.engine.ecs.types</text>
</a>
</g>
</g>
<!-- Node15&#45;&gt;Node18 -->
<g id="edge23_Node000015_Node000018" class="edge">
<title>Node15&#45;&gt;Node18</title>
<g id="a_edge23_Node000015_Node000018"><a xlink:title=" ">
<path fill="none" stroke="#63b8ff" d="M312.94,-241.95C273.35,-230.38 217.91,-214.18 181.03,-203.41"/>
<polygon fill="#63b8ff" stroke="#63b8ff" points="181.73,-199.96 171.15,-200.52 179.76,-206.68 181.73,-199.96"/>
</a>
</g>
</g>
<!-- Node17&#45;&gt;Node5 -->
<g id="edge22_Node000017_Node000005" class="edge">
<title>Node17&#45;&gt;Node5</title>
<g id="a_edge22_Node000017_Node000005"><a xlink:title=" ">
<path fill="none" stroke="#63b8ff" d="M304,-175.63C301.02,-147.8 299,-86.53 333,-55 381.27,-10.25 561.74,-27.54 627,-19 635.37,-17.9 644.37,-16.68 652.83,-15.5"/>
<polygon fill="#63b8ff" stroke="#63b8ff" points="653.37,-18.96 662.79,-14.11 652.4,-12.03 653.37,-18.96"/>
</a>
</g>
</g>
<!-- Node19 -->
<g id="Node000019" class="node">
<title>Node19</title>
<g id="a_Node000019"><a xlink:href="EntityTombstone_8ixx.html" target="_top" xlink:title="Sentinel value for invalid sparse array indices.">
<polygon fill="white" stroke="#666666" points="134,-140 0,-140 0,-110 134,-110 134,-140"/>
<text text-anchor="start" x="8" y="-128" font-family="Helvetica,sans-Serif" font-size="10.00">helios.engine.ecs.types.</text>
<text text-anchor="middle" x="67" y="-117" font-family="Helvetica,sans-Serif" font-size="10.00">EntityTombstone</text>
</a>
</g>
</g>
<!-- Node18&#45;&gt;Node19 -->
<g id="edge24_Node000018_Node000019" class="edge">
<title>Node18&#45;&gt;Node19</title>
<g id="a_edge24_Node000018_Node000019"><a xlink:title=" ">
<path fill="none" stroke="#63b8ff" d="M131.89,-181.37C121.52,-172.53 105.03,-158.45 91.26,-146.71"/>
<polygon fill="#63b8ff" stroke="#63b8ff" points="93.42,-143.94 83.54,-140.12 88.88,-149.27 93.42,-143.94"/>
</a>
</g>
</g>
<!-- Node20 -->
<g id="Node000020" class="node">
<title>Node20</title>
<g id="a_Node000020"><a xlink:href="EntityId_8ixx.html" target="_top" xlink:title="Type alias for entity identifiers within an EntityPool.">
<polygon fill="white" stroke="#666666" points="286,-140 152,-140 152,-110 286,-110 286,-140"/>
<text text-anchor="start" x="160" y="-128" font-family="Helvetica,sans-Serif" font-size="10.00">helios.engine.ecs.types.</text>
<text text-anchor="middle" x="219" y="-117" font-family="Helvetica,sans-Serif" font-size="10.00">EntityId</text>
</a>
</g>
</g>
<!-- Node18&#45;&gt;Node20 -->
<g id="edge26_Node000018_Node000020" class="edge">
<title>Node18&#45;&gt;Node20</title>
<g id="a_edge26_Node000018_Node000020"><a xlink:title=" ">
<path fill="none" stroke="#63b8ff" d="M152.38,-181.37C163.02,-172.53 179.96,-158.45 194.09,-146.71"/>
<polygon fill="#63b8ff" stroke="#63b8ff" points="196.56,-149.2 202.02,-140.12 192.09,-143.82 196.56,-149.2"/>
</a>
</g>
</g>
<!-- Node21 -->
<g id="Node000021" class="node">
<title>Node21</title>
<g id="a_Node000021"><a xlink:href="engine_2ecs_2types_2ComponentTypeId_8ixx.html" target="_top" xlink:title="Compile&#45;time type identifier for component types.">
<polygon fill="white" stroke="#666666" points="577,-140 443,-140 443,-110 577,-110 577,-140"/>
<text text-anchor="start" x="451" y="-128" font-family="Helvetica,sans-Serif" font-size="10.00">helios.engine.ecs.types.</text>
<text text-anchor="middle" x="510" y="-117" font-family="Helvetica,sans-Serif" font-size="10.00">ComponentTypeId</text>
</a>
</g>
</g>
<!-- Node18&#45;&gt;Node21 -->
<g id="edge28_Node000018_Node000021" class="edge">
<title>Node18&#45;&gt;Node21</title>
<g id="a_edge28_Node000018_Node000021"><a xlink:title=" ">
<path fill="none" stroke="#63b8ff" d="M186.59,-181.43C196.28,-179.6 206.48,-177.71 216,-176 289.46,-162.81 373.42,-148.62 432.75,-138.74"/>
<polygon fill="#63b8ff" stroke="#63b8ff" points="433.51,-142.16 442.8,-137.07 432.36,-135.25 433.51,-142.16"/>
</a>
</g>
</g>
<!-- Node19&#45;&gt;Node10 -->
<g id="edge25_Node000019_Node000010" class="edge">
<title>Node19&#45;&gt;Node10</title>
<g id="a_edge25_Node000019_Node000010"><a xlink:title=" ">
<path fill="none" stroke="#63b8ff" d="M101.07,-109.9C140.38,-94.18 207.31,-69.11 267,-55 385.24,-27.05 417.67,-35.81 538,-19 546.46,-17.82 555.6,-16.5 564.07,-15.26"/>
<polygon fill="#63b8ff" stroke="#63b8ff" points="564.59,-18.72 573.98,-13.8 563.57,-11.79 564.59,-18.72"/>
</a>
</g>
</g>
<!-- Node20&#45;&gt;Node5 -->
<g id="edge27_Node000020_Node000005" class="edge">
<title>Node20&#45;&gt;Node5</title>
<g id="a_edge27_Node000020_Node000005"><a xlink:title=" ">
<path fill="none" stroke="#63b8ff" d="M230.78,-109.8C245.22,-93.48 271.34,-67.38 300,-55 434.23,2.96 481.91,-37.09 627,-19 635.37,-17.96 644.38,-16.75 652.84,-15.58"/>
<polygon fill="#63b8ff" stroke="#63b8ff" points="653.38,-19.03 662.79,-14.18 652.41,-12.1 653.38,-19.03"/>
</a>
</g>
</g>
<!-- Node21&#45;&gt;Node9 -->
<g id="edge30_Node000021_Node000009" class="edge">
<title>Node21&#45;&gt;Node9</title>
<g id="a_edge30_Node000021_Node000009"><a xlink:title=" ">
<path fill="none" stroke="#63b8ff" d="M552.64,-109.99C583.09,-99.98 623.59,-86.67 652.33,-77.22"/>
<polygon fill="#63b8ff" stroke="#63b8ff" points="653.57,-80.5 661.97,-74.05 651.38,-73.85 653.57,-80.5"/>
</a>
</g>
</g>
<!-- Node21&#45;&gt;Node12 -->
<g id="edge31_Node000021_Node000012" class="edge">
<title>Node21&#45;&gt;Node12</title>
<g id="a_edge31_Node000021_Node000012"><a xlink:title=" ">
<path fill="none" stroke="#63b8ff" d="M508.55,-109.84C507.77,-102.21 506.79,-92.7 505.94,-84.45"/>
<polygon fill="#63b8ff" stroke="#63b8ff" points="509.4,-83.86 504.9,-74.27 502.44,-84.57 509.4,-83.86"/>
</a>
</g>
</g>
<!-- Node21&#45;&gt;Node16 -->
<g id="edge29_Node000021_Node000016" class="edge">
<title>Node21&#45;&gt;Node16</title>
<g id="a_edge29_Node000021_Node000016"><a xlink:title=" ">
<path fill="none" stroke="#63b8ff" d="M477.66,-109.99C455.34,-100.31 425.9,-87.56 404.27,-78.18"/>
<polygon fill="#63b8ff" stroke="#63b8ff" points="405.5,-74.9 394.94,-74.14 402.72,-81.33 405.5,-74.9"/>
</a>
</g>
</g>
<!-- Node22&#45;&gt;Node4 -->
<g id="edge45_Node000022_Node000004" class="edge">
<title>Node22&#45;&gt;Node4</title>
<g id="a_edge45_Node000022_Node000004"><a xlink:title=" ">
<path fill="none" stroke="#63b8ff" d="M815.54,-307.99C788.89,-299.43 747.02,-285.97 713.44,-275.18"/>
<polygon fill="#63b8ff" stroke="#63b8ff" points="714.35,-271.79 703.76,-272.06 712.2,-278.46 714.35,-271.79"/>
</a>
</g>
</g>
<!-- Node23 -->
<g id="Node000023" class="node">
<title>Node23</title>
<g id="a_Node000023"><a xlink:href="MenuId_8ixx.html" target="_top" xlink:title="Strongly&#45;typed identifier for UI menus.">
<polygon fill="white" stroke="#666666" points="997.5,-272 784.5,-272 784.5,-242 997.5,-242 997.5,-272"/>
<text text-anchor="start" x="792.5" y="-260" font-family="Helvetica,sans-Serif" font-size="10.00">helios.engine.modules.ui.widgets.types.</text>
<text text-anchor="middle" x="891" y="-249" font-family="Helvetica,sans-Serif" font-size="10.00">MenuId</text>
</a>
</g>
</g>
<!-- Node22&#45;&gt;Node23 -->
<g id="edge33_Node000022_Node000023" class="edge">
<title>Node22&#45;&gt;Node23</title>
<g id="a_edge33_Node000022_Node000023"><a xlink:title=" ">
<path fill="none" stroke="#63b8ff" d="M849.23,-307.87C855.39,-300.52 864.5,-289.63 872.65,-279.91"/>
<polygon fill="#63b8ff" stroke="#63b8ff" points="875.44,-282.03 879.18,-272.11 870.07,-277.53 875.44,-282.03"/>
</a>
</g>
</g>
<!-- Node24 -->
<g id="Node000024" class="node">
<title>Node24</title>
<g id="a_Node000024"><a xlink:href="FontId_8ixx.html" target="_top" xlink:title="Strongly&#45;typed identifier for font families.">
<polygon fill="white" stroke="#666666" points="1228.5,-272 1015.5,-272 1015.5,-242 1228.5,-242 1228.5,-272"/>
<text text-anchor="start" x="1023.5" y="-260" font-family="Helvetica,sans-Serif" font-size="10.00">helios.engine.modules.ui.widgets.types.</text>
<text text-anchor="middle" x="1122" y="-249" font-family="Helvetica,sans-Serif" font-size="10.00">FontId</text>
</a>
</g>
</g>
<!-- Node22&#45;&gt;Node24 -->
<g id="edge39_Node000022_Node000024" class="edge">
<title>Node22&#45;&gt;Node24</title>
<g id="a_edge39_Node000022_Node000024"><a xlink:title=" ">
<path fill="none" stroke="#63b8ff" d="M882.71,-307.99C925.11,-299.14 992.52,-285.05 1045,-274.09"/>
<polygon fill="#63b8ff" stroke="#63b8ff" points="1045.88,-277.48 1054.95,-272.01 1044.45,-270.63 1045.88,-277.48"/>
</a>
</g>
</g>
<!-- Node23&#45;&gt;Node5 -->
<g id="edge34_Node000023_Node000005" class="edge">
<title>Node23&#45;&gt;Node5</title>
<g id="a_edge34_Node000023_Node000005"><a xlink:title=" ">
<path fill="none" stroke="#63b8ff" d="M962.02,-241.98C983.81,-234.54 1006.19,-223.21 1022,-206 1068.83,-155.05 1105.94,-106.76 1060,-55 1037.83,-30.02 811.76,-16.48 723.26,-12.1"/>
<polygon fill="#63b8ff" stroke="#63b8ff" points="723.33,-8.6 713.17,-11.61 722.99,-15.59 723.33,-8.6"/>
</a>
</g>
</g>
<!-- Node23&#45;&gt;Node6 -->
<g id="edge35_Node000023_Node000006" class="edge">
<title>Node23&#45;&gt;Node6</title>
<g id="a_edge35_Node000023_Node000006"><a xlink:title=" ">
<path fill="none" stroke="#63b8ff" d="M949.23,-241.9C968.56,-234.36 988.35,-223 1001,-206 1027.86,-169.92 1022.87,-113.31 1017.91,-84.19"/>
<polygon fill="#63b8ff" stroke="#63b8ff" points="1021.31,-83.33 1016.01,-74.16 1014.43,-84.63 1021.31,-83.33"/>
</a>
</g>
</g>
<!-- Node23&#45;&gt;Node7 -->
<g id="edge36_Node000023_Node000007" class="edge">
<title>Node23&#45;&gt;Node7</title>
<g id="a_edge36_Node000023_Node000007"><a xlink:title=" ">
<path fill="none" stroke="#63b8ff" d="M862.69,-241.95C840.57,-230.98 810.04,-215.83 788.42,-205.11"/>
<polygon fill="#63b8ff" stroke="#63b8ff" points="789.68,-201.83 779.17,-200.52 786.57,-208.1 789.68,-201.83"/>
</a>
</g>
</g>
<!-- Node23&#45;&gt;Node9 -->
<g id="edge37_Node000023_Node000009" class="edge">
<title>Node23&#45;&gt;Node9</title>
<g id="a_edge37_Node000023_Node000009"><a xlink:title=" ">
<path fill="none" stroke="#63b8ff" d="M802.7,-241.96C761.41,-233.54 718.39,-221.44 705,-206 675.3,-171.75 679.58,-113.89 684.29,-84.24"/>
<polygon fill="#63b8ff" stroke="#63b8ff" points="687.8,-84.5 686.11,-74.05 680.91,-83.27 687.8,-84.5"/>
</a>
</g>
</g>
<!-- Node23&#45;&gt;Node14 -->
<g id="edge38_Node000023_Node000014" class="edge">
<title>Node23&#45;&gt;Node14</title>
<g id="a_edge38_Node000023_Node000014"><a xlink:title=" ">
<path fill="none" stroke="#63b8ff" d="M899.43,-241.8C905.07,-232.31 912.52,-219.76 918.53,-209.63"/>
<polygon fill="#63b8ff" stroke="#63b8ff" points="921.65,-211.23 923.75,-200.84 915.63,-207.66 921.65,-211.23"/>
</a>
</g>
</g>
<!-- Node24&#45;&gt;Node5 -->
<g id="edge40_Node000024_Node000005" class="edge">
<title>Node24&#45;&gt;Node5</title>
<g id="a_edge40_Node000024_Node000005"><a xlink:title=" ">
<path fill="none" stroke="#63b8ff" d="M1124,-241.92C1128.37,-204.96 1134.42,-104.58 1080,-55 1053.85,-31.18 814.67,-16.83 723.27,-12.17"/>
<polygon fill="#63b8ff" stroke="#63b8ff" points="723.3,-8.67 713.14,-11.66 722.95,-15.66 723.3,-8.67"/>
</a>
</g>
</g>
<!-- Node24&#45;&gt;Node6 -->
<g id="edge41_Node000024_Node000006" class="edge">
<title>Node24&#45;&gt;Node6</title>
<g id="a_edge41_Node000024_Node000006"><a xlink:title=" ">
<path fill="none" stroke="#63b8ff" d="M1115.88,-241.85C1104.13,-215.23 1077.02,-156.2 1048,-110 1041.92,-100.33 1034.26,-90.16 1027.75,-81.99"/>
<polygon fill="#63b8ff" stroke="#63b8ff" points="1030.3,-79.57 1021.27,-74.02 1024.87,-83.99 1030.3,-79.57"/>
</a>
</g>
</g>
<!-- Node24&#45;&gt;Node7 -->
<g id="edge42_Node000024_Node000007" class="edge">
<title>Node24&#45;&gt;Node7</title>
<g id="a_edge42_Node000024_Node000007"><a xlink:title=" ">
<path fill="none" stroke="#63b8ff" d="M1043,-241.95C975.59,-229.97 880.25,-213.02 819.78,-202.27"/>
<polygon fill="#63b8ff" stroke="#63b8ff" points="820.11,-198.78 809.65,-200.47 818.88,-205.67 820.11,-198.78"/>
</a>
</g>
</g>
<!-- Node24&#45;&gt;Node9 -->
<g id="edge43_Node000024_Node000009" class="edge">
<title>Node24&#45;&gt;Node9</title>
<g id="a_edge43_Node000024_Node000009"><a xlink:title=" ">
<path fill="none" stroke="#63b8ff" d="M1105.19,-241.76C1082.87,-223.62 1041.53,-192.65 1001,-176 924.73,-144.67 896.28,-168.75 819,-140 777.29,-124.48 733.17,-96.69 708.26,-79.79"/>
<polygon fill="#63b8ff" stroke="#63b8ff" points="710.21,-76.89 699.99,-74.1 706.24,-82.65 710.21,-76.89"/>
</a>
</g>
</g>
<!-- Node24&#45;&gt;Node14 -->
<g id="edge44_Node000024_Node000014" class="edge">
<title>Node24&#45;&gt;Node14</title>
<g id="a_edge44_Node000024_Node000014"><a xlink:title=" ">
<path fill="none" stroke="#63b8ff" d="M1079.65,-241.95C1045.05,-230.48 996.74,-214.46 964.23,-203.68"/>
<polygon fill="#63b8ff" stroke="#63b8ff" points="965.28,-200.34 954.69,-200.52 963.08,-206.99 965.28,-200.34"/>
</a>
</g>
</g>
</g>
</svg>
