<?xml version="1.0" encoding="UTF-8" standalone="no"?>
<!DOCTYPE svg PUBLIC "-//W3C//DTD SVG 1.1//EN"
 "http://www.w3.org/Graphics/SVG/1.1/DTD/svg11.dtd">
<!-- Generated by graphviz version 2.43.0 (0)
 -->
<!-- Title: UiActionComponent.ixx Pages: 1 -->
<!--zoomable 368 -->

<svg id="main" version="1.1" xmlns="http://www.w3.org/2000/svg" xmlns:xlink="http://www.w3.org/1999/xlink" xml:space="preserve" onload="init(evt)">

<style type="text/css"><![CDATA[
.node, .edge {opacity: 0.7;}
.node.selected, .edge.selected {opacity: 1;}
.edge:hover path { stroke: red; }
.edge:hover polygon { stroke: red; fill: red; }
]]></style>

<defs>
  <circle id="rim" cx="0" cy="0" r="7"/>
  <circle id="rim2" cx="0" cy="0" r="3.5"/>
  <g id="zoomPlus">
    <use xlink:href="#rim" fill="#404040"><set attributeName="fill" to="#808080" begin="zoomplus.mouseover" end="zoomplus.mouseout"/></use>
    <path d="M-4,0h8M0,-4v8" fill="none" stroke="white" stroke-width="1.5" pointer-events="none"/>
  </g>
  <g id="zoomMin">
    <use xlink:href="#rim" fill="#404040"><set attributeName="fill" to="#808080" begin="zoomminus.mouseover" end="zoomminus.mouseout"/></use>
    <path d="M-4,0h8" fill="none" stroke="white" stroke-width="1.5" pointer-events="none"/>
  </g>
  <g id="arrowUp" transform="translate(30 24)">
    <use xlink:href="#rim"/>
    <path pointer-events="none" fill="none" stroke="white" stroke-width="1.5" d="M0,-3.0v7 M-2.5,-0.5L0,-3.0L2.5,-0.5"/>
  </g>
  <g id="arrowRight" transform="rotate(90) translate(36 -43)">
    <use xlink:href="#rim"/>
    <path pointer-events="none" fill="none" stroke="white" stroke-width="1.5" d="M0,-3.0v7 M-2.5,-0.5L0,-3.0L2.5,-0.5"/>
  </g>
  <g id="arrowDown" transform="rotate(180) translate(-30 -48)">
    <use xlink:href="#rim"/>
    <path pointer-events="none" fill="none" stroke="white" stroke-width="1.5" d="M0,-3.0v7 M-2.5,-0.5L0,-3.0L2.5,-0.5"/>
  </g>
  <g id="arrowLeft" transform="rotate(270) translate(-36 17)">
    <use xlink:href="#rim"/>
    <path pointer-events="none" fill="none" stroke="white" stroke-width="1.5" d="M0,-3.0v7 M-2.5,-0.5L0,-3.0L2.5,-0.5"/>
  </g>
  <g id="resetDef">
    <use xlink:href="#rim2" fill="#404040"><set attributeName="fill" to="#808080" begin="reset.mouseover" end="reset.mouseout"/></use>
  </g>
</defs>
<script type="application/ecmascript">
var viewWidth = 693;
var viewHeight = 368;
var sectionId = 'dynsection-0';
</script>
<script type="application/ecmascript" xlink:href="svg.min.js"/>
<svg id="graph" class="graph">
<g id="viewport">
<title>UiActionComponent.ixx</title>
<!-- Node1 -->
<g id="Node000001" class="node">
<title>Node1</title>
<g id="a_Node000001"><a xlink:title="Component for associating actions with UI elements.">
<polygon fill="#999999" stroke="#666666" points="403.5,-360 271.5,-360 271.5,-341 403.5,-341 403.5,-360"/>
<text text-anchor="middle" x="337.5" y="-348" font-family="Helvetica,sans-Serif" font-size="10.00">UiActionComponent.ixx</text>
</a>
</g>
</g>
<!-- Node2 -->
<g id="Node000002" class="node">
<title>Node2</title>
<g id="a_Node000002"><a xlink:href="helios_2engine_2modules_2ui_2widgets_2types_2__module_8ixx.html" target="_top" xlink:title="Aggregate module for UI widget type identifiers.">
<polygon fill="white" stroke="#666666" points="442.5,-305 232.5,-305 232.5,-286 442.5,-286 442.5,-305"/>
<text text-anchor="middle" x="337.5" y="-293" font-family="Helvetica,sans-Serif" font-size="10.00">helios.engine.modules.ui.widgets.types</text>
</a>
</g>
</g>
<!-- Node1&#45;&gt;Node2 -->
<g id="edge1_Node000001_Node000002" class="edge">
<title>Node1&#45;&gt;Node2</title>
<g id="a_edge1_Node000001_Node000002"><a xlink:title=" ">
<path fill="none" stroke="#63b8ff" d="M337.5,-340.75C337.5,-333.8 337.5,-323.85 337.5,-315.13"/>
<polygon fill="#63b8ff" stroke="#63b8ff" points="341,-315.09 337.5,-305.09 334,-315.09 341,-315.09"/>
</a>
</g>
</g>
<!-- Node3 -->
<g id="Node000003" class="node">
<title>Node3</title>
<g id="a_Node000003"><a xlink:href="MenuId_8ixx.html" target="_top" xlink:title="Strongly&#45;typed identifier for UI menus.">
<polygon fill="white" stroke="#666666" points="213,-250 0,-250 0,-220 213,-220 213,-250"/>
<text text-anchor="start" x="8" y="-238" font-family="Helvetica,sans-Serif" font-size="10.00">helios.engine.modules.ui.widgets.types.</text>
<text text-anchor="middle" x="106.5" y="-227" font-family="Helvetica,sans-Serif" font-size="10.00">MenuId</text>
</a>
</g>
</g>
<!-- Node2&#45;&gt;Node3 -->
<g id="edge2_Node000002_Node000003" class="edge">
<title>Node2&#45;&gt;Node3</title>
<g id="a_edge2_Node000002_Node000003"><a xlink:title=" ">
<path fill="none" stroke="#63b8ff" d="M303.91,-285.99C269.43,-277.26 214.89,-263.45 171.87,-252.55"/>
<polygon fill="#63b8ff" stroke="#63b8ff" points="172.59,-249.13 162.04,-250.06 170.87,-255.91 172.59,-249.13"/>
</a>
</g>
</g>
<!-- Node13 -->
<g id="Node000013" class="node">
<title>Node13</title>
<g id="a_Node000013"><a xlink:href="FontId_8ixx.html" target="_top" xlink:title="Strongly&#45;typed identifier for font families.">
<polygon fill="white" stroke="#666666" points="444,-250 231,-250 231,-220 444,-220 444,-250"/>
<text text-anchor="start" x="239" y="-238" font-family="Helvetica,sans-Serif" font-size="10.00">helios.engine.modules.ui.widgets.types.</text>
<text text-anchor="middle" x="337.5" y="-227" font-family="Helvetica,sans-Serif" font-size="10.00">FontId</text>
</a>
</g>
</g>
<!-- Node2&#45;&gt;Node13 -->
<g id="edge17_Node000002_Node000013" class="edge">
<title>Node2&#45;&gt;Node13</title>
<g id="a_edge17_Node000002_Node000013"><a xlink:title=" ">
<path fill="none" stroke="#63b8ff" d="M337.5,-285.87C337.5,-279.11 337.5,-269.35 337.5,-260.26"/>
<polygon fill="#63b8ff" stroke="#63b8ff" points="341,-260.11 337.5,-250.11 334,-260.11 341,-260.11"/>
</a>
</g>
</g>
<!-- Node14 -->
<g id="Node000014" class="node">
<title>Node14</title>
<g id="a_Node000014"><a xlink:href="ActionId_8ixx.html" target="_top" xlink:title="Strongly&#45;typed identifier for UI actions.">
<polygon fill="white" stroke="#666666" points="685,-250 472,-250 472,-220 685,-220 685,-250"/>
<text text-anchor="start" x="480" y="-238" font-family="Helvetica,sans-Serif" font-size="10.00">helios.engine.modules.ui.widgets.types.</text>
<text text-anchor="middle" x="578.5" y="-227" font-family="Helvetica,sans-Serif" font-size="10.00">ActionId</text>
</a>
</g>
</g>
<!-- Node2&#45;&gt;Node14 -->
<g id="edge23_Node000002_Node000014" class="edge">
<title>Node2&#45;&gt;Node14</title>
<g id="a_edge23_Node000002_Node000014"><a xlink:title=" ">
<path fill="none" stroke="#63b8ff" d="M372.54,-285.99C408.59,-277.24 465.66,-263.39 510.59,-252.48"/>
<polygon fill="#63b8ff" stroke="#63b8ff" points="511.67,-255.82 520.56,-250.06 510.02,-249.02 511.67,-255.82"/>
</a>
</g>
</g>
<!-- Node4 -->
<g id="Node000004" class="node">
<title>Node4</title>
<g id="a_Node000004"><a xlink:title=" ">
<polygon fill="#e0e0e0" stroke="#999999" points="394.5,-19 344.5,-19 344.5,0 394.5,0 394.5,-19"/>
<text text-anchor="middle" x="369.5" y="-7" font-family="Helvetica,sans-Serif" font-size="10.00">cstdint</text>
</a>
</g>
</g>
<!-- Node3&#45;&gt;Node4 -->
<g id="edge3_Node000003_Node000004" class="edge">
<title>Node3&#45;&gt;Node4</title>
<g id="a_edge3_Node000003_Node000004"><a xlink:title=" ">
<path fill="none" stroke="#63b8ff" d="M85.11,-219.91C73.48,-211.04 59.98,-198.54 52.5,-184 26.23,-132.94 16.79,-93.38 59.5,-55 99.39,-19.15 261.93,-12.13 334.37,-10.79"/>
<polygon fill="#63b8ff" stroke="#63b8ff" points="334.43,-14.29 344.38,-10.63 334.32,-7.29 334.43,-14.29"/>
</a>
</g>
</g>
<!-- Node5 -->
<g id="Node000005" class="node">
<title>Node5</title>
<g id="a_Node000005"><a xlink:title=" ">
<polygon fill="#e0e0e0" stroke="#999999" points="157,-74 84,-74 84,-55 157,-55 157,-74"/>
<text text-anchor="middle" x="120.5" y="-62" font-family="Helvetica,sans-Serif" font-size="10.00">string_view</text>
</a>
</g>
</g>
<!-- Node3&#45;&gt;Node5 -->
<g id="edge4_Node000003_Node000005" class="edge">
<title>Node3&#45;&gt;Node5</title>
<g id="a_edge4_Node000003_Node000005"><a xlink:title=" ">
<path fill="none" stroke="#63b8ff" d="M92.39,-219.86C70.8,-196.42 34.11,-148.34 54.5,-110 61.81,-96.25 75.47,-85.99 88.47,-78.8"/>
<polygon fill="#63b8ff" stroke="#63b8ff" points="90.39,-81.75 97.72,-74.11 87.22,-75.51 90.39,-81.75"/>
</a>
</g>
</g>
<!-- Node6 -->
<g id="Node000006" class="node">
<title>Node6</title>
<g id="a_Node000006"><a xlink:href="helios_2core_2data_2__module_8ixx.html" target="_top" xlink:title="Aggregate module for helios::core::data namespace.">
<polygon fill="white" stroke="#666666" points="306,-184 211,-184 211,-165 306,-165 306,-184"/>
<text text-anchor="middle" x="258.5" y="-172" font-family="Helvetica,sans-Serif" font-size="10.00">helios.core.data</text>
</a>
</g>
</g>
<!-- Node3&#45;&gt;Node6 -->
<g id="edge5_Node000003_Node000006" class="edge">
<title>Node3&#45;&gt;Node6</title>
<g id="a_edge5_Node000003_Node000006"><a xlink:title=" ">
<path fill="none" stroke="#63b8ff" d="M142.91,-219.99C168.38,-210.18 202.09,-197.21 226.53,-187.81"/>
<polygon fill="#63b8ff" stroke="#63b8ff" points="227.98,-191 236.05,-184.14 225.46,-184.46 227.98,-191"/>
</a>
</g>
</g>
<!-- Node8 -->
<g id="Node000008" class="node">
<title>Node8</title>
<g id="a_Node000008"><a xlink:href="types_8ixx.html" target="_top" xlink:title="Core type definitions and tag types for the helios engine.">
<polygon fill="white" stroke="#666666" points="497.5,-74 397.5,-74 397.5,-55 497.5,-55 497.5,-74"/>
<text text-anchor="middle" x="447.5" y="-62" font-family="Helvetica,sans-Serif" font-size="10.00">helios.core.types</text>
</a>
</g>
</g>
<!-- Node3&#45;&gt;Node8 -->
<g id="edge15_Node000003_Node000008" class="edge">
<title>Node3&#45;&gt;Node8</title>
<g id="a_edge15_Node000003_Node000008"><a xlink:title=" ">
<path fill="none" stroke="#63b8ff" d="M108.27,-219.81C112.44,-193.05 125.58,-135.55 163.5,-110 199.05,-86.05 314.79,-74.2 387.08,-69"/>
<polygon fill="#63b8ff" stroke="#63b8ff" points="387.68,-72.47 397.42,-68.28 387.2,-65.48 387.68,-72.47"/>
</a>
</g>
</g>
<!-- Node9 -->
<g id="Node000009" class="node">
<title>Node9</title>
<g id="a_Node000009"><a xlink:href="algorithms_8ixx.html" target="_top" xlink:title="Core algorithms and hash functions for the helios engine.">
<polygon fill="white" stroke="#666666" points="641,-74 516,-74 516,-55 641,-55 641,-74"/>
<text text-anchor="middle" x="578.5" y="-62" font-family="Helvetica,sans-Serif" font-size="10.00">helios.core.algorithms</text>
</a>
</g>
</g>
<!-- Node3&#45;&gt;Node9 -->
<g id="edge16_Node000003_Node000009" class="edge">
<title>Node3&#45;&gt;Node9</title>
<g id="a_edge16_Node000003_Node000009"><a xlink:title=" ">
<path fill="none" stroke="#63b8ff" d="M120.85,-219.89C138.31,-203.66 169.45,-177.63 201.5,-165 323.15,-117.06 372.17,-177.76 493.5,-129 520.57,-118.12 546.68,-96.4 562.66,-81.41"/>
<polygon fill="#63b8ff" stroke="#63b8ff" points="565.28,-83.75 570.04,-74.28 560.42,-78.71 565.28,-83.75"/>
</a>
</g>
</g>
<!-- Node7 -->
<g id="Node000007" class="node">
<title>Node7</title>
<g id="a_Node000007"><a xlink:href="StrongId_8ixx.html" target="_top" xlink:title="Strongly&#45;typed identifier template.">
<polygon fill="white" stroke="#666666" points="484.5,-129 346.5,-129 346.5,-110 484.5,-110 484.5,-129"/>
<text text-anchor="middle" x="415.5" y="-117" font-family="Helvetica,sans-Serif" font-size="10.00">helios.core.data.StrongId</text>
</a>
</g>
</g>
<!-- Node6&#45;&gt;Node7 -->
<g id="edge6_Node000006_Node000007" class="edge">
<title>Node6&#45;&gt;Node7</title>
<g id="a_edge6_Node000006_Node000007"><a xlink:title=" ">
<path fill="none" stroke="#63b8ff" d="M283.72,-164.98C309.86,-156.16 350.9,-142.31 380.23,-132.41"/>
<polygon fill="#63b8ff" stroke="#63b8ff" points="381.72,-135.6 390.08,-129.08 379.48,-128.96 381.72,-135.6"/>
</a>
</g>
</g>
<!-- Node11 -->
<g id="Node000011" class="node">
<title>Node11</title>
<g id="a_Node000011"><a xlink:href="TypeIndexer_8ixx.html" target="_top" xlink:title="Utility for generating unique type indices at runtime.">
<polygon fill="white" stroke="#666666" points="328.5,-129 172.5,-129 172.5,-110 328.5,-110 328.5,-129"/>
<text text-anchor="middle" x="250.5" y="-117" font-family="Helvetica,sans-Serif" font-size="10.00">helios.core.data.TypeIndexer</text>
</a>
</g>
</g>
<!-- Node6&#45;&gt;Node11 -->
<g id="edge13_Node000006_Node000011" class="edge">
<title>Node6&#45;&gt;Node11</title>
<g id="a_edge13_Node000006_Node000011"><a xlink:title=" ">
<path fill="none" stroke="#63b8ff" d="M257.18,-164.75C256.13,-157.8 254.63,-147.85 253.31,-139.13"/>
<polygon fill="#63b8ff" stroke="#63b8ff" points="256.75,-138.45 251.8,-129.09 249.83,-139.5 256.75,-138.45"/>
</a>
</g>
</g>
<!-- Node7&#45;&gt;Node4 -->
<g id="edge7_Node000007_Node000004" class="edge">
<title>Node7&#45;&gt;Node4</title>
<g id="a_edge7_Node000007_Node000004"><a xlink:title=" ">
<path fill="none" stroke="#63b8ff" d="M409.43,-109.99C403.45,-101.29 394.37,-87.21 388.5,-74 382.07,-59.52 377.06,-42.25 373.8,-29.38"/>
<polygon fill="#63b8ff" stroke="#63b8ff" points="377.14,-28.29 371.4,-19.38 370.33,-29.92 377.14,-28.29"/>
</a>
</g>
</g>
<!-- Node7&#45;&gt;Node5 -->
<g id="edge8_Node000007_Node000005" class="edge">
<title>Node7&#45;&gt;Node5</title>
<g id="a_edge8_Node000007_Node000005"><a xlink:title=" ">
<path fill="none" stroke="#63b8ff" d="M368.1,-109.98C312.87,-100.06 222.17,-83.77 167.22,-73.89"/>
<polygon fill="#63b8ff" stroke="#63b8ff" points="167.52,-70.39 157.06,-72.07 166.29,-77.28 167.52,-70.39"/>
</a>
</g>
</g>
<!-- Node7&#45;&gt;Node8 -->
<g id="edge9_Node000007_Node000008" class="edge">
<title>Node7&#45;&gt;Node8</title>
<g id="a_edge9_Node000007_Node000008"><a xlink:title=" ">
<path fill="none" stroke="#63b8ff" d="M420.78,-109.75C425.21,-102.42 431.66,-91.73 437.12,-82.7"/>
<polygon fill="#63b8ff" stroke="#63b8ff" points="440.14,-84.46 442.31,-74.09 434.15,-80.84 440.14,-84.46"/>
</a>
</g>
</g>
<!-- Node7&#45;&gt;Node9 -->
<g id="edge10_Node000007_Node000009" class="edge">
<title>Node7&#45;&gt;Node9</title>
<g id="a_edge10_Node000007_Node000009"><a xlink:title=" ">
<path fill="none" stroke="#63b8ff" d="M441.69,-109.98C468.94,-101.13 511.8,-87.19 542.28,-77.28"/>
<polygon fill="#63b8ff" stroke="#63b8ff" points="543.68,-80.5 552.11,-74.08 541.51,-73.85 543.68,-80.5"/>
</a>
</g>
</g>
<!-- Node9&#45;&gt;Node4 -->
<g id="edge11_Node000009_Node000004" class="edge">
<title>Node9&#45;&gt;Node4</title>
<g id="a_edge11_Node000009_Node000004"><a xlink:title=" ">
<path fill="none" stroke="#63b8ff" d="M544.92,-54.98C506.47,-45.23 443.77,-29.33 404.66,-19.42"/>
<polygon fill="#63b8ff" stroke="#63b8ff" points="405.33,-15.98 394.78,-16.91 403.61,-22.76 405.33,-15.98"/>
</a>
</g>
</g>
<!-- Node10 -->
<g id="Node000010" class="node">
<title>Node10</title>
<g id="a_Node000010"><a xlink:title=" ">
<polygon fill="#e0e0e0" stroke="#999999" points="600.5,-19 556.5,-19 556.5,0 600.5,0 600.5,-19"/>
<text text-anchor="middle" x="578.5" y="-7" font-family="Helvetica,sans-Serif" font-size="10.00">string</text>
</a>
</g>
</g>
<!-- Node9&#45;&gt;Node10 -->
<g id="edge12_Node000009_Node000010" class="edge">
<title>Node9&#45;&gt;Node10</title>
<g id="a_edge12_Node000009_Node000010"><a xlink:title=" ">
<path fill="none" stroke="#63b8ff" d="M578.5,-54.75C578.5,-47.8 578.5,-37.85 578.5,-29.13"/>
<polygon fill="#63b8ff" stroke="#63b8ff" points="582,-29.09 578.5,-19.09 575,-29.09 582,-29.09"/>
</a>
</g>
</g>
<!-- Node12 -->
<g id="Node000012" class="node">
<title>Node12</title>
<g id="a_Node000012"><a xlink:title=" ">
<polygon fill="#e0e0e0" stroke="#999999" points="275.5,-74 225.5,-74 225.5,-55 275.5,-55 275.5,-74"/>
<text text-anchor="middle" x="250.5" y="-62" font-family="Helvetica,sans-Serif" font-size="10.00">atomic</text>
</a>
</g>
</g>
<!-- Node11&#45;&gt;Node12 -->
<g id="edge14_Node000011_Node000012" class="edge">
<title>Node11&#45;&gt;Node12</title>
<g id="a_edge14_Node000011_Node000012"><a xlink:title=" ">
<path fill="none" stroke="#63b8ff" d="M250.5,-109.75C250.5,-102.8 250.5,-92.85 250.5,-84.13"/>
<polygon fill="#63b8ff" stroke="#63b8ff" points="254,-84.09 250.5,-74.09 247,-84.09 254,-84.09"/>
</a>
</g>
</g>
<!-- Node13&#45;&gt;Node4 -->
<g id="edge18_Node000013_Node000004" class="edge">
<title>Node13&#45;&gt;Node4</title>
<g id="a_edge18_Node000013_Node000004"><a xlink:title=" ">
<path fill="none" stroke="#63b8ff" d="M244.27,-219.95C215.07,-212.51 183.88,-201.19 158.5,-184 101.86,-145.62 29.88,-106.86 74.5,-55 107.6,-16.54 262.85,-10.88 333.87,-10.35"/>
<polygon fill="#63b8ff" stroke="#63b8ff" points="334.13,-13.85 344.12,-10.3 334.1,-6.85 334.13,-13.85"/>
</a>
</g>
</g>
<!-- Node13&#45;&gt;Node5 -->
<g id="edge19_Node000013_Node000005" class="edge">
<title>Node13&#45;&gt;Node5</title>
<g id="a_edge19_Node000013_Node000005"><a xlink:title=" ">
<path fill="none" stroke="#63b8ff" d="M270.26,-219.97C221.84,-205.93 160.03,-178.95 130.5,-129 122.59,-115.63 120.33,-98.02 119.91,-84.74"/>
<polygon fill="#63b8ff" stroke="#63b8ff" points="123.41,-84.4 119.92,-74.39 116.41,-84.39 123.41,-84.4"/>
</a>
</g>
</g>
<!-- Node13&#45;&gt;Node6 -->
<g id="edge20_Node000013_Node000006" class="edge">
<title>Node13&#45;&gt;Node6</title>
<g id="a_edge20_Node000013_Node000006"><a xlink:title=" ">
<path fill="none" stroke="#63b8ff" d="M318.38,-219.84C306.32,-210.91 290.79,-199.41 278.56,-190.35"/>
<polygon fill="#63b8ff" stroke="#63b8ff" points="280.46,-187.4 270.34,-184.27 276.29,-193.03 280.46,-187.4"/>
</a>
</g>
</g>
<!-- Node13&#45;&gt;Node8 -->
<g id="edge21_Node000013_Node000008" class="edge">
<title>Node13&#45;&gt;Node8</title>
<g id="a_edge21_Node000013_Node000008"><a xlink:title=" ">
<path fill="none" stroke="#63b8ff" d="M377.21,-219.93C414.84,-204.23 469.11,-174.82 493.5,-129 503.09,-110.99 485.68,-92.3 469.6,-79.91"/>
<polygon fill="#63b8ff" stroke="#63b8ff" points="471.62,-77.05 461.47,-74.03 467.53,-82.72 471.62,-77.05"/>
</a>
</g>
</g>
<!-- Node13&#45;&gt;Node9 -->
<g id="edge22_Node000013_Node000009" class="edge">
<title>Node13&#45;&gt;Node9</title>
<g id="a_edge22_Node000013_Node000009"><a xlink:title=" ">
<path fill="none" stroke="#63b8ff" d="M390.98,-219.99C416.14,-211.89 445.75,-200.06 469.5,-184 511.57,-155.55 548.83,-107.79 566.91,-82.47"/>
<polygon fill="#63b8ff" stroke="#63b8ff" points="569.81,-84.43 572.68,-74.23 564.08,-80.41 569.81,-84.43"/>
</a>
</g>
</g>
<!-- Node14&#45;&gt;Node4 -->
<g id="edge24_Node000014_Node000004" class="edge">
<title>Node14&#45;&gt;Node4</title>
<g id="a_edge24_Node000014_Node000004"><a xlink:title=" ">
<path fill="none" stroke="#63b8ff" d="M616.22,-219.88C631.93,-211.9 648.58,-200.21 657.5,-184 685.2,-133.68 689.85,-95.89 649.5,-55 615.94,-21 472.29,-12.97 404.79,-11.08"/>
<polygon fill="#63b8ff" stroke="#63b8ff" points="404.73,-7.58 394.64,-10.83 404.55,-14.58 404.73,-7.58"/>
</a>
</g>
</g>
<!-- Node14&#45;&gt;Node5 -->
<g id="edge25_Node000014_Node000005" class="edge">
<title>Node14&#45;&gt;Node5</title>
<g id="a_edge25_Node000014_Node000005"><a xlink:title=" ">
<path fill="none" stroke="#63b8ff" d="M525.99,-219.92C472.78,-205.73 388.04,-183.37 314.5,-165 247.57,-148.28 220.25,-168.23 163.5,-129 147.28,-117.79 135.44,-98.31 128.34,-83.87"/>
<polygon fill="#63b8ff" stroke="#63b8ff" points="131.36,-82.07 124.01,-74.44 125,-84.99 131.36,-82.07"/>
</a>
</g>
</g>
<!-- Node14&#45;&gt;Node6 -->
<g id="edge26_Node000014_Node000006" class="edge">
<title>Node14&#45;&gt;Node6</title>
<g id="a_edge26_Node000014_Node000006"><a xlink:title=" ">
<path fill="none" stroke="#63b8ff" d="M501.85,-219.99C444.48,-209.5 367.26,-195.38 315.32,-185.89"/>
<polygon fill="#63b8ff" stroke="#63b8ff" points="315.76,-182.41 305.29,-184.05 314.5,-189.29 315.76,-182.41"/>
</a>
</g>
</g>
<!-- Node14&#45;&gt;Node8 -->
<g id="edge27_Node000014_Node000008" class="edge">
<title>Node14&#45;&gt;Node8</title>
<g id="a_edge27_Node000014_Node000008"><a xlink:title=" ">
<path fill="none" stroke="#63b8ff" d="M573,-219.72C563.08,-195.24 540.32,-144.57 509.5,-110 498.82,-98.02 484.37,-87.41 472.1,-79.56"/>
<polygon fill="#63b8ff" stroke="#63b8ff" points="473.6,-76.38 463.25,-74.12 469.93,-82.34 473.6,-76.38"/>
</a>
</g>
</g>
<!-- Node14&#45;&gt;Node9 -->
<g id="edge28_Node000014_Node000009" class="edge">
<title>Node14&#45;&gt;Node9</title>
<g id="a_edge28_Node000014_Node000009"><a xlink:title=" ">
<path fill="none" stroke="#63b8ff" d="M605.37,-219.96C618.56,-211.49 633.16,-199.34 640.5,-184 654.69,-154.33 655.52,-139.26 640.5,-110 633.54,-96.44 620.31,-86.07 607.85,-78.78"/>
<polygon fill="#63b8ff" stroke="#63b8ff" points="609.48,-75.68 599.02,-74 606.15,-81.84 609.48,-75.68"/>
</a>
</g>
</g>
</g>
</svg>

<g id="navigator" transform="translate(0 0)" fill="#404254">
  <rect fill="#f2f5e9" fill-opacity="0.5" stroke="#606060" stroke-width=".5" x="0" y="0" width="60" height="60"/>
  <use id="zoomplus" xlink:href="#zoomPlus" x="17" y="9" onmousedown="handleZoom(evt,'in')"/>
  <use id="zoomminus" xlink:href="#zoomMin" x="42" y="9" onmousedown="handleZoom(evt,'out')"/>
  <use id="reset" xlink:href="#resetDef" x="30" y="36" onmousedown="handleReset()"/>
   <use id="arrowup" xlink:href="#arrowUp" x="0" y="0" onmousedown="handlePan(0,-1)"/>
  <use id="arrowright" xlink:href="#arrowRight" x="0" y="0" onmousedown="handlePan(1,0)"/>
  <use id="arrowdown" xlink:href="#arrowDown" x="0" y="0" onmousedown="handlePan(0,1)"/>
  <use id="arrowleft" xlink:href="#arrowLeft" x="0" y="0" onmousedown="handlePan(-1,0)"/>
</g>
<svg viewBox="0 0 15 15" width="100%" height="30px" preserveAspectRatio="xMaxYMin meet">
 <g id="arrow_out" transform="scale(0.3 0.3)">
  <a xlink:href="UiActionComponent_8ixx__incl_org.svg" target="_base">
   <rect id="button" ry="5" rx="5" y="6" x="6" height="38" width="38"
        fill="#f2f5e9" fill-opacity="0.5" stroke="#606060" stroke-width="1.0"/>
   <path id="arrow"
     d="M 11.500037,31.436501 C 11.940474,20.09759 22.043105,11.32322 32.158766,21.979434 L 37.068811,17.246167 C 37.068811,17.246167 37.088388,32 37.088388,32 L 22.160133,31.978069 C 22.160133,31.978069 26.997745,27.140456 26.997745,27.140456 C 18.528582,18.264221 13.291696,25.230495 11.500037,31.436501 z"
     style="fill:#404040;"/>
  </a>
 </g>
</svg>

<style type='text/css'>
<![CDATA[
[data-mouse-over-selected='false'] { opacity: 0.7; }
[data-mouse-over-selected='true']  { opacity: 1.0; }
]]>
</style>
<script type="application/ecmascript"><![CDATA[
document.addEventListener('DOMContentLoaded', (event) => {
  highlightEdges();
  highlightAdjacentNodes();
});
]]></script>
</svg>
