<?xml version="1.0" encoding="UTF-8" standalone="no"?>
<!DOCTYPE svg PUBLIC "-//W3C//DTD SVG 1.1//EN"
 "http://www.w3.org/Graphics/SVG/1.1/DTD/svg11.dtd">
<!-- Generated by graphviz version 2.43.0 (0)
 -->
<!-- Title: include/helios/engine/game/UpdateContext.ixx Pages: 1 -->
<!--zoomable 390 -->

<svg id="main" version="1.1" xmlns="http://www.w3.org/2000/svg" xmlns:xlink="http://www.w3.org/1999/xlink" xml:space="preserve" onload="init(evt)">

<style type="text/css"><![CDATA[
.node, .edge {opacity: 0.7;}
.node.selected, .edge.selected {opacity: 1;}
.edge:hover path { stroke: red; }
.edge:hover polygon { stroke: red; fill: red; }
]]></style>

<defs>
  <circle id="rim" cx="0" cy="0" r="7"/>
  <circle id="rim2" cx="0" cy="0" r="3.5"/>
  <g id="zoomPlus">
    <use xlink:href="#rim" fill="#404040"><set attributeName="fill" to="#808080" begin="zoomplus.mouseover" end="zoomplus.mouseout"/></use>
    <path d="M-4,0h8M0,-4v8" fill="none" stroke="white" stroke-width="1.5" pointer-events="none"/>
  </g>
  <g id="zoomMin">
    <use xlink:href="#rim" fill="#404040"><set attributeName="fill" to="#808080" begin="zoomminus.mouseover" end="zoomminus.mouseout"/></use>
    <path d="M-4,0h8" fill="none" stroke="white" stroke-width="1.5" pointer-events="none"/>
  </g>
  <g id="arrowUp" transform="translate(30 24)">
    <use xlink:href="#rim"/>
    <path pointer-events="none" fill="none" stroke="white" stroke-width="1.5" d="M0,-3.0v7 M-2.5,-0.5L0,-3.0L2.5,-0.5"/>
  </g>
  <g id="arrowRight" transform="rotate(90) translate(36 -43)">
    <use xlink:href="#rim"/>
    <path pointer-events="none" fill="none" stroke="white" stroke-width="1.5" d="M0,-3.0v7 M-2.5,-0.5L0,-3.0L2.5,-0.5"/>
  </g>
  <g id="arrowDown" transform="rotate(180) translate(-30 -48)">
    <use xlink:href="#rim"/>
    <path pointer-events="none" fill="none" stroke="white" stroke-width="1.5" d="M0,-3.0v7 M-2.5,-0.5L0,-3.0L2.5,-0.5"/>
  </g>
  <g id="arrowLeft" transform="rotate(270) translate(-36 17)">
    <use xlink:href="#rim"/>
    <path pointer-events="none" fill="none" stroke="white" stroke-width="1.5" d="M0,-3.0v7 M-2.5,-0.5L0,-3.0L2.5,-0.5"/>
  </g>
  <g id="resetDef">
    <use xlink:href="#rim2" fill="#404040"><set attributeName="fill" to="#808080" begin="reset.mouseover" end="reset.mouseout"/></use>
  </g>
</defs>
<script type="application/ecmascript">
var viewWidth = 993;
var viewHeight = 390;
var sectionId = 'dynsection-0';
</script>
<script type="application/ecmascript" xlink:href="svg.min.js"/>
<svg id="graph" class="graph">
<g id="viewport">
<title>include/helios/engine/game/UpdateContext.ixx</title>
<!-- Node1 -->
<g id="Node000001" class="node">
<title>Node1</title>
<g id="a_Node000001"><a xlink:title="Context struct passed to components during per&#45;frame updates.">
<polygon fill="#999999" stroke="#666666" points="283,-382 141,-382 141,-352 283,-352 283,-382"/>
<text text-anchor="start" x="149" y="-370" font-family="Helvetica,sans-Serif" font-size="10.00">include/helios/engine</text>
<text text-anchor="middle" x="212" y="-359" font-family="Helvetica,sans-Serif" font-size="10.00">/game/UpdateContext.ixx</text>
</a>
</g>
</g>
<!-- Node2 -->
<g id="Node000002" class="node">
<title>Node2</title>
<g id="a_Node000002"><a xlink:title=" ">
<polygon fill="#e0e0e0" stroke="#999999" points="99,-310.5 47,-310.5 47,-291.5 99,-291.5 99,-310.5"/>
<text text-anchor="middle" x="73" y="-298.5" font-family="Helvetica,sans-Serif" font-size="10.00">cassert</text>
</a>
</g>
</g>
<!-- Node1&#45;&gt;Node2 -->
<g id="edge1_Node000001_Node000002" class="edge">
<title>Node1&#45;&gt;Node2</title>
<g id="a_edge1_Node000001_Node000002"><a xlink:title=" ">
<path fill="none" stroke="#63b8ff" d="M181.5,-351.95C157.44,-340.88 124.17,-325.56 100.84,-314.82"/>
<polygon fill="#63b8ff" stroke="#63b8ff" points="102.05,-311.52 91.5,-310.52 99.12,-317.88 102.05,-311.52"/>
</a>
</g>
</g>
<!-- Node3 -->
<g id="Node000003" class="node">
<title>Node3</title>
<g id="a_Node000003"><a xlink:title=" ">
<polygon fill="#e0e0e0" stroke="#999999" points="182.5,-310.5 117.5,-310.5 117.5,-291.5 182.5,-291.5 182.5,-310.5"/>
<text text-anchor="middle" x="150" y="-298.5" font-family="Helvetica,sans-Serif" font-size="10.00">stdexcept</text>
</a>
</g>
</g>
<!-- Node1&#45;&gt;Node3 -->
<g id="edge2_Node000001_Node000003" class="edge">
<title>Node1&#45;&gt;Node3</title>
<g id="a_edge2_Node000001_Node000003"><a xlink:title=" ">
<path fill="none" stroke="#63b8ff" d="M198.24,-351.8C188.57,-341.82 175.63,-328.46 165.58,-318.09"/>
<polygon fill="#63b8ff" stroke="#63b8ff" points="168.04,-315.59 158.57,-310.84 163.01,-320.46 168.04,-315.59"/>
</a>
</g>
</g>
<!-- Node4 -->
<g id="Node000004" class="node">
<title>Node4</title>
<g id="a_Node000004"><a xlink:href="GameLoopEventBus_8ixx.html" target="_top" xlink:title="Type&#45;safe event bus for inter&#45;system communication within the game loop.">
<polygon fill="white" stroke="#666666" points="347,-316 201,-316 201,-286 347,-286 347,-316"/>
<text text-anchor="start" x="209" y="-304" font-family="Helvetica,sans-Serif" font-size="10.00">helios.engine.game.event.</text>
<text text-anchor="middle" x="274" y="-293" font-family="Helvetica,sans-Serif" font-size="10.00">GameLoopEventBus</text>
</a>
</g>
</g>
<!-- Node1&#45;&gt;Node4 -->
<g id="edge3_Node000001_Node000004" class="edge">
<title>Node1&#45;&gt;Node4</title>
<g id="a_edge3_Node000001_Node000004"><a xlink:title=" ">
<path fill="none" stroke="#63b8ff" d="M225.76,-351.8C233.79,-343.51 244.07,-332.89 253.09,-323.59"/>
<polygon fill="#63b8ff" stroke="#63b8ff" points="255.83,-325.78 260.28,-316.16 250.81,-320.91 255.83,-325.78"/>
</a>
</g>
</g>
<!-- Node13 -->
<g id="Node000013" class="node">
<title>Node13</title>
<g id="a_Node000013"><a xlink:href="InputSnapshot_8ixx.html" target="_top" xlink:title="Immutable snapshot of input state at a specific point in time.">
<polygon fill="white" stroke="#666666" points="624,-316 484,-316 484,-286 624,-286 624,-316"/>
<text text-anchor="start" x="492" y="-304" font-family="Helvetica,sans-Serif" font-size="10.00">helios.engine.game.Input</text>
<text text-anchor="middle" x="554" y="-293" font-family="Helvetica,sans-Serif" font-size="10.00">Snapshot</text>
</a>
</g>
</g>
<!-- Node1&#45;&gt;Node13 -->
<g id="edge17_Node000001_Node000013" class="edge">
<title>Node1&#45;&gt;Node13</title>
<g id="a_edge17_Node000001_Node000013"><a xlink:title=" ">
<path fill="none" stroke="#63b8ff" d="M283.28,-352.66C338.87,-342.26 416.06,-327.81 473.8,-317.01"/>
<polygon fill="#63b8ff" stroke="#63b8ff" points="474.8,-320.38 483.98,-315.1 473.51,-313.5 474.8,-320.38"/>
</a>
</g>
</g>
<!-- Node5 -->
<g id="Node000005" class="node">
<title>Node5</title>
<g id="a_Node000005"><a xlink:href="TypeIndexedDoubleBuffer_8ixx.html" target="_top" xlink:title="Double&#45;buffered, type&#45;indexed message system for decoupled inter&#45;system communication.">
<polygon fill="white" stroke="#666666" points="353,-250 195,-250 195,-220 353,-220 353,-250"/>
<text text-anchor="start" x="203" y="-238" font-family="Helvetica,sans-Serif" font-size="10.00">helios.core.data.TypeIndexed</text>
<text text-anchor="middle" x="274" y="-227" font-family="Helvetica,sans-Serif" font-size="10.00">DoubleBuffer</text>
</a>
</g>
</g>
<!-- Node4&#45;&gt;Node5 -->
<g id="edge4_Node000004_Node000005" class="edge">
<title>Node4&#45;&gt;Node5</title>
<g id="a_edge4_Node000004_Node000005"><a xlink:title=" ">
<path fill="none" stroke="#63b8ff" d="M274,-285.8C274,-278.34 274,-268.99 274,-260.41"/>
<polygon fill="#63b8ff" stroke="#63b8ff" points="277.5,-260.16 274,-250.16 270.5,-260.16 277.5,-260.16"/>
</a>
</g>
</g>
<!-- Node11 -->
<g id="Node000011" class="node">
<title>Node11</title>
<g id="a_Node000011"><a xlink:href="TypeIndexer_8ixx.html" target="_top" xlink:title="Utility for generating unique type indices at runtime.">
<polygon fill="white" stroke="#666666" points="156,-184 0,-184 0,-165 156,-165 156,-184"/>
<text text-anchor="middle" x="78" y="-172" font-family="Helvetica,sans-Serif" font-size="10.00">helios.core.data.TypeIndexer</text>
</a>
</g>
</g>
<!-- Node4&#45;&gt;Node11 -->
<g id="edge16_Node000004_Node000011" class="edge">
<title>Node4&#45;&gt;Node11</title>
<g id="a_edge16_Node000004_Node000011"><a xlink:title=" ">
<path fill="none" stroke="#63b8ff" d="M247.85,-285.93C230.16,-276.21 206.39,-262.79 186,-250 154.6,-230.3 119.47,-205.54 98.05,-190.11"/>
<polygon fill="#63b8ff" stroke="#63b8ff" points="99.91,-187.14 89.76,-184.11 95.81,-192.81 99.91,-187.14"/>
</a>
</g>
</g>
<!-- Node6 -->
<g id="Node000006" class="node">
<title>Node6</title>
<g id="a_Node000006"><a xlink:title=" ">
<polygon fill="#e0e0e0" stroke="#999999" points="575,-74 517,-74 517,-55 575,-55 575,-74"/>
<text text-anchor="middle" x="546" y="-62" font-family="Helvetica,sans-Serif" font-size="10.00">memory</text>
</a>
</g>
</g>
<!-- Node5&#45;&gt;Node6 -->
<g id="edge5_Node000005_Node000006" class="edge">
<title>Node5&#45;&gt;Node6</title>
<g id="a_edge5_Node000005_Node000006"><a xlink:title=" ">
<path fill="none" stroke="#63b8ff" d="M343.71,-219.94C372.46,-212.17 405.23,-200.62 432,-184 476.28,-156.51 515.39,-107.96 534.17,-82.37"/>
<polygon fill="#63b8ff" stroke="#63b8ff" points="537.15,-84.22 540.15,-74.06 531.47,-80.13 537.15,-84.22"/>
</a>
</g>
</g>
<!-- Node7 -->
<g id="Node000007" class="node">
<title>Node7</title>
<g id="a_Node000007"><a xlink:title=" ">
<polygon fill="#e0e0e0" stroke="#999999" points="257,-74 217,-74 217,-55 257,-55 257,-74"/>
<text text-anchor="middle" x="237" y="-62" font-family="Helvetica,sans-Serif" font-size="10.00">span</text>
</a>
</g>
</g>
<!-- Node5&#45;&gt;Node7 -->
<g id="edge6_Node000005_Node000007" class="edge">
<title>Node5&#45;&gt;Node7</title>
<g id="a_edge6_Node000005_Node000007"><a xlink:title=" ">
<path fill="none" stroke="#63b8ff" d="M260.03,-219.93C242.54,-201.13 213.68,-165.87 204,-129 201.86,-120.83 201.35,-118.02 204,-110 207.46,-99.54 214.43,-89.53 221.08,-81.66"/>
<polygon fill="#63b8ff" stroke="#63b8ff" points="223.86,-83.8 227.98,-74.04 218.67,-79.1 223.86,-83.8"/>
</a>
</g>
</g>
<!-- Node8 -->
<g id="Node000008" class="node">
<title>Node8</title>
<g id="a_Node000008"><a xlink:title=" ">
<polygon fill="#e0e0e0" stroke="#999999" points="455.5,-74 408.5,-74 408.5,-55 455.5,-55 455.5,-74"/>
<text text-anchor="middle" x="432" y="-62" font-family="Helvetica,sans-Serif" font-size="10.00">vector</text>
</a>
</g>
</g>
<!-- Node5&#45;&gt;Node8 -->
<g id="edge7_Node000005_Node000008" class="edge">
<title>Node5&#45;&gt;Node8</title>
<g id="a_edge7_Node000005_Node000008"><a xlink:title=" ">
<path fill="none" stroke="#63b8ff" d="M353.14,-221.21C375.51,-213.85 397.86,-202.26 413,-184 436.53,-155.62 436.61,-109.88 434.42,-84.32"/>
<polygon fill="#63b8ff" stroke="#63b8ff" points="437.87,-83.7 433.32,-74.13 430.91,-84.45 437.87,-83.7"/>
</a>
</g>
</g>
<!-- Node9 -->
<g id="Node000009" class="node">
<title>Node9</title>
<g id="a_Node000009"><a xlink:href="ReadBuffer_8ixx.html" target="_top" xlink:title="Read&#45;only buffer for the double&#45;buffering pattern.">
<polygon fill="white" stroke="#666666" points="365,-129 213,-129 213,-110 365,-110 365,-129"/>
<text text-anchor="middle" x="289" y="-117" font-family="Helvetica,sans-Serif" font-size="10.00">helios.core.data.ReadBuffer</text>
</a>
</g>
</g>
<!-- Node5&#45;&gt;Node9 -->
<g id="edge8_Node000005_Node000009" class="edge">
<title>Node5&#45;&gt;Node9</title>
<g id="a_edge8_Node000005_Node000009"><a xlink:title=" ">
<path fill="none" stroke="#63b8ff" d="M259.9,-219.83C247.88,-205.96 233.75,-184.16 242,-165 247.15,-153.03 257.29,-142.76 266.83,-135.12"/>
<polygon fill="#63b8ff" stroke="#63b8ff" points="268.99,-137.88 274.93,-129.11 264.81,-132.26 268.99,-137.88"/>
</a>
</g>
</g>
<!-- Node10 -->
<g id="Node000010" class="node">
<title>Node10</title>
<g id="a_Node000010"><a xlink:href="WriteBuffer_8ixx.html" target="_top" xlink:title="Write&#45;only buffer for the double&#45;buffering pattern.">
<polygon fill="white" stroke="#666666" points="403.5,-184 250.5,-184 250.5,-165 403.5,-165 403.5,-184"/>
<text text-anchor="middle" x="327" y="-172" font-family="Helvetica,sans-Serif" font-size="10.00">helios.core.data.WriteBuffer</text>
</a>
</g>
</g>
<!-- Node5&#45;&gt;Node10 -->
<g id="edge11_Node000005_Node000010" class="edge">
<title>Node5&#45;&gt;Node10</title>
<g id="a_edge11_Node000005_Node000010"><a xlink:title=" ">
<path fill="none" stroke="#63b8ff" d="M286.83,-219.84C294.52,-211.35 304.33,-200.52 312.33,-191.69"/>
<polygon fill="#63b8ff" stroke="#63b8ff" points="314.94,-194.03 319.06,-184.27 309.75,-189.33 314.94,-194.03"/>
</a>
</g>
</g>
<!-- Node5&#45;&gt;Node11 -->
<g id="edge14_Node000005_Node000011" class="edge">
<title>Node5&#45;&gt;Node11</title>
<g id="a_edge14_Node000005_Node000011"><a xlink:title=" ">
<path fill="none" stroke="#63b8ff" d="M227.05,-219.99C193.23,-209.89 148.14,-196.44 116.45,-186.98"/>
<polygon fill="#63b8ff" stroke="#63b8ff" points="117.24,-183.56 106.66,-184.05 115.24,-190.27 117.24,-183.56"/>
</a>
</g>
</g>
<!-- Node9&#45;&gt;Node7 -->
<g id="edge9_Node000009_Node000007" class="edge">
<title>Node9&#45;&gt;Node7</title>
<g id="a_edge9_Node000009_Node000007"><a xlink:title=" ">
<path fill="none" stroke="#63b8ff" d="M280.41,-109.75C272.84,-102.03 261.62,-90.6 252.49,-81.28"/>
<polygon fill="#63b8ff" stroke="#63b8ff" points="254.93,-78.78 245.43,-74.09 249.93,-83.68 254.93,-78.78"/>
</a>
</g>
</g>
<!-- Node9&#45;&gt;Node8 -->
<g id="edge10_Node000009_Node000008" class="edge">
<title>Node9&#45;&gt;Node8</title>
<g id="a_edge10_Node000009_Node000008"><a xlink:title=" ">
<path fill="none" stroke="#63b8ff" d="M311.98,-109.98C335.5,-101.27 372.29,-87.63 398.94,-77.75"/>
<polygon fill="#63b8ff" stroke="#63b8ff" points="400.45,-80.93 408.61,-74.17 398.01,-74.36 400.45,-80.93"/>
</a>
</g>
</g>
<!-- Node10&#45;&gt;Node8 -->
<g id="edge12_Node000010_Node000008" class="edge">
<title>Node10&#45;&gt;Node8</title>
<g id="a_edge12_Node000010_Node000008"><a xlink:title=" ">
<path fill="none" stroke="#63b8ff" d="M336.56,-164.83C346.19,-156 361.4,-141.83 374,-129 389.28,-113.45 406,-94.98 417.54,-81.98"/>
<polygon fill="#63b8ff" stroke="#63b8ff" points="420.32,-84.12 424.31,-74.31 415.07,-79.49 420.32,-84.12"/>
</a>
</g>
</g>
<!-- Node10&#45;&gt;Node9 -->
<g id="edge13_Node000010_Node000009" class="edge">
<title>Node10&#45;&gt;Node9</title>
<g id="a_edge13_Node000010_Node000009"><a xlink:title=" ">
<path fill="none" stroke="#63b8ff" d="M320.73,-164.75C315.41,-157.34 307.64,-146.5 301.12,-137.41"/>
<polygon fill="#63b8ff" stroke="#63b8ff" points="303.83,-135.18 295.16,-129.09 298.14,-139.26 303.83,-135.18"/>
</a>
</g>
</g>
<!-- Node12 -->
<g id="Node000012" class="node">
<title>Node12</title>
<g id="a_Node000012"><a xlink:title=" ">
<polygon fill="#e0e0e0" stroke="#999999" points="103,-129 53,-129 53,-110 103,-110 103,-129"/>
<text text-anchor="middle" x="78" y="-117" font-family="Helvetica,sans-Serif" font-size="10.00">atomic</text>
</a>
</g>
</g>
<!-- Node11&#45;&gt;Node12 -->
<g id="edge15_Node000011_Node000012" class="edge">
<title>Node11&#45;&gt;Node12</title>
<g id="a_edge15_Node000011_Node000012"><a xlink:title=" ">
<path fill="none" stroke="#63b8ff" d="M78,-164.75C78,-157.8 78,-147.85 78,-139.13"/>
<polygon fill="#63b8ff" stroke="#63b8ff" points="81.5,-139.09 78,-129.09 74.5,-139.09 81.5,-139.09"/>
</a>
</g>
</g>
<!-- Node14 -->
<g id="Node000014" class="node">
<title>Node14</title>
<g id="a_Node000014"><a xlink:href="GamepadState_8ixx.html" target="_top" xlink:title="Representation of current gamepad input state.">
<polygon fill="white" stroke="#666666" points="763.5,-250 590.5,-250 590.5,-220 763.5,-220 763.5,-250"/>
<text text-anchor="start" x="598.5" y="-238" font-family="Helvetica,sans-Serif" font-size="10.00">helios.input.gamepad.Gamepad</text>
<text text-anchor="middle" x="677" y="-227" font-family="Helvetica,sans-Serif" font-size="10.00">State</text>
</a>
</g>
</g>
<!-- Node13&#45;&gt;Node14 -->
<g id="edge18_Node000013_Node000014" class="edge">
<title>Node13&#45;&gt;Node14</title>
<g id="a_edge18_Node000013_Node000014"><a xlink:title=" ">
<path fill="none" stroke="#63b8ff" d="M580.99,-285.95C598.62,-276.78 621.83,-264.71 641.02,-254.72"/>
<polygon fill="#63b8ff" stroke="#63b8ff" points="642.81,-257.73 650.07,-250.01 639.58,-251.52 642.81,-257.73"/>
</a>
</g>
</g>
<!-- Node15 -->
<g id="Node000015" class="node">
<title>Node15</title>
<g id="a_Node000015"><a xlink:href="LogManager_8ixx.html" target="_top" xlink:title="Central manager for scoped loggers with configurable sinks.">
<polygon fill="white" stroke="#666666" points="801,-184 655,-184 655,-165 801,-165 801,-184"/>
<text text-anchor="middle" x="728" y="-172" font-family="Helvetica,sans-Serif" font-size="10.00">helios.util.log.LogManager</text>
</a>
</g>
</g>
<!-- Node14&#45;&gt;Node15 -->
<g id="edge19_Node000014_Node000015" class="edge">
<title>Node14&#45;&gt;Node15</title>
<g id="a_edge19_Node000014_Node000015"><a xlink:title=" ">
<path fill="none" stroke="#63b8ff" d="M689.35,-219.84C696.67,-211.43 706,-200.74 713.65,-191.96"/>
<polygon fill="#63b8ff" stroke="#63b8ff" points="716.42,-194.1 720.36,-184.27 711.15,-189.5 716.42,-194.1"/>
</a>
</g>
</g>
<!-- Node20 -->
<g id="Node000020" class="node">
<title>Node20</title>
<g id="a_Node000020"><a xlink:href="Logger_8ixx.html" target="_top" xlink:title="Simple synchronous logger with configurable output sinks.">
<polygon fill="white" stroke="#666666" points="693.5,-129 574.5,-129 574.5,-110 693.5,-110 693.5,-129"/>
<text text-anchor="middle" x="634" y="-117" font-family="Helvetica,sans-Serif" font-size="10.00">helios.util.log.Logger</text>
</a>
</g>
</g>
<!-- Node14&#45;&gt;Node20 -->
<g id="edge34_Node000014_Node000020" class="edge">
<title>Node14&#45;&gt;Node20</title>
<g id="a_edge34_Node000014_Node000020"><a xlink:title=" ">
<path fill="none" stroke="#63b8ff" d="M666.27,-219.87C659.47,-210.25 651.03,-196.95 646,-184 640.4,-169.6 637.35,-152.33 635.73,-139.43"/>
<polygon fill="#63b8ff" stroke="#63b8ff" points="639.2,-138.97 634.65,-129.41 632.24,-139.73 639.2,-138.97"/>
</a>
</g>
</g>
<!-- Node22 -->
<g id="Node000022" class="node">
<title>Node22</title>
<g id="a_Node000022"><a xlink:href="helios_2math_2types_2__module_8ixx.html" target="_top" xlink:title="Module exports for vector and matrix type definitions.">
<polygon fill="white" stroke="#666666" points="923,-184 819,-184 819,-165 923,-165 923,-184"/>
<text text-anchor="middle" x="871" y="-172" font-family="Helvetica,sans-Serif" font-size="10.00">helios.math.types</text>
</a>
</g>
</g>
<!-- Node14&#45;&gt;Node22 -->
<g id="edge35_Node000014_Node000022" class="edge">
<title>Node14&#45;&gt;Node22</title>
<g id="a_edge35_Node000014_Node000022"><a xlink:title=" ">
<path fill="none" stroke="#63b8ff" d="M723.47,-219.99C756.95,-209.89 801.57,-196.44 832.94,-186.98"/>
<polygon fill="#63b8ff" stroke="#63b8ff" points="834.07,-190.29 842.63,-184.05 832.05,-183.59 834.07,-190.29"/>
</a>
</g>
</g>
<!-- Node15&#45;&gt;Node6 -->
<g id="edge23_Node000015_Node000006" class="edge">
<title>Node15&#45;&gt;Node6</title>
<g id="a_edge23_Node000015_Node000006"><a xlink:title=" ">
<path fill="none" stroke="#63b8ff" d="M654.63,-168.69C623.77,-163.12 589.63,-151.77 566,-129 553.92,-117.36 549.11,-98.49 547.21,-84.35"/>
<polygon fill="#63b8ff" stroke="#63b8ff" points="550.67,-83.86 546.22,-74.24 543.71,-84.53 550.67,-83.86"/>
</a>
</g>
</g>
<!-- Node15&#45;&gt;Node8 -->
<g id="edge25_Node000015_Node000008" class="edge">
<title>Node15&#45;&gt;Node8</title>
<g id="a_edge25_Node000015_Node000008"><a xlink:title=" ">
<path fill="none" stroke="#63b8ff" d="M680.54,-164.98C644.1,-157.65 592.93,-145.62 550,-129 514.91,-115.42 477.07,-93.66 453.95,-79.47"/>
<polygon fill="#63b8ff" stroke="#63b8ff" points="455.62,-76.38 445.28,-74.08 451.92,-82.33 455.62,-76.38"/>
</a>
</g>
</g>
<!-- Node16 -->
<g id="Node000016" class="node">
<title>Node16</title>
<g id="a_Node000016"><a xlink:title=" ">
<polygon fill="#e0e0e0" stroke="#999999" points="745,-19 701,-19 701,0 745,0 745,-19"/>
<text text-anchor="middle" x="723" y="-7" font-family="Helvetica,sans-Serif" font-size="10.00">string</text>
</a>
</g>
</g>
<!-- Node15&#45;&gt;Node16 -->
<g id="edge20_Node000015_Node000016" class="edge">
<title>Node15&#45;&gt;Node16</title>
<g id="a_edge20_Node000015_Node000016"><a xlink:title=" ">
<path fill="none" stroke="#63b8ff" d="M801.16,-164.98C869.28,-156.3 961.94,-142.25 973,-129 1036.41,-53.04 835.89,-22.6 755.14,-13.6"/>
<polygon fill="#63b8ff" stroke="#63b8ff" points="755.34,-10.1 745.02,-12.52 754.59,-17.06 755.34,-10.1"/>
</a>
</g>
</g>
<!-- Node17 -->
<g id="Node000017" class="node">
<title>Node17</title>
<g id="a_Node000017"><a xlink:title=" ">
<polygon fill="#e0e0e0" stroke="#999999" points="843.5,-129 750.5,-129 750.5,-110 843.5,-110 843.5,-129"/>
<text text-anchor="middle" x="797" y="-117" font-family="Helvetica,sans-Serif" font-size="10.00">unordered_map</text>
</a>
</g>
</g>
<!-- Node15&#45;&gt;Node17 -->
<g id="edge21_Node000015_Node000017" class="edge">
<title>Node15&#45;&gt;Node17</title>
<g id="a_edge21_Node000015_Node000017"><a xlink:title=" ">
<path fill="none" stroke="#63b8ff" d="M739.09,-164.98C749.49,-157 765.26,-144.88 777.72,-135.31"/>
<polygon fill="#63b8ff" stroke="#63b8ff" points="779.91,-138.04 785.71,-129.17 775.65,-132.49 779.91,-138.04"/>
</a>
</g>
</g>
<!-- Node18 -->
<g id="Node000018" class="node">
<title>Node18</title>
<g id="a_Node000018"><a xlink:title=" ">
<polygon fill="#e0e0e0" stroke="#999999" points="948,-129 862,-129 862,-110 948,-110 948,-129"/>
<text text-anchor="middle" x="905" y="-117" font-family="Helvetica,sans-Serif" font-size="10.00">unordered_set</text>
</a>
</g>
</g>
<!-- Node15&#45;&gt;Node18 -->
<g id="edge22_Node000015_Node000018" class="edge">
<title>Node15&#45;&gt;Node18</title>
<g id="a_edge22_Node000015_Node000018"><a xlink:title=" ">
<path fill="none" stroke="#63b8ff" d="M756.44,-164.98C786.28,-156.05 833.38,-141.94 866.53,-132.02"/>
<polygon fill="#63b8ff" stroke="#63b8ff" points="867.76,-135.3 876.34,-129.08 865.76,-128.6 867.76,-135.3"/>
</a>
</g>
</g>
<!-- Node19 -->
<g id="Node000019" class="node">
<title>Node19</title>
<g id="a_Node000019"><a xlink:title=" ">
<polygon fill="#e0e0e0" stroke="#999999" points="918,-74 870,-74 870,-55 918,-55 918,-74"/>
<text text-anchor="middle" x="894" y="-62" font-family="Helvetica,sans-Serif" font-size="10.00">mutex</text>
</a>
</g>
</g>
<!-- Node15&#45;&gt;Node19 -->
<g id="edge24_Node000015_Node000019" class="edge">
<title>Node15&#45;&gt;Node19</title>
<g id="a_edge24_Node000015_Node000019"><a xlink:title=" ">
<path fill="none" stroke="#63b8ff" d="M794.03,-164.98C857.91,-156.07 946.58,-141.64 957,-129 972.35,-110.38 945.86,-90.97 922.66,-78.59"/>
<polygon fill="#63b8ff" stroke="#63b8ff" points="924.21,-75.45 913.71,-74.05 921.04,-81.69 924.21,-75.45"/>
</a>
</g>
</g>
<!-- Node15&#45;&gt;Node20 -->
<g id="edge26_Node000015_Node000020" class="edge">
<title>Node15&#45;&gt;Node20</title>
<g id="a_edge26_Node000015_Node000020"><a xlink:title=" ">
<path fill="none" stroke="#63b8ff" d="M712.9,-164.98C698.18,-156.69 675.58,-143.94 658.33,-134.22"/>
<polygon fill="#63b8ff" stroke="#63b8ff" points="659.81,-131.03 649.38,-129.17 656.37,-137.13 659.81,-131.03"/>
</a>
</g>
</g>
<!-- Node21 -->
<g id="Node000021" class="node">
<title>Node21</title>
<g id="a_Node000021"><a xlink:href="LogSink_8ixx.html" target="_top" xlink:title="Abstract interface for log output destinations.">
<polygon fill="white" stroke="#666666" points="785,-74 661,-74 661,-55 785,-55 785,-74"/>
<text text-anchor="middle" x="723" y="-62" font-family="Helvetica,sans-Serif" font-size="10.00">helios.util.log.LogSink</text>
</a>
</g>
</g>
<!-- Node15&#45;&gt;Node21 -->
<g id="edge33_Node000015_Node000021" class="edge">
<title>Node15&#45;&gt;Node21</title>
<g id="a_edge33_Node000015_Node000021"><a xlink:title=" ">
<path fill="none" stroke="#63b8ff" d="M727.59,-164.66C726.78,-147.17 724.96,-107.8 723.87,-84.27"/>
<polygon fill="#63b8ff" stroke="#63b8ff" points="727.36,-83.99 723.4,-74.16 720.37,-84.31 727.36,-83.99"/>
</a>
</g>
</g>
<!-- Node20&#45;&gt;Node6 -->
<g id="edge29_Node000020_Node000006" class="edge">
<title>Node20&#45;&gt;Node6</title>
<g id="a_edge29_Node000020_Node000006"><a xlink:title=" ">
<path fill="none" stroke="#63b8ff" d="M619.86,-109.98C606.21,-101.77 585.31,-89.18 569.22,-79.49"/>
<polygon fill="#63b8ff" stroke="#63b8ff" points="570.77,-76.33 560.4,-74.17 567.16,-82.33 570.77,-76.33"/>
</a>
</g>
</g>
<!-- Node20&#45;&gt;Node8 -->
<g id="edge28_Node000020_Node000008" class="edge">
<title>Node20&#45;&gt;Node8</title>
<g id="a_edge28_Node000020_Node000008"><a xlink:title=" ">
<path fill="none" stroke="#63b8ff" d="M601.55,-109.98C564.23,-100.2 503.3,-84.21 465.54,-74.3"/>
<polygon fill="#63b8ff" stroke="#63b8ff" points="466.1,-70.83 455.54,-71.68 464.32,-77.6 466.1,-70.83"/>
</a>
</g>
</g>
<!-- Node20&#45;&gt;Node16 -->
<g id="edge27_Node000020_Node000016" class="edge">
<title>Node20&#45;&gt;Node16</title>
<g id="a_edge27_Node000020_Node000016"><a xlink:title=" ">
<path fill="none" stroke="#63b8ff" d="M634.51,-109.83C635.67,-96.74 639.49,-71.68 652,-55 662.14,-41.48 677.7,-31.06 691.68,-23.72"/>
<polygon fill="#63b8ff" stroke="#63b8ff" points="693.58,-26.69 701.01,-19.13 690.49,-20.4 693.58,-26.69"/>
</a>
</g>
</g>
<!-- Node20&#45;&gt;Node19 -->
<g id="edge30_Node000020_Node000019" class="edge">
<title>Node20&#45;&gt;Node19</title>
<g id="a_edge30_Node000020_Node000019"><a xlink:title=" ">
<path fill="none" stroke="#63b8ff" d="M675.77,-109.98C726.89,-99.57 812.45,-82.12 859.83,-72.47"/>
<polygon fill="#63b8ff" stroke="#63b8ff" points="860.79,-75.84 869.89,-70.41 859.39,-68.98 860.79,-75.84"/>
</a>
</g>
</g>
<!-- Node20&#45;&gt;Node21 -->
<g id="edge31_Node000020_Node000021" class="edge">
<title>Node20&#45;&gt;Node21</title>
<g id="a_edge31_Node000020_Node000021"><a xlink:title=" ">
<path fill="none" stroke="#63b8ff" d="M648.3,-109.98C662.1,-101.77 683.24,-89.18 699.51,-79.49"/>
<polygon fill="#63b8ff" stroke="#63b8ff" points="701.64,-82.29 708.44,-74.17 698.06,-76.28 701.64,-82.29"/>
</a>
</g>
</g>
<!-- Node21&#45;&gt;Node16 -->
<g id="edge32_Node000021_Node000016" class="edge">
<title>Node21&#45;&gt;Node16</title>
<g id="a_edge32_Node000021_Node000016"><a xlink:title=" ">
<path fill="none" stroke="#63b8ff" d="M723,-54.75C723,-47.8 723,-37.85 723,-29.13"/>
<polygon fill="#63b8ff" stroke="#63b8ff" points="726.5,-29.09 723,-19.09 719.5,-29.09 726.5,-29.09"/>
</a>
</g>
</g>
<!-- Node22&#45;&gt;Node22 -->
<g id="edge36_Node000022_Node000022" class="edge">
<title>Node22&#45;&gt;Node22</title>
<g id="a_edge36_Node000022_Node000022"><a xlink:title=" ">
<path fill="none" stroke="#63b8ff" d="M903.77,-184.03C923,-186.06 941,-182.88 941,-174.5 941,-167.62 928.89,-164.25 913.92,-164.38"/>
<polygon fill="#63b8ff" stroke="#63b8ff" points="913.55,-160.89 903.77,-164.97 913.95,-167.88 913.55,-160.89"/>
</a>
</g>
</g>
</g>
</svg>

<g id="navigator" transform="translate(0 0)" fill="#404254">
  <rect fill="#f2f5e9" fill-opacity="0.5" stroke="#606060" stroke-width=".5" x="0" y="0" width="60" height="60"/>
  <use id="zoomplus" xlink:href="#zoomPlus" x="17" y="9" onmousedown="handleZoom(evt,'in')"/>
  <use id="zoomminus" xlink:href="#zoomMin" x="42" y="9" onmousedown="handleZoom(evt,'out')"/>
  <use id="reset" xlink:href="#resetDef" x="30" y="36" onmousedown="handleReset()"/>
   <use id="arrowup" xlink:href="#arrowUp" x="0" y="0" onmousedown="handlePan(0,-1)"/>
  <use id="arrowright" xlink:href="#arrowRight" x="0" y="0" onmousedown="handlePan(1,0)"/>
  <use id="arrowdown" xlink:href="#arrowDown" x="0" y="0" onmousedown="handlePan(0,1)"/>
  <use id="arrowleft" xlink:href="#arrowLeft" x="0" y="0" onmousedown="handlePan(-1,0)"/>
</g>
<svg viewBox="0 0 15 15" width="100%" height="30px" preserveAspectRatio="xMaxYMin meet">
 <g id="arrow_out" transform="scale(0.3 0.3)">
  <a xlink:href="UpdateContext_8ixx__incl_org.svg" target="_base">
   <rect id="button" ry="5" rx="5" y="6" x="6" height="38" width="38"
        fill="#f2f5e9" fill-opacity="0.5" stroke="#606060" stroke-width="1.0"/>
   <path id="arrow"
     d="M 11.500037,31.436501 C 11.940474,20.09759 22.043105,11.32322 32.158766,21.979434 L 37.068811,17.246167 C 37.068811,17.246167 37.088388,32 37.088388,32 L 22.160133,31.978069 C 22.160133,31.978069 26.997745,27.140456 26.997745,27.140456 C 18.528582,18.264221 13.291696,25.230495 11.500037,31.436501 z"
     style="fill:#404040;"/>
  </a>
 </g>
</svg>

<style type='text/css'>
<![CDATA[
[data-mouse-over-selected='false'] { opacity: 0.7; }
[data-mouse-over-selected='true']  { opacity: 1.0; }
]]>
</style>
<script type="application/ecmascript"><![CDATA[
document.addEventListener('DOMContentLoaded', (event) => {
  highlightEdges();
  highlightAdjacentNodes();
});
]]></script>
</svg>
