<?xml version="1.0" encoding="UTF-8" standalone="no"?>
<!DOCTYPE svg PUBLIC "-//W3C//DTD SVG 1.1//EN"
 "http://www.w3.org/Graphics/SVG/1.1/DTD/svg11.dtd">
<!-- Generated by graphviz version 2.43.0 (0)
 -->
<!-- Title: Vertex.ixx Pages: 1 -->
<svg width="130pt" height="83pt"
 viewBox="0.00 0.00 130.00 82.69" xmlns="http://www.w3.org/2000/svg" xmlns:xlink="http://www.w3.org/1999/xlink">
<g id="graph0" class="graph" transform="scale(1 1) rotate(0) translate(4 78.69)">
<title>Vertex.ixx</title>
<!-- Node1 -->
<g id="Node000001" class="node">
<title>Node1</title>
<g id="a_Node000001"><a xlink:title="Vertex description and utilities for rendering.">
<polygon fill="#999999" stroke="#666666" points="85,-74.69 19,-74.69 19,-55.69 85,-55.69 85,-74.69"/>
<text text-anchor="middle" x="52" y="-62.69" font-family="Helvetica,sans-Serif" font-size="10.00">Vertex.ixx</text>
</a>
</g>
</g>
<!-- Node2 -->
<g id="Node000002" class="node">
<title>Node2</title>
<g id="a_Node000002"><a xlink:href="helios_2math_2types_2__module_8ixx.html" target="_top" xlink:title="Module exports for vector and matrix type definitions.">
<polygon fill="white" stroke="#666666" points="104,-19.69 0,-19.69 0,-0.69 104,-0.69 104,-19.69"/>
<text text-anchor="middle" x="52" y="-7.69" font-family="Helvetica,sans-Serif" font-size="10.00">helios.math.types</text>
</a>
</g>
</g>
<!-- Node1&#45;&gt;Node2 -->
<g id="edge1_Node000001_Node000002" class="edge">
<title>Node1&#45;&gt;Node2</title>
<g id="a_edge1_Node000001_Node000002"><a xlink:title=" ">
<path fill="none" stroke="#63b8ff" d="M52,-55.43C52,-48.49 52,-38.53 52,-29.82"/>
<polygon fill="#63b8ff" stroke="#63b8ff" points="55.5,-29.78 52,-19.78 48.5,-29.78 55.5,-29.78"/>
</a>
</g>
</g>
<!-- Node2&#45;&gt;Node2 -->
<g id="edge2_Node000002_Node000002" class="edge">
<title>Node2&#45;&gt;Node2</title>
<g id="a_edge2_Node000002_Node000002"><a xlink:title=" ">
<path fill="none" stroke="#63b8ff" d="M84.77,-19.72C104,-21.75 122,-18.57 122,-10.19 122,-3.31 109.89,0.07 94.92,-0.07"/>
<polygon fill="#63b8ff" stroke="#63b8ff" points="94.55,3.42 84.77,-0.66 94.95,-3.57 94.55,3.42"/>
</a>
</g>
</g>
</g>
</svg>
