<?xml version="1.0" encoding="UTF-8" standalone="no"?>
<!DOCTYPE svg PUBLIC "-//W3C//DTD SVG 1.1//EN"
 "http://www.w3.org/Graphics/SVG/1.1/DTD/svg11.dtd">
<!-- Generated by graphviz version 2.43.0 (0)
 -->
<!-- Title: WindowConfig.ixx Pages: 1 -->
<svg width="192pt" height="83pt"
 viewBox="0.00 0.00 192.00 82.69" xmlns="http://www.w3.org/2000/svg" xmlns:xlink="http://www.w3.org/1999/xlink">
<g id="graph0" class="graph" transform="scale(1 1) rotate(0) translate(4 78.69)">
<title>WindowConfig.ixx</title>
<!-- Node1 -->
<g id="Node000001" class="node">
<title>Node1</title>
<g id="a_Node000001"><a xlink:title="Window creation and initialization configuration.">
<polygon fill="#999999" stroke="#666666" points="120,-74.69 16,-74.69 16,-55.69 120,-55.69 120,-74.69"/>
<text text-anchor="middle" x="68" y="-62.69" font-family="Helvetica,sans-Serif" font-size="10.00">WindowConfig.ixx</text>
</a>
</g>
</g>
<!-- Node2 -->
<g id="Node000002" class="node">
<title>Node2</title>
<g id="a_Node000002"><a xlink:title=" ">
<polygon fill="#e0e0e0" stroke="#999999" points="44,-19.69 0,-19.69 0,-0.69 44,-0.69 44,-19.69"/>
<text text-anchor="middle" x="22" y="-7.69" font-family="Helvetica,sans-Serif" font-size="10.00">string</text>
</a>
</g>
</g>
<!-- Node1&#45;&gt;Node2 -->
<g id="edge1_Node000001_Node000002" class="edge">
<title>Node1&#45;&gt;Node2</title>
<g id="a_edge1_Node000001_Node000002"><a xlink:title=" ">
<path fill="none" stroke="#63b8ff" d="M60.4,-55.43C53.84,-47.87 44.18,-36.74 36.19,-27.53"/>
<polygon fill="#63b8ff" stroke="#63b8ff" points="38.65,-25.03 29.45,-19.78 33.37,-29.62 38.65,-25.03"/>
</a>
</g>
</g>
<!-- Node3 -->
<g id="Node000003" class="node">
<title>Node3</title>
<g id="a_Node000003"><a xlink:href="helios_2math_2types_2__module_8ixx.html" target="_top" xlink:title="Module exports for vector and matrix type definitions.">
<polygon fill="white" stroke="#666666" points="166,-19.69 62,-19.69 62,-0.69 166,-0.69 166,-19.69"/>
<text text-anchor="middle" x="114" y="-7.69" font-family="Helvetica,sans-Serif" font-size="10.00">helios.math.types</text>
</a>
</g>
</g>
<!-- Node1&#45;&gt;Node3 -->
<g id="edge2_Node000001_Node000003" class="edge">
<title>Node1&#45;&gt;Node3</title>
<g id="a_edge2_Node000001_Node000003"><a xlink:title=" ">
<path fill="none" stroke="#63b8ff" d="M75.6,-55.43C82.16,-47.87 91.82,-36.74 99.81,-27.53"/>
<polygon fill="#63b8ff" stroke="#63b8ff" points="102.63,-29.62 106.55,-19.78 97.35,-25.03 102.63,-29.62"/>
</a>
</g>
</g>
<!-- Node3&#45;&gt;Node3 -->
<g id="edge3_Node000003_Node000003" class="edge">
<title>Node3&#45;&gt;Node3</title>
<g id="a_edge3_Node000003_Node000003"><a xlink:title=" ">
<path fill="none" stroke="#63b8ff" d="M146.77,-19.72C166,-21.75 184,-18.57 184,-10.19 184,-3.31 171.89,0.07 156.92,-0.07"/>
<polygon fill="#63b8ff" stroke="#63b8ff" points="156.55,3.42 146.77,-0.66 156.95,-3.57 156.55,3.42"/>
</a>
</g>
</g>
</g>
</svg>
