<?xml version="1.0" encoding="UTF-8" standalone="no"?>
<!DOCTYPE svg PUBLIC "-//W3C//DTD SVG 1.1//EN"
 "http://www.w3.org/Graphics/SVG/1.1/DTD/svg11.dtd">
<!-- Generated by graphviz version 2.43.0 (0)
 -->
<!-- Title: WriteBuffer.ixx Pages: 1 -->
<svg width="191pt" height="148pt"
 viewBox="0.00 0.00 190.50 148.00" xmlns="http://www.w3.org/2000/svg" xmlns:xlink="http://www.w3.org/1999/xlink">
<g id="graph0" class="graph" transform="scale(1 1) rotate(0) translate(4 144)">
<title>WriteBuffer.ixx</title>
<!-- Node1 -->
<g id="Node000001" class="node">
<title>Node1</title>
<g id="a_Node000001"><a xlink:title="Write&#45;only buffer for the double&#45;buffering pattern.">
<polygon fill="#999999" stroke="#666666" points="99,-140 10,-140 10,-121 99,-121 99,-140"/>
<text text-anchor="middle" x="54.5" y="-128" font-family="Helvetica,sans-Serif" font-size="10.00">WriteBuffer.ixx</text>
</a>
</g>
</g>
<!-- Node2 -->
<g id="Node000002" class="node">
<title>Node2</title>
<g id="a_Node000002"><a xlink:title=" ">
<polygon fill="#e0e0e0" stroke="#999999" points="47,-19 0,-19 0,0 47,0 47,-19"/>
<text text-anchor="middle" x="23.5" y="-7" font-family="Helvetica,sans-Serif" font-size="10.00">vector</text>
</a>
</g>
</g>
<!-- Node1&#45;&gt;Node2 -->
<g id="edge1_Node000001_Node000002" class="edge">
<title>Node1&#45;&gt;Node2</title>
<g id="a_edge1_Node000001_Node000002"><a xlink:title=" ">
<path fill="none" stroke="#63b8ff" d="M45.48,-120.96C37.43,-112.66 26.21,-99.25 21.5,-85 15.48,-66.79 17.11,-44.69 19.54,-29.31"/>
<polygon fill="#63b8ff" stroke="#63b8ff" points="23.06,-29.51 21.44,-19.04 16.18,-28.23 23.06,-29.51"/>
</a>
</g>
</g>
<!-- Node3 -->
<g id="Node000003" class="node">
<title>Node3</title>
<g id="a_Node000003"><a xlink:href="ReadBuffer_8ixx.html" target="_top" xlink:title="Read&#45;only buffer for the double&#45;buffering pattern.">
<polygon fill="white" stroke="#666666" points="182.5,-85 30.5,-85 30.5,-55 182.5,-55 182.5,-85"/>
<text text-anchor="start" x="38.5" y="-73" font-family="Helvetica,sans-Serif" font-size="10.00">helios.core.container.buffer.</text>
<text text-anchor="middle" x="106.5" y="-62" font-family="Helvetica,sans-Serif" font-size="10.00">ReadBuffer</text>
</a>
</g>
</g>
<!-- Node1&#45;&gt;Node3 -->
<g id="edge2_Node000001_Node000003" class="edge">
<title>Node1&#45;&gt;Node3</title>
<g id="a_edge2_Node000001_Node000003"><a xlink:title=" ">
<path fill="none" stroke="#63b8ff" d="M62.17,-120.87C68.77,-113.44 78.57,-102.42 87.28,-92.62"/>
<polygon fill="#63b8ff" stroke="#63b8ff" points="89.93,-94.91 93.95,-85.11 84.69,-90.26 89.93,-94.91"/>
</a>
</g>
</g>
<!-- Node3&#45;&gt;Node2 -->
<g id="edge4_Node000003_Node000002" class="edge">
<title>Node3&#45;&gt;Node2</title>
<g id="a_edge4_Node000003_Node000002"><a xlink:title=" ">
<path fill="none" stroke="#63b8ff" d="M86.41,-54.84C73.62,-45.83 57.1,-34.18 44.2,-25.09"/>
<polygon fill="#63b8ff" stroke="#63b8ff" points="46.13,-22.17 35.94,-19.27 42.09,-27.89 46.13,-22.17"/>
</a>
</g>
</g>
<!-- Node4 -->
<g id="Node000004" class="node">
<title>Node4</title>
<g id="a_Node000004"><a xlink:title=" ">
<polygon fill="#e0e0e0" stroke="#999999" points="126.5,-19 86.5,-19 86.5,0 126.5,0 126.5,-19"/>
<text text-anchor="middle" x="106.5" y="-7" font-family="Helvetica,sans-Serif" font-size="10.00">span</text>
</a>
</g>
</g>
<!-- Node3&#45;&gt;Node4 -->
<g id="edge3_Node000003_Node000004" class="edge">
<title>Node3&#45;&gt;Node4</title>
<g id="a_edge3_Node000003_Node000004"><a xlink:title=" ">
<path fill="none" stroke="#63b8ff" d="M106.5,-54.84C106.5,-47.21 106.5,-37.7 106.5,-29.45"/>
<polygon fill="#63b8ff" stroke="#63b8ff" points="110,-29.27 106.5,-19.27 103,-29.27 110,-29.27"/>
</a>
</g>
</g>
</g>
</svg>
